<svg width="550" height="239" viewBox="0 0 550 239" fill="none" xmlns="http://www.w3.org/2000/svg">
<g clip-path="url(#clip0_1228_5461)">
<mask id="mask0_1228_5461" style="mask-type:luminance" maskUnits="userSpaceOnUse" x="0" y="0" width="550" height="239">
<path d="M550 0H0V238.139H550V0Z" fill="white"/>
</mask>
<g mask="url(#mask0_1228_5461)">
<path d="M192.297 74.3762C220.453 72.6995 244.84 55.0422 266.484 37.0442C274.71 30.1803 284.464 22.7139 295.01 24.6788C312.911 28.0583 318.685 55.7495 336.849 57.2166C349.82 58.2645 360.234 44.6154 373.257 44.7988C383.566 44.956 391.528 53.7061 397.169 62.2728C402.811 70.8395 408.189 80.5589 417.575 84.7768C425.141 88.1825 434.316 87.449 441.276 91.9288C446.206 95.1249 449.238 100.443 452.059 105.552C454.642 110.189 457.2 114.852 459.783 119.489C460.89 121.506 462.051 123.733 461.629 125.986C461.075 128.868 458.228 130.623 455.67 132.012C443.016 138.928 428.331 146.054 414.701 141.286" fill="#359355"/>
<path d="M127.733 90.1212C127.733 90.1212 144.791 76.0791 161.347 69.2938C177.93 62.5086 188.159 71.2325 199.363 61.0677C210.568 50.9029 219.822 46.0563 234.928 47.4972C250.035 48.9381 252.46 72.6734 252.46 72.6734L252.935 105.552L126.23 139.033L127.707 90.1212H127.733Z" fill="#21A854"/>
<path d="M519.84 197.663C505.656 186.843 502.862 190.93 497.22 178.565C491.552 166.199 424.825 100.993 398.804 99.8661C372.783 98.7396 361.473 89.7537 354.671 82.9947C347.896 76.2618 295.59 64.0274 284.254 69.5027C272.917 74.9781 220.058 79.6151 207.614 91.9805C195.171 104.346 95.6212 166.173 86.5784 166.173C77.5356 166.173 65.6192 177.648 53.1756 185.507C40.7319 193.366 33.6928 190.354 13.7091 215.032C4.98267 225.826 8.48905 235.414 6.88086 238.112H550C550 238.112 545.808 217.442 519.866 197.637" fill="#009F3B"/>
<path d="M279.799 60.3338L278.586 66.3593C278.586 66.3593 283.806 70.3938 284.123 71.6775C284.439 72.9874 289.29 72.1752 278.375 74.9784C267.487 77.7816 227.52 81.9994 210.568 84.8026C193.616 87.6058 184.125 92.2166 184.125 92.2166V127.296C184.125 127.296 228.126 109.848 265.062 105.237C301.997 100.626 321.559 101.229 323.589 99.2115C325.619 97.2204 323.589 72.7516 323.589 72.7516C323.589 72.7516 290.081 59.3121 279.799 60.3076" fill="#F29749"/>
<path d="M272.944 8.33105H230.182V27.8485H272.944V8.33105Z" fill="#E8862D"/>
<path d="M277.741 14.3823H225.383C229.153 8.35677 231.156 7.49224 230.682 1.15234H272.442C271.994 7.12546 274.129 8.01619 277.741 14.3823Z" fill="#F7B548"/>
<path d="M273.287 0H229.84V2.17443H273.287V0Z" fill="#E8862D"/>
<path d="M271.836 21.7441V26.355H263.374V21.7441H255.886V26.355H247.424V21.7441H239.963V26.355H231.5V21.7441H223.986V62.0365H279.087V21.7441H271.836Z" fill="#F9C268"/>
<path d="M246.658 43.4622V37.0699C246.658 34.0572 249.084 31.5684 252.036 31.5684C254.989 31.5684 257.415 34.031 257.415 37.0699V43.4622" fill="#9B3A20"/>
<path d="M233.371 41.2359V37.2277C233.371 35.3152 234.9 33.7695 236.746 33.7695C238.591 33.7695 240.12 35.3152 240.12 37.2277V41.2359" fill="#9B3A20"/>
<path d="M263.637 41.2359V37.2277C263.637 35.3152 265.166 33.7695 267.011 33.7695C268.857 33.7695 270.386 35.3152 270.386 37.2277V41.2359" fill="#9B3A20"/>
<path d="M335.004 77.3621V102.538C335.004 102.538 336.507 111.262 292.875 116.03C269.464 118.598 213.52 135.81 200.259 145.712C186.972 155.615 178.852 158.314 178.852 158.314V117.235C178.852 117.235 206.903 102.538 241.597 96.539C276.292 90.5397 309.167 86.348 317.92 84.5404C326.673 82.7327 335.03 77.3359 335.03 77.3359" fill="#E8862D"/>
<path d="M274.764 54.5968V64.1852C274.764 64.1852 303.421 67.4862 311.277 72.5686C319.134 77.651 320.927 86.0605 314.889 88.7589C308.852 91.4573 331.472 86.663 332.395 79.773C333.291 72.8829 327.57 66.8836 322.429 64.4734C317.288 62.0894 298.886 54.885 292.559 54.2824C286.232 53.6799 274.764 54.5706 274.764 54.5706" fill="#E8862D"/>
<path d="M224.065 59.9932V78.5675C224.065 78.5675 263.875 75.8691 272.944 74.9784C281.987 74.0877 282.593 71.6775 282.593 71.6775C282.593 71.6775 266.59 61.4865 261.766 60.5957C256.941 59.705 236.72 58.7881 231.289 58.7881C225.858 58.7881 224.039 59.9932 224.039 59.9932" fill="#F29749"/>
<path d="M150.749 109.114C149.984 109.114 149.22 108.826 148.64 108.223C147.506 107.07 147.559 105.21 148.719 104.084C160.899 92.4257 198.098 81.0558 241.255 75.7901C248.98 74.8469 256.52 74.1658 263.164 73.5632C269.965 72.9607 277.4 72.2795 281.697 71.5198C254.49 58.9186 227.494 61.7742 227.23 61.8004C225.622 61.9838 224.172 60.8311 223.987 59.233C223.803 57.6349 224.963 56.194 226.571 56.0106C227.784 55.8796 256.335 52.8145 285.573 66.8828C287.155 67.6425 290.872 69.424 290.266 72.7249C289.501 76.8904 283.701 77.5977 263.717 79.4054C257.126 80.0079 249.639 80.6629 241.994 81.606C200.655 86.6622 163.983 97.6391 152.831 108.328C152.251 108.878 151.513 109.14 150.801 109.14L150.749 109.114Z" fill="#F7B548"/>
<path d="M189.529 117.262C188.554 117.262 187.605 116.79 187.051 115.9C186.181 114.537 186.603 112.73 187.974 111.865C188.976 111.236 213.441 96.1726 266.907 88.8633C275.159 87.7368 283.094 86.8985 290.792 86.1126C308.377 84.2787 326.568 82.3925 328.993 77.6244C329.178 77.2839 329.705 76.2622 328.203 73.6948C320.241 60.1504 288.604 55.33 277.4 56.9281C275.791 57.1639 274.315 56.0374 274.078 54.4393C273.841 52.8412 274.974 51.3742 276.582 51.1384C288.683 49.4093 323.562 54.1511 333.291 70.7344C335.347 74.2449 335.69 77.4411 334.266 80.2442C330.391 87.8416 314.045 89.5445 291.425 91.9023C283.806 92.6882 275.897 93.5266 267.751 94.6269C215.709 101.753 191.401 116.633 191.164 116.79C190.689 117.105 190.136 117.236 189.608 117.236L189.529 117.262Z" fill="#F7B548"/>
<path d="M182.568 71.625V80.3489H170.151V71.625H159.183V80.3489H146.766V71.625H135.799V80.3489H123.381V71.625H112.361V138.927H193.219V71.625H182.568Z" fill="#F9C268"/>
<path d="M142.549 138.063V124.021C142.549 117.366 146.372 111.943 151.038 111.943C155.704 111.943 159.527 117.366 159.527 124.021V138.063" fill="#9B3A20"/>
<path d="M124.674 113.254V105.604C124.674 101.989 126.915 99.0283 129.63 99.0283C132.346 99.0283 134.587 101.989 134.587 105.604V113.254" fill="#9B3A20"/>
<path d="M169.07 113.254V105.604C169.07 101.989 171.311 99.0283 174.027 99.0283C176.742 99.0283 178.983 101.989 178.983 105.604V113.254" fill="#9B3A20"/>
<path d="M101.605 137.67H170.942L193.641 125.907L193.799 143.224C193.799 143.224 299.729 138.587 307.137 138.404C314.519 138.22 392.845 139.504 392.845 139.504V187.158H100.604L101.605 137.644V137.67Z" fill="#F29749"/>
<path d="M116.158 125.907V158.131C113.153 167.352 86.3936 159.283 89.3991 150.062C91.4291 143.827 96.5173 137.801 98.02 136.648C99.5227 135.496 116.132 125.907 116.132 125.907" fill="#E8862D"/>
<path d="M365.191 231.956C365.191 231.956 319.028 218.648 252.091 219.958C185.18 221.241 127.601 220.455 92.8011 207.592C84.5756 204.553 80.9638 201.331 80.252 198.187V147.494C80.252 147.494 83.8374 165.387 127.206 165.387C170.574 165.387 233.531 160.541 264.64 161.274C342.281 163.056 375.077 180.713 375.077 180.713L365.165 231.982L365.191 231.956Z" fill="#E8862D"/>
<path d="M161.057 140.29V162.401C161.057 162.401 227.889 156.742 269.306 159.467C310.723 162.218 355.489 172.435 367.116 174.085C378.742 175.736 390.131 174.452 392.293 174.269C394.455 174.085 393.11 134.631 393.11 134.631C393.11 134.631 373.232 131.54 322.35 133.347C271.468 135.181 217.765 140.526 203.766 142.045C189.74 143.565 183.809 143.748 177.297 142.648C170.785 141.547 161.057 140.264 161.057 140.264" fill="#E8862D"/>
<path d="M178.324 149.564C169.386 149.564 164.298 147.887 162.189 143.774C160.897 141.233 160.766 138.456 161.846 135.705C165.458 126.431 183.386 119.175 188.79 117.157C191.453 116.162 194.432 117.498 195.434 120.17C196.436 122.816 195.091 125.776 192.402 126.772C182.99 130.282 173.605 135.81 171.733 138.823C178.192 140.788 203.264 137.094 221.85 134.369C238.038 131.985 254.779 129.549 270.043 128.396C309.694 125.41 372.519 128.16 415.887 139.268C418.655 139.976 420.316 142.779 419.605 145.503C418.893 148.228 416.098 149.905 413.33 149.197C371.016 138.378 309.615 135.679 270.834 138.613C255.939 139.74 239.356 142.176 223.353 144.508C202.789 147.521 188.184 149.538 178.324 149.538V149.564Z" fill="#F7B548"/>
<path d="M374.946 181.656C374.366 181.656 373.786 181.551 373.206 181.342C372.758 181.184 326.437 164.392 261.371 165.597C242.31 165.963 223.803 166.985 205.902 167.981C160.951 170.47 122.118 172.618 96.3603 162.898C92.3003 161.379 79.9357 156.689 80.2257 147.127C80.5948 134.709 103.821 126.483 110.939 124.23C113.576 123.392 116.37 124.859 117.214 127.479C118.058 130.099 116.581 132.876 113.945 133.714C101.844 137.513 90.323 144.193 90.2176 147.415C90.2176 148.07 91.9312 150.612 99.9194 153.598C123.7 162.584 161.531 160.488 205.348 158.052C223.328 157.056 241.941 156.034 261.186 155.668C328.256 154.332 374.761 171.308 376.712 172.041C379.296 173.011 380.614 175.866 379.639 178.434C378.9 180.425 376.976 181.656 374.946 181.656Z" fill="#F7B548"/>
<path d="M488.625 93.3691H373.205V145.975H488.625V93.3691Z" fill="#E8862D"/>
<path d="M501.544 109.691H360.287C370.49 93.4222 375.842 86.9775 374.576 69.8965H487.255C486.016 85.982 491.789 92.5577 501.544 109.691Z" fill="#F7B548"/>
<path d="M489.522 66.752H372.309V72.5941H489.522V66.752Z" fill="#E8862D"/>
<path d="M485.646 129.549V141.94H462.789V129.549H442.621V141.94H419.79V129.549H399.621V141.94H376.764V129.549H356.49V238.165H505.234V129.549H485.646Z" fill="#F9C268"/>
<path d="M417.707 188.049V170.81C417.707 162.663 424.245 155.982 432.207 155.982C440.169 155.982 446.707 162.663 446.707 170.81V188.049" fill="#9B3A20"/>
<path d="M381.826 182.102V171.256C381.826 166.121 385.939 161.93 390.948 161.93C395.957 161.93 400.07 166.121 400.07 171.256V182.102" fill="#9B3A20"/>
<path d="M463.527 182.102V171.256C463.527 166.121 467.64 161.93 472.649 161.93C477.658 161.93 481.771 166.121 481.771 171.256V182.102" fill="#9B3A20"/>
<path d="M399.042 216.997H379.269C377.846 216.997 376.686 215.844 376.686 214.43V208.823C376.686 207.409 377.846 206.256 379.269 206.256H399.042C400.466 206.256 401.626 207.409 401.626 208.823V214.43C401.626 215.844 400.466 216.997 399.042 216.997Z" fill="#F4A45C"/>
<path d="M437.163 210.448H417.39C415.967 210.448 414.807 209.295 414.807 207.881V202.274C414.807 200.86 415.967 199.707 417.39 199.707H437.163C438.587 199.707 439.747 200.86 439.747 202.274V207.881C439.747 209.295 438.587 210.448 437.163 210.448Z" fill="#F4A45C"/>
<path d="M469.169 226.35H449.396C447.973 226.35 446.812 225.197 446.812 223.782V218.176C446.812 216.761 447.973 215.608 449.396 215.608H469.169C470.593 215.608 471.753 216.761 471.753 218.176V223.782C471.753 225.197 470.593 226.35 469.169 226.35Z" fill="#F4A45C"/>
<path d="M486.12 210.919H466.347C464.924 210.919 463.764 209.766 463.764 208.351V202.745C463.764 201.33 464.924 200.178 466.347 200.178H486.12C487.544 200.178 488.704 201.33 488.704 202.745V208.351C488.704 209.766 487.544 210.919 486.12 210.919Z" fill="#F4A45C"/>
<path d="M182.78 91.2733H172.92C172.234 91.2733 171.654 90.7231 171.654 90.0158V87.3698C171.654 86.6887 172.208 86.1123 172.92 86.1123H182.78C183.465 86.1123 184.045 86.6625 184.045 87.3698V90.0158C184.045 90.6969 183.492 91.2733 182.78 91.2733Z" fill="#F4A45C"/>
<path d="M154.254 107.49H144.473C143.762 107.49 143.182 106.914 143.182 106.233V103.456C143.182 102.748 143.762 102.172 144.473 102.172H154.254C154.966 102.172 155.52 102.748 155.52 103.456V106.233C155.52 106.94 154.94 107.49 154.254 107.49Z" fill="#F4A45C"/>
<path d="M154.016 95.5436H144.499C143.787 95.5436 143.207 94.9672 143.207 94.2599V91.3257C143.207 90.6184 143.787 90.042 144.499 90.042H154.016C154.728 90.042 155.308 90.6184 155.308 91.3257V94.2599C155.308 94.9672 154.728 95.5436 154.016 95.5436Z" fill="#F4A45C"/>
<path d="M128.681 92.5831H118.505C117.767 92.5831 117.16 91.9805 117.16 91.247V88.339C117.16 87.6055 117.767 87.0029 118.505 87.0029H128.681C129.419 87.0029 130.026 87.6055 130.026 88.339V91.247C130.026 91.9805 129.419 92.5831 128.681 92.5831Z" fill="#F4A45C"/>
<path d="M83.7832 162.951C83.7832 167.117 80.3822 170.496 76.1904 170.496C71.9986 170.496 68.5977 167.117 68.5977 162.951C68.5977 158.786 71.9986 155.406 76.1904 155.406C80.3822 155.406 83.7832 158.786 83.7832 162.951Z" fill="#009F3B"/>
<path d="M120.72 216.552C120.72 221.582 116.634 225.642 111.572 225.642C106.51 225.642 102.424 221.582 102.424 216.552C102.424 211.522 106.51 207.461 111.572 207.461C116.634 207.461 120.72 211.522 120.72 216.552Z" fill="#009F3B"/>
<path d="M87.1325 170.81C87.1325 175.5 83.3098 179.299 78.5907 179.299C73.8716 179.299 70.0488 175.5 70.0488 170.81C70.0488 166.121 73.8716 162.322 78.5907 162.322C83.3098 162.322 87.1325 166.121 87.1325 170.81Z" fill="#009F3B"/>
<path d="M91.1924 187.21C91.1924 193.288 86.236 198.187 80.146 198.187C74.056 198.187 69.0996 193.262 69.0996 187.21C69.0996 181.159 74.056 176.233 80.146 176.233C86.236 176.233 91.1924 181.159 91.1924 187.21Z" fill="#009F3B"/>
<path d="M100.524 204.5C100.524 210.578 95.5681 215.477 89.478 215.477C83.388 215.477 78.4316 210.552 78.4316 204.5C78.4316 198.449 83.388 193.523 89.478 193.523C95.5681 193.523 100.524 198.449 100.524 204.5Z" fill="#009F3B"/>
<path d="M92.2725 201.855C92.2725 207.933 87.3161 212.832 81.2261 212.832C75.1361 212.832 70.1797 207.907 70.1797 201.855C70.1797 195.803 75.1361 190.878 81.2261 190.878C87.3161 190.878 92.2725 195.803 92.2725 201.855Z" fill="#009F3B"/>
<path d="M112.467 209.478C112.467 213.513 109.171 216.787 105.111 216.787C101.051 216.787 97.7559 213.513 97.7559 209.478C97.7559 205.444 101.051 202.169 105.111 202.169C109.171 202.169 112.467 205.444 112.467 209.478Z" fill="#009F3B"/>
<path d="M144.289 220.613C144.289 224.647 140.994 227.922 136.934 227.922C132.874 227.922 129.578 224.647 129.578 220.613C129.578 216.578 132.874 213.304 136.934 213.304C140.994 213.304 144.289 216.578 144.289 220.613Z" fill="#009F3B"/>
<path d="M156.969 212.413C156.969 216.447 153.673 219.722 149.613 219.722C145.553 219.722 142.258 216.447 142.258 212.413C142.258 208.378 145.553 205.104 149.613 205.104C153.673 205.104 156.969 208.378 156.969 212.413Z" fill="#009F3B"/>
<path d="M169.809 206.099C169.809 210.134 166.513 213.408 162.453 213.408C158.393 213.408 155.098 210.134 155.098 206.099C155.098 202.065 158.393 198.79 162.453 198.79C166.513 198.79 169.809 202.065 169.809 206.099Z" fill="#009F3B"/>
<path d="M184.836 200.545C184.836 204.579 181.54 207.854 177.48 207.854C173.42 207.854 170.125 204.579 170.125 200.545C170.125 196.51 173.42 193.235 177.48 193.235C181.54 193.235 184.836 196.51 184.836 200.545Z" fill="#009F3B"/>
<path d="M191.902 209.923C191.902 213.958 188.607 217.233 184.547 217.233C180.487 217.233 177.191 213.958 177.191 209.923C177.191 205.889 180.487 202.614 184.547 202.614C188.607 202.614 191.902 205.889 191.902 209.923Z" fill="#009F3B"/>
<path d="M206.35 214.01C206.35 218.045 203.054 221.32 198.994 221.32C194.934 221.32 191.639 218.045 191.639 214.01C191.639 209.976 194.934 206.701 198.994 206.701C203.054 206.701 206.35 209.976 206.35 214.01Z" fill="#009F3B"/>
<path d="M211.965 218.124C211.965 222.158 208.669 225.433 204.609 225.433C200.549 225.433 197.254 222.158 197.254 218.124C197.254 214.089 200.549 210.814 204.609 210.814C208.669 210.814 211.965 214.089 211.965 218.124Z" fill="#009F3B"/>
<path d="M195.461 218.412C195.461 222.446 192.165 225.721 188.105 225.721C184.045 225.721 180.75 222.446 180.75 218.412C180.75 214.377 184.045 211.103 188.105 211.103C192.165 211.103 195.461 214.377 195.461 218.412Z" fill="#009F3B"/>
<path d="M181.883 211.679C181.883 215.714 178.587 218.989 174.527 218.989C170.467 218.989 167.172 215.714 167.172 211.679C167.172 207.645 170.467 204.37 174.527 204.37C178.587 204.37 181.883 207.645 181.883 211.679Z" fill="#009F3B"/>
<path d="M177.772 206.99C177.772 211.024 174.476 214.299 170.416 214.299C166.356 214.299 163.061 211.024 163.061 206.99C163.061 202.955 166.356 199.681 170.416 199.681C174.476 199.681 177.772 202.955 177.772 206.99Z" fill="#009F3B"/>
<path d="M165.67 219.59C165.67 223.625 162.374 226.9 158.314 226.9C154.254 226.9 150.959 223.625 150.959 219.59C150.959 215.556 154.254 212.281 158.314 212.281C162.374 212.281 165.67 215.556 165.67 219.59Z" fill="#009F3B"/>
<path d="M175.688 218.412C175.688 222.446 172.392 225.721 168.332 225.721C164.272 225.721 160.977 222.446 160.977 218.412C160.977 214.377 164.272 211.103 168.332 211.103C172.392 211.103 175.688 214.377 175.688 218.412Z" fill="#009F3B"/>
<path d="M186.893 220.168C186.893 224.202 183.597 227.477 179.537 227.477C175.477 227.477 172.182 224.202 172.182 220.168C172.182 216.133 175.477 212.858 179.537 212.858C183.597 212.858 186.893 216.133 186.893 220.168Z" fill="#009F3B"/>
<path d="M165.09 214.01C165.09 218.045 161.794 221.32 157.734 221.32C153.674 221.32 150.379 218.045 150.379 214.01C150.379 209.976 153.674 206.701 157.734 206.701C161.794 206.701 165.09 209.976 165.09 214.01Z" fill="#009F3B"/>
<path d="M146.504 216.369C146.504 220.403 143.208 223.678 139.148 223.678C135.088 223.678 131.793 220.403 131.793 216.369C131.793 212.334 135.088 209.06 139.148 209.06C143.208 209.06 146.504 212.334 146.504 216.369Z" fill="#009F3B"/>
<path d="M130.289 213.146C130.289 217.181 126.994 220.455 122.934 220.455C118.874 220.455 115.578 217.181 115.578 213.146C115.578 209.112 118.874 205.837 122.934 205.837C126.994 205.837 130.289 209.112 130.289 213.146Z" fill="#009F3B"/>
<path d="M250.877 216.081C250.877 220.115 247.582 223.39 243.521 223.39C239.461 223.39 236.166 220.115 236.166 216.081C236.166 212.046 239.461 208.771 243.521 208.771C247.582 208.771 250.877 212.046 250.877 216.081Z" fill="#009F3B"/>
<path d="M235.85 218.988C235.85 223.022 232.554 226.297 228.494 226.297C224.434 226.297 221.139 223.022 221.139 218.988C221.139 214.953 224.434 211.679 228.494 211.679C232.554 211.679 235.85 214.953 235.85 218.988Z" fill="#009F3B"/>
<path d="M225.516 218.988C225.516 223.022 222.22 226.297 218.16 226.297C214.1 226.297 210.805 223.022 210.805 218.988C210.805 214.953 214.1 211.679 218.16 211.679C222.22 211.679 225.516 214.953 225.516 218.988Z" fill="#009F3B"/>
<path d="M263.848 219.59C263.848 223.625 260.552 226.9 256.492 226.9C252.432 226.9 249.137 223.625 249.137 219.59C249.137 215.556 252.432 212.281 256.492 212.281C260.552 212.281 263.848 215.556 263.848 219.59Z" fill="#009F3B"/>
<path d="M522.529 196.144C522.529 200.179 519.234 203.453 515.174 203.453C511.114 203.453 507.818 200.179 507.818 196.144C507.818 192.11 511.114 188.835 515.174 188.835C519.234 188.835 522.529 192.11 522.529 196.144Z" fill="#009F3B"/>
<path d="M534.762 203.269C534.762 207.304 531.466 210.578 527.406 210.578C523.346 210.578 520.051 207.304 520.051 203.269C520.051 199.235 523.346 195.96 527.406 195.96C531.466 195.96 534.762 199.235 534.762 203.269Z" fill="#009F3B"/>
<path d="M540.219 211.627C540.219 215.661 536.923 218.936 532.863 218.936C528.803 218.936 525.508 215.661 525.508 211.627C525.508 207.592 528.803 204.317 532.863 204.317C536.923 204.317 540.219 207.592 540.219 211.627Z" fill="#009F3B"/>
<path d="M543.594 220.848C543.594 224.883 540.298 228.157 536.238 228.157C532.178 228.157 528.883 224.883 528.883 220.848C528.883 216.814 532.178 213.539 536.238 213.539C540.298 213.539 543.594 216.814 543.594 220.848Z" fill="#009F3B"/>
<path d="M78.7216 177.255C78.7216 183.49 73.6334 188.547 67.3589 188.547C61.0843 188.547 55.9961 183.49 55.9961 177.255C55.9961 171.02 61.0843 165.99 67.3589 165.99C73.6334 165.99 78.7216 171.046 78.7216 177.255Z" fill="#009F3B"/>
<path d="M66.3311 181.657C66.3311 187.735 61.3747 192.634 55.2847 192.634C49.1947 192.634 44.2383 187.708 44.2383 181.657C44.2383 175.605 49.1947 170.68 55.2847 170.68C61.3747 170.68 66.3311 175.605 66.3311 181.657Z" fill="#009F3B"/>
<path d="M54.5465 191.899C54.5465 196.825 50.5128 200.833 45.5564 200.833C40.6001 200.833 36.5664 196.825 36.5664 191.899C36.5664 186.974 40.6001 182.966 45.5564 182.966C50.5128 182.966 54.5465 186.974 54.5465 191.899Z" fill="#009F3B"/>
<path d="M46.8754 196.301C46.8754 203.662 40.8645 209.635 33.4562 209.635C26.048 209.635 20.0371 203.662 20.0371 196.301C20.0371 188.939 26.048 182.966 33.4562 182.966C40.8645 182.966 46.8754 188.939 46.8754 196.301Z" fill="#009F3B"/>
<path d="M29.1849 208.745C29.1849 214.09 24.8349 218.412 19.4567 218.412C14.0785 218.412 9.72852 214.09 9.72852 208.745C9.72852 203.401 14.0785 199.078 19.4567 199.078C24.8349 199.078 29.1849 203.401 29.1849 208.745Z" fill="#009F3B"/>
<path d="M21.2219 219.722C21.2219 225.302 16.661 229.834 11.0455 229.834C5.43007 229.834 0.869141 225.302 0.869141 219.722C0.869141 214.142 5.43007 209.609 11.0455 209.609C16.661 209.609 21.2219 214.142 21.2219 219.722Z" fill="#009F3B"/>
<path d="M13.261 230.856C13.261 234.497 10.2819 237.458 6.61729 237.458C2.95274 237.458 0 234.497 0 230.856C0 227.214 2.9791 224.254 6.64366 224.254C10.3082 224.254 13.2873 227.214 13.2873 230.856" fill="#009F3B"/>
<path d="M323.43 111.393C323.43 114.17 321.163 116.397 318.395 116.397C315.627 116.397 313.359 114.17 313.359 111.393C313.359 108.616 315.627 106.39 318.395 106.39C321.163 106.39 323.43 108.616 323.43 111.393Z" fill="#009F3B"/>
<path d="M317.419 106.364C317.419 108.486 315.679 110.215 313.543 110.215C311.408 110.215 309.668 108.486 309.668 106.364C309.668 104.242 311.408 102.513 313.543 102.513C315.679 102.513 317.419 104.242 317.419 106.364Z" fill="#009F3B"/>
<path d="M316.258 110.031C316.258 112.913 313.912 115.244 311.012 115.244C308.112 115.244 305.766 112.913 305.766 110.031C305.766 107.149 308.112 104.844 311.012 104.844C313.912 104.844 316.258 107.175 316.258 110.031Z" fill="#009F3B"/>
<path d="M310.063 104.739C310.063 107.359 307.928 109.455 305.318 109.455C302.708 109.455 300.572 107.333 300.572 104.739C300.572 102.145 302.708 100.023 305.318 100.023C307.928 100.023 310.063 102.145 310.063 104.739Z" fill="#009F3B"/>
<path d="M305.608 113.123C305.608 115.559 303.605 117.55 301.153 117.55C298.701 117.55 296.697 115.559 296.697 113.123C296.697 110.686 298.701 108.695 301.153 108.695C303.605 108.695 305.608 110.686 305.608 113.123Z" fill="#009F3B"/>
<path d="M302.577 107.804C302.577 109.926 300.837 111.655 298.702 111.655C296.566 111.655 294.826 109.926 294.826 107.804C294.826 105.682 296.566 103.953 298.702 103.953C300.837 103.953 302.577 105.682 302.577 107.804Z" fill="#009F3B"/>
<path d="M296.882 112.625C296.882 114.799 295.115 116.581 292.901 116.581C290.686 116.581 288.92 114.799 288.92 112.625C288.92 110.45 290.686 108.669 292.901 108.669C295.115 108.669 296.882 110.45 296.882 112.625Z" fill="#009F3B"/>
<path d="M302.103 114.669C302.103 116.371 300.705 117.76 298.992 117.76C297.278 117.76 295.881 116.371 295.881 114.669C295.881 112.966 297.278 111.577 298.992 111.577C300.705 111.577 302.103 112.966 302.103 114.669Z" fill="#009F3B"/>
<path d="M291.055 117.079C291.055 119.699 288.92 121.795 286.31 121.795C283.7 121.795 281.564 119.672 281.564 117.079C281.564 114.485 283.7 112.363 286.31 112.363C288.92 112.363 291.055 114.485 291.055 117.079Z" fill="#009F3B"/>
<path d="M282.909 117.838C282.909 119.803 281.301 121.401 279.324 121.401C277.346 121.401 275.738 119.803 275.738 117.838C275.738 115.873 277.346 114.275 279.324 114.275C281.301 114.275 282.909 115.873 282.909 117.838Z" fill="#009F3B"/>
<path d="M310.249 114.747C310.249 117.367 308.113 119.462 305.503 119.462C302.893 119.462 300.758 117.34 300.758 114.747C300.758 112.153 302.867 110.031 305.503 110.031C308.14 110.031 310.249 112.153 310.249 114.747Z" fill="#009F3B"/>
<path d="M329.837 108.014C329.837 109.979 328.229 111.577 326.251 111.577C324.274 111.577 322.666 109.979 322.666 108.014C322.666 106.049 324.274 104.451 326.251 104.451C328.229 104.451 329.837 106.049 329.837 108.014Z" fill="#009F3B"/>
<path d="M339.063 103.193C339.063 105.447 337.244 107.254 334.977 107.254C332.71 107.254 330.891 105.447 330.891 103.193C330.891 100.94 332.71 99.1328 334.977 99.1328C337.244 99.1328 339.063 100.94 339.063 103.193Z" fill="#009F3B"/>
<path d="M275.554 117.838C275.554 119.908 273.866 121.584 271.784 121.584C269.701 121.584 268.014 119.908 268.014 117.838C268.014 115.768 269.701 114.092 271.784 114.092C273.866 114.092 275.554 115.768 275.554 117.838Z" fill="#009F3B"/>
<path d="M266.432 122.842C266.432 124.912 264.744 126.588 262.635 126.588C260.526 126.588 258.865 124.912 258.865 122.842C258.865 120.772 260.553 119.096 262.635 119.096C264.718 119.096 266.432 120.772 266.432 122.842Z" fill="#009F3B"/>
</g>
</g>
<defs>
<clipPath id="clip0_1228_5461">
<rect width="550" height="238.165" fill="white"/>
</clipPath>
</defs>
</svg>
