<svg width="43" height="45" viewBox="0 0 43 45" fill="none" xmlns="http://www.w3.org/2000/svg">
<path d="M14.4422 38.7053L12.9175 39.4798C11.3202 40.351 9.40829 40.2542 7.88361 39.262L7.54478 39.02C6.57672 38.3907 5.87489 37.4469 5.53607 36.3336L3.33374 28.9764L8.87586 27.6211L10.9088 34.0345L15.4586 30.5495C15.4586 30.5495 16.8381 29.1216 17.8546 28.9522" fill="white"/>
<path d="M10.5939 40.6686C9.52909 40.6686 8.48843 40.354 7.56877 39.749L7.22995 39.5312C6.16509 38.8293 5.36644 37.7645 4.97922 36.5302L2.77689 29.173C2.72849 29.0036 2.75269 28.8342 2.82529 28.7132C2.8979 28.5679 3.04311 28.4711 3.21252 28.4227L8.75464 27.0675C9.06925 26.9949 9.38388 27.1643 9.48068 27.4789L11.2716 33.0936L15.1438 30.141C15.1438 30.141 16.6201 28.6405 17.806 28.4469C18.1448 28.3985 18.4352 28.6163 18.5078 28.9552C18.5562 29.2698 18.3384 29.5844 17.9996 29.657C17.3945 29.7538 16.4023 30.5767 15.9183 31.0607L11.2958 34.5941C11.1264 34.7151 10.9328 34.7393 10.7634 34.6909C10.5697 34.6425 10.4245 34.4973 10.3761 34.3037L8.51263 28.4227L4.13217 29.5118L6.16509 36.264C6.45551 37.232 7.08474 38.0549 7.90759 38.6115L8.24641 38.8293C9.57749 39.7006 11.2716 39.7732 12.6511 39.023L14.2 38.2485C14.4904 38.1033 14.8534 38.2243 14.9986 38.5147C15.1438 38.8051 15.0228 39.1682 14.7324 39.3134L13.2077 40.0878C12.3848 40.5234 11.4894 40.7413 10.6181 40.7413L10.5939 40.6686Z" fill="#3E3A39"/>
<path d="M21.0732 27.9629C24.6066 28.0355 25.5989 29.2456 27.8738 34.6667L30.8506 43.0646C30.8506 43.0646 23.3239 45.8961 14.3452 43.2098L14.4662 37.7403" fill="white"/>
<path d="M22.4043 44.9772C19.96 44.9772 17.1768 44.6868 14.2 43.7914C13.9338 43.7188 13.7644 43.4767 13.7644 43.2105L13.8854 37.741C13.8854 37.4022 14.1516 37.1602 14.4905 37.1602C14.8293 37.1602 15.0955 37.4506 15.0713 37.7652L14.9745 42.7749C22.0897 44.7594 28.261 43.2347 30.1004 42.7023L27.3172 34.8852C25.0665 29.5367 24.171 28.6413 21.0732 28.5687C20.7344 28.5687 20.4682 28.2783 20.4924 27.9636C20.4924 27.6248 20.7586 27.3828 21.0974 27.3828C24.9455 27.4554 26.1313 28.9559 28.4305 34.4496L31.4314 42.8717C31.5524 43.1863 31.383 43.5252 31.0684 43.6462C30.8506 43.7188 27.3898 45.0014 22.3801 45.0014L22.4043 44.9772Z" fill="#3E3A39"/>
<path d="M27.5837 21.7422C27.5837 21.7422 36.7076 23.9203 36.5866 33.02C36.5866 33.02 28.5033 33.3105 26.7124 22.7828" fill="white"/>
<path d="M36.5381 33.6022C35.8121 33.6022 27.874 33.3601 26.1073 22.8809C26.0589 22.5421 26.2767 22.2517 26.5913 22.1791C26.9302 22.1065 27.2206 22.3485 27.2932 22.6631C28.7211 31.0126 34.1422 32.1985 35.9815 32.3679C35.7153 24.4056 27.8014 22.3969 27.4384 22.3001C27.1238 22.2275 26.906 21.8887 27.0028 21.5741C27.0754 21.2594 27.39 21.0416 27.7288 21.1384C27.8256 21.1384 37.3368 23.5586 37.1916 32.9971C37.1916 33.3117 36.9253 33.578 36.6107 33.578H36.5623L36.5381 33.6022Z" fill="#3E3A39"/>
<path d="M23.1547 5.57843C17.0559 4.70718 11.3928 8.94243 10.5215 15.0412C9.74708 20.3897 12.9417 25.4236 17.8546 27.1419V28.0615C17.9272 29.4652 19.8875 32.2484 19.8875 32.2484C20.7587 32.2484 22.8642 29.6588 23.3725 27.6501C28.0675 26.8999 31.9398 23.1728 32.6416 18.2116C33.5129 12.1128 29.2776 6.44968 23.1789 5.57843" fill="white"/>
<path d="M19.8631 32.8473C19.6695 32.8473 19.4759 32.7505 19.3791 32.6053C19.1613 32.3149 17.2978 29.6286 17.2736 28.1039V27.5956C12.2155 25.6111 9.16611 20.3836 9.91636 14.9867C10.836 8.57333 16.8138 4.07187 23.2271 5.01573C26.3491 5.45135 29.0839 7.09705 30.9716 9.614C32.8593 12.1309 33.6579 15.2287 33.1981 18.3265C32.4963 23.3362 28.7209 27.2568 23.808 28.2007C23.1303 30.2094 21.0974 32.8715 19.8631 32.8715V32.8473ZM21.5572 6.05639C16.4023 6.05639 11.8525 9.85601 11.1022 15.1319C10.4004 20.0932 13.3046 24.9093 18.048 26.5792C18.29 26.6518 18.4353 26.8696 18.4595 27.1358V28.0555C18.5079 28.8541 19.4275 30.4756 20.1294 31.5405C20.8312 31.0564 22.3559 29.2171 22.7915 27.523C22.8399 27.281 23.0335 27.1116 23.2755 27.0874C27.8738 26.3614 31.383 22.7554 32.0364 18.1571C32.4479 15.3739 31.7218 12.5908 30.0277 10.3158C28.3336 8.0651 25.8651 6.58882 23.0819 6.2016C22.5737 6.12899 22.0655 6.10479 21.5814 6.10479L21.5572 6.05639Z" fill="#3E3A39"/>
<path d="M23.1546 5.57222C18.6047 4.91878 14.2969 7.09691 12.0461 10.7997C16.3298 11.429 28.4063 13.2199 32.3753 13.8007C31.2621 9.58965 27.7287 6.24986 23.1546 5.59642" fill="white"/>
<path d="M32.3754 14.3873C32.3754 14.3873 32.327 14.3873 32.2786 14.3873L11.9494 11.3863C11.7558 11.3621 11.5864 11.2411 11.4896 11.0475C11.3928 10.8539 11.417 10.6603 11.5138 10.4667C13.9582 6.44924 18.5564 4.29531 23.2031 4.97295C27.8982 5.65059 31.6978 9.03878 32.9078 13.6128C32.9562 13.8065 32.9078 14.0243 32.7626 14.1695C32.6416 14.2905 32.4964 14.3631 32.327 14.3631L32.3754 14.3873ZM13.0869 10.3457L31.5284 13.0562C30.2215 9.40181 26.9785 6.73965 23.0821 6.18302C19.2341 5.65059 15.386 7.24788 13.0869 10.3457Z" fill="#3E3A39"/>
<path d="M23.2273 14.289C23.2273 14.289 24.0017 14.0954 24.6552 14.531L23.2273 14.289Z" fill="white"/>
<path d="M24.6794 15.0134C24.6794 15.0134 24.4857 14.9892 24.4131 14.9408C23.9533 14.6504 23.3725 14.7714 23.3483 14.7714C23.1063 14.844 22.8401 14.6746 22.7674 14.4326C22.6948 14.1664 22.8643 13.9244 23.1063 13.8518C23.1547 13.8518 24.0985 13.6097 24.9214 14.1422C25.1392 14.2874 25.2118 14.5778 25.0424 14.8198C24.9456 14.965 24.8004 15.0376 24.631 15.0376L24.6794 15.0134Z" fill="#3E3A39"/>
<path d="M18.387 13.5136C18.387 13.5136 19.1614 13.32 19.8148 13.7556L18.387 13.5136Z" fill="white"/>
<path d="M19.8148 14.238C19.8148 14.238 19.6212 14.2138 19.5486 14.1654C19.0888 13.875 18.508 13.996 18.4838 13.996C18.2418 14.0686 17.9755 13.8992 17.9029 13.6572C17.8303 13.391 17.9997 13.149 18.2418 13.0764C18.2902 13.0764 19.234 12.8343 20.0569 13.3668C20.2747 13.512 20.3473 13.8024 20.2021 14.0202C20.1053 14.1654 19.9601 14.238 19.7907 14.238H19.8148Z" fill="#3E3A39"/>
<path d="M25.9861 44.103C25.6715 44.103 25.4053 43.861 25.3811 43.5464L24.9939 38.8271C24.9697 38.4883 25.2117 38.1979 25.5505 38.1737C25.9377 38.1253 26.1797 38.3915 26.2039 38.7303L26.5911 43.4496C26.6153 43.7884 26.3733 44.0788 26.0345 44.103C26.0345 44.103 26.0103 44.103 25.9861 44.103Z" fill="#3E3A39"/>
<path d="M6.23802 8.81864C5.875 10.1981 4.44712 11.021 3.06764 10.6579C1.68816 10.2949 0.86531 8.86704 1.22833 7.48756C1.59135 6.10808 3.01923 5.28523 4.39871 5.64825C5.77819 6.01127 6.60104 7.43916 6.23802 8.81864Z" fill="#FBDACF"/>
<path d="M3.72084 11.337C3.45463 11.337 3.16421 11.3128 2.898 11.2402C1.2039 10.7803 0.187438 9.03784 0.647265 7.34374C0.865077 6.52089 1.39751 5.81905 2.14775 5.40763C2.87379 4.99621 3.74504 4.8752 4.56789 5.09301C5.39074 5.31082 6.06837 5.84325 6.504 6.5693C6.93963 7.29534 7.03643 8.16659 6.81862 8.98944C6.4314 10.4173 5.14873 11.3612 3.72084 11.3612V11.337ZM3.72084 6.15787C3.38202 6.15787 3.04321 6.25468 2.72859 6.42409C2.26876 6.6903 1.92994 7.12593 1.78473 7.63416C1.49431 8.69902 2.14775 9.78808 3.18841 10.0785C4.22907 10.3689 5.34234 9.71548 5.63275 8.67482C5.77796 8.16659 5.70536 7.63416 5.43914 7.17433C5.17293 6.71451 4.7373 6.37569 4.22907 6.25468C4.05966 6.20628 3.89025 6.18207 3.69664 6.18207L3.72084 6.15787Z" fill="#3E3A39"/>
<path d="M6.45569 8.50357C6.45569 8.50357 6.35889 8.50357 6.31049 8.50357C5.99587 8.43097 5.80226 8.09215 5.87486 7.77753L7.56896 0.904332C7.61736 0.710721 7.73836 0.565512 7.93198 0.492908C8.10139 0.420304 8.3192 0.420305 8.46441 0.541312C8.56122 0.589715 10.5457 1.79979 10.933 3.7843C11.1508 4.87336 10.8604 5.93822 10.0859 6.97889C9.8923 7.2451 9.50507 7.2935 9.23885 7.09989C8.97264 6.90628 8.92424 6.51906 9.11785 6.25285C9.69868 5.5026 9.89229 4.72816 9.77129 4.00211C9.60188 3.17927 9.02104 2.50162 8.53701 2.066L7.06073 8.04375C6.98813 8.30996 6.74611 8.50357 6.4799 8.50357H6.45569Z" fill="#3E3A39"/>
<path d="M39.8536 19.8785C39.902 21.0644 38.9823 22.0566 37.8206 22.105C36.6348 22.1534 35.6425 21.258 35.5941 20.0721C35.5457 18.8862 36.4654 17.894 37.627 17.8456C38.8129 17.7972 39.8052 18.7168 39.8536 19.8785Z" fill="#FBDACF"/>
<path d="M37.6999 22.7086C37.0222 22.7086 36.3688 22.4666 35.8605 21.9825C35.3281 21.4985 35.0135 20.8209 34.9651 20.0706C34.9167 19.3204 35.1829 18.6427 35.6911 18.1103C36.1994 17.5779 36.8528 17.2632 37.603 17.2148C38.4017 17.2148 39.0309 17.4327 39.5634 17.9409C40.0958 18.4249 40.4104 19.1026 40.4588 19.8286C40.483 20.5546 40.241 21.2565 39.7328 21.7889C39.2245 22.3213 38.5711 22.636 37.8209 22.6844C37.7725 22.6844 37.7241 22.6844 37.6999 22.6844V22.7086ZM37.7241 18.4249C37.7241 18.4249 37.6757 18.4249 37.6514 18.4249C37.24 18.4249 36.8528 18.6185 36.5866 18.9089C36.3204 19.1994 36.1752 19.6108 36.1752 20.0222C36.1752 20.4336 36.3688 20.8209 36.6592 21.0871C36.9496 21.3533 37.361 21.5227 37.7725 21.4743C38.1839 21.4743 38.5711 21.2807 38.8373 20.9903C39.1035 20.6998 39.2487 20.2884 39.2487 19.877C39.2487 19.4656 39.0551 19.0784 38.7647 18.8121C38.4743 18.5459 38.1113 18.4007 37.7241 18.4007V18.4249Z" fill="#3E3A39"/>
<path d="M39.7812 19.7082C39.4666 19.7082 39.2004 19.4662 39.1762 19.1274L38.8857 12.4478C38.8857 12.2542 38.9583 12.0848 39.1036 11.9638C39.2488 11.8428 39.4424 11.7944 39.636 11.8428C39.7086 11.8428 41.6205 12.3268 42.4434 13.8273C42.9032 14.6501 42.9274 15.594 42.5644 16.6588C42.4676 16.9735 42.1045 17.1187 41.7899 17.0219C41.4753 16.9009 41.3059 16.562 41.4269 16.2474C41.6689 15.5214 41.6689 14.9163 41.3785 14.4081C41.0881 13.8757 40.5798 13.5127 40.12 13.2949L40.362 19.0548C40.362 19.3936 40.12 19.6598 39.7812 19.684H39.757L39.7812 19.7082Z" fill="#3E3A39"/>
<path d="M14.6841 24.1371C13.353 25.3229 11.2959 25.2019 10.11 23.8709C8.92416 22.5398 9.04517 20.4827 10.3762 19.2968C11.7073 18.1109 13.7644 18.2319 14.9503 19.563C16.1362 20.8941 16.0152 22.9512 14.6841 24.1371Z" fill="#FBDACF"/>
<path d="M12.5302 25.564C11.4653 25.564 10.4247 25.1283 9.65021 24.2813C8.24652 22.7082 8.39173 20.2638 9.96482 18.8602C11.5379 17.4565 13.9823 17.6017 15.3859 19.1748C16.7896 20.7479 16.6444 23.1922 15.0713 24.5959C14.3453 25.2493 13.4256 25.564 12.5302 25.564ZM12.5302 19.078C11.9009 19.078 11.2717 19.2958 10.7877 19.7314C9.6986 20.6995 9.6018 22.3694 10.5699 23.4584C11.5379 24.5475 13.2078 24.6443 14.2969 23.6762C15.3859 22.7082 15.4827 21.0383 14.5147 19.9492C14.0065 19.3684 13.2804 19.0538 12.5302 19.0538V19.078Z" fill="#3E3A39"/>
<path d="M9.44859 22.3359L1.09131 29.7637L2.97236 31.8801L11.3296 24.4524L9.44859 22.3359Z" fill="#FBDACF"/>
<path d="M2.97065 32.4868H2.94646C2.77705 32.4868 2.63184 32.4142 2.53503 32.2932L0.671523 30.1877C0.453711 29.9457 0.477913 29.5585 0.719927 29.3407L9.06941 21.9108C9.06941 21.9108 9.35983 21.7656 9.50503 21.7656C9.67444 21.7656 9.81965 21.8382 9.91645 21.9592L11.78 24.0648C11.9978 24.3068 11.9736 24.694 11.7316 24.9118L3.38208 32.3416C3.38208 32.3416 3.14006 32.4868 2.97065 32.4868ZM1.95419 29.8247L3.01906 31.0348L10.4731 24.4036L9.40823 23.1935L1.95419 29.8247Z" fill="#3E3A39"/>
<path d="M23.9048 20.9188C23.6143 22.7339 21.896 24.0166 20.0325 23.7503C18.169 23.4841 16.8864 21.79 17.1768 19.9749C17.443 18.1598 18.8951 18.8859 20.7344 19.1279C22.5979 19.3941 24.1952 19.0795 23.9048 20.9188Z" fill="white"/>
<path d="M20.5167 24.2845C20.3231 24.2845 20.1537 24.2845 19.96 24.2361C18.9194 24.0909 17.9997 23.5585 17.3947 22.7114C16.7897 21.8886 16.5476 20.8963 16.6929 19.904C16.7897 19.2748 17.0075 18.8392 17.3947 18.573C18.0239 18.1373 18.8468 18.3068 19.8148 18.4762C20.1294 18.5488 20.4683 18.5972 20.8071 18.6456C21.1459 18.694 21.4847 18.7182 21.7994 18.7424C22.7916 18.815 23.6387 18.8876 24.0985 19.4926C24.3889 19.8556 24.4615 20.3397 24.3647 20.9689C24.0743 22.8566 22.4044 24.2361 20.4925 24.2361L20.5167 24.2845ZM18.4112 19.2506C18.2175 19.2506 18.0481 19.2748 17.9513 19.3474C17.8061 19.4442 17.7093 19.6862 17.6609 20.0251C17.5399 20.7753 17.7335 21.5255 18.1933 22.1306C18.6532 22.7598 19.355 23.147 20.1295 23.268C21.7509 23.4859 23.2272 22.3968 23.4692 20.8479C23.5177 20.5091 23.4935 20.2429 23.3966 20.1219C23.1788 19.8556 22.5012 19.783 21.7751 19.7346C21.4363 19.7104 21.0733 19.6862 20.7103 19.6136C20.3473 19.5652 19.9842 19.4926 19.6696 19.42C19.2098 19.3232 18.7742 19.2506 18.4596 19.2506H18.4112Z" fill="#3E3A39"/>
<path d="M10.0376 26.6782C10.0376 28.7353 8.3193 30.4052 6.18957 30.4052C4.05985 30.4052 2.34155 28.7353 2.34155 26.6782C2.34155 24.6211 4.05985 22.9512 6.18957 22.9512C8.3193 22.9512 10.0376 24.6211 10.0376 26.6782Z" fill="white"/>
<path d="M6.18938 30.9883C3.74504 30.9883 1.73633 29.0522 1.73633 26.6563C1.73633 24.2603 3.72084 22.3242 6.18938 22.3242C8.65793 22.3242 10.6424 24.2603 10.6424 26.6563C10.6424 29.0522 8.65793 30.9883 6.18938 30.9883ZM6.18938 23.5585C4.39848 23.5585 2.9464 24.9622 2.9464 26.6805C2.9464 28.3988 4.39848 29.8025 6.18938 29.8025C7.98029 29.8025 9.43238 28.3988 9.43238 26.6805C9.43238 24.9622 7.98029 23.5585 6.18938 23.5585Z" fill="#3E3A39"/>
<path d="M7.32691 16.8513C7.32691 16.8513 7.10911 16.8271 7.0123 16.7545L5.19719 15.5928C4.90677 15.4234 4.83417 15.0362 5.00358 14.7699C5.17299 14.4795 5.56021 14.4069 5.82643 14.5763L7.64153 15.738C7.93195 15.9074 8.00456 16.2946 7.83515 16.5608C7.71414 16.7303 7.52052 16.8271 7.32691 16.8271V16.8513Z" fill="#3E3A39"/>
<path d="M4.78594 20.4123C4.47133 20.4123 4.20511 20.1703 4.18091 19.8315C4.18091 19.4927 4.42293 19.2265 4.76175 19.2023L6.89146 19.1055C7.25448 19.1055 7.4965 19.3475 7.5207 19.6863C7.5207 20.0251 7.27869 20.2913 6.93987 20.3155L4.81015 20.4123H4.78594Z" fill="#3E3A39"/>
<path d="M17.9028 15.8398C17.9028 15.8398 18.5079 16.6627 19.3791 16.0819L17.9028 15.8398Z" fill="white"/>
<path d="M18.7743 16.8991C18.1935 16.8991 17.6852 16.5603 17.4432 16.1972C17.2496 15.931 17.298 15.5438 17.5642 15.3502C17.8304 15.1566 18.1934 15.205 18.3871 15.4712C18.5807 15.7132 18.7985 15.7374 19.0405 15.5922C19.3067 15.3986 19.6939 15.4712 19.8633 15.7616C20.057 16.0278 19.9843 16.415 19.6939 16.5845C19.3551 16.8023 19.0405 16.8991 18.7501 16.8991H18.7743Z" fill="#3E3A39"/>
<path d="M22.8643 16.4141C22.8643 16.4141 23.5177 17.2369 24.4131 16.6561L22.8643 16.4141Z" fill="white"/>
<path d="M23.7839 17.4798C23.1546 17.4798 22.6464 17.0926 22.4044 16.8022C22.2108 16.536 22.235 16.173 22.5012 15.9551C22.7432 15.7615 23.1304 15.7857 23.3482 16.052C23.4692 16.1972 23.7354 16.415 24.1227 16.173C24.3889 16.0036 24.7761 16.0762 24.9455 16.3666C25.1149 16.657 25.0423 17.02 24.7519 17.1894C24.4131 17.4072 24.0743 17.4798 23.7839 17.4798Z" fill="#3E3A39"/>
</svg>
