<svg width="39" height="46" viewBox="0 0 39 46" fill="none" xmlns="http://www.w3.org/2000/svg">
<path d="M37.9174 29.4529C37.9174 32.6539 35.4773 35.2514 32.4599 35.2514C29.4426 35.2514 27.0024 32.6539 27.0024 29.4529C27.0024 26.2518 29.4426 23.6543 32.4599 23.6543C35.4773 23.6543 37.9174 26.2518 37.9174 29.4529Z" fill="white"/>
<path d="M32.4596 35.9071C29.1012 35.9071 26.3462 33.0209 26.3462 29.4526C26.3462 25.8842 29.0749 22.998 32.4596 22.998C35.8443 22.998 38.573 25.8842 38.573 29.4526C38.573 33.0209 35.8443 35.9071 32.4596 35.9071ZM32.4596 24.3099C29.8096 24.3099 27.6581 26.6189 27.6581 29.4526C27.6581 32.2862 29.8096 34.5952 32.4596 34.5952C35.1096 34.5952 37.2611 32.2862 37.2611 29.4526C37.2611 26.6189 35.1096 24.3099 32.4596 24.3099Z" fill="#3E3A39"/>
<path d="M12.204 27.8806C12.204 31.0816 9.76389 33.6792 6.74654 33.6792C3.72918 33.6792 1.28906 31.0816 1.28906 27.8806C1.28906 24.6796 3.72918 22.082 6.74654 22.082C9.76389 22.082 12.204 24.6796 12.204 27.8806Z" fill="white"/>
<path d="M6.74672 34.3328C3.38828 34.3328 0.633301 31.4467 0.633301 27.8783C0.633301 24.31 3.36204 21.4238 6.74672 21.4238C10.1314 21.4238 12.8339 24.31 12.8339 27.8783C12.8339 31.4467 10.1052 34.3328 6.74672 34.3328ZM6.74672 22.762C4.0967 22.762 1.94519 25.0709 1.94519 27.9046C1.94519 30.7383 4.0967 33.0472 6.74672 33.0472C9.39674 33.0472 11.5483 30.7383 11.5483 27.9046C11.5483 25.0709 9.39674 22.762 6.74672 22.762Z" fill="#3E3A39"/>
<path d="M6.06445 44.9834V43.3304C6.06445 37.7155 11.7843 33.0977 18.7636 33.0977C25.7428 33.0977 31.4627 37.6893 31.4627 43.3304V44.9834" fill="#FBDACF"/>
<path d="M31.4365 45.641C31.0692 45.641 30.7806 45.3524 30.7806 44.9851V43.3321C30.7806 38.0583 25.3756 33.7553 18.7374 33.7553C12.0992 33.7553 6.69422 38.0583 6.69422 43.3321V44.9851C6.69422 45.3524 6.4056 45.641 6.03827 45.641C5.67094 45.641 5.38232 45.3524 5.38232 44.9851V43.3321C5.38232 37.3236 11.3646 32.4434 18.7374 32.4434C26.1102 32.4434 32.0925 37.3236 32.0925 43.3321V44.9851C32.0925 45.3524 31.8038 45.641 31.4365 45.641Z" fill="#3E3A39"/>
<path d="M25.3754 37.3752C25.3754 39.2118 22.3843 40.7336 18.6848 40.7336C14.9853 40.7336 11.9941 39.2381 11.9941 37.3752C11.9941 35.5123 14.9853 34.043 18.6848 34.043C22.3843 34.043 25.3754 35.5385 25.3754 37.3752Z" fill="white"/>
<path d="M22.778 0.959402C13.9358 -0.588632 5.51348 5.3149 3.96545 14.1571C2.60108 21.9235 7.00904 29.375 14.1195 32.13V34.8587C14.1195 37.3251 16.1398 38.2172 18.6324 38.2172C21.125 38.2172 23.1453 37.3251 23.1453 34.8587V32.8909C29.5211 31.6052 34.7949 26.5676 35.9756 19.772C37.5237 10.9298 31.6201 2.50744 22.778 0.959402Z" fill="white"/>
<path d="M18.6326 38.8733C15.3528 38.8733 13.4637 37.4039 13.4637 34.8589V32.5762C6.19583 29.5588 1.9453 21.8449 3.30967 14.0522C4.91017 4.869 13.7261 -1.27067 22.8831 0.329838C32.0664 1.93035 38.2323 10.72 36.6055 19.9033C35.4248 26.6464 30.4134 31.894 23.7752 33.442V34.8851C23.7752 37.4302 21.8861 38.8995 18.6063 38.8995L18.6326 38.8733ZM19.9707 1.37936C12.5454 1.37936 5.93345 6.73187 4.62156 14.2884C3.3359 21.6087 7.42901 28.8504 14.382 31.5267C14.6444 31.6316 14.8018 31.8678 14.8018 32.1301V34.8589C14.8018 36.6693 16.0875 37.5876 18.6588 37.5876C21.2301 37.5876 22.5158 36.6693 22.5158 34.8589V32.891C22.5158 32.5762 22.7257 32.3138 23.0405 32.2613C29.4163 31.0019 34.2441 26.0429 35.3723 19.6671C36.8679 11.1923 31.1743 3.08481 22.6994 1.61549C21.8074 1.45806 20.889 1.37936 19.9969 1.37936H19.9707Z" fill="#3E3A39"/>
<path d="M13.831 17.1481C13.6998 17.9352 14.1984 18.6699 14.933 18.801C15.6939 18.9322 16.4023 18.4075 16.5335 17.6204C16.6647 16.8332 16.1662 16.0985 15.4315 15.9674C14.6706 15.8362 13.9622 16.3609 13.831 17.1481Z" fill="#3E3A39"/>
<path d="M21.3086 18.3531C21.1774 19.1403 21.6759 19.8749 22.4106 20.0061C23.1714 20.1373 23.8799 19.6126 24.0111 18.8254C24.1423 18.0383 23.6437 17.3036 22.9091 17.1724C22.1482 17.0412 21.4398 17.566 21.3086 18.3531Z" fill="#3E3A39"/>
<path d="M14.1457 14.3381C13.7784 14.3381 13.4897 14.0495 13.4897 13.7084C13.4897 13.3411 13.7784 13.0525 14.1195 13.0525L16.166 13C16.5333 13 16.822 13.2886 16.822 13.6297C16.822 13.997 16.5333 14.2856 16.1922 14.2856L14.1457 14.3381Z" fill="#3E3A39"/>
<path d="M23.7224 15.863C23.7224 15.863 23.565 15.8631 23.5125 15.8368L21.5709 15.1546C21.2298 15.0497 21.0461 14.6561 21.1773 14.315C21.2823 13.9739 21.6496 13.7903 22.0169 13.9215L23.9585 14.6036C24.2996 14.7086 24.4833 15.1022 24.3521 15.4433C24.2471 15.7056 24.011 15.8893 23.7486 15.8893L23.7224 15.863Z" fill="#3E3A39"/>
<path d="M6.61572 7.65085C10.1054 2.61319 16.3237 -0.246745 22.7782 0.881483C29.2328 2.00971 34.0868 6.81125 35.661 12.741C33.8506 14.4465 23.3555 14.7876 20.5218 8.07067C20.5218 8.07067 11.391 12.7935 6.61572 7.65085Z" fill="white"/>
<path d="M31.1745 14.4445C30.0462 14.4445 28.8655 14.3395 27.7111 14.0771C24.1952 13.3424 21.5452 11.532 20.2071 8.93449C18.0031 9.93153 10.499 12.7915 6.14356 8.09488C5.93366 7.88497 5.90742 7.54389 6.09108 7.28151C9.8431 1.87651 16.4288 -0.878463 22.8833 0.249765C29.3378 1.37799 34.6116 6.20575 36.2909 12.5815C36.3433 12.8177 36.2909 13.0538 36.1072 13.2375C35.2676 14.0246 33.3522 14.4445 31.1482 14.4445H31.1745ZM20.5219 7.41271C20.5219 7.41271 20.6793 7.41269 20.7318 7.43893C20.9155 7.49141 21.0467 7.62259 21.0991 7.80626C22.516 11.1909 26.0056 12.3717 27.9735 12.7915C30.9383 13.4212 33.7983 13.0276 34.9002 12.4766C33.221 6.83548 28.4457 2.55869 22.6472 1.53541C16.8748 0.512138 10.9713 2.8998 7.45545 7.59637C11.9159 11.6895 20.1021 7.54388 20.2071 7.51764C20.312 7.46517 20.417 7.43893 20.4957 7.43893L20.5219 7.41271Z" fill="#3E3A39"/>
<path d="M14.9854 23.9443C14.9854 23.9443 18.1864 23.7082 22.0433 24.6003L14.9854 23.9443Z" fill="white"/>
<path d="M22.0434 25.2548C22.0434 25.2548 21.9384 25.2548 21.886 25.2548C18.1602 24.389 15.0379 24.5989 15.0116 24.5989C14.6706 24.6514 14.3295 24.3628 14.3032 23.9954C14.3032 23.6281 14.5394 23.3132 14.9067 23.287C15.0379 23.287 18.2389 23.0509 22.1746 23.9692C22.5157 24.0479 22.7518 24.389 22.6731 24.7563C22.5944 25.0712 22.332 25.2548 22.0434 25.2548Z" fill="#3E3A39"/>
</svg>
