<svg width="941" height="133" viewBox="0 0 941 133" fill="none" xmlns="http://www.w3.org/2000/svg">
<path d="M167.88 25.6C168.52 25.6 169.04 25.8 169.44 26.2C169.84 26.5733 170.04 27.0933 170.04 27.76C170.04 28.4 169.84 28.9333 169.44 29.36C169.04 29.76 168.52 29.96 167.88 29.96C167.24 29.96 166.72 29.7467 166.32 29.32C165.92 28.8933 165.72 28.3733 165.72 27.76C165.72 27.12 165.92 26.6 166.32 26.2C166.747 25.8 167.267 25.6 167.88 25.6ZM167.88 39.04C168.52 39.04 169.04 39.24 169.44 39.64C169.84 40.04 170.04 40.56 170.04 41.2C170.04 41.84 169.84 42.3733 169.44 42.8C169.04 43.2 168.52 43.4 167.88 43.4C167.24 43.4 166.72 43.2 166.32 42.8C165.92 42.3733 165.72 41.84 165.72 41.2C165.72 40.56 165.92 40.04 166.32 39.64C166.747 39.24 167.267 39.04 167.88 39.04Z" fill="#231815"/>
<rect x="54" y="1" width="886" height="131" stroke="#D9D9D9" stroke-width="2"/>
<path d="M1 23H0V24H1V23ZM38 23L28 17.2265V28.7735L38 23ZM0 0V23H2V0H0ZM1 24H29V22H1V24Z" fill="#C9CACA"/>
</svg>
