<svg width="129" height="70" viewBox="0 0 129 70" fill="none" xmlns="http://www.w3.org/2000/svg">
<path d="M50.4418 60.9482C52.1177 60.9482 53.3305 61.4333 53.9479 62.4145C54.4771 63.3076 54.7858 64.2889 54.7858 65.4355C54.7858 66.5821 54.4771 67.6406 53.9479 68.6108C53.3415 69.5039 52.1948 70 50.4418 70H8.60057C6.16397 70 4.34478 69.4267 3.19815 68.2911C1.98536 67.1555 1.36794 65.1929 1.36794 62.5799V57.1224C1.36794 54.5094 1.97433 52.5579 3.19815 51.4223C4.34478 50.2756 6.16397 49.7133 8.60057 49.7133H43.2864C43.8156 49.7133 44.1243 49.4708 44.1243 48.9857V48.258C44.1243 47.7729 43.8156 47.5193 43.2864 47.5193H5.55758C3.72737 47.5193 2.59175 47.1114 2.06253 46.2183C1.45614 45.4024 1.22461 44.344 1.22461 43.1202C1.22461 42.6351 1.30179 42.0617 1.45614 41.4884C1.53332 41.0033 1.76485 40.5072 2.13971 40.022C2.44842 39.6141 2.82329 39.2062 3.42968 38.8754C3.9589 38.6329 4.64247 38.4675 5.55758 38.4675H46.3293C49.0747 38.4675 50.971 39.0408 52.0295 40.0992C53.0217 41.2459 53.551 42.9548 53.551 45.4024V51.6759C53.551 54.1235 53.0217 55.9206 52.0295 56.979C50.96 58.1147 49.0636 58.6108 46.3293 58.6108H11.6436C11.0372 58.6108 10.8056 58.8534 10.8056 59.3495V60.2425C10.8056 60.7277 11.0372 60.9702 11.6436 60.9702H50.4418V60.9482ZM59.4165 12.2822C60.2544 12.2822 60.938 12.4476 61.5443 12.6902C62.0736 13.0209 62.5366 13.4289 62.8343 13.914C63.143 14.3991 63.3635 14.9724 63.5179 15.4686C63.5951 16.1191 63.6722 16.6924 63.6722 17.1775C63.6722 18.4013 63.3635 19.4598 62.8343 20.441C62.2279 21.4994 61.0813 21.9956 59.4054 21.9956H53.551V30.5182C53.551 32.1499 53.0989 33.2856 52.261 33.9361C51.3459 34.6637 50.2103 35.0717 48.9093 35.0717C47.6965 35.1599 46.627 34.8291 45.6348 34.0132C44.5653 33.3627 44.1133 32.1389 44.1133 30.5072V4.48732C44.1133 2.94377 44.5653 1.79713 45.6348 0.981258C46.627 0.330762 47.6855 0 48.9093 0C50.1993 0.0882029 51.3459 0.407939 52.261 1.05844C53.0989 1.79713 53.551 2.93275 53.551 4.4763V12.2712H59.4054L59.4165 12.2822ZM124.235 32.4146C124.995 32.4146 125.679 32.5799 126.285 32.8225C126.737 33.1533 127.2 33.5502 127.498 33.9581C127.807 34.4432 128.027 35.0165 128.182 35.5127C128.259 36.1632 128.336 36.7365 128.336 37.2216C128.336 38.4454 128.038 39.5039 127.498 40.4851C126.892 41.4664 125.822 41.9515 124.224 41.9515H69.0636C67.3878 41.9515 66.3183 41.4664 65.7891 40.4851C65.1827 39.5039 64.9512 38.4454 64.9512 37.2216C64.9512 36.7365 65.0284 36.1632 65.1827 35.5127C65.2599 35.0276 65.4914 34.4542 65.7891 33.9581C66.0978 33.5502 66.4727 33.1422 67.0791 32.8225C67.5311 32.5799 68.2147 32.4146 69.0526 32.4146H124.212H124.235ZM96.616 0.385888C100.265 0.385888 103.694 0.628446 106.958 1.11356C110.155 1.59868 112.967 2.41455 115.403 3.56119C117.84 4.78501 119.736 6.32856 121.181 8.12569C122.548 10.0772 123.308 12.3594 123.308 15.1378C123.308 17.9162 122.548 20.3528 121.181 22.1499C119.736 24.1014 117.829 25.5678 115.403 26.7144C112.967 27.8611 110.155 28.6659 106.958 29.1621C103.683 29.6472 100.265 29.9008 96.616 29.9008C92.9666 29.9008 89.3834 29.6582 86.197 29.1621C82.9225 28.677 80.111 27.8611 77.7516 26.6373C75.315 25.5017 73.4958 24.0243 72.1177 22.0728C70.6733 20.2756 69.9898 17.9162 69.9898 15.1488C69.9898 12.3815 70.6733 10.0992 72.1177 8.13671C73.4848 6.33958 75.315 4.79603 77.7516 3.57222C80.111 2.4366 82.9225 1.62073 86.197 1.12459C89.3944 0.639471 92.8894 0.396914 96.616 0.396914M96.616 20.2756C98.7439 20.2756 100.806 20.1985 102.934 20.0331C104.907 19.9559 106.737 19.7023 108.413 19.2944C110.012 18.9746 111.302 18.4785 112.371 17.7398C113.364 17.0893 113.893 16.2734 113.893 15.1378C113.893 14.1566 113.364 13.2635 112.371 12.5248C111.302 11.8743 110.012 11.3782 108.413 10.9702C106.737 10.6505 104.918 10.3197 102.934 10.1544C100.806 10.0772 98.7549 9.98898 96.616 9.98898C94.4771 9.98898 92.3602 10.0662 90.3757 10.1544C88.2478 10.3197 86.4176 10.6395 84.8189 10.9702C83.143 11.3782 81.8531 11.8633 80.9379 12.5248C79.8685 13.2525 79.4165 14.1566 79.4165 15.1378C79.4165 16.2845 79.8685 17.1003 80.9379 17.7398C81.8531 18.4785 83.143 18.9636 84.8189 19.2944C86.4176 19.7023 88.2478 19.9449 90.3757 20.0331C92.3492 20.1985 94.4881 20.2756 96.616 20.2756Z" fill="#FDD300"/>
<path d="M0 5.63323C0 3.9243 0.463066 2.70048 1.5215 1.96179C2.51378 1.31129 3.57221 1.06873 4.79603 1.06873C5.94267 1.14591 7.0011 1.47667 7.91621 2.04999C8.83131 2.70048 9.28335 3.9243 9.28335 5.63323V9.10622H27.5413V5.63323C27.5413 3.9243 28.0706 2.70048 29.14 1.96179C30.1323 1.31129 31.2679 0.980529 32.4917 1.06873C33.5612 1.23411 34.6196 1.55385 35.5347 2.12717C36.3727 2.77766 36.8247 3.9243 36.8247 5.63323V26.9563C36.8247 29.0731 36.2955 30.8703 35.3804 32.2484C34.3109 33.7148 32.4917 34.4535 29.7464 34.4535H7.22161C5.70011 34.4535 4.55347 34.2881 3.64939 33.8802C2.73429 33.5494 1.97354 32.9871 1.44432 32.3366C0.837924 31.6861 0.452038 30.9475 0.308709 29.9772C0.0771762 29.1613 0 28.1801 0 27.0445V5.64426V5.63323ZM25.2591 25.3245C26.1742 25.3245 26.8578 25.2473 27.1665 24.9166C27.398 24.7512 27.5413 24.1007 27.5413 22.9651V18.3234H9.28335V22.9651C9.28335 24.1117 9.4377 24.7622 9.73539 24.9166C9.96692 25.2473 10.5733 25.3245 11.5656 25.3245H25.2591Z" fill="#FDD300"/>
<mask id="mask0_2105_38761" style="mask-type:luminance" maskUnits="userSpaceOnUse" x="0" y="1" width="37" height="34">
<path d="M9.73539 24.9207C9.42668 24.7553 9.28335 24.1048 9.28335 22.9692V18.3275H27.5413V22.9692C27.5413 24.1158 27.387 24.7663 27.1665 24.9207C26.8578 25.2404 26.1742 25.3286 25.2591 25.3286H11.5656C10.5733 25.3286 9.96692 25.2404 9.74642 24.9207M29.14 1.96589C28.0706 2.69356 27.5413 3.91737 27.5413 5.63733V9.11032H9.28335V5.63733C9.28335 3.9284 8.83131 2.70458 7.91621 2.05409C7.0011 1.48077 5.94267 1.16104 4.79603 1.07283C3.58324 1.07283 2.51378 1.31539 1.5215 1.96589C0.452041 2.69356 0 3.91737 0 5.63733V27.0375C0 28.1842 0.0771762 29.1544 0.308709 29.9703C0.463064 30.9516 0.837925 31.6792 1.44432 32.3297C1.97354 32.9802 2.73429 33.5535 3.64939 33.8733C4.5645 34.2812 5.70011 34.4466 7.22161 34.4466H29.7354C32.4697 34.4466 34.2999 33.7079 35.3694 32.2415C36.2845 30.8523 36.8137 29.0662 36.8137 26.9493V5.6263C36.8137 3.91737 36.3616 2.77074 35.5237 2.12024C34.6086 1.54692 33.5502 1.22719 32.4807 1.06181C32.3594 1.06181 32.2381 1.05078 32.1169 1.05078C31.0364 1.05078 30.022 1.37052 29.129 1.96589" fill="white"/>
</mask>
<g mask="url(#mask0_2105_38761)">
<g opacity="0.83">
<mask id="mask1_2105_38761" style="mask-type:luminance" maskUnits="userSpaceOnUse" x="-44" y="-23" width="95" height="94">
<path d="M50.3531 -22.6602H-43.3955V70.1182H50.3531V-22.6602Z" fill="white"/>
</mask>
<g mask="url(#mask1_2105_38761)">
<path d="M15.3801 41.9548C19.9998 43.4542 24.9612 40.9294 26.4606 36.3098C27.9601 31.6902 25.4353 26.7287 20.8156 25.2293C16.196 23.7298 11.2346 26.2547 9.73515 30.8743C8.2357 35.4939 10.7605 40.4553 15.3801 41.9548Z" fill="#FFE55F"/>
<path d="M0.430014 36.5209C6.9901 38.6488 14.0463 35.0656 16.1742 28.4944C18.3021 21.9344 14.7189 14.8781 8.14776 12.7502C1.58768 10.6223 -5.46855 14.2056 -7.59645 20.7767C-9.72434 27.3368 -6.1411 34.393 0.430014 36.5209Z" fill="#FFF582"/>
</g>
</g>
</g>
<path d="M70.4404 52.3953C70.4404 49.7823 70.9696 47.908 72.1163 46.7724C73.1857 45.7139 75.0049 45.1406 77.5187 45.1406H115.711C118.147 45.1406 119.9 45.7139 121.036 46.8496C122.105 47.9852 122.634 49.8705 122.634 52.4725V62.5827C122.634 65.1957 122.105 67.0701 121.036 68.2057C119.9 69.3523 118.147 69.9146 115.711 69.9146H77.5187C75.0049 69.9146 73.1857 69.3413 72.1163 68.2828C70.9696 67.1362 70.4404 65.2619 70.4404 62.6599V52.3843V52.3953ZM113.351 56.3865C113.351 55.736 113.197 55.3281 113.042 54.9973C112.734 54.7547 112.359 54.5894 111.752 54.5894H81.3996C80.7161 54.5894 80.3412 54.7547 80.1868 54.9973C79.9553 55.3281 79.8892 55.736 79.8892 56.3865V58.5034C79.8892 59.1539 79.9663 59.65 80.1868 59.9697C80.3412 60.2895 80.7161 60.4548 81.3996 60.4548H111.752C112.359 60.4548 112.745 60.2895 113.042 59.9697C113.197 59.639 113.351 59.1539 113.351 58.5034V56.3865Z" fill="#FDD300"/>
<mask id="mask2_2105_38761" style="mask-type:luminance" maskUnits="userSpaceOnUse" x="70" y="45" width="53" height="25">
<path d="M80.1878 59.9658C79.9563 59.6351 79.8791 59.15 79.8791 58.4995V56.3826C79.8791 55.7321 79.9563 55.3242 80.1878 54.9934C80.3422 54.7508 80.717 54.5854 81.4006 54.5854H111.753C112.36 54.5854 112.746 54.7508 113.043 54.9934C113.198 55.3242 113.341 55.7321 113.341 56.3826V58.4995C113.341 59.15 113.187 59.6461 113.043 59.9658C112.735 60.2966 112.36 60.4509 111.753 60.4509H81.4006C80.717 60.4509 80.3422 60.2856 80.1878 59.9658ZM77.5197 45.1367C75.0059 45.1367 73.1867 45.71 72.1173 46.7685C70.9706 47.9041 70.4414 49.7894 70.4414 52.3914V62.667C70.4414 65.269 70.9706 67.1544 72.1173 68.29C73.1867 69.3484 75.0059 69.9217 77.5197 69.9217H115.712C118.148 69.9217 119.901 69.3484 121.037 68.2128C122.106 67.0662 122.635 65.1918 122.635 62.5899V52.4796C122.635 49.8666 122.106 47.9923 121.037 46.8567C119.89 45.7211 118.148 45.1477 115.712 45.1477H77.5197V45.1367Z" fill="white"/>
</mask>
<g mask="url(#mask2_2105_38761)">
<g opacity="0.83">
<mask id="mask3_2105_38761" style="mask-type:luminance" maskUnits="userSpaceOnUse" x="83" y="22" width="71" height="84">
<path d="M153.96 22.0508H83.9492V105.303H153.96V22.0508Z" fill="white"/>
</mask>
<g mask="url(#mask3_2105_38761)">
<path d="M102.307 58.0783C97.7312 58.1224 94.0598 61.8931 94.1039 66.5127C94.148 71.1324 97.8856 74.8369 102.45 74.8038C107.026 74.7597 110.697 70.989 110.653 66.3694C110.609 61.7498 106.871 58.0453 102.307 58.0783Z" fill="#FFF582"/>
<path d="M112.087 50.2738C105.747 52.0379 102.032 58.598 103.785 64.9375C105.549 71.2771 112.109 74.9927 118.448 73.2396C124.788 71.4866 128.503 64.9155 126.75 58.5759C124.986 52.2363 118.426 48.5208 112.087 50.2738Z" fill="#FFE55F"/>
</g>
</g>
</g>
</svg>
