<svg width="82" height="42" viewBox="0 0 82 42" fill="none" xmlns="http://www.w3.org/2000/svg">
<path d="M70.1127 0H11.6714C5.23153 0 0 5.27409 0 11.7802V30.2337C0 36.7397 5.23153 42 11.6714 42H70.3286C76.7822 42 82 36.7259 82 30.2337V9.90587L70.1127 0Z" fill="#D7DF96"/>
<rect x="60" y="8.55859" width="12" height="2.88" rx="1.44" fill="#FFF100"/>
<rect x="67.4375" y="4" width="12" height="2.88" rx="1.44" transform="rotate(90 67.4375 4)" fill="#FFF100"/>
<path d="M13.024 23.992C12.736 23.992 12.448 23.992 12.096 23.896C11.52 23.896 10.72 23.704 10.368 23.32C9.984 22.936 9.888 22.296 9.888 21.816C9.888 21.432 10.08 21.144 10.432 20.888C10.848 20.6 11.52 20.504 12.096 20.504C12.192 20.408 13.408 20.312 13.408 20.408V19.16C13.408 18.2 13.408 17.592 13.312 13.912H12.352C12 13.912 11.712 13.816 11.424 13.816C11.136 13.72 10.848 13.624 10.528 13.432C9.888 13.048 9.888 12.344 9.888 11.8C9.888 11.032 10.272 10.552 10.944 10.36C11.424 10.2 12 10.104 12.544 10.008H28.288C28.736 10.008 29.216 10.104 29.696 10.2C30.208 10.296 30.656 10.456 30.944 10.744C31.328 11.128 31.424 11.608 31.424 12.152C31.424 12.344 31.328 12.632 31.232 12.856C30.944 13.624 30.016 13.912 29.216 13.912H27.808C27.808 14.168 27.808 14.552 27.904 14.84V20.312C27.904 20.312 29.792 20.408 29.92 20.408C30.56 20.6 31.04 20.888 31.328 21.432C31.52 22.008 31.424 22.84 31.04 23.32C30.848 23.608 30.656 23.8 30.4 23.896C30.112 23.992 29.792 23.992 29.408 23.992H13.024ZM15.776 24.632H16.576C16.768 24.632 16.864 24.728 16.96 24.728C17.216 24.824 17.504 25.016 17.696 25.24C17.888 25.528 18.08 25.816 18.08 26.2V27.416C18.176 27.896 18.176 28.12 18.176 28.696V28.888C19.2 28.984 21.216 28.92 22.144 28.92H22.432V26.648C22.432 25.72 23.2 24.632 24.256 24.632C24.64 24.632 24.928 24.632 25.216 24.728C25.568 24.824 25.76 25.016 26.048 25.24C26.24 25.528 26.336 25.816 26.432 26.2V28.92H26.528C27.872 28.92 29.888 28.856 31.232 29.176C31.52 29.24 31.904 29.464 32.192 29.72C32.736 30.296 32.736 31.544 32.192 32.216C32 32.312 31.808 32.504 31.616 32.6C31.04 32.792 30.464 32.792 29.92 32.792H14.624C13.312 32.792 12 32.888 10.624 32.792C10.08 32.792 9.696 32.696 9.312 32.408C8.832 31.928 8.64 31.48 8.64 30.872C8.64 30.584 8.736 30.296 8.928 29.912C9.12 29.56 9.408 29.368 9.696 29.272C10.08 29.08 10.528 28.984 11.04 28.984C11.424 28.984 14.176 28.888 14.176 28.888V26.648C14.176 26.456 14.176 26.296 14.272 26.104C14.272 25.912 14.368 25.72 14.464 25.528C14.56 25.336 14.752 25.144 15.04 25.016C15.232 24.824 15.488 24.728 15.776 24.632ZM17.92 20.312H23.296C24.16 20.312 24.032 19.608 24.032 19.288L23.936 14.584C23.936 14.232 23.776 13.912 23.36 13.912H17.856C16.992 13.912 17.216 14.456 17.216 15.128C17.216 16.056 17.152 16.984 17.248 19.384C17.248 19.64 17.216 20.312 17.92 20.312ZM48.898 17.72C48.898 18.68 48.674 19.608 48.226 20.568C47.81 21.4 47.202 22.168 46.338 22.776C45.826 23.192 45.25 23.448 44.642 23.704C44.066 23.864 43.394 24.024 42.754 24.024C42.082 24.12 41.41 24.12 40.834 24.024C40.13 23.864 39.522 23.704 38.946 23.448C38.338 23.288 37.826 22.936 37.314 22.616C36.802 22.168 36.29 21.752 35.938 21.24C35.618 20.792 35.266 20.216 35.106 19.608C34.85 19.032 34.754 18.392 34.754 17.72C34.754 16.792 34.85 16.024 35.106 15.448C35.362 14.744 35.714 14.136 36.226 13.624H35.618C35.106 13.624 34.69 13.464 34.242 13.112C33.89 12.792 33.73 12.376 33.73 11.928C33.73 11.416 33.89 11.064 34.242 10.744C34.69 10.392 35.106 10.232 35.618 10.232H39.81V9.208C39.81 8.76 39.97 8.408 40.322 8.184C40.642 7.832 41.058 7.736 41.57 7.736C42.082 7.736 42.53 7.832 42.946 8.184C43.266 8.408 43.458 8.76 43.458 9.208V10.232H47.81C48.386 10.232 48.834 10.392 49.186 10.744C49.506 11.064 49.698 11.416 49.698 11.928C49.698 12.376 49.506 12.792 49.186 13.112C48.834 13.464 48.386 13.624 47.81 13.624H47.458C47.874 14.136 48.226 14.744 48.482 15.448C48.834 16.12 48.898 16.888 48.898 17.72ZM45.762 31.032H55.49C55.81 31.128 56.002 31.192 56.162 31.288C56.322 31.352 56.514 31.544 56.674 31.704C56.738 31.8 56.898 32.056 56.898 32.216C57.026 32.984 56.898 33.688 56.514 34.104C56.226 34.36 56.002 34.52 55.714 34.616C55.394 34.712 55.202 34.712 55.202 34.712H39.682C38.85 34.712 38.178 34.616 37.762 34.36C37.25 34.104 36.962 33.688 36.962 33.24V28.792C36.962 28.632 36.962 28.568 36.962 28.28C36.962 28.12 36.962 27.96 36.962 27.704C36.962 27.544 36.962 27.256 36.962 27.096C36.962 26.936 36.962 26.744 36.962 26.584C37.058 26.168 37.25 25.848 37.666 25.56C37.986 25.336 38.434 25.144 38.946 25.144C39.01 25.144 39.17 25.144 39.298 25.144C39.458 25.144 39.618 25.24 39.682 25.24C39.97 25.336 40.194 25.496 40.386 25.656C40.546 25.848 40.642 26.072 40.706 26.36C40.834 26.584 40.898 26.872 40.898 27.096C40.898 27.448 40.994 27.704 40.994 27.96C40.994 28.056 40.994 28.216 40.994 28.472C40.994 28.792 40.994 29.144 40.994 29.496C40.994 29.816 40.994 30.168 40.994 30.456C40.994 30.68 40.994 30.84 40.994 30.968C41.058 30.968 41.218 31.032 41.506 31.032C41.73 31.032 42.37 31.128 43.106 31.128C43.778 31.128 44.386 31.128 44.898 31.032C45.41 31.032 45.666 31.032 45.762 31.032ZM42.434 20.568C43.106 20.376 43.714 20.12 44.226 19.608C44.738 19.096 44.994 18.52 44.994 17.72C44.994 17.208 44.898 16.792 44.738 16.472C44.482 16.12 44.29 15.768 43.97 15.512C43.714 15.352 43.394 15.096 43.042 15C42.594 14.936 42.242 14.84 41.858 14.84C41.506 14.84 41.058 14.84 40.706 14.936C40.322 15.096 39.97 15.256 39.682 15.512C39.362 15.672 39.17 16.024 38.946 16.376C38.786 16.696 38.658 17.208 38.658 17.72C38.658 18.232 38.85 18.744 39.01 19.192C39.298 19.544 39.618 19.864 39.97 20.12C40.322 20.28 40.706 20.44 41.154 20.568C41.57 20.632 42.018 20.632 42.434 20.568ZM56.898 10.04C57.026 10.136 57.026 10.392 57.09 10.744C57.09 10.968 57.186 11.352 57.186 11.576C57.186 11.928 57.186 12.216 57.186 12.44C57.186 12.728 57.186 12.888 57.186 12.888V23.8C57.186 23.8 57.186 23.864 57.186 24.024C57.186 24.216 57.09 24.312 57.026 24.536C56.898 24.728 56.834 24.888 56.738 25.048C56.578 25.336 56.386 25.4 56.162 25.56C55.906 25.752 55.554 25.848 55.298 25.848C54.882 25.848 54.466 25.752 54.178 25.496C53.954 25.336 53.666 25.144 53.602 24.824C53.442 24.536 53.346 24.312 53.346 24.024C53.25 23.8 53.25 23.608 53.25 23.352V22.424H53.09C52.834 22.424 52.482 22.424 52.066 22.424C51.746 22.328 51.394 22.328 51.042 22.328C50.722 22.264 50.37 22.168 50.082 22.104C49.858 21.976 49.57 21.816 49.506 21.592C49.346 21.304 49.25 21.08 49.25 20.728C49.25 20.376 49.346 20.12 49.346 19.864C49.41 19.704 49.57 19.416 49.762 19.256C49.922 19.096 50.274 18.904 50.722 18.84C50.786 18.84 50.946 18.84 51.234 18.84C51.394 18.84 51.618 18.744 51.97 18.744C52.258 18.744 52.482 18.744 52.642 18.744C52.93 18.68 53.09 18.68 53.25 18.68V16.632C52.93 16.632 52.578 16.632 52.13 16.632C51.81 16.696 51.394 16.632 51.042 16.632C50.722 16.632 50.37 16.536 50.082 16.472C49.858 16.376 49.57 16.184 49.506 16.024C49.41 15.96 49.346 15.768 49.346 15.608C49.346 15.448 49.25 15.256 49.25 15.096C49.25 14.936 49.25 14.744 49.346 14.584C49.346 14.424 49.346 14.232 49.346 14.136C49.41 13.912 49.57 13.752 49.762 13.56C49.922 13.4 50.274 13.24 50.722 13.112C50.786 13.048 50.882 13.048 51.106 13.048C51.298 13.048 51.554 13.048 51.746 13.048C51.97 13.048 52.258 13.048 52.578 12.952C52.834 12.952 52.994 12.952 53.25 12.952C53.25 12.888 53.25 12.792 53.25 12.536C53.25 12.376 53.25 12.088 53.25 11.864C53.25 11.704 53.25 11.416 53.25 11.256C53.25 10.968 53.25 10.904 53.346 10.808C53.346 10.648 53.442 10.456 53.506 10.296C53.506 10.136 53.602 9.944 53.762 9.784C53.954 9.528 54.178 9.432 54.53 9.272C54.882 9.208 55.202 9.208 55.554 9.208C56.226 9.368 56.674 9.624 56.898 10.04Z" fill="#538D6D"/>
</svg>
