<svg width="348" height="68" viewBox="0 0 348 68" fill="none" xmlns="http://www.w3.org/2000/svg">
<path d="M86.09 32.14V36.88H82.07V32.14H86.09ZM96.29 30.82V33.97H71.9V30.82H96.29ZM84.05 35.83C86.99 35.83 89.28 36.26 90.92 37.12C92.58 37.96 93.41 39.16 93.41 40.72C93.41 42.26 92.58 43.45 90.92 44.29C89.26 45.15 86.97 45.58 84.05 45.58C81.11 45.58 78.81 45.15 77.15 44.29C75.49 43.45 74.66 42.26 74.66 40.72C74.66 39.16 75.48 37.96 77.12 37.12C78.78 36.26 81.09 35.83 84.05 35.83ZM84.05 38.83C82.23 38.83 80.88 38.98 80 39.28C79.12 39.58 78.68 40.06 78.68 40.72C78.68 41.36 79.12 41.83 80 42.13C80.88 42.43 82.23 42.58 84.05 42.58C85.85 42.58 87.19 42.43 88.07 42.13C88.95 41.83 89.39 41.36 89.39 40.72C89.39 40.06 88.95 39.58 88.07 39.28C87.19 38.98 85.85 38.83 84.05 38.83ZM84.89 21.16V21.79C84.89 23.15 84.49 24.4 83.69 25.54C82.89 26.68 81.69 27.63 80.09 28.39C78.49 29.13 76.55 29.61 74.27 29.83L72.89 26.71C74.79 26.55 76.37 26.22 77.63 25.72C78.91 25.2 79.84 24.6 80.42 23.92C81.02 23.22 81.32 22.51 81.32 21.79V21.16H84.89ZM86.87 21.16V21.79C86.87 22.53 87.16 23.24 87.74 23.92C88.34 24.6 89.27 25.2 90.53 25.72C91.79 26.22 93.38 26.55 95.3 26.71L93.92 29.83C91.62 29.61 89.67 29.13 88.07 28.39C86.49 27.63 85.3 26.69 84.5 25.57C83.7 24.43 83.3 23.17 83.3 21.79V21.16H86.87ZM94.13 19.69V22.84H74.09V19.69H94.13ZM118.191 19.72V22.9H101.121V19.72H118.191ZM122.571 28.99V32.17H98.1207V28.99H122.571ZM112.311 31.24V36.85H108.321V31.24H112.311ZM119.721 19.72V21.88C119.721 23.5 119.671 24.95 119.571 26.23C119.491 27.49 119.261 28.9 118.881 30.46L114.981 30.1C115.341 28.56 115.561 27.2 115.641 26.02C115.741 24.82 115.791 23.44 115.791 21.88V19.72H119.721ZM119.751 35.89V45.58H115.761V39.04H100.581V35.89H119.751ZM146.781 18.58V37.93H142.791V18.58H146.781ZM147.441 41.92V45.1H128.751V41.92H147.441ZM132.741 36.01V43.21H128.751V36.01H132.741ZM132.051 20.26C133.431 20.26 134.681 20.55 135.801 21.13C136.921 21.71 137.801 22.53 138.441 23.59C139.101 24.65 139.431 25.83 139.431 27.13C139.431 28.43 139.101 29.61 138.441 30.67C137.801 31.71 136.921 32.53 135.801 33.13C134.681 33.71 133.431 34 132.051 34C130.691 34 129.451 33.71 128.331 33.13C127.211 32.53 126.321 31.71 125.661 30.67C125.021 29.61 124.701 28.43 124.701 27.13C124.701 25.83 125.021 24.66 125.661 23.62C126.321 22.56 127.211 21.74 128.331 21.16C129.451 20.56 130.691 20.26 132.051 20.26ZM132.051 23.71C131.391 23.71 130.801 23.85 130.281 24.13C129.761 24.39 129.351 24.78 129.051 25.3C128.751 25.82 128.601 26.43 128.601 27.13C128.601 27.83 128.751 28.44 129.051 28.96C129.351 29.46 129.761 29.85 130.281 30.13C130.801 30.39 131.391 30.52 132.051 30.52C132.711 30.52 133.301 30.39 133.821 30.13C134.341 29.85 134.751 29.46 135.051 28.96C135.371 28.44 135.531 27.83 135.531 27.13C135.531 26.43 135.381 25.82 135.081 25.3C134.781 24.78 134.361 24.39 133.821 24.13C133.301 23.85 132.711 23.71 132.051 23.71ZM159.202 20.32C160.602 20.32 161.862 20.61 162.982 21.19C164.122 21.75 165.012 22.54 165.652 23.56C166.312 24.58 166.642 25.73 166.642 27.01C166.642 28.27 166.312 29.41 165.652 30.43C165.012 31.45 164.122 32.25 162.982 32.83C161.862 33.41 160.602 33.7 159.202 33.7C157.802 33.7 156.532 33.41 155.392 32.83C154.252 32.25 153.352 31.46 152.692 30.46C152.052 29.44 151.732 28.29 151.732 27.01C151.732 25.73 152.052 24.58 152.692 23.56C153.352 22.54 154.252 21.75 155.392 21.19C156.532 20.61 157.802 20.32 159.202 20.32ZM159.202 23.74C158.522 23.74 157.912 23.87 157.372 24.13C156.832 24.39 156.402 24.77 156.082 25.27C155.782 25.75 155.632 26.33 155.632 27.01C155.632 27.67 155.782 28.25 156.082 28.75C156.402 29.25 156.832 29.63 157.372 29.89C157.912 30.15 158.522 30.28 159.202 30.28C159.882 30.28 160.482 30.15 161.002 29.89C161.542 29.63 161.962 29.25 162.262 28.75C162.582 28.25 162.742 27.67 162.742 27.01C162.742 26.33 162.582 25.75 162.262 25.27C161.962 24.77 161.542 24.39 161.002 24.13C160.482 23.87 159.882 23.74 159.202 23.74ZM173.092 18.52V45.61H169.102V18.52H173.092ZM150.652 36.94C153.912 36.94 156.932 36.89 159.712 36.79C162.492 36.67 165.132 36.43 167.632 36.07L167.932 38.95C165.352 39.45 162.692 39.78 159.952 39.94C157.212 40.1 154.262 40.18 151.102 40.18L150.652 36.94Z" fill="#231815"/>
<path d="M203.557 22.42V25.57H196.747V22.42H203.557ZM203.677 27.82V31H196.747V27.82H203.677ZM206.317 18.58V34.36H202.297V18.58H206.317ZM197.587 20.47V32.95H184.777V20.47H197.587ZM188.707 23.65V29.83H193.657V23.65H188.707ZM197.107 35.05C199.987 35.05 202.257 35.51 203.917 36.43C205.577 37.35 206.407 38.64 206.407 40.3C206.407 41.98 205.577 43.28 203.917 44.2C202.277 45.12 200.017 45.58 197.137 45.58C194.257 45.58 191.987 45.12 190.327 44.2C188.687 43.28 187.867 41.98 187.867 40.3C187.867 38.64 188.687 37.35 190.327 36.43C191.987 35.51 194.247 35.05 197.107 35.05ZM197.107 38.11C195.967 38.11 195.007 38.19 194.227 38.35C193.447 38.51 192.857 38.75 192.457 39.07C192.057 39.39 191.857 39.8 191.857 40.3C191.857 40.8 192.057 41.22 192.457 41.56C192.857 41.88 193.447 42.13 194.227 42.31C195.007 42.47 195.967 42.55 197.107 42.55C198.287 42.55 199.267 42.47 200.047 42.31C200.827 42.13 201.417 41.88 201.817 41.56C202.217 41.22 202.417 40.8 202.417 40.3C202.417 39.8 202.217 39.39 201.817 39.07C201.417 38.75 200.827 38.51 200.047 38.35C199.267 38.19 198.287 38.11 197.107 38.11ZM231.158 24.04V27.19H224.498V24.04H231.158ZM219.188 20.83V22.3C219.188 23.86 218.898 25.36 218.318 26.8C217.758 28.22 216.898 29.47 215.738 30.55C214.598 31.61 213.188 32.38 211.508 32.86L209.618 29.77C211.018 29.33 212.188 28.71 213.128 27.91C214.088 27.09 214.798 26.2 215.258 25.24C215.718 24.26 215.948 23.28 215.948 22.3V20.83H219.188ZM219.998 20.83V22.3C219.998 23.26 220.208 24.2 220.628 25.12C221.048 26.02 221.708 26.83 222.608 27.55C223.528 28.27 224.668 28.82 226.028 29.2L224.168 32.32C222.528 31.86 221.148 31.13 220.028 30.13C218.928 29.13 218.108 27.96 217.568 26.62C217.028 25.28 216.758 23.84 216.758 22.3V20.83H219.998ZM225.188 19.51V22.69H210.668V19.51H225.188ZM232.508 18.58V32.26H228.518V18.58H232.508ZM232.508 33.31V40.66H218.618V44.02H214.658V37.78H228.548V36.37H214.628V33.31H232.508ZM233.258 42.19V45.28H214.658V42.19H233.258ZM248.858 21.19V24.37H237.248V21.19H248.858ZM244.598 28.93V38.11H240.668V28.93H244.598ZM251.198 21.19V23.47C251.198 25.35 251.148 27.06 251.048 28.6C250.968 30.12 250.768 31.85 250.448 33.79L246.548 33.46C246.848 31.58 247.038 29.9 247.118 28.42C247.218 26.94 247.268 25.29 247.268 23.47V21.19H251.198ZM257.378 18.55V45.55H253.418V18.55H257.378ZM260.978 29.38V32.65H256.238V29.38H260.978ZM235.898 36.91C239.018 36.91 241.928 36.87 244.628 36.79C247.328 36.69 249.858 36.49 252.218 36.19L252.428 39.1C249.988 39.52 247.418 39.8 244.718 39.94C242.038 40.08 239.218 40.15 236.258 40.15L235.898 36.91ZM291.773 18.55V45.55H287.753V18.55H291.773ZM283.763 21.31C283.763 24.25 283.383 26.91 282.623 29.29C281.863 31.65 280.573 33.82 278.753 35.8C276.933 37.78 274.473 39.52 271.373 41.02L269.303 37.87C271.863 36.65 273.903 35.28 275.423 33.76C276.963 32.24 278.073 30.53 278.753 28.63C279.433 26.73 279.773 24.54 279.773 22.06V21.31H283.763ZM281.663 21.31V24.49H270.743V21.31H281.663ZM301.014 19.69V31.09H297.054V19.69H301.014ZM299.154 30.55C301.294 30.55 303.204 30.5 304.884 30.4C306.564 30.28 308.254 30.07 309.954 29.77L310.374 32.95C308.614 33.27 306.864 33.49 305.124 33.61C303.384 33.71 301.394 33.76 299.154 33.76H297.054V30.55H299.154ZM318.114 18.55V34.33H314.094V18.55H318.114ZM315.114 20.89V23.92H307.794V20.89H315.114ZM315.114 25.63V28.63H307.794V25.63H315.114ZM318.114 35.44V45.28H300.174V35.44H318.114ZM304.104 38.56V42.13H314.184V38.56H304.104ZM329.274 19.33C330.654 19.33 331.894 19.6 332.994 20.14C334.094 20.66 334.954 21.39 335.574 22.33C336.214 23.27 336.534 24.33 336.534 25.51C336.534 26.69 336.214 27.75 335.574 28.69C334.954 29.63 334.094 30.36 332.994 30.88C331.894 31.4 330.654 31.66 329.274 31.66C327.934 31.66 326.714 31.4 325.614 30.88C324.514 30.36 323.644 29.63 323.004 28.69C322.384 27.75 322.074 26.7 322.074 25.54C322.074 24.34 322.384 23.27 323.004 22.33C323.644 21.39 324.514 20.66 325.614 20.14C326.714 19.6 327.934 19.33 329.274 19.33ZM329.274 22.54C328.634 22.54 328.054 22.66 327.534 22.9C327.034 23.12 326.634 23.46 326.334 23.92C326.054 24.36 325.914 24.89 325.914 25.51C325.914 26.13 326.054 26.66 326.334 27.1C326.634 27.54 327.034 27.88 327.534 28.12C328.054 28.34 328.634 28.45 329.274 28.45C329.934 28.45 330.514 28.34 331.014 28.12C331.534 27.88 331.934 27.54 332.214 27.1C332.514 26.66 332.664 26.13 332.664 25.51C332.664 24.89 332.514 24.36 332.214 23.92C331.934 23.46 331.534 23.12 331.014 22.9C330.514 22.66 329.934 22.54 329.274 22.54ZM344.154 18.58V32.05H340.164V18.58H344.154ZM344.154 33.13V40.6H330.084V43.81H326.154V37.72H340.194V36.19H326.124V33.13H344.154ZM344.814 42.19V45.28H326.154V42.19H344.814Z" fill="#764A8A"/>
<path d="M33.525 0.210112C17.0743 -1.72998 2.15748 9.98245 0.209825 26.3693C-0.298919 30.6428 0.133894 34.8104 1.32982 38.6717C7.21455 62.1457 33.6655 68 33.6655 68C30.146 65.243 28.3312 62.2856 27.439 59.6459C43.5062 61.0262 57.8802 49.4613 59.7898 33.396C61.7337 17.0054 49.9756 2.14643 33.525 0.210112Z" fill="#895AC3"/>
<path d="M16.4917 35.1013C16.4917 35.5433 16.3476 35.9372 16.0593 36.2734C15.7711 36.6097 15.3387 36.7827 14.7623 36.7827C13.6382 36.7827 13.0809 36.2254 13.0809 35.1013V33.7274C13.0809 33.2566 13.0041 32.8435 12.8503 32.5072C12.6966 32.1709 12.2643 31.998 11.5533 31.998H7.68136C7.10489 31.998 6.68215 31.8154 6.40353 31.46C6.13451 31.1045 6 30.7394 6 30.3647C6 29.9611 6.15372 29.5864 6.46117 29.2406C6.76862 28.9043 7.17215 28.7314 7.68136 28.7314H21.9393C22.4485 28.7314 22.8424 28.9043 23.1402 29.2406C23.4285 29.5768 23.5726 29.9515 23.5726 30.3647C23.5726 30.7394 23.4477 31.1045 23.1883 31.46C22.9289 31.8154 22.5157 31.998 21.9393 31.998H17.9713C17.2891 31.998 16.876 32.1709 16.7223 32.5072C16.5685 32.8435 16.4917 33.2566 16.4917 33.7274V35.1013ZM8.14253 36.7827C8.14253 36.3023 8.30586 35.9083 8.62292 35.5817C8.94958 35.255 9.3435 35.1013 9.82389 35.1013C10.3043 35.1013 10.6982 35.2646 11.0249 35.5817C11.3515 35.8987 11.5052 36.3023 11.5052 36.7827V40.3952C11.5052 40.9332 11.6494 41.4712 11.9376 41.9997C12.2258 42.5281 12.8503 42.7875 13.7919 42.7875H20.0081C20.4789 42.7875 20.8824 42.9316 21.2091 43.2199C21.5357 43.5081 21.6895 43.8924 21.6895 44.3632C21.6895 44.8724 21.5261 45.2663 21.2091 45.5641C20.8824 45.8524 20.4885 45.9965 20.0081 45.9965H10.8903C10.1409 45.9965 9.49722 45.7467 8.95919 45.2567C8.41155 44.7667 8.14253 44.0557 8.14253 43.143V36.7827ZM11.1978 25.7337C10.3811 25.7337 9.70859 25.4839 9.18978 24.9747C8.66135 24.4655 8.40194 23.7834 8.40194 22.9379V16.3662C8.40194 15.5495 8.66135 14.877 9.18978 14.3581C9.7182 13.8297 10.3907 13.5703 11.1978 13.5703H18.0673C18.9513 13.5703 19.643 13.8297 20.1522 14.3581C20.6614 14.8866 20.9112 15.5591 20.9112 16.3662V22.9379C20.9112 23.7834 20.6614 24.4655 20.1522 24.9747C19.643 25.4839 18.9513 25.7337 18.0673 25.7337H11.1978ZM11.707 20.4879C11.707 21.1028 11.8127 21.6024 12.0145 21.9867C12.2162 22.3806 12.6774 22.5728 13.3884 22.5728H15.7327C16.4821 22.5728 16.9625 22.3806 17.1834 21.9867C17.4044 21.5928 17.5101 21.0932 17.5101 20.4879V18.6528C17.5101 18.1436 17.3948 17.7016 17.1834 17.3269C16.9625 16.9522 16.4628 16.7697 15.6846 16.7697H13.4941C12.7831 16.7697 12.3027 16.9619 12.0721 17.3558C11.8319 17.7497 11.7166 18.182 11.7166 18.6528V20.4879H11.707Z" fill="white"/>
<path d="M36.743 28.2259C36.743 28.7063 36.8103 29.1194 36.9448 29.4749C37.0793 29.8304 37.502 30.013 38.2226 30.013H42.0946C42.671 30.013 43.0938 30.1859 43.3724 30.5222C43.6414 30.8584 43.7759 31.2139 43.7759 31.5886C43.7759 32.0306 43.6222 32.4149 43.3147 32.732C43.0073 33.0586 42.6038 33.2123 42.0946 33.2123H28.0864C27.5772 33.2123 27.1737 33.049 26.8855 32.732C26.5972 32.4053 26.4531 32.0306 26.4531 31.5886C26.4531 31.2139 26.5876 30.8584 26.8567 30.5222C27.1257 30.1859 27.5388 30.013 28.0768 30.013H31.795C32.506 30.013 32.9288 29.8304 33.0729 29.4749C33.2074 29.1194 33.2746 28.7063 33.2746 28.2259V26.5926C33.2746 26.4869 33.2938 26.3908 33.3227 26.2851C32.0641 25.9777 31.0264 25.3244 30.1905 24.3252C29.3547 23.326 28.9415 22.1442 28.9415 20.7895C28.9415 19.6654 29.2106 18.7046 29.7582 17.888H28.586C27.5292 17.888 27.0104 17.3595 27.0104 16.3123C27.0104 15.2651 27.5388 14.7366 28.586 14.7366H32.506C33.0152 14.7366 33.265 14.3811 33.265 13.6702V11.6333C33.265 11.1625 33.438 10.7686 33.7742 10.4612C34.1105 10.1537 34.5236 10 34.9944 10C35.4652 10 35.8687 10.1537 36.1954 10.4612C36.5221 10.7686 36.6758 11.1529 36.6758 11.6333V13.6221C36.6758 14.0641 36.7142 14.3523 36.8007 14.4868C36.8871 14.6213 37.0985 14.7078 37.4348 14.7462H41.2491C41.7199 14.7462 42.1234 14.8903 42.45 15.1786C42.7767 15.4668 42.9304 15.8511 42.9304 16.3219C42.9304 16.7927 42.7671 17.177 42.45 17.4652C42.1234 17.7535 41.7295 17.8976 41.2491 17.8976H40.125C40.394 18.205 40.6054 18.6566 40.7591 19.2427C40.9128 19.8383 40.9897 20.3572 40.9897 20.7991C40.9897 22.1538 40.5765 23.326 39.7407 24.3156C38.9048 25.3052 37.8671 25.9585 36.6085 26.3044C36.6373 26.41 36.6662 26.5061 36.6854 26.6118C36.7046 26.7175 36.7142 26.8136 36.7142 26.9193V28.2451L36.743 28.2259ZM32.0544 20.6934C32.0544 21.5101 32.3523 22.1634 32.948 22.6534C33.5436 23.1434 34.2258 23.3932 35.0136 23.3932C35.8015 23.3932 36.4164 23.1434 36.9736 22.6534C37.5309 22.1634 37.8095 21.5101 37.8095 20.6934C37.8095 19.8768 37.5309 19.1658 36.9736 18.6566C36.4164 18.1474 35.763 17.888 35.0136 17.888C34.2642 17.888 33.5436 18.1474 32.948 18.6566C32.3523 19.1658 32.0544 19.848 32.0544 20.6934ZM45.3996 13.92C45.3996 13.4108 45.563 13.0072 45.88 12.6998C46.1971 12.3923 46.6198 12.2386 47.129 12.2386C47.7439 12.2386 48.1763 12.4019 48.4261 12.719C48.6759 13.0457 48.8104 13.4396 48.8104 13.92V16.8695C48.8104 17.3115 48.8872 17.7054 49.041 18.0417C49.1947 18.378 49.627 18.5509 50.338 18.5509H52.0674C52.6439 18.5509 53.057 18.7238 53.3164 19.0601C53.5758 19.3964 53.7007 19.7519 53.7007 20.1266C53.7007 21.145 53.1531 21.6542 52.0674 21.6542H50.338C49.6943 21.6542 49.2812 21.7983 49.089 22.0866C48.9065 22.3748 48.8104 22.7591 48.8104 23.2299V28.274C48.8104 28.7543 48.647 29.1579 48.33 29.4941C48.0033 29.8304 47.6094 30.0033 47.129 30.0033C46.6486 30.0033 46.2451 29.8304 45.9088 29.4941C45.5726 29.1579 45.3996 28.7447 45.3996 28.274V13.92Z" fill="white"/>
</svg>
