<svg width="718" height="180" viewBox="0 0 718 180" fill="none" xmlns="http://www.w3.org/2000/svg">
<rect width="278" height="180" rx="20" fill="white"/>
<path d="M101.888 92.056V106.84H93.536V92.056H101.888ZM135.968 89.176V95.896H59.648V89.176H135.968ZM97.76 104.44C106.848 104.44 113.952 105.72 119.072 108.28C124.192 110.84 126.752 114.52 126.752 119.32C126.752 123.992 124.192 127.608 119.072 130.168C113.952 132.792 106.848 134.104 97.76 134.104C88.672 134.104 81.568 132.792 76.448 130.168C71.328 127.608 68.768 123.992 68.768 119.32C68.768 114.52 71.328 110.84 76.448 108.28C81.568 105.72 88.672 104.44 97.76 104.44ZM97.76 110.776C91.168 110.776 86.08 111.512 82.496 112.984C78.912 114.456 77.12 116.568 77.12 119.32C77.12 122.008 78.912 124.088 82.496 125.56C86.08 127.032 91.168 127.768 97.76 127.768C104.288 127.768 109.344 127.032 112.928 125.56C116.512 124.088 118.304 122.008 118.304 119.32C118.304 116.568 116.512 114.456 112.928 112.984C109.344 111.512 104.288 110.776 97.76 110.776ZM99.776 56.92V59.32C99.776 63.672 98.304 67.608 95.36 71.128C92.416 74.648 88.448 77.56 83.456 79.864C78.464 82.104 72.896 83.576 66.752 84.28L63.776 77.752C68.96 77.24 73.728 76.12 78.08 74.392C82.432 72.6 85.888 70.392 88.448 67.768C91.008 65.144 92.288 62.328 92.288 59.32V56.92H99.776ZM103.328 56.92V59.32C103.328 62.392 104.608 65.24 107.168 67.864C109.728 70.424 113.184 72.6 117.536 74.392C121.888 76.12 126.688 77.24 131.936 77.752L128.864 84.28C122.72 83.576 117.152 82.104 112.16 79.864C107.232 77.56 103.296 74.648 100.352 71.128C97.408 67.608 95.936 63.672 95.936 59.32V56.92H103.328ZM129.056 53.752V60.376H66.656V53.752H129.056Z" fill="#231815"/>
<path d="M181.58 61C181.78 60.5733 181.973 60.2 182.16 59.88C182.36 59.56 182.553 59.2933 182.74 59.08H171.08V58.24H182.74C182.553 58.0133 182.36 57.74 182.16 57.42C181.973 57.1 181.78 56.7333 181.58 56.32H182.28C183.12 57.2933 184 58.0133 184.92 58.48V58.84C184 59.2933 183.12 60.0133 182.28 61H181.58ZM204.8 63.18V64.98H188.68V63.18H204.8ZM197.82 59.52V64.12H195.64V59.52H197.82ZM197.56 53V53.38C197.56 54.54 197.253 55.5933 196.64 56.54C196.04 57.4733 195.18 58.2533 194.06 58.88C192.94 59.4933 191.633 59.9067 190.14 60.12L189.34 58.38C190.633 58.2067 191.753 57.88 192.7 57.4C193.647 56.9067 194.367 56.3133 194.86 55.62C195.367 54.9133 195.62 54.1667 195.62 53.38V53H197.56ZM197.84 53V53.38C197.84 54.1667 198.087 54.9133 198.58 55.62C199.087 56.3133 199.813 56.9067 200.76 57.4C201.72 57.88 202.847 58.2067 204.14 58.38L203.3 60.12C201.82 59.9067 200.52 59.4933 199.4 58.88C198.293 58.2533 197.433 57.4667 196.82 56.52C196.22 55.5733 195.92 54.5267 195.92 53.38V53H197.84ZM203.36 51.84V53.62H190.12V51.84H203.36ZM197.82 49.58V52.56H195.64V49.58H197.82ZM212.24 50.28V51.94C212.24 53.1267 212.047 54.2333 211.66 55.26C211.274 56.2867 210.7 57.18 209.94 57.94C209.18 58.7 208.26 59.2667 207.18 59.64L206.04 57.86C206.987 57.5533 207.787 57.1 208.44 56.5C209.094 55.9 209.587 55.2067 209.92 54.42C210.254 53.6333 210.42 52.8067 210.42 51.94V50.28H212.24ZM212.62 50.28V51.86C212.62 52.6867 212.774 53.4667 213.08 54.2C213.4 54.92 213.867 55.56 214.48 56.12C215.094 56.68 215.847 57.1 216.74 57.38L215.58 59.1C214.554 58.74 213.687 58.2067 212.98 57.5C212.274 56.7933 211.74 55.96 211.38 55C211.02 54.04 210.84 52.9933 210.84 51.86V50.28H212.62ZM220.92 49.32V59.78H218.72V49.32H220.92ZM214.98 60.26C216.847 60.26 218.314 60.56 219.38 61.16C220.46 61.76 221 62.6 221 63.68C221 64.76 220.467 65.6 219.4 66.2C218.334 66.8 216.86 67.1 214.98 67.1C213.1 67.1 211.62 66.8 210.54 66.2C209.46 65.6 208.92 64.76 208.92 63.68C208.92 62.6 209.46 61.76 210.54 61.16C211.62 60.56 213.1 60.26 214.98 60.26ZM214.98 61.96C214.154 61.96 213.454 62.0267 212.88 62.16C212.307 62.2933 211.874 62.4867 211.58 62.74C211.287 62.9933 211.14 63.3067 211.14 63.68C211.14 64.0533 211.287 64.3667 211.58 64.62C211.874 64.8733 212.307 65.0667 212.88 65.2C213.454 65.3333 214.154 65.4 214.98 65.4C215.794 65.4 216.487 65.3333 217.06 65.2C217.634 65.0667 218.067 64.8733 218.36 64.62C218.667 64.3667 218.82 64.0533 218.82 63.68C218.82 63.3067 218.667 62.9933 218.36 62.74C218.067 62.4867 217.634 62.2933 217.06 62.16C216.487 62.0267 215.794 61.96 214.98 61.96ZM219.1 52.74V54.56H215.24V52.74H219.1Z" fill="#231815"/>
<path d="M181.58 95C181.78 94.5733 181.973 94.2 182.16 93.88C182.36 93.56 182.553 93.2933 182.74 93.08H171.08V92.24H182.74C182.553 92.0133 182.36 91.74 182.16 91.42C181.973 91.1 181.78 90.7333 181.58 90.32H182.28C183.12 91.2933 184 92.0133 184.92 92.48V92.84C184 93.2933 183.12 94.0133 182.28 95H181.58ZM197.8 92.24V95.36H195.6V92.24H197.8ZM204.76 91.5V93.26H188.68V91.5H204.76ZM196.7 94.76C198.62 94.76 200.12 95.04 201.2 95.6C202.293 96.1467 202.84 96.9267 202.84 97.94C202.84 98.94 202.293 99.7133 201.2 100.26C200.12 100.82 198.62 101.1 196.7 101.1C194.767 101.1 193.253 100.82 192.16 100.26C191.08 99.7133 190.54 98.94 190.54 97.94C190.54 96.9267 191.08 96.1467 192.16 95.6C193.253 95.04 194.767 94.76 196.7 94.76ZM196.7 96.42C195.407 96.42 194.427 96.5467 193.76 96.8C193.093 97.0533 192.76 97.4333 192.76 97.94C192.76 98.4333 193.093 98.8067 193.76 99.06C194.427 99.3133 195.407 99.44 196.7 99.44C197.98 99.44 198.953 99.3133 199.62 99.06C200.287 98.8067 200.62 98.4333 200.62 97.94C200.62 97.4333 200.287 97.0533 199.62 96.8C198.953 96.5467 197.98 96.42 196.7 96.42ZM197.18 84.92V85.38C197.18 86.2867 196.893 87.1133 196.32 87.86C195.747 88.6067 194.933 89.2267 193.88 89.72C192.827 90.2 191.6 90.5133 190.2 90.66L189.44 88.94C190.613 88.8333 191.633 88.6067 192.5 88.26C193.38 87.9 194.053 87.4667 194.52 86.96C194.987 86.4533 195.22 85.9267 195.22 85.38V84.92H197.18ZM198.22 84.92V85.38C198.22 85.94 198.453 86.4733 198.92 86.98C199.387 87.4733 200.053 87.9 200.92 88.26C201.8 88.6067 202.827 88.8333 204 88.94L203.22 90.66C201.82 90.5133 200.593 90.2 199.54 89.72C198.5 89.2267 197.693 88.6067 197.12 87.86C196.547 87.1133 196.26 86.2867 196.26 85.38V84.92H198.22ZM203.32 84.1V85.84H190.14V84.1H203.32ZM212.24 84.28V85.94C212.24 87.1267 212.047 88.2333 211.66 89.26C211.274 90.2867 210.7 91.18 209.94 91.94C209.18 92.7 208.26 93.2667 207.18 93.64L206.04 91.86C206.987 91.5533 207.787 91.1 208.44 90.5C209.094 89.9 209.587 89.2067 209.92 88.42C210.254 87.6333 210.42 86.8067 210.42 85.94V84.28H212.24ZM212.62 84.28V85.86C212.62 86.6867 212.774 87.4667 213.08 88.2C213.4 88.92 213.867 89.56 214.48 90.12C215.094 90.68 215.847 91.1 216.74 91.38L215.58 93.1C214.554 92.74 213.687 92.2067 212.98 91.5C212.274 90.7933 211.74 89.96 211.38 89C211.02 88.04 210.84 86.9933 210.84 85.86V84.28H212.62ZM220.92 83.32V93.78H218.72V83.32H220.92ZM214.98 94.26C216.847 94.26 218.314 94.56 219.38 95.16C220.46 95.76 221 96.6 221 97.68C221 98.76 220.467 99.6 219.4 100.2C218.334 100.8 216.86 101.1 214.98 101.1C213.1 101.1 211.62 100.8 210.54 100.2C209.46 99.6 208.92 98.76 208.92 97.68C208.92 96.6 209.46 95.76 210.54 95.16C211.62 94.56 213.1 94.26 214.98 94.26ZM214.98 95.96C214.154 95.96 213.454 96.0267 212.88 96.16C212.307 96.2933 211.874 96.4867 211.58 96.74C211.287 96.9933 211.14 97.3067 211.14 97.68C211.14 98.0533 211.287 98.3667 211.58 98.62C211.874 98.8733 212.307 99.0667 212.88 99.2C213.454 99.3333 214.154 99.4 214.98 99.4C215.794 99.4 216.487 99.3333 217.06 99.2C217.634 99.0667 218.067 98.8733 218.36 98.62C218.667 98.3667 218.82 98.0533 218.82 97.68C218.82 97.3067 218.667 96.9933 218.36 96.74C218.067 96.4867 217.634 96.2933 217.06 96.16C216.487 96.0267 215.794 95.96 214.98 95.96ZM219.1 86.74V88.56H215.24V86.74H219.1Z" fill="#231815"/>
<path d="M181.58 129C181.78 128.573 181.973 128.2 182.16 127.88C182.36 127.56 182.553 127.293 182.74 127.08H171.08V126.24H182.74C182.553 126.013 182.36 125.74 182.16 125.42C181.973 125.1 181.78 124.733 181.58 124.32H182.28C183.12 125.293 184 126.013 184.92 126.48V126.84C184 127.293 183.12 128.013 182.28 129H181.58ZM197.8 123.7V126.92H195.58V123.7H197.8ZM204.76 125.98V127.72H188.68V125.98H204.76ZM196.7 128.88C198.633 128.88 200.14 129.153 201.22 129.7C202.3 130.233 202.84 131 202.84 132C202.84 132.987 202.3 133.747 201.22 134.28C200.14 134.827 198.633 135.1 196.7 135.1C194.753 135.1 193.24 134.827 192.16 134.28C191.08 133.747 190.54 132.987 190.54 132C190.54 131 191.08 130.233 192.16 129.7C193.24 129.153 194.753 128.88 196.7 128.88ZM196.7 130.56C195.407 130.56 194.427 130.68 193.76 130.92C193.093 131.16 192.76 131.52 192.76 132C192.76 132.48 193.093 132.847 193.76 133.1C194.427 133.34 195.407 133.46 196.7 133.46C197.993 133.46 198.967 133.34 199.62 133.1C200.287 132.86 200.62 132.493 200.62 132C200.62 131.52 200.287 131.16 199.62 130.92C198.967 130.68 197.993 130.56 196.7 130.56ZM197.18 118.92V119.38C197.18 120.287 196.893 121.113 196.32 121.86C195.747 122.607 194.933 123.22 193.88 123.7C192.827 124.18 191.6 124.493 190.2 124.64L189.44 122.92C190.613 122.813 191.633 122.587 192.5 122.24C193.38 121.893 194.053 121.467 194.52 120.96C194.987 120.453 195.22 119.927 195.22 119.38V118.92H197.18ZM198.22 118.92V119.38C198.22 119.927 198.453 120.453 198.92 120.96C199.387 121.467 200.053 121.893 200.92 122.24C201.8 122.587 202.827 122.813 204 122.92L203.24 124.64C201.84 124.493 200.613 124.18 199.56 123.7C198.507 123.22 197.693 122.607 197.12 121.86C196.547 121.113 196.26 120.287 196.26 119.38V118.92H198.22ZM203.32 118.1V119.84H190.14V118.1H203.32ZM212.24 118.28V119.94C212.24 121.127 212.047 122.233 211.66 123.26C211.274 124.287 210.7 125.18 209.94 125.94C209.18 126.7 208.26 127.267 207.18 127.64L206.04 125.86C206.987 125.553 207.787 125.1 208.44 124.5C209.094 123.9 209.587 123.207 209.92 122.42C210.254 121.633 210.42 120.807 210.42 119.94V118.28H212.24ZM212.62 118.28V119.86C212.62 120.687 212.774 121.467 213.08 122.2C213.4 122.92 213.867 123.56 214.48 124.12C215.094 124.68 215.847 125.1 216.74 125.38L215.58 127.1C214.554 126.74 213.687 126.207 212.98 125.5C212.274 124.793 211.74 123.96 211.38 123C211.02 122.04 210.84 120.993 210.84 119.86V118.28H212.62ZM220.92 117.32V127.78H218.72V117.32H220.92ZM214.98 128.26C216.847 128.26 218.314 128.56 219.38 129.16C220.46 129.76 221 130.6 221 131.68C221 132.76 220.467 133.6 219.4 134.2C218.334 134.8 216.86 135.1 214.98 135.1C213.1 135.1 211.62 134.8 210.54 134.2C209.46 133.6 208.92 132.76 208.92 131.68C208.92 130.6 209.46 129.76 210.54 129.16C211.62 128.56 213.1 128.26 214.98 128.26ZM214.98 129.96C214.154 129.96 213.454 130.027 212.88 130.16C212.307 130.293 211.874 130.487 211.58 130.74C211.287 130.993 211.14 131.307 211.14 131.68C211.14 132.053 211.287 132.367 211.58 132.62C211.874 132.873 212.307 133.067 212.88 133.2C213.454 133.333 214.154 133.4 214.98 133.4C215.794 133.4 216.487 133.333 217.06 133.2C217.634 133.067 218.067 132.873 218.36 132.62C218.667 132.367 218.82 132.053 218.82 131.68C218.82 131.307 218.667 130.993 218.36 130.74C218.067 130.487 217.634 130.293 217.06 130.16C216.487 130.027 215.794 129.96 214.98 129.96ZM219.1 120.74V122.56H215.24V120.74H219.1Z" fill="#231815"/>
<rect x="315" width="403" height="180" rx="20" fill="white"/>
<path d="M467.28 118.78V120.44C467.28 121.627 467.086 122.733 466.7 123.76C466.313 124.787 465.74 125.68 464.98 126.44C464.22 127.2 463.3 127.767 462.22 128.14L461.08 126.36C462.026 126.053 462.826 125.6 463.48 125C464.133 124.4 464.626 123.707 464.96 122.92C465.293 122.133 465.46 121.307 465.46 120.44V118.78H467.28ZM467.66 118.78V120.36C467.66 121.187 467.813 121.967 468.12 122.7C468.44 123.42 468.906 124.06 469.52 124.62C470.133 125.18 470.886 125.6 471.78 125.88L470.62 127.6C469.593 127.24 468.726 126.707 468.02 126C467.313 125.293 466.78 124.46 466.42 123.5C466.06 122.54 465.88 121.493 465.88 120.36V118.78H467.66ZM475.96 117.82V128.28H473.76V117.82H475.96ZM470.02 128.76C471.886 128.76 473.353 129.06 474.42 129.66C475.5 130.26 476.04 131.1 476.04 132.18C476.04 133.26 475.506 134.1 474.44 134.7C473.373 135.3 471.9 135.6 470.02 135.6C468.14 135.6 466.66 135.3 465.58 134.7C464.5 134.1 463.96 133.26 463.96 132.18C463.96 131.1 464.5 130.26 465.58 129.66C466.66 129.06 468.14 128.76 470.02 128.76ZM470.02 130.46C469.193 130.46 468.493 130.527 467.92 130.66C467.346 130.793 466.913 130.987 466.62 131.24C466.326 131.493 466.18 131.807 466.18 132.18C466.18 132.553 466.326 132.867 466.62 133.12C466.913 133.373 467.346 133.567 467.92 133.7C468.493 133.833 469.193 133.9 470.02 133.9C470.833 133.9 471.526 133.833 472.1 133.7C472.673 133.567 473.106 133.373 473.4 133.12C473.706 132.867 473.86 132.553 473.86 132.18C473.86 131.807 473.706 131.493 473.4 131.24C473.106 130.987 472.673 130.793 472.1 130.66C471.526 130.527 470.833 130.46 470.02 130.46ZM474.14 121.24V123.06H470.28V121.24H474.14ZM494.8 131.66V133.44H478.68V131.66H494.8ZM487.8 127.46V132.1H485.62V127.46H487.8ZM492.96 119.18V127.78H480.44V119.18H492.96ZM482.6 120.92V126.04H490.82V120.92H482.6Z" fill="#231815"/>
<path d="M455.194 157.04C454.74 155.493 454.514 154.073 454.514 152.78C454.514 151.487 454.74 150.067 455.194 148.52C455.66 146.973 456.254 145.627 456.974 144.48H459.214C458.4 145.613 457.734 146.953 457.214 148.5C456.694 150.047 456.434 151.473 456.434 152.78C456.434 154.087 456.694 155.513 457.214 157.06C457.734 158.607 458.4 159.947 459.214 161.08H456.974C456.254 159.933 455.66 158.587 455.194 157.04ZM477.32 157.68V159.48H461.2V157.68H477.32ZM470.34 154.02V158.62H468.16V154.02H470.34ZM470.08 147.5V147.88C470.08 149.04 469.773 150.093 469.16 151.04C468.56 151.973 467.7 152.753 466.58 153.38C465.46 153.993 464.153 154.407 462.66 154.62L461.86 152.88C463.153 152.707 464.273 152.38 465.22 151.9C466.166 151.407 466.886 150.813 467.38 150.12C467.886 149.413 468.14 148.667 468.14 147.88V147.5H470.08ZM470.36 147.5V147.88C470.36 148.667 470.606 149.413 471.1 150.12C471.606 150.813 472.333 151.407 473.28 151.9C474.24 152.38 475.366 152.707 476.66 152.88L475.82 154.62C474.34 154.407 473.04 153.993 471.92 153.38C470.813 152.753 469.953 151.967 469.34 151.02C468.74 150.073 468.44 149.027 468.44 147.88V147.5H470.36ZM475.88 146.34V148.12H462.64V146.34H475.88ZM470.34 144.08V147.06H468.16V144.08H470.34ZM484.76 144.78V146.44C484.76 147.627 484.567 148.733 484.18 149.76C483.793 150.787 483.22 151.68 482.46 152.44C481.7 153.2 480.78 153.767 479.7 154.14L478.56 152.36C479.507 152.053 480.307 151.6 480.96 151C481.613 150.4 482.107 149.707 482.44 148.92C482.773 148.133 482.94 147.307 482.94 146.44V144.78H484.76ZM485.14 144.78V146.36C485.14 147.187 485.293 147.967 485.6 148.7C485.92 149.42 486.387 150.06 487 150.62C487.613 151.18 488.367 151.6 489.26 151.88L488.1 153.6C487.073 153.24 486.207 152.707 485.5 152C484.793 151.293 484.26 150.46 483.9 149.5C483.54 148.54 483.36 147.493 483.36 146.36V144.78H485.14ZM493.44 143.82V154.28H491.24V143.82H493.44ZM487.5 154.76C489.367 154.76 490.833 155.06 491.9 155.66C492.98 156.26 493.52 157.1 493.52 158.18C493.52 159.26 492.987 160.1 491.92 160.7C490.853 161.3 489.38 161.6 487.5 161.6C485.62 161.6 484.14 161.3 483.06 160.7C481.98 160.1 481.44 159.26 481.44 158.18C481.44 157.1 481.98 156.26 483.06 155.66C484.14 155.06 485.62 154.76 487.5 154.76ZM487.5 156.46C486.673 156.46 485.973 156.527 485.4 156.66C484.827 156.793 484.393 156.987 484.1 157.24C483.807 157.493 483.66 157.807 483.66 158.18C483.66 158.553 483.807 158.867 484.1 159.12C484.393 159.373 484.827 159.567 485.4 159.7C485.973 159.833 486.673 159.9 487.5 159.9C488.313 159.9 489.007 159.833 489.58 159.7C490.153 159.567 490.587 159.373 490.88 159.12C491.187 158.867 491.34 158.553 491.34 158.18C491.34 157.807 491.187 157.493 490.88 157.24C490.587 156.987 490.153 156.793 489.58 156.66C489.007 156.527 488.313 156.46 487.5 156.46ZM491.62 147.24V149.06H487.76V147.24H491.62ZM500.78 148.52C501.234 150.067 501.46 151.487 501.46 152.78C501.46 154.073 501.234 155.493 500.78 157.04C500.327 158.587 499.74 159.933 499.02 161.08H496.78C497.594 159.96 498.254 158.627 498.76 157.08C499.28 155.52 499.54 154.087 499.54 152.78C499.54 151.473 499.28 150.047 498.76 148.5C498.254 146.94 497.594 145.6 496.78 144.48H499.02C499.74 145.627 500.327 146.973 500.78 148.52Z" fill="#231815"/>
<path d="M615.82 126.62V128.36H599.7V126.62H615.82ZM609 127.74V131.64H606.76V127.74H609ZM614.04 133.48V135.26H601.64V133.48H614.04ZM603.86 129.98V133.94H601.64V129.98H603.86ZM607.74 118.18C609.006 118.18 610.113 118.333 611.06 118.64C612.02 118.933 612.76 119.36 613.28 119.92C613.813 120.467 614.08 121.107 614.08 121.84C614.08 122.573 613.813 123.22 613.28 123.78C612.76 124.327 612.02 124.747 611.06 125.04C610.113 125.333 609.006 125.48 607.74 125.48C606.473 125.48 605.36 125.333 604.4 125.04C603.453 124.747 602.713 124.327 602.18 123.78C601.66 123.22 601.4 122.573 601.4 121.84C601.4 121.107 601.66 120.467 602.18 119.92C602.713 119.36 603.46 118.933 604.42 118.64C605.38 118.333 606.486 118.18 607.74 118.18ZM607.74 119.94C606.926 119.94 606.22 120.013 605.62 120.16C605.033 120.307 604.573 120.527 604.24 120.82C603.92 121.1 603.76 121.44 603.76 121.84C603.76 122.24 603.92 122.58 604.24 122.86C604.573 123.14 605.033 123.353 605.62 123.5C606.22 123.647 606.926 123.72 607.74 123.72C608.553 123.72 609.253 123.647 609.84 123.5C610.44 123.353 610.9 123.14 611.22 122.86C611.553 122.58 611.72 122.24 611.72 121.84C611.72 121.44 611.553 121.1 611.22 120.82C610.9 120.527 610.44 120.307 609.84 120.16C609.253 120.013 608.553 119.94 607.74 119.94ZM633.3 131.66V133.44H617.18V131.66H633.3ZM626.3 127.46V132.1H624.12V127.46H626.3ZM631.46 119.18V127.78H618.94V119.18H631.46ZM621.1 120.92V126.04H629.32V120.92H621.1Z" fill="#231815"/>
<path d="M568.76 157.04C568.307 155.493 568.08 154.073 568.08 152.78C568.08 151.487 568.307 150.067 568.76 148.52C569.227 146.973 569.82 145.627 570.54 144.48H572.78C571.967 145.613 571.3 146.953 570.78 148.5C570.26 150.047 570 151.473 570 152.78C570 154.087 570.26 155.513 570.78 157.06C571.3 158.607 571.967 159.947 572.78 161.08H570.54C569.82 159.933 569.227 158.587 568.76 157.04ZM583.886 152.74V155.86H581.686V152.74H583.886ZM590.846 152V153.76H574.766V152H590.846ZM582.786 155.26C584.706 155.26 586.206 155.54 587.286 156.1C588.379 156.647 588.926 157.427 588.926 158.44C588.926 159.44 588.379 160.213 587.286 160.76C586.206 161.32 584.706 161.6 582.786 161.6C580.853 161.6 579.339 161.32 578.246 160.76C577.166 160.213 576.626 159.44 576.626 158.44C576.626 157.427 577.166 156.647 578.246 156.1C579.339 155.54 580.853 155.26 582.786 155.26ZM582.786 156.92C581.493 156.92 580.513 157.047 579.846 157.3C579.179 157.553 578.846 157.933 578.846 158.44C578.846 158.933 579.179 159.307 579.846 159.56C580.513 159.813 581.493 159.94 582.786 159.94C584.066 159.94 585.039 159.813 585.706 159.56C586.373 159.307 586.706 158.933 586.706 158.44C586.706 157.933 586.373 157.553 585.706 157.3C585.039 157.047 584.066 156.92 582.786 156.92ZM583.266 145.42V145.88C583.266 146.787 582.979 147.613 582.406 148.36C581.833 149.107 581.019 149.727 579.966 150.22C578.913 150.7 577.686 151.013 576.286 151.16L575.526 149.44C576.699 149.333 577.719 149.107 578.586 148.76C579.466 148.4 580.139 147.967 580.606 147.46C581.073 146.953 581.306 146.427 581.306 145.88V145.42H583.266ZM584.306 145.42V145.88C584.306 146.44 584.539 146.973 585.006 147.48C585.473 147.973 586.139 148.4 587.006 148.76C587.886 149.107 588.913 149.333 590.086 149.44L589.306 151.16C587.906 151.013 586.679 150.7 585.626 150.22C584.586 149.727 583.779 149.107 583.206 148.36C582.633 147.613 582.346 146.787 582.346 145.88V145.42H584.306ZM589.406 144.6V146.34H576.226V144.6H589.406ZM598.326 144.78V146.44C598.326 147.627 598.133 148.733 597.746 149.76C597.36 150.787 596.786 151.68 596.026 152.44C595.266 153.2 594.346 153.767 593.266 154.14L592.126 152.36C593.073 152.053 593.873 151.6 594.526 151C595.18 150.4 595.673 149.707 596.006 148.92C596.34 148.133 596.506 147.307 596.506 146.44V144.78H598.326ZM598.706 144.78V146.36C598.706 147.187 598.86 147.967 599.166 148.7C599.486 149.42 599.953 150.06 600.566 150.62C601.18 151.18 601.933 151.6 602.826 151.88L601.666 153.6C600.64 153.24 599.773 152.707 599.066 152C598.36 151.293 597.826 150.46 597.466 149.5C597.106 148.54 596.926 147.493 596.926 146.36V144.78H598.706ZM607.006 143.82V154.28H604.806V143.82H607.006ZM601.066 154.76C602.933 154.76 604.4 155.06 605.466 155.66C606.546 156.26 607.086 157.1 607.086 158.18C607.086 159.26 606.553 160.1 605.486 160.7C604.42 161.3 602.946 161.6 601.066 161.6C599.186 161.6 597.706 161.3 596.626 160.7C595.546 160.1 595.006 159.26 595.006 158.18C595.006 157.1 595.546 156.26 596.626 155.66C597.706 155.06 599.186 154.76 601.066 154.76ZM601.066 156.46C600.24 156.46 599.54 156.527 598.966 156.66C598.393 156.793 597.96 156.987 597.666 157.24C597.373 157.493 597.226 157.807 597.226 158.18C597.226 158.553 597.373 158.867 597.666 159.12C597.96 159.373 598.393 159.567 598.966 159.7C599.54 159.833 600.24 159.9 601.066 159.9C601.88 159.9 602.573 159.833 603.146 159.7C603.72 159.567 604.153 159.373 604.446 159.12C604.753 158.867 604.906 158.553 604.906 158.18C604.906 157.807 604.753 157.493 604.446 157.24C604.153 156.987 603.72 156.793 603.146 156.66C602.573 156.527 601.88 156.46 601.066 156.46ZM605.186 147.24V149.06H601.326V147.24H605.186ZM617.347 151.56H622.227V153.68H617.347V158.54H615.247V153.68H610.367V151.56H615.247V146.68H617.347V151.56ZM633.339 150.2V153.42H631.119V150.2H633.339ZM640.299 152.48V154.22H624.219V152.48H640.299ZM632.239 155.38C634.172 155.38 635.679 155.653 636.759 156.2C637.839 156.733 638.379 157.5 638.379 158.5C638.379 159.487 637.839 160.247 636.759 160.78C635.679 161.327 634.172 161.6 632.239 161.6C630.292 161.6 628.779 161.327 627.699 160.78C626.619 160.247 626.079 159.487 626.079 158.5C626.079 157.5 626.619 156.733 627.699 156.2C628.779 155.653 630.292 155.38 632.239 155.38ZM632.239 157.06C630.946 157.06 629.966 157.18 629.299 157.42C628.632 157.66 628.299 158.02 628.299 158.5C628.299 158.98 628.632 159.347 629.299 159.6C629.966 159.84 630.946 159.96 632.239 159.96C633.532 159.96 634.506 159.84 635.159 159.6C635.826 159.36 636.159 158.993 636.159 158.5C636.159 158.02 635.826 157.66 635.159 157.42C634.506 157.18 633.532 157.06 632.239 157.06ZM632.719 145.42V145.88C632.719 146.787 632.432 147.613 631.859 148.36C631.286 149.107 630.472 149.72 629.419 150.2C628.366 150.68 627.139 150.993 625.739 151.14L624.979 149.42C626.152 149.313 627.172 149.087 628.039 148.74C628.919 148.393 629.592 147.967 630.059 147.46C630.526 146.953 630.759 146.427 630.759 145.88V145.42H632.719ZM633.759 145.42V145.88C633.759 146.427 633.992 146.953 634.459 147.46C634.926 147.967 635.592 148.393 636.459 148.74C637.339 149.087 638.366 149.313 639.539 149.42L638.779 151.14C637.379 150.993 636.152 150.68 635.099 150.2C634.046 149.72 633.232 149.107 632.659 148.36C632.086 147.613 631.799 146.787 631.799 145.88V145.42H633.759ZM638.859 144.6V146.34H625.679V144.6H638.859ZM647.78 144.78V146.44C647.78 147.627 647.586 148.733 647.2 149.76C646.813 150.787 646.24 151.68 645.48 152.44C644.72 153.2 643.8 153.767 642.72 154.14L641.58 152.36C642.526 152.053 643.326 151.6 643.98 151C644.633 150.4 645.126 149.707 645.46 148.92C645.793 148.133 645.96 147.307 645.96 146.44V144.78H647.78ZM648.16 144.78V146.36C648.16 147.187 648.313 147.967 648.62 148.7C648.94 149.42 649.406 150.06 650.02 150.62C650.633 151.18 651.386 151.6 652.28 151.88L651.12 153.6C650.093 153.24 649.226 152.707 648.52 152C647.813 151.293 647.28 150.46 646.92 149.5C646.56 148.54 646.38 147.493 646.38 146.36V144.78H648.16ZM656.46 143.82V154.28H654.26V143.82H656.46ZM650.52 154.76C652.386 154.76 653.853 155.06 654.92 155.66C656 156.26 656.54 157.1 656.54 158.18C656.54 159.26 656.006 160.1 654.94 160.7C653.873 161.3 652.4 161.6 650.52 161.6C648.64 161.6 647.16 161.3 646.08 160.7C645 160.1 644.46 159.26 644.46 158.18C644.46 157.1 645 156.26 646.08 155.66C647.16 155.06 648.64 154.76 650.52 154.76ZM650.52 156.46C649.693 156.46 648.993 156.527 648.42 156.66C647.846 156.793 647.413 156.987 647.12 157.24C646.826 157.493 646.68 157.807 646.68 158.18C646.68 158.553 646.826 158.867 647.12 159.12C647.413 159.373 647.846 159.567 648.42 159.7C648.993 159.833 649.693 159.9 650.52 159.9C651.333 159.9 652.026 159.833 652.6 159.7C653.173 159.567 653.606 159.373 653.9 159.12C654.206 158.867 654.36 158.553 654.36 158.18C654.36 157.807 654.206 157.493 653.9 157.24C653.606 156.987 653.173 156.793 652.6 156.66C652.026 156.527 651.333 156.46 650.52 156.46ZM654.64 147.24V149.06H650.78V147.24H654.64ZM663.8 148.52C664.253 150.067 664.48 151.487 664.48 152.78C664.48 154.073 664.253 155.493 663.8 157.04C663.347 158.587 662.76 159.933 662.04 161.08H659.8C660.613 159.96 661.273 158.627 661.78 157.08C662.3 155.52 662.56 154.087 662.56 152.78C662.56 151.473 662.3 150.047 661.78 148.5C661.273 146.94 660.613 145.6 659.8 144.48H662.04C662.76 145.627 663.347 146.973 663.8 148.52Z" fill="#231815"/>
<path d="M434.406 103H532.949" stroke="black" stroke-width="2"/>
<path d="M550.154 103H700.315" stroke="black" stroke-width="2"/>
<path d="M459.632 94H431.664V89.584L451.504 65.584H433.072V60.528H459.056V65.136L439.344 88.944H459.632V94ZM512.624 94H506.8V72.944C506.8 70.2133 506.395 68.2293 505.584 66.992C504.56 65.4987 502.747 64.752 500.144 64.752C494.043 64.752 490.992 68.592 490.992 76.272V94H485.36V47.92H490.992V65.072C493.637 61.488 497.072 59.696 501.296 59.696C505.435 59.696 508.4 60.8267 510.192 63.088C511.813 65.136 512.624 68.272 512.624 72.496V94Z" fill="#231815"/>
<path d="M569.264 76.784C569.264 79.6427 568.88 82.1813 568.112 84.4C567.387 86.576 566.32 88.432 564.912 89.968C563.547 91.504 561.861 92.6773 559.856 93.488C557.893 94.256 555.696 94.64 553.264 94.64C551.003 94.64 548.912 94.256 546.992 93.488C545.072 92.6773 543.408 91.504 542 89.968C540.592 88.432 539.483 86.576 538.672 84.4C537.904 82.1813 537.52 79.6427 537.52 76.784C537.52 72.9867 538.16 69.7867 539.44 67.184C540.72 64.5387 542.555 62.5333 544.944 61.168C547.333 59.76 550.171 59.056 553.456 59.056C556.571 59.056 559.301 59.76 561.648 61.168C564.037 62.5333 565.893 64.5387 567.216 67.184C568.581 69.7867 569.264 72.9867 569.264 76.784ZM543.344 76.784C543.344 79.472 543.685 81.8187 544.368 83.824C545.093 85.7867 546.203 87.3013 547.696 88.368C549.189 89.4347 551.088 89.968 553.392 89.968C555.696 89.968 557.595 89.4347 559.088 88.368C560.581 87.3013 561.669 85.7867 562.352 83.824C563.077 81.8187 563.44 79.472 563.44 76.784C563.44 74.0533 563.077 71.728 562.352 69.808C561.627 67.888 560.517 66.416 559.024 65.392C557.573 64.3253 555.675 63.792 553.328 63.792C549.829 63.792 547.291 64.944 545.712 67.248C544.133 69.552 543.344 72.7307 543.344 76.784ZM562.864 50.672V55.216H543.856V50.672H562.864ZM623.374 94H617.614V72.944C617.614 67.5253 615.502 64.816 611.278 64.816C608.249 64.816 605.753 65.9467 603.79 68.208C602.425 69.7867 601.742 72.5387 601.742 76.464V94H596.11V60.528H601.422V65.264C604.366 61.5947 608.014 59.76 612.366 59.76C616.505 59.76 619.427 60.8907 621.134 63.152C622.627 65.1147 623.374 68.2293 623.374 72.496V94ZM677.945 91.248C677.945 96.88 676.857 101.04 674.681 103.728C672.291 106.672 668.345 108.144 662.841 108.144C654.691 108.144 650.297 104.816 649.657 98.16H655.353C655.993 101.701 658.531 103.472 662.969 103.472C667.235 103.472 670.03 102.085 671.353 99.312C672.163 97.6053 672.569 94.2773 672.569 89.328C670.35 92.6987 666.894 94.384 662.201 94.384C657.55 94.384 654.051 92.72 651.705 89.392C649.657 86.4907 648.633 82.608 648.633 77.744C648.633 69.68 651.278 64.2187 656.569 61.36C658.318 60.4213 660.345 59.952 662.649 59.952C666.19 59.952 669.027 61.0187 671.161 63.152C671.417 63.408 671.95 64.048 672.761 65.072V60.848H677.945V91.248ZM672.761 77.104C672.761 73.6907 672.121 70.9173 670.841 68.784C669.262 66.1813 666.873 64.88 663.673 64.88C660.729 64.88 658.553 65.6693 657.145 67.248C656.035 68.528 655.225 70.7253 654.713 73.84C654.499 75.1627 654.393 76.6347 654.393 78.256C654.393 85.9787 657.209 89.84 662.841 89.84C669.454 89.84 672.761 85.5947 672.761 77.104Z" fill="#231815"/>
<path d="M560 41.4997C560 40 560.5 34 566 31.5C573.124 28.2614 574.5 37.4997 569 37.4997C563.5 37.4997 563.5 27 577.5 26.5M577.5 26.5L574 24M577.5 26.5L575.5 30.5" stroke="black" stroke-linecap="round" stroke-linejoin="round"/>
<path d="M592.76 17.78V19.44C592.76 20.6267 592.567 21.7333 592.18 22.76C591.793 23.7867 591.22 24.68 590.46 25.44C589.7 26.2 588.78 26.7667 587.7 27.14L586.56 25.36C587.507 25.0533 588.307 24.6 588.96 24C589.613 23.4 590.107 22.7067 590.44 21.92C590.773 21.1333 590.94 20.3067 590.94 19.44V17.78H592.76ZM593.14 17.78V19.36C593.14 20.1867 593.293 20.9667 593.6 21.7C593.92 22.42 594.387 23.06 595 23.62C595.613 24.18 596.367 24.6 597.26 24.88L596.1 26.6C595.073 26.24 594.207 25.7067 593.5 25C592.793 24.2933 592.26 23.46 591.9 22.5C591.54 21.54 591.36 20.4933 591.36 19.36V17.78H593.14ZM601.44 16.82V27.28H599.24V16.82H601.44ZM595.5 27.76C597.367 27.76 598.833 28.06 599.9 28.66C600.98 29.26 601.52 30.1 601.52 31.18C601.52 32.26 600.987 33.1 599.92 33.7C598.853 34.3 597.38 34.6 595.5 34.6C593.62 34.6 592.14 34.3 591.06 33.7C589.98 33.1 589.44 32.26 589.44 31.18C589.44 30.1 589.98 29.26 591.06 28.66C592.14 28.06 593.62 27.76 595.5 27.76ZM595.5 29.46C594.673 29.46 593.973 29.5267 593.4 29.66C592.827 29.7933 592.393 29.9867 592.1 30.24C591.807 30.4933 591.66 30.8067 591.66 31.18C591.66 31.5533 591.807 31.8667 592.1 32.12C592.393 32.3733 592.827 32.5667 593.4 32.7C593.973 32.8333 594.673 32.9 595.5 32.9C596.313 32.9 597.007 32.8333 597.58 32.7C598.153 32.5667 598.587 32.3733 598.88 32.12C599.187 31.8667 599.34 31.5533 599.34 31.18C599.34 30.8067 599.187 30.4933 598.88 30.24C598.587 29.9867 598.153 29.7933 597.58 29.66C597.007 29.5267 596.313 29.46 595.5 29.46ZM599.62 20.24V22.06H595.76V20.24H599.62ZM620.28 30.66V32.46H604.16V30.66H620.28ZM613.32 26.58V31.18H611.12V26.58H613.32ZM612.92 19.1V19.92C612.92 21.1333 612.607 22.2533 611.98 23.28C611.367 24.2933 610.514 25.1533 609.42 25.86C608.34 26.5533 607.107 27.0333 605.72 27.3L604.84 25.56C606.027 25.3733 607.094 25 608.04 24.44C608.987 23.88 609.727 23.2 610.26 22.4C610.794 21.6 611.06 20.7733 611.06 19.92V19.1H612.92ZM613.34 19.1V19.92C613.34 20.7733 613.607 21.5933 614.14 22.38C614.687 23.1667 615.44 23.8333 616.4 24.38C617.36 24.9267 618.44 25.2933 619.64 25.48L618.78 27.22C617.38 26.9533 616.127 26.48 615.02 25.8C613.927 25.12 613.067 24.2733 612.44 23.26C611.814 22.2467 611.5 21.1333 611.5 19.92V19.1H613.34ZM618.9 18.26V20.02H605.5V18.26H618.9Z" fill="#231815"/>
<path d="M371.008 66.125C370.826 71.2292 370.734 76.0599 370.734 80.6172H394.523C394.341 84.263 394.25 89.276 394.25 95.6562C394.25 101.854 394.341 106.503 394.523 109.602H388.508V105.5H370.734V117.258C370.734 119.445 370.826 123.547 371.008 129.562H364.445C364.81 126.281 364.992 122.453 364.992 118.078V105.5H347.219V109.602H341.203C341.385 106.867 341.477 102.219 341.477 95.6562C341.477 88.9115 341.385 83.8984 341.203 80.6172H364.992C364.992 75.6953 364.901 70.8646 364.719 66.125H371.008ZM388.508 101.125V84.9922H370.734V101.125H388.508ZM364.992 101.125V84.9922H347.219V101.125H364.992Z" fill="black"/>
</svg>
