<svg width="760" height="225" viewBox="0 0 760 225" fill="none" xmlns="http://www.w3.org/2000/svg">
<g filter="url(#filter0_f_294_134)">
<path d="M519.693 180.637L472.566 199.367C470.273 200.64 470.524 201.78 473.151 201.914L710.832 221.994C713.442 222.128 715.836 220.134 716.154 217.536L733.96 74.012C734.278 71.4147 732.655 70.2752 730.329 71.4817L519.693 180.62V180.637Z" fill="#E6E6E6"/>
</g>
<path d="M741.048 16H404.261C402.722 16 401.367 17.0539 401.016 18.5594L354.093 201.063C353.591 203.171 355.18 205.195 357.338 205.195H694.125C695.664 205.195 697.019 204.141 697.371 202.636L744.293 20.1318C744.795 18.0241 743.206 16 741.048 16Z" fill="#FBF9F3"/>
<path d="M696.197 188.042C689.592 180.936 686.084 171.325 687.405 161.327C689.842 142.81 707.835 129.92 727.581 132.516C747.327 135.112 761.379 152.239 758.942 170.733C756.505 189.249 738.513 202.14 718.767 199.543C713.802 198.883 709.201 197.312 705.124 195.034C699.658 200.067 692.051 202.322 684.217 203.37C689.66 199.612 693.691 194.601 696.219 188.019" fill="#EB7575"/>
<path d="M711.953 162.772H713.779V166.248H711.953V162.772ZM703.879 162.134H721.853V163.608H703.879V162.134ZM712.855 165.698C717.123 165.698 719.675 166.952 719.675 169.196C719.675 171.418 717.123 172.672 712.855 172.672C708.587 172.672 706.035 171.418 706.035 169.196C706.035 166.952 708.587 165.698 712.855 165.698ZM712.855 167.106C709.753 167.106 707.883 167.854 707.883 169.196C707.883 170.516 709.753 171.264 712.855 171.264C715.979 171.264 717.827 170.516 717.827 169.196C717.827 167.854 715.979 167.106 712.855 167.106ZM711.689 154.456H713.317V155.05C713.317 158.262 709.665 160.418 705.551 160.924L704.891 159.472C708.455 159.098 711.689 157.316 711.689 155.05V154.456ZM712.459 154.456H714.065V155.05C714.065 157.316 717.299 159.098 720.863 159.472L720.203 160.924C716.089 160.418 712.459 158.262 712.459 155.05V154.456ZM705.529 153.73H720.247V155.204H705.529V153.73Z" fill="white"/>
<path d="M726.048 158.748H738.852V160.244H726.048V158.748ZM723.76 165.876H741.778V167.372H723.76V165.876ZM731.834 166.888H733.638V171.574H731.834V166.888ZM737.664 158.748H739.446V160.222C739.446 161.872 739.446 163.874 738.786 166.602L737.004 166.382C737.664 163.72 737.664 161.828 737.664 160.222V158.748ZM725.63 170.98H739.578V177.712H737.752V172.476H725.63V170.98Z" fill="white"/>
<g filter="url(#filter1_f_294_134)">
<path d="M309.458 79.2041C312.804 77.7309 317.762 74.8041 320.498 72.663L371.791 35.1411C374.551 33 373.671 31.1339 369.861 30.9571L53.897 3.0094C50.087 2.83262 46.6434 5.17007 46.2282 8.23435L20.0468 201.52C19.6316 204.585 22.0251 205.861 25.371 204.388L309.458 79.2237V79.2041Z" fill="#E6E6E6"/>
</g>
<path d="M55.8378 18.5789L8.91542 201.083C8.41357 203.19 10.0027 205.214 12.1607 205.214H337.087C338.626 205.214 339.981 204.161 340.333 202.655L387.255 20.1514C387.757 18.0436 386.168 16.0195 384.01 16.0195H59.083C57.544 16.0195 56.1891 17.0734 55.8378 18.5789Z" fill="#FBF9F3"/>
<path d="M551.886 37.7887V25.7475H554.67V26.6694H552.939V36.8668H554.67V37.7887H551.886Z" fill="#727171"/>
<path d="M691.565 31.7681C691.565 30.5828 691.719 29.4931 692.026 28.4991C692.337 27.502 692.779 26.5848 693.353 25.7475H694.331C694.105 26.0579 693.894 26.4405 693.696 26.8952C693.502 27.3467 693.331 27.8438 693.183 28.3862C693.036 28.9256 692.92 29.4837 692.835 30.0607C692.754 30.6377 692.713 31.2068 692.713 31.7681C692.713 32.5144 692.785 33.2717 692.929 34.04C693.074 34.8082 693.268 35.5216 693.513 36.1801C693.757 36.8386 694.03 37.3748 694.331 37.7887H693.353C692.779 36.9515 692.337 36.0359 692.026 35.0418C691.719 34.0447 691.565 32.9534 691.565 31.7681ZM695.94 35.832V34.9937L699.089 31.5474C699.458 31.1437 699.763 30.7929 700.002 30.4948C700.241 30.1936 700.418 29.9111 700.533 29.6472C700.651 29.3802 700.71 29.1007 700.71 28.8089C700.71 28.4736 700.629 28.1833 700.467 27.938C700.309 27.6927 700.092 27.5033 699.815 27.3698C699.539 27.2363 699.229 27.1695 698.884 27.1695C698.517 27.1695 698.198 27.2456 697.924 27.3977C697.654 27.5468 697.445 27.7563 697.296 28.0265C697.15 28.2966 697.077 28.6133 697.077 28.9765H695.978C695.978 28.4177 696.107 27.9271 696.364 27.5049C696.622 27.0826 696.973 26.7535 697.417 26.5175C697.864 26.2815 698.365 26.1636 698.921 26.1636C699.48 26.1636 699.975 26.2815 700.407 26.5175C700.838 26.7535 701.177 27.0717 701.422 27.4723C701.667 27.8728 701.79 28.3183 701.79 28.8089C701.79 29.1597 701.726 29.5028 701.599 29.8381C701.475 30.1704 701.258 30.5414 700.947 30.9512C700.64 31.358 700.213 31.8547 699.666 32.4415L697.524 34.7329V34.8074H701.958V35.832H695.94ZM706.992 35.9624C706.29 35.9624 705.693 35.7715 705.199 35.3896C704.705 35.0046 704.328 34.4473 704.067 33.7176C703.807 32.9849 703.676 32.1 703.676 31.063C703.676 30.0322 703.807 29.152 704.067 28.4223C704.331 27.6896 704.71 27.1307 705.204 26.7457C705.701 26.3576 706.297 26.1636 706.992 26.1636C707.688 26.1636 708.282 26.3576 708.776 26.7457C709.273 27.1307 709.651 27.6896 709.912 28.4223C710.176 29.152 710.308 30.0322 710.308 31.063C710.308 32.1 710.178 32.9849 709.917 33.7176C709.656 34.4473 709.279 35.0046 708.785 35.3896C708.292 35.7715 707.694 35.9624 706.992 35.9624ZM706.992 34.9378C707.688 34.9378 708.228 34.6025 708.613 33.9319C708.998 33.2612 709.19 32.3049 709.19 31.063C709.19 30.2371 709.102 29.5339 708.925 28.9533C708.751 28.3727 708.5 27.9302 708.17 27.6259C707.844 27.3217 707.452 27.1695 706.992 27.1695C706.303 27.1695 705.764 27.5095 705.376 28.1895C704.988 28.8663 704.794 29.8242 704.794 31.063C704.794 31.8889 704.881 32.5906 705.055 33.1681C705.229 33.7456 705.479 34.1849 705.805 34.4861C706.134 34.7873 706.53 34.9378 706.992 34.9378ZM712.078 35.832V34.9937L715.226 31.5474C715.596 31.1437 715.9 30.7929 716.139 30.4948C716.378 30.1936 716.555 29.9111 716.67 29.6472C716.788 29.3802 716.847 29.1007 716.847 28.8089C716.847 28.4736 716.766 28.1833 716.605 27.938C716.446 27.6927 716.229 27.5033 715.953 27.3698C715.676 27.2363 715.366 27.1695 715.021 27.1695C714.655 27.1695 714.335 27.2456 714.062 27.3977C713.792 27.5468 713.582 27.7563 713.433 28.0265C713.287 28.2966 713.214 28.6133 713.214 28.9765H712.115C712.115 28.4177 712.244 27.9271 712.502 27.5049C712.759 27.0826 713.11 26.7535 713.554 26.5175C714.001 26.2815 714.503 26.1636 715.059 26.1636C715.617 26.1636 716.113 26.2815 716.544 26.5175C716.976 26.7535 717.314 27.0717 717.559 27.4723C717.805 27.8728 717.927 28.3183 717.927 28.8089C717.927 29.1597 717.864 29.5028 717.736 29.8381C717.612 30.1704 717.395 30.5414 717.084 30.9512C716.777 31.358 716.35 31.8547 715.804 32.4415L713.661 34.7329V34.8074H718.095V35.832H712.078ZM720.019 35.832V34.9937L723.167 31.5474C723.536 31.1437 723.841 30.7929 724.08 30.4948C724.319 30.1936 724.496 29.9111 724.611 29.6472C724.729 29.3802 724.788 29.1007 724.788 28.8089C724.788 28.4736 724.707 28.1833 724.545 27.938C724.387 27.6927 724.17 27.5033 723.893 27.3698C723.617 27.2363 723.307 27.1695 722.962 27.1695C722.596 27.1695 722.276 27.2456 722.002 27.3977C721.732 27.5468 721.523 27.7563 721.374 28.0265C721.228 28.2966 721.155 28.6133 721.155 28.9765H720.056C720.056 28.4177 720.185 27.9271 720.442 27.5049C720.7 27.0826 721.051 26.7535 721.495 26.5175C721.942 26.2815 722.443 26.1636 722.999 26.1636C723.558 26.1636 724.053 26.2815 724.485 26.5175C724.916 26.7535 725.255 27.0717 725.5 27.4723C725.745 27.8728 725.868 28.3183 725.868 28.8089C725.868 29.1597 725.804 29.5028 725.677 29.8381C725.553 30.1704 725.336 30.5414 725.025 30.9512C724.718 31.358 724.291 31.8547 723.744 32.4415L721.602 34.7329V34.8074H726.036V35.832H720.019ZM730.325 31.063C730.325 32.2366 730.171 33.3171 729.864 34.3045C729.56 35.2887 729.123 36.1953 728.555 37.0243H727.587C727.81 36.7169 728.018 36.3381 728.211 35.8879C728.406 35.4408 728.577 34.9503 728.723 34.4162C728.869 33.8791 728.982 33.3249 729.063 32.7536C729.147 32.1792 729.189 31.6157 729.189 31.063C729.189 30.324 729.117 29.5742 728.974 28.8135C728.832 28.0529 728.639 27.3465 728.397 26.6945C728.155 26.0425 727.885 25.5115 727.587 25.1017H728.555C729.123 25.9307 729.56 26.8389 729.864 27.8262C730.171 28.8104 730.325 29.8894 730.325 31.063ZM734.928 25.1017V37.0243H732.17V36.1115H733.884V26.0145H732.17V25.1017H734.928Z" fill="#727171"/>
<path d="M63.1531 78.5068C69.7579 71.401 73.2652 61.7899 71.9443 51.7916C69.5073 33.2754 51.5149 20.3846 31.7689 22.9809C12.0228 25.5773 -2.02949 42.7042 0.407451 61.1977C2.84439 79.7139 20.8368 92.6047 40.5828 90.0083C45.5478 89.3478 50.1712 87.7763 54.2252 85.4988C59.6912 90.5321 67.2982 92.7869 75.1328 93.8345C69.6895 90.0766 65.6583 85.0661 63.1303 78.4841" fill="#75B4DF"/>
<path d="M30.4056 43.403H32.2765V58.6864H30.4056V43.403ZM31.6904 50.0754H35.2971V51.6533H31.6904V50.0754ZM16.5198 45.8601H28.5571V47.3704H16.5198V45.8601ZM22.5385 48.4975C25.4238 48.4975 27.4075 50.0078 27.4075 52.307C27.4075 54.5838 25.4238 56.0941 22.5385 56.0941C19.6306 56.0941 17.6469 54.5838 17.6469 52.307C17.6469 50.0078 19.6306 48.4975 22.5385 48.4975ZM22.5385 49.9627C20.6901 49.9627 19.4277 50.8869 19.4277 52.307C19.4277 53.7046 20.6901 54.6288 22.5385 54.6288C24.3644 54.6288 25.6267 53.7046 25.6267 52.307C25.6267 50.8869 24.3644 49.9627 22.5385 49.9627ZM21.5917 43.3805H23.4627V46.6491H21.5917V43.3805ZM19.5855 61.7746H33.2007V63.3074H19.5855V61.7746ZM19.5855 57.4691H21.4565V62.4283H19.5855V57.4691Z" fill="white"/>
<path d="M38.6804 49.5773H51.7997V51.1101H38.6804V49.5773ZM36.3361 56.8808H54.7978V58.4136H36.3361V56.8808ZM44.6089 57.9177H46.4573V62.7191H44.6089V57.9177ZM50.5825 49.5773H52.4083V51.0876C52.4083 52.7782 52.4083 54.8295 51.7321 57.6247L49.9062 57.3993C50.5825 54.6717 50.5825 52.7331 50.5825 51.0876V49.5773ZM38.2521 62.1105H52.5436V69.0083H50.6726V63.6433H38.2521V62.1105Z" fill="white"/>
<path d="M292.952 38.7301V26.6889H295.737V27.6108H294.006V37.8082H295.737V38.7301H292.952ZM296.832 32.2226H307.547V33.1013H296.832V32.2226ZM301.645 30.6882H302.721V32.5898H301.645V30.6882ZM298.249 30.2029H306.288V31.0554H298.249V30.2029ZM298.249 26.2816H306.235V27.134H299.324V30.6619H298.249V26.2816ZM299.009 28.2226H305.921V29.0619H299.009V28.2226ZM302.183 33.98C304.767 33.98 306.249 34.6357 306.249 35.8816C306.249 37.1144 304.767 37.7702 302.183 37.7702C299.599 37.7702 298.117 37.1144 298.117 35.8816C298.117 34.6357 299.599 33.98 302.183 33.98ZM302.183 34.8062C300.281 34.8062 299.219 35.1865 299.219 35.8816C299.219 36.5898 300.281 36.957 302.183 36.957C304.085 36.957 305.147 36.5898 305.147 35.8816C305.147 35.1865 304.085 34.8062 302.183 34.8062ZM313.5 29.2324H316.136V30.1111H313.5V29.2324ZM313.408 32.2095H316.11V33.0882H313.408V32.2095ZM317.933 25.9406H318.982V37.7964H317.933V25.9406ZM315.559 26.2422H316.582V37.1931H315.559V26.2422ZM312.91 27.4357H313.959C313.959 30.5439 312.713 33.3373 309.526 35.239L308.897 34.4652C311.664 32.7865 312.91 30.4259 312.91 27.6324V27.4357ZM309.421 27.4357H313.343V28.3275H309.421V27.4357ZM323.925 27.9603H324.817V28.4717C324.817 30.5308 323.506 32.2619 321.525 32.9308L321.001 32.0783C322.745 31.5144 323.925 30.0718 323.925 28.4717V27.9603ZM324.122 27.9603H325.014V28.4717C325.014 29.9406 326.234 31.2652 327.978 31.7767L327.479 32.6291C325.486 32.0128 324.122 30.4127 324.122 28.4717V27.9603ZM321.302 27.3701H327.624V28.2488H321.302V27.3701ZM323.925 25.8881H325.014V27.6849H323.925V25.8881ZM327.27 29.3111H329.945V30.216H327.27V29.3111ZM329.63 25.9406H330.719V33.1144H329.63V25.9406ZM326.824 33.4292C329.276 33.4292 330.771 34.2292 330.771 35.6062C330.771 36.9702 329.276 37.7702 326.824 37.7702C324.358 37.7702 322.863 36.9702 322.863 35.6062C322.863 34.2292 324.358 33.4292 326.824 33.4292ZM326.824 34.2816C325.027 34.2816 323.952 34.7669 323.952 35.6062C323.952 36.4325 325.027 36.9177 326.824 36.9177C328.607 36.9177 329.696 36.4325 329.696 35.6062C329.696 34.7669 328.607 34.2816 326.824 34.2816ZM333.781 32.0044C333.781 30.8308 333.933 29.7518 334.237 28.7676C334.544 27.7803 334.982 26.8721 335.55 26.0431H336.519C336.295 26.3505 336.086 26.7293 335.89 27.1795C335.698 27.6266 335.529 28.1187 335.383 28.6558C335.237 29.1899 335.122 29.7425 335.038 30.3138C334.957 30.8851 334.917 31.4486 334.917 32.0044C334.917 32.7434 334.988 33.4932 335.131 34.2539C335.274 35.0145 335.466 35.7209 335.709 36.3729C335.951 37.0249 336.221 37.5559 336.519 37.9657H335.55C334.982 37.1367 334.544 36.2301 334.237 35.2459C333.933 34.2585 333.781 33.178 333.781 32.0044ZM338.122 36.7734V35.9351L341.271 32.4888C341.64 32.0851 341.944 31.7343 342.183 31.4362C342.422 31.1351 342.599 30.8525 342.714 30.5886C342.832 30.3216 342.891 30.0421 342.891 29.7503C342.891 29.415 342.811 29.1247 342.649 28.8794C342.491 28.6341 342.273 28.4447 341.997 28.3112C341.721 28.1777 341.41 28.1109 341.066 28.1109C340.699 28.1109 340.379 28.187 340.106 28.3391C339.836 28.4882 339.627 28.6978 339.478 28.9679C339.332 29.238 339.259 29.5547 339.259 29.918H338.16C338.16 29.3591 338.288 28.8685 338.546 28.4463C338.804 28.024 339.155 27.6949 339.599 27.4589C340.046 27.223 340.547 27.105 341.103 27.105C341.662 27.105 342.157 27.223 342.589 27.4589C343.02 27.6949 343.359 28.0131 343.604 28.4137C343.849 28.8142 343.972 29.2597 343.972 29.7503C343.972 30.1011 343.908 30.4442 343.781 30.7795C343.657 31.1118 343.439 31.4828 343.129 31.8926C342.821 32.2994 342.395 32.7961 341.848 33.383L339.706 35.6743V35.7488H344.139V36.7734H338.122ZM349.174 36.9038C348.472 36.9038 347.875 36.7129 347.381 36.331C346.887 35.946 346.51 35.3887 346.249 34.659C345.988 33.9263 345.858 33.0414 345.858 32.0044C345.858 30.9736 345.988 30.0934 346.249 29.3637C346.513 28.631 346.892 28.0721 347.386 27.6871C347.882 27.299 348.478 27.105 349.174 27.105C349.869 27.105 350.464 27.299 350.958 27.6871C351.454 28.0721 351.833 28.631 352.094 29.3637C352.358 30.0934 352.49 30.9736 352.49 32.0044C352.49 33.0414 352.359 33.9263 352.099 34.659C351.838 35.3887 351.461 35.946 350.967 36.331C350.473 36.7129 349.876 36.9038 349.174 36.9038ZM349.174 35.8792C349.869 35.8792 350.41 35.5439 350.795 34.8733C351.18 34.2026 351.372 33.2463 351.372 32.0044C351.372 31.1785 351.284 30.4753 351.107 29.8947C350.933 29.3141 350.681 28.8716 350.352 28.5673C350.026 28.2631 349.633 28.1109 349.174 28.1109C348.485 28.1109 347.946 28.4509 347.558 29.1309C347.17 29.8077 346.976 30.7656 346.976 32.0044C346.976 32.8303 347.063 33.532 347.237 34.1095C347.41 34.687 347.66 35.1263 347.986 35.4275C348.315 35.7287 348.711 35.8792 349.174 35.8792ZM354.26 36.7734V35.9351L357.408 32.4888C357.777 32.0851 358.082 31.7343 358.321 31.4362C358.56 31.1351 358.737 30.8525 358.852 30.5886C358.97 30.3216 359.029 30.0421 359.029 29.7503C359.029 29.415 358.948 29.1247 358.787 28.8794C358.628 28.6341 358.411 28.4447 358.134 28.3112C357.858 28.1777 357.548 28.1109 357.203 28.1109C356.837 28.1109 356.517 28.187 356.244 28.3391C355.974 28.4882 355.764 28.6978 355.615 28.9679C355.469 29.238 355.396 29.5547 355.396 29.918H354.297C354.297 29.3591 354.426 28.8685 354.683 28.4463C354.941 28.024 355.292 27.6949 355.736 27.4589C356.183 27.223 356.685 27.105 357.24 27.105C357.799 27.105 358.294 27.223 358.726 27.4589C359.158 27.6949 359.496 28.0131 359.741 28.4137C359.987 28.8142 360.109 29.2597 360.109 29.7503C360.109 30.1011 360.046 30.4442 359.918 30.7795C359.794 31.1118 359.577 31.4828 359.266 31.8926C358.959 32.2994 358.532 32.7961 357.985 33.383L355.843 35.6743V35.7488H360.277V36.7734H354.26ZM365.423 36.9038C364.808 36.9038 364.26 36.7983 363.779 36.5871C363.301 36.376 362.921 36.0826 362.638 35.7069C362.359 35.3281 362.206 34.8888 362.182 34.3889H363.355C363.38 34.6963 363.486 34.9618 363.672 35.1853C363.858 35.4058 364.102 35.5765 364.403 35.6976C364.704 35.8187 365.038 35.8792 365.404 35.8792C365.814 35.8792 366.178 35.8078 366.494 35.665C366.811 35.5222 367.059 35.3235 367.239 35.0689C367.42 34.8143 367.51 34.5193 367.51 34.184C367.51 33.8332 367.423 33.5242 367.249 33.2572C367.075 32.9871 366.82 32.776 366.485 32.6238C366.15 32.4717 365.74 32.3956 365.255 32.3956H364.492V31.371H365.255C365.634 31.371 365.966 31.3027 366.252 31.1661C366.541 31.0295 366.766 30.837 366.927 30.5886C367.092 30.3402 367.174 30.0484 367.174 29.713C367.174 29.3901 367.103 29.1091 366.96 28.8701C366.817 28.631 366.615 28.4447 366.355 28.3112C366.097 28.1777 365.793 28.1109 365.442 28.1109C365.113 28.1109 364.802 28.1715 364.51 28.2926C364.222 28.4106 363.986 28.5829 363.802 28.8095C363.619 29.0331 363.52 29.3032 363.504 29.6199H362.387C362.405 29.12 362.556 28.6822 362.838 28.3065C363.121 27.9278 363.49 27.6328 363.947 27.4217C364.406 27.2105 364.911 27.105 365.46 27.105C366.05 27.105 366.556 27.2245 366.979 27.4636C367.401 27.6995 367.725 28.0116 367.952 28.3997C368.179 28.7878 368.292 29.2069 368.292 29.6571C368.292 30.1943 368.151 30.6522 367.868 31.031C367.589 31.4098 367.208 31.6722 366.727 31.8181V31.8926C367.329 31.992 367.8 32.2481 368.138 32.6611C368.477 33.0709 368.646 33.5786 368.646 34.184C368.646 34.7025 368.505 35.1682 368.222 35.5812C367.943 35.991 367.561 36.3139 367.076 36.5499C366.592 36.7859 366.041 36.9038 365.423 36.9038ZM372.917 32.0044C372.917 33.178 372.763 34.2585 372.456 35.2459C372.151 36.2301 371.715 37.1367 371.147 37.9657H370.178C370.402 37.6583 370.61 37.2795 370.802 36.8293C370.998 36.3822 371.169 35.8917 371.315 35.3576C371.46 34.8205 371.574 34.2663 371.655 33.695C371.738 33.1206 371.78 32.5571 371.78 32.0044C371.78 31.2655 371.709 30.5156 371.566 29.755C371.423 28.9943 371.231 28.2879 370.989 27.6359C370.746 26.9839 370.476 26.453 370.178 26.0431H371.147C371.715 26.8721 372.151 27.7803 372.456 28.7676C372.763 29.7518 372.917 30.8308 372.917 32.0044ZM377.519 26.0431V37.9657H374.762V37.0529H376.476V26.9559H374.762V26.0431H377.519Z" fill="#727171"/>
<path d="M97.4278 165.608H99.2474V166.42H97.4278V165.608ZM97.4278 167.857H99.2474V168.657H97.4278V167.857ZM96.7556 164.021H97.7175V170.244H96.7556V164.021ZM90.9144 170.743H97.7175V174.498H96.7556V171.519H90.9144V170.743ZM92.5138 164.635C94.0899 164.635 95.2489 165.655 95.2489 167.127C95.2489 168.587 94.0899 169.595 92.5138 169.595C90.9376 169.595 89.7786 168.587 89.7786 167.127C89.7786 165.655 90.9376 164.635 92.5138 164.635ZM92.5138 165.458C91.4707 165.458 90.7174 166.13 90.7174 167.127C90.7174 168.112 91.4707 168.796 92.5138 168.796C93.5568 168.796 94.3102 168.112 94.3102 167.127C94.3102 166.13 93.5568 165.458 92.5138 165.458ZM106.733 165.248V173.594H105.722V166.307H105.673L103.636 167.66V166.633L105.722 165.248H106.733ZM110.091 172.453L110.026 172.893C109.979 173.203 109.909 173.534 109.814 173.887C109.721 174.24 109.625 174.573 109.524 174.886C109.424 175.198 109.341 175.447 109.276 175.631H108.542C108.578 175.457 108.624 175.228 108.681 174.943C108.738 174.657 108.795 174.338 108.852 173.985C108.912 173.635 108.961 173.276 108.999 172.909L109.048 172.453H110.091ZM114.287 173.708C113.673 173.708 113.15 173.541 112.718 173.207C112.286 172.87 111.956 172.382 111.728 171.744C111.5 171.103 111.386 170.328 111.386 169.421C111.386 168.519 111.5 167.749 111.728 167.11C111.959 166.469 112.29 165.98 112.722 165.643C113.157 165.304 113.679 165.134 114.287 165.134C114.896 165.134 115.416 165.304 115.848 165.643C116.283 165.98 116.614 166.469 116.842 167.11C117.073 167.749 117.189 168.519 117.189 169.421C117.189 170.328 117.074 171.103 116.846 171.744C116.618 172.382 116.288 172.87 115.856 173.207C115.424 173.541 114.901 173.708 114.287 173.708ZM114.287 172.811C114.896 172.811 115.368 172.518 115.705 171.931C116.042 171.344 116.211 170.508 116.211 169.421C116.211 168.698 116.133 168.083 115.978 167.575C115.826 167.067 115.606 166.68 115.318 166.413C115.033 166.147 114.689 166.014 114.287 166.014C113.684 166.014 113.213 166.312 112.873 166.907C112.533 167.499 112.364 168.337 112.364 169.421C112.364 170.143 112.44 170.757 112.592 171.263C112.744 171.768 112.963 172.153 113.248 172.416C113.536 172.68 113.882 172.811 114.287 172.811ZM121.459 173.708C120.845 173.708 120.322 173.541 119.89 173.207C119.458 172.87 119.128 172.382 118.9 171.744C118.672 171.103 118.558 170.328 118.558 169.421C118.558 168.519 118.672 167.749 118.9 167.11C119.131 166.469 119.462 165.98 119.894 165.643C120.329 165.304 120.851 165.134 121.459 165.134C122.068 165.134 122.588 165.304 123.02 165.643C123.455 165.98 123.786 166.469 124.014 167.11C124.245 167.749 124.361 168.519 124.361 169.421C124.361 170.328 124.247 171.103 124.018 171.744C123.79 172.382 123.46 172.87 123.028 173.207C122.596 173.541 122.073 173.708 121.459 173.708ZM121.459 172.811C122.068 172.811 122.541 172.518 122.877 171.931C123.214 171.344 123.383 170.508 123.383 169.421C123.383 168.698 123.305 168.083 123.15 167.575C122.998 167.067 122.778 166.68 122.49 166.413C122.205 166.147 121.861 166.014 121.459 166.014C120.856 166.014 120.385 166.312 120.045 166.907C119.706 167.499 119.536 168.337 119.536 169.421C119.536 170.143 119.612 170.757 119.764 171.263C119.916 171.768 120.135 172.153 120.42 172.416C120.708 172.68 121.054 172.811 121.459 172.811ZM128.631 173.708C128.017 173.708 127.494 173.541 127.063 173.207C126.631 172.87 126.3 172.382 126.072 171.744C125.844 171.103 125.73 170.328 125.73 169.421C125.73 168.519 125.844 167.749 126.072 167.11C126.303 166.469 126.635 165.98 127.067 165.643C127.501 165.304 128.023 165.134 128.631 165.134C129.24 165.134 129.76 165.304 130.192 165.643C130.627 165.98 130.958 166.469 131.187 167.11C131.417 167.749 131.533 168.519 131.533 169.421C131.533 170.328 131.419 171.103 131.191 171.744C130.962 172.382 130.632 172.87 130.2 173.207C129.768 173.541 129.245 173.708 128.631 173.708ZM128.631 172.811C129.24 172.811 129.713 172.518 130.05 171.931C130.386 171.344 130.555 170.508 130.555 169.421C130.555 168.698 130.477 168.083 130.323 167.575C130.17 167.067 129.95 166.68 129.662 166.413C129.377 166.147 129.033 166.014 128.631 166.014C128.028 166.014 127.557 166.312 127.217 166.907C126.878 167.499 126.708 168.337 126.708 169.421C126.708 170.143 126.784 170.757 126.936 171.263C127.088 171.768 127.307 172.153 127.592 172.416C127.88 172.68 128.227 172.811 128.631 172.811ZM133.216 165.045H137.978V169.853H133.216V165.045ZM137.049 165.813H134.145V169.084H137.049V165.813ZM139.883 164.104H140.836V171.712H139.883V164.104ZM140.537 167.271H142.373V168.063H140.537V167.271ZM134.375 173.479H141.306V174.259H134.375V173.479ZM134.375 170.989H135.327V173.812H134.375V170.989ZM151.521 165.79H154.516V166.571H151.521V165.79ZM151.521 167.856H154.539V168.625H151.521V167.856ZM154.149 164.115H155.102V170.254H154.149V164.115ZM147.046 164.895H151.785V169.508H147.046V164.895ZM150.844 165.664H147.975V168.751H150.844V165.664ZM151.693 170.553C153.828 170.553 155.147 171.276 155.147 172.515C155.147 173.754 153.828 174.466 151.693 174.466C149.547 174.466 148.228 173.754 148.228 172.515C148.228 171.276 149.547 170.553 151.693 170.553ZM151.693 171.31C150.133 171.31 149.18 171.758 149.18 172.515C149.18 173.272 150.133 173.72 151.693 173.72C153.254 173.72 154.207 173.272 154.207 172.515C154.207 171.758 153.254 171.31 151.693 171.31Z" fill="#231815"/>
<path d="M108.337 188.648V187.908L111.12 184.862C111.446 184.505 111.715 184.195 111.926 183.932C112.137 183.666 112.294 183.416 112.395 183.183C112.5 182.947 112.552 182.7 112.552 182.442C112.552 182.146 112.48 181.889 112.338 181.672C112.198 181.456 112.006 181.288 111.762 181.17C111.517 181.052 111.243 180.993 110.938 180.993C110.615 180.993 110.332 181.061 110.091 181.195C109.852 181.327 109.667 181.512 109.535 181.751C109.406 181.989 109.342 182.269 109.342 182.59H108.37C108.37 182.096 108.484 181.663 108.712 181.29C108.94 180.917 109.25 180.626 109.642 180.417C110.037 180.209 110.48 180.104 110.971 180.104C111.465 180.104 111.903 180.209 112.284 180.417C112.666 180.626 112.965 180.907 113.181 181.261C113.398 181.615 113.507 182.009 113.507 182.442C113.507 182.752 113.45 183.055 113.338 183.352C113.228 183.645 113.036 183.973 112.762 184.335C112.49 184.695 112.113 185.134 111.63 185.652L109.737 187.677V187.743H113.655V188.648H108.337ZM118.28 180.303V188.648H117.269V181.362H117.22L115.183 182.715V181.688L117.269 180.303H118.28ZM120.904 188.714C120.703 188.714 120.531 188.642 120.387 188.498C120.243 188.354 120.171 188.181 120.171 187.98C120.171 187.779 120.243 187.607 120.387 187.463C120.531 187.319 120.703 187.247 120.904 187.247C121.105 187.247 121.278 187.319 121.422 187.463C121.566 187.607 121.638 187.779 121.638 187.98C121.638 188.113 121.604 188.235 121.536 188.347C121.471 188.458 121.383 188.548 121.271 188.616C121.162 188.681 121.04 188.714 120.904 188.714ZM125.787 188.763C125.309 188.763 124.879 188.667 124.496 188.477C124.113 188.287 123.806 188.026 123.575 187.695C123.344 187.363 123.217 186.986 123.196 186.562H124.174C124.212 186.94 124.383 187.252 124.687 187.499C124.994 187.744 125.361 187.866 125.787 187.866C126.13 187.866 126.434 187.786 126.7 187.626C126.969 187.465 127.18 187.245 127.332 186.965C127.487 186.683 127.564 186.364 127.564 186.008C127.564 185.644 127.484 185.319 127.324 185.034C127.166 184.746 126.949 184.519 126.672 184.353C126.395 184.188 126.078 184.103 125.722 184.101C125.467 184.098 125.205 184.137 124.936 184.219C124.667 184.298 124.445 184.399 124.271 184.524L123.326 184.41L123.831 180.303H128.167V181.199H124.679L124.386 183.661H124.434C124.606 183.525 124.82 183.412 125.078 183.322C125.336 183.233 125.605 183.188 125.885 183.188C126.396 183.188 126.851 183.31 127.25 183.555C127.652 183.796 127.968 184.128 128.196 184.549C128.427 184.97 128.542 185.451 128.542 185.991C128.542 186.524 128.423 186.999 128.184 187.418C127.947 187.833 127.621 188.162 127.206 188.404C126.79 188.643 126.317 188.763 125.787 188.763ZM134.415 187.084V186.643C134.415 186.339 134.478 186.061 134.603 185.808C134.731 185.553 134.915 185.349 135.157 185.197C135.402 185.042 135.698 184.965 136.045 184.965C136.399 184.965 136.695 185.042 136.934 185.197C137.173 185.349 137.354 185.553 137.476 185.808C137.598 186.061 137.659 186.339 137.659 186.643V187.084C137.659 187.388 137.597 187.668 137.472 187.923C137.349 188.176 137.167 188.379 136.926 188.534C136.687 188.686 136.393 188.763 136.045 188.763C135.692 188.763 135.395 188.686 135.153 188.534C134.911 188.379 134.728 188.176 134.603 187.923C134.478 187.668 134.415 187.388 134.415 187.084ZM135.247 186.643V187.084C135.247 187.336 135.306 187.563 135.426 187.764C135.546 187.962 135.752 188.062 136.045 188.062C136.331 188.062 136.532 187.962 136.649 187.764C136.768 187.563 136.828 187.336 136.828 187.084V186.643C136.828 186.391 136.771 186.165 136.657 185.967C136.543 185.766 136.339 185.665 136.045 185.665C135.76 185.665 135.555 185.766 135.43 185.967C135.308 186.165 135.247 186.391 135.247 186.643ZM130.259 182.308V181.867C130.259 181.563 130.321 181.285 130.446 181.032C130.574 180.777 130.759 180.573 131 180.421C131.245 180.266 131.541 180.189 131.889 180.189C132.242 180.189 132.538 180.266 132.777 180.421C133.016 180.573 133.197 180.777 133.319 181.032C133.441 181.285 133.503 181.563 133.503 181.867V182.308C133.503 182.612 133.44 182.892 133.315 183.147C133.193 183.4 133.011 183.603 132.769 183.758C132.53 183.91 132.237 183.987 131.889 183.987C131.536 183.987 131.238 183.91 130.996 183.758C130.755 183.603 130.571 183.4 130.446 183.147C130.321 182.892 130.259 182.612 130.259 182.308ZM131.09 181.867V182.308C131.09 182.56 131.15 182.787 131.269 182.988C131.389 183.186 131.595 183.286 131.889 183.286C132.174 183.286 132.375 183.186 132.492 182.988C132.611 182.787 132.671 182.56 132.671 182.308V181.867C132.671 181.615 132.614 181.389 132.5 181.191C132.386 180.99 132.182 180.889 131.889 180.889C131.604 180.889 131.398 180.99 131.273 181.191C131.151 181.389 131.09 181.615 131.09 181.867ZM130.568 188.648L136.306 180.303H137.235L131.498 188.648H130.568Z" fill="#231815"/>
<path d="M135.469 38.2171L102.297 34.6875V151.968L135.469 156.318V38.2171Z" fill="#84B0DE"/>
<mask id="mask0_294_134" style="mask-type:luminance" maskUnits="userSpaceOnUse" x="102" y="34" width="34" height="123">
<path d="M102.297 151.964L135.469 156.314V38.2132L102.297 34.6836V151.964Z" fill="white"/>
</mask>
<g mask="url(#mask0_294_134)">
<g opacity="0.5">
<mask id="mask1_294_134" style="mask-type:luminance" maskUnits="userSpaceOnUse" x="80" y="94" width="78" height="75">
<path d="M157.382 94.8398H80.3828V168.092H157.382V94.8398Z" fill="white"/>
</mask>
<g mask="url(#mask1_294_134)">
<path d="M125.751 128.753C125.751 132.55 122.673 135.277 118.875 134.842C115.078 134.407 112 130.994 112 127.197C112 123.4 115.078 120.673 118.875 121.108C122.673 121.543 125.751 124.956 125.751 128.753Z" fill="white"/>
<path d="M129.129 147.318C129.129 141.664 124.545 136.545 118.874 135.909C113.22 135.274 108.637 139.338 108.637 144.993V160.884L129.129 163.21V147.318Z" fill="white"/>
</g>
</g>
</g>
<path d="M141.641 32.7539L135.469 38.2072V156.308L141.641 150.035V32.7539Z" fill="#A1C1E6"/>
<path d="M141.641 32.7479L109.624 29.2852L102.297 34.6716L135.469 38.3351L141.641 32.7479Z" fill="#B2CBEA"/>
<path d="M118.534 44.345H120.119C120.119 48.5338 117.114 51.4842 112.269 52.7773L111.686 51.5753C115.966 50.4461 118.534 48.0603 118.534 45.0188V44.345ZM112.542 44.345H119.409V45.5652H112.542V44.345ZM123.47 43.2886H125V52.5769H123.47V43.2886ZM114.345 53.3783H125V59.534H114.345V53.3783ZM123.506 54.5985H115.839V58.2956H123.506V54.5985Z" fill="#231815"/>
<path d="M181.186 165.608H183.005V166.42H181.186V165.608ZM181.186 167.857H183.005V168.657H181.186V167.857ZM180.513 164.021H181.475V170.244H180.513V164.021ZM174.672 170.743H181.475V174.498H180.513V171.519H174.672V170.743ZM176.272 164.635C177.848 164.635 179.007 165.655 179.007 167.127C179.007 168.587 177.848 169.595 176.272 169.595C174.695 169.595 173.536 168.587 173.536 167.127C173.536 165.655 174.695 164.635 176.272 164.635ZM176.272 165.458C175.228 165.458 174.475 166.13 174.475 167.127C174.475 168.112 175.228 168.796 176.272 168.796C177.315 168.796 178.068 168.112 178.068 167.127C178.068 166.13 177.315 165.458 176.272 165.458ZM187.817 173.594L191.55 166.21V166.144H187.247V165.248H192.593V166.193L188.877 173.594H187.817ZM196.655 173.708C196.041 173.708 195.518 173.541 195.086 173.207C194.654 172.87 194.324 172.382 194.096 171.744C193.868 171.103 193.754 170.328 193.754 169.421C193.754 168.519 193.868 167.749 194.096 167.11C194.327 166.469 194.658 165.98 195.09 165.643C195.525 165.304 196.047 165.134 196.655 165.134C197.264 165.134 197.784 165.304 198.216 165.643C198.651 165.98 198.982 166.469 199.21 167.11C199.441 167.749 199.557 168.519 199.557 169.421C199.557 170.328 199.443 171.103 199.214 171.744C198.986 172.382 198.656 172.87 198.224 173.207C197.792 173.541 197.269 173.708 196.655 173.708ZM196.655 172.811C197.264 172.811 197.737 172.518 198.073 171.931C198.41 171.344 198.579 170.508 198.579 169.421C198.579 168.698 198.501 168.083 198.346 167.575C198.194 167.067 197.974 166.68 197.686 166.413C197.401 166.147 197.057 166.014 196.655 166.014C196.052 166.014 195.581 166.312 195.241 166.907C194.902 167.499 194.732 168.337 194.732 169.421C194.732 170.143 194.808 170.757 194.96 171.263C195.112 171.768 195.331 172.153 195.616 172.416C195.904 172.68 196.25 172.811 196.655 172.811ZM203.827 173.708C203.213 173.708 202.69 173.541 202.259 173.207C201.827 172.87 201.496 172.382 201.268 171.744C201.04 171.103 200.926 170.328 200.926 169.421C200.926 168.519 201.04 167.749 201.268 167.11C201.499 166.469 201.831 165.98 202.263 165.643C202.697 165.304 203.219 165.134 203.827 165.134C204.436 165.134 204.956 165.304 205.388 165.643C205.823 165.98 206.154 166.469 206.383 167.11C206.613 167.749 206.729 168.519 206.729 169.421C206.729 170.328 206.615 171.103 206.387 171.744C206.158 172.382 205.828 172.87 205.396 173.207C204.964 173.541 204.441 173.708 203.827 173.708ZM203.827 172.811C204.436 172.811 204.909 172.518 205.246 171.931C205.582 171.344 205.751 170.508 205.751 169.421C205.751 168.698 205.673 168.083 205.519 167.575C205.366 167.067 205.146 166.68 204.858 166.413C204.573 166.147 204.23 166.014 203.827 166.014C203.224 166.014 202.753 166.312 202.413 166.907C202.074 167.499 201.904 168.337 201.904 169.421C201.904 170.143 201.98 170.757 202.132 171.263C202.284 171.768 202.503 172.153 202.788 172.416C203.076 172.68 203.423 172.811 203.827 172.811ZM208.412 165.045H213.174V169.853H208.412V165.045ZM212.245 165.813H209.341V169.084H212.245V165.813ZM215.079 164.104H216.032V171.712H215.079V164.104ZM215.733 167.271H217.569V168.063H215.733V167.271ZM209.571 173.479H216.502V174.259H209.571V173.479ZM209.571 170.989H210.523V173.812H209.571V170.989ZM226.717 165.79H229.712V166.571H226.717V165.79ZM226.717 167.856H229.735V168.625H226.717V167.856ZM229.345 164.115H230.298V170.254H229.345V164.115ZM222.242 164.895H226.981V169.508H222.242V164.895ZM226.04 165.664H223.171V168.751H226.04V165.664ZM226.889 170.553C229.024 170.553 230.344 171.276 230.344 172.515C230.344 173.754 229.024 174.466 226.889 174.466C224.743 174.466 223.424 173.754 223.424 172.515C223.424 171.276 224.743 170.553 226.889 170.553ZM226.889 171.31C225.329 171.31 224.376 171.758 224.376 172.515C224.376 173.272 225.329 173.72 226.889 173.72C228.45 173.72 229.403 173.272 229.403 172.515C229.403 171.758 228.45 171.31 226.889 171.31Z" fill="#231815"/>
<path d="M190.742 180.22V188.648H189.721V181.29H189.672L187.614 182.656V181.619L189.721 180.22H190.742ZM192.969 186.92V186.08L196.673 180.22H197.282V181.52H196.87L194.072 185.949V186.014H199.06V186.92H192.969ZM196.936 188.648V186.665V186.274V180.22H197.907V188.648H196.936ZM201.311 188.714C201.11 188.714 200.937 188.642 200.793 188.498C200.649 188.354 200.577 188.181 200.577 187.98C200.577 187.779 200.649 187.607 200.793 187.463C200.937 187.319 201.11 187.247 201.311 187.247C201.512 187.247 201.684 187.319 201.828 187.463C201.972 187.607 202.044 187.779 202.044 187.98C202.044 188.113 202.01 188.235 201.942 188.347C201.877 188.458 201.789 188.548 201.677 188.616C201.569 188.681 201.447 188.714 201.311 188.714ZM203.846 188.648L207.579 181.264V181.199H203.276V180.303H208.622V181.248L204.906 188.648H203.846ZM214.396 187.084V186.643C214.396 186.339 214.458 186.061 214.583 185.808C214.711 185.553 214.896 185.349 215.138 185.197C215.382 185.042 215.678 184.965 216.026 184.965C216.379 184.965 216.675 185.042 216.914 185.197C217.153 185.349 217.334 185.553 217.456 185.808C217.579 186.061 217.64 186.339 217.64 186.643V187.084C217.64 187.388 217.577 187.668 217.452 187.923C217.33 188.176 217.148 188.379 216.906 188.534C216.667 188.686 216.374 188.763 216.026 188.763C215.673 188.763 215.375 188.686 215.133 188.534C214.892 188.379 214.708 188.176 214.583 187.923C214.458 187.668 214.396 187.388 214.396 187.084ZM215.227 186.643V187.084C215.227 187.336 215.287 187.563 215.406 187.764C215.526 187.962 215.733 188.062 216.026 188.062C216.311 188.062 216.512 187.962 216.629 187.764C216.749 187.563 216.808 187.336 216.808 187.084V186.643C216.808 186.391 216.751 186.165 216.637 185.967C216.523 185.766 216.319 185.665 216.026 185.665C215.741 185.665 215.536 185.766 215.411 185.967C215.288 186.165 215.227 186.391 215.227 186.643ZM210.239 182.308V181.867C210.239 181.563 210.302 181.285 210.427 181.032C210.554 180.777 210.739 180.573 210.981 180.421C211.225 180.266 211.522 180.189 211.869 180.189C212.222 180.189 212.519 180.266 212.758 180.421C212.997 180.573 213.177 180.777 213.3 181.032C213.422 181.285 213.483 181.563 213.483 181.867V182.308C213.483 182.612 213.421 182.892 213.296 183.147C213.173 183.4 212.991 183.603 212.75 183.758C212.51 183.91 212.217 183.987 211.869 183.987C211.516 183.987 211.219 183.91 210.977 183.758C210.735 183.603 210.552 183.4 210.427 183.147C210.302 182.892 210.239 182.612 210.239 182.308ZM211.071 181.867V182.308C211.071 182.56 211.13 182.787 211.25 182.988C211.369 183.186 211.576 183.286 211.869 183.286C212.155 183.286 212.356 183.186 212.472 182.988C212.592 182.787 212.652 182.56 212.652 182.308V181.867C212.652 181.615 212.595 181.389 212.481 181.191C212.366 180.99 212.163 180.889 211.869 180.889C211.584 180.889 211.379 180.99 211.254 181.191C211.132 181.389 211.071 181.615 211.071 181.867ZM210.549 188.648L216.287 180.303H217.216L211.478 188.648H210.549Z" fill="#231815"/>
<path d="M215.127 64.2874L181.955 60.7578V151.959L215.127 156.309V64.2874Z" fill="#7AC8C4"/>
<mask id="mask2_294_134" style="mask-type:luminance" maskUnits="userSpaceOnUse" x="181" y="60" width="35" height="97">
<path d="M181.955 151.959L215.127 156.309V64.2874L181.955 60.7578V151.959Z" fill="white"/>
</mask>
<g mask="url(#mask2_294_134)">
<g opacity="0.5">
<mask id="mask3_294_134" style="mask-type:luminance" maskUnits="userSpaceOnUse" x="160" y="97" width="78" height="74">
<path d="M237.057 97.2148H160.041V170.467H237.057V97.2148Z" fill="white"/>
</mask>
<g mask="url(#mask3_294_134)">
<path d="M205.424 131.112C205.424 134.909 202.346 137.636 198.549 137.201C194.752 136.766 191.674 133.354 191.674 129.557C191.674 125.759 194.752 123.033 198.549 123.467C202.346 123.902 205.424 127.315 205.424 131.112Z" fill="white"/>
<path d="M208.787 149.705C208.787 144.05 204.203 138.932 198.533 138.296C192.878 137.66 188.295 141.725 188.295 147.379V163.271L208.787 165.596V149.705Z" fill="white"/>
</g>
</g>
</g>
<path d="M221.3 58.8359L215.127 64.2893V156.311L221.3 150.038V58.8359Z" fill="#ACDAD7"/>
<path d="M221.3 58.8377L189.299 55.375L181.955 60.7615L215.127 64.4249L221.3 58.8377Z" fill="#B8E0DD"/>
<path d="M203.11 69.3407H204.621V85.8411H203.11V69.3407ZM195.934 70.6156C198.375 70.6156 200.123 72.8557 200.123 76.3525C200.123 79.8675 198.375 82.1076 195.934 82.1076C193.512 82.1076 191.764 79.8675 191.764 76.3525C191.764 72.8557 193.512 70.6156 195.934 70.6156ZM195.934 71.9815C194.332 71.9815 193.202 73.6935 193.202 76.3525C193.202 79.0297 194.332 80.7781 195.934 80.7781C197.555 80.7781 198.666 79.0297 198.666 76.3525C198.666 73.6935 197.555 71.9815 195.934 71.9815Z" fill="#231815"/>
<path d="M260.393 165.366H262.212V166.178H260.393V165.366ZM260.393 167.615H262.212V168.414H260.393V167.615ZM259.72 163.778H260.682V170.002H259.72V163.778ZM253.879 170.501H260.682V174.256H259.72V171.277H253.879V170.501ZM255.479 164.393C257.055 164.393 258.214 165.413 258.214 166.885C258.214 168.345 257.055 169.353 255.479 169.353C253.902 169.353 252.743 168.345 252.743 166.885C252.743 165.413 253.902 164.393 255.479 164.393ZM255.479 165.216C254.436 165.216 253.682 165.888 253.682 166.885C253.682 167.87 254.436 168.553 255.479 168.553C256.522 168.553 257.275 167.87 257.275 166.885C257.275 165.888 256.522 165.216 255.479 165.216ZM266.575 171.623V170.783L270.279 164.923H270.888V166.223H270.476L267.678 170.652V170.718H272.666V171.623H266.575ZM270.542 173.352V171.368V170.977V164.923H271.513V173.352H270.542ZM276.957 173.467C276.337 173.467 275.809 173.298 275.373 172.961C274.937 172.62 274.603 172.128 274.373 171.483C274.142 170.836 274.027 170.054 274.027 169.137C274.027 168.226 274.142 167.448 274.373 166.804C274.606 166.156 274.941 165.662 275.377 165.322C275.816 164.979 276.343 164.807 276.957 164.807C277.572 164.807 278.097 164.979 278.534 165.322C278.973 165.662 279.307 166.156 279.538 166.804C279.771 167.448 279.888 168.226 279.888 169.137C279.888 170.054 279.773 170.836 279.542 171.483C279.312 172.128 278.978 172.62 278.542 172.961C278.106 173.298 277.578 173.467 276.957 173.467ZM276.957 172.561C277.572 172.561 278.049 172.265 278.39 171.672C278.73 171.08 278.9 170.235 278.9 169.137C278.9 168.407 278.822 167.786 278.665 167.273C278.512 166.76 278.29 166.369 277.999 166.1C277.711 165.831 277.364 165.696 276.957 165.696C276.348 165.696 275.872 165.997 275.529 166.598C275.186 167.196 275.015 168.042 275.015 169.137C275.015 169.867 275.092 170.487 275.245 170.997C275.399 171.508 275.62 171.896 275.908 172.162C276.199 172.428 276.549 172.561 276.957 172.561ZM284.201 173.467C283.581 173.467 283.053 173.298 282.616 172.961C282.18 172.62 281.847 172.128 281.616 171.483C281.386 170.836 281.271 170.054 281.271 169.137C281.271 168.226 281.386 167.448 281.616 166.804C281.85 166.156 282.184 165.662 282.621 165.322C283.06 164.979 283.586 164.807 284.201 164.807C284.816 164.807 285.341 164.979 285.777 165.322C286.216 165.662 286.551 166.156 286.781 166.804C287.015 167.448 287.131 168.226 287.131 169.137C287.131 170.054 287.016 170.836 286.786 171.483C286.555 172.128 286.222 172.62 285.785 172.961C285.349 173.298 284.821 173.467 284.201 173.467ZM284.201 172.561C284.816 172.561 285.293 172.265 285.633 171.672C285.973 171.08 286.144 170.235 286.144 169.137C286.144 168.407 286.065 167.786 285.909 167.273C285.755 166.76 285.533 166.369 285.242 166.1C284.954 165.831 284.607 165.696 284.201 165.696C283.592 165.696 283.116 165.997 282.773 166.598C282.43 167.196 282.258 168.042 282.258 169.137C282.258 169.867 282.335 170.487 282.489 170.997C282.643 171.508 282.863 171.896 283.151 172.162C283.442 172.428 283.792 172.561 284.201 172.561ZM288.831 164.717H293.641V169.573H288.831V164.717ZM292.702 165.494H289.77V168.797H292.702V165.494ZM295.565 163.767H296.527V171.451H295.565V163.767ZM296.225 166.966H298.08V167.765H296.225V166.966ZM290.002 173.236H297.002V174.024H290.002V173.236ZM290.002 170.721H290.964V173.572H290.002V170.721ZM307.264 165.548H310.259V166.329H307.264V165.548ZM307.264 167.614H310.282V168.383H307.264V167.614ZM309.892 163.873H310.844V170.012H309.892V163.873ZM302.788 164.653H307.528V169.266H302.788V164.653ZM306.587 165.422H303.718V168.509H306.587V165.422ZM307.436 170.311C309.57 170.311 310.89 171.034 310.89 172.273C310.89 173.512 309.57 174.224 307.436 174.224C305.29 174.224 303.97 173.512 303.97 172.273C303.97 171.034 305.29 170.311 307.436 170.311ZM307.436 171.068C305.875 171.068 304.923 171.515 304.923 172.273C304.923 173.03 305.875 173.478 307.436 173.478C308.996 173.478 309.949 173.03 309.949 172.273C309.949 171.515 308.996 171.068 307.436 171.068Z" fill="#231815"/>
<path d="M272.063 188.521C271.497 188.521 270.998 188.421 270.565 188.221C270.134 188.018 269.798 187.74 269.556 187.386C269.315 187.029 269.195 186.623 269.198 186.167C269.195 185.811 269.265 185.481 269.408 185.18C269.551 184.875 269.746 184.621 269.992 184.418C270.242 184.212 270.521 184.082 270.828 184.027V183.978C270.425 183.874 270.104 183.647 269.865 183.299C269.626 182.948 269.508 182.548 269.511 182.101C269.508 181.673 269.617 181.29 269.836 180.953C270.056 180.615 270.357 180.349 270.741 180.154C271.128 179.96 271.569 179.862 272.063 179.862C272.551 179.862 272.987 179.96 273.371 180.154C273.756 180.349 274.057 180.615 274.277 180.953C274.499 181.29 274.612 181.673 274.614 182.101C274.612 182.548 274.489 182.948 274.248 183.299C274.009 183.647 273.692 183.874 273.297 183.978V184.027C273.602 184.082 273.876 184.212 274.12 184.418C274.365 184.621 274.559 184.875 274.705 185.18C274.85 185.481 274.924 185.811 274.927 186.167C274.924 186.623 274.801 187.029 274.557 187.386C274.315 187.74 273.979 188.018 273.548 188.221C273.12 188.421 272.625 188.521 272.063 188.521ZM272.063 187.616C272.444 187.616 272.773 187.554 273.05 187.431C273.327 187.307 273.542 187.133 273.692 186.908C273.843 186.683 273.92 186.42 273.923 186.118C273.92 185.8 273.838 185.518 273.676 185.274C273.514 185.03 273.293 184.838 273.013 184.698C272.736 184.558 272.419 184.488 272.063 184.488C271.703 184.488 271.382 184.558 271.1 184.698C270.82 184.838 270.599 185.03 270.437 185.274C270.278 185.518 270.2 185.8 270.202 186.118C270.2 186.42 270.272 186.683 270.42 186.908C270.571 187.133 270.787 187.307 271.067 187.431C271.346 187.554 271.678 187.616 272.063 187.616ZM272.063 183.616C272.364 183.616 272.632 183.555 272.865 183.435C273.101 183.314 273.286 183.145 273.421 182.928C273.555 182.712 273.624 182.458 273.627 182.167C273.624 181.882 273.557 181.633 273.425 181.422C273.293 181.208 273.111 181.043 272.878 180.928C272.644 180.81 272.373 180.751 272.063 180.751C271.747 180.751 271.471 180.81 271.235 180.928C270.999 181.043 270.817 181.208 270.688 181.422C270.559 181.633 270.496 181.882 270.499 182.167C270.496 182.458 270.56 182.712 270.692 182.928C270.827 183.145 271.012 183.314 271.248 183.435C271.484 183.555 271.755 183.616 272.063 183.616ZM277.213 188.471C277.012 188.471 276.84 188.399 276.696 188.255C276.552 188.111 276.48 187.939 276.48 187.738C276.48 187.537 276.552 187.364 276.696 187.22C276.84 187.076 277.012 187.004 277.213 187.004C277.414 187.004 277.587 187.076 277.731 187.22C277.875 187.364 277.947 187.537 277.947 187.738C277.947 187.871 277.913 187.993 277.845 188.105C277.779 188.216 277.691 188.306 277.58 188.374C277.471 188.439 277.349 188.471 277.213 188.471ZM279.46 186.695V185.863L283.128 180.06H283.731V181.348H283.324L280.553 185.733V185.798H285.492V186.695H279.46ZM283.389 188.406V186.442V186.055V180.06H284.351V188.406H283.389ZM291.273 186.841V186.401C291.273 186.097 291.336 185.819 291.461 185.566C291.588 185.311 291.773 185.107 292.015 184.955C292.259 184.8 292.555 184.722 292.903 184.722C293.256 184.722 293.553 184.8 293.792 184.955C294.031 185.107 294.211 185.311 294.334 185.566C294.456 185.819 294.517 186.097 294.517 186.401V186.841C294.517 187.146 294.454 187.426 294.329 187.681C294.207 187.934 294.025 188.137 293.783 188.292C293.544 188.444 293.251 188.52 292.903 188.52C292.55 188.52 292.253 188.444 292.011 188.292C291.769 188.137 291.586 187.934 291.461 187.681C291.336 187.426 291.273 187.146 291.273 186.841ZM292.104 186.401V186.841C292.104 187.094 292.164 187.321 292.284 187.522C292.403 187.72 292.61 187.819 292.903 187.819C293.188 187.819 293.39 187.72 293.506 187.522C293.626 187.321 293.686 187.094 293.686 186.841V186.401C293.686 186.149 293.629 185.923 293.514 185.725C293.4 185.524 293.197 185.423 292.903 185.423C292.618 185.423 292.413 185.524 292.288 185.725C292.166 185.923 292.104 186.149 292.104 186.401ZM287.117 182.065V181.625C287.117 181.321 287.179 181.043 287.304 180.79C287.432 180.535 287.616 180.331 287.858 180.179C288.103 180.024 288.399 179.946 288.747 179.946C289.1 179.946 289.396 180.024 289.635 180.179C289.874 180.331 290.055 180.535 290.177 180.79C290.299 181.043 290.36 181.321 290.36 181.625V182.065C290.36 182.37 290.298 182.649 290.173 182.905C290.051 183.158 289.869 183.361 289.627 183.516C289.388 183.668 289.094 183.744 288.747 183.744C288.393 183.744 288.096 183.668 287.854 183.516C287.612 183.361 287.429 183.158 287.304 182.905C287.179 182.649 287.117 182.37 287.117 182.065ZM287.948 181.625V182.065C287.948 182.318 288.008 182.545 288.127 182.746C288.247 182.944 288.453 183.043 288.747 183.043C289.032 183.043 289.233 182.944 289.35 182.746C289.469 182.545 289.529 182.318 289.529 182.065V181.625C289.529 181.373 289.472 181.147 289.358 180.949C289.244 180.748 289.04 180.647 288.747 180.647C288.461 180.647 288.256 180.748 288.131 180.949C288.009 181.147 287.948 181.373 287.948 181.625ZM287.426 188.406L293.164 180.06H294.093L288.355 188.406H287.426Z" fill="#231815"/>
<path d="M294.804 99.8499L261.615 96.3203V151.958L294.804 156.307V99.8499Z" fill="#9CCE86"/>
<mask id="mask4_294_134" style="mask-type:luminance" maskUnits="userSpaceOnUse" x="261" y="96" width="34" height="61">
<path d="M261.615 151.954L294.804 156.303V99.846L261.615 96.3164V151.954Z" fill="white"/>
</mask>
<g mask="url(#mask4_294_134)">
<g opacity="0.5">
<mask id="mask5_294_134" style="mask-type:luminance" maskUnits="userSpaceOnUse" x="239" y="99" width="78" height="74">
<path d="M316.717 99.5898H239.701V172.842H316.717V99.5898Z" fill="white"/>
</mask>
<g mask="url(#mask5_294_134)">
<path d="M285.084 133.491C285.084 137.288 282.006 140.015 278.209 139.58C274.412 139.145 271.334 135.733 271.334 131.935C271.334 128.138 274.412 125.411 278.209 125.846C282.006 126.281 285.084 129.694 285.084 133.491Z" fill="white"/>
<path d="M288.447 152.056C288.447 146.402 283.864 141.283 278.193 140.647C272.539 140.012 267.955 144.077 267.955 149.731V165.623L288.447 167.948V152.056Z" fill="white"/>
</g>
</g>
</g>
<path d="M300.975 94.3945L294.803 99.8479V156.305L300.975 150.032V94.3945Z" fill="#C6E1B6"/>
<path d="M300.976 94.3963L268.959 90.9336L261.615 96.32L294.804 99.9835L300.976 94.3963Z" fill="#D9EBCF"/>
<path d="M282.078 104.918H283.59V114.843H282.078V104.918ZM283.171 109.179H286.03V110.454H283.171V109.179ZM272.899 115.717H283.59V121.381H282.078V116.956H272.899V115.717ZM271.497 105.937H272.99V108.505H277.634V105.937H279.109V113.732H271.497V105.937ZM272.99 109.707V112.53H277.634V109.707H272.99Z" fill="#231815"/>
<path d="M502.332 168.952H504.152V169.763H502.332V168.952ZM502.332 171.201H504.152V172H502.332V171.201ZM501.66 167.364H502.622V173.588H501.66V167.364ZM495.819 174.086H502.622V177.841H501.66V174.863H495.819V174.086ZM497.418 167.979C498.994 167.979 500.153 168.999 500.153 170.47C500.153 171.931 498.994 172.939 497.418 172.939C495.842 172.939 494.683 171.931 494.683 170.47C494.683 168.999 495.842 167.979 497.418 167.979ZM497.418 168.802C496.375 168.802 495.622 169.474 495.622 170.47C495.622 171.456 496.375 172.139 497.418 172.139C498.461 172.139 499.214 171.456 499.214 170.47C499.214 169.474 498.461 168.802 497.418 168.802ZM511.675 168.509V176.938H510.654V169.579H510.605L508.547 170.945V169.908L510.654 168.509H511.675ZM518.952 170.065H521.803V170.853H518.952V170.065ZM515.429 174.133H522.417V177.853H521.455V174.898H515.429V174.133ZM521.455 167.364H522.417V173.542H521.455V167.364ZM516.657 167.944C518.199 167.944 519.357 168.987 519.357 170.47C519.357 171.954 518.199 172.985 516.657 172.985C515.104 172.985 513.957 171.954 513.957 170.47C513.957 168.987 515.104 167.944 516.657 167.944ZM516.657 168.767C515.637 168.767 514.884 169.474 514.884 170.47C514.884 171.467 515.637 172.163 516.657 172.163C517.665 172.163 518.43 171.467 518.43 170.47C518.43 169.474 517.665 168.767 516.657 168.767ZM530.984 168.509V176.938H529.963V169.579H529.913L527.856 170.945V169.908L529.963 168.509H530.984ZM536.219 177.052C535.681 177.052 535.202 176.959 534.78 176.774C534.362 176.59 534.029 176.333 533.782 176.004C533.538 175.673 533.404 175.288 533.383 174.851H534.41C534.431 175.12 534.524 175.352 534.687 175.548C534.85 175.741 535.063 175.89 535.327 175.996C535.59 176.102 535.882 176.155 536.203 176.155C536.561 176.155 536.879 176.093 537.156 175.968C537.433 175.843 537.651 175.669 537.808 175.446C537.966 175.223 538.045 174.965 538.045 174.672C538.045 174.365 537.969 174.094 537.816 173.861C537.664 173.624 537.442 173.44 537.148 173.307C536.855 173.173 536.496 173.107 536.072 173.107H535.404V172.21H536.072C536.404 172.21 536.694 172.151 536.944 172.031C537.197 171.912 537.394 171.743 537.535 171.526C537.679 171.308 537.751 171.053 537.751 170.76C537.751 170.477 537.689 170.231 537.564 170.022C537.439 169.813 537.262 169.65 537.034 169.533C536.809 169.416 536.542 169.358 536.235 169.358C535.947 169.358 535.676 169.411 535.42 169.517C535.168 169.62 534.961 169.771 534.801 169.969C534.641 170.165 534.554 170.401 534.54 170.678H533.562C533.578 170.241 533.71 169.858 533.957 169.529C534.205 169.198 534.528 168.939 534.927 168.755C535.329 168.57 535.771 168.478 536.252 168.478C536.768 168.478 537.211 168.582 537.58 168.791C537.95 168.998 538.233 169.271 538.432 169.61C538.63 169.95 538.729 170.317 538.729 170.711C538.729 171.181 538.606 171.581 538.358 171.913C538.114 172.244 537.781 172.474 537.36 172.602V172.667C537.887 172.754 538.299 172.978 538.595 173.339C538.891 173.698 539.039 174.142 539.039 174.672C539.039 175.125 538.915 175.533 538.668 175.894C538.424 176.253 538.089 176.535 537.666 176.742C537.242 176.948 536.76 177.052 536.219 177.052ZM543.363 168.478C543.705 168.48 544.047 168.546 544.39 168.673C544.732 168.801 545.044 169.013 545.327 169.309C545.609 169.602 545.836 170.003 546.007 170.511C546.179 171.019 546.264 171.656 546.264 172.422C546.264 173.164 546.193 173.823 546.052 174.399C545.914 174.972 545.713 175.456 545.449 175.849C545.188 176.243 544.87 176.542 544.496 176.746C544.123 176.95 543.702 177.052 543.232 177.052C542.765 177.052 542.348 176.959 541.981 176.774C541.617 176.587 541.318 176.328 541.085 175.996C540.854 175.662 540.706 175.275 540.64 174.835H541.635C541.724 175.218 541.902 175.534 542.169 175.784C542.438 176.031 542.792 176.155 543.232 176.155C543.876 176.155 544.384 175.874 544.756 175.312C545.131 174.749 545.319 173.955 545.319 172.928H545.254C545.101 173.156 544.921 173.353 544.712 173.518C544.502 173.684 544.27 173.812 544.015 173.902C543.759 173.991 543.488 174.036 543.2 174.036C542.722 174.036 542.283 173.918 541.883 173.681C541.487 173.442 541.169 173.115 540.93 172.699C540.693 172.281 540.575 171.803 540.575 171.265C540.575 170.754 540.689 170.287 540.918 169.863C541.149 169.437 541.472 169.097 541.887 168.844C542.306 168.592 542.798 168.469 543.363 168.478ZM543.363 169.374C543.02 169.374 542.712 169.46 542.438 169.631C542.166 169.799 541.95 170.027 541.79 170.315C541.632 170.601 541.553 170.917 541.553 171.265C541.553 171.613 541.629 171.929 541.782 172.214C541.936 172.497 542.147 172.722 542.413 172.891C542.682 173.057 542.988 173.14 543.33 173.14C543.588 173.14 543.829 173.089 544.051 172.989C544.274 172.885 544.468 172.746 544.634 172.569C544.803 172.39 544.934 172.187 545.029 171.962C545.124 171.734 545.172 171.496 545.172 171.249C545.172 170.923 545.093 170.617 544.936 170.332C544.781 170.047 544.566 169.816 544.292 169.639C544.02 169.462 543.71 169.374 543.363 169.374ZM548.001 168.388H552.763V173.196H548.001V168.388ZM551.834 169.157H548.931V172.428H551.834V169.157ZM554.668 167.447H555.621V175.056H554.668V167.447ZM555.322 170.615H557.159V171.406H555.322V170.615ZM549.16 176.823H556.091V177.603H549.16V176.823ZM549.16 174.333H550.113V177.156H549.16V174.333ZM566.306 169.134H569.302V169.915H566.306V169.134ZM566.306 171.2H569.325V171.969H566.306V171.2ZM568.934 167.459H569.887V173.598H568.934V167.459ZM561.831 168.239H566.57V172.852H561.831V168.239ZM565.629 169.008H562.761V172.095H565.629V169.008ZM566.479 173.896C568.613 173.896 569.933 174.619 569.933 175.859C569.933 177.098 568.613 177.81 566.479 177.81C564.333 177.81 563.013 177.098 563.013 175.859C563.013 174.619 564.333 173.896 566.479 173.896ZM566.479 174.654C564.918 174.654 563.965 175.101 563.965 175.859C563.965 176.616 564.918 177.064 566.479 177.064C568.039 177.064 568.992 176.616 568.992 175.859C568.992 175.101 568.039 174.654 566.479 174.654Z" fill="#231815"/>
<path d="M519.677 191.992L523.447 184.535V184.469H519.101V183.563H524.5V184.518L520.747 191.992H519.677ZM526.743 192.057C526.542 192.057 526.37 191.985 526.226 191.841C526.082 191.697 526.01 191.525 526.01 191.324C526.01 191.123 526.082 190.95 526.226 190.806C526.37 190.662 526.542 190.59 526.743 190.59C526.944 190.59 527.117 190.662 527.261 190.806C527.405 190.95 527.477 191.123 527.477 191.324C527.477 191.457 527.443 191.579 527.375 191.691C527.31 191.802 527.221 191.892 527.11 191.96C527.001 192.025 526.879 192.057 526.743 192.057ZM531.123 183.646V191.992H530.112V184.706H530.063L528.026 186.059V185.032L530.112 183.646H531.123ZM537.778 190.427V189.987C537.778 189.683 537.84 189.404 537.965 189.152C538.093 188.896 538.277 188.693 538.519 188.541C538.764 188.386 539.06 188.308 539.408 188.308C539.761 188.308 540.057 188.386 540.296 188.541C540.535 188.693 540.716 188.896 540.838 189.152C540.96 189.404 541.021 189.683 541.021 189.987V190.427C541.021 190.732 540.959 191.011 540.834 191.267C540.712 191.519 540.53 191.723 540.288 191.878C540.049 192.03 539.755 192.106 539.408 192.106C539.054 192.106 538.757 192.03 538.515 191.878C538.273 191.723 538.09 191.519 537.965 191.267C537.84 191.011 537.778 190.732 537.778 190.427ZM538.609 189.987V190.427C538.609 190.68 538.669 190.907 538.788 191.108C538.908 191.306 539.114 191.405 539.408 191.405C539.693 191.405 539.894 191.306 540.011 191.108C540.13 190.907 540.19 190.68 540.19 190.427V189.987C540.19 189.735 540.133 189.509 540.019 189.311C539.905 189.11 539.701 189.009 539.408 189.009C539.122 189.009 538.917 189.11 538.792 189.311C538.67 189.509 538.609 189.735 538.609 189.987ZM533.621 185.651V185.211C533.621 184.907 533.683 184.628 533.808 184.376C533.936 184.12 534.121 183.917 534.363 183.765C534.607 183.61 534.903 183.532 535.251 183.532C535.604 183.532 535.9 183.61 536.139 183.765C536.378 183.917 536.559 184.12 536.681 184.376C536.804 184.628 536.865 184.907 536.865 185.211V185.651C536.865 185.956 536.802 186.235 536.677 186.491C536.555 186.743 536.373 186.947 536.131 187.102C535.892 187.254 535.599 187.33 535.251 187.33C534.898 187.33 534.6 187.254 534.359 187.102C534.117 186.947 533.933 186.743 533.808 186.491C533.683 186.235 533.621 185.956 533.621 185.651ZM534.452 185.211V185.651C534.452 185.904 534.512 186.131 534.632 186.332C534.751 186.53 534.958 186.629 535.251 186.629C535.536 186.629 535.737 186.53 535.854 186.332C535.974 186.131 536.033 185.904 536.033 185.651V185.211C536.033 184.959 535.976 184.733 535.862 184.535C535.748 184.334 535.544 184.233 535.251 184.233C534.966 184.233 534.761 184.334 534.636 184.535C534.513 184.733 534.452 184.959 534.452 185.211ZM533.931 191.992L539.668 183.646H540.598L534.86 191.992H533.931Z" fill="#231815"/>
<path d="M590.773 168.952H592.593V169.763H590.773V168.952ZM590.773 171.201H592.593V172H590.773V171.201ZM590.101 167.364H591.063V173.588H590.101V167.364ZM584.26 174.086H591.063V177.841H590.101V174.863H584.26V174.086ZM585.859 167.979C587.436 167.979 588.595 168.999 588.595 170.47C588.595 171.931 587.436 172.939 585.859 172.939C584.283 172.939 583.124 171.931 583.124 170.47C583.124 168.999 584.283 167.979 585.859 167.979ZM585.859 168.802C584.816 168.802 584.063 169.474 584.063 170.47C584.063 171.456 584.816 172.139 585.859 172.139C586.903 172.139 587.656 171.456 587.656 170.47C587.656 169.474 586.903 168.802 585.859 168.802ZM599.801 168.478C600.144 168.48 600.486 168.546 600.828 168.673C601.171 168.801 601.483 169.013 601.766 169.309C602.048 169.602 602.275 170.003 602.446 170.511C602.617 171.019 602.703 171.656 602.703 172.422C602.703 173.164 602.632 173.823 602.491 174.399C602.352 174.972 602.151 175.456 601.888 175.849C601.627 176.243 601.309 176.542 600.934 176.746C600.562 176.95 600.141 177.052 599.671 177.052C599.204 177.052 598.787 176.959 598.42 176.774C598.056 176.587 597.757 176.328 597.523 175.996C597.293 175.662 597.144 175.275 597.079 174.835H598.074C598.163 175.218 598.341 175.534 598.607 175.784C598.876 176.031 599.231 176.155 599.671 176.155C600.315 176.155 600.823 175.874 601.195 175.312C601.57 174.749 601.757 173.955 601.757 172.928H601.692C601.54 173.156 601.359 173.353 601.15 173.518C600.941 173.684 600.709 173.812 600.453 173.902C600.198 173.991 599.926 174.036 599.638 174.036C599.16 174.036 598.722 173.918 598.322 173.681C597.926 173.442 597.608 173.115 597.369 172.699C597.132 172.281 597.014 171.803 597.014 171.265C597.014 170.754 597.128 170.287 597.356 169.863C597.587 169.437 597.911 169.097 598.326 168.844C598.745 168.592 599.236 168.469 599.801 168.478ZM599.801 169.374C599.459 169.374 599.151 169.46 598.876 169.631C598.605 169.799 598.389 170.027 598.228 170.315C598.071 170.601 597.992 170.917 597.992 171.265C597.992 171.613 598.068 171.929 598.22 172.214C598.375 172.497 598.586 172.722 598.852 172.891C599.121 173.057 599.427 173.14 599.769 173.14C600.027 173.14 600.267 173.089 600.49 172.989C600.713 172.885 600.907 172.746 601.073 172.569C601.241 172.39 601.373 172.187 601.468 171.962C601.563 171.734 601.611 171.496 601.611 171.249C601.611 170.923 601.532 170.617 601.374 170.332C601.22 170.047 601.005 169.816 600.731 169.639C600.459 169.462 600.149 169.374 599.801 169.374ZM605.465 175.796L605.4 176.237C605.353 176.546 605.283 176.878 605.188 177.231C605.095 177.584 604.999 177.917 604.898 178.229C604.798 178.542 604.715 178.79 604.65 178.975H603.916C603.952 178.801 603.998 178.572 604.055 178.286C604.112 178.001 604.169 177.682 604.226 177.329C604.286 176.978 604.335 176.62 604.373 176.253L604.422 175.796H605.465ZM609.67 177.052C609.192 177.052 608.762 176.957 608.379 176.766C607.995 176.576 607.688 176.315 607.458 175.984C607.227 175.652 607.1 175.275 607.079 174.851H608.057C608.095 175.229 608.266 175.541 608.57 175.788C608.877 176.033 609.244 176.155 609.67 176.155C610.013 176.155 610.317 176.075 610.583 175.915C610.852 175.754 611.063 175.534 611.215 175.254C611.37 174.972 611.447 174.653 611.447 174.297C611.447 173.933 611.367 173.608 611.207 173.323C611.049 173.035 610.832 172.808 610.555 172.642C610.278 172.477 609.961 172.392 609.605 172.39C609.35 172.387 609.088 172.426 608.819 172.508C608.55 172.587 608.328 172.689 608.154 172.813L607.209 172.699L607.714 168.592H612.05V169.488H608.562L608.268 171.95H608.317C608.489 171.814 608.703 171.701 608.961 171.611C609.219 171.522 609.488 171.477 609.768 171.477C610.279 171.477 610.734 171.599 611.133 171.844C611.535 172.085 611.851 172.417 612.079 172.838C612.31 173.259 612.425 173.74 612.425 174.281C612.425 174.813 612.306 175.288 612.066 175.707C611.83 176.122 611.504 176.451 611.088 176.693C610.673 176.932 610.2 177.052 609.67 177.052ZM614.305 176.938L618.038 169.553V169.488H613.734V168.592H619.081V169.537L615.364 176.938H614.305ZM623.096 177.052C622.618 177.052 622.187 176.957 621.804 176.766C621.421 176.576 621.114 176.315 620.883 175.984C620.652 175.652 620.526 175.275 620.504 174.851H621.482C621.52 175.229 621.691 175.541 621.995 175.788C622.302 176.033 622.669 176.155 623.096 176.155C623.438 176.155 623.742 176.075 624.009 175.915C624.278 175.754 624.488 175.534 624.64 175.254C624.795 174.972 624.872 174.653 624.872 174.297C624.872 173.933 624.792 173.608 624.632 173.323C624.474 173.035 624.257 172.808 623.98 172.642C623.703 172.477 623.386 172.392 623.031 172.39C622.775 172.387 622.513 172.426 622.244 172.508C621.975 172.587 621.754 172.689 621.58 172.813L620.634 172.699L621.14 168.592H625.476V169.488H621.987L621.694 171.95H621.743C621.914 171.814 622.129 171.701 622.387 171.611C622.645 171.522 622.914 171.477 623.194 171.477C623.704 171.477 624.159 171.599 624.559 171.844C624.961 172.085 625.276 172.417 625.504 172.838C625.735 173.259 625.851 173.74 625.851 174.281C625.851 174.813 625.731 175.288 625.492 175.707C625.256 176.122 624.93 176.451 624.514 176.693C624.098 176.932 623.626 177.052 623.096 177.052ZM627.604 168.388H632.366V173.196H627.604V168.388ZM631.437 169.157H628.533V172.428H631.437V169.157ZM634.271 167.447H635.224V175.056H634.271V167.447ZM634.925 170.615H636.761V171.406H634.925V170.615ZM628.763 176.823H635.694V177.603H628.763V176.823ZM628.763 174.333H629.715V177.156H628.763V174.333ZM645.909 169.134H648.904V169.915H645.909V169.134ZM645.909 171.2H648.927V171.969H645.909V171.2ZM648.537 167.459H649.49V173.598H648.537V167.459ZM641.434 168.239H646.173V172.852H641.434V168.239ZM645.232 169.008H642.363V172.095H645.232V169.008ZM646.081 173.896C648.216 173.896 649.535 174.619 649.535 175.859C649.535 177.098 648.216 177.81 646.081 177.81C643.935 177.81 642.616 177.098 642.616 175.859C642.616 174.619 643.935 173.896 646.081 173.896ZM646.081 174.654C644.521 174.654 643.568 175.101 643.568 175.859C643.568 176.616 644.521 177.064 646.081 177.064C647.642 177.064 648.594 176.616 648.594 175.859C648.594 175.101 647.642 174.654 646.081 174.654Z" fill="#231815"/>
<path d="M605.034 192.107C604.689 192.102 604.343 192.036 603.997 191.91C603.652 191.784 603.336 191.571 603.051 191.272C602.765 190.97 602.536 190.563 602.363 190.05C602.191 189.534 602.104 188.886 602.104 188.107C602.104 187.361 602.174 186.699 602.314 186.123C602.454 185.544 602.657 185.057 602.923 184.662C603.189 184.264 603.51 183.963 603.886 183.757C604.265 183.551 604.691 183.448 605.166 183.448C605.638 183.448 606.058 183.543 606.426 183.732C606.796 183.919 607.098 184.179 607.331 184.514C607.564 184.849 607.715 185.234 607.784 185.671H606.779C606.686 185.292 606.505 184.978 606.236 184.728C605.967 184.478 605.611 184.354 605.166 184.354C604.513 184.354 603.999 184.638 603.623 185.205C603.25 185.773 603.062 186.571 603.059 187.597H603.125C603.278 187.363 603.461 187.165 603.672 187C603.886 186.833 604.122 186.704 604.38 186.613C604.638 186.522 604.911 186.477 605.199 186.477C605.682 186.477 606.124 186.598 606.524 186.839C606.925 187.078 607.246 187.409 607.487 187.831C607.729 188.251 607.85 188.733 607.85 189.276C607.85 189.797 607.733 190.275 607.5 190.708C607.266 191.139 606.939 191.482 606.516 191.737C606.096 191.989 605.602 192.113 605.034 192.107ZM605.034 191.202C605.38 191.202 605.69 191.116 605.965 190.943C606.242 190.77 606.46 190.538 606.619 190.247C606.781 189.956 606.862 189.633 606.862 189.276C606.862 188.927 606.784 188.61 606.627 188.325C606.474 188.037 606.261 187.808 605.989 187.638C605.72 187.468 605.413 187.383 605.067 187.383C604.807 187.383 604.564 187.435 604.339 187.539C604.114 187.641 603.916 187.781 603.746 187.959C603.579 188.137 603.447 188.342 603.351 188.572C603.255 188.8 603.207 189.04 603.207 189.292C603.207 189.627 603.285 189.94 603.442 190.231C603.601 190.522 603.818 190.756 604.092 190.934C604.369 191.113 604.683 191.202 605.034 191.202ZM609.796 192.058C609.593 192.058 609.419 191.985 609.274 191.84C609.128 191.694 609.055 191.52 609.055 191.317C609.055 191.114 609.128 190.94 609.274 190.795C609.419 190.649 609.593 190.576 609.796 190.576C609.999 190.576 610.174 190.649 610.319 190.795C610.464 190.94 610.537 191.114 610.537 191.317C610.537 191.452 610.503 191.575 610.434 191.688C610.368 191.8 610.279 191.891 610.167 191.959C610.057 192.025 609.933 192.058 609.796 192.058ZM612.516 191.992L616.249 184.608V184.543H611.945V183.646H617.292V184.592L613.575 191.992H612.516ZM623.065 190.427V189.987C623.065 189.683 623.128 189.404 623.253 189.152C623.38 188.896 623.565 188.693 623.807 188.541C624.051 188.386 624.348 188.308 624.695 188.308C625.048 188.308 625.345 188.386 625.584 188.541C625.823 188.693 626.003 188.896 626.126 189.152C626.248 189.404 626.309 189.683 626.309 189.987V190.427C626.309 190.732 626.247 191.011 626.122 191.267C625.999 191.519 625.817 191.723 625.575 191.878C625.336 192.03 625.043 192.106 624.695 192.106C624.342 192.106 624.045 192.03 623.803 191.878C623.561 191.723 623.378 191.519 623.253 191.267C623.128 191.011 623.065 190.732 623.065 190.427ZM623.897 189.987V190.427C623.897 190.68 623.956 190.907 624.076 191.108C624.195 191.306 624.402 191.405 624.695 191.405C624.981 191.405 625.182 191.306 625.298 191.108C625.418 190.907 625.478 190.68 625.478 190.427V189.987C625.478 189.735 625.421 189.509 625.307 189.311C625.192 189.11 624.989 189.009 624.695 189.009C624.41 189.009 624.205 189.11 624.08 189.311C623.958 189.509 623.897 189.735 623.897 189.987ZM618.909 185.651V185.211C618.909 184.907 618.971 184.628 619.096 184.376C619.224 184.12 619.408 183.917 619.65 183.765C619.895 183.61 620.191 183.532 620.539 183.532C620.892 183.532 621.188 183.61 621.427 183.765C621.666 183.917 621.847 184.12 621.969 184.376C622.091 184.628 622.152 184.907 622.152 185.211V185.651C622.152 185.956 622.09 186.235 621.965 186.491C621.843 186.743 621.661 186.947 621.419 187.102C621.18 187.254 620.886 187.33 620.539 187.33C620.185 187.33 619.888 187.254 619.646 187.102C619.404 186.947 619.221 186.743 619.096 186.491C618.971 186.235 618.909 185.956 618.909 185.651ZM619.74 185.211V185.651C619.74 185.904 619.8 186.131 619.919 186.332C620.039 186.53 620.245 186.629 620.539 186.629C620.824 186.629 621.025 186.53 621.142 186.332C621.261 186.131 621.321 185.904 621.321 185.651V185.211C621.321 184.959 621.264 184.733 621.15 184.535C621.036 184.334 620.832 184.233 620.539 184.233C620.253 184.233 620.048 184.334 619.923 184.535C619.801 184.733 619.74 184.959 619.74 185.211ZM619.218 191.992L624.956 183.646H625.885L620.147 191.992H619.218Z" fill="#231815"/>
<path d="M420.582 168.952H422.402V169.763H420.582V168.952ZM420.582 171.201H422.402V172H420.582V171.201ZM419.91 167.364H420.872V173.588H419.91V167.364ZM414.069 174.086H420.872V177.841H419.91V174.863H414.069V174.086ZM415.668 167.979C417.244 167.979 418.403 168.999 418.403 170.47C418.403 171.931 417.244 172.939 415.668 172.939C414.092 172.939 412.933 171.931 412.933 170.47C412.933 168.999 414.092 167.979 415.668 167.979ZM415.668 168.802C414.625 168.802 413.872 169.474 413.872 170.47C413.872 171.456 414.625 172.139 415.668 172.139C416.711 172.139 417.464 171.456 417.464 170.47C417.464 169.474 416.711 168.802 415.668 168.802ZM429.925 168.509V176.938H428.904V169.579H428.855L426.797 170.945V169.908L428.904 168.509H429.925ZM437.202 170.065H440.053V170.853H437.202V170.065ZM433.679 174.133H440.667V177.853H439.705V174.898H433.679V174.133ZM439.705 167.364H440.667V173.542H439.705V167.364ZM434.907 167.944C436.449 167.944 437.607 168.987 437.607 170.47C437.607 171.954 436.449 172.985 434.907 172.985C433.354 172.985 432.207 171.954 432.207 170.47C432.207 168.987 433.354 167.944 434.907 167.944ZM434.907 168.767C433.887 168.767 433.134 169.474 433.134 170.47C433.134 171.467 433.887 172.163 434.907 172.163C435.915 172.163 436.68 171.467 436.68 170.47C436.68 169.474 435.915 168.767 434.907 168.767ZM449.234 168.509V176.938H448.213V169.579H448.163L446.106 170.945V169.908L448.213 168.509H449.234ZM454.357 177.053C453.792 177.053 453.293 176.953 452.859 176.752C452.429 176.549 452.093 176.271 451.851 175.917C451.61 175.56 451.49 175.154 451.493 174.699C451.49 174.342 451.56 174.013 451.703 173.711C451.846 173.406 452.04 173.152 452.287 172.949C452.537 172.744 452.816 172.613 453.123 172.558V172.509C452.719 172.405 452.398 172.178 452.16 171.83C451.921 171.479 451.803 171.08 451.806 170.632C451.803 170.204 451.911 169.822 452.131 169.484C452.35 169.147 452.652 168.88 453.036 168.686C453.423 168.491 453.864 168.393 454.357 168.393C454.846 168.393 455.282 168.491 455.666 168.686C456.05 168.88 456.352 169.147 456.572 169.484C456.794 169.822 456.906 170.204 456.909 170.632C456.906 171.08 456.784 171.479 456.543 171.83C456.304 172.178 455.987 172.405 455.592 172.509V172.558C455.897 172.613 456.171 172.744 456.415 172.949C456.66 173.152 456.854 173.406 457 173.711C457.145 174.013 457.219 174.342 457.222 174.699C457.219 175.154 457.096 175.56 456.852 175.917C456.61 176.271 456.274 176.549 455.843 176.752C455.415 176.953 454.92 177.053 454.357 177.053ZM454.357 176.147C454.739 176.147 455.068 176.086 455.345 175.962C455.622 175.839 455.836 175.664 455.987 175.439C456.138 175.214 456.215 174.951 456.218 174.649C456.215 174.331 456.133 174.05 455.971 173.805C455.809 173.561 455.588 173.369 455.308 173.229C455.031 173.089 454.714 173.019 454.357 173.019C453.998 173.019 453.677 173.089 453.394 173.229C453.115 173.369 452.894 173.561 452.732 173.805C452.573 174.05 452.494 174.331 452.497 174.649C452.494 174.951 452.567 175.214 452.715 175.439C452.866 175.664 453.082 175.839 453.362 175.962C453.641 176.086 453.973 176.147 454.357 176.147ZM454.357 172.147C454.659 172.147 454.927 172.087 455.16 171.966C455.396 171.845 455.581 171.676 455.716 171.46C455.85 171.243 455.919 170.989 455.921 170.698C455.919 170.413 455.851 170.165 455.72 169.953C455.588 169.739 455.406 169.575 455.172 169.459C454.939 169.341 454.668 169.282 454.357 169.282C454.042 169.282 453.766 169.341 453.53 169.459C453.294 169.575 453.112 169.739 452.983 169.953C452.854 170.165 452.791 170.413 452.794 170.698C452.791 170.989 452.855 171.243 452.987 171.46C453.121 171.676 453.307 171.845 453.543 171.966C453.779 172.087 454.05 172.147 454.357 172.147ZM461.611 177.052C461.073 177.052 460.593 176.959 460.172 176.774C459.754 176.59 459.421 176.333 459.174 176.004C458.929 175.673 458.796 175.288 458.774 174.851H459.801C459.823 175.12 459.915 175.352 460.078 175.548C460.241 175.741 460.455 175.89 460.718 175.996C460.982 176.102 461.274 176.155 461.594 176.155C461.953 176.155 462.271 176.093 462.548 175.968C462.825 175.843 463.042 175.669 463.2 175.446C463.358 175.223 463.436 174.965 463.436 174.672C463.436 174.365 463.36 174.094 463.208 173.861C463.056 173.624 462.833 173.44 462.54 173.307C462.246 173.173 461.888 173.107 461.464 173.107H460.796V172.21H461.464C461.795 172.21 462.086 172.151 462.336 172.031C462.589 171.912 462.786 171.743 462.927 171.526C463.071 171.308 463.143 171.053 463.143 170.76C463.143 170.477 463.08 170.231 462.955 170.022C462.831 169.813 462.654 169.65 462.426 169.533C462.2 169.416 461.934 169.358 461.627 169.358C461.339 169.358 461.067 169.411 460.812 169.517C460.559 169.62 460.353 169.771 460.193 169.969C460.032 170.165 459.945 170.401 459.932 170.678H458.954C458.97 170.241 459.102 169.858 459.349 169.529C459.596 169.198 459.92 168.939 460.319 168.755C460.721 168.57 461.162 168.478 461.643 168.478C462.159 168.478 462.602 168.582 462.972 168.791C463.341 168.998 463.625 169.271 463.823 169.61C464.022 169.95 464.121 170.317 464.121 170.711C464.121 171.181 463.997 171.581 463.75 171.913C463.506 172.244 463.173 172.474 462.752 172.602V172.667C463.279 172.754 463.69 172.978 463.986 173.339C464.283 173.698 464.431 174.142 464.431 174.672C464.431 175.125 464.307 175.533 464.06 175.894C463.815 176.253 463.481 176.535 463.057 176.742C462.634 176.948 462.151 177.052 461.611 177.052ZM466.232 168.388H470.994V173.196H466.232V168.388ZM470.065 169.157H467.161V172.428H470.065V169.157ZM472.899 167.447H473.852V175.056H472.899V167.447ZM473.553 170.615H475.389V171.406H473.553V170.615ZM467.391 176.823H474.322V177.603H467.391V176.823ZM467.391 174.333H468.343V177.156H467.391V174.333ZM484.537 169.134H487.532V169.915H484.537V169.134ZM484.537 171.2H487.555V171.969H484.537V171.2ZM487.165 167.459H488.118V173.598H487.165V167.459ZM480.062 168.239H484.801V172.852H480.062V168.239ZM483.86 169.008H480.991V172.095H483.86V169.008ZM484.709 173.896C486.844 173.896 488.163 174.619 488.163 175.859C488.163 177.098 486.844 177.81 484.709 177.81C482.563 177.81 481.244 177.098 481.244 175.859C481.244 174.619 482.563 173.896 484.709 173.896ZM484.709 174.654C483.149 174.654 482.196 175.101 482.196 175.859C482.196 176.616 483.149 177.064 484.709 177.064C486.27 177.064 487.222 176.616 487.222 175.859C487.222 175.101 486.27 174.654 484.709 174.654Z" fill="#231815"/>
<path d="M437.241 191.992L441.011 184.535V184.469H436.665V183.563H442.065V184.518L438.311 191.992H437.241ZM444.308 192.057C444.107 192.057 443.934 191.985 443.79 191.841C443.646 191.697 443.574 191.525 443.574 191.324C443.574 191.123 443.646 190.95 443.79 190.806C443.934 190.662 444.107 190.59 444.308 190.59C444.509 190.59 444.681 190.662 444.825 190.806C444.969 190.95 445.041 191.123 445.041 191.324C445.041 191.457 445.007 191.579 444.939 191.691C444.874 191.802 444.786 191.892 444.674 191.96C444.566 192.025 444.443 192.057 444.308 192.057ZM446.751 191.992V191.259L449.505 188.243C449.829 187.89 450.095 187.583 450.304 187.322C450.513 187.059 450.668 186.811 450.769 186.58C450.872 186.347 450.924 186.102 450.924 185.847C450.924 185.554 450.853 185.3 450.712 185.085C450.573 184.87 450.383 184.705 450.141 184.588C449.899 184.471 449.628 184.413 449.326 184.413C449.006 184.413 448.726 184.479 448.487 184.612C448.25 184.743 448.067 184.926 447.937 185.162C447.809 185.399 447.745 185.676 447.745 185.994H446.783C446.783 185.505 446.896 185.075 447.122 184.706C447.347 184.336 447.654 184.048 448.042 183.842C448.434 183.636 448.872 183.532 449.359 183.532C449.848 183.532 450.281 183.636 450.659 183.842C451.036 184.048 451.332 184.327 451.547 184.677C451.762 185.028 451.869 185.418 451.869 185.847C451.869 186.154 451.813 186.454 451.702 186.748C451.593 187.038 451.403 187.363 451.131 187.721C450.862 188.077 450.489 188.512 450.011 189.026L448.136 191.03V191.096H452.016V191.992H446.751ZM457.953 190.427V189.987C457.953 189.683 458.016 189.404 458.141 189.152C458.268 188.896 458.453 188.693 458.695 188.541C458.939 188.386 459.235 188.308 459.583 188.308C459.936 188.308 460.232 188.386 460.472 188.541C460.711 188.693 460.891 188.896 461.014 189.152C461.136 189.404 461.197 189.683 461.197 189.987V190.427C461.197 190.732 461.134 191.011 461.009 191.267C460.887 191.519 460.705 191.723 460.463 191.878C460.224 192.03 459.931 192.106 459.583 192.106C459.23 192.106 458.933 192.03 458.691 191.878C458.449 191.723 458.266 191.519 458.141 191.267C458.016 191.011 457.953 190.732 457.953 190.427ZM458.784 189.987V190.427C458.784 190.68 458.844 190.907 458.964 191.108C459.083 191.306 459.29 191.405 459.583 191.405C459.868 191.405 460.069 191.306 460.186 191.108C460.306 190.907 460.366 190.68 460.366 190.427V189.987C460.366 189.735 460.309 189.509 460.194 189.311C460.08 189.11 459.877 189.009 459.583 189.009C459.298 189.009 459.093 189.11 458.968 189.311C458.846 189.509 458.784 189.735 458.784 189.987ZM453.797 185.651V185.211C453.797 184.907 453.859 184.628 453.984 184.376C454.112 184.12 454.296 183.917 454.538 183.765C454.783 183.61 455.079 183.532 455.427 183.532C455.78 183.532 456.076 183.61 456.315 183.765C456.554 183.917 456.735 184.12 456.857 184.376C456.979 184.628 457.04 184.907 457.04 185.211V185.651C457.04 185.956 456.978 186.235 456.853 186.491C456.731 186.743 456.549 186.947 456.307 187.102C456.068 187.254 455.774 187.33 455.427 187.33C455.073 187.33 454.776 187.254 454.534 187.102C454.292 186.947 454.109 186.743 453.984 186.491C453.859 186.235 453.797 185.956 453.797 185.651ZM454.628 185.211V185.651C454.628 185.904 454.688 186.131 454.807 186.332C454.927 186.53 455.133 186.629 455.427 186.629C455.712 186.629 455.913 186.53 456.03 186.332C456.149 186.131 456.209 185.904 456.209 185.651V185.211C456.209 184.959 456.152 184.733 456.038 184.535C455.924 184.334 455.72 184.233 455.427 184.233C455.141 184.233 454.936 184.334 454.811 184.535C454.689 184.733 454.628 184.959 454.628 185.211ZM454.106 191.992L459.844 183.646H460.773L455.035 191.992H454.106Z" fill="#231815"/>
<path d="M428.711 85.4609H468.055V151.386H468.022C468.039 151.52 468.055 151.654 468.055 151.805C468.055 156.823 459.24 160.905 448.383 160.905C437.527 160.905 428.711 156.823 428.711 151.805C428.711 151.654 428.711 151.52 428.728 151.386H428.711V85.4609Z" fill="#B098C7"/>
<path d="M448.383 76.25C459.24 76.25 468.055 80.3149 468.055 85.3501C468.055 90.3853 459.24 94.4502 448.383 94.4502C437.527 94.4502 428.711 90.3685 428.711 85.3501C428.711 80.3317 437.527 76.25 448.383 76.25Z" fill="#EBE6F3"/>
<path d="M448.382 82.1836C450.407 82.1836 452.063 82.9531 452.063 83.8899C452.063 84.8267 450.407 85.5961 448.382 85.5961C446.358 85.5961 444.686 84.8267 444.686 83.8899C444.686 82.9531 446.342 82.1836 448.382 82.1836Z" fill="#C0ACD3"/>
<path d="M446.058 71.7765C437.493 70.639 430.869 63.2954 430.869 54.4128C430.869 44.7439 438.715 36.8984 448.383 36.8984C458.052 36.8984 465.898 44.7439 465.898 54.4128C465.898 63.3121 459.273 70.6557 450.709 71.7765L448.4 83.5865L446.075 71.7765H446.058Z" fill="#B098C7"/>
<path d="M448.384 69.2816C440.17 69.2816 433.529 62.6239 433.529 54.4104C433.529 46.1969 440.17 39.5391 448.384 39.5391C456.597 39.5391 463.238 46.2136 463.238 54.4104C463.238 62.6071 456.581 69.2816 448.384 69.2816Z" fill="#EBE6F3"/>
<path d="M510.26 92.5859H549.604V151.402H549.571C549.588 151.536 549.604 151.67 549.604 151.82C549.604 156.839 540.789 160.92 529.932 160.92C519.075 160.92 510.26 156.839 510.26 151.82C510.26 151.67 510.26 151.536 510.277 151.402H510.26V92.5859Z" fill="#F39E6A"/>
<path d="M529.932 83.4492C540.789 83.4492 549.604 87.5142 549.604 92.5493C549.604 97.5845 540.789 101.649 529.932 101.649C519.075 101.649 510.26 97.5677 510.26 92.5493C510.26 87.5309 519.075 83.4492 529.932 83.4492Z" fill="#FCE6D6"/>
<path d="M529.931 89.293C531.955 89.293 533.611 90.0625 533.611 90.9993C533.611 91.936 531.955 92.7055 529.931 92.7055C527.907 92.7055 526.234 91.936 526.234 90.9993C526.234 90.0625 527.89 89.293 529.931 89.293Z" fill="#F6B387"/>
<path d="M527.607 78.9016C519.042 77.764 512.418 70.4204 512.418 61.5378C512.418 51.8689 520.263 44.0234 529.932 44.0234C539.601 44.0234 547.447 51.8689 547.447 61.5378C547.447 70.4371 540.822 77.7808 532.257 78.9016L529.949 90.7116L527.624 78.9016H527.607Z" fill="#F39E6A"/>
<path d="M529.855 76.7426C521.641 76.7426 515 70.0848 515 61.8713C515 53.6578 521.641 47 529.855 47C538.068 47 544.709 53.6745 544.709 61.8713C544.709 70.0681 538.051 76.7426 529.855 76.7426Z" fill="#FCE6D6"/>
<path d="M594.203 102.07H633.548V151.401H633.514C633.531 151.535 633.548 151.669 633.548 151.82C633.548 156.838 624.732 160.92 613.875 160.92C603.019 160.92 594.203 156.838 594.203 151.82C594.203 151.669 594.203 151.535 594.22 151.401H594.203V102.07Z" fill="#EF857C"/>
<path d="M613.875 92.9375C624.732 92.9375 633.548 97.0024 633.548 102.038C633.548 107.073 624.732 111.138 613.875 111.138C603.019 111.138 594.203 107.056 594.203 102.038C594.203 97.0192 603.019 92.9375 613.875 92.9375Z" fill="#FCE4DF"/>
<path d="M613.875 98.7812C615.899 98.7812 617.555 99.5507 617.555 100.487C617.555 101.424 615.899 102.194 613.875 102.194C611.85 102.194 610.178 101.424 610.178 100.487C610.178 99.5507 611.834 98.7812 613.875 98.7812Z" fill="#F2A095"/>
<path d="M611.55 88.391C602.986 87.2534 596.361 79.9098 596.361 71.0272C596.361 61.3583 604.207 53.4961 613.876 53.4961C623.544 53.4961 631.39 61.3416 631.39 71.0272C631.39 79.9265 624.766 87.2702 616.201 88.391L613.892 100.201L611.567 88.391H611.55Z" fill="#EF857C"/>
<path d="M613.874 85.8793C605.66 85.8793 599.02 79.2215 599.02 71.008C599.02 62.7945 605.66 56.1367 613.874 56.1367C622.087 56.1367 628.729 62.8112 628.729 71.008C628.729 79.2048 622.071 85.8793 613.874 85.8793Z" fill="#FCE4DF"/>
<defs>
<filter id="filter0_f_294_134" x="468" y="68" width="269" height="157" filterUnits="userSpaceOnUse" color-interpolation-filters="sRGB">
<feFlood flood-opacity="0" result="BackgroundImageFix"/>
<feBlend mode="normal" in="SourceGraphic" in2="BackgroundImageFix" result="shape"/>
<feGaussianBlur stdDeviation="1.5" result="effect1_foregroundBlur_294_134"/>
</filter>
<filter id="filter1_f_294_134" x="17" y="0" width="359.402" height="208" filterUnits="userSpaceOnUse" color-interpolation-filters="sRGB">
<feFlood flood-opacity="0" result="BackgroundImageFix"/>
<feBlend mode="normal" in="SourceGraphic" in2="BackgroundImageFix" result="shape"/>
<feGaussianBlur stdDeviation="1.5" result="effect1_foregroundBlur_294_134"/>
</filter>
</defs>
</svg>
