<svg width="850" height="144" viewBox="0 0 850 144" fill="none" xmlns="http://www.w3.org/2000/svg">
<path d="M114.36 136.153V126.469C84.8502 126.032 60.9727 101.884 60.9727 72.25" stroke="#DEEEE3" stroke-width="1.56471" stroke-miterlimit="10"/>
<path d="M114.36 142.799C116.196 142.799 117.685 141.31 117.685 139.473C117.685 137.637 116.196 136.148 114.36 136.148C112.524 136.148 111.035 137.637 111.035 139.473C111.035 141.31 112.524 142.799 114.36 142.799Z" stroke="#DEEEE3" stroke-width="1.56471" stroke-miterlimit="10"/>
<path d="M328.697 8.375V18.0591C358.207 18.4955 382.084 42.6435 382.084 72.2778" stroke="#BADCC5" stroke-width="1.56471" stroke-miterlimit="10"/>
<path d="M328.696 1.71875C330.525 1.71875 332.021 3.21496 332.021 5.04373C332.021 6.87249 330.525 8.36883 328.696 8.36883C326.867 8.36883 325.371 6.87249 325.371 5.04373C325.371 3.21496 326.867 1.71875 328.696 1.71875Z" stroke="#BADCC5" stroke-width="1.56471" stroke-miterlimit="10"/>
<path d="M537.569 136.153V126.469C508.059 126.032 484.182 101.884 484.182 72.25" stroke="#7FC39C" stroke-width="1.56471" stroke-miterlimit="10"/>
<path d="M537.569 142.799C535.74 142.799 534.244 141.302 534.244 139.473C534.244 137.645 535.74 136.148 537.569 136.148C539.398 136.148 540.894 137.645 540.894 139.473C540.894 141.302 539.398 142.799 537.569 142.799Z" stroke="#7FC39C" stroke-width="1.56471" stroke-miterlimit="10"/>
<path d="M218.701 99.9347H0L18.3498 72.2746L0 44.5938H218.701L237.03 72.2746L218.701 99.9347Z" fill="#DEEEE3"/>
<path d="M117.352 116.259C141.604 116.259 161.325 96.538 161.325 72.286C161.325 48.0341 141.604 28.3125 117.352 28.3125C93.1002 28.3125 73.3789 48.0341 73.3789 72.286C73.3789 96.538 93.1002 116.259 117.352 116.259Z" fill="white"/>
<path d="M117.352 116.259C141.604 116.259 161.325 96.538 161.325 72.286C161.325 48.0341 141.604 28.3125 117.352 28.3125C93.1002 28.3125 73.3789 48.0341 73.3789 72.286C73.3789 96.538 93.1002 116.259 117.352 116.259Z" stroke="#A5D3B5" stroke-width="5.86766" stroke-miterlimit="10"/>
<path d="M92.4089 79.032L90.8889 79.016V69.08L88.9369 70.248L88.2489 69L90.9049 67.432H92.4089V79.032ZM98.782 68.616C98.3127 68.616 97.8914 68.7227 97.518 68.936C97.1447 69.1493 96.8514 69.448 96.638 69.832C96.4354 70.216 96.334 70.6533 96.334 71.144C96.334 71.6347 96.4354 72.072 96.638 72.456C96.8514 72.84 97.1447 73.1387 97.518 73.352C97.8914 73.5653 98.318 73.672 98.798 73.672C99.2567 73.672 99.6727 73.5653 100.046 73.352C100.419 73.1387 100.707 72.84 100.91 72.456C101.113 72.0613 101.214 71.624 101.214 71.144C101.214 70.664 101.107 70.232 100.894 69.848C100.691 69.4533 100.403 69.1493 100.03 68.936C99.6674 68.7227 99.2514 68.616 98.782 68.616ZM102.734 71.144C102.734 71.8587 102.526 72.5893 102.11 73.336L98.878 79.048H97.134L99.486 74.92C99.1874 74.9733 98.942 75 98.75 75C97.9927 75 97.3154 74.8347 96.718 74.504C96.1207 74.1733 95.6514 73.72 95.31 73.144C94.9794 72.5573 94.814 71.8907 94.814 71.144C94.814 70.3973 94.9794 69.7307 95.31 69.144C95.6514 68.5573 96.1207 68.104 96.718 67.784C97.3154 67.4533 97.998 67.288 98.766 67.288C99.534 67.288 100.217 67.4533 100.814 67.784C101.422 68.104 101.891 68.5573 102.222 69.144C102.563 69.7307 102.734 70.3973 102.734 71.144ZM105.449 79.048L110.041 68.712H111.689L107.097 79.048H105.449ZM111.689 68.712L104.601 68.728V67.384H111.529L111.689 68.712ZM117.602 77.8C118.146 77.8 118.626 77.608 119.042 77.224C119.458 76.8293 119.783 76.2907 120.018 75.608C120.252 74.9147 120.37 74.12 120.37 73.224C120.37 72.328 120.252 71.5333 120.018 70.84C119.783 70.1467 119.452 69.608 119.026 69.224C118.61 68.84 118.135 68.648 117.602 68.648C117.068 68.648 116.588 68.84 116.162 69.224C115.735 69.608 115.404 70.1467 115.17 70.84C114.946 71.5333 114.834 72.328 114.834 73.224C114.834 74.12 114.946 74.9147 115.17 75.608C115.404 76.2907 115.73 76.8293 116.146 77.224C116.572 77.608 117.058 77.8 117.602 77.8ZM117.602 79.144C116.78 79.144 116.039 78.8933 115.378 78.392C114.727 77.8907 114.22 77.192 113.858 76.296C113.495 75.3893 113.314 74.3653 113.314 73.224C113.314 72.0827 113.495 71.064 113.858 70.168C114.22 69.2613 114.727 68.5573 115.378 68.056C116.028 67.5547 116.77 67.304 117.602 67.304C118.434 67.304 119.17 67.5547 119.81 68.056C120.46 68.5573 120.967 69.2613 121.33 70.168C121.703 71.064 121.89 72.0827 121.89 73.224C121.89 74.3653 121.703 75.384 121.33 76.28C120.967 77.176 120.46 77.88 119.81 78.392C119.17 78.8933 118.434 79.144 117.602 79.144ZM135.005 66.088V76.552H133.437V66.088H135.005ZM133.981 67.832V69.08H129.629V67.832H133.981ZM135.357 78.68V79.96H125.837V78.68H135.357ZM127.389 75.64V79.288H125.837V75.64H127.389ZM125.645 67.064V73.736H124.077V67.064H125.645ZM125.165 73.256C126.285 73.256 127.32 73.224 128.269 73.16C129.229 73.0853 130.211 72.9573 131.213 72.776L131.357 74.056C130.323 74.248 129.315 74.3813 128.333 74.456C127.363 74.52 126.307 74.552 125.165 74.552H124.077V73.256H125.165ZM133.981 70.52V71.768H129.629V70.52H133.981ZM149.326 66.088V80.248H147.822V66.088H149.326ZM148.206 71.672V72.968H145.614V71.672H148.206ZM146.094 66.376V79.528H144.638V66.376H146.094ZM138.67 75.56C139.736 75.56 140.648 75.5333 141.406 75.48C142.163 75.4267 142.926 75.3253 143.694 75.176L143.854 76.472C143.043 76.632 142.248 76.7387 141.47 76.792C140.702 76.8453 139.768 76.872 138.67 76.872H137.742V75.56H138.67ZM142.958 67.784V69.064H139.278V76.168H137.742V67.784H142.958Z" fill="#69B38A"/>
<path d="M639.749 99.9347H435.781L454.131 72.2746L435.781 44.5938H639.749L658.099 72.2746L639.749 99.9347Z" fill="#7FC39C"/>
<path d="M538.399 116.259C514.147 116.259 494.426 96.538 494.426 72.286C494.426 48.0341 514.147 28.3125 538.399 28.3125C562.65 28.3125 582.372 48.0341 582.372 72.286C582.372 96.538 562.65 116.259 538.399 116.259Z" fill="white"/>
<path d="M538.399 116.259C514.147 116.259 494.426 96.538 494.426 72.286C494.426 48.0341 514.147 28.3125 538.399 28.3125C562.65 28.3125 582.372 48.0341 582.372 72.286C582.372 96.538 562.65 116.259 538.399 116.259Z" stroke="#A5D3B5" stroke-width="5.86766" stroke-miterlimit="10"/>
<path d="M508.555 77.704C508.821 77.448 509.072 77.2187 509.307 77.016C509.541 76.8027 509.797 76.568 510.075 76.312C510.971 75.5013 511.685 74.824 512.219 74.28C512.763 73.736 513.221 73.1813 513.595 72.616C513.968 72.04 514.155 71.5067 514.155 71.016C514.155 70.5573 514.064 70.152 513.883 69.8C513.712 69.448 513.467 69.1707 513.147 68.968C512.827 68.7653 512.459 68.664 512.043 68.664C511.573 68.664 511.125 68.824 510.699 69.144C510.283 69.4533 509.963 69.848 509.739 70.328L508.395 69.752C508.704 69.0267 509.2 68.4347 509.883 67.976C510.576 67.5173 511.296 67.288 512.043 67.288C512.757 67.288 513.387 67.448 513.931 67.768C514.475 68.0773 514.901 68.5147 515.211 69.08C515.52 69.6453 515.675 70.2907 515.675 71.016C515.675 71.72 515.456 72.4347 515.019 73.16C514.581 73.8747 514.059 74.5413 513.451 75.16C512.843 75.768 512.053 76.4987 511.083 77.352C510.528 77.832 510.027 78.28 509.579 78.696L508.555 77.704ZM508.555 77.704H515.867V79.032H508.715L508.555 77.704ZM521.776 77.8C522.32 77.8 522.8 77.608 523.216 77.224C523.632 76.8293 523.957 76.2907 524.192 75.608C524.426 74.9147 524.544 74.12 524.544 73.224C524.544 72.328 524.426 71.5333 524.192 70.84C523.957 70.1467 523.626 69.608 523.2 69.224C522.784 68.84 522.309 68.648 521.776 68.648C521.242 68.648 520.762 68.84 520.336 69.224C519.909 69.608 519.578 70.1467 519.344 70.84C519.12 71.5333 519.008 72.328 519.008 73.224C519.008 74.12 519.12 74.9147 519.344 75.608C519.578 76.2907 519.904 76.8293 520.32 77.224C520.746 77.608 521.232 77.8 521.776 77.8ZM521.776 79.144C520.954 79.144 520.213 78.8933 519.552 78.392C518.901 77.8907 518.394 77.192 518.032 76.296C517.669 75.3893 517.488 74.3653 517.488 73.224C517.488 72.0827 517.669 71.064 518.032 70.168C518.394 69.2613 518.901 68.5573 519.552 68.056C520.202 67.5547 520.944 67.304 521.776 67.304C522.608 67.304 523.344 67.5547 523.984 68.056C524.634 68.5573 525.141 69.2613 525.503 70.168C525.877 71.064 526.064 72.0827 526.064 73.224C526.064 74.3653 525.877 75.384 525.503 76.28C525.141 77.176 524.634 77.88 523.984 78.392C523.344 78.8933 522.608 79.144 521.776 79.144ZM531.739 79.032L530.219 79.016V69.08L528.267 70.248L527.579 69L530.235 67.432H531.739V79.032ZM538.416 77.8C538.96 77.8 539.44 77.608 539.856 77.224C540.272 76.8293 540.597 76.2907 540.832 75.608C541.067 74.9147 541.184 74.12 541.184 73.224C541.184 72.328 541.067 71.5333 540.832 70.84C540.597 70.1467 540.267 69.608 539.84 69.224C539.424 68.84 538.949 68.648 538.416 68.648C537.883 68.648 537.403 68.84 536.976 69.224C536.549 69.608 536.219 70.1467 535.984 70.84C535.76 71.5333 535.648 72.328 535.648 73.224C535.648 74.12 535.76 74.9147 535.984 75.608C536.219 76.2907 536.544 76.8293 536.96 77.224C537.387 77.608 537.872 77.8 538.416 77.8ZM538.416 79.144C537.595 79.144 536.853 78.8933 536.192 78.392C535.541 77.8907 535.035 77.192 534.672 76.296C534.309 75.3893 534.128 74.3653 534.128 73.224C534.128 72.0827 534.309 71.064 534.672 70.168C535.035 69.2613 535.541 68.5573 536.192 68.056C536.843 67.5547 537.584 67.304 538.416 67.304C539.248 67.304 539.984 67.5547 540.624 68.056C541.275 68.5573 541.781 69.2613 542.144 70.168C542.517 71.064 542.704 72.0827 542.704 73.224C542.704 74.3653 542.517 75.384 542.144 76.28C541.781 77.176 541.275 77.88 540.624 78.392C539.984 78.8933 539.248 79.144 538.416 79.144ZM555.82 66.088V76.552H554.252V66.088H555.82ZM554.796 67.832V69.08H550.444V67.832H554.796ZM556.172 78.68V79.96H546.652V78.68H556.172ZM548.204 75.64V79.288H546.652V75.64H548.204ZM546.46 67.064V73.736H544.892V67.064H546.46ZM545.98 73.256C547.1 73.256 548.134 73.224 549.084 73.16C550.044 73.0853 551.025 72.9573 552.028 72.776L552.172 74.056C551.137 74.248 550.129 74.3813 549.148 74.456C548.177 74.52 547.121 74.552 545.98 74.552H544.892V73.256H545.98ZM554.796 70.52V71.768H550.444V70.52H554.796ZM570.14 66.088V80.248H568.636V66.088H570.14ZM569.02 71.672V72.968H566.428V71.672H569.02ZM566.908 66.376V79.528H565.452V66.376H566.908ZM559.484 75.56C560.551 75.56 561.463 75.5333 562.22 75.48C562.977 75.4267 563.74 75.3253 564.508 75.176L564.668 76.472C563.857 76.632 563.063 76.7387 562.284 76.792C561.516 76.8453 560.583 76.872 559.484 76.872H558.556V75.56H559.484ZM563.772 67.784V69.064H560.092V76.168H558.556V67.784H563.772Z" fill="#69B38A"/>
<path d="M429.236 99.9347H225.248L243.598 72.2746L225.248 44.5938H429.236L447.565 72.2746L429.236 99.9347Z" fill="#BADCC5"/>
<path d="M327.866 28.3125C352.117 28.3125 371.839 48.0341 371.839 72.286C371.839 96.538 352.117 116.259 327.866 116.259C303.614 116.259 283.893 96.538 283.893 72.286C283.893 48.0341 303.614 28.3125 327.866 28.3125Z" fill="white"/>
<path d="M327.866 28.3125C352.117 28.3125 371.839 48.0341 371.839 72.286C371.839 96.538 352.117 116.259 327.866 116.259C303.614 116.259 283.893 96.538 283.893 72.286C283.893 48.0341 303.614 28.3125 327.866 28.3125Z" stroke="#A5D3B5" stroke-width="5.86766" stroke-miterlimit="10"/>
<path d="M302.969 79.032L301.449 79.016V69.08L299.497 70.248L298.809 69L301.465 67.432H302.969V79.032ZM309.343 68.616C308.873 68.616 308.452 68.7227 308.079 68.936C307.705 69.1493 307.412 69.448 307.199 69.832C306.996 70.216 306.895 70.6533 306.895 71.144C306.895 71.6347 306.996 72.072 307.199 72.456C307.412 72.84 307.705 73.1387 308.079 73.352C308.452 73.5653 308.879 73.672 309.359 73.672C309.817 73.672 310.233 73.5653 310.607 73.352C310.98 73.1387 311.268 72.84 311.471 72.456C311.673 72.0613 311.775 71.624 311.775 71.144C311.775 70.664 311.668 70.232 311.455 69.848C311.252 69.4533 310.964 69.1493 310.591 68.936C310.228 68.7227 309.812 68.616 309.343 68.616ZM313.295 71.144C313.295 71.8587 313.087 72.5893 312.671 73.336L309.439 79.048H307.695L310.047 74.92C309.748 74.9733 309.503 75 309.311 75C308.553 75 307.876 74.8347 307.279 74.504C306.681 74.1733 306.212 73.72 305.871 73.144C305.54 72.5573 305.375 71.8907 305.375 71.144C305.375 70.3973 305.54 69.7307 305.871 69.144C306.212 68.5573 306.681 68.104 307.279 67.784C307.876 67.4533 308.559 67.288 309.327 67.288C310.095 67.288 310.777 67.4533 311.375 67.784C311.983 68.104 312.452 68.5573 312.783 69.144C313.124 69.7307 313.295 70.3973 313.295 71.144ZM318.889 68.616C318.42 68.616 317.999 68.7227 317.625 68.936C317.252 69.1493 316.959 69.448 316.745 69.832C316.543 70.216 316.441 70.6533 316.441 71.144C316.441 71.6347 316.543 72.072 316.745 72.456C316.959 72.84 317.252 73.1387 317.625 73.352C317.999 73.5653 318.425 73.672 318.905 73.672C319.364 73.672 319.78 73.5653 320.153 73.352C320.527 73.1387 320.815 72.84 321.017 72.456C321.22 72.0613 321.321 71.624 321.321 71.144C321.321 70.664 321.215 70.232 321.001 69.848C320.799 69.4533 320.511 69.1493 320.137 68.936C319.775 68.7227 319.359 68.616 318.889 68.616ZM322.841 71.144C322.841 71.8587 322.633 72.5893 322.217 73.336L318.985 79.048H317.241L319.593 74.92C319.295 74.9733 319.049 75 318.857 75C318.1 75 317.423 74.8347 316.825 74.504C316.228 74.1733 315.759 73.72 315.417 73.144C315.087 72.5573 314.921 71.8907 314.921 71.144C314.921 70.3973 315.087 69.7307 315.417 69.144C315.759 68.5573 316.228 68.104 316.825 67.784C317.423 67.4533 318.105 67.288 318.873 67.288C319.641 67.288 320.324 67.4533 320.921 67.784C321.529 68.104 321.999 68.5573 322.329 69.144C322.671 69.7307 322.841 70.3973 322.841 71.144ZM328.74 77.8C329.284 77.8 329.764 77.608 330.18 77.224C330.596 76.8293 330.922 76.2907 331.156 75.608C331.391 74.9147 331.508 74.12 331.508 73.224C331.508 72.328 331.391 71.5333 331.156 70.84C330.922 70.1467 330.591 69.608 330.164 69.224C329.748 68.84 329.274 68.648 328.74 68.648C328.207 68.648 327.727 68.84 327.3 69.224C326.874 69.608 326.543 70.1467 326.308 70.84C326.084 71.5333 325.972 72.328 325.972 73.224C325.972 74.12 326.084 74.9147 326.308 75.608C326.543 76.2907 326.868 76.8293 327.284 77.224C327.711 77.608 328.196 77.8 328.74 77.8ZM328.74 79.144C327.919 79.144 327.178 78.8933 326.516 78.392C325.866 77.8907 325.359 77.192 324.996 76.296C324.634 75.3893 324.452 74.3653 324.452 73.224C324.452 72.0827 324.634 71.064 324.996 70.168C325.359 69.2613 325.866 68.5573 326.516 68.056C327.167 67.5547 327.908 67.304 328.74 67.304C329.572 67.304 330.308 67.5547 330.948 68.056C331.599 68.5573 332.106 69.2613 332.468 70.168C332.842 71.064 333.028 72.0827 333.028 73.224C333.028 74.3653 332.842 75.384 332.468 76.28C332.106 77.176 331.599 77.88 330.948 78.392C330.308 78.8933 329.572 79.144 328.74 79.144ZM346.144 66.088V76.552H344.576V66.088H346.144ZM345.12 67.832V69.08H340.768V67.832H345.12ZM346.496 78.68V79.96H336.976V78.68H346.496ZM338.528 75.64V79.288H336.976V75.64H338.528ZM336.784 67.064V73.736H335.216V67.064H336.784ZM336.304 73.256C337.424 73.256 338.459 73.224 339.408 73.16C340.368 73.0853 341.349 72.9573 342.352 72.776L342.496 74.056C341.461 74.248 340.453 74.3813 339.472 74.456C338.501 74.52 337.445 74.552 336.304 74.552H335.216V73.256H336.304ZM345.12 70.52V71.768H340.768V70.52H345.12ZM360.464 66.088V80.248H358.96V66.088H360.464ZM359.344 71.672V72.968H356.752V71.672H359.344ZM357.232 66.376V79.528H355.776V66.376H357.232ZM349.808 75.56C350.875 75.56 351.787 75.5333 352.544 75.48C353.302 75.4267 354.064 75.3253 354.832 75.176L354.992 76.472C354.182 76.632 353.387 76.7387 352.608 76.792C351.84 76.8453 350.907 76.872 349.808 76.872H348.88V75.56H349.808ZM354.096 67.784V69.064H350.416V76.168H348.88V67.784H354.096Z" fill="#69B38A"/>
</svg>
