<svg width="574" height="369" viewBox="0 0 574 369" fill="none" xmlns="http://www.w3.org/2000/svg">
<path d="M219.807 309.744V311.85H215.855V309.744H219.807ZM219.807 314.684V316.79H215.855V314.684H219.807ZM216.609 306.416V320.04H214.061V306.416H216.609ZM216.609 321.08V329.426H214.061V323.134H201.529V321.08H216.609ZM205.091 307.742C206.235 307.742 207.267 307.976 208.185 308.444C209.121 308.912 209.849 309.571 210.369 310.42C210.907 311.252 211.175 312.197 211.175 313.254C211.175 314.329 210.907 315.282 210.369 316.114C209.849 316.946 209.121 317.596 208.185 318.064C207.267 318.532 206.235 318.766 205.091 318.766C203.93 318.766 202.881 318.532 201.945 318.064C201.027 317.596 200.307 316.946 199.787 316.114C199.267 315.282 199.007 314.329 199.007 313.254C199.007 312.197 199.267 311.252 199.787 310.42C200.307 309.571 201.027 308.912 201.945 308.444C202.881 307.976 203.93 307.742 205.091 307.742ZM205.091 309.926C204.415 309.926 203.8 310.065 203.245 310.342C202.691 310.62 202.257 311.01 201.945 311.512C201.633 312.015 201.477 312.596 201.477 313.254C201.477 313.93 201.633 314.528 201.945 315.048C202.257 315.551 202.682 315.941 203.219 316.218C203.774 316.496 204.398 316.634 205.091 316.634C205.785 316.634 206.4 316.496 206.937 316.218C207.492 315.941 207.925 315.551 208.237 315.048C208.549 314.528 208.705 313.93 208.705 313.254C208.705 312.596 208.549 312.015 208.237 311.512C207.925 311.01 207.492 310.62 206.937 310.342C206.4 310.065 205.785 309.926 205.091 309.926ZM234.354 327.45L231.884 327.424V311.278L228.712 313.176L227.594 311.148L231.91 308.6H234.354V327.45ZM255.137 312.214V314.294H249.157V312.214H255.137ZM256.905 321.21V329.452H254.357V323.238H241.409V321.21H256.905ZM256.905 306.416V319.988H254.357V306.416H256.905ZM244.165 307.69C245.274 307.69 246.279 307.933 247.181 308.418C248.099 308.886 248.819 309.545 249.339 310.394C249.859 311.244 250.119 312.197 250.119 313.254C250.119 314.329 249.859 315.291 249.339 316.14C248.819 316.99 248.099 317.657 247.181 318.142C246.279 318.61 245.274 318.844 244.165 318.844C243.038 318.844 242.015 318.61 241.097 318.142C240.195 317.657 239.485 316.99 238.965 316.14C238.445 315.291 238.185 314.329 238.185 313.254C238.185 312.197 238.445 311.244 238.965 310.394C239.485 309.545 240.195 308.886 241.097 308.418C242.015 307.933 243.038 307.69 244.165 307.69ZM244.165 309.848C243.506 309.848 242.899 309.996 242.345 310.29C241.807 310.568 241.383 310.966 241.071 311.486C240.776 312.006 240.629 312.596 240.629 313.254C240.629 313.948 240.776 314.554 241.071 315.074C241.383 315.577 241.807 315.976 242.345 316.27C242.882 316.548 243.489 316.686 244.165 316.686C244.823 316.686 245.421 316.548 245.959 316.27C246.496 315.976 246.912 315.577 247.207 315.074C247.519 314.554 247.675 313.948 247.675 313.254C247.675 312.596 247.519 312.006 247.207 311.486C246.912 310.966 246.496 310.568 245.959 310.29C245.421 309.996 244.823 309.848 244.165 309.848ZM273.557 327.45L271.087 327.424V311.278L267.915 313.176L266.797 311.148L271.113 308.6H273.557V327.45ZM287.346 317.7C288.16 318.186 288.81 318.844 289.296 319.676C289.798 320.491 290.05 321.306 290.05 322.12C290.05 323.178 289.781 324.122 289.244 324.954C288.706 325.786 287.961 326.436 287.008 326.904C286.054 327.372 284.962 327.606 283.732 327.606C282.518 327.606 281.435 327.372 280.482 326.904C279.546 326.419 278.809 325.752 278.272 324.902C277.734 324.053 277.466 323.091 277.466 322.016H279.936C279.936 322.675 280.092 323.264 280.404 323.784C280.733 324.287 281.184 324.686 281.756 324.98C282.345 325.275 283.012 325.422 283.758 325.422C284.503 325.422 285.17 325.275 285.76 324.98C286.349 324.686 286.808 324.287 287.138 323.784C287.467 323.264 287.632 322.675 287.632 322.016C287.632 321.375 287.467 320.812 287.138 320.326C286.808 319.824 286.349 319.434 285.76 319.156C285.188 318.879 284.529 318.74 283.784 318.74H282.432V316.634H283.81C284.503 316.634 285.118 316.504 285.656 316.244C286.193 315.984 286.609 315.638 286.904 315.204C287.198 314.754 287.346 314.234 287.346 313.644C287.346 312.743 287.025 312.015 286.384 311.46C285.76 310.888 284.936 310.602 283.914 310.602C283.238 310.602 282.64 310.732 282.12 310.992C281.617 311.252 281.218 311.616 280.924 312.084C280.629 312.552 280.482 313.081 280.482 313.67H278.012C278.012 312.648 278.263 311.738 278.766 310.94C279.268 310.143 279.962 309.528 280.846 309.094C281.747 308.644 282.77 308.418 283.914 308.418C285.04 308.418 286.046 308.644 286.93 309.094C287.814 309.528 288.507 310.134 289.01 310.914C289.512 311.694 289.764 312.578 289.764 313.566C289.764 314.294 289.547 315.048 289.114 315.828C288.68 316.591 288.091 317.215 287.346 317.7ZM299.148 310.524C298.385 310.524 297.701 310.698 297.094 311.044C296.487 311.391 296.011 311.876 295.664 312.5C295.335 313.124 295.17 313.835 295.17 314.632C295.17 315.43 295.335 316.14 295.664 316.764C296.011 317.388 296.487 317.874 297.094 318.22C297.701 318.567 298.394 318.74 299.174 318.74C299.919 318.74 300.595 318.567 301.202 318.22C301.809 317.874 302.277 317.388 302.606 316.764C302.935 316.123 303.1 315.412 303.1 314.632C303.1 313.852 302.927 313.15 302.58 312.526C302.251 311.885 301.783 311.391 301.176 311.044C300.587 310.698 299.911 310.524 299.148 310.524ZM305.57 314.632C305.57 315.794 305.232 316.981 304.556 318.194L299.304 327.476H296.47L300.292 320.768C299.807 320.855 299.408 320.898 299.096 320.898C297.865 320.898 296.765 320.63 295.794 320.092C294.823 319.555 294.061 318.818 293.506 317.882C292.969 316.929 292.7 315.846 292.7 314.632C292.7 313.419 292.969 312.336 293.506 311.382C294.061 310.429 294.823 309.692 295.794 309.172C296.765 308.635 297.874 308.366 299.122 308.366C300.37 308.366 301.479 308.635 302.45 309.172C303.438 309.692 304.201 310.429 304.738 311.382C305.293 312.336 305.57 313.419 305.57 314.632ZM319.42 308.418V319.26H308.708V308.418H319.42ZM311.204 310.446V317.18H316.898V310.446H311.204ZM325.79 306.39V323.238H323.242V306.39H325.79ZM329.04 313.254V315.386H325.036V313.254H329.04ZM326.752 326.878V328.958H311.282V326.878H326.752ZM313.83 321.6V327.84H311.282V321.6H313.83ZM353.908 309.978V312.058H347.538V309.978H353.908ZM353.986 314.58V316.634H347.538V314.58H353.986ZM355.572 306.416V319.988H353.024V306.416H355.572ZM348.188 308.106V318.48H337.554V308.106H348.188ZM340.05 310.16V316.478H345.692V310.16H340.05ZM347.902 320.612C350.312 320.612 352.21 321.002 353.596 321.782C354.983 322.545 355.676 323.62 355.676 325.006C355.676 326.393 354.983 327.468 353.596 328.23C352.227 329.01 350.338 329.4 347.928 329.4C345.502 329.4 343.595 329.01 342.208 328.23C340.839 327.468 340.154 326.393 340.154 325.006C340.154 323.62 340.839 322.545 342.208 321.782C343.595 321.002 345.493 320.612 347.902 320.612ZM347.928 322.614C346.836 322.614 345.9 322.71 345.12 322.9C344.34 323.091 343.742 323.368 343.326 323.732C342.928 324.079 342.728 324.512 342.728 325.032C342.728 325.535 342.928 325.968 343.326 326.332C343.742 326.696 344.34 326.974 345.12 327.164C345.9 327.338 346.836 327.424 347.928 327.424C349.003 327.424 349.93 327.338 350.71 327.164C351.49 326.974 352.088 326.696 352.504 326.332C352.92 325.968 353.128 325.535 353.128 325.032C353.128 324.512 352.92 324.079 352.504 323.732C352.088 323.368 351.49 323.091 350.71 322.9C349.948 322.71 349.02 322.614 347.928 322.614Z" fill="#231815"/>
<path d="M251.493 361.476L258.955 344.68H261.633L254.171 361.476H251.493ZM261.633 344.68L250.115 344.706V342.522H261.373L261.633 344.68ZM265.964 358.902C266.397 358.902 266.752 359.041 267.03 359.318C267.307 359.596 267.446 359.951 267.446 360.384C267.446 360.852 267.307 361.225 267.03 361.502C266.752 361.78 266.397 361.918 265.964 361.918C265.513 361.918 265.14 361.771 264.846 361.476C264.568 361.199 264.43 360.835 264.43 360.384C264.43 359.951 264.568 359.596 264.846 359.318C265.14 359.041 265.513 358.902 265.964 358.902ZM277.987 361.45L275.517 361.424V345.278L272.345 347.176L271.227 345.148L275.543 342.6H277.987V361.45ZM299.081 342.496H301.681L289.747 361.476H287.199L299.081 342.496ZM287.875 352.506C286.957 352.506 286.107 352.281 285.327 351.83C284.565 351.362 283.958 350.738 283.507 349.958C283.057 349.161 282.831 348.286 282.831 347.332C282.831 346.396 283.057 345.53 283.507 344.732C283.958 343.935 284.565 343.311 285.327 342.86C286.107 342.41 286.957 342.184 287.875 342.184C288.794 342.184 289.635 342.41 290.397 342.86C291.16 343.311 291.767 343.935 292.217 344.732C292.668 345.53 292.893 346.396 292.893 347.332C292.893 348.286 292.668 349.161 292.217 349.958C291.767 350.738 291.16 351.362 290.397 351.83C289.635 352.281 288.794 352.506 287.875 352.506ZM287.875 350.166C288.361 350.166 288.803 350.045 289.201 349.802C289.617 349.542 289.938 349.196 290.163 348.762C290.406 348.329 290.527 347.852 290.527 347.332C290.527 346.812 290.406 346.344 290.163 345.928C289.938 345.495 289.617 345.157 289.201 344.914C288.803 344.654 288.361 344.524 287.875 344.524C287.373 344.524 286.922 344.654 286.523 344.914C286.125 345.157 285.804 345.495 285.561 345.928C285.336 346.344 285.223 346.812 285.223 347.332C285.223 347.852 285.336 348.329 285.561 348.762C285.804 349.196 286.125 349.542 286.523 349.802C286.922 350.045 287.373 350.166 287.875 350.166ZM300.797 361.684C299.879 361.684 299.029 361.459 298.249 361.008C297.487 360.54 296.88 359.908 296.429 359.11C295.979 358.313 295.753 357.446 295.753 356.51C295.753 355.557 295.979 354.69 296.429 353.91C296.88 353.113 297.487 352.489 298.249 352.038C299.029 351.57 299.879 351.336 300.797 351.336C301.716 351.336 302.557 351.57 303.319 352.038C304.082 352.489 304.689 353.113 305.139 353.91C305.59 354.69 305.815 355.557 305.815 356.51C305.815 357.446 305.59 358.313 305.139 359.11C304.689 359.908 304.082 360.54 303.319 361.008C302.557 361.459 301.716 361.684 300.797 361.684ZM300.797 359.318C301.283 359.318 301.725 359.197 302.123 358.954C302.539 358.712 302.86 358.374 303.085 357.94C303.328 357.507 303.449 357.03 303.449 356.51C303.449 355.99 303.328 355.522 303.085 355.106C302.86 354.673 302.539 354.335 302.123 354.092C301.725 353.832 301.283 353.702 300.797 353.702C300.295 353.702 299.844 353.832 299.445 354.092C299.047 354.335 298.726 354.673 298.483 355.106C298.258 355.522 298.145 355.99 298.145 356.51C298.145 357.03 298.258 357.507 298.483 357.94C298.726 358.374 299.047 358.712 299.445 358.954C299.844 359.197 300.295 359.318 300.797 359.318Z" fill="#231815"/>
<path d="M235.066 161.766H310.498V274.529H310.434C310.467 274.786 310.498 275.042 310.498 275.331C310.498 284.953 293.597 292.778 272.782 292.778C251.968 292.778 235.066 284.953 235.066 275.331C235.066 275.042 235.066 274.786 235.098 274.529H235.066V161.766Z" fill="#F39E6A"/>
<path d="M272.782 144.249C293.597 144.249 310.498 152.042 310.498 161.695C310.498 171.349 293.597 179.142 272.782 179.142C251.968 179.142 235.066 171.317 235.066 161.695C235.066 152.074 251.968 144.249 272.782 144.249Z" fill="#FCE6D6"/>
<path d="M272.782 155.452C276.663 155.452 279.838 156.928 279.838 158.724C279.838 160.52 276.663 161.995 272.782 161.995C268.901 161.995 265.694 160.52 265.694 158.724C265.694 156.928 268.869 155.452 272.782 155.452Z" fill="#F6B387"/>
<path d="M268.325 135.529C251.904 133.349 239.204 119.269 239.204 102.239C239.204 83.7017 254.245 68.6602 272.783 68.6602C291.32 68.6602 306.362 83.7017 306.362 102.239C306.362 119.301 293.661 133.381 277.241 135.529L272.815 158.172L268.357 135.529H268.325Z" fill="#F39E6A"/>
<path d="M272.632 131.39C256.885 131.39 244.152 118.626 244.152 102.879C244.152 87.1317 256.885 74.3672 272.632 74.3672C288.379 74.3672 301.111 87.1638 301.111 102.879C301.111 118.594 288.347 131.39 272.632 131.39Z" fill="#FCE6D6"/>
<path d="M21.074 309.744V311.85H17.122V309.744H21.074ZM21.074 314.684V316.79H17.122V314.684H21.074ZM17.876 306.416V320.04H15.328V306.416H17.876ZM17.876 321.08V329.426H15.328V323.134H2.796V321.08H17.876ZM6.358 307.742C7.502 307.742 8.53333 307.976 9.452 308.444C10.388 308.912 11.116 309.571 11.636 310.42C12.1733 311.252 12.442 312.197 12.442 313.254C12.442 314.329 12.1733 315.282 11.636 316.114C11.116 316.946 10.388 317.596 9.452 318.064C8.53333 318.532 7.502 318.766 6.358 318.766C5.19667 318.766 4.148 318.532 3.212 318.064C2.29333 317.596 1.574 316.946 1.054 316.114C0.534 315.282 0.274 314.329 0.274 313.254C0.274 312.197 0.534 311.252 1.054 310.42C1.574 309.571 2.29333 308.912 3.212 308.444C4.148 307.976 5.19667 307.742 6.358 307.742ZM6.358 309.926C5.682 309.926 5.06667 310.065 4.512 310.342C3.95733 310.62 3.524 311.01 3.212 311.512C2.9 312.015 2.744 312.596 2.744 313.254C2.744 313.93 2.9 314.528 3.212 315.048C3.524 315.551 3.94867 315.941 4.486 316.218C5.04067 316.496 5.66467 316.634 6.358 316.634C7.05133 316.634 7.66667 316.496 8.204 316.218C8.75867 315.941 9.192 315.551 9.504 315.048C9.816 314.528 9.972 313.93 9.972 313.254C9.972 312.596 9.816 312.015 9.504 311.512C9.192 311.01 8.75867 310.62 8.204 310.342C7.66667 310.065 7.05133 309.926 6.358 309.926ZM35.6208 327.45L33.1508 327.424V311.278L29.9788 313.176L28.8608 311.148L33.1768 308.6H35.6208V327.45ZM56.4031 312.214V314.294H50.4231V312.214H56.4031ZM58.1711 321.21V329.452H55.6231V323.238H42.6751V321.21H58.1711ZM58.1711 306.416V319.988H55.6231V306.416H58.1711ZM45.4311 307.69C46.5405 307.69 47.5458 307.933 48.4471 308.418C49.3658 308.886 50.0851 309.545 50.6051 310.394C51.1251 311.244 51.3851 312.197 51.3851 313.254C51.3851 314.329 51.1251 315.291 50.6051 316.14C50.0851 316.99 49.3658 317.657 48.4471 318.142C47.5458 318.61 46.5405 318.844 45.4311 318.844C44.3045 318.844 43.2818 318.61 42.3631 318.142C41.4618 317.657 40.7511 316.99 40.2311 316.14C39.7111 315.291 39.4511 314.329 39.4511 313.254C39.4511 312.197 39.7111 311.244 40.2311 310.394C40.7511 309.545 41.4618 308.886 42.3631 308.418C43.2818 307.933 44.3045 307.69 45.4311 307.69ZM45.4311 309.848C44.7725 309.848 44.1658 309.996 43.6111 310.29C43.0738 310.568 42.6491 310.966 42.3371 311.486C42.0425 312.006 41.8951 312.596 41.8951 313.254C41.8951 313.948 42.0425 314.554 42.3371 315.074C42.6491 315.577 43.0738 315.976 43.6111 316.27C44.1485 316.548 44.7551 316.686 45.4311 316.686C46.0898 316.686 46.6878 316.548 47.2251 316.27C47.7625 315.976 48.1785 315.577 48.4731 315.074C48.7851 314.554 48.9411 313.948 48.9411 313.254C48.9411 312.596 48.7851 312.006 48.4731 311.486C48.1785 310.966 47.7625 310.568 47.2251 310.29C46.6878 309.996 46.0898 309.848 45.4311 309.848ZM74.8239 327.45L72.3539 327.424V311.278L69.1819 313.176L68.0639 311.148L72.3799 308.6H74.8239V327.45ZM85.0763 325.604C85.8216 325.604 86.4803 325.457 87.0523 325.162C87.6416 324.85 88.1009 324.434 88.4303 323.914C88.7596 323.377 88.9243 322.762 88.9243 322.068C88.9243 321.392 88.7596 320.794 88.4303 320.274C88.1183 319.737 87.6676 319.321 87.0783 319.026C86.4889 318.732 85.8216 318.584 85.0763 318.584C84.3309 318.584 83.6636 318.732 83.0743 319.026C82.4849 319.321 82.0256 319.737 81.6963 320.274C81.3669 320.794 81.2023 321.392 81.2023 322.068C81.2023 322.762 81.3583 323.377 81.6703 323.914C81.9996 324.434 82.4589 324.85 83.0483 325.162C83.6376 325.457 84.3136 325.604 85.0763 325.604ZM81.7223 313.41C81.7223 314.294 82.0343 315.022 82.6583 315.594C83.2823 316.149 84.0883 316.426 85.0763 316.426C86.0643 316.426 86.8703 316.149 87.4943 315.594C88.1183 315.022 88.4303 314.294 88.4303 313.41C88.4303 312.509 88.1183 311.781 87.4943 311.226C86.8703 310.654 86.0643 310.368 85.0763 310.368C84.0883 310.368 83.2823 310.654 82.6583 311.226C82.0343 311.781 81.7223 312.509 81.7223 313.41ZM88.3263 317.492C89.2276 318.012 89.9643 318.706 90.5362 319.572C91.1083 320.422 91.3943 321.262 91.3943 322.094C91.3943 323.186 91.1256 324.157 90.5883 325.006C90.0683 325.856 89.3229 326.523 88.3523 327.008C87.3989 327.494 86.3069 327.736 85.0763 327.736C83.8456 327.736 82.7449 327.494 81.7743 327.008C80.8209 326.523 80.0756 325.856 79.5383 325.006C79.0009 324.157 78.7323 323.186 78.7323 322.094C78.7323 321.262 79.0183 320.422 79.5903 319.572C80.1796 318.706 80.9249 318.012 81.8263 317.492C81.0636 316.99 80.4396 316.357 79.9543 315.594C79.4863 314.832 79.2523 314.112 79.2523 313.436C79.2523 312.431 79.4949 311.538 79.9803 310.758C80.4829 309.978 81.1763 309.372 82.0603 308.938C82.9443 308.488 83.9496 308.262 85.0763 308.262C86.2029 308.262 87.2083 308.488 88.0923 308.938C88.9763 309.372 89.6609 309.978 90.1463 310.758C90.6489 311.538 90.9003 312.431 90.9003 313.436C90.9003 314.13 90.6576 314.858 90.1723 315.62C89.6869 316.366 89.0716 316.99 88.3263 317.492ZM103.923 317.7C104.737 318.186 105.387 318.844 105.873 319.676C106.375 320.491 106.627 321.306 106.627 322.12C106.627 323.178 106.358 324.122 105.821 324.954C105.283 325.786 104.538 326.436 103.585 326.904C102.631 327.372 101.539 327.606 100.309 327.606C99.0955 327.606 98.0121 327.372 97.0588 326.904C96.1228 326.419 95.3861 325.752 94.8488 324.902C94.3115 324.053 94.0428 323.091 94.0428 322.016H96.5128C96.5128 322.675 96.6688 323.264 96.9808 323.784C97.3101 324.287 97.7608 324.686 98.3328 324.98C98.9221 325.275 99.5895 325.422 100.335 325.422C101.08 325.422 101.747 325.275 102.337 324.98C102.926 324.686 103.385 324.287 103.715 323.784C104.044 323.264 104.209 322.675 104.209 322.016C104.209 321.375 104.044 320.812 103.715 320.326C103.385 319.824 102.926 319.434 102.337 319.156C101.765 318.879 101.106 318.74 100.361 318.74H99.0088V316.634H100.387C101.08 316.634 101.695 316.504 102.233 316.244C102.77 315.984 103.186 315.638 103.481 315.204C103.775 314.754 103.923 314.234 103.923 313.644C103.923 312.743 103.602 312.015 102.961 311.46C102.337 310.888 101.513 310.602 100.491 310.602C99.8148 310.602 99.2168 310.732 98.6968 310.992C98.1941 311.252 97.7955 311.616 97.5008 312.084C97.2061 312.552 97.0588 313.081 97.0588 313.67H94.5888C94.5888 312.648 94.8401 311.738 95.3428 310.94C95.8455 310.143 96.5388 309.528 97.4228 309.094C98.3241 308.644 99.3468 308.418 100.491 308.418C101.617 308.418 102.623 308.644 103.507 309.094C104.391 309.528 105.084 310.134 105.587 310.914C106.089 311.694 106.341 312.578 106.341 313.566C106.341 314.294 106.124 315.048 105.691 315.828C105.257 316.591 104.668 317.215 103.923 317.7ZM120.483 308.418V319.26H109.771V308.418H120.483ZM112.267 310.446V317.18H117.961V310.446H112.267ZM126.853 306.39V323.238H124.305V306.39H126.853ZM130.103 313.254V315.386H126.099V313.254H130.103ZM127.815 326.878V328.958H112.345V326.878H127.815ZM114.893 321.6V327.84H112.345V321.6H114.893ZM154.972 309.978V312.058H148.602V309.978H154.972ZM155.05 314.58V316.634H148.602V314.58H155.05ZM156.636 306.416V319.988H154.088V306.416H156.636ZM149.252 308.106V318.48H138.618V308.106H149.252ZM141.114 310.16V316.478H146.756V310.16H141.114ZM148.966 320.612C151.375 320.612 153.273 321.002 154.66 321.782C156.047 322.545 156.74 323.62 156.74 325.006C156.74 326.393 156.047 327.468 154.66 328.23C153.291 329.01 151.401 329.4 148.992 329.4C146.565 329.4 144.659 329.01 143.272 328.23C141.903 327.468 141.218 326.393 141.218 325.006C141.218 323.62 141.903 322.545 143.272 321.782C144.659 321.002 146.557 320.612 148.966 320.612ZM148.992 322.614C147.9 322.614 146.964 322.71 146.184 322.9C145.404 323.091 144.806 323.368 144.39 323.732C143.991 324.079 143.792 324.512 143.792 325.032C143.792 325.535 143.991 325.968 144.39 326.332C144.806 326.696 145.404 326.974 146.184 327.164C146.964 327.338 147.9 327.424 148.992 327.424C150.067 327.424 150.994 327.338 151.774 327.164C152.554 326.974 153.152 326.696 153.568 326.332C153.984 325.968 154.192 325.535 154.192 325.032C154.192 324.512 153.984 324.079 153.568 323.732C153.152 323.368 152.554 323.091 151.774 322.9C151.011 322.71 150.084 322.614 148.992 322.614Z" fill="#231815"/>
<path d="M50.5891 361.476L58.0511 344.68H60.7291L53.2671 361.476H50.5891ZM60.7291 344.68L49.2111 344.706V342.522H60.4691L60.7291 344.68ZM65.0593 358.902C65.4927 358.902 65.848 359.041 66.1253 359.318C66.4027 359.596 66.5413 359.951 66.5413 360.384C66.5413 360.852 66.4027 361.225 66.1253 361.502C65.848 361.78 65.4927 361.918 65.0593 361.918C64.6087 361.918 64.236 361.771 63.9413 361.476C63.664 361.199 63.5253 360.835 63.5253 360.384C63.5253 359.951 63.664 359.596 63.9413 359.318C64.236 359.041 64.6087 358.902 65.0593 358.902ZM70.7907 359.292C71.224 358.876 71.6314 358.504 72.0127 358.174C72.394 357.828 72.81 357.446 73.2607 357.03C74.7167 355.713 75.878 354.612 76.7447 353.728C77.6287 352.844 78.374 351.943 78.9807 351.024C79.5874 350.088 79.8907 349.222 79.8907 348.424C79.8907 347.679 79.7434 347.02 79.4487 346.448C79.1714 345.876 78.7727 345.426 78.2527 345.096C77.7327 344.767 77.1347 344.602 76.4587 344.602C75.696 344.602 74.968 344.862 74.2747 345.382C73.5987 345.885 73.0787 346.526 72.7147 347.306L70.5307 346.37C71.0334 345.192 71.8394 344.23 72.9487 343.484C74.0754 342.739 75.2454 342.366 76.4587 342.366C77.62 342.366 78.6427 342.626 79.5267 343.146C80.4107 343.649 81.104 344.36 81.6067 345.278C82.1094 346.197 82.3607 347.246 82.3607 348.424C82.3607 349.568 82.0054 350.73 81.2947 351.908C80.584 353.07 79.7347 354.153 78.7467 355.158C77.7587 356.146 76.476 357.334 74.8987 358.72C73.9974 359.5 73.1827 360.228 72.4547 360.904L70.7907 359.292ZM70.7907 359.292H82.6727V361.45H71.0507L70.7907 359.292ZM102.519 342.496H105.119L93.1848 361.476H90.6368L102.519 342.496ZM91.3128 352.506C90.3942 352.506 89.5448 352.281 88.7648 351.83C88.0022 351.362 87.3955 350.738 86.9448 349.958C86.4942 349.161 86.2688 348.286 86.2688 347.332C86.2688 346.396 86.4942 345.53 86.9448 344.732C87.3955 343.935 88.0022 343.311 88.7648 342.86C89.5448 342.41 90.3942 342.184 91.3128 342.184C92.2315 342.184 93.0722 342.41 93.8348 342.86C94.5975 343.311 95.2042 343.935 95.6548 344.732C96.1055 345.53 96.3308 346.396 96.3308 347.332C96.3308 348.286 96.1055 349.161 95.6548 349.958C95.2042 350.738 94.5975 351.362 93.8348 351.83C93.0722 352.281 92.2315 352.506 91.3128 352.506ZM91.3128 350.166C91.7982 350.166 92.2402 350.045 92.6388 349.802C93.0548 349.542 93.3755 349.196 93.6008 348.762C93.8435 348.329 93.9648 347.852 93.9648 347.332C93.9648 346.812 93.8435 346.344 93.6008 345.928C93.3755 345.495 93.0548 345.157 92.6388 344.914C92.2402 344.654 91.7982 344.524 91.3128 344.524C90.8102 344.524 90.3595 344.654 89.9608 344.914C89.5622 345.157 89.2415 345.495 88.9988 345.928C88.7735 346.344 88.6608 346.812 88.6608 347.332C88.6608 347.852 88.7735 348.329 88.9988 348.762C89.2415 349.196 89.5622 349.542 89.9608 349.802C90.3595 350.045 90.8102 350.166 91.3128 350.166ZM104.235 361.684C103.316 361.684 102.467 361.459 101.687 361.008C100.924 360.54 100.318 359.908 99.8668 359.11C99.4162 358.313 99.1908 357.446 99.1908 356.51C99.1908 355.557 99.4162 354.69 99.8668 353.91C100.318 353.113 100.924 352.489 101.687 352.038C102.467 351.57 103.316 351.336 104.235 351.336C105.154 351.336 105.994 351.57 106.757 352.038C107.52 352.489 108.126 353.113 108.577 353.91C109.028 354.69 109.253 355.557 109.253 356.51C109.253 357.446 109.028 358.313 108.577 359.11C108.126 359.908 107.52 360.54 106.757 361.008C105.994 361.459 105.154 361.684 104.235 361.684ZM104.235 359.318C104.72 359.318 105.162 359.197 105.561 358.954C105.977 358.712 106.298 358.374 106.523 357.94C106.766 357.507 106.887 357.03 106.887 356.51C106.887 355.99 106.766 355.522 106.523 355.106C106.298 354.673 105.977 354.335 105.561 354.092C105.162 353.832 104.72 353.702 104.235 353.702C103.732 353.702 103.282 353.832 102.883 354.092C102.484 354.335 102.164 354.673 101.921 355.106C101.696 355.522 101.583 355.99 101.583 356.51C101.583 357.03 101.696 357.507 101.921 357.94C102.164 358.374 102.484 358.712 102.883 358.954C103.282 359.197 103.732 359.318 104.235 359.318Z" fill="#231815"/>
<path d="M36.7178 148.105H112.15V274.5H112.086C112.118 274.756 112.15 275.013 112.15 275.301C112.15 284.923 95.2484 292.748 74.434 292.748C53.6195 292.748 36.7178 284.923 36.7178 275.301C36.7178 275.013 36.7178 274.756 36.7499 274.5H36.7178V148.105Z" fill="#B098C7"/>
<path d="M74.434 130.445C95.2484 130.445 112.15 138.239 112.15 147.892C112.15 157.546 95.2484 165.339 74.434 165.339C53.6195 165.339 36.7178 157.514 36.7178 147.892C36.7178 138.271 53.6195 130.445 74.434 130.445Z" fill="#EBE6F3"/>
<path d="M74.4336 141.82C78.3143 141.82 81.4893 143.296 81.4893 145.092C81.4893 146.888 78.3143 148.363 74.4336 148.363C70.5529 148.363 67.3457 146.888 67.3457 145.092C67.3457 143.296 70.5209 141.82 74.4336 141.82Z" fill="#C0ACD3"/>
<path d="M69.9764 121.869C53.5558 119.688 40.8555 105.609 40.8555 88.5789C40.8555 70.0416 55.897 55 74.4344 55C92.9718 55 108.013 70.0416 108.013 88.5789C108.013 105.641 95.313 119.72 78.8923 121.869L74.4664 144.512L70.0085 121.869H69.9764Z" fill="#B098C7"/>
<path d="M74.4332 117.086C58.686 117.086 45.9536 104.321 45.9536 88.5742C45.9536 72.827 58.686 60.0625 74.4332 60.0625C90.1803 60.0625 102.913 72.8591 102.913 88.5742C102.913 104.289 90.1483 117.086 74.4332 117.086Z" fill="#EBE6F3"/>
<path d="M415.574 309.744V311.85H411.622V309.744H415.574ZM415.574 314.684V316.79H411.622V314.684H415.574ZM412.376 306.416V320.04H409.828V306.416H412.376ZM412.376 321.08V329.426H409.828V323.134H397.296V321.08H412.376ZM400.858 307.742C402.002 307.742 403.033 307.976 403.952 308.444C404.888 308.912 405.616 309.571 406.136 310.42C406.673 311.252 406.942 312.197 406.942 313.254C406.942 314.329 406.673 315.282 406.136 316.114C405.616 316.946 404.888 317.596 403.952 318.064C403.033 318.532 402.002 318.766 400.858 318.766C399.697 318.766 398.648 318.532 397.712 318.064C396.793 317.596 396.074 316.946 395.554 316.114C395.034 315.282 394.774 314.329 394.774 313.254C394.774 312.197 395.034 311.252 395.554 310.42C396.074 309.571 396.793 308.912 397.712 308.444C398.648 307.976 399.697 307.742 400.858 307.742ZM400.858 309.926C400.182 309.926 399.567 310.065 399.012 310.342C398.457 310.62 398.024 311.01 397.712 311.512C397.4 312.015 397.244 312.596 397.244 313.254C397.244 313.93 397.4 314.528 397.712 315.048C398.024 315.551 398.449 315.941 398.986 316.218C399.541 316.496 400.165 316.634 400.858 316.634C401.551 316.634 402.167 316.496 402.704 316.218C403.259 315.941 403.692 315.551 404.004 315.048C404.316 314.528 404.472 313.93 404.472 313.254C404.472 312.596 404.316 312.015 404.004 311.512C403.692 311.01 403.259 310.62 402.704 310.342C402.167 310.065 401.551 309.926 400.858 309.926ZM429.991 310.524C429.228 310.524 428.543 310.698 427.937 311.044C427.33 311.391 426.853 311.876 426.507 312.5C426.177 313.124 426.013 313.835 426.013 314.632C426.013 315.43 426.177 316.14 426.507 316.764C426.853 317.388 427.33 317.874 427.937 318.22C428.543 318.567 429.237 318.74 430.017 318.74C430.762 318.74 431.438 318.567 432.045 318.22C432.651 317.874 433.119 317.388 433.449 316.764C433.778 316.123 433.943 315.412 433.943 314.632C433.943 313.852 433.769 313.15 433.423 312.526C433.093 311.885 432.625 311.391 432.019 311.044C431.429 310.698 430.753 310.524 429.991 310.524ZM436.413 314.632C436.413 315.794 436.075 316.981 435.399 318.194L430.147 327.476H427.313L431.135 320.768C430.649 320.855 430.251 320.898 429.939 320.898C428.708 320.898 427.607 320.63 426.637 320.092C425.666 319.555 424.903 318.818 424.349 317.882C423.811 316.929 423.543 315.846 423.543 314.632C423.543 313.419 423.811 312.336 424.349 311.382C424.903 310.429 425.666 309.692 426.637 309.172C427.607 308.635 428.717 308.366 429.965 308.366C431.213 308.366 432.322 308.635 433.293 309.172C434.281 309.692 435.043 310.429 435.581 311.382C436.135 312.336 436.413 313.419 436.413 314.632ZM440.538 330.726H438.718L439.628 325.136H442.202L440.538 330.726ZM448.003 317.232C448.557 316.591 449.285 316.071 450.187 315.672C451.105 315.256 451.989 315.048 452.839 315.048C454.104 315.048 455.231 315.317 456.219 315.854C457.224 316.392 458.004 317.137 458.559 318.09C459.113 319.026 459.391 320.11 459.391 321.34C459.391 322.571 459.113 323.672 458.559 324.642C458.004 325.596 457.224 326.35 456.219 326.904C455.231 327.442 454.104 327.71 452.839 327.71C451.851 327.71 450.915 327.502 450.031 327.086C449.164 326.67 448.427 326.09 447.821 325.344C447.214 324.599 446.798 323.758 446.573 322.822L448.965 322.276C449.173 323.178 449.632 323.923 450.343 324.512C451.071 325.102 451.903 325.396 452.839 325.396C453.619 325.396 454.321 325.223 454.945 324.876C455.569 324.53 456.054 324.044 456.401 323.42C456.747 322.796 456.921 322.103 456.921 321.34C456.921 320.56 456.747 319.876 456.401 319.286C456.054 318.68 455.569 318.212 454.945 317.882C454.321 317.536 453.619 317.362 452.839 317.362C452.319 317.362 451.781 317.501 451.227 317.778C450.672 318.056 450.204 318.411 449.823 318.844L448.003 317.232ZM447.353 318.506L447.977 308.574H457.857V310.732H450.343L449.823 318.844L447.353 318.506ZM463.828 327.476L471.29 310.68H473.968L466.506 327.476H463.828ZM473.968 310.68L462.45 310.706V308.522H473.708L473.968 310.68ZM478.091 317.232C478.645 316.591 479.373 316.071 480.275 315.672C481.193 315.256 482.077 315.048 482.927 315.048C484.192 315.048 485.319 315.317 486.307 315.854C487.312 316.392 488.092 317.137 488.647 318.09C489.201 319.026 489.479 320.11 489.479 321.34C489.479 322.571 489.201 323.672 488.647 324.642C488.092 325.596 487.312 326.35 486.307 326.904C485.319 327.442 484.192 327.71 482.927 327.71C481.939 327.71 481.003 327.502 480.119 327.086C479.252 326.67 478.515 326.09 477.909 325.344C477.302 324.599 476.886 323.758 476.661 322.822L479.053 322.276C479.261 323.178 479.72 323.923 480.431 324.512C481.159 325.102 481.991 325.396 482.927 325.396C483.707 325.396 484.409 325.223 485.033 324.876C485.657 324.53 486.142 324.044 486.489 323.42C486.835 322.796 487.009 322.103 487.009 321.34C487.009 320.56 486.835 319.876 486.489 319.286C486.142 318.68 485.657 318.212 485.033 317.882C484.409 317.536 483.707 317.362 482.927 317.362C482.407 317.362 481.869 317.501 481.315 317.778C480.76 318.056 480.292 318.411 479.911 318.844L478.091 317.232ZM477.441 318.506L478.065 308.574H487.945V310.732H480.431L479.911 318.844L477.441 318.506ZM503.354 308.418V319.26H492.642V308.418H503.354ZM495.138 310.446V317.18H500.832V310.446H495.138ZM509.724 306.39V323.238H507.176V306.39H509.724ZM512.974 313.254V315.386H508.97V313.254H512.974ZM510.686 326.878V328.958H495.216V326.878H510.686ZM497.764 321.6V327.84H495.216V321.6H497.764ZM537.843 309.978V312.058H531.473V309.978H537.843ZM537.921 314.58V316.634H531.473V314.58H537.921ZM539.507 306.416V319.988H536.959V306.416H539.507ZM532.123 308.106V318.48H521.489V308.106H532.123ZM523.985 310.16V316.478H529.627V310.16H523.985ZM531.837 320.612C534.246 320.612 536.144 321.002 537.531 321.782C538.918 322.545 539.611 323.62 539.611 325.006C539.611 326.393 538.918 327.468 537.531 328.23C536.162 329.01 534.272 329.4 531.863 329.4C529.436 329.4 527.53 329.01 526.143 328.23C524.774 327.468 524.089 326.393 524.089 325.006C524.089 323.62 524.774 322.545 526.143 321.782C527.53 321.002 529.428 320.612 531.837 320.612ZM531.863 322.614C530.771 322.614 529.835 322.71 529.055 322.9C528.275 323.091 527.677 323.368 527.261 323.732C526.862 324.079 526.663 324.512 526.663 325.032C526.663 325.535 526.862 325.968 527.261 326.332C527.677 326.696 528.275 326.974 529.055 327.164C529.835 327.338 530.771 327.424 531.863 327.424C532.938 327.424 533.865 327.338 534.645 327.164C535.425 326.974 536.023 326.696 536.439 326.332C536.855 325.968 537.063 325.535 537.063 325.032C537.063 324.512 536.855 324.079 536.439 323.732C536.023 323.368 535.425 323.091 534.645 322.9C533.882 322.71 532.955 322.614 531.863 322.614Z" fill="#231815"/>
<path d="M443.374 359.474C444.137 359.474 444.822 359.301 445.428 358.954C446.052 358.608 446.529 358.122 446.858 357.498C447.205 356.874 447.378 356.172 447.378 355.392C447.378 354.595 447.205 353.884 446.858 353.26C446.512 352.619 446.035 352.125 445.428 351.778C444.839 351.432 444.154 351.258 443.374 351.258C442.612 351.258 441.927 351.432 441.32 351.778C440.731 352.125 440.272 352.619 439.942 353.26C439.613 353.884 439.448 354.595 439.448 355.392C439.448 356.172 439.613 356.874 439.942 357.498C440.272 358.122 440.731 358.608 441.32 358.954C441.927 359.301 442.612 359.474 443.374 359.474ZM436.978 355.392C436.978 354.248 437.316 353.061 437.992 351.83L443.244 342.548H446.078L442.256 349.23C442.724 349.144 443.123 349.1 443.452 349.1C444.683 349.1 445.784 349.369 446.754 349.906C447.725 350.444 448.479 351.189 449.016 352.142C449.571 353.096 449.848 354.179 449.848 355.392C449.848 356.606 449.571 357.689 449.016 358.642C448.462 359.578 447.699 360.315 446.728 360.852C445.758 361.372 444.648 361.632 443.4 361.632C442.17 361.632 441.06 361.372 440.072 360.852C439.102 360.315 438.339 359.578 437.784 358.642C437.247 357.689 436.978 356.606 436.978 355.392ZM454.156 358.902C454.589 358.902 454.945 359.041 455.222 359.318C455.499 359.596 455.638 359.951 455.638 360.384C455.638 360.852 455.499 361.225 455.222 361.502C454.945 361.78 454.589 361.918 454.156 361.918C453.705 361.918 453.333 361.771 453.038 361.476C452.761 361.199 452.622 360.835 452.622 360.384C452.622 359.951 452.761 359.596 453.038 359.318C453.333 359.041 453.705 358.902 454.156 358.902ZM461.369 361.476L468.831 344.68H471.509L464.047 361.476H461.369ZM471.509 344.68L459.991 344.706V342.522H471.249L471.509 344.68ZM491.362 342.496H493.962L482.028 361.476H479.48L491.362 342.496ZM480.156 352.506C479.237 352.506 478.388 352.281 477.608 351.83C476.845 351.362 476.238 350.738 475.788 349.958C475.337 349.161 475.112 348.286 475.112 347.332C475.112 346.396 475.337 345.53 475.788 344.732C476.238 343.935 476.845 343.311 477.608 342.86C478.388 342.41 479.237 342.184 480.156 342.184C481.074 342.184 481.915 342.41 482.678 342.86C483.44 343.311 484.047 343.935 484.498 344.732C484.948 345.53 485.174 346.396 485.174 347.332C485.174 348.286 484.948 349.161 484.498 349.958C484.047 350.738 483.44 351.362 482.678 351.83C481.915 352.281 481.074 352.506 480.156 352.506ZM480.156 350.166C480.641 350.166 481.083 350.045 481.482 349.802C481.898 349.542 482.218 349.196 482.444 348.762C482.686 348.329 482.808 347.852 482.808 347.332C482.808 346.812 482.686 346.344 482.444 345.928C482.218 345.495 481.898 345.157 481.482 344.914C481.083 344.654 480.641 344.524 480.156 344.524C479.653 344.524 479.202 344.654 478.804 344.914C478.405 345.157 478.084 345.495 477.842 345.928C477.616 346.344 477.504 346.812 477.504 347.332C477.504 347.852 477.616 348.329 477.842 348.762C478.084 349.196 478.405 349.542 478.804 349.802C479.202 350.045 479.653 350.166 480.156 350.166ZM493.078 361.684C492.159 361.684 491.31 361.459 490.53 361.008C489.767 360.54 489.16 359.908 488.71 359.11C488.259 358.313 488.034 357.446 488.034 356.51C488.034 355.557 488.259 354.69 488.71 353.91C489.16 353.113 489.767 352.489 490.53 352.038C491.31 351.57 492.159 351.336 493.078 351.336C493.996 351.336 494.837 351.57 495.6 352.038C496.362 352.489 496.969 353.113 497.42 353.91C497.87 354.69 498.096 355.557 498.096 356.51C498.096 357.446 497.87 358.313 497.42 359.11C496.969 359.908 496.362 360.54 495.6 361.008C494.837 361.459 493.996 361.684 493.078 361.684ZM493.078 359.318C493.563 359.318 494.005 359.197 494.404 358.954C494.82 358.712 495.14 358.374 495.366 357.94C495.608 357.507 495.73 357.03 495.73 356.51C495.73 355.99 495.608 355.522 495.366 355.106C495.14 354.673 494.82 354.335 494.404 354.092C494.005 353.832 493.563 353.702 493.078 353.702C492.575 353.702 492.124 353.832 491.726 354.092C491.327 354.335 491.006 354.673 490.764 355.106C490.538 355.522 490.426 355.99 490.426 356.51C490.426 357.03 490.538 357.507 490.764 357.94C491.006 358.374 491.327 358.712 491.726 358.954C492.124 359.197 492.575 359.318 493.078 359.318Z" fill="#231815"/>
<path d="M424.708 179.949H500.14V274.528H500.076C500.108 274.785 500.14 275.041 500.14 275.33C500.14 284.952 483.238 292.777 462.424 292.777C441.609 292.777 424.708 284.952 424.708 275.33C424.708 275.041 424.707 274.785 424.739 274.528H424.708V179.949Z" fill="#EF857C"/>
<path d="M462.424 162.441C483.238 162.441 500.14 170.235 500.14 179.888C500.14 189.542 483.238 197.335 462.424 197.335C441.609 197.335 424.708 189.51 424.708 179.888C424.708 170.267 441.609 162.441 462.424 162.441Z" fill="#FCE4DF"/>
<path d="M462.422 173.645C466.303 173.645 469.478 175.12 469.478 176.916C469.478 178.712 466.303 180.187 462.422 180.187C458.542 180.187 455.334 178.712 455.334 176.916C455.334 175.12 458.509 173.645 462.422 173.645Z" fill="#F2A095"/>
<path d="M457.965 153.722C441.545 151.541 428.844 137.461 428.844 120.431C428.844 101.894 443.886 86.8203 462.423 86.8203C480.96 86.8203 496.002 101.862 496.002 120.431C496.002 137.493 483.302 151.573 466.881 153.722L462.455 176.364L457.997 153.722H457.965Z" fill="#EF857C"/>
<path d="M462.423 148.906C446.676 148.906 433.943 136.142 433.943 120.394C433.943 104.647 446.676 91.8828 462.423 91.8828C478.17 91.8828 490.902 104.679 490.902 120.394C490.902 136.109 478.138 148.906 462.423 148.906Z" fill="#FCE4DF"/>
</svg>
