<svg width="30" height="30" viewBox="0 0 30 30" fill="none" xmlns="http://www.w3.org/2000/svg">
<rect x="8.57227" y="6.42871" width="15" height="19.2857" fill="#FFFFFF"/>
<path fill-rule="evenodd" clip-rule="evenodd" d="M15 30C16.9698 30 18.9204 29.612 20.7403 28.8582C22.5601 28.1044 24.2137 26.9995 25.6066 25.6066C26.9995 24.2137 28.1044 22.5601 28.8582 20.7403C29.612 18.9204 30 16.9698 30 15C30 13.0302 29.612 11.0796 28.8582 9.25975C28.1044 7.43986 26.9995 5.78628 25.6066 4.3934C24.2137 3.00052 22.5601 1.89563 20.7403 1.14181C18.9204 0.387986 16.9698 -2.93527e-08 15 0C11.0218 5.92805e-08 7.20644 1.58035 4.3934 4.3934C1.58035 7.20644 0 11.0218 0 15C0 18.9782 1.58035 22.7936 4.3934 25.6066C7.20644 28.4196 11.0218 30 15 30ZM12.9717 8.31667L22.3783 13.5433C22.638 13.6877 22.8544 13.8989 23.005 14.155C23.1557 14.4111 23.2351 14.7029 23.2351 15C23.2351 15.2971 23.1557 15.5889 23.005 15.845C22.8544 16.1011 22.638 16.3123 22.3783 16.4567L12.9717 21.6833C12.6671 21.8526 12.3235 21.9394 11.9751 21.9351C11.6267 21.9307 11.2854 21.8354 10.9851 21.6586C10.6848 21.4818 10.436 21.2296 10.2632 20.9269C10.0904 20.6243 9.99967 20.2818 10 19.9333V10.0667C9.99967 9.71819 10.0904 9.37568 10.2632 9.07306C10.436 8.77045 10.6848 8.51823 10.9851 8.3414C11.2854 8.16457 11.6267 8.06926 11.9751 8.06492C12.3235 8.06059 12.6671 8.14737 12.9717 8.31667Z" fill="#5F9EE9"/>
</svg>
