<svg width="49" height="54" viewBox="0 0 49 54" fill="none" xmlns="http://www.w3.org/2000/svg">
<path d="M35.3382 16.2794C35.3382 3.89118 44.0735 0.264706 48.4412 0H15.4286C6.9076 0 0 6.90761 0 15.4286V36.3309C0 46.0893 7.91073 54 17.6691 54C27.4275 54 35.3382 46.0893 35.3382 36.3309V16.2794Z" fill="#F3A8BB"/>
<path d="M22.6313 30.2966C23.7193 30.894 24.6047 31.7153 25.2873 32.7606C25.9913 33.806 26.3433 34.83 26.3433 35.8326C26.3433 37.1553 25.9807 38.3393 25.2553 39.3846C24.5513 40.4086 23.5487 41.2086 22.2473 41.7846C20.9673 42.3606 19.506 42.6486 17.8633 42.6486C16.2207 42.6486 14.7487 42.3393 13.4473 41.7206C12.1673 41.102 11.1647 40.238 10.4393 39.1286C9.73535 38.0193 9.38335 36.7606 9.38335 35.3526H14.2473C14.2473 35.9286 14.3967 36.4513 14.6953 36.9206C15.0153 37.3686 15.442 37.7206 15.9753 37.9766C16.53 38.2326 17.1593 38.3606 17.8633 38.3606C18.61 38.3606 19.2713 38.2326 19.8473 37.9766C20.4233 37.7206 20.8713 37.3686 21.1913 36.9206C21.5327 36.4513 21.7033 35.9286 21.7033 35.3526C21.7033 34.7553 21.5433 34.222 21.2233 33.7526C20.9033 33.2833 20.4553 32.9206 19.8793 32.6646C19.3033 32.3873 18.6527 32.2486 17.9273 32.2486H16.3273V28.4086H17.9913C18.6527 28.4086 19.2287 28.2913 19.7193 28.0566C20.2313 27.822 20.626 27.4913 20.9033 27.0646C21.202 26.638 21.3513 26.158 21.3513 25.6246C21.3513 24.878 21.042 24.27 20.4233 23.8006C19.826 23.31 19.0473 23.0646 18.0873 23.0646C17.49 23.0646 16.9567 23.1713 16.4873 23.3846C16.0393 23.598 15.6767 23.9073 15.3993 24.3126C15.1433 24.6966 15.0153 25.134 15.0153 25.6246H10.1513C10.1513 24.302 10.482 23.118 11.1433 22.0726C11.826 21.0273 12.7647 20.2166 13.9593 19.6406C15.1753 19.0646 16.5513 18.7766 18.0873 18.7766C19.602 18.7766 20.9567 19.054 22.1513 19.6086C23.346 20.142 24.274 20.8886 24.9353 21.8486C25.618 22.8086 25.9593 23.9073 25.9593 25.1446C25.9593 26.0833 25.65 27.0326 25.0313 27.9926C24.4127 28.9526 23.6127 29.7206 22.6313 30.2966Z" fill="white"/>
</svg>
