<svg width="537" height="378" viewBox="0 0 537 378" fill="none" xmlns="http://www.w3.org/2000/svg">
<path d="M63.6377 11.2578H56.3743C54.9065 16.2433 50.6538 19.8588 45.5356 19.8588C40.4173 19.8588 36.1646 16.2433 34.6968 11.2578H27.5839C25.3635 11.2578 23.256 12.057 21.5624 13.5412L4.1377 29.1447L14.8259 41.6275L24.1968 33.6355V78.6953H67.1001V33.7877L76.2829 41.6275L86.9711 29.1447L69.6969 13.5793C68.0409 12.0951 65.8581 11.2578 63.6377 11.2578Z" fill="#C6B8DA"/>
<path d="M67.0999 79.8342H24.1967C23.5569 79.8342 23.0677 79.3395 23.0677 78.6925V36.1064L15.5784 42.5C15.1268 42.9187 14.4118 42.8425 13.9978 42.3858L3.27196 29.9031C2.85798 29.4464 2.93325 28.7233 3.38487 28.3047L20.8472 12.7012C22.729 11.0267 25.0999 10.1133 27.6214 10.1133H34.7343C35.2236 10.1133 35.6752 10.4558 35.8257 10.9505C37.1806 15.5935 41.0946 18.7523 45.5731 18.7523C50.0515 18.7523 53.9279 15.6316 55.3204 10.9505C55.4709 10.4558 55.9225 10.1133 56.4118 10.1133H63.6752C66.1967 10.1133 68.6053 11.0267 70.487 12.7392L87.7612 28.3047C88.2129 28.7233 88.2881 29.4464 87.8741 29.9031L77.186 42.3858C76.772 42.8806 76.0569 42.9187 75.6053 42.5L68.3042 36.2586V78.6925C68.3042 79.3395 67.815 79.8342 67.1752 79.8342H67.0999ZM25.3257 77.5508H65.9709V33.7849C65.9709 33.3282 66.2343 32.9476 66.6107 32.7574C66.987 32.5671 67.4763 32.6432 67.815 32.9096L76.1322 39.9882L85.3526 29.218L68.944 14.4138C67.4763 13.1198 65.5946 12.3587 63.6376 12.3587H57.2021C55.358 17.5345 50.7666 20.9596 45.5731 20.9596C40.3795 20.9596 35.7881 17.5345 33.944 12.3587H27.6591C25.7397 12.3587 23.858 13.0817 22.3902 14.3757L5.75583 29.2561L14.9763 40.0263L23.4816 32.7574C23.8204 32.4529 24.272 32.4148 24.6859 32.6051C25.0999 32.7954 25.3257 33.214 25.3257 33.6327V77.5508Z" fill="#3E3A39"/>
<path d="M60.1375 32.6797V39.53C60.1375 42.194 57.7289 44.4013 54.7557 44.4013C51.7826 44.4013 49.374 42.194 49.374 39.53V32.6797H60.0998H60.1375Z" fill="#FFEC0E"/>
<path d="M54.7934 45.4719C51.2182 45.4719 48.3203 42.8079 48.3203 39.4969V32.6466C48.3203 32.0377 48.8096 31.543 49.4117 31.543H60.1375C60.7397 31.543 61.2289 32.0377 61.2289 32.6466V39.4969C61.2289 42.7699 58.3311 45.4719 54.7934 45.4719ZM50.5031 33.7883V39.535C50.5031 41.6281 52.4225 43.3027 54.7934 43.3027C57.1644 43.3027 59.0838 41.6281 59.0838 39.535V33.7883H50.5031Z" fill="#3E3A39"/>
<circle cx="134" cy="45" r="5" fill="#498F63"/>
<path d="M46.9705 225.946L23.9006 195.236C23.9006 195.236 19.7984 190.118 25.293 187.597L59.7285 177.586L83.8522 209.349" fill="#C7DE9C"/>
<path d="M46.9703 227.04C46.6316 227.04 46.3306 226.889 46.1047 226.588L23.0348 195.878C23.0348 195.878 20.8144 193.093 21.4918 190.271C21.8682 188.69 22.9972 187.448 24.8789 186.583L59.465 176.534C59.9166 176.384 60.3682 176.534 60.6316 176.911L84.7553 208.674C85.1316 209.163 85.0187 209.841 84.5295 210.179C84.0402 210.556 83.3628 210.443 82.9865 209.954L59.3144 178.792L25.594 188.577C24.5026 189.104 23.7875 189.819 23.5617 190.722C23.1478 192.491 24.6908 194.486 24.7284 194.486L47.7983 225.233C48.1746 225.722 48.0617 226.4 47.5725 226.739C47.3843 226.889 47.1585 226.964 46.9327 226.964L46.9703 227.04Z" fill="#3E3A39"/>
<path d="M84.191 218.229L51.0727 227.789C48.4759 228.541 46.2931 225.455 46.2178 223.611C46.1426 221.767 48.1748 219.659 50.7716 218.907L83.8523 209.348L84.191 218.229Z" fill="white"/>
<path d="M50.2824 229.029C49.4168 229.029 48.5512 228.728 47.7232 228.163C46.2931 227.147 45.1641 225.228 45.0888 223.647C44.9759 221.276 47.3469 218.679 50.4329 217.776L83.5136 208.217C83.8523 208.104 84.2286 208.217 84.4921 208.405C84.7931 208.593 84.9437 208.932 84.9437 209.271L85.2824 218.152C85.2824 218.679 84.9813 219.131 84.4544 219.281L51.3361 228.841C50.9598 228.953 50.5835 228.991 50.2071 228.991L50.2824 229.029ZM82.7985 210.851L51.1103 219.996C48.8523 220.636 47.3469 222.405 47.3845 223.572C47.4222 224.362 48.0996 225.642 49.0781 226.357C49.6426 226.771 50.2447 226.921 50.8093 226.733L83.062 217.437L82.8362 210.889L82.7985 210.851Z" fill="#3E3A39"/>
<path d="M58.9006 220.559C58.5243 220.559 58.1479 220.296 58.035 219.919C57.8845 219.43 58.1856 218.941 58.6748 218.79L83.0996 211.753C83.5512 211.64 84.0781 211.903 84.2286 212.355C84.3791 212.844 84.0781 213.333 83.5888 213.484L59.1641 220.521C59.1641 220.521 59.0135 220.521 58.9006 220.521V220.559Z" fill="#3E3A39"/>
<path d="M58.7124 223.458C58.3361 223.458 57.9597 223.194 57.8468 222.818C57.6963 222.328 57.9974 221.839 58.4866 221.689L82.9113 214.651C83.3629 214.538 83.8898 214.802 84.0404 215.253C84.1909 215.705 83.8898 216.232 83.4006 216.382L58.9758 223.42C58.9758 223.42 58.8253 223.42 58.7124 223.42V223.458Z" fill="#3E3A39"/>
<path d="M46.6697 212.399L23.5998 181.69C23.5998 181.69 19.4976 176.571 24.9923 174.05L59.4278 164.039L83.5514 195.803" fill="#A2DAF7"/>
<path d="M46.6695 213.528C46.3308 213.528 45.9921 213.378 45.7663 213.077L22.6964 182.367C22.6964 182.367 20.476 179.544 21.1158 176.722C21.4921 175.141 22.6212 173.861 24.5405 172.996L59.1642 162.947C59.6158 162.835 60.105 162.947 60.3685 163.361L84.4921 195.125C84.8685 195.614 84.7556 196.329 84.2663 196.706C83.7771 197.082 83.062 197.007 82.6857 196.48L59.0136 165.318L25.3308 175.103C24.2771 175.593 23.562 176.345 23.3362 177.211C22.9975 178.641 24.0513 180.41 24.5029 180.937L47.5728 211.684C47.9491 212.173 47.8362 212.888 47.347 213.265C47.1588 213.415 46.8954 213.491 46.6695 213.491V213.528Z" fill="#3E3A39"/>
<path d="M83.8902 204.718L50.7719 214.277C48.1751 215.029 45.9923 211.943 45.9171 210.099C45.8418 208.255 47.8741 206.148 50.4708 205.395L83.5515 195.836L83.8902 204.718Z" fill="white"/>
<path d="M50.0188 215.521C49.1156 215.521 48.25 215.22 47.422 214.655C45.9919 213.639 44.8629 211.72 44.7876 210.139C44.6747 207.768 47.008 205.171 50.1317 204.268L83.2124 194.709C83.5511 194.596 83.9274 194.709 84.1909 194.897C84.4543 195.085 84.6425 195.424 84.6425 195.763L84.9812 204.645C84.9812 205.171 84.6801 205.623 84.1532 205.774L51.0349 215.333C50.6586 215.446 50.3199 215.483 49.9435 215.483L50.0188 215.521ZM82.4973 197.306L50.8091 206.451C48.5511 207.091 47.0457 208.86 47.0833 210.026C47.121 210.817 47.7984 212.096 48.7769 212.811C49.3414 213.225 49.9435 213.338 50.5081 213.188L82.7608 203.892L82.5349 197.344L82.4973 197.306Z" fill="#3E3A39"/>
<path d="M58.5994 207.012C58.223 207.012 57.8467 206.749 57.7338 206.372C57.5832 205.883 57.8843 205.394 58.3736 205.243L82.7983 198.206C83.2499 198.093 83.7768 198.356 83.9273 198.808C84.0779 199.26 83.7768 199.786 83.2875 199.937L58.8628 206.975C58.8628 206.975 58.7123 206.975 58.5994 206.975V207.012Z" fill="#3E3A39"/>
<path d="M58.4114 209.95C58.035 209.95 57.6587 209.686 57.5458 209.31C57.3953 208.821 57.6963 208.331 58.1856 208.181L82.6103 201.143C83.0619 201.03 83.5888 201.294 83.7393 201.745C83.8899 202.235 83.5888 202.724 83.0996 202.874L58.6748 209.912C58.6748 209.912 58.5243 209.912 58.4114 209.912V209.95Z" fill="#3E3A39"/>
<path d="M46.9705 198.47L23.9006 167.76C23.9006 167.76 19.7984 162.642 25.293 160.12L59.7285 150.109L83.8522 181.873" fill="#FCC91D"/>
<path d="M46.9703 199.563C46.6316 199.563 46.3306 199.413 46.1047 199.111L23.0348 168.402C23.0348 168.402 20.8144 165.617 21.4918 162.794C21.8682 161.214 22.9972 159.972 24.8789 159.106L59.465 149.058C59.9166 148.907 60.3682 149.058 60.6316 149.434L84.7553 181.197C85.1316 181.687 85.0187 182.364 84.5295 182.703C84.0402 183.079 83.3628 182.966 82.9865 182.477L59.3144 151.316L25.594 161.101C24.5026 161.628 23.7875 162.343 23.5617 163.246C23.1478 165.015 24.6908 167.009 24.7284 167.009L47.7983 197.757C48.1746 198.246 48.0617 198.923 47.5725 199.262C47.3843 199.413 47.1585 199.488 46.9327 199.488L46.9703 199.563Z" fill="#3E3A39"/>
<path d="M84.191 190.796L51.0727 200.355C48.4759 201.108 46.2931 198.022 46.2178 196.178C46.1426 194.333 48.1748 192.226 50.7716 191.473L83.8523 181.914L84.191 190.796Z" fill="white"/>
<path d="M50.2824 201.599C49.4168 201.599 48.5512 201.298 47.7232 200.733C46.2931 199.717 45.1641 197.798 45.0888 196.217C44.9759 193.846 47.3469 191.25 50.4329 190.346L83.5136 180.787C83.8523 180.674 84.2286 180.787 84.4921 180.975C84.7931 181.164 84.9437 181.502 84.9437 181.841L85.2824 190.723C85.2824 191.25 84.9813 191.701 84.4544 191.852L51.3361 201.411C50.9598 201.524 50.5835 201.561 50.2071 201.561L50.2824 201.599ZM82.7985 183.384L51.1103 192.529C48.8523 193.169 47.3469 194.938 47.3845 196.104C47.4222 196.895 48.0996 198.174 49.0781 198.889C49.6426 199.303 50.2447 199.416 50.8093 199.266L83.062 189.97L82.8362 183.422L82.7985 183.384Z" fill="#3E3A39"/>
<path d="M58.9006 193.092C58.5243 193.092 58.1479 192.828 58.035 192.452C57.8845 191.963 58.1856 191.473 58.6748 191.323L83.0996 184.285C83.5512 184.135 84.0781 184.436 84.2286 184.887C84.3791 185.377 84.0781 185.866 83.5888 186.016L59.1641 193.054C59.1641 193.054 59.0135 193.054 58.9006 193.054V193.092Z" fill="#3E3A39"/>
<path d="M58.7127 195.986C58.3363 195.986 57.96 195.723 57.8471 195.346C57.6965 194.857 57.9976 194.368 58.4868 194.217L82.9116 187.18C83.3632 187.029 83.8901 187.33 84.0406 187.782C84.1912 188.271 83.8901 188.76 83.4008 188.911L58.9761 195.949C58.9761 195.949 58.8256 195.949 58.7127 195.949V195.986Z" fill="#3E3A39"/>
<path d="M47.6857 188.833C47.4223 188.833 47.1212 188.721 46.9707 188.457L29.0191 164.221C28.718 163.807 28.7933 163.242 29.2072 162.941C29.6212 162.64 30.1857 162.715 30.4868 163.129L48.4384 187.366C48.7395 187.78 48.6642 188.344 48.2503 188.645C48.0997 188.758 47.9115 188.833 47.7234 188.833H47.6857Z" fill="#3E3A39"/>
<circle cx="131" cy="189" r="5" fill="#498F63"/>
<path d="M32.9721 308.343C32.9721 308.343 27.1531 301.757 18.1284 310.085C9.66126 317.925 16.1075 331.793 22.6233 336.845C29.1044 341.898 33.8084 341.375 40.7075 339.494C47.6415 337.577 52.45 329.842 53.0772 322.072C53.8787 312.28 47.0143 302.559 32.9721 308.378" fill="#EA5C54"/>
<path d="M32.9374 341.901C29.4878 341.901 26.0382 340.821 21.9963 337.685C17.7801 334.409 13.3897 327.44 13.0761 320.402C12.9019 315.977 14.4002 312.144 17.4665 309.321C20.8464 306.185 24.3308 304.687 27.5365 304.861C30.3589 305.001 32.345 306.36 33.251 307.161C40.8819 304.199 45.7601 305.941 48.5476 307.928C52.5198 310.82 54.6802 316.255 54.1924 322.144C53.4955 330.855 47.9552 338.591 41.0561 340.507C38.1988 341.308 35.5855 341.901 32.9722 341.901H32.9374ZM27.0138 306.917C24.4354 306.917 21.6827 308.241 18.8603 310.854C16.247 313.259 14.9926 316.464 15.1668 320.297C15.4455 326.604 19.5572 333.12 23.2855 336.012C29.1393 340.542 33.3206 340.437 40.4637 338.451C46.5266 336.779 51.4048 329.81 52.0669 321.935C52.485 316.778 50.6731 312.039 47.2932 309.6C43.8436 307.091 39.0351 306.987 33.4252 309.321C33.007 309.496 32.5541 309.391 32.2405 309.043C32.2056 309.008 30.3937 307.056 27.3971 306.917C27.2926 306.917 27.1881 306.917 27.0487 306.917H27.0138Z" fill="#3E3A39"/>
<path d="M34.5056 312.872C31.0212 312.872 29.4183 310.851 29.3486 310.711C29.0002 310.258 29.0699 309.596 29.5577 309.248C30.0107 308.899 30.6727 308.969 31.0212 309.422C31.1257 309.561 33.286 312.105 38.6521 309.77C39.1747 309.526 39.8019 309.77 40.0458 310.293C40.2897 310.816 40.0458 311.443 39.4883 311.687C37.537 312.558 35.8994 312.837 34.5404 312.837L34.5056 312.872Z" fill="#3E3A39"/>
<path d="M34.0872 311.271C34.0872 310.958 34.0872 304.268 31.7178 301.445L34.0872 311.271Z" fill="white"/>
<path d="M34.0872 312.312C33.4948 312.312 33.0419 311.859 33.0419 311.266C33.0419 308.792 32.5889 304.088 30.9164 302.137C30.5331 301.684 30.6028 301.022 31.0209 300.674C31.4739 300.29 32.1359 300.36 32.4843 300.778C34.9931 303.705 35.1325 310.012 35.1325 311.266C35.1325 311.859 34.6447 312.312 34.0872 312.312Z" fill="#3E3A39"/>
<path d="M34.3311 308.866C34.3311 308.866 32.8328 297.403 46.7705 298.622C46.7705 298.622 47.328 310.713 34.3311 308.866Z" fill="#C9DB67"/>
<path d="M36.9094 310.05C36.0383 310.05 35.1324 309.981 34.1916 309.841C33.7386 309.772 33.3902 309.423 33.3205 308.97C33.3205 308.761 32.7281 303.988 35.9338 300.608C38.2684 298.169 41.9619 297.158 46.8401 297.576C47.3279 297.611 47.746 298.029 47.746 298.517C47.746 298.761 47.9551 304.127 44.2616 307.472C42.4148 309.179 39.906 310.016 36.8746 310.016L36.9094 310.05ZM35.3066 307.96C38.6168 308.308 41.1953 307.646 42.9723 306.043C45.1675 304.057 45.6553 301.061 45.7599 299.562C41.9967 299.388 39.2092 300.224 37.4321 302.036C35.5505 303.988 35.3066 306.671 35.3066 307.96Z" fill="#3E3A39"/>
<path d="M71.6491 316.257C71.6491 316.257 65.8301 309.671 56.8054 317.999C48.3383 325.839 54.7845 339.707 61.3003 344.76C67.7814 349.812 72.4853 349.289 79.3845 347.408C86.3185 345.491 91.127 337.721 91.7542 329.986C92.5557 320.194 85.6913 310.473 71.6491 316.292" fill="#EA5C54"/>
<path d="M71.6146 349.811C68.165 349.811 64.7154 348.731 60.6735 345.595C56.4574 342.319 52.067 335.351 51.7534 328.312C51.5792 323.887 53.0775 320.054 56.1438 317.232C59.5236 314.096 63.0081 312.597 66.2137 312.771C69.0361 312.911 71.0223 314.27 71.9282 315.071C79.5591 312.109 84.4373 313.852 87.2248 315.873C91.1971 318.765 93.3574 324.2 92.8696 330.089C92.1727 338.8 86.6325 346.536 79.7333 348.452C76.8761 349.253 74.2628 349.846 71.6495 349.846L71.6146 349.811ZM65.6911 314.862C63.1126 314.862 60.3599 316.186 57.5375 318.799C54.9242 321.204 53.6698 324.409 53.844 328.242C54.1228 334.549 58.2344 341.065 61.9627 343.957C67.8166 348.522 71.9979 348.382 79.141 346.396C85.2039 344.689 90.0821 337.755 90.7441 329.88C91.1622 324.723 89.3503 319.984 85.9704 317.545C82.5209 315.036 77.7124 314.932 72.1024 317.266C71.6843 317.441 71.1965 317.336 70.9177 316.988C70.8829 316.953 69.071 315.001 66.0744 314.862C65.9698 314.862 65.8305 314.862 65.7259 314.862H65.6911Z" fill="#3E3A39"/>
<path d="M73.1823 320.786C69.6979 320.786 68.0951 318.765 68.0254 318.625C67.677 318.172 67.7466 317.51 68.2345 317.162C68.6874 316.813 69.3495 316.883 69.6979 317.336C69.8024 317.475 71.9628 320.019 77.294 317.684C77.8166 317.441 78.4438 317.684 78.6877 318.207C78.9316 318.73 78.6877 319.357 78.1302 319.601C76.179 320.472 74.5413 320.751 73.1823 320.751V320.786Z" fill="#3E3A39"/>
<path d="M72.7639 319.217C72.7639 318.903 72.7639 312.213 70.3945 309.391L72.7639 319.217Z" fill="white"/>
<path d="M72.7644 320.265C72.1721 320.265 71.7191 319.812 71.7191 319.219C71.7191 316.746 71.2661 312.042 69.5936 310.09C69.2103 309.637 69.28 308.975 69.6981 308.627C70.1511 308.244 70.8131 308.313 71.1616 308.731C73.6704 311.658 73.8098 317.965 73.8098 319.219C73.8098 319.812 73.3219 320.265 72.7644 320.265Z" fill="#3E3A39"/>
<path d="M73.0083 316.776C73.0083 316.776 71.51 305.313 85.4477 306.532C85.4477 306.532 86.0053 318.623 73.0083 316.776Z" fill="#C9DB67"/>
<path d="M75.5867 317.957C74.7156 317.957 73.8096 317.887 72.8688 317.748C72.4159 317.678 72.0674 317.329 71.9977 316.876C71.9977 316.667 71.4054 311.894 74.611 308.514C76.9456 306.075 80.6391 305.064 85.5173 305.482C86.0051 305.517 86.4232 305.935 86.4232 306.423C86.4232 306.667 86.6323 312.033 82.9388 315.378C81.0921 317.086 78.5833 317.922 75.5518 317.922L75.5867 317.957ZM73.949 315.866C77.2592 316.18 79.8377 315.552 81.6147 313.95C83.8099 311.963 84.2977 308.967 84.4023 307.469C80.6043 307.294 77.8516 308.131 76.0745 309.942C74.1929 311.894 73.949 314.577 73.949 315.866Z" fill="#3E3A39"/>
<path d="M44.401 334.651C44.401 334.651 38.582 328.066 29.5574 336.394C21.0902 344.234 27.5364 358.102 34.0523 363.154C40.5333 368.206 45.2373 367.684 52.1365 365.767C59.0705 363.851 63.879 356.115 64.5062 348.345C65.3076 338.554 58.4433 328.832 44.401 334.651Z" fill="#EA5C54"/>
<path d="M44.3314 368.205C40.8818 368.205 37.4322 367.125 33.3903 363.989C29.1741 360.714 24.7838 353.745 24.4702 346.707C24.2959 342.281 25.7943 338.448 28.8605 335.626C32.2404 332.49 35.7249 330.992 38.9305 331.166C41.7529 331.305 43.7391 332.664 44.645 333.466C52.2759 330.504 57.1541 332.246 59.9416 334.267C63.9139 337.159 66.0742 342.595 65.5864 348.484C64.8895 357.195 59.3493 364.93 52.4501 366.846C49.5929 367.648 46.9796 368.24 44.3662 368.24L44.3314 368.205ZM38.4079 333.222C35.8294 333.222 33.0767 334.546 30.2543 337.159C27.641 339.563 26.3866 342.769 26.5608 346.602C26.8396 352.909 30.9512 359.425 34.6795 362.317C40.5334 366.846 44.7147 366.742 51.8578 364.756C57.9207 363.083 62.7989 356.114 63.4609 348.24C63.879 343.083 62.0671 338.344 58.6872 335.905C55.2377 333.396 50.4292 333.291 44.8192 335.626C44.4011 335.8 43.9133 335.696 43.6345 335.347C43.5997 335.312 41.7878 333.361 38.7912 333.222C38.6866 333.222 38.5821 333.222 38.4427 333.222H38.4079Z" fill="#3E3A39"/>
<path d="M45.9343 339.18C42.4499 339.18 40.847 337.159 40.7773 337.02C40.4289 336.567 40.4986 335.905 40.9864 335.556C41.4394 335.208 42.1014 335.278 42.4499 335.731C42.5544 335.87 44.7496 338.414 50.0459 336.079C50.5686 335.835 51.1958 336.079 51.4397 336.602C51.6836 337.124 51.4397 337.752 50.8822 337.995C48.9309 338.867 47.2932 339.145 45.9343 339.145V339.18Z" fill="#3E3A39"/>
<path d="M45.4812 337.576C45.4812 337.262 45.4812 330.572 43.1118 327.75L45.4812 337.576Z" fill="white"/>
<path d="M45.4812 338.624C44.8889 338.624 44.4359 338.171 44.4359 337.579C44.4359 335.105 43.9829 330.401 42.3104 328.449C41.9271 327.996 41.9968 327.334 42.4149 326.951C42.8679 326.568 43.5299 326.637 43.8784 327.056C46.3872 329.982 46.4917 336.289 46.4917 337.544C46.4917 338.136 46.0039 338.589 45.4464 338.589L45.4812 338.624Z" fill="#3E3A39"/>
<path d="M45.7256 335.171C45.7256 335.171 44.2273 323.707 58.165 324.927C58.165 324.927 58.7225 337.018 45.7256 335.171Z" fill="#C9DB67"/>
<path d="M48.3386 336.363C47.4675 336.363 46.5616 336.293 45.6208 336.154C45.1678 336.084 44.8194 335.736 44.7497 335.283C44.7497 335.074 44.1573 330.3 47.363 326.92C49.6976 324.481 53.3911 323.471 58.2693 323.889C58.7571 323.924 59.1752 324.342 59.1752 324.829C59.1752 325.073 59.3843 330.439 55.6908 333.784C53.844 335.492 51.3352 336.328 48.3038 336.328L48.3386 336.363ZM46.701 334.272C50.0112 334.586 52.5896 333.959 54.3667 332.321C56.5619 330.335 57.0497 327.338 57.1542 325.84C53.3911 325.666 50.5687 326.502 48.8265 328.314C46.9449 330.265 46.701 332.948 46.701 334.237V334.272Z" fill="#3E3A39"/>
<path d="M22.484 314.547C22.1356 315.628 21.2993 316.324 20.6373 316.08C19.9752 315.871 19.6965 314.826 20.0449 313.746C20.3934 312.666 21.2296 311.969 21.8917 312.213C22.5537 312.422 22.8325 313.467 22.484 314.547Z" fill="white"/>
<path d="M33.3556 341.063C33.0072 342.143 32.1709 342.84 31.5089 342.596C30.8468 342.387 30.5681 341.342 30.9165 340.262C31.265 339.181 32.1012 338.484 32.7633 338.728C33.4253 338.937 33.7041 339.983 33.3556 341.063Z" fill="white"/>
<path d="M63.3561 323.223C63.0077 324.303 62.1714 325 61.5094 324.756C60.8473 324.547 60.5686 323.502 60.917 322.422C61.2654 321.342 62.1017 320.645 62.7638 320.889C63.4258 321.098 63.7045 322.143 63.3561 323.223Z" fill="white"/>
<circle cx="130" cy="333" r="5" fill="#498F63"/>
<circle cx="532" cy="45" r="5" fill="#498F63"/>
<circle cx="532" cy="189" r="5" fill="#498F63"/>
<circle cx="532" cy="333" r="5" fill="#498F63"/>
</svg>
