<svg width="722" height="376" viewBox="0 0 722 376" fill="none" xmlns="http://www.w3.org/2000/svg">
<path d="M487 117.5C487 182.407 539.593 235 604.5 235C669.407 235 722 182.407 722 117.5C722 52.5926 669.407 0 604.5 0C539.593 0 487 52.5926 487 117.5Z" fill="#A4A4A4"/>
<path d="M514 117.5C514 167.52 554.479 208 604.5 208C654.52 208 695 167.428 695 117.5C695 67.5722 654.52 27 604.5 27C554.479 27 514 67.5722 514 117.5Z" fill="white"/>
<path d="M650.87 150.258C650.87 150.258 650.592 150.258 650.407 150.351C650.407 150.722 650.5 151.093 650.592 151.464C650.778 151.464 651.055 151.371 651.055 151.278C651.055 150.907 650.963 150.536 650.87 150.165M582.774 149.887C582.774 149.887 582.126 149.701 581.849 149.701C581.571 151 581.294 152.299 581.108 153.598C581.386 153.598 581.571 153.691 581.849 153.784C582.126 152.485 582.496 151.186 582.774 149.887ZM588.418 111.845C588.048 108.32 588.418 109.711 587.215 106.371C585.179 109.062 585.92 108.134 584.439 109.711C584.162 109.062 583.607 108.505 583.607 107.856C583.607 106 583.792 104.052 580.831 105.165C580.553 105.258 580.091 105.165 579.906 105.165C577.593 103.031 575.742 100.526 573.152 98.5773C571.394 97.1856 570.283 94.866 569.081 92.8247C567.23 89.8557 565.287 86.8866 563.992 83.6392C561.864 78.1649 572.319 72.8763 578.148 79C579.443 80.3917 579.906 82.6186 582.034 80.1134C588.788 86.1443 591.471 88 593.691 90.3196C594.432 91.1546 593.691 94.4021 596.282 91.8041C600.261 95.9794 598.873 94.5876 601.556 96.3505C601.833 96.5361 602.296 96.6289 602.388 96.9072C603.406 99.7835 603.591 98.1134 605.442 97.2783C608.31 95.9794 608.865 93.8454 610.345 91.8969C612.011 89.7629 615.249 89.9485 616.544 86.4227C617.655 83.3608 620.985 81.0412 623.391 78.4433C623.669 78.165 623.946 78.0722 624.316 77.8866C624.779 79.1856 624.594 78.5361 625.241 80.2062C627.092 79.0928 624.964 80.6701 629.96 75.7526C630.145 75.567 630.793 75.567 630.885 75.7526C632.458 78.9072 633.846 76.5876 634.124 75.2887C635.049 70.8351 639.86 72.5979 641.895 70C642.728 72.134 642.358 71.0206 643.376 74.1753C646.336 72.7835 645.226 73.433 647.632 71.7629C648.094 74.4536 647.632 74.268 651.333 74.6392C650.037 79.6495 649.482 76.9588 649.76 80.299C651.24 79.4639 650.592 79.7423 651.98 79.1856C652.073 79.6495 652.443 80.2062 652.35 80.4845C650.407 84.1031 648.464 87.6289 646.336 91.1546C645.041 93.1959 641.618 93.2887 641.71 96.8144C641.71 97.5567 638.935 98.299 637.454 99.134C636.622 99.5052 635.789 99.8763 635.141 100.433C634.401 100.99 635.049 103.959 632.736 101.732C632.736 101.732 632.458 101.732 632.366 101.732C630.793 103.68 629.22 105.629 627.554 107.577C626.167 109.155 624.224 110.546 623.483 112.402C622.928 113.887 623.669 115.928 624.131 117.598C624.224 117.969 627.277 117.598 627.369 117.969C631.348 126.598 629.22 123.443 632.551 126.134C633.013 126.505 633.568 126.876 633.846 127.34C634.956 129.103 635.789 131.144 637.084 132.629C637.824 133.557 639.675 133.464 640.6 134.299C641.525 135.134 641.988 136.526 642.821 137.546C644.208 139.309 645.781 140.887 646.984 142.835C647.539 143.763 646.984 145.247 647.169 146.361C647.169 147.103 647.632 147.753 647.909 148.495C649.667 147.567 648.464 148.124 652.443 146.639C652.628 148.031 652.998 149.515 652.998 150.907C652.998 161.113 653.183 161.948 649.945 165.01C649.297 165.66 646.521 164.546 645.689 164.639C644.023 165.01 642.358 165.567 640.693 165.753C640.323 165.753 639.86 164.454 639.305 164.082C638.565 163.619 637.639 163.619 636.807 163.34C632.643 161.856 632.551 161.577 631.07 160.835C630.885 160.742 630.515 160.835 630.423 160.649C629.22 158.701 628.202 156.474 626.814 154.711C625.612 153.227 623.761 152.392 622.466 150.907C621.818 150.258 622.003 148.959 621.633 147.938C621.356 147.103 620.893 146.361 620.523 145.526C619.875 145.897 619.228 146.639 618.672 146.546C617.932 146.546 617.007 145.99 616.637 145.433C614.139 141.814 611.826 138.01 609.235 134.485C608.125 132.907 603.129 133.928 601.833 135.412C601.001 136.34 599.243 136.433 598.41 137.454C596.282 139.773 594.524 142.371 592.489 144.783C592.304 145.062 590.268 144.969 590.083 145.34C589.621 146.546 589.435 147.845 588.88 149.052C588.695 149.515 587.77 149.608 587.215 149.887C584.162 151.649 581.571 157.031 577.222 160.186C574.539 162.134 571.024 162.691 568.34 165.474C567.323 166.588 563.067 165.753 560.939 164.639C558.626 163.34 558.348 157.124 560.291 156.103C565.75 153.505 561.124 149.33 563.807 144.691C564.64 143.299 565.565 142 566.49 140.701V140.515C569.358 139.309 570.283 136.619 571.764 134.206C573.244 131.794 576.852 131.144 577.037 127.433C577.037 126.041 577.685 123.165 580.646 125.021C580.831 125.113 581.941 123.722 582.589 122.979C583.329 122.144 581.941 118.155 585.364 121.124C585.55 121.309 586.382 121.031 586.567 120.753C592.581 113.701 591.101 115 591.471 112.309C590.823 112.309 590.083 112.68 589.435 112.495C588.973 112.402 588.695 111.753 588.788 111.845" fill="#C6C5C5"/>
<path d="M235 117.5C235 182.407 182.407 235 117.5 235C52.5926 235 0 182.407 0 117.5C0 52.5926 52.5926 0 117.5 0C182.407 0 235 52.5926 235 117.5Z" fill="#C24848"/>
<path d="M208 117.5C208 167.52 167.52 208 117.5 208C67.4795 208 27 167.428 27 117.5C27 67.5722 67.4795 27 117.5 27C167.52 27 208 67.5722 208 117.5Z" fill="#F76969"/>
<path d="M113.254 64.0742C113.254 64.0742 113.069 64.3533 112.976 64.4464C113.254 64.6325 113.069 64.7256 113.717 64.4464C113.624 64.3533 113.439 64.2603 113.347 64.0742M153.419 113.951C153.974 112.742 154.344 112.276 154.344 111.718C154.344 111.346 153.882 110.88 153.604 110.415C152.308 112.835 152.493 111.904 153.419 113.951ZM153.234 133.493C156.01 128.002 153.326 113.765 148.977 109.578C147.866 108.554 144.72 101.761 143.702 100.365C142.406 98.5973 140.37 97.2946 139.074 95.4335C136.668 92.0835 136.853 88.4544 134.262 89.7572C132.318 90.6877 130.468 91.4322 128.987 89.0127C128.617 88.4544 127.691 87.71 127.136 87.803C123.804 88.2683 122.231 86.7794 121.861 83.5225C121.861 83.1503 121.398 82.7781 121.12 82.4989C121.12 82.4989 120.565 82.7781 120.473 82.9642C120.102 85.3836 119.27 85.2906 117.789 83.6156C117.419 83.2434 116.401 83.6156 115.66 83.5225C112.236 83.1503 108.719 86.3142 105.388 83.1503C105.203 82.9642 104.185 83.1503 104.092 83.3364C103.444 85.1045 103.629 86.8725 100.483 86.5933C97.9841 86.3142 95.7631 90.3155 92.524 87.803C92.4314 87.803 91.9687 87.8961 91.7836 88.0822C87.3414 93.2002 89.7476 89.478 80.8633 104.46C80.7707 104.646 80.6782 104.739 80.5856 104.925C77.5316 114.417 76.8838 107.903 80.4005 130.236C80.4931 130.794 80.7707 131.352 81.1409 131.911C82.344 133.679 84.7502 135.447 84.5651 137.029C84.1024 141.588 89.3774 141.681 90.0253 145.124C90.0253 145.218 90.488 145.124 90.6731 145.311C92.4314 146.706 96.3183 146.148 95.1152 150.242C95.1152 150.336 95.3929 150.708 95.578 150.708C96.9661 150.708 98.6319 150.336 99.835 150.894C102.796 152.29 105.48 154.151 108.442 155.733C109.922 156.477 112.699 155.174 114.18 154.988C116.493 154.802 119.084 155.453 121.028 154.523C124.545 152.848 125.748 147.73 130.375 147.265C130.468 147.265 130.56 146.799 130.745 146.706C131.393 146.427 132.133 146.334 132.689 146.055C134.725 145.124 137.594 145.869 138.797 144.938C142.128 142.333 144.812 138.704 147.681 135.54C147.774 135.447 148.051 135.168 148.051 135.261C151.013 137.215 150.55 134.051 151.105 133.027C151.846 131.818 151.938 130.236 152.401 128.84C152.678 130.329 152.864 131.725 153.141 133.4M163.599 152.104C166.56 146.613 165.912 148.288 165.172 146.055C163.414 147.823 164.524 145.404 162.396 153.592C162.211 154.151 161.933 154.709 161.563 155.081C161.193 155.36 159.064 153.406 158.694 153.127C158.324 153.872 157.676 154.709 157.768 155.453C157.954 158.431 157.768 160.758 153.789 159.269C152.308 158.71 149.81 162.898 148.051 164.852C147.681 165.224 144.812 164.387 144.812 164.48C142.591 167.923 138.426 166.992 135.465 168.853C134.91 169.226 133.984 169.039 133.151 169.132C123.434 170.807 123.156 172.11 118.437 172.762C116.586 173.041 114.457 171.738 112.514 171.645C111.403 171.645 110.2 172.669 108.997 172.855C105.11 173.413 101.686 172.389 99.0021 169.319C98.4469 168.667 96.7811 168.388 96.1332 168.667C92.8016 170.528 91.0433 167.644 88.7296 166.527C86.8787 165.596 85.1203 164.573 83.362 163.549C82.8993 163.27 79.8453 160.292 79.4751 159.92C77.5316 157.873 80.7707 160.199 74.8478 156.57C73.9224 156.012 72.9969 155.547 71.7938 152.941C71.0535 151.359 68.4622 145.497 67.6293 142.612C67.074 142.984 66.5187 143.449 66.7964 143.263C66.056 141.961 64.8529 140.472 64.2976 138.797C63.8349 137.494 64.2977 135.819 63.9275 134.423C63.6498 133.4 62.6318 132.469 61.984 131.539C61.7989 131.259 61.5213 130.887 61.4287 130.608C59.6704 116.836 59.4853 124.001 61.1511 99.5279C61.1511 99.2487 61.2437 98.8765 61.4287 98.8765C66.056 98.5043 63.1871 94.5029 64.4827 92.5488C65.7784 90.6877 66.7964 87.8961 68.6473 87.2447C74.3851 85.0114 74.5702 79.242 78.7347 75.8921C79.3825 77.5671 79.1049 76.6365 79.8452 79.242C84.1949 69.0061 83.5471 70.8671 85.398 70.588C85.398 71.2394 85.5831 71.9838 85.6756 72.6352C82.4365 72.9143 82.9918 73.3796 83.0844 77.1948C85.398 75.6129 82.1589 78.2184 95.578 67.145C96.2258 66.5867 96.8736 66.0283 97.614 65.5631C98.632 65.0047 101.593 66.3075 102.796 66.4005C103.167 66.4005 103.629 65.2839 103.907 64.5395C104.833 61.9339 106.036 61.0034 108.257 63.3298C108.534 63.6089 109.275 63.9811 109.275 63.9811C111.958 60.7242 113.994 64.6325 116.401 64.6325C116.678 64.6325 117.141 64.6325 117.234 64.4464C119.362 61.7478 121.12 63.795 123.249 64.6325C124.637 65.1908 126.488 64.9117 128.061 65.0047C129.079 65.0047 130.375 64.6325 131.023 65.1908C132.318 66.1214 132.874 68.4477 135.095 66.4005C136.298 69.0061 135.65 67.9825 137.316 70.4019C139.259 68.7269 138.612 69.2852 139.537 68.3547C139.722 68.6338 140 68.913 140.185 69.2852C140.74 70.4019 141.11 71.6116 141.758 72.6352C142.036 73.0074 143.331 73.2866 143.516 73.0074C146.478 69.9366 148.421 72.5421 150.365 74.2171C152.864 76.3574 155.362 78.4976 157.676 80.7309C160.082 83.0573 157.676 89.0127 162.673 86.5003C162.766 86.5003 163.229 86.6864 163.321 86.8725C165.635 91.6183 167.301 96.8293 170.447 100.924C172.576 103.715 171.095 106.228 171.928 108.554C172.391 109.857 174.149 110.787 174.519 112.09C175.074 114.23 175.074 116.65 174.889 118.883C174.612 123.908 172.853 129.119 173.871 133.772C174.982 139.076 168.596 140.751 169.707 145.404C170.077 139.913 170.355 141.961 169.707 139.913C167.578 141.402 169.707 137.959 165.172 152.662C164.709 152.476 164.154 152.29 163.691 152.01" fill="white"/>
<g clip-path="url(#clip0_501_4508)">
<path d="M273.072 374.961L260.145 375.574L251 176.058L263.875 175.445L273.072 374.961Z" fill="#820F0D"/>
<path d="M464.195 165.966L251.389 176.18L258.189 317.638L470.995 307.424L464.195 165.966Z" fill="#E02600"/>
<path d="M385.574 209.6C383.99 206.639 381.896 204.086 379.239 201.993C376.582 199.9 373.466 198.317 369.838 197.296C366.211 196.224 362.277 195.815 357.934 196.02C353.846 196.224 350.168 197.041 346.796 198.572C343.424 200.104 340.512 202.146 338.059 204.801C335.607 207.404 333.665 210.57 332.235 214.195C332.03 214.756 331.826 215.318 331.622 215.93C329.936 220.985 333.87 226.141 339.183 225.886H339.95C343.27 225.681 346.081 223.435 346.949 220.27C348.788 213.378 352.722 209.804 358.7 209.498C360.59 209.396 362.328 209.651 363.86 210.161C365.444 210.672 366.824 211.489 367.999 212.51C369.174 213.531 370.094 214.807 370.809 216.237C371.524 217.666 371.882 219.249 371.984 221.036C371.984 221.955 371.984 222.823 371.882 223.639C371.78 224.456 371.473 225.324 370.911 226.294C370.349 227.213 369.531 228.336 368.459 229.562C367.386 230.787 365.853 232.318 363.963 234.105C359.518 238.138 356.503 242.019 354.919 245.694C354.102 247.583 353.591 250.085 353.284 253.25C353.182 254.271 353.131 255.394 353.08 256.569C352.927 260.959 356.605 264.584 361.05 264.38C364.984 264.176 368.152 261.01 368.254 257.028C368.356 254.322 368.612 252.382 369.072 251.208C369.48 250.187 370.247 249.013 371.473 247.583C372.699 246.154 374.334 244.52 376.378 242.682C381.078 238.445 384.246 234.514 385.83 230.991C387.567 227.519 388.333 223.69 388.129 219.555C387.976 215.93 387.107 212.663 385.523 209.702" fill="white"/>
<path d="M361.615 270.25H361.359C356.557 270.505 352.878 274.59 353.134 279.44C353.389 284.29 357.425 288.017 362.228 287.813H362.483C367.286 287.557 370.965 283.473 370.709 278.623C370.454 273.773 366.417 270.046 361.615 270.25Z" fill="white"/>
</g>
<defs>
<clipPath id="clip0_501_4508">
<rect width="220" height="209.573" fill="white" transform="translate(251 166)"/>
</clipPath>
</defs>
</svg>
