<svg width="49" height="54" viewBox="0 0 49 54" fill="none" xmlns="http://www.w3.org/2000/svg">
<path d="M35.3382 16.2794C35.3382 3.89118 44.0735 0.264706 48.4412 0H15.4286C6.9076 0 0 6.90761 0 15.4286V36.3309C0 46.0893 7.91073 54 17.6691 54C27.4275 54 35.3382 46.0893 35.3382 36.3309V16.2794Z" fill="#F3A8BB"/>
<path d="M10.5621 38.2326C11.2021 37.6353 11.8954 37.0166 12.6421 36.3766C13.4101 35.7153 14.1461 35.0966 14.8501 34.5206C16.2794 33.3686 17.3888 32.4193 18.1781 31.6726C18.9888 30.926 19.6501 30.158 20.1621 29.3686C20.6954 28.5793 20.9621 27.79 20.9621 27.0006C20.9621 26.2753 20.8234 25.6353 20.5461 25.0806C20.2688 24.526 19.8848 24.0993 19.3941 23.8006C18.9034 23.4806 18.3381 23.3206 17.6981 23.3206C16.8874 23.3206 16.1088 23.566 15.3621 24.0566C14.6154 24.5473 14.0714 25.1873 13.7301 25.9766L9.6021 24.1206C10.3061 22.5633 11.4154 21.2833 12.9301 20.2806C14.4448 19.278 16.0341 18.7766 17.6981 18.7766C19.2768 18.7766 20.6741 19.1286 21.8901 19.8326C23.1274 20.5153 24.0874 21.486 24.7701 22.7446C25.4741 23.982 25.8261 25.4006 25.8261 27.0006C25.8261 28.558 25.4101 30.03 24.5781 31.4166C23.7674 32.782 22.7861 33.998 21.6341 35.0646C20.5034 36.11 19.0101 37.358 17.1541 38.8086C15.5328 40.0886 14.3381 41.0806 13.5701 41.7846L10.5621 38.2326ZM10.5621 38.2326H26.1461V42.4566H10.8821L10.5621 38.2326Z" fill="white"/>
</svg>
