<svg width="572" height="49" viewBox="0 0 572 49" fill="none" xmlns="http://www.w3.org/2000/svg">
<rect width="351" height="49" rx="8" fill="#E4F2FC"/>
<path d="M13.5347 19.3784C14.3019 19 15.4038 18.3832 16.1943 17.9904C16.474 17.8177 16.7686 17.6676 17.0865 17.5031C15.806 17.8494 14.4789 18.2244 13.2134 18.5932C11.8332 18.9375 11.4911 16.9278 12.9203 16.807C14.0718 16.7624 15.2615 16.726 16.4364 16.667C15.2888 16.5188 14.1031 16.3624 12.9471 16.2511C11.5323 16.0457 12.0491 14.0451 13.4049 14.509C14.5465 14.9465 15.7114 15.3695 16.8763 15.7926C16.664 15.6698 16.4751 15.5327 16.2628 15.4099C15.5051 14.9575 14.4523 14.3066 13.6861 13.8912C12.4975 13.1338 13.8037 11.5342 14.8506 12.4743C15.7001 13.3142 16.6026 14.1848 17.5051 15.0554C16.8357 14.0409 16.1047 13.0327 15.4035 12.0695C14.6448 10.9198 16.5204 9.98404 17.0545 11.2407C17.3525 12.0403 17.774 13.1762 18.0953 13.9614C18.1612 14.111 18.2272 14.2607 18.2698 14.4247C18.0626 13.3153 17.8405 12.1833 17.6099 11.0882C17.4002 9.7265 19.5123 9.59658 19.4611 10.9607C19.3902 11.7977 19.3346 13.0059 19.2785 13.8655C19.2641 14.1916 19.2498 14.5178 19.2354 14.844C19.3261 14.5341 19.4169 14.2243 19.531 13.9C19.778 13.0813 20.1008 11.9301 20.3329 11.0888C20.751 9.78369 22.699 10.5483 22.0602 11.7676C21.1779 13.2641 20.3021 14.82 19.4495 16.3616C21.4599 17.8174 23.2903 19.4478 24.9193 21.1708C24.4492 20.1601 23.9875 19.1125 23.509 18.1388C22.9601 16.8596 24.9824 16.2457 25.2918 17.6094C25.4842 18.6963 25.7063 19.8282 25.9518 20.9458C25.9473 20.79 25.9513 20.5971 25.9468 20.4412C25.9414 19.5879 25.9355 18.3859 25.8919 17.5245C25.9048 16.1522 28.0174 16.371 27.7521 17.7087C27.4505 18.9419 27.1554 20.2346 26.8836 21.5128C27.4673 20.3593 28.0446 19.1463 28.5901 17.9846C29.2289 16.7653 31.0246 17.846 30.1736 18.9425C29.0027 20.2999 27.8298 21.7536 26.7119 23.1417C28.4262 25.1928 29.8713 27.2831 31.0723 29.302C31.0529 29.1236 31.0103 28.9596 30.991 28.7811C30.8392 27.9547 30.634 26.7488 30.4823 25.9224C30.2725 24.5606 32.3995 24.4533 32.3633 25.8399C32.2715 26.9436 32.1713 28.0842 32.1092 29.233C32.4004 28.1332 32.6766 27.0108 32.9445 25.9253C33.3244 24.6121 35.304 25.3254 34.6801 26.5672C34.2507 27.3082 33.6838 28.3879 33.2925 29.1371L32.8293 30.0259C33.0495 29.763 33.2845 29.5227 33.4814 29.2743C34.0552 28.6028 34.8641 27.691 35.4146 27.0339C36.3484 26.0132 37.8138 27.4882 36.6761 28.3491C35.2057 29.352 33.7333 30.4514 32.3075 31.5219C33.7406 34.1907 34.6728 36.5977 35.1905 38.2769C35.2545 38.523 35.1573 38.7734 34.9708 38.8885C34.9242 38.9173 34.8776 38.946 34.831 38.9748C34.5299 39.0655 34.2264 38.9038 34.1327 38.6127C33.6448 36.9785 32.7488 34.6761 31.3603 32.0749C29.6008 32.59 27.7713 33.1482 26.0416 33.7084C24.6763 34.0753 24.2727 32.0718 25.6871 31.9284C27.0082 31.8426 28.3526 31.7424 29.697 31.6422C28.3586 31.4532 27.0052 31.2416 25.7198 31.0833C24.3134 30.841 24.8833 28.8711 26.2158 29.3494C27.281 29.7705 28.3844 30.1998 29.4878 30.6292C28.5029 30.0315 27.4799 29.4257 26.4866 28.8649C25.2979 28.1075 26.6042 26.5079 27.651 27.4481C28.2521 28.0606 29.1397 28.9086 29.7641 29.5068C29.8766 29.6277 29.9976 29.7116 30.1102 29.8325C28.9687 27.9038 27.545 25.8954 25.9284 23.9427C25.2291 24.3744 24.5299 24.806 23.839 25.2008C23.0932 25.6612 22.0443 26.3087 21.2984 26.7691C20.0948 27.4804 19.1358 25.6294 20.4882 25.1436C21.7389 24.7522 23.0213 24.3095 24.3038 23.8669C22.9509 24.004 21.598 24.1411 20.2983 24.309C18.869 24.4298 18.8959 22.3826 20.3127 22.4916C21.1845 22.6197 22.4169 22.7473 23.2887 22.8754C23.4647 22.8936 23.6408 22.9119 23.8168 22.9301C22.6966 22.5746 21.5679 22.2561 20.4541 21.9601C19.1131 21.5188 19.9419 19.6429 21.194 20.2977C21.9369 20.7275 23.0363 21.3496 23.7792 21.7794C23.9383 21.8715 24.1208 21.9492 24.2949 22.0639C22.6808 20.3634 20.8886 18.7412 18.9164 17.2935C17.5268 18.4686 16.0822 19.7094 14.7456 20.9152C13.661 21.8069 12.4372 20.1511 13.6557 19.4623" fill="#F3C574"/>
<path d="M37.2467 18.5741C38.4513 18.5602 39.6325 18.5607 40.852 18.5694C39.6618 18.2571 38.4632 17.9818 37.2943 17.7515C36.0109 17.4968 36.5575 15.5412 37.7585 16.0689C38.6859 16.48 39.6514 16.8992 40.5852 17.3698C39.7466 16.7453 38.8848 16.1351 38.0145 15.5619C36.8873 14.7983 38.0939 13.1967 39.0708 14.1801C39.8588 15.0262 40.6701 15.8579 41.4347 16.7185C40.8417 15.7203 40.2337 14.6996 39.5707 13.7446C38.7971 12.5723 40.5581 11.6121 41.1135 12.9508C41.5583 14.0722 41.9649 15.1855 42.3715 16.2988C42.196 15.138 42.0056 13.9547 41.7537 12.7777C41.4761 11.3627 43.5247 11.3354 43.5182 12.7672C43.4879 13.8646 43.4576 14.962 43.3891 16.0513C43.6485 15.0028 43.8846 13.9687 44.0677 12.9039C44.3648 11.5148 46.3171 12.4353 45.7845 13.716C45.2474 14.8408 44.7251 15.9881 44.135 17.0821C44.9438 16.1703 45.7294 15.2729 46.4936 14.2935C47.3511 13.2565 48.8085 15.1172 47.7492 15.898C46.3105 16.8496 44.8867 17.8237 43.4481 18.7753C44.4056 21.0714 45.3423 23.6342 46.0945 26.2157C46.1183 25.0588 46.104 23.8937 46.0515 22.7205C46.0198 21.2806 48.0242 21.5344 47.81 22.9992C47.6036 24.0784 47.4122 25.1802 47.1676 26.2513C47.5947 25.2579 47.9835 24.2564 48.3426 23.2098C48.8455 21.8841 50.654 23.0838 49.9007 24.2785C49.1811 25.3256 48.4997 26.3808 47.7503 27.3828C48.6866 26.6144 49.608 25.8235 50.523 24.9731C50.8831 24.6239 51.4643 24.7093 51.7851 25.1458C52.1655 25.6725 52.0182 26.4932 51.5222 26.7359C49.9581 27.4476 48.4004 28.2188 46.8511 28.9531C46.8045 28.9819 47.7927 33.5118 47.9038 34.0778C47.9509 34.3977 48.0744 34.7339 48.0367 35.0745C48.0009 35.3186 47.8804 35.5834 47.573 35.6146C47.1425 35.6582 46.9531 35.1723 46.9293 34.838C46.7344 33.4988 45.895 29.1944 45.8335 29.2006C44.0988 29.2562 42.3706 29.3712 40.6339 29.5232C39.3212 29.5721 39.3694 27.607 40.6548 27.7653C41.832 27.9586 43.0178 28.115 44.2184 28.294C43.1085 27.8052 41.9521 27.3452 40.8403 26.9528C39.6223 26.499 40.4659 24.6456 41.5867 25.3498C42.4421 25.9005 43.3124 26.4737 44.1743 27.0838C43.4458 26.3279 42.694 25.5863 41.9254 24.9186C40.94 23.9722 42.3802 22.5755 43.2004 23.719C43.8252 24.6659 44.5115 25.6065 45.1279 26.5903C44.3757 24.0088 43.4539 21.4685 42.4964 19.1724C40.8023 19.4884 39.0999 19.8414 37.4271 20.2395C36.1487 20.4893 35.8661 18.5697 37.1787 18.5209" fill="#F3C574"/>
<path d="M63.04 21.28C62.96 21.28 62.92 21.24 62.92 21.2C62.4 20.8 62.24 19.8 62.24 19.2C62.2 18.24 62.08 17.28 62.08 16.36C62.08 15 62.04 13.36 62.28 12.04C62.44 11.2 62.76 10.72 63.56 10.4C64.28 10.12 65.04 10.04 65.8 9.96C66.72 9.88 67.68 9.96 68.64 9.96H76.24C78.96 9.96 78.6 9.96 81.28 9.92C81.76 9.92 82.2 9.92 82.68 9.96C83.68 10 84.8 10.04 85.72 10.48C86.76 10.92 87.08 12.04 87.12 13.08C87.2 14.28 87.08 15.8 87.08 17C87.04 18.08 87.08 19.16 86.8 20.2C86.64 20.8 86.52 21.28 85.88 21.48C85.32 21.68 84.6 21.72 84.04 21.72H66.76C66.24 21.72 65.72 21.68 65.2 21.64C64.52 21.6 63.64 21.68 63.04 21.28ZM85.24 28.92C82.6 29 80.52 29.08 77.84 29.08C77.8 30.2 77.72 31.24 77.72 32.76C77.48 33.88 76 34.56 74.92 34.52C73.32 34.44 72.44 33.8 72.28 32.2C72.16 31.16 72.32 30.04 72.32 29C69.88 29 63.48 28.92 61.24 28.76C60.4 28.68 60 28.64 59.32 28C58.96 27.68 58.8 27.08 58.8 26.52C58.8 26 59 25.48 59.32 25.16C60.12 24.32 62.08 24.36 62.16 24.36H85.04C85.84 24.36 86.64 24.36 87.4 24.4C88.12 24.44 88.92 24.56 89.48 25.08C90.04 25.52 90.04 26.04 90.04 26.68C90.04 27.48 89.56 28.16 88.76 28.44C87.68 28.84 86.36 28.88 85.24 28.92ZM86.36 36.48C86.44 36.52 87.92 36.88 88.08 38C88.24 39 88.08 39.8 87.6 40.36C87 41.12 86.12 41.16 86.08 41.16H64.24C62.2 41.16 60.96 40.44 60.96 39.24V35.68C60.92 35.08 60.92 34.48 60.96 33.88C61.04 32.76 61.88 32 63 32C63.28 32 63.84 32.04 64.08 32.12C65.44 32.56 65.52 33.92 65.6 35.12C65.6 35.56 65.64 36.04 65.76 36.4C65.88 36.44 66.68 36.56 68.56 36.56C70.16 36.56 71.64 36.48 71.68 36.48H86.36ZM66.84 16.6C66.84 16.84 66.84 17.12 66.96 17.24C67.2 17.44 68.12 17.32 68.12 17.32H78.64C78.64 17.32 80.56 17.48 81.52 17.36C82.08 17.32 82.08 17.08 82.16 16.6C82.2 16.16 82.28 15.24 81.96 14.84C81.6 14.4 80.76 14.48 80.28 14.52H76.64C76.28 14.48 71.44 14.52 71.08 14.52C69.96 14.44 68.84 14.48 67.68 14.52C67.2 14.52 67.04 14.44 66.92 14.92C66.84 15.28 66.84 15.92 66.84 16.24V16.6ZM95.2516 33.72C95.4516 33.64 99.1316 33.8 99.8116 33.8C99.8516 33.16 99.9316 30.52 100.012 29.2C99.5316 29.08 99.0916 28.96 98.6516 28.76C95.6516 27.52 93.3316 25.08 93.3316 21.56C93.3316 19.64 93.8916 18.16 94.8116 17H94.3716C93.0916 17 92.0116 16.04 92.0116 14.88C92.0116 13.68 93.0916 12.72 94.3716 12.72H99.6516V11.08C99.6516 10.04 100.692 9.28 101.972 9.28C103.292 9.28 104.332 10.04 104.332 11.08V12.72H109.852C111.172 12.72 112.252 13.68 112.252 14.88C112.252 16.04 111.172 17 109.852 17H109.732C110.652 18.16 111.252 19.64 111.252 21.56C111.252 24.04 110.052 26.08 108.052 27.6C107.052 28.32 105.932 28.84 104.772 29.16C104.852 30.4 104.852 33.16 104.852 33.76V33.8H110.172C111.052 33.8 111.772 33.96 112.292 34.28C113.492 35 113.452 36.96 112.932 37.92C112.452 38.76 111.412 38.84 110.572 38.84H94.7716C94.7316 38.84 93.3716 38.72 92.6516 38.4C92.1316 38.12 91.7316 37.52 91.6116 36.76C91.4916 35.92 91.7716 35.12 92.2916 34.64C93.2516 33.84 94.3316 33.72 95.2516 33.72ZM121.772 22.96H121.852C122.132 22.92 122.372 23 122.612 23C122.932 23.04 123.212 23.08 123.532 23.12C124.132 23.24 124.772 23.48 125.092 24.08C125.252 24.4 125.332 24.76 125.332 25.16C125.332 25.52 125.332 25.92 125.252 26.28C125.132 26.68 125.012 27.24 124.692 27.52C124.372 27.76 123.972 27.96 123.572 28.04C122.732 28.16 121.292 28.04 120.452 28.08C120.372 28.12 120.332 28.12 120.332 28.12C120.332 28.12 120.332 28.16 120.292 28.28C120.252 29.6 120.292 30.76 120.292 32.12C120.332 33.48 120.332 34.88 120.292 36.2V36.76C120.292 38.16 120.332 40.2 119.372 41.2C119.012 41.52 118.572 41.72 118.052 41.72H117.972C115.372 41.6 115.132 38.48 115.132 36.8V13.04C115.132 12.96 115.052 10.96 115.932 10.08C116.332 9.72 117.172 9.52 117.732 9.52C118.332 9.52 118.892 9.76 119.252 10.12C119.932 10.88 120.012 11.72 120.052 12.6C120.092 12.76 120.092 12.92 120.132 13.12C120.212 13.96 120.212 14.96 120.252 15.92C120.252 16.52 120.292 17.08 120.292 17.64V21.96C120.292 22.24 120.292 22.56 120.372 22.84C120.372 22.88 121.172 22.88 121.252 22.92C121.412 22.92 121.612 22.96 121.772 22.96ZM103.052 24.76C104.772 24.44 106.252 23.6 106.252 21.56C106.252 19.2 104.292 18.32 102.332 18.28C100.332 18.2 98.3316 19.04 98.3316 21.56C98.3316 24.44 100.852 25.2 103.052 24.76ZM162.553 38.44C163.393 38.52 164.113 38.8 164.353 39.64C164.673 40.6 164.313 41.28 163.313 41.68C162.673 41.92 161.993 41.96 161.433 41.96H142.833C141.753 41.96 140.593 41.92 139.433 41.88C138.313 41.84 137.513 41 137.393 39.8L137.273 37C137.233 36.44 137.193 35.48 137.673 34.96C138.393 34.16 139.833 34.04 140.993 34.04C142.513 34.04 147.593 34.08 159.793 34.08V32.64H140.113C139.593 32.64 139.153 32.64 138.753 32.56C138.273 32.44 137.873 32.44 137.633 32C137.273 31.44 137.153 30.92 137.353 30.28C137.633 29.44 138.833 29.32 139.433 29.24C139.833 29.16 140.233 29.12 140.673 29.12C143.073 29.12 145.873 29.16 160.193 29.16C162.873 29.16 164.393 29.96 164.393 31.8V34.64C164.393 35.36 164.073 36.16 163.233 36.64C162.553 37.04 161.833 37 161.153 37H142.193V38.44H162.553ZM137.633 15.2C137.553 13.88 137.353 12.48 137.793 11.32C138.393 9.88 139.913 9.64 141.233 9.64H159.873C160.953 9.64 161.873 9.68 162.913 10.08C163.753 10.44 164.273 11.28 164.233 12.2C164.153 13.12 163.593 13.84 162.713 14.04C162.233 14.16 161.513 14.24 160.553 14.24C159.873 14.24 159.393 14.2 159.353 14.2H147.793C146.993 14.2 146.193 14.24 145.393 14.2C144.753 14.16 144.073 13.96 143.473 14.16C142.873 14.32 142.913 15 143.073 15.68C143.833 15.8 144.593 15.8 145.353 15.84H152.953C153.433 15.88 156.593 15.88 156.993 15.84C157.313 15.8 159.513 15.8 159.833 15.8C161.073 15.8 162.153 16 162.993 16.4C163.513 16.68 163.873 16.88 163.993 17.52C164.153 18.16 164.033 18.84 163.633 19.32C162.873 20.32 161.913 20.36 160.793 20.4C159.753 20.44 153.873 20.48 152.233 20.48C150.553 20.48 147.153 20.44 145.593 20.44C143.833 20.4 142.073 20.32 140.313 20.32C137.713 20.32 137.713 18.56 137.713 16.32C137.713 15.96 137.673 15.56 137.633 15.2ZM138.993 22.64C139.793 22.56 141.553 22.56 141.553 22.56H150.353C150.353 22.56 157.753 22.48 161.353 22.56H161.553C162.633 22.6 163.713 22.52 164.753 22.92C165.513 23.2 165.993 23.88 165.993 24.68C165.993 25.32 165.713 25.92 165.193 26.36C164.353 27.12 162.993 27.08 161.913 27H138.953C138.873 27 136.993 27.04 136.233 26.2C135.913 25.88 135.753 25.36 135.753 24.84C135.753 24.28 135.953 23.8 136.273 23.48C136.953 22.8 137.713 22.76 138.513 22.68C138.673 22.68 138.833 22.64 138.993 22.64ZM191.589 14.52C191.629 13.16 191.589 11.04 192.549 10.08C192.909 9.72 193.349 9.56 193.829 9.56H193.909C196.549 9.68 196.789 12.8 196.789 14.48V38.2C196.789 38.28 196.869 40.32 195.949 41.16C195.589 41.52 194.749 41.76 194.189 41.76C193.589 41.76 193.029 41.52 192.669 41.12C191.989 40.36 191.869 39.68 191.789 38.8C191.789 37.88 191.709 34.68 191.749 33.2H189.269C188.069 33.2 187.429 32.8 187.149 32.2C186.989 31.88 186.829 31.52 186.829 31.16C186.829 30.8 186.829 30.56 186.909 30.2C187.029 29.8 187.149 29.24 187.469 28.96C187.789 28.72 188.189 28.52 188.589 28.44C189.429 28.28 190.749 28.32 191.629 28.2C191.629 27.4 191.629 24.92 191.589 23.16L189.189 23.08C188.189 23.04 187.309 22.88 187.029 22.28C186.869 21.96 186.749 21.56 186.749 21.2C186.749 20.84 186.749 20.6 186.829 20.24C186.949 19.84 187.069 19.36 187.389 19.08C187.709 18.84 188.109 18.64 188.509 18.56C189.109 18.44 190.149 18.44 191.549 18.36C191.549 16.6 191.549 15.04 191.589 14.52ZM177.029 9.56C177.709 9.56 178.349 9.64 178.989 9.72C179.989 9.88 180.909 10.36 181.669 11.12C184.269 13.84 184.829 18.52 184.989 22.32C185.109 24.76 185.069 27.24 184.789 29.64C184.509 32.12 184.149 34.8 182.829 36.84C181.709 38.56 179.949 39.68 178.149 40.04C176.509 40.36 174.709 40.16 173.189 39.28C171.749 38.44 170.789 37.12 170.069 35.44C169.549 34.2 169.229 32.84 169.149 31.48C168.949 29.24 168.869 27 168.869 24.76C168.869 23.24 168.869 21.76 169.029 20.28C169.109 19.08 169.309 17.84 169.509 16.68C169.709 15.72 169.829 14.88 170.229 14C170.629 13.12 171.149 12.28 171.829 11.64C172.989 10.48 174.509 9.84 176.029 9.64C176.349 9.6 176.709 9.6 177.029 9.56ZM176.909 34.72C177.389 34.72 177.909 34.56 178.389 34.24C179.269 33.6 179.589 32.48 179.829 31.2C180.269 28.76 180.229 25.8 180.149 23.28C180.109 21.24 180.069 18.6 179.109 16.96C178.589 16.08 177.789 15.52 176.949 15.64C176.069 15.72 175.269 16.28 174.789 17.32L174.429 18.16C174.109 19.16 173.949 20.28 173.869 21.36C173.789 22.44 173.709 23.56 173.709 24.64C173.749 25.72 173.629 26.72 173.709 27.76C173.909 30.52 174.269 34.68 176.909 34.72ZM216.772 34.8C218.332 34.8 219.772 35.16 219.972 36.88C220.172 38.6 218.412 39.64 216.972 39.72C215.852 39.76 210.492 39.72 207.892 39.72H207.572C206.372 39.68 204.972 39.68 203.772 39.32C202.932 39.08 202.092 38.32 201.692 37.4C201.172 36.24 201.292 33.76 201.292 33.64V16.64C201.252 16.36 200.972 13.52 201.772 12.2C202.452 11.08 205.492 11.04 205.772 11.04H215.132C215.292 11.04 218.652 10.92 219.172 12.6C219.372 13.2 219.332 14.64 219.092 15.08C218.892 15.44 218.532 15.68 218.092 15.8C217.612 15.92 216.852 16 215.812 16C215.132 16 214.612 15.96 209.692 15.96C208.972 15.96 208.052 16 207.692 16.16C206.932 16.48 206.972 18.24 207.052 18.84V18.88L207.212 32.72C207.212 33.76 207.612 34.52 208.852 34.52C209.132 34.56 213.252 34.8 216.772 34.8ZM227.412 21.88L230.572 22.16C231.532 22.36 232.372 23 232.372 24.16C232.372 24.56 232.372 24.92 232.252 25.32C232.092 26.2 231.612 26.96 230.612 26.96L227.332 27C227.252 29.76 227.332 34 227.332 37.32C227.332 38.72 227.292 41.68 224.932 41.84C222.332 42 222.132 39.44 222.132 37.76V13.2C222.132 13.12 222.092 11.12 222.972 10.24C223.332 9.88 224.172 9.68 224.772 9.68C225.372 9.68 225.892 9.92 226.252 10.28C226.972 11.04 227.012 11.88 227.092 12.76C227.332 15.68 227.412 18.84 227.412 21.88ZM260.615 34.52C260.775 34.56 260.935 34.52 261.095 34.52C261.975 34.6 262.775 34.8 263.495 35.44C263.855 35.8 264.055 36.28 264.055 36.84C264.055 37.4 263.855 38.2 263.535 38.56C262.695 39.4 260.735 39.32 260.655 39.32H238.255C238.015 39.32 237.735 39.36 237.455 39.36C236.335 39.4 234.895 39.48 234.015 38.72C233.495 38.24 233.175 37.64 233.175 37C233.175 36.2 233.695 35.2 234.495 34.88C235.575 34.48 236.735 34.56 237.895 34.52H238.095C240.375 34.48 242.855 34.48 245.255 34.52L245.215 29C243.175 29.04 241.495 29.04 240.535 28.96C239.415 28.92 237.935 28.88 237.015 28.2C235.815 27.28 235.775 24.36 235.775 24.24V15.64C235.775 14.6 235.615 13.48 235.815 12.44C236.095 11.2 237.615 10.88 238.815 10.8C239.735 10.76 241.095 11 241.295 12.08C241.375 12.56 241.215 15.6 241.415 16.04C241.535 16.32 242.095 16.36 242.375 16.4C243.615 16.48 244.015 16.36 245.255 16.36L254.415 16.4C254.975 16.44 255.415 16.44 255.575 15.88C255.615 15.32 255.615 12.96 255.655 12.52C255.695 11.56 255.975 11 256.975 10.8C258.015 10.56 259.495 10.64 260.095 11.24C260.935 12.12 260.895 13.16 260.895 15.24C260.815 17.68 261.015 23.56 260.775 26C260.655 27.56 259.775 28.56 258.255 28.8C257.455 28.92 256.375 28.88 255.575 28.88C253.855 28.92 252.215 28.92 250.615 28.92L250.695 34.52C253.415 34.52 255.295 34.44 257.895 34.52C258.855 34.56 259.775 34.44 260.615 34.52ZM241.415 23.84C241.615 24.64 242.775 24.64 243.655 24.68C244.055 24.64 252.175 24.56 252.655 24.64C253.095 24.68 253.535 24.64 253.975 24.68C254.535 24.72 255.495 24.92 255.495 24.04C255.495 23.64 255.575 22 255.375 21.24C255.215 20.6 254.855 20.64 254.335 20.68C254.095 20.68 253.335 20.72 253.095 20.68H243.975C242.975 20.64 241.495 20.44 241.375 21.68C241.375 21.96 241.375 23.64 241.415 23.84ZM295.356 38.72C295.276 39.36 295.236 39.96 295.036 40.6C294.956 40.8 294.876 40.96 294.796 41.16C294.636 41.48 294.396 41.8 294.076 42.04C293.476 42.4 292.716 42.48 292.036 42.32C291.636 42.24 291.276 42.08 290.996 41.84C290.036 40.96 290.076 38.88 290.076 38.8V14.08C290.036 12.84 290.076 10.84 290.836 10.12C291.396 9.56 292.076 9.48 292.796 9.48C293.716 9.48 294.556 10.04 294.876 10.92C295.356 12.04 295.316 13.28 295.356 14.52V14.72C295.476 18.8 295.356 23.32 295.356 27.16V37.28C295.356 37.76 295.396 38.24 295.356 38.72ZM276.476 34.8C276.436 34.16 276.436 33.52 276.436 32.88V20.16C276.436 19.32 276.436 18.44 276.356 17.56C276.316 17.28 276.276 16.68 275.996 16.56C275.716 16.4 275.356 16.48 275.036 16.44C274.676 16.4 274.316 16.48 273.956 16.44H272.076C271.196 16.48 270.236 16.4 269.356 16.44C268.956 16.48 268.596 16.44 268.196 16.44C267.596 16.44 266.916 16.44 266.396 16.08C265.636 15.56 265.436 14.68 265.436 13.84C265.396 13.32 265.516 12.8 265.756 12.32C265.876 12.04 266.036 11.8 266.276 11.64C266.556 11.36 267.156 11.16 267.516 11.08C268.636 10.8 269.916 10.84 271.076 10.84H278.036C278.716 10.92 279.556 11 280.196 11.24C280.596 11.4 281.076 11.68 281.316 12.04C281.796 12.8 281.796 13.52 281.876 14.4C281.996 15.88 281.956 17.36 281.956 18.84V31.96C281.956 32.08 282.036 35.4 281.956 37.08C281.876 38.16 281.636 39.48 280.236 40C279.756 40.2 279.276 40.28 278.876 40.28C278.196 40.28 277.396 40 277.116 39.4C276.716 38.6 276.476 37.6 276.476 36.56V34.8Z" fill="#475783"/>
<circle cx="322" cy="24.5" r="17" fill="#ACB7D6"/>
<path d="M315.264 30.68L322.154 23.582C324.338 21.346 324.468 20.358 324.468 19.292V19.084C324.468 18.07 323.714 17.108 321.79 17.108C320.438 17.108 319.06 17.55 317.838 19.734L315.342 18.096C316.226 16.484 317.968 14.144 321.764 14.144C326.002 14.144 327.822 16.38 327.822 18.954V19.214C327.822 21.242 326.86 23.114 325.118 24.856L319.606 30.42H328.524V33.176H315.264V30.68Z" fill="white"/>
<path d="M385.92 21.96C386.92 22.48 387.92 23.24 388.76 24.04C389.64 24.88 389.36 26.88 388.04 27.16C386.36 27.56 384.36 26.96 382.84 26.2C381.4 25.48 380.2 24.84 379 24.08C378.28 23.6 376.24 22.44 376.24 22.44C376.24 22.44 373.8 23.64 372.96 24.12C371.56 24.92 370.52 25.44 369.12 26.16C368.08 26.68 366.96 27.48 365.76 27.4C364.8 27.32 363.72 26.88 363.52 25.72C363.48 25.4 363.52 25 363.6 24.68C363.8 23.8 364.36 23.24 365.08 22.76L367.84 21.2C368.76 20.68 369.32 20.4 370.28 19.88C371.16 19.36 372.52 18.56 373.56 18.16V14.92H369.32C368.48 14.92 367.96 14.96 367.16 14.88C366.56 14.8 365.8 14.88 365.24 14.56C364.92 14.4 364.68 14.08 364.52 13.72C364.2 13.12 364.12 12.24 364.4 11.6C364.8 10.64 365.92 10.16 366.92 10.16H367.84C368.68 10.2 368.88 10.16 369.72 10.16H383.56C385.32 10.16 388.32 9.68 388.88 12.24C389.52 15.2 385.2 15.12 383.52 15.04C381.88 14.92 379.4 15 379.4 15V18.24C379.72 18.44 380.08 18.64 380.44 18.8C380.76 18.96 381.04 19.16 381.36 19.36C381.88 19.64 382.4 19.88 382.92 20.2C383.92 20.76 384.92 21.4 385.92 21.96ZM365.32 34.56C364.08 34.52 362.92 34.32 362.24 33.28C361.68 32.4 361.68 31.24 362.4 30.48C363.24 29.64 365.2 29.68 365.28 29.68H387.08C388.76 29.6 391.36 29.68 391.36 32.04C391.36 34.68 387.2 34.48 385.48 34.52H383.92C382.88 34.56 381.84 34.52 380.8 34.52H379.28C379.32 36 379.44 37.8 379.24 39.08C379.12 40.08 378.76 41.12 377.88 41.68C377.08 42.2 375.88 42.24 375.04 41.76C374.36 41.36 374.04 40.4 373.92 39.68C373.8 39.08 373.88 38.36 373.88 37.76C373.84 36.8 373.84 35.6 373.84 34.48H372.84C369.88 34.52 368.28 34.6 365.32 34.56ZM408.732 23.08C410.092 23.92 409.932 26.52 408.452 27.2C407.292 27.76 405.932 27.64 404.732 27.64H399.932C398.172 27.64 395.772 27.48 394.612 26.28C393.532 25.12 393.652 22.08 393.692 21.96V13.04C393.652 12.88 393.652 11.36 394.012 10.8C394.492 10.12 394.892 9.84 395.692 9.72C396.092 9.68 397.092 9.64 397.092 9.64H405.892C406.412 9.64 406.892 9.68 407.372 9.8C407.852 9.92 408.372 10 408.732 10.4C409.052 10.72 409.252 11.12 409.332 11.56C409.412 11.96 409.452 12.28 409.372 12.64C409.252 13.68 408.452 14.56 407.252 14.56C407.012 14.56 406.772 14.52 399.172 14.52V16C400.852 16.08 402.172 16 402.212 16H404.092C404.332 16 404.612 16.04 404.932 16H405.972C406.572 16 407.212 16.08 407.732 16.36C408.532 16.76 408.692 17.76 408.612 18.52C408.572 18.88 408.572 19.32 408.332 19.6C407.732 20.4 407.052 20.48 406.332 20.48H399.172V21.64C399.172 21.92 399.212 22.24 399.412 22.44C399.652 22.64 400.092 22.68 400.372 22.68H405.732C406.612 22.68 407.492 22.64 408.292 22.88C408.452 22.92 408.612 23 408.732 23.08ZM416.172 25.52C416.132 26.08 416.052 26.72 415.732 27.32C415.572 27.64 415.332 27.92 415.052 28.08C414.692 28.36 414.492 28.52 414.012 28.52C413.612 28.52 413.252 28.4 412.892 28.2C411.852 27.56 411.692 26.12 411.692 26.04V12.88C411.652 12.64 411.692 11.44 412.012 10.8C412.252 10.28 412.892 9.92 413.652 9.84C414.532 9.72 415.092 9.96 415.532 10.44C415.892 10.84 415.932 11.24 416.052 11.68C416.212 12.2 416.212 12.84 416.212 13.4C416.172 13.4 416.172 15.88 416.172 16.6C416.412 16.64 417.252 16.68 417.972 16.72L418.012 13.28C417.972 12.72 417.972 12.12 418.132 11.56C418.252 11.16 418.492 10.76 418.852 10.36C419.252 9.84 419.852 9.6 420.732 9.72C421.492 9.84 421.932 10.24 422.172 10.76C422.492 11.4 422.532 12.56 422.492 12.76V26.16C422.492 26.24 422.452 27.68 421.372 28.32C421.052 28.52 420.812 28.6 420.452 28.6C419.972 28.6 419.492 28.48 419.132 28.2C418.852 28 418.612 27.72 418.452 27.4C417.892 26.44 417.972 24.52 417.972 23.56V21.08H416.172V25.52ZM418.172 31.24C420.332 31.24 421.812 31.96 421.812 33.16V38.52C421.852 39.12 421.852 39.72 421.812 40.28C421.692 41.4 420.852 42.16 419.652 42.16C419.372 42.16 418.492 42.12 418.212 42.04C416.812 41.6 416.692 40.28 416.612 39.08C416.572 38.6 416.572 36.36 416.492 35.96C416.332 35.92 415.772 35.84 413.812 35.84C412.092 35.84 411.932 35.92 411.892 35.92H397.452L397.412 35.88C397.372 35.88 395.772 35.52 395.612 34.4C395.492 33.4 395.652 32.6 396.132 32C396.772 31.24 397.732 31.24 397.772 31.24H418.172ZM442.607 39.8C442.087 39.8 441.527 39.76 441.087 39.68C440.607 39.64 440.047 39.56 439.447 39.56C439.047 39.52 438.647 39.44 438.207 39.36C437.727 39.2 437.407 39 437.087 38.64C436.807 38.36 436.567 38.12 436.407 37.88C436.247 37.68 436.167 37.4 436.087 37.04C435.887 36.16 435.807 35.24 435.847 34.28C435.887 33.32 435.887 32.44 435.887 31.56V28.12C435.887 26.88 435.887 25.72 435.887 24.88C435.887 23.88 435.887 22.84 435.887 21.72C435.847 20.52 435.847 19.44 435.847 18.4C435.847 17.32 435.847 16.4 435.847 15.56C435.847 14.76 435.847 14.2 435.887 13.92C435.927 13.36 436.047 12.8 436.247 12.2C436.487 11.6 436.967 11.12 437.687 10.84C437.927 10.76 438.287 10.68 438.607 10.6C438.967 10.52 439.247 10.56 439.567 10.64C439.927 10.72 440.247 10.84 440.567 11.04C440.847 11.24 441.087 11.56 441.167 11.92C441.327 12.32 441.487 12.72 441.487 13.16C441.567 13.6 441.567 14 441.567 14.44C441.567 14.76 441.567 15.16 441.567 15.76C441.567 16.4 441.527 16.8 441.527 17.12C441.527 17.72 441.527 18.4 441.527 19.24C441.527 20.16 441.527 21.08 441.527 22.04C441.527 23.12 441.527 24.12 441.527 25.2C441.527 26.2 441.527 27.24 441.527 28.24C441.527 29.24 441.527 30.16 441.527 31C441.527 31.88 441.567 32.6 441.567 33.2C441.567 33.36 441.607 33.56 441.607 33.76C441.687 33.96 441.767 34.08 441.847 34.2C442.047 34.36 442.247 34.48 442.447 34.48C443.287 34.52 444.127 34.56 444.967 34.6C445.327 34.64 445.647 34.64 445.887 34.64C448.087 34.64 450.847 34.08 450.847 37.12C450.847 37.24 450.847 37.36 450.847 37.52C450.727 39.16 448.887 39.48 447.487 39.56C446.447 39.6 445.447 39.8 444.527 39.8C444.047 39.8 443.687 39.8 443.287 39.8C443.007 39.8 442.767 39.8 442.607 39.8ZM464.687 15.96V37.48C464.687 38.16 464.647 38.96 464.527 39.72C464.447 40.48 464.127 41.04 463.527 41.52C463.007 41.76 462.567 41.92 462.127 41.92C461.647 41.92 461.287 41.72 461.007 41.4C460.687 41.04 460.487 40.72 460.367 40.24C460.207 39.76 460.087 39.28 460.047 38.72C460.047 38.2 460.007 37.8 460.007 37.44V27.32H456.967V37.68C457.047 38.28 457.047 38.92 456.927 39.64C456.847 40.28 456.647 40.8 456.407 41.2C456.087 41.68 455.607 41.92 454.927 41.92C454.647 41.92 454.327 41.8 454.007 41.68C453.767 41.56 453.527 41.4 453.287 41.16C452.847 40.72 452.527 40.2 452.407 39.48C452.287 38.8 452.287 38.12 452.287 37.56V12.36C452.287 11.56 452.407 10.88 452.647 10.32C452.927 9.72 453.527 9.36 454.407 9.28C455.087 9.24 455.607 9.4 455.927 9.76C456.247 10.16 456.527 10.56 456.687 11.08C456.847 11.68 456.927 12.24 456.927 12.84C456.967 13.44 456.967 13.92 456.967 14.28V22.32H460.007V13.96C460.007 13.56 460.007 13.12 460.007 12.64C460.007 12.08 460.047 11.6 460.127 11.08C460.247 10.64 460.407 10.28 460.687 9.88C461.007 9.52 461.447 9.36 462.047 9.28C462.287 9.28 462.607 9.28 462.887 9.36C463.167 9.48 463.407 9.6 463.607 9.84C463.927 10.2 464.207 10.56 464.287 11.04C464.447 11.6 464.527 12.12 464.567 12.72C464.647 13.32 464.687 13.84 464.687 14.4C464.687 14.96 464.687 15.48 464.687 15.96ZM495.022 13.2C494.982 13.6 494.982 13.88 494.982 14.08V16.24C494.982 17.04 494.982 17.88 495.022 18.8V21.4C494.982 22.28 494.982 22.96 494.902 23.64C494.742 25.12 493.902 26.08 492.382 26.28C491.902 26.4 491.542 26.4 491.102 26.4H489.902C489.422 26.4 488.862 26.44 488.022 26.44C487.182 26.44 486.302 26.44 485.462 26.4H474.782C474.222 26.4 473.622 26.4 473.142 26.28C472.582 26.28 471.982 26.08 471.622 25.72C471.342 25.48 471.102 25.12 470.902 24.72C470.742 24.32 470.582 23.88 470.542 23.44C470.422 23.12 470.342 22.64 470.342 22.32V14.44C470.342 13.96 470.182 13.36 470.182 12.88C470.142 12.28 470.182 11.8 470.422 11.28C470.542 10.64 470.742 10.16 471.102 10.04C471.382 9.8 471.942 9.72 472.582 9.6C473.022 9.6 473.582 9.72 474.062 9.84C474.662 10.04 475.022 10.36 475.062 10.88V12.64C475.062 13.12 475.102 13.52 475.102 13.88C475.102 14.28 475.102 14.76 475.662 14.76H489.662C489.782 14.76 490.062 14.68 490.262 14.64V14.08C490.342 13.68 490.342 13.36 490.342 13.04V11.36C490.342 10.88 490.422 10.4 490.662 10.12C490.822 9.84 491.182 9.72 491.662 9.6C491.862 9.56 492.022 9.56 492.382 9.56H493.182C493.462 9.56 493.702 9.6 493.942 9.72C494.542 9.92 494.822 10.2 494.902 10.72C494.982 11.16 494.982 11.56 495.022 11.92V13.2ZM494.462 29.68C494.982 29.68 495.382 29.8 495.822 30C496.182 30.12 496.502 30.36 496.782 30.72C497.022 31.04 497.102 31.52 497.102 32.08C497.102 32.76 496.982 33.2 496.422 33.6C496.022 33.92 495.462 34.16 494.902 34.24C494.182 34.4 493.542 34.48 492.862 34.48C492.182 34.48 491.622 34.6 491.182 34.6H484.982C485.102 35.32 485.102 36.68 485.102 37.24C485.142 37.8 485.102 38.44 484.982 39.2C484.902 39.68 484.742 40.16 484.542 40.56C484.462 41.08 484.142 41.44 483.702 41.72C483.262 42.04 482.742 42.16 482.262 42.16C481.662 42.16 481.222 42.04 480.782 41.72C480.382 41.56 480.142 41.24 480.022 40.84C479.822 40.36 479.662 40.04 479.662 39.68C479.582 39.44 479.582 39.08 479.582 38.76V34.6H471.102C470.422 34.6 469.822 34.48 469.342 34.36C468.742 34.16 468.302 33.84 467.982 33.32C467.622 32.84 467.542 32.36 467.542 31.8C467.542 31.32 467.702 30.88 468.142 30.48C468.302 30.32 468.542 30.12 468.862 30C469.262 29.84 469.462 29.8 469.822 29.8C470.142 29.72 470.422 29.72 470.662 29.72H470.982L493.102 29.6C493.542 29.6 494.022 29.56 494.462 29.68ZM490.182 21.12C490.262 21 490.262 20.84 490.262 20.52C490.262 20.28 490.262 20.04 490.182 19.88C490.182 19.64 490.182 19.52 490.142 19.44C489.902 19.2 489.622 19.16 489.382 19.04H480.622L478.982 19H478.142C477.902 19 477.662 19 477.302 18.92C476.942 18.92 476.582 18.96 476.262 18.96C475.902 18.96 475.662 19.04 475.422 19.2C475.262 19.36 475.062 19.64 475.182 20.04V21.32C475.262 21.48 475.262 21.56 475.262 21.56C475.262 21.8 475.422 21.96 475.582 22.08C475.822 22.16 475.982 22.28 476.262 22.28C476.502 22.32 476.822 22.32 477.062 22.28H487.342C487.502 22.28 487.782 22.32 488.022 22.28H488.742C488.862 22.28 488.942 22.28 489.182 22.32H489.662C489.782 22.28 489.942 22.28 490.062 22.16C490.182 21.96 490.182 21.88 490.182 21.64V21.12ZM525.634 40.64C525.434 41.04 525.114 41.44 524.634 41.68C524.314 42 523.834 42.08 523.354 42.08C522.554 42.16 521.834 42.08 521.354 41.36C521.034 41.04 520.954 40.48 520.874 40.16C520.794 39.84 520.714 39.2 520.714 38.88V31.64H512.194C511.554 31.56 510.994 31.48 510.514 31.4C509.954 31.24 509.474 30.92 509.154 30.36C508.914 29.96 508.714 29.44 508.714 28.96C508.834 28.48 508.994 28 509.394 27.68C509.554 27.44 509.794 27.28 510.114 27.2C510.434 27.12 510.674 27.04 510.994 26.96C511.234 26.96 511.474 26.88 511.714 26.88H528.674V18.84C528.594 18.44 528.674 18.2 528.674 17.88C528.594 17.4 528.674 16.92 528.514 16.52C528.434 16.36 528.354 16.2 528.194 16.12C528.034 16.04 527.874 16.04 527.634 16.04C526.834 15.96 525.954 16.04 525.034 16.04H514.594C514.114 16.04 513.634 15.96 512.994 15.8C512.434 15.64 512.034 15.32 511.714 14.84C511.634 14.68 511.474 14.44 511.474 14.08C511.394 13.84 511.394 13.52 511.394 13.2C511.474 12.64 511.634 12.08 512.034 11.68C512.354 11.44 512.754 11.28 513.154 11.12C513.554 10.96 513.954 10.88 514.434 10.88C514.834 10.8 515.314 10.8 515.714 10.8H526.274C527.074 10.88 527.954 10.8 528.754 10.8C529.154 10.8 529.634 10.8 530.114 10.88C530.594 10.88 531.074 10.96 531.554 11.12C532.034 11.2 532.434 11.44 532.754 11.68C533.154 12 533.394 12.4 533.554 12.88C533.674 13.2 533.754 13.44 533.754 13.68C533.834 13.92 533.914 14.28 533.914 14.52C533.994 15.24 533.994 15.88 533.994 16.6V19.8C534.074 20.2 533.994 21 533.994 21.48V26.88H535.634C536.114 26.96 536.514 27.04 536.914 27.12C537.394 27.28 537.714 27.52 537.954 27.84C538.274 28.16 538.434 28.56 538.434 29.2C538.434 29.88 538.354 30.28 537.794 30.76C537.474 31.08 536.914 31.24 536.354 31.4C535.714 31.56 534.234 31.64 533.554 31.64H526.114V37.64C526.034 38.32 526.034 38.88 525.954 39.2C525.954 39.68 525.794 40.16 525.634 40.64ZM549.602 10.76L563.762 10.72C565.682 10.72 568.082 11.16 568.082 12.96C568.082 15.6 565.842 15.6 564.042 15.48C562.282 15.4 560.922 15.44 558.842 15.52L558.882 16.6C558.882 17.04 558.842 17.68 558.922 18.12C559.082 18.72 559.602 19.12 560.002 19.56C561.562 21.24 563.882 23.04 565.562 24.72C566.562 25.76 568.082 27.16 567.522 28.64C566.762 30.6 564.202 29.92 562.922 29.04C559.802 26.84 558.242 25.28 556.082 23.24C555.962 23.16 553.642 25.04 552.682 25.8C551.842 26.44 549.842 27.96 548.202 28.96C546.562 30 544.802 30.6 543.682 29.04C542.322 26.92 544.362 25.6 545.802 24.44C547.962 22.72 550.282 20.92 552.082 19.16C552.802 18.44 552.842 18.08 552.842 17.2V15.44H546.842C546.842 15.44 543.322 15.88 543.122 13.44C543.002 12.24 544.282 10.92 546.042 10.8C546.402 10.76 545.682 10.76 549.602 10.76ZM567.482 34.52C567.642 34.56 567.802 34.52 567.962 34.52C568.842 34.6 569.642 34.8 570.362 35.44C570.722 35.8 570.922 36.28 570.922 36.84C570.922 37.4 570.722 38.2 570.402 38.56C569.562 39.4 567.602 39.32 567.522 39.32H545.122C544.882 39.32 544.602 39.36 544.322 39.36C543.202 39.4 541.762 39.48 540.882 38.72C540.362 38.24 540.042 37.64 540.042 37C540.042 36.2 540.562 35.2 541.362 34.88C542.442 34.48 543.602 34.56 544.762 34.52H544.962C547.522 34.48 550.162 34.48 552.802 34.52L552.762 30.32C552.762 30.32 552.762 28.96 553.842 28.2C555.202 27.2 557.922 27.88 557.922 29.84L557.962 34.52C560.482 34.48 562.282 34.48 564.762 34.52C565.722 34.56 566.642 34.44 567.482 34.52Z" fill="#475783"/>
</svg>
