<svg width="186" height="54" viewBox="0 0 186 54" fill="none" xmlns="http://www.w3.org/2000/svg">
<mask id="path-1-inside-1_2299_45430" fill="white">
<path d="M186 54H9.02734L0 35.8047V17.6084L9.02734 0H186V54ZM9.2998 22.6104C7.32419 22.6104 5.72266 24.3558 5.72266 26.5088C5.72272 28.6617 7.32423 30.4072 9.2998 30.4072C11.2754 30.4072 12.8769 28.6617 12.877 26.5088C12.877 24.3558 11.2754 22.6104 9.2998 22.6104Z"/>
</mask>
<path d="M186 54H9.02734L0 35.8047V17.6084L9.02734 0H186V54ZM9.2998 22.6104C7.32419 22.6104 5.72266 24.3558 5.72266 26.5088C5.72272 28.6617 7.32423 30.4072 9.2998 30.4072C11.2754 30.4072 12.8769 28.6617 12.877 26.5088C12.877 24.3558 11.2754 22.6104 9.2998 22.6104Z" fill="#ECC8C1"/>
<path d="M186 54V55H187V54H186ZM9.02734 54L8.13154 54.4444L8.40717 55H9.02734V54ZM0 35.8047H-1V36.0391L-0.895808 36.2491L0 35.8047ZM0 17.6084L-0.889871 17.1522L-1 17.367V17.6084H0ZM9.02734 0V-1H8.41626L8.13747 -0.456212L9.02734 0ZM186 0H187V-1H186V0ZM9.2998 22.6104L9.29981 21.6104H9.2998V22.6104ZM5.72266 26.5088L4.72266 26.5088L4.72266 26.5088L5.72266 26.5088ZM9.2998 30.4072L9.2998 31.4072L9.29981 31.4072L9.2998 30.4072ZM12.877 26.5088L13.877 26.5088V26.5088H12.877ZM186 54V53H9.02734V54V55H186V54ZM9.02734 54L9.92315 53.5556L0.895808 35.3602L0 35.8047L-0.895808 36.2491L8.13154 54.4444L9.02734 54ZM0 35.8047H1V17.6084H0H-1V35.8047H0ZM0 17.6084L0.889871 18.0646L9.91721 0.456212L9.02734 0L8.13747 -0.456212L-0.889871 17.1522L0 17.6084ZM9.02734 0V1H186V0V-1H9.02734V0ZM186 0H185V54H186H187V0H186ZM9.2998 22.6104V21.6104C6.69267 21.6104 4.72266 23.8862 4.72266 26.5088H5.72266H6.72266C6.72266 24.8254 7.95572 23.6104 9.2998 23.6104V22.6104ZM5.72266 26.5088L4.72266 26.5088C4.72274 29.1312 6.69268 31.4072 9.2998 31.4072V30.4072V29.4072C7.95579 29.4072 6.72271 28.1922 6.72266 26.5088L5.72266 26.5088ZM9.2998 30.4072L9.29981 31.4072C11.9069 31.4072 13.8769 29.1312 13.877 26.5088L12.877 26.5088L11.877 26.5088C11.8769 28.1921 10.6438 29.4072 9.2998 29.4072L9.2998 30.4072ZM12.877 26.5088H13.877C13.877 23.8863 11.9069 21.6104 9.29981 21.6104L9.2998 22.6104L9.2998 23.6104C10.6439 23.6104 11.877 24.8254 11.877 26.5088H12.877Z" fill="#DA9186" mask="url(#path-1-inside-1_2299_45430)"/>
<path d="M54 34.04V21.32H48.04V17H54V7.56H59.04V34.04H54ZM40.44 31.88V40.04H59.64V44.36H35.36V31.88H40.44ZM29.92 14.2V9.88H49.12V14.2H42.2V17.32C42.2 19.28 42.68 20.44 44.8 22.08C46.48 23.36 48.48 24.72 50.48 26L47.76 29.6C46.04 28.48 44.32 27.28 42.84 26.2C41.16 24.96 40.12 24.04 39.96 23.64H39.92C39.76 24.12 38.64 25.2 36.8 26.64C35.08 28 33.32 29.36 31.32 30.76L28.36 27.04C30.88 25.32 33.28 23.48 34.96 22C36.36 20.76 37.16 19.28 37.16 17.32V14.2H29.92ZM91.6141 8.6V12.56H72.2141V14.56H91.2941V18.44H72.2141V20.44H92.0141V24.4H82.1341V26.76H96.6541V30.76H62.5741V26.76H77.0941V24.4H67.2541V8.6H91.6141ZM79.6141 45.92C73.0541 45.92 67.6141 44 67.6141 39.6V38.48C67.6141 34.08 73.0541 32.16 79.6141 32.16C86.1741 32.16 91.6141 34.08 91.6141 38.48V39.6C91.6141 44 86.1741 45.92 79.6141 45.92ZM79.6141 36.16C76.0541 36.16 72.5741 37.12 72.5741 38.8V39.28C72.5741 41 76.0541 41.92 79.6141 41.92C83.1741 41.92 86.6541 41 86.6541 39.28V38.8C86.6541 37.12 83.1741 36.16 79.6141 36.16ZM101.468 29.24H126.308V38.96H106.548V41.28H127.388V45.08H101.668V35.32H121.428V33.04H101.468V29.24ZM101.788 8.2H106.828V16.08H126.188V19.96H116.548V22.92H131.068V26.8H96.9881V22.92H111.508V19.96H101.788V8.2ZM142.882 36C136.082 36 133.282 31.48 133.282 25.24V20.8C133.282 14.56 136.082 10.04 142.882 10.04C149.682 10.04 152.482 14.56 152.482 20.8V25.24C152.482 31.48 149.682 36 142.882 36ZM142.882 14.48C139.482 14.48 138.122 16.88 138.122 21.4V24.64C138.122 29.16 139.482 31.56 142.882 31.56C146.282 31.56 147.642 29.16 147.642 24.64V21.4C147.642 16.88 146.282 14.48 142.882 14.48ZM162.722 7.56V44.76H157.642V7.56H162.722Z" fill="#1E1E1E"/>
</svg>
