<svg width="789" height="136" viewBox="0 0 789 136" fill="none" xmlns="http://www.w3.org/2000/svg">
<path d="M14.834 15.3049L12.9076 16.8032ZM8.73383 11.1097L11.5164 14.6842ZM6.85026 2.52662L2.14136 6.18674ZM9.97526 15.9042L1.13537 4.90248C0.921325 4.62423 0.964132 4.23896 1.24239 4.02492L4.9667 1.13537C5.24496 0.921328 5.63023 0.964127 5.84427 1.24238L14.6842 12.2441L9.97526 15.9042ZM9.97526 15.9042L14.9624 17.4667L14.6628 12.2441" fill="white"/>
<path d="M14.834 15.3049L12.9076 16.8032M8.73383 11.1097L11.5164 14.6842M6.85026 2.52662L2.14136 6.18674M9.97526 15.9042L1.13537 4.90248C0.921325 4.62423 0.964132 4.23896 1.24239 4.02492L4.9667 1.13537C5.24496 0.921328 5.63023 0.964127 5.84427 1.24238L14.6842 12.2441L9.97526 15.9042ZM9.97526 15.9042L14.9624 17.4667L14.6628 12.2441" stroke="#B5B5B6" stroke-width="0.770548" stroke-linecap="round" stroke-linejoin="round"/>
<path d="M9 21H788" stroke="#DCDDDD" stroke-width="2" stroke-linecap="round" stroke-linejoin="round" stroke-dasharray="0.1 5"/>
<path d="M6 59H785" stroke="#DCDDDD" stroke-width="2" stroke-linecap="round" stroke-linejoin="round" stroke-dasharray="0.1 5"/>
<path d="M6 97H785" stroke="#DCDDDD" stroke-width="2" stroke-linecap="round" stroke-linejoin="round" stroke-dasharray="0.1 5"/>
<path d="M6 135H785" stroke="#DCDDDD" stroke-width="2" stroke-linecap="round" stroke-linejoin="round" stroke-dasharray="0.1 5"/>
</svg>
