<svg width="30" height="52" viewBox="0 0 30 52" fill="none" xmlns="http://www.w3.org/2000/svg">
<g clip-path="url(#clip0_545_24276)">
<path d="M17.2482 23.9643C17.2482 23.9643 17.0341 24.0357 16.9151 24.0595C16.9151 23.9405 16.8676 23.7978 16.8438 23.6788C16.7962 23.5599 16.7486 23.4409 16.701 23.322C16.7962 23.2744 16.9151 23.2506 17.0103 23.203C17.7478 22.9651 19.5321 22.4655 19.6273 22.7748C19.7224 23.0603 18.0571 23.7026 17.2482 23.9643ZM17.8192 28.3418C17.5813 28.5321 16.4631 27.1523 15.9635 26.4385C15.8921 26.3434 15.8208 26.2482 15.7732 26.1531C15.8921 26.1055 16.0111 26.0341 16.1063 25.9627C16.2252 25.8914 16.2966 25.7962 16.3918 25.701C16.4631 25.7962 16.5345 25.8676 16.6059 25.9627C17.0579 26.5813 18.0809 28.1515 17.843 28.318M14.9167 25.7486C14.1079 25.7486 13.4655 25.1063 13.4655 24.2974C13.4655 23.4885 14.1079 22.8462 14.9167 22.8462C15.7256 22.8462 16.368 23.4885 16.368 24.2974C16.368 25.1063 15.7256 25.7486 14.9167 25.7486ZM13.8462 26.4385C13.3941 27.0571 12.2284 28.5083 11.9905 28.3418C11.7526 28.1753 12.7042 26.6764 13.2276 25.9865C13.299 25.8914 13.3703 25.7962 13.4417 25.7248C13.5369 25.82 13.632 25.9151 13.7272 25.9865C13.8224 26.0579 13.9413 26.1293 14.0603 26.1768C13.9889 26.272 13.9413 26.3672 13.8699 26.4623M10.2062 22.7986C10.3013 22.5131 12.0143 22.9651 12.8232 23.2268C12.9421 23.2506 13.0373 23.2982 13.1562 23.3458C13.0849 23.4647 13.0373 23.5837 13.0135 23.7026C12.9897 23.8216 12.9421 23.9405 12.9421 24.0833C12.8232 24.0595 12.728 24.0357 12.609 23.9881C11.8715 23.7502 10.1348 23.0841 10.23 22.7986M14.9643 19.3489C15.2736 19.3489 15.3688 21.1094 15.3688 21.9897C15.3688 22.1086 15.3688 22.2276 15.3688 22.3228C15.2498 22.299 15.1071 22.2752 14.9881 22.2752C14.8692 22.2752 14.7264 22.2752 14.6075 22.3228C14.6075 22.2038 14.6075 22.0849 14.6075 21.9897C14.6075 21.2046 14.7026 19.3489 15.0119 19.3489M24.5519 25.9389C27.2165 25.0825 29.3577 22.632 30.0238 20.9429C29.3577 20.6812 28.6915 20.3957 28.0016 20.1102C28.3822 19.4679 28.7629 18.8493 29.1435 18.2308C27.6209 17.2554 24.4568 16.5416 21.7922 17.3981C20.4124 17.8501 19.2942 18.659 18.4615 19.5868C19.0801 18.5163 19.5083 17.2078 19.5083 15.7565C19.5083 12.9492 17.843 10.1657 16.4393 9C15.9873 9.54718 15.5115 10.0944 15.0119 10.6653C14.5123 10.0944 14.0603 9.57098 13.5845 9C12.1808 10.1657 10.5155 12.9492 10.5155 15.7565C10.5155 17.2078 10.9437 18.5163 11.5623 19.5868C10.7296 18.6828 9.63521 17.8501 8.23156 17.3981C5.56701 16.5416 2.40285 17.2554 0.880254 18.2308C1.2609 18.8493 1.64155 19.4441 2.0222 20.1102C1.33228 20.4195 0.666138 20.6812 0 20.9429C0.666138 22.632 2.8073 25.0825 5.47185 25.9389C6.85171 26.391 8.23156 26.391 9.44489 26.1293C8.32673 26.6289 7.20856 27.4377 6.3521 28.6035C4.71055 30.8636 4.40127 34.0991 4.85329 35.8596C5.56701 35.6693 6.25694 35.5028 6.99445 35.36C7.06582 36.0975 7.13719 36.8113 7.16098 37.5488C8.96907 37.4298 11.9667 36.1451 13.6082 33.885C14.4647 32.6955 14.8929 31.387 15.0119 30.1737C15.1308 31.387 15.5591 32.7193 16.4155 33.885C18.0571 36.1451 21.0547 37.4298 22.8628 37.5488C22.9104 36.8351 22.958 36.1213 23.0293 35.36C23.7669 35.5266 24.4568 35.6931 25.1467 35.8596C25.5987 34.0991 25.3132 30.8636 23.6479 28.6035C22.7914 27.414 21.6733 26.6289 20.5551 26.1293C21.7684 26.391 23.1245 26.391 24.5282 25.9389" fill="#E67491"/>
</g>
<defs>
<clipPath id="clip0_545_24276">
<rect width="30" height="52" fill="white"/>
</clipPath>
</defs>
</svg>
