<svg width="671" height="52" viewBox="0 0 671 52" fill="none" xmlns="http://www.w3.org/2000/svg">
<path d="M24.92 22.96C25.92 23.48 26.92 24.24 27.76 25.04C28.64 25.88 28.36 27.88 27.04 28.16C25.36 28.56 23.36 27.96 21.84 27.2C20.4 26.48 19.2 25.84 18 25.08C17.28 24.6 15.24 23.44 15.24 23.44C15.24 23.44 12.8 24.64 11.96 25.12C10.56 25.92 9.52 26.44 8.12 27.16C7.08 27.68 5.96 28.48 4.76 28.4C3.8 28.32 2.72 27.88 2.52 26.72C2.48 26.4 2.52 26 2.6 25.68C2.8 24.8 3.36 24.24 4.08 23.76L6.84 22.2C7.76 21.68 8.32 21.4 9.28 20.88C10.16 20.36 11.52 19.56 12.56 19.16V15.92H8.32C7.48 15.92 6.96 15.96 6.16 15.88C5.56 15.8 4.8 15.88 4.24 15.56C3.92 15.4 3.68 15.08 3.52 14.72C3.2 14.12 3.12 13.24 3.4 12.6C3.8 11.64 4.92 11.16 5.92 11.16H6.84C7.68 11.2 7.88 11.16 8.72 11.16H22.56C24.32 11.16 27.32 10.68 27.88 13.24C28.52 16.2 24.2 16.12 22.52 16.04C20.88 15.92 18.4 16 18.4 16V19.24C18.72 19.44 19.08 19.64 19.44 19.8C19.76 19.96 20.04 20.16 20.36 20.36C20.88 20.64 21.4 20.88 21.92 21.2C22.92 21.76 23.92 22.4 24.92 22.96ZM4.32 35.56C3.08 35.52 1.92 35.32 1.24 34.28C0.68 33.4 0.68 32.24 1.4 31.48C2.24 30.64 4.2 30.68 4.28 30.68H26.08C27.76 30.6 30.36 30.68 30.36 33.04C30.36 35.68 26.2 35.48 24.48 35.52H22.92C21.88 35.56 20.84 35.52 19.8 35.52H18.28C18.32 37 18.44 38.8 18.24 40.08C18.12 41.08 17.76 42.12 16.88 42.68C16.08 43.2 14.88 43.24 14.04 42.76C13.36 42.36 13.04 41.4 12.92 40.68C12.8 40.08 12.88 39.36 12.88 38.76C12.84 37.8 12.84 36.6 12.84 35.48H11.84C8.88 35.52 7.28 35.6 4.32 35.56ZM47.7319 24.08C49.0919 24.92 48.9319 27.52 47.4519 28.2C46.2919 28.76 44.9319 28.64 43.7319 28.64H38.9319C37.1719 28.64 34.7719 28.48 33.6119 27.28C32.5319 26.12 32.6519 23.08 32.6919 22.96V14.04C32.6519 13.88 32.6519 12.36 33.0119 11.8C33.4919 11.12 33.8919 10.84 34.6919 10.72C35.0919 10.68 36.0919 10.64 36.0919 10.64H44.8919C45.4119 10.64 45.8919 10.68 46.3719 10.8C46.8519 10.92 47.3719 11 47.7319 11.4C48.0519 11.72 48.2519 12.12 48.3319 12.56C48.4119 12.96 48.4519 13.28 48.3719 13.64C48.2519 14.68 47.4519 15.56 46.2519 15.56C46.0119 15.56 45.7719 15.52 38.1719 15.52V17C39.8519 17.08 41.1719 17 41.2119 17H43.0919C43.3319 17 43.6119 17.04 43.9319 17H44.9719C45.5719 17 46.2119 17.08 46.7319 17.36C47.5319 17.76 47.6919 18.76 47.6119 19.52C47.5719 19.88 47.5719 20.32 47.3319 20.6C46.7319 21.4 46.0519 21.48 45.3319 21.48H38.1719V22.64C38.1719 22.92 38.2119 23.24 38.4119 23.44C38.6519 23.64 39.0919 23.68 39.3719 23.68H44.7319C45.6119 23.68 46.4919 23.64 47.2919 23.88C47.4519 23.92 47.6119 24 47.7319 24.08ZM55.1719 26.52C55.1319 27.08 55.0519 27.72 54.7319 28.32C54.5719 28.64 54.3319 28.92 54.0519 29.08C53.6919 29.36 53.4919 29.52 53.0119 29.52C52.6119 29.52 52.2519 29.4 51.8919 29.2C50.8519 28.56 50.6919 27.12 50.6919 27.04V13.88C50.6519 13.64 50.6919 12.44 51.0119 11.8C51.2519 11.28 51.8919 10.92 52.6519 10.84C53.5319 10.72 54.0919 10.96 54.5319 11.44C54.8919 11.84 54.9319 12.24 55.0519 12.68C55.2119 13.2 55.2119 13.84 55.2119 14.4C55.1719 14.4 55.1719 16.88 55.1719 17.6C55.4119 17.64 56.2519 17.68 56.9719 17.72L57.0119 14.28C56.9719 13.72 56.9719 13.12 57.1319 12.56C57.2519 12.16 57.4919 11.76 57.8519 11.36C58.2519 10.84 58.8519 10.6 59.7319 10.72C60.4919 10.84 60.9319 11.24 61.1719 11.76C61.4919 12.4 61.5319 13.56 61.4919 13.76V27.16C61.4919 27.24 61.4519 28.68 60.3719 29.32C60.0519 29.52 59.8119 29.6 59.4519 29.6C58.9719 29.6 58.4919 29.48 58.1319 29.2C57.8519 29 57.6119 28.72 57.4519 28.4C56.8919 27.44 56.9719 25.52 56.9719 24.56V22.08H55.1719V26.52ZM57.1719 32.24C59.3319 32.24 60.8119 32.96 60.8119 34.16V39.52C60.8519 40.12 60.8519 40.72 60.8119 41.28C60.6919 42.4 59.8519 43.16 58.6519 43.16C58.3719 43.16 57.4919 43.12 57.2119 43.04C55.8119 42.6 55.6919 41.28 55.6119 40.08C55.5719 39.6 55.5719 37.36 55.4919 36.96C55.3319 36.92 54.7719 36.84 52.8119 36.84C51.0919 36.84 50.9319 36.92 50.8919 36.92H36.4519L36.4119 36.88C36.3719 36.88 34.7719 36.52 34.6119 35.4C34.4919 34.4 34.6519 33.6 35.1319 33C35.7719 32.24 36.7319 32.24 36.7719 32.24H57.1719ZM67.8469 27.72C66.7669 26.96 66.0069 25.84 65.5669 24.52C65.0469 23.16 64.8869 21.88 64.8869 20.56C64.8869 19.16 65.1269 18 65.5669 16.84C66.0869 15.72 66.6869 14.72 67.5269 13.96C68.3669 13.08 69.2869 12.44 70.4869 12C71.5669 11.48 72.8469 11.24 74.2069 11.24C74.7269 11.16 75.1269 11.16 75.6069 11.24C76.0469 11.24 76.5669 11.32 77.0069 11.4C77.2069 11.48 77.4869 11.48 77.7269 11.56C78.0069 11.56 78.2469 11.68 78.4069 11.76C79.0069 11.92 79.4869 12.08 80.0069 12.36C80.5269 12.6 80.9669 12.84 81.3669 13.08C81.6869 13.24 82.1269 13.6 82.4869 13.96C83.0069 14.48 83.3269 14.88 83.6469 15.44C83.9669 15.96 84.2469 16.56 84.3269 17.24C84.4869 17.84 84.5669 18.44 84.6869 19.04C84.7669 19.6 84.8469 20.2 84.7669 20.88C84.7669 21.2 84.6869 21.64 84.6869 21.96C84.5669 22.4 84.5669 22.84 84.4069 23.16C84.2469 24.16 83.8869 25.2 83.4069 26.04C82.8069 26.96 82.1269 27.6 81.2069 28.24C80.5269 28.64 79.8469 29 79.0869 29.16C78.4069 29.36 77.6469 29.48 76.9269 29.64C76.6469 29.72 76.4069 29.72 76.1269 29.72C75.9669 29.72 75.6869 29.72 75.4469 29.8H74.7269C74.5269 29.8 74.2869 29.8 74.0069 29.72C73.6869 29.72 73.3269 29.72 73.0069 29.64C72.6069 29.64 72.2469 29.56 71.8869 29.56C71.1269 29.44 70.4869 29.24 69.8069 28.92C69.0869 28.56 68.4469 28.24 67.8469 27.72ZM93.6469 15.76V18.36C93.7269 19.4 93.7269 20.56 93.7269 21.76V28.24C93.7269 29.44 93.7269 30.52 93.6469 31.52V36.08C93.5669 36.92 93.6469 37.8 93.6469 38.52C93.6469 39.04 93.6469 39.56 93.5669 39.96C93.5669 40.4 93.4869 40.72 93.2869 41C93.2069 41.24 93.0469 41.4 92.9669 41.68C92.7669 41.84 92.6069 42.08 92.1669 42.24C91.6869 42.6 91.0069 42.68 90.3269 42.6C89.8869 42.48 89.5669 42.32 89.3269 42.08C89.0869 41.92 88.8869 41.6 88.7269 41.24C88.5669 40.88 88.4469 40.56 88.4469 40.2C88.3669 39.96 88.2869 39.64 88.2869 39.48V39.04L88.2069 15.32C88.2069 14.64 88.2069 13.96 88.3669 13.12C88.4469 12.36 88.7269 11.76 89.0869 11.36C89.4069 11.12 89.7269 10.92 89.9669 10.84C90.3269 10.76 90.6469 10.76 91.0869 10.76C91.5269 10.76 91.9269 10.84 92.3669 11.12C92.6869 11.36 92.9669 11.72 93.1269 12.12C93.3669 12.72 93.5669 13.32 93.5669 13.88C93.5669 14.48 93.5669 15.16 93.6469 15.76ZM84.8469 34.2C85.2069 34.32 85.5269 34.48 85.7669 34.64C86.2869 35.16 86.6069 35.68 86.6069 36.32C86.6069 36.76 86.4469 37.2 86.1669 37.52C85.9269 37.84 85.6469 38.08 85.2869 38.2C85.0069 38.28 84.7669 38.36 84.4869 38.36C84.1669 38.44 83.8869 38.44 83.6469 38.44H79.8469C78.9269 38.44 78.0069 38.44 77.0069 38.52H74.2069C73.2469 38.44 72.5269 38.44 71.8069 38.44H67.6069C67.0869 38.44 66.6069 38.36 66.0869 38.28C65.8069 38.2 65.5669 38.08 65.3269 38C65.0469 37.92 64.8869 37.84 64.6469 37.64C64.3269 37.28 64.1269 36.84 64.1269 36.16C64.1269 35.6 64.3269 35.16 64.6469 34.8C64.8069 34.56 65.0469 34.4 65.4069 34.32C65.7269 34.2 66.0869 34.12 66.3269 34.04C66.6869 33.96 66.8869 33.96 67.0869 33.96H82.2069C82.7269 33.96 83.2469 33.96 83.6469 34.04C84.0869 34.04 84.4069 34.12 84.8469 34.2ZM70.2069 19.84C70.1269 20.36 70.1269 20.88 70.2069 21.44C70.3269 22.04 70.4869 22.56 70.7269 23C71.2869 23.84 72.0869 24.44 73.0869 24.84C73.8469 25.12 74.6069 25.2 75.3669 25.2C75.8069 25.12 76.1269 25.12 76.5669 25.04C76.9269 25.04 77.2869 24.84 77.6469 24.68C78.1669 24.44 78.6069 24 78.9269 23.48C79.2869 22.92 79.4069 22.4 79.5669 21.8C79.7669 20.88 79.6869 20.12 79.4069 19.24C79.2869 18.88 79.0869 18.52 78.9269 18.24C78.7669 18.08 78.6869 17.84 78.4869 17.76C78.4069 17.56 78.2469 17.4 78.0069 17.24C77.8069 17.12 77.5669 17 77.3669 16.92C77.1669 16.76 76.9269 16.68 76.6469 16.56C75.9669 16.4 75.2869 16.32 74.5269 16.32C73.8469 16.32 73.1669 16.4 72.6069 16.68C72.0069 16.92 71.4869 17.24 71.0469 17.84C70.6469 18.36 70.4069 19.04 70.2069 19.84ZM131.01 18.88C132.01 19.32 133.01 20 133.85 20.68C134.73 21.44 134.45 23.2 133.13 23.44C131.45 23.8 129.45 23.28 127.93 22.6C126.49 21.96 125.29 21.4 124.09 20.72C123.37 20.32 121.33 19.28 121.33 19.28C121.33 19.28 118.89 20.36 118.05 20.76C116.65 21.48 115.61 21.92 114.21 22.56C113.17 23 112.05 23.72 110.85 23.64C109.89 23.6 108.81 23.2 108.61 22.16C108.57 21.88 108.61 21.56 108.69 21.24C108.89 20.48 109.45 20 110.17 19.56L112.93 18.2C113.85 17.72 114.41 17.48 115.37 17.04C116.25 16.56 117.61 15.88 118.65 15.52V14.28H114.41C113.57 14.28 113.05 14.32 112.25 14.24C111.65 14.16 110.89 14.24 110.33 13.96C110.01 13.8 109.77 13.52 109.61 13.2C109.29 12.68 109.21 11.92 109.49 11.36C109.89 10.52 111.01 10.08 112.01 10.08H112.93C113.77 10.12 113.97 10.08 114.81 10.08H128.65C130.41 10.08 133.41 9.64 133.97 11.92C134.61 14.52 130.29 14.44 128.61 14.36C126.97 14.28 124.49 14.36 124.49 14.36V15.6C124.81 15.76 125.17 15.96 125.53 16.08C125.85 16.24 126.13 16.4 126.45 16.56C126.97 16.84 127.49 17.04 128.01 17.32C129.01 17.8 130.01 18.36 131.01 18.88ZM133.17 25.56C134.05 25.6 135.05 25.76 135.81 26.36C136.17 26.64 136.37 27.12 136.37 27.6C136.37 28.12 136.17 28.8 135.85 29.08C135.01 29.88 132.93 29.8 132.85 29.8L111.53 29.84C110.33 29.88 108.85 29.96 107.97 29.24C107.37 28.8 107.05 28.36 107.05 27.76C107.05 27.04 107.61 26.12 108.45 25.84C109.57 25.48 110.77 25.6 111.97 25.56C114.57 25.48 115.41 25.56 118.09 25.56V23.24C118.09 21.64 119.77 21.12 121.37 21.28C122.81 21.44 123.61 21.84 123.65 22.88C123.73 23.64 123.77 24.64 123.77 25.56C126.73 25.56 130.89 25.44 133.17 25.56ZM108.33 37.36C108.33 32.84 114.21 32.16 121.41 32.16C128.65 32.16 134.53 32.32 134.53 37.36C134.53 42.32 128.65 42.56 121.41 42.56C114.21 42.56 108.33 42.32 108.33 37.36ZM129.25 37.36C129.25 35.64 125.09 35.72 121.41 35.72C117.77 35.72 113.85 35.64 113.85 37.36C113.85 38.88 117.77 39 121.41 39C125.09 39 129.25 39.36 129.25 37.36ZM152.788 11.24H160.868C161.788 11.24 162.708 11.24 163.548 11.52C164.828 11.88 165.068 13.4 165.068 14.56V18.2C165.068 19 164.788 21.32 163.948 21.88C163.228 22.32 162.508 22.32 161.868 22.28H145.268V23.96H161.908C162.388 23.96 162.828 23.96 163.268 24C164.068 24.04 164.788 24.4 165.068 25.32C165.348 26.4 164.988 27.44 164.028 27.88C163.388 28.16 162.668 28.2 162.108 28.2H145.908C144.828 28.2 143.668 28.2 142.508 28.16C141.388 28.08 140.588 26.88 140.468 25.52C140.388 24.52 140.348 22.32 140.348 21.48V20.52C140.308 19.88 140.308 19.12 140.788 18.52C141.468 17.6 142.908 17.48 144.068 17.48C144.348 17.48 145.108 17.56 145.468 17.52H160.468V15.8H145.068C144.788 15.8 144.468 15.84 144.188 15.84C143.868 15.84 143.508 15.88 143.188 15.88C142.668 15.88 142.228 15.84 141.828 15.72C141.348 15.6 140.988 15.28 140.708 14.8C140.348 14.16 140.268 13.56 140.428 12.84C140.708 11.88 141.908 11.44 142.508 11.32C142.908 11.24 143.308 11.24 143.788 11.24H145.188C146.868 11.28 150.468 11.28 152.788 11.24ZM163.548 31.04C165.228 30.96 167.548 31.2 167.548 33.4C167.548 36.04 163.388 35.84 161.628 35.88C161.388 35.88 161.148 35.92 160.908 35.92C160.948 37.4 161.028 38.68 160.868 39.96C160.707 40.96 160.388 41.96 159.508 42.56C158.708 43.08 157.508 43.08 156.668 42.6C155.988 42.2 155.668 41.28 155.508 40.52C155.428 39.96 155.508 39.2 155.468 38.6V35.92L150.188 35.88C150.228 37.52 150.348 38.52 150.148 39.92C149.988 40.92 149.668 41.92 148.788 42.52C147.988 43.04 146.788 43.04 145.948 42.56C145.268 42.16 144.948 41.24 144.788 40.48C144.708 39.92 144.788 39.16 144.748 38.56V35.88L141.508 35.92C140.268 35.92 139.068 35.68 138.428 34.64C137.828 33.76 137.828 32.64 138.588 31.84C139.388 31 141.388 31.08 141.468 31.08L163.548 31.04ZM180.199 10.16C185.639 10.52 188.679 13.64 188.279 19.36C187.919 24.12 185.359 26.88 180.279 26.88C177.519 26.88 176.079 27.08 173.639 25.56C171.319 24.08 170.599 21.12 170.599 18.56C170.599 12.8 174.679 9.76 180.199 10.16ZM199.279 23.96H199.359C199.639 23.92 199.879 24 200.119 24C200.439 24.04 200.719 24.08 201.039 24.12C201.639 24.24 202.279 24.48 202.599 25.08C202.759 25.4 202.839 25.76 202.839 26.16C202.839 26.52 202.839 26.92 202.759 27.28C202.639 27.68 202.519 28.24 202.199 28.52C201.879 28.76 201.479 28.96 201.079 29.04C200.239 29.16 198.799 29.04 197.959 29.08C197.879 29.12 197.839 29.12 197.839 29.12C197.839 29.12 197.839 29.16 197.799 29.28C197.759 30.6 197.799 31.76 197.799 33.12C197.839 34.48 197.839 35.88 197.799 37.2V37.76C197.799 39.16 197.839 41.2 196.879 42.2C196.519 42.52 196.079 42.72 195.559 42.72H195.479C192.879 42.6 192.639 39.48 192.639 37.8V14.04C192.639 13.96 192.559 11.96 193.439 11.08C193.839 10.72 194.679 10.52 195.239 10.52C195.839 10.52 196.399 10.76 196.759 11.12C197.439 11.88 197.519 12.72 197.559 13.6C197.599 13.76 197.599 13.92 197.639 14.12C197.719 14.96 197.719 15.96 197.759 16.92C197.759 17.52 197.799 18.08 197.799 18.64V22.96C197.799 23.24 197.799 23.56 197.879 23.84C197.879 23.88 198.679 23.88 198.759 23.92C198.919 23.92 199.119 23.96 199.279 23.96ZM172.759 34.72C172.959 34.64 175.439 34.8 176.119 34.8C176.199 33.96 176.279 29.72 176.399 29.4C176.599 28.76 177.079 28.28 177.639 28.04C177.959 27.92 178.239 27.88 178.559 27.88C179.719 27.88 180.719 28.56 180.999 29.52C181.159 29.92 181.159 34 181.159 34.76V34.8H187.679C188.559 34.8 189.279 34.96 189.799 35.28C190.999 36 190.959 37.96 190.439 38.92C189.959 39.76 188.919 39.84 188.079 39.84H172.279C172.239 39.84 170.879 39.72 170.159 39.4C169.639 39.12 169.239 38.52 169.119 37.76C168.999 36.92 169.279 36.12 169.799 35.64C170.759 34.84 171.839 34.72 172.759 34.72ZM183.639 19.84L183.679 19.52C183.919 17.6 182.959 15.76 181.279 15.16C179.039 14.4 175.599 15.08 175.159 18.08C174.839 20.12 175.719 22.36 178.799 22.64C180.919 22.88 183.119 22.28 183.639 19.84ZM221.333 19.12L221.373 20.12C221.333 20.68 221.453 20.32 221.613 20.36C221.933 20.52 222.853 20.6 223.773 20.6H223.973C224.813 20.56 233.093 20.56 233.933 20.6H235.813C236.013 20.6 236.133 20.6 236.333 20.56H237.013C237.813 20.56 238.653 20.56 239.453 20.76C239.573 20.76 239.733 20.84 239.853 20.88C241.173 21.64 241.013 23.44 239.573 24.04C238.493 24.52 237.173 24.6 236.093 24.6H234.453C233.053 24.64 224.173 24.6 222.773 24.6H222.093C220.453 24.6 218.133 24.52 217.053 23.48C216.013 22.6 216.133 20.12 216.173 20V12.68C216.173 12.56 216.133 11.32 216.493 10.88C216.933 10.32 217.293 10.08 218.053 10C218.493 9.92 219.413 9.92 219.413 9.92H236.773C237.253 9.92 237.693 9.92 238.173 10.04C238.653 10.12 239.093 10.2 239.453 10.56C239.773 10.8 239.933 11.16 240.013 11.48C240.093 11.8 240.133 12.08 240.053 12.4C239.933 13.24 239.173 13.88 238.053 13.88H221.373V15.44C222.973 15.48 231.733 15.44 231.773 15.44H235.453C235.653 15.44 235.933 15.48 236.213 15.44H237.253C237.773 15.44 238.413 15.48 238.893 15.76C239.653 16.08 239.813 16.88 239.733 17.48C239.693 17.8 239.693 18.16 239.453 18.4C238.893 19.04 238.253 19.12 237.573 19.12H221.333ZM237.253 32.92C239.413 32.92 240.693 33.64 240.693 34.88V37.4C240.733 37.88 240.773 40.92 240.693 41.52C240.613 42.64 239.733 43.4 238.533 43.4C238.253 43.4 237.573 43.36 237.293 43.28C235.853 42.84 235.773 41.52 235.733 40.32C235.693 39.84 235.613 37.88 235.533 37.48C235.373 37.44 234.813 37.36 232.853 37.36C231.133 37.36 229.813 37.4 229.813 37.4H216.893C216.813 37.4 215.253 37.24 215.093 36.12C214.933 35.12 215.093 34.32 215.573 33.72C216.213 32.96 217.173 32.96 217.213 32.96L237.253 32.92ZM238.893 26.52C240.733 26.52 243.253 26.08 243.253 28.88C243.253 29.44 242.973 30.04 242.453 30.52C241.613 31.2 240.333 31.16 239.253 31.12C239.013 31.08 238.773 31.08 238.533 31.08H216.693C216.613 31.08 214.813 31.12 214.053 30.36C213.733 30 213.573 29.48 213.573 29C213.573 28.44 213.773 28 214.093 27.68C214.773 27.04 215.533 26.6 216.293 26.52C216.453 26.52 216.613 26.56 216.773 26.52C217.533 26.44 218.413 26.56 219.293 26.52C222.013 26.44 224.813 26.52 227.893 26.52C231.213 26.52 235.133 26.44 238.693 26.52H238.893ZM247.783 36.64C247.783 31.8 253.783 30.48 261.143 30.48C268.503 30.48 274.503 31.24 274.503 36.64C274.503 41.96 268.503 42.8 261.143 42.8C253.783 42.8 247.783 41.96 247.783 36.64ZM257.583 15.56C257.543 15.52 257.543 19.4 257.583 19.6C257.863 19.84 258.703 20.64 259.183 21.04C259.703 21.48 260.263 22 260.863 22.56C261.223 22.92 261.543 23.28 261.823 23.56C262.823 24.56 264.023 25.8 264.383 27C264.543 27.48 264.463 28.16 263.903 28.56C263.503 28.8 263.023 28.96 262.463 28.96C261.303 28.96 260.143 28.36 259.503 27.88C258.503 27.12 257.663 26.28 256.823 25.44C256.223 24.84 255.463 23.96 254.703 23.4L253.623 24.48C253.263 24.84 252.863 25.2 252.543 25.56C251.863 26.32 251.143 27.12 250.183 27.8C249.103 28.6 248.063 29 247.103 29C246.863 29 246.663 29 246.423 28.92C245.863 28.8 245.463 28.56 245.263 28.2C244.903 27.6 245.103 26.76 245.423 26.2C245.823 25.6 246.423 25.04 246.943 24.48C247.903 23.44 251.543 20.04 251.983 19.6V15.56H249.423C248.103 15.56 245.823 15.88 245.143 14.32C244.903 13.72 244.783 12.92 244.943 12.28C245.143 11.52 246.063 11.28 246.743 11.2C246.983 11.16 250.303 11.24 250.663 11.16H260.023C262.143 11.16 263.623 11.32 264.503 12.36C265.023 13 264.863 14.72 264.023 15.12C263.623 15.28 262.943 15.52 262.503 15.56C261.743 15.6 260.983 15.56 260.223 15.56H257.583ZM273.983 13.92V26.96C273.983 27 273.823 28.56 272.783 29.24C272.423 29.44 272.063 29.56 271.663 29.56C271.183 29.56 270.743 29.4 270.343 29.12C270.063 28.92 269.823 28.64 269.663 28.28C268.863 26.68 269.183 24.32 269.183 22.56C269.223 20.28 269.223 17.28 269.223 15.04V14.52C269.183 13.92 269.183 13.24 269.343 12.64C269.463 12.2 269.703 11.8 270.063 11.36C270.503 10.84 271.343 10.56 272.223 10.68C272.983 10.8 273.583 11.2 273.823 11.72C274.143 12.4 274.023 13.72 273.983 13.92ZM269.103 36.64C269.103 34.8 264.863 34.64 261.143 34.64C257.423 34.64 253.423 34.8 253.423 36.64C253.423 38.28 257.423 38.6 261.143 38.6C264.863 38.6 269.103 38.8 269.103 36.64Z" fill="#48724B"/>
<g clip-path="url(#clip0_1866_91322)">
<path d="M288.988 14.3C286.84 15.2579 287.165 17.7524 286.613 18.5307C286.061 19.309 283.607 20.0973 283.381 22.7415C283.144 25.3857 284.938 25.256 285.726 26.4035C286.505 27.551 285.992 30.3648 289.373 30.9236C292.753 31.4824 292.862 28.6785 294.212 28.3792C295.562 28.0898 298.735 28.1497 300.48 26.0144C302.185 23.9189 300.667 21.4543 300.381 20.5762C300.096 19.6882 300.618 17.3633 299.14 16.1958C297.661 15.0384 296.203 16.2058 294.971 15.5672C293.739 14.9286 291.157 13.3421 289.008 14.3" fill="#D1E8CF"/>
<path d="M290.206 31.3633C289.93 31.3633 289.635 31.3433 289.309 31.2834C286.638 30.8344 286.175 29.0583 285.84 27.7611C285.722 27.3121 285.613 26.8831 285.426 26.6136C285.219 26.3043 284.894 26.0848 284.559 25.8653C283.8 25.3564 282.844 24.7178 283.022 22.7122C283.209 20.6367 284.638 19.609 285.594 18.9205C285.919 18.681 286.205 18.4814 286.333 18.3118C286.461 18.1322 286.54 17.743 286.638 17.3339C286.875 16.2264 287.21 14.6997 288.856 13.9613C290.965 13.0234 293.35 14.2906 294.769 15.0489L295.134 15.2385C295.568 15.468 296.07 15.4082 296.642 15.3483C297.47 15.2585 298.406 15.1487 299.362 15.8971C300.535 16.8151 300.584 18.3417 300.623 19.4493C300.633 19.8584 300.653 20.2376 300.722 20.4471C300.761 20.5768 300.83 20.7465 300.919 20.9361C301.422 22.1135 302.348 24.2987 300.761 26.2345C299.273 28.0505 296.859 28.3698 295.262 28.5793C294.887 28.6292 294.552 28.6691 294.296 28.729C293.951 28.8088 293.685 29.1481 293.35 29.5871C292.759 30.3455 291.98 31.3533 290.226 31.3533L290.206 31.3633ZM289.142 14.6398C287.821 15.2285 287.555 16.4858 287.338 17.4936C287.23 18.0025 287.131 18.4415 286.914 18.7508C286.727 19.0103 286.392 19.2497 286.018 19.5291C285.131 20.1677 283.909 21.0458 283.751 22.782C283.613 24.3586 284.244 24.7777 284.963 25.2566C285.347 25.5061 285.742 25.7755 286.027 26.2045C286.284 26.5737 286.412 27.0627 286.54 27.5815C286.875 28.8687 287.23 30.2058 289.428 30.575C291.409 30.9043 292.098 30.0162 292.759 29.1581C293.153 28.6492 293.527 28.1702 294.129 28.0405C294.405 27.9807 294.759 27.9308 295.163 27.8809C296.652 27.6913 298.889 27.3919 300.2 25.7954C301.5 24.1989 300.722 22.353 300.249 21.2554C300.16 21.0358 300.081 20.8463 300.032 20.7066C299.933 20.3972 299.914 19.9782 299.904 19.4992C299.864 18.4814 299.825 17.2142 298.918 16.5058C298.199 15.937 297.479 16.0168 296.721 16.1066C296.09 16.1765 295.43 16.2463 294.799 15.927L294.424 15.7275C293.123 15.029 290.935 13.8615 289.142 14.6598V14.6398Z" fill="#7DA37E"/>
<path d="M291.817 23.1002C292.172 23.0104 292.537 23.2299 292.616 23.5792C292.704 23.9384 292.487 24.2976 292.133 24.3874C291.778 24.4772 291.413 24.2577 291.325 23.9085C291.236 23.5492 291.453 23.19 291.817 23.1002Z" fill="#C8A374"/>
<path d="M290.567 21.9733C290.922 21.8835 291.287 22.103 291.366 22.4522C291.454 22.8114 291.237 23.1706 290.883 23.2604C290.528 23.3503 290.163 23.1307 290.075 22.7815C289.986 22.4223 290.203 22.0631 290.567 21.9733Z" fill="#C8A374"/>
<path d="M293.739 22.7506C294.094 22.6608 294.459 22.8803 294.537 23.2296C294.626 23.5888 294.409 23.948 294.055 24.0378C293.7 24.1276 293.335 23.9081 293.246 23.5588C293.158 23.1996 293.375 22.8404 293.739 22.7506Z" fill="#C8A374"/>
<path d="M294.317 21.2155C294.672 21.1257 295.037 21.3452 295.116 21.6944C295.204 22.0536 294.987 22.4128 294.633 22.5026C294.278 22.5924 293.913 22.3729 293.825 22.0237C293.736 21.6645 293.953 21.3053 294.317 21.2155Z" fill="#C8A374"/>
<path d="M292.45 21.194C292.805 21.1042 293.17 21.3237 293.248 21.6729C293.337 22.0321 293.12 22.3914 292.765 22.4812C292.411 22.571 292.046 22.3514 291.957 22.0022C291.869 21.643 292.085 21.2838 292.45 21.194Z" fill="#C8A374"/>
<path d="M293.653 19.5182C294.008 19.4284 294.373 19.6479 294.452 19.9971C294.54 20.3564 294.323 20.7156 293.969 20.8054C293.614 20.8952 293.249 20.6757 293.16 20.3264C293.072 19.9672 293.289 19.608 293.653 19.5182Z" fill="#C8A374"/>
<path d="M291.927 19.2194C292.281 19.1296 292.646 19.3491 292.725 19.6983C292.814 20.0575 292.597 20.4167 292.242 20.5065C291.887 20.5963 291.523 20.3768 291.434 20.0276C291.345 19.6684 291.562 19.3092 291.927 19.2194Z" fill="#C8A374"/>
<path d="M290.708 20.3463C291.063 20.2565 291.427 20.476 291.506 20.8253C291.595 21.1845 291.378 21.5437 291.023 21.6335C290.668 21.7233 290.304 21.5038 290.215 21.1545C290.126 20.7953 290.343 20.4361 290.708 20.3463Z" fill="#C8A374"/>
<path d="M304.21 18.33C302.643 18.2202 300.967 19.0584 300.189 20.1061C299.41 21.1538 299.41 22.9599 298.819 23.4688C298.346 23.8679 297.222 24.0375 296.227 24.5963C295.084 25.2449 294.206 26.4422 293.96 28.1585C293.704 29.9745 294.778 31.3016 296.01 32.03C296.956 32.5888 297.745 32.5289 298.572 33.0179C299.39 33.5068 299.794 34.1454 300.504 34.9237C301.164 35.6521 302.239 36.5002 304.003 36.61C305.777 36.7098 306.989 36.0812 307.521 35.223C307.984 34.4747 308.339 33.6365 308.802 33.1176C309.236 32.6187 310.261 32.479 311.099 31.8604C312.153 31.0821 312.794 29.6452 312.616 27.7494C312.528 26.8514 311.946 25.8136 311.197 25.165C310.369 24.4566 308.95 24.0674 308.645 23.6683C308.329 23.2692 308.832 21.9321 307.965 20.6948C307.097 19.4575 305.678 18.4298 304.22 18.33" fill="#E9F4E5"/>
<path d="M304.367 37.0009C304.239 37.0009 304.111 37.0009 303.983 36.9909C302.485 36.9011 301.253 36.3124 300.238 35.1949C300.051 34.9853 299.883 34.7957 299.726 34.6062C299.292 34.0873 298.947 33.6882 298.385 33.3489C298.03 33.1394 297.666 33.0396 297.281 32.9298C296.848 32.8101 296.355 32.6704 295.823 32.3611C294.187 31.3932 293.359 29.8067 293.605 28.1203C293.852 26.4041 294.719 25.0471 296.049 24.2887C296.562 23.9994 297.094 23.8098 297.567 23.6501C297.991 23.5005 298.395 23.3608 298.582 23.2011C298.789 23.0315 298.927 22.4827 299.075 21.9439C299.252 21.2554 299.459 20.487 299.903 19.8884C300.81 18.671 302.623 17.8528 304.239 17.9725C305.708 18.0723 307.255 19.0402 308.26 20.497C308.862 21.3651 308.871 22.2831 308.881 22.8918C308.881 23.1013 308.881 23.3907 308.931 23.4605C309.019 23.5803 309.453 23.7798 309.798 23.9395C310.34 24.1989 310.961 24.4883 311.444 24.8974C312.272 25.6058 312.892 26.7434 312.981 27.7212C313.168 29.637 312.557 31.2535 311.316 32.1715C310.882 32.4908 310.409 32.6903 309.995 32.87C309.591 33.0396 309.246 33.1893 309.078 33.3788C308.812 33.6882 308.566 34.1272 308.31 34.6062C308.162 34.8855 308.004 35.1649 307.837 35.4443C307.226 36.4421 305.944 37.0109 304.377 37.0109L304.367 37.0009ZM303.944 18.691C302.653 18.691 301.194 19.3695 300.484 20.3274C300.13 20.8063 299.942 21.5048 299.775 22.1235C299.588 22.8219 299.43 23.4206 299.055 23.7499C298.76 23.9994 298.316 24.149 297.804 24.3286C297.36 24.4883 296.858 24.6579 296.404 24.9174C295.271 25.556 294.532 26.7234 294.325 28.2102C294.039 30.1958 295.537 31.3233 296.197 31.7125C296.641 31.9819 297.045 32.0917 297.478 32.2114C297.892 32.3212 298.316 32.4409 298.76 32.7003C299.42 33.0995 299.824 33.5684 300.277 34.1072C300.425 34.2869 300.593 34.4764 300.77 34.676C301.657 35.6539 302.722 36.1628 304.023 36.2426C305.491 36.3224 306.693 35.8734 307.216 35.0252C307.373 34.7658 307.531 34.4864 307.669 34.227C307.945 33.7181 308.211 33.2391 308.536 32.87C308.822 32.5507 309.256 32.3611 309.719 32.1715C310.113 32.0019 310.527 31.8322 310.892 31.5628C311.917 30.8045 312.419 29.4275 312.262 27.7811C312.183 26.9928 311.651 26.0349 310.971 25.4462C310.567 25.097 309.995 24.8275 309.492 24.5981C308.97 24.3586 308.566 24.159 308.359 23.8996C308.162 23.6501 308.162 23.3109 308.152 22.8818C308.152 22.3031 308.142 21.5846 307.669 20.9061C306.802 19.6489 305.432 18.7808 304.19 18.691C304.111 18.691 304.032 18.691 303.944 18.691Z" fill="#7DA37E"/>
<path d="M303.047 26.2836C302.948 26.6229 302.594 26.8124 302.268 26.7127C301.943 26.6129 301.756 26.2537 301.854 25.9244C301.953 25.5851 302.298 25.3955 302.633 25.4953C302.958 25.5951 303.145 25.9543 303.047 26.2836Z" fill="#C8A374"/>
<path d="M304.555 25.8051C304.456 26.1443 304.101 26.3339 303.776 26.2341C303.451 26.1344 303.264 25.7751 303.362 25.4459C303.461 25.1066 303.806 24.917 304.141 25.0168C304.466 25.1166 304.653 25.4758 304.555 25.8051Z" fill="#C8A374"/>
<path d="M302.398 28.0395C302.3 28.3787 301.945 28.5683 301.62 28.4685C301.295 28.3687 301.107 28.0095 301.206 27.6802C301.305 27.341 301.649 27.1514 301.985 27.2512C302.31 27.351 302.497 27.7102 302.398 28.0395Z" fill="#C8A374"/>
<path d="M303.352 29.2563C303.253 29.5955 302.898 29.7851 302.573 29.6853C302.248 29.5855 302.061 29.2263 302.159 28.897C302.258 28.5578 302.603 28.3682 302.938 28.468C303.263 28.5678 303.45 28.927 303.352 29.2563Z" fill="#C8A374"/>
<path d="M304.266 27.7309C304.167 28.0701 303.812 28.2597 303.487 28.1599C303.162 28.0601 302.975 27.7009 303.073 27.3716C303.172 27.0324 303.517 26.8428 303.852 26.9426C304.177 27.0424 304.364 27.4016 304.266 27.7309Z" fill="#C8A374"/>
<path d="M305.039 29.5258C304.941 29.865 304.586 30.0546 304.261 29.9548C303.935 29.8551 303.748 29.4958 303.847 29.1666C303.945 28.8273 304.29 28.6377 304.625 28.7375C304.95 28.8373 305.138 29.1965 305.039 29.5258Z" fill="#C8A374"/>
<path d="M306.109 28.2582C306.011 28.5975 305.656 28.787 305.331 28.6873C305.006 28.5875 304.818 28.2283 304.917 27.899C305.015 27.5597 305.36 27.3701 305.696 27.4699C306.021 27.5697 306.208 27.9289 306.109 28.2582Z" fill="#C8A374"/>
<path d="M305.797 26.7133C305.698 27.0525 305.344 27.2421 305.018 27.1423C304.693 27.0426 304.506 26.6833 304.604 26.3541C304.703 26.0148 305.048 25.8252 305.383 25.925C305.708 26.0248 305.895 26.384 305.797 26.7133Z" fill="#C8A374"/>
<path d="M305.907 5.76849C304.596 5.12989 302.872 5.2596 301.837 5.87825C300.802 6.50688 300.191 8.06347 299.501 8.29297C298.959 8.47258 297.924 8.22312 296.88 8.35284C295.667 8.50251 294.504 9.23092 293.706 10.6179C292.859 12.0847 293.332 13.6014 294.14 14.669C294.761 15.4872 295.46 15.7068 296.002 16.4152C296.545 17.1237 296.663 17.8121 297.008 18.7401C297.323 19.5982 297.954 20.7058 299.442 21.4242C300.93 22.1327 302.202 22.0229 302.951 21.4642C303.601 20.9852 304.202 20.3865 304.774 20.0971C305.316 19.8277 306.242 20.0572 307.179 19.8277C308.351 19.5284 309.396 18.5206 309.889 16.8243C310.125 16.0161 309.978 14.9185 309.554 14.1102C309.081 13.2022 307.997 12.384 307.868 11.925C307.74 11.466 308.627 10.4981 308.312 9.12116C307.997 7.74417 307.119 6.36718 305.897 5.76849" fill="#E9F4E5"/>
<path d="M301.431 22.2514C300.771 22.2514 300.042 22.0718 299.303 21.7225C298.041 21.1139 297.193 20.1759 296.701 18.8588C296.612 18.6193 296.533 18.3898 296.464 18.1703C296.267 17.5716 296.109 17.1026 295.745 16.6237C295.508 16.3144 295.232 16.1048 294.937 15.8753C294.602 15.6159 294.227 15.3265 293.882 14.8675C292.808 13.4606 292.64 11.8042 293.429 10.4372C294.227 9.05025 295.449 8.18215 296.849 8.00254C297.391 7.93269 297.913 7.96263 298.376 7.98258C298.8 8.00254 299.194 8.0225 299.411 7.95265C299.647 7.87282 299.963 7.45374 300.259 7.04464C300.653 6.51579 301.096 5.92708 301.678 5.56787C302.88 4.83946 304.723 4.77959 306.063 5.43815C307.295 6.04682 308.291 7.41383 308.655 9.02031C308.872 9.97822 308.567 10.7665 308.37 11.2953C308.301 11.4749 308.202 11.7344 308.212 11.8042C308.251 11.9339 308.547 12.2632 308.793 12.5227C309.178 12.9318 309.611 13.4007 309.877 13.9296C310.341 14.8276 310.488 16.025 310.232 16.9031C309.73 18.6093 308.655 19.7967 307.276 20.146C306.793 20.2657 306.32 20.2757 305.896 20.2757C305.492 20.2757 305.147 20.2757 304.93 20.3954C304.595 20.5651 304.23 20.8644 303.846 21.1837C303.619 21.3733 303.393 21.5629 303.156 21.7325C302.683 22.0817 302.102 22.2514 301.441 22.2514H301.431ZM297.598 8.64114C297.381 8.64114 297.154 8.64114 296.927 8.68106C295.735 8.83073 294.69 9.57909 294 10.7865C293.074 12.3929 293.981 13.8897 294.404 14.4584C294.7 14.8476 295.006 15.087 295.331 15.3365C295.646 15.576 295.971 15.8354 296.257 16.2046C296.691 16.7734 296.868 17.3222 297.085 17.9508C297.154 18.1603 297.223 18.3798 297.312 18.6193C297.745 19.7668 298.485 20.585 299.579 21.1139C300.82 21.7026 302.003 21.7325 302.742 21.1937C302.969 21.0241 303.195 20.8444 303.402 20.6648C303.816 20.3256 304.211 19.9963 304.615 19.7967C304.969 19.6171 305.403 19.6171 305.866 19.6072C306.261 19.6072 306.674 19.6072 307.088 19.4974C308.232 19.208 309.138 18.2002 309.562 16.7235C309.769 16.015 309.641 15.0072 309.257 14.2589C309.03 13.8198 308.626 13.3808 308.271 13.0016C307.906 12.6125 307.621 12.3031 307.542 12.0138C307.463 11.7344 307.571 11.435 307.719 11.0658C307.916 10.5669 308.153 9.94828 307.975 9.18994C307.66 7.80298 306.783 6.57566 305.748 6.06678C304.457 5.43815 302.86 5.64769 302.003 6.16656C301.53 6.45592 301.136 6.99475 300.781 7.46372C300.387 8.00254 300.042 8.46154 299.598 8.61121C299.263 8.72097 298.829 8.70101 298.327 8.67108C298.09 8.6611 297.844 8.65112 297.588 8.65112L297.598 8.64114Z" fill="#7DA37E"/>
<path d="M302.179 12.2044C301.972 12.4638 301.607 12.5037 301.361 12.3042C301.114 12.1046 301.075 11.7354 301.282 11.476C301.489 11.2166 301.854 11.1766 302.1 11.3762C302.346 11.5758 302.386 11.945 302.179 12.2044Z" fill="#C8A374"/>
<path d="M303.64 12.3146C303.433 12.5741 303.068 12.614 302.822 12.4144C302.575 12.2148 302.536 11.8457 302.743 11.5862C302.95 11.3368 303.314 11.2869 303.561 11.4964C303.807 11.696 303.847 12.0652 303.64 12.3246" fill="#C8A374"/>
<path d="M301.015 13.472C300.808 13.7314 300.443 13.7713 300.197 13.5718C299.95 13.3722 299.911 13.003 300.118 12.7436C300.325 12.4841 300.689 12.4442 300.936 12.6438C301.182 12.8434 301.222 13.2125 301.015 13.472Z" fill="#C8A374"/>
<path d="M301.413 14.8587C301.206 15.1081 300.842 15.158 300.595 14.9585C300.349 14.7589 300.309 14.3897 300.516 14.1303C300.723 13.8709 301.088 13.8309 301.334 14.0305C301.581 14.2301 301.62 14.5993 301.413 14.8587Z" fill="#C8A374"/>
<path d="M302.733 13.8704C302.526 14.1298 302.162 14.1698 301.915 13.9702C301.669 13.7706 301.63 13.4014 301.837 13.142C302.044 12.8826 302.408 12.8427 302.655 13.0422C302.901 13.2418 302.94 13.611 302.733 13.8704Z" fill="#C8A374"/>
<path d="M302.772 15.6869C302.566 15.9463 302.201 15.9862 301.954 15.7867C301.708 15.5871 301.669 15.2179 301.876 14.9585C302.083 14.6991 302.447 14.6592 302.694 14.8687C302.94 15.0683 302.979 15.4374 302.772 15.6969" fill="#C8A374"/>
<path d="M304.132 14.9682C303.925 15.2276 303.56 15.2675 303.314 15.0679C303.067 14.8684 303.028 14.4992 303.235 14.2397C303.442 13.9803 303.807 13.9404 304.053 14.1499C304.299 14.3495 304.339 14.7187 304.132 14.9781" fill="#C8A374"/>
<path d="M304.397 13.5307C304.191 13.7901 303.826 13.83 303.579 13.6304C303.333 13.4309 303.294 13.0617 303.501 12.8022C303.708 12.5428 304.072 12.5029 304.319 12.7124C304.565 12.912 304.604 13.2812 304.397 13.5406" fill="#C8A374"/>
</g>
<path d="M367.692 40.6083C368.428 41.6033 367.767 43 366.54 43H347.826C338.535 43 331 35.3849 331 26.0096C331 16.6342 338.535 9 347.826 9C357.117 9 364.651 16.6151 364.651 26.0096C364.217 34.0264 365.973 38.3315 367.692 40.6083Z" fill="#48724B"/>
<path d="M343.966 21.97C342.796 23.83 340.306 22.57 340.456 20.65C340.576 19.33 341.656 17.56 342.676 16.72C344.566 15.16 347.776 14.47 350.116 15.22C353.296 16.21 355.156 18.37 355.156 21.79C355.156 25.03 354.046 26.77 350.416 29.74C349.816 30.25 349.156 30.79 348.526 31.3C348.106 31.63 345.856 32.71 347.296 32.83C348.166 32.89 348.526 32.83 349.396 32.83C350.416 32.83 351.436 32.74 352.426 32.83C353.236 32.89 354.436 32.68 355.066 33.22C355.696 33.76 355.726 35.35 355.186 35.92C354.676 36.52 353.836 36.34 353.146 36.34H342.376C341.986 36.34 341.476 36.43 341.116 36.31C340.396 36.13 340.606 35.47 340.606 34.87C340.606 32.83 342.796 31.51 344.236 30.31C345.286 29.38 346.546 28.48 347.626 27.55C350.446 25.21 351.466 23.89 351.466 22.06C351.466 20.05 350.056 18.88 348.166 18.88C346.786 18.88 345.466 19.51 344.686 20.65C344.446 21.07 344.236 21.58 343.966 21.97Z" fill="white"/>
<path d="M376.96 14.08V9.76H396.8V14.08H389.6V18.32C389.6 21.44 390.08 23.08 392.48 25.68C394.2 27.56 396.28 29.6 398.28 31.4L395.04 34.76C393.32 33.16 391.56 31.4 390.08 29.88C388.56 28.32 387.4 27 387.12 26.36H387.04C386.68 27.12 385.32 28.68 384 30.04C382.52 31.6 381 33.12 378.8 35.16L375.48 31.76C377.64 29.84 379.68 27.84 381.4 25.96C383.76 23.32 384.48 21.64 384.48 18.32V14.08H376.96ZM406.48 6.56V43.76H401.4V6.56H406.48ZM415.854 34.2V29.92H440.494V44.2H435.454V34.2H415.854ZM430.454 10.96H435.494V6.56H440.494V28.24H435.494V23.6H430.454V19.36H435.494V15.2H430.454V10.96ZM419.734 26.44C413.774 26.44 410.254 22.32 410.254 18V16.24C410.254 11.92 413.774 7.8 419.734 7.8C425.654 7.8 429.214 11.92 429.214 16.24V18C429.214 22.32 425.654 26.44 419.734 26.44ZM419.734 12.12C416.774 12.12 415.054 14.32 415.054 16.36V17.88C415.054 19.92 416.774 22.12 419.734 22.12C422.694 22.12 424.414 19.92 424.414 17.88V16.36C424.414 14.32 422.694 12.12 419.734 12.12ZM451.348 27.04H474.868V37.44H456.428V40.12H475.988V44.12H451.548V33.64H469.988V31H451.348V27.04ZM463.188 7.64V24.24H445.548V7.64H450.428V12.28H458.308V7.64H463.188ZM450.428 16.4V20.12H458.308V16.4H450.428ZM465.028 10.6H469.868V6.56H474.868V25.36H469.868V21.72H465.028V17.52H469.868V14.8H465.028V10.6ZM492.602 12.88V8.6H518.282V12.88H508.042V13.2C508.042 15.08 508.922 16.36 511.202 17.48C513.802 18.76 517.162 20.16 520.162 21.32L518.202 25.28C515.282 24.12 512.402 22.84 509.842 21.68C507.522 20.64 505.962 19.68 505.562 18.92H505.522C505.122 19.68 503.362 20.72 501.042 21.76C498.482 22.92 495.602 24.2 492.682 25.36L490.722 21.32C493.722 20.16 497.082 18.76 499.682 17.48C501.962 16.36 502.842 15.08 502.842 13.2V12.88H492.602ZM488.402 27.4H522.482V31.68H508.002V43.76H502.922V31.68H488.402V27.4ZM546.616 7.04V15.2H549.696V6.56H554.496V28.8H549.696V19.56H546.616V28.72H541.856V7.04H546.616ZM523.736 8.56H538.376V12.72H528.576V15.88H538.136V19.96H528.576V23.12C532.776 23.12 536.376 23 539.616 22.64L540.096 26.68C536.616 27.12 532.016 27.28 523.736 27.28V8.56ZM529.496 34.72V30.48H554.496V44.24H549.456V34.72H529.496ZM588.67 6.56V43.76H583.67V6.56H588.67ZM569.47 27.24C563.47 27.24 559.39 23.32 559.39 18.84V17.24C559.39 12.76 563.47 8.84 569.47 8.84C575.47 8.84 579.55 12.76 579.55 17.24V18.84C579.55 23.32 575.47 27.24 569.47 27.24ZM569.47 13.16C566.23 13.16 564.19 15.32 564.19 17.52V18.56C564.19 20.76 566.23 22.92 569.47 22.92C572.71 22.92 574.75 20.76 574.75 18.56V17.52C574.75 15.32 572.71 13.16 569.47 13.16ZM557.99 36.2V31.84C570.23 31.84 576.99 31.64 581.75 31.16L582.11 35.48C577.51 36.04 570.27 36.2 557.99 36.2ZM630.684 7.6V11.6H611.284V13.64H630.364V17.56H611.284V19.6H631.084V23.6H606.324V7.6H630.684ZM606.084 36.28V32.2H631.124V44.24H626.084V36.28H606.084ZM601.644 25.88H635.724V29.92H601.644V25.88ZM655.458 44.88C648.858 44.88 643.818 42.2 643.818 37.68V35.92C643.818 31.4 648.858 28.72 655.458 28.72C662.058 28.72 667.098 31.4 667.098 35.92V37.68C667.098 42.2 662.058 44.88 655.458 44.88ZM666.978 6.56V28.56H661.938V6.56H666.978ZM655.458 32.84C651.978 32.84 648.778 34.4 648.778 36.28V37.32C648.778 39.2 651.978 40.76 655.458 40.76C658.938 40.76 662.138 39.2 662.138 37.32V36.28C662.138 34.4 658.938 32.84 655.458 32.84ZM638.298 13.08V8.8H657.578V13.08H650.618V15.12C650.618 17.08 651.098 18.24 653.218 19.88C654.898 21.16 656.978 22.56 658.978 23.84L656.298 27.4C654.538 26.24 652.778 25.04 651.298 23.96C649.618 22.72 648.538 21.8 648.378 21.4H648.338C648.178 21.88 647.058 22.96 645.218 24.4C643.498 25.76 641.658 27.16 639.658 28.56L636.698 24.88C639.218 23.16 641.698 21.28 643.378 19.8C644.778 18.56 645.578 17.08 645.578 15.12V13.08H638.298Z" fill="#1E1E1E"/>
<defs>
<clipPath id="clip0_1866_91322">
<rect width="30" height="32" fill="white" transform="translate(283 5)"/>
</clipPath>
</defs>
</svg>
