<svg width="286" height="52" viewBox="0 0 286 52" fill="none" xmlns="http://www.w3.org/2000/svg">
<rect width="286" height="52" rx="26" fill="#E67491"/>
<path d="M20.36 16.88V31.84C20.36 32.6 20.28 33.32 20.32 34.04C20.32 34.4 20.32 34.84 20.6 35.08C20.92 35.36 21.44 35.32 21.84 35.32C22.44 35.32 23.08 35.36 23.68 35.36C25.04 35.36 27.72 35.32 29.04 35.48C29.96 35.6 31 35.72 31.8 36.24C32.2 36.52 32.4 37 32.44 37.48C32.48 37.72 32.48 37.96 32.48 38.24C32.44 38.84 32.24 39.4 31.84 39.84C31.44 40.28 30.92 40.52 30.36 40.64C29.6 40.76 28.92 40.88 28.16 40.88C27.68 40.88 25.44 40.84 25 40.84H21.32C20.28 40.84 19.28 40.68 18.24 40.64C17.44 40.6 16.52 40.36 15.92 39.8C15.36 39.24 15.08 38.52 14.92 37.76C14.6 36.04 14.76 34.2 14.76 32.44V22.64C14.76 21.72 14.8 20.76 14.76 19.8C14.76 19.64 14.68 16.32 14.76 14.56C14.84 13.48 15.12 12.16 16.48 11.6C17.08 11.4 17.72 11.24 18.36 11.4C19 11.56 19.6 11.96 19.88 12.64C20.2 13.4 20.32 14.24 20.32 15.12C20.32 15.72 20.32 16.28 20.36 16.88ZM41.64 22.84H41.72C41.96 22.84 42.2 22.92 42.48 22.92C42.76 22.96 43.08 23 43.4 23.04C44 23.16 44.64 23.4 44.92 24C45.12 24.32 45.2 24.68 45.2 25.04C45.2 25.44 45.2 25.8 45.08 26.2C45 26.6 44.88 27.16 44.52 27.44C44.2 27.68 43.84 27.88 43.44 27.96C42.6 28.08 41.16 27.96 40.32 28C40.24 28 40.2 28.04 40.2 28.04C40.2 28.04 40.16 28.04 40.16 28.2C40.12 29.52 40.16 31.92 40.16 33.28C40.2 34.64 40.2 36.04 40.16 37.36V37.92C40.16 39.32 40.16 41.36 39.2 42.32C38.88 42.68 38.44 42.88 37.92 42.88C37.92 42.88 37.88 42.84 37.84 42.84C35.24 42.76 34.96 39.64 34.96 37.96V14.2C34.96 14.12 34.92 12.12 35.8 11.24C36.16 10.88 37 10.68 37.6 10.68C38.2 10.68 38.72 10.92 39.08 11.28C39.8 12.04 39.84 12.88 39.92 13.76C39.96 13.92 39.96 14.08 39.96 14.24C40.08 15.12 40.08 16.12 40.12 17.08C40.12 17.68 40.16 18.2 40.16 18.8C40.12 19.12 40.16 19.4 40.16 19.68V21.88C40.16 22.16 40.16 22.48 40.24 22.76C40.24 22.8 41.04 22.8 41.08 22.8C41.28 22.84 41.44 22.88 41.64 22.84ZM60.5631 27.92C59.8031 28 54.6431 27.88 53.7631 27.92H53.7231C51.8431 27.92 49.8031 27.96 48.9631 26.72C48.0431 25.32 48.2431 22.08 48.2431 21.96C48.2431 21.96 48.2431 20.64 48.2831 18.84C48.3231 16.92 48.3231 14.88 48.3231 14.88C48.3231 14.56 48.3231 13 48.7231 12.36C49.2031 11.6 49.6431 11.32 50.4431 11.16C51.0431 11.08 52.7231 11 52.7231 11H61.7631C62.9231 11 64.3631 11.12 65.3631 11.76C66.9231 12.76 66.5231 14.88 66.5231 16.4C66.5231 17.24 66.4831 18.08 66.5231 18.92V21.12C66.4831 21.4 66.5231 21.72 66.5231 22.04C66.4431 22.72 66.5231 23.4 66.5231 24.12C66.5231 25.24 66.2431 27.04 64.9631 27.52C63.5631 28.08 62.0031 27.92 60.5631 27.92ZM56.1231 42.56C53.9631 42.56 52.4831 41.44 52.4831 40.24V34.48C52.4431 33.88 52.4431 33.28 52.4831 32.68C52.6031 31.56 53.4431 30.8 54.6431 30.8C54.9231 30.8 55.8031 30.84 56.0831 30.92C57.4831 31.36 57.5631 32.72 57.6431 33.92C57.6831 34.36 57.7231 37.44 57.8031 37.8C57.9631 37.84 58.5231 37.96 60.4831 37.96C62.2031 37.96 62.3631 37.88 62.4031 37.88H75.4831C75.5231 37.92 77.1231 38.28 77.2831 39.4C77.4031 40.4 77.2431 41.2 76.7631 41.76C76.1231 42.52 75.1631 42.56 75.1231 42.56H56.1231ZM76.9631 23.24H76.4431V27.4C76.4031 27.96 76.3231 28.6 76.0031 29.2C75.8431 29.52 75.6031 29.8 75.3231 29.96C74.9231 30.24 74.4431 30.4 73.9631 30.4C73.5631 30.4 73.1631 30.28 72.8431 30.08C71.7631 29.44 71.6031 28 71.6031 27.96V13.92C71.6031 13.68 71.6431 12.48 71.9631 11.84C72.2031 11.32 72.8031 10.96 73.6031 10.88C74.4831 10.76 75.3631 11 75.8031 11.48C76.1231 11.88 76.2031 12.28 76.3231 12.72C76.4831 13.24 76.4831 13.88 76.4431 14.44V18.76C76.8831 18.8 78.6831 18.88 79.1231 19C80.1631 19.2 80.5231 19.6 80.6831 20.2C80.8031 20.76 80.8431 21.68 80.5231 22.2C79.8831 23.24 78.5231 23.24 76.9631 23.24ZM60.3631 16.08L55.4431 16C54.9631 16 54.5631 16 54.2431 16.08C53.8031 16.12 53.6031 16.24 53.3231 16.56C53.1231 16.84 53.1231 17.52 53.1231 17.64V19.32C53.0831 20.08 53.0831 20.84 53.0831 20.84C53.0831 20.88 53.0031 22.24 53.4831 22.84C53.9231 23.36 55.0031 23.36 55.9631 23.36H56.0031C57.4031 23.32 58.0431 23.36 59.4831 23.36C59.9231 23.36 60.3631 23.4 60.8031 23.32C61.2431 23.28 61.3631 23.04 61.4431 22.72C61.4831 22.56 61.5231 22.4 61.5231 22.2C61.6431 21.64 61.6831 21.08 61.6831 20.48C61.6831 19.64 61.7231 18.76 61.6831 17.92C61.6431 17.52 61.7231 17.04 61.6031 16.64C61.4031 16.08 60.8431 16.08 60.3631 16.08ZM87.1484 27.72C86.0684 26.96 85.3084 25.84 84.8684 24.52C84.3484 23.16 84.1884 21.88 84.1884 20.56C84.1884 19.16 84.4284 18 84.8684 16.84C85.3884 15.72 85.9884 14.72 86.8284 13.96C87.6684 13.08 88.5884 12.44 89.7884 12C90.8684 11.48 92.1484 11.24 93.5084 11.24C94.0284 11.16 94.4284 11.16 94.9084 11.24C95.3484 11.24 95.8684 11.32 96.3084 11.4C96.5084 11.48 96.7884 11.48 97.0284 11.56C97.3084 11.56 97.5484 11.68 97.7084 11.76C98.3084 11.92 98.7884 12.08 99.3084 12.36C99.8284 12.6 100.268 12.84 100.668 13.08C100.988 13.24 101.428 13.6 101.788 13.96C102.308 14.48 102.628 14.88 102.948 15.44C103.268 15.96 103.548 16.56 103.628 17.24C103.788 17.84 103.868 18.44 103.988 19.04C104.068 19.6 104.148 20.2 104.068 20.88C104.068 21.2 103.988 21.64 103.988 21.96C103.868 22.4 103.868 22.84 103.708 23.16C103.548 24.16 103.188 25.2 102.708 26.04C102.108 26.96 101.428 27.6 100.508 28.24C99.8284 28.64 99.1484 29 98.3884 29.16C97.7084 29.36 96.9484 29.48 96.2284 29.64C95.9484 29.72 95.7084 29.72 95.4284 29.72C95.2684 29.72 94.9884 29.72 94.7484 29.8H94.0284C93.8284 29.8 93.5884 29.8 93.3084 29.72C92.9884 29.72 92.6284 29.72 92.3084 29.64C91.9084 29.64 91.5484 29.56 91.1884 29.56C90.4284 29.44 89.7884 29.24 89.1084 28.92C88.3884 28.56 87.7484 28.24 87.1484 27.72ZM112.948 15.76V18.36C113.028 19.4 113.028 20.56 113.028 21.76V28.24C113.028 29.44 113.028 30.52 112.948 31.52V36.08C112.868 36.92 112.948 37.8 112.948 38.52C112.948 39.04 112.948 39.56 112.868 39.96C112.868 40.4 112.788 40.72 112.588 41C112.508 41.24 112.348 41.4 112.268 41.68C112.068 41.84 111.908 42.08 111.468 42.24C110.988 42.6 110.308 42.68 109.628 42.6C109.188 42.48 108.868 42.32 108.628 42.08C108.388 41.92 108.188 41.6 108.028 41.24C107.868 40.88 107.748 40.56 107.748 40.2C107.668 39.96 107.588 39.64 107.588 39.48V39.04L107.508 15.32C107.508 14.64 107.508 13.96 107.668 13.12C107.748 12.36 108.028 11.76 108.388 11.36C108.708 11.12 109.028 10.92 109.268 10.84C109.628 10.76 109.948 10.76 110.388 10.76C110.828 10.76 111.228 10.84 111.668 11.12C111.988 11.36 112.268 11.72 112.428 12.12C112.668 12.72 112.868 13.32 112.868 13.88C112.868 14.48 112.868 15.16 112.948 15.76ZM104.148 34.2C104.508 34.32 104.828 34.48 105.068 34.64C105.588 35.16 105.908 35.68 105.908 36.32C105.908 36.76 105.748 37.2 105.468 37.52C105.228 37.84 104.948 38.08 104.588 38.2C104.308 38.28 104.068 38.36 103.788 38.36C103.468 38.44 103.188 38.44 102.948 38.44H99.1484C98.2284 38.44 97.3084 38.44 96.3084 38.52H93.5084C92.5484 38.44 91.8284 38.44 91.1084 38.44H86.9084C86.3884 38.44 85.9084 38.36 85.3884 38.28C85.1084 38.2 84.8684 38.08 84.6284 38C84.3484 37.92 84.1884 37.84 83.9484 37.64C83.6284 37.28 83.4284 36.84 83.4284 36.16C83.4284 35.6 83.6284 35.16 83.9484 34.8C84.1084 34.56 84.3484 34.4 84.7084 34.32C85.0284 34.2 85.3884 34.12 85.6284 34.04C85.9884 33.96 86.1884 33.96 86.3884 33.96H101.508C102.028 33.96 102.548 33.96 102.948 34.04C103.388 34.04 103.708 34.12 104.148 34.2ZM89.5084 19.84C89.4284 20.36 89.4284 20.88 89.5084 21.44C89.6284 22.04 89.7884 22.56 90.0284 23C90.5884 23.84 91.3884 24.44 92.3884 24.84C93.1484 25.12 93.9084 25.2 94.6684 25.2C95.1084 25.12 95.4284 25.12 95.8684 25.04C96.2284 25.04 96.5884 24.84 96.9484 24.68C97.4684 24.44 97.9084 24 98.2284 23.48C98.5884 22.92 98.7084 22.4 98.8684 21.8C99.0684 20.88 98.9884 20.12 98.7084 19.24C98.5884 18.88 98.3884 18.52 98.2284 18.24C98.0684 18.08 97.9884 17.84 97.7884 17.76C97.7084 17.56 97.5484 17.4 97.3084 17.24C97.1084 17.12 96.8684 17 96.6684 16.92C96.4684 16.76 96.2284 16.68 95.9484 16.56C95.2684 16.4 94.5884 16.32 93.8284 16.32C93.1484 16.32 92.4684 16.4 91.9084 16.68C91.3084 16.92 90.7884 17.24 90.3484 17.84C89.9484 18.36 89.7084 19.04 89.5084 19.84ZM144.232 23.24C145.792 23.24 147.952 23.68 147.952 25.88C147.952 28.16 144.072 28.28 142.032 28.28H136.392C134.472 28.32 132.352 28.32 131.512 27.04C130.592 25.64 130.792 22.48 130.792 22.32L130.872 15.12C130.872 14.8 130.872 13.24 131.272 12.56C131.752 11.8 132.192 11.48 133.032 11.36C133.632 11.24 134.392 11.2 135.352 11.2C135.872 11.2 142.672 11.28 143.192 11.36C144.592 11.36 146.272 11.32 147.112 12.68C147.712 13.6 147.672 14.76 147.032 15.64C146.432 16.52 144.672 16.6 143.792 16.6L136.352 16.56L136.432 23.12C137.832 23.24 142.832 23.28 144.232 23.24ZM137.312 42.52C135.152 42.52 133.672 41.4 133.672 40.2V34.44C133.632 33.84 133.632 33.24 133.672 32.64C133.792 31.52 134.632 30.76 135.832 30.76C136.112 30.76 136.992 30.8 137.272 30.88C138.672 31.32 138.752 32.68 138.832 33.88C138.872 34.32 138.912 37.4 138.992 37.76C139.152 37.8 139.712 37.92 141.672 37.92C143.392 37.92 143.552 37.84 143.592 37.84H156.272C156.312 37.88 157.912 38.24 158.072 39.36C158.192 40.36 158.032 41.16 157.552 41.72C156.912 42.48 155.952 42.52 155.912 42.52H137.312ZM159.032 23.08H156.912V27.48C156.872 28.04 156.792 28.68 156.472 29.28C156.312 29.6 156.072 29.88 155.792 30.08C155.392 30.36 154.752 30.48 154.312 30.48C153.912 30.48 153.352 30.4 153.032 30.2C151.952 29.56 151.792 28.08 151.792 28.04V13.64C151.752 13.44 151.832 12.2 152.152 11.56C152.392 11.04 153.152 10.68 153.912 10.6C154.832 10.48 155.832 10.72 156.272 11.2C156.592 11.6 156.672 12 156.792 12.44C156.952 12.96 156.952 13.6 156.912 14.16V18.64C157.352 18.68 159.912 18.72 160.392 18.84C161.432 19.04 161.792 19.48 161.912 20.04C162.072 20.6 162.112 21.52 161.792 22.04C161.152 23.08 160.592 23.04 159.032 23.08ZM176.315 10.16C181.755 10.44 185.355 12.92 184.955 17.44C184.595 21.24 181.435 23.44 176.355 23.44C173.595 23.44 171.355 23.48 168.915 22.28C166.595 21.08 165.915 18.88 165.915 16.8C165.915 12.24 169.675 10.16 176.315 10.16ZM193.195 38.28C193.275 38.32 194.755 38.68 194.915 39.8C195.075 40.8 194.915 41.6 194.435 42.16C193.835 42.92 192.955 42.96 192.915 42.96H172.035C169.995 42.96 168.755 42.24 168.755 41.04V37.48C168.715 36.88 168.715 36.28 168.755 35.68C168.835 34.56 169.675 33.8 170.795 33.8C171.075 33.8 171.635 33.84 171.875 33.92C173.235 34.36 173.315 35.72 173.395 36.92C173.395 37.36 173.435 37.84 173.555 38.2C173.675 38.24 174.475 38.36 176.355 38.36C177.955 38.36 179.435 38.28 179.475 38.28H193.195ZM194.155 30.64C194.035 31.32 193.835 32.76 193.635 33.36C193.515 33.68 193.275 34 192.995 34.24C192.435 34.6 191.715 34.64 191.115 34.52C190.755 34.44 190.435 34.4 190.195 34.16C189.475 33.44 189.155 32.48 189.235 31.12L189.315 23.36C187.395 23.36 185.475 23.12 184.835 22.24C184.075 21.2 184.995 19.16 186.315 19.08C186.955 19.08 188.115 19 189.315 19V14.6C189.275 13.44 189.315 11.44 189.995 10.72C190.555 10.16 191.155 10.12 191.795 10.12C192.675 10.12 193.395 10.64 193.715 11.48C194.155 12.64 194.115 13.84 194.155 15.04V15.24C194.275 19.28 194.155 23.32 194.155 27.08V30.64ZM182.235 29.84H178.715C178.755 32.2 178.595 34.04 177.395 34.76C176.155 35.52 173.755 35 173.635 33.68C173.555 33 173.515 31.48 173.515 29.8C172.195 29.76 170.035 29.64 168.675 29.64C167.915 29.56 167.155 29.52 166.515 28.84C166.195 28.52 166.035 28 166.035 27.44C166.035 26.92 166.195 26.4 166.515 26.04C167.235 25.2 168.995 25.24 169.075 25.24H182.755C183.795 25.16 185.075 25.12 185.875 25.88C186.355 26.36 186.635 26.96 186.635 27.6C186.635 28.4 186.155 29.12 185.435 29.4C184.475 29.8 183.235 29.88 182.235 29.84ZM179.715 17.84L179.755 17.6C179.995 16.08 179.035 15 177.355 14.52C175.115 13.92 171.275 14.04 170.835 16.44C170.515 18.04 171.395 19.36 174.475 19.6C176.595 19.76 179.195 19.76 179.715 17.84ZM213.278 36.64C213.278 31.8 219.278 30.48 226.638 30.48C233.998 30.48 239.998 31.24 239.998 36.64C239.998 41.96 233.998 42.8 226.638 42.8C219.278 42.8 213.278 41.96 213.278 36.64ZM223.478 15.56C223.438 15.52 223.438 18.64 223.478 18.84C223.758 19.08 224.598 19.88 225.078 20.28C225.598 20.72 226.158 21.24 226.758 21.8C227.118 22.16 227.438 22.52 227.718 22.8C228.718 23.8 229.918 25.04 230.278 26.24C230.438 26.72 230.358 27.4 229.798 27.8C229.398 28.04 228.918 28.2 228.358 28.2C227.198 28.2 226.038 27.6 225.398 27.12C224.398 26.36 223.558 25.52 222.718 24.68C222.118 24.08 221.358 23.2 220.598 22.64L219.518 23.72C219.158 24.08 218.758 24.44 218.438 24.8C217.758 25.56 217.038 26.36 216.078 27.04C214.998 27.84 213.958 28.24 212.998 28.24C212.758 28.24 212.558 28.24 212.318 28.16C211.758 28.04 211.358 27.8 211.158 27.44C210.798 26.84 210.998 26 211.318 25.44C211.718 24.84 212.318 24.28 212.838 23.72C213.798 22.68 217.438 19.28 217.878 18.84V15.56H215.318C213.998 15.56 211.718 15.88 211.038 14.32C210.798 13.72 210.678 12.92 210.838 12.28C211.038 11.52 211.958 11.28 212.638 11.2C212.878 11.16 216.198 11.24 216.558 11.16H225.918C228.038 11.16 229.518 11.32 230.398 12.36C230.918 13 230.758 14.72 229.918 15.12C229.518 15.28 228.838 15.52 228.398 15.56C227.638 15.6 226.878 15.56 226.118 15.56H223.478ZM234.678 22.32H232.518C230.958 22.24 229.678 22.36 228.998 21.32C228.678 20.8 228.718 19.76 228.838 19.2C228.998 18.6 229.358 18.2 230.398 17.96C230.838 17.88 234.238 17.84 234.678 17.8V14C234.638 13.44 234.638 12.8 234.798 12.24C234.918 11.84 234.958 11.44 235.318 11.04C235.758 10.52 236.598 10.28 237.478 10.4C238.278 10.52 238.998 10.88 239.238 11.4C239.558 12.04 239.598 13.24 239.598 13.44V27.16H239.558C239.558 27.24 239.398 28.68 238.358 29.32C237.998 29.52 237.518 29.64 237.118 29.64C236.638 29.64 236.198 29.48 235.798 29.2C235.518 29 235.278 28.76 235.118 28.4C234.798 27.84 234.718 27.2 234.678 26.64V22.32ZM234.598 36.64C234.598 34.8 230.358 34.64 226.638 34.64C222.918 34.64 218.918 34.8 218.918 36.64C218.918 38.28 222.918 38.6 226.638 38.6C230.358 38.6 234.598 38.8 234.598 36.64ZM250.878 29.2C249.838 29.44 250.158 30.6 250.158 31.32C250.158 31.96 250.158 33.52 250.238 34.24C250.238 34.56 250.158 35.28 250.398 35.52C250.398 35.6 250.558 35.68 250.638 35.68C251.838 35.68 253.518 35.68 254.718 35.6C256.598 35.6 258.758 35.52 260.598 35.68C261.318 35.76 261.718 36.08 261.958 36.48C262.278 36.88 262.358 37.44 262.358 38C262.438 38.64 262.198 39.24 261.958 39.56C261.718 39.88 261.318 40.12 260.918 40.36C259.878 40.84 258.838 40.68 257.718 40.76C256.758 40.76 255.398 40.84 254.398 40.76C253.598 40.68 252.478 40.76 251.758 40.76C251.038 40.68 250.318 40.76 249.598 40.76C248.318 40.68 246.958 40.6 245.918 39.88C245.478 39.64 245.238 39.24 245.078 38.8C244.758 38.16 244.598 37.28 244.678 36.56C244.758 34.16 244.598 30.84 244.598 28.32C244.598 27.36 244.438 26.16 244.918 25.36C245.838 23.84 247.358 24.16 248.798 24.16H252.478C253.118 24.16 254.878 24.16 255.558 24C255.798 23.92 255.958 23.76 256.038 23.52C256.278 22.16 256.278 20.32 256.198 18.96C256.198 18.4 256.278 17.28 255.958 16.8C255.798 16.56 255.398 16.4 254.718 16.4L247.278 16.48C246.558 16.48 245.478 16.32 244.998 15.76C244.838 15.52 244.678 15.28 244.518 14.88C244.118 13.44 244.838 12.12 246.318 11.8C247.598 11.56 248.878 11.72 250.158 11.64H256.198C257.238 11.64 258.438 11.56 259.478 11.88C260.038 12.04 260.518 12.44 260.918 13.08C260.998 13.32 261.078 13.52 261.158 13.84C261.238 14.08 261.318 14.32 261.318 14.56C261.398 15.44 261.398 16.88 261.398 17.68C261.398 19.36 261.478 21.4 261.478 23.12C261.478 24.88 261.558 26.64 261.078 27.84C260.838 28.32 260.438 28.72 259.958 28.88C259.078 29.28 257.878 29.12 256.998 29.12C255.798 29.12 253.678 29.2 252.718 29.2C251.838 29.2 251.758 29.04 250.878 29.2ZM272.678 38.96C272.598 39.6 272.558 40.2 272.358 40.84C272.278 41.04 272.198 41.2 272.118 41.4C271.958 41.72 271.718 42.04 271.398 42.28C270.798 42.64 270.038 42.72 269.358 42.56C268.958 42.48 268.598 42.32 268.318 42.08C267.358 41.2 267.398 39.12 267.398 39.04V15.48C267.358 14.24 267.398 12.24 268.158 11.52C268.718 10.96 269.398 10.88 270.118 10.88C271.038 10.88 271.878 11.44 272.198 12.32C272.678 13.44 272.638 14.68 272.678 15.92V16.12C272.798 20.2 272.678 23.56 272.678 27.4V37.52C272.678 38 272.718 38.48 272.678 38.96Z" fill="white"/>
</svg>
