<svg width="160" height="52" viewBox="0 0 160 52" fill="none" xmlns="http://www.w3.org/2000/svg">
<rect x="1.5" y="1.5" width="157" height="49" rx="6.5" fill="#FFE8EB"/>
<rect x="1.5" y="1.5" width="157" height="49" rx="6.5" stroke="#ED718E" stroke-width="3"/>
<path d="M32.2 20.04C32.2 21.2933 31.92 22.48 31.36 23.6C30.8 24.72 30.0133 25.6667 29 26.44C28.0933 27.1067 27.0933 27.5733 26 27.84C24.9333 28.1067 23.8533 28.2 22.76 28.12C21.6667 28.04 20.6133 27.8 19.6 27.4C18.5867 26.9733 17.68 26.4133 16.88 25.72C16.1067 25.0267 15.48 24.2 15 23.24C14.52 22.28 14.28 21.2133 14.28 20.04C14.28 18.9733 14.44 18.0133 14.76 17.16C15.08 16.3067 15.52 15.5467 16.08 14.88H15.36C14.6933 14.88 14.1333 14.68 13.68 14.28C13.2267 13.8533 13 13.3467 13 12.76C13 12.1467 13.2267 11.64 13.68 11.24C14.1333 10.8133 14.6933 10.6 15.36 10.6H20.64V9.32C20.64 8.78666 20.8667 8.34666 21.32 8C21.7733 7.62667 22.32 7.44 22.96 7.44C23.6 7.44 24.1467 7.62667 24.6 8C25.0533 8.34666 25.28 8.78666 25.28 9.32V10.6H30.84C31.5067 10.6 32.0667 10.8133 32.52 11.24C32.9733 11.64 33.2 12.1467 33.2 12.76C33.2 13.3467 32.9733 13.8533 32.52 14.28C32.0667 14.68 31.5067 14.88 30.84 14.88H30.36C30.92 15.5467 31.36 16.3067 31.68 17.16C32.0267 18.0133 32.2 18.9733 32.2 20.04ZM38.56 30.64C39.68 30.64 40.4933 30.88 41 31.36C41.5333 31.84 41.8 32.3867 41.8 33V35.28C41.8 35.36 41.8 35.52 41.8 35.76C41.8 35.9733 41.8 36.2 41.8 36.44C41.8 36.68 41.8 36.9067 41.8 37.12C41.8267 37.3333 41.84 37.48 41.84 37.56C41.84 37.8533 41.84 38.1467 41.84 38.44C41.84 38.7333 41.8267 39.0267 41.8 39.32C41.7467 39.88 41.52 40.3333 41.12 40.68C40.7467 41.0267 40.2533 41.2 39.64 41.2C39.5067 41.2 39.2667 41.1867 38.92 41.16C38.6 41.16 38.3733 41.1333 38.24 41.08C37.8667 40.9733 37.5733 40.8133 37.36 40.6C37.1733 40.3867 37.0267 40.1467 36.92 39.88C36.8133 39.6133 36.7467 39.3333 36.72 39.04C36.6933 38.72 36.6667 38.4133 36.64 38.12C36.64 38.0133 36.64 37.8267 36.64 37.56C36.64 37.2933 36.6267 37.0267 36.6 36.76C36.6 36.4667 36.5867 36.2 36.56 35.96C36.5333 35.6933 36.5067 35.5067 36.48 35.4C36.4 35.3733 36.1867 35.3467 35.84 35.32C35.4933 35.2933 34.8133 35.28 33.8 35.28C32.9467 35.28 32.4133 35.2933 32.2 35.32C32.0133 35.32 31.9067 35.32 31.88 35.32H17.44C17.4133 35.32 17.3067 35.2933 17.12 35.24C16.96 35.1867 16.7733 35.1067 16.56 35C16.3467 34.8667 16.1467 34.7067 15.96 34.52C15.7733 34.3333 15.6667 34.1067 15.64 33.84C15.48 32.8 15.64 32 16.12 31.44C16.44 31.0667 16.7867 30.8533 17.16 30.8C17.5333 30.72 17.7333 30.6667 17.76 30.64H38.56ZM41.76 21.2V24.84C41.7333 25.1333 41.6933 25.44 41.64 25.76C41.5867 26.0533 41.48 26.3467 41.32 26.64C41.16 26.96 40.9333 27.2267 40.64 27.44C40.2667 27.7067 39.8267 27.84 39.32 27.84C38.8667 27.84 38.4933 27.7467 38.2 27.56C37.9333 27.4 37.72 27.2 37.56 26.96C37.4 26.72 37.2667 26.4933 37.16 26.28C37.08 26.04 37.0267 25.84 37 25.68C36.9733 25.4933 36.96 25.4 36.96 25.4V12.2C36.9333 12.0933 36.9467 11.8 37 11.32C37.0533 10.84 37.16 10.44 37.32 10.12C37.5867 9.56 38.12 9.24 38.92 9.16C39.9067 9.02667 40.64 9.22667 41.12 9.76C41.28 9.97333 41.3867 10.1867 41.44 10.4C41.52 10.5867 41.5867 10.7867 41.64 11C41.72 11.2667 41.76 11.5467 41.76 11.84C41.7867 12.1333 41.7867 12.4267 41.76 12.72V15.48V15.84C41.76 15.9733 41.7467 16.12 41.72 16.28C41.72 16.4133 41.7333 16.5733 41.76 16.76C41.8667 16.76 42.0667 16.7733 42.36 16.8C42.6533 16.8 42.96 16.8133 43.28 16.84C43.6 16.84 43.9067 16.8533 44.2 16.88C44.4933 16.9067 44.7067 16.9333 44.84 16.96C45.3733 17.0667 45.7467 17.2267 45.96 17.44C46.1733 17.6267 46.3067 17.8667 46.36 18.16C46.44 18.4533 46.48 18.8 46.48 19.2C46.48 19.5733 46.4 19.8933 46.24 20.16C45.92 20.6933 45.44 21 44.8 21.08C44.16 21.1333 43.4533 21.1733 42.68 21.2H41.76ZM24.04 23.6C24.8933 23.44 25.6267 23.0667 26.24 22.48C26.88 21.8667 27.2 21.0533 27.2 20.04C27.2 19.24 27 18.5733 26.6 18.04C26.2267 17.5067 25.7467 17.1067 25.16 16.84C24.5733 16.5467 23.9333 16.4 23.24 16.4C22.5467 16.3733 21.9067 16.4933 21.32 16.76C20.7333 17.0267 20.24 17.44 19.84 18C19.4667 18.5333 19.28 19.2133 19.28 20.04C19.28 20.76 19.4267 21.3733 19.72 21.88C20.0133 22.3867 20.3867 22.7867 20.84 23.08C21.2933 23.3733 21.8 23.56 22.36 23.64C22.92 23.72 23.48 23.7067 24.04 23.6ZM68.4969 42.04C68.2569 42.0933 67.7235 42.12 66.8969 42.12C66.0702 42.1467 65.0969 42.16 63.9769 42.16C62.8569 42.16 61.6569 42.1467 60.3769 42.12C59.1235 42.12 57.9369 42.1067 56.8169 42.08C55.7235 42.08 54.7635 42.08 53.9369 42.08C53.1369 42.08 52.6302 42.08 52.4169 42.08C51.8835 42.08 51.3235 42.04 50.7369 41.96C50.1502 41.88 49.6302 41.6667 49.1769 41.32C48.8835 41.08 48.6435 40.7733 48.4569 40.4C48.2969 40.0533 48.1769 39.7067 48.0969 39.36C48.0169 39.0133 47.9635 38.7067 47.9369 38.44C47.9102 38.1733 47.8969 38.0267 47.8969 38V35C47.8969 34.2267 47.8969 33.5333 47.8969 32.92C47.9235 32.28 47.9369 31.9333 47.9369 31.88C47.9369 31.5067 48.0035 31.16 48.1369 30.84C48.2702 30.4933 48.5235 30.24 48.8969 30.08C49.0835 30 49.2835 29.9467 49.4969 29.92C49.7369 29.8933 49.9635 29.8667 50.1769 29.84C50.6302 29.8133 51.0835 29.8933 51.5369 30.08C52.0169 30.24 52.3102 30.5867 52.4169 31.12V32.12C52.4702 32.52 52.5635 32.72 52.6969 32.72C52.8302 32.6933 53.0569 32.6933 53.3769 32.72H69.1769V31.68C69.2035 31.2 69.3102 30.8 69.4969 30.48C69.6835 30.1333 70.0169 29.92 70.4969 29.84C70.8702 29.76 71.3369 29.7333 71.8969 29.76C72.4569 29.7867 72.8835 29.9333 73.1769 30.2C73.4435 30.44 73.5769 30.7333 73.5769 31.08C73.5769 31.4 73.5769 31.72 73.5769 32.04C73.5235 33.2667 73.5235 34.4667 73.5769 35.64C73.6302 36.7867 73.5902 37.9733 73.4569 39.2C73.4302 39.5733 73.3635 39.88 73.2569 40.12C73.1502 40.3867 72.9902 40.6667 72.7769 40.96C72.5635 41.28 72.2702 41.5067 71.8969 41.64C71.5502 41.7733 71.1769 41.8667 70.7769 41.92C70.3769 41.9733 69.9769 42 69.5769 42C69.1769 42 68.8169 42.0133 68.4969 42.04ZM54.6969 20.4C54.1902 20.7467 53.6835 21.12 53.1769 21.52C52.6969 21.92 52.1102 22.1867 51.4169 22.32C51.1769 22.3733 50.9235 22.4267 50.6569 22.48C50.4169 22.5333 50.1769 22.5467 49.9369 22.52C49.6969 22.4933 49.4569 22.4267 49.2169 22.32C49.0035 22.1867 48.8035 21.9733 48.6169 21.68C48.4035 21.36 48.2835 21.0667 48.2569 20.8C48.2569 20.5067 48.3102 20.24 48.4169 20C48.5502 19.76 48.7102 19.5333 48.8969 19.32C49.0835 19.1067 49.2835 18.9067 49.4969 18.72C50.2969 18 51.1235 17.2533 51.9769 16.48C52.8569 15.68 53.7502 14.9733 54.6569 14.36C54.9502 14.1733 55.2835 13.92 55.6569 13.6C56.0569 13.2533 56.4435 12.92 56.8169 12.6C57.2435 12.2267 57.6835 11.84 58.1369 11.44C58.0835 11.0667 58.0702 10.7067 58.0969 10.36C58.1235 10.0667 58.1902 9.76 58.2969 9.44C58.4035 9.09333 58.6035 8.81333 58.8969 8.6C59.2435 8.36 59.7102 8.2 60.2969 8.12C60.8835 8.04 61.3902 8.05333 61.8169 8.16C62.4302 8.32 62.8302 8.57333 63.0169 8.92C63.2302 9.26666 63.3769 9.68 63.4569 10.16C63.5102 10.56 63.5902 10.9333 63.6969 11.28C63.8035 11.6267 64.0035 11.9733 64.2969 12.32C64.5102 12.56 64.7769 12.8 65.0969 13.04C65.4435 13.28 65.7502 13.5067 66.0169 13.72C66.9502 14.52 67.8569 15.2667 68.7369 15.96C69.6435 16.6533 70.5769 17.4 71.5369 18.2C71.8569 18.44 72.1235 18.76 72.3369 19.16C72.5769 19.5333 72.7369 19.92 72.8169 20.32C72.8969 20.6933 72.8702 21.0667 72.7369 21.44C72.6302 21.7867 72.3769 22.0667 71.9769 22.28C71.2035 22.5733 70.4569 22.56 69.7369 22.24C69.0435 21.8933 68.4435 21.4933 67.9369 21.04C67.4035 20.64 66.7902 20.24 66.0969 19.84C65.4035 19.4133 64.8035 18.9733 64.2969 18.52L60.7369 15.96C60.3635 16.2533 60.0302 16.52 59.7369 16.76C59.4702 16.9733 59.2169 17.16 58.9769 17.32C58.7635 17.48 58.6302 17.5867 58.5769 17.64C57.9902 18.0933 57.3502 18.56 56.6569 19.04C55.9902 19.4933 55.3369 19.9467 54.6969 20.4ZM49.1369 23.8C49.8035 23.8267 50.6169 23.84 51.5769 23.84C52.5369 23.84 53.5369 23.84 54.5769 23.84C55.6169 23.84 56.6435 23.84 57.6569 23.84C58.6702 23.8133 59.5635 23.8 60.3369 23.8C62.0169 23.8 63.8035 23.7867 65.6969 23.76C67.5902 23.7333 69.4435 23.7467 71.2569 23.8H71.4569C71.9102 23.8 72.3902 23.7867 72.8969 23.76C73.4302 23.7333 73.9102 23.7733 74.3369 23.88C74.7902 23.96 75.1502 24.1733 75.4169 24.52C75.7102 24.84 75.8569 25.36 75.8569 26.08C75.8569 26.6133 75.5902 27.12 75.0569 27.6C74.6302 27.9733 74.1102 28.1867 73.4969 28.24C72.9102 28.2667 72.3502 28.2667 71.8169 28.24C71.6835 28.2133 71.5635 28.2 71.4569 28.2C71.3502 28.2 71.2302 28.2 71.0969 28.2H49.0569C49.0302 28.2 48.9102 28.2 48.6969 28.2C48.4835 28.2 48.2302 28.1733 47.9369 28.12C47.6702 28.0667 47.3902 28 47.0969 27.92C46.8035 27.8133 46.5635 27.6533 46.3769 27.44C46.0569 27.0933 45.8969 26.68 45.8969 26.2C45.8969 25.9067 45.9369 25.68 46.0169 25.52C46.1235 25.3333 46.2569 25.16 46.4169 25C46.7635 24.68 47.1235 24.4133 47.4969 24.2C47.8702 23.9867 48.2569 23.8533 48.6569 23.8C48.7369 23.8 48.8169 23.8133 48.8969 23.84C48.9769 23.84 49.0569 23.8267 49.1369 23.8ZM67.4969 38.44C67.6302 38.44 67.7902 38.4533 67.9769 38.48C68.1635 38.5067 68.3369 38.5067 68.4969 38.48C68.6569 38.4533 68.7902 38.3867 68.8969 38.28C69.0035 38.1733 69.0569 38.0133 69.0569 37.8C69.0569 37.5867 69.0702 37.4 69.0969 37.24C69.1235 37.08 69.0569 36.9067 68.8969 36.72C68.7102 36.5067 68.4835 36.3867 68.2169 36.36C67.9769 36.3333 67.7235 36.3333 67.4569 36.36C67.4302 36.36 67.0969 36.36 66.4569 36.36C65.8169 36.36 65.0302 36.36 64.0969 36.36C63.1635 36.36 62.1502 36.36 61.0569 36.36C59.9635 36.3333 58.9502 36.32 58.0169 36.32C57.1102 36.32 56.3369 36.32 55.6969 36.32C55.0835 36.32 54.7769 36.32 54.7769 36.32C54.5369 36.32 54.2702 36.32 53.9769 36.32C53.7102 36.2933 53.4702 36.3067 53.2569 36.36C53.0435 36.3867 52.8569 36.4667 52.6969 36.6C52.5635 36.7067 52.4969 36.88 52.4969 37.12C52.4969 37.4133 52.5102 37.6267 52.5369 37.76C52.6702 38.2133 52.8569 38.4533 53.0969 38.48C53.3369 38.5067 53.6302 38.5067 53.9769 38.48L67.4969 38.44ZM113.172 24.12C113.625 24.1467 114.078 24.2133 114.532 24.32C115.012 24.4267 115.438 24.6267 115.812 24.92C116.185 25.2133 116.372 25.6267 116.372 26.16C116.372 26.4267 116.318 26.7067 116.212 27C116.132 27.2933 116.012 27.5067 115.852 27.64C115.638 27.8533 115.358 28.0133 115.012 28.12C114.692 28.2 114.372 28.2667 114.052 28.32C113.732 28.3467 113.452 28.36 113.212 28.36C112.998 28.36 112.878 28.36 112.852 28.36L91.5316 28.4C90.9182 28.4267 90.2782 28.4267 89.6116 28.4C88.9716 28.3733 88.4249 28.1733 87.9716 27.8C87.3582 27.3467 87.0516 26.8533 87.0516 26.32C87.0516 25.9467 87.1716 25.5733 87.4116 25.2C87.6782 24.8 88.0249 24.5333 88.4516 24.4C89.0116 24.2133 89.5849 24.1333 90.1716 24.16C90.7582 24.16 91.3582 24.1467 91.9716 24.12C92.6116 24.0933 93.1582 24.08 93.6116 24.08C94.0916 24.08 94.5449 24.08 94.9716 24.08C95.4249 24.08 95.8916 24.0933 96.3716 24.12C96.8516 24.12 97.4249 24.12 98.0916 24.12V21.8C98.0916 21.56 98.1049 21.3867 98.1316 21.28H93.9316C93.6649 21.28 93.3982 21.28 93.1316 21.28C92.8916 21.2533 92.6382 21.2267 92.3716 21.2C92.0249 21.1733 91.6516 21.16 91.2516 21.16C90.8516 21.16 90.5049 21.0533 90.2116 20.84C90.1316 20.84 90.0916 20.8133 90.0916 20.76C89.8249 20.5467 89.6382 20.24 89.5316 19.84C89.4516 19.4133 89.4116 19.0533 89.4116 18.76C89.3849 18.28 89.3449 17.8 89.2916 17.32C89.2649 16.84 89.2516 16.3733 89.2516 15.92C89.2516 15.2267 89.2516 14.5067 89.2516 13.76C89.2516 12.9867 89.3182 12.2667 89.4516 11.6C89.5316 11.1733 89.6649 10.84 89.8516 10.6C90.0382 10.3333 90.3316 10.12 90.7316 9.96C91.1049 9.82666 91.4782 9.73333 91.8516 9.68C92.2249 9.62667 92.5982 9.57333 92.9716 9.52C93.4249 9.46666 93.8916 9.45333 94.3716 9.48C94.8516 9.50667 95.3316 9.52 95.8116 9.52H103.412C104.078 9.52 104.585 9.52 104.932 9.52C105.305 9.52 105.638 9.52 105.932 9.52C106.225 9.52 106.545 9.52 106.892 9.52C107.265 9.49333 107.785 9.48 108.452 9.48C108.692 9.48 108.918 9.48 109.132 9.48C109.372 9.48 109.612 9.49333 109.852 9.52C110.358 9.54667 110.878 9.58666 111.412 9.64C111.945 9.69333 112.438 9.82667 112.892 10.04C113.425 10.2533 113.785 10.6133 113.972 11.12C114.158 11.6 114.265 12.1067 114.292 12.64C114.345 13.2533 114.345 13.9067 114.292 14.6C114.265 15.2933 114.252 15.9467 114.252 16.56C114.225 17.0933 114.198 17.6267 114.172 18.16C114.172 18.6933 114.105 19.2267 113.972 19.76C113.892 20.0533 113.798 20.32 113.692 20.56C113.585 20.7733 113.372 20.9333 113.052 21.04C112.758 21.1467 112.452 21.2133 112.132 21.24C111.812 21.2667 111.505 21.28 111.212 21.28H103.612C103.612 21.3333 103.612 21.3733 103.612 21.4C103.638 21.4 103.652 21.4133 103.652 21.44C103.705 21.8133 103.732 22.24 103.732 22.72C103.758 23.2 103.772 23.6667 103.772 24.12C104.518 24.12 105.318 24.12 106.172 24.12C107.025 24.0933 107.878 24.08 108.732 24.08C109.585 24.08 110.398 24.08 111.172 24.08C111.945 24.08 112.612 24.0933 113.172 24.12ZM110.812 30.84C111.905 30.84 112.745 31.0133 113.332 31.36C113.945 31.7067 114.252 32.1867 114.252 32.8V35.52C114.252 35.6533 114.252 35.92 114.252 36.32C114.278 36.6933 114.292 37.1067 114.292 37.56C114.292 37.9867 114.292 38.4 114.292 38.8C114.292 39.2 114.278 39.48 114.252 39.64C114.198 40.2 113.972 40.6533 113.572 41C113.198 41.3467 112.705 41.52 112.092 41.52C111.798 41.52 111.518 41.48 111.252 41.4C110.878 41.2933 110.585 41.1333 110.372 40.92C110.185 40.7067 110.038 40.4667 109.932 40.2C109.852 39.9333 109.785 39.6533 109.732 39.36C109.705 39.04 109.692 38.7333 109.692 38.44C109.692 38.3333 109.678 38.1467 109.652 37.88C109.652 37.5867 109.638 37.2933 109.612 37C109.612 36.7067 109.598 36.4267 109.572 36.16C109.572 35.8933 109.558 35.7067 109.532 35.6C109.452 35.5733 109.225 35.5467 108.852 35.52C108.505 35.4933 107.838 35.48 106.852 35.48C106.398 35.48 105.998 35.4933 105.652 35.52C105.305 35.52 104.985 35.52 104.692 35.52H103.812H90.4516C90.4249 35.52 90.3182 35.4933 90.1316 35.44C89.9716 35.3867 89.7849 35.3067 89.5716 35.2C89.3582 35.0933 89.1582 34.9467 88.9716 34.76C88.7849 34.5733 88.6782 34.3333 88.6516 34.04C88.4916 33.0533 88.6516 32.2533 89.1316 31.64C89.4516 31.2667 89.7982 31.0533 90.1716 31C90.5449 30.92 90.7449 30.88 90.7716 30.88L110.812 30.84ZM94.0116 16.16C94.0116 16.2933 94.0116 16.4267 94.0116 16.56C94.0382 16.6667 94.0782 16.7467 94.1316 16.8C94.1849 16.8533 94.2782 16.8933 94.4116 16.92C94.5449 16.92 94.6782 16.92 94.8116 16.92C94.9449 16.92 95.1049 16.9067 95.2916 16.88H105.812C106.185 16.9067 106.545 16.9333 106.892 16.96C107.185 16.9867 107.492 17 107.812 17C108.158 17 108.452 16.9733 108.692 16.92C108.985 16.8933 109.145 16.8267 109.172 16.72C109.225 16.5867 109.278 16.4 109.332 16.16C109.358 15.9467 109.372 15.6533 109.372 15.28C109.372 14.9067 109.292 14.6133 109.132 14.4C108.945 14.1867 108.678 14.08 108.332 14.08C107.985 14.0533 107.692 14.0533 107.452 14.08H103.812C103.732 14.08 103.412 14.08 102.852 14.08C102.292 14.08 101.678 14.08 101.012 14.08C100.372 14.08 99.7716 14.08 99.2116 14.08C98.6516 14.08 98.3316 14.08 98.2516 14.08C97.6916 14.0267 97.1316 14.0133 96.5716 14.04C96.0116 14.04 95.4382 14.0533 94.8516 14.08C94.6116 14.08 94.4382 14.0933 94.3316 14.12C94.2249 14.12 94.1449 14.24 94.0916 14.48C94.0382 14.6667 94.0116 14.8933 94.0116 15.16C94.0116 15.4267 94.0116 15.64 94.0116 15.8V16.16ZM122.269 27.8C122.082 27.8 121.896 27.8 121.709 27.8C121.522 27.7733 121.322 27.7333 121.109 27.68C120.736 27.68 120.336 27.6267 119.909 27.52C119.482 27.3867 119.162 27.2 118.949 26.96C118.709 26.72 118.549 26.4267 118.469 26.08C118.389 25.7067 118.349 25.3733 118.349 25.08C118.349 24.6267 118.576 24.24 119.029 23.92C119.296 23.7333 119.616 23.6133 119.989 23.56C120.362 23.48 120.736 23.44 121.109 23.44C121.136 23.4133 121.229 23.3867 121.389 23.36C121.576 23.3333 121.762 23.32 121.949 23.32C122.162 23.2933 122.349 23.28 122.509 23.28C122.669 23.28 122.749 23.2933 122.749 23.32V21.76C122.749 21.4667 122.749 21.1733 122.749 20.88C122.749 20.5867 122.736 20.2133 122.709 19.76C122.709 19.3067 122.696 18.72 122.669 18C122.669 17.28 122.656 16.3467 122.629 15.2H121.429C121.216 15.2 121.016 15.1867 120.829 15.16C120.642 15.1067 120.456 15.08 120.269 15.08C120.082 15.0267 119.896 14.9733 119.709 14.92C119.549 14.84 119.362 14.7333 119.149 14.6C118.749 14.36 118.509 14.0533 118.429 13.68C118.376 13.28 118.349 12.9067 118.349 12.56C118.349 11.6 118.789 11 119.669 10.76C119.962 10.6533 120.282 10.5733 120.629 10.52C120.976 10.44 121.322 10.3733 121.669 10.32H141.349C141.642 10.32 141.936 10.3467 142.229 10.4C142.522 10.4533 142.816 10.5067 143.109 10.56C143.429 10.6133 143.722 10.6933 143.989 10.8C144.256 10.9067 144.482 11.0533 144.669 11.24C144.909 11.48 145.069 11.7467 145.149 12.04C145.229 12.3333 145.269 12.6533 145.269 13C145.269 13.1333 145.242 13.28 145.189 13.44C145.136 13.6 145.082 13.7467 145.029 13.88C144.842 14.36 144.496 14.7067 143.989 14.92C143.509 15.1067 143.016 15.2 142.509 15.2H140.749C140.749 15.36 140.749 15.5467 140.749 15.76C140.776 15.9733 140.816 16.1733 140.869 16.36V23.2L142.069 23.28C142.362 23.3067 142.642 23.32 142.909 23.32C143.176 23.32 143.336 23.32 143.389 23.32C143.789 23.4533 144.136 23.6133 144.429 23.8C144.722 23.9867 144.962 24.2533 145.149 24.6C145.282 24.9733 145.309 25.3867 145.229 25.84C145.176 26.2933 145.029 26.6667 144.789 26.96C144.549 27.3333 144.282 27.5733 143.989 27.68C143.802 27.7333 143.602 27.7733 143.389 27.8C143.202 27.8 142.989 27.8 142.749 27.8H122.269ZM126.709 28.6C126.842 28.6 126.936 28.6267 126.989 28.68C127.069 28.7067 127.136 28.72 127.189 28.72C127.562 28.8533 127.869 29.0667 128.109 29.36C128.242 29.5467 128.349 29.7333 128.429 29.92C128.536 30.1067 128.589 30.32 128.589 30.56V32.08C128.642 32.3733 128.669 32.6267 128.669 32.84C128.696 33.0267 128.709 33.3067 128.709 33.68V33.92C129.029 33.9467 129.416 33.9733 129.869 34C130.322 34 130.776 34 131.229 34C131.709 34 132.162 34 132.589 34C133.016 33.9733 133.376 33.96 133.669 33.96H134.029V31.12C134.029 30.5333 134.242 29.9733 134.669 29.44C135.096 28.88 135.642 28.6 136.309 28.6C136.549 28.6 136.762 28.6133 136.949 28.64C137.136 28.64 137.322 28.6667 137.509 28.72C137.722 28.7733 137.896 28.8667 138.029 29C138.189 29.1067 138.362 29.2267 138.549 29.36C138.682 29.5467 138.776 29.7333 138.829 29.92C138.909 30.1067 138.976 30.32 139.029 30.56V33.96H139.149C140.002 33.96 140.976 33.96 142.069 33.96C143.189 33.96 144.176 34.0667 145.029 34.28C145.216 34.3333 145.416 34.4267 145.629 34.56C145.842 34.6667 146.042 34.8 146.229 34.96C146.576 35.3333 146.749 35.84 146.749 36.48C146.749 37.12 146.576 37.6533 146.229 38.08C146.096 38.1333 145.976 38.2133 145.869 38.32C145.762 38.4267 145.642 38.5067 145.509 38.56C145.136 38.6933 144.776 38.7733 144.429 38.8C144.082 38.8 143.736 38.8 143.389 38.8H124.269C123.442 38.8 122.616 38.8133 121.789 38.84C120.962 38.8667 120.122 38.8533 119.269 38.8C118.602 38.8 118.056 38.64 117.629 38.32C117.069 37.76 116.789 37.12 116.789 36.4C116.789 36.08 116.909 35.68 117.149 35.2C117.362 34.8 117.682 34.5333 118.109 34.4C118.589 34.16 119.149 34.04 119.789 34.04C119.922 34.04 120.189 34.04 120.589 34.04C121.016 34.04 121.456 34.0267 121.909 34C122.442 33.9733 123.042 33.9467 123.709 33.92V31.12C123.709 30.9867 123.709 30.88 123.709 30.8C123.736 30.6933 123.776 30.5733 123.829 30.44C123.829 30.3067 123.856 30.1867 123.909 30.08C123.962 29.9733 124.016 29.8533 124.069 29.72C124.202 29.4533 124.442 29.24 124.789 29.08C124.922 28.9467 125.056 28.8533 125.189 28.8C125.349 28.72 125.522 28.6533 125.709 28.6H126.709ZM135.109 23.2C135.376 23.2 135.576 23.16 135.709 23.08C135.842 22.9733 135.922 22.8533 135.949 22.72C136.002 22.5867 136.029 22.4533 136.029 22.32C136.029 22.16 136.029 22.0267 136.029 21.92L135.909 16.04C135.909 15.8267 135.856 15.64 135.749 15.48C135.642 15.2933 135.456 15.2 135.189 15.2H128.309C127.776 15.2 127.509 15.3467 127.509 15.64C127.509 15.9333 127.509 16.2933 127.509 16.72C127.509 17.0133 127.496 17.32 127.469 17.64C127.469 17.9333 127.469 18.28 127.469 18.68C127.469 19.08 127.469 19.56 127.469 20.12C127.496 20.6533 127.522 21.2933 127.549 22.04C127.549 22.12 127.549 22.2267 127.549 22.36C127.549 22.4933 127.576 22.6267 127.629 22.76C127.682 22.8667 127.762 22.9733 127.869 23.08C128.002 23.16 128.176 23.2 128.389 23.2H135.109Z" fill="#1E1E1E"/>
</svg>
