<svg width="281" height="56" viewBox="0 0 281 56" fill="none" xmlns="http://www.w3.org/2000/svg">
<rect x="12.1172" y="5" width="268.884" height="51" fill="#748EAE"/>
<rect x="7.11719" y="1" width="267.885" height="49" fill="#799CCF" stroke="black" stroke-width="2" stroke-linejoin="round"/>
<path d="M7.11719 51H12.115V56L7.11719 51Z" fill="#748EAE"/>
<path d="M23.4441 5.56115C23.2132 5.50525 23.0638 5.2245 23.1126 4.91021C23.1482 4.53837 23.4024 4.27377 23.6776 4.25886C24.728 4.29571 25.7847 4.30689 26.8351 4.34374C27.1042 4.3545 27.3049 4.64767 27.2436 5.0133C27.208 5.38515 26.9539 5.64975 26.653 5.65844C25.6026 5.62159 24.5521 5.58474 23.4955 5.57357C23.4698 5.56736 23.4441 5.56115 23.4185 5.55493" fill="#030000"/>
<path d="M3.73315 5.40831C3.5022 5.35241 3.34658 5.09733 3.39542 4.78305C3.43102 4.4112 3.69136 4.12093 3.96039 4.1317C8.7561 4.06957 13.6164 4.07742 18.4067 4.14986C18.6757 4.16063 18.8765 4.4538 18.8409 4.82564C18.8053 5.19749 18.5449 5.48776 18.2759 5.47699C13.4856 5.40454 8.62529 5.39669 3.82958 5.45882C3.80392 5.45261 3.77826 5.4464 3.7526 5.44019" fill="#030000"/>
<path d="M20.2851 5.4746C20.0542 5.4187 19.9048 5.13795 19.9536 4.82366C19.9892 4.45182 20.2433 4.18722 20.5186 4.17232L21.5752 4.18349C21.8443 4.19426 22.045 4.48742 21.9837 4.85306C21.9481 5.2249 21.694 5.4895 21.4188 5.50441L20.3621 5.49323C20.3621 5.49323 20.3108 5.48081 20.2851 5.4746Z" fill="#030000"/>
<path d="M3.05472 12.3646C2.82377 12.3087 2.66815 12.0536 2.717 11.7393C2.75259 11.3675 3.01293 11.0772 3.28196 11.088C9.10867 11.0308 14.9743 11.0374 20.7832 11.1662C21.0522 11.1769 21.2529 11.4701 21.2173 11.842C21.1817 12.2138 20.9214 12.5041 20.6524 12.4933C14.8691 12.3708 9.00973 12.3385 3.18302 12.3956C3.15736 12.3894 3.1317 12.3832 3.10604 12.377" fill="#030000"/>
<path d="M16.708 19.3657C16.4771 19.3098 16.3277 19.029 16.3765 18.7148C16.4121 18.3429 16.6724 18.0526 16.9415 18.0634C19.6185 18.1135 22.3787 18.1566 25.1265 18.251C25.3955 18.2617 25.5963 18.5549 25.535 18.9205C25.4994 19.2924 25.2453 19.557 24.9444 19.5657C22.1966 19.4713 19.4426 19.4025 16.7593 19.3781C16.7593 19.3781 16.708 19.3657 16.6823 19.3595" fill="#030000"/>
<path d="M2.37713 19.3229C2.14618 19.267 1.99057 19.0119 2.03941 18.6976C2.07501 18.3258 2.33535 18.0355 2.60437 18.0463C6.68944 18.0024 10.8196 17.9966 14.8799 18.0553C15.1489 18.0661 15.3496 18.3593 15.3202 18.7054C15.2846 19.0773 15.0243 19.3676 14.7553 19.3568C10.695 19.298 6.56484 19.3038 2.50544 19.3539C2.47978 19.3477 2.45412 19.3415 2.42845 19.3353" fill="#030000"/>
<path d="M1.70013 26.2777C1.46918 26.2218 1.31356 25.9667 1.36241 25.6524C1.39801 25.2806 1.65834 24.9903 1.92737 25.001C9.3612 24.9252 16.8985 24.9832 24.2835 25.2217C24.5782 25.2387 24.7532 25.5256 24.692 25.8912C24.6564 26.2631 24.4023 26.5277 24.1014 26.5364C16.7164 26.2979 9.18528 26.2143 1.7709 26.322C1.74524 26.3158 1.71958 26.3095 1.69392 26.3033" fill="#030000"/>
<path d="M15.1375 33.2796C14.9066 33.2237 14.7572 32.943 14.806 32.6287C14.8416 32.2568 15.102 31.9666 15.371 31.9773C16.3444 31.9955 17.3436 32.02 18.317 32.0382C18.5861 32.049 18.7868 32.3421 18.7255 32.7078C18.6899 33.0796 18.4296 33.3699 18.1606 33.3591C17.1871 33.3409 16.188 33.3165 15.2145 33.2982C15.2145 33.2982 15.1632 33.2858 15.1375 33.2796Z" fill="#030000"/>
<path d="M1.02429 33.2329C0.793342 33.177 0.637724 32.922 0.686567 32.6077C0.722167 32.2358 0.982506 31.9456 1.25153 31.9563C4.22242 31.9145 7.26407 31.917 10.2482 31.9327C10.5172 31.9435 10.718 32.2366 10.6886 32.5828C10.653 32.9546 10.3926 33.2449 10.1236 33.2341C7.13947 33.2184 4.09782 33.216 1.12693 33.2578C1.10127 33.2516 1.07561 33.2454 1.04995 33.2391" fill="#030000"/>
<path d="M12.0758 33.2461C11.8448 33.1902 11.6954 32.9095 11.7443 32.5952C11.7799 32.2233 12.0402 31.9331 12.3092 31.9438L13.3402 31.9488C13.6092 31.9595 13.81 32.2527 13.7806 32.5989C13.745 32.9707 13.4908 33.2353 13.2156 33.2502L12.1846 33.2453C12.1846 33.2453 12.1333 33.2328 12.1076 33.2266" fill="#030000"/>
<path d="M19.3018 40.3206C19.0708 40.2647 18.9214 39.984 18.9702 39.6697C19.0058 39.2978 19.26 39.0333 19.5352 39.0183C20.56 39.049 21.5591 39.0734 22.5839 39.104C22.8529 39.1148 23.0537 39.408 22.9924 39.7736C22.9568 40.1455 22.6965 40.4357 22.4018 40.4188C21.377 40.3881 20.3779 40.3637 19.3531 40.3331C19.3274 40.3268 19.3018 40.3206 19.2761 40.3144" fill="#030000"/>
<path d="M0.346707 40.1893C0.115759 40.1334 -0.0398586 39.8784 0.00898457 39.5641C0.0445842 39.1922 0.304923 38.902 0.573949 38.9127C6.21482 38.8378 11.9078 38.8841 17.5052 38.9889C17.7743 38.9996 17.975 39.2928 17.9137 39.6584C17.8781 40.0303 17.624 40.2949 17.3488 40.3098C11.7576 40.1794 6.05835 40.1587 0.443142 40.2399C0.417481 40.2337 0.39182 40.2274 0.366159 40.2212" fill="#030000"/>
<path d="M257.575 5.53175C257.575 5.53175 257.523 5.54319 257.498 5.54891C256.441 5.53984 255.39 5.55656 254.339 5.57327C254.07 5.57888 253.815 5.28367 253.761 4.91693C253.732 4.54448 253.913 4.26093 254.182 4.25532C255.233 4.2386 256.29 4.24767 257.341 4.23096C257.61 4.22535 257.865 4.52055 257.893 4.89301C257.936 5.20817 257.781 5.48601 257.549 5.53747" fill="#030000"/>
<path d="M277.287 5.75863C277.287 5.75863 277.235 5.77007 277.184 5.7815C272.39 5.6275 267.531 5.54223 262.74 5.52289C262.471 5.5285 262.216 5.23329 262.187 4.86083C262.159 4.48838 262.339 4.20483 262.634 4.1935C267.425 4.21284 272.285 4.29811 277.078 4.45211C277.353 4.47229 277.608 4.7675 277.631 5.11417C277.648 5.43505 277.487 5.6871 277.281 5.73284" fill="#030000"/>
<path d="M260.734 5.50699C260.734 5.50699 260.683 5.51843 260.657 5.52415L259.6 5.51508C259.331 5.52068 259.077 5.22548 259.048 4.85302C259.02 4.48056 259.2 4.19702 259.469 4.19141L260.526 4.20048C260.795 4.19487 261.05 4.49007 261.078 4.86253C261.095 5.18341 260.966 5.45553 260.734 5.50699Z" fill="#030000"/>
<path d="M277.829 12.7272C277.829 12.7272 277.778 12.7386 277.726 12.75C271.927 12.5755 266.037 12.4755 260.284 12.5073C260.015 12.5129 259.76 12.2177 259.731 11.8452C259.703 11.4728 259.883 11.1892 260.153 11.1836C265.937 11.1719 271.822 11.2461 277.652 11.4407C277.921 11.4351 278.182 11.7561 278.204 12.1028C278.222 12.4237 278.061 12.6757 277.855 12.7214" fill="#030000"/>
<path d="M264.019 19.4707C264.019 19.4707 263.967 19.4822 263.941 19.4879C261.258 19.4609 258.503 19.4768 255.754 19.5186C255.485 19.5242 255.23 19.229 255.176 18.8622C255.148 18.4898 255.328 18.2062 255.597 18.2006C258.347 18.1589 261.101 18.1429 263.785 18.1699C264.054 18.1643 264.308 18.4595 264.337 18.832C264.354 19.1529 264.225 19.425 263.993 19.4765" fill="#030000"/>
<path d="M278.347 19.7001C278.347 19.7001 278.295 19.7116 278.244 19.723C274.186 19.5951 270.057 19.5102 265.996 19.4912C265.727 19.4968 265.472 19.2016 265.444 18.8291C265.415 18.4566 265.596 18.1731 265.896 18.1876C269.957 18.2066 274.086 18.2915 278.17 18.4137C278.445 18.4339 278.699 18.7291 278.722 19.0757C278.739 19.3966 278.579 19.6487 278.373 19.6944" fill="#030000"/>
<path d="M278.893 26.6682C278.893 26.6682 278.841 26.6796 278.79 26.691C271.384 26.4671 263.847 26.3806 256.459 26.4776C256.19 26.4832 255.935 26.188 255.881 25.8212C255.852 25.4488 256.033 25.1652 256.302 25.1596C263.716 25.0569 271.227 25.1491 278.658 25.3674C278.933 25.3875 279.188 25.6827 279.211 26.0294C279.228 26.3503 279.067 26.6023 278.861 26.6481" fill="#030000"/>
<path d="M265.323 33.4115C265.323 33.4115 265.271 33.4229 265.245 33.4286C264.272 33.4282 263.272 33.4335 262.299 33.433C262.029 33.4387 261.775 33.1435 261.746 32.771C261.718 32.3985 261.898 32.115 262.167 32.1094C263.141 32.1098 264.14 32.1045 265.114 32.105C265.383 32.0994 265.638 32.3946 265.666 32.767C265.683 33.0879 265.554 33.36 265.323 33.4115Z" fill="#030000"/>
<path d="M279.436 33.635C279.436 33.635 279.384 33.6464 279.332 33.6579C276.363 33.5591 273.348 33.4976 270.338 33.4619C270.069 33.4675 269.814 33.1723 269.786 32.7998C269.757 32.4273 269.938 32.1438 270.238 32.1583C273.222 32.1997 276.263 32.2555 279.233 32.3543C279.502 32.3486 279.762 32.6696 279.785 33.0163C279.802 33.3372 279.642 33.5892 279.436 33.635Z" fill="#030000"/>
<path d="M268.41 33.4302C268.41 33.4302 268.359 33.4416 268.333 33.4474L267.302 33.4326C267.033 33.4382 266.778 33.143 266.75 32.7705C266.721 32.3981 266.902 32.1145 267.202 32.129L268.233 32.1437C268.503 32.1381 268.757 32.4333 268.786 32.8058C268.803 33.1267 268.674 33.3988 268.442 33.4503" fill="#030000"/>
<path d="M261.025 40.3706C261.025 40.3706 260.973 40.3821 260.948 40.3878C259.923 40.3988 258.923 40.4041 257.898 40.4151C257.629 40.4207 257.374 40.1255 257.32 39.7587C257.291 39.3863 257.472 39.1027 257.741 39.0971C258.766 39.0861 259.766 39.0808 260.791 39.0698C261.06 39.0642 261.315 39.3594 261.343 39.7319C261.386 40.0471 261.231 40.3249 260.999 40.3764" fill="#030000"/>
<path d="M279.979 40.6036C279.979 40.6036 279.927 40.6151 279.876 40.6265C274.269 40.4635 268.57 40.375 262.972 40.3725C262.703 40.3781 262.448 40.0829 262.42 39.7104C262.391 39.338 262.572 39.0544 262.841 39.0488C268.465 39.0456 274.158 39.1083 279.771 39.2971C280.045 39.3173 280.3 39.6125 280.323 39.9591C280.34 40.28 280.179 40.5321 279.973 40.5778" fill="#030000"/>
<path d="M43.6534 22.416L39.2694 26.448C38.3094 27.088 37.4134 28.336 36.0694 28.72C35.3014 28.912 34.2774 28.656 33.7974 28.016C33.1254 27.024 33.8934 25.904 34.5334 25.136C35.8134 23.664 37.1574 22.32 38.5974 21.04C39.5254 20.24 41.1574 18.128 41.1574 18.128C41.1574 18.128 41.1574 16.112 41.3174 14.896C41.4134 14.128 41.7334 13.392 42.0854 13.04C42.6294 12.528 43.7494 12.4 44.4214 12.592C45.4134 12.88 45.7974 13.648 45.8934 14.64C45.9894 15.44 45.9254 17.552 46.4054 18.224C46.7574 18.736 47.0454 19.216 47.4614 19.664C48.9334 21.328 50.3734 23.056 51.9094 24.656C52.9014 25.712 54.0534 27.888 52.2614 28.752C51.0134 29.36 49.8294 28.368 49.0294 27.504L43.6534 22.416ZM34.5014 35.696C33.1574 35.568 31.7494 35.28 31.7494 33.616C31.7494 33.168 31.9094 32.784 32.1654 32.496C32.8374 31.824 34.4054 31.856 34.4694 31.856L51.9734 31.888C53.0614 31.888 54.0214 31.76 54.7254 32.368C55.1414 32.752 55.3974 33.232 55.3974 33.744C55.3974 34.384 54.9814 34.96 54.3414 35.184C53.4774 35.504 52.5494 35.632 51.6534 35.664C48.5494 35.792 45.4774 35.696 42.6294 35.696C39.5574 35.696 36.4214 35.792 34.5014 35.696ZM69.8709 22.416L65.4869 26.448C64.5269 27.088 63.6309 28.336 62.2869 28.72C61.5189 28.912 60.4949 28.656 60.0149 28.016C59.3429 27.024 60.1109 25.904 60.7509 25.136C62.0309 23.664 63.3749 22.32 64.8149 21.04C65.7429 20.24 67.3749 18.128 67.3749 18.128C67.3749 18.128 67.3749 16.112 67.5349 14.896C67.6309 14.128 67.9509 13.392 68.3029 13.04C68.8469 12.528 69.9669 12.4 70.6389 12.592C71.6309 12.88 72.0149 13.648 72.1109 14.64C72.2069 15.44 72.1429 17.552 72.6229 18.224C72.9749 18.736 73.2629 19.216 73.6789 19.664C75.1509 21.328 76.5909 23.056 78.1269 24.656C79.1189 25.712 80.2709 27.888 78.4789 28.752C77.2309 29.36 76.0469 28.368 75.2469 27.504L69.8709 22.416ZM60.7189 35.696C59.3749 35.568 57.9669 35.28 57.9669 33.616C57.9669 33.168 58.1269 32.784 58.3829 32.496C59.0549 31.824 60.6229 31.856 60.6869 31.856L78.1909 31.888C79.2789 31.888 80.2389 31.76 80.9429 32.368C81.3589 32.752 81.6149 33.232 81.6149 33.744C81.6149 34.384 81.1989 34.96 80.5589 35.184C79.6949 35.504 78.7669 35.632 77.8709 35.664C74.7669 35.792 71.6949 35.696 68.8469 35.696C65.7749 35.696 62.6389 35.792 60.7189 35.696ZM106.136 32.016C106.264 32.048 106.392 32.016 106.52 32.016C107.224 32.08 107.864 32.24 108.44 32.752C108.728 33.04 108.888 33.424 108.888 33.872C108.888 34.32 108.728 34.96 108.472 35.248C107.8 35.92 106.232 35.856 106.168 35.856H88.2484C88.0564 35.856 87.8324 35.888 87.6084 35.888C86.7124 35.92 85.5604 35.984 84.8564 35.376C84.4404 34.992 84.1844 34.512 84.1844 34C84.1844 33.36 84.6004 32.56 85.2404 32.304C86.1044 31.984 87.0324 32.048 87.9604 32.016H88.1204C90.1684 31.984 92.2804 31.984 94.3924 32.016L94.3604 29.008H91.0324C90.1684 29.008 89.2404 29.008 88.3124 28.976C87.4164 28.912 86.7764 27.952 86.6804 26.864C86.6164 26.064 86.5844 23.088 86.5844 22.416V21.648C86.5524 21.136 86.5524 20.528 86.9364 20.048C87.4804 19.312 88.6324 19.216 89.5604 19.216C89.7844 19.216 90.3924 19.28 90.6804 19.248H102.04V16.56H90.3604C90.1364 16.56 89.8804 16.592 89.6564 16.592C89.4004 16.592 89.1124 16.624 88.8564 16.624C88.4404 16.624 88.0884 16.592 87.7684 16.496C87.3844 16.4 87.0964 16.144 86.8724 15.76C86.5844 15.248 86.5204 14.768 86.6484 14.192C86.8724 13.424 87.8324 13.072 88.3124 12.976C88.6324 12.912 88.9524 12.912 89.3364 12.912H90.4564C91.8004 12.944 94.6804 12.944 96.5364 12.912H103C103.736 12.912 104.472 12.912 105.144 13.136C106.168 13.424 106.36 14.64 106.36 15.568V19.792C106.36 20.432 106.136 22.288 105.464 22.736C104.888 23.088 104.312 23.088 103.8 23.056H91.1604V25.616H103.832C104.216 25.616 104.568 25.616 104.92 25.648C105.56 25.68 106.136 25.968 106.36 26.704C106.584 27.568 106.296 28.4 105.528 28.752C105.016 28.976 104.44 29.008 103.992 29.008H98.4884L98.5204 32.016C100.536 31.984 101.976 31.984 103.96 32.016C104.728 32.048 105.464 31.952 106.136 32.016ZM122.857 31.92C122.857 31.408 122.793 30.672 122.953 30.16C123.017 29.648 123.273 29.232 123.785 29.04C124.905 28.592 125.897 28.72 127.081 28.72H139.785C140.649 28.72 141.705 28.592 142.473 29.104C143.017 29.52 143.145 30.544 143.145 31.216C143.209 32.048 143.209 32.976 143.209 33.904C143.145 34.832 143.273 35.92 142.953 36.848C142.761 37.52 142.089 37.712 141.449 37.776H140.713L125.161 37.712C124.841 37.712 124.457 37.776 124.169 37.712C123.913 37.648 123.657 37.52 123.465 37.392C123.209 37.232 123.017 36.976 122.953 36.592C122.857 36.336 122.857 36.016 122.857 35.792V31.92ZM121.513 16.08C121.225 15.952 120.969 15.696 120.905 15.408C120.649 14.768 120.649 14.096 121.097 13.584C121.577 13.072 121.961 12.944 122.697 12.944H132.585C133.449 12.944 134.025 12.944 134.569 13.072C135.657 13.264 136.329 13.776 136.201 15.024C136.137 15.216 136.073 15.408 136.009 15.632C135.657 16.272 135.081 16.336 134.441 16.336C134.089 16.4 133.961 16.4 133.641 16.4C133.385 16.4 133.033 16.336 132.777 16.336H130.697C130.697 17.008 130.633 17.52 130.633 17.904C130.633 18.32 130.633 18.704 130.697 19.024V19.568C130.761 19.696 130.953 19.888 131.209 20.08C131.529 20.336 131.721 20.528 131.945 20.72C132.137 20.88 132.393 21.072 132.585 21.264C132.777 21.456 133.033 21.648 133.257 21.904C133.385 22.032 133.577 22.192 133.641 22.32L134.025 22.704C134.441 23.088 134.825 23.568 135.209 24.016C135.593 24.464 135.881 24.944 136.009 25.392C136.073 25.584 136.137 25.776 136.073 26.064C136.009 26.256 135.881 26.448 135.657 26.64C135.273 26.832 134.889 26.96 134.505 26.96C134.025 26.96 133.641 26.832 133.193 26.64C132.777 26.512 132.457 26.32 132.201 26.128C131.817 25.776 131.401 25.52 131.081 25.2C130.761 24.88 130.409 24.528 130.089 24.144C129.833 23.952 129.577 23.696 129.321 23.344C128.969 23.088 128.713 22.832 128.393 22.576L127.145 23.824C126.953 23.952 126.825 24.144 126.697 24.272C126.409 24.528 126.153 24.88 125.833 25.2C125.577 25.456 125.257 25.776 124.841 26.064C124.009 26.64 123.209 26.96 122.409 26.96H122.153C122.089 26.96 122.025 26.96 121.897 26.896C121.449 26.832 121.097 26.64 120.969 26.384C120.841 26.128 120.777 25.84 120.841 25.584C120.905 25.264 120.969 25.008 121.097 24.816C121.225 24.528 121.449 24.336 121.705 24.08C121.897 23.888 122.089 23.632 122.281 23.44C122.473 23.216 122.825 22.896 123.209 22.512C123.593 22.128 124.009 21.712 124.457 21.328C124.841 20.944 125.257 20.528 125.641 20.208L126.281 19.568V16.336H124.265C124.009 16.336 123.721 16.4 123.337 16.4C123.017 16.4 122.697 16.4 122.345 16.336C122.025 16.272 121.769 16.208 121.513 16.08ZM135.209 18.384C135.401 18.192 135.657 18.096 136.137 17.968C136.201 17.968 136.393 17.904 136.713 17.904H137.769C138.153 17.904 138.569 17.84 138.889 17.84H139.465V14.448C139.465 14.256 139.529 13.968 139.593 13.776C139.593 13.584 139.689 13.456 139.753 13.264C139.753 13.136 139.881 13.008 140.009 12.784C140.137 12.592 140.393 12.464 140.713 12.336C141.001 12.272 141.321 12.272 141.705 12.272C142.025 12.336 142.313 12.464 142.569 12.592C142.825 12.72 142.953 12.848 143.081 13.136C143.209 13.328 143.273 13.648 143.337 14.032V20.88C143.337 22.384 143.369 23.952 143.241 25.456C143.241 25.584 143.209 26.032 143.145 26.224C143.081 26.384 143.017 26.576 142.889 26.768C142.761 26.96 142.633 27.088 142.377 27.216C142.089 27.408 141.769 27.472 141.449 27.472C141.065 27.472 140.713 27.344 140.393 27.152C140.137 26.96 139.945 26.768 139.881 26.512C139.753 26.288 139.593 26.032 139.593 25.84C139.529 25.584 139.529 25.392 139.465 25.136V21.392H137.769C137.193 21.392 136.649 21.328 136.137 21.328C135.657 21.264 135.273 21.072 135.017 20.592C134.889 20.4 134.825 20.144 134.825 19.824C134.825 19.504 134.889 19.152 134.889 18.96C134.953 18.704 135.081 18.512 135.209 18.384ZM128.457 32.272C127.785 32.336 126.473 32.144 126.409 32.976C126.409 33.232 126.409 33.52 126.473 33.776V34.032C126.473 34.16 126.537 34.224 126.601 34.224C126.601 34.288 126.665 34.288 126.793 34.288C126.889 34.352 127.017 34.352 127.081 34.352H136.649C136.969 34.352 137.225 34.288 137.513 34.352H138.217C138.825 34.352 139.401 34.352 139.465 33.712V33.168C139.465 32.912 139.401 32.72 139.273 32.592C139.081 32.4 138.953 32.272 138.697 32.272H128.457ZM156.796 12.816C157.18 12.816 157.884 12.816 158.236 12.912C158.812 13.104 159.452 13.392 159.836 13.904C160.252 14.416 160.444 15.376 160.444 16.048C160.444 17.904 160.54 19.728 160.476 21.584C160.412 22.704 160.604 24.336 160.028 25.328C159.388 26.48 157.596 26.8 156.892 25.648C156.348 24.784 156.316 23.632 156.316 22.544V19.792C156.316 19.088 156.284 18.352 156.22 17.712C156.124 16.688 155.356 16.88 154.556 16.848C153.724 16.816 152.22 16.88 151.484 16.848C150.076 16.848 148.924 16.816 147.388 16.624C146.236 16.496 146.3 14.896 146.46 14.128C146.524 13.68 146.748 13.392 147.1 13.136C147.58 12.816 148.156 12.88 148.668 12.816C149.276 12.784 156.06 12.784 156.796 12.816ZM165.884 21.136H165.116C163.868 21.072 162.844 21.168 162.3 20.336C162.044 19.92 162.076 19.152 162.172 18.704C162.3 18.224 162.588 17.904 163.42 17.712C163.772 17.648 165.532 17.584 165.884 17.552V14.8C165.852 14.352 165.852 13.84 165.98 13.392C166.076 13.072 166.108 12.752 166.396 12.432C166.748 12.016 167.42 11.824 168.124 11.92C168.764 12.016 169.244 12.304 169.436 12.72C169.692 13.232 169.724 14.192 169.724 14.352V24.784H169.692C169.692 24.848 169.564 26 168.732 26.512C168.444 26.672 168.156 26.768 167.836 26.768C167.452 26.768 167.1 26.64 166.78 26.416C166.556 26.256 166.364 26.064 166.236 25.776C165.98 25.328 165.916 24.816 165.884 24.368V21.136ZM149.564 37.328C149.532 37.328 149.5 37.296 149.468 37.264C149.052 36.944 148.924 36.144 148.924 35.664C148.892 34.896 148.796 34.128 148.796 33.392C148.796 32.304 148.764 31.216 148.956 30.16C149.084 29.488 149.34 29.104 149.98 28.848C150.556 28.624 151.164 28.496 151.772 28.496H166.844C167.644 28.528 168.54 28.56 169.308 28.912C170.14 29.264 170.364 30.16 170.428 30.992C170.492 32.464 170.556 34.928 170.14 36.464C170.012 36.944 169.916 37.328 169.404 37.488C168.956 37.648 168.412 37.68 167.964 37.68L151.292 37.616C150.748 37.584 150.044 37.648 149.564 37.328ZM152.604 33.584C152.604 33.776 152.604 34 152.732 34.096C152.892 34.256 153.628 34.16 153.628 34.16H163.644C163.644 34.16 165.148 34.288 165.948 34.192C166.364 34.16 166.396 33.968 166.428 33.584C166.46 33.232 166.524 32.72 166.268 32.4C165.98 32.048 165.34 32.112 164.924 32.144H156.028C155.1 32.08 154.204 32.112 153.276 32.144C152.924 32.144 152.764 32.08 152.668 32.464C152.604 32.752 152.604 33.04 152.604 33.296C152.636 33.36 152.604 33.456 152.604 33.584ZM181.778 19.856C188.658 20.112 188.978 29.648 186.386 34.256C184.498 37.584 179.09 37.776 176.53 35.024C175.442 33.84 175.058 32.56 174.834 30.992C174.386 27.856 174.162 25.104 175.858 22.256C176.786 20.656 179.442 19.76 181.778 19.856ZM196.69 22.192H196.754C196.946 22.192 197.138 22.256 197.362 22.256C197.586 22.288 197.842 22.32 198.098 22.352C198.578 22.448 199.09 22.64 199.314 23.12C199.474 23.376 199.538 23.664 199.538 23.952C199.538 24.272 199.538 24.56 199.442 24.88C199.378 25.2 199.282 25.648 198.994 25.872C198.738 26.064 198.45 26.224 198.13 26.288C197.458 26.384 196.306 26.288 195.634 26.32C195.57 26.32 195.538 26.352 195.538 26.352C195.538 26.352 195.506 26.352 195.506 26.48C195.474 27.536 195.506 29.136 195.506 30.224C195.538 31.312 195.538 32.432 195.506 33.488V33.936C195.506 35.056 195.506 36.688 194.738 37.456C194.482 37.744 194.13 37.904 193.714 37.904C193.714 37.904 193.682 37.872 193.65 37.872C191.57 37.808 191.346 35.312 191.346 33.968V14.96C191.346 14.896 191.314 13.296 192.018 12.592C192.306 12.304 192.978 12.144 193.458 12.144C193.938 12.144 194.354 12.336 194.642 12.624C195.218 13.232 195.25 13.904 195.314 14.608C195.346 14.736 195.346 14.864 195.346 14.992C195.442 15.696 195.442 16.496 195.474 17.264C195.474 17.744 195.506 18.16 195.506 18.64C195.474 18.896 195.506 19.12 195.506 19.344V21.424C195.506 21.648 195.506 21.904 195.57 22.128C195.57 22.16 196.21 22.16 196.242 22.16C196.402 22.192 196.53 22.224 196.69 22.192ZM186.258 14.736C187.09 14.736 188.082 14.928 188.53 15.76C188.818 16.304 188.722 17.296 188.306 17.84C187.474 18.896 184.274 18.544 183.698 18.576C183.378 18.608 183.058 18.608 182.674 18.608H181.65C181.33 18.576 181.01 18.576 180.658 18.576L176.882 18.512C174.706 18.512 173.874 17.968 173.714 16.784C173.618 16.144 173.81 15.632 174.194 15.28C174.77 14.768 175.09 14.704 175.73 14.704C175.89 14.704 176.082 14.736 176.242 14.736H177.042C177.65 14.736 178.546 14.704 179.154 14.672C179.186 14.352 179.218 13.264 179.25 12.976C179.282 12.624 179.41 12.272 179.602 11.984C180.018 11.408 180.626 11.088 181.266 11.12C181.874 11.184 182.514 11.216 182.898 11.728C183.378 12.4 183.186 13.776 183.282 14.704H184.21C184.562 14.704 185.362 14.736 185.682 14.736H186.258ZM181.65 33.392C183.57 33.104 184.306 30.704 184.274 28.976C184.242 27.504 184.178 25.168 182.866 24.272C181.714 23.504 179.314 23.856 178.706 25.2C177.906 26.928 177.97 28.688 178.354 30.512C178.546 31.44 178.898 32.592 179.698 33.136C180.05 33.36 181.298 33.456 181.65 33.392ZM225.204 35.376C225.14 35.888 225.108 36.368 224.948 36.88C224.884 37.04 224.82 37.168 224.756 37.328C224.628 37.584 224.436 37.84 224.18 38.032C223.7 38.32 223.092 38.384 222.548 38.256C222.228 38.192 221.94 38.064 221.716 37.872C220.948 37.168 220.98 35.504 220.98 35.44V15.664C220.948 14.672 220.98 13.072 221.588 12.496C222.036 12.048 222.58 11.984 223.156 11.984C223.892 11.984 224.564 12.432 224.82 13.136C225.204 14.032 225.172 15.024 225.204 16.016V16.176C225.3 19.44 225.204 23.056 225.204 26.128V34.224C225.204 34.608 225.236 34.992 225.204 35.376ZM210.1 32.24C210.068 31.728 210.068 31.216 210.068 30.704V20.528C210.068 19.856 210.068 19.152 210.004 18.448C209.972 18.224 209.94 17.744 209.716 17.648C209.492 17.52 209.204 17.584 208.948 17.552C208.66 17.52 208.372 17.584 208.084 17.552H206.58C205.876 17.584 205.108 17.52 204.404 17.552C204.084 17.584 203.796 17.552 203.476 17.552C202.996 17.552 202.452 17.552 202.036 17.264C201.428 16.848 201.268 16.144 201.268 15.472C201.236 15.056 201.332 14.64 201.524 14.256C201.62 14.032 201.748 13.84 201.94 13.712C202.164 13.488 202.644 13.328 202.932 13.264C203.828 13.04 204.852 13.072 205.78 13.072H211.348C211.892 13.136 212.564 13.2 213.076 13.392C213.396 13.52 213.78 13.744 213.972 14.032C214.356 14.64 214.356 15.216 214.42 15.92C214.516 17.104 214.484 18.288 214.484 19.472V29.968C214.484 30.064 214.548 32.72 214.484 34.064C214.42 34.928 214.228 35.984 213.108 36.4C212.724 36.56 212.34 36.624 212.02 36.624C211.476 36.624 210.836 36.4 210.612 35.92C210.292 35.28 210.1 34.48 210.1 33.648V32.24ZM242.967 21.168C241.719 23.152 239.063 21.808 239.223 19.76C239.351 18.352 240.503 16.464 241.591 15.568C243.607 13.904 247.031 13.168 249.527 13.968C252.919 15.024 254.903 17.328 254.903 20.976C254.903 24.432 253.719 26.288 249.847 29.456C249.207 30 248.503 30.576 247.831 31.12C247.383 31.472 244.983 32.624 246.519 32.752C247.447 32.816 247.831 32.752 248.759 32.752C249.847 32.752 250.935 32.656 251.991 32.752C252.855 32.816 254.135 32.592 254.807 33.168C255.479 33.744 255.511 35.44 254.935 36.048C254.391 36.688 253.495 36.496 252.759 36.496H241.271C240.855 36.496 240.311 36.592 239.927 36.464C239.159 36.272 239.383 35.568 239.383 34.928C239.383 32.752 241.719 31.344 243.255 30.064C244.375 29.072 245.719 28.112 246.871 27.12C249.879 24.624 250.967 23.216 250.967 21.264C250.967 19.12 249.463 17.872 247.447 17.872C245.975 17.872 244.567 18.544 243.735 19.76C243.479 20.208 243.255 20.752 242.967 21.168Z" fill="white"/>
</svg>
