<svg width="111" height="44" viewBox="0 0 111 44" fill="none" xmlns="http://www.w3.org/2000/svg">
<path d="M78.113 7.72387C72.5 0.495494 59.496 0 55.5 0C51.504 0 37.5632 0.164768 33 7C15.0639 3.1661 0 10.2798 0 24.4631C0 37.5152 19.5217 43.9862 34 39C48.4783 34.0138 34.301 38.5629 34.5 38.5C37.7111 41.6813 45.6737 44 55.5 44C65.3263 44 72.816 41.9279 76.4711 38.3322C76.6701 38.3951 76.9189 38.4579 77.1179 38.5208C91.5713 43.5908 111 37.5152 111 24.4631C111 10.2798 95.9993 3.88997 78.0632 7.72387" fill="#EF897E"/>
<path d="M24.616 20.728C23.836 20.728 23.2033 20.6673 22.718 20.546C22.2327 20.4073 21.8513 20.1907 21.574 19.896C21.314 19.6013 21.132 19.2027 21.028 18.7C20.9413 18.1973 20.898 17.5647 20.898 16.802V14.826C20.898 14.0807 20.9413 13.4567 21.028 12.954C21.132 12.4513 21.314 12.0527 21.574 11.758C21.8513 11.446 22.2327 11.2293 22.718 11.108C23.2033 10.9867 23.836 10.926 24.616 10.926H39.41C40.19 10.926 40.8227 10.9867 41.308 11.108C41.7933 11.2293 42.166 11.446 42.426 11.758C42.7033 12.0527 42.8853 12.4513 42.972 12.954C43.076 13.4567 43.128 14.0807 43.128 14.826V20.728H24.616ZM29.608 26.058H21.86C21.496 26.058 21.184 25.9973 20.924 25.876C20.664 25.7547 20.456 25.5987 20.3 25.408C20.144 25.2173 20.0227 25.0007 19.936 24.758C19.8667 24.5153 19.832 24.2727 19.832 24.03C19.832 23.7873 19.8667 23.5447 19.936 23.302C20.0053 23.0593 20.118 22.8427 20.274 22.652C20.4473 22.444 20.664 22.2793 20.924 22.158C21.184 22.0367 21.496 21.976 21.86 21.976H42.14C42.504 21.976 42.816 22.0367 43.076 22.158C43.336 22.2793 43.544 22.444 43.7 22.652C43.8733 22.8427 43.9947 23.0593 44.064 23.302C44.1333 23.5447 44.168 23.7873 44.168 24.03C44.168 24.2727 44.1247 24.5153 44.038 24.758C43.9687 25.0007 43.856 25.2173 43.7 25.408C43.544 25.5987 43.336 25.7547 43.076 25.876C42.816 25.9973 42.504 26.058 42.14 26.058H34.834V29.568H29.608V26.058ZM24.85 34.976C24.122 34.976 23.5153 34.9067 23.03 34.768C22.5447 34.6467 22.1633 34.4387 21.886 34.144C21.6087 33.8493 21.4093 33.468 21.288 33C21.184 32.5147 21.132 31.9167 21.132 31.206V29.542C21.132 28.658 21.4007 28.0167 21.938 27.618C22.4753 27.2193 23.108 27.02 23.836 27.02C24.564 27.02 25.1793 27.2193 25.682 27.618C26.202 28.0167 26.462 28.658 26.462 29.542V30.426C26.462 30.7207 26.5053 30.8853 26.592 30.92C26.6787 30.9373 26.8693 30.946 27.164 30.946H41.178C41.9753 30.946 42.5387 31.154 42.868 31.57C43.1973 31.9687 43.362 32.428 43.362 32.948C43.362 33.4853 43.1887 33.9533 42.842 34.352C42.5127 34.768 41.958 34.976 41.178 34.976H24.85ZM26.098 16.256C26.098 16.516 26.1327 16.7067 26.202 16.828C26.2887 16.932 26.462 16.984 26.722 16.984H37.954V15.372C37.954 15.1293 37.9107 14.956 37.824 14.852C37.7373 14.7307 37.564 14.67 37.304 14.67H26.722C26.462 14.67 26.2887 14.7307 26.202 14.852C26.1327 14.956 26.098 15.1293 26.098 15.372V16.256ZM55.088 10.38C55.92 10.38 56.57 10.614 57.038 11.082C57.506 11.5327 57.7487 12.174 57.766 13.006H61.536C62.1773 13.006 62.6713 13.188 63.018 13.552C63.3647 13.916 63.538 14.3753 63.538 14.93C63.538 15.45 63.3733 15.9007 63.044 16.282C62.732 16.646 62.2987 16.854 61.744 16.906C62.0213 17.5993 62.16 18.3707 62.16 19.22V20.312C62.16 22.0973 61.7527 23.4667 60.938 24.42C60.1233 25.3733 59.014 26.006 57.61 26.318V29.88H61.484C62.2813 29.88 62.8447 30.0967 63.174 30.53C63.5033 30.946 63.668 31.4227 63.668 31.96C63.668 32.5147 63.4947 33 63.148 33.416C62.8187 33.8493 62.264 34.066 61.484 34.066H49.108C48.328 34.066 47.7647 33.8493 47.418 33.416C47.0713 33 46.898 32.5147 46.898 31.96C46.898 31.4227 47.0627 30.946 47.392 30.53C47.7387 30.0967 48.3107 29.88 49.108 29.88H52.566V26.318C51.162 26.006 50.0527 25.3733 49.238 24.42C48.4233 23.4667 48.016 22.0973 48.016 20.312V19.22C48.016 18.336 48.146 17.5647 48.406 16.906C47.8513 16.854 47.4093 16.646 47.08 16.282C46.768 15.9007 46.612 15.45 46.612 14.93C46.612 14.3753 46.7853 13.916 47.132 13.552C47.4787 13.188 47.9727 13.006 48.614 13.006H52.41C52.4273 12.174 52.67 11.5327 53.138 11.082C53.606 10.614 54.256 10.38 55.088 10.38ZM64.604 13.084C64.604 12.252 64.864 11.628 65.384 11.212C65.904 10.7787 66.502 10.562 67.178 10.562C67.5073 10.562 67.828 10.6227 68.14 10.744C68.452 10.848 68.7207 11.004 68.946 11.212C69.1887 11.42 69.3793 11.68 69.518 11.992C69.674 12.304 69.752 12.668 69.752 13.084V19.662H70.61C71.0087 19.662 71.338 19.7313 71.598 19.87C71.858 20.0087 72.066 20.1907 72.222 20.416C72.378 20.624 72.4907 20.8667 72.56 21.144C72.6293 21.404 72.664 21.664 72.664 21.924C72.664 22.184 72.6293 22.4527 72.56 22.73C72.4907 22.99 72.378 23.2327 72.222 23.458C72.066 23.666 71.8493 23.8393 71.572 23.978C71.312 24.1167 70.9913 24.186 70.61 24.186H69.752V34.976H64.604V13.084ZM55.088 22.678C55.6947 22.678 56.2147 22.5133 56.648 22.184C57.0987 21.8373 57.324 21.2567 57.324 20.442V18.96C57.324 18.1453 57.0987 17.5733 56.648 17.244C56.2147 16.8973 55.6947 16.724 55.088 16.724C54.4813 16.724 53.9527 16.8973 53.502 17.244C53.0687 17.5733 52.852 18.1453 52.852 18.96V20.442C52.852 21.2567 53.0687 21.8373 53.502 22.184C53.9527 22.5133 54.4813 22.678 55.088 22.678Z" fill="white"/>
<path d="M77.52 22.73C77.52 22.47 77.5547 22.21 77.624 21.95C77.7107 21.69 77.832 21.456 77.988 21.248C78.1613 21.04 78.378 20.8753 78.638 20.754C78.9153 20.6153 79.2447 20.546 79.626 20.546H82.434V17.816C82.434 16.9667 82.668 16.3427 83.136 15.944C83.6213 15.5453 84.1847 15.346 84.826 15.346C85.4673 15.346 86.022 15.5453 86.49 15.944C86.9753 16.3427 87.218 16.9667 87.218 17.816V20.546H90.026C90.4073 20.546 90.728 20.6153 90.988 20.754C91.2653 20.8753 91.482 21.04 91.638 21.248C91.8113 21.456 91.9327 21.69 92.002 21.95C92.0887 22.21 92.132 22.47 92.132 22.73C92.132 22.99 92.0887 23.2587 92.002 23.536C91.9327 23.796 91.8113 24.0387 91.638 24.264C91.4647 24.472 91.248 24.6453 90.988 24.784C90.728 24.9227 90.4073 24.992 90.026 24.992H87.218V27.722C87.218 28.5713 86.9753 29.1953 86.49 29.594C86.022 29.9927 85.4673 30.192 84.826 30.192C84.1847 30.192 83.6213 29.9927 83.136 29.594C82.668 29.1953 82.434 28.5713 82.434 27.722V24.992H79.626C79.2447 24.992 78.9153 24.9227 78.638 24.784C78.378 24.6453 78.1613 24.472 77.988 24.264C77.832 24.0387 77.7107 23.796 77.624 23.536C77.5547 23.2587 77.52 22.99 77.52 22.73Z" fill="#FFDD2B"/>
</svg>
