<svg width="869" height="28" viewBox="0 0 869 28" fill="none" xmlns="http://www.w3.org/2000/svg">
<path d="M37.2663 14.147C37.1847 18.5673 34.9633 21.5005 30.7198 22.7019C30.1667 22.8606 29.9446 23.119 29.7542 23.6177C28.9019 25.8663 27.2562 27.1403 24.8443 27.2853C22.31 27.4395 20.3878 26.3922 19.3043 24.062C19.0096 23.4273 18.6242 23.1507 17.9714 23.1054C16.8879 23.0238 15.9177 22.6384 15.1606 21.8541C14.7661 21.4461 14.5032 21.4415 14.0634 21.8269C12.649 23.0691 10.9761 23.4454 9.13089 23.128C6.4198 22.6656 4.68797 20.7434 4.5293 17.987C4.44769 16.5271 4.37969 15.0673 4.35702 13.6075C4.34795 13.0408 4.17568 12.7869 3.61351 12.5739C1.05203 11.5901 -0.117631 9.68142 0.00930967 6.86606C0.118116 4.45873 1.63233 2.36875 4.085 1.80658C7.81161 0.954266 11.5926 0.351299 15.4326 1.13561C15.8678 1.22628 16.235 1.09934 16.634 0.986001C19.8483 0.0838174 22.6954 1.37136 24.0509 4.39526C24.3139 4.98009 24.6448 5.0345 25.1707 5.02089C27.1292 4.97556 29.0651 5.17957 30.951 5.72813C34.8817 6.8706 37.3389 10.162 37.2663 14.1425V14.147ZM22.7498 19.619C22.7498 20.2583 22.7271 20.893 22.7543 21.5322C22.8042 22.7608 23.3301 23.3275 24.4227 23.3638C25.3294 23.3955 26.0276 22.7291 26.1273 21.6365C26.1953 20.893 26.1726 20.1359 26.1636 19.3878C26.159 18.9027 26.2814 18.7033 26.8164 18.8619C27.5826 19.0931 28.385 19.0342 29.1648 18.9662C31.0644 18.803 32.565 17.5381 33.0546 15.7292C33.6304 13.6075 33.0184 11.6082 31.4769 10.4657C30.1486 9.47741 28.5754 9.28247 27.0159 9.11019C24.2232 8.81097 23.8877 9.08752 23.3845 11.8802C23.3255 12.2112 23.2666 12.5421 23.2394 12.8776C23.1805 13.5894 23.1261 14.2467 22.4551 14.75C21.9156 15.1535 21.8748 15.9604 22.2194 16.4002C23.0218 17.4157 22.7407 18.5219 22.7498 19.6145V19.619ZM11.7468 15.0401C11.7468 15.0401 11.715 15.0401 11.6969 15.0401C11.6969 14.215 11.7241 13.3899 11.6878 12.5693C11.6516 11.7079 11.5654 10.8511 11.4974 9.99424C11.4098 8.8548 11.9342 8.25788 13.0706 8.20347C14.4261 8.13547 15.1107 7.55517 15.1016 6.46711C15.0971 5.38811 14.4352 4.81235 13.0116 4.83955C11.4022 4.87129 9.79279 5.00276 8.19243 5.1433C7.14971 5.23397 6.09792 5.30198 5.09599 5.6556C4.15754 5.98655 3.66338 6.9522 3.91726 7.89519C4.13487 8.7067 4.99626 9.12379 6.00271 8.89711C6.25659 8.83818 6.50594 8.75657 6.75529 8.6795C7.53053 8.43469 7.86602 8.5979 7.95215 9.51821C8.21057 12.2021 8.34204 14.8905 8.39191 17.588C8.41458 18.8075 8.92687 19.2564 10.0331 19.2518C11.1665 19.2428 11.6697 18.7985 11.7377 17.6333C11.7876 16.7765 11.7468 15.9106 11.7468 15.0492V15.0401ZM20.5601 15.4935C20.5873 14.0337 20.483 12.5875 20.1611 11.1594C19.9299 10.1348 19.2997 9.62249 18.2253 9.72676C17.1055 9.83556 16.77 10.6833 16.8062 11.5583C16.8879 13.68 17.11 15.7972 17.2913 17.9144C17.3775 18.9481 18.0122 19.2836 18.9869 19.2518C20.007 19.2201 20.5011 18.6987 20.551 17.7376C20.5918 16.9941 20.5601 16.2461 20.5601 15.498V15.4935ZM20.3288 6.31297C20.6371 5.36545 20.0115 4.78061 19.1546 4.65821C17.5996 4.43606 16.5252 5.33371 16.5025 6.66205C16.4798 7.82719 17.1871 8.59336 18.3205 8.63416C19.6397 8.6795 20.2835 7.97226 20.3288 6.3175V6.31297Z" fill="#6A83B4"/>
<path d="M22.7497 19.6145C22.7361 18.5219 23.0217 17.4157 22.2193 16.4002C21.8702 15.9604 21.911 15.158 22.455 14.75C23.126 14.2467 23.1804 13.5848 23.2393 12.8776C23.2665 12.5421 23.3255 12.2112 23.3844 11.8802C23.8876 9.09205 24.2231 8.81097 27.0158 9.11018C28.5799 9.27793 30.1485 9.4774 31.4769 10.4657C33.0183 11.6127 33.6303 13.6075 33.0545 15.7292C32.5649 17.5381 31.0643 18.803 29.1647 18.9662C28.3804 19.0342 27.5825 19.0931 26.8163 18.8619C26.2814 18.6987 26.1544 18.9027 26.1635 19.3878C26.1726 20.1359 26.1952 20.893 26.1272 21.6365C26.0275 22.7291 25.3248 23.3955 24.4226 23.3638C23.33 23.323 22.8086 22.7608 22.7542 21.5322C22.727 20.8975 22.7497 20.2583 22.7497 19.619V19.6145ZM27.9996 15.634C29.2282 15.6612 29.872 15.1761 29.9173 14.2649C29.9672 13.2992 28.9063 12.4469 27.4692 12.4696C25.8824 12.4968 26.6395 13.875 26.4854 14.5958C26.2043 15.9242 27.4873 15.3756 27.9996 15.6385V15.634Z" fill="#FCFCFC"/>
<path d="M11.7469 15.0387C11.7469 15.9001 11.7877 16.766 11.7378 17.6228C11.6698 18.788 11.1666 19.2322 10.0332 19.2413C8.92249 19.2504 8.41473 18.797 8.39206 17.5775C8.34672 14.88 8.21071 12.1961 7.9523 9.5077C7.86616 8.58738 7.52614 8.41964 6.75543 8.66899C6.50609 8.75059 6.25674 8.82766 6.00286 8.8866C4.9964 9.11781 4.13502 8.70072 3.91741 7.88468C3.66353 6.94623 4.16222 5.97604 5.09614 5.64509C6.09353 5.29147 7.14985 5.22346 8.19258 5.13279C9.79747 4.99225 11.4069 4.86077 13.0118 4.82904C14.4399 4.80184 15.0972 5.38214 15.1018 6.4566C15.1063 7.54466 14.4263 8.12496 13.0707 8.19296C11.9373 8.25039 11.4129 8.84731 11.4976 9.98373C11.561 10.8406 11.6517 11.6974 11.688 12.5588C11.7197 13.3794 11.697 14.2045 11.697 15.0296C11.7152 15.0296 11.7288 15.0296 11.7469 15.0296V15.0387Z" fill="#FCFCFC"/>
<path d="M20.3183 15.4564C20.3183 16.2045 20.3501 16.9525 20.3093 17.696C20.2594 18.6617 19.7607 19.1785 18.7452 19.2102C17.7705 19.242 17.1358 18.9065 17.0496 17.8728C16.8683 15.7556 16.6461 13.6385 16.5645 11.5167C16.5328 10.6463 16.8683 9.79397 17.9835 9.68516C19.058 9.58089 19.6836 10.0932 19.9194 11.1178C20.2413 12.5459 20.3455 13.9921 20.3183 15.4519V15.4564Z" fill="#FCFCFC"/>
<path d="M20.3288 6.31792C20.2835 7.97268 19.6397 8.68445 18.3205 8.63458C17.1825 8.59378 16.4798 7.82761 16.5025 6.66248C16.5297 5.33867 17.6041 4.43648 19.1546 4.65863C20.0115 4.78104 20.6371 5.3704 20.3288 6.31339V6.31792Z" fill="#FCFCFC"/>
<path d="M28 15.6414C27.4469 15.5598 25.8057 15.9543 26.0868 14.6259C26.2409 13.9051 25.8783 12.5042 27.465 12.477C28.9022 12.4543 29.963 13.3067 29.9132 14.2723C29.8678 15.1836 29.224 15.6686 27.9954 15.6414H28Z" fill="#6A83B4"/>
<path d="M47.6191 19.9542C47.6472 19.3664 47.9281 19.0865 48.4899 19.1145C54.0799 19.4783 59.6418 19.4783 65.2318 19.1145C65.7655 19.0865 66.0745 19.3664 66.1026 19.9542C66.1307 20.514 65.8779 20.8219 65.3161 20.8498C62.8441 21.0178 60.4003 21.1297 57.9283 21.1297V25.0204C57.9283 25.8041 57.5912 26.1959 56.889 26.1959C56.1867 26.1959 55.8496 25.8041 55.8496 25.0204V21.1297C53.3777 21.1297 50.9057 21.0178 48.4338 20.8498C47.872 20.8219 47.6191 20.514 47.6472 19.9542H47.6191ZM62.8441 7.13472C63.5745 7.13472 63.9116 7.44261 63.8835 8.05839L63.7149 14.3282C63.6869 16.0076 62.8161 16.8473 61.1306 16.8473H52.535C50.8495 16.8473 49.9787 16.0076 49.9506 14.3282L49.7821 8.05839C49.7821 7.44261 50.1192 7.13472 50.8214 7.13472C51.4675 7.13472 51.8046 7.44261 51.8327 8.05839L51.8889 10.2976H61.7767L61.8329 8.05839C61.861 7.44261 62.1981 7.13472 62.8441 7.13472ZM51.9451 12.061L52.0012 14.0483C52.0012 14.86 52.3383 15.2518 52.9844 15.2518H60.7093C61.3553 15.2518 61.6643 14.86 61.6924 14.0483L61.7486 12.061H51.9451ZM77.7882 10.0457C77.7882 11.2493 77.4512 12.2849 76.8051 13.2086C77.704 13.6004 78.5748 14.3002 79.3894 15.3078C79.7827 15.8116 79.7546 16.2595 79.3332 16.6513C78.8276 17.1552 78.4062 17.1272 78.013 16.5674C77.3388 15.5877 76.4399 14.916 75.3444 14.5801C73.8837 15.6157 71.805 16.3994 69.0802 16.9312C68.4341 17.0712 68.069 16.7913 67.9847 16.1475C67.8723 15.5037 68.1251 15.1399 68.7431 14.9999C73.378 14.0763 75.7095 12.3129 75.7095 9.70981C75.7095 9.37393 75.541 9.20599 75.232 9.20599H69.4735C68.7431 9.20599 68.378 8.92609 68.378 8.33829C68.378 7.7505 68.715 7.4706 69.4173 7.4706H74.8949C76.777 7.4706 77.7321 8.3103 77.7321 10.0177L77.7882 10.0457ZM84.6985 23.0611C84.6985 25.6921 82.4232 27.0636 77.8444 27.1196C73.2657 27.2036 70.9904 25.916 70.9904 23.285C70.9904 20.6539 73.2657 19.2824 77.8444 19.2264C82.4232 19.1425 84.6985 20.43 84.6985 23.0611ZM77.8444 25.3842C81.0467 25.3003 82.6479 24.5445 82.6479 23.089C82.6479 21.6336 81.0467 20.9338 77.8444 21.0178C74.6421 21.1018 73.041 21.8575 73.041 23.313C73.041 24.7684 74.6421 25.4682 77.8444 25.3842ZM82.7883 11.1373C82.7602 10.0457 82.7041 8.95408 82.6479 7.86246C82.5917 7.13472 82.9007 6.74286 83.5468 6.68688C84.2209 6.6309 84.558 6.9108 84.5861 7.52658C84.8389 10.6895 84.8389 13.8523 84.5861 16.9872C84.558 17.603 84.1929 17.8549 83.5468 17.7989C82.8726 17.7429 82.5636 17.3511 82.6479 16.6233C82.7322 15.3918 82.7602 14.1322 82.7883 12.9007H80.0636C79.3894 12.9007 79.0523 12.6208 79.0523 12.033C79.0523 11.4452 79.3894 11.1653 80.0636 11.1653H82.7883V11.1373ZM86.6648 15.3638C86.6929 14.776 86.9738 14.4961 87.5356 14.5241C93.1256 14.888 98.6875 14.888 104.277 14.5241C104.811 14.4961 105.12 14.776 105.148 15.3638C105.176 15.9236 104.924 16.2315 104.362 16.2595C98.7437 16.6233 93.1256 16.6233 87.4794 16.2595C86.9176 16.2315 86.6648 15.9236 86.6929 15.3638H86.6648ZM88.4345 19.1704C88.4345 18.6106 88.7716 18.3027 89.4738 18.3027H101.609C102.845 18.3027 103.407 18.8066 103.266 19.8142L103.013 21.8575C102.873 22.9211 102.255 23.4529 101.159 23.4529H90.9907L91.2155 25.1603H101.384C102.115 25.1603 102.48 25.4402 102.48 26.028C102.48 26.6158 102.143 26.8957 101.44 26.8957H90.9907C89.9233 26.8957 89.3334 26.3639 89.1929 25.3282L88.9401 23.285C88.7997 22.2493 89.3615 21.7455 90.6536 21.7455H100.963L101.159 20.0381H89.4738C88.7435 20.0381 88.3783 19.7582 88.3783 19.1704H88.4345ZM103.322 9.7378C103.322 11.949 100.85 13.0966 95.9346 13.1526C90.9907 13.2366 88.5188 12.1729 88.5188 9.96172C88.5188 7.7505 90.9626 6.6309 95.9066 6.57492C100.822 6.49095 103.294 7.55457 103.294 9.7378H103.322ZM95.9066 11.5292C99.474 11.4452 101.244 10.8574 101.244 9.7378C101.244 8.6182 99.474 8.14236 95.9066 8.22633C92.3391 8.3103 90.5413 8.8981 90.5413 9.98971C90.5413 11.0813 92.3391 11.6131 95.9066 11.5292ZM112.705 8.98207C112.677 8.36628 113.014 8.05839 113.744 8.05839C114.39 8.05839 114.727 8.36628 114.755 8.98207L114.98 20.486C114.98 21.1857 115.373 21.6056 116.132 21.6616C117.929 21.8295 120.289 21.6616 123.21 21.1857C123.8 21.1018 124.081 21.2977 124.081 21.8015C124.081 22.4453 123.772 22.8371 123.126 22.9491C119.811 23.5649 116.946 23.6768 114.502 23.285C113.491 23.117 112.986 22.5013 112.957 21.4656L112.705 9.01006V8.98207ZM126.441 23.7888C126.862 18.4147 126.862 13.0406 126.441 7.66653C126.385 7.05075 126.694 6.74286 127.368 6.68688C128.042 6.6309 128.407 6.9108 128.435 7.52658C128.632 9.96172 128.744 12.3969 128.772 14.832H131.778C132.452 14.832 132.789 15.1119 132.789 15.6997C132.789 16.2875 132.452 16.5674 131.778 16.5674H128.772C128.744 19.0305 128.632 21.4936 128.435 23.9567C128.379 24.5725 128.042 24.8244 127.368 24.7684C126.694 24.7125 126.385 24.4046 126.441 23.7888ZM134.222 9.68182C134.194 8.75815 134.727 8.3103 135.851 8.3103H143.155C143.857 8.3103 144.194 8.5902 144.194 9.178C144.194 9.76579 143.829 10.0457 143.098 10.0457H136.947C136.497 10.0457 136.272 10.3536 136.301 10.9694L136.357 14.804H142.649C143.379 14.804 143.716 15.0839 143.716 15.6717C143.716 16.2875 143.351 16.5674 142.649 16.5674H136.413L136.469 20.458C136.469 21.1577 136.862 21.5776 137.621 21.6336C139.812 21.8575 142.003 21.8015 144.25 21.4376C144.84 21.3537 145.121 21.5496 145.121 22.0534C145.121 22.6972 144.812 23.089 144.166 23.201C141.525 23.7048 138.801 23.7048 135.992 23.257C134.98 23.089 134.475 22.4733 134.447 21.4376L134.222 9.68182ZM147.93 23.7888C148.351 18.4147 148.351 13.0406 147.93 7.66653C147.874 7.05075 148.183 6.74286 148.857 6.68688C149.531 6.6309 149.896 6.9108 149.924 7.52658C150.121 9.96172 150.233 12.3969 150.261 14.832H153.267C153.941 14.832 154.278 15.1119 154.278 15.6997C154.278 16.2875 153.941 16.5674 153.267 16.5674H150.261C150.233 19.0305 150.121 21.4936 149.924 23.9567C149.868 24.5725 149.531 24.8244 148.857 24.7684C148.183 24.7125 147.874 24.4046 147.93 23.7888ZM155.683 8.17035C155.655 7.55457 155.992 7.24668 156.722 7.24668C157.368 7.24668 157.705 7.55457 157.734 8.17035L157.818 12.9007C157.818 13.6284 158.211 14.0483 158.97 14.1042C160.655 14.2722 162.593 14.1882 164.812 13.8243C165.402 13.7404 165.683 13.9363 165.683 14.4681C165.683 15.1119 165.374 15.5037 164.728 15.5877C162.172 16.0915 159.728 16.1195 157.34 15.6997C156.329 15.5317 155.823 14.9439 155.795 13.8803L155.683 8.17035ZM159.279 18.6946C159.279 18.1348 159.616 17.8269 160.318 17.8269H172.003C173.239 17.8269 173.801 18.3307 173.689 19.3664L173.464 21.6336C173.324 22.6972 172.706 23.229 171.61 23.229H161.863L162.116 25.1883H171.835C172.565 25.1883 172.902 25.4682 172.902 26.056C172.902 26.6438 172.565 26.9237 171.863 26.9237H161.891C160.823 26.9237 160.234 26.3919 160.121 25.3562L159.812 23.0611C159.672 22.0534 160.234 21.5496 161.526 21.5496H171.442L171.638 19.5903H160.402C159.672 19.5903 159.307 19.3104 159.307 18.7226L159.279 18.6946ZM171.975 10.9134C171.975 9.84976 171.919 8.78614 171.835 7.66653C171.779 7.05075 172.088 6.74286 172.762 6.68688C173.436 6.6309 173.773 6.9108 173.801 7.52658C174.054 10.2136 174.054 12.9007 173.801 15.5877C173.773 16.2035 173.408 16.4834 172.762 16.4274C172.088 16.3714 171.779 16.0635 171.835 15.4478C171.891 14.5241 171.947 13.6004 171.975 12.6768H169.391C169.363 13.5724 169.307 14.4961 169.223 15.3918C169.166 16.0076 168.829 16.2595 168.155 16.2035C167.481 16.1475 167.172 15.8396 167.228 15.2238C167.481 12.7887 167.481 10.3536 167.228 7.91844C167.172 7.30266 167.481 6.99477 168.155 6.93879C168.829 6.88281 169.194 7.13472 169.223 7.7505C169.307 8.81413 169.363 9.87775 169.391 10.9134H171.975ZM181.751 9.68182C181.723 8.75815 182.228 8.3103 183.296 8.3103H185.459C186.133 8.3103 186.47 8.5902 186.47 9.178C186.47 9.76579 186.105 10.0457 185.375 10.0457H184.251C183.801 10.0457 183.577 10.3536 183.605 10.9694L183.773 20.6539C183.773 21.2417 184.082 21.5776 184.7 21.6336C185.262 21.6895 185.712 21.6895 186.021 21.6336C186.61 21.5776 186.919 21.8575 186.919 22.4173C186.919 23.0331 186.61 23.3689 185.992 23.4249C185.234 23.4809 184.419 23.4249 183.549 23.229C182.509 22.9771 182.004 22.3613 181.976 21.4096L181.779 9.65383L181.751 9.68182ZM187.228 9.68182C187.2 8.75815 187.706 8.3103 188.773 8.3103H190.712C191.386 8.3103 191.723 8.5902 191.723 9.178C191.723 9.76579 191.358 10.0457 190.627 10.0457H189.729C189.279 10.0457 189.054 10.3536 189.082 10.9694L189.279 20.6539C189.279 21.2417 189.588 21.5776 190.178 21.6336C190.571 21.6895 190.964 21.6895 191.302 21.6336C191.891 21.5776 192.2 21.8575 192.2 22.4173C192.2 23.0331 191.891 23.3689 191.273 23.4249C190.515 23.4809 189.785 23.4249 189.026 23.229C188.015 22.9771 187.509 22.3613 187.481 21.4096L187.257 9.65383L187.228 9.68182ZM198.605 14.832C198.577 12.4528 198.465 10.0737 198.296 7.66653C198.24 7.05075 198.549 6.74286 199.223 6.68688C199.897 6.6309 200.234 6.9108 200.262 7.52658C200.712 13.0126 200.712 18.4707 200.262 23.9567C200.234 24.5725 199.869 24.8244 199.223 24.7684C198.549 24.7125 198.24 24.4046 198.296 23.7888C198.465 21.3817 198.577 19.0025 198.605 16.5674H196.021C195.993 18.8905 195.88 21.1857 195.684 23.4809C195.627 24.0967 195.29 24.3486 194.616 24.2926C193.942 24.2366 193.633 23.9287 193.689 23.313C194.139 18.2468 194.139 13.1806 193.689 8.11437C193.633 7.49859 193.942 7.1907 194.616 7.13472C195.29 7.07874 195.656 7.33065 195.684 7.94643C195.88 10.2416 195.993 12.5368 196.021 14.804H198.605V14.832ZM202.482 17.575C202.51 16.9592 202.791 16.6793 203.352 16.7073C208.942 17.0992 214.504 17.0992 220.094 16.7073C220.628 16.6793 220.937 16.9592 220.965 17.575C220.993 18.1348 220.74 18.4427 220.179 18.4707C214.56 18.8346 208.942 18.8346 203.296 18.4707C202.734 18.4427 202.482 18.1348 202.51 17.575H202.482ZM204.869 21.9974C204.757 21.2137 204.982 20.7379 205.543 20.5699C206.302 20.346 206.723 20.5979 206.836 21.3537L207.116 23.8168C207.201 24.6005 207.594 24.9924 208.296 24.9924C212.004 25.1043 215.122 25.1043 217.65 24.9924C218.268 24.9644 218.577 25.2163 218.577 25.7201C218.577 26.3639 218.268 26.6998 217.65 26.7557C214.083 26.9237 210.656 26.9237 207.341 26.7557C206.077 26.6998 205.375 26.084 205.206 24.9084L204.869 21.9694V21.9974ZM204.869 7.66653C204.841 7.02276 205.178 6.68688 205.909 6.65889C206.555 6.65889 206.892 6.93879 206.92 7.52658L206.976 11.1093C206.976 11.893 207.313 12.3129 207.987 12.3689C210.487 12.6488 213.802 12.5928 217.875 12.1449C218.465 12.089 218.802 12.3129 218.914 12.8447C218.999 13.4325 218.774 13.7684 218.212 13.8523C213.942 14.4121 210.235 14.4961 207.088 14.1322C205.74 13.9643 205.038 13.3205 205.01 12.1729L204.925 7.63854L204.869 7.66653Z" fill="#231815"/>
<path d="M293.943 16.8147C293.971 16.2549 294.252 16.003 294.814 16.003C300.404 16.171 305.966 16.171 311.556 16.003C312.09 16.003 312.399 16.2549 312.427 16.8147C312.455 17.3465 312.202 17.6264 311.64 17.6544C306.022 17.8224 300.404 17.8224 294.758 17.6544C294.196 17.6544 293.943 17.3745 293.971 16.8147H293.943ZM295.797 19.9216C295.797 19.3898 296.134 19.1099 296.837 19.1099H308.775C310.011 19.1099 310.573 19.6137 310.432 20.6214L310.208 22.2448C310.095 23.2804 309.477 23.8122 308.354 23.8122H298.325L298.494 25.2957H308.663C309.393 25.2957 309.758 25.5756 309.758 26.1074C309.758 26.6392 309.421 26.9191 308.719 26.9191H298.269C297.202 26.9191 296.612 26.3873 296.471 25.3517L296.275 23.7283C296.134 22.7206 296.696 22.2168 297.988 22.2168H308.157L308.354 20.7333H296.893C296.162 20.7333 295.797 20.4534 295.797 19.9216ZM298.269 11.6646V12.4203C298.269 12.8681 298.438 13.12 298.747 13.12H308.916C309.674 13.12 310.067 13.3719 310.067 13.9038C310.067 14.4636 309.702 14.7435 308.972 14.7435H298.016C296.893 14.7435 296.303 14.2116 296.275 13.12L296.191 11.5246C296.134 10.517 296.668 10.0131 297.792 10.0131H307.708C307.989 10.0131 308.129 9.78922 308.157 9.31339V8.55766H297.286C296.528 8.55766 296.134 8.27776 296.134 7.74595C296.134 7.21414 296.443 6.93424 297.033 6.90625H308.663C309.73 6.90625 310.264 7.41007 310.236 8.41771L310.18 10.0131C310.123 11.1048 309.534 11.6646 308.354 11.6646H298.269Z" fill="#231815"/>
<path d="M318.247 15.1073C320.803 13.5678 322.095 11.3286 322.095 8.41766C322.095 7.66193 322.432 7.27006 323.134 7.27006C323.837 7.27006 324.146 7.63394 324.146 8.36168C324.146 9.48128 324.005 10.5169 323.724 11.4686C325.663 12.4762 326.898 14.0157 327.432 16.1429C327.573 16.7307 327.32 17.1226 326.674 17.2905C326.028 17.4864 325.634 17.2905 325.494 16.7027C325.016 15.0793 324.174 13.9317 322.966 13.2599C322.151 14.7434 320.887 15.947 319.174 16.8706C318.556 17.1785 318.078 17.0106 317.769 16.4228C317.46 15.863 317.629 15.4432 318.219 15.1353H318.247V15.1073ZM336.084 23.1964C336.084 25.8275 333.724 27.199 329.005 27.255C324.286 27.3389 321.926 26.0514 321.926 23.4203C321.926 20.7893 324.286 19.4177 329.005 19.3618C333.724 19.2778 336.084 20.5653 336.084 23.1964ZM328.977 25.5196C332.32 25.4356 334.005 24.6799 334.005 23.2244C334.005 21.7689 332.32 21.0692 328.977 21.1531C325.634 21.2371 323.949 21.9928 323.949 23.4483C323.949 24.9038 325.634 25.6035 328.977 25.5196ZM331.73 7.88585C331.814 9.11741 331.87 10.321 331.899 11.5246H334.483C334.483 10.377 334.427 9.20138 334.342 7.99781C334.286 7.27006 334.595 6.8782 335.241 6.82222C335.916 6.76624 336.253 7.04614 336.281 7.66193C336.533 10.8248 336.533 13.9877 336.281 17.1226C336.253 17.7383 335.887 17.9903 335.241 17.9343C334.567 17.8783 334.258 17.4864 334.342 16.7587C334.427 15.6111 334.455 14.4355 334.483 13.2599H331.899C331.87 14.4635 331.814 15.6671 331.73 16.8706C331.674 17.4864 331.337 17.7383 330.663 17.7104C329.988 17.6544 329.679 17.3185 329.736 16.7027C329.96 13.8197 329.96 10.9088 329.736 8.0258C329.679 7.41002 329.988 7.10212 330.663 7.04614C331.337 6.99016 331.702 7.24207 331.73 7.85785V7.88585ZM341.618 13.6238L341.674 15.4152C341.674 15.863 341.814 16.1149 342.123 16.1149H348.64C349.399 16.1149 349.764 16.3948 349.764 16.9826C349.764 17.5984 349.399 17.8783 348.697 17.8783H341.337C340.185 17.8783 339.623 17.3465 339.595 16.2549L339.539 13.3439C339.511 12.3363 340.045 11.8324 341.14 11.8324H347.657C347.966 11.8324 348.107 11.6085 348.107 11.1327L348.163 9.39731H340.635C339.876 9.39731 339.483 9.11741 339.483 8.52962C339.483 7.94183 339.792 7.63393 340.382 7.63393H348.64C349.708 7.63393 350.214 8.13776 350.214 9.11741L350.157 11.9724C350.129 13.064 349.511 13.6238 348.331 13.6238H341.674H341.618ZM340.803 21.1811C340.803 20.5933 341.14 20.3134 341.843 20.3134H353.809C354.511 20.3134 354.848 20.5933 354.848 21.1811V22.0208C354.848 23.8402 354.455 25.4076 353.697 26.7511C353.388 27.3109 352.966 27.4229 352.405 27.059C351.787 26.7231 351.646 26.2753 351.927 25.7155C352.489 24.7358 352.77 23.5043 352.77 22.0488H341.786C341.084 22.0488 340.747 21.7689 340.747 21.1811H340.803ZM353.163 17.4584C353.416 14.2676 353.416 11.0487 353.163 7.82987C353.107 7.21409 353.416 6.90619 354.09 6.85021C354.764 6.79423 355.129 7.07413 355.157 7.68992C355.214 8.3057 355.242 8.92148 355.27 9.53726H358.472C359.146 9.53726 359.483 9.81716 359.483 10.405C359.483 10.9927 359.146 11.2726 358.472 11.2726H355.326C355.326 12.1683 355.326 13.064 355.326 13.9597H358.472C359.146 13.9597 359.483 14.2396 359.483 14.8274C359.483 15.4152 359.146 15.6951 358.472 15.6951H355.27C355.242 16.3388 355.214 16.9546 355.157 17.5704C355.101 18.1862 354.764 18.4381 354.09 18.3821C353.416 18.3261 353.107 18.0182 353.163 17.4025V17.4584ZM360.467 9.25736C360.467 8.72555 360.804 8.44565 361.506 8.44565H364.933V7.57796C364.933 6.90619 365.27 6.57031 365.972 6.57031C366.674 6.57031 367.012 6.90619 367.012 7.57796V8.44565H370.411C371.113 8.44565 371.45 8.72555 371.45 9.25736C371.45 9.78917 371.113 10.0691 370.411 10.0691H370.073C370.551 10.6009 370.804 11.3286 370.804 12.2523C370.804 14.9393 369.203 16.3388 366 16.4788C362.798 16.6187 361.169 15.3312 361.169 12.6442C361.169 11.5245 361.506 10.6569 362.208 10.0411H361.534C360.86 10.0411 360.495 9.76118 360.495 9.22937L360.467 9.25736ZM362.91 19.0539C362.91 18.5221 363.247 18.2422 363.95 18.2422H375.13C376.366 18.2422 376.927 18.746 376.815 19.7536L376.59 21.8529C376.45 22.9165 375.832 23.4483 374.736 23.4483H365.495L365.719 25.4076H374.961C375.692 25.4076 376.057 25.6875 376.057 26.2193C376.057 26.7511 375.72 27.031 375.017 27.031H365.467C364.427 27.031 363.837 26.4992 363.697 25.4636L363.416 23.3643C363.304 22.3287 363.865 21.8249 365.158 21.8249H374.568L374.765 19.8656H364.034C363.304 19.8656 362.938 19.5857 362.938 19.0539H362.91ZM365.972 10.0691C364.118 10.153 363.219 10.9927 363.219 12.5602C363.219 14.1276 364.146 14.9113 365.972 14.8554C367.798 14.7994 368.697 13.9317 368.697 12.3083C368.697 10.9088 367.939 10.153 366.422 10.0691H365.944H365.972ZM374.624 15.807C374.877 13.148 374.877 10.4889 374.624 7.80188C374.568 7.18609 374.877 6.8782 375.551 6.82222C376.225 6.76624 376.59 7.04614 376.618 7.66193C376.731 8.80952 376.787 9.9851 376.815 11.1327H379.961C380.635 11.1327 380.973 11.4126 380.973 12.0004C380.973 12.5882 380.635 12.8681 379.961 12.8681H376.815C376.787 13.9037 376.731 14.9113 376.618 15.947C376.562 16.5628 376.225 16.8147 375.551 16.7587C374.877 16.7307 374.568 16.3948 374.624 15.779V15.807ZM386.675 19.8376C386.703 19.2498 386.984 18.9699 387.546 18.9979C393.136 19.3898 398.698 19.3898 404.288 18.9979C404.821 18.9699 405.13 19.2498 405.158 19.8376C405.186 20.3974 404.934 20.7053 404.372 20.7333C401.9 20.9012 399.456 21.0132 396.984 21.0132V25.1557C396.984 25.9394 396.647 26.3313 395.945 26.3313C395.242 26.3313 394.905 25.9394 394.905 25.1557V21.0132C392.433 21.0132 389.961 20.9012 387.489 20.7333C386.928 20.7053 386.675 20.3974 386.703 19.8376H386.675ZM389.006 14.7714C392.939 14.0437 394.905 11.9444 394.905 8.44565C394.905 7.66192 395.242 7.27006 395.945 7.27006C396.647 7.27006 396.956 7.63394 396.956 8.36168C396.956 9.25736 396.844 10.0971 396.619 10.8248C399.372 11.4966 401.507 12.9241 402.967 15.0513C403.332 15.5831 403.276 16.003 402.799 16.3668C402.265 16.7027 401.844 16.6467 401.535 16.1989C400.243 14.3236 398.389 13.092 395.917 12.5602C394.737 14.6314 392.518 15.947 389.259 16.5628C388.669 16.6467 388.36 16.3948 388.248 15.807C388.164 15.2192 388.416 14.8834 389.006 14.7714ZM417.659 17.4025C414.119 17.5424 412.378 15.891 412.378 12.4482C412.378 9.00545 414.147 7.29805 417.659 7.1581C420.889 7.01815 422.631 8.38967 422.911 11.2726H427.097C427.069 10.181 427.013 9.08942 426.957 7.99781C426.9 7.27006 427.209 6.8782 427.855 6.82222C428.53 6.76624 428.867 7.04614 428.895 7.66193C429.148 10.8248 429.148 13.9877 428.895 17.1226C428.867 17.7383 428.501 17.9903 427.855 17.9343C427.181 17.8783 426.872 17.4864 426.957 16.7587C427.041 15.5271 427.069 14.2676 427.097 13.036H422.855C422.518 15.807 420.805 17.2625 417.659 17.4025ZM416.816 27.031C415.468 27.031 414.709 26.3033 414.512 24.8758L414.007 20.5653C413.923 19.9496 414.203 19.5857 414.793 19.5297C415.439 19.4457 415.805 19.6976 415.861 20.3134L416.001 21.461H419.428L419.569 20.3134C419.653 19.6976 420.018 19.4457 420.636 19.5297C421.254 19.6137 421.507 19.9496 421.423 20.5653L420.917 24.8758C420.72 26.3313 419.962 27.031 418.614 27.031H416.788H416.816ZM417.659 8.89349C415.496 8.97746 414.428 10.1251 414.428 12.3922C414.428 14.6594 415.496 15.751 417.659 15.6951C419.793 15.6111 420.861 14.4355 420.861 12.1403C420.861 9.84515 419.793 8.80952 417.659 8.89349ZM416.226 23.1684L416.423 24.6799C416.479 25.1277 416.675 25.3516 417.041 25.3516H418.445C418.81 25.3516 419.035 25.1277 419.063 24.6799L419.232 23.1684H416.226ZM422.237 25.6035C423.979 24.316 424.822 22.6086 424.822 20.5094C424.822 19.7536 425.159 19.3618 425.861 19.3618C426.563 19.3618 426.872 19.7256 426.872 20.4534C426.872 21.1811 426.788 21.8809 426.591 22.5526C427.968 23.6163 428.923 24.7918 429.428 26.1074C429.625 26.6112 429.428 26.9751 428.867 27.199C428.361 27.4229 427.996 27.2829 427.827 26.7511C427.49 25.8834 426.844 25.0437 425.889 24.232C425.299 25.2397 424.485 26.1633 423.417 27.003C422.94 27.3949 422.49 27.3109 422.097 26.7791C421.732 26.3313 421.788 25.9114 422.237 25.5756V25.6035Z" fill="#231815"/>
<path d="M436.843 23.7847C433.304 23.9247 431.562 21.3216 431.562 16.0595C431.562 10.7973 433.332 8.1103 436.843 7.99834C440.186 7.85839 441.956 10.2096 442.096 15.0238H446.422C446.394 12.6447 446.282 10.2375 446.113 7.8304C446.057 7.21462 446.366 6.90673 447.04 6.85075C447.714 6.79477 448.052 7.07467 448.08 7.69045C448.529 13.1765 448.529 18.6346 448.08 24.1206C448.052 24.7364 447.686 24.9883 447.04 24.9323C446.366 24.8763 446.057 24.5684 446.113 23.9527C446.282 21.5735 446.394 19.1664 446.422 16.7592H442.096C441.844 21.3216 440.102 23.6728 436.843 23.7847ZM436.843 9.70573C434.681 9.76171 433.613 11.861 433.613 15.9755C433.613 20.09 434.681 22.1333 436.843 22.0773C438.978 21.9934 440.046 19.8941 440.046 15.7516C440.046 11.6091 438.978 9.64975 436.843 9.73372V9.70573ZM455.187 17.9628C455.187 17.9628 455.187 17.7389 455.187 17.6269C453.052 16.8712 451.984 15.3317 451.984 13.0086C451.984 9.5098 454.456 7.71844 459.4 7.63447C464.316 7.5505 466.788 9.25789 466.788 12.7846C466.788 15.1078 465.72 16.7032 463.557 17.515C463.586 17.6549 463.614 17.7949 463.614 17.9628V22.4692C464.99 22.4132 466.367 22.3572 467.743 22.2453C468.277 22.2173 468.586 22.4972 468.614 23.085C468.642 23.6448 468.389 23.9527 467.827 23.9807C462.209 24.3725 456.591 24.3725 450.945 23.9807C450.383 23.9527 450.13 23.6448 450.158 23.085C450.186 22.4972 450.467 22.2173 451.029 22.2453C452.406 22.3292 453.782 22.4132 455.158 22.4692V17.9628H455.187ZM459.4 16.5073C462.968 16.4233 464.737 15.1918 464.737 12.7846C464.737 10.3775 462.968 9.25789 459.4 9.34186C455.833 9.42583 454.035 10.6574 454.035 13.0365C454.035 15.4157 455.833 16.5913 459.4 16.5073ZM461.563 18.0188C460.889 18.1307 460.187 18.1867 459.4 18.1867C458.614 18.1867 457.883 18.1867 457.237 18.1027V22.5532C458.698 22.5812 460.13 22.5812 461.563 22.5532V18.0468V18.0188ZM470.243 23.5888C470.243 22.8051 470.664 22.3852 471.507 22.3852C472.35 22.3852 472.743 22.7771 472.743 23.5888V23.7847C472.743 24.5684 472.322 24.9603 471.507 24.9603C470.692 24.9603 470.243 24.5684 470.243 23.7847V23.5888Z" fill="#231815"/>
</svg>
