<svg width="796" height="278" viewBox="0 0 796 278" fill="none" xmlns="http://www.w3.org/2000/svg">
<rect width="796" height="278" rx="10" fill="#ECF7F5"/>
<path d="M664.196 117.13H468.776C468.389 117.13 468.085 116.828 468.085 116.444C468.085 116.06 468.389 115.758 468.776 115.758H664.196C664.583 115.758 664.887 116.06 664.887 116.444C664.887 116.828 664.583 117.13 664.196 117.13Z" fill="#E8E1C9"/>
<path d="M664.196 145.404H468.775C468.389 145.404 468.084 145.102 468.084 144.718C468.084 144.333 468.389 144.031 468.775 144.031H664.196C664.583 144.031 664.887 144.333 664.887 144.718C664.887 145.102 664.583 145.404 664.196 145.404Z" fill="#E8E1C9"/>
<path d="M664.196 173.717H468.775C468.389 173.717 468.084 173.414 468.084 173.03C468.084 172.646 468.389 172.344 468.775 172.344H664.196C664.583 172.344 664.887 172.646 664.887 173.03C664.887 173.414 664.583 173.717 664.196 173.717Z" fill="#E8E1C9"/>
<path d="M664.196 88.8493H468.775C468.389 88.8493 468.084 88.5473 468.084 88.1629C468.084 87.7786 468.389 87.4766 468.775 87.4766H664.196C664.583 87.4766 664.887 87.7786 664.887 88.1629C664.887 88.5473 664.583 88.8493 664.196 88.8493Z" fill="#D3D3D4"/>
<path d="M664.196 201.988H468.084V88.1317C468.084 87.7473 468.389 87.4453 468.775 87.4453C469.162 87.4453 469.467 87.7473 469.467 88.1317V200.588H664.196C664.583 200.588 664.887 200.89 664.887 201.274C664.887 201.659 664.583 201.961 664.196 201.961V201.988Z" fill="#B39E4F"/>
<path d="M664.196 88.8493H468.775C468.389 88.8493 468.084 88.5473 468.084 88.1629C468.084 87.7786 468.389 87.4766 468.775 87.4766H664.196C664.583 87.4766 664.887 87.7786 664.887 88.1629C664.887 88.5473 664.583 88.8493 664.196 88.8493Z" fill="#E8E1C9"/>
<path d="M454.154 85.858C454.789 85.556 455.425 85.4187 456.061 85.4187C456.973 85.4187 457.802 85.6109 458.521 85.9953C459.239 86.3796 459.792 86.9287 460.207 87.6426C460.594 88.3564 460.815 89.1526 460.815 90.0586C460.815 90.9646 460.622 91.7883 460.207 92.5021C459.82 93.216 459.239 93.7925 458.521 94.1769C457.802 94.5887 457.001 94.7809 456.061 94.7809C455.342 94.7809 454.679 94.6436 454.071 94.3416C453.463 94.0396 452.91 93.6278 452.495 93.0787C452.053 92.5296 451.749 91.9256 451.611 91.2392L452.965 90.9372C453.131 91.6785 453.518 92.2825 454.098 92.7492C454.679 93.216 455.342 93.4631 456.088 93.4631C456.724 93.4631 457.305 93.3258 457.802 93.0238C458.3 92.7492 458.687 92.3374 458.991 91.8157C459.295 91.2941 459.405 90.7175 459.405 90.0586C459.405 89.3997 459.267 88.8506 458.991 88.3564C458.714 87.8622 458.327 87.4504 457.802 87.1758C457.305 86.9013 456.724 86.764 456.088 86.764C455.674 86.764 455.232 86.8738 454.789 87.0935C454.347 87.3131 453.96 87.5877 453.656 87.9446L452.606 87.0386C452.993 86.5718 453.518 86.1874 454.181 85.8854L454.154 85.858ZM452.246 87.67L452.689 80.4219H459.654V81.6848H454.015L453.628 87.9171L452.246 87.67Z" fill="#231815"/>
<path d="M459.267 116.72H461.34V117.983H459.267V121.964H457.885V117.983H451.776L451.583 116.72L457.94 107.797H459.295V116.72H459.267ZM457.885 116.72V110.268L453.297 116.72H457.885Z" fill="#231815"/>
<path d="M460.041 143.456C460.373 144.06 460.566 144.692 460.566 145.296C460.566 146.092 460.373 146.806 459.986 147.41C459.599 148.041 459.074 148.508 458.383 148.865C457.692 149.222 456.918 149.386 456.033 149.386C455.149 149.386 454.402 149.222 453.711 148.865C453.02 148.508 452.495 148.014 452.108 147.41C451.721 146.778 451.528 146.092 451.528 145.296H452.91C452.91 145.845 453.048 146.339 453.297 146.778C453.573 147.218 453.933 147.547 454.402 147.794C454.872 148.041 455.398 148.151 456.006 148.151C456.614 148.151 457.139 148.041 457.609 147.794C458.079 147.547 458.438 147.218 458.714 146.778C458.991 146.339 459.101 145.845 459.101 145.296C459.101 144.747 458.963 144.307 458.714 143.895C458.438 143.484 458.079 143.154 457.609 142.935C457.139 142.715 456.614 142.605 456.033 142.605H455.011V141.315H456.033C456.586 141.315 457.084 141.205 457.526 141.013C457.968 140.793 458.3 140.518 458.549 140.134C458.797 139.75 458.908 139.338 458.908 138.844C458.908 138.075 458.659 137.471 458.134 137.004C457.609 136.537 456.945 136.29 456.116 136.29C455.563 136.29 455.094 136.4 454.651 136.62C454.209 136.839 453.877 137.141 453.656 137.526C453.407 137.91 453.297 138.377 453.297 138.871H451.915C451.915 138.13 452.081 137.471 452.468 136.867C452.855 136.263 453.324 135.824 453.96 135.494C454.596 135.165 455.315 135 456.144 135C456.973 135 457.692 135.165 458.327 135.494C458.963 135.824 459.461 136.29 459.82 136.867C460.179 137.444 460.345 138.13 460.345 138.871C460.345 139.42 460.179 139.997 459.875 140.546C459.571 141.122 459.157 141.589 458.604 141.946C459.184 142.303 459.654 142.797 460.014 143.429L460.041 143.456Z" fill="#231815"/>
<path d="M452.412 174.675C452.578 174.51 452.827 174.291 453.159 173.961C454.319 172.863 455.259 171.929 455.978 171.188C456.697 170.447 457.305 169.678 457.83 168.882C458.355 168.086 458.604 167.372 458.604 166.713C458.604 166.109 458.493 165.587 458.244 165.121C457.996 164.654 457.664 164.269 457.249 164.022C456.835 163.775 456.337 163.61 455.812 163.61C455.232 163.61 454.651 163.83 454.098 164.242C453.545 164.654 453.131 165.175 452.854 165.834L451.583 165.285C451.942 164.434 452.523 163.748 453.324 163.199C454.126 162.65 454.955 162.375 455.84 162.375C456.641 162.375 457.388 162.567 457.996 162.924C458.604 163.281 459.129 163.803 459.488 164.462C459.848 165.121 460.013 165.862 460.013 166.713C460.013 167.564 459.737 168.415 459.184 169.321C458.631 170.227 457.968 171.078 457.194 171.902C456.42 172.698 455.453 173.659 454.237 174.785C453.711 175.279 453.186 175.773 452.661 176.295L451.666 175.444C452.025 175.114 452.274 174.867 452.44 174.702L452.412 174.675ZM451.638 175.416H460.235V176.679H451.832L451.638 175.416Z" fill="#231815"/>
<path d="M455.757 203.995H454.375V191.475L452.219 193.013L451.445 191.942L454.375 189.883H455.757V204.022V203.995Z" fill="#231815"/>
<path d="M573.588 90.0391L570.336 92.5938L644.648 185.923L647.9 183.368L573.588 90.0391Z" fill="#94D4E7"/>
<path d="M656.871 197.96L648.579 173.086L634.427 184.205L656.871 197.96Z" fill="#94D4E7"/>
<path d="M473.613 142.694C472.12 142.694 470.655 142.584 469.246 142.392L469.826 138.329C498.738 142.337 550.869 97.2009 551.394 96.7341L554.131 99.8366C552.03 101.676 504.709 142.721 473.613 142.721V142.694Z" fill="#D2476E"/>
<path d="M565.629 87.0388L541.056 96.5932L552.97 110.046L565.629 87.0388Z" fill="#D2476E"/>
<path d="M358.456 87.8493H148.303C147.916 87.8493 147.612 87.5473 147.612 87.1629C147.612 86.7786 147.916 86.4766 148.303 86.4766H358.456C358.843 86.4766 359.147 86.7786 359.147 87.1629C359.147 87.5473 358.843 87.8493 358.456 87.8493Z" fill="#E8E1C9"/>
<path d="M358.456 116.13H148.303C147.916 116.13 147.612 115.828 147.612 115.444C147.612 115.06 147.916 114.758 148.303 114.758H358.456C358.843 114.758 359.147 115.06 359.147 115.444C359.147 115.828 358.843 116.13 358.456 116.13Z" fill="#E8E1C9"/>
<path d="M358.456 144.404H148.303C147.916 144.404 147.612 144.102 147.612 143.718C147.612 143.333 147.916 143.031 148.303 143.031H358.456C358.843 143.031 359.147 143.333 359.147 143.718C359.147 144.102 358.843 144.404 358.456 144.404Z" fill="#E8E1C9"/>
<path d="M358.456 172.717H148.303C147.916 172.717 147.612 172.414 147.612 172.03C147.612 171.646 147.916 171.344 148.303 171.344H358.456C358.843 171.344 359.147 171.646 359.147 172.03C359.147 172.414 358.843 172.717 358.456 172.717Z" fill="#E8E1C9"/>
<path d="M133.709 84.858C134.345 84.556 134.98 84.4187 135.616 84.4187C136.528 84.4187 137.358 84.6109 138.076 84.9953C138.795 85.3796 139.348 85.9287 139.762 86.6426C140.149 87.3564 140.37 88.1526 140.37 89.0586C140.37 89.9646 140.177 90.7883 139.762 91.5021C139.375 92.216 138.795 92.7925 138.076 93.1769C137.358 93.5887 136.556 93.7809 135.616 93.7809C134.898 93.7809 134.234 93.6436 133.626 93.3416C133.018 93.0396 132.465 92.6278 132.051 92.0787C131.608 91.5296 131.304 90.9256 131.166 90.2392L132.52 89.9372C132.686 90.6785 133.073 91.2825 133.654 91.7492C134.234 92.216 134.898 92.4631 135.644 92.4631C136.28 92.4631 136.86 92.3258 137.358 92.0238C137.855 91.7492 138.242 91.3374 138.546 90.8157C138.85 90.2941 138.961 89.7175 138.961 89.0586C138.961 88.3997 138.823 87.8506 138.546 87.3564C138.27 86.8622 137.883 86.4504 137.358 86.1758C136.86 85.9013 136.28 85.764 135.644 85.764C135.229 85.764 134.787 85.8738 134.345 86.0935C133.902 86.3131 133.515 86.5877 133.211 86.9446L132.161 86.0386C132.548 85.5718 133.073 85.1874 133.737 84.8854L133.709 84.858ZM131.774 86.67L132.244 79.4219H139.209V80.6848H133.571L133.184 86.9171L131.802 86.67H131.774Z" fill="#231815"/>
<path d="M138.795 115.72H140.868V116.983H138.795V120.964H137.413V116.983H131.304L131.111 115.72L137.468 106.797H138.823V115.72H138.795ZM137.413 115.72V109.268L132.825 115.72H137.413Z" fill="#231815"/>
<path d="M139.596 142.456C139.928 143.06 140.122 143.692 140.122 144.296C140.122 145.092 139.928 145.806 139.541 146.41C139.154 147.041 138.629 147.508 137.938 147.865C137.247 148.222 136.473 148.386 135.588 148.386C134.704 148.386 133.958 148.222 133.267 147.865C132.576 147.508 132.05 147.014 131.663 146.41C131.276 145.778 131.083 145.092 131.083 144.296H132.465C132.465 144.845 132.603 145.339 132.852 145.778C133.128 146.218 133.488 146.547 133.958 146.794C134.428 147.041 134.953 147.151 135.561 147.151C136.169 147.151 136.694 147.041 137.164 146.794C137.634 146.547 137.993 146.218 138.27 145.778C138.546 145.339 138.657 144.845 138.657 144.296C138.657 143.747 138.518 143.307 138.27 142.895C137.993 142.484 137.634 142.154 137.164 141.935C136.694 141.715 136.169 141.605 135.588 141.605H134.566V140.315H135.588C136.141 140.315 136.639 140.205 137.081 140.013C137.523 139.793 137.855 139.518 138.104 139.134C138.353 138.75 138.463 138.338 138.463 137.844C138.463 137.075 138.214 136.471 137.689 136.004C137.164 135.537 136.501 135.29 135.671 135.29C135.119 135.29 134.649 135.4 134.206 135.62C133.764 135.839 133.432 136.141 133.211 136.526C132.963 136.91 132.852 137.377 132.852 137.871H131.498C131.498 137.13 131.663 136.471 132.05 135.867C132.437 135.263 132.907 134.824 133.543 134.494C134.179 134.165 134.897 134 135.727 134C136.556 134 137.275 134.165 137.91 134.494C138.546 134.824 139.044 135.29 139.403 135.867C139.762 136.444 139.928 137.13 139.928 137.871C139.928 138.42 139.762 138.997 139.458 139.546C139.154 140.122 138.74 140.589 138.187 140.946C138.767 141.303 139.237 141.797 139.596 142.429V142.456Z" fill="#231815"/>
<path d="M131.968 173.675C132.133 173.51 132.382 173.291 132.714 172.961C133.875 171.863 134.815 170.929 135.533 170.188C136.252 169.447 136.86 168.678 137.385 167.882C137.91 167.086 138.159 166.372 138.159 165.713C138.159 165.109 138.049 164.587 137.8 164.121C137.551 163.654 137.219 163.269 136.805 163.022C136.39 162.775 135.893 162.61 135.367 162.61C134.787 162.61 134.207 162.83 133.654 163.242C133.101 163.654 132.686 164.175 132.41 164.834L131.138 164.285C131.498 163.434 132.078 162.748 132.88 162.199C133.681 161.65 134.511 161.375 135.395 161.375C136.197 161.375 136.943 161.567 137.551 161.924C138.159 162.281 138.684 162.803 139.044 163.462C139.403 164.121 139.569 164.862 139.569 165.713C139.569 166.564 139.292 167.415 138.74 168.321C138.187 169.227 137.523 170.078 136.75 170.902C135.976 171.698 135.008 172.659 133.792 173.785C133.267 174.279 132.742 174.773 132.216 175.295L131.221 174.444C131.581 174.114 131.829 173.867 131.995 173.702L131.968 173.675ZM131.194 174.416H139.79V175.679H131.387L131.194 174.416Z" fill="#231815"/>
<path d="M135.312 202.995H133.93V190.475L131.774 192.013L131 190.942L133.93 188.883H135.312V203.022V202.995Z" fill="#231815"/>
<path d="M358.456 200.988H147.612V87.1317C147.612 86.7473 147.916 86.4453 148.303 86.4453C148.69 86.4453 148.994 86.7473 148.994 87.1317V199.588H358.456C358.843 199.588 359.147 199.89 359.147 200.274C359.147 200.659 358.843 200.961 358.456 200.961V200.988Z" fill="#B39E4F"/>
<path d="M154.428 89.0313L151.176 91.5859L225.488 184.915L228.74 182.361L154.428 89.0313Z" fill="#94D4E7"/>
<path d="M237.721 196.96L229.429 172.086L215.277 183.205L237.721 196.96Z" fill="#94D4E7"/>
<path d="M279.984 199.619C255.329 199.619 246.041 172.082 245.931 171.78L249.883 170.517C250.298 171.752 260.083 200.58 286.922 194.732C321.722 187.182 346.018 131.311 346.239 130.734L350.054 132.354C349.031 134.743 324.707 190.751 287.806 198.768C285.042 199.372 282.444 199.647 279.984 199.647V199.619Z" fill="#94D4E7"/>
<path d="M354.835 115.883L336.841 135.046L353.453 142.048L354.835 115.883Z" fill="#94D4E7"/>
</svg>
