<svg width="92" height="83" viewBox="0 0 92 83" fill="none" xmlns="http://www.w3.org/2000/svg">
<path d="M88.816 66.2277C88.816 74.6695 70.9895 81.4993 49.0393 81.4993C27.0892 81.4993 9.2627 74.6695 9.2627 66.2277C9.2627 57.7859 27.0892 50.9561 49.0393 50.9561C70.9895 50.9561 88.816 57.7859 88.816 66.2277Z" fill="#FFFCD5"/>
<path d="M48.9962 82.7722C25.9721 82.7722 7.93091 75.5181 7.93091 66.2279C7.93091 56.9376 25.9721 49.6836 48.9962 49.6836C72.0203 49.6836 90.0615 56.9376 90.0615 66.2279C90.0615 75.5181 72.0203 82.7722 48.9962 82.7722ZM48.9962 52.2289C25.9721 52.2289 10.5082 59.4829 10.5082 66.2279C10.5082 72.9729 25.9721 80.2269 48.9962 80.2269C72.0203 80.2269 87.4842 72.9729 87.4842 66.2279C87.4842 59.4829 72.0203 52.2289 48.9962 52.2289Z" fill="#3E3A39"/>
<path d="M26.4019 58.6346C16.0926 58.6346 7.80221 54.6894 3.72146 47.6899C0.757538 42.5994 0.800493 36.7028 3.85032 32.7577C8.01699 27.3277 14.1166 27.1156 21.9775 32.0789C22.1493 32.2062 22.3211 32.291 22.45 32.3759C23.8245 32.8849 24.8125 34.2 24.8125 35.7271C24.8125 37.6785 23.1802 39.2905 21.2043 39.2905C20.0015 39.2905 19.1854 38.7815 18.0685 38.0603C12.8709 34.7515 11.0239 35.1756 9.60633 37.0422C8.31767 38.6966 8.4895 41.5813 9.99293 44.1266C11.2386 46.2476 16.3503 52.9926 30.8692 51.2533C32.8452 50.9988 34.6493 52.3987 34.8641 54.3501C35.1218 56.3014 33.7043 58.0831 31.7283 58.2952C29.9242 58.5073 28.163 58.6346 26.4448 58.6346" fill="white"/>
<path d="M26.4018 59.9069C15.5771 59.9069 6.90007 55.6647 2.56159 48.3259C-0.660062 42.7687 -0.57415 36.3631 2.77637 31.9937C5.95506 27.8364 12.0118 24.273 22.6217 31.018C24.7695 31.9088 26.0581 33.733 26.0581 35.7268C26.0581 38.3993 23.8674 40.5628 21.1612 40.5628C19.5719 40.5628 18.541 39.8841 17.3382 39.1205C12.1406 35.8116 11.2815 36.9145 10.5942 37.8054C9.64922 39.0356 9.82104 41.3688 11.0667 43.4899C12.1836 45.4412 16.9516 51.6347 30.6544 49.9803C31.943 49.8106 33.2317 50.15 34.2626 50.956C35.2935 51.762 35.9379 52.9074 36.1097 54.18C36.2815 55.4526 35.9379 56.7253 35.1217 57.7434C34.3056 58.7615 33.1458 59.3978 31.8571 59.5675C30.053 59.7796 28.2059 59.9069 26.4018 59.9069ZM11.8829 29.7878C9.04784 29.7878 6.72825 31.018 4.83822 33.5209C2.13204 37.0843 2.08908 42.3869 4.83822 47.0532C8.66124 53.6285 16.5221 57.3616 26.4018 57.3616C28.077 57.3616 29.7953 57.2343 31.5135 57.0222C32.1149 56.9374 32.6733 56.6404 33.0599 56.1738C33.4465 55.7072 33.6183 55.1133 33.5324 54.4769C33.4465 53.883 33.1458 53.3316 32.6733 52.9498C32.2008 52.568 31.5994 52.3983 30.998 52.4832C15.663 54.3073 10.1647 47.0108 8.83307 44.7201C7.0719 41.7082 6.94303 38.272 8.53238 36.1934C10.9808 32.9694 14.4173 34.1572 18.7557 36.9146C19.8726 37.6357 20.388 37.9327 21.2042 37.9327C22.4929 37.9327 23.5238 36.9146 23.5238 35.6419C23.5238 34.7087 22.9224 33.8178 22.0203 33.5209C21.9774 33.5209 21.8056 33.3936 21.6767 33.3088C21.5478 33.3088 21.5049 33.3088 21.2901 33.3512C20.7317 33.3512 20.0444 32.8845 19.9585 32.2482C16.9087 30.5514 14.2884 29.6605 11.9688 29.6605L11.8829 29.7878Z" fill="#3E3A39"/>
<path d="M70.6028 54.3926C70.6028 63.598 63.0426 72.2943 48.7385 72.2943C34.4344 72.2943 26.8743 63.598 26.8743 54.3926" fill="white"/>
<path d="M48.7386 73.5662C33.5324 73.5662 25.5857 63.9366 25.5857 54.3918C25.5857 53.6706 26.1441 53.1191 26.8744 53.1191C27.6046 53.1191 28.163 53.6706 28.163 54.3918C28.163 62.4094 34.6063 71.0209 48.7386 71.0209C62.8709 71.0209 69.3142 62.4094 69.3142 54.3918C69.3142 53.6706 69.8726 53.1191 70.6029 53.1191C71.3331 53.1191 71.8915 53.6706 71.8915 54.3918C71.8915 63.6396 64.6321 73.5662 48.7386 73.5662Z" fill="#3E3A39"/>
<path d="M80.3967 27.709C80.3967 47.1379 69.4431 65.5911 48.7386 65.5911C28.0342 65.5911 17.0806 47.1379 17.0806 27.709" fill="white"/>
<path d="M48.7385 66.864C26.101 66.864 15.7917 46.5442 15.7917 27.7092C15.7917 26.988 16.3502 26.4365 17.0804 26.4365C17.8106 26.4365 18.3691 26.988 18.3691 27.7092C18.3691 45.3564 27.8622 64.3187 48.6955 64.3187C69.5289 64.3187 79.022 45.3564 79.022 27.7092C79.022 26.988 79.5804 26.4365 80.3106 26.4365C81.0409 26.4365 81.5993 26.988 81.5993 27.7092C81.5993 46.5866 71.29 66.864 48.6526 66.864H48.7385Z" fill="#3E3A39"/>
<path d="M80.5686 28.2186C80.5686 22.7462 66.3933 18.292 48.8675 18.292C31.3418 18.292 17.1665 22.7462 17.1665 28.2186C17.1665 30.6366 19.9586 32.8849 24.5978 34.5818C29.8813 31.5274 38.773 29.4912 48.9105 29.4912C59.0479 29.4912 67.8967 31.5274 73.1802 34.5818C77.8194 32.8425 80.6115 30.6366 80.6115 28.2186" fill="white"/>
<path d="M73.1371 35.854C72.9224 35.854 72.6646 35.8116 72.4928 35.6843C67.1663 32.63 58.3605 30.7635 48.8674 30.7635C39.3743 30.7635 30.5255 32.5876 25.2419 35.6843C24.8983 35.8964 24.5117 35.8964 24.1251 35.7692C18.7127 33.733 15.8777 31.1453 15.8777 28.1758C15.8777 20.8793 32.888 16.9766 48.8674 16.9766C64.8468 16.9766 81.8571 20.9217 81.8571 28.1758C81.8571 31.1028 79.022 33.733 73.6096 35.7692C73.4808 35.8116 73.309 35.854 73.1371 35.854ZM48.8674 19.5643C30.955 19.5643 18.455 24.1458 18.455 28.2182C18.455 29.8302 20.6887 31.6967 24.4688 33.1815C30.1818 30.0847 39.2454 28.2182 48.8674 28.2182C58.4894 28.2182 67.5529 30.0423 73.266 33.1815C77.0461 31.6967 79.2797 29.8302 79.2797 28.2182C79.2797 24.1458 66.7798 19.5643 48.8674 19.5643Z" fill="#3E3A39"/>
<path d="M24.5547 34.5818C30.3537 36.7453 39.0736 38.1451 48.8244 38.1451C58.5753 38.1451 67.2952 36.7453 73.0942 34.5818C67.8107 31.5274 58.9189 29.4912 48.8244 29.4912C38.7299 29.4912 29.8382 31.485 24.5547 34.5818Z" fill="#D58A68"/>
<path d="M48.8675 39.4174C39.3314 39.4174 30.3108 38.1024 24.1252 35.7692C23.6527 35.5995 23.352 35.1753 23.3091 34.6662C23.2661 34.1572 23.5239 33.6905 23.9534 33.436C29.6235 30.1271 38.9448 28.1758 48.9105 28.1758C58.8761 28.1758 68.1974 30.1271 73.8675 33.436C74.2971 33.6905 74.5548 34.1572 74.5118 34.6662C74.5118 35.1753 74.1252 35.5995 73.6957 35.7692C67.5101 38.0599 58.4895 39.4174 48.9534 39.4174H48.8675ZM27.9483 34.3268C33.6184 35.9389 41.0496 36.8297 48.8675 36.8297C56.6854 36.8297 64.0737 35.9389 69.7868 34.3268C64.4603 32.0785 56.9002 30.7635 48.8675 30.7635C40.8349 30.7635 33.3177 32.0785 27.9483 34.3268Z" fill="#3E3A39"/>
<path d="M47.9655 24.4004C47.6218 24.4004 47.2352 24.2307 46.9775 23.9762C46.505 23.4671 46.5479 22.6187 47.1064 22.1945C47.1064 22.1945 49.0823 20.4552 49.1682 18.0372C49.2112 16.51 48.4809 14.9404 47.0204 13.4557C44.8297 11.2498 43.8847 8.95904 44.1424 6.62587C44.615 2.85038 48.2232 0.517218 48.395 0.432376C48.9964 0.0505847 49.8125 0.22027 50.1991 0.814168C50.5857 1.40806 50.4139 2.21408 49.8125 2.59587C49.8125 2.59587 47.0634 4.37756 46.7627 6.92284C46.5909 8.45 47.3211 10.0196 48.9105 11.6316C50.9294 13.6678 51.9174 15.8737 51.7885 18.1645C51.6167 21.6854 48.9534 24.0186 48.8246 24.1034C48.5668 24.3155 48.2662 24.4004 47.9655 24.4004Z" fill="#3E3A39"/>
<path d="M59.0048 24.4004C58.6611 24.4004 58.2745 24.2307 58.0168 23.9762C57.5443 23.4671 57.5872 22.6611 58.1457 22.1945C58.1457 22.1945 60.1216 20.4552 60.2075 18.0372C60.2505 16.51 59.5632 14.9404 58.0598 13.4557C55.869 11.2498 54.924 8.95904 55.1817 6.62587C55.6543 2.85038 59.2625 0.517218 59.4343 0.432376C60.0357 0.0505847 60.8519 0.22027 61.2385 0.814168C61.6251 1.40806 61.4532 2.21408 60.8519 2.59587C60.8519 2.59587 58.1027 4.37756 57.802 6.92284C57.6302 8.45 58.3604 10.0196 59.9498 11.6316C61.9687 13.6678 62.9137 15.8737 62.8278 18.1645C62.656 21.6854 59.9927 24.0186 59.8639 24.1034C59.6061 24.3155 59.3055 24.4004 59.0048 24.4004Z" fill="#3E3A39"/>
<path d="M36.9689 24.4004C36.6252 24.4004 36.2386 24.2307 35.9809 23.9762C35.5084 23.4671 35.5514 22.6187 36.1098 22.1945C36.1098 22.1945 38.0857 20.4552 38.1716 18.0372C38.2146 16.51 37.4843 14.9404 36.0239 13.4557C33.8331 11.2498 32.8881 8.95904 33.1459 6.62587C33.6184 2.85038 37.2266 0.517218 37.3984 0.432376C37.9998 0.0505847 38.816 0.22027 39.2026 0.814168C39.5892 1.40806 39.4173 2.21408 38.816 2.59587C38.816 2.59587 36.0668 4.37756 35.7661 6.92284C35.5943 8.45 36.3246 10.0196 37.9139 11.6316C39.9328 13.6678 40.9208 15.8737 40.7919 18.1645C40.6201 21.6854 37.9569 24.0186 37.828 24.1034C37.5703 24.3155 37.2696 24.4004 36.9689 24.4004Z" fill="#3E3A39"/>
<path d="M89.761 68.2642C87.7421 70.8095 83.1458 70.5974 78.6785 67.1613C74.2111 63.7252 72.9225 59.3558 74.9414 56.8105C76.9603 54.2652 81.5565 54.4774 86.0238 57.9135C90.4912 61.3496 91.7799 65.719 89.761 68.2642Z" fill="#D58A68"/>
<path d="M85.8089 71.2331C85.5512 71.2331 85.2934 71.2331 85.0357 71.2331C82.7161 71.021 80.2247 69.9605 77.9051 68.1363C75.5426 66.3122 73.9103 64.2336 73.18 62.0277C72.4068 59.737 72.6646 57.6159 73.9532 56.0039C75.2419 54.3919 77.2608 53.6283 79.7093 53.8404C82.0288 54.0525 84.5202 55.113 86.8398 56.9371C89.2024 58.7613 90.8347 60.8399 91.5649 63.0458C92.3381 65.3366 92.0804 67.4576 90.7917 69.0696C89.6319 70.5119 87.9137 71.2755 85.8089 71.2755V71.2331ZM78.9361 56.3432C77.6474 56.3432 76.6165 56.7675 75.9721 57.5735C75.2419 58.4643 75.113 59.7794 75.6285 61.2217C76.2299 62.9185 77.6044 64.6578 79.4945 66.1425C81.4275 67.6273 83.4464 68.5182 85.2505 68.6878C86.7539 68.8151 88.0426 68.3909 88.7299 67.5C89.4601 66.6092 89.589 65.2941 89.0735 63.8518C88.4721 62.155 87.0976 60.4157 85.2075 58.9309C83.2745 57.4462 81.2556 56.5554 79.4515 56.3857C79.2797 56.3857 79.1079 56.3857 78.9361 56.3857V56.3432Z" fill="#3E3A39"/>
<path d="M74.9414 56.7676C74.9414 56.7676 83.4466 62.0702 85.4225 64.6579L74.9414 56.7676Z" fill="#FBDACF"/>
<path d="M85.4223 65.9727C85.0357 65.9727 84.6491 65.8031 84.3914 65.4637C82.8879 63.5123 76.5735 59.3126 74.2539 57.8703C73.6525 57.4885 73.4807 56.6825 73.8673 56.0886C74.2539 55.4947 75.0701 55.325 75.6714 55.7068C76.5735 56.2583 84.4343 61.2215 86.4962 63.8941C86.9257 64.4456 86.7969 65.2516 86.2385 65.6758C86.0237 65.8455 85.723 65.9303 85.4653 65.9303L85.4223 65.9727Z" fill="#3E3A39"/>
<path d="M77.5615 65.1674C79.3227 67.8823 77.6474 72.1244 72.8794 75.1363C68.1113 78.1907 63.5151 77.9786 61.7539 75.2636C59.9498 72.5486 61.668 68.3065 66.4361 65.2946C71.1611 62.2403 75.8003 62.4524 77.5615 65.1674Z" fill="#D58A68"/>
<path d="M66.2643 78.6567C63.8158 78.6567 61.8399 77.681 60.723 75.9841C59.8639 74.7115 59.6062 73.1419 59.9928 71.4875C60.5512 68.8573 62.656 66.2272 65.7917 64.2334C68.2832 62.6639 70.8175 61.8154 73.1371 61.8154C75.5856 61.8154 77.5615 62.7911 78.6783 64.488C79.7952 66.2272 79.8811 68.3483 78.8931 70.5542C77.9481 72.6753 76.144 74.6266 73.6096 76.1962C71.1182 77.8082 68.5838 78.6142 66.2643 78.6142V78.6567ZM73.0942 64.3607C71.29 64.3607 69.1852 65.0819 67.1663 66.3969C64.6319 68.0089 62.9137 70.0876 62.4842 72.0389C62.2694 73.0146 62.3983 73.8631 62.8708 74.5842C63.5151 75.5599 64.7179 76.069 66.2643 76.1114C68.0684 76.1114 70.1732 75.3902 72.1921 74.0752C74.2539 72.7601 75.7574 71.1481 76.4876 69.5361C77.089 68.1362 77.089 66.8636 76.4876 65.8879C75.8433 64.9122 74.6405 64.4031 73.0942 64.3607Z" fill="#3E3A39"/>
<path d="M61.7539 75.3063C61.7539 75.3063 69.6147 69.1128 72.7505 68.0947L61.7539 75.3063Z" fill="#FBDACF"/>
<path d="M61.754 76.5786C61.3674 76.5786 60.9808 76.4089 60.7231 76.112C60.2935 75.5605 60.3794 74.7545 60.9379 74.3302C61.754 73.6939 69.0564 67.9671 72.321 66.9065C73.0083 66.6944 73.7385 67.0338 73.9533 67.7125C74.1681 68.3913 73.8245 69.1124 73.1372 69.3245C70.7746 70.0881 64.7179 74.6272 62.5702 76.3241C62.3124 76.4937 62.0547 76.621 61.754 76.621V76.5786Z" fill="#3E3A39"/>
</svg>
