<svg width="100" height="55" viewBox="0 0 100 55" fill="none" xmlns="http://www.w3.org/2000/svg">
<path d="M53.9409 4.07034C56.5182 3.94308 64.6368 3.00981 67.1282 3.60371C68.8464 3.9855 70.5217 3.09465 72.1969 2.50076C73.7863 1.90686 75.4186 1.56749 77.0938 1.44023C79.0698 1.31296 81.3894 1.82202 82.2485 3.77339C82.9787 5.47024 82.2055 7.54888 80.8739 8.73668C79.5423 9.88205 77.8241 10.3487 76.1059 10.6881C74.4306 11.0274 72.6694 11.282 71.209 12.1728C69.3189 13.3182 67.7296 15.4817 65.5818 15.3544" fill="#F5AB6E"/>
<path d="M65.7966 16.6701C65.7966 16.6701 65.6248 16.6701 65.5389 16.6701C64.8087 16.6276 64.2073 15.9913 64.2932 15.2702C64.2932 14.549 64.8087 13.9551 65.7107 13.9975C66.4839 13.9975 67.6437 13.2339 68.6747 12.3855C69.276 11.8765 69.8774 11.4098 70.5217 10.9856C72.1111 10.0523 73.7863 9.71297 75.4186 9.41602L75.8911 9.33118C77.3516 9.03423 78.898 8.69486 80.0149 7.71917C80.9169 6.91317 81.5613 5.42842 81.0458 4.28305C80.3585 2.71347 77.953 2.71347 77.2228 2.75589C75.6764 2.84073 74.1729 3.1801 72.7125 3.73158L71.9393 4.02852C70.4358 4.62242 68.7176 5.30116 66.8705 4.87695C65.1953 4.49516 59.9547 4.91937 56.819 5.1739C55.6592 5.25874 54.6712 5.34358 54.0269 5.386C54.0269 5.386 53.9839 5.386 53.941 5.386C53.2107 5.386 52.6094 4.83453 52.5664 4.11337C52.5664 3.3922 53.0819 2.75589 53.8551 2.71347C54.4994 2.71347 55.4444 2.5862 56.5613 2.50136C61.2004 2.11957 65.496 1.82262 67.4719 2.24683C68.5028 2.50136 69.6626 1.9923 70.8654 1.52567L71.7245 1.1863C73.4427 0.549982 75.2468 0.168191 77.0509 0.0409275C80.1437 -0.128757 82.5922 1.01662 83.4942 3.13768C84.5252 5.51327 83.4083 8.1858 81.776 9.62813C80.1437 11.028 78.1678 11.5371 76.4066 11.8765L75.9341 11.9613C74.4736 12.2582 73.0991 12.5128 71.9393 13.1915C71.4238 13.5309 70.9083 13.9551 70.3929 14.3793C69.1042 15.4398 67.6867 16.5852 65.7966 16.5852V16.6701Z" fill="#3E3A39"/>
<path d="M95.6934 32.8748C95.6934 44.3286 74.5594 53.6188 48.5285 53.6188C22.4976 53.6188 1.40649 44.3286 1.40649 32.8748C1.40649 21.4211 22.4976 12.1309 48.5285 12.1309C74.5594 12.1309 95.6934 21.4211 95.6934 32.8748Z" fill="#FFFCD5"/>
<path d="M48.5285 54.9759C21.3378 54.9759 0.0319824 45.2615 0.0319824 32.8745C0.0319824 20.4875 21.3378 10.8154 48.5285 10.8154C75.7193 10.8154 97.0251 20.5299 97.0251 32.8745C97.0251 45.219 75.7193 54.9335 48.5285 54.9335V54.9759ZM48.5285 13.488C23.7004 13.488 2.73817 22.354 2.73817 32.8745C2.73817 43.3949 23.7004 52.261 48.5285 52.261C73.3567 52.261 94.3189 43.3949 94.3189 32.8745C94.3189 22.354 73.3567 13.488 48.5285 13.488Z" fill="#3E3A39"/>
<path d="M17.9444 35.2083C17.9444 35.2083 7.89282 28.1663 18.8894 16.4157C23.142 11.8766 27.1368 8.65258 32.8928 6.61636C37.9615 4.83467 44.7914 3.94382 49.1729 3.64687C53.4255 3.34992 59.3533 2.37424 63.7777 3.68929C72.5835 6.31941 79.3275 13.4038 82.3344 20.0639C86.8018 30.1177 81.776 36.2264 71.4238 40.1716C67.386 41.6987 61.6299 40.6382 56.1746 41.2745C50.8052 41.9108 44.6196 45.2197 39.2502 44.8379C28.9839 44.1167 21.0801 40.4261 17.9444 35.2083Z" fill="#F5AB6E"/>
<path d="M40.1093 46.1952C39.7657 46.1952 39.465 46.1952 39.1214 46.1952C28.6403 45.4316 20.3499 41.6985 16.9135 36.1413C16.0114 35.4202 12.9186 32.7052 12.4461 28.2086C12.0166 24.1361 13.8636 19.8516 17.9014 15.5246C21.5526 11.6219 25.8052 7.71911 32.4203 5.34352C38.3052 3.26488 45.9942 2.5013 49.044 2.2892C49.8172 2.24677 50.6763 2.16193 51.5355 2.07709C55.4444 1.6953 60.2983 1.22866 64.1643 2.41646C74.1729 5.42837 80.8739 13.5308 83.5372 19.5546C85.5561 24.0513 85.8138 28.0813 84.3963 31.5174C82.6781 35.6323 78.5973 38.8987 71.8963 41.444C69.233 42.4621 66.0114 42.4621 62.6609 42.4197C60.5561 42.4197 58.4083 42.4197 56.3035 42.6318C54.1987 42.8863 51.965 43.5651 49.5595 44.2862C46.4238 45.2619 43.2021 46.2376 40.1093 46.2376V46.1952ZM58.1506 4.32542C56.0458 4.32542 53.855 4.53752 51.7932 4.74963C50.8911 4.83447 50.032 4.91931 49.2159 4.96173C46.2949 5.17384 38.8636 5.895 33.3224 7.8888C27.5664 9.92502 23.7863 13.149 19.8774 17.3487C16.398 21.0818 14.8087 24.6452 15.1093 27.9116C15.4959 31.8568 18.6746 34.1475 18.7176 34.1475C18.8894 34.2748 19.0183 34.4021 19.1042 34.5718C21.9822 39.4078 29.7571 42.8439 39.3361 43.5226C42.2141 43.7347 45.5647 42.7166 48.7863 41.7409C51.1918 41.0198 53.6403 40.2562 56.0028 40.0017C58.2794 39.7471 60.5131 39.7471 62.7038 39.7896C65.7966 39.7896 68.7605 39.832 70.9513 38.9836C76.8791 36.7352 80.4873 33.9354 81.9049 30.5417C83.0647 27.7419 82.8069 24.5179 81.0887 20.6576C78.6403 15.1428 72.5406 7.76154 63.3911 5.00415C61.8018 4.53752 60.0406 4.36784 58.1935 4.36784L58.1506 4.32542Z" fill="#3E3A39"/>
<path d="M41.1404 13.5731C40.6679 13.5731 40.1953 13.2337 40.0665 12.7671C39.9376 12.1732 40.2813 11.6217 40.8826 11.4944L42.9015 11.0278C43.5029 10.8581 44.0613 11.2399 44.1902 11.8338C44.3191 12.4277 43.9754 12.9792 43.374 13.1064L41.3551 13.5731C41.3551 13.5731 41.1833 13.5731 41.0974 13.5731H41.1404Z" fill="#DA8026"/>
<path d="M36.9736 28.8023C36.5011 28.8023 36.0286 28.463 35.8997 27.9963C35.7709 27.4024 36.1145 26.851 36.7159 26.7237L38.7348 26.2571C39.3362 26.1298 39.8946 26.4692 40.0234 27.0631C40.1523 27.657 39.8087 28.2084 39.2073 28.3357L37.1884 28.8023C37.1884 28.8023 37.0166 28.8023 36.9307 28.8023H36.9736Z" fill="#DA8026"/>
<path d="M35.5129 37.1588C35.0404 37.1588 34.5679 36.8194 34.439 36.3528C34.3102 35.7589 34.6538 35.2074 35.2552 35.0801L37.2741 34.6135C37.8755 34.4862 38.4339 34.8256 38.5628 35.4195C38.6916 36.0134 38.348 36.5649 37.7466 36.6921L35.7277 37.1588C35.7277 37.1588 35.5559 37.1588 35.47 37.1588H35.5129Z" fill="#DA8026"/>
<path d="M46.7673 18.1969C46.2948 18.1969 45.8223 17.8575 45.6934 17.3909C45.5646 16.797 45.9082 16.2455 46.5096 16.1182L48.5285 15.6516C49.1299 15.5243 49.6883 15.8637 49.8171 16.4576C49.946 17.0515 49.6024 17.603 49.001 17.7302L46.9821 18.1969C46.9821 18.1969 46.8103 18.1969 46.7244 18.1969H46.7673Z" fill="#DA8026"/>
<path d="M52.008 10.9852C51.5355 10.9852 51.063 10.6458 50.9342 10.1792C50.8053 9.58528 51.1489 9.0338 51.7503 8.90654L53.7692 8.4399C54.3706 8.27022 54.929 8.65201 55.0579 9.24591C55.1867 9.83981 54.8431 10.3913 54.2417 10.5185L52.2228 10.9852C52.2228 10.9852 52.051 10.9852 51.9651 10.9852H52.008Z" fill="#DA8026"/>
<path d="M27.781 17.3482C27.3085 17.3482 26.836 17.0089 26.7071 16.5422C26.5782 15.9483 26.9219 15.3969 27.5233 15.2696L29.5422 14.803C30.1435 14.6757 30.702 15.0151 30.8308 15.609C30.9597 16.2029 30.616 16.7543 30.0147 16.8816L27.9958 17.3482C27.9958 17.3482 27.8239 17.3482 27.738 17.3482H27.781Z" fill="#DA8026"/>
<path d="M23.6145 32.3231C23.142 32.3231 22.6695 31.9837 22.5406 31.5171C22.4117 30.9232 22.7554 30.3717 23.3568 30.2444L25.3757 29.7778C25.977 29.6081 26.5354 29.9899 26.6643 30.5838C26.7932 31.1777 26.4495 31.7292 25.8482 31.8564L23.8293 32.3231C23.8293 32.3231 23.6574 32.3231 23.5715 32.3231H23.6145Z" fill="#DA8026"/>
<path d="M51.02 25.7477C50.5475 25.7477 50.075 25.4083 49.9461 24.9416C49.8173 24.3478 50.1609 23.7963 50.7623 23.669L52.7812 23.2024C53.3825 23.0751 53.941 23.4145 54.0698 24.0084C54.1987 24.6023 53.8551 25.1538 53.2537 25.281L51.2348 25.7477C51.2348 25.7477 51.063 25.7477 50.977 25.7477H51.02Z" fill="#DA8026"/>
<path d="M62.0163 14.8883C61.5438 14.8883 61.0713 14.5489 60.9425 14.0823C60.8136 13.4884 61.1572 12.9369 61.7586 12.8096L63.7775 12.343C64.3789 12.2157 64.9373 12.5551 65.0662 13.149C65.195 13.7429 64.8514 14.2944 64.25 14.4216L62.2311 14.8883C62.2311 14.8883 62.0593 14.8883 61.9734 14.8883H62.0163Z" fill="#DA8026"/>
<path d="M66.8703 21.1668C66.3978 21.1668 65.9253 20.8275 65.7965 20.3608C65.6676 19.7669 66.0112 19.2154 66.6126 19.0882L68.6315 18.6215C69.2329 18.4519 69.7913 18.8337 69.9202 19.4275C70.049 20.0214 69.7054 20.5729 69.104 20.7002L67.0851 21.1668C67.0851 21.1668 66.9133 21.1668 66.8274 21.1668H66.8703Z" fill="#DA8026"/>
<path d="M63.477 35.5475C63.0045 35.5475 62.532 35.2081 62.4032 34.7415C62.2743 34.1476 62.6179 33.5961 63.2193 33.4688L65.2382 33.0022C65.8396 32.8749 66.398 33.2143 66.5269 33.8082C66.6557 34.4021 66.3121 34.9536 65.7107 35.0808L63.6918 35.5475C63.6918 35.5475 63.52 35.5475 63.4341 35.5475H63.477Z" fill="#DA8026"/>
<path d="M22.154 24.6871C21.6815 24.6871 21.209 24.3477 21.0802 23.8811C20.9513 23.2872 21.2949 22.7357 21.8963 22.6085L23.9152 22.1418C24.5166 22.0146 25.075 22.3539 25.2039 22.9478C25.3327 23.5417 24.9891 24.0932 24.3877 24.2205L22.3688 24.6871C22.3688 24.6871 22.197 24.6871 22.1111 24.6871H22.154Z" fill="#DA8026"/>
<path d="M15.4959 25.4512C14.0784 26.6814 14.2072 28.9721 12.9186 30.2872C12.532 30.7114 12.0165 31.0084 11.6299 31.4326C11.2433 31.8568 11.0285 32.3658 10.8138 32.9173C10.4701 33.9778 10.3842 35.2081 11.0285 36.0989C11.544 36.8201 12.4031 37.1594 13.2622 37.3291C15.9254 37.923 18.8035 37.0322 21.4667 37.7109" fill="#F5AB6E"/>
<path d="M21.4237 39.0255C21.4237 39.0255 21.209 39.0255 21.0801 38.9831C19.9203 38.6861 18.5887 38.7285 17.2571 38.8134C15.8395 38.8982 14.422 38.9406 12.9615 38.6437C11.587 38.3467 10.556 37.7528 9.9117 36.862C9.09555 35.759 8.96668 34.1895 9.5251 32.4926C9.78283 31.6866 10.1694 31.0503 10.599 30.5412C10.8567 30.2443 11.1574 30.0322 11.4581 29.7776C11.6299 29.6504 11.8017 29.5231 11.9306 29.3534C12.3172 28.9292 12.5749 28.2505 12.8327 27.4869C13.1763 26.4688 13.6059 25.281 14.5938 24.3901C15.1522 23.9235 16.0114 23.9659 16.5268 24.5174C16.9993 25.0689 16.9564 25.9173 16.398 26.4264C15.9254 26.8082 15.6677 27.5293 15.41 28.3353C15.0663 29.2686 14.7227 30.3291 13.9065 31.1775C13.6488 31.4321 13.3911 31.6442 13.1333 31.8563C12.9615 31.9835 12.7468 32.1532 12.6179 32.3229C12.4461 32.535 12.2742 32.8744 12.1024 33.2986C11.8447 34.1046 11.8447 34.8682 12.1024 35.25C12.3172 35.5894 12.8327 35.8439 13.5199 35.9711C14.6368 36.2257 15.8395 36.1408 17.1282 36.0984C18.6316 36.0136 20.178 35.9711 21.7674 36.3529C22.4976 36.5226 22.9272 37.2862 22.7124 38.0074C22.5406 38.6013 21.9821 38.9831 21.4237 38.9831V39.0255Z" fill="#3E3A39"/>
<path d="M79.2847 18.2813C81.862 18.154 80.7451 17.9419 83.2795 18.5358C84.9977 18.9176 86.673 18.0267 88.3482 17.3904C89.9376 16.7965 91.5699 16.4571 93.2451 16.3299C95.2211 16.2026 97.5407 16.7117 98.3998 18.663C99.13 20.3599 98.3568 22.4385 97.0252 23.6263C95.6936 24.8141 93.9324 25.2383 92.2572 25.5777C90.5819 25.9171 88.8207 26.1716 87.3603 27.0624C85.4702 28.2078 84.2675 31.5591 81.2177 32.7045" fill="#F5AB6E"/>
<path d="M81.2177 33.9778C80.6593 33.9778 80.1438 33.6384 79.972 33.1294C79.7143 32.4507 80.0579 31.6871 80.7452 31.3901C82.2057 30.8386 83.1937 29.566 84.1816 28.3782C84.9548 27.4025 85.6851 26.4693 86.673 25.8754C88.2194 24.9421 89.8947 24.6027 91.527 24.3058L91.9995 24.2209C93.46 23.924 95.0064 23.5846 96.1232 22.6089C97.0253 21.8029 97.6696 20.3182 97.1541 19.2152C96.4669 17.6456 94.0614 17.6881 93.3311 17.6881C91.7847 17.7729 90.2813 18.1123 88.8208 18.6638L88.0047 18.9607C86.5012 19.5546 84.826 20.2758 82.9359 19.8091L82.5493 19.7243C81.3466 19.4273 81.3466 19.4273 80.8741 19.5122C80.5734 19.5122 80.1009 19.597 79.3277 19.6394C78.3827 19.6394 77.9531 19.1304 77.9102 18.3668C77.9102 17.6456 78.4256 17.0093 79.1988 16.9669C79.8861 16.9669 80.3157 16.8821 80.5734 16.8396C81.5184 16.7548 81.6902 16.7972 83.1507 17.1366L83.5373 17.2214C84.5253 17.4335 85.728 16.9669 86.9308 16.5003L87.7899 16.1609C89.5081 15.5246 91.2693 15.1428 93.1163 15.0155C96.2091 14.8458 98.6576 15.9912 99.6026 18.1547C100.634 20.4879 99.5167 23.2028 97.8844 24.6451C96.2521 26.045 94.2761 26.5541 92.515 26.8935L91.9995 26.9783C90.539 27.2328 89.1645 27.5298 88.0476 28.2085C87.4892 28.5479 86.8878 29.2691 86.2864 30.0751C85.2126 31.4325 83.838 33.1294 81.6902 33.9354C81.5184 33.9778 81.3466 34.0202 81.2177 34.0202V33.9778Z" fill="#3E3A39"/>
</svg>
