<svg width="91" height="71" viewBox="0 0 91 71" fill="none" xmlns="http://www.w3.org/2000/svg">
<path d="M72.6149 37.6844C72.6149 55.4589 67.0308 69.8821 45.9826 69.8821C24.9345 69.8821 19.3503 55.4589 19.3503 37.6844C19.3503 19.9099 72.6149 19.9099 72.6149 37.6844Z" fill="#FCC91D"/>
<path d="M45.9828 70.9851C27.2972 70.9851 18.2336 60.0828 18.2336 37.6844C18.2336 27.7578 32.6237 23.2188 45.9828 23.2188C59.3419 23.2188 73.7319 27.7578 73.7319 37.6844C73.7319 60.0828 64.6684 70.9851 45.9828 70.9851ZM45.9828 25.4247C33.311 25.4247 20.4673 29.6243 20.4673 37.642C20.4673 58.8526 28.5859 68.7367 45.9828 68.7367C63.3797 68.7367 71.4982 58.8526 71.4982 37.642C71.4982 33.018 67.3316 30.2182 63.8522 28.6487C59.1701 26.57 52.8127 25.4247 46.0257 25.4247H45.9828Z" fill="#3E3A39"/>
<path d="M84.2988 29.4125C84.2988 48.5444 67.1596 64.0706 45.9827 64.0706C24.8057 64.0706 7.70947 48.5444 7.70947 29.4125C7.70947 10.2805 84.2988 10.2805 84.2988 29.4125Z" fill="#FCC91D"/>
<path d="M45.9828 65.1736C24.2474 65.1736 6.5498 49.1383 6.5498 29.4125C6.5498 18.7223 26.3522 13.9287 45.9828 13.9287C65.6134 13.9287 85.4158 18.7223 85.4158 29.4125C85.4158 49.1383 67.7182 65.1736 45.9828 65.1736ZM45.9828 16.177C27.512 16.177 8.82644 20.7161 8.82644 29.4125C8.82644 47.9081 25.4931 62.9677 45.9828 62.9677C66.4725 62.9677 83.1391 47.9081 83.1391 29.4125C83.1391 24.4492 77.0395 21.3949 71.9278 19.698C65.0979 17.4073 55.8625 16.177 45.9828 16.177Z" fill="#3E3A39"/>
<path d="M89.8403 26.7402C89.8403 40.8664 70.2097 52.3202 45.9829 52.3202C21.7561 52.3202 2.12549 40.8664 2.12549 26.7402C2.12549 12.6139 21.7561 1.16016 45.9829 1.16016C70.2097 1.16016 89.8403 12.6139 89.8403 26.7402Z" fill="#FFFCD5"/>
<path d="M45.9828 53.4654C21.1546 53.4654 0.965576 41.4602 0.965576 26.74C0.965576 12.0199 21.1546 0.0146484 45.9828 0.0146484C70.8109 0.0146484 90.9999 12.0199 90.9999 26.74C90.9999 41.4602 70.8109 53.4654 45.9828 53.4654ZM45.9828 2.34782C22.4432 2.34782 3.28516 13.2925 3.28516 26.74C3.28516 40.1876 22.4432 51.1322 45.9828 51.1322C69.5223 51.1322 88.6804 40.1876 88.6804 26.74C88.6804 13.2925 69.5223 2.34782 45.9828 2.34782Z" fill="#3E3A39"/>
<path d="M77.5978 25.3826C70.3383 18.4679 62.1768 21.7768 62.1768 21.7768C62.1768 21.7768 52.2112 11.5108 39.7971 14.2682C27.383 17.0256 26.4809 21.7768 26.4809 21.7768C26.4809 21.7768 15.4844 22.7525 11.6613 31.1943C9.3847 36.2 11.017 40.1027 11.8332 41.5875C15.2696 44.1752 25.2352 44.3024 24.1184 38.7028C22.7438 31.873 30.3899 36.3697 33.5256 34.5032C37.2198 32.2972 40.5703 28.7763 44.7799 28.7763C49.7627 28.7763 52.5978 33.485 57.194 35.8606C60.7593 37.7272 67.761 31.4912 69.3074 38.8301C70.4672 44.1752 78.3709 42.8177 81.4637 40.0603C82.8812 35.6061 80.8624 28.4369 77.6407 25.3826" fill="#FBD29F"/>
<path d="M11.3609 43.4965C11.0172 43.4965 10.6736 43.3692 10.4588 43.0723C10.287 42.8602 6.46398 37.9817 9.72858 30.6429C13.3368 22.4131 22.5722 20.4618 25.2784 20.0376C26.0946 18.2983 29.0585 14.438 39.6255 12.0199C51.3952 9.30498 60.9743 17.4923 63.3368 19.783C65.6994 19.0619 73.0877 17.5347 79.8317 24.11C83.6976 27.8855 85.9313 36.5818 82.8815 41.7148C82.5378 42.2663 81.8506 42.436 81.2922 42.139C80.7337 41.7997 80.5619 41.1209 80.8626 40.5694C83.0533 36.8364 81.6787 29.2005 78.1994 25.7644C71.3695 19.0619 63.8523 22.0738 63.5087 22.201C63.0791 22.3707 62.5207 22.2859 62.22 21.9041C62.1341 21.8192 52.2114 11.5533 40.1839 14.2683C28.5001 16.9408 27.2973 21.3102 27.2973 21.3526C27.1684 21.8192 26.7818 22.201 26.2664 22.2859C26.1375 22.2859 15.5276 23.3888 11.8764 31.6186C9.21312 37.6848 12.177 41.5451 12.3059 41.7148C12.6925 42.2239 12.6066 42.945 12.1341 43.3268C11.9193 43.4965 11.6616 43.5813 11.4038 43.5813L11.3609 43.4965Z" fill="#3E3A39"/>
<path d="M40.5273 22.7102L57.0222 17.2803L60.3727 21.5224L43.8349 26.2736L40.5273 22.7102Z" fill="#69BA5C"/>
<path d="M43.835 27.3765C43.5343 27.3765 43.2337 27.2492 43.0189 27.0371L39.6684 23.5162C39.4106 23.2616 39.3247 22.8374 39.4106 22.4981C39.4965 22.1163 39.7972 21.8193 40.1409 21.7345L56.6357 16.3046C57.1082 16.1773 57.5807 16.3046 57.8814 16.6864L61.2319 20.9285C61.4467 21.2254 61.5326 21.6072 61.4038 21.9466C61.2749 22.286 61.0172 22.5829 60.6306 22.6677L44.1357 27.3765C44.1357 27.3765 43.9209 27.4189 43.835 27.4189V27.3765ZM42.5464 23.2192L44.2216 25.0009L58.4828 20.9285L56.6357 18.5953L42.5464 23.2192Z" fill="#3E3A39"/>
<path d="M27.8557 23.5585L41.3437 12.6562L45.9829 15.4561L32.2801 25.6796L27.8557 23.5585Z" fill="#FFFCD5"/>
<path d="M32.2799 26.8247C32.2799 26.8247 31.9363 26.8248 31.7645 26.6975L27.3401 24.5764C26.9964 24.4067 26.7387 24.0674 26.6957 23.6856C26.6528 23.3038 26.8246 22.922 27.1253 22.6675L40.5703 11.8076C40.9569 11.5107 41.4724 11.4683 41.9019 11.7228L46.5841 14.5226C46.9277 14.7347 47.1425 15.0741 47.1425 15.4559C47.1425 15.8376 46.9707 16.2194 46.67 16.4315L32.9672 26.6551C32.9672 26.6551 32.4947 26.9096 32.2799 26.9096V26.8247ZM30.0463 23.3038L32.1511 24.3219L43.9208 15.5407L41.4294 14.056L30.0463 23.2614V23.3038Z" fill="#3E3A39"/>
<path d="M71.3694 26.4854C71.3694 26.4854 79.0155 31.1941 79.0155 33.3576C79.0155 35.5211 79.2732 38.3209 76.8677 36.6664C74.4622 35.012 69.9519 29.5821 69.9519 29.5821" fill="#69BA5C"/>
<path d="M78.0703 38.2785C77.5118 38.2785 76.9105 38.0664 76.2232 37.5997C73.7318 35.9029 69.2644 30.5154 69.0496 30.3033C68.663 29.8367 68.706 29.1155 69.2215 28.7337C69.694 28.3519 70.4242 28.3943 70.8108 28.9034C70.8108 28.9458 75.2782 34.2485 77.5118 35.7756C77.6407 35.8605 77.7266 35.9029 77.8125 35.9453C77.8984 35.4363 77.8984 34.503 77.8984 33.9091V33.3576C77.7696 32.4668 74.462 29.7094 70.7679 27.4611C70.2524 27.1217 70.0806 26.443 70.4242 25.9339C70.7679 25.4248 71.4551 25.2552 71.9706 25.5945C74.4191 27.1217 80.1321 30.8972 80.1321 33.4V33.9515C80.1321 35.6908 80.1321 37.4725 78.8864 38.1088C78.6287 38.2361 78.328 38.3209 78.0273 38.3209L78.0703 38.2785Z" fill="#3E3A39"/>
<path d="M72.5721 33.3575C72.5721 33.3575 71.6271 44.0052 68.4914 44.0052C65.3556 44.0052 68.4914 34.0786 67.2886 32.6787" fill="#FFF100"/>
<path d="M68.4913 45.108C67.8469 45.108 67.2456 44.8535 66.816 44.3868C65.5703 43.0294 65.871 40.1447 66.2146 37.0904C66.3435 35.7753 66.5583 33.7391 66.3865 33.2725C65.9999 32.8059 66.0858 32.1271 66.5583 31.7453C67.0308 31.3635 67.761 31.4484 68.1906 31.915C68.9208 32.8059 68.792 34.3754 68.4913 37.3025C68.3195 38.9569 67.9329 42.3506 68.4913 42.8597C69.5222 42.8597 70.9827 38.0661 71.4122 33.2301C71.4552 32.6362 72.0136 32.1271 72.615 32.212C73.2164 32.2544 73.6889 32.8058 73.6459 33.3997C73.3452 36.8783 72.1854 45.0232 68.4483 45.0232L68.4913 45.108Z" fill="#3E3A39"/>
<path d="M67.4603 33.9943C67.4603 33.9943 64.5823 41.7998 61.2318 39.2121C57.8813 36.6244 62.4345 30.2188 62.4345 30.2188" fill="#FFF100"/>
<path d="M62.6495 40.8666C62.0481 40.8666 61.3178 40.6969 60.5447 40.103C56.4209 36.879 61.3178 29.9219 61.5326 29.6249C61.8763 29.1159 62.6065 28.9886 63.079 29.3704C63.5945 29.7098 63.7233 30.431 63.3367 30.94C62.3058 32.3823 59.8574 36.8366 61.9192 38.4061C62.3488 38.7455 62.6495 38.7455 62.8642 38.6607C64.1529 38.2789 65.6993 35.5215 66.3866 33.6974C66.6014 33.1035 67.2457 32.8065 67.8471 33.0186C68.4484 33.2308 68.7491 33.8671 68.5343 34.461C68.3196 35.0124 66.4295 39.9757 63.5086 40.7817C63.2508 40.8666 62.9501 40.909 62.6495 40.909V40.8666Z" fill="#3E3A39"/>
<path d="M56.2061 48.2896C56.2061 48.2896 55.9054 48.2896 55.7336 48.2048C55.1752 47.9502 54.9174 47.2715 55.1752 46.72C55.1752 46.6352 55.304 46.4655 55.0893 46.0837C54.7886 45.5747 54.1013 45.1929 53.4999 45.1929C52.6838 45.1929 51.6958 45.5322 50.7078 45.8716C50.1924 46.0837 49.6769 46.2534 49.1614 46.4231C47.1855 47.017 44.5652 46.72 43.4913 44.7687C42.9329 43.7505 43.0188 42.69 43.1047 41.7143C43.1047 41.2053 43.1906 40.7811 43.1047 40.3569C42.8899 38.7024 40.7851 37.6419 39.2387 37.8116C37.6064 37.9388 35.8453 38.8721 34.0841 40.6114L33.8693 40.8235C33.3968 41.2901 32.8384 41.8416 32.1082 42.2234C30.8625 42.9021 29.2731 42.8597 27.8985 42.0961C26.524 41.3325 25.6219 40.0599 25.536 38.66C25.4501 37.4298 25.8796 36.242 26.3092 35.2239C26.7387 34.1633 27.0824 33.2301 26.8247 32.4665C26.5669 31.7453 25.7508 31.2363 25.1494 30.9818C23.1305 30.0909 20.768 30.0909 18.7491 30.9818C16.7302 31.915 15.2267 33.6967 14.6253 35.8178C14.4535 36.4117 13.8522 36.751 13.2508 36.5814C12.6494 36.4117 12.3058 35.8178 12.4776 35.2239C13.2078 32.5089 15.2267 30.1333 17.804 28.9455C20.3814 27.7577 23.4741 27.7577 26.0944 28.9455C27.5549 29.6243 28.5429 30.6 28.9724 31.7453C29.5308 33.3149 28.9724 34.7573 28.457 36.0299C28.1133 36.9207 27.7697 37.7267 27.8556 38.4903C27.8556 39.1266 28.3711 39.7629 29.0583 40.1447C29.7456 40.5265 30.5188 40.569 31.1202 40.272C31.5497 40.0599 31.9363 39.6781 32.3659 39.2539L32.6236 39.0418C34.8144 36.9207 37.0051 35.7754 39.1958 35.6057C41.902 35.3936 45.0807 37.1753 45.4673 40.1023C45.5532 40.7386 45.4673 41.3325 45.4673 41.9264C45.4243 42.6476 45.3814 43.2839 45.5961 43.7506C46.0257 44.5566 47.4862 44.6414 48.646 44.3444C49.1185 44.2172 49.548 44.0475 50.0205 43.8778C51.1374 43.4536 52.3401 42.987 53.6717 43.0294C55.0034 43.0294 56.4209 43.8354 57.1082 44.9808C57.6666 45.8292 57.7525 46.8473 57.3229 47.6957C57.1511 48.1199 56.7216 48.332 56.292 48.332L56.2061 48.2896Z" fill="#3E3A39"/>
<path d="M53.3281 40.7395C52.8126 40.7395 52.3831 40.4001 52.2542 39.9335C52.0824 39.3396 52.426 38.7457 52.9845 38.576C52.7697 38.6184 52.7697 38.4063 52.6838 38.3639C52.2542 38.1518 51.5669 38.2367 50.8367 38.3639H50.4501C48.7319 38.7033 47.3573 38.2366 46.67 37.2185C45.8968 36.1156 46.1975 34.9278 46.4552 33.9521C46.5841 33.5279 46.67 33.1037 46.67 32.7643C46.67 32.2128 46.3693 31.7886 46.0686 31.5341C45.5102 30.9826 44.6941 30.6857 43.792 30.6857C42.2456 30.7281 40.7422 31.6189 39.1099 32.6795C38.4226 33.1037 37.6924 33.5703 36.7473 33.6976C35.6305 33.8673 34.2559 33.3582 33.7834 32.128C33.6116 31.7038 33.6116 31.2371 33.6116 30.8978C33.5686 28.5222 31.2061 26.8678 29.0583 26.5708C26.524 26.2314 23.8607 27.1647 21.4982 28.0131C20.9398 28.2252 20.2525 27.9283 20.0807 27.3344C19.8659 26.7405 20.1666 26.1042 20.768 25.9345C23.2164 25.0861 26.3092 23.9831 29.359 24.4073C32.4948 24.8315 35.8023 27.2496 35.8882 30.6433C35.8882 31.0675 35.8882 31.2796 35.8882 31.3644C35.8882 31.4492 36.146 31.5765 36.4466 31.5341C36.8762 31.4917 37.3487 31.1523 37.8642 30.8554C39.3676 29.8797 41.4295 28.5646 43.7491 28.5222C45.2525 28.4373 46.67 29.0312 47.658 30.0069C48.4741 30.8129 48.9466 31.7886 48.9037 32.8492C48.9037 33.4431 48.7319 34.0369 48.603 34.546C48.4312 35.2672 48.3023 35.7762 48.4741 36.0308C48.646 36.2853 49.2903 36.4125 50.0635 36.2853H50.4071C51.3521 36.0732 52.5549 35.9035 53.6717 36.455C54.5738 36.9216 55.1322 38.0245 55.0033 39.0427C54.9174 39.8911 54.359 40.5698 53.5429 40.7819C53.457 40.7819 53.3281 40.7819 53.2422 40.7819L53.3281 40.7395Z" fill="#3E3A39"/>
<path d="M42.2026 49.6897C42.2026 49.6897 41.859 49.6897 41.7301 49.5624C41.1717 49.3079 40.914 48.6292 41.2147 48.0777C41.2576 47.9504 41.2576 47.7383 41.2147 47.5686C41.1717 47.399 41.0428 47.2717 40.871 47.1868C40.7422 47.1444 40.5274 47.102 40.2697 47.0596C40.0978 47.0596 39.8831 47.0172 39.7112 46.9747C38.2937 46.6354 37.091 45.5748 36.5755 44.1749C36.103 42.8175 36.4037 41.2055 37.3057 40.1025C37.6923 39.6359 38.4226 39.551 38.8951 39.9328C39.3676 40.3146 39.4535 41.0358 39.0669 41.5024C38.6374 42.0539 38.5085 42.8175 38.7233 43.4962C38.938 44.1325 39.5394 44.684 40.2267 44.8537C40.3556 44.8537 40.4844 44.8961 40.6133 44.9385C40.9569 44.9809 41.3435 45.0658 41.7301 45.2355C42.4174 45.5324 42.9758 46.1263 43.2765 46.8899C43.5772 47.6535 43.5343 48.4595 43.1906 49.1382C43.0188 49.52 42.5892 49.7745 42.1597 49.7745L42.2026 49.6897Z" fill="#3E3A39"/>
<path d="M28.9725 48.2901C27.9416 48.2901 26.9106 48.0355 25.9656 47.5689C25.2354 47.1871 24.677 46.7205 24.3333 46.1266C23.646 44.9812 23.8608 43.751 23.9897 42.7329C23.9897 42.648 23.9897 42.5632 23.9897 42.5208C23.2165 42.4359 22.4862 42.3935 21.756 42.4359C20.6821 42.5208 19.4364 42.6056 18.4914 41.7572C17.6752 41.0785 17.3746 39.9331 17.5893 38.5756C17.8471 37.0909 18.6632 35.7334 19.823 34.7577C20.2955 34.3759 20.9828 34.4183 21.4124 34.885C21.799 35.3516 21.756 36.0728 21.2835 36.4546C20.5103 37.0909 19.9948 38.0241 19.823 38.9574C19.7371 39.4665 19.823 39.9331 19.9948 40.0604C20.2526 40.2725 20.8969 40.23 21.4553 40.1876C22.6581 40.1028 23.7319 40.1876 24.7629 40.3149C24.9777 40.3149 25.622 40.4421 26.0086 40.9936C26.3522 41.4178 26.3093 41.9693 26.2663 42.1814C26.2663 42.4784 26.2234 42.7329 26.1804 42.9874C26.0515 43.751 25.9656 44.4722 26.2234 44.9388C26.3522 45.1509 26.61 45.363 26.9536 45.5327C28.0275 46.0842 29.3591 46.169 30.4759 45.7024C30.9055 45.5327 31.335 45.2782 31.7646 45.0236C32.7955 44.4297 33.9553 43.7086 35.4158 43.8783C36.0172 43.9207 36.4897 44.4722 36.4467 45.1085C36.4038 45.7024 35.8883 46.169 35.201 46.1266C34.5137 46.0842 33.7405 46.5084 32.8814 46.975C32.366 47.272 31.8505 47.5689 31.335 47.781C30.5618 48.078 29.7027 48.2476 28.8866 48.2476L28.9725 48.2901Z" fill="#3E3A39"/>
<path d="M60.5017 44.1747C61.4897 44.0474 62.5206 44.5565 62.9931 45.4049C63.4656 46.2533 63.3368 47.3987 62.6495 48.1198" fill="white"/>
<path d="M62.6923 49.223C62.4346 49.223 62.1768 49.1381 61.9621 48.926C61.4896 48.5018 61.4466 47.8231 61.8761 47.3564C62.2198 46.9746 62.3057 46.3383 62.048 45.9141C61.7902 45.4899 61.2318 45.193 60.7164 45.2778C60.072 45.3626 59.5136 44.9384 59.4277 44.3445C59.3418 43.7506 59.7713 43.1567 60.3727 43.0719C61.8332 42.8598 63.3366 43.5809 64.0239 44.8536C64.7112 46.1262 64.5394 47.7807 63.5514 48.8412C63.3366 49.0957 63.0359 49.223 62.6923 49.223Z" fill="#3E3A39"/>
<path d="M37.2627 32.8066C36.6614 36.7942 29.9174 32.7218 30.9483 36.9215L37.2627 32.8066Z" fill="white"/>
<path d="M30.9485 38.0664C30.433 38.0664 29.9605 37.7271 29.8746 37.218C29.6169 36.1151 29.7028 35.3091 30.2183 34.6728C30.9915 33.6971 32.3231 33.6971 33.5688 33.6971C35.5877 33.6971 36.0172 33.5274 36.1461 32.6789C36.232 32.0851 36.7904 31.6184 37.4348 31.7457C38.0361 31.8305 38.4657 32.4244 38.3798 33.0183C37.9502 35.903 35.2011 35.903 33.5688 35.9454C33.0533 35.9454 32.1513 35.9454 31.9365 36.1151C31.9365 36.1151 31.9365 36.2847 32.0224 36.7514C32.1513 37.3453 31.8076 37.9392 31.2062 38.1089C31.1203 38.1089 31.0344 38.1089 30.9485 38.1089V38.0664Z" fill="#3E3A39"/>
<path d="M57.194 42.2666C56.7645 42.2666 56.3779 42.0121 56.2061 41.6303C56.0342 41.2485 56.0772 40.7819 56.3349 40.485C56.8933 39.7638 56.7645 38.576 56.0772 38.0245C55.6906 37.7276 55.261 37.4306 55.0463 36.8792C54.6597 36.0307 55.0463 35.2247 55.261 34.7157C55.3469 34.546 55.4329 34.3339 55.4329 34.249C55.4329 34.1218 55.4329 33.9521 55.304 33.9097C55.1751 33.8248 54.9174 33.74 54.6597 33.6551C54.359 33.5703 54.0583 33.4855 53.7576 33.3158C52.7267 32.8067 52.0394 31.7462 51.9535 30.6008C51.9105 29.4554 52.4689 28.3525 53.4569 27.7586C53.9724 27.4192 54.6597 27.5889 55.0033 28.098C55.347 28.607 55.1751 29.2858 54.6597 29.6251C54.359 29.7948 54.1872 30.1766 54.1872 30.516C54.1872 30.8554 54.4449 31.1947 54.7456 31.322C54.9174 31.4068 55.0892 31.4492 55.261 31.4917C55.6476 31.6189 56.1631 31.7462 56.6356 32.0856C57.4088 32.6795 57.8384 33.6976 57.6236 34.6733C57.5377 35.0551 57.4088 35.352 57.2799 35.6489C57.237 35.7762 57.1511 35.9883 57.1081 36.0732C57.194 36.0732 57.237 36.1156 57.2799 36.158C58.6545 37.3034 59.17 39.0426 58.7404 40.5274C58.8693 40.6971 58.9122 40.9092 58.9122 41.1213C58.9122 41.7152 58.4397 42.2242 57.7954 42.2666H57.1511H57.194Z" fill="#3E3A39"/>
<path d="M51.3951 23.2192C51.3951 23.2192 55.9054 16.3894 59.127 18.5104C62.3487 20.5891 61.7473 14.9046 66.859 17.3226C71.9707 19.7831 75.1494 19.0195 73.4311 22.9222C71.7559 26.825 68.5772 31.3641 63.6803 29.4127C58.7834 27.4613 54.359 29.0733 52.7696 27.5462C51.1803 26.019 51.3521 23.1768 51.3521 23.1768" fill="#F19266"/>
<path d="M66.0429 31.109C65.1408 31.109 64.1958 30.9393 63.2508 30.5575C60.8453 29.5818 58.5257 29.5818 56.6357 29.5394C54.7027 29.5394 53.0274 29.4969 51.9536 28.4364C50.0206 26.6123 50.1924 23.5155 50.1924 23.1762C50.1924 22.9641 50.2783 22.7944 50.3642 22.6247C50.7079 22.1157 53.6718 17.7463 56.8934 17.0675C57.9243 16.8554 58.8694 17.0675 59.7285 17.5766C60.3728 18.0008 60.4158 18.0008 61.189 17.2372C62.1769 16.2615 63.8092 14.6495 67.3316 16.3464C68.7491 17.0251 69.9518 17.4493 71.0687 17.7887C72.8298 18.3826 74.2474 18.8492 74.8058 20.1219C75.3213 21.2248 74.8917 22.4974 74.5051 23.4731C72.3144 28.5212 69.3934 31.1514 66 31.1514L66.0429 31.109ZM52.5979 23.6004C52.5979 24.4064 52.8127 25.9336 53.6718 26.7396C54.0584 27.1213 55.39 27.1638 56.7216 27.1638C58.7835 27.1638 61.3608 27.2486 64.1958 28.3516C68.2336 29.9636 70.8969 26.0608 72.4433 22.4974C72.9158 21.4369 72.8298 21.0975 72.7869 21.0127C72.6151 20.6733 71.4982 20.2915 70.4243 19.9522C69.3505 19.5704 67.9759 19.1462 66.4295 18.3826C64.4106 17.4069 63.8092 17.9584 62.9501 18.8492C62.134 19.6552 60.8024 20.9703 58.5257 19.4855C58.225 19.2734 57.8814 19.231 57.4948 19.3158C55.8625 19.6552 53.7147 22.0308 52.6408 23.6004H52.5979Z" fill="#3E3A39"/>
</svg>
