<svg width="396" height="26" viewBox="0 0 396 26" fill="none" xmlns="http://www.w3.org/2000/svg">
<path d="M8.528 19.218C9.32533 19.218 10.0187 18.9493 10.608 18.412C11.1973 17.8747 11.6567 17.1033 11.986 16.098C12.3153 15.0927 12.48 13.9227 12.48 12.588C12.48 11.2533 12.3153 10.092 11.986 9.104C11.6567 8.09867 11.1973 7.32733 10.608 6.79C10.0187 6.23533 9.32533 5.958 8.528 5.958C7.73067 5.958 7.02867 6.23533 6.422 6.79C5.81533 7.32733 5.34733 8.09867 5.018 9.104C4.706 10.092 4.55 11.2533 4.55 12.588C4.55 13.9227 4.706 15.0927 5.018 16.098C5.34733 17.1033 5.81533 17.8747 6.422 18.412C7.02867 18.9493 7.73067 19.218 8.528 19.218ZM8.528 22.312C7.072 22.312 5.772 21.9047 4.628 21.09C3.50133 20.258 2.61733 19.1053 1.976 17.632C1.33467 16.1587 1.014 14.4773 1.014 12.588C1.014 10.716 1.33467 9.04333 1.976 7.57C2.61733 6.09667 3.50133 4.95267 4.628 4.138C5.772 3.306 7.072 2.89 8.528 2.89C9.96667 2.89 11.258 3.306 12.402 4.138C13.546 4.95267 14.43 6.09667 15.054 7.57C15.6953 9.04333 16.016 10.716 16.016 12.588C16.016 14.46 15.6953 16.1327 15.054 17.606C14.43 19.0793 13.546 20.232 12.402 21.064C11.258 21.896 9.96667 22.312 8.528 22.312ZM26.3451 22.156L22.8091 22.104V6.764L19.1171 8.428L17.8951 5.36L22.8351 3.098H26.3451V22.156Z" fill="#D9D9D9"/>
<path d="M53 13L45 19L45 7L53 13Z" fill="#D9D9D9"/>
<path d="M77.554 19.348C78.3687 19.348 79.0793 19.0707 79.686 18.516C80.2927 17.9613 80.7607 17.1727 81.09 16.15C81.4367 15.1273 81.61 13.94 81.61 12.588C81.61 11.236 81.4367 10.0573 81.09 9.052C80.7607 8.02933 80.2927 7.24067 79.686 6.686C79.0793 6.114 78.3687 5.828 77.554 5.828C76.7567 5.828 76.046 6.10533 75.422 6.66C74.8153 7.21467 74.3387 8.00333 73.992 9.026C73.6627 10.0487 73.498 11.236 73.498 12.588C73.498 13.94 73.6627 15.1273 73.992 16.15C74.3387 17.1727 74.8153 17.9613 75.422 18.516C76.046 19.0707 76.7567 19.348 77.554 19.348ZM77.58 22.286C76.1413 22.286 74.8587 21.8787 73.732 21.064C72.6053 20.232 71.7213 19.0793 71.08 17.606C70.456 16.1327 70.144 14.46 70.144 12.588C70.144 10.716 70.456 9.04333 71.08 7.57C71.7213 6.09667 72.6053 4.95267 73.732 4.138C74.8587 3.306 76.1327 2.89 77.554 2.89C78.9927 2.89 80.2753 3.306 81.402 4.138C82.5287 4.95267 83.404 6.09667 84.028 7.57C84.652 9.04333 84.964 10.716 84.964 12.588C84.964 14.46 84.652 16.1327 84.028 17.606C83.404 19.0793 82.5287 20.232 81.402 21.064C80.2753 21.8787 79.0013 22.286 77.58 22.286ZM87.8813 19.192C88.3493 18.7413 88.8433 18.282 89.3633 17.814C89.9006 17.346 90.4293 16.8953 90.9493 16.462C92.2319 15.37 93.2373 14.4687 93.9653 13.758C94.7106 13.0473 95.3346 12.3193 95.8373 11.574C96.3399 10.8113 96.5913 10.0747 96.5913 9.364C96.5913 8.70533 96.4613 8.13333 96.2013 7.648C95.9586 7.14533 95.6119 6.75533 95.1613 6.478C94.7106 6.18333 94.1993 6.036 93.6273 6.036C92.9166 6.036 92.2406 6.26133 91.5993 6.712C90.9753 7.14533 90.5073 7.71733 90.1953 8.428L87.3093 7.128C87.8466 5.89733 88.7046 4.892 89.8833 4.112C91.0793 3.332 92.3273 2.942 93.6273 2.942C94.8579 2.942 95.9499 3.21067 96.9033 3.748C97.8566 4.28533 98.6019 5.048 99.1393 6.036C99.6766 7.00667 99.9453 8.116 99.9453 9.364C99.9453 10.5773 99.5986 11.756 98.9053 12.9C98.2293 14.0267 97.4146 15.0493 96.4613 15.968C95.5253 16.8693 94.2859 17.9527 92.7433 19.218C91.5993 20.154 90.6893 20.934 90.0133 21.558L87.8813 19.192ZM87.8813 19.192H100.231V22.104H88.1413L87.8813 19.192Z" fill="#D9D9D9"/>
<path d="M126 13L118 19L118 7L126 13Z" fill="#D9D9D9"/>
<path d="M150.554 19.348C151.369 19.348 152.079 19.0707 152.686 18.516C153.293 17.9613 153.761 17.1727 154.09 16.15C154.437 15.1273 154.61 13.94 154.61 12.588C154.61 11.236 154.437 10.0573 154.09 9.052C153.761 8.02933 153.293 7.24067 152.686 6.686C152.079 6.114 151.369 5.828 150.554 5.828C149.757 5.828 149.046 6.10533 148.422 6.66C147.815 7.21467 147.339 8.00333 146.992 9.026C146.663 10.0487 146.498 11.236 146.498 12.588C146.498 13.94 146.663 15.1273 146.992 16.15C147.339 17.1727 147.815 17.9613 148.422 18.516C149.046 19.0707 149.757 19.348 150.554 19.348ZM150.58 22.286C149.141 22.286 147.859 21.8787 146.732 21.064C145.605 20.232 144.721 19.0793 144.08 17.606C143.456 16.1327 143.144 14.46 143.144 12.588C143.144 10.716 143.456 9.04333 144.08 7.57C144.721 6.09667 145.605 4.95267 146.732 4.138C147.859 3.306 149.133 2.89 150.554 2.89C151.993 2.89 153.275 3.306 154.402 4.138C155.529 4.95267 156.404 6.09667 157.028 7.57C157.652 9.04333 157.964 10.716 157.964 12.588C157.964 14.46 157.652 16.1327 157.028 17.606C156.404 19.0793 155.529 20.232 154.402 21.064C153.275 21.8787 152.001 22.286 150.58 22.286ZM170.709 12.276C171.559 12.7613 172.252 13.4287 172.789 14.278C173.327 15.11 173.595 15.9333 173.595 16.748C173.595 17.8053 173.309 18.7587 172.737 19.608C172.165 20.44 171.377 21.09 170.371 21.558C169.366 22.026 168.213 22.26 166.913 22.26C165.631 22.26 164.487 22.0173 163.481 21.532C162.476 21.0293 161.687 20.3447 161.115 19.478C160.561 18.594 160.283 17.5887 160.283 16.462H163.637C163.637 17.0167 163.776 17.5107 164.053 17.944C164.331 18.36 164.721 18.6893 165.223 18.932C165.726 19.1747 166.298 19.296 166.939 19.296C167.598 19.296 168.187 19.1833 168.707 18.958C169.227 18.7153 169.635 18.3773 169.929 17.944C170.224 17.5107 170.371 17.0167 170.371 16.462C170.371 15.9247 170.224 15.448 169.929 15.032C169.652 14.5987 169.253 14.2607 168.733 14.018C168.213 13.7753 167.633 13.654 166.991 13.654H165.665V10.924H167.017C167.624 10.924 168.153 10.82 168.603 10.612C169.071 10.3867 169.435 10.0833 169.695 9.702C169.955 9.32067 170.085 8.88733 170.085 8.402C170.085 7.65667 169.808 7.05867 169.253 6.608C168.699 6.14 167.979 5.906 167.095 5.906C166.541 5.906 166.047 6.01 165.613 6.218C165.197 6.426 164.859 6.72067 164.599 7.102C164.357 7.48333 164.235 7.91667 164.235 8.402H160.881C160.881 7.34467 161.141 6.4 161.661 5.568C162.199 4.736 162.935 4.09467 163.871 3.644C164.825 3.176 165.899 2.942 167.095 2.942C168.291 2.942 169.357 3.16733 170.293 3.618C171.229 4.05133 171.957 4.658 172.477 5.438C173.015 6.218 173.283 7.11067 173.283 8.116C173.283 8.86133 173.041 9.624 172.555 10.404C172.087 11.184 171.472 11.808 170.709 12.276Z" fill="#D9D9D9"/>
<path d="M199 13L191 19L191 7L199 13Z" fill="#D9D9D9"/>
<path d="M223.554 19.348C224.369 19.348 225.079 19.0707 225.686 18.516C226.293 17.9613 226.761 17.1727 227.09 16.15C227.437 15.1273 227.61 13.94 227.61 12.588C227.61 11.236 227.437 10.0573 227.09 9.052C226.761 8.02933 226.293 7.24067 225.686 6.686C225.079 6.114 224.369 5.828 223.554 5.828C222.757 5.828 222.046 6.10533 221.422 6.66C220.815 7.21467 220.339 8.00333 219.992 9.026C219.663 10.0487 219.498 11.236 219.498 12.588C219.498 13.94 219.663 15.1273 219.992 16.15C220.339 17.1727 220.815 17.9613 221.422 18.516C222.046 19.0707 222.757 19.348 223.554 19.348ZM223.58 22.286C222.141 22.286 220.859 21.8787 219.732 21.064C218.605 20.232 217.721 19.0793 217.08 17.606C216.456 16.1327 216.144 14.46 216.144 12.588C216.144 10.716 216.456 9.04333 217.08 7.57C217.721 6.09667 218.605 4.95267 219.732 4.138C220.859 3.306 222.133 2.89 223.554 2.89C224.993 2.89 226.275 3.306 227.402 4.138C228.529 4.95267 229.404 6.09667 230.028 7.57C230.652 9.04333 230.964 10.716 230.964 12.588C230.964 14.46 230.652 16.1327 230.028 17.606C229.404 19.0793 228.529 20.232 227.402 21.064C226.275 21.8787 225.001 22.286 223.58 22.286ZM244.983 14.616H247.115V17.502H244.983V22.13H241.655V17.502H233.543L233.283 14.616L241.811 3.098H244.983V14.616ZM241.655 14.616V8.558L237.209 14.616H241.655Z" fill="#D9D9D9"/>
<path d="M273 13L265 19L265 7L273 13Z" fill="#D9D9D9"/>
<path d="M297.528 19.218C298.325 19.218 299.019 18.9493 299.608 18.412C300.197 17.8747 300.657 17.1033 300.986 16.098C301.315 15.0927 301.48 13.9227 301.48 12.588C301.48 11.2533 301.315 10.092 300.986 9.104C300.657 8.09867 300.197 7.32733 299.608 6.79C299.019 6.23533 298.325 5.958 297.528 5.958C296.731 5.958 296.029 6.23533 295.422 6.79C294.815 7.32733 294.347 8.09867 294.018 9.104C293.706 10.092 293.55 11.2533 293.55 12.588C293.55 13.9227 293.706 15.0927 294.018 16.098C294.347 17.1033 294.815 17.8747 295.422 18.412C296.029 18.9493 296.731 19.218 297.528 19.218ZM297.528 22.312C296.072 22.312 294.772 21.9047 293.628 21.09C292.501 20.258 291.617 19.1053 290.976 17.632C290.335 16.1587 290.014 14.4773 290.014 12.588C290.014 10.716 290.335 9.04333 290.976 7.57C291.617 6.09667 292.501 4.95267 293.628 4.138C294.772 3.306 296.072 2.89 297.528 2.89C298.967 2.89 300.258 3.306 301.402 4.138C302.546 4.95267 303.43 6.09667 304.054 7.57C304.695 9.04333 305.016 10.716 305.016 12.588C305.016 14.46 304.695 16.1327 304.054 17.606C303.43 19.0793 302.546 20.232 301.402 21.064C300.258 21.896 298.967 22.312 297.528 22.312ZM308.637 11.626C309.244 10.9673 310.032 10.43 311.003 10.014C311.974 9.598 312.91 9.39 313.811 9.39C315.163 9.39 316.368 9.66733 317.425 10.222C318.482 10.7593 319.306 11.522 319.895 12.51C320.484 13.498 320.779 14.6247 320.779 15.89C320.779 17.138 320.484 18.256 319.895 19.244C319.306 20.232 318.482 21.0033 317.425 21.558C316.368 22.1127 315.163 22.39 313.811 22.39C312.754 22.39 311.757 22.1733 310.821 21.74C309.885 21.2893 309.088 20.674 308.429 19.894C307.77 19.114 307.32 18.2213 307.077 17.216L310.509 16.384C310.7 17.1813 311.098 17.8313 311.705 18.334C312.329 18.8367 313.031 19.088 313.811 19.088C314.487 19.088 315.076 18.9493 315.579 18.672C316.099 18.3947 316.506 18.0133 316.801 17.528C317.096 17.0427 317.243 16.4967 317.243 15.89C317.243 15.266 317.096 14.7113 316.801 14.226C316.506 13.7407 316.099 13.368 315.579 13.108C315.076 12.8307 314.487 12.692 313.811 12.692C313.43 12.692 312.988 12.822 312.485 13.082C312 13.3247 311.575 13.6367 311.211 14.018L308.637 11.626ZM307.701 13.628L308.377 3.098H319.141V6.166H311.757L311.211 14.018L307.701 13.628Z" fill="#D9D9D9"/>
<path d="M346 13L338 19L338 7L346 13Z" fill="#D9D9D9"/>
<path d="M370.554 19.348C371.369 19.348 372.079 19.0707 372.686 18.516C373.293 17.9613 373.761 17.1727 374.09 16.15C374.437 15.1273 374.61 13.94 374.61 12.588C374.61 11.236 374.437 10.0573 374.09 9.052C373.761 8.02933 373.293 7.24067 372.686 6.686C372.079 6.114 371.369 5.828 370.554 5.828C369.757 5.828 369.046 6.10533 368.422 6.66C367.815 7.21467 367.339 8.00333 366.992 9.026C366.663 10.0487 366.498 11.236 366.498 12.588C366.498 13.94 366.663 15.1273 366.992 16.15C367.339 17.1727 367.815 17.9613 368.422 18.516C369.046 19.0707 369.757 19.348 370.554 19.348ZM370.58 22.286C369.141 22.286 367.859 21.8787 366.732 21.064C365.605 20.232 364.721 19.0793 364.08 17.606C363.456 16.1327 363.144 14.46 363.144 12.588C363.144 10.716 363.456 9.04333 364.08 7.57C364.721 6.09667 365.605 4.95267 366.732 4.138C367.859 3.306 369.133 2.89 370.554 2.89C371.993 2.89 373.275 3.306 374.402 4.138C375.529 4.95267 376.404 6.09667 377.028 7.57C377.652 9.04333 377.964 10.716 377.964 12.588C377.964 14.46 377.652 16.1327 377.028 17.606C376.404 19.0793 375.529 20.232 374.402 21.064C373.275 21.8787 372.001 22.286 370.58 22.286ZM387.069 19.374C387.728 19.374 388.317 19.2267 388.837 18.932C389.375 18.6373 389.791 18.23 390.085 17.71C390.38 17.1727 390.527 16.566 390.527 15.89C390.527 15.214 390.371 14.6073 390.059 14.07C389.765 13.5327 389.357 13.1167 388.837 12.822C388.335 12.5273 387.745 12.38 387.069 12.38C386.393 12.38 385.795 12.5273 385.275 12.822C384.755 13.1167 384.348 13.5327 384.053 14.07C383.776 14.6073 383.637 15.214 383.637 15.89C383.637 16.566 383.776 17.1727 384.053 17.71C384.348 18.23 384.755 18.6373 385.275 18.932C385.795 19.2267 386.393 19.374 387.069 19.374ZM380.283 15.89C380.283 14.7807 380.647 13.5587 381.375 12.224L386.497 3.02H390.345L386.679 9.52C386.887 9.48533 387.052 9.468 387.173 9.468C388.473 9.468 389.626 9.74533 390.631 10.3C391.654 10.8547 392.451 11.6173 393.023 12.588C393.595 13.5587 393.881 14.668 393.881 15.916C393.881 17.1467 393.587 18.2473 392.997 19.218C392.425 20.1887 391.619 20.9427 390.579 21.48C389.557 22.0173 388.387 22.286 387.069 22.286C385.752 22.286 384.573 22.0173 383.533 21.48C382.511 20.9427 381.713 20.1887 381.141 19.218C380.569 18.2473 380.283 17.138 380.283 15.89Z" fill="#231815"/>
</svg>
