<svg width="62" height="39" viewBox="0 0 62 39" fill="none" xmlns="http://www.w3.org/2000/svg">
<path d="M42.9648 0C53.4776 0 62 8.52237 62 19.0352C62 29.5479 53.4776 38.0703 42.9648 38.0703C38.4316 38.0703 34.2693 36.4845 31 33.8389C27.7307 36.4845 23.5684 38.0703 19.0352 38.0703C8.52239 38.0703 3.71091e-05 29.5479 0 19.0352C0 8.52237 8.52237 0 19.0352 0C23.5682 1.60023e-05 27.7308 1.58504 31 4.23047C34.2692 1.58504 38.4318 1.60013e-05 42.9648 0Z" fill="#B2C0D7"/>
<path d="M27.7662 24.9417C27.8622 24.9657 27.9582 24.9417 28.0542 24.9417C28.5822 24.9897 29.0622 25.1097 29.4942 25.4937C29.7102 25.7097 29.8302 25.9977 29.8302 26.3337C29.8302 26.6697 29.7102 27.1497 29.5182 27.3657C29.0142 27.8697 27.8382 27.8217 27.7902 27.8217H14.3502C14.2062 27.8217 14.0382 27.8457 13.8702 27.8457C13.1982 27.8697 12.3342 27.9177 11.8062 27.4617C11.4942 27.1737 11.3022 26.8137 11.3022 26.4297C11.3022 25.9497 11.6142 25.3497 12.0942 25.1577C12.7422 24.9177 13.4382 24.9657 14.1342 24.9417H14.2542C15.6222 24.9177 17.1102 24.9177 18.5502 24.9417L18.5262 21.6297C17.3022 21.6537 16.2942 21.6537 15.7182 21.6057C15.0462 21.5817 14.1582 21.5577 13.6062 21.1497C12.8862 20.5977 12.8622 18.8457 12.8622 18.7737V13.6137C12.8622 12.9897 12.7662 12.3177 12.8862 11.6937C13.0542 10.9497 13.9662 10.7577 14.6862 10.7097C15.2382 10.6857 16.0542 10.8297 16.1742 11.4777C16.2222 11.7657 16.1262 13.5897 16.2462 13.8537C16.3182 14.0217 16.6542 14.0457 16.8222 14.0697C17.5662 14.1177 17.8062 14.0457 18.5502 14.0457L24.0462 14.0697C24.3822 14.0937 24.6462 14.0937 24.7422 13.7577C24.7662 13.4217 24.7662 12.0057 24.7902 11.7417C24.8142 11.1657 24.9822 10.8297 25.5822 10.7097C26.2062 10.5657 27.0942 10.6137 27.4542 10.9737C27.9582 11.5017 27.9342 12.1257 27.9342 13.3737C27.8862 14.8377 28.0062 18.3657 27.8622 19.8297C27.7902 20.7657 27.2622 21.3657 26.3502 21.5097C25.8702 21.5817 25.2222 21.5577 24.7422 21.5577C23.7102 21.5817 22.7262 21.5817 21.7662 21.5817L21.8142 24.9417C23.4462 24.9417 24.5742 24.8937 26.1342 24.9417C26.7102 24.9657 27.2622 24.8937 27.7662 24.9417ZM16.2462 18.5337C16.3662 19.0137 17.0622 19.0137 17.5902 19.0377C17.8302 19.0137 22.7022 18.9657 22.9902 19.0137C23.2542 19.0377 23.5182 19.0137 23.7822 19.0377C24.1182 19.0617 24.6942 19.1817 24.6942 18.6537C24.6942 18.4137 24.7422 17.4297 24.6222 16.9737C24.5262 16.5897 24.3102 16.6137 23.9982 16.6377C23.8542 16.6377 23.3982 16.6617 23.2542 16.6377H17.7822C17.1822 16.6137 16.2942 16.4937 16.2222 17.2377C16.2222 17.4057 16.2222 18.4137 16.2462 18.5337ZM49.5707 27.4617C49.5227 27.8457 49.4987 28.2057 49.3787 28.5897C49.3307 28.7097 49.2827 28.8057 49.2347 28.9257C49.1387 29.1177 48.9947 29.3097 48.8027 29.4537C48.4427 29.6697 47.9867 29.7177 47.5787 29.6217C47.3387 29.5737 47.1227 29.4777 46.9547 29.3337C46.3787 28.8057 46.4027 27.5577 46.4027 27.5097V12.6777C46.3787 11.9337 46.4027 10.7337 46.8587 10.3017C47.1947 9.96569 47.6027 9.91769 48.0347 9.91769C48.5867 9.91769 49.0907 10.2537 49.2827 10.7817C49.5707 11.4537 49.5467 12.1977 49.5707 12.9417V13.0617C49.6427 15.5097 49.5707 18.2217 49.5707 20.5257V26.5977C49.5707 26.8857 49.5947 27.1737 49.5707 27.4617ZM38.2427 25.1097C38.2187 24.7257 38.2187 24.3417 38.2187 23.9577V16.3257C38.2187 15.8217 38.2187 15.2937 38.1707 14.7657C38.1467 14.5977 38.1227 14.2377 37.9547 14.1657C37.7867 14.0697 37.5707 14.1177 37.3787 14.0937C37.1627 14.0697 36.9467 14.1177 36.7307 14.0937H35.6027C35.0747 14.1177 34.4987 14.0697 33.9707 14.0937C33.7307 14.1177 33.5147 14.0937 33.2747 14.0937C32.9147 14.0937 32.5067 14.0937 32.1947 13.8777C31.7387 13.5657 31.6187 13.0377 31.6187 12.5337C31.5947 12.2217 31.6667 11.9097 31.8107 11.6217C31.8827 11.4537 31.9787 11.3097 32.1227 11.2137C32.2907 11.0457 32.6507 10.9257 32.8667 10.8777C33.5387 10.7097 34.3067 10.7337 35.0027 10.7337H39.1787C39.5867 10.7817 40.0907 10.8297 40.4747 10.9737C40.7147 11.0697 41.0027 11.2377 41.1467 11.4537C41.4347 11.9097 41.4347 12.3417 41.4827 12.8697C41.5547 13.7577 41.5307 14.6457 41.5307 15.5337V23.4057C41.5307 23.4777 41.5787 25.4697 41.5307 26.4777C41.4827 27.1257 41.3387 27.9177 40.4987 28.2297C40.2107 28.3497 39.9227 28.3977 39.6827 28.3977C39.2747 28.3977 38.7947 28.2297 38.6267 27.8697C38.3867 27.3897 38.2427 26.7897 38.2427 26.1657V25.1097Z" fill="#4D2427"/>
</svg>
