<svg width="365" height="52" viewBox="0 0 365 52" fill="none" xmlns="http://www.w3.org/2000/svg">
<path d="M183.168 14.804C183.132 14.768 183.132 17.576 183.168 17.756C183.42 17.972 184.176 18.692 184.608 19.052C185.076 19.448 185.58 19.916 186.12 20.42C186.444 20.744 186.732 21.068 186.984 21.32C187.884 22.22 188.964 23.336 189.288 24.416C189.432 24.848 189.36 25.46 188.856 25.82C188.496 26.036 188.064 26.18 187.56 26.18C186.516 26.18 185.472 25.64 184.896 25.208C183.996 24.524 183.24 23.768 182.484 23.012C181.944 22.472 181.26 21.68 180.576 21.176L179.604 22.148C179.28 22.472 178.92 22.796 178.632 23.12C178.02 23.804 177.372 24.524 176.508 25.136C175.536 25.856 174.6 26.216 173.736 26.216C173.52 26.216 173.34 26.216 173.124 26.144C172.62 26.036 172.26 25.82 172.08 25.496C171.756 24.956 171.936 24.2 172.224 23.696C172.584 23.156 173.124 22.652 173.592 22.148C174.456 21.212 177.732 18.152 178.128 17.756V14.804H175.824C174.636 14.804 172.584 15.092 171.972 13.688C171.756 13.148 171.648 12.428 171.792 11.852C171.972 11.168 172.8 10.952 173.412 10.88C173.628 10.844 176.616 10.916 176.94 10.844H185.364C187.272 10.844 188.604 10.988 189.396 11.924C189.864 12.5 189.72 14.048 188.964 14.408C188.604 14.552 187.992 14.768 187.596 14.804C186.912 14.84 186.228 14.804 185.544 14.804H183.168ZM196.956 34.964C196.992 35 198.432 35.324 198.576 36.332C198.684 37.232 198.54 37.952 198.108 38.456C197.532 39.14 196.668 39.176 196.632 39.176H177.876C175.932 39.176 174.744 38.528 174.744 37.448V32.336C174.708 31.796 174.708 30.392 174.744 29.852C174.852 28.844 175.86 28.16 176.94 28.16C177.192 28.16 177.588 28.196 177.84 28.268C179.136 28.664 179.208 30.248 179.28 31.328C179.316 31.724 179.244 34.64 179.28 34.892C179.424 34.928 179.928 35.036 181.692 35.036C183.24 35.036 184.644 34.964 184.68 34.964H196.956ZM197.568 13.328V25.496C197.568 25.532 197.424 26.936 196.488 27.548C196.164 27.728 195.84 27.836 195.48 27.836C195.048 27.836 194.652 27.692 194.292 27.44C194.04 27.26 193.824 27.008 193.68 26.684C192.96 25.244 193.248 23.12 193.248 21.536C193.284 19.484 193.284 16.352 193.284 14.336V13.868C193.248 13.328 193.248 12.716 193.392 12.176C193.5 11.78 193.716 11.42 194.04 11.024C194.436 10.556 195.192 10.304 195.984 10.412C196.668 10.52 197.208 10.88 197.424 11.348C197.712 11.96 197.604 13.148 197.568 13.328ZM224.822 32.768C224.966 32.804 225.11 32.768 225.254 32.768C226.046 32.84 226.766 33.02 227.414 33.596C227.738 33.92 227.918 34.352 227.918 34.856C227.918 35.36 227.738 36.08 227.45 36.404C226.694 37.16 224.93 37.088 224.858 37.088H204.698C204.482 37.088 204.23 37.124 203.978 37.124C202.97 37.16 201.674 37.232 200.882 36.548C200.414 36.116 200.126 35.576 200.126 35C200.126 34.28 200.594 33.38 201.314 33.092C202.286 32.732 203.33 32.804 204.374 32.768H204.554C206.858 32.732 209.234 32.732 211.61 32.768L211.574 29.384H207.83C206.858 29.384 205.814 29.384 204.77 29.348C203.762 29.276 203.042 28.196 202.934 26.972C202.862 26.072 202.826 22.724 202.826 21.968V21.104C202.79 20.528 202.79 19.844 203.222 19.304C203.834 18.476 205.13 18.368 206.174 18.368C206.426 18.368 207.11 18.44 207.434 18.404H220.214V15.38H207.074C206.822 15.38 206.534 15.416 206.282 15.416C205.994 15.416 205.67 15.452 205.382 15.452C204.914 15.452 204.518 15.416 204.158 15.308C203.726 15.2 203.402 14.912 203.15 14.48C202.826 13.904 202.754 13.364 202.898 12.716C203.15 11.852 204.23 11.456 204.77 11.348C205.13 11.276 205.49 11.276 205.922 11.276H207.182C208.694 11.312 211.934 11.312 214.022 11.276H221.294C222.122 11.276 222.95 11.276 223.706 11.528C224.858 11.852 225.074 13.22 225.074 14.264V19.016C225.074 19.736 224.822 21.824 224.066 22.328C223.418 22.724 222.77 22.724 222.194 22.688H207.974V25.568H222.23C222.662 25.568 223.058 25.568 223.454 25.604C224.174 25.64 224.822 25.964 225.074 26.792C225.326 27.764 225.002 28.7 224.138 29.096C223.562 29.348 222.914 29.384 222.41 29.384H216.218L216.254 32.768C218.522 32.732 220.142 32.732 222.374 32.768C223.238 32.804 224.066 32.696 224.822 32.768ZM251.949 11.132C254.829 12.68 256.017 15.38 255.729 19.124C255.441 23.912 253.101 26.252 248.133 26.252C245.505 26.252 244.065 26.468 241.725 24.956C239.457 23.48 238.773 20.852 238.773 18.332C238.773 15.812 239.637 13.472 241.689 11.888C243.381 10.556 245.577 9.908 247.665 10.088C249.573 10.232 250.257 10.376 251.949 11.132ZM264.441 34.856C264.477 34.892 265.917 35.216 266.061 36.224C266.169 37.124 266.025 37.844 265.593 38.348C265.017 39.032 264.153 39.068 264.117 39.068H245.361C243.417 39.068 242.229 38.42 242.229 37.34V32.336C242.193 31.796 242.193 30.392 242.229 29.852C242.337 28.844 243.345 28.16 244.425 28.16C244.677 28.16 245.073 28.196 245.325 28.268C246.621 28.664 246.693 30.248 246.765 31.328C246.801 31.724 246.729 34.532 246.765 34.784C246.909 34.82 247.413 34.928 249.177 34.928C250.725 34.928 252.129 34.856 252.165 34.856H264.441ZM264.909 11.42C265.233 12.068 265.269 14.444 265.233 14.66V27.08C265.233 27.152 265.089 28.52 264.081 29.096C263.757 29.312 263.397 29.42 263.037 29.42C262.569 29.42 262.137 29.276 261.777 28.988C261.525 28.844 261.273 28.592 261.129 28.268C260.805 27.692 260.733 27.08 260.697 26.576V24.812H260.589C259.113 24.74 257.061 24.812 256.449 23.84C256.125 23.336 256.197 22.436 256.305 21.932C256.449 21.356 256.809 20.96 257.817 20.744C258.213 20.672 260.265 20.6 260.697 20.564V18.224C259.221 18.224 257.025 18.44 256.449 17.504C256.125 17.036 256.197 15.884 256.305 15.344C256.449 14.804 256.809 14.408 257.817 14.192C258.105 14.12 259.797 14.084 260.697 14.048C260.661 13.616 260.697 12.68 260.805 12.284C260.949 11.888 260.985 11.492 261.309 11.132C261.741 10.664 262.533 10.412 263.397 10.52C264.117 10.628 264.693 10.988 264.909 11.42ZM251.445 19.52C251.445 17.432 251.193 15.668 249.141 14.912C246.945 14.156 243.633 14.84 243.165 17.828C242.877 19.88 243.741 22.112 246.729 22.364C248.745 22.58 250.905 21.932 251.445 19.52ZM276.864 34.28C276.864 32.12 276.828 31.184 276.828 19.52C276.828 18.728 276.864 17.972 276.756 17.18C276.612 16.316 276.432 16.172 275.568 16.172C273.48 16.136 272.4 16.172 270.528 16.172C268.836 16.172 268.008 15.236 268.008 13.832C268.008 11.708 270.564 11.6 272.724 11.6H277.512C277.764 11.6 278.016 11.636 278.268 11.636C278.88 11.672 279.384 11.78 279.96 11.996C280.32 12.14 280.752 12.392 280.968 12.716C281.436 13.4 281.4 13.904 281.472 14.696C281.508 15.452 281.544 16.928 281.544 17.684C281.904 17.648 282.264 17.648 282.552 17.648H285.288V14.012C285.288 13.4 285.252 12.716 285.396 12.104C285.468 11.888 285.54 11.672 285.648 11.456C285.936 10.988 286.152 10.736 286.692 10.556C286.908 10.484 287.124 10.448 287.34 10.448C288.132 10.448 288.744 10.844 289.14 11.528C289.5 12.14 289.5 13.868 289.5 14.048C289.536 31.544 289.464 34.964 289.464 34.964C289.464 36.152 289.428 36.656 289.068 37.772C288.816 38.492 288.276 39.032 287.232 39.032C286.944 39.032 286.548 38.96 286.296 38.78C285.324 38.168 285.288 35.936 285.288 35.216V30.968L281.904 30.896C281.796 30.896 281.652 30.896 281.544 30.86C281.544 30.968 281.616 33.2 281.544 34.748C281.4 36.476 280.428 37.628 278.772 37.628C277.008 37.628 276.864 35.648 276.864 34.28ZM295.836 14.768C295.944 18.368 295.836 22.22 295.836 25.604V34.604C295.836 35.864 295.836 37.016 295.368 38.024C295.224 38.348 295.008 38.6 294.684 38.816C294.18 39.14 293.856 39.212 293.244 39.068C291.804 38.744 291.552 37.16 291.552 35.936V14.408C291.516 13.328 291.516 11.528 292.164 10.88C292.704 10.412 293.28 10.34 293.928 10.34C295.872 10.34 295.8 13.472 295.836 14.768ZM285.288 21.968L281.904 21.896C281.796 21.896 281.652 21.896 281.544 21.86V26.756C281.904 26.72 282.264 26.72 282.552 26.72H285.288V21.968ZM310.095 22.4C311.067 22.4 312.255 22.472 313.623 22.508C313.623 22.004 313.623 21.536 313.659 21.068C313.623 21.068 313.587 21.068 313.551 21.032C311.139 20.06 309.231 19.016 309.231 16.136C309.231 15.452 309.303 14.84 309.483 14.3C308.331 14.3 307.395 13.436 307.395 12.356C307.395 11.312 308.367 10.448 309.519 10.448H314.271V9.26C314.271 8.36 315.207 7.604 316.359 7.604C317.511 7.604 318.483 8.36 318.483 9.26V10.448H323.451C324.639 10.448 325.611 11.312 325.611 12.356C325.611 13.436 324.675 14.264 323.523 14.3C323.667 14.84 323.775 15.452 323.775 16.136C323.775 18.152 323.199 19.016 321.543 20.204C320.715 20.816 319.599 21.176 318.411 21.32V22.436V22.616C320.211 22.616 319.923 22.508 322.479 22.58C323.379 22.58 324.243 22.508 325.071 22.868C325.683 23.156 326.079 23.84 326.079 24.596C326.079 25.208 325.827 25.424 325.431 25.856C324.747 26.576 323.667 26.54 322.803 26.468H310.095C310.023 26.468 308.511 26.504 307.935 25.676C307.647 25.388 307.503 25.1 307.503 24.596C307.503 24.092 307.683 23.732 307.935 23.408C308.475 22.796 309.483 22.472 310.095 22.4ZM331.767 36.296C332.523 36.368 333.171 36.62 333.387 37.376C333.675 38.24 333.351 38.852 332.451 39.212C331.875 39.428 331.263 39.464 330.759 39.464H314.019C313.047 39.464 312.003 39.428 310.959 39.392C309.951 39.356 309.231 38.6 309.123 37.52L309.015 35C308.979 34.496 308.943 33.632 309.375 33.164C310.023 32.444 311.319 32.336 312.363 32.336C313.731 32.336 318.303 32.372 329.283 32.372V31.076H311.571C311.103 31.076 310.707 31.076 310.347 31.004C309.915 30.896 309.555 30.896 309.339 30.5C309.015 29.996 308.907 29.528 309.087 28.952C309.339 28.196 310.419 28.088 310.959 28.016C311.319 27.944 311.679 27.908 312.075 27.908C314.235 27.908 316.755 27.944 329.643 27.944C332.055 27.944 333.423 28.664 333.423 30.32V32.876C333.423 33.524 333.135 34.244 332.379 34.676C331.767 35.036 331.119 35 330.507 35H313.443V36.296H331.767ZM328.419 23.696V14.444C328.383 13.364 328.419 11.6 329.031 10.988C329.571 10.52 330.111 10.448 330.759 10.448C331.551 10.448 332.271 10.952 332.559 11.672C332.955 12.68 332.919 13.76 332.955 14.804C332.955 15.992 332.955 16.928 332.991 17.792C334.035 17.792 335.043 17.828 335.655 17.864C336.915 17.936 337.779 19.844 337.023 20.816C336.339 21.788 334.647 21.932 333.027 21.86V23.3C333.027 24.308 332.847 24.74 332.667 25.28C332.631 25.424 332.559 25.568 332.487 25.748C332.343 26.036 332.127 26.324 331.839 26.504C331.335 26.828 330.687 26.9 330.075 26.792C329.787 26.72 329.463 26.576 329.211 26.36C328.383 25.568 328.419 23.768 328.419 23.696ZM316.215 17.72C317.583 17.792 319.455 17.792 319.455 16.136C319.455 14.804 318.735 14.408 317.799 14.3H314.847C313.983 14.444 313.335 14.876 313.335 16.136C313.407 17.72 314.811 17.792 316.215 17.72ZM361.166 24.2C361.958 24.236 362.858 24.38 363.542 24.92C363.866 25.172 364.046 25.604 364.046 26.036C364.046 26.504 363.866 27.116 363.578 27.368C362.822 28.088 360.95 28.016 360.878 28.016L341.689 28.052C340.61 28.088 339.278 28.16 338.486 27.512C337.946 27.116 337.658 26.72 337.658 26.18C337.658 25.532 338.162 24.704 338.918 24.452C339.926 24.128 341.006 24.236 342.086 24.2C344.426 24.128 345.182 24.2 347.594 24.2V22.148C345.614 22.112 343.526 22.076 342.626 22.04C341.438 22.076 339.386 21.896 339.026 20.6C338.774 19.52 338.666 19.664 338.666 18.548V14.696C338.63 14.768 338.558 12.968 339.17 11.996C339.782 10.988 341.978 10.952 342.229 10.952H358.07C359.078 10.952 360.194 10.88 361.166 11.24C361.958 11.564 362.21 12.428 362.174 13.292C362.102 14.084 361.562 14.732 360.734 14.948C360.302 15.056 359.618 15.092 358.718 15.092C358.105 15.092 357.602 15.056 357.602 15.056H344.858C344.606 15.02 344.066 15.02 343.814 15.164C343.562 15.272 343.598 17.576 343.706 17.828C343.886 18.152 344.678 18.116 345.182 18.08C346.334 18.044 348.494 18.08 355.73 18.08H358.394C359.582 18.08 360.59 18.008 361.382 18.404C361.85 18.62 362.21 19.088 362.354 19.628C362.462 20.204 362.318 20.816 361.994 21.248C361.238 22.184 360.338 22.04 359.294 22.076C358.502 22.112 354.866 22.148 352.634 22.148C352.67 22.832 352.706 23.624 352.706 24.2C355.37 24.2 359.114 24.092 361.166 24.2ZM338.81 34.712C338.81 30.644 344.102 29.672 350.582 29.672C357.098 29.672 362.39 30.176 362.39 34.712C362.39 39.176 357.098 39.752 350.582 39.752C344.102 39.752 338.81 39.176 338.81 34.712ZM357.638 34.712C357.638 33.164 353.894 33.2 350.582 33.2C347.306 33.2 343.778 33.164 343.778 34.712C343.778 36.08 347.306 36.224 350.582 36.224C353.894 36.224 357.638 36.512 357.638 34.712Z" fill="#6773B1"/>
<path d="M38.0436 7.57926C37.2411 8.05485 36.5116 8.57733 35.4027 8.90555C34.498 9.17349 33.4037 9.28066 32.3677 9.40124C26.0525 8.08333 17.3892 9.22093 13.4642 11.8333C9.52467 14.4457 5.4738 18.8659 7.92509 21.8333C-0.596057 24.2381 0.355055 31.1913 2.45616 35.6726C4.55726 40.1606 11.6777 43.9184 20.2864 46.2495C28.8951 48.5872 38.8753 49.6389 48.7972 50.1614C64.1907 50.9719 79.9782 50.5834 94.8464 48.5872C103.601 47.415 112.399 45.5461 117.769 42.1634C118.294 41.8285 118.819 41.4735 119.607 41.2725C120.512 41.0381 121.592 41.0515 122.628 41.0582C136.372 41.1251 150.963 38.1711 156.946 32.4908C160.623 29.0009 160.696 24.9015 158.843 21.1235C157.033 17.4193 153.415 13.8691 147.943 11.0223C140.487 7.14386 129.996 4.73911 119.228 3.21186C107.935 1.60423 96.0429 0.8607 84.2096 1.02146C79.4821 1.08845 76.1407 1.59753 72.0407 2.56881C68.4951 3.41281 64.643 2.93052 60.6305 3.0243C52.2553 3.22526 43.3985 4.41088 38.0582 7.57256" fill="#666DB2"/>
<path d="M38.2656 7.63121C37.4582 8.11105 36.7242 8.63819 35.6085 8.96934C34.6984 9.23967 33.1392 8.8477 32.097 8.96934C24.0405 7.63121 18.4223 8.78095 14.4734 11.4167C10.5098 14.0524 5.46126 18.8394 7.92748 21.8333C-0.645573 24.2595 0.34746 31.454 2.46136 35.982C4.57527 40.51 11.7391 44.3014 20.4002 46.6533C29.0613 49.0119 39.1024 50.073 49.0847 50.6001C64.572 51.4179 80.4556 51.0259 95.4144 49.0119C104.222 47.8292 113.074 45.9437 118.477 42.5308C119.005 42.1929 119.533 41.8347 120.326 41.6319C121.236 41.3954 122.323 41.4089 123.365 41.4157C137.193 41.4832 151.873 38.5029 157.892 32.7719C161.591 29.2508 161.665 25.1148 159.8 21.3031C157.98 17.5658 154.339 13.984 148.835 11.1117C141.333 7.19869 130.778 4.77248 119.945 3.2316C108.568 1.60962 96.6035 0.859457 84.6981 1.02165C79.9418 1.08924 76.5801 1.60286 72.4551 2.58281C68.8879 3.43435 65.0124 2.94775 60.9754 3.04237C52.5491 3.24512 43.6384 4.44132 38.2656 7.63121Z" stroke="#E7E7F0" stroke-width="1.31" stroke-miterlimit="10"/>
<path d="M39.7882 8.74658C39.0107 9.18643 38.2089 9.86441 37.1345 10.168C36.258 10.4158 34.6135 10.4731 33.6098 10.5846C25.8514 9.35802 20.679 9.80051 16.8762 12.2166C13.0593 14.6327 8.0716 19.9236 10.4466 22.668C2.1907 24.892 3.27292 30.5841 5.30862 34.7348C7.34431 38.8855 14.2431 42.3609 22.5838 44.5168C30.9245 46.6789 40.594 47.6515 50.207 48.1347C65.1213 48.8843 80.4174 48.525 94.8227 46.6789C103.305 45.5947 111.829 43.8663 117.032 40.7378C117.541 40.4281 118.049 40.0997 118.813 39.9139C119.689 39.6971 120.735 39.7095 121.739 39.7156C135.056 39.7776 149.193 37.0456 154.989 31.7922C158.551 28.5646 158.622 24.7732 156.827 21.2792C155.074 17.8533 151.568 14.5699 146.266 11.937C139.043 8.3501 128.878 6.12607 118.445 4.7136C107.489 3.22679 95.9678 2.53914 84.5029 2.68782C79.9226 2.74977 76.6852 3.22059 72.7128 4.11888C69.2776 4.89945 65.5454 4.45341 61.6578 4.54014C53.5433 4.72599 44.9623 5.82252 39.7882 8.74658Z" stroke="#E7E7F0" stroke-width="0.5" stroke-miterlimit="10"/>
<path d="M18.708 25.4C19.68 25.4 20.868 25.472 22.236 25.508C22.236 25.004 22.236 24.536 22.272 24.068C22.236 24.068 22.2 24.068 22.164 24.032C19.752 23.06 17.844 22.016 17.844 19.136C17.844 18.452 17.916 17.84 18.096 17.3C16.944 17.3 16.008 16.436 16.008 15.356C16.008 14.312 16.98 13.448 18.132 13.448H22.884V12.26C22.884 11.36 23.82 10.604 24.972 10.604C26.124 10.604 27.096 11.36 27.096 12.26V13.448H32.064C33.252 13.448 34.224 14.312 34.224 15.356C34.224 16.436 33.288 17.264 32.136 17.3C32.28 17.84 32.388 18.452 32.388 19.136C32.388 21.152 31.812 22.016 30.156 23.204C29.328 23.816 28.212 24.176 27.024 24.32V25.436V25.616C28.824 25.616 28.536 25.508 31.092 25.58C31.992 25.58 32.856 25.508 33.684 25.868C34.296 26.156 34.692 26.84 34.692 27.596C34.692 28.208 34.44 28.424 34.044 28.856C33.36 29.576 32.28 29.54 31.416 29.468H18.708C18.636 29.468 17.124 29.504 16.548 28.676C16.26 28.388 16.116 28.1 16.116 27.596C16.116 27.092 16.296 26.732 16.548 26.408C17.088 25.796 18.096 25.472 18.708 25.4ZM40.38 39.296C41.136 39.368 41.784 39.62 42 40.376C42.288 41.24 41.964 41.852 41.064 42.212C40.488 42.428 39.876 42.464 39.372 42.464H22.632C21.66 42.464 20.616 42.428 19.572 42.392C18.564 42.356 17.844 41.6 17.736 40.52L17.628 38C17.592 37.496 17.556 36.632 17.988 36.164C18.636 35.444 19.932 35.336 20.976 35.336C22.344 35.336 26.916 35.372 37.896 35.372V34.076H20.184C19.716 34.076 19.32 34.076 18.96 34.004C18.528 33.896 18.168 33.896 17.952 33.5C17.628 32.996 17.52 32.528 17.7 31.952C17.952 31.196 19.032 31.088 19.572 31.016C19.932 30.944 20.292 30.908 20.688 30.908C22.848 30.908 25.368 30.944 38.256 30.944C40.668 30.944 42.036 31.664 42.036 33.32V35.876C42.036 36.524 41.748 37.244 40.992 37.676C40.38 38.036 39.732 38 39.12 38H22.056V39.296H40.38ZM37.032 26.696V17.444C36.996 16.364 37.032 14.6 37.644 13.988C38.184 13.52 38.724 13.448 39.372 13.448C40.164 13.448 40.884 13.952 41.172 14.672C41.568 15.68 41.532 16.76 41.568 17.804C41.568 18.992 41.568 19.928 41.604 20.792C42.648 20.792 43.656 20.828 44.268 20.864C45.528 20.936 46.392 22.844 45.636 23.816C44.952 24.788 43.26 24.932 41.64 24.86V26.3C41.64 27.308 41.46 27.74 41.28 28.28C41.244 28.424 41.172 28.568 41.1 28.748C40.956 29.036 40.74 29.324 40.452 29.504C39.948 29.828 39.3 29.9 38.688 29.792C38.4 29.72 38.076 29.576 37.824 29.36C36.996 28.568 37.032 26.768 37.032 26.696ZM24.828 20.72C26.196 20.792 28.068 20.792 28.068 19.136C28.068 17.804 27.348 17.408 26.412 17.3H23.46C22.596 17.444 21.948 17.876 21.948 19.136C22.02 20.72 23.424 20.792 24.828 20.72ZM69.7788 27.2C70.5708 27.236 71.4708 27.38 72.1548 27.92C72.4788 28.172 72.6588 28.604 72.6588 29.036C72.6588 29.504 72.4788 30.116 72.1908 30.368C71.4348 31.088 69.5628 31.016 69.4908 31.016L50.3028 31.052C49.2228 31.088 47.8908 31.16 47.0988 30.512C46.5588 30.116 46.2708 29.72 46.2708 29.18C46.2708 28.532 46.7748 27.704 47.5308 27.452C48.5388 27.128 49.6188 27.236 50.6988 27.2C53.0388 27.128 53.7948 27.2 56.2068 27.2V25.148C54.2268 25.112 52.1388 25.076 51.2388 25.04C50.0508 25.076 47.9988 24.896 47.6388 23.6C47.3868 22.52 47.2788 22.664 47.2788 21.548V17.696C47.2428 17.768 47.1708 15.968 47.7828 14.996C48.3948 13.988 50.5908 13.952 50.8428 13.952H66.6828C67.6908 13.952 68.8068 13.88 69.7788 14.24C70.5708 14.564 70.8228 15.428 70.7868 16.292C70.7148 17.084 70.1748 17.732 69.3468 17.948C68.9148 18.056 68.2308 18.092 67.3308 18.092C66.7188 18.092 66.2148 18.056 66.2148 18.056H53.4708C53.2188 18.02 52.6788 18.02 52.4268 18.164C52.1748 18.272 52.2108 20.576 52.3188 20.828C52.4988 21.152 53.2908 21.116 53.7948 21.08C54.9468 21.044 57.1068 21.08 64.3428 21.08H67.0068C68.1948 21.08 69.2028 21.008 69.9948 21.404C70.4628 21.62 70.8228 22.088 70.9668 22.628C71.0748 23.204 70.9308 23.816 70.6068 24.248C69.8508 25.184 68.9508 25.04 67.9068 25.076C67.1148 25.112 63.4788 25.148 61.2468 25.148C61.2828 25.832 61.3188 26.624 61.3188 27.2C63.9828 27.2 67.7268 27.092 69.7788 27.2ZM47.4228 37.712C47.4228 33.644 52.7148 32.672 59.1948 32.672C65.7108 32.672 71.0028 33.176 71.0028 37.712C71.0028 42.176 65.7108 42.752 59.1948 42.752C52.7148 42.752 47.4228 42.176 47.4228 37.712ZM66.2508 37.712C66.2508 36.164 62.5068 36.2 59.1948 36.2C55.9188 36.2 52.3908 36.164 52.3908 37.712C52.3908 39.08 55.9188 39.224 59.1948 39.224C62.5068 39.224 66.2508 39.512 66.2508 37.712ZM83.3305 22.088C91.0705 22.376 91.4305 33.104 88.5145 38.288C86.3905 42.032 80.3065 42.248 77.4265 39.152C76.2025 37.82 75.7705 36.38 75.5185 34.616C75.0145 31.088 74.7625 27.992 76.6705 24.788C77.7145 22.988 80.7025 21.98 83.3305 22.088ZM100.107 24.716H100.179C100.395 24.716 100.611 24.788 100.863 24.788C101.115 24.824 101.403 24.86 101.691 24.896C102.231 25.004 102.807 25.22 103.059 25.76C103.239 26.048 103.311 26.372 103.311 26.696C103.311 27.056 103.311 27.38 103.203 27.74C103.131 28.1 103.023 28.604 102.699 28.856C102.411 29.072 102.087 29.252 101.727 29.324C100.971 29.432 99.6745 29.324 98.9185 29.36C98.8465 29.36 98.8105 29.396 98.8105 29.396C98.8105 29.396 98.7745 29.396 98.7745 29.54C98.7385 30.728 98.7745 32.528 98.7745 33.752C98.8105 34.976 98.8105 36.236 98.7745 37.424V37.928C98.7745 39.188 98.7745 41.024 97.9105 41.888C97.6225 42.212 97.2265 42.392 96.7585 42.392C96.7585 42.392 96.7225 42.356 96.6865 42.356C94.3465 42.284 94.0945 39.476 94.0945 37.964V16.58C94.0945 16.508 94.0585 14.708 94.8505 13.916C95.1745 13.592 95.9305 13.412 96.4705 13.412C97.0105 13.412 97.4785 13.628 97.8025 13.952C98.4505 14.636 98.4865 15.392 98.5585 16.184C98.5945 16.328 98.5945 16.472 98.5945 16.616C98.7025 17.408 98.7025 18.308 98.7385 19.172C98.7385 19.712 98.7745 20.18 98.7745 20.72C98.7385 21.008 98.7745 21.26 98.7745 21.512V23.852C98.7745 24.104 98.7745 24.392 98.8465 24.644C98.8465 24.68 99.5665 24.68 99.6025 24.68C99.7825 24.716 99.9265 24.752 100.107 24.716ZM88.3705 16.328C89.3065 16.328 90.4225 16.544 90.9265 17.48C91.2505 18.092 91.1425 19.208 90.6745 19.82C89.7385 21.008 86.1385 20.612 85.4905 20.648C85.1305 20.684 84.7705 20.684 84.3385 20.684H83.1865C82.8265 20.648 82.4665 20.648 82.0705 20.648L77.8225 20.576C75.3745 20.576 74.4385 19.964 74.2585 18.632C74.1505 17.912 74.3665 17.336 74.7985 16.94C75.4465 16.364 75.8065 16.292 76.5265 16.292C76.7065 16.292 76.9225 16.328 77.1025 16.328H78.0025C78.6865 16.328 79.6945 16.292 80.3785 16.256C80.4145 15.896 80.4505 14.672 80.4865 14.348C80.5225 13.952 80.6665 13.556 80.8825 13.232C81.3505 12.584 82.0345 12.224 82.7545 12.26C83.4385 12.332 84.1585 12.368 84.5905 12.944C85.1305 13.7 84.9145 15.248 85.0225 16.292H86.0665C86.4625 16.292 87.3625 16.328 87.7225 16.328H88.3705ZM83.1865 37.316C85.3465 36.992 86.1745 34.292 86.1385 32.348C86.1025 30.692 86.0305 28.064 84.5545 27.056C83.2585 26.192 80.5585 26.588 79.8745 28.1C78.9745 30.044 79.0465 32.024 79.4785 34.076C79.6945 35.12 80.0905 36.416 80.9905 37.028C81.3865 37.28 82.7905 37.388 83.1865 37.316ZM130.745 39.548C130.673 40.124 130.637 40.664 130.457 41.24C130.385 41.42 130.313 41.564 130.241 41.744C130.097 42.032 129.881 42.32 129.593 42.536C129.053 42.86 128.369 42.932 127.757 42.788C127.397 42.716 127.073 42.572 126.821 42.356C125.957 41.564 125.993 39.692 125.993 39.62V17.372C125.957 16.256 125.993 14.456 126.677 13.808C127.181 13.304 127.793 13.232 128.441 13.232C129.269 13.232 130.025 13.736 130.313 14.528C130.745 15.536 130.709 16.652 130.745 17.768V17.948C130.853 21.62 130.745 25.688 130.745 29.144V38.252C130.745 38.684 130.781 39.116 130.745 39.548ZM113.753 36.02C113.717 35.444 113.717 34.868 113.717 34.292V22.844C113.717 22.088 113.717 21.296 113.645 20.504C113.609 20.252 113.573 19.712 113.321 19.604C113.069 19.46 112.745 19.532 112.457 19.496C112.133 19.46 111.809 19.532 111.485 19.496H109.793C109.001 19.532 108.137 19.46 107.345 19.496C106.985 19.532 106.661 19.496 106.301 19.496C105.761 19.496 105.149 19.496 104.681 19.172C103.997 18.704 103.817 17.912 103.817 17.156C103.781 16.688 103.889 16.22 104.105 15.788C104.213 15.536 104.357 15.32 104.573 15.176C104.825 14.924 105.365 14.744 105.689 14.672C106.697 14.42 107.849 14.456 108.893 14.456H115.157C115.769 14.528 116.525 14.6 117.101 14.816C117.461 14.96 117.893 15.212 118.109 15.536C118.541 16.22 118.541 16.868 118.613 17.66C118.721 18.992 118.685 20.324 118.685 21.656V33.464C118.685 33.572 118.757 36.56 118.685 38.072C118.613 39.044 118.397 40.232 117.137 40.7C116.705 40.88 116.273 40.952 115.913 40.952C115.301 40.952 114.581 40.7 114.329 40.16C113.969 39.44 113.753 38.54 113.753 37.604V36.02Z" fill="white"/>
<g clip-path="url(#clip0_1983_3398)">
<path d="M142.961 28.0879L140.387 31.2324L136.768 35.1686C136.768 35.1686 136.276 35.1234 135.852 34.818C135.603 34.6426 135.365 33.8848 135.179 33.7321C135.015 33.9357 134.958 34.2072 135.032 34.456L135.201 35.0385C135.201 35.0385 135.428 35.7115 136.135 36.0622C136.395 36.1923 136.762 36.2941 137.034 36.3619C137.26 36.4128 137.492 36.3336 137.639 36.1583L140.744 32.3635L143.317 29.2247L142.955 28.0935L142.961 28.0879Z" fill="#E89935"/>
<path d="M146.554 30.7574L156.785 19.7687C157.023 19.5142 157.068 19.1297 156.898 18.8299C156.587 18.287 156.31 17.8685 156.078 17.6875L146 29.0325L146.554 30.7574Z" fill="#E89935"/>
<path d="M146.551 30.7572C146.11 30.4405 145.544 30.367 145.046 30.5197L144.492 28.7947C144.99 28.642 145.555 28.7099 145.997 29.0323L146.551 30.7572Z" fill="#E89935"/>
<path d="M145.042 30.5255C144.951 30.4237 144.849 30.3275 144.736 30.2427C143.95 29.6772 142.813 29.8242 142.203 30.5764L141.648 28.8515C142.259 28.1049 143.396 27.9522 144.182 28.5178C144.301 28.6026 144.403 28.6988 144.488 28.8006L145.042 30.5255Z" fill="#E89935"/>
<path d="M135.184 33.7317C135.02 33.9353 134.998 34.2238 135.145 34.4387C135.286 34.6479 135.473 34.8968 135.688 35.0495C135.914 35.2135 136.259 35.3266 136.525 35.4001C136.751 35.4623 137 35.3831 137.147 35.2022L140.393 31.232L142.966 28.0932L141.971 27.3806L140.976 26.668L138.402 29.8068L135.184 33.7317Z" fill="#E52A14"/>
<path d="M139.862 28.0193C140.473 27.2728 140.332 26.2039 139.546 25.6383C139.427 25.5535 139.303 25.4856 139.172 25.4347C139.201 24.9427 138.98 24.4507 138.539 24.134L147.079 12.2121C147.339 11.8502 147.837 11.771 148.199 12.0255L156.077 17.6867C156.467 17.9694 156.524 18.5293 156.196 18.8856L146.185 29.6311C145.744 29.3144 145.179 29.2409 144.681 29.3936C144.596 29.2918 144.489 29.1957 144.376 29.1108C143.589 28.5453 142.453 28.6923 141.842 29.4445L139.862 28.0193Z" fill="#FAC66C"/>
<path d="M148.264 16.9235C147.381 15.9338 145.9 16.5502 145.786 16.8387C145.719 17.0253 146.312 18.4561 147.63 18.3487C148.411 18.2865 148.874 17.6021 148.264 16.9178" fill="#85C03B"/>
<path d="M150.223 16.6976C150.692 15.4534 149.465 14.4298 149.148 14.4637C148.95 14.4863 147.961 15.6796 148.662 16.7938C149.08 17.4555 149.9 17.5516 150.223 16.692" fill="#85C03B"/>
<path d="M150.674 19.6722C151.257 20.8655 152.846 20.6732 153.033 20.4243C153.151 20.266 152.965 18.7277 151.67 18.4675C150.9 18.3148 150.267 18.8465 150.674 19.6722Z" fill="#85C03B"/>
<path d="M149.721 18.5186C149.009 18.5186 148.438 17.9417 148.438 17.2291C148.438 16.5165 149.014 15.9453 149.727 15.9453C150.44 15.9453 151.011 16.5222 151.011 17.2348C151.011 17.9474 150.434 18.5186 149.721 18.5186Z" fill="#E52A14"/>
<path d="M149.992 18.361C149.771 19.034 149.041 19.4016 148.368 19.1811C147.695 18.9605 147.328 18.2309 147.548 17.5579C147.769 16.8849 148.499 16.5173 149.172 16.7379C149.845 16.9584 150.212 17.688 149.992 18.361Z" fill="#E52A14"/>
<path d="M149.83 18.0949C150.401 18.5134 150.531 19.3221 150.107 19.8933C149.689 20.4645 148.885 20.5946 148.309 20.1704C147.737 19.7519 147.607 18.9488 148.031 18.372C148.45 17.7951 149.253 17.6707 149.83 18.0892" fill="#E52A14"/>
<path d="M149.745 18.2747C150.322 17.8562 151.125 17.9863 151.543 18.5632C151.962 19.14 151.832 19.9431 151.255 20.3616C150.678 20.7745 149.875 20.65 149.456 20.0732C149.038 19.4963 149.168 18.6932 149.745 18.2747Z" fill="#E52A14"/>
<path d="M149.626 18.4563C149.405 17.7776 149.779 17.0537 150.457 16.8388C151.136 16.6183 151.86 16.9915 152.075 17.6702C152.295 18.3488 151.922 19.0728 151.243 19.2877C150.565 19.5082 149.841 19.135 149.626 18.4563Z" fill="#E52A14"/>
<path d="M150.25 17.9315C150.159 17.9315 150.086 17.858 150.086 17.7675C150.086 17.677 150.159 17.6035 150.25 17.6035C150.34 17.6035 150.414 17.677 150.414 17.7675C150.414 17.858 150.34 17.9315 150.25 17.9315Z" fill="#EEB64E"/>
<path d="M150.539 18.6893C150.449 18.6893 150.375 18.6158 150.375 18.5253C150.375 18.4349 150.449 18.3613 150.539 18.3613C150.629 18.3613 150.703 18.4349 150.703 18.5253C150.703 18.6158 150.629 18.6893 150.539 18.6893Z" fill="#EEB64E"/>
<path d="M149.461 17.9823C149.37 17.9823 149.297 17.9088 149.297 17.8183C149.297 17.7278 149.37 17.6543 149.461 17.6543C149.551 17.6543 149.625 17.7278 149.625 17.8183C149.625 17.9088 149.551 17.9823 149.461 17.9823Z" fill="#EEB64E"/>
<path d="M149.867 18.496C149.777 18.496 149.703 18.4225 149.703 18.332C149.703 18.2415 149.777 18.168 149.867 18.168C149.958 18.168 150.031 18.2415 150.031 18.332C150.031 18.4225 149.958 18.496 149.867 18.496Z" fill="#EEB64E"/>
<path d="M149.922 19.1464C149.831 19.1464 149.758 19.0729 149.758 18.9824C149.758 18.8919 149.831 18.8184 149.922 18.8184C150.012 18.8184 150.086 18.8919 150.086 18.9824C150.086 19.0729 150.012 19.1464 149.922 19.1464Z" fill="#EEB64E"/>
<path d="M149.242 18.7909C149.152 18.7909 149.078 18.7174 149.078 18.6269C149.078 18.5364 149.152 18.4629 149.242 18.4629C149.333 18.4629 149.406 18.5364 149.406 18.6269C149.406 18.7174 149.333 18.7909 149.242 18.7909Z" fill="#EEB64E"/>
<path d="M145.041 22.0584C145.652 23.3422 147.36 23.1556 147.558 22.8841C147.683 22.7144 147.502 21.063 146.116 20.7803C145.296 20.6106 144.612 21.1705 145.036 22.0584" fill="#85C03B"/>
<path d="M144.32 20.0402C143.053 19.3955 141.815 20.5832 141.82 20.9168C141.82 21.1317 142.974 22.3251 144.247 21.7086C144.999 21.341 145.202 20.4814 144.326 20.0346" fill="#85C03B"/>
<path d="M145.196 20.4523C145.813 20.4071 146.35 20.8652 146.395 21.4816C146.441 22.0981 145.983 22.6353 145.366 22.6806C144.75 22.7258 144.212 22.2677 144.167 21.6513C144.122 21.0348 144.58 20.4975 145.196 20.4523Z" fill="#F7F5E8"/>
<path d="M144.97 20.6063C145.117 20.0069 145.716 19.6392 146.316 19.7863C146.915 19.9333 147.283 20.5385 147.136 21.138C146.989 21.7374 146.389 22.1051 145.79 21.958C145.19 21.811 144.823 21.2115 144.97 20.6063Z" fill="#F7F5E8"/>
<path d="M145.126 20.821C144.6 20.4986 144.436 19.8087 144.759 19.2827C145.081 18.7567 145.771 18.5927 146.297 18.9151C146.823 19.2375 146.987 19.9274 146.665 20.4534C146.342 20.9794 145.652 21.1434 145.126 20.821Z" fill="#F7F5E8"/>
<path d="M145.183 20.6631C144.714 21.0646 144.007 21.0081 143.611 20.533C143.21 20.0636 143.266 19.3567 143.741 18.9608C144.211 18.5592 144.918 18.6158 145.319 19.0908C145.721 19.5603 145.658 20.2672 145.189 20.6631" fill="#F7F5E8"/>
<path d="M145.286 20.499C145.517 21.0702 145.246 21.7206 144.675 21.9581C144.104 22.1956 143.453 21.9185 143.216 21.353C142.984 20.7818 143.255 20.1314 143.826 19.8938C144.398 19.6563 145.048 19.9334 145.286 20.499Z" fill="#F7F5E8"/>
<path d="M144.771 20.9965C144.85 20.9908 144.918 21.0474 144.924 21.1266C144.929 21.2057 144.873 21.2736 144.794 21.2793C144.715 21.2849 144.647 21.2284 144.641 21.1492C144.635 21.07 144.692 21.0021 144.771 20.9965Z" fill="#EEB64E"/>
<path d="M144.482 20.3617C144.561 20.3561 144.629 20.4126 144.634 20.4918C144.64 20.571 144.583 20.6388 144.504 20.6445C144.425 20.6501 144.357 20.5936 144.352 20.5144C144.352 20.4352 144.402 20.3674 144.482 20.3617Z" fill="#EEB64E"/>
<path d="M145.458 20.8988C145.537 20.8932 145.605 20.9497 145.611 21.0289C145.617 21.1081 145.56 21.1759 145.481 21.1816C145.402 21.1873 145.334 21.1307 145.328 21.0515C145.328 20.9723 145.379 20.9045 145.458 20.8988Z" fill="#EEB64E"/>
<path d="M145.068 20.4809C145.147 20.4752 145.215 20.5318 145.22 20.6109C145.226 20.6901 145.169 20.758 145.09 20.7636C145.011 20.7693 144.943 20.7127 144.938 20.6336C144.938 20.5544 144.988 20.4865 145.068 20.4809Z" fill="#EEB64E"/>
<path d="M144.982 19.9223C145.061 19.9166 145.129 19.9732 145.134 20.0523C145.14 20.1315 145.083 20.1994 145.004 20.205C144.925 20.2107 144.857 20.1541 144.852 20.075C144.852 19.9958 144.902 19.9279 144.982 19.9223Z" fill="#EEB64E"/>
<path d="M145.591 20.1816C145.67 20.1816 145.738 20.2325 145.744 20.3117C145.749 20.3909 145.693 20.4588 145.614 20.4644C145.534 20.4701 145.467 20.4135 145.461 20.3343C145.461 20.2552 145.512 20.1873 145.591 20.1816Z" fill="#EEB64E"/>
<path d="M145.006 24.52C144.424 23.2248 142.716 23.3775 142.507 23.6377C142.376 23.8017 142.523 25.4588 143.898 25.7755C144.718 25.9621 145.408 25.4135 145.006 24.52Z" fill="#85C03B"/>
<path d="M146.19 26.6789C147.581 26.9674 148.464 25.4913 148.368 25.1689C148.311 24.9653 146.886 24.117 145.823 25.0445C145.189 25.5987 145.229 26.481 146.19 26.6789Z" fill="#85C03B"/>
<path d="M145.007 25.5883C145.34 25.068 146.03 24.921 146.551 25.2547C147.071 25.5883 147.218 26.2783 146.884 26.7986C146.551 27.3189 145.861 27.466 145.34 27.1323C144.82 26.7986 144.673 26.1086 145.007 25.5883Z" fill="#E52A14"/>
<path d="M144.993 25.8605C144.603 25.3854 144.677 24.6785 145.152 24.2882C145.627 23.898 146.334 23.9715 146.724 24.4466C147.114 24.9273 147.041 25.6286 146.566 26.0188C146.085 26.409 145.384 26.3355 144.993 25.8605Z" fill="#E52A14"/>
<path d="M145.257 25.8649C144.68 26.0911 144.035 25.8027 143.809 25.2258C143.589 24.6489 143.871 24.0042 144.448 23.778C145.025 23.5574 145.67 23.8402 145.896 24.4171C146.122 24.9939 145.834 25.6386 145.257 25.8649Z" fill="#E52A14"/>
<path d="M145.168 25.7177C145.201 26.3342 144.732 26.8601 144.116 26.8941C143.499 26.928 142.973 26.4586 142.939 25.8421C142.905 25.2257 143.375 24.6997 143.991 24.6658C144.608 24.6319 145.134 25.1013 145.168 25.7177Z" fill="#E52A14"/>
<path d="M145.094 25.549C145.687 25.7074 146.044 26.3182 145.891 26.912C145.733 27.5058 145.122 27.8621 144.528 27.7094C143.934 27.5511 143.578 26.9403 143.731 26.3464C143.889 25.7526 144.5 25.3963 145.094 25.549Z" fill="#E52A14"/>
<path d="M145.189 26.2504C145.229 26.1825 145.319 26.1656 145.382 26.2108C145.449 26.2504 145.466 26.3409 145.421 26.4031C145.382 26.471 145.291 26.4879 145.229 26.4483C145.161 26.4031 145.144 26.3183 145.189 26.2504Z" fill="#EEB64E"/>
<path d="M144.502 26.1019C144.541 26.0341 144.632 26.0171 144.694 26.0624C144.762 26.1019 144.779 26.1924 144.734 26.2546C144.694 26.3225 144.604 26.3395 144.541 26.2999C144.474 26.2546 144.457 26.1698 144.502 26.1019Z" fill="#EEB64E"/>
<path d="M145.517 25.6508C145.557 25.5829 145.648 25.5659 145.71 25.6112C145.778 25.6508 145.795 25.7413 145.749 25.8035C145.71 25.8713 145.619 25.8883 145.557 25.8487C145.489 25.8035 145.472 25.7186 145.517 25.6508Z" fill="#EEB64E"/>
<path d="M144.955 25.7074C144.995 25.6396 145.085 25.6226 145.147 25.6678C145.215 25.7074 145.232 25.7979 145.187 25.8658C145.147 25.928 145.057 25.9506 144.995 25.9054C144.927 25.8658 144.91 25.7753 144.955 25.7074Z" fill="#EEB64E"/>
<path d="M144.447 25.4418C144.487 25.3739 144.577 25.357 144.639 25.4022C144.707 25.4418 144.724 25.5323 144.679 25.5945C144.639 25.6624 144.549 25.6793 144.487 25.6397C144.419 25.5945 144.402 25.5097 144.447 25.4418Z" fill="#EEB64E"/>
<path d="M145.024 25.1137C145.063 25.0458 145.154 25.0288 145.216 25.0741C145.284 25.1137 145.301 25.2042 145.256 25.272C145.216 25.3342 145.126 25.3569 145.063 25.3116C145.001 25.2664 144.979 25.1815 145.024 25.1137Z" fill="#EEB64E"/>
<path d="M142.999 7.21902L141.8 5.73162C142.122 4.6401 142.767 3.63907 143.751 3C144.17 3.56555 144.436 4.20463 144.56 4.87763L143.214 6.03136L144.628 5.31877C144.707 6.07095 144.622 6.84576 144.407 7.56401L142.79 8.44062L144.272 7.97121C143.893 8.97789 143.254 9.84884 142.45 10.3692C141.653 9.30026 141.382 7.72236 141.681 6.24062L143.01 7.21337L142.999 7.21902Z" fill="#E89935"/>
<path d="M143.67 3.39648L142.25 11.4386" stroke="#FEFDFD" stroke-width="0.32" stroke-miterlimit="10" stroke-linecap="round"/>
<path d="M142.252 11.4378C141.664 10.7365 141.489 8.10667 141.54 7.86914C141.794 8.36683 142.162 8.83624 142.642 9.24343C143.236 9.02852 143.745 8.71747 144.152 8.33289C144.119 8.57608 143.044 10.9797 142.252 11.4434V11.4378Z" fill="#FAC66C"/>
<path d="M138.838 8.8531L138.708 6.94719C137.729 6.36467 136.576 6.07058 135.422 6.26853C135.495 6.96981 135.744 7.6202 136.106 8.19706L137.876 8.12919L136.361 8.56467C136.819 9.16981 137.401 9.67881 138.052 10.0634L139.833 9.60529L138.431 10.267C139.392 10.7477 140.45 10.9513 141.4 10.7873C141.258 9.4639 140.382 8.12354 139.16 7.23562L138.849 8.8531H138.838Z" fill="#E52A14"/>
<path d="M135.727 6.50586L142.247 11.4375" stroke="#FEFDFD" stroke-width="0.32" stroke-miterlimit="10" stroke-linecap="round"/>
<path d="M142.249 11.4389C142.198 10.5227 140.546 8.47537 140.343 8.33398C140.495 8.87126 140.546 9.47074 140.467 10.0929C139.885 10.336 139.302 10.4548 138.742 10.4492C138.934 10.6019 141.355 11.6425 142.249 11.4389Z" fill="#FAC66C"/>
<path d="M140.636 7.23129L138.837 6.59221C138.543 5.48938 138.571 4.30738 139.075 3.24414C139.725 3.50429 140.285 3.91715 140.743 4.42049L140.2 6.10584L141.031 4.76548C141.49 5.37062 141.823 6.0719 142.016 6.79581L141.094 8.38501L142.112 7.21432C142.315 8.2719 142.225 9.34645 141.806 10.2117C140.568 9.71972 139.516 8.50944 138.995 7.0899L140.636 7.22563V7.23129Z" fill="#85C03B"/>
<path d="M139.219 3.67773L142.199 11.2222" stroke="#FEFDFD" stroke-width="0.32" stroke-miterlimit="10" stroke-linecap="round"/>
<path d="M142.198 11.224C141.333 10.9299 139.806 8.7808 139.727 8.54892C140.202 8.84301 140.762 9.05226 141.384 9.14275C141.774 8.65072 142.045 8.1191 142.192 7.57617C142.289 7.80239 142.628 10.4152 142.192 11.2183L142.198 11.224Z" fill="#FAC66C"/>
<path d="M141.437 12.1402C141.234 11.6199 141.488 11.0374 142.009 10.8338C142.529 10.6302 143.111 10.8847 143.315 11.405C143.519 11.9253 143.264 12.5078 142.744 12.7171C142.223 12.9207 141.641 12.6662 141.437 12.1459" fill="#E52A14"/>
</g>
<defs>
<clipPath id="clip0_1983_3398">
<rect width="22" height="33.3789" fill="white" transform="translate(135 3)"/>
</clipPath>
</defs>
</svg>
