<svg width="353" height="276" viewBox="0 0 353 276" fill="none" xmlns="http://www.w3.org/2000/svg">
<path d="M155.877 131.916C181.777 92.7819 171.05 40.0397 131.917 14.1382C92.7639 -11.7842 40.0236 -1.05622 14.1231 38.0987C-11.7774 77.2327 -1.04989 129.975 38.0827 155.876C77.2361 181.778 129.955 171.05 155.877 131.916Z" fill="#C4DC83"/>
<path d="M138.627 142.225L236.337 206.911L239.208 208.818L241.114 205.947L257.522 181.158L259.407 178.308L256.537 176.401L158.806 111.715L155.956 109.809L154.049 112.679L137.642 137.468L135.756 140.339L138.627 142.225Z" fill="#A0D2A4"/>
<path d="M240.192 213.571L131 141.3L154.992 105.049L264.185 177.32L240.192 213.571ZM140.534 139.351L238.265 204.037L254.672 179.269L156.941 114.583L140.534 139.351Z" fill="#F6F3F9"/>
<mask id="mask0_22_74617" style="mask-type:luminance" maskUnits="userSpaceOnUse" x="130" y="107" width="115" height="91">
<path d="M146.754 107.869L130.354 132.646L228.083 197.332L244.483 172.555L146.754 107.869Z" fill="white"/>
</mask>
<g mask="url(#mask0_22_74617)">
<mask id="mask1_22_74617" style="mask-type:luminance" maskUnits="userSpaceOnUse" x="107" y="92" width="72" height="65">
<path d="M178.671 92.207H107.007V156.327H178.671V92.207Z" fill="white"/>
</mask>
<g mask="url(#mask1_22_74617)">
<g style="mix-blend-mode:multiply" opacity="0.3">
<path d="M178.671 92.207H107.007V156.327H178.671V92.207Z" fill="#231815"/>
</g>
</g>
</g>
<path d="M130.35 132.623L156.375 149.848L173.788 143.562L172.782 125.08L146.757 107.855L130.35 132.623Z" fill="#C4DC83"/>
<path d="M196.825 237.01C170.922 197.873 181.65 145.126 220.788 119.222C259.946 93.3188 312.672 104.048 338.576 143.185C364.479 182.322 353.75 235.069 314.613 260.973C275.455 286.877 222.729 276.148 196.825 237.01Z" fill="#A0D2A4"/>
</svg>
