<svg width="113" height="37" viewBox="0 0 113 37" fill="none" xmlns="http://www.w3.org/2000/svg">
<rect width="113" height="37" rx="18.5" fill="#EB91B3"/>
<path d="M23.832 19.644L22.248 19.572C21.696 19.548 20.928 19.284 20.856 18.324C20.808 17.748 20.856 16.98 21.576 16.644C21.864 16.5 22.368 16.476 22.68 16.5H23.832V11.484C23.832 11.076 23.808 10.62 23.904 10.212C23.952 10.068 24 9.924 24.072 9.78C24.264 9.468 24.408 9.3 24.768 9.18C24.912 9.132 25.128 9.108 25.272 9.108C25.8 9.108 26.208 9.372 26.472 9.828C26.712 10.236 26.688 11.388 26.688 11.508C26.712 23.172 26.688 25.476 26.688 25.476C26.688 26.268 26.664 26.604 26.424 27.348C26.256 27.828 25.896 28.188 25.2 28.188C25.008 28.188 24.672 28.14 24.504 28.02C23.856 27.612 23.832 26.124 23.832 25.644V19.644ZM30.84 12.06C30.912 14.484 30.84 16.98 30.84 19.236V25.236C30.84 26.076 30.84 26.844 30.528 27.516C30.432 27.732 30.288 27.9 30.072 28.044C29.736 28.26 29.496 28.308 29.088 28.212C28.128 27.996 28.032 26.94 28.032 26.124V11.7C28.008 10.98 28.032 9.78 28.464 9.348C28.824 9.036 29.112 8.988 29.544 8.988C30.096 8.988 30.36 9.324 30.552 9.828C30.84 10.5 30.768 11.364 30.84 12.06ZM20.592 11.316C21.672 11.316 22.416 11.34 22.848 12.204C23.064 12.612 23.088 13.116 22.944 13.476C22.776 13.884 22.416 14.148 21.984 14.22C21.36 14.292 20.832 14.316 19.56 14.268C19.536 15.3 19.56 15.684 19.56 15.852V18.612C19.56 18.876 19.608 19.356 19.608 19.548C19.824 19.788 19.992 20.364 20.232 20.652C20.472 21.012 20.76 21.396 21.072 21.852C21.24 22.116 21.432 22.404 21.552 22.62C22.008 23.412 22.632 24.396 22.824 25.332C22.896 25.74 22.848 26.316 22.536 26.628C22.344 26.868 22.08 26.964 21.792 26.964C21.216 26.964 20.616 26.484 20.28 26.1C19.8 25.5 19.392 24.852 18.96 24.204C18.696 23.748 18.312 23.148 17.928 22.764C17.616 23.244 17.256 23.748 16.968 24.276C16.608 24.9 16.248 25.524 15.792 26.052C15.24 26.7 14.712 27.012 14.232 27.012C14.088 27.012 13.968 26.988 13.872 26.94C13.584 26.868 13.368 26.628 13.248 26.316C13.08 25.836 13.152 25.164 13.344 24.708C13.56 24.228 13.824 23.772 14.088 23.34C14.256 23.1 14.424 22.812 14.592 22.548C15.072 21.66 16.2 19.956 16.488 19.572V14.268H15.576C14.616 14.268 14.112 14.268 13.92 14.22C13.488 14.124 13.104 13.764 12.96 13.236C12.816 12.804 12.864 12.348 13.08 12.012C13.32 11.652 13.68 11.412 14.016 11.34C14.136 11.316 14.328 11.316 14.496 11.316H16.584C16.608 10.74 16.656 9.492 16.896 9.012C17.208 8.412 18.12 8.124 18.672 8.436C19.32 8.82 19.512 9.684 19.512 11.316H20.592ZM35.6179 27.996C35.5939 27.996 35.5699 27.972 35.5459 27.948C35.2339 27.708 35.1379 27.108 35.1379 26.748C35.1139 26.172 35.0419 25.596 35.0419 25.044C35.0419 24.228 35.0179 23.412 35.1619 22.62C35.2579 22.116 35.4499 21.828 35.9299 21.636C36.3619 21.468 36.8179 21.372 37.2739 21.372H48.5779C49.1779 21.396 49.8499 21.42 50.4259 21.684C51.0499 21.948 51.2179 22.62 51.2659 23.244C51.3139 24.348 51.3619 26.196 51.0499 27.348C50.9539 27.708 50.8819 27.996 50.4979 28.116C50.1619 28.236 49.7539 28.26 49.4179 28.26L36.9139 28.212C36.5059 28.188 35.9779 28.236 35.6179 27.996ZM45.0019 15.588C45.0019 17.076 44.3059 18.516 43.0819 19.428C41.4499 20.628 39.2419 20.724 37.4419 19.98C35.6419 19.26 34.2499 17.676 34.2499 15.588C34.2499 14.292 34.6579 13.284 35.3299 12.492H34.8979C34.1059 12.492 33.4819 11.916 33.4819 11.22C33.4819 10.5 34.1059 9.924 34.8979 9.924H38.0659V9.156C38.0659 8.532 38.6899 8.028 39.4579 8.028C40.2259 8.028 40.8499 8.532 40.8499 9.156V9.924H44.1859C44.9779 9.924 45.6019 10.5 45.6019 11.22C45.6019 11.916 44.9779 12.492 44.1859 12.492H43.8979C44.5699 13.284 45.0019 14.316 45.0019 15.588ZM48.3379 16.092H47.7619C46.8259 16.044 46.0579 16.116 45.6499 15.492C45.4579 15.18 45.4819 14.604 45.5539 14.268C45.6499 13.908 45.8659 13.668 46.4899 13.524C46.7539 13.476 48.0739 13.428 48.3379 13.404V11.1C48.3139 10.764 48.3139 10.38 48.4099 10.044C48.4819 9.804 48.5059 9.564 48.7219 9.324C48.9859 9.012 49.4899 8.868 50.0179 8.94C50.4979 9.012 50.8579 9.228 51.0019 9.54C51.1939 9.924 51.2179 10.644 51.2179 10.764V18.828H51.1939C51.1939 18.876 51.0979 19.74 50.4739 20.124C50.2579 20.244 50.0419 20.316 49.8019 20.316C49.5139 20.316 49.2499 20.22 49.0099 20.052C48.8419 19.932 48.6979 19.788 48.6019 19.572C48.4099 19.236 48.3619 18.852 48.3379 18.516V16.092ZM40.1059 17.724C41.1139 17.532 42.0019 16.812 42.0019 15.588C42.0019 14.172 40.8259 13.428 39.6499 13.404C38.4499 13.356 37.2499 14.076 37.2499 15.588C37.2499 17.316 38.7859 17.988 40.1059 17.724ZM37.8979 25.188C37.8979 25.332 37.8979 25.5 37.9939 25.572C38.1139 25.692 38.6659 25.62 38.6659 25.62H46.1779C46.1779 25.62 47.3059 25.716 47.9059 25.644C48.2179 25.62 48.2419 25.476 48.2659 25.188C48.2899 24.924 48.3379 24.54 48.1459 24.3C47.9299 24.036 47.4499 24.084 47.1379 24.108H40.4659C39.7699 24.06 39.0979 24.084 38.4019 24.108C38.1379 24.108 38.0179 24.06 37.9459 24.348C37.8979 24.564 37.8979 24.78 37.8979 24.972C37.9219 25.02 37.8979 25.092 37.8979 25.188Z" fill="#FFE743"/>
<path d="M63.1958 17.1C63.8438 17.1 64.6358 17.148 65.5478 17.172C65.5478 16.836 65.5478 16.524 65.5718 16.212C65.5478 16.212 65.5238 16.212 65.4998 16.188C63.8918 15.54 62.6198 14.844 62.6198 12.924C62.6198 12.468 62.6678 12.06 62.7878 11.7C62.0198 11.7 61.3958 11.124 61.3958 10.404C61.3958 9.708 62.0438 9.132 62.8118 9.132H65.9798V8.34C65.9798 7.74 66.6038 7.236 67.3718 7.236C68.1398 7.236 68.7878 7.74 68.7878 8.34V9.132H72.0998C72.8918 9.132 73.5398 9.708 73.5398 10.404C73.5398 11.124 72.9158 11.676 72.1478 11.7C72.2438 12.06 72.3158 12.468 72.3158 12.924C72.3158 14.268 71.9318 14.844 70.8278 15.636C70.2758 16.044 69.5318 16.284 68.7398 16.38V17.124V17.244C69.9398 17.244 69.7478 17.172 71.4518 17.22C72.0518 17.22 72.6278 17.172 73.1798 17.412C73.5878 17.604 73.8518 18.06 73.8518 18.564C73.8518 18.972 73.6838 19.116 73.4198 19.404C72.9638 19.884 72.2438 19.86 71.6678 19.812H63.1958C63.1478 19.812 62.1398 19.836 61.7558 19.284C61.5638 19.092 61.4678 18.9 61.4678 18.564C61.4678 18.228 61.5878 17.988 61.7558 17.772C62.1158 17.364 62.7878 17.148 63.1958 17.1ZM77.6438 26.364C78.1478 26.412 78.5798 26.58 78.7238 27.084C78.9158 27.66 78.6998 28.068 78.0998 28.308C77.7158 28.452 77.3078 28.476 76.9718 28.476H65.8118C65.1638 28.476 64.4678 28.452 63.7718 28.428C63.0998 28.404 62.6198 27.9 62.5478 27.18L62.4758 25.5C62.4518 25.164 62.4278 24.588 62.7158 24.276C63.1478 23.796 64.0118 23.724 64.7078 23.724C65.6198 23.724 68.6678 23.748 75.9878 23.748V22.884H64.1798C63.8678 22.884 63.6038 22.884 63.3638 22.836C63.0758 22.764 62.8358 22.764 62.6918 22.5C62.4758 22.164 62.4038 21.852 62.5238 21.468C62.6918 20.964 63.4118 20.892 63.7718 20.844C64.0118 20.796 64.2518 20.772 64.5158 20.772C65.9558 20.772 67.6358 20.796 76.2278 20.796C77.8358 20.796 78.7478 21.276 78.7478 22.38V24.084C78.7478 24.516 78.5558 24.996 78.0518 25.284C77.6438 25.524 77.2118 25.5 76.8038 25.5H65.4278V26.364H77.6438ZM75.4118 17.964V11.796C75.3878 11.076 75.4118 9.9 75.8198 9.492C76.1798 9.18 76.5398 9.132 76.9718 9.132C77.4998 9.132 77.9798 9.468 78.1718 9.948C78.4358 10.62 78.4118 11.34 78.4358 12.036C78.4358 12.828 78.4358 13.452 78.4598 14.028C79.1558 14.028 79.8278 14.052 80.2358 14.076C81.0758 14.124 81.6518 15.396 81.1478 16.044C80.6918 16.692 79.5638 16.788 78.4838 16.74V17.7C78.4838 18.372 78.3638 18.66 78.2438 19.02C78.2198 19.116 78.1718 19.212 78.1238 19.332C78.0278 19.524 77.8838 19.716 77.6918 19.836C77.3558 20.052 76.9238 20.1 76.5158 20.028C76.3238 19.98 76.1078 19.884 75.9398 19.74C75.3878 19.212 75.4118 18.012 75.4118 17.964ZM67.2758 13.98C68.1878 14.028 69.4358 14.028 69.4358 12.924C69.4358 12.036 68.9558 11.772 68.3318 11.7H66.3638C65.7878 11.796 65.3558 12.084 65.3558 12.924C65.4038 13.98 66.3398 14.028 67.2758 13.98ZM98.2029 18.3C98.7309 18.324 99.3309 18.42 99.7869 18.78C100.003 18.948 100.123 19.236 100.123 19.524C100.123 19.836 100.003 20.244 99.8109 20.412C99.3069 20.892 98.0589 20.844 98.0109 20.844L85.2189 20.868C84.4989 20.892 83.6109 20.94 83.0829 20.508C82.7229 20.244 82.5309 19.98 82.5309 19.62C82.5309 19.188 82.8669 18.636 83.3709 18.468C84.0429 18.252 84.7629 18.324 85.4829 18.3C87.0429 18.252 87.5469 18.3 89.1549 18.3V16.932C87.8349 16.908 86.4429 16.884 85.8429 16.86C85.0509 16.884 83.6829 16.764 83.4429 15.9C83.2749 15.18 83.2029 15.276 83.2029 14.532V11.964C83.1789 12.012 83.1309 10.812 83.5389 10.164C83.9469 9.492 85.4109 9.468 85.5789 9.468H96.1389C96.8109 9.468 97.5549 9.42 98.2029 9.66C98.7309 9.876 98.8989 10.452 98.8749 11.028C98.8269 11.556 98.4669 11.988 97.9149 12.132C97.6269 12.204 97.1709 12.228 96.5709 12.228C96.1629 12.228 95.8269 12.204 95.8269 12.204H87.3309C87.1629 12.18 86.8029 12.18 86.6349 12.276C86.4669 12.348 86.4909 13.884 86.5629 14.052C86.6829 14.268 87.2109 14.244 87.5469 14.22C88.3149 14.196 89.7549 14.22 94.5789 14.22H96.3549C97.1469 14.22 97.8189 14.172 98.3469 14.436C98.6589 14.58 98.8989 14.892 98.9949 15.252C99.0669 15.636 98.9709 16.044 98.7549 16.332C98.2509 16.956 97.6509 16.86 96.9549 16.884C96.4269 16.908 94.0029 16.932 92.5149 16.932C92.5389 17.388 92.5629 17.916 92.5629 18.3C94.3389 18.3 96.8349 18.228 98.2029 18.3ZM83.2989 25.308C83.2989 22.596 86.8269 21.948 91.1469 21.948C95.4909 21.948 99.0189 22.284 99.0189 25.308C99.0189 28.284 95.4909 28.668 91.1469 28.668C86.8269 28.668 83.2989 28.284 83.2989 25.308ZM95.8509 25.308C95.8509 24.276 93.3549 24.3 91.1469 24.3C88.9629 24.3 86.6109 24.276 86.6109 25.308C86.6109 26.22 88.9629 26.316 91.1469 26.316C93.3549 26.316 95.8509 26.508 95.8509 25.308Z" fill="white"/>
</svg>
