<svg width="34" height="34" viewBox="0 0 34 34" fill="none" xmlns="http://www.w3.org/2000/svg">
<circle cx="17" cy="17" r="17" fill="#578CAF"/>
<path d="M16.8145 10.038C19.5185 10.038 20.9225 10.87 22.0405 11.728L20.4545 14.12C19.2845 13.184 18.1665 12.898 16.8145 12.898C15.1765 12.898 13.6425 13.86 13.6425 16.512V18.254C13.6425 21.166 15.4365 21.998 16.8665 21.998C18.6605 21.998 19.7525 21.53 20.7665 20.776L22.3265 23.168C21.3645 24.052 19.4405 24.884 16.8405 24.884C12.6285 24.884 10.3405 22.388 10.3405 18.306V16.512C10.3405 12.43 12.8105 10.038 16.8145 10.038Z" fill="white"/>
</svg>
