<svg width="34" height="34" viewBox="0 0 34 34" fill="none" xmlns="http://www.w3.org/2000/svg">
<circle cx="17" cy="17" r="17" fill="#578CAF"/>
<path d="M15.6319 24.884C12.5639 24.884 10.7699 23.402 10.7699 20.88V20.048C10.7699 17.708 12.1479 15.966 16.1779 15.966H19.4539V15.42C19.4539 13.652 18.6739 12.924 16.9059 12.924C15.3719 12.924 14.0459 13.418 12.8499 14.354L11.2379 11.962C12.6939 10.948 14.4879 10.038 16.9319 10.038C20.2859 10.038 22.7039 11.728 22.7039 14.614V24.676H19.7659L19.7139 22.908C19.1679 24.182 17.1399 24.884 15.6319 24.884ZM19.4539 18.904V18.514H16.2559C14.5399 18.514 13.9419 19.216 13.9419 20.334V20.646C13.9419 21.582 14.6179 22.128 15.8919 22.128C17.2699 22.128 18.1799 21.842 18.8559 21.166C19.4539 20.594 19.4539 19.97 19.4539 18.904Z" fill="white"/>
</svg>
