<svg width="34" height="34" viewBox="0 0 34 34" fill="none" xmlns="http://www.w3.org/2000/svg">
<circle cx="17" cy="17" r="17" fill="#578CAF"/>
<path d="M14.1753 25.012H14.0973V26.676H10.9773V7.02H14.2533V13.754C15.1893 12.402 17.0353 12.038 18.1793 12.038C21.8713 12.038 23.7693 14.43 23.7693 18.148V20.67C23.7693 24.544 21.4813 26.884 18.0233 26.884C16.1253 26.884 14.8253 26.104 14.1753 25.012ZM20.5193 20.306V18.668C20.5193 16.25 19.6353 14.846 17.5293 14.846C15.3453 14.846 14.2013 16.276 14.2013 18.226V21.268C14.2013 22.594 15.6313 24.102 17.6073 24.102C19.5053 24.102 20.5193 22.698 20.5193 20.306Z" fill="white"/>
</svg>
