<svg width="796" height="315" viewBox="0 0 796 315" fill="none" xmlns="http://www.w3.org/2000/svg">
<rect width="796" height="315" rx="10" fill="#F2F9F8"/>
<path d="M204.063 58.5547H113.035C106.736 58.5547 101.631 63.6601 101.631 69.9582V210.817C101.631 217.115 106.736 222.221 113.035 222.221H204.063C210.361 222.221 215.466 217.115 215.466 210.817V69.9582C215.466 63.6601 210.361 58.5547 204.063 58.5547Z" fill="#DEEFE4"/>
<mask id="mask0_442_2344" style="mask-type:luminance" maskUnits="userSpaceOnUse" x="101" y="58" width="115" height="165">
<path d="M113.033 58.5547H204.102C210.366 58.5547 215.465 63.654 215.465 69.918V210.817C215.465 217.081 210.366 222.181 204.102 222.181H113.033C106.769 222.181 101.67 217.081 101.67 210.817V69.918C101.67 63.654 106.769 58.5547 113.033 58.5547Z" fill="white"/>
</mask>
<g mask="url(#mask0_442_2344)">
<path d="M98.2148 140.398H369.131" stroke="#F8FCFB" stroke-width="4.01536"/>
</g>
<path d="M143.393 260.126C142.803 258.115 142.509 256.278 142.509 254.614C142.509 252.95 142.803 251.121 143.393 249.128C143.999 247.117 144.762 245.375 145.681 243.902H148.333C147.275 245.358 146.409 247.083 145.733 249.076C145.074 251.069 144.745 252.915 144.745 254.614C144.745 256.313 145.074 258.159 145.733 260.152C146.409 262.145 147.275 263.87 148.333 265.326H145.681C144.762 263.853 143.999 262.119 143.393 260.126ZM168.186 246.112V248.062H161.946V246.112H168.186ZM168.264 250.48V252.43H161.946V250.48H168.264ZM162.7 244.344V254.276H151.988V244.344H162.7ZM154.484 246.346V252.248H160.204V246.346H154.484ZM169.98 243.018V256.148H167.458V243.018H169.98ZM163.402 258.982V259.372C163.402 260.447 163.02 261.452 162.258 262.388C161.495 263.324 160.438 264.104 159.086 264.728C157.734 265.352 156.217 265.759 154.536 265.95L153.678 264.052C155.099 263.879 156.382 263.558 157.526 263.09C158.687 262.622 159.588 262.059 160.23 261.4C160.888 260.724 161.218 260.048 161.218 259.372V258.982H163.402ZM163.844 258.982V259.372C163.844 260.031 164.164 260.689 164.806 261.348C165.447 262.007 166.331 262.579 167.458 263.064C168.602 263.549 169.884 263.879 171.306 264.052L170.448 265.95C168.749 265.759 167.232 265.343 165.898 264.702C164.58 264.061 163.54 263.272 162.778 262.336C162.032 261.4 161.66 260.412 161.66 259.372V258.982H163.844ZM170.448 257.604V259.502H154.588V257.604H170.448ZM163.818 255.524V258.618H161.244V255.524H163.818ZM179.34 249.128C179.93 251.121 180.224 252.95 180.224 254.614C180.224 256.278 179.93 258.115 179.34 260.126C178.751 262.119 177.997 263.853 177.078 265.326H174.426C175.466 263.887 176.316 262.171 176.974 260.178C177.65 258.167 177.988 256.313 177.988 254.614C177.988 252.915 177.65 251.069 176.974 249.076C176.316 247.065 175.466 245.341 174.426 243.902H177.078C177.997 245.375 178.751 247.117 179.34 249.128Z" fill="#595757"/>
<path d="M183.542 86.1953H133.511C127.213 86.1953 122.107 91.3008 122.107 97.5988V183.206C122.107 189.504 127.213 194.61 133.511 194.61H183.542C189.841 194.61 194.946 189.504 194.946 183.206V97.5988C194.946 91.3008 189.841 86.1953 183.542 86.1953Z" fill="#DEEFE4"/>
<path d="M157.333 135.123V138.163H126.895V135.123H157.333ZM143.881 136.491V141.697H140.157V136.491H143.881ZM143.273 143.179V144.053C143.273 145.7 142.716 147.194 141.601 148.537C140.512 149.88 138.979 150.982 137.003 151.843C135.027 152.73 132.773 153.3 130.239 153.553L128.985 150.741C131.139 150.538 133.064 150.12 134.761 149.487C136.459 148.828 137.776 148.03 138.713 147.093C139.651 146.13 140.119 145.117 140.119 144.053V143.179H143.273ZM143.919 143.179V144.053C143.919 145.168 144.375 146.194 145.287 147.131C146.225 148.068 147.542 148.854 149.239 149.487C150.937 150.12 152.862 150.538 155.015 150.741L153.837 153.553C151.279 153.274 149.011 152.704 147.035 151.843C145.085 151.007 143.552 149.918 142.437 148.575C141.323 147.232 140.765 145.725 140.765 144.053V143.179H143.919ZM143.387 120.455V121.747C143.387 123.647 142.792 125.395 141.601 126.991C140.411 128.562 138.789 129.866 136.737 130.905C134.685 131.918 132.393 132.602 129.859 132.957L128.491 130.107C130.67 129.828 132.646 129.284 134.419 128.473C136.193 127.637 137.586 126.636 138.599 125.471C139.638 124.28 140.157 123.039 140.157 121.747V120.455H143.387ZM143.995 120.455V121.747C143.995 123.039 144.502 124.28 145.515 125.471C146.554 126.636 147.96 127.637 149.733 128.473C151.532 129.284 153.495 129.828 155.623 130.107L154.331 132.957C151.798 132.602 149.505 131.906 147.453 130.867C145.401 129.828 143.78 128.524 142.589 126.953C141.399 125.357 140.803 123.622 140.803 121.747V120.455H143.995ZM171.09 125.053V129.879C171.09 132.26 170.685 134.616 169.874 136.947C169.089 139.278 167.974 141.355 166.53 143.179C165.086 144.978 163.452 146.333 161.628 147.245L159.5 144.319C161.147 143.508 162.629 142.33 163.946 140.785C165.264 139.214 166.29 137.479 167.024 135.579C167.759 133.654 168.126 131.754 168.126 129.879V125.053H171.09ZM171.812 125.053V129.879C171.812 131.602 172.167 133.375 172.876 135.199C173.586 136.998 174.586 138.632 175.878 140.101C177.17 141.57 178.64 142.698 180.286 143.483L178.196 146.447C176.347 145.535 174.713 144.218 173.294 142.495C171.901 140.747 170.812 138.784 170.026 136.605C169.241 134.401 168.848 132.159 168.848 129.879V125.053H171.812ZM178.994 123.381V126.497H160.716V123.381H178.994ZM186.138 120.037V153.667H182.376V120.037H186.138ZM191.382 133.337V136.453H185.302V133.337H191.382Z" fill="#231815"/>
<path d="M218.275 123.648C215.625 123.648 213.457 125.817 213.457 128.467V152.318C213.457 154.968 215.625 157.137 218.275 157.137C220.926 157.137 223.094 154.968 223.094 152.318V128.467C223.094 125.817 220.926 123.648 218.275 123.648Z" fill="#DEEFE4"/>
<path d="M218.275 123.648C215.625 123.648 213.457 125.817 213.457 128.467V152.318C213.457 154.968 215.625 157.137 218.275 157.137C220.926 157.137 223.094 154.968 223.094 152.318V128.467C223.094 125.817 220.926 123.648 218.275 123.648Z" stroke="#F8FCFB" stroke-width="4.01536"/>
<path d="M98.8184 123.648C96.1683 123.648 94 125.817 94 128.467V152.318C94 154.968 96.1683 157.137 98.8184 157.137C101.469 157.137 103.637 154.968 103.637 152.318V128.467C103.637 125.817 101.469 123.648 98.8184 123.648Z" fill="#DEEFE4"/>
<path d="M98.8184 123.648C96.1683 123.648 94 125.817 94 128.467V152.318C94 154.968 96.1683 157.137 98.8184 157.137C101.469 157.137 103.637 154.968 103.637 152.318V128.467C103.637 125.817 101.469 123.648 98.8184 123.648Z" stroke="#F8FCFB" stroke-width="4.01536"/>
<path d="M340.142 58.5547H249.114C242.816 58.5547 237.71 63.6601 237.71 69.9582V210.817C237.71 217.115 242.816 222.221 249.114 222.221H340.142C346.44 222.221 351.545 217.115 351.545 210.817V69.9582C351.545 63.6601 346.44 58.5547 340.142 58.5547Z" fill="#DEEFE4"/>
<mask id="mask1_442_2344" style="mask-type:luminance" maskUnits="userSpaceOnUse" x="237" y="58" width="115" height="165">
<path d="M249.116 58.5636H340.185C346.449 58.5636 351.588 63.663 351.588 69.9671V210.866C351.588 217.13 346.489 222.23 340.225 222.23H249.157C242.893 222.23 237.753 217.13 237.753 210.826V69.9269C237.753 63.663 242.852 58.5234 249.157 58.5234L249.116 58.5636Z" fill="white"/>
</mask>
<g mask="url(#mask1_442_2344)">
<path d="M94.8857 140.398H365.802" stroke="#F8FCFB" stroke-width="4.01536"/>
</g>
<path d="M291.568 244.942V248.738C291.568 250.593 291.299 252.361 290.762 254.042C290.224 255.706 289.453 257.179 288.448 258.462C287.442 259.727 286.272 260.689 284.938 261.348L283.404 259.242C284.582 258.687 285.631 257.873 286.55 256.798C287.468 255.706 288.179 254.458 288.682 253.054C289.202 251.65 289.462 250.211 289.462 248.738V244.942H291.568ZM292.036 244.942V248.738C292.036 250.159 292.278 251.546 292.764 252.898C293.266 254.233 293.968 255.42 294.87 256.46C295.788 257.5 296.837 258.289 298.016 258.826L296.508 260.88C295.19 260.256 294.029 259.329 293.024 258.098C292.036 256.867 291.273 255.446 290.736 253.834C290.198 252.222 289.93 250.523 289.93 248.738V244.942H292.036ZM302.488 242.992V266.054H299.94V242.992H302.488Z" fill="#595757"/>
<path d="M354.359 123.648C351.708 123.648 349.54 125.817 349.54 128.467V152.318C349.54 154.968 351.708 157.137 354.359 157.137C357.009 157.137 359.177 154.968 359.177 152.318V128.467C359.177 125.817 357.009 123.648 354.359 123.648Z" fill="#DEEFE4"/>
<path d="M354.359 123.648C351.708 123.648 349.54 125.817 349.54 128.467V152.318C349.54 154.968 351.708 157.137 354.359 157.137C357.009 157.137 359.177 154.968 359.177 152.318V128.467C359.177 125.817 357.009 123.648 354.359 123.648Z" stroke="#F8FCFB" stroke-width="4.01536"/>
<path d="M234.901 123.648C232.251 123.648 230.083 125.817 230.083 128.467V152.318C230.083 154.968 232.251 157.137 234.901 157.137C237.552 157.137 239.72 154.968 239.72 152.318V128.467C239.72 125.817 237.552 123.648 234.901 123.648Z" fill="#DEEFE4"/>
<path d="M234.901 123.648C232.251 123.648 230.083 125.817 230.083 128.467V152.318C230.083 154.968 232.251 157.137 234.901 157.137C237.552 157.137 239.72 154.968 239.72 152.318V128.467C239.72 125.817 237.552 123.648 234.901 123.648Z" stroke="#FCFDFD" stroke-width="4.01536"/>
<path d="M533.605 58.5547H442.576C436.278 58.5547 431.173 63.6601 431.173 69.9582V210.817C431.173 217.115 436.278 222.221 442.576 222.221H533.605C539.903 222.221 545.008 217.115 545.008 210.817V69.9582C545.008 63.6601 539.903 58.5547 533.605 58.5547Z" fill="#DEEFE4"/>
<mask id="mask2_442_2344" style="mask-type:luminance" maskUnits="userSpaceOnUse" x="431" y="58" width="114" height="165">
<path d="M442.533 58.5547H533.601C539.865 58.5547 544.964 63.654 544.964 69.918V210.817C544.964 217.081 539.865 222.221 533.561 222.221H442.492C436.228 222.221 431.129 217.121 431.129 210.857V69.9582C431.129 63.6942 436.228 58.5949 442.492 58.5949L442.533 58.5547Z" fill="white"/>
</mask>
<g mask="url(#mask2_442_2344)">
<path d="M427.757 140.398H698.633" stroke="#F8FCFB" stroke-width="4.01536"/>
</g>
<path d="M472.891 260.126C472.301 258.115 472.007 256.278 472.007 254.614C472.007 252.95 472.301 251.121 472.891 249.128C473.497 247.117 474.26 245.375 475.179 243.902H477.831C476.773 245.358 475.907 247.083 475.231 249.076C474.572 251.069 474.243 252.915 474.243 254.614C474.243 256.313 474.572 258.159 475.231 260.152C475.907 262.145 476.773 263.87 477.831 265.326H475.179C474.26 263.853 473.497 262.119 472.891 260.126ZM497.684 246.112V248.062H491.444V246.112H497.684ZM497.762 250.48V252.43H491.444V250.48H497.762ZM492.198 244.344V254.276H481.486V244.344H492.198ZM483.982 246.346V252.248H489.702V246.346H483.982ZM499.478 243.018V256.148H496.956V243.018H499.478ZM492.9 258.982V259.372C492.9 260.447 492.518 261.452 491.756 262.388C490.993 263.324 489.936 264.104 488.584 264.728C487.232 265.352 485.715 265.759 484.034 265.95L483.176 264.052C484.597 263.879 485.88 263.558 487.024 263.09C488.185 262.622 489.086 262.059 489.728 261.4C490.386 260.724 490.716 260.048 490.716 259.372V258.982H492.9ZM493.342 258.982V259.372C493.342 260.031 493.662 260.689 494.304 261.348C494.945 262.007 495.829 262.579 496.956 263.064C498.1 263.549 499.382 263.879 500.804 264.052L499.946 265.95C498.247 265.759 496.73 265.343 495.396 264.702C494.078 264.061 493.038 263.272 492.276 262.336C491.53 261.4 491.158 260.412 491.158 259.372V258.982H493.342ZM499.946 257.604V259.502H484.086V257.604H499.946ZM493.316 255.524V258.618H490.742V255.524H493.316ZM508.838 249.128C509.428 251.121 509.722 252.95 509.722 254.614C509.722 256.278 509.428 258.115 508.838 260.126C508.249 262.119 507.495 263.853 506.576 265.326H503.924C504.964 263.887 505.814 262.171 506.472 260.178C507.148 258.167 507.486 256.313 507.486 254.614C507.486 252.915 507.148 251.069 506.472 249.076C505.814 247.065 504.964 245.341 503.924 243.902H506.576C507.495 245.375 508.249 247.117 508.838 249.128Z" fill="#595757"/>
<path d="M463.052 86.2043H513.123C519.387 86.2043 524.487 91.3036 524.487 97.5676V183.215C524.487 189.479 519.387 194.579 513.123 194.579H463.052C456.788 194.579 451.688 189.479 451.688 183.215V97.5676C451.688 91.3036 456.788 86.1641 463.092 86.1641L463.052 86.2043Z" fill="#DEEFE4"/>
<path d="M486.875 135.123V138.163H456.437V135.123H486.875ZM473.423 136.491V141.697H469.699V136.491H473.423ZM472.815 143.179V144.053C472.815 145.7 472.258 147.194 471.143 148.537C470.054 149.88 468.521 150.982 466.545 151.843C464.569 152.73 462.315 153.3 459.781 153.553L458.527 150.741C460.681 150.538 462.606 150.12 464.303 149.487C466.001 148.828 467.318 148.03 468.255 147.093C469.193 146.13 469.661 145.117 469.661 144.053V143.179H472.815ZM473.461 143.179V144.053C473.461 145.168 473.917 146.194 474.829 147.131C475.767 148.068 477.084 148.854 478.781 149.487C480.479 150.12 482.404 150.538 484.557 150.741L483.379 153.553C480.821 153.274 478.553 152.704 476.577 151.843C474.627 151.007 473.094 149.918 471.979 148.575C470.865 147.232 470.307 145.725 470.307 144.053V143.179H473.461ZM472.929 120.455V121.747C472.929 123.647 472.334 125.395 471.143 126.991C469.953 128.562 468.331 129.866 466.279 130.905C464.227 131.918 461.935 132.602 459.401 132.957L458.033 130.107C460.212 129.828 462.188 129.284 463.961 128.473C465.735 127.637 467.128 126.636 468.141 125.471C469.18 124.28 469.699 123.039 469.699 121.747V120.455H472.929ZM473.537 120.455V121.747C473.537 123.039 474.044 124.28 475.057 125.471C476.096 126.636 477.502 127.637 479.275 128.473C481.074 129.284 483.037 129.828 485.165 130.107L483.873 132.957C481.34 132.602 479.047 131.906 476.995 130.867C474.943 129.828 473.322 128.524 472.131 126.953C470.941 125.357 470.345 123.622 470.345 121.747V120.455H473.537ZM500.632 125.053V129.879C500.632 132.26 500.227 134.616 499.416 136.947C498.631 139.278 497.516 141.355 496.072 143.179C494.628 144.978 492.994 146.333 491.17 147.245L489.042 144.319C490.689 143.508 492.171 142.33 493.488 140.785C494.806 139.214 495.832 137.479 496.566 135.579C497.301 133.654 497.668 131.754 497.668 129.879V125.053H500.632ZM501.354 125.053V129.879C501.354 131.602 501.709 133.375 502.418 135.199C503.128 136.998 504.128 138.632 505.42 140.101C506.712 141.57 508.182 142.698 509.828 143.483L507.738 146.447C505.889 145.535 504.255 144.218 502.836 142.495C501.443 140.747 500.354 138.784 499.568 136.605C498.783 134.401 498.39 132.159 498.39 129.879V125.053H501.354ZM508.536 123.381V126.497H490.258V123.381H508.536ZM515.68 120.037V153.667H511.918V120.037H515.68ZM520.924 133.337V136.453H514.844V133.337H520.924Z" fill="#231815"/>
<path d="M547.818 123.648C545.167 123.648 542.999 125.817 542.999 128.467V152.318C542.999 154.968 545.167 157.137 547.818 157.137C550.468 157.137 552.636 154.968 552.636 152.318V128.467C552.636 125.817 550.468 123.648 547.818 123.648Z" fill="#DEEFE4"/>
<path d="M547.818 123.648C545.167 123.648 542.999 125.817 542.999 128.467V152.318C542.999 154.968 545.167 157.137 547.818 157.137C550.468 157.137 552.636 154.968 552.636 152.318V128.467C552.636 125.817 550.468 123.648 547.818 123.648Z" stroke="#F8FCFB" stroke-width="4.01536"/>
<path d="M428.36 123.648C425.71 123.648 423.542 125.817 423.542 128.467V152.318C423.542 154.968 425.71 157.137 428.36 157.137C431.011 157.137 433.179 154.968 433.179 152.318V128.467C433.179 125.817 431.011 123.648 428.36 123.648Z" fill="#DEEFE4"/>
<path d="M428.36 123.648C425.71 123.648 423.542 125.817 423.542 128.467V152.318C423.542 154.968 425.71 157.137 428.36 157.137C431.011 157.137 433.179 154.968 433.179 152.318V128.467C433.179 125.817 431.011 123.648 428.36 123.648Z" stroke="#F8FCFB" stroke-width="4.01536"/>
<path d="M669.684 58.5547H578.656C572.358 58.5547 567.252 63.6601 567.252 69.9582V210.817C567.252 217.115 572.358 222.221 578.656 222.221H669.684C675.982 222.221 681.087 217.115 681.087 210.817V69.9582C681.087 63.6601 675.982 58.5547 669.684 58.5547Z" fill="#DEEFE4"/>
<mask id="mask3_442_2344" style="mask-type:luminance" maskUnits="userSpaceOnUse" x="567" y="58" width="115" height="165">
<path d="M578.656 58.5636H669.724C675.988 58.5636 681.088 63.663 681.088 69.9269V210.826C681.088 217.09 675.988 222.23 669.684 222.23H578.616C572.352 222.23 567.212 217.13 567.212 210.826V69.9269C567.212 63.663 572.311 58.5234 578.616 58.5234L578.656 58.5636Z" fill="white"/>
</mask>
<g mask="url(#mask3_442_2344)">
<path d="M424.428 140.398H695.304" stroke="#F8FCFB" stroke-width="4.01536"/>
</g>
<path d="M633.98 255.03V257.084H613.128V255.03H633.98ZM625.036 256.096V261.218H622.462V256.096H625.036ZM631.666 263.48V265.586H615.702V263.48H631.666ZM618.224 259.294V264.312H615.702V259.294H618.224ZM618.406 243.72V246.45H628.702V243.72H631.25V253.054H615.884V243.72H618.406ZM618.406 251.026H628.702V248.4H618.406V251.026Z" fill="#595757"/>
<path d="M683.896 123.68C681.246 123.68 679.078 125.848 679.078 128.498V152.35C679.078 155 681.246 157.168 683.896 157.168C686.547 157.168 688.715 155 688.715 152.35V128.498C688.715 125.848 686.547 123.68 683.896 123.68Z" fill="#DEEFE4"/>
<path d="M683.896 123.68C681.246 123.68 679.078 125.848 679.078 128.498V152.35C679.078 155 681.246 157.168 683.896 157.168C686.547 157.168 688.715 155 688.715 152.35V128.498C688.715 125.848 686.547 123.68 683.896 123.68Z" stroke="#F8FCFB" stroke-width="4.01536"/>
<path d="M564.439 123.68C561.789 123.68 559.621 125.848 559.621 128.498V152.35C559.621 155 561.789 157.168 564.439 157.168C567.09 157.168 569.258 155 569.258 152.35V128.498C569.258 125.848 567.09 123.68 564.439 123.68Z" fill="#DEEFE4"/>
<path d="M564.439 123.68C561.789 123.68 559.621 125.848 559.621 128.498V152.35C559.621 155 561.789 157.168 564.439 157.168C567.09 157.168 569.258 155 569.258 152.35V128.498C569.258 125.848 567.09 123.68 564.439 123.68Z" stroke="#F8FCFB" stroke-width="4.01536"/>
<path d="M391.377 123.277C395.472 123.277 398.765 119.984 398.765 115.888C398.765 111.792 395.472 108.5 391.377 108.5C387.281 108.5 383.988 111.833 383.988 115.888C383.988 119.944 387.281 123.277 391.377 123.277Z" fill="#898989"/>
<path d="M391.377 172.339C395.472 172.339 398.765 169.047 398.765 164.951C398.765 160.855 395.472 157.562 391.377 157.562C387.281 157.562 383.988 160.895 383.988 164.951C383.988 169.006 387.281 172.339 391.377 172.339Z" fill="#898989"/>
<g style="mix-blend-mode:multiply">
<mask id="mask4_442_2344" style="mask-type:luminance" maskUnits="userSpaceOnUse" x="212" y="44" width="165" height="169">
<path d="M376.32 44H212.975V212.725H376.32V44Z" fill="white"/>
</mask>
<g mask="url(#mask4_442_2344)">
<path d="M328.777 72.1016H260.516C254.218 72.1016 249.112 77.207 249.112 83.5051V197.3C249.112 203.599 254.218 208.704 260.516 208.704H328.777C335.075 208.704 340.181 203.599 340.181 197.3V83.5051C340.181 77.207 335.075 72.1016 328.777 72.1016Z" fill="#C7E5D6"/>
<mask id="mask5_442_2344" style="mask-type:luminance" maskUnits="userSpaceOnUse" x="249" y="72" width="92" height="137">
<path d="M260.476 72.1016H328.777C335.041 72.1016 340.181 77.2009 340.181 83.5051V197.341C340.181 203.605 335.081 208.744 328.777 208.744H260.476C254.212 208.744 249.072 203.645 249.072 197.341V83.5051C249.072 77.2411 254.172 72.1418 260.436 72.1418L260.476 72.1016Z" fill="white"/>
</mask>
<g mask="url(#mask5_442_2344)">
<path d="M94.8818 140.398H365.798" stroke="#F8FCFB" stroke-width="4.01536"/>
</g>
</g>
</g>
<g style="mix-blend-mode:multiply">
<mask id="mask6_442_2344" style="mask-type:luminance" maskUnits="userSpaceOnUse" x="542" y="44" width="164" height="169">
<path d="M705.861 44H542.517V212.725H705.861V44Z" fill="white"/>
</mask>
<g mask="url(#mask6_442_2344)">
<path d="M658.32 72.1016H590.059C583.761 72.1016 578.655 77.207 578.655 83.5051V197.3C578.655 203.599 583.761 208.704 590.059 208.704H658.32C664.618 208.704 669.724 203.599 669.724 197.3V83.5051C669.724 77.207 664.618 72.1016 658.32 72.1016Z" fill="#C7E5D6"/>
<mask id="mask7_442_2344" style="mask-type:luminance" maskUnits="userSpaceOnUse" x="578" y="72" width="92" height="137">
<path d="M658.319 72.1016H590.058C583.76 72.1016 578.654 77.207 578.654 83.5051V197.3C578.654 203.599 583.76 208.704 590.058 208.704H658.319C664.617 208.704 669.723 203.599 669.723 197.3V83.5051C669.723 77.207 664.617 72.1016 658.319 72.1016Z" fill="white"/>
</mask>
<g mask="url(#mask7_442_2344)">
<path d="M424.425 140.398H695.301" stroke="#F8FCFB" stroke-width="4.01536"/>
</g>
</g>
</g>
</svg>
