<svg width="796" height="315" viewBox="0 0 796 315" fill="none" xmlns="http://www.w3.org/2000/svg">
<rect width="796" height="315" rx="10" fill="#F2F9F8"/>
<path d="M313.175 54H338.762C341.19 54 343.182 55.961 343.182 58.4201V74.4199C343.182 76.8478 341.19 78.84 338.762 78.84H313.175C310.747 78.84 308.755 76.879 308.755 74.4199V58.4201C308.755 55.9921 310.716 54 313.175 54Z" fill="#B1DBCB"/>
<path d="M313.175 54H338.762C341.19 54 343.182 55.961 343.182 58.4201V74.4199C343.182 76.8478 341.19 78.84 338.762 78.84H313.175C310.747 78.84 308.755 76.879 308.755 74.4199V58.4201C308.755 55.9921 310.716 54 313.175 54Z" stroke="#B1DBCB" stroke-width="0.87158"/>
<path d="M343.183 63.0469H140.229C132.923 63.0469 127 68.9699 127 76.2762V154.625C127 161.932 132.923 167.855 140.229 167.855H343.183C350.489 167.855 356.412 161.932 356.412 154.625V76.2762C356.412 68.9699 350.489 63.0469 343.183 63.0469Z" fill="#D3D3D4"/>
<path d="M149.039 71.3359H334.343C341.658 71.3359 347.572 77.2814 347.572 84.5653V146.323C347.572 153.638 341.627 159.552 334.343 159.552H149.039C141.724 159.552 135.81 153.607 135.81 146.323V84.5653C135.81 77.2502 141.755 71.3359 149.039 71.3359Z" fill="#FFF3DB"/>
<path d="M149.039 71.3359H334.343C341.658 71.3359 347.572 77.2814 347.572 84.5653V146.323C347.572 153.638 341.627 159.552 334.343 159.552H149.039C141.724 159.552 135.81 153.607 135.81 146.323V84.5653C135.81 77.2502 141.755 71.3359 149.039 71.3359Z" stroke="#B5B5B6" stroke-width="2.49023"/>
<path d="M191.215 117.24L193.021 115.31L194.826 117.24V132.804L193.021 134.765L191.215 132.804V117.24ZM191.215 97.0695L193.021 95.1084L194.826 97.0695V112.664L193.021 114.594L191.215 112.664V97.0695ZM190.904 133.147L192.709 135.076L190.904 137.006H176.399L174.593 135.076L176.399 133.147H190.904ZM190.904 96.7269H176.399L174.593 94.7658L176.399 92.8359H190.904L192.709 94.7658L190.904 96.7269ZM172.445 117.24L174.251 115.31L176.056 117.24V132.804L174.251 134.765L172.445 132.804V117.24ZM172.445 97.0695L174.251 95.1084L176.056 97.0695V112.664L174.251 114.594L172.445 112.664V97.0695Z" fill="#3E3A39"/>
<path d="M191.215 117.24L193.021 115.31L194.826 117.24V132.804L193.021 134.765L191.215 132.804V117.24ZM191.215 97.0695L193.021 95.1084L194.826 97.0695V112.664L193.021 114.594L191.215 112.664V97.0695ZM190.904 133.147L192.709 135.076L190.904 137.006H176.399L174.593 135.076L176.399 133.147H190.904ZM190.904 96.7269H176.399L174.593 94.7658L176.399 92.8359H190.904L192.709 94.7658L190.904 96.7269ZM172.445 117.24L174.251 115.31L176.056 117.24V132.804L174.251 134.765L172.445 132.804V117.24ZM172.445 97.0695L174.251 95.1084L176.056 97.0695V112.664L174.251 114.594L172.445 112.664V97.0695Z" stroke="#3E3A39" stroke-width="0.933836" stroke-linecap="round" stroke-linejoin="round"/>
<path d="M202.64 117.211L204.445 115.281L206.25 117.211V132.806L204.445 134.736L202.64 132.806V117.211Z" fill="#3E3A39"/>
<path d="M202.64 117.211L204.445 115.281L206.25 117.211V132.806L204.445 134.736L202.64 132.806V117.211Z" stroke="#3E3A39" stroke-width="0.933836" stroke-linecap="round" stroke-linejoin="round"/>
<path d="M221.411 97.0783L223.217 95.1484L225.022 97.0783V112.673L223.217 114.603L221.411 112.673V97.0783Z" fill="#3E3A39"/>
<path d="M221.411 97.0783L223.217 95.1484L225.022 97.0783V112.673L223.217 114.603L221.411 112.673V97.0783Z" stroke="#3E3A39" stroke-width="0.933836" stroke-linecap="round" stroke-linejoin="round"/>
<path d="M221.067 133.156L222.903 135.086L221.067 137.047H206.592L204.756 135.086L206.592 133.156H221.067Z" fill="#3E3A39"/>
<path d="M221.067 133.156L222.903 135.086L221.067 137.047H206.592L204.756 135.086L206.592 133.156H221.067Z" stroke="#3E3A39" stroke-width="0.933836" stroke-linecap="round" stroke-linejoin="round"/>
<path d="M221.067 96.7269H206.592L204.756 94.797L206.592 92.8359H221.067L222.903 94.797L221.067 96.7269Z" fill="#3E3A39"/>
<path d="M221.067 96.7269H206.592L204.756 94.797L206.592 92.8359H221.067L222.903 94.797L221.067 96.7269Z" stroke="#3E3A39" stroke-width="0.933836" stroke-linecap="round" stroke-linejoin="round"/>
<path d="M221.099 113.242L222.936 115.172L221.099 117.102H206.625L204.819 115.172L206.625 113.242H221.099Z" fill="#3E3A39"/>
<path d="M221.099 113.242L222.936 115.172L221.099 117.102H206.625L204.819 115.172L206.625 113.242H221.099Z" stroke="#3E3A39" stroke-width="0.933836" stroke-linecap="round" stroke-linejoin="round"/>
<path d="M275.884 117.24L277.69 115.31L279.495 117.24V132.804L277.69 134.765L275.884 132.804V117.24ZM275.884 97.0695L277.69 95.1084L279.495 97.0695V112.664L277.69 114.594L275.884 112.664V97.0695ZM275.573 133.147L277.379 135.076L275.573 137.006H261.068L259.262 135.076L261.068 133.147H275.573ZM275.573 96.7269H261.068L259.262 94.7658L261.068 92.8359H275.573L277.379 94.7658L275.573 96.7269ZM257.114 117.24L258.92 115.31L260.725 117.24V132.804L258.92 134.765L257.114 132.804V117.24ZM257.114 97.0695L258.92 95.1084L260.725 97.0695V112.664L258.92 114.594L257.114 112.664V97.0695Z" fill="#3E3A39"/>
<path d="M275.884 117.24L277.69 115.31L279.495 117.24V132.804L277.69 134.765L275.884 132.804V117.24ZM275.884 97.0695L277.69 95.1084L279.495 97.0695V112.664L277.69 114.594L275.884 112.664V97.0695ZM275.573 133.147L277.379 135.076L275.573 137.006H261.068L259.262 135.076L261.068 133.147H275.573ZM275.573 96.7269H261.068L259.262 94.7658L261.068 92.8359H275.573L277.379 94.7658L275.573 96.7269ZM257.114 117.24L258.92 115.31L260.725 117.24V132.804L258.92 134.765L257.114 132.804V117.24ZM257.114 97.0695L258.92 95.1084L260.725 97.0695V112.664L258.92 114.594L257.114 112.664V97.0695Z" stroke="#3E3A39" stroke-width="0.933836" stroke-linecap="round" stroke-linejoin="round"/>
<path d="M307.324 117.24L309.129 115.31L310.935 117.24V132.804L309.129 134.765L307.324 132.804V117.24ZM307.324 97.0695L309.129 95.1084L310.935 97.0695V112.664L309.129 114.594L307.324 112.664V97.0695ZM307.013 133.147L308.818 135.076L307.013 137.006H292.507L290.702 135.076L292.507 133.147H307.013ZM307.013 96.7269H292.507L290.702 94.7658L292.507 92.8359H307.013L308.818 94.7658L307.013 96.7269ZM288.585 117.24L290.39 115.31L292.196 117.24V132.804L290.39 134.765L288.585 132.804V117.24ZM288.585 97.0695L290.39 95.1084L292.196 97.0695V112.664L290.39 114.594L288.585 112.664V97.0695Z" fill="#3E3A39"/>
<path d="M307.324 117.24L309.129 115.31L310.935 117.24V132.804L309.129 134.765L307.324 132.804V117.24ZM307.324 97.0695L309.129 95.1084L310.935 97.0695V112.664L309.129 114.594L307.324 112.664V97.0695ZM307.013 133.147L308.818 135.076L307.013 137.006H292.507L290.702 135.076L292.507 133.147H307.013ZM307.013 96.7269H292.507L290.702 94.7658L292.507 92.8359H307.013L308.818 94.7658L307.013 96.7269ZM288.585 117.24L290.39 115.31L292.196 117.24V132.804L290.39 134.765L288.585 132.804V117.24ZM288.585 97.0695L290.39 95.1084L292.196 97.0695V112.664L290.39 114.594L288.585 112.664V97.0695Z" stroke="#3E3A39" stroke-width="0.933836" stroke-linecap="round" stroke-linejoin="round"/>
<path d="M241.269 108.548C242.826 108.548 244.102 107.272 244.102 105.715C244.102 104.159 242.826 102.883 241.269 102.883C239.713 102.883 238.437 104.159 238.437 105.715C238.437 107.272 239.713 108.548 241.269 108.548Z" fill="#3E3A39"/>
<path d="M241.269 127.025C242.826 127.025 244.102 125.748 244.102 124.192C244.102 122.636 242.826 121.359 241.269 121.359C239.713 121.359 238.437 122.636 238.437 124.192C238.437 125.748 239.713 127.025 241.269 127.025Z" fill="#3E3A39"/>
<path d="M617.174 54H642.761C645.189 54 647.181 55.961 647.181 58.4201V74.4199C647.181 76.8478 645.189 78.84 642.761 78.84H617.174C614.746 78.84 612.754 76.879 612.754 74.4199V58.4201C612.754 55.9921 614.715 54 617.174 54Z" fill="#B1DBCB"/>
<path d="M617.174 54H642.761C645.189 54 647.181 55.961 647.181 58.4201V74.4199C647.181 76.8478 645.189 78.84 642.761 78.84H617.174C614.746 78.84 612.754 76.879 612.754 74.4199V58.4201C612.754 55.9921 614.715 54 617.174 54Z" stroke="#B1DBCB" stroke-width="0.87158"/>
<path d="M647.183 63.0469H444.229C436.923 63.0469 431 68.9699 431 76.2762V154.625C431 161.932 436.923 167.855 444.229 167.855H647.183C654.489 167.855 660.412 161.932 660.412 154.625V76.2762C660.412 68.9699 654.489 63.0469 647.183 63.0469Z" fill="#D3D3D4"/>
<path d="M638.343 71.3359H453.039C445.733 71.3359 439.81 77.2589 439.81 84.5653V146.354C439.81 153.66 445.733 159.583 453.039 159.583H638.343C645.65 159.583 651.572 153.66 651.572 146.354V84.5653C651.572 77.2589 645.65 71.3359 638.343 71.3359Z" fill="#FFF3DB"/>
<path d="M638.343 71.3359H453.039C445.733 71.3359 439.81 77.2589 439.81 84.5653V146.354C439.81 153.66 445.733 159.583 453.039 159.583H638.343C645.65 159.583 651.572 153.66 651.572 146.354V84.5653C651.572 77.2589 645.65 71.3359 638.343 71.3359Z" stroke="#B5B5B6" stroke-width="2.49023"/>
<path d="M536.396 108.548C537.953 108.548 539.229 107.272 539.229 105.715C539.229 104.159 537.953 102.883 536.396 102.883C534.84 102.883 533.563 104.159 533.563 105.715C533.563 107.272 534.84 108.548 536.396 108.548Z" fill="#3E3A39"/>
<path d="M536.396 127.025C537.953 127.025 539.229 125.748 539.229 124.192C539.229 122.636 537.953 121.359 536.396 121.359C534.84 121.359 533.563 122.636 533.563 124.192C533.563 125.748 534.84 127.025 536.396 127.025Z" fill="#3E3A39"/>
<path d="M571.012 97.0783L572.817 95.1484L574.622 97.0783V112.673L572.817 114.603L571.012 112.673V97.0783Z" fill="#3E3A39"/>
<path d="M571.012 97.0783L572.817 95.1484L574.622 97.0783V112.673L572.817 114.603L571.012 112.673V97.0783Z" stroke="#3E3A39" stroke-width="0.933836" stroke-linecap="round" stroke-linejoin="round"/>
<path d="M552.274 117.211L554.08 115.281L555.885 117.211V132.806L554.08 134.736L552.274 132.806V117.211Z" fill="#3E3A39"/>
<path d="M552.274 117.211L554.08 115.281L555.885 117.211V132.806L554.08 134.736L552.274 132.806V117.211Z" stroke="#3E3A39" stroke-width="0.933836" stroke-linecap="round" stroke-linejoin="round"/>
<path d="M570.702 96.7269H556.196L554.391 94.797L556.196 92.8359H570.702L572.507 94.797L570.702 96.7269Z" fill="#3E3A39"/>
<path d="M570.702 96.7269H556.196L554.391 94.797L556.196 92.8359H570.702L572.507 94.797L570.702 96.7269Z" stroke="#3E3A39" stroke-width="0.933836" stroke-linecap="round" stroke-linejoin="round"/>
<path d="M570.702 133.156L572.507 135.086L570.702 137.047H556.196L554.391 135.086L556.196 133.156H570.702Z" fill="#3E3A39"/>
<path d="M570.702 133.156L572.507 135.086L570.702 137.047H556.196L554.391 135.086L556.196 133.156H570.702Z" stroke="#3E3A39" stroke-width="0.933836" stroke-linecap="round" stroke-linejoin="round"/>
<path d="M570.731 113.242L572.568 115.172L570.731 117.102H556.257L554.451 115.172L556.257 113.242H570.731Z" fill="#3E3A39"/>
<path d="M570.731 113.242L572.568 115.172L570.731 117.102H556.257L554.451 115.172L556.257 113.242H570.731Z" stroke="#3E3A39" stroke-width="0.933836" stroke-linecap="round" stroke-linejoin="round"/>
<path d="M603.789 116.865L605.594 114.935L607.4 116.865V132.429L605.594 134.39L603.789 132.429V116.865ZM603.789 96.7255L605.594 94.7645L607.4 96.7255V112.321L605.594 114.251L603.789 112.321V96.7255ZM603.477 132.772L605.283 134.702L603.477 136.631H588.972L587.166 134.702L588.972 132.772H603.477ZM603.477 96.3832H588.972L587.166 94.4221L588.972 92.4922H603.477L605.283 94.4221L603.477 96.3832ZM585.05 116.865L586.855 114.935L588.661 116.865V132.429L586.855 134.39L585.05 132.429V116.865ZM585.05 96.7255L586.855 94.7645L588.661 96.7255V112.321L586.855 114.251L585.05 112.321V96.7255Z" fill="#3E3A39"/>
<path d="M603.789 116.865L605.594 114.935L607.4 116.865V132.429L605.594 134.39L603.789 132.429V116.865ZM603.789 96.7255L605.594 94.7645L607.4 96.7255V112.321L605.594 114.251L603.789 112.321V96.7255ZM603.477 132.772L605.283 134.702L603.477 136.631H588.972L587.166 134.702L588.972 132.772H603.477ZM603.477 96.3832H588.972L587.166 94.4221L588.972 92.4922H603.477L605.283 94.4221L603.477 96.3832ZM585.05 116.865L586.855 114.935L588.661 116.865V132.429L586.855 134.39L585.05 132.429V116.865ZM585.05 96.7255L586.855 94.7645L588.661 96.7255V112.321L586.855 114.251L585.05 112.321V96.7255Z" stroke="#3E3A39" stroke-width="0.933836" stroke-linecap="round" stroke-linejoin="round"/>
<path d="M484.413 117.185L486.219 115.224L488.024 117.185V135.022L486.219 136.952L484.413 135.022V117.185ZM486.219 92.8125L488.024 94.7734V112.61L486.219 114.54L484.413 112.61V94.7734L486.219 92.8125Z" fill="#3E3A39"/>
<path d="M484.413 117.185L486.219 115.224L488.024 117.185V135.022L486.219 136.952L484.413 135.022V117.185ZM486.219 92.8125L488.024 94.7734V112.61L486.219 114.54L484.413 112.61V94.7734L486.219 92.8125Z" stroke="#3E3A39" stroke-width="0.933836" stroke-linecap="round" stroke-linejoin="round"/>
<path d="M516.538 97.0783L518.344 95.1484L520.149 97.0783V112.673L518.344 114.603L516.538 112.673V97.0783Z" fill="#3E3A39"/>
<path d="M516.538 97.0783L518.344 95.1484L520.149 97.0783V112.673L518.344 114.603L516.538 112.673V97.0783Z" stroke="#3E3A39" stroke-width="0.933836" stroke-linecap="round" stroke-linejoin="round"/>
<path d="M497.768 117.211L499.604 115.281L501.41 117.211V132.806L499.604 134.736L497.768 132.806V117.211Z" fill="#3E3A39"/>
<path d="M497.768 117.211L499.604 115.281L501.41 117.211V132.806L499.604 134.736L497.768 132.806V117.211Z" stroke="#3E3A39" stroke-width="0.933836" stroke-linecap="round" stroke-linejoin="round"/>
<path d="M516.227 96.7269H501.721L499.916 94.797L501.721 92.8359H516.227L518.032 94.797L516.227 96.7269Z" fill="#3E3A39"/>
<path d="M516.227 96.7269H501.721L499.916 94.797L501.721 92.8359H516.227L518.032 94.797L516.227 96.7269Z" stroke="#3E3A39" stroke-width="0.933836" stroke-linecap="round" stroke-linejoin="round"/>
<path d="M516.227 133.156L518.032 135.086L516.227 137.047H501.721L499.916 135.086L501.721 133.156H516.227Z" fill="#3E3A39"/>
<path d="M516.227 133.156L518.032 135.086L516.227 137.047H501.721L499.916 135.086L501.721 133.156H516.227Z" stroke="#3E3A39" stroke-width="0.933836" stroke-linecap="round" stroke-linejoin="round"/>
<path d="M516.258 113.242L518.095 115.172L516.258 117.102H501.753L499.947 115.172L501.753 113.242H516.258Z" fill="#3E3A39"/>
<path d="M516.258 113.242L518.095 115.172L516.258 117.102H501.753L499.947 115.172L501.753 113.242H516.258Z" stroke="#3E3A39" stroke-width="0.933836" stroke-linecap="round" stroke-linejoin="round"/>
</svg>
