<svg width="82" height="42" viewBox="0 0 82 42" fill="none" xmlns="http://www.w3.org/2000/svg">
<path d="M70.1127 0H11.6714C5.23153 0 0 5.27409 0 11.7802V30.2337C0 36.7397 5.23153 42 11.6714 42H70.3286C76.7822 42 82 36.7259 82 30.2337V9.90587L70.1127 0Z" fill="#B1DBCB"/>
<rect x="60" y="8.5625" width="12" height="2.88" rx="1.44" fill="#FFF100"/>
<rect x="67.4385" y="4" width="12" height="2.88" rx="1.44" transform="rotate(90 67.4385 4)" fill="#FFF100"/>
<path d="M29.696 22.328C30.048 22.328 30.368 22.424 30.816 22.52C31.168 22.616 31.52 22.776 31.776 22.936C32.064 23.224 32.224 23.576 32.224 23.992C32.224 24.184 32.224 24.44 32.128 24.696C32.064 24.952 31.968 25.144 31.776 25.24C31.712 25.4 31.424 25.496 31.168 25.592C30.912 25.656 30.656 25.752 30.368 25.752C30.048 25.752 29.76 25.848 29.408 25.848C29.248 25.848 12.416 25.848 12.416 25.848C11.904 25.848 11.36 25.848 10.848 25.848C10.24 25.848 9.6 25.656 9.184 25.24C8.832 24.696 8.736 23.736 9.088 23.224C9.248 22.872 9.6 22.68 9.888 22.616C10.4 22.424 10.848 22.328 11.264 22.328C11.712 22.328 12.256 22.328 12.768 22.328C13.216 22.328 18.016 22.328 18.016 22.328V20.408C17.952 20.504 17.76 20.408 17.504 20.408H16.544C15.584 20.408 14.784 20.408 13.728 20.408C13.28 20.408 12.608 20.408 12.16 20.312C11.712 20.248 11.264 20.152 10.912 19.896C10.656 19.704 10.496 19.448 10.304 19.192C10.24 18.84 10.144 18.584 10.048 18.296C9.952 18.04 9.952 17.784 9.888 17.528C9.888 17.336 9.888 17.176 9.888 17.176V11.032C9.888 10.68 10.048 10.232 10.24 9.88C10.4 9.464 10.752 9.272 11.2 9.176C11.456 9.176 11.968 9.112 12.256 9.112C12.512 9.176 12.672 9.176 12.928 9.272C13.728 9.624 13.728 10.584 13.728 11.384C13.728 11.544 13.728 11.832 13.728 11.992C13.728 12.248 13.728 12.44 13.728 12.44C13.728 12.44 27.232 12.6 27.488 12.536C27.488 12.44 27.392 12.344 27.488 12.184C27.488 11.992 27.488 11.832 27.488 11.544V11.192V10.776C27.488 10.424 27.488 10.168 27.68 9.816C27.84 9.528 28.352 9.272 28.704 9.176C29.504 9.016 30.112 9.112 30.56 9.464C31.008 9.88 31.168 10.424 31.168 11.192V12.792C31.168 13.4 31.168 14.008 31.168 14.616C31.168 15.224 31.168 15.864 31.168 16.472C31.168 17.08 31.168 17.592 31.072 18.136C31.072 18.392 31.008 18.648 30.912 18.84C30.816 19.096 30.72 19.256 30.56 19.544C30.208 20.056 29.504 20.248 28.992 20.312C28.64 20.312 28.352 20.408 28.032 20.408C27.392 20.408 26.88 20.408 26.272 20.408C26.016 20.408 23.808 20.408 23.456 20.408C23.2 20.408 22.848 20.408 22.592 20.408C22.592 20.664 22.592 21.272 22.592 21.56V22.328C23.2 22.328 23.36 22.328 24.064 22.328C24.768 22.328 25.472 22.328 26.08 22.328H28.096C28.704 22.328 29.248 22.328 29.696 22.328ZM18.208 30.648H29.952C30.048 30.648 30.048 30.648 30.208 30.648C30.304 30.744 30.464 30.84 30.656 30.936C30.816 31 30.912 31.096 31.072 31.288C31.168 31.448 31.264 31.64 31.36 31.896C31.424 32.664 31.36 33.304 31.008 33.72C30.72 34.072 30.464 34.264 30.208 34.264C29.952 34.36 29.76 34.36 29.76 34.36H12.256C11.456 34.36 10.848 34.264 10.4 34.008C9.888 33.72 9.696 33.304 9.696 32.856V29.976C9.6 29.528 9.6 29.08 9.696 28.568C9.696 28.12 9.888 27.768 10.144 27.512C10.496 27.16 10.848 27.064 11.264 27.064C11.36 27.064 11.552 27.064 11.712 27.064C11.904 27.064 12.064 27.064 12.16 27.16C12.416 27.256 12.672 27.32 12.768 27.512C12.928 27.672 13.024 27.864 13.12 28.12C13.216 28.376 13.28 28.568 13.28 28.824C13.28 29.08 13.376 29.336 13.376 29.528C13.376 29.688 13.376 29.88 13.376 30.04C13.376 30.232 13.472 30.392 13.472 30.584C13.568 30.584 13.728 30.648 14.08 30.648C14.432 30.648 14.944 30.648 15.744 30.648C16.352 30.648 16.96 30.648 17.408 30.648C17.952 30.648 18.208 30.648 18.208 30.648ZM13.92 17.176C14.08 17.432 14.336 17.528 14.688 17.528C14.944 17.528 15.232 17.528 15.488 17.528C16.448 17.528 17.248 17.528 18.112 17.528C18.464 17.528 18.816 17.528 19.168 17.528H20.224H21.088C21.344 17.528 26.88 17.528 26.976 17.528C27.136 17.528 27.232 17.528 27.328 17.432C27.392 17.336 27.488 17.176 27.488 16.984C27.488 16.824 27.488 16.728 27.488 16.568C27.488 16.472 27.488 15.576 27.488 15.576C27.488 15.576 19.68 15.576 19.168 15.576C18.56 15.576 15.488 15.576 14.944 15.576C14.592 15.576 13.728 15.576 13.728 15.576C13.728 15.576 13.728 16.408 13.728 16.504C13.824 16.664 13.824 17.08 13.92 17.176ZM36.782 18.424C36.718 18.424 36.686 18.392 36.686 18.36C36.27 18.04 36.142 17.24 36.142 16.76C36.11 15.992 36.014 15.224 36.014 14.488C36.014 13.4 35.982 12.088 36.174 11.032C36.302 10.36 36.558 9.976 37.198 9.72C37.774 9.496 38.382 9.432 38.99 9.368C39.726 9.304 40.494 9.368 41.262 9.368H47.342C49.518 9.368 49.23 9.368 51.374 9.336C51.758 9.336 52.11 9.336 52.494 9.368C53.294 9.4 54.19 9.432 54.926 9.784C55.758 10.136 56.014 11.032 56.046 11.864C56.11 12.824 56.014 14.04 56.014 15C55.982 15.864 56.014 16.728 55.79 17.56C55.662 18.04 55.566 18.424 55.054 18.584C54.606 18.744 54.03 18.776 53.582 18.776H39.758C39.342 18.776 38.926 18.744 38.51 18.712C37.966 18.68 37.262 18.744 36.782 18.424ZM54.542 24.536C52.43 24.6 50.766 24.664 48.622 24.664C48.59 25.56 48.526 26.392 48.526 27.608C48.334 28.504 47.15 29.048 46.286 29.016C45.006 28.952 44.302 28.44 44.174 27.16C44.078 26.328 44.206 25.432 44.206 24.6C42.254 24.6 37.134 24.536 35.342 24.408C34.67 24.344 34.35 24.312 33.806 23.8C33.518 23.544 33.39 23.064 33.39 22.616C33.39 22.2 33.55 21.784 33.806 21.528C34.446 20.856 36.014 20.888 36.078 20.888H54.382C55.022 20.888 55.662 20.888 56.27 20.92C56.846 20.952 57.486 21.048 57.934 21.464C58.382 21.816 58.382 22.232 58.382 22.744C58.382 23.384 57.998 23.928 57.358 24.152C56.494 24.472 55.438 24.504 54.542 24.536ZM55.438 30.584C55.502 30.616 56.686 30.904 56.814 31.8C56.942 32.6 56.814 33.24 56.43 33.688C55.95 34.296 55.246 34.328 55.214 34.328H37.742C36.11 34.328 35.118 33.752 35.118 32.792V29.944C35.086 29.464 35.086 28.984 35.118 28.504C35.182 27.608 35.854 27 36.75 27C36.974 27 37.422 27.032 37.614 27.096C38.702 27.448 38.766 28.536 38.83 29.496C38.83 29.848 38.862 30.232 38.958 30.52C39.054 30.552 39.694 30.648 41.198 30.648C42.478 30.648 43.662 30.584 43.694 30.584H55.438ZM39.822 14.68C39.822 14.872 39.822 15.096 39.918 15.192C40.11 15.352 40.846 15.256 40.846 15.256H49.262C49.262 15.256 50.798 15.384 51.566 15.288C52.014 15.256 52.014 15.064 52.078 14.68C52.11 14.328 52.174 13.592 51.918 13.272C51.63 12.92 50.958 12.984 50.574 13.016H47.662C47.374 12.984 43.502 13.016 43.214 13.016C42.318 12.952 41.422 12.984 40.494 13.016C40.11 13.016 39.982 12.952 39.886 13.336C39.822 13.624 39.822 14.136 39.822 14.392V14.68Z" fill="#3A958E"/>
</svg>
