<svg width="203" height="95" viewBox="0 0 203 95" fill="none" xmlns="http://www.w3.org/2000/svg">
<g clip-path="url(#clip0_298_13)">
<path d="M17.9492 41.2492C17.9707 40.7885 18.1854 40.5791 18.6148 40.6C22.8873 40.8932 27.1383 40.8932 31.4108 40.6C31.8187 40.5791 32.0549 40.7885 32.0763 41.2492C32.0978 41.6681 31.9046 41.8985 31.4752 41.9194C27.1812 42.1917 22.8873 42.1917 18.5718 41.9194C18.1424 41.8985 17.9492 41.6681 17.9707 41.2492H17.9492ZM19.7742 44.5583C19.6883 43.9719 19.86 43.6158 20.2894 43.4902C20.8691 43.3226 21.1912 43.5111 21.277 44.0766L21.4917 45.9196C21.5561 46.506 21.8567 46.7992 22.3935 46.7992C25.2275 46.883 27.6106 46.883 29.5429 46.7992C30.0152 46.7783 30.2514 46.9668 30.2514 47.3438C30.2514 47.8255 30.0152 48.0768 29.5429 48.1187C26.8162 48.2443 24.1969 48.2443 21.6635 48.1187C20.6974 48.0768 20.1606 47.616 20.0318 46.7364L19.7742 44.5374V44.5583ZM19.7742 33.8353C19.7527 33.3536 20.0103 33.1023 20.5685 33.0813C21.0623 33.0813 21.32 33.2908 21.3414 33.7306L21.3844 36.4113C21.3844 36.9977 21.642 37.3119 22.1573 37.3538C24.0681 37.5632 26.6015 37.5213 29.7147 37.1862C30.1655 37.1443 30.4232 37.3119 30.509 37.7098C30.5735 38.1496 30.4017 38.401 29.9723 38.4638C26.7089 38.8826 23.8749 38.9455 21.4703 38.6732C20.4397 38.5476 19.903 38.0659 19.8815 37.2072L19.8171 33.8144L19.7742 33.8353ZM37.4867 41.0398C37.5082 40.6 37.7229 40.3906 38.1523 40.4115C40.9434 40.6 43.7559 40.6 46.5684 40.4115C46.9978 40.3906 47.2125 40.6 47.234 41.0398C47.2555 41.4587 47.0623 41.6891 46.6329 41.71C45.4735 41.7938 44.3141 41.8357 43.1548 41.8566V42.6106C43.1548 43.1132 42.8971 43.3855 42.3604 43.3855C41.8236 43.3855 41.566 43.1341 41.566 42.6106V41.8566C40.4066 41.8566 39.2472 41.7938 38.0879 41.71C37.6585 41.6891 37.4653 41.4587 37.4867 41.0398ZM46.2679 35.9296C46.2679 37.9193 44.8938 38.9455 42.1671 39.0083C39.4405 39.0502 38.0879 38.0868 38.0879 36.0972C38.0879 34.1076 39.4619 33.0604 42.1671 33.0185C44.8938 32.9557 46.2679 33.9191 46.2679 35.9296ZM42.1671 37.7098C43.8418 37.647 44.6791 37.0606 44.6791 35.9087C44.6791 34.7568 43.8418 34.2123 42.1671 34.2751C40.4925 34.3379 39.6552 34.9244 39.6552 36.0762C39.6552 37.2281 40.4925 37.7727 42.1671 37.7098ZM40.4281 44.9143C40.3422 44.3279 40.514 43.9719 40.9648 43.8462C41.5445 43.6787 41.8666 43.8462 41.931 44.4117L42.1027 45.9196C42.1671 46.506 42.4677 46.7992 43.0045 46.7992C45.2159 46.904 47.4272 46.904 49.5957 46.7992C50.068 46.7783 50.2827 46.9668 50.2827 47.3438C50.2827 47.8255 50.0466 48.0768 49.5957 48.1187C47.3843 48.2443 44.9582 48.2443 42.2745 48.1187C41.3084 48.0768 40.7716 47.616 40.6428 46.7364L40.4066 44.8934L40.4281 44.9143ZM48.7798 35.3851C48.7369 34.8825 48.7154 34.3589 48.694 33.8353C48.651 33.3745 48.8872 33.1442 49.4025 33.1023C49.9177 33.0604 50.1754 33.2698 50.1968 33.7306C50.4759 37.1444 50.4759 40.5372 50.1968 43.9509C50.1754 44.4117 49.8963 44.6002 49.4025 44.5583C48.8872 44.5164 48.651 44.286 48.694 43.8253C48.8872 41.4587 48.9301 39.0921 48.8442 36.7255H47.4702C46.9549 36.7255 46.6973 36.516 46.6973 36.0762C46.6973 35.6364 46.9549 35.4061 47.4702 35.4061H48.7798V35.3851ZM54.2117 40.5162L54.2761 43.5949C54.2761 43.9509 54.3835 44.1394 54.6196 44.1394H58.3124C58.8921 44.1394 59.1927 44.3489 59.1927 44.7887C59.1927 45.2494 58.9136 45.4589 58.3768 45.4589H54.0399C53.1597 45.4589 52.7303 45.04 52.7088 44.2232L52.6229 40.3277C52.6015 39.5738 53.0094 39.1968 53.8467 39.1968H57.5395C57.7757 39.1968 57.9045 39.0293 57.9045 38.6732L57.9689 35.6364H53.4173C52.8376 35.6364 52.537 35.427 52.537 34.9872C52.537 34.5474 52.7732 34.317 53.2241 34.317H58.3124C59.1283 34.317 59.5147 34.694 59.5147 35.427L59.4503 39.3015C59.4289 40.1183 58.9565 40.5162 58.0548 40.5162H54.2117ZM65.0754 39.1968C65.0539 37.4166 64.9681 35.6364 64.8392 33.8353C64.7963 33.3745 65.0325 33.1442 65.5477 33.1023C66.063 33.0604 66.3207 33.2698 66.3421 33.7306C66.6856 37.8355 66.6856 41.9194 66.3421 46.0243C66.3207 46.4851 66.0415 46.6736 65.5477 46.6317C65.0325 46.5898 64.7963 46.3594 64.8392 45.8987C64.9681 44.0975 65.0539 42.3174 65.0754 40.4953H63.1002C63.0787 42.2336 62.9928 43.9509 62.8425 45.6683C62.7996 46.129 62.542 46.3175 62.0267 46.2757C61.5114 46.2338 61.2753 46.0034 61.3182 45.5426C61.6617 41.7519 61.6617 37.9611 61.3182 34.1704C61.2753 33.7096 61.5114 33.4793 62.0267 33.4374C62.542 33.3955 62.8211 33.584 62.8425 34.0447C62.9928 35.7621 63.0787 37.4794 63.1002 39.1759H65.0754V39.1968ZM79.2025 36.6208C79.2025 39.1968 78.7302 41.2283 77.7641 42.7153C78.5584 43.1341 79.2025 43.6787 79.7393 44.3279C80.0184 44.7258 80.0184 45.0609 79.6963 45.3541C79.3099 45.7311 78.9878 45.7102 78.6873 45.2913C78.2149 44.6002 77.6138 44.0975 76.9053 43.7624C75.9821 44.684 74.7583 45.2913 73.2554 45.5845C72.7616 45.6683 72.4825 45.4589 72.4181 44.9772C72.3322 44.4955 72.5254 44.2232 72.9978 44.1394C76.0894 43.553 77.6352 40.956 77.6352 36.3694C77.6352 35.8877 77.3991 35.6364 76.9267 35.6364H73.5774C73.0192 35.6364 72.7401 35.427 72.7401 34.9872C72.7401 34.5474 72.9978 34.3379 73.5345 34.3379H76.712C78.3652 34.3379 79.1811 35.1128 79.1811 36.6417L79.2025 36.6208ZM81.9936 39.2177C81.9721 37.5632 81.8862 35.8877 81.736 34.1913C81.693 33.7306 81.9292 33.5002 82.4445 33.4583C82.9597 33.4164 83.2388 33.6049 83.2603 34.0657C83.5824 37.9402 83.5824 41.8147 83.2603 45.6892C83.2174 46.15 82.9597 46.3385 82.4445 46.2966C81.9292 46.2547 81.693 46.0243 81.736 45.5636C81.8862 43.8881 81.9721 42.1917 81.9936 40.5162H80.5766C80.0828 40.5162 79.8251 40.3068 79.8251 39.867C79.8251 39.4272 80.0828 39.2177 80.5766 39.2177H81.9936ZM85.0852 45.8987C85.4073 41.8775 85.4073 37.8564 85.0852 33.8353C85.0423 33.3745 85.2785 33.1442 85.7937 33.1023C86.309 33.0604 86.5667 33.2698 86.5881 33.7306C86.9317 37.8355 86.9317 41.9194 86.5881 46.0243C86.5667 46.4851 86.2876 46.6736 85.7937 46.6317C85.2785 46.5898 85.0423 46.3594 85.0852 45.8987ZM89.5295 42.5268C89.0142 42.4849 88.7351 42.2755 88.7136 41.9194C88.5419 39.7204 88.5419 37.27 88.7136 34.5893C88.7566 34.1285 89.0142 33.94 89.5295 33.9819C90.0448 34.0238 90.2809 34.2542 90.238 34.7149C90.0877 37.0815 90.0877 39.2596 90.1951 41.2074C91.3115 41.2911 92.4279 41.3121 93.5443 41.2911C93.5873 39.113 93.5443 36.914 93.3511 34.694C93.3082 34.2332 93.5443 34.0028 94.0596 33.961C94.5749 33.9191 94.854 34.1076 94.8755 34.5683C95.0472 36.8093 95.1116 39.0293 95.0687 41.2492C95.4337 41.2492 95.7772 41.2074 96.1207 41.1864C96.5931 41.1445 96.8292 41.354 96.8507 41.7938C96.8936 42.2545 96.7004 42.5058 96.2495 42.5477C95.8416 42.5896 95.4337 42.6106 95.0258 42.6315C94.9828 43.4692 94.9184 44.307 94.854 45.1657C94.8111 45.6264 94.5534 45.8149 94.0381 45.773C93.5229 45.7311 93.2867 45.5007 93.3296 45.04C93.3941 44.2651 93.4585 43.4692 93.4799 42.6943C92.2132 42.6943 90.8821 42.6525 89.551 42.5268H89.508H89.5295ZM98.2677 39.3015C100.586 38.1496 101.746 36.4742 101.746 34.2961C101.746 33.7306 102.003 33.4374 102.54 33.4374C103.077 33.4374 103.313 33.7096 103.313 34.2542C103.313 35.05 103.206 35.783 102.991 36.4532C104.795 37.1443 105.911 38.3381 106.362 40.0555C106.491 40.4953 106.297 40.7885 105.804 40.9142C105.31 41.0608 105.009 40.9142 104.902 40.4743C104.515 39.1759 103.7 38.2753 102.411 37.7936C101.703 38.9664 100.565 39.9089 99.0406 40.6C98.5683 40.8304 98.2033 40.7047 97.9671 40.2649C97.731 39.846 97.8383 39.5319 98.2892 39.3015H98.2677ZM110.677 45.3541C110.677 47.3228 108.938 48.349 105.439 48.3909C101.939 48.4538 100.2 47.4904 100.2 45.5217C100.2 43.553 101.939 42.5268 105.439 42.4849C108.938 42.4221 110.677 43.3855 110.677 45.3541ZM105.439 47.0924C107.886 47.0296 109.11 46.4641 109.11 45.3751C109.11 44.286 107.886 43.7624 105.439 43.8253C102.991 43.8881 101.767 44.4536 101.767 45.5426C101.767 46.6317 102.991 47.1553 105.439 47.0924ZM109.217 36.4323C109.196 35.6155 109.153 34.7987 109.11 33.9819C109.067 33.4374 109.303 33.1442 109.797 33.1023C110.312 33.0604 110.57 33.2698 110.591 33.7306C110.785 36.0972 110.785 38.4638 110.591 40.8094C110.57 41.2702 110.291 41.4587 109.797 41.4168C109.282 41.3749 109.046 41.0817 109.11 40.5372C109.174 39.6157 109.196 38.6732 109.217 37.7517H106.941C106.426 37.7517 106.169 37.5423 106.169 37.1025C106.169 36.6627 106.426 36.4532 106.941 36.4532H109.217V36.4323ZM116.259 33.3327C116.603 33.6887 116.581 34.0238 116.259 34.317C114.606 35.6993 113.79 37.5632 113.769 39.8879C113.769 42.1708 114.606 44.0347 116.238 45.4798C116.581 45.773 116.581 46.0872 116.238 46.4641C115.937 46.8621 115.615 46.9249 115.293 46.6317C113.318 44.9562 112.352 42.7153 112.352 39.9298C112.352 37.1444 113.318 34.8406 115.229 33.2279C115.572 32.9347 115.916 32.9976 116.259 33.3745V33.3327Z" fill="#231815"/>
<path d="M159.977 43.4454C158.818 43.5082 157.659 43.571 156.499 43.592V45.791C156.499 46.3356 156.242 46.5869 155.705 46.5869C155.168 46.5869 154.911 46.3146 154.911 45.791V43.592C153.751 43.592 152.592 43.5291 151.432 43.4454C151.003 43.4244 150.81 43.1941 150.831 42.7752C150.853 42.3353 151.067 42.1259 151.497 42.1469C154.288 42.3354 157.1 42.3354 159.913 42.1469C160.342 42.1259 160.557 42.3353 160.579 42.7752C160.6 43.1941 160.407 43.4244 159.977 43.4454ZM158.26 33.5391C158.818 33.5391 159.097 33.7485 159.097 34.1884C159.097 34.6492 158.797 34.8586 158.217 34.8586H153.322C152.978 34.8586 152.828 35.0889 152.849 35.5706L152.957 37.8325C152.978 38.419 153.279 38.7331 153.858 38.775C155.726 38.9006 157.315 38.8588 158.625 38.6074C159.076 38.5237 159.312 38.6912 159.398 39.131C159.462 39.5499 159.29 39.8012 158.839 39.885C157.186 40.1991 155.297 40.262 153.171 40.0944C152.055 40.0106 151.475 39.529 151.411 38.6284L151.218 34.6072C151.175 33.8951 151.583 33.5391 152.42 33.5391H158.238H158.26ZM162.06 45.8329C162.382 41.8115 162.382 37.7909 162.06 33.7695C162.017 33.3087 162.253 33.0784 162.768 33.0365C163.284 32.9946 163.541 33.204 163.563 33.6648C163.906 37.7699 163.906 41.8534 163.563 45.9586C163.541 46.4193 163.262 46.6078 162.768 46.5659C162.253 46.524 162.017 46.2937 162.06 45.8329ZM169.295 45.7072C166.848 45.812 165.602 43.8645 165.602 39.9269C165.602 35.9893 166.826 33.9789 169.295 33.8952C171.635 33.7904 172.859 35.5495 172.967 39.152H175.135C175.114 37.4973 175.028 35.8221 174.877 34.1255C174.834 33.6648 175.071 33.4344 175.586 33.3925C176.101 33.3506 176.38 33.5391 176.402 33.9999C176.724 37.8746 176.724 41.7487 176.402 45.6235C176.359 46.0843 176.101 46.2727 175.586 46.2308C175.071 46.1889 174.834 45.9586 174.877 45.4978C175.028 43.8222 175.114 42.126 175.135 40.4504H172.967C172.795 43.8644 171.571 45.6235 169.295 45.7072ZM169.295 35.1727C167.878 35.2146 167.191 36.7852 167.191 39.864C167.191 42.9429 167.9 44.4716 169.295 44.4297C170.712 44.3669 171.399 42.7963 171.399 39.6965C171.399 36.5967 170.691 35.1308 169.295 35.1937V35.1727ZM178.205 45.8329C178.527 41.8115 178.527 37.7909 178.205 33.7695C178.162 33.3087 178.398 33.0784 178.914 33.0365C179.429 32.9946 179.687 33.204 179.708 33.6648C180.052 37.7699 180.052 41.8534 179.708 45.9586C179.687 46.4193 179.408 46.6078 178.914 46.5659C178.398 46.524 178.162 46.2937 178.205 45.8329ZM6.86872 60.2264C6.86872 62.8026 6.39638 64.8339 5.43024 66.321C6.22462 66.7399 6.86872 67.2843 7.40546 67.9336C7.68457 68.3315 7.68457 68.6666 7.36252 68.9598C6.97607 69.3368 6.65402 69.3159 6.35344 68.897C5.88111 68.2058 5.27995 67.7032 4.57145 67.3681C3.64825 68.2897 2.42447 68.897 0.921592 69.1902C0.427788 69.274 0.148681 69.0646 0.0842715 68.5828C-0.00160755 68.1011 0.191618 67.8289 0.663953 67.7451C3.7556 67.1587 5.30142 64.5619 5.30142 59.9751C5.30142 59.4933 5.06525 59.2421 4.59292 59.2421H1.24364C0.685423 59.2421 0.40632 59.0326 0.40632 58.5928C0.40632 58.153 0.66395 57.9436 1.20069 57.9436H4.37822C6.03139 57.9436 6.84725 58.7184 6.84725 60.2473L6.86872 60.2264ZM9.65979 62.8234C9.63832 61.1687 9.55244 59.4935 9.40215 57.797C9.35921 57.3362 9.59538 57.1058 10.1107 57.0639C10.6259 57.0221 10.905 57.2105 10.9265 57.6713C11.2486 61.5461 11.2486 65.4202 10.9265 69.2949C10.8836 69.7557 10.6259 69.9442 10.1107 69.9023C9.59538 69.8604 9.35921 69.63 9.40215 69.1693C9.55244 67.4937 9.63832 65.7974 9.65979 64.1219H8.24278C7.74898 64.1219 7.49134 63.9125 7.49134 63.4726C7.49134 63.0328 7.74898 62.8234 8.24278 62.8234H9.65979ZM12.7514 69.5253C13.0735 65.5039 13.0735 61.4832 12.7514 57.4619C12.7085 57.0011 12.9447 56.7707 13.4599 56.7288C13.9752 56.687 14.2329 56.8964 14.2543 57.3572C14.5978 61.4623 14.5978 65.5458 14.2543 69.651C14.2329 70.1117 13.9537 70.3002 13.4599 70.2583C12.9447 70.2164 12.7085 69.9861 12.7514 69.5253ZM17.1957 66.1325C16.6804 66.0906 16.4013 65.8811 16.3798 65.5251C16.2081 63.3259 16.2081 60.8758 16.3798 58.1949C16.4228 57.7341 16.6804 57.5456 17.1957 57.5875C17.711 57.6294 17.9471 57.8598 17.9042 58.3205C17.7539 60.6873 17.7539 62.8651 17.8612 64.813C18.9777 64.8968 20.0941 64.9177 21.2105 64.8968C21.2535 62.7185 21.2105 60.5197 21.0173 58.2996C20.9744 57.8388 21.2105 57.6085 21.7258 57.5666C22.2411 57.5247 22.5202 57.7132 22.5417 58.1739C22.7134 60.415 22.7778 62.6348 22.7349 64.8549C23.0999 64.8549 23.4434 64.813 23.7869 64.7921C24.2592 64.7502 24.4954 64.9596 24.5169 65.3994C24.5598 65.8602 24.3666 66.1115 23.9157 66.1534C23.5078 66.1953 23.0999 66.2162 22.6919 66.2372C22.649 67.075 22.5846 67.9126 22.5417 68.7713C22.4987 69.2321 22.2411 69.4206 21.7258 69.3787C21.2105 69.3368 20.9744 69.1065 21.0173 68.6457C21.0817 67.8707 21.1461 67.075 21.1676 66.3C19.9009 66.3 18.5698 66.2581 17.2386 66.1325H17.1957ZM25.9339 62.9071C28.2526 61.7552 29.412 60.0799 29.412 57.9017C29.412 57.3362 29.6696 57.043 30.2064 57.043C30.7431 57.043 30.9793 57.3152 30.9793 57.8598C30.9793 58.6557 30.8719 59.3886 30.6572 60.0588C32.4607 60.75 33.5771 61.9436 34.028 63.6611C34.1568 64.1009 33.9636 64.3941 33.4698 64.5198C32.976 64.6664 32.6754 64.5198 32.568 64.08C32.1816 62.7814 31.3657 61.8809 30.0776 61.3992C29.3691 62.5721 28.2312 63.5145 26.7068 64.2056C26.2345 64.436 25.8695 64.3104 25.6333 63.8705C25.3971 63.4517 25.5045 63.1375 25.9554 62.9071H25.9339ZM38.3434 68.9598C38.3434 70.9286 36.6044 71.9547 33.1048 71.9966C29.6052 72.0595 27.8662 71.0962 27.8662 69.1274C27.8662 67.1586 29.6052 66.1325 33.1048 66.0906C36.6044 66.0277 38.3434 66.991 38.3434 68.9598ZM33.1048 70.6981C35.5523 70.6353 36.7761 70.0699 36.7761 68.9808C36.7761 67.8917 35.5523 67.3681 33.1048 67.431C30.6572 67.4938 29.4335 68.0592 29.4335 69.1483C29.4335 70.2374 30.6572 70.761 33.1048 70.6981ZM36.8835 60.0379C36.862 59.2211 36.8191 58.4044 36.7761 57.5875C36.7332 57.043 36.9694 56.7498 37.4632 56.7079C37.9784 56.666 38.2361 56.8754 38.2576 57.3362C38.4508 59.7029 38.4508 62.0693 38.2576 64.4151C38.2361 64.8759 37.957 65.0643 37.4632 65.0224C36.9479 64.9805 36.7117 64.6874 36.7761 64.1428C36.8405 63.2212 36.862 62.2789 36.8835 61.3573H34.6077C34.0924 61.3573 33.8348 61.1479 33.8348 60.7081C33.8348 60.2683 34.0924 60.0588 34.6077 60.0588H36.8835V60.0379ZM44.3335 69.3996C41.6283 69.5044 40.2972 67.5568 40.2972 63.6192C40.2972 59.6816 41.6498 57.6713 44.3335 57.5875C47.0172 57.4828 48.3484 59.4094 48.3484 63.347C48.3484 67.2845 47.0172 69.3159 44.3335 69.4206V69.3996ZM44.3335 58.8651C42.6803 58.907 41.8645 60.4775 41.8645 63.5564C41.8645 66.6353 42.6803 68.164 44.3335 68.1221C45.9652 68.0593 46.7811 66.4886 46.7811 63.3888C46.7811 60.289 45.9652 58.8232 44.3335 58.886V58.8651ZM51.4185 69.5253C51.7406 65.5039 51.7406 61.4832 51.4185 57.4619C51.3756 57.0011 51.6118 56.7707 52.127 56.7288C52.6423 56.687 52.9 56.8964 52.9214 57.3572C53.2649 61.4623 53.2649 65.5458 52.9214 69.651C52.9 70.1117 52.6208 70.3002 52.127 70.2583C51.6118 70.2164 51.3756 69.9861 51.4185 69.5253ZM64.7942 65.2109C61.5308 65.0853 59.9206 63.7869 59.9206 61.3573C59.9206 58.7393 61.8099 57.399 65.5886 57.3362C69.3458 57.2734 71.2352 58.5508 71.2352 61.1898C71.2352 63.6403 69.6034 64.9805 66.3615 65.19V68.4991C68.2294 68.4991 70.0973 68.4153 71.9651 68.2896C72.373 68.2687 72.6092 68.4781 72.6307 68.9179C72.6522 69.3368 72.4589 69.5672 72.0295 69.5881C67.7356 69.8814 63.4416 69.8814 59.1262 69.5881C58.6968 69.5672 58.5036 69.3368 58.525 68.9179C58.5465 68.4781 58.7612 68.2687 59.1906 68.2896C61.0585 68.4153 62.9264 68.4991 64.8157 68.4991V65.2319L64.7942 65.2109ZM65.5886 63.9543C68.3153 63.8915 69.6679 62.9701 69.6679 61.1688C69.6679 59.3676 68.3153 58.53 65.5886 58.5928C62.8619 58.6556 61.4879 59.577 61.4879 61.3573C61.4879 63.1376 62.8619 64.0171 65.5886 63.9543ZM76.4738 64.7921C75.2071 64.7921 74.5415 64.1638 74.52 62.8862L74.4342 58.3415C74.4127 57.6503 74.8206 57.3153 75.6794 57.3153H81.0254C81.8627 57.3153 82.2921 57.6503 82.2921 58.3415V58.6347H85.3193C85.2979 58.2367 85.2764 57.8389 85.2764 57.42C85.2335 56.9592 85.4696 56.7289 85.9849 56.687C86.5002 56.6451 86.7578 56.8545 86.7793 57.3153C87.0369 60.4779 87.0369 63.661 86.7793 66.8445C86.7578 67.3053 86.4787 67.4938 85.9849 67.4519C85.4696 67.41 85.2335 67.1797 85.2764 66.7189C85.3408 65.6298 85.4052 64.5199 85.4267 63.4307H82.1418C81.9486 64.3313 81.3045 64.7921 80.2525 64.7921H76.4738ZM76.5597 58.6347C76.1947 58.6347 76.0014 58.865 76.0229 59.3258L76.0873 62.5721C76.0873 63.1585 76.345 63.4517 76.8602 63.4517H79.8445C80.3598 63.4517 80.6174 63.1585 80.6389 62.5721L80.7033 59.3258C80.7033 58.865 80.5101 58.6347 80.1451 58.6347H76.5597ZM76.8817 67.8289C76.7958 67.2424 76.9676 66.8864 77.4184 66.7608C77.9981 66.5723 78.3202 66.7607 78.4061 67.3262L78.6637 69.5253C78.7281 70.1118 79.0287 70.4049 79.5654 70.4049C81.7768 70.5096 83.9882 70.5096 86.1567 70.4049C86.629 70.384 86.8437 70.5725 86.8437 70.9495C86.8437 71.4312 86.6075 71.6825 86.1567 71.7244C83.9453 71.85 81.5192 71.85 78.8355 71.7244C77.8693 71.6825 77.3326 71.2218 77.2038 70.3421L76.8602 67.8079L76.8817 67.8289ZM82.2706 59.9751L82.2277 62.1322H85.4267C85.4267 61.4201 85.4267 60.7081 85.3837 59.9751H82.2492H82.2706ZM99.5538 60.2264C99.5538 62.8026 99.0814 64.8339 98.1153 66.321C98.9097 66.7399 99.5538 67.2843 100.091 67.9336C100.37 68.3315 100.37 68.6666 100.048 68.9598C99.6611 69.3368 99.3391 69.3159 99.0385 68.897C98.5662 68.2058 97.965 67.7032 97.2565 67.3681C96.3333 68.2897 95.1096 68.897 93.6067 69.1902C93.1129 69.274 92.8338 69.0646 92.7694 68.5828C92.6835 68.1011 92.8767 67.8289 93.349 67.7451C96.4407 67.1587 97.9865 64.5619 97.9865 59.9751C97.9865 59.4933 97.7503 59.2421 97.278 59.2421H93.9287C93.3705 59.2421 93.0914 59.0326 93.0914 58.5928C93.0914 58.153 93.349 57.9436 93.8858 57.9436H97.0633C98.7165 57.9436 99.5323 58.7184 99.5323 60.2473L99.5538 60.2264ZM102.345 62.8234C102.323 61.1687 102.237 59.4935 102.087 57.797C102.044 57.3362 102.28 57.1058 102.796 57.0639C103.311 57.0221 103.59 57.2105 103.612 57.6713C103.934 61.5461 103.934 65.4202 103.612 69.2949C103.569 69.7557 103.311 69.9442 102.796 69.9023C102.28 69.8604 102.044 69.63 102.087 69.1693C102.237 67.4937 102.323 65.7974 102.345 64.1219H100.928C100.434 64.1219 100.176 63.9125 100.176 63.4726C100.176 63.0328 100.434 62.8234 100.928 62.8234H102.345ZM105.437 69.5253C105.759 65.5039 105.759 61.4832 105.437 57.4619C105.394 57.0011 105.63 56.7707 106.145 56.7288C106.66 56.687 106.918 56.8964 106.939 57.3572C107.283 61.4623 107.283 65.5458 106.939 69.651C106.918 70.1117 106.639 70.3002 106.145 70.2583C105.63 70.2164 105.394 69.9861 105.437 69.5253ZM108.807 68.3315C108.807 67.2843 109.344 66.3838 110.439 65.6508C113.423 63.661 114.905 62.0904 114.905 60.9385C114.905 59.5352 114.175 58.8441 112.715 58.907C111.233 58.9489 110.503 59.5142 110.503 60.6243C110.503 61.2108 110.267 61.5039 109.816 61.5249C109.344 61.5458 109.129 61.2945 109.129 60.75C109.129 58.7393 110.332 57.6922 112.736 57.5875C115.119 57.4828 116.322 58.5927 116.322 60.9175C116.322 62.5093 114.669 64.415 111.384 66.5723C110.868 66.9283 110.568 67.3472 110.46 67.8498C112.865 67.9127 114.69 67.8708 115.892 67.7032C116.343 67.6404 116.579 67.8289 116.622 68.3106C116.644 68.7504 116.408 69.0017 115.892 69.0855C114.346 69.274 112.221 69.2949 109.537 69.1483C109.065 69.1274 108.829 68.897 108.829 68.4991V68.3525L108.807 68.3315ZM118.619 62.9071C120.938 61.7552 122.097 60.0799 122.097 57.9017C122.097 57.3362 122.355 57.043 122.891 57.043C123.428 57.043 123.664 57.3152 123.664 57.8598C123.664 58.6557 123.557 59.3886 123.342 60.0588C125.146 60.75 126.262 61.9436 126.713 63.6611C126.842 64.1009 126.649 64.3941 126.155 64.5198C125.661 64.6664 125.36 64.5198 125.253 64.08C124.867 62.7814 124.051 61.8809 122.763 61.3992C122.054 62.5721 120.916 63.5145 119.392 64.2056C118.92 64.436 118.555 64.3104 118.318 63.8705C118.082 63.4517 118.19 63.1375 118.64 62.9071H118.619ZM131.028 68.9598C131.028 70.9286 129.289 71.9547 125.79 71.9966C122.29 72.0595 120.551 71.0962 120.551 69.1274C120.551 67.1586 122.29 66.1325 125.79 66.0906C129.289 66.0277 131.028 66.991 131.028 68.9598ZM125.79 70.6981C128.237 70.6353 129.461 70.0699 129.461 68.9808C129.461 67.8917 128.237 67.3681 125.79 67.431C123.342 67.4938 122.119 68.0592 122.119 69.1483C122.119 70.2374 123.342 70.761 125.79 70.6981ZM129.547 60.0379C129.526 59.2211 129.483 58.4044 129.44 57.5875C129.397 57.043 129.633 56.7498 130.127 56.7079C130.642 56.666 130.9 56.8754 130.921 57.3362C131.114 59.7029 131.114 62.0693 130.921 64.4151C130.9 64.8759 130.621 65.0643 130.127 65.0224C129.611 64.9805 129.375 64.6874 129.44 64.1428C129.504 63.2212 129.526 62.2789 129.547 61.3573H127.271C126.756 61.3573 126.498 61.1479 126.498 60.7081C126.498 60.2683 126.756 60.0588 127.271 60.0588H129.547V60.0379ZM136.611 56.9383C136.954 57.2943 136.933 57.6294 136.611 57.9226C134.957 59.305 134.142 61.1687 134.12 63.4936C134.12 65.7765 134.957 67.6403 136.589 69.0855C136.933 69.3787 136.933 69.6928 136.589 70.0698C136.289 70.4678 135.967 70.5306 135.645 70.2374C133.669 68.5618 132.703 66.3211 132.703 63.5354C132.703 60.7498 133.669 58.4463 135.58 56.8336C135.924 56.5403 136.267 56.6032 136.611 56.9802V56.9383Z" fill="#231815"/>
<path d="M167.743 63.3303C167.743 61.0056 166.905 59.1416 165.274 57.7594C164.909 57.4662 164.909 57.1311 165.274 56.775C165.617 56.3981 165.939 56.3562 166.283 56.6284C168.194 58.2411 169.16 60.482 169.16 63.3303C169.16 66.1786 168.172 68.3776 166.218 70.0322C165.896 70.3254 165.596 70.2835 165.295 69.8646C164.952 69.4876 164.952 69.1735 165.295 68.8803C166.927 67.4352 167.743 65.5712 167.743 63.2884V63.3303Z" fill="#231815"/>
<path d="M145.809 39.8772C145.809 37.5525 144.972 35.6885 143.34 34.3062C142.975 34.013 142.975 33.6779 143.34 33.3219C143.684 32.9449 144.006 32.903 144.349 33.1753C146.26 34.7879 147.226 37.0289 147.226 39.8772C147.226 42.7255 146.239 44.9245 144.285 46.579C143.963 46.8723 143.662 46.8304 143.362 46.4115C143.018 46.0345 143.018 45.7204 143.362 45.4272C144.993 43.9821 145.809 42.1181 145.809 39.8353V39.8772Z" fill="#231815"/>
<path d="M0 91.9322C0.0214698 91.4924 0.236168 91.283 0.665563 91.3039C4.93805 91.5762 9.18907 91.5762 13.4616 91.3039C13.8695 91.283 14.1056 91.4924 14.1271 91.9322C14.1486 92.3511 13.9554 92.5814 13.526 92.6024C9.23201 92.8956 4.93805 92.8956 0.622624 92.6024C0.193228 92.5814 0 92.3511 0.0214698 91.9322H0ZM12.7101 84.2041C12.7101 86.843 10.8208 88.1833 7.06356 88.2462C3.28488 88.309 1.39554 87.0105 1.39554 84.3926C1.39554 81.7747 3.28488 80.4343 7.06356 80.3715C10.8208 80.3086 12.7101 81.5862 12.7101 84.225V84.2041ZM7.06356 86.9896C9.79022 86.9267 11.1428 86.0052 11.1428 84.2041C11.1428 82.403 9.79022 81.5652 7.06356 81.6281C4.3369 81.6909 2.96283 82.6124 2.96283 84.3926C2.96283 86.1728 4.3369 87.0524 7.06356 86.9896ZM18.5499 85.335V86.9267C18.5499 87.2618 18.6787 87.4503 18.9149 87.4503H26.5796C27.1593 87.4503 27.4599 87.6598 27.4599 88.0996C27.4599 88.5603 27.1807 88.7697 26.6225 88.7697H23.0371V91.5343C24.905 91.5343 26.7728 91.4505 28.6407 91.3248C29.0486 91.3039 29.2848 91.5133 29.3063 91.9531C29.3277 92.372 29.1345 92.6024 28.7051 92.6233C24.4111 92.9165 20.1172 92.9165 15.8018 92.6233C15.3724 92.6024 15.1791 92.372 15.2006 91.9531C15.2221 91.5133 15.4368 91.3039 15.8662 91.3248C17.734 91.4505 19.6019 91.5343 21.4913 91.5343V88.7697H18.3781C17.4979 88.7697 17.047 88.3718 17.047 87.555L17.0041 85.1256C16.9826 84.3926 17.3905 84.0156 18.2278 84.0156H25.6779C25.914 84.0156 26.0429 83.8271 26.0429 83.4711L26.0858 81.9213H17.777C17.1973 81.9213 16.8967 81.7118 16.8967 81.272C16.8967 80.8322 17.1329 80.6018 17.5838 80.6018H26.4293C27.2452 80.6018 27.6316 80.9788 27.6316 81.7328L27.5887 84.1413C27.5672 84.9581 27.0949 85.356 26.1931 85.356H18.5928L18.5499 85.335ZM36.6919 82.026H41.3937L41.4367 80.6856C41.4367 80.2249 41.7158 79.9945 42.2311 79.9945C42.7463 79.9945 42.9825 80.2249 42.9825 80.6856L42.9181 84.8952C42.8752 86.1518 42.2311 86.7801 40.9429 86.7801H37.1427C35.876 86.7801 35.2104 86.1518 35.189 84.8952L35.1031 80.6856C35.1031 80.2249 35.3607 79.9945 35.8975 79.9945C36.3913 79.9945 36.6489 80.2249 36.6704 80.6856V82.026H36.6919ZM36.6275 88.7279C36.6275 88.309 36.8851 88.0786 37.4218 88.0786H45.9883C46.933 88.0786 47.3623 88.4556 47.2765 89.2305L47.1047 90.9269C46.9974 91.7228 46.525 92.1207 45.6877 92.1207H38.5597L38.7744 93.5867H45.838C46.3962 93.5867 46.6753 93.7962 46.6753 94.236C46.6753 94.6758 46.4177 94.8852 45.8809 94.8852H38.5812C37.7868 94.8852 37.336 94.4873 37.2286 93.7124L37.0139 91.995C36.9066 91.2411 37.336 90.8641 38.3236 90.8641H45.5589L45.7092 89.3981H37.4862C36.928 89.3981 36.6489 89.1886 36.6489 88.7488L36.6275 88.7279ZM41.3723 83.3664H36.7133L36.7563 84.6858C36.7563 85.2932 37.0139 85.5864 37.5292 85.5864H40.5564C41.0717 85.5864 41.3293 85.2932 41.3508 84.6858L41.3937 83.3664H41.3723ZM45.5804 86.2984C45.7736 84.3716 45.7736 82.4239 45.5804 80.4762C45.5374 80.0154 45.7736 79.785 46.2889 79.7432C46.8041 79.7013 47.0832 79.9107 47.1047 80.3715C47.1906 81.2092 47.2335 82.0469 47.255 82.9056H49.6596C50.1749 82.9056 50.4325 83.115 50.4325 83.5549C50.4325 83.9947 50.1749 84.2041 49.6596 84.2041H47.255C47.255 84.9371 47.2121 85.6701 47.1262 86.4031C47.0832 86.8639 46.8256 87.0733 46.3103 87.0314C45.7951 86.9896 45.5589 86.7592 45.6018 86.2984H45.5804ZM50.7975 87.1781C50.819 86.7382 51.0337 86.5288 51.4631 86.5498C55.7356 86.843 59.9866 86.843 64.2591 86.5498C64.667 86.5288 64.9032 86.7382 64.9246 87.1781C64.9461 87.6179 64.7529 87.8482 64.3235 87.8692C60.0295 88.1414 55.7356 88.1414 51.4201 87.8692C50.9907 87.8482 50.7975 87.6179 50.819 87.1781H50.7975ZM63.5076 82.2983C63.5076 84.1203 61.6183 85.0418 57.8611 85.1047C54.0824 85.1675 52.193 84.2879 52.193 82.4658C52.193 80.6437 54.0824 79.7013 57.8611 79.6594C61.6183 79.5966 63.5076 80.4762 63.5076 82.2983ZM54.9627 94.8643C53.6101 94.8643 52.8371 94.236 52.6654 92.9584L52.4077 91.0107C52.2789 90.0892 52.7942 89.6494 53.975 89.6494H61.7256C62.9065 89.6494 63.4217 90.1101 63.2929 91.0107L63.0353 92.9584C62.8635 94.236 62.0906 94.8643 60.738 94.8643H54.9627ZM57.8611 83.8481C60.5877 83.7852 61.9403 83.2826 61.9403 82.2983C61.9403 81.3139 60.5877 80.8741 57.8611 80.9369C55.1344 80.9998 53.7603 81.5024 53.7603 82.4867C53.7603 83.4711 55.1344 83.9109 57.8611 83.8481ZM54.5762 90.9688C54.1897 90.9688 54.018 91.1992 54.0824 91.6809L54.1897 92.6652C54.2541 93.2516 54.5118 93.5448 54.9627 93.5448H60.781C61.2318 93.5448 61.468 93.2516 61.5539 92.6652L61.6612 91.6809C61.7256 91.1992 61.5539 90.9688 61.1674 90.9688H54.5977H54.5762ZM70.4638 92.4348C67.7586 92.5396 66.4275 90.5918 66.4275 86.6545C66.4275 82.7171 67.7801 80.7066 70.4638 80.6228C73.1476 80.5181 74.4787 82.4449 74.4787 86.3822C74.4787 90.3196 73.1476 92.3511 70.4638 92.4558V92.4348ZM70.4638 81.9003C68.8107 81.9422 67.9948 83.513 67.9948 86.5916C67.9948 89.6703 68.8107 91.1992 70.4638 91.1573C72.0955 91.0945 72.9114 89.5237 72.9114 86.4241C72.9114 83.3245 72.0955 81.8584 70.4638 81.9213V81.9003ZM77.5489 92.5605C77.8709 88.5394 77.8709 84.5182 77.5489 80.4971C77.5059 80.0364 77.7421 79.806 78.2574 79.7641C78.7726 79.7222 79.0303 79.9317 79.0518 80.3924C79.3953 84.4973 79.3953 88.5813 79.0518 92.6862C79.0303 93.1469 78.7512 93.3354 78.2574 93.2935C77.7421 93.2516 77.5059 93.0213 77.5489 92.5605ZM87.017 84.979H91.6116L91.6975 81.293C91.6975 80.8322 91.9766 80.6018 92.4918 80.6018C93.0071 80.6018 93.2433 80.8322 93.2433 81.293L93.093 90.173C93.0501 91.4505 92.406 92.0788 91.1178 92.0788H87.4894C86.2227 92.0788 85.5571 91.4505 85.5356 90.173L85.3639 81.293C85.3639 80.8322 85.6215 80.6018 86.1583 80.6018C86.6521 80.6018 86.9097 80.8322 86.9312 81.293L86.9956 84.979H87.017ZM91.5901 86.3194H87.0385L87.1029 89.9845C87.1029 90.5709 87.3606 90.885 87.8758 90.885H90.7098C91.2251 90.885 91.4828 90.5918 91.5042 89.9845L91.5686 86.3194H91.5901ZM95.8626 92.5605C96.1846 88.5394 96.1846 84.5182 95.8626 80.4971C95.8197 80.0364 96.0558 79.806 96.5711 79.7641C97.0864 79.7222 97.3655 79.9317 97.387 80.3924C97.5372 82.2145 97.6231 84.0366 97.6446 85.8586H99.9419C100.457 85.8586 100.715 86.0681 100.715 86.5079C100.715 86.9477 100.457 87.1571 99.9419 87.1571H97.6446C97.6231 89.0001 97.5372 90.8431 97.387 92.6862C97.344 93.1469 97.0864 93.3354 96.5711 93.2935C96.0558 93.2516 95.8197 93.0213 95.8626 92.5605ZM101.423 89.1467C101.445 88.7069 101.659 88.4975 102.089 88.5184C104.88 88.665 107.692 88.665 110.505 88.5184C110.934 88.4975 111.149 88.7069 111.171 89.1467C111.192 89.5656 110.999 89.796 110.569 89.8169C109.41 89.8797 108.251 89.9216 107.091 89.9426V92.4139C107.091 93.0003 106.834 93.2935 106.297 93.2935C105.76 93.2935 105.503 93.0003 105.503 92.4139V89.9426C104.343 89.9426 103.184 89.8797 102.024 89.8169C101.595 89.796 101.402 89.5656 101.423 89.1467ZM101.445 81.1045C101.445 80.6647 101.702 80.4552 102.218 80.4552H104.88C105.395 80.4552 105.653 80.6647 105.653 81.1045V82.0469C105.653 83.7224 105.202 85.2513 104.279 86.6545C104.043 87.0524 103.699 87.1362 103.27 86.8848C102.797 86.6335 102.69 86.2984 102.926 85.8796C103.699 84.7486 104.064 83.4711 104.064 82.0469V81.7537H102.196C101.681 81.7537 101.423 81.5443 101.423 81.1045H101.445ZM106.318 81.1045C106.318 80.6647 106.576 80.4552 107.091 80.4552H109.754C110.269 80.4552 110.526 80.6647 110.526 81.1045V82.0469C110.526 83.7224 110.076 85.2513 109.152 86.6545C108.916 87.0524 108.594 87.1362 108.165 86.8848C107.692 86.6335 107.564 86.2984 107.8 85.8796C108.573 84.7486 108.938 83.4711 108.938 82.0469V81.7537H107.07C106.555 81.7537 106.297 81.5443 106.297 81.1045H106.318ZM112.63 92.5605C112.953 88.5394 112.953 84.5182 112.63 80.4971C112.588 80.0364 112.824 79.806 113.339 79.7641C113.854 79.7222 114.112 79.9317 114.133 80.3924C114.477 84.4973 114.477 88.5813 114.133 92.6862C114.112 93.1469 113.833 93.3354 113.339 93.2935C112.824 93.2516 112.588 93.0213 112.63 92.5605ZM120.209 92.4348C117.504 92.5396 116.173 90.5918 116.173 86.6545C116.173 82.7171 117.526 80.7066 120.209 80.6228C122.764 80.5181 124.117 82.2773 124.224 85.8796H127.531C127.509 84.0994 127.423 82.2983 127.294 80.4971C127.251 80.0364 127.488 79.806 128.003 79.7641C128.518 79.7222 128.776 79.9317 128.797 80.3924C129.141 84.4973 129.141 88.5813 128.797 92.6862C128.776 93.1469 128.497 93.3354 128.003 93.2935C127.488 93.2516 127.251 93.0213 127.294 92.5605C127.423 90.7803 127.509 88.9792 127.531 87.1781H124.224C124.031 90.5918 122.7 92.3511 120.209 92.4348ZM120.209 81.9003C118.556 81.9422 117.74 83.513 117.74 86.5916C117.74 89.6703 118.556 91.1992 120.209 91.1573C121.841 91.0945 122.657 89.5237 122.657 86.4241C122.657 83.3245 121.841 81.8584 120.209 81.9213V81.9003ZM134.229 88.0786C134.229 88.0786 134.229 87.9111 134.229 87.8273C132.597 87.2618 131.782 86.1099 131.782 84.3716C131.782 81.7537 133.671 80.4134 137.45 80.3505C141.207 80.2877 143.096 81.5652 143.096 84.2041C143.096 85.9424 142.28 87.1362 140.627 87.7435C140.649 87.8482 140.67 87.953 140.67 88.0786V91.4505C141.722 91.4086 142.774 91.3667 143.826 91.283C144.234 91.262 144.47 91.4714 144.492 91.9113C144.513 92.3301 144.32 92.5605 143.89 92.5814C139.597 92.8746 135.303 92.8746 130.987 92.5814C130.558 92.5605 130.365 92.3301 130.386 91.9113C130.407 91.4714 130.622 91.262 131.052 91.283C132.104 91.3458 133.156 91.4086 134.208 91.4505V88.0786H134.229ZM137.471 86.9896C140.198 86.9267 141.55 86.0052 141.55 84.2041C141.55 82.403 140.198 81.5652 137.471 81.6281C134.744 81.6909 133.37 82.6124 133.37 84.3926C133.37 86.1728 134.744 87.0524 137.471 86.9896ZM139.103 88.1205C138.587 88.2043 138.051 88.2462 137.45 88.2462C136.848 88.2462 136.29 88.2462 135.796 88.1833V91.5133C136.913 91.5343 138.008 91.5343 139.103 91.5133V88.1414V88.1205ZM145.737 92.2882C145.737 91.7018 146.059 91.3877 146.703 91.3877C147.347 91.3877 147.648 91.6809 147.648 92.2882V92.4348C147.648 93.0212 147.326 93.3145 146.703 93.3145C146.08 93.3145 145.737 93.0212 145.737 92.4348V92.2882Z" fill="#231815"/>
</g>
<path d="M40.4922 14.6076C40.4035 19.4105 37.9897 22.5976 33.379 23.903C32.778 24.0754 32.5366 24.3562 32.3297 24.8981C31.4037 27.3414 29.6155 28.7256 26.9949 28.8832C24.2412 29.0507 22.1526 27.9128 20.9753 25.3808C20.6551 24.6912 20.2364 24.3907 19.527 24.3414C18.3497 24.2528 17.2955 23.834 16.4729 22.9818C16.0443 22.5385 15.7586 22.5336 15.2808 22.9523C13.7439 24.302 11.9262 24.7109 9.92127 24.3661C6.97551 23.8636 5.09377 21.775 4.92136 18.7799C4.83269 17.1938 4.7588 15.6076 4.73417 14.0214C4.72432 13.4057 4.53713 13.1298 3.9263 12.8983C1.1431 11.8293 -0.127813 9.75547 0.0101155 6.69641C0.12834 4.08069 1.77363 1.8098 4.43861 1.19897C8.4878 0.27288 12.5961 -0.382281 16.7684 0.469921C17.2413 0.568442 17.6403 0.430513 18.0738 0.307362C21.5664 -0.672916 24.6599 0.726074 26.1328 4.01173C26.4185 4.64719 26.7781 4.7063 27.3495 4.69152C29.4776 4.64226 31.581 4.86393 33.6302 5.45998C37.9011 6.70134 40.571 10.2776 40.4922 14.6027V14.6076ZM24.719 20.5533C24.719 21.2479 24.6944 21.9375 24.724 22.6321C24.7782 23.967 25.3496 24.5828 26.5367 24.6222C27.5219 24.6567 28.2806 23.9326 28.3889 22.7454C28.4628 21.9375 28.4382 21.1149 28.4283 20.3021C28.4234 19.775 28.5564 19.5583 29.1377 19.7307C29.9702 19.9819 30.8421 19.9179 31.6894 19.844C33.7534 19.6666 35.3839 18.2923 35.9159 16.3268C36.5415 14.0214 35.8765 11.849 34.2016 10.6077C32.7583 9.5338 31.049 9.32198 29.3544 9.13479C26.32 8.80968 25.9555 9.11016 25.4087 12.1446C25.3446 12.5042 25.2806 12.8638 25.251 13.2283C25.187 14.0017 25.1279 14.716 24.3988 15.2628C23.8127 15.7012 23.7683 16.578 24.1427 17.0558C25.0146 18.1593 24.7092 19.3612 24.719 20.5484V20.5533ZM12.7636 15.578C12.7636 15.578 12.7291 15.578 12.7094 15.578C12.7094 14.6815 12.739 13.785 12.6995 12.8933C12.6601 11.9574 12.5665 11.0264 12.4927 10.0954C12.3974 8.85729 12.9672 8.2087 14.202 8.14959C15.6749 8.0757 16.4187 7.44517 16.4088 6.26292C16.4039 5.09053 15.6847 4.46492 14.1379 4.49448C12.3892 4.52896 10.6405 4.67182 8.90158 4.82452C7.7686 4.92304 6.62576 4.99693 5.53711 5.38116C4.51743 5.74076 3.98049 6.79001 4.25635 7.81462C4.4928 8.69638 5.42874 9.14957 6.52232 8.90327C6.79817 8.83923 7.0691 8.75056 7.34004 8.66682C8.18239 8.40082 8.54691 8.57815 8.64051 9.57814C8.92129 12.4943 9.06414 15.4155 9.11833 18.3465C9.14296 19.6716 9.6996 20.1592 10.9015 20.1543C12.1331 20.1445 12.6798 19.6617 12.7537 18.3957C12.8079 17.4647 12.7636 16.5238 12.7636 15.5879V15.578ZM22.3398 16.0706C22.3693 14.4845 22.256 12.9131 21.9063 11.3614C21.6551 10.2481 20.9703 9.69143 19.8029 9.80473C18.5861 9.92296 18.2216 10.8441 18.261 11.7948C18.3497 14.1002 18.5911 16.4007 18.7881 18.7011C18.8817 19.8243 19.5713 20.1888 20.6304 20.1543C21.7388 20.1198 22.2757 19.5533 22.3299 18.509C22.3743 17.7011 22.3398 16.8884 22.3398 16.0756V16.0706ZM22.0885 6.09544C22.4235 5.0659 21.7437 4.43044 20.8127 4.29744C19.1231 4.05606 17.9556 5.03142 17.931 6.47474C17.9064 7.74073 18.6748 8.57323 19.9063 8.61756C21.3398 8.66682 22.0393 7.89836 22.0885 6.10036V6.09544Z" fill="#6A83B4"/>
<path d="M24.7194 20.5476C24.7046 19.3604 25.015 18.1585 24.1431 17.055C23.7637 16.5772 23.8081 15.7053 24.3992 15.262C25.1283 14.7152 25.1874 13.996 25.2514 13.2275C25.281 12.863 25.345 12.5034 25.409 12.1438C25.9558 9.11429 26.3204 8.80888 29.3548 9.13399C31.0543 9.31626 32.7587 9.533 34.202 10.6069C35.8768 11.8532 36.5418 14.0206 35.9162 16.326C35.3842 18.2915 33.7537 19.6658 31.6897 19.8432C30.8375 19.9171 29.9705 19.9811 29.138 19.7299C28.5568 19.5525 28.4188 19.7742 28.4287 20.3013C28.4385 21.1141 28.4632 21.9367 28.3893 22.7446C28.2809 23.9318 27.5174 24.6559 26.5371 24.6214C25.3499 24.5771 24.7834 23.9662 24.7243 22.6313C24.6948 21.9416 24.7194 21.2471 24.7194 20.5525V20.5476ZM30.4237 16.2225C31.7587 16.2521 32.4582 15.725 32.5074 14.7349C32.5616 13.6856 31.4089 12.7595 29.8474 12.7842C28.1233 12.8137 28.9459 14.3112 28.7784 15.0945C28.473 16.5378 29.8671 15.9418 30.4237 16.2275V16.2225Z" fill="#FCFCFC"/>
<path d="M12.7624 15.5788C12.7624 16.5147 12.8067 17.4556 12.7525 18.3866C12.6786 19.6526 12.1318 20.1353 10.9003 20.1452C9.69347 20.155 9.14175 19.6624 9.11712 18.3373C9.06786 15.4064 8.92008 12.4902 8.6393 9.56902C8.5457 8.56904 8.17625 8.38678 7.33883 8.65771C7.0679 8.74638 6.79697 8.83012 6.52111 8.89416C5.42753 9.14539 4.49159 8.69219 4.25514 7.80551C3.97928 6.78582 4.52114 5.73165 5.5359 5.37205C6.61963 4.98782 7.76739 4.91393 8.90038 4.81541C10.6442 4.66271 12.3929 4.51985 14.1367 4.48537C15.6884 4.45581 16.4027 5.08634 16.4076 6.25381C16.4126 7.43606 15.6737 8.06659 14.2008 8.14048C12.9693 8.20287 12.3995 8.85147 12.4914 10.0863C12.5604 11.0173 12.6589 11.9483 12.6983 12.8842C12.7328 13.7758 12.7082 14.6724 12.7082 15.5689C12.7279 15.5689 12.7427 15.5689 12.7624 15.5689V15.5788Z" fill="#FCFCFC"/>
<path d="M22.077 16.0353C22.077 16.8481 22.1115 17.6609 22.0672 18.4687C22.013 19.518 21.4711 20.0795 20.3677 20.114C19.3086 20.1485 18.619 19.784 18.5254 18.6608C18.3283 16.3604 18.087 14.0599 17.9983 11.7546C17.9638 10.8088 18.3283 9.88266 19.5401 9.76444C20.7076 9.65114 21.3874 10.2078 21.6436 11.3211C21.9933 12.8728 22.1066 14.4442 22.077 16.0303V16.0353Z" fill="#FCFCFC"/>
<path d="M22.0878 6.09728C22.0386 7.89527 21.3391 8.66866 19.9056 8.61447C18.6692 8.57014 17.9056 7.73764 17.9303 6.47165C17.9598 5.03326 19.1273 4.05298 20.812 4.29435C21.743 4.42736 22.4228 5.06774 22.0878 6.09235V6.09728Z" fill="#FCFCFC"/>
<path d="M30.4223 16.2357C29.8213 16.147 28.0381 16.5756 28.3435 15.1323C28.511 14.3491 28.1169 12.8269 29.841 12.7974C31.4026 12.7727 32.5552 13.6988 32.5011 14.7481C32.4518 15.7382 31.7523 16.2653 30.4173 16.2357H30.4223Z" fill="#6A83B4"/>
<defs>
<clipPath id="clip0_298_13">
<rect width="203" height="61.8667" fill="white" transform="translate(0 33)"/>
</clipPath>
</defs>
</svg>
