<svg width="41" height="29" viewBox="0 0 41 29" fill="none" xmlns="http://www.w3.org/2000/svg">
<path d="M40.4922 14.6076C40.4035 19.4105 37.9897 22.5976 33.379 23.903C32.778 24.0754 32.5366 24.3562 32.3297 24.8981C31.4037 27.3414 29.6155 28.7256 26.9949 28.8832C24.2412 29.0507 22.1526 27.9128 20.9753 25.3808C20.6551 24.6912 20.2364 24.3907 19.527 24.3414C18.3497 24.2528 17.2955 23.834 16.4729 22.9818C16.0443 22.5385 15.7586 22.5336 15.2808 22.9523C13.7439 24.302 11.9262 24.7109 9.92127 24.3661C6.97551 23.8636 5.09377 21.775 4.92136 18.7799C4.83269 17.1938 4.7588 15.6076 4.73417 14.0214C4.72432 13.4057 4.53713 13.1298 3.9263 12.8983C1.1431 11.8293 -0.127813 9.75547 0.0101155 6.69641C0.12834 4.0807 1.77363 1.8098 4.43861 1.19897C8.4878 0.27288 12.5961 -0.382281 16.7684 0.469921C17.2413 0.568442 17.6403 0.430513 18.0738 0.307362C21.5664 -0.672916 24.6599 0.726074 26.1328 4.01173C26.4185 4.64719 26.7781 4.7063 27.3495 4.69152C29.4776 4.64226 31.581 4.86393 33.6302 5.45998C37.9011 6.70134 40.571 10.2776 40.4922 14.6027V14.6076ZM24.719 20.5533C24.719 21.2479 24.6944 21.9375 24.724 22.6321C24.7782 23.967 25.3496 24.5828 26.5367 24.6222C27.5219 24.6567 28.2806 23.9326 28.3889 22.7454C28.4628 21.9375 28.4382 21.1149 28.4283 20.3021C28.4234 19.775 28.5564 19.5583 29.1377 19.7307C29.9702 19.9819 30.8421 19.9179 31.6894 19.844C33.7534 19.6666 35.3839 18.2923 35.9159 16.3268C36.5415 14.0214 35.8765 11.849 34.2016 10.6077C32.7583 9.5338 31.049 9.32198 29.3544 9.13479C26.32 8.80968 25.9555 9.11016 25.4087 12.1446C25.3446 12.5042 25.2806 12.8638 25.251 13.2283C25.187 14.0017 25.1279 14.716 24.3988 15.2628C23.8127 15.7012 23.7683 16.578 24.1427 17.0558C25.0146 18.1593 24.7092 19.3612 24.719 20.5484V20.5533ZM12.7636 15.578C12.7636 15.578 12.7291 15.578 12.7094 15.578C12.7094 14.6815 12.739 13.785 12.6995 12.8933C12.6601 11.9574 12.5665 11.0264 12.4927 10.0954C12.3974 8.85729 12.9672 8.2087 14.202 8.14959C15.6749 8.0757 16.4187 7.44517 16.4088 6.26292C16.4039 5.09053 15.6847 4.46492 14.1379 4.49448C12.3892 4.52896 10.6405 4.67182 8.90158 4.82452C7.7686 4.92304 6.62576 4.99693 5.53711 5.38116C4.51743 5.74076 3.98049 6.79001 4.25635 7.81462C4.4928 8.69638 5.42874 9.14957 6.52232 8.90327C6.79817 8.83923 7.0691 8.75056 7.34004 8.66682C8.18239 8.40082 8.54691 8.57815 8.64051 9.57814C8.92129 12.4943 9.06414 15.4155 9.11833 18.3465C9.14296 19.6716 9.6996 20.1592 10.9015 20.1543C12.1331 20.1444 12.6798 19.6617 12.7537 18.3957C12.8079 17.4647 12.7636 16.5238 12.7636 15.5879V15.578ZM22.3398 16.0706C22.3693 14.4845 22.256 12.9131 21.9063 11.3614C21.6551 10.2481 20.9703 9.69143 19.8029 9.80473C18.5861 9.92296 18.2216 10.8441 18.261 11.7948C18.3497 14.1002 18.5911 16.4007 18.7881 18.7011C18.8817 19.8243 19.5713 20.1888 20.6304 20.1543C21.7388 20.1198 22.2757 19.5533 22.3299 18.509C22.3743 17.7011 22.3398 16.8884 22.3398 16.0756V16.0706ZM22.0885 6.09544C22.4235 5.0659 21.7437 4.43044 20.8127 4.29744C19.1231 4.05607 17.9556 5.03142 17.931 6.47474C17.9064 7.74073 18.6748 8.57323 19.9063 8.61756C21.3398 8.66682 22.0393 7.89836 22.0885 6.10036V6.09544Z" fill="#6A83B4"/>
<path d="M24.7194 20.5476C24.7046 19.3604 25.015 18.1585 24.1431 17.055C23.7637 16.5772 23.8081 15.7053 24.3992 15.262C25.1283 14.7152 25.1874 13.996 25.2514 13.2275C25.281 12.863 25.345 12.5034 25.409 12.1438C25.9558 9.11429 26.3204 8.80888 29.3548 9.13399C31.0543 9.31626 32.7587 9.533 34.202 10.6069C35.8768 11.8532 36.5418 14.0206 35.9162 16.326C35.3842 18.2915 33.7537 19.6658 31.6897 19.8432C30.8375 19.9171 29.9705 19.9811 29.138 19.7299C28.5568 19.5525 28.4188 19.7742 28.4287 20.3013C28.4385 21.1141 28.4632 21.9367 28.3893 22.7446C28.2809 23.9318 27.5174 24.6559 26.5371 24.6214C25.3499 24.5771 24.7834 23.9662 24.7243 22.6313C24.6948 21.9416 24.7194 21.2471 24.7194 20.5525V20.5476ZM30.4237 16.2225C31.7587 16.2521 32.4582 15.725 32.5074 14.7349C32.5616 13.6856 31.4089 12.7595 29.8474 12.7842C28.1233 12.8137 28.9459 14.3112 28.7784 15.0945C28.473 16.5378 29.8671 15.9418 30.4237 16.2275V16.2225Z" fill="#FCFCFC"/>
<path d="M12.7634 15.5788C12.7634 16.5147 12.8077 17.4556 12.7535 18.3866C12.6796 19.6526 12.1328 20.1353 10.9013 20.1452C9.69444 20.155 9.14273 19.6624 9.1181 18.3373C9.06884 15.4064 8.92106 12.4902 8.64027 9.56902C8.54668 8.56904 8.17723 8.38678 7.3398 8.65771C7.06887 8.74638 6.79794 8.83012 6.52209 8.89416C5.42851 9.14538 4.49256 8.69219 4.25612 7.80551C3.98026 6.78582 4.52212 5.73165 5.53688 5.37205C6.62061 4.98782 7.76837 4.91393 8.90135 4.81541C10.6452 4.66271 12.3939 4.51985 14.1377 4.48537C15.6894 4.45581 16.4037 5.08634 16.4086 6.25381C16.4135 7.43606 15.6746 8.06659 14.2018 8.14048C12.9702 8.20287 12.4005 8.85147 12.4924 10.0863C12.5614 11.0173 12.6599 11.9483 12.6993 12.8842C12.7338 13.7758 12.7092 14.6724 12.7092 15.5689C12.7289 15.5689 12.7437 15.5689 12.7634 15.5689V15.5788Z" fill="#FCFCFC"/>
<path d="M22.078 16.0353C22.078 16.8481 22.1125 17.6609 22.0682 18.4687C22.014 19.518 21.4721 20.0795 20.3687 20.114C19.3096 20.1485 18.6199 19.784 18.5264 18.6608C18.3293 16.3604 18.0879 14.0599 17.9993 11.7546C17.9648 10.8088 18.3293 9.88266 19.5411 9.76444C20.7086 9.65114 21.3884 10.2078 21.6445 11.3211C21.9943 12.8728 22.1076 14.4442 22.078 16.0303V16.0353Z" fill="#FCFCFC"/>
<path d="M22.0883 6.09728C22.0391 7.89527 21.3396 8.66866 19.9061 8.61447C18.6697 8.57014 17.9061 7.73764 17.9308 6.47165C17.9603 5.03326 19.1278 4.05298 20.8125 4.29435C21.7435 4.42736 22.4233 5.06774 22.0883 6.09235V6.09728Z" fill="#FCFCFC"/>
<path d="M30.4232 16.2357C29.8223 16.147 28.0391 16.5756 28.3445 15.1323C28.512 14.3491 28.1179 12.8269 29.842 12.7974C31.4035 12.7727 32.5562 13.6988 32.502 14.7481C32.4528 15.7382 31.7533 16.2653 30.4183 16.2357H30.4232Z" fill="#6A83B4"/>
</svg>
