<svg width="764" height="49" viewBox="0 0 764 49" fill="none" xmlns="http://www.w3.org/2000/svg">
<rect width="351" height="49" rx="8" fill="#E4F2E6"/>
<path d="M13.5347 19.3784C14.3019 19 15.4038 18.3832 16.1943 17.9904C16.474 17.8177 16.7686 17.6676 17.0865 17.5031C15.806 17.8494 14.4789 18.2244 13.2134 18.5932C11.8332 18.9375 11.4911 16.9278 12.9203 16.807C14.0718 16.7624 15.2615 16.726 16.4364 16.667C15.2888 16.5188 14.1031 16.3624 12.9471 16.2511C11.5323 16.0457 12.0491 14.0451 13.4049 14.509C14.5465 14.9465 15.7114 15.3695 16.8763 15.7926C16.664 15.6698 16.4751 15.5327 16.2628 15.4099C15.5051 14.9575 14.4523 14.3066 13.6861 13.8912C12.4975 13.1338 13.8037 11.5342 14.8506 12.4743C15.7001 13.3142 16.6026 14.1848 17.5051 15.0554C16.8357 14.0409 16.1047 13.0327 15.4035 12.0695C14.6448 10.9198 16.5204 9.98404 17.0545 11.2407C17.3525 12.0403 17.774 13.1762 18.0953 13.9614C18.1612 14.111 18.2272 14.2607 18.2698 14.4247C18.0626 13.3153 17.8404 12.1833 17.6099 11.0882C17.4002 9.7265 19.5123 9.59658 19.4611 10.9607C19.3902 11.7977 19.3346 13.0059 19.2785 13.8655C19.2641 14.1916 19.2498 14.5178 19.2354 14.844C19.3261 14.5341 19.4169 14.2243 19.531 13.9C19.7779 13.0813 20.1008 11.9301 20.3329 11.0888C20.751 9.78369 22.699 10.5483 22.0602 11.7676C21.1779 13.2641 20.3021 14.82 19.4495 16.3616C21.4599 17.8174 23.2903 19.4478 24.9193 21.1708C24.4492 20.1601 23.9875 19.1125 23.509 18.1388C22.9601 16.8596 24.9824 16.2457 25.2918 17.6094C25.4842 18.6963 25.7063 19.8282 25.9518 20.9458C25.9473 20.79 25.9513 20.5971 25.9468 20.4412C25.9414 19.5879 25.9355 18.3859 25.8919 17.5245C25.9048 16.1522 28.0174 16.371 27.7521 17.7087C27.4505 18.9419 27.1554 20.2346 26.8836 21.5128C27.4673 20.3593 28.0446 19.1463 28.5901 17.9846C29.2289 16.7653 31.0246 17.846 30.1736 18.9425C29.0027 20.2999 27.8298 21.7536 26.7119 23.1417C28.4262 25.1928 29.8713 27.2831 31.0723 29.302C31.0529 29.1236 31.0103 28.9596 30.991 28.7811C30.8392 27.9547 30.634 26.7488 30.4823 25.9224C30.2725 24.5606 32.3995 24.4533 32.3633 25.8399C32.2715 26.9436 32.1713 28.0842 32.1092 29.233C32.4004 28.1332 32.6766 27.0108 32.9445 25.9253C33.3244 24.6121 35.304 25.3254 34.6801 26.5672C34.2507 27.3082 33.6838 28.3879 33.2925 29.1371L32.8293 30.0259C33.0495 29.763 33.2845 29.5227 33.4814 29.2743C34.0552 28.6028 34.8641 27.691 35.4146 27.0339C36.3484 26.0132 37.8138 27.4882 36.6761 28.3491C35.2057 29.352 33.7333 30.4514 32.3075 31.5219C33.7406 34.1907 34.6728 36.5977 35.1905 38.2769C35.2545 38.523 35.1573 38.7734 34.9708 38.8885C34.9242 38.9173 34.8776 38.946 34.831 38.9748C34.5299 39.0655 34.2264 38.9038 34.1327 38.6127C33.6448 36.9785 32.7488 34.6761 31.3603 32.0749C29.6008 32.59 27.7713 33.1482 26.0416 33.7084C24.6763 34.0753 24.2727 32.0718 25.6871 31.9284C27.0082 31.8426 28.3526 31.7424 29.697 31.6422C28.3586 31.4532 27.0052 31.2416 25.7198 31.0833C24.3134 30.841 24.8833 28.8711 26.2158 29.3494C27.281 29.7705 28.3844 30.1998 29.4878 30.6292C28.5029 30.0315 27.4799 29.4257 26.4866 28.8649C25.2979 28.1075 26.6042 26.5079 27.651 27.4481C28.2521 28.0606 29.1397 28.9086 29.7641 29.5068C29.8766 29.6277 29.9976 29.7116 30.1102 29.8325C28.9687 27.9038 27.545 25.8954 25.9284 23.9427C25.2291 24.3744 24.5299 24.806 23.839 25.2008C23.0932 25.6612 22.0443 26.3087 21.2984 26.7691C20.0948 27.4804 19.1358 25.6294 20.4882 25.1436C21.7389 24.7522 23.0213 24.3095 24.3038 23.8669C22.9509 24.004 21.598 24.1411 20.2983 24.309C18.869 24.4298 18.8959 22.3826 20.3127 22.4916C21.1845 22.6197 22.4169 22.7473 23.2887 22.8754C23.4647 22.8936 23.6408 22.9119 23.8168 22.9301C22.6966 22.5746 21.5679 22.2561 20.4541 21.9601C19.1131 21.5188 19.9419 19.6429 21.194 20.2977C21.9369 20.7275 23.0363 21.3496 23.7792 21.7794C23.9383 21.8715 24.1208 21.9492 24.2949 22.0639C22.6808 20.3634 20.8886 18.7412 18.9164 17.2935C17.5268 18.4686 16.0822 19.7094 14.7456 20.9152C13.661 21.8069 12.4372 20.1511 13.6557 19.4623" fill="#F3C574"/>
<path d="M37.2467 18.5741C38.4512 18.5602 39.6325 18.5607 40.852 18.5694C39.6618 18.2571 38.4632 17.9818 37.2943 17.7515C36.0109 17.4968 36.5575 15.5412 37.7585 16.0689C38.6859 16.48 39.6514 16.8992 40.5852 17.3698C39.7466 16.7453 38.8848 16.1351 38.0145 15.5619C36.8873 14.7983 38.0939 13.1967 39.0708 14.1801C39.8588 15.0262 40.6701 15.8579 41.4347 16.7185C40.8417 15.7203 40.2337 14.6996 39.5707 13.7446C38.7971 12.5723 40.5581 11.6121 41.1135 12.9508C41.5583 14.0722 41.9649 15.1855 42.3715 16.2988C42.196 15.138 42.0056 13.9547 41.7537 12.7777C41.4761 11.3627 43.5247 11.3354 43.5182 12.7672C43.4879 13.8646 43.4576 14.962 43.3891 16.0513C43.6485 15.0028 43.8846 13.9687 44.0677 12.9039C44.3648 11.5148 46.3171 12.4353 45.7845 13.716C45.2474 14.8408 44.7251 15.9881 44.135 17.0821C44.9438 16.1703 45.7294 15.2729 46.4936 14.2935C47.3511 13.2565 48.8085 15.1172 47.7492 15.898C46.3105 16.8496 44.8867 17.8237 43.4481 18.7753C44.4056 21.0714 45.3423 23.6342 46.0945 26.2157C46.1183 25.0588 46.104 23.8937 46.0515 22.7205C46.0198 21.2806 48.0242 21.5344 47.81 22.9992C47.6036 24.0784 47.4122 25.1802 47.1676 26.2513C47.5947 25.2579 47.9835 24.2564 48.3426 23.2098C48.8455 21.8841 50.654 23.0838 49.9007 24.2785C49.1811 25.3256 48.4997 26.3808 47.7503 27.3828C48.6866 26.6144 49.608 25.8235 50.523 24.9731C50.8831 24.6239 51.4643 24.7093 51.7851 25.1458C52.1655 25.6725 52.0182 26.4932 51.5222 26.7359C49.9581 27.4476 48.4004 28.2188 46.8511 28.9531C46.8045 28.9819 47.7927 33.5118 47.9038 34.0778C47.9509 34.3977 48.0744 34.7339 48.0367 35.0745C48.0009 35.3186 47.8804 35.5834 47.573 35.6146C47.1425 35.6582 46.9531 35.1723 46.9293 34.838C46.7344 33.4988 45.895 29.1944 45.8335 29.2006C44.0988 29.2562 42.3706 29.3712 40.6339 29.5232C39.3212 29.5721 39.3694 27.607 40.6548 27.7653C41.832 27.9586 43.0178 28.115 44.2184 28.294C43.1085 27.8052 41.9521 27.3452 40.8403 26.9528C39.6223 26.499 40.4659 24.6456 41.5867 25.3498C42.4421 25.9005 43.3124 26.4737 44.1743 27.0838C43.4458 26.3279 42.694 25.5863 41.9254 24.9186C40.94 23.9722 42.3802 22.5755 43.2004 23.719C43.8252 24.6659 44.5115 25.6065 45.1279 26.5903C44.3757 24.0088 43.4539 21.4685 42.4964 19.1724C40.8023 19.4884 39.0999 19.8414 37.4271 20.2395C36.1487 20.4893 35.8661 18.5697 37.1787 18.5209" fill="#F3C574"/>
<path d="M63.04 21.28C62.96 21.28 62.92 21.24 62.92 21.2C62.4 20.8 62.24 19.8 62.24 19.2C62.2 18.24 62.08 17.28 62.08 16.36C62.08 15 62.04 13.36 62.28 12.04C62.44 11.2 62.76 10.72 63.56 10.4C64.28 10.12 65.04 10.04 65.8 9.96C66.72 9.88 67.68 9.96 68.64 9.96H76.24C78.96 9.96 78.6 9.96 81.28 9.92C81.76 9.92 82.2 9.92 82.68 9.96C83.68 10 84.8 10.04 85.72 10.48C86.76 10.92 87.08 12.04 87.12 13.08C87.2 14.28 87.08 15.8 87.08 17C87.04 18.08 87.08 19.16 86.8 20.2C86.64 20.8 86.52 21.28 85.88 21.48C85.32 21.68 84.6 21.72 84.04 21.72H66.76C66.24 21.72 65.72 21.68 65.2 21.64C64.52 21.6 63.64 21.68 63.04 21.28ZM85.24 28.92C82.6 29 80.52 29.08 77.84 29.08C77.8 30.2 77.72 31.24 77.72 32.76C77.48 33.88 76 34.56 74.92 34.52C73.32 34.44 72.44 33.8 72.28 32.2C72.16 31.16 72.32 30.04 72.32 29C69.88 29 63.48 28.92 61.24 28.76C60.4 28.68 60 28.64 59.32 28C58.96 27.68 58.8 27.08 58.8 26.52C58.8 26 59 25.48 59.32 25.16C60.12 24.32 62.08 24.36 62.16 24.36H85.04C85.84 24.36 86.64 24.36 87.4 24.4C88.12 24.44 88.92 24.56 89.48 25.08C90.04 25.52 90.04 26.04 90.04 26.68C90.04 27.48 89.56 28.16 88.76 28.44C87.68 28.84 86.36 28.88 85.24 28.92ZM86.36 36.48C86.44 36.52 87.92 36.88 88.08 38C88.24 39 88.08 39.8 87.6 40.36C87 41.12 86.12 41.16 86.08 41.16H64.24C62.2 41.16 60.96 40.44 60.96 39.24V35.68C60.92 35.08 60.92 34.48 60.96 33.88C61.04 32.76 61.88 32 63 32C63.28 32 63.84 32.04 64.08 32.12C65.44 32.56 65.52 33.92 65.6 35.12C65.6 35.56 65.64 36.04 65.76 36.4C65.88 36.44 66.68 36.56 68.56 36.56C70.16 36.56 71.64 36.48 71.68 36.48H86.36ZM66.84 16.6C66.84 16.84 66.84 17.12 66.96 17.24C67.2 17.44 68.12 17.32 68.12 17.32H78.64C78.64 17.32 80.56 17.48 81.52 17.36C82.08 17.32 82.08 17.08 82.16 16.6C82.2 16.16 82.28 15.24 81.96 14.84C81.6 14.4 80.76 14.48 80.28 14.52H76.64C76.28 14.48 71.44 14.52 71.08 14.52C69.96 14.44 68.84 14.48 67.68 14.52C67.2 14.52 67.04 14.44 66.92 14.92C66.84 15.28 66.84 15.92 66.84 16.24V16.6ZM95.2516 33.72C95.4516 33.64 99.1316 33.8 99.8116 33.8C99.8516 33.16 99.9316 30.52 100.012 29.2C99.5316 29.08 99.0916 28.96 98.6516 28.76C95.6516 27.52 93.3316 25.08 93.3316 21.56C93.3316 19.64 93.8916 18.16 94.8116 17H94.3716C93.0916 17 92.0116 16.04 92.0116 14.88C92.0116 13.68 93.0916 12.72 94.3716 12.72H99.6516V11.08C99.6516 10.04 100.692 9.28 101.972 9.28C103.292 9.28 104.332 10.04 104.332 11.08V12.72H109.852C111.172 12.72 112.252 13.68 112.252 14.88C112.252 16.04 111.172 17 109.852 17H109.732C110.652 18.16 111.252 19.64 111.252 21.56C111.252 24.04 110.052 26.08 108.052 27.6C107.052 28.32 105.932 28.84 104.772 29.16C104.852 30.4 104.852 33.16 104.852 33.76V33.8H110.172C111.052 33.8 111.772 33.96 112.292 34.28C113.492 35 113.452 36.96 112.932 37.92C112.452 38.76 111.412 38.84 110.572 38.84H94.7716C94.7316 38.84 93.3716 38.72 92.6516 38.4C92.1316 38.12 91.7316 37.52 91.6116 36.76C91.4916 35.92 91.7716 35.12 92.2916 34.64C93.2516 33.84 94.3316 33.72 95.2516 33.72ZM121.772 22.96H121.852C122.132 22.92 122.372 23 122.612 23C122.932 23.04 123.212 23.08 123.532 23.12C124.132 23.24 124.772 23.48 125.092 24.08C125.252 24.4 125.332 24.76 125.332 25.16C125.332 25.52 125.332 25.92 125.252 26.28C125.132 26.68 125.012 27.24 124.692 27.52C124.372 27.76 123.972 27.96 123.572 28.04C122.732 28.16 121.292 28.04 120.452 28.08C120.372 28.12 120.332 28.12 120.332 28.12C120.332 28.12 120.332 28.16 120.292 28.28C120.252 29.6 120.292 30.76 120.292 32.12C120.332 33.48 120.332 34.88 120.292 36.2V36.76C120.292 38.16 120.332 40.2 119.372 41.2C119.012 41.52 118.572 41.72 118.052 41.72H117.972C115.372 41.6 115.132 38.48 115.132 36.8V13.04C115.132 12.96 115.052 10.96 115.932 10.08C116.332 9.72 117.172 9.52 117.732 9.52C118.332 9.52 118.892 9.76 119.252 10.12C119.932 10.88 120.012 11.72 120.052 12.6C120.092 12.76 120.092 12.92 120.132 13.12C120.212 13.96 120.212 14.96 120.252 15.92C120.252 16.52 120.292 17.08 120.292 17.64V21.96C120.292 22.24 120.292 22.56 120.372 22.84C120.372 22.88 121.172 22.88 121.252 22.92C121.412 22.92 121.612 22.96 121.772 22.96ZM103.052 24.76C104.772 24.44 106.252 23.6 106.252 21.56C106.252 19.2 104.292 18.32 102.332 18.28C100.332 18.2 98.3316 19.04 98.3316 21.56C98.3316 24.44 100.852 25.2 103.052 24.76ZM162.553 38.44C163.393 38.52 164.113 38.8 164.353 39.64C164.673 40.6 164.313 41.28 163.313 41.68C162.673 41.92 161.993 41.96 161.433 41.96H142.833C141.753 41.96 140.593 41.92 139.433 41.88C138.313 41.84 137.513 41 137.393 39.8L137.273 37C137.233 36.44 137.193 35.48 137.673 34.96C138.393 34.16 139.833 34.04 140.993 34.04C142.513 34.04 147.593 34.08 159.793 34.08V32.64H140.113C139.593 32.64 139.153 32.64 138.753 32.56C138.273 32.44 137.873 32.44 137.633 32C137.273 31.44 137.153 30.92 137.353 30.28C137.633 29.44 138.833 29.32 139.433 29.24C139.833 29.16 140.233 29.12 140.673 29.12C143.073 29.12 145.873 29.16 160.193 29.16C162.873 29.16 164.393 29.96 164.393 31.8V34.64C164.393 35.36 164.073 36.16 163.233 36.64C162.553 37.04 161.833 37 161.153 37H142.193V38.44H162.553ZM137.633 15.2C137.553 13.88 137.353 12.48 137.793 11.32C138.393 9.88 139.913 9.64 141.233 9.64H159.873C160.953 9.64 161.873 9.68 162.913 10.08C163.753 10.44 164.273 11.28 164.233 12.2C164.153 13.12 163.593 13.84 162.713 14.04C162.233 14.16 161.513 14.24 160.553 14.24C159.873 14.24 159.393 14.2 159.353 14.2H147.793C146.993 14.2 146.193 14.24 145.393 14.2C144.753 14.16 144.073 13.96 143.473 14.16C142.873 14.32 142.913 15 143.073 15.68C143.833 15.8 144.593 15.8 145.353 15.84H152.953C153.433 15.88 156.593 15.88 156.993 15.84C157.313 15.8 159.513 15.8 159.833 15.8C161.073 15.8 162.153 16 162.993 16.4C163.513 16.68 163.873 16.88 163.993 17.52C164.153 18.16 164.033 18.84 163.633 19.32C162.873 20.32 161.913 20.36 160.793 20.4C159.753 20.44 153.873 20.48 152.233 20.48C150.553 20.48 147.153 20.44 145.593 20.44C143.833 20.4 142.073 20.32 140.313 20.32C137.713 20.32 137.713 18.56 137.713 16.32C137.713 15.96 137.673 15.56 137.633 15.2ZM138.993 22.64C139.793 22.56 141.553 22.56 141.553 22.56H150.353C150.353 22.56 157.753 22.48 161.353 22.56H161.553C162.633 22.6 163.713 22.52 164.753 22.92C165.513 23.2 165.993 23.88 165.993 24.68C165.993 25.32 165.713 25.92 165.193 26.36C164.353 27.12 162.993 27.08 161.913 27H138.953C138.873 27 136.993 27.04 136.233 26.2C135.913 25.88 135.753 25.36 135.753 24.84C135.753 24.28 135.953 23.8 136.273 23.48C136.953 22.8 137.713 22.76 138.513 22.68C138.673 22.68 138.833 22.64 138.993 22.64ZM191.589 14.52C191.629 13.16 191.589 11.04 192.549 10.08C192.909 9.72 193.349 9.56 193.829 9.56H193.909C196.549 9.68 196.789 12.8 196.789 14.48V38.2C196.789 38.28 196.869 40.32 195.949 41.16C195.589 41.52 194.749 41.76 194.189 41.76C193.589 41.76 193.029 41.52 192.669 41.12C191.989 40.36 191.869 39.68 191.789 38.8C191.789 37.88 191.709 34.68 191.749 33.2H189.269C188.069 33.2 187.429 32.8 187.149 32.2C186.989 31.88 186.829 31.52 186.829 31.16C186.829 30.8 186.829 30.56 186.909 30.2C187.029 29.8 187.149 29.24 187.469 28.96C187.789 28.72 188.189 28.52 188.589 28.44C189.429 28.28 190.749 28.32 191.629 28.2C191.629 27.4 191.629 24.92 191.589 23.16L189.189 23.08C188.189 23.04 187.309 22.88 187.029 22.28C186.869 21.96 186.749 21.56 186.749 21.2C186.749 20.84 186.749 20.6 186.829 20.24C186.949 19.84 187.069 19.36 187.389 19.08C187.709 18.84 188.109 18.64 188.509 18.56C189.109 18.44 190.149 18.44 191.549 18.36C191.549 16.6 191.549 15.04 191.589 14.52ZM177.029 9.56C177.709 9.56 178.349 9.64 178.989 9.72C179.989 9.88 180.909 10.36 181.669 11.12C184.269 13.84 184.829 18.52 184.989 22.32C185.109 24.76 185.069 27.24 184.789 29.64C184.509 32.12 184.149 34.8 182.829 36.84C181.709 38.56 179.949 39.68 178.149 40.04C176.509 40.36 174.709 40.16 173.189 39.28C171.749 38.44 170.789 37.12 170.069 35.44C169.549 34.2 169.229 32.84 169.149 31.48C168.949 29.24 168.869 27 168.869 24.76C168.869 23.24 168.869 21.76 169.029 20.28C169.109 19.08 169.309 17.84 169.509 16.68C169.709 15.72 169.829 14.88 170.229 14C170.629 13.12 171.149 12.28 171.829 11.64C172.989 10.48 174.509 9.84 176.029 9.64C176.349 9.6 176.709 9.6 177.029 9.56ZM176.909 34.72C177.389 34.72 177.909 34.56 178.389 34.24C179.269 33.6 179.589 32.48 179.829 31.2C180.269 28.76 180.229 25.8 180.149 23.28C180.109 21.24 180.069 18.6 179.109 16.96C178.589 16.08 177.789 15.52 176.949 15.64C176.069 15.72 175.269 16.28 174.789 17.32L174.429 18.16C174.109 19.16 173.949 20.28 173.869 21.36C173.789 22.44 173.709 23.56 173.709 24.64C173.749 25.72 173.629 26.72 173.709 27.76C173.909 30.52 174.269 34.68 176.909 34.72ZM216.772 34.8C218.332 34.8 219.772 35.16 219.972 36.88C220.172 38.6 218.412 39.64 216.972 39.72C215.852 39.76 210.492 39.72 207.892 39.72H207.572C206.372 39.68 204.972 39.68 203.772 39.32C202.932 39.08 202.092 38.32 201.692 37.4C201.172 36.24 201.292 33.76 201.292 33.64V16.64C201.252 16.36 200.972 13.52 201.772 12.2C202.452 11.08 205.492 11.04 205.772 11.04H215.132C215.292 11.04 218.652 10.92 219.172 12.6C219.372 13.2 219.332 14.64 219.092 15.08C218.892 15.44 218.532 15.68 218.092 15.8C217.612 15.92 216.852 16 215.812 16C215.132 16 214.612 15.96 209.692 15.96C208.972 15.96 208.052 16 207.692 16.16C206.932 16.48 206.972 18.24 207.052 18.84V18.88L207.212 32.72C207.212 33.76 207.612 34.52 208.852 34.52C209.132 34.56 213.252 34.8 216.772 34.8ZM227.412 21.88L230.572 22.16C231.532 22.36 232.372 23 232.372 24.16C232.372 24.56 232.372 24.92 232.252 25.32C232.092 26.2 231.612 26.96 230.612 26.96L227.332 27C227.252 29.76 227.332 34 227.332 37.32C227.332 38.72 227.292 41.68 224.932 41.84C222.332 42 222.132 39.44 222.132 37.76V13.2C222.132 13.12 222.092 11.12 222.972 10.24C223.332 9.88 224.172 9.68 224.772 9.68C225.372 9.68 225.892 9.92 226.252 10.28C226.972 11.04 227.012 11.88 227.092 12.76C227.332 15.68 227.412 18.84 227.412 21.88ZM260.615 34.52C260.775 34.56 260.935 34.52 261.095 34.52C261.975 34.6 262.775 34.8 263.495 35.44C263.855 35.8 264.055 36.28 264.055 36.84C264.055 37.4 263.855 38.2 263.535 38.56C262.695 39.4 260.735 39.32 260.655 39.32H238.255C238.015 39.32 237.735 39.36 237.455 39.36C236.335 39.4 234.895 39.48 234.015 38.72C233.495 38.24 233.175 37.64 233.175 37C233.175 36.2 233.695 35.2 234.495 34.88C235.575 34.48 236.735 34.56 237.895 34.52H238.095C240.375 34.48 242.855 34.48 245.255 34.52L245.215 29C243.175 29.04 241.495 29.04 240.535 28.96C239.415 28.92 237.935 28.88 237.015 28.2C235.815 27.28 235.775 24.36 235.775 24.24V15.64C235.775 14.6 235.615 13.48 235.815 12.44C236.095 11.2 237.615 10.88 238.815 10.8C239.735 10.76 241.095 11 241.295 12.08C241.375 12.56 241.215 15.6 241.415 16.04C241.535 16.32 242.095 16.36 242.375 16.4C243.615 16.48 244.015 16.36 245.255 16.36L254.415 16.4C254.975 16.44 255.415 16.44 255.575 15.88C255.615 15.32 255.615 12.96 255.655 12.52C255.695 11.56 255.975 11 256.975 10.8C258.015 10.56 259.495 10.64 260.095 11.24C260.935 12.12 260.895 13.16 260.895 15.24C260.815 17.68 261.015 23.56 260.775 26C260.655 27.56 259.775 28.56 258.255 28.8C257.455 28.92 256.375 28.88 255.575 28.88C253.855 28.92 252.215 28.92 250.615 28.92L250.695 34.52C253.415 34.52 255.295 34.44 257.895 34.52C258.855 34.56 259.775 34.44 260.615 34.52ZM241.415 23.84C241.615 24.64 242.775 24.64 243.655 24.68C244.055 24.64 252.175 24.56 252.655 24.64C253.095 24.68 253.535 24.64 253.975 24.68C254.535 24.72 255.495 24.92 255.495 24.04C255.495 23.64 255.575 22 255.375 21.24C255.215 20.6 254.855 20.64 254.335 20.68C254.095 20.68 253.335 20.72 253.095 20.68H243.975C242.975 20.64 241.495 20.44 241.375 21.68C241.375 21.96 241.375 23.64 241.415 23.84ZM295.356 38.72C295.276 39.36 295.236 39.96 295.036 40.6C294.956 40.8 294.876 40.96 294.796 41.16C294.636 41.48 294.396 41.8 294.076 42.04C293.476 42.4 292.716 42.48 292.036 42.32C291.636 42.24 291.276 42.08 290.996 41.84C290.036 40.96 290.076 38.88 290.076 38.8V14.08C290.036 12.84 290.076 10.84 290.836 10.12C291.396 9.56 292.076 9.48 292.796 9.48C293.716 9.48 294.556 10.04 294.876 10.92C295.356 12.04 295.316 13.28 295.356 14.52V14.72C295.476 18.8 295.356 23.32 295.356 27.16V37.28C295.356 37.76 295.396 38.24 295.356 38.72ZM276.476 34.8C276.436 34.16 276.436 33.52 276.436 32.88V20.16C276.436 19.32 276.436 18.44 276.356 17.56C276.316 17.28 276.276 16.68 275.996 16.56C275.716 16.4 275.356 16.48 275.036 16.44C274.676 16.4 274.316 16.48 273.956 16.44H272.076C271.196 16.48 270.236 16.4 269.356 16.44C268.956 16.48 268.596 16.44 268.196 16.44C267.596 16.44 266.916 16.44 266.396 16.08C265.636 15.56 265.436 14.68 265.436 13.84C265.396 13.32 265.516 12.8 265.756 12.32C265.876 12.04 266.036 11.8 266.276 11.64C266.556 11.36 267.156 11.16 267.516 11.08C268.636 10.8 269.916 10.84 271.076 10.84H278.036C278.716 10.92 279.556 11 280.196 11.24C280.596 11.4 281.076 11.68 281.316 12.04C281.796 12.8 281.796 13.52 281.876 14.4C281.996 15.88 281.956 17.36 281.956 18.84V31.96C281.956 32.08 282.036 35.4 281.956 37.08C281.876 38.16 281.636 39.48 280.236 40C279.756 40.2 279.276 40.28 278.876 40.28C278.196 40.28 277.396 40 277.116 39.4C276.716 38.6 276.476 37.6 276.476 36.56V34.8Z" fill="#48724B"/>
<circle cx="322" cy="24.5" r="17" fill="#A0C0A6"/>
<path d="M324.554 33.176H321.226V18.174L316.962 20.618L315.35 17.914L321.616 14.43H324.554V33.176Z" fill="white"/>
<path d="M385.8 14.52C385.84 13.16 385.8 11.04 386.76 10.08C387.12 9.72 387.56 9.56 388.04 9.56H388.12C390.76 9.68 391 12.8 391 14.48V38.2C391 38.28 391.08 40.32 390.16 41.16C389.8 41.52 388.96 41.76 388.4 41.76C387.8 41.76 387.24 41.52 386.88 41.12C386.2 40.36 386.08 39.68 386 38.8C386 37.88 385.92 34.68 385.96 33.2H383.48C382.28 33.2 381.64 32.8 381.36 32.2C381.2 31.88 381.04 31.52 381.04 31.16C381.04 30.8 381.04 30.56 381.12 30.2C381.24 29.8 381.36 29.24 381.68 28.96C382 28.72 382.4 28.52 382.8 28.44C383.64 28.28 384.96 28.32 385.84 28.2C385.84 27.4 385.84 24.92 385.8 23.16L383.4 23.08C382.4 23.04 381.52 22.88 381.24 22.28C381.08 21.96 380.96 21.56 380.96 21.2C380.96 20.84 380.96 20.6 381.04 20.24C381.16 19.84 381.28 19.36 381.6 19.08C381.92 18.84 382.32 18.64 382.72 18.56C383.32 18.44 384.36 18.44 385.76 18.36C385.76 16.6 385.76 15.04 385.8 14.52ZM371.24 9.56C371.92 9.56 372.56 9.64 373.2 9.72C374.2 9.88 375.12 10.36 375.88 11.12C378.48 13.84 379.04 18.52 379.2 22.32C379.32 24.76 379.28 27.24 379 29.64C378.72 32.12 378.36 34.8 377.04 36.84C375.92 38.56 374.16 39.68 372.36 40.04C370.72 40.36 368.92 40.16 367.4 39.28C365.96 38.44 365 37.12 364.28 35.44C363.76 34.2 363.44 32.84 363.36 31.48C363.16 29.24 363.08 27 363.08 24.76C363.08 23.24 363.08 21.76 363.24 20.28C363.32 19.08 363.52 17.84 363.72 16.68C363.92 15.72 364.04 14.88 364.44 14C364.84 13.12 365.36 12.28 366.04 11.64C367.2 10.48 368.72 9.84 370.24 9.64C370.56 9.6 370.92 9.6 371.24 9.56ZM371.12 34.72C371.6 34.72 372.12 34.56 372.6 34.24C373.48 33.6 373.8 32.48 374.04 31.2C374.48 28.76 374.44 25.8 374.36 23.28C374.32 21.24 374.28 18.6 373.32 16.96C372.8 16.08 372 15.52 371.16 15.64C370.28 15.72 369.48 16.28 369 17.32L368.64 18.16C368.32 19.16 368.16 20.28 368.08 21.36C368 22.44 367.92 23.56 367.92 24.64C367.96 25.72 367.84 26.72 367.92 27.76C368.12 30.52 368.48 34.68 371.12 34.72ZM397.663 35.64C397.663 30.8 403.663 29.48 411.023 29.48C418.383 29.48 424.383 30.24 424.383 35.64C424.383 40.96 418.383 41.8 411.023 41.8C403.663 41.8 397.663 40.96 397.663 35.64ZM411.103 20.68C411.103 22.88 410.063 24.96 408.303 26.28C405.943 28.08 402.783 28.2 400.183 27.16C397.583 26.08 395.583 23.76 395.583 20.68C395.583 18.92 396.103 17.44 396.983 16.32H396.663C395.423 16.32 394.423 15.44 394.423 14.28C394.423 13.12 395.423 12.2 396.663 12.2H400.983V10.88C400.983 9.88 401.983 9.12 403.183 9.12C404.423 9.12 405.423 9.88 405.423 10.88V12.2H409.983C411.183 12.2 412.223 13.12 412.223 14.28C412.223 15.44 411.183 16.32 409.983 16.32H409.663C410.543 17.44 411.103 18.92 411.103 20.68ZM424.063 12.76V26.16C424.063 26.24 424.023 27.68 422.943 28.32C422.623 28.52 422.383 28.6 422.023 28.6C421.543 28.6 421.063 28.48 420.703 28.2C420.423 28 420.183 27.72 420.023 27.4C419.223 25.92 419.503 24 419.543 22.36V21.8C418.983 21.84 418.383 21.88 417.863 21.88H417.743V25.52C417.703 26.08 417.623 26.72 417.303 27.32C417.143 27.64 416.903 27.92 416.623 28.08C416.263 28.36 416.063 28.52 415.583 28.52C415.183 28.52 414.823 28.4 414.463 28.2C413.423 27.56 413.263 26.12 413.263 26.08V12.88C413.223 12.64 413.263 11.44 413.583 10.8C413.823 10.28 414.463 9.92 415.223 9.84C416.103 9.72 416.663 9.96 417.103 10.44C417.463 10.84 417.503 11.24 417.623 11.68C417.783 12.2 417.783 12.84 417.783 13.4C417.743 13.56 417.743 13.72 417.743 13.88V17.4C417.983 17.44 418.823 17.48 419.583 17.52V13.76V13.28C419.543 12.72 419.543 12.12 419.703 11.56C419.823 11.16 420.063 10.76 420.423 10.36C420.823 9.84 421.423 9.6 422.303 9.72C423.063 9.84 423.503 10.24 423.743 10.76C424.063 11.4 424.103 12.56 424.063 12.76ZM418.983 35.64C418.983 33.8 414.743 33.64 411.023 33.64C407.303 33.64 403.303 33.8 403.303 35.64C403.303 37.28 407.303 37.6 411.023 37.6C414.743 37.6 418.983 37.8 418.983 35.64ZM403.983 23.56C405.463 23.24 406.503 22.48 406.503 20.68C406.503 18.6 404.943 17.48 403.383 17.44C401.783 17.4 400.183 18.48 400.183 20.68C400.183 23.2 402.063 23.92 403.983 23.56Z" fill="#48724B"/>
<g clip-path="url(#clip0_1581_100920)">
<path d="M438.992 17.8C436.844 18.7579 437.169 21.2524 436.617 22.0307C436.065 22.809 433.611 23.5973 433.385 26.2415C433.148 28.8857 434.942 28.756 435.73 29.9035C436.509 31.051 435.996 33.8648 439.377 34.4236C442.757 34.9824 442.866 32.1785 444.216 31.8792C445.566 31.5898 448.739 31.6497 450.484 29.5144C452.189 27.4189 450.671 24.9543 450.385 24.0762C450.099 23.1882 450.622 20.8633 449.143 19.6958C447.665 18.5384 446.207 19.7058 444.975 19.0672C443.743 18.4286 441.161 16.8421 439.012 17.8" fill="#D1E8CF"/>
<path d="M440.204 34.8633C439.928 34.8633 439.633 34.8433 439.307 34.7834C436.637 34.3344 436.173 32.5583 435.838 31.2611C435.72 30.8121 435.612 30.3831 435.424 30.1136C435.217 29.8043 434.892 29.5848 434.557 29.3653C433.798 28.8564 432.842 28.2178 433.02 26.2122C433.207 24.1367 434.636 23.109 435.592 22.4205C435.917 22.181 436.203 21.9814 436.331 21.8118C436.459 21.6322 436.538 21.243 436.637 20.8339C436.873 19.7264 437.208 18.1997 438.854 17.4613C440.963 16.5234 443.348 17.7906 444.767 18.5489L445.132 18.7385C445.566 18.968 446.068 18.9082 446.64 18.8483C447.468 18.7585 448.404 18.6487 449.36 19.3971C450.533 20.3151 450.582 21.8417 450.621 22.9493C450.631 23.3584 450.651 23.7376 450.72 23.9471C450.759 24.0768 450.828 24.2465 450.917 24.4361C451.42 25.6135 452.346 27.7987 450.759 29.7345C449.271 31.5505 446.857 31.8698 445.26 32.0793C444.886 32.1292 444.55 32.1691 444.294 32.229C443.949 32.3088 443.683 32.6481 443.348 33.0871C442.757 33.8455 441.978 34.8533 440.224 34.8533L440.204 34.8633ZM439.14 18.1398C437.819 18.7285 437.553 19.9858 437.336 20.9936C437.228 21.5025 437.129 21.9415 436.912 22.2508C436.725 22.5103 436.39 22.7497 436.016 23.0291C435.129 23.6677 433.907 24.5458 433.749 26.282C433.611 27.8586 434.242 28.2777 434.961 28.7566C435.345 29.0061 435.74 29.2755 436.025 29.7045C436.282 30.0737 436.41 30.5627 436.538 31.0815C436.873 32.3687 437.228 33.7058 439.426 34.075C441.407 34.4043 442.096 33.5162 442.757 32.6581C443.151 32.1492 443.525 31.6702 444.127 31.5405C444.403 31.4807 444.757 31.4308 445.161 31.3809C446.65 31.1913 448.887 30.8919 450.198 29.2954C451.499 27.6989 450.72 25.853 450.247 24.7554C450.158 24.5358 450.079 24.3463 450.03 24.2066C449.932 23.8972 449.912 23.4782 449.902 22.9992C449.863 21.9814 449.823 20.7142 448.916 20.0058C448.197 19.437 447.478 19.5168 446.719 19.6066C446.088 19.6765 445.428 19.7463 444.797 19.427L444.422 19.2275C443.121 18.529 440.933 17.3615 439.14 18.1598V18.1398Z" fill="#7DA37E"/>
<path d="M441.821 26.6022C442.176 26.5124 442.541 26.7319 442.619 27.0811C442.708 27.4403 442.491 27.7996 442.137 27.8894C441.782 27.9792 441.417 27.7596 441.328 27.4104C441.24 27.0512 441.457 26.692 441.821 26.6022Z" fill="#C8A374"/>
<path d="M440.569 25.4733C440.924 25.3835 441.289 25.603 441.368 25.9522C441.456 26.3114 441.239 26.6706 440.885 26.7604C440.53 26.8503 440.165 26.6307 440.076 26.2815C439.988 25.9223 440.205 25.5631 440.569 25.4733Z" fill="#C8A374"/>
<path d="M443.743 26.2506C444.098 26.1608 444.463 26.3803 444.541 26.7296C444.63 27.0888 444.413 27.448 444.058 27.5378C443.704 27.6276 443.339 27.4081 443.25 27.0588C443.162 26.6996 443.378 26.3404 443.743 26.2506Z" fill="#C8A374"/>
<path d="M444.313 24.7155C444.668 24.6257 445.033 24.8452 445.112 25.1944C445.2 25.5536 444.984 25.9128 444.629 26.0026C444.274 26.0924 443.909 25.8729 443.821 25.5237C443.732 25.1645 443.949 24.8053 444.313 24.7155Z" fill="#C8A374"/>
<path d="M442.452 24.6959C442.807 24.6061 443.171 24.8256 443.25 25.1749C443.339 25.5341 443.122 25.8933 442.767 25.9831C442.413 26.0729 442.048 25.8534 441.959 25.5042C441.871 25.1449 442.087 24.7857 442.452 24.6959Z" fill="#C8A374"/>
<path d="M443.653 23.0201C444.008 22.9303 444.373 23.1499 444.452 23.4991C444.54 23.8583 444.323 24.2175 443.969 24.3073C443.614 24.3971 443.249 24.1776 443.16 23.8284C443.072 23.4692 443.289 23.1099 443.653 23.0201Z" fill="#C8A374"/>
<path d="M441.929 22.7194C442.283 22.6296 442.648 22.8491 442.727 23.1983C442.816 23.5575 442.599 23.9167 442.244 24.0065C441.889 24.0963 441.525 23.8768 441.436 23.5276C441.347 23.1684 441.564 22.8092 441.929 22.7194Z" fill="#C8A374"/>
<path d="M440.708 23.8483C441.063 23.7585 441.427 23.978 441.506 24.3272C441.595 24.6864 441.378 25.0456 441.023 25.1355C440.668 25.2253 440.304 25.0057 440.215 24.6565C440.126 24.2973 440.343 23.9381 440.708 23.8483Z" fill="#C8A374"/>
<path d="M454.21 21.83C452.643 21.7202 450.967 22.5584 450.189 23.6061C449.41 24.6538 449.41 26.4599 448.819 26.9688C448.346 27.3679 447.222 27.5375 446.227 28.0963C445.084 28.7449 444.206 29.9422 443.96 31.6585C443.704 33.4745 444.778 34.8016 446.01 35.53C446.956 36.0888 447.745 36.0289 448.572 36.5179C449.39 37.0068 449.794 37.6454 450.504 38.4237C451.164 39.1521 452.239 40.0002 454.003 40.11C455.777 40.2098 456.989 39.5812 457.521 38.723C457.984 37.9747 458.339 37.1365 458.802 36.6176C459.236 36.1187 460.261 35.979 461.099 35.3604C462.153 34.5821 462.794 33.1452 462.616 31.2494C462.528 30.3514 461.946 29.3136 461.197 28.665C460.369 27.9566 458.95 27.5674 458.645 27.1683C458.329 26.7692 458.832 25.4321 457.965 24.1948C457.097 22.9575 455.678 21.9298 454.22 21.83" fill="#E9F4E5"/>
<path d="M454.367 40.5009C454.239 40.5009 454.111 40.5009 453.983 40.4909C452.485 40.4011 451.253 39.8124 450.238 38.6949C450.051 38.4853 449.883 38.2957 449.726 38.1062C449.292 37.5873 448.947 37.1882 448.385 36.8489C448.03 36.6394 447.666 36.5396 447.281 36.4298C446.848 36.3101 446.355 36.1704 445.823 35.8611C444.187 34.8932 443.359 33.3067 443.605 31.6203C443.852 29.9041 444.719 28.5471 446.049 27.7887C446.562 27.4994 447.094 27.3098 447.567 27.1501C447.991 27.0005 448.395 26.8608 448.582 26.7011C448.789 26.5315 448.927 25.9827 449.075 25.4439C449.252 24.7554 449.459 23.987 449.903 23.3884C450.81 22.171 452.623 21.3528 454.239 21.4725C455.708 21.5723 457.255 22.5402 458.26 23.997C458.862 24.8651 458.871 25.7831 458.881 26.3918C458.881 26.6013 458.881 26.8907 458.931 26.9605C459.019 27.0803 459.453 27.2798 459.798 27.4395C460.34 27.6989 460.961 27.9883 461.444 28.3974C462.272 29.1058 462.892 30.2434 462.981 31.2212C463.168 33.137 462.557 34.7535 461.316 35.6715C460.882 35.9908 460.409 36.1903 459.995 36.37C459.591 36.5396 459.246 36.6893 459.078 36.8788C458.812 37.1882 458.566 37.6272 458.31 38.1062C458.162 38.3855 458.004 38.6649 457.837 38.9443C457.226 39.9421 455.944 40.5109 454.377 40.5109L454.367 40.5009ZM453.944 22.191C452.653 22.191 451.194 22.8695 450.484 23.8274C450.13 24.3063 449.942 25.0048 449.775 25.6235C449.588 26.3219 449.43 26.9206 449.055 27.2499C448.76 27.4994 448.316 27.649 447.804 27.8286C447.36 27.9883 446.858 28.1579 446.404 28.4174C445.271 29.056 444.532 30.2234 444.325 31.7102C444.039 33.6958 445.537 34.8233 446.197 35.2125C446.641 35.4819 447.045 35.5917 447.478 35.7114C447.892 35.8212 448.316 35.9409 448.76 36.2003C449.42 36.5995 449.824 37.0684 450.277 37.6072C450.425 37.7869 450.593 37.9764 450.77 38.176C451.657 39.1539 452.722 39.6628 454.023 39.7426C455.491 39.8224 456.693 39.3734 457.216 38.5252C457.373 38.2658 457.531 37.9864 457.669 37.727C457.945 37.2181 458.211 36.7391 458.536 36.37C458.822 36.0507 459.256 35.8611 459.719 35.6715C460.113 35.5019 460.527 35.3322 460.892 35.0628C461.917 34.3045 462.419 32.9275 462.262 31.2811C462.183 30.4928 461.651 29.5349 460.971 28.9462C460.567 28.597 459.995 28.3275 459.492 28.0981C458.97 27.8586 458.566 27.659 458.359 27.3996C458.162 27.1501 458.162 26.8109 458.152 26.3818C458.152 25.8031 458.142 25.0846 457.669 24.4061C456.802 23.1489 455.432 22.2808 454.19 22.191C454.111 22.191 454.032 22.191 453.944 22.191Z" fill="#7DA37E"/>
<path d="M453.047 29.7836C452.948 30.1229 452.594 30.3124 452.268 30.2127C451.943 30.1129 451.756 29.7537 451.854 29.4244C451.953 29.0851 452.298 28.8955 452.633 28.9953C452.958 29.0951 453.145 29.4543 453.047 29.7836Z" fill="#C8A374"/>
<path d="M454.555 29.3031C454.456 29.6424 454.101 29.832 453.776 29.7322C453.451 29.6324 453.264 29.2732 453.362 28.9439C453.461 28.6047 453.806 28.4151 454.141 28.5149C454.466 28.6146 454.653 28.9738 454.555 29.3031Z" fill="#C8A374"/>
<path d="M452.395 31.5414C452.296 31.8807 451.941 32.0703 451.616 31.9705C451.291 31.8707 451.104 31.5115 451.202 31.1822C451.301 30.8429 451.646 30.6534 451.981 30.7531C452.306 30.8529 452.493 31.2121 452.395 31.5414Z" fill="#C8A374"/>
<path d="M453.352 32.7563C453.253 33.0955 452.898 33.2851 452.573 33.1853C452.248 33.0855 452.061 32.7263 452.159 32.397C452.258 32.0578 452.603 31.8682 452.938 31.968C453.263 32.0678 453.45 32.427 453.352 32.7563Z" fill="#C8A374"/>
<path d="M454.268 31.2289C454.169 31.5682 453.814 31.7578 453.489 31.658C453.164 31.5582 452.977 31.199 453.075 30.8697C453.174 30.5304 453.519 30.3409 453.854 30.4406C454.179 30.5404 454.366 30.8996 454.268 31.2289Z" fill="#C8A374"/>
<path d="M455.037 33.0258C454.939 33.365 454.584 33.5546 454.259 33.4548C453.933 33.3551 453.746 32.9958 453.845 32.6666C453.943 32.3273 454.288 32.1377 454.623 32.2375C454.948 32.3373 455.136 32.6965 455.037 33.0258Z" fill="#C8A374"/>
<path d="M456.111 31.7602C456.013 32.0994 455.658 32.289 455.333 32.1892C455.008 32.0894 454.82 31.7302 454.919 31.4009C455.017 31.0617 455.362 30.8721 455.697 30.9719C456.023 31.0717 456.21 31.4309 456.111 31.7602Z" fill="#C8A374"/>
<path d="M455.795 30.2133C455.696 30.5525 455.342 30.7421 455.016 30.6423C454.691 30.5426 454.504 30.1833 454.602 29.8541C454.701 29.5148 455.046 29.3252 455.381 29.425C455.706 29.5248 455.894 29.884 455.795 30.2133Z" fill="#C8A374"/>
<path d="M455.903 9.26849C454.593 8.62989 452.868 8.7596 451.833 9.37825C450.798 10.0069 450.187 11.5635 449.497 11.793C448.955 11.9726 447.92 11.7231 446.876 11.8528C445.664 12.0025 444.501 12.7309 443.702 14.1179C442.855 15.5847 443.328 17.1014 444.136 18.169C444.757 18.9872 445.457 19.2068 445.999 19.9152C446.541 20.6237 446.659 21.3121 447.004 22.2401C447.319 23.0982 447.95 24.2058 449.438 24.9242C450.926 25.6327 452.198 25.5229 452.947 24.9642C453.597 24.4852 454.198 23.8865 454.77 23.5971C455.312 23.3277 456.238 23.5572 457.175 23.3277C458.347 23.0284 459.392 22.0206 459.885 20.3243C460.121 19.5161 459.974 18.4185 459.55 17.6102C459.077 16.7022 457.993 15.884 457.865 15.425C457.736 14.966 458.623 13.9981 458.308 12.6212C457.993 11.2442 457.116 9.86718 455.893 9.26849" fill="#E9F4E5"/>
<path d="M451.429 25.7514C450.769 25.7514 450.04 25.5718 449.301 25.2225C448.039 24.6139 447.192 23.6759 446.699 22.3588C446.61 22.1193 446.531 21.8898 446.462 21.6703C446.265 21.0716 446.107 20.6026 445.743 20.1237C445.506 19.8144 445.23 19.6048 444.935 19.3753C444.6 19.1159 444.225 18.8265 443.88 18.3675C442.806 16.9606 442.638 15.3042 443.427 13.9372C444.225 12.5502 445.447 11.6821 446.847 11.5025C447.389 11.4327 447.911 11.4626 448.374 11.4826C448.798 11.5025 449.192 11.5225 449.409 11.4526C449.646 11.3728 449.961 10.9537 450.257 10.5446C450.651 10.0158 451.094 9.42708 451.676 9.06787C452.878 8.33946 454.721 8.27959 456.061 8.93815C457.293 9.54682 458.289 10.9138 458.653 12.5203C458.87 13.4782 458.565 14.2665 458.368 14.7953C458.299 14.9749 458.2 15.2344 458.21 15.3042C458.249 15.4339 458.545 15.7632 458.791 16.0227C459.176 16.4318 459.609 16.9007 459.876 17.4296C460.339 18.3276 460.487 19.525 460.23 20.4031C459.728 22.1093 458.653 23.2967 457.274 23.646C456.791 23.7657 456.318 23.7757 455.894 23.7757C455.49 23.7757 455.145 23.7757 454.928 23.8954C454.593 24.0651 454.228 24.3644 453.844 24.6837C453.617 24.8733 453.391 25.0629 453.154 25.2325C452.681 25.5817 452.1 25.7514 451.439 25.7514H451.429ZM447.596 12.1411C447.379 12.1411 447.152 12.1411 446.925 12.1811C445.733 12.3307 444.688 13.0791 443.998 14.2865C443.072 15.8929 443.979 17.3897 444.402 17.9584C444.698 18.3476 445.004 18.587 445.329 18.8365C445.644 19.076 445.969 19.3354 446.255 19.7046C446.689 20.2734 446.866 20.8222 447.083 21.4508C447.152 21.6603 447.221 21.8798 447.31 22.1193C447.743 23.2668 448.483 24.085 449.577 24.6139C450.818 25.2026 452.001 25.2325 452.74 24.6937C452.967 24.5241 453.194 24.3444 453.4 24.1648C453.814 23.8256 454.209 23.4963 454.613 23.2967C454.967 23.1171 455.401 23.1171 455.864 23.1072C456.259 23.1072 456.672 23.1072 457.086 22.9974C458.23 22.708 459.136 21.7002 459.56 20.2235C459.767 19.515 459.639 18.5072 459.255 17.7589C459.028 17.3198 458.624 16.8808 458.269 16.5016C457.904 16.1125 457.619 15.8031 457.54 15.5138C457.461 15.2344 457.569 14.935 457.717 14.5658C457.914 14.0669 458.151 13.4483 457.973 12.6899C457.658 11.303 456.781 10.0757 455.746 9.56678C454.455 8.93815 452.858 9.14769 452.001 9.66656C451.528 9.95592 451.134 10.4947 450.779 10.9637C450.385 11.5025 450.04 11.9615 449.596 12.1112C449.261 12.221 448.828 12.201 448.325 12.1711C448.088 12.1611 447.842 12.1511 447.586 12.1511L447.596 12.1411Z" fill="#7DA37E"/>
<path d="M452.179 15.7044C451.972 15.9638 451.607 16.0037 451.361 15.8042C451.114 15.6046 451.075 15.2354 451.282 14.976C451.489 14.7166 451.854 14.6766 452.1 14.8762C452.346 15.0758 452.386 15.445 452.179 15.7044Z" fill="#C8A374"/>
<path d="M453.638 15.8127C453.431 16.0721 453.066 16.112 452.82 15.9125C452.573 15.7129 452.534 15.3437 452.741 15.0843C452.948 14.8348 453.313 14.7849 453.559 14.9945C453.805 15.194 453.845 15.5632 453.638 15.8227" fill="#C8A374"/>
<path d="M451.017 16.97C450.81 17.2295 450.445 17.2694 450.199 17.0698C449.952 16.8702 449.913 16.501 450.12 16.2416C450.327 15.9822 450.691 15.9423 450.938 16.1418C451.184 16.3414 451.224 16.7106 451.017 16.97Z" fill="#C8A374"/>
<path d="M451.409 18.3567C451.202 18.6062 450.838 18.6561 450.591 18.4565C450.345 18.257 450.305 17.8878 450.512 17.6283C450.719 17.3689 451.084 17.329 451.33 17.5286C451.577 17.7281 451.616 18.0973 451.409 18.3567Z" fill="#C8A374"/>
<path d="M452.731 17.3724C452.525 17.6318 452.16 17.6717 451.913 17.4721C451.667 17.2726 451.628 16.9034 451.835 16.644C452.042 16.3845 452.406 16.3446 452.653 16.5442C452.899 16.7437 452.938 17.1129 452.731 17.3724Z" fill="#C8A374"/>
<path d="M452.771 19.1869C452.564 19.4463 452.199 19.4862 451.953 19.2867C451.706 19.0871 451.667 18.7179 451.874 18.4585C452.081 18.1991 452.445 18.1592 452.692 18.3687C452.938 18.5683 452.978 18.9374 452.771 19.1969" fill="#C8A374"/>
<path d="M454.13 18.4682C453.923 18.7276 453.558 18.7675 453.312 18.5679C453.066 18.3684 453.026 17.9992 453.233 17.7397C453.44 17.4803 453.805 17.4404 454.051 17.6499C454.297 17.8495 454.337 18.2187 454.13 18.4781" fill="#C8A374"/>
<path d="M454.396 17.0307C454.189 17.2901 453.824 17.33 453.578 17.1304C453.331 16.9309 453.292 16.5617 453.499 16.3022C453.706 16.0428 454.07 16.0029 454.317 16.2124C454.563 16.412 454.603 16.7812 454.396 17.0406" fill="#C8A374"/>
</g>
<defs>
<clipPath id="clip0_1581_100920">
<rect width="30" height="32" fill="white" transform="translate(433 8.5)"/>
</clipPath>
</defs>
</svg>
