<svg width="764" height="49" viewBox="0 0 764 49" fill="none" xmlns="http://www.w3.org/2000/svg">
<rect width="351" height="49" rx="8" fill="#E4F2FC"/>
<path d="M13.5347 19.3784C14.3019 19 15.4038 18.3832 16.1943 17.9904C16.474 17.8177 16.7686 17.6676 17.0865 17.5031C15.806 17.8494 14.4789 18.2244 13.2134 18.5932C11.8332 18.9375 11.4911 16.9278 12.9203 16.807C14.0718 16.7624 15.2615 16.726 16.4364 16.667C15.2888 16.5188 14.1031 16.3624 12.9471 16.2511C11.5323 16.0457 12.0491 14.0451 13.4049 14.509C14.5465 14.9465 15.7114 15.3695 16.8763 15.7926C16.664 15.6698 16.4751 15.5327 16.2628 15.4099C15.5051 14.9575 14.4523 14.3066 13.6861 13.8912C12.4975 13.1338 13.8037 11.5342 14.8506 12.4743C15.7001 13.3142 16.6026 14.1848 17.5051 15.0554C16.8357 14.0409 16.1047 13.0327 15.4035 12.0695C14.6448 10.9198 16.5204 9.98404 17.0545 11.2407C17.3525 12.0403 17.774 13.1762 18.0953 13.9614C18.1612 14.111 18.2272 14.2607 18.2698 14.4247C18.0626 13.3153 17.8404 12.1833 17.6099 11.0882C17.4002 9.7265 19.5123 9.59658 19.4611 10.9607C19.3902 11.7977 19.3346 13.0059 19.2785 13.8655C19.2641 14.1916 19.2498 14.5178 19.2354 14.844C19.3261 14.5341 19.4169 14.2243 19.531 13.9C19.7779 13.0813 20.1008 11.9301 20.3329 11.0888C20.751 9.78369 22.699 10.5483 22.0602 11.7676C21.1779 13.2641 20.3021 14.82 19.4495 16.3616C21.4599 17.8174 23.2903 19.4478 24.9193 21.1708C24.4492 20.1601 23.9875 19.1125 23.509 18.1388C22.9601 16.8596 24.9824 16.2457 25.2918 17.6094C25.4842 18.6963 25.7063 19.8282 25.9518 20.9458C25.9473 20.79 25.9513 20.5971 25.9468 20.4412C25.9414 19.5879 25.9355 18.3859 25.8919 17.5245C25.9048 16.1522 28.0174 16.371 27.7521 17.7087C27.4505 18.9419 27.1554 20.2346 26.8836 21.5128C27.4673 20.3593 28.0446 19.1463 28.5901 17.9846C29.2289 16.7653 31.0246 17.846 30.1736 18.9425C29.0027 20.2999 27.8298 21.7536 26.7119 23.1417C28.4262 25.1928 29.8713 27.2831 31.0723 29.302C31.0529 29.1236 31.0103 28.9596 30.991 28.7811C30.8392 27.9547 30.634 26.7488 30.4823 25.9224C30.2725 24.5606 32.3995 24.4533 32.3633 25.8399C32.2715 26.9436 32.1713 28.0842 32.1092 29.233C32.4004 28.1332 32.6766 27.0108 32.9445 25.9253C33.3244 24.6121 35.304 25.3254 34.6801 26.5672C34.2507 27.3082 33.6838 28.3879 33.2925 29.1371L32.8293 30.0259C33.0495 29.763 33.2845 29.5227 33.4814 29.2743C34.0552 28.6028 34.8641 27.691 35.4146 27.0339C36.3484 26.0132 37.8138 27.4882 36.6761 28.3491C35.2057 29.352 33.7333 30.4514 32.3075 31.5219C33.7406 34.1907 34.6728 36.5977 35.1905 38.2769C35.2545 38.523 35.1573 38.7734 34.9708 38.8885C34.9242 38.9173 34.8776 38.946 34.831 38.9748C34.5299 39.0655 34.2264 38.9038 34.1327 38.6127C33.6448 36.9785 32.7488 34.6761 31.3603 32.0749C29.6008 32.59 27.7713 33.1482 26.0416 33.7084C24.6763 34.0753 24.2727 32.0718 25.6871 31.9284C27.0082 31.8426 28.3526 31.7424 29.697 31.6422C28.3586 31.4532 27.0052 31.2416 25.7198 31.0833C24.3134 30.841 24.8833 28.8711 26.2158 29.3494C27.281 29.7705 28.3844 30.1998 29.4878 30.6292C28.5029 30.0315 27.4799 29.4257 26.4866 28.8649C25.2979 28.1075 26.6042 26.5079 27.651 27.4481C28.2521 28.0606 29.1397 28.9086 29.7641 29.5068C29.8766 29.6277 29.9976 29.7116 30.1102 29.8325C28.9687 27.9038 27.545 25.8954 25.9284 23.9427C25.2291 24.3744 24.5299 24.806 23.839 25.2008C23.0932 25.6612 22.0443 26.3087 21.2984 26.7691C20.0948 27.4804 19.1358 25.6294 20.4882 25.1436C21.7389 24.7522 23.0213 24.3095 24.3038 23.8669C22.9509 24.004 21.598 24.1411 20.2983 24.309C18.869 24.4298 18.8959 22.3826 20.3127 22.4916C21.1845 22.6197 22.4169 22.7473 23.2887 22.8754C23.4647 22.8936 23.6408 22.9119 23.8168 22.9301C22.6966 22.5746 21.5679 22.2561 20.4541 21.9601C19.1131 21.5188 19.9419 19.6429 21.194 20.2977C21.9369 20.7275 23.0363 21.3496 23.7792 21.7794C23.9383 21.8715 24.1208 21.9492 24.2949 22.0639C22.6808 20.3634 20.8886 18.7412 18.9164 17.2935C17.5268 18.4686 16.0822 19.7094 14.7456 20.9152C13.661 21.8069 12.4372 20.1511 13.6557 19.4623" fill="#F3C574"/>
<path d="M37.2467 18.5741C38.4512 18.5602 39.6325 18.5607 40.852 18.5694C39.6618 18.2571 38.4632 17.9818 37.2943 17.7515C36.0109 17.4968 36.5575 15.5412 37.7585 16.0689C38.6859 16.48 39.6514 16.8992 40.5852 17.3698C39.7466 16.7453 38.8848 16.1351 38.0145 15.5619C36.8873 14.7983 38.0939 13.1967 39.0708 14.1801C39.8588 15.0262 40.6701 15.8579 41.4347 16.7185C40.8417 15.7203 40.2337 14.6996 39.5707 13.7446C38.7971 12.5723 40.5581 11.6121 41.1135 12.9508C41.5583 14.0722 41.9649 15.1855 42.3715 16.2988C42.196 15.138 42.0056 13.9547 41.7537 12.7777C41.4761 11.3627 43.5247 11.3354 43.5182 12.7672C43.4879 13.8646 43.4576 14.962 43.3891 16.0513C43.6485 15.0028 43.8846 13.9687 44.0677 12.9039C44.3648 11.5148 46.3171 12.4353 45.7845 13.716C45.2474 14.8408 44.7251 15.9881 44.135 17.0821C44.9438 16.1703 45.7294 15.2729 46.4936 14.2935C47.3511 13.2565 48.8085 15.1172 47.7492 15.898C46.3105 16.8496 44.8867 17.8237 43.4481 18.7753C44.4056 21.0714 45.3423 23.6342 46.0945 26.2157C46.1183 25.0588 46.104 23.8937 46.0515 22.7205C46.0198 21.2806 48.0242 21.5344 47.81 22.9992C47.6036 24.0784 47.4122 25.1802 47.1676 26.2513C47.5947 25.2579 47.9835 24.2564 48.3426 23.2098C48.8455 21.8841 50.654 23.0838 49.9007 24.2785C49.1811 25.3256 48.4997 26.3808 47.7503 27.3828C48.6866 26.6144 49.608 25.8235 50.523 24.9731C50.8831 24.6239 51.4643 24.7093 51.7851 25.1458C52.1655 25.6725 52.0182 26.4932 51.5222 26.7359C49.9581 27.4476 48.4004 28.2188 46.8511 28.9531C46.8045 28.9819 47.7927 33.5118 47.9038 34.0778C47.9509 34.3977 48.0744 34.7339 48.0367 35.0745C48.0009 35.3186 47.8804 35.5834 47.573 35.6146C47.1425 35.6582 46.9531 35.1723 46.9293 34.838C46.7344 33.4988 45.895 29.1944 45.8335 29.2006C44.0988 29.2562 42.3706 29.3712 40.6339 29.5232C39.3212 29.5721 39.3694 27.607 40.6548 27.7653C41.832 27.9586 43.0178 28.115 44.2184 28.294C43.1085 27.8052 41.9521 27.3452 40.8403 26.9528C39.6223 26.499 40.4659 24.6456 41.5867 25.3498C42.4421 25.9005 43.3124 26.4737 44.1743 27.0838C43.4458 26.3279 42.694 25.5863 41.9254 24.9186C40.94 23.9722 42.3802 22.5755 43.2004 23.719C43.8252 24.6659 44.5115 25.6065 45.1279 26.5903C44.3757 24.0088 43.4539 21.4685 42.4964 19.1724C40.8023 19.4884 39.0999 19.8414 37.4271 20.2395C36.1487 20.4893 35.8661 18.5697 37.1787 18.5209" fill="#F3C574"/>
<path d="M63.04 21.28C62.96 21.28 62.92 21.24 62.92 21.2C62.4 20.8 62.24 19.8 62.24 19.2C62.2 18.24 62.08 17.28 62.08 16.36C62.08 15 62.04 13.36 62.28 12.04C62.44 11.2 62.76 10.72 63.56 10.4C64.28 10.12 65.04 10.04 65.8 9.96C66.72 9.88 67.68 9.96 68.64 9.96H76.24C78.96 9.96 78.6 9.96 81.28 9.92C81.76 9.92 82.2 9.92 82.68 9.96C83.68 10 84.8 10.04 85.72 10.48C86.76 10.92 87.08 12.04 87.12 13.08C87.2 14.28 87.08 15.8 87.08 17C87.04 18.08 87.08 19.16 86.8 20.2C86.64 20.8 86.52 21.28 85.88 21.48C85.32 21.68 84.6 21.72 84.04 21.72H66.76C66.24 21.72 65.72 21.68 65.2 21.64C64.52 21.6 63.64 21.68 63.04 21.28ZM85.24 28.92C82.6 29 80.52 29.08 77.84 29.08C77.8 30.2 77.72 31.24 77.72 32.76C77.48 33.88 76 34.56 74.92 34.52C73.32 34.44 72.44 33.8 72.28 32.2C72.16 31.16 72.32 30.04 72.32 29C69.88 29 63.48 28.92 61.24 28.76C60.4 28.68 60 28.64 59.32 28C58.96 27.68 58.8 27.08 58.8 26.52C58.8 26 59 25.48 59.32 25.16C60.12 24.32 62.08 24.36 62.16 24.36H85.04C85.84 24.36 86.64 24.36 87.4 24.4C88.12 24.44 88.92 24.56 89.48 25.08C90.04 25.52 90.04 26.04 90.04 26.68C90.04 27.48 89.56 28.16 88.76 28.44C87.68 28.84 86.36 28.88 85.24 28.92ZM86.36 36.48C86.44 36.52 87.92 36.88 88.08 38C88.24 39 88.08 39.8 87.6 40.36C87 41.12 86.12 41.16 86.08 41.16H64.24C62.2 41.16 60.96 40.44 60.96 39.24V35.68C60.92 35.08 60.92 34.48 60.96 33.88C61.04 32.76 61.88 32 63 32C63.28 32 63.84 32.04 64.08 32.12C65.44 32.56 65.52 33.92 65.6 35.12C65.6 35.56 65.64 36.04 65.76 36.4C65.88 36.44 66.68 36.56 68.56 36.56C70.16 36.56 71.64 36.48 71.68 36.48H86.36ZM66.84 16.6C66.84 16.84 66.84 17.12 66.96 17.24C67.2 17.44 68.12 17.32 68.12 17.32H78.64C78.64 17.32 80.56 17.48 81.52 17.36C82.08 17.32 82.08 17.08 82.16 16.6C82.2 16.16 82.28 15.24 81.96 14.84C81.6 14.4 80.76 14.48 80.28 14.52H76.64C76.28 14.48 71.44 14.52 71.08 14.52C69.96 14.44 68.84 14.48 67.68 14.52C67.2 14.52 67.04 14.44 66.92 14.92C66.84 15.28 66.84 15.92 66.84 16.24V16.6ZM95.2516 33.72C95.4516 33.64 99.1316 33.8 99.8116 33.8C99.8516 33.16 99.9316 30.52 100.012 29.2C99.5316 29.08 99.0916 28.96 98.6516 28.76C95.6516 27.52 93.3316 25.08 93.3316 21.56C93.3316 19.64 93.8916 18.16 94.8116 17H94.3716C93.0916 17 92.0116 16.04 92.0116 14.88C92.0116 13.68 93.0916 12.72 94.3716 12.72H99.6516V11.08C99.6516 10.04 100.692 9.28 101.972 9.28C103.292 9.28 104.332 10.04 104.332 11.08V12.72H109.852C111.172 12.72 112.252 13.68 112.252 14.88C112.252 16.04 111.172 17 109.852 17H109.732C110.652 18.16 111.252 19.64 111.252 21.56C111.252 24.04 110.052 26.08 108.052 27.6C107.052 28.32 105.932 28.84 104.772 29.16C104.852 30.4 104.852 33.16 104.852 33.76V33.8H110.172C111.052 33.8 111.772 33.96 112.292 34.28C113.492 35 113.452 36.96 112.932 37.92C112.452 38.76 111.412 38.84 110.572 38.84H94.7716C94.7316 38.84 93.3716 38.72 92.6516 38.4C92.1316 38.12 91.7316 37.52 91.6116 36.76C91.4916 35.92 91.7716 35.12 92.2916 34.64C93.2516 33.84 94.3316 33.72 95.2516 33.72ZM121.772 22.96H121.852C122.132 22.92 122.372 23 122.612 23C122.932 23.04 123.212 23.08 123.532 23.12C124.132 23.24 124.772 23.48 125.092 24.08C125.252 24.4 125.332 24.76 125.332 25.16C125.332 25.52 125.332 25.92 125.252 26.28C125.132 26.68 125.012 27.24 124.692 27.52C124.372 27.76 123.972 27.96 123.572 28.04C122.732 28.16 121.292 28.04 120.452 28.08C120.372 28.12 120.332 28.12 120.332 28.12C120.332 28.12 120.332 28.16 120.292 28.28C120.252 29.6 120.292 30.76 120.292 32.12C120.332 33.48 120.332 34.88 120.292 36.2V36.76C120.292 38.16 120.332 40.2 119.372 41.2C119.012 41.52 118.572 41.72 118.052 41.72H117.972C115.372 41.6 115.132 38.48 115.132 36.8V13.04C115.132 12.96 115.052 10.96 115.932 10.08C116.332 9.72 117.172 9.52 117.732 9.52C118.332 9.52 118.892 9.76 119.252 10.12C119.932 10.88 120.012 11.72 120.052 12.6C120.092 12.76 120.092 12.92 120.132 13.12C120.212 13.96 120.212 14.96 120.252 15.92C120.252 16.52 120.292 17.08 120.292 17.64V21.96C120.292 22.24 120.292 22.56 120.372 22.84C120.372 22.88 121.172 22.88 121.252 22.92C121.412 22.92 121.612 22.96 121.772 22.96ZM103.052 24.76C104.772 24.44 106.252 23.6 106.252 21.56C106.252 19.2 104.292 18.32 102.332 18.28C100.332 18.2 98.3316 19.04 98.3316 21.56C98.3316 24.44 100.852 25.2 103.052 24.76ZM162.553 38.44C163.393 38.52 164.113 38.8 164.353 39.64C164.673 40.6 164.313 41.28 163.313 41.68C162.673 41.92 161.993 41.96 161.433 41.96H142.833C141.753 41.96 140.593 41.92 139.433 41.88C138.313 41.84 137.513 41 137.393 39.8L137.273 37C137.233 36.44 137.193 35.48 137.673 34.96C138.393 34.16 139.833 34.04 140.993 34.04C142.513 34.04 147.593 34.08 159.793 34.08V32.64H140.113C139.593 32.64 139.153 32.64 138.753 32.56C138.273 32.44 137.873 32.44 137.633 32C137.273 31.44 137.153 30.92 137.353 30.28C137.633 29.44 138.833 29.32 139.433 29.24C139.833 29.16 140.233 29.12 140.673 29.12C143.073 29.12 145.873 29.16 160.193 29.16C162.873 29.16 164.393 29.96 164.393 31.8V34.64C164.393 35.36 164.073 36.16 163.233 36.64C162.553 37.04 161.833 37 161.153 37H142.193V38.44H162.553ZM137.633 15.2C137.553 13.88 137.353 12.48 137.793 11.32C138.393 9.88 139.913 9.64 141.233 9.64H159.873C160.953 9.64 161.873 9.68 162.913 10.08C163.753 10.44 164.273 11.28 164.233 12.2C164.153 13.12 163.593 13.84 162.713 14.04C162.233 14.16 161.513 14.24 160.553 14.24C159.873 14.24 159.393 14.2 159.353 14.2H147.793C146.993 14.2 146.193 14.24 145.393 14.2C144.753 14.16 144.073 13.96 143.473 14.16C142.873 14.32 142.913 15 143.073 15.68C143.833 15.8 144.593 15.8 145.353 15.84H152.953C153.433 15.88 156.593 15.88 156.993 15.84C157.313 15.8 159.513 15.8 159.833 15.8C161.073 15.8 162.153 16 162.993 16.4C163.513 16.68 163.873 16.88 163.993 17.52C164.153 18.16 164.033 18.84 163.633 19.32C162.873 20.32 161.913 20.36 160.793 20.4C159.753 20.44 153.873 20.48 152.233 20.48C150.553 20.48 147.153 20.44 145.593 20.44C143.833 20.4 142.073 20.32 140.313 20.32C137.713 20.32 137.713 18.56 137.713 16.32C137.713 15.96 137.673 15.56 137.633 15.2ZM138.993 22.64C139.793 22.56 141.553 22.56 141.553 22.56H150.353C150.353 22.56 157.753 22.48 161.353 22.56H161.553C162.633 22.6 163.713 22.52 164.753 22.92C165.513 23.2 165.993 23.88 165.993 24.68C165.993 25.32 165.713 25.92 165.193 26.36C164.353 27.12 162.993 27.08 161.913 27H138.953C138.873 27 136.993 27.04 136.233 26.2C135.913 25.88 135.753 25.36 135.753 24.84C135.753 24.28 135.953 23.8 136.273 23.48C136.953 22.8 137.713 22.76 138.513 22.68C138.673 22.68 138.833 22.64 138.993 22.64ZM191.589 14.52C191.629 13.16 191.589 11.04 192.549 10.08C192.909 9.72 193.349 9.56 193.829 9.56H193.909C196.549 9.68 196.789 12.8 196.789 14.48V38.2C196.789 38.28 196.869 40.32 195.949 41.16C195.589 41.52 194.749 41.76 194.189 41.76C193.589 41.76 193.029 41.52 192.669 41.12C191.989 40.36 191.869 39.68 191.789 38.8C191.789 37.88 191.709 34.68 191.749 33.2H189.269C188.069 33.2 187.429 32.8 187.149 32.2C186.989 31.88 186.829 31.52 186.829 31.16C186.829 30.8 186.829 30.56 186.909 30.2C187.029 29.8 187.149 29.24 187.469 28.96C187.789 28.72 188.189 28.52 188.589 28.44C189.429 28.28 190.749 28.32 191.629 28.2C191.629 27.4 191.629 24.92 191.589 23.16L189.189 23.08C188.189 23.04 187.309 22.88 187.029 22.28C186.869 21.96 186.749 21.56 186.749 21.2C186.749 20.84 186.749 20.6 186.829 20.24C186.949 19.84 187.069 19.36 187.389 19.08C187.709 18.84 188.109 18.64 188.509 18.56C189.109 18.44 190.149 18.44 191.549 18.36C191.549 16.6 191.549 15.04 191.589 14.52ZM177.029 9.56C177.709 9.56 178.349 9.64 178.989 9.72C179.989 9.88 180.909 10.36 181.669 11.12C184.269 13.84 184.829 18.52 184.989 22.32C185.109 24.76 185.069 27.24 184.789 29.64C184.509 32.12 184.149 34.8 182.829 36.84C181.709 38.56 179.949 39.68 178.149 40.04C176.509 40.36 174.709 40.16 173.189 39.28C171.749 38.44 170.789 37.12 170.069 35.44C169.549 34.2 169.229 32.84 169.149 31.48C168.949 29.24 168.869 27 168.869 24.76C168.869 23.24 168.869 21.76 169.029 20.28C169.109 19.08 169.309 17.84 169.509 16.68C169.709 15.72 169.829 14.88 170.229 14C170.629 13.12 171.149 12.28 171.829 11.64C172.989 10.48 174.509 9.84 176.029 9.64C176.349 9.6 176.709 9.6 177.029 9.56ZM176.909 34.72C177.389 34.72 177.909 34.56 178.389 34.24C179.269 33.6 179.589 32.48 179.829 31.2C180.269 28.76 180.229 25.8 180.149 23.28C180.109 21.24 180.069 18.6 179.109 16.96C178.589 16.08 177.789 15.52 176.949 15.64C176.069 15.72 175.269 16.28 174.789 17.32L174.429 18.16C174.109 19.16 173.949 20.28 173.869 21.36C173.789 22.44 173.709 23.56 173.709 24.64C173.749 25.72 173.629 26.72 173.709 27.76C173.909 30.52 174.269 34.68 176.909 34.72ZM216.772 34.8C218.332 34.8 219.772 35.16 219.972 36.88C220.172 38.6 218.412 39.64 216.972 39.72C215.852 39.76 210.492 39.72 207.892 39.72H207.572C206.372 39.68 204.972 39.68 203.772 39.32C202.932 39.08 202.092 38.32 201.692 37.4C201.172 36.24 201.292 33.76 201.292 33.64V16.64C201.252 16.36 200.972 13.52 201.772 12.2C202.452 11.08 205.492 11.04 205.772 11.04H215.132C215.292 11.04 218.652 10.92 219.172 12.6C219.372 13.2 219.332 14.64 219.092 15.08C218.892 15.44 218.532 15.68 218.092 15.8C217.612 15.92 216.852 16 215.812 16C215.132 16 214.612 15.96 209.692 15.96C208.972 15.96 208.052 16 207.692 16.16C206.932 16.48 206.972 18.24 207.052 18.84V18.88L207.212 32.72C207.212 33.76 207.612 34.52 208.852 34.52C209.132 34.56 213.252 34.8 216.772 34.8ZM227.412 21.88L230.572 22.16C231.532 22.36 232.372 23 232.372 24.16C232.372 24.56 232.372 24.92 232.252 25.32C232.092 26.2 231.612 26.96 230.612 26.96L227.332 27C227.252 29.76 227.332 34 227.332 37.32C227.332 38.72 227.292 41.68 224.932 41.84C222.332 42 222.132 39.44 222.132 37.76V13.2C222.132 13.12 222.092 11.12 222.972 10.24C223.332 9.88 224.172 9.68 224.772 9.68C225.372 9.68 225.892 9.92 226.252 10.28C226.972 11.04 227.012 11.88 227.092 12.76C227.332 15.68 227.412 18.84 227.412 21.88ZM260.615 34.52C260.775 34.56 260.935 34.52 261.095 34.52C261.975 34.6 262.775 34.8 263.495 35.44C263.855 35.8 264.055 36.28 264.055 36.84C264.055 37.4 263.855 38.2 263.535 38.56C262.695 39.4 260.735 39.32 260.655 39.32H238.255C238.015 39.32 237.735 39.36 237.455 39.36C236.335 39.4 234.895 39.48 234.015 38.72C233.495 38.24 233.175 37.64 233.175 37C233.175 36.2 233.695 35.2 234.495 34.88C235.575 34.48 236.735 34.56 237.895 34.52H238.095C240.375 34.48 242.855 34.48 245.255 34.52L245.215 29C243.175 29.04 241.495 29.04 240.535 28.96C239.415 28.92 237.935 28.88 237.015 28.2C235.815 27.28 235.775 24.36 235.775 24.24V15.64C235.775 14.6 235.615 13.48 235.815 12.44C236.095 11.2 237.615 10.88 238.815 10.8C239.735 10.76 241.095 11 241.295 12.08C241.375 12.56 241.215 15.6 241.415 16.04C241.535 16.32 242.095 16.36 242.375 16.4C243.615 16.48 244.015 16.36 245.255 16.36L254.415 16.4C254.975 16.44 255.415 16.44 255.575 15.88C255.615 15.32 255.615 12.96 255.655 12.52C255.695 11.56 255.975 11 256.975 10.8C258.015 10.56 259.495 10.64 260.095 11.24C260.935 12.12 260.895 13.16 260.895 15.24C260.815 17.68 261.015 23.56 260.775 26C260.655 27.56 259.775 28.56 258.255 28.8C257.455 28.92 256.375 28.88 255.575 28.88C253.855 28.92 252.215 28.92 250.615 28.92L250.695 34.52C253.415 34.52 255.295 34.44 257.895 34.52C258.855 34.56 259.775 34.44 260.615 34.52ZM241.415 23.84C241.615 24.64 242.775 24.64 243.655 24.68C244.055 24.64 252.175 24.56 252.655 24.64C253.095 24.68 253.535 24.64 253.975 24.68C254.535 24.72 255.495 24.92 255.495 24.04C255.495 23.64 255.575 22 255.375 21.24C255.215 20.6 254.855 20.64 254.335 20.68C254.095 20.68 253.335 20.72 253.095 20.68H243.975C242.975 20.64 241.495 20.44 241.375 21.68C241.375 21.96 241.375 23.64 241.415 23.84ZM295.356 38.72C295.276 39.36 295.236 39.96 295.036 40.6C294.956 40.8 294.876 40.96 294.796 41.16C294.636 41.48 294.396 41.8 294.076 42.04C293.476 42.4 292.716 42.48 292.036 42.32C291.636 42.24 291.276 42.08 290.996 41.84C290.036 40.96 290.076 38.88 290.076 38.8V14.08C290.036 12.84 290.076 10.84 290.836 10.12C291.396 9.56 292.076 9.48 292.796 9.48C293.716 9.48 294.556 10.04 294.876 10.92C295.356 12.04 295.316 13.28 295.356 14.52V14.72C295.476 18.8 295.356 23.32 295.356 27.16V37.28C295.356 37.76 295.396 38.24 295.356 38.72ZM276.476 34.8C276.436 34.16 276.436 33.52 276.436 32.88V20.16C276.436 19.32 276.436 18.44 276.356 17.56C276.316 17.28 276.276 16.68 275.996 16.56C275.716 16.4 275.356 16.48 275.036 16.44C274.676 16.4 274.316 16.48 273.956 16.44H272.076C271.196 16.48 270.236 16.4 269.356 16.44C268.956 16.48 268.596 16.44 268.196 16.44C267.596 16.44 266.916 16.44 266.396 16.08C265.636 15.56 265.436 14.68 265.436 13.84C265.396 13.32 265.516 12.8 265.756 12.32C265.876 12.04 266.036 11.8 266.276 11.64C266.556 11.36 267.156 11.16 267.516 11.08C268.636 10.8 269.916 10.84 271.076 10.84H278.036C278.716 10.92 279.556 11 280.196 11.24C280.596 11.4 281.076 11.68 281.316 12.04C281.796 12.8 281.796 13.52 281.876 14.4C281.996 15.88 281.956 17.36 281.956 18.84V31.96C281.956 32.08 282.036 35.4 281.956 37.08C281.876 38.16 281.636 39.48 280.236 40C279.756 40.2 279.276 40.28 278.876 40.28C278.196 40.28 277.396 40 277.116 39.4C276.716 38.6 276.476 37.6 276.476 36.56V34.8Z" fill="#475783"/>
<circle cx="322" cy="24.5" r="17" fill="#ACB7D6"/>
<path d="M315.264 30.68L322.154 23.582C324.338 21.346 324.468 20.358 324.468 19.292V19.084C324.468 18.07 323.714 17.108 321.79 17.108C320.438 17.108 319.06 17.55 317.838 19.734L315.342 18.096C316.226 16.484 317.968 14.144 321.764 14.144C326.002 14.144 327.822 16.38 327.822 18.954V19.214C327.822 21.242 326.86 23.114 325.118 24.856L319.606 30.42H328.524V33.176H315.264V30.68Z" fill="white"/>
<path d="M388.44 34.04C388.6 34.08 388.76 34.04 388.92 34.04C389.8 34.12 390.6 34.32 391.32 35C391.68 35.32 391.88 35.8 391.88 36.36C391.88 36.92 391.68 37.72 391.36 38.08C390.56 38.92 388.56 38.84 388.48 38.84H366.88C366.64 38.84 366.36 38.88 366.12 38.88C364.96 38.92 363.56 39 362.64 38.24C362.12 37.76 361.8 37.16 361.8 36.52C361.8 35.72 362.32 34.72 363.12 34.4C364.2 34 364.56 34.08 365.92 34.04H367.08C367.04 33.68 367.04 33.44 367.04 33.44V27.2C367.04 27.2 367.04 25.88 368.12 25.08C369.48 24.08 371.84 24.72 371.96 26.56C372 27.48 372.04 31.16 372.08 34C373.24 34 374.36 34.04 375.48 34.04C375.44 33.68 375.44 33.44 375.44 33.44V27.2C375.44 27.2 375.44 25.88 376.52 25.08C377.88 24.08 380.24 24.72 380.36 26.56C380.4 27.48 380.44 31.16 380.48 34.04C381.84 34 383.92 34 385.72 34.04C386.68 34.08 387.6 33.96 388.44 34.04ZM366.48 16.48C365.56 16.48 364.24 16.36 363.6 15.4C363.24 14.76 363.12 13.88 363.32 13.16C363.52 12.44 364.08 11.84 364.8 11.52C365.12 11.4 365.44 11.28 365.8 11.2C366.8 10.96 367.32 10.96 368.36 10.92C368.84 10.92 369 10.92 369.44 10.88C369.84 10.88 369.88 10.84 370.36 10.84C371.24 10.84 379.72 10.88 380.56 10.92C381.36 10.96 382.24 10.96 383.08 10.96C384.04 10.96 384.96 11 385.92 11.12C386.36 11.2 386.84 11.24 387.24 11.48C388.4 12.12 388.48 14.12 388.52 15.28C388.52 16 388.56 16.72 388.56 17.44C388.6 18.44 388.6 19.96 388.56 20.96C388.52 23.12 388.48 25.24 388.48 27.4C388.48 28.24 388.36 29.12 387.84 29.84C387.28 30.6 386.36 30.88 385.44 30.64C383.36 30.12 383.56 27.72 383.36 26C383.2 24.88 383.12 23.8 383.12 22.72C383.16 21.52 383 19.88 383 18.72C383 17.8 383.04 16.92 382.28 16.48C381.96 16.32 381.52 16.36 380.96 16.36H380.12C379.84 16.4 379.56 16.36 379.32 16.36H375.08C374.04 16.36 373.36 16.48 372.32 16.48C371.24 16.48 370.56 16.44 369.48 16.52C369.04 16.56 368.92 16.48 368.48 16.48H366.48ZM419.6 25.6C420.48 25.64 421.48 25.8 422.24 26.4C422.6 26.68 422.8 27.16 422.8 27.64C422.8 28.16 422.6 28.92 422.28 29.2C421.44 30 419.36 29.92 419.28 29.92L397.96 29.96C396.76 30 395.28 30.08 394.4 29.36C393.8 28.92 393.48 28.4 393.48 27.8C393.48 27.08 394.04 26.16 394.88 25.88C396 25.52 397.2 25.64 398.4 25.6C401 25.52 401.84 25.6 404.52 25.6V23.6H401.96H401.28C399.64 23.6 397.32 23.52 396.24 22.48C395.2 21.6 395.32 19.12 395.36 19V11.68C395.36 11.56 395.32 10.32 395.68 9.88C396.12 9.32 396.48 9.08 397.24 9C397.68 8.92 398.6 8.92 398.6 8.92H416.36C416.84 8.92 417.28 8.92 417.76 9.04C418.24 9.12 418.68 9.2 419.04 9.56C419.36 9.8 419.52 10.16 419.6 10.48C419.68 10.8 419.72 11.08 419.64 11.4C419.52 12.24 418.76 12.88 417.64 12.88H400.56V14.44C402.16 14.48 410.92 14.44 410.96 14.44H414.64C414.84 14.44 415.12 14.48 415.4 14.44H416.44C416.96 14.44 417.6 14.48 418.08 14.76C418.84 15.08 419 15.88 418.92 16.48C418.88 16.8 418.88 17.16 418.64 17.4C418.08 18.04 417.44 18.12 416.76 18.12H400.52L400.56 19.12C400.52 19.68 400.64 19.32 400.8 19.36C401.12 19.52 402.04 19.6 402.96 19.6H403.16C404 19.56 412.28 19.56 413.12 19.6H415C415.2 19.6 415.32 19.6 415.52 19.56H416.2C417 19.56 417.84 19.56 418.64 19.76C418.76 19.76 418.92 19.84 419.04 19.88C420.36 20.64 420.2 22.44 418.76 23.04C417.68 23.52 416.36 23.6 415.28 23.6H413.64C413.2 23.64 411.6 23.64 410.16 23.64C410.2 24.28 410.2 25 410.2 25.6C413.16 25.6 417.32 25.48 419.6 25.6ZM394.76 36.36C394.76 31.84 400.64 31.16 407.84 31.16C415.08 31.16 420.96 31.32 420.96 36.36C420.96 41.32 415.08 41.56 407.84 41.56C400.64 41.56 394.76 41.32 394.76 36.36ZM415.68 36.36C415.68 34.64 411.52 34.72 407.84 34.72C404.2 34.72 400.28 34.64 400.28 36.36C400.28 37.88 404.2 38 407.84 38C411.52 38 415.68 38.36 415.68 36.36ZM438.657 21.28C438.577 21.28 438.537 21.24 438.537 21.2C438.017 20.8 437.857 19.8 437.857 19.2C437.817 18.24 437.697 17.28 437.697 16.36C437.697 15 437.657 13.36 437.897 12.04C438.057 11.2 438.377 10.72 439.177 10.4C439.897 10.12 440.657 10.04 441.417 9.96C442.337 9.88 443.297 9.96 444.257 9.96H451.857C454.577 9.96 454.217 9.96 456.897 9.92C457.377 9.92 457.817 9.92 458.297 9.96C459.297 10 460.417 10.04 461.337 10.48C462.377 10.92 462.697 12.04 462.737 13.08C462.817 14.28 462.697 15.8 462.697 17C462.657 18.08 462.697 19.16 462.417 20.2C462.257 20.8 462.137 21.28 461.497 21.48C460.937 21.68 460.217 21.72 459.657 21.72H442.377C441.857 21.72 441.337 21.68 440.817 21.64C440.137 21.6 439.257 21.68 438.657 21.28ZM460.857 28.92C458.217 29 456.137 29.08 453.457 29.08C453.417 30.2 453.337 31.24 453.337 32.76C453.097 33.88 451.617 34.56 450.537 34.52C448.937 34.44 448.057 33.8 447.897 32.2C447.777 31.16 447.937 30.04 447.937 29C445.497 29 439.097 28.92 436.857 28.76C436.017 28.68 435.617 28.64 434.937 28C434.577 27.68 434.417 27.08 434.417 26.52C434.417 26 434.617 25.48 434.937 25.16C435.737 24.32 437.697 24.36 437.777 24.36H460.657C461.457 24.36 462.257 24.36 463.017 24.4C463.737 24.44 464.537 24.56 465.097 25.08C465.657 25.52 465.657 26.04 465.657 26.68C465.657 27.48 465.177 28.16 464.377 28.44C463.297 28.84 461.977 28.88 460.857 28.92ZM461.977 36.48C462.057 36.52 463.537 36.88 463.697 38C463.857 39 463.697 39.8 463.217 40.36C462.617 41.12 461.737 41.16 461.697 41.16H439.857C437.817 41.16 436.577 40.44 436.577 39.24V35.68C436.537 35.08 436.537 34.48 436.577 33.88C436.657 32.76 437.497 32 438.617 32C438.897 32 439.457 32.04 439.697 32.12C441.057 32.56 441.137 33.92 441.217 35.12C441.217 35.56 441.257 36.04 441.377 36.4C441.497 36.44 442.297 36.56 444.177 36.56C445.777 36.56 447.257 36.48 447.297 36.48H461.977ZM442.457 16.6C442.457 16.84 442.457 17.12 442.577 17.24C442.817 17.44 443.737 17.32 443.737 17.32H454.257C454.257 17.32 456.177 17.48 457.137 17.36C457.697 17.32 457.697 17.08 457.777 16.6C457.817 16.16 457.897 15.24 457.577 14.84C457.217 14.4 456.377 14.48 455.897 14.52H452.257C451.897 14.48 447.057 14.52 446.697 14.52C445.577 14.44 444.457 14.48 443.297 14.52C442.817 14.52 442.657 14.44 442.537 14.92C442.457 15.28 442.457 15.92 442.457 16.24V16.6ZM470.869 33.72C471.069 33.64 474.749 33.8 475.429 33.8C475.469 33.16 475.549 30.52 475.629 29.2C475.149 29.08 474.709 28.96 474.269 28.76C471.269 27.52 468.949 25.08 468.949 21.56C468.949 19.64 469.509 18.16 470.429 17H469.989C468.709 17 467.629 16.04 467.629 14.88C467.629 13.68 468.709 12.72 469.989 12.72H475.269V11.08C475.269 10.04 476.309 9.28 477.589 9.28C478.909 9.28 479.949 10.04 479.949 11.08V12.72H485.469C486.789 12.72 487.869 13.68 487.869 14.88C487.869 16.04 486.789 17 485.469 17H485.349C486.269 18.16 486.869 19.64 486.869 21.56C486.869 24.04 485.669 26.08 483.669 27.6C482.669 28.32 481.549 28.84 480.389 29.16C480.469 30.4 480.469 33.16 480.469 33.76V33.8H485.789C486.669 33.8 487.389 33.96 487.909 34.28C489.109 35 489.069 36.96 488.549 37.92C488.069 38.76 487.029 38.84 486.189 38.84H470.389C470.349 38.84 468.989 38.72 468.269 38.4C467.749 38.12 467.349 37.52 467.229 36.76C467.109 35.92 467.389 35.12 467.909 34.64C468.869 33.84 469.949 33.72 470.869 33.72ZM497.389 22.96H497.469C497.749 22.92 497.989 23 498.229 23C498.549 23.04 498.829 23.08 499.149 23.12C499.749 23.24 500.389 23.48 500.709 24.08C500.869 24.4 500.949 24.76 500.949 25.16C500.949 25.52 500.949 25.92 500.869 26.28C500.749 26.68 500.629 27.24 500.309 27.52C499.989 27.76 499.589 27.96 499.189 28.04C498.349 28.16 496.909 28.04 496.069 28.08C495.989 28.12 495.949 28.12 495.949 28.12C495.949 28.12 495.949 28.16 495.909 28.28C495.869 29.6 495.909 30.76 495.909 32.12C495.949 33.48 495.949 34.88 495.909 36.2V36.76C495.909 38.16 495.949 40.2 494.989 41.2C494.629 41.52 494.189 41.72 493.669 41.72H493.589C490.989 41.6 490.749 38.48 490.749 36.8V13.04C490.749 12.96 490.669 10.96 491.549 10.08C491.949 9.72 492.789 9.52 493.349 9.52C493.949 9.52 494.509 9.76 494.869 10.12C495.549 10.88 495.629 11.72 495.669 12.6C495.709 12.76 495.709 12.92 495.749 13.12C495.829 13.96 495.829 14.96 495.869 15.92C495.869 16.52 495.909 17.08 495.909 17.64V21.96C495.909 22.24 495.909 22.56 495.989 22.84C495.989 22.88 496.789 22.88 496.869 22.92C497.029 22.92 497.229 22.96 497.389 22.96ZM478.669 24.76C480.389 24.44 481.869 23.6 481.869 21.56C481.869 19.2 479.909 18.32 477.949 18.28C475.949 18.2 473.949 19.04 473.949 21.56C473.949 24.44 476.469 25.2 478.669 24.76Z" fill="#475783"/>
<g clip-path="url(#clip0_1581_102006)">
<mask id="path-7-inside-1_1581_102006" fill="white">
<path d="M512.992 17.8C510.844 18.7579 511.169 21.2524 510.617 22.0307C510.065 22.809 507.611 23.5973 507.385 26.2415C507.148 28.8857 508.942 28.756 509.73 29.9035C510.509 31.051 509.996 33.8648 513.377 34.4236C516.757 34.9824 516.866 32.1785 518.216 31.8792C519.566 31.5898 522.739 31.6497 524.484 29.5144C526.189 27.4189 524.671 24.9543 524.385 24.0762C524.099 23.1882 524.622 20.8633 523.143 19.6958C521.665 18.5384 520.207 19.7058 518.975 19.0672C517.743 18.4286 515.161 16.8421 513.012 17.8"/>
</mask>
<path d="M512.992 17.8C510.844 18.7579 511.169 21.2524 510.617 22.0307C510.065 22.809 507.611 23.5973 507.385 26.2415C507.148 28.8857 508.942 28.756 509.73 29.9035C510.509 31.051 509.996 33.8648 513.377 34.4236C516.757 34.9824 516.866 32.1785 518.216 31.8792C519.566 31.5898 522.739 31.6497 524.484 29.5144C526.189 27.4189 524.671 24.9543 524.385 24.0762C524.099 23.1882 524.622 20.8633 523.143 19.6958C521.665 18.5384 520.207 19.7058 518.975 19.0672C517.743 18.4286 515.161 16.8421 513.012 17.8" fill="#E4E8EB"/>
<path d="M507.385 26.2415L508.381 26.3306L508.381 26.3269L507.385 26.2415ZM509.73 29.9035L510.558 29.342L510.554 29.3372L509.73 29.9035ZM518.216 31.8792L518.006 30.9014L517.999 30.9029L518.216 31.8792ZM524.484 29.5144L525.258 30.147L525.259 30.1455L524.484 29.5144ZM524.385 24.0762L523.433 24.3826L523.434 24.3858L524.385 24.0762ZM523.143 19.6958L523.763 18.911L523.76 18.9085L523.143 19.6958ZM512.992 17.8L512.585 16.8866C511.139 17.5314 510.548 18.7103 510.249 19.6911C510.107 20.1588 510.014 20.6417 509.943 20.9563C509.905 21.128 509.873 21.2534 509.841 21.3489C509.808 21.4486 509.79 21.4687 509.801 21.4523L510.617 22.0307L511.433 22.6092C511.705 22.2249 511.821 21.7217 511.895 21.3957C511.985 20.9938 512.049 20.6472 512.163 20.2743C512.376 19.5738 512.697 19.0264 513.4 18.7133L512.992 17.8ZM510.617 22.0307L509.801 21.4523C509.804 21.4489 509.779 21.4829 509.686 21.5613C509.596 21.6365 509.481 21.7226 509.326 21.8344C509.033 22.0456 508.619 22.3333 508.219 22.6853C507.391 23.4127 506.531 24.4903 506.388 26.1561L507.385 26.2415L508.381 26.3269C508.465 25.3485 508.945 24.7099 509.539 24.1874C509.85 23.9146 510.167 23.694 510.496 23.456C510.771 23.258 511.18 22.9657 511.433 22.6092L510.617 22.0307ZM507.385 26.2415L506.389 26.1524C506.32 26.9226 506.391 27.5731 506.609 28.1311C506.83 28.6993 507.174 29.0955 507.524 29.3945C507.833 29.6585 508.226 29.9014 508.429 30.0414C508.675 30.2117 508.814 30.3354 508.906 30.4698L509.73 29.9035L510.554 29.3372C510.253 28.8979 509.871 28.6075 509.567 28.3967C509.219 28.1557 509.03 28.0506 508.822 27.8731C508.655 27.7305 508.545 27.5916 508.472 27.4046C508.395 27.2074 508.331 26.8825 508.381 26.3306L507.385 26.2415ZM509.73 29.9035L508.903 30.465C508.986 30.5875 509.065 30.8093 509.186 31.2699C509.292 31.6721 509.426 32.235 509.658 32.7773C509.898 33.3392 510.26 33.9273 510.856 34.4163C511.454 34.9063 512.227 35.2471 513.214 35.4102L513.377 34.4236L513.54 33.437C512.836 33.3207 512.406 33.1003 512.124 32.8696C511.842 32.6381 511.649 32.3462 511.497 31.9914C511.337 31.6169 511.243 31.2263 511.12 30.7606C511.013 30.3535 510.864 29.7932 510.558 29.342L509.73 29.9035ZM513.377 34.4236L513.214 35.4102C514.196 35.5726 515.018 35.5021 515.719 35.2408C516.418 34.9799 516.916 34.5586 517.292 34.1523C517.476 33.9525 517.637 33.7509 517.772 33.5776C517.915 33.3934 518.019 33.2566 518.126 33.1308C518.346 32.8731 518.426 32.8568 518.432 32.8555L518.216 31.8792L517.999 30.9029C517.33 31.0512 516.89 31.4977 516.605 31.8324C516.459 32.0028 516.314 32.1947 516.194 32.3486C516.065 32.5136 515.948 32.6596 515.823 32.7941C515.581 33.0563 515.333 33.2499 515.02 33.3669C514.707 33.4836 514.247 33.554 513.54 33.437L513.377 34.4236ZM518.216 31.8792L518.425 32.857C518.712 32.7956 519.096 32.7529 519.651 32.6792C520.175 32.6095 520.796 32.5175 521.439 32.3605C522.717 32.0485 524.189 31.4553 525.258 30.147L524.484 29.5144L523.709 28.8817C523.034 29.7087 522.047 30.1532 520.965 30.4175C520.428 30.5486 519.893 30.6294 519.388 30.6966C518.913 30.7597 518.395 30.8181 518.006 30.9014L518.216 31.8792ZM524.484 29.5144L525.259 30.1455C526.361 28.7912 526.401 27.3116 526.161 26.1384C526.042 25.5597 525.854 25.0404 525.689 24.6284C525.498 24.1543 525.395 23.9481 525.336 23.7667L524.385 24.0762L523.434 24.3858C523.518 24.6434 523.712 25.0745 523.833 25.375C523.979 25.7376 524.118 26.1301 524.201 26.5392C524.365 27.3417 524.311 28.1421 523.708 28.8832L524.484 29.5144ZM524.385 24.0762L525.337 23.7699C525.315 23.7009 525.293 23.5305 525.278 23.1417C525.265 22.8078 525.255 22.3468 525.206 21.8841C525.107 20.9633 524.824 19.749 523.763 18.911L523.143 19.6958L522.524 20.4806C522.941 20.8101 523.136 21.3419 523.217 22.0975C523.258 22.4729 523.264 22.8327 523.279 23.221C523.293 23.5543 523.313 24.0075 523.433 24.3826L524.385 24.0762ZM523.143 19.6958L523.76 18.9085C522.71 18.0866 521.647 18.1172 520.871 18.1915C520.452 18.2316 520.206 18.2708 519.933 18.2721C519.697 18.2732 519.551 18.2396 519.435 18.1794L518.975 19.0672L518.514 19.955C519.014 20.2141 519.513 20.2741 519.943 20.2721C520.336 20.2702 520.777 20.2096 521.062 20.1824C521.693 20.122 522.098 20.1476 522.527 20.4832L523.143 19.6958ZM518.975 19.0672L519.435 18.1794C518.875 17.8892 517.819 17.2754 516.654 16.8864C515.486 16.4965 514.012 16.259 512.605 16.8866L513.012 17.8L513.419 18.7133C514.16 18.383 515.051 18.4598 516.02 18.7834C516.992 19.1078 517.842 19.6066 518.514 19.955L518.975 19.0672Z" fill="#5E6F98" mask="url(#path-7-inside-1_1581_102006)"/>
<path d="M514.204 34.8633C513.928 34.8633 513.633 34.8433 513.307 34.7834C510.637 34.3344 510.173 32.5583 509.838 31.2611C509.72 30.8121 509.612 30.3831 509.424 30.1136C509.217 29.8043 508.892 29.5848 508.557 29.3653C507.798 28.8564 506.842 28.2178 507.02 26.2122C507.207 24.1367 508.636 23.109 509.592 22.4205C509.917 22.181 510.203 21.9814 510.331 21.8118C510.459 21.6322 510.538 21.243 510.637 20.8339C510.873 19.7264 511.208 18.1997 512.854 17.4613C514.963 16.5234 517.348 17.7906 518.767 18.5489L519.132 18.7385C519.566 18.968 520.068 18.9082 520.64 18.8483C521.468 18.7585 522.404 18.6487 523.36 19.3971C524.533 20.3151 524.582 21.8417 524.621 22.9493C524.631 23.3584 524.651 23.7376 524.72 23.9471C524.759 24.0768 524.828 24.2465 524.917 24.4361C525.42 25.6135 526.346 27.7987 524.759 29.7345C523.271 31.5505 520.857 31.8698 519.26 32.0793C518.886 32.1292 518.55 32.1691 518.294 32.229C517.949 32.3088 517.683 32.6481 517.348 33.0871C516.757 33.8455 515.978 34.8533 514.224 34.8533L514.204 34.8633ZM513.14 18.1398C511.819 18.7285 511.553 19.9858 511.336 20.9936C511.228 21.5025 511.129 21.9415 510.912 22.2508C510.725 22.5103 510.39 22.7497 510.016 23.0291C509.129 23.6677 507.907 24.5458 507.749 26.282C507.611 27.8586 508.242 28.2777 508.961 28.7566C509.345 29.0061 509.74 29.2755 510.025 29.7045C510.282 30.0737 510.41 30.5627 510.538 31.0815C510.873 32.3687 511.228 33.7058 513.426 34.075C515.407 34.4043 516.096 33.5162 516.757 32.6581C517.151 32.1492 517.525 31.6702 518.127 31.5405C518.403 31.4807 518.757 31.4308 519.161 31.3809C520.65 31.1913 522.887 30.8919 524.198 29.2954C525.499 27.6989 524.72 25.853 524.247 24.7554C524.158 24.5358 524.079 24.3463 524.03 24.2066C523.932 23.8972 523.912 23.4782 523.902 22.9992C523.863 21.9814 523.823 20.7142 522.916 20.0058C522.197 19.437 521.478 19.5168 520.719 19.6066C520.088 19.6765 519.428 19.7463 518.797 19.427L518.422 19.2275C517.121 18.529 514.933 17.3615 513.14 18.1598V18.1398Z" fill="#5E6F98"/>
<path d="M515.821 26.6022C516.176 26.5124 516.541 26.7319 516.619 27.0811C516.708 27.4403 516.491 27.7996 516.137 27.8894C515.782 27.9792 515.417 27.7596 515.328 27.4104C515.24 27.0512 515.457 26.692 515.821 26.6022Z" fill="#C8A374"/>
<path d="M514.569 25.4733C514.924 25.3835 515.289 25.603 515.368 25.9522C515.456 26.3114 515.239 26.6706 514.885 26.7604C514.53 26.8503 514.165 26.6307 514.076 26.2815C513.988 25.9223 514.205 25.5631 514.569 25.4733Z" fill="#C8A374"/>
<path d="M517.743 26.2506C518.098 26.1608 518.463 26.3803 518.541 26.7296C518.63 27.0888 518.413 27.448 518.058 27.5378C517.704 27.6276 517.339 27.4081 517.25 27.0588C517.162 26.6996 517.378 26.3404 517.743 26.2506Z" fill="#C8A374"/>
<path d="M518.313 24.7155C518.668 24.6257 519.033 24.8452 519.112 25.1944C519.2 25.5536 518.984 25.9128 518.629 26.0026C518.274 26.0924 517.909 25.8729 517.821 25.5237C517.732 25.1645 517.949 24.8053 518.313 24.7155Z" fill="#C8A374"/>
<path d="M516.452 24.6959C516.807 24.6061 517.171 24.8256 517.25 25.1749C517.339 25.5341 517.122 25.8933 516.767 25.9831C516.413 26.0729 516.048 25.8534 515.959 25.5042C515.871 25.1449 516.087 24.7857 516.452 24.6959Z" fill="#C8A374"/>
<path d="M517.653 23.0201C518.008 22.9303 518.373 23.1499 518.452 23.4991C518.54 23.8583 518.323 24.2175 517.969 24.3073C517.614 24.3971 517.249 24.1776 517.16 23.8284C517.072 23.4692 517.289 23.1099 517.653 23.0201Z" fill="#C8A374"/>
<path d="M515.929 22.7194C516.283 22.6296 516.648 22.8491 516.727 23.1983C516.816 23.5575 516.599 23.9167 516.244 24.0065C515.889 24.0963 515.525 23.8768 515.436 23.5276C515.347 23.1684 515.564 22.8092 515.929 22.7194Z" fill="#C8A374"/>
<path d="M514.708 23.8483C515.063 23.7585 515.427 23.978 515.506 24.3272C515.595 24.6864 515.378 25.0456 515.023 25.1355C514.668 25.2253 514.304 25.0057 514.215 24.6565C514.126 24.2973 514.343 23.9381 514.708 23.8483Z" fill="#C8A374"/>
<mask id="path-18-inside-2_1581_102006" fill="white">
<path d="M528.21 21.83C526.643 21.7202 524.967 22.5584 524.189 23.6061C523.41 24.6538 523.41 26.4599 522.819 26.9688C522.346 27.3679 521.222 27.5375 520.227 28.0963C519.084 28.7449 518.206 29.9422 517.96 31.6585C517.704 33.4745 518.778 34.8016 520.01 35.53C520.956 36.0888 521.745 36.0289 522.572 36.5179C523.39 37.0068 523.794 37.6454 524.504 38.4237C525.164 39.1521 526.239 40.0002 528.003 40.11C529.777 40.2098 530.989 39.5812 531.521 38.723C531.984 37.9747 532.339 37.1365 532.802 36.6176C533.236 36.1187 534.261 35.979 535.099 35.3604C536.153 34.5821 536.794 33.1452 536.616 31.2494C536.528 30.3514 535.946 29.3136 535.197 28.665C534.369 27.9566 532.95 27.5674 532.645 27.1683C532.329 26.7692 532.832 25.4321 531.965 24.1948C531.097 22.9575 529.678 21.9298 528.22 21.83"/>
</mask>
<path d="M528.21 21.83C526.643 21.7202 524.967 22.5584 524.189 23.6061C523.41 24.6538 523.41 26.4599 522.819 26.9688C522.346 27.3679 521.222 27.5375 520.227 28.0963C519.084 28.7449 518.206 29.9422 517.96 31.6585C517.704 33.4745 518.778 34.8016 520.01 35.53C520.956 36.0888 521.745 36.0289 522.572 36.5179C523.39 37.0068 523.794 37.6454 524.504 38.4237C525.164 39.1521 526.239 40.0002 528.003 40.11C529.777 40.2098 530.989 39.5812 531.521 38.723C531.984 37.9747 532.339 37.1365 532.802 36.6176C533.236 36.1187 534.261 35.979 535.099 35.3604C536.153 34.5821 536.794 33.1452 536.616 31.2494C536.528 30.3514 535.946 29.3136 535.197 28.665C534.369 27.9566 532.95 27.5674 532.645 27.1683C532.329 26.7692 532.832 25.4321 531.965 24.1948C531.097 22.9575 529.678 21.9298 528.22 21.83" fill="#E4E8EB"/>
<path d="M522.819 26.9688L523.464 27.7331L523.471 27.7267L522.819 26.9688ZM520.227 28.0963L519.737 27.2243L519.733 27.2265L520.227 28.0963ZM517.96 31.6585L516.97 31.5164L516.97 31.5188L517.96 31.6585ZM520.01 35.53L519.501 36.3908L519.501 36.3911L520.01 35.53ZM522.572 36.5179L523.085 35.6595L523.081 35.6568L522.572 36.5179ZM524.504 38.4237L525.245 37.7521L525.243 37.75L524.504 38.4237ZM528.003 40.11L527.941 41.1081L527.947 41.1084L528.003 40.11ZM531.521 38.723L532.371 39.2501L532.371 39.2493L531.521 38.723ZM532.802 36.6176L533.548 37.2837L533.557 37.2737L532.802 36.6176ZM535.099 35.3604L534.505 34.5558L534.505 34.556L535.099 35.3604ZM536.616 31.2494L537.612 31.1562L537.612 31.1511L536.616 31.2494ZM535.197 28.665L535.852 27.9091L535.847 27.9053L535.197 28.665ZM532.645 27.1683L533.439 26.5605L533.434 26.5544L533.429 26.5483L532.645 27.1683ZM528.21 21.83L528.28 20.8324C526.373 20.6989 524.369 21.6874 523.386 23.0096L524.189 23.6061L524.991 24.2026C525.566 23.4294 526.912 22.7416 528.14 22.8275L528.21 21.83ZM524.189 23.6061L523.386 23.0096C522.862 23.7151 522.628 24.6264 522.467 25.2333C522.377 25.574 522.31 25.8265 522.235 26.0285C522.153 26.249 522.114 26.2557 522.166 26.2108L522.819 26.9688L523.471 27.7267C523.819 27.4273 524.002 27.0175 524.11 26.7234C524.226 26.411 524.319 26.0511 524.4 25.7457C524.582 25.0604 524.737 24.5448 524.991 24.2026L524.189 23.6061ZM522.819 26.9688L522.174 26.2044C522.174 26.204 522.16 26.2158 522.121 26.2377C522.083 26.2593 522.03 26.2854 521.958 26.3164C521.809 26.3807 521.627 26.4453 521.389 26.5285C520.94 26.6854 520.325 26.8945 519.737 27.2243L520.227 28.0963L520.716 28.9683C521.124 28.7393 521.569 28.5841 522.048 28.4168C522.274 28.3379 522.524 28.2503 522.75 28.1531C522.97 28.0581 523.234 27.9266 523.464 27.7331L522.819 26.9688ZM520.227 28.0963L519.733 27.2265C518.302 28.0385 517.257 29.5161 516.97 31.5164L517.96 31.6585L518.95 31.8006C519.155 30.3684 519.865 29.4512 520.72 28.9661L520.227 28.0963ZM517.96 31.6585L516.97 31.5188C516.638 33.8718 518.058 35.5376 519.501 36.3908L520.01 35.53L520.519 34.6692C519.498 34.0656 518.77 33.0773 518.95 31.7982L517.96 31.6585ZM520.01 35.53L519.501 36.3911C520.097 36.7431 520.643 36.896 521.069 37.0139C521.507 37.1353 521.782 37.2126 522.064 37.3789L522.572 36.5179L523.081 35.6568C522.535 35.3342 522.002 35.1969 521.602 35.0864C521.19 34.9723 520.869 34.8757 520.518 34.669L520.01 35.53ZM522.572 36.5179L522.059 37.3762C522.709 37.7643 522.929 38.1805 523.765 39.0974L524.504 38.4237L525.243 37.75C524.66 37.1103 524.072 36.2493 523.085 35.6595L522.572 36.5179ZM524.504 38.4237L523.763 39.0953C524.539 39.9508 525.839 40.9773 527.941 41.1081L528.003 40.11L528.065 39.1119C526.638 39.0232 525.79 38.3534 525.245 37.7521L524.504 38.4237ZM528.003 40.11L527.947 41.1084C529.959 41.2216 531.587 40.5141 532.371 39.2501L531.521 38.723L530.671 38.196C530.391 38.6482 529.594 39.1979 528.059 39.1116L528.003 40.11ZM531.521 38.723L532.371 39.2493C532.619 38.8489 532.852 38.4006 533.036 38.0701C533.238 37.7055 533.397 37.4528 533.548 37.2836L532.802 36.6176L532.056 35.9517C531.744 36.3014 531.494 36.7272 531.288 37.0985C531.062 37.5038 530.886 37.8488 530.671 38.1967L531.521 38.723ZM532.802 36.6176L533.557 37.2737C533.556 37.2745 533.588 37.2398 533.706 37.1754C533.824 37.1105 533.974 37.0453 534.187 36.9557C534.578 36.7912 535.16 36.5581 535.693 36.1648L535.099 35.3604L534.505 34.556C534.199 34.7814 533.851 34.9274 533.411 35.1121C533.058 35.2606 532.447 35.5016 532.048 35.9616L532.802 36.6176ZM535.099 35.3604L535.692 36.165C537.088 35.1353 537.815 33.3218 537.612 31.1562L536.616 31.2494L535.621 31.3426C535.773 32.9687 535.219 34.0289 534.505 34.5558L535.099 35.3604ZM536.616 31.2494L537.612 31.1511C537.494 29.9613 536.764 28.6991 535.852 27.9091L535.197 28.665L534.543 29.421C535.128 29.9281 535.561 30.7414 535.621 31.3477L536.616 31.2494ZM535.197 28.665L535.847 27.9053C535.316 27.4506 534.632 27.1242 534.154 26.8973C533.891 26.7724 533.693 26.6801 533.537 26.5942C533.348 26.4906 533.374 26.4765 533.439 26.5605L532.645 27.1683L531.851 27.7761C532.068 28.0597 532.386 28.244 532.575 28.3476C532.796 28.4692 533.063 28.5933 533.296 28.704C533.811 28.9487 534.25 29.171 534.547 29.4248L535.197 28.665ZM532.645 27.1683L533.429 26.5483C533.568 26.7241 533.537 26.8692 533.526 26.6557C533.522 26.5812 533.521 26.4931 533.52 26.3683C533.518 26.2509 533.517 26.1075 533.511 25.9548C533.485 25.335 533.377 24.467 532.783 23.6208L531.965 24.1948L531.146 24.7688C531.42 25.1599 531.494 25.5791 531.512 26.037C531.517 26.1537 531.518 26.2666 531.52 26.3883C531.521 26.5027 531.522 26.6366 531.529 26.7629C531.539 26.9511 531.563 27.413 531.86 27.7883L532.645 27.1683ZM531.965 24.1948L532.783 23.6208C531.804 22.2234 530.14 20.959 528.288 20.8323L528.22 21.83L528.151 22.8277C529.216 22.9005 530.391 23.6917 531.146 24.7688L531.965 24.1948Z" fill="#5E6F98" mask="url(#path-18-inside-2_1581_102006)"/>
<path d="M528.367 40.5009C528.239 40.5009 528.111 40.5009 527.983 40.4909C526.485 40.4011 525.253 39.8124 524.238 38.6949C524.051 38.4853 523.883 38.2957 523.726 38.1062C523.292 37.5873 522.947 37.1882 522.385 36.8489C522.03 36.6394 521.666 36.5396 521.281 36.4298C520.848 36.3101 520.355 36.1704 519.823 35.8611C518.187 34.8932 517.359 33.3067 517.605 31.6203C517.852 29.9041 518.719 28.5471 520.049 27.7887C520.562 27.4994 521.094 27.3098 521.567 27.1501C521.991 27.0005 522.395 26.8608 522.582 26.7011C522.789 26.5315 522.927 25.9827 523.075 25.4439C523.252 24.7554 523.459 23.987 523.903 23.3884C524.81 22.171 526.623 21.3528 528.239 21.4725C529.708 21.5723 531.255 22.5402 532.26 23.997C532.862 24.8651 532.871 25.7831 532.881 26.3918C532.881 26.6013 532.881 26.8907 532.931 26.9605C533.019 27.0803 533.453 27.2798 533.798 27.4395C534.34 27.6989 534.961 27.9883 535.444 28.3974C536.272 29.1058 536.892 30.2434 536.981 31.2212C537.168 33.137 536.557 34.7535 535.316 35.6715C534.882 35.9908 534.409 36.1903 533.995 36.37C533.591 36.5396 533.246 36.6893 533.078 36.8788C532.812 37.1882 532.566 37.6272 532.31 38.1062C532.162 38.3855 532.004 38.6649 531.837 38.9443C531.226 39.9421 529.944 40.5109 528.377 40.5109L528.367 40.5009ZM527.944 22.191C526.653 22.191 525.194 22.8695 524.484 23.8274C524.13 24.3063 523.942 25.0048 523.775 25.6235C523.588 26.3219 523.43 26.9206 523.055 27.2499C522.76 27.4994 522.316 27.649 521.804 27.8286C521.36 27.9883 520.858 28.1579 520.404 28.4174C519.271 29.056 518.532 30.2234 518.325 31.7102C518.039 33.6958 519.537 34.8233 520.197 35.2125C520.641 35.4819 521.045 35.5917 521.478 35.7114C521.892 35.8212 522.316 35.9409 522.76 36.2003C523.42 36.5995 523.824 37.0684 524.277 37.6072C524.425 37.7869 524.593 37.9764 524.77 38.176C525.657 39.1539 526.722 39.6628 528.023 39.7426C529.491 39.8224 530.693 39.3734 531.216 38.5252C531.373 38.2658 531.531 37.9864 531.669 37.727C531.945 37.2181 532.211 36.7391 532.536 36.37C532.822 36.0507 533.256 35.8611 533.719 35.6715C534.113 35.5019 534.527 35.3322 534.892 35.0628C535.917 34.3045 536.419 32.9275 536.262 31.2811C536.183 30.4928 535.651 29.5349 534.971 28.9462C534.567 28.597 533.995 28.3275 533.492 28.0981C532.97 27.8586 532.566 27.659 532.359 27.3996C532.162 27.1501 532.162 26.8109 532.152 26.3818C532.152 25.8031 532.142 25.0846 531.669 24.4061C530.802 23.1489 529.432 22.2808 528.19 22.191C528.111 22.191 528.032 22.191 527.944 22.191Z" fill="#5E6F98"/>
<path d="M527.047 29.7836C526.948 30.1229 526.594 30.3124 526.268 30.2127C525.943 30.1129 525.756 29.7537 525.854 29.4244C525.953 29.0851 526.298 28.8955 526.633 28.9953C526.958 29.0951 527.145 29.4543 527.047 29.7836Z" fill="#C8A374"/>
<path d="M528.555 29.3031C528.456 29.6424 528.101 29.832 527.776 29.7322C527.451 29.6324 527.264 29.2732 527.362 28.9439C527.461 28.6047 527.806 28.4151 528.141 28.5149C528.466 28.6146 528.653 28.9738 528.555 29.3031Z" fill="#C8A374"/>
<path d="M526.395 31.5414C526.296 31.8807 525.941 32.0703 525.616 31.9705C525.291 31.8707 525.104 31.5115 525.202 31.1822C525.301 30.8429 525.646 30.6534 525.981 30.7531C526.306 30.8529 526.493 31.2121 526.395 31.5414Z" fill="#C8A374"/>
<path d="M527.352 32.7563C527.253 33.0955 526.898 33.2851 526.573 33.1853C526.248 33.0855 526.061 32.7263 526.159 32.397C526.258 32.0578 526.603 31.8682 526.938 31.968C527.263 32.0678 527.45 32.427 527.352 32.7563Z" fill="#C8A374"/>
<path d="M528.268 31.2289C528.169 31.5682 527.814 31.7578 527.489 31.658C527.164 31.5582 526.977 31.199 527.075 30.8697C527.174 30.5304 527.519 30.3409 527.854 30.4406C528.179 30.5404 528.366 30.8996 528.268 31.2289Z" fill="#C8A374"/>
<path d="M529.037 33.0258C528.939 33.365 528.584 33.5546 528.259 33.4548C527.933 33.3551 527.746 32.9958 527.845 32.6666C527.943 32.3273 528.288 32.1377 528.623 32.2375C528.948 32.3373 529.136 32.6965 529.037 33.0258Z" fill="#C8A374"/>
<path d="M530.111 31.7602C530.013 32.0994 529.658 32.289 529.333 32.1892C529.008 32.0894 528.82 31.7302 528.919 31.4009C529.017 31.0617 529.362 30.8721 529.697 30.9719C530.023 31.0717 530.21 31.4309 530.111 31.7602Z" fill="#C8A374"/>
<path d="M529.795 30.2133C529.696 30.5525 529.342 30.7421 529.016 30.6423C528.691 30.5426 528.504 30.1833 528.602 29.8541C528.701 29.5148 529.046 29.3252 529.381 29.425C529.706 29.5248 529.894 29.884 529.795 30.2133Z" fill="#C8A374"/>
<mask id="path-29-inside-3_1581_102006" fill="white">
<path d="M529.903 9.26849C528.593 8.62989 526.868 8.7596 525.833 9.37825C524.798 10.0069 524.187 11.5635 523.497 11.793C522.955 11.9726 521.92 11.7231 520.876 11.8528C519.664 12.0025 518.501 12.7309 517.702 14.1179C516.855 15.5847 517.328 17.1014 518.136 18.169C518.757 18.9872 519.457 19.2068 519.999 19.9152C520.541 20.6237 520.659 21.3121 521.004 22.2401C521.319 23.0982 521.95 24.2058 523.438 24.9242C524.926 25.6327 526.198 25.5229 526.947 24.9642C527.597 24.4852 528.198 23.8865 528.77 23.5971C529.312 23.3277 530.238 23.5572 531.175 23.3277C532.347 23.0284 533.392 22.0206 533.885 20.3243C534.121 19.5161 533.974 18.4185 533.55 17.6102C533.077 16.7022 531.993 15.884 531.865 15.425C531.736 14.966 532.623 13.9981 532.308 12.6212C531.993 11.2442 531.116 9.86718 529.893 9.26849"/>
</mask>
<path d="M529.903 9.26849C528.593 8.62989 526.868 8.7596 525.833 9.37825C524.798 10.0069 524.187 11.5635 523.497 11.793C522.955 11.9726 521.92 11.7231 520.876 11.8528C519.664 12.0025 518.501 12.7309 517.702 14.1179C516.855 15.5847 517.328 17.1014 518.136 18.169C518.757 18.9872 519.457 19.2068 519.999 19.9152C520.541 20.6237 520.659 21.3121 521.004 22.2401C521.319 23.0982 521.95 24.2058 523.438 24.9242C524.926 25.6327 526.198 25.5229 526.947 24.9642C527.597 24.4852 528.198 23.8865 528.77 23.5971C529.312 23.3277 530.238 23.5572 531.175 23.3277C532.347 23.0284 533.392 22.0206 533.885 20.3243C534.121 19.5161 533.974 18.4185 533.55 17.6102C533.077 16.7022 531.993 15.884 531.865 15.425C531.736 14.966 532.623 13.9981 532.308 12.6212C531.993 11.2442 531.116 9.86718 529.893 9.26849" fill="#E4E8EB"/>
<path d="M525.833 9.37825L525.32 8.51992L525.314 8.52359L525.833 9.37825ZM523.497 11.793L523.812 12.7422L523.813 12.7418L523.497 11.793ZM520.876 11.8528L520.998 12.8453L520.999 12.8452L520.876 11.8528ZM517.702 14.1179L518.568 14.6182L518.569 14.6167L517.702 14.1179ZM518.136 18.169L517.339 18.7726L517.339 18.7735L518.136 18.169ZM521.004 22.2401L521.942 21.8952L521.941 21.8917L521.004 22.2401ZM523.438 24.9242L523.003 25.8248L523.008 25.8272L523.438 24.9242ZM526.947 24.9642L526.354 24.1589L526.349 24.1626L526.947 24.9642ZM528.77 23.5971L528.325 22.7016L528.318 22.705L528.77 23.5971ZM531.175 23.3277L531.413 24.299L531.422 24.2967L531.175 23.3277ZM533.885 20.3243L532.925 20.0434L532.925 20.0453L533.885 20.3243ZM533.55 17.6102L532.663 18.0723L532.664 18.0746L533.55 17.6102ZM529.903 9.26849L530.341 8.36951C528.729 7.58396 526.646 7.72691 525.32 8.51994L525.833 9.37825L526.346 10.2366C527.089 9.7923 528.456 9.67582 529.465 10.1675L529.903 9.26849ZM525.833 9.37825L525.314 8.52359C524.6 8.95744 524.077 9.67609 523.733 10.1394C523.538 10.4025 523.397 10.5922 523.267 10.7356C523.124 10.893 523.1 10.8711 523.182 10.8441L523.497 11.793L523.813 12.7418C524.239 12.6001 524.55 12.2975 524.749 12.0789C524.96 11.8463 525.166 11.5645 525.339 11.3312C525.732 10.8017 526.032 10.4277 526.352 10.2329L525.833 9.37825ZM523.497 11.793L523.183 10.8437C523.188 10.8419 523.139 10.8569 522.985 10.8601C522.838 10.8631 522.662 10.8551 522.427 10.843C521.987 10.8202 521.377 10.7829 520.753 10.8605L520.876 11.8528L520.999 12.8452C521.419 12.7931 521.849 12.8157 522.323 12.8403C522.546 12.8518 522.795 12.8644 523.026 12.8596C523.252 12.855 523.535 12.8338 523.812 12.7422L523.497 11.793ZM520.876 11.8528L520.753 10.8604C519.202 11.0519 517.777 11.9841 516.836 13.619L517.702 14.1179L518.569 14.6167C519.225 13.4777 520.125 12.9532 520.998 12.8453L520.876 11.8528ZM517.702 14.1179L516.836 13.6176C515.714 15.5599 516.391 17.5204 517.339 18.7726L518.136 18.169L518.933 17.5655C518.265 16.6823 517.995 15.6095 518.568 14.6182L517.702 14.1179ZM518.136 18.169L517.339 18.7735C517.737 19.2974 518.161 19.6254 518.488 19.8767C518.826 20.136 519.027 20.2912 519.204 20.5229L519.999 19.9152L520.793 19.3075C520.428 18.8308 520.008 18.522 519.705 18.2898C519.392 18.0497 519.156 17.8588 518.933 17.5645L518.136 18.169ZM519.999 19.9152L519.204 20.5229C519.396 20.7728 519.519 21.0244 519.638 21.3447C519.7 21.5116 519.758 21.6871 519.828 21.8986C519.896 22.1045 519.973 22.3374 520.067 22.5885L521.004 22.2401L521.941 21.8917C521.862 21.6789 521.795 21.4777 521.727 21.2714C521.661 21.0706 521.59 20.8558 521.512 20.646C521.351 20.2129 521.144 19.7661 520.793 19.3075L519.999 19.9152ZM521.004 22.2401L520.065 22.5851C520.44 23.6047 521.213 24.9606 523.003 25.8248L523.438 24.9242L523.873 24.0237C522.687 23.4511 522.198 22.5917 521.942 21.8952L521.004 22.2401ZM523.438 24.9242L523.008 25.8272C524.706 26.6352 526.401 26.6187 527.545 25.7657L526.947 24.9642L526.349 24.1626C525.994 24.4272 525.147 24.6302 523.868 24.0213L523.438 24.9242ZM526.947 24.9642L527.54 25.7694C527.89 25.5117 528.246 25.2065 528.518 24.9863C528.819 24.7423 529.04 24.5814 529.222 24.4893L528.77 23.5971L528.318 22.705C527.929 22.9023 527.563 23.1854 527.258 23.4328C526.923 23.7041 526.654 23.9376 526.354 24.1589L526.947 24.9642ZM528.77 23.5971L529.215 24.4926C529.204 24.4983 529.234 24.4809 529.354 24.4674C529.475 24.4539 529.623 24.45 529.836 24.4474C530.227 24.4427 530.813 24.4461 531.413 24.299L531.175 23.3277L530.937 22.3565C530.6 22.4389 530.255 22.4422 529.812 22.4475C529.462 22.4517 528.841 22.445 528.325 22.7017L528.77 23.5971ZM531.175 23.3277L531.422 24.2967C533.008 23.8918 534.276 22.5636 534.845 20.6033L533.885 20.3243L532.925 20.0453C532.509 21.4776 531.687 22.165 530.927 22.3588L531.175 23.3277ZM533.885 20.3243L534.845 20.6052C535.164 19.5124 534.961 18.1481 534.435 17.1459L533.55 17.6102L532.664 18.0746C532.986 18.6888 533.078 19.5197 532.925 20.0434L533.885 20.3243ZM533.55 17.6102L534.437 17.1482C534.129 16.5575 533.646 16.0322 533.313 15.6714C533.129 15.4715 532.993 15.3258 532.89 15.1996C532.765 15.0465 532.798 15.0507 532.828 15.1562L531.865 15.425L530.901 15.6939C530.995 16.0288 531.212 16.3074 531.341 16.4652C531.492 16.65 531.681 16.8516 531.843 17.0271C532.202 17.4172 532.498 17.755 532.663 18.0723L533.55 17.6102ZM531.865 15.425L532.828 15.1562C532.888 15.3705 532.807 15.4958 532.871 15.3093C532.893 15.245 532.922 15.17 532.964 15.0616C533.003 14.9599 533.052 14.835 533.1 14.7C533.293 14.1503 533.501 13.3527 533.283 12.3979L532.308 12.6212L531.333 12.8444C531.43 13.2666 531.352 13.6414 531.213 14.0347C531.178 14.1354 531.141 14.2319 531.1 14.3369C531.061 14.4351 531.016 14.5521 530.978 14.6645C530.921 14.8316 530.777 15.2501 530.901 15.6939L531.865 15.425ZM532.308 12.6212L533.283 12.3979C532.922 10.8222 531.903 9.13964 530.333 8.37046L529.893 9.26849L529.454 10.1665C530.328 10.5947 531.063 11.6662 531.333 12.8444L532.308 12.6212Z" fill="#5E6F98" mask="url(#path-29-inside-3_1581_102006)"/>
<path d="M525.338 25.7709C524.677 25.7709 523.948 25.5913 523.209 25.2421C521.947 24.6334 521.1 23.6954 520.607 22.3783C520.518 22.1388 520.439 21.9093 520.37 21.6898C520.173 21.0911 520.016 20.6222 519.651 20.1432C519.414 19.8339 519.139 19.6243 518.843 19.3948C518.508 19.1354 518.133 18.8461 517.788 18.3871C516.714 16.9801 516.547 15.3238 517.335 13.9567C518.133 12.5698 519.355 11.7017 520.755 11.5221C521.297 11.4522 521.819 11.4822 522.282 11.5021C522.706 11.5221 523.1 11.542 523.317 11.4722C523.554 11.3924 523.869 10.9733 524.165 10.5642C524.559 10.0353 525.002 9.44661 525.584 9.0874C526.786 8.35899 528.629 8.29912 529.97 8.95768C531.202 9.56635 532.197 10.9334 532.562 12.5398C532.778 13.4978 532.473 14.286 532.276 14.8149C532.207 14.9945 532.108 15.2539 532.118 15.3238C532.158 15.4535 532.453 15.7828 532.7 16.0422C533.084 16.4513 533.518 16.9203 533.784 17.4491C534.247 18.3471 534.395 19.5445 534.139 20.4226C533.636 22.1289 532.562 23.3163 531.182 23.6655C530.699 23.7852 530.226 23.7952 529.802 23.7952C529.398 23.7952 529.053 23.7952 528.836 23.915C528.501 24.0846 528.137 24.3839 527.752 24.7032C527.525 24.8928 527.299 25.0824 527.062 25.252C526.589 25.6013 526.008 25.7709 525.347 25.7709H525.338ZM521.504 12.1607C521.287 12.1607 521.06 12.1607 520.834 12.2006C519.641 12.3503 518.596 13.0986 517.907 14.306C516.98 15.9125 517.887 17.4092 518.311 17.9779C518.606 18.3671 518.912 18.6066 519.237 18.856C519.552 19.0955 519.878 19.3549 520.163 19.7241C520.597 20.2929 520.775 20.8417 520.991 21.4703C521.06 21.6799 521.129 21.8994 521.218 22.1388C521.652 23.2863 522.391 24.1045 523.485 24.6334C524.727 25.2221 525.909 25.252 526.648 24.7132C526.875 24.5436 527.102 24.364 527.309 24.1844C527.723 23.8451 528.117 23.5158 528.521 23.3163C528.876 23.1367 529.309 23.1367 529.773 23.1267C530.167 23.1267 530.581 23.1267 530.995 23.0169C532.138 22.7276 533.045 21.7198 533.468 20.243C533.675 19.5345 533.547 18.5267 533.163 17.7784C532.936 17.3393 532.532 16.9003 532.177 16.5211C531.813 16.132 531.527 15.8227 531.448 15.5333C531.369 15.2539 531.478 14.9546 531.625 14.5854C531.822 14.0865 532.059 13.4678 531.882 12.7095C531.566 11.3225 530.689 10.0952 529.654 9.58631C528.363 8.95768 526.767 9.16722 525.909 9.68609C525.436 9.97546 525.042 10.5143 524.687 10.9833C524.293 11.5221 523.948 11.9811 523.504 12.1307C523.169 12.2405 522.736 12.2205 522.233 12.1906C521.997 12.1806 521.75 12.1707 521.494 12.1707L521.504 12.1607Z" fill="#5E6F98"/>
<path d="M526.179 15.7044C525.972 15.9638 525.607 16.0037 525.361 15.8042C525.114 15.6046 525.075 15.2354 525.282 14.976C525.489 14.7166 525.854 14.6766 526.1 14.8762C526.346 15.0758 526.386 15.445 526.179 15.7044Z" fill="#C8A374"/>
<path d="M527.638 15.8127C527.431 16.0721 527.066 16.112 526.82 15.9125C526.573 15.7129 526.534 15.3437 526.741 15.0843C526.948 14.8348 527.313 14.7849 527.559 14.9945C527.805 15.194 527.845 15.5632 527.638 15.8227" fill="#C8A374"/>
<path d="M525.017 16.97C524.81 17.2295 524.445 17.2694 524.199 17.0698C523.952 16.8702 523.913 16.501 524.12 16.2416C524.327 15.9822 524.691 15.9423 524.938 16.1418C525.184 16.3414 525.224 16.7106 525.017 16.97Z" fill="#C8A374"/>
<path d="M525.409 18.3567C525.202 18.6062 524.838 18.6561 524.591 18.4565C524.345 18.257 524.305 17.8878 524.512 17.6283C524.719 17.3689 525.084 17.329 525.33 17.5286C525.577 17.7281 525.616 18.0973 525.409 18.3567Z" fill="#C8A374"/>
<path d="M526.731 17.3724C526.525 17.6318 526.16 17.6717 525.913 17.4721C525.667 17.2726 525.628 16.9034 525.835 16.644C526.042 16.3845 526.406 16.3446 526.653 16.5442C526.899 16.7437 526.938 17.1129 526.731 17.3724Z" fill="#C8A374"/>
<path d="M526.771 19.1869C526.564 19.4463 526.199 19.4862 525.953 19.2867C525.706 19.0871 525.667 18.7179 525.874 18.4585C526.081 18.1991 526.445 18.1592 526.692 18.3687C526.938 18.5683 526.978 18.9374 526.771 19.1969" fill="#C8A374"/>
<path d="M528.13 18.4682C527.923 18.7276 527.558 18.7675 527.312 18.5679C527.066 18.3684 527.026 17.9992 527.233 17.7397C527.44 17.4803 527.805 17.4404 528.051 17.6499C528.297 17.8495 528.337 18.2187 528.13 18.4781" fill="#C8A374"/>
<path d="M528.396 17.0307C528.189 17.2901 527.824 17.33 527.578 17.1304C527.331 16.9309 527.292 16.5617 527.499 16.3022C527.706 16.0428 528.07 16.0029 528.317 16.2124C528.563 16.412 528.603 16.7812 528.396 17.0406" fill="#C8A374"/>
</g>
<defs>
<clipPath id="clip0_1581_102006">
<rect width="30" height="32" fill="white" transform="translate(507 8.5)"/>
</clipPath>
</defs>
</svg>
