<svg width="385" height="54" viewBox="0 0 385 54" fill="none" xmlns="http://www.w3.org/2000/svg">
<mask id="path-1-inside-1_1011_241364" fill="white">
<path d="M385 54H18.6855L0 35.8047V17.6084L18.6855 0H385V54ZM12.4043 23C9.91905 23 7.9043 25.0147 7.9043 27.5C7.9043 29.9853 9.91905 32 12.4043 32C14.8896 32 16.9043 29.9853 16.9043 27.5C16.9043 25.0147 14.8896 23 12.4043 23Z"/>
</mask>
<path d="M385 54H18.6855L0 35.8047V17.6084L18.6855 0H385V54ZM12.4043 23C9.91905 23 7.9043 25.0147 7.9043 27.5C7.9043 29.9853 9.91905 32 12.4043 32C14.8896 32 16.9043 29.9853 16.9043 27.5C16.9043 25.0147 14.8896 23 12.4043 23Z" fill="#ECC8C1"/>
<path d="M385 54V55H386V54H385ZM18.6855 54L17.9879 54.7164L18.2791 55H18.6855V54ZM0 35.8047H-1V36.2267L-0.697646 36.5211L0 35.8047ZM0 17.6084L-0.685819 16.8806L-1 17.1767V17.6084H0ZM18.6855 0V-1H18.2886L17.9997 -0.727772L18.6855 0ZM385 0H386V-1H385V0ZM12.4043 23V22H12.4043L12.4043 23ZM12.4043 32L12.4043 33H12.4043V32ZM385 54V53H18.6855V54V55H385V54ZM18.6855 54L19.3832 53.2836L0.697646 35.0882L0 35.8047L-0.697646 36.5211L17.9879 54.7164L18.6855 54ZM0 35.8047H1V17.6084H0H-1V35.8047H0ZM0 17.6084L0.685819 18.3362L19.3714 0.727772L18.6855 0L17.9997 -0.727772L-0.685819 16.8806L0 17.6084ZM18.6855 0V1H385V0V-1H18.6855V0ZM385 0H384V54H385H386V0H385ZM12.4043 23L12.4043 22C9.36678 22.0001 6.9043 24.4624 6.9043 27.5H7.9043H8.9043C8.9043 25.567 10.4713 24 12.4043 24L12.4043 23ZM7.9043 27.5H6.9043C6.9043 30.5376 9.36678 32.9999 12.4043 33L12.4043 32L12.4043 31C10.4713 31 8.9043 29.433 8.9043 27.5H7.9043ZM12.4043 32V33C15.4419 33 17.9043 30.5376 17.9043 27.5H16.9043H15.9043C15.9043 29.433 14.3373 31 12.4043 31V32ZM16.9043 27.5H17.9043C17.9043 24.4624 15.4419 22 12.4043 22V23V24C14.3373 24 15.9043 25.567 15.9043 27.5H16.9043Z" fill="#DA9186" mask="url(#path-1-inside-1_1011_241364)"/>
<path d="M52.8472 8.32V20.24H56.1272V7.56H60.9672V44.76H56.1272V24.6H52.8472V42.96H48.0072V8.32H52.8472ZM29.7672 11.08H44.1272V15.44H34.7672V30.52H35.9272C39.1672 30.52 42.5272 30.4 45.8472 29.88L46.3672 34.2C43.1272 34.76 39.2472 34.88 35.9272 34.88H29.7672V11.08ZM76.5813 7.08V11.08H84.6213V15.32H63.3413V11.08H71.5413V7.08H76.5813ZM92.4613 7.56V16.88H97.3413V21.28H92.4613V30.84H87.4213V7.56H92.4613ZM68.7413 36.76V32.52H92.4613V45.24H87.4213V36.76H68.7413ZM74.0613 30.48C68.4613 30.48 65.2213 27.64 65.2213 24.12V22.84C65.2213 19.32 68.4613 16.48 74.0613 16.48C79.6613 16.48 82.9013 19.32 82.9013 22.84V24.12C82.9013 27.64 79.6613 30.48 74.0613 30.48ZM74.0613 20.44C71.3813 20.44 69.9813 21.84 69.9813 23.08V23.88C69.9813 25.12 71.3813 26.52 74.0613 26.52C76.7413 26.52 78.1413 25.12 78.1413 23.88V23.08C78.1413 21.84 76.7413 20.44 74.0613 20.44ZM118.075 26.2C111.755 26.2 108.555 22.28 108.555 18.04V16.92C108.555 12.68 111.755 8.76 118.075 8.76C124.395 8.76 127.595 12.68 127.595 16.92V18.04C127.595 22.28 124.395 26.2 118.075 26.2ZM118.075 13.04C114.835 13.04 113.355 15.08 113.355 17.04V17.92C113.355 19.88 114.835 21.92 118.075 21.92C121.315 21.92 122.795 19.88 122.795 17.92V17.04C122.795 15.08 121.315 13.04 118.075 13.04ZM133.235 26.72V7.56H138.275V26.72H133.235ZM133.275 28.4H138.275V44.8H114.595V28.4H119.595V32.6H133.275V28.4ZM119.595 40.64H133.275V36.76H119.595V40.64ZM155.409 7.08V11.08H163.449V15.32H142.169V11.08H150.369V7.08H155.409ZM171.289 7.56V16.88H176.169V21.28H171.289V30.84H166.249V7.56H171.289ZM147.569 36.76V32.52H171.289V45.24H166.249V36.76H147.569ZM152.889 30.48C147.289 30.48 144.049 27.64 144.049 24.12V22.84C144.049 19.32 147.289 16.48 152.889 16.48C158.489 16.48 161.729 19.32 161.729 22.84V24.12C161.729 27.64 158.489 30.48 152.889 30.48ZM152.889 20.44C150.209 20.44 148.809 21.84 148.809 23.08V23.88C148.809 25.12 150.209 26.52 152.889 26.52C155.569 26.52 156.969 25.12 156.969 23.88V23.08C156.969 21.84 155.569 20.44 152.889 20.44ZM186.183 24.24H198.023V17.48H203.103V24.24H220.263V28.48H186.183V24.24ZM203.223 45.88C196.743 45.88 191.223 43.48 191.223 38.92V37.72C191.223 33.16 196.743 30.76 203.223 30.76C209.703 30.76 215.223 33.16 215.223 37.72V38.92C215.223 43.48 209.703 45.88 203.223 45.88ZM203.223 34.88C199.663 34.88 196.183 36.08 196.183 38.04V38.6C196.183 40.56 199.663 41.76 203.223 41.76C206.783 41.76 210.263 40.56 210.263 38.6V38.04C210.263 36.08 206.783 34.88 203.223 34.88ZM190.623 8.92H215.423V14.36C215.423 16.16 215.103 19.92 214.543 22.4L209.623 21.84C210.223 19.04 210.383 16.52 210.383 14.52V13.2H190.623V8.92ZM249.638 8.6V12.56H230.238V14.56H249.318V18.44H230.238V20.44H250.038V24.4H240.158V26.76H254.678V30.76H220.598V26.76H235.118V24.4H225.278V8.6H249.638ZM237.638 45.92C231.078 45.92 225.638 44 225.638 39.6V38.48C225.638 34.08 231.078 32.16 237.638 32.16C244.198 32.16 249.638 34.08 249.638 38.48V39.6C249.638 44 244.198 45.92 237.638 45.92ZM237.638 36.16C234.078 36.16 230.598 37.12 230.598 38.8V39.28C230.598 41 234.078 41.92 237.638 41.92C241.198 41.92 244.678 41 244.678 39.28V38.8C244.678 37.12 241.198 36.16 237.638 36.16ZM266.212 35.16V10.76H280.652V15.04H271.092V20.6H278.852V24.8H271.092V30.88H272.812C275.852 30.88 279.332 30.72 282.652 30.24L283.132 34.48C280.052 35 275.932 35.16 271.772 35.16H266.212ZM285.092 42.96V24.64H280.852V20.28H285.092V8.32H289.892V42.96H285.092ZM297.452 7.56V44.76H292.652V7.56H297.452ZM299.426 35.8H333.506V40.08H299.426V35.8ZM316.626 22.32H316.586C316.186 23.24 314.706 24.24 312.706 25.6C310.546 27.04 307.706 28.76 303.866 30.92L301.386 26.92C304.306 25.28 307.506 23.4 309.826 21.8C312.986 19.64 313.906 17.68 313.906 14.2V10.08H319.026V14.2C319.026 17.68 319.946 19.64 323.106 21.8C325.426 23.4 328.626 25.28 331.546 26.92L329.106 30.84C325.266 28.68 322.426 26.96 320.266 25.52C318.266 24.16 317.026 23.2 316.626 22.32ZM333.84 35.8H367.92V40.08H333.84V35.8ZM363.56 26.48V30.72H338.24V10.32H363.16V14.56H343.24V18.4H362.84V22.64H343.24V26.48H363.56Z" fill="#1E1E1E"/>
</svg>
