<svg width="227" height="54" viewBox="0 0 227 54" fill="none" xmlns="http://www.w3.org/2000/svg">
<mask id="path-1-inside-1_1947_52868" fill="white">
<path d="M227 54H11.0176L0 35.8047V17.6084L11.0176 0H227V54ZM9.7002 22.6104C7.63961 22.6104 5.96875 24.3558 5.96875 26.5088C5.96882 28.6617 7.63965 30.4072 9.7002 30.4072C11.7605 30.407 13.4306 28.6616 13.4307 26.5088C13.4307 24.356 11.7606 22.6106 9.7002 22.6104Z"/>
</mask>
<path d="M227 54H11.0176L0 35.8047V17.6084L11.0176 0H227V54ZM9.7002 22.6104C7.63961 22.6104 5.96875 24.3558 5.96875 26.5088C5.96882 28.6617 7.63965 30.4072 9.7002 30.4072C11.7605 30.407 13.4306 28.6616 13.4307 26.5088C13.4307 24.356 11.7606 22.6106 9.7002 22.6104Z" fill="#ECC8C1"/>
<path d="M227 54V55H228V54H227ZM11.0176 54L10.1622 54.518L10.4541 55H11.0176V54ZM0 35.8047H-1V36.0839L-0.855404 36.3227L0 35.8047ZM0 17.6084L-0.847731 17.078L-1 17.3213V17.6084H0ZM11.0176 0V-1H10.4637L10.1698 -0.530426L11.0176 0ZM227 0H228V-1H227V0ZM9.7002 22.6104L9.70031 21.6104H9.7002V22.6104ZM5.96875 26.5088H4.96875V26.5088L5.96875 26.5088ZM9.7002 30.4072V31.4072H9.70031L9.7002 30.4072ZM13.4307 26.5088L14.4307 26.5088V26.5088H13.4307ZM227 54V53H11.0176V54V55H227V54ZM11.0176 54L11.873 53.482L0.855404 35.2867L0 35.8047L-0.855404 36.3227L10.1622 54.518L11.0176 54ZM0 35.8047H1V17.6084H0H-1V35.8047H0ZM0 17.6084L0.847731 18.1388L11.8653 0.530426L11.0176 0L10.1698 -0.530426L-0.847731 17.078L0 17.6084ZM11.0176 0V1H227V0V-1H11.0176V0ZM227 0H226V54H227H228V0H227ZM9.7002 22.6104V21.6104C7.04655 21.6104 4.96875 23.8452 4.96875 26.5088H5.96875H6.96875C6.96875 24.8664 8.23268 23.6104 9.7002 23.6104V22.6104ZM5.96875 26.5088L4.96875 26.5088C4.96883 29.1723 7.04656 31.4072 9.7002 31.4072V30.4072V29.4072C8.23275 29.4072 6.9688 28.1511 6.96875 26.5088L5.96875 26.5088ZM9.7002 30.4072L9.70031 31.4072C12.3539 31.4069 14.4306 29.1719 14.4307 26.5088L13.4307 26.5088L12.4307 26.5088C12.4306 28.1512 11.1672 29.4071 9.70008 29.4072L9.7002 30.4072ZM13.4307 26.5088H14.4307C14.4307 23.8456 12.3539 21.6107 9.70031 21.6104L9.7002 22.6104L9.70008 23.6104C11.1673 23.6105 12.4307 24.8663 12.4307 26.5088H13.4307Z" fill="#DA9186" mask="url(#path-1-inside-1_1947_52868)"/>
<path d="M57.68 7.56V16.16H62.56V20.56H57.68V31.64H52.64V7.56H57.68ZM30.52 30.8L28.48 26.68C39.8 21.88 41.36 20.44 41.36 16.2V14.08H30.08V9.8H46.4V16.68C46.4 23.04 43.28 25.4 30.52 30.8ZM46 38.6H45.96C45.72 39.32 44.24 40.24 42.08 41.36C39.52 42.68 36.6 44.04 33.88 45.16L31.88 41C34.84 39.8 38.2 38.32 40.52 37.08C42.4 36.08 43.28 34.84 43.28 32.8V29.56H48.4V32.8C48.4 34.84 49.16 36.04 51.12 37.08C53.4 38.28 57 39.88 59.8 41L57.84 45.04C54.92 43.76 52.2 42.52 49.68 41.24C47.6 40.2 46.28 39.28 46 38.6ZM62.6141 30.96H66.5341V14.92H63.0141V10.84H84.6941V14.92H81.0941V30.8C82.4941 30.76 83.9341 30.64 85.3741 30.52L85.7341 34.56C81.8541 35 76.5741 35.04 71.2541 35.04H62.6141V30.96ZM92.0941 7.56V20.64H97.2141V25.04H92.0941V44.76H87.0141V7.56H92.0941ZM76.1341 30.96V14.92H71.4941V30.96H76.1341ZM97.1081 37.44V33.08C100.468 33.08 103.428 33.08 105.988 33.04V27.48C101.388 26.6 98.4681 23.2 98.4681 19.44V17.84C98.4681 13.44 102.508 9.56 108.468 9.56C114.388 9.56 118.468 13.44 118.468 17.84V19.44C118.468 23.2 115.508 26.56 110.988 27.48V32.96C114.828 32.84 117.708 32.64 120.108 32.4L120.468 36.72C116.068 37.28 109.268 37.44 97.1081 37.44ZM126.948 7.56V21.28H132.108V25.68H126.948V44.76H121.948V7.56H126.948ZM108.468 13.88C105.268 13.88 103.268 16 103.268 18.12V19.16C103.268 21.28 105.268 23.4 108.468 23.4C111.668 23.4 113.668 21.28 113.668 19.16V18.12C113.668 16 111.668 13.88 108.468 13.88ZM142.442 10.04H156.922V14.32H147.402V24.44C151.922 24.48 154.722 24.32 158.362 23.88L158.842 27.96C155.122 28.6 151.762 28.72 142.442 28.72V10.04ZM153.522 31.96V40.04H173.642V44.36H148.442V31.96H153.522ZM161.002 33.12V21.16H154.922V16.88H161.002V8.04H165.762V33.12H161.002ZM173.082 7.56V34H168.282V7.56H173.082ZM175.816 26.36H198.896C199.736 22.64 199.976 19.36 199.976 15.72V14.08H180.016V9.72H205.016V14.8C205.016 18.96 204.656 23.2 203.976 26.36H209.896V30.64H195.376V44.76H190.296V30.64H175.816V26.36Z" fill="#1E1E1E"/>
</svg>
