<svg width="97" height="60" viewBox="0 0 97 60" fill="none" xmlns="http://www.w3.org/2000/svg">
<rect x="1" y="1" width="95" height="58" rx="7" fill="#E8E8F4"/>
<rect x="1" y="1" width="95" height="58" rx="7" stroke="#81ADE1" stroke-width="2"/>
<rect x="5" y="5" width="87" height="50" rx="5" fill="#E8E8F4"/>
<rect x="5" y="5" width="87" height="50" rx="5" stroke="#81ADE1" stroke-width="2"/>
<path d="M26.6859 29.44H26.6459C26.2859 30.32 25.5659 31.2 24.2859 32.6C22.6459 34.4 20.6459 36.44 17.9659 38.92L15.3659 36.24C17.7659 34.08 19.7259 32.12 21.5259 30.12C24.1659 27.2 24.6059 25.68 24.6059 22.72V17.48H16.6859V14.04H36.3259V17.48H28.6059V22.72C28.6059 25.88 29.0459 27.08 31.8859 30.16C33.6059 32.04 35.2859 33.6 37.6459 35.68L35.0459 38.36C32.3259 35.88 30.6459 34.2 29.1259 32.56C28.0059 31.36 27.0059 30.24 26.6859 29.44ZM45.2859 47.6H41.3259V10.72H45.2859V47.6ZM60.94 25.08H60.9C60.66 25.76 59.46 27.08 58.22 28.2C56.54 29.72 54.26 31.44 52.02 33L49.7 30.16C52.26 28.36 54.78 26.44 56.18 25.12C58.14 23.28 58.78 21.68 58.78 18.76V16.48H50.94V13.08H70.18V16.48H62.78V18.6C62.78 21.16 63.14 22.68 64.86 24.16C66.78 25.84 68.94 27.4 71.26 28.96L69.02 31.84C66.94 30.4 65.14 29.04 63.22 27.44C62.02 26.44 61.22 25.68 60.94 25.08ZM60.26 34.76V43.76H80.1V47.2H56.3V34.76H60.26ZM79.34 37H75.42V10.72H79.34V37Z" fill="#1E1E1E"/>
</svg>
