<svg width="97" height="60" viewBox="0 0 97 60" fill="none" xmlns="http://www.w3.org/2000/svg">
<rect x="1" y="1" width="95" height="58" rx="7" fill="#E8E8F4"/>
<rect x="1" y="1" width="95" height="58" rx="7" stroke="#81ADE1" stroke-width="2"/>
<rect x="5" y="5" width="87" height="50" rx="5" fill="#E8E8F4"/>
<rect x="5" y="5" width="87" height="50" rx="5" stroke="#81ADE1" stroke-width="2"/>
<path d="M29.2859 19.48H18.4059V16.04H29.2859V11.12H33.2459V16.04H44.2059V19.48H33.2459V19.64C33.2459 22.2 34.2459 24.04 37.4459 26.08C40.5259 28.04 42.4459 29.04 45.8459 30.68L43.9659 33.84C40.5259 32.12 38.3659 30.96 35.6859 29.28C33.0459 27.6 31.7259 26.4 31.3259 25.72H31.2859C30.8459 26.44 29.4859 27.68 26.8459 29.36C24.1259 31.08 21.6459 32.4 18.6059 33.88L16.6859 30.72C20.1659 29.04 22.5259 27.8 25.0859 26.16C28.1659 24.16 29.2859 22.24 29.2859 19.64V19.48ZM33.2859 39.32H48.2059V42.68H14.3659V39.32H29.2859V32.44H33.2859V39.32ZM73.98 31.76H77.9V47.6H55.42V31.76H59.34V36.28H73.98V31.76ZM67.82 28.72H50.58V12.4H54.46V17.68H63.94V12.4H67.82V28.72ZM83.14 18.48V21.92H77.9V29.96H73.98V10.72H77.9V18.48H83.14ZM59.34 44.24H73.98V39.6H59.34V44.24ZM54.46 21V25.36H63.94V21H54.46Z" fill="#1E1E1E"/>
</svg>
