<svg width="960" height="248" viewBox="0 0 960 248" fill="none" xmlns="http://www.w3.org/2000/svg">
<rect x="1.5" y="1.5" width="957" height="245" rx="8.5" fill="#FFEED4" stroke="#9CAFC3" stroke-width="3"/>
<mask id="path-2-inside-1_2044_82380" fill="white">
<path d="M20 30H646V86H20V30Z"/>
</mask>
<path d="M646 86V83H20V86V89H646V86Z" fill="#9CAFC3" mask="url(#path-2-inside-1_2044_82380)"/>
<path d="M70.7568 41.2168L68.2729 41.973L66.401 44.8537L63.7011 46.8342L44.4057 65.3787L41.0938 74.3809L49.4096 72.5085L73.6007 48.1304L74.9686 45.4298L74.5007 43.5934L72.2328 41.5409L70.7568 41.2168Z" fill="#FCE8E3"/>
<path d="M49.9185 72.723C49.7385 72.723 49.5225 72.6509 49.4145 72.5429C49.1625 72.2909 49.1625 71.8228 49.4145 71.4987L73.9656 46.9407C74.7936 46.1125 74.7936 44.8162 73.9656 44.06L72.0217 42.1155C71.1938 41.2873 69.8978 41.2873 69.1418 42.1155L44.6627 66.5295C44.4107 66.7816 43.9427 66.7816 43.6187 66.5295C43.3667 66.2774 43.3667 65.8093 43.6187 65.4852L68.0978 40.9992C69.4657 39.6669 71.6978 39.6669 73.0297 40.9992L74.9736 42.9438C76.3415 44.3121 76.3415 46.5445 74.9736 47.9129L50.4225 72.4709C50.2425 72.651 50.0985 72.723 49.9185 72.723Z" fill="#EF897E"/>
<path d="M49.9875 72.6525C49.6635 72.6525 49.4116 72.4724 49.2676 72.1483C48.8716 70.852 48.1876 69.6998 47.2876 68.7995C46.5316 68.0434 45.5597 67.3952 44.5157 66.9991L42.5359 72.1483C42.3919 72.5444 41.9599 72.7244 41.6359 72.5444C41.2399 72.4003 41.0599 71.9682 41.2398 71.6442L43.4718 65.8828C43.6157 65.5588 43.9757 65.3787 44.3717 65.4147C45.8477 65.8828 47.2517 66.711 48.3676 67.7913C49.4476 68.8716 50.3116 70.3119 50.7436 71.7882C50.8876 72.1843 50.5995 72.5444 50.2395 72.6884C50.0955 72.6164 50.0595 72.6884 49.9875 72.6884" fill="#EF897E"/>
<path d="M71.1928 51.368C71.0128 51.368 70.7967 51.2959 70.6887 51.1878L64.857 45.3544C64.605 45.1024 64.605 44.6342 64.857 44.3101C65.109 44.0581 65.577 44.0581 65.901 44.3101L71.7327 50.1437C71.9847 50.3957 71.9847 50.8638 71.7327 51.1878C71.5887 51.3319 71.4088 51.368 71.2288 51.368" fill="#EF897E"/>
<path d="M38.2128 75.0949H36.8089C35.4769 75.0949 34.253 74.9509 33.101 74.6628C31.1571 74.1587 29.6811 73.3664 28.6012 72.2142C26.8012 70.3417 25.9012 67.7131 26.0812 65.1564C26.2612 63.0319 27.4491 61.6275 28.9611 61.4115C30.113 61.2315 31.337 61.8076 32.129 62.8879C33.1009 64.2562 33.173 66.0567 32.381 68.1452C32.057 69.0455 31.6249 69.8736 31.085 70.6658C30.833 70.9899 30.4371 71.062 30.0411 70.8459C29.7171 70.5938 29.645 70.1977 29.861 69.8016C30.293 69.0814 30.689 68.3972 31.013 67.605C31.409 66.4527 31.733 64.8324 30.869 63.6801C30.437 63.0319 29.7891 62.7079 29.1411 62.8519C27.7732 63.032 27.5211 64.7964 27.4851 65.3005C27.3051 67.4971 28.0611 69.6575 29.537 71.2059C30.437 72.1061 31.733 72.8263 33.3889 73.2584C34.4329 73.5105 35.5128 73.6546 36.7368 73.6546H38.1408C40.3367 73.6546 42.4966 73.3305 44.6205 72.7544L49.5523 71.278C49.9483 71.134 50.3083 71.422 50.4523 71.7821C50.5963 72.1782 50.3084 72.5382 49.9484 72.6823L45.0166 74.1587C42.8926 74.7348 40.5887 75.0589 38.2128 75.0589" fill="#EF897E"/>
<path d="M21.2239 76.0002H20.72C20.324 76.0002 20 75.6761 20 75.244C20 74.8479 20.396 74.5238 20.7559 74.5238C23.7798 74.6679 26.4798 73.4796 28.6038 71.247C28.8557 70.9229 29.3236 70.923 29.6476 71.175C29.9716 71.4271 29.9717 71.8951 29.7197 72.2192C27.4158 74.7398 24.4998 76.0002 21.2239 76.0002Z" fill="#EF897E"/>
<mask id="path-10-inside-2_2044_82380" fill="white">
<path d="M20 96H940V152H20V96Z"/>
</mask>
<path d="M940 152V149H20V152V155H940V152Z" fill="#9CAFC3" mask="url(#path-10-inside-2_2044_82380)"/>
<mask id="path-12-inside-3_2044_82380" fill="white">
<path d="M20 162H940V218H20V162Z"/>
</mask>
<path d="M940 218V215H20V218V221H940V218Z" fill="#9CAFC3" mask="url(#path-12-inside-3_2044_82380)"/>
</svg>
