<svg width="97" height="60" viewBox="0 0 97 60" fill="none" xmlns="http://www.w3.org/2000/svg">
<rect x="1" y="1" width="95" height="58" rx="7" fill="#E8E8F4"/>
<rect x="1" y="1" width="95" height="58" rx="7" stroke="#81ADE1" stroke-width="2"/>
<rect x="5" y="5" width="87" height="50" rx="5" fill="#E8E8F4"/>
<rect x="5" y="5" width="87" height="50" rx="5" stroke="#81ADE1" stroke-width="2"/>
<path d="M14.3659 39.32H48.2059V42.68H14.3659V39.32ZM31.3259 24.68H31.2859C30.8859 25.6 29.2459 27 26.5659 28.72C24.2459 30.2 21.6859 31.76 18.3659 33.6L16.4059 30.48C19.6059 28.72 22.1259 27.28 24.8059 25.48C28.4459 23 29.2859 21.28 29.2859 17.36V13.32H33.2859V17.36C33.2859 21.28 33.8859 22.92 38.2059 25.76C40.7259 27.4 43.0459 28.72 46.2059 30.44L44.2859 33.52C41.3259 31.84 38.4059 30.16 36.0059 28.64C33.4059 27 31.7659 25.6 31.3259 24.68ZM77.78 13.76V31.36H67.7V39.32H82.62V42.68H48.78V39.32H63.7V31.36H53.62V13.76H77.78ZM57.54 17.12V28H73.86V17.12H57.54Z" fill="#1E1E1E"/>
</svg>
