<svg width="132" height="60" viewBox="0 0 132 60" fill="none" xmlns="http://www.w3.org/2000/svg">
<rect x="1" y="1" width="130" height="58" rx="7" fill="#E8E8F4"/>
<rect x="1" y="1" width="130" height="58" rx="7" stroke="#81ADE1" stroke-width="2"/>
<rect x="5" y="5" width="122" height="50" rx="5" fill="#E8E8F4"/>
<rect x="5" y="5" width="122" height="50" rx="5" stroke="#81ADE1" stroke-width="2"/>
<path d="M20.3389 26.16V25.2C20.3389 21.76 24.0989 19.12 31.5789 19.12C39.0589 19.12 42.8189 21.76 42.8189 25.2V26.16C42.8189 29.6 39.0589 32.24 31.5789 32.24C24.0989 32.24 20.3389 29.6 20.3389 26.16ZM33.5789 47.6H29.5789V37.56H14.6589V34.2H48.4989V37.56H33.5789V47.6ZM33.6189 10V14.2H45.3389V17.52H17.8189V14.2H29.5389V10H33.6189ZM24.2589 25.4V25.96C24.2589 27.28 26.4589 29.04 31.5789 29.04C36.6989 29.04 38.8989 27.28 38.8989 25.96V25.4C38.8989 24.08 36.6989 22.32 31.5789 22.32C26.4589 22.32 24.2589 24.08 24.2589 25.4ZM61.393 29.44H61.353C60.993 30.32 60.273 31.2 58.993 32.6C57.353 34.4 55.353 36.44 52.673 38.92L50.073 36.24C52.473 34.08 54.433 32.12 56.233 30.12C58.873 27.2 59.313 25.68 59.313 22.72V17.48H51.393V14.04H71.033V17.48H63.313V22.72C63.313 25.88 63.753 27.08 66.593 30.16C68.313 32.04 69.993 33.6 72.353 35.68L69.753 38.36C67.033 35.88 65.353 34.2 63.833 32.56C62.713 31.36 61.713 30.24 61.393 29.44ZM79.993 47.6H76.033V10.72H79.993V47.6ZM94.247 24.4H94.207C94.007 25.08 92.767 26.48 91.527 27.6C89.887 29.12 87.527 31.12 85.407 32.8L83.047 30C85.607 28.04 88.087 25.92 89.487 24.52C91.527 22.48 92.087 20.96 92.087 18.16V12.44H96.087V18C96.087 20.48 96.247 21.8 98.167 23.56C100.047 25.28 102.327 27.08 104.687 28.8L102.367 31.56C100.327 30 98.447 28.44 96.527 26.84C95.327 25.84 94.487 25 94.247 24.4ZM112.487 36.96H108.567V10.72H112.487V20.92H117.727V24.36H112.487V36.96ZM93.927 34.76V43.76H113.487V47.2H89.967V34.76H93.927Z" fill="#1E1E1E"/>
</svg>
