<svg width="151" height="39" viewBox="0 0 151 39" fill="none" xmlns="http://www.w3.org/2000/svg">
<path d="M71 6H136C143.732 6 150 12.268 150 20V20C150 27.732 143.732 34 136 34H71V6Z" stroke="#2CBFAF" stroke-width="2"/>
<circle cx="19.5" cy="19.5" r="19.5" fill="#2CBFAF"/>
<circle cx="49.5" cy="19.5" r="19.5" fill="#2CBFAF"/>
<circle cx="79.5" cy="19.5" r="19.5" fill="#2CBFAF"/>
<path d="M18.12 16.088C18.12 17.576 17.424 19.016 16.2 19.928C12.936 22.352 7.368 20.288 7.368 16.088C7.368 14.816 7.776 13.784 8.448 12.992H8.016C7.224 12.992 6.6 12.416 6.6 11.72C6.6 11 7.224 10.424 8.016 10.424H11.184V9.656C11.184 9.032 11.808 8.528 12.576 8.528C13.344 8.528 13.968 9.032 13.968 9.656V10.424H17.304C18.096 10.424 18.72 11 18.72 11.72C18.72 12.416 18.096 12.992 17.304 12.992H17.016C17.688 13.784 18.12 14.816 18.12 16.088ZM11.592 28.712C10.296 28.712 9.408 28.04 9.408 27.32V23.864C9.384 23.504 9.384 23.144 9.408 22.784C9.48 22.112 9.984 21.656 10.704 21.656C10.872 21.656 11.4 21.68 11.568 21.728C12.408 21.992 12.456 22.808 12.504 23.528C12.528 23.792 12.552 25.64 12.6 25.856C12.696 25.88 13.032 25.952 14.208 25.952C15.24 25.952 15.336 25.904 15.36 25.904H23.208C23.232 25.928 24.192 26.144 24.288 26.816C24.36 27.416 24.264 27.896 23.976 28.232C23.592 28.688 23.016 28.712 22.992 28.712H11.592ZM24.192 17.192H23.616V20.336C23.592 20.672 23.544 21.056 23.328 21.416C23.232 21.608 23.088 21.776 22.896 21.872C22.656 22.04 22.368 22.136 22.056 22.136C21.816 22.136 21.552 22.064 21.36 21.944C20.664 21.56 20.568 20.696 20.568 20.672V11.528C20.568 11.384 20.592 10.664 20.784 10.28C20.952 9.968 21.336 9.752 21.84 9.704C22.392 9.632 22.92 9.776 23.208 10.064C23.4 10.304 23.472 10.544 23.544 10.808C23.64 11.12 23.64 11.504 23.616 11.84V14.504C23.904 14.528 25.296 14.576 25.56 14.648C26.232 14.768 26.472 15.008 26.568 15.368C26.64 15.704 26.664 16.256 26.472 16.568C26.064 17.192 25.2 17.192 24.192 17.192ZM13.224 18.224C14.232 18.032 15.12 17.312 15.12 16.088C15.12 13.232 10.368 13.088 10.368 16.088C10.368 17.816 11.904 18.488 13.224 18.224ZM28.7319 25.808C28.7319 23.408 31.5159 22.808 35.1639 22.712V22.664L35.1879 20.936C33.7239 20.936 30.1239 20.888 28.7799 20.792C28.2759 20.744 28.0359 20.72 27.6279 20.336C27.4119 20.144 27.3159 19.808 27.3159 19.472C27.3159 19.16 27.4359 18.848 27.6279 18.656C28.1079 18.152 29.2839 18.176 29.3319 18.176H43.0599C43.5399 18.176 44.0199 18.176 44.4759 18.2C44.9079 18.224 45.3879 18.296 45.7239 18.608C46.0599 18.872 46.0599 19.184 46.0599 19.568C46.0599 20.048 45.7719 20.432 45.2919 20.6C44.6439 20.84 43.8519 20.864 43.1799 20.888C41.5959 20.936 40.0599 20.984 38.4519 20.984L38.4279 22.712C41.8839 22.784 44.4519 23.24 44.4519 25.808C44.4519 28.784 40.9239 28.928 36.5799 28.928C32.2599 28.928 28.7319 28.784 28.7319 25.808ZM42.3399 14.528C42.9399 14.792 43.5399 15.2 44.0439 15.608C44.5719 16.064 44.4039 17.12 43.6119 17.264C42.6039 17.48 41.4039 17.168 40.4919 16.76C39.6279 16.376 38.9079 16.04 38.1879 15.632C37.7559 15.392 36.5319 14.768 36.5319 14.768C36.5319 14.768 35.0679 15.416 34.5639 15.656C33.7239 16.088 33.0999 16.352 32.2599 16.736C31.6359 17 30.9639 17.432 30.2439 17.384C29.6679 17.36 29.0199 17.12 28.8999 16.496C28.8759 16.328 28.8999 16.136 28.9479 15.944C29.0679 15.488 29.4039 15.2 29.8359 14.936L31.4919 14.12C32.0439 13.832 32.3799 13.688 32.9559 13.424C33.4839 13.136 34.2999 12.728 34.9239 12.512V11.768H32.3799C31.8759 11.768 31.5639 11.792 31.0839 11.744C30.7239 11.696 30.2679 11.744 29.9319 11.576C29.7399 11.48 29.5959 11.312 29.4999 11.12C29.3079 10.808 29.2599 10.352 29.4279 10.016C29.6679 9.512 30.3399 9.248 30.9399 9.248H31.4919C31.9959 9.272 32.1159 9.248 32.6199 9.248H40.9239C41.9799 9.248 43.7799 8.984 44.1159 10.352C44.4999 11.912 41.9079 11.864 40.8999 11.816C39.9159 11.768 38.4279 11.816 38.4279 11.816V12.56C38.6199 12.656 38.8359 12.776 39.0519 12.848C39.2439 12.944 39.4119 13.04 39.6039 13.136C39.9159 13.304 40.2279 13.424 40.5399 13.592C41.1399 13.88 41.7399 14.216 42.3399 14.528ZM41.2839 25.808C41.2839 24.776 38.7879 25.04 36.5799 25.04C34.3959 25.04 32.0439 24.776 32.0439 25.808C32.0439 26.72 34.3959 26.576 36.5799 26.576C38.7879 26.576 41.2839 27.008 41.2839 25.808ZM55.5709 16.568C55.5229 16.568 55.4989 16.544 55.4989 16.52C55.1869 16.28 55.0909 15.68 55.0909 15.32C55.0669 14.744 54.9949 14.168 54.9949 13.616C54.9949 12.8 54.9709 11.816 55.1149 11.024C55.2109 10.52 55.4029 10.232 55.8829 10.04C56.3149 9.872 56.7709 9.824 57.2269 9.776C57.7789 9.728 58.3549 9.776 58.9309 9.776H63.4909C65.1229 9.776 64.9069 9.776 66.5149 9.752C66.8029 9.752 67.0669 9.752 67.3549 9.776C67.9549 9.8 68.6269 9.824 69.1789 10.088C69.8029 10.352 69.9949 11.024 70.0189 11.648C70.0669 12.368 69.9949 13.28 69.9949 14C69.9709 14.648 69.9949 15.296 69.8269 15.92C69.7309 16.28 69.6589 16.568 69.2749 16.688C68.9389 16.808 68.5069 16.832 68.1709 16.832H57.8029C57.4909 16.832 57.1789 16.808 56.8669 16.784C56.4589 16.76 55.9309 16.808 55.5709 16.568ZM68.8909 21.152C67.3069 21.2 66.0589 21.248 64.4509 21.248C64.4269 21.92 64.3789 22.544 64.3789 23.456C64.2349 24.128 63.3469 24.536 62.6989 24.512C61.7389 24.464 61.2109 24.08 61.1149 23.12C61.0429 22.496 61.1389 21.824 61.1389 21.2C59.6749 21.2 55.8349 21.152 54.4909 21.056C53.9869 21.008 53.7469 20.984 53.3389 20.6C53.1229 20.408 53.0269 20.048 53.0269 19.712C53.0269 19.4 53.1469 19.088 53.3389 18.896C53.8189 18.392 54.9949 18.416 55.0429 18.416H68.7709C69.2509 18.416 69.7309 18.416 70.1869 18.44C70.6189 18.464 71.0989 18.536 71.4349 18.848C71.7709 19.112 71.7709 19.424 71.7709 19.808C71.7709 20.288 71.4829 20.696 71.0029 20.864C70.3549 21.104 69.5629 21.128 68.8909 21.152ZM69.5629 25.688C69.6109 25.712 70.4989 25.928 70.5949 26.6C70.6909 27.2 70.5949 27.68 70.3069 28.016C69.9469 28.472 69.4189 28.496 69.3949 28.496H56.2909C55.0669 28.496 54.3229 28.064 54.3229 27.344V25.208C54.2989 24.848 54.2989 24.488 54.3229 24.128C54.3709 23.456 54.8749 23 55.5469 23C55.7149 23 56.0509 23.024 56.1949 23.072C57.0109 23.336 57.0589 24.152 57.1069 24.872C57.1069 25.136 57.1309 25.424 57.2029 25.64C57.2749 25.664 57.7549 25.736 58.8829 25.736C59.8429 25.736 60.7309 25.688 60.7549 25.688H69.5629ZM57.8509 13.76C57.8509 13.904 57.8509 14.072 57.9229 14.144C58.0669 14.264 58.6189 14.192 58.6189 14.192H64.9309C64.9309 14.192 66.0829 14.288 66.6589 14.216C66.9949 14.192 66.9949 14.048 67.0429 13.76C67.0669 13.496 67.1149 12.944 66.9229 12.704C66.7069 12.44 66.2029 12.488 65.9149 12.512H63.7309C63.5149 12.488 60.6109 12.512 60.3949 12.512C59.7229 12.464 59.0509 12.488 58.3549 12.512C58.0669 12.512 57.9709 12.464 57.8989 12.752C57.8509 12.968 57.8509 13.352 57.8509 13.544V13.76ZM74.8978 24.032C75.0178 23.984 77.2258 24.08 77.6338 24.08C77.6578 23.696 77.7058 22.112 77.7538 21.32C77.4658 21.248 77.2018 21.176 76.9378 21.056C75.1378 20.312 73.7458 18.848 73.7458 16.736C73.7458 15.584 74.0818 14.696 74.6338 14H74.3698C73.6018 14 72.9538 13.424 72.9538 12.728C72.9538 12.008 73.6018 11.432 74.3698 11.432H77.5378V10.448C77.5378 9.824 78.1618 9.368 78.9298 9.368C79.7218 9.368 80.3458 9.824 80.3458 10.448V11.432H83.6578C84.4498 11.432 85.0978 12.008 85.0978 12.728C85.0978 13.424 84.4498 14 83.6578 14H83.5858C84.1378 14.696 84.4978 15.584 84.4978 16.736C84.4978 18.224 83.7778 19.448 82.5778 20.36C81.9778 20.792 81.3058 21.104 80.6098 21.296C80.6578 22.04 80.6578 23.696 80.6578 24.056V24.08H83.8498C84.3778 24.08 84.8098 24.176 85.1218 24.368C85.8418 24.8 85.8178 25.976 85.5058 26.552C85.2178 27.056 84.5938 27.104 84.0898 27.104H74.6098C74.5858 27.104 73.7698 27.032 73.3378 26.84C73.0258 26.672 72.7858 26.312 72.7138 25.856C72.6418 25.352 72.8098 24.872 73.1218 24.584C73.6978 24.104 74.3458 24.032 74.8978 24.032ZM90.8098 17.576H90.8578C91.0258 17.552 91.1698 17.6 91.3138 17.6C91.5058 17.624 91.6738 17.648 91.8658 17.672C92.2258 17.744 92.6098 17.888 92.8018 18.248C92.8978 18.44 92.9458 18.656 92.9458 18.896C92.9458 19.112 92.9458 19.352 92.8978 19.568C92.8258 19.808 92.7538 20.144 92.5618 20.312C92.3698 20.456 92.1298 20.576 91.8898 20.624C91.3858 20.696 90.5218 20.624 90.0178 20.648C89.9698 20.672 89.9458 20.672 89.9458 20.672C89.9458 20.672 89.9458 20.696 89.9218 20.768C89.8978 21.56 89.9218 22.256 89.9218 23.072C89.9458 23.888 89.9458 24.728 89.9218 25.52V25.856C89.9218 26.696 89.9458 27.92 89.3698 28.52C89.1538 28.712 88.8898 28.832 88.5778 28.832H88.5298C86.9698 28.76 86.8258 26.888 86.8258 25.88V11.624C86.8258 11.576 86.7778 10.376 87.3058 9.848C87.5458 9.632 88.0498 9.512 88.3858 9.512C88.7458 9.512 89.0818 9.656 89.2978 9.872C89.7058 10.328 89.7538 10.832 89.7778 11.36C89.8018 11.456 89.8018 11.552 89.8258 11.672C89.8738 12.176 89.8738 12.776 89.8978 13.352C89.8978 13.712 89.9218 14.048 89.9218 14.384V16.976C89.9218 17.144 89.9218 17.336 89.9698 17.504C89.9698 17.528 90.4498 17.528 90.4978 17.552C90.5938 17.552 90.7138 17.576 90.8098 17.576ZM79.5778 18.656C80.6098 18.464 81.4978 17.96 81.4978 16.736C81.4978 15.32 80.3218 14.792 79.1458 14.768C77.9458 14.72 76.7458 15.224 76.7458 16.736C76.7458 18.464 78.2578 18.92 79.5778 18.656Z" fill="#FFE743"/>
<path d="M109.424 15.848V12.656C109.424 12.008 109.424 10.064 110.936 10.064C111.248 10.064 111.584 10.16 111.824 10.328C112.592 10.832 112.568 13.256 112.52 14.288V23.096C112.52 23.288 112.544 25.76 112.016 26.72C111.92 26.936 111.656 27.224 111.56 27.32C111.08 27.8 110.192 27.848 109.976 27.872H104.936C104.168 27.872 103.472 27.8 102.896 27.344C102.056 26.72 102.152 25.184 102.152 24.968V12.416C102.152 11.504 102.56 10.112 103.688 10.112C104.504 10.112 105.008 10.448 105.248 11.144C105.392 11.576 105.416 12.056 105.44 12.488V12.536C105.44 12.992 105.44 16.592 105.464 17.36C105.776 17.36 108.56 17.408 109.376 17.24L109.424 15.848ZM118.712 26.744C118.664 27.128 118.64 27.488 118.52 27.872C118.472 27.992 118.424 28.088 118.376 28.208C118.28 28.4 118.136 28.592 117.944 28.736C117.584 28.952 117.128 29 116.72 28.904C116.48 28.856 116.264 28.76 116.096 28.616C115.52 28.088 115.544 26.84 115.544 26.792V12.248C115.52 11.504 115.544 10.304 116 9.872C116.336 9.536 116.744 9.488 117.176 9.488C117.728 9.488 118.232 9.824 118.424 10.352C118.712 11.024 118.688 11.768 118.712 12.512V12.632C118.784 15.08 118.712 17.792 118.712 20.096V25.88C118.712 26.168 118.736 26.456 118.712 26.744ZM105.248 24.968L109.424 24.944L109.4 20.264L105.248 20.288C105.224 20.96 105.248 21.824 105.248 22.496C105.272 22.976 105.248 24.512 105.248 24.968ZM137.479 24.224C137.575 24.248 137.671 24.224 137.767 24.224C138.295 24.272 138.775 24.392 139.207 24.8C139.423 24.992 139.543 25.28 139.543 25.616C139.543 25.952 139.423 26.432 139.231 26.648C138.751 27.152 137.551 27.104 137.503 27.104H124.543C124.399 27.104 124.231 27.128 124.087 27.128C123.391 27.152 122.551 27.2 121.999 26.744C121.687 26.456 121.495 26.096 121.495 25.712C121.495 25.232 121.807 24.632 122.287 24.44C122.935 24.2 123.151 24.248 123.967 24.224H124.663C124.639 24.008 124.639 23.864 124.639 23.864V20.12C124.639 20.12 124.639 19.328 125.287 18.848C126.103 18.248 127.519 18.632 127.591 19.736C127.615 20.288 127.639 22.496 127.663 24.2C128.359 24.2 129.031 24.224 129.703 24.224C129.679 24.008 129.679 23.864 129.679 23.864V20.12C129.679 20.12 129.679 19.328 130.327 18.848C131.143 18.248 132.559 18.632 132.631 19.736C132.655 20.288 132.679 22.496 132.703 24.224C133.519 24.2 134.767 24.2 135.847 24.224C136.423 24.248 136.975 24.176 137.479 24.224ZM124.303 13.688C123.751 13.688 122.959 13.616 122.575 13.04C122.359 12.656 122.287 12.128 122.407 11.696C122.527 11.264 122.863 10.904 123.295 10.712C123.487 10.64 123.679 10.568 123.895 10.52C124.495 10.376 124.807 10.376 125.431 10.352C125.719 10.352 125.815 10.352 126.079 10.328C126.319 10.328 126.343 10.304 126.631 10.304C127.159 10.304 132.247 10.328 132.751 10.352C133.231 10.376 133.759 10.376 134.263 10.376C134.839 10.376 135.391 10.4 135.967 10.472C136.231 10.52 136.519 10.544 136.759 10.688C137.455 11.072 137.503 12.272 137.527 12.968C137.527 13.4 137.551 13.832 137.551 14.264C137.575 14.864 137.575 15.776 137.551 16.376C137.527 17.672 137.503 18.944 137.503 20.24C137.503 20.744 137.431 21.272 137.119 21.704C136.783 22.16 136.231 22.328 135.679 22.184C134.431 21.872 134.551 20.432 134.431 19.4C134.335 18.728 134.287 18.08 134.287 17.432C134.311 16.712 134.215 15.728 134.215 15.032C134.215 14.48 134.239 13.952 133.783 13.688C133.591 13.592 133.327 13.616 132.991 13.616H132.487C132.319 13.64 132.151 13.616 132.007 13.616H129.463C128.839 13.616 128.431 13.688 127.807 13.688C127.159 13.688 126.751 13.664 126.103 13.712C125.839 13.736 125.767 13.688 125.503 13.688H124.303Z" fill="#2CBFAF"/>
</svg>
