<svg width="34" height="34" viewBox="0 0 34 34" fill="none" xmlns="http://www.w3.org/2000/svg">
<path d="M22.8745 7.944L21.6525 10.7C20.4825 10.024 19.2085 9.66 17.6745 9.66C15.7505 9.66 13.9825 10.908 13.7485 14.912C14.6585 13.846 16.3485 13.274 17.9605 13.274C21.6005 13.274 23.8105 15.666 23.8105 19.306V19.826C23.8105 23.31 21.3145 25.962 17.1545 25.962C12.3705 25.962 10.4465 22.842 10.4465 18.032V16.836C10.4465 8.568 13.8005 6.644 17.8825 6.644C19.5725 6.644 21.4705 7.008 22.8745 7.944ZM13.8005 19.332V19.722C13.8005 21.75 14.9445 22.946 17.0765 22.946C19.3645 22.946 20.5345 21.776 20.5345 19.696V19.41C20.5345 17.226 19.4945 16.186 17.2065 16.186C14.8145 16.186 13.8005 17.616 13.8005 19.332Z" fill="white"/>
</svg>
