<svg width="40" height="40" viewBox="0 0 40 40" fill="none" xmlns="http://www.w3.org/2000/svg">
<path d="M38.6916 34.6083C39.428 35.6033 38.7671 37 37.5396 37H18.8256C9.5347 37 2 29.3849 2 20.0096C2 10.6342 9.5347 3 18.8256 3C28.1165 3 35.6512 10.6151 35.6512 20.0096C35.2169 28.0264 36.9731 32.3315 38.6916 34.6083Z" fill="#EF897E"/>
<path d="M22.8811 9.64C23.0011 9.82 23.1211 10.15 23.1511 10.48C23.3311 11.86 23.2711 13.36 23.3011 14.77C23.3011 16.39 23.3311 18.01 23.3311 19.63V22.18H24.6211C25.4911 22.18 26.6611 22.57 26.7211 23.62C26.7211 24.88 25.7911 25.27 24.6811 25.33C24.5611 25.33 23.3911 25.42 23.3311 25.3V27.34C23.3311 28.21 23.4211 29.68 22.5511 30.25C22.1911 30.49 21.1711 30.52 20.7211 30.4C20.0011 30.16 19.8811 29.2 19.8211 28.54C19.7911 28.27 19.8811 25.45 19.7011 25.45H14.4211C13.2811 25.45 11.8411 25.57 10.9411 24.88C9.53105 23.8 10.7011 22.21 11.5111 21.16C13.0411 19.12 14.4211 16.96 15.8611 14.89C16.6411 13.81 17.5711 12.85 18.3211 11.77C18.8911 10.93 19.4911 9.94 20.4811 9.46C21.4411 9.01 22.4011 8.95 22.8811 9.64ZM19.9111 22.06V15.04L14.9311 22.06H19.9111Z" fill="#1E1E1E"/>
</svg>
