<svg width="764" height="49" viewBox="0 0 764 49" fill="none" xmlns="http://www.w3.org/2000/svg">
<rect width="351" height="49" rx="8" fill="#E4F2FC"/>
<path d="M13.5347 19.3784C14.3019 19 15.4038 18.3832 16.1943 17.9904C16.474 17.8177 16.7686 17.6676 17.0865 17.5031C15.806 17.8494 14.4789 18.2244 13.2134 18.5932C11.8332 18.9375 11.4911 16.9278 12.9203 16.807C14.0718 16.7624 15.2615 16.726 16.4364 16.667C15.2888 16.5188 14.1031 16.3624 12.9471 16.2511C11.5323 16.0457 12.0491 14.0451 13.4049 14.509C14.5465 14.9465 15.7114 15.3695 16.8763 15.7926C16.664 15.6698 16.4751 15.5327 16.2628 15.4099C15.5051 14.9575 14.4523 14.3066 13.6861 13.8912C12.4975 13.1338 13.8037 11.5342 14.8506 12.4743C15.7001 13.3142 16.6026 14.1848 17.5051 15.0554C16.8357 14.0409 16.1047 13.0327 15.4035 12.0695C14.6448 10.9198 16.5204 9.98404 17.0545 11.2407C17.3525 12.0403 17.774 13.1762 18.0953 13.9614C18.1612 14.111 18.2272 14.2607 18.2698 14.4247C18.0626 13.3153 17.8404 12.1833 17.6099 11.0882C17.4002 9.7265 19.5123 9.59658 19.4611 10.9607C19.3902 11.7977 19.3346 13.0059 19.2785 13.8655C19.2641 14.1916 19.2498 14.5178 19.2354 14.844C19.3261 14.5341 19.4169 14.2243 19.531 13.9C19.7779 13.0813 20.1008 11.9301 20.3329 11.0888C20.751 9.78369 22.699 10.5483 22.0602 11.7676C21.1779 13.2641 20.3021 14.82 19.4495 16.3616C21.4599 17.8174 23.2903 19.4478 24.9193 21.1708C24.4492 20.1601 23.9875 19.1125 23.509 18.1388C22.9601 16.8596 24.9824 16.2457 25.2918 17.6094C25.4842 18.6963 25.7063 19.8282 25.9518 20.9458C25.9473 20.79 25.9513 20.5971 25.9468 20.4412C25.9414 19.5879 25.9355 18.3859 25.8919 17.5245C25.9048 16.1522 28.0174 16.371 27.7521 17.7087C27.4505 18.9419 27.1554 20.2346 26.8836 21.5128C27.4673 20.3593 28.0446 19.1463 28.5901 17.9846C29.2289 16.7653 31.0246 17.846 30.1736 18.9425C29.0027 20.2999 27.8298 21.7536 26.7119 23.1417C28.4262 25.1928 29.8713 27.2831 31.0723 29.302C31.0529 29.1236 31.0103 28.9596 30.991 28.7811C30.8392 27.9547 30.634 26.7488 30.4823 25.9224C30.2725 24.5606 32.3995 24.4533 32.3633 25.8399C32.2715 26.9436 32.1713 28.0842 32.1092 29.233C32.4004 28.1332 32.6766 27.0108 32.9445 25.9253C33.3244 24.6121 35.304 25.3254 34.6801 26.5672C34.2507 27.3082 33.6838 28.3879 33.2925 29.1371L32.8293 30.0259C33.0495 29.763 33.2845 29.5227 33.4814 29.2743C34.0552 28.6028 34.8641 27.691 35.4146 27.0339C36.3484 26.0132 37.8138 27.4882 36.6761 28.3491C35.2057 29.352 33.7333 30.4514 32.3075 31.5219C33.7406 34.1907 34.6728 36.5977 35.1905 38.2769C35.2545 38.523 35.1573 38.7734 34.9708 38.8885C34.9242 38.9173 34.8776 38.946 34.831 38.9748C34.5299 39.0655 34.2264 38.9038 34.1327 38.6127C33.6448 36.9785 32.7488 34.6761 31.3603 32.0749C29.6008 32.59 27.7713 33.1482 26.0416 33.7084C24.6763 34.0753 24.2727 32.0718 25.6871 31.9284C27.0082 31.8426 28.3526 31.7424 29.697 31.6422C28.3586 31.4532 27.0052 31.2416 25.7198 31.0833C24.3134 30.841 24.8833 28.8711 26.2158 29.3494C27.281 29.7705 28.3844 30.1998 29.4878 30.6292C28.5029 30.0315 27.4799 29.4257 26.4866 28.8649C25.2979 28.1075 26.6042 26.5079 27.651 27.4481C28.2521 28.0606 29.1397 28.9086 29.7641 29.5068C29.8766 29.6277 29.9976 29.7116 30.1102 29.8325C28.9687 27.9038 27.545 25.8954 25.9284 23.9427C25.2291 24.3744 24.5299 24.806 23.839 25.2008C23.0932 25.6612 22.0443 26.3087 21.2984 26.7691C20.0948 27.4804 19.1358 25.6294 20.4882 25.1436C21.7389 24.7522 23.0213 24.3095 24.3038 23.8669C22.9509 24.004 21.598 24.1411 20.2983 24.309C18.869 24.4298 18.8959 22.3826 20.3127 22.4916C21.1845 22.6197 22.4169 22.7473 23.2887 22.8754C23.4647 22.8936 23.6408 22.9119 23.8168 22.9301C22.6966 22.5746 21.5679 22.2561 20.4541 21.9601C19.1131 21.5188 19.9419 19.6429 21.194 20.2977C21.9369 20.7275 23.0363 21.3496 23.7792 21.7794C23.9383 21.8715 24.1208 21.9492 24.2949 22.0639C22.6808 20.3634 20.8886 18.7412 18.9164 17.2935C17.5268 18.4686 16.0822 19.7094 14.7456 20.9152C13.661 21.8069 12.4372 20.1511 13.6557 19.4623" fill="#F3C574"/>
<path d="M37.2467 18.5741C38.4512 18.5602 39.6325 18.5607 40.852 18.5694C39.6618 18.2571 38.4632 17.9818 37.2943 17.7515C36.0109 17.4968 36.5575 15.5412 37.7585 16.0689C38.6859 16.48 39.6514 16.8992 40.5852 17.3698C39.7466 16.7453 38.8848 16.1351 38.0145 15.5619C36.8873 14.7983 38.0939 13.1967 39.0708 14.1801C39.8588 15.0262 40.6701 15.8579 41.4347 16.7185C40.8417 15.7203 40.2337 14.6996 39.5707 13.7446C38.7971 12.5723 40.5581 11.6121 41.1135 12.9508C41.5583 14.0722 41.9649 15.1855 42.3715 16.2988C42.196 15.138 42.0056 13.9547 41.7537 12.7777C41.4761 11.3627 43.5247 11.3354 43.5182 12.7672C43.4879 13.8646 43.4576 14.962 43.3891 16.0513C43.6485 15.0028 43.8846 13.9687 44.0677 12.9039C44.3648 11.5148 46.3171 12.4353 45.7845 13.716C45.2474 14.8408 44.7251 15.9881 44.135 17.0821C44.9438 16.1703 45.7294 15.2729 46.4936 14.2935C47.3511 13.2565 48.8085 15.1172 47.7492 15.898C46.3105 16.8496 44.8867 17.8237 43.4481 18.7753C44.4056 21.0714 45.3423 23.6342 46.0945 26.2157C46.1183 25.0588 46.104 23.8937 46.0515 22.7205C46.0198 21.2806 48.0242 21.5344 47.81 22.9992C47.6036 24.0784 47.4122 25.1802 47.1676 26.2513C47.5947 25.2579 47.9835 24.2564 48.3426 23.2098C48.8455 21.8841 50.654 23.0838 49.9007 24.2785C49.1811 25.3256 48.4997 26.3808 47.7503 27.3828C48.6866 26.6144 49.608 25.8235 50.523 24.9731C50.8831 24.6239 51.4643 24.7093 51.7851 25.1458C52.1655 25.6725 52.0182 26.4932 51.5222 26.7359C49.9581 27.4476 48.4004 28.2188 46.8511 28.9531C46.8045 28.9819 47.7927 33.5118 47.9038 34.0778C47.9509 34.3977 48.0744 34.7339 48.0367 35.0745C48.0009 35.3186 47.8804 35.5834 47.573 35.6146C47.1425 35.6582 46.9531 35.1723 46.9293 34.838C46.7344 33.4988 45.895 29.1944 45.8335 29.2006C44.0988 29.2562 42.3706 29.3712 40.6339 29.5232C39.3212 29.5721 39.3694 27.607 40.6548 27.7653C41.832 27.9586 43.0178 28.115 44.2184 28.294C43.1085 27.8052 41.9521 27.3452 40.8403 26.9528C39.6223 26.499 40.4659 24.6456 41.5867 25.3498C42.4421 25.9005 43.3124 26.4737 44.1743 27.0838C43.4458 26.3279 42.694 25.5863 41.9254 24.9186C40.94 23.9722 42.3802 22.5755 43.2004 23.719C43.8252 24.6659 44.5115 25.6065 45.1279 26.5903C44.3757 24.0088 43.4539 21.4685 42.4964 19.1724C40.8023 19.4884 39.0999 19.8414 37.4271 20.2395C36.1487 20.4893 35.8661 18.5697 37.1787 18.5209" fill="#F3C574"/>
<path d="M63.04 21.28C62.96 21.28 62.92 21.24 62.92 21.2C62.4 20.8 62.24 19.8 62.24 19.2C62.2 18.24 62.08 17.28 62.08 16.36C62.08 15 62.04 13.36 62.28 12.04C62.44 11.2 62.76 10.72 63.56 10.4C64.28 10.12 65.04 10.04 65.8 9.96C66.72 9.88 67.68 9.96 68.64 9.96H76.24C78.96 9.96 78.6 9.96 81.28 9.92C81.76 9.92 82.2 9.92 82.68 9.96C83.68 10 84.8 10.04 85.72 10.48C86.76 10.92 87.08 12.04 87.12 13.08C87.2 14.28 87.08 15.8 87.08 17C87.04 18.08 87.08 19.16 86.8 20.2C86.64 20.8 86.52 21.28 85.88 21.48C85.32 21.68 84.6 21.72 84.04 21.72H66.76C66.24 21.72 65.72 21.68 65.2 21.64C64.52 21.6 63.64 21.68 63.04 21.28ZM85.24 28.92C82.6 29 80.52 29.08 77.84 29.08C77.8 30.2 77.72 31.24 77.72 32.76C77.48 33.88 76 34.56 74.92 34.52C73.32 34.44 72.44 33.8 72.28 32.2C72.16 31.16 72.32 30.04 72.32 29C69.88 29 63.48 28.92 61.24 28.76C60.4 28.68 60 28.64 59.32 28C58.96 27.68 58.8 27.08 58.8 26.52C58.8 26 59 25.48 59.32 25.16C60.12 24.32 62.08 24.36 62.16 24.36H85.04C85.84 24.36 86.64 24.36 87.4 24.4C88.12 24.44 88.92 24.56 89.48 25.08C90.04 25.52 90.04 26.04 90.04 26.68C90.04 27.48 89.56 28.16 88.76 28.44C87.68 28.84 86.36 28.88 85.24 28.92ZM86.36 36.48C86.44 36.52 87.92 36.88 88.08 38C88.24 39 88.08 39.8 87.6 40.36C87 41.12 86.12 41.16 86.08 41.16H64.24C62.2 41.16 60.96 40.44 60.96 39.24V35.68C60.92 35.08 60.92 34.48 60.96 33.88C61.04 32.76 61.88 32 63 32C63.28 32 63.84 32.04 64.08 32.12C65.44 32.56 65.52 33.92 65.6 35.12C65.6 35.56 65.64 36.04 65.76 36.4C65.88 36.44 66.68 36.56 68.56 36.56C70.16 36.56 71.64 36.48 71.68 36.48H86.36ZM66.84 16.6C66.84 16.84 66.84 17.12 66.96 17.24C67.2 17.44 68.12 17.32 68.12 17.32H78.64C78.64 17.32 80.56 17.48 81.52 17.36C82.08 17.32 82.08 17.08 82.16 16.6C82.2 16.16 82.28 15.24 81.96 14.84C81.6 14.4 80.76 14.48 80.28 14.52H76.64C76.28 14.48 71.44 14.52 71.08 14.52C69.96 14.44 68.84 14.48 67.68 14.52C67.2 14.52 67.04 14.44 66.92 14.92C66.84 15.28 66.84 15.92 66.84 16.24V16.6ZM95.2516 33.72C95.4516 33.64 99.1316 33.8 99.8116 33.8C99.8516 33.16 99.9316 30.52 100.012 29.2C99.5316 29.08 99.0916 28.96 98.6516 28.76C95.6516 27.52 93.3316 25.08 93.3316 21.56C93.3316 19.64 93.8916 18.16 94.8116 17H94.3716C93.0916 17 92.0116 16.04 92.0116 14.88C92.0116 13.68 93.0916 12.72 94.3716 12.72H99.6516V11.08C99.6516 10.04 100.692 9.28 101.972 9.28C103.292 9.28 104.332 10.04 104.332 11.08V12.72H109.852C111.172 12.72 112.252 13.68 112.252 14.88C112.252 16.04 111.172 17 109.852 17H109.732C110.652 18.16 111.252 19.64 111.252 21.56C111.252 24.04 110.052 26.08 108.052 27.6C107.052 28.32 105.932 28.84 104.772 29.16C104.852 30.4 104.852 33.16 104.852 33.76V33.8H110.172C111.052 33.8 111.772 33.96 112.292 34.28C113.492 35 113.452 36.96 112.932 37.92C112.452 38.76 111.412 38.84 110.572 38.84H94.7716C94.7316 38.84 93.3716 38.72 92.6516 38.4C92.1316 38.12 91.7316 37.52 91.6116 36.76C91.4916 35.92 91.7716 35.12 92.2916 34.64C93.2516 33.84 94.3316 33.72 95.2516 33.72ZM121.772 22.96H121.852C122.132 22.92 122.372 23 122.612 23C122.932 23.04 123.212 23.08 123.532 23.12C124.132 23.24 124.772 23.48 125.092 24.08C125.252 24.4 125.332 24.76 125.332 25.16C125.332 25.52 125.332 25.92 125.252 26.28C125.132 26.68 125.012 27.24 124.692 27.52C124.372 27.76 123.972 27.96 123.572 28.04C122.732 28.16 121.292 28.04 120.452 28.08C120.372 28.12 120.332 28.12 120.332 28.12C120.332 28.12 120.332 28.16 120.292 28.28C120.252 29.6 120.292 30.76 120.292 32.12C120.332 33.48 120.332 34.88 120.292 36.2V36.76C120.292 38.16 120.332 40.2 119.372 41.2C119.012 41.52 118.572 41.72 118.052 41.72H117.972C115.372 41.6 115.132 38.48 115.132 36.8V13.04C115.132 12.96 115.052 10.96 115.932 10.08C116.332 9.72 117.172 9.52 117.732 9.52C118.332 9.52 118.892 9.76 119.252 10.12C119.932 10.88 120.012 11.72 120.052 12.6C120.092 12.76 120.092 12.92 120.132 13.12C120.212 13.96 120.212 14.96 120.252 15.92C120.252 16.52 120.292 17.08 120.292 17.64V21.96C120.292 22.24 120.292 22.56 120.372 22.84C120.372 22.88 121.172 22.88 121.252 22.92C121.412 22.92 121.612 22.96 121.772 22.96ZM103.052 24.76C104.772 24.44 106.252 23.6 106.252 21.56C106.252 19.2 104.292 18.32 102.332 18.28C100.332 18.2 98.3316 19.04 98.3316 21.56C98.3316 24.44 100.852 25.2 103.052 24.76ZM162.553 38.44C163.393 38.52 164.113 38.8 164.353 39.64C164.673 40.6 164.313 41.28 163.313 41.68C162.673 41.92 161.993 41.96 161.433 41.96H142.833C141.753 41.96 140.593 41.92 139.433 41.88C138.313 41.84 137.513 41 137.393 39.8L137.273 37C137.233 36.44 137.193 35.48 137.673 34.96C138.393 34.16 139.833 34.04 140.993 34.04C142.513 34.04 147.593 34.08 159.793 34.08V32.64H140.113C139.593 32.64 139.153 32.64 138.753 32.56C138.273 32.44 137.873 32.44 137.633 32C137.273 31.44 137.153 30.92 137.353 30.28C137.633 29.44 138.833 29.32 139.433 29.24C139.833 29.16 140.233 29.12 140.673 29.12C143.073 29.12 145.873 29.16 160.193 29.16C162.873 29.16 164.393 29.96 164.393 31.8V34.64C164.393 35.36 164.073 36.16 163.233 36.64C162.553 37.04 161.833 37 161.153 37H142.193V38.44H162.553ZM137.633 15.2C137.553 13.88 137.353 12.48 137.793 11.32C138.393 9.88 139.913 9.64 141.233 9.64H159.873C160.953 9.64 161.873 9.68 162.913 10.08C163.753 10.44 164.273 11.28 164.233 12.2C164.153 13.12 163.593 13.84 162.713 14.04C162.233 14.16 161.513 14.24 160.553 14.24C159.873 14.24 159.393 14.2 159.353 14.2H147.793C146.993 14.2 146.193 14.24 145.393 14.2C144.753 14.16 144.073 13.96 143.473 14.16C142.873 14.32 142.913 15 143.073 15.68C143.833 15.8 144.593 15.8 145.353 15.84H152.953C153.433 15.88 156.593 15.88 156.993 15.84C157.313 15.8 159.513 15.8 159.833 15.8C161.073 15.8 162.153 16 162.993 16.4C163.513 16.68 163.873 16.88 163.993 17.52C164.153 18.16 164.033 18.84 163.633 19.32C162.873 20.32 161.913 20.36 160.793 20.4C159.753 20.44 153.873 20.48 152.233 20.48C150.553 20.48 147.153 20.44 145.593 20.44C143.833 20.4 142.073 20.32 140.313 20.32C137.713 20.32 137.713 18.56 137.713 16.32C137.713 15.96 137.673 15.56 137.633 15.2ZM138.993 22.64C139.793 22.56 141.553 22.56 141.553 22.56H150.353C150.353 22.56 157.753 22.48 161.353 22.56H161.553C162.633 22.6 163.713 22.52 164.753 22.92C165.513 23.2 165.993 23.88 165.993 24.68C165.993 25.32 165.713 25.92 165.193 26.36C164.353 27.12 162.993 27.08 161.913 27H138.953C138.873 27 136.993 27.04 136.233 26.2C135.913 25.88 135.753 25.36 135.753 24.84C135.753 24.28 135.953 23.8 136.273 23.48C136.953 22.8 137.713 22.76 138.513 22.68C138.673 22.68 138.833 22.64 138.993 22.64ZM191.589 14.52C191.629 13.16 191.589 11.04 192.549 10.08C192.909 9.72 193.349 9.56 193.829 9.56H193.909C196.549 9.68 196.789 12.8 196.789 14.48V38.2C196.789 38.28 196.869 40.32 195.949 41.16C195.589 41.52 194.749 41.76 194.189 41.76C193.589 41.76 193.029 41.52 192.669 41.12C191.989 40.36 191.869 39.68 191.789 38.8C191.789 37.88 191.709 34.68 191.749 33.2H189.269C188.069 33.2 187.429 32.8 187.149 32.2C186.989 31.88 186.829 31.52 186.829 31.16C186.829 30.8 186.829 30.56 186.909 30.2C187.029 29.8 187.149 29.24 187.469 28.96C187.789 28.72 188.189 28.52 188.589 28.44C189.429 28.28 190.749 28.32 191.629 28.2C191.629 27.4 191.629 24.92 191.589 23.16L189.189 23.08C188.189 23.04 187.309 22.88 187.029 22.28C186.869 21.96 186.749 21.56 186.749 21.2C186.749 20.84 186.749 20.6 186.829 20.24C186.949 19.84 187.069 19.36 187.389 19.08C187.709 18.84 188.109 18.64 188.509 18.56C189.109 18.44 190.149 18.44 191.549 18.36C191.549 16.6 191.549 15.04 191.589 14.52ZM177.029 9.56C177.709 9.56 178.349 9.64 178.989 9.72C179.989 9.88 180.909 10.36 181.669 11.12C184.269 13.84 184.829 18.52 184.989 22.32C185.109 24.76 185.069 27.24 184.789 29.64C184.509 32.12 184.149 34.8 182.829 36.84C181.709 38.56 179.949 39.68 178.149 40.04C176.509 40.36 174.709 40.16 173.189 39.28C171.749 38.44 170.789 37.12 170.069 35.44C169.549 34.2 169.229 32.84 169.149 31.48C168.949 29.24 168.869 27 168.869 24.76C168.869 23.24 168.869 21.76 169.029 20.28C169.109 19.08 169.309 17.84 169.509 16.68C169.709 15.72 169.829 14.88 170.229 14C170.629 13.12 171.149 12.28 171.829 11.64C172.989 10.48 174.509 9.84 176.029 9.64C176.349 9.6 176.709 9.6 177.029 9.56ZM176.909 34.72C177.389 34.72 177.909 34.56 178.389 34.24C179.269 33.6 179.589 32.48 179.829 31.2C180.269 28.76 180.229 25.8 180.149 23.28C180.109 21.24 180.069 18.6 179.109 16.96C178.589 16.08 177.789 15.52 176.949 15.64C176.069 15.72 175.269 16.28 174.789 17.32L174.429 18.16C174.109 19.16 173.949 20.28 173.869 21.36C173.789 22.44 173.709 23.56 173.709 24.64C173.749 25.72 173.629 26.72 173.709 27.76C173.909 30.52 174.269 34.68 176.909 34.72ZM216.772 34.8C218.332 34.8 219.772 35.16 219.972 36.88C220.172 38.6 218.412 39.64 216.972 39.72C215.852 39.76 210.492 39.72 207.892 39.72H207.572C206.372 39.68 204.972 39.68 203.772 39.32C202.932 39.08 202.092 38.32 201.692 37.4C201.172 36.24 201.292 33.76 201.292 33.64V16.64C201.252 16.36 200.972 13.52 201.772 12.2C202.452 11.08 205.492 11.04 205.772 11.04H215.132C215.292 11.04 218.652 10.92 219.172 12.6C219.372 13.2 219.332 14.64 219.092 15.08C218.892 15.44 218.532 15.68 218.092 15.8C217.612 15.92 216.852 16 215.812 16C215.132 16 214.612 15.96 209.692 15.96C208.972 15.96 208.052 16 207.692 16.16C206.932 16.48 206.972 18.24 207.052 18.84V18.88L207.212 32.72C207.212 33.76 207.612 34.52 208.852 34.52C209.132 34.56 213.252 34.8 216.772 34.8ZM227.412 21.88L230.572 22.16C231.532 22.36 232.372 23 232.372 24.16C232.372 24.56 232.372 24.92 232.252 25.32C232.092 26.2 231.612 26.96 230.612 26.96L227.332 27C227.252 29.76 227.332 34 227.332 37.32C227.332 38.72 227.292 41.68 224.932 41.84C222.332 42 222.132 39.44 222.132 37.76V13.2C222.132 13.12 222.092 11.12 222.972 10.24C223.332 9.88 224.172 9.68 224.772 9.68C225.372 9.68 225.892 9.92 226.252 10.28C226.972 11.04 227.012 11.88 227.092 12.76C227.332 15.68 227.412 18.84 227.412 21.88ZM260.615 34.52C260.775 34.56 260.935 34.52 261.095 34.52C261.975 34.6 262.775 34.8 263.495 35.44C263.855 35.8 264.055 36.28 264.055 36.84C264.055 37.4 263.855 38.2 263.535 38.56C262.695 39.4 260.735 39.32 260.655 39.32H238.255C238.015 39.32 237.735 39.36 237.455 39.36C236.335 39.4 234.895 39.48 234.015 38.72C233.495 38.24 233.175 37.64 233.175 37C233.175 36.2 233.695 35.2 234.495 34.88C235.575 34.48 236.735 34.56 237.895 34.52H238.095C240.375 34.48 242.855 34.48 245.255 34.52L245.215 29C243.175 29.04 241.495 29.04 240.535 28.96C239.415 28.92 237.935 28.88 237.015 28.2C235.815 27.28 235.775 24.36 235.775 24.24V15.64C235.775 14.6 235.615 13.48 235.815 12.44C236.095 11.2 237.615 10.88 238.815 10.8C239.735 10.76 241.095 11 241.295 12.08C241.375 12.56 241.215 15.6 241.415 16.04C241.535 16.32 242.095 16.36 242.375 16.4C243.615 16.48 244.015 16.36 245.255 16.36L254.415 16.4C254.975 16.44 255.415 16.44 255.575 15.88C255.615 15.32 255.615 12.96 255.655 12.52C255.695 11.56 255.975 11 256.975 10.8C258.015 10.56 259.495 10.64 260.095 11.24C260.935 12.12 260.895 13.16 260.895 15.24C260.815 17.68 261.015 23.56 260.775 26C260.655 27.56 259.775 28.56 258.255 28.8C257.455 28.92 256.375 28.88 255.575 28.88C253.855 28.92 252.215 28.92 250.615 28.92L250.695 34.52C253.415 34.52 255.295 34.44 257.895 34.52C258.855 34.56 259.775 34.44 260.615 34.52ZM241.415 23.84C241.615 24.64 242.775 24.64 243.655 24.68C244.055 24.64 252.175 24.56 252.655 24.64C253.095 24.68 253.535 24.64 253.975 24.68C254.535 24.72 255.495 24.92 255.495 24.04C255.495 23.64 255.575 22 255.375 21.24C255.215 20.6 254.855 20.64 254.335 20.68C254.095 20.68 253.335 20.72 253.095 20.68H243.975C242.975 20.64 241.495 20.44 241.375 21.68C241.375 21.96 241.375 23.64 241.415 23.84ZM295.356 38.72C295.276 39.36 295.236 39.96 295.036 40.6C294.956 40.8 294.876 40.96 294.796 41.16C294.636 41.48 294.396 41.8 294.076 42.04C293.476 42.4 292.716 42.48 292.036 42.32C291.636 42.24 291.276 42.08 290.996 41.84C290.036 40.96 290.076 38.88 290.076 38.8V14.08C290.036 12.84 290.076 10.84 290.836 10.12C291.396 9.56 292.076 9.48 292.796 9.48C293.716 9.48 294.556 10.04 294.876 10.92C295.356 12.04 295.316 13.28 295.356 14.52V14.72C295.476 18.8 295.356 23.32 295.356 27.16V37.28C295.356 37.76 295.396 38.24 295.356 38.72ZM276.476 34.8C276.436 34.16 276.436 33.52 276.436 32.88V20.16C276.436 19.32 276.436 18.44 276.356 17.56C276.316 17.28 276.276 16.68 275.996 16.56C275.716 16.4 275.356 16.48 275.036 16.44C274.676 16.4 274.316 16.48 273.956 16.44H272.076C271.196 16.48 270.236 16.4 269.356 16.44C268.956 16.48 268.596 16.44 268.196 16.44C267.596 16.44 266.916 16.44 266.396 16.08C265.636 15.56 265.436 14.68 265.436 13.84C265.396 13.32 265.516 12.8 265.756 12.32C265.876 12.04 266.036 11.8 266.276 11.64C266.556 11.36 267.156 11.16 267.516 11.08C268.636 10.8 269.916 10.84 271.076 10.84H278.036C278.716 10.92 279.556 11 280.196 11.24C280.596 11.4 281.076 11.68 281.316 12.04C281.796 12.8 281.796 13.52 281.876 14.4C281.996 15.88 281.956 17.36 281.956 18.84V31.96C281.956 32.08 282.036 35.4 281.956 37.08C281.876 38.16 281.636 39.48 280.236 40C279.756 40.2 279.276 40.28 278.876 40.28C278.196 40.28 277.396 40 277.116 39.4C276.716 38.6 276.476 37.6 276.476 36.56V34.8Z" fill="#475783"/>
<circle cx="322" cy="24.5" r="17" fill="#ACB7D6"/>
<path d="M315.264 30.68L322.154 23.582C324.338 21.346 324.468 20.358 324.468 19.292V19.084C324.468 18.07 323.714 17.108 321.79 17.108C320.438 17.108 319.06 17.55 317.838 19.734L315.342 18.096C316.226 16.484 317.968 14.144 321.764 14.144C326.002 14.144 327.822 16.38 327.822 18.954V19.214C327.822 21.242 326.86 23.114 325.118 24.856L319.606 30.42H328.524V33.176H315.264V30.68Z" fill="white"/>
<path d="M381.2 20.48C381.2 22.96 380.04 25.36 378 26.88C372.56 30.92 363.28 27.48 363.28 20.48C363.28 18.36 363.96 16.64 365.08 15.32H364.36C363.04 15.32 362 14.36 362 13.2C362 12 363.04 11.04 364.36 11.04H369.64V9.76C369.64 8.72 370.68 7.88 371.96 7.88C373.24 7.88 374.28 8.72 374.28 9.76V11.04H379.84C381.16 11.04 382.2 12 382.2 13.2C382.2 14.36 381.16 15.32 379.84 15.32H379.36C380.48 16.64 381.2 18.36 381.2 20.48ZM387.56 31.08C389.76 31.08 390.8 32.2 390.8 33.44V35.72C390.8 36.04 390.8 37.72 390.84 38C390.84 38.56 390.84 39.16 390.8 39.76C390.72 40.88 389.84 41.64 388.64 41.64C388.36 41.64 387.52 41.6 387.24 41.52C385.8 41.08 385.72 39.76 385.64 38.56C385.64 38.08 385.6 36.24 385.48 35.84C385.32 35.8 384.8 35.72 382.8 35.72C381.12 35.72 380.92 35.76 380.88 35.76H366.44C366.36 35.76 364.8 35.36 364.64 34.28C364.48 33.24 364.64 32.44 365.12 31.88C365.76 31.12 366.72 31.12 366.76 31.08H387.56ZM391.68 21.64H390.76V25.28C390.72 25.84 390.64 26.48 390.32 27.08C390.16 27.4 389.92 27.68 389.64 27.88C389.24 28.16 388.76 28.28 388.32 28.28C387.92 28.28 387.52 28.2 387.2 28C386.12 27.36 385.96 25.88 385.96 25.84V12.64C385.92 12.44 386 11.2 386.32 10.56C386.56 10.04 387.16 9.68 387.92 9.6C388.84 9.48 389.68 9.72 390.12 10.2C390.44 10.6 390.52 11 390.64 11.44C390.8 11.96 390.8 12.6 390.76 13.16V15.92C390.76 15.92 390.72 16.44 390.76 17.2C391.2 17.24 393.36 17.28 393.84 17.4C394.88 17.6 395.24 18.04 395.36 18.6C395.52 19.16 395.56 20.08 395.24 20.6C394.6 21.64 393.24 21.6 391.68 21.64ZM373.04 24.04C374.72 23.72 376.2 22.52 376.2 20.48C376.2 15.72 368.28 15.48 368.28 20.48C368.28 23.36 370.84 24.48 373.04 24.04ZM422.737 34.04C422.897 34.08 423.057 34.04 423.217 34.04C424.097 34.12 424.897 34.32 425.617 35C425.977 35.32 426.177 35.8 426.177 36.36C426.177 36.92 425.977 37.72 425.657 38.08C424.857 38.92 422.857 38.84 422.777 38.84H401.177C400.937 38.84 400.657 38.88 400.417 38.88C399.257 38.92 397.857 39 396.937 38.24C396.417 37.76 396.097 37.16 396.097 36.52C396.097 35.72 396.617 34.72 397.417 34.4C398.497 34 398.857 34.08 400.217 34.04H401.377C401.337 33.68 401.337 33.44 401.337 33.44V27.2C401.337 27.2 401.337 25.88 402.417 25.08C403.777 24.08 406.137 24.72 406.257 26.56C406.297 27.48 406.337 31.16 406.377 34C407.537 34 408.657 34.04 409.777 34.04C409.737 33.68 409.737 33.44 409.737 33.44V27.2C409.737 27.2 409.737 25.88 410.817 25.08C412.177 24.08 414.537 24.72 414.657 26.56C414.697 27.48 414.737 31.16 414.777 34.04C416.137 34 418.217 34 420.017 34.04C420.977 34.08 421.897 33.96 422.737 34.04ZM400.777 16.48C399.857 16.48 398.537 16.36 397.897 15.4C397.537 14.76 397.417 13.88 397.617 13.16C397.817 12.44 398.377 11.84 399.097 11.52C399.417 11.4 399.737 11.28 400.097 11.2C401.097 10.96 401.617 10.96 402.657 10.92C403.137 10.92 403.297 10.92 403.737 10.88C404.137 10.88 404.177 10.84 404.657 10.84C405.537 10.84 414.017 10.88 414.857 10.92C415.657 10.96 416.537 10.96 417.377 10.96C418.337 10.96 419.257 11 420.217 11.12C420.657 11.2 421.137 11.24 421.537 11.48C422.697 12.12 422.777 14.12 422.817 15.28C422.817 16 422.857 16.72 422.857 17.44C422.897 18.44 422.897 19.96 422.857 20.96C422.817 23.12 422.777 25.24 422.777 27.4C422.777 28.24 422.657 29.12 422.137 29.84C421.577 30.6 420.657 30.88 419.737 30.64C417.657 30.12 417.857 27.72 417.657 26C417.497 24.88 417.417 23.8 417.417 22.72C417.457 21.52 417.297 19.88 417.297 18.72C417.297 17.8 417.337 16.92 416.577 16.48C416.257 16.32 415.817 16.36 415.257 16.36H414.417C414.137 16.4 413.857 16.36 413.617 16.36H409.377C408.337 16.36 407.657 16.48 406.617 16.48C405.537 16.48 404.857 16.44 403.777 16.52C403.337 16.56 403.217 16.48 402.777 16.48H400.777ZM441.257 35.64C441.257 30.8 447.257 29.48 454.617 29.48C461.977 29.48 467.977 30.24 467.977 35.64C467.977 40.96 461.977 41.8 454.617 41.8C447.257 41.8 441.257 40.96 441.257 35.64ZM454.697 20.68C454.697 22.88 453.657 24.96 451.897 26.28C449.537 28.08 446.377 28.2 443.777 27.16C441.177 26.08 439.177 23.76 439.177 20.68C439.177 18.92 439.697 17.44 440.577 16.32H440.257C439.017 16.32 438.017 15.44 438.017 14.28C438.017 13.12 439.017 12.2 440.257 12.2H444.577V10.88C444.577 9.88 445.577 9.12 446.777 9.12C448.017 9.12 449.017 9.88 449.017 10.88V12.2H453.577C454.777 12.2 455.817 13.12 455.817 14.28C455.817 15.44 454.777 16.32 453.577 16.32H453.257C454.137 17.44 454.697 18.92 454.697 20.68ZM467.657 12.76V26.16C467.657 26.24 467.617 27.68 466.537 28.32C466.217 28.52 465.977 28.6 465.617 28.6C465.137 28.6 464.657 28.48 464.297 28.2C464.017 28 463.777 27.72 463.617 27.4C462.817 25.92 463.097 24 463.137 22.36V21.8C462.577 21.84 461.977 21.88 461.457 21.88H461.337V25.52C461.297 26.08 461.217 26.72 460.897 27.32C460.737 27.64 460.497 27.92 460.217 28.08C459.857 28.36 459.657 28.52 459.177 28.52C458.777 28.52 458.417 28.4 458.057 28.2C457.017 27.56 456.857 26.12 456.857 26.08V12.88C456.817 12.64 456.857 11.44 457.177 10.8C457.417 10.28 458.057 9.92 458.817 9.84C459.697 9.72 460.257 9.96 460.697 10.44C461.057 10.84 461.097 11.24 461.217 11.68C461.377 12.2 461.377 12.84 461.377 13.4C461.337 13.56 461.337 13.72 461.337 13.88V17.4C461.577 17.44 462.417 17.48 463.177 17.52V13.76V13.28C463.137 12.72 463.137 12.12 463.297 11.56C463.417 11.16 463.657 10.76 464.017 10.36C464.417 9.84 465.017 9.6 465.897 9.72C466.657 9.84 467.097 10.24 467.337 10.76C467.657 11.4 467.697 12.56 467.657 12.76ZM462.577 35.64C462.577 33.8 458.337 33.64 454.617 33.64C450.897 33.64 446.897 33.8 446.897 35.64C446.897 37.28 450.897 37.6 454.617 37.6C458.337 37.6 462.577 37.8 462.577 35.64ZM447.577 23.56C449.057 23.24 450.097 22.48 450.097 20.68C450.097 18.6 448.537 17.48 446.977 17.44C445.377 17.4 443.777 18.48 443.777 20.68C443.777 23.2 445.657 23.92 447.577 23.56ZM488.82 35.36C488.98 35.64 489.14 35.92 489.22 36.28C489.38 36.84 489.5 37.56 489.14 38.32C488.74 39.12 488.1 39.6 487.38 39.64H487.34C486.38 39.64 485.74 38.88 484.94 38C484.14 37.16 483.42 36.16 482.9 35.48C482.86 35.36 482.74 35.24 482.66 35.04C481.34 33 480.74 32.4 480.62 32.36C480.5 32.44 479.94 33.08 479.86 33.2C479.74 33.36 479.62 33.48 479.54 33.6C479.06 34.12 478.86 34.72 478.42 35.28C477.98 35.84 477.54 36.4 477.06 36.92C476.94 37.04 476.82 37.2 476.74 37.32C475.94 38.2 475.1 39.2 473.94 39.6C473.66 39.72 473.42 39.76 473.14 39.76C472.54 39.76 471.94 39.48 471.5 39.04C471.06 38.6 470.82 38 470.82 37.36C470.86 36.4 471.42 35.52 471.86 34.8L471.94 34.64C472.1 34.4 472.26 34.16 472.42 33.96C472.5 33.8 472.62 33.68 472.7 33.56C472.98 33.12 473.26 32.72 473.54 32.4C473.62 32.32 473.66 32.2 473.74 32.12C473.78 32.04 473.82 31.96 473.9 31.92L473.98 31.8C474.18 31.52 474.34 31.28 474.5 31.04C474.86 30.48 475.14 29.96 475.42 29.48C475.74 28.88 476.06 28.32 476.46 27.8C476.74 27.4 477.02 26.96 477.3 26.52L477.46 26.28C477.82 25.68 478.02 25.28 478.06 24.72C478.14 23.88 478.14 23.08 478.14 22.12V14.76C478.14 14.24 478.14 13.76 478.18 13.24C478.18 12.68 478.3 12.04 478.46 11.56C478.58 11.24 478.78 10.84 478.98 10.52C479.26 10.12 479.82 9.92 480.38 9.8L480.46 9.76C480.9 9.64 481.46 9.68 481.9 9.84C482.1 9.92 482.34 10.04 482.5 10.2C482.74 10.4 482.9 10.8 483.06 11.24C483.3 11.76 483.46 12.44 483.54 13.2C483.74 15.44 483.78 18.8 483.78 21.04C483.82 22.4 483.82 23.8 483.9 25.12C483.94 26.28 484.58 27.28 485.14 28.28C485.74 29.44 486.26 30.6 486.94 31.72C487.22 32.24 487.5 32.76 487.82 33.28C487.94 33.52 488.06 33.76 488.18 33.96C488.3 34.24 488.46 34.52 488.58 34.8L488.7 35.12L488.82 35.36ZM499.42 21.88H499.5C499.74 21.88 499.98 21.96 500.26 21.96C500.54 22 500.86 22.04 501.18 22.08C501.78 22.2 502.42 22.44 502.7 23.04C502.9 23.36 502.98 23.72 502.98 24.08C502.98 24.48 502.98 24.84 502.86 25.24C502.78 25.64 502.66 26.2 502.3 26.48C501.98 26.72 501.62 26.92 501.22 27C500.38 27.12 498.94 27 498.1 27.04C498.02 27.04 497.98 27.08 497.98 27.08C497.98 27.08 497.94 27.08 497.94 27.24C497.9 28.56 497.94 30.92 497.94 32.28C497.98 33.64 497.98 35.04 497.94 36.36V36.92C497.94 38.32 497.94 40.36 496.98 41.32C496.66 41.68 496.22 41.88 495.7 41.88C495.7 41.88 495.66 41.84 495.62 41.84C493.02 41.76 492.74 38.64 492.74 36.96V13.2C492.74 13.12 492.7 11.12 493.58 10.24C493.94 9.88 494.78 9.68 495.38 9.68C495.98 9.68 496.5 9.92 496.86 10.28C497.58 11.04 497.62 11.88 497.7 12.76C497.74 12.92 497.74 13.08 497.74 13.24C497.86 14.12 497.86 15.12 497.9 16.08C497.9 16.68 497.94 17.2 497.94 17.8C497.9 18.12 497.94 18.4 497.94 18.68V20.92C497.94 21.2 497.94 21.52 498.02 21.8C498.02 21.84 498.82 21.84 498.86 21.84C499.06 21.88 499.22 21.92 499.42 21.88ZM515.223 9.16C520.663 9.52 523.703 12.64 523.303 18.36C522.943 23.12 520.383 25.88 515.303 25.88C512.543 25.88 511.103 26.08 508.663 24.56C506.343 23.08 505.623 20.12 505.623 17.56C505.623 11.8 509.703 8.76 515.223 9.16ZM534.303 22.96H534.383C534.663 22.92 534.903 23 535.143 23C535.463 23.04 535.743 23.08 536.063 23.12C536.663 23.24 537.303 23.48 537.623 24.08C537.783 24.4 537.863 24.76 537.863 25.16C537.863 25.52 537.863 25.92 537.783 26.28C537.663 26.68 537.543 27.24 537.223 27.52C536.903 27.76 536.503 27.96 536.103 28.04C535.263 28.16 533.823 28.04 532.983 28.08C532.903 28.12 532.863 28.12 532.863 28.12C532.863 28.12 532.863 28.16 532.823 28.28C532.783 29.6 532.823 30.76 532.823 32.12C532.863 33.48 532.863 34.88 532.823 36.2V36.76C532.823 38.16 532.863 40.2 531.903 41.2C531.543 41.52 531.103 41.72 530.583 41.72H530.503C527.903 41.6 527.663 38.48 527.663 36.8V13.04C527.663 12.96 527.583 10.96 528.463 10.08C528.863 9.72 529.703 9.52 530.263 9.52C530.863 9.52 531.423 9.76 531.783 10.12C532.463 10.88 532.543 11.72 532.583 12.6C532.623 12.76 532.623 12.92 532.663 13.12C532.743 13.96 532.743 14.96 532.783 15.92C532.783 16.52 532.823 17.08 532.823 17.64V21.96C532.823 22.24 532.823 22.56 532.903 22.84C532.903 22.88 533.703 22.88 533.783 22.92C533.943 22.92 534.143 22.96 534.303 22.96ZM507.783 33.72C507.983 33.64 510.463 33.8 511.143 33.8C511.223 32.96 511.303 28.72 511.423 28.4C511.623 27.76 512.103 27.28 512.663 27.04C512.983 26.92 513.263 26.88 513.583 26.88C514.743 26.88 515.743 27.56 516.023 28.52C516.183 28.92 516.183 33 516.183 33.76V33.8H522.703C523.583 33.8 524.303 33.96 524.823 34.28C526.023 35 525.983 36.96 525.463 37.92C524.983 38.76 523.943 38.84 523.103 38.84H507.303C507.263 38.84 505.903 38.72 505.183 38.4C504.663 38.12 504.263 37.52 504.143 36.76C504.023 35.92 504.303 35.12 504.823 34.64C505.783 33.84 506.863 33.72 507.783 33.72ZM518.663 18.84L518.703 18.52C518.943 16.6 517.983 14.76 516.303 14.16C514.063 13.4 510.623 14.08 510.183 17.08C509.863 19.12 510.743 21.36 513.823 21.64C515.943 21.88 518.143 21.28 518.663 18.84ZM575.237 34.04C575.397 34.08 575.557 34.04 575.717 34.04C576.597 34.12 577.397 34.32 578.117 35C578.477 35.32 578.677 35.8 578.677 36.36C578.677 36.92 578.477 37.72 578.157 38.08C577.357 38.92 575.357 38.84 575.277 38.84H553.677C553.437 38.84 553.157 38.88 552.917 38.88C551.757 38.92 550.357 39 549.437 38.24C548.917 37.76 548.597 37.16 548.597 36.52C548.597 35.72 549.117 34.72 549.917 34.4C550.997 34 551.357 34.08 552.717 34.04H553.877C553.837 33.68 553.837 33.44 553.837 33.44V27.2C553.837 27.2 553.837 25.88 554.917 25.08C556.277 24.08 558.637 24.72 558.757 26.56C558.797 27.48 558.837 31.16 558.877 34C560.037 34 561.157 34.04 562.277 34.04C562.237 33.68 562.237 33.44 562.237 33.44V27.2C562.237 27.2 562.237 25.88 563.317 25.08C564.677 24.08 567.037 24.72 567.157 26.56C567.197 27.48 567.237 31.16 567.277 34.04C568.637 34 570.717 34 572.517 34.04C573.477 34.08 574.397 33.96 575.237 34.04ZM553.277 16.48C552.357 16.48 551.037 16.36 550.397 15.4C550.037 14.76 549.917 13.88 550.117 13.16C550.317 12.44 550.877 11.84 551.597 11.52C551.917 11.4 552.237 11.28 552.597 11.2C553.597 10.96 554.117 10.96 555.157 10.92C555.637 10.92 555.797 10.92 556.237 10.88C556.637 10.88 556.677 10.84 557.157 10.84C558.037 10.84 566.517 10.88 567.357 10.92C568.157 10.96 569.037 10.96 569.877 10.96C570.837 10.96 571.757 11 572.717 11.12C573.157 11.2 573.637 11.24 574.037 11.48C575.197 12.12 575.277 14.12 575.317 15.28C575.317 16 575.357 16.72 575.357 17.44C575.397 18.44 575.397 19.96 575.357 20.96C575.317 23.12 575.277 25.24 575.277 27.4C575.277 28.24 575.157 29.12 574.637 29.84C574.077 30.6 573.157 30.88 572.237 30.64C570.157 30.12 570.357 27.72 570.157 26C569.997 24.88 569.917 23.8 569.917 22.72C569.957 21.52 569.797 19.88 569.797 18.72C569.797 17.8 569.837 16.92 569.077 16.48C568.757 16.32 568.317 16.36 567.757 16.36H566.917C566.637 16.4 566.357 16.36 566.117 16.36H561.877C560.837 16.36 560.157 16.48 559.117 16.48C558.037 16.48 557.357 16.44 556.277 16.52C555.837 16.56 555.717 16.48 555.277 16.48H553.277ZM584.757 36.76C584.677 36.76 583.117 36.4 582.957 35.28C582.797 34.28 582.957 33.48 583.437 32.88C584.077 32.12 585.037 32.12 585.077 32.12H588.197C588.157 32.04 588.157 31.92 588.157 31.8C588.037 30.76 588.197 29.64 588.197 28.6L582.717 28.36C581.877 28.28 581.477 28.24 580.797 27.6C580.437 27.28 580.277 26.68 580.277 26.12C580.277 25.6 580.477 25.08 580.797 24.76C581.597 23.92 583.557 23.96 583.637 23.96H606.517C607.317 23.96 608.117 23.96 608.877 24C609.597 24.04 610.397 24.16 610.957 24.68C611.517 25.12 611.517 25.64 611.517 26.28C611.517 27.08 611.037 27.76 610.237 28.04C609.157 28.44 607.837 28.48 606.717 28.52C606.117 28.56 605.237 28.56 604.237 28.6C604.157 29.76 604.197 30.92 604.197 32.12H604.837C604.837 32.12 604.957 32.08 605.117 32.08C607.277 32.08 608.557 32.8 608.557 34.04V36.76C608.557 37.04 608.597 37.32 608.597 37.6C608.597 38.16 608.637 39.88 608.557 40.48C608.477 41.6 607.597 42.36 606.397 42.36C606.117 42.36 605.837 42.32 605.557 42.24C604.117 41.8 604.037 40.48 603.997 39.28C603.957 38.8 603.917 37.24 603.837 36.84C603.677 36.8 603.117 36.72 601.157 36.72C599.437 36.72 598.117 36.76 598.117 36.76H584.757ZM595.997 22.08C588.277 22.08 582.397 21.36 582.397 15.48C582.397 10.12 588.277 8.88 595.997 8.88C603.717 8.88 609.597 9.52 609.597 15.48C609.597 21.36 603.717 22.08 595.997 22.08ZM595.997 13.36C592.077 13.36 587.837 13.44 587.837 15.48C587.837 17.28 590.957 17.76 595.997 17.68C599.917 17.68 604.157 17.84 604.157 15.48C604.157 13.44 599.917 13.36 595.997 13.36ZM593.717 28.68C593.837 29.84 593.597 30.76 593.597 32.12H598.757V31.88C598.637 31.08 598.717 29.72 598.757 28.68H593.717ZM646.688 36.56C646.688 37.88 646.648 38.44 646.248 39.68C645.968 40.48 645.368 41.08 644.208 41.08C643.888 41.08 643.328 41 643.048 40.8C641.968 40.12 641.928 37.64 641.928 36.84V26.76L638.888 26.72C637.968 26.68 636.688 26.32 636.568 24.72C636.488 23.76 636.568 22.76 637.768 22.2C638.248 21.96 639.088 21.76 639.608 21.76H641.928V13.68C641.928 13 641.888 12.24 642.048 11.56C642.128 11.32 642.208 11.08 642.328 10.84C642.648 10.32 642.888 10.04 643.488 9.84C643.728 9.76 644.088 9.72 644.328 9.72C645.208 9.72 645.888 10.16 646.328 10.92C646.728 11.6 646.688 13.52 646.688 13.72C646.728 33.16 646.688 36.56 646.688 36.56ZM653.128 39.96C652.968 40.32 652.728 40.6 652.368 40.84C651.808 41.2 651.408 41.28 650.728 41.12C649.128 40.76 648.808 39 648.808 37.64V14.12C648.768 12.92 648.808 10.92 649.528 10.2C650.128 9.68 650.408 9.6 651.128 9.6C652.048 9.6 652.848 10.16 653.168 11C653.648 12.12 653.608 13.32 653.648 14.52V14.72C653.768 18.76 653.648 22.4 653.648 26.16V36.16C653.648 37.56 653.648 38.84 653.128 39.96ZM629.008 16.24C627.328 16.24 625.408 16.2 625.088 16.16C624.288 15.96 623.688 15.32 623.368 14.44C623.168 13.64 623.248 13.04 623.648 12.44C624.048 11.84 624.648 11.4 625.248 11.24C625.568 11.2 628.448 11.2 628.688 11.2H635.968C637.768 11.2 638.848 11.4 639.608 12.92C639.968 13.64 640.048 14.16 639.808 14.84C639.488 15.52 638.848 16.04 638.088 16.16C637.048 16.32 636.248 16.36 634.008 16.24C634.048 16.68 634.008 25.84 634.048 26.16C634.368 26.6 634.848 27.92 635.208 28.44C635.648 29.04 636.088 29.96 636.608 30.8C636.928 31.28 637.208 31.76 637.448 32.16C638.288 33.56 639.368 34.88 639.728 36.52C639.848 37.28 639.848 38.28 639.328 38.84C638.968 39.2 638.528 39.4 638.008 39.4C637.008 39.4 636.008 38.6 635.448 37.88C634.608 36.8 633.848 35.64 633.168 34.52C632.648 33.72 631.888 32.56 631.368 31.84C631.128 32.28 630.848 32.8 630.608 33.2C630.288 33.68 629.808 34.16 629.488 34.64C628.928 35.72 628.328 36.84 627.488 37.8C626.568 38.92 625.808 39.48 624.968 39.48C624.768 39.48 624.568 39.48 624.328 39.4C623.848 39.2 623.488 38.84 623.288 38.28C622.968 37.4 623.368 36.2 623.728 35.44C624.048 34.56 624.528 33.76 625.008 33C625.288 32.52 625.608 32.04 625.848 31.56C626.648 30 628.488 27 629.008 26.32V16.24ZM661.051 34.44L668.811 34.48L668.771 29.12C667.371 29.08 666.331 29.08 664.811 29.08C663.611 29.08 662.211 29.04 661.091 28.72C660.211 28.44 659.411 27.72 659.011 26.8C658.491 25.64 658.611 23.24 658.611 23.12V15.84C658.611 15.6 658.451 13.28 659.251 12C659.931 10.92 661.571 10.72 663.051 10.72H679.811C679.971 10.76 683.251 10.6 683.771 12.28C683.971 12.88 683.931 14.28 683.691 14.72C683.491 15.08 683.171 15.32 682.691 15.44C682.251 15.56 681.491 15.6 680.491 15.6H666.011C663.611 15.6 663.691 17.56 663.731 18.12L663.891 21.76C663.931 22.28 663.971 23.2 664.331 23.52C664.851 24.04 665.731 23.96 666.691 23.96L680.291 23.92C681.611 23.92 682.691 24.12 683.571 24.52C684.091 24.8 684.491 25.52 684.611 26.08C684.771 26.64 684.611 27.24 684.251 27.68C683.531 28.6 682.611 29.04 681.291 29.08C678.931 29.16 676.611 29.2 674.171 29.16L674.211 34.48H684.251C685.131 34.56 685.931 34.72 686.651 35.36C687.011 35.72 687.211 36.2 687.211 36.76C687.211 37.32 687.011 38.12 686.691 38.48C685.851 39.32 683.891 39.24 683.811 39.24C661.171 39.24 660.891 39.2 660.611 39.2C659.491 39.2 658.051 39.32 657.171 38.56C656.651 38.08 656.331 37.56 656.331 36.92C656.331 36.12 656.851 35.12 657.651 34.8C658.731 34.4 659.891 34.48 661.051 34.44Z" fill="#475783"/>
<g clip-path="url(#clip0_1410_52919)">
<mask id="path-7-inside-1_1410_52919" fill="white">
<path d="M699.992 17.8C697.844 18.7579 698.169 21.2524 697.617 22.0307C697.065 22.809 694.611 23.5973 694.385 26.2415C694.148 28.8857 695.942 28.756 696.73 29.9035C697.509 31.051 696.996 33.8648 700.377 34.4236C703.757 34.9824 703.866 32.1785 705.216 31.8792C706.566 31.5898 709.739 31.6497 711.484 29.5144C713.189 27.4189 711.671 24.9543 711.385 24.0762C711.099 23.1882 711.622 20.8633 710.143 19.6958C708.665 18.5384 707.207 19.7058 705.975 19.0672C704.743 18.4286 702.161 16.8421 700.012 17.8"/>
</mask>
<path d="M699.992 17.8C697.844 18.7579 698.169 21.2524 697.617 22.0307C697.065 22.809 694.611 23.5973 694.385 26.2415C694.148 28.8857 695.942 28.756 696.73 29.9035C697.509 31.051 696.996 33.8648 700.377 34.4236C703.757 34.9824 703.866 32.1785 705.216 31.8792C706.566 31.5898 709.739 31.6497 711.484 29.5144C713.189 27.4189 711.671 24.9543 711.385 24.0762C711.099 23.1882 711.622 20.8633 710.143 19.6958C708.665 18.5384 707.207 19.7058 705.975 19.0672C704.743 18.4286 702.161 16.8421 700.012 17.8" fill="#E4E8EB"/>
<path d="M694.385 26.2415L695.381 26.3306L695.381 26.3269L694.385 26.2415ZM696.73 29.9035L697.558 29.342L697.554 29.3372L696.73 29.9035ZM705.216 31.8792L705.006 30.9014L704.999 30.9029L705.216 31.8792ZM711.484 29.5144L712.258 30.147L712.259 30.1455L711.484 29.5144ZM711.385 24.0762L710.433 24.3826L710.434 24.3858L711.385 24.0762ZM710.143 19.6958L710.763 18.911L710.76 18.9085L710.143 19.6958ZM699.992 17.8L699.585 16.8866C698.139 17.5314 697.548 18.7103 697.249 19.6911C697.107 20.1588 697.014 20.6417 696.943 20.9563C696.905 21.128 696.873 21.2534 696.841 21.3489C696.808 21.4486 696.79 21.4687 696.801 21.4523L697.617 22.0307L698.433 22.6092C698.705 22.2249 698.821 21.7217 698.895 21.3957C698.985 20.9938 699.049 20.6472 699.163 20.2743C699.376 19.5738 699.697 19.0264 700.4 18.7133L699.992 17.8ZM697.617 22.0307L696.801 21.4523C696.804 21.4489 696.779 21.4829 696.686 21.5613C696.596 21.6365 696.481 21.7226 696.326 21.8344C696.033 22.0456 695.619 22.3333 695.219 22.6853C694.391 23.4127 693.531 24.4903 693.388 26.1561L694.385 26.2415L695.381 26.3269C695.465 25.3485 695.945 24.7099 696.539 24.1874C696.85 23.9146 697.167 23.694 697.496 23.456C697.771 23.258 698.18 22.9657 698.433 22.6092L697.617 22.0307ZM694.385 26.2415L693.389 26.1524C693.32 26.9226 693.391 27.5731 693.609 28.1311C693.83 28.6993 694.174 29.0955 694.524 29.3945C694.833 29.6585 695.226 29.9014 695.429 30.0414C695.675 30.2117 695.814 30.3354 695.906 30.4698L696.73 29.9035L697.554 29.3372C697.253 28.8979 696.871 28.6075 696.567 28.3967C696.219 28.1557 696.03 28.0506 695.822 27.8731C695.655 27.7305 695.545 27.5916 695.472 27.4046C695.395 27.2074 695.331 26.8825 695.381 26.3306L694.385 26.2415ZM696.73 29.9035L695.903 30.465C695.986 30.5875 696.065 30.8093 696.186 31.2699C696.292 31.6721 696.426 32.235 696.658 32.7773C696.898 33.3392 697.26 33.9273 697.856 34.4163C698.454 34.9063 699.227 35.2471 700.214 35.4102L700.377 34.4236L700.54 33.437C699.836 33.3207 699.406 33.1003 699.124 32.8696C698.842 32.6381 698.649 32.3462 698.497 31.9914C698.337 31.6169 698.243 31.2263 698.12 30.7606C698.013 30.3535 697.864 29.7932 697.558 29.342L696.73 29.9035ZM700.377 34.4236L700.214 35.4102C701.196 35.5726 702.018 35.5021 702.719 35.2408C703.418 34.9799 703.916 34.5586 704.292 34.1523C704.476 33.9525 704.637 33.7509 704.772 33.5776C704.915 33.3934 705.019 33.2566 705.126 33.1308C705.346 32.8731 705.426 32.8568 705.432 32.8555L705.216 31.8792L704.999 30.9029C704.33 31.0512 703.89 31.4977 703.605 31.8324C703.459 32.0028 703.314 32.1947 703.194 32.3486C703.065 32.5136 702.948 32.6596 702.823 32.7941C702.581 33.0563 702.333 33.2499 702.02 33.3669C701.707 33.4836 701.247 33.554 700.54 33.437L700.377 34.4236ZM705.216 31.8792L705.425 32.857C705.712 32.7956 706.096 32.7529 706.651 32.6792C707.175 32.6095 707.796 32.5175 708.439 32.3605C709.717 32.0485 711.189 31.4553 712.258 30.147L711.484 29.5144L710.709 28.8817C710.034 29.7087 709.047 30.1532 707.965 30.4175C707.428 30.5486 706.893 30.6294 706.388 30.6966C705.913 30.7597 705.395 30.8181 705.006 30.9014L705.216 31.8792ZM711.484 29.5144L712.259 30.1455C713.361 28.7912 713.401 27.3116 713.161 26.1384C713.042 25.5597 712.854 25.0404 712.689 24.6284C712.498 24.1543 712.395 23.9481 712.336 23.7667L711.385 24.0762L710.434 24.3858C710.518 24.6434 710.712 25.0745 710.833 25.375C710.979 25.7376 711.118 26.1301 711.201 26.5392C711.365 27.3417 711.311 28.1421 710.708 28.8832L711.484 29.5144ZM711.385 24.0762L712.337 23.7699C712.315 23.7009 712.293 23.5305 712.278 23.1417C712.265 22.8078 712.255 22.3468 712.206 21.8841C712.107 20.9633 711.824 19.749 710.763 18.911L710.143 19.6958L709.524 20.4806C709.941 20.8101 710.136 21.3419 710.217 22.0975C710.258 22.4729 710.264 22.8327 710.279 23.221C710.293 23.5543 710.313 24.0075 710.433 24.3826L711.385 24.0762ZM710.143 19.6958L710.76 18.9085C709.71 18.0866 708.647 18.1172 707.871 18.1915C707.452 18.2316 707.206 18.2708 706.933 18.2721C706.697 18.2732 706.551 18.2396 706.435 18.1794L705.975 19.0672L705.514 19.955C706.014 20.2141 706.513 20.2741 706.943 20.2721C707.336 20.2702 707.777 20.2096 708.062 20.1824C708.693 20.122 709.098 20.1476 709.527 20.4832L710.143 19.6958ZM705.975 19.0672L706.435 18.1794C705.875 17.8892 704.819 17.2754 703.654 16.8864C702.486 16.4965 701.012 16.259 699.605 16.8866L700.012 17.8L700.419 18.7133C701.16 18.383 702.051 18.4598 703.02 18.7834C703.992 19.1078 704.842 19.6066 705.514 19.955L705.975 19.0672Z" fill="#5E6F98" mask="url(#path-7-inside-1_1410_52919)"/>
<path d="M701.204 34.8633C700.928 34.8633 700.633 34.8433 700.307 34.7834C697.637 34.3344 697.173 32.5583 696.838 31.2611C696.72 30.8121 696.612 30.3831 696.424 30.1136C696.217 29.8043 695.892 29.5848 695.557 29.3653C694.798 28.8564 693.842 28.2178 694.02 26.2122C694.207 24.1367 695.636 23.109 696.592 22.4205C696.917 22.181 697.203 21.9814 697.331 21.8118C697.459 21.6322 697.538 21.243 697.637 20.8339C697.873 19.7264 698.208 18.1997 699.854 17.4613C701.963 16.5234 704.348 17.7906 705.767 18.5489L706.132 18.7385C706.566 18.968 707.068 18.9082 707.64 18.8483C708.468 18.7585 709.404 18.6487 710.36 19.3971C711.533 20.3151 711.582 21.8417 711.621 22.9493C711.631 23.3584 711.651 23.7376 711.72 23.9471C711.759 24.0768 711.828 24.2465 711.917 24.4361C712.42 25.6135 713.346 27.7987 711.759 29.7345C710.271 31.5505 707.857 31.8698 706.26 32.0793C705.886 32.1292 705.55 32.1691 705.294 32.229C704.949 32.3088 704.683 32.6481 704.348 33.0871C703.757 33.8455 702.978 34.8533 701.224 34.8533L701.204 34.8633ZM700.14 18.1398C698.819 18.7285 698.553 19.9858 698.336 20.9936C698.228 21.5025 698.129 21.9415 697.912 22.2508C697.725 22.5103 697.39 22.7497 697.016 23.0291C696.129 23.6677 694.907 24.5458 694.749 26.282C694.611 27.8586 695.242 28.2777 695.961 28.7566C696.345 29.0061 696.74 29.2755 697.025 29.7045C697.282 30.0737 697.41 30.5627 697.538 31.0815C697.873 32.3687 698.228 33.7058 700.426 34.075C702.407 34.4043 703.096 33.5162 703.757 32.6581C704.151 32.1492 704.525 31.6702 705.127 31.5405C705.403 31.4807 705.757 31.4308 706.161 31.3809C707.65 31.1913 709.887 30.8919 711.198 29.2954C712.499 27.6989 711.72 25.853 711.247 24.7554C711.158 24.5358 711.079 24.3463 711.03 24.2066C710.932 23.8972 710.912 23.4782 710.902 22.9992C710.863 21.9814 710.823 20.7142 709.916 20.0058C709.197 19.437 708.478 19.5168 707.719 19.6066C707.088 19.6765 706.428 19.7463 705.797 19.427L705.422 19.2275C704.121 18.529 701.933 17.3615 700.14 18.1598V18.1398Z" fill="#5E6F98"/>
<path d="M702.82 26.6022C703.175 26.5124 703.54 26.7319 703.619 27.0811C703.707 27.4403 703.49 27.7996 703.136 27.8894C702.781 27.9792 702.416 27.7596 702.327 27.4104C702.239 27.0512 702.456 26.692 702.82 26.6022Z" fill="#C8A374"/>
<path d="M701.569 25.4733C701.924 25.3835 702.289 25.603 702.368 25.9522C702.456 26.3114 702.239 26.6706 701.885 26.7604C701.53 26.8503 701.165 26.6307 701.076 26.2815C700.988 25.9223 701.205 25.5631 701.569 25.4733Z" fill="#C8A374"/>
<path d="M704.742 26.2506C705.097 26.1608 705.462 26.3803 705.54 26.7296C705.629 27.0888 705.412 27.448 705.057 27.5378C704.703 27.6276 704.338 27.4081 704.249 27.0588C704.161 26.6996 704.377 26.3404 704.742 26.2506Z" fill="#C8A374"/>
<path d="M705.314 24.7155C705.669 24.6257 706.034 24.8452 706.113 25.1944C706.201 25.5536 705.985 25.9128 705.63 26.0026C705.275 26.0924 704.91 25.8729 704.822 25.5237C704.733 25.1645 704.95 24.8053 705.314 24.7155Z" fill="#C8A374"/>
<path d="M703.451 24.6959C703.806 24.6061 704.171 24.8256 704.249 25.1749C704.338 25.5341 704.121 25.8933 703.766 25.9831C703.412 26.0729 703.047 25.8534 702.958 25.5042C702.87 25.1449 703.086 24.7857 703.451 24.6959Z" fill="#C8A374"/>
<path d="M704.654 23.0201C705.009 22.9303 705.374 23.1499 705.452 23.4991C705.541 23.8583 705.324 24.2175 704.97 24.3073C704.615 24.3971 704.25 24.1776 704.161 23.8284C704.073 23.4692 704.29 23.1099 704.654 23.0201Z" fill="#C8A374"/>
<path d="M702.929 22.7194C703.283 22.6296 703.648 22.8491 703.727 23.1983C703.816 23.5575 703.599 23.9167 703.244 24.0065C702.889 24.0963 702.525 23.8768 702.436 23.5276C702.347 23.1684 702.564 22.8092 702.929 22.7194Z" fill="#C8A374"/>
<path d="M701.707 23.8483C702.062 23.7585 702.426 23.978 702.505 24.3272C702.594 24.6864 702.377 25.0456 702.022 25.1355C701.668 25.2253 701.303 25.0057 701.214 24.6565C701.125 24.2973 701.342 23.9381 701.707 23.8483Z" fill="#C8A374"/>
<mask id="path-18-inside-2_1410_52919" fill="white">
<path d="M715.209 21.83C713.642 21.7202 711.966 22.5584 711.188 23.6061C710.409 24.6538 710.409 26.4599 709.818 26.9688C709.345 27.3679 708.221 27.5375 707.226 28.0963C706.083 28.7449 705.205 29.9422 704.959 31.6585C704.703 33.4745 705.777 34.8016 707.009 35.53C707.955 36.0888 708.744 36.0289 709.571 36.5179C710.389 37.0068 710.793 37.6454 711.503 38.4237C712.163 39.1521 713.238 40.0002 715.002 40.11C716.776 40.2098 717.988 39.5812 718.52 38.723C718.983 37.9747 719.338 37.1365 719.801 36.6176C720.235 36.1187 721.26 35.979 722.098 35.3604C723.152 34.5821 723.793 33.1452 723.615 31.2494C723.527 30.3514 722.945 29.3136 722.196 28.665C721.368 27.9566 719.949 27.5674 719.644 27.1683C719.328 26.7692 719.831 25.4321 718.964 24.1948C718.096 22.9575 716.677 21.9298 715.219 21.83"/>
</mask>
<path d="M715.209 21.83C713.642 21.7202 711.966 22.5584 711.188 23.6061C710.409 24.6538 710.409 26.4599 709.818 26.9688C709.345 27.3679 708.221 27.5375 707.226 28.0963C706.083 28.7449 705.205 29.9422 704.959 31.6585C704.703 33.4745 705.777 34.8016 707.009 35.53C707.955 36.0888 708.744 36.0289 709.571 36.5179C710.389 37.0068 710.793 37.6454 711.503 38.4237C712.163 39.1521 713.238 40.0002 715.002 40.11C716.776 40.2098 717.988 39.5812 718.52 38.723C718.983 37.9747 719.338 37.1365 719.801 36.6176C720.235 36.1187 721.26 35.979 722.098 35.3604C723.152 34.5821 723.793 33.1452 723.615 31.2494C723.527 30.3514 722.945 29.3136 722.196 28.665C721.368 27.9566 719.949 27.5674 719.644 27.1683C719.328 26.7692 719.831 25.4321 718.964 24.1948C718.096 22.9575 716.677 21.9298 715.219 21.83" fill="#E4E8EB"/>
<path d="M709.818 26.9688L710.463 27.7331L710.47 27.7267L709.818 26.9688ZM707.226 28.0963L706.736 27.2243L706.732 27.2265L707.226 28.0963ZM704.959 31.6585L703.969 31.5164L703.969 31.5188L704.959 31.6585ZM707.009 35.53L706.5 36.3908L706.5 36.3911L707.009 35.53ZM709.571 36.5179L710.084 35.6595L710.08 35.6568L709.571 36.5179ZM711.503 38.4237L712.244 37.7521L712.242 37.75L711.503 38.4237ZM715.002 40.11L714.94 41.1081L714.946 41.1084L715.002 40.11ZM718.52 38.723L719.37 39.2501L719.37 39.2493L718.52 38.723ZM719.801 36.6176L720.547 37.2837L720.556 37.2737L719.801 36.6176ZM722.098 35.3604L721.504 34.5558L721.504 34.556L722.098 35.3604ZM723.615 31.2494L724.611 31.1562L724.611 31.1511L723.615 31.2494ZM722.196 28.665L722.851 27.9091L722.846 27.9053L722.196 28.665ZM719.644 27.1683L720.438 26.5605L720.433 26.5544L720.428 26.5483L719.644 27.1683ZM715.209 21.83L715.279 20.8324C713.372 20.6989 711.368 21.6874 710.385 23.0096L711.188 23.6061L711.99 24.2026C712.565 23.4294 713.911 22.7416 715.139 22.8275L715.209 21.83ZM711.188 23.6061L710.385 23.0096C709.861 23.7151 709.627 24.6264 709.466 25.2333C709.376 25.574 709.309 25.8265 709.234 26.0285C709.152 26.249 709.113 26.2557 709.165 26.2108L709.818 26.9688L710.47 27.7267C710.818 27.4273 711.001 27.0175 711.109 26.7234C711.225 26.411 711.318 26.0511 711.399 25.7457C711.581 25.0604 711.736 24.5448 711.99 24.2026L711.188 23.6061ZM709.818 26.9688L709.173 26.2044C709.173 26.204 709.159 26.2158 709.12 26.2377C709.082 26.2593 709.029 26.2854 708.957 26.3164C708.808 26.3807 708.626 26.4453 708.388 26.5285C707.939 26.6854 707.324 26.8945 706.736 27.2243L707.226 28.0963L707.715 28.9683C708.123 28.7393 708.568 28.5841 709.047 28.4168C709.273 28.3379 709.523 28.2503 709.749 28.1531C709.969 28.0581 710.233 27.9266 710.463 27.7331L709.818 26.9688ZM707.226 28.0963L706.732 27.2265C705.301 28.0385 704.256 29.5161 703.969 31.5164L704.959 31.6585L705.949 31.8006C706.154 30.3684 706.864 29.4512 707.719 28.9661L707.226 28.0963ZM704.959 31.6585L703.969 31.5188C703.637 33.8718 705.057 35.5376 706.5 36.3908L707.009 35.53L707.518 34.6692C706.497 34.0656 705.769 33.0773 705.949 31.7982L704.959 31.6585ZM707.009 35.53L706.5 36.3911C707.096 36.7431 707.642 36.896 708.068 37.0139C708.506 37.1353 708.781 37.2126 709.063 37.3789L709.571 36.5179L710.08 35.6568C709.534 35.3342 709.001 35.1969 708.601 35.0864C708.189 34.9723 707.868 34.8757 707.517 34.669L707.009 35.53ZM709.571 36.5179L709.058 37.3762C709.708 37.7643 709.928 38.1805 710.764 39.0974L711.503 38.4237L712.242 37.75C711.659 37.1103 711.071 36.2493 710.084 35.6595L709.571 36.5179ZM711.503 38.4237L710.762 39.0953C711.538 39.9508 712.838 40.9773 714.94 41.1081L715.002 40.11L715.064 39.1119C713.637 39.0232 712.789 38.3534 712.244 37.7521L711.503 38.4237ZM715.002 40.11L714.946 41.1084C716.958 41.2216 718.586 40.5141 719.37 39.2501L718.52 38.723L717.67 38.196C717.39 38.6482 716.593 39.1979 715.058 39.1116L715.002 40.11ZM718.52 38.723L719.37 39.2493C719.618 38.8489 719.851 38.4006 720.035 38.0701C720.237 37.7055 720.396 37.4528 720.547 37.2836L719.801 36.6176L719.055 35.9517C718.743 36.3014 718.493 36.7272 718.287 37.0985C718.061 37.5038 717.885 37.8488 717.67 38.1967L718.52 38.723ZM719.801 36.6176L720.556 37.2737C720.555 37.2745 720.587 37.2398 720.705 37.1754C720.823 37.1105 720.973 37.0453 721.186 36.9557C721.577 36.7912 722.159 36.5581 722.692 36.1648L722.098 35.3604L721.504 34.556C721.198 34.7814 720.85 34.9274 720.41 35.1121C720.057 35.2606 719.446 35.5016 719.047 35.9616L719.801 36.6176ZM722.098 35.3604L722.691 36.165C724.087 35.1353 724.814 33.3218 724.611 31.1562L723.615 31.2494L722.62 31.3426C722.772 32.9687 722.218 34.0289 721.504 34.5558L722.098 35.3604ZM723.615 31.2494L724.611 31.1511C724.493 29.9613 723.763 28.6991 722.851 27.9091L722.196 28.665L721.542 29.421C722.127 29.9281 722.56 30.7414 722.62 31.3477L723.615 31.2494ZM722.196 28.665L722.846 27.9053C722.315 27.4506 721.631 27.1242 721.153 26.8973C720.89 26.7724 720.692 26.6801 720.536 26.5942C720.347 26.4906 720.373 26.4765 720.438 26.5605L719.644 27.1683L718.85 27.7761C719.067 28.0597 719.385 28.244 719.574 28.3476C719.795 28.4692 720.062 28.5933 720.295 28.704C720.81 28.9487 721.249 29.171 721.546 29.4248L722.196 28.665ZM719.644 27.1683L720.428 26.5483C720.567 26.7241 720.536 26.8692 720.525 26.6557C720.521 26.5812 720.52 26.4931 720.519 26.3683C720.517 26.2509 720.516 26.1075 720.51 25.9548C720.484 25.335 720.376 24.467 719.782 23.6208L718.964 24.1948L718.145 24.7688C718.419 25.1599 718.493 25.5791 718.511 26.037C718.516 26.1537 718.517 26.2666 718.519 26.3883C718.52 26.5027 718.521 26.6366 718.528 26.7629C718.538 26.9511 718.562 27.413 718.859 27.7883L719.644 27.1683ZM718.964 24.1948L719.782 23.6208C718.803 22.2234 717.139 20.959 715.287 20.8323L715.219 21.83L715.15 22.8277C716.215 22.9005 717.39 23.6917 718.145 24.7688L718.964 24.1948Z" fill="#5E6F98" mask="url(#path-18-inside-2_1410_52919)"/>
<path d="M715.366 40.5009C715.238 40.5009 715.11 40.5009 714.982 40.4909C713.484 40.4011 712.252 39.8124 711.237 38.6949C711.05 38.4853 710.882 38.2957 710.725 38.1062C710.291 37.5873 709.946 37.1882 709.384 36.8489C709.029 36.6394 708.665 36.5396 708.28 36.4298C707.847 36.3101 707.354 36.1704 706.822 35.8611C705.186 34.8932 704.358 33.3067 704.604 31.6203C704.851 29.9041 705.718 28.5471 707.048 27.7887C707.561 27.4994 708.093 27.3098 708.566 27.1501C708.99 27.0005 709.394 26.8608 709.581 26.7011C709.788 26.5315 709.926 25.9827 710.074 25.4439C710.251 24.7554 710.458 23.987 710.902 23.3884C711.809 22.171 713.622 21.3528 715.238 21.4725C716.707 21.5723 718.254 22.5402 719.259 23.997C719.861 24.8651 719.87 25.7831 719.88 26.3918C719.88 26.6013 719.88 26.8907 719.93 26.9605C720.018 27.0803 720.452 27.2798 720.797 27.4395C721.339 27.6989 721.96 27.9883 722.443 28.3974C723.271 29.1058 723.891 30.2434 723.98 31.2212C724.167 33.137 723.556 34.7535 722.315 35.6715C721.881 35.9908 721.408 36.1903 720.994 36.37C720.59 36.5396 720.245 36.6893 720.077 36.8788C719.811 37.1882 719.565 37.6272 719.309 38.1062C719.161 38.3855 719.003 38.6649 718.836 38.9443C718.225 39.9421 716.943 40.5109 715.376 40.5109L715.366 40.5009ZM714.943 22.191C713.652 22.191 712.193 22.8695 711.483 23.8274C711.129 24.3063 710.941 25.0048 710.774 25.6235C710.587 26.3219 710.429 26.9206 710.054 27.2499C709.759 27.4994 709.315 27.649 708.803 27.8286C708.359 27.9883 707.857 28.1579 707.403 28.4174C706.27 29.056 705.531 30.2234 705.324 31.7102C705.038 33.6958 706.536 34.8233 707.196 35.2125C707.64 35.4819 708.044 35.5917 708.478 35.7114C708.891 35.8212 709.315 35.9409 709.759 36.2003C710.419 36.5995 710.823 37.0684 711.276 37.6072C711.424 37.7869 711.592 37.9764 711.769 38.176C712.656 39.1539 713.721 39.6628 715.022 39.7426C716.49 39.8224 717.692 39.3734 718.215 38.5252C718.372 38.2658 718.53 37.9864 718.668 37.727C718.944 37.2181 719.21 36.7391 719.535 36.37C719.821 36.0507 720.255 35.8611 720.718 35.6715C721.112 35.5019 721.526 35.3322 721.891 35.0628C722.916 34.3045 723.418 32.9275 723.261 31.2811C723.182 30.4928 722.65 29.5349 721.97 28.9462C721.566 28.597 720.994 28.3275 720.491 28.0981C719.969 27.8586 719.565 27.659 719.358 27.3996C719.161 27.1501 719.161 26.8109 719.151 26.3818C719.151 25.8031 719.141 25.0846 718.668 24.4061C717.801 23.1489 716.431 22.2808 715.189 22.191C715.11 22.191 715.031 22.191 714.943 22.191Z" fill="#5E6F98"/>
<path d="M714.046 29.7836C713.947 30.1229 713.593 30.3124 713.267 30.2127C712.942 30.1129 712.755 29.7537 712.853 29.4244C712.952 29.0851 713.297 28.8955 713.632 28.9953C713.957 29.0951 714.145 29.4543 714.046 29.7836Z" fill="#C8A374"/>
<path d="M715.554 29.3031C715.455 29.6424 715.1 29.832 714.775 29.7322C714.45 29.6324 714.263 29.2732 714.361 28.9439C714.46 28.6047 714.805 28.4151 715.14 28.5149C715.465 28.6146 715.652 28.9738 715.554 29.3031Z" fill="#C8A374"/>
<path d="M713.396 31.5414C713.297 31.8807 712.942 32.0703 712.617 31.9705C712.292 31.8707 712.105 31.5115 712.203 31.1822C712.302 30.8429 712.647 30.6534 712.982 30.7531C713.307 30.8529 713.494 31.2121 713.396 31.5414Z" fill="#C8A374"/>
<path d="M714.352 32.7563C714.253 33.0955 713.898 33.2851 713.573 33.1853C713.248 33.0855 713.061 32.7263 713.159 32.397C713.258 32.0578 713.603 31.8682 713.938 31.968C714.263 32.0678 714.45 32.427 714.352 32.7563Z" fill="#C8A374"/>
<path d="M715.268 31.2289C715.169 31.5682 714.814 31.7578 714.489 31.658C714.164 31.5582 713.977 31.199 714.075 30.8697C714.174 30.5304 714.519 30.3409 714.854 30.4406C715.179 30.5404 715.366 30.8996 715.268 31.2289Z" fill="#C8A374"/>
<path d="M716.037 33.0258C715.939 33.365 715.584 33.5546 715.259 33.4548C714.933 33.3551 714.746 32.9958 714.845 32.6666C714.943 32.3273 715.288 32.1377 715.623 32.2375C715.948 32.3373 716.136 32.6965 716.037 33.0258Z" fill="#C8A374"/>
<path d="M717.111 31.7602C717.013 32.0994 716.658 32.289 716.333 32.1892C716.008 32.0894 715.82 31.7302 715.919 31.4009C716.017 31.0617 716.362 30.8721 716.697 30.9719C717.023 31.0717 717.21 31.4309 717.111 31.7602Z" fill="#C8A374"/>
<path d="M716.796 30.2133C716.697 30.5525 716.343 30.7421 716.017 30.6423C715.692 30.5426 715.505 30.1833 715.603 29.8541C715.702 29.5148 716.047 29.3252 716.382 29.425C716.707 29.5248 716.895 29.884 716.796 30.2133Z" fill="#C8A374"/>
<mask id="path-29-inside-3_1410_52919" fill="white">
<path d="M716.904 9.26849C715.594 8.62989 713.869 8.7596 712.834 9.37825C711.799 10.0069 711.188 11.5635 710.498 11.793C709.956 11.9726 708.921 11.7231 707.877 11.8528C706.664 12.0025 705.502 12.7309 704.703 14.1179C703.856 15.5847 704.329 17.1014 705.137 18.169C705.758 18.9872 706.458 19.2068 707 19.9152C707.542 20.6237 707.66 21.3121 708.005 22.2401C708.32 23.0982 708.951 24.2058 710.439 24.9242C711.927 25.6327 713.199 25.5229 713.948 24.9642C714.598 24.4852 715.199 23.8865 715.771 23.5971C716.313 23.3277 717.239 23.5572 718.176 23.3277C719.348 23.0284 720.393 22.0206 720.886 20.3243C721.122 19.5161 720.975 18.4185 720.551 17.6102C720.078 16.7022 718.994 15.884 718.866 15.425C718.737 14.966 719.624 13.9981 719.309 12.6212C718.994 11.2442 718.117 9.86718 716.894 9.26849"/>
</mask>
<path d="M716.904 9.26849C715.594 8.62989 713.869 8.7596 712.834 9.37825C711.799 10.0069 711.188 11.5635 710.498 11.793C709.956 11.9726 708.921 11.7231 707.877 11.8528C706.664 12.0025 705.502 12.7309 704.703 14.1179C703.856 15.5847 704.329 17.1014 705.137 18.169C705.758 18.9872 706.458 19.2068 707 19.9152C707.542 20.6237 707.66 21.3121 708.005 22.2401C708.32 23.0982 708.951 24.2058 710.439 24.9242C711.927 25.6327 713.199 25.5229 713.948 24.9642C714.598 24.4852 715.199 23.8865 715.771 23.5971C716.313 23.3277 717.239 23.5572 718.176 23.3277C719.348 23.0284 720.393 22.0206 720.886 20.3243C721.122 19.5161 720.975 18.4185 720.551 17.6102C720.078 16.7022 718.994 15.884 718.866 15.425C718.737 14.966 719.624 13.9981 719.309 12.6212C718.994 11.2442 718.117 9.86718 716.894 9.26849" fill="#E4E8EB"/>
<path d="M712.834 9.37825L712.321 8.51992L712.315 8.52359L712.834 9.37825ZM710.498 11.793L710.813 12.7422L710.814 12.7418L710.498 11.793ZM707.877 11.8528L707.999 12.8453L708 12.8452L707.877 11.8528ZM704.703 14.1179L705.569 14.6182L705.57 14.6167L704.703 14.1179ZM705.137 18.169L704.34 18.7726L704.34 18.7735L705.137 18.169ZM708.005 22.2401L708.943 21.8952L708.942 21.8917L708.005 22.2401ZM710.439 24.9242L710.004 25.8248L710.009 25.8272L710.439 24.9242ZM713.948 24.9642L713.355 24.1589L713.35 24.1626L713.948 24.9642ZM715.771 23.5971L715.326 22.7016L715.319 22.705L715.771 23.5971ZM718.176 23.3277L718.414 24.299L718.423 24.2967L718.176 23.3277ZM720.886 20.3243L719.926 20.0434L719.926 20.0453L720.886 20.3243ZM720.551 17.6102L719.664 18.0723L719.665 18.0746L720.551 17.6102ZM716.904 9.26849L717.342 8.36951C715.73 7.58396 713.647 7.72691 712.321 8.51994L712.834 9.37825L713.347 10.2366C714.09 9.7923 715.457 9.67582 716.466 10.1675L716.904 9.26849ZM712.834 9.37825L712.315 8.52359C711.601 8.95744 711.077 9.67609 710.734 10.1394C710.538 10.4025 710.398 10.5922 710.268 10.7356C710.125 10.893 710.101 10.8711 710.183 10.8441L710.498 11.793L710.814 12.7418C711.24 12.6001 711.551 12.2975 711.75 12.0789C711.961 11.8463 712.167 11.5645 712.34 11.3312C712.733 10.8017 713.033 10.4277 713.353 10.2329L712.834 9.37825ZM710.498 11.793L710.184 10.8437C710.189 10.8419 710.14 10.8569 709.986 10.8601C709.839 10.8631 709.662 10.8551 709.428 10.843C708.988 10.8202 708.378 10.7829 707.753 10.8605L707.877 11.8528L708 12.8452C708.42 12.7931 708.85 12.8157 709.324 12.8403C709.546 12.8518 709.796 12.8644 710.027 12.8596C710.253 12.855 710.536 12.8338 710.813 12.7422L710.498 11.793ZM707.877 11.8528L707.754 10.8604C706.203 11.0519 704.778 11.9841 703.837 13.619L704.703 14.1179L705.57 14.6167C706.226 13.4777 707.126 12.9532 707.999 12.8453L707.877 11.8528ZM704.703 14.1179L703.837 13.6176C702.715 15.5599 703.392 17.5204 704.34 18.7726L705.137 18.169L705.934 17.5655C705.266 16.6823 704.996 15.6095 705.569 14.6182L704.703 14.1179ZM705.137 18.169L704.34 18.7735C704.738 19.2974 705.162 19.6254 705.489 19.8767C705.827 20.136 706.028 20.2912 706.205 20.5229L707 19.9152L707.794 19.3075C707.429 18.8308 707.009 18.522 706.706 18.2898C706.393 18.0497 706.157 17.8588 705.933 17.5645L705.137 18.169ZM707 19.9152L706.205 20.5229C706.397 20.7728 706.52 21.0244 706.639 21.3447C706.701 21.5116 706.759 21.6871 706.829 21.8986C706.897 22.1045 706.974 22.3374 707.067 22.5885L708.005 22.2401L708.942 21.8917C708.863 21.6789 708.796 21.4777 708.728 21.2714C708.662 21.0706 708.591 20.8558 708.513 20.646C708.352 20.2129 708.145 19.7661 707.794 19.3075L707 19.9152ZM708.005 22.2401L707.066 22.5851C707.441 23.6047 708.214 24.9606 710.004 25.8248L710.439 24.9242L710.874 24.0237C709.688 23.4511 709.199 22.5917 708.943 21.8952L708.005 22.2401ZM710.439 24.9242L710.009 25.8272C711.707 26.6352 713.402 26.6187 714.546 25.7657L713.948 24.9642L713.35 24.1626C712.995 24.4272 712.148 24.6302 710.869 24.0213L710.439 24.9242ZM713.948 24.9642L714.541 25.7694C714.891 25.5117 715.247 25.2065 715.519 24.9863C715.82 24.7423 716.041 24.5814 716.223 24.4893L715.771 23.5971L715.319 22.705C714.929 22.9023 714.564 23.1854 714.259 23.4328C713.924 23.7041 713.655 23.9376 713.355 24.1589L713.948 24.9642ZM715.771 23.5971L716.216 24.4926C716.205 24.4983 716.235 24.4809 716.355 24.4674C716.476 24.4539 716.624 24.45 716.837 24.4474C717.228 24.4427 717.814 24.4461 718.414 24.299L718.176 23.3277L717.938 22.3565C717.601 22.4389 717.256 22.4422 716.813 22.4475C716.463 22.4517 715.842 22.445 715.326 22.7017L715.771 23.5971ZM718.176 23.3277L718.423 24.2967C720.009 23.8918 721.277 22.5636 721.846 20.6033L720.886 20.3243L719.926 20.0453C719.51 21.4776 718.688 22.165 717.928 22.3588L718.176 23.3277ZM720.886 20.3243L721.846 20.6052C722.165 19.5124 721.962 18.1481 721.436 17.1459L720.551 17.6102L719.665 18.0746C719.987 18.6888 720.079 19.5197 719.926 20.0434L720.886 20.3243ZM720.551 17.6102L721.438 17.1482C721.13 16.5575 720.647 16.0322 720.314 15.6714C720.13 15.4715 719.994 15.3258 719.891 15.1996C719.766 15.0465 719.799 15.0507 719.829 15.1562L718.866 15.425L717.902 15.6939C717.996 16.0288 718.213 16.3074 718.342 16.4652C718.493 16.65 718.682 16.8516 718.844 17.0271C719.203 17.4172 719.499 17.755 719.664 18.0723L720.551 17.6102ZM718.866 15.425L719.829 15.1562C719.889 15.3705 719.808 15.4958 719.872 15.3093C719.894 15.245 719.923 15.17 719.965 15.0616C720.004 14.9599 720.053 14.835 720.101 14.7C720.294 14.1503 720.502 13.3527 720.284 12.3979L719.309 12.6212L718.334 12.8444C718.431 13.2666 718.353 13.6414 718.214 14.0347C718.179 14.1354 718.141 14.2319 718.101 14.3369C718.062 14.4351 718.017 14.5521 717.979 14.6645C717.922 14.8316 717.778 15.2501 717.902 15.6939L718.866 15.425ZM719.309 12.6212L720.284 12.3979C719.923 10.8222 718.904 9.13964 717.334 8.37046L716.894 9.26849L716.455 10.1665C717.329 10.5947 718.064 11.6662 718.334 12.8444L719.309 12.6212Z" fill="#5E6F98" mask="url(#path-29-inside-3_1410_52919)"/>
<path d="M712.338 25.7709C711.677 25.7709 710.948 25.5913 710.209 25.2421C708.947 24.6334 708.1 23.6954 707.607 22.3783C707.518 22.1388 707.439 21.9093 707.37 21.6898C707.173 21.0911 707.016 20.6222 706.651 20.1432C706.414 19.8339 706.139 19.6243 705.843 19.3948C705.508 19.1354 705.133 18.8461 704.788 18.3871C703.714 16.9801 703.547 15.3238 704.335 13.9567C705.133 12.5698 706.355 11.7017 707.755 11.5221C708.297 11.4522 708.819 11.4822 709.282 11.5021C709.706 11.5221 710.1 11.542 710.317 11.4722C710.554 11.3924 710.869 10.9733 711.165 10.5642C711.559 10.0353 712.002 9.44661 712.584 9.0874C713.786 8.35899 715.629 8.29912 716.97 8.95768C718.202 9.56635 719.197 10.9334 719.562 12.5398C719.778 13.4978 719.473 14.286 719.276 14.8149C719.207 14.9945 719.108 15.2539 719.118 15.3238C719.158 15.4535 719.453 15.7828 719.7 16.0422C720.084 16.4513 720.518 16.9203 720.784 17.4491C721.247 18.3471 721.395 19.5445 721.139 20.4226C720.636 22.1289 719.562 23.3163 718.182 23.6655C717.699 23.7852 717.226 23.7952 716.802 23.7952C716.398 23.7952 716.053 23.7952 715.836 23.915C715.501 24.0846 715.137 24.3839 714.752 24.7032C714.525 24.8928 714.299 25.0824 714.062 25.252C713.589 25.6013 713.008 25.7709 712.347 25.7709H712.338ZM708.504 12.1607C708.287 12.1607 708.06 12.1607 707.834 12.2006C706.641 12.3503 705.596 13.0986 704.907 14.306C703.98 15.9125 704.887 17.4092 705.311 17.9779C705.606 18.3671 705.912 18.6066 706.237 18.856C706.552 19.0955 706.878 19.3549 707.163 19.7241C707.597 20.2929 707.775 20.8417 707.991 21.4703C708.06 21.6799 708.129 21.8994 708.218 22.1388C708.652 23.2863 709.391 24.1045 710.485 24.6334C711.727 25.2221 712.909 25.252 713.648 24.7132C713.875 24.5436 714.102 24.364 714.309 24.1844C714.723 23.8451 715.117 23.5158 715.521 23.3163C715.876 23.1367 716.309 23.1367 716.773 23.1267C717.167 23.1267 717.581 23.1267 717.995 23.0169C719.138 22.7276 720.045 21.7198 720.468 20.243C720.675 19.5345 720.547 18.5267 720.163 17.7784C719.936 17.3393 719.532 16.9003 719.177 16.5211C718.813 16.132 718.527 15.8227 718.448 15.5333C718.369 15.2539 718.478 14.9546 718.625 14.5854C718.822 14.0865 719.059 13.4678 718.882 12.7095C718.566 11.3225 717.689 10.0952 716.654 9.58631C715.363 8.95768 713.767 9.16722 712.909 9.68609C712.436 9.97546 712.042 10.5143 711.687 10.9833C711.293 11.5221 710.948 11.9811 710.504 12.1307C710.169 12.2405 709.736 12.2205 709.233 12.1906C708.997 12.1806 708.75 12.1707 708.494 12.1707L708.504 12.1607Z" fill="#5E6F98"/>
<path d="M713.179 15.7044C712.972 15.9638 712.607 16.0037 712.361 15.8042C712.114 15.6046 712.075 15.2354 712.282 14.976C712.489 14.7166 712.854 14.6766 713.1 14.8762C713.346 15.0758 713.386 15.445 713.179 15.7044Z" fill="#C8A374"/>
<path d="M714.638 15.8127C714.431 16.0721 714.066 16.112 713.82 15.9125C713.573 15.7129 713.534 15.3437 713.741 15.0843C713.948 14.8348 714.313 14.7849 714.559 14.9945C714.805 15.194 714.845 15.5632 714.638 15.8227" fill="#C8A374"/>
<path d="M712.016 16.97C711.809 17.2295 711.444 17.2694 711.198 17.0698C710.951 16.8702 710.912 16.501 711.119 16.2416C711.326 15.9822 711.69 15.9423 711.937 16.1418C712.183 16.3414 712.223 16.7106 712.016 16.97Z" fill="#C8A374"/>
<path d="M712.41 18.3567C712.203 18.6062 711.839 18.6561 711.592 18.4565C711.346 18.257 711.306 17.8878 711.513 17.6283C711.72 17.3689 712.085 17.329 712.331 17.5286C712.578 17.7281 712.617 18.0973 712.41 18.3567Z" fill="#C8A374"/>
<path d="M713.731 17.3724C713.524 17.6318 713.159 17.6717 712.913 17.4721C712.666 17.2726 712.627 16.9034 712.834 16.644C713.041 16.3845 713.405 16.3446 713.652 16.5442C713.898 16.7437 713.937 17.1129 713.731 17.3724Z" fill="#C8A374"/>
<path d="M713.77 19.1869C713.563 19.4463 713.198 19.4862 712.952 19.2867C712.705 19.0871 712.666 18.7179 712.873 18.4585C713.08 18.1991 713.444 18.1592 713.691 18.3687C713.937 18.5683 713.977 18.9374 713.77 19.1969" fill="#C8A374"/>
<path d="M715.13 18.4682C714.923 18.7276 714.558 18.7675 714.312 18.5679C714.066 18.3684 714.026 17.9992 714.233 17.7397C714.44 17.4803 714.805 17.4404 715.051 17.6499C715.297 17.8495 715.337 18.2187 715.13 18.4781" fill="#C8A374"/>
<path d="M715.397 17.0307C715.19 17.2901 714.825 17.33 714.579 17.1304C714.332 16.9309 714.293 16.5617 714.5 16.3022C714.707 16.0428 715.071 16.0029 715.318 16.2124C715.564 16.412 715.603 16.7812 715.397 17.0406" fill="#C8A374"/>
</g>
<defs>
<clipPath id="clip0_1410_52919">
<rect width="30" height="32" fill="white" transform="translate(694 8.5)"/>
</clipPath>
</defs>
</svg>
