<svg width="764" height="49" viewBox="0 0 764 49" fill="none" xmlns="http://www.w3.org/2000/svg">
<rect width="351" height="49" rx="8" fill="#E4F2E6"/>
<path d="M13.5347 19.3784C14.3019 19 15.4038 18.3832 16.1943 17.9904C16.474 17.8177 16.7686 17.6676 17.0865 17.5031C15.806 17.8494 14.4789 18.2244 13.2134 18.5932C11.8332 18.9375 11.4911 16.9278 12.9203 16.807C14.0718 16.7624 15.2615 16.726 16.4364 16.667C15.2888 16.5188 14.1031 16.3624 12.9471 16.2511C11.5323 16.0457 12.0491 14.0451 13.4049 14.509C14.5465 14.9465 15.7114 15.3695 16.8763 15.7926C16.664 15.6698 16.4751 15.5327 16.2628 15.4099C15.5051 14.9575 14.4523 14.3066 13.6861 13.8912C12.4975 13.1338 13.8037 11.5342 14.8506 12.4743C15.7001 13.3142 16.6026 14.1848 17.5051 15.0554C16.8357 14.0409 16.1047 13.0327 15.4035 12.0695C14.6448 10.9198 16.5204 9.98404 17.0545 11.2407C17.3525 12.0403 17.774 13.1762 18.0953 13.9614C18.1612 14.111 18.2272 14.2607 18.2698 14.4247C18.0626 13.3153 17.8405 12.1833 17.6099 11.0882C17.4002 9.7265 19.5123 9.59658 19.4611 10.9607C19.3902 11.7977 19.3346 13.0059 19.2785 13.8655C19.2641 14.1916 19.2498 14.5178 19.2354 14.844C19.3261 14.5341 19.4169 14.2243 19.531 13.9C19.778 13.0813 20.1008 11.9301 20.3329 11.0888C20.751 9.78369 22.699 10.5483 22.0602 11.7676C21.1779 13.2641 20.3021 14.82 19.4495 16.3616C21.4599 17.8174 23.2903 19.4478 24.9193 21.1708C24.4492 20.1601 23.9875 19.1125 23.509 18.1388C22.9601 16.8596 24.9824 16.2457 25.2918 17.6094C25.4842 18.6963 25.7063 19.8282 25.9518 20.9458C25.9473 20.79 25.9513 20.5971 25.9468 20.4412C25.9414 19.5879 25.9355 18.3859 25.8919 17.5245C25.9048 16.1522 28.0174 16.371 27.7521 17.7087C27.4505 18.9419 27.1554 20.2346 26.8836 21.5128C27.4673 20.3593 28.0446 19.1463 28.5901 17.9846C29.2289 16.7653 31.0246 17.846 30.1736 18.9425C29.0027 20.2999 27.8298 21.7536 26.7119 23.1417C28.4262 25.1928 29.8713 27.2831 31.0723 29.302C31.0529 29.1236 31.0103 28.9596 30.991 28.7811C30.8392 27.9547 30.634 26.7488 30.4823 25.9224C30.2725 24.5606 32.3995 24.4533 32.3633 25.8399C32.2715 26.9436 32.1713 28.0842 32.1092 29.233C32.4004 28.1332 32.6766 27.0108 32.9445 25.9253C33.3244 24.6121 35.304 25.3254 34.6801 26.5672C34.2507 27.3082 33.6838 28.3879 33.2925 29.1371L32.8293 30.0259C33.0495 29.763 33.2845 29.5227 33.4814 29.2743C34.0552 28.6028 34.8641 27.691 35.4146 27.0339C36.3484 26.0132 37.8138 27.4882 36.6761 28.3491C35.2057 29.352 33.7333 30.4514 32.3075 31.5219C33.7406 34.1907 34.6728 36.5977 35.1905 38.2769C35.2545 38.523 35.1573 38.7734 34.9708 38.8885C34.9242 38.9173 34.8776 38.946 34.831 38.9748C34.5299 39.0655 34.2264 38.9038 34.1327 38.6127C33.6448 36.9785 32.7488 34.6761 31.3603 32.0749C29.6008 32.59 27.7713 33.1482 26.0416 33.7084C24.6763 34.0753 24.2727 32.0718 25.6871 31.9284C27.0082 31.8426 28.3526 31.7424 29.697 31.6422C28.3586 31.4532 27.0052 31.2416 25.7198 31.0833C24.3134 30.841 24.8833 28.8711 26.2158 29.3494C27.281 29.7705 28.3844 30.1998 29.4878 30.6292C28.5029 30.0315 27.4799 29.4257 26.4866 28.8649C25.2979 28.1075 26.6042 26.5079 27.651 27.4481C28.2521 28.0606 29.1397 28.9086 29.7641 29.5068C29.8766 29.6277 29.9976 29.7116 30.1102 29.8325C28.9687 27.9038 27.545 25.8954 25.9284 23.9427C25.2291 24.3744 24.5299 24.806 23.839 25.2008C23.0932 25.6612 22.0443 26.3087 21.2984 26.7691C20.0948 27.4804 19.1358 25.6294 20.4882 25.1436C21.7389 24.7522 23.0213 24.3095 24.3038 23.8669C22.9509 24.004 21.598 24.1411 20.2983 24.309C18.869 24.4298 18.8959 22.3826 20.3127 22.4916C21.1845 22.6197 22.4169 22.7473 23.2887 22.8754C23.4647 22.8936 23.6408 22.9119 23.8168 22.9301C22.6966 22.5746 21.5679 22.2561 20.4541 21.9601C19.1131 21.5188 19.9419 19.6429 21.194 20.2977C21.9369 20.7275 23.0363 21.3496 23.7792 21.7794C23.9383 21.8715 24.1208 21.9492 24.2949 22.0639C22.6808 20.3634 20.8886 18.7412 18.9164 17.2935C17.5268 18.4686 16.0822 19.7094 14.7456 20.9152C13.661 21.8069 12.4372 20.1511 13.6557 19.4623" fill="#F3C574"/>
<path d="M37.2467 18.5741C38.4513 18.5602 39.6325 18.5607 40.852 18.5694C39.6618 18.2571 38.4632 17.9818 37.2943 17.7515C36.0109 17.4968 36.5575 15.5412 37.7585 16.0689C38.6859 16.48 39.6514 16.8992 40.5852 17.3698C39.7466 16.7453 38.8848 16.1351 38.0145 15.5619C36.8873 14.7983 38.0939 13.1967 39.0708 14.1801C39.8588 15.0262 40.6701 15.8579 41.4347 16.7185C40.8417 15.7203 40.2337 14.6996 39.5707 13.7446C38.7971 12.5723 40.5581 11.6121 41.1135 12.9508C41.5583 14.0722 41.9649 15.1855 42.3715 16.2988C42.196 15.138 42.0056 13.9547 41.7537 12.7777C41.4761 11.3627 43.5247 11.3354 43.5182 12.7672C43.4879 13.8646 43.4576 14.962 43.3891 16.0513C43.6485 15.0028 43.8846 13.9687 44.0677 12.9039C44.3648 11.5148 46.3171 12.4353 45.7845 13.716C45.2474 14.8408 44.7251 15.9881 44.135 17.0821C44.9438 16.1703 45.7294 15.2729 46.4936 14.2935C47.3511 13.2565 48.8085 15.1172 47.7492 15.898C46.3105 16.8496 44.8867 17.8237 43.4481 18.7753C44.4056 21.0714 45.3423 23.6342 46.0945 26.2157C46.1183 25.0588 46.104 23.8937 46.0515 22.7205C46.0198 21.2806 48.0242 21.5344 47.81 22.9992C47.6036 24.0784 47.4122 25.1802 47.1676 26.2513C47.5947 25.2579 47.9835 24.2564 48.3426 23.2098C48.8455 21.8841 50.654 23.0838 49.9007 24.2785C49.1811 25.3256 48.4997 26.3808 47.7503 27.3828C48.6866 26.6144 49.608 25.8235 50.523 24.9731C50.8831 24.6239 51.4643 24.7093 51.7851 25.1458C52.1655 25.6725 52.0182 26.4932 51.5222 26.7359C49.9581 27.4476 48.4004 28.2188 46.8511 28.9531C46.8045 28.9819 47.7927 33.5118 47.9038 34.0778C47.9509 34.3977 48.0744 34.7339 48.0367 35.0745C48.0009 35.3186 47.8804 35.5834 47.573 35.6146C47.1425 35.6582 46.9531 35.1723 46.9293 34.838C46.7344 33.4988 45.895 29.1944 45.8335 29.2006C44.0988 29.2562 42.3706 29.3712 40.6339 29.5232C39.3212 29.5721 39.3694 27.607 40.6548 27.7653C41.832 27.9586 43.0178 28.115 44.2184 28.294C43.1085 27.8052 41.9521 27.3452 40.8403 26.9528C39.6223 26.499 40.4659 24.6456 41.5867 25.3498C42.4421 25.9005 43.3124 26.4737 44.1743 27.0838C43.4458 26.3279 42.694 25.5863 41.9254 24.9186C40.94 23.9722 42.3802 22.5755 43.2004 23.719C43.8252 24.6659 44.5115 25.6065 45.1279 26.5903C44.3757 24.0088 43.4539 21.4685 42.4964 19.1724C40.8023 19.4884 39.0999 19.8414 37.4271 20.2395C36.1487 20.4893 35.8661 18.5697 37.1787 18.5209" fill="#F3C574"/>
<path d="M63.04 21.28C62.96 21.28 62.92 21.24 62.92 21.2C62.4 20.8 62.24 19.8 62.24 19.2C62.2 18.24 62.08 17.28 62.08 16.36C62.08 15 62.04 13.36 62.28 12.04C62.44 11.2 62.76 10.72 63.56 10.4C64.28 10.12 65.04 10.04 65.8 9.96C66.72 9.88 67.68 9.96 68.64 9.96H76.24C78.96 9.96 78.6 9.96 81.28 9.92C81.76 9.92 82.2 9.92 82.68 9.96C83.68 10 84.8 10.04 85.72 10.48C86.76 10.92 87.08 12.04 87.12 13.08C87.2 14.28 87.08 15.8 87.08 17C87.04 18.08 87.08 19.16 86.8 20.2C86.64 20.8 86.52 21.28 85.88 21.48C85.32 21.68 84.6 21.72 84.04 21.72H66.76C66.24 21.72 65.72 21.68 65.2 21.64C64.52 21.6 63.64 21.68 63.04 21.28ZM85.24 28.92C82.6 29 80.52 29.08 77.84 29.08C77.8 30.2 77.72 31.24 77.72 32.76C77.48 33.88 76 34.56 74.92 34.52C73.32 34.44 72.44 33.8 72.28 32.2C72.16 31.16 72.32 30.04 72.32 29C69.88 29 63.48 28.92 61.24 28.76C60.4 28.68 60 28.64 59.32 28C58.96 27.68 58.8 27.08 58.8 26.52C58.8 26 59 25.48 59.32 25.16C60.12 24.32 62.08 24.36 62.16 24.36H85.04C85.84 24.36 86.64 24.36 87.4 24.4C88.12 24.44 88.92 24.56 89.48 25.08C90.04 25.52 90.04 26.04 90.04 26.68C90.04 27.48 89.56 28.16 88.76 28.44C87.68 28.84 86.36 28.88 85.24 28.92ZM86.36 36.48C86.44 36.52 87.92 36.88 88.08 38C88.24 39 88.08 39.8 87.6 40.36C87 41.12 86.12 41.16 86.08 41.16H64.24C62.2 41.16 60.96 40.44 60.96 39.24V35.68C60.92 35.08 60.92 34.48 60.96 33.88C61.04 32.76 61.88 32 63 32C63.28 32 63.84 32.04 64.08 32.12C65.44 32.56 65.52 33.92 65.6 35.12C65.6 35.56 65.64 36.04 65.76 36.4C65.88 36.44 66.68 36.56 68.56 36.56C70.16 36.56 71.64 36.48 71.68 36.48H86.36ZM66.84 16.6C66.84 16.84 66.84 17.12 66.96 17.24C67.2 17.44 68.12 17.32 68.12 17.32H78.64C78.64 17.32 80.56 17.48 81.52 17.36C82.08 17.32 82.08 17.08 82.16 16.6C82.2 16.16 82.28 15.24 81.96 14.84C81.6 14.4 80.76 14.48 80.28 14.52H76.64C76.28 14.48 71.44 14.52 71.08 14.52C69.96 14.44 68.84 14.48 67.68 14.52C67.2 14.52 67.04 14.44 66.92 14.92C66.84 15.28 66.84 15.92 66.84 16.24V16.6ZM95.2516 33.72C95.4516 33.64 99.1316 33.8 99.8116 33.8C99.8516 33.16 99.9316 30.52 100.012 29.2C99.5316 29.08 99.0916 28.96 98.6516 28.76C95.6516 27.52 93.3316 25.08 93.3316 21.56C93.3316 19.64 93.8916 18.16 94.8116 17H94.3716C93.0916 17 92.0116 16.04 92.0116 14.88C92.0116 13.68 93.0916 12.72 94.3716 12.72H99.6516V11.08C99.6516 10.04 100.692 9.28 101.972 9.28C103.292 9.28 104.332 10.04 104.332 11.08V12.72H109.852C111.172 12.72 112.252 13.68 112.252 14.88C112.252 16.04 111.172 17 109.852 17H109.732C110.652 18.16 111.252 19.64 111.252 21.56C111.252 24.04 110.052 26.08 108.052 27.6C107.052 28.32 105.932 28.84 104.772 29.16C104.852 30.4 104.852 33.16 104.852 33.76V33.8H110.172C111.052 33.8 111.772 33.96 112.292 34.28C113.492 35 113.452 36.96 112.932 37.92C112.452 38.76 111.412 38.84 110.572 38.84H94.7716C94.7316 38.84 93.3716 38.72 92.6516 38.4C92.1316 38.12 91.7316 37.52 91.6116 36.76C91.4916 35.92 91.7716 35.12 92.2916 34.64C93.2516 33.84 94.3316 33.72 95.2516 33.72ZM121.772 22.96H121.852C122.132 22.92 122.372 23 122.612 23C122.932 23.04 123.212 23.08 123.532 23.12C124.132 23.24 124.772 23.48 125.092 24.08C125.252 24.4 125.332 24.76 125.332 25.16C125.332 25.52 125.332 25.92 125.252 26.28C125.132 26.68 125.012 27.24 124.692 27.52C124.372 27.76 123.972 27.96 123.572 28.04C122.732 28.16 121.292 28.04 120.452 28.08C120.372 28.12 120.332 28.12 120.332 28.12C120.332 28.12 120.332 28.16 120.292 28.28C120.252 29.6 120.292 30.76 120.292 32.12C120.332 33.48 120.332 34.88 120.292 36.2V36.76C120.292 38.16 120.332 40.2 119.372 41.2C119.012 41.52 118.572 41.72 118.052 41.72H117.972C115.372 41.6 115.132 38.48 115.132 36.8V13.04C115.132 12.96 115.052 10.96 115.932 10.08C116.332 9.72 117.172 9.52 117.732 9.52C118.332 9.52 118.892 9.76 119.252 10.12C119.932 10.88 120.012 11.72 120.052 12.6C120.092 12.76 120.092 12.92 120.132 13.12C120.212 13.96 120.212 14.96 120.252 15.92C120.252 16.52 120.292 17.08 120.292 17.64V21.96C120.292 22.24 120.292 22.56 120.372 22.84C120.372 22.88 121.172 22.88 121.252 22.92C121.412 22.92 121.612 22.96 121.772 22.96ZM103.052 24.76C104.772 24.44 106.252 23.6 106.252 21.56C106.252 19.2 104.292 18.32 102.332 18.28C100.332 18.2 98.3316 19.04 98.3316 21.56C98.3316 24.44 100.852 25.2 103.052 24.76ZM162.553 38.44C163.393 38.52 164.113 38.8 164.353 39.64C164.673 40.6 164.313 41.28 163.313 41.68C162.673 41.92 161.993 41.96 161.433 41.96H142.833C141.753 41.96 140.593 41.92 139.433 41.88C138.313 41.84 137.513 41 137.393 39.8L137.273 37C137.233 36.44 137.193 35.48 137.673 34.96C138.393 34.16 139.833 34.04 140.993 34.04C142.513 34.04 147.593 34.08 159.793 34.08V32.64H140.113C139.593 32.64 139.153 32.64 138.753 32.56C138.273 32.44 137.873 32.44 137.633 32C137.273 31.44 137.153 30.92 137.353 30.28C137.633 29.44 138.833 29.32 139.433 29.24C139.833 29.16 140.233 29.12 140.673 29.12C143.073 29.12 145.873 29.16 160.193 29.16C162.873 29.16 164.393 29.96 164.393 31.8V34.64C164.393 35.36 164.073 36.16 163.233 36.64C162.553 37.04 161.833 37 161.153 37H142.193V38.44H162.553ZM137.633 15.2C137.553 13.88 137.353 12.48 137.793 11.32C138.393 9.88 139.913 9.64 141.233 9.64H159.873C160.953 9.64 161.873 9.68 162.913 10.08C163.753 10.44 164.273 11.28 164.233 12.2C164.153 13.12 163.593 13.84 162.713 14.04C162.233 14.16 161.513 14.24 160.553 14.24C159.873 14.24 159.393 14.2 159.353 14.2H147.793C146.993 14.2 146.193 14.24 145.393 14.2C144.753 14.16 144.073 13.96 143.473 14.16C142.873 14.32 142.913 15 143.073 15.68C143.833 15.8 144.593 15.8 145.353 15.84H152.953C153.433 15.88 156.593 15.88 156.993 15.84C157.313 15.8 159.513 15.8 159.833 15.8C161.073 15.8 162.153 16 162.993 16.4C163.513 16.68 163.873 16.88 163.993 17.52C164.153 18.16 164.033 18.84 163.633 19.32C162.873 20.32 161.913 20.36 160.793 20.4C159.753 20.44 153.873 20.48 152.233 20.48C150.553 20.48 147.153 20.44 145.593 20.44C143.833 20.4 142.073 20.32 140.313 20.32C137.713 20.32 137.713 18.56 137.713 16.32C137.713 15.96 137.673 15.56 137.633 15.2ZM138.993 22.64C139.793 22.56 141.553 22.56 141.553 22.56H150.353C150.353 22.56 157.753 22.48 161.353 22.56H161.553C162.633 22.6 163.713 22.52 164.753 22.92C165.513 23.2 165.993 23.88 165.993 24.68C165.993 25.32 165.713 25.92 165.193 26.36C164.353 27.12 162.993 27.08 161.913 27H138.953C138.873 27 136.993 27.04 136.233 26.2C135.913 25.88 135.753 25.36 135.753 24.84C135.753 24.28 135.953 23.8 136.273 23.48C136.953 22.8 137.713 22.76 138.513 22.68C138.673 22.68 138.833 22.64 138.993 22.64ZM191.589 14.52C191.629 13.16 191.589 11.04 192.549 10.08C192.909 9.72 193.349 9.56 193.829 9.56H193.909C196.549 9.68 196.789 12.8 196.789 14.48V38.2C196.789 38.28 196.869 40.32 195.949 41.16C195.589 41.52 194.749 41.76 194.189 41.76C193.589 41.76 193.029 41.52 192.669 41.12C191.989 40.36 191.869 39.68 191.789 38.8C191.789 37.88 191.709 34.68 191.749 33.2H189.269C188.069 33.2 187.429 32.8 187.149 32.2C186.989 31.88 186.829 31.52 186.829 31.16C186.829 30.8 186.829 30.56 186.909 30.2C187.029 29.8 187.149 29.24 187.469 28.96C187.789 28.72 188.189 28.52 188.589 28.44C189.429 28.28 190.749 28.32 191.629 28.2C191.629 27.4 191.629 24.92 191.589 23.16L189.189 23.08C188.189 23.04 187.309 22.88 187.029 22.28C186.869 21.96 186.749 21.56 186.749 21.2C186.749 20.84 186.749 20.6 186.829 20.24C186.949 19.84 187.069 19.36 187.389 19.08C187.709 18.84 188.109 18.64 188.509 18.56C189.109 18.44 190.149 18.44 191.549 18.36C191.549 16.6 191.549 15.04 191.589 14.52ZM177.029 9.56C177.709 9.56 178.349 9.64 178.989 9.72C179.989 9.88 180.909 10.36 181.669 11.12C184.269 13.84 184.829 18.52 184.989 22.32C185.109 24.76 185.069 27.24 184.789 29.64C184.509 32.12 184.149 34.8 182.829 36.84C181.709 38.56 179.949 39.68 178.149 40.04C176.509 40.36 174.709 40.16 173.189 39.28C171.749 38.44 170.789 37.12 170.069 35.44C169.549 34.2 169.229 32.84 169.149 31.48C168.949 29.24 168.869 27 168.869 24.76C168.869 23.24 168.869 21.76 169.029 20.28C169.109 19.08 169.309 17.84 169.509 16.68C169.709 15.72 169.829 14.88 170.229 14C170.629 13.12 171.149 12.28 171.829 11.64C172.989 10.48 174.509 9.84 176.029 9.64C176.349 9.6 176.709 9.6 177.029 9.56ZM176.909 34.72C177.389 34.72 177.909 34.56 178.389 34.24C179.269 33.6 179.589 32.48 179.829 31.2C180.269 28.76 180.229 25.8 180.149 23.28C180.109 21.24 180.069 18.6 179.109 16.96C178.589 16.08 177.789 15.52 176.949 15.64C176.069 15.72 175.269 16.28 174.789 17.32L174.429 18.16C174.109 19.16 173.949 20.28 173.869 21.36C173.789 22.44 173.709 23.56 173.709 24.64C173.749 25.72 173.629 26.72 173.709 27.76C173.909 30.52 174.269 34.68 176.909 34.72ZM216.772 34.8C218.332 34.8 219.772 35.16 219.972 36.88C220.172 38.6 218.412 39.64 216.972 39.72C215.852 39.76 210.492 39.72 207.892 39.72H207.572C206.372 39.68 204.972 39.68 203.772 39.32C202.932 39.08 202.092 38.32 201.692 37.4C201.172 36.24 201.292 33.76 201.292 33.64V16.64C201.252 16.36 200.972 13.52 201.772 12.2C202.452 11.08 205.492 11.04 205.772 11.04H215.132C215.292 11.04 218.652 10.92 219.172 12.6C219.372 13.2 219.332 14.64 219.092 15.08C218.892 15.44 218.532 15.68 218.092 15.8C217.612 15.92 216.852 16 215.812 16C215.132 16 214.612 15.96 209.692 15.96C208.972 15.96 208.052 16 207.692 16.16C206.932 16.48 206.972 18.24 207.052 18.84V18.88L207.212 32.72C207.212 33.76 207.612 34.52 208.852 34.52C209.132 34.56 213.252 34.8 216.772 34.8ZM227.412 21.88L230.572 22.16C231.532 22.36 232.372 23 232.372 24.16C232.372 24.56 232.372 24.92 232.252 25.32C232.092 26.2 231.612 26.96 230.612 26.96L227.332 27C227.252 29.76 227.332 34 227.332 37.32C227.332 38.72 227.292 41.68 224.932 41.84C222.332 42 222.132 39.44 222.132 37.76V13.2C222.132 13.12 222.092 11.12 222.972 10.24C223.332 9.88 224.172 9.68 224.772 9.68C225.372 9.68 225.892 9.92 226.252 10.28C226.972 11.04 227.012 11.88 227.092 12.76C227.332 15.68 227.412 18.84 227.412 21.88ZM260.615 34.52C260.775 34.56 260.935 34.52 261.095 34.52C261.975 34.6 262.775 34.8 263.495 35.44C263.855 35.8 264.055 36.28 264.055 36.84C264.055 37.4 263.855 38.2 263.535 38.56C262.695 39.4 260.735 39.32 260.655 39.32H238.255C238.015 39.32 237.735 39.36 237.455 39.36C236.335 39.4 234.895 39.48 234.015 38.72C233.495 38.24 233.175 37.64 233.175 37C233.175 36.2 233.695 35.2 234.495 34.88C235.575 34.48 236.735 34.56 237.895 34.52H238.095C240.375 34.48 242.855 34.48 245.255 34.52L245.215 29C243.175 29.04 241.495 29.04 240.535 28.96C239.415 28.92 237.935 28.88 237.015 28.2C235.815 27.28 235.775 24.36 235.775 24.24V15.64C235.775 14.6 235.615 13.48 235.815 12.44C236.095 11.2 237.615 10.88 238.815 10.8C239.735 10.76 241.095 11 241.295 12.08C241.375 12.56 241.215 15.6 241.415 16.04C241.535 16.32 242.095 16.36 242.375 16.4C243.615 16.48 244.015 16.36 245.255 16.36L254.415 16.4C254.975 16.44 255.415 16.44 255.575 15.88C255.615 15.32 255.615 12.96 255.655 12.52C255.695 11.56 255.975 11 256.975 10.8C258.015 10.56 259.495 10.64 260.095 11.24C260.935 12.12 260.895 13.16 260.895 15.24C260.815 17.68 261.015 23.56 260.775 26C260.655 27.56 259.775 28.56 258.255 28.8C257.455 28.92 256.375 28.88 255.575 28.88C253.855 28.92 252.215 28.92 250.615 28.92L250.695 34.52C253.415 34.52 255.295 34.44 257.895 34.52C258.855 34.56 259.775 34.44 260.615 34.52ZM241.415 23.84C241.615 24.64 242.775 24.64 243.655 24.68C244.055 24.64 252.175 24.56 252.655 24.64C253.095 24.68 253.535 24.64 253.975 24.68C254.535 24.72 255.495 24.92 255.495 24.04C255.495 23.64 255.575 22 255.375 21.24C255.215 20.6 254.855 20.64 254.335 20.68C254.095 20.68 253.335 20.72 253.095 20.68H243.975C242.975 20.64 241.495 20.44 241.375 21.68C241.375 21.96 241.375 23.64 241.415 23.84ZM295.356 38.72C295.276 39.36 295.236 39.96 295.036 40.6C294.956 40.8 294.876 40.96 294.796 41.16C294.636 41.48 294.396 41.8 294.076 42.04C293.476 42.4 292.716 42.48 292.036 42.32C291.636 42.24 291.276 42.08 290.996 41.84C290.036 40.96 290.076 38.88 290.076 38.8V14.08C290.036 12.84 290.076 10.84 290.836 10.12C291.396 9.56 292.076 9.48 292.796 9.48C293.716 9.48 294.556 10.04 294.876 10.92C295.356 12.04 295.316 13.28 295.356 14.52V14.72C295.476 18.8 295.356 23.32 295.356 27.16V37.28C295.356 37.76 295.396 38.24 295.356 38.72ZM276.476 34.8C276.436 34.16 276.436 33.52 276.436 32.88V20.16C276.436 19.32 276.436 18.44 276.356 17.56C276.316 17.28 276.276 16.68 275.996 16.56C275.716 16.4 275.356 16.48 275.036 16.44C274.676 16.4 274.316 16.48 273.956 16.44H272.076C271.196 16.48 270.236 16.4 269.356 16.44C268.956 16.48 268.596 16.44 268.196 16.44C267.596 16.44 266.916 16.44 266.396 16.08C265.636 15.56 265.436 14.68 265.436 13.84C265.396 13.32 265.516 12.8 265.756 12.32C265.876 12.04 266.036 11.8 266.276 11.64C266.556 11.36 267.156 11.16 267.516 11.08C268.636 10.8 269.916 10.84 271.076 10.84H278.036C278.716 10.92 279.556 11 280.196 11.24C280.596 11.4 281.076 11.68 281.316 12.04C281.796 12.8 281.796 13.52 281.876 14.4C281.996 15.88 281.956 17.36 281.956 18.84V31.96C281.956 32.08 282.036 35.4 281.956 37.08C281.876 38.16 281.636 39.48 280.236 40C279.756 40.2 279.276 40.28 278.876 40.28C278.196 40.28 277.396 40 277.116 39.4C276.716 38.6 276.476 37.6 276.476 36.56V34.8Z" fill="#48724B"/>
<circle cx="322" cy="24.5" r="17" fill="#A0C0A6"/>
<path d="M324.554 33.176H321.226V18.174L316.962 20.618L315.35 17.914L321.616 14.43H324.554V33.176Z" fill="white"/>
<path d="M387.92 25C388.8 25.04 389.8 25.2 390.56 25.8C390.92 26.08 391.12 26.56 391.12 27.04C391.12 27.56 390.92 28.24 390.6 28.52C389.76 29.32 387.68 29.24 387.6 29.24L366.28 29.28C365.08 29.32 363.6 29.4 362.72 28.68C362.12 28.24 361.8 27.8 361.8 27.2C361.8 26.48 362.36 25.56 363.2 25.28C364.32 24.92 365.52 25.04 366.72 25C369.32 24.92 370.16 25 372.84 25V22.72C370.64 22.68 368.32 22.64 367.32 22.6C366 22.64 363.72 22.44 363.32 21C363.04 19.8 362.92 19.96 362.92 18.72V14.44C362.88 14.52 362.8 12.52 363.48 11.44C364.16 10.32 366.6 10.28 366.88 10.28H384.48C385.6 10.28 386.84 10.2 387.92 10.6C388.8 10.96 389.08 11.92 389.04 12.88C388.96 13.76 388.36 14.48 387.44 14.72C386.96 14.84 386.2 14.88 385.2 14.88C384.52 14.88 383.96 14.84 383.96 14.84H369.8C369.52 14.8 368.92 14.8 368.64 14.96C368.36 15.08 368.4 17.64 368.52 17.92C368.72 18.28 369.6 18.24 370.16 18.2C371.44 18.16 373.84 18.2 381.88 18.2H384.84C386.16 18.2 387.28 18.12 388.16 18.56C388.68 18.8 389.08 19.32 389.24 19.92C389.36 20.56 389.2 21.24 388.84 21.72C388 22.76 387 22.6 385.84 22.64C384.96 22.68 380.92 22.72 378.44 22.72C378.48 23.48 378.52 24.36 378.52 25C381.48 25 385.64 24.88 387.92 25ZM363.08 36.68C363.08 32.16 368.96 31.08 376.16 31.08C383.4 31.08 389.28 31.64 389.28 36.68C389.28 41.64 383.4 42.28 376.16 42.28C368.96 42.28 363.08 41.64 363.08 36.68ZM384 36.68C384 34.96 379.84 35 376.16 35C372.52 35 368.6 34.96 368.6 36.68C368.6 38.2 372.52 38.36 376.16 38.36C379.84 38.36 384 38.68 384 36.68ZM401.898 9.56C402.578 9.56 403.218 9.64 403.858 9.72C404.858 9.88 405.778 10.36 406.538 11.12C409.138 13.84 409.538 18.52 409.698 22.32C409.818 24.76 409.818 27.24 409.538 29.64C409.258 32.12 408.898 34.8 407.578 36.84C406.458 38.56 404.818 39.68 403.018 40.04C401.378 40.36 399.578 40.16 398.058 39.28C396.618 38.44 395.818 37.12 395.098 35.44C394.577 34.2 394.258 32.84 394.178 31.48C393.978 29.24 393.898 27 393.898 24.76C393.898 23.24 393.978 21.76 394.138 20.28C394.218 19.08 394.338 17.84 394.538 16.68C394.738 15.72 394.858 14.88 395.258 14C395.658 13.12 396.178 12.28 396.858 11.64C398.018 10.48 399.378 9.84 400.898 9.64C401.218 9.6 401.578 9.6 401.898 9.56ZM421.818 21.84H421.898C422.138 21.84 422.378 21.92 422.658 21.92C422.938 21.96 423.258 22 423.578 22.04C424.178 22.16 424.818 22.4 425.098 23C425.298 23.32 425.378 23.68 425.378 24.04C425.378 24.44 425.378 24.8 425.258 25.2C425.178 25.6 425.058 26.16 424.698 26.44C424.378 26.68 424.018 26.88 423.618 26.96C422.778 27.08 421.338 26.96 420.498 27C420.418 27 420.378 27.04 420.378 27.04C420.378 27.04 420.338 27.04 420.338 27.2C420.298 28.52 420.338 30.92 420.338 32.28C420.378 33.64 420.378 35.04 420.338 36.36V36.92C420.338 38.32 420.338 40.36 419.378 41.32C419.058 41.68 418.618 41.88 418.098 41.88C418.098 41.88 418.058 41.84 418.018 41.84C415.418 41.76 415.138 38.64 415.138 36.96V13.2C415.138 13.12 415.098 11.12 415.978 10.24C416.338 9.88 417.178 9.68 417.778 9.68C418.378 9.68 418.898 9.92 419.258 10.28C419.978 11.04 420.018 11.88 420.098 12.76C420.138 12.92 420.138 13.08 420.138 13.24C420.258 14.12 420.258 15.12 420.298 16.08C420.298 16.68 420.338 17.2 420.338 17.8C420.298 18.12 420.338 18.4 420.338 18.68V20.88C420.338 21.16 420.338 21.48 420.418 21.76C420.418 21.8 421.218 21.8 421.258 21.8C421.458 21.84 421.618 21.88 421.818 21.84ZM401.778 34.72C402.258 34.72 402.778 34.56 403.258 34.24C404.138 33.6 404.458 32.48 404.698 31.2C405.138 28.76 405.098 25.8 405.018 23.28C404.978 21.24 404.938 18.6 403.978 16.96C403.458 16.08 402.658 15.52 401.818 15.64C400.938 15.72 400.098 16.28 399.618 17.32L399.258 18.16C398.938 19.16 398.778 20.28 398.698 21.36C398.618 22.44 398.538 23.56 398.538 24.64C398.578 25.72 398.458 26.72 398.538 27.76C398.738 30.52 399.138 34.68 401.778 34.72ZM432.821 28.2C431.781 28.44 432.101 29.6 432.101 30.32C432.101 30.96 432.101 32.52 432.181 33.24C432.181 33.56 432.101 34.28 432.341 34.52C432.341 34.6 432.501 34.68 432.581 34.68C433.781 34.68 435.461 34.68 436.661 34.6C438.541 34.6 440.701 34.52 442.541 34.68C443.261 34.76 443.661 35.08 443.901 35.48C444.221 35.88 444.301 36.44 444.301 37C444.381 37.64 444.141 38.24 443.901 38.56C443.661 38.88 443.261 39.12 442.861 39.36C441.821 39.84 440.781 39.68 439.661 39.76C438.701 39.76 437.341 39.84 436.341 39.76C435.541 39.68 434.421 39.76 433.701 39.76C432.981 39.68 432.261 39.76 431.541 39.76C430.261 39.68 428.901 39.6 427.861 38.88C427.421 38.64 427.181 38.24 427.021 37.8C426.701 37.16 426.541 36.28 426.621 35.56C426.701 33.16 426.541 29.84 426.541 27.32C426.541 26.36 426.381 25.16 426.861 24.36C427.781 22.84 429.301 23.16 430.741 23.16H434.421C435.061 23.16 436.821 23.16 437.501 23C437.741 22.92 437.901 22.76 437.981 22.52C438.221 21.16 438.221 19.32 438.141 17.96C438.141 17.4 438.221 16.28 437.901 15.8C437.741 15.56 437.341 15.4 436.661 15.4L429.221 15.48C428.501 15.48 427.421 15.32 426.941 14.76C426.781 14.52 426.621 14.28 426.461 13.88C426.061 12.44 426.781 11.12 428.261 10.8C429.541 10.56 430.821 10.72 432.101 10.64H438.141C439.181 10.64 440.381 10.56 441.421 10.88C441.981 11.04 442.461 11.44 442.861 12.08C442.941 12.32 443.021 12.52 443.101 12.84C443.181 13.08 443.261 13.32 443.261 13.56C443.341 14.44 443.341 15.88 443.341 16.68C443.341 18.36 443.421 20.4 443.421 22.12C443.421 23.88 443.501 25.64 443.021 26.84C442.781 27.32 442.381 27.72 441.901 27.88C441.021 28.28 439.821 28.12 438.941 28.12C437.741 28.12 435.621 28.2 434.661 28.2C433.781 28.2 433.701 28.04 432.821 28.2ZM454.621 37.96C454.541 38.6 454.501 39.2 454.301 39.84C454.221 40.04 454.141 40.2 454.061 40.4C453.901 40.72 453.661 41.04 453.341 41.28C452.741 41.64 451.981 41.72 451.301 41.56C450.901 41.48 450.541 41.32 450.261 41.08C449.301 40.2 449.341 38.12 449.341 38.04V14.48C449.301 13.24 449.341 11.24 450.101 10.52C450.661 9.96 451.341 9.88 452.061 9.88C452.981 9.88 453.821 10.44 454.141 11.32C454.621 12.44 454.581 13.68 454.621 14.92V15.12C454.741 19.2 454.621 22.56 454.621 26.4V36.52C454.621 37 454.661 37.48 454.621 37.96ZM470.003 23C471.083 23 472.403 23.08 473.923 23.12C473.923 22.56 473.923 22.04 473.963 21.52C473.923 21.52 473.883 21.52 473.843 21.48C471.163 20.4 469.043 19.24 469.043 16.04C469.043 15.28 469.123 14.6 469.323 14C468.043 14 467.003 13.04 467.003 11.84C467.003 10.68 468.083 9.72 469.363 9.72H474.643V8.4C474.643 7.4 475.683 6.56 476.963 6.56C478.243 6.56 479.323 7.4 479.323 8.4V9.72H484.843C486.163 9.72 487.243 10.68 487.243 11.84C487.243 13.04 486.203 13.96 484.923 14C485.083 14.6 485.203 15.28 485.203 16.04C485.203 18.28 484.563 19.24 482.723 20.56C481.803 21.24 480.563 21.64 479.243 21.8V23.04V23.24C481.243 23.24 480.923 23.12 483.763 23.2C484.763 23.2 485.723 23.12 486.643 23.52C487.323 23.84 487.763 24.6 487.763 25.44C487.763 26.12 487.483 26.36 487.043 26.84C486.283 27.64 485.083 27.6 484.123 27.52H470.003C469.923 27.52 468.243 27.56 467.603 26.64C467.283 26.32 467.123 26 467.123 25.44C467.123 24.88 467.323 24.48 467.603 24.12C468.203 23.44 469.323 23.08 470.003 23ZM494.083 38.44C494.923 38.52 495.643 38.8 495.883 39.64C496.203 40.6 495.843 41.28 494.843 41.68C494.203 41.92 493.523 41.96 492.963 41.96H474.363C473.283 41.96 472.123 41.92 470.963 41.88C469.843 41.84 469.043 41 468.923 39.8L468.803 37C468.763 36.44 468.723 35.48 469.203 34.96C469.923 34.16 471.363 34.04 472.523 34.04C474.043 34.04 479.123 34.08 491.323 34.08V32.64H471.643C471.123 32.64 470.683 32.64 470.283 32.56C469.803 32.44 469.403 32.44 469.163 32C468.803 31.44 468.683 30.92 468.883 30.28C469.163 29.44 470.363 29.32 470.963 29.24C471.363 29.16 471.763 29.12 472.203 29.12C474.603 29.12 477.403 29.16 491.723 29.16C494.403 29.16 495.923 29.96 495.923 31.8V34.64C495.923 35.36 495.603 36.16 494.763 36.64C494.083 37.04 493.363 37 492.683 37H473.723V38.44H494.083ZM490.363 24.44V14.16C490.323 12.96 490.363 11 491.043 10.32C491.643 9.8 492.243 9.72 492.963 9.72C493.843 9.72 494.643 10.28 494.963 11.08C495.403 12.2 495.363 13.4 495.403 14.56C495.403 15.88 495.403 16.92 495.443 17.88C496.603 17.88 497.723 17.92 498.403 17.96C499.803 18.04 500.763 20.16 499.923 21.24C499.163 22.32 497.283 22.48 495.483 22.4V24C495.483 25.12 495.283 25.6 495.083 26.2C495.043 26.36 494.963 26.52 494.883 26.72C494.723 27.04 494.483 27.36 494.163 27.56C493.603 27.92 492.883 28 492.203 27.88C491.883 27.8 491.523 27.64 491.243 27.4C490.323 26.52 490.363 24.52 490.363 24.44ZM476.803 17.8C478.323 17.88 480.403 17.88 480.403 16.04C480.403 14.56 479.603 14.12 478.563 14H475.283C474.323 14.16 473.603 14.64 473.603 16.04C473.683 17.8 475.243 17.88 476.803 17.8ZM526.748 25C527.628 25.04 528.628 25.2 529.388 25.8C529.748 26.08 529.948 26.56 529.948 27.04C529.948 27.56 529.748 28.24 529.428 28.52C528.588 29.32 526.508 29.24 526.428 29.24L505.108 29.28C503.908 29.32 502.428 29.4 501.548 28.68C500.948 28.24 500.628 27.8 500.628 27.2C500.628 26.48 501.188 25.56 502.028 25.28C503.148 24.92 504.348 25.04 505.548 25C508.148 24.92 508.988 25 511.668 25V22.72C509.468 22.68 507.148 22.64 506.148 22.6C504.828 22.64 502.548 22.44 502.148 21C501.868 19.8 501.748 19.96 501.748 18.72V14.44C501.708 14.52 501.628 12.52 502.308 11.44C502.988 10.32 505.428 10.28 505.708 10.28H523.308C524.428 10.28 525.668 10.2 526.748 10.6C527.628 10.96 527.908 11.92 527.868 12.88C527.788 13.76 527.188 14.48 526.268 14.72C525.788 14.84 525.028 14.88 524.028 14.88C523.348 14.88 522.788 14.84 522.788 14.84H508.628C508.348 14.8 507.748 14.8 507.468 14.96C507.188 15.08 507.228 17.64 507.348 17.92C507.548 18.28 508.428 18.24 508.988 18.2C510.268 18.16 512.668 18.2 520.708 18.2H523.668C524.988 18.2 526.108 18.12 526.988 18.56C527.508 18.8 527.908 19.32 528.068 19.92C528.188 20.56 528.028 21.24 527.668 21.72C526.828 22.76 525.828 22.6 524.668 22.64C523.788 22.68 519.748 22.72 517.268 22.72C517.308 23.48 517.348 24.36 517.348 25C520.308 25 524.468 24.88 526.748 25ZM501.908 36.68C501.908 32.16 507.788 31.08 514.988 31.08C522.228 31.08 528.108 31.64 528.108 36.68C528.108 41.64 522.228 42.28 514.988 42.28C507.788 42.28 501.908 41.64 501.908 36.68ZM522.828 36.68C522.828 34.96 518.668 35 514.988 35C511.348 35 507.428 34.96 507.428 36.68C507.428 38.2 511.348 38.36 514.988 38.36C518.668 38.36 522.828 38.68 522.828 36.68Z" fill="#48724B"/>
<g clip-path="url(#clip0_1119_195863)">
<path d="M542.988 17.8C540.84 18.7579 541.165 21.2524 540.613 22.0307C540.061 22.809 537.607 23.5973 537.381 26.2415C537.144 28.8857 538.938 28.756 539.726 29.9035C540.505 31.051 539.992 33.8648 543.373 34.4236C546.753 34.9824 546.862 32.1785 548.212 31.8792C549.562 31.5898 552.735 31.6497 554.48 29.5144C556.185 27.4189 554.667 24.9543 554.381 24.0762C554.096 23.1882 554.618 20.8633 553.14 19.6958C551.661 18.5384 550.203 19.7058 548.971 19.0672C547.739 18.4286 545.157 16.8421 543.008 17.8" fill="#D1E8CF"/>
<path d="M544.206 34.8633C543.93 34.8633 543.635 34.8433 543.309 34.7834C540.638 34.3344 540.175 32.5583 539.84 31.2611C539.722 30.8121 539.613 30.3831 539.426 30.1136C539.219 29.8043 538.894 29.5848 538.559 29.3653C537.8 28.8564 536.844 28.2178 537.022 26.2122C537.209 24.1367 538.638 23.109 539.594 22.4205C539.919 22.181 540.205 21.9814 540.333 21.8118C540.461 21.6322 540.54 21.243 540.638 20.8339C540.875 19.7264 541.21 18.1997 542.856 17.4613C544.965 16.5234 547.35 17.7906 548.769 18.5489L549.134 18.7385C549.568 18.968 550.07 18.9082 550.642 18.8483C551.47 18.7585 552.406 18.6487 553.362 19.3971C554.535 20.3151 554.584 21.8417 554.623 22.9493C554.633 23.3584 554.653 23.7376 554.722 23.9471C554.761 24.0768 554.83 24.2465 554.919 24.4361C555.422 25.6135 556.348 27.7987 554.761 29.7345C553.273 31.5505 550.859 31.8698 549.262 32.0793C548.887 32.1292 548.552 32.1691 548.296 32.229C547.951 32.3088 547.685 32.6481 547.35 33.0871C546.759 33.8455 545.98 34.8533 544.226 34.8533L544.206 34.8633ZM543.142 18.1398C541.821 18.7285 541.555 19.9858 541.338 20.9936C541.23 21.5025 541.131 21.9415 540.914 22.2508C540.727 22.5103 540.392 22.7497 540.018 23.0291C539.131 23.6677 537.909 24.5458 537.751 26.282C537.613 27.8586 538.244 28.2777 538.963 28.7566C539.347 29.0061 539.742 29.2755 540.027 29.7045C540.284 30.0737 540.412 30.5627 540.54 31.0815C540.875 32.3687 541.23 33.7058 543.428 34.075C545.409 34.4043 546.098 33.5162 546.759 32.6581C547.153 32.1492 547.527 31.6702 548.129 31.5405C548.405 31.4807 548.759 31.4308 549.163 31.3809C550.652 31.1913 552.889 30.8919 554.2 29.2954C555.5 27.6989 554.722 25.853 554.249 24.7554C554.16 24.5358 554.081 24.3463 554.032 24.2066C553.933 23.8972 553.914 23.4782 553.904 22.9992C553.864 21.9814 553.825 20.7142 552.918 20.0058C552.199 19.437 551.479 19.5168 550.721 19.6066C550.09 19.6765 549.43 19.7463 548.799 19.427L548.424 19.2275C547.123 18.529 544.935 17.3615 543.142 18.1598V18.1398Z" fill="#7DA37E"/>
<path d="M545.817 26.6022C546.172 26.5124 546.537 26.7319 546.616 27.0811C546.704 27.4403 546.487 27.7996 546.133 27.8894C545.778 27.9792 545.413 27.7596 545.325 27.4104C545.236 27.0512 545.453 26.692 545.817 26.6022Z" fill="#C8A374"/>
<path d="M544.567 25.4733C544.922 25.3835 545.287 25.603 545.366 25.9522C545.454 26.3114 545.237 26.6706 544.883 26.7604C544.528 26.8503 544.163 26.6307 544.075 26.2815C543.986 25.9223 544.203 25.5631 544.567 25.4733Z" fill="#C8A374"/>
<path d="M547.739 26.2506C548.094 26.1608 548.459 26.3803 548.537 26.7296C548.626 27.0888 548.409 27.448 548.055 27.5378C547.7 27.6276 547.335 27.4081 547.246 27.0588C547.158 26.6996 547.375 26.3404 547.739 26.2506Z" fill="#C8A374"/>
<path d="M548.317 24.7155C548.672 24.6257 549.037 24.8452 549.116 25.1944C549.204 25.5536 548.987 25.9128 548.633 26.0026C548.278 26.0924 547.913 25.8729 547.825 25.5237C547.736 25.1645 547.953 24.8053 548.317 24.7155Z" fill="#C8A374"/>
<path d="M546.45 24.6959C546.805 24.6061 547.17 24.8256 547.248 25.1749C547.337 25.5341 547.12 25.8933 546.765 25.9831C546.411 26.0729 546.046 25.8534 545.957 25.5042C545.869 25.1449 546.085 24.7857 546.45 24.6959Z" fill="#C8A374"/>
<path d="M547.653 23.0201C548.008 22.9303 548.373 23.1499 548.452 23.4991C548.54 23.8583 548.323 24.2175 547.969 24.3073C547.614 24.3971 547.249 24.1776 547.16 23.8284C547.072 23.4692 547.289 23.1099 547.653 23.0201Z" fill="#C8A374"/>
<path d="M545.927 22.7194C546.281 22.6296 546.646 22.8491 546.725 23.1983C546.814 23.5575 546.597 23.9167 546.242 24.0065C545.887 24.0963 545.523 23.8768 545.434 23.5276C545.345 23.1684 545.562 22.8092 545.927 22.7194Z" fill="#C8A374"/>
<path d="M544.708 23.8483C545.063 23.7585 545.427 23.978 545.506 24.3272C545.595 24.6864 545.378 25.0456 545.023 25.1355C544.668 25.2253 544.304 25.0057 544.215 24.6565C544.126 24.2973 544.343 23.9381 544.708 23.8483Z" fill="#C8A374"/>
<path d="M558.21 21.83C556.643 21.7202 554.967 22.5584 554.189 23.6061C553.41 24.6538 553.41 26.4599 552.819 26.9688C552.346 27.3679 551.222 27.5375 550.227 28.0963C549.084 28.7449 548.206 29.9422 547.96 31.6585C547.704 33.4745 548.778 34.8016 550.01 35.53C550.956 36.0888 551.745 36.0289 552.572 36.5179C553.39 37.0068 553.794 37.6454 554.504 38.4237C555.164 39.1521 556.239 40.0002 558.003 40.11C559.777 40.2098 560.989 39.5812 561.521 38.723C561.984 37.9747 562.339 37.1365 562.802 36.6176C563.236 36.1187 564.261 35.979 565.099 35.3604C566.153 34.5821 566.794 33.1452 566.616 31.2494C566.528 30.3514 565.946 29.3136 565.197 28.665C564.369 27.9566 562.95 27.5674 562.645 27.1683C562.329 26.7692 562.832 25.4321 561.965 24.1948C561.097 22.9575 559.678 21.9298 558.22 21.83" fill="#E9F4E5"/>
<path d="M558.367 40.5009C558.239 40.5009 558.111 40.5009 557.983 40.4909C556.485 40.4011 555.253 39.8124 554.238 38.6949C554.051 38.4853 553.883 38.2957 553.726 38.1062C553.292 37.5873 552.947 37.1882 552.385 36.8489C552.03 36.6394 551.666 36.5396 551.281 36.4298C550.848 36.3101 550.355 36.1704 549.823 35.8611C548.187 34.8932 547.359 33.3067 547.605 31.6203C547.852 29.9041 548.719 28.5471 550.049 27.7887C550.562 27.4994 551.094 27.3098 551.567 27.1501C551.991 27.0005 552.395 26.8608 552.582 26.7011C552.789 26.5315 552.927 25.9827 553.075 25.4439C553.252 24.7554 553.459 23.987 553.903 23.3884C554.81 22.171 556.623 21.3528 558.239 21.4725C559.708 21.5723 561.255 22.5402 562.26 23.997C562.862 24.8651 562.871 25.7831 562.881 26.3918C562.881 26.6013 562.881 26.8907 562.931 26.9605C563.019 27.0803 563.453 27.2798 563.798 27.4395C564.34 27.6989 564.961 27.9883 565.444 28.3974C566.272 29.1058 566.892 30.2434 566.981 31.2212C567.168 33.137 566.557 34.7535 565.316 35.6715C564.882 35.9908 564.409 36.1903 563.995 36.37C563.591 36.5396 563.246 36.6893 563.078 36.8788C562.812 37.1882 562.566 37.6272 562.31 38.1062C562.162 38.3855 562.004 38.6649 561.837 38.9443C561.226 39.9421 559.944 40.5109 558.377 40.5109L558.367 40.5009ZM557.944 22.191C556.653 22.191 555.194 22.8695 554.484 23.8274C554.13 24.3063 553.942 25.0048 553.775 25.6235C553.588 26.3219 553.43 26.9206 553.055 27.2499C552.76 27.4994 552.316 27.649 551.804 27.8286C551.36 27.9883 550.858 28.1579 550.404 28.4174C549.271 29.056 548.532 30.2234 548.325 31.7102C548.039 33.6958 549.537 34.8233 550.197 35.2125C550.641 35.4819 551.045 35.5917 551.478 35.7114C551.892 35.8212 552.316 35.9409 552.76 36.2003C553.42 36.5995 553.824 37.0684 554.277 37.6072C554.425 37.7869 554.593 37.9764 554.77 38.176C555.657 39.1539 556.722 39.6628 558.023 39.7426C559.491 39.8224 560.693 39.3734 561.216 38.5252C561.373 38.2658 561.531 37.9864 561.669 37.727C561.945 37.2181 562.211 36.7391 562.536 36.37C562.822 36.0507 563.256 35.8611 563.719 35.6715C564.113 35.5019 564.527 35.3322 564.892 35.0628C565.917 34.3045 566.419 32.9275 566.262 31.2811C566.183 30.4928 565.651 29.5349 564.971 28.9462C564.567 28.597 563.995 28.3275 563.492 28.0981C562.97 27.8586 562.566 27.659 562.359 27.3996C562.162 27.1501 562.162 26.8109 562.152 26.3818C562.152 25.8031 562.142 25.0846 561.669 24.4061C560.802 23.1489 559.432 22.2808 558.19 22.191C558.111 22.191 558.032 22.191 557.944 22.191Z" fill="#7DA37E"/>
<path d="M557.047 29.7836C556.948 30.1229 556.594 30.3124 556.268 30.2127C555.943 30.1129 555.756 29.7537 555.854 29.4244C555.953 29.0851 556.298 28.8955 556.633 28.9953C556.958 29.0951 557.145 29.4543 557.047 29.7836Z" fill="#C8A374"/>
<path d="M558.555 29.3031C558.456 29.6424 558.101 29.832 557.776 29.7322C557.451 29.6324 557.264 29.2732 557.362 28.9439C557.461 28.6047 557.806 28.4151 558.141 28.5149C558.466 28.6146 558.653 28.9738 558.555 29.3031Z" fill="#C8A374"/>
<path d="M556.398 31.5414C556.3 31.8807 555.945 32.0703 555.62 31.9705C555.295 31.8707 555.107 31.5115 555.206 31.1822C555.305 30.8429 555.649 30.6534 555.985 30.7531C556.31 30.8529 556.497 31.2121 556.398 31.5414Z" fill="#C8A374"/>
<path d="M557.352 32.7563C557.253 33.0955 556.898 33.2851 556.573 33.1853C556.248 33.0855 556.061 32.7263 556.159 32.397C556.258 32.0578 556.603 31.8682 556.938 31.968C557.263 32.0678 557.45 32.427 557.352 32.7563Z" fill="#C8A374"/>
<path d="M558.266 31.2289C558.167 31.5682 557.812 31.7578 557.487 31.658C557.162 31.5582 556.975 31.199 557.073 30.8697C557.172 30.5304 557.517 30.3409 557.852 30.4406C558.177 30.5404 558.364 30.8996 558.266 31.2289Z" fill="#C8A374"/>
<path d="M559.039 33.0258C558.941 33.365 558.586 33.5546 558.261 33.4548C557.935 33.3551 557.748 32.9958 557.847 32.6666C557.945 32.3273 558.29 32.1377 558.625 32.2375C558.95 32.3373 559.138 32.6965 559.039 33.0258Z" fill="#C8A374"/>
<path d="M560.109 31.7602C560.011 32.0994 559.656 32.289 559.331 32.1892C559.006 32.0894 558.818 31.7302 558.917 31.4009C559.015 31.0617 559.36 30.8721 559.696 30.9719C560.021 31.0717 560.208 31.4309 560.109 31.7602Z" fill="#C8A374"/>
<path d="M559.797 30.2133C559.698 30.5525 559.344 30.7421 559.018 30.6423C558.693 30.5426 558.506 30.1833 558.604 29.8541C558.703 29.5148 559.048 29.3252 559.383 29.425C559.708 29.5248 559.895 29.884 559.797 30.2133Z" fill="#C8A374"/>
<path d="M559.907 9.26849C558.596 8.62989 556.872 8.7596 555.837 9.37825C554.802 10.0069 554.191 11.5635 553.501 11.793C552.959 11.9726 551.924 11.7231 550.88 11.8528C549.667 12.0025 548.504 12.7309 547.706 14.1179C546.859 15.5847 547.332 17.1014 548.14 18.169C548.761 18.9872 549.46 19.2068 550.002 19.9152C550.545 20.6237 550.663 21.3121 551.008 22.2401C551.323 23.0982 551.954 24.2058 553.442 24.9242C554.93 25.6327 556.202 25.5229 556.951 24.9642C557.601 24.4852 558.202 23.8865 558.774 23.5971C559.316 23.3277 560.242 23.5572 561.179 23.3277C562.351 23.0284 563.396 22.0206 563.889 20.3243C564.125 19.5161 563.978 18.4185 563.554 17.6102C563.081 16.7022 561.997 15.884 561.868 15.425C561.74 14.966 562.627 13.9981 562.312 12.6212C561.997 11.2442 561.119 9.86718 559.897 9.26849" fill="#E9F4E5"/>
<path d="M555.431 25.7514C554.771 25.7514 554.042 25.5718 553.303 25.2225C552.041 24.6139 551.193 23.6759 550.701 22.3588C550.612 22.1193 550.533 21.8898 550.464 21.6703C550.267 21.0716 550.109 20.6026 549.745 20.1237C549.508 19.8144 549.232 19.6048 548.937 19.3753C548.602 19.1159 548.227 18.8265 547.882 18.3675C546.808 16.9606 546.64 15.3042 547.429 13.9372C548.227 12.5502 549.449 11.6821 550.849 11.5025C551.391 11.4327 551.913 11.4626 552.376 11.4826C552.8 11.5025 553.194 11.5225 553.411 11.4526C553.647 11.3728 553.963 10.9537 554.259 10.5446C554.653 10.0158 555.096 9.42708 555.678 9.06787C556.88 8.33946 558.723 8.27959 560.063 8.93815C561.295 9.54682 562.291 10.9138 562.655 12.5203C562.872 13.4782 562.567 14.2665 562.37 14.7953C562.301 14.9749 562.202 15.2344 562.212 15.3042C562.251 15.4339 562.547 15.7632 562.793 16.0227C563.178 16.4318 563.611 16.9007 563.877 17.4296C564.341 18.3276 564.488 19.525 564.232 20.4031C563.73 22.1093 562.655 23.2967 561.276 23.646C560.793 23.7657 560.32 23.7757 559.896 23.7757C559.492 23.7757 559.147 23.7757 558.93 23.8954C558.595 24.0651 558.23 24.3644 557.846 24.6837C557.619 24.8733 557.393 25.0629 557.156 25.2325C556.683 25.5817 556.102 25.7514 555.441 25.7514H555.431ZM551.598 12.1411C551.381 12.1411 551.154 12.1411 550.927 12.1811C549.735 12.3307 548.69 13.0791 548 14.2865C547.074 15.8929 547.981 17.3897 548.404 17.9584C548.7 18.3476 549.006 18.587 549.331 18.8365C549.646 19.076 549.971 19.3354 550.257 19.7046C550.691 20.2734 550.868 20.8222 551.085 21.4508C551.154 21.6603 551.223 21.8798 551.312 22.1193C551.745 23.2668 552.485 24.085 553.579 24.6139C554.82 25.2026 556.003 25.2325 556.742 24.6937C556.969 24.5241 557.195 24.3444 557.402 24.1648C557.816 23.8256 558.211 23.4963 558.615 23.2967C558.969 23.1171 559.403 23.1171 559.866 23.1072C560.261 23.1072 560.674 23.1072 561.088 22.9974C562.232 22.708 563.138 21.7002 563.562 20.2235C563.769 19.515 563.641 18.5072 563.257 17.7589C563.03 17.3198 562.626 16.8808 562.271 16.5016C561.906 16.1125 561.621 15.8031 561.542 15.5138C561.463 15.2344 561.571 14.935 561.719 14.5658C561.916 14.0669 562.153 13.4483 561.975 12.6899C561.66 11.303 560.783 10.0757 559.748 9.56678C558.457 8.93815 556.86 9.14769 556.003 9.66656C555.53 9.95592 555.136 10.4947 554.781 10.9637C554.387 11.5025 554.042 11.9615 553.598 12.1112C553.263 12.221 552.829 12.201 552.327 12.1711C552.09 12.1611 551.844 12.1511 551.588 12.1511L551.598 12.1411Z" fill="#7DA37E"/>
<path d="M556.179 15.7044C555.972 15.9638 555.607 16.0037 555.361 15.8042C555.114 15.6046 555.075 15.2354 555.282 14.976C555.489 14.7166 555.854 14.6766 556.1 14.8762C556.346 15.0758 556.386 15.445 556.179 15.7044Z" fill="#C8A374"/>
<path d="M557.64 15.8127C557.433 16.0721 557.068 16.112 556.822 15.9125C556.575 15.7129 556.536 15.3437 556.743 15.0843C556.95 14.8348 557.314 14.7849 557.561 14.9945C557.807 15.194 557.847 15.5632 557.64 15.8227" fill="#C8A374"/>
<path d="M555.015 16.97C554.808 17.2295 554.443 17.2694 554.197 17.0698C553.95 16.8702 553.911 16.501 554.118 16.2416C554.325 15.9822 554.689 15.9423 554.936 16.1418C555.182 16.3414 555.222 16.7106 555.015 16.97Z" fill="#C8A374"/>
<path d="M555.413 18.3567C555.206 18.6062 554.842 18.6561 554.595 18.4565C554.349 18.257 554.309 17.8878 554.516 17.6283C554.723 17.3689 555.088 17.329 555.334 17.5286C555.581 17.7281 555.62 18.0973 555.413 18.3567Z" fill="#C8A374"/>
<path d="M556.733 17.3724C556.526 17.6318 556.162 17.6717 555.915 17.4721C555.669 17.2726 555.63 16.9034 555.837 16.644C556.044 16.3845 556.408 16.3446 556.655 16.5442C556.901 16.7437 556.94 17.1129 556.733 17.3724Z" fill="#C8A374"/>
<path d="M556.772 19.1869C556.566 19.4463 556.201 19.4862 555.954 19.2867C555.708 19.0871 555.669 18.7179 555.876 18.4585C556.083 18.1991 556.447 18.1592 556.694 18.3687C556.94 18.5683 556.979 18.9374 556.772 19.1969" fill="#C8A374"/>
<path d="M558.132 18.4682C557.925 18.7276 557.56 18.7675 557.314 18.5679C557.067 18.3684 557.028 17.9992 557.235 17.7397C557.442 17.4803 557.807 17.4404 558.053 17.6499C558.299 17.8495 558.339 18.2187 558.132 18.4781" fill="#C8A374"/>
<path d="M558.397 17.0307C558.191 17.2901 557.826 17.33 557.579 17.1304C557.333 16.9309 557.294 16.5617 557.501 16.3022C557.708 16.0428 558.072 16.0029 558.319 16.2124C558.565 16.412 558.604 16.7812 558.397 17.0406" fill="#C8A374"/>
</g>
<defs>
<clipPath id="clip0_1119_195863">
<rect width="30" height="32" fill="white" transform="translate(537 8.5)"/>
</clipPath>
</defs>
</svg>
