<svg width="724" height="54" viewBox="0 0 724 54" fill="none" xmlns="http://www.w3.org/2000/svg">
<mask id="path-1-inside-1_1466_146633" fill="white">
<path d="M724 54H148.363L119 35.8047V17.6084L148.363 0H724V54ZM136.5 23C134.015 23 132 25.0147 132 27.5C132 29.9853 134.015 32 136.5 32C138.985 32 141 29.9853 141 27.5C141 25.0147 138.985 23 136.5 23Z"/>
</mask>
<path d="M724 54H148.363L119 35.8047V17.6084L148.363 0H724V54ZM136.5 23C134.015 23 132 25.0147 132 27.5C132 29.9853 134.015 32 136.5 32C138.985 32 141 29.9853 141 27.5C141 25.0147 138.985 23 136.5 23Z" fill="#ECC8C1"/>
<path d="M724 54V55H725V54H724ZM148.363 54L147.837 54.85L148.079 55H148.363V54ZM119 35.8047H118V36.3615L118.473 36.6547L119 35.8047ZM119 17.6084L118.486 16.7508L118 17.042V17.6084H119ZM148.363 0V-1H148.086L147.849 -0.857616L148.363 0ZM724 0H725V-1H724V0ZM724 54V53H148.363V54V55H724V54ZM148.363 54L148.89 53.15L119.527 34.9547L119 35.8047L118.473 36.6547L147.837 54.85L148.363 54ZM119 35.8047H120V17.6084H119H118V35.8047H119ZM119 17.6084L119.514 18.466L148.878 0.857616L148.363 0L147.849 -0.857616L118.486 16.7508L119 17.6084ZM148.363 0V1H724V0V-1H148.363V0ZM724 0H723V54H724H725V0H724ZM136.5 23V22C133.462 22 131 24.4624 131 27.5H132H133C133 25.567 134.567 24 136.5 24V23ZM132 27.5H131C131 30.5376 133.462 33 136.5 33V32V31C134.567 31 133 29.433 133 27.5H132ZM136.5 32V33C139.538 33 142 30.5376 142 27.5H141H140C140 29.433 138.433 31 136.5 31V32ZM141 27.5H142C142 24.4624 139.538 22 136.5 22V23V24C138.433 24 140 25.567 140 27.5H141Z" fill="#DA9186" mask="url(#path-1-inside-1_1466_146633)"/>
<path d="M178.08 7.56V26.04H173.04V7.56H178.08ZM154.56 27.72H178.08V38.32H159.64V41.12H179.2V45.12H154.76V34.52H173.2V31.72H154.56V27.72ZM157.88 25.44C151.92 25.44 148.36 21.48 148.36 17.44V16.16C148.36 12.12 151.92 8.16 157.88 8.16C163.84 8.16 167.4 12.12 167.4 16.16V17.44C167.4 21.48 163.84 25.44 157.88 25.44ZM157.88 12.4C154.88 12.4 153.12 14.36 153.12 16.24V17.36C153.12 19.24 154.88 21.2 157.88 21.2C160.88 21.2 162.64 19.24 162.64 17.36V16.24C162.64 14.36 160.88 12.4 157.88 12.4ZM210.894 23.88H201.134V27.24H215.654V31.48H181.574V27.24H196.094V23.88H186.334V8.36H191.334V12.36H205.894V8.36H210.894V23.88ZM191.414 33.64V40.08H211.574V44.36H186.374V33.64H191.414ZM191.334 16.52V19.72H205.894V16.52H191.334ZM225.988 35.8H237.708V22.84H242.748V35.8H260.068V40.08H225.988V35.8ZM254.028 31.88L249.028 31.28C249.988 26.44 250.308 22.08 250.308 17.4V15.08H230.068V10.72H255.348V16.08C255.348 22.28 254.948 27.28 254.028 31.88ZM260.402 24.88H294.482V29H260.402V24.88ZM277.442 45.88C270.962 45.88 265.442 43.68 265.442 39.04V37.84C265.442 33.2 270.962 31 277.442 31C283.922 31 289.442 33.2 289.442 37.84V39.04C289.442 43.68 283.922 45.88 277.442 45.88ZM277.442 35.08C273.882 35.08 270.442 36.28 270.442 38.16V38.72C270.442 40.6 273.882 41.8 277.442 41.8C281.002 41.8 284.442 40.6 284.442 38.72V38.16C284.442 36.28 281.002 35.08 277.442 35.08ZM289.322 8.88V13H270.242V18.04H289.602V22.16H265.242V8.88H289.322ZM308.456 7.08V11.08H316.496V15.32H295.216V11.08H303.416V7.08H308.456ZM324.336 7.56V16.88H329.216V21.28H324.336V30.84H319.296V7.56H324.336ZM300.616 36.76V32.52H324.336V45.24H319.296V36.76H300.616ZM305.936 30.48C300.336 30.48 297.096 27.64 297.096 24.12V22.84C297.096 19.32 300.336 16.48 305.936 16.48C311.536 16.48 314.776 19.32 314.776 22.84V24.12C314.776 27.64 311.536 30.48 305.936 30.48ZM305.936 20.44C303.256 20.44 301.856 21.84 301.856 23.08V23.88C301.856 25.12 303.256 26.52 305.936 26.52C308.616 26.52 310.016 25.12 310.016 23.88V23.08C310.016 21.84 308.616 20.44 305.936 20.44ZM329.23 35.84H336.51V23.48H341.43V35.84H344.99V23.48H349.91V35.84H363.31V40.08H329.23V35.84ZM357.71 31.92L352.79 31.28C353.71 26.28 353.83 22.12 353.83 17.4V15.04H333.31V10.68H358.79V16.08C358.79 22.04 358.59 27 357.71 31.92ZM395.084 7.56V44.76H390.084V7.56H395.084ZM375.884 28.24C369.884 28.24 365.804 24.32 365.804 19.84V18.24C365.804 13.76 369.884 9.84 375.884 9.84C381.884 9.84 385.964 13.76 385.964 18.24V19.84C385.964 24.32 381.884 28.24 375.884 28.24ZM375.884 14.16C372.644 14.16 370.604 16.32 370.604 18.52V19.56C370.604 21.76 372.644 23.92 375.884 23.92C379.124 23.92 381.164 21.76 381.164 19.56V18.52C381.164 16.32 379.124 14.16 375.884 14.16ZM364.404 37.2V32.84C376.644 32.84 383.404 32.64 388.164 32.16L388.524 36.48C383.924 37.04 376.684 37.2 364.404 37.2ZM408.058 35.84H415.338V23.48H420.258V35.84H423.818V23.48H428.738V35.84H442.138V40.08H408.058V35.84ZM436.538 31.92L431.618 31.28C432.538 26.28 432.658 22.12 432.658 17.4V15.04H412.138V10.68H437.618V16.08C437.618 22.04 437.418 27 436.538 31.92ZM472.433 7.56V20.88H477.593V25.28H472.433V44.76H467.433V7.56H472.433ZM442.593 36.72V32.36H448.873V21.72H453.873V32.28C459.113 32.2 462.673 32 465.593 31.68L465.953 36C461.553 36.56 454.753 36.72 442.593 36.72ZM444.353 11H463.193V16.8C463.193 20.12 462.993 24.48 462.312 28.04L457.353 27.44C458.033 23.84 458.233 20.28 458.233 17.52V15.36H444.353V11ZM481.327 9.12H505.967V15.24C505.967 17.04 505.687 20.56 505.087 23.32H510.967V27.56H497.007V35.76H491.967V27.56H476.887V23.32H499.967C500.567 20.76 500.927 17.52 500.927 15.52V13.4H481.327V9.12ZM486.727 32.64V40.08H506.927V44.36H481.687V32.64H486.727ZM541.261 7.56V20.88H546.421V25.28H541.261V44.76H536.261V7.56H541.261ZM511.421 36.72V32.36H517.701V21.72H522.701V32.28C527.941 32.2 531.501 32 534.421 31.68L534.781 36C530.381 36.56 523.581 36.72 511.421 36.72ZM513.181 11H532.021V16.8C532.021 20.12 531.821 24.48 531.141 28.04L526.181 27.44C526.861 23.84 527.061 20.28 527.061 17.52V15.36H513.181V11ZM575.795 42.96V23.48H570.795V19.08H575.795V8.32H580.595V42.96H575.795ZM562.315 19.48V10.52H567.315V19.48C567.315 22.52 568.035 24.16 569.715 26.24C571.195 28.08 573.075 30.12 574.915 31.96L571.595 35.04C569.875 33.28 568.355 31.64 567.155 30.24C565.955 28.84 565.315 28 565.075 27.44H565.035C564.835 28 563.955 29.24 562.955 30.4C561.875 31.64 559.835 33.92 558.035 35.68L554.635 32.4C556.355 30.72 558.355 28.56 559.875 26.64C561.755 24.24 562.315 22.68 562.315 19.48ZM588.155 7.56V44.76H583.355V7.56H588.155ZM614.569 8.96H619.609V25.92H594.729V8.96H599.769V13.56H614.569V8.96ZM590.129 29.24H624.209V33.52H609.729V44.76H604.649V33.52H590.129V29.24ZM599.769 21.72H614.569V17.8H599.769V21.72ZM664.503 7.56V20.88H669.663V25.28H664.503V44.76H659.503V7.56H664.503ZM634.663 36.72V32.36H640.943V21.72H645.943V32.28C651.183 32.2 654.743 32 657.663 31.68L658.023 36C653.623 36.56 646.823 36.72 634.663 36.72ZM636.423 11H655.263V16.8C655.263 20.12 655.063 24.48 654.383 28.04L649.423 27.44C650.103 23.84 650.303 20.28 650.303 17.52V15.36H636.423V11ZM698.237 22.44H688.517V25.76H703.037V29.92H668.957V25.76H683.477V22.44H673.757V8.72H698.237V22.44ZM673.397 36.8V32.64H698.437V45.2H693.397V36.8H673.397ZM678.757 12.8V18.36H693.237V12.8H678.757Z" fill="#1E1E1E"/>
<path d="M78.113 8.72387C72.5 1.49549 59.496 1 55.5 1C51.504 1 37.5632 1.16477 33 8C15.0639 4.1661 0 11.2798 0 25.4631C0 38.5152 19.5217 44.9862 34 40C48.4783 35.0138 34.301 39.5629 34.5 39.5C37.7111 42.6813 45.6737 45 55.5 45C65.3263 45 72.816 42.9279 76.4711 39.3322C76.6701 39.3951 76.9189 39.4579 77.1179 39.5208C91.5713 44.5908 111 38.5152 111 25.4631C111 11.2798 95.9993 4.88997 78.0632 8.72387" fill="#EF897E"/>
<path d="M24.616 21.728C23.836 21.728 23.2033 21.6673 22.718 21.546C22.2327 21.4073 21.8513 21.1907 21.574 20.896C21.314 20.6013 21.132 20.2027 21.028 19.7C20.9413 19.1973 20.898 18.5647 20.898 17.802V15.826C20.898 15.0807 20.9413 14.4567 21.028 13.954C21.132 13.4513 21.314 13.0527 21.574 12.758C21.8513 12.446 22.2327 12.2293 22.718 12.108C23.2033 11.9867 23.836 11.926 24.616 11.926H39.41C40.19 11.926 40.8227 11.9867 41.308 12.108C41.7933 12.2293 42.166 12.446 42.426 12.758C42.7033 13.0527 42.8853 13.4513 42.972 13.954C43.076 14.4567 43.128 15.0807 43.128 15.826V21.728H24.616ZM29.608 27.058H21.86C21.496 27.058 21.184 26.9973 20.924 26.876C20.664 26.7547 20.456 26.5987 20.3 26.408C20.144 26.2173 20.0227 26.0007 19.936 25.758C19.8667 25.5153 19.832 25.2727 19.832 25.03C19.832 24.7873 19.8667 24.5447 19.936 24.302C20.0053 24.0593 20.118 23.8427 20.274 23.652C20.4473 23.444 20.664 23.2793 20.924 23.158C21.184 23.0367 21.496 22.976 21.86 22.976H42.14C42.504 22.976 42.816 23.0367 43.076 23.158C43.336 23.2793 43.544 23.444 43.7 23.652C43.8733 23.8427 43.9947 24.0593 44.064 24.302C44.1333 24.5447 44.168 24.7873 44.168 25.03C44.168 25.2727 44.1247 25.5153 44.038 25.758C43.9687 26.0007 43.856 26.2173 43.7 26.408C43.544 26.5987 43.336 26.7547 43.076 26.876C42.816 26.9973 42.504 27.058 42.14 27.058H34.834V30.568H29.608V27.058ZM24.85 35.976C24.122 35.976 23.5153 35.9067 23.03 35.768C22.5447 35.6467 22.1633 35.4387 21.886 35.144C21.6087 34.8493 21.4093 34.468 21.288 34C21.184 33.5147 21.132 32.9167 21.132 32.206V30.542C21.132 29.658 21.4007 29.0167 21.938 28.618C22.4753 28.2193 23.108 28.02 23.836 28.02C24.564 28.02 25.1793 28.2193 25.682 28.618C26.202 29.0167 26.462 29.658 26.462 30.542V31.426C26.462 31.7207 26.5053 31.8853 26.592 31.92C26.6787 31.9373 26.8693 31.946 27.164 31.946H41.178C41.9753 31.946 42.5387 32.154 42.868 32.57C43.1973 32.9687 43.362 33.428 43.362 33.948C43.362 34.4853 43.1887 34.9533 42.842 35.352C42.5127 35.768 41.958 35.976 41.178 35.976H24.85ZM26.098 17.256C26.098 17.516 26.1327 17.7067 26.202 17.828C26.2887 17.932 26.462 17.984 26.722 17.984H37.954V16.372C37.954 16.1293 37.9107 15.956 37.824 15.852C37.7373 15.7307 37.564 15.67 37.304 15.67H26.722C26.462 15.67 26.2887 15.7307 26.202 15.852C26.1327 15.956 26.098 16.1293 26.098 16.372V17.256ZM55.088 11.38C55.92 11.38 56.57 11.614 57.038 12.082C57.506 12.5327 57.7487 13.174 57.766 14.006H61.536C62.1773 14.006 62.6713 14.188 63.018 14.552C63.3647 14.916 63.538 15.3753 63.538 15.93C63.538 16.45 63.3733 16.9007 63.044 17.282C62.732 17.646 62.2987 17.854 61.744 17.906C62.0213 18.5993 62.16 19.3707 62.16 20.22V21.312C62.16 23.0973 61.7527 24.4667 60.938 25.42C60.1233 26.3733 59.014 27.006 57.61 27.318V30.88H61.484C62.2813 30.88 62.8447 31.0967 63.174 31.53C63.5033 31.946 63.668 32.4227 63.668 32.96C63.668 33.5147 63.4947 34 63.148 34.416C62.8187 34.8493 62.264 35.066 61.484 35.066H49.108C48.328 35.066 47.7647 34.8493 47.418 34.416C47.0713 34 46.898 33.5147 46.898 32.96C46.898 32.4227 47.0627 31.946 47.392 31.53C47.7387 31.0967 48.3107 30.88 49.108 30.88H52.566V27.318C51.162 27.006 50.0527 26.3733 49.238 25.42C48.4233 24.4667 48.016 23.0973 48.016 21.312V20.22C48.016 19.336 48.146 18.5647 48.406 17.906C47.8513 17.854 47.4093 17.646 47.08 17.282C46.768 16.9007 46.612 16.45 46.612 15.93C46.612 15.3753 46.7853 14.916 47.132 14.552C47.4787 14.188 47.9727 14.006 48.614 14.006H52.41C52.4273 13.174 52.67 12.5327 53.138 12.082C53.606 11.614 54.256 11.38 55.088 11.38ZM64.604 14.084C64.604 13.252 64.864 12.628 65.384 12.212C65.904 11.7787 66.502 11.562 67.178 11.562C67.5073 11.562 67.828 11.6227 68.14 11.744C68.452 11.848 68.7207 12.004 68.946 12.212C69.1887 12.42 69.3793 12.68 69.518 12.992C69.674 13.304 69.752 13.668 69.752 14.084V20.662H70.61C71.0087 20.662 71.338 20.7313 71.598 20.87C71.858 21.0087 72.066 21.1907 72.222 21.416C72.378 21.624 72.4907 21.8667 72.56 22.144C72.6293 22.404 72.664 22.664 72.664 22.924C72.664 23.184 72.6293 23.4527 72.56 23.73C72.4907 23.99 72.378 24.2327 72.222 24.458C72.066 24.666 71.8493 24.8393 71.572 24.978C71.312 25.1167 70.9913 25.186 70.61 25.186H69.752V35.976H64.604V14.084ZM55.088 23.678C55.6947 23.678 56.2147 23.5133 56.648 23.184C57.0987 22.8373 57.324 22.2567 57.324 21.442V19.96C57.324 19.1453 57.0987 18.5733 56.648 18.244C56.2147 17.8973 55.6947 17.724 55.088 17.724C54.4813 17.724 53.9527 17.8973 53.502 18.244C53.0687 18.5733 52.852 19.1453 52.852 19.96V21.442C52.852 22.2567 53.0687 22.8373 53.502 23.184C53.9527 23.5133 54.4813 23.678 55.088 23.678Z" fill="white"/>
<path d="M77.52 23.73C77.52 23.47 77.5547 23.21 77.624 22.95C77.7107 22.69 77.832 22.456 77.988 22.248C78.1613 22.04 78.378 21.8753 78.638 21.754C78.9153 21.6153 79.2447 21.546 79.626 21.546H82.434V18.816C82.434 17.9667 82.668 17.3427 83.136 16.944C83.6213 16.5453 84.1847 16.346 84.826 16.346C85.4673 16.346 86.022 16.5453 86.49 16.944C86.9753 17.3427 87.218 17.9667 87.218 18.816V21.546H90.026C90.4073 21.546 90.728 21.6153 90.988 21.754C91.2653 21.8753 91.482 22.04 91.638 22.248C91.8113 22.456 91.9327 22.69 92.002 22.95C92.0887 23.21 92.132 23.47 92.132 23.73C92.132 23.99 92.0887 24.2587 92.002 24.536C91.9327 24.796 91.8113 25.0387 91.638 25.264C91.4647 25.472 91.248 25.6453 90.988 25.784C90.728 25.9227 90.4073 25.992 90.026 25.992H87.218V28.722C87.218 29.5713 86.9753 30.1953 86.49 30.594C86.022 30.9927 85.4673 31.192 84.826 31.192C84.1847 31.192 83.6213 30.9927 83.136 30.594C82.668 30.1953 82.434 29.5713 82.434 28.722V25.992H79.626C79.2447 25.992 78.9153 25.9227 78.638 25.784C78.378 25.6453 78.1613 25.472 77.988 25.264C77.832 25.0387 77.7107 24.796 77.624 24.536C77.5547 24.2587 77.52 23.99 77.52 23.73Z" fill="#FFDD2B"/>
</svg>
