<svg width="49" height="13" viewBox="0 0 49 13" fill="none" xmlns="http://www.w3.org/2000/svg">
<g clip-path="url(#clip0_29294_16)">
<path d="M2.346 2.13045C2.318 2.26112 2.29467 2.41978 2.276 2.60645C2.25733 2.79312 2.23867 2.97978 2.22 3.16645C2.21067 3.35312 2.206 3.51178 2.206 3.64245C2.206 3.93178 2.206 4.25378 2.206 4.60845C2.21533 4.96312 2.22467 5.32712 2.234 5.70045C2.24333 6.06445 2.26667 6.42845 2.304 6.79245C2.37867 7.52978 2.49067 8.17378 2.64 8.72445C2.78933 9.27512 2.98067 9.70445 3.214 10.0125C3.44733 10.3205 3.718 10.4745 4.026 10.4745C4.20333 10.4745 4.37133 10.3905 4.53 10.2225C4.68867 10.0545 4.838 9.83045 4.978 9.55045C5.118 9.27045 5.244 8.96712 5.356 8.64045C5.47733 8.30445 5.58 7.98245 5.664 7.67445L6.77 8.97645C6.47133 9.76978 6.17267 10.4045 5.874 10.8805C5.58467 11.3472 5.286 11.6832 4.978 11.8885C4.67 12.0938 4.34333 12.1965 3.998 12.1965C3.53133 12.1965 3.08333 12.0378 2.654 11.7205C2.234 11.3938 1.87 10.8618 1.562 10.1245C1.254 9.38712 1.03467 8.40245 0.904 7.17045C0.857333 6.75978 0.82 6.31645 0.792 5.84045C0.773333 5.36445 0.759333 4.91178 0.75 4.48245C0.75 4.05312 0.75 3.69845 0.75 3.41845C0.75 3.24112 0.740667 3.02645 0.722 2.77445C0.712667 2.51312 0.684667 2.28912 0.638 2.10245L2.346 2.13045ZM9.514 2.48045C9.766 2.80712 10.0087 3.18978 10.242 3.62845C10.4847 4.05778 10.704 4.52445 10.9 5.02845C11.096 5.53245 11.2687 6.04578 11.418 6.56845C11.5767 7.09112 11.7073 7.60912 11.81 8.12245C11.9127 8.63578 11.9827 9.12112 12.02 9.57845L10.578 10.1385C10.522 9.53178 10.4287 8.89712 10.298 8.23445C10.1673 7.57178 9.99933 6.91845 9.794 6.27445C9.58867 5.62112 9.346 5.00978 9.066 4.44045C8.79533 3.86178 8.48267 3.36245 8.128 2.94245L9.514 2.48045ZM17.956 0.898452C17.9093 1.11312 17.8673 1.30912 17.83 1.48645C17.802 1.66378 17.774 1.83645 17.746 2.00445C17.718 2.23778 17.676 2.54578 17.62 2.92845C17.5733 3.30178 17.5173 3.72178 17.452 4.18845C17.3867 4.65512 17.326 5.13578 17.27 5.63045C17.214 6.12512 17.158 6.61045 17.102 7.08645C17.046 7.55312 17.004 7.98245 16.976 8.37445C16.948 8.75712 16.934 9.06978 16.934 9.31245C16.934 9.94712 17.116 10.4418 17.48 10.7965C17.8533 11.1512 18.418 11.3285 19.174 11.3285C19.8553 11.3285 20.4387 11.2352 20.924 11.0485C21.4187 10.8618 21.7967 10.6005 22.058 10.2645C22.3193 9.92845 22.45 9.54112 22.45 9.10245C22.45 8.62645 22.324 8.15045 22.072 7.67445C21.8293 7.19845 21.4607 6.74112 20.966 6.30245L22.52 5.98045C22.9867 6.53112 23.3367 7.06778 23.57 7.59045C23.8033 8.10378 23.92 8.66378 23.92 9.27045C23.92 9.96112 23.7193 10.5678 23.318 11.0905C22.926 11.6132 22.3753 12.0192 21.666 12.3085C20.9567 12.5978 20.1167 12.7425 19.146 12.7425C18.4647 12.7425 17.8533 12.6352 17.312 12.4205C16.7707 12.2058 16.3413 11.8652 16.024 11.3985C15.716 10.9318 15.562 10.3112 15.562 9.53645C15.562 9.24712 15.5853 8.85978 15.632 8.37445C15.6787 7.88912 15.7347 7.35712 15.8 6.77845C15.8747 6.19978 15.9493 5.61178 16.024 5.01445C16.108 4.40778 16.178 3.83845 16.234 3.30645C16.2993 2.76512 16.346 2.30312 16.374 1.92045C16.402 1.64045 16.416 1.42112 16.416 1.26245C16.416 1.10378 16.4067 0.954453 16.388 0.814453L17.956 0.898452ZM13.252 2.70445C13.6533 2.83512 14.0967 2.94245 14.582 3.02645C15.0673 3.11045 15.562 3.17578 16.066 3.22245C16.57 3.25978 17.0413 3.27845 17.48 3.27845C18.0213 3.27845 18.53 3.26445 19.006 3.23645C19.482 3.19912 19.9113 3.15245 20.294 3.09645L20.252 4.41245C19.8133 4.44978 19.3793 4.48245 18.95 4.51045C18.5207 4.53845 18.0167 4.55245 17.438 4.55245C17.0087 4.55245 16.542 4.52912 16.038 4.48245C15.5433 4.43578 15.0487 4.37045 14.554 4.28645C14.0593 4.19312 13.602 4.09512 13.182 3.99245L13.252 2.70445ZM12.93 6.19045C13.406 6.34912 13.896 6.47512 14.4 6.56845C14.904 6.66178 15.4033 6.72712 15.898 6.76445C16.402 6.79245 16.878 6.80645 17.326 6.80645C17.7833 6.80645 18.2547 6.79245 18.74 6.76445C19.2347 6.73645 19.72 6.69445 20.196 6.63845L20.154 7.95445C19.7247 8.00112 19.2953 8.03845 18.866 8.06645C18.4367 8.08512 17.9933 8.09445 17.536 8.09445C16.696 8.09445 15.8653 8.04778 15.044 7.95445C14.2227 7.85178 13.4947 7.71178 12.86 7.53445L12.93 6.19045ZM33.6462 7.38045C33.6462 7.01645 33.5528 6.69445 33.3662 6.41445C33.1888 6.13445 32.9322 5.91512 32.5962 5.75645C32.2602 5.58845 31.8635 5.50445 31.4062 5.50445C30.8742 5.50445 30.3702 5.54645 29.8942 5.63045C29.4275 5.71445 29.0028 5.81245 28.6202 5.92445C28.2375 6.03645 27.9155 6.12978 27.6542 6.20445C27.4488 6.26045 27.2342 6.33045 27.0102 6.41445C26.7862 6.49845 26.5855 6.57778 26.4082 6.65245L25.9742 5.05645C26.1888 5.03778 26.4175 5.00978 26.6602 4.97245C26.9122 4.92578 27.1455 4.87912 27.3602 4.83245C27.7055 4.74845 28.0975 4.65978 28.5362 4.56645C28.9842 4.46378 29.4648 4.37512 29.9782 4.30045C30.5008 4.21645 31.0328 4.17445 31.5742 4.17445C32.2742 4.17445 32.8948 4.30045 33.4362 4.55245C33.9775 4.80445 34.4022 5.17312 34.7102 5.65845C35.0182 6.14378 35.1722 6.73645 35.1722 7.43645C35.1722 8.19245 35.0088 8.86912 34.6822 9.46645C34.3648 10.0638 33.9122 10.5865 33.3242 11.0345C32.7455 11.4732 32.0595 11.8372 31.2662 12.1265C30.4728 12.4158 29.6095 12.6305 28.6762 12.7705L27.8782 11.4125C28.7368 11.3098 29.5162 11.1512 30.2162 10.9365C30.9255 10.7218 31.5368 10.4512 32.0502 10.1245C32.5635 9.79778 32.9555 9.40578 33.2262 8.94845C33.5062 8.49112 33.6462 7.96845 33.6462 7.38045ZM27.9202 0.884453C28.3215 0.968453 28.7928 1.05245 29.3342 1.13645C29.8848 1.21112 30.4542 1.27645 31.0422 1.33245C31.6302 1.38845 32.1855 1.43512 32.7082 1.47245C33.2308 1.50978 33.6695 1.52845 34.0242 1.52845L33.8002 2.88645C33.4082 2.85845 32.9462 2.82578 32.4142 2.78845C31.8822 2.74178 31.3268 2.69045 30.7482 2.63445C30.1788 2.56912 29.6282 2.50378 29.0962 2.43845C28.5735 2.36378 28.1115 2.29378 27.7102 2.22845L27.9202 0.884453ZM47.8842 3.72645C47.7068 3.83845 47.5155 3.95045 47.3102 4.06245C47.1142 4.16512 46.9042 4.27245 46.6802 4.38445C46.4468 4.50578 46.1668 4.65045 45.8402 4.81845C45.5135 4.97712 45.1588 5.15445 44.7762 5.35045C44.3935 5.53712 44.0108 5.73778 43.6282 5.95245C43.2548 6.16712 42.9002 6.38178 42.5642 6.59645C41.9482 7.00712 41.4582 7.43178 41.0942 7.87045C40.7302 8.30912 40.5482 8.78978 40.5482 9.31245C40.5482 9.85378 40.8095 10.2785 41.3322 10.5865C41.8548 10.8945 42.6388 11.0485 43.6842 11.0485C44.1882 11.0485 44.7155 11.0298 45.2662 10.9925C45.8168 10.9458 46.3488 10.8852 46.8622 10.8105C47.3848 10.7358 47.8328 10.6472 48.2062 10.5445L48.1922 12.1405C47.8282 12.1965 47.4128 12.2525 46.9462 12.3085C46.4795 12.3645 45.9755 12.4065 45.4342 12.4345C44.9022 12.4625 44.3375 12.4765 43.7402 12.4765C43.0682 12.4765 42.4428 12.4252 41.8642 12.3225C41.2948 12.2198 40.8002 12.0518 40.3802 11.8185C39.9602 11.5852 39.6335 11.2772 39.4002 10.8945C39.1668 10.5025 39.0502 10.0265 39.0502 9.46645C39.0502 8.92512 39.1668 8.42578 39.4002 7.96845C39.6428 7.51112 39.9742 7.08178 40.3942 6.68045C40.8142 6.27912 41.2995 5.89645 41.8502 5.53245C42.1955 5.29912 42.5642 5.07045 42.9562 4.84645C43.3482 4.62245 43.7308 4.40778 44.1042 4.20245C44.4868 3.99712 44.8415 3.81045 45.1682 3.64245C45.4948 3.47445 45.7702 3.32512 45.9942 3.19445C46.2182 3.06378 46.4188 2.94245 46.5962 2.83045C46.7828 2.71845 46.9555 2.59245 47.1142 2.45245L47.8842 3.72645ZM40.8142 0.996453C41.0382 1.59378 41.2762 2.18178 41.5282 2.76045C41.7802 3.32978 42.0322 3.86178 42.2842 4.35645C42.5455 4.85112 42.7835 5.28978 42.9982 5.67245L41.7662 6.40045C41.5235 5.99912 41.2715 5.53712 41.0102 5.01445C40.7488 4.48245 40.4828 3.92245 40.2122 3.33445C39.9415 2.74645 39.6802 2.15845 39.4282 1.57045L40.8142 0.996453Z" fill="#E22F61"/>
</g>
<defs>
<clipPath id="clip0_29294_16">
<rect width="49" height="13" fill="white"/>
</clipPath>
</defs>
</svg>
