<svg width="73" height="13" viewBox="0 0 73 13" fill="none" xmlns="http://www.w3.org/2000/svg">
<g clip-path="url(#clip0_29294_30)">
<path d="M4.90801 0.730148C4.88934 0.814148 4.87534 0.921481 4.86601 1.05215C4.85668 1.17348 4.84268 1.30415 4.82401 1.44415C4.81468 1.57482 4.80534 1.69615 4.79601 1.80815C4.78668 2.05082 4.77268 2.34015 4.75401 2.67615C4.74468 3.00282 4.73068 3.36215 4.71201 3.75415C4.70268 4.13682 4.69334 4.52415 4.68401 4.91615C4.68401 5.29882 4.68401 5.66748 4.68401 6.02215C4.68401 6.38615 4.68868 6.79215 4.69801 7.24015C4.70734 7.68815 4.71668 8.13148 4.72601 8.57015C4.73534 8.99948 4.74468 9.40082 4.75401 9.77415C4.76334 10.1381 4.76801 10.4274 4.76801 10.6421C4.76801 11.1368 4.70734 11.5241 4.58601 11.8041C4.47401 12.0841 4.31534 12.2801 4.11001 12.3921C3.91401 12.5041 3.67601 12.5602 3.39601 12.5602C3.09734 12.5602 2.77068 12.4949 2.41601 12.3642C2.06134 12.2335 1.72534 12.0561 1.40801 11.8321C1.09068 11.6081 0.829343 11.3469 0.62401 11.0482C0.418677 10.7495 0.31601 10.4321 0.31601 10.0961C0.31601 9.66682 0.479342 9.24215 0.80601 8.82215C1.14201 8.39282 1.58068 8.00082 2.12201 7.64615C2.66334 7.29148 3.23734 7.00215 3.84401 6.77815C4.47868 6.54482 5.12734 6.36748 5.79001 6.24615C6.45268 6.12482 7.05468 6.06415 7.59601 6.06415C8.29601 6.06415 8.92134 6.18082 9.47201 6.41415C10.0227 6.64748 10.4567 6.98348 10.774 7.42215C11.0913 7.86082 11.25 8.37882 11.25 8.97615C11.25 9.52682 11.138 10.0214 10.914 10.4601C10.6993 10.8988 10.368 11.2721 9.92001 11.5801C9.47201 11.8881 8.90734 12.1261 8.22601 12.2941C7.90868 12.3594 7.59601 12.4061 7.28801 12.4341C6.98934 12.4621 6.70934 12.4854 6.44801 12.5041L5.94401 11.0761C6.22401 11.0854 6.50868 11.0854 6.79801 11.0761C7.08734 11.0668 7.36268 11.0341 7.62401 10.9781C8.01601 10.9034 8.38001 10.7868 8.71601 10.6281C9.05201 10.4601 9.31801 10.2409 9.51401 9.97015C9.71934 9.69015 9.82201 9.35415 9.82201 8.96215C9.82201 8.59815 9.72401 8.29482 9.52801 8.05215C9.33201 7.80015 9.06601 7.60882 8.73001 7.47815C8.39401 7.34748 8.01134 7.28215 7.58201 7.28215C6.97534 7.28215 6.37334 7.34748 5.77601 7.47815C5.17868 7.59948 4.59068 7.77215 4.01201 7.99615C3.58268 8.16415 3.19068 8.36482 2.83601 8.59815C2.48134 8.83148 2.20134 9.07415 1.99601 9.32615C1.79068 9.56882 1.68801 9.80215 1.68801 10.0261C1.68801 10.1661 1.73468 10.3014 1.82801 10.4321C1.92134 10.5534 2.03334 10.6608 2.16401 10.7541C2.30401 10.8474 2.44868 10.9221 2.59801 10.9781C2.74734 11.0341 2.88268 11.0622 3.00401 11.0622C3.14401 11.0622 3.25601 11.0154 3.34001 10.9221C3.43334 10.8194 3.48001 10.6514 3.48001 10.4181C3.48001 10.1568 3.47068 9.78815 3.45201 9.31215C3.44268 8.83615 3.43334 8.31348 3.42401 7.74415C3.41468 7.16548 3.41001 6.61015 3.41001 6.07815C3.41001 5.67682 3.41001 5.26148 3.41001 4.83215C3.41934 4.39348 3.42401 3.97348 3.42401 3.57215C3.43334 3.17082 3.43801 2.81615 3.43801 2.50815C3.44734 2.20015 3.45201 1.97615 3.45201 1.83615C3.45201 1.73348 3.44734 1.61215 3.43801 1.47215C3.42868 1.33215 3.41934 1.19682 3.41001 1.06615C3.40068 0.926148 3.38668 0.814148 3.36801 0.730148H4.90801ZM9.09401 2.27015C9.43934 2.43815 9.82201 2.64815 10.242 2.90015C10.6713 3.14282 11.0773 3.39015 11.46 3.64215C11.852 3.88482 12.1647 4.09948 12.398 4.28615L11.712 5.40615C11.544 5.24748 11.32 5.07482 11.04 4.88815C10.7693 4.70148 10.4753 4.51015 10.158 4.31415C9.85001 4.11815 9.54668 3.93615 9.24801 3.76815C8.95868 3.59082 8.70201 3.44615 8.47801 3.33415L9.09401 2.27015ZM0.61001 3.15215C1.01134 3.19882 1.35668 3.23148 1.64601 3.25015C1.93534 3.25948 2.21068 3.26415 2.47201 3.26415C2.81734 3.26415 3.20934 3.24548 3.64801 3.20815C4.08668 3.17082 4.53001 3.12415 4.97801 3.06815C5.43534 3.01215 5.87868 2.94215 6.30801 2.85815C6.74668 2.76482 7.14334 2.66682 7.49801 2.56415L7.52601 3.93615C7.15268 4.02015 6.73734 4.09948 6.28001 4.17415C5.83201 4.24882 5.37468 4.31882 4.90801 4.38415C4.45068 4.44015 4.01201 4.48682 3.59201 4.52415C3.18134 4.55215 2.81734 4.56615 2.50001 4.56615C2.08001 4.56615 1.72534 4.56148 1.43601 4.55215C1.14668 4.53348 0.885343 4.51482 0.65201 4.49615L0.61001 3.15215ZM22.548 3.72615C22.3707 3.83815 22.1793 3.95015 21.974 4.06215C21.778 4.16482 21.568 4.27215 21.344 4.38415C21.1107 4.50548 20.8307 4.65015 20.504 4.81815C20.1773 4.97682 19.8227 5.15415 19.44 5.35015C19.0573 5.53682 18.6747 5.73748 18.292 5.95215C17.9187 6.16682 17.564 6.38148 17.228 6.59615C16.612 7.00682 16.122 7.43148 15.758 7.87015C15.394 8.30882 15.212 8.78948 15.212 9.31215C15.212 9.85348 15.4733 10.2782 15.996 10.5862C16.5187 10.8942 17.3027 11.0482 18.348 11.0482C18.852 11.0482 19.3793 11.0294 19.93 10.9921C20.4807 10.9454 21.0127 10.8849 21.526 10.8102C22.0487 10.7355 22.4967 10.6468 22.87 10.5441L22.856 12.1402C22.492 12.1962 22.0767 12.2521 21.61 12.3081C21.1433 12.3641 20.6393 12.4061 20.098 12.4341C19.566 12.4621 19.0013 12.4761 18.404 12.4761C17.732 12.4761 17.1067 12.4248 16.528 12.3221C15.9587 12.2194 15.464 12.0514 15.044 11.8181C14.624 11.5848 14.2973 11.2768 14.064 10.8941C13.8307 10.5021 13.714 10.0261 13.714 9.46615C13.714 8.92482 13.8307 8.42548 14.064 7.96815C14.3067 7.51082 14.638 7.08148 15.058 6.68015C15.478 6.27882 15.9633 5.89615 16.514 5.53215C16.8593 5.29882 17.228 5.07015 17.62 4.84615C18.012 4.62215 18.3947 4.40748 18.768 4.20215C19.1507 3.99682 19.5053 3.81015 19.832 3.64215C20.1587 3.47415 20.434 3.32482 20.658 3.19415C20.882 3.06348 21.0827 2.94215 21.26 2.83015C21.4467 2.71815 21.6193 2.59215 21.778 2.45215L22.548 3.72615ZM15.478 0.996149C15.702 1.59348 15.94 2.18148 16.192 2.76015C16.444 3.32948 16.696 3.86148 16.948 4.35615C17.2093 4.85082 17.4473 5.28948 17.662 5.67215L16.43 6.40015C16.1873 5.99882 15.9353 5.53682 15.674 5.01415C15.4127 4.48215 15.1467 3.92215 14.876 3.33415C14.6053 2.74615 14.344 2.15815 14.092 1.57015L15.478 0.996149ZM32.95 7.38015C32.95 7.01615 32.8567 6.69415 32.67 6.41415C32.4927 6.13415 32.236 5.91482 31.9 5.75615C31.564 5.58815 31.1673 5.50415 30.71 5.50415C30.178 5.50415 29.674 5.54615 29.198 5.63015C28.7313 5.71415 28.3067 5.81215 27.924 5.92415C27.5413 6.03615 27.2193 6.12948 26.958 6.20415C26.7527 6.26015 26.538 6.33015 26.314 6.41415C26.09 6.49815 25.8893 6.57748 25.712 6.65215L25.278 5.05615C25.4927 5.03748 25.7213 5.00948 25.964 4.97215C26.216 4.92548 26.4493 4.87882 26.664 4.83215C27.0093 4.74815 27.4013 4.65948 27.84 4.56615C28.288 4.46348 28.7687 4.37482 29.282 4.30015C29.8047 4.21615 30.3367 4.17415 30.878 4.17415C31.578 4.17415 32.1987 4.30015 32.74 4.55215C33.2813 4.80415 33.706 5.17282 34.014 5.65815C34.322 6.14348 34.476 6.73615 34.476 7.43615C34.476 8.19215 34.3127 8.86882 33.986 9.46615C33.6687 10.0634 33.216 10.5862 32.628 11.0342C32.0493 11.4729 31.3633 11.8369 30.57 12.1262C29.7767 12.4155 28.9133 12.6302 27.98 12.7702L27.182 11.4121C28.0407 11.3094 28.82 11.1508 29.52 10.9361C30.2293 10.7214 30.8407 10.4508 31.354 10.1241C31.8673 9.79748 32.2593 9.40548 32.53 8.94815C32.81 8.49082 32.95 7.96815 32.95 7.38015ZM27.224 0.884149C27.6253 0.968149 28.0967 1.05215 28.638 1.13615C29.1887 1.21082 29.758 1.27615 30.346 1.33215C30.934 1.38815 31.4893 1.43482 32.012 1.47215C32.5347 1.50948 32.9733 1.52815 33.328 1.52815L33.104 2.88615C32.712 2.85815 32.25 2.82548 31.718 2.78815C31.186 2.74148 30.6307 2.69015 30.052 2.63415C29.4827 2.56882 28.932 2.50348 28.4 2.43815C27.8773 2.36348 27.4153 2.29348 27.014 2.22815L27.224 0.884149ZM46.628 3.72615C46.4507 3.83815 46.2593 3.95015 46.054 4.06215C45.858 4.16482 45.648 4.27215 45.424 4.38415C45.1907 4.50548 44.9107 4.65015 44.584 4.81815C44.2573 4.97682 43.9027 5.15415 43.52 5.35015C43.1373 5.53682 42.7547 5.73748 42.372 5.95215C41.9987 6.16682 41.644 6.38148 41.308 6.59615C40.692 7.00682 40.202 7.43148 39.838 7.87015C39.474 8.30882 39.292 8.78948 39.292 9.31215C39.292 9.85348 39.5533 10.2782 40.076 10.5862C40.5987 10.8942 41.3827 11.0482 42.428 11.0482C42.932 11.0482 43.4593 11.0294 44.01 10.9921C44.5607 10.9454 45.0927 10.8849 45.606 10.8102C46.1287 10.7355 46.5767 10.6468 46.95 10.5441L46.936 12.1402C46.572 12.1962 46.1567 12.2521 45.69 12.3081C45.2233 12.3641 44.7193 12.4061 44.178 12.4341C43.646 12.4621 43.0813 12.4761 42.484 12.4761C41.812 12.4761 41.1867 12.4248 40.608 12.3221C40.0387 12.2194 39.544 12.0514 39.124 11.8181C38.704 11.5848 38.3773 11.2768 38.144 10.8941C37.9107 10.5021 37.794 10.0261 37.794 9.46615C37.794 8.92482 37.9107 8.42548 38.144 7.96815C38.3867 7.51082 38.718 7.08148 39.138 6.68015C39.558 6.27882 40.0433 5.89615 40.594 5.53215C40.9393 5.29882 41.308 5.07015 41.7 4.84615C42.092 4.62215 42.4747 4.40748 42.848 4.20215C43.2307 3.99682 43.5853 3.81015 43.912 3.64215C44.2387 3.47415 44.514 3.32482 44.738 3.19415C44.962 3.06348 45.1627 2.94215 45.34 2.83015C45.5267 2.71815 45.6993 2.59215 45.858 2.45215L46.628 3.72615ZM39.558 0.996149C39.782 1.59348 40.02 2.18148 40.272 2.76015C40.524 3.32948 40.776 3.86148 41.028 4.35615C41.2893 4.85082 41.5273 5.28948 41.742 5.67215L40.51 6.40015C40.2673 5.99882 40.0153 5.53682 39.754 5.01415C39.4927 4.48215 39.2267 3.92215 38.956 3.33415C38.6853 2.74615 38.424 2.15815 38.172 1.57015L39.558 0.996149ZM54.384 2.07415C54.3373 1.91548 54.2813 1.73348 54.216 1.52815C54.1507 1.31348 54.076 1.09882 53.992 0.884149L55.504 0.702148C55.5507 1.01015 55.6207 1.34148 55.714 1.69615C55.8073 2.04148 55.91 2.38682 56.022 2.73215C56.134 3.07748 56.2413 3.40415 56.344 3.71215C56.5587 4.30015 56.82 4.88815 57.128 5.47615C57.4453 6.05482 57.7393 6.52615 58.01 6.89015C58.1127 7.03948 58.22 7.18415 58.332 7.32415C58.444 7.46415 58.5607 7.59482 58.682 7.71615L57.982 8.72415C57.7953 8.67748 57.5573 8.63548 57.268 8.59815C56.988 8.56082 56.68 8.52348 56.344 8.48615C56.0173 8.44882 55.686 8.41615 55.35 8.38815C55.0233 8.36015 54.7247 8.33215 54.454 8.30415L54.552 7.14215C54.804 7.16082 55.07 7.18415 55.35 7.21215C55.63 7.23082 55.896 7.25415 56.148 7.28215C56.4 7.30082 56.6053 7.31948 56.764 7.33815C56.5773 7.04882 56.3767 6.71748 56.162 6.34415C55.9567 5.97082 55.756 5.58348 55.56 5.18215C55.364 4.77148 55.1913 4.36082 55.042 3.95015C54.8927 3.55815 54.762 3.20348 54.65 2.88615C54.5473 2.56882 54.4587 2.29815 54.384 2.07415ZM49.274 2.97015C50.0953 3.06348 50.8793 3.12882 51.626 3.16615C52.3727 3.20348 53.0773 3.21282 53.74 3.19415C54.4027 3.17548 55.0047 3.13815 55.546 3.08215C55.938 3.03548 56.3393 2.97948 56.75 2.91415C57.1607 2.83948 57.5667 2.75548 57.968 2.66215C58.3787 2.56882 58.766 2.46148 59.13 2.34015L59.298 3.74015C58.9807 3.82415 58.6307 3.90815 58.248 3.99215C57.8747 4.06682 57.492 4.13682 57.1 4.20215C56.708 4.25815 56.3347 4.30948 55.98 4.35615C55.0747 4.45882 54.0667 4.51482 52.956 4.52415C51.8453 4.53348 50.6273 4.48682 49.302 4.38415L49.274 2.97015ZM51.724 7.56215C51.5093 7.89815 51.3413 8.22482 51.22 8.54215C51.108 8.85015 51.052 9.16748 51.052 9.49415C51.052 10.1195 51.3227 10.5768 51.864 10.8661C52.4147 11.1554 53.194 11.3048 54.202 11.3141C54.9393 11.3234 55.6113 11.2954 56.218 11.2301C56.8247 11.1648 57.3753 11.0808 57.87 10.9781L57.8 12.3781C57.38 12.4528 56.862 12.5229 56.246 12.5882C55.6393 12.6629 54.93 12.6954 54.118 12.6861C53.2033 12.6861 52.41 12.5695 51.738 12.3362C51.066 12.1122 50.548 11.7808 50.184 11.3421C49.82 10.8941 49.638 10.3482 49.638 9.70415C49.638 9.29348 49.6987 8.89215 49.82 8.50015C49.9507 8.10815 50.1233 7.69282 50.338 7.25415L51.724 7.56215ZM67.04 1.59815C66.9747 1.69148 66.9047 1.79882 66.83 1.92015C66.7553 2.03215 66.676 2.15348 66.592 2.28415C66.4333 2.52682 66.2467 2.83015 66.032 3.19415C65.8173 3.54882 65.5933 3.93148 65.36 4.34215C65.1267 4.75282 64.898 5.15882 64.674 5.56015C64.45 5.96148 64.254 6.32548 64.086 6.65215C64.3847 6.41882 64.6927 6.25082 65.01 6.14815C65.3367 6.03615 65.6493 5.98015 65.948 5.98015C66.4427 5.98015 66.8393 6.13415 67.138 6.44215C67.446 6.74082 67.614 7.17482 67.642 7.74415C67.6513 7.98682 67.656 8.26215 67.656 8.57015C67.656 8.86882 67.656 9.16282 67.656 9.45215C67.6653 9.74148 67.6793 9.99348 67.698 10.2081C67.7167 10.5348 67.824 10.7681 68.02 10.9081C68.2253 11.0388 68.4587 11.1041 68.72 11.1041C69.0747 11.1041 69.392 11.0062 69.672 10.8102C69.9613 10.6142 70.2133 10.3528 70.428 10.0261C70.652 9.69015 70.8387 9.32615 70.988 8.93415C71.1467 8.53282 71.2727 8.13148 71.366 7.73015L72.542 8.69615C72.2993 9.47082 71.996 10.1521 71.632 10.7401C71.268 11.3188 70.8293 11.7714 70.316 12.0981C69.8027 12.4341 69.196 12.6021 68.496 12.6021C67.992 12.6021 67.5813 12.5088 67.264 12.3221C66.956 12.1354 66.7273 11.9021 66.578 11.6221C66.438 11.3421 66.3587 11.0528 66.34 10.7541C66.3213 10.4834 66.3073 10.1941 66.298 9.88615C66.298 9.56882 66.2933 9.26082 66.284 8.96215C66.284 8.65415 66.2747 8.38815 66.256 8.16415C66.2467 7.88415 66.1627 7.66948 66.004 7.52015C65.8453 7.36148 65.6213 7.28215 65.332 7.28215C64.9867 7.28215 64.6507 7.38482 64.324 7.59015C64.0067 7.79548 63.7173 8.06615 63.456 8.40215C63.204 8.73815 62.9893 9.09282 62.812 9.46615C62.7093 9.67148 62.602 9.91882 62.49 10.2081C62.378 10.4881 62.266 10.7821 62.154 11.0901C62.0513 11.3888 61.958 11.6734 61.874 11.9441C61.79 12.2148 61.72 12.4388 61.664 12.6161L60.124 12.0981C60.3013 11.6221 60.5207 11.0854 60.782 10.4881C61.0433 9.88148 61.3327 9.24682 61.65 8.58415C61.9673 7.91215 62.2893 7.24948 62.616 6.59615C62.9427 5.94282 63.2553 5.32215 63.554 4.73415C63.8527 4.14615 64.1187 3.63282 64.352 3.19415C64.5853 2.75548 64.7627 2.42415 64.884 2.20015C64.9773 2.03215 65.0753 1.85015 65.178 1.65415C65.2807 1.44882 65.3787 1.22015 65.472 0.968148L67.04 1.59815Z" fill="#E22F61"/>
</g>
<defs>
<clipPath id="clip0_29294_30">
<rect width="73" height="13" fill="white"/>
</clipPath>
</defs>
</svg>
