<svg width="42" height="22" viewBox="0 0 42 22" fill="none" xmlns="http://www.w3.org/2000/svg">
<g clip-path="url(#clip0_29294_2)">
<path d="M8.464 1.06434C8.352 1.41634 8.256 1.78434 8.176 2.16834C8.112 2.55234 8.04 2.92034 7.96 3.27234C7.896 3.65634 7.808 4.12034 7.696 4.66434C7.584 5.19234 7.456 5.76834 7.312 6.39234C7.184 7.00034 7.048 7.61634 6.904 8.24034C6.76 8.86434 6.608 9.46434 6.448 10.0403C6.288 10.6003 6.128 11.1043 5.968 11.5523C6.992 10.9123 8.024 10.4563 9.064 10.1843C10.104 9.89634 11.208 9.75234 12.376 9.75234C13.672 9.75234 14.776 9.96034 15.688 10.3763C16.616 10.7763 17.336 11.3443 17.848 12.0803C18.36 12.8163 18.616 13.6803 18.616 14.6723C18.616 15.9523 18.304 17.0403 17.68 17.9363C17.072 18.8323 16.208 19.5283 15.088 20.0243C13.968 20.5363 12.632 20.8643 11.08 21.0083C9.544 21.1523 7.832 21.1283 5.944 20.9363L5.296 18.5123C6.656 18.7043 7.976 18.7923 9.256 18.7763C10.552 18.7603 11.712 18.6163 12.736 18.3443C13.76 18.0563 14.576 17.6163 15.184 17.0243C15.792 16.4323 16.096 15.6643 16.096 14.7203C16.096 13.9043 15.752 13.2163 15.064 12.6563C14.392 12.0803 13.408 11.7923 12.112 11.7923C10.704 11.7923 9.392 12.0323 8.176 12.5123C6.96 12.9923 5.968 13.7043 5.2 14.6483C5.072 14.8243 4.952 15.0003 4.84 15.1763C4.728 15.3363 4.616 15.5203 4.504 15.7283L2.248 14.9363C2.712 14.0403 3.136 13.0403 3.52 11.9363C3.904 10.8323 4.24 9.72034 4.528 8.60034C4.832 7.46434 5.08 6.41634 5.272 5.45634C5.464 4.49634 5.592 3.71234 5.656 3.10434C5.72 2.67234 5.76 2.29634 5.776 1.97634C5.808 1.64034 5.808 1.29634 5.776 0.944336L8.464 1.06434ZM0.615997 4.01634C1.304 4.12834 2.08 4.22434 2.944 4.30434C3.808 4.38434 4.608 4.42434 5.344 4.42434C6.112 4.42434 6.96 4.40034 7.888 4.35234C8.832 4.30434 9.816 4.23234 10.84 4.13634C11.864 4.04034 12.888 3.92034 13.912 3.77634C14.952 3.61634 15.952 3.43234 16.912 3.22434L16.96 5.52834C16.144 5.65634 15.24 5.78434 14.248 5.91234C13.256 6.04034 12.24 6.16034 11.2 6.27234C10.16 6.36834 9.136 6.44834 8.128 6.51234C7.12 6.56034 6.2 6.58434 5.368 6.58434C4.504 6.58434 3.672 6.56834 2.872 6.53634C2.072 6.48834 1.32 6.43234 0.615997 6.36834V4.01634ZM31.744 1.06434C31.632 1.41634 31.536 1.78434 31.456 2.16834C31.392 2.55234 31.32 2.92034 31.24 3.27234C31.176 3.65634 31.088 4.12034 30.976 4.66434C30.864 5.19234 30.736 5.76834 30.592 6.39234C30.464 7.00034 30.328 7.61634 30.184 8.24034C30.04 8.86434 29.888 9.46434 29.728 10.0403C29.568 10.6003 29.408 11.1043 29.248 11.5523C30.272 10.9123 31.304 10.4563 32.344 10.1843C33.384 9.89634 34.488 9.75234 35.656 9.75234C36.952 9.75234 38.056 9.96034 38.968 10.3763C39.896 10.7763 40.616 11.3443 41.128 12.0803C41.64 12.8163 41.896 13.6803 41.896 14.6723C41.896 15.9523 41.584 17.0403 40.96 17.9363C40.352 18.8323 39.488 19.5283 38.368 20.0243C37.248 20.5363 35.912 20.8643 34.36 21.0083C32.824 21.1523 31.112 21.1283 29.224 20.9363L28.576 18.5123C29.936 18.7043 31.256 18.7923 32.536 18.7763C33.832 18.7603 34.992 18.6163 36.016 18.3443C37.04 18.0563 37.856 17.6163 38.464 17.0243C39.072 16.4323 39.376 15.6643 39.376 14.7203C39.376 13.9043 39.032 13.2163 38.344 12.6563C37.672 12.0803 36.688 11.7923 35.392 11.7923C33.984 11.7923 32.672 12.0323 31.456 12.5123C30.24 12.9923 29.248 13.7043 28.48 14.6483C28.352 14.8243 28.232 15.0003 28.12 15.1763C28.008 15.3363 27.896 15.5203 27.784 15.7283L25.528 14.9363C25.992 14.0403 26.416 13.0403 26.8 11.9363C27.184 10.8323 27.52 9.72034 27.808 8.60034C28.112 7.46434 28.36 6.41634 28.552 5.45634C28.744 4.49634 28.872 3.71234 28.936 3.10434C29 2.67234 29.04 2.29634 29.056 1.97634C29.088 1.64034 29.088 1.29634 29.056 0.944336L31.744 1.06434ZM23.896 4.01634C24.584 4.12834 25.36 4.22434 26.224 4.30434C27.088 4.38434 27.888 4.42434 28.624 4.42434C29.392 4.42434 30.24 4.40034 31.168 4.35234C32.112 4.30434 33.096 4.23234 34.12 4.13634C35.144 4.04034 36.168 3.92034 37.192 3.77634C38.232 3.61634 39.232 3.43234 40.192 3.22434L40.24 5.52834C39.424 5.65634 38.52 5.78434 37.528 5.91234C36.536 6.04034 35.52 6.16034 34.48 6.27234C33.44 6.36834 32.416 6.44834 31.408 6.51234C30.4 6.56034 29.48 6.58434 28.648 6.58434C27.784 6.58434 26.952 6.56834 26.152 6.53634C25.352 6.48834 24.6 6.43234 23.896 6.36834V4.01634Z" fill="#E22F61"/>
</g>
<defs>
<clipPath id="clip0_29294_2">
<rect width="42" height="22" fill="white"/>
</clipPath>
</defs>
</svg>
