<svg width="63" height="13" viewBox="0 0 63 13" fill="none" xmlns="http://www.w3.org/2000/svg">
<path d="M4.908 0.729999C4.88933 0.813999 4.87533 0.921332 4.866 1.052C4.85667 1.17333 4.84267 1.304 4.824 1.444C4.81467 1.57467 4.80533 1.696 4.796 1.808C4.78667 2.05067 4.77267 2.34 4.754 2.676C4.74467 3.00267 4.73067 3.362 4.712 3.754C4.70267 4.13667 4.69333 4.524 4.684 4.916C4.684 5.29867 4.684 5.66733 4.684 6.022C4.684 6.386 4.68867 6.792 4.698 7.24C4.70733 7.688 4.71667 8.13133 4.726 8.57C4.73533 8.99933 4.74467 9.40067 4.754 9.774C4.76333 10.138 4.768 10.4273 4.768 10.642C4.768 11.1367 4.70733 11.524 4.586 11.804C4.474 12.084 4.31533 12.28 4.11 12.392C3.914 12.504 3.676 12.56 3.396 12.56C3.09733 12.56 2.77067 12.4947 2.416 12.364C2.06133 12.2333 1.72533 12.056 1.408 11.832C1.09067 11.608 0.829333 11.3467 0.624 11.048C0.418667 10.7493 0.316 10.432 0.316 10.096C0.316 9.66667 0.479333 9.242 0.806 8.822C1.142 8.39267 1.58067 8.00067 2.122 7.646C2.66333 7.29133 3.23733 7.002 3.844 6.778C4.47867 6.54467 5.12733 6.36733 5.79 6.246C6.45267 6.12467 7.05467 6.064 7.596 6.064C8.296 6.064 8.92133 6.18067 9.472 6.414C10.0227 6.64733 10.4567 6.98333 10.774 7.422C11.0913 7.86067 11.25 8.37867 11.25 8.976C11.25 9.52667 11.138 10.0213 10.914 10.46C10.6993 10.8987 10.368 11.272 9.92 11.58C9.472 11.888 8.90733 12.126 8.226 12.294C7.90867 12.3593 7.596 12.406 7.288 12.434C6.98933 12.462 6.70933 12.4853 6.448 12.504L5.944 11.076C6.224 11.0853 6.50867 11.0853 6.798 11.076C7.08733 11.0667 7.36267 11.034 7.624 10.978C8.016 10.9033 8.38 10.7867 8.716 10.628C9.052 10.46 9.318 10.2407 9.514 9.97C9.71933 9.69 9.822 9.354 9.822 8.962C9.822 8.598 9.724 8.29467 9.528 8.052C9.332 7.8 9.066 7.60867 8.73 7.478C8.394 7.34733 8.01133 7.282 7.582 7.282C6.97533 7.282 6.37333 7.34733 5.776 7.478C5.17867 7.59933 4.59067 7.772 4.012 7.996C3.58267 8.164 3.19067 8.36467 2.836 8.598C2.48133 8.83133 2.20133 9.074 1.996 9.326C1.79067 9.56867 1.688 9.802 1.688 10.026C1.688 10.166 1.73467 10.3013 1.828 10.432C1.92133 10.5533 2.03333 10.6607 2.164 10.754C2.304 10.8473 2.44867 10.922 2.598 10.978C2.74733 11.034 2.88267 11.062 3.004 11.062C3.144 11.062 3.256 11.0153 3.34 10.922C3.43333 10.8193 3.48 10.6513 3.48 10.418C3.48 10.1567 3.47067 9.788 3.452 9.312C3.44267 8.836 3.43333 8.31333 3.424 7.744C3.41467 7.16533 3.41 6.61 3.41 6.078C3.41 5.67667 3.41 5.26133 3.41 4.832C3.41933 4.39333 3.424 3.97333 3.424 3.572C3.43333 3.17067 3.438 2.816 3.438 2.508C3.44733 2.2 3.452 1.976 3.452 1.836C3.452 1.73333 3.44733 1.612 3.438 1.472C3.42867 1.332 3.41933 1.19667 3.41 1.066C3.40067 0.925999 3.38667 0.813999 3.368 0.729999H4.908ZM9.094 2.27C9.43933 2.438 9.822 2.648 10.242 2.9C10.6713 3.14267 11.0773 3.39 11.46 3.642C11.852 3.88467 12.1647 4.09933 12.398 4.286L11.712 5.406C11.544 5.24733 11.32 5.07467 11.04 4.888C10.7693 4.70133 10.4753 4.51 10.158 4.314C9.85 4.118 9.54667 3.936 9.248 3.768C8.95867 3.59067 8.702 3.446 8.478 3.334L9.094 2.27ZM0.61 3.152C1.01133 3.19867 1.35667 3.23133 1.646 3.25C1.93533 3.25933 2.21067 3.264 2.472 3.264C2.81733 3.264 3.20933 3.24533 3.648 3.208C4.08667 3.17067 4.53 3.124 4.978 3.068C5.43533 3.012 5.87867 2.942 6.308 2.858C6.74667 2.76467 7.14333 2.66667 7.498 2.564L7.526 3.936C7.15267 4.02 6.73733 4.09933 6.28 4.174C5.832 4.24867 5.37467 4.31867 4.908 4.384C4.45067 4.44 4.012 4.48667 3.592 4.524C3.18133 4.552 2.81733 4.566 2.5 4.566C2.08 4.566 1.72533 4.56133 1.436 4.552C1.14667 4.53333 0.885333 4.51467 0.652 4.496L0.61 3.152ZM17.928 2.396C18.3387 2.46133 18.8007 2.508 19.314 2.536C19.8367 2.564 20.3733 2.57333 20.924 2.564C21.4747 2.55467 22.002 2.536 22.506 2.508C23.01 2.48 23.444 2.44267 23.808 2.396V3.824C23.4067 3.86133 22.954 3.894 22.45 3.922C21.946 3.94067 21.4233 3.95 20.882 3.95C20.35 3.95 19.8273 3.94067 19.314 3.922C18.8007 3.894 18.3433 3.86133 17.942 3.824L17.928 2.396ZM18.726 8.22C18.67 8.46267 18.6233 8.682 18.586 8.878C18.558 9.074 18.544 9.27 18.544 9.466C18.544 9.62467 18.5767 9.774 18.642 9.914C18.7167 10.054 18.8333 10.1753 18.992 10.278C19.16 10.3807 19.384 10.4647 19.664 10.53C19.9533 10.586 20.308 10.614 20.728 10.614C21.3627 10.614 21.9553 10.586 22.506 10.53C23.066 10.4647 23.6353 10.3667 24.214 10.236L24.242 11.734C23.8033 11.818 23.29 11.888 22.702 11.944C22.1233 11.9907 21.456 12.014 20.7 12.014C19.5147 12.014 18.6373 11.8227 18.068 11.44C17.508 11.048 17.228 10.5113 17.228 9.83C17.228 9.578 17.2467 9.31667 17.284 9.046C17.3213 8.766 17.382 8.45333 17.466 8.108L18.726 8.22ZM15.492 1.388C15.464 1.472 15.4267 1.584 15.38 1.724C15.3427 1.85467 15.3053 1.99 15.268 2.13C15.24 2.26067 15.2167 2.368 15.198 2.452C15.1513 2.68533 15.0953 2.97 15.03 3.306C14.974 3.63267 14.9133 3.992 14.848 4.384C14.792 4.76667 14.736 5.15867 14.68 5.56C14.6333 5.952 14.5913 6.33467 14.554 6.708C14.526 7.08133 14.512 7.422 14.512 7.73C14.512 7.97267 14.5167 8.22 14.526 8.472C14.5447 8.71467 14.568 8.96667 14.596 9.228C14.68 9.04133 14.764 8.84533 14.848 8.64C14.932 8.42533 15.016 8.21533 15.1 8.01C15.184 7.80467 15.2633 7.618 15.338 7.45L16.038 8.01C15.9167 8.35533 15.786 8.738 15.646 9.158C15.506 9.578 15.38 9.97933 15.268 10.362C15.1653 10.7353 15.0907 11.0387 15.044 11.272C15.0253 11.3653 15.0067 11.4773 14.988 11.608C14.9693 11.7293 14.9647 11.832 14.974 11.916C14.974 11.9813 14.974 12.0607 14.974 12.154C14.9833 12.2567 14.9927 12.35 15.002 12.434L13.728 12.518C13.588 12.0327 13.4667 11.3933 13.364 10.6C13.2613 9.80667 13.21 8.93867 13.21 7.996C13.21 7.47333 13.2333 6.946 13.28 6.414C13.3267 5.87267 13.3827 5.35 13.448 4.846C13.5133 4.342 13.5787 3.88 13.644 3.46C13.7187 3.04 13.7747 2.69 13.812 2.41C13.84 2.23267 13.8633 2.04133 13.882 1.836C13.91 1.63067 13.9287 1.43467 13.938 1.248L15.492 1.388ZM27.546 2.13C27.518 2.26067 27.4947 2.41933 27.476 2.606C27.4573 2.79267 27.4387 2.97933 27.42 3.166C27.4107 3.35267 27.406 3.51133 27.406 3.642C27.406 3.93133 27.406 4.25333 27.406 4.608C27.4153 4.96267 27.4247 5.32667 27.434 5.7C27.4433 6.064 27.4667 6.428 27.504 6.792C27.5787 7.52933 27.6907 8.17333 27.84 8.724C27.9893 9.27467 28.1807 9.704 28.414 10.012C28.6473 10.32 28.918 10.474 29.226 10.474C29.4033 10.474 29.5713 10.39 29.73 10.222C29.8887 10.054 30.038 9.83 30.178 9.55C30.318 9.27 30.444 8.96667 30.556 8.64C30.6773 8.304 30.78 7.982 30.864 7.674L31.97 8.976C31.6713 9.76933 31.3727 10.404 31.074 10.88C30.7847 11.3467 30.486 11.6827 30.178 11.888C29.87 12.0933 29.5433 12.196 29.198 12.196C28.7313 12.196 28.2833 12.0373 27.854 11.72C27.434 11.3933 27.07 10.8613 26.762 10.124C26.454 9.38667 26.2347 8.402 26.104 7.17C26.0573 6.75933 26.02 6.316 25.992 5.84C25.9733 5.364 25.9593 4.91133 25.95 4.482C25.95 4.05267 25.95 3.698 25.95 3.418C25.95 3.24067 25.9407 3.026 25.922 2.774C25.9127 2.51267 25.8847 2.28867 25.838 2.102L27.546 2.13ZM34.714 2.48C34.966 2.80667 35.2087 3.18933 35.442 3.628C35.6847 4.05733 35.904 4.524 36.1 5.028C36.296 5.532 36.4687 6.04533 36.618 6.568C36.7767 7.09067 36.9073 7.60867 37.01 8.122C37.1127 8.63533 37.1827 9.12067 37.22 9.578L35.778 10.138C35.722 9.53133 35.6287 8.89667 35.498 8.234C35.3673 7.57133 35.1993 6.918 34.994 6.274C34.7887 5.62067 34.546 5.00933 34.266 4.44C33.9953 3.86133 33.6827 3.362 33.328 2.942L34.714 2.48ZM44.024 2.074C43.9773 1.91533 43.9213 1.73333 43.856 1.528C43.7907 1.31333 43.716 1.09867 43.632 0.884L45.144 0.701999C45.1907 1.01 45.2607 1.34133 45.354 1.696C45.4473 2.04133 45.55 2.38667 45.662 2.732C45.774 3.07733 45.8813 3.404 45.984 3.712C46.1987 4.3 46.46 4.888 46.768 5.476C47.0853 6.05467 47.3793 6.526 47.65 6.89C47.7527 7.03933 47.86 7.184 47.972 7.324C48.084 7.464 48.2007 7.59467 48.322 7.716L47.622 8.724C47.4353 8.67733 47.1973 8.63533 46.908 8.598C46.628 8.56067 46.32 8.52333 45.984 8.486C45.6573 8.44867 45.326 8.416 44.99 8.388C44.6633 8.36 44.3647 8.332 44.094 8.304L44.192 7.142C44.444 7.16067 44.71 7.184 44.99 7.212C45.27 7.23067 45.536 7.254 45.788 7.282C46.04 7.30067 46.2453 7.31933 46.404 7.338C46.2173 7.04867 46.0167 6.71733 45.802 6.344C45.5967 5.97067 45.396 5.58333 45.2 5.182C45.004 4.77133 44.8313 4.36067 44.682 3.95C44.5327 3.558 44.402 3.20333 44.29 2.886C44.1873 2.56867 44.0987 2.298 44.024 2.074ZM38.914 2.97C39.7353 3.06333 40.5193 3.12867 41.266 3.166C42.0127 3.20333 42.7173 3.21267 43.38 3.194C44.0427 3.17533 44.6447 3.138 45.186 3.082C45.578 3.03533 45.9793 2.97933 46.39 2.914C46.8007 2.83933 47.2067 2.75533 47.608 2.662C48.0187 2.56867 48.406 2.46133 48.77 2.34L48.938 3.74C48.6207 3.824 48.2707 3.908 47.888 3.992C47.5147 4.06667 47.132 4.13667 46.74 4.202C46.348 4.258 45.9747 4.30933 45.62 4.356C44.7147 4.45867 43.7067 4.51467 42.596 4.524C41.4853 4.53333 40.2673 4.48667 38.942 4.384L38.914 2.97ZM41.364 7.562C41.1493 7.898 40.9813 8.22467 40.86 8.542C40.748 8.85 40.692 9.16733 40.692 9.494C40.692 10.1193 40.9627 10.5767 41.504 10.866C42.0547 11.1553 42.834 11.3047 43.842 11.314C44.5793 11.3233 45.2513 11.2953 45.858 11.23C46.4647 11.1647 47.0153 11.0807 47.51 10.978L47.44 12.378C47.02 12.4527 46.502 12.5227 45.886 12.588C45.2793 12.6627 44.57 12.6953 43.758 12.686C42.8433 12.686 42.05 12.5693 41.378 12.336C40.706 12.112 40.188 11.7807 39.824 11.342C39.46 10.894 39.278 10.348 39.278 9.704C39.278 9.29333 39.3387 8.892 39.46 8.5C39.5907 8.108 39.7633 7.69267 39.978 7.254L41.364 7.562ZM57.24 1.598C57.1747 1.69133 57.1047 1.79867 57.03 1.92C56.9553 2.032 56.876 2.15333 56.792 2.284C56.6333 2.52667 56.4467 2.83 56.232 3.194C56.0173 3.54867 55.7933 3.93133 55.56 4.342C55.3267 4.75267 55.098 5.15867 54.874 5.56C54.65 5.96133 54.454 6.32533 54.286 6.652C54.5847 6.41867 54.8927 6.25067 55.21 6.148C55.5367 6.036 55.8493 5.98 56.148 5.98C56.6427 5.98 57.0393 6.134 57.338 6.442C57.646 6.74067 57.814 7.17467 57.842 7.744C57.8513 7.98667 57.856 8.262 57.856 8.57C57.856 8.86867 57.856 9.16267 57.856 9.452C57.8653 9.74133 57.8793 9.99333 57.898 10.208C57.9167 10.5347 58.024 10.768 58.22 10.908C58.4253 11.0387 58.6587 11.104 58.92 11.104C59.2747 11.104 59.592 11.006 59.872 10.81C60.1613 10.614 60.4133 10.3527 60.628 10.026C60.852 9.69 61.0387 9.326 61.188 8.934C61.3467 8.53267 61.4727 8.13133 61.566 7.73L62.742 8.696C62.4993 9.47067 62.196 10.152 61.832 10.74C61.468 11.3187 61.0293 11.7713 60.516 12.098C60.0027 12.434 59.396 12.602 58.696 12.602C58.192 12.602 57.7813 12.5087 57.464 12.322C57.156 12.1353 56.9273 11.902 56.778 11.622C56.638 11.342 56.5587 11.0527 56.54 10.754C56.5213 10.4833 56.5073 10.194 56.498 9.886C56.498 9.56867 56.4933 9.26067 56.484 8.962C56.484 8.654 56.4747 8.388 56.456 8.164C56.4467 7.884 56.3627 7.66933 56.204 7.52C56.0453 7.36133 55.8213 7.282 55.532 7.282C55.1867 7.282 54.8507 7.38467 54.524 7.59C54.2067 7.79533 53.9173 8.066 53.656 8.402C53.404 8.738 53.1893 9.09267 53.012 9.466C52.9093 9.67133 52.802 9.91867 52.69 10.208C52.578 10.488 52.466 10.782 52.354 11.09C52.2513 11.3887 52.158 11.6733 52.074 11.944C51.99 12.2147 51.92 12.4387 51.864 12.616L50.324 12.098C50.5013 11.622 50.7207 11.0853 50.982 10.488C51.2433 9.88133 51.5327 9.24667 51.85 8.584C52.1673 7.912 52.4893 7.24933 52.816 6.596C53.1427 5.94267 53.4553 5.322 53.754 4.734C54.0527 4.146 54.3187 3.63267 54.552 3.194C54.7853 2.75533 54.9627 2.424 55.084 2.2C55.1773 2.032 55.2753 1.85 55.378 1.654C55.4807 1.44867 55.5787 1.22 55.672 0.967999L57.24 1.598Z" fill="black"/>
</svg>
