<svg width="52" height="13" viewBox="0 0 52 13" fill="none" xmlns="http://www.w3.org/2000/svg">
<g clip-path="url(#clip0_29294_22)">
<path d="M0.700012 6.67988C0.700012 5.81188 0.863345 4.99521 1.19001 4.22988C1.51668 3.46455 1.96468 2.79721 2.53401 2.22788C3.11268 1.64921 3.78468 1.19655 4.55001 0.869884C5.31534 0.543217 6.13201 0.379883 7.00001 0.379883C7.86801 0.379883 8.68468 0.543217 9.45001 0.869884C10.2153 1.19655 10.8827 1.64921 11.452 2.22788C12.0307 2.79721 12.4833 3.46455 12.81 4.22988C13.1367 4.99521 13.3 5.81188 13.3 6.67988C13.3 7.54788 13.1367 8.36455 12.81 9.12988C12.4833 9.89521 12.0307 10.5672 11.452 11.1459C10.8827 11.7152 10.2153 12.1632 9.45001 12.4899C8.68468 12.8166 7.86801 12.9799 7.00001 12.9799C6.13201 12.9799 5.31534 12.8166 4.55001 12.4899C3.78468 12.1632 3.11268 11.7152 2.53401 11.1459C1.96468 10.5672 1.51668 9.89521 1.19001 9.12988C0.863345 8.36455 0.700012 7.54788 0.700012 6.67988ZM7.00001 12.4199C7.79334 12.4199 8.53534 12.2752 9.22601 11.9859C9.91668 11.6872 10.5233 11.2719 11.046 10.7399C11.578 10.2079 11.9933 9.59655 12.292 8.90588C12.5907 8.21521 12.74 7.47321 12.74 6.67988C12.74 5.88655 12.5907 5.14455 12.292 4.45388C11.9933 3.76321 11.578 3.15655 11.046 2.63388C10.5233 2.10188 9.91668 1.68655 9.22601 1.38788C8.53534 1.08921 7.79334 0.939884 7.00001 0.939884C6.20668 0.939884 5.46468 1.08921 4.77401 1.38788C4.08334 1.68655 3.47201 2.10188 2.94001 2.63388C2.41734 3.15655 2.00668 3.76321 1.70801 4.45388C1.40934 5.14455 1.26001 5.88655 1.26001 6.67988C1.26001 7.47321 1.40468 8.21521 1.69401 8.90588C1.99268 9.59655 2.40801 10.2079 2.94001 10.7399C3.47201 11.2626 4.08334 11.6732 4.77401 11.9719C5.46468 12.2706 6.20668 12.4199 7.00001 12.4199ZM13.3 6.67988C13.3 5.81188 13.4633 4.99521 13.79 4.22988C14.1167 3.46455 14.5647 2.79721 15.134 2.22788C15.7127 1.64921 16.3847 1.19655 17.15 0.869884C17.9153 0.543217 18.732 0.379883 19.6 0.379883C20.468 0.379883 21.2847 0.543217 22.05 0.869884C22.8153 1.19655 23.4827 1.64921 24.052 2.22788C24.6307 2.79721 25.0833 3.46455 25.41 4.22988C25.7367 4.99521 25.9 5.81188 25.9 6.67988C25.9 7.54788 25.7367 8.36455 25.41 9.12988C25.0833 9.89521 24.6307 10.5672 24.052 11.1459C23.4827 11.7152 22.8153 12.1632 22.05 12.4899C21.2847 12.8166 20.468 12.9799 19.6 12.9799C18.732 12.9799 17.9153 12.8166 17.15 12.4899C16.3847 12.1632 15.7127 11.7152 15.134 11.1459C14.5647 10.5672 14.1167 9.89521 13.79 9.12988C13.4633 8.36455 13.3 7.54788 13.3 6.67988ZM19.6 12.4199C20.3933 12.4199 21.1353 12.2752 21.826 11.9859C22.5167 11.6872 23.1233 11.2719 23.646 10.7399C24.178 10.2079 24.5933 9.59655 24.892 8.90588C25.1907 8.21521 25.34 7.47321 25.34 6.67988C25.34 5.88655 25.1907 5.14455 24.892 4.45388C24.5933 3.76321 24.178 3.15655 23.646 2.63388C23.1233 2.10188 22.5167 1.68655 21.826 1.38788C21.1353 1.08921 20.3933 0.939884 19.6 0.939884C18.8067 0.939884 18.0647 1.08921 17.374 1.38788C16.6833 1.68655 16.072 2.10188 15.54 2.63388C15.0173 3.15655 14.6067 3.76321 14.308 4.45388C14.0093 5.14455 13.86 5.88655 13.86 6.67988C13.86 7.47321 14.0047 8.21521 14.294 8.90588C14.5927 9.59655 15.008 10.2079 15.54 10.7399C16.072 11.2626 16.6833 11.6732 17.374 11.9719C18.0647 12.2706 18.8067 12.4199 19.6 12.4199ZM32.424 2.07388C32.3773 1.91521 32.3213 1.73321 32.256 1.52788C32.1907 1.31321 32.116 1.09855 32.032 0.883884L33.544 0.701883C33.5907 1.00988 33.6607 1.34121 33.754 1.69588C33.8473 2.04121 33.95 2.38655 34.062 2.73188C34.174 3.07721 34.2813 3.40388 34.384 3.71188C34.5987 4.29988 34.86 4.88788 35.168 5.47588C35.4853 6.05455 35.7793 6.52588 36.05 6.88988C36.1527 7.03921 36.26 7.18388 36.372 7.32388C36.484 7.46388 36.6007 7.59455 36.722 7.71588L36.022 8.72388C35.8353 8.67721 35.5973 8.63521 35.308 8.59788C35.028 8.56055 34.72 8.52321 34.384 8.48588C34.0573 8.44855 33.726 8.41588 33.39 8.38788C33.0633 8.35988 32.7647 8.33188 32.494 8.30388L32.592 7.14188C32.844 7.16055 33.11 7.18388 33.39 7.21188C33.67 7.23055 33.936 7.25388 34.188 7.28188C34.44 7.30055 34.6453 7.31921 34.804 7.33788C34.6173 7.04855 34.4167 6.71721 34.202 6.34388C33.9967 5.97055 33.796 5.58321 33.6 5.18188C33.404 4.77121 33.2313 4.36055 33.082 3.94988C32.9327 3.55788 32.802 3.20321 32.69 2.88588C32.5873 2.56855 32.4987 2.29788 32.424 2.07388ZM27.314 2.96988C28.1353 3.06321 28.9193 3.12855 29.666 3.16588C30.4127 3.20321 31.1173 3.21255 31.78 3.19388C32.4427 3.17521 33.0447 3.13788 33.586 3.08188C33.978 3.03521 34.3793 2.97921 34.79 2.91388C35.2007 2.83921 35.6067 2.75521 36.008 2.66188C36.4187 2.56855 36.806 2.46121 37.17 2.33988L37.338 3.73988C37.0207 3.82388 36.6707 3.90788 36.288 3.99188C35.9147 4.06655 35.532 4.13655 35.14 4.20188C34.748 4.25788 34.3747 4.30921 34.02 4.35588C33.1147 4.45855 32.1067 4.51455 30.996 4.52388C29.8853 4.53321 28.6673 4.48655 27.342 4.38388L27.314 2.96988ZM29.764 7.56188C29.5493 7.89788 29.3813 8.22455 29.26 8.54188C29.148 8.84988 29.092 9.16721 29.092 9.49388C29.092 10.1192 29.3627 10.5766 29.904 10.8659C30.4547 11.1552 31.234 11.3046 32.242 11.3139C32.9793 11.3232 33.6513 11.2952 34.258 11.2299C34.8647 11.1646 35.4153 11.0806 35.91 10.9779L35.84 12.3779C35.42 12.4526 34.902 12.5226 34.286 12.5879C33.6793 12.6626 32.97 12.6952 32.158 12.6859C31.2433 12.6859 30.45 12.5692 29.778 12.3359C29.106 12.1119 28.588 11.7806 28.224 11.3419C27.86 10.8939 27.678 10.3479 27.678 9.70388C27.678 9.29321 27.7387 8.89188 27.86 8.49988C27.9907 8.10788 28.1633 7.69255 28.378 7.25388L29.764 7.56188ZM45.64 1.59788C45.5747 1.69121 45.5047 1.79855 45.43 1.91988C45.3553 2.03188 45.276 2.15321 45.192 2.28388C45.0333 2.52655 44.8467 2.82988 44.632 3.19388C44.4173 3.54855 44.1933 3.93121 43.96 4.34188C43.7267 4.75255 43.498 5.15855 43.274 5.55988C43.05 5.96121 42.854 6.32521 42.686 6.65188C42.9847 6.41855 43.2927 6.25055 43.61 6.14788C43.9367 6.03588 44.2493 5.97988 44.548 5.97988C45.0427 5.97988 45.4393 6.13388 45.738 6.44188C46.046 6.74055 46.214 7.17455 46.242 7.74388C46.2513 7.98655 46.256 8.26188 46.256 8.56988C46.256 8.86855 46.256 9.16255 46.256 9.45188C46.2653 9.74121 46.2793 9.99321 46.298 10.2079C46.3167 10.5346 46.424 10.7679 46.62 10.9079C46.8253 11.0386 47.0587 11.1039 47.32 11.1039C47.6747 11.1039 47.992 11.0059 48.272 10.8099C48.5613 10.6139 48.8133 10.3526 49.028 10.0259C49.252 9.68988 49.4387 9.32588 49.588 8.93388C49.7467 8.53255 49.8727 8.13121 49.966 7.72988L51.142 8.69588C50.8993 9.47055 50.596 10.1519 50.232 10.7399C49.868 11.3186 49.4293 11.7712 48.916 12.0979C48.4027 12.4339 47.796 12.6019 47.096 12.6019C46.592 12.6019 46.1813 12.5086 45.864 12.3219C45.556 12.1352 45.3273 11.9019 45.178 11.6219C45.038 11.3419 44.9587 11.0526 44.94 10.7539C44.9213 10.4832 44.9073 10.1939 44.898 9.88588C44.898 9.56855 44.8933 9.26055 44.884 8.96188C44.884 8.65388 44.8747 8.38788 44.856 8.16388C44.8467 7.88388 44.7627 7.66921 44.604 7.51988C44.4453 7.36121 44.2213 7.28188 43.932 7.28188C43.5867 7.28188 43.2507 7.38455 42.924 7.58988C42.6067 7.79521 42.3173 8.06588 42.056 8.40188C41.804 8.73788 41.5893 9.09255 41.412 9.46588C41.3093 9.67121 41.202 9.91855 41.09 10.2079C40.978 10.4879 40.866 10.7819 40.754 11.0899C40.6513 11.3886 40.558 11.6732 40.474 11.9439C40.39 12.2146 40.32 12.4386 40.264 12.6159L38.724 12.0979C38.9013 11.6219 39.1207 11.0852 39.382 10.4879C39.6433 9.88121 39.9327 9.24655 40.25 8.58388C40.5673 7.91188 40.8893 7.24921 41.216 6.59588C41.5427 5.94255 41.8553 5.32188 42.154 4.73388C42.4527 4.14588 42.7187 3.63255 42.952 3.19388C43.1853 2.75521 43.3627 2.42388 43.484 2.19988C43.5773 2.03188 43.6753 1.84988 43.778 1.65388C43.8807 1.44855 43.9787 1.21988 44.072 0.967883L45.64 1.59788Z" fill="#E22F61"/>
</g>
<defs>
<clipPath id="clip0_29294_22">
<rect width="52" height="13" fill="white"/>
</clipPath>
</defs>
</svg>
