<svg width="36" height="13" viewBox="0 0 36 13" fill="none" xmlns="http://www.w3.org/2000/svg">
<path d="M7.294 10.866C7.89133 10.7727 8.45133 10.6373 8.974 10.46C9.506 10.2733 9.97267 10.0353 10.374 9.746C10.7847 9.44733 11.102 9.08333 11.326 8.654C11.55 8.21533 11.6573 7.71133 11.648 7.142C11.648 6.862 11.5967 6.58667 11.494 6.316C11.3913 6.04533 11.2327 5.798 11.018 5.574C10.8033 5.34067 10.5373 5.15867 10.22 5.028C9.912 4.888 9.548 4.818 9.128 4.818C8.24133 4.818 7.40133 5.04667 6.608 5.504C5.824 5.952 5.09133 6.53067 4.41 7.24V5.686C5.25933 4.89267 6.10867 4.33733 6.958 4.02C7.81667 3.69333 8.61467 3.53 9.352 3.53C10.0333 3.53 10.6587 3.67933 11.228 3.978C11.7973 4.27667 12.25 4.70133 12.586 5.252C12.9313 5.79333 13.104 6.43267 13.104 7.17C13.1133 7.87933 12.9967 8.50933 12.754 9.06C12.5207 9.61067 12.18 10.0913 11.732 10.502C11.2933 10.9127 10.752 11.258 10.108 11.538C9.47333 11.818 8.75 12.0373 7.938 12.196L7.294 10.866ZM4.13 4.398C3.99933 4.41667 3.81733 4.44 3.584 4.468C3.35067 4.496 3.094 4.52867 2.814 4.566C2.534 4.60333 2.24933 4.64533 1.96 4.692C1.68 4.72933 1.414 4.762 1.162 4.79L1.022 3.362C1.19933 3.37133 1.36733 3.376 1.526 3.376C1.68467 3.36667 1.86667 3.35733 2.072 3.348C2.27733 3.32933 2.52467 3.306 2.814 3.278C3.11267 3.24067 3.42067 3.20333 3.738 3.166C4.05533 3.11933 4.34933 3.07267 4.62 3.026C4.9 2.97 5.11933 2.914 5.278 2.858L5.754 3.446C5.67933 3.558 5.586 3.698 5.474 3.866C5.37133 4.02467 5.264 4.188 5.152 4.356C5.04933 4.524 4.96067 4.67333 4.886 4.804L4.284 7.03C4.12533 7.27267 3.92933 7.562 3.696 7.898C3.472 8.234 3.234 8.58867 2.982 8.962C2.73 9.326 2.478 9.69 2.226 10.054C1.98333 10.4087 1.75933 10.726 1.554 11.006L0.686 9.788C0.863333 9.57333 1.06867 9.312 1.302 9.004C1.53533 8.696 1.78267 8.36933 2.044 8.024C2.30533 7.66933 2.55733 7.324 2.8 6.988C3.052 6.64267 3.28067 6.32067 3.486 6.022C3.69133 5.72333 3.85467 5.476 3.976 5.28L4.018 4.72L4.13 4.398ZM3.976 1.92C3.976 1.74267 3.97133 1.556 3.962 1.36C3.962 1.164 3.948 0.972666 3.92 0.785999L5.558 0.841999C5.51133 1.038 5.46 1.33667 5.404 1.738C5.348 2.13933 5.28733 2.606 5.222 3.138C5.166 3.67 5.11 4.23 5.054 4.818C5.00733 5.406 4.97 5.98933 4.942 6.568C4.914 7.14667 4.9 7.68333 4.9 8.178C4.9 8.57933 4.9 8.96667 4.9 9.34C4.9 9.71333 4.90467 10.0867 4.914 10.46C4.93267 10.8333 4.95133 11.2347 4.97 11.664C4.97933 11.7853 4.98867 11.9347 4.998 12.112C5.01667 12.2987 5.03067 12.4667 5.04 12.616H3.528C3.53733 12.4947 3.54667 12.336 3.556 12.14C3.56533 11.9533 3.57 11.804 3.57 11.692C3.57 11.244 3.57 10.838 3.57 10.474C3.57933 10.1007 3.584 9.718 3.584 9.326C3.59333 8.92467 3.60733 8.45333 3.626 7.912C3.626 7.69733 3.63533 7.41733 3.654 7.072C3.67267 6.72667 3.696 6.344 3.724 5.924C3.752 5.504 3.78 5.07933 3.808 4.65C3.836 4.22067 3.85933 3.81467 3.878 3.432C3.906 3.04933 3.92933 2.72267 3.948 2.452C3.96667 2.18133 3.976 2.004 3.976 1.92ZM17.864 0.911999C17.8173 1.08 17.766 1.29 17.71 1.542C17.6633 1.78467 17.626 1.976 17.598 2.116C17.5327 2.44267 17.4533 2.83467 17.36 3.292C17.276 3.74 17.1733 4.21133 17.052 4.706C16.94 5.20067 16.8233 5.68133 16.702 6.148C16.5807 6.64267 16.4313 7.17933 16.254 7.758C16.0767 8.33667 15.8853 8.92467 15.68 9.522C15.484 10.11 15.2833 10.67 15.078 11.202C14.882 11.7247 14.686 12.1867 14.49 12.588L12.964 12.07C13.1693 11.7153 13.384 11.286 13.608 10.782C13.832 10.2687 14.0513 9.72267 14.266 9.144C14.4807 8.556 14.6813 7.97267 14.868 7.394C15.0547 6.81533 15.2133 6.28333 15.344 5.798C15.428 5.47133 15.512 5.13067 15.596 4.776C15.68 4.412 15.7593 4.062 15.834 3.726C15.9087 3.39 15.9693 3.07733 16.016 2.788C16.0627 2.48933 16.1 2.242 16.128 2.046C16.1653 1.822 16.184 1.59333 16.184 1.36C16.1933 1.12667 16.1933 0.935333 16.184 0.785999L17.864 0.911999ZM14.56 3.152C15.1013 3.152 15.6753 3.124 16.282 3.068C16.8887 3.012 17.5047 2.93267 18.13 2.83C18.7647 2.72733 19.376 2.60133 19.964 2.452V3.838C19.3853 3.96867 18.774 4.08067 18.13 4.174C17.486 4.26733 16.856 4.342 16.24 4.398C15.624 4.44467 15.0593 4.468 14.546 4.468C14.2287 4.468 13.9347 4.46333 13.664 4.454C13.4027 4.44467 13.1413 4.43067 12.88 4.412L12.852 3.04C13.1973 3.07733 13.5007 3.10533 13.762 3.124C14.0327 3.14267 14.2987 3.152 14.56 3.152ZM18.97 5.168C19.3527 5.13067 19.7727 5.10267 20.23 5.084C20.6873 5.056 21.14 5.042 21.588 5.042C21.9987 5.042 22.4093 5.05133 22.82 5.07C23.24 5.07933 23.646 5.10733 24.038 5.154L23.996 6.498C23.6413 6.45133 23.2587 6.40933 22.848 6.372C22.4467 6.33467 22.036 6.316 21.616 6.316C21.1587 6.316 20.7107 6.33 20.272 6.358C19.8427 6.37667 19.4087 6.414 18.97 6.47V5.168ZM19.46 8.626C19.4133 8.84067 19.3713 9.05533 19.334 9.27C19.2967 9.47533 19.278 9.66667 19.278 9.844C19.278 10.0027 19.306 10.1567 19.362 10.306C19.4273 10.446 19.5347 10.572 19.684 10.684C19.8427 10.796 20.062 10.8847 20.342 10.95C20.6313 11.0153 21 11.048 21.448 11.048C21.9053 11.048 22.372 11.0247 22.848 10.978C23.324 10.922 23.7907 10.852 24.248 10.768L24.206 12.182C23.814 12.2287 23.3847 12.2707 22.918 12.308C22.4607 12.3547 21.966 12.378 21.434 12.378C20.2953 12.378 19.4227 12.196 18.816 11.832C18.2187 11.468 17.92 10.9407 17.92 10.25C17.92 9.95133 17.9433 9.65733 17.99 9.368C18.0367 9.06933 18.0927 8.78 18.158 8.5L19.46 8.626ZM27.916 1.01C27.8787 1.262 27.846 1.53267 27.818 1.822C27.79 2.102 27.7713 2.368 27.762 2.62C27.7433 3.00267 27.7247 3.47867 27.706 4.048C27.6873 4.608 27.6687 5.20533 27.65 5.84C27.6313 6.46533 27.6173 7.086 27.608 7.702C27.5987 8.30867 27.594 8.85467 27.594 9.34C27.594 9.83467 27.6827 10.2267 27.86 10.516C28.0467 10.8053 28.3033 11.0153 28.63 11.146C28.9567 11.2673 29.3207 11.328 29.722 11.328C30.338 11.328 30.8933 11.2487 31.388 11.09C31.8827 10.9313 32.326 10.7167 32.718 10.446C33.1193 10.1753 33.4787 9.86733 33.796 9.522C34.1133 9.17667 34.398 8.81733 34.65 8.444L35.644 9.662C35.4107 9.998 35.1167 10.348 34.762 10.712C34.4073 11.076 33.9827 11.4167 33.488 11.734C33.0027 12.0513 32.4427 12.308 31.808 12.504C31.1827 12.7 30.478 12.798 29.694 12.798C28.9847 12.798 28.364 12.6907 27.832 12.476C27.3 12.2613 26.8847 11.916 26.586 11.44C26.2873 10.964 26.138 10.3387 26.138 9.564C26.138 9.16267 26.1427 8.71 26.152 8.206C26.1613 7.702 26.1707 7.184 26.18 6.652C26.1987 6.11067 26.2127 5.58333 26.222 5.07C26.2407 4.55667 26.2547 4.08533 26.264 3.656C26.2733 3.22667 26.278 2.88133 26.278 2.62C26.278 2.32133 26.264 2.03667 26.236 1.766C26.2173 1.486 26.18 1.22933 26.124 0.996L27.916 1.01Z" fill="#E22F61"/>
</svg>
