<svg width="45" height="21" viewBox="0 0 45 21" fill="none" xmlns="http://www.w3.org/2000/svg">
<path d="M7.48 4.576C8.168 4.64 8.848 4.696 9.52 4.744C10.208 4.776 10.912 4.792 11.632 4.792C13.072 4.792 14.512 4.728 15.952 4.6C17.392 4.472 18.728 4.288 19.96 4.048V6.376C18.68 6.584 17.32 6.736 15.88 6.832C14.456 6.928 13.032 6.984 11.608 7C10.904 7 10.216 6.984 9.544 6.952C8.888 6.92 8.208 6.88 7.504 6.832L7.48 4.576ZM16.192 0.375999C16.16 0.615999 16.128 0.863999 16.096 1.12C16.08 1.376 16.064 1.624 16.048 1.864C16.032 2.136 16.016 2.496 16 2.944C16 3.392 15.992 3.88 15.976 4.408C15.976 4.92 15.976 5.432 15.976 5.944C15.976 6.952 15.992 7.92 16.024 8.848C16.072 9.776 16.12 10.656 16.168 11.488C16.216 12.32 16.256 13.104 16.288 13.84C16.32 14.56 16.336 15.216 16.336 15.808C16.336 16.352 16.264 16.872 16.12 17.368C15.976 17.864 15.736 18.304 15.4 18.688C15.064 19.072 14.608 19.368 14.032 19.576C13.472 19.8 12.776 19.912 11.944 19.912C10.312 19.912 9.048 19.592 8.152 18.952C7.256 18.312 6.808 17.416 6.808 16.264C6.808 15.528 7.008 14.872 7.408 14.296C7.824 13.72 8.408 13.264 9.16 12.928C9.928 12.592 10.848 12.424 11.92 12.424C12.992 12.424 13.968 12.544 14.848 12.784C15.728 13.008 16.544 13.32 17.296 13.72C18.048 14.104 18.72 14.528 19.312 14.992C19.92 15.456 20.472 15.904 20.968 16.336L19.672 18.352C18.808 17.52 17.944 16.8 17.08 16.192C16.232 15.584 15.368 15.112 14.488 14.776C13.608 14.44 12.688 14.272 11.728 14.272C10.912 14.272 10.248 14.432 9.736 14.752C9.24 15.072 8.992 15.488 8.992 16C8.992 16.56 9.24 16.984 9.736 17.272C10.232 17.544 10.864 17.68 11.632 17.68C12.224 17.68 12.688 17.584 13.024 17.392C13.36 17.2 13.6 16.92 13.744 16.552C13.888 16.184 13.96 15.752 13.96 15.256C13.96 14.84 13.944 14.28 13.912 13.576C13.88 12.856 13.84 12.072 13.792 11.224C13.744 10.36 13.704 9.48 13.672 8.584C13.64 7.672 13.624 6.8 13.624 5.968C13.624 5.104 13.624 4.312 13.624 3.592C13.624 2.856 13.624 2.296 13.624 1.912C13.624 1.704 13.608 1.456 13.576 1.168C13.56 0.863999 13.528 0.599999 13.48 0.375999H16.192ZM4.408 0.592C4.36 0.719999 4.304 0.903999 4.24 1.144C4.176 1.384 4.112 1.624 4.048 1.864C4 2.104 3.96 2.296 3.928 2.44C3.848 2.824 3.752 3.32 3.64 3.928C3.544 4.52 3.44 5.176 3.328 5.896C3.232 6.6 3.136 7.32 3.04 8.056C2.96 8.792 2.888 9.496 2.824 10.168C2.776 10.84 2.752 11.432 2.752 11.944C2.752 12.36 2.768 12.784 2.8 13.216C2.832 13.632 2.88 14.064 2.944 14.512C3.056 14.176 3.184 13.832 3.328 13.48C3.472 13.112 3.616 12.752 3.76 12.4C3.92 12.048 4.064 11.728 4.192 11.44L5.392 12.376C5.184 12.984 4.96 13.64 4.72 14.344C4.48 15.032 4.264 15.688 4.072 16.312C3.896 16.936 3.76 17.456 3.664 17.872C3.632 18.032 3.6 18.224 3.568 18.448C3.552 18.656 3.544 18.832 3.544 18.976C3.56 19.088 3.568 19.224 3.568 19.384C3.584 19.56 3.6 19.72 3.616 19.864L1.48 20.032C1.224 19.184 1 18.112 0.808 16.816C0.632 15.504 0.544 14.032 0.544 12.4C0.544 11.504 0.584 10.576 0.664 9.616C0.744 8.64 0.84 7.688 0.952 6.76C1.08 5.832 1.2 4.984 1.312 4.216C1.424 3.448 1.52 2.824 1.6 2.344C1.632 2.04 1.664 1.712 1.696 1.36C1.744 1.008 1.776 0.671999 1.792 0.352L4.408 0.592ZM30.76 4.576C31.448 4.64 32.128 4.696 32.8 4.744C33.488 4.776 34.192 4.792 34.912 4.792C36.352 4.792 37.792 4.728 39.232 4.6C40.672 4.472 42.008 4.288 43.24 4.048V6.376C41.96 6.584 40.6 6.736 39.16 6.832C37.736 6.928 36.312 6.984 34.888 7C34.184 7 33.496 6.984 32.824 6.952C32.168 6.92 31.488 6.88 30.784 6.832L30.76 4.576ZM39.472 0.375999C39.44 0.615999 39.408 0.863999 39.376 1.12C39.36 1.376 39.344 1.624 39.328 1.864C39.312 2.136 39.296 2.496 39.28 2.944C39.28 3.392 39.272 3.88 39.256 4.408C39.256 4.92 39.256 5.432 39.256 5.944C39.256 6.952 39.272 7.92 39.304 8.848C39.352 9.776 39.4 10.656 39.448 11.488C39.496 12.32 39.536 13.104 39.568 13.84C39.6 14.56 39.616 15.216 39.616 15.808C39.616 16.352 39.544 16.872 39.4 17.368C39.256 17.864 39.016 18.304 38.68 18.688C38.344 19.072 37.888 19.368 37.312 19.576C36.752 19.8 36.056 19.912 35.224 19.912C33.592 19.912 32.328 19.592 31.432 18.952C30.536 18.312 30.088 17.416 30.088 16.264C30.088 15.528 30.288 14.872 30.688 14.296C31.104 13.72 31.688 13.264 32.44 12.928C33.208 12.592 34.128 12.424 35.2 12.424C36.272 12.424 37.248 12.544 38.128 12.784C39.008 13.008 39.824 13.32 40.576 13.72C41.328 14.104 42 14.528 42.592 14.992C43.2 15.456 43.752 15.904 44.248 16.336L42.952 18.352C42.088 17.52 41.224 16.8 40.36 16.192C39.512 15.584 38.648 15.112 37.768 14.776C36.888 14.44 35.968 14.272 35.008 14.272C34.192 14.272 33.528 14.432 33.016 14.752C32.52 15.072 32.272 15.488 32.272 16C32.272 16.56 32.52 16.984 33.016 17.272C33.512 17.544 34.144 17.68 34.912 17.68C35.504 17.68 35.968 17.584 36.304 17.392C36.64 17.2 36.88 16.92 37.024 16.552C37.168 16.184 37.24 15.752 37.24 15.256C37.24 14.84 37.224 14.28 37.192 13.576C37.16 12.856 37.12 12.072 37.072 11.224C37.024 10.36 36.984 9.48 36.952 8.584C36.92 7.672 36.904 6.8 36.904 5.968C36.904 5.104 36.904 4.312 36.904 3.592C36.904 2.856 36.904 2.296 36.904 1.912C36.904 1.704 36.888 1.456 36.856 1.168C36.84 0.863999 36.808 0.599999 36.76 0.375999H39.472ZM27.688 0.592C27.64 0.719999 27.584 0.903999 27.52 1.144C27.456 1.384 27.392 1.624 27.328 1.864C27.28 2.104 27.24 2.296 27.208 2.44C27.128 2.824 27.032 3.32 26.92 3.928C26.824 4.52 26.72 5.176 26.608 5.896C26.512 6.6 26.416 7.32 26.32 8.056C26.24 8.792 26.168 9.496 26.104 10.168C26.056 10.84 26.032 11.432 26.032 11.944C26.032 12.36 26.048 12.784 26.08 13.216C26.112 13.632 26.16 14.064 26.224 14.512C26.336 14.176 26.464 13.832 26.608 13.48C26.752 13.112 26.896 12.752 27.04 12.4C27.2 12.048 27.344 11.728 27.472 11.44L28.672 12.376C28.464 12.984 28.24 13.64 28 14.344C27.76 15.032 27.544 15.688 27.352 16.312C27.176 16.936 27.04 17.456 26.944 17.872C26.912 18.032 26.88 18.224 26.848 18.448C26.832 18.656 26.824 18.832 26.824 18.976C26.84 19.088 26.848 19.224 26.848 19.384C26.864 19.56 26.88 19.72 26.896 19.864L24.76 20.032C24.504 19.184 24.28 18.112 24.088 16.816C23.912 15.504 23.824 14.032 23.824 12.4C23.824 11.504 23.864 10.576 23.944 9.616C24.024 8.64 24.12 7.688 24.232 6.76C24.36 5.832 24.48 4.984 24.592 4.216C24.704 3.448 24.8 2.824 24.88 2.344C24.912 2.04 24.944 1.712 24.976 1.36C25.024 1.008 25.056 0.671999 25.072 0.352L27.688 0.592Z" fill="black"/>
</svg>
