<svg width="26" height="13" viewBox="0 0 26 13" fill="none" xmlns="http://www.w3.org/2000/svg">
<g clip-path="url(#clip0_29294_10)">
<path d="M5.748 0.841804C5.72 0.944471 5.68733 1.05647 5.65 1.1778C5.622 1.29913 5.59867 1.41113 5.58 1.5138C5.496 1.92447 5.41667 2.41913 5.342 2.9978C5.26733 3.56713 5.20667 4.1738 5.16 4.8178C5.11333 5.4618 5.09 6.0918 5.09 6.7078C5.09 7.37047 5.12733 7.9958 5.202 8.5838C5.286 9.1718 5.39333 9.72247 5.524 10.2358C5.65467 10.7491 5.79467 11.2345 5.944 11.6918L4.67 12.0698C4.53 11.6498 4.39467 11.1598 4.264 10.5998C4.14267 10.0305 4.04467 9.42847 3.97 8.7938C3.89533 8.15913 3.858 7.52447 3.858 6.8898C3.858 6.42313 3.872 5.94247 3.9 5.4478C3.928 4.95313 3.96067 4.47247 3.998 4.0058C4.04467 3.5298 4.09133 3.0818 4.138 2.6618C4.194 2.2418 4.236 1.86847 4.264 1.5418C4.28267 1.42047 4.292 1.2898 4.292 1.1498C4.30133 1.0098 4.306 0.893138 4.306 0.799805L5.748 0.841804ZM3.396 2.4798C4.24533 2.4798 5.06667 2.46113 5.86 2.4238C6.65333 2.37713 7.414 2.30713 8.142 2.2138C8.87933 2.12047 9.584 1.99447 10.256 1.8358L10.27 3.1378C9.77533 3.2218 9.23867 3.30113 8.66 3.3758C8.08133 3.44113 7.484 3.49713 6.868 3.5438C6.252 3.59047 5.64067 3.6278 5.034 3.6558C4.43667 3.6838 3.87667 3.6978 3.354 3.6978C3.13933 3.6978 2.88733 3.69313 2.598 3.6838C2.30867 3.66513 2.01933 3.65113 1.73 3.6418C1.45 3.62313 1.20733 3.60913 1.002 3.5998L0.960001 2.2978C1.128 2.3258 1.35667 2.3538 1.646 2.3818C1.94467 2.4098 2.25267 2.43313 2.57 2.4518C2.88733 2.47047 3.16267 2.4798 3.396 2.4798ZM9.318 4.2998C9.29 4.37447 9.25267 4.47247 9.206 4.5938C9.16867 4.71513 9.12667 4.83647 9.08 4.9578C9.04267 5.07913 9.00533 5.1818 8.968 5.2658C8.69733 6.12447 8.366 6.90847 7.974 7.6178C7.59133 8.3178 7.17133 8.93847 6.714 9.4798C6.266 10.0118 5.804 10.4551 5.328 10.8098C4.88 11.1551 4.376 11.4491 3.816 11.6918C3.26533 11.9345 2.71933 12.0558 2.178 12.0558C1.86067 12.0558 1.56667 11.9905 1.296 11.8598C1.02533 11.7291 0.810668 11.5238 0.652001 11.2438C0.493334 10.9638 0.414001 10.6091 0.414001 10.1798C0.414001 9.69447 0.516668 9.2138 0.722001 8.7378C0.927334 8.2618 1.20733 7.80913 1.562 7.3798C1.926 6.95047 2.346 6.5678 2.822 6.2318C3.298 5.8958 3.802 5.62513 4.334 5.4198C4.80067 5.2518 5.3 5.11647 5.832 5.0138C6.37333 4.91113 6.88667 4.8598 7.372 4.8598C8.25867 4.8598 9.02867 5.01847 9.682 5.3358C10.3447 5.6438 10.858 6.06847 11.222 6.6098C11.5953 7.15113 11.782 7.76247 11.782 8.4438C11.782 8.9478 11.698 9.43313 11.53 9.8998C11.3713 10.3571 11.11 10.7818 10.746 11.1738C10.382 11.5565 9.906 11.8878 9.318 12.1678C8.73933 12.4478 8.03467 12.6531 7.204 12.7838L6.448 11.6218C7.316 11.5285 8.044 11.3278 8.632 11.0198C9.22 10.7118 9.66333 10.3291 9.962 9.8718C10.27 9.41447 10.424 8.9198 10.424 8.3878C10.424 7.94913 10.3027 7.55247 10.06 7.1978C9.82667 6.8338 9.47667 6.5398 9.01 6.3158C8.55267 6.0918 7.988 5.9798 7.316 5.9798C6.70933 5.9798 6.154 6.05447 5.65 6.2038C5.15533 6.3438 4.73533 6.49313 4.39 6.6518C3.886 6.8758 3.43333 7.17447 3.032 7.5478C2.63067 7.9118 2.31333 8.3038 2.08 8.7238C1.84667 9.1438 1.73 9.54513 1.73 9.9278C1.73 10.1891 1.79067 10.3851 1.912 10.5158C2.04267 10.6465 2.22933 10.7118 2.472 10.7118C2.808 10.7118 3.19533 10.6091 3.634 10.4038C4.07267 10.1985 4.51133 9.89513 4.95 9.4938C5.52867 8.98047 6.06533 8.3598 6.56 7.6318C7.064 6.9038 7.46533 6.0078 7.764 4.9438C7.792 4.8598 7.81533 4.7618 7.834 4.6498C7.862 4.52847 7.88533 4.40713 7.904 4.2858C7.92267 4.15513 7.93667 4.0478 7.946 3.9638L9.318 4.2998ZM18.908 2.3958C19.3187 2.46113 19.7807 2.5078 20.294 2.5358C20.8167 2.5638 21.3533 2.57313 21.904 2.5638C22.4547 2.55447 22.982 2.5358 23.486 2.5078C23.99 2.4798 24.424 2.44247 24.788 2.3958V3.8238C24.3867 3.86113 23.934 3.8938 23.43 3.9218C22.926 3.94047 22.4033 3.9498 21.862 3.9498C21.33 3.9498 20.8073 3.94047 20.294 3.9218C19.7807 3.8938 19.3233 3.86113 18.922 3.8238L18.908 2.3958ZM19.706 8.2198C19.65 8.46247 19.6033 8.6818 19.566 8.8778C19.538 9.0738 19.524 9.2698 19.524 9.4658C19.524 9.62447 19.5567 9.7738 19.622 9.9138C19.6967 10.0538 19.8133 10.1751 19.972 10.2778C20.14 10.3805 20.364 10.4645 20.644 10.5298C20.9333 10.5858 21.288 10.6138 21.708 10.6138C22.3427 10.6138 22.9353 10.5858 23.486 10.5298C24.046 10.4645 24.6153 10.3665 25.194 10.2358L25.222 11.7338C24.7833 11.8178 24.27 11.8878 23.682 11.9438C23.1033 11.9905 22.436 12.0138 21.68 12.0138C20.4947 12.0138 19.6173 11.8225 19.048 11.4398C18.488 11.0478 18.208 10.5111 18.208 9.8298C18.208 9.5778 18.2267 9.31647 18.264 9.0458C18.3013 8.7658 18.362 8.45313 18.446 8.1078L19.706 8.2198ZM16.472 1.3878C16.444 1.4718 16.4067 1.5838 16.36 1.7238C16.3227 1.85447 16.2853 1.9898 16.248 2.1298C16.22 2.26047 16.1967 2.3678 16.178 2.4518C16.1313 2.68513 16.0753 2.9698 16.01 3.3058C15.954 3.63247 15.8933 3.9918 15.828 4.3838C15.772 4.76647 15.716 5.15847 15.66 5.5598C15.6133 5.9518 15.5713 6.33447 15.534 6.7078C15.506 7.08113 15.492 7.4218 15.492 7.7298C15.492 7.97247 15.4967 8.2198 15.506 8.4718C15.5247 8.71447 15.548 8.96647 15.576 9.2278C15.66 9.04113 15.744 8.84513 15.828 8.6398C15.912 8.42513 15.996 8.21513 16.08 8.0098C16.164 7.80447 16.2433 7.6178 16.318 7.4498L17.018 8.0098C16.8967 8.35513 16.766 8.7378 16.626 9.1578C16.486 9.5778 16.36 9.97913 16.248 10.3618C16.1453 10.7351 16.0707 11.0385 16.024 11.2718C16.0053 11.3651 15.9867 11.4771 15.968 11.6078C15.9493 11.7291 15.9447 11.8318 15.954 11.9158C15.954 11.9811 15.954 12.0605 15.954 12.1538C15.9633 12.2565 15.9727 12.3498 15.982 12.4338L14.708 12.5178C14.568 12.0325 14.4467 11.3931 14.344 10.5998C14.2413 9.80647 14.19 8.93847 14.19 7.9958C14.19 7.47313 14.2133 6.9458 14.26 6.4138C14.3067 5.87247 14.3627 5.3498 14.428 4.8458C14.4933 4.3418 14.5587 3.8798 14.624 3.4598C14.6987 3.0398 14.7547 2.6898 14.792 2.4098C14.82 2.23247 14.8433 2.04113 14.862 1.8358C14.89 1.63047 14.9087 1.43447 14.918 1.2478L16.472 1.3878Z" fill="#E22F61"/>
</g>
<defs>
<clipPath id="clip0_29294_10">
<rect width="26" height="13" fill="white"/>
</clipPath>
</defs>
</svg>
