<svg width="63" height="13" viewBox="0 0 63 13" fill="none" xmlns="http://www.w3.org/2000/svg">
<path d="M4.908 0.729999C4.88933 0.813999 4.87533 0.921332 4.866 1.052C4.85667 1.17333 4.84267 1.304 4.824 1.444C4.81467 1.57467 4.80533 1.696 4.796 1.808C4.78667 2.05067 4.77267 2.34 4.754 2.676C4.74467 3.00267 4.73067 3.362 4.712 3.754C4.70267 4.13667 4.69333 4.524 4.684 4.916C4.684 5.29867 4.684 5.66733 4.684 6.022C4.684 6.386 4.68867 6.792 4.698 7.24C4.70733 7.688 4.71667 8.13133 4.726 8.57C4.73533 8.99933 4.74467 9.40067 4.754 9.774C4.76333 10.138 4.768 10.4273 4.768 10.642C4.768 11.1367 4.70733 11.524 4.586 11.804C4.474 12.084 4.31533 12.28 4.11 12.392C3.914 12.504 3.676 12.56 3.396 12.56C3.09733 12.56 2.77067 12.4947 2.416 12.364C2.06133 12.2333 1.72533 12.056 1.408 11.832C1.09067 11.608 0.829333 11.3467 0.624 11.048C0.418667 10.7493 0.316 10.432 0.316 10.096C0.316 9.66667 0.479333 9.242 0.806 8.822C1.142 8.39267 1.58067 8.00067 2.122 7.646C2.66333 7.29133 3.23733 7.002 3.844 6.778C4.47867 6.54467 5.12733 6.36733 5.79 6.246C6.45267 6.12467 7.05467 6.064 7.596 6.064C8.296 6.064 8.92133 6.18067 9.472 6.414C10.0227 6.64733 10.4567 6.98333 10.774 7.422C11.0913 7.86067 11.25 8.37867 11.25 8.976C11.25 9.52667 11.138 10.0213 10.914 10.46C10.6993 10.8987 10.368 11.272 9.92 11.58C9.472 11.888 8.90733 12.126 8.226 12.294C7.90867 12.3593 7.596 12.406 7.288 12.434C6.98933 12.462 6.70933 12.4853 6.448 12.504L5.944 11.076C6.224 11.0853 6.50867 11.0853 6.798 11.076C7.08733 11.0667 7.36267 11.034 7.624 10.978C8.016 10.9033 8.38 10.7867 8.716 10.628C9.052 10.46 9.318 10.2407 9.514 9.97C9.71933 9.69 9.822 9.354 9.822 8.962C9.822 8.598 9.724 8.29467 9.528 8.052C9.332 7.8 9.066 7.60867 8.73 7.478C8.394 7.34733 8.01133 7.282 7.582 7.282C6.97533 7.282 6.37333 7.34733 5.776 7.478C5.17867 7.59933 4.59067 7.772 4.012 7.996C3.58267 8.164 3.19067 8.36467 2.836 8.598C2.48133 8.83133 2.20133 9.074 1.996 9.326C1.79067 9.56867 1.688 9.802 1.688 10.026C1.688 10.166 1.73467 10.3013 1.828 10.432C1.92133 10.5533 2.03333 10.6607 2.164 10.754C2.304 10.8473 2.44867 10.922 2.598 10.978C2.74733 11.034 2.88267 11.062 3.004 11.062C3.144 11.062 3.256 11.0153 3.34 10.922C3.43333 10.8193 3.48 10.6513 3.48 10.418C3.48 10.1567 3.47067 9.788 3.452 9.312C3.44267 8.836 3.43333 8.31333 3.424 7.744C3.41467 7.16533 3.41 6.61 3.41 6.078C3.41 5.67667 3.41 5.26133 3.41 4.832C3.41933 4.39333 3.424 3.97333 3.424 3.572C3.43333 3.17067 3.438 2.816 3.438 2.508C3.44733 2.2 3.452 1.976 3.452 1.836C3.452 1.73333 3.44733 1.612 3.438 1.472C3.42867 1.332 3.41933 1.19667 3.41 1.066C3.40067 0.925999 3.38667 0.813999 3.368 0.729999H4.908ZM9.094 2.27C9.43933 2.438 9.822 2.648 10.242 2.9C10.6713 3.14267 11.0773 3.39 11.46 3.642C11.852 3.88467 12.1647 4.09933 12.398 4.286L11.712 5.406C11.544 5.24733 11.32 5.07467 11.04 4.888C10.7693 4.70133 10.4753 4.51 10.158 4.314C9.85 4.118 9.54667 3.936 9.248 3.768C8.95867 3.59067 8.702 3.446 8.478 3.334L9.094 2.27ZM0.61 3.152C1.01133 3.19867 1.35667 3.23133 1.646 3.25C1.93533 3.25933 2.21067 3.264 2.472 3.264C2.81733 3.264 3.20933 3.24533 3.648 3.208C4.08667 3.17067 4.53 3.124 4.978 3.068C5.43533 3.012 5.87867 2.942 6.308 2.858C6.74667 2.76467 7.14333 2.66667 7.498 2.564L7.526 3.936C7.15267 4.02 6.73733 4.09933 6.28 4.174C5.832 4.24867 5.37467 4.31867 4.908 4.384C4.45067 4.44 4.012 4.48667 3.592 4.524C3.18133 4.552 2.81733 4.566 2.5 4.566C2.08 4.566 1.72533 4.56133 1.436 4.552C1.14667 4.53333 0.885333 4.51467 0.652 4.496L0.61 3.152ZM24.564 11.608C24.1533 11.1227 23.7333 10.7027 23.304 10.348C22.8747 9.984 22.4313 9.704 21.974 9.508C21.5167 9.312 21.0407 9.214 20.546 9.214C20.3313 9.214 20.126 9.25133 19.93 9.326C19.7433 9.39133 19.5893 9.48933 19.468 9.62C19.3467 9.74133 19.286 9.89533 19.286 10.082C19.286 10.4087 19.4167 10.6467 19.678 10.796C19.9393 10.936 20.2473 11.006 20.602 11.006C21.0033 11.006 21.3347 10.8987 21.596 10.684C21.8573 10.46 22.0627 10.152 22.212 9.76C22.3613 9.368 22.464 8.91067 22.52 8.388C22.5853 7.856 22.618 7.29133 22.618 6.694C22.618 6.14333 22.534 5.66733 22.366 5.266C22.2073 4.85533 21.988 4.538 21.708 4.314C21.428 4.09 21.0967 3.978 20.714 3.978C20.3407 3.978 19.9487 4.076 19.538 4.272C19.1273 4.45867 18.712 4.706 18.292 5.014C17.872 5.322 17.4707 5.658 17.088 6.022C16.7053 6.386 16.3647 6.75 16.066 7.114L16.094 5.448C16.3833 5.168 16.7147 4.874 17.088 4.566C17.4613 4.24867 17.8627 3.95 18.292 3.67C18.7213 3.39 19.16 3.166 19.608 2.998C20.0653 2.82067 20.5133 2.732 20.952 2.732C21.596 2.732 22.142 2.90467 22.59 3.25C23.038 3.59533 23.3787 4.076 23.612 4.692C23.8453 5.308 23.962 6.01733 23.962 6.82C23.962 7.64133 23.9107 8.38333 23.808 9.046C23.7053 9.70867 23.528 10.2827 23.276 10.768C23.0333 11.244 22.6973 11.6127 22.268 11.874C21.848 12.126 21.3207 12.252 20.686 12.252C20.21 12.252 19.7713 12.1773 19.37 12.028C18.978 11.888 18.6653 11.664 18.432 11.356C18.1987 11.0387 18.082 10.6327 18.082 10.138C18.082 9.746 18.1893 9.396 18.404 9.088C18.628 8.78 18.9313 8.542 19.314 8.374C19.706 8.19667 20.1587 8.108 20.672 8.108C21.5213 8.108 22.3193 8.304 23.066 8.696C23.822 9.07867 24.5687 9.66667 25.306 10.46L24.564 11.608ZM15.716 4.412C15.5947 4.42133 15.4173 4.44467 15.184 4.482C14.9507 4.51 14.694 4.54267 14.414 4.58C14.134 4.608 13.8493 4.64533 13.56 4.692C13.28 4.72933 13.014 4.762 12.762 4.79L12.622 3.362C12.7993 3.37133 12.9673 3.376 13.126 3.376C13.2847 3.36667 13.4667 3.35733 13.672 3.348C13.8773 3.33867 14.1247 3.32 14.414 3.292C14.7127 3.25467 15.0207 3.21267 15.338 3.166C15.6553 3.11933 15.954 3.07267 16.234 3.026C16.514 2.97 16.7333 2.914 16.892 2.858L17.368 3.446C17.284 3.558 17.186 3.698 17.074 3.866C16.9713 4.034 16.864 4.202 16.752 4.37C16.6493 4.538 16.5607 4.68733 16.486 4.818L15.884 7.03C15.7253 7.27267 15.5293 7.562 15.296 7.898C15.072 8.22467 14.834 8.57467 14.582 8.948C14.33 9.32133 14.078 9.68533 13.826 10.04C13.5833 10.3947 13.3593 10.712 13.154 10.992L12.286 9.788C12.4633 9.57333 12.6687 9.312 12.902 9.004C13.1353 8.696 13.3827 8.36933 13.644 8.024C13.9053 7.66933 14.1573 7.324 14.4 6.988C14.652 6.64267 14.8807 6.32067 15.086 6.022C15.2913 5.72333 15.4547 5.476 15.576 5.28L15.618 4.72L15.716 4.412ZM15.576 1.92C15.576 1.74267 15.576 1.556 15.576 1.36C15.576 1.164 15.5573 0.972666 15.52 0.785999L17.144 0.841999C17.1067 1.038 17.06 1.33667 17.004 1.738C16.948 2.13933 16.8873 2.606 16.822 3.138C16.766 3.67 16.71 4.23 16.654 4.818C16.6073 5.406 16.57 5.98933 16.542 6.568C16.514 7.14667 16.5 7.68333 16.5 8.178C16.5 8.57933 16.5 8.96667 16.5 9.34C16.5 9.71333 16.5047 10.0867 16.514 10.46C16.5327 10.8333 16.5513 11.2347 16.57 11.664C16.5793 11.7853 16.5887 11.9347 16.598 12.112C16.6167 12.2987 16.6307 12.4667 16.64 12.616H15.128C15.1373 12.4947 15.1467 12.336 15.156 12.14C15.1653 11.9533 15.17 11.804 15.17 11.692C15.17 11.244 15.17 10.838 15.17 10.474C15.1793 10.1007 15.184 9.718 15.184 9.326C15.1933 8.92467 15.2073 8.45333 15.226 7.912C15.226 7.69733 15.2353 7.41733 15.254 7.072C15.2727 6.72667 15.296 6.344 15.324 5.924C15.352 5.504 15.38 5.07933 15.408 4.65C15.436 4.22067 15.4593 3.81467 15.478 3.432C15.506 3.04933 15.5293 2.72267 15.548 2.452C15.5667 2.18133 15.576 2.004 15.576 1.92ZM28.568 0.827999C28.9507 0.902666 29.3893 0.977333 29.884 1.052C30.388 1.12667 30.9013 1.19667 31.424 1.262C31.956 1.32733 32.46 1.38333 32.936 1.43C33.4213 1.47667 33.8367 1.50933 34.182 1.528L34 2.83C33.636 2.802 33.216 2.76467 32.74 2.718C32.2733 2.662 31.7833 2.60133 31.27 2.536C30.7567 2.47067 30.248 2.40067 29.744 2.326C29.24 2.25133 28.7733 2.17667 28.344 2.102L28.568 0.827999ZM34.546 5.014C34.3967 5.126 34.2473 5.24267 34.098 5.364C33.9487 5.48533 33.8227 5.59267 33.72 5.686C33.5707 5.81667 33.3793 5.98933 33.146 6.204C32.9127 6.40933 32.67 6.63333 32.418 6.876C32.166 7.10933 31.9327 7.32867 31.718 7.534C31.5033 7.73 31.3447 7.88867 31.242 8.01C31.3073 8.00067 31.3913 8.00533 31.494 8.024C31.606 8.03333 31.6993 8.052 31.774 8.08C32.0167 8.11733 32.2127 8.22 32.362 8.388C32.5207 8.556 32.6467 8.78 32.74 9.06C32.7867 9.18133 32.8333 9.33067 32.88 9.508C32.936 9.676 32.9873 9.84867 33.034 10.026C33.09 10.194 33.1413 10.348 33.188 10.488C33.2627 10.7307 33.384 10.9127 33.552 11.034C33.7293 11.1553 33.9767 11.216 34.294 11.216C34.63 11.216 34.9613 11.2067 35.288 11.188C35.6147 11.16 35.9227 11.1227 36.212 11.076C36.5013 11.0293 36.758 10.9827 36.982 10.936L36.898 12.406C36.702 12.434 36.4407 12.462 36.114 12.49C35.7873 12.5273 35.4513 12.5553 35.106 12.574C34.7607 12.602 34.4667 12.616 34.224 12.616C33.6173 12.616 33.132 12.5273 32.768 12.35C32.404 12.182 32.1427 11.8693 31.984 11.412C31.9373 11.272 31.886 11.1087 31.83 10.922C31.774 10.726 31.718 10.5347 31.662 10.348C31.6153 10.152 31.5733 9.99333 31.536 9.872C31.452 9.62 31.34 9.438 31.2 9.326C31.06 9.20467 30.9013 9.144 30.724 9.144C30.556 9.144 30.388 9.19533 30.22 9.298C30.0613 9.39133 29.9027 9.51733 29.744 9.676C29.6413 9.77867 29.5107 9.914 29.352 10.082C29.1933 10.2407 29.016 10.4273 28.82 10.642C28.6333 10.8473 28.4373 11.0667 28.232 11.3C28.0267 11.524 27.8213 11.7573 27.616 12C27.4107 12.2333 27.224 12.462 27.056 12.686L25.726 11.762C25.8287 11.6687 25.95 11.5613 26.09 11.44C26.2393 11.3187 26.3933 11.1833 26.552 11.034C26.6547 10.922 26.8273 10.7447 27.07 10.502C27.3127 10.2593 27.5973 9.97467 27.924 9.648C28.2507 9.32133 28.596 8.97133 28.96 8.598C29.3333 8.22467 29.702 7.856 30.066 7.492C30.4393 7.128 30.7847 6.78733 31.102 6.47C31.4193 6.14333 31.69 5.86333 31.914 5.63C31.7087 5.63933 31.466 5.65333 31.186 5.672C30.906 5.69067 30.612 5.714 30.304 5.742C30.0053 5.76067 29.7067 5.784 29.408 5.812C29.1187 5.84 28.848 5.86333 28.596 5.882C28.3533 5.90067 28.1433 5.91933 27.966 5.938C27.7327 5.94733 27.518 5.966 27.322 5.994C27.1353 6.022 26.9627 6.05 26.804 6.078L26.678 4.538C26.8367 4.54733 27.0233 4.55667 27.238 4.566C27.462 4.57533 27.6953 4.58 27.938 4.58C28.0873 4.57067 28.3207 4.56133 28.638 4.552C28.9553 4.53333 29.3147 4.51467 29.716 4.496C30.1267 4.468 30.5373 4.44 30.948 4.412C31.368 4.384 31.76 4.356 32.124 4.328C32.488 4.3 32.782 4.272 33.006 4.244C33.1273 4.22533 33.258 4.202 33.398 4.174C33.5473 4.146 33.6547 4.118 33.72 4.09L34.546 5.014ZM44.024 2.074C43.9773 1.91533 43.9213 1.73333 43.856 1.528C43.7907 1.31333 43.716 1.09867 43.632 0.884L45.144 0.701999C45.1907 1.01 45.2607 1.34133 45.354 1.696C45.4473 2.04133 45.55 2.38667 45.662 2.732C45.774 3.07733 45.8813 3.404 45.984 3.712C46.1987 4.3 46.46 4.888 46.768 5.476C47.0853 6.05467 47.3793 6.526 47.65 6.89C47.7527 7.03933 47.86 7.184 47.972 7.324C48.084 7.464 48.2007 7.59467 48.322 7.716L47.622 8.724C47.4353 8.67733 47.1973 8.63533 46.908 8.598C46.628 8.56067 46.32 8.52333 45.984 8.486C45.6573 8.44867 45.326 8.416 44.99 8.388C44.6633 8.36 44.3647 8.332 44.094 8.304L44.192 7.142C44.444 7.16067 44.71 7.184 44.99 7.212C45.27 7.23067 45.536 7.254 45.788 7.282C46.04 7.30067 46.2453 7.31933 46.404 7.338C46.2173 7.04867 46.0167 6.71733 45.802 6.344C45.5967 5.97067 45.396 5.58333 45.2 5.182C45.004 4.77133 44.8313 4.36067 44.682 3.95C44.5327 3.558 44.402 3.20333 44.29 2.886C44.1873 2.56867 44.0987 2.298 44.024 2.074ZM38.914 2.97C39.7353 3.06333 40.5193 3.12867 41.266 3.166C42.0127 3.20333 42.7173 3.21267 43.38 3.194C44.0427 3.17533 44.6447 3.138 45.186 3.082C45.578 3.03533 45.9793 2.97933 46.39 2.914C46.8007 2.83933 47.2067 2.75533 47.608 2.662C48.0187 2.56867 48.406 2.46133 48.77 2.34L48.938 3.74C48.6207 3.824 48.2707 3.908 47.888 3.992C47.5147 4.06667 47.132 4.13667 46.74 4.202C46.348 4.258 45.9747 4.30933 45.62 4.356C44.7147 4.45867 43.7067 4.51467 42.596 4.524C41.4853 4.53333 40.2673 4.48667 38.942 4.384L38.914 2.97ZM41.364 7.562C41.1493 7.898 40.9813 8.22467 40.86 8.542C40.748 8.85 40.692 9.16733 40.692 9.494C40.692 10.1193 40.9627 10.5767 41.504 10.866C42.0547 11.1553 42.834 11.3047 43.842 11.314C44.5793 11.3233 45.2513 11.2953 45.858 11.23C46.4647 11.1647 47.0153 11.0807 47.51 10.978L47.44 12.378C47.02 12.4527 46.502 12.5227 45.886 12.588C45.2793 12.6627 44.57 12.6953 43.758 12.686C42.8433 12.686 42.05 12.5693 41.378 12.336C40.706 12.112 40.188 11.7807 39.824 11.342C39.46 10.894 39.278 10.348 39.278 9.704C39.278 9.29333 39.3387 8.892 39.46 8.5C39.5907 8.108 39.7633 7.69267 39.978 7.254L41.364 7.562ZM57.24 1.598C57.1747 1.69133 57.1047 1.79867 57.03 1.92C56.9553 2.032 56.876 2.15333 56.792 2.284C56.6333 2.52667 56.4467 2.83 56.232 3.194C56.0173 3.54867 55.7933 3.93133 55.56 4.342C55.3267 4.75267 55.098 5.15867 54.874 5.56C54.65 5.96133 54.454 6.32533 54.286 6.652C54.5847 6.41867 54.8927 6.25067 55.21 6.148C55.5367 6.036 55.8493 5.98 56.148 5.98C56.6427 5.98 57.0393 6.134 57.338 6.442C57.646 6.74067 57.814 7.17467 57.842 7.744C57.8513 7.98667 57.856 8.262 57.856 8.57C57.856 8.86867 57.856 9.16267 57.856 9.452C57.8653 9.74133 57.8793 9.99333 57.898 10.208C57.9167 10.5347 58.024 10.768 58.22 10.908C58.4253 11.0387 58.6587 11.104 58.92 11.104C59.2747 11.104 59.592 11.006 59.872 10.81C60.1613 10.614 60.4133 10.3527 60.628 10.026C60.852 9.69 61.0387 9.326 61.188 8.934C61.3467 8.53267 61.4727 8.13133 61.566 7.73L62.742 8.696C62.4993 9.47067 62.196 10.152 61.832 10.74C61.468 11.3187 61.0293 11.7713 60.516 12.098C60.0027 12.434 59.396 12.602 58.696 12.602C58.192 12.602 57.7813 12.5087 57.464 12.322C57.156 12.1353 56.9273 11.902 56.778 11.622C56.638 11.342 56.5587 11.0527 56.54 10.754C56.5213 10.4833 56.5073 10.194 56.498 9.886C56.498 9.56867 56.4933 9.26067 56.484 8.962C56.484 8.654 56.4747 8.388 56.456 8.164C56.4467 7.884 56.3627 7.66933 56.204 7.52C56.0453 7.36133 55.8213 7.282 55.532 7.282C55.1867 7.282 54.8507 7.38467 54.524 7.59C54.2067 7.79533 53.9173 8.066 53.656 8.402C53.404 8.738 53.1893 9.09267 53.012 9.466C52.9093 9.67133 52.802 9.91867 52.69 10.208C52.578 10.488 52.466 10.782 52.354 11.09C52.2513 11.3887 52.158 11.6733 52.074 11.944C51.99 12.2147 51.92 12.4387 51.864 12.616L50.324 12.098C50.5013 11.622 50.7207 11.0853 50.982 10.488C51.2433 9.88133 51.5327 9.24667 51.85 8.584C52.1673 7.912 52.4893 7.24933 52.816 6.596C53.1427 5.94267 53.4553 5.322 53.754 4.734C54.0527 4.146 54.3187 3.63267 54.552 3.194C54.7853 2.75533 54.9627 2.424 55.084 2.2C55.1773 2.032 55.2753 1.85 55.378 1.654C55.4807 1.44867 55.5787 1.22 55.672 0.967999L57.24 1.598Z" fill="black"/>
</svg>
