<svg width="21" height="13" viewBox="0 0 21 13" fill="none" xmlns="http://www.w3.org/2000/svg">
<path d="M8.87 2.648C8.87 2.99333 8.87 3.362 8.87 3.754C8.87 4.146 8.87 4.52867 8.87 4.902C8.87 5.27533 8.87 5.61133 8.87 5.91C8.87 6.36733 8.87933 6.82 8.898 7.268C8.91667 7.716 8.93533 8.15 8.954 8.57C8.982 8.98067 9.00533 9.368 9.024 9.732C9.04267 10.096 9.052 10.4273 9.052 10.726C9.052 11.314 8.85133 11.7807 8.45 12.126C8.058 12.4807 7.45133 12.658 6.63 12.658C6.10733 12.658 5.636 12.5787 5.216 12.42C4.796 12.2707 4.46 12.042 4.208 11.734C3.96533 11.426 3.844 11.0387 3.844 10.572C3.844 10.208 3.942 9.872 4.138 9.564C4.34333 9.256 4.64667 9.00867 5.048 8.822C5.45867 8.626 5.97667 8.528 6.602 8.528C7.25533 8.528 7.85733 8.60267 8.408 8.752C8.95867 8.892 9.45333 9.074 9.892 9.298C10.3307 9.522 10.718 9.76 11.054 10.012C11.3993 10.264 11.6887 10.4973 11.922 10.712L11.194 11.93C10.7553 11.4727 10.2793 11.0667 9.766 10.712C9.25267 10.3573 8.72533 10.082 8.184 9.886C7.64267 9.68067 7.10133 9.578 6.56 9.578C6.112 9.578 5.75267 9.662 5.482 9.83C5.22067 9.998 5.09 10.2173 5.09 10.488C5.09 10.796 5.216 11.0293 5.468 11.188C5.72 11.3467 6.056 11.426 6.476 11.426C6.812 11.426 7.06867 11.3747 7.246 11.272C7.43267 11.16 7.56333 11.0153 7.638 10.838C7.71267 10.6607 7.75 10.4553 7.75 10.222C7.75 10.0073 7.74533 9.73667 7.736 9.41C7.72667 9.08333 7.708 8.724 7.68 8.332C7.66133 7.93067 7.64267 7.52467 7.624 7.114C7.61467 6.70333 7.61 6.316 7.61 5.952C7.61 5.59733 7.61 5.21 7.61 4.79C7.61 4.37 7.61 3.96867 7.61 3.586C7.61 3.20333 7.61 2.89067 7.61 2.648H8.87ZM4.306 5.28C5.174 5.336 6.02333 5.364 6.854 5.364C7.694 5.35467 8.49667 5.322 9.262 5.266C10.0273 5.21 10.7367 5.14467 11.39 5.07V6.358C10.7927 6.42333 10.102 6.47933 9.318 6.526C8.54333 6.57267 7.73133 6.60067 6.882 6.61C6.03267 6.61 5.17867 6.59133 4.32 6.554L4.306 5.28ZM4.53 2.018C5.33267 2.074 6.08867 2.10667 6.798 2.116C7.51667 2.116 8.18867 2.09267 8.814 2.046C9.44867 1.99933 10.032 1.94333 10.564 1.878V3.096C10.0413 3.152 9.46267 3.19867 8.828 3.236C8.20267 3.27333 7.53067 3.29667 6.812 3.306C6.09333 3.306 5.33267 3.28733 4.53 3.25V2.018ZM2.332 1.5C2.304 1.584 2.27133 1.696 2.234 1.836C2.19667 1.96667 2.15933 2.102 2.122 2.242C2.094 2.37267 2.07067 2.48 2.052 2.564C1.996 2.79733 1.94 3.08667 1.884 3.432C1.828 3.77733 1.76733 4.16 1.702 4.58C1.646 4.99067 1.59467 5.41067 1.548 5.84C1.50133 6.26 1.464 6.666 1.436 7.058C1.408 7.44067 1.394 7.78133 1.394 8.08C1.394 8.332 1.39867 8.58867 1.408 8.85C1.42667 9.102 1.45467 9.354 1.492 9.606C1.55733 9.41933 1.632 9.21867 1.716 9.004C1.8 8.78 1.884 8.56533 1.968 8.36C2.06133 8.14533 2.14533 7.954 2.22 7.786L2.92 8.346C2.79867 8.69133 2.668 9.06933 2.528 9.48C2.39733 9.88133 2.276 10.2687 2.164 10.642C2.06133 11.006 1.982 11.3093 1.926 11.552C1.90733 11.6453 1.88867 11.7527 1.87 11.874C1.85133 11.9953 1.842 12.098 1.842 12.182C1.85133 12.2567 1.856 12.3407 1.856 12.434C1.86533 12.5367 1.87467 12.63 1.884 12.714L0.624 12.798C0.484 12.3033 0.358 11.678 0.246 10.922C0.134 10.1567 0.0780001 9.30267 0.0780001 8.36C0.0780001 7.83733 0.101333 7.296 0.148 6.736C0.194667 6.16667 0.250667 5.616 0.316 5.084C0.381333 4.54267 0.446667 4.05267 0.512 3.614C0.586667 3.166 0.642667 2.802 0.68 2.522C0.708 2.34467 0.731333 2.15333 0.75 1.948C0.768667 1.73333 0.782667 1.53733 0.792 1.36L2.332 1.5ZM10.536 0.855999C10.62 1.03333 10.7087 1.23867 10.802 1.472C10.9047 1.696 11.0027 1.92467 11.096 2.158C11.1893 2.39133 11.264 2.60133 11.32 2.788L10.508 3.068C10.4427 2.86267 10.3633 2.64333 10.27 2.41C10.186 2.17667 10.0973 1.948 10.004 1.724C9.92 1.49067 9.83133 1.28067 9.738 1.094L10.536 0.855999ZM11.95 0.407999C12.0433 0.575999 12.1413 0.776666 12.244 1.01C12.3467 1.24333 12.4447 1.47667 12.538 1.71C12.6313 1.94333 12.706 2.15333 12.762 2.34L11.95 2.606C11.8473 2.298 11.726 1.96667 11.586 1.612C11.446 1.248 11.3013 0.935333 11.152 0.674L11.95 0.407999ZM20.518 1.78C20.3407 1.91067 20.1493 2.06 19.944 2.228C19.748 2.38667 19.58 2.52667 19.44 2.648C19.2067 2.844 18.922 3.07733 18.586 3.348C18.25 3.61867 17.8953 3.90333 17.522 4.202C17.158 4.50067 16.8033 4.79 16.458 5.07C16.1127 5.34067 15.8187 5.58333 15.576 5.798C15.3147 6.022 15.1373 6.20867 15.044 6.358C14.9507 6.50733 14.9507 6.65667 15.044 6.806C15.1467 6.946 15.3333 7.13733 15.604 7.38C15.8467 7.576 16.1313 7.80933 16.458 8.08C16.794 8.35067 17.1487 8.64467 17.522 8.962C17.9047 9.27 18.292 9.592 18.684 9.928C19.076 10.264 19.454 10.5953 19.818 10.922C20.182 11.2487 20.5087 11.5567 20.798 11.846L19.524 13.008C19.188 12.6253 18.8333 12.2473 18.46 11.874C18.2267 11.6313 17.9327 11.3467 17.578 11.02C17.2233 10.6933 16.8407 10.3527 16.43 9.998C16.0287 9.64333 15.6273 9.298 15.226 8.962C14.8247 8.61667 14.4607 8.30867 14.134 8.038C13.686 7.65533 13.3967 7.31467 13.266 7.016C13.1353 6.71733 13.154 6.41867 13.322 6.12C13.4993 5.82133 13.8073 5.49 14.246 5.126C14.5167 4.902 14.834 4.64533 15.198 4.356C15.562 4.05733 15.9353 3.74467 16.318 3.418C16.71 3.09133 17.0787 2.77867 17.424 2.48C17.7787 2.172 18.0727 1.90133 18.306 1.668C18.474 1.5 18.6467 1.32267 18.824 1.136C19.0013 0.939999 19.132 0.767333 19.216 0.618L20.518 1.78Z" fill="black"/>
</svg>
