<svg width="63" height="13" viewBox="0 0 63 13" fill="none" xmlns="http://www.w3.org/2000/svg">
<g clip-path="url(#clip0_29294_28)">
<path d="M4.90798 0.730148C4.88931 0.814148 4.87531 0.921481 4.86598 1.05215C4.85665 1.17348 4.84265 1.30415 4.82398 1.44415C4.81465 1.57482 4.80531 1.69615 4.79598 1.80815C4.78665 2.05082 4.77265 2.34015 4.75398 2.67615C4.74465 3.00282 4.73065 3.36215 4.71198 3.75415C4.70265 4.13682 4.69331 4.52415 4.68398 4.91615C4.68398 5.29882 4.68398 5.66748 4.68398 6.02215C4.68398 6.38615 4.68865 6.79215 4.69798 7.24015C4.70731 7.68815 4.71665 8.13148 4.72598 8.57015C4.73531 8.99948 4.74465 9.40082 4.75398 9.77415C4.76331 10.1381 4.76798 10.4274 4.76798 10.6421C4.76798 11.1368 4.70731 11.5241 4.58598 11.8041C4.47398 12.0841 4.31531 12.2801 4.10998 12.3921C3.91398 12.5041 3.67598 12.5602 3.39598 12.5602C3.09731 12.5602 2.77065 12.4949 2.41598 12.3642C2.06131 12.2335 1.72531 12.0561 1.40798 11.8321C1.09065 11.6081 0.829312 11.3469 0.623979 11.0482C0.418646 10.7495 0.315979 10.4321 0.315979 10.0961C0.315979 9.66682 0.479312 9.24215 0.805979 8.82215C1.14198 8.39282 1.58065 8.00082 2.12198 7.64615C2.66331 7.29148 3.23731 7.00215 3.84398 6.77815C4.47865 6.54482 5.12731 6.36748 5.78998 6.24615C6.45265 6.12482 7.05465 6.06415 7.59598 6.06415C8.29598 6.06415 8.92131 6.18082 9.47198 6.41415C10.0227 6.64748 10.4567 6.98348 10.774 7.42215C11.0913 7.86082 11.25 8.37882 11.25 8.97615C11.25 9.52682 11.138 10.0214 10.914 10.4601C10.6993 10.8988 10.368 11.2721 9.91998 11.5801C9.47198 11.8881 8.90731 12.1261 8.22598 12.2941C7.90865 12.3594 7.59598 12.4061 7.28798 12.4341C6.98931 12.4621 6.70931 12.4854 6.44798 12.5041L5.94398 11.0761C6.22398 11.0854 6.50865 11.0854 6.79798 11.0761C7.08731 11.0668 7.36265 11.0341 7.62398 10.9781C8.01598 10.9034 8.37998 10.7868 8.71598 10.6281C9.05198 10.4601 9.31798 10.2409 9.51398 9.97015C9.71931 9.69015 9.82198 9.35415 9.82198 8.96215C9.82198 8.59815 9.72398 8.29482 9.52798 8.05215C9.33198 7.80015 9.06598 7.60882 8.72998 7.47815C8.39398 7.34748 8.01131 7.28215 7.58198 7.28215C6.97531 7.28215 6.37331 7.34748 5.77598 7.47815C5.17865 7.59948 4.59065 7.77215 4.01198 7.99615C3.58265 8.16415 3.19065 8.36482 2.83598 8.59815C2.48131 8.83148 2.20131 9.07415 1.99598 9.32615C1.79065 9.56882 1.68798 9.80215 1.68798 10.0261C1.68798 10.1661 1.73465 10.3014 1.82798 10.4321C1.92131 10.5534 2.03331 10.6608 2.16398 10.7541C2.30398 10.8474 2.44865 10.9221 2.59798 10.9781C2.74731 11.0341 2.88265 11.0622 3.00398 11.0622C3.14398 11.0622 3.25598 11.0154 3.33998 10.9221C3.43331 10.8194 3.47998 10.6514 3.47998 10.4181C3.47998 10.1568 3.47065 9.78815 3.45198 9.31215C3.44265 8.83615 3.43331 8.31348 3.42398 7.74415C3.41465 7.16548 3.40998 6.61015 3.40998 6.07815C3.40998 5.67682 3.40998 5.26148 3.40998 4.83215C3.41931 4.39348 3.42398 3.97348 3.42398 3.57215C3.43331 3.17082 3.43798 2.81615 3.43798 2.50815C3.44731 2.20015 3.45198 1.97615 3.45198 1.83615C3.45198 1.73348 3.44731 1.61215 3.43798 1.47215C3.42865 1.33215 3.41931 1.19682 3.40998 1.06615C3.40065 0.926148 3.38665 0.814148 3.36798 0.730148H4.90798ZM9.09398 2.27015C9.43931 2.43815 9.82198 2.64815 10.242 2.90015C10.6713 3.14282 11.0773 3.39015 11.46 3.64215C11.852 3.88482 12.1647 4.09948 12.398 4.28615L11.712 5.40615C11.544 5.24748 11.32 5.07482 11.04 4.88815C10.7693 4.70148 10.4753 4.51015 10.158 4.31415C9.84998 4.11815 9.54665 3.93615 9.24798 3.76815C8.95865 3.59082 8.70198 3.44615 8.47798 3.33415L9.09398 2.27015ZM0.609979 3.15215C1.01131 3.19882 1.35665 3.23148 1.64598 3.25015C1.93531 3.25948 2.21065 3.26415 2.47198 3.26415C2.81731 3.26415 3.20931 3.24548 3.64798 3.20815C4.08665 3.17082 4.52998 3.12415 4.97798 3.06815C5.43531 3.01215 5.87865 2.94215 6.30798 2.85815C6.74665 2.76482 7.14331 2.66682 7.49798 2.56415L7.52598 3.93615C7.15265 4.02015 6.73731 4.09948 6.27998 4.17415C5.83198 4.24882 5.37465 4.31882 4.90798 4.38415C4.45065 4.44015 4.01198 4.48682 3.59198 4.52415C3.18131 4.55215 2.81731 4.56615 2.49998 4.56615C2.07998 4.56615 1.72531 4.56148 1.43598 4.55215C1.14665 4.53348 0.885312 4.51482 0.651979 4.49615L0.609979 3.15215ZM17.928 2.39615C18.3387 2.46148 18.8007 2.50815 19.314 2.53615C19.8367 2.56415 20.3733 2.57348 20.924 2.56415C21.4747 2.55482 22.002 2.53615 22.506 2.50815C23.01 2.48015 23.444 2.44282 23.808 2.39615V3.82415C23.4067 3.86148 22.954 3.89415 22.45 3.92215C21.946 3.94082 21.4233 3.95015 20.882 3.95015C20.35 3.95015 19.8273 3.94082 19.314 3.92215C18.8007 3.89415 18.3433 3.86148 17.942 3.82415L17.928 2.39615ZM18.726 8.22015C18.67 8.46282 18.6233 8.68215 18.586 8.87815C18.558 9.07415 18.544 9.27015 18.544 9.46615C18.544 9.62482 18.5767 9.77415 18.642 9.91415C18.7167 10.0541 18.8333 10.1754 18.992 10.2781C19.16 10.3808 19.384 10.4648 19.664 10.5301C19.9533 10.5861 20.308 10.6142 20.728 10.6142C21.3627 10.6142 21.9553 10.5861 22.506 10.5301C23.066 10.4648 23.6353 10.3668 24.214 10.2361L24.242 11.7341C23.8033 11.8181 23.29 11.8881 22.702 11.9441C22.1233 11.9908 21.456 12.0141 20.7 12.0141C19.5147 12.0141 18.6373 11.8228 18.068 11.4401C17.508 11.0481 17.228 10.5114 17.228 9.83015C17.228 9.57815 17.2467 9.31682 17.284 9.04615C17.3213 8.76615 17.382 8.45348 17.466 8.10815L18.726 8.22015ZM15.492 1.38815C15.464 1.47215 15.4267 1.58415 15.38 1.72415C15.3427 1.85482 15.3053 1.99015 15.268 2.13015C15.24 2.26082 15.2167 2.36815 15.198 2.45215C15.1513 2.68548 15.0953 2.97015 15.03 3.30615C14.974 3.63282 14.9133 3.99215 14.848 4.38415C14.792 4.76682 14.736 5.15882 14.68 5.56015C14.6333 5.95215 14.5913 6.33482 14.554 6.70815C14.526 7.08148 14.512 7.42215 14.512 7.73015C14.512 7.97282 14.5167 8.22015 14.526 8.47215C14.5447 8.71482 14.568 8.96682 14.596 9.22815C14.68 9.04148 14.764 8.84548 14.848 8.64015C14.932 8.42548 15.016 8.21548 15.1 8.01015C15.184 7.80482 15.2633 7.61815 15.338 7.45015L16.038 8.01015C15.9167 8.35548 15.786 8.73815 15.646 9.15815C15.506 9.57815 15.38 9.97948 15.268 10.3622C15.1653 10.7355 15.0907 11.0389 15.044 11.2722C15.0253 11.3655 15.0067 11.4774 14.988 11.6081C14.9693 11.7294 14.9647 11.8322 14.974 11.9162C14.974 11.9815 14.974 12.0609 14.974 12.1542C14.9833 12.2569 14.9927 12.3501 15.002 12.4341L13.728 12.5181C13.588 12.0328 13.4667 11.3935 13.364 10.6002C13.2613 9.80682 13.21 8.93882 13.21 7.99615C13.21 7.47348 13.2333 6.94615 13.28 6.41415C13.3267 5.87282 13.3827 5.35015 13.448 4.84615C13.5133 4.34215 13.5787 3.88015 13.644 3.46015C13.7187 3.04015 13.7747 2.69015 13.812 2.41015C13.84 2.23282 13.8633 2.04148 13.882 1.83615C13.91 1.63082 13.9287 1.43482 13.938 1.24815L15.492 1.38815ZM27.546 2.13015C27.518 2.26082 27.4947 2.41948 27.476 2.60615C27.4573 2.79282 27.4387 2.97948 27.42 3.16615C27.4107 3.35282 27.406 3.51148 27.406 3.64215C27.406 3.93148 27.406 4.25348 27.406 4.60815C27.4153 4.96282 27.4247 5.32682 27.434 5.70015C27.4433 6.06415 27.4667 6.42815 27.504 6.79215C27.5787 7.52948 27.6907 8.17348 27.84 8.72415C27.9893 9.27482 28.1807 9.70415 28.414 10.0121C28.6473 10.3201 28.918 10.4741 29.226 10.4741C29.4033 10.4741 29.5713 10.3901 29.73 10.2221C29.8887 10.0541 30.038 9.83015 30.178 9.55015C30.318 9.27015 30.444 8.96682 30.556 8.64015C30.6773 8.30415 30.78 7.98215 30.864 7.67415L31.97 8.97615C31.6713 9.76948 31.3727 10.4041 31.074 10.8801C30.7847 11.3468 30.486 11.6828 30.178 11.8881C29.87 12.0934 29.5433 12.1961 29.198 12.1961C28.7313 12.1961 28.2833 12.0374 27.854 11.7201C27.434 11.3934 27.07 10.8614 26.762 10.1241C26.454 9.38682 26.2347 8.40215 26.104 7.17015C26.0573 6.75948 26.02 6.31615 25.992 5.84015C25.9733 5.36415 25.9593 4.91148 25.95 4.48215C25.95 4.05282 25.95 3.69815 25.95 3.41815C25.95 3.24082 25.9407 3.02615 25.922 2.77415C25.9127 2.51282 25.8847 2.28882 25.838 2.10215L27.546 2.13015ZM34.714 2.48015C34.966 2.80682 35.2087 3.18948 35.442 3.62815C35.6847 4.05748 35.904 4.52415 36.1 5.02815C36.296 5.53215 36.4687 6.04548 36.618 6.56815C36.7767 7.09082 36.9073 7.60882 37.01 8.12215C37.1127 8.63548 37.1827 9.12082 37.22 9.57815L35.778 10.1381C35.722 9.53148 35.6287 8.89682 35.498 8.23415C35.3673 7.57148 35.1993 6.91815 34.994 6.27415C34.7887 5.62082 34.546 5.00948 34.266 4.44015C33.9953 3.86148 33.6827 3.36215 33.328 2.94215L34.714 2.48015ZM44.024 2.07415C43.9773 1.91548 43.9213 1.73348 43.856 1.52815C43.7907 1.31348 43.716 1.09882 43.632 0.884149L45.144 0.702148C45.1907 1.01015 45.2607 1.34148 45.354 1.69615C45.4473 2.04148 45.55 2.38682 45.662 2.73215C45.774 3.07748 45.8813 3.40415 45.984 3.71215C46.1987 4.30015 46.46 4.88815 46.768 5.47615C47.0853 6.05482 47.3793 6.52615 47.65 6.89015C47.7527 7.03948 47.86 7.18415 47.972 7.32415C48.084 7.46415 48.2007 7.59482 48.322 7.71615L47.622 8.72415C47.4353 8.67748 47.1973 8.63548 46.908 8.59815C46.628 8.56082 46.32 8.52348 45.984 8.48615C45.6573 8.44882 45.326 8.41615 44.99 8.38815C44.6633 8.36015 44.3647 8.33215 44.094 8.30415L44.192 7.14215C44.444 7.16082 44.71 7.18415 44.99 7.21215C45.27 7.23082 45.536 7.25415 45.788 7.28215C46.04 7.30082 46.2453 7.31948 46.404 7.33815C46.2173 7.04882 46.0167 6.71748 45.802 6.34415C45.5967 5.97082 45.396 5.58348 45.2 5.18215C45.004 4.77148 44.8313 4.36082 44.682 3.95015C44.5327 3.55815 44.402 3.20348 44.29 2.88615C44.1873 2.56882 44.0987 2.29815 44.024 2.07415ZM38.914 2.97015C39.7353 3.06348 40.5193 3.12882 41.266 3.16615C42.0127 3.20348 42.7173 3.21282 43.38 3.19415C44.0427 3.17548 44.6447 3.13815 45.186 3.08215C45.578 3.03548 45.9793 2.97948 46.39 2.91415C46.8007 2.83948 47.2067 2.75548 47.608 2.66215C48.0187 2.56882 48.406 2.46148 48.77 2.34015L48.938 3.74015C48.6207 3.82415 48.2707 3.90815 47.888 3.99215C47.5147 4.06682 47.132 4.13682 46.74 4.20215C46.348 4.25815 45.9747 4.30948 45.62 4.35615C44.7147 4.45882 43.7067 4.51482 42.596 4.52415C41.4853 4.53348 40.2673 4.48682 38.942 4.38415L38.914 2.97015ZM41.364 7.56215C41.1493 7.89815 40.9813 8.22482 40.86 8.54215C40.748 8.85015 40.692 9.16748 40.692 9.49415C40.692 10.1195 40.9627 10.5768 41.504 10.8661C42.0547 11.1554 42.834 11.3048 43.842 11.3141C44.5793 11.3234 45.2513 11.2954 45.858 11.2301C46.4647 11.1648 47.0153 11.0808 47.51 10.9781L47.44 12.3781C47.02 12.4528 46.502 12.5229 45.886 12.5882C45.2793 12.6629 44.57 12.6954 43.758 12.6861C42.8433 12.6861 42.05 12.5695 41.378 12.3362C40.706 12.1122 40.188 11.7808 39.824 11.3421C39.46 10.8941 39.278 10.3482 39.278 9.70415C39.278 9.29348 39.3387 8.89215 39.46 8.50015C39.5907 8.10815 39.7633 7.69282 39.978 7.25415L41.364 7.56215ZM57.24 1.59815C57.1747 1.69148 57.1047 1.79882 57.03 1.92015C56.9553 2.03215 56.876 2.15348 56.792 2.28415C56.6333 2.52682 56.4467 2.83015 56.232 3.19415C56.0173 3.54882 55.7933 3.93148 55.56 4.34215C55.3267 4.75282 55.098 5.15882 54.874 5.56015C54.65 5.96148 54.454 6.32548 54.286 6.65215C54.5847 6.41882 54.8927 6.25082 55.21 6.14815C55.5367 6.03615 55.8493 5.98015 56.148 5.98015C56.6427 5.98015 57.0393 6.13415 57.338 6.44215C57.646 6.74082 57.814 7.17482 57.842 7.74415C57.8513 7.98682 57.856 8.26215 57.856 8.57015C57.856 8.86882 57.856 9.16282 57.856 9.45215C57.8653 9.74148 57.8793 9.99348 57.898 10.2081C57.9167 10.5348 58.024 10.7681 58.22 10.9081C58.4253 11.0388 58.6587 11.1041 58.92 11.1041C59.2747 11.1041 59.592 11.0062 59.872 10.8102C60.1613 10.6142 60.4133 10.3528 60.628 10.0261C60.852 9.69015 61.0387 9.32615 61.188 8.93415C61.3467 8.53282 61.4727 8.13148 61.566 7.73015L62.742 8.69615C62.4993 9.47082 62.196 10.1521 61.832 10.7401C61.468 11.3188 61.0293 11.7714 60.516 12.0981C60.0027 12.4341 59.396 12.6021 58.696 12.6021C58.192 12.6021 57.7813 12.5088 57.464 12.3221C57.156 12.1354 56.9273 11.9021 56.778 11.6221C56.638 11.3421 56.5587 11.0528 56.54 10.7541C56.5213 10.4834 56.5073 10.1941 56.498 9.88615C56.498 9.56882 56.4933 9.26082 56.484 8.96215C56.484 8.65415 56.4747 8.38815 56.456 8.16415C56.4467 7.88415 56.3627 7.66948 56.204 7.52015C56.0453 7.36148 55.8213 7.28215 55.532 7.28215C55.1867 7.28215 54.8507 7.38482 54.524 7.59015C54.2067 7.79548 53.9173 8.06615 53.656 8.40215C53.404 8.73815 53.1893 9.09282 53.012 9.46615C52.9093 9.67148 52.802 9.91882 52.69 10.2081C52.578 10.4881 52.466 10.7821 52.354 11.0901C52.2513 11.3888 52.158 11.6734 52.074 11.9441C51.99 12.2148 51.92 12.4388 51.864 12.6161L50.324 12.0981C50.5013 11.6221 50.7207 11.0854 50.982 10.4881C51.2433 9.88148 51.5327 9.24682 51.85 8.58415C52.1673 7.91215 52.4893 7.24948 52.816 6.59615C53.1427 5.94282 53.4553 5.32215 53.754 4.73415C54.0527 4.14615 54.3187 3.63282 54.552 3.19415C54.7853 2.75548 54.9627 2.42415 55.084 2.20015C55.1773 2.03215 55.2753 1.85015 55.378 1.65415C55.4807 1.44882 55.5787 1.22015 55.672 0.968148L57.24 1.59815Z" fill="#E22F61"/>
</g>
<defs>
<clipPath id="clip0_29294_28">
<rect width="63" height="13" fill="white"/>
</clipPath>
</defs>
</svg>
