<svg width="27" height="13" viewBox="0 0 27 13" fill="none" xmlns="http://www.w3.org/2000/svg">
<g clip-path="url(#clip0_29294_12)">
<path d="M5.748 0.842133C5.72 0.9448 5.68733 1.0568 5.65 1.17813C5.622 1.29946 5.59867 1.41146 5.58 1.51413C5.496 1.9248 5.41667 2.41946 5.342 2.99813C5.26733 3.56746 5.20667 4.17413 5.16 4.81813C5.11333 5.46213 5.09 6.09213 5.09 6.70813C5.09 7.3708 5.12733 7.99613 5.202 8.58413C5.286 9.17213 5.39333 9.7228 5.524 10.2361C5.65467 10.7494 5.79467 11.2348 5.944 11.6921L4.67 12.0701C4.53 11.6501 4.39467 11.1601 4.264 10.6001C4.14267 10.0308 4.04467 9.4288 3.97 8.79413C3.89533 8.15946 3.858 7.5248 3.858 6.89013C3.858 6.42346 3.872 5.9428 3.9 5.44813C3.928 4.95346 3.96067 4.4728 3.998 4.00613C4.04467 3.53013 4.09133 3.08213 4.138 2.66213C4.194 2.24213 4.236 1.8688 4.264 1.54213C4.28267 1.4208 4.292 1.29013 4.292 1.15013C4.30133 1.01013 4.306 0.893467 4.306 0.800134L5.748 0.842133ZM3.396 2.48013C4.24533 2.48013 5.06667 2.46146 5.86 2.42413C6.65333 2.37746 7.414 2.30746 8.142 2.21413C8.87933 2.1208 9.584 1.9948 10.256 1.83613L10.27 3.13813C9.77533 3.22213 9.23867 3.30146 8.66 3.37613C8.08133 3.44146 7.484 3.49746 6.868 3.54413C6.252 3.5908 5.64067 3.62813 5.034 3.65613C4.43667 3.68413 3.87667 3.69813 3.354 3.69813C3.13933 3.69813 2.88733 3.69346 2.598 3.68413C2.30867 3.66546 2.01933 3.65146 1.73 3.64213C1.45 3.62346 1.20733 3.60946 1.002 3.60013L0.960001 2.29813C1.128 2.32613 1.35667 2.35413 1.646 2.38213C1.94467 2.41013 2.25267 2.43346 2.57 2.45213C2.88733 2.4708 3.16267 2.48013 3.396 2.48013ZM9.318 4.30013C9.29 4.3748 9.25267 4.4728 9.206 4.59413C9.16867 4.71546 9.12667 4.8368 9.08 4.95813C9.04267 5.07946 9.00533 5.18213 8.968 5.26613C8.69733 6.1248 8.366 6.9088 7.974 7.61813C7.59133 8.31813 7.17133 8.9388 6.714 9.48013C6.266 10.0121 5.804 10.4554 5.328 10.8101C4.88 11.1554 4.376 11.4494 3.816 11.6921C3.26533 11.9348 2.71933 12.0561 2.178 12.0561C1.86067 12.0561 1.56667 11.9908 1.296 11.8601C1.02533 11.7294 0.810668 11.5241 0.652001 11.2441C0.493334 10.9641 0.414001 10.6094 0.414001 10.1801C0.414001 9.6948 0.516668 9.21413 0.722001 8.73813C0.927334 8.26213 1.20733 7.80946 1.562 7.38013C1.926 6.9508 2.346 6.56813 2.822 6.23213C3.298 5.89613 3.802 5.62546 4.334 5.42013C4.80067 5.25213 5.3 5.1168 5.832 5.01413C6.37333 4.91146 6.88667 4.86013 7.372 4.86013C8.25867 4.86013 9.02867 5.0188 9.682 5.33613C10.3447 5.64413 10.858 6.0688 11.222 6.61013C11.5953 7.15146 11.782 7.7628 11.782 8.44413C11.782 8.94813 11.698 9.43346 11.53 9.90013C11.3713 10.3574 11.11 10.7821 10.746 11.1741C10.382 11.5568 9.906 11.8881 9.318 12.1681C8.73933 12.4481 8.03467 12.6534 7.204 12.7841L6.448 11.6221C7.316 11.5288 8.044 11.3281 8.632 11.0201C9.22 10.7121 9.66333 10.3294 9.962 9.87213C10.27 9.4148 10.424 8.92013 10.424 8.38813C10.424 7.94946 10.3027 7.5528 10.06 7.19813C9.82667 6.83413 9.47667 6.54013 9.01 6.31613C8.55267 6.09213 7.988 5.98013 7.316 5.98013C6.70933 5.98013 6.154 6.0548 5.65 6.20413C5.15533 6.34413 4.73533 6.49346 4.39 6.65213C3.886 6.87613 3.43333 7.1748 3.032 7.54813C2.63067 7.91213 2.31333 8.30413 2.08 8.72413C1.84667 9.14413 1.73 9.54546 1.73 9.92813C1.73 10.1894 1.79067 10.3854 1.912 10.5161C2.04267 10.6468 2.22933 10.7121 2.472 10.7121C2.808 10.7121 3.19533 10.6094 3.634 10.4041C4.07267 10.1988 4.51133 9.89546 4.95 9.49413C5.52867 8.9808 6.06533 8.36013 6.56 7.63213C7.064 6.90413 7.46533 6.00813 7.764 4.94413C7.792 4.86013 7.81533 4.76213 7.834 4.65013C7.862 4.5288 7.88533 4.40746 7.904 4.28613C7.92267 4.15546 7.93667 4.04813 7.946 3.96413L9.318 4.30013ZM25.544 11.6081C25.1333 11.1228 24.7133 10.7028 24.284 10.3481C23.8547 9.98413 23.4113 9.70413 22.954 9.50813C22.4967 9.31213 22.0207 9.21413 21.526 9.21413C21.3113 9.21413 21.106 9.25146 20.91 9.32613C20.7233 9.39146 20.5693 9.48946 20.448 9.62013C20.3267 9.74146 20.266 9.89546 20.266 10.0821C20.266 10.4088 20.3967 10.6468 20.658 10.7961C20.9193 10.9361 21.2273 11.0061 21.582 11.0061C21.9833 11.0061 22.3147 10.8988 22.576 10.6841C22.8373 10.4601 23.0427 10.1521 23.192 9.76013C23.3413 9.36813 23.444 8.9108 23.5 8.38813C23.5653 7.85613 23.598 7.29146 23.598 6.69413C23.598 6.14346 23.514 5.66746 23.346 5.26613C23.1873 4.85546 22.968 4.53813 22.688 4.31413C22.408 4.09013 22.0767 3.97813 21.694 3.97813C21.3207 3.97813 20.9287 4.07613 20.518 4.27213C20.1073 4.4588 19.692 4.70613 19.272 5.01413C18.852 5.32213 18.4507 5.65813 18.068 6.02213C17.6853 6.38613 17.3447 6.75013 17.046 7.11413L17.074 5.44813C17.3633 5.16813 17.6947 4.87413 18.068 4.56613C18.4413 4.2488 18.8427 3.95013 19.272 3.67013C19.7013 3.39013 20.14 3.16613 20.588 2.99813C21.0453 2.8208 21.4933 2.73213 21.932 2.73213C22.576 2.73213 23.122 2.9048 23.57 3.25013C24.018 3.59546 24.3587 4.07613 24.592 4.69213C24.8253 5.30813 24.942 6.01746 24.942 6.82013C24.942 7.64146 24.8907 8.38346 24.788 9.04613C24.6853 9.7088 24.508 10.2828 24.256 10.7681C24.0133 11.2441 23.6773 11.6128 23.248 11.8741C22.828 12.1261 22.3007 12.2521 21.666 12.2521C21.19 12.2521 20.7513 12.1774 20.35 12.0281C19.958 11.8881 19.6453 11.6641 19.412 11.3561C19.1787 11.0388 19.062 10.6328 19.062 10.1381C19.062 9.74613 19.1693 9.39613 19.384 9.08813C19.608 8.78013 19.9113 8.54213 20.294 8.37413C20.686 8.1968 21.1387 8.10813 21.652 8.10813C22.5013 8.10813 23.2993 8.30413 24.046 8.69613C24.802 9.0788 25.5487 9.6668 26.286 10.4601L25.544 11.6081ZM16.696 4.41213C16.5747 4.42146 16.3973 4.4448 16.164 4.48213C15.9307 4.51013 15.674 4.5428 15.394 4.58013C15.114 4.60813 14.8293 4.64546 14.54 4.69213C14.26 4.72946 13.994 4.76213 13.742 4.79013L13.602 3.36213C13.7793 3.37146 13.9473 3.37613 14.106 3.37613C14.2647 3.3668 14.4467 3.35746 14.652 3.34813C14.8573 3.3388 15.1047 3.32013 15.394 3.29213C15.6927 3.2548 16.0007 3.2128 16.318 3.16613C16.6353 3.11946 16.934 3.0728 17.214 3.02613C17.494 2.97013 17.7133 2.91413 17.872 2.85813L18.348 3.44613C18.264 3.55813 18.166 3.69813 18.054 3.86613C17.9513 4.03413 17.844 4.20213 17.732 4.37013C17.6293 4.53813 17.5407 4.68746 17.466 4.81813L16.864 7.03013C16.7053 7.2728 16.5093 7.56213 16.276 7.89813C16.052 8.2248 15.814 8.5748 15.562 8.94813C15.31 9.32146 15.058 9.68546 14.806 10.0401C14.5633 10.3948 14.3393 10.7121 14.134 10.9921L13.266 9.78813C13.4433 9.57346 13.6487 9.31213 13.882 9.00413C14.1153 8.69613 14.3627 8.36946 14.624 8.02413C14.8853 7.66946 15.1373 7.32413 15.38 6.98813C15.632 6.6428 15.8607 6.3208 16.066 6.02213C16.2713 5.72346 16.4347 5.47613 16.556 5.28013L16.598 4.72013L16.696 4.41213ZM16.556 1.92013C16.556 1.7428 16.556 1.55613 16.556 1.36013C16.556 1.16413 16.5373 0.9728 16.5 0.786133L18.124 0.842133C18.0867 1.03813 18.04 1.3368 17.984 1.73813C17.928 2.13946 17.8673 2.60613 17.802 3.13813C17.746 3.67013 17.69 4.23013 17.634 4.81813C17.5873 5.40613 17.55 5.98946 17.522 6.56813C17.494 7.1468 17.48 7.68346 17.48 8.17813C17.48 8.57946 17.48 8.9668 17.48 9.34013C17.48 9.71346 17.4847 10.0868 17.494 10.4601C17.5127 10.8334 17.5313 11.2348 17.55 11.6641C17.5593 11.7854 17.5687 11.9348 17.578 12.1121C17.5967 12.2988 17.6107 12.4668 17.62 12.6161H16.108C16.1173 12.4948 16.1267 12.3361 16.136 12.1401C16.1453 11.9534 16.15 11.8041 16.15 11.6921C16.15 11.2441 16.15 10.8381 16.15 10.4741C16.1593 10.1008 16.164 9.71813 16.164 9.32613C16.1733 8.9248 16.1873 8.45346 16.206 7.91213C16.206 7.69746 16.2153 7.41746 16.234 7.07213C16.2527 6.7268 16.276 6.34413 16.304 5.92413C16.332 5.50413 16.36 5.07946 16.388 4.65013C16.416 4.2208 16.4393 3.8148 16.458 3.43213C16.486 3.04946 16.5093 2.7228 16.528 2.45213C16.5467 2.18146 16.556 2.00413 16.556 1.92013Z" fill="#E22F61"/>
</g>
<defs>
<clipPath id="clip0_29294_12">
<rect width="27" height="13" fill="white"/>
</clipPath>
</defs>
</svg>
