<svg width="110" height="22" viewBox="0 0 110 22" fill="none" xmlns="http://www.w3.org/2000/svg">
<path d="M8.468 0.679998C8.436 0.823998 8.412 1.008 8.396 1.232C8.38 1.44 8.356 1.664 8.324 1.904C8.308 2.128 8.292 2.336 8.276 2.528C8.26 2.944 8.236 3.44 8.204 4.016C8.188 4.576 8.164 5.192 8.132 5.864C8.116 6.52 8.1 7.184 8.084 7.856C8.084 8.512 8.084 9.144 8.084 9.752C8.084 10.376 8.092 11.072 8.108 11.84C8.124 12.608 8.14 13.368 8.156 14.12C8.172 14.856 8.188 15.544 8.204 16.184C8.22 16.808 8.228 17.304 8.228 17.672C8.228 18.52 8.124 19.184 7.916 19.664C7.724 20.144 7.452 20.48 7.1 20.672C6.764 20.864 6.356 20.96 5.876 20.96C5.364 20.96 4.804 20.848 4.196 20.624C3.588 20.4 3.012 20.096 2.468 19.712C1.924 19.328 1.476 18.88 1.124 18.368C0.772 17.856 0.596 17.312 0.596 16.736C0.596 16 0.876 15.272 1.436 14.552C2.012 13.816 2.764 13.144 3.692 12.536C4.62 11.928 5.604 11.432 6.644 11.048C7.732 10.648 8.844 10.344 9.98 10.136C11.116 9.928 12.148 9.824 13.076 9.824C14.276 9.824 15.348 10.024 16.292 10.424C17.236 10.824 17.98 11.4 18.524 12.152C19.068 12.904 19.34 13.792 19.34 14.816C19.34 15.76 19.148 16.608 18.764 17.36C18.396 18.112 17.828 18.752 17.06 19.28C16.292 19.808 15.324 20.216 14.156 20.504C13.612 20.616 13.076 20.696 12.548 20.744C12.036 20.792 11.556 20.832 11.108 20.864L10.244 18.416C10.724 18.432 11.212 18.432 11.708 18.416C12.204 18.4 12.676 18.344 13.124 18.248C13.796 18.12 14.42 17.92 14.996 17.648C15.572 17.36 16.028 16.984 16.364 16.52C16.716 16.04 16.892 15.464 16.892 14.792C16.892 14.168 16.724 13.648 16.388 13.232C16.052 12.8 15.596 12.472 15.02 12.248C14.444 12.024 13.788 11.912 13.052 11.912C12.012 11.912 10.98 12.024 9.956 12.248C8.932 12.456 7.924 12.752 6.932 13.136C6.196 13.424 5.524 13.768 4.916 14.168C4.308 14.568 3.828 14.984 3.476 15.416C3.124 15.832 2.948 16.232 2.948 16.616C2.948 16.856 3.028 17.088 3.188 17.312C3.348 17.52 3.54 17.704 3.764 17.864C4.004 18.024 4.252 18.152 4.508 18.248C4.764 18.344 4.996 18.392 5.204 18.392C5.444 18.392 5.636 18.312 5.78 18.152C5.94 17.976 6.02 17.688 6.02 17.288C6.02 16.84 6.004 16.208 5.972 15.392C5.956 14.576 5.94 13.68 5.924 12.704C5.908 11.712 5.9 10.76 5.9 9.848C5.9 9.16 5.9 8.448 5.9 7.712C5.916 6.96 5.924 6.24 5.924 5.552C5.94 4.864 5.948 4.256 5.948 3.728C5.964 3.2 5.972 2.816 5.972 2.576C5.972 2.4 5.964 2.192 5.948 1.952C5.932 1.712 5.916 1.48 5.9 1.256C5.884 1.016 5.86 0.823998 5.828 0.679998H8.468ZM15.644 3.32C16.236 3.608 16.892 3.968 17.612 4.4C18.348 4.816 19.044 5.24 19.7 5.672C20.372 6.088 20.908 6.456 21.308 6.776L20.132 8.696C19.844 8.424 19.46 8.128 18.98 7.808C18.516 7.488 18.012 7.16 17.468 6.824C16.94 6.488 16.42 6.176 15.908 5.888C15.412 5.584 14.972 5.336 14.588 5.144L15.644 3.32ZM1.1 4.832C1.788 4.912 2.38 4.968 2.876 5C3.372 5.016 3.844 5.024 4.292 5.024C4.884 5.024 5.556 4.992 6.308 4.928C7.06 4.864 7.82 4.784 8.588 4.688C9.372 4.592 10.132 4.472 10.868 4.328C11.62 4.168 12.3 4 12.908 3.824L12.956 6.176C12.316 6.32 11.604 6.456 10.82 6.584C10.052 6.712 9.268 6.832 8.468 6.944C7.684 7.04 6.932 7.12 6.212 7.184C5.508 7.232 4.884 7.256 4.34 7.256C3.62 7.256 3.012 7.248 2.516 7.232C2.02 7.2 1.572 7.168 1.172 7.136L1.1 4.832ZM31.172 1.184C31.124 1.424 31.068 1.696 31.004 2C30.94 2.304 30.884 2.584 30.836 2.84C30.772 3.16 30.692 3.56 30.596 4.04C30.516 4.504 30.428 4.992 30.332 5.504C30.236 6 30.132 6.48 30.02 6.944C29.86 7.616 29.66 8.392 29.42 9.272C29.18 10.152 28.9 11.096 28.58 12.104C28.276 13.096 27.924 14.112 27.524 15.152C27.14 16.176 26.716 17.184 26.252 18.176C25.804 19.152 25.316 20.064 24.788 20.912L22.316 19.928C22.876 19.176 23.396 18.344 23.876 17.432C24.356 16.504 24.796 15.552 25.196 14.576C25.596 13.584 25.956 12.608 26.276 11.648C26.596 10.688 26.868 9.8 27.092 8.984C27.332 8.152 27.516 7.44 27.644 6.848C27.868 5.824 28.044 4.8 28.172 3.776C28.316 2.752 28.38 1.792 28.364 0.895998L31.172 1.184ZM39.452 3.608C39.82 4.104 40.212 4.728 40.628 5.48C41.044 6.232 41.452 7.032 41.852 7.88C42.268 8.728 42.636 9.544 42.956 10.328C43.292 11.112 43.556 11.784 43.748 12.344L41.372 13.448C41.212 12.808 40.98 12.088 40.676 11.288C40.388 10.472 40.052 9.648 39.668 8.816C39.3 7.984 38.9 7.2 38.468 6.464C38.052 5.712 37.636 5.08 37.22 4.568L39.452 3.608ZM22.052 6.296C22.452 6.312 22.836 6.32 23.204 6.32C23.588 6.32 23.98 6.312 24.38 6.296C24.764 6.28 25.236 6.256 25.796 6.224C26.356 6.176 26.956 6.128 27.596 6.08C28.252 6.016 28.9 5.96 29.54 5.912C30.196 5.848 30.796 5.8 31.34 5.768C31.884 5.736 32.324 5.72 32.66 5.72C33.444 5.72 34.14 5.848 34.748 6.104C35.356 6.344 35.836 6.776 36.188 7.4C36.556 8.024 36.74 8.896 36.74 10.016C36.74 10.96 36.7 11.984 36.62 13.088C36.54 14.176 36.396 15.224 36.188 16.232C35.996 17.224 35.724 18.056 35.372 18.728C34.988 19.56 34.484 20.112 33.86 20.384C33.252 20.672 32.524 20.816 31.676 20.816C31.228 20.816 30.74 20.784 30.212 20.72C29.684 20.656 29.22 20.576 28.82 20.48L28.436 17.984C28.756 18.064 29.1 18.144 29.468 18.224C29.852 18.304 30.212 18.368 30.548 18.416C30.884 18.448 31.156 18.464 31.364 18.464C31.796 18.464 32.172 18.392 32.492 18.248C32.828 18.088 33.108 17.776 33.332 17.312C33.572 16.816 33.772 16.176 33.932 15.392C34.092 14.608 34.212 13.768 34.292 12.872C34.372 11.976 34.412 11.112 34.412 10.28C34.412 9.576 34.308 9.056 34.1 8.72C33.908 8.384 33.628 8.16 33.26 8.048C32.892 7.92 32.46 7.856 31.964 7.856C31.58 7.856 31.052 7.888 30.38 7.952C29.724 8 29.02 8.064 28.268 8.144C27.516 8.224 26.82 8.304 26.18 8.384C25.54 8.448 25.036 8.504 24.668 8.552C24.364 8.584 23.972 8.632 23.492 8.696C23.028 8.76 22.628 8.824 22.292 8.888L22.052 6.296ZM54.068 0.871999C54.02 1.048 53.964 1.24 53.9 1.448C53.852 1.656 53.812 1.848 53.78 2.024C53.636 2.728 53.5 3.576 53.372 4.568C53.244 5.544 53.14 6.584 53.06 7.688C52.98 8.792 52.94 9.872 52.94 10.928C52.94 12.064 53.004 13.136 53.132 14.144C53.276 15.152 53.46 16.096 53.684 16.976C53.908 17.856 54.148 18.688 54.404 19.472L52.22 20.12C51.98 19.4 51.748 18.56 51.524 17.6C51.316 16.624 51.148 15.592 51.02 14.504C50.892 13.416 50.828 12.328 50.828 11.24C50.828 10.44 50.852 9.616 50.9 8.768C50.948 7.92 51.004 7.096 51.068 6.296C51.148 5.48 51.228 4.712 51.308 3.992C51.404 3.272 51.476 2.632 51.524 2.072C51.556 1.864 51.572 1.64 51.572 1.4C51.588 1.16 51.596 0.96 51.596 0.8L54.068 0.871999ZM50.036 3.68C51.492 3.68 52.9 3.648 54.26 3.584C55.62 3.504 56.924 3.384 58.172 3.224C59.436 3.064 60.644 2.848 61.796 2.576L61.82 4.808C60.972 4.952 60.052 5.088 59.06 5.216C58.068 5.328 57.044 5.424 55.988 5.504C54.932 5.584 53.884 5.648 52.844 5.696C51.82 5.744 50.86 5.768 49.964 5.768C49.596 5.768 49.164 5.76 48.668 5.744C48.172 5.712 47.676 5.688 47.18 5.672C46.7 5.64 46.284 5.616 45.932 5.6L45.86 3.368C46.148 3.416 46.54 3.464 47.036 3.512C47.548 3.56 48.076 3.6 48.62 3.632C49.164 3.664 49.636 3.68 50.036 3.68ZM60.188 6.8C60.14 6.928 60.076 7.096 59.996 7.304C59.932 7.512 59.86 7.72 59.78 7.928C59.716 8.136 59.652 8.312 59.588 8.456C59.124 9.928 58.556 11.272 57.884 12.488C57.228 13.688 56.508 14.752 55.724 15.68C54.956 16.592 54.164 17.352 53.348 17.96C52.58 18.552 51.716 19.056 50.756 19.472C49.812 19.888 48.876 20.096 47.948 20.096C47.404 20.096 46.9 19.984 46.436 19.76C45.972 19.536 45.604 19.184 45.332 18.704C45.06 18.224 44.924 17.616 44.924 16.88C44.924 16.048 45.1 15.224 45.452 14.408C45.804 13.592 46.284 12.816 46.892 12.08C47.516 11.344 48.236 10.688 49.052 10.112C49.868 9.536 50.732 9.072 51.644 8.72C52.444 8.432 53.3 8.2 54.212 8.024C55.14 7.848 56.02 7.76 56.852 7.76C58.372 7.76 59.692 8.032 60.812 8.576C61.948 9.104 62.828 9.832 63.452 10.76C64.092 11.688 64.412 12.736 64.412 13.904C64.412 14.768 64.268 15.6 63.98 16.4C63.708 17.184 63.26 17.912 62.636 18.584C62.012 19.24 61.196 19.808 60.188 20.288C59.196 20.768 57.988 21.12 56.564 21.344L55.268 19.352C56.756 19.192 58.004 18.848 59.012 18.32C60.02 17.792 60.78 17.136 61.292 16.352C61.82 15.568 62.084 14.72 62.084 13.808C62.084 13.056 61.876 12.376 61.46 11.768C61.06 11.144 60.46 10.64 59.66 10.256C58.876 9.872 57.908 9.68 56.756 9.68C55.716 9.68 54.764 9.808 53.9 10.064C53.052 10.304 52.332 10.56 51.74 10.832C50.876 11.216 50.1 11.728 49.412 12.368C48.724 12.992 48.18 13.664 47.78 14.384C47.38 15.104 47.18 15.792 47.18 16.448C47.18 16.896 47.284 17.232 47.492 17.456C47.716 17.68 48.036 17.792 48.452 17.792C49.028 17.792 49.692 17.616 50.444 17.264C51.196 16.912 51.948 16.392 52.7 15.704C53.692 14.824 54.612 13.76 55.46 12.512C56.324 11.264 57.012 9.728 57.524 7.904C57.572 7.76 57.612 7.592 57.644 7.4C57.692 7.192 57.732 6.984 57.764 6.776C57.796 6.552 57.82 6.368 57.836 6.224L60.188 6.8ZM76.964 2.984C76.884 2.712 76.788 2.4 76.676 2.048C76.564 1.68 76.436 1.312 76.292 0.943999L78.884 0.631999C78.964 1.16 79.084 1.728 79.244 2.336C79.404 2.928 79.58 3.52 79.772 4.112C79.964 4.704 80.148 5.264 80.324 5.792C80.692 6.8 81.14 7.808 81.668 8.816C82.212 9.808 82.716 10.616 83.18 11.24C83.356 11.496 83.54 11.744 83.732 11.984C83.924 12.224 84.124 12.448 84.332 12.656L83.132 14.384C82.812 14.304 82.404 14.232 81.908 14.168C81.428 14.104 80.9 14.04 80.324 13.976C79.764 13.912 79.196 13.856 78.62 13.808C78.06 13.76 77.548 13.712 77.084 13.664L77.252 11.672C77.684 11.704 78.14 11.744 78.62 11.792C79.1 11.824 79.556 11.864 79.988 11.912C80.42 11.944 80.772 11.976 81.044 12.008C80.724 11.512 80.38 10.944 80.012 10.304C79.66 9.664 79.316 9 78.98 8.312C78.644 7.608 78.348 6.904 78.092 6.2C77.836 5.528 77.612 4.92 77.42 4.376C77.244 3.832 77.092 3.368 76.964 2.984ZM68.204 4.52C69.612 4.68 70.956 4.792 72.236 4.856C73.516 4.92 74.724 4.936 75.86 4.904C76.996 4.872 78.028 4.808 78.956 4.712C79.628 4.632 80.316 4.536 81.02 4.424C81.724 4.296 82.42 4.152 83.108 3.992C83.812 3.832 84.476 3.648 85.1 3.44L85.388 5.84C84.844 5.984 84.244 6.128 83.588 6.272C82.948 6.4 82.292 6.52 81.62 6.632C80.948 6.728 80.308 6.816 79.7 6.896C78.148 7.072 76.42 7.168 74.516 7.184C72.612 7.2 70.524 7.12 68.252 6.944L68.204 4.52ZM72.404 12.392C72.036 12.968 71.748 13.528 71.54 14.072C71.348 14.6 71.252 15.144 71.252 15.704C71.252 16.776 71.716 17.56 72.644 18.056C73.588 18.552 74.924 18.808 76.652 18.824C77.916 18.84 79.068 18.792 80.108 18.68C81.148 18.568 82.092 18.424 82.94 18.248L82.82 20.648C82.1 20.776 81.212 20.896 80.156 21.008C79.116 21.136 77.9 21.192 76.508 21.176C74.94 21.176 73.58 20.976 72.428 20.576C71.276 20.192 70.388 19.624 69.764 18.872C69.14 18.104 68.828 17.168 68.828 16.064C68.828 15.36 68.932 14.672 69.14 14C69.364 13.328 69.66 12.616 70.028 11.864L72.404 12.392ZM100.1 2.168C99.988 2.328 99.868 2.512 99.74 2.72C99.612 2.912 99.476 3.12 99.332 3.344C99.06 3.76 98.74 4.28 98.372 4.904C98.004 5.512 97.62 6.168 97.22 6.872C96.82 7.576 96.428 8.272 96.044 8.96C95.66 9.648 95.324 10.272 95.036 10.832C95.548 10.432 96.076 10.144 96.62 9.968C97.18 9.776 97.716 9.68 98.228 9.68C99.076 9.68 99.756 9.944 100.268 10.472C100.796 10.984 101.084 11.728 101.132 12.704C101.148 13.12 101.156 13.592 101.156 14.12C101.156 14.632 101.156 15.136 101.156 15.632C101.172 16.128 101.196 16.56 101.228 16.928C101.26 17.488 101.444 17.888 101.78 18.128C102.132 18.352 102.532 18.464 102.98 18.464C103.588 18.464 104.132 18.296 104.612 17.96C105.108 17.624 105.54 17.176 105.908 16.616C106.292 16.04 106.612 15.416 106.868 14.744C107.14 14.056 107.356 13.368 107.516 12.68L109.532 14.336C109.116 15.664 108.596 16.832 107.972 17.84C107.348 18.832 106.596 19.608 105.716 20.168C104.836 20.744 103.796 21.032 102.596 21.032C101.732 21.032 101.028 20.872 100.484 20.552C99.956 20.232 99.564 19.832 99.308 19.352C99.068 18.872 98.932 18.376 98.9 17.864C98.868 17.4 98.844 16.904 98.828 16.376C98.828 15.832 98.82 15.304 98.804 14.792C98.804 14.264 98.788 13.808 98.756 13.424C98.74 12.944 98.596 12.576 98.324 12.32C98.052 12.048 97.668 11.912 97.172 11.912C96.58 11.912 96.004 12.088 95.444 12.44C94.9 12.792 94.404 13.256 93.956 13.832C93.524 14.408 93.156 15.016 92.852 15.656C92.676 16.008 92.492 16.432 92.3 16.928C92.108 17.408 91.916 17.912 91.724 18.44C91.548 18.952 91.388 19.44 91.244 19.904C91.1 20.368 90.98 20.752 90.884 21.056L88.244 20.168C88.548 19.352 88.924 18.432 89.372 17.408C89.82 16.368 90.316 15.28 90.86 14.144C91.404 12.992 91.956 11.856 92.516 10.736C93.076 9.616 93.612 8.552 94.124 7.544C94.636 6.536 95.092 5.656 95.492 4.904C95.892 4.152 96.196 3.584 96.404 3.2C96.564 2.912 96.732 2.6 96.908 2.264C97.084 1.912 97.252 1.52 97.412 1.088L100.1 2.168Z" fill="black"/>
</svg>
