<svg width="63" height="13" viewBox="0 0 63 13" fill="none" xmlns="http://www.w3.org/2000/svg">
<g clip-path="url(#clip0_29294_26)">
<path d="M4.90801 0.730148C4.88934 0.814148 4.87534 0.921481 4.86601 1.05215C4.85668 1.17348 4.84268 1.30415 4.82401 1.44415C4.81468 1.57482 4.80534 1.69615 4.79601 1.80815C4.78668 2.05082 4.77268 2.34015 4.75401 2.67615C4.74468 3.00282 4.73068 3.36215 4.71201 3.75415C4.70268 4.13682 4.69334 4.52415 4.68401 4.91615C4.68401 5.29882 4.68401 5.66748 4.68401 6.02215C4.68401 6.38615 4.68868 6.79215 4.69801 7.24015C4.70734 7.68815 4.71668 8.13148 4.72601 8.57015C4.73534 8.99948 4.74468 9.40082 4.75401 9.77415C4.76334 10.1381 4.76801 10.4274 4.76801 10.6421C4.76801 11.1368 4.70734 11.5241 4.58601 11.8041C4.47401 12.0841 4.31534 12.2801 4.11001 12.3921C3.91401 12.5041 3.67601 12.5602 3.39601 12.5602C3.09734 12.5602 2.77068 12.4949 2.41601 12.3642C2.06134 12.2335 1.72534 12.0561 1.40801 11.8321C1.09068 11.6081 0.829343 11.3469 0.62401 11.0482C0.418677 10.7495 0.31601 10.4321 0.31601 10.0961C0.31601 9.66682 0.479342 9.24215 0.80601 8.82215C1.14201 8.39282 1.58068 8.00082 2.12201 7.64615C2.66334 7.29148 3.23734 7.00215 3.84401 6.77815C4.47868 6.54482 5.12734 6.36748 5.79001 6.24615C6.45268 6.12482 7.05468 6.06415 7.59601 6.06415C8.29601 6.06415 8.92134 6.18082 9.47201 6.41415C10.0227 6.64748 10.4567 6.98348 10.774 7.42215C11.0913 7.86082 11.25 8.37882 11.25 8.97615C11.25 9.52682 11.138 10.0214 10.914 10.4601C10.6993 10.8988 10.368 11.2721 9.92001 11.5801C9.47201 11.8881 8.90734 12.1261 8.22601 12.2941C7.90868 12.3594 7.59601 12.4061 7.28801 12.4341C6.98934 12.4621 6.70934 12.4854 6.44801 12.5041L5.94401 11.0761C6.22401 11.0854 6.50868 11.0854 6.79801 11.0761C7.08734 11.0668 7.36268 11.0341 7.62401 10.9781C8.01601 10.9034 8.38001 10.7868 8.71601 10.6281C9.05201 10.4601 9.31801 10.2409 9.51401 9.97015C9.71934 9.69015 9.82201 9.35415 9.82201 8.96215C9.82201 8.59815 9.72401 8.29482 9.52801 8.05215C9.33201 7.80015 9.06601 7.60882 8.73001 7.47815C8.39401 7.34748 8.01134 7.28215 7.58201 7.28215C6.97534 7.28215 6.37334 7.34748 5.77601 7.47815C5.17868 7.59948 4.59068 7.77215 4.01201 7.99615C3.58268 8.16415 3.19068 8.36482 2.83601 8.59815C2.48134 8.83148 2.20134 9.07415 1.99601 9.32615C1.79068 9.56882 1.68801 9.80215 1.68801 10.0261C1.68801 10.1661 1.73468 10.3014 1.82801 10.4321C1.92134 10.5534 2.03334 10.6608 2.16401 10.7541C2.30401 10.8474 2.44868 10.9221 2.59801 10.9781C2.74734 11.0341 2.88268 11.0622 3.00401 11.0622C3.14401 11.0622 3.25601 11.0154 3.34001 10.9221C3.43334 10.8194 3.48001 10.6514 3.48001 10.4181C3.48001 10.1568 3.47068 9.78815 3.45201 9.31215C3.44268 8.83615 3.43334 8.31348 3.42401 7.74415C3.41468 7.16548 3.41001 6.61015 3.41001 6.07815C3.41001 5.67682 3.41001 5.26148 3.41001 4.83215C3.41934 4.39348 3.42401 3.97348 3.42401 3.57215C3.43334 3.17082 3.43801 2.81615 3.43801 2.50815C3.44734 2.20015 3.45201 1.97615 3.45201 1.83615C3.45201 1.73348 3.44734 1.61215 3.43801 1.47215C3.42868 1.33215 3.41934 1.19682 3.41001 1.06615C3.40068 0.926148 3.38668 0.814148 3.36801 0.730148H4.90801ZM9.09401 2.27015C9.43934 2.43815 9.82201 2.64815 10.242 2.90015C10.6713 3.14282 11.0773 3.39015 11.46 3.64215C11.852 3.88482 12.1647 4.09948 12.398 4.28615L11.712 5.40615C11.544 5.24748 11.32 5.07482 11.04 4.88815C10.7693 4.70148 10.4753 4.51015 10.158 4.31415C9.85001 4.11815 9.54668 3.93615 9.24801 3.76815C8.95868 3.59082 8.70201 3.44615 8.47801 3.33415L9.09401 2.27015ZM0.61001 3.15215C1.01134 3.19882 1.35668 3.23148 1.64601 3.25015C1.93534 3.25948 2.21068 3.26415 2.47201 3.26415C2.81734 3.26415 3.20934 3.24548 3.64801 3.20815C4.08668 3.17082 4.53001 3.12415 4.97801 3.06815C5.43534 3.01215 5.87868 2.94215 6.30801 2.85815C6.74668 2.76482 7.14334 2.66682 7.49801 2.56415L7.52601 3.93615C7.15268 4.02015 6.73734 4.09948 6.28001 4.17415C5.83201 4.24882 5.37468 4.31882 4.90801 4.38415C4.45068 4.44015 4.01201 4.48682 3.59201 4.52415C3.18134 4.55215 2.81734 4.56615 2.50001 4.56615C2.08001 4.56615 1.72534 4.56148 1.43601 4.55215C1.14668 4.53348 0.885343 4.51482 0.65201 4.49615L0.61001 3.15215ZM24.564 11.6081C24.1533 11.1228 23.7333 10.7028 23.304 10.3481C22.8747 9.98415 22.4313 9.70415 21.974 9.50815C21.5167 9.31215 21.0407 9.21415 20.546 9.21415C20.3313 9.21415 20.126 9.25148 19.93 9.32615C19.7433 9.39148 19.5893 9.48948 19.468 9.62015C19.3467 9.74148 19.286 9.89548 19.286 10.0821C19.286 10.4088 19.4167 10.6468 19.678 10.7961C19.9393 10.9361 20.2473 11.0061 20.602 11.0061C21.0033 11.0061 21.3347 10.8988 21.596 10.6841C21.8573 10.4601 22.0627 10.1521 22.212 9.76015C22.3613 9.36815 22.464 8.91082 22.52 8.38815C22.5853 7.85615 22.618 7.29148 22.618 6.69415C22.618 6.14348 22.534 5.66748 22.366 5.26615C22.2073 4.85548 21.988 4.53815 21.708 4.31415C21.428 4.09015 21.0967 3.97815 20.714 3.97815C20.3407 3.97815 19.9487 4.07615 19.538 4.27215C19.1273 4.45882 18.712 4.70615 18.292 5.01415C17.872 5.32215 17.4707 5.65815 17.088 6.02215C16.7053 6.38615 16.3647 6.75015 16.066 7.11415L16.094 5.44815C16.3833 5.16815 16.7147 4.87415 17.088 4.56615C17.4613 4.24882 17.8627 3.95015 18.292 3.67015C18.7213 3.39015 19.16 3.16615 19.608 2.99815C20.0653 2.82082 20.5133 2.73215 20.952 2.73215C21.596 2.73215 22.142 2.90482 22.59 3.25015C23.038 3.59548 23.3787 4.07615 23.612 4.69215C23.8453 5.30815 23.962 6.01748 23.962 6.82015C23.962 7.64148 23.9107 8.38348 23.808 9.04615C23.7053 9.70882 23.528 10.2828 23.276 10.7681C23.0333 11.2441 22.6973 11.6128 22.268 11.8741C21.848 12.1261 21.3207 12.2521 20.686 12.2521C20.21 12.2521 19.7713 12.1774 19.37 12.0281C18.978 11.8881 18.6653 11.6641 18.432 11.3561C18.1987 11.0388 18.082 10.6328 18.082 10.1381C18.082 9.74615 18.1893 9.39615 18.404 9.08815C18.628 8.78015 18.9313 8.54215 19.314 8.37415C19.706 8.19682 20.1587 8.10815 20.672 8.10815C21.5213 8.10815 22.3193 8.30415 23.066 8.69615C23.822 9.07882 24.5687 9.66682 25.306 10.4601L24.564 11.6081ZM15.716 4.41215C15.5947 4.42148 15.4173 4.44482 15.184 4.48215C14.9507 4.51015 14.694 4.54282 14.414 4.58015C14.134 4.60815 13.8493 4.64548 13.56 4.69215C13.28 4.72948 13.014 4.76215 12.762 4.79015L12.622 3.36215C12.7993 3.37148 12.9673 3.37615 13.126 3.37615C13.2847 3.36682 13.4667 3.35748 13.672 3.34815C13.8773 3.33882 14.1247 3.32015 14.414 3.29215C14.7127 3.25482 15.0207 3.21282 15.338 3.16615C15.6553 3.11948 15.954 3.07282 16.234 3.02615C16.514 2.97015 16.7333 2.91415 16.892 2.85815L17.368 3.44615C17.284 3.55815 17.186 3.69815 17.074 3.86615C16.9713 4.03415 16.864 4.20215 16.752 4.37015C16.6493 4.53815 16.5607 4.68748 16.486 4.81815L15.884 7.03015C15.7253 7.27282 15.5293 7.56215 15.296 7.89815C15.072 8.22482 14.834 8.57482 14.582 8.94815C14.33 9.32148 14.078 9.68548 13.826 10.0401C13.5833 10.3948 13.3593 10.7121 13.154 10.9921L12.286 9.78815C12.4633 9.57348 12.6687 9.31215 12.902 9.00415C13.1353 8.69615 13.3827 8.36948 13.644 8.02415C13.9053 7.66948 14.1573 7.32415 14.4 6.98815C14.652 6.64282 14.8807 6.32082 15.086 6.02215C15.2913 5.72348 15.4547 5.47615 15.576 5.28015L15.618 4.72015L15.716 4.41215ZM15.576 1.92015C15.576 1.74282 15.576 1.55615 15.576 1.36015C15.576 1.16415 15.5573 0.972815 15.52 0.786148L17.144 0.842148C17.1067 1.03815 17.06 1.33682 17.004 1.73815C16.948 2.13948 16.8873 2.60615 16.822 3.13815C16.766 3.67015 16.71 4.23015 16.654 4.81815C16.6073 5.40615 16.57 5.98948 16.542 6.56815C16.514 7.14682 16.5 7.68348 16.5 8.17815C16.5 8.57948 16.5 8.96682 16.5 9.34015C16.5 9.71348 16.5047 10.0868 16.514 10.4601C16.5327 10.8334 16.5513 11.2348 16.57 11.6641C16.5793 11.7854 16.5887 11.9349 16.598 12.1122C16.6167 12.2989 16.6307 12.4668 16.64 12.6161H15.128C15.1373 12.4948 15.1467 12.3362 15.156 12.1402C15.1653 11.9535 15.17 11.8042 15.17 11.6922C15.17 11.2442 15.17 10.8381 15.17 10.4741C15.1793 10.1008 15.184 9.71815 15.184 9.32615C15.1933 8.92482 15.2073 8.45348 15.226 7.91215C15.226 7.69748 15.2353 7.41748 15.254 7.07215C15.2727 6.72682 15.296 6.34415 15.324 5.92415C15.352 5.50415 15.38 5.07948 15.408 4.65015C15.436 4.22082 15.4593 3.81482 15.478 3.43215C15.506 3.04948 15.5293 2.72282 15.548 2.45215C15.5667 2.18148 15.576 2.00415 15.576 1.92015ZM28.568 0.828148C28.9507 0.902815 29.3893 0.977482 29.884 1.05215C30.388 1.12682 30.9013 1.19682 31.424 1.26215C31.956 1.32748 32.46 1.38348 32.936 1.43015C33.4213 1.47682 33.8367 1.50948 34.182 1.52815L34 2.83015C33.636 2.80215 33.216 2.76482 32.74 2.71815C32.2733 2.66215 31.7833 2.60148 31.27 2.53615C30.7567 2.47082 30.248 2.40082 29.744 2.32615C29.24 2.25148 28.7733 2.17682 28.344 2.10215L28.568 0.828148ZM34.546 5.01415C34.3967 5.12615 34.2473 5.24282 34.098 5.36415C33.9487 5.48548 33.8227 5.59282 33.72 5.68615C33.5707 5.81682 33.3793 5.98948 33.146 6.20415C32.9127 6.40948 32.67 6.63348 32.418 6.87615C32.166 7.10948 31.9327 7.32882 31.718 7.53415C31.5033 7.73015 31.3447 7.88882 31.242 8.01015C31.3073 8.00082 31.3913 8.00548 31.494 8.02415C31.606 8.03348 31.6993 8.05215 31.774 8.08015C32.0167 8.11748 32.2127 8.22015 32.362 8.38815C32.5207 8.55615 32.6467 8.78015 32.74 9.06015C32.7867 9.18148 32.8333 9.33082 32.88 9.50815C32.936 9.67615 32.9873 9.84882 33.034 10.0261C33.09 10.1941 33.1413 10.3481 33.188 10.4881C33.2627 10.7308 33.384 10.9129 33.552 11.0342C33.7293 11.1555 33.9767 11.2161 34.294 11.2161C34.63 11.2161 34.9613 11.2068 35.288 11.1881C35.6147 11.1601 35.9227 11.1228 36.212 11.0761C36.5013 11.0294 36.758 10.9828 36.982 10.9361L36.898 12.4061C36.702 12.4341 36.4407 12.4621 36.114 12.4901C35.7873 12.5274 35.4513 12.5555 35.106 12.5742C34.7607 12.6022 34.4667 12.6161 34.224 12.6161C33.6173 12.6161 33.132 12.5275 32.768 12.3502C32.404 12.1822 32.1427 11.8694 31.984 11.4121C31.9373 11.2721 31.886 11.1088 31.83 10.9221C31.774 10.7261 31.718 10.5348 31.662 10.3481C31.6153 10.1521 31.5733 9.99348 31.536 9.87215C31.452 9.62015 31.34 9.43815 31.2 9.32615C31.06 9.20482 30.9013 9.14415 30.724 9.14415C30.556 9.14415 30.388 9.19548 30.22 9.29815C30.0613 9.39148 29.9027 9.51748 29.744 9.67615C29.6413 9.77882 29.5107 9.91415 29.352 10.0821C29.1933 10.2408 29.016 10.4274 28.82 10.6421C28.6333 10.8474 28.4373 11.0668 28.232 11.3001C28.0267 11.5241 27.8213 11.7574 27.616 12.0001C27.4107 12.2334 27.224 12.4621 27.056 12.6861L25.726 11.7621C25.8287 11.6688 25.95 11.5614 26.09 11.4401C26.2393 11.3188 26.3933 11.1835 26.552 11.0342C26.6547 10.9222 26.8273 10.7448 27.07 10.5021C27.3127 10.2594 27.5973 9.97482 27.924 9.64815C28.2507 9.32148 28.596 8.97148 28.96 8.59815C29.3333 8.22482 29.702 7.85615 30.066 7.49215C30.4393 7.12815 30.7847 6.78748 31.102 6.47015C31.4193 6.14348 31.69 5.86348 31.914 5.63015C31.7087 5.63948 31.466 5.65348 31.186 5.67215C30.906 5.69082 30.612 5.71415 30.304 5.74215C30.0053 5.76082 29.7067 5.78415 29.408 5.81215C29.1187 5.84015 28.848 5.86348 28.596 5.88215C28.3533 5.90082 28.1433 5.91948 27.966 5.93815C27.7327 5.94748 27.518 5.96615 27.322 5.99415C27.1353 6.02215 26.9627 6.05015 26.804 6.07815L26.678 4.53815C26.8367 4.54748 27.0233 4.55682 27.238 4.56615C27.462 4.57548 27.6953 4.58015 27.938 4.58015C28.0873 4.57082 28.3207 4.56148 28.638 4.55215C28.9553 4.53348 29.3147 4.51482 29.716 4.49615C30.1267 4.46815 30.5373 4.44015 30.948 4.41215C31.368 4.38415 31.76 4.35615 32.124 4.32815C32.488 4.30015 32.782 4.27215 33.006 4.24415C33.1273 4.22548 33.258 4.20215 33.398 4.17415C33.5473 4.14615 33.6547 4.11815 33.72 4.09015L34.546 5.01415ZM44.024 2.07415C43.9773 1.91548 43.9213 1.73348 43.856 1.52815C43.7907 1.31348 43.716 1.09882 43.632 0.884149L45.144 0.702148C45.1907 1.01015 45.2607 1.34148 45.354 1.69615C45.4473 2.04148 45.55 2.38682 45.662 2.73215C45.774 3.07748 45.8813 3.40415 45.984 3.71215C46.1987 4.30015 46.46 4.88815 46.768 5.47615C47.0853 6.05482 47.3793 6.52615 47.65 6.89015C47.7527 7.03948 47.86 7.18415 47.972 7.32415C48.084 7.46415 48.2007 7.59482 48.322 7.71615L47.622 8.72415C47.4353 8.67748 47.1973 8.63548 46.908 8.59815C46.628 8.56082 46.32 8.52348 45.984 8.48615C45.6573 8.44882 45.326 8.41615 44.99 8.38815C44.6633 8.36015 44.3647 8.33215 44.094 8.30415L44.192 7.14215C44.444 7.16082 44.71 7.18415 44.99 7.21215C45.27 7.23082 45.536 7.25415 45.788 7.28215C46.04 7.30082 46.2453 7.31948 46.404 7.33815C46.2173 7.04882 46.0167 6.71748 45.802 6.34415C45.5967 5.97082 45.396 5.58348 45.2 5.18215C45.004 4.77148 44.8313 4.36082 44.682 3.95015C44.5327 3.55815 44.402 3.20348 44.29 2.88615C44.1873 2.56882 44.0987 2.29815 44.024 2.07415ZM38.914 2.97015C39.7353 3.06348 40.5193 3.12882 41.266 3.16615C42.0127 3.20348 42.7173 3.21282 43.38 3.19415C44.0427 3.17548 44.6447 3.13815 45.186 3.08215C45.578 3.03548 45.9793 2.97948 46.39 2.91415C46.8007 2.83948 47.2067 2.75548 47.608 2.66215C48.0187 2.56882 48.406 2.46148 48.77 2.34015L48.938 3.74015C48.6207 3.82415 48.2707 3.90815 47.888 3.99215C47.5147 4.06682 47.132 4.13682 46.74 4.20215C46.348 4.25815 45.9747 4.30948 45.62 4.35615C44.7147 4.45882 43.7067 4.51482 42.596 4.52415C41.4853 4.53348 40.2673 4.48682 38.942 4.38415L38.914 2.97015ZM41.364 7.56215C41.1493 7.89815 40.9813 8.22482 40.86 8.54215C40.748 8.85015 40.692 9.16748 40.692 9.49415C40.692 10.1195 40.9627 10.5768 41.504 10.8661C42.0547 11.1554 42.834 11.3048 43.842 11.3141C44.5793 11.3234 45.2513 11.2954 45.858 11.2301C46.4647 11.1648 47.0153 11.0808 47.51 10.9781L47.44 12.3781C47.02 12.4528 46.502 12.5229 45.886 12.5882C45.2793 12.6629 44.57 12.6954 43.758 12.6861C42.8433 12.6861 42.05 12.5695 41.378 12.3362C40.706 12.1122 40.188 11.7808 39.824 11.3421C39.46 10.8941 39.278 10.3482 39.278 9.70415C39.278 9.29348 39.3387 8.89215 39.46 8.50015C39.5907 8.10815 39.7633 7.69282 39.978 7.25415L41.364 7.56215ZM57.24 1.59815C57.1747 1.69148 57.1047 1.79882 57.03 1.92015C56.9553 2.03215 56.876 2.15348 56.792 2.28415C56.6333 2.52682 56.4467 2.83015 56.232 3.19415C56.0173 3.54882 55.7933 3.93148 55.56 4.34215C55.3267 4.75282 55.098 5.15882 54.874 5.56015C54.65 5.96148 54.454 6.32548 54.286 6.65215C54.5847 6.41882 54.8927 6.25082 55.21 6.14815C55.5367 6.03615 55.8493 5.98015 56.148 5.98015C56.6427 5.98015 57.0393 6.13415 57.338 6.44215C57.646 6.74082 57.814 7.17482 57.842 7.74415C57.8513 7.98682 57.856 8.26215 57.856 8.57015C57.856 8.86882 57.856 9.16282 57.856 9.45215C57.8653 9.74148 57.8793 9.99348 57.898 10.2081C57.9167 10.5348 58.024 10.7681 58.22 10.9081C58.4253 11.0388 58.6587 11.1041 58.92 11.1041C59.2747 11.1041 59.592 11.0062 59.872 10.8102C60.1613 10.6142 60.4133 10.3528 60.628 10.0261C60.852 9.69015 61.0387 9.32615 61.188 8.93415C61.3467 8.53282 61.4727 8.13148 61.566 7.73015L62.742 8.69615C62.4993 9.47082 62.196 10.1521 61.832 10.7401C61.468 11.3188 61.0293 11.7714 60.516 12.0981C60.0027 12.4341 59.396 12.6021 58.696 12.6021C58.192 12.6021 57.7813 12.5088 57.464 12.3221C57.156 12.1354 56.9273 11.9021 56.778 11.6221C56.638 11.3421 56.5587 11.0528 56.54 10.7541C56.5213 10.4834 56.5073 10.1941 56.498 9.88615C56.498 9.56882 56.4933 9.26082 56.484 8.96215C56.484 8.65415 56.4747 8.38815 56.456 8.16415C56.4467 7.88415 56.3627 7.66948 56.204 7.52015C56.0453 7.36148 55.8213 7.28215 55.532 7.28215C55.1867 7.28215 54.8507 7.38482 54.524 7.59015C54.2067 7.79548 53.9173 8.06615 53.656 8.40215C53.404 8.73815 53.1893 9.09282 53.012 9.46615C52.9093 9.67148 52.802 9.91882 52.69 10.2081C52.578 10.4881 52.466 10.7821 52.354 11.0901C52.2513 11.3888 52.158 11.6734 52.074 11.9441C51.99 12.2148 51.92 12.4388 51.864 12.6161L50.324 12.0981C50.5013 11.6221 50.7207 11.0854 50.982 10.4881C51.2433 9.88148 51.5327 9.24682 51.85 8.58415C52.1673 7.91215 52.4893 7.24948 52.816 6.59615C53.1427 5.94282 53.4553 5.32215 53.754 4.73415C54.0527 4.14615 54.3187 3.63282 54.552 3.19415C54.7853 2.75548 54.9627 2.42415 55.084 2.20015C55.1773 2.03215 55.2753 1.85015 55.378 1.65415C55.4807 1.44882 55.5787 1.22015 55.672 0.968148L57.24 1.59815Z" fill="#E22F61"/>
</g>
<defs>
<clipPath id="clip0_29294_26">
<rect width="63" height="13" fill="white"/>
</clipPath>
</defs>
</svg>
