<svg width="49" height="13" viewBox="0 0 49 13" fill="none" xmlns="http://www.w3.org/2000/svg">
<g clip-path="url(#clip0_29294_20)">
<path d="M4.65255 0.730469C4.63388 0.814469 4.61988 0.921802 4.61055 1.05247C4.60122 1.1738 4.58722 1.30447 4.56855 1.44447C4.55922 1.57514 4.54988 1.69647 4.54055 1.80847C4.53122 2.05114 4.51722 2.34047 4.49855 2.67647C4.48922 3.00314 4.47522 3.36247 4.45655 3.75447C4.44722 4.13714 4.43788 4.52447 4.42855 4.91647C4.42855 5.29914 4.42855 5.6678 4.42855 6.02247C4.42855 6.38647 4.43322 6.79247 4.44255 7.24047C4.45188 7.68847 4.46122 8.1318 4.47055 8.57047C4.47988 8.9998 4.48922 9.40114 4.49855 9.77447C4.50788 10.1385 4.51255 10.4278 4.51255 10.6425C4.51255 11.1372 4.45188 11.5245 4.33055 11.8045C4.21855 12.0845 4.05988 12.2805 3.85455 12.3925C3.65855 12.5045 3.42055 12.5605 3.14055 12.5605C2.84188 12.5605 2.51522 12.4952 2.16055 12.3645C1.80588 12.2338 1.46988 12.0565 1.15255 11.8325C0.835214 11.6085 0.573881 11.3472 0.368547 11.0485C0.163214 10.7498 0.0605469 10.4325 0.0605469 10.0965C0.0605469 9.66714 0.223881 9.24247 0.550547 8.82247C0.886547 8.39314 1.32522 8.00114 1.86655 7.64647C2.40788 7.2918 2.98188 7.00247 3.58855 6.77847C4.22322 6.54514 4.87188 6.3678 5.53455 6.24647C6.19722 6.12514 6.79922 6.06447 7.34055 6.06447C8.04055 6.06447 8.66588 6.18114 9.21655 6.41447C9.76722 6.6478 10.2012 6.9838 10.5185 7.42247C10.8359 7.86114 10.9945 8.37914 10.9945 8.97647C10.9945 9.52714 10.8825 10.0218 10.6585 10.4605C10.4439 10.8992 10.1125 11.2725 9.66455 11.5805C9.21655 11.8885 8.65189 12.1265 7.97055 12.2945C7.65322 12.3598 7.34055 12.4065 7.03255 12.4345C6.73388 12.4625 6.45388 12.4858 6.19255 12.5045L5.68855 11.0765C5.96855 11.0858 6.25322 11.0858 6.54255 11.0765C6.83188 11.0672 7.10722 11.0345 7.36855 10.9785C7.76055 10.9038 8.12455 10.7872 8.46055 10.6285C8.79655 10.4605 9.06254 10.2412 9.25854 9.97047C9.46388 9.69047 9.56655 9.35447 9.56655 8.96247C9.56655 8.59847 9.46854 8.29514 9.27254 8.05247C9.07654 7.80047 8.81055 7.60914 8.47455 7.47847C8.13855 7.3478 7.75589 7.28247 7.32655 7.28247C6.71989 7.28247 6.11789 7.3478 5.52055 7.47847C4.92322 7.5998 4.33522 7.77247 3.75655 7.99647C3.32722 8.16447 2.93522 8.36514 2.58055 8.59847C2.22588 8.8318 1.94588 9.07447 1.74055 9.32647C1.53522 9.56914 1.43255 9.80247 1.43255 10.0265C1.43255 10.1665 1.47922 10.3018 1.57255 10.4325C1.66588 10.5538 1.77788 10.6612 1.90855 10.7545C2.04855 10.8478 2.19322 10.9225 2.34255 10.9785C2.49188 11.0345 2.62722 11.0625 2.74855 11.0625C2.88855 11.0625 3.00055 11.0158 3.08455 10.9225C3.17788 10.8198 3.22455 10.6518 3.22455 10.4185C3.22455 10.1572 3.21522 9.78847 3.19655 9.31247C3.18722 8.83647 3.17788 8.3138 3.16855 7.74447C3.15922 7.1658 3.15455 6.61047 3.15455 6.07847C3.15455 5.67714 3.15455 5.2618 3.15455 4.83247C3.16388 4.3938 3.16855 3.9738 3.16855 3.57247C3.17788 3.17114 3.18255 2.81647 3.18255 2.50847C3.19188 2.20047 3.19655 1.97647 3.19655 1.83647C3.19655 1.7338 3.19188 1.61247 3.18255 1.47247C3.17322 1.33247 3.16388 1.19714 3.15455 1.06647C3.14522 0.926469 3.13122 0.814469 3.11255 0.730469H4.65255ZM8.83854 2.27047C9.18387 2.43847 9.56655 2.64847 9.98655 2.90047C10.4159 3.14314 10.8219 3.39047 11.2045 3.64247C11.5965 3.88514 11.9092 4.0998 12.1425 4.28647L11.4565 5.40647C11.2885 5.2478 11.0645 5.07514 10.7845 4.88847C10.5139 4.7018 10.2199 4.51047 9.90254 4.31447C9.59454 4.11847 9.29122 3.93647 8.99255 3.76847C8.70322 3.59114 8.44655 3.44647 8.22255 3.33447L8.83854 2.27047ZM0.354547 3.15247C0.755881 3.19914 1.10122 3.2318 1.39055 3.25047C1.67988 3.2598 1.95522 3.26447 2.21655 3.26447C2.56188 3.26447 2.95388 3.2458 3.39255 3.20847C3.83122 3.17114 4.27455 3.12447 4.72255 3.06847C5.17988 3.01247 5.62322 2.94247 6.05255 2.85847C6.49122 2.76514 6.88788 2.66714 7.24255 2.56447L7.27055 3.93647C6.89722 4.02047 6.48188 4.0998 6.02455 4.17447C5.57655 4.24914 5.11922 4.31914 4.65255 4.38447C4.19522 4.44047 3.75655 4.48714 3.33655 4.52447C2.92588 4.55247 2.56188 4.56647 2.24455 4.56647C1.82455 4.56647 1.46988 4.5618 1.18055 4.55247C0.891214 4.5338 0.629881 4.51514 0.396547 4.49647L0.354547 3.15247ZM22.8525 3.72647C22.6752 3.83847 22.4839 3.95047 22.2785 4.06247C22.0825 4.16514 21.8725 4.27247 21.6485 4.38447C21.4152 4.5058 21.1352 4.65047 20.8085 4.81847C20.4819 4.97714 20.1272 5.15447 19.7445 5.35047C19.3619 5.53714 18.9792 5.7378 18.5965 5.95247C18.2232 6.16714 17.8685 6.3818 17.5325 6.59647C16.9165 7.00714 16.4265 7.4318 16.0625 7.87047C15.6985 8.30914 15.5165 8.7898 15.5165 9.31247C15.5165 9.8538 15.7779 10.2785 16.3005 10.5865C16.8232 10.8945 17.6072 11.0485 18.6525 11.0485C19.1565 11.0485 19.6839 11.0298 20.2345 10.9925C20.7852 10.9458 21.3172 10.8852 21.8305 10.8105C22.3532 10.7358 22.8012 10.6472 23.1745 10.5445L23.1605 12.1405C22.7965 12.1965 22.3812 12.2525 21.9145 12.3085C21.4479 12.3645 20.9439 12.4065 20.4025 12.4345C19.8705 12.4625 19.3059 12.4765 18.7085 12.4765C18.0365 12.4765 17.4112 12.4252 16.8325 12.3225C16.2632 12.2198 15.7685 12.0518 15.3485 11.8185C14.9285 11.5852 14.6019 11.2772 14.3685 10.8945C14.1352 10.5025 14.0185 10.0265 14.0185 9.46647C14.0185 8.92514 14.1352 8.4258 14.3685 7.96847C14.6112 7.51114 14.9425 7.0818 15.3625 6.68047C15.7825 6.27914 16.2679 5.89647 16.8185 5.53247C17.1639 5.29914 17.5325 5.07047 17.9245 4.84647C18.3165 4.62247 18.6992 4.4078 19.0725 4.20247C19.4552 3.99714 19.8099 3.81047 20.1365 3.64247C20.4632 3.47447 20.7385 3.32514 20.9625 3.19447C21.1865 3.0638 21.3872 2.94247 21.5645 2.83047C21.7512 2.71847 21.9239 2.59247 22.0825 2.45247L22.8525 3.72647ZM15.7825 0.99647C16.0065 1.5938 16.2445 2.1818 16.4965 2.76047C16.7485 3.3298 17.0005 3.8618 17.2525 4.35647C17.5139 4.85114 17.7519 5.2898 17.9665 5.67247L16.7345 6.40047C16.4919 5.99914 16.2399 5.53714 15.9785 5.01447C15.7172 4.48247 15.4512 3.92247 15.1805 3.33447C14.9099 2.74647 14.6485 2.15847 14.3965 1.57047L15.7825 0.99647ZM33.8145 7.38047C33.8145 7.01647 33.7212 6.69447 33.5345 6.41447C33.3572 6.13447 33.1005 5.91514 32.7645 5.75647C32.4285 5.58847 32.0319 5.50447 31.5745 5.50447C31.0425 5.50447 30.5385 5.54647 30.0625 5.63047C29.5959 5.71447 29.1712 5.81247 28.7885 5.92447C28.4059 6.03647 28.0839 6.1298 27.8225 6.20447C27.6172 6.26047 27.4025 6.33047 27.1785 6.41447C26.9545 6.49847 26.7539 6.5778 26.5765 6.65247L26.1425 5.05647C26.3572 5.0378 26.5859 5.0098 26.8285 4.97247C27.0805 4.9258 27.3139 4.87914 27.5285 4.83247C27.8739 4.74847 28.2659 4.6598 28.7045 4.56647C29.1525 4.4638 29.6332 4.37514 30.1465 4.30047C30.6692 4.21647 31.2012 4.17447 31.7425 4.17447C32.4425 4.17447 33.0632 4.30047 33.6045 4.55247C34.1459 4.80447 34.5705 5.17314 34.8785 5.65847C35.1865 6.1438 35.3405 6.73647 35.3405 7.43647C35.3405 8.19247 35.1772 8.86914 34.8505 9.46647C34.5332 10.0638 34.0805 10.5865 33.4925 11.0345C32.9139 11.4732 32.2279 11.8372 31.4345 12.1265C30.6412 12.4158 29.7779 12.6305 28.8445 12.7705L28.0465 11.4125C28.9052 11.3098 29.6845 11.1512 30.3845 10.9365C31.0939 10.7218 31.7052 10.4512 32.2185 10.1245C32.7319 9.7978 33.1239 9.4058 33.3945 8.94847C33.6745 8.49114 33.8145 7.96847 33.8145 7.38047ZM28.0885 0.88447C28.4899 0.96847 28.9612 1.05247 29.5025 1.13647C30.0532 1.21114 30.6225 1.27647 31.2105 1.33247C31.7985 1.38847 32.3539 1.43514 32.8765 1.47247C33.3992 1.5098 33.8379 1.52847 34.1925 1.52847L33.9685 2.88647C33.5765 2.85847 33.1145 2.8258 32.5825 2.78847C32.0505 2.7418 31.4952 2.69047 30.9165 2.63447C30.3472 2.56914 29.7965 2.5038 29.2645 2.43847C28.7419 2.3638 28.2799 2.2938 27.8785 2.22847L28.0885 0.88447ZM48.0525 3.72647C47.8752 3.83847 47.6839 3.95047 47.4785 4.06247C47.2825 4.16514 47.0725 4.27247 46.8485 4.38447C46.6152 4.5058 46.3352 4.65047 46.0085 4.81847C45.6819 4.97714 45.3272 5.15447 44.9445 5.35047C44.5619 5.53714 44.1792 5.7378 43.7965 5.95247C43.4232 6.16714 43.0685 6.3818 42.7325 6.59647C42.1165 7.00714 41.6265 7.4318 41.2625 7.87047C40.8985 8.30914 40.7165 8.7898 40.7165 9.31247C40.7165 9.8538 40.9779 10.2785 41.5005 10.5865C42.0232 10.8945 42.8072 11.0485 43.8525 11.0485C44.3565 11.0485 44.8839 11.0298 45.4345 10.9925C45.9852 10.9458 46.5172 10.8852 47.0305 10.8105C47.5532 10.7358 48.0012 10.6472 48.3745 10.5445L48.3605 12.1405C47.9965 12.1965 47.5812 12.2525 47.1145 12.3085C46.6479 12.3645 46.1439 12.4065 45.6025 12.4345C45.0705 12.4625 44.5059 12.4765 43.9085 12.4765C43.2365 12.4765 42.6112 12.4252 42.0325 12.3225C41.4632 12.2198 40.9685 12.0518 40.5485 11.8185C40.1285 11.5852 39.8019 11.2772 39.5685 10.8945C39.3352 10.5025 39.2185 10.0265 39.2185 9.46647C39.2185 8.92514 39.3352 8.4258 39.5685 7.96847C39.8112 7.51114 40.1425 7.0818 40.5625 6.68047C40.9825 6.27914 41.4679 5.89647 42.0185 5.53247C42.3639 5.29914 42.7325 5.07047 43.1245 4.84647C43.5165 4.62247 43.8992 4.4078 44.2725 4.20247C44.6552 3.99714 45.0099 3.81047 45.3365 3.64247C45.6632 3.47447 45.9385 3.32514 46.1625 3.19447C46.3865 3.0638 46.5872 2.94247 46.7645 2.83047C46.9512 2.71847 47.1239 2.59247 47.2825 2.45247L48.0525 3.72647ZM40.9825 0.99647C41.2065 1.5938 41.4445 2.1818 41.6965 2.76047C41.9485 3.3298 42.2005 3.8618 42.4525 4.35647C42.7139 4.85114 42.9519 5.2898 43.1665 5.67247L41.9345 6.40047C41.6919 5.99914 41.4399 5.53714 41.1785 5.01447C40.9172 4.48247 40.6512 3.92247 40.3805 3.33447C40.1099 2.74647 39.8485 2.15847 39.5965 1.57047L40.9825 0.99647Z" fill="#E22F61"/>
</g>
<defs>
<clipPath id="clip0_29294_20">
<rect width="49" height="13" fill="white"/>
</clipPath>
</defs>
</svg>
