<svg width="73" height="13" viewBox="0 0 73 13" fill="none" xmlns="http://www.w3.org/2000/svg">
<path d="M2.53053 2.13C2.50253 2.26067 2.4792 2.41933 2.46053 2.606C2.44186 2.79267 2.4232 2.97933 2.40453 3.166C2.3952 3.35267 2.39053 3.51133 2.39053 3.642C2.39053 3.93133 2.39053 4.25333 2.39053 4.608C2.39986 4.96267 2.4092 5.32667 2.41853 5.7C2.42786 6.064 2.4512 6.428 2.48853 6.792C2.5632 7.52933 2.6752 8.17333 2.82453 8.724C2.97386 9.27467 3.1652 9.704 3.39853 10.012C3.63186 10.32 3.90253 10.474 4.21053 10.474C4.38786 10.474 4.55586 10.39 4.71453 10.222C4.8732 10.054 5.02253 9.83 5.16253 9.55C5.30253 9.27 5.42853 8.96667 5.54053 8.64C5.66186 8.304 5.76453 7.982 5.84853 7.674L6.95453 8.976C6.65586 9.76933 6.3572 10.404 6.05853 10.88C5.7692 11.3467 5.47053 11.6827 5.16253 11.888C4.85453 12.0933 4.52786 12.196 4.18253 12.196C3.71586 12.196 3.26786 12.0373 2.83853 11.72C2.41853 11.3933 2.05453 10.8613 1.74653 10.124C1.43853 9.38667 1.2192 8.402 1.08853 7.17C1.04186 6.75933 1.00453 6.316 0.976531 5.84C0.957865 5.364 0.943865 4.91133 0.934531 4.482C0.934531 4.05267 0.934531 3.698 0.934531 3.418C0.934531 3.24067 0.925198 3.026 0.906531 2.774C0.897198 2.51267 0.869198 2.28867 0.822531 2.102L2.53053 2.13ZM9.69853 2.48C9.95053 2.80667 10.1932 3.18933 10.4265 3.628C10.6692 4.05733 10.8885 4.524 11.0845 5.028C11.2805 5.532 11.4532 6.04533 11.6025 6.568C11.7612 7.09067 11.8919 7.60867 11.9945 8.122C12.0972 8.63533 12.1672 9.12067 12.2045 9.578L10.7625 10.138C10.7065 9.53133 10.6132 8.89667 10.4825 8.234C10.3519 7.57133 10.1839 6.918 9.97853 6.274C9.7732 5.62067 9.53053 5.00933 9.25053 4.44C8.97987 3.86133 8.6672 3.362 8.31253 2.942L9.69853 2.48ZM17.5805 0.897999C17.5339 1.11267 17.4919 1.30867 17.4545 1.486C17.4265 1.66333 17.3985 1.836 17.3705 2.004C17.3425 2.23733 17.3005 2.54533 17.2445 2.928C17.1979 3.30133 17.1419 3.72133 17.0765 4.188C17.0112 4.65467 16.9505 5.13533 16.8945 5.63C16.8385 6.12467 16.7825 6.61 16.7265 7.086C16.6705 7.55267 16.6285 7.982 16.6005 8.374C16.5725 8.75667 16.5585 9.06933 16.5585 9.312C16.5585 9.94667 16.7405 10.4413 17.1045 10.796C17.4779 11.1507 18.0425 11.328 18.7985 11.328C19.4799 11.328 20.0632 11.2347 20.5485 11.048C21.0432 10.8613 21.4212 10.6 21.6825 10.264C21.9439 9.928 22.0745 9.54067 22.0745 9.102C22.0745 8.626 21.9485 8.15 21.6965 7.674C21.4539 7.198 21.0852 6.74067 20.5905 6.302L22.1445 5.98C22.6112 6.53067 22.9612 7.06733 23.1945 7.59C23.4279 8.10333 23.5445 8.66333 23.5445 9.27C23.5445 9.96067 23.3439 10.5673 22.9425 11.09C22.5505 11.6127 21.9999 12.0187 21.2905 12.308C20.5812 12.5973 19.7412 12.742 18.7705 12.742C18.0892 12.742 17.4779 12.6347 16.9365 12.42C16.3952 12.2053 15.9659 11.8647 15.6485 11.398C15.3405 10.9313 15.1865 10.3107 15.1865 9.536C15.1865 9.24667 15.2099 8.85933 15.2565 8.374C15.3032 7.88867 15.3592 7.35667 15.4245 6.778C15.4992 6.19933 15.5739 5.61133 15.6485 5.014C15.7325 4.40733 15.8025 3.838 15.8585 3.306C15.9239 2.76467 15.9705 2.30267 15.9985 1.92C16.0265 1.64 16.0405 1.42067 16.0405 1.262C16.0405 1.10333 16.0312 0.954 16.0125 0.814L17.5805 0.897999ZM12.8765 2.704C13.2779 2.83467 13.7212 2.942 14.2065 3.026C14.6919 3.11 15.1865 3.17533 15.6905 3.222C16.1945 3.25933 16.6659 3.278 17.1045 3.278C17.6459 3.278 18.1545 3.264 18.6305 3.236C19.1065 3.19867 19.5359 3.152 19.9185 3.096L19.8765 4.412C19.4379 4.44933 19.0039 4.482 18.5745 4.51C18.1452 4.538 17.6412 4.552 17.0625 4.552C16.6332 4.552 16.1665 4.52867 15.6625 4.482C15.1679 4.43533 14.6732 4.37 14.1785 4.286C13.6839 4.19267 13.2265 4.09467 12.8065 3.992L12.8765 2.704ZM12.5545 6.19C13.0305 6.34867 13.5205 6.47467 14.0245 6.568C14.5285 6.66133 15.0279 6.72667 15.5225 6.764C16.0265 6.792 16.5025 6.806 16.9505 6.806C17.4079 6.806 17.8792 6.792 18.3645 6.764C18.8592 6.736 19.3445 6.694 19.8205 6.638L19.7785 7.954C19.3492 8.00067 18.9199 8.038 18.4905 8.066C18.0612 8.08467 17.6179 8.094 17.1605 8.094C16.3205 8.094 15.4899 8.04733 14.6685 7.954C13.8472 7.85133 13.1192 7.71133 12.4845 7.534L12.5545 6.19ZM32.7107 7.38C32.7107 7.016 32.6174 6.694 32.4307 6.414C32.2534 6.134 31.9967 5.91467 31.6607 5.756C31.3247 5.588 30.928 5.504 30.4707 5.504C29.9387 5.504 29.4347 5.546 28.9587 5.63C28.492 5.714 28.0674 5.812 27.6847 5.924C27.302 6.036 26.98 6.12933 26.7187 6.204C26.5134 6.26 26.2987 6.33 26.0747 6.414C25.8507 6.498 25.65 6.57733 25.4727 6.652L25.0387 5.056C25.2534 5.03733 25.482 5.00933 25.7247 4.972C25.9767 4.92533 26.21 4.87867 26.4247 4.832C26.77 4.748 27.162 4.65933 27.6007 4.566C28.0487 4.46333 28.5294 4.37467 29.0427 4.3C29.5654 4.216 30.0974 4.174 30.6387 4.174C31.3387 4.174 31.9594 4.3 32.5007 4.552C33.042 4.804 33.4667 5.17267 33.7747 5.658C34.0827 6.14333 34.2367 6.736 34.2367 7.436C34.2367 8.192 34.0734 8.86867 33.7467 9.466C33.4294 10.0633 32.9767 10.586 32.3887 11.034C31.81 11.4727 31.124 11.8367 30.3307 12.126C29.5374 12.4153 28.674 12.63 27.7407 12.77L26.9427 11.412C27.8014 11.3093 28.5807 11.1507 29.2807 10.936C29.99 10.7213 30.6014 10.4507 31.1147 10.124C31.628 9.79733 32.02 9.40533 32.2907 8.948C32.5707 8.49067 32.7107 7.968 32.7107 7.38ZM26.9847 0.884C27.386 0.968 27.8574 1.052 28.3987 1.136C28.9494 1.21067 29.5187 1.276 30.1067 1.332C30.6947 1.388 31.25 1.43467 31.7727 1.472C32.2954 1.50933 32.734 1.528 33.0887 1.528L32.8647 2.886C32.4727 2.858 32.0107 2.82533 31.4787 2.788C30.9467 2.74133 30.3914 2.69 29.8127 2.634C29.2434 2.56867 28.6927 2.50333 28.1607 2.438C27.638 2.36333 27.176 2.29333 26.7747 2.228L26.9847 0.884ZM46.3887 3.726C46.2114 3.838 46.02 3.95 45.8147 4.062C45.6187 4.16467 45.4087 4.272 45.1847 4.384C44.9514 4.50533 44.6714 4.65 44.3447 4.818C44.018 4.97667 43.6634 5.154 43.2807 5.35C42.898 5.53667 42.5154 5.73733 42.1327 5.952C41.7594 6.16667 41.4047 6.38133 41.0687 6.596C40.4527 7.00667 39.9627 7.43133 39.5987 7.87C39.2347 8.30867 39.0527 8.78933 39.0527 9.312C39.0527 9.85333 39.314 10.278 39.8367 10.586C40.3594 10.894 41.1434 11.048 42.1887 11.048C42.6927 11.048 43.22 11.0293 43.7707 10.992C44.3214 10.9453 44.8534 10.8847 45.3667 10.81C45.8894 10.7353 46.3374 10.6467 46.7107 10.544L46.6967 12.14C46.3327 12.196 45.9174 12.252 45.4507 12.308C44.984 12.364 44.48 12.406 43.9387 12.434C43.4067 12.462 42.842 12.476 42.2447 12.476C41.5727 12.476 40.9474 12.4247 40.3687 12.322C39.7994 12.2193 39.3047 12.0513 38.8847 11.818C38.4647 11.5847 38.138 11.2767 37.9047 10.894C37.6714 10.502 37.5547 10.026 37.5547 9.466C37.5547 8.92467 37.6714 8.42533 37.9047 7.968C38.1474 7.51067 38.4787 7.08133 38.8987 6.68C39.3187 6.27867 39.804 5.896 40.3547 5.532C40.7 5.29867 41.0687 5.07 41.4607 4.846C41.8527 4.622 42.2354 4.40733 42.6087 4.202C42.9914 3.99667 43.346 3.81 43.6727 3.642C43.9994 3.474 44.2747 3.32467 44.4987 3.194C44.7227 3.06333 44.9234 2.942 45.1007 2.83C45.2874 2.718 45.46 2.592 45.6187 2.452L46.3887 3.726ZM39.3187 0.996C39.5427 1.59333 39.7807 2.18133 40.0327 2.76C40.2847 3.32933 40.5367 3.86133 40.7887 4.356C41.05 4.85067 41.288 5.28933 41.5027 5.672L40.2707 6.4C40.028 5.99867 39.776 5.53667 39.5147 5.014C39.2534 4.482 38.9874 3.922 38.7167 3.334C38.446 2.746 38.1847 2.158 37.9327 1.57L39.3187 0.996ZM54.1447 2.074C54.098 1.91533 54.042 1.73333 53.9767 1.528C53.9114 1.31333 53.8367 1.09867 53.7527 0.884L55.2647 0.701999C55.3114 1.01 55.3814 1.34133 55.4747 1.696C55.568 2.04133 55.6707 2.38667 55.7827 2.732C55.8947 3.07733 56.002 3.404 56.1047 3.712C56.3194 4.3 56.5807 4.888 56.8887 5.476C57.206 6.05467 57.5 6.526 57.7707 6.89C57.8734 7.03933 57.9807 7.184 58.0927 7.324C58.2047 7.464 58.3214 7.59467 58.4427 7.716L57.7427 8.724C57.556 8.67733 57.318 8.63533 57.0287 8.598C56.7487 8.56067 56.4407 8.52333 56.1047 8.486C55.778 8.44867 55.4467 8.416 55.1107 8.388C54.784 8.36 54.4854 8.332 54.2147 8.304L54.3127 7.142C54.5647 7.16067 54.8307 7.184 55.1107 7.212C55.3907 7.23067 55.6567 7.254 55.9087 7.282C56.1607 7.30067 56.366 7.31933 56.5247 7.338C56.338 7.04867 56.1374 6.71733 55.9227 6.344C55.7174 5.97067 55.5167 5.58333 55.3207 5.182C55.1247 4.77133 54.952 4.36067 54.8027 3.95C54.6534 3.558 54.5227 3.20333 54.4107 2.886C54.308 2.56867 54.2194 2.298 54.1447 2.074ZM49.0347 2.97C49.856 3.06333 50.64 3.12867 51.3867 3.166C52.1334 3.20333 52.838 3.21267 53.5007 3.194C54.1634 3.17533 54.7654 3.138 55.3067 3.082C55.6987 3.03533 56.1 2.97933 56.5107 2.914C56.9214 2.83933 57.3274 2.75533 57.7287 2.662C58.1394 2.56867 58.5267 2.46133 58.8907 2.34L59.0587 3.74C58.7414 3.824 58.3914 3.908 58.0087 3.992C57.6354 4.06667 57.2527 4.13667 56.8607 4.202C56.4687 4.258 56.0954 4.30933 55.7407 4.356C54.8354 4.45867 53.8274 4.51467 52.7167 4.524C51.606 4.53333 50.388 4.48667 49.0627 4.384L49.0347 2.97ZM51.4847 7.562C51.27 7.898 51.102 8.22467 50.9807 8.542C50.8687 8.85 50.8127 9.16733 50.8127 9.494C50.8127 10.1193 51.0834 10.5767 51.6247 10.866C52.1754 11.1553 52.9547 11.3047 53.9627 11.314C54.7 11.3233 55.372 11.2953 55.9787 11.23C56.5854 11.1647 57.136 11.0807 57.6307 10.978L57.5607 12.378C57.1407 12.4527 56.6227 12.5227 56.0067 12.588C55.4 12.6627 54.6907 12.6953 53.8787 12.686C52.964 12.686 52.1707 12.5693 51.4987 12.336C50.8267 12.112 50.3087 11.7807 49.9447 11.342C49.5807 10.894 49.3987 10.348 49.3987 9.704C49.3987 9.29333 49.4594 8.892 49.5807 8.5C49.7114 8.108 49.884 7.69267 50.0987 7.254L51.4847 7.562ZM66.8007 1.598C66.7354 1.69133 66.6654 1.79867 66.5907 1.92C66.516 2.032 66.4367 2.15333 66.3527 2.284C66.194 2.52667 66.0074 2.83 65.7927 3.194C65.578 3.54867 65.354 3.93133 65.1207 4.342C64.8874 4.75267 64.6587 5.15867 64.4347 5.56C64.2107 5.96133 64.0147 6.32533 63.8467 6.652C64.1454 6.41867 64.4534 6.25067 64.7707 6.148C65.0974 6.036 65.41 5.98 65.7087 5.98C66.2034 5.98 66.6 6.134 66.8987 6.442C67.2067 6.74067 67.3747 7.17467 67.4027 7.744C67.412 7.98667 67.4167 8.262 67.4167 8.57C67.4167 8.86867 67.4167 9.16267 67.4167 9.452C67.426 9.74133 67.44 9.99333 67.4587 10.208C67.4774 10.5347 67.5847 10.768 67.7807 10.908C67.986 11.0387 68.2194 11.104 68.4807 11.104C68.8354 11.104 69.1527 11.006 69.4327 10.81C69.722 10.614 69.974 10.3527 70.1887 10.026C70.4127 9.69 70.5994 9.326 70.7487 8.934C70.9074 8.53267 71.0334 8.13133 71.1267 7.73L72.3027 8.696C72.06 9.47067 71.7567 10.152 71.3927 10.74C71.0287 11.3187 70.59 11.7713 70.0767 12.098C69.5634 12.434 68.9567 12.602 68.2567 12.602C67.7527 12.602 67.342 12.5087 67.0247 12.322C66.7167 12.1353 66.488 11.902 66.3387 11.622C66.1987 11.342 66.1194 11.0527 66.1007 10.754C66.082 10.4833 66.068 10.194 66.0587 9.886C66.0587 9.56867 66.054 9.26067 66.0447 8.962C66.0447 8.654 66.0354 8.388 66.0167 8.164C66.0074 7.884 65.9234 7.66933 65.7647 7.52C65.606 7.36133 65.382 7.282 65.0927 7.282C64.7474 7.282 64.4114 7.38467 64.0847 7.59C63.7674 7.79533 63.478 8.066 63.2167 8.402C62.9647 8.738 62.75 9.09267 62.5727 9.466C62.47 9.67133 62.3627 9.91867 62.2507 10.208C62.1387 10.488 62.0267 10.782 61.9147 11.09C61.812 11.3887 61.7187 11.6733 61.6347 11.944C61.5507 12.2147 61.4807 12.4387 61.4247 12.616L59.8847 12.098C60.062 11.622 60.2814 11.0853 60.5427 10.488C60.804 9.88133 61.0934 9.24667 61.4107 8.584C61.728 7.912 62.05 7.24933 62.3767 6.596C62.7034 5.94267 63.016 5.322 63.3147 4.734C63.6134 4.146 63.8794 3.63267 64.1127 3.194C64.346 2.75533 64.5234 2.424 64.6447 2.2C64.738 2.032 64.836 1.85 64.9387 1.654C65.0414 1.44867 65.1394 1.22 65.2327 0.967999L66.8007 1.598Z" fill="black"/>
</svg>
