<svg width="27" height="13" viewBox="0 0 27 13" fill="none" xmlns="http://www.w3.org/2000/svg">
<path d="M5.748 0.841999C5.72 0.944666 5.68733 1.05667 5.65 1.178C5.622 1.29933 5.59867 1.41133 5.58 1.514C5.496 1.92467 5.41667 2.41933 5.342 2.998C5.26733 3.56733 5.20667 4.174 5.16 4.818C5.11333 5.462 5.09 6.092 5.09 6.708C5.09 7.37067 5.12733 7.996 5.202 8.584C5.286 9.172 5.39333 9.72267 5.524 10.236C5.65467 10.7493 5.79467 11.2347 5.944 11.692L4.67 12.07C4.53 11.65 4.39467 11.16 4.264 10.6C4.14267 10.0307 4.04467 9.42867 3.97 8.794C3.89533 8.15933 3.858 7.52467 3.858 6.89C3.858 6.42333 3.872 5.94267 3.9 5.448C3.928 4.95333 3.96067 4.47267 3.998 4.006C4.04467 3.53 4.09133 3.082 4.138 2.662C4.194 2.242 4.236 1.86867 4.264 1.542C4.28267 1.42067 4.292 1.29 4.292 1.15C4.30133 1.01 4.306 0.893333 4.306 0.8L5.748 0.841999ZM3.396 2.48C4.24533 2.48 5.06667 2.46133 5.86 2.424C6.65333 2.37733 7.414 2.30733 8.142 2.214C8.87933 2.12067 9.584 1.99467 10.256 1.836L10.27 3.138C9.77533 3.222 9.23867 3.30133 8.66 3.376C8.08133 3.44133 7.484 3.49733 6.868 3.544C6.252 3.59067 5.64067 3.628 5.034 3.656C4.43667 3.684 3.87667 3.698 3.354 3.698C3.13933 3.698 2.88733 3.69333 2.598 3.684C2.30867 3.66533 2.01933 3.65133 1.73 3.642C1.45 3.62333 1.20733 3.60933 1.002 3.6L0.96 2.298C1.128 2.326 1.35667 2.354 1.646 2.382C1.94467 2.41 2.25267 2.43333 2.57 2.452C2.88733 2.47067 3.16267 2.48 3.396 2.48ZM9.318 4.3C9.29 4.37467 9.25267 4.47267 9.206 4.594C9.16867 4.71533 9.12667 4.83667 9.08 4.958C9.04267 5.07933 9.00533 5.182 8.968 5.266C8.69733 6.12467 8.366 6.90867 7.974 7.618C7.59133 8.318 7.17133 8.93867 6.714 9.48C6.266 10.012 5.804 10.4553 5.328 10.81C4.88 11.1553 4.376 11.4493 3.816 11.692C3.26533 11.9347 2.71933 12.056 2.178 12.056C1.86067 12.056 1.56667 11.9907 1.296 11.86C1.02533 11.7293 0.810667 11.524 0.652 11.244C0.493333 10.964 0.414 10.6093 0.414 10.18C0.414 9.69467 0.516667 9.214 0.722 8.738C0.927333 8.262 1.20733 7.80933 1.562 7.38C1.926 6.95067 2.346 6.568 2.822 6.232C3.298 5.896 3.802 5.62533 4.334 5.42C4.80067 5.252 5.3 5.11667 5.832 5.014C6.37333 4.91133 6.88667 4.86 7.372 4.86C8.25867 4.86 9.02867 5.01867 9.682 5.336C10.3447 5.644 10.858 6.06867 11.222 6.61C11.5953 7.15133 11.782 7.76267 11.782 8.444C11.782 8.948 11.698 9.43333 11.53 9.9C11.3713 10.3573 11.11 10.782 10.746 11.174C10.382 11.5567 9.906 11.888 9.318 12.168C8.73933 12.448 8.03467 12.6533 7.204 12.784L6.448 11.622C7.316 11.5287 8.044 11.328 8.632 11.02C9.22 10.712 9.66333 10.3293 9.962 9.872C10.27 9.41467 10.424 8.92 10.424 8.388C10.424 7.94933 10.3027 7.55267 10.06 7.198C9.82667 6.834 9.47667 6.54 9.01 6.316C8.55267 6.092 7.988 5.98 7.316 5.98C6.70933 5.98 6.154 6.05467 5.65 6.204C5.15533 6.344 4.73533 6.49333 4.39 6.652C3.886 6.876 3.43333 7.17467 3.032 7.548C2.63067 7.912 2.31333 8.304 2.08 8.724C1.84667 9.144 1.73 9.54533 1.73 9.928C1.73 10.1893 1.79067 10.3853 1.912 10.516C2.04267 10.6467 2.22933 10.712 2.472 10.712C2.808 10.712 3.19533 10.6093 3.634 10.404C4.07267 10.1987 4.51133 9.89533 4.95 9.494C5.52867 8.98067 6.06533 8.36 6.56 7.632C7.064 6.904 7.46533 6.008 7.764 4.944C7.792 4.86 7.81533 4.762 7.834 4.65C7.862 4.52867 7.88533 4.40733 7.904 4.286C7.92267 4.15533 7.93667 4.048 7.946 3.964L9.318 4.3ZM25.544 11.608C25.1333 11.1227 24.7133 10.7027 24.284 10.348C23.8547 9.984 23.4113 9.704 22.954 9.508C22.4967 9.312 22.0207 9.214 21.526 9.214C21.3113 9.214 21.106 9.25133 20.91 9.326C20.7233 9.39133 20.5693 9.48933 20.448 9.62C20.3267 9.74133 20.266 9.89533 20.266 10.082C20.266 10.4087 20.3967 10.6467 20.658 10.796C20.9193 10.936 21.2273 11.006 21.582 11.006C21.9833 11.006 22.3147 10.8987 22.576 10.684C22.8373 10.46 23.0427 10.152 23.192 9.76C23.3413 9.368 23.444 8.91067 23.5 8.388C23.5653 7.856 23.598 7.29133 23.598 6.694C23.598 6.14333 23.514 5.66733 23.346 5.266C23.1873 4.85533 22.968 4.538 22.688 4.314C22.408 4.09 22.0767 3.978 21.694 3.978C21.3207 3.978 20.9287 4.076 20.518 4.272C20.1073 4.45867 19.692 4.706 19.272 5.014C18.852 5.322 18.4507 5.658 18.068 6.022C17.6853 6.386 17.3447 6.75 17.046 7.114L17.074 5.448C17.3633 5.168 17.6947 4.874 18.068 4.566C18.4413 4.24867 18.8427 3.95 19.272 3.67C19.7013 3.39 20.14 3.166 20.588 2.998C21.0453 2.82067 21.4933 2.732 21.932 2.732C22.576 2.732 23.122 2.90467 23.57 3.25C24.018 3.59533 24.3587 4.076 24.592 4.692C24.8253 5.308 24.942 6.01733 24.942 6.82C24.942 7.64133 24.8907 8.38333 24.788 9.046C24.6853 9.70867 24.508 10.2827 24.256 10.768C24.0133 11.244 23.6773 11.6127 23.248 11.874C22.828 12.126 22.3007 12.252 21.666 12.252C21.19 12.252 20.7513 12.1773 20.35 12.028C19.958 11.888 19.6453 11.664 19.412 11.356C19.1787 11.0387 19.062 10.6327 19.062 10.138C19.062 9.746 19.1693 9.396 19.384 9.088C19.608 8.78 19.9113 8.542 20.294 8.374C20.686 8.19667 21.1387 8.108 21.652 8.108C22.5013 8.108 23.2993 8.304 24.046 8.696C24.802 9.07867 25.5487 9.66667 26.286 10.46L25.544 11.608ZM16.696 4.412C16.5747 4.42133 16.3973 4.44467 16.164 4.482C15.9307 4.51 15.674 4.54267 15.394 4.58C15.114 4.608 14.8293 4.64533 14.54 4.692C14.26 4.72933 13.994 4.762 13.742 4.79L13.602 3.362C13.7793 3.37133 13.9473 3.376 14.106 3.376C14.2647 3.36667 14.4467 3.35733 14.652 3.348C14.8573 3.33867 15.1047 3.32 15.394 3.292C15.6927 3.25467 16.0007 3.21267 16.318 3.166C16.6353 3.11933 16.934 3.07267 17.214 3.026C17.494 2.97 17.7133 2.914 17.872 2.858L18.348 3.446C18.264 3.558 18.166 3.698 18.054 3.866C17.9513 4.034 17.844 4.202 17.732 4.37C17.6293 4.538 17.5407 4.68733 17.466 4.818L16.864 7.03C16.7053 7.27267 16.5093 7.562 16.276 7.898C16.052 8.22467 15.814 8.57467 15.562 8.948C15.31 9.32133 15.058 9.68533 14.806 10.04C14.5633 10.3947 14.3393 10.712 14.134 10.992L13.266 9.788C13.4433 9.57333 13.6487 9.312 13.882 9.004C14.1153 8.696 14.3627 8.36933 14.624 8.024C14.8853 7.66933 15.1373 7.324 15.38 6.988C15.632 6.64267 15.8607 6.32067 16.066 6.022C16.2713 5.72333 16.4347 5.476 16.556 5.28L16.598 4.72L16.696 4.412ZM16.556 1.92C16.556 1.74267 16.556 1.556 16.556 1.36C16.556 1.164 16.5373 0.972666 16.5 0.785999L18.124 0.841999C18.0867 1.038 18.04 1.33667 17.984 1.738C17.928 2.13933 17.8673 2.606 17.802 3.138C17.746 3.67 17.69 4.23 17.634 4.818C17.5873 5.406 17.55 5.98933 17.522 6.568C17.494 7.14667 17.48 7.68333 17.48 8.178C17.48 8.57933 17.48 8.96667 17.48 9.34C17.48 9.71333 17.4847 10.0867 17.494 10.46C17.5127 10.8333 17.5313 11.2347 17.55 11.664C17.5593 11.7853 17.5687 11.9347 17.578 12.112C17.5967 12.2987 17.6107 12.4667 17.62 12.616H16.108C16.1173 12.4947 16.1267 12.336 16.136 12.14C16.1453 11.9533 16.15 11.804 16.15 11.692C16.15 11.244 16.15 10.838 16.15 10.474C16.1593 10.1007 16.164 9.718 16.164 9.326C16.1733 8.92467 16.1873 8.45333 16.206 7.912C16.206 7.69733 16.2153 7.41733 16.234 7.072C16.2527 6.72667 16.276 6.344 16.304 5.924C16.332 5.504 16.36 5.07933 16.388 4.65C16.416 4.22067 16.4393 3.81467 16.458 3.432C16.486 3.04933 16.5093 2.72267 16.528 2.452C16.5467 2.18133 16.556 2.004 16.556 1.92Z" fill="black"/>
</svg>
