<svg width="52" height="13" viewBox="0 0 52 13" fill="none" xmlns="http://www.w3.org/2000/svg">
<path d="M0.7 6.68C0.7 5.812 0.863333 4.99533 1.19 4.23C1.51667 3.46467 1.96467 2.79733 2.534 2.228C3.11267 1.64933 3.78467 1.19667 4.55 0.87C5.31533 0.543333 6.132 0.379999 7 0.379999C7.868 0.379999 8.68467 0.543333 9.45 0.87C10.2153 1.19667 10.8827 1.64933 11.452 2.228C12.0307 2.79733 12.4833 3.46467 12.81 4.23C13.1367 4.99533 13.3 5.812 13.3 6.68C13.3 7.548 13.1367 8.36467 12.81 9.13C12.4833 9.89533 12.0307 10.5673 11.452 11.146C10.8827 11.7153 10.2153 12.1633 9.45 12.49C8.68467 12.8167 7.868 12.98 7 12.98C6.132 12.98 5.31533 12.8167 4.55 12.49C3.78467 12.1633 3.11267 11.7153 2.534 11.146C1.96467 10.5673 1.51667 9.89533 1.19 9.13C0.863333 8.36467 0.7 7.548 0.7 6.68ZM7 12.42C7.79333 12.42 8.53533 12.2753 9.226 11.986C9.91667 11.6873 10.5233 11.272 11.046 10.74C11.578 10.208 11.9933 9.59667 12.292 8.906C12.5907 8.21533 12.74 7.47333 12.74 6.68C12.74 5.88667 12.5907 5.14467 12.292 4.454C11.9933 3.76333 11.578 3.15667 11.046 2.634C10.5233 2.102 9.91667 1.68667 9.226 1.388C8.53533 1.08933 7.79333 0.94 7 0.94C6.20667 0.94 5.46467 1.08933 4.774 1.388C4.08333 1.68667 3.472 2.102 2.94 2.634C2.41733 3.15667 2.00667 3.76333 1.708 4.454C1.40933 5.14467 1.26 5.88667 1.26 6.68C1.26 7.47333 1.40467 8.21533 1.694 8.906C1.99267 9.59667 2.408 10.208 2.94 10.74C3.472 11.2627 4.08333 11.6733 4.774 11.972C5.46467 12.2707 6.20667 12.42 7 12.42ZM13.3 6.68C13.3 5.812 13.4633 4.99533 13.79 4.23C14.1167 3.46467 14.5647 2.79733 15.134 2.228C15.7127 1.64933 16.3847 1.19667 17.15 0.87C17.9153 0.543333 18.732 0.379999 19.6 0.379999C20.468 0.379999 21.2847 0.543333 22.05 0.87C22.8153 1.19667 23.4827 1.64933 24.052 2.228C24.6307 2.79733 25.0833 3.46467 25.41 4.23C25.7367 4.99533 25.9 5.812 25.9 6.68C25.9 7.548 25.7367 8.36467 25.41 9.13C25.0833 9.89533 24.6307 10.5673 24.052 11.146C23.4827 11.7153 22.8153 12.1633 22.05 12.49C21.2847 12.8167 20.468 12.98 19.6 12.98C18.732 12.98 17.9153 12.8167 17.15 12.49C16.3847 12.1633 15.7127 11.7153 15.134 11.146C14.5647 10.5673 14.1167 9.89533 13.79 9.13C13.4633 8.36467 13.3 7.548 13.3 6.68ZM19.6 12.42C20.3933 12.42 21.1353 12.2753 21.826 11.986C22.5167 11.6873 23.1233 11.272 23.646 10.74C24.178 10.208 24.5933 9.59667 24.892 8.906C25.1907 8.21533 25.34 7.47333 25.34 6.68C25.34 5.88667 25.1907 5.14467 24.892 4.454C24.5933 3.76333 24.178 3.15667 23.646 2.634C23.1233 2.102 22.5167 1.68667 21.826 1.388C21.1353 1.08933 20.3933 0.94 19.6 0.94C18.8067 0.94 18.0647 1.08933 17.374 1.388C16.6833 1.68667 16.072 2.102 15.54 2.634C15.0173 3.15667 14.6067 3.76333 14.308 4.454C14.0093 5.14467 13.86 5.88667 13.86 6.68C13.86 7.47333 14.0047 8.21533 14.294 8.906C14.5927 9.59667 15.008 10.208 15.54 10.74C16.072 11.2627 16.6833 11.6733 17.374 11.972C18.0647 12.2707 18.8067 12.42 19.6 12.42ZM32.424 2.074C32.3773 1.91533 32.3213 1.73333 32.256 1.528C32.1907 1.31333 32.116 1.09867 32.032 0.884L33.544 0.701999C33.5907 1.01 33.6607 1.34133 33.754 1.696C33.8473 2.04133 33.95 2.38667 34.062 2.732C34.174 3.07733 34.2813 3.404 34.384 3.712C34.5987 4.3 34.86 4.888 35.168 5.476C35.4853 6.05467 35.7793 6.526 36.05 6.89C36.1527 7.03933 36.26 7.184 36.372 7.324C36.484 7.464 36.6007 7.59467 36.722 7.716L36.022 8.724C35.8353 8.67733 35.5973 8.63533 35.308 8.598C35.028 8.56067 34.72 8.52333 34.384 8.486C34.0573 8.44867 33.726 8.416 33.39 8.388C33.0633 8.36 32.7647 8.332 32.494 8.304L32.592 7.142C32.844 7.16067 33.11 7.184 33.39 7.212C33.67 7.23067 33.936 7.254 34.188 7.282C34.44 7.30067 34.6453 7.31933 34.804 7.338C34.6173 7.04867 34.4167 6.71733 34.202 6.344C33.9967 5.97067 33.796 5.58333 33.6 5.182C33.404 4.77133 33.2313 4.36067 33.082 3.95C32.9327 3.558 32.802 3.20333 32.69 2.886C32.5873 2.56867 32.4987 2.298 32.424 2.074ZM27.314 2.97C28.1353 3.06333 28.9193 3.12867 29.666 3.166C30.4127 3.20333 31.1173 3.21267 31.78 3.194C32.4427 3.17533 33.0447 3.138 33.586 3.082C33.978 3.03533 34.3793 2.97933 34.79 2.914C35.2007 2.83933 35.6067 2.75533 36.008 2.662C36.4187 2.56867 36.806 2.46133 37.17 2.34L37.338 3.74C37.0207 3.824 36.6707 3.908 36.288 3.992C35.9147 4.06667 35.532 4.13667 35.14 4.202C34.748 4.258 34.3747 4.30933 34.02 4.356C33.1147 4.45867 32.1067 4.51467 30.996 4.524C29.8853 4.53333 28.6673 4.48667 27.342 4.384L27.314 2.97ZM29.764 7.562C29.5493 7.898 29.3813 8.22467 29.26 8.542C29.148 8.85 29.092 9.16733 29.092 9.494C29.092 10.1193 29.3627 10.5767 29.904 10.866C30.4547 11.1553 31.234 11.3047 32.242 11.314C32.9793 11.3233 33.6513 11.2953 34.258 11.23C34.8647 11.1647 35.4153 11.0807 35.91 10.978L35.84 12.378C35.42 12.4527 34.902 12.5227 34.286 12.588C33.6793 12.6627 32.97 12.6953 32.158 12.686C31.2433 12.686 30.45 12.5693 29.778 12.336C29.106 12.112 28.588 11.7807 28.224 11.342C27.86 10.894 27.678 10.348 27.678 9.704C27.678 9.29333 27.7387 8.892 27.86 8.5C27.9907 8.108 28.1633 7.69267 28.378 7.254L29.764 7.562ZM45.64 1.598C45.5747 1.69133 45.5047 1.79867 45.43 1.92C45.3553 2.032 45.276 2.15333 45.192 2.284C45.0333 2.52667 44.8467 2.83 44.632 3.194C44.4173 3.54867 44.1933 3.93133 43.96 4.342C43.7267 4.75267 43.498 5.15867 43.274 5.56C43.05 5.96133 42.854 6.32533 42.686 6.652C42.9847 6.41867 43.2927 6.25067 43.61 6.148C43.9367 6.036 44.2493 5.98 44.548 5.98C45.0427 5.98 45.4393 6.134 45.738 6.442C46.046 6.74067 46.214 7.17467 46.242 7.744C46.2513 7.98667 46.256 8.262 46.256 8.57C46.256 8.86867 46.256 9.16267 46.256 9.452C46.2653 9.74133 46.2793 9.99333 46.298 10.208C46.3167 10.5347 46.424 10.768 46.62 10.908C46.8253 11.0387 47.0587 11.104 47.32 11.104C47.6747 11.104 47.992 11.006 48.272 10.81C48.5613 10.614 48.8133 10.3527 49.028 10.026C49.252 9.69 49.4387 9.326 49.588 8.934C49.7467 8.53267 49.8727 8.13133 49.966 7.73L51.142 8.696C50.8993 9.47067 50.596 10.152 50.232 10.74C49.868 11.3187 49.4293 11.7713 48.916 12.098C48.4027 12.434 47.796 12.602 47.096 12.602C46.592 12.602 46.1813 12.5087 45.864 12.322C45.556 12.1353 45.3273 11.902 45.178 11.622C45.038 11.342 44.9587 11.0527 44.94 10.754C44.9213 10.4833 44.9073 10.194 44.898 9.886C44.898 9.56867 44.8933 9.26067 44.884 8.962C44.884 8.654 44.8747 8.388 44.856 8.164C44.8467 7.884 44.7627 7.66933 44.604 7.52C44.4453 7.36133 44.2213 7.282 43.932 7.282C43.5867 7.282 43.2507 7.38467 42.924 7.59C42.6067 7.79533 42.3173 8.066 42.056 8.402C41.804 8.738 41.5893 9.09267 41.412 9.466C41.3093 9.67133 41.202 9.91867 41.09 10.208C40.978 10.488 40.866 10.782 40.754 11.09C40.6513 11.3887 40.558 11.6733 40.474 11.944C40.39 12.2147 40.32 12.4387 40.264 12.616L38.724 12.098C38.9013 11.622 39.1207 11.0853 39.382 10.488C39.6433 9.88133 39.9327 9.24667 40.25 8.584C40.5673 7.912 40.8893 7.24933 41.216 6.596C41.5427 5.94267 41.8553 5.322 42.154 4.734C42.4527 4.146 42.7187 3.63267 42.952 3.194C43.1853 2.75533 43.3627 2.424 43.484 2.2C43.5773 2.032 43.6753 1.85 43.778 1.654C43.8807 1.44867 43.9787 1.22 44.072 0.967999L45.64 1.598Z" fill="black"/>
</svg>
