<svg width="73" height="13" viewBox="0 0 73 13" fill="none" xmlns="http://www.w3.org/2000/svg">
<g clip-path="url(#clip0_29294_24)">
<path d="M2.53051 2.13015C2.50251 2.26082 2.47918 2.41948 2.46051 2.60615C2.44184 2.79282 2.42318 2.97948 2.40451 3.16615C2.39518 3.35282 2.39051 3.51148 2.39051 3.64215C2.39051 3.93148 2.39051 4.25348 2.39051 4.60815C2.39984 4.96282 2.40918 5.32682 2.41851 5.70015C2.42784 6.06415 2.45118 6.42815 2.48851 6.79215C2.56318 7.52948 2.67518 8.17348 2.82451 8.72415C2.97384 9.27482 3.16518 9.70415 3.39851 10.0121C3.63184 10.3201 3.90251 10.4741 4.21051 10.4741C4.38784 10.4741 4.55584 10.3901 4.71451 10.2221C4.87318 10.0541 5.02251 9.83015 5.16251 9.55015C5.30251 9.27015 5.42851 8.96682 5.54051 8.64015C5.66184 8.30415 5.76451 7.98215 5.84851 7.67415L6.95451 8.97615C6.65584 9.76948 6.35718 10.4041 6.05851 10.8801C5.76918 11.3468 5.47051 11.6828 5.16251 11.8881C4.85451 12.0934 4.52784 12.1961 4.18251 12.1961C3.71584 12.1961 3.26784 12.0374 2.83851 11.7201C2.41851 11.3934 2.05451 10.8614 1.74651 10.1241C1.43851 9.38682 1.21918 8.40215 1.08851 7.17015C1.04184 6.75948 1.00451 6.31615 0.97651 5.84015C0.957844 5.36415 0.943844 4.91148 0.93451 4.48215C0.93451 4.05282 0.93451 3.69815 0.93451 3.41815C0.93451 3.24082 0.925177 3.02615 0.90651 2.77415C0.897177 2.51282 0.869177 2.28882 0.82251 2.10215L2.53051 2.13015ZM9.69851 2.48015C9.95051 2.80682 10.1932 3.18948 10.4265 3.62815C10.6692 4.05748 10.8885 4.52415 11.0845 5.02815C11.2805 5.53215 11.4532 6.04548 11.6025 6.56815C11.7612 7.09082 11.8919 7.60882 11.9945 8.12215C12.0972 8.63548 12.1672 9.12082 12.2045 9.57815L10.7625 10.1381C10.7065 9.53148 10.6132 8.89682 10.4825 8.23415C10.3519 7.57148 10.1839 6.91815 9.97851 6.27415C9.77318 5.62082 9.53051 5.00948 9.25051 4.44015C8.97985 3.86148 8.66718 3.36215 8.31251 2.94215L9.69851 2.48015ZM17.5805 0.898148C17.5339 1.11282 17.4919 1.30882 17.4545 1.48615C17.4265 1.66348 17.3985 1.83615 17.3705 2.00415C17.3425 2.23748 17.3005 2.54548 17.2445 2.92815C17.1979 3.30148 17.1419 3.72148 17.0765 4.18815C17.0112 4.65482 16.9505 5.13548 16.8945 5.63015C16.8385 6.12482 16.7825 6.61015 16.7265 7.08615C16.6705 7.55282 16.6285 7.98215 16.6005 8.37415C16.5725 8.75682 16.5585 9.06948 16.5585 9.31215C16.5585 9.94682 16.7405 10.4414 17.1045 10.7961C17.4779 11.1508 18.0425 11.3281 18.7985 11.3281C19.4799 11.3281 20.0632 11.2349 20.5485 11.0482C21.0432 10.8615 21.4212 10.6001 21.6825 10.2641C21.9439 9.92815 22.0745 9.54082 22.0745 9.10215C22.0745 8.62615 21.9485 8.15015 21.6965 7.67415C21.4539 7.19815 21.0852 6.74082 20.5905 6.30215L22.1445 5.98015C22.6112 6.53082 22.9612 7.06748 23.1945 7.59015C23.4279 8.10348 23.5445 8.66348 23.5445 9.27015C23.5445 9.96082 23.3439 10.5674 22.9425 11.0901C22.5505 11.6128 21.9999 12.0188 21.2905 12.3081C20.5812 12.5974 19.7412 12.7421 18.7705 12.7421C18.0892 12.7421 17.4779 12.6348 16.9365 12.4201C16.3952 12.2054 15.9659 11.8648 15.6485 11.3981C15.3405 10.9314 15.1865 10.3108 15.1865 9.53615C15.1865 9.24682 15.2099 8.85948 15.2565 8.37415C15.3032 7.88882 15.3592 7.35682 15.4245 6.77815C15.4992 6.19948 15.5739 5.61148 15.6485 5.01415C15.7325 4.40748 15.8025 3.83815 15.8585 3.30615C15.9239 2.76482 15.9705 2.30282 15.9985 1.92015C16.0265 1.64015 16.0405 1.42082 16.0405 1.26215C16.0405 1.10348 16.0312 0.954149 16.0125 0.814149L17.5805 0.898148ZM12.8765 2.70415C13.2779 2.83482 13.7212 2.94215 14.2065 3.02615C14.6919 3.11015 15.1865 3.17548 15.6905 3.22215C16.1945 3.25948 16.6659 3.27815 17.1045 3.27815C17.6459 3.27815 18.1545 3.26415 18.6305 3.23615C19.1065 3.19882 19.5359 3.15215 19.9185 3.09615L19.8765 4.41215C19.4379 4.44948 19.0039 4.48215 18.5745 4.51015C18.1452 4.53815 17.6412 4.55215 17.0625 4.55215C16.6332 4.55215 16.1665 4.52882 15.6625 4.48215C15.1679 4.43548 14.6732 4.37015 14.1785 4.28615C13.6839 4.19282 13.2265 4.09482 12.8065 3.99215L12.8765 2.70415ZM12.5545 6.19015C13.0305 6.34882 13.5205 6.47482 14.0245 6.56815C14.5285 6.66148 15.0279 6.72682 15.5225 6.76415C16.0265 6.79215 16.5025 6.80615 16.9505 6.80615C17.4079 6.80615 17.8792 6.79215 18.3645 6.76415C18.8592 6.73615 19.3445 6.69415 19.8205 6.63815L19.7785 7.95415C19.3492 8.00082 18.9199 8.03815 18.4905 8.06615C18.0612 8.08482 17.6179 8.09415 17.1605 8.09415C16.3205 8.09415 15.4899 8.04748 14.6685 7.95415C13.8472 7.85148 13.1192 7.71148 12.4845 7.53415L12.5545 6.19015ZM32.7107 7.38015C32.7107 7.01615 32.6174 6.69415 32.4307 6.41415C32.2534 6.13415 31.9967 5.91482 31.6607 5.75615C31.3247 5.58815 30.928 5.50415 30.4707 5.50415C29.9387 5.50415 29.4347 5.54615 28.9587 5.63015C28.492 5.71415 28.0674 5.81215 27.6847 5.92415C27.302 6.03615 26.98 6.12948 26.7187 6.20415C26.5134 6.26015 26.2987 6.33015 26.0747 6.41415C25.8507 6.49815 25.65 6.57748 25.4727 6.65215L25.0387 5.05615C25.2534 5.03748 25.482 5.00948 25.7247 4.97215C25.9767 4.92548 26.21 4.87882 26.4247 4.83215C26.77 4.74815 27.162 4.65948 27.6007 4.56615C28.0487 4.46348 28.5294 4.37482 29.0427 4.30015C29.5654 4.21615 30.0974 4.17415 30.6387 4.17415C31.3387 4.17415 31.9594 4.30015 32.5007 4.55215C33.042 4.80415 33.4667 5.17282 33.7747 5.65815C34.0827 6.14348 34.2367 6.73615 34.2367 7.43615C34.2367 8.19215 34.0734 8.86882 33.7467 9.46615C33.4294 10.0634 32.9767 10.5862 32.3887 11.0342C31.81 11.4729 31.124 11.8369 30.3307 12.1262C29.5374 12.4155 28.674 12.6302 27.7407 12.7702L26.9427 11.4121C27.8014 11.3094 28.5807 11.1508 29.2807 10.9361C29.99 10.7214 30.6014 10.4508 31.1147 10.1241C31.628 9.79748 32.02 9.40548 32.2907 8.94815C32.5707 8.49082 32.7107 7.96815 32.7107 7.38015ZM26.9847 0.884149C27.386 0.968149 27.8574 1.05215 28.3987 1.13615C28.9494 1.21082 29.5187 1.27615 30.1067 1.33215C30.6947 1.38815 31.25 1.43482 31.7727 1.47215C32.2954 1.50948 32.734 1.52815 33.0887 1.52815L32.8647 2.88615C32.4727 2.85815 32.0107 2.82548 31.4787 2.78815C30.9467 2.74148 30.3914 2.69015 29.8127 2.63415C29.2434 2.56882 28.6927 2.50348 28.1607 2.43815C27.638 2.36348 27.176 2.29348 26.7747 2.22815L26.9847 0.884149ZM46.3887 3.72615C46.2114 3.83815 46.02 3.95015 45.8147 4.06215C45.6187 4.16482 45.4087 4.27215 45.1847 4.38415C44.9514 4.50548 44.6714 4.65015 44.3447 4.81815C44.018 4.97682 43.6634 5.15415 43.2807 5.35015C42.898 5.53682 42.5154 5.73748 42.1327 5.95215C41.7594 6.16682 41.4047 6.38148 41.0687 6.59615C40.4527 7.00682 39.9627 7.43148 39.5987 7.87015C39.2347 8.30882 39.0527 8.78948 39.0527 9.31215C39.0527 9.85348 39.314 10.2782 39.8367 10.5862C40.3594 10.8942 41.1434 11.0482 42.1887 11.0482C42.6927 11.0482 43.22 11.0294 43.7707 10.9921C44.3214 10.9454 44.8534 10.8849 45.3667 10.8102C45.8894 10.7355 46.3374 10.6468 46.7107 10.5441L46.6967 12.1402C46.3327 12.1962 45.9174 12.2521 45.4507 12.3081C44.984 12.3641 44.48 12.4061 43.9387 12.4341C43.4067 12.4621 42.842 12.4761 42.2447 12.4761C41.5727 12.4761 40.9474 12.4248 40.3687 12.3221C39.7994 12.2194 39.3047 12.0514 38.8847 11.8181C38.4647 11.5848 38.138 11.2768 37.9047 10.8941C37.6714 10.5021 37.5547 10.0261 37.5547 9.46615C37.5547 8.92482 37.6714 8.42548 37.9047 7.96815C38.1474 7.51082 38.4787 7.08148 38.8987 6.68015C39.3187 6.27882 39.804 5.89615 40.3547 5.53215C40.7 5.29882 41.0687 5.07015 41.4607 4.84615C41.8527 4.62215 42.2354 4.40748 42.6087 4.20215C42.9914 3.99682 43.346 3.81015 43.6727 3.64215C43.9994 3.47415 44.2747 3.32482 44.4987 3.19415C44.7227 3.06348 44.9234 2.94215 45.1007 2.83015C45.2874 2.71815 45.46 2.59215 45.6187 2.45215L46.3887 3.72615ZM39.3187 0.996149C39.5427 1.59348 39.7807 2.18148 40.0327 2.76015C40.2847 3.32948 40.5367 3.86148 40.7887 4.35615C41.05 4.85082 41.288 5.28948 41.5027 5.67215L40.2707 6.40015C40.028 5.99882 39.776 5.53682 39.5147 5.01415C39.2534 4.48215 38.9874 3.92215 38.7167 3.33415C38.446 2.74615 38.1847 2.15815 37.9327 1.57015L39.3187 0.996149ZM54.1447 2.07415C54.098 1.91548 54.042 1.73348 53.9767 1.52815C53.9114 1.31348 53.8367 1.09882 53.7527 0.884149L55.2647 0.702148C55.3114 1.01015 55.3814 1.34148 55.4747 1.69615C55.568 2.04148 55.6707 2.38682 55.7827 2.73215C55.8947 3.07748 56.002 3.40415 56.1047 3.71215C56.3194 4.30015 56.5807 4.88815 56.8887 5.47615C57.206 6.05482 57.5 6.52615 57.7707 6.89015C57.8734 7.03948 57.9807 7.18415 58.0927 7.32415C58.2047 7.46415 58.3214 7.59482 58.4427 7.71615L57.7427 8.72415C57.556 8.67748 57.318 8.63548 57.0287 8.59815C56.7487 8.56082 56.4407 8.52348 56.1047 8.48615C55.778 8.44882 55.4467 8.41615 55.1107 8.38815C54.784 8.36015 54.4854 8.33215 54.2147 8.30415L54.3127 7.14215C54.5647 7.16082 54.8307 7.18415 55.1107 7.21215C55.3907 7.23082 55.6567 7.25415 55.9087 7.28215C56.1607 7.30082 56.366 7.31948 56.5247 7.33815C56.338 7.04882 56.1374 6.71748 55.9227 6.34415C55.7174 5.97082 55.5167 5.58348 55.3207 5.18215C55.1247 4.77148 54.952 4.36082 54.8027 3.95015C54.6534 3.55815 54.5227 3.20348 54.4107 2.88615C54.308 2.56882 54.2194 2.29815 54.1447 2.07415ZM49.0347 2.97015C49.856 3.06348 50.64 3.12882 51.3867 3.16615C52.1334 3.20348 52.838 3.21282 53.5007 3.19415C54.1634 3.17548 54.7654 3.13815 55.3067 3.08215C55.6987 3.03548 56.1 2.97948 56.5107 2.91415C56.9214 2.83948 57.3274 2.75548 57.7287 2.66215C58.1394 2.56882 58.5267 2.46148 58.8907 2.34015L59.0587 3.74015C58.7414 3.82415 58.3914 3.90815 58.0087 3.99215C57.6354 4.06682 57.2527 4.13682 56.8607 4.20215C56.4687 4.25815 56.0954 4.30948 55.7407 4.35615C54.8354 4.45882 53.8274 4.51482 52.7167 4.52415C51.606 4.53348 50.388 4.48682 49.0627 4.38415L49.0347 2.97015ZM51.4847 7.56215C51.27 7.89815 51.102 8.22482 50.9807 8.54215C50.8687 8.85015 50.8127 9.16748 50.8127 9.49415C50.8127 10.1195 51.0834 10.5768 51.6247 10.8661C52.1754 11.1554 52.9547 11.3048 53.9627 11.3141C54.7 11.3234 55.372 11.2954 55.9787 11.2301C56.5854 11.1648 57.136 11.0808 57.6307 10.9781L57.5607 12.3781C57.1407 12.4528 56.6227 12.5229 56.0067 12.5882C55.4 12.6629 54.6907 12.6954 53.8787 12.6861C52.964 12.6861 52.1707 12.5695 51.4987 12.3362C50.8267 12.1122 50.3087 11.7808 49.9447 11.3421C49.5807 10.8941 49.3987 10.3482 49.3987 9.70415C49.3987 9.29348 49.4594 8.89215 49.5807 8.50015C49.7114 8.10815 49.884 7.69282 50.0987 7.25415L51.4847 7.56215ZM66.8007 1.59815C66.7354 1.69148 66.6654 1.79882 66.5907 1.92015C66.516 2.03215 66.4367 2.15348 66.3527 2.28415C66.194 2.52682 66.0074 2.83015 65.7927 3.19415C65.578 3.54882 65.354 3.93148 65.1207 4.34215C64.8874 4.75282 64.6587 5.15882 64.4347 5.56015C64.2107 5.96148 64.0147 6.32548 63.8467 6.65215C64.1454 6.41882 64.4534 6.25082 64.7707 6.14815C65.0974 6.03615 65.41 5.98015 65.7087 5.98015C66.2034 5.98015 66.6 6.13415 66.8987 6.44215C67.2067 6.74082 67.3747 7.17482 67.4027 7.74415C67.412 7.98682 67.4167 8.26215 67.4167 8.57015C67.4167 8.86882 67.4167 9.16282 67.4167 9.45215C67.426 9.74148 67.44 9.99348 67.4587 10.2081C67.4774 10.5348 67.5847 10.7681 67.7807 10.9081C67.986 11.0388 68.2194 11.1041 68.4807 11.1041C68.8354 11.1041 69.1527 11.0062 69.4327 10.8102C69.722 10.6142 69.974 10.3528 70.1887 10.0261C70.4127 9.69015 70.5994 9.32615 70.7487 8.93415C70.9074 8.53282 71.0334 8.13148 71.1267 7.73015L72.3027 8.69615C72.06 9.47082 71.7567 10.1521 71.3927 10.7401C71.0287 11.3188 70.59 11.7714 70.0767 12.0981C69.5634 12.4341 68.9567 12.6021 68.2567 12.6021C67.7527 12.6021 67.342 12.5088 67.0247 12.3221C66.7167 12.1354 66.488 11.9021 66.3387 11.6221C66.1987 11.3421 66.1194 11.0528 66.1007 10.7541C66.082 10.4834 66.068 10.1941 66.0587 9.88615C66.0587 9.56882 66.054 9.26082 66.0447 8.96215C66.0447 8.65415 66.0354 8.38815 66.0167 8.16415C66.0074 7.88415 65.9234 7.66948 65.7647 7.52015C65.606 7.36148 65.382 7.28215 65.0927 7.28215C64.7474 7.28215 64.4114 7.38482 64.0847 7.59015C63.7674 7.79548 63.478 8.06615 63.2167 8.40215C62.9647 8.73815 62.75 9.09282 62.5727 9.46615C62.47 9.67148 62.3627 9.91882 62.2507 10.2081C62.1387 10.4881 62.0267 10.7821 61.9147 11.0901C61.812 11.3888 61.7187 11.6734 61.6347 11.9441C61.5507 12.2148 61.4807 12.4388 61.4247 12.6161L59.8847 12.0981C60.062 11.6221 60.2814 11.0854 60.5427 10.4881C60.804 9.88148 61.0934 9.24682 61.4107 8.58415C61.728 7.91215 62.05 7.24948 62.3767 6.59615C62.7034 5.94282 63.016 5.32215 63.3147 4.73415C63.6134 4.14615 63.8794 3.63282 64.1127 3.19415C64.346 2.75548 64.5234 2.42415 64.6447 2.20015C64.738 2.03215 64.836 1.85015 64.9387 1.65415C65.0414 1.44882 65.1394 1.22015 65.2327 0.968148L66.8007 1.59815Z" fill="#E22F61"/>
</g>
<defs>
<clipPath id="clip0_29294_24">
<rect width="73" height="13" fill="white"/>
</clipPath>
</defs>
</svg>
