<svg width="45" height="21" viewBox="0 0 45 21" fill="none" xmlns="http://www.w3.org/2000/svg">
<g clip-path="url(#clip0_29294_4)">
<path d="M7.48001 4.57556C8.16801 4.63956 8.84801 4.69556 9.52001 4.74356C10.208 4.77556 10.912 4.79156 11.632 4.79156C13.072 4.79156 14.512 4.72756 15.952 4.59956C17.392 4.47156 18.728 4.28756 19.96 4.04756V6.37556C18.68 6.58356 17.32 6.73556 15.88 6.83156C14.456 6.92756 13.032 6.98356 11.608 6.99956C10.904 6.99956 10.216 6.98356 9.54401 6.95156C8.88801 6.91956 8.20801 6.87956 7.50401 6.83156L7.48001 4.57556ZM16.192 0.375562C16.16 0.615562 16.128 0.863562 16.096 1.11956C16.08 1.37556 16.064 1.62356 16.048 1.86356C16.032 2.13556 16.016 2.49556 16 2.94356C16 3.39156 15.992 3.87956 15.976 4.40756C15.976 4.91956 15.976 5.43156 15.976 5.94356C15.976 6.95156 15.992 7.91956 16.024 8.84756C16.072 9.77556 16.12 10.6556 16.168 11.4876C16.216 12.3196 16.256 13.1036 16.288 13.8396C16.32 14.5596 16.336 15.2156 16.336 15.8076C16.336 16.3516 16.264 16.8716 16.12 17.3676C15.976 17.8636 15.736 18.3036 15.4 18.6876C15.064 19.0716 14.608 19.3676 14.032 19.5756C13.472 19.7996 12.776 19.9116 11.944 19.9116C10.312 19.9116 9.04801 19.5916 8.15201 18.9516C7.25601 18.3116 6.80801 17.4156 6.80801 16.2636C6.80801 15.5276 7.00801 14.8716 7.40801 14.2956C7.82401 13.7196 8.40801 13.2636 9.16001 12.9276C9.92801 12.5916 10.848 12.4236 11.92 12.4236C12.992 12.4236 13.968 12.5436 14.848 12.7836C15.728 13.0076 16.544 13.3196 17.296 13.7196C18.048 14.1036 18.72 14.5276 19.312 14.9916C19.92 15.4556 20.472 15.9036 20.968 16.3356L19.672 18.3516C18.808 17.5196 17.944 16.7996 17.08 16.1916C16.232 15.5836 15.368 15.1116 14.488 14.7756C13.608 14.4396 12.688 14.2716 11.728 14.2716C10.912 14.2716 10.248 14.4316 9.73601 14.7516C9.24001 15.0716 8.99201 15.4876 8.99201 15.9996C8.99201 16.5596 9.24001 16.9836 9.73601 17.2716C10.232 17.5436 10.864 17.6796 11.632 17.6796C12.224 17.6796 12.688 17.5836 13.024 17.3916C13.36 17.1996 13.6 16.9196 13.744 16.5516C13.888 16.1836 13.96 15.7516 13.96 15.2556C13.96 14.8396 13.944 14.2796 13.912 13.5756C13.88 12.8556 13.84 12.0716 13.792 11.2236C13.744 10.3596 13.704 9.47956 13.672 8.58356C13.64 7.67156 13.624 6.79956 13.624 5.96756C13.624 5.10356 13.624 4.31156 13.624 3.59156C13.624 2.85556 13.624 2.29556 13.624 1.91156C13.624 1.70356 13.608 1.45556 13.576 1.16756C13.56 0.863561 13.528 0.599562 13.48 0.375562H16.192ZM4.40801 0.591563C4.36001 0.719562 4.30401 0.903562 4.24001 1.14356C4.17601 1.38356 4.11201 1.62356 4.04801 1.86356C4.00001 2.10356 3.96001 2.29556 3.92801 2.43956C3.84801 2.82356 3.75201 3.31956 3.64001 3.92756C3.54401 4.51956 3.44001 5.17556 3.32801 5.89556C3.23201 6.59956 3.13601 7.31956 3.04001 8.05556C2.96001 8.79156 2.88801 9.49556 2.82401 10.1676C2.77601 10.8396 2.75201 11.4316 2.75201 11.9436C2.75201 12.3596 2.76801 12.7836 2.80001 13.2156C2.83201 13.6316 2.88001 14.0636 2.94401 14.5116C3.05601 14.1756 3.18401 13.8316 3.32801 13.4796C3.47201 13.1116 3.61601 12.7516 3.76001 12.3996C3.92001 12.0476 4.06401 11.7276 4.19201 11.4396L5.39201 12.3756C5.18401 12.9836 4.96001 13.6396 4.72001 14.3436C4.48001 15.0316 4.26401 15.6876 4.07201 16.3116C3.89601 16.9356 3.76001 17.4556 3.66401 17.8716C3.63201 18.0316 3.60001 18.2236 3.56801 18.4476C3.55201 18.6556 3.54401 18.8316 3.54401 18.9756C3.56001 19.0876 3.56801 19.2236 3.56801 19.3836C3.58401 19.5596 3.60001 19.7196 3.61601 19.8636L1.48001 20.0316C1.22401 19.1836 1.00001 18.1116 0.808006 16.8156C0.632006 15.5036 0.544006 14.0316 0.544006 12.3996C0.544006 11.5036 0.584006 10.5756 0.664006 9.61556C0.744006 8.63956 0.840006 7.68756 0.952006 6.75956C1.08001 5.83156 1.20001 4.98356 1.31201 4.21556C1.42401 3.44756 1.52001 2.82356 1.60001 2.34356C1.63201 2.03956 1.66401 1.71156 1.69601 1.35956C1.74401 1.00756 1.77601 0.671562 1.79201 0.351562L4.40801 0.591563ZM30.76 4.57556C31.448 4.63956 32.128 4.69556 32.8 4.74356C33.488 4.77556 34.192 4.79156 34.912 4.79156C36.352 4.79156 37.792 4.72756 39.232 4.59956C40.672 4.47156 42.008 4.28756 43.24 4.04756V6.37556C41.96 6.58356 40.6 6.73556 39.16 6.83156C37.736 6.92756 36.312 6.98356 34.888 6.99956C34.184 6.99956 33.496 6.98356 32.824 6.95156C32.168 6.91956 31.488 6.87956 30.784 6.83156L30.76 4.57556ZM39.472 0.375562C39.44 0.615562 39.408 0.863562 39.376 1.11956C39.36 1.37556 39.344 1.62356 39.328 1.86356C39.312 2.13556 39.296 2.49556 39.28 2.94356C39.28 3.39156 39.272 3.87956 39.256 4.40756C39.256 4.91956 39.256 5.43156 39.256 5.94356C39.256 6.95156 39.272 7.91956 39.304 8.84756C39.352 9.77556 39.4 10.6556 39.448 11.4876C39.496 12.3196 39.536 13.1036 39.568 13.8396C39.6 14.5596 39.616 15.2156 39.616 15.8076C39.616 16.3516 39.544 16.8716 39.4 17.3676C39.256 17.8636 39.016 18.3036 38.68 18.6876C38.344 19.0716 37.888 19.3676 37.312 19.5756C36.752 19.7996 36.056 19.9116 35.224 19.9116C33.592 19.9116 32.328 19.5916 31.432 18.9516C30.536 18.3116 30.088 17.4156 30.088 16.2636C30.088 15.5276 30.288 14.8716 30.688 14.2956C31.104 13.7196 31.688 13.2636 32.44 12.9276C33.208 12.5916 34.128 12.4236 35.2 12.4236C36.272 12.4236 37.248 12.5436 38.128 12.7836C39.008 13.0076 39.824 13.3196 40.576 13.7196C41.328 14.1036 42 14.5276 42.592 14.9916C43.2 15.4556 43.752 15.9036 44.248 16.3356L42.952 18.3516C42.088 17.5196 41.224 16.7996 40.36 16.1916C39.512 15.5836 38.648 15.1116 37.768 14.7756C36.888 14.4396 35.968 14.2716 35.008 14.2716C34.192 14.2716 33.528 14.4316 33.016 14.7516C32.52 15.0716 32.272 15.4876 32.272 15.9996C32.272 16.5596 32.52 16.9836 33.016 17.2716C33.512 17.5436 34.144 17.6796 34.912 17.6796C35.504 17.6796 35.968 17.5836 36.304 17.3916C36.64 17.1996 36.88 16.9196 37.024 16.5516C37.168 16.1836 37.24 15.7516 37.24 15.2556C37.24 14.8396 37.224 14.2796 37.192 13.5756C37.16 12.8556 37.12 12.0716 37.072 11.2236C37.024 10.3596 36.984 9.47956 36.952 8.58356C36.92 7.67156 36.904 6.79956 36.904 5.96756C36.904 5.10356 36.904 4.31156 36.904 3.59156C36.904 2.85556 36.904 2.29556 36.904 1.91156C36.904 1.70356 36.888 1.45556 36.856 1.16756C36.84 0.863561 36.808 0.599562 36.76 0.375562H39.472ZM27.688 0.591563C27.64 0.719562 27.584 0.903562 27.52 1.14356C27.456 1.38356 27.392 1.62356 27.328 1.86356C27.28 2.10356 27.24 2.29556 27.208 2.43956C27.128 2.82356 27.032 3.31956 26.92 3.92756C26.824 4.51956 26.72 5.17556 26.608 5.89556C26.512 6.59956 26.416 7.31956 26.32 8.05556C26.24 8.79156 26.168 9.49556 26.104 10.1676C26.056 10.8396 26.032 11.4316 26.032 11.9436C26.032 12.3596 26.048 12.7836 26.08 13.2156C26.112 13.6316 26.16 14.0636 26.224 14.5116C26.336 14.1756 26.464 13.8316 26.608 13.4796C26.752 13.1116 26.896 12.7516 27.04 12.3996C27.2 12.0476 27.344 11.7276 27.472 11.4396L28.672 12.3756C28.464 12.9836 28.24 13.6396 28 14.3436C27.76 15.0316 27.544 15.6876 27.352 16.3116C27.176 16.9356 27.04 17.4556 26.944 17.8716C26.912 18.0316 26.88 18.2236 26.848 18.4476C26.832 18.6556 26.824 18.8316 26.824 18.9756C26.84 19.0876 26.848 19.2236 26.848 19.3836C26.864 19.5596 26.88 19.7196 26.896 19.8636L24.76 20.0316C24.504 19.1836 24.28 18.1116 24.088 16.8156C23.912 15.5036 23.824 14.0316 23.824 12.3996C23.824 11.5036 23.864 10.5756 23.944 9.61556C24.024 8.63956 24.12 7.68756 24.232 6.75956C24.36 5.83156 24.48 4.98356 24.592 4.21556C24.704 3.44756 24.8 2.82356 24.88 2.34356C24.912 2.03956 24.944 1.71156 24.976 1.35956C25.024 1.00756 25.056 0.671562 25.072 0.351562L27.688 0.591563Z" fill="#E22F61"/>
</g>
<defs>
<clipPath id="clip0_29294_4">
<rect width="45" height="21" fill="white"/>
</clipPath>
</defs>
</svg>
