<svg width="42" height="22" viewBox="0 0 42 22" fill="none" xmlns="http://www.w3.org/2000/svg">
<path d="M8.464 1.064C8.352 1.416 8.256 1.784 8.176 2.168C8.112 2.552 8.04 2.92 7.96 3.272C7.896 3.656 7.808 4.12 7.696 4.664C7.584 5.192 7.456 5.768 7.312 6.392C7.184 7 7.048 7.616 6.904 8.24C6.76 8.864 6.608 9.464 6.448 10.04C6.288 10.6 6.128 11.104 5.968 11.552C6.992 10.912 8.024 10.456 9.064 10.184C10.104 9.896 11.208 9.752 12.376 9.752C13.672 9.752 14.776 9.96 15.688 10.376C16.616 10.776 17.336 11.344 17.848 12.08C18.36 12.816 18.616 13.68 18.616 14.672C18.616 15.952 18.304 17.04 17.68 17.936C17.072 18.832 16.208 19.528 15.088 20.024C13.968 20.536 12.632 20.864 11.08 21.008C9.544 21.152 7.832 21.128 5.944 20.936L5.296 18.512C6.656 18.704 7.976 18.792 9.256 18.776C10.552 18.76 11.712 18.616 12.736 18.344C13.76 18.056 14.576 17.616 15.184 17.024C15.792 16.432 16.096 15.664 16.096 14.72C16.096 13.904 15.752 13.216 15.064 12.656C14.392 12.08 13.408 11.792 12.112 11.792C10.704 11.792 9.392 12.032 8.176 12.512C6.96 12.992 5.968 13.704 5.2 14.648C5.072 14.824 4.952 15 4.84 15.176C4.728 15.336 4.616 15.52 4.504 15.728L2.248 14.936C2.712 14.04 3.136 13.04 3.52 11.936C3.904 10.832 4.24 9.72 4.528 8.6C4.832 7.464 5.08 6.416 5.272 5.456C5.464 4.496 5.592 3.712 5.656 3.104C5.72 2.672 5.76 2.296 5.776 1.976C5.808 1.64 5.808 1.296 5.776 0.943999L8.464 1.064ZM0.616 4.016C1.304 4.128 2.08 4.224 2.944 4.304C3.808 4.384 4.608 4.424 5.344 4.424C6.112 4.424 6.96 4.4 7.888 4.352C8.832 4.304 9.816 4.232 10.84 4.136C11.864 4.04 12.888 3.92 13.912 3.776C14.952 3.616 15.952 3.432 16.912 3.224L16.96 5.528C16.144 5.656 15.24 5.784 14.248 5.912C13.256 6.04 12.24 6.16 11.2 6.272C10.16 6.368 9.136 6.448 8.128 6.512C7.12 6.56 6.2 6.584 5.368 6.584C4.504 6.584 3.672 6.568 2.872 6.536C2.072 6.488 1.32 6.432 0.616 6.368V4.016ZM31.744 1.064C31.632 1.416 31.536 1.784 31.456 2.168C31.392 2.552 31.32 2.92 31.24 3.272C31.176 3.656 31.088 4.12 30.976 4.664C30.864 5.192 30.736 5.768 30.592 6.392C30.464 7 30.328 7.616 30.184 8.24C30.04 8.864 29.888 9.464 29.728 10.04C29.568 10.6 29.408 11.104 29.248 11.552C30.272 10.912 31.304 10.456 32.344 10.184C33.384 9.896 34.488 9.752 35.656 9.752C36.952 9.752 38.056 9.96 38.968 10.376C39.896 10.776 40.616 11.344 41.128 12.08C41.64 12.816 41.896 13.68 41.896 14.672C41.896 15.952 41.584 17.04 40.96 17.936C40.352 18.832 39.488 19.528 38.368 20.024C37.248 20.536 35.912 20.864 34.36 21.008C32.824 21.152 31.112 21.128 29.224 20.936L28.576 18.512C29.936 18.704 31.256 18.792 32.536 18.776C33.832 18.76 34.992 18.616 36.016 18.344C37.04 18.056 37.856 17.616 38.464 17.024C39.072 16.432 39.376 15.664 39.376 14.72C39.376 13.904 39.032 13.216 38.344 12.656C37.672 12.08 36.688 11.792 35.392 11.792C33.984 11.792 32.672 12.032 31.456 12.512C30.24 12.992 29.248 13.704 28.48 14.648C28.352 14.824 28.232 15 28.12 15.176C28.008 15.336 27.896 15.52 27.784 15.728L25.528 14.936C25.992 14.04 26.416 13.04 26.8 11.936C27.184 10.832 27.52 9.72 27.808 8.6C28.112 7.464 28.36 6.416 28.552 5.456C28.744 4.496 28.872 3.712 28.936 3.104C29 2.672 29.04 2.296 29.056 1.976C29.088 1.64 29.088 1.296 29.056 0.943999L31.744 1.064ZM23.896 4.016C24.584 4.128 25.36 4.224 26.224 4.304C27.088 4.384 27.888 4.424 28.624 4.424C29.392 4.424 30.24 4.4 31.168 4.352C32.112 4.304 33.096 4.232 34.12 4.136C35.144 4.04 36.168 3.92 37.192 3.776C38.232 3.616 39.232 3.432 40.192 3.224L40.24 5.528C39.424 5.656 38.52 5.784 37.528 5.912C36.536 6.04 35.52 6.16 34.48 6.272C33.44 6.368 32.416 6.448 31.408 6.512C30.4 6.56 29.48 6.584 28.648 6.584C27.784 6.584 26.952 6.568 26.152 6.536C25.352 6.488 24.6 6.432 23.896 6.368V4.016Z" fill="black"/>
</svg>
