<svg width="98" height="22" viewBox="0 0 98 22" fill="none" xmlns="http://www.w3.org/2000/svg">
<g clip-path="url(#clip0_29294_6)">
<path d="M8.12801 0.679835C8.09601 0.823835 8.07201 1.00784 8.05601 1.23184C8.04001 1.43984 8.01601 1.66384 7.98401 1.90384C7.96801 2.12784 7.95201 2.33584 7.93601 2.52784C7.92001 2.94384 7.89601 3.43984 7.86401 4.01584C7.84801 4.57584 7.82401 5.19184 7.79201 5.86384C7.77601 6.51984 7.76001 7.18384 7.74401 7.85584C7.74401 8.51184 7.74401 9.14384 7.74401 9.75184C7.74401 10.3758 7.75201 11.0718 7.76801 11.8398C7.78401 12.6078 7.80001 13.3678 7.81601 14.1198C7.83201 14.8558 7.84801 15.5438 7.86401 16.1838C7.88001 16.8078 7.88801 17.3038 7.88801 17.6718C7.88801 18.5198 7.78401 19.1838 7.57601 19.6638C7.38401 20.1438 7.11201 20.4798 6.76001 20.6718C6.42401 20.8638 6.01601 20.9598 5.53601 20.9598C5.02401 20.9598 4.46401 20.8478 3.85601 20.6238C3.24801 20.3998 2.67201 20.0958 2.12801 19.7118C1.58401 19.3278 1.13601 18.8798 0.784012 18.3678C0.432012 17.8558 0.256012 17.3118 0.256012 16.7358C0.256012 15.9998 0.536012 15.2718 1.09601 14.5518C1.67201 13.8158 2.42401 13.1438 3.35201 12.5358C4.28001 11.9278 5.26401 11.4318 6.30401 11.0478C7.39201 10.6478 8.50401 10.3438 9.64001 10.1358C10.776 9.92784 11.808 9.82384 12.736 9.82384C13.936 9.82384 15.008 10.0238 15.952 10.4238C16.896 10.8238 17.64 11.3998 18.184 12.1518C18.728 12.9038 19 13.7918 19 14.8158C19 15.7598 18.808 16.6078 18.424 17.3598C18.056 18.1118 17.488 18.7518 16.72 19.2798C15.952 19.8078 14.984 20.2158 13.816 20.5038C13.272 20.6158 12.736 20.6958 12.208 20.7438C11.696 20.7918 11.216 20.8318 10.768 20.8638L9.90401 18.4158C10.384 18.4318 10.872 18.4318 11.368 18.4158C11.864 18.3998 12.336 18.3438 12.784 18.2478C13.456 18.1198 14.08 17.9198 14.656 17.6478C15.232 17.3598 15.688 16.9838 16.024 16.5198C16.376 16.0398 16.552 15.4638 16.552 14.7918C16.552 14.1678 16.384 13.6478 16.048 13.2318C15.712 12.7998 15.256 12.4718 14.68 12.2478C14.104 12.0238 13.448 11.9118 12.712 11.9118C11.672 11.9118 10.64 12.0238 9.61601 12.2478C8.59201 12.4558 7.58401 12.7518 6.59201 13.1358C5.85601 13.4238 5.18401 13.7678 4.57601 14.1678C3.96801 14.5678 3.48801 14.9838 3.13601 15.4158C2.78401 15.8318 2.60801 16.2318 2.60801 16.6158C2.60801 16.8558 2.68801 17.0878 2.84801 17.3118C3.00801 17.5198 3.20001 17.7038 3.42401 17.8638C3.66401 18.0238 3.91201 18.1518 4.16801 18.2478C4.42401 18.3438 4.65601 18.3918 4.86401 18.3918C5.10401 18.3918 5.29601 18.3118 5.44001 18.1518C5.60001 17.9758 5.68001 17.6878 5.68001 17.2878C5.68001 16.8398 5.66401 16.2078 5.63201 15.3918C5.61601 14.5758 5.60001 13.6798 5.58401 12.7038C5.56801 11.7118 5.56001 10.7598 5.56001 9.84784C5.56001 9.15984 5.56001 8.44784 5.56001 7.71184C5.57601 6.95984 5.58401 6.23984 5.58401 5.55184C5.60001 4.86384 5.60801 4.25584 5.60801 3.72784C5.62401 3.19984 5.63201 2.81584 5.63201 2.57584C5.63201 2.39984 5.62401 2.19184 5.60801 1.95184C5.59201 1.71184 5.57601 1.47984 5.56001 1.25584C5.54401 1.01584 5.52001 0.823835 5.48801 0.679835H8.12801ZM15.304 3.31984C15.896 3.60784 16.552 3.96784 17.272 4.39984C18.008 4.81584 18.704 5.23984 19.36 5.67184C20.032 6.08784 20.568 6.45584 20.968 6.77584L19.792 8.69584C19.504 8.42384 19.12 8.12784 18.64 7.80784C18.176 7.48784 17.672 7.15984 17.128 6.82384C16.6 6.48784 16.08 6.17584 15.568 5.88784C15.072 5.58384 14.632 5.33584 14.248 5.14384L15.304 3.31984ZM0.760012 4.83184C1.44801 4.91184 2.04001 4.96784 2.53601 4.99984C3.03201 5.01584 3.50401 5.02384 3.95201 5.02384C4.54401 5.02384 5.21601 4.99184 5.96801 4.92784C6.72001 4.86384 7.48001 4.78384 8.24801 4.68784C9.03201 4.59184 9.79201 4.47184 10.528 4.32784C11.28 4.16784 11.96 3.99984 12.568 3.82384L12.616 6.17584C11.976 6.31984 11.264 6.45584 10.48 6.58384C9.71201 6.71184 8.92801 6.83184 8.12801 6.94384C7.34401 7.03984 6.59201 7.11984 5.87201 7.18384C5.16801 7.23184 4.54401 7.25584 4.00001 7.25584C3.28001 7.25584 2.67201 7.24784 2.17601 7.23184C1.68001 7.19984 1.23201 7.16784 0.832012 7.13584L0.760012 4.83184ZM36.928 5.81584C36.624 6.00784 36.296 6.19984 35.944 6.39184C35.608 6.56784 35.248 6.75184 34.864 6.94384C34.464 7.15184 33.984 7.39984 33.424 7.68784C32.864 7.95984 32.256 8.26384 31.6 8.59984C30.944 8.91984 30.288 9.26384 29.632 9.63184C28.992 9.99984 28.384 10.3678 27.808 10.7358C26.752 11.4398 25.912 12.1678 25.288 12.9198C24.664 13.6718 24.352 14.4958 24.352 15.3918C24.352 16.3198 24.8 17.0478 25.696 17.5758C26.592 18.1038 27.936 18.3678 29.728 18.3678C30.592 18.3678 31.496 18.3358 32.44 18.2718C33.384 18.1918 34.296 18.0878 35.176 17.9598C36.072 17.8318 36.84 17.6798 37.48 17.5038L37.456 20.2398C36.832 20.3358 36.12 20.4318 35.32 20.5278C34.52 20.6238 33.656 20.6958 32.728 20.7438C31.816 20.7918 30.848 20.8158 29.824 20.8158C28.672 20.8158 27.6 20.7278 26.608 20.5518C25.632 20.3758 24.784 20.0878 24.064 19.6878C23.344 19.2878 22.784 18.7598 22.384 18.1038C21.984 17.4318 21.784 16.6158 21.784 15.6558C21.784 14.7278 21.984 13.8718 22.384 13.0878C22.8 12.3038 23.368 11.5678 24.088 10.8798C24.808 10.1918 25.64 9.53584 26.584 8.91184C27.176 8.51184 27.808 8.11984 28.48 7.73584C29.152 7.35184 29.808 6.98384 30.448 6.63184C31.104 6.27984 31.712 5.95984 32.272 5.67184C32.832 5.38384 33.304 5.12784 33.688 4.90384C34.072 4.67984 34.416 4.47184 34.72 4.27984C35.04 4.08784 35.336 3.87184 35.608 3.63184L36.928 5.81584ZM24.808 1.13584C25.192 2.15984 25.6 3.16784 26.032 4.15984C26.464 5.13584 26.896 6.04784 27.328 6.89584C27.776 7.74384 28.184 8.49584 28.552 9.15184L26.44 10.3998C26.024 9.71184 25.592 8.91984 25.144 8.02384C24.696 7.11184 24.24 6.15184 23.776 5.14384C23.312 4.13584 22.864 3.12784 22.432 2.11984L24.808 1.13584ZM53.32 12.0798C53.32 11.4558 53.16 10.9038 52.84 10.4238C52.536 9.94384 52.096 9.56784 51.52 9.29584C50.944 9.00784 50.264 8.86384 49.48 8.86384C48.568 8.86384 47.704 8.93584 46.888 9.07984C46.088 9.22384 45.36 9.39184 44.704 9.58384C44.048 9.77584 43.496 9.93584 43.048 10.0638C42.696 10.1598 42.328 10.2798 41.944 10.4238C41.56 10.5678 41.216 10.7038 40.912 10.8318L40.168 8.09584C40.536 8.06384 40.928 8.01584 41.344 7.95184C41.776 7.87184 42.176 7.79184 42.544 7.71184C43.136 7.56784 43.808 7.41584 44.56 7.25584C45.328 7.07984 46.152 6.92784 47.032 6.79984C47.928 6.65584 48.84 6.58384 49.768 6.58384C50.968 6.58384 52.032 6.79984 52.96 7.23184C53.888 7.66384 54.616 8.29584 55.144 9.12784C55.672 9.95984 55.936 10.9758 55.936 12.1758C55.936 13.4718 55.656 14.6318 55.096 15.6558C54.552 16.6798 53.776 17.5758 52.768 18.3438C51.776 19.0958 50.6 19.7198 49.24 20.2158C47.88 20.7118 46.4 21.0798 44.8 21.3198L43.432 18.9918C44.904 18.8158 46.24 18.5438 47.44 18.1758C48.656 17.8078 49.704 17.3438 50.584 16.7838C51.464 16.2238 52.136 15.5518 52.6 14.7678C53.08 13.9838 53.32 13.0878 53.32 12.0798ZM43.504 0.943836C44.192 1.08784 45 1.23184 45.928 1.37584C46.872 1.50384 47.848 1.61584 48.856 1.71184C49.864 1.80784 50.816 1.88784 51.712 1.95184C52.608 2.01584 53.36 2.04784 53.968 2.04784L53.584 4.37584C52.912 4.32784 52.12 4.27184 51.208 4.20784C50.296 4.12784 49.344 4.03984 48.352 3.94384C47.376 3.83184 46.432 3.71984 45.52 3.60784C44.624 3.47984 43.832 3.35984 43.144 3.24784L43.504 0.943836ZM67.984 2.98384C67.904 2.71184 67.808 2.39984 67.696 2.04784C67.584 1.67984 67.456 1.31184 67.312 0.943836L69.904 0.631836C69.984 1.15984 70.104 1.72784 70.264 2.33584C70.424 2.92784 70.6 3.51984 70.792 4.11184C70.984 4.70384 71.168 5.26384 71.344 5.79184C71.712 6.79984 72.16 7.80784 72.688 8.81584C73.232 9.80784 73.736 10.6158 74.2 11.2398C74.376 11.4958 74.56 11.7438 74.752 11.9838C74.944 12.2238 75.144 12.4478 75.352 12.6558L74.152 14.3838C73.832 14.3038 73.424 14.2318 72.928 14.1678C72.448 14.1038 71.92 14.0398 71.344 13.9758C70.784 13.9118 70.216 13.8558 69.64 13.8078C69.08 13.7598 68.568 13.7118 68.104 13.6638L68.272 11.6718C68.704 11.7038 69.16 11.7438 69.64 11.7918C70.12 11.8238 70.576 11.8638 71.008 11.9118C71.44 11.9438 71.792 11.9758 72.064 12.0078C71.744 11.5118 71.4 10.9438 71.032 10.3038C70.68 9.66384 70.336 8.99984 70 8.31184C69.664 7.60784 69.368 6.90384 69.112 6.19984C68.856 5.52784 68.632 4.91984 68.44 4.37584C68.264 3.83184 68.112 3.36784 67.984 2.98384ZM59.224 4.51984C60.632 4.67984 61.976 4.79184 63.256 4.85584C64.536 4.91984 65.744 4.93584 66.88 4.90384C68.016 4.87184 69.048 4.80784 69.976 4.71184C70.648 4.63184 71.336 4.53584 72.04 4.42384C72.744 4.29584 73.44 4.15184 74.128 3.99184C74.832 3.83184 75.496 3.64784 76.12 3.43984L76.408 5.83984C75.864 5.98384 75.264 6.12784 74.608 6.27184C73.968 6.39984 73.312 6.51984 72.64 6.63184C71.968 6.72784 71.328 6.81584 70.72 6.89584C69.168 7.07184 67.44 7.16784 65.536 7.18384C63.632 7.19984 61.544 7.11984 59.272 6.94384L59.224 4.51984ZM63.424 12.3918C63.056 12.9678 62.768 13.5278 62.56 14.0718C62.368 14.5998 62.272 15.1438 62.272 15.7038C62.272 16.7758 62.736 17.5598 63.664 18.0558C64.608 18.5518 65.944 18.8078 67.672 18.8238C68.936 18.8398 70.088 18.7918 71.128 18.6798C72.168 18.5678 73.112 18.4238 73.96 18.2478L73.84 20.6478C73.12 20.7758 72.232 20.8958 71.176 21.0078C70.136 21.1358 68.92 21.1918 67.528 21.1758C65.96 21.1758 64.6 20.9758 63.448 20.5758C62.296 20.1918 61.408 19.6238 60.784 18.8718C60.16 18.1038 59.848 17.1678 59.848 16.0638C59.848 15.3598 59.952 14.6718 60.16 13.9998C60.384 13.3278 60.68 12.6158 61.048 11.8638L63.424 12.3918ZM88.24 2.16784C88.128 2.32784 88.008 2.51184 87.88 2.71984C87.752 2.91184 87.616 3.11984 87.472 3.34384C87.2 3.75984 86.88 4.27984 86.512 4.90384C86.144 5.51184 85.76 6.16784 85.36 6.87184C84.96 7.57584 84.568 8.27184 84.184 8.95984C83.8 9.64784 83.464 10.2718 83.176 10.8318C83.688 10.4318 84.216 10.1438 84.76 9.96784C85.32 9.77584 85.856 9.67984 86.368 9.67984C87.216 9.67984 87.896 9.94384 88.408 10.4718C88.936 10.9838 89.224 11.7278 89.272 12.7038C89.288 13.1198 89.296 13.5918 89.296 14.1198C89.296 14.6318 89.296 15.1358 89.296 15.6318C89.312 16.1278 89.336 16.5598 89.368 16.9278C89.4 17.4878 89.584 17.8878 89.92 18.1278C90.272 18.3518 90.672 18.4638 91.12 18.4638C91.728 18.4638 92.272 18.2958 92.752 17.9598C93.248 17.6238 93.68 17.1758 94.048 16.6158C94.432 16.0398 94.752 15.4158 95.008 14.7438C95.28 14.0558 95.496 13.3678 95.656 12.6798L97.672 14.3358C97.256 15.6638 96.736 16.8318 96.112 17.8398C95.488 18.8318 94.736 19.6078 93.856 20.1678C92.976 20.7438 91.936 21.0318 90.736 21.0318C89.872 21.0318 89.168 20.8718 88.624 20.5518C88.096 20.2318 87.704 19.8318 87.448 19.3518C87.208 18.8718 87.072 18.3758 87.04 17.8638C87.008 17.3998 86.984 16.9038 86.968 16.3758C86.968 15.8318 86.96 15.3038 86.944 14.7918C86.944 14.2638 86.928 13.8078 86.896 13.4238C86.88 12.9438 86.736 12.5758 86.464 12.3198C86.192 12.0478 85.808 11.9118 85.312 11.9118C84.72 11.9118 84.144 12.0878 83.584 12.4398C83.04 12.7918 82.544 13.2558 82.096 13.8318C81.664 14.4078 81.296 15.0158 80.992 15.6558C80.816 16.0078 80.632 16.4318 80.44 16.9278C80.248 17.4078 80.056 17.9118 79.864 18.4398C79.688 18.9518 79.528 19.4398 79.384 19.9038C79.24 20.3678 79.12 20.7518 79.024 21.0558L76.384 20.1678C76.688 19.3518 77.064 18.4318 77.512 17.4078C77.96 16.3678 78.456 15.2798 79 14.1438C79.544 12.9918 80.096 11.8558 80.656 10.7358C81.216 9.61584 81.752 8.55184 82.264 7.54384C82.776 6.53584 83.232 5.65584 83.632 4.90384C84.032 4.15184 84.336 3.58384 84.544 3.19984C84.704 2.91184 84.872 2.59984 85.048 2.26384C85.224 1.91184 85.392 1.51984 85.552 1.08784L88.24 2.16784Z" fill="#E22F61"/>
</g>
<defs>
<clipPath id="clip0_29294_6">
<rect width="98" height="22" fill="white"/>
</clipPath>
</defs>
</svg>
