<svg width="49" height="13" viewBox="0 0 49 13" fill="none" xmlns="http://www.w3.org/2000/svg">
<path d="M2.346 2.13C2.318 2.26067 2.29467 2.41933 2.276 2.606C2.25733 2.79267 2.23867 2.97933 2.22 3.166C2.21067 3.35267 2.206 3.51133 2.206 3.642C2.206 3.93133 2.206 4.25333 2.206 4.608C2.21533 4.96267 2.22467 5.32667 2.234 5.7C2.24333 6.064 2.26667 6.428 2.304 6.792C2.37867 7.52933 2.49067 8.17333 2.64 8.724C2.78933 9.27467 2.98067 9.704 3.214 10.012C3.44733 10.32 3.718 10.474 4.026 10.474C4.20333 10.474 4.37133 10.39 4.53 10.222C4.68867 10.054 4.838 9.83 4.978 9.55C5.118 9.27 5.244 8.96667 5.356 8.64C5.47733 8.304 5.58 7.982 5.664 7.674L6.77 8.976C6.47133 9.76933 6.17267 10.404 5.874 10.88C5.58467 11.3467 5.286 11.6827 4.978 11.888C4.67 12.0933 4.34333 12.196 3.998 12.196C3.53133 12.196 3.08333 12.0373 2.654 11.72C2.234 11.3933 1.87 10.8613 1.562 10.124C1.254 9.38667 1.03467 8.402 0.904 7.17C0.857333 6.75933 0.82 6.316 0.792 5.84C0.773333 5.364 0.759333 4.91133 0.75 4.482C0.75 4.05267 0.75 3.698 0.75 3.418C0.75 3.24067 0.740667 3.026 0.722 2.774C0.712667 2.51267 0.684667 2.28867 0.638 2.102L2.346 2.13ZM9.514 2.48C9.766 2.80667 10.0087 3.18933 10.242 3.628C10.4847 4.05733 10.704 4.524 10.9 5.028C11.096 5.532 11.2687 6.04533 11.418 6.568C11.5767 7.09067 11.7073 7.60867 11.81 8.122C11.9127 8.63533 11.9827 9.12067 12.02 9.578L10.578 10.138C10.522 9.53133 10.4287 8.89667 10.298 8.234C10.1673 7.57133 9.99933 6.918 9.794 6.274C9.58867 5.62067 9.346 5.00933 9.066 4.44C8.79533 3.86133 8.48267 3.362 8.128 2.942L9.514 2.48ZM17.956 0.897999C17.9093 1.11267 17.8673 1.30867 17.83 1.486C17.802 1.66333 17.774 1.836 17.746 2.004C17.718 2.23733 17.676 2.54533 17.62 2.928C17.5733 3.30133 17.5173 3.72133 17.452 4.188C17.3867 4.65467 17.326 5.13533 17.27 5.63C17.214 6.12467 17.158 6.61 17.102 7.086C17.046 7.55267 17.004 7.982 16.976 8.374C16.948 8.75667 16.934 9.06933 16.934 9.312C16.934 9.94667 17.116 10.4413 17.48 10.796C17.8533 11.1507 18.418 11.328 19.174 11.328C19.8553 11.328 20.4387 11.2347 20.924 11.048C21.4187 10.8613 21.7967 10.6 22.058 10.264C22.3193 9.928 22.45 9.54067 22.45 9.102C22.45 8.626 22.324 8.15 22.072 7.674C21.8293 7.198 21.4607 6.74067 20.966 6.302L22.52 5.98C22.9867 6.53067 23.3367 7.06733 23.57 7.59C23.8033 8.10333 23.92 8.66333 23.92 9.27C23.92 9.96067 23.7193 10.5673 23.318 11.09C22.926 11.6127 22.3753 12.0187 21.666 12.308C20.9567 12.5973 20.1167 12.742 19.146 12.742C18.4647 12.742 17.8533 12.6347 17.312 12.42C16.7707 12.2053 16.3413 11.8647 16.024 11.398C15.716 10.9313 15.562 10.3107 15.562 9.536C15.562 9.24667 15.5853 8.85933 15.632 8.374C15.6787 7.88867 15.7347 7.35667 15.8 6.778C15.8747 6.19933 15.9493 5.61133 16.024 5.014C16.108 4.40733 16.178 3.838 16.234 3.306C16.2993 2.76467 16.346 2.30267 16.374 1.92C16.402 1.64 16.416 1.42067 16.416 1.262C16.416 1.10333 16.4067 0.954 16.388 0.814L17.956 0.897999ZM13.252 2.704C13.6533 2.83467 14.0967 2.942 14.582 3.026C15.0673 3.11 15.562 3.17533 16.066 3.222C16.57 3.25933 17.0413 3.278 17.48 3.278C18.0213 3.278 18.53 3.264 19.006 3.236C19.482 3.19867 19.9113 3.152 20.294 3.096L20.252 4.412C19.8133 4.44933 19.3793 4.482 18.95 4.51C18.5207 4.538 18.0167 4.552 17.438 4.552C17.0087 4.552 16.542 4.52867 16.038 4.482C15.5433 4.43533 15.0487 4.37 14.554 4.286C14.0593 4.19267 13.602 4.09467 13.182 3.992L13.252 2.704ZM12.93 6.19C13.406 6.34867 13.896 6.47467 14.4 6.568C14.904 6.66133 15.4033 6.72667 15.898 6.764C16.402 6.792 16.878 6.806 17.326 6.806C17.7833 6.806 18.2547 6.792 18.74 6.764C19.2347 6.736 19.72 6.694 20.196 6.638L20.154 7.954C19.7247 8.00067 19.2953 8.038 18.866 8.066C18.4367 8.08467 17.9933 8.094 17.536 8.094C16.696 8.094 15.8653 8.04733 15.044 7.954C14.2227 7.85133 13.4947 7.71133 12.86 7.534L12.93 6.19ZM33.6462 7.38C33.6462 7.016 33.5528 6.694 33.3662 6.414C33.1888 6.134 32.9322 5.91467 32.5962 5.756C32.2602 5.588 31.8635 5.504 31.4062 5.504C30.8742 5.504 30.3702 5.546 29.8942 5.63C29.4275 5.714 29.0028 5.812 28.6202 5.924C28.2375 6.036 27.9155 6.12933 27.6542 6.204C27.4488 6.26 27.2342 6.33 27.0102 6.414C26.7862 6.498 26.5855 6.57733 26.4082 6.652L25.9742 5.056C26.1888 5.03733 26.4175 5.00933 26.6602 4.972C26.9122 4.92533 27.1455 4.87867 27.3602 4.832C27.7055 4.748 28.0975 4.65933 28.5362 4.566C28.9842 4.46333 29.4648 4.37467 29.9782 4.3C30.5008 4.216 31.0328 4.174 31.5742 4.174C32.2742 4.174 32.8948 4.3 33.4362 4.552C33.9775 4.804 34.4022 5.17267 34.7102 5.658C35.0182 6.14333 35.1722 6.736 35.1722 7.436C35.1722 8.192 35.0088 8.86867 34.6822 9.466C34.3648 10.0633 33.9122 10.586 33.3242 11.034C32.7455 11.4727 32.0595 11.8367 31.2662 12.126C30.4728 12.4153 29.6095 12.63 28.6762 12.77L27.8782 11.412C28.7368 11.3093 29.5162 11.1507 30.2162 10.936C30.9255 10.7213 31.5368 10.4507 32.0502 10.124C32.5635 9.79733 32.9555 9.40533 33.2262 8.948C33.5062 8.49067 33.6462 7.968 33.6462 7.38ZM27.9202 0.884C28.3215 0.968 28.7928 1.052 29.3342 1.136C29.8848 1.21067 30.4542 1.276 31.0422 1.332C31.6302 1.388 32.1855 1.43467 32.7082 1.472C33.2308 1.50933 33.6695 1.528 34.0242 1.528L33.8002 2.886C33.4082 2.858 32.9462 2.82533 32.4142 2.788C31.8822 2.74133 31.3268 2.69 30.7482 2.634C30.1788 2.56867 29.6282 2.50333 29.0962 2.438C28.5735 2.36333 28.1115 2.29333 27.7102 2.228L27.9202 0.884ZM47.8842 3.726C47.7068 3.838 47.5155 3.95 47.3102 4.062C47.1142 4.16467 46.9042 4.272 46.6802 4.384C46.4468 4.50533 46.1668 4.65 45.8402 4.818C45.5135 4.97667 45.1588 5.154 44.7762 5.35C44.3935 5.53667 44.0108 5.73733 43.6282 5.952C43.2548 6.16667 42.9002 6.38133 42.5642 6.596C41.9482 7.00667 41.4582 7.43133 41.0942 7.87C40.7302 8.30867 40.5482 8.78933 40.5482 9.312C40.5482 9.85333 40.8095 10.278 41.3322 10.586C41.8548 10.894 42.6388 11.048 43.6842 11.048C44.1882 11.048 44.7155 11.0293 45.2662 10.992C45.8168 10.9453 46.3488 10.8847 46.8622 10.81C47.3848 10.7353 47.8328 10.6467 48.2062 10.544L48.1922 12.14C47.8282 12.196 47.4128 12.252 46.9462 12.308C46.4795 12.364 45.9755 12.406 45.4342 12.434C44.9022 12.462 44.3375 12.476 43.7402 12.476C43.0682 12.476 42.4428 12.4247 41.8642 12.322C41.2948 12.2193 40.8002 12.0513 40.3802 11.818C39.9602 11.5847 39.6335 11.2767 39.4002 10.894C39.1668 10.502 39.0502 10.026 39.0502 9.466C39.0502 8.92467 39.1668 8.42533 39.4002 7.968C39.6428 7.51067 39.9742 7.08133 40.3942 6.68C40.8142 6.27867 41.2995 5.896 41.8502 5.532C42.1955 5.29867 42.5642 5.07 42.9562 4.846C43.3482 4.622 43.7308 4.40733 44.1042 4.202C44.4868 3.99667 44.8415 3.81 45.1682 3.642C45.4948 3.474 45.7702 3.32467 45.9942 3.194C46.2182 3.06333 46.4188 2.942 46.5962 2.83C46.7828 2.718 46.9555 2.592 47.1142 2.452L47.8842 3.726ZM40.8142 0.996C41.0382 1.59333 41.2762 2.18133 41.5282 2.76C41.7802 3.32933 42.0322 3.86133 42.2842 4.356C42.5455 4.85067 42.7835 5.28933 42.9982 5.672L41.7662 6.4C41.5235 5.99867 41.2715 5.53667 41.0102 5.014C40.7488 4.482 40.4828 3.922 40.2122 3.334C39.9415 2.746 39.6802 2.158 39.4282 1.57L40.8142 0.996Z" fill="black"/>
</svg>
