<svg width="199" height="100" viewBox="0 0 199 100" fill="none" xmlns="http://www.w3.org/2000/svg">
<path d="M67.6462 100.002C79.4003 100.002 88.93 90.5963 88.93 78.9876C88.93 67.3788 79.4003 57.9727 67.6462 57.9727C55.8921 57.9727 46.3623 67.3788 46.3623 78.9876C46.3623 90.5963 55.8921 100.002 67.6462 100.002Z" fill="#CFA1C0"/>
<mask id="mask0_3860_17806" style="mask-type:luminance" maskUnits="userSpaceOnUse" x="46" y="57" width="43" height="43">
<path d="M46.3623 78.9797C46.3623 90.5885 55.8921 99.9946 67.6462 99.9946C79.4003 99.9946 88.93 90.5885 88.93 78.9797C88.93 67.371 79.4003 57.9648 67.6462 57.9648C55.8921 57.9648 46.3623 67.371 46.3623 78.9797Z" fill="white"/>
</mask>
<g mask="url(#mask0_3860_17806)">
<g opacity="0.75">
<mask id="mask1_3860_17806" style="mask-type:luminance" maskUnits="userSpaceOnUse" x="14" y="61" width="120" height="75">
<path d="M133.01 61.3828H14.6621V135.811H133.01V61.3828Z" fill="white"/>
</mask>
<g mask="url(#mask1_3860_17806)">
<g style="mix-blend-mode:multiply">
<mask id="mask2_3860_17806" style="mask-type:luminance" maskUnits="userSpaceOnUse" x="51" y="71" width="77" height="70">
<path d="M127.304 71.457H51.3418V140.31H127.304V71.457Z" fill="white"/>
</mask>
<g mask="url(#mask2_3860_17806)">
<path d="M88.6029 72.9997C105.562 72.6289 119.613 86.0767 119.976 103.035C120.347 119.994 106.899 134.045 89.9404 134.409C72.9816 134.78 58.9305 121.332 58.5671 104.373C58.1963 87.4142 71.6441 73.3631 88.6029 72.9924" fill="#E8D4E3"/>
</g>
</g>
<g opacity="0.3">
<mask id="mask3_3860_17806" style="mask-type:luminance" maskUnits="userSpaceOnUse" x="20" y="69" width="72" height="66">
<path d="M91.0311 69.9609H20.4629V134.111H91.0311V69.9609Z" fill="white"/>
</mask>
<g mask="url(#mask3_3860_17806)">
<path d="M55.078 71.4441C70.5757 71.1097 83.4129 83.5544 83.7545 99.2483C84.0962 114.942 71.8114 127.939 56.3138 128.274C40.8161 128.608 27.9789 116.163 27.63 100.47C27.2884 84.7756 39.5731 71.7785 55.0708 71.4441" fill="#E9D6E4"/>
</g>
</g>
<g style="mix-blend-mode:multiply">
<mask id="mask4_3860_17806" style="mask-type:luminance" maskUnits="userSpaceOnUse" x="35" y="71" width="72" height="65">
<path d="M106.907 71.043H35.6045V135.236H106.907V71.043Z" fill="white"/>
</mask>
<g mask="url(#mask4_3860_17806)">
<path d="M70.5904 72.5307C86.2916 72.1891 99.296 84.641 99.6376 100.335C99.9793 116.036 87.5273 129.041 71.8334 129.382C56.1322 129.724 43.1278 117.272 42.7862 101.571C42.4445 85.8695 54.8964 72.8651 70.5976 72.5234" fill="#E8D4E2"/>
</g>
</g>
</g>
</g>
</g>
<path d="M32.8635 64.2298C51.0144 64.2298 65.727 49.6989 65.727 31.7806C65.727 13.8624 51.0144 -0.675781 32.8635 -0.675781C14.7126 -0.675781 0 13.8551 0 31.7734C0 49.6916 14.7126 64.2225 32.8635 64.2225" fill="#EFE2EC"/>
<path d="M32.8632 49.641C42.8582 49.641 50.956 41.645 50.956 31.7736C50.956 21.9022 42.8509 13.9062 32.8632 13.9062C22.8755 13.9062 14.7705 21.9095 14.7705 31.7736C14.7705 41.6378 22.8755 49.641 32.8632 49.641Z" fill="white"/>
<path d="M97.3436 74.0915C96.3714 74.0915 95.5651 73.7585 94.9367 73.0926C94.3083 72.4267 94 71.5759 94 70.54V59.38C94 58.7511 94.2134 58.2208 94.6284 57.8015C95.0434 57.3823 95.5888 57.1603 96.2528 57.1603C96.8456 57.1603 97.3554 57.3699 97.7941 57.8015C98.2328 58.2331 98.4463 58.7511 98.4463 59.38V60.7118C98.4463 61.1187 98.5293 61.4024 98.7071 61.575C98.885 61.7476 99.051 61.8093 99.2288 61.7723H102.157C102.75 61.7723 103.047 61.4023 103.047 60.6625V59.2813C103.047 58.6154 103.248 58.0728 103.651 57.6412C104.054 57.222 104.588 57 105.252 57C105.845 57 106.355 57.2096 106.793 57.6412C107.232 58.0728 107.446 58.6154 107.446 59.2813V70.5523C107.446 71.5882 107.149 72.4391 106.556 73.105C105.963 73.7709 105.157 74.1038 104.149 74.1038H97.3555L97.3436 74.0915ZM98.387 68.2093C98.387 68.6903 98.4344 69.0356 98.5174 69.2575C98.6004 69.4795 98.8968 69.5905 99.3829 69.5905H101.897C102.418 69.5905 102.738 69.4795 102.869 69.2575C102.987 69.0356 103.047 68.6903 103.047 68.2093V67.1612C103.047 66.7912 102.987 66.5076 102.869 66.298C102.75 66.1007 102.406 65.9897 101.849 65.9897H99.4422C98.9917 65.9897 98.7071 66.0883 98.5767 66.261C98.4581 66.4459 98.3988 66.7419 98.3988 67.1488V68.197L98.387 68.2093ZM111.204 80.1463C112.212 80.1463 113.03 80.4299 113.635 81.0095C114.239 81.589 114.548 82.4399 114.548 83.5868V88.7413C114.548 89.7772 114.216 90.6034 113.552 91.2076C112.888 91.8119 112.105 92.1202 111.204 92.1202H107.647C106.983 92.1202 106.58 92.2681 106.414 92.5641C106.26 92.8601 106.177 93.1683 106.177 93.5136V93.9576C106.177 94.3275 106.26 94.6728 106.414 95.0057C106.568 95.3387 107.031 95.5113 107.801 95.5113H112.769C113.398 95.5113 113.907 95.7086 114.311 96.0909C114.714 96.4855 114.915 97.0281 114.915 97.731C114.915 98.3599 114.714 98.9025 114.311 99.3341C113.907 99.778 113.398 100 112.769 100H105.027C104.126 100 103.331 99.6671 102.679 99.0012C102.015 98.3353 101.683 97.4844 101.683 96.4485V91.3433C101.683 90.2704 102.027 89.3949 102.727 88.729C103.426 88.0631 104.256 87.7301 105.24 87.7301H108.643C109.271 87.7301 109.686 87.5945 109.9 87.3109C110.113 87.0272 110.208 86.7436 110.208 86.4477V86.0037C110.208 85.6708 110.113 85.3378 109.924 85.0049C109.734 84.6719 109.248 84.4993 108.489 84.4993H104.043C103.414 84.4993 102.893 84.302 102.478 83.9197C102.063 83.5374 101.849 82.9825 101.849 82.2796C101.849 81.6137 102.063 81.0834 102.478 80.7012C102.893 80.3189 103.414 80.1216 104.043 80.1216H111.204V80.1463ZM111.406 61.723C111.406 60.9831 111.619 60.4158 112.034 59.9966C112.449 59.5896 112.994 59.3923 113.658 59.3923C114.322 59.3923 114.797 59.565 115.093 59.8979C115.389 60.2309 115.591 60.5761 115.698 60.9214C115.804 61.279 115.852 61.538 115.852 61.723V64.4976C115.852 65.4964 116.291 66.002 117.156 66.002H118.52C119.326 66.002 119.883 66.224 120.191 66.6679C120.5 67.1118 120.666 67.6174 120.666 68.1724C120.666 68.8013 120.476 69.3315 120.085 69.7508C119.705 70.1824 119.184 70.392 118.52 70.392H117.156C116.279 70.392 115.852 70.799 115.852 71.6128V76.4345C115.852 77.1374 115.639 77.7169 115.2 78.1609C114.761 78.6048 114.251 78.8268 113.658 78.8268C112.994 78.8268 112.461 78.6048 112.034 78.1609C111.607 77.7169 111.406 77.1497 111.406 76.4345V61.7353V61.723ZM138.807 77.4827C139.542 77.4827 140.087 77.7046 140.455 78.1485C140.822 78.5925 141 79.1104 141 79.7023C141 80.2942 140.798 80.7998 140.395 81.2314C139.992 81.663 139.459 81.8727 138.795 81.8727H124.412C123.748 81.8727 123.215 81.663 122.788 81.2314C122.373 80.8122 122.16 80.2942 122.16 79.7023C122.16 79.1104 122.338 78.5925 122.705 78.1485C123.073 77.7046 123.642 77.4827 124.401 77.4827H138.783H138.807ZM124.851 67.0995C124.851 65.6937 125.171 64.4606 125.823 63.3754C126.464 62.3026 127.329 61.464 128.408 60.8474C129.487 60.2432 130.673 59.9349 131.965 59.9349C133.258 59.9349 134.443 60.2432 135.522 60.8474C136.601 61.4517 137.479 62.3026 138.143 63.3754C138.807 64.4482 139.139 65.6937 139.139 67.0995C139.139 68.5053 138.807 69.8124 138.143 70.8976C137.479 71.9951 136.613 72.846 135.522 73.4502C134.443 74.0545 133.258 74.3628 131.965 74.3628C130.673 74.3628 129.487 74.0545 128.408 73.4502C127.329 72.846 126.464 71.9951 125.823 70.8976C125.183 69.8124 124.851 68.5423 124.851 67.0995ZM128.61 98.5079C127.637 98.5079 126.831 98.1873 126.203 97.5584C125.574 96.9295 125.266 96.0909 125.266 95.0551V88.9016C125.266 87.8658 125.574 87.0272 126.203 86.4107C126.831 85.7818 127.637 85.4611 128.61 85.4611H135.463C136.471 85.4611 137.277 85.7694 137.87 86.4107C138.463 87.0396 138.759 87.8658 138.759 88.9016V95.0551C138.759 96.0909 138.463 96.9171 137.87 97.5584C137.277 98.1873 136.471 98.5079 135.463 98.5079H128.61ZM129.238 67.0995C129.238 67.9874 129.511 68.6779 130.044 69.1835C130.59 69.6891 131.218 69.9358 131.953 69.9358C132.76 69.9358 133.412 69.6891 133.945 69.1835C134.467 68.6903 134.728 67.9874 134.728 67.0995C134.728 66.2116 134.467 65.5704 133.945 65.0771C133.424 64.5715 132.76 64.3249 131.953 64.3249C131.218 64.3249 130.59 64.5715 130.044 65.0771C129.499 65.5704 129.238 66.2486 129.238 67.0995ZM129.712 92.5764C129.712 93.0574 129.784 93.4396 129.926 93.7479C130.068 94.0439 130.4 94.1919 130.922 94.1919H132.914C133.471 94.1919 133.85 94.0439 134.04 93.7479C134.23 93.452 134.325 93.0574 134.325 92.5764V91.1953C134.325 90.7514 134.23 90.4061 134.04 90.1718C133.85 89.9251 133.459 89.8142 132.866 89.8142H131.04C130.554 89.8142 130.21 89.9498 130.021 90.2334C129.831 90.5171 129.736 90.85 129.736 91.257V92.5888L129.712 92.5764Z" fill="#CFA1C0"/>
<path d="M153 67.2192C153 65.8578 153.318 64.6636 153.965 63.6127C154.601 62.5738 155.461 61.7617 156.532 61.1646C157.604 60.5795 158.781 60.2809 160.064 60.2809C161.348 60.2809 162.525 60.5795 163.596 61.1646C164.668 61.7498 165.539 62.5738 166.198 63.6127C166.858 64.6517 167.187 65.8578 167.187 67.2192C167.187 68.5806 166.858 69.8465 166.198 70.8974C165.539 71.9602 164.68 72.7722 163.596 73.3693C162.525 73.9545 161.348 74.2531 160.064 74.2531C158.781 74.2531 157.604 73.9545 156.532 73.3693C155.461 72.7722 154.601 71.9602 153.965 70.8974C153.33 69.8465 153 68.6164 153 67.2192ZM157.356 67.2192C157.356 68.079 157.627 68.7478 158.157 69.2374C158.698 69.7151 159.322 69.9659 160.052 69.9659C160.853 69.9659 161.501 69.727 162.03 69.2374C162.549 68.7478 162.808 68.079 162.808 67.2192C162.808 66.3594 162.549 65.7384 162.03 65.2607C161.512 64.783 160.853 64.5323 160.052 64.5323C159.322 64.5323 158.698 64.7711 158.157 65.2607C157.615 65.7504 157.356 66.3952 157.356 67.2192ZM162.348 81.5138C162.348 80.8689 162.56 80.3315 162.972 79.9016C163.384 79.4717 163.926 79.2568 164.585 79.2568C165.174 79.2568 165.68 79.4717 166.116 79.9016C166.552 80.3315 166.763 80.8689 166.763 81.5138V84.9531C166.763 85.4547 166.905 85.9323 167.199 86.3742C167.493 86.816 167.988 87.0429 168.683 87.0429H174.181C174.805 87.0429 175.323 87.234 175.735 87.6281C176.147 88.0222 176.359 88.5238 176.359 89.1328C176.359 89.8135 176.147 90.3509 175.735 90.745C175.323 91.139 174.805 91.3301 174.181 91.3301H165.669C164.774 91.3301 163.985 91.0316 163.337 90.4464C162.678 89.8493 162.348 89.0373 162.348 87.9983V81.4899V81.5138ZM176.618 76.2951C176.618 76.9758 176.418 77.5371 176.018 77.967C175.617 78.3969 175.088 78.6119 174.428 78.6119C173.875 78.6119 173.38 78.3969 172.945 77.967C172.509 77.5371 172.297 76.9878 172.297 76.2951V74.468C172.297 74.0739 172.168 73.7873 171.909 73.6082C171.65 73.4291 171.379 73.3455 171.108 73.3455H169.86C169.201 73.3455 168.671 73.1663 168.271 72.8081C167.87 72.4498 167.67 71.9841 167.67 71.4109C167.67 70.8018 167.835 70.3241 168.165 69.9539C168.494 69.5957 169.059 69.4165 169.848 69.4165H171.096C171.897 69.4165 172.285 69.0344 172.285 68.294V67.2192C172.285 66.7177 172.179 66.3833 171.979 66.228C171.767 66.0608 171.473 65.9892 171.096 65.9892H169.848C169.189 65.9892 168.659 65.7981 168.259 65.4279C167.858 65.0458 167.658 64.58 167.658 64.0068C167.658 63.3978 167.823 62.9201 168.153 62.5618C168.482 62.2036 169.048 62.0244 169.836 62.0244H171.084C171.355 62.0244 171.626 61.9289 171.885 61.7259C172.144 61.5348 172.274 61.2363 172.274 60.8422V60.1973C172.274 60.0182 172.321 59.7555 172.403 59.4211C172.486 59.0867 172.686 58.7643 173.004 58.4538C173.31 58.1552 173.781 58 174.405 58C175.099 58 175.629 58.203 176.018 58.5852C176.394 58.9792 176.595 59.5166 176.595 60.1973V76.319L176.618 76.2951ZM196.822 77.3222C197.552 77.3222 198.093 77.5371 198.458 77.967C198.823 78.3969 199 78.8985 199 79.4717C199 80.0449 198.8 80.5345 198.4 80.9525C197.999 81.3705 197.469 81.5735 196.81 81.5735H182.529C181.869 81.5735 181.339 81.3705 180.916 80.9525C180.503 80.5465 180.292 80.0449 180.292 79.4717C180.292 78.8985 180.468 78.3969 180.833 77.967C181.198 77.5371 181.763 77.3222 182.517 77.3222H196.798H196.822ZM194.22 73.3932C193.666 72.82 193.184 72.3065 192.795 71.8408C192.395 71.375 191.971 70.9093 191.524 70.4436C191.006 69.942 190.535 69.6793 190.123 69.6434C189.711 69.6076 189.228 69.8584 188.674 70.3958C188.086 70.969 187.509 71.5661 186.932 72.1751C186.355 72.7842 185.872 73.3096 185.448 73.7276C184.895 74.2292 184.306 74.4083 183.682 74.265C183.058 74.1217 182.552 73.8709 182.175 73.5127C181.763 73.0111 181.575 72.4618 181.634 71.8408C181.681 71.2317 181.94 70.754 182.387 70.3838C182.599 70.2047 182.799 70.0375 183.011 69.8703C183.223 69.7032 183.447 69.536 183.682 69.3568C184.377 68.7836 185.048 68.1985 185.707 67.5894C186.367 66.9804 186.897 66.2639 187.297 65.4399C187.697 64.6159 187.862 63.6008 187.791 62.3708C187.721 61.7259 187.909 61.1885 188.368 60.7586C188.816 60.3287 189.334 60.1137 189.922 60.1137C190.546 60.1137 191.076 60.3287 191.535 60.7586C191.983 61.1885 192.171 61.7259 192.112 62.3708C192.042 63.6247 192.183 64.6517 192.524 65.4399C192.866 66.228 193.36 66.9087 194.008 67.4819C194.644 68.0552 195.35 68.6284 196.115 69.2016C196.327 69.3091 196.516 69.4404 196.692 69.5837C196.869 69.727 197.057 69.8703 197.269 70.0136C197.717 70.3719 197.952 70.9093 197.976 71.6258C197.987 72.3423 197.799 72.9156 197.375 73.3455C196.963 73.8112 196.433 74.05 195.786 74.0739C195.15 74.0978 194.632 73.8709 194.255 73.4052L194.22 73.3932ZM186.59 100C185.59 100 184.777 99.6895 184.177 99.0805C183.576 98.4714 183.27 97.6594 183.27 96.6563V86.9832C183.27 86.3384 183.482 85.8129 183.894 85.3949C184.306 84.977 184.824 84.774 185.448 84.774C186.072 84.774 186.602 84.977 187.038 85.3949C187.473 85.801 187.685 86.3384 187.685 86.9832V88.058C187.685 88.3446 187.733 88.5715 187.815 88.7268C187.897 88.882 188.098 88.9656 188.415 88.9656H191.324C191.665 88.9298 191.889 88.8342 191.971 88.6671C192.053 88.4999 192.101 88.2849 192.101 87.9983V86.816C192.101 86.207 192.301 85.6815 192.701 85.2278C193.101 84.774 193.631 84.559 194.291 84.559C194.879 84.559 195.385 84.7859 195.821 85.2278C196.257 85.6696 196.469 86.207 196.469 86.816V96.5965C196.469 97.5997 196.174 98.4117 195.586 99.0447C194.997 99.6656 194.196 99.9881 193.196 99.9881H186.602L186.59 100ZM187.627 94.4112C187.627 94.7694 187.674 95.0918 187.756 95.3785C187.838 95.6651 188.133 95.8084 188.616 95.8084H190.947C191.465 95.8084 191.794 95.6651 191.936 95.3785C192.077 95.0918 192.148 94.7694 192.148 94.4112V93.9812C192.148 93.6946 192.077 93.42 191.936 93.1811C191.794 92.9303 191.453 92.799 190.9 92.799H188.616C188.168 92.799 187.886 92.9184 187.78 93.1811C187.674 93.4319 187.627 93.6946 187.627 93.9812V94.4112Z" fill="#DDBED4"/>
</svg>
