<svg width="192" height="78" viewBox="0 0 192 78" fill="none" xmlns="http://www.w3.org/2000/svg">
<path d="M182.255 54.5562C182.974 54.9676 183.891 54.7182 184.302 53.9992L191.007 42.2818C191.418 41.5627 191.169 40.6463 190.45 40.2349C189.731 39.8235 188.814 40.0728 188.403 40.7919L182.443 51.2074L172.028 45.2477C171.308 44.8363 170.392 45.0856 169.981 45.8047C169.569 46.5237 169.819 47.4401 170.538 47.8516L182.255 54.5562ZM11 63.2543L12.4953 63.3724C13.9535 44.9027 23.9017 30.5633 38.4456 20.528C53.0162 10.4743 72.1718 4.77144 91.8324 3.68947C131.308 1.51702 171.832 17.9257 181.553 53.6481L183 53.2542L184.447 52.8604C174.168 15.0827 131.692 -1.50861 91.6676 0.694007C71.5782 1.79957 51.8588 7.62803 36.7419 18.0587C21.5983 28.5078 11.0465 43.606 9.50465 63.1363L11 63.2543Z" fill="#F17475"/>
<circle cx="9" cy="9" r="7.5" transform="matrix(-1 0 0 1 18 59.2549)" fill="white" stroke="#E67671" stroke-width="3"/>
</svg>
