<svg width="171" height="135" viewBox="0 0 171 135" fill="none" xmlns="http://www.w3.org/2000/svg">
<path d="M32.1278 1.01496C31.584 0.390002 30.6366 0.324204 30.0116 0.868L19.8272 9.72967C19.2023 10.2735 19.1365 11.2209 19.6803 11.8459C20.2241 12.4709 21.1715 12.5367 21.7965 11.9929L30.8493 4.11582L38.7263 13.1686C39.2701 13.7935 40.2176 13.8593 40.8425 13.3155C41.4675 12.7717 41.5333 11.8243 40.9895 11.1993L32.1278 1.01496ZM161.996 88.9996L161.825 87.5094C130.368 91.1295 106.24 91.9914 87.8174 90.1553C69.389 88.3187 56.8181 83.7962 48.3271 76.7806C39.8707 69.7937 35.2773 60.1804 33.1148 47.7502C30.9452 35.2795 31.2433 20.0931 32.4926 2.10351L30.9962 1.99959L29.4998 1.89567C28.2491 19.9061 27.9223 35.4071 30.1592 48.2644C32.4031 61.1624 37.2474 71.5178 46.4162 79.0934C55.5504 86.6403 68.7921 91.2741 87.5199 93.1406C106.253 95.0076 130.625 94.1197 162.168 90.4898L161.996 88.9996Z" fill="#E67671"/>
<circle cx="9" cy="9" r="7.5" transform="matrix(-1 0 0 1 171 80)" fill="white" stroke="#E67671" stroke-width="3"/>
</svg>
