<svg width="30" height="25" viewBox="0 0 30 25" fill="none" xmlns="http://www.w3.org/2000/svg">
<path d="M29.0288 9.19592C27.616 6.13886 23.8487 4.95395 21.5413 5.85448C21.1174 2.70263 18.6922 0.261719 14.9956 0.261719C11.2989 0.261719 8.89726 2.70263 8.44989 5.85448C6.14242 4.95395 2.37511 6.13886 0.962374 9.19592C-0.63873 12.6559 0.632735 16.1158 2.91666 17.3481C3.01085 17.2533 5.34186 15.0731 10.0745 16.7082C12.9707 17.7036 14.3363 19.1729 14.972 20.3815C15.6078 19.1729 16.9734 17.7036 19.8695 16.7082C24.6022 15.0731 26.9332 17.2533 27.0274 17.3481C29.3113 16.1158 30.5828 12.6559 28.9817 9.19592" fill="#CC5539"/>
<path d="M14.9951 20.9492L14.7597 20.4989C14.1946 19.4325 12.9231 17.9632 10.0034 16.9442C5.3885 15.3564 3.19876 17.4418 3.10457 17.5366L2.9633 17.7499L2.77493 17.6077C0.491007 16.328 -0.945278 12.7259 0.726464 9.07639C2.1392 6.04303 5.76523 4.73963 8.23753 5.49797C8.84971 2.20393 11.5339 0 14.9951 0C18.4563 0 21.1405 2.20393 21.7527 5.49797C24.225 4.73963 27.8511 6.04303 29.2638 9.07639C30.9591 12.7259 29.4992 16.328 27.1918 17.584L27.027 17.6788L26.8857 17.5366C26.8857 17.5366 24.5782 15.3327 19.9868 16.9442C17.0671 17.9632 15.7957 19.4325 15.2306 20.4989L14.9951 20.9492ZM6.7777 15.8304C7.74307 15.8304 8.87326 15.9963 10.1918 16.4465C12.9231 17.3944 14.3123 18.7452 14.9951 19.8354C15.678 18.7452 17.0671 17.3944 19.7984 16.4465C24.1308 14.9535 26.5325 16.565 27.0976 17.039C29.099 15.8067 30.2763 12.5837 28.7693 9.31338C27.4508 6.4459 23.8247 5.23729 21.635 6.11412L21.3289 6.23262L21.2818 5.90084C20.8109 2.65419 18.3622 0.545058 14.9951 0.545058C11.6281 0.545058 9.17935 2.65419 8.70844 5.90084L8.66135 6.23262L8.35525 6.11412C6.14196 5.23729 2.53948 6.4696 1.22092 9.31338C-0.285999 12.5837 0.891283 15.8067 2.89266 17.039C3.24585 16.7546 4.51731 15.8304 6.7777 15.8304Z" fill="#C8A374"/>
<path d="M11.8181 18.6741C11.6297 18.6741 11.4885 18.5082 11.4885 18.3186C11.5591 16.2569 10.8998 13.0576 9.76964 11.612C9.76964 11.612 9.7461 11.5883 9.72255 11.5883C9.34582 11.5883 9.03972 11.3276 8.96909 10.9722C8.89845 10.5693 9.15745 10.1664 9.55773 10.0953C9.60482 10.0953 9.65191 10.0953 9.699 10.0953C10.0522 10.0953 10.3583 10.356 10.4289 10.7115C10.4525 10.8774 10.4289 11.067 10.3583 11.2091C10.3583 11.2091 10.3583 11.2565 10.3583 11.2802C11.5827 12.9391 12.2419 16.2569 12.1713 18.366C12.1713 18.5556 12.0065 18.6978 11.8181 18.6978V18.6741ZM18.2932 18.6741C18.1048 18.6741 17.9635 18.5319 17.94 18.3423C17.8693 16.2332 18.5286 12.9154 19.753 11.2565C19.753 11.2328 19.753 11.2091 19.753 11.1855C19.6824 11.0196 19.6353 10.8537 19.6824 10.6878C19.753 10.3323 20.0591 10.0716 20.4123 10.0716C20.4594 10.0716 20.5065 10.0716 20.5535 10.0716C20.9538 10.1427 21.2128 10.5456 21.1422 10.9485C21.0716 11.3039 20.7655 11.5646 20.4123 11.5646C20.4123 11.5646 20.3652 11.5646 20.3416 11.5883C19.2114 13.0339 18.5522 16.2095 18.6228 18.2949C18.6228 18.4845 18.4815 18.6504 18.2932 18.6504V18.6741ZM13.3486 19.0295C13.1602 19.0295 13.0189 18.8637 13.0189 18.6741C13.1602 15.0956 12.7364 11.8964 11.8887 10.3323C11.8887 10.3323 11.8652 10.2849 11.8181 10.2849C11.4178 10.2612 11.1353 9.92945 11.1353 9.52658C11.1353 9.10001 11.4649 8.76824 11.8887 8.76824C12.3126 8.76824 12.6422 9.10001 12.6422 9.52658C12.6422 9.66877 12.5951 9.81096 12.5245 9.92945C12.5245 9.95315 12.5245 9.97684 12.5245 10.0005C13.5605 11.9912 13.8195 15.7829 13.7253 18.6741C13.7253 18.8637 13.5605 19.0058 13.3721 19.0058L13.3486 19.0295ZM16.7627 19.0295C16.5743 19.0295 16.4331 18.8874 16.4095 18.6978C16.2918 15.8066 16.5508 12.0149 17.6103 10.0242C17.6103 10.0242 17.6103 9.97684 17.6103 9.95315C17.5397 9.83466 17.4926 9.69247 17.4926 9.55028C17.4926 9.12371 17.8223 8.79194 18.2461 8.79194C18.6699 8.79194 18.9995 9.12371 18.9995 9.55028C18.9995 9.92945 18.6934 10.2612 18.3167 10.3086C18.2932 10.3086 18.2696 10.3086 18.2461 10.356C17.422 11.9201 16.9746 15.0956 17.1159 18.6978C17.1159 18.8874 16.9746 19.0532 16.7862 19.0532L16.7627 19.0295ZM19.9885 19.1006C19.8001 19.1006 19.6588 18.9584 19.6588 18.7689C19.5646 16.1147 20.2945 13.9581 21.7779 12.5362C21.7779 12.5362 21.8015 12.4889 21.7779 12.4652C21.7308 12.323 21.7308 12.1808 21.7779 12.0623C21.8486 11.7305 22.1547 11.4698 22.5078 11.4698C22.5785 11.4698 22.6256 11.4698 22.6727 11.4698C22.861 11.5172 23.0258 11.6357 23.1436 11.8016C23.2378 11.9675 23.2848 12.1808 23.2378 12.3704C23.1671 12.7021 22.861 12.9391 22.5078 12.9391C22.4607 12.9391 22.4137 12.9391 22.3666 12.9391C22.3666 12.9391 22.343 12.9391 22.3195 12.9391C21.3776 13.8396 20.271 15.5933 20.3652 18.6978C20.3652 18.8874 20.2239 19.0532 20.0355 19.0532H20.012L19.9885 19.1006ZM10.0757 19.1006C9.88737 19.1006 9.74609 18.9347 9.74609 18.7452C9.88737 15.617 8.78072 13.887 7.8389 12.9628C7.8389 12.9628 7.81535 12.9628 7.79181 12.9628C7.79181 12.9628 7.69762 12.9628 7.65053 12.9628C7.29735 12.9628 6.99125 12.7258 6.92062 12.3704C6.87353 12.1808 6.92062 11.9675 7.0148 11.8016C7.10898 11.6357 7.29735 11.5172 7.48571 11.4698C7.5328 11.4698 7.60344 11.4698 7.65053 11.4698C8.00372 11.4698 8.30981 11.7068 8.38045 12.0623C8.40399 12.2045 8.38045 12.3467 8.38045 12.4652C8.38045 12.4889 8.38045 12.5125 8.38045 12.5362C9.84028 13.9818 10.5466 16.1621 10.4525 18.7926C10.4525 18.9821 10.2876 19.1243 10.1228 19.1243H10.0993L10.0757 19.1006ZM8.82781 20.0723C8.63945 20.0723 8.49817 19.9301 8.47463 19.7405C8.28626 16.636 7.03834 15.0246 6.02588 14.1951C6.02588 14.1951 6.00234 14.1951 5.97879 14.1951C5.97879 14.1951 5.97879 14.1951 5.95524 14.1951C5.90815 14.1951 5.86106 14.2425 5.81397 14.2425C5.74333 14.2425 5.69624 14.2425 5.62561 14.2425C5.27242 14.2425 4.98987 14.0055 4.89569 13.6738C4.80151 13.2709 5.03696 12.868 5.43724 12.7495C5.50788 12.7495 5.55497 12.7258 5.62561 12.7258C5.97879 12.7258 6.26134 12.9628 6.35552 13.2946C6.35552 13.3657 6.37907 13.4368 6.35552 13.5079C6.35552 13.5316 6.35552 13.5553 6.37907 13.579C8.02726 14.8587 8.96909 16.9678 9.13391 19.6694C9.13391 19.859 8.99263 20.0249 8.80427 20.0249L8.82781 20.0723ZM21.2835 20.0723C21.2835 20.0723 21.1186 20.0249 21.048 19.9538C20.9774 19.8827 20.9538 19.7879 20.9538 19.6931C21.1186 16.9915 22.0605 14.9061 23.7087 13.6027C23.7087 13.6027 23.7322 13.5553 23.7322 13.5316C23.7322 13.4605 23.7322 13.3894 23.7322 13.3183C23.8264 12.9865 24.1089 12.7495 24.4621 12.7495C24.5328 12.7495 24.5799 12.7495 24.6505 12.7732C25.0508 12.868 25.2862 13.2709 25.192 13.6975C25.0979 14.0292 24.8153 14.2662 24.4621 14.2662C24.3915 14.2662 24.3444 14.2662 24.2738 14.2662C24.2267 14.2662 24.1796 14.2425 24.1325 14.2188C24.1325 14.2188 24.1325 14.2188 24.1089 14.2188C24.1089 14.2188 24.0854 14.2188 24.0619 14.2188C23.0494 15.0246 21.8015 16.6597 21.6131 19.7642C21.6131 19.9538 21.4483 20.096 21.2599 20.096L21.2835 20.0723ZM14.9968 20.404C14.8084 20.404 14.6436 20.2381 14.6436 20.0486V9.2896C14.6436 9.2896 14.6436 9.2422 14.5965 9.2185C14.361 9.07632 14.2198 8.83933 14.2198 8.57865C14.2198 8.17578 14.5494 7.82031 14.9732 7.82031C15.3971 7.82031 15.7267 8.15209 15.7267 8.57865C15.7267 8.83933 15.5854 9.10001 15.35 9.2185C15.3264 9.2185 15.3029 9.2659 15.3029 9.2896V20.0486C15.3029 20.2381 15.138 20.404 14.9497 20.404" fill="#C8A374"/>
<path d="M9.67601 16.3071C4.47242 14.4349 2.32976 16.9232 2.32976 16.9232C2.32976 16.9232 0.822841 22.4686 6.49734 24.3171C12.4544 26.2603 14.9031 20.5727 14.9031 20.5727C14.9031 20.5727 14.7383 18.1318 9.69955 16.3308" fill="#CC5539"/>
<path d="M8.84906 24.975C8.0956 24.975 7.29504 24.8565 6.40031 24.5721C0.560989 22.6762 2.04436 16.9176 2.06791 16.8702L2.115 16.7754C2.115 16.7754 4.44602 14.1686 9.76734 16.0881C14.9238 17.9366 15.1593 20.4723 15.1593 20.5671V20.6382V20.6856C15.1593 20.733 13.2521 24.9987 8.8726 24.9987L8.84906 24.975ZM2.56237 17.0598C2.4211 17.6996 1.47927 22.4156 6.56513 24.0507C11.9335 25.7807 14.3116 21.1596 14.6177 20.5197C14.5471 20.1642 13.9585 18.1262 9.57897 16.5621C4.96403 14.9032 2.86846 16.728 2.56237 17.0598Z" fill="#C8A374"/>
<path d="M20.1021 16.3071C25.3057 14.4349 27.4484 16.9232 27.4484 16.9232C27.4484 16.9232 28.9553 22.4686 23.2808 24.3171C17.3237 26.2603 14.875 20.5727 14.875 20.5727C14.875 20.5727 15.0398 18.1318 20.1021 16.3308" fill="#CC5539"/>
<path d="M20.9273 24.9749C16.5714 24.9749 14.6642 20.7092 14.6406 20.6618V20.6144V20.5434C14.6406 20.4486 14.8761 17.9129 20.0326 16.0644C25.3304 14.1449 27.5907 16.6569 27.6849 16.7516L27.732 16.8464C27.732 16.8464 29.2389 22.6762 23.3996 24.5483C22.5049 24.8327 21.7043 24.9512 20.9509 24.9512L20.9273 24.9749ZM15.1586 20.5197C15.4647 21.1832 17.8428 25.8043 23.2112 24.0507C28.3206 22.3918 27.3788 17.6759 27.214 17.0597C26.8844 16.728 24.8123 14.9032 20.1974 16.5621C15.8415 18.1261 15.2293 20.1642 15.1586 20.5197Z" fill="#C8A374"/>
</svg>
