<svg width="32" height="32" viewBox="0 0 32 32" fill="none" xmlns="http://www.w3.org/2000/svg">
<path d="M6.82409 29.4165C6.56282 29.4165 6.30155 29.5254 6.12736 29.6996C4.88631 30.8971 3.10093 31.289 1.48974 30.7882C2.51306 28.6327 2.66547 26.1724 1.85988 23.908C0.858324 21.0775 0.618823 18.2471 1.75101 15.3948C2.73079 12.8909 4.64681 10.8225 7.0636 9.625C6.91119 10.4306 6.84587 11.2362 6.84587 12.0418C6.84587 15.5037 8.17401 18.7696 10.5908 21.2299C13.0076 23.6903 16.2518 25.062 19.7354 25.1273C20.3886 25.1273 21.02 25.1055 21.6514 25.0184C19.7354 28.3714 16.1429 30.5487 12.1802 30.5923C10.4384 30.6141 8.78365 30.2657 7.23778 29.5254C7.10714 29.4601 6.95473 29.4165 6.80232 29.4165" fill="#FFF582"/>
<path d="M14.053 13.6961C14.9457 13.6961 15.6642 12.9776 15.6642 12.1067C15.6642 11.2358 14.9457 10.4955 14.053 10.4955C13.1604 10.4955 12.4418 11.214 12.4418 12.1067C12.4418 12.9994 13.1604 13.6961 14.053 13.6961ZM19.9535 13.6961C20.8462 13.6961 21.5647 12.9776 21.5647 12.1067C21.5647 11.2358 20.8462 10.4955 19.9535 10.4955C19.0608 10.4955 18.3423 11.214 18.3423 12.1067C18.3423 12.9994 19.0608 13.6961 19.9535 13.6961ZM25.8539 13.6961C26.7466 13.6961 27.4651 12.9776 27.4651 12.1067C27.4651 11.2358 26.7466 10.4955 25.8539 10.4955C24.9613 10.4955 24.2427 11.214 24.2427 12.1067C24.2427 12.9994 24.9613 13.6961 25.8539 13.6961ZM19.714 1.00251C25.8757 0.871873 30.9923 5.85786 31.0141 12.0196C31.0141 13.5219 30.7311 14.9807 30.1432 16.3524C30.1432 16.3524 30.1432 16.3959 30.1214 16.4177C29.3158 18.7039 29.4682 21.1424 30.4916 23.2979C28.9021 23.7987 27.095 23.4068 25.8539 22.2093C25.5491 21.9262 25.0919 21.8392 24.7218 22.0351C23.1759 22.7754 21.5211 23.1455 19.7793 23.102C13.6611 23.0149 8.87109 18.1595 8.87109 12.0414C8.87109 5.92318 13.7482 1.13315 19.714 1.00251Z" fill="#FFE55F"/>
</svg>
