<svg width="298" height="37" viewBox="0 0 298 37" fill="none" xmlns="http://www.w3.org/2000/svg">
<rect width="298" height="37" rx="10" fill="#41674B"/>
<path d="M13.984 10.936H23.776V16.6H13.984V10.936ZM15.984 12.616V14.92H21.776V12.616H15.984ZM12.064 17.768H25.696V19.464H20.112V22.056H18.096V19.464H12.064V17.768ZM16 20.808V23.432H24.08V25.144H13.984V20.808H16ZM27.0776 13.032V11.32H34.7576V13.032H31.9896V13.848C31.9896 14.632 32.1816 15.096 33.0296 15.752C33.7016 16.264 34.5016 16.808 35.3016 17.32L34.2296 18.744C33.5256 18.28 32.8536 17.816 32.2616 17.384C31.5896 16.888 31.1576 16.52 31.0936 16.36H31.0776C31.0136 16.552 30.5656 16.984 29.8296 17.56C29.1416 18.104 28.4376 18.648 27.6376 19.208L26.4536 17.736C27.4616 17.048 28.4216 16.312 29.0936 15.72C29.6536 15.224 29.9736 14.632 29.9736 13.848V13.032H27.0776ZM33.7496 25.752C30.9976 25.752 29.1736 24.568 29.1736 22.872V22.2C29.1736 20.504 30.9976 19.32 33.7496 19.32C36.5016 19.32 38.3256 20.504 38.3256 22.2V22.872C38.3256 24.568 36.5016 25.752 33.7496 25.752ZM38.2776 10.424V13.816H40.2296V15.576H38.2776V19.256H36.2616V10.424H38.2776ZM33.7496 20.968C32.1176 20.968 31.1576 21.72 31.1576 22.328V22.744C31.1576 23.352 32.1176 24.104 33.7496 24.104C35.3816 24.104 36.3416 23.352 36.3416 22.744V22.328C36.3416 21.72 35.3816 20.968 33.7496 20.968ZM42.6673 19.16H52.6033V23.016H44.6993V23.912H53.0353V25.432H42.7473V21.56H50.6513V20.68H42.6673V19.16ZM40.8753 16.744H54.5073V18.296H40.8753V16.744ZM47.6913 16.04C44.7633 16.04 42.8273 15.016 42.8273 13.432V13.048C42.8273 11.464 44.7633 10.44 47.6913 10.44C50.6193 10.44 52.5553 11.464 52.5553 13.048V13.432C52.5553 15.016 50.6193 16.04 47.6913 16.04ZM47.6913 12.04C45.5793 12.04 44.8273 12.648 44.8273 13.128V13.352C44.8273 13.832 45.5793 14.44 47.6913 14.44C49.8033 14.44 50.5553 13.832 50.5553 13.352V13.128C50.5553 12.648 49.8033 12.04 47.6913 12.04ZM61.7929 10.792H71.6809V13.032C71.6809 13.96 71.5849 15.368 71.4249 16.376H73.5529V17.928H59.9209V16.376H69.4409C69.5209 15.992 69.5689 15.592 69.6009 15.176L61.6649 15.32L61.6169 13.688L69.6969 13.56V12.456H61.7929V10.792ZM61.7129 19H71.6489V22.936H63.7449V23.912H72.0809V25.432H61.7929V21.48H69.6969V20.52H61.7129V19ZM76.8385 21.912V20.216H86.6945V25.496H84.6785V21.912H76.8385ZM86.6945 10.424V19.544H84.6785V10.424H86.6945ZM77.1745 15.8V17.208C79.4145 17.208 81.3505 17.176 83.3665 16.984L83.5425 18.648C81.6385 18.856 79.2705 18.888 75.1905 18.888V14.184H80.0225V12.776H75.1905V11.096H82.0065V15.8H77.1745ZM100.54 10.424V16.184H102.588V17.944H100.54V25.304H98.5081V10.424H100.54ZM93.1481 22.056C90.7801 22.056 89.4681 20.504 89.4681 18.92V17.976C89.4681 16.392 90.7801 14.84 93.1481 14.84C95.5161 14.84 96.8281 16.392 96.8281 17.976V18.92C96.8281 20.504 95.5161 22.056 93.1481 22.056ZM93.1481 20.36C94.2841 20.36 94.9561 19.576 94.9561 18.76V18.136C94.9561 17.32 94.2841 16.536 93.1481 16.536C92.0121 16.536 91.3401 17.32 91.3401 18.136V18.76C91.3401 19.576 92.0121 20.36 93.1481 20.36ZM92.1241 10.536H94.1721V12.456H97.3721V14.168H88.7801V12.456H92.1241V10.536ZM110.722 11.304V18.584H103.746V11.304H110.722ZM108.722 16.888V13H105.746V16.888H108.722ZM111.49 12.52H113.49V10.424H115.49V21.016H113.49V17.4H111.49V15.688H113.49V14.232H111.49V12.52ZM108.05 20.152V23.416H115.73V25.144H106.018V20.152H108.05ZM124.087 25.304V20.088H133.911V25.304H124.087ZM126.087 21.704V23.688H131.911V21.704H126.087ZM122.183 17.384H135.815V19.016H122.183V17.384ZM128.999 16.536C126.135 16.536 124.119 15.56 124.119 13.752V13.368C124.119 11.56 126.135 10.584 128.999 10.584C131.863 10.584 133.879 11.56 133.879 13.368V13.752C133.879 15.56 131.863 16.536 128.999 16.536ZM128.999 12.2C127.367 12.2 126.119 12.712 126.119 13.432V13.688C126.119 14.408 127.367 14.92 128.999 14.92C130.631 14.92 131.879 14.408 131.879 13.688V13.432C131.879 12.712 130.631 12.2 128.999 12.2ZM141.501 16.376C139.389 16.376 137.757 15.304 137.757 13.752V13.304C137.757 11.752 139.389 10.68 141.501 10.68C143.613 10.68 145.245 11.752 145.245 13.304V13.752C145.245 15.304 143.613 16.376 141.501 16.376ZM144.157 20.808V19.176H147.101V10.424H149.117V21.912H147.101V20.808H144.157ZM141.245 21.176V23.464H149.357V25.192H139.213V21.176H141.245ZM136.797 18.696V17C141.693 17 144.109 16.92 146.205 16.728L146.349 18.408C145.341 18.536 144.045 18.616 142.285 18.648V20.6H140.285V18.68C139.245 18.696 138.093 18.696 136.797 18.696ZM141.501 12.328C140.413 12.328 139.661 12.808 139.661 13.416V13.64C139.661 14.248 140.413 14.728 141.501 14.728C142.589 14.728 143.341 14.248 143.341 13.64V13.416C143.341 12.808 142.589 12.328 141.501 12.328ZM152.787 19.16H162.723V23.016H154.819V23.912H163.155V25.432H152.867V21.56H160.771V20.68H152.787V19.16ZM150.995 16.744H164.627V18.296H150.995V16.744ZM157.811 16.04C154.883 16.04 152.947 15.016 152.947 13.432V13.048C152.947 11.464 154.883 10.44 157.811 10.44C160.739 10.44 162.675 11.464 162.675 13.048V13.432C162.675 15.016 160.739 16.04 157.811 16.04ZM157.811 12.04C155.699 12.04 154.947 12.648 154.947 13.128V13.352C154.947 13.832 155.699 14.44 157.811 14.44C159.923 14.44 160.675 13.832 160.675 13.352V13.128C160.675 12.648 159.923 12.04 157.811 12.04ZM171.832 19.16H181.768V23.016H173.864V23.912H182.2V25.432H171.912V21.56H179.816V20.68H171.832V19.16ZM170.04 16.632H183.672V18.184H170.04V16.632ZM181.608 10.776V12.328H173.976V14.12H181.72V15.672H171.976V10.776H181.608ZM186.238 19.16H196.174V23.016H188.27V23.912H196.606V25.432H186.318V21.56H194.222V20.68H186.238V19.16ZM184.446 16.744H198.078V18.296H184.446V16.744ZM191.262 16.04C188.334 16.04 186.398 15.016 186.398 13.432V13.048C186.398 11.464 188.334 10.44 191.262 10.44C194.19 10.44 196.126 11.464 196.126 13.048V13.432C196.126 15.016 194.19 16.04 191.262 16.04ZM191.262 12.04C189.15 12.04 188.398 12.648 188.398 13.128V13.352C188.398 13.832 189.15 14.44 191.262 14.44C193.374 14.44 194.126 13.832 194.126 13.352V13.128C194.126 12.648 193.374 12.04 191.262 12.04ZM203.492 18.728H217.124V20.44H211.332V25.304H209.3V20.44H203.492V18.728ZM210.356 15.016H210.34C210.196 15.32 209.556 15.72 208.516 16.248C207.62 16.696 206.196 17.352 205.188 17.768L204.356 16.104C205.476 15.64 206.82 15.032 207.892 14.456C208.884 13.928 209.284 13.32 209.284 12.344V10.936H211.332V12.344C211.332 13.32 211.732 13.928 212.724 14.456C213.796 15.032 215.14 15.64 216.26 16.104L215.444 17.736C214.436 17.32 213.012 16.664 212.116 16.216C211.076 15.688 210.516 15.304 210.356 15.016ZM234.905 10.424V18.632H232.889V10.424H234.905ZM230.057 25.416C229.449 24.968 228.745 24.376 228.281 23.944C227.769 23.48 227.529 23.192 227.449 23C227.369 23.192 227.017 23.592 226.537 23.992C225.993 24.456 225.273 25.048 224.809 25.4L223.705 24.024C224.249 23.624 224.921 23.096 225.481 22.616C226.249 21.944 226.441 21.544 226.441 20.6V19.272H228.425V20.568C228.425 21.48 228.505 21.816 229.065 22.392C229.337 22.664 229.625 22.936 230.057 23.272C230.489 22.936 230.777 22.664 231.049 22.392C231.593 21.832 231.673 21.48 231.673 20.568V19.272H233.657V20.6C233.657 21.56 233.833 21.928 234.633 22.616C235.193 23.096 235.865 23.624 236.409 24.024L235.321 25.368C234.857 25.016 234.121 24.424 233.577 23.96C233.113 23.56 232.793 23.208 232.697 23C232.617 23.208 232.345 23.48 231.833 23.944C231.369 24.376 230.665 24.968 230.057 25.416ZM226.825 18.232C224.441 18.232 223.017 16.6 223.017 14.824V14.248C223.017 12.472 224.441 10.84 226.825 10.84C229.209 10.84 230.633 12.472 230.633 14.248V14.824C230.633 16.6 229.209 18.232 226.825 18.232ZM226.825 12.552C225.625 12.552 224.937 13.48 224.937 14.296V14.776C224.937 15.592 225.625 16.52 226.825 16.52C228.025 16.52 228.713 15.592 228.713 14.776V14.296C228.713 13.48 228.025 12.552 226.825 12.552ZM246.671 19.48H248.671V25.32H238.847V19.48H240.847V20.728H246.671V19.48ZM240.847 23.688H246.671V22.296H240.847V23.688ZM236.943 17.08H250.575V18.728H236.943V17.08ZM243.791 13.96H243.775C243.631 14.216 243.119 14.584 241.903 15.144C240.943 15.592 239.919 16.04 238.703 16.52L237.935 14.904C239.023 14.488 240.239 13.96 241.263 13.464C242.239 12.984 242.735 12.504 242.735 11.512V10.504H244.783V11.512C244.783 12.488 245.263 12.984 246.239 13.464C247.263 13.96 248.479 14.488 249.567 14.904L248.815 16.488C247.599 16.008 246.543 15.544 245.615 15.112C244.431 14.568 243.919 14.216 243.791 13.96ZM263.876 10.424V25.304H261.844V10.424H263.876ZM254.548 11.608V19.64H255.604C257.124 19.64 259.012 19.528 260.516 19.32L260.74 21.064C259.236 21.304 257.076 21.4 255.124 21.4H252.5V11.608H254.548ZM277.562 10.424V15.64H279.61V17.4H277.562V25.304H275.53V10.424H277.562ZM266.506 21.448V11.704H273.386V13.448H268.538V19.704H269.546C271.066 19.704 272.954 19.592 274.458 19.384L274.682 21.112C273.178 21.352 271.018 21.448 269.066 21.448H266.506ZM281.824 24.152V22.072H283.856V24.152H281.824Z" fill="#CDEED3"/>
</svg>
