<svg width="24" height="52" viewBox="0 0 24 52" fill="none" xmlns="http://www.w3.org/2000/svg">
<path d="M23.32 31.16C23.32 32.8667 23.0133 34.3867 22.4 35.72C21.8133 37.0533 21 38.1867 19.96 39.12C18.9467 40.0267 17.7467 40.72 16.36 41.2C15 41.68 13.56 41.92 12.04 41.92C11.16 41.92 10.2533 41.8533 9.32 41.72C8.41333 41.6133 7.53333 41.4267 6.68 41.16C5.85333 40.8933 5.09333 40.5333 4.4 40.08C3.70667 39.6267 3.12 39.08 2.64 38.44C2.10667 37.6933 1.86667 36.8533 1.92 35.92C2 34.9867 2.38667 34.2133 3.08 33.6C3.64 33.0933 4.28 32.8133 5 32.76C5.72 32.7067 6.38667 32.76 7 32.92C7.37333 33.0267 7.70667 33.2 8 33.44C8.32 33.68 8.58667 33.8667 8.8 34C9.25333 34.2933 9.72 34.48 10.2 34.56C10.7067 34.6133 11.2667 34.64 11.88 34.64C12.8933 34.64 13.7467 34.2933 14.44 33.6C15.1333 32.9067 15.48 32.0133 15.48 30.92C15.48 30.3333 15.3467 29.8267 15.08 29.4C14.84 28.9467 14.4933 28.5733 14.04 28.28C13.6133 27.96 13.1067 27.72 12.52 27.56C11.96 27.4 11.3467 27.32 10.68 27.32H8.76C8.17333 27.32 7.62667 27.1067 7.12 26.68C6.64 26.2533 6.33333 25.76 6.2 25.2C6.01333 24.48 6.01333 23.8133 6.2 23.2C6.38667 22.56 6.82667 21.9333 7.52 21.32L13.68 15.8H5.8C5.21333 15.8 4.70667 15.7067 4.28 15.52C3.88 15.3067 3.54667 15.04 3.28 14.72C3.01333 14.4 2.81333 14.0533 2.68 13.68C2.57333 13.28 2.52 12.88 2.52 12.48C2.52 12.1067 2.57333 11.72 2.68 11.32C2.81333 10.92 3.01333 10.56 3.28 10.24C3.54667 9.92 3.88 9.65333 4.28 9.44C4.70667 9.22666 5.21333 9.12 5.8 9.12H18.24C19.3067 9.12 20.2 9.4 20.92 9.96C21.6667 10.52 22.1867 11.2 22.48 12C22.8 12.8 22.88 13.6533 22.72 14.56C22.56 15.44 22.1467 16.2133 21.48 16.88L15.88 22.44C16.7867 22.5467 17.68 22.8267 18.56 23.28C19.4667 23.7333 20.2667 24.3333 20.96 25.08C21.68 25.8267 22.2533 26.72 22.68 27.76C23.1067 28.7733 23.32 29.9067 23.32 31.16Z" fill="#421D1B"/>
</svg>
