<svg width="12" height="12" viewBox="0 0 12 12" fill="none" xmlns="http://www.w3.org/2000/svg">
<path d="M0.815232 7.32762C-0.275622 7.67753 -0.0899446 8.58319 0.327829 9.13894C0.815232 9.81818 1.62757 10.2298 2.34707 9.63293L5.20186 7.36878L4.52878 10.6621C4.36631 11.5678 5.20186 12 6.01419 12C6.82653 12 7.7085 11.5678 7.4764 10.6621L6.89616 7.36878L9.65811 9.63293C10.424 10.2298 11.2364 9.83876 11.7238 9.13894C12.0719 8.52144 12.2112 7.78045 11.2364 7.36878L7.45319 6.03088L11.2364 4.6518C12.2576 4.30189 12.0719 3.43739 11.7238 2.88165C11.2364 2.18182 10.424 1.7084 9.65811 2.34648L6.89616 4.6518L7.4764 1.39966C7.7085 0.432247 6.82653 0 6.01419 0C5.20186 0 4.36631 0.432247 4.52878 1.39966L5.20186 4.6518L2.34707 2.34648C1.60436 1.72899 0.815232 2.16124 0.327829 2.88165C-0.113154 3.41681 -0.229203 4.30189 0.815232 4.6518L4.5752 6.03088L0.815232 7.3482V7.32762Z" fill="#C84935"/>
</svg>
