<svg width="34" height="34" viewBox="0 0 34 34" fill="none" xmlns="http://www.w3.org/2000/svg">
<path d="M20.4565 19.696V19.41C20.4565 17.408 19.2345 16.29 17.1545 16.29C15.5685 16.29 14.4245 16.966 13.5925 17.772H11.3565L11.9545 6.93H22.5885V9.686H14.9445L14.7365 14.574C15.5945 14.054 16.6605 13.612 18.2205 13.612C21.8345 13.612 23.8105 16.316 23.8105 19.332V19.722C23.8105 22.712 21.8345 25.962 17.1285 25.962C14.4245 25.962 12.3445 25.416 10.4725 23.882L12.0845 21.256C13.8525 22.66 15.3605 22.946 17.1025 22.946C19.3905 22.946 20.4565 21.568 20.4565 19.696Z" fill="white"/>
</svg>
