<svg width="30" height="29" viewBox="0 0 30 29" fill="none" xmlns="http://www.w3.org/2000/svg">
<g clip-path="url(#clip0_1912_39299)">
<path d="M17.2482 14.9643C17.2482 14.9643 17.0341 15.0357 16.9151 15.0595C16.9151 14.9405 16.8676 14.7978 16.8438 14.6788C16.7962 14.5599 16.7486 14.4409 16.701 14.322C16.7962 14.2744 16.9151 14.2506 17.0103 14.203C17.7478 13.9651 19.5321 13.4655 19.6273 13.7748C19.7224 14.0603 18.0571 14.7026 17.2482 14.9643ZM17.8192 19.3418C17.5813 19.5321 16.4631 18.1523 15.9635 17.4385C15.8921 17.3434 15.8208 17.2482 15.7732 17.1531C15.8921 17.1055 16.0111 17.0341 16.1063 16.9627C16.2252 16.8914 16.2966 16.7962 16.3918 16.701C16.4631 16.7962 16.5345 16.8676 16.6059 16.9627C17.0579 17.5813 18.0809 19.1515 17.843 19.318M14.9167 16.7486C14.1079 16.7486 13.4655 16.1063 13.4655 15.2974C13.4655 14.4885 14.1079 13.8462 14.9167 13.8462C15.7256 13.8462 16.368 14.4885 16.368 15.2974C16.368 16.1063 15.7256 16.7486 14.9167 16.7486ZM13.8462 17.4385C13.3941 18.0571 12.2284 19.5083 11.9905 19.3418C11.7526 19.1753 12.7042 17.6764 13.2276 16.9865C13.299 16.8914 13.3703 16.7962 13.4417 16.7248C13.5369 16.82 13.632 16.9151 13.7272 16.9865C13.8224 17.0579 13.9413 17.1293 14.0603 17.1768C13.9889 17.272 13.9413 17.3672 13.8699 17.4623M10.2062 13.7986C10.3013 13.5131 12.0143 13.9651 12.8232 14.2268C12.9421 14.2506 13.0373 14.2982 13.1562 14.3458C13.0849 14.4647 13.0373 14.5837 13.0135 14.7026C12.9897 14.8216 12.9421 14.9405 12.9421 15.0833C12.8232 15.0595 12.728 15.0357 12.609 14.9881C11.8715 14.7502 10.1348 14.0841 10.23 13.7986M14.9643 10.3489C15.2736 10.3489 15.3688 12.1094 15.3688 12.9897C15.3688 13.1086 15.3688 13.2276 15.3688 13.3228C15.2498 13.299 15.1071 13.2752 14.9881 13.2752C14.8692 13.2752 14.7264 13.2752 14.6075 13.3228C14.6075 13.2038 14.6075 13.0849 14.6075 12.9897C14.6075 12.2046 14.7026 10.3489 15.0119 10.3489M24.5519 16.9389C27.2165 16.0825 29.3577 13.632 30.0238 11.9429C29.3577 11.6812 28.6915 11.3957 28.0016 11.1102C28.3822 10.4679 28.7629 9.84933 29.1435 9.23077C27.6209 8.25535 24.4568 7.54163 21.7922 8.3981C20.4124 8.85012 19.2942 9.659 18.4615 10.5868C19.0801 9.51626 19.5083 8.20777 19.5083 6.75654C19.5083 3.94925 17.843 1.16574 16.4393 0C15.9873 0.547185 15.5115 1.09437 15.0119 1.66534C14.5123 1.09437 14.0603 0.570975 13.5845 0C12.1808 1.16574 10.5155 3.94925 10.5155 6.75654C10.5155 8.20777 10.9437 9.51626 11.5623 10.5868C10.7296 9.68279 9.63521 8.85012 8.23156 8.3981C5.56701 7.54163 2.40285 8.25535 0.880254 9.23077C1.2609 9.84933 1.64155 10.4441 2.0222 11.1102C1.33228 11.4195 0.666138 11.6812 0 11.9429C0.666138 13.632 2.8073 16.0825 5.47185 16.9389C6.85171 17.391 8.23156 17.391 9.44489 17.1293C8.32673 17.6289 7.20856 18.4377 6.3521 19.6035C4.71055 21.8636 4.40127 25.0991 4.85329 26.8596C5.56701 26.6693 6.25694 26.5028 6.99445 26.36C7.06582 27.0975 7.13719 27.8113 7.16098 28.5488C8.96907 28.4298 11.9667 27.1451 13.6082 24.885C14.4647 23.6955 14.8929 22.387 15.0119 21.1737C15.1308 22.387 15.5591 23.7193 16.4155 24.885C18.0571 27.1451 21.0547 28.4298 22.8628 28.5488C22.9104 27.8351 22.958 27.1213 23.0293 26.36C23.7669 26.5266 24.4568 26.6931 25.1467 26.8596C25.5987 25.0991 25.3132 21.8636 23.6479 19.6035C22.7914 18.414 21.6733 17.6289 20.5551 17.1293C21.7684 17.391 23.1245 17.391 24.5282 16.9389" fill="#E67491"/>
</g>
<defs>
<clipPath id="clip0_1912_39299">
<rect width="30" height="29" fill="white"/>
</clipPath>
</defs>
</svg>
