<svg width="190" height="44" viewBox="0 0 190 44" fill="none" xmlns="http://www.w3.org/2000/svg">
<path d="M175.993 44H40V4H190V30.4948C190 37.9519 183.727 44 175.993 44Z" fill="#FFCFD9"/>
<path d="M54.132 32.776C54.132 28.42 59.532 27.232 66.156 27.232C72.78 27.232 78.18 27.916 78.18 32.776C78.18 37.564 72.78 38.32 66.156 38.32C59.532 38.32 54.132 37.564 54.132 32.776ZM77.856 12.184V24.244C77.856 24.316 77.82 25.612 76.848 26.188C76.56 26.368 76.344 26.44 76.02 26.44C75.588 26.44 75.156 26.332 74.832 26.08C74.58 25.9 74.364 25.648 74.22 25.36C73.5 24.028 73.752 22.3 73.788 20.824V20.32C73.14 20.356 72.456 20.356 71.916 20.392H71.808V23.668C71.772 24.172 71.7 24.748 71.412 25.288C71.268 25.576 71.052 25.828 70.8 25.972C70.476 26.224 70.296 26.368 69.864 26.368C69.504 26.368 69.18 26.26 68.856 26.08C67.92 25.504 67.776 24.208 67.776 24.172V12.292C67.74 12.076 67.776 10.996 68.064 10.42C68.28 9.952 68.856 9.628 69.54 9.556C70.332 9.448 70.836 9.664 71.232 10.096C71.556 10.456 71.592 10.816 71.7 11.212C71.844 11.68 71.844 12.256 71.844 12.76C71.808 12.904 71.808 13.048 71.808 13.192V16.36C72.024 16.396 72.996 16.432 73.824 16.468V13.084V12.652C73.788 12.148 73.788 11.608 73.932 11.104C74.04 10.744 74.256 10.384 74.58 10.024C74.94 9.556 75.48 9.34 76.272 9.448C76.956 9.556 77.352 9.916 77.568 10.384C77.856 10.96 77.892 12.004 77.856 12.184ZM52.656 25.18C52.368 25.036 52.116 24.748 52.008 24.352C51.288 22.444 53.232 20.572 54.204 19.276C54.888 18.268 55.572 17.548 56.292 16.504C56.76 15.712 57.552 14.812 57.624 13.768C57.66 12.148 57.624 10.132 59.424 10.132C60.144 10.132 61.332 10.204 61.62 10.96C61.98 11.824 61.62 13.228 61.908 14.128C62.124 14.92 62.34 15.424 62.7 16.108C63.492 17.548 64.284 18.412 65.148 19.744C65.832 20.752 66.444 21.688 66.66 22.912C67.092 24.964 64.716 25.864 63.564 24.496L59.64 19.204L55.86 23.92C55.392 24.496 54.78 25.072 54.096 25.252C53.592 25.36 53.052 25.396 52.656 25.18ZM73.32 32.776C73.32 31.12 69.504 30.976 66.156 30.976C62.808 30.976 59.208 31.12 59.208 32.776C59.208 34.252 62.808 34.54 66.156 34.54C69.504 34.54 73.32 34.72 73.32 32.776ZM103.267 28.276C105.247 28.276 106.183 29.284 106.183 30.4V32.452C106.183 32.74 106.183 34.252 106.219 34.504C106.219 35.008 106.219 35.548 106.183 36.088C106.111 37.096 105.319 37.78 104.239 37.78C103.987 37.78 103.231 37.744 102.979 37.672C101.683 37.276 101.611 36.088 101.539 35.008C101.539 34.576 101.503 32.92 101.395 32.56C101.251 32.524 100.783 32.452 98.9827 32.452C97.4707 32.452 97.2907 32.488 97.2547 32.488H84.2587C84.1867 32.488 82.7827 32.128 82.6387 31.156C82.4947 30.22 82.6387 29.5 83.0707 28.996C83.6467 28.312 84.5107 28.312 84.5467 28.276H103.267ZM92.1427 9.88C92.5747 9.88 92.9707 9.844 93.3667 9.952C94.0147 10.168 94.7347 10.492 95.1667 11.068C95.5987 11.68 95.8507 12.76 95.8507 13.516C95.8507 15.568 95.9587 17.656 95.8507 19.708C95.8147 21.004 95.9947 22.804 95.3827 23.92C94.6627 25.216 92.6107 25.576 91.8187 24.28C90.9547 22.84 91.1707 20.788 91.2067 19.132C91.2067 17.944 91.2067 16.576 91.0987 15.388C90.9907 14.236 90.1267 14.452 89.1907 14.38C88.2547 14.344 88.6147 14.416 87.6787 14.416H86.1307C84.5827 14.416 82.8907 14.38 81.1267 14.164C79.8307 13.984 79.9027 12.22 80.0827 11.32C80.1907 10.852 80.4427 10.492 80.8387 10.24C81.3427 9.88 81.9907 9.916 82.6027 9.88C83.2867 9.808 83.9347 9.88 84.6187 9.88H92.1427ZM106.147 12.544C106.147 12.472 106.111 15.496 106.147 16.18C106.543 16.216 108.487 16.252 108.919 16.36C109.855 16.54 110.179 16.936 110.287 17.44C110.431 17.944 110.467 18.772 110.179 19.24C109.603 20.176 108.379 20.14 106.975 20.176H106.147V23.02C106.111 23.524 106.039 24.1 105.751 24.64C105.607 24.928 105.391 25.18 105.139 25.36C104.779 25.612 104.347 25.72 103.951 25.72C103.591 25.72 103.231 25.648 102.943 25.468C101.971 24.892 101.827 23.56 101.827 23.524V12.076C101.791 11.896 101.863 10.78 102.151 10.204C102.367 9.736 102.907 9.412 103.591 9.34C104.419 9.232 105.175 9.448 105.571 9.88C105.859 10.24 105.931 10.6 106.039 10.996C106.183 11.464 106.183 12.04 106.147 12.544ZM145.584 35.656C146.34 35.692 146.988 35.98 147.204 36.736C147.456 37.6 147.168 38.212 146.268 38.536C145.692 38.788 145.044 38.788 144.576 38.788H127.836C126.864 38.788 125.784 38.788 124.74 38.752C123.444 38.716 123.012 37.816 122.94 36.736L122.796 34.36C122.76 33.82 122.76 32.956 123.192 32.452C123.84 31.768 124.74 31.66 125.784 31.66H126.9C127.116 31.66 127.26 31.696 127.404 31.696H143.1V30.436H127.044C126.792 30.436 126.54 30.4 126.252 30.436H125.388C124.92 30.436 124.524 30.436 124.164 30.364C123.732 30.256 123.372 30.256 123.12 29.86C122.832 29.356 122.724 28.888 122.904 28.312C123.156 27.556 124.236 27.448 124.776 27.34C125.136 27.304 125.496 27.268 125.892 27.268H126.504C126.756 27.304 126.936 27.304 127.188 27.304H143.46C145.872 27.304 147.24 27.988 147.24 29.68V32.2C147.24 32.848 146.952 33.532 146.196 34C145.584 34.36 144.936 34.324 144.324 34.324H127.224V35.656H145.584ZM129.816 8.944C134.712 9.268 137.448 12.076 137.088 17.224C136.764 21.508 134.46 23.992 129.888 23.992C127.404 23.992 126.108 24.172 123.912 22.804C121.824 21.472 121.176 18.808 121.176 16.504C121.176 11.32 124.848 8.584 129.816 8.944ZM142.704 22.84H141.876C141.192 22.84 139.752 22.696 139.284 21.868C139.032 21.472 138.996 20.392 139.104 20.032C139.212 19.492 139.68 19.06 140.256 18.844C140.652 18.736 142.74 18.736 142.74 18.736C142.74 18.736 142.704 17.332 142.704 16.864H141.876C141.192 16.864 139.752 16.72 139.284 15.892C138.528 14.632 139.356 12.904 140.868 12.832C141.012 12.832 142.776 12.904 142.812 12.724C143.028 11.788 142.56 10.312 143.532 9.592C143.928 9.304 144.504 9.232 144.972 9.196C145.548 9.124 146.124 9.376 146.52 9.808C146.664 9.988 146.808 10.204 146.88 10.42C147.06 10.996 146.988 11.644 146.988 12.256V22.552C146.988 22.588 147.096 24.712 146.16 25.288C145.836 25.468 145.26 25.576 144.9 25.576C144.468 25.576 144.072 25.432 143.712 25.18C143.46 25 143.244 24.784 143.1 24.496C142.812 23.956 142.74 23.344 142.704 22.84ZM132.912 17.656L132.948 17.368C133.164 15.64 132.3 13.984 130.788 13.444C128.772 12.76 125.676 13.372 125.28 16.072C124.992 17.908 125.784 19.924 128.556 20.176C130.464 20.392 132.444 19.852 132.912 17.656ZM176.87 35.548C176.798 36.124 176.762 36.664 176.582 37.24C176.51 37.42 176.438 37.564 176.366 37.744C176.222 38.032 176.006 38.32 175.718 38.536C175.178 38.86 174.494 38.932 173.882 38.788C173.522 38.716 173.198 38.572 172.946 38.356C172.082 37.564 172.118 35.692 172.118 35.62V13.372C172.082 12.256 172.118 10.456 172.802 9.808C173.306 9.304 173.918 9.232 174.566 9.232C175.394 9.232 176.15 9.736 176.438 10.528C176.87 11.536 176.834 12.652 176.87 13.768V13.948C176.978 17.62 176.87 21.688 176.87 25.144V34.252C176.87 34.684 176.906 35.116 176.87 35.548ZM159.878 32.02C159.842 31.444 159.842 30.868 159.842 30.292V18.844C159.842 18.088 159.842 17.296 159.77 16.504C159.734 16.252 159.698 15.712 159.446 15.604C159.194 15.46 158.87 15.532 158.582 15.496C158.258 15.46 157.934 15.532 157.61 15.496H155.918C155.126 15.532 154.262 15.46 153.47 15.496C153.11 15.532 152.786 15.496 152.426 15.496C151.886 15.496 151.274 15.496 150.806 15.172C150.122 14.704 149.942 13.912 149.942 13.156C149.906 12.688 150.014 12.22 150.23 11.788C150.338 11.536 150.482 11.32 150.698 11.176C150.95 10.924 151.49 10.744 151.814 10.672C152.822 10.42 153.974 10.456 155.018 10.456H161.282C161.894 10.528 162.65 10.6 163.226 10.816C163.586 10.96 164.018 11.212 164.234 11.536C164.666 12.22 164.666 12.868 164.738 13.66C164.846 14.992 164.81 16.324 164.81 17.656V29.464C164.81 29.572 164.882 32.56 164.81 34.072C164.738 35.044 164.522 36.232 163.262 36.7C162.83 36.88 162.398 36.952 162.038 36.952C161.426 36.952 160.706 36.7 160.454 36.16C160.094 35.44 159.878 34.54 159.878 33.604V32.02Z" fill="#1E1E1E"/>
<path d="M15.0996 10.5364H10.5352V18.4945H15.0996V10.5364Z" fill="#E46550"/>
<path d="M40.2246 10.5364H35.6602V18.4945H40.2246V10.5364Z" fill="#E46550"/>
<path d="M15.4676 39.9221H10.1797L10.5348 18.4943H15.0993L15.4676 39.9221Z" fill="#E46550"/>
<path d="M40.594 39.9221H35.293L35.6613 18.4943H40.2257L40.594 39.9221Z" fill="#E46550"/>
<path d="M28.2031 8.7207H22.5469V15.9422H28.2031V8.7207Z" fill="#6C3603"/>
<path d="M12.8261 15.1017C11.5502 15.1017 10.3137 14.8517 9.15618 14.3913C9.02464 14.3387 8.90625 14.4571 8.90625 14.6413V16.6933H16.746V14.6413C16.746 14.4703 16.6145 14.3387 16.4829 14.3913C15.3254 14.8517 14.1021 15.1017 12.8261 15.1017Z" fill="#BE3D30"/>
<path d="M37.9487 15.1017C36.6727 15.1017 35.4363 14.8517 34.2787 14.3913C34.1472 14.3387 34.0156 14.4571 34.0156 14.6413V16.6933H41.8554V14.6413C41.8554 14.4703 41.7238 14.3387 41.6055 14.3913C40.4479 14.8517 39.2114 15.1017 37.9355 15.1017" fill="#BE3D30"/>
<path d="M16.8091 44.0002H8.81149C8.08802 44.0002 7.49609 43.4214 7.49609 42.6848V40.8827C7.49609 40.1592 8.08802 39.5804 8.81149 39.5804H16.8091C17.5326 39.5804 18.1245 40.1592 18.1245 40.8827V42.6848C18.1245 43.4082 17.5326 44.0002 16.8091 44.0002Z" fill="#6D0006"/>
<path d="M41.9497 44.0002H33.9521C33.2286 44.0002 32.6367 43.4214 32.6367 42.6848V40.8827C32.6367 40.1592 33.2286 39.5804 33.9521 39.5804H41.9497C42.6732 39.5804 43.252 40.1592 43.252 40.8827V42.6848C43.252 43.4082 42.6732 44.0002 41.9497 44.0002Z" fill="#6D0006"/>
<path d="M41.8554 8.7207H34.0156V9.2074C34.0156 9.94402 34.6076 10.5359 35.3442 10.5359H40.5268C41.2635 10.5359 41.8554 9.94402 41.8554 9.2074V8.7207Z" fill="#BE3D30"/>
<path d="M16.746 8.7207H8.90625V9.2074C8.90625 9.94402 9.49818 10.5359 10.2348 10.5359H15.4175C16.1409 10.5359 16.746 9.94402 16.746 9.2074V8.7207Z" fill="#BE3D30"/>
<path d="M45.751 5.01257H5V6.94621H45.751V5.01257Z" fill="#BE3D30"/>
<path d="M45.751 6.91846H5V7.37885C5 8.11547 5.60508 8.72055 6.3417 8.72055H44.4093C45.159 8.72055 45.751 8.11547 45.751 7.37885V6.91846Z" fill="#E46550"/>
<path d="M45.751 16.6799H5V20.2973H45.751V16.6799Z" fill="#E46550"/>
<path d="M48.0514 0C46.736 1.43378 44.6709 2.51241 42.5662 2.51241H8.19492C6.10344 2.51241 4.03827 1.43378 2.70972 0H0L2.24933 3.9725C2.64395 4.66966 3.39372 5.10374 4.19611 5.10374H46.5519C47.3543 5.10374 48.104 4.66966 48.4987 3.9725L50.748 0H48.0383H48.0514Z" fill="#6D0006"/>
<path d="M27.3218 15.0602H23.4414V9.6145H27.3218V15.0602ZM23.7834 14.7182H26.9667V9.96966H23.7834V14.7182Z" fill="#FEFCF1"/>
</svg>
