<svg width="764" height="49" viewBox="0 0 764 49" fill="none" xmlns="http://www.w3.org/2000/svg">
<rect width="351" height="49" rx="8" fill="#E4F2FC"/>
<path d="M13.5347 19.3784C14.3019 19 15.4038 18.3832 16.1943 17.9904C16.474 17.8177 16.7686 17.6676 17.0865 17.5031C15.806 17.8494 14.4789 18.2244 13.2134 18.5932C11.8332 18.9375 11.4911 16.9278 12.9203 16.807C14.0718 16.7624 15.2615 16.726 16.4364 16.667C15.2888 16.5188 14.1031 16.3624 12.9471 16.2511C11.5323 16.0457 12.0491 14.0451 13.4049 14.509C14.5465 14.9465 15.7114 15.3695 16.8763 15.7926C16.664 15.6698 16.4751 15.5327 16.2628 15.4099C15.5051 14.9575 14.4523 14.3066 13.6861 13.8912C12.4975 13.1338 13.8037 11.5342 14.8506 12.4743C15.7001 13.3142 16.6026 14.1848 17.5051 15.0554C16.8357 14.0409 16.1047 13.0327 15.4035 12.0695C14.6448 10.9198 16.5204 9.98404 17.0545 11.2407C17.3525 12.0403 17.774 13.1762 18.0953 13.9614C18.1612 14.111 18.2272 14.2607 18.2698 14.4247C18.0626 13.3153 17.8405 12.1833 17.6099 11.0882C17.4002 9.7265 19.5123 9.59658 19.4611 10.9607C19.3902 11.7977 19.3346 13.0059 19.2785 13.8655C19.2641 14.1916 19.2498 14.5178 19.2354 14.844C19.3261 14.5341 19.4169 14.2243 19.531 13.9C19.778 13.0813 20.1008 11.9301 20.3329 11.0888C20.751 9.78369 22.699 10.5483 22.0602 11.7676C21.1779 13.2641 20.3021 14.82 19.4495 16.3616C21.4599 17.8174 23.2903 19.4478 24.9193 21.1708C24.4492 20.1601 23.9875 19.1125 23.509 18.1388C22.9601 16.8596 24.9824 16.2457 25.2918 17.6094C25.4842 18.6963 25.7063 19.8282 25.9518 20.9458C25.9473 20.79 25.9513 20.5971 25.9468 20.4412C25.9414 19.5879 25.9355 18.3859 25.8919 17.5245C25.9048 16.1522 28.0174 16.371 27.7521 17.7087C27.4505 18.9419 27.1554 20.2346 26.8836 21.5128C27.4673 20.3593 28.0446 19.1463 28.5901 17.9846C29.2289 16.7653 31.0246 17.846 30.1736 18.9425C29.0027 20.2999 27.8298 21.7536 26.7119 23.1417C28.4262 25.1928 29.8713 27.2831 31.0723 29.302C31.0529 29.1236 31.0103 28.9596 30.991 28.7811C30.8392 27.9547 30.634 26.7488 30.4823 25.9224C30.2725 24.5606 32.3995 24.4533 32.3633 25.8399C32.2715 26.9436 32.1713 28.0842 32.1092 29.233C32.4004 28.1332 32.6766 27.0108 32.9445 25.9253C33.3244 24.6121 35.304 25.3254 34.6801 26.5672C34.2507 27.3082 33.6838 28.3879 33.2925 29.1371L32.8293 30.0259C33.0495 29.763 33.2845 29.5227 33.4814 29.2743C34.0552 28.6028 34.8641 27.691 35.4146 27.0339C36.3484 26.0132 37.8138 27.4882 36.6761 28.3491C35.2057 29.352 33.7333 30.4514 32.3075 31.5219C33.7406 34.1907 34.6728 36.5977 35.1905 38.2769C35.2545 38.523 35.1573 38.7734 34.9708 38.8885C34.9242 38.9173 34.8776 38.946 34.831 38.9748C34.5299 39.0655 34.2264 38.9038 34.1327 38.6127C33.6448 36.9785 32.7488 34.6761 31.3603 32.0749C29.6008 32.59 27.7713 33.1482 26.0416 33.7084C24.6763 34.0753 24.2727 32.0718 25.6871 31.9284C27.0082 31.8426 28.3526 31.7424 29.697 31.6422C28.3586 31.4532 27.0052 31.2416 25.7198 31.0833C24.3134 30.841 24.8833 28.8711 26.2158 29.3494C27.281 29.7705 28.3844 30.1998 29.4878 30.6292C28.5029 30.0315 27.4799 29.4257 26.4866 28.8649C25.2979 28.1075 26.6042 26.5079 27.651 27.4481C28.2521 28.0606 29.1397 28.9086 29.7641 29.5068C29.8766 29.6277 29.9976 29.7116 30.1102 29.8325C28.9687 27.9038 27.545 25.8954 25.9284 23.9427C25.2291 24.3744 24.5299 24.806 23.839 25.2008C23.0932 25.6612 22.0443 26.3087 21.2984 26.7691C20.0948 27.4804 19.1358 25.6294 20.4882 25.1436C21.7389 24.7522 23.0213 24.3095 24.3038 23.8669C22.9509 24.004 21.598 24.1411 20.2983 24.309C18.869 24.4298 18.8959 22.3826 20.3127 22.4916C21.1845 22.6197 22.4169 22.7473 23.2887 22.8754C23.4647 22.8936 23.6408 22.9119 23.8168 22.9301C22.6966 22.5746 21.5679 22.2561 20.4541 21.9601C19.1131 21.5188 19.9419 19.6429 21.194 20.2977C21.9369 20.7275 23.0363 21.3496 23.7792 21.7794C23.9383 21.8715 24.1208 21.9492 24.2949 22.0639C22.6808 20.3634 20.8886 18.7412 18.9164 17.2935C17.5268 18.4686 16.0822 19.7094 14.7456 20.9152C13.661 21.8069 12.4372 20.1511 13.6557 19.4623" fill="#F3C574"/>
<path d="M37.2467 18.5741C38.4513 18.5602 39.6325 18.5607 40.852 18.5694C39.6618 18.2571 38.4632 17.9818 37.2943 17.7515C36.0109 17.4968 36.5575 15.5412 37.7585 16.0689C38.6859 16.48 39.6514 16.8992 40.5852 17.3698C39.7466 16.7453 38.8848 16.1351 38.0145 15.5619C36.8873 14.7983 38.0939 13.1967 39.0708 14.1801C39.8588 15.0262 40.6701 15.8579 41.4347 16.7185C40.8417 15.7203 40.2337 14.6996 39.5707 13.7446C38.7971 12.5723 40.5581 11.6121 41.1135 12.9508C41.5583 14.0722 41.9649 15.1855 42.3715 16.2988C42.196 15.138 42.0056 13.9547 41.7537 12.7777C41.4761 11.3627 43.5247 11.3354 43.5182 12.7672C43.4879 13.8646 43.4576 14.962 43.3891 16.0513C43.6485 15.0028 43.8846 13.9687 44.0677 12.9039C44.3648 11.5148 46.3171 12.4353 45.7845 13.716C45.2474 14.8408 44.7251 15.9881 44.135 17.0821C44.9438 16.1703 45.7294 15.2729 46.4936 14.2935C47.3511 13.2565 48.8085 15.1172 47.7492 15.898C46.3105 16.8496 44.8867 17.8237 43.4481 18.7753C44.4056 21.0714 45.3423 23.6342 46.0945 26.2157C46.1183 25.0588 46.104 23.8937 46.0515 22.7205C46.0198 21.2806 48.0242 21.5344 47.81 22.9992C47.6036 24.0784 47.4122 25.1802 47.1676 26.2513C47.5947 25.2579 47.9835 24.2564 48.3426 23.2098C48.8455 21.8841 50.654 23.0838 49.9007 24.2785C49.1811 25.3256 48.4997 26.3808 47.7503 27.3828C48.6866 26.6144 49.608 25.8235 50.523 24.9731C50.8831 24.6239 51.4643 24.7093 51.7851 25.1458C52.1655 25.6725 52.0182 26.4932 51.5222 26.7359C49.9581 27.4476 48.4004 28.2188 46.8511 28.9531C46.8045 28.9819 47.7927 33.5118 47.9038 34.0778C47.9509 34.3977 48.0744 34.7339 48.0367 35.0745C48.0009 35.3186 47.8804 35.5834 47.573 35.6146C47.1425 35.6582 46.9531 35.1723 46.9293 34.838C46.7344 33.4988 45.895 29.1944 45.8335 29.2006C44.0988 29.2562 42.3706 29.3712 40.6339 29.5232C39.3212 29.5721 39.3694 27.607 40.6548 27.7653C41.832 27.9586 43.0178 28.115 44.2184 28.294C43.1085 27.8052 41.9521 27.3452 40.8403 26.9528C39.6223 26.499 40.4659 24.6456 41.5867 25.3498C42.4421 25.9005 43.3124 26.4737 44.1743 27.0838C43.4458 26.3279 42.694 25.5863 41.9254 24.9186C40.94 23.9722 42.3802 22.5755 43.2004 23.719C43.8252 24.6659 44.5115 25.6065 45.1279 26.5903C44.3757 24.0088 43.4539 21.4685 42.4964 19.1724C40.8023 19.4884 39.0999 19.8414 37.4271 20.2395C36.1487 20.4893 35.8661 18.5697 37.1787 18.5209" fill="#F3C574"/>
<path d="M63.04 21.28C62.96 21.28 62.92 21.24 62.92 21.2C62.4 20.8 62.24 19.8 62.24 19.2C62.2 18.24 62.08 17.28 62.08 16.36C62.08 15 62.04 13.36 62.28 12.04C62.44 11.2 62.76 10.72 63.56 10.4C64.28 10.12 65.04 10.04 65.8 9.96C66.72 9.88 67.68 9.96 68.64 9.96H76.24C78.96 9.96 78.6 9.96 81.28 9.92C81.76 9.92 82.2 9.92 82.68 9.96C83.68 10 84.8 10.04 85.72 10.48C86.76 10.92 87.08 12.04 87.12 13.08C87.2 14.28 87.08 15.8 87.08 17C87.04 18.08 87.08 19.16 86.8 20.2C86.64 20.8 86.52 21.28 85.88 21.48C85.32 21.68 84.6 21.72 84.04 21.72H66.76C66.24 21.72 65.72 21.68 65.2 21.64C64.52 21.6 63.64 21.68 63.04 21.28ZM85.24 28.92C82.6 29 80.52 29.08 77.84 29.08C77.8 30.2 77.72 31.24 77.72 32.76C77.48 33.88 76 34.56 74.92 34.52C73.32 34.44 72.44 33.8 72.28 32.2C72.16 31.16 72.32 30.04 72.32 29C69.88 29 63.48 28.92 61.24 28.76C60.4 28.68 60 28.64 59.32 28C58.96 27.68 58.8 27.08 58.8 26.52C58.8 26 59 25.48 59.32 25.16C60.12 24.32 62.08 24.36 62.16 24.36H85.04C85.84 24.36 86.64 24.36 87.4 24.4C88.12 24.44 88.92 24.56 89.48 25.08C90.04 25.52 90.04 26.04 90.04 26.68C90.04 27.48 89.56 28.16 88.76 28.44C87.68 28.84 86.36 28.88 85.24 28.92ZM86.36 36.48C86.44 36.52 87.92 36.88 88.08 38C88.24 39 88.08 39.8 87.6 40.36C87 41.12 86.12 41.16 86.08 41.16H64.24C62.2 41.16 60.96 40.44 60.96 39.24V35.68C60.92 35.08 60.92 34.48 60.96 33.88C61.04 32.76 61.88 32 63 32C63.28 32 63.84 32.04 64.08 32.12C65.44 32.56 65.52 33.92 65.6 35.12C65.6 35.56 65.64 36.04 65.76 36.4C65.88 36.44 66.68 36.56 68.56 36.56C70.16 36.56 71.64 36.48 71.68 36.48H86.36ZM66.84 16.6C66.84 16.84 66.84 17.12 66.96 17.24C67.2 17.44 68.12 17.32 68.12 17.32H78.64C78.64 17.32 80.56 17.48 81.52 17.36C82.08 17.32 82.08 17.08 82.16 16.6C82.2 16.16 82.28 15.24 81.96 14.84C81.6 14.4 80.76 14.48 80.28 14.52H76.64C76.28 14.48 71.44 14.52 71.08 14.52C69.96 14.44 68.84 14.48 67.68 14.52C67.2 14.52 67.04 14.44 66.92 14.92C66.84 15.28 66.84 15.92 66.84 16.24V16.6ZM95.2516 33.72C95.4516 33.64 99.1316 33.8 99.8116 33.8C99.8516 33.16 99.9316 30.52 100.012 29.2C99.5316 29.08 99.0916 28.96 98.6516 28.76C95.6516 27.52 93.3316 25.08 93.3316 21.56C93.3316 19.64 93.8916 18.16 94.8116 17H94.3716C93.0916 17 92.0116 16.04 92.0116 14.88C92.0116 13.68 93.0916 12.72 94.3716 12.72H99.6516V11.08C99.6516 10.04 100.692 9.28 101.972 9.28C103.292 9.28 104.332 10.04 104.332 11.08V12.72H109.852C111.172 12.72 112.252 13.68 112.252 14.88C112.252 16.04 111.172 17 109.852 17H109.732C110.652 18.16 111.252 19.64 111.252 21.56C111.252 24.04 110.052 26.08 108.052 27.6C107.052 28.32 105.932 28.84 104.772 29.16C104.852 30.4 104.852 33.16 104.852 33.76V33.8H110.172C111.052 33.8 111.772 33.96 112.292 34.28C113.492 35 113.452 36.96 112.932 37.92C112.452 38.76 111.412 38.84 110.572 38.84H94.7716C94.7316 38.84 93.3716 38.72 92.6516 38.4C92.1316 38.12 91.7316 37.52 91.6116 36.76C91.4916 35.92 91.7716 35.12 92.2916 34.64C93.2516 33.84 94.3316 33.72 95.2516 33.72ZM121.772 22.96H121.852C122.132 22.92 122.372 23 122.612 23C122.932 23.04 123.212 23.08 123.532 23.12C124.132 23.24 124.772 23.48 125.092 24.08C125.252 24.4 125.332 24.76 125.332 25.16C125.332 25.52 125.332 25.92 125.252 26.28C125.132 26.68 125.012 27.24 124.692 27.52C124.372 27.76 123.972 27.96 123.572 28.04C122.732 28.16 121.292 28.04 120.452 28.08C120.372 28.12 120.332 28.12 120.332 28.12C120.332 28.12 120.332 28.16 120.292 28.28C120.252 29.6 120.292 30.76 120.292 32.12C120.332 33.48 120.332 34.88 120.292 36.2V36.76C120.292 38.16 120.332 40.2 119.372 41.2C119.012 41.52 118.572 41.72 118.052 41.72H117.972C115.372 41.6 115.132 38.48 115.132 36.8V13.04C115.132 12.96 115.052 10.96 115.932 10.08C116.332 9.72 117.172 9.52 117.732 9.52C118.332 9.52 118.892 9.76 119.252 10.12C119.932 10.88 120.012 11.72 120.052 12.6C120.092 12.76 120.092 12.92 120.132 13.12C120.212 13.96 120.212 14.96 120.252 15.92C120.252 16.52 120.292 17.08 120.292 17.64V21.96C120.292 22.24 120.292 22.56 120.372 22.84C120.372 22.88 121.172 22.88 121.252 22.92C121.412 22.92 121.612 22.96 121.772 22.96ZM103.052 24.76C104.772 24.44 106.252 23.6 106.252 21.56C106.252 19.2 104.292 18.32 102.332 18.28C100.332 18.2 98.3316 19.04 98.3316 21.56C98.3316 24.44 100.852 25.2 103.052 24.76ZM162.553 38.44C163.393 38.52 164.113 38.8 164.353 39.64C164.673 40.6 164.313 41.28 163.313 41.68C162.673 41.92 161.993 41.96 161.433 41.96H142.833C141.753 41.96 140.593 41.92 139.433 41.88C138.313 41.84 137.513 41 137.393 39.8L137.273 37C137.233 36.44 137.193 35.48 137.673 34.96C138.393 34.16 139.833 34.04 140.993 34.04C142.513 34.04 147.593 34.08 159.793 34.08V32.64H140.113C139.593 32.64 139.153 32.64 138.753 32.56C138.273 32.44 137.873 32.44 137.633 32C137.273 31.44 137.153 30.92 137.353 30.28C137.633 29.44 138.833 29.32 139.433 29.24C139.833 29.16 140.233 29.12 140.673 29.12C143.073 29.12 145.873 29.16 160.193 29.16C162.873 29.16 164.393 29.96 164.393 31.8V34.64C164.393 35.36 164.073 36.16 163.233 36.64C162.553 37.04 161.833 37 161.153 37H142.193V38.44H162.553ZM137.633 15.2C137.553 13.88 137.353 12.48 137.793 11.32C138.393 9.88 139.913 9.64 141.233 9.64H159.873C160.953 9.64 161.873 9.68 162.913 10.08C163.753 10.44 164.273 11.28 164.233 12.2C164.153 13.12 163.593 13.84 162.713 14.04C162.233 14.16 161.513 14.24 160.553 14.24C159.873 14.24 159.393 14.2 159.353 14.2H147.793C146.993 14.2 146.193 14.24 145.393 14.2C144.753 14.16 144.073 13.96 143.473 14.16C142.873 14.32 142.913 15 143.073 15.68C143.833 15.8 144.593 15.8 145.353 15.84H152.953C153.433 15.88 156.593 15.88 156.993 15.84C157.313 15.8 159.513 15.8 159.833 15.8C161.073 15.8 162.153 16 162.993 16.4C163.513 16.68 163.873 16.88 163.993 17.52C164.153 18.16 164.033 18.84 163.633 19.32C162.873 20.32 161.913 20.36 160.793 20.4C159.753 20.44 153.873 20.48 152.233 20.48C150.553 20.48 147.153 20.44 145.593 20.44C143.833 20.4 142.073 20.32 140.313 20.32C137.713 20.32 137.713 18.56 137.713 16.32C137.713 15.96 137.673 15.56 137.633 15.2ZM138.993 22.64C139.793 22.56 141.553 22.56 141.553 22.56H150.353C150.353 22.56 157.753 22.48 161.353 22.56H161.553C162.633 22.6 163.713 22.52 164.753 22.92C165.513 23.2 165.993 23.88 165.993 24.68C165.993 25.32 165.713 25.92 165.193 26.36C164.353 27.12 162.993 27.08 161.913 27H138.953C138.873 27 136.993 27.04 136.233 26.2C135.913 25.88 135.753 25.36 135.753 24.84C135.753 24.28 135.953 23.8 136.273 23.48C136.953 22.8 137.713 22.76 138.513 22.68C138.673 22.68 138.833 22.64 138.993 22.64ZM191.589 14.52C191.629 13.16 191.589 11.04 192.549 10.08C192.909 9.72 193.349 9.56 193.829 9.56H193.909C196.549 9.68 196.789 12.8 196.789 14.48V38.2C196.789 38.28 196.869 40.32 195.949 41.16C195.589 41.52 194.749 41.76 194.189 41.76C193.589 41.76 193.029 41.52 192.669 41.12C191.989 40.36 191.869 39.68 191.789 38.8C191.789 37.88 191.709 34.68 191.749 33.2H189.269C188.069 33.2 187.429 32.8 187.149 32.2C186.989 31.88 186.829 31.52 186.829 31.16C186.829 30.8 186.829 30.56 186.909 30.2C187.029 29.8 187.149 29.24 187.469 28.96C187.789 28.72 188.189 28.52 188.589 28.44C189.429 28.28 190.749 28.32 191.629 28.2C191.629 27.4 191.629 24.92 191.589 23.16L189.189 23.08C188.189 23.04 187.309 22.88 187.029 22.28C186.869 21.96 186.749 21.56 186.749 21.2C186.749 20.84 186.749 20.6 186.829 20.24C186.949 19.84 187.069 19.36 187.389 19.08C187.709 18.84 188.109 18.64 188.509 18.56C189.109 18.44 190.149 18.44 191.549 18.36C191.549 16.6 191.549 15.04 191.589 14.52ZM177.029 9.56C177.709 9.56 178.349 9.64 178.989 9.72C179.989 9.88 180.909 10.36 181.669 11.12C184.269 13.84 184.829 18.52 184.989 22.32C185.109 24.76 185.069 27.24 184.789 29.64C184.509 32.12 184.149 34.8 182.829 36.84C181.709 38.56 179.949 39.68 178.149 40.04C176.509 40.36 174.709 40.16 173.189 39.28C171.749 38.44 170.789 37.12 170.069 35.44C169.549 34.2 169.229 32.84 169.149 31.48C168.949 29.24 168.869 27 168.869 24.76C168.869 23.24 168.869 21.76 169.029 20.28C169.109 19.08 169.309 17.84 169.509 16.68C169.709 15.72 169.829 14.88 170.229 14C170.629 13.12 171.149 12.28 171.829 11.64C172.989 10.48 174.509 9.84 176.029 9.64C176.349 9.6 176.709 9.6 177.029 9.56ZM176.909 34.72C177.389 34.72 177.909 34.56 178.389 34.24C179.269 33.6 179.589 32.48 179.829 31.2C180.269 28.76 180.229 25.8 180.149 23.28C180.109 21.24 180.069 18.6 179.109 16.96C178.589 16.08 177.789 15.52 176.949 15.64C176.069 15.72 175.269 16.28 174.789 17.32L174.429 18.16C174.109 19.16 173.949 20.28 173.869 21.36C173.789 22.44 173.709 23.56 173.709 24.64C173.749 25.72 173.629 26.72 173.709 27.76C173.909 30.52 174.269 34.68 176.909 34.72ZM216.772 34.8C218.332 34.8 219.772 35.16 219.972 36.88C220.172 38.6 218.412 39.64 216.972 39.72C215.852 39.76 210.492 39.72 207.892 39.72H207.572C206.372 39.68 204.972 39.68 203.772 39.32C202.932 39.08 202.092 38.32 201.692 37.4C201.172 36.24 201.292 33.76 201.292 33.64V16.64C201.252 16.36 200.972 13.52 201.772 12.2C202.452 11.08 205.492 11.04 205.772 11.04H215.132C215.292 11.04 218.652 10.92 219.172 12.6C219.372 13.2 219.332 14.64 219.092 15.08C218.892 15.44 218.532 15.68 218.092 15.8C217.612 15.92 216.852 16 215.812 16C215.132 16 214.612 15.96 209.692 15.96C208.972 15.96 208.052 16 207.692 16.16C206.932 16.48 206.972 18.24 207.052 18.84V18.88L207.212 32.72C207.212 33.76 207.612 34.52 208.852 34.52C209.132 34.56 213.252 34.8 216.772 34.8ZM227.412 21.88L230.572 22.16C231.532 22.36 232.372 23 232.372 24.16C232.372 24.56 232.372 24.92 232.252 25.32C232.092 26.2 231.612 26.96 230.612 26.96L227.332 27C227.252 29.76 227.332 34 227.332 37.32C227.332 38.72 227.292 41.68 224.932 41.84C222.332 42 222.132 39.44 222.132 37.76V13.2C222.132 13.12 222.092 11.12 222.972 10.24C223.332 9.88 224.172 9.68 224.772 9.68C225.372 9.68 225.892 9.92 226.252 10.28C226.972 11.04 227.012 11.88 227.092 12.76C227.332 15.68 227.412 18.84 227.412 21.88ZM260.615 34.52C260.775 34.56 260.935 34.52 261.095 34.52C261.975 34.6 262.775 34.8 263.495 35.44C263.855 35.8 264.055 36.28 264.055 36.84C264.055 37.4 263.855 38.2 263.535 38.56C262.695 39.4 260.735 39.32 260.655 39.32H238.255C238.015 39.32 237.735 39.36 237.455 39.36C236.335 39.4 234.895 39.48 234.015 38.72C233.495 38.24 233.175 37.64 233.175 37C233.175 36.2 233.695 35.2 234.495 34.88C235.575 34.48 236.735 34.56 237.895 34.52H238.095C240.375 34.48 242.855 34.48 245.255 34.52L245.215 29C243.175 29.04 241.495 29.04 240.535 28.96C239.415 28.92 237.935 28.88 237.015 28.2C235.815 27.28 235.775 24.36 235.775 24.24V15.64C235.775 14.6 235.615 13.48 235.815 12.44C236.095 11.2 237.615 10.88 238.815 10.8C239.735 10.76 241.095 11 241.295 12.08C241.375 12.56 241.215 15.6 241.415 16.04C241.535 16.32 242.095 16.36 242.375 16.4C243.615 16.48 244.015 16.36 245.255 16.36L254.415 16.4C254.975 16.44 255.415 16.44 255.575 15.88C255.615 15.32 255.615 12.96 255.655 12.52C255.695 11.56 255.975 11 256.975 10.8C258.015 10.56 259.495 10.64 260.095 11.24C260.935 12.12 260.895 13.16 260.895 15.24C260.815 17.68 261.015 23.56 260.775 26C260.655 27.56 259.775 28.56 258.255 28.8C257.455 28.92 256.375 28.88 255.575 28.88C253.855 28.92 252.215 28.92 250.615 28.92L250.695 34.52C253.415 34.52 255.295 34.44 257.895 34.52C258.855 34.56 259.775 34.44 260.615 34.52ZM241.415 23.84C241.615 24.64 242.775 24.64 243.655 24.68C244.055 24.64 252.175 24.56 252.655 24.64C253.095 24.68 253.535 24.64 253.975 24.68C254.535 24.72 255.495 24.92 255.495 24.04C255.495 23.64 255.575 22 255.375 21.24C255.215 20.6 254.855 20.64 254.335 20.68C254.095 20.68 253.335 20.72 253.095 20.68H243.975C242.975 20.64 241.495 20.44 241.375 21.68C241.375 21.96 241.375 23.64 241.415 23.84ZM295.356 38.72C295.276 39.36 295.236 39.96 295.036 40.6C294.956 40.8 294.876 40.96 294.796 41.16C294.636 41.48 294.396 41.8 294.076 42.04C293.476 42.4 292.716 42.48 292.036 42.32C291.636 42.24 291.276 42.08 290.996 41.84C290.036 40.96 290.076 38.88 290.076 38.8V14.08C290.036 12.84 290.076 10.84 290.836 10.12C291.396 9.56 292.076 9.48 292.796 9.48C293.716 9.48 294.556 10.04 294.876 10.92C295.356 12.04 295.316 13.28 295.356 14.52V14.72C295.476 18.8 295.356 23.32 295.356 27.16V37.28C295.356 37.76 295.396 38.24 295.356 38.72ZM276.476 34.8C276.436 34.16 276.436 33.52 276.436 32.88V20.16C276.436 19.32 276.436 18.44 276.356 17.56C276.316 17.28 276.276 16.68 275.996 16.56C275.716 16.4 275.356 16.48 275.036 16.44C274.676 16.4 274.316 16.48 273.956 16.44H272.076C271.196 16.48 270.236 16.4 269.356 16.44C268.956 16.48 268.596 16.44 268.196 16.44C267.596 16.44 266.916 16.44 266.396 16.08C265.636 15.56 265.436 14.68 265.436 13.84C265.396 13.32 265.516 12.8 265.756 12.32C265.876 12.04 266.036 11.8 266.276 11.64C266.556 11.36 267.156 11.16 267.516 11.08C268.636 10.8 269.916 10.84 271.076 10.84H278.036C278.716 10.92 279.556 11 280.196 11.24C280.596 11.4 281.076 11.68 281.316 12.04C281.796 12.8 281.796 13.52 281.876 14.4C281.996 15.88 281.956 17.36 281.956 18.84V31.96C281.956 32.08 282.036 35.4 281.956 37.08C281.876 38.16 281.636 39.48 280.236 40C279.756 40.2 279.276 40.28 278.876 40.28C278.196 40.28 277.396 40 277.116 39.4C276.716 38.6 276.476 37.6 276.476 36.56V34.8Z" fill="#475783"/>
<circle cx="322" cy="24.5" r="17" fill="#ACB7D6"/>
<path d="M315.264 30.68L322.154 23.582C324.338 21.346 324.468 20.358 324.468 19.292V19.084C324.468 18.07 323.714 17.108 321.79 17.108C320.438 17.108 319.06 17.55 317.838 19.734L315.342 18.096C316.226 16.484 317.968 14.144 321.764 14.144C326.002 14.144 327.822 16.38 327.822 18.954V19.214C327.822 21.242 326.86 23.114 325.118 24.856L319.606 30.42H328.524V33.176H315.264V30.68Z" fill="white"/>
<path d="M366.04 21.28C365.96 21.28 365.92 21.24 365.92 21.2C365.4 20.8 365.24 19.8 365.24 19.2C365.2 18.24 365.08 17.28 365.08 16.36C365.08 15 365.04 13.36 365.28 12.04C365.44 11.2 365.76 10.72 366.56 10.4C367.28 10.12 368.04 10.04 368.8 9.96C369.72 9.88 370.68 9.96 371.64 9.96H379.24C381.96 9.96 381.6 9.96 384.28 9.92C384.76 9.92 385.2 9.92 385.68 9.96C386.68 10 387.8 10.04 388.72 10.48C389.76 10.92 390.08 12.04 390.12 13.08C390.2 14.28 390.08 15.8 390.08 17C390.04 18.08 390.08 19.16 389.8 20.2C389.64 20.8 389.52 21.28 388.88 21.48C388.32 21.68 387.6 21.72 387.04 21.72H369.76C369.24 21.72 368.72 21.68 368.2 21.64C367.52 21.6 366.64 21.68 366.04 21.28ZM388.24 28.92C385.6 29 383.52 29.08 380.84 29.08C380.8 30.2 380.72 31.24 380.72 32.76C380.48 33.88 379 34.56 377.92 34.52C376.32 34.44 375.44 33.8 375.28 32.2C375.16 31.16 375.32 30.04 375.32 29C372.88 29 366.48 28.92 364.24 28.76C363.4 28.68 363 28.64 362.32 28C361.96 27.68 361.8 27.08 361.8 26.52C361.8 26 362 25.48 362.32 25.16C363.12 24.32 365.08 24.36 365.16 24.36H388.04C388.84 24.36 389.64 24.36 390.4 24.4C391.12 24.44 391.92 24.56 392.48 25.08C393.04 25.52 393.04 26.04 393.04 26.68C393.04 27.48 392.56 28.16 391.76 28.44C390.68 28.84 389.36 28.88 388.24 28.92ZM389.36 36.48C389.44 36.52 390.92 36.88 391.08 38C391.24 39 391.08 39.8 390.6 40.36C390 41.12 389.12 41.16 389.08 41.16H367.24C365.2 41.16 363.96 40.44 363.96 39.24V35.68C363.92 35.08 363.92 34.48 363.96 33.88C364.04 32.76 364.88 32 366 32C366.28 32 366.84 32.04 367.08 32.12C368.44 32.56 368.52 33.92 368.6 35.12C368.6 35.56 368.64 36.04 368.76 36.4C368.88 36.44 369.68 36.56 371.56 36.56C373.16 36.56 374.64 36.48 374.68 36.48H389.36ZM369.84 16.6C369.84 16.84 369.84 17.12 369.96 17.24C370.2 17.44 371.12 17.32 371.12 17.32H381.64C381.64 17.32 383.56 17.48 384.52 17.36C385.08 17.32 385.08 17.08 385.16 16.6C385.2 16.16 385.28 15.24 384.96 14.84C384.6 14.4 383.76 14.48 383.28 14.52H379.64C379.28 14.48 374.44 14.52 374.08 14.52C372.96 14.44 371.84 14.48 370.68 14.52C370.2 14.52 370.04 14.44 369.92 14.92C369.84 15.28 369.84 15.92 369.84 16.24V16.6ZM398.252 33.72C398.452 33.64 402.132 33.8 402.812 33.8C402.852 33.16 402.932 30.52 403.012 29.2C402.532 29.08 402.092 28.96 401.652 28.76C398.652 27.52 396.332 25.08 396.332 21.56C396.332 19.64 396.892 18.16 397.812 17H397.372C396.092 17 395.012 16.04 395.012 14.88C395.012 13.68 396.092 12.72 397.372 12.72H402.652V11.08C402.652 10.04 403.692 9.28 404.972 9.28C406.292 9.28 407.332 10.04 407.332 11.08V12.72H412.852C414.172 12.72 415.252 13.68 415.252 14.88C415.252 16.04 414.172 17 412.852 17H412.732C413.652 18.16 414.252 19.64 414.252 21.56C414.252 24.04 413.052 26.08 411.052 27.6C410.052 28.32 408.932 28.84 407.772 29.16C407.852 30.4 407.852 33.16 407.852 33.76V33.8H413.172C414.052 33.8 414.772 33.96 415.292 34.28C416.492 35 416.452 36.96 415.932 37.92C415.452 38.76 414.412 38.84 413.572 38.84H397.772C397.732 38.84 396.372 38.72 395.652 38.4C395.132 38.12 394.732 37.52 394.612 36.76C394.492 35.92 394.772 35.12 395.292 34.64C396.252 33.84 397.332 33.72 398.252 33.72ZM424.772 22.96H424.852C425.132 22.92 425.372 23 425.612 23C425.932 23.04 426.212 23.08 426.532 23.12C427.132 23.24 427.772 23.48 428.092 24.08C428.252 24.4 428.332 24.76 428.332 25.16C428.332 25.52 428.332 25.92 428.252 26.28C428.132 26.68 428.012 27.24 427.692 27.52C427.372 27.76 426.972 27.96 426.572 28.04C425.732 28.16 424.292 28.04 423.452 28.08C423.372 28.12 423.332 28.12 423.332 28.12C423.332 28.12 423.332 28.16 423.292 28.28C423.252 29.6 423.292 30.76 423.292 32.12C423.332 33.48 423.332 34.88 423.292 36.2V36.76C423.292 38.16 423.332 40.2 422.372 41.2C422.012 41.52 421.572 41.72 421.052 41.72H420.972C418.372 41.6 418.132 38.48 418.132 36.8V13.04C418.132 12.96 418.052 10.96 418.932 10.08C419.332 9.72 420.172 9.52 420.732 9.52C421.332 9.52 421.892 9.76 422.252 10.12C422.932 10.88 423.012 11.72 423.052 12.6C423.092 12.76 423.092 12.92 423.132 13.12C423.212 13.96 423.212 14.96 423.252 15.92C423.252 16.52 423.292 17.08 423.292 17.64V21.96C423.292 22.24 423.292 22.56 423.372 22.84C423.372 22.88 424.172 22.88 424.252 22.92C424.412 22.92 424.612 22.96 424.772 22.96ZM406.052 24.76C407.772 24.44 409.252 23.6 409.252 21.56C409.252 19.2 407.292 18.32 405.332 18.28C403.332 18.2 401.332 19.04 401.332 21.56C401.332 24.44 403.852 25.2 406.052 24.76ZM447.593 14.24C445.833 14.28 444.113 14.32 442.153 14.08C441.193 14 440.513 13.04 440.553 11.8C440.593 10.68 441.633 10.2 442.593 9.92C443.713 9.64 444.753 9.68 445.913 9.64C446.673 9.64 447.353 9.68 448.113 9.68H456.953C457.273 9.68 457.633 9.64 457.953 9.68H459.073C459.553 9.68 460.033 9.72 460.513 9.72C461.033 9.72 461.513 9.72 461.993 9.76C462.233 9.76 462.513 9.76 462.713 9.84C462.833 9.84 462.993 9.92 463.073 9.96C463.593 10.2 464.033 10.52 464.313 10.96C464.833 11.68 464.913 12.6 464.913 13.44C464.913 15.68 465.073 17.68 464.953 19.96C464.873 21.36 464.713 22.56 464.273 23.52C463.593 25.04 460.993 25.16 459.953 23.8C459.313 22.96 459.353 21.64 459.393 20.68L443.433 20.6C441.793 20.6 440.913 19.28 440.913 18.4C440.913 16.6 442.913 16.4 444.433 16.4C448.073 16.12 456.113 16.36 459.393 16.32L459.353 14.48C457.593 14.44 449.513 14.36 447.593 14.24ZM464.873 26.2C465.753 26.24 466.753 26.4 467.513 27C467.873 27.28 468.073 27.76 468.073 28.24C468.073 28.76 467.873 29.52 467.553 29.8C466.713 30.6 464.633 30.52 464.553 30.52L443.233 30.56C442.033 30.6 440.553 30.68 439.673 29.96C439.073 29.52 438.753 29 438.753 28.4C438.753 27.68 439.313 26.76 440.153 26.48C441.273 26.12 442.473 26.24 443.673 26.2C446.273 26.12 445.153 26.2 447.833 26.2V23.88C447.833 22.28 449.513 21.6 451.113 21.76C452.553 21.92 453.353 22.6 453.393 23.64C453.473 24.4 453.513 25.28 453.513 26.2C456.473 26.2 462.593 26.08 464.873 26.2ZM465.233 37.28C465.313 37.32 466.793 37.68 466.953 38.8C467.113 39.8 466.953 40.6 466.473 41.16C465.873 41.92 464.993 41.96 464.953 41.96H443.913C441.873 41.96 440.633 41.24 440.633 40.04V36.48C440.593 35.88 440.593 34.88 440.633 34.28C440.713 33.16 441.553 32.4 442.673 32.4C442.953 32.4 443.513 32.44 443.753 32.52C445.113 32.96 445.193 34.32 445.273 35.52C445.273 35.96 445.313 36.84 445.433 37.2L451.353 37.28H465.233ZM493.851 13.32L493.891 23.8V27.44C493.851 28 493.771 28.64 493.451 29.24C493.251 29.56 493.051 29.84 492.771 30C492.371 30.28 492.171 30.44 491.731 30.44C491.331 30.44 490.931 30.32 490.611 30.12C489.531 29.48 489.371 28.04 489.371 28V21.32H488.491C487.611 21.36 486.371 21.32 485.691 20.24C485.571 20.04 485.491 19.8 485.451 19.52C485.451 19.56 485.411 19.6 485.411 19.6C484.811 20.4 484.131 20.48 483.411 20.48H476.251V21.64C476.251 21.92 476.291 22.24 476.491 22.44C476.731 22.64 477.171 22.68 477.451 22.68H482.811C483.691 22.68 484.571 22.64 485.371 22.88C485.531 22.92 485.691 23 485.811 23.08C487.171 23.92 487.011 26.52 485.531 27.2C484.371 27.76 483.011 27.64 481.811 27.64H477.011C475.251 27.64 472.851 27.48 471.691 26.28C470.611 25.12 470.731 22.08 470.771 21.96V13.04C470.731 12.88 470.731 11.36 471.091 10.8C471.571 10.12 471.971 9.84 472.771 9.72C473.171 9.68 474.171 9.64 474.171 9.64H482.971C483.491 9.64 483.971 9.68 484.451 9.8C484.931 9.92 485.451 10 485.811 10.4C486.131 10.72 486.331 11.12 486.411 11.56C486.491 11.96 486.531 12.28 486.451 12.64C486.331 13.68 485.531 14.56 484.331 14.56C484.091 14.56 483.851 14.52 476.251 14.52V16C477.931 16.08 479.251 16 479.291 16H481.171C481.411 16 481.691 16.04 482.011 16H483.051C483.651 16 484.291 16.08 484.811 16.36C485.411 16.68 485.651 17.28 485.691 17.92C485.931 17.52 486.291 17.2 487.131 17.04C487.411 16.96 488.531 16.92 489.371 16.88V12.8C489.331 12.56 489.411 11.36 489.691 10.72C489.971 10.2 490.571 9.84 491.331 9.76C492.211 9.64 492.811 9.88 493.211 10.36C493.571 10.76 493.611 11.16 493.771 11.6C493.931 12.12 493.851 12.76 493.851 13.32ZM500.491 38.48C500.611 39.48 500.451 40.28 499.971 40.84C499.331 41.6 498.371 41.64 498.331 41.64H478.331C476.171 41.64 474.291 40.92 474.291 39.72V33.64C474.251 33.04 474.251 32.44 474.291 31.84C474.411 30.72 475.251 29.96 476.451 29.96C476.731 29.96 477.611 30 477.891 30.12C479.291 30.52 479.371 31.88 479.451 33.08C479.491 33.56 479.531 36.52 479.611 36.88C479.771 36.92 480.331 37.04 482.291 37.04C484.011 37.04 484.171 36.96 484.211 36.96H498.691C498.731 37 500.331 37.36 500.491 38.48ZM495.691 13.16C495.691 12.6 495.651 11.96 495.811 11.44C495.971 11 496.171 10.64 496.531 10.24C496.971 9.72 497.531 9.48 498.411 9.6C499.171 9.72 499.651 10.12 499.891 10.64C500.211 11.28 500.211 12.4 500.171 12.64V28.04C500.171 28.12 500.131 29.56 499.091 30.2C498.731 30.4 498.531 30.48 498.131 30.48C497.651 30.48 497.211 30.32 496.811 30.08C496.531 29.88 496.331 29.6 496.131 29.28C495.331 27.8 495.651 25.88 495.651 24.24C495.651 24.08 495.651 13.44 495.691 13.16ZM511.414 11.56H514.934V10.16C514.934 10.16 514.934 8.4 516.014 7.64C517.374 6.64 520.254 7.48 520.254 9.44L520.294 11.56H523.454C523.814 11.64 524.854 11.56 525.214 11.56C527.134 11.56 529.694 11.12 529.934 13.8C530.254 16.72 527.294 16.4 525.494 16.28L520.614 16.32L520.654 18.24C520.654 18.68 520.654 18.92 520.734 19.36C520.894 19.96 521.294 20.28 521.654 20.72C523.214 22.52 525.934 24.28 527.614 25.96C528.614 27 529.734 28.12 529.294 29.76C528.654 31.92 526.054 30.8 524.734 29.96C522.174 28.32 520.054 26.44 517.894 24.4C517.774 24.32 514.574 27.12 512.894 28.48C511.174 29.8 507.454 32 506.014 30.08C504.654 27.96 506.454 26.88 508.134 25.56C509.894 24.24 512.214 22.44 514.014 20.64C514.734 19.92 514.694 19.4 514.694 18.4L514.734 16.24H510.374C510.374 16.24 505.614 16.68 505.414 14.24C505.294 13.04 505.814 11.68 507.134 11.56C507.494 11.52 507.894 11.52 508.374 11.52C508.654 11.52 511.014 11.56 511.414 11.56ZM506.334 39.12C504.654 38.96 502.894 38.6 502.894 36.52C502.894 35.96 503.094 35.48 503.414 35.12C504.254 34.28 506.214 34.32 506.294 34.32L528.174 34.36C529.534 34.36 530.734 34.2 531.614 34.96C532.134 35.44 532.454 36.04 532.454 36.68C532.454 37.48 531.934 38.2 531.134 38.48C530.054 38.88 528.894 39.04 527.774 39.08C523.894 39.24 520.054 39.12 516.494 39.12C512.654 39.12 508.734 39.24 506.334 39.12Z" fill="#475783"/>
<g clip-path="url(#clip0_1947_53043)">
<mask id="path-7-inside-1_1947_53043" fill="white">
<path d="M545.992 17.8C543.844 18.7579 544.169 21.2524 543.617 22.0307C543.065 22.809 540.611 23.5973 540.385 26.2415C540.148 28.8857 541.942 28.756 542.73 29.9035C543.509 31.051 542.996 33.8648 546.377 34.4236C549.757 34.9824 549.866 32.1785 551.216 31.8792C552.566 31.5898 555.739 31.6497 557.484 29.5144C559.189 27.4189 557.671 24.9543 557.385 24.0762C557.099 23.1882 557.622 20.8633 556.143 19.6958C554.665 18.5384 553.207 19.7058 551.975 19.0672C550.743 18.4286 548.161 16.8421 546.012 17.8"/>
</mask>
<path d="M545.992 17.8C543.844 18.7579 544.169 21.2524 543.617 22.0307C543.065 22.809 540.611 23.5973 540.385 26.2415C540.148 28.8857 541.942 28.756 542.73 29.9035C543.509 31.051 542.996 33.8648 546.377 34.4236C549.757 34.9824 549.866 32.1785 551.216 31.8792C552.566 31.5898 555.739 31.6497 557.484 29.5144C559.189 27.4189 557.671 24.9543 557.385 24.0762C557.099 23.1882 557.622 20.8633 556.143 19.6958C554.665 18.5384 553.207 19.7058 551.975 19.0672C550.743 18.4286 548.161 16.8421 546.012 17.8" fill="#E4E8EB"/>
<path d="M540.385 26.2415L541.381 26.3306L541.381 26.3269L540.385 26.2415ZM542.73 29.9035L543.558 29.342L543.554 29.3372L542.73 29.9035ZM551.216 31.8792L551.006 30.9014L550.999 30.9029L551.216 31.8792ZM557.484 29.5144L558.258 30.147L558.259 30.1455L557.484 29.5144ZM557.385 24.0762L556.433 24.3826L556.434 24.3858L557.385 24.0762ZM556.143 19.6958L556.763 18.911L556.76 18.9085L556.143 19.6958ZM545.992 17.8L545.585 16.8866C544.139 17.5314 543.548 18.7103 543.249 19.6911C543.107 20.1588 543.014 20.6417 542.943 20.9563C542.905 21.128 542.873 21.2534 542.841 21.3489C542.808 21.4486 542.79 21.4687 542.801 21.4523L543.617 22.0307L544.433 22.6092C544.705 22.2249 544.821 21.7217 544.895 21.3957C544.985 20.9938 545.049 20.6472 545.163 20.2743C545.376 19.5738 545.697 19.0264 546.4 18.7133L545.992 17.8ZM543.617 22.0307L542.801 21.4523C542.804 21.4489 542.779 21.4829 542.686 21.5613C542.596 21.6365 542.481 21.7226 542.326 21.8344C542.033 22.0456 541.619 22.3333 541.219 22.6853C540.391 23.4127 539.531 24.4903 539.388 26.1561L540.385 26.2415L541.381 26.3269C541.465 25.3485 541.945 24.7099 542.539 24.1874C542.85 23.9146 543.167 23.694 543.496 23.456C543.771 23.258 544.18 22.9657 544.433 22.6092L543.617 22.0307ZM540.385 26.2415L539.389 26.1524C539.32 26.9226 539.391 27.5731 539.609 28.1311C539.83 28.6993 540.174 29.0955 540.524 29.3945C540.833 29.6585 541.226 29.9014 541.429 30.0414C541.675 30.2117 541.814 30.3354 541.906 30.4698L542.73 29.9035L543.554 29.3372C543.253 28.8979 542.871 28.6075 542.567 28.3967C542.219 28.1557 542.03 28.0506 541.822 27.8731C541.655 27.7305 541.545 27.5916 541.472 27.4046C541.395 27.2074 541.331 26.8825 541.381 26.3306L540.385 26.2415ZM542.73 29.9035L541.903 30.465C541.986 30.5875 542.065 30.8093 542.186 31.2699C542.292 31.6721 542.426 32.235 542.658 32.7773C542.898 33.3392 543.26 33.9273 543.856 34.4163C544.454 34.9063 545.227 35.2471 546.214 35.4102L546.377 34.4236L546.54 33.437C545.836 33.3207 545.406 33.1003 545.124 32.8696C544.842 32.6381 544.649 32.3462 544.497 31.9914C544.337 31.6169 544.243 31.2263 544.12 30.7606C544.013 30.3535 543.864 29.7932 543.558 29.342L542.73 29.9035ZM546.377 34.4236L546.214 35.4102C547.196 35.5726 548.018 35.5021 548.719 35.2408C549.418 34.9799 549.916 34.5586 550.292 34.1523C550.476 33.9525 550.637 33.7509 550.772 33.5776C550.915 33.3934 551.019 33.2566 551.126 33.1308C551.346 32.8731 551.426 32.8568 551.432 32.8555L551.216 31.8792L550.999 30.9029C550.33 31.0512 549.89 31.4977 549.605 31.8324C549.459 32.0028 549.314 32.1947 549.194 32.3486C549.065 32.5136 548.948 32.6596 548.823 32.7941C548.581 33.0563 548.333 33.2499 548.02 33.3669C547.707 33.4836 547.247 33.554 546.54 33.437L546.377 34.4236ZM551.216 31.8792L551.425 32.857C551.712 32.7956 552.096 32.7529 552.651 32.6792C553.175 32.6095 553.796 32.5175 554.439 32.3605C555.717 32.0485 557.189 31.4553 558.258 30.147L557.484 29.5144L556.709 28.8817C556.034 29.7087 555.047 30.1532 553.965 30.4175C553.428 30.5486 552.893 30.6294 552.388 30.6966C551.913 30.7597 551.395 30.8181 551.006 30.9014L551.216 31.8792ZM557.484 29.5144L558.259 30.1455C559.361 28.7912 559.401 27.3116 559.161 26.1384C559.042 25.5597 558.854 25.0404 558.689 24.6284C558.498 24.1543 558.395 23.9481 558.336 23.7667L557.385 24.0762L556.434 24.3858C556.518 24.6434 556.712 25.0745 556.833 25.375C556.979 25.7376 557.118 26.1301 557.201 26.5392C557.365 27.3417 557.311 28.1421 556.708 28.8832L557.484 29.5144ZM557.385 24.0762L558.337 23.7699C558.315 23.7009 558.293 23.5305 558.278 23.1417C558.265 22.8078 558.255 22.3468 558.206 21.8841C558.107 20.9633 557.824 19.749 556.763 18.911L556.143 19.6958L555.524 20.4806C555.941 20.8101 556.136 21.3419 556.217 22.0975C556.258 22.4729 556.264 22.8327 556.279 23.221C556.293 23.5543 556.313 24.0075 556.433 24.3826L557.385 24.0762ZM556.143 19.6958L556.76 18.9085C555.71 18.0866 554.647 18.1172 553.871 18.1915C553.452 18.2316 553.206 18.2708 552.933 18.2721C552.697 18.2732 552.551 18.2396 552.435 18.1794L551.975 19.0672L551.514 19.955C552.014 20.2141 552.513 20.2741 552.943 20.2721C553.336 20.2702 553.777 20.2096 554.062 20.1824C554.693 20.122 555.098 20.1476 555.527 20.4832L556.143 19.6958ZM551.975 19.0672L552.435 18.1794C551.875 17.8892 550.819 17.2754 549.654 16.8864C548.486 16.4965 547.012 16.259 545.605 16.8866L546.012 17.8L546.419 18.7133C547.16 18.383 548.051 18.4598 549.02 18.7834C549.992 19.1078 550.842 19.6066 551.514 19.955L551.975 19.0672Z" fill="#5E6F98" mask="url(#path-7-inside-1_1947_53043)"/>
<path d="M547.204 34.8633C546.928 34.8633 546.633 34.8433 546.307 34.7834C543.637 34.3344 543.173 32.5583 542.838 31.2611C542.72 30.8121 542.612 30.3831 542.424 30.1136C542.217 29.8043 541.892 29.5848 541.557 29.3653C540.798 28.8564 539.842 28.2178 540.02 26.2122C540.207 24.1367 541.636 23.109 542.592 22.4205C542.917 22.181 543.203 21.9814 543.331 21.8118C543.459 21.6322 543.538 21.243 543.637 20.8339C543.873 19.7264 544.208 18.1997 545.854 17.4613C547.963 16.5234 550.348 17.7906 551.767 18.5489L552.132 18.7385C552.566 18.968 553.068 18.9082 553.64 18.8483C554.468 18.7585 555.404 18.6487 556.36 19.3971C557.533 20.3151 557.582 21.8417 557.621 22.9493C557.631 23.3584 557.651 23.7376 557.72 23.9471C557.759 24.0768 557.828 24.2465 557.917 24.4361C558.42 25.6135 559.346 27.7987 557.759 29.7345C556.271 31.5505 553.857 31.8698 552.26 32.0793C551.886 32.1292 551.55 32.1691 551.294 32.229C550.949 32.3088 550.683 32.6481 550.348 33.0871C549.757 33.8455 548.978 34.8533 547.224 34.8533L547.204 34.8633ZM546.14 18.1398C544.819 18.7285 544.553 19.9858 544.336 20.9936C544.228 21.5025 544.129 21.9415 543.912 22.2508C543.725 22.5103 543.39 22.7497 543.016 23.0291C542.129 23.6677 540.907 24.5458 540.749 26.282C540.611 27.8586 541.242 28.2777 541.961 28.7566C542.345 29.0061 542.74 29.2755 543.025 29.7045C543.282 30.0737 543.41 30.5627 543.538 31.0815C543.873 32.3687 544.228 33.7058 546.426 34.075C548.407 34.4043 549.096 33.5162 549.757 32.6581C550.151 32.1492 550.525 31.6702 551.127 31.5405C551.403 31.4807 551.757 31.4308 552.161 31.3809C553.65 31.1913 555.887 30.8919 557.198 29.2954C558.499 27.6989 557.72 25.853 557.247 24.7554C557.158 24.5358 557.079 24.3463 557.03 24.2066C556.932 23.8972 556.912 23.4782 556.902 22.9992C556.863 21.9814 556.823 20.7142 555.916 20.0058C555.197 19.437 554.478 19.5168 553.719 19.6066C553.088 19.6765 552.428 19.7463 551.797 19.427L551.422 19.2275C550.121 18.529 547.933 17.3615 546.14 18.1598V18.1398Z" fill="#5E6F98"/>
<path d="M548.821 26.6022C549.176 26.5124 549.541 26.7319 549.619 27.0811C549.708 27.4403 549.491 27.7996 549.137 27.8894C548.782 27.9792 548.417 27.7596 548.328 27.4104C548.24 27.0512 548.457 26.692 548.821 26.6022Z" fill="#C8A374"/>
<path d="M547.569 25.4733C547.924 25.3835 548.289 25.603 548.368 25.9522C548.456 26.3114 548.239 26.6706 547.885 26.7604C547.53 26.8503 547.165 26.6307 547.076 26.2815C546.988 25.9223 547.205 25.5631 547.569 25.4733Z" fill="#C8A374"/>
<path d="M550.743 26.2506C551.098 26.1608 551.463 26.3803 551.541 26.7296C551.63 27.0888 551.413 27.448 551.058 27.5378C550.704 27.6276 550.339 27.4081 550.25 27.0588C550.162 26.6996 550.378 26.3404 550.743 26.2506Z" fill="#C8A374"/>
<path d="M551.313 24.7155C551.668 24.6257 552.033 24.8452 552.112 25.1944C552.2 25.5536 551.984 25.9128 551.629 26.0026C551.274 26.0924 550.909 25.8729 550.821 25.5237C550.732 25.1645 550.949 24.8053 551.313 24.7155Z" fill="#C8A374"/>
<path d="M549.452 24.6959C549.807 24.6061 550.171 24.8256 550.25 25.1749C550.339 25.5341 550.122 25.8933 549.767 25.9831C549.413 26.0729 549.048 25.8534 548.959 25.5042C548.871 25.1449 549.087 24.7857 549.452 24.6959Z" fill="#C8A374"/>
<path d="M550.653 23.0201C551.008 22.9303 551.373 23.1499 551.452 23.4991C551.54 23.8583 551.323 24.2175 550.969 24.3073C550.614 24.3971 550.249 24.1776 550.16 23.8284C550.072 23.4692 550.289 23.1099 550.653 23.0201Z" fill="#C8A374"/>
<path d="M548.929 22.7194C549.283 22.6296 549.648 22.8491 549.727 23.1983C549.816 23.5575 549.599 23.9167 549.244 24.0065C548.889 24.0963 548.525 23.8768 548.436 23.5276C548.347 23.1684 548.564 22.8092 548.929 22.7194Z" fill="#C8A374"/>
<path d="M547.708 23.8483C548.063 23.7585 548.427 23.978 548.506 24.3272C548.595 24.6864 548.378 25.0456 548.023 25.1355C547.668 25.2253 547.304 25.0057 547.215 24.6565C547.126 24.2973 547.343 23.9381 547.708 23.8483Z" fill="#C8A374"/>
<mask id="path-18-inside-2_1947_53043" fill="white">
<path d="M561.21 21.83C559.643 21.7202 557.967 22.5584 557.189 23.6061C556.41 24.6538 556.41 26.4599 555.819 26.9688C555.346 27.3679 554.222 27.5375 553.227 28.0963C552.084 28.7449 551.206 29.9422 550.96 31.6585C550.704 33.4745 551.778 34.8016 553.01 35.53C553.956 36.0888 554.745 36.0289 555.572 36.5179C556.39 37.0068 556.794 37.6454 557.504 38.4237C558.164 39.1521 559.239 40.0002 561.003 40.11C562.777 40.2098 563.989 39.5812 564.521 38.723C564.984 37.9747 565.339 37.1365 565.802 36.6176C566.236 36.1187 567.261 35.979 568.099 35.3604C569.153 34.5821 569.794 33.1452 569.616 31.2494C569.528 30.3514 568.946 29.3136 568.197 28.665C567.369 27.9566 565.95 27.5674 565.645 27.1683C565.329 26.7692 565.832 25.4321 564.965 24.1948C564.097 22.9575 562.678 21.9298 561.22 21.83"/>
</mask>
<path d="M561.21 21.83C559.643 21.7202 557.967 22.5584 557.189 23.6061C556.41 24.6538 556.41 26.4599 555.819 26.9688C555.346 27.3679 554.222 27.5375 553.227 28.0963C552.084 28.7449 551.206 29.9422 550.96 31.6585C550.704 33.4745 551.778 34.8016 553.01 35.53C553.956 36.0888 554.745 36.0289 555.572 36.5179C556.39 37.0068 556.794 37.6454 557.504 38.4237C558.164 39.1521 559.239 40.0002 561.003 40.11C562.777 40.2098 563.989 39.5812 564.521 38.723C564.984 37.9747 565.339 37.1365 565.802 36.6176C566.236 36.1187 567.261 35.979 568.099 35.3604C569.153 34.5821 569.794 33.1452 569.616 31.2494C569.528 30.3514 568.946 29.3136 568.197 28.665C567.369 27.9566 565.95 27.5674 565.645 27.1683C565.329 26.7692 565.832 25.4321 564.965 24.1948C564.097 22.9575 562.678 21.9298 561.22 21.83" fill="#E4E8EB"/>
<path d="M555.819 26.9688L556.464 27.7331L556.471 27.7267L555.819 26.9688ZM553.227 28.0963L552.737 27.2243L552.733 27.2265L553.227 28.0963ZM550.96 31.6585L549.97 31.5164L549.97 31.5188L550.96 31.6585ZM553.01 35.53L552.501 36.3908L552.501 36.3911L553.01 35.53ZM555.572 36.5179L556.085 35.6595L556.081 35.6568L555.572 36.5179ZM557.504 38.4237L558.245 37.7521L558.243 37.75L557.504 38.4237ZM561.003 40.11L560.941 41.1081L560.947 41.1084L561.003 40.11ZM564.521 38.723L565.371 39.2501L565.371 39.2493L564.521 38.723ZM565.802 36.6176L566.548 37.2837L566.557 37.2737L565.802 36.6176ZM568.099 35.3604L567.505 34.5558L567.505 34.556L568.099 35.3604ZM569.616 31.2494L570.612 31.1562L570.612 31.1511L569.616 31.2494ZM568.197 28.665L568.852 27.9091L568.847 27.9053L568.197 28.665ZM565.645 27.1683L566.439 26.5605L566.434 26.5544L566.429 26.5483L565.645 27.1683ZM561.21 21.83L561.28 20.8324C559.373 20.6989 557.369 21.6874 556.386 23.0096L557.189 23.6061L557.991 24.2026C558.566 23.4294 559.912 22.7416 561.14 22.8275L561.21 21.83ZM557.189 23.6061L556.386 23.0096C555.862 23.7151 555.628 24.6264 555.467 25.2333C555.377 25.574 555.31 25.8265 555.235 26.0285C555.153 26.249 555.114 26.2557 555.166 26.2108L555.819 26.9688L556.471 27.7267C556.819 27.4273 557.002 27.0175 557.11 26.7234C557.226 26.411 557.319 26.0511 557.4 25.7457C557.582 25.0604 557.737 24.5448 557.991 24.2026L557.189 23.6061ZM555.819 26.9688L555.174 26.2044C555.174 26.204 555.16 26.2158 555.121 26.2377C555.083 26.2593 555.03 26.2854 554.958 26.3164C554.809 26.3807 554.627 26.4453 554.389 26.5285C553.94 26.6854 553.325 26.8945 552.737 27.2243L553.227 28.0963L553.716 28.9683C554.124 28.7393 554.569 28.5841 555.048 28.4168C555.274 28.3379 555.524 28.2503 555.75 28.1531C555.97 28.0581 556.234 27.9266 556.464 27.7331L555.819 26.9688ZM553.227 28.0963L552.733 27.2265C551.302 28.0385 550.257 29.5161 549.97 31.5164L550.96 31.6585L551.95 31.8006C552.155 30.3684 552.865 29.4512 553.72 28.9661L553.227 28.0963ZM550.96 31.6585L549.97 31.5188C549.638 33.8718 551.058 35.5376 552.501 36.3908L553.01 35.53L553.519 34.6692C552.498 34.0656 551.77 33.0773 551.95 31.7982L550.96 31.6585ZM553.01 35.53L552.501 36.3911C553.097 36.7431 553.643 36.896 554.069 37.0139C554.507 37.1353 554.782 37.2126 555.064 37.3789L555.572 36.5179L556.081 35.6568C555.535 35.3342 555.002 35.1969 554.602 35.0864C554.19 34.9723 553.869 34.8757 553.518 34.669L553.01 35.53ZM555.572 36.5179L555.059 37.3762C555.709 37.7643 555.929 38.1805 556.765 39.0974L557.504 38.4237L558.243 37.75C557.66 37.1103 557.072 36.2493 556.085 35.6595L555.572 36.5179ZM557.504 38.4237L556.763 39.0953C557.539 39.9508 558.839 40.9773 560.941 41.1081L561.003 40.11L561.065 39.1119C559.638 39.0232 558.79 38.3534 558.245 37.7521L557.504 38.4237ZM561.003 40.11L560.947 41.1084C562.959 41.2216 564.587 40.5141 565.371 39.2501L564.521 38.723L563.671 38.196C563.391 38.6482 562.594 39.1979 561.059 39.1116L561.003 40.11ZM564.521 38.723L565.371 39.2493C565.619 38.8489 565.852 38.4006 566.036 38.0701C566.238 37.7055 566.397 37.4528 566.548 37.2836L565.802 36.6176L565.056 35.9517C564.744 36.3014 564.494 36.7272 564.288 37.0985C564.062 37.5038 563.886 37.8488 563.671 38.1967L564.521 38.723ZM565.802 36.6176L566.557 37.2737C566.556 37.2745 566.588 37.2398 566.706 37.1754C566.824 37.1105 566.974 37.0453 567.187 36.9557C567.578 36.7912 568.16 36.5581 568.693 36.1648L568.099 35.3604L567.505 34.556C567.199 34.7814 566.851 34.9274 566.411 35.1121C566.058 35.2606 565.447 35.5016 565.048 35.9616L565.802 36.6176ZM568.099 35.3604L568.692 36.165C570.088 35.1353 570.815 33.3218 570.612 31.1562L569.616 31.2494L568.621 31.3426C568.773 32.9687 568.219 34.0289 567.505 34.5558L568.099 35.3604ZM569.616 31.2494L570.612 31.1511C570.494 29.9613 569.764 28.6991 568.852 27.9091L568.197 28.665L567.543 29.421C568.128 29.9281 568.561 30.7414 568.621 31.3477L569.616 31.2494ZM568.197 28.665L568.847 27.9053C568.316 27.4506 567.632 27.1242 567.154 26.8973C566.891 26.7724 566.693 26.6801 566.537 26.5942C566.348 26.4906 566.374 26.4765 566.439 26.5605L565.645 27.1683L564.851 27.7761C565.068 28.0597 565.386 28.244 565.575 28.3476C565.796 28.4692 566.063 28.5933 566.296 28.704C566.811 28.9487 567.25 29.171 567.547 29.4248L568.197 28.665ZM565.645 27.1683L566.429 26.5483C566.568 26.7241 566.537 26.8692 566.526 26.6557C566.522 26.5812 566.521 26.4931 566.52 26.3683C566.518 26.2509 566.517 26.1075 566.511 25.9548C566.485 25.335 566.377 24.467 565.783 23.6208L564.965 24.1948L564.146 24.7688C564.42 25.1599 564.494 25.5791 564.512 26.037C564.517 26.1537 564.518 26.2666 564.52 26.3883C564.521 26.5027 564.522 26.6366 564.529 26.7629C564.539 26.9511 564.563 27.413 564.86 27.7883L565.645 27.1683ZM564.965 24.1948L565.783 23.6208C564.804 22.2234 563.14 20.959 561.288 20.8323L561.22 21.83L561.151 22.8277C562.216 22.9005 563.391 23.6917 564.146 24.7688L564.965 24.1948Z" fill="#5E6F98" mask="url(#path-18-inside-2_1947_53043)"/>
<path d="M561.367 40.5009C561.239 40.5009 561.111 40.5009 560.983 40.4909C559.485 40.4011 558.253 39.8124 557.238 38.6949C557.051 38.4853 556.883 38.2957 556.726 38.1062C556.292 37.5873 555.947 37.1882 555.385 36.8489C555.03 36.6394 554.666 36.5396 554.281 36.4298C553.848 36.3101 553.355 36.1704 552.823 35.8611C551.187 34.8932 550.359 33.3067 550.605 31.6203C550.852 29.9041 551.719 28.5471 553.049 27.7887C553.562 27.4994 554.094 27.3098 554.567 27.1501C554.991 27.0005 555.395 26.8608 555.582 26.7011C555.789 26.5315 555.927 25.9827 556.075 25.4439C556.252 24.7554 556.459 23.987 556.903 23.3884C557.81 22.171 559.623 21.3528 561.239 21.4725C562.708 21.5723 564.255 22.5402 565.26 23.997C565.862 24.8651 565.871 25.7831 565.881 26.3918C565.881 26.6013 565.881 26.8907 565.931 26.9605C566.019 27.0803 566.453 27.2798 566.798 27.4395C567.34 27.6989 567.961 27.9883 568.444 28.3974C569.272 29.1058 569.892 30.2434 569.981 31.2212C570.168 33.137 569.557 34.7535 568.316 35.6715C567.882 35.9908 567.409 36.1903 566.995 36.37C566.591 36.5396 566.246 36.6893 566.078 36.8788C565.812 37.1882 565.566 37.6272 565.31 38.1062C565.162 38.3855 565.004 38.6649 564.837 38.9443C564.226 39.9421 562.944 40.5109 561.377 40.5109L561.367 40.5009ZM560.944 22.191C559.653 22.191 558.194 22.8695 557.484 23.8274C557.13 24.3063 556.942 25.0048 556.775 25.6235C556.588 26.3219 556.43 26.9206 556.055 27.2499C555.76 27.4994 555.316 27.649 554.804 27.8286C554.36 27.9883 553.858 28.1579 553.404 28.4174C552.271 29.056 551.532 30.2234 551.325 31.7102C551.039 33.6958 552.537 34.8233 553.197 35.2125C553.641 35.4819 554.045 35.5917 554.478 35.7114C554.892 35.8212 555.316 35.9409 555.76 36.2003C556.42 36.5995 556.824 37.0684 557.277 37.6072C557.425 37.7869 557.593 37.9764 557.77 38.176C558.657 39.1539 559.722 39.6628 561.023 39.7426C562.491 39.8224 563.693 39.3734 564.216 38.5252C564.373 38.2658 564.531 37.9864 564.669 37.727C564.945 37.2181 565.211 36.7391 565.536 36.37C565.822 36.0507 566.256 35.8611 566.719 35.6715C567.113 35.5019 567.527 35.3322 567.892 35.0628C568.917 34.3045 569.419 32.9275 569.262 31.2811C569.183 30.4928 568.651 29.5349 567.971 28.9462C567.567 28.597 566.995 28.3275 566.492 28.0981C565.97 27.8586 565.566 27.659 565.359 27.3996C565.162 27.1501 565.162 26.8109 565.152 26.3818C565.152 25.8031 565.142 25.0846 564.669 24.4061C563.802 23.1489 562.432 22.2808 561.19 22.191C561.111 22.191 561.032 22.191 560.944 22.191Z" fill="#5E6F98"/>
<path d="M560.047 29.7836C559.948 30.1229 559.594 30.3124 559.268 30.2127C558.943 30.1129 558.756 29.7537 558.854 29.4244C558.953 29.0851 559.298 28.8955 559.633 28.9953C559.958 29.0951 560.145 29.4543 560.047 29.7836Z" fill="#C8A374"/>
<path d="M561.555 29.3031C561.456 29.6424 561.101 29.832 560.776 29.7322C560.451 29.6324 560.264 29.2732 560.362 28.9439C560.461 28.6047 560.806 28.4151 561.141 28.5149C561.466 28.6146 561.653 28.9738 561.555 29.3031Z" fill="#C8A374"/>
<path d="M559.395 31.5414C559.296 31.8807 558.941 32.0703 558.616 31.9705C558.291 31.8707 558.104 31.5115 558.202 31.1822C558.301 30.8429 558.646 30.6534 558.981 30.7531C559.306 30.8529 559.493 31.2121 559.395 31.5414Z" fill="#C8A374"/>
<path d="M560.352 32.7563C560.253 33.0955 559.898 33.2851 559.573 33.1853C559.248 33.0855 559.061 32.7263 559.159 32.397C559.258 32.0578 559.603 31.8682 559.938 31.968C560.263 32.0678 560.45 32.427 560.352 32.7563Z" fill="#C8A374"/>
<path d="M561.268 31.2289C561.169 31.5682 560.814 31.7578 560.489 31.658C560.164 31.5582 559.977 31.199 560.075 30.8697C560.174 30.5304 560.519 30.3409 560.854 30.4406C561.179 30.5404 561.366 30.8996 561.268 31.2289Z" fill="#C8A374"/>
<path d="M562.037 33.0258C561.939 33.365 561.584 33.5546 561.259 33.4548C560.933 33.3551 560.746 32.9958 560.845 32.6666C560.943 32.3273 561.288 32.1377 561.623 32.2375C561.948 32.3373 562.136 32.6965 562.037 33.0258Z" fill="#C8A374"/>
<path d="M563.111 31.7602C563.013 32.0994 562.658 32.289 562.333 32.1892C562.008 32.0894 561.82 31.7302 561.919 31.4009C562.017 31.0617 562.362 30.8721 562.697 30.9719C563.023 31.0717 563.21 31.4309 563.111 31.7602Z" fill="#C8A374"/>
<path d="M562.795 30.2133C562.696 30.5525 562.342 30.7421 562.016 30.6423C561.691 30.5426 561.504 30.1833 561.602 29.8541C561.701 29.5148 562.046 29.3252 562.381 29.425C562.706 29.5248 562.894 29.884 562.795 30.2133Z" fill="#C8A374"/>
<mask id="path-29-inside-3_1947_53043" fill="white">
<path d="M562.903 9.26849C561.593 8.62989 559.868 8.7596 558.833 9.37825C557.798 10.0069 557.187 11.5635 556.497 11.793C555.955 11.9726 554.92 11.7231 553.876 11.8528C552.664 12.0025 551.501 12.7309 550.702 14.1179C549.855 15.5847 550.328 17.1014 551.136 18.169C551.757 18.9872 552.457 19.2068 552.999 19.9152C553.541 20.6237 553.659 21.3121 554.004 22.2401C554.319 23.0982 554.95 24.2058 556.438 24.9242C557.926 25.6327 559.198 25.5229 559.947 24.9642C560.597 24.4852 561.198 23.8865 561.77 23.5971C562.312 23.3277 563.238 23.5572 564.175 23.3277C565.347 23.0284 566.392 22.0206 566.885 20.3243C567.121 19.5161 566.974 18.4185 566.55 17.6102C566.077 16.7022 564.993 15.884 564.865 15.425C564.736 14.966 565.623 13.9981 565.308 12.6212C564.993 11.2442 564.116 9.86718 562.893 9.26849"/>
</mask>
<path d="M562.903 9.26849C561.593 8.62989 559.868 8.7596 558.833 9.37825C557.798 10.0069 557.187 11.5635 556.497 11.793C555.955 11.9726 554.92 11.7231 553.876 11.8528C552.664 12.0025 551.501 12.7309 550.702 14.1179C549.855 15.5847 550.328 17.1014 551.136 18.169C551.757 18.9872 552.457 19.2068 552.999 19.9152C553.541 20.6237 553.659 21.3121 554.004 22.2401C554.319 23.0982 554.95 24.2058 556.438 24.9242C557.926 25.6327 559.198 25.5229 559.947 24.9642C560.597 24.4852 561.198 23.8865 561.77 23.5971C562.312 23.3277 563.238 23.5572 564.175 23.3277C565.347 23.0284 566.392 22.0206 566.885 20.3243C567.121 19.5161 566.974 18.4185 566.55 17.6102C566.077 16.7022 564.993 15.884 564.865 15.425C564.736 14.966 565.623 13.9981 565.308 12.6212C564.993 11.2442 564.116 9.86718 562.893 9.26849" fill="#E4E8EB"/>
<path d="M558.833 9.37825L558.32 8.51992L558.314 8.52359L558.833 9.37825ZM556.497 11.793L556.812 12.7422L556.813 12.7418L556.497 11.793ZM553.876 11.8528L553.998 12.8453L553.999 12.8452L553.876 11.8528ZM550.702 14.1179L551.568 14.6182L551.569 14.6167L550.702 14.1179ZM551.136 18.169L550.339 18.7726L550.339 18.7735L551.136 18.169ZM554.004 22.2401L554.942 21.8952L554.941 21.8917L554.004 22.2401ZM556.438 24.9242L556.003 25.8248L556.008 25.8272L556.438 24.9242ZM559.947 24.9642L559.354 24.1589L559.349 24.1626L559.947 24.9642ZM561.77 23.5971L561.325 22.7016L561.318 22.705L561.77 23.5971ZM564.175 23.3277L564.413 24.299L564.422 24.2967L564.175 23.3277ZM566.885 20.3243L565.925 20.0434L565.925 20.0453L566.885 20.3243ZM566.55 17.6102L565.663 18.0723L565.664 18.0746L566.55 17.6102ZM562.903 9.26849L563.341 8.36951C561.729 7.58396 559.646 7.72691 558.32 8.51994L558.833 9.37825L559.346 10.2366C560.089 9.7923 561.456 9.67582 562.465 10.1675L562.903 9.26849ZM558.833 9.37825L558.314 8.52359C557.6 8.95744 557.077 9.67609 556.733 10.1394C556.538 10.4025 556.397 10.5922 556.267 10.7356C556.124 10.893 556.1 10.8711 556.182 10.8441L556.497 11.793L556.813 12.7418C557.239 12.6001 557.55 12.2975 557.749 12.0789C557.96 11.8463 558.166 11.5645 558.339 11.3312C558.732 10.8017 559.032 10.4277 559.352 10.2329L558.833 9.37825ZM556.497 11.793L556.183 10.8437C556.188 10.8419 556.139 10.8569 555.985 10.8601C555.838 10.8631 555.662 10.8551 555.427 10.843C554.987 10.8202 554.377 10.7829 553.753 10.8605L553.876 11.8528L553.999 12.8452C554.419 12.7931 554.849 12.8157 555.323 12.8403C555.546 12.8518 555.795 12.8644 556.026 12.8596C556.252 12.855 556.535 12.8338 556.812 12.7422L556.497 11.793ZM553.876 11.8528L553.753 10.8604C552.202 11.0519 550.777 11.9841 549.836 13.619L550.702 14.1179L551.569 14.6167C552.225 13.4777 553.125 12.9532 553.998 12.8453L553.876 11.8528ZM550.702 14.1179L549.836 13.6176C548.714 15.5599 549.391 17.5204 550.339 18.7726L551.136 18.169L551.933 17.5655C551.265 16.6823 550.995 15.6095 551.568 14.6182L550.702 14.1179ZM551.136 18.169L550.339 18.7735C550.737 19.2974 551.161 19.6254 551.488 19.8767C551.826 20.136 552.027 20.2912 552.204 20.5229L552.999 19.9152L553.793 19.3075C553.428 18.8308 553.008 18.522 552.705 18.2898C552.392 18.0497 552.156 17.8588 551.933 17.5645L551.136 18.169ZM552.999 19.9152L552.204 20.5229C552.396 20.7728 552.519 21.0244 552.638 21.3447C552.7 21.5116 552.758 21.6871 552.828 21.8986C552.896 22.1045 552.973 22.3374 553.067 22.5885L554.004 22.2401L554.941 21.8917C554.862 21.6789 554.795 21.4777 554.727 21.2714C554.661 21.0706 554.59 20.8558 554.512 20.646C554.351 20.2129 554.144 19.7661 553.793 19.3075L552.999 19.9152ZM554.004 22.2401L553.065 22.5851C553.44 23.6047 554.213 24.9606 556.003 25.8248L556.438 24.9242L556.873 24.0237C555.687 23.4511 555.198 22.5917 554.942 21.8952L554.004 22.2401ZM556.438 24.9242L556.008 25.8272C557.706 26.6352 559.401 26.6187 560.545 25.7657L559.947 24.9642L559.349 24.1626C558.994 24.4272 558.147 24.6302 556.868 24.0213L556.438 24.9242ZM559.947 24.9642L560.54 25.7694C560.89 25.5117 561.246 25.2065 561.518 24.9863C561.819 24.7423 562.04 24.5814 562.222 24.4893L561.77 23.5971L561.318 22.705C560.929 22.9023 560.563 23.1854 560.258 23.4328C559.923 23.7041 559.654 23.9376 559.354 24.1589L559.947 24.9642ZM561.77 23.5971L562.215 24.4926C562.204 24.4983 562.234 24.4809 562.354 24.4674C562.475 24.4539 562.623 24.45 562.836 24.4474C563.227 24.4427 563.813 24.4461 564.413 24.299L564.175 23.3277L563.937 22.3565C563.6 22.4389 563.255 22.4422 562.812 22.4475C562.462 22.4517 561.841 22.445 561.325 22.7017L561.77 23.5971ZM564.175 23.3277L564.422 24.2967C566.008 23.8918 567.276 22.5636 567.845 20.6033L566.885 20.3243L565.925 20.0453C565.509 21.4776 564.687 22.165 563.927 22.3588L564.175 23.3277ZM566.885 20.3243L567.845 20.6052C568.164 19.5124 567.961 18.1481 567.435 17.1459L566.55 17.6102L565.664 18.0746C565.986 18.6888 566.078 19.5197 565.925 20.0434L566.885 20.3243ZM566.55 17.6102L567.437 17.1482C567.129 16.5575 566.646 16.0322 566.313 15.6714C566.129 15.4715 565.993 15.3258 565.89 15.1996C565.765 15.0465 565.798 15.0507 565.828 15.1562L564.865 15.425L563.901 15.6939C563.995 16.0288 564.212 16.3074 564.341 16.4652C564.492 16.65 564.681 16.8516 564.843 17.0271C565.202 17.4172 565.498 17.755 565.663 18.0723L566.55 17.6102ZM564.865 15.425L565.828 15.1562C565.888 15.3705 565.807 15.4958 565.871 15.3093C565.893 15.245 565.922 15.17 565.964 15.0616C566.003 14.9599 566.052 14.835 566.1 14.7C566.293 14.1503 566.501 13.3527 566.283 12.3979L565.308 12.6212L564.333 12.8444C564.43 13.2666 564.352 13.6414 564.213 14.0347C564.178 14.1354 564.141 14.2319 564.1 14.3369C564.061 14.4351 564.016 14.5521 563.978 14.6645C563.921 14.8316 563.777 15.2501 563.901 15.6939L564.865 15.425ZM565.308 12.6212L566.283 12.3979C565.922 10.8222 564.903 9.13964 563.333 8.37046L562.893 9.26849L562.454 10.1665C563.328 10.5947 564.063 11.6662 564.333 12.8444L565.308 12.6212Z" fill="#5E6F98" mask="url(#path-29-inside-3_1947_53043)"/>
<path d="M558.338 25.7709C557.677 25.7709 556.948 25.5913 556.209 25.2421C554.947 24.6334 554.1 23.6954 553.607 22.3783C553.518 22.1388 553.439 21.9093 553.37 21.6898C553.173 21.0911 553.016 20.6222 552.651 20.1432C552.414 19.8339 552.139 19.6243 551.843 19.3948C551.508 19.1354 551.133 18.8461 550.788 18.3871C549.714 16.9801 549.547 15.3238 550.335 13.9567C551.133 12.5698 552.355 11.7017 553.755 11.5221C554.297 11.4522 554.819 11.4822 555.282 11.5021C555.706 11.5221 556.1 11.542 556.317 11.4722C556.554 11.3924 556.869 10.9733 557.165 10.5642C557.559 10.0353 558.002 9.44661 558.584 9.0874C559.786 8.35899 561.629 8.29912 562.97 8.95768C564.202 9.56635 565.197 10.9334 565.562 12.5398C565.778 13.4978 565.473 14.286 565.276 14.8149C565.207 14.9945 565.108 15.2539 565.118 15.3238C565.158 15.4535 565.453 15.7828 565.7 16.0422C566.084 16.4513 566.518 16.9203 566.784 17.4491C567.247 18.3471 567.395 19.5445 567.139 20.4226C566.636 22.1289 565.562 23.3163 564.182 23.6655C563.699 23.7852 563.226 23.7952 562.802 23.7952C562.398 23.7952 562.053 23.7952 561.836 23.915C561.501 24.0846 561.137 24.3839 560.752 24.7032C560.525 24.8928 560.299 25.0824 560.062 25.252C559.589 25.6013 559.008 25.7709 558.347 25.7709H558.338ZM554.504 12.1607C554.287 12.1607 554.06 12.1607 553.834 12.2006C552.641 12.3503 551.596 13.0986 550.907 14.306C549.98 15.9125 550.887 17.4092 551.311 17.9779C551.606 18.3671 551.912 18.6066 552.237 18.856C552.552 19.0955 552.878 19.3549 553.163 19.7241C553.597 20.2929 553.775 20.8417 553.991 21.4703C554.06 21.6799 554.129 21.8994 554.218 22.1388C554.652 23.2863 555.391 24.1045 556.485 24.6334C557.727 25.2221 558.909 25.252 559.648 24.7132C559.875 24.5436 560.102 24.364 560.309 24.1844C560.723 23.8451 561.117 23.5158 561.521 23.3163C561.876 23.1367 562.309 23.1367 562.773 23.1267C563.167 23.1267 563.581 23.1267 563.995 23.0169C565.138 22.7276 566.045 21.7198 566.468 20.243C566.675 19.5345 566.547 18.5267 566.163 17.7784C565.936 17.3393 565.532 16.9003 565.177 16.5211C564.813 16.132 564.527 15.8227 564.448 15.5333C564.369 15.2539 564.478 14.9546 564.625 14.5854C564.822 14.0865 565.059 13.4678 564.882 12.7095C564.566 11.3225 563.689 10.0952 562.654 9.58631C561.363 8.95768 559.767 9.16722 558.909 9.68609C558.436 9.97546 558.042 10.5143 557.687 10.9833C557.293 11.5221 556.948 11.9811 556.504 12.1307C556.169 12.2405 555.736 12.2205 555.233 12.1906C554.997 12.1806 554.75 12.1707 554.494 12.1707L554.504 12.1607Z" fill="#5E6F98"/>
<path d="M559.179 15.7044C558.972 15.9638 558.607 16.0037 558.361 15.8042C558.114 15.6046 558.075 15.2354 558.282 14.976C558.489 14.7166 558.854 14.6766 559.1 14.8762C559.346 15.0758 559.386 15.445 559.179 15.7044Z" fill="#C8A374"/>
<path d="M560.638 15.8127C560.431 16.0721 560.066 16.112 559.82 15.9125C559.573 15.7129 559.534 15.3437 559.741 15.0843C559.948 14.8348 560.313 14.7849 560.559 14.9945C560.805 15.194 560.845 15.5632 560.638 15.8227" fill="#C8A374"/>
<path d="M558.017 16.97C557.81 17.2295 557.445 17.2694 557.199 17.0698C556.952 16.8702 556.913 16.501 557.12 16.2416C557.327 15.9822 557.691 15.9423 557.938 16.1418C558.184 16.3414 558.224 16.7106 558.017 16.97Z" fill="#C8A374"/>
<path d="M558.409 18.3567C558.202 18.6062 557.838 18.6561 557.591 18.4565C557.345 18.257 557.305 17.8878 557.512 17.6283C557.719 17.3689 558.084 17.329 558.33 17.5286C558.577 17.7281 558.616 18.0973 558.409 18.3567Z" fill="#C8A374"/>
<path d="M559.731 17.3724C559.525 17.6318 559.16 17.6717 558.913 17.4721C558.667 17.2726 558.628 16.9034 558.835 16.644C559.042 16.3845 559.406 16.3446 559.653 16.5442C559.899 16.7437 559.938 17.1129 559.731 17.3724Z" fill="#C8A374"/>
<path d="M559.771 19.1869C559.564 19.4463 559.199 19.4862 558.953 19.2867C558.706 19.0871 558.667 18.7179 558.874 18.4585C559.081 18.1991 559.445 18.1592 559.692 18.3687C559.938 18.5683 559.978 18.9374 559.771 19.1969" fill="#C8A374"/>
<path d="M561.13 18.4682C560.923 18.7276 560.558 18.7675 560.312 18.5679C560.066 18.3684 560.026 17.9992 560.233 17.7397C560.44 17.4803 560.805 17.4404 561.051 17.6499C561.297 17.8495 561.337 18.2187 561.13 18.4781" fill="#C8A374"/>
<path d="M561.396 17.0307C561.189 17.2901 560.824 17.33 560.578 17.1304C560.331 16.9309 560.292 16.5617 560.499 16.3022C560.706 16.0428 561.07 16.0029 561.317 16.2124C561.563 16.412 561.603 16.7812 561.396 17.0406" fill="#C8A374"/>
</g>
<defs>
<clipPath id="clip0_1947_53043">
<rect width="30" height="32" fill="white" transform="translate(540 8.5)"/>
</clipPath>
</defs>
</svg>
