<svg width="764" height="49" viewBox="0 0 764 49" fill="none" xmlns="http://www.w3.org/2000/svg">
<rect width="351" height="49" rx="8" fill="#E4F2E6"/>
<path d="M13.5347 19.3784C14.3019 19 15.4038 18.3832 16.1943 17.9904C16.474 17.8177 16.7686 17.6676 17.0865 17.5031C15.806 17.8494 14.4789 18.2244 13.2134 18.5932C11.8332 18.9375 11.4911 16.9278 12.9203 16.807C14.0718 16.7624 15.2615 16.726 16.4364 16.667C15.2888 16.5188 14.1031 16.3624 12.9471 16.2511C11.5323 16.0457 12.0491 14.0451 13.4049 14.509C14.5465 14.9465 15.7114 15.3695 16.8763 15.7926C16.664 15.6698 16.4751 15.5327 16.2628 15.4099C15.5051 14.9575 14.4523 14.3066 13.6861 13.8912C12.4975 13.1338 13.8037 11.5342 14.8506 12.4743C15.7001 13.3142 16.6026 14.1848 17.5051 15.0554C16.8357 14.0409 16.1047 13.0327 15.4035 12.0695C14.6448 10.9198 16.5204 9.98404 17.0545 11.2407C17.3525 12.0403 17.774 13.1762 18.0953 13.9614C18.1612 14.111 18.2272 14.2607 18.2698 14.4247C18.0626 13.3153 17.8404 12.1833 17.6099 11.0882C17.4002 9.7265 19.5123 9.59658 19.4611 10.9607C19.3902 11.7977 19.3346 13.0059 19.2785 13.8655C19.2641 14.1916 19.2498 14.5178 19.2354 14.844C19.3261 14.5341 19.4169 14.2243 19.531 13.9C19.7779 13.0813 20.1008 11.9301 20.3329 11.0888C20.751 9.78369 22.699 10.5483 22.0602 11.7676C21.1779 13.2641 20.3021 14.82 19.4495 16.3616C21.4599 17.8174 23.2903 19.4478 24.9193 21.1708C24.4492 20.1601 23.9875 19.1125 23.509 18.1388C22.9601 16.8596 24.9824 16.2457 25.2918 17.6094C25.4842 18.6963 25.7063 19.8282 25.9518 20.9458C25.9473 20.79 25.9513 20.5971 25.9468 20.4412C25.9414 19.5879 25.9355 18.3859 25.8919 17.5245C25.9048 16.1522 28.0174 16.371 27.7521 17.7087C27.4505 18.9419 27.1554 20.2346 26.8836 21.5128C27.4673 20.3593 28.0446 19.1463 28.5901 17.9846C29.2289 16.7653 31.0246 17.846 30.1736 18.9425C29.0027 20.2999 27.8298 21.7536 26.7119 23.1417C28.4262 25.1928 29.8713 27.2831 31.0723 29.302C31.0529 29.1236 31.0103 28.9596 30.991 28.7811C30.8392 27.9547 30.634 26.7488 30.4823 25.9224C30.2725 24.5606 32.3995 24.4533 32.3633 25.8399C32.2715 26.9436 32.1713 28.0842 32.1092 29.233C32.4004 28.1332 32.6766 27.0108 32.9445 25.9253C33.3244 24.6121 35.304 25.3254 34.6801 26.5672C34.2507 27.3082 33.6838 28.3879 33.2925 29.1371L32.8293 30.0259C33.0495 29.763 33.2845 29.5227 33.4814 29.2743C34.0552 28.6028 34.8641 27.691 35.4146 27.0339C36.3484 26.0132 37.8138 27.4882 36.6761 28.3491C35.2057 29.352 33.7333 30.4514 32.3075 31.5219C33.7406 34.1907 34.6728 36.5977 35.1905 38.2769C35.2545 38.523 35.1573 38.7734 34.9708 38.8885C34.9242 38.9173 34.8776 38.946 34.831 38.9748C34.5299 39.0655 34.2264 38.9038 34.1327 38.6127C33.6448 36.9785 32.7488 34.6761 31.3603 32.0749C29.6008 32.59 27.7713 33.1482 26.0416 33.7084C24.6763 34.0753 24.2727 32.0718 25.6871 31.9284C27.0082 31.8426 28.3526 31.7424 29.697 31.6422C28.3586 31.4532 27.0052 31.2416 25.7198 31.0833C24.3134 30.841 24.8833 28.8711 26.2158 29.3494C27.281 29.7705 28.3844 30.1998 29.4878 30.6292C28.5029 30.0315 27.4799 29.4257 26.4866 28.8649C25.2979 28.1075 26.6042 26.5079 27.651 27.4481C28.2521 28.0606 29.1397 28.9086 29.7641 29.5068C29.8766 29.6277 29.9976 29.7116 30.1102 29.8325C28.9687 27.9038 27.545 25.8954 25.9284 23.9427C25.2291 24.3744 24.5299 24.806 23.839 25.2008C23.0932 25.6612 22.0443 26.3087 21.2984 26.7691C20.0948 27.4804 19.1358 25.6294 20.4882 25.1436C21.7389 24.7522 23.0213 24.3095 24.3038 23.8669C22.9509 24.004 21.598 24.1411 20.2983 24.309C18.869 24.4298 18.8959 22.3826 20.3127 22.4916C21.1845 22.6197 22.4169 22.7473 23.2887 22.8754C23.4647 22.8936 23.6408 22.9119 23.8168 22.9301C22.6966 22.5746 21.5679 22.2561 20.4541 21.9601C19.1131 21.5188 19.9419 19.6429 21.194 20.2977C21.9369 20.7275 23.0363 21.3496 23.7792 21.7794C23.9383 21.8715 24.1208 21.9492 24.2949 22.0639C22.6808 20.3634 20.8886 18.7412 18.9164 17.2935C17.5268 18.4686 16.0822 19.7094 14.7456 20.9152C13.661 21.8069 12.4372 20.1511 13.6557 19.4623" fill="#F3C574"/>
<path d="M37.2467 18.5741C38.4512 18.5602 39.6325 18.5607 40.852 18.5694C39.6618 18.2571 38.4632 17.9818 37.2943 17.7515C36.0109 17.4968 36.5575 15.5412 37.7585 16.0689C38.6859 16.48 39.6514 16.8992 40.5852 17.3698C39.7466 16.7453 38.8848 16.1351 38.0145 15.5619C36.8873 14.7983 38.0939 13.1967 39.0708 14.1801C39.8588 15.0262 40.6701 15.8579 41.4347 16.7185C40.8417 15.7203 40.2337 14.6996 39.5707 13.7446C38.7971 12.5723 40.5581 11.6121 41.1135 12.9508C41.5583 14.0722 41.9649 15.1855 42.3715 16.2988C42.196 15.138 42.0056 13.9547 41.7537 12.7777C41.4761 11.3627 43.5247 11.3354 43.5182 12.7672C43.4879 13.8646 43.4576 14.962 43.3891 16.0513C43.6485 15.0028 43.8846 13.9687 44.0677 12.9039C44.3648 11.5148 46.3171 12.4353 45.7845 13.716C45.2474 14.8408 44.7251 15.9881 44.135 17.0821C44.9438 16.1703 45.7294 15.2729 46.4936 14.2935C47.3511 13.2565 48.8085 15.1172 47.7492 15.898C46.3105 16.8496 44.8867 17.8237 43.4481 18.7753C44.4056 21.0714 45.3423 23.6342 46.0945 26.2157C46.1183 25.0588 46.104 23.8937 46.0515 22.7205C46.0198 21.2806 48.0242 21.5344 47.81 22.9992C47.6036 24.0784 47.4122 25.1802 47.1676 26.2513C47.5947 25.2579 47.9835 24.2564 48.3426 23.2098C48.8455 21.8841 50.654 23.0838 49.9007 24.2785C49.1811 25.3256 48.4997 26.3808 47.7503 27.3828C48.6866 26.6144 49.608 25.8235 50.523 24.9731C50.8831 24.6239 51.4643 24.7093 51.7851 25.1458C52.1655 25.6725 52.0182 26.4932 51.5222 26.7359C49.9581 27.4476 48.4004 28.2188 46.8511 28.9531C46.8045 28.9819 47.7927 33.5118 47.9038 34.0778C47.9509 34.3977 48.0744 34.7339 48.0367 35.0745C48.0009 35.3186 47.8804 35.5834 47.573 35.6146C47.1425 35.6582 46.9531 35.1723 46.9293 34.838C46.7344 33.4988 45.895 29.1944 45.8335 29.2006C44.0988 29.2562 42.3706 29.3712 40.6339 29.5232C39.3212 29.5721 39.3694 27.607 40.6548 27.7653C41.832 27.9586 43.0178 28.115 44.2184 28.294C43.1085 27.8052 41.9521 27.3452 40.8403 26.9528C39.6223 26.499 40.4659 24.6456 41.5867 25.3498C42.4421 25.9005 43.3124 26.4737 44.1743 27.0838C43.4458 26.3279 42.694 25.5863 41.9254 24.9186C40.94 23.9722 42.3802 22.5755 43.2004 23.719C43.8252 24.6659 44.5115 25.6065 45.1279 26.5903C44.3757 24.0088 43.4539 21.4685 42.4964 19.1724C40.8023 19.4884 39.0999 19.8414 37.4271 20.2395C36.1487 20.4893 35.8661 18.5697 37.1787 18.5209" fill="#F3C574"/>
<path d="M63.04 21.28C62.96 21.28 62.92 21.24 62.92 21.2C62.4 20.8 62.24 19.8 62.24 19.2C62.2 18.24 62.08 17.28 62.08 16.36C62.08 15 62.04 13.36 62.28 12.04C62.44 11.2 62.76 10.72 63.56 10.4C64.28 10.12 65.04 10.04 65.8 9.96C66.72 9.88 67.68 9.96 68.64 9.96H76.24C78.96 9.96 78.6 9.96 81.28 9.92C81.76 9.92 82.2 9.92 82.68 9.96C83.68 10 84.8 10.04 85.72 10.48C86.76 10.92 87.08 12.04 87.12 13.08C87.2 14.28 87.08 15.8 87.08 17C87.04 18.08 87.08 19.16 86.8 20.2C86.64 20.8 86.52 21.28 85.88 21.48C85.32 21.68 84.6 21.72 84.04 21.72H66.76C66.24 21.72 65.72 21.68 65.2 21.64C64.52 21.6 63.64 21.68 63.04 21.28ZM85.24 28.92C82.6 29 80.52 29.08 77.84 29.08C77.8 30.2 77.72 31.24 77.72 32.76C77.48 33.88 76 34.56 74.92 34.52C73.32 34.44 72.44 33.8 72.28 32.2C72.16 31.16 72.32 30.04 72.32 29C69.88 29 63.48 28.92 61.24 28.76C60.4 28.68 60 28.64 59.32 28C58.96 27.68 58.8 27.08 58.8 26.52C58.8 26 59 25.48 59.32 25.16C60.12 24.32 62.08 24.36 62.16 24.36H85.04C85.84 24.36 86.64 24.36 87.4 24.4C88.12 24.44 88.92 24.56 89.48 25.08C90.04 25.52 90.04 26.04 90.04 26.68C90.04 27.48 89.56 28.16 88.76 28.44C87.68 28.84 86.36 28.88 85.24 28.92ZM86.36 36.48C86.44 36.52 87.92 36.88 88.08 38C88.24 39 88.08 39.8 87.6 40.36C87 41.12 86.12 41.16 86.08 41.16H64.24C62.2 41.16 60.96 40.44 60.96 39.24V35.68C60.92 35.08 60.92 34.48 60.96 33.88C61.04 32.76 61.88 32 63 32C63.28 32 63.84 32.04 64.08 32.12C65.44 32.56 65.52 33.92 65.6 35.12C65.6 35.56 65.64 36.04 65.76 36.4C65.88 36.44 66.68 36.56 68.56 36.56C70.16 36.56 71.64 36.48 71.68 36.48H86.36ZM66.84 16.6C66.84 16.84 66.84 17.12 66.96 17.24C67.2 17.44 68.12 17.32 68.12 17.32H78.64C78.64 17.32 80.56 17.48 81.52 17.36C82.08 17.32 82.08 17.08 82.16 16.6C82.2 16.16 82.28 15.24 81.96 14.84C81.6 14.4 80.76 14.48 80.28 14.52H76.64C76.28 14.48 71.44 14.52 71.08 14.52C69.96 14.44 68.84 14.48 67.68 14.52C67.2 14.52 67.04 14.44 66.92 14.92C66.84 15.28 66.84 15.92 66.84 16.24V16.6ZM95.2516 33.72C95.4516 33.64 99.1316 33.8 99.8116 33.8C99.8516 33.16 99.9316 30.52 100.012 29.2C99.5316 29.08 99.0916 28.96 98.6516 28.76C95.6516 27.52 93.3316 25.08 93.3316 21.56C93.3316 19.64 93.8916 18.16 94.8116 17H94.3716C93.0916 17 92.0116 16.04 92.0116 14.88C92.0116 13.68 93.0916 12.72 94.3716 12.72H99.6516V11.08C99.6516 10.04 100.692 9.28 101.972 9.28C103.292 9.28 104.332 10.04 104.332 11.08V12.72H109.852C111.172 12.72 112.252 13.68 112.252 14.88C112.252 16.04 111.172 17 109.852 17H109.732C110.652 18.16 111.252 19.64 111.252 21.56C111.252 24.04 110.052 26.08 108.052 27.6C107.052 28.32 105.932 28.84 104.772 29.16C104.852 30.4 104.852 33.16 104.852 33.76V33.8H110.172C111.052 33.8 111.772 33.96 112.292 34.28C113.492 35 113.452 36.96 112.932 37.92C112.452 38.76 111.412 38.84 110.572 38.84H94.7716C94.7316 38.84 93.3716 38.72 92.6516 38.4C92.1316 38.12 91.7316 37.52 91.6116 36.76C91.4916 35.92 91.7716 35.12 92.2916 34.64C93.2516 33.84 94.3316 33.72 95.2516 33.72ZM121.772 22.96H121.852C122.132 22.92 122.372 23 122.612 23C122.932 23.04 123.212 23.08 123.532 23.12C124.132 23.24 124.772 23.48 125.092 24.08C125.252 24.4 125.332 24.76 125.332 25.16C125.332 25.52 125.332 25.92 125.252 26.28C125.132 26.68 125.012 27.24 124.692 27.52C124.372 27.76 123.972 27.96 123.572 28.04C122.732 28.16 121.292 28.04 120.452 28.08C120.372 28.12 120.332 28.12 120.332 28.12C120.332 28.12 120.332 28.16 120.292 28.28C120.252 29.6 120.292 30.76 120.292 32.12C120.332 33.48 120.332 34.88 120.292 36.2V36.76C120.292 38.16 120.332 40.2 119.372 41.2C119.012 41.52 118.572 41.72 118.052 41.72H117.972C115.372 41.6 115.132 38.48 115.132 36.8V13.04C115.132 12.96 115.052 10.96 115.932 10.08C116.332 9.72 117.172 9.52 117.732 9.52C118.332 9.52 118.892 9.76 119.252 10.12C119.932 10.88 120.012 11.72 120.052 12.6C120.092 12.76 120.092 12.92 120.132 13.12C120.212 13.96 120.212 14.96 120.252 15.92C120.252 16.52 120.292 17.08 120.292 17.64V21.96C120.292 22.24 120.292 22.56 120.372 22.84C120.372 22.88 121.172 22.88 121.252 22.92C121.412 22.92 121.612 22.96 121.772 22.96ZM103.052 24.76C104.772 24.44 106.252 23.6 106.252 21.56C106.252 19.2 104.292 18.32 102.332 18.28C100.332 18.2 98.3316 19.04 98.3316 21.56C98.3316 24.44 100.852 25.2 103.052 24.76ZM162.553 38.44C163.393 38.52 164.113 38.8 164.353 39.64C164.673 40.6 164.313 41.28 163.313 41.68C162.673 41.92 161.993 41.96 161.433 41.96H142.833C141.753 41.96 140.593 41.92 139.433 41.88C138.313 41.84 137.513 41 137.393 39.8L137.273 37C137.233 36.44 137.193 35.48 137.673 34.96C138.393 34.16 139.833 34.04 140.993 34.04C142.513 34.04 147.593 34.08 159.793 34.08V32.64H140.113C139.593 32.64 139.153 32.64 138.753 32.56C138.273 32.44 137.873 32.44 137.633 32C137.273 31.44 137.153 30.92 137.353 30.28C137.633 29.44 138.833 29.32 139.433 29.24C139.833 29.16 140.233 29.12 140.673 29.12C143.073 29.12 145.873 29.16 160.193 29.16C162.873 29.16 164.393 29.96 164.393 31.8V34.64C164.393 35.36 164.073 36.16 163.233 36.64C162.553 37.04 161.833 37 161.153 37H142.193V38.44H162.553ZM137.633 15.2C137.553 13.88 137.353 12.48 137.793 11.32C138.393 9.88 139.913 9.64 141.233 9.64H159.873C160.953 9.64 161.873 9.68 162.913 10.08C163.753 10.44 164.273 11.28 164.233 12.2C164.153 13.12 163.593 13.84 162.713 14.04C162.233 14.16 161.513 14.24 160.553 14.24C159.873 14.24 159.393 14.2 159.353 14.2H147.793C146.993 14.2 146.193 14.24 145.393 14.2C144.753 14.16 144.073 13.96 143.473 14.16C142.873 14.32 142.913 15 143.073 15.68C143.833 15.8 144.593 15.8 145.353 15.84H152.953C153.433 15.88 156.593 15.88 156.993 15.84C157.313 15.8 159.513 15.8 159.833 15.8C161.073 15.8 162.153 16 162.993 16.4C163.513 16.68 163.873 16.88 163.993 17.52C164.153 18.16 164.033 18.84 163.633 19.32C162.873 20.32 161.913 20.36 160.793 20.4C159.753 20.44 153.873 20.48 152.233 20.48C150.553 20.48 147.153 20.44 145.593 20.44C143.833 20.4 142.073 20.32 140.313 20.32C137.713 20.32 137.713 18.56 137.713 16.32C137.713 15.96 137.673 15.56 137.633 15.2ZM138.993 22.64C139.793 22.56 141.553 22.56 141.553 22.56H150.353C150.353 22.56 157.753 22.48 161.353 22.56H161.553C162.633 22.6 163.713 22.52 164.753 22.92C165.513 23.2 165.993 23.88 165.993 24.68C165.993 25.32 165.713 25.92 165.193 26.36C164.353 27.12 162.993 27.08 161.913 27H138.953C138.873 27 136.993 27.04 136.233 26.2C135.913 25.88 135.753 25.36 135.753 24.84C135.753 24.28 135.953 23.8 136.273 23.48C136.953 22.8 137.713 22.76 138.513 22.68C138.673 22.68 138.833 22.64 138.993 22.64ZM191.589 14.52C191.629 13.16 191.589 11.04 192.549 10.08C192.909 9.72 193.349 9.56 193.829 9.56H193.909C196.549 9.68 196.789 12.8 196.789 14.48V38.2C196.789 38.28 196.869 40.32 195.949 41.16C195.589 41.52 194.749 41.76 194.189 41.76C193.589 41.76 193.029 41.52 192.669 41.12C191.989 40.36 191.869 39.68 191.789 38.8C191.789 37.88 191.709 34.68 191.749 33.2H189.269C188.069 33.2 187.429 32.8 187.149 32.2C186.989 31.88 186.829 31.52 186.829 31.16C186.829 30.8 186.829 30.56 186.909 30.2C187.029 29.8 187.149 29.24 187.469 28.96C187.789 28.72 188.189 28.52 188.589 28.44C189.429 28.28 190.749 28.32 191.629 28.2C191.629 27.4 191.629 24.92 191.589 23.16L189.189 23.08C188.189 23.04 187.309 22.88 187.029 22.28C186.869 21.96 186.749 21.56 186.749 21.2C186.749 20.84 186.749 20.6 186.829 20.24C186.949 19.84 187.069 19.36 187.389 19.08C187.709 18.84 188.109 18.64 188.509 18.56C189.109 18.44 190.149 18.44 191.549 18.36C191.549 16.6 191.549 15.04 191.589 14.52ZM177.029 9.56C177.709 9.56 178.349 9.64 178.989 9.72C179.989 9.88 180.909 10.36 181.669 11.12C184.269 13.84 184.829 18.52 184.989 22.32C185.109 24.76 185.069 27.24 184.789 29.64C184.509 32.12 184.149 34.8 182.829 36.84C181.709 38.56 179.949 39.68 178.149 40.04C176.509 40.36 174.709 40.16 173.189 39.28C171.749 38.44 170.789 37.12 170.069 35.44C169.549 34.2 169.229 32.84 169.149 31.48C168.949 29.24 168.869 27 168.869 24.76C168.869 23.24 168.869 21.76 169.029 20.28C169.109 19.08 169.309 17.84 169.509 16.68C169.709 15.72 169.829 14.88 170.229 14C170.629 13.12 171.149 12.28 171.829 11.64C172.989 10.48 174.509 9.84 176.029 9.64C176.349 9.6 176.709 9.6 177.029 9.56ZM176.909 34.72C177.389 34.72 177.909 34.56 178.389 34.24C179.269 33.6 179.589 32.48 179.829 31.2C180.269 28.76 180.229 25.8 180.149 23.28C180.109 21.24 180.069 18.6 179.109 16.96C178.589 16.08 177.789 15.52 176.949 15.64C176.069 15.72 175.269 16.28 174.789 17.32L174.429 18.16C174.109 19.16 173.949 20.28 173.869 21.36C173.789 22.44 173.709 23.56 173.709 24.64C173.749 25.72 173.629 26.72 173.709 27.76C173.909 30.52 174.269 34.68 176.909 34.72ZM216.772 34.8C218.332 34.8 219.772 35.16 219.972 36.88C220.172 38.6 218.412 39.64 216.972 39.72C215.852 39.76 210.492 39.72 207.892 39.72H207.572C206.372 39.68 204.972 39.68 203.772 39.32C202.932 39.08 202.092 38.32 201.692 37.4C201.172 36.24 201.292 33.76 201.292 33.64V16.64C201.252 16.36 200.972 13.52 201.772 12.2C202.452 11.08 205.492 11.04 205.772 11.04H215.132C215.292 11.04 218.652 10.92 219.172 12.6C219.372 13.2 219.332 14.64 219.092 15.08C218.892 15.44 218.532 15.68 218.092 15.8C217.612 15.92 216.852 16 215.812 16C215.132 16 214.612 15.96 209.692 15.96C208.972 15.96 208.052 16 207.692 16.16C206.932 16.48 206.972 18.24 207.052 18.84V18.88L207.212 32.72C207.212 33.76 207.612 34.52 208.852 34.52C209.132 34.56 213.252 34.8 216.772 34.8ZM227.412 21.88L230.572 22.16C231.532 22.36 232.372 23 232.372 24.16C232.372 24.56 232.372 24.92 232.252 25.32C232.092 26.2 231.612 26.96 230.612 26.96L227.332 27C227.252 29.76 227.332 34 227.332 37.32C227.332 38.72 227.292 41.68 224.932 41.84C222.332 42 222.132 39.44 222.132 37.76V13.2C222.132 13.12 222.092 11.12 222.972 10.24C223.332 9.88 224.172 9.68 224.772 9.68C225.372 9.68 225.892 9.92 226.252 10.28C226.972 11.04 227.012 11.88 227.092 12.76C227.332 15.68 227.412 18.84 227.412 21.88ZM260.615 34.52C260.775 34.56 260.935 34.52 261.095 34.52C261.975 34.6 262.775 34.8 263.495 35.44C263.855 35.8 264.055 36.28 264.055 36.84C264.055 37.4 263.855 38.2 263.535 38.56C262.695 39.4 260.735 39.32 260.655 39.32H238.255C238.015 39.32 237.735 39.36 237.455 39.36C236.335 39.4 234.895 39.48 234.015 38.72C233.495 38.24 233.175 37.64 233.175 37C233.175 36.2 233.695 35.2 234.495 34.88C235.575 34.48 236.735 34.56 237.895 34.52H238.095C240.375 34.48 242.855 34.48 245.255 34.52L245.215 29C243.175 29.04 241.495 29.04 240.535 28.96C239.415 28.92 237.935 28.88 237.015 28.2C235.815 27.28 235.775 24.36 235.775 24.24V15.64C235.775 14.6 235.615 13.48 235.815 12.44C236.095 11.2 237.615 10.88 238.815 10.8C239.735 10.76 241.095 11 241.295 12.08C241.375 12.56 241.215 15.6 241.415 16.04C241.535 16.32 242.095 16.36 242.375 16.4C243.615 16.48 244.015 16.36 245.255 16.36L254.415 16.4C254.975 16.44 255.415 16.44 255.575 15.88C255.615 15.32 255.615 12.96 255.655 12.52C255.695 11.56 255.975 11 256.975 10.8C258.015 10.56 259.495 10.64 260.095 11.24C260.935 12.12 260.895 13.16 260.895 15.24C260.815 17.68 261.015 23.56 260.775 26C260.655 27.56 259.775 28.56 258.255 28.8C257.455 28.92 256.375 28.88 255.575 28.88C253.855 28.92 252.215 28.92 250.615 28.92L250.695 34.52C253.415 34.52 255.295 34.44 257.895 34.52C258.855 34.56 259.775 34.44 260.615 34.52ZM241.415 23.84C241.615 24.64 242.775 24.64 243.655 24.68C244.055 24.64 252.175 24.56 252.655 24.64C253.095 24.68 253.535 24.64 253.975 24.68C254.535 24.72 255.495 24.92 255.495 24.04C255.495 23.64 255.575 22 255.375 21.24C255.215 20.6 254.855 20.64 254.335 20.68C254.095 20.68 253.335 20.72 253.095 20.68H243.975C242.975 20.64 241.495 20.44 241.375 21.68C241.375 21.96 241.375 23.64 241.415 23.84ZM295.356 38.72C295.276 39.36 295.236 39.96 295.036 40.6C294.956 40.8 294.876 40.96 294.796 41.16C294.636 41.48 294.396 41.8 294.076 42.04C293.476 42.4 292.716 42.48 292.036 42.32C291.636 42.24 291.276 42.08 290.996 41.84C290.036 40.96 290.076 38.88 290.076 38.8V14.08C290.036 12.84 290.076 10.84 290.836 10.12C291.396 9.56 292.076 9.48 292.796 9.48C293.716 9.48 294.556 10.04 294.876 10.92C295.356 12.04 295.316 13.28 295.356 14.52V14.72C295.476 18.8 295.356 23.32 295.356 27.16V37.28C295.356 37.76 295.396 38.24 295.356 38.72ZM276.476 34.8C276.436 34.16 276.436 33.52 276.436 32.88V20.16C276.436 19.32 276.436 18.44 276.356 17.56C276.316 17.28 276.276 16.68 275.996 16.56C275.716 16.4 275.356 16.48 275.036 16.44C274.676 16.4 274.316 16.48 273.956 16.44H272.076C271.196 16.48 270.236 16.4 269.356 16.44C268.956 16.48 268.596 16.44 268.196 16.44C267.596 16.44 266.916 16.44 266.396 16.08C265.636 15.56 265.436 14.68 265.436 13.84C265.396 13.32 265.516 12.8 265.756 12.32C265.876 12.04 266.036 11.8 266.276 11.64C266.556 11.36 267.156 11.16 267.516 11.08C268.636 10.8 269.916 10.84 271.076 10.84H278.036C278.716 10.92 279.556 11 280.196 11.24C280.596 11.4 281.076 11.68 281.316 12.04C281.796 12.8 281.796 13.52 281.876 14.4C281.996 15.88 281.956 17.36 281.956 18.84V31.96C281.956 32.08 282.036 35.4 281.956 37.08C281.876 38.16 281.636 39.48 280.236 40C279.756 40.2 279.276 40.28 278.876 40.28C278.196 40.28 277.396 40 277.116 39.4C276.716 38.6 276.476 37.6 276.476 36.56V34.8Z" fill="#48724B"/>
<circle cx="322" cy="24.5" r="17" fill="#A0C0A6"/>
<path d="M324.554 33.176H321.226V18.174L316.962 20.618L315.35 17.914L321.616 14.43H324.554V33.176Z" fill="white"/>
<path d="M385.92 21.96C386.92 22.48 387.92 23.24 388.76 24.04C389.64 24.88 389.36 26.88 388.04 27.16C386.36 27.56 384.36 26.96 382.84 26.2C381.4 25.48 380.2 24.84 379 24.08C378.28 23.6 376.24 22.44 376.24 22.44C376.24 22.44 373.8 23.64 372.96 24.12C371.56 24.92 370.52 25.44 369.12 26.16C368.08 26.68 366.96 27.48 365.76 27.4C364.8 27.32 363.72 26.88 363.52 25.72C363.48 25.4 363.52 25 363.6 24.68C363.8 23.8 364.36 23.24 365.08 22.76L367.84 21.2C368.76 20.68 369.32 20.4 370.28 19.88C371.16 19.36 372.52 18.56 373.56 18.16V14.92H369.32C368.48 14.92 367.96 14.96 367.16 14.88C366.56 14.8 365.8 14.88 365.24 14.56C364.92 14.4 364.68 14.08 364.52 13.72C364.2 13.12 364.12 12.24 364.4 11.6C364.8 10.64 365.92 10.16 366.92 10.16H367.84C368.68 10.2 368.88 10.16 369.72 10.16H383.56C385.32 10.16 388.32 9.68 388.88 12.24C389.52 15.2 385.2 15.12 383.52 15.04C381.88 14.92 379.4 15 379.4 15V18.24C379.72 18.44 380.08 18.64 380.44 18.8C380.76 18.96 381.04 19.16 381.36 19.36C381.88 19.64 382.4 19.88 382.92 20.2C383.92 20.76 384.92 21.4 385.92 21.96ZM365.32 34.56C364.08 34.52 362.92 34.32 362.24 33.28C361.68 32.4 361.68 31.24 362.4 30.48C363.24 29.64 365.2 29.68 365.28 29.68H387.08C388.76 29.6 391.36 29.68 391.36 32.04C391.36 34.68 387.2 34.48 385.48 34.52H383.92C382.88 34.56 381.84 34.52 380.8 34.52H379.28C379.32 36 379.44 37.8 379.24 39.08C379.12 40.08 378.76 41.12 377.88 41.68C377.08 42.2 375.88 42.24 375.04 41.76C374.36 41.36 374.04 40.4 373.92 39.68C373.8 39.08 373.88 38.36 373.88 37.76C373.84 36.8 373.84 35.6 373.84 34.48H372.84C369.88 34.52 368.28 34.6 365.32 34.56ZM408.732 23.08C410.092 23.92 409.932 26.52 408.452 27.2C407.292 27.76 405.932 27.64 404.732 27.64H399.932C398.172 27.64 395.772 27.48 394.612 26.28C393.532 25.12 393.652 22.08 393.692 21.96V13.04C393.652 12.88 393.652 11.36 394.012 10.8C394.492 10.12 394.892 9.84 395.692 9.72C396.092 9.68 397.092 9.64 397.092 9.64H405.892C406.412 9.64 406.892 9.68 407.372 9.8C407.852 9.92 408.372 10 408.732 10.4C409.052 10.72 409.252 11.12 409.332 11.56C409.412 11.96 409.452 12.28 409.372 12.64C409.252 13.68 408.452 14.56 407.252 14.56C407.012 14.56 406.772 14.52 399.172 14.52V16C400.852 16.08 402.172 16 402.212 16H404.092C404.332 16 404.612 16.04 404.932 16H405.972C406.572 16 407.212 16.08 407.732 16.36C408.532 16.76 408.692 17.76 408.612 18.52C408.572 18.88 408.572 19.32 408.332 19.6C407.732 20.4 407.052 20.48 406.332 20.48H399.172V21.64C399.172 21.92 399.212 22.24 399.412 22.44C399.652 22.64 400.092 22.68 400.372 22.68H405.732C406.612 22.68 407.492 22.64 408.292 22.88C408.452 22.92 408.612 23 408.732 23.08ZM416.172 25.52C416.132 26.08 416.052 26.72 415.732 27.32C415.572 27.64 415.332 27.92 415.052 28.08C414.692 28.36 414.492 28.52 414.012 28.52C413.612 28.52 413.252 28.4 412.892 28.2C411.852 27.56 411.692 26.12 411.692 26.04V12.88C411.652 12.64 411.692 11.44 412.012 10.8C412.252 10.28 412.892 9.92 413.652 9.84C414.532 9.72 415.092 9.96 415.532 10.44C415.892 10.84 415.932 11.24 416.052 11.68C416.212 12.2 416.212 12.84 416.212 13.4C416.172 13.4 416.172 15.88 416.172 16.6C416.412 16.64 417.252 16.68 417.972 16.72L418.012 13.28C417.972 12.72 417.972 12.12 418.132 11.56C418.252 11.16 418.492 10.76 418.852 10.36C419.252 9.84 419.852 9.6 420.732 9.72C421.492 9.84 421.932 10.24 422.172 10.76C422.492 11.4 422.532 12.56 422.492 12.76V26.16C422.492 26.24 422.452 27.68 421.372 28.32C421.052 28.52 420.812 28.6 420.452 28.6C419.972 28.6 419.492 28.48 419.132 28.2C418.852 28 418.612 27.72 418.452 27.4C417.892 26.44 417.972 24.52 417.972 23.56V21.08H416.172V25.52ZM418.172 31.24C420.332 31.24 421.812 31.96 421.812 33.16V38.52C421.852 39.12 421.852 39.72 421.812 40.28C421.692 41.4 420.852 42.16 419.652 42.16C419.372 42.16 418.492 42.12 418.212 42.04C416.812 41.6 416.692 40.28 416.612 39.08C416.572 38.6 416.572 36.36 416.492 35.96C416.332 35.92 415.772 35.84 413.812 35.84C412.092 35.84 411.932 35.92 411.892 35.92H397.452L397.412 35.88C397.372 35.88 395.772 35.52 395.612 34.4C395.492 33.4 395.652 32.6 396.132 32C396.772 31.24 397.732 31.24 397.772 31.24H418.172ZM428.847 26.72C427.767 25.96 427.007 24.84 426.567 23.52C426.047 22.16 425.887 20.88 425.887 19.56C425.887 18.16 426.127 17 426.567 15.84C427.087 14.72 427.687 13.72 428.527 12.96C429.367 12.08 430.287 11.44 431.487 11C432.567 10.48 433.847 10.24 435.207 10.24C435.727 10.16 436.127 10.16 436.607 10.24C437.047 10.24 437.567 10.32 438.007 10.4C438.207 10.48 438.487 10.48 438.727 10.56C439.007 10.56 439.247 10.68 439.407 10.76C440.007 10.92 440.487 11.08 441.007 11.36C441.527 11.6 441.967 11.84 442.367 12.08C442.687 12.24 443.127 12.6 443.487 12.96C444.007 13.48 444.327 13.88 444.647 14.44C444.967 14.96 445.247 15.56 445.327 16.24C445.487 16.84 445.567 17.44 445.687 18.04C445.767 18.6 445.847 19.2 445.767 19.88C445.767 20.2 445.687 20.64 445.687 20.96C445.567 21.4 445.567 21.84 445.407 22.16C445.247 23.16 444.887 24.2 444.407 25.04C443.807 25.96 443.127 26.6 442.207 27.24C441.527 27.64 440.847 28 440.087 28.16C439.407 28.36 438.647 28.48 437.927 28.64C437.647 28.72 437.407 28.72 437.127 28.72C436.967 28.72 436.687 28.72 436.447 28.8H435.727C435.527 28.8 435.287 28.8 435.007 28.72C434.687 28.72 434.327 28.72 434.007 28.64C433.607 28.64 433.247 28.56 432.887 28.56C432.127 28.44 431.487 28.24 430.807 27.92C430.087 27.56 429.447 27.24 428.847 26.72ZM454.647 14.76V17.36C454.727 18.4 454.727 19.56 454.727 20.76V27.24C454.727 28.44 454.727 29.52 454.647 30.52V35.08C454.567 35.92 454.647 36.8 454.647 37.52C454.647 38.04 454.647 38.56 454.567 38.96C454.567 39.4 454.487 39.72 454.287 40C454.207 40.24 454.047 40.4 453.967 40.68C453.767 40.84 453.607 41.08 453.167 41.24C452.687 41.6 452.007 41.68 451.327 41.6C450.887 41.48 450.567 41.32 450.327 41.08C450.087 40.92 449.887 40.6 449.727 40.24C449.567 39.88 449.447 39.56 449.447 39.2C449.367 38.96 449.287 38.64 449.287 38.48V38.04L449.207 14.32C449.207 13.64 449.207 12.96 449.367 12.12C449.447 11.36 449.727 10.76 450.087 10.36C450.407 10.12 450.727 9.92 450.967 9.84C451.327 9.76 451.647 9.76 452.087 9.76C452.527 9.76 452.927 9.84 453.367 10.12C453.687 10.36 453.967 10.72 454.127 11.12C454.367 11.72 454.567 12.32 454.567 12.88C454.567 13.48 454.567 14.16 454.647 14.76ZM445.847 33.2C446.207 33.32 446.527 33.48 446.767 33.64C447.287 34.16 447.607 34.68 447.607 35.32C447.607 35.76 447.447 36.2 447.167 36.52C446.927 36.84 446.647 37.08 446.287 37.2C446.007 37.28 445.767 37.36 445.487 37.36C445.167 37.44 444.887 37.44 444.647 37.44H440.847C439.927 37.44 439.007 37.44 438.007 37.52H435.207C434.247 37.44 433.527 37.44 432.807 37.44H428.607C428.087 37.44 427.607 37.36 427.087 37.28C426.807 37.2 426.567 37.08 426.327 37C426.047 36.92 425.887 36.84 425.647 36.64C425.327 36.28 425.127 35.84 425.127 35.16C425.127 34.6 425.327 34.16 425.647 33.8C425.807 33.56 426.047 33.4 426.407 33.32C426.727 33.2 427.087 33.12 427.327 33.04C427.687 32.96 427.887 32.96 428.087 32.96H443.207C443.727 32.96 444.247 32.96 444.647 33.04C445.087 33.04 445.407 33.12 445.847 33.2ZM431.207 18.84C431.127 19.36 431.127 19.88 431.207 20.44C431.327 21.04 431.487 21.56 431.727 22C432.287 22.84 433.087 23.44 434.087 23.84C434.847 24.12 435.607 24.2 436.367 24.2C436.807 24.12 437.127 24.12 437.567 24.04C437.927 24.04 438.287 23.84 438.647 23.68C439.167 23.44 439.607 23 439.927 22.48C440.287 21.92 440.407 21.4 440.567 20.8C440.767 19.88 440.687 19.12 440.407 18.24C440.287 17.88 440.087 17.52 439.927 17.24C439.767 17.08 439.687 16.84 439.487 16.76C439.407 16.56 439.247 16.4 439.007 16.24C438.807 16.12 438.567 16 438.367 15.92C438.167 15.76 437.927 15.68 437.647 15.56C436.967 15.4 436.287 15.32 435.527 15.32C434.847 15.32 434.167 15.4 433.607 15.68C433.007 15.92 432.487 16.24 432.047 16.84C431.647 17.36 431.407 18.04 431.207 18.84ZM492.01 17.88C493.01 18.32 494.01 19 494.85 19.68C495.73 20.44 495.45 22.2 494.13 22.44C492.45 22.8 490.45 22.28 488.93 21.6C487.49 20.96 486.29 20.4 485.09 19.72C484.37 19.32 482.33 18.28 482.33 18.28C482.33 18.28 479.89 19.36 479.05 19.76C477.65 20.48 476.61 20.92 475.21 21.56C474.17 22 473.05 22.72 471.85 22.64C470.89 22.6 469.81 22.2 469.61 21.16C469.57 20.88 469.61 20.56 469.69 20.24C469.89 19.48 470.45 19 471.17 18.56L473.93 17.2C474.85 16.72 475.41 16.48 476.37 16.04C477.25 15.56 478.61 14.88 479.65 14.52V13.28H475.41C474.57 13.28 474.05 13.32 473.25 13.24C472.65 13.16 471.89 13.24 471.33 12.96C471.01 12.8 470.77 12.52 470.61 12.2C470.29 11.68 470.21 10.92 470.49 10.36C470.89 9.52 472.01 9.08 473.01 9.08H473.93C474.77 9.12 474.97 9.08 475.81 9.08H489.65C491.41 9.08 494.41 8.64 494.97 10.92C495.61 13.52 491.29 13.44 489.61 13.36C487.97 13.28 485.49 13.36 485.49 13.36V14.6C485.81 14.76 486.17 14.96 486.53 15.08C486.85 15.24 487.13 15.4 487.45 15.56C487.97 15.84 488.49 16.04 489.01 16.32C490.01 16.8 491.01 17.36 492.01 17.88ZM494.17 24.56C495.05 24.6 496.05 24.76 496.81 25.36C497.17 25.64 497.37 26.12 497.37 26.6C497.37 27.12 497.17 27.8 496.85 28.08C496.01 28.88 493.93 28.8 493.85 28.8L472.53 28.84C471.33 28.88 469.85 28.96 468.97 28.24C468.37 27.8 468.05 27.36 468.05 26.76C468.05 26.04 468.61 25.12 469.45 24.84C470.57 24.48 471.77 24.6 472.97 24.56C475.57 24.48 476.41 24.56 479.09 24.56V22.24C479.09 20.64 480.77 20.12 482.37 20.28C483.81 20.44 484.61 20.84 484.65 21.88C484.73 22.64 484.77 23.64 484.77 24.56C487.73 24.56 491.89 24.44 494.17 24.56ZM469.33 36.36C469.33 31.84 475.21 31.16 482.41 31.16C489.65 31.16 495.53 31.32 495.53 36.36C495.53 41.32 489.65 41.56 482.41 41.56C475.21 41.56 469.33 41.32 469.33 36.36ZM490.25 36.36C490.25 34.64 486.09 34.72 482.41 34.72C478.77 34.72 474.85 34.64 474.85 36.36C474.85 37.88 478.77 38 482.41 38C486.09 38 490.25 38.36 490.25 36.36ZM513.788 10.24H521.868C522.788 10.24 523.708 10.24 524.548 10.52C525.828 10.88 526.068 12.4 526.068 13.56V17.2C526.068 18 525.788 20.32 524.948 20.88C524.228 21.32 523.508 21.32 522.868 21.28H506.268V22.96H522.908C523.388 22.96 523.828 22.96 524.268 23C525.068 23.04 525.788 23.4 526.068 24.32C526.348 25.4 525.988 26.44 525.028 26.88C524.388 27.16 523.668 27.2 523.108 27.2H506.908C505.828 27.2 504.668 27.2 503.508 27.16C502.388 27.08 501.588 25.88 501.468 24.52C501.388 23.52 501.348 21.32 501.348 20.48V19.52C501.308 18.88 501.308 18.12 501.788 17.52C502.468 16.6 503.908 16.48 505.068 16.48C505.348 16.48 506.108 16.56 506.468 16.52H521.468V14.8H506.068C505.788 14.8 505.468 14.84 505.188 14.84C504.868 14.84 504.508 14.88 504.188 14.88C503.668 14.88 503.228 14.84 502.828 14.72C502.348 14.6 501.988 14.28 501.708 13.8C501.348 13.16 501.268 12.56 501.428 11.84C501.708 10.88 502.908 10.44 503.508 10.32C503.908 10.24 504.308 10.24 504.788 10.24H506.188C507.868 10.28 511.468 10.28 513.788 10.24ZM524.548 30.04C526.228 29.96 528.548 30.2 528.548 32.4C528.548 35.04 524.388 34.84 522.628 34.88C522.388 34.88 522.148 34.92 521.908 34.92C521.948 36.4 522.028 37.68 521.868 38.96C521.707 39.96 521.388 40.96 520.508 41.56C519.708 42.08 518.508 42.08 517.668 41.6C516.988 41.2 516.668 40.28 516.508 39.52C516.428 38.96 516.508 38.2 516.468 37.6V34.92L511.188 34.88C511.228 36.52 511.348 37.52 511.148 38.92C510.988 39.92 510.668 40.92 509.788 41.52C508.988 42.04 507.788 42.04 506.948 41.56C506.268 41.16 505.948 40.24 505.788 39.48C505.708 38.92 505.788 38.16 505.748 37.56V34.88L502.508 34.92C501.268 34.92 500.068 34.68 499.428 33.64C498.828 32.76 498.828 31.64 499.588 30.84C500.388 30 502.388 30.08 502.468 30.08L524.548 30.04ZM541.199 9.16C546.639 9.52 549.679 12.64 549.279 18.36C548.919 23.12 546.359 25.88 541.279 25.88C538.519 25.88 537.079 26.08 534.639 24.56C532.319 23.08 531.599 20.12 531.599 17.56C531.599 11.8 535.679 8.76 541.199 9.16ZM560.279 22.96H560.359C560.639 22.92 560.879 23 561.119 23C561.439 23.04 561.719 23.08 562.039 23.12C562.639 23.24 563.279 23.48 563.599 24.08C563.759 24.4 563.839 24.76 563.839 25.16C563.839 25.52 563.839 25.92 563.759 26.28C563.639 26.68 563.519 27.24 563.199 27.52C562.879 27.76 562.479 27.96 562.079 28.04C561.239 28.16 559.799 28.04 558.959 28.08C558.879 28.12 558.839 28.12 558.839 28.12C558.839 28.12 558.839 28.16 558.799 28.28C558.759 29.6 558.799 30.76 558.799 32.12C558.839 33.48 558.839 34.88 558.799 36.2V36.76C558.799 38.16 558.839 40.2 557.879 41.2C557.519 41.52 557.079 41.72 556.559 41.72H556.479C553.879 41.6 553.639 38.48 553.639 36.8V13.04C553.639 12.96 553.559 10.96 554.439 10.08C554.839 9.72 555.679 9.52 556.239 9.52C556.839 9.52 557.399 9.76 557.759 10.12C558.439 10.88 558.519 11.72 558.559 12.6C558.599 12.76 558.599 12.92 558.639 13.12C558.719 13.96 558.719 14.96 558.759 15.92C558.759 16.52 558.799 17.08 558.799 17.64V21.96C558.799 22.24 558.799 22.56 558.879 22.84C558.879 22.88 559.679 22.88 559.759 22.92C559.919 22.92 560.119 22.96 560.279 22.96ZM533.759 33.72C533.959 33.64 536.439 33.8 537.119 33.8C537.199 32.96 537.279 28.72 537.399 28.4C537.599 27.76 538.079 27.28 538.639 27.04C538.959 26.92 539.239 26.88 539.559 26.88C540.719 26.88 541.719 27.56 541.999 28.52C542.159 28.92 542.159 33 542.159 33.76V33.8H548.679C549.559 33.8 550.279 33.96 550.799 34.28C551.999 35 551.959 36.96 551.439 37.92C550.959 38.76 549.919 38.84 549.079 38.84H533.279C533.239 38.84 531.879 38.72 531.159 38.4C530.639 38.12 530.239 37.52 530.119 36.76C529.999 35.92 530.279 35.12 530.799 34.64C531.759 33.84 532.839 33.72 533.759 33.72ZM544.639 18.84L544.679 18.52C544.919 16.6 543.959 14.76 542.279 14.16C540.039 13.4 536.599 14.08 536.159 17.08C535.839 19.12 536.719 21.36 539.799 21.64C541.919 21.88 544.119 21.28 544.639 18.84ZM582.333 18.12L582.373 19.12C582.333 19.68 582.453 19.32 582.613 19.36C582.933 19.52 583.853 19.6 584.773 19.6H584.973C585.813 19.56 594.093 19.56 594.933 19.6H596.813C597.013 19.6 597.133 19.6 597.333 19.56H598.013C598.813 19.56 599.653 19.56 600.453 19.76C600.573 19.76 600.733 19.84 600.853 19.88C602.173 20.64 602.013 22.44 600.573 23.04C599.493 23.52 598.173 23.6 597.093 23.6H595.453C594.053 23.64 585.173 23.6 583.773 23.6H583.093C581.453 23.6 579.133 23.52 578.053 22.48C577.013 21.6 577.133 19.12 577.173 19V11.68C577.173 11.56 577.133 10.32 577.493 9.88C577.933 9.32 578.293 9.08 579.053 9C579.493 8.92 580.413 8.92 580.413 8.92H597.773C598.253 8.92 598.693 8.92 599.173 9.04C599.653 9.12 600.093 9.2 600.453 9.56C600.773 9.8 600.933 10.16 601.013 10.48C601.093 10.8 601.133 11.08 601.053 11.4C600.933 12.24 600.173 12.88 599.053 12.88H582.373V14.44C583.973 14.48 592.733 14.44 592.773 14.44H596.453C596.653 14.44 596.933 14.48 597.213 14.44H598.253C598.773 14.44 599.413 14.48 599.893 14.76C600.653 15.08 600.813 15.88 600.733 16.48C600.693 16.8 600.693 17.16 600.453 17.4C599.893 18.04 599.253 18.12 598.573 18.12H582.333ZM598.253 31.92C600.413 31.92 601.693 32.64 601.693 33.88V36.4C601.733 36.88 601.773 39.92 601.693 40.52C601.613 41.64 600.733 42.4 599.533 42.4C599.253 42.4 598.573 42.36 598.293 42.28C596.853 41.84 596.773 40.52 596.733 39.32C596.693 38.84 596.613 36.88 596.533 36.48C596.373 36.44 595.813 36.36 593.853 36.36C592.133 36.36 590.813 36.4 590.813 36.4H577.893C577.813 36.4 576.253 36.24 576.093 35.12C575.933 34.12 576.093 33.32 576.573 32.72C577.213 31.96 578.173 31.96 578.213 31.96L598.253 31.92ZM599.893 25.52C601.733 25.52 604.253 25.08 604.253 27.88C604.253 28.44 603.973 29.04 603.453 29.52C602.613 30.2 601.333 30.16 600.253 30.12C600.013 30.08 599.773 30.08 599.533 30.08H577.693C577.613 30.08 575.813 30.12 575.053 29.36C574.733 29 574.573 28.48 574.573 28C574.573 27.44 574.773 27 575.093 26.68C575.773 26.04 576.533 25.6 577.293 25.52C577.453 25.52 577.613 25.56 577.773 25.52C578.533 25.44 579.413 25.56 580.293 25.52C583.013 25.44 585.813 25.52 588.893 25.52C592.213 25.52 596.133 25.44 599.693 25.52H599.893ZM608.783 35.64C608.783 30.8 614.783 29.48 622.143 29.48C629.503 29.48 635.503 30.24 635.503 35.64C635.503 40.96 629.503 41.8 622.143 41.8C614.783 41.8 608.783 40.96 608.783 35.64ZM618.583 14.56C618.543 14.52 618.543 18.4 618.583 18.6C618.863 18.84 619.703 19.64 620.183 20.04C620.703 20.48 621.263 21 621.863 21.56C622.223 21.92 622.543 22.28 622.823 22.56C623.823 23.56 625.023 24.8 625.383 26C625.543 26.48 625.463 27.16 624.903 27.56C624.503 27.8 624.023 27.96 623.463 27.96C622.303 27.96 621.143 27.36 620.503 26.88C619.503 26.12 618.663 25.28 617.823 24.44C617.223 23.84 616.463 22.96 615.703 22.4L614.623 23.48C614.263 23.84 613.863 24.2 613.543 24.56C612.863 25.32 612.143 26.12 611.183 26.8C610.103 27.6 609.063 28 608.103 28C607.863 28 607.663 28 607.423 27.92C606.863 27.8 606.463 27.56 606.263 27.2C605.903 26.6 606.103 25.76 606.423 25.2C606.823 24.6 607.423 24.04 607.943 23.48C608.903 22.44 612.543 19.04 612.983 18.6V14.56H610.423C609.103 14.56 606.823 14.88 606.143 13.32C605.903 12.72 605.783 11.92 605.943 11.28C606.143 10.52 607.063 10.28 607.743 10.2C607.983 10.16 611.303 10.24 611.663 10.16H621.023C623.143 10.16 624.623 10.32 625.503 11.36C626.023 12 625.863 13.72 625.023 14.12C624.623 14.28 623.943 14.52 623.503 14.56C622.743 14.6 621.983 14.56 621.223 14.56H618.583ZM634.983 12.92V25.96C634.983 26 634.823 27.56 633.783 28.24C633.423 28.44 633.063 28.56 632.663 28.56C632.183 28.56 631.743 28.4 631.343 28.12C631.063 27.92 630.823 27.64 630.663 27.28C629.863 25.68 630.183 23.32 630.183 21.56C630.223 19.28 630.223 16.28 630.223 14.04V13.52C630.183 12.92 630.183 12.24 630.343 11.64C630.463 11.2 630.703 10.8 631.063 10.36C631.503 9.84 632.343 9.56 633.223 9.68C633.983 9.8 634.583 10.2 634.823 10.72C635.143 11.4 635.023 12.72 634.983 12.92ZM630.103 35.64C630.103 33.8 625.863 33.64 622.143 33.64C618.423 33.64 614.423 33.8 614.423 35.64C614.423 37.28 618.423 37.6 622.143 37.6C625.863 37.6 630.103 37.8 630.103 35.64Z" fill="#48724B"/>
<g clip-path="url(#clip0_1785_774)">
<path d="M649.988 17.8C647.84 18.7579 648.165 21.2524 647.613 22.0307C647.061 22.809 644.607 23.5973 644.381 26.2415C644.144 28.8857 645.938 28.756 646.726 29.9035C647.505 31.051 646.992 33.8648 650.373 34.4236C653.753 34.9824 653.862 32.1785 655.212 31.8792C656.562 31.5898 659.735 31.6497 661.48 29.5144C663.185 27.4189 661.667 24.9543 661.381 24.0762C661.096 23.1882 661.618 20.8633 660.14 19.6958C658.661 18.5384 657.203 19.7058 655.971 19.0672C654.739 18.4286 652.157 16.8421 650.008 17.8" fill="#D1E8CF"/>
<path d="M651.206 34.8633C650.93 34.8633 650.635 34.8433 650.309 34.7834C647.638 34.3344 647.175 32.5583 646.84 31.2611C646.722 30.8121 646.613 30.3831 646.426 30.1136C646.219 29.8043 645.894 29.5848 645.559 29.3653C644.8 28.8564 643.844 28.2178 644.022 26.2122C644.209 24.1367 645.638 23.109 646.594 22.4205C646.919 22.181 647.205 21.9814 647.333 21.8118C647.461 21.6322 647.54 21.243 647.638 20.8339C647.875 19.7264 648.21 18.1997 649.856 17.4613C651.965 16.5234 654.35 17.7906 655.769 18.5489L656.134 18.7385C656.568 18.968 657.07 18.9082 657.642 18.8483C658.47 18.7585 659.406 18.6487 660.362 19.3971C661.535 20.3151 661.584 21.8417 661.623 22.9493C661.633 23.3584 661.653 23.7376 661.722 23.9471C661.761 24.0768 661.83 24.2465 661.919 24.4361C662.422 25.6135 663.348 27.7987 661.761 29.7345C660.273 31.5505 657.859 31.8698 656.262 32.0793C655.887 32.1292 655.552 32.1691 655.296 32.229C654.951 32.3088 654.685 32.6481 654.35 33.0871C653.759 33.8455 652.98 34.8533 651.226 34.8533L651.206 34.8633ZM650.142 18.1398C648.821 18.7285 648.555 19.9858 648.338 20.9936C648.23 21.5025 648.131 21.9415 647.914 22.2508C647.727 22.5103 647.392 22.7497 647.018 23.0291C646.131 23.6677 644.909 24.5458 644.751 26.282C644.613 27.8586 645.244 28.2777 645.963 28.7566C646.347 29.0061 646.742 29.2755 647.027 29.7045C647.284 30.0737 647.412 30.5627 647.54 31.0815C647.875 32.3687 648.23 33.7058 650.428 34.075C652.409 34.4043 653.098 33.5162 653.759 32.6581C654.153 32.1492 654.527 31.6702 655.129 31.5405C655.405 31.4807 655.759 31.4308 656.163 31.3809C657.652 31.1913 659.889 30.8919 661.2 29.2954C662.5 27.6989 661.722 25.853 661.249 24.7554C661.16 24.5358 661.081 24.3463 661.032 24.2066C660.933 23.8972 660.914 23.4782 660.904 22.9992C660.864 21.9814 660.825 20.7142 659.918 20.0058C659.199 19.437 658.479 19.5168 657.721 19.6066C657.09 19.6765 656.43 19.7463 655.799 19.427L655.424 19.2275C654.123 18.529 651.935 17.3615 650.142 18.1598V18.1398Z" fill="#7DA37E"/>
<path d="M652.817 26.6002C653.172 26.5104 653.537 26.7299 653.616 27.0792C653.704 27.4384 653.487 27.7976 653.133 27.8874C652.778 27.9772 652.413 27.7577 652.325 27.4085C652.236 27.0492 652.453 26.69 652.817 26.6002Z" fill="#C8A374"/>
<path d="M651.567 25.4733C651.922 25.3835 652.287 25.603 652.366 25.9522C652.454 26.3114 652.237 26.6706 651.883 26.7604C651.528 26.8503 651.163 26.6307 651.075 26.2815C650.986 25.9223 651.203 25.5631 651.567 25.4733Z" fill="#C8A374"/>
<path d="M654.739 26.2506C655.094 26.1608 655.459 26.3803 655.537 26.7296C655.626 27.0888 655.409 27.448 655.055 27.5378C654.7 27.6276 654.335 27.4081 654.246 27.0588C654.158 26.6996 654.375 26.3404 654.739 26.2506Z" fill="#C8A374"/>
<path d="M655.317 24.7155C655.672 24.6257 656.037 24.8452 656.116 25.1944C656.204 25.5536 655.987 25.9128 655.633 26.0026C655.278 26.0924 654.913 25.8729 654.825 25.5237C654.736 25.1645 654.953 24.8053 655.317 24.7155Z" fill="#C8A374"/>
<path d="M653.45 24.694C653.805 24.6042 654.17 24.8237 654.248 25.1729C654.337 25.5321 654.12 25.8914 653.765 25.9812C653.411 26.071 653.046 25.8514 652.957 25.5022C652.869 25.143 653.085 24.7838 653.45 24.694Z" fill="#C8A374"/>
<path d="M654.653 23.0182C655.008 22.9284 655.373 23.1479 655.452 23.4971C655.54 23.8564 655.323 24.2156 654.969 24.3054C654.614 24.3952 654.249 24.1757 654.16 23.8264C654.072 23.4672 654.289 23.108 654.653 23.0182Z" fill="#C8A374"/>
<path d="M652.927 22.7194C653.281 22.6296 653.646 22.8491 653.725 23.1983C653.814 23.5575 653.597 23.9167 653.242 24.0065C652.887 24.0963 652.523 23.8768 652.434 23.5276C652.345 23.1684 652.562 22.8092 652.927 22.7194Z" fill="#C8A374"/>
<path d="M651.708 23.8463C652.063 23.7565 652.427 23.976 652.506 24.3253C652.595 24.6845 652.378 25.0437 652.023 25.1335C651.668 25.2233 651.304 25.0038 651.215 24.6545C651.126 24.2953 651.343 23.9361 651.708 23.8463Z" fill="#C8A374"/>
<path d="M665.21 21.83C663.643 21.7202 661.967 22.5584 661.189 23.6061C660.41 24.6538 660.41 26.4599 659.819 26.9688C659.346 27.3679 658.222 27.5375 657.227 28.0963C656.084 28.7449 655.206 29.9422 654.96 31.6585C654.704 33.4745 655.778 34.8016 657.01 35.53C657.956 36.0888 658.745 36.0289 659.572 36.5179C660.39 37.0068 660.794 37.6454 661.504 38.4237C662.164 39.1521 663.239 40.0002 665.003 40.11C666.777 40.2098 667.989 39.5812 668.521 38.723C668.984 37.9747 669.339 37.1365 669.802 36.6176C670.236 36.1187 671.261 35.979 672.099 35.3604C673.153 34.5821 673.794 33.1452 673.616 31.2494C673.528 30.3514 672.946 29.3136 672.197 28.665C671.369 27.9566 669.95 27.5674 669.645 27.1683C669.329 26.7692 669.832 25.4321 668.965 24.1948C668.097 22.9575 666.678 21.9298 665.22 21.83" fill="#E9F4E5"/>
<path d="M665.367 40.5009C665.239 40.5009 665.111 40.5009 664.983 40.4909C663.485 40.4011 662.253 39.8124 661.238 38.6949C661.051 38.4853 660.883 38.2957 660.726 38.1062C660.292 37.5873 659.947 37.1882 659.385 36.8489C659.03 36.6394 658.666 36.5396 658.281 36.4298C657.848 36.3101 657.355 36.1704 656.823 35.8611C655.187 34.8932 654.359 33.3067 654.605 31.6203C654.852 29.9041 655.719 28.5471 657.049 27.7887C657.562 27.4994 658.094 27.3098 658.567 27.1501C658.991 27.0005 659.395 26.8608 659.582 26.7011C659.789 26.5315 659.927 25.9827 660.075 25.4439C660.252 24.7554 660.459 23.987 660.903 23.3884C661.81 22.171 663.623 21.3528 665.239 21.4725C666.708 21.5723 668.255 22.5402 669.26 23.997C669.862 24.8651 669.871 25.7831 669.881 26.3918C669.881 26.6013 669.881 26.8907 669.931 26.9605C670.019 27.0803 670.453 27.2798 670.798 27.4395C671.34 27.6989 671.961 27.9883 672.444 28.3974C673.272 29.1058 673.892 30.2434 673.981 31.2212C674.168 33.137 673.557 34.7535 672.316 35.6715C671.882 35.9908 671.409 36.1903 670.995 36.37C670.591 36.5396 670.246 36.6893 670.078 36.8788C669.812 37.1882 669.566 37.6272 669.31 38.1062C669.162 38.3855 669.004 38.6649 668.837 38.9443C668.226 39.9421 666.944 40.5109 665.377 40.5109L665.367 40.5009ZM664.944 22.191C663.653 22.191 662.194 22.8695 661.484 23.8274C661.13 24.3063 660.942 25.0048 660.775 25.6235C660.588 26.3219 660.43 26.9206 660.055 27.2499C659.76 27.4994 659.316 27.649 658.804 27.8286C658.36 27.9883 657.858 28.1579 657.404 28.4174C656.271 29.056 655.532 30.2234 655.325 31.7102C655.039 33.6958 656.537 34.8233 657.197 35.2125C657.641 35.4819 658.045 35.5917 658.478 35.7114C658.892 35.8212 659.316 35.9409 659.76 36.2003C660.42 36.5995 660.824 37.0684 661.277 37.6072C661.425 37.7869 661.593 37.9764 661.77 38.176C662.657 39.1539 663.722 39.6628 665.023 39.7426C666.491 39.8224 667.693 39.3734 668.216 38.5252C668.373 38.2658 668.531 37.9864 668.669 37.727C668.945 37.2181 669.211 36.7391 669.536 36.37C669.822 36.0507 670.256 35.8611 670.719 35.6715C671.113 35.5019 671.527 35.3322 671.892 35.0628C672.917 34.3045 673.419 32.9275 673.262 31.2811C673.183 30.4928 672.651 29.5349 671.971 28.9462C671.567 28.597 670.995 28.3275 670.492 28.0981C669.97 27.8586 669.566 27.659 669.359 27.3996C669.162 27.1501 669.162 26.8109 669.152 26.3818C669.152 25.8031 669.142 25.0846 668.669 24.4061C667.802 23.1489 666.432 22.2808 665.19 22.191C665.111 22.191 665.032 22.191 664.944 22.191Z" fill="#7DA37E"/>
<path d="M664.047 29.7836C663.948 30.1229 663.594 30.3124 663.268 30.2127C662.943 30.1129 662.756 29.7537 662.854 29.4244C662.953 29.0851 663.298 28.8955 663.633 28.9953C663.958 29.0951 664.145 29.4543 664.047 29.7836Z" fill="#C8A374"/>
<path d="M665.555 29.3051C665.456 29.6443 665.101 29.8339 664.776 29.7341C664.451 29.6344 664.264 29.2751 664.362 28.9459C664.461 28.6066 664.806 28.417 665.141 28.5168C665.466 28.6166 665.653 28.9758 665.555 29.3051Z" fill="#C8A374"/>
<path d="M663.398 31.5395C663.3 31.8787 662.945 32.0683 662.62 31.9685C662.295 31.8687 662.107 31.5095 662.206 31.1802C662.305 30.841 662.649 30.6514 662.985 30.7512C663.31 30.851 663.497 31.2102 663.398 31.5395Z" fill="#C8A374"/>
<path d="M664.352 32.7563C664.253 33.0955 663.898 33.2851 663.573 33.1853C663.248 33.0855 663.061 32.7263 663.159 32.397C663.258 32.0578 663.603 31.8682 663.938 31.968C664.263 32.0678 664.45 32.427 664.352 32.7563Z" fill="#C8A374"/>
<path d="M665.266 31.2309C665.167 31.5701 664.812 31.7597 664.487 31.6599C664.162 31.5601 663.975 31.2009 664.073 30.8716C664.172 30.5324 664.517 30.3428 664.852 30.4426C665.177 30.5424 665.364 30.9016 665.266 31.2309Z" fill="#C8A374"/>
<path d="M666.039 33.0258C665.941 33.365 665.586 33.5546 665.261 33.4548C664.935 33.3551 664.748 32.9958 664.847 32.6666C664.945 32.3273 665.29 32.1377 665.625 32.2375C665.95 32.3373 666.138 32.6965 666.039 33.0258Z" fill="#C8A374"/>
<path d="M667.109 31.7582C667.011 32.0975 666.656 32.287 666.331 32.1873C666.006 32.0875 665.818 31.7283 665.917 31.399C666.015 31.0597 666.36 30.8701 666.696 30.9699C667.021 31.0697 667.208 31.4289 667.109 31.7582Z" fill="#C8A374"/>
<path d="M666.797 30.2133C666.698 30.5525 666.344 30.7421 666.018 30.6423C665.693 30.5426 665.506 30.1833 665.604 29.8541C665.703 29.5148 666.048 29.3252 666.383 29.425C666.708 29.5248 666.895 29.884 666.797 30.2133Z" fill="#C8A374"/>
<path d="M666.907 9.26849C665.596 8.62989 663.872 8.7596 662.837 9.37825C661.802 10.0069 661.191 11.5635 660.501 11.793C659.959 11.9726 658.924 11.7231 657.88 11.8528C656.667 12.0025 655.504 12.7309 654.706 14.1179C653.859 15.5847 654.332 17.1014 655.14 18.169C655.761 18.9872 656.46 19.2068 657.002 19.9152C657.545 20.6237 657.663 21.3121 658.008 22.2401C658.323 23.0982 658.954 24.2058 660.442 24.9242C661.93 25.6327 663.202 25.5229 663.951 24.9642C664.601 24.4852 665.202 23.8865 665.774 23.5971C666.316 23.3277 667.242 23.5572 668.179 23.3277C669.351 23.0284 670.396 22.0206 670.889 20.3243C671.125 19.5161 670.978 18.4185 670.554 17.6102C670.081 16.7022 668.997 15.884 668.868 15.425C668.74 14.966 669.627 13.9981 669.312 12.6212C668.997 11.2442 668.119 9.86718 666.897 9.26849" fill="#E9F4E5"/>
<path d="M662.431 25.7514C661.771 25.7514 661.042 25.5718 660.303 25.2225C659.041 24.6139 658.193 23.6759 657.701 22.3588C657.612 22.1193 657.533 21.8898 657.464 21.6703C657.267 21.0716 657.109 20.6026 656.745 20.1237C656.508 19.8144 656.232 19.6048 655.937 19.3753C655.602 19.1159 655.227 18.8265 654.882 18.3675C653.808 16.9606 653.64 15.3042 654.429 13.9372C655.227 12.5502 656.449 11.6821 657.849 11.5025C658.391 11.4327 658.913 11.4626 659.376 11.4826C659.8 11.5025 660.194 11.5225 660.411 11.4526C660.647 11.3728 660.963 10.9537 661.259 10.5446C661.653 10.0158 662.096 9.42708 662.678 9.06787C663.88 8.33946 665.723 8.27959 667.063 8.93815C668.295 9.54682 669.291 10.9138 669.655 12.5203C669.872 13.4782 669.567 14.2665 669.37 14.7953C669.301 14.9749 669.202 15.2344 669.212 15.3042C669.251 15.4339 669.547 15.7632 669.793 16.0227C670.178 16.4318 670.611 16.9007 670.877 17.4296C671.341 18.3276 671.488 19.525 671.232 20.4031C670.73 22.1093 669.655 23.2967 668.276 23.646C667.793 23.7657 667.32 23.7757 666.896 23.7757C666.492 23.7757 666.147 23.7757 665.93 23.8954C665.595 24.0651 665.23 24.3644 664.846 24.6837C664.619 24.8733 664.393 25.0629 664.156 25.2325C663.683 25.5817 663.102 25.7514 662.441 25.7514H662.431ZM658.598 12.1411C658.381 12.1411 658.154 12.1411 657.927 12.1811C656.735 12.3307 655.69 13.0791 655 14.2865C654.074 15.8929 654.981 17.3897 655.404 17.9584C655.7 18.3476 656.006 18.587 656.331 18.8365C656.646 19.076 656.971 19.3354 657.257 19.7046C657.691 20.2734 657.868 20.8222 658.085 21.4508C658.154 21.6603 658.223 21.8798 658.312 22.1193C658.745 23.2668 659.485 24.085 660.579 24.6139C661.82 25.2026 663.003 25.2325 663.742 24.6937C663.969 24.5241 664.195 24.3444 664.402 24.1648C664.816 23.8256 665.211 23.4963 665.615 23.2967C665.969 23.1171 666.403 23.1171 666.866 23.1072C667.261 23.1072 667.674 23.1072 668.088 22.9974C669.232 22.708 670.138 21.7002 670.562 20.2235C670.769 19.515 670.641 18.5072 670.257 17.7589C670.03 17.3198 669.626 16.8808 669.271 16.5016C668.906 16.1125 668.621 15.8031 668.542 15.5138C668.463 15.2344 668.571 14.935 668.719 14.5658C668.916 14.0669 669.153 13.4483 668.975 12.6899C668.66 11.303 667.783 10.0757 666.748 9.56678C665.457 8.93815 663.86 9.14769 663.003 9.66656C662.53 9.95592 662.136 10.4947 661.781 10.9637C661.387 11.5025 661.042 11.9615 660.598 12.1112C660.263 12.221 659.829 12.201 659.327 12.1711C659.09 12.1611 658.844 12.1511 658.588 12.1511L658.598 12.1411Z" fill="#7DA37E"/>
<path d="M663.179 15.7044C662.972 15.9638 662.607 16.0037 662.361 15.8042C662.114 15.6046 662.075 15.2354 662.282 14.976C662.489 14.7166 662.854 14.6766 663.1 14.8762C663.346 15.0758 663.386 15.445 663.179 15.7044Z" fill="#C8A374"/>
<path d="M664.64 15.8146C664.433 16.0741 664.068 16.114 663.822 15.9144C663.575 15.7148 663.536 15.3457 663.743 15.0862C663.95 14.8368 664.314 14.7869 664.561 14.9964C664.807 15.196 664.847 15.5652 664.64 15.8246" fill="#C8A374"/>
<path d="M662.015 16.972C661.808 17.2314 661.443 17.2713 661.197 17.0718C660.95 16.8722 660.911 16.503 661.118 16.2436C661.325 15.9841 661.689 15.9442 661.936 16.1438C662.182 16.3434 662.222 16.7125 662.015 16.972Z" fill="#C8A374"/>
<path d="M662.413 18.3587C662.206 18.6081 661.842 18.658 661.595 18.4585C661.349 18.2589 661.309 17.8897 661.516 17.6303C661.723 17.3709 662.088 17.3309 662.334 17.5305C662.581 17.7301 662.62 18.0993 662.413 18.3587Z" fill="#C8A374"/>
<path d="M663.733 17.3704C663.526 17.6298 663.162 17.6698 662.915 17.4702C662.669 17.2706 662.63 16.9014 662.837 16.642C663.044 16.3826 663.408 16.3427 663.655 16.5422C663.901 16.7418 663.94 17.111 663.733 17.3704Z" fill="#C8A374"/>
<path d="M663.772 19.1869C663.566 19.4463 663.201 19.4862 662.954 19.2867C662.708 19.0871 662.669 18.7179 662.876 18.4585C663.083 18.1991 663.447 18.1592 663.694 18.3687C663.94 18.5683 663.979 18.9374 663.772 19.1969" fill="#C8A374"/>
<path d="M665.132 18.4682C664.925 18.7276 664.56 18.7675 664.314 18.5679C664.067 18.3684 664.028 17.9992 664.235 17.7397C664.442 17.4803 664.807 17.4404 665.053 17.6499C665.299 17.8495 665.339 18.2187 665.132 18.4781" fill="#C8A374"/>
<path d="M665.397 17.0307C665.191 17.2901 664.826 17.33 664.579 17.1304C664.333 16.9309 664.294 16.5617 664.501 16.3022C664.708 16.0428 665.072 16.0029 665.319 16.2124C665.565 16.412 665.604 16.7812 665.397 17.0406" fill="#C8A374"/>
</g>
<defs>
<clipPath id="clip0_1785_774">
<rect width="30" height="32" fill="white" transform="translate(644 8.5)"/>
</clipPath>
</defs>
</svg>
