<svg width="605" height="49" viewBox="0 0 605 49" fill="none" xmlns="http://www.w3.org/2000/svg">
<rect width="351" height="49" rx="8" fill="#E4F2FC"/>
<path d="M13.5347 19.3784C14.3019 19 15.4038 18.3832 16.1943 17.9904C16.474 17.8177 16.7686 17.6676 17.0865 17.5031C15.806 17.8494 14.4789 18.2244 13.2134 18.5932C11.8332 18.9375 11.4911 16.9278 12.9203 16.807C14.0718 16.7624 15.2615 16.726 16.4364 16.667C15.2888 16.5188 14.1031 16.3624 12.9471 16.2511C11.5323 16.0457 12.0491 14.0451 13.4049 14.509C14.5465 14.9465 15.7114 15.3695 16.8763 15.7926C16.664 15.6698 16.4751 15.5327 16.2628 15.4099C15.5051 14.9575 14.4523 14.3066 13.6861 13.8912C12.4975 13.1338 13.8037 11.5342 14.8506 12.4743C15.7001 13.3142 16.6026 14.1848 17.5051 15.0554C16.8357 14.0409 16.1047 13.0327 15.4035 12.0695C14.6448 10.9198 16.5204 9.98404 17.0545 11.2407C17.3525 12.0403 17.774 13.1762 18.0953 13.9614C18.1612 14.111 18.2272 14.2607 18.2698 14.4247C18.0626 13.3153 17.8405 12.1833 17.6099 11.0882C17.4002 9.7265 19.5123 9.59658 19.4611 10.9607C19.3902 11.7977 19.3346 13.0059 19.2785 13.8655C19.2641 14.1916 19.2498 14.5178 19.2354 14.844C19.3261 14.5341 19.4169 14.2243 19.531 13.9C19.778 13.0813 20.1008 11.9301 20.3329 11.0888C20.751 9.78369 22.699 10.5483 22.0602 11.7676C21.1779 13.2641 20.3021 14.82 19.4495 16.3616C21.4599 17.8174 23.2903 19.4478 24.9193 21.1708C24.4492 20.1601 23.9875 19.1125 23.509 18.1388C22.9601 16.8596 24.9824 16.2457 25.2918 17.6094C25.4842 18.6963 25.7063 19.8282 25.9518 20.9458C25.9473 20.79 25.9513 20.5971 25.9468 20.4412C25.9414 19.5879 25.9355 18.3859 25.8919 17.5245C25.9048 16.1522 28.0174 16.371 27.7521 17.7087C27.4505 18.9419 27.1554 20.2346 26.8836 21.5128C27.4673 20.3593 28.0446 19.1463 28.5901 17.9846C29.2289 16.7653 31.0246 17.846 30.1736 18.9425C29.0027 20.2999 27.8298 21.7536 26.7119 23.1417C28.4262 25.1928 29.8713 27.2831 31.0723 29.302C31.0529 29.1236 31.0103 28.9596 30.991 28.7811C30.8392 27.9547 30.634 26.7488 30.4823 25.9224C30.2725 24.5606 32.3995 24.4533 32.3633 25.8399C32.2715 26.9436 32.1713 28.0842 32.1092 29.233C32.4004 28.1332 32.6766 27.0108 32.9445 25.9253C33.3244 24.6121 35.304 25.3254 34.6801 26.5672C34.2507 27.3082 33.6838 28.3879 33.2925 29.1371L32.8293 30.0259C33.0495 29.763 33.2845 29.5227 33.4814 29.2743C34.0552 28.6028 34.8641 27.691 35.4146 27.0339C36.3484 26.0132 37.8138 27.4882 36.6761 28.3491C35.2057 29.352 33.7333 30.4514 32.3075 31.5219C33.7406 34.1907 34.6728 36.5977 35.1905 38.2769C35.2545 38.523 35.1573 38.7734 34.9708 38.8885C34.9242 38.9173 34.8776 38.946 34.831 38.9748C34.5299 39.0655 34.2264 38.9038 34.1327 38.6127C33.6448 36.9785 32.7488 34.6761 31.3603 32.0749C29.6008 32.59 27.7713 33.1482 26.0416 33.7084C24.6763 34.0753 24.2727 32.0718 25.6871 31.9284C27.0082 31.8426 28.3526 31.7424 29.697 31.6422C28.3586 31.4532 27.0052 31.2416 25.7198 31.0833C24.3134 30.841 24.8833 28.8711 26.2158 29.3494C27.281 29.7705 28.3844 30.1998 29.4878 30.6292C28.5029 30.0315 27.4799 29.4257 26.4866 28.8649C25.2979 28.1075 26.6042 26.5079 27.651 27.4481C28.2521 28.0606 29.1397 28.9086 29.7641 29.5068C29.8766 29.6277 29.9976 29.7116 30.1102 29.8325C28.9687 27.9038 27.545 25.8954 25.9284 23.9427C25.2291 24.3744 24.5299 24.806 23.839 25.2008C23.0932 25.6612 22.0443 26.3087 21.2984 26.7691C20.0948 27.4804 19.1358 25.6294 20.4882 25.1436C21.7389 24.7522 23.0213 24.3095 24.3038 23.8669C22.9509 24.004 21.598 24.1411 20.2983 24.309C18.869 24.4298 18.8959 22.3826 20.3127 22.4916C21.1845 22.6197 22.4169 22.7473 23.2887 22.8754C23.4647 22.8936 23.6408 22.9119 23.8168 22.9301C22.6966 22.5746 21.5679 22.2561 20.4541 21.9601C19.1131 21.5188 19.9419 19.6429 21.194 20.2977C21.9369 20.7275 23.0363 21.3496 23.7792 21.7794C23.9383 21.8715 24.1208 21.9492 24.2949 22.0639C22.6808 20.3634 20.8886 18.7412 18.9164 17.2935C17.5268 18.4686 16.0822 19.7094 14.7456 20.9152C13.661 21.8069 12.4372 20.1511 13.6557 19.4623" fill="#F3C574"/>
<path d="M37.2467 18.5741C38.4513 18.5602 39.6325 18.5607 40.852 18.5694C39.6618 18.2571 38.4632 17.9818 37.2943 17.7515C36.0109 17.4968 36.5575 15.5412 37.7585 16.0689C38.6859 16.48 39.6514 16.8992 40.5852 17.3698C39.7466 16.7453 38.8848 16.1351 38.0145 15.5619C36.8873 14.7983 38.0939 13.1967 39.0708 14.1801C39.8588 15.0262 40.6701 15.8579 41.4347 16.7185C40.8417 15.7203 40.2337 14.6996 39.5707 13.7446C38.7971 12.5723 40.5581 11.6121 41.1135 12.9508C41.5583 14.0722 41.9649 15.1855 42.3715 16.2988C42.196 15.138 42.0056 13.9547 41.7537 12.7777C41.4761 11.3627 43.5247 11.3354 43.5182 12.7672C43.4879 13.8646 43.4576 14.962 43.3891 16.0513C43.6485 15.0028 43.8846 13.9687 44.0677 12.9039C44.3648 11.5148 46.3171 12.4353 45.7845 13.716C45.2474 14.8408 44.7251 15.9881 44.135 17.0821C44.9438 16.1703 45.7294 15.2729 46.4936 14.2935C47.3511 13.2565 48.8085 15.1172 47.7492 15.898C46.3105 16.8496 44.8867 17.8237 43.4481 18.7753C44.4056 21.0714 45.3423 23.6342 46.0945 26.2157C46.1183 25.0588 46.104 23.8937 46.0515 22.7205C46.0198 21.2806 48.0242 21.5344 47.81 22.9992C47.6036 24.0784 47.4122 25.1802 47.1676 26.2513C47.5947 25.2579 47.9835 24.2564 48.3426 23.2098C48.8455 21.8841 50.654 23.0838 49.9007 24.2785C49.1811 25.3256 48.4997 26.3808 47.7503 27.3828C48.6866 26.6144 49.608 25.8235 50.523 24.9731C50.8831 24.6239 51.4643 24.7093 51.7851 25.1458C52.1655 25.6725 52.0182 26.4932 51.5222 26.7359C49.9581 27.4476 48.4004 28.2188 46.8511 28.9531C46.8045 28.9819 47.7927 33.5118 47.9038 34.0778C47.9509 34.3977 48.0744 34.7339 48.0367 35.0745C48.0009 35.3186 47.8804 35.5834 47.573 35.6146C47.1425 35.6582 46.9531 35.1723 46.9293 34.838C46.7344 33.4988 45.895 29.1944 45.8335 29.2006C44.0988 29.2562 42.3706 29.3712 40.6339 29.5232C39.3212 29.5721 39.3694 27.607 40.6548 27.7653C41.832 27.9586 43.0178 28.115 44.2184 28.294C43.1085 27.8052 41.9521 27.3452 40.8403 26.9528C39.6223 26.499 40.4659 24.6456 41.5867 25.3498C42.4421 25.9005 43.3124 26.4737 44.1743 27.0838C43.4458 26.3279 42.694 25.5863 41.9254 24.9186C40.94 23.9722 42.3802 22.5755 43.2004 23.719C43.8252 24.6659 44.5115 25.6065 45.1279 26.5903C44.3757 24.0088 43.4539 21.4685 42.4964 19.1724C40.8023 19.4884 39.0999 19.8414 37.4271 20.2395C36.1487 20.4893 35.8661 18.5697 37.1787 18.5209" fill="#F3C574"/>
<path d="M63.04 21.28C62.96 21.28 62.92 21.24 62.92 21.2C62.4 20.8 62.24 19.8 62.24 19.2C62.2 18.24 62.08 17.28 62.08 16.36C62.08 15 62.04 13.36 62.28 12.04C62.44 11.2 62.76 10.72 63.56 10.4C64.28 10.12 65.04 10.04 65.8 9.96C66.72 9.88 67.68 9.96 68.64 9.96H76.24C78.96 9.96 78.6 9.96 81.28 9.92C81.76 9.92 82.2 9.92 82.68 9.96C83.68 10 84.8 10.04 85.72 10.48C86.76 10.92 87.08 12.04 87.12 13.08C87.2 14.28 87.08 15.8 87.08 17C87.04 18.08 87.08 19.16 86.8 20.2C86.64 20.8 86.52 21.28 85.88 21.48C85.32 21.68 84.6 21.72 84.04 21.72H66.76C66.24 21.72 65.72 21.68 65.2 21.64C64.52 21.6 63.64 21.68 63.04 21.28ZM85.24 28.92C82.6 29 80.52 29.08 77.84 29.08C77.8 30.2 77.72 31.24 77.72 32.76C77.48 33.88 76 34.56 74.92 34.52C73.32 34.44 72.44 33.8 72.28 32.2C72.16 31.16 72.32 30.04 72.32 29C69.88 29 63.48 28.92 61.24 28.76C60.4 28.68 60 28.64 59.32 28C58.96 27.68 58.8 27.08 58.8 26.52C58.8 26 59 25.48 59.32 25.16C60.12 24.32 62.08 24.36 62.16 24.36H85.04C85.84 24.36 86.64 24.36 87.4 24.4C88.12 24.44 88.92 24.56 89.48 25.08C90.04 25.52 90.04 26.04 90.04 26.68C90.04 27.48 89.56 28.16 88.76 28.44C87.68 28.84 86.36 28.88 85.24 28.92ZM86.36 36.48C86.44 36.52 87.92 36.88 88.08 38C88.24 39 88.08 39.8 87.6 40.36C87 41.12 86.12 41.16 86.08 41.16H64.24C62.2 41.16 60.96 40.44 60.96 39.24V35.68C60.92 35.08 60.92 34.48 60.96 33.88C61.04 32.76 61.88 32 63 32C63.28 32 63.84 32.04 64.08 32.12C65.44 32.56 65.52 33.92 65.6 35.12C65.6 35.56 65.64 36.04 65.76 36.4C65.88 36.44 66.68 36.56 68.56 36.56C70.16 36.56 71.64 36.48 71.68 36.48H86.36ZM66.84 16.6C66.84 16.84 66.84 17.12 66.96 17.24C67.2 17.44 68.12 17.32 68.12 17.32H78.64C78.64 17.32 80.56 17.48 81.52 17.36C82.08 17.32 82.08 17.08 82.16 16.6C82.2 16.16 82.28 15.24 81.96 14.84C81.6 14.4 80.76 14.48 80.28 14.52H76.64C76.28 14.48 71.44 14.52 71.08 14.52C69.96 14.44 68.84 14.48 67.68 14.52C67.2 14.52 67.04 14.44 66.92 14.92C66.84 15.28 66.84 15.92 66.84 16.24V16.6ZM95.2516 33.72C95.4516 33.64 99.1316 33.8 99.8116 33.8C99.8516 33.16 99.9316 30.52 100.012 29.2C99.5316 29.08 99.0916 28.96 98.6516 28.76C95.6516 27.52 93.3316 25.08 93.3316 21.56C93.3316 19.64 93.8916 18.16 94.8116 17H94.3716C93.0916 17 92.0116 16.04 92.0116 14.88C92.0116 13.68 93.0916 12.72 94.3716 12.72H99.6516V11.08C99.6516 10.04 100.692 9.28 101.972 9.28C103.292 9.28 104.332 10.04 104.332 11.08V12.72H109.852C111.172 12.72 112.252 13.68 112.252 14.88C112.252 16.04 111.172 17 109.852 17H109.732C110.652 18.16 111.252 19.64 111.252 21.56C111.252 24.04 110.052 26.08 108.052 27.6C107.052 28.32 105.932 28.84 104.772 29.16C104.852 30.4 104.852 33.16 104.852 33.76V33.8H110.172C111.052 33.8 111.772 33.96 112.292 34.28C113.492 35 113.452 36.96 112.932 37.92C112.452 38.76 111.412 38.84 110.572 38.84H94.7716C94.7316 38.84 93.3716 38.72 92.6516 38.4C92.1316 38.12 91.7316 37.52 91.6116 36.76C91.4916 35.92 91.7716 35.12 92.2916 34.64C93.2516 33.84 94.3316 33.72 95.2516 33.72ZM121.772 22.96H121.852C122.132 22.92 122.372 23 122.612 23C122.932 23.04 123.212 23.08 123.532 23.12C124.132 23.24 124.772 23.48 125.092 24.08C125.252 24.4 125.332 24.76 125.332 25.16C125.332 25.52 125.332 25.92 125.252 26.28C125.132 26.68 125.012 27.24 124.692 27.52C124.372 27.76 123.972 27.96 123.572 28.04C122.732 28.16 121.292 28.04 120.452 28.08C120.372 28.12 120.332 28.12 120.332 28.12C120.332 28.12 120.332 28.16 120.292 28.28C120.252 29.6 120.292 30.76 120.292 32.12C120.332 33.48 120.332 34.88 120.292 36.2V36.76C120.292 38.16 120.332 40.2 119.372 41.2C119.012 41.52 118.572 41.72 118.052 41.72H117.972C115.372 41.6 115.132 38.48 115.132 36.8V13.04C115.132 12.96 115.052 10.96 115.932 10.08C116.332 9.72 117.172 9.52 117.732 9.52C118.332 9.52 118.892 9.76 119.252 10.12C119.932 10.88 120.012 11.72 120.052 12.6C120.092 12.76 120.092 12.92 120.132 13.12C120.212 13.96 120.212 14.96 120.252 15.92C120.252 16.52 120.292 17.08 120.292 17.64V21.96C120.292 22.24 120.292 22.56 120.372 22.84C120.372 22.88 121.172 22.88 121.252 22.92C121.412 22.92 121.612 22.96 121.772 22.96ZM103.052 24.76C104.772 24.44 106.252 23.6 106.252 21.56C106.252 19.2 104.292 18.32 102.332 18.28C100.332 18.2 98.3316 19.04 98.3316 21.56C98.3316 24.44 100.852 25.2 103.052 24.76ZM162.553 38.44C163.393 38.52 164.113 38.8 164.353 39.64C164.673 40.6 164.313 41.28 163.313 41.68C162.673 41.92 161.993 41.96 161.433 41.96H142.833C141.753 41.96 140.593 41.92 139.433 41.88C138.313 41.84 137.513 41 137.393 39.8L137.273 37C137.233 36.44 137.193 35.48 137.673 34.96C138.393 34.16 139.833 34.04 140.993 34.04C142.513 34.04 147.593 34.08 159.793 34.08V32.64H140.113C139.593 32.64 139.153 32.64 138.753 32.56C138.273 32.44 137.873 32.44 137.633 32C137.273 31.44 137.153 30.92 137.353 30.28C137.633 29.44 138.833 29.32 139.433 29.24C139.833 29.16 140.233 29.12 140.673 29.12C143.073 29.12 145.873 29.16 160.193 29.16C162.873 29.16 164.393 29.96 164.393 31.8V34.64C164.393 35.36 164.073 36.16 163.233 36.64C162.553 37.04 161.833 37 161.153 37H142.193V38.44H162.553ZM137.633 15.2C137.553 13.88 137.353 12.48 137.793 11.32C138.393 9.88 139.913 9.64 141.233 9.64H159.873C160.953 9.64 161.873 9.68 162.913 10.08C163.753 10.44 164.273 11.28 164.233 12.2C164.153 13.12 163.593 13.84 162.713 14.04C162.233 14.16 161.513 14.24 160.553 14.24C159.873 14.24 159.393 14.2 159.353 14.2H147.793C146.993 14.2 146.193 14.24 145.393 14.2C144.753 14.16 144.073 13.96 143.473 14.16C142.873 14.32 142.913 15 143.073 15.68C143.833 15.8 144.593 15.8 145.353 15.84H152.953C153.433 15.88 156.593 15.88 156.993 15.84C157.313 15.8 159.513 15.8 159.833 15.8C161.073 15.8 162.153 16 162.993 16.4C163.513 16.68 163.873 16.88 163.993 17.52C164.153 18.16 164.033 18.84 163.633 19.32C162.873 20.32 161.913 20.36 160.793 20.4C159.753 20.44 153.873 20.48 152.233 20.48C150.553 20.48 147.153 20.44 145.593 20.44C143.833 20.4 142.073 20.32 140.313 20.32C137.713 20.32 137.713 18.56 137.713 16.32C137.713 15.96 137.673 15.56 137.633 15.2ZM138.993 22.64C139.793 22.56 141.553 22.56 141.553 22.56H150.353C150.353 22.56 157.753 22.48 161.353 22.56H161.553C162.633 22.6 163.713 22.52 164.753 22.92C165.513 23.2 165.993 23.88 165.993 24.68C165.993 25.32 165.713 25.92 165.193 26.36C164.353 27.12 162.993 27.08 161.913 27H138.953C138.873 27 136.993 27.04 136.233 26.2C135.913 25.88 135.753 25.36 135.753 24.84C135.753 24.28 135.953 23.8 136.273 23.48C136.953 22.8 137.713 22.76 138.513 22.68C138.673 22.68 138.833 22.64 138.993 22.64ZM191.589 14.52C191.629 13.16 191.589 11.04 192.549 10.08C192.909 9.72 193.349 9.56 193.829 9.56H193.909C196.549 9.68 196.789 12.8 196.789 14.48V38.2C196.789 38.28 196.869 40.32 195.949 41.16C195.589 41.52 194.749 41.76 194.189 41.76C193.589 41.76 193.029 41.52 192.669 41.12C191.989 40.36 191.869 39.68 191.789 38.8C191.789 37.88 191.709 34.68 191.749 33.2H189.269C188.069 33.2 187.429 32.8 187.149 32.2C186.989 31.88 186.829 31.52 186.829 31.16C186.829 30.8 186.829 30.56 186.909 30.2C187.029 29.8 187.149 29.24 187.469 28.96C187.789 28.72 188.189 28.52 188.589 28.44C189.429 28.28 190.749 28.32 191.629 28.2C191.629 27.4 191.629 24.92 191.589 23.16L189.189 23.08C188.189 23.04 187.309 22.88 187.029 22.28C186.869 21.96 186.749 21.56 186.749 21.2C186.749 20.84 186.749 20.6 186.829 20.24C186.949 19.84 187.069 19.36 187.389 19.08C187.709 18.84 188.109 18.64 188.509 18.56C189.109 18.44 190.149 18.44 191.549 18.36C191.549 16.6 191.549 15.04 191.589 14.52ZM177.029 9.56C177.709 9.56 178.349 9.64 178.989 9.72C179.989 9.88 180.909 10.36 181.669 11.12C184.269 13.84 184.829 18.52 184.989 22.32C185.109 24.76 185.069 27.24 184.789 29.64C184.509 32.12 184.149 34.8 182.829 36.84C181.709 38.56 179.949 39.68 178.149 40.04C176.509 40.36 174.709 40.16 173.189 39.28C171.749 38.44 170.789 37.12 170.069 35.44C169.549 34.2 169.229 32.84 169.149 31.48C168.949 29.24 168.869 27 168.869 24.76C168.869 23.24 168.869 21.76 169.029 20.28C169.109 19.08 169.309 17.84 169.509 16.68C169.709 15.72 169.829 14.88 170.229 14C170.629 13.12 171.149 12.28 171.829 11.64C172.989 10.48 174.509 9.84 176.029 9.64C176.349 9.6 176.709 9.6 177.029 9.56ZM176.909 34.72C177.389 34.72 177.909 34.56 178.389 34.24C179.269 33.6 179.589 32.48 179.829 31.2C180.269 28.76 180.229 25.8 180.149 23.28C180.109 21.24 180.069 18.6 179.109 16.96C178.589 16.08 177.789 15.52 176.949 15.64C176.069 15.72 175.269 16.28 174.789 17.32L174.429 18.16C174.109 19.16 173.949 20.28 173.869 21.36C173.789 22.44 173.709 23.56 173.709 24.64C173.749 25.72 173.629 26.72 173.709 27.76C173.909 30.52 174.269 34.68 176.909 34.72ZM216.772 34.8C218.332 34.8 219.772 35.16 219.972 36.88C220.172 38.6 218.412 39.64 216.972 39.72C215.852 39.76 210.492 39.72 207.892 39.72H207.572C206.372 39.68 204.972 39.68 203.772 39.32C202.932 39.08 202.092 38.32 201.692 37.4C201.172 36.24 201.292 33.76 201.292 33.64V16.64C201.252 16.36 200.972 13.52 201.772 12.2C202.452 11.08 205.492 11.04 205.772 11.04H215.132C215.292 11.04 218.652 10.92 219.172 12.6C219.372 13.2 219.332 14.64 219.092 15.08C218.892 15.44 218.532 15.68 218.092 15.8C217.612 15.92 216.852 16 215.812 16C215.132 16 214.612 15.96 209.692 15.96C208.972 15.96 208.052 16 207.692 16.16C206.932 16.48 206.972 18.24 207.052 18.84V18.88L207.212 32.72C207.212 33.76 207.612 34.52 208.852 34.52C209.132 34.56 213.252 34.8 216.772 34.8ZM227.412 21.88L230.572 22.16C231.532 22.36 232.372 23 232.372 24.16C232.372 24.56 232.372 24.92 232.252 25.32C232.092 26.2 231.612 26.96 230.612 26.96L227.332 27C227.252 29.76 227.332 34 227.332 37.32C227.332 38.72 227.292 41.68 224.932 41.84C222.332 42 222.132 39.44 222.132 37.76V13.2C222.132 13.12 222.092 11.12 222.972 10.24C223.332 9.88 224.172 9.68 224.772 9.68C225.372 9.68 225.892 9.92 226.252 10.28C226.972 11.04 227.012 11.88 227.092 12.76C227.332 15.68 227.412 18.84 227.412 21.88ZM260.615 34.52C260.775 34.56 260.935 34.52 261.095 34.52C261.975 34.6 262.775 34.8 263.495 35.44C263.855 35.8 264.055 36.28 264.055 36.84C264.055 37.4 263.855 38.2 263.535 38.56C262.695 39.4 260.735 39.32 260.655 39.32H238.255C238.015 39.32 237.735 39.36 237.455 39.36C236.335 39.4 234.895 39.48 234.015 38.72C233.495 38.24 233.175 37.64 233.175 37C233.175 36.2 233.695 35.2 234.495 34.88C235.575 34.48 236.735 34.56 237.895 34.52H238.095C240.375 34.48 242.855 34.48 245.255 34.52L245.215 29C243.175 29.04 241.495 29.04 240.535 28.96C239.415 28.92 237.935 28.88 237.015 28.2C235.815 27.28 235.775 24.36 235.775 24.24V15.64C235.775 14.6 235.615 13.48 235.815 12.44C236.095 11.2 237.615 10.88 238.815 10.8C239.735 10.76 241.095 11 241.295 12.08C241.375 12.56 241.215 15.6 241.415 16.04C241.535 16.32 242.095 16.36 242.375 16.4C243.615 16.48 244.015 16.36 245.255 16.36L254.415 16.4C254.975 16.44 255.415 16.44 255.575 15.88C255.615 15.32 255.615 12.96 255.655 12.52C255.695 11.56 255.975 11 256.975 10.8C258.015 10.56 259.495 10.64 260.095 11.24C260.935 12.12 260.895 13.16 260.895 15.24C260.815 17.68 261.015 23.56 260.775 26C260.655 27.56 259.775 28.56 258.255 28.8C257.455 28.92 256.375 28.88 255.575 28.88C253.855 28.92 252.215 28.92 250.615 28.92L250.695 34.52C253.415 34.52 255.295 34.44 257.895 34.52C258.855 34.56 259.775 34.44 260.615 34.52ZM241.415 23.84C241.615 24.64 242.775 24.64 243.655 24.68C244.055 24.64 252.175 24.56 252.655 24.64C253.095 24.68 253.535 24.64 253.975 24.68C254.535 24.72 255.495 24.92 255.495 24.04C255.495 23.64 255.575 22 255.375 21.24C255.215 20.6 254.855 20.64 254.335 20.68C254.095 20.68 253.335 20.72 253.095 20.68H243.975C242.975 20.64 241.495 20.44 241.375 21.68C241.375 21.96 241.375 23.64 241.415 23.84ZM295.356 38.72C295.276 39.36 295.236 39.96 295.036 40.6C294.956 40.8 294.876 40.96 294.796 41.16C294.636 41.48 294.396 41.8 294.076 42.04C293.476 42.4 292.716 42.48 292.036 42.32C291.636 42.24 291.276 42.08 290.996 41.84C290.036 40.96 290.076 38.88 290.076 38.8V14.08C290.036 12.84 290.076 10.84 290.836 10.12C291.396 9.56 292.076 9.48 292.796 9.48C293.716 9.48 294.556 10.04 294.876 10.92C295.356 12.04 295.316 13.28 295.356 14.52V14.72C295.476 18.8 295.356 23.32 295.356 27.16V37.28C295.356 37.76 295.396 38.24 295.356 38.72ZM276.476 34.8C276.436 34.16 276.436 33.52 276.436 32.88V20.16C276.436 19.32 276.436 18.44 276.356 17.56C276.316 17.28 276.276 16.68 275.996 16.56C275.716 16.4 275.356 16.48 275.036 16.44C274.676 16.4 274.316 16.48 273.956 16.44H272.076C271.196 16.48 270.236 16.4 269.356 16.44C268.956 16.48 268.596 16.44 268.196 16.44C267.596 16.44 266.916 16.44 266.396 16.08C265.636 15.56 265.436 14.68 265.436 13.84C265.396 13.32 265.516 12.8 265.756 12.32C265.876 12.04 266.036 11.8 266.276 11.64C266.556 11.36 267.156 11.16 267.516 11.08C268.636 10.8 269.916 10.84 271.076 10.84H278.036C278.716 10.92 279.556 11 280.196 11.24C280.596 11.4 281.076 11.68 281.316 12.04C281.796 12.8 281.796 13.52 281.876 14.4C281.996 15.88 281.956 17.36 281.956 18.84V31.96C281.956 32.08 282.036 35.4 281.956 37.08C281.876 38.16 281.636 39.48 280.236 40C279.756 40.2 279.276 40.28 278.876 40.28C278.196 40.28 277.396 40 277.116 39.4C276.716 38.6 276.476 37.6 276.476 36.56V34.8Z" fill="#475783"/>
<circle cx="322" cy="24.5" r="17" fill="#ACB7D6"/>
<path d="M315.264 30.68L322.154 23.582C324.338 21.346 324.468 20.358 324.468 19.292V19.084C324.468 18.07 323.714 17.108 321.79 17.108C320.438 17.108 319.06 17.55 317.838 19.734L315.342 18.096C316.226 16.484 317.968 14.144 321.764 14.144C326.002 14.144 327.822 16.38 327.822 18.954V19.214C327.822 21.242 326.86 23.114 325.118 24.856L319.606 30.42H328.524V33.176H315.264V30.68Z" fill="white"/>
<path d="M385.92 21.96C386.92 22.48 387.92 23.24 388.76 24.04C389.64 24.88 389.36 26.88 388.04 27.16C386.36 27.56 384.36 26.96 382.84 26.2C381.4 25.48 380.2 24.84 379 24.08C378.28 23.6 376.24 22.44 376.24 22.44C376.24 22.44 373.8 23.64 372.96 24.12C371.56 24.92 370.52 25.44 369.12 26.16C368.08 26.68 366.96 27.48 365.76 27.4C364.8 27.32 363.72 26.88 363.52 25.72C363.48 25.4 363.52 25 363.6 24.68C363.8 23.8 364.36 23.24 365.08 22.76L367.84 21.2C368.76 20.68 369.32 20.4 370.28 19.88C371.16 19.36 372.52 18.56 373.56 18.16V14.92H369.32C368.48 14.92 367.96 14.96 367.16 14.88C366.56 14.8 365.8 14.88 365.24 14.56C364.92 14.4 364.68 14.08 364.52 13.72C364.2 13.12 364.12 12.24 364.4 11.6C364.8 10.64 365.92 10.16 366.92 10.16H367.84C368.68 10.2 368.88 10.16 369.72 10.16H383.56C385.32 10.16 388.32 9.68 388.88 12.24C389.52 15.2 385.2 15.12 383.52 15.04C381.88 14.92 379.4 15 379.4 15V18.24C379.72 18.44 380.08 18.64 380.44 18.8C380.76 18.96 381.04 19.16 381.36 19.36C381.88 19.64 382.4 19.88 382.92 20.2C383.92 20.76 384.92 21.4 385.92 21.96ZM365.32 34.56C364.08 34.52 362.92 34.32 362.24 33.28C361.68 32.4 361.68 31.24 362.4 30.48C363.24 29.64 365.2 29.68 365.28 29.68H387.08C388.76 29.6 391.36 29.68 391.36 32.04C391.36 34.68 387.2 34.48 385.48 34.52H383.92C382.88 34.56 381.84 34.52 380.8 34.52H379.28C379.32 36 379.44 37.8 379.24 39.08C379.12 40.08 378.76 41.12 377.88 41.68C377.08 42.2 375.88 42.24 375.04 41.76C374.36 41.36 374.04 40.4 373.92 39.68C373.8 39.08 373.88 38.36 373.88 37.76C373.84 36.8 373.84 35.6 373.84 34.48H372.84C369.88 34.52 368.28 34.6 365.32 34.56ZM408.732 23.08C410.092 23.92 409.932 26.52 408.452 27.2C407.292 27.76 405.932 27.64 404.732 27.64H399.932C398.172 27.64 395.772 27.48 394.612 26.28C393.532 25.12 393.652 22.08 393.692 21.96V13.04C393.652 12.88 393.652 11.36 394.012 10.8C394.492 10.12 394.892 9.84 395.692 9.72C396.092 9.68 397.092 9.64 397.092 9.64H405.892C406.412 9.64 406.892 9.68 407.372 9.8C407.852 9.92 408.372 10 408.732 10.4C409.052 10.72 409.252 11.12 409.332 11.56C409.412 11.96 409.452 12.28 409.372 12.64C409.252 13.68 408.452 14.56 407.252 14.56C407.012 14.56 406.772 14.52 399.172 14.52V16C400.852 16.08 402.172 16 402.212 16H404.092C404.332 16 404.612 16.04 404.932 16H405.972C406.572 16 407.212 16.08 407.732 16.36C408.532 16.76 408.692 17.76 408.612 18.52C408.572 18.88 408.572 19.32 408.332 19.6C407.732 20.4 407.052 20.48 406.332 20.48H399.172V21.64C399.172 21.92 399.212 22.24 399.412 22.44C399.652 22.64 400.092 22.68 400.372 22.68H405.732C406.612 22.68 407.492 22.64 408.292 22.88C408.452 22.92 408.612 23 408.732 23.08ZM416.172 25.52C416.132 26.08 416.052 26.72 415.732 27.32C415.572 27.64 415.332 27.92 415.052 28.08C414.692 28.36 414.492 28.52 414.012 28.52C413.612 28.52 413.252 28.4 412.892 28.2C411.852 27.56 411.692 26.12 411.692 26.04V12.88C411.652 12.64 411.692 11.44 412.012 10.8C412.252 10.28 412.892 9.92 413.652 9.84C414.532 9.72 415.092 9.96 415.532 10.44C415.892 10.84 415.932 11.24 416.052 11.68C416.212 12.2 416.212 12.84 416.212 13.4C416.172 13.4 416.172 15.88 416.172 16.6C416.412 16.64 417.252 16.68 417.972 16.72L418.012 13.28C417.972 12.72 417.972 12.12 418.132 11.56C418.252 11.16 418.492 10.76 418.852 10.36C419.252 9.84 419.852 9.6 420.732 9.72C421.492 9.84 421.932 10.24 422.172 10.76C422.492 11.4 422.532 12.56 422.492 12.76V26.16C422.492 26.24 422.452 27.68 421.372 28.32C421.052 28.52 420.812 28.6 420.452 28.6C419.972 28.6 419.492 28.48 419.132 28.2C418.852 28 418.612 27.72 418.452 27.4C417.892 26.44 417.972 24.52 417.972 23.56V21.08H416.172V25.52ZM418.172 31.24C420.332 31.24 421.812 31.96 421.812 33.16V38.52C421.852 39.12 421.852 39.72 421.812 40.28C421.692 41.4 420.852 42.16 419.652 42.16C419.372 42.16 418.492 42.12 418.212 42.04C416.812 41.6 416.692 40.28 416.612 39.08C416.572 38.6 416.572 36.36 416.492 35.96C416.332 35.92 415.772 35.84 413.812 35.84C412.092 35.84 411.932 35.92 411.892 35.92H397.452L397.412 35.88C397.372 35.88 395.772 35.52 395.612 34.4C395.492 33.4 395.652 32.6 396.132 32C396.772 31.24 397.732 31.24 397.772 31.24H418.172ZM428.847 26.72C427.767 25.96 427.007 24.84 426.567 23.52C426.047 22.16 425.887 20.88 425.887 19.56C425.887 18.16 426.127 17 426.567 15.84C427.087 14.72 427.687 13.72 428.527 12.96C429.367 12.08 430.287 11.44 431.487 11C432.567 10.48 433.847 10.24 435.207 10.24C435.727 10.16 436.127 10.16 436.607 10.24C437.047 10.24 437.567 10.32 438.007 10.4C438.207 10.48 438.487 10.48 438.727 10.56C439.007 10.56 439.247 10.68 439.407 10.76C440.007 10.92 440.487 11.08 441.007 11.36C441.527 11.6 441.967 11.84 442.367 12.08C442.687 12.24 443.127 12.6 443.487 12.96C444.007 13.48 444.327 13.88 444.647 14.44C444.967 14.96 445.247 15.56 445.327 16.24C445.487 16.84 445.567 17.44 445.687 18.04C445.767 18.6 445.847 19.2 445.767 19.88C445.767 20.2 445.687 20.64 445.687 20.96C445.567 21.4 445.567 21.84 445.407 22.16C445.247 23.16 444.887 24.2 444.407 25.04C443.807 25.96 443.127 26.6 442.207 27.24C441.527 27.64 440.847 28 440.087 28.16C439.407 28.36 438.647 28.48 437.927 28.64C437.647 28.72 437.407 28.72 437.127 28.72C436.967 28.72 436.687 28.72 436.447 28.8H435.727C435.527 28.8 435.287 28.8 435.007 28.72C434.687 28.72 434.327 28.72 434.007 28.64C433.607 28.64 433.247 28.56 432.887 28.56C432.127 28.44 431.487 28.24 430.807 27.92C430.087 27.56 429.447 27.24 428.847 26.72ZM454.647 14.76V17.36C454.727 18.4 454.727 19.56 454.727 20.76V27.24C454.727 28.44 454.727 29.52 454.647 30.52V35.08C454.567 35.92 454.647 36.8 454.647 37.52C454.647 38.04 454.647 38.56 454.567 38.96C454.567 39.4 454.487 39.72 454.287 40C454.207 40.24 454.047 40.4 453.967 40.68C453.767 40.84 453.607 41.08 453.167 41.24C452.687 41.6 452.007 41.68 451.327 41.6C450.887 41.48 450.567 41.32 450.327 41.08C450.087 40.92 449.887 40.6 449.727 40.24C449.567 39.88 449.447 39.56 449.447 39.2C449.367 38.96 449.287 38.64 449.287 38.48V38.04L449.207 14.32C449.207 13.64 449.207 12.96 449.367 12.12C449.447 11.36 449.727 10.76 450.087 10.36C450.407 10.12 450.727 9.92 450.967 9.84C451.327 9.76 451.647 9.76 452.087 9.76C452.527 9.76 452.927 9.84 453.367 10.12C453.687 10.36 453.967 10.72 454.127 11.12C454.367 11.72 454.567 12.32 454.567 12.88C454.567 13.48 454.567 14.16 454.647 14.76ZM445.847 33.2C446.207 33.32 446.527 33.48 446.767 33.64C447.287 34.16 447.607 34.68 447.607 35.32C447.607 35.76 447.447 36.2 447.167 36.52C446.927 36.84 446.647 37.08 446.287 37.2C446.007 37.28 445.767 37.36 445.487 37.36C445.167 37.44 444.887 37.44 444.647 37.44H440.847C439.927 37.44 439.007 37.44 438.007 37.52H435.207C434.247 37.44 433.527 37.44 432.807 37.44H428.607C428.087 37.44 427.607 37.36 427.087 37.28C426.807 37.2 426.567 37.08 426.327 37C426.047 36.92 425.887 36.84 425.647 36.64C425.327 36.28 425.127 35.84 425.127 35.16C425.127 34.6 425.327 34.16 425.647 33.8C425.807 33.56 426.047 33.4 426.407 33.32C426.727 33.2 427.087 33.12 427.327 33.04C427.687 32.96 427.887 32.96 428.087 32.96H443.207C443.727 32.96 444.247 32.96 444.647 33.04C445.087 33.04 445.407 33.12 445.847 33.2ZM431.207 18.84C431.127 19.36 431.127 19.88 431.207 20.44C431.327 21.04 431.487 21.56 431.727 22C432.287 22.84 433.087 23.44 434.087 23.84C434.847 24.12 435.607 24.2 436.367 24.2C436.807 24.12 437.127 24.12 437.567 24.04C437.927 24.04 438.287 23.84 438.647 23.68C439.167 23.44 439.607 23 439.927 22.48C440.287 21.92 440.407 21.4 440.567 20.8C440.767 19.88 440.687 19.12 440.407 18.24C440.287 17.88 440.087 17.52 439.927 17.24C439.767 17.08 439.687 16.84 439.487 16.76C439.407 16.56 439.247 16.4 439.007 16.24C438.807 16.12 438.567 16 438.367 15.92C438.167 15.76 437.927 15.68 437.647 15.56C436.967 15.4 436.287 15.32 435.527 15.32C434.847 15.32 434.167 15.4 433.607 15.68C433.007 15.92 432.487 16.24 432.047 16.84C431.647 17.36 431.407 18.04 431.207 18.84ZM475.81 39.8C475.29 39.8 474.73 39.76 474.29 39.68C473.81 39.64 473.25 39.56 472.65 39.56C472.25 39.52 471.85 39.44 471.41 39.36C470.93 39.2 470.61 39 470.29 38.64C470.01 38.36 469.77 38.12 469.61 37.88C469.45 37.68 469.37 37.4 469.29 37.04C469.09 36.16 469.01 35.24 469.05 34.28C469.09 33.32 469.09 32.44 469.09 31.56V28.12C469.09 26.88 469.09 25.72 469.09 24.88C469.09 23.88 469.09 22.84 469.09 21.72C469.05 20.52 469.05 19.44 469.05 18.4C469.05 17.32 469.05 16.4 469.05 15.56C469.05 14.76 469.05 14.2 469.09 13.92C469.13 13.36 469.25 12.8 469.45 12.2C469.69 11.6 470.17 11.12 470.89 10.84C471.13 10.76 471.49 10.68 471.81 10.6C472.17 10.52 472.45 10.56 472.77 10.64C473.13 10.72 473.45 10.84 473.77 11.04C474.05 11.24 474.29 11.56 474.37 11.92C474.53 12.32 474.69 12.72 474.69 13.16C474.77 13.6 474.77 14 474.77 14.44C474.77 14.76 474.77 15.16 474.77 15.76C474.77 16.4 474.73 16.8 474.73 17.12C474.73 17.72 474.73 18.4 474.73 19.24C474.73 20.16 474.73 21.08 474.73 22.04C474.73 23.12 474.73 24.12 474.73 25.2C474.73 26.2 474.73 27.24 474.73 28.24C474.73 29.24 474.73 30.16 474.73 31C474.73 31.88 474.77 32.6 474.77 33.2C474.77 33.36 474.81 33.56 474.81 33.76C474.89 33.96 474.97 34.08 475.05 34.2C475.25 34.36 475.45 34.48 475.65 34.48C476.49 34.52 477.33 34.56 478.17 34.6C478.53 34.64 478.85 34.64 479.09 34.64C481.29 34.64 484.05 34.08 484.05 37.12C484.05 37.24 484.05 37.36 484.05 37.52C483.93 39.16 482.09 39.48 480.69 39.56C479.65 39.6 478.65 39.8 477.73 39.8C477.25 39.8 476.89 39.8 476.49 39.8C476.21 39.8 475.97 39.8 475.81 39.8ZM497.89 15.96V37.48C497.89 38.16 497.85 38.96 497.73 39.72C497.65 40.48 497.33 41.04 496.73 41.52C496.21 41.76 495.77 41.92 495.33 41.92C494.85 41.92 494.49 41.72 494.21 41.4C493.89 41.04 493.69 40.72 493.57 40.24C493.41 39.76 493.29 39.28 493.25 38.72C493.25 38.2 493.21 37.8 493.21 37.44V27.32H490.17V37.68C490.25 38.28 490.25 38.92 490.13 39.64C490.05 40.28 489.85 40.8 489.61 41.2C489.29 41.68 488.81 41.92 488.13 41.92C487.85 41.92 487.53 41.8 487.21 41.68C486.97 41.56 486.73 41.4 486.49 41.16C486.05 40.72 485.73 40.2 485.61 39.48C485.49 38.8 485.49 38.12 485.49 37.56V12.36C485.49 11.56 485.61 10.88 485.85 10.32C486.13 9.72 486.73 9.36 487.61 9.28C488.29 9.24 488.81 9.4 489.13 9.76C489.45 10.16 489.73 10.56 489.89 11.08C490.05 11.68 490.13 12.24 490.13 12.84C490.17 13.44 490.17 13.92 490.17 14.28V22.32H493.21V13.96C493.21 13.56 493.21 13.12 493.21 12.64C493.21 12.08 493.25 11.6 493.33 11.08C493.45 10.64 493.61 10.28 493.89 9.88C494.21 9.52 494.65 9.36 495.25 9.28C495.49 9.28 495.81 9.28 496.09 9.36C496.37 9.48 496.61 9.6 496.81 9.84C497.13 10.2 497.41 10.56 497.49 11.04C497.65 11.6 497.73 12.12 497.77 12.72C497.85 13.32 497.89 13.84 497.89 14.4C497.89 14.96 497.89 15.48 497.89 15.96ZM528.225 13.2C528.185 13.6 528.185 13.88 528.185 14.08V16.24C528.185 17.04 528.185 17.88 528.225 18.8V21.4C528.185 22.28 528.185 22.96 528.105 23.64C527.945 25.12 527.105 26.08 525.585 26.28C525.105 26.4 524.745 26.4 524.305 26.4H523.105C522.625 26.4 522.065 26.44 521.225 26.44C520.385 26.44 519.505 26.44 518.665 26.4H507.985C507.425 26.4 506.825 26.4 506.345 26.28C505.785 26.28 505.185 26.08 504.825 25.72C504.545 25.48 504.305 25.12 504.105 24.72C503.945 24.32 503.785 23.88 503.745 23.44C503.625 23.12 503.545 22.64 503.545 22.32V14.44C503.545 13.96 503.385 13.36 503.385 12.88C503.345 12.28 503.385 11.8 503.625 11.28C503.745 10.64 503.945 10.16 504.305 10.04C504.585 9.8 505.145 9.72 505.785 9.6C506.225 9.6 506.785 9.72 507.265 9.84C507.865 10.04 508.225 10.36 508.265 10.88V12.64C508.265 13.12 508.305 13.52 508.305 13.88C508.305 14.28 508.305 14.76 508.865 14.76H522.865C522.985 14.76 523.265 14.68 523.465 14.64V14.08C523.545 13.68 523.545 13.36 523.545 13.04V11.36C523.545 10.88 523.625 10.4 523.865 10.12C524.025 9.84 524.385 9.72 524.865 9.6C525.065 9.56 525.225 9.56 525.585 9.56H526.385C526.665 9.56 526.905 9.6 527.145 9.72C527.745 9.92 528.025 10.2 528.105 10.72C528.185 11.16 528.185 11.56 528.225 11.92V13.2ZM527.665 29.68C528.185 29.68 528.585 29.8 529.025 30C529.385 30.12 529.705 30.36 529.985 30.72C530.225 31.04 530.305 31.52 530.305 32.08C530.305 32.76 530.185 33.2 529.625 33.6C529.225 33.92 528.665 34.16 528.105 34.24C527.385 34.4 526.745 34.48 526.065 34.48C525.385 34.48 524.825 34.6 524.385 34.6H518.185C518.305 35.32 518.305 36.68 518.305 37.24C518.345 37.8 518.305 38.44 518.185 39.2C518.105 39.68 517.945 40.16 517.745 40.56C517.665 41.08 517.345 41.44 516.905 41.72C516.465 42.04 515.945 42.16 515.465 42.16C514.865 42.16 514.425 42.04 513.985 41.72C513.585 41.56 513.345 41.24 513.225 40.84C513.025 40.36 512.865 40.04 512.865 39.68C512.785 39.44 512.785 39.08 512.785 38.76V34.6H504.305C503.625 34.6 503.025 34.48 502.545 34.36C501.945 34.16 501.505 33.84 501.185 33.32C500.825 32.84 500.745 32.36 500.745 31.8C500.745 31.32 500.905 30.88 501.345 30.48C501.505 30.32 501.745 30.12 502.065 30C502.465 29.84 502.665 29.8 503.025 29.8C503.345 29.72 503.625 29.72 503.865 29.72H504.185L526.305 29.6C526.745 29.6 527.225 29.56 527.665 29.68ZM523.385 21.12C523.465 21 523.465 20.84 523.465 20.52C523.465 20.28 523.465 20.04 523.385 19.88C523.385 19.64 523.385 19.52 523.345 19.44C523.105 19.2 522.825 19.16 522.585 19.04H513.825L512.185 19H511.345C511.105 19 510.865 19 510.505 18.92C510.145 18.92 509.785 18.96 509.465 18.96C509.105 18.96 508.865 19.04 508.625 19.2C508.465 19.36 508.265 19.64 508.385 20.04V21.32C508.465 21.48 508.465 21.56 508.465 21.56C508.465 21.8 508.625 21.96 508.785 22.08C509.025 22.16 509.185 22.28 509.465 22.28C509.705 22.32 510.025 22.32 510.265 22.28H520.545C520.705 22.28 520.985 22.32 521.225 22.28H521.945C522.065 22.28 522.145 22.28 522.385 22.32H522.865C522.985 22.28 523.145 22.28 523.265 22.16C523.385 21.96 523.385 21.88 523.385 21.64V21.12ZM558.837 40.64C558.637 41.04 558.317 41.44 557.837 41.68C557.517 42 557.037 42.08 556.557 42.08C555.757 42.16 555.037 42.08 554.557 41.36C554.237 41.04 554.157 40.48 554.077 40.16C553.997 39.84 553.917 39.2 553.917 38.88V31.64H545.397C544.757 31.56 544.197 31.48 543.717 31.4C543.157 31.24 542.677 30.92 542.357 30.36C542.117 29.96 541.917 29.44 541.917 28.96C542.037 28.48 542.197 28 542.597 27.68C542.757 27.44 542.997 27.28 543.317 27.2C543.637 27.12 543.877 27.04 544.197 26.96C544.437 26.96 544.677 26.88 544.917 26.88H561.877V18.84C561.797 18.44 561.877 18.2 561.877 17.88C561.797 17.4 561.877 16.92 561.717 16.52C561.637 16.36 561.557 16.2 561.397 16.12C561.237 16.04 561.077 16.04 560.837 16.04C560.037 15.96 559.157 16.04 558.237 16.04H547.797C547.317 16.04 546.837 15.96 546.197 15.8C545.637 15.64 545.237 15.32 544.917 14.84C544.837 14.68 544.677 14.44 544.677 14.08C544.597 13.84 544.597 13.52 544.597 13.2C544.677 12.64 544.837 12.08 545.237 11.68C545.557 11.44 545.957 11.28 546.357 11.12C546.757 10.96 547.157 10.88 547.637 10.88C548.037 10.8 548.517 10.8 548.917 10.8H559.477C560.277 10.88 561.157 10.8 561.957 10.8C562.357 10.8 562.837 10.8 563.317 10.88C563.797 10.88 564.277 10.96 564.757 11.12C565.237 11.2 565.637 11.44 565.957 11.68C566.357 12 566.597 12.4 566.757 12.88C566.877 13.2 566.957 13.44 566.957 13.68C567.037 13.92 567.117 14.28 567.117 14.52C567.197 15.24 567.197 15.88 567.197 16.6V19.8C567.277 20.2 567.197 21 567.197 21.48V26.88H568.837C569.317 26.96 569.717 27.04 570.117 27.12C570.597 27.28 570.917 27.52 571.157 27.84C571.477 28.16 571.637 28.56 571.637 29.2C571.637 29.88 571.557 30.28 570.997 30.76C570.677 31.08 570.117 31.24 569.557 31.4C568.917 31.56 567.437 31.64 566.757 31.64H559.317V37.64C559.237 38.32 559.237 38.88 559.157 39.2C559.157 39.68 558.997 40.16 558.837 40.64ZM582.805 10.76L596.965 10.72C598.885 10.72 601.285 11.16 601.285 12.96C601.285 15.6 599.045 15.6 597.245 15.48C595.485 15.4 594.125 15.44 592.045 15.52L592.085 16.6C592.085 17.04 592.045 17.68 592.125 18.12C592.285 18.72 592.805 19.12 593.205 19.56C594.765 21.24 597.085 23.04 598.765 24.72C599.765 25.76 601.285 27.16 600.725 28.64C599.965 30.6 597.405 29.92 596.125 29.04C593.005 26.84 591.445 25.28 589.285 23.24C589.165 23.16 586.845 25.04 585.885 25.8C585.045 26.44 583.045 27.96 581.405 28.96C579.765 30 578.005 30.6 576.885 29.04C575.525 26.92 577.565 25.6 579.005 24.44C581.165 22.72 583.485 20.92 585.285 19.16C586.005 18.44 586.045 18.08 586.045 17.2V15.44H580.045C580.045 15.44 576.525 15.88 576.325 13.44C576.205 12.24 577.485 10.92 579.245 10.8C579.605 10.76 578.885 10.76 582.805 10.76ZM600.685 34.52C600.845 34.56 601.005 34.52 601.165 34.52C602.045 34.6 602.845 34.8 603.565 35.44C603.925 35.8 604.125 36.28 604.125 36.84C604.125 37.4 603.925 38.2 603.605 38.56C602.765 39.4 600.805 39.32 600.725 39.32H578.325C578.085 39.32 577.805 39.36 577.525 39.36C576.405 39.4 574.965 39.48 574.085 38.72C573.565 38.24 573.245 37.64 573.245 37C573.245 36.2 573.765 35.2 574.565 34.88C575.645 34.48 576.805 34.56 577.965 34.52H578.165C580.725 34.48 583.365 34.48 586.005 34.52L585.965 30.32C585.965 30.32 585.965 28.96 587.045 28.2C588.405 27.2 591.125 27.88 591.125 29.84L591.165 34.52C593.685 34.48 595.485 34.48 597.965 34.52C598.925 34.56 599.845 34.44 600.685 34.52Z" fill="#475783"/>
</svg>
