<svg width="22" height="34" viewBox="0 0 22 34" fill="none" xmlns="http://www.w3.org/2000/svg">
<path d="M4.96 33.24C3.44 33.24 2.22667 32.84 1.32 32.04C0.44 31.2133 2.98023e-08 30.04 2.98023e-08 28.52V28.08C2.98023e-08 26.7467 0.08 25.5733 0.24 24.56C0.4 23.52 0.666667 22.6 1.04 21.8C1.44 20.9733 1.96 20.2267 2.6 19.56C3.24 18.8933 4.02667 18.24 4.96 17.6L11.24 13.44C11.88 13.0133 12.3067 12.5467 12.52 12.04C12.76 11.5333 12.88 11.04 12.88 10.56C12.88 9.89333 12.6133 9.33333 12.08 8.88C11.5733 8.4 10.8667 8.16 9.96 8.16C9.34667 8.16 8.8 8.29333 8.32 8.56C7.86667 8.8 7.41333 9.10667 6.96 9.48C6.74667 9.66667 6.48 9.86667 6.16 10.08C5.86667 10.2933 5.53333 10.4533 5.16 10.56C4.54667 10.72 3.88 10.7733 3.16 10.72C2.44 10.6667 1.78667 10.4 1.2 9.92C0.48 9.33333 0.0933335 8.57333 0.0400001 7.64C0.0133334 6.70667 0.253333 5.86667 0.76 5.12C1.24 4.37333 1.84 3.73333 2.56 3.2C3.30667 2.66666 4.09333 2.22666 4.92 1.88C5.77333 1.53333 6.64 1.28 7.52 1.12C8.42667 0.959998 9.30667 0.879999 10.16 0.879999C11.68 0.879999 13.0933 1.08 14.4 1.48C15.7333 1.85333 16.88 2.41333 17.84 3.16C18.8267 3.90666 19.6 4.81333 20.16 5.88C20.7467 6.94667 21.04 8.17333 21.04 9.56C21.04 11.72 20.6533 13.52 19.88 14.96C19.1333 16.3733 17.9333 17.6133 16.28 18.68L11.32 21.84C10.3067 22.5067 9.57333 23.0933 9.12 23.6C8.66667 24.08 8.44 24.6933 8.44 25.44V25.72C8.44 26.12 8.64 26.32 9.04 26.32H21.36V33.24H4.96Z" fill="#421D1B"/>
</svg>
