<svg width="710" height="72" viewBox="0 0 710 72" fill="none" xmlns="http://www.w3.org/2000/svg">
<line x1="1.5" y1="70.5" x2="663.5" y2="70.5" stroke="#B3C961" stroke-width="3" stroke-linecap="round"/>
<path d="M677.76 44.16C678.933 44.16 679.987 44.4533 680.92 45.04C681.853 45.6 682.6 46.3467 683.16 47.28C683.72 48.2133 684 49.2667 684 50.44C684 51.5867 683.72 52.64 683.16 53.6C682.6 54.5333 681.853 55.28 680.92 55.84C679.987 56.4 678.933 56.68 677.76 56.68C676.613 56.68 675.56 56.4 674.6 55.84C673.667 55.28 672.907 54.5333 672.32 53.6C671.76 52.64 671.48 51.5867 671.48 50.44C671.48 49.2667 671.76 48.2133 672.32 47.28C672.907 46.3467 673.667 45.6 674.6 45.04C675.56 44.4533 676.613 44.16 677.76 44.16ZM677.76 54.28C678.827 54.28 679.733 53.9067 680.48 53.16C681.227 52.4133 681.6 51.5067 681.6 50.44C681.6 49.72 681.427 49.08 681.08 48.52C680.76 47.9333 680.307 47.4667 679.72 47.12C679.133 46.7733 678.48 46.6 677.76 46.6C677.067 46.6 676.427 46.7733 675.84 47.12C675.253 47.4667 674.787 47.9333 674.44 48.52C674.093 49.08 673.92 49.72 673.92 50.44C673.92 51.1333 674.093 51.7867 674.44 52.4C674.787 52.9867 675.253 53.4533 675.84 53.8C676.427 54.12 677.067 54.28 677.76 54.28Z" fill="#1E1E1E"/>
</svg>
