<svg width="406" height="54" viewBox="0 0 406 54" fill="none" xmlns="http://www.w3.org/2000/svg">
<mask id="path-1-inside-1_1388_109834" fill="white">
<path d="M406 54H19.7051L0 35.8047V17.6084L19.7051 0H406V54ZM9.7002 22.6104C7.63961 22.6104 5.96875 24.3558 5.96875 26.5088C5.96882 28.6617 7.63965 30.4072 9.7002 30.4072C11.7605 30.407 13.4306 28.6616 13.4307 26.5088C13.4307 24.356 11.7606 22.6106 9.7002 22.6104Z"/>
</mask>
<path d="M406 54H19.7051L0 35.8047V17.6084L19.7051 0H406V54ZM9.7002 22.6104C7.63961 22.6104 5.96875 24.3558 5.96875 26.5088C5.96882 28.6617 7.63965 30.4072 9.7002 30.4072C11.7605 30.407 13.4306 28.6616 13.4307 26.5088C13.4307 24.356 11.7606 22.6106 9.7002 22.6104Z" fill="#ECC8C1"/>
<path d="M406 54V55H407V54H406ZM19.7051 54L19.0267 54.7347L19.314 55H19.7051V54ZM0 35.8047H-1V36.2424L-0.678401 36.5394L0 35.8047ZM0 17.6084L-0.666323 16.8627L-1 17.1609V17.6084H0ZM19.7051 0V-1H19.3234L19.0388 -0.745664L19.7051 0ZM406 0H407V-1H406V0ZM9.7002 22.6104L9.70031 21.6104H9.7002V22.6104ZM5.96875 26.5088H4.96875V26.5088L5.96875 26.5088ZM9.7002 30.4072V31.4072H9.70031L9.7002 30.4072ZM13.4307 26.5088L14.4307 26.5088V26.5088H13.4307ZM406 54V53H19.7051V54V55H406V54ZM19.7051 54L20.3835 53.2653L0.678401 35.07L0 35.8047L-0.678401 36.5394L19.0267 54.7347L19.7051 54ZM0 35.8047H1V17.6084H0H-1V35.8047H0ZM0 17.6084L0.666323 18.3541L20.3714 0.745664L19.7051 0L19.0388 -0.745664L-0.666323 16.8627L0 17.6084ZM19.7051 0V1H406V0V-1H19.7051V0ZM406 0H405V54H406H407V0H406ZM9.7002 22.6104V21.6104C7.04655 21.6104 4.96875 23.8452 4.96875 26.5088H5.96875H6.96875C6.96875 24.8664 8.23268 23.6104 9.7002 23.6104V22.6104ZM5.96875 26.5088L4.96875 26.5088C4.96883 29.1723 7.04656 31.4072 9.7002 31.4072V30.4072V29.4072C8.23275 29.4072 6.9688 28.1511 6.96875 26.5088L5.96875 26.5088ZM9.7002 30.4072L9.70031 31.4072C12.3539 31.4069 14.4306 29.1719 14.4307 26.5088L13.4307 26.5088L12.4307 26.5088C12.4306 28.1512 11.1672 29.4071 9.70008 29.4072L9.7002 30.4072ZM13.4307 26.5088H14.4307C14.4307 23.8456 12.3539 21.6107 9.70031 21.6104L9.7002 22.6104L9.70008 23.6104C11.1673 23.6105 12.4307 24.8663 12.4307 26.5088H13.4307Z" fill="#DA9186" mask="url(#path-1-inside-1_1388_109834)"/>
<path d="M57.68 7.56V16.8H62.56V21.2H57.68V34.04H52.64V7.56H57.68ZM39.6 31.96V40.04H58.56V44.36H34.52V31.96H39.6ZM29.68 28.08V9.84H47.08V14.2H34.68V23.76C40.28 23.76 44.44 23.68 49.6 23.12L50.04 27.36C45.2 28 39.96 28.08 29.68 28.08ZM62.5741 35.8H74.2941V22.84H79.3341V35.8H96.6541V40.08H62.5741V35.8ZM90.6141 31.88L85.6141 31.28C86.5741 26.44 86.8941 22.08 86.8941 17.4V15.08H66.6541V10.72H91.9341V16.08C91.9341 22.28 91.5341 27.28 90.6141 31.88ZM126.788 28.08H116.548V35.8H131.068V40.08H96.9881V35.8H111.508V28.08H101.268V10.36H106.348V23.8H126.788V28.08ZM150.122 38.4H150.082C149.802 39.16 148.242 40.12 146.162 41.24C143.602 42.6 140.322 44.2 138.082 45.16L135.962 41.08C138.722 39.92 142.322 38.28 144.602 37C146.482 36 147.402 34.64 147.402 32.48V29.76H152.522V32.48C152.522 34.6 153.322 35.88 155.322 37C157.522 38.24 161.162 39.92 163.922 41.12L161.882 45.04C159.642 44.04 156.362 42.48 153.802 41.12C151.722 40 150.402 39.12 150.122 38.4ZM149.762 25.04L146.802 28.24C145.562 27.2 143.882 25.68 142.842 24.72C141.642 23.6 140.962 22.88 140.722 22.28H140.682C140.442 22.96 139.842 23.68 138.722 24.84C137.682 25.92 135.842 27.72 133.842 29.52L130.602 26.2C132.282 24.72 134.002 23.08 135.602 21.4C137.562 19.32 138.042 17.68 138.042 15.04V9.44H143.002V14.8C143.002 17.44 143.362 19 145.322 20.96C146.722 22.36 148.202 23.72 149.762 25.04ZM158.282 31.48V7.56H163.082V31.48H158.282ZM155.842 8.04V27.84H151.082V19.24H146.682V14.88H151.082V8.04H155.842ZM169.576 18.48L190.056 18.24C190.096 17.64 190.096 17 190.096 16.4V13.88H170.136V9.6H195.096V15.48C195.096 18.92 194.816 23.24 194.096 27.2H199.896V31.48H185.376V44.76H180.296V31.48H165.816V27.2H189.096C189.456 25.56 189.696 24 189.816 22.48L169.696 22.76L169.576 18.48ZM209.11 35.72C203.47 35.72 200.83 31.92 200.83 25.2V20.88C200.83 14.16 203.47 10.36 209.11 10.36C214.71 10.36 217.35 14.16 217.39 20.84H220.35V8.32H225.15V42.96H220.35V25.2H217.39C217.39 31.92 214.75 35.72 209.11 35.72ZM232.67 7.56V44.76H227.87V7.56H232.67ZM209.11 14.76C206.35 14.76 205.47 17.08 205.47 21.44V24.64C205.47 29 206.35 31.32 209.11 31.32C211.87 31.32 212.75 29 212.75 24.64V21.44C212.75 17.08 211.87 14.76 209.11 14.76ZM270.484 29.24V20.16H263.764V26.8H246.204V9.56H263.764V15.92H270.484V7.56H275.524V29.24H270.484ZM250.884 35.2V30.92H275.524V45.2H270.484V35.2H250.884ZM258.764 22.6V13.76H251.204V22.6H258.764ZM288.898 33.08V40.08H309.058V44.36H283.858V33.08H288.898ZM279.058 26.12H313.138V30.4H279.058V26.12ZM283.858 8.84H288.898V18.24H308.258V22.52H283.858V8.84ZM328.233 44.76V31.72H352.793V44.76H328.233ZM333.233 35.76V40.72H347.793V35.76H333.233ZM323.473 24.96H357.553V29.04H323.473V24.96ZM340.513 22.84C333.353 22.84 328.312 20.4 328.312 15.88V14.92C328.312 10.4 333.353 7.96 340.513 7.96C347.673 7.96 352.713 10.4 352.713 14.92V15.88C352.713 20.4 347.673 22.84 340.513 22.84ZM340.513 12C336.433 12 333.312 13.28 333.312 15.08V15.72C333.312 17.52 336.433 18.8 340.513 18.8C344.593 18.8 347.713 17.52 347.713 15.72V15.08C347.713 13.28 344.593 12 340.513 12ZM364.167 35.24V30.96H388.807V45.2H383.767V35.24H364.167ZM388.807 7.56V29.28H383.767V7.56H388.807ZM369.647 21.12H369.607C369.447 21.8 368.367 22.84 367.167 23.96C365.367 25.64 363.647 27.12 361.167 29.12L358.047 25.44C360.127 23.84 362.367 21.88 364.207 20.12C366.127 18.28 366.887 16.6 366.887 13.88V8.96H372.007V13.68C372.007 16.6 372.527 17.92 374.607 19.72C376.527 21.36 378.567 22.92 380.487 24.28L377.567 27.8C376.007 26.68 374.207 25.28 372.327 23.76C370.927 22.64 369.887 21.8 369.647 21.12Z" fill="#1E1E1E"/>
</svg>
