<svg width="824" height="200" viewBox="0 0 824 200" fill="none" xmlns="http://www.w3.org/2000/svg">
<path d="M0 20C0 8.95431 8.95431 0 20 0H92C103.046 0 112 8.95431 112 20V180C112 191.046 103.046 200 92 200H20C8.9543 200 0 191.046 0 180V20Z" fill="#FFF096"/>
<path d="M139.306 0H76.8301V39.1734H139.306V0Z" fill="#FFF096"/>
<path d="M113 30C113 13.9837 125.984 1 142 1H804C814.493 1 823 9.50659 823 20V180C823 190.493 814.493 199 804 199H132C121.507 199 113 190.493 113 180V30Z" fill="white" stroke="#FFF096" stroke-width="2"/>
<rect opacity="0.5" x="664" y="117" width="64" height="392" rx="10" transform="rotate(90 664 117)" fill="#FFF096"/>
</svg>
