<svg width="60" height="60" viewBox="0 0 60 60" fill="none" xmlns="http://www.w3.org/2000/svg">
<g clip-path="url(#clip0_1485_4661)">
<path d="M29.9958 60C46.5641 60 59.9915 46.5726 59.9915 30.0042C59.9915 13.4359 46.5641 0 29.9958 0C13.4274 0 0 13.4274 0 29.9958C0 46.5641 13.4274 59.9915 29.9958 59.9915" fill="#E29D96"/>
<g filter="url(#filter0_d_1485_4661)">
<path d="M8.00817 25.9164C8.00817 25.665 8.08983 25.431 8.26133 25.2056C8.43284 24.9802 8.69417 24.8675 9.05351 24.8675H9.20867C9.65784 24.8675 9.91101 24.7721 9.99268 24.5814C10.0662 24.3907 10.107 24.148 10.107 23.8532V22.5703C10.107 21.8248 10.45 21.452 11.1279 21.452C11.4872 21.452 11.7567 21.556 11.9282 21.7728C12.0997 21.9895 12.1814 22.2495 12.1814 22.5703V23.9226C12.1814 24.2173 12.214 24.4427 12.2794 24.6161C12.3447 24.7808 12.5325 24.8675 12.851 24.8675H13.0389C13.3574 24.8415 13.5452 24.7635 13.5942 24.6334C13.6432 24.4947 13.6759 24.304 13.6759 24.0613V22.5703C13.6759 21.8248 14.0189 21.452 14.6967 21.452C15.056 21.452 15.3255 21.556 15.4889 21.7728C15.6604 21.9895 15.742 22.2495 15.742 22.5703V23.7492C15.742 24.0613 15.7829 24.3214 15.8727 24.5294C15.9544 24.7288 16.183 24.8415 16.5424 24.8675H18.2656C18.6249 24.8675 18.8944 24.9802 19.0577 25.2056C19.2292 25.431 19.3109 25.665 19.3109 25.9164C19.3109 26.2111 19.2129 26.4625 19.0251 26.6793C18.8372 26.896 18.5759 27 18.2574 27H9.05351C8.735 27 8.48184 26.896 8.28583 26.6793C8.098 26.4625 8 26.2111 8 25.9164H8.00817ZM17.6939 21.1486C17.6939 21.4867 17.5877 21.7641 17.3754 21.9808C17.1631 22.1975 16.9017 22.3015 16.5832 22.3015C16.2892 22.3015 16.036 22.1975 15.8319 21.9808C15.6277 21.7641 15.5297 21.4867 15.5297 21.1486V17.9325C15.5297 17.5251 15.4317 17.1523 15.2439 16.7969C15.056 16.4502 14.6804 16.2768 14.125 16.2768H10.6215C10.303 16.2768 10.0417 16.1814 9.83751 15.9907C9.63334 15.8 9.53534 15.5486 9.53534 15.2279C9.53534 14.9071 9.63334 14.6557 9.83751 14.4477C10.0417 14.2483 10.303 14.1443 10.6215 14.1443H15.9054C16.3954 14.1443 16.8119 14.3003 17.1631 14.6211C17.5142 14.9331 17.6857 15.4012 17.6857 16.008V21.1486H17.6939ZM25.5584 23.4458C25.5584 23.7579 25.6074 24.0353 25.7054 24.278C25.8034 24.5121 26.0648 24.6334 26.4894 24.6334H29.8051C30.1645 24.6334 30.4258 24.7461 30.5891 24.9715C30.7443 25.1969 30.826 25.431 30.826 25.6824C30.826 25.9771 30.7361 26.2285 30.5565 26.4452C30.3768 26.6619 30.1236 26.7659 29.8051 26.7659H21.0177C20.6992 26.7659 20.4461 26.6619 20.2501 26.4452C20.0622 26.2285 19.9642 25.9771 19.9642 25.6824C19.9642 25.431 20.0459 25.1969 20.2174 24.9715C20.3889 24.7461 20.6502 24.6334 21.0096 24.6334H22.4714C22.9206 24.6334 23.1901 24.5121 23.2799 24.278C23.3779 24.044 23.4269 23.7666 23.4269 23.4458V21.8941C23.4269 21.1486 23.7781 20.7759 24.4804 20.7759C24.8398 20.7759 25.1093 20.8799 25.2889 21.0966C25.4686 21.3133 25.5584 21.5734 25.5584 21.8941V23.4458ZM29.6091 21.1486C29.6091 21.4867 29.503 21.7641 29.2906 21.9808C29.0783 22.1975 28.817 22.3015 28.4984 22.3015C28.2044 22.3015 27.9513 22.1975 27.7471 21.9808C27.5429 21.7641 27.4449 21.4867 27.4449 21.1486V17.9325C27.4449 17.5251 27.3469 17.1523 27.1591 16.7969C26.9713 16.4502 26.5956 16.2768 26.0484 16.2768H22.5449C22.2264 16.2768 21.9651 16.1814 21.7609 15.9907C21.5567 15.8 21.4587 15.5486 21.4587 15.2279C21.4587 14.9071 21.5567 14.6557 21.7609 14.4477C21.9651 14.2483 22.2264 14.1443 22.5449 14.1443H27.8288C28.3188 14.1443 28.7353 14.3003 29.0865 14.6211C29.4376 14.9331 29.6091 15.4012 29.6091 16.008V21.1486ZM31.806 14.1183C31.806 13.7802 31.904 13.5115 32.1081 13.3034C32.3123 13.104 32.5736 13 32.8921 13C33.3821 13.026 33.6761 13.182 33.7823 13.4941C33.8885 13.7975 33.9375 14.0056 33.9375 14.1183V16.0774C33.9375 16.3721 33.9865 16.6322 34.0845 16.8576C34.1825 17.083 34.452 17.1957 34.893 17.1957H35.9792C36.3385 17.1957 36.5998 17.3084 36.7632 17.5337C36.9183 17.7591 37 17.9932 37 18.2446C37 18.9207 36.657 19.2588 35.9792 19.2588H34.893C34.4928 19.2588 34.2315 19.3542 34.109 19.5449C33.9946 19.7356 33.9375 19.987 33.9375 20.3077V23.6539C33.9375 23.9659 33.8395 24.2433 33.6353 24.4687C33.4311 24.6941 33.1861 24.8068 32.884 24.8068C32.5818 24.8068 32.3286 24.6941 32.1163 24.4687C31.904 24.2433 31.7978 23.9746 31.7978 23.6539V14.1183H31.806Z" fill="#FFFCD3"/>
</g>
<g filter="url(#filter1_d_1485_4661)">
<path d="M12 34.393C12 33.6214 12.1914 32.9382 12.5826 32.3596C12.9737 31.7728 13.4897 31.3147 14.1388 30.9772C14.7879 30.6396 15.487 30.4788 16.2443 30.4788C17.0016 30.4788 17.734 30.6476 18.3831 30.9772C19.0322 31.3147 19.5482 31.7728 19.9393 32.3596C20.3305 32.9463 20.5219 33.6214 20.5219 34.393C20.5219 35.1646 20.3305 35.8156 19.9393 36.4184C19.5482 37.0131 19.0322 37.4793 18.3831 37.8168C17.734 38.1544 17.0183 38.3151 16.2443 38.3151C15.4703 38.3151 14.7879 38.1464 14.1388 37.8168C13.4897 37.4793 12.9737 37.0212 12.5826 36.4184C12.1914 35.8236 12 35.1485 12 34.393ZM14.1471 34.393C14.1471 34.9797 14.3552 35.4539 14.7796 35.8156C15.204 36.1853 15.695 36.3621 16.2526 36.3621C16.8102 36.3621 17.3345 36.1772 17.7423 35.8156C18.1501 35.4539 18.3581 34.9717 18.3581 34.393C18.3581 33.8143 18.1501 33.308 17.7423 32.9543C17.3345 32.6007 16.8352 32.4239 16.2526 32.4239C15.6701 32.4239 15.1957 32.6007 14.7796 32.9543C14.3552 33.308 14.1471 33.7902 14.1471 34.393ZM17.1681 42.3257C17.1681 42.0364 17.2679 41.7872 17.476 41.5863C17.684 41.3854 17.9337 41.2889 18.2416 41.2889C18.5495 41.2889 18.7992 41.3854 19.0072 41.5863C19.2153 41.7872 19.3152 42.0283 19.3152 42.3257V44.552C19.3152 44.8896 19.4067 45.2191 19.5898 45.5406C19.7729 45.8621 20.1723 46.0228 20.7715 46.0228H24.7329C25.0325 46.0228 25.2905 46.1113 25.4985 46.2881C25.7066 46.4649 25.8064 46.698 25.8064 46.9953C25.8064 47.3088 25.7066 47.558 25.4985 47.7348C25.2905 47.9116 25.0408 48 24.7329 48H18.924C18.4497 48 18.0336 47.8473 17.6923 47.5419C17.3428 47.2365 17.1764 46.8025 17.1764 46.2398V42.3177L17.1681 42.3257ZM25.7981 40.003C25.7981 40.2923 25.6983 40.5495 25.4902 40.7585C25.2821 40.9674 25.0325 41.0719 24.7246 41.0719C24.4166 41.0719 24.1587 40.9674 23.9423 40.7585C23.7259 40.5495 23.6177 40.3003 23.6177 40.003V38.2187C23.6177 38.0338 23.5761 37.857 23.5012 37.7043C23.4263 37.5436 23.2183 37.4712 22.8687 37.4712H21.895C21.2043 37.4712 20.8548 37.1578 20.8548 36.5309C20.8548 36.2817 20.938 36.0647 21.0961 35.8718C21.2542 35.687 21.5205 35.5905 21.895 35.5905H22.8687C23.2183 35.5905 23.4263 35.5262 23.5012 35.3896C23.5761 35.253 23.6177 35.0922 23.6177 34.9074V34.2805C23.6177 34.0474 23.5761 33.8706 23.5012 33.7339C23.4263 33.5973 23.2183 33.533 22.8687 33.533H21.895C21.2043 33.533 20.8548 33.2195 20.8548 32.5926C20.8548 32.3435 20.938 32.1265 21.0961 31.9336C21.2542 31.7487 21.5205 31.6523 21.895 31.6523H22.8687C23.2349 31.6523 23.4513 31.5558 23.5179 31.371C23.5844 31.1861 23.6177 30.9611 23.6177 30.7119V30.0529C23.6177 29.9484 23.6843 29.7555 23.8091 29.4742C23.9423 29.1929 24.2419 29.0402 24.7162 29.0161C25.0408 29.0161 25.2988 29.1125 25.4985 29.2974C25.6899 29.4822 25.7898 29.7394 25.7898 30.0529V40.019L25.7981 40.003ZM34.7528 37.5918C34.7528 37.9052 34.6446 38.1624 34.4282 38.3634C34.2118 38.5643 33.9455 38.6607 33.6209 38.6607C33.3213 38.6607 33.0634 38.5643 32.8553 38.3634C32.6472 38.1624 32.5474 37.9052 32.5474 37.5918V34.61C32.5474 34.2322 32.4475 33.8866 32.2561 33.5571C32.0647 33.2356 31.6819 33.0749 31.116 33.0749H27.5458C27.2212 33.0749 26.9549 32.9865 26.7468 32.8096C26.5388 32.6328 26.4389 32.3997 26.4389 32.1024C26.4389 31.805 26.5388 31.5719 26.7468 31.379C26.9549 31.1942 27.2212 31.0977 27.5458 31.0977H32.9302C33.338 31.0977 33.7125 31.2022 34.0537 31.4112C34.3866 31.6201 34.603 31.9336 34.6862 32.3515C34.7278 32.1426 34.836 31.9738 34.9941 31.8371C35.1522 31.7005 35.4019 31.6362 35.7264 31.6362H36.5087C36.8749 31.6362 37.0996 31.5398 37.1911 31.3549C37.2744 31.1701 37.3243 30.945 37.3243 30.6959V30.0368C37.3243 29.9323 37.3909 29.7394 37.5157 29.4581C37.6405 29.1768 37.9485 29.0241 38.4228 29C38.7474 29 39.0054 29.0964 39.2051 29.2813C39.4048 29.4662 39.4964 29.7234 39.4964 30.0368V39.8503C39.4964 40.1396 39.3965 40.3968 39.1885 40.6058C38.9804 40.8147 38.7307 40.9192 38.4228 40.9192C38.1149 40.9192 37.8569 40.8147 37.6405 40.6058C37.4242 40.3968 37.316 40.1476 37.316 39.8503V38.2187C37.316 38.0338 37.2744 37.857 37.1828 37.7043C37.0996 37.5436 36.8666 37.4712 36.5004 37.4712H35.7181C35.2021 37.4712 34.8776 37.2944 34.7444 36.9408V37.5998L34.7528 37.5918ZM35.7264 33.5169C35.2105 33.5169 34.8859 33.3401 34.7528 32.9865V36.1531C34.8193 35.9843 34.9275 35.8477 35.0773 35.7432C35.2271 35.6387 35.4435 35.5825 35.7264 35.5825H36.5087C36.8749 35.5825 37.0996 35.5182 37.1911 35.3816C37.2744 35.2449 37.3243 35.0842 37.3243 34.8993V34.3367C37.3243 34.1036 37.2827 33.9107 37.1911 33.758C37.1079 33.5973 36.8749 33.525 36.5087 33.525H35.7264V33.5169ZM43 40.003C43 40.2923 42.9085 40.5495 42.7254 40.7585C42.5423 40.9674 42.2843 41.0719 41.9597 41.0719C41.6601 41.0719 41.4105 40.9674 41.2107 40.7585C41.0193 40.5495 40.9195 40.3003 40.9195 40.003V30.0368C40.9195 29.9323 40.9694 29.7394 41.0859 29.4581C41.1941 29.1768 41.4854 29.0241 41.9597 29C42.6505 29 43 29.3456 43 30.0368V40.003Z" fill="#FFFCD3"/>
</g>
<g filter="url(#filter2_d_1485_4661)">
<path d="M46.912 31.224C46.7733 31.096 46.704 30.904 46.704 30.648C46.7147 30.5307 46.736 30.4187 46.768 30.312C46.8 30.1947 46.8587 30.0933 46.944 30.008C47.1787 29.7947 47.4293 29.672 47.696 29.64C47.9627 29.608 48.2507 29.5813 48.56 29.56C48.8053 29.5493 49.024 29.5493 49.216 29.56C49.408 29.56 49.6267 29.56 49.872 29.56C50.2453 29.56 50.6507 29.5653 51.088 29.576C51.536 29.5867 51.9573 29.6027 52.352 29.624C52.512 29.6347 52.672 29.656 52.832 29.688C52.992 29.72 53.136 29.7787 53.264 29.864C53.392 29.9387 53.4933 30.04 53.568 30.168C53.6533 30.2853 53.7013 30.4347 53.712 30.616C53.7227 30.8293 53.6907 31.032 53.616 31.224C53.552 31.416 53.4613 31.6027 53.344 31.784C53.2267 31.9547 53.0933 32.12 52.944 32.28C52.8053 32.4293 52.672 32.568 52.544 32.696C52.3093 32.9413 52.0427 33.2027 51.744 33.48C51.4453 33.7573 51.1787 34.0187 50.944 34.264C51.36 34.3173 51.76 34.4133 52.144 34.552C52.5387 34.6907 52.8853 34.8827 53.184 35.128C53.4827 35.3733 53.7173 35.6827 53.888 36.056C54.0693 36.4187 54.16 36.856 54.16 37.368C54.16 37.88 54.0587 38.3547 53.856 38.792C53.664 39.2293 53.392 39.6133 53.04 39.944C52.688 40.264 52.272 40.5147 51.792 40.696C51.312 40.8773 50.784 40.968 50.208 40.968C49.9627 40.968 49.696 40.9467 49.408 40.904C49.1307 40.8613 48.8533 40.7973 48.576 40.712C48.2987 40.6267 48.032 40.52 47.776 40.392C47.5307 40.2533 47.3173 40.088 47.136 39.896C47.008 39.768 46.896 39.6187 46.8 39.448C46.7147 39.2667 46.6613 39.0853 46.64 38.904C46.6293 38.712 46.6667 38.5413 46.752 38.392C46.8373 38.232 46.9867 38.1147 47.2 38.04C47.36 37.9867 47.5147 37.9653 47.664 37.976C47.8133 37.9867 47.9573 38.024 48.096 38.088C48.2347 38.1413 48.368 38.2053 48.496 38.28C48.6347 38.3547 48.768 38.4293 48.896 38.504C49.2907 38.7493 49.7013 38.8933 50.128 38.936C50.5653 38.9787 50.992 38.8773 51.408 38.632C51.6427 38.4933 51.8133 38.3227 51.92 38.12C52.0267 37.9067 52.0693 37.6933 52.048 37.48C52.0373 37.2667 51.968 37.064 51.84 36.872C51.7227 36.68 51.5573 36.52 51.344 36.392C51.1413 36.2747 50.9173 36.1947 50.672 36.152C50.4267 36.1093 50.1813 36.0667 49.936 36.024C49.6907 35.9813 49.456 35.9227 49.232 35.848C49.008 35.7733 48.816 35.6453 48.656 35.464C48.4747 35.2613 48.416 35.0427 48.48 34.808C48.544 34.5733 48.6613 34.344 48.832 34.12C49.0133 33.896 49.2107 33.6827 49.424 33.48C49.648 33.2773 49.824 33.1067 49.952 32.968C50.0267 32.8933 50.112 32.8027 50.208 32.696C50.3147 32.5893 50.4107 32.4827 50.496 32.376C50.592 32.2693 50.672 32.168 50.736 32.072C50.8107 31.9653 50.8587 31.8693 50.88 31.784C50.912 31.6987 50.896 31.64 50.832 31.608C50.768 31.5653 50.688 31.544 50.592 31.544C50.496 31.5333 50.3893 31.5333 50.272 31.544C50.1653 31.544 50.08 31.544 50.016 31.544H48.944C48.7947 31.544 48.6293 31.5493 48.448 31.56C48.2667 31.56 48.08 31.5547 47.888 31.544C47.7067 31.5227 47.5253 31.4907 47.344 31.448C47.1733 31.4053 47.0293 31.3307 46.912 31.224Z" fill="#FFFCD3"/>
</g>
</g>
<defs>
<filter id="filter0_d_1485_4661" x="6" y="11" width="33" height="18" filterUnits="userSpaceOnUse" color-interpolation-filters="sRGB">
<feFlood flood-opacity="0" result="BackgroundImageFix"/>
<feColorMatrix in="SourceAlpha" type="matrix" values="0 0 0 0 0 0 0 0 0 0 0 0 0 0 0 0 0 0 127 0" result="hardAlpha"/>
<feOffset/>
<feGaussianBlur stdDeviation="1"/>
<feComposite in2="hardAlpha" operator="out"/>
<feColorMatrix type="matrix" values="0 0 0 0 0 0 0 0 0 0 0 0 0 0 0 0 0 0 0.25 0"/>
<feBlend mode="normal" in2="BackgroundImageFix" result="effect1_dropShadow_1485_4661"/>
<feBlend mode="normal" in="SourceGraphic" in2="effect1_dropShadow_1485_4661" result="shape"/>
</filter>
<filter id="filter1_d_1485_4661" x="10" y="27" width="35" height="23" filterUnits="userSpaceOnUse" color-interpolation-filters="sRGB">
<feFlood flood-opacity="0" result="BackgroundImageFix"/>
<feColorMatrix in="SourceAlpha" type="matrix" values="0 0 0 0 0 0 0 0 0 0 0 0 0 0 0 0 0 0 127 0" result="hardAlpha"/>
<feOffset/>
<feGaussianBlur stdDeviation="1"/>
<feComposite in2="hardAlpha" operator="out"/>
<feColorMatrix type="matrix" values="0 0 0 0 0 0 0 0 0 0 0 0 0 0 0 0 0 0 0.25 0"/>
<feBlend mode="normal" in2="BackgroundImageFix" result="effect1_dropShadow_1485_4661"/>
<feBlend mode="normal" in="SourceGraphic" in2="effect1_dropShadow_1485_4661" result="shape"/>
</filter>
<filter id="filter2_d_1485_4661" x="44.623" y="27.543" width="11.5371" height="15.4258" filterUnits="userSpaceOnUse" color-interpolation-filters="sRGB">
<feFlood flood-opacity="0" result="BackgroundImageFix"/>
<feColorMatrix in="SourceAlpha" type="matrix" values="0 0 0 0 0 0 0 0 0 0 0 0 0 0 0 0 0 0 127 0" result="hardAlpha"/>
<feOffset/>
<feGaussianBlur stdDeviation="1"/>
<feComposite in2="hardAlpha" operator="out"/>
<feColorMatrix type="matrix" values="0 0 0 0 0 0 0 0 0 0 0 0 0 0 0 0 0 0 0.25 0"/>
<feBlend mode="normal" in2="BackgroundImageFix" result="effect1_dropShadow_1485_4661"/>
<feBlend mode="normal" in="SourceGraphic" in2="effect1_dropShadow_1485_4661" result="shape"/>
</filter>
<clipPath id="clip0_1485_4661">
<rect width="60" height="60" fill="white"/>
</clipPath>
</defs>
</svg>
