<svg width="720" height="459" viewBox="0 0 720 459" fill="none" xmlns="http://www.w3.org/2000/svg">
<path d="M75.139 11.0977L10.8086 75.5182V448.209H615.657L679.987 383.788V11.0977H75.139Z" fill="white"/>
<mask id="mask0_594_2" style="mask-type:luminance" maskUnits="userSpaceOnUse" x="10" y="11" width="670" height="438">
<path d="M75.139 11.0957L10.8086 75.5162V448.239H615.657L679.987 383.786V11.0957H75.139Z" fill="white"/>
</mask>
<g mask="url(#mask0_594_2)">
<path d="M333.593 437.17C334.663 434.15 336.284 432.105 335.765 429.085C335.214 426.065 318.45 428.566 318.45 428.566C318.45 428.566 312.484 427.559 306.55 428.046C300.584 428.566 301.687 432.105 298.444 432.592C295.202 433.111 285.993 435.612 285.993 435.612L277.887 444.736C277.887 444.736 276.914 446.684 273.672 449.054H339.688C338.002 447.333 334.695 445.255 334.695 445.255C334.695 445.255 332.523 440.19 333.625 437.17" fill="#A5CCEC"/>
<path d="M676.647 16.2598H480.543C479.051 17.4287 477.138 18.4353 474.836 19.2145C467.248 21.7472 471.593 28.8257 473.766 30.8388C475.938 32.852 473.766 30.8388 481.353 30.3193C488.941 29.7998 485.666 40.937 485.666 40.937C485.666 40.937 490.011 47.0089 491.632 47.5284C493.253 48.0479 499.738 55.6134 501.359 56.6525C502.98 57.659 508.395 61.7178 512.708 64.2505C517.02 66.7831 515.95 65.257 526.78 72.3355C537.61 79.4139 531.092 77.4008 537.059 81.4271C543.025 85.4858 540.301 89.0251 540.852 92.0448C541.404 95.0645 548.44 98.6037 552.201 98.6037C555.962 98.6037 560.858 99.1232 564.101 99.1232C567.343 99.1232 564.652 107.208 565.722 112.793C566.792 118.378 563.031 125.456 563.031 125.456L556.546 135.587C556.546 135.587 553.855 140.652 552.752 142.666C551.65 144.679 559.788 145.198 559.788 145.198C559.788 145.198 564.101 143.185 565.203 141.659C566.273 140.133 575.482 142.666 577.103 144.192C578.724 145.718 579.794 154.322 579.794 154.322L582.485 160.394L579.243 170.005C579.243 170.005 585.177 179.097 585.177 181.63C585.177 184.162 584.107 191.76 579.762 196.306C575.417 200.852 568.413 205.43 568.413 205.43C568.413 205.43 571.656 209.976 574.898 218.58C578.141 227.185 570.553 218.58 563.55 220.106C556.513 221.633 561.928 232.77 561.928 232.77C561.928 232.77 558.686 240.368 554.341 244.914C549.996 249.459 560.307 261.603 560.307 261.603V278.812C560.307 278.812 552.201 284.365 549.477 286.41C546.786 288.423 543.544 294.495 541.922 298.554C540.301 302.613 539.231 303.619 539.231 303.619L530.023 305.632L531.644 318.783C531.644 318.783 525.678 324.335 520.814 324.335C515.95 324.335 522.986 327.387 521.365 327.387C519.744 327.387 512.708 334.466 510.535 335.472C508.363 336.479 502.429 348.136 502.429 348.136L499.187 353.688L487.838 360.28C487.838 360.28 480.802 359.273 471.593 358.266C462.385 357.26 467.281 361.806 467.281 366.871C467.281 371.936 452.657 371.936 452.657 371.936L449.415 379.015C449.415 379.015 439.688 383.073 436.964 382.554C434.24 382.034 430.998 371.417 427.236 370.41C423.443 369.404 427.788 381.547 427.788 383.56C427.788 385.574 427.788 387.1 422.373 389.145C416.958 391.158 417.509 395.217 418.06 399.276C418.612 403.335 412.094 404.341 412.094 404.341C412.094 404.341 410.473 404.341 402.367 408.887C394.261 413.433 394.261 412.946 388.295 414.472C382.328 415.998 382.88 419.537 377.465 422.557C372.05 425.577 361.22 426.616 357.978 425.577C354.735 424.57 355.286 431.162 355.286 431.162L353.665 437.753C353.665 437.753 353.017 441.032 350.779 449.15H676.679V16.2598H676.647Z" fill="#B3DBF5"/>
<path d="M256.234 427.566C256.234 427.566 252.991 422.014 251.37 423.02C249.749 424.027 249.198 425.033 247.576 424.027C245.955 423.02 239.47 420.487 241.091 418.961C242.713 417.435 254.094 415.422 248.679 411.883C243.264 408.344 249.23 408.344 243.264 408.344C237.298 408.344 232.985 413.929 232.985 413.929C232.985 413.929 225.949 408.344 225.949 405.843C225.949 403.343 231.364 395.713 224.879 397.758C218.394 399.772 208.116 406.363 208.116 406.363C208.116 406.363 197.286 406.883 195.113 406.363C192.941 405.844 191.871 412.954 192.422 416.494C192.973 420.033 187.007 424.092 183.765 422.566C180.522 421.039 173.486 420.033 173.486 420.033C173.486 420.033 160.938 426.884 156.398 425.65C155.782 426.137 154.453 426.754 151.827 427.631C140.997 431.17 135.063 427.631 135.063 427.631C135.063 427.631 133.442 418.02 127.476 426.624C121.542 435.229 112.333 440.294 112.333 440.294C112.333 440.294 107.956 446.399 104.584 449.158H273.678C276.921 446.821 277.893 444.84 277.893 444.84L286 435.748L264.891 434.742L256.234 427.663V427.566Z" fill="#F6E2A0"/>
<path d="M67.39 445.291C62.5263 434.673 51.6964 439.219 51.6964 439.219L46.2815 431.621C46.2815 431.621 58.7326 425.549 50.0752 422.497C41.4178 419.444 34.3817 424.023 36.0029 415.418C37.6242 406.814 39.7966 404.281 33.8305 403.761C27.8968 403.242 34.9005 399.735 24.1031 402.755C13.2733 405.775 18.137 405.287 9.47963 406.294C0.822258 407.301 -2.97141 404.768 0.822265 401.229C4.61594 397.69 9.47963 396.683 6.23717 393.631C2.99471 390.579 -1.86898 387.039 4.06472 378.467C9.99842 369.863 6.75597 362.784 10.5496 362.265C14.3433 361.778 18.137 359.245 23.0007 359.732C27.8644 360.252 24.0707 348.595 28.4156 349.114C32.728 349.601 46.2815 367.33 40.8666 349.114C35.4517 330.899 35.4517 329.373 35.4517 329.373L32.2093 326.353L31.1393 321.807L31.6905 314.209C31.6905 314.209 34.9329 309.663 25.7244 306.611C16.5158 303.559 14.3757 300.539 10.0308 297.487C5.75079 294.467 4.61594 291.48 -3.81445 287.486V449.057H69.9839C69.0436 448.115 68.1681 446.914 67.39 445.258" fill="#F6E2A0"/>
<path d="M609.821 345.021C609.821 345.021 615.917 345.801 615.723 346.547C615.528 347.294 614.296 350.931 615.107 350.931C615.917 350.931 619.581 350.346 619.776 349.6C619.97 348.853 620.586 342.554 620.586 342.554C620.586 342.554 616.501 339.112 616.306 337.034C616.112 334.923 615.885 331.709 616.922 329.403C617.927 327.13 622.824 321.221 622.824 321.221C622.824 321.221 624.25 315.506 623.245 310.571C622.208 305.603 616.922 302.583 619.387 299.726C621.818 296.868 622.24 294.953 622.24 294.953C622.24 294.953 619.387 289.238 619.387 288.296C619.387 287.355 621.008 282.192 621.008 282.192C621.008 282.192 622.856 278.945 622.629 277.062C622.434 275.146 621.397 273.068 621.397 273.068L617.311 268.295C617.311 268.295 622.402 261.443 617.311 261.249C612.221 261.054 612.61 259.723 611.41 262.385C610.178 265.048 609.562 265.632 606.936 265.827C604.277 266.022 603.888 262.775 602.266 267.743C600.645 272.711 598.602 277.841 597.597 282.224C596.592 286.608 594.549 287.16 594.744 290.407C594.938 293.654 596.56 288.491 593.317 299.174C590.075 309.824 590.464 314.792 590.464 314.792L593.706 319.37C593.706 319.37 590.237 323.948 593.09 327C595.944 330.053 595.944 332.91 596.754 333.657C597.565 334.404 601.229 336.709 602.655 337.651C604.082 338.592 605.703 341.06 605.703 341.06L606.709 342.196L608.33 344.274L609.756 345.021H609.821Z" fill="#F6E2A0"/>
<path d="M585.211 181.633C585.211 179.1 579.245 170.008 579.245 170.008L582.487 160.397L579.796 154.325C579.796 154.325 578.726 145.721 577.072 144.195C575.451 142.669 566.242 140.136 565.172 141.662C564.102 143.188 559.757 145.201 559.757 145.201C559.757 145.201 551.651 144.682 552.721 142.669C553.791 140.656 556.515 135.59 556.515 135.59L563 125.46C563 125.46 566.794 118.381 565.691 112.796C564.621 107.211 567.312 99.1264 564.07 99.1264C560.827 99.1264 555.964 98.6069 552.17 98.6069C548.376 98.6069 541.34 95.0677 540.821 92.0155C540.303 88.9633 542.994 85.424 537.028 81.3978C531.062 77.339 537.579 79.3846 526.749 72.3062C515.919 65.2277 517.022 66.7213 512.677 64.2211C508.364 61.6884 502.95 57.6297 501.328 56.6231C499.707 55.6166 493.222 48.0186 491.601 47.5316C489.98 47.0445 485.635 40.9401 485.635 40.9401C485.635 40.9401 488.877 29.8029 481.322 30.3224C473.767 30.8095 475.907 32.8551 473.767 30.8095C471.595 28.7964 467.282 21.7179 474.837 19.1852C477.14 18.4059 479.053 17.3994 480.544 16.2305H-3.81445V287.485C4.64837 291.479 5.7508 294.498 10.0633 297.518C14.3757 300.538 16.5482 303.59 25.7568 306.61C34.9653 309.629 31.6905 314.208 31.6905 314.208L31.1393 321.806L32.2093 326.351L35.4517 329.404C35.4517 329.404 35.4517 330.93 40.8666 349.145C46.2815 367.361 32.7605 349.632 28.4156 349.145C24.0707 348.626 27.8644 360.283 23.0007 359.763C18.137 359.276 14.3433 361.776 10.5496 362.296C6.75597 362.815 9.99843 369.894 4.06472 378.498C-1.9014 387.103 2.99471 390.642 6.23717 393.662C9.47963 396.682 4.61594 397.721 0.822265 401.26C-2.97141 404.799 0.822259 407.332 9.47963 406.325C18.137 405.319 13.2733 405.806 24.0707 402.786C34.9005 399.766 27.8644 403.305 33.7981 403.792C39.7642 404.279 37.5917 406.812 35.9705 415.417C34.3493 424.021 41.3854 419.475 50.0428 422.495C58.7002 425.547 46.2491 431.619 46.2491 431.619L51.664 439.217C51.664 439.217 62.4938 434.671 67.3575 445.289C68.1357 446.945 69.0112 448.146 69.9515 449.088H104.516C107.888 446.328 112.266 440.224 112.266 440.224C112.266 440.224 121.474 435.158 127.408 426.554C133.374 417.949 134.995 427.56 134.995 427.56C134.995 427.56 140.961 431.1 151.759 427.56C153.607 426.944 154.774 426.456 155.552 426.067C156.039 426.067 156.558 426.067 156.947 425.807C156.979 425.807 157.012 425.71 157.076 425.677C162.07 426.132 173.418 419.963 173.418 419.963C173.418 419.963 180.455 420.969 183.697 422.495C186.939 424.021 192.906 419.962 192.354 416.423C191.803 412.884 192.906 405.806 195.046 406.293C197.218 406.78 208.048 406.293 208.048 406.293C208.048 406.293 218.326 399.701 224.811 397.688C231.296 395.675 225.881 403.24 225.881 405.773C225.881 408.306 232.918 413.858 232.918 413.858C232.918 413.858 237.23 408.306 243.196 408.306C249.162 408.306 243.196 408.306 248.611 411.845C254.026 415.384 242.645 417.397 241.024 418.923C239.402 420.45 245.887 422.982 247.509 423.989C249.13 424.995 249.681 423.989 251.302 422.982C252.923 421.976 256.166 427.528 256.166 427.528L264.823 434.606L285.932 435.613C285.932 435.613 295.14 433.08 298.383 432.561C301.625 432.074 300.555 428.502 306.489 428.015C312.455 427.496 318.389 428.535 318.389 428.535C318.389 428.535 335.152 426.002 335.703 429.054C336.255 432.106 334.633 434.119 333.531 437.139C332.461 440.191 334.601 445.224 334.601 445.224C334.601 445.224 337.908 447.302 339.594 449.023H350.651C352.889 440.938 353.537 437.626 353.537 437.626L355.158 431.035C355.158 431.035 354.607 424.443 357.849 425.482C361.092 426.489 371.922 425.482 377.337 422.43C382.752 419.411 382.2 415.839 388.166 414.345C394.133 412.819 394.133 413.339 402.239 408.76C410.345 404.215 411.966 404.215 411.966 404.215C411.966 404.215 418.451 403.208 417.9 399.149C417.349 395.123 416.83 391.064 422.245 389.019C427.66 387.005 427.66 385.479 427.66 383.466C427.66 381.453 423.347 369.309 427.108 370.316C430.902 371.322 434.145 381.94 436.836 382.46C439.559 382.947 449.287 378.92 449.287 378.92L452.529 371.842C452.529 371.842 467.153 371.842 467.153 366.777C467.153 361.711 462.289 357.165 471.498 358.172C480.706 359.179 487.742 360.185 487.742 360.185L499.091 353.594L502.334 348.041C502.334 348.041 508.3 336.417 510.44 335.378C512.612 334.372 519.648 327.293 521.269 327.293C522.891 327.293 515.855 324.241 520.718 324.241C525.582 324.241 531.548 318.689 531.548 318.689L529.927 305.538L539.135 303.525C539.135 303.525 540.205 302.518 541.827 298.46C543.448 294.401 546.69 288.329 549.414 286.316C552.105 284.303 560.244 278.718 560.244 278.718V261.509C560.244 261.509 549.965 249.365 554.278 244.819C558.623 240.274 561.865 232.676 561.865 232.676C561.865 232.676 556.45 221.538 563.486 220.012C570.522 218.486 578.11 227.091 574.835 218.486C571.592 209.882 568.35 205.336 568.35 205.336C568.35 205.336 575.386 200.79 579.699 196.244C584.043 191.698 585.113 184.1 585.113 181.568" fill="#F6E2A0"/>
<path d="M564.553 107.955C564.553 113.021 560.468 117.112 555.409 117.112C550.351 117.112 546.266 113.021 546.266 107.955C546.266 102.89 550.351 98.7988 555.409 98.7988C560.468 98.7988 564.553 102.89 564.553 107.955Z" fill="#E9450A"/>
<path d="M513.522 104.024C513.522 109.089 509.436 113.18 504.378 113.18C499.32 113.18 495.234 109.089 495.234 104.024C495.234 98.9584 499.32 94.8672 504.378 94.8672C509.436 94.8672 513.522 98.9584 513.522 104.024Z" fill="#F49E00"/>
<path d="M416.477 233.164C416.477 238.23 412.391 242.321 407.333 242.321C402.275 242.321 398.189 238.23 398.189 233.164C398.189 228.099 402.275 224.008 407.333 224.008C412.391 224.008 416.477 228.099 416.477 233.164Z" fill="#F49E00"/>
<path d="M432.002 363.133C432.002 368.198 427.917 372.29 422.859 372.29C417.8 372.29 413.715 368.198 413.715 363.133C413.715 358.068 417.8 353.977 422.859 353.977C427.917 353.977 432.002 358.068 432.002 363.133Z" fill="#F49E00"/>
<path d="M349.323 339.108C349.323 344.173 345.237 348.264 340.179 348.264C335.121 348.264 331.035 344.173 331.035 339.108C331.035 334.042 335.121 329.951 340.179 329.951C345.237 329.951 349.323 334.042 349.323 339.108Z" fill="#F49E00"/>
<path d="M269.621 231.149C269.621 236.214 265.536 240.305 260.478 240.305C255.42 240.305 251.334 236.214 251.334 231.149C251.334 226.083 255.42 221.992 260.478 221.992C265.536 221.992 269.621 226.083 269.621 231.149Z" fill="#F49E00"/>
<path d="M263.753 179.261C263.753 186.502 257.917 192.347 250.686 192.347C243.456 192.347 237.619 186.502 237.619 179.261C237.619 172.02 243.488 166.176 250.686 166.176C257.885 166.176 263.753 172.02 263.753 179.261Z" fill="#E9450A"/>
<path d="M539.235 128.676L547.989 133.416L538.586 140.365L539.235 128.676Z" fill="#868687"/>
<path d="M417.933 208.904L427.11 215.95L415.08 222.185L417.933 208.904Z" fill="#868687"/>
<path d="M414.234 338.371L425.745 337.17L421.238 349.996L414.234 338.371Z" fill="#868687"/>
<path d="M366.021 340.701L362.779 351.806L352.598 342.812L366.021 340.701Z" fill="#868687"/>
<path d="M276.82 249.426L267.319 256.018L265.082 242.607L276.82 249.426Z" fill="#868687"/>
<path d="M259.541 205.756L248.225 208.029L251.467 194.846L259.541 205.756Z" fill="#868687"/>
<path d="M518.837 119.779L511.574 123.74L510.99 113.967L518.837 119.779Z" fill="#868687"/>
<path d="M551.163 118.188L541.857 133.741" stroke="#868687" stroke-width="1.40163" stroke-miterlimit="10"/>
<path d="M513.746 119.479L529.764 143.669" stroke="#868687" stroke-width="1.40163" stroke-miterlimit="10"/>
<path d="M419.812 215.018L496.237 114.588" stroke="#868687" stroke-width="1.40163" stroke-miterlimit="10"/>
<path d="M419.876 340.859L406.258 253.32" stroke="#868687" stroke-width="1.40163" stroke-miterlimit="10"/>
<path d="M361.938 346.262L408.629 358.99" stroke="#868687" stroke-width="1.40163" stroke-miterlimit="10"/>
<path d="M269.072 248.686L329.382 327.88" stroke="#868687" stroke-width="1.40163" stroke-miterlimit="10"/>
<path d="M252.502 201.67L255.777 220.632" stroke="#868687" stroke-width="1.40163" stroke-miterlimit="10"/>
<path d="M542.832 151.143C542.832 156.208 538.747 160.299 533.689 160.299C528.63 160.299 524.545 156.208 524.545 151.143C524.545 146.078 528.63 141.986 533.689 141.986C538.747 141.986 542.832 146.078 542.832 151.143Z" fill="#F49E00"/>
</g>
<g filter="url(#filter0_d_594_2)">
<path d="M10.8086 75.5213L75.139 11.0684H679.987V383.792L615.657 448.212H10.8086V75.5213Z" stroke="white" stroke-width="4.93533" shape-rendering="crispEdges"/>
</g>
<path d="M50.0507 208.721H53.2328V212.621H50.0507V208.721ZM41.629 207.668H61.6545V210.18H41.629V207.668ZM51.6059 211.759C56.3909 211.759 59.2859 213.195 59.2859 215.755C59.2859 218.315 56.3909 219.75 51.6059 219.75C46.7969 219.75 43.9019 218.315 43.9019 215.755C43.9019 213.195 46.7969 211.759 51.6059 211.759ZM51.6059 214.152C48.6391 214.152 47.1318 214.654 47.1318 215.755C47.1318 216.832 48.6391 217.358 51.6059 217.358C54.5726 217.358 56.0799 216.832 56.0799 215.755C56.0799 214.654 54.5726 214.152 51.6059 214.152ZM49.4526 199.677H52.2758V200.227C52.2758 203.553 49.2851 206.281 43.567 206.807L42.4664 204.319C47.3232 203.912 49.4526 201.95 49.4526 200.227V199.677ZM51.0077 199.677H53.8309V200.227C53.8309 201.974 55.9363 203.912 60.8171 204.319L59.7165 206.807C54.0223 206.281 51.0077 203.577 51.0077 200.227V199.677ZM43.4473 198.505H59.8601V201.017H43.4473V198.505ZM66.069 198.717H79.9748V201.228H66.069V198.717ZM63.6527 206.297H83.5045V208.809H63.6527V206.297ZM71.9677 208.074H75.1184V212.67H71.9677V208.074ZM78.0796 198.717H81.183V200.47C81.183 202.365 81.183 204.568 80.496 207.458L77.3926 207.15C78.0796 204.331 78.0796 202.318 78.0796 200.47V198.717ZM65.6426 211.888H81.2066V219.729H78.0559V214.376H65.6426V211.888Z" fill="white"/>
<path d="M573.734 139.941H577.268V129.291H574.285V127.213C575.938 126.888 577.073 126.466 578.111 125.817H580.543V139.941H583.623V142.636H573.701V139.941H573.734ZM586.217 139.065C586.833 139.714 587.838 140.234 588.811 140.234C590.659 140.234 592.183 138.805 592.313 134.584C591.47 135.72 590.076 136.435 588.941 136.435C586.217 136.435 584.207 134.714 584.207 131.142C584.207 127.57 586.574 125.525 589.395 125.525C592.507 125.525 595.328 128.025 595.328 133.869C595.328 140.234 592.28 142.994 589.006 142.994C586.963 142.994 585.471 142.117 584.499 141.078L586.217 139.065ZM592.313 132.246C592.021 129.161 590.886 128.025 589.492 128.025C588.26 128.025 587.255 129.064 587.255 131.109C587.255 133.155 588.163 134.032 589.589 134.032C590.465 134.032 591.502 133.545 592.313 132.246ZM596.593 139.941H600.127V129.291H597.144V127.213C598.798 126.888 599.933 126.466 600.97 125.817H603.402V139.941H606.482V142.636H596.56V139.941H596.593ZM609.076 139.065C609.692 139.714 610.698 140.234 611.67 140.234C613.519 140.234 615.042 138.805 615.172 134.584C614.329 135.72 612.935 136.435 611.8 136.435C609.076 136.435 607.066 134.714 607.066 131.142C607.066 127.57 609.433 125.525 612.254 125.525C615.367 125.525 618.188 128.025 618.188 133.869C618.188 140.234 615.14 142.994 611.865 142.994C609.822 142.994 608.331 142.117 607.358 141.078L609.076 139.065ZM615.172 132.246C614.88 129.161 613.745 128.025 612.351 128.025C611.119 128.025 610.114 129.064 610.114 131.109C610.114 133.155 611.022 134.032 612.449 134.032C613.324 134.032 614.362 133.545 615.172 132.246ZM619.225 140.786C619.225 139.552 620.101 138.61 621.236 138.61C622.37 138.61 623.278 139.552 623.278 140.786C623.278 142.019 622.403 142.961 621.236 142.961C620.068 142.961 619.225 142.019 619.225 140.786ZM635.697 138.285H633.751V142.636H630.704V138.285H623.7V136.012L629.86 125.817H633.784V135.72H635.729V138.253L635.697 138.285ZM630.704 135.753V132.311C630.704 131.337 630.801 129.811 630.833 128.837H630.736C630.347 129.713 629.893 130.655 629.407 131.564L626.845 135.753H630.671H630.704ZM636.216 140.786C636.216 139.552 637.091 138.61 638.226 138.61C639.361 138.61 640.269 139.552 640.269 140.786C640.269 142.019 639.393 142.961 638.226 142.961C637.059 142.961 636.216 142.019 636.216 140.786ZM644.549 134.324C643.868 134.324 643.219 134.811 642.701 135.818L640.982 134.486C642.149 132.636 643.382 131.921 644.614 131.921C646.656 131.921 647.597 133.934 648.991 133.934C649.704 133.934 650.32 133.447 650.839 132.441L652.558 133.772C651.423 135.623 650.158 136.305 648.959 136.305C646.883 136.305 645.976 134.292 644.581 134.292L644.549 134.324ZM653.466 139.941H657V129.291H654.017V127.213C655.671 126.888 656.805 126.466 657.843 125.817H660.275V139.941H663.355V142.636H653.433V139.941H653.466ZM665.949 139.065C666.565 139.714 667.57 140.234 668.543 140.234C670.391 140.234 671.915 138.805 672.045 134.584C671.202 135.72 669.808 136.435 668.673 136.435C665.949 136.435 663.939 134.714 663.939 131.142C663.939 127.57 666.306 125.525 669.127 125.525C672.239 125.525 675.06 128.025 675.06 133.869C675.06 140.234 672.013 142.994 668.738 142.994C666.695 142.994 665.203 142.117 664.231 141.078L665.949 139.065ZM672.012 132.246C671.721 129.161 670.586 128.025 669.192 128.025C667.959 128.025 666.954 129.064 666.954 131.109C666.954 133.155 667.862 134.032 669.289 134.032C670.164 134.032 671.202 133.545 672.012 132.246ZM675.093 140.623L676.617 138.513C677.59 139.487 678.789 140.234 680.281 140.234C681.934 140.234 683.102 139.389 683.102 137.896C683.102 136.24 682.129 135.201 678.562 135.201V132.798C681.578 132.798 682.583 131.726 682.583 130.233C682.583 128.902 681.772 128.155 680.378 128.122C679.211 128.122 678.238 128.707 677.265 129.616L675.612 127.57C677.038 126.304 678.627 125.492 680.54 125.492C683.718 125.492 685.89 127.083 685.89 129.973C685.89 131.791 684.885 133.123 683.134 133.805V133.934C685.015 134.454 686.441 135.883 686.441 138.058C686.441 141.143 683.783 142.961 680.637 142.961C678.043 142.961 676.26 141.954 675.125 140.623H675.093ZM686.895 140.721C691.37 136.629 694.029 133.48 694.029 130.882C694.029 129.161 693.121 128.155 691.564 128.155C690.365 128.155 689.36 128.966 688.549 129.876L686.766 128.057C688.29 126.434 689.749 125.525 691.986 125.525C695.099 125.525 697.174 127.57 697.174 130.72C697.174 133.869 694.71 137.051 691.694 140.039C692.505 139.941 693.607 139.844 694.353 139.844H697.952V142.669H686.895V140.721ZM698.957 140.786C698.957 139.552 699.833 138.61 700.968 138.61C702.103 138.61 703.01 139.552 703.01 140.786C703.01 142.019 702.135 142.961 700.968 142.961C699.8 142.961 698.957 142.019 698.957 140.786ZM715.429 138.285H713.484V142.636H710.436V138.285H703.432V136.012L709.593 125.817H713.516V135.72H715.461V138.253L715.429 138.285ZM710.403 135.753V132.311C710.403 131.337 710.5 129.811 710.533 128.837H710.436C710.047 129.713 709.593 130.655 709.106 131.564L706.545 135.753H710.371H710.403ZM715.948 140.786C715.948 139.552 716.823 138.61 717.958 138.61C719.093 138.61 720.001 139.552 720.001 140.786C720.001 142.019 719.125 142.961 717.958 142.961C716.791 142.961 715.948 142.019 715.948 140.786Z" fill="#3E3A39"/>
<path d="M391.765 77.3769H395.299V66.7267H392.316V64.6486C393.97 64.3239 395.105 63.9019 396.142 63.2525H398.574V77.3769H401.654V80.0719H391.732V77.3769H391.765ZM404.216 76.5002C404.832 77.1496 405.837 77.6691 406.81 77.6691C408.658 77.6691 410.182 76.2404 410.312 72.0193C409.469 73.1558 408.074 73.8701 406.94 73.8701C404.216 73.8701 402.206 72.1492 402.206 68.5775C402.206 65.0058 404.573 62.9602 407.394 62.9602C410.506 62.9602 413.327 65.4604 413.327 71.305C413.327 77.6691 410.279 80.4291 407.004 80.4291C404.962 80.4291 403.47 79.5524 402.497 78.5133L404.216 76.5002ZM410.312 69.6491C410.02 66.5644 408.885 65.4279 407.491 65.4279C406.259 65.4279 405.253 66.467 405.253 68.5126C405.253 70.5582 406.161 71.4349 407.588 71.4349C408.464 71.4349 409.501 70.9479 410.312 69.6491ZM413.36 78.0588L414.884 75.9482C415.856 76.9223 417.056 77.6691 418.548 77.6691C420.201 77.6691 421.369 76.8249 421.369 75.3313C421.369 73.6753 420.396 72.6363 416.829 72.6363V70.2335C419.845 70.2335 420.85 69.162 420.85 67.6684C420.85 66.3371 420.039 65.5903 418.645 65.5578C417.478 65.5578 416.505 66.1423 415.532 67.0514L413.878 65.0058C415.305 63.7395 416.894 62.9277 418.807 62.9277C421.985 62.9277 424.157 64.5188 424.157 67.4086C424.157 69.2269 423.152 70.5582 421.401 71.24V71.37C423.282 71.8895 424.708 73.3181 424.708 75.4936C424.708 78.5783 422.049 80.3966 418.904 80.3966C416.31 80.3966 414.527 79.39 413.392 78.0588H413.36ZM424.805 78.0912L426.329 75.9482C427.27 76.8898 428.437 77.6691 429.961 77.6691C431.68 77.6691 432.879 76.5651 432.879 74.5845C432.879 72.6038 431.777 71.5323 430.091 71.5323C429.118 71.5323 428.567 71.792 427.626 72.409L426.135 71.4024L426.589 63.2525H435.408V66.0449H429.41L429.086 69.6165C429.734 69.2918 430.318 69.1295 431.063 69.1295C433.82 69.1295 436.154 70.8179 436.154 74.487C436.154 78.1562 433.43 80.3966 430.383 80.3966C427.789 80.3966 426.038 79.3576 424.805 78.0912ZM437.224 78.2211C437.224 76.9873 438.1 76.0456 439.234 76.0456C440.369 76.0456 441.277 76.9873 441.277 78.2211C441.277 79.455 440.402 80.3966 439.234 80.3966C438.067 80.3966 437.224 79.455 437.224 78.2211ZM443.061 77.3769H446.595V66.7267H443.612V64.6486C445.265 64.3239 446.4 63.9019 447.438 63.2525H449.87V77.3769H452.95V80.0719H443.028V77.3769H443.061ZM454.474 77.3769H458.008V66.7267H455.025V64.6486C456.679 64.3239 457.814 63.9019 458.851 63.2525H461.283V77.3769H464.363V80.0719H454.442V77.3769H454.474ZM465.661 78.2211C465.661 76.9873 466.536 76.0456 467.671 76.0456C468.806 76.0456 469.714 76.9873 469.714 78.2211C469.714 79.455 468.838 80.3966 467.671 80.3966C466.504 80.3966 465.661 79.455 465.661 78.2211ZM473.994 71.7596C473.313 71.7596 472.664 72.2466 472.145 73.2532L470.427 71.9219C471.594 70.0712 472.826 69.3568 474.058 69.3568C476.101 69.3568 477.042 71.37 478.436 71.37C479.149 71.37 479.765 70.8829 480.284 69.8763L482.002 71.2076C480.868 73.0584 479.603 73.7403 478.403 73.7403C476.328 73.7403 475.42 71.7271 474.026 71.7271L473.994 71.7596ZM482.91 77.3769H486.445V66.7267H483.462V64.6486C485.115 64.3239 486.25 63.9019 487.288 63.2525H489.72V77.3769H492.8V80.0719H482.878V77.3769H482.91ZM495.394 76.5002C496.01 77.1496 497.015 77.6691 497.988 77.6691C499.836 77.6691 501.36 76.2404 501.49 72.0193C500.647 73.1558 499.252 73.8701 498.118 73.8701C495.394 73.8701 493.384 72.1492 493.384 68.5775C493.384 65.0058 495.751 62.9602 498.571 62.9602C501.684 62.9602 504.505 65.4604 504.505 71.305C504.505 77.6691 501.457 80.4291 498.182 80.4291C496.14 80.4291 494.648 79.5524 493.675 78.5133L495.394 76.5002ZM501.457 69.6491C501.165 66.5644 500.031 65.4279 498.636 65.4279C497.404 65.4279 496.399 66.467 496.399 68.5126C496.399 70.5582 497.307 71.4349 498.734 71.4349C499.609 71.4349 500.647 70.9479 501.457 69.6491ZM504.538 78.0588L506.062 75.9482C507.034 76.9223 508.234 77.6691 509.726 77.6691C511.379 77.6691 512.546 76.8249 512.546 75.3313C512.546 73.6753 511.574 72.6363 508.007 72.6363V70.2335C511.023 70.2335 512.028 69.162 512.028 67.6684C512.028 66.3371 511.217 65.5903 509.823 65.5578C508.656 65.5578 507.683 66.1423 506.71 67.0514L505.056 65.0058C506.483 63.7395 508.072 62.9277 509.985 62.9277C513.163 62.9277 515.335 64.5188 515.335 67.4086C515.335 69.2269 514.33 70.5582 512.579 71.24V71.37C514.46 71.8895 515.886 73.3181 515.886 75.4936C515.886 78.5783 513.227 80.3966 510.082 80.3966C507.488 80.3966 505.705 79.39 504.57 78.0588H504.538ZM523.895 66.0449H516.47V63.2525H527.429V65.2656C523.603 70.0387 523.084 73.4805 522.825 80.0719H519.518C519.81 74.2273 520.75 70.4933 523.895 66.0449ZM528.402 78.2211C528.402 76.9873 529.278 76.0456 530.412 76.0456C531.547 76.0456 532.455 76.9873 532.455 78.2211C532.455 79.455 531.58 80.3966 530.412 80.3966C529.245 80.3966 528.402 79.455 528.402 78.2211ZM534.206 77.3769H537.74V66.7267H534.757V64.6486C536.411 64.3239 537.546 63.9019 538.583 63.2525H541.015V77.3769H544.096V80.0719H534.174V77.3769H534.206ZM545.62 77.3769H549.154V66.7267H546.171V64.6486C547.824 64.3239 548.959 63.9019 549.997 63.2525H552.429V77.3769H555.509V80.0719H545.587V77.3769H545.62ZM556.806 78.2211C556.806 76.9873 557.682 76.0456 558.816 76.0456C559.951 76.0456 560.859 76.9873 560.859 78.2211C560.859 79.455 559.984 80.3966 558.816 80.3966C557.649 80.3966 556.806 79.455 556.806 78.2211Z" fill="#3E3A39"/>
<path d="M310.185 214.498H313.719V203.848H310.736V201.77C312.39 201.445 313.525 201.023 314.562 200.374H316.994V214.498H320.074V217.193H310.152V214.498H310.185ZM322.668 213.621C323.284 214.271 324.289 214.79 325.262 214.79C327.11 214.79 328.634 213.362 328.764 209.14C327.921 210.277 326.527 210.991 325.392 210.991C322.668 210.991 320.658 209.27 320.658 205.699C320.658 202.127 323.025 200.081 325.846 200.081C328.959 200.081 331.78 202.581 331.78 208.426C331.78 214.79 328.732 217.55 325.457 217.55C323.414 217.55 321.922 216.673 320.95 215.634L322.668 213.621ZM328.764 206.803C328.472 203.718 327.337 202.581 325.943 202.581C324.711 202.581 323.706 203.621 323.706 205.666C323.706 207.712 324.614 208.588 326.04 208.588C326.916 208.588 327.953 208.101 328.764 206.803ZM331.812 215.18L333.336 213.069C334.309 214.043 335.508 214.79 337 214.79C338.654 214.79 339.821 213.946 339.821 212.452C339.821 210.796 338.848 209.757 335.281 209.757V207.355C338.297 207.355 339.302 206.283 339.302 204.789C339.302 203.458 338.491 202.711 337.097 202.679C335.93 202.679 334.957 203.263 333.984 204.173L332.331 202.127C333.757 200.861 335.346 200.049 337.259 200.049C340.437 200.049 342.609 201.64 342.609 204.53C342.609 206.348 341.604 207.679 339.853 208.361V208.491C341.734 209.011 343.161 210.439 343.161 212.615C343.161 215.699 340.502 217.518 337.357 217.518C334.763 217.518 332.979 216.511 331.844 215.18H331.812ZM351.202 203.198H343.777V200.406H354.736V202.419C350.91 207.192 350.391 210.634 350.132 217.225H346.825C347.116 211.381 348.057 207.647 351.202 203.198ZM355.676 215.342C355.676 214.108 356.552 213.167 357.687 213.167C358.822 213.167 359.73 214.108 359.73 215.342C359.73 216.576 358.854 217.518 357.687 217.518C356.52 217.518 355.676 216.576 355.676 215.342ZM361.48 214.498H365.015V203.848H362.032V201.77C363.685 201.445 364.82 201.023 365.858 200.374H368.29V214.498H371.37V217.193H361.448V214.498H361.48ZM372.926 214.498H376.461V203.848H373.478V201.77C375.131 201.445 376.266 201.023 377.304 200.374H379.736V214.498H382.816V217.193H372.894V214.498H372.926ZM384.113 215.342C384.113 214.108 384.988 213.167 386.123 213.167C387.258 213.167 388.166 214.108 388.166 215.342C388.166 216.576 387.29 217.518 386.123 217.518C384.956 217.518 384.113 216.576 384.113 215.342ZM392.414 208.881C391.733 208.881 391.084 209.368 390.565 210.374L388.847 209.043C390.014 207.192 391.246 206.478 392.478 206.478C394.521 206.478 395.461 208.491 396.856 208.491C397.569 208.491 398.185 208.004 398.704 206.997L400.422 208.329C399.288 210.179 398.023 210.861 396.823 210.861C394.748 210.861 393.84 208.848 392.446 208.848L392.414 208.881Z" fill="#3E3A39"/>
<path d="M310.185 240.467H313.719V229.817H310.736V227.738C312.39 227.414 313.525 226.992 314.562 226.342H316.994V240.467H320.074V243.162H310.152V240.467H310.185ZM322.668 239.59C323.284 240.239 324.289 240.759 325.262 240.759C327.11 240.759 328.634 239.33 328.764 235.109C327.921 236.246 326.527 236.96 325.392 236.96C322.668 236.96 320.658 235.239 320.658 231.667C320.658 228.096 323.025 226.05 325.846 226.05C328.959 226.05 331.78 228.55 331.78 234.395C331.78 240.759 328.732 243.519 325.457 243.519C323.414 243.519 321.922 242.642 320.95 241.603L322.668 239.59ZM328.764 232.771C328.472 229.687 327.337 228.55 325.943 228.55C324.711 228.55 323.706 229.589 323.706 231.635C323.706 233.681 324.614 234.557 326.04 234.557C326.916 234.557 327.953 234.07 328.764 232.771ZM331.812 241.149L333.336 239.038C334.309 240.012 335.508 240.759 337 240.759C338.654 240.759 339.821 239.915 339.821 238.421C339.821 236.765 338.848 235.726 335.281 235.726V233.323C338.297 233.323 339.302 232.252 339.302 230.758C339.302 229.427 338.491 228.68 337.097 228.648C335.93 228.648 334.957 229.232 333.984 230.141L332.331 228.096C333.757 226.829 335.346 226.018 337.259 226.018C340.437 226.018 342.609 227.609 342.609 230.498C342.609 232.317 341.604 233.648 339.853 234.33V234.46C341.734 234.979 343.161 236.408 343.161 238.584C343.161 241.668 340.502 243.486 337.357 243.486C334.763 243.486 332.979 242.48 331.844 241.149H331.812ZM343.712 239.006C343.712 236.83 345.009 235.466 346.533 234.622V234.525C345.268 233.583 344.36 232.317 344.36 230.531C344.36 227.836 346.468 226.083 349.321 226.083C352.175 226.083 354.12 227.868 354.12 230.563C354.12 232.219 353.083 233.616 352.013 234.395V234.525C353.536 235.369 354.769 236.733 354.769 239.038C354.769 241.571 352.564 243.551 349.224 243.551C346.079 243.551 343.712 241.701 343.712 239.038V239.006ZM351.721 238.876C351.721 237.122 350.197 236.408 348.057 235.499C347.181 236.213 346.533 237.35 346.533 238.616C346.533 240.142 347.765 241.116 349.289 241.116C350.683 241.116 351.688 240.304 351.688 238.876H351.721ZM351.429 230.758C351.429 229.394 350.618 228.42 349.256 228.42C348.154 228.42 347.246 229.167 347.246 230.498C347.246 232.089 348.511 232.869 350.262 233.583C351.072 232.706 351.429 231.765 351.429 230.758ZM355.677 241.311C355.677 240.077 356.552 239.135 357.687 239.135C358.822 239.135 359.73 240.077 359.73 241.311C359.73 242.545 358.854 243.486 357.687 243.486C356.52 243.486 355.677 242.545 355.677 241.311ZM368.192 229.167H360.767V226.375H371.727V228.388C367.901 233.161 367.382 236.603 367.122 243.194H363.815C364.107 237.35 365.047 233.616 368.192 229.167ZM372.667 241.311C372.667 240.077 373.542 239.135 374.677 239.135C375.812 239.135 376.72 240.077 376.72 241.311C376.72 242.545 375.845 243.486 374.677 243.486C373.51 243.486 372.667 242.545 372.667 241.311Z" fill="#3E3A39"/>
<path d="M476.296 222.809H479.83V212.158H476.847V210.08C478.501 209.756 479.636 209.333 480.673 208.684H483.105V222.809H486.186V225.504H476.264V222.809H476.296ZM488.78 221.899C489.396 222.549 490.401 223.068 491.374 223.068C493.222 223.068 494.746 221.64 494.875 217.419C494.032 218.555 492.638 219.269 491.503 219.269C488.78 219.269 486.769 217.548 486.769 213.977C486.769 210.405 489.136 208.359 491.957 208.359C495.07 208.359 497.891 210.86 497.891 216.704C497.891 223.068 494.843 225.828 491.568 225.828C489.525 225.828 488.034 224.952 487.061 223.913L488.78 221.899ZM494.875 215.081C494.584 211.996 493.449 210.86 492.054 210.86C490.822 210.86 489.817 211.899 489.817 213.944C489.817 215.99 490.725 216.867 492.152 216.867C493.027 216.867 494.065 216.379 494.875 215.081ZM497.923 223.49L499.447 221.38C500.42 222.354 501.62 223.101 503.111 223.101C504.765 223.101 505.932 222.257 505.932 220.763C505.932 219.107 504.959 218.068 501.393 218.068V215.665C504.408 215.665 505.413 214.594 505.413 213.1C505.413 211.769 504.603 211.022 503.209 210.989C502.041 210.989 501.069 211.574 500.096 212.483L498.442 210.437C499.869 209.171 501.458 208.359 503.371 208.359C506.548 208.359 508.721 209.95 508.721 212.84C508.721 214.659 507.716 215.99 505.965 216.672V216.802C507.845 217.321 509.272 218.75 509.272 220.925C509.272 224.01 506.613 225.828 503.468 225.828C500.874 225.828 499.091 224.822 497.956 223.49H497.923ZM509.726 223.555C514.2 219.464 516.859 216.315 516.859 213.717C516.859 211.996 515.951 210.989 514.395 210.989C513.195 210.989 512.19 211.801 511.38 212.71L509.596 210.892C511.12 209.269 512.579 208.359 514.817 208.359C517.929 208.359 520.005 210.405 520.005 213.555C520.005 216.704 517.54 219.886 514.525 222.873C515.335 222.776 516.438 222.679 517.183 222.679H520.783V225.504H509.726V223.555ZM521.788 223.653C521.788 222.419 522.663 221.477 523.798 221.477C524.933 221.477 525.841 222.419 525.841 223.653C525.841 224.887 524.965 225.828 523.798 225.828C522.631 225.828 521.788 224.887 521.788 223.653ZM526.36 223.523L527.884 221.38C528.824 222.322 529.991 223.101 531.515 223.101C533.234 223.101 534.433 221.997 534.433 220.016C534.433 218.035 533.331 216.964 531.645 216.964C530.672 216.964 530.121 217.224 529.181 217.841L527.689 216.834L528.143 208.684H536.963V211.477H530.964L530.64 215.048C531.288 214.724 531.872 214.561 532.618 214.561C535.374 214.561 537.708 216.25 537.708 219.919C537.708 223.588 534.985 225.828 531.937 225.828C529.343 225.828 527.592 224.789 526.36 223.523ZM538.778 223.653C538.778 222.419 539.654 221.477 540.789 221.477C541.923 221.477 542.831 222.419 542.831 223.653C542.831 224.887 541.956 225.828 540.789 225.828C539.621 225.828 538.778 224.887 538.778 223.653ZM547.111 217.191C546.431 217.191 545.782 217.678 545.263 218.685L543.545 217.354C544.712 215.503 545.944 214.788 547.176 214.788C549.219 214.788 550.159 216.802 551.554 216.802C552.267 216.802 552.883 216.315 553.402 215.308L555.12 216.639C553.985 218.49 552.721 219.172 551.521 219.172C549.446 219.172 548.538 217.159 547.144 217.159L547.111 217.191ZM556.028 222.809H559.562V212.158H556.579V210.08C558.233 209.756 559.368 209.333 560.406 208.684H562.837V222.809H565.918V225.504H555.996V222.809H556.028ZM568.512 221.899C569.128 222.549 570.133 223.068 571.106 223.068C572.954 223.068 574.478 221.64 574.608 217.419C573.764 218.555 572.37 219.269 571.235 219.269C568.512 219.269 566.501 217.548 566.501 213.977C566.501 210.405 568.868 208.359 571.689 208.359C574.802 208.359 577.623 210.86 577.623 216.704C577.623 223.068 574.575 225.828 571.3 225.828C569.257 225.828 567.766 224.952 566.793 223.913L568.512 221.899ZM574.575 215.081C574.283 211.996 573.148 210.86 571.754 210.86C570.522 210.86 569.517 211.899 569.517 213.944C569.517 215.99 570.425 216.867 571.851 216.867C572.727 216.867 573.764 216.379 574.575 215.081ZM577.655 223.49L579.179 221.38C580.152 222.354 581.352 223.101 582.843 223.101C584.497 223.101 585.664 222.257 585.664 220.763C585.664 219.107 584.691 218.068 581.125 218.068V215.665C584.14 215.665 585.145 214.594 585.145 213.1C585.145 211.769 584.335 211.022 582.941 210.989C581.773 210.989 580.801 211.574 579.828 212.483L578.174 210.437C579.601 209.171 581.19 208.359 583.103 208.359C586.28 208.359 588.453 209.95 588.453 212.84C588.453 214.659 587.448 215.99 585.697 216.672V216.802C587.577 217.321 589.004 218.75 589.004 220.925C589.004 224.01 586.345 225.828 583.2 225.828C580.606 225.828 578.823 224.822 577.688 223.49H577.655ZM589.069 223.523L590.593 221.38C591.533 222.322 592.7 223.101 594.224 223.101C595.943 223.101 597.143 221.997 597.143 220.016C597.143 218.035 596.04 216.964 594.354 216.964C593.381 216.964 592.83 217.224 591.89 217.841L590.398 216.834L590.852 208.684H599.672V211.477H593.673L593.349 215.048C593.997 214.724 594.581 214.561 595.327 214.561C598.083 214.561 600.417 216.25 600.417 219.919C600.417 223.588 597.694 225.828 594.646 225.828C592.052 225.828 590.301 224.789 589.069 223.523ZM601.52 223.653C601.52 222.419 602.395 221.477 603.53 221.477C604.665 221.477 605.573 222.419 605.573 223.653C605.573 224.887 604.697 225.828 603.53 225.828C602.363 225.828 601.52 224.887 601.52 223.653ZM607.324 222.809H610.858V212.158H607.875V210.08C609.529 209.756 610.664 209.333 611.701 208.684H614.133V222.809H617.213V225.504H607.291V222.809H607.324ZM618.77 222.809H622.304V212.158H619.321V210.08C620.975 209.756 622.11 209.333 623.147 208.684H625.579V222.809H628.659V225.504H618.737V222.809H618.77ZM629.956 223.653C629.956 222.419 630.832 221.477 631.967 221.477C633.101 221.477 634.009 222.419 634.009 223.653C634.009 224.887 633.134 225.828 631.967 225.828C630.799 225.828 629.956 224.887 629.956 223.653Z" fill="#3E3A39"/>
<path d="M445.07 402.262H448.604V391.611H445.621V389.533C447.274 389.209 448.409 388.787 449.447 388.137H451.879V402.262H454.959V404.957H445.037V402.262H445.07ZM457.553 401.385C458.169 402.034 459.174 402.554 460.147 402.554C461.995 402.554 463.519 401.125 463.649 396.904C462.806 398.041 461.412 398.755 460.277 398.755C457.553 398.755 455.543 397.034 455.543 393.462C455.543 389.891 457.91 387.845 460.731 387.845C463.843 387.845 466.664 390.345 466.664 396.19C466.664 402.554 463.616 405.314 460.342 405.314C458.299 405.314 456.807 404.437 455.835 403.398L457.553 401.385ZM463.616 394.566C463.325 391.482 462.19 390.345 460.795 390.345C459.563 390.345 458.558 391.384 458.558 393.43C458.558 395.475 459.466 396.352 460.893 396.352C461.768 396.352 462.806 395.865 463.616 394.566ZM466.664 402.944L468.188 400.833C469.161 401.807 470.361 402.554 471.852 402.554C473.506 402.554 474.673 401.71 474.673 400.216C474.673 398.56 473.7 397.521 470.134 397.521V395.118C473.149 395.118 474.154 394.047 474.154 392.553C474.154 391.222 473.344 390.475 471.95 390.443C470.782 390.443 469.809 391.027 468.837 391.936L467.183 389.891C468.61 388.624 470.199 387.812 472.112 387.812C475.289 387.812 477.462 389.404 477.462 392.293C477.462 394.112 476.457 395.443 474.706 396.125V396.255C476.586 396.774 478.013 398.203 478.013 400.378C478.013 403.463 475.354 405.281 472.209 405.281C469.615 405.281 467.832 404.275 466.697 402.944H466.664ZM478.564 400.801C478.564 398.625 479.861 397.261 481.385 396.417V396.287C480.12 395.346 479.213 394.079 479.213 392.293C479.213 389.598 481.32 387.845 484.174 387.845C487.027 387.845 488.972 389.631 488.972 392.326C488.972 393.982 487.935 395.378 486.865 396.157V396.255C488.389 397.099 489.621 398.463 489.621 400.768C489.621 403.301 487.416 405.281 484.076 405.281C480.931 405.281 478.564 403.431 478.564 400.768V400.801ZM486.573 400.671C486.573 398.917 485.049 398.203 482.909 397.294C482.034 398.008 481.385 399.145 481.385 400.411C481.385 401.937 482.617 402.911 484.141 402.911C485.535 402.911 486.541 402.099 486.541 400.671H486.573ZM486.314 392.521C486.314 391.157 485.503 390.183 484.141 390.183C483.039 390.183 482.131 390.93 482.131 392.261C482.131 393.852 483.395 394.631 485.146 395.346C485.957 394.469 486.314 393.527 486.314 392.521ZM490.561 403.106C490.561 401.872 491.437 400.93 492.572 400.93C493.706 400.93 494.614 401.872 494.614 403.106C494.614 404.34 493.739 405.281 492.572 405.281C491.404 405.281 490.561 404.34 490.561 403.106ZM503.045 390.93H495.619V388.137H506.579V390.15C502.753 394.923 502.234 398.365 501.975 404.957H498.667C498.959 399.112 499.9 395.378 503.045 390.93ZM507.552 403.106C507.552 401.872 508.427 400.93 509.562 400.93C510.697 400.93 511.605 401.872 511.605 403.106C511.605 404.34 510.729 405.281 509.562 405.281C508.395 405.281 507.552 404.34 507.552 403.106ZM515.852 396.644C515.172 396.644 514.523 397.131 514.004 398.138L512.286 396.807C513.453 394.956 514.685 394.242 515.917 394.242C517.96 394.242 518.9 396.255 520.295 396.255C521.008 396.255 521.624 395.768 522.143 394.761L523.861 396.092C522.726 397.943 521.462 398.625 520.262 398.625C518.187 398.625 517.279 396.612 515.885 396.612L515.852 396.644ZM524.769 402.262H528.303V391.611H525.32V389.533C526.974 389.209 528.109 388.787 529.146 388.137H531.578V402.262H534.659V404.957H524.737V402.262H524.769ZM537.253 401.385C537.869 402.034 538.874 402.554 539.847 402.554C541.695 402.554 543.219 401.125 543.348 396.904C542.505 398.041 541.111 398.755 539.976 398.755C537.253 398.755 535.242 397.034 535.242 393.462C535.242 389.891 537.609 387.845 540.43 387.845C543.543 387.845 546.364 390.345 546.364 396.19C546.364 402.554 543.316 405.314 540.041 405.314C537.998 405.314 536.507 404.437 535.534 403.398L537.253 401.385ZM543.348 394.566C543.057 391.482 541.922 390.345 540.528 390.345C539.295 390.345 538.29 391.384 538.29 393.43C538.29 395.475 539.198 396.352 540.625 396.352C541.5 396.352 542.538 395.865 543.348 394.566ZM546.396 402.944L547.92 400.833C548.893 401.807 550.093 402.554 551.584 402.554C553.238 402.554 554.405 401.71 554.405 400.216C554.405 398.56 553.433 397.521 549.866 397.521V395.118C552.881 395.118 553.886 394.047 553.886 392.553C553.886 391.222 553.076 390.475 551.682 390.443C550.514 390.443 549.542 391.027 548.569 391.936L546.915 389.891C548.342 388.624 549.931 387.812 551.844 387.812C555.021 387.812 557.194 389.404 557.194 392.293C557.194 394.112 556.189 395.443 554.438 396.125V396.255C556.318 396.774 557.745 398.203 557.745 400.378C557.745 403.463 555.086 405.281 551.941 405.281C549.347 405.281 547.564 404.275 546.429 402.944H546.396ZM558.296 400.801C558.296 398.625 559.593 397.261 561.117 396.417V396.287C559.853 395.346 558.945 394.079 558.945 392.293C558.945 389.598 561.052 387.845 563.906 387.845C566.759 387.845 568.705 389.631 568.705 392.326C568.705 393.982 567.667 395.378 566.597 396.157V396.255C568.121 397.099 569.353 398.463 569.353 400.768C569.353 403.301 567.148 405.281 563.808 405.281C560.663 405.281 558.296 403.431 558.296 400.768V400.801ZM566.305 400.671C566.305 398.917 564.781 398.203 562.641 397.294C561.766 398.008 561.117 399.145 561.117 400.411C561.117 401.937 562.349 402.911 563.873 402.911C565.268 402.911 566.273 402.099 566.273 400.671H566.305ZM566.013 392.521C566.013 391.157 565.203 390.183 563.841 390.183C562.738 390.183 561.831 390.93 561.831 392.261C561.831 393.852 563.095 394.631 564.846 395.346C565.657 394.469 566.013 393.527 566.013 392.521ZM570.261 403.106C570.261 401.872 571.136 400.93 572.271 400.93C573.406 400.93 574.314 401.872 574.314 403.106C574.314 404.34 573.439 405.281 572.271 405.281C571.104 405.281 570.261 404.34 570.261 403.106ZM576.065 402.262H579.599V391.611H576.616V389.533C578.27 389.209 579.405 388.787 580.442 388.137H582.874V402.262H585.954V404.957H576.033V402.262H576.065ZM586.668 396.482C586.668 390.67 588.905 387.812 592.245 387.812C595.585 387.812 597.822 390.67 597.822 396.482C597.822 402.294 595.585 405.281 592.245 405.281C588.905 405.281 586.668 402.294 586.668 396.482ZM594.709 396.482C594.709 391.774 593.639 390.41 592.245 390.41C590.851 390.41 589.748 391.774 589.748 396.482C589.748 401.19 590.818 402.684 592.245 402.684C593.671 402.684 594.709 401.223 594.709 396.482ZM598.697 403.106C598.697 401.872 599.573 400.93 600.708 400.93C601.842 400.93 602.75 401.872 602.75 403.106C602.75 404.34 601.875 405.281 600.708 405.281C599.54 405.281 598.697 404.34 598.697 403.106Z" fill="#3E3A39"/>
<path d="M178.247 402.262H181.782V391.611H178.799V389.533C180.452 389.209 181.587 388.787 182.625 388.137H185.056V402.262H188.137V404.957H178.215V402.262H178.247ZM190.731 401.385C191.347 402.034 192.352 402.554 193.325 402.554C195.173 402.554 196.697 401.125 196.827 396.904C195.984 398.041 194.589 398.755 193.454 398.755C190.731 398.755 188.72 397.034 188.72 393.462C188.72 389.891 191.087 387.845 193.908 387.845C197.021 387.845 199.842 390.345 199.842 396.19C199.842 402.554 196.794 405.314 193.519 405.314C191.477 405.314 189.985 404.437 189.012 403.398L190.731 401.385ZM196.827 394.566C196.535 391.482 195.4 390.345 194.006 390.345C192.774 390.345 191.768 391.384 191.768 393.43C191.768 395.475 192.676 396.352 194.103 396.352C194.978 396.352 196.016 395.865 196.827 394.566ZM199.874 402.944L201.398 400.833C202.371 401.807 203.571 402.554 205.062 402.554C206.716 402.554 207.883 401.71 207.883 400.216C207.883 398.56 206.911 397.521 203.344 397.521V395.118C206.359 395.118 207.365 394.047 207.365 392.553C207.365 391.222 206.554 390.475 205.16 390.443C203.992 390.443 203.02 391.027 202.047 391.936L200.393 389.891C201.82 388.624 203.409 387.812 205.322 387.812C208.499 387.812 210.672 389.404 210.672 392.293C210.672 394.112 209.667 395.443 207.916 396.125V396.255C209.796 396.774 211.223 398.203 211.223 400.378C211.223 403.463 208.564 405.281 205.419 405.281C202.825 405.281 201.042 404.275 199.907 402.944H199.874ZM211.774 400.801C211.774 398.625 213.071 397.261 214.595 396.417V396.287C213.331 395.346 212.423 394.079 212.423 392.293C212.423 389.598 214.53 387.845 217.384 387.845C220.237 387.845 222.183 389.631 222.183 392.326C222.183 393.982 221.145 395.378 220.075 396.157V396.255C221.599 397.099 222.831 398.463 222.831 400.768C222.831 403.301 220.626 405.281 217.286 405.281C214.141 405.281 211.774 403.431 211.774 400.768V400.801ZM219.783 400.671C219.783 398.917 218.259 398.203 216.119 397.294C215.244 398.008 214.595 399.145 214.595 400.411C214.595 401.937 215.827 402.911 217.351 402.911C218.746 402.911 219.751 402.099 219.751 400.671H219.783ZM219.491 392.521C219.491 391.157 218.681 390.183 217.319 390.183C216.217 390.183 215.309 390.93 215.309 392.261C215.309 393.852 216.573 394.631 218.324 395.346C219.135 394.469 219.491 393.527 219.491 392.521ZM223.739 403.106C223.739 401.872 224.614 400.93 225.749 400.93C226.884 400.93 227.792 401.872 227.792 403.106C227.792 404.34 226.917 405.281 225.749 405.281C224.582 405.281 223.739 404.34 223.739 403.106ZM229.543 402.262H233.077V391.611H230.094V389.533C231.748 389.209 232.883 388.787 233.92 388.137H236.352V402.262H239.432V404.957H229.511V402.262H229.543ZM240.146 396.482C240.146 390.67 242.383 387.812 245.723 387.812C249.063 387.812 251.3 390.67 251.3 396.482C251.3 402.294 249.063 405.281 245.723 405.281C242.383 405.281 240.146 402.294 240.146 396.482ZM248.187 396.482C248.187 391.774 247.117 390.41 245.723 390.41C244.329 390.41 243.226 391.774 243.226 396.482C243.226 401.19 244.296 402.684 245.723 402.684C247.15 402.684 248.187 401.223 248.187 396.482ZM252.175 403.106C252.175 401.872 253.051 400.93 254.186 400.93C255.321 400.93 256.228 401.872 256.228 403.106C256.228 404.34 255.353 405.281 254.186 405.281C253.018 405.281 252.175 404.34 252.175 403.106ZM260.476 396.644C259.795 396.644 259.147 397.131 258.628 398.138L256.909 396.807C258.077 394.956 259.309 394.242 260.541 394.242C262.584 394.242 263.524 396.255 264.918 396.255C265.632 396.255 266.248 395.768 266.766 394.761L268.485 396.092C267.35 397.943 266.086 398.625 264.886 398.625C262.811 398.625 261.903 396.612 260.508 396.612L260.476 396.644ZM269.393 402.262H272.927V391.611H269.944V389.533C271.598 389.209 272.733 388.787 273.77 388.137H276.202V402.262H279.282V404.957H269.36V402.262H269.393ZM281.876 401.385C282.492 402.034 283.498 402.554 284.47 402.554C286.318 402.554 287.842 401.125 287.972 396.904C287.129 398.041 285.735 398.755 284.6 398.755C281.876 398.755 279.866 397.034 279.866 393.462C279.866 389.891 282.233 387.845 285.054 387.845C288.167 387.845 290.988 390.345 290.988 396.19C290.988 402.554 287.94 405.314 284.665 405.314C282.622 405.314 281.131 404.437 280.158 403.398L281.876 401.385ZM287.972 394.566C287.68 391.482 286.545 390.345 285.151 390.345C283.919 390.345 282.914 391.384 282.914 393.43C282.914 395.475 283.822 396.352 285.248 396.352C286.124 396.352 287.162 395.865 287.972 394.566ZM291.02 402.944L292.544 400.833C293.517 401.807 294.716 402.554 296.208 402.554C297.862 402.554 299.029 401.71 299.029 400.216C299.029 398.56 298.056 397.521 294.489 397.521V395.118C297.505 395.118 298.51 394.047 298.51 392.553C298.51 391.222 297.699 390.475 296.305 390.443C295.138 390.443 294.165 391.027 293.192 391.936L291.539 389.891C292.966 388.624 294.554 387.812 296.467 387.812C299.645 387.812 301.817 389.404 301.817 392.293C301.817 394.112 300.812 395.443 299.061 396.125V396.255C300.942 396.774 302.369 398.203 302.369 400.378C302.369 403.463 299.71 405.281 296.565 405.281C293.971 405.281 292.187 404.275 291.052 402.944H291.02ZM304.768 401.385C305.384 402.034 306.389 402.554 307.362 402.554C309.21 402.554 310.734 401.125 310.864 396.904C310.021 398.041 308.627 398.755 307.492 398.755C304.768 398.755 302.758 397.034 302.758 393.462C302.758 389.891 305.125 387.845 307.946 387.845C311.058 387.845 313.879 390.345 313.879 396.19C313.879 402.554 310.831 405.314 307.557 405.314C305.514 405.314 304.022 404.437 303.05 403.398L304.768 401.385ZM310.831 394.566C310.54 391.482 309.405 390.345 308.01 390.345C306.778 390.345 305.773 391.384 305.773 393.43C305.773 395.475 306.681 396.352 308.108 396.352C308.983 396.352 310.021 395.865 310.831 394.566ZM314.885 403.106C314.885 401.872 315.76 400.93 316.895 400.93C318.03 400.93 318.938 401.872 318.938 403.106C318.938 404.34 318.062 405.281 316.895 405.281C315.728 405.281 314.885 404.34 314.885 403.106ZM319.456 402.944L320.98 400.833C321.953 401.807 323.153 402.554 324.644 402.554C326.298 402.554 327.465 401.71 327.465 400.216C327.465 398.56 326.493 397.521 322.926 397.521V395.118C325.941 395.118 326.946 394.047 326.946 392.553C326.946 391.222 326.136 390.475 324.742 390.443C323.574 390.443 322.602 391.027 321.629 391.936L319.975 389.891C321.402 388.624 322.991 387.812 324.904 387.812C328.081 387.812 330.254 389.404 330.254 392.293C330.254 394.112 329.249 395.443 327.498 396.125V396.255C329.378 396.774 330.805 398.203 330.805 400.378C330.805 403.463 328.146 405.281 325.001 405.281C322.407 405.281 320.624 404.275 319.489 402.944H319.456ZM331.875 403.106C331.875 401.872 332.75 400.93 333.885 400.93C335.02 400.93 335.928 401.872 335.928 403.106C335.928 404.34 335.053 405.281 333.885 405.281C332.718 405.281 331.875 404.34 331.875 403.106Z" fill="#3E3A39"/>
<path d="M105.132 293.654H108.666V283.004H105.683V280.926C107.337 280.601 108.472 280.179 109.509 279.53H111.941V293.654H115.022V296.349H105.1V293.654H105.132ZM117.616 292.778C118.232 293.427 119.237 293.946 120.209 293.946C122.058 293.946 123.582 292.518 123.711 288.297C122.868 289.433 121.474 290.147 120.339 290.147C117.615 290.147 115.605 288.427 115.605 284.855C115.605 281.283 117.972 279.238 120.793 279.238C123.906 279.238 126.727 281.738 126.727 287.582C126.727 293.946 123.679 296.706 120.404 296.706C118.361 296.706 116.87 295.83 115.897 294.791L117.616 292.778ZM123.679 285.959C123.387 282.874 122.252 281.738 120.858 281.738C119.626 281.738 118.621 282.777 118.621 284.822C118.621 286.868 119.529 287.745 120.955 287.745C121.831 287.745 122.868 287.258 123.679 285.959ZM126.759 294.336L128.283 292.226C129.256 293.2 130.456 293.946 131.947 293.946C133.601 293.946 134.768 293.102 134.768 291.609C134.768 289.953 133.795 288.914 130.229 288.914V286.511C133.244 286.511 134.249 285.439 134.249 283.946C134.249 282.614 133.439 281.868 132.044 281.835C130.877 281.835 129.904 282.42 128.932 283.329L127.278 281.283C128.705 280.017 130.294 279.205 132.207 279.205C135.384 279.205 137.557 280.796 137.557 283.686C137.557 285.504 136.551 286.836 134.8 287.517V287.647C136.681 288.167 138.108 289.595 138.108 291.771C138.108 294.856 135.449 296.674 132.304 296.674C129.71 296.674 127.926 295.667 126.792 294.336H126.759ZM140.475 292.778C141.091 293.427 142.096 293.946 143.069 293.946C144.917 293.946 146.441 292.518 146.571 288.297C145.728 289.433 144.333 290.147 143.199 290.147C140.475 290.147 138.464 288.427 138.464 284.855C138.464 281.283 140.832 279.238 143.652 279.238C146.765 279.238 149.586 281.738 149.586 287.582C149.586 293.946 146.538 296.706 143.263 296.706C141.221 296.706 139.729 295.83 138.756 294.791L140.475 292.778ZM146.538 285.959C146.246 282.874 145.112 281.738 143.717 281.738C142.485 281.738 141.48 282.777 141.48 284.822C141.48 286.868 142.388 287.745 143.815 287.745C144.69 287.745 145.728 287.258 146.538 285.959ZM150.624 294.498C150.624 293.265 151.499 292.323 152.634 292.323C153.769 292.323 154.677 293.265 154.677 294.498C154.677 295.732 153.801 296.674 152.634 296.674C151.467 296.674 150.624 295.732 150.624 294.498ZM155.163 294.336L156.687 292.226C157.66 293.2 158.86 293.946 160.351 293.946C162.005 293.946 163.172 293.102 163.172 291.609C163.172 289.953 162.199 288.914 158.633 288.914V286.511C161.648 286.511 162.653 285.439 162.653 283.946C162.653 282.614 161.843 281.868 160.448 281.835C159.281 281.835 158.308 282.42 157.336 283.329L155.682 281.283C157.109 280.017 158.697 279.205 160.61 279.205C163.788 279.205 165.961 280.796 165.961 283.686C165.961 285.504 164.955 286.836 163.204 287.517V287.647C165.085 288.167 166.512 289.595 166.512 291.771C166.512 294.856 163.853 296.674 160.708 296.674C158.114 296.674 156.33 295.667 155.196 294.336H155.163ZM167.614 294.498C167.614 293.265 168.49 292.323 169.625 292.323C170.759 292.323 171.667 293.265 171.667 294.498C171.667 295.732 170.792 296.674 169.625 296.674C168.457 296.674 167.614 295.732 167.614 294.498ZM175.947 288.037C175.266 288.037 174.618 288.524 174.099 289.531L172.381 288.199C173.548 286.348 174.78 285.634 176.012 285.634C178.055 285.634 178.995 287.647 180.389 287.647C181.103 287.647 181.719 287.16 182.238 286.154L183.956 287.485C182.821 289.336 181.557 290.018 180.357 290.018C178.282 290.018 177.374 288.004 175.98 288.004L175.947 288.037ZM184.864 293.654H188.398V283.004H185.415V280.926C187.069 280.601 188.204 280.179 189.241 279.53H191.673V293.654H194.754V296.349H184.832V293.654H184.864ZM197.315 292.778C197.931 293.427 198.936 293.946 199.909 293.946C201.757 293.946 203.281 292.518 203.411 288.297C202.568 289.433 201.174 290.147 200.039 290.147C197.315 290.147 195.305 288.427 195.305 284.855C195.305 281.283 197.672 279.238 200.493 279.238C203.606 279.238 206.426 281.738 206.426 287.582C206.426 293.946 203.379 296.706 200.104 296.706C198.061 296.706 196.569 295.83 195.597 294.791L197.315 292.778ZM203.411 285.959C203.119 282.874 201.984 281.738 200.59 281.738C199.358 281.738 198.353 282.777 198.353 284.822C198.353 286.868 199.261 287.745 200.687 287.745C201.563 287.745 202.6 287.258 203.411 285.959ZM218.391 291.998H216.446V296.349H213.398V291.998H206.394V289.725L212.555 279.53H216.478V289.433H218.424V291.966L218.391 291.998ZM213.365 289.466V286.024C213.365 285.05 213.463 283.524 213.495 282.549H213.398C213.009 283.426 212.555 284.368 212.068 285.277L209.507 289.466H213.333H213.365ZM218.294 287.875C218.294 282.062 220.531 279.205 223.871 279.205C227.211 279.205 229.448 282.062 229.448 287.875C229.448 293.687 227.211 296.674 223.871 296.674C220.531 296.674 218.294 293.687 218.294 287.875ZM226.368 287.875C226.368 283.166 225.298 281.803 223.903 281.803C222.509 281.803 221.407 283.166 221.407 287.875C221.407 292.583 222.477 294.076 223.903 294.076C225.33 294.076 226.368 292.615 226.368 287.875ZM230.323 294.498C230.323 293.265 231.199 292.323 232.334 292.323C233.469 292.323 234.376 293.265 234.376 294.498C234.376 295.732 233.501 296.674 232.334 296.674C231.166 296.674 230.323 295.732 230.323 294.498ZM237.197 292.778C237.813 293.427 238.819 293.946 239.791 293.946C241.64 293.946 243.164 292.518 243.293 288.297C242.45 289.433 241.056 290.147 239.921 290.147C237.197 290.147 235.187 288.427 235.187 284.855C235.187 281.283 237.554 279.238 240.375 279.238C243.488 279.238 246.309 281.738 246.309 287.582C246.309 293.946 243.261 296.706 239.986 296.706C237.943 296.706 236.452 295.83 235.479 294.791L237.197 292.778ZM243.261 285.959C242.969 282.874 241.834 281.738 240.44 281.738C239.208 281.738 238.203 282.777 238.203 284.822C238.203 286.868 239.11 287.745 240.537 287.745C241.413 287.745 242.45 287.258 243.261 285.959ZM247.346 294.498C247.346 293.265 248.222 292.323 249.357 292.323C250.491 292.323 251.399 293.265 251.399 294.498C251.399 295.732 250.524 296.674 249.357 296.674C248.189 296.674 247.346 295.732 247.346 294.498Z" fill="#3E3A39"/>
<path d="M163.95 149.154H167.485V138.504H164.502V136.426C166.155 136.101 167.29 135.679 168.328 135.03H170.76V149.154H173.84V151.849H163.918V149.154H163.95ZM176.434 148.278C177.05 148.927 178.055 149.446 179.028 149.446C180.876 149.446 182.4 148.018 182.53 143.797C181.687 144.933 180.292 145.647 179.158 145.647C176.434 145.647 174.424 143.927 174.424 140.355C174.424 136.783 176.791 134.738 179.611 134.738C182.724 134.738 185.545 137.238 185.545 143.082C185.545 149.446 182.497 152.206 179.222 152.206C177.18 152.206 175.688 151.33 174.715 150.291L176.434 148.278ZM182.497 141.426C182.205 138.342 181.071 137.205 179.676 137.205C178.444 137.205 177.439 138.244 177.439 140.29C177.439 142.336 178.347 143.212 179.774 143.212C180.649 143.212 181.687 142.725 182.497 141.426ZM197.477 147.498H195.532V151.849H192.484V147.498H185.48V145.225L191.641 135.03H195.564V144.933H197.51V147.466L197.477 147.498ZM192.484 144.933V141.491C192.484 140.517 192.581 138.991 192.614 138.017H192.516C192.127 138.894 191.673 139.835 191.187 140.745L188.625 144.933H192.452H192.484ZM197.413 143.375C197.413 137.562 199.65 134.705 202.99 134.705C206.329 134.705 208.567 137.562 208.567 143.375C208.567 149.187 206.329 152.174 202.99 152.174C199.65 152.174 197.413 149.187 197.413 143.375ZM205.454 143.375C205.454 138.666 204.384 137.303 202.99 137.303C201.595 137.303 200.493 138.666 200.493 143.375C200.493 148.083 201.563 149.576 202.99 149.576C204.416 149.576 205.454 148.115 205.454 143.375ZM209.442 149.998C209.442 148.765 210.318 147.823 211.452 147.823C212.587 147.823 213.495 148.765 213.495 149.998C213.495 151.232 212.62 152.174 211.452 152.174C210.285 152.174 209.442 151.232 209.442 149.998ZM216.284 148.278C216.9 148.927 217.905 149.446 218.878 149.446C220.726 149.446 222.25 148.018 222.38 143.797C221.536 144.933 220.142 145.647 219.007 145.647C216.284 145.647 214.273 143.927 214.273 140.355C214.273 136.783 216.64 134.738 219.461 134.738C222.574 134.738 225.395 137.238 225.395 143.082C225.395 149.446 222.347 152.206 219.072 152.206C217.029 152.206 215.538 151.33 214.565 150.291L216.284 148.278ZM222.38 141.426C222.088 138.342 220.953 137.205 219.559 137.205C218.326 137.205 217.321 138.244 217.321 140.29C217.321 142.336 218.229 143.212 219.656 143.212C220.531 143.212 221.569 142.725 222.38 141.426ZM226.433 149.998C226.433 148.765 227.308 147.823 228.443 147.823C229.578 147.823 230.486 148.765 230.486 149.998C230.486 151.232 229.61 152.174 228.443 152.174C227.276 152.174 226.433 151.232 226.433 149.998ZM234.766 143.537C234.085 143.537 233.436 144.024 232.917 145.031L231.199 143.699C232.366 141.848 233.598 141.134 234.831 141.134C236.873 141.134 237.814 143.147 239.208 143.147C239.921 143.147 240.537 142.66 241.056 141.654L242.775 142.985C241.64 144.836 240.375 145.518 239.175 145.518C237.1 145.518 236.192 143.504 234.798 143.504L234.766 143.537ZM243.682 149.154H247.217V138.504H244.234V136.426C245.887 136.101 247.022 135.679 248.06 135.03H250.492V149.154H253.572V151.849H243.65V149.154H243.682ZM256.166 148.278C256.782 148.927 257.787 149.446 258.76 149.446C260.608 149.446 262.132 148.018 262.262 143.797C261.419 144.933 260.024 145.647 258.89 145.647C256.166 145.647 254.156 143.927 254.156 140.355C254.156 136.783 256.523 134.738 259.344 134.738C262.456 134.738 265.277 137.238 265.277 143.082C265.277 149.446 262.229 152.206 258.954 152.206C256.912 152.206 255.42 151.33 254.447 150.291L256.166 148.278ZM262.229 141.426C261.937 138.342 260.803 137.205 259.408 137.205C258.176 137.205 257.171 138.244 257.171 140.29C257.171 142.336 258.079 143.212 259.506 143.212C260.381 143.212 261.419 142.725 262.229 141.426ZM277.209 147.498H275.264V151.849H272.216V147.498H265.212V145.225L271.373 135.03H275.296V144.933H277.242V147.466L277.209 147.498ZM272.184 144.933V141.491C272.184 140.517 272.281 138.991 272.313 138.017H272.216C271.827 138.894 271.373 139.835 270.887 140.745L268.325 144.933H272.151H272.184ZM276.723 149.869L278.247 147.726C279.187 148.667 280.355 149.446 281.879 149.446C283.597 149.446 284.797 148.342 284.797 146.362C284.797 144.381 283.694 143.31 282.008 143.31C281.036 143.31 280.484 143.569 279.544 144.186L278.053 143.18L278.506 135.03H287.326V137.822H281.327L281.003 141.394C281.652 141.069 282.235 140.907 282.981 140.907C285.737 140.907 288.072 142.595 288.072 146.264C288.072 149.934 285.348 152.174 282.3 152.174C279.706 152.174 277.955 151.135 276.723 149.869ZM289.174 149.998C289.174 148.765 290.05 147.823 291.184 147.823C292.319 147.823 293.227 148.765 293.227 149.998C293.227 151.232 292.352 152.174 291.184 152.174C290.017 152.174 289.174 151.232 289.174 149.998ZM294.2 147.661C294.2 145.485 295.497 144.121 297.021 143.277V143.18C295.756 142.238 294.848 140.972 294.848 139.186C294.848 136.491 296.956 134.738 299.809 134.738C302.663 134.738 304.608 136.523 304.608 139.218C304.608 140.874 303.571 142.271 302.501 143.05V143.18C304.025 144.024 305.257 145.388 305.257 147.693C305.257 150.226 303.052 152.206 299.712 152.206C296.567 152.206 294.2 150.356 294.2 147.693V147.661ZM302.176 147.563C302.176 145.81 300.652 145.095 298.512 144.186C297.637 144.901 296.988 146.037 296.988 147.303C296.988 148.83 298.221 149.804 299.745 149.804C301.139 149.804 302.144 148.992 302.144 147.563H302.176ZM301.917 139.413C301.917 138.049 301.106 137.075 299.745 137.075C298.642 137.075 297.734 137.822 297.734 139.153C297.734 140.744 298.999 141.524 300.75 142.238C301.56 141.361 301.917 140.42 301.917 139.413ZM306.165 149.998C306.165 148.765 307.04 147.823 308.175 147.823C309.31 147.823 310.218 148.765 310.218 149.998C310.218 151.232 309.342 152.174 308.175 152.174C307.008 152.174 306.165 151.232 306.165 149.998Z" fill="#3E3A39"/>
<defs>
<filter id="filter0_d_594_2" x="0.444419" y="0.704063" width="689.907" height="457.872" filterUnits="userSpaceOnUse" color-interpolation-filters="sRGB">
<feFlood flood-opacity="0" result="BackgroundImageFix"/>
<feColorMatrix in="SourceAlpha" type="matrix" values="0 0 0 0 0 0 0 0 0 0 0 0 0 0 0 0 0 0 127 0" result="hardAlpha"/>
<feOffset/>
<feGaussianBlur stdDeviation="3.94826"/>
<feComposite in2="hardAlpha" operator="out"/>
<feColorMatrix type="matrix" values="0 0 0 0 0 0 0 0 0 0 0 0 0 0 0 0 0 0 0.25 0"/>
<feBlend mode="normal" in2="BackgroundImageFix" result="effect1_dropShadow_594_2"/>
<feBlend mode="normal" in="SourceGraphic" in2="effect1_dropShadow_594_2" result="shape"/>
</filter>
</defs>
</svg>
