<svg width="96" height="126" viewBox="0 0 96 126" fill="none" xmlns="http://www.w3.org/2000/svg">
<path d="M4.40176 111.876C3.64207 111.545 3.29406 110.661 3.62446 109.902L9.0086 97.5219C9.339 96.7622 10.2227 96.4142 10.9824 96.7446C11.7421 97.075 12.0901 97.9587 11.7597 98.7184L6.97378 109.723L17.9781 114.509C18.7378 114.839 19.0858 115.723 18.7554 116.482C18.425 117.242 17.5413 117.59 16.7816 117.26L4.40176 111.876ZM70 8L71.4942 7.86816C75.2651 50.6048 66.4955 73.7944 52.6264 87.7519C45.7245 94.6978 37.6469 99.2647 29.4661 102.829C21.3889 106.347 12.8686 109.013 5.54964 111.896L5 110.5L4.45036 109.104C12.1312 106.08 20.1733 103.605 28.2679 100.078C36.259 96.597 43.9626 92.2148 50.4983 85.6374C63.5043 72.5485 72.2349 50.3952 68.5058 8.13184L70 8Z" fill="#4A5A8C"/>
<path d="M69 2C71.4853 2 73.5 4.01472 73.5 6.5C73.5 8.98528 71.4853 11 69 11C66.5147 11 64.5 8.98528 64.5 6.5C64.5 4.01472 66.5147 2 69 2Z" fill="white" stroke="#4A5A8C" stroke-width="3"/>
</svg>
