<svg width="203" height="140" viewBox="0 0 203 140" fill="none" xmlns="http://www.w3.org/2000/svg">
<path d="M200.97 26.8556C201.601 27.3924 201.677 28.339 201.141 28.97L192.393 39.2524C191.856 39.8834 190.909 39.9597 190.278 39.4229C189.647 38.8861 189.571 37.9395 190.108 37.3085L197.884 28.1686L188.744 20.3928C188.113 19.856 188.036 18.9094 188.573 18.2784C189.11 17.6474 190.057 17.5711 190.688 18.1079L200.97 26.8556ZM17.7969 134.295L16.4441 133.647C35.8941 93.0418 58.3896 68.0629 87.8287 52.3378C117.204 36.6466 153.343 30.2557 199.877 26.5029L199.998 27.998L200.119 29.4932C153.653 33.2404 118.042 39.6005 89.2421 54.984C60.5059 70.3336 38.4008 94.7531 19.1497 134.943L17.7969 134.295Z" fill="#4A5A8C"/>
<circle cx="18" cy="133.998" r="4.5" fill="white" stroke="#4A5A8C" stroke-width="3"/>
</svg>
