<svg width="70" height="64" viewBox="0 0 70 64" fill="none" xmlns="http://www.w3.org/2000/svg">
<path d="M69.3851 55.7124C70.0547 55.2247 70.2022 54.2864 69.7144 53.6168L61.7658 42.7049C61.2781 42.0353 60.3398 41.8879 59.6702 42.3756C59.0006 42.8634 58.8532 43.8016 59.341 44.4712L66.4063 54.1707L56.7068 61.2361C56.0372 61.7239 55.8898 62.6621 56.3776 63.3317C56.8653 64.0013 57.8036 64.1487 58.4732 63.661L69.3851 55.7124ZM7.5 7.5L6.09127 8.01524C13.7627 28.9898 32.6862 50.391 68.2691 55.9818L68.502 54.5L68.7348 53.0182C34.3169 47.6104 16.2373 27.022 8.90873 6.98476L7.5 7.5Z" fill="#4A5A8C"/>
<circle cx="6" cy="6" r="4.5" fill="white" stroke="#4A5A8C" stroke-width="3"/>
</svg>
