<svg width="232" height="92" viewBox="0 0 232 92" fill="none" xmlns="http://www.w3.org/2000/svg">
<path d="M1.27434 33.3581C0.550062 32.956 0.288904 32.0429 0.691032 31.3186L7.24409 19.5157C7.64622 18.7915 8.55935 18.5303 9.28363 18.9324C10.0079 19.3346 10.2691 20.2477 9.86694 20.972L4.04201 31.4634L14.5334 37.2883C15.2577 37.6905 15.5189 38.6036 15.1167 39.3279C14.7146 40.0522 13.8015 40.3133 13.0772 39.9112L1.27434 33.3581ZM223.667 85.9026L222.76 87.0971C179.001 53.8575 145.164 34.4306 111.694 26.3027C78.2668 18.1848 45.0379 21.2987 2.41492 33.4889L2.00246 32.0467L1.59 30.6045C44.4856 18.3364 78.2813 15.1012 112.402 23.3874C146.482 31.6635 180.717 51.3937 224.574 84.7081L223.667 85.9026Z" fill="#4A5A8C"/>
<circle cx="225" cy="86" r="4.5" fill="white" stroke="#4A5A8C" stroke-width="3"/>
</svg>
