<svg width="33" height="25" viewBox="0 0 33 25" fill="none" xmlns="http://www.w3.org/2000/svg">
<path d="M19.4084 24.9809C18.8121 24.9809 18.1826 24.7483 17.7519 24.25C16.9236 23.353 16.9899 21.9244 17.8844 21.0938L27.2604 12.4891L17.8844 3.8844C16.9567 3.05382 16.9236 1.62524 17.7519 0.728221C18.5801 -0.202019 20.0048 -0.235245 20.8993 0.595327L32.0643 10.828C32.5281 11.2599 32.7932 11.8579 32.7932 12.4891C32.7932 13.1204 32.5281 13.7184 32.0643 14.1503L20.8993 24.3829C20.4686 24.7816 19.9385 24.9809 19.3753 24.9809H19.4084Z" fill="#B5B5B6"/>
<path d="M29.3475 14.7175H3.04177C1.81593 14.7175 0.822021 13.7208 0.822021 12.4916C0.822021 11.2623 1.81593 10.2656 3.04177 10.2656H29.3475C30.5733 10.2656 31.5673 11.2623 31.5673 12.4916C31.5673 13.7208 30.5733 14.7175 29.3475 14.7175Z" fill="#B5B5B6"/>
</svg>
