<svg width="252" height="150" viewBox="0 0 252 150" fill="none" xmlns="http://www.w3.org/2000/svg">
<path d="M2.61256 5.656C3.28244 5.35371 3.91889 5.18578 4.55529 5.18578C5.49313 5.18578 6.33045 5.38731 7.03384 5.79036C7.73722 6.19341 8.34015 6.7644 8.74208 7.46974C9.14401 8.20866 9.34495 9.01476 9.34495 9.95522C9.34495 10.8957 9.14401 11.7354 8.74208 12.4743C8.34015 13.2132 7.77071 13.7842 7.03384 14.2208C6.29696 14.6575 5.45963 14.859 4.55529 14.859C3.81841 14.859 3.14847 14.6911 2.51208 14.3888C1.87568 14.0865 1.33984 13.6499 0.904413 13.0789C0.468986 12.5079 0.167472 11.9033 0 11.198L1.37328 10.8621C1.54075 11.6346 1.90918 12.2392 2.51208 12.743C3.11498 13.2132 3.78492 13.4819 4.55529 13.4819C5.22517 13.4819 5.79454 13.3476 6.29696 13.0453C6.79937 12.743 7.20125 12.3399 7.5027 11.8025C7.80415 11.2651 7.93815 10.6606 7.93815 9.98881C7.93815 9.31705 7.80415 8.74606 7.5027 8.20866C7.20125 7.67126 6.79937 7.3018 6.29696 6.99951C5.79454 6.69722 5.19168 6.56287 4.55529 6.56287C4.15335 6.56287 3.68438 6.66363 3.24896 6.89875C2.78004 7.13386 2.41161 7.40256 2.11016 7.77203L1.03832 6.83157C1.44025 6.36134 1.9762 5.95829 2.64608 5.656H2.61256ZM0.636401 7.50332L1.07184 0.046875H8.17263V1.32321H2.44512L2.04321 7.73844L0.636401 7.50332Z" fill="#231815"/>
<path d="M7.83777 43.0054H9.94783V44.2817H7.83777V48.3794H6.43096V44.2817H0.20106L0 43.0054L6.46449 33.8359H7.83777V43.0054ZM6.43096 43.0054V36.3886L1.7753 43.0054H6.43096Z" fill="#231815"/>
<path d="M8.60808 76.1195C8.94302 76.7577 9.144 77.3958 9.144 78.0004C9.144 78.8065 8.94299 79.5454 8.57455 80.1836C8.17262 80.8218 7.63677 81.3256 6.96688 81.695C6.2635 82.0645 5.45956 82.2324 4.58871 82.2324C3.71786 82.2324 2.91402 82.0645 2.21064 81.695C1.50726 81.3256 0.971381 80.8218 0.569449 80.1836C0.167517 79.5454 0 78.8065 0 78.0004H1.40681C1.40681 78.5714 1.54077 79.0752 1.80872 79.5118C2.07668 79.9485 2.44507 80.318 2.91399 80.5531C3.38291 80.7882 3.91889 80.9225 4.55529 80.9225C5.19168 80.9225 5.72756 80.7882 6.19648 80.5531C6.6654 80.318 7.03379 79.9485 7.30175 79.5118C7.5697 79.0752 7.70376 78.5714 7.70376 78.0004C7.70376 77.4294 7.5697 76.9928 7.30175 76.5561C7.03379 76.1195 6.6654 75.8172 6.19648 75.5821C5.72756 75.347 5.19161 75.2462 4.58871 75.2462H3.55039V73.9027H4.58871C5.15812 73.9027 5.66057 73.802 6.096 73.5668C6.53142 73.3653 6.89985 73.063 7.13432 72.66C7.36878 72.2905 7.5027 71.8203 7.5027 71.3501C7.5027 70.5775 7.23478 69.9394 6.69887 69.4356C6.16296 68.9318 5.49312 68.6966 4.65577 68.6966C4.11986 68.6966 3.61743 68.7974 3.18201 69.0325C2.74658 69.2676 2.41164 69.5699 2.14369 69.973C1.90923 70.376 1.7752 70.8462 1.7752 71.3501H0.368491C0.368491 70.5775 0.535975 69.9058 0.904413 69.3012C1.27285 68.6966 1.77524 68.2264 2.44513 67.8905C3.08152 67.5547 3.81841 67.3867 4.65577 67.3867C5.49312 67.3867 6.23001 67.5547 6.86641 67.8905C7.5028 68.2264 8.00515 68.6966 8.37359 69.3012C8.74203 69.9058 8.90951 70.5775 8.90951 71.3501C8.90951 71.921 8.74209 72.492 8.44064 73.0966C8.1392 73.7012 7.70375 74.1714 7.16784 74.5409C7.77074 74.9103 8.23964 75.4142 8.60808 76.0523V76.1195Z" fill="#231815"/>
<path d="M0.870886 113.845C1.03836 113.677 1.30635 113.441 1.64129 113.106C2.8136 111.964 3.78488 111.023 4.52176 110.251C5.25864 109.478 5.89502 108.672 6.39744 107.866C6.89985 107.06 7.16784 106.321 7.16784 105.649C7.16784 105.045 7.03391 104.474 6.79945 104.003C6.56499 103.533 6.22999 103.13 5.79456 102.861C5.35913 102.593 4.89021 102.458 4.3208 102.458C3.7179 102.458 3.14854 102.66 2.57913 103.097C2.00973 103.533 1.60778 104.071 1.30633 104.709L0 104.138C0.368438 103.264 0.971435 102.559 1.7753 101.988C2.57916 101.417 3.44995 101.148 4.3208 101.148C5.15816 101.148 5.89505 101.35 6.53144 101.719C7.16783 102.089 7.67029 102.626 8.03873 103.298C8.40717 103.97 8.57465 104.742 8.57465 105.616C8.57465 106.489 8.30669 107.362 7.73729 108.303C7.16789 109.243 6.49798 110.116 5.72761 110.956C4.95724 111.796 3.95243 112.77 2.71314 113.912C2.17723 114.416 1.64128 114.953 1.10537 115.457L0.0670541 114.583C0.435492 114.248 0.66992 113.979 0.870886 113.811V113.845ZM0.0670541 114.617H8.80903V115.893H0.268012L0.0670541 114.617Z" fill="#231815"/>
<path d="M7.44594 149.611H6.03913V136.747L3.82849 138.326L3.02466 137.218L6.00571 135.102H7.41241V149.645L7.44594 149.611Z" fill="#231815"/>
<path d="M250.314 109.375H15.8535C15.3846 109.375 15.0161 109.005 15.0161 108.535C15.0161 108.065 15.3846 107.695 15.8535 107.695H250.314C250.783 107.695 251.151 108.065 251.151 108.535C251.151 109.005 250.783 109.375 250.314 109.375Z" fill="#E8E1C9"/>
<path d="M250.314 6.59735H15.8532C15.3843 6.59735 15.0159 6.22788 15.0159 5.75766C15.0159 5.28743 15.3843 4.91797 15.8532 4.91797H250.314C250.783 4.91797 251.151 5.28743 251.151 5.75766C251.151 6.22788 250.783 6.59735 250.314 6.59735Z" fill="#E8E1C9"/>
<path d="M250.314 40.8552H15.8535C15.3846 40.8552 15.0161 40.4857 15.0161 40.0155C15.0161 39.5452 15.3846 39.1758 15.8535 39.1758H250.314C250.783 39.1758 251.151 39.5452 251.151 40.0155C251.151 40.4857 250.783 40.8552 250.314 40.8552Z" fill="#E8E1C9"/>
<path d="M250.314 75.1169H15.8535C15.3846 75.1169 15.0161 74.7474 15.0161 74.2772C15.0161 73.807 15.3846 73.4375 15.8535 73.4375H250.314C250.783 73.4375 251.151 73.807 251.151 74.2772C251.151 74.7474 250.783 75.1169 250.314 75.1169Z" fill="#E8E1C9"/>
<path d="M250.314 143.635H15.0159V5.75766C15.0159 5.28743 15.3843 4.91797 15.8532 4.91797C16.3221 4.91797 16.6906 5.28743 16.6906 5.75766V141.955H250.314C250.783 141.955 251.151 142.325 251.151 142.795C251.151 143.265 250.783 143.635 250.314 143.635Z" fill="#B39E4F"/>
<path d="M210.724 47.8072C215.111 47.8072 218.662 44.247 218.662 39.847C218.662 35.447 215.111 31.8867 210.724 31.8867C206.336 31.8867 202.785 35.447 202.785 39.847C202.785 44.247 206.336 47.8072 210.724 47.8072Z" fill="#898989"/>
<path d="M85.7895 144.739C32.0311 144.739 16.4897 111.722 15.8533 110.278L20.442 108.195C21.0449 109.539 36.0504 141.279 89.6413 139.633C99.5557 139.331 112.016 133.856 112.518 133.621L114.561 138.223C113.154 138.861 100.494 144.369 89.7753 144.671C88.4356 144.705 87.0957 144.739 85.8229 144.739H85.7895Z" fill="#E22F61"/>
<path d="M119.786 131.505C119.016 130.329 119.317 128.784 120.49 128.012C121.662 127.239 123.203 127.542 123.973 128.717C124.744 129.893 124.409 131.438 123.27 132.21C122.834 132.479 122.366 132.613 121.897 132.613C121.059 132.613 120.255 132.244 119.786 131.505ZM128.327 125.493C127.457 124.384 127.624 122.806 128.696 121.933C129.768 121.059 131.376 121.227 132.246 122.302C133.117 123.377 132.95 124.955 131.878 125.862C131.409 126.232 130.84 126.4 130.27 126.4C129.567 126.4 128.83 126.097 128.327 125.493ZM136.333 118.708C135.361 117.7 135.428 116.122 136.433 115.148C137.438 114.207 139.046 114.275 139.984 115.282C140.921 116.29 140.888 117.902 139.883 118.842C139.414 119.313 138.811 119.514 138.175 119.514C137.505 119.514 136.835 119.246 136.366 118.708H136.333ZM143.835 111.453C142.831 110.479 142.797 108.901 143.768 107.893C144.706 106.885 146.314 106.852 147.319 107.826C148.324 108.766 148.357 110.345 147.386 111.386C146.883 111.89 146.247 112.159 145.577 112.159C144.941 112.159 144.338 111.923 143.835 111.453ZM150.97 103.795C149.931 102.888 149.797 101.276 150.735 100.235C151.64 99.1937 153.247 99.0594 154.286 99.9998C155.324 100.907 155.424 102.485 154.52 103.56C154.018 104.131 153.314 104.4 152.611 104.4C152.041 104.4 151.439 104.198 150.97 103.795ZM157.769 95.8349C156.664 94.9617 156.53 93.3495 157.401 92.2747C158.305 91.1999 159.879 91.0319 160.951 91.9052C162.023 92.7785 162.19 94.3571 161.319 95.4319C160.817 96.0701 160.114 96.3723 159.377 96.3723C158.807 96.3723 158.271 96.2044 157.803 95.8349H157.769ZM164.267 87.606C163.128 86.7663 162.927 85.1877 163.765 84.0793C164.602 82.9709 166.143 82.7358 167.281 83.5755C168.387 84.4152 168.588 85.9938 167.784 87.1022C167.281 87.7739 166.511 88.1098 165.774 88.1098C165.238 88.1098 164.702 87.9419 164.267 87.606ZM170.463 79.1755C169.325 78.3694 169.057 76.7908 169.861 75.6488C170.631 74.5404 172.205 74.2381 173.344 75.0442C174.483 75.8503 174.751 77.3954 173.947 78.5373C173.478 79.2427 172.708 79.6121 171.904 79.6121C171.401 79.6121 170.899 79.4778 170.463 79.1755ZM176.392 70.5099C175.22 69.771 174.885 68.2259 175.622 67.0504C176.392 65.8748 177.933 65.5389 179.105 66.2779C180.277 67.0504 180.612 68.5954 179.842 69.771C179.373 70.5099 178.569 70.913 177.732 70.913C177.263 70.913 176.794 70.8122 176.392 70.5099Z" fill="#E22F61"/>
<path d="M191.966 40.6836L169.224 63.1873L188.952 72.5918L191.966 40.6836Z" fill="#E22F61"/>
</svg>
