<svg width="269" height="148" viewBox="0 0 269 148" fill="none" xmlns="http://www.w3.org/2000/svg">
<path d="M267.994 6.4463H16.0683C15.6044 6.4463 15.24 6.08085 15.24 5.61573C15.24 5.15061 15.6044 4.78516 16.0683 4.78516H267.994C268.458 4.78516 268.822 5.15061 268.822 5.61573C268.822 6.08085 268.458 6.4463 267.994 6.4463Z" fill="#E8E1C9"/>
<path d="M267.994 40.333H16.0683C15.6044 40.333 15.24 39.9676 15.24 39.5024C15.24 39.0373 15.6044 38.6719 16.0683 38.6719H267.994C268.458 38.6719 268.822 39.0373 268.822 39.5024C268.822 39.9676 268.458 40.333 267.994 40.333Z" fill="#E8E1C9"/>
<path d="M267.994 74.2197H16.0683C15.6044 74.2197 15.24 73.8543 15.24 73.3892C15.24 72.924 15.6044 72.5586 16.0683 72.5586H267.994C268.458 72.5586 268.822 72.924 268.822 73.3892C268.822 73.8543 268.458 74.2197 267.994 74.2197Z" fill="#E8E1C9"/>
<path d="M267.994 108.106H16.0683C15.6044 108.106 15.24 107.741 15.24 107.276C15.24 106.811 15.6044 106.445 16.0683 106.445H267.994C268.458 106.445 268.822 106.811 268.822 107.276C268.822 107.741 268.458 108.106 267.994 108.106Z" fill="#E8E1C9"/>
<path d="M2.58419 5.51499C3.2468 5.21599 3.87629 5.04988 4.50577 5.04988C5.43343 5.04988 6.26169 5.24921 6.95744 5.64788C7.65318 6.04656 8.24953 6.61134 8.6471 7.30902C9.04467 8.03993 9.24345 8.83728 9.24345 9.76752C9.24345 10.6978 9.04467 11.5283 8.6471 12.2592C8.24953 12.9901 7.68631 13.5549 6.95744 13.9868C6.22856 14.4187 5.4003 14.6181 4.50577 14.6181C3.77689 14.6181 3.11428 14.4519 2.4848 14.1529C1.85532 13.8539 1.32523 13.422 0.894527 12.8572C0.463829 12.2925 0.165653 11.6944 0 10.9968L1.35836 10.6645C1.52401 11.4287 1.88845 12.0267 2.4848 12.525C3.08115 12.9901 3.74376 13.2559 4.50577 13.2559C5.16838 13.2559 5.7316 13.123 6.22856 12.824C6.72552 12.525 7.12309 12.1263 7.42127 11.5948C7.71944 11.0632 7.85196 10.4652 7.85196 9.80074C7.85196 9.13628 7.71944 8.5715 7.42127 8.03993C7.12309 7.50837 6.72552 7.14291 6.22856 6.84391C5.7316 6.5449 5.13525 6.41201 4.50577 6.41201C4.1082 6.41201 3.64437 6.51168 3.21367 6.74424C2.74984 6.9768 2.38541 7.24258 2.08723 7.60803L1.02705 6.67779C1.42462 6.21268 1.95471 5.814 2.61732 5.51499H2.58419ZM0.662613 7.37547L1.09331 0H8.11701V1.26247H2.45167L2.0541 7.60803L0.662613 7.37547Z" fill="#231815"/>
<path d="M267.994 141.996H15.24V5.61573C15.24 5.15061 15.6044 4.78516 16.0683 4.78516C16.5321 4.78516 16.8965 5.15061 16.8965 5.61573V140.334H267.994C268.458 140.334 268.822 140.7 268.822 141.165C268.822 141.63 268.458 141.996 267.994 141.996Z" fill="#B39E4F"/>
<path d="M7.75257 42.4566H9.8398V43.719H7.75257V47.7722H6.36109V43.719H0.198784L0 42.4566L6.39422 33.3867H7.75257V42.4566ZM6.36109 42.4566V35.9117L1.75592 42.4566H6.36109Z" fill="#231815"/>
<path d="M8.51458 75.2161C8.84588 75.8473 9.04467 76.4785 9.04467 77.0765C9.04467 77.8739 8.84588 78.6048 8.48145 79.236C8.08388 79.8673 7.55379 80.3656 6.89118 80.7311C6.19543 81.0965 5.4003 81.2626 4.5389 81.2626C3.6775 81.2626 2.88237 81.0965 2.18662 80.7311C1.49088 80.3656 0.960789 79.8673 0.563221 79.236C0.165653 78.6048 0 77.8739 0 77.0765H1.39149C1.39149 77.6413 1.52401 78.1397 1.78905 78.5716C2.0541 79.0035 2.41854 79.3689 2.88237 79.6015C3.3462 79.834 3.87629 79.9669 4.50577 79.9669C5.13525 79.9669 5.66534 79.834 6.12917 79.6015C6.593 79.3689 6.95744 79.0035 7.22248 78.5716C7.48753 78.1397 7.62005 77.6413 7.62005 77.0765C7.62005 76.5118 7.48753 76.0799 7.22248 75.648C6.95744 75.2161 6.593 74.9171 6.12917 74.6845C5.66534 74.4519 5.13525 74.3523 4.5389 74.3523H3.51185V73.0234H4.5389C5.10212 73.0234 5.59908 72.9237 6.02978 72.6911C6.46048 72.4918 6.82491 72.1928 7.05683 71.7941C7.28874 71.4287 7.42127 70.9635 7.42127 70.4984C7.42127 69.7343 7.15622 69.1031 6.62613 68.6047C6.09604 68.1064 5.43343 67.8738 4.60516 67.8738C4.07507 67.8738 3.57811 67.9735 3.14741 68.206C2.71671 68.4386 2.38541 68.7376 2.12036 69.1363C1.88845 69.535 1.75592 70.0001 1.75592 70.4984H0.364437C0.364437 69.7343 0.53009 69.0698 0.894527 68.4718C1.25896 67.8738 1.75592 67.4087 2.41854 67.0765C3.04802 66.7442 3.77689 66.5781 4.60516 66.5781C5.43343 66.5781 6.1623 66.7442 6.79178 67.0765C7.42127 67.4087 7.91822 67.8738 8.28266 68.4718C8.6471 69.0698 8.81275 69.7343 8.81275 70.4984C8.81275 71.0632 8.6471 71.628 8.34892 72.226C8.05075 72.824 7.62005 73.2891 7.08996 73.6546C7.68631 74.02 8.15014 74.5184 8.51458 75.1496V75.2161Z" fill="#231815"/>
<path d="M0.861397 112.527C1.02705 112.361 1.2921 112.128 1.6234 111.796C2.78297 110.667 3.74376 109.736 4.47264 108.972C5.20151 108.208 5.83099 107.411 6.32795 106.613C6.82491 105.816 7.08996 105.085 7.08996 104.421C7.08996 103.823 6.95744 103.258 6.72552 102.793C6.49361 102.328 6.1623 101.929 5.7316 101.663C5.3009 101.397 4.83707 101.264 4.27385 101.264C3.6775 101.264 3.11428 101.464 2.55106 101.896C1.98784 102.328 1.59027 102.859 1.2921 103.49L0 102.926C0.364437 102.062 0.960789 101.364 1.75592 100.799C2.55106 100.235 3.41246 99.9688 4.27385 99.9688C5.10212 99.9688 5.83099 100.168 6.46048 100.534C7.08996 100.899 7.58692 101.431 7.95136 102.095C8.31579 102.759 8.48145 103.524 8.48145 104.387C8.48145 105.251 8.2164 106.115 7.65318 107.045C7.08996 107.975 6.42735 108.839 5.66534 109.67C4.90334 110.5 3.90942 111.464 2.68358 112.593C2.15349 113.092 1.6234 113.623 1.09331 114.122L0.0662613 113.258C0.430698 112.926 0.662613 112.66 0.861397 112.494V112.527ZM0.0662613 113.291H8.71336V114.554H0.265045L0.0662613 113.291Z" fill="#231815"/>
<path d="M7.36494 147.938H5.97346V135.214L3.78683 136.775L2.9917 135.679L5.94033 133.586H7.33181V147.971L7.36494 147.938Z" fill="#231815"/>
<path d="M54.9637 141.958C25.4111 141.958 14.2793 108.635 14.1467 108.27L18.8844 106.741C19.3814 108.237 31.1096 143.121 63.2795 136.044C104.991 126.908 134.113 59.2992 134.378 58.6016L138.95 60.5617C137.724 63.4521 108.569 131.227 64.3397 140.928C61.0266 141.659 57.9123 141.991 54.9637 141.991V141.958Z" fill="#94D4E7"/>
<path d="M144.715 40.6289L123.146 63.7852L143.058 72.2903L144.715 40.6289Z" fill="#94D4E7"/>
<path d="M178.011 141.958C148.458 141.958 137.326 108.635 137.194 108.27L141.932 106.741C142.428 108.237 154.157 143.121 186.327 136.044C228.038 126.908 257.16 59.2992 257.425 58.6016L261.997 60.5617C260.771 63.4521 231.616 131.227 187.387 140.928C184.074 141.659 180.959 141.991 178.011 141.991V141.958Z" fill="#94D4E7"/>
<path d="M267.729 40.6289L246.161 63.7852L266.072 72.2903L267.729 40.6289Z" fill="#94D4E7"/>
</svg>
