<svg width="271" height="148" viewBox="0 0 271 148" fill="none" xmlns="http://www.w3.org/2000/svg">
<path d="M269.329 6.4463H17.4037C16.9399 6.4463 16.5754 6.08085 16.5754 5.61573C16.5754 5.15061 16.9399 4.78516 17.4037 4.78516H269.329C269.793 4.78516 270.157 5.15061 270.157 5.61573C270.157 6.08085 269.793 6.4463 269.329 6.4463Z" fill="#E8E1C9"/>
<path d="M4.08004 5.51499C4.74265 5.21599 5.37211 5.04988 6.0016 5.04988C6.92925 5.04988 7.75754 5.24921 8.45328 5.64788C9.14902 6.04656 9.74536 6.61134 10.1429 7.30902C10.5405 8.03993 10.7393 8.83728 10.7393 9.76752C10.7393 10.6978 10.5405 11.5283 10.1429 12.2592C9.74536 12.9901 9.18216 13.5549 8.45328 13.9868C7.72441 14.4187 6.89612 14.6181 6.0016 14.6181C5.27272 14.6181 4.61013 14.4519 3.98065 14.1529C3.35117 13.8539 2.82106 13.422 2.39037 12.8572C1.95967 12.2925 1.6615 11.6944 1.49585 10.9968L2.85419 10.6645C3.01985 11.4287 3.3843 12.0267 3.98065 12.525C4.577 12.9901 5.23959 13.2559 6.0016 13.2559C6.66421 13.2559 7.22744 13.123 7.7244 12.824C8.22136 12.525 8.61893 12.1263 8.91711 11.5948C9.21528 11.0632 9.3478 10.4652 9.3478 9.80074C9.3478 9.13628 9.21528 8.5715 8.91711 8.03993C8.61893 7.50837 8.22136 7.14291 7.7244 6.84391C7.22744 6.5449 6.63108 6.41201 6.0016 6.41201C5.60403 6.41201 5.1402 6.51168 4.7095 6.74424C4.24567 6.9768 3.88125 7.24258 3.58307 7.60803L2.52289 6.67779C2.92046 6.21268 3.45054 5.814 4.11315 5.51499H4.08004ZM2.15845 7.37547L2.58914 0H9.61285V1.26247H3.94751L3.54993 7.60803L2.15845 7.37547Z" fill="#231815"/>
<path d="M7.75256 42.4566H9.83978V43.719H7.75256V47.7722H6.36108V43.719H0.198776L0 42.4566L6.39419 33.3867H7.75256V42.4566ZM6.32794 42.4566V35.9117L1.72278 42.4566H6.32794Z" fill="#231815"/>
<path d="M10.0104 75.2161C10.3417 75.8473 10.5405 76.4785 10.5405 77.0765C10.5405 77.8739 10.3417 78.6048 9.97729 79.236C9.57972 79.8673 9.04962 80.3656 8.38701 80.7311C7.69126 81.0965 6.89613 81.2626 6.03473 81.2626C5.17334 81.2626 4.3782 81.0965 3.68246 80.7311C2.98672 80.3656 2.45663 79.8673 2.05906 79.236C1.6615 78.6048 1.49585 77.8739 1.49585 77.0765H2.88733C2.88733 77.6413 3.01984 78.1397 3.28488 78.5716C3.54993 79.0035 3.91437 79.3689 4.3782 79.6015C4.84203 79.834 5.37211 79.9669 6.00159 79.9669C6.63108 79.9669 7.16119 79.834 7.62501 79.6015C8.08884 79.3689 8.45326 79.0035 8.71831 78.5716C8.98335 78.1397 9.11588 77.6413 9.11588 77.0765C9.11588 76.5118 8.98335 76.0799 8.71831 75.648C8.45326 75.2161 8.08884 74.9171 7.62501 74.6845C7.16119 74.4519 6.63108 74.3523 6.03473 74.3523H5.00769V73.0234H6.03473C6.59795 73.0234 7.09493 72.9237 7.52563 72.6911C7.95633 72.4918 8.32075 72.1928 8.55267 71.7941C8.78458 71.4287 8.91711 70.9635 8.91711 70.4984C8.91711 69.7343 8.65207 69.1031 8.12198 68.6047C7.59189 68.1064 6.92927 67.8738 6.10101 67.8738C5.57092 67.8738 5.07395 67.9735 4.64325 68.206C4.21255 68.4386 3.88125 68.7376 3.61621 69.1363C3.38429 69.535 3.25177 70.0001 3.25177 70.4984H1.86026C1.86026 69.7343 2.02593 69.0698 2.39037 68.4718C2.7548 67.8738 3.25176 67.4087 3.91437 67.0765C4.54386 66.7442 5.27274 66.5781 6.10101 66.5781C6.92927 66.5781 7.65813 66.7442 8.28762 67.0765C8.9171 67.4087 9.41407 67.8738 9.77851 68.4718C10.1429 69.0698 10.3086 69.7343 10.3086 70.4984C10.3086 71.0632 10.1429 71.628 9.84476 72.226C9.54659 72.824 9.1159 73.2891 8.58581 73.6546C9.18216 74.02 9.64599 74.5184 10.0104 75.1496V75.2161Z" fill="#231815"/>
<path d="M2.35725 112.527C2.52291 112.361 2.78794 112.128 3.11924 111.796C4.27882 110.667 5.23961 109.736 5.96848 108.972C6.69736 108.208 7.32683 107.411 7.82379 106.613C8.32075 105.816 8.58581 105.085 8.58581 104.421C8.58581 103.823 8.45328 103.258 8.22137 102.793C7.98945 102.328 7.65814 101.929 7.22744 101.663C6.79674 101.397 6.33293 101.264 5.76971 101.264C5.17335 101.264 4.61012 101.464 4.0469 101.896C3.48368 102.328 3.08612 102.859 2.78794 103.49L1.49585 102.926C1.86029 102.062 2.45663 101.364 3.25177 100.799C4.04691 100.235 4.90831 99.9688 5.76971 99.9688C6.59797 99.9688 7.32683 100.168 7.95632 100.534C8.5858 100.899 9.08277 101.431 9.44721 102.095C9.81165 102.759 9.97729 103.524 9.97729 104.387C9.97729 105.251 9.71224 106.115 9.14902 107.045C8.5858 107.975 7.92319 108.839 7.16119 109.67C6.39918 110.5 5.40526 111.464 4.17942 112.593C3.64933 113.092 3.11926 113.623 2.58917 114.122L1.5621 113.258C1.92654 112.926 2.15847 112.66 2.35725 112.494V112.527ZM1.59524 113.291H10.2423V114.554H1.79401L1.59524 113.291Z" fill="#231815"/>
<path d="M7.36494 147.938H5.97346V135.214L3.78683 136.775L2.9917 135.679L5.94032 133.586H7.33181V147.971L7.36494 147.938Z" fill="#231815"/>
<path d="M269.329 40.333H17.4037C16.9399 40.333 16.5754 39.9676 16.5754 39.5024C16.5754 39.0373 16.9399 38.6719 17.4037 38.6719H269.329C269.793 38.6719 270.157 39.0373 270.157 39.5024C270.157 39.9676 269.793 40.333 269.329 40.333Z" fill="#E8E1C9"/>
<path d="M269.329 74.2197H17.4037C16.9399 74.2197 16.5754 73.8543 16.5754 73.3892C16.5754 72.924 16.9399 72.5586 17.4037 72.5586H269.329C269.793 72.5586 270.157 72.924 270.157 73.3892C270.157 73.8543 269.793 74.2197 269.329 74.2197Z" fill="#E8E1C9"/>
<path d="M269.329 108.106H17.4037C16.9399 108.106 16.5754 107.741 16.5754 107.276C16.5754 106.811 16.9399 106.445 17.4037 106.445H269.329C269.793 106.445 270.157 106.811 270.157 107.276C270.157 107.741 269.793 108.106 269.329 108.106Z" fill="#E8E1C9"/>
<path d="M269.329 141.996H16.5754V5.61573C16.5754 5.15061 16.9399 4.78516 17.4037 4.78516C17.8675 4.78516 18.232 5.15061 18.232 5.61573V140.334H269.329C269.793 140.334 270.157 140.7 270.157 141.165C270.157 141.63 269.793 141.996 269.329 141.996Z" fill="#B39E4F"/>
<path d="M22.2075 73.1223C20.551 73.1223 18.9607 72.9894 17.4036 72.7569L18.1987 67.8399C49.0102 72.6904 103.808 19.0023 104.338 18.4375L107.817 21.9923C105.597 24.1851 55.6364 73.1223 22.2075 73.1223Z" fill="#E22F61"/>
<path d="M120.705 5.78125L91.9476 18.9375L107.121 34.3861L120.705 5.78125Z" fill="#E22F61"/>
<path d="M175.603 141.966C146.05 141.966 134.918 108.643 134.786 108.278L139.523 106.749C140.02 108.244 151.749 143.128 183.918 136.052C225.63 126.916 254.752 59.3071 255.017 58.6094L259.589 60.5695C258.363 63.4599 229.208 131.235 184.979 140.936C181.666 141.667 178.551 141.999 175.603 141.999V141.966Z" fill="#94D4E7"/>
<path d="M265.32 40.6328L243.785 63.7891L263.664 72.2942L265.32 40.6328Z" fill="#94D4E7"/>
</svg>
