<svg width="856" height="75" viewBox="0 0 856 75" fill="none" xmlns="http://www.w3.org/2000/svg">
<path fill-rule="evenodd" clip-rule="evenodd" d="M4.66995 0.908592C4.66977 0.90874 4.67013 0.908445 4.66995 0.908592L0.879396 4.08875C0.775323 4.17532 0.750132 4.33088 0.838972 4.45843L1.64428 5.5443L5.82003 2.0346L5.01328 0.948889C4.93277 0.835715 4.78828 0.8106 4.66995 0.908592ZM6.31149 2.69599L2.13514 6.20619L9.5837 16.2498L10.5489 15.4385L7.95668 11.8377C7.82361 11.6528 7.85431 11.3863 8.02526 11.2424C8.19621 11.0985 8.44267 11.1317 8.57574 11.3166L11.1683 14.9179L13.769 12.7321L6.31149 2.69599ZM13.9535 13.6514L10.3427 16.6864L12.4186 17.3897L14.0778 15.9941L13.9535 13.6514ZM14.1324 17.0229L13.3295 17.6983L14.1836 17.9876L14.1324 17.0229ZM14.7007 12.9225L14.9994 18.5515C15.0067 18.6906 14.9505 18.8247 14.8489 18.9103C14.7474 18.996 14.6134 19.0222 14.4905 18.9806L9.41288 17.2604C9.33857 17.2352 9.27287 17.1867 9.22414 17.121L1.37177 6.53283C1.32365 6.50554 1.28003 6.46695 1.24451 6.41753C1.21158 6.37172 1.1887 6.32091 1.17551 6.26821L0.219004 4.97845C-0.125554 4.49409 -0.0620695 3.80227 0.399035 3.41804C0.398788 3.41825 0.399283 3.41783 0.399035 3.41804L4.19033 0.237263C4.63731 -0.134532 5.27657 -0.068106 5.63235 0.427632L14.6302 12.5368C14.6961 12.6254 14.7263 12.7389 14.714 12.8518C14.7114 12.8759 14.7069 12.8995 14.7007 12.9225Z" fill="#B5B5B6"/>
<line x1="1.5" y1="31.5" x2="854.5" y2="31.5001" stroke="#E6E6E6" stroke-width="3" stroke-linecap="round" stroke-dasharray="0.1 5"/>
<line x1="1.5" y1="73.5" x2="854.5" y2="73.5001" stroke="#E6E6E6" stroke-width="3" stroke-linecap="round" stroke-dasharray="0.1 5"/>
</svg>
