<svg width="24" height="24" viewBox="0 0 24 24" fill="none" xmlns="http://www.w3.org/2000/svg">
<path d="M12 24C18.6244 24 24 18.6244 24 12C24 5.37557 18.6244 0 12 0C5.37557 0 0 5.37557 0 12C0 18.6244 5.37557 24 12 24Z" fill="#8A979F"/>
<path d="M13.0597 14.25V19.8156H14.933V3.66173H13.0597V7.27259H10.8063C10.2361 5.80653 9.20447 4.802 7.65696 4.802C5.07777 4.802 3.9375 7.57123 3.9375 10.8291C3.9375 14.0871 5.07777 16.9106 7.65696 16.9106C9.25877 16.9106 10.3176 15.8246 10.8606 14.2228H13.0325L13.0597 14.25ZM18.3266 3.33594H16.4262V20.6301H18.3266V3.33594ZM9.50311 10.8834C9.50311 13.3812 8.93297 15.2002 7.68411 15.2002C6.43524 15.2002 5.8651 13.3812 5.8651 10.8834C5.8651 8.38571 6.46239 6.53956 7.68411 6.53956C8.90583 6.53956 9.50311 8.38571 9.50311 10.8834ZM11.3764 10.8834C11.3764 10.2047 11.3221 9.49883 11.2135 8.84725H13.0325V12.7025H11.2407C11.3221 12.1323 11.3764 11.5079 11.3764 10.8834Z" fill="white"/>
</svg>
