<svg width="151" height="117" viewBox="0 0 151 117" fill="none" xmlns="http://www.w3.org/2000/svg">
<path d="M7.36082 74.7002C2.46663 74.7002 0 72.3537 0 67.6801C0 63.0065 2.32961 60.6601 7.00845 60.6601C11.6873 60.6601 13.9974 63.0065 13.9974 67.6801C13.9974 72.3537 11.7852 74.7002 7.34128 74.7002H7.36082ZM7.02805 61.6026C2.99524 61.6026 0.978839 63.622 0.978839 67.6609C0.978839 71.6998 3.11268 73.7193 7.38042 73.7193C11.1783 73.7193 13.0773 71.6998 13.0773 67.6609C13.0773 63.622 11.0609 61.6026 7.02805 61.6026ZM6.4799 70.9882C6.63652 68.7764 6.63652 66.5646 6.4799 64.3528C6.46033 64.1028 6.59735 63.9682 6.891 63.9489C7.16507 63.9297 7.32169 64.0451 7.32169 64.2951C7.49788 66.5454 7.49788 68.8149 7.32169 71.0651C7.32169 71.3344 7.16507 71.4498 6.891 71.4305C6.59735 71.4113 6.46033 71.2575 6.4799 71.0074V70.9882ZM18.6762 68.2763C17.7757 67.6801 17.0122 67.6994 16.3857 68.3341C16.1117 68.6226 15.8376 68.6033 15.5831 68.3341C15.3286 68.0263 15.309 67.7378 15.544 67.4878C16.5424 66.4492 17.5995 66.2954 18.7154 67.0454C19.5768 67.6609 20.3011 67.6801 20.8884 67.1031C21.2212 66.7762 21.5344 66.7569 21.8085 67.0454C22.0826 67.3339 22.0826 67.6417 21.7693 67.9686C20.8101 68.9303 19.7725 69.0649 18.6958 68.3341L18.6762 68.2763ZM30.7551 74.7002C25.8609 74.7002 23.3942 72.3537 23.3942 67.6801C23.3942 63.0065 25.7239 60.6601 30.4027 60.6601C35.0815 60.6601 37.3916 63.0065 37.3916 67.6801C37.3916 72.3537 35.1794 74.7002 30.7355 74.7002H30.7551ZM30.4222 61.6026C26.3894 61.6026 24.373 63.622 24.373 67.6609C24.373 71.6998 26.5069 73.7193 30.7747 73.7193C34.5726 73.7193 36.4715 71.6998 36.4715 67.6609C36.4715 63.622 34.4551 61.6026 30.4222 61.6026ZM30.3831 67.2955C31.4794 67.2955 32.0079 66.8531 31.9492 65.9492C31.8905 65.026 31.3815 64.5836 30.4222 64.6221C29.4238 64.6606 28.8757 65.026 28.7778 65.6991C28.7386 65.9684 28.5821 66.0646 28.3276 66.0261C28.0731 65.9876 27.9556 65.853 27.9947 65.603C28.1905 64.5259 28.954 63.9682 30.3048 63.8912C30.9704 63.8528 31.5577 64.0067 32.0471 64.3336C32.4974 64.6413 32.7323 65.1606 32.7519 65.9107C32.7519 66.6608 32.3995 67.2378 31.6556 67.6417C32.3995 68.0648 32.7323 68.6995 32.6149 69.5457C32.4583 70.7189 31.7143 71.3151 30.4222 71.3728C29.1498 71.4113 28.4254 70.9113 28.2297 69.8535C28.1905 69.6034 28.2884 69.4688 28.5625 69.4303C28.817 69.3919 28.9736 69.488 29.0127 69.7573C29.091 70.3535 29.5804 70.642 30.4222 70.6228C31.2445 70.6228 31.7143 70.2573 31.8318 69.5457C32.008 68.4879 31.5381 67.9686 30.4222 67.9686C30.3244 67.9686 30.2461 67.9686 30.1873 67.9686C30.0111 67.9494 29.835 67.9302 29.6588 67.9109C29.4043 67.8917 29.2868 67.7763 29.3064 67.5455C29.326 67.3147 29.463 67.2185 29.7371 67.2378C29.9329 67.257 30.1482 67.2762 30.3635 67.2955H30.4222H30.3831Z" fill="#231815"/>
<path d="M42.7754 62.5135C42.7754 62.0904 43.0299 61.8789 43.5585 61.8789H47.2976C48.9029 61.8789 49.7056 62.6289 49.7056 64.1099C49.7056 66.4371 49.2357 68.3219 48.3156 69.7259C49.314 70.1298 50.1754 70.7452 50.8998 71.5915C51.1934 71.9569 51.1738 72.3031 50.8606 72.5916C50.4886 72.957 50.1754 72.9378 49.9013 72.5339C49.3532 71.7646 48.5505 71.1684 47.4934 70.7645C46.4558 71.7838 45.0659 72.4762 43.3236 72.8032C42.8537 72.8801 42.5796 72.6878 42.5209 72.2069C42.423 71.7453 42.6188 71.4761 43.0886 71.3992C46.5145 70.726 48.2373 68.2065 48.2373 63.8406C48.2373 63.3598 48.022 63.129 47.5717 63.129H43.6563C43.1082 63.129 42.8537 62.9174 42.8537 62.4943L42.7754 62.5135ZM53.2489 73.1494C53.5622 69.2451 53.5622 65.3216 53.2489 61.4173C53.2098 60.9749 53.4447 60.7441 53.9341 60.7057C54.4236 60.6672 54.6976 60.8788 54.7172 61.3019C55.0304 65.2831 55.0304 69.2643 54.7172 73.2648C54.6976 73.7071 54.4431 73.8994 53.9341 73.861C53.4447 73.8225 53.2098 73.5917 53.2489 73.1494ZM60.5707 68.3796C57.967 68.4757 56.6749 67.2641 56.6749 64.783C56.6749 62.302 57.967 61.0326 60.5707 60.9365C62.2739 60.8595 63.4093 61.3596 63.9966 62.4174C64.0749 62.3982 64.1728 62.3789 64.2707 62.3789H67.4617C67.4421 62.1097 67.4225 61.8212 67.4225 61.5327C67.3834 60.9941 67.5987 60.7249 68.0882 60.6864C68.5776 60.6479 68.8516 60.8595 68.8712 61.2826C69.0474 63.5713 69.0474 65.8793 68.8712 68.168C68.8516 68.6104 68.5972 68.8027 68.0882 68.7642C67.5987 68.7258 67.3638 68.4565 67.4225 67.918C67.4421 67.5333 67.4617 67.1295 67.4813 66.7448H64.2707C64.1532 66.7448 64.0358 66.7448 63.9379 66.7063C63.3506 67.7449 62.2347 68.3027 60.5707 68.3604V68.3796ZM60.5707 62.1866C58.985 62.2443 58.1823 63.0905 58.1823 64.7253C58.1823 66.3601 58.985 67.1871 60.5707 67.1295C62.1564 67.0718 62.9395 66.2063 62.9395 64.5522C62.9395 62.8982 62.1564 62.1289 60.5707 62.1866ZM58.2802 70.7837C58.2802 70.3606 58.5347 70.149 59.0632 70.149H67.912C68.421 70.149 68.695 70.3606 68.695 70.7837V71.7261C68.695 73.0532 68.421 74.2072 67.8532 75.188C67.6183 75.5919 67.305 75.6689 66.8939 75.4188C66.4437 75.1688 66.3262 74.8611 66.5612 74.4572C66.9723 73.7263 67.1876 72.8224 67.1876 71.7646V71.4761H59.0632C58.5542 71.4761 58.2802 71.2645 58.2802 70.8222V70.7837ZM64.4077 63.6675C64.4469 63.9368 64.4664 64.206 64.4664 64.4753C64.4664 64.8215 64.4469 65.1485 64.3881 65.4562H67.54C67.54 64.86 67.54 64.2638 67.54 63.6483H64.4077V63.6675ZM70.7506 72.5339C70.7701 72.1108 70.9855 71.8992 71.3966 71.9184C74.0982 72.0723 76.7998 72.0723 79.521 71.9184C79.9321 71.8992 80.1474 72.0915 80.167 72.5339C80.1866 72.957 79.9908 73.1686 79.5797 73.1878C76.839 73.3417 74.0982 73.3417 71.3574 73.1878C70.9463 73.1686 70.7506 72.9378 70.7702 72.5339H70.7506ZM79.2273 65.0331C79.2273 67.591 77.9156 68.8989 75.2728 68.9566C72.6495 69.0143 71.3379 67.7641 71.3379 65.2062C71.3379 62.6482 72.6495 61.3596 75.2728 61.3019C77.9156 61.2442 79.2273 62.4943 79.2273 65.0331ZM75.2728 67.7257C76.8977 67.668 77.7003 66.764 77.7003 65.0331C77.7003 63.3021 76.8977 62.4751 75.2728 62.5135C73.6675 62.5712 72.8649 63.4559 72.8649 65.1869C72.8649 66.9179 73.6675 67.7641 75.2728 67.7064V67.7257ZM81.5765 73.1494C81.8897 69.2451 81.8897 65.3216 81.5765 61.4173C81.5374 60.9749 81.7723 60.7441 82.2617 60.7057C82.7511 60.6672 83.0252 60.8788 83.0448 61.3019C83.358 65.2831 83.358 69.2643 83.0448 73.2648C83.0252 73.7071 82.7707 73.8994 82.2617 73.861C81.7723 73.8225 81.5374 73.5917 81.5765 73.1494ZM88.4284 69.8413C88.448 69.4182 88.6633 69.2066 89.0744 69.2258C93.1856 69.4951 97.3163 69.4951 101.427 69.2258C101.838 69.2066 102.034 69.3989 102.073 69.8413C102.093 70.2644 101.897 70.476 101.486 70.4952C99.6655 70.6298 97.8448 70.6875 96.0242 70.7068V74.0533C96.0242 74.611 95.7697 74.8995 95.2607 74.8995C94.7517 74.8995 94.4972 74.611 94.4972 74.0533V70.7068C92.6766 70.7068 90.8363 70.6298 89.0157 70.4952C88.6046 70.476 88.4088 70.2452 88.4284 69.8413ZM89.6813 62.0135C89.6813 61.5904 89.9554 61.3788 90.484 61.3788H99.7242C100.253 61.3788 100.527 61.5904 100.527 62.0135V62.9367C100.527 64.8407 100.214 66.3409 99.6067 67.4179C99.3718 67.8026 99.0586 67.8795 98.6474 67.6487C98.1972 67.3987 98.0797 67.0718 98.2951 66.6871C98.7649 65.8601 98.9998 64.6292 98.9998 62.9751V62.6867H90.484C89.9554 62.6867 89.6813 62.4751 89.6813 62.052V62.0135ZM103.777 63.8599C103.777 63.4367 104.031 63.2252 104.56 63.2252H105.969V61.4365C105.969 60.9364 106.224 60.6672 106.733 60.6672C107.242 60.6672 107.496 60.9172 107.496 61.4365V63.2252H107.711C109.258 63.2252 110.022 63.956 110.022 65.4369C110.022 67.341 109.63 68.8797 108.847 70.0529C109.454 70.3798 110.002 70.8991 110.531 71.5915C110.805 71.9761 110.805 72.3031 110.491 72.5916C110.119 72.957 109.806 72.9378 109.532 72.5339C109.043 71.8223 108.514 71.3415 107.986 71.0722C107.065 71.9185 105.832 72.4954 104.286 72.8032C103.816 72.8801 103.542 72.6878 103.483 72.2069C103.385 71.7453 103.581 71.4761 104.051 71.3992C107.085 70.8222 108.592 68.745 108.592 65.1869C108.592 64.7061 108.377 64.4753 107.927 64.4753H104.618C104.07 64.4753 103.816 64.2637 103.816 63.8406L103.777 63.8599ZM112.704 67.4564C112.704 65.5524 112.625 63.6483 112.469 61.7442C112.429 61.3019 112.664 61.0711 113.154 61.0326C113.643 60.9942 113.917 61.1865 113.956 61.6288C114.27 65.3985 114.27 69.1681 113.956 72.9378C113.917 73.3802 113.663 73.5725 113.154 73.534C112.664 73.4955 112.429 73.2647 112.469 72.8224C112.586 71.4761 112.664 70.1105 112.684 68.7642H111.666C111.177 68.7642 110.942 68.5527 110.942 68.1296C110.942 67.7064 111.177 67.4949 111.666 67.4949H112.704V67.4564ZM115.699 73.1494C116.012 69.2451 116.012 65.3216 115.699 61.4173C115.66 60.9749 115.895 60.7441 116.384 60.7057C116.873 60.6672 117.148 60.8788 117.167 61.3019C117.48 65.2831 117.48 69.2643 117.167 73.2648C117.148 73.7071 116.893 73.8994 116.384 73.861C115.895 73.8225 115.66 73.5917 115.699 73.1494ZM126.368 63.129C126.368 63.9945 126.133 64.7638 125.644 65.4369C126.309 65.7062 126.955 66.2255 127.562 66.9564C127.856 67.3218 127.836 67.6487 127.523 67.9372C127.151 68.3027 126.838 68.2834 126.564 67.8795C126.055 67.1679 125.409 66.6871 124.587 66.4371C123.51 67.2064 121.983 67.7641 119.967 68.1488C119.497 68.245 119.223 68.0526 119.164 67.5718C119.066 67.1102 119.262 66.841 119.732 66.7448C123.158 66.0716 124.88 64.8023 124.88 62.8982C124.88 62.6482 124.763 62.5328 124.528 62.5328H120.28C119.732 62.5328 119.477 62.3212 119.477 61.8981C119.477 61.475 119.732 61.2634 120.26 61.2634H124.293C125.683 61.2634 126.388 61.8789 126.388 63.1098L126.368 63.129ZM120.808 70.7837C120.808 70.3606 121.063 70.149 121.591 70.149H130.44C130.949 70.149 131.223 70.3606 131.223 70.7837V71.7261C131.223 73.0532 130.949 74.2072 130.381 75.188C130.146 75.5919 129.833 75.6689 129.422 75.4188C128.972 75.1688 128.854 74.8611 129.089 74.4572C129.5 73.7263 129.716 72.8224 129.716 71.7646V71.4761H121.591C121.082 71.4761 120.808 71.2645 120.808 70.8222V70.7837ZM130.068 63.9368C130.049 63.1482 130.009 62.3597 129.97 61.5519C129.931 61.0134 130.146 60.7441 130.636 60.7057C131.125 60.6672 131.399 60.8788 131.419 61.3019C131.595 63.5906 131.595 65.8986 131.419 68.1873C131.399 68.6296 131.145 68.8219 130.636 68.7835C130.146 68.745 129.912 68.4758 129.97 67.9372C130.029 67.0333 130.068 66.1293 130.068 65.2254H128.052C127.562 65.2254 127.308 65.0138 127.308 64.5907C127.308 64.1676 127.562 63.956 128.052 63.956H130.068V63.9368ZM137.253 69.0527C134.649 69.1489 133.357 67.8218 133.357 65.11C133.357 62.3981 134.649 61.0326 137.253 60.9365C139.837 60.8403 141.129 62.1289 141.129 64.8407C141.129 67.5526 139.837 68.9566 137.253 69.072V69.0527ZM137.253 62.1866C135.667 62.2443 134.864 63.2059 134.864 65.0523C134.864 66.8987 135.667 67.8603 137.253 67.8026C138.839 67.7449 139.622 66.7833 139.622 64.8984C139.622 63.0136 138.839 62.1289 137.253 62.1866ZM136 71.4953C135.922 70.9376 136.098 70.5914 136.509 70.4567C137.077 70.2836 137.39 70.4568 137.468 71.0145L137.723 73.1686C137.781 73.7263 138.075 74.0148 138.584 74.0341C140.718 74.1302 142.852 74.1302 144.946 74.0341C145.397 74.0148 145.612 74.1879 145.612 74.5726C145.612 75.0534 145.397 75.2842 144.946 75.3227C142.813 75.4573 140.463 75.4573 137.879 75.3227C136.94 75.2842 136.431 74.8226 136.313 73.9764L135.98 71.5145L136 71.4953ZM144.105 70.4375C144.34 67.4179 144.34 64.4176 144.105 61.3981C144.065 60.9557 144.3 60.7249 144.79 60.6864C145.279 60.6479 145.553 60.8595 145.573 61.2826C145.827 64.3599 145.827 67.4564 145.573 70.5529C145.553 70.9953 145.299 71.1876 144.79 71.1491C144.3 71.1107 144.065 70.8799 144.105 70.4375ZM3.89575 93.4627C1.29204 93.5589 0 91.6741 0 87.8467C0 84.0194 1.29204 82.0768 3.89575 81.9807C5.83385 81.9037 7.04762 82.9231 7.51746 85.0387H10.9043C10.8651 83.9809 10.8064 82.9231 10.7281 81.8461C10.6889 81.4037 10.9239 81.1729 11.4133 81.1344C11.9027 81.096 12.1768 81.3075 12.1963 81.7306C12.5096 85.7118 12.5096 89.6931 12.1963 93.6935C12.1768 94.1359 11.9223 94.3282 11.4133 94.2897C10.9239 94.2512 10.6889 94.0205 10.7281 93.5781C10.8064 92.5011 10.8651 91.4433 10.9043 90.3662H7.45874C6.94975 92.3664 5.75554 93.3858 3.89575 93.4435V93.4627ZM3.89575 83.2308C2.31003 83.2693 1.50745 84.7887 1.50745 87.789C1.50745 90.7893 2.31003 92.2703 3.89575 92.2126C5.48146 92.1549 6.26459 90.6163 6.26459 87.6159C6.26459 84.6156 5.48146 83.1731 3.89575 83.2308ZM7.73285 86.3273C7.772 86.712 7.79156 87.1351 7.79156 87.5775C7.79156 88.116 7.77197 88.6352 7.71324 89.0968H10.963C10.963 88.1737 10.963 87.2505 10.963 86.3273H7.73285ZM14.0953 83.2885C14.0953 82.8654 14.3497 82.6538 14.8587 82.6538H17.0318V81.7114C17.0318 81.2114 17.2863 80.9613 17.7953 80.9613C18.3043 80.9613 18.5588 81.2114 18.5588 81.7114V82.6538H20.7318C21.2408 82.6538 21.5148 82.8654 21.5148 83.2885C21.5148 83.7116 21.2604 83.9424 20.7318 83.9424H20.4773C20.8492 84.404 21.0254 85.0387 21.0254 85.8657C21.0254 88.0775 19.9487 89.2315 17.8149 89.3469C15.681 89.443 14.6042 88.366 14.6042 86.135C14.6042 85.1926 14.8587 84.4617 15.3482 83.9424H14.8587C14.3497 83.9424 14.0953 83.7309 14.0953 83.2885ZM19.4984 85.9042C19.4984 84.6541 19.0286 84.0001 18.0889 83.9424H17.7953C16.6794 84.0001 16.1117 84.7117 16.1117 86.0965C16.1117 87.4813 16.6794 88.1544 17.8149 88.0775C18.9307 88.0006 19.4984 87.2697 19.4984 85.8849V85.9042ZM27.6228 93.2319C27.6228 95.0398 25.8805 95.963 22.3958 96.0207C18.9112 96.0784 17.1689 95.2129 17.1689 93.405C17.1689 91.5971 18.9112 90.6547 22.3958 90.597C25.8805 90.5393 27.6228 91.424 27.6228 93.2319ZM22.3958 94.7898C24.8625 94.7321 26.1154 94.2128 26.1154 93.2319C26.1154 92.2511 24.8821 91.7895 22.3958 91.8472C19.9292 91.9049 18.6763 92.4241 18.6763 93.405C18.6763 94.3859 19.9096 94.8283 22.3958 94.7898ZM24.4122 81.9038C24.4905 82.8462 24.5297 83.7886 24.5297 84.731H26.4286C26.4286 83.7693 26.3895 82.8077 26.3308 81.8653C26.2916 81.4229 26.5265 81.1921 27.016 81.1537C27.5054 81.1152 27.7794 81.3268 27.799 81.7499C27.9752 84.154 27.9752 86.5773 27.799 88.9814C27.7794 89.4238 27.525 89.6161 27.016 89.5777C26.5265 89.5392 26.2916 89.3084 26.3308 88.8661C26.3895 87.9044 26.4286 86.962 26.4286 86.0003H24.5297C24.5297 86.9428 24.471 87.8659 24.4122 88.8084C24.3731 89.2507 24.1186 89.443 23.6096 89.4046C23.1202 89.3661 22.8852 89.1353 22.9244 88.693C23.1006 86.4812 23.1006 84.2501 22.9244 82.0384C22.8852 81.596 23.1202 81.3652 23.6096 81.3268C24.099 81.2883 24.3731 81.4806 24.4122 81.923V81.9038ZM33.7895 82.9615C33.7895 82.5384 34.044 82.3269 34.5726 82.3269H39.6038C40.1128 82.3269 40.3869 82.5384 40.3869 82.9615V84.5771C40.3869 90.3278 38.4096 93.2319 34.4747 93.3088C34.044 93.3088 33.8091 93.1165 33.8091 92.6742C33.7895 92.251 33.9852 92.0202 34.4355 92.0202C37.3916 91.9818 38.8795 89.5007 38.8795 84.6348V83.6155H34.5922C34.0832 83.6155 33.8091 83.4039 33.8091 82.9808L33.7895 82.9615ZM42.8144 85.0387C42.7752 84.0963 42.7165 83.1539 42.6382 82.1922C42.599 81.7499 42.834 81.5191 43.3234 81.4806C43.8128 81.4422 44.0869 81.6345 44.126 82.0768C44.4393 85.8465 44.4393 89.6161 44.126 93.3858C44.0869 93.8282 43.8324 94.0205 43.3234 93.982C42.834 93.9435 42.599 93.7127 42.6382 93.2704C42.7165 92.3087 42.7752 91.3471 42.8144 90.4047H42.1096C41.6202 90.4047 41.3853 90.1931 41.3853 89.77C41.3853 89.3469 41.6202 89.1161 42.1096 89.1161H42.8731C42.8731 88.1929 42.8731 87.2697 42.8731 86.3465H42.1096C41.6202 86.3465 41.3853 86.135 41.3853 85.7119C41.3853 85.2887 41.6202 85.0772 42.1096 85.0772H42.8144V85.0387ZM45.8683 93.5974C46.1815 89.6931 46.1815 85.7696 45.8683 81.8653C45.8292 81.4229 46.0641 81.1921 46.5535 81.1537C47.0429 81.1152 47.317 81.3268 47.3366 81.7499C47.6498 85.7311 47.6498 89.7123 47.3366 93.7128C47.317 94.1551 47.0625 94.3474 46.5535 94.309C46.0641 94.2705 45.8292 94.0397 45.8683 93.5974ZM49.49 83.1154C49.49 82.7115 49.7445 82.5 50.2731 82.5H53.0726V81.6922C53.0726 81.2114 53.3271 80.9613 53.8361 80.9613C54.3451 80.9613 54.5996 81.2114 54.5996 81.6922V82.5H57.3795C57.8885 82.5 58.1625 82.7115 58.1625 83.1154C58.1625 83.5193 57.908 83.7116 57.3795 83.7116H57.0467C57.2816 84.0193 57.4187 84.3848 57.4187 84.8464C57.4187 86.2888 56.479 87.1351 54.5996 87.3659V88.7122C55.7938 88.7122 56.9488 88.693 58.0647 88.6353C58.4758 88.6353 58.6911 88.8276 58.7107 89.2507C58.7303 89.6738 58.5345 89.8854 58.1234 89.8854C55.5001 89.9623 52.7593 89.9623 49.9011 89.8854C49.49 89.8854 49.2943 89.6546 49.3138 89.2507C49.3334 88.8276 49.5488 88.616 49.9599 88.6353C51.0171 88.6737 52.0546 88.693 53.0921 88.7122V87.4236C51.2128 87.3274 50.2731 86.5581 50.2731 85.0964C50.2731 84.5194 50.4689 84.0578 50.88 83.6924H50.2927C49.7837 83.6924 49.5096 83.5001 49.5096 83.0962L49.49 83.1154ZM50.9779 92.0779C50.9779 91.6548 51.2324 91.4433 51.761 91.4433H60.6096C61.1186 91.4433 61.3927 91.6548 61.3927 92.0779V92.3664C61.3927 93.5589 61.1186 94.6359 60.5509 95.6168C60.316 96.0207 60.0028 96.0976 59.5917 95.8476C59.1414 95.5976 59.024 95.2899 59.2589 94.886C59.6113 94.2705 59.8266 93.5396 59.8658 92.7319H51.761C51.252 92.7319 50.9779 92.5203 50.9779 92.0972V92.0779ZM53.8165 83.7309C52.4461 83.7886 51.761 84.2309 51.761 85.0579C51.761 85.885 52.4461 86.3081 53.8165 86.2504C55.1869 86.2119 55.8721 85.7503 55.8721 84.8656C55.8721 84.154 55.3631 83.7886 54.3255 83.7309H53.8165ZM60.1202 89.4046C60.316 86.8851 60.316 84.3656 60.1202 81.8653C60.081 81.4229 60.316 81.1921 60.8054 81.1537C61.2948 81.1152 61.5689 81.3268 61.5885 81.7499C61.8038 84.3271 61.8038 86.9235 61.5885 89.52C61.5689 89.9623 61.3144 90.1546 60.8054 90.1162C60.316 90.0777 60.081 89.8469 60.1202 89.4046ZM63.0959 87.4428C63.1155 87.0197 63.3308 86.8081 63.7419 86.8274C67.853 87.0966 71.9837 87.0966 76.0949 86.8274C76.506 86.8081 76.7018 87.0005 76.7409 87.4428C76.7605 87.8659 76.5647 88.0775 76.1536 88.0968C72.0033 88.366 67.8531 88.366 63.7028 88.0968C63.2917 88.0775 63.0959 87.8467 63.1154 87.4428H63.0959ZM64.4075 90.2124C64.4075 89.7892 64.662 89.5969 65.1906 89.5969H74.1568C75.0573 89.5969 75.4684 89.9623 75.3901 90.7124L75.1943 92.1933C75.0964 92.9627 74.6266 93.3473 73.8239 93.3473H66.3261L66.5023 94.5975H74.0002C74.5483 94.5975 74.8028 94.809 74.8028 95.2129C74.8028 95.6168 74.5483 95.8284 74.0197 95.8284H66.3261C65.543 95.8284 65.0927 95.4437 64.9949 94.6936L64.7991 93.2127C64.7012 92.4626 65.1123 92.0972 66.052 92.0972H73.6674L73.8239 90.847H65.2102C64.662 90.847 64.4075 90.6355 64.4075 90.2316V90.2124ZM75.3901 83.3654C75.3901 84.9618 73.5695 85.808 69.9282 85.8657C66.2869 85.9234 64.4467 85.1541 64.4467 83.5385C64.4467 81.923 66.2673 81.1152 69.9282 81.0575C73.5695 80.9998 75.3901 81.7691 75.3901 83.3654ZM69.9282 84.654C72.5515 84.5963 73.8631 84.1732 73.8631 83.3654C73.8631 82.5577 72.5515 82.1922 69.9282 82.2499C67.2853 82.3076 65.9737 82.7307 65.9737 83.5385C65.9737 84.3463 67.2853 84.731 69.9282 84.654Z" fill="#231815"/>
<path d="M0.000698445 41.2366C-0.0188737 40.5559 0.37259 40.2253 1.21419 40.2253H6.59654C7.10542 40.2253 7.37941 40.4392 7.37941 40.867C7.37941 41.2949 7.1054 41.5089 6.57695 41.5089H2.03622C1.70349 41.5089 1.54692 41.7422 1.54692 42.1896L1.68391 49.1522C1.68391 49.6773 1.95793 49.969 2.52552 50.0273C3.69986 50.1635 5.32431 50.0468 7.41854 49.7162C7.84912 49.6384 8.06445 49.794 8.06445 50.1635C8.06445 50.6497 7.82955 50.922 7.35982 50.9998C5.06988 51.4276 3.05397 51.486 1.33162 51.2137C0.587879 51.0776 0.196432 50.6302 0.196432 49.8718L0.0202897 41.2171L0.000698445 41.2366ZM10.4523 51.6221C10.7654 47.6741 10.7654 43.7066 10.4523 39.7585C10.4131 39.3112 10.648 39.0778 11.1373 39.0389C11.6266 39 11.9006 39.2139 11.9202 39.6418C12.2333 43.6677 12.2333 47.6935 11.9202 51.7388C11.9006 52.1861 11.6462 52.3806 11.1373 52.3417C10.648 52.3028 10.4131 52.0695 10.4523 51.6221ZM14.1318 40.867C14.1318 40.4392 14.3863 40.2253 14.9147 40.2253H18.653C20.2579 40.2253 21.0603 40.9837 21.0603 42.4813C21.0603 44.8346 20.5906 46.7405 19.6707 48.1603C20.6689 48.5687 21.5301 49.191 22.2543 50.0468C22.5479 50.4163 22.5283 50.7664 22.2152 51.0581C21.8433 51.4276 21.5301 51.4082 21.2561 50.9998C20.7081 50.2218 19.9056 49.6189 18.8487 49.2105C17.8114 50.2413 16.4218 50.9414 14.6799 51.2721C14.2101 51.3498 13.9361 51.1554 13.8774 50.6692C13.7795 50.2024 13.9753 49.9301 14.445 49.8523C17.8701 49.1716 19.5924 46.6238 19.5924 42.209C19.5924 41.7228 19.3771 41.4894 18.927 41.4894H15.0125C14.4645 41.4894 14.2101 41.2755 14.2101 40.8476L14.1318 40.867ZM24.6029 51.6221C24.9161 47.6741 24.9161 43.7066 24.6029 39.7585C24.5638 39.3112 24.7986 39.0778 25.2879 39.0389C25.7772 39 26.0512 39.2139 26.0708 39.6418C26.384 43.6677 26.384 47.6935 26.0708 51.7388C26.0512 52.1861 25.7968 52.3806 25.2879 52.3417C24.7986 52.3028 24.5638 52.0695 24.6029 51.6221ZM28.3021 40.6337C28.2825 39.953 28.6739 39.6223 29.5155 39.6223H34.8979C35.4067 39.6223 35.6808 39.8168 35.6808 40.2253C35.6808 40.6337 35.4067 40.8282 34.8783 40.8282H30.3376C30.0049 40.8282 29.8483 41.0615 29.8483 41.5089V42.2673H34.5456C35.074 42.2673 35.3481 42.4618 35.3481 42.8508C35.3481 43.2592 35.074 43.4732 34.5456 43.4732H29.907V43.9983C29.9266 44.6012 30.2202 44.9124 30.7682 44.9513C32.1774 45.068 33.8018 45.0291 35.6416 44.8735C36.0722 44.8346 36.3071 44.9902 36.3071 45.3402C36.3071 45.7681 36.0722 46.0209 35.622 46.0598C33.567 46.2738 31.5511 46.2738 29.5547 46.0598C28.8305 45.9821 28.4587 45.4958 28.4391 44.6206L28.3412 40.6726L28.3021 40.6337ZM30.1223 48.0241C30.1223 47.6352 30.3767 47.4212 30.8856 47.4212H39.1451C40.0454 47.4212 40.4564 47.7908 40.3781 48.5493L40.2215 50.0857C40.1236 50.8636 39.6539 51.2526 38.8319 51.2526H32.0208L32.1969 52.6918H39.008C39.5561 52.6918 39.8105 52.8863 39.8105 53.2947C39.8105 53.7031 39.5561 53.8976 39.0276 53.8976H32.0012C31.2379 53.8976 30.7877 53.5086 30.6899 52.7501L30.4745 51.2137C30.3767 50.4552 30.7877 50.0857 31.7272 50.0857H38.6753L38.7927 48.6465H30.866C30.3376 48.6465 30.0635 48.452 30.0635 48.0436L30.1223 48.0241ZM38.8906 42.1896C38.8906 41.3922 38.8319 40.5753 38.7732 39.7391C38.734 39.2917 38.9689 39.0583 39.4582 39.0194C39.9475 38.9805 40.2215 39.1945 40.2411 39.6223C40.4172 41.645 40.4172 43.6871 40.2411 45.7292C40.2215 46.1765 39.9671 46.371 39.4582 46.3321C38.9689 46.3127 38.734 46.0598 38.7732 45.6125C38.8319 44.9124 38.871 44.1928 38.871 43.4732H37.6184C37.1291 43.4732 36.8943 43.2592 36.8943 42.8314C36.8943 42.4035 37.1291 42.1896 37.6184 42.1896H38.8906ZM46.1323 40.867C46.1323 40.4392 46.3868 40.2253 46.9152 40.2253H53.1391C53.648 40.2253 53.922 40.4392 53.922 40.867V42.5008C53.922 48.2964 51.5538 51.2526 46.8173 51.3304C46.3867 51.3304 46.1519 51.1359 46.1519 50.6886C46.1323 50.2607 46.328 50.0273 46.7782 50.0273C50.5361 49.969 52.415 47.4796 52.415 42.5591V41.5283H46.9347C46.4259 41.5283 46.1519 41.3144 46.1519 40.8865L46.1323 40.867ZM56.7795 51.6221C57.0927 47.6741 57.0927 43.7066 56.7795 39.7585C56.7404 39.3112 56.9753 39.0778 57.4646 39.0389C57.9539 39 58.2279 39.2139 58.2475 39.6418C58.5606 43.6677 58.5606 47.6935 58.2475 51.7388C58.2279 52.1861 57.9735 52.3806 57.4646 52.3417C56.9753 52.3028 56.7404 52.0695 56.7795 51.6221ZM60.3026 40.867C60.3026 40.4392 60.557 40.2253 61.0854 40.2253H67.3094C67.8183 40.2253 68.0923 40.4392 68.0923 40.867V42.5008C68.0923 48.2964 65.7241 51.2526 60.9876 51.3304C60.557 51.3304 60.3221 51.1359 60.3221 50.6886C60.3025 50.2607 60.4983 50.0273 60.9484 50.0273C64.7063 49.969 66.5852 47.4796 66.5852 42.5591V41.5283H61.105C60.5962 41.5283 60.3221 41.3144 60.3221 40.8865L60.3026 40.867ZM70.9498 51.6221C71.263 47.6741 71.263 43.7066 70.9498 39.7585C70.9107 39.3112 71.1456 39.0778 71.6349 39.0389C72.1242 39 72.3982 39.2139 72.4177 39.6418C72.7309 43.6677 72.7309 47.6935 72.4177 51.7388C72.3982 52.1861 72.1438 52.3806 71.6349 52.3417C71.1456 52.3028 70.9107 52.0695 70.9498 51.6221ZM77.1738 44.5234V46.0793C77.1738 46.4099 77.3108 46.5849 77.5457 46.5849H84.9243C85.4919 46.5849 85.7659 46.7989 85.7659 47.2073C85.7659 47.6546 85.492 47.8685 84.9635 47.8685H81.5188V50.5719C83.3194 50.5719 85.1201 50.4941 86.9207 50.358C87.3317 50.3385 87.5274 50.533 87.5666 50.9803C87.5862 51.4082 87.3905 51.6221 86.9794 51.6416C82.8301 51.9139 78.6808 51.9139 74.5315 51.6416C74.1205 51.6221 73.9248 51.3888 73.9444 50.9803C73.964 50.5525 74.1792 50.3385 74.5902 50.358C76.3909 50.4941 78.1916 50.5525 80.0118 50.5719V47.8685H77.0172C76.1561 47.8685 75.7254 47.4796 75.7254 46.6822L75.6667 44.3095C75.6472 43.5899 76.0386 43.2203 76.841 43.2203H84.0436C84.2785 43.2203 84.3959 43.0453 84.3959 42.6952L84.435 41.1782H76.43C75.8624 41.1782 75.5884 40.9643 75.5884 40.5364C75.5884 40.1086 75.8037 39.8752 76.2539 39.8752H84.7873C85.5702 39.8752 85.9617 40.2447 85.9421 40.9838L85.9029 43.337C85.8834 44.1344 85.4332 44.5234 84.5525 44.5234H77.1738ZM92.9685 40.2641C92.9685 39.8363 93.223 39.6223 93.7514 39.6223H99.9753C100.484 39.6223 100.758 39.8363 100.758 40.2641V41.2171C100.758 44.854 98.39 46.7016 93.6536 46.7989C93.223 46.7989 92.9881 46.6044 92.9881 46.1765C92.9685 45.7487 93.1642 45.5153 93.6144 45.5153C97.3722 45.4375 99.2512 44.0177 99.2512 41.256V40.9254H93.771C93.2621 40.9254 92.9881 40.7115 92.9881 40.2836L92.9685 40.2641ZM97.6854 53.8976C96.3741 53.8976 95.6303 53.2753 95.4542 52.0305L95.1606 49.794C95.0432 48.8993 95.552 48.452 96.6872 48.452H103.616C104.751 48.452 105.24 48.8993 105.123 49.794L104.849 52.0305C104.673 53.2753 103.929 53.8976 102.618 53.8976H97.6854ZM97.2548 49.7162C96.883 49.7162 96.7068 49.9495 96.7655 50.4163L96.9221 51.7194C97.0004 52.3028 97.2352 52.5946 97.6658 52.5946H102.618C103.048 52.5946 103.283 52.3028 103.361 51.7194L103.518 50.4163C103.577 49.9495 103.401 49.7162 103.009 49.7162H97.2548ZM103.733 42.4813C103.733 41.6255 103.694 40.7698 103.635 39.8946C103.596 39.3501 103.811 39.0778 104.301 39.0389C104.79 39 105.064 39.2139 105.084 39.6418C105.26 41.9562 105.26 44.29 105.084 46.6044C105.064 47.0517 104.81 47.2462 104.301 47.2073C103.811 47.1684 103.577 46.8961 103.635 46.3516C103.694 45.4958 103.733 44.6401 103.733 43.7843H102.148C101.659 43.7843 101.404 43.5704 101.404 43.1426C101.404 42.7147 101.659 42.5008 102.148 42.5008H103.733V42.4813ZM107.354 45.1263C109.233 43.9983 110.192 42.3646 110.192 40.2058C110.192 39.6418 110.446 39.3695 110.975 39.3695C111.503 39.3695 111.719 39.6418 111.719 40.1669C111.719 40.9837 111.621 41.7423 111.405 42.4424C112.834 43.1815 113.754 44.3289 114.146 45.8653C114.243 46.2932 114.067 46.5849 113.598 46.7016C113.128 46.8378 112.834 46.7017 112.736 46.2738C112.384 45.0874 111.758 44.2317 110.877 43.726C110.27 44.8151 109.331 45.7098 108.078 46.3905C107.609 46.6044 107.276 46.5072 107.041 46.0598C106.826 45.6514 106.923 45.3402 107.374 45.1069L107.354 45.1263ZM109.664 49.2299C109.664 48.8021 109.938 48.5881 110.466 48.5881H119.606C120.135 48.5881 120.409 48.8021 120.409 49.2299V50.1829C120.409 51.5249 120.135 52.6918 119.567 53.6837C119.352 54.0921 119.019 54.1699 118.608 53.9171C118.158 53.6642 118.04 53.3531 118.275 52.9446C118.686 52.2056 118.902 51.2915 118.902 50.2218V49.9301H110.486C109.957 49.9301 109.683 49.7162 109.683 49.2689L109.664 49.2299ZM117.297 39.7974C117.375 40.692 117.414 41.5866 117.414 42.4813H119.332C119.332 41.6255 119.293 40.7698 119.234 39.8946C119.195 39.3501 119.41 39.0778 119.9 39.0389C120.389 39 120.663 39.2139 120.683 39.6418C120.859 41.9562 120.859 44.29 120.683 46.6044C120.663 47.0517 120.409 47.2462 119.9 47.2073C119.41 47.1684 119.176 46.8961 119.234 46.3516C119.293 45.4958 119.332 44.6401 119.332 43.7843H117.414C117.395 44.679 117.355 45.5542 117.297 46.4488C117.258 46.8961 117.003 47.0906 116.494 47.0712C116.005 47.0323 115.77 46.7989 115.809 46.3321C115.985 44.2122 115.985 42.0729 115.809 39.953C115.77 39.5057 116.005 39.2723 116.494 39.2334C116.984 39.1945 117.258 39.389 117.297 39.8363V39.7974ZM122.659 42.2285C122.659 41.8006 122.914 41.5867 123.423 41.5867H125.948V39.7779C125.948 39.2723 126.202 39 126.711 39C127.22 39 127.474 39.2528 127.474 39.7779V41.5867H129.98C130.488 41.5867 130.762 41.8006 130.762 42.2285C130.762 42.6563 130.508 42.8703 129.98 42.8703H123.442C122.933 42.8703 122.679 42.6563 122.679 42.2285H122.659ZM126.711 51.486C124.343 51.5832 123.149 50.4163 123.149 48.0241C123.149 45.632 124.343 44.4067 126.711 44.3095C129.079 44.2122 130.253 45.3597 130.253 47.7519C130.253 50.144 129.079 51.3887 126.711 51.486ZM126.711 45.5736C125.36 45.632 124.675 46.4294 124.675 47.9658C124.675 49.5022 125.36 50.2802 126.711 50.2218C128.061 50.1635 128.727 49.3467 128.727 47.7908C128.727 46.2349 128.061 45.5153 126.711 45.5736ZM133.111 51.6221C133.424 47.6741 133.424 43.7066 133.111 39.7585C133.072 39.3112 133.307 39.0778 133.796 39.0389C134.285 39 134.559 39.2139 134.599 39.6418C134.736 41.4311 134.814 43.2398 134.833 45.0096H137.045C137.534 45.0096 137.789 45.2235 137.789 45.6514C137.789 46.0793 137.534 46.2932 137.045 46.2932H134.833C134.814 48.1214 134.736 49.9301 134.599 51.7194C134.559 52.1667 134.305 52.3612 133.796 52.3223C133.307 52.2834 133.072 52.05 133.111 51.6027V51.6221ZM142.466 51.486C139.863 51.5832 138.572 49.6773 138.572 45.807C138.572 41.9367 139.863 39.9724 142.466 39.8752C144.404 39.7974 145.618 40.8282 146.087 42.9675H149.473C149.434 41.8978 149.376 40.8282 149.297 39.7391C149.258 39.2917 149.493 39.0583 149.982 39.0194C150.472 38.9805 150.746 39.1945 150.765 39.6223C151.078 43.6482 151.078 47.6741 150.765 51.7194C150.746 52.1667 150.491 52.3612 149.982 52.3223C149.493 52.2834 149.258 52.05 149.297 51.6027C149.376 50.5136 149.434 49.4439 149.473 48.3548H146.029C145.52 50.3774 144.326 51.4082 142.466 51.4665V51.486ZM142.466 41.1393C140.881 41.1782 140.079 42.7147 140.079 45.7487C140.079 48.7826 140.881 50.2802 142.466 50.2218C144.052 50.1635 144.835 48.6076 144.835 45.5736C144.835 42.5397 144.052 41.081 142.466 41.1393ZM146.303 44.2705C146.342 44.6595 146.361 45.0874 146.361 45.5347C146.361 46.0793 146.342 46.6044 146.283 47.0712H149.532C149.532 46.1376 149.532 45.2041 149.532 44.2705H146.303Z" fill="#231815"/>
<path d="M81.8357 92.7794C83.7738 91.5941 84.733 88.6405 84.733 83.938C84.733 83.3745 84.9875 83.083 85.5161 83.083C86.0446 83.083 86.26 83.3551 86.26 83.9186C86.26 85.6869 86.1425 87.222 85.888 88.5433C87.1801 89.5732 88.1198 91.2055 88.7071 93.4595C88.805 93.887 88.6288 94.1785 88.1981 94.2951C87.7478 94.4311 87.4737 94.2757 87.3563 93.8482C86.8865 92.2159 86.2796 90.9723 85.4965 90.1173C84.8896 91.9633 83.9695 93.2652 82.7166 93.9842C82.2664 94.2562 81.914 94.1979 81.6203 93.751C81.3659 93.3429 81.4441 93.0126 81.8552 92.7794H81.8357ZM90.7822 88.0575C90.7626 86.4253 90.6843 84.7736 90.5473 83.1219C90.5081 82.675 90.7431 82.4418 91.2325 82.4029C91.7219 82.3641 91.996 82.5584 92.0351 83.0053C92.3484 86.8139 92.3484 90.6031 92.0351 94.4311C91.996 94.878 91.7415 95.0724 91.2325 95.0335C90.7431 94.9946 90.5081 94.7614 90.5473 94.3145C90.6843 92.6628 90.7626 91.0112 90.7822 89.3595H89.2552C88.7658 89.3595 88.5309 89.1457 88.5309 88.7182C88.5309 88.2907 88.7658 88.077 89.2552 88.077H90.7822V88.0575ZM93.7578 94.6449C94.071 90.7002 94.071 86.7362 93.7578 82.7916C93.7187 82.3446 93.9536 82.1115 94.443 82.0726C94.9324 82.0337 95.2065 82.2475 95.2261 82.675C95.5393 86.6973 95.5393 90.7197 95.2261 94.7615C95.2065 95.2084 94.952 95.4027 94.443 95.3638C93.9536 95.325 93.7187 95.0918 93.7578 94.6449ZM105.993 92.2936C104.877 92.3713 103.761 92.4102 102.646 92.4296V94.5865C102.646 95.1112 102.391 95.3638 101.882 95.3638C101.373 95.3638 101.119 95.0918 101.119 94.5865V92.4296C99.9832 92.4296 98.8674 92.3713 97.7711 92.2936C97.36 92.2742 97.1641 92.041 97.1837 91.633C97.2033 91.2055 97.4187 90.9917 97.8298 91.0306C100.531 91.2249 103.233 91.2249 105.954 91.0306C106.365 91.0112 106.581 91.2055 106.6 91.633C106.62 92.0605 106.424 92.2742 106.013 92.2936H105.993ZM105.66 85.6869C105.66 87.9798 104.349 89.1651 101.706 89.2234C99.0827 89.2817 97.7711 88.1547 97.7711 85.8423C97.7711 83.53 99.0827 82.3641 101.706 82.3058C104.349 82.2475 105.66 83.3745 105.66 85.6869ZM101.706 87.9604C103.331 87.9215 104.133 87.1637 104.133 85.6869C104.133 84.2101 103.331 83.5105 101.706 83.5494C100.101 83.6077 99.298 84.3655 99.298 85.8423C99.298 87.3191 100.101 88.0187 101.706 87.9604ZM108.147 85.1622C108.108 84.385 108.068 83.5883 108.01 82.7916C107.97 82.3446 108.205 82.1115 108.695 82.0726C109.184 82.0337 109.458 82.2475 109.478 82.675C109.791 86.6973 109.791 90.7197 109.478 94.7615C109.458 95.2084 109.204 95.4027 108.695 95.3638C108.205 95.325 107.97 95.0918 108.01 94.6449C108.225 91.9244 108.284 89.204 108.205 86.4641H106.835C106.346 86.4641 106.091 86.2504 106.091 85.8229C106.091 85.3954 106.346 85.1816 106.835 85.1816H108.147V85.1622ZM1.29775 108.972C1.31733 108.545 1.53264 108.331 1.94375 108.37C3.52946 108.467 5.09557 108.525 6.70086 108.545V106.407C6.70086 105.844 6.95538 105.572 7.46438 105.572C7.97337 105.572 8.20829 105.844 8.20829 106.407V108.564C10.2247 108.564 12.2606 108.506 14.2966 108.37C14.7077 108.35 14.9034 108.545 14.9426 108.972C14.9622 109.4 14.7664 109.613 14.3553 109.633C10.2051 109.905 6.05487 109.905 1.90462 109.633C1.49351 109.613 1.29771 109.38 1.31729 108.972H1.29775ZM2.57022 102.948C2.57022 102.521 2.8443 102.307 3.37287 102.307H12.613C13.1416 102.307 13.4156 102.521 13.4156 102.948V103.57C13.4156 104.911 13.1416 106.077 12.5738 107.068C12.3585 107.457 12.0453 107.534 11.6146 107.282C11.1643 107.029 11.0469 106.718 11.2622 106.329C11.6734 105.591 11.8887 104.697 11.8887 103.609H3.37287C2.8443 103.609 2.57022 103.395 2.57022 102.968V102.948ZM13.5723 114.005C13.5723 115.948 11.7516 116.939 8.11038 116.997C4.46913 117.056 2.62895 116.123 2.62895 114.18C2.62895 112.237 4.44955 111.246 8.11038 111.187C11.7516 111.129 13.5723 112.062 13.5723 114.005ZM8.12997 115.696C10.7532 115.637 12.0649 115.074 12.0649 114.005C12.0649 112.936 10.7532 112.431 8.12997 112.489C5.48713 112.548 4.17546 113.111 4.17546 114.18C4.17546 115.249 5.48713 115.754 8.12997 115.696ZM15.9606 111.537C15.9802 111.11 16.1955 110.896 16.6066 110.935C20.7177 111.207 24.8484 111.207 28.9595 110.935C29.3706 110.915 29.5664 111.11 29.6055 111.537C29.6251 111.965 29.4293 112.178 29.0182 112.198C28.0394 112.276 27.0605 112.314 26.0817 112.353V115.443C26.0817 116.006 25.8272 116.298 25.3182 116.298C24.8093 116.298 24.5547 116.006 24.5547 115.443V112.373C23.3801 112.412 22.2055 112.412 21.0114 112.373V115.443C21.0114 116.006 20.7569 116.298 20.2479 116.298C19.7389 116.298 19.4844 116.006 19.4844 115.443V112.353C18.5056 112.314 17.5267 112.276 16.5479 112.198C16.1368 112.178 15.941 111.945 15.9606 111.537ZM28.2351 105.591C28.2351 107.884 26.4145 109.069 22.7733 109.128C19.132 109.186 17.2918 108.059 17.2918 105.747C17.2918 103.434 19.1124 102.268 22.7733 102.21C26.4145 102.152 28.2351 103.279 28.2351 105.591ZM22.7733 107.865C25.3965 107.826 26.7082 107.068 26.7082 105.591C26.7082 104.114 25.3965 103.415 22.7733 103.454C20.1304 103.512 18.8188 104.27 18.8188 105.747C18.8188 107.223 20.1304 107.923 22.7733 107.865ZM30.9955 105.164C30.9955 104.736 31.25 104.522 31.759 104.522H33.932V102.715C33.932 102.21 34.1865 101.938 34.6955 101.938C35.2045 101.938 35.4589 102.191 35.4589 102.715V104.522H37.632C38.141 104.522 38.415 104.736 38.415 105.164C38.415 105.591 38.1605 105.805 37.632 105.805H31.759C31.25 105.805 30.9955 105.591 30.9955 105.164ZM34.715 114.413C32.5812 114.51 31.5045 113.344 31.5045 110.954C31.5045 108.564 32.5812 107.34 34.715 107.243C36.8489 107.146 37.9256 108.292 37.9256 110.682C37.9256 113.072 36.8489 114.316 34.715 114.413ZM34.6955 108.506C33.5796 108.584 33.0119 109.38 33.0119 110.915C33.0119 112.45 33.5796 113.228 34.715 113.15C35.8309 113.072 36.3986 112.256 36.3986 110.702C36.3986 109.147 35.8309 108.448 34.6955 108.506ZM43.4462 107.942C43.4266 106.193 43.3483 104.445 43.2309 102.676C43.1917 102.229 43.4266 101.996 43.916 101.957C44.4055 101.918 44.6795 102.132 44.6991 102.56C45.0123 106.582 45.0123 110.604 44.6991 114.646C44.6795 115.093 44.425 115.287 43.916 115.249C43.4266 115.21 43.1917 114.977 43.2309 114.53C43.3483 112.761 43.4266 111.013 43.4462 109.225H41.5473C41.5277 110.935 41.4494 112.625 41.3123 114.316C41.2732 114.763 41.0187 114.957 40.5097 114.918C40.0203 114.879 39.7854 114.646 39.8245 114.199C40.1378 110.468 40.1378 106.738 39.8245 103.026C39.7854 102.579 40.0203 102.346 40.5097 102.307C40.9992 102.268 41.2732 102.463 41.3123 102.91C41.4494 104.6 41.5277 106.271 41.5473 107.942H43.4462ZM61.398 102.482C61.9265 102.482 62.181 102.715 62.181 103.162L62.044 108.797C62.0049 110.041 61.3784 110.663 60.1255 110.663H57.7371V113.539C59.5382 113.539 61.3393 113.461 63.1403 113.325C63.5514 113.305 63.7472 113.5 63.7863 113.927C63.8059 114.355 63.6101 114.568 63.199 114.588C59.0488 114.86 54.8985 114.86 50.7483 114.588C50.3372 114.568 50.1414 114.335 50.161 113.927C50.1806 113.5 50.3959 113.286 50.807 113.325C52.608 113.461 54.4091 113.519 56.2298 113.539V110.663H53.8218C52.5689 110.663 51.9425 110.041 51.9229 108.797L51.7858 103.162C51.7858 102.715 52.0403 102.482 52.5689 102.482C53.0387 102.482 53.2932 102.715 53.3128 103.162L53.3715 105.319H60.6345L60.6932 103.162C60.7128 102.715 60.9673 102.482 61.4371 102.482H61.398ZM53.3715 106.602L53.4303 108.584C53.4303 109.186 53.6652 109.477 54.1546 109.477H59.7927C60.2625 109.477 60.4975 109.186 60.517 108.584L60.5758 106.602H53.3715ZM65.4895 112.684C67.4276 111.498 68.3868 108.545 68.3868 103.842C68.3868 103.279 68.6413 102.987 69.1699 102.987C69.6985 102.987 69.9138 103.259 69.9138 103.823C69.9138 105.591 69.7963 107.126 69.5418 108.448C70.8339 109.477 71.7736 111.11 72.3609 113.364C72.4588 113.791 72.2826 114.083 71.8519 114.199C71.4016 114.335 71.1275 114.18 71.0101 113.752C70.5403 112.12 69.9333 110.876 69.1503 110.021C68.5434 111.868 67.6233 113.169 66.3704 113.888C65.9202 114.16 65.5678 114.102 65.2742 113.655C65.0197 113.247 65.098 112.917 65.5091 112.684H65.4895ZM74.436 107.962C74.4164 106.329 74.3381 104.678 74.2011 103.026C74.1619 102.579 74.3969 102.346 74.8863 102.307C75.3757 102.268 75.6498 102.463 75.6889 102.91C76.0022 106.718 76.0022 110.507 75.6889 114.335C75.6498 114.782 75.3953 114.977 74.8863 114.938C74.3969 114.899 74.1619 114.666 74.2011 114.219C74.3381 112.567 74.4164 110.915 74.436 109.264H72.909C72.4196 109.264 72.1847 109.05 72.1847 108.622C72.1847 108.195 72.4196 107.981 72.909 107.981H74.436V107.962ZM77.4312 114.549C77.7444 110.604 77.7444 106.64 77.4312 102.696C77.3921 102.249 77.627 102.016 78.1164 101.977C78.6058 101.938 78.8799 102.152 78.8995 102.579C79.2127 106.602 79.2127 110.624 78.8995 114.666C78.8799 115.113 78.6254 115.307 78.1164 115.268C77.627 115.229 77.3921 114.996 77.4312 114.549ZM84.2047 110.158C84.2047 110.158 84.2047 109.983 84.2047 109.905C82.619 109.361 81.836 108.234 81.836 106.504C81.836 103.92 83.6566 102.618 87.3174 102.56C90.9586 102.501 92.7793 103.764 92.7793 106.329C92.7793 108.039 91.9766 109.205 90.3909 109.808C90.4105 109.905 90.4301 110.021 90.4301 110.138V113.461C91.4481 113.422 92.4661 113.383 93.4841 113.305C93.8952 113.286 94.0909 113.48 94.1301 113.908C94.1497 114.335 93.9539 114.549 93.5428 114.568C89.3926 114.841 85.2423 114.841 81.092 114.568C80.6809 114.549 80.4852 114.316 80.5048 113.908C80.5243 113.48 80.7397 113.267 81.1508 113.305C82.1688 113.383 83.1867 113.422 84.2047 113.461V110.138V110.158ZM87.3174 109.069C89.9407 109.011 91.2523 108.098 91.2523 106.349C91.2523 104.6 89.9407 103.764 87.3174 103.803C84.6745 103.862 83.3629 104.756 83.3629 106.524C83.3629 108.292 84.6745 109.128 87.3174 109.069ZM88.9032 110.196C88.4137 110.274 87.8851 110.313 87.3174 110.313C86.7301 110.313 86.2016 110.313 85.7122 110.235V113.5C86.7889 113.519 87.846 113.519 88.9032 113.5V110.177V110.196ZM95.3243 114.277C95.3243 113.694 95.6375 113.403 96.2639 113.403C96.8904 113.403 97.184 113.694 97.184 114.277V114.413C97.184 114.977 96.8708 115.268 96.2639 115.268C95.6571 115.268 95.3243 114.977 95.3243 114.413V114.277Z" fill="#231815"/>
<path d="M41.8884 15.1113C41.7967 20.0798 39.2997 23.3768 34.53 24.7272C33.9083 24.9056 33.6586 25.1961 33.4446 25.7566C32.4865 28.2842 30.6367 29.7161 27.9257 29.8792C25.0771 30.0524 22.9165 28.8753 21.6985 26.256C21.3673 25.5426 20.9342 25.2317 20.2004 25.1808C18.9824 25.0891 17.8919 24.6559 17.0409 23.7743C16.5976 23.3157 16.302 23.3106 15.8077 23.7437C14.2178 25.14 12.3374 25.563 10.2634 25.2063C7.21604 24.6865 5.26942 22.5258 5.09106 19.4275C4.99933 17.7867 4.9229 16.1458 4.89742 14.5049C4.88723 13.8679 4.69358 13.5825 4.06169 13.343C1.18252 12.2372 -0.13222 10.0919 0.0104643 6.92732C0.132766 4.22141 1.83479 1.87221 4.59166 1.24032C8.78048 0.28229 13.0304 -0.395463 17.3467 0.486125C17.8359 0.588043 18.2486 0.445358 18.6971 0.317961C22.3101 -0.69612 25.5103 0.751111 27.0339 4.15007C27.3295 4.80744 27.7015 4.86859 28.2926 4.8533C30.494 4.80234 32.67 5.03165 34.7899 5.64826C39.208 6.93242 41.97 10.632 41.8884 15.1062V15.1113ZM25.5714 21.262C25.5714 21.9806 25.5459 22.694 25.5765 23.4125C25.6326 24.7935 26.2237 25.4305 27.4518 25.4712C28.471 25.5069 29.2557 24.7578 29.3679 23.5297C29.4443 22.694 29.4188 21.843 29.4086 21.0022C29.4035 20.4569 29.5411 20.2327 30.1424 20.411C31.0036 20.6709 31.9056 20.6047 32.7821 20.5282C34.9173 20.3448 36.604 18.923 37.1544 16.8898C37.8015 14.5049 37.1136 12.2576 35.381 10.9735C33.8879 9.86255 32.1196 9.64343 30.3666 9.44979C27.2276 9.11346 26.8505 9.42431 26.2848 12.5634C26.2186 12.9354 26.1523 13.3074 26.1218 13.6845C26.0555 14.4845 25.9944 15.2234 25.2402 15.7891C24.6338 16.2426 24.5879 17.1497 24.9752 17.644C25.8772 18.7854 25.5612 20.0288 25.5714 21.2569V21.262ZM13.2037 16.1152C13.2037 16.1152 13.168 16.1152 13.1477 16.1152C13.1477 15.1878 13.1782 14.2603 13.1375 13.3379C13.0967 12.3697 12.9999 11.4066 12.9234 10.4435C12.8249 9.16272 13.4143 8.49176 14.6917 8.43061C16.2154 8.35417 16.9849 7.7019 16.9747 6.47889C16.9696 5.26606 16.2256 4.61889 14.6255 4.64946C12.8164 4.68513 11.0074 4.83291 9.20854 4.99089C8.03648 5.0928 6.85424 5.16924 5.72805 5.56672C4.6732 5.93872 4.11775 7.02414 4.40312 8.08409C4.64772 8.99625 5.61594 9.46507 6.74722 9.21028C7.03259 9.14403 7.31287 9.05231 7.59314 8.96568C8.46454 8.6905 8.84163 8.87395 8.93845 9.90842C9.22892 12.9252 9.3767 15.947 9.43275 18.9791C9.45823 20.3499 10.0341 20.8544 11.2775 20.8493C12.5514 20.8391 13.1171 20.3397 13.1935 19.03C13.2496 18.0669 13.2037 17.0936 13.2037 16.1254V16.1152ZM23.1101 16.6248C23.1407 14.9839 23.0235 13.3583 22.6617 11.7531C22.4018 10.6015 21.6935 10.0256 20.4857 10.1428C19.227 10.2651 18.8499 11.2181 18.8907 12.2016C18.9824 14.5864 19.2321 16.9662 19.436 19.346C19.5328 20.5079 20.2462 20.8849 21.3418 20.8493C22.4884 20.8136 23.0439 20.2276 23.0999 19.1473C23.1458 18.3115 23.1101 17.4707 23.1101 16.6299V16.6248ZM22.8502 6.30562C23.1967 5.24059 22.4935 4.58322 21.5304 4.44563C19.7825 4.19593 18.5748 5.20491 18.5493 6.69801C18.5238 8.00765 19.3188 8.86886 20.5927 8.91472C22.0756 8.96568 22.7993 8.17072 22.8502 6.31072V6.30562Z" fill="#6A83B4"/>
<path d="M25.5719 21.2572C25.5566 20.0291 25.8777 18.7857 24.9757 17.6442C24.5833 17.1499 24.6292 16.2479 25.2407 15.7893C25.9949 15.2237 26.056 14.4797 26.1223 13.6847C26.1529 13.3076 26.2191 12.9356 26.2853 12.5636C26.851 9.42965 27.2281 9.11371 30.3672 9.45004C32.1252 9.63858 33.8884 9.8628 35.3815 10.9737C37.1141 12.263 37.802 14.5052 37.1549 16.89C36.6045 18.9233 34.9178 20.345 32.7826 20.5285C31.901 20.6049 31.0041 20.6712 30.1429 20.4113C29.5416 20.2278 29.3989 20.4571 29.4091 21.0024C29.4193 21.8432 29.4448 22.6942 29.3684 23.53C29.2562 24.7581 28.4664 25.5072 27.4523 25.4715C26.2242 25.4256 25.6382 24.7937 25.577 23.4128C25.5464 22.6993 25.5719 21.9808 25.5719 21.2623V21.2572ZM31.473 16.783C32.8539 16.8136 33.5776 16.2683 33.6285 15.2441C33.6846 14.1586 32.4921 13.2006 30.8767 13.2261C29.0932 13.2567 29.9442 14.8058 29.7709 15.6161C29.455 17.1091 30.8971 16.4925 31.473 16.7881V16.783Z" fill="#FCFCFC"/>
<path d="M13.2037 16.1176C13.2037 17.0858 13.2496 18.0591 13.1935 19.0222C13.1171 20.3319 12.5514 20.8313 11.2775 20.8415C10.029 20.8517 9.45823 20.3421 9.43275 18.9713C9.38179 15.9392 9.22892 12.9225 8.93845 9.90061C8.84163 8.86614 8.45944 8.67759 7.59314 8.95787C7.31286 9.04959 7.03259 9.13622 6.74722 9.20247C5.61593 9.46236 4.64772 8.99354 4.40311 8.07628C4.11774 7.02143 4.67829 5.93091 5.72804 5.55891C6.84914 5.16143 8.03648 5.085 9.20853 4.98308C11.0125 4.82511 12.8215 4.67732 14.6255 4.64165C16.2307 4.61108 16.9696 5.26335 16.9747 6.47108C16.9798 7.69409 16.2154 8.34636 14.6917 8.4228C13.4177 8.48735 12.8283 9.15831 12.9234 10.4357C12.9948 11.3988 13.0967 12.3619 13.1375 13.3301C13.1731 14.2525 13.1477 15.1799 13.1477 16.1074C13.168 16.1074 13.1833 16.1074 13.2037 16.1074V16.1176Z" fill="#FCFCFC"/>
<path d="M22.8389 16.5879C22.8389 17.4288 22.8745 18.2696 22.8287 19.1053C22.7726 20.1907 22.2121 20.7717 21.0706 20.8073C19.975 20.843 19.2615 20.4659 19.1647 19.304C18.9609 16.9243 18.7112 14.5445 18.6195 12.1596C18.5838 11.1812 18.9609 10.2232 20.2145 10.1009C21.4222 9.98367 22.1254 10.5595 22.3904 11.7112C22.7522 13.3164 22.8694 14.942 22.8389 16.5828V16.5879Z" fill="#FCFCFC"/>
<path d="M22.8494 6.30914C22.7984 8.16914 22.0748 8.9692 20.5919 8.91314C19.3128 8.86728 18.523 8.00607 18.5484 6.69643C18.579 5.20843 19.7867 4.19435 21.5295 4.44405C22.4927 4.58164 23.1959 5.2441 22.8494 6.30405V6.30914Z" fill="#FCFCFC"/>
<path d="M31.4717 16.7918C30.85 16.7001 29.0053 17.1434 29.3213 15.6503C29.4945 14.8401 29.0868 13.2654 30.8704 13.2349C32.4858 13.2094 33.6782 14.1674 33.6222 15.2528C33.5712 16.2771 32.8476 16.8224 31.4666 16.7918H31.4717Z" fill="#6A83B4"/>
</svg>
