<svg width="136" height="60" viewBox="0 0 136 60" fill="none" xmlns="http://www.w3.org/2000/svg">
<path d="M9.63696 6.64062C15.3575 6.64062 20 11.2831 20 17.0037C20 22.7242 15.3575 27.3667 9.63696 27.3667C5.25853 27.3667 1.51815 24.6604 0 20.832H6.88669V23.5383C6.88669 24.1104 7.34873 24.5724 7.92079 24.5724C8.20682 24.5724 8.44884 24.4624 8.64686 24.2864L16.3036 17.7957C16.7437 17.4217 16.7877 16.7616 16.4136 16.3216C16.3696 16.2776 16.3256 16.2336 16.2816 16.1896L8.58086 9.65493C8.14081 9.28089 7.48075 9.3469 7.12871 9.78694C6.95269 9.98496 6.88669 10.227 6.88669 10.447V13.1533H0C1.51815 9.3469 5.25853 6.64062 9.63696 6.64062Z" fill="#A87752"/>
<path d="M31.4396 24.048L29.1596 24.024V9.12L26.2316 10.872L25.1996 9L29.1836 6.648H31.4396V24.048ZM45.1032 17.424H47.4312V19.416H45.1032V24.048H42.8232V19.416H35.2872L35.0472 17.424L42.9192 6.624H45.1032V17.424ZM42.8232 17.424V10.464L37.7832 17.424H42.8232ZM55.9552 24.048L53.6752 24.024V9.12L50.7472 10.872L49.7152 9L53.6992 6.648H55.9552V24.048ZM60.1149 15.216C60.4669 14.336 61.0349 13.632 61.8189 13.104C62.6189 12.576 63.4589 12.336 64.3389 12.384C64.7069 12.416 65.1069 12.512 65.5389 12.672C65.9869 12.816 66.3709 12.992 66.6909 13.2L68.7069 14.448C68.9149 14.576 69.1309 14.68 69.3549 14.76C69.5949 14.84 69.7949 14.888 69.9549 14.904C70.3549 14.92 70.7389 14.8 71.1069 14.544C71.4749 14.272 71.7389 13.92 71.8989 13.488L74.1069 14.328C73.7549 15.224 73.1789 15.952 72.3789 16.512C71.5789 17.056 70.7229 17.304 69.8109 17.256C69.4749 17.224 69.0909 17.136 68.6589 16.992C68.2269 16.848 67.8429 16.672 67.5069 16.464L65.4429 15.168C65.2349 15.056 65.0189 14.96 64.7949 14.88C64.5709 14.8 64.3709 14.752 64.1949 14.736C63.8109 14.72 63.4349 14.84 63.0669 15.096C62.7149 15.352 62.4589 15.688 62.2989 16.104L60.1149 15.216ZM82.7911 24.048L80.5111 24.024V9.12L77.5831 10.872L76.5511 9L80.5351 6.648H82.7911V24.048ZM96.4548 17.424H98.7828V19.416H96.4548V24.048H94.1748V19.416H86.6388L86.3988 17.424L94.2708 6.624H96.4548V17.424ZM94.1748 17.424V10.464L89.1348 17.424H94.1748ZM101.499 22.056C101.899 21.672 102.275 21.328 102.627 21.024C102.979 20.704 103.363 20.352 103.779 19.968C105.123 18.752 106.195 17.736 106.995 16.92C107.811 16.104 108.499 15.272 109.059 14.424C109.619 13.56 109.899 12.76 109.899 12.024C109.899 11.336 109.763 10.728 109.491 10.2C109.235 9.672 108.867 9.256 108.387 8.952C107.907 8.648 107.355 8.496 106.731 8.496C106.027 8.496 105.355 8.736 104.715 9.216C104.091 9.68 103.611 10.272 103.275 10.992L101.259 10.128C101.723 9.04 102.467 8.152 103.491 7.464C104.531 6.776 105.611 6.432 106.731 6.432C107.803 6.432 108.747 6.672 109.563 7.152C110.379 7.616 111.019 8.272 111.483 9.12C111.947 9.968 112.179 10.936 112.179 12.024C112.179 13.08 111.851 14.152 111.195 15.24C110.539 16.312 109.755 17.312 108.843 18.24C107.931 19.152 106.747 20.248 105.291 21.528C104.459 22.248 103.707 22.92 103.035 23.544L101.499 22.056ZM101.499 22.056H112.467V24.048H101.739L101.499 22.056ZM120.682 6.384V7.608C120.682 8.376 120.506 9.136 120.154 9.888C119.802 10.624 119.282 11.288 118.594 11.88C117.906 12.472 117.058 12.912 116.05 13.2L115.09 11.448C115.874 11.224 116.554 10.904 117.13 10.488C117.706 10.056 118.146 9.584 118.45 9.072C118.754 8.56 118.906 8.072 118.906 7.608V6.384H120.682ZM121.258 6.384V7.512C121.258 7.944 121.402 8.4 121.69 8.88C121.978 9.36 122.394 9.808 122.938 10.224C123.498 10.624 124.146 10.936 124.882 11.16L124.138 12.912C123.146 12.624 122.306 12.192 121.618 11.616C120.93 11.04 120.41 10.392 120.058 9.672C119.722 8.936 119.554 8.216 119.554 7.512V6.384H121.258ZM128.722 6.384V7.512C128.722 8.232 128.554 8.952 128.218 9.672C127.882 10.392 127.37 11.048 126.682 11.64C125.994 12.216 125.146 12.64 124.138 12.912L123.418 11.16C124.154 10.952 124.794 10.648 125.338 10.248C125.882 9.832 126.298 9.384 126.586 8.904C126.874 8.424 127.018 7.96 127.018 7.512V6.384H128.722ZM129.394 6.384V7.608C129.394 8.12 129.538 8.632 129.826 9.144C130.13 9.656 130.57 10.12 131.146 10.536C131.722 10.936 132.418 11.24 133.234 11.448L132.226 13.2C131.234 12.928 130.394 12.504 129.706 11.928C129.018 11.352 128.498 10.688 128.146 9.936C127.794 9.184 127.618 8.408 127.618 7.608V6.384H129.394ZM123.73 5.424V7.296H115.81V5.424H123.73ZM132.466 5.424V7.296H124.57V5.424H132.466ZM133.786 15.024V16.92H114.562V15.024H133.786ZM125.314 13.056V16.512H122.986V13.056H125.314ZM131.362 18.984V25.872H129.01V20.832H116.65V18.984H131.362ZM32.0396 38.136V39C32.0396 40.84 31.5036 42.464 30.4316 43.872C29.3756 45.28 27.9196 46.272 26.0636 46.848L24.9596 45C26.0316 44.68 26.9516 44.224 27.7196 43.632C28.5036 43.024 29.0956 42.328 29.4956 41.544C29.9116 40.744 30.1196 39.896 30.1196 39V38.136H32.0396ZM32.4716 38.136V39C32.4716 39.816 32.6716 40.6 33.0716 41.352C33.4716 42.088 34.0476 42.744 34.7996 43.32C35.5676 43.896 36.4796 44.328 37.5356 44.616L36.4556 46.488C35.2396 46.12 34.1836 45.568 33.2876 44.832C32.4076 44.096 31.7276 43.232 31.2476 42.24C30.7836 41.232 30.5516 40.152 30.5516 39V38.136H32.4716ZM36.9836 36.96V38.856H25.6076V36.96H36.9836ZM32.4716 34.536V37.752H30.1196V34.536H32.4716ZM41.5676 34.632V47.16H39.2156V34.632H41.5676ZM44.5916 39.84V41.808H40.9196V39.84H44.5916ZM41.5676 48.12V55.608H28.0556V48.12H41.5676ZM30.3596 49.968V53.736H39.2636V49.968H30.3596ZM61.5841 36.624V38.544H47.9761V36.624H61.5841ZM65.1841 51.096V53.04H45.9841V51.096H65.1841ZM55.5361 43.632V52.08H53.2081V43.632H55.5361ZM63.0481 36.624V38.712C63.0481 40.52 63.0081 42.152 62.9281 43.608C62.8481 45.048 62.6321 46.736 62.2801 48.672L59.9041 48.408C60.2561 46.568 60.4721 44.936 60.5521 43.512C60.6481 42.088 60.6961 40.488 60.6961 38.712V36.624H63.0481Z" fill="#A87752"/>
</svg>
