<svg width="124" height="54" viewBox="0 0 124 54" fill="none" xmlns="http://www.w3.org/2000/svg">
<path d="M0.118913 22.0183C-1.46421 39.873 13.1473 47.502 20.898 50.0346C31.2866 52.8841 47.1251 51.9338 65.4232 51.4591C83.7283 50.9843 113.412 57.1574 122.317 33.8894C131.222 10.6213 103.517 2.54908 69.381 0.649648C35.245 -1.24979 2.09781 -0.300069 0.118913 22.0183Z" fill="#F8CBCA"/>
<path d="M41.48 8.56V45.76H36.4V8.56H41.48ZM14.48 38.12L11.8 34.12C23.84 26.96 24.6 24.92 24.6 19V16.24H12.48V11.88H29.68V19.24C29.68 27.32 27.76 30 14.48 38.12ZM74.0141 29.76H64.1341V36.8H78.6541V41.08H44.5741V36.8H59.0941V29.76H49.2141V11.48H74.0141V29.76ZM54.2541 15.72V25.52H68.9741V15.72H54.2541ZM108.788 29.08H98.5481V36.8H113.068V41.08H78.9881V36.8H93.5081V29.08H83.2681V11.36H88.3481V24.8H108.788V29.08Z" fill="#C0423F"/>
</svg>
