<svg width="124" height="54" viewBox="0 0 124 54" fill="none" xmlns="http://www.w3.org/2000/svg">
<path d="M0.118913 22.0183C-1.46421 39.873 13.1473 47.502 20.898 50.0346C31.2866 52.8841 47.1251 51.9338 65.4232 51.4591C83.7283 50.9843 113.412 57.1574 122.317 33.8894C131.222 10.6213 103.517 2.54908 69.381 0.649648C35.245 -1.24979 2.09781 -0.300069 0.118913 22.0183Z" fill="#FAD093"/>
<path d="M27.2 26.92C19.88 26.92 14.44 24.04 14.44 18.92V17.24C14.44 12.12 19.88 9.24 27.2 9.24C34.52 9.24 39.96 12.12 39.96 17.24V18.92C39.96 24.04 34.52 26.92 27.2 26.92ZM10.16 29.76H44.24V34.04H36.08V45.64H31.08V34.04H23.32V45.64H18.32V34.04H10.16V29.76ZM27.2 13.52C22.76 13.52 19.4 15.04 19.4 17.48V18.68C19.4 21.12 22.76 22.64 27.2 22.64C31.64 22.64 35 21.12 35 18.68V17.48C35 15.04 31.64 13.52 27.2 13.52ZM48.0141 38.68L45.5741 34.56C53.0941 30.48 56.5741 28 57.8141 25.32L45.6141 25.64L45.4541 21.32L58.3341 21.12V16.12H46.2941V11.8H63.2941V21C63.2941 28.64 60.6141 31.72 48.0141 38.68ZM74.0941 8.56V21.92H79.2141V26.32H74.0941V45.76H69.0141V8.56H74.0941ZM80.8681 36.6V11.44H98.2681V15.72H85.9081V21.8H97.4281V26.08H85.9081V32.32H88.4681C92.2681 32.32 96.9881 32.16 100.748 31.64L101.268 35.88C97.5481 36.48 92.1481 36.6 87.2681 36.6H80.8681ZM108.508 8.56V21.84H113.628V26.24H108.508V45.76H103.428V8.56H108.508Z" fill="#7E4F0C"/>
</svg>
