<svg width="42" height="47" viewBox="0 0 42 47" fill="none" xmlns="http://www.w3.org/2000/svg">
<path d="M36.1918 3.62109H0.634521V42.9855H36.1918V3.62109Z" fill="white"/>
<path d="M36.1674 43.6198H0.610111C0.268449 43.6198 0 43.3513 0 43.0096V3.64527C0 3.30361 0.268449 3.03516 0.610111 3.03516H36.1674C36.509 3.03516 36.7775 3.30361 36.7775 3.64527V43.0096C36.7775 43.3513 36.509 43.6198 36.1674 43.6198ZM1.24463 42.3751H35.5573V4.25538H1.24463V42.3751Z" fill="#3E3A39"/>
<path d="M7.37018 6.40185C6.24757 6.40185 5.66187 4.83997 5.66187 3.30249C5.66187 1.76501 6.24757 0.203125 7.37018 0.203125C8.49278 0.203125 9.07849 1.76501 9.07849 3.30249C9.07849 3.64415 8.81004 3.9126 8.46838 3.9126C8.12671 3.9126 7.85827 3.64415 7.85827 3.30249C7.85827 2.15548 7.4922 1.52097 7.34577 1.44775C7.27256 1.52097 6.9309 2.15548 6.9309 3.30249C6.9309 4.4495 7.29696 5.08401 7.44339 5.15723C7.78505 5.15723 8.0535 5.42568 8.0535 5.76734C8.0535 6.109 7.76065 6.37745 7.41899 6.37745L7.37018 6.40185Z" fill="#3E3A39"/>
<path d="M14.6426 6.40185C13.52 6.40185 12.9343 4.83997 12.9343 3.30249C12.9343 1.76501 13.52 0.203125 14.6426 0.203125C15.7652 0.203125 16.3509 1.76501 16.3509 3.30249C16.3509 3.64415 16.0825 3.9126 15.7408 3.9126C15.3992 3.9126 15.1307 3.64415 15.1307 3.30249C15.1307 2.15548 14.7647 1.52097 14.6182 1.44775C14.545 1.52097 14.2034 2.15548 14.2034 3.30249C14.2034 4.4495 14.5694 5.08401 14.7159 5.15723C15.0575 5.15723 15.326 5.42568 15.326 5.76734C15.326 6.109 15.0331 6.37745 14.6914 6.37745L14.6426 6.40185Z" fill="#3E3A39"/>
<path d="M21.9153 6.40185C20.7927 6.40185 20.207 4.83997 20.207 3.30249C20.207 1.76501 20.7927 0.203125 21.9153 0.203125C23.0379 0.203125 23.6237 1.76501 23.6237 3.30249C23.6237 3.64415 23.3552 3.9126 23.0135 3.9126C22.6719 3.9126 22.4034 3.64415 22.4034 3.30249C22.4034 2.15548 22.0374 1.52097 21.8909 1.44775C21.8177 1.52097 21.4761 2.15548 21.4761 3.30249C21.4761 4.4495 21.8421 5.08401 21.9886 5.15723C22.3302 5.15723 22.5987 5.42568 22.5987 5.76734C22.5987 6.109 22.3058 6.37745 21.9642 6.37745L21.9153 6.40185Z" fill="#3E3A39"/>
<path d="M29.1878 6.40185C28.0652 6.40185 27.4795 4.83997 27.4795 3.30249C27.4795 1.76501 28.0652 0.203125 29.1878 0.203125C30.3104 0.203125 30.8961 1.76501 30.8961 3.30249C30.8961 3.64415 30.6277 3.9126 30.286 3.9126C29.9443 3.9126 29.6759 3.64415 29.6759 3.30249C29.6759 2.15548 29.3098 1.52097 29.1634 1.44775C29.0902 1.52097 28.7485 2.15548 28.7485 3.30249C28.7485 4.4495 29.1146 5.08401 29.261 5.15723C29.6027 5.15723 29.8711 5.42568 29.8711 5.76734C29.8711 6.109 29.5783 6.37745 29.2366 6.37745L29.1878 6.40185Z" fill="#3E3A39"/>
<path d="M10.494 19.5787C8.19994 19.5787 6.3208 17.6996 6.3208 15.4056C6.3208 13.1116 8.19994 11.2324 10.494 11.2324C12.788 11.2324 14.6671 13.1116 14.6671 15.4056C14.6671 17.6996 12.788 19.5787 10.494 19.5787Z" fill="white"/>
<path d="M10.4939 20.3126C7.80944 20.3126 5.61304 18.1162 5.61304 15.4317C5.61304 12.7472 7.80944 10.5508 10.4939 10.5508C13.1784 10.5508 15.3748 12.7472 15.3748 15.4317C15.3748 18.1162 13.1784 20.3126 10.4939 20.3126ZM10.4939 11.9906C8.59038 11.9906 7.0529 13.5281 7.0529 15.4317C7.0529 17.3352 8.59038 18.8727 10.4939 18.8727C12.3975 18.8727 13.935 17.3352 13.935 15.4317C13.935 13.5281 12.3975 11.9906 10.4939 11.9906Z" fill="#3E3A39"/>
<path d="M27.0892 18.483C24.7952 18.483 22.916 16.6039 22.916 14.3099C22.916 12.0159 24.7952 10.1367 27.0892 10.1367C29.3832 10.1367 31.2623 12.0159 31.2623 14.3099C31.2623 16.6039 29.3832 18.483 27.0892 18.483Z" fill="white"/>
<path d="M27.0889 19.1895C24.4044 19.1895 22.208 16.9931 22.208 14.3086C22.208 11.6241 24.4044 9.42773 27.0889 9.42773C29.7734 9.42773 31.9698 11.6241 31.9698 14.3086C31.9698 16.9931 29.7734 19.1895 27.0889 19.1895ZM27.0889 10.8676C25.1854 10.8676 23.6479 12.4051 23.6479 14.3086C23.6479 16.2122 25.1854 17.7497 27.0889 17.7497C28.9924 17.7497 30.5299 16.2122 30.5299 14.3086C30.5299 12.4051 28.9924 10.8676 27.0889 10.8676Z" fill="#3E3A39"/>
<path d="M31.9209 24.6556C31.9209 31.0983 25.9662 36.3209 18.6205 36.3209C11.2748 36.3209 5.32007 31.0983 5.32007 24.6556C5.32007 18.2128 11.2748 12.9902 18.6205 12.9902C25.9662 12.9902 31.9209 18.2128 31.9209 24.6556Z" fill="white"/>
<path d="M18.6207 37.0527C10.8845 37.0527 4.58813 31.4885 4.58813 24.6553C4.58813 17.822 10.8845 12.2578 18.6207 12.2578C26.3569 12.2578 32.6532 17.822 32.6532 24.6553C32.6532 31.4885 26.3569 37.0527 18.6207 37.0527ZM18.6207 13.6977C11.6898 13.6977 6.0524 18.603 6.0524 24.6309C6.0524 30.6588 11.6898 35.5641 18.6207 35.5641C25.5516 35.5641 31.189 30.6588 31.189 24.6309C31.189 18.603 25.5516 13.6977 18.6207 13.6977Z" fill="#3E3A39"/>
<path d="M24.7707 23.6051C24.7707 24.142 24.3314 24.6057 23.7701 24.6057C23.2088 24.6057 22.7939 24.1664 22.7939 23.6051C22.7939 23.0438 23.2332 22.6289 23.7701 22.6289C24.307 22.6289 24.7707 23.0682 24.7707 23.6051Z" fill="white"/>
<path d="M23.7942 25.317C22.8425 25.317 22.0859 24.5361 22.0859 23.6087C22.0859 22.6813 22.8669 21.9004 23.7942 21.9004C24.7216 21.9004 25.5026 22.6813 25.5026 23.6087C25.5026 24.5361 24.746 25.317 23.7942 25.317ZM23.7942 23.3403C23.6478 23.3403 23.5258 23.4623 23.5258 23.6087C23.5258 23.9016 24.0627 23.9016 24.0627 23.6087C24.0627 23.4623 23.9407 23.3403 23.7942 23.3403Z" fill="#3E3A39"/>
<path d="M23.3794 27.2694C25.4538 27.5623 27.2841 25.9516 27.4793 23.682C27.6746 21.4124 26.1615 19.3624 24.0871 19.0695C22.0127 18.7767 20.1824 20.3874 19.9872 22.657C19.7919 24.9266 21.305 26.9766 23.3794 27.2694Z" fill="white"/>
<path d="M23.8674 28.0512C23.6722 28.0512 23.477 28.0512 23.2817 28.0024C20.8413 27.6607 19.011 25.2447 19.255 22.5846C19.377 21.2423 20.0115 19.9977 21.0121 19.2168C21.9151 18.4846 23.0621 18.1674 24.2091 18.3382C26.6495 18.6799 28.4799 21.0959 28.2358 23.756C28.1138 25.0982 27.4793 26.3429 26.4787 27.1238C25.7222 27.7339 24.7948 28.0512 23.8674 28.0512ZM23.6234 19.8025C23.0133 19.8025 22.4276 19.9977 21.9395 20.4126C21.2562 20.9495 20.8169 21.8036 20.7437 22.7554C20.5728 24.6102 21.8175 26.3185 23.477 26.5381C24.2091 26.6357 24.9412 26.4405 25.5269 25.9524C26.2103 25.4155 26.6495 24.5613 26.7228 23.634C26.8936 21.7792 25.649 20.0709 23.9895 19.8513C23.8674 19.8513 23.7454 19.8269 23.6234 19.8269V19.8025Z" fill="#3E3A39"/>
<path d="M19.9629 27.7338C19.9629 28.4904 19.304 29.1005 18.4743 29.1005C17.6445 29.1005 16.9856 28.4904 16.9856 27.7338C16.9856 26.9773 17.6445 26.3672 18.4743 26.3672C19.304 26.3672 19.9629 26.9773 19.9629 27.7338Z" fill="white"/>
<path d="M18.474 29.8069C17.2538 29.8069 16.2532 28.8796 16.2532 27.7082C16.2532 26.5367 17.2538 25.6094 18.474 25.6094C19.6942 25.6094 20.6948 26.5367 20.6948 27.7082C20.6948 28.8796 19.6942 29.8069 18.474 29.8069ZM18.474 27.0736C18.0591 27.0736 17.7174 27.3665 17.7174 27.7082C17.7174 28.0498 18.0591 28.3427 18.474 28.3427C18.8889 28.3427 19.2305 28.0498 19.2305 27.7082C19.2305 27.3665 18.8889 27.0736 18.474 27.0736Z" fill="#3E3A39"/>
<path d="M20.9146 17.1392C21.4759 16.5291 22.4764 16.5291 23.1842 17.1392H20.9146Z" fill="white"/>
<path d="M23.1842 17.8717C23.0133 17.8717 22.8425 17.7985 22.6961 17.6764C22.2812 17.3104 21.7443 17.286 21.4514 17.6032C21.183 17.8961 20.7193 17.9205 20.4265 17.652C20.1336 17.3836 20.1092 16.9199 20.3777 16.627C21.183 15.7241 22.6717 15.6997 23.6478 16.6026C23.9407 16.8711 23.9651 17.3348 23.6967 17.6276C23.5502 17.7985 23.355 17.8717 23.1598 17.8717H23.1842Z" fill="#3E3A39"/>
<path d="M13.2271 17.1392C13.7884 16.5291 14.7889 16.5291 15.4967 17.1392H13.2271Z" fill="white"/>
<path d="M15.4969 17.8717C15.3261 17.8717 15.1552 17.7985 15.0088 17.6764C14.5939 17.3104 14.057 17.286 13.7642 17.6032C13.4957 17.8961 13.0321 17.9205 12.7392 17.652C12.4464 17.3836 12.4219 16.9199 12.6904 16.627C13.4957 15.7241 14.9844 15.6997 15.985 16.6026C16.2779 16.8711 16.3023 17.3348 16.0338 17.6276C15.8874 17.7985 15.6921 17.8717 15.4969 17.8717Z" fill="#3E3A39"/>
<path d="M26.9181 28.0022L21.1831 26.1719L22.9402 31.8825L23.1111 32.0533L27.089 28.173L26.9181 28.0022Z" fill="white"/>
<path d="M23.111 32.662C22.9646 32.662 22.7938 32.6132 22.6717 32.4912L22.5009 32.3203C22.5009 32.3203 22.3789 32.1495 22.3301 32.0519L20.5974 26.3412C20.5241 26.1216 20.5974 25.8775 20.7682 25.7067C20.939 25.5359 21.1831 25.4871 21.4027 25.5603L27.1133 27.3906C27.1133 27.3906 27.2842 27.4638 27.3574 27.537L27.5282 27.7079C27.5282 27.7079 27.7235 27.9763 27.7235 28.1472C27.7235 28.318 27.6502 28.4644 27.5282 28.5864L23.5503 32.4667C23.5503 32.4667 23.2819 32.6376 23.111 32.6376V32.662ZM22.1348 27.1222L23.3063 30.9781L25.9907 28.3668L22.1348 27.1222Z" fill="#3E3A39"/>
<path d="M39.3398 40.0344L27.0888 28.1738L23.1108 32.0541L35.3619 43.9147L39.3398 40.0344Z" fill="#FBDACF"/>
<path d="M35.3621 44.5229C35.2157 44.5229 35.0449 44.474 34.9228 44.352L22.6718 32.4915C22.6718 32.4915 22.4766 32.223 22.4766 32.0522C22.4766 31.8814 22.5498 31.7105 22.6718 31.6129L26.6497 27.7326C26.8938 27.513 27.2598 27.4886 27.5283 27.7326L39.7793 39.5932C39.7793 39.5932 39.9745 39.8616 39.9745 40.0324C39.9745 40.2033 39.9013 40.3497 39.7793 40.4717L35.8014 44.352C35.8014 44.352 35.5329 44.5229 35.3621 44.5229ZM24.014 32.0522L35.3621 43.0342L38.4371 40.0324L27.089 29.0504L24.014 32.0522Z" fill="#3E3A39"/>
<path d="M40.1939 45.1562L40.6088 44.7413C41.5849 43.7895 41.5849 42.2276 40.6088 41.2759L39.3153 40.0312L35.3374 43.9116L36.6308 45.1562C37.607 46.108 39.1933 46.108 40.1939 45.1562Z" fill="white"/>
<path d="M38.437 46.4977C37.6317 46.4977 36.8263 46.2048 36.2162 45.5947L34.9228 44.3501C34.9228 44.3501 34.7275 44.0817 34.7275 43.9108C34.7275 43.74 34.8008 43.5936 34.9228 43.4715L38.9007 39.5912C39.1447 39.3472 39.5352 39.3472 39.7793 39.5912L41.0727 40.8359C41.6584 41.4216 42.0001 42.1781 42.0001 43.0079C42.0001 43.8376 41.6828 44.6186 41.0727 45.1799L40.6578 45.5947C40.0477 46.1804 39.2424 46.4977 38.437 46.4977ZM36.2406 43.9108L37.0704 44.7162C37.8025 45.4483 39.0227 45.4483 39.7549 44.7162L40.1697 44.3013C40.5114 43.9596 40.7066 43.496 40.7066 43.0079C40.7066 42.5198 40.5114 42.0561 40.1697 41.7144L39.3156 40.8847L36.2406 43.8864V43.9108Z" fill="#3E3A39"/>
<path d="M25.4297 23.0452C25.4297 24.0945 24.5999 24.9243 23.575 24.9243C22.55 24.9243 21.7202 24.0701 21.7202 23.0452C21.7202 22.0202 22.55 21.166 23.575 21.166C24.5999 21.166 25.4297 22.0202 25.4297 23.0452Z" fill="#3E3A39"/>
<path d="M13.6665 27.2694C11.5921 27.5623 9.76175 25.9516 9.56652 23.682C9.37128 21.4124 10.8844 19.3624 12.9587 19.0695C15.0331 18.7767 16.8634 20.3874 17.0587 22.657C17.2539 24.9266 15.7408 26.9766 13.6665 27.2694Z" fill="white"/>
<path d="M13.2029 28.0487C12.2511 28.0487 11.3482 27.7315 10.5916 27.1214C9.59104 26.316 8.95652 25.0958 8.8345 23.7535C8.61486 21.1179 10.4208 18.6774 12.8612 18.3358C14.0082 18.1893 15.1308 18.5066 16.0582 19.2143C17.0588 20.0197 17.6933 21.2399 17.8153 22.5821C18.035 25.2422 16.229 27.6583 13.7886 27.9999C13.5934 28.0243 13.3981 28.0487 13.2029 28.0487ZM13.4225 19.8C13.4225 19.8 13.1785 19.8 13.0565 19.8244C11.3726 20.0441 10.1523 21.7524 10.3232 23.6071C10.3964 24.5345 10.8357 25.3886 11.519 25.9255C12.1047 26.3892 12.8368 26.6089 13.569 26.5112C15.2529 26.2916 16.4731 24.5833 16.3023 22.7286C16.229 21.8012 15.7898 20.947 15.1064 20.3857C14.6184 19.9953 14.0326 19.7756 13.4225 19.7756V19.8Z" fill="#3E3A39"/>
<path d="M11.6409 23.0452C11.6409 24.0945 12.4706 24.9243 13.4956 24.9243C14.5206 24.9243 15.3503 24.0701 15.3503 23.0452C15.3503 22.0202 14.5206 21.166 13.4956 21.166C12.4706 21.166 11.6409 22.0202 11.6409 23.0452Z" fill="#3E3A39"/>
<path d="M21.3782 30.9512C19.2306 32.1226 17.1806 32.269 15.2527 30.9512H21.3782Z" fill="white"/>
<path d="M18.1325 32.6374C16.9611 32.6374 15.8629 32.2713 14.8135 31.5636C14.4718 31.3196 14.3742 30.8559 14.6182 30.4898C14.8623 30.1482 15.326 30.0505 15.692 30.2946C17.2539 31.3684 19.011 31.344 21.0122 30.2458C21.3783 30.0261 21.8419 30.1726 22.0616 30.5386C22.2812 30.9047 22.1348 31.3684 21.7687 31.588C20.5241 32.2713 19.3039 32.613 18.1569 32.613L18.1325 32.6374Z" fill="#3E3A39"/>
</svg>
