<svg width="44" height="40" viewBox="0 0 44 40" fill="none" xmlns="http://www.w3.org/2000/svg">
<path d="M18.1946 36.8104C16.2478 37.6135 14.0576 36.6157 13.2789 34.5716L11.1617 28.9258C10.383 26.8817 11.3564 24.5455 13.2789 23.7424C15.2014 22.9394 17.4159 23.9371 18.1946 25.9813L20.3117 31.627C21.0905 33.6712 20.1171 35.983 18.1946 36.8104Z" fill="white"/>
<path d="M16.8076 37.7367C16.2235 37.7367 15.6638 37.6151 15.1041 37.3717C13.9847 36.885 13.1086 35.9603 12.6706 34.7922L10.5534 29.1464C9.67738 26.7859 10.7725 24.0847 13.0356 23.16C14.1064 22.6976 15.2988 22.7219 16.3696 23.16C17.489 23.6467 18.365 24.5714 18.8031 25.7395L20.9202 31.3853C21.8206 33.7458 20.7012 36.447 18.438 37.3717C17.9027 37.5907 17.3673 37.7124 16.8076 37.7124V37.7367ZM14.6661 24.1334C14.2767 24.1334 13.8874 24.2064 13.5223 24.3524C11.8919 25.0338 11.1132 26.9806 11.7459 28.7084L13.863 34.3541C14.1794 35.2059 14.7878 35.8629 15.5908 36.2036C16.3452 36.52 17.1726 36.52 17.9027 36.2036C19.5331 35.5222 20.3118 33.5754 19.6791 31.8476L17.562 26.2019C17.2456 25.3501 16.6372 24.6931 15.8342 24.3524C15.4448 24.1821 15.0554 24.109 14.6417 24.109L14.6661 24.1334Z" fill="#3E3A39"/>
<path d="M26.3955 36.8104C24.4487 37.6135 22.2585 36.6157 21.4798 34.5716L19.3626 28.9258C18.6082 26.8817 19.5573 24.5455 21.4798 23.7424C23.4266 22.9394 25.6168 23.9371 26.3955 25.9813L28.5126 31.627C29.2914 33.6712 28.318 35.983 26.3955 36.8104Z" fill="white"/>
<path d="M25.0085 37.7367C24.4245 37.7367 23.8648 37.6151 23.305 37.3717C22.1856 36.885 21.3096 35.9603 20.8715 34.7922L18.7544 29.1464C17.8783 26.7859 18.9734 24.0847 21.2366 23.16C22.3073 22.6976 23.4997 22.7219 24.5705 23.16C25.6899 23.6467 26.566 24.5714 27.004 25.7395L29.1211 31.3853C30.0215 33.7458 28.9021 36.447 26.639 37.3717C26.1036 37.5907 25.5682 37.7124 25.0085 37.7124V37.7367ZM22.8914 24.1334C22.502 24.1334 22.1126 24.2064 21.7476 24.3524C20.1171 25.0338 19.3384 26.9806 19.9711 28.7084L22.0883 34.3541C22.4046 35.2059 23.013 35.8629 23.8161 36.2036C24.5705 36.52 25.3735 36.52 26.1279 36.2036C27.7584 35.5222 28.5371 33.5754 27.9044 31.8476L25.7872 26.2019C25.4709 25.3501 24.8625 24.6931 24.0594 24.3524C23.6701 24.1821 23.2807 24.109 22.867 24.109L22.8914 24.1334Z" fill="#3E3A39"/>
<path d="M21.8935 28.9301H18.7299C11.0157 28.9301 5.27261 31.7773 5.27261 23.8684L4.63989 22.5543C4.63989 14.6454 11.5997 9.48633 19.314 9.48633H22.4776C27.1256 9.48633 33.258 11.8225 36.3243 15.3998C37.176 16.3975 38.3441 17.0059 39.6338 17.0059H43.0651" fill="white"/>
<path d="M10.31 30.0717C8.60651 30.0717 7.21941 29.804 6.19733 28.8549C5.12658 27.8815 4.63988 26.3484 4.61555 24.0122L4.0315 22.8198C4.0315 22.8198 3.9585 22.6251 3.9585 22.5278C3.9585 14.6918 10.5533 8.80273 19.2896 8.80273H22.4532C26.8579 8.80273 33.3797 10.9442 36.7866 14.9352C37.541 15.8356 38.5387 16.3223 39.5852 16.3223H43.0164C43.3814 16.3223 43.6735 16.6143 43.6735 16.9793C43.6735 17.3444 43.3814 17.6364 43.0164 17.6364H39.5852C38.1737 17.6364 36.7866 16.9793 35.7889 15.8113C32.747 12.2583 26.6145 10.1168 22.4289 10.1168H19.2653C12.5001 10.1168 5.32127 14.4242 5.24826 22.4061L5.8323 23.5985C5.8323 23.5985 5.90531 23.7932 5.90531 23.8905C5.90531 25.886 6.29467 27.2244 7.0734 27.9302C8.31449 29.0739 10.6993 28.8549 13.7169 28.5872C15.2257 28.4655 16.9048 28.2952 18.7056 28.2952H21.8692C22.2342 28.2952 22.5262 28.5872 22.5262 28.9522C22.5262 29.3173 22.2342 29.6093 21.8692 29.6093H18.7056C16.9778 29.6093 15.2987 29.7553 13.8386 29.9013C12.5488 30.023 11.3807 30.1203 10.31 30.1203V30.0717Z" fill="#3E3A39"/>
<path d="M3.39876 31.385L1.01392 38.7829L8.4118 36.5441L8.63082 36.3007L3.61778 31.166L3.39876 31.385Z" fill="white"/>
<path d="M1.01403 39.4388C0.843688 39.4388 0.673341 39.3658 0.551665 39.2441C0.381319 39.0738 0.33265 38.8304 0.405655 38.5871L2.76616 31.1892C2.76616 31.1892 2.83917 30.9945 2.91218 30.9215L3.13119 30.7025C3.25287 30.5808 3.42321 30.5078 3.59356 30.5078C3.7639 30.5078 3.93425 30.5808 4.05593 30.7025L9.06897 35.8372C9.31232 36.0806 9.31232 36.4943 9.06897 36.7376L8.84995 36.9566C8.84995 36.9566 8.67961 37.0783 8.58227 37.127L1.20872 39.3901C1.20872 39.3901 1.08704 39.4145 1.01403 39.4145V39.4388ZM3.78824 32.2599L2.01178 37.8084L7.53586 36.1049L3.78824 32.2599Z" fill="#3E3A39"/>
<path d="M31.0436 3.23242L3.61792 31.1692L8.63096 36.3039L36.0567 8.36714L31.0436 3.23242Z" fill="#FBDACF"/>
<path d="M8.63082 36.9578C8.46048 36.9578 8.29013 36.8848 8.16846 36.7631L3.15541 31.6284C2.91206 31.3851 2.91206 30.9714 3.15541 30.728L30.5811 2.76695C30.7028 2.64527 30.8732 2.57227 31.0435 2.57227C31.2138 2.57227 31.3842 2.64527 31.5059 2.76695L36.5189 7.90166C36.7623 8.14502 36.7623 8.55871 36.5189 8.80206L9.09319 36.7388C8.97152 36.8605 8.80117 36.9335 8.63082 36.9335V36.9578ZM4.51819 31.1661L8.63082 35.376L35.1561 8.36403L31.0435 4.15405L4.51819 31.1661Z" fill="#3E3A39"/>
<path d="M37.6869 2.08796L37.1515 1.55259C35.9104 0.287159 33.8906 0.287159 32.6495 1.55259L31.019 3.20738L36.0321 8.34209L37.6625 6.6873C38.9036 5.42188 38.9036 3.35339 37.6625 2.08796" fill="white"/>
<path d="M36.0568 9.02226C35.8865 9.02226 35.7162 8.94925 35.5945 8.82758L30.5814 3.69286C30.3381 3.44951 30.3381 3.03581 30.5814 2.79246L32.2119 1.11333C33.6477 -0.371111 36.1785 -0.371111 37.6386 1.11333L38.1497 1.64871C39.6341 3.15749 39.6341 5.63967 38.1497 7.14845L36.5192 8.80324C36.3975 8.92492 36.2272 8.99792 36.0568 8.99792V9.02226ZM31.9442 3.23049L36.0568 7.44047L37.2249 6.24805C38.2227 5.22597 38.2227 3.57118 37.2249 2.54911L36.7139 2.01373C35.7648 1.04033 34.11 1.04033 33.161 2.01373L31.9685 3.23049H31.9442Z" fill="#3E3A39"/>
<path d="M23.6942 22.9668H15.1769C12.9868 22.9668 11.1616 24.8163 11.1616 27.0794C11.1616 29.3426 12.9624 31.1921 15.1769 31.1921H23.6942C23.6942 31.1921 24.9597 34.4287 29.3886 35.3534C35.5698 36.6675 38.4413 33.9906 38.4413 33.9906H43.138" fill="white"/>
<path d="M32.6499 36.3773C31.6521 36.3773 30.5084 36.28 29.2429 35.988C25.4467 35.1849 23.7919 32.8001 23.2565 31.8266H15.1529C12.5977 31.8266 10.5049 29.6852 10.5049 27.0813C10.5049 24.4774 12.5977 22.3359 15.1529 22.3359H23.6702C24.0352 22.3359 24.3273 22.628 24.3273 22.993C24.3273 23.358 24.0352 23.65 23.6702 23.65H15.1529C13.3034 23.65 11.7946 25.2075 11.7946 27.1056C11.7946 29.0038 13.3034 30.5612 15.1529 30.5612H23.6702C23.9379 30.5612 24.1812 30.7316 24.2786 30.9749C24.3273 31.0966 25.4953 33.8951 29.5106 34.7469C35.2537 35.9636 37.8819 33.6274 37.9793 33.5301C38.1009 33.4328 38.247 33.3598 38.4173 33.3598H43.114C43.479 33.3598 43.771 33.6518 43.771 34.0168C43.771 34.3818 43.479 34.6739 43.114 34.6739H38.6607C38.0523 35.1606 36.0811 36.4017 32.6499 36.4017V36.3773Z" fill="#3E3A39"/>
<path d="M12.8409 19.0245L9.653 25.1083C8.77694 26.8604 6.68411 27.5662 5.00499 26.6414C3.32586 25.7167 2.64448 23.5509 3.52055 21.7744L5.75938 17.248" fill="white"/>
<path d="M6.56236 27.7101C5.90531 27.7101 5.27259 27.5398 4.66421 27.2234C2.66873 26.1527 1.89001 23.5732 2.91208 21.5047L5.15092 16.9783C5.32126 16.662 5.71062 16.5403 6.02698 16.6863C6.34334 16.8566 6.48935 17.2217 6.319 17.5624L4.08017 22.113C3.35012 23.5732 3.88549 25.374 5.27259 26.1283C5.90531 26.469 6.6597 26.542 7.36542 26.323C8.09547 26.0797 8.70385 25.5686 9.04454 24.8629L12.2568 18.7548C12.4271 18.4384 12.8165 18.3168 13.1328 18.4871C13.4492 18.6574 13.5709 19.0468 13.4005 19.3632L10.2126 25.447C9.70159 26.469 8.84986 27.2234 7.77911 27.5641C7.38975 27.6858 6.97605 27.7588 6.56236 27.7588V27.7101Z" fill="#3E3A39"/>
<path d="M42.968 40.0036H1.16022C0.795192 40.0036 0.503174 39.7115 0.503174 39.3465C0.503174 38.9815 0.795192 38.6895 1.16022 38.6895H42.968C43.333 38.6895 43.6251 38.9815 43.6251 39.3465C43.6251 39.7115 43.333 40.0036 42.968 40.0036Z" fill="#3E3A39"/>
</svg>
