<svg width="45" height="38" viewBox="0 0 45 38" fill="none" xmlns="http://www.w3.org/2000/svg">
<path d="M7.92674 14.8251C7.92674 14.8251 8.20606 9.13711 7.62203 7.10571C7.038 5.0743 6.37779 0.478243 10.6184 1.18924C14.1733 1.77327 14.6812 6.77561 14.9859 9.39104C15.2398 11.4986 14.9859 16.8057 14.9859 16.8057" fill="white"/>
<path d="M15.0114 17.418H14.986C14.6559 17.418 14.402 17.1133 14.402 16.7832C14.402 16.7324 14.6559 11.5015 14.402 9.47011V9.19079C14.0465 6.62614 13.5132 2.3094 10.5423 1.80155C9.55199 1.64919 8.81561 1.80155 8.38393 2.25861C7.54598 3.19814 7.77451 5.3819 8.23158 6.93085C8.841 9.03844 8.56168 14.6248 8.56168 14.8533C8.56168 15.1835 8.25697 15.412 7.92686 15.4374C7.59676 15.4374 7.31744 15.1327 7.34283 14.8026C7.34283 14.7518 7.62215 9.19079 7.06352 7.28635C6.7842 6.34682 5.99703 3.12196 7.49519 1.44605C8.20618 0.633488 9.32346 0.354169 10.7708 0.582703C14.6559 1.24291 15.2907 6.29604 15.6208 9.03844V9.31776C15.9255 11.4507 15.6716 16.6308 15.6716 16.834C15.6716 17.1641 15.3923 17.418 15.0622 17.418H15.0114Z" fill="#3E3A39"/>
<path d="M18.0331 24.6553V24.503C19.5058 24.2236 20.6231 22.9286 20.6231 21.3797C20.6231 19.9577 19.6836 18.7642 18.3886 18.358C19.6074 17.9771 20.5215 16.8852 20.6231 15.5394C20.7501 13.8127 19.4043 12.2891 17.6522 12.1622L11.2786 11.5781C10.8978 11.5273 10.5169 11.4512 10.136 11.4512H8.94252C4.49882 11.4512 0.842285 15.0823 0.842285 19.5514V27.3723C0.842285 31.816 4.47343 36.7676 8.94252 36.7676H10.136C11.2786 36.793 12.3451 36.6914 13.2847 36.4375H16.3572C18.0077 36.4375 19.3789 35.0917 19.3789 33.4412C19.3789 32.2985 18.7187 31.3082 17.7538 30.8003C17.7538 30.6988 17.7538 30.6226 17.7791 30.521C19.0742 30.1655 20.0645 28.9974 20.0645 27.5755V27.5247C20.0645 26.2043 19.2011 25.087 18.0331 24.6553Z" fill="white"/>
<path d="M10.4915 37.4278C10.4915 37.4278 10.263 37.4278 10.136 37.4278H8.96796C4.06719 37.4278 0.258301 32.0446 0.258301 27.4232V19.6022C0.258301 14.803 4.16876 10.8926 8.96796 10.8926H10.1614C10.5423 10.8926 10.9232 10.9434 11.2787 10.9942L17.703 11.5782C18.6933 11.629 19.6075 12.086 20.2931 12.8478C20.9533 13.6096 21.2834 14.5745 21.2326 15.5902C21.1564 16.7075 20.5978 17.6978 19.7344 18.358C20.6739 19.0436 21.258 20.1609 21.258 21.3797C21.258 22.7763 20.4962 24.0205 19.3281 24.6808C20.1661 25.3664 20.6993 26.4075 20.6993 27.5247C20.6993 28.9213 19.963 30.1402 18.7949 30.775C19.5567 31.4606 19.9883 32.4255 19.9883 33.4412C19.9883 35.4472 18.3632 37.0723 16.3572 37.0723H13.3609C12.4721 37.3009 11.5072 37.4024 10.4661 37.4024L10.4915 37.4278ZM8.96796 12.1114C4.85436 12.1114 1.47715 15.4632 1.47715 19.6022V27.4232C1.47715 31.4098 4.80358 36.209 8.96796 36.209H10.1614C11.2787 36.209 12.269 36.1328 13.1577 35.9043C13.2085 35.9043 13.2593 35.9043 13.3101 35.9043H16.3826C17.703 35.9043 18.7949 34.8378 18.7949 33.492C18.7949 32.6033 18.287 31.8161 17.4999 31.3844C17.2967 31.2828 17.1698 31.0543 17.1698 30.8004V30.648C17.1952 30.3941 17.3983 30.0386 17.6268 29.9878C18.6933 29.7085 19.4551 28.7182 19.4551 27.6263C19.4551 26.5344 18.7949 25.6203 17.83 25.2648C17.576 25.1632 17.4237 24.9347 17.4237 24.6808V24.5284C17.4237 24.2491 17.6522 23.9952 17.9315 23.9444C19.1504 23.7158 20.0137 22.6494 20.0137 21.4305C20.0137 20.3132 19.2774 19.3483 18.2109 18.9928C17.9569 18.9166 17.7792 18.6881 17.7792 18.4088C17.7792 18.1295 17.9569 17.9009 18.2109 17.8248C19.2266 17.52 19.9376 16.5805 20.0137 15.5394C20.0645 14.8538 19.836 14.1936 19.3789 13.6858C18.9219 13.1779 18.3124 12.8478 17.6268 12.8224L11.2533 12.2384C10.7962 12.1622 10.4915 12.1368 10.1614 12.1368H8.96796V12.1114Z" fill="#3E3A39"/>
<path d="M18.16 19.0685H14.3257C13.9956 19.0685 13.7163 18.7891 13.7163 18.459C13.7163 18.1289 13.9956 17.8496 14.3257 17.8496H18.16C18.4901 17.8496 18.7694 18.1289 18.7694 18.459C18.7694 18.7891 18.4901 19.0685 18.16 19.0685Z" fill="#3E3A39"/>
<path d="M17.7792 25.3419H13.9449C13.6148 25.3419 13.3354 25.0626 13.3354 24.7325C13.3354 24.4024 13.6148 24.123 13.9449 24.123H17.7792C18.1093 24.123 18.3886 24.4024 18.3886 24.7325C18.3886 25.0626 18.1093 25.3419 17.7792 25.3419Z" fill="#3E3A39"/>
<path d="M17.3983 31.4864H13.564C13.2339 31.4864 12.9546 31.2071 12.9546 30.877C12.9546 30.5469 13.2339 30.2676 13.564 30.2676H17.3983C17.7284 30.2676 18.0077 30.5469 18.0077 30.877C18.0077 31.2071 17.7284 31.4864 17.3983 31.4864Z" fill="#3E3A39"/>
<path d="M37.3317 14.8251C37.3317 14.8251 37.0523 9.13711 37.6364 7.10571C38.2204 5.0743 38.8806 0.478243 34.6401 1.18924C31.0851 1.77327 30.5772 6.77561 30.2725 9.39104C30.0186 11.4986 30.2725 16.8057 30.2725 16.8057" fill="white"/>
<path d="M30.2472 17.418C29.9171 17.418 29.6632 17.1641 29.6378 16.834C29.6378 16.6054 29.3838 11.4507 29.6378 9.31776V9.03844C29.9933 6.32143 30.6281 1.24291 34.5131 0.582703C35.9605 0.354169 37.0524 0.633488 37.7888 1.44605C39.2616 3.09657 38.4744 6.32143 38.2205 7.28635C37.6618 9.19079 37.9411 14.7518 37.9411 14.8026C37.9411 15.1327 37.6872 15.4374 37.3571 15.4374C37.0016 15.4374 36.7223 15.1835 36.7223 14.8533C36.7223 14.6248 36.443 9.03844 37.0524 6.93085C37.5095 5.35651 37.738 3.19814 36.9 2.25861C36.4684 1.77615 35.7574 1.6238 34.7417 1.80155C31.7453 2.3094 31.2121 6.62614 30.9074 9.19079V9.47011C30.6281 11.5015 30.8566 16.7324 30.882 16.7832C30.882 17.1133 30.6281 17.418 30.298 17.418H30.2726H30.2472Z" fill="#3E3A39"/>
<path d="M36.2906 11.502H35.0971C34.7162 11.502 34.3353 11.5527 33.9545 11.6289L27.5809 12.2129C25.8288 12.3399 24.5084 13.8381 24.61 15.5902C24.6862 16.936 25.6257 18.0278 26.8445 18.4087C25.5495 18.815 24.61 20.0085 24.61 21.4305C24.61 22.9794 25.7273 24.2744 27.2 24.5537V24.7061C26.032 25.1378 25.1686 26.255 25.1686 27.5755V27.6262C25.1686 29.0482 26.1335 30.2163 27.4539 30.5718C27.4539 30.6734 27.4539 30.7495 27.4539 30.8511C26.489 31.359 25.8288 32.3493 25.8288 33.4919C25.8288 35.1425 27.1746 36.5137 28.8252 36.5137H31.8977C32.8372 36.7676 33.9037 36.8692 35.0463 36.8438H36.2398C40.6835 36.8438 44.3146 31.8922 44.3146 27.4485V19.6276C44.3146 15.1839 40.6835 11.5273 36.2398 11.5273" fill="white"/>
<path d="M34.7923 37.4259C33.7512 37.4259 32.7609 37.2989 31.8722 37.0704H28.8759C26.8699 37.0704 25.2701 35.4453 25.2701 33.4646C25.2701 32.4235 25.7018 31.4586 26.4636 30.7984C25.3209 30.1636 24.5591 28.9448 24.5591 27.5989C24.5591 26.4309 25.0924 25.3898 25.9303 24.7042C24.7623 24.044 24.0005 22.7998 24.0005 21.4032C24.0005 20.1843 24.5845 19.067 25.524 18.3814C24.6607 17.7212 24.0767 16.7055 24.0259 15.6137C23.8989 13.5315 25.4733 11.7286 27.5555 11.6016L34.0306 11.0176C34.3861 10.9668 34.7416 10.916 35.0971 10.916H36.2905C41.0897 10.916 45.0002 14.8265 45.0002 19.6257V27.4466C45.0002 32.0681 41.1913 37.4513 36.2905 37.4513H35.0971C35.0971 37.4513 34.8939 37.4513 34.7923 37.4513V37.4259ZM35.0971 12.1095C34.7923 12.1095 34.4876 12.1603 34.2083 12.1856H34.056L27.657 12.7951C26.235 12.8966 25.1685 14.1155 25.2447 15.5121C25.3209 16.5532 26.0319 17.4673 27.0476 17.772C27.3015 17.8482 27.4793 18.0767 27.4793 18.356C27.4793 18.6354 27.3015 18.8639 27.0476 18.9401C25.9557 19.2702 25.2447 20.2605 25.2447 21.3778C25.2447 22.5966 26.1335 23.6631 27.3269 23.8916C27.6062 23.9424 27.8094 24.171 27.8348 24.4503C27.8348 24.7296 27.6824 25.1105 27.4285 25.212C26.4382 25.5675 25.778 26.4817 25.778 27.4974C25.778 28.6654 26.5397 29.6304 27.6062 29.9097C27.8602 29.9859 28.0633 30.2144 28.0633 30.4937C28.0633 30.6207 28.0633 30.6968 28.0633 30.7476C28.0633 30.9762 27.9363 31.2047 27.7332 31.3063C26.946 31.7379 26.4382 32.5505 26.4382 33.4139C26.4382 34.7343 27.5047 35.8008 28.8251 35.8008H31.8976C31.8976 35.8008 31.9992 35.8008 32.0499 35.8008C32.9133 36.0293 33.929 36.1563 35.0209 36.1309H36.2143C40.3533 36.1309 43.7051 31.3317 43.7051 27.345V19.5241C43.7051 15.4105 40.3533 12.0333 36.2143 12.0333H35.0209L35.0971 12.1095Z" fill="#3E3A39"/>
<path d="M30.9325 19.0685H27.0982C26.7681 19.0685 26.4888 18.7891 26.4888 18.459C26.4888 18.1289 26.7681 17.8496 27.0982 17.8496H30.9325C31.2626 17.8496 31.5419 18.1289 31.5419 18.459C31.5419 18.7891 31.2626 19.0685 30.9325 19.0685Z" fill="#3E3A39"/>
<path d="M31.2879 25.3419H27.4537C27.1236 25.3419 26.8442 25.0626 26.8442 24.7325C26.8442 24.4024 27.1236 24.123 27.4537 24.123H31.2879C31.618 24.123 31.8974 24.4024 31.8974 24.7325C31.8974 25.0626 31.618 25.3419 31.2879 25.3419Z" fill="#3E3A39"/>
<path d="M31.6688 31.4864H27.8345C27.5044 31.4864 27.2251 31.2071 27.2251 30.877C27.2251 30.5469 27.5044 30.2676 27.8345 30.2676H31.6688C31.9989 30.2676 32.2782 30.5469 32.2782 30.877C32.2782 31.2071 31.9989 31.4864 31.6688 31.4864Z" fill="#3E3A39"/>
</svg>
