<svg width="38" height="43" viewBox="0 0 38 43" fill="none" xmlns="http://www.w3.org/2000/svg">
<path d="M36.5597 23.6471C36.5597 21.9398 35.1582 20.5637 33.4763 20.5637H23.4616C24.0477 18.9073 24.5828 17.0471 24.6083 15.6965C24.6847 12.6385 23.8438 9.7335 21.6268 9.24933C18.7727 8.61226 18.1866 10.2432 18.2631 11.6957C18.3395 13.1482 18.1102 14.7791 17.5241 15.6965C17.0654 16.3845 14.67 20.6402 13.5742 22.6023C11.0769 24.3097 9.39502 27.1638 9.39502 30.4001V32.9739C9.39502 38.1469 13.4213 42.1987 18.5943 42.1987C18.5943 42.1987 21.0917 42.1987 21.2445 42.1987H31.1319C32.6864 42.1987 33.9605 40.9245 33.9605 39.3701C33.9605 38.4527 33.5273 37.6627 32.8393 37.1276C34.2153 36.9237 35.2601 35.7515 35.2601 34.3245C35.2601 33.2542 34.6485 32.3368 33.7821 31.8526C34.9798 31.5213 35.8462 30.4256 35.8462 29.126C35.8462 28.0047 35.1837 27.0618 34.2663 26.6032C35.5914 26.2464 36.5597 25.0487 36.5597 23.6217" fill="white"/>
<path d="M18.62 42.8097C13.1157 42.8097 8.80908 38.4776 8.80908 32.9733V30.3995C8.80908 27.1377 10.4145 24.0543 13.1157 22.1941C15.4091 18.1168 16.6833 15.8743 17.0146 15.3901C17.4987 14.6511 17.7536 13.2241 17.6771 11.7461C17.6262 10.5994 17.9319 9.68198 18.5945 9.12135C19.308 8.50977 20.4038 8.35687 21.7799 8.66266C24.0478 9.17232 25.322 11.7971 25.22 15.7214C25.22 16.7662 24.8888 18.1933 24.3027 19.9771H33.4765C35.5151 19.9771 37.1715 21.6334 37.1715 23.6721C37.1715 24.9462 36.509 26.0929 35.4642 26.7555C36.1012 27.3926 36.458 28.2335 36.458 29.1764C36.458 30.3231 35.8719 31.3934 34.929 32.0304C35.5151 32.6675 35.8719 33.483 35.8719 34.3749C35.8719 35.7 35.0819 36.8977 33.9607 37.4583C34.3684 38.0189 34.5723 38.707 34.5723 39.4205C34.5723 41.3062 33.0178 42.8607 31.1321 42.8607H18.62V42.8097ZM20.4802 9.70746C20.047 9.70746 19.6648 9.78391 19.359 10.0387C18.9003 10.421 18.8493 11.1345 18.8748 11.6696C18.9513 13.0457 18.7729 14.906 18.0339 16.0272C17.7281 16.5114 16.403 18.8048 14.1095 22.9076C14.0586 22.984 14.0076 23.0605 13.9311 23.1114C11.4848 24.7678 10.0323 27.4945 10.0323 30.3995V32.9733C10.0323 37.8151 13.8037 41.5865 18.62 41.5865H31.1321C32.3552 41.5865 33.3491 40.5927 33.3491 39.344C33.3491 38.656 33.0178 38.0189 32.4827 37.5857C32.2788 37.4328 32.2023 37.178 32.2788 36.9486C32.3552 36.7193 32.5336 36.5409 32.7885 36.4899C33.8587 36.337 34.6997 35.3942 34.6997 34.2984C34.6997 33.5085 34.2665 32.7694 33.5275 32.3617C33.3236 32.2343 33.1962 32.005 33.2217 31.7501C33.2471 31.4953 33.4255 31.2914 33.6549 31.2405C34.6232 30.9602 35.2858 30.0937 35.2858 29.0999C35.2858 28.259 34.8016 27.4945 34.0371 27.1123C33.8078 27.0103 33.6804 26.7555 33.7058 26.5007C33.7313 26.2458 33.9097 26.042 34.139 25.9655C35.2348 25.6852 35.9738 24.6914 35.9738 23.5956C35.9738 22.2195 34.8526 21.1238 33.502 21.1238H23.4872C23.2833 21.1238 23.105 21.0218 23.003 20.869C22.9011 20.7161 22.8501 20.5122 22.9266 20.3083C23.6401 18.3207 24.0224 16.6898 24.0478 15.6195C24.1243 13.0712 23.4872 10.2171 21.5505 9.78391C21.2447 9.70746 20.888 9.65649 20.5312 9.65649L20.4802 9.70746Z" fill="#3E3A39"/>
<path d="M13.4974 20.7676H1.39307V41.8929H13.4974V20.7676Z" fill="#FBDACF"/>
<path d="M13.4977 42.4793H1.39333C1.06205 42.4793 0.781738 42.199 0.781738 41.8677V20.7424C0.781738 20.4112 1.06205 20.1309 1.39333 20.1309H13.4977C13.829 20.1309 14.1093 20.4112 14.1093 20.7424V41.8677C14.1093 42.199 13.829 42.4793 13.4977 42.4793ZM2.00492 41.2816H12.8861V21.3795H2.00492V41.2816Z" fill="#3E3A39"/>
<path d="M34.4191 27.2681H27.3093C26.9781 27.2681 26.6978 26.9878 26.6978 26.6565C26.6978 26.3252 26.9781 26.0449 27.3093 26.0449H34.4191C34.7503 26.0449 35.0306 26.3252 35.0306 26.6565C35.0306 26.9878 34.7503 27.2681 34.4191 27.2681Z" fill="#3E3A39"/>
<path d="M33.629 32.5142H26.5193C26.188 32.5142 25.9077 32.2339 25.9077 31.9026C25.9077 31.5713 26.188 31.291 26.5193 31.291H33.629C33.9603 31.291 34.2406 31.5713 34.2406 31.9026C34.2406 32.2339 33.9603 32.5142 33.629 32.5142Z" fill="#3E3A39"/>
<path d="M32.839 37.8931H25.7293C25.398 37.8931 25.1177 37.6128 25.1177 37.2815C25.1177 36.9502 25.398 36.6699 25.7293 36.6699H32.839C33.1703 36.6699 33.4506 36.9502 33.4506 37.2815C33.4506 37.6128 33.1703 37.8931 32.839 37.8931Z" fill="#3E3A39"/>
<path d="M21.168 5.55526C20.8622 5.55526 20.6328 5.32592 20.6328 5.02012V0.53514C20.6328 0.229346 20.8622 0 21.168 0C21.4737 0 21.7031 0.229346 21.7031 0.53514V5.02012C21.7031 5.32592 21.4737 5.55526 21.168 5.55526Z" fill="#3E3A39"/>
<path d="M12.7587 12.9436C12.7587 12.9436 12.6568 12.9436 12.6058 12.9436L8.29922 11.644C8.01891 11.5675 7.86602 11.2618 7.94246 10.9814C8.01891 10.7011 8.32471 10.5227 8.60502 10.6247L12.9116 11.9243C13.1919 12.0008 13.3448 12.3065 13.2684 12.5869C13.1919 12.8162 12.9881 12.9691 12.7587 12.9691V12.9436Z" fill="#3E3A39"/>
<path d="M15.7909 7.74773C15.6635 7.74773 15.5106 7.69677 15.4087 7.59484L12.1978 4.43496C11.994 4.2311 11.994 3.89982 12.1978 3.67048C12.4017 3.46661 12.733 3.46661 12.9623 3.67048L16.1731 6.83035C16.377 7.03421 16.377 7.36549 16.1731 7.59484C16.0712 7.69677 15.9183 7.74773 15.7909 7.74773Z" fill="#3E3A39"/>
<path d="M30.1889 12.9457C29.9596 12.9457 29.7557 12.7928 29.6793 12.5634C29.6028 12.2831 29.7557 11.9773 30.036 11.9009L34.3426 10.6012C34.623 10.4993 34.9288 10.6777 35.0052 10.958C35.0816 11.2383 34.9287 11.5441 34.6484 11.6206L30.3418 12.9202C30.3418 12.9202 30.2399 12.9202 30.1889 12.9202V12.9457Z" fill="#3E3A39"/>
<path d="M27.1567 7.74773C27.0293 7.74773 26.8764 7.69677 26.7745 7.59484C26.5706 7.39097 26.5706 7.03421 26.7745 6.83035L29.9853 3.67048C30.1892 3.46661 30.5205 3.46661 30.7498 3.67048C30.9537 3.87434 30.9537 4.2311 30.7498 4.43496L27.539 7.59484C27.539 7.59484 27.3096 7.74773 27.1567 7.74773Z" fill="#3E3A39"/>
<path d="M7.43298 39.0144C6.33721 39.0144 5.44531 38.1225 5.44531 37.0267C5.44531 35.931 6.33721 35.0391 7.43298 35.0391C8.52874 35.0391 9.42064 35.931 9.42064 37.0267C9.42064 38.1225 8.52874 39.0144 7.43298 39.0144Z" fill="#FBDACF"/>
<path d="M7.43275 39.6243C6.00571 39.6243 4.8335 38.4521 4.8335 37.025C4.8335 35.598 6.00571 34.4258 7.43275 34.4258C8.85979 34.4258 10.032 35.598 10.032 37.025C10.032 38.4521 8.85979 39.6243 7.43275 39.6243ZM7.43275 35.649C6.66826 35.649 6.05667 36.2605 6.05667 37.025C6.05667 37.7895 6.66826 38.4011 7.43275 38.4011C8.19723 38.4011 8.80882 37.7895 8.80882 37.025C8.80882 36.2605 8.19723 35.649 7.43275 35.649Z" fill="#3E3A39"/>
</svg>
