<svg width="69" height="76" viewBox="0 0 69 76" fill="none" xmlns="http://www.w3.org/2000/svg">
<path d="M18.8027 17.7136C18.8027 19.9481 20.6051 21.7788 22.8647 21.7788C25.1244 21.7788 26.9267 19.975 26.9267 17.7136C26.9267 15.4522 25.0975 13.6484 22.8647 13.6484C20.632 13.6484 18.8027 15.4522 18.8027 17.7136Z" fill="white"/>
<path d="M22.866 22.5325C20.2028 22.5325 18.0508 20.3788 18.0508 17.7135C18.0508 15.0483 20.2028 12.8945 22.866 12.8945C25.5291 12.8945 27.6812 15.0483 27.6812 17.7135C27.6812 20.3788 25.5291 22.5325 22.866 22.5325ZM22.866 14.4291C21.0636 14.4291 19.5841 15.9098 19.5841 17.7135C19.5841 19.5173 21.0636 20.998 22.866 20.998C24.6683 20.998 26.1479 19.5173 26.1479 17.7135C26.1479 15.9098 24.6683 14.4291 22.866 14.4291Z" fill="#3E3A39"/>
<path d="M40.6738 31.8231L43.6598 27.6771L40.6738 24.635L42.7183 20.7852L47.7756 26.358C48.475 27.1118 48.5557 28.2425 47.9639 29.077L42.5569 37.019" fill="white"/>
<path d="M42.5844 37.8C42.4499 37.8 42.2885 37.7462 42.154 37.6654C41.8043 37.4231 41.7236 36.9654 41.9388 36.6154L47.3458 28.6735C47.7224 28.1082 47.6686 27.3813 47.2113 26.8967L42.8803 22.1316L41.616 24.5276L44.2254 27.1659C44.4944 27.4351 44.5213 27.839 44.3061 28.162L41.2932 32.308C41.0511 32.658 40.5669 32.7387 40.2172 32.4695C39.8675 32.2272 39.8137 31.7426 40.0558 31.3926L42.6651 27.7851L40.1096 25.2006C39.8675 24.9583 39.8137 24.6084 39.9751 24.3122L42.0195 20.4624C42.1271 20.247 42.3423 20.0855 42.6113 20.0586C42.8534 20.0586 43.0955 20.1124 43.2838 20.3009L48.3412 25.8737C49.2827 26.8967 49.3634 28.4043 48.5833 29.535L43.1762 37.4769C43.0417 37.6923 42.7996 37.8 42.5575 37.8H42.5844Z" fill="#3E3A39"/>
<path d="M62.571 62.46H65.8798C67.171 62.46 68.247 61.4101 68.247 60.0909C68.247 58.7717 67.1979 57.7218 65.8798 57.7218H63.9429L56.6529 44.7994C56.2494 44.0725 55.4693 43.6148 54.6084 43.5879C43.5254 43.5071 47.157 43.561 46.6997 43.7225C45.4622 44.1263 44.7897 45.4724 45.2201 46.7108C45.5698 47.7877 46.6459 48.4338 47.7219 48.2992C48.4482 48.2723 48.9862 48.2992 53.2096 48.2992L60.4997 61.2216C60.9032 61.9754 61.7102 62.4331 62.5441 62.4331" fill="white"/>
<path d="M65.879 63.2124H62.5703C61.4404 63.2124 60.3913 62.5932 59.8533 61.624L52.7784 49.0785H51.3796C48.851 49.0785 48.3667 49.0516 47.7749 49.0785C46.3761 49.267 44.9773 48.3516 44.52 46.9517C44.0627 45.5787 44.6276 44.098 45.7843 43.3442C45.8381 43.1019 45.9726 42.9673 46.7527 42.8865C46.7527 42.8865 46.7527 42.8865 46.7796 42.8865C47.8287 42.7788 50.0346 42.8058 54.6346 42.8327C55.7644 42.8327 56.7866 43.4519 57.3246 44.4211L64.3995 56.9397H65.879C67.6007 56.9397 68.9995 58.3396 68.9995 60.0626C68.9995 61.7856 67.6007 63.1855 65.879 63.1855V63.2124ZM49.0124 47.5171C49.5235 47.5171 50.2498 47.5171 51.3796 47.5171H53.2358C53.5048 47.5171 53.7738 47.6786 53.9083 47.9209L61.1983 60.8433C61.4673 61.3548 62.0053 61.651 62.5972 61.651H65.9059C66.7936 61.651 67.4931 60.9241 67.4931 60.0626C67.4931 59.2011 66.7667 58.4742 65.9059 58.4742H63.9691C63.7001 58.4742 63.4311 58.3127 63.2966 58.0973L56.0065 45.1749C55.7375 44.6903 55.1995 44.3672 54.6346 44.3672C50.5457 44.3403 48.1784 44.3134 47.1831 44.3403C47.1024 44.3941 47.0486 44.4211 46.9679 44.448C46.134 44.7172 45.6767 45.6325 45.9457 46.4671C46.1878 47.194 46.9141 47.6517 47.6404 47.544C48.017 47.544 48.3398 47.544 49.0124 47.544V47.5171Z" fill="#3E3A39"/>
<path d="M54.5266 64.0737C55.1184 64.0737 55.7102 63.8583 56.1675 63.4275C57.109 62.5122 57.1359 61.0315 56.2482 60.0893L55.1722 58.9585V47.2207C55.1722 45.9284 54.1231 44.8516 52.8049 44.8516H48.9044C47.6131 44.8516 46.5371 45.9015 46.5371 47.2207C46.5371 48.5398 47.5862 49.5898 48.9044 49.5898H50.4377V59.9008C50.4377 60.52 50.6798 61.0854 51.0833 61.543L52.8318 63.3737C53.2892 63.8583 53.9079 64.1006 54.5266 64.1006" fill="white"/>
<path d="M54.5278 64.8543C53.667 64.8543 52.86 64.5043 52.2682 63.8851L50.5197 62.0544C49.9547 61.4622 49.6588 60.7084 49.6588 59.9007V50.3435H48.9056C47.184 50.3435 45.7852 48.9436 45.7852 47.2206C45.7852 45.4976 47.184 44.0977 48.9056 44.0977H52.8062C54.5278 44.0977 55.9267 45.4976 55.9267 47.2206V58.6354L56.8144 59.5507C57.998 60.7891 57.9711 62.7813 56.7068 63.9659C56.115 64.5312 55.3618 64.8274 54.5547 64.8274L54.5278 64.8543ZM48.9056 45.6322C48.0179 45.6322 47.3185 46.3591 47.3185 47.2206C47.3185 48.0821 48.0448 48.809 48.9056 48.809H50.439C50.8694 48.809 51.1922 49.1589 51.1922 49.5628V59.8738C51.1922 60.2776 51.3536 60.6814 51.6495 60.9776L53.398 62.8083C53.9898 63.4275 55.039 63.4544 55.6577 62.8621C56.3033 62.2429 56.3033 61.2468 55.7115 60.6007L54.6354 59.47C54.5009 59.3354 54.4202 59.1469 54.4202 58.9315V47.1937C54.4202 46.3052 53.6939 45.6053 52.8331 45.6053H48.9325L48.9056 45.6322Z" fill="#3E3A39"/>
<path d="M26.3633 53.79C26.3633 52.3632 27.4931 51.2055 28.9188 51.1248V32.1719H32.4428V51.0978H46.8077C48.2873 51.0978 49.4978 52.3093 49.4978 53.79C49.4978 54.9476 48.7446 55.9168 47.7223 56.2937V63.4549H44.3867V56.4822H32.4428V63.4549H28.8919V56.4553C27.4931 56.3745 26.3633 55.2169 26.3633 53.79Z" fill="#F8C8BD"/>
<path d="M47.7225 64.236H44.4138C43.9834 64.236 43.6606 63.886 43.6606 63.4822V57.2632H33.25V63.4822C33.25 63.9129 32.9003 64.236 32.4968 64.236H28.9459C28.5155 64.236 28.1927 63.886 28.1927 63.4822V57.1286C26.7401 56.7248 25.6641 55.3787 25.6641 53.8173C25.6641 52.2558 26.7401 50.9097 28.2196 50.5059V32.1991C28.2196 31.7684 28.5693 31.4453 28.9728 31.4453H32.4968C32.9272 31.4453 33.25 31.7953 33.25 32.1991V50.3444H46.8617C48.7717 50.3444 50.305 51.9058 50.305 53.8173C50.305 55.0826 49.6325 56.2133 48.5296 56.8056V63.4822C48.5296 63.9129 48.1799 64.236 47.7763 64.236H47.7225ZM45.167 62.7014H46.9693V56.2941C46.9693 55.971 47.1576 55.7018 47.4535 55.5672C48.2337 55.271 48.7179 54.5711 48.7179 53.7634C48.7179 52.6865 47.857 51.8251 46.781 51.8251H32.4161C31.9857 51.8251 31.6629 51.4751 31.6629 51.0712V32.926H29.6722V51.0982C29.6722 51.502 29.3494 51.8251 28.9459 51.852C27.9237 51.9058 27.1167 52.7404 27.1167 53.7634C27.1167 54.7864 27.9237 55.5941 28.9459 55.6749C29.3494 55.6749 29.6722 56.0248 29.6722 56.4287V62.6745H31.7167V56.4556C31.7167 56.0248 32.0664 55.7018 32.4699 55.7018H44.4138C44.8442 55.7018 45.167 56.0518 45.167 56.4556V62.6745V62.7014Z" fill="#3E3A39"/>
<path d="M36.2891 30.1533C38.8716 29.4264 41.5617 30.9609 42.288 33.5454L45.6774 43.1834H50.1429V50.8022H40.8622C38.4681 50.8022 36.4236 48.7023 36.047 46.7371C35.9932 46.6024 35.9125 46.4948 35.8587 46.3063L32.9266 36.1568C32.2003 33.5723 33.7336 30.8802 36.316 30.1533" fill="white"/>
<path d="M50.1419 51.5532H40.8612C38.0635 51.5532 35.7501 49.1302 35.3197 46.8688C35.2659 46.815 35.1852 46.6804 35.1583 46.5188L32.2261 36.3693C31.8226 34.9156 32.0109 33.4079 32.7372 32.0888C33.4635 30.7696 34.6741 29.8274 36.1267 29.4235C37.5524 29.0197 39.0858 29.2082 40.4039 29.935C41.722 30.6619 42.6635 31.8734 43.067 33.3272L46.2413 42.3998H50.1688C50.5992 42.3998 50.922 42.7498 50.922 43.1536V50.7725C50.922 51.2032 50.5723 51.5263 50.1688 51.5263L50.1419 51.5532ZM37.6062 30.7427C37.2296 30.7427 36.8799 30.7965 36.5033 30.9042C35.4542 31.2004 34.5665 31.9003 34.0284 32.8426C33.4904 33.8118 33.3559 34.9156 33.6518 35.9655L36.584 46.115C36.584 46.115 36.7185 46.4111 36.7454 46.4381C37.122 48.2418 38.8436 50.0456 40.8612 50.0456H49.3887V43.9343H45.7033C45.3805 43.9343 45.0846 43.719 44.977 43.4228L41.5875 33.7848C41.0764 31.9272 39.4086 30.7427 37.6062 30.7427Z" fill="#3E3A39"/>
<path d="M33.2223 33.0599C33.2223 33.0599 28.5954 31.4984 28.3802 31.4446C28.165 31.3907 28.9182 25.7102 28.9182 25.7102L24.91 22.4258L23.565 33.0599C23.4574 34.0021 23.9685 34.9175 24.8562 35.2674L33.6258 38.7403C33.6258 38.7403 34.6749 35.6982 33.2223 33.0329" fill="white"/>
<path d="M33.6528 39.5466C33.6528 39.5466 33.4645 39.5466 33.3838 39.4928L24.6142 36.0198C23.4036 35.5353 22.6773 34.2969 22.8387 33.0046L24.1838 22.3705C24.2107 22.1013 24.399 21.859 24.668 21.7513C24.937 21.6437 25.206 21.6975 25.4212 21.859L29.4294 25.1435C29.6446 25.305 29.7253 25.5742 29.6984 25.8434C29.4294 27.8087 29.1873 29.9894 29.1335 30.9047C30.1826 31.2547 32.4153 31.9816 33.4914 32.3585C33.6797 32.4123 33.8142 32.5469 33.9218 32.7085C35.5358 35.6429 34.4329 38.9005 34.3791 39.0351C34.2984 39.2235 34.1639 39.3851 33.9756 39.4928C33.868 39.5466 33.7604 39.5735 33.6528 39.5735V39.5466ZM25.5288 23.932L24.3721 33.1931C24.2914 33.7853 24.6411 34.3776 25.206 34.593L33.1417 37.7428C33.3031 36.8006 33.4376 35.1853 32.7112 33.6777C31.7159 33.3546 28.4879 32.2508 28.1919 32.17C27.4656 31.9816 27.3311 31.9547 28.1112 26.0319L25.5019 23.9051L25.5288 23.932Z" fill="#3E3A39"/>
<path d="M32.4689 10.9582C37.7145 9.93518 42.7988 13.3542 43.821 18.6309C44.6549 22.9653 42.449 27.1382 38.7099 29.0765L38.8444 29.6957C39.0865 30.8803 38.7637 34.8378 38.7637 34.8378C37.1227 33.6801 34.0561 31.7418 33.4911 30.0995C29.2947 29.7226 25.6631 26.6805 24.8292 22.3461C23.8069 17.0964 27.2233 12.0082 32.4958 10.9851" fill="white"/>
<path d="M38.7646 35.5892C38.6032 35.5892 38.4687 35.5353 38.3342 35.4546L37.7423 35.0507C36.0745 33.8931 33.8149 32.3586 32.9809 30.7971C28.5692 30.2317 24.9377 26.8665 24.0768 22.4783C22.9739 16.8247 26.6862 11.3058 32.3353 10.202C37.9844 9.09821 43.4991 12.8134 44.602 18.467C45.4359 22.8014 43.3915 27.2165 39.6254 29.451V29.5318C39.8944 30.7971 39.5985 34.4854 39.5716 34.8892C39.5716 35.1584 39.3833 35.4007 39.1412 35.5084C39.0336 35.5623 38.926 35.5892 38.8184 35.5892H38.7646ZM34.326 11.5481C33.7611 11.5481 33.1961 11.6019 32.6043 11.7096C27.7622 12.6519 24.6149 17.3632 25.5564 22.1822C26.3096 26.0589 29.5915 28.9934 33.5458 29.3164C33.8418 29.3164 34.1108 29.5318 34.1915 29.8279C34.5681 30.9317 36.5856 32.4124 38.092 33.4354C38.1727 32.0355 38.2266 30.4202 38.092 29.8279L37.9575 29.2087C37.8768 28.8857 38.0651 28.5357 38.3611 28.3742C41.885 26.5704 43.8219 22.6129 43.0687 18.7631C42.2347 14.5095 38.4956 11.5481 34.326 11.5481Z" fill="#3E3A39"/>
<path d="M31.4205 21.1344C31.5012 21.592 31.9585 21.9151 32.3889 21.8074C32.8462 21.7266 33.1152 21.269 33.0345 20.8113C32.9538 20.3536 32.4965 20.0575 32.0661 20.1383C31.6088 20.219 31.3398 20.6767 31.4205 21.1344Z" fill="#3E3A39"/>
<path d="M35.2663 20.4075C35.347 20.8652 35.8043 21.1883 36.2347 21.0806C36.692 20.9998 36.961 20.5421 36.8803 20.0845C36.7996 19.6268 36.3692 19.3037 35.9119 19.4114C35.4546 19.4922 35.1587 19.9499 35.2663 20.4075Z" fill="#3E3A39"/>
<path d="M36.6919 23.6367C35.589 24.579 34.4054 24.7674 33.168 24.3098L36.6919 23.6367Z" fill="white"/>
<path d="M34.4052 25.3048C33.921 25.3048 33.4099 25.224 32.8988 25.0356C32.4953 24.901 32.307 24.4702 32.4415 24.0664C32.576 23.6626 33.0064 23.4472 33.4099 23.6087C34.4321 23.9856 35.3199 23.7972 36.1807 23.0703C36.5035 22.8011 36.9877 22.828 37.2567 23.151C37.5257 23.4741 37.4988 23.9587 37.176 24.2279C36.3421 24.9548 35.4006 25.3317 34.4052 25.3317V25.3048Z" fill="#3E3A39"/>
<path d="M32.4698 10.9553C36.3704 10.2015 40.1903 11.8976 42.3155 14.9936C40.6745 15.3166 38.1997 15.8012 35.0792 16.4474C34.8102 16.5012 33.4652 14.9667 33.2769 15.0205C33.0348 15.0743 32.8196 16.905 32.4967 16.9589C29.2687 17.605 26.4172 18.1703 24.8301 18.4934C25.6102 14.8051 28.5155 11.7361 32.4698 10.9822" fill="white"/>
<path d="M24.8301 19.2507C24.6149 19.2507 24.4266 19.1699 24.2921 19.0353C24.1038 18.8468 24.0231 18.6045 24.0769 18.3353C24.9377 14.2163 28.1658 11.0395 32.3085 10.2319C36.3974 9.42424 40.567 11.1472 42.9342 14.5932C43.0687 14.8086 43.0956 15.0778 43.0149 15.3201C42.9073 15.5624 42.719 15.7239 42.45 15.7778L35.2138 17.2315C34.7295 17.3392 34.2991 16.9892 33.6266 16.3162C33.4383 17.0431 33.2231 17.6084 32.6582 17.7431L24.9915 19.2776C24.9915 19.2776 24.8839 19.2776 24.8301 19.2776V19.2507ZM32.6044 11.7126C29.457 12.3318 26.9553 14.5394 25.9061 17.5008L32.0395 16.2893C32.0933 16.1277 32.174 15.8585 32.2009 15.697C32.3892 14.9432 32.5506 14.4048 33.1155 14.2701C33.5997 14.1894 33.8956 14.4586 34.5681 15.1047C34.7295 15.2663 34.9985 15.5085 35.1869 15.6701L40.9436 14.5124C38.8722 12.1972 35.7249 11.1203 32.6044 11.7395V11.7126Z" fill="#3E3A39"/>
<path d="M32.4698 18.6309C32.4698 18.6309 31.7704 18.4963 31.2324 18.9001L32.4698 18.6309Z" fill="white"/>
<path d="M31.2321 19.653C30.99 19.653 30.7748 19.5453 30.6134 19.3569C30.3713 19.0069 30.4251 18.5492 30.7748 18.28C31.5549 17.6877 32.5233 17.8493 32.6041 17.8762C33.0076 17.957 33.2766 18.3608 33.1959 18.7646C33.1152 19.1684 32.7117 19.4377 32.3081 19.3569C32.3081 19.3569 31.9046 19.303 31.6894 19.4915C31.5549 19.5992 31.3935 19.653 31.2321 19.653Z" fill="#3E3A39"/>
<path d="M36.6378 17.7403C36.6378 17.7403 35.9384 17.6057 35.4004 18.0095L36.6378 17.7403Z" fill="white"/>
<path d="M35.402 18.7663C35.1599 18.7663 34.9447 18.6586 34.7833 18.4701C34.5412 18.1202 34.595 17.6625 34.9447 17.3933C35.7518 16.801 36.6933 16.9894 36.774 16.9894C37.1775 17.0702 37.4465 17.474 37.3658 17.8779C37.2851 18.2817 36.8816 18.5509 36.4781 18.4701C36.4781 18.4701 36.1015 18.4163 35.8594 18.6047C35.7249 18.7124 35.5634 18.7663 35.402 18.7663Z" fill="#3E3A39"/>
</svg>
