<svg width="74" height="76" viewBox="0 0 74 76" fill="none" xmlns="http://www.w3.org/2000/svg">
<g clip-path="url(#clip0_469_1765)">
<path d="M27.2185 55.8354C20.8111 55.8354 15.6152 50.6126 15.6152 44.2322C15.6152 37.8517 20.838 32.6289 27.2185 32.6289C33.5989 32.6289 38.8218 37.8248 38.8218 44.2322C38.8218 50.6395 33.6259 55.8354 27.2185 55.8354ZM27.2185 34.1365C21.6457 34.1365 17.1229 38.6594 17.1229 44.2322C17.1229 49.805 21.6457 54.3278 27.2185 54.3278C32.7913 54.3278 37.3141 49.805 37.3141 44.2322C37.3141 38.6594 32.7913 34.1365 27.2185 34.1365Z" fill="#3E3A39"/>
<path d="M62.324 55.8354C55.9166 55.8354 50.7207 50.6126 50.7207 44.2322C50.7207 37.8517 55.9166 32.6289 62.324 32.6289C68.7313 32.6289 73.9272 37.8248 73.9272 44.2322C73.9272 50.6395 68.7313 55.8354 62.324 55.8354ZM62.324 34.1365C56.7781 34.1365 52.2552 38.6594 52.2552 44.2322C52.2552 49.805 56.7781 54.3278 62.324 54.3278C67.8698 54.3278 72.4196 49.805 72.4196 44.2322C72.4196 38.6594 67.8968 34.1365 62.324 34.1365Z" fill="#3E3A39"/>
<path d="M62.7547 45.8203C62.4316 45.8203 62.1355 45.6049 62.0278 45.2819L55.2435 23.8791C55.1897 23.7176 55.1897 23.556 55.2435 23.4214C55.2704 23.3137 55.5935 22.4253 56.6165 21.8869C57.5588 21.4023 58.7433 21.4023 60.1702 21.8869C60.3048 21.9407 61.7316 22.5868 62.297 24.1483C62.7008 25.2252 62.5662 26.4636 61.9201 27.7827C61.7316 28.1596 61.274 28.3212 60.8971 28.1327C60.5202 27.9443 60.3586 27.4866 60.5471 27.1097C61.0048 26.1944 61.1124 25.3598 60.8701 24.6867C60.5471 23.7445 59.6048 23.3137 59.6048 23.3137C57.7472 22.6945 57.0203 23.3676 56.778 23.7176L63.4546 44.8242C63.5892 45.228 63.3469 45.6588 62.9431 45.7934C62.8623 45.7934 62.7816 45.8203 62.7008 45.8203H62.7547Z" fill="#3E3A39"/>
<path d="M43.0486 46.2777H27.2994C27.0302 46.2777 26.761 46.1162 26.6263 45.9008C26.4917 45.6854 26.4917 45.3623 26.6263 45.1201L35.8067 29.9631L34.4336 26.6518C34.2721 26.2479 34.4336 25.8172 34.8375 25.6556C35.2144 25.4941 35.672 25.6557 35.8336 26.0595L37.2604 29.5324H57.5056C57.9363 29.5324 58.2594 29.8824 58.2594 30.2862C58.2594 30.69 57.9094 31.04 57.5056 31.04H37.8796L43.6947 45.2008C43.8024 45.4431 43.7755 45.7123 43.6139 45.9277C43.4793 46.1431 43.237 46.2777 42.9678 46.2777H43.0486ZM28.6455 44.7431H41.9179L36.5605 31.713L28.6455 44.7431Z" fill="#3E3A39"/>
<path d="M43.2096 44.8255C43.0481 44.8255 42.9135 44.7717 42.7789 44.6909C42.4289 44.4486 42.3481 43.964 42.5904 43.641L51.8246 30.234C52.0669 29.884 52.5246 29.8032 52.8745 30.0455C53.2245 30.2878 53.3053 30.7724 53.063 31.0955L43.8288 44.5025C43.6673 44.7179 43.4519 44.8255 43.2096 44.8255Z" fill="#3E3A39"/>
<path d="M38.7952 27.6477H31.634C30.7187 27.6477 29.9648 26.8939 29.9648 26.0055C29.9648 25.1171 30.7187 24.3633 31.634 24.3633H38.7952C39.7105 24.3633 40.4643 25.1171 40.4643 26.0055C40.4643 26.8939 39.7105 27.6477 38.7952 27.6477Z" fill="#FBDACF"/>
<path d="M38.7951 28.4006H31.6339C30.2878 28.4006 29.2109 27.3237 29.2109 25.9776C29.2109 24.6316 30.2878 23.5547 31.6339 23.5547H38.7951C40.1412 23.5547 41.218 24.6316 41.218 25.9776C41.218 27.3237 40.1412 28.4006 38.7951 28.4006ZM31.6339 25.0892C31.1493 25.0892 30.7455 25.493 30.7455 25.9776C30.7455 26.4622 31.1493 26.8661 31.6339 26.8661H38.7951C39.2797 26.8661 39.6835 26.4622 39.6835 25.9776C39.6835 25.493 39.2797 25.0892 38.7951 25.0892H31.6339Z" fill="#3E3A39"/>
<path d="M46.7353 45.227C46.7353 47.4077 44.9585 49.1845 42.7778 49.1845C40.5971 49.1845 38.8203 47.4077 38.8203 45.227C38.8203 43.0464 40.5971 41.2695 42.7778 41.2695C44.9585 41.2695 46.7353 43.0464 46.7353 45.227Z" fill="#FBDACF"/>
<path d="M42.7792 49.9686C40.1678 49.9686 38.041 47.8418 38.041 45.2304C38.041 42.619 40.1678 40.4922 42.7792 40.4922C45.3906 40.4922 47.5175 42.619 47.5175 45.2304C47.5175 47.8418 45.3906 49.9686 42.7792 49.9686ZM42.7792 42.0267C41.0024 42.0267 39.5756 43.4536 39.5756 45.2304C39.5756 47.0072 41.0024 48.4341 42.7792 48.4341C44.5561 48.4341 45.9829 47.0072 45.9829 45.2304C45.9829 43.4536 44.5561 42.0267 42.7792 42.0267Z" fill="#3E3A39"/>
<path d="M48.9703 52.1731H45.7397C45.4435 52.1731 45.1743 52.0116 45.0397 51.7155L42.3475 45.8196C42.186 45.4427 42.3475 44.985 42.7244 44.7966C43.1013 44.6081 43.559 44.7966 43.7475 45.1735L46.2512 50.6117H48.9972C49.4279 50.6117 49.751 50.9617 49.751 51.3655C49.751 51.7693 49.401 52.1193 48.9972 52.1193L48.9703 52.1731Z" fill="#3E3A39"/>
</g>
<defs>
<clipPath id="clip0_469_1765">
<rect width="73.927" height="76" fill="white"/>
</clipPath>
</defs>
</svg>
