<svg width="60" height="76" viewBox="0 0 60 76" fill="none" xmlns="http://www.w3.org/2000/svg">
<g clip-path="url(#clip0_469_1755)">
<path d="M57.37 63.8331H32.3059C31.3905 63.8331 30.6367 63.0793 30.6367 62.1639V12.4934C30.6367 11.578 31.3905 10.8242 32.3059 10.8242H57.37C58.2853 10.8242 59.0391 11.578 59.0391 12.4934V62.1639C59.0391 63.0793 58.2853 63.8331 57.37 63.8331Z" fill="#E9EAEA"/>
<path d="M57.3699 64.6137H32.3058C30.9597 64.6137 29.8828 63.5368 29.8828 62.1908V12.4933C29.8828 11.1472 30.9597 10.0703 32.3058 10.0703H57.3699C58.716 10.0703 59.7928 11.1741 59.7928 12.4933V62.1638C59.7928 63.5099 58.716 64.5868 57.3699 64.5868V64.6137ZM32.3058 11.6049C31.8212 11.6049 31.4173 12.0087 31.4173 12.5202V62.1908C31.4173 62.6753 31.8212 63.0792 32.3058 63.0792H57.3699C57.8545 63.0792 58.2583 62.6753 58.2583 62.1908V12.4933C58.2583 11.9818 57.8545 11.5779 57.3699 11.5779H32.3058V11.6049Z" fill="#3E3A39"/>
<path d="M56.1857 16.1797H33.5176V58.4737H56.1857V16.1797Z" fill="white"/>
<path d="M56.1582 59.2543H33.4901C33.0594 59.2543 32.7363 58.9044 32.7363 58.5005V16.1796C32.7363 15.7488 33.0863 15.4258 33.4901 15.4258H56.1582C56.589 15.4258 56.912 15.7758 56.912 16.1796V58.4736C56.912 58.9044 56.562 59.2274 56.1582 59.2274V59.2543ZM34.2709 57.7198H55.4044V16.9603H34.2709V57.7467V57.7198Z" fill="#3E3A39"/>
<path d="M48.1363 44.5566H41.702C39.306 44.5566 37.3945 42.6183 37.3945 40.2492V33.7879C37.3945 31.3919 39.3329 29.4805 41.702 29.4805H48.1363C50.5323 29.4805 52.4438 31.4188 52.4438 33.7879V40.2492C52.4438 42.6452 50.5054 44.5566 48.1363 44.5566Z" fill="#F8C8BD"/>
<path d="M42.4547 32.0625L44.2046 33.8393L43.1546 34.8893C43.1546 34.8893 42.9393 36.1815 44.2046 37.2045C45.4699 38.2276 46.6545 38.2814 46.6545 38.2814L47.8121 37.2853L49.4274 38.9814L48.3505 40.0583C48.3505 40.0583 46.6275 41.2966 43.2354 38.3891C40.1932 35.7777 41.1624 33.3817 41.1624 33.3817L42.4277 32.0894L42.4547 32.0625Z" fill="white"/>
</g>
<defs>
<clipPath id="clip0_469_1755">
<rect width="59.7931" height="76" fill="white"/>
</clipPath>
</defs>
</svg>
