<svg width="60" height="68" viewBox="0 0 60 68" fill="none" xmlns="http://www.w3.org/2000/svg">
<path d="M33.525 0.210112C17.0743 -1.72998 2.15748 9.98245 0.209825 26.3693C-0.298919 30.6428 0.133894 34.8104 1.32982 38.6717C7.21455 62.1457 33.6655 68 33.6655 68C30.146 65.243 28.3312 62.2856 27.439 59.6459C43.5062 61.0262 57.8802 49.4613 59.7898 33.396C61.7337 17.0054 49.9756 2.14643 33.525 0.210112Z" fill="#895AC3"/>
<path d="M16.4917 35.1052C16.4917 35.5472 16.3476 35.9411 16.0593 36.2773C15.7711 36.6136 15.3387 36.7866 14.7623 36.7866C13.6382 36.7866 13.0809 36.2293 13.0809 35.1052V33.7313C13.0809 33.2605 13.0041 32.8474 12.8503 32.5111C12.6966 32.1748 12.2643 32.0019 11.5533 32.0019H7.68136C7.10489 32.0019 6.68215 31.8193 6.40353 31.4639C6.13451 31.1084 6 30.7433 6 30.3686C6 29.9651 6.15372 29.5904 6.46117 29.2445C6.76862 28.9082 7.17215 28.7353 7.68136 28.7353H21.9393C22.4485 28.7353 22.8424 28.9082 23.1402 29.2445C23.4285 29.5807 23.5726 29.9554 23.5726 30.3686C23.5726 30.7433 23.4477 31.1084 23.1883 31.4639C22.9289 31.8193 22.5157 32.0019 21.9393 32.0019H17.9713C17.2891 32.0019 16.876 32.1748 16.7223 32.5111C16.5685 32.8474 16.4917 33.2605 16.4917 33.7313V35.1052ZM8.14253 36.7866C8.14253 36.3062 8.30586 35.9123 8.62292 35.5856C8.94958 35.2589 9.3435 35.1052 9.82389 35.1052C10.3043 35.1052 10.6982 35.2685 11.0249 35.5856C11.3515 35.9026 11.5052 36.3062 11.5052 36.7866V40.3991C11.5052 40.9371 11.6494 41.4751 11.9376 42.0036C12.2258 42.532 12.8503 42.7914 13.7919 42.7914H20.0081C20.4789 42.7914 20.8824 42.9355 21.2091 43.2238C21.5357 43.512 21.6895 43.8963 21.6895 44.3671C21.6895 44.8763 21.5261 45.2702 21.2091 45.568C20.8824 45.8563 20.4885 46.0004 20.0081 46.0004H10.8903C10.1409 46.0004 9.49722 45.7506 8.95919 45.2606C8.41155 44.7706 8.14253 44.0596 8.14253 43.1469V36.7866ZM11.1978 25.7376C10.3811 25.7376 9.70859 25.4878 9.18978 24.9786C8.66135 24.4694 8.40194 23.7873 8.40194 22.9418V16.3701C8.40194 15.5534 8.66135 14.8809 9.18978 14.3621C9.7182 13.8336 10.3907 13.5742 11.1978 13.5742H18.0673C18.9513 13.5742 19.643 13.8336 20.1522 14.3621C20.6614 14.8905 20.9112 15.563 20.9112 16.3701V22.9418C20.9112 23.7873 20.6614 24.4694 20.1522 24.9786C19.643 25.4878 18.9513 25.7376 18.0673 25.7376H11.1978ZM11.707 20.4918C11.707 21.1067 11.8127 21.6063 12.0145 21.9906C12.2162 22.3845 12.6774 22.5767 13.3884 22.5767H15.7327C16.4821 22.5767 16.9625 22.3845 17.1834 21.9906C17.4044 21.5967 17.5101 21.0971 17.5101 20.4918V18.6567C17.5101 18.1475 17.3948 17.7056 17.1834 17.3309C16.9625 16.9561 16.4628 16.7736 15.6846 16.7736H13.4941C12.7831 16.7736 12.3027 16.9658 12.0721 17.3597C11.8319 17.7536 11.7166 18.1859 11.7166 18.6567V20.4918H11.707Z" fill="white"/>
<path d="M36.743 28.2259C36.743 28.7063 36.8103 29.1194 36.9448 29.4749C37.0793 29.8304 37.502 30.013 38.2226 30.013H42.0946C42.671 30.013 43.0938 30.1859 43.3724 30.5222C43.6414 30.8584 43.7759 31.2139 43.7759 31.5886C43.7759 32.0306 43.6222 32.4149 43.3147 32.732C43.0073 33.0586 42.6038 33.2123 42.0946 33.2123H28.0864C27.5772 33.2123 27.1737 33.049 26.8855 32.732C26.5972 32.4053 26.4531 32.0306 26.4531 31.5886C26.4531 31.2139 26.5876 30.8584 26.8567 30.5222C27.1257 30.1859 27.5388 30.013 28.0768 30.013H31.795C32.506 30.013 32.9288 29.8304 33.0729 29.4749C33.2074 29.1194 33.2746 28.7063 33.2746 28.2259V26.5926C33.2746 26.4869 33.2938 26.3908 33.3227 26.2851C32.0641 25.9777 31.0264 25.3244 30.1905 24.3252C29.3547 23.326 28.9415 22.1442 28.9415 20.7895C28.9415 19.6654 29.2106 18.7046 29.7582 17.888H28.586C27.5292 17.888 27.0104 17.3595 27.0104 16.3123C27.0104 15.2651 27.5388 14.7366 28.586 14.7366H32.506C33.0152 14.7366 33.265 14.3811 33.265 13.6702V11.6333C33.265 11.1625 33.438 10.7686 33.7742 10.4612C34.1105 10.1537 34.5236 10 34.9944 10C35.4652 10 35.8687 10.1537 36.1954 10.4612C36.5221 10.7686 36.6758 11.1529 36.6758 11.6333V13.6221C36.6758 14.0641 36.7142 14.3523 36.8007 14.4868C36.8871 14.6213 37.0985 14.7078 37.4348 14.7462H41.2491C41.7199 14.7462 42.1234 14.8903 42.45 15.1786C42.7767 15.4668 42.9304 15.8511 42.9304 16.3219C42.9304 16.7927 42.7671 17.177 42.45 17.4652C42.1234 17.7535 41.7295 17.8976 41.2491 17.8976H40.125C40.394 18.205 40.6054 18.6566 40.7591 19.2427C40.9128 19.8383 40.9897 20.3572 40.9897 20.7991C40.9897 22.1538 40.5765 23.326 39.7407 24.3156C38.9048 25.3052 37.8671 25.9585 36.6085 26.3044C36.6373 26.41 36.6662 26.5061 36.6854 26.6118C36.7046 26.7175 36.7142 26.8136 36.7142 26.9193V28.2451L36.743 28.2259ZM32.0544 20.6934C32.0544 21.5101 32.3523 22.1634 32.948 22.6534C33.5436 23.1434 34.2258 23.3932 35.0136 23.3932C35.8015 23.3932 36.4164 23.1434 36.9736 22.6534C37.5309 22.1634 37.8095 21.5101 37.8095 20.6934C37.8095 19.8768 37.5309 19.1658 36.9736 18.6566C36.4164 18.1474 35.763 17.888 35.0136 17.888C34.2642 17.888 33.5436 18.1474 32.948 18.6566C32.3523 19.1658 32.0544 19.8479 32.0544 20.6934ZM45.3996 13.92C45.3996 13.4108 45.563 13.0072 45.88 12.6998C46.1971 12.3923 46.6198 12.2386 47.129 12.2386C47.7439 12.2386 48.1763 12.4019 48.4261 12.719C48.6759 13.0457 48.8104 13.4396 48.8104 13.92V16.8695C48.8104 17.3115 48.8872 17.7054 49.041 18.0417C49.1947 18.378 49.627 18.5509 50.338 18.5509H52.0674C52.6439 18.5509 53.057 18.7238 53.3164 19.0601C53.5758 19.3964 53.7007 19.7519 53.7007 20.1266C53.7007 21.145 53.1531 21.6542 52.0674 21.6542H50.338C49.6943 21.6542 49.2812 21.7983 49.089 22.0866C48.9065 22.3748 48.8104 22.7591 48.8104 23.2299V28.274C48.8104 28.7543 48.647 29.1579 48.33 29.4941C48.0033 29.8304 47.6094 30.0033 47.129 30.0033C46.6486 30.0033 46.2451 29.8304 45.9088 29.4941C45.5726 29.1579 45.3996 28.7447 45.3996 28.274V13.92Z" fill="white"/>
</svg>
