<svg width="426" height="54" viewBox="0 0 426 54" fill="none" xmlns="http://www.w3.org/2000/svg">
<mask id="path-1-inside-1_2023_45157" fill="white">
<path d="M425.5 54H12.8125L0 35.8047V17.6084L12.8125 0H425.5V54ZM9.7002 22.6104C7.63961 22.6104 5.96875 24.3558 5.96875 26.5088C5.96882 28.6617 7.63965 30.4072 9.7002 30.4072C11.7605 30.407 13.4306 28.6616 13.4307 26.5088C13.4307 24.356 11.7606 22.6106 9.7002 22.6104Z"/>
</mask>
<path d="M425.5 54H12.8125L0 35.8047V17.6084L12.8125 0H425.5V54ZM9.7002 22.6104C7.63961 22.6104 5.96875 24.3558 5.96875 26.5088C5.96882 28.6617 7.63965 30.4072 9.7002 30.4072C11.7605 30.407 13.4306 28.6616 13.4307 26.5088C13.4307 24.356 11.7606 22.6106 9.7002 22.6104Z" fill="#ECC8C1"/>
<path d="M425.5 54V55H426.5V54H425.5ZM12.8125 54L11.9949 54.5757L12.2936 55H12.8125V54ZM0 35.8047H-1V36.1214L-0.817629 36.3804L0 35.8047ZM0 17.6084L-0.808596 17.02L-1 17.2831V17.6084H0ZM12.8125 0V-1H12.3034L12.0039 -0.588364L12.8125 0ZM425.5 0H426.5V-1H425.5V0ZM9.7002 22.6104L9.70031 21.6104H9.7002V22.6104ZM5.96875 26.5088H4.96875V26.5088L5.96875 26.5088ZM9.7002 30.4072V31.4072H9.70031L9.7002 30.4072ZM13.4307 26.5088L14.4307 26.5088V26.5088H13.4307ZM425.5 54V53H12.8125V54V55H425.5V54ZM12.8125 54L13.6301 53.4243L0.817629 35.2289L0 35.8047L-0.817629 36.3804L11.9949 54.5757L12.8125 54ZM0 35.8047H1V17.6084H0H-1V35.8047H0ZM0 17.6084L0.808596 18.1968L13.6211 0.588364L12.8125 0L12.0039 -0.588364L-0.808596 17.02L0 17.6084ZM12.8125 0V1H425.5V0V-1H12.8125V0ZM425.5 0H424.5V54H425.5H426.5V0H425.5ZM9.7002 22.6104V21.6104C7.04655 21.6104 4.96875 23.8452 4.96875 26.5088H5.96875H6.96875C6.96875 24.8664 8.23268 23.6104 9.7002 23.6104V22.6104ZM5.96875 26.5088L4.96875 26.5088C4.96883 29.1723 7.04656 31.4072 9.7002 31.4072V30.4072V29.4072C8.23275 29.4072 6.9688 28.1511 6.96875 26.5088L5.96875 26.5088ZM9.7002 30.4072L9.70031 31.4072C12.3539 31.4069 14.4306 29.1719 14.4307 26.5088L13.4307 26.5088L12.4307 26.5088C12.4306 28.1512 11.1672 29.4071 9.70008 29.4072L9.7002 30.4072ZM13.4307 26.5088H14.4307C14.4307 23.8456 12.3539 21.6107 9.70031 21.6104L9.7002 22.6104L9.70008 23.6104C11.1673 23.6105 12.4307 24.8663 12.4307 26.5088H13.4307Z" fill="#DA9186" mask="url(#path-1-inside-1_2023_45157)"/>
<path d="M47 38.4H46.96C46.68 39.16 45.12 40.12 43.04 41.24C40.48 42.6 37.2 44.2 34.96 45.16L32.84 41.04C35.6 39.88 39.2 38.24 41.48 36.96C43.36 35.96 44.28 34.6 44.28 32.44V29.8H49.4V32.44C49.4 34.56 50.2 35.84 52.2 36.96C54.4 38.2 58.04 39.88 60.8 41.08L58.76 45.04C56.48 44.04 53.24 42.48 50.68 41.12C48.6 40 47.28 39.12 47 38.4ZM59.04 7.56V31.76H54V20.8H48.04V16.52H54V7.56H59.04ZM29.92 14.04V9.76H49.12V14.04H42.2V16.44C42.2 18.44 42.6 19.48 44.72 21.04C46.32 22.24 48.32 23.52 50.48 24.84L47.84 28.44C46.16 27.4 44.36 26.2 42.8 25.12C41.08 23.92 40.12 23.12 39.96 22.72H39.92C39.76 23.2 38.48 24.32 36.64 25.72C34.88 27.04 33.28 28.24 31.24 29.6L28.36 25.88C30.88 24.2 33.32 22.4 35.04 20.96C36.44 19.76 37.16 18.44 37.16 16.44V14.04H29.92ZM92.0941 7.56V21.12H97.2141V25.52H92.0941V44.76H87.0141V7.56H92.0941ZM66.0941 37.08L63.4141 33.08C75.4541 25.92 76.1341 23.88 76.1341 17.96V15.28H64.0941V10.92H81.2141V18.2C81.2141 26.28 79.3741 28.96 66.0941 37.08ZM126.508 7.56V16.44H131.388V20.84H126.508V30.36H121.468V7.56H126.508ZM102.788 36.28V32.04H126.508V45.24H121.468V36.28H102.788ZM103.428 20.96V24.44C109.028 24.44 113.628 24.36 118.508 23.88L118.948 28.04C114.348 28.56 108.668 28.64 98.4681 28.64V16.92H110.428V13.44H98.4681V9.24H115.388V20.96H103.428ZM170.922 7.56V20.68H176.042V25.08H170.922V44.76H165.842V7.56H170.922ZM157.882 26.28C159.602 28.16 161.682 30.2 163.762 32.08L160.522 35.48C158.722 33.8 156.962 32.04 155.482 30.52C153.962 28.96 152.802 27.64 152.522 26.96H152.442C152.202 27.68 150.762 29.32 149.442 30.68C147.962 32.24 146.402 33.76 144.122 35.88L140.802 32.44C143.042 30.44 145.082 28.44 146.802 26.56C149.122 24 149.882 22.04 149.882 18.76V10.2H155.042V18.76C155.042 21.92 155.482 23.68 157.882 26.28ZM175.816 25.4H184.096V20.92C181.936 19.76 180.656 18 180.656 15.76V14.8C180.656 10.32 185.696 7.88 192.856 7.88C200.016 7.88 205.056 10.32 205.056 14.8V15.76C205.056 18 203.776 19.76 201.616 20.92V25.4H209.896V29.52H175.816V25.4ZM192.856 45.88C186.376 45.88 180.856 43.68 180.856 39.08V37.88C180.856 33.28 186.376 31.08 192.856 31.08C199.336 31.08 204.856 33.28 204.856 37.88V39.08C204.856 43.68 199.336 45.88 192.856 45.88ZM192.856 11.92C188.776 11.92 185.656 13.2 185.656 14.96V15.6C185.656 17.36 188.776 18.64 192.856 18.64C196.936 18.64 200.056 17.36 200.056 15.6V14.96C200.056 13.2 196.936 11.92 192.856 11.92ZM192.856 35.16C189.296 35.16 185.856 36.36 185.856 38.2V38.76C185.856 40.6 189.296 41.8 192.856 41.8C196.416 41.8 199.856 40.6 199.856 38.76V38.2C199.856 36.36 196.416 35.16 192.856 35.16ZM192.856 22.68C191.496 22.68 190.256 22.6 189.096 22.44V25.4H196.616V22.44C195.456 22.6 194.176 22.68 192.856 22.68ZM251.55 7.56V44.76H246.47V7.56H251.55ZM237.47 26.36C239.19 28.24 241.27 30.28 243.35 32.16L240.11 35.56C238.31 33.88 236.55 32.12 235.07 30.6C233.55 29.04 232.39 27.72 232.11 27.04H232.03C231.79 27.76 230.35 29.4 229.03 30.76C227.55 32.32 225.99 33.84 223.71 35.96L220.39 32.52C222.63 30.52 224.67 28.52 226.39 26.64C228.71 24.08 229.47 22.12 229.47 18.84V10.16H234.63V18.84C234.63 22 235.07 23.76 237.47 26.36ZM268.844 13.88V9.6H294.524V13.88H284.284V14.2C284.284 16.08 285.164 17.36 287.444 18.48C290.044 19.76 293.404 21.16 296.404 22.32L294.444 26.28C291.524 25.12 288.644 23.84 286.084 22.68C283.764 21.64 282.204 20.68 281.804 19.92H281.764C281.364 20.68 279.604 21.72 277.284 22.76C274.724 23.92 271.844 25.2 268.924 26.36L266.964 22.32C269.964 21.16 273.324 19.76 275.924 18.48C278.204 17.36 279.084 16.08 279.084 14.2V13.88H268.844ZM264.644 28.4H298.724V32.68H284.244V44.76H279.164V32.68H264.644V28.4ZM330.498 7.56V44.76H325.498V7.56H330.498ZM311.298 28.24C305.298 28.24 301.218 24.32 301.218 19.84V18.24C301.218 13.76 305.298 9.84 311.298 9.84C317.298 9.84 321.378 13.76 321.378 18.24V19.84C321.378 24.32 317.298 28.24 311.298 28.24ZM311.298 14.16C308.058 14.16 306.018 16.32 306.018 18.52V19.56C306.018 21.76 308.058 23.92 311.298 23.92C314.538 23.92 316.578 21.76 316.578 19.56V18.52C316.578 16.32 314.538 14.16 311.298 14.16ZM299.818 37.2V32.84C312.058 32.84 318.818 32.64 323.578 32.16L323.938 36.48C319.338 37.04 312.098 37.2 299.818 37.2ZM372.993 7.56V20.68H378.113V25.08H372.993V44.76H367.913V7.56H372.993ZM359.953 26.28C361.673 28.16 363.753 30.2 365.833 32.08L362.593 35.48C360.793 33.8 359.033 32.04 357.553 30.52C356.033 28.96 354.873 27.64 354.593 26.96H354.513C354.273 27.68 352.833 29.32 351.513 30.68C350.033 32.24 348.473 33.76 346.193 35.88L342.872 32.44C345.113 30.44 347.153 28.44 348.873 26.56C351.193 24 351.953 22.04 351.953 18.76V10.2H357.113V18.76C357.113 21.92 357.553 23.68 359.953 26.28ZM407.407 7.56V17.2H412.287V21.6H407.407V31H402.367V7.56H407.407ZM391.527 7.16V11.16H399.567V15.4H378.287V11.16H386.487V7.16H391.527ZM389.007 30.52C383.407 30.52 380.167 27.68 380.167 24.2V22.92C380.167 19.44 383.407 16.6 389.007 16.6C394.607 16.6 397.847 19.44 397.847 22.92V24.2C397.847 27.68 394.607 30.52 389.007 30.52ZM389.007 20.56C386.327 20.56 384.927 21.92 384.927 23.16V23.96C384.927 25.2 386.327 26.56 389.007 26.56C391.687 26.56 393.087 25.2 393.087 23.96V23.16C393.087 21.92 391.687 20.56 389.007 20.56ZM396.087 45.92C389.287 45.92 384.647 43.4 384.647 39.48V38.04C384.647 34.12 389.287 31.6 396.087 31.6C402.887 31.6 407.527 34.12 407.527 38.04V39.48C407.527 43.4 402.887 45.92 396.087 45.92ZM396.087 35.72C392.287 35.72 389.567 36.92 389.567 38.44V39.08C389.567 40.6 392.287 41.8 396.087 41.8C399.887 41.8 402.607 40.6 402.607 39.08V38.44C402.607 36.92 399.887 35.72 396.087 35.72Z" fill="#1E1E1E"/>
</svg>
