<svg width="34" height="52" viewBox="0 0 34 52" fill="none" xmlns="http://www.w3.org/2000/svg">
<circle cx="17" cy="26" r="16" fill="white" stroke="#1E1E1E" stroke-width="2"/>
<path d="M13.4165 20.116L11.1545 18.348C12.4025 16.736 14.0145 15.644 16.7185 15.644C20.2285 15.644 22.5165 17.516 22.5165 20.324V20.584C22.5165 22.066 21.9445 24.068 19.8125 24.874C22.2825 25.316 23.4525 26.98 23.4525 29.112V29.502C23.4525 32.336 21.2425 34.962 16.6405 34.962C14.4565 34.962 12.4025 34.286 10.6345 32.882L12.2725 30.282C14.0925 31.608 15.1585 31.998 16.6665 31.998C19.0065 31.998 20.0985 30.984 20.0985 29.346V29.008C20.0985 27.188 19.0845 26.356 16.6925 26.356H14.1705V23.496H16.4065C18.7465 23.496 19.2665 22.404 19.2665 20.792V20.584C19.2665 19.18 18.2785 18.556 16.7185 18.556C15.1325 18.556 14.2485 19.206 13.4165 20.116Z" fill="#1E1E1E"/>
</svg>
