<svg width="452" height="34" viewBox="0 0 452 34" fill="none" xmlns="http://www.w3.org/2000/svg">
<path d="M47.639 17.1858C47.5347 22.8364 44.6949 26.5861 39.2704 28.1219C38.5633 28.3247 38.2794 28.655 38.036 29.2925C36.9464 32.1671 34.8427 33.7956 31.7595 33.9811C28.5198 34.1781 26.0625 32.8394 24.6774 29.8605C24.3007 29.0491 23.8081 28.6956 22.9735 28.6377C21.5884 28.5333 20.3482 28.0407 19.3803 27.0381C18.8761 26.5165 18.54 26.5107 17.9778 27.0033C16.1697 28.5913 14.0311 29.0723 11.6724 28.6666C8.20669 28.0755 5.99282 25.6182 5.78998 22.0946C5.68566 20.2284 5.59873 18.3623 5.56975 16.4962C5.55816 15.7717 5.33793 15.4472 4.6193 15.1748C1.34486 13.9172 -0.150372 11.4773 0.0119009 7.87832C0.150992 4.80093 2.08668 2.12923 5.22203 1.41059C9.9859 0.321043 14.8193 -0.449753 19.7281 0.552862C20.2844 0.668771 20.7539 0.506498 21.2639 0.361612C25.3729 -0.791685 29.0124 0.854226 30.7453 4.7198C31.0814 5.46741 31.5045 5.53696 32.1767 5.51957C34.6804 5.46162 37.155 5.72241 39.566 6.42366C44.5906 7.88412 47.7318 12.0916 47.639 17.18V17.1858ZM29.082 24.1809C29.082 24.9981 29.053 25.8095 29.0878 26.6266C29.1515 28.1972 29.8238 28.9216 31.2205 28.968C32.3796 29.0086 33.2721 28.1566 33.3996 26.7599C33.4865 25.8095 33.4575 24.8416 33.4459 23.8854C33.4402 23.2653 33.5966 23.0103 34.2805 23.2131C35.2599 23.5087 36.2857 23.4333 37.2825 23.3464C39.7108 23.1378 41.6291 21.5208 42.2551 19.2084C42.9911 16.4962 42.2087 13.9404 40.2382 12.4799C38.5402 11.2165 36.5291 10.9673 34.5355 10.7471C30.9655 10.3646 30.5366 10.7181 29.8933 14.2881C29.818 14.7112 29.7426 15.1342 29.7079 15.5631C29.6325 16.473 29.563 17.3133 28.7053 17.9566C28.0156 18.4724 27.9634 19.504 28.4039 20.0662C29.4297 21.3644 29.0704 22.7784 29.082 24.1751V24.1809ZM15.0164 18.3275C15.0164 18.3275 14.9758 18.3275 14.9526 18.3275C14.9526 17.2728 14.9874 16.218 14.941 15.169C14.8947 14.0679 14.7845 12.9725 14.6976 11.8772C14.5856 10.4206 15.2559 9.65753 16.7086 9.58798C18.4415 9.50105 19.3166 8.75923 19.305 7.36832C19.2992 5.989 18.4531 5.25298 16.6333 5.28775C14.5759 5.32832 12.5185 5.49639 10.4727 5.67605C9.13976 5.79196 7.79521 5.87889 6.51441 6.33093C5.31475 6.754 4.68305 7.98843 5.00759 9.19389C5.28578 10.2313 6.38691 10.7645 7.67351 10.4747C7.99805 10.3993 8.3168 10.295 8.63555 10.1965C9.62658 9.88355 10.0554 10.0922 10.1656 11.2687C10.4959 14.6996 10.664 18.1363 10.7277 21.5846C10.7567 23.1436 11.4116 23.7173 12.8257 23.7115C14.2745 23.6999 14.9178 23.132 15.0048 21.6425C15.0685 20.5472 15.0164 19.4403 15.0164 18.3391V18.3275ZM26.2827 18.9071C26.3175 17.0409 26.1842 15.1922 25.7727 13.3666C25.4772 12.0568 24.6716 11.402 23.2981 11.5353C21.8666 11.6743 21.4377 12.7581 21.4841 13.8766C21.5884 16.5889 21.8724 19.2954 22.1042 22.0019C22.2143 23.3232 23.0257 23.7521 24.2717 23.7115C25.5757 23.6709 26.2074 23.0045 26.2712 21.7758C26.3233 20.8254 26.2827 19.8691 26.2827 18.9129V18.9071ZM25.9872 7.17128C26.3813 5.96002 25.5815 5.21241 24.4862 5.05593C22.4983 4.77196 21.1248 5.91946 21.0958 7.61753C21.0668 9.10696 21.9709 10.0864 23.4198 10.1386C25.1063 10.1965 25.9292 9.29241 25.9872 7.17707V7.17128Z" fill="#6A83B4"/>
<path d="M29.0821 24.174C29.0647 22.7772 29.4298 21.3632 28.404 20.065C27.9577 19.5028 28.0099 18.477 28.7054 17.9554C29.5631 17.3121 29.6326 16.466 29.708 15.5619C29.7428 15.133 29.8181 14.71 29.8934 14.2869C30.5367 10.7227 30.9656 10.3634 34.5356 10.7459C36.535 10.9603 38.5403 11.2153 40.2383 12.4787C42.2088 13.945 42.9912 16.495 42.2552 19.2072C41.6293 21.5196 39.711 23.1366 37.2827 23.3452C36.28 23.4321 35.26 23.5075 34.2806 23.2119C33.5967 23.0033 33.4345 23.2641 33.4461 23.8842C33.4576 24.8404 33.4866 25.8083 33.3997 26.7587C33.2722 28.1554 32.3739 29.0074 31.2206 28.9668C29.8239 28.9146 29.1574 28.196 29.0879 26.6254C29.0531 25.8141 29.0821 24.9969 29.0821 24.1797V24.174ZM35.7932 19.0855C37.3638 19.1203 38.1867 18.5002 38.2447 17.3353C38.3084 16.1009 36.9523 15.0113 35.1151 15.0403C33.0867 15.0751 34.0546 16.8369 33.8575 17.7584C33.4982 19.4565 35.1383 18.7552 35.7932 19.0913V19.0855Z" fill="#FCFCFC"/>
<path d="M15.0168 18.3299C15.0168 19.431 15.0689 20.538 15.0052 21.6333C14.9182 23.1227 14.2749 23.6907 12.8261 23.7023C11.4062 23.7139 10.7571 23.1343 10.7281 21.5753C10.6702 18.127 10.4963 14.6961 10.166 11.2594C10.0559 10.0829 9.62119 9.86852 8.63596 10.1873C8.31721 10.2916 7.99846 10.3901 7.67391 10.4654C6.38732 10.761 5.28618 10.2278 5.008 9.18465C4.68345 7.98499 5.32096 6.74476 6.51482 6.3217C7.78982 5.86965 9.14017 5.78272 10.4731 5.66681C12.5247 5.48715 14.5821 5.31908 16.6337 5.27851C18.4593 5.24374 19.2996 5.98556 19.3054 7.35908C19.3112 8.74999 18.4419 9.49181 16.709 9.57874C15.2602 9.65215 14.5898 10.4152 14.698 11.8679C14.7792 12.9633 14.8951 14.0586 14.9414 15.1598C14.982 16.2087 14.953 17.2635 14.953 18.3183C14.9762 18.3183 14.9936 18.3183 15.0168 18.3183V18.3299Z" fill="#FCFCFC"/>
<path d="M25.9741 18.8634C25.9741 19.8196 26.0147 20.7759 25.9625 21.7263C25.8987 22.9607 25.2612 23.6214 23.9631 23.662C22.717 23.7026 21.9057 23.2737 21.7956 21.9523C21.5637 19.2459 21.2798 16.5394 21.1754 13.8271C21.1349 12.7144 21.5637 11.6248 22.9894 11.4857C24.3629 11.3524 25.1627 12.0073 25.4641 13.3171C25.8756 15.1427 26.0089 16.9914 25.9741 18.8576V18.8634Z" fill="#FCFCFC"/>
<path d="M25.9858 7.17585C25.9278 9.29119 25.1049 10.2011 23.4184 10.1373C21.9637 10.0852 21.0655 9.10573 21.0944 7.6163C21.1292 5.92403 22.5027 4.77073 24.4848 5.05471C25.5801 5.21119 26.3799 5.9646 25.9858 7.17005V7.17585Z" fill="#FCFCFC"/>
<path d="M35.7924 19.0966C35.0854 18.9923 32.9874 19.4965 33.3467 17.7984C33.5438 16.8769 33.0801 15.0861 35.1085 15.0513C36.9457 15.0224 38.3018 16.1119 38.2381 17.3463C38.1801 18.5112 37.3572 19.1313 35.7866 19.0966H35.7924Z" fill="#6A83B4"/>
<path d="M59.0137 10.5044C59.0137 9.95226 59.3312 9.68935 59.9926 9.68935H63.2204V8.26964C63.2204 7.63866 63.5378 7.29688 64.1993 7.29688C64.8607 7.29688 65.1782 7.61237 65.1782 8.26964V9.68935H68.3795C69.0409 9.68935 69.3584 9.95226 69.3584 10.5044C69.3584 11.0565 69.0409 11.3194 68.3795 11.3194H67.9562C68.4853 11.9504 68.7499 12.818 68.7499 13.9222C68.7499 16.8668 67.2418 18.3917 64.2257 18.5231C61.2096 18.6283 59.6751 17.2086 59.6751 14.264C59.6751 12.9757 60.0455 12.003 60.7598 11.2931H60.019C59.3841 11.2931 59.0401 11.0302 59.0401 10.4781L59.0137 10.5044ZM64.1728 11.3457C62.4266 11.4246 61.58 12.371 61.58 14.2377C61.58 16.1043 62.4531 17.0245 64.1728 16.9457C65.8925 16.8668 66.7392 15.894 66.7392 14.0536C66.7392 12.3447 65.9984 11.4508 64.5168 11.372H64.1728V11.3457ZM61.8446 21.8883C61.7652 21.1522 61.9769 20.7053 62.5325 20.5475C63.2468 20.3372 63.6172 20.5738 63.6966 21.2837L64.0141 23.5973C64.0934 24.3334 64.4638 24.7015 65.1253 24.7278C67.8504 24.8592 70.549 24.8592 73.2476 24.7278C73.8297 24.7015 74.0942 24.9381 74.0942 25.4113C74.0942 26.016 73.8032 26.3315 73.2476 26.3841C70.5225 26.5418 67.5064 26.5418 64.2257 26.3841C63.0352 26.3315 62.3737 25.7531 62.215 24.6489L61.8446 21.8883ZM72.3481 20.1006C72.6655 16.2095 72.6655 12.3184 72.3481 8.42739C72.2951 7.84898 72.5862 7.55978 73.2211 7.5072C73.8561 7.45462 74.2001 7.71753 74.2265 8.29593C74.3323 9.71564 74.4117 11.1354 74.4382 12.5288H77.3485C77.9834 12.5288 78.3009 12.7917 78.3009 13.3438C78.3009 13.8959 77.9834 14.1588 77.3485 14.1588H74.4646C74.4646 16.1832 74.3853 18.2076 74.2265 20.2057C74.1736 20.7841 73.8561 21.0207 73.2211 20.9682C72.5862 20.9156 72.2951 20.6264 72.3481 20.048V20.1006ZM84.2802 23.4395C80.9466 23.571 79.3063 21.1259 79.3063 16.1832C79.3063 11.2405 80.9731 8.71659 84.2802 8.61142C87.4286 8.47997 89.0954 10.6884 89.2277 15.2104H93.3021C93.2757 12.9757 93.1698 10.7147 93.0111 8.45368C92.9582 7.87528 93.2492 7.58608 93.8842 7.53349C94.5191 7.48091 94.8366 7.74382 94.8631 8.32222C95.2864 13.4752 95.2864 18.602 94.8631 23.755C94.8366 24.3334 94.4927 24.57 93.8842 24.5174C93.2492 24.4649 92.9582 24.1757 93.0111 23.5973C93.1698 21.3625 93.2757 19.1015 93.3021 16.8405H89.2277C88.9896 21.1259 87.3493 23.3343 84.2802 23.4395ZM84.2802 10.2152C82.243 10.2678 81.2377 12.2396 81.2377 16.1043C81.2377 19.9691 82.243 21.8883 84.2802 21.8358C86.291 21.7569 87.2963 19.7851 87.2963 15.894C87.2963 12.003 86.291 10.1626 84.2802 10.2415V10.2152ZM99.6783 10.8199H105.446L105.499 8.69029C105.499 8.11189 105.843 7.82269 106.478 7.82269C107.113 7.82269 107.404 8.11189 107.404 8.69029V9.68935H111.134C111.108 9.32128 111.081 8.9795 111.081 8.58513C111.028 7.90157 111.319 7.53349 111.928 7.48091C112.563 7.42833 112.88 7.69124 112.907 8.26964C113.145 11.2405 113.145 14.2114 112.907 17.156C112.88 17.7344 112.536 17.971 111.928 17.9184C111.293 17.8658 111.002 17.4978 111.081 16.8142C111.108 16.3147 111.134 15.7888 111.134 15.2893H107.245C107.06 16.5513 106.266 17.156 104.864 17.156H100.207C98.6464 17.156 97.8263 16.3672 97.7998 14.7898L97.6675 8.63771C97.6675 8.05931 97.985 7.77011 98.6464 7.77011C99.255 7.77011 99.5724 8.05931 99.5989 8.63771L99.6518 10.7673L99.6783 10.8199ZM105.419 12.4762H99.7312L99.7841 14.5795C99.7841 15.3419 100.102 15.71 100.737 15.71H104.414C105.049 15.71 105.367 15.3419 105.393 14.5795L105.446 12.4762H105.419ZM113.039 22.8874C113.039 25.3587 110.896 26.647 106.584 26.6996C102.271 26.7785 100.128 25.5691 100.128 23.0977C100.128 20.6264 102.271 19.3381 106.584 19.2855C110.896 19.2067 113.039 20.4161 113.039 22.8874ZM106.584 25.0695C109.6 24.9907 111.108 24.2808 111.108 22.9137C111.108 21.5466 109.6 20.8893 106.584 20.9682C103.567 21.047 102.059 21.7569 102.059 23.124C102.059 24.4911 103.567 25.1484 106.584 25.0695ZM107.377 11.372L107.324 13.6856H111.214C111.214 12.9231 111.214 12.1344 111.214 11.372H107.351H107.377ZM114.891 16.8405C114.918 16.2884 115.182 16.0255 115.711 16.0518C120.976 16.4198 126.215 16.4198 131.48 16.0518C131.982 16.0255 132.273 16.2884 132.3 16.8405C132.326 17.3926 132.088 17.6818 131.559 17.7081C126.268 18.0499 120.976 18.0499 115.658 17.7081C115.129 17.6818 114.891 17.3926 114.918 16.8405H114.891ZM130.554 10.7147C130.554 13.002 128.226 14.1588 123.596 14.2377C118.939 14.3166 116.611 13.2123 116.611 10.925C116.611 8.63771 118.939 7.48091 123.596 7.40204C128.226 7.32317 130.554 8.42739 130.554 10.7147ZM120.024 26.4893C118.357 26.4893 117.405 25.7005 117.193 24.0968L116.875 21.6517C116.717 20.4949 117.352 19.9428 118.807 19.9428H128.358C129.813 19.9428 130.448 20.5212 130.289 21.6517L129.972 24.0968C129.76 25.7005 128.808 26.4893 127.141 26.4893H120.024ZM123.596 12.6602C126.956 12.5814 128.622 11.9504 128.622 10.7147C128.622 9.47902 126.956 8.92691 123.596 9.00579C120.235 9.08466 118.542 9.71564 118.542 10.9513C118.542 12.187 120.235 12.7391 123.596 12.6602ZM119.548 21.5991C119.071 21.5991 118.86 21.8883 118.939 22.493L119.071 23.7287C119.151 24.4649 119.468 24.8592 120.024 24.8592H127.194C127.749 24.8592 128.04 24.4911 128.146 23.7287L128.278 22.493C128.358 21.8883 128.146 21.5991 127.67 21.5991H119.574H119.548ZM138.544 17.7344C138.57 17.156 138.835 16.8931 139.364 16.9194C144.629 17.2874 149.867 17.2874 155.132 16.9194C155.635 16.8931 155.926 17.156 155.953 17.7344C155.979 18.2602 155.741 18.5494 155.212 18.5757C153.095 18.7071 150.979 18.786 148.889 18.8123V21.678C148.889 22.4142 148.571 22.7822 147.91 22.7822C147.248 22.7822 146.931 22.4142 146.931 21.678V18.8123C144.391 18.8123 141.851 18.7334 139.311 18.5757C138.782 18.5494 138.544 18.2602 138.57 17.7344H138.544ZM143.094 14.8161C141.507 14.8161 140.687 14.0274 140.66 12.4236L140.581 9.05837C140.555 8.19077 141.084 7.74382 142.142 7.74382H152.301C153.36 7.74382 153.889 8.19077 153.862 9.05837L153.783 12.4236C153.73 14.0274 152.936 14.8161 151.349 14.8161H143.094ZM140.793 21.8883C140.687 21.1522 140.898 20.7053 141.428 20.5475C142.142 20.3372 142.539 20.5738 142.645 21.2837L142.909 23.5973C142.989 24.3334 143.359 24.7015 144.02 24.7278C147.513 24.8329 150.449 24.8329 152.831 24.7278C153.413 24.7015 153.704 24.9381 153.704 25.4113C153.704 26.016 153.413 26.3315 152.831 26.3841C149.471 26.5418 146.243 26.5418 143.121 26.3841C141.93 26.3315 141.269 25.7531 141.11 24.6489L140.793 21.8883ZM143.2 9.37386C142.75 9.37386 142.539 9.66306 142.565 10.2678L142.645 12.003C142.645 12.7391 142.962 13.1072 143.571 13.1072H150.979C151.587 13.1072 151.878 12.7391 151.905 12.003L151.958 10.2678C151.958 9.66306 151.746 9.37386 151.323 9.37386H143.227H143.2ZM166.959 10.6621C166.959 11.7926 166.641 12.7654 166.033 13.633C166.879 14.0011 167.7 14.6583 168.467 15.6048C168.837 16.078 168.811 16.4987 168.414 16.8668C167.938 17.34 167.541 17.3137 167.17 16.7879C166.535 15.8677 165.689 15.2367 164.657 14.9212C163.281 15.894 161.323 16.6302 158.757 17.1297C158.149 17.2611 157.805 16.9982 157.725 16.3935C157.619 15.7888 157.857 15.4471 158.44 15.3156C162.805 14.448 165.001 12.7917 165.001 10.3466C165.001 10.0311 164.842 9.87339 164.551 9.87339H159.127C158.44 9.87339 158.096 9.61048 158.096 9.05837C158.096 8.50626 158.413 8.24335 159.075 8.24335H164.234C166.006 8.24335 166.906 9.03208 166.906 10.6358L166.959 10.6621ZM173.044 22.8874C173.044 25.3587 170.901 26.647 166.588 26.6996C162.276 26.7785 160.133 25.5691 160.133 23.0977C160.133 20.6264 162.276 19.3381 166.588 19.2855C170.901 19.2067 173.044 20.4161 173.044 22.8874ZM166.588 25.0695C169.604 24.9907 171.113 24.2808 171.113 22.9137C171.113 21.5466 169.604 20.8893 166.588 20.9682C163.572 21.047 162.064 21.7569 162.064 23.124C162.064 24.4911 163.572 25.1484 166.588 25.0695ZM171.086 16.8668C171.298 14.1325 171.298 11.372 171.086 8.61142C171.033 7.92786 171.324 7.55978 171.933 7.5072C172.568 7.45462 172.912 7.71753 172.938 8.29593C173.017 9.50531 173.097 10.7147 173.123 11.9241H176.086C176.721 11.9241 177.039 12.187 177.039 12.7391C177.039 13.2912 176.721 13.5541 176.086 13.5541H173.123C173.097 14.7635 173.044 15.9729 172.938 17.1823C172.885 17.7607 172.568 17.9973 171.933 17.9447C171.298 17.8921 171.007 17.5241 171.086 16.8405V16.8668ZM177.938 22.8085C177.965 22.2564 178.229 21.9935 178.759 22.0198C182.198 22.2301 185.664 22.2301 189.13 22.0198C189.659 21.9935 189.924 22.2564 189.95 22.8085C189.976 23.3343 189.738 23.6235 189.209 23.6498C185.717 23.8602 182.224 23.8602 178.706 23.6498C178.177 23.6235 177.938 23.3343 177.965 22.8085H177.938ZM188.759 13.1072C188.759 16.4198 187.066 18.1025 183.706 18.1813C180.346 18.2602 178.679 16.6302 178.679 13.3438C178.679 10.0574 180.346 8.3748 183.706 8.29593C187.066 8.21706 188.759 9.82081 188.759 13.1335V13.1072ZM183.706 16.6039C185.77 16.525 186.802 15.3682 186.802 13.1072C186.802 10.8462 185.77 9.79451 183.706 9.87339C181.642 9.95226 180.611 11.1091 180.611 13.3438C180.611 15.5785 181.642 16.6827 183.706 16.6039ZM191.749 23.5973C192.146 18.5494 192.146 13.5015 191.749 8.45368C191.696 7.87528 191.987 7.58608 192.622 7.53349C193.257 7.48091 193.575 7.74382 193.601 8.32222C194.024 13.4752 194.024 18.602 193.601 23.755C193.575 24.3334 193.231 24.57 192.622 24.5174C191.987 24.4649 191.696 24.1757 191.749 23.5973Z" fill="#231815"/>
<path d="M206.854 8.26964C206.854 7.63866 207.172 7.29688 207.833 7.29688C208.495 7.29688 208.812 7.61237 208.812 8.26964V9.47902H209.474C211.167 9.47902 212.04 10.294 212.04 11.8978C212.04 12.8968 211.749 13.7907 211.193 14.5795C212.014 14.9475 212.807 15.5785 213.575 16.4987C213.945 16.9719 213.919 17.3926 213.522 17.7607C213.045 18.2339 212.649 18.2339 212.278 17.7081C211.643 16.7879 210.823 16.1832 209.844 15.8414C208.468 16.8142 206.484 17.5503 203.865 18.0236C203.256 18.155 202.912 17.8921 202.833 17.2874C202.727 16.6827 202.965 16.341 203.547 16.2095C207.992 15.3419 210.215 13.7907 210.215 11.5823C210.215 11.2668 210.082 11.1091 209.791 11.1091H204.235C203.547 11.1091 203.203 10.8199 203.203 10.2678C203.203 9.71564 203.521 9.45273 204.182 9.45273H206.854V8.24335V8.26964ZM206.193 24.7278C209.606 24.0705 211.326 22.6245 211.326 20.3372C211.326 19.601 211.643 19.233 212.305 19.233C212.966 19.233 213.257 19.5747 213.257 20.2583C213.257 20.7578 213.204 21.2048 213.098 21.6517C215.532 22.2564 217.332 23.3869 218.496 25.0433C218.84 25.5165 218.734 25.9109 218.205 26.2526C217.702 26.647 217.252 26.5944 216.935 26.1212C215.929 24.7015 214.395 23.7287 212.384 23.2555C211.326 24.8329 209.289 25.8846 206.246 26.4367C205.69 26.5418 205.399 26.3052 205.294 25.7531C205.188 25.201 205.479 24.8592 206.167 24.7278H206.193ZM216.749 12.7917C216.749 11.3194 216.67 9.87339 216.564 8.42739C216.511 7.84899 216.802 7.55978 217.437 7.5072C218.072 7.45462 218.39 7.71753 218.416 8.29593C218.707 11.6875 218.707 15.1053 218.416 18.5494C218.363 19.233 218.046 19.5485 217.411 19.4959C216.776 19.4433 216.485 19.1541 216.538 18.5757C216.644 17.1823 216.697 15.8151 216.723 14.448H214.554C213.919 14.448 213.601 14.1851 213.601 13.633C213.601 13.0809 213.919 12.818 214.554 12.818H216.723L216.749 12.7917ZM225.322 15.5785C225.348 15.0264 225.613 14.7635 226.142 14.7898C231.407 15.1316 236.645 15.1316 241.91 14.7898C242.413 14.7635 242.704 15.0264 242.73 15.5785C242.757 16.1043 242.519 16.3935 241.99 16.4198C236.698 16.7616 231.407 16.7616 226.089 16.4198C225.56 16.3935 225.322 16.1043 225.348 15.5785H225.322ZM226.935 8.76917C226.935 8.21706 227.279 7.95415 227.941 7.95415H239.741C240.429 7.95415 240.746 8.21706 240.746 8.76917V9.53161C240.746 10.7936 240.429 12.003 239.767 13.1335C239.476 13.6593 239.079 13.7644 238.55 13.4227C237.968 13.1072 237.836 12.6865 238.1 12.1607C238.55 11.372 238.762 10.5044 238.788 9.58419H227.914C227.226 9.58419 226.909 9.32128 226.909 8.76917H226.935ZM226.988 19.233C226.988 18.7071 227.306 18.4179 227.967 18.4179H239.397C240.561 18.4179 241.09 18.8912 240.958 19.8377L240.72 21.7569C240.587 22.7559 240.005 23.2555 238.973 23.2555H229.396L229.608 24.8592H239.185C239.873 24.8592 240.217 25.1221 240.217 25.6742C240.217 26.2264 239.899 26.4893 239.238 26.4893H229.396C228.391 26.4893 227.835 25.9897 227.703 25.017L227.465 23.0977C227.332 22.125 227.861 21.6517 229.078 21.6517H238.788L238.973 20.048H227.967C227.279 20.048 226.935 19.7851 226.935 19.233H226.988ZM244.926 9.87339C244.926 9.32128 245.244 9.05837 245.905 9.05837H250.667C252.705 9.05837 253.737 10.0311 253.737 11.9504C253.737 14.9475 253.154 17.3926 251.964 19.2067C253.234 19.7325 254.345 20.5212 255.271 21.6254C255.641 22.0987 255.615 22.5456 255.218 22.9137C254.742 23.3869 254.345 23.3606 253.975 22.8348C253.287 21.8358 252.255 21.0733 250.879 20.5475C249.556 21.8621 247.784 22.756 245.535 23.1766C244.926 23.2818 244.582 23.0189 244.503 22.4142C244.397 21.8095 244.635 21.4677 245.217 21.3625C249.583 20.4949 251.779 17.2349 251.779 11.6086C251.779 11.0039 251.488 10.6884 250.932 10.6884H245.932C245.244 10.6884 244.9 10.4255 244.9 9.87339H244.926ZM257.864 23.5973C258.261 18.5494 258.261 13.5015 257.864 8.45368C257.811 7.87527 258.102 7.58608 258.737 7.53349C259.372 7.48091 259.716 7.74382 259.742 8.32222C259.927 10.6095 260.033 12.8968 260.06 15.1842H262.891C263.526 15.1842 263.843 15.4471 263.843 15.9992C263.843 16.5513 263.526 16.8142 262.891 16.8142H260.06C260.033 19.1278 259.927 21.4414 259.742 23.755C259.689 24.3334 259.372 24.57 258.737 24.5174C258.102 24.4649 257.811 24.1757 257.864 23.5973ZM264.266 17.7344C264.293 17.156 264.557 16.8931 265.087 16.9194C270.352 17.2874 275.59 17.2874 280.855 16.9194C281.358 16.8931 281.649 17.156 281.675 17.7344C281.702 18.2602 281.464 18.5494 280.934 18.5757C275.643 18.9175 270.352 18.9175 265.034 18.5757C264.505 18.5494 264.266 18.2602 264.293 17.7344H264.266ZM266.515 21.8883C266.409 21.1522 266.621 20.7053 267.15 20.5475C267.865 20.3372 268.261 20.5738 268.367 21.2837L268.632 23.5973C268.711 24.3334 269.082 24.7015 269.743 24.7278C273.235 24.8329 276.172 24.8329 278.553 24.7278C279.135 24.7015 279.426 24.9381 279.426 25.4113C279.426 26.016 279.135 26.3315 278.553 26.3841C275.193 26.5418 271.965 26.5418 268.844 26.3841C267.653 26.3315 266.992 25.7531 266.833 24.6489L266.515 21.8883ZM266.515 8.42739C266.489 7.82269 266.806 7.5072 267.494 7.48091C268.103 7.48091 268.42 7.74382 268.447 8.29593L268.5 11.6612C268.5 12.3973 268.817 12.7917 269.452 12.8443C271.807 13.1072 274.929 13.0546 278.765 12.6339C279.321 12.5814 279.638 12.7917 279.744 13.2912C279.823 13.8433 279.612 14.1588 279.082 14.2377C275.061 14.7635 271.569 14.8424 268.605 14.5006C267.335 14.3428 266.674 13.7382 266.648 12.6602L266.568 8.40109L266.515 8.42739ZM288.819 10.3466C288.792 9.47902 289.295 9.05837 290.327 9.05837H295.936C296.597 9.05837 296.915 9.32128 296.915 9.87339C296.915 10.4255 296.571 10.6884 295.883 10.6884H291.385C290.962 10.6884 290.75 10.9776 290.776 11.556L290.962 20.4423C290.962 21.1259 291.332 21.494 292.046 21.5729C293.528 21.7306 295.089 21.6517 296.782 21.3888C297.47 21.2837 297.788 21.4677 297.788 21.9409C297.788 22.5456 297.497 22.9137 296.888 23.0189C294.745 23.4132 292.628 23.4395 290.485 23.0977C289.533 22.94 289.057 22.3616 289.03 21.3888L288.819 10.3466ZM304.296 15.1579C304.27 12.9231 304.164 10.6884 304.005 8.42739C303.952 7.84899 304.243 7.55978 304.878 7.5072C305.513 7.45462 305.831 7.71753 305.857 8.29593C306.28 13.449 306.28 18.5757 305.857 23.7287C305.831 24.3071 305.487 24.5437 304.878 24.4912C304.243 24.4386 303.952 24.1494 304.005 23.571C304.164 21.3099 304.27 19.0752 304.296 16.7879H301.862C301.836 18.9701 301.73 21.1259 301.545 23.2818C301.492 23.8602 301.174 24.0968 300.539 24.0442C299.904 23.9916 299.613 23.7024 299.666 23.124C300.089 18.3654 300.089 13.6067 299.666 8.84804C299.613 8.26964 299.904 7.98044 300.539 7.92786C301.174 7.87528 301.518 8.11189 301.545 8.69029C301.73 10.8462 301.836 13.002 301.862 15.1316H304.296V15.1579ZM307.921 17.7344C307.947 17.156 308.212 16.8931 308.741 16.9194C314.006 17.2874 319.244 17.2874 324.509 16.9194C325.012 16.8931 325.303 17.156 325.329 17.7344C325.356 18.2602 325.118 18.5494 324.589 18.5757C322.472 18.7071 320.356 18.786 318.265 18.8123V21.678C318.265 22.4142 317.948 22.7822 317.287 22.7822C316.625 22.7822 316.308 22.4142 316.308 21.678V18.8123C313.768 18.8123 311.228 18.7334 308.688 18.5757C308.159 18.5494 307.921 18.2602 307.947 17.7344H307.921ZM312.498 14.8161C310.91 14.8161 310.09 14.0274 310.064 12.4236L309.984 9.05837C309.958 8.19077 310.487 7.74382 311.545 7.74382H321.705C322.763 7.74382 323.292 8.19077 323.266 9.05837L323.186 12.4236C323.134 14.0274 322.34 14.8161 320.752 14.8161H312.498ZM310.17 21.8883C310.064 21.1522 310.275 20.7053 310.805 20.5475C311.519 20.3372 311.916 20.5738 312.022 21.2837L312.286 23.5973C312.365 24.3334 312.736 24.7015 313.397 24.7278C316.89 24.8329 319.826 24.8329 322.208 24.7278C322.79 24.7015 323.081 24.9381 323.081 25.4113C323.081 26.016 322.79 26.3315 322.208 26.3841C318.847 26.5418 315.62 26.5418 312.498 26.3841C311.307 26.3315 310.646 25.7531 310.487 24.6489L310.17 21.8883ZM312.577 9.37386C312.127 9.37386 311.916 9.66306 311.942 10.2678L312.022 12.003C312.022 12.7391 312.339 13.1072 312.948 13.1072H320.356C320.964 13.1072 321.255 12.7391 321.282 12.003L321.334 10.2678C321.334 9.66306 321.123 9.37386 320.699 9.37386H312.604H312.577ZM327.525 9.87339C327.525 9.32128 327.843 9.05837 328.504 9.05837H333.267C335.304 9.05837 336.336 10.0311 336.336 11.9504C336.336 14.9475 335.754 17.3926 334.563 19.2067C335.833 19.7325 336.944 20.5212 337.87 21.6254C338.241 22.0987 338.214 22.5456 337.817 22.9137C337.341 23.3869 336.944 23.3606 336.574 22.8348C335.886 21.8358 334.854 21.0733 333.478 20.5475C332.155 21.8621 330.383 22.756 328.134 23.1766C327.525 23.2818 327.181 23.0189 327.102 22.4142C326.996 21.8095 327.234 21.4677 327.816 21.3625C332.182 20.4949 334.378 17.2349 334.378 11.6086C334.378 11.0039 334.087 10.6884 333.531 10.6884H328.531C327.843 10.6884 327.499 10.4255 327.499 9.87339H327.525ZM340.463 23.5973C340.86 18.5494 340.86 13.5015 340.463 8.45368C340.41 7.87527 340.701 7.58608 341.336 7.53349C341.971 7.48091 342.315 7.74382 342.341 8.32222C342.527 10.6095 342.632 12.8968 342.659 15.1842H345.49C346.125 15.1842 346.442 15.4471 346.442 15.9992C346.442 16.5513 346.125 16.8142 345.49 16.8142H342.659C342.632 19.1278 342.527 21.4414 342.341 23.755C342.288 24.3334 341.971 24.57 341.336 24.5174C340.701 24.4649 340.41 24.1757 340.463 23.5973ZM351.019 14.5269V16.525C351.019 16.9457 351.178 17.1823 351.469 17.1823H360.914C361.629 17.1823 361.999 17.4452 361.999 17.9973C361.999 18.5757 361.655 18.8386 360.967 18.8386H356.549V22.309C358.851 22.309 361.152 22.2038 363.454 22.0461C363.957 22.0198 364.248 22.2827 364.274 22.8348C364.301 23.3606 364.063 23.6498 363.534 23.6761C358.242 24.0442 352.951 24.0442 347.633 23.6761C347.104 23.6498 346.866 23.3606 346.892 22.8348C346.919 22.2827 347.183 22.0198 347.712 22.0461C350.014 22.2038 352.316 22.309 354.644 22.309V18.8386H350.808C349.723 18.8386 349.167 18.3391 349.167 17.3137L349.114 14.264C349.088 13.3438 349.591 12.8706 350.622 12.8706H359.803C360.094 12.8706 360.253 12.6602 360.253 12.2133L360.306 10.2678H350.067C349.353 10.2678 348.982 10.0048 348.982 9.45273C348.982 8.90062 349.273 8.61142 349.829 8.61142H360.729C361.734 8.61142 362.211 9.08466 362.211 10.0311L362.158 13.0546C362.131 14.0799 361.549 14.5795 360.438 14.5795H351.072L351.019 14.5269Z" fill="#231815"/>
<path d="M386.447 10.064L386.262 16.3212H388.008C388.643 16.3212 388.96 16.5841 388.96 17.1363C388.96 17.7147 388.643 17.9776 388.008 17.9776H386.076V22.0264C387.373 21.9738 388.669 21.9212 389.966 21.816C390.468 21.7898 390.759 22.0527 390.786 22.6048C390.812 23.1306 390.574 23.4198 390.045 23.4461C384.753 23.8142 379.462 23.8142 374.144 23.4461C373.615 23.4198 373.377 23.1306 373.403 22.6048C373.43 22.0527 373.694 21.7898 374.224 21.816C375.52 21.8949 376.816 21.9738 378.113 22.0264V17.9776H376.155C375.52 17.9776 375.202 17.6884 375.202 17.1363C375.202 16.6104 375.52 16.3212 376.155 16.3212H377.901L377.716 10.064H375.97C375.335 10.064 375.017 9.77479 375.017 9.19639C375.017 8.67057 375.335 8.38138 375.97 8.38138H388.246C388.881 8.38138 389.198 8.64428 389.198 9.19639C389.198 9.77479 388.881 10.064 388.246 10.064H386.473H386.447ZM384.304 16.3212L384.515 10.064H379.594L379.78 16.3212H384.277H384.304ZM384.118 17.9776H380.044V22.079C381.42 22.1052 382.769 22.1052 384.118 22.079V17.9776ZM392.744 9.66963C392.744 9.11752 393.061 8.85461 393.722 8.85461H401.66C402.321 8.85461 402.638 9.11752 402.638 9.66963V11.7466C402.638 19.1607 399.622 22.9203 393.59 23.0254C393.035 23.0254 392.744 22.7625 392.744 22.2104C392.717 21.6583 392.982 21.3691 393.537 21.3691C398.326 21.2902 400.734 18.109 400.734 11.8255V10.5109H393.749C393.087 10.5109 392.77 10.248 392.77 9.69592L392.744 9.66963ZM406.342 23.3935C406.739 18.3456 406.739 13.2978 406.342 8.24992C406.29 7.67152 406.581 7.38232 407.216 7.32974C407.851 7.27716 408.168 7.54006 408.194 8.11847C408.618 13.2715 408.618 18.3982 408.194 23.5512C408.168 24.1297 407.824 24.3663 407.216 24.3137C406.581 24.2611 406.29 23.9719 406.342 23.3935ZM410.655 11.4048C410.655 10.8527 410.972 10.5898 411.634 10.5898H414.412V8.27621C414.412 7.61894 414.729 7.30345 415.391 7.30345C416.052 7.30345 416.37 7.61894 416.37 8.27621V10.5898H419.148C419.809 10.5898 420.127 10.8527 420.127 11.4048C420.127 11.9569 419.809 12.2199 419.148 12.2199H411.66C411.025 12.2199 410.681 11.9569 410.681 11.4048H410.655ZM415.391 23.2358C412.666 23.3672 411.29 21.8686 411.29 18.8189C411.29 15.7691 412.666 14.1917 415.391 14.0865C418.116 13.9551 419.492 15.4273 419.492 18.4771C419.492 21.5268 418.116 23.1306 415.391 23.2358ZM415.364 15.664C413.936 15.7428 413.221 16.7945 413.221 18.74C413.221 20.6855 413.936 21.6846 415.391 21.6057C416.819 21.5268 417.534 20.4752 417.534 18.4771C417.534 16.479 416.819 15.5851 415.364 15.664ZM426.529 14.9541C426.503 12.7194 426.397 10.4847 426.238 8.22363C426.185 7.64523 426.476 7.35603 427.111 7.30345C427.746 7.25087 428.064 7.51377 428.09 8.09217C428.514 13.2452 428.514 18.3719 428.09 23.525C428.064 24.1034 427.72 24.34 427.111 24.2874C426.476 24.2348 426.185 23.9456 426.238 23.3672C426.397 21.1062 426.503 18.8715 426.529 16.5842H424.095C424.069 18.7663 423.963 20.9222 423.778 23.078C423.725 23.6564 423.407 23.893 422.772 23.8405C422.137 23.7879 421.846 23.4987 421.899 22.9203C422.323 18.1616 422.323 13.4029 421.899 8.64429C421.846 8.06589 422.137 7.77668 422.772 7.7241C423.407 7.67152 423.751 7.90814 423.778 8.48654C423.963 10.6424 424.069 12.7983 424.095 14.9278H426.529V14.9541ZM434.89 17.7672C434.89 17.7672 434.89 17.5569 434.89 17.4518C432.879 16.7419 431.874 15.2959 431.874 13.1137C431.874 9.82738 434.202 8.14476 438.858 8.06589C443.488 7.98701 445.816 9.59076 445.816 12.9034C445.816 15.0856 444.811 16.5841 442.774 17.3466C442.8 17.478 442.827 17.6095 442.827 17.7672V22.0001C444.123 21.9475 445.42 21.8949 446.716 21.7898C447.219 21.7635 447.51 22.0264 447.536 22.5785C447.563 23.1043 447.325 23.3935 446.795 23.4198C441.504 23.7879 436.213 23.7879 430.895 23.4198C430.366 23.3935 430.127 23.1043 430.154 22.5785C430.18 22.0264 430.445 21.7635 430.974 21.7898C432.27 21.8686 433.567 21.9475 434.863 22.0001V17.7672H434.89ZM438.885 16.4001C442.245 16.3212 443.912 15.1644 443.912 12.9034C443.912 10.6424 442.245 9.59076 438.885 9.66963C435.525 9.7485 433.831 10.9053 433.831 13.14C433.831 15.3748 435.525 16.479 438.885 16.4001ZM440.895 17.8198C440.26 17.925 439.599 17.9776 438.858 17.9776C438.117 17.9776 437.43 17.9776 436.821 17.8987V22.079C438.197 22.1052 439.546 22.1052 440.895 22.079V17.8461V17.8198ZM449.097 23.0517C449.097 22.3156 449.494 21.9475 450.288 21.9475C451.081 21.9475 451.452 22.3156 451.452 23.0517V23.2358C451.452 23.9719 451.055 24.34 450.288 24.34C449.52 24.34 449.097 23.9719 449.097 23.2358V23.0517Z" fill="#231815"/>
</svg>
