<svg width="29" height="31" viewBox="0 0 29 31" fill="none" xmlns="http://www.w3.org/2000/svg">
<path d="M8.07295 2.5184L2.2466 8.34474L16.7878 22.8859L22.5894 17.0843L8.07295 2.5184ZM16.1459 24.861L0.271567 8.98663C0.0987516 8.81382 0 8.59162 0 8.34474C0 8.09787 0.0987516 7.85099 0.271567 7.67817L7.40637 0.543364C7.77669 0.173045 8.3692 0.173045 8.71483 0.543364L24.5892 16.4177C24.762 16.5905 24.8607 16.8374 24.8607 17.0843C24.8607 17.3311 24.762 17.578 24.5892 17.7508L17.4544 24.8856C17.2815 25.0585 17.0347 25.1572 16.7878 25.1572C16.5409 25.1572 16.3187 25.0585 16.1212 24.8856" fill="#9FA0A0"/>
<path d="M26.3415 27.5279C26.5883 27.5279 26.8352 27.4292 27.008 27.2564C27.2302 27.0342 27.329 26.6885 27.2549 26.3923L25.0824 17.0849C24.9589 16.5912 24.4652 16.2702 23.9714 16.3937C23.4777 16.5171 23.1567 17.0109 23.2802 17.5293L25.1318 25.3801L17.281 23.5285C16.7872 23.405 16.2688 23.726 16.17 24.2197C16.0466 24.7135 16.3676 25.232 16.8613 25.3554L26.1687 27.5279C26.1687 27.5279 26.3168 27.5279 26.3908 27.5279" fill="#9FA0A0"/>
<path d="M3.57908 11.9262C3.82596 11.9262 4.04815 11.8274 4.24565 11.6546L11.3805 4.51979C11.7508 4.14947 11.7508 3.55696 11.3805 3.21133C11.0101 2.84101 10.4176 2.84101 10.0473 3.21133L2.9125 10.3461C2.54219 10.7165 2.54219 11.309 2.9125 11.6546C3.08532 11.8274 3.3322 11.9262 3.57908 11.9262Z" fill="#9FA0A0"/>
<path d="M25.1384 23.0564L22.748 25.4492L24.0755 26.7753L26.4658 24.3824L25.1384 23.0564Z" fill="#9FA0A0"/>
<path d="M8.97979 5.99092L8.03711 6.93359L21.06 19.9565L22.0027 19.0138L8.97979 5.99092Z" fill="#9FA0A0"/>
<path d="M6.58428 8.3542L5.6416 9.29688L18.6645 22.3198L19.6072 21.3771L6.58428 8.3542Z" fill="#9FA0A0"/>
<path d="M0.938141 30.7357H27.848C28.3664 30.7357 28.7861 30.316 28.7861 29.7975C28.7861 29.2791 28.3664 28.8594 27.848 28.8594H0.938141C0.419695 28.8594 0 29.2791 0 29.7975C0 30.316 0.419695 30.7357 0.938141 30.7357Z" fill="#9FA0A0"/>
</svg>
