<svg width="426" height="103" viewBox="0 0 426 103" fill="none" xmlns="http://www.w3.org/2000/svg">
<rect x="1" y="26" width="424" height="76" rx="7" fill="#F5F7FE"/>
<rect x="1" y="26" width="424" height="76" rx="7" stroke="#B0B6DC" stroke-width="2" stroke-linecap="round" stroke-dasharray="5 5"/>
<path d="M44.854 52.888V64.686H24.352V52.922H27.684V56.39H41.522V52.888H44.854ZM36.32 72.438H32.92V69.412H20.238V66.556H49.002V69.412H36.32V72.438ZM32.92 73.56H36.286V74.614C36.286 76.042 36.592 76.892 39.516 78.422C41.148 79.272 43.392 80.156 46.656 81.448L45.33 84.168C42.474 83.046 40.196 82.06 38.462 81.244C35.844 80.02 34.926 79.272 34.62 78.762C34.246 79.306 33.362 80.02 30.778 81.278C29.112 82.094 26.834 83.046 23.876 84.236L22.55 81.482C25.848 80.19 28.024 79.306 29.69 78.422C32.614 76.858 32.92 76.042 32.92 74.614V73.56ZM27.684 59.11V61.864H41.522V59.11H27.684ZM54.896 69.718H49.728V66.964H52.38V57.308H49.83V54.554H64.722V57.308H62.24V66.828C63.226 66.76 64.178 66.692 65.096 66.59L65.3 69.276C62.274 69.582 59.078 69.718 54.896 69.718ZM59.384 73.22V80.496H76.724V83.42H56.018V73.22H59.384ZM64.042 63.36V60.504H67.51V52.82H70.706V73.968H67.51V63.36H64.042ZM72.916 74.716V52.412H76.146V74.716H72.916ZM55.542 66.964H55.848C56.902 66.964 57.99 66.964 59.078 66.93V57.308H55.542V66.964ZM80.4759 84.95L81.9039 77.198H85.8139L83.1959 84.95H80.4759ZM120.56 59.756V52.412H123.79V70.738H120.56V62.646H117.364V70.67H114.168V52.82H117.364V59.756H120.56ZM103.22 75.26V72.37H123.79V84.066H120.424V75.26H103.22ZM105.09 63.666H105.056C104.92 64.21 104.172 65.06 103.594 65.706C102.71 66.726 100.772 68.562 98.868 70.228L96.726 67.95C98.834 66.08 100.806 64.244 101.69 63.122C103.152 61.32 103.356 60.198 103.356 58.056V53.908H106.62V57.852C106.62 59.892 106.858 61.286 108.422 63.088C109.51 64.346 111.074 65.672 112.706 66.998L110.598 69.242C109.068 67.95 107.708 66.658 106.79 65.74C105.94 64.89 105.26 64.176 105.09 63.666ZM134.954 53.534C140.122 53.534 142.808 57.376 142.808 60.742V62.476C142.808 65.842 140.122 69.684 134.954 69.684C129.786 69.684 127.1 65.842 127.1 62.476V60.742C127.1 57.342 129.786 53.534 134.954 53.534ZM152.668 74.784H149.37V67.032H144.44V64.142H149.37V59.484H144.44V56.594H149.37V52.412H152.668V74.784ZM136.45 73.016V80.496H153.416V83.42H133.084V73.016H136.45ZM134.954 66.726C137.946 66.726 139.612 64.38 139.612 62.204V61.014C139.612 58.838 137.946 56.492 134.954 56.492C131.962 56.492 130.296 58.838 130.296 61.014V62.204C130.296 64.38 131.996 66.726 134.954 66.726ZM156.624 66.964V64.278H159.82V56.458H156.828V53.738H174.168V56.458H171.244V64.04C172.672 63.938 173.964 63.87 175.324 63.734L175.562 66.352C171.414 66.726 167.47 66.896 156.624 66.964ZM182.6 83.964H162.302V75.464H178.418V72.506H162.132V69.718H181.716V78.184H165.6V81.176H182.6V83.964ZM181.716 68.154H178.384V52.412H181.716V68.154ZM163.05 64.278L168.014 64.176V56.458H163.05V64.278ZM186.726 84.95L188.154 77.198H192.064L189.446 84.95H186.726ZM232.828 63.734V66.658H228V83.76H224.634V52.412H228V63.734H232.828ZM212.802 68.018H212.768C212.462 68.766 211.884 69.446 210.796 70.636C209.402 72.166 207.6 73.968 205.288 76.076L203.078 73.798C205.152 71.962 206.92 70.228 208.45 68.528C210.524 66.182 211.068 64.652 211.068 62.238V54.69H214.468V62.238C214.468 64.924 215.114 66.318 217.188 68.63C218.65 70.228 220.146 71.656 222.186 73.458L220.01 75.77C217.664 73.594 216.134 72.064 214.842 70.67C213.89 69.65 213.074 68.698 212.802 68.018ZM242.496 73.016V80.496H259.36V83.42H239.13V73.016H242.496ZM258.714 74.784H255.382V52.412H258.714V74.784ZM246.542 62.476V60.98C246.542 58.906 245.182 56.594 241.918 56.594C238.654 56.594 237.294 58.906 237.294 60.98V62.476C237.294 64.55 238.688 66.862 241.918 66.862C245.182 66.862 246.542 64.55 246.542 62.476ZM234.064 62.612V60.844C234.064 57.75 236.614 53.67 241.918 53.67C247.222 53.67 249.772 57.75 249.772 60.844V62.612C249.772 65.706 247.222 69.786 241.918 69.786C236.614 69.786 234.064 65.706 234.064 62.612ZM267.396 69.718H262.228V66.964H264.88V57.308H262.33V54.554H277.222V57.308H274.74V66.828C275.726 66.76 276.678 66.692 277.596 66.59L277.8 69.276C274.774 69.582 271.578 69.718 267.396 69.718ZM271.884 73.22V80.496H289.224V83.42H268.518V73.22H271.884ZM276.542 63.36V60.504H280.01V52.82H283.206V73.968H280.01V63.36H276.542ZM285.416 74.716V52.412H288.646V74.716H285.416ZM268.042 66.964H268.348C269.402 66.964 270.49 66.964 271.578 66.93V57.308H268.042V66.964ZM292.976 84.95L294.404 77.198H298.314L295.696 84.95H292.976ZM332.584 69.99H335.916V83.76H316.366V69.99H319.698V73.968H332.584V69.99ZM318.508 53.5C323.676 53.5 326.294 56.9 326.294 60.062V61.354C326.294 64.516 323.676 67.916 318.508 67.916C313.34 67.916 310.722 64.516 310.722 61.354V60.062C310.722 56.9 313.34 53.5 318.508 53.5ZM335.916 68.46H332.618V65.264H327.688V62.442H332.618V59.076H327.688V56.254H332.618V52.412H335.916V68.46ZM318.508 65.026C321.398 65.026 323.064 63.054 323.064 61.184V60.232C323.064 58.362 321.398 56.424 318.508 56.424C315.618 56.424 313.952 58.362 313.952 60.232V61.184C313.952 63.054 315.618 65.026 318.508 65.026ZM319.698 80.904H332.584V76.79H319.698V80.904ZM365.202 83.76H361.836V65.06H355.172V62.102H361.836V52.412H365.202V83.76ZM348.474 68.018H348.44C348.134 68.766 347.556 69.446 346.468 70.636C345.074 72.166 343.272 73.968 340.96 76.076L338.75 73.798C340.824 71.962 342.592 70.228 344.122 68.528C346.196 66.182 346.74 64.652 346.74 62.238V54.69H350.14V62.238C350.14 64.924 350.786 66.318 352.86 68.63C354.322 70.228 355.818 71.656 357.858 73.458L355.682 75.77C353.336 73.594 351.806 72.064 350.514 70.67C349.562 69.65 348.746 68.698 348.474 68.018ZM376.74 66.964H405.504V69.82H376.74V66.964ZM380.99 53.568H401.084V56.424H384.322V61.422H401.288V64.278H380.99V53.568ZM391.122 84.644C385.138 84.644 381.33 82.196 381.33 79V77.844C381.33 74.58 385.138 72.2 391.122 72.2C397.106 72.2 400.914 74.614 400.914 77.844V79C400.914 82.162 397.14 84.644 391.122 84.644ZM391.122 74.954C387.28 74.954 384.662 76.416 384.662 78.048V78.796C384.662 80.428 387.28 81.89 391.122 81.89C394.964 81.89 397.582 80.428 397.582 78.796V78.048C397.582 76.416 394.964 74.954 391.122 74.954Z" fill="#1E1E1E"/>
<path d="M41.8184 0.0978579C45.1425 -0.233243 48.454 0.292591 51.623 1.30092C54.365 2.17336 57.365 1.8093 60.0923 0.892284C61.2827 0.492042 62.5258 0.223245 63.7744 0.0988345C66.4926 -0.171952 69.2025 0.130427 71.8329 0.801052C74.0298 1.36116 76.3525 1.17703 78.5419 0.588259C79.4161 0.35317 80.3106 0.188251 81.208 0.0988345C84.6966 -0.248702 88.1712 0.348382 91.4818 1.45622C94.3725 2.42353 97.5696 1.99248 100.443 0.974781C101.702 0.528839 103.024 0.231194 104.353 0.0988345C107.575 -0.222157 110.785 0.263346 113.865 1.21253C116.514 2.02912 119.394 1.70175 122.03 0.841224C123.17 0.469065 124.356 0.217495 125.547 0.0988345C130.755 -0.420029 135.933 1.16586 140.58 3.41426C143.325 4.74023 146.007 6.38309 147.629 8.83321C149.095 11.0239 149.562 13.6477 149.843 16.2131C151.83 35.4496 134.653 52.2216 119.399 47.051C116.447 46.0505 113.17 45.9475 110.217 46.9437C106.166 48.3103 101.845 48.4175 97.6859 46.8667C94.4912 45.6754 90.8661 45.5502 87.6686 46.7337C83.9356 48.1154 79.9524 48.43 76.0632 47.3592C73.5981 46.6805 70.9573 46.6181 68.4918 47.2957C64.8812 48.2881 61.093 48.2736 57.4217 46.98C54.3745 45.9063 50.9638 45.7954 47.9144 46.863C39.0341 49.9719 28.8119 47.0363 21.8262 33.8244L21.4375 33.0412C20.5563 31.2648 19.8812 29.3669 20.0176 27.425C20.423 22.0346 26.7234 18.6326 28.5635 13.5305C29.1871 11.8012 29.2806 9.95656 29.873 8.25606C31.4948 3.64394 36.6099 0.616721 41.8184 0.0978579Z" fill="#B0B6DC"/>
<path d="M66.3087 17.7996C67.0587 18.1296 67.8087 18.6396 68.4387 19.1496C69.0987 19.7196 68.8887 21.0396 67.8987 21.2196C66.6387 21.4896 65.1387 21.0996 63.9987 20.5896C62.9187 20.1096 62.0187 19.6896 61.1187 19.1796C60.5787 18.8796 59.0487 18.0996 59.0487 18.0996C59.0487 18.0996 57.2187 18.9096 56.5887 19.2096C55.5387 19.7496 54.7587 20.0796 53.7087 20.5596C52.9287 20.8896 52.0887 21.4296 51.1887 21.3696C50.4687 21.3396 49.6587 21.0396 49.5087 20.2596C49.4787 20.0496 49.5087 19.8096 49.5687 19.5696C49.7187 18.9996 50.1387 18.6396 50.6787 18.3096L52.7487 17.2896C53.4387 16.9296 53.8587 16.7496 54.5787 16.4196C55.2387 16.0596 56.2587 15.5496 57.0387 15.2796V14.3496H53.8587C53.2287 14.3496 52.8387 14.3796 52.2387 14.3196C51.7887 14.2596 51.2187 14.3196 50.7987 14.1096C50.5587 13.9896 50.3787 13.7796 50.2587 13.5396C50.0187 13.1496 49.9587 12.5796 50.1687 12.1596C50.4687 11.5296 51.3087 11.1996 52.0587 11.1996H52.7487C53.3787 11.2296 53.5287 11.1996 54.1587 11.1996H64.5387C65.8587 11.1996 68.1087 10.8696 68.5287 12.5796C69.0087 14.5296 65.7687 14.4696 64.5087 14.4096C63.2787 14.3496 61.4187 14.4096 61.4187 14.4096V15.3396C61.6587 15.4596 61.9287 15.6096 62.1987 15.6996C62.4387 15.8196 62.6487 15.9396 62.8887 16.0596C63.2787 16.2696 63.6687 16.4196 64.0587 16.6296C64.8087 16.9896 65.5587 17.4096 66.3087 17.7996ZM67.3587 26.0796C65.3787 26.1396 63.5187 26.1996 61.5087 26.1996C61.4787 27.0396 61.4187 27.5196 61.4187 28.6596C61.2387 29.4996 60.1287 30.0096 59.3187 29.9796C58.1187 29.9196 57.4587 29.4396 57.3387 28.2396C57.2487 27.4596 57.3687 26.9196 57.3687 26.1396C55.5387 26.1396 51.0387 26.0796 49.3587 25.9596C48.7287 25.8996 48.4287 25.8696 47.9187 25.3896C47.6487 25.1496 47.5287 24.6996 47.5287 24.2796C47.5287 23.8896 47.6787 23.4996 47.9187 23.2596C48.5187 22.6296 49.9887 22.6596 50.0487 22.6596H67.2087C67.8087 22.6596 68.4087 22.6596 68.9787 22.6896C69.5187 22.7196 70.1187 22.8096 70.5387 23.1996C70.9587 23.5296 70.9587 23.9196 70.9587 24.3996C70.9587 24.9996 70.5987 25.5096 69.9987 25.7196C69.1887 26.0196 68.1987 26.0496 67.3587 26.0796ZM68.1987 31.7496C68.2587 31.7796 69.3687 32.0496 69.4887 32.8896C69.6087 33.6396 69.4887 34.2396 69.1287 34.6596C68.6787 35.2296 68.0187 35.2596 67.9887 35.2596H51.6087C50.0787 35.2596 49.1487 34.7196 49.1487 33.8196V31.1496C49.1187 30.6996 49.1187 30.2496 49.1487 29.7996C49.2087 28.9596 49.8387 28.3896 50.6787 28.3896C50.8887 28.3896 51.3087 28.4196 51.4887 28.4796C52.5087 28.8096 52.5687 29.8296 52.6287 30.7296C52.6287 31.0596 52.6587 31.4196 52.7487 31.6896C52.8387 31.7196 53.4387 31.8096 54.8487 31.8096C56.0487 31.8096 57.1587 31.7496 57.1887 31.7496H68.1987ZM83.2974 19.4496V15.4596C83.2974 14.6496 83.2974 12.2196 85.1874 12.2196C85.5774 12.2196 85.9974 12.3396 86.2974 12.5496C87.2574 13.1796 87.2274 16.2096 87.1674 17.4996V28.5096C87.1674 28.7496 87.1974 31.8396 86.5374 33.0396C86.4174 33.3096 86.0874 33.6696 85.9674 33.7896C85.3674 34.3896 84.2574 34.4496 83.9874 34.4796H77.6874C76.7274 34.4796 75.8574 34.3896 75.1374 33.8196C74.0874 33.0396 74.2074 31.1196 74.2074 30.8496V15.1596C74.2074 14.0196 74.7174 12.2796 76.1274 12.2796C77.1474 12.2796 77.7774 12.6996 78.0774 13.5696C78.2574 14.1096 78.2874 14.7096 78.3174 15.2496V15.3096C78.3174 15.8796 78.3174 20.3796 78.3474 21.3396C78.7374 21.3396 82.2174 21.3996 83.2374 21.1896L83.2974 19.4496ZM94.9074 33.0696C94.8474 33.5496 94.8174 33.9996 94.6674 34.4796C94.6074 34.6296 94.5474 34.7496 94.4874 34.8996C94.3674 35.1396 94.1874 35.3796 93.9474 35.5596C93.4974 35.8296 92.9274 35.8896 92.4174 35.7696C92.1174 35.7096 91.8474 35.5896 91.6374 35.4096C90.9174 34.7496 90.9474 33.1896 90.9474 33.1296V14.9496C90.9174 14.0196 90.9474 12.5196 91.5174 11.9796C91.9374 11.5596 92.4474 11.4996 92.9874 11.4996C93.6774 11.4996 94.3074 11.9196 94.5474 12.5796C94.9074 13.4196 94.8774 14.3496 94.9074 15.2796V15.4296C94.9974 18.4896 94.9074 21.8796 94.9074 24.7596V31.9896C94.9074 32.3496 94.9374 32.7096 94.9074 33.0696ZM78.0774 30.8496L83.2974 30.8196L83.2674 24.9696L78.0774 24.9996C78.0474 25.8396 78.0774 26.9196 78.0774 27.7596C78.1074 28.3596 78.0774 30.2796 78.0774 30.8496ZM118.726 33.2196C119.356 33.2796 119.896 33.4896 120.076 34.1196C120.316 34.8396 120.046 35.3496 119.296 35.6496C118.816 35.8296 118.306 35.8596 117.886 35.8596H103.936C103.126 35.8596 102.256 35.8296 101.386 35.7996C100.546 35.7696 99.9457 35.1396 99.8557 34.2396L99.7657 32.1396C99.7357 31.7196 99.7057 30.9996 100.066 30.6096C100.606 30.0096 101.686 29.9196 102.556 29.9196C103.696 29.9196 107.506 29.9496 116.656 29.9496V28.8696H101.896C101.506 28.8696 101.176 28.8696 100.876 28.8096C100.516 28.7196 100.216 28.7196 100.036 28.3896C99.7657 27.9696 99.6757 27.5796 99.8257 27.0996C100.036 26.4696 100.936 26.3796 101.386 26.3196C101.686 26.2596 101.986 26.2296 102.316 26.2296C103.426 26.2296 104.866 26.2596 108.166 26.2596C108.166 25.7196 108.226 25.3596 108.226 24.6996C106.396 24.6996 101.836 24.6396 100.216 24.5196C99.5857 24.4596 99.2857 24.4296 98.7757 23.9496C98.5057 23.7096 98.3857 23.2596 98.3857 22.8396C98.3857 22.4496 98.5357 22.0596 98.7757 21.8196C99.3757 21.1896 100.846 21.2196 100.906 21.2196H118.066C118.666 21.2196 119.266 21.2196 119.836 21.2496C120.376 21.2796 120.976 21.3696 121.396 21.7596C121.816 22.0896 121.816 22.4796 121.816 22.9596C121.816 23.5596 121.456 24.0696 120.856 24.2796C120.046 24.5796 119.176 24.6096 118.336 24.6396C116.386 24.6996 114.376 24.6996 112.366 24.6996C112.396 25.2996 112.336 25.7196 112.336 26.2596H116.956C118.966 26.2596 120.106 26.8596 120.106 28.2396V30.3696C120.106 30.9096 119.866 31.5096 119.236 31.8696C118.726 32.1696 118.186 32.1396 117.676 32.1396H103.456V33.2196H118.726ZM101.566 19.5396C101.506 19.5396 101.476 19.5096 101.476 19.4796C101.086 19.1796 100.966 18.4296 100.966 17.9796C100.936 17.2596 100.846 16.5396 100.846 15.8496C100.846 14.8296 100.816 13.8096 100.996 12.8196C101.116 12.1896 101.356 11.8296 101.956 11.5896C102.496 11.3796 103.066 11.3196 103.636 11.2596C104.326 11.1996 105.046 11.2596 105.766 11.2596H111.466C113.506 11.2596 113.236 11.2596 115.246 11.2296C115.606 11.2296 115.936 11.2296 116.296 11.2596C117.046 11.2896 117.886 11.3196 118.576 11.6496C119.356 11.9796 119.596 12.8196 119.626 13.5996C119.686 14.4996 119.596 15.4296 119.596 16.3296C119.566 17.1396 119.596 17.9496 119.386 18.7296C119.266 19.1796 119.176 19.5396 118.696 19.6896C118.276 19.8396 117.736 19.8696 117.316 19.8696H104.356C103.966 19.8696 103.576 19.8396 103.186 19.8096C102.676 19.7796 102.016 19.8396 101.566 19.5396ZM104.416 16.0296C104.416 16.2096 104.416 16.4196 104.506 16.5096C104.686 16.6596 105.376 16.5696 105.376 16.5696H113.266C113.266 16.5696 114.706 16.6896 115.426 16.5996C115.846 16.5696 115.846 16.3896 115.906 16.0296C115.936 15.6996 115.996 15.2196 115.756 14.9196C115.486 14.5896 114.856 14.6496 114.496 14.6796H111.766C111.496 14.6496 107.866 14.6796 107.596 14.6796C106.756 14.6196 105.916 14.6496 105.046 14.6796C104.686 14.6796 104.566 14.6196 104.476 14.9796C104.416 15.2496 104.416 15.5196 104.416 15.7596V16.0296Z" fill="#231815"/>
</svg>
