<svg width="170" height="175" viewBox="0 0 170 175" fill="none" xmlns="http://www.w3.org/2000/svg">
<path fill-rule="evenodd" clip-rule="evenodd" d="M152 0C151.448 0 151 0.447715 151 1C151 1.55228 151.448 2 152 2C160.925 2 168 8.55688 168 16.4387V84C168 94 159 100.5 151 100.5H15.457C6.9203 100.5 0 107.412 0 115.939V159.151C0 167.678 6.9203 174.59 15.457 174.59H154.543C163.08 174.59 170 167.678 170 159.151V115.939V100V86.5V16.4387C170 7.27537 161.844 0 152 0Z" fill="#F7E9D3"/>
<rect x="1" y="2" width="167" height="99" rx="14" fill="white"/>
<path fill-rule="evenodd" clip-rule="evenodd" d="M92.8583 14.9096C93.1757 17.2626 94.498 19.4041 97.6187 21.5985C100.141 23.3878 102.827 23.9535 105.485 24.5132C109.735 25.4079 113.912 26.2875 117.23 32.1265C117.765 31.8129 118.277 31.497 118.768 31.1832C116.669 29.5353 114.896 27.6963 113.593 25.1412C112.106 22.1975 112.167 19.7789 112.222 17.5674C112.272 15.5682 112.317 13.7383 111.212 11.8428C108.25 6.76669 102.406 3.80561 97.9361 5.44478C93.731 6.97819 92.3294 11.129 92.8583 14.9625V14.9096ZM105.53 25.5782C109.724 26.5311 113.615 27.4152 116.244 32.6876C109.843 36.2144 100.508 39.1021 87.3308 34.8983C83.734 33.2063 80.6133 33.6028 78.233 37.0134C76.1702 40.1331 73.9751 44.8919 72.5734 49.7037C69.2147 61.1779 69.3469 63.24 77.3868 70.8542C81.5125 74.7671 84.2894 82.725 80.2166 86.0298C75.9322 89.5196 71.8329 91.714 67.7072 93.2474C61.6509 95.4946 69.5585 98.5086 73.1553 97.9269C77.8363 95.8648 82.3059 92.8772 86.9605 89.2023C92.3059 84.8466 88.8774 77.2302 86.1023 71.0655L86.1023 71.0655C85.6097 69.9711 85.1377 68.9225 84.739 67.946C92.4879 69.2151 104.336 79.6581 107.801 88.7H107.774C108.188 89.0891 108.366 89.7802 108.531 90.4184C108.725 91.1677 108.9 91.844 109.414 91.8726C114.121 92.1634 118.961 89.6254 112.905 81.7468C112.179 80.8385 111.458 79.9118 110.731 78.9774C105.363 72.0781 99.6654 64.7562 89.3936 61.3101C85.8762 60.1203 84.21 57.3443 85.0563 53.8016C86.0877 49.4129 87.1721 46.6633 90.5044 41.878C102.247 43.9402 112.931 43.6758 121.341 38.1767C125.128 33.1715 122.809 29.0209 119.735 30.5818C113.561 25.7582 113.455 21.5839 113.356 17.6851C113.308 15.802 113.262 13.9832 112.535 12.1865C110.287 6.6345 103.278 2.72165 97.8303 4.38725C93.5724 5.68272 91.1393 10.2037 91.6153 14.5131C91.9327 17.2626 93.4137 19.7214 97.1692 22.3652C99.9065 24.3005 102.783 24.9541 105.53 25.5782ZM107.642 21.6781C105.209 23.5816 100.925 21.1229 98.333 18.1882L98.3595 18.2147C92.3296 11.4465 99.6818 3.75298 106.294 10.3361C109.626 13.4558 112.323 18.0032 107.642 21.6781ZM110.763 17.6066C110.948 15.0685 109.52 12.5305 107.589 10.389C102.908 5.12776 94.2338 6.39679 94.8156 12.8741C95.0007 15.0685 96.0851 17.1307 97.5132 18.7963C100.343 22.0482 105.262 24.7713 108.224 22.4448C110.155 20.9114 110.657 19.2722 110.763 17.6066ZM87.8338 20.9918C91.0339 20.9918 93.6257 23.5563 93.6257 26.7289C93.6257 29.9015 91.0339 32.466 87.8338 32.466C84.6338 32.466 82.042 29.9015 82.042 26.7289C82.042 23.5563 84.6338 20.9918 87.8338 20.9918ZM46.1543 37.9131C46.1543 35.7452 47.9262 34.0003 50.0948 34.0003C52.2635 34.0003 54.0354 35.7452 54.0354 37.9131C54.0354 40.0811 52.2635 41.826 50.0948 41.826C47.9262 41.826 46.1543 40.0811 46.1543 37.9131ZM49.1163 34.9785C50.6238 34.4497 52.9511 38.9706 49.4601 38.9178C46.5774 38.8913 46.7361 35.8245 49.1163 34.9785Z" fill="#9FA0A0"/>
</svg>
