<svg width="170" height="175" viewBox="0 0 170 175" fill="none" xmlns="http://www.w3.org/2000/svg">
<path fill-rule="evenodd" clip-rule="evenodd" d="M152 0C151.448 0 151 0.447715 151 1C151 1.55228 151.448 2 152 2C160.925 2 168 8.55688 168 16.4387V84C168 94 159 100.5 151 100.5H15.457C6.9203 100.5 0 107.412 0 115.939V159.151C0 167.678 6.9203 174.59 15.457 174.59H154.543C163.08 174.59 170 167.678 170 159.151V115.939V100V86.5V16.4387C170 7.27537 161.844 0 152 0Z" fill="#F7E9D3"/>
<rect x="1" y="2" width="167" height="99" rx="14" fill="white"/>
<path fill-rule="evenodd" clip-rule="evenodd" d="M76.9546 6.19602C77.9158 6.58557 80.6955 7.23481 81.267 5.98826C81.9165 4.63782 81.6827 3.41723 80.4617 2.30052C79.2407 1.20978 77.0845 3.36529 76.3311 4.35215C75.4998 5.44289 75.7076 5.70259 76.9546 6.19602ZM62.4061 16.8961C64.6922 15.5716 64.6403 11.8579 63.783 9.75434V9.72837C63.0816 7.98838 60.9773 5.57318 58.8471 6.81973C54.4567 9.36479 58.3015 19.2853 62.4061 16.8961ZM61.3117 29.3548C61.318 25.4957 60.908 21.1006 60.2759 18.6361L60.3019 18.6101C55.1062 17.3895 53.5475 8.17017 58.0937 5.52124C60.6396 4.04095 63.8349 5.67706 65.2638 9.183C66.8225 12.9746 65.4716 17.6232 62.2243 18.5841C62.8834 22.0022 62.6606 25.7141 62.4106 29.2798C63.4619 29.4067 64.3627 30.1416 64.5621 31.6227C64.4322 33.908 64.4322 46.1918 68.5368 44.8414C79.3083 41.3113 88.6389 33.609 97.2574 26.4945L97.8405 26.0132C102.413 22.2475 106.076 18.326 110.934 12.7944V12.7685C112.44 11.0804 114.96 12.3789 112.778 15.807C107.905 23.4242 101.015 30.4626 93.3603 36.5029C93.373 36.5196 93.3857 36.5365 93.3983 36.5536C99.5292 45.4613 99.8409 59.7448 98.7758 72.1065C98.3082 77.5602 96.2819 91.0386 93.2684 95.2977C90.9043 97.5571 87.735 98.8815 87.1115 97.3233C88.0283 94.8356 88.5966 92.8612 89.2789 90.4912C89.4085 90.0408 89.5423 89.5761 89.6833 89.0909C92.6294 79.2965 92.4636 70.8068 92.3804 66.5506C92.369 65.9654 92.3591 65.4602 92.3591 65.0427C92.2552 64.2116 90.8264 63.926 90.4367 65.0946C89.5275 74.5477 86.5659 88.2079 70.3554 95.1938C68.2511 96.1028 66.6145 95.4535 65.4454 93.8434C64.9518 93.1682 64.8479 92.5968 65.7052 92.2592C68.433 91.1425 71.1607 89.6882 73.5247 87.7145C80.435 81.9751 84.4097 70.782 84.4357 62.7573C84.4357 56.4347 82.9479 50.1634 80.1506 45.5488C77.0988 47.3554 74.0367 48.9882 71.0307 50.4249C67.9913 51.9052 64.1205 50.6067 61.9123 48.3214C59.3404 45.6724 58.5611 38.4787 58.4572 33.3886C58.3378 31.2009 59.7895 29.7307 61.3117 29.3548ZM87.1376 27.154C86.2543 24.3232 83.2408 22.765 80.4611 23.648C77.6554 24.531 76.1227 27.5435 77.006 30.3483C77.8892 33.179 80.9027 34.7372 83.6824 33.8542C86.4881 32.9712 88.0208 29.9587 87.1376 27.128V27.154Z" fill="#9FA0A0"/>
</svg>
