<svg width="170" height="176" viewBox="0 0 170 176" fill="none" xmlns="http://www.w3.org/2000/svg">
<path fill-rule="evenodd" clip-rule="evenodd" d="M152 0C151.448 0 151 0.447715 151 1C151 1.55228 151.448 2 152 2C160.925 2 168 8.55688 168 16.4387V84.5C168 94.5 159 101 151 101H15.457C6.9203 101 0 107.912 0 116.439V159.651C0 168.178 6.9203 175.09 15.457 175.09H154.543C163.08 175.09 170 168.178 170 159.651V116.439V100V87V16.4387C170 7.27537 161.844 0 152 0Z" fill="#F7E9D3"/>
<rect x="1" y="2" width="167" height="99" rx="14" fill="white"/>
<path fill-rule="evenodd" clip-rule="evenodd" d="M67.4318 59.6526C58.3344 58.155 60.1866 52.1374 62.3657 46.4194C66.5058 49.9319 71.1634 53.1449 76.1207 54.6425C76.9378 50.4492 79.2803 46.0926 81.7862 42.689C78.3542 41.5726 73.4786 39.2854 69.5564 36.3447C72.9611 29.7009 82.6578 20.3614 88.4866 17.8291C96.5218 14.371 90.0392 12.3289 83.3387 16.277C69.8561 24.2279 59.1516 34.9016 55.6107 45.6842C52.5328 55.1054 53.4317 62.8384 66.8599 65.6702C71.3541 66.6232 77.0195 61.2046 67.4318 59.6254V59.6526ZM86.9886 43.6148C92.8719 33.0228 100.335 22.7575 111.203 13.2274C118.475 8.05394 121.826 8.62575 118.802 18.4281C99.6269 33.758 86.1714 53.1177 84.9729 89.6043C83.0391 93.9065 79.4164 97.065 79.5254 92.4633C79.5101 91.6006 79.493 90.7378 79.476 89.8751L79.476 89.8748C79.2502 78.4573 79.0245 67.0382 82.8484 55.5955C80.969 56.4124 84.9185 43.9688 86.9886 43.6148ZM55.9651 24.7969C59.2608 24.7969 61.9301 27.4381 61.9301 30.7055C61.9301 33.973 59.2608 36.6142 55.9651 36.6142C52.6693 36.6142 50 33.973 50 30.7055C50 27.4381 52.6693 24.7969 55.9651 24.7969ZM79.8794 57.9404C80.3697 53.0664 81.8405 47.6207 85.1635 42.3383C85.4393 39.6067 82.3234 45.3169 81.5281 46.7743C81.4593 46.9004 81.4079 46.9947 81.3775 47.0489C79.3347 50.7792 77.6187 54.4823 77.1829 58.9479C77.0467 60.3365 79.6615 61.1262 79.8794 57.9404Z" fill="#9FA0A0"/>
</svg>
