<svg width="170" height="176" viewBox="0 0 170 176" fill="none" xmlns="http://www.w3.org/2000/svg">
<path fill-rule="evenodd" clip-rule="evenodd" d="M152 0C151.448 0 151 0.447715 151 1C151 1.55228 151.448 2 152 2C160.925 2 168 8.55688 168 16.4387V84.5C168 94.5 159 101 151 101H15.457C6.9203 101 0 107.912 0 116.439V159.651C0 168.178 6.9203 175.09 15.457 175.09H154.543C163.08 175.09 170 168.178 170 159.651V116.439V100V87V16.4387C170 7.27537 161.844 0 152 0Z" fill="#F7E9D3"/>
<rect x="1" y="2" width="167" height="99" rx="14" fill="white"/>
<path fill-rule="evenodd" clip-rule="evenodd" d="M54.6717 20.5204C58.6756 18.451 62.7885 16.5178 67.1738 14.7752L67.201 14.7479C79.7031 9.73782 94.0846 5.59903 108.739 5C116.038 9.76505 116.801 16.1366 115.221 20.8744C113.75 25.3399 109.311 29.0975 102.12 32.2016C115.303 55.6456 113.614 71.0299 109.992 92.7041C107.649 98.286 99.7773 99.5657 100.921 95.2091C105.661 79.7704 106.233 68.307 103.373 60.1384C103.264 75.0598 98.8513 87.6123 90.0535 97.8231C84.0339 101.526 82.781 96.4344 85.2596 93.1397C95.5827 79.4436 102.174 64.495 88.4192 36.9122C85.7771 32.7462 88.3103 28.8252 93.7033 27.1643C99.6956 25.2855 105.824 23.2161 109.256 19.6219C112.634 16.1094 107.676 7.12385 102.338 7.58674C83.462 9.22047 64.3411 16.3272 59.3566 19.8942C59.4761 20.7028 59.8872 21.5735 60.2999 22.4475C61.1101 24.1635 61.9265 25.8926 60.555 27.1915C57.6406 29.9688 49.5238 23.1616 54.6717 20.5204ZM59.2476 25.8028C58.1036 27.246 54.5899 25.1766 56.3876 22.5626C57.7222 20.6838 59.9285 24.9315 59.2476 25.8028ZM82.8359 21.1474C82.8359 18.2067 85.3691 15.8105 88.4742 15.8105C91.5793 15.8105 94.0851 18.2067 94.0851 21.1474C94.0851 24.0881 91.6065 26.4842 88.4742 26.4842C85.3418 26.4842 82.8359 24.0881 82.8359 21.1474Z" fill="#9FA0A0"/>
</svg>
