<svg width="170" height="175" viewBox="0 0 170 175" fill="none" xmlns="http://www.w3.org/2000/svg">
<path fill-rule="evenodd" clip-rule="evenodd" d="M152 0C151.448 0 151 0.447715 151 1C151 1.55228 151.448 2 152 2C160.925 2 168 8.55688 168 16.4387V84C168 94 159 100.5 151 100.5H15.457C6.9203 100.5 0 107.412 0 115.939V159.151C0 167.678 6.9203 174.59 15.457 174.59H154.543C163.08 174.59 170 167.678 170 159.151V115.939V100V86.5V16.4387C170 7.27537 161.844 0 152 0Z" fill="#F7E9D3"/>
<rect x="1" y="2" width="167" height="99" rx="14" fill="white"/>
<path fill-rule="evenodd" clip-rule="evenodd" d="M88.4149 7.87562C83.2942 8.49508 78.1734 9.11454 73.0527 9.74081H73.08C73.0807 9.7527 73.0814 9.76442 73.0821 9.77597C73.0706 9.77173 73.0613 9.76953 73.0545 9.76953C67.5252 11.73 64.5291 19.1907 66.0271 23.6835C67.4163 27.9039 70.0856 31.3075 76.9222 34.2483C75.1324 37.403 74.4286 42.557 73.7778 47.3221C73.2996 50.8238 72.8501 54.1154 72.0194 56.2492C71.1568 58.4731 69.4144 59.8696 67.689 61.2525C65.274 63.188 62.8925 65.0967 63.0037 69.2101C63.1191 73.1299 64.4004 78.2054 65.6722 83.2434C66.503 86.5344 67.3298 89.8094 67.8248 92.7358C70.0583 98.0182 75.6693 98.4811 74.5798 94.3695C72.778 88.5585 71.9897 82.5448 71.337 77.5652L71.337 77.5651C71.1609 76.2215 70.9946 74.9532 70.821 73.7845C70.0553 68.6907 72.7445 66.5644 77.3258 62.9422L77.7666 62.5935C80.4904 73.0494 84.4126 83.6414 88.9068 93.9339C89.6967 95.731 91.7123 99.0529 94.2999 97.3647C95.7707 96.4117 95.6073 93.4437 94.8991 91.456C94.2631 89.6652 93.5885 87.8615 92.9081 86.0421C87.5572 71.7344 81.8438 56.4573 91.6306 38.8227C94.1365 34.9017 92.3388 30.8447 86.5644 29.5921C80.681 28.3396 74.0895 26.5697 70.7937 23.1661C68.3156 20.5799 71.8819 11.9512 75.1499 11.3764L75.179 11.4033L75.1518 11.376L75.1499 11.3764C75.1486 11.3752 75.1473 11.374 75.146 11.3728C84.853 11.0889 94.56 10.7824 104.267 10.476L104.267 10.476C107.999 9.90418 107.536 5.7654 103.777 6.01045C98.6562 6.63672 93.5355 7.25617 88.4149 7.87562ZM83.2408 24.6358C84.2213 25.97 85.8283 26.923 87.7077 26.9775C91.9841 27.0864 94.272 24.1457 94.2448 21.0688C98.0309 20.851 98.3577 19.7346 94.1631 19.3806C93.7545 16.0315 90.4315 15.1602 87.8439 15.1602C82.5053 15.1602 81.9333 17.1751 81.3341 21.0416C81.0345 22.9204 81.6065 24.5813 83.2408 24.6358Z" fill="#9FA0A0"/>
</svg>
