<svg width="170" height="175" viewBox="0 0 170 175" fill="none" xmlns="http://www.w3.org/2000/svg">
<path fill-rule="evenodd" clip-rule="evenodd" d="M152 0C151.448 0 151 0.447715 151 1C151 1.55228 151.448 2 152 2C160.925 2 168 8.55688 168 16.4387V84C168 94 159 100.5 151 100.5H15.457C6.9203 100.5 0 107.412 0 115.939V159.151C0 167.678 6.9203 174.59 15.457 174.59H154.543C163.08 174.59 170 167.678 170 159.151V115.939V100V86.5V16.4387C170 7.27537 161.844 0 152 0Z" fill="#F7E9D3"/>
<rect x="1" y="2" width="167" height="99" rx="14" fill="white"/>
<path fill-rule="evenodd" clip-rule="evenodd" d="M36.2382 49.4006C35.2031 48.7471 37.8179 46.8139 38.7985 47.3585L38.7712 47.3312C40.8685 48.5021 46.3433 49.7818 53.5341 50.871C58.1373 49.5368 62.3319 47.4674 64.7833 45.3435C55.1684 33.3356 51.682 30.9939 43.2655 40.7691C39.7246 44.8806 36.7557 44.1455 37.8452 39.9795C38.5806 37.1204 41.3588 33.7713 44.7363 31.1573C50.2111 26.9368 57.184 26.7462 61.9233 31.8108C72.3826 42.9746 79.5189 48.1481 85.8653 48.4748C96.488 49.2917 106.157 48.3115 114.792 44.8534C121.111 42.3211 119.667 47.9847 114.165 50.5715C119.586 49.7001 125.06 49.0194 131.053 49.1556C133.504 49.9724 136.391 52.5592 130.181 51.9057C125.769 51.7423 121.274 51.7695 116.835 52.0963C112.698 52.3897 108.826 52.7703 105.023 53.1441C97.181 53.9149 89.6322 54.6569 80.6629 54.5469C64.4564 54.3563 47.8414 52.7225 39.9697 50.7076C39.9475 50.7002 39.8557 50.6726 39.7145 50.6303L39.7133 50.6299L39.7128 50.6297L39.7127 50.6297C38.8144 50.36 35.9324 49.4947 36.2382 49.4006ZM39.6956 61.7878C38.9602 61.0526 42.0108 58.3025 42.719 58.9288H42.7462C46.6685 62.4413 71.0462 65.2459 91.3111 62.169C95.639 61.5115 99.9986 60.4475 104.264 59.4065C108.831 58.292 113.29 57.2038 117.487 56.6688C120.455 56.2876 123.697 56.097 126.557 55.9336C131.261 56.5315 127.896 56.8897 122.88 57.4236C119.444 57.7893 115.234 58.2374 112.311 58.9015C110.716 59.2625 109.155 59.622 107.618 59.9758C97.7953 62.2379 88.967 64.2709 78.5093 65.0008C63.801 66.0083 49.1743 65.1914 42.6645 63.2037C42.6526 63.1989 42.6171 63.1855 42.5626 63.165L42.5616 63.1646L42.5609 63.1643C41.9909 62.9493 39.3729 61.9615 39.6956 61.7878ZM57.51 72.4073C63.7747 72.3256 70.5568 72.4073 77.5025 73.2242C82.5687 73.8505 87.5804 74.7218 92.456 75.8109C99.1565 77.717 96.7868 74.6129 94.3354 73.3331C82.3256 70.8473 71.5746 71.1353 60.6354 71.4283H60.6354L59.6617 71.4543C55.7395 71.6177 53.7512 72.3801 57.4828 72.4073H57.51ZM90.713 41.4475C90.6585 38.3707 88.0981 35.9201 84.993 35.9745C81.8879 36.029 79.4093 38.5613 79.4638 41.6381C79.5182 44.715 82.0786 47.1656 85.1837 47.1111C88.2888 47.0567 90.7674 44.5244 90.713 41.4475Z" fill="#9FA0A0"/>
</svg>
