<svg width="60" height="60" viewBox="0 0 60 60" fill="none" xmlns="http://www.w3.org/2000/svg">
<g clip-path="url(#clip0_1485_23126)">
<path d="M29.9958 60C46.5641 60 59.9915 46.5726 59.9915 30.0042C59.9915 13.4359 46.5641 0 29.9958 0C13.4274 0 0 13.4274 0 29.9958C0 46.5641 13.4274 59.9915 29.9958 59.9915" fill="#85AD87"/>
<g filter="url(#filter0_d_1485_23126)">
<path d="M5.00817 25.9164C5.00817 25.665 5.08983 25.431 5.26133 25.2056C5.43284 24.9802 5.69417 24.8675 6.05351 24.8675H6.20867C6.65784 24.8675 6.91101 24.7721 6.99268 24.5814C7.06618 24.3907 7.10701 24.148 7.10701 23.8532V22.5703C7.10701 21.8248 7.45001 21.452 8.12785 21.452C8.48719 21.452 8.75669 21.556 8.92819 21.7728C9.09969 21.9895 9.18136 22.2495 9.18136 22.5703V23.9226C9.18136 24.2173 9.21402 24.4427 9.27936 24.6161C9.34469 24.7808 9.53253 24.8675 9.85103 24.8675H10.0389C10.3574 24.8415 10.5452 24.7635 10.5942 24.6334C10.6432 24.4947 10.6759 24.304 10.6759 24.0613V22.5703C10.6759 21.8248 11.0189 21.452 11.6967 21.452C12.056 21.452 12.3255 21.556 12.4889 21.7728C12.6604 21.9895 12.742 22.2495 12.742 22.5703V23.7492C12.742 24.0613 12.7829 24.3214 12.8727 24.5294C12.9544 24.7288 13.183 24.8415 13.5424 24.8675H15.2656C15.6249 24.8675 15.8944 24.9802 16.0577 25.2056C16.2292 25.431 16.3109 25.665 16.3109 25.9164C16.3109 26.2111 16.2129 26.4625 16.0251 26.6793C15.8372 26.896 15.5759 27 15.2574 27H6.05351C5.735 27 5.48184 26.896 5.28583 26.6793C5.098 26.4625 5 26.2111 5 25.9164H5.00817ZM14.6939 21.1486C14.6939 21.4867 14.5877 21.7641 14.3754 21.9808C14.1631 22.1975 13.9017 22.3015 13.5832 22.3015C13.2892 22.3015 13.036 22.1975 12.8319 21.9808C12.6277 21.7641 12.5297 21.4867 12.5297 21.1486V17.9325C12.5297 17.5251 12.4317 17.1523 12.2439 16.7969C12.056 16.4502 11.6804 16.2768 11.125 16.2768H7.62151C7.30301 16.2768 7.04168 16.1814 6.83751 15.9907C6.63334 15.8 6.53534 15.5486 6.53534 15.2279C6.53534 14.9071 6.63334 14.6557 6.83751 14.4477C7.04168 14.2483 7.30301 14.1443 7.62151 14.1443H12.9054C13.3954 14.1443 13.8119 14.3003 14.1631 14.6211C14.5142 14.9331 14.6857 15.4012 14.6857 16.008V21.1486H14.6939ZM22.5584 23.4458C22.5584 23.7579 22.6074 24.0353 22.7054 24.278C22.8034 24.5121 23.0648 24.6334 23.4894 24.6334H26.8051C27.1645 24.6334 27.4258 24.7461 27.5891 24.9715C27.7443 25.1969 27.826 25.431 27.826 25.6824C27.826 25.9771 27.7361 26.2285 27.5565 26.4452C27.3768 26.6619 27.1236 26.7659 26.8051 26.7659H18.0177C17.6992 26.7659 17.4461 26.6619 17.2501 26.4452C17.0622 26.2285 16.9642 25.9771 16.9642 25.6824C16.9642 25.431 17.0459 25.1969 17.2174 24.9715C17.3889 24.7461 17.6502 24.6334 18.0096 24.6334H19.4714C19.9206 24.6334 20.1901 24.5121 20.2799 24.278C20.3779 24.044 20.4269 23.7666 20.4269 23.4458V21.8941C20.4269 21.1486 20.7781 20.7759 21.4804 20.7759C21.8398 20.7759 22.1093 20.8799 22.2889 21.0966C22.4686 21.3133 22.5584 21.5734 22.5584 21.8941V23.4458ZM26.6091 21.1486C26.6091 21.4867 26.503 21.7641 26.2906 21.9808C26.0783 22.1975 25.817 22.3015 25.4984 22.3015C25.2044 22.3015 24.9513 22.1975 24.7471 21.9808C24.5429 21.7641 24.4449 21.4867 24.4449 21.1486V17.9325C24.4449 17.5251 24.3469 17.1523 24.1591 16.7969C23.9713 16.4502 23.5956 16.2768 23.0484 16.2768H19.5449C19.2264 16.2768 18.9651 16.1814 18.7609 15.9907C18.5567 15.8 18.4587 15.5486 18.4587 15.2279C18.4587 14.9071 18.5567 14.6557 18.7609 14.4477C18.9651 14.2483 19.2264 14.1443 19.5449 14.1443H24.8288C25.3188 14.1443 25.7353 14.3003 26.0865 14.6211C26.4376 14.9331 26.6091 15.4012 26.6091 16.008V21.1486ZM28.806 14.1183C28.806 13.7802 28.904 13.5115 29.1081 13.3034C29.3123 13.104 29.5736 13 29.8921 13C30.3821 13.026 30.6761 13.182 30.7823 13.4941C30.8885 13.7975 30.9375 14.0056 30.9375 14.1183V16.0774C30.9375 16.3721 30.9865 16.6322 31.0845 16.8576C31.1825 17.083 31.452 17.1957 31.893 17.1957H32.9792C33.3385 17.1957 33.5998 17.3084 33.7632 17.5337C33.9183 17.7591 34 17.9932 34 18.2446C34 18.9207 33.657 19.2588 32.9792 19.2588H31.893C31.4928 19.2588 31.2315 19.3542 31.109 19.5449C30.9946 19.7356 30.9375 19.987 30.9375 20.3077V23.6539C30.9375 23.9659 30.8395 24.2433 30.6353 24.4687C30.4311 24.6941 30.1861 24.8068 29.884 24.8068C29.5818 24.8068 29.3286 24.6941 29.1163 24.4687C28.904 24.2433 28.7978 23.9746 28.7978 23.6539V14.1183H28.806Z" fill="#FFFCD3"/>
</g>
<g filter="url(#filter1_d_1485_23126)">
<path d="M9 34.393C9 33.6214 9.19141 32.9382 9.58255 32.3596C9.97369 31.7728 10.4897 31.3147 11.1388 30.9772C11.7879 30.6396 12.487 30.4788 13.2443 30.4788C14.0016 30.4788 14.734 30.6476 15.3831 30.9772C16.0322 31.3147 16.5482 31.7728 16.9393 32.3596C17.3305 32.9463 17.5219 33.6214 17.5219 34.393C17.5219 35.1646 17.3305 35.8156 16.9393 36.4184C16.5482 37.0131 16.0322 37.4793 15.3831 37.8168C14.734 38.1544 14.0183 38.3151 13.2443 38.3151C12.4703 38.3151 11.7879 38.1464 11.1388 37.8168C10.4897 37.4793 9.97369 37.0212 9.58255 36.4184C9.19141 35.8236 9 35.1485 9 34.393ZM11.1471 34.393C11.1471 34.9797 11.3552 35.4539 11.7796 35.8156C12.204 36.1853 12.695 36.3621 13.2526 36.3621C13.8102 36.3621 14.3345 36.1772 14.7423 35.8156C15.1501 35.4539 15.3581 34.9717 15.3581 34.393C15.3581 33.8143 15.1501 33.308 14.7423 32.9543C14.3345 32.6007 13.8352 32.4239 13.2526 32.4239C12.6701 32.4239 12.1957 32.6007 11.7796 32.9543C11.3552 33.308 11.1471 33.7902 11.1471 34.393ZM14.1681 42.3257C14.1681 42.0364 14.2679 41.7872 14.476 41.5863C14.684 41.3854 14.9337 41.2889 15.2416 41.2889C15.5495 41.2889 15.7992 41.3854 16.0072 41.5863C16.2153 41.7872 16.3152 42.0283 16.3152 42.3257V44.552C16.3152 44.8896 16.4067 45.2191 16.5898 45.5406C16.7729 45.8621 17.1723 46.0228 17.7715 46.0228H21.7329C22.0325 46.0228 22.2905 46.1113 22.4985 46.2881C22.7066 46.4649 22.8064 46.698 22.8064 46.9953C22.8064 47.3088 22.7066 47.558 22.4985 47.7348C22.2905 47.9116 22.0408 48 21.7329 48H15.924C15.4497 48 15.0336 47.8473 14.6923 47.5419C14.3428 47.2365 14.1764 46.8025 14.1764 46.2398V42.3177L14.1681 42.3257ZM22.7981 40.003C22.7981 40.2923 22.6983 40.5495 22.4902 40.7585C22.2821 40.9674 22.0325 41.0719 21.7246 41.0719C21.4166 41.0719 21.1587 40.9674 20.9423 40.7585C20.7259 40.5495 20.6177 40.3003 20.6177 40.003V38.2187C20.6177 38.0338 20.5761 37.857 20.5012 37.7043C20.4263 37.5436 20.2183 37.4712 19.8687 37.4712H18.895C18.2043 37.4712 17.8548 37.1578 17.8548 36.5309C17.8548 36.2817 17.938 36.0647 18.0961 35.8718C18.2542 35.687 18.5205 35.5905 18.895 35.5905H19.8687C20.2183 35.5905 20.4263 35.5262 20.5012 35.3896C20.5761 35.253 20.6177 35.0922 20.6177 34.9074V34.2805C20.6177 34.0474 20.5761 33.8706 20.5012 33.7339C20.4263 33.5973 20.2183 33.533 19.8687 33.533H18.895C18.2043 33.533 17.8548 33.2195 17.8548 32.5926C17.8548 32.3435 17.938 32.1265 18.0961 31.9336C18.2542 31.7487 18.5205 31.6523 18.895 31.6523H19.8687C20.2349 31.6523 20.4513 31.5558 20.5179 31.371C20.5844 31.1861 20.6177 30.9611 20.6177 30.7119V30.0529C20.6177 29.9484 20.6843 29.7555 20.8091 29.4742C20.9423 29.1929 21.2419 29.0402 21.7162 29.0161C22.0408 29.0161 22.2988 29.1125 22.4985 29.2974C22.6899 29.4822 22.7898 29.7394 22.7898 30.0529V40.019L22.7981 40.003ZM31.7528 37.5918C31.7528 37.9052 31.6446 38.1624 31.4282 38.3634C31.2118 38.5643 30.9455 38.6607 30.6209 38.6607C30.3213 38.6607 30.0634 38.5643 29.8553 38.3634C29.6472 38.1624 29.5474 37.9052 29.5474 37.5918V34.61C29.5474 34.2322 29.4475 33.8866 29.2561 33.5571C29.0647 33.2356 28.6819 33.0749 28.116 33.0749H24.5458C24.2212 33.0749 23.9549 32.9865 23.7468 32.8096C23.5388 32.6328 23.4389 32.3997 23.4389 32.1024C23.4389 31.805 23.5388 31.5719 23.7468 31.379C23.9549 31.1942 24.2212 31.0977 24.5458 31.0977H29.9302C30.338 31.0977 30.7125 31.2022 31.0537 31.4112C31.3866 31.6201 31.603 31.9336 31.6862 32.3515C31.7278 32.1426 31.836 31.9738 31.9941 31.8371C32.1522 31.7005 32.4019 31.6362 32.7264 31.6362H33.5087C33.8749 31.6362 34.0996 31.5398 34.1911 31.3549C34.2744 31.1701 34.3243 30.945 34.3243 30.6959V30.0368C34.3243 29.9323 34.3909 29.7394 34.5157 29.4581C34.6405 29.1768 34.9485 29.0241 35.4228 29C35.7474 29 36.0054 29.0964 36.2051 29.2813C36.4048 29.4662 36.4964 29.7234 36.4964 30.0368V39.8503C36.4964 40.1396 36.3965 40.3968 36.1885 40.6058C35.9804 40.8147 35.7307 40.9192 35.4228 40.9192C35.1149 40.9192 34.8569 40.8147 34.6405 40.6058C34.4242 40.3968 34.316 40.1476 34.316 39.8503V38.2187C34.316 38.0338 34.2744 37.857 34.1828 37.7043C34.0996 37.5436 33.8666 37.4712 33.5004 37.4712H32.7181C32.2021 37.4712 31.8776 37.2944 31.7444 36.9408V37.5998L31.7528 37.5918ZM32.7264 33.5169C32.2105 33.5169 31.8859 33.3401 31.7528 32.9865V36.1531C31.8193 35.9843 31.9275 35.8477 32.0773 35.7432C32.2271 35.6387 32.4435 35.5825 32.7264 35.5825H33.5087C33.8749 35.5825 34.0996 35.5182 34.1911 35.3816C34.2744 35.2449 34.3243 35.0842 34.3243 34.8993V34.3367C34.3243 34.1036 34.2827 33.9107 34.1911 33.758C34.1079 33.5973 33.8749 33.525 33.5087 33.525H32.7264V33.5169ZM40 40.003C40 40.2923 39.9085 40.5495 39.7254 40.7585C39.5423 40.9674 39.2843 41.0719 38.9597 41.0719C38.6601 41.0719 38.4105 40.9674 38.2107 40.7585C38.0193 40.5495 37.9195 40.3003 37.9195 40.003V30.0368C37.9195 29.9323 37.9694 29.7394 38.0859 29.4581C38.1941 29.1768 38.4854 29.0241 38.9597 29C39.6505 29 40 29.3456 40 30.0368V40.003Z" fill="#FFFCD3"/>
</g>
<g filter="url(#filter2_d_1485_23126)">
<path d="M44.328 29.448C44.4027 29.4267 44.472 29.4107 44.536 29.4C44.6 29.3787 44.664 29.3627 44.728 29.352C44.8027 29.3307 44.8933 29.32 45 29.32C45.1173 29.3093 45.224 29.3147 45.32 29.336C45.4267 29.3467 45.5227 29.3787 45.608 29.432C45.704 29.4747 45.7733 29.544 45.816 29.64C45.8587 29.7467 45.8853 29.8747 45.896 30.024C45.9173 30.1627 45.928 30.3067 45.928 30.456C45.928 30.6053 45.9227 30.7547 45.912 30.904C45.912 31.0427 45.912 31.1707 45.912 31.288V39.464C45.912 39.5813 45.912 39.704 45.912 39.832C45.9227 39.9493 45.9227 40.072 45.912 40.2C45.9013 40.328 45.8693 40.4507 45.816 40.568C45.7627 40.6747 45.6827 40.7653 45.576 40.84C45.4267 40.9573 45.224 41.016 44.968 41.016C44.7227 41.0267 44.5093 41 44.328 40.936C44.136 40.872 44.0187 40.7493 43.976 40.568C43.944 40.3867 43.928 40.2053 43.928 40.024C43.8533 38.616 43.816 37.24 43.816 35.896C43.8267 34.5413 43.832 33.1493 43.832 31.72C43.8107 31.7733 43.736 31.8213 43.608 31.864C43.4907 31.9067 43.352 31.944 43.192 31.976C43.0427 32.008 42.8987 32.0347 42.76 32.056C42.6213 32.0773 42.5307 32.088 42.488 32.088C42.2107 32.12 41.9547 32.0933 41.72 32.008C41.496 31.912 41.368 31.6987 41.336 31.368C41.2933 31.0267 41.368 30.76 41.56 30.568C41.7627 30.376 42.0187 30.232 42.328 30.136C42.6693 30.0187 43 29.9013 43.32 29.784C43.6507 29.656 43.9867 29.544 44.328 29.448ZM50.8901 40.952C50.6981 40.952 50.5008 40.9413 50.2981 40.92C50.1061 40.888 49.9141 40.8347 49.7221 40.76C49.4341 40.6427 49.1568 40.488 48.8901 40.296C48.6341 40.0933 48.3995 39.8693 48.1861 39.624C47.6741 39.048 47.2848 38.3707 47.0181 37.592C46.7515 36.8027 46.6181 36.0027 46.6181 35.192C46.6181 34.0827 46.8315 33.0107 47.2581 31.976C47.3328 31.7947 47.4288 31.6027 47.5461 31.4C47.6741 31.1973 47.8128 31.0053 47.9621 30.824C48.1221 30.632 48.2821 30.4613 48.4421 30.312C48.6128 30.1627 48.7835 30.0507 48.9541 29.976C49.1888 29.8693 49.4448 29.7627 49.7221 29.656C50.0635 29.5493 50.4475 29.5013 50.8741 29.512C51.3008 29.5227 51.6901 29.5707 52.0421 29.656C52.5328 29.7733 52.9541 29.9867 53.3061 30.296C53.6581 30.5947 53.9568 30.9573 54.2021 31.384C54.4475 31.8 54.6395 32.2587 54.7781 32.76C54.9168 33.2507 55.0181 33.752 55.0821 34.264C55.1248 34.6053 55.1408 34.9467 55.1301 35.288C55.1195 35.6187 55.0928 35.9547 55.0501 36.296C55.0075 36.6053 54.9541 36.9147 54.8901 37.224C54.8368 37.5333 54.7621 37.832 54.6661 38.12C54.5701 38.408 54.4475 38.6853 54.2981 38.952C54.1488 39.208 53.9621 39.448 53.7381 39.672C53.3328 40.0667 52.8901 40.376 52.4101 40.6C51.9408 40.8133 51.4341 40.9307 50.8901 40.952ZM50.8741 31.624C50.7248 31.624 50.5755 31.64 50.4261 31.672C50.2875 31.6933 50.1541 31.7467 50.0261 31.832C49.8768 31.928 49.7435 32.0453 49.6261 32.184C49.5088 32.3227 49.4075 32.4667 49.3221 32.616C49.0981 33 48.9435 33.4107 48.8581 33.848C48.7728 34.2853 48.7301 34.728 48.7301 35.176C48.7301 35.6347 48.7781 36.1093 48.8741 36.6C48.9808 37.0907 49.1675 37.5387 49.4341 37.944C49.5621 38.136 49.7115 38.3067 49.8821 38.456C50.0635 38.5947 50.2715 38.696 50.5061 38.76C50.7195 38.8133 50.9328 38.8293 51.1461 38.808C51.3701 38.7867 51.5781 38.7173 51.7701 38.6C52.0795 38.408 52.3248 38.152 52.5061 37.832C52.6875 37.512 52.8208 37.1653 52.9061 36.792C53.0021 36.4187 53.0555 36.0347 53.0661 35.64C53.0875 35.2453 53.0875 34.888 53.0661 34.568C53.0448 34.248 52.9915 33.912 52.9061 33.56C52.8208 33.208 52.6928 32.888 52.5221 32.6C52.3621 32.312 52.1435 32.0773 51.8661 31.896C51.5995 31.704 51.2688 31.6133 50.8741 31.624Z" fill="#FFFCD3"/>
</g>
</g>
<defs>
<filter id="filter0_d_1485_23126" x="3" y="11" width="33" height="18" filterUnits="userSpaceOnUse" color-interpolation-filters="sRGB">
<feFlood flood-opacity="0" result="BackgroundImageFix"/>
<feColorMatrix in="SourceAlpha" type="matrix" values="0 0 0 0 0 0 0 0 0 0 0 0 0 0 0 0 0 0 127 0" result="hardAlpha"/>
<feOffset/>
<feGaussianBlur stdDeviation="1"/>
<feComposite in2="hardAlpha" operator="out"/>
<feColorMatrix type="matrix" values="0 0 0 0 0 0 0 0 0 0 0 0 0 0 0 0 0 0 0.25 0"/>
<feBlend mode="normal" in2="BackgroundImageFix" result="effect1_dropShadow_1485_23126"/>
<feBlend mode="normal" in="SourceGraphic" in2="effect1_dropShadow_1485_23126" result="shape"/>
</filter>
<filter id="filter1_d_1485_23126" x="7" y="27" width="35" height="23" filterUnits="userSpaceOnUse" color-interpolation-filters="sRGB">
<feFlood flood-opacity="0" result="BackgroundImageFix"/>
<feColorMatrix in="SourceAlpha" type="matrix" values="0 0 0 0 0 0 0 0 0 0 0 0 0 0 0 0 0 0 127 0" result="hardAlpha"/>
<feOffset/>
<feGaussianBlur stdDeviation="1"/>
<feComposite in2="hardAlpha" operator="out"/>
<feColorMatrix type="matrix" values="0 0 0 0 0 0 0 0 0 0 0 0 0 0 0 0 0 0 0.25 0"/>
<feBlend mode="normal" in2="BackgroundImageFix" result="effect1_dropShadow_1485_23126"/>
<feBlend mode="normal" in="SourceGraphic" in2="effect1_dropShadow_1485_23126" result="shape"/>
</filter>
<filter id="filter2_d_1485_23126" x="39.2715" y="27.3037" width="17.875" height="15.7285" filterUnits="userSpaceOnUse" color-interpolation-filters="sRGB">
<feFlood flood-opacity="0" result="BackgroundImageFix"/>
<feColorMatrix in="SourceAlpha" type="matrix" values="0 0 0 0 0 0 0 0 0 0 0 0 0 0 0 0 0 0 127 0" result="hardAlpha"/>
<feOffset/>
<feGaussianBlur stdDeviation="1"/>
<feComposite in2="hardAlpha" operator="out"/>
<feColorMatrix type="matrix" values="0 0 0 0 0 0 0 0 0 0 0 0 0 0 0 0 0 0 0.25 0"/>
<feBlend mode="normal" in2="BackgroundImageFix" result="effect1_dropShadow_1485_23126"/>
<feBlend mode="normal" in="SourceGraphic" in2="effect1_dropShadow_1485_23126" result="shape"/>
</filter>
<clipPath id="clip0_1485_23126">
<rect width="60" height="60" fill="white"/>
</clipPath>
</defs>
</svg>
