<svg width="135" height="216" viewBox="0 0 135 216" fill="none" xmlns="http://www.w3.org/2000/svg">
<g clip-path="url(#clip0_498_1374)">
<path d="M53.1621 90.8692L72.816 131.764L84.6084 126.29L57.2218 66.9121" fill="#AADBF6"/>
<path d="M72.817 133.374C72.2371 133.374 71.5927 133.052 71.3349 132.472L51.681 91.642C51.2943 90.8048 51.681 89.8388 52.4542 89.4524C53.292 89.066 54.2585 89.4524 54.6452 90.2252L73.5903 129.638L82.4829 125.517L55.8051 67.685C55.4184 66.8478 55.8051 65.8817 56.5783 65.4953C57.4161 65.1089 58.3826 65.4953 58.7693 66.2681L86.1559 125.581C86.5425 126.418 86.1559 127.384 85.3826 127.771L73.5258 133.245C73.5258 133.245 73.0748 133.374 72.817 133.374Z" fill="#3E3A39"/>
<path d="M94.7896 143.099L89.8277 132.537C89.1189 129.317 86.9924 126.483 83.7705 125.131C78.4865 122.941 72.4292 125.582 70.1738 130.991C67.9184 136.401 70.3671 142.583 75.5867 144.773C79.5175 146.383 83.8993 145.353 86.8635 142.455L88.539 145.997C89.3767 147.735 91.4387 148.444 93.1141 147.671C94.854 146.834 95.5628 144.773 94.7896 143.099Z" fill="white"/>
<path d="M91.6973 149.667C91.1174 149.667 90.5374 149.603 89.9575 149.345C88.6687 148.894 87.6377 147.928 87.0577 146.705L86.2845 145.03C82.9336 147.349 78.7451 147.799 75.0076 146.254C72.1078 145.03 69.8525 142.776 68.6281 139.878C67.3393 136.851 67.4038 133.438 68.6281 130.347C69.9169 127.256 72.3012 124.873 75.3298 123.585C78.294 122.361 81.4515 122.361 84.3513 123.585C87.8954 125.066 90.5374 128.286 91.3751 132.15L96.2725 142.325C96.8525 143.549 96.9169 144.966 96.4658 146.254C96.0148 147.542 95.0482 148.572 93.8238 149.152C93.115 149.474 92.4062 149.667 91.6329 149.667H91.6973ZM86.8644 140.844C86.8644 140.844 87.0577 140.844 87.1222 140.844C87.6377 140.908 88.0887 141.295 88.3465 141.746L90.0219 145.288C90.2152 145.739 90.6019 146.061 91.0529 146.189C91.504 146.318 92.0195 146.318 92.4062 146.125C92.8572 145.932 93.1794 145.545 93.3728 145.095C93.5661 144.644 93.5016 144.129 93.3728 143.742L88.4109 133.18C87.7021 130.025 85.7689 127.642 83.2558 126.612C81.1938 125.774 78.8739 125.774 76.7475 126.612C74.4921 127.513 72.7522 129.316 71.7856 131.57C70.8191 133.824 70.8191 136.336 71.7856 138.59C72.6878 140.715 74.2988 142.325 76.3608 143.227C79.5828 144.579 83.2558 143.742 85.8334 141.23C86.1556 140.908 86.5422 140.78 86.9933 140.78L86.8644 140.844Z" fill="#3E3A39"/>
<path d="M45.8805 213.617C44.9784 213.617 44.2695 212.909 44.2695 211.943V198.419C44.2695 197.517 44.9784 196.744 45.8805 196.744H58.4461C58.8972 196.744 59.3483 196.937 59.6705 197.259L72.1072 210.977C72.5583 211.427 72.6872 212.136 72.365 212.78C72.1072 213.36 71.5273 213.746 70.8829 213.746L45.8805 213.553V213.617Z" fill="#C9CACA"/>
<path d="M58.4458 198.418L70.8825 212.136L45.8801 211.942V198.418H58.4458ZM58.4458 195.134H45.8801C44.0758 195.134 42.5938 196.615 42.5938 198.418V211.942C42.5938 213.746 44.0758 215.227 45.8801 215.227L70.8825 215.42C72.1713 215.42 73.3312 214.647 73.9112 213.488C74.4267 212.329 74.2334 210.912 73.3312 209.946L60.8945 196.229C60.2501 195.52 59.3479 195.134 58.4458 195.134Z" fill="#3E3A39"/>
<path d="M25.8395 213.617C24.9373 213.617 24.2285 212.909 24.2285 211.943V198.419C24.2285 197.517 24.9373 196.744 25.8395 196.744H38.4051C38.8562 196.744 39.3073 196.937 39.6295 197.259L52.0662 210.977C52.5173 211.427 52.5817 212.136 52.324 212.78C52.0662 213.36 51.4863 213.746 50.8419 213.746L25.8395 213.553" fill="#C9CACA"/>
<path d="M38.4048 198.418L50.8415 212.136L25.8391 211.942V198.418H38.4048ZM38.4048 195.134H25.8391C24.0348 195.134 22.5527 196.615 22.5527 198.418V211.942C22.5527 213.746 24.0348 215.227 25.8391 215.227L50.8415 215.42C52.1303 215.42 53.2902 214.647 53.8702 213.488C54.3857 212.329 54.1924 210.912 53.2902 209.946L40.8534 196.229C40.2091 195.52 39.3069 195.134 38.4048 195.134Z" fill="#3E3A39"/>
<path d="M45.8801 200.029C44.9779 200.029 44.2691 199.321 44.2691 198.355V144.322H40.596L40.0805 198.419C40.0805 199.321 39.3073 200.029 38.4051 200.029H25.8395C24.9373 200.029 24.1641 199.321 24.1641 198.355V129.317C24.1641 128.866 24.3574 128.48 24.6796 128.158C25.0018 127.836 25.3884 127.707 25.8395 127.707L31.5101 127.771C31.639 127.771 31.8323 127.707 32.0256 127.707H49.6175C49.6175 127.707 49.8753 127.707 50.0686 127.707L59.219 127.836C60.1211 127.836 60.8299 128.609 60.8299 129.51L60.1211 198.355C60.1211 199.256 59.3478 199.965 58.5101 199.965H45.9445L45.8801 200.029Z" fill="#E4E4E5"/>
<path d="M49.5527 129.381L59.0897 129.574L58.3809 198.419H45.8153V142.712H38.8559L38.2759 198.419H25.7103V129.381H31.832H49.4239H49.5527ZM49.5527 126.097H31.9609C31.9609 126.097 31.4453 126.097 31.252 126.161H25.9036V126.097C25.0659 126.097 24.2282 126.419 23.5838 127.063C22.9394 127.707 22.6172 128.544 22.6172 129.381V198.419C22.6172 200.222 24.0993 201.703 25.9036 201.703H38.4692C40.2735 201.703 41.7556 200.286 41.7556 198.483L42.2711 145.997H42.6578V198.419C42.6578 200.222 44.1399 201.703 45.9442 201.703H58.5098C60.3141 201.703 61.7962 200.286 61.7962 198.483L62.505 129.639C62.505 127.835 61.0873 126.354 59.2831 126.354L50.326 126.225C50.326 126.225 49.8749 126.161 49.6816 126.161" fill="#3E3A39"/>
<path d="M24.2285 131.185V78.3117C24.2285 66.9772 32.5412 59.3135 42.6581 59.3135C52.7751 59.3135 61.0877 66.9772 61.0877 78.3117V131.185H24.2285Z" fill="#AADBF6"/>
<path d="M61.1518 132.794H24.2282C23.326 132.794 22.6172 132.086 22.6172 131.184V78.3114C22.6172 66.526 31.252 57.7031 42.7222 57.7031C54.1924 57.7031 62.8272 66.5904 62.8272 78.3114V131.184C62.8272 132.086 62.1184 132.794 61.2162 132.794H61.1518ZM25.9036 129.51H59.5408V78.247C59.5408 68.2004 52.4525 60.9232 42.7222 60.9232C32.9919 60.9232 25.9036 68.2004 25.9036 78.247V129.51Z" fill="#3E3A39"/>
<path d="M50.2618 2.38287C34.9897 -1.15917 19.7821 8.37213 16.2379 23.5707C12.8227 38.2541 21.5864 52.8086 35.8274 56.9947V60.0859C35.8274 63.7567 38.7916 66.7192 42.4647 66.7192H43.5601C47.2332 66.7192 50.1973 63.7567 50.1973 60.0859V57.5099C60.4432 55.1271 68.9491 47.2702 71.4623 36.3864C75.0064 21.1235 65.4694 5.9249 50.2618 2.38287Z" fill="white"/>
<path d="M43.5601 68.3934H42.4646C37.8894 68.3934 34.1519 64.6582 34.1519 60.0857V58.2181C19.7176 53.2593 11.1472 38.1251 14.6269 23.1841C16.4312 15.3916 21.1997 8.75836 27.9658 4.50792C34.7963 0.321871 42.8512 -1.03054 50.6484 0.772675C58.4455 2.5759 65.0827 7.34155 69.3357 14.1036C73.5887 20.8657 74.9419 28.9158 73.0732 36.7083C70.5601 47.4632 62.5052 55.7709 51.8083 58.7333V60.0857C51.8083 64.6582 48.0708 68.3934 43.5601 68.3934ZM43.8823 3.2843C31.7033 3.2843 20.6842 11.6564 17.8488 23.9569C14.6913 37.6099 22.8107 51.456 36.2784 55.4489C36.9873 55.6421 37.4383 56.2861 37.4383 56.9945V60.0857C37.4383 62.855 39.6937 65.109 42.4646 65.109H43.5601C46.3309 65.109 48.5219 62.855 48.5219 60.0857V57.5097C48.5219 56.7369 49.0374 56.0929 49.8107 55.8997C59.8632 53.5813 67.5959 45.9176 69.8512 35.9999C71.4622 29.0446 70.2379 21.8961 66.5004 15.8424C62.6985 9.78878 56.8345 5.60273 49.8751 3.99271C47.8775 3.54191 45.8154 3.2843 43.8178 3.2843H43.8823Z" fill="#3E3A39"/>
<path d="M56.9002 37.2237C56.578 38.5761 55.2892 39.4134 54.0004 39.0914C52.7116 38.7694 51.8739 37.4813 52.1961 36.1289C52.5183 34.7765 53.8071 33.9393 55.0959 34.2613C56.3847 34.5833 57.1579 35.8713 56.9002 37.2237Z" fill="#3E3A39"/>
<path d="M43.367 34.0685C43.0448 35.4209 41.756 36.2581 40.4672 35.9361C39.1784 35.6141 38.3407 34.3261 38.6629 32.9736C38.9851 31.6212 40.2739 30.784 41.5627 31.106C42.8514 31.428 43.6247 32.716 43.367 34.0685Z" fill="#3E3A39"/>
<path d="M40.6602 44.3721C43.6244 46.6261 46.5886 46.8837 49.6172 45.4669L40.6602 44.3721Z" fill="white"/>
<path d="M45.9457 47.7206C43.8836 47.7206 41.8216 46.9478 39.8884 45.4666C39.3084 45.0158 39.1795 44.1786 39.6306 43.599C40.0817 43.0194 40.9194 42.8906 41.4994 43.3414C43.948 45.209 46.4612 45.531 49.1032 44.3074C49.7476 43.9854 50.5208 44.3074 50.843 44.9514C51.1652 45.5954 50.843 46.3682 50.1986 46.6902C48.781 47.3986 47.3633 47.7206 45.9457 47.7206Z" fill="#3E3A39"/>
<path d="M57.6083 32.2648C57.6083 32.2648 57.415 32.2648 57.2861 32.2648L53.8064 31.492C53.0976 31.2988 52.6465 30.5904 52.8398 29.882C53.0331 29.1736 53.6775 28.7228 54.4508 28.916L57.9305 29.6888C58.6393 29.882 59.0904 30.5904 58.8971 31.2988C58.7682 31.8784 58.1883 32.3292 57.6083 32.3292V32.2648Z" fill="#3E3A39"/>
<path d="M43.1103 28.9163C43.1103 28.9163 42.917 28.9163 42.7881 28.9163L39.3084 28.1435C38.5995 27.9503 38.1485 27.2419 38.3418 26.5335C38.5351 25.8251 39.1795 25.4387 39.9528 25.5675L43.4325 26.3403C44.1413 26.5335 44.5924 27.2419 44.3991 27.9503C44.2702 28.5299 43.6902 28.9807 43.1103 28.9807V28.9163Z" fill="#3E3A39"/>
<path d="M50.1343 2.7045C38.7285 0.0640714 27.3873 4.70092 20.8789 13.5882C31.898 16.1642 61.2822 22.9263 71.6569 25.3736C69.7238 14.5542 61.54 5.34493 50.1343 2.7045Z" fill="#C9CACA"/>
<path d="M71.656 26.9843C71.656 26.9843 71.3982 26.9843 71.2693 26.9843C60.8302 24.6015 31.5104 17.775 20.4913 15.199C19.9758 15.0702 19.5247 14.6838 19.3314 14.1686C19.1381 13.6534 19.2025 13.0738 19.5247 12.623C26.6775 2.89845 38.792 -1.6096 50.5199 1.15963C62.2479 3.86446 71.1405 13.267 73.267 25.1167C73.3314 25.6319 73.2025 26.2115 72.7514 26.5979C72.4292 26.9199 72.0426 27.0487 71.5915 27.0487L71.656 26.9843ZM23.7777 12.5586C35.2479 15.199 58.3171 20.5442 69.465 23.1203C66.8875 13.7822 59.3481 6.50489 49.7467 4.25086C40.1452 2.06124 30.2216 5.28127 23.7777 12.4942V12.5586Z" fill="#3E3A39"/>
<path d="M29.7701 99.6277L17.8489 135.499L5.47656 131.377L26.1615 69.3594" fill="#AADBF6"/>
<path d="M17.85 137.109C17.85 137.109 17.5278 137.109 17.3345 137.044L4.9622 132.923C4.57557 132.794 4.18893 132.472 3.99562 132.086C3.8023 131.699 3.73786 131.248 3.93118 130.798L24.6161 68.7797C24.8739 67.9425 25.8405 67.4273 26.6782 67.7493C27.5159 68.0069 28.0314 68.9729 27.7092 69.8101L7.53977 130.218L16.819 133.309L28.2247 98.9836C28.4825 98.1464 29.4491 97.6956 30.2868 97.9532C31.1245 98.2108 31.64 99.1768 31.3178 100.014L19.3321 135.885C19.0744 136.594 18.43 136.98 17.7856 136.98L17.85 137.109Z" fill="#3E3A39"/>
<path d="M10.6973 146.769C5.73545 146.769 1.67578 142.712 1.67578 137.753V136.98C1.67578 132.021 5.73545 127.964 10.6973 127.964C15.6591 127.964 19.7187 132.021 19.7187 136.98V137.753C19.7187 142.712 15.6591 146.769 10.6973 146.769Z" fill="white"/>
<path d="M10.6969 148.444C4.83293 148.444 0 143.678 0 137.753V136.981C0 131.12 4.7685 126.29 10.6969 126.29C16.6253 126.29 21.3294 131.056 21.3294 136.981V137.753C21.3294 143.614 16.5609 148.444 10.6969 148.444ZM10.6969 129.639C6.63723 129.639 3.2864 132.923 3.2864 137.045V137.818C3.2864 141.875 6.57279 145.224 10.6969 145.224C14.821 145.224 18.043 141.939 18.043 137.818V137.045C18.043 132.988 14.7566 129.639 10.6969 129.639Z" fill="#3E3A39"/>
<path d="M133.324 190.562C133.324 203.764 122.627 214.39 109.481 214.39C96.3356 214.39 85.5742 203.699 85.5742 190.562C85.5742 177.424 96.2711 166.733 109.481 166.733C122.691 166.733 133.324 177.424 133.324 190.562Z" fill="#CCE2A1"/>
<path d="M109.483 216C95.435 216 83.9648 204.536 83.9648 190.497C83.9648 176.457 95.435 164.994 109.483 164.994C123.53 164.994 135.001 176.457 135.001 190.497C135.001 204.536 123.53 216 109.483 216ZM109.483 168.279C97.2393 168.279 87.2512 178.261 87.2512 190.497C87.2512 202.733 97.2393 212.715 109.483 212.715C121.726 212.715 131.714 202.733 131.714 190.497C131.714 178.261 121.726 168.279 109.483 168.279Z" fill="#3E3A39"/>
</g>
<defs>
<clipPath id="clip0_498_1374">
<rect width="135" height="216" fill="white"/>
</clipPath>
</defs>
</svg>
