<svg width="824" height="291" viewBox="0 0 824 291" fill="none" xmlns="http://www.w3.org/2000/svg">
<path d="M0 20C0 8.9543 8.95431 0 20 0H92C103.046 0 112 8.95431 112 20V271C112 282.046 103.046 291 92 291H20C8.9543 291 0 282.046 0 271V20Z" fill="#FFF096"/>
<path d="M139.306 0H76.8301V39.1734H139.306V0Z" fill="#FFF096"/>
<path d="M113 30C113 13.9837 125.984 1 142 1H804C814.493 1 823 9.50659 823 20V271C823 281.493 814.493 290 804 290H132C121.507 290 113 281.493 113 271V30Z" fill="white" stroke="#FFF096" stroke-width="2"/>
<rect x="772" y="109" width="162" height="608" rx="10" transform="rotate(90 772 109)" fill="#FFF096" fill-opacity="0.5"/>
</svg>
