<svg width="389" height="63" viewBox="0 0 389 63" fill="none" xmlns="http://www.w3.org/2000/svg">
<path d="M370.129 57.9539L0.28855 63L5.40134 51.958L0.184746 42.0554L5.16748 30.0211L0.0829072 23.0076L5.39717 13.9476L0 5.25046L383.424 0C383.424 0 388.043 1.1753 388.987 6.15055C389.366 8.11545 381.419 11.9701 381.696 14.8913C382.02 18.3457 386.927 21.9116 386.957 26.895L379.043 41.474L381.979 48.8683L370.104 57.9021L370.129 57.9539Z" fill="#C7C7E4"/>
<path d="M19.2022 19.7792V15.4592H39.0422V19.7792H31.8422V24.0192C31.8422 27.1392 32.3222 28.7792 34.7222 31.3792C36.4422 33.2592 38.5222 35.2992 40.5222 37.0992L37.2822 40.4592C35.5622 38.8592 33.8022 37.0992 32.3222 35.5792C30.8022 34.0192 29.6422 32.6992 29.3622 32.0592H29.2822C28.9222 32.8192 27.5622 34.3792 26.2422 35.7392C24.7622 37.2992 23.2422 38.8192 21.0422 40.8592L17.7222 37.4592C19.8822 35.5392 21.9222 33.5392 23.6422 31.6592C26.0022 29.0192 26.7222 27.3392 26.7222 24.0192V19.7792H19.2022ZM48.7222 12.2592V49.4592H43.6422V12.2592H48.7222ZM64.1363 36.5792V44.7392H83.3363V49.0592H59.0563V36.5792H64.1363ZM82.7363 12.2592V38.7392H77.6963V12.2592H82.7363ZM54.0563 18.8992V14.5792H73.3363V18.8992H66.3763V21.6992C66.3763 23.6592 66.8563 24.8192 68.9763 26.4592C70.6563 27.7392 72.6963 29.1392 74.6963 30.4192L71.9763 34.0192C70.2163 32.8592 68.4963 31.6592 67.0163 30.5792C65.3363 29.3392 64.2963 28.4192 64.1363 28.0192H64.0963C63.9363 28.4992 62.8163 29.5792 60.9763 31.0192C59.2563 32.3792 57.4563 33.7792 55.4563 35.1792L52.4963 31.4592C55.0163 29.7392 57.4563 27.8592 59.1363 26.3792C60.5363 25.1392 61.3363 23.6592 61.3363 21.6992V18.8992H54.0563ZM102.31 32.6592H125.75V43.0992H107.39V45.8192H126.87V49.8192H102.51V39.2992H120.87V36.6192H102.31V32.6592ZM125.75 12.2592V19.2992H130.63V23.6992H125.75V30.9792H120.71V12.2592H125.75ZM115.31 13.3392V29.8592H97.7103V13.3392H102.63V17.9392H110.39V13.3392H115.31ZM102.63 22.0592V25.7392H110.39V22.0592H102.63ZM154.444 12.7392V20.5392H157.524V12.2592H162.324V34.6592H157.524V24.8992H154.444V33.0992H149.684V12.7392H154.444ZM150.524 50.5792C143.644 50.5792 138.604 47.8992 138.604 43.5392V41.8592C138.604 37.4992 143.644 34.8192 150.524 34.8192C157.404 34.8192 162.444 37.4992 162.444 41.8592V43.5392C162.444 47.8992 157.404 50.5792 150.524 50.5792ZM150.524 38.8992C146.924 38.8992 143.564 40.3792 143.564 42.2592V43.1392C143.564 45.0192 146.924 46.4992 150.524 46.4992C154.124 46.4992 157.484 45.0192 157.484 43.1392V42.2592C157.484 40.3792 154.124 38.8992 150.524 38.8992ZM149.044 29.7792L146.084 32.9792C144.844 31.9392 143.164 30.4192 142.124 29.4592C140.924 28.3392 140.244 27.6192 140.004 27.0192H139.964C139.724 27.6992 139.124 28.4192 138.004 29.5792C136.964 30.6592 135.124 32.4592 133.124 34.2592L129.884 30.9392C131.564 29.4592 133.284 27.8192 134.884 26.1392C136.844 24.0592 137.324 22.4192 137.324 19.7792V14.1392H142.284V19.5392C142.284 22.1792 142.644 23.7392 144.604 25.6992C146.004 27.0992 147.484 28.4592 149.044 29.7792ZM206.378 12.2592V49.4592H201.298V12.2592H206.378ZM192.298 31.0592C194.018 32.9392 196.098 34.9792 198.178 36.8592L194.938 40.2592C193.138 38.5792 191.378 36.8192 189.898 35.2992C188.378 33.7392 187.218 32.4192 186.938 31.7392H186.858C186.618 32.4592 185.178 34.0992 183.858 35.4592C182.378 37.0192 180.818 38.5392 178.538 40.6592L175.218 37.2192C177.458 35.2192 179.498 33.2192 181.218 31.3392C183.538 28.7792 184.298 26.8192 184.298 23.5392V14.8592H189.458V23.5392C189.458 26.6992 189.898 28.4592 192.298 31.0592ZM219.272 16.2992H225.913V12.2992H230.793V16.2992H236.673V20.4992H219.272V16.2992ZM228.353 34.8592C223.393 34.8592 220.473 32.1392 220.473 28.9792V27.4592C220.473 24.2992 223.393 21.5792 228.353 21.5792C233.313 21.5792 236.233 24.2992 236.233 27.4592V28.9792C236.233 32.1392 233.313 34.8592 228.353 34.8592ZM228.353 25.4192C226.153 25.4192 224.913 26.6192 224.913 27.8992V28.5392C224.913 29.8192 226.153 31.0192 228.353 31.0192C230.553 31.0192 231.793 29.8192 231.793 28.5392V27.8992C231.793 26.6192 230.553 25.4192 228.353 25.4192ZM243.353 12.7392V21.4992H246.353V12.2592H251.153V35.5392H246.353V25.8592H243.353V33.9792H238.593V12.7392H243.353ZM239.353 50.6192C232.473 50.6192 227.433 48.2592 227.433 43.9792V42.3792C227.433 38.0992 232.473 35.7392 239.353 35.7392C246.233 35.7392 251.273 38.0992 251.273 42.3792V43.9792C251.273 48.2592 246.233 50.6192 239.353 50.6192ZM239.353 39.8192C235.753 39.8192 232.393 40.9392 232.393 42.7792V43.5792C232.393 45.4192 235.753 46.5392 239.353 46.5392C242.953 46.5392 246.313 45.4192 246.313 43.5792V42.7792C246.313 40.9392 242.953 39.8192 239.353 39.8192ZM282.807 13.4992V17.6192H263.727V22.6192H283.087V26.7392H273.447V29.8192H287.967V33.9392H253.887V29.8192H268.407V26.7392H258.727V13.4992H282.807ZM270.927 50.5792C264.447 50.5792 258.927 48.3792 258.927 43.7392V42.5392C258.927 37.8992 264.447 35.6992 270.927 35.6992C277.407 35.6992 282.927 37.8992 282.927 42.5392V43.7392C282.927 48.3792 277.407 50.5792 270.927 50.5792ZM270.927 39.7792C267.367 39.7792 263.927 40.9792 263.927 42.8592V43.4192C263.927 45.2992 267.367 46.4992 270.927 46.4992C274.487 46.4992 277.927 45.2992 277.927 43.4192V42.8592C277.927 40.9792 274.487 39.7792 270.927 39.7792ZM298.301 40.5392H306.301V32.1392C303.981 30.4992 302.581 28.0992 302.581 25.2592V23.4192C302.581 17.7792 308.061 14.0192 315.341 14.0192C322.621 14.0192 328.101 17.7792 328.101 23.4192V25.2592C328.101 28.1392 326.701 30.4992 324.381 32.1392V40.5392H332.381V44.7792H298.301V40.5392ZM315.341 18.2592C311.181 18.2592 307.541 20.4192 307.541 23.6992V24.9792C307.541 28.2592 311.181 30.4192 315.341 30.4192C319.501 30.4192 323.141 28.2592 323.141 24.9792V23.6992C323.141 20.4192 319.501 18.2592 315.341 18.2592ZM315.341 34.6592C313.901 34.6592 312.541 34.4992 311.261 34.2192V40.5392H319.421V34.2192C318.141 34.4992 316.781 34.6592 315.341 34.6592ZM352.035 50.6192C345.035 50.6192 340.355 47.9792 340.355 43.8192V42.2192C340.355 38.0592 345.035 35.4192 352.035 35.4192C359.035 35.4192 363.715 38.0592 363.715 42.2192V43.8192C363.715 47.9792 359.035 50.6192 352.035 50.6192ZM339.155 25.8592V29.4192C344.755 29.4192 349.355 29.3392 354.235 28.8592L354.675 33.0192C350.075 33.5392 344.395 33.6192 334.195 33.6192V21.8192H345.275V18.2592H334.155V14.0592H350.235V25.8592H339.155ZM363.595 12.2592V34.9792H358.595V27.4992H352.635V23.2592H358.595V20.8192H352.635V16.5792H358.595V12.2592H363.595ZM352.035 39.5392C347.875 39.5392 345.275 41.0992 345.275 42.5792V43.4592C345.275 44.9792 347.875 46.4992 352.035 46.4992C356.195 46.4992 358.795 44.9792 358.795 43.4592V42.5792C358.795 41.0992 356.195 39.5392 352.035 39.5392Z" fill="#231815"/>
</svg>
