<svg width="171" height="70" viewBox="0 0 171 70" fill="none" xmlns="http://www.w3.org/2000/svg">
<g clip-path="url(#clip0_332_168)">
<path d="M35.4687 69.2967C54.4167 69.2967 69.7771 53.9362 69.7771 34.9882C69.7771 16.0401 54.4167 0.679688 35.4687 0.679688C16.5206 0.679688 1.16016 16.0401 1.16016 34.9882C1.16016 53.9362 16.5206 69.2967 35.4687 69.2967Z" fill="#F9EA72"/>
<path d="M35.4683 70C16.1789 70 0.480469 54.3016 0.480469 34.9879C0.480469 15.6742 16.1789 0 35.4683 0C54.7578 0 70.4562 15.6984 70.4562 34.9879C70.4562 54.2773 54.7578 69.9757 35.4683 69.9757V70ZM35.4683 1.40728C16.9553 1.40728 1.88775 16.4749 1.88775 34.9879C1.88775 53.5009 16.9553 68.5927 35.4926 68.5927C54.0299 68.5927 69.0975 53.5251 69.0975 34.9879C69.0975 16.4506 54.0056 1.40728 35.4683 1.40728Z" fill="#58595B"/>
<path d="M35.4678 64.5605C51.8027 64.5605 65.0449 51.3184 65.0449 34.9834C65.0449 18.6484 51.8027 5.40625 35.4678 5.40625C19.1328 5.40625 5.89062 18.6484 5.89062 34.9834C5.89062 51.3184 19.1328 64.5605 35.4678 64.5605Z" fill="white"/>
<path d="M35.4684 64.9282C18.9693 64.9282 5.52734 51.5105 5.52734 34.9871C5.52734 18.4637 18.9693 5.07031 35.4684 5.07031C51.9676 5.07031 65.4095 18.488 65.4095 35.0114C65.4095 51.5348 51.9918 64.9525 35.4684 64.9525V64.9282ZM35.4684 5.74969C19.3575 5.74969 6.23098 18.8762 6.23098 34.9871C6.23098 51.098 19.3575 64.2246 35.4684 64.2246C51.5793 64.2246 64.7059 51.098 64.7059 34.9871C64.7059 18.8762 51.6036 5.74969 35.4684 5.74969Z" fill="#58595B"/>
<path d="M32.6055 7.86027V7.375H34.2554V13.5864H33.6245V7.83601H32.6055V7.86027Z" fill="#58595B"/>
<path d="M35.493 13.614V13.1287L37.5797 10.8237C37.7495 10.6296 37.9194 10.4598 38.0407 10.2899C38.162 10.1201 38.2833 9.97449 38.3804 9.82891C38.4774 9.68333 38.5259 9.53775 38.5745 9.39217C38.623 9.24659 38.623 9.07674 38.623 8.9069C38.623 8.66427 38.5502 8.47016 38.4532 8.30031C38.3561 8.13047 38.2348 8.03342 38.0892 7.96063C37.9436 7.88784 37.798 7.81505 37.6525 7.79078C37.5069 7.76652 37.3613 7.74226 37.2642 7.74226C37.0944 7.74226 36.9488 7.74226 36.8032 7.81505C36.6577 7.86357 36.5121 7.9121 36.3908 7.98489C36.2694 8.05768 36.1481 8.13047 36.0268 8.22752C35.9298 8.32458 35.8327 8.42163 35.7356 8.51869L35.4688 8.15473C35.4688 8.15473 35.6629 7.93636 35.8084 7.83931C35.9298 7.74226 36.0753 7.6452 36.2452 7.54815C36.415 7.45109 36.5849 7.40257 36.7547 7.35404C36.9488 7.30551 37.1429 7.28125 37.3613 7.28125C37.6282 7.28125 37.8708 7.30551 38.0892 7.3783C38.3076 7.45109 38.5259 7.54815 38.6958 7.66947C38.8656 7.81505 39.0112 7.98489 39.1083 8.179C39.2053 8.3731 39.2538 8.61574 39.2538 8.9069C39.2538 9.12527 39.2296 9.31938 39.1568 9.51349C39.084 9.70759 39.0112 9.87744 38.9142 10.0473C38.8171 10.2171 38.6715 10.387 38.5259 10.5568C38.3804 10.7267 38.2348 10.8965 38.0649 11.0906L36.2209 13.1287H39.2053V13.614H35.4688H35.493Z" fill="#58595B"/>
<path d="M37.5793 60.9492C37.5793 61.2647 37.5307 61.5315 37.4094 61.7742C37.3124 62.0168 37.1425 62.2352 36.9484 62.4293C36.7543 62.5991 36.5359 62.7447 36.269 62.8418C36.0021 62.9388 35.711 62.9873 35.4198 62.9873C35.0559 62.9873 34.7404 62.9146 34.4735 62.7932C34.2066 62.6719 34.0125 62.5021 33.8427 62.2837C33.6728 62.0653 33.5515 61.847 33.4787 61.5801C33.4059 61.3132 33.3574 61.0463 33.3574 60.7794C33.3574 60.4397 33.4302 60.1 33.5515 59.7361C33.6728 59.3721 33.8427 59.0081 34.0611 58.6442C34.2552 58.2802 34.4978 57.9406 34.7647 57.6009C35.0316 57.2612 35.2985 56.97 35.5897 56.7031H36.3176C36.1235 56.873 35.9051 57.0428 35.711 57.2612C35.5169 57.4796 35.3228 57.7222 35.1287 57.9406C34.9588 58.1832 34.789 58.4258 34.6434 58.6685C34.4978 58.9111 34.3765 59.1537 34.2794 59.3721C34.4735 59.178 34.6676 59.0324 34.9103 58.9596C35.1529 58.8868 35.3713 58.8383 35.6139 58.8383C35.9051 58.8383 36.172 58.8868 36.4146 58.9839C36.6572 59.0809 36.8514 59.2265 37.0212 59.4206C37.191 59.6147 37.3366 59.8331 37.4337 60.1C37.5307 60.3669 37.5793 60.6581 37.5793 60.9735V60.9492ZM36.9484 60.9735C36.9484 60.6823 36.8999 60.4397 36.8271 60.2456C36.7543 60.0515 36.6572 59.8574 36.5117 59.7361C36.3661 59.5905 36.2205 59.4934 36.0264 59.4449C35.8323 59.3721 35.6382 59.3478 35.4198 59.3478C35.2257 59.3478 35.0559 59.3721 34.886 59.4449C34.7162 59.5177 34.5706 59.6147 34.425 59.7361C34.3037 59.8816 34.1824 60.0515 34.1096 60.2456C34.0368 60.4397 33.9883 60.7066 33.9883 60.9735C33.9883 61.2404 34.0368 61.4588 34.1096 61.6529C34.1824 61.847 34.3037 62.0168 34.425 62.1381C34.5463 62.2595 34.7162 62.3565 34.886 62.4293C35.0559 62.5021 35.2257 62.5263 35.4198 62.5263C35.6139 62.5263 35.8323 62.5021 36.0021 62.4293C36.172 62.3565 36.3418 62.2594 36.4874 62.1139C36.633 61.9683 36.73 61.8227 36.8271 61.6286C36.8999 61.4345 36.9484 61.2161 36.9484 60.9735Z" fill="#58595B"/>
<path d="M62.0123 35.3253C62.1579 35.3738 62.3035 35.4466 62.4491 35.5194C62.5947 35.5922 62.716 35.7135 62.813 35.8348C62.9101 35.9561 63.0072 36.126 63.0557 36.2958C63.1042 36.4657 63.1527 36.6598 63.1527 36.8782C63.1527 37.1693 63.0799 37.4362 62.9586 37.6546C62.8373 37.873 62.6675 38.0671 62.4491 38.2126C62.2307 38.3582 62.0123 38.4795 61.7212 38.5523C61.4543 38.6251 61.1631 38.6736 60.8962 38.6736C60.508 38.6736 60.1441 38.6251 59.8529 38.5281C59.5617 38.431 59.2948 38.3097 59.125 38.1399L59.2948 37.7759C59.7558 38.0671 60.2411 38.2126 60.7506 38.2126C61.2844 38.2126 61.7212 38.0913 62.0366 37.873C62.352 37.6546 62.4976 37.3149 62.4976 36.9024C62.4976 36.684 62.4734 36.4899 62.4006 36.3444C62.3278 36.1988 62.2307 36.0532 62.1094 35.9561C61.9881 35.8591 61.8425 35.7863 61.6727 35.7378C61.5028 35.6892 61.333 35.665 61.1389 35.665H60.2169V35.1554H61.1389C61.2844 35.1554 61.43 35.1069 61.5756 35.0341C61.7212 34.9613 61.8425 34.8643 61.9638 34.743C62.0851 34.6217 62.1822 34.4761 62.255 34.3305C62.3278 34.1849 62.3763 34.0151 62.3763 33.8452C62.3763 33.457 62.255 33.1658 61.9881 32.9717C61.7212 32.7776 61.3572 32.6806 60.8962 32.6806C60.6536 32.6806 60.411 32.7291 60.1441 32.8504C59.8772 32.9717 59.6345 33.1173 59.4404 33.3114L59.2463 32.9475C59.4404 32.7534 59.6831 32.5593 59.9742 32.4137C60.2654 32.2681 60.6051 32.1953 61.0175 32.1953C61.2359 32.1953 61.4786 32.2196 61.6969 32.2681C61.9396 32.3166 62.1579 32.4137 62.352 32.535C62.5461 32.6563 62.716 32.8262 62.8373 33.0445C62.9586 33.2629 63.0314 33.5298 63.0314 33.8452C63.0314 34.1606 62.9344 34.4518 62.7403 34.6944C62.5461 34.9371 62.3278 35.1312 62.0366 35.2768L62.0123 35.3253Z" fill="#58595B"/>
<path d="M7.71064 34.2873C7.71064 33.9719 7.75916 33.705 7.85622 33.4623C7.95327 33.2197 8.09885 33.0013 8.29296 32.8315C8.48707 32.6617 8.70544 32.5161 8.97233 32.419C9.23923 32.322 9.50613 32.2734 9.82155 32.2734C10.1855 32.2734 10.5009 32.3462 10.7678 32.4675C11.0347 32.5889 11.2531 32.7587 11.3987 32.9771C11.5685 33.1712 11.6898 33.4138 11.7626 33.6807C11.8354 33.9476 11.8839 34.2145 11.8839 34.5057C11.8839 34.8454 11.8112 35.185 11.6898 35.549C11.5685 35.913 11.3987 36.2769 11.1803 36.6409C10.9619 37.0048 10.7436 37.3445 10.4767 37.6842C10.2098 38.0239 9.94287 38.315 9.65171 38.5819H8.92381C9.11792 38.4121 9.33629 38.218 9.53039 37.9996C9.7245 37.7812 9.91861 37.5386 10.1127 37.2717C10.2826 37.0291 10.4524 36.7622 10.598 36.5195C10.7436 36.2769 10.8649 36.0343 10.9619 35.8159C10.7678 36.01 10.5737 36.1556 10.3311 36.2284C10.0885 36.3012 9.87008 36.3497 9.62745 36.3497C9.33629 36.3497 9.06939 36.3012 8.82675 36.2041C8.58412 36.1071 8.39001 35.9615 8.22017 35.7916C8.05032 35.6218 7.90474 35.4034 7.80769 35.1365C7.71064 34.8696 7.66211 34.6027 7.66211 34.2873H7.71064ZM8.31722 34.2873C8.31722 34.5542 8.36575 34.7968 8.43854 34.9909C8.51133 35.185 8.60838 35.3549 8.75396 35.5005C8.89954 35.6218 9.04512 35.7188 9.23923 35.7916C9.43334 35.8644 9.62745 35.8887 9.84582 35.8887C10.0399 35.8887 10.2098 35.8644 10.3796 35.7916C10.5495 35.7188 10.695 35.6461 10.8406 35.5005C10.9862 35.3549 11.0833 35.2093 11.156 35.0152C11.2288 34.8211 11.2774 34.5785 11.2774 34.3116C11.2774 34.0447 11.2288 33.8263 11.156 33.6322C11.0833 33.4381 10.9619 33.2682 10.8406 33.1469C10.695 33.0256 10.5495 32.9043 10.3796 32.8558C10.2098 32.783 10.0399 32.7587 9.84582 32.7587C9.65171 32.7587 9.43334 32.783 9.2635 32.8558C9.09365 32.9285 8.92381 33.0256 8.77823 33.1469C8.63265 33.2682 8.53559 33.4381 8.4628 33.6322C8.39001 33.8263 8.34149 34.0447 8.34149 34.2873H8.31722Z" fill="#58595B"/>
<path d="M49.2615 10.6546L47.9023 13.0078L48.4906 13.3476L49.8498 10.9944L49.2615 10.6546Z" fill="#58595B"/>
<path d="M22.4529 56.9906L21.0938 59.3438L21.682 59.6835L23.0412 57.3304L22.4529 56.9906Z" fill="#58595B"/>
<path d="M57.4011 22.2709L57.0371 21.6885L59.3664 20.2812L59.7061 20.8636L57.4011 22.2709Z" fill="#58595B"/>
<path d="M11.5925 50.0521L11.2285 49.4698L13.5578 48.0625L13.9218 48.6448L11.5925 50.0521Z" fill="#58595B"/>
<path d="M57.5578 47.7819L57.2129 48.3672L59.5541 49.7468L59.899 49.1615L57.5578 47.7819Z" fill="#58595B"/>
<path d="M13.4121 22.5677L11.0586 21.1847L11.3983 20.5781L13.7518 21.9611L13.4121 22.5677Z" fill="#58595B"/>
<path d="M48.781 56.8321L48.1973 57.1797L49.5875 59.5146L50.1713 59.1671L48.781 56.8321Z" fill="#58595B"/>
<path d="M22.1721 13.5136L20.7891 11.16L21.3714 10.8203L22.7544 13.1496L22.1721 13.5136Z" fill="#58595B"/>
<path d="M36.561 13.9245C36.561 13.3751 36.1211 12.9297 35.5784 12.9297C35.0357 12.9297 34.5957 13.3751 34.5957 13.9245V32.4132C34.5957 32.9626 35.0357 33.408 35.5784 33.408C36.1211 33.408 36.561 32.9626 36.561 32.4132V13.9245Z" fill="#EF3D47"/>
<path d="M33.9997 22.0233L34.0034 32.4566C34.0037 33.2874 34.6774 33.9607 35.5082 33.9604C36.3391 33.9601 37.0123 33.2864 37.012 32.4556L37.0084 22.0223C37.0081 21.1915 36.3344 20.5182 35.5035 20.5185C34.6727 20.5188 33.9994 21.1925 33.9997 22.0233Z" fill="#08B0A8"/>
<path d="M35.4687 39.4022C37.9075 39.4022 39.8846 37.4251 39.8846 34.9863C39.8846 32.5474 37.9075 30.5703 35.4687 30.5703C33.0298 30.5703 31.0527 32.5474 31.0527 34.9863C31.0527 37.4251 33.0298 39.4022 35.4687 39.4022Z" fill="#216EB5"/>
</g>
<path fill-rule="evenodd" clip-rule="evenodd" d="M85.585 30.6493C85.7787 30.4525 86.0953 30.4499 86.2921 30.6436L90.3727 34.6587C90.4683 34.7529 90.5222 34.8816 90.522 35.0158C90.5218 35.1501 90.4676 35.2786 90.3716 35.3725L86.2911 39.365C86.0937 39.5581 85.7771 39.5546 85.584 39.3572C85.3909 39.1599 85.3944 38.8433 85.5917 38.6502L89.308 35.0141L85.5907 31.3564C85.3939 31.1627 85.3913 30.8462 85.585 30.6493Z" fill="#58595B"/>
<path d="M89.9805 35H80.4805" stroke="#58595B" stroke-width="1.1" stroke-linecap="round" stroke-linejoin="round"/>
<g clip-path="url(#clip1_332_168)">
<path d="M135.51 69.2967C154.458 69.2967 169.818 53.9362 169.818 34.9882C169.818 16.0401 154.458 0.679688 135.51 0.679688C116.562 0.679688 101.201 16.0401 101.201 34.9882C101.201 53.9362 116.562 69.2967 135.51 69.2967Z" fill="#F9EA72"/>
<path d="M135.509 70C116.22 70 100.521 54.3016 100.521 34.9879C100.521 15.6742 116.22 0 135.509 0C154.799 0 170.497 15.6984 170.497 34.9879C170.497 54.2773 154.799 69.9757 135.509 69.9757V70ZM135.509 1.40728C116.996 1.40728 101.929 16.4749 101.929 34.9879C101.929 53.5009 116.996 68.5927 135.534 68.5927C154.071 68.5927 169.138 53.5251 169.138 34.9879C169.138 16.4506 154.047 1.40728 135.509 1.40728Z" fill="#58595B"/>
<path d="M135.509 64.5605C151.844 64.5605 165.086 51.3184 165.086 34.9834C165.086 18.6484 151.844 5.40625 135.509 5.40625C119.174 5.40625 105.932 18.6484 105.932 34.9834C105.932 51.3184 119.174 64.5605 135.509 64.5605Z" fill="white"/>
<path d="M135.509 64.9282C119.01 64.9282 105.568 51.5105 105.568 34.9871C105.568 18.4637 119.01 5.07031 135.509 5.07031C152.009 5.07031 165.451 18.488 165.451 35.0114C165.451 51.5348 152.033 64.9525 135.509 64.9525V64.9282ZM135.509 5.74969C119.399 5.74969 106.272 18.8762 106.272 34.9871C106.272 51.098 119.399 64.2246 135.509 64.2246C151.62 64.2246 164.747 51.098 164.747 34.9871C164.747 18.8762 151.645 5.74969 135.509 5.74969Z" fill="#58595B"/>
<path d="M132.646 7.86027V7.375H134.296V13.5864H133.666V7.83601H132.646V7.86027Z" fill="#58595B"/>
<path d="M135.534 13.614V13.1287L137.621 10.8237C137.791 10.6296 137.96 10.4598 138.082 10.2899C138.203 10.1201 138.324 9.97449 138.421 9.82891C138.518 9.68333 138.567 9.53775 138.615 9.39217C138.664 9.24659 138.664 9.07674 138.664 8.9069C138.664 8.66427 138.591 8.47016 138.494 8.30031C138.397 8.13047 138.276 8.03342 138.13 7.96063C137.985 7.88784 137.839 7.81505 137.693 7.79078C137.548 7.76652 137.402 7.74226 137.305 7.74226C137.135 7.74226 136.99 7.74226 136.844 7.81505C136.699 7.86357 136.553 7.9121 136.432 7.98489C136.31 8.05768 136.189 8.13047 136.068 8.22752C135.971 8.32458 135.874 8.42163 135.777 8.51869L135.51 8.15473C135.51 8.15473 135.704 7.93636 135.849 7.83931C135.971 7.74226 136.116 7.6452 136.286 7.54815C136.456 7.45109 136.626 7.40257 136.796 7.35404C136.99 7.30551 137.184 7.28125 137.402 7.28125C137.669 7.28125 137.912 7.30551 138.13 7.3783C138.349 7.45109 138.567 7.54815 138.737 7.66947C138.907 7.81505 139.052 7.98489 139.149 8.179C139.246 8.3731 139.295 8.61574 139.295 8.9069C139.295 9.12527 139.271 9.31938 139.198 9.51349C139.125 9.70759 139.052 9.87744 138.955 10.0473C138.858 10.2171 138.713 10.387 138.567 10.5568C138.421 10.7267 138.276 10.8965 138.106 11.0906L136.262 13.1287H139.246V13.614H135.51H135.534Z" fill="#58595B"/>
<path d="M137.62 60.9492C137.62 61.2647 137.572 61.5315 137.45 61.7742C137.353 62.0168 137.184 62.2352 136.989 62.4293C136.795 62.5991 136.577 62.7447 136.31 62.8418C136.043 62.9388 135.752 62.9873 135.461 62.9873C135.097 62.9873 134.781 62.9146 134.515 62.7932C134.248 62.6719 134.054 62.5021 133.884 62.2837C133.714 62.0653 133.593 61.847 133.52 61.5801C133.447 61.3132 133.398 61.0463 133.398 60.7794C133.398 60.4397 133.471 60.1 133.593 59.7361C133.714 59.3721 133.884 59.0081 134.102 58.6442C134.296 58.2802 134.539 57.9406 134.806 57.6009C135.073 57.2612 135.34 56.97 135.631 56.7031H136.359C136.164 56.873 135.946 57.0428 135.752 57.2612C135.558 57.4796 135.364 57.7222 135.17 57.9406C135 58.1832 134.83 58.4258 134.684 58.6685C134.539 58.9111 134.418 59.1537 134.32 59.3721C134.515 59.178 134.709 59.0324 134.951 58.9596C135.194 58.8868 135.412 58.8383 135.655 58.8383C135.946 58.8383 136.213 58.8868 136.456 58.9839C136.698 59.0809 136.892 59.2265 137.062 59.4206C137.232 59.6147 137.378 59.8331 137.475 60.1C137.572 60.3669 137.62 60.6581 137.62 60.9735V60.9492ZM136.989 60.9735C136.989 60.6823 136.941 60.4397 136.868 60.2456C136.795 60.0515 136.698 59.8574 136.553 59.7361C136.407 59.5905 136.262 59.4934 136.067 59.4449C135.873 59.3721 135.679 59.3478 135.461 59.3478C135.267 59.3478 135.097 59.3721 134.927 59.4449C134.757 59.5177 134.612 59.6147 134.466 59.7361C134.345 59.8816 134.223 60.0515 134.151 60.2456C134.078 60.4397 134.029 60.7066 134.029 60.9735C134.029 61.2404 134.078 61.4588 134.151 61.6529C134.223 61.847 134.345 62.0168 134.466 62.1381C134.587 62.2595 134.757 62.3565 134.927 62.4293C135.097 62.5021 135.267 62.5263 135.461 62.5263C135.655 62.5263 135.873 62.5021 136.043 62.4293C136.213 62.3565 136.383 62.2594 136.528 62.1139C136.674 61.9683 136.771 61.8227 136.868 61.6286C136.941 61.4345 136.989 61.2161 136.989 60.9735Z" fill="#58595B"/>
<path d="M162.053 35.3253C162.199 35.3738 162.345 35.4466 162.49 35.5194C162.636 35.5922 162.757 35.7135 162.854 35.8348C162.951 35.9561 163.048 36.126 163.097 36.2958C163.145 36.4657 163.194 36.6598 163.194 36.8782C163.194 37.1693 163.121 37.4362 163 37.6546C162.878 37.873 162.708 38.0671 162.49 38.2126C162.272 38.3582 162.053 38.4795 161.762 38.5523C161.495 38.6251 161.204 38.6736 160.937 38.6736C160.549 38.6736 160.185 38.6251 159.894 38.5281C159.603 38.431 159.336 38.3097 159.166 38.1399L159.336 37.7759C159.797 38.0671 160.282 38.2126 160.792 38.2126C161.325 38.2126 161.762 38.0913 162.078 37.873C162.393 37.6546 162.539 37.3149 162.539 36.9024C162.539 36.684 162.514 36.4899 162.442 36.3444C162.369 36.1988 162.272 36.0532 162.15 35.9561C162.029 35.8591 161.884 35.7863 161.714 35.7378C161.544 35.6892 161.374 35.665 161.18 35.665H160.258V35.1554H161.18C161.325 35.1554 161.471 35.1069 161.617 35.0341C161.762 34.9613 161.884 34.8643 162.005 34.743C162.126 34.6217 162.223 34.4761 162.296 34.3305C162.369 34.1849 162.417 34.0151 162.417 33.8452C162.417 33.457 162.296 33.1658 162.029 32.9717C161.762 32.7776 161.398 32.6806 160.937 32.6806C160.695 32.6806 160.452 32.7291 160.185 32.8504C159.918 32.9717 159.676 33.1173 159.481 33.3114L159.287 32.9475C159.481 32.7534 159.724 32.5593 160.015 32.4137C160.306 32.2681 160.646 32.1953 161.059 32.1953C161.277 32.1953 161.52 32.2196 161.738 32.2681C161.981 32.3166 162.199 32.4137 162.393 32.535C162.587 32.6563 162.757 32.8262 162.878 33.0445C163 33.2629 163.072 33.5298 163.072 33.8452C163.072 34.1606 162.975 34.4518 162.781 34.6944C162.587 34.9371 162.369 35.1312 162.078 35.2768L162.053 35.3253Z" fill="#58595B"/>
<path d="M107.752 34.2873C107.752 33.9719 107.8 33.705 107.897 33.4623C107.994 33.2197 108.14 33.0013 108.334 32.8315C108.528 32.6617 108.746 32.5161 109.013 32.419C109.28 32.322 109.547 32.2734 109.863 32.2734C110.227 32.2734 110.542 32.3462 110.809 32.4675C111.076 32.5889 111.294 32.7587 111.44 32.9771C111.61 33.1712 111.731 33.4138 111.804 33.6807C111.876 33.9476 111.925 34.2145 111.925 34.5057C111.925 34.8454 111.852 35.185 111.731 35.549C111.61 35.913 111.44 36.2769 111.221 36.6409C111.003 37.0048 110.785 37.3445 110.518 37.6842C110.251 38.0239 109.984 38.315 109.693 38.5819H108.965C109.159 38.4121 109.377 38.218 109.571 37.9996C109.766 37.7812 109.96 37.5386 110.154 37.2717C110.324 37.0291 110.493 36.7622 110.639 36.5195C110.785 36.2769 110.906 36.0343 111.003 35.8159C110.809 36.01 110.615 36.1556 110.372 36.2284C110.129 36.3012 109.911 36.3497 109.668 36.3497C109.377 36.3497 109.11 36.3012 108.868 36.2041C108.625 36.1071 108.431 35.9615 108.261 35.7916C108.091 35.6218 107.946 35.4034 107.849 35.1365C107.752 34.8696 107.703 34.6027 107.703 34.2873H107.752ZM108.358 34.2873C108.358 34.5542 108.407 34.7968 108.48 34.9909C108.552 35.185 108.649 35.3549 108.795 35.5005C108.941 35.6218 109.086 35.7188 109.28 35.7916C109.474 35.8644 109.668 35.8887 109.887 35.8887C110.081 35.8887 110.251 35.8644 110.421 35.7916C110.59 35.7188 110.736 35.6461 110.882 35.5005C111.027 35.3549 111.124 35.2093 111.197 35.0152C111.27 34.8211 111.318 34.5785 111.318 34.3116C111.318 34.0447 111.27 33.8263 111.197 33.6322C111.124 33.4381 111.003 33.2682 110.882 33.1469C110.736 33.0256 110.59 32.9043 110.421 32.8558C110.251 32.783 110.081 32.7587 109.887 32.7587C109.693 32.7587 109.474 32.783 109.305 32.8558C109.135 32.9285 108.965 33.0256 108.819 33.1469C108.674 33.2682 108.577 33.4381 108.504 33.6322C108.431 33.8263 108.383 34.0447 108.383 34.2873H108.358Z" fill="#58595B"/>
<path d="M149.303 10.6546L147.943 13.0078L148.532 13.3476L149.891 10.9944L149.303 10.6546Z" fill="#58595B"/>
<path d="M122.494 56.9906L121.135 59.3438L121.723 59.6835L123.082 57.3304L122.494 56.9906Z" fill="#58595B"/>
<path d="M157.442 22.2709L157.078 21.6885L159.407 20.2812L159.747 20.8636L157.442 22.2709Z" fill="#58595B"/>
<path d="M111.633 50.0521L111.27 49.4698L113.599 48.0625L113.963 48.6448L111.633 50.0521Z" fill="#58595B"/>
<path d="M157.599 47.7819L157.254 48.3672L159.595 49.7468L159.94 49.1615L157.599 47.7819Z" fill="#58595B"/>
<path d="M113.453 22.5677L111.1 21.1847L111.439 20.5781L113.793 21.9611L113.453 22.5677Z" fill="#58595B"/>
<path d="M148.822 56.8321L148.238 57.1797L149.629 59.5146L150.212 59.1671L148.822 56.8321Z" fill="#58595B"/>
<path d="M122.213 13.5136L120.83 11.16L121.412 10.8203L122.795 13.1496L122.213 13.5136Z" fill="#58595B"/>
<path d="M136.602 14.4636C136.602 13.9141 136.162 13.4688 135.619 13.4688C135.077 13.4688 134.637 13.9141 134.637 14.4636V32.9523C134.637 33.5017 135.077 33.9471 135.619 33.9471C136.162 33.9471 136.602 33.5017 136.602 32.9523V14.4636Z" fill="#EF3D47"/>
<path d="M144.96 27.7481L136.006 33.1029C135.293 33.5293 135.061 34.453 135.487 35.1661C135.913 35.8791 136.837 36.1115 137.55 35.6851L146.504 30.3303C147.217 29.9039 147.45 28.9802 147.023 28.2671C146.597 27.5541 145.673 27.3217 144.96 27.7481Z" fill="#08B0A8"/>
<path d="M135.51 39.41C137.949 39.41 139.926 37.4329 139.926 34.9941C139.926 32.5552 137.949 30.5781 135.51 30.5781C133.071 30.5781 131.094 32.5552 131.094 34.9941C131.094 37.4329 133.071 39.41 135.51 39.41Z" fill="#216EB5"/>
</g>
<defs>
<clipPath id="clip0_332_168">
<rect width="70" height="70" fill="white" transform="translate(0.480469)"/>
</clipPath>
<clipPath id="clip1_332_168">
<rect width="70" height="70" fill="white" transform="translate(100.521)"/>
</clipPath>
</defs>
</svg>
