<svg width="928" height="294" viewBox="0 0 928 294" fill="none" xmlns="http://www.w3.org/2000/svg">
<rect x="2" y="1" width="925" height="293" rx="28" fill="#F7F9FA"/>
<path d="M38.328 90.448C38.328 86.32 39.96 80.88 42.232 77.264H45.496C42.904 80.848 41.08 86.288 41.08 90.448C41.08 94.608 42.904 100.048 45.496 103.632H42.232C39.96 100.016 38.328 94.576 38.328 90.448ZM57.2905 78.864V102.064L54.2505 102.032V82.16L50.3465 84.496L48.9705 82L54.2825 78.864H57.2905ZM69.6848 90.448C69.6848 94.576 68.0848 99.984 65.8128 103.632H62.5488C65.1088 100.08 66.9328 94.608 66.9328 90.448C66.9328 86.288 65.1088 80.816 62.5488 77.264H65.8128C68.0848 80.912 69.6848 86.32 69.6848 90.448Z" fill="#231815"/>
<path d="M183.868 82.0933C183.868 82.0933 188.462 76.2629 187.205 74.0997C184.857 70.0205 181.581 75.1709 181.581 75.1709C181.581 75.1709 182.714 70.3706 179.068 70.0204C174.803 69.6083 175.977 75.5829 175.977 75.5829C175.977 75.5829 174.144 72.6781 171.033 73.8318C167.943 74.9855 170.229 82.2581 172.743 84.4213" fill="#E94A3F"/>
<path d="M141.634 145.219H137.019V162.751H141.634V145.219Z" fill="#FED61A"/>
<path d="M141.242 161.33C141.242 161.33 147.876 161.269 147.176 162.896C146.97 163.35 143.756 164.256 143.756 164.256C143.756 164.256 146.826 167.738 146.125 168.047C145.425 168.356 141.119 166.275 141.119 166.275C141.119 166.275 140.603 170.437 139.594 169.963C137.41 168.954 137.039 162.587 137.039 162.587L141.242 161.351V161.33Z" fill="#FED61A"/>
<path d="M157.064 145.219H152.449V162.751H157.064V145.219Z" fill="#FED61A"/>
<path d="M156.673 161.328C156.673 161.328 163.307 161.267 162.607 162.894C162.4 163.348 159.207 164.254 159.207 164.254C159.207 164.254 162.277 167.736 161.576 168.045C160.876 168.354 156.57 166.273 156.57 166.273C156.57 166.273 156.055 170.435 155.045 169.961C152.861 168.952 152.49 162.585 152.49 162.585L156.693 161.349L156.673 161.328Z" fill="#FED61A"/>
<path d="M146.248 139.244C146.433 139.636 146.639 151.853 154.324 152.141C162.029 152.429 162.029 142.808 162.029 142.808L146.248 139.244Z" fill="#CE8C44"/>
<path d="M186.546 110.194C186.546 110.194 188.277 121.072 183.085 130.879C177.894 140.685 162.978 147.525 148.845 147.031C134.712 146.557 124.617 137.307 119.796 128.571C114.996 119.816 114.419 98.3688 115.47 93.7539C115.47 93.7539 118.931 108.093 130.756 110.4C142.582 112.708 157.58 110.297 159.311 106.939C161.041 103.581 186.526 110.215 186.526 110.215" fill="#DC9D55"/>
<path d="M119.693 109.145C119.693 109.145 112.585 102.985 110.937 98.3702C109.309 93.7554 108.527 114.914 119.775 120.208" fill="#DC9D55"/>
<path d="M124.74 121.958C124.74 121.958 115.902 118.724 112.75 114.974C109.598 111.225 116.355 131.291 128.737 132.259" fill="#DC9D55"/>
<path d="M128.531 112.029C128.531 112.029 149.813 109.618 157.312 112.214C164.811 114.81 167.015 120.764 164.337 126.553C161.638 132.322 152.697 141.366 140.583 140.109C128.469 138.853 119.033 126.45 118.56 115.675C118.56 115.675 122.989 120.105 123.36 120.187C123.751 120.29 120.187 111.926 120.187 111.926C120.187 111.926 124.225 115.778 124.617 115.778C125.008 115.778 122.124 108.279 122.124 108.279C124.266 110.051 126.429 111.596 128.551 112.029" fill="#B76E2E"/>
<path d="M132.774 138.955C132.96 139.347 133.166 151.564 140.85 151.852C148.556 152.14 148.556 142.519 148.556 142.519L132.774 138.955Z" fill="#DC9D55"/>
<path d="M184.198 83.6197C184.301 83.2489 192.151 88.1318 192.151 88.1318C192.151 88.1318 183.847 89.0384 183.641 88.7499C183.456 88.4615 183.889 84.6705 184.177 83.6197" fill="#FED61A"/>
<path d="M184.816 104.425C183.086 100.676 182.736 96.3697 183.271 92.8056C185.187 83.6377 184.301 79.5998 180.572 78.0752C175.587 76.015 171.961 79.3319 169.695 83.5553C167.799 87.0988 166.46 90.9103 165.183 94.7217C164.029 98.1622 163.122 101.809 160.733 104.652C159.909 105.62 158.961 106.382 158.817 107.722C158.631 109.638 166.604 114.644 174.206 115.324C181.809 116.004 186.815 114.747 187.289 111.759C187.618 109.617 186.897 109.061 184.796 104.446" fill="#B76E2E"/>
<path d="M180.098 83.7837C180.098 84.7521 179.315 85.5556 178.326 85.5556C177.337 85.5556 176.554 84.7727 176.554 83.7837C176.554 82.7947 177.337 82.0117 178.326 82.0117C179.315 82.0117 180.098 82.7947 180.098 83.7837Z" fill="#4C4948"/>
<rect x="217.5" y="121.218" width="39" height="55" rx="4.5" fill="white" stroke="#D9D9D9"/>
<path d="M321.328 90.448C321.328 86.32 322.96 80.88 325.232 77.264H328.496C325.904 80.848 324.08 86.288 324.08 90.448C324.08 94.608 325.904 100.048 328.496 103.632H325.232C322.96 100.016 321.328 94.576 321.328 90.448ZM332.547 99.408C337.187 94.928 343.747 90.032 343.747 86.032C343.747 83.28 342.019 81.328 339.523 81.328C337.667 81.328 335.779 82.704 334.915 84.656L332.227 83.504C333.475 80.592 336.515 78.576 339.523 78.576C343.811 78.576 346.787 81.648 346.787 86.032C346.787 90.928 341.187 95.536 336.771 99.408H347.171V102.064H332.867L332.547 99.408ZM358.029 90.448C358.029 94.576 356.429 99.984 354.157 103.632H350.893C353.453 100.08 355.277 94.608 355.277 90.448C355.277 86.288 353.453 80.816 350.893 77.264H354.157C356.429 80.912 358.029 86.32 358.029 90.448Z" fill="#231815"/>
<path d="M441.258 145.324H436.903C421.039 145.324 408.041 132.348 408.041 116.461C408.041 100.575 421.017 87.6211 436.903 87.6211H441.258C457.122 87.6211 470.098 100.597 470.098 116.461C470.098 132.326 457.122 145.324 441.258 145.324Z" fill="#C6B3D6"/>
<path d="M475.787 121.549C469.099 121.549 463.655 116.106 463.655 109.418C463.655 102.73 469.099 97.3086 475.787 97.3086C482.475 97.3086 487.896 102.752 487.896 109.418C487.896 116.084 482.453 121.549 475.787 121.549ZM475.787 102.197C471.81 102.197 468.566 105.441 468.566 109.418C468.566 113.395 471.81 116.639 475.787 116.639C479.764 116.639 483.008 113.395 483.008 109.418C483.008 105.441 479.764 102.197 475.787 102.197Z" fill="#C6B3D6"/>
<path d="M417.174 106.596C417.174 106.596 407.331 114.328 405.22 107.574C402.243 98.0862 395.688 98.9971 396.133 98.9082L392 101.752C392 101.752 394.933 103.041 396.777 106.596C398.621 110.151 393.444 117.572 404.443 124.682C415.441 131.792 423.04 128.237 424.373 126.615" fill="#C6B3D6"/>
<path d="M463.011 145.39C463.011 152.611 456.768 158.477 449.058 158.477C441.348 158.477 435.104 152.611 435.104 145.39C435.104 142.168 436.349 139.213 438.415 136.947C440.97 134.103 456.746 133.925 459.279 136.48C461.612 138.813 463.034 141.946 463.034 145.412" fill="#EFD7A3"/>
<path d="M465.189 140.701C465.189 145.1 457.901 148.678 448.903 148.678C439.904 148.678 432.616 145.1 432.616 140.701C432.616 136.302 439.904 132.725 448.903 132.725C457.901 132.725 465.189 136.302 465.189 140.701Z" fill="#EFD7A3"/>
<path d="M462.523 141.191C462.523 144.501 456.591 147.19 449.303 147.19C442.015 147.19 436.083 144.501 436.083 141.191C436.083 137.88 442.015 135.191 449.303 135.191C456.591 135.191 462.523 137.88 462.523 141.191Z" fill="#D4D365"/>
<path d="M427.218 149.677C427.218 156.898 420.974 162.764 413.264 162.764C405.554 162.764 399.311 156.898 399.311 149.677C399.311 146.455 400.555 143.5 402.621 141.234C405.176 138.39 420.952 138.212 423.485 140.767C425.818 143.1 427.24 146.233 427.24 149.699" fill="#EFD7A3"/>
<path d="M429.394 145.014C429.394 149.413 422.106 152.99 413.107 152.99C404.108 152.99 396.82 149.413 396.82 145.014C396.82 140.614 404.108 137.037 413.107 137.037C422.106 137.037 429.394 140.614 429.394 145.014Z" fill="#EFD7A3"/>
<path d="M426.728 145.499C426.728 148.81 420.795 151.498 413.507 151.498C406.22 151.498 400.287 148.81 400.287 145.499C400.287 142.189 406.22 139.5 413.507 139.5C420.795 139.5 426.728 142.189 426.728 145.499Z" fill="#D4D365"/>
<path d="M439.437 104.042C429.327 104.042 418.596 101.153 418.596 95.7765C418.596 90.3995 429.327 87.5332 439.437 87.5332C449.547 87.5332 460.278 90.4217 460.278 95.7765C460.278 101.131 449.547 104.042 439.437 104.042ZM439.437 89.5107C428.328 89.5107 420.595 92.7991 420.595 95.7765C420.595 98.7538 428.328 102.042 439.437 102.042C450.547 102.042 458.279 98.7316 458.279 95.7765C458.279 92.8214 450.547 89.5107 439.437 89.5107Z" fill="white"/>
<path d="M439.548 93.2643C435.46 93.2643 432.127 89.9314 432.127 85.8431V84.4212C432.127 80.3329 435.46 77 439.548 77C443.636 77 446.969 80.3329 446.969 84.4212V85.8431C446.969 89.9314 443.636 93.2643 439.548 93.2643ZM439.548 82.6658C438.593 82.6658 437.793 83.4658 437.793 84.4212V85.8431C437.793 86.7985 438.593 87.5985 439.548 87.5985C440.503 87.5985 441.303 86.7985 441.303 85.8431V84.4212C441.303 83.4658 440.503 82.6658 439.548 82.6658Z" fill="#C6B3D6"/>
<path d="M405.864 143.946C405.864 144.479 405.198 144.901 404.375 144.901C403.553 144.901 402.887 144.479 402.887 143.946C402.887 143.412 403.553 142.99 404.375 142.99C405.198 142.99 405.864 143.412 405.864 143.946Z" fill="white"/>
<path d="M442.681 139.213C442.681 139.747 442.014 140.169 441.192 140.169C440.37 140.169 439.703 139.747 439.703 139.213C439.703 138.68 440.37 138.258 441.192 138.258C442.014 138.258 442.681 138.68 442.681 139.213Z" fill="white"/>
<rect x="508.5" y="121.219" width="69" height="56" rx="4.5" fill="white" stroke="#D9D9D9"/>
<path d="M642.328 90.448C642.328 86.32 643.96 80.88 646.232 77.264H649.496C646.904 80.848 645.08 86.288 645.08 90.448C645.08 94.608 646.904 100.048 649.496 103.632H646.232C643.96 100.016 642.328 94.576 642.328 90.448ZM665.355 90.064C667.435 91.28 668.683 93.552 668.683 95.504C668.683 99.44 665.483 102.256 660.907 102.256C656.395 102.256 653.195 99.408 653.195 95.376H656.235C656.235 97.84 658.155 99.568 660.907 99.568C663.723 99.568 665.707 97.84 665.707 95.376C665.707 93.008 663.755 91.344 660.97 91.344H659.307V88.752H661.003C663.563 88.752 665.355 87.216 665.355 85.072C665.355 82.864 663.627 81.328 661.131 81.328C658.635 81.328 656.907 82.896 656.907 85.104H653.867C653.867 81.296 656.875 78.64 661.131 78.64C665.355 78.64 668.331 81.264 668.331 84.976C668.331 86.736 667.243 88.848 665.355 90.064ZM679.529 90.448C679.529 94.576 677.929 99.984 675.657 103.632H672.393C674.953 100.08 676.777 94.608 676.777 90.448C676.777 86.288 674.953 80.816 672.393 77.264H675.657C677.929 80.912 679.529 86.32 679.529 90.448Z" fill="#231815"/>
<path d="M756.941 124.262H720.169V150.196H756.941V124.262Z" fill="#FBDACF"/>
<path d="M741.925 140.57H734.257C721.182 140.57 712.798 129.515 712.798 117.526V113.594C712.798 101.627 722.594 98.3687 734.583 98.3687H741.599C753.566 98.3687 763.384 101.627 763.384 113.594V117.526C763.384 129.493 755.022 140.57 741.925 140.57Z" fill="#FBDACF"/>
<path d="M754.87 121.695L754.37 121.652C751.373 121.434 749.092 118.785 749.331 115.787L751.894 81.8826C752.111 78.8852 754.761 76.6047 757.758 76.8219L758.258 76.8653C761.255 77.1042 763.536 79.7323 763.297 82.7514L760.734 116.656C760.517 119.653 757.867 121.934 754.87 121.717" fill="#FBDACF"/>
<path d="M742.836 114.961H742.336C739.317 114.874 736.928 112.355 736.993 109.336L737.862 75.3444C737.949 72.3254 740.468 69.9361 743.488 70.0013H743.987C747.006 70.0882 749.395 72.6295 749.33 75.6268L748.461 109.618C748.374 112.637 745.855 115.027 742.836 114.961Z" fill="#FBDACF"/>
<path d="M732.216 117.222H731.717C728.719 117.439 726.091 115.137 725.917 112.14L723.789 78.2132C723.594 75.1942 725.917 72.5879 728.915 72.4141H729.414C732.434 72.1969 735.04 74.4993 735.214 77.5183L737.342 111.445C737.538 114.442 735.214 117.07 732.216 117.244" fill="#FBDACF"/>
<path d="M720.031 124.651L719.531 124.694C716.534 124.933 713.884 122.653 713.645 119.655L711.017 85.7509C710.778 82.7535 713.059 80.1037 716.056 79.8647L716.556 79.8214C719.553 79.5825 722.203 81.8631 722.442 84.8604L725.07 118.765C725.309 121.762 723.028 124.412 720.031 124.651Z" fill="#FBDACF"/>
<path d="M753.61 104.233L742.012 99.4977C738.862 98.4335 735.452 100.236 734.584 103.451C733.802 106.253 735.213 109.163 737.863 110.314L747.594 114.506C747.594 114.506 739.405 115.809 738.145 124.258" stroke="#F2A098" stroke-width="2.55518" stroke-linecap="round" stroke-linejoin="round"/>
<path d="M760.343 143.632H715.687V170H760.343V143.632Z" fill="#76CCF3"/>
<rect x="785.884" y="121.218" width="39" height="55" rx="4.5" fill="white" stroke="#D9D9D9"/>
<path d="M927 30C927 13.9754 914.798 1 899.77 1H28.2296C13.1832 1 1 13.9958 1 30" stroke="#C9CACA" stroke-width="1.44754" stroke-linecap="round"/>
</svg>
