<svg width="480" height="460" viewBox="0 0 480 460" fill="none" xmlns="http://www.w3.org/2000/svg">
<g clip-path="url(#clip0_1228_3779)">
<path d="M375.607 251.828C375.607 311.707 316.235 360.293 243.022 360.293C169.809 360.293 110.402 311.742 110.402 251.828C110.402 191.914 169.774 143.398 243.022 143.398C316.27 143.398 375.607 191.949 375.607 251.828Z" fill="#F5A623"/>
<path d="M321.082 267.203C318.518 258.829 311.457 239.585 301.831 231.845C292.205 224.14 269.756 212.566 240.246 209.364C210.736 206.162 198.545 192.019 190.817 172.74C186.39 161.693 186.004 134.638 186.46 113.529C139.42 130.381 106.678 167.603 106.678 210.842C106.678 269.912 167.7 317.794 243.021 317.794C272.321 317.794 299.477 310.511 321.715 298.162C322.347 285.884 322.523 271.847 321.082 267.203Z" fill="#E94A3F"/>
<path d="M379.33 210.843C379.33 151.773 318.307 103.891 242.986 103.891C222.786 103.891 203.675 107.374 186.425 113.53C185.969 134.639 186.39 161.694 190.782 172.706C198.475 191.985 210.666 206.128 240.211 209.33C269.721 212.531 292.17 224.106 301.796 231.811C311.422 239.516 318.483 258.795 321.047 267.168C322.488 271.812 322.312 285.85 321.68 298.128C356.53 278.743 379.33 246.869 379.33 210.808" fill="#FEF3EE"/>
<path d="M187.549 154.482C186.25 141.781 186.179 125.563 186.46 111.842C139.42 128.694 106.678 165.916 106.678 209.154C106.678 220.412 108.926 231.283 113.036 241.486C116.831 203.384 146.13 170.947 187.549 154.482Z" fill="#D64223"/>
<path d="M192.327 168.871C192.186 161.413 192.221 153.814 192.362 146.883C190.711 147.481 189.13 148.149 187.514 148.783C188.216 155.608 189.27 161.483 190.781 165.318C191.273 166.514 191.765 167.71 192.291 168.871" fill="#E94A3F"/>
<path d="M192.362 152.581C209.577 146.389 228.723 142.941 248.923 142.941C309.841 142.941 361.378 174.288 378.873 217.526C379.154 214.747 379.33 211.968 379.33 209.153C379.33 150.083 318.307 102.201 243.021 102.201C222.821 102.201 203.675 105.684 186.46 111.841C186.004 132.95 186.425 160.005 190.817 171.052C191.309 172.248 191.8 173.444 192.327 174.605C192.187 167.146 192.222 159.547 192.362 152.581Z" fill="#F5A623"/>
<path d="M378.486 222.417C376.062 222.417 373.673 221.221 372.268 219.004C370.089 215.557 371.108 211.018 374.551 208.837L407.926 187.693L380.875 137.629L354.491 154.094C351.048 156.24 346.517 155.185 344.374 151.737C342.231 148.289 343.285 143.751 346.727 141.605L379.715 120.988C381.437 119.898 383.545 119.581 385.477 120.109C387.444 120.637 389.095 121.938 390.079 123.733L424.121 186.743C425.948 190.156 424.859 194.377 421.592 196.453L382.42 221.291C381.191 222.065 379.856 222.417 378.486 222.417Z" fill="#F5A623"/>
<path d="M95.5061 304.883C92.6956 304.883 90.0608 303.264 88.8312 300.626L55.7026 229.735C54.7892 227.765 54.7892 225.443 55.7026 223.473C56.6512 221.502 58.4077 220.025 60.5156 219.497L101.97 208.872C105.905 207.852 109.91 210.244 110.929 214.185C111.947 218.125 109.558 222.136 105.624 223.156L72.7763 231.564L99.6516 289.086L134.291 281.417C138.261 280.537 142.16 283.035 143.038 287.01C143.917 290.986 141.422 294.926 137.453 295.771L97.087 304.707C96.56 304.812 96.0331 304.883 95.5061 304.883Z" fill="#F5A623"/>
<path d="M243.021 99C164.292 99 100.459 149.063 100.459 210.842C100.459 272.621 164.292 322.685 243.021 322.685C321.749 322.685 385.582 272.621 385.582 210.842C385.582 149.063 321.749 99 243.021 99ZM243.021 309.14C173.005 309.14 116.268 265.128 116.268 210.842C116.268 156.557 173.005 112.545 243.021 112.545C313.037 112.545 369.773 156.557 369.773 210.842C369.773 265.128 313.037 309.14 243.021 309.14Z" fill="#FDDB85"/>
<path d="M298.598 308.506C296.701 304.917 298.036 300.449 301.619 298.549C310.296 293.905 315.004 286.728 315.601 277.229C316.55 261.362 306.116 244.123 295.436 236.63C277.73 224.175 261.64 220.657 246.042 217.245C230.549 213.867 215.899 210.666 201.425 199.513C170.826 175.942 181.365 116.801 181.822 114.268C182.56 110.257 186.389 107.654 190.394 108.393C194.399 109.132 197.034 112.966 196.296 116.977C193.626 131.613 190.921 172.846 210.384 187.868C222.258 197.015 234.729 199.724 249.168 202.891C265.364 206.444 283.737 210.455 303.867 224.598C320.063 235.997 331.41 259.005 330.251 278.144C329.689 287.538 326.281 295.805 320.379 302.384C317.147 306.008 299.898 311.039 298.563 308.541" fill="#FDDB85"/>
<path d="M361.694 187.763C363.029 200.991 351.541 212.988 336.013 214.571C320.485 216.119 306.854 206.656 305.519 193.427C304.184 180.199 315.707 168.202 331.2 166.619C346.693 165.071 360.359 174.535 361.694 187.763Z" fill="#B67216"/>
<path d="M326.845 198.283L333.344 187.447L348.486 191.282C348.486 191.282 335.979 182.381 336.717 182.134C337.454 181.888 340.792 171.791 340.792 171.791L330.463 180.446L320.135 180.938L327.091 185.266L326.845 198.248V198.283Z" fill="#FFE561"/>
<path d="M249.239 157.261C240.527 156.347 234.168 148.501 235.081 139.776L235.187 138.615C236.1 129.89 243.934 123.522 252.647 124.437C261.359 125.352 267.718 133.197 266.805 141.922L266.699 143.083C265.786 151.808 257.952 158.176 249.239 157.261Z" fill="white"/>
<path d="M255.633 173.62C246.99 174.992 238.805 169.046 237.435 160.392L237.259 159.231C235.889 150.576 241.826 142.379 250.468 141.007C259.111 139.635 267.296 145.615 268.666 154.235L268.842 155.396C270.212 164.051 264.275 172.248 255.633 173.62Z" fill="white"/>
<path d="M274.709 189.277C266.488 192.302 257.319 188.081 254.298 179.848L253.876 178.757C250.855 170.56 255.106 161.343 263.291 158.317C271.512 155.291 280.681 159.548 283.702 167.746L284.124 168.836C287.145 177.034 282.894 186.251 274.709 189.277Z" fill="white"/>
<path d="M209.823 163.453C201.111 162.538 194.752 154.693 195.665 145.968L195.771 144.807C196.684 136.082 204.518 129.714 213.231 130.628C221.943 131.543 228.302 139.389 227.389 148.114L227.283 149.275C226.37 158 218.536 164.368 209.823 163.453Z" fill="white"/>
<path d="M216.216 179.811C207.574 181.183 199.388 175.238 198.018 166.583L197.842 165.422C196.472 156.767 202.444 148.57 211.052 147.198C219.694 145.826 227.879 151.807 229.249 160.426L229.425 161.587C230.795 170.242 224.823 178.439 216.216 179.811Z" fill="white"/>
<path d="M235.293 195.468C227.072 198.494 217.903 194.272 214.882 186.039L214.46 184.949C211.439 176.716 215.69 167.534 223.875 164.508C232.096 161.483 241.265 165.705 244.286 173.937L244.673 175.028C247.694 183.225 243.443 192.443 235.258 195.468" fill="white"/>
<path d="M320.696 151.035C322.031 164.263 310.543 176.26 295.015 177.843C279.487 179.391 265.856 169.927 264.521 156.699C263.186 143.471 274.709 131.474 290.202 129.89C305.695 128.342 319.361 137.806 320.696 151.035Z" fill="#B67216"/>
<path d="M285.882 161.552L292.381 150.716L307.523 154.551C307.523 154.551 295.016 145.65 295.754 145.404C296.491 145.158 299.829 135.061 299.829 135.061L289.5 143.715L279.172 144.208L286.128 148.535L285.882 161.517V161.552Z" fill="#FFE561"/>
<path d="M270.635 196.312C270.635 196.312 293.927 186.355 295.999 186.355C298.072 186.355 303.553 196.664 303.553 196.664L274.078 204.896L270.635 196.312Z" fill="#FFE561"/>
<path d="M287.076 206.62C287.076 206.62 310.368 196.664 312.441 196.664C314.514 196.664 319.994 206.972 319.994 206.972L290.519 215.205L287.076 206.62Z" fill="#FFE561"/>
<path d="M366.613 214.15C366.613 214.15 343.321 204.193 341.248 204.193C339.176 204.193 333.695 214.502 333.695 214.502L363.17 222.734L366.613 214.15Z" fill="#FFE561"/>
<path d="M342.864 228.151C342.864 228.151 323.05 212.354 321.048 211.791C319.08 211.264 311.035 219.707 311.035 219.707L337.243 235.504L342.829 228.151H342.864Z" fill="#9DC83A"/>
<path d="M329.408 244.618C329.408 244.618 349.222 228.821 351.189 228.258C353.157 227.73 361.202 236.174 361.202 236.174L334.994 251.971L329.408 244.618Z" fill="#9DC83A"/>
<path d="M158.812 202.222C158.812 202.222 149.572 191.984 152.488 189.064C155.404 186.144 154.42 181.289 151.996 177.384C149.572 173.479 149.572 169.609 149.572 168.131C149.572 166.654 149.08 163.734 151.504 161.306C153.928 158.879 162.219 153.988 163.66 153.988C165.1 153.988 166.084 153.988 168.016 154.973C169.983 155.958 172.407 160.321 173.356 162.291C174.34 164.226 175.288 172.036 176.272 173.479C177.255 174.921 175.78 178.826 176.764 182.732C177.747 186.637 181.612 191.984 181.612 191.984L186.46 197.825L188.392 201.237C188.392 201.237 167.489 205.142 158.741 202.222" fill="#F19F28"/>
<path d="M133.062 226.076C133.062 226.076 123.822 215.838 126.738 212.918C129.654 209.998 128.67 205.108 126.246 201.238C123.822 197.332 123.822 193.462 123.822 191.985C123.822 190.507 123.33 187.587 125.754 185.16C128.178 182.732 136.434 177.842 137.91 177.842C139.385 177.842 140.334 177.842 142.266 178.827C144.233 179.812 146.657 184.174 147.606 186.145C148.59 188.08 149.538 195.89 150.522 197.332C151.505 198.775 150.03 202.68 151.014 206.585C151.997 210.49 155.862 215.838 155.862 215.838L160.71 221.678L162.642 225.091C162.642 225.091 141.739 228.996 132.991 226.076" fill="#F19F28"/>
<path d="M207.293 255.382C214.214 251.477 222.997 250.527 230.234 253.799C239.86 258.162 246.148 269.279 256.617 270.686C263.96 271.671 270.846 267.485 277.766 264.776C284.652 262.067 293.856 261.363 298.248 267.379C300.25 270.123 300.847 273.853 303.342 276.175C304.466 277.23 305.941 277.899 306.96 279.024C308.26 280.432 308.752 282.472 308.752 284.372C308.752 290.986 303.377 296.686 297.159 298.867C290.94 301.048 284.055 300.344 277.626 298.867C271.197 297.424 264.873 295.278 258.304 294.61C249.24 293.695 240.176 295.7 231.147 296.932C222.119 298.163 212.563 298.585 204.272 294.821C184.248 285.744 191.379 264.389 207.293 255.347" fill="#D64223"/>
<path d="M206.696 249.085C213.617 245.18 222.399 244.23 229.636 247.502C239.262 251.865 245.551 262.982 256.02 264.389C263.362 265.375 270.283 261.188 277.169 258.479C284.09 255.77 293.259 255.066 297.65 261.082C299.653 263.827 300.25 267.556 302.744 269.878C303.868 270.933 305.344 271.602 306.363 272.728C307.662 274.135 308.154 276.175 308.154 278.075C308.154 284.689 302.779 290.389 296.561 292.57C290.343 294.751 283.457 294.048 277.028 292.57C270.599 291.127 264.276 288.981 257.706 288.313C248.642 287.398 239.578 289.404 230.55 290.635C221.521 291.866 211.965 292.288 203.675 288.524C183.65 279.447 190.781 258.092 206.696 249.05" fill="#E97176"/>
<path d="M236.065 259.462C236.065 263.579 230.69 266.921 224.05 266.921C217.41 266.921 212.035 263.579 212.035 259.462C212.035 255.346 217.41 252.004 224.05 252.004C230.69 252.004 236.065 255.346 236.065 259.462Z" fill="#E94A3F"/>
<path d="M214.319 275.224C214.319 277.616 211.368 279.516 207.749 279.516C204.131 279.516 201.18 277.581 201.18 275.224C201.18 272.867 204.131 270.932 207.749 270.932C211.368 270.932 214.319 272.867 214.319 275.224Z" fill="#E94A3F"/>
<path d="M229.777 276.385C229.777 278.461 227.353 280.115 224.332 280.115C221.311 280.115 218.887 278.461 218.887 276.385C218.887 274.31 221.311 272.656 224.332 272.656C227.353 272.656 229.777 274.31 229.777 276.385Z" fill="#E94A3F"/>
<path d="M190.676 227.871C197.597 223.965 206.38 223.016 213.617 226.287C223.243 230.65 229.531 241.767 240 243.175C247.343 244.16 254.228 239.973 261.149 237.264C268.035 234.555 277.239 233.852 281.631 239.868C283.633 242.612 284.23 246.341 286.725 248.663C287.849 249.718 289.324 250.387 290.343 251.513C291.643 252.92 292.135 254.925 292.135 256.86C292.135 263.474 286.76 269.174 280.541 271.355C274.323 273.536 267.438 272.833 261.009 271.355C254.58 269.913 248.256 267.767 241.687 267.098C232.623 266.183 223.559 268.189 214.53 269.42C205.502 270.651 195.946 271.074 187.655 267.309C167.63 258.197 174.762 236.877 190.676 227.835" fill="#D64223"/>
<path d="M190.114 221.573C197.035 217.632 205.817 216.718 213.054 219.989C222.68 224.352 228.969 235.469 239.438 236.877C246.78 237.862 253.666 233.675 260.587 230.966C267.472 228.257 276.677 227.554 281.068 233.57C283.071 236.314 283.668 240.043 286.162 242.365C287.286 243.42 288.762 244.054 289.781 245.215C291.08 246.622 291.572 248.662 291.572 250.562C291.572 257.176 286.197 262.876 279.979 265.057C273.761 267.238 266.875 266.535 260.446 265.057C254.017 263.615 247.694 261.469 241.124 260.8C232.06 259.885 222.996 261.856 213.968 263.122C204.939 264.353 195.383 264.811 187.093 261.011C167.068 251.934 174.199 230.579 190.114 221.537" fill="#E97176"/>
<path d="M219.483 231.951C219.483 236.067 214.108 239.409 207.468 239.409C200.828 239.409 195.453 236.067 195.453 231.951C195.453 227.834 200.828 224.492 207.468 224.492C214.108 224.492 219.483 227.834 219.483 231.951Z" fill="#E94A3F"/>
<path d="M197.737 247.712C197.737 250.104 194.786 252.004 191.167 252.004C187.549 252.004 184.598 250.069 184.598 247.712C184.598 245.355 187.549 243.42 191.167 243.42C194.786 243.42 197.737 245.355 197.737 247.712Z" fill="#E94A3F"/>
<path d="M213.16 248.874C213.16 250.949 210.736 252.603 207.715 252.603C204.694 252.603 202.27 250.949 202.27 248.874C202.27 246.798 204.694 245.145 207.715 245.145C210.736 245.145 213.16 246.798 213.16 248.874Z" fill="#E94A3F"/>
<path d="M165.593 278.742C152.278 271.108 142.02 258.302 137.418 243.631" stroke="#D64223" stroke-width="3.14" stroke-miterlimit="10"/>
<path d="M141.387 220.869C149.678 227.483 157.547 234.625 164.925 242.26" stroke="#D64223" stroke-width="3.14" stroke-miterlimit="10"/>
<path d="M173.779 201.062C172.163 209.014 170.968 217.035 170.16 225.092" stroke="#D64223" stroke-width="3.14" stroke-miterlimit="10"/>
<path d="M168.473 258.021C168.824 262.032 170.475 265.937 173.145 268.998" stroke="#D64223" stroke-width="3.14" stroke-miterlimit="10"/>
<path d="M236.311 225.021C243.723 226.886 250.082 231.812 254.754 237.828C259.462 243.844 262.624 250.915 265.294 258.057" stroke="#EABE20" stroke-width="3.14" stroke-miterlimit="10"/>
<path d="M233.641 244.758C238.032 248.1 242.529 251.548 245.445 256.262C247.201 259.112 248.29 262.313 249.344 265.48C250.785 269.702 252.225 274.029 252.541 278.497" stroke="#EABE20" stroke-width="3.14" stroke-miterlimit="10"/>
<path d="M277.133 250.07C282.051 260.625 282.262 273.255 277.73 283.95" stroke="#EABE20" stroke-width="3.14" stroke-miterlimit="10"/>
</g>
<defs>
<clipPath id="clip0_1228_3779">
<rect width="370" height="261.294" fill="white" transform="translate(55 99)"/>
</clipPath>
</defs>
</svg>
