<svg width="558" height="384" viewBox="0 0 558 384" fill="none" xmlns="http://www.w3.org/2000/svg">
<g style="mix-blend-mode:multiply" opacity="0.1">
<mask id="mask0_1228_10669" style="mask-type:luminance" maskUnits="userSpaceOnUse" x="18" y="183" width="170" height="99">
<path d="M187.424 183.996H18.748V281.5H187.424V183.996Z" fill="white"/>
</mask>
<g mask="url(#mask0_1228_10669)">
<mask id="mask1_1228_10669" style="mask-type:luminance" maskUnits="userSpaceOnUse" x="18" y="183" width="170" height="99">
<path d="M187.424 183.996H18.748V281.5H187.424V183.996Z" fill="white"/>
</mask>
<g mask="url(#mask1_1228_10669)">
<path d="M22.1666 253.861C17.6421 251.359 17.5932 247.248 22.0364 244.73L121.299 185.847C125.758 183.345 133.066 183.345 137.574 185.896L184.023 212.331C188.515 214.866 188.548 218.993 184.105 221.495L84.8586 279.614C80.3992 282.116 73.0591 282.116 68.5509 279.614L22.1666 253.877V253.861Z" fill="#050000"/>
</g>
</g>
</g>
<path d="M183.111 198.231L182.07 198.897C181.517 198.816 177.822 197.695 177.822 197.695L173.965 193.194C173.965 193.194 182.509 192.788 183.111 198.215" fill="#831616"/>
<path d="M179.727 197.305L175.479 194.852C174.096 194.007 172.257 194.056 170.255 195.209C165.926 197.712 162.41 204.406 162.41 210.174C162.41 213.423 163.533 215.682 165.275 216.592V216.624L169.832 219.191L171.687 215.081C175.333 212.075 178.083 206.225 178.083 201.124C178.083 201.059 178.083 200.994 178.083 200.929L179.727 197.305Z" fill="#494645"/>
<path d="M182.802 203.834C182.802 209.586 179.286 216.28 174.941 218.766C170.612 221.252 167.08 218.62 167.08 212.852C167.08 207.084 170.596 200.422 174.941 197.92C179.286 195.418 182.802 198.066 182.802 203.818" fill="#5C5A5A"/>
<path d="M180.476 204.37C180.915 208.009 178.848 212.754 175.886 214.963C172.924 217.173 170.173 216.003 169.75 212.364C169.311 208.724 171.378 203.98 174.34 201.77C177.302 199.577 180.069 200.73 180.492 204.386" fill="#B6B5B2"/>
<path d="M178.767 205.638C179.06 208.124 177.66 211.357 175.642 212.868C173.608 214.379 171.736 213.583 171.443 211.097C171.15 208.611 172.55 205.378 174.584 203.867C176.602 202.356 178.49 203.152 178.783 205.638" fill="#D4D4D2"/>
<path d="M184.968 186.68L188.451 190.498C188.744 190.823 188.842 191.278 188.695 191.7L186.954 196.753L183.715 190.157L184.984 186.68H184.968Z" fill="#EF8678"/>
<path d="M175.706 154.54L121.819 182.47C121.803 182.47 96.4785 145.458 96.4785 145.458C96.4785 145.458 109.108 145.783 109.385 145.653C115.96 142.988 130.884 131.679 137.346 132.508C141.431 133.028 175.609 154.589 175.706 154.54Z" fill="#EF8678"/>
<path d="M186.155 196.592L182.07 198.899C181.565 194.902 178.392 193.423 174.518 195.649C170.726 197.843 166.82 203.302 166.202 207.852L158.552 212.174L123.414 185.316C123.414 185.316 162.621 149.132 174.811 154.087C186.676 158.913 186.171 196.576 186.171 196.576" fill="#BB2F1C"/>
<path d="M160.588 148.952V152.965L146.168 161.024L152.694 146.84L160.588 148.952Z" fill="#BB2F1C"/>
<path d="M126.359 142.468L137.768 135.969L160.586 148.951L144.311 158.521L126.359 142.468Z" fill="#EC6D5B"/>
<path d="M183.715 194.216L188.744 191.129L189.053 195.906C189.151 196.848 188.5 197.433 187.67 197.904L183.715 200.081V194.232V194.216Z" fill="#DF5642"/>
<path d="M183.714 200.085L182.575 199.435L182.51 193.797L183.714 194.219V200.085Z" fill="#BB2F1C"/>
<path d="M182.51 193.795L187.327 190.691L188.532 191.26L183.698 194.217L182.51 193.795Z" fill="#EF8678"/>
<path d="M166.446 183.48L163.891 184.959C163.322 185.284 162.85 184.943 162.85 184.179C162.85 183.415 163.305 182.538 163.891 182.213L166.446 180.734C167.016 180.41 167.472 180.734 167.472 181.514C167.472 182.294 167.016 183.155 166.446 183.48Z" fill="#7E1414"/>
<path d="M178.067 171.598L162.687 180.567L162.312 160.891C166.284 158.811 169.555 157.885 172.224 158.795C178.783 162.077 178.067 171.614 178.067 171.614" fill="#3783B2"/>
<path d="M183.796 168.221C183.796 168.221 183.748 168.221 183.715 168.205L181.013 167.002C180.916 166.953 180.867 166.84 180.916 166.726C180.964 166.628 181.078 166.58 181.176 166.628L183.894 167.847C183.992 167.88 184.04 168.01 183.992 168.107C183.959 168.188 183.878 168.221 183.796 168.221Z" fill="#7E1414"/>
<path d="M184.529 170.689C184.529 170.689 184.48 170.689 184.447 170.689L181.746 169.47C181.648 169.422 181.599 169.308 181.648 169.21C181.697 169.113 181.811 169.064 181.908 169.113L184.61 170.315C184.708 170.348 184.757 170.478 184.708 170.575C184.675 170.656 184.61 170.689 184.529 170.689Z" fill="#7E1414"/>
<path d="M186.905 167.395V167.33C186.905 167.33 186.905 167.282 186.905 167.265C186.905 167.233 186.905 167.217 186.905 167.2C186.905 167.184 186.905 167.152 186.905 167.119C186.905 167.103 186.905 167.07 186.905 167.054C186.905 167.022 186.905 167.005 186.905 166.973C186.905 166.957 186.905 166.924 186.888 166.892C186.888 166.859 186.888 166.843 186.872 166.81C186.872 166.81 186.872 166.794 186.872 166.778C186.872 166.745 186.872 166.729 186.872 166.729C186.872 166.697 186.856 166.664 186.84 166.648C186.84 166.615 186.807 166.583 186.791 166.534C186.791 166.502 186.775 166.469 186.758 166.453C186.726 166.372 186.693 166.307 186.677 166.274C186.661 166.242 186.644 166.225 186.628 166.193C186.596 166.144 186.579 166.095 186.547 166.047C186.514 165.982 186.465 165.933 186.433 165.884C186.4 165.835 186.368 165.803 186.335 165.754C186.335 165.738 186.303 165.705 186.286 165.689C186.254 165.64 186.205 165.608 186.172 165.559C186.172 165.559 186.172 165.559 186.156 165.543C186.124 165.51 186.107 165.478 186.091 165.478C186.075 165.445 186.042 165.429 186.01 165.413C185.977 165.397 185.961 165.364 185.945 165.348C185.928 165.332 185.912 165.332 185.896 165.316C185.896 165.316 185.879 165.315 185.863 165.299C185.863 165.299 185.831 165.267 185.798 165.251C185.782 165.251 185.765 165.234 185.733 165.218C185.733 165.218 185.7 165.186 185.668 165.186C185.652 165.186 185.635 165.169 185.603 165.153L184.577 164.568C184.577 164.568 184.561 164.552 184.529 164.536C184.512 164.536 184.496 164.519 184.463 164.503C184.463 164.503 184.431 164.503 184.415 164.487C184.415 164.487 184.382 164.471 184.35 164.471C184.333 164.471 184.317 164.471 184.301 164.454C184.284 164.454 184.268 164.454 184.252 164.438C184.236 164.438 184.219 164.438 184.203 164.438H184.138C184.138 164.438 184.105 164.422 184.089 164.422C184.073 164.422 184.057 164.422 184.04 164.422C183.991 164.422 183.975 164.422 183.959 164.422C183.926 164.422 183.91 164.422 183.894 164.422C183.861 164.422 183.829 164.422 183.812 164.422C183.78 164.422 183.747 164.438 183.715 164.454C183.682 164.454 183.633 164.487 183.601 164.503L183.129 164.779C183.129 164.779 183.259 164.714 183.324 164.698C183.406 164.682 183.471 164.682 183.552 164.698C183.65 164.698 183.715 164.731 183.812 164.763C183.91 164.796 183.991 164.828 184.089 164.893L185.098 165.478C185.196 165.543 185.277 165.608 185.375 165.673C185.473 165.738 185.538 165.819 185.619 165.9C185.7 165.982 185.749 166.047 185.814 166.128C185.847 166.16 185.879 166.209 185.912 166.258C185.945 166.307 185.977 166.355 186.01 166.42C186.042 166.469 186.058 166.502 186.091 166.55C186.14 166.632 186.172 166.713 186.221 166.81C186.27 166.924 186.303 167.038 186.351 167.152C186.384 167.265 186.416 167.379 186.433 167.493C186.449 167.606 186.449 167.704 186.449 167.818V173.439C186.449 173.537 186.433 173.651 186.4 173.732C186.4 173.829 186.351 173.911 186.319 173.976C186.286 174.041 186.254 174.089 186.221 174.138C186.221 174.154 186.205 174.171 186.189 174.187C186.14 174.236 186.091 174.284 186.042 174.317L186.514 174.041C186.514 174.041 186.612 173.976 186.661 173.927C186.661 173.927 186.693 173.894 186.693 173.878C186.693 173.862 186.726 173.846 186.742 173.813C186.742 173.781 186.775 173.748 186.791 173.716C186.791 173.683 186.823 173.667 186.823 173.634C186.823 173.618 186.84 173.586 186.856 173.553C186.856 173.537 186.856 173.504 186.856 173.488C186.856 173.488 186.856 173.472 186.856 173.456C186.856 173.439 186.856 173.423 186.856 173.407C186.856 173.407 186.856 173.374 186.856 173.342C186.856 173.309 186.856 173.293 186.856 173.277C186.856 173.261 186.856 173.228 186.856 173.212V173.147V167.525C186.856 167.509 186.856 167.493 186.856 167.46" fill="#EF8678"/>
<path d="M185.081 165.394C185.83 165.833 186.432 166.873 186.432 167.734V173.355C186.432 174.217 185.814 174.558 185.065 174.135L184.056 173.55C183.307 173.112 182.705 172.072 182.705 171.211V165.605C182.721 164.744 183.34 164.403 184.072 164.825L185.081 165.41V165.394Z" fill="#DF5642"/>
<path d="M185.049 165.637C185.749 166.044 186.318 167.019 186.318 167.831V173.128C186.302 173.94 185.732 174.265 185.032 173.859L184.072 173.306C183.372 172.9 182.803 171.909 182.803 171.113V165.816C182.819 165.004 183.389 164.679 184.088 165.085L185.049 165.637Z" fill="#DE442E"/>
<path d="M157.088 205.171L156.86 204.782L180.28 191.328C181.923 190.386 182.867 188.631 182.754 186.73C181.696 170.06 178.913 160.197 174.502 157.403C167.715 153.097 151.001 167.168 150.838 167.314L150.545 166.973C151.245 166.371 167.666 152.561 174.746 157.029C179.287 159.905 182.135 169.897 183.209 186.714C183.339 188.777 182.298 190.695 180.508 191.718L157.088 205.188V205.171Z" fill="#7E1414"/>
<path d="M22.0039 236.008V241.76L70.3901 270.177V249.055L22.0039 236.008Z" fill="#686767"/>
<path d="M70.2441 213.86L70.3906 270.175L160.685 218.425L160.539 162.809L70.2441 213.86Z" fill="#494645"/>
<path d="M101.752 248.129L97.5045 245.692C96.1211 244.847 94.282 244.896 92.2802 246.049C87.951 248.551 84.4355 255.246 84.4355 261.03C84.4355 264.279 85.5585 266.538 87.3163 267.448V267.48L91.8733 270.047L93.7287 265.937C97.3743 262.931 100.125 257.098 100.125 251.98C100.125 251.915 100.125 251.85 100.125 251.785L101.769 248.145L101.752 248.129Z" fill="#494645"/>
<path d="M104.827 254.659C104.827 260.411 101.312 267.105 96.9664 269.591C92.6209 272.077 89.1055 269.428 89.1055 263.677C89.1055 257.925 92.6209 251.231 96.9664 248.745C101.312 246.259 104.827 248.891 104.827 254.659Z" fill="#5C5A5A"/>
<path d="M18 187.848L18.5859 237.583L65.7026 265.529L65.5399 215.437L18 187.848Z" fill="#E1E1E1"/>
<path d="M65.5566 209.916L65.7031 265.532L161.108 210.549L160.946 160.457L65.5566 209.916Z" fill="#F0F0F0"/>
<path d="M18 187.85L65.5399 215.439L160.945 160.456L113.389 132.867L18 187.85Z" fill="#F9F9F9"/>
<path d="M24.6087 193.034L58.9982 212.987L59.0795 260.333L24.69 239.942L24.6087 193.034ZM23.4531 191.02L23.5345 240.592L60.2513 262.364L60.17 212.321L23.4694 191.02H23.4531Z" fill="#D7D7D8"/>
<path d="M40.9648 250.403H39.8906V200.879L40.9648 201.951V250.403Z" fill="#D7D7D8"/>
<path d="M35.252 225.366V226.162C35.252 226.308 35.3171 226.422 35.4473 226.503L38.2629 228.128C38.5233 228.274 38.865 228.079 38.865 227.787V227.007C38.865 226.861 38.7837 226.731 38.6697 226.649L35.8541 225.024C35.5937 224.878 35.252 225.057 35.252 225.366Z" fill="#D7D7D8"/>
<path d="M41.9733 228.569V229.365C41.9733 229.511 42.0384 229.641 42.1686 229.706L44.9842 231.331C45.2446 231.477 45.5864 231.298 45.5864 230.99V230.194C45.5864 230.047 45.505 229.917 45.3748 229.852L42.5592 228.228C42.2988 228.081 41.957 228.26 41.957 228.569" fill="#D7D7D8"/>
<path d="M20.6197 235.762V238.719L18.5365 237.582C18.5365 237.582 18.5365 234.641 18.5039 234.625L20.6034 235.762H20.6197Z" fill="#CA553A"/>
<path d="M20.621 225.43V235.796L18.5215 234.675C18.5215 234.675 18.4238 226.503 18.4238 224.195L20.621 225.43Z" fill="#F3A92E"/>
<path d="M65.7186 262.543V265.549L63.6517 264.33C63.6517 264.33 63.6517 261.438 63.6191 261.422L65.7349 262.559L65.7186 262.543Z" fill="#CA553A"/>
<path d="M65.6861 252.191L65.7186 262.574L63.6191 261.436C63.6191 261.436 63.5215 253.264 63.5215 250.973L65.6861 252.191Z" fill="#F3A92E"/>
<path d="M102.679 255.573C103.119 259.212 101.052 263.957 98.0895 266.166C95.1274 268.376 92.3769 267.206 91.9537 263.567C91.5306 259.927 93.5813 255.183 96.5433 252.973C99.5054 250.78 102.256 251.933 102.695 255.589" fill="#B6B5B2"/>
<path d="M100.986 256.837C101.279 259.323 99.8796 262.557 97.8452 264.068C95.827 265.579 93.9554 264.783 93.6462 262.297C93.3532 259.811 94.7529 256.577 96.7873 255.066C98.8054 253.555 100.677 254.351 100.97 256.837" fill="#D4D4D2"/>
<mask id="mask2_1228_10669" style="mask-type:luminance" maskUnits="userSpaceOnUse" x="179" y="70" width="234" height="137">
<path d="M412.463 70.5547H179.467V206.485H412.463V70.5547Z" fill="white"/>
</mask>
<g mask="url(#mask2_1228_10669)">
<mask id="mask3_1228_10669" style="mask-type:luminance" maskUnits="userSpaceOnUse" x="179" y="70" width="234" height="137">
<path d="M412.463 70.5547H179.467V206.485H412.463V70.5547Z" fill="white"/>
</mask>
<g mask="url(#mask3_1228_10669)">
<path opacity="0.1" d="M179.467 154.069L269.664 206.485L412.463 123.328L322.298 70.5547L179.467 154.069Z" fill="#231815"/>
</g>
</g>
<path d="M369.188 131.044V103.634L297.902 62.543V89.9369L369.188 131.044Z" fill="#B13132"/>
<path d="M367.428 104.658L299.658 65.5977V88.9134L367.428 127.973V104.658Z" fill="#982625"/>
<path d="M369.188 103.634L392.982 89.9375L393.031 117.38L369.188 131.045V103.634Z" fill="#D23F36"/>
<path d="M391.256 116.356L391.207 93.0078L370.961 104.658V127.99L391.256 116.356Z" fill="#B13132"/>
<path d="M297.902 62.5417L369.188 103.633L392.982 89.9356L321.648 48.6172L297.902 62.5417Z" fill="#E9473D"/>
<path d="M343.75 145.439V118.045L272.432 76.9375V104.331L343.75 145.439Z" fill="#B13132"/>
<path d="M341.975 119.084L274.205 80.0078V103.324L341.975 142.384V119.084Z" fill="#982625"/>
<path d="M343.748 118.045L367.51 104.332L367.559 131.775L343.748 145.439V118.045Z" fill="#D23F36"/>
<path d="M365.786 130.751L365.737 107.402L345.523 119.068V142.4L365.786 130.751Z" fill="#B13132"/>
<path d="M272.432 76.9524L343.75 118.043L367.511 104.33L296.193 63.0117L272.432 76.9524Z" fill="#E9473D"/>
<path d="M318.197 160.482V133.104L246.912 91.9805V119.391L318.197 160.482Z" fill="#DBB800"/>
<path d="M316.455 134.115L248.686 95.0547V118.37L316.455 157.43V134.115Z" fill="#CAA800"/>
<path d="M318.197 133.108L341.992 119.395L342.04 146.821L318.197 160.485V133.108Z" fill="#E7C300"/>
<path d="M340.283 145.797L340.218 122.465L320.004 134.115V157.447L340.283 145.797Z" fill="#DBB800"/>
<path d="M246.912 91.9824L318.197 133.106L341.992 119.393L270.674 78.0742L246.912 91.9824Z" fill="#FFE346"/>
<path d="M292.694 175.287V147.877L221.393 106.77V134.18L292.694 175.287Z" fill="#B13132"/>
<path d="M290.92 148.916L223.166 109.84V133.172L290.92 172.216V148.916Z" fill="#982625"/>
<path d="M292.693 147.877L316.471 134.18L316.52 161.606L292.693 175.287V147.877Z" fill="#D23F36"/>
<path d="M314.747 160.582L314.698 137.25L294.484 148.916V172.232L314.747 160.582Z" fill="#B13132"/>
<path d="M221.393 106.771L292.694 147.879L316.472 134.182L245.154 92.8633L221.393 106.771Z" fill="#E9473D"/>
<path d="M369.22 102.349V74.9386L297.918 33.8477V61.2416L369.22 102.349Z" fill="#B13132"/>
<path d="M367.445 75.9623L299.691 36.9023V60.2181L367.445 99.278V75.9623Z" fill="#982625"/>
<path d="M369.219 74.9392L393.013 61.2422L393.046 88.6687L369.219 102.349V74.9392Z" fill="#D23F36"/>
<path d="M391.273 87.6607L391.24 64.3125L370.994 75.9622V99.2942L391.273 87.6607Z" fill="#B13132"/>
<path d="M297.918 33.847L369.22 74.9379L392.998 61.2409L321.68 19.9062L297.918 33.847Z" fill="#E9473D"/>
<path d="M343.75 117.005V89.6111L272.432 48.5039V75.9141L343.75 117.005Z" fill="#B13132"/>
<path d="M341.975 90.6179L274.205 51.5742V74.8899L341.975 113.95V90.6179Z" fill="#982625"/>
<path d="M343.748 89.6111L367.51 75.9141L367.559 103.341L343.748 117.005V89.6111Z" fill="#D23F36"/>
<path d="M365.786 102.317L365.737 78.9688L345.523 90.6347V113.95L365.786 102.317Z" fill="#B13132"/>
<path d="M272.432 48.5059L343.75 89.6131L367.511 75.9161L296.193 34.5977L272.432 48.5059Z" fill="#E9473D"/>
<path d="M318.197 132.068V104.658L246.912 63.5508V90.961L318.197 132.068Z" fill="#DBB800"/>
<path d="M316.455 105.681L248.686 66.6211V89.9206L316.455 128.997V105.681Z" fill="#CAA800"/>
<path d="M318.197 104.655L341.992 90.9414L342.04 118.384L318.197 132.065V104.655Z" fill="#E7C300"/>
<path d="M340.283 117.36L340.218 94.0117L320.004 105.678V128.993L340.283 117.36Z" fill="#DBB800"/>
<path d="M246.912 63.5494L318.197 104.657L341.992 90.9434L270.674 49.625L246.912 63.5494Z" fill="#FFE346"/>
<path d="M292.694 146.853V119.442L221.393 78.3516V105.746L292.694 146.853Z" fill="#B13132"/>
<path d="M290.92 120.469L223.166 81.4258V104.725L290.92 143.785V120.469Z" fill="#982625"/>
<path d="M292.693 119.443L316.471 105.746L316.52 133.173L292.693 146.853V119.443Z" fill="#D23F36"/>
<path d="M314.747 132.165L314.698 108.801L294.484 120.467V143.799L314.747 132.165Z" fill="#B13132"/>
<path d="M221.393 78.3509L292.694 119.442L316.472 105.745L245.154 64.4102L221.393 78.3509Z" fill="#E9473D"/>
<path d="M343.75 88.4426V61.0323L272.432 19.9414V47.3354L343.75 88.4426Z" fill="#DBB800"/>
<path d="M341.975 62.056L274.205 22.9961V46.2956L341.975 85.3718V62.056Z" fill="#CAA800"/>
<path d="M343.748 61.0329L367.51 47.3359L367.559 74.7624L343.748 88.4431V61.0329Z" fill="#E7C300"/>
<path d="M365.786 73.7382L365.737 50.4062L345.523 62.056V85.3717L365.786 73.7382Z" fill="#DBB800"/>
<path d="M272.432 19.9407L343.75 61.0316L367.511 47.3347L296.193 6L272.432 19.9407Z" fill="#FFE346"/>
<path d="M318.197 103.618V76.2244L246.912 35.1172V62.5112L318.197 103.618Z" fill="#B13132"/>
<path d="M316.455 77.2442L248.686 38.168V61.5L316.455 100.56V77.2442Z" fill="#982625"/>
<path d="M318.197 76.221L341.992 62.5078L342.04 89.9505L318.197 103.615V76.221Z" fill="#D23F36"/>
<path d="M340.283 88.9303L340.218 65.582L320.004 77.248V100.564L340.283 88.9303Z" fill="#B13132"/>
<path d="M246.912 35.1158L318.197 76.223L341.992 62.5098L270.674 21.1914L246.912 35.1158Z" fill="#E9473D"/>
<path d="M292.677 118.353V90.9425L221.359 49.8516V77.2455L292.677 118.353Z" fill="#DBB800"/>
<path d="M290.903 91.9695L223.133 52.9258V76.2415L290.903 115.285V91.9695Z" fill="#CAA800"/>
<path d="M292.678 90.9431L316.44 77.2461L316.505 104.689L292.678 118.353V90.9431Z" fill="#E7C300"/>
<path d="M314.747 103.665L314.682 80.3164L294.436 91.9661V115.298L314.747 103.665Z" fill="#DBB800"/>
<path d="M221.359 49.8542L292.677 90.9613L316.439 77.2481L245.137 35.9297L221.359 49.8542Z" fill="#FFE346"/>
<path d="M267.076 190.528V163.134L195.758 122.043V149.421L267.076 190.528Z" fill="#DBB800"/>
<path d="M265.302 164.158L197.516 125.098V148.413L265.302 187.473V164.158Z" fill="#CAA800"/>
<path d="M267.076 163.131L290.838 149.418L290.903 176.861L267.076 190.525V163.131Z" fill="#E7C300"/>
<path d="M289.129 175.84L289.08 152.492L268.834 164.158V187.474L289.129 175.84Z" fill="#DBB800"/>
<path d="M195.758 122.042L267.076 163.133L290.838 149.42L219.536 108.102L195.758 122.042Z" fill="#FFE346"/>
<path d="M267.175 161.364V133.97L195.873 92.8633V120.257L267.175 161.364Z" fill="#B13132"/>
<path d="M265.4 134.977L197.646 95.9336V119.233L265.4 158.309V134.977Z" fill="#982625"/>
<path d="M267.174 133.967L290.968 120.254L291.001 147.697L267.174 161.361V133.967Z" fill="#D23F36"/>
<path d="M289.226 146.672L289.194 123.324L268.947 134.974V158.306L289.226 146.672Z" fill="#B13132"/>
<path d="M195.873 92.862L267.175 133.969L290.953 120.256L219.635 78.9375L195.873 92.862Z" fill="#E9473D"/>
<path d="M334.743 314.625L327.582 309.052C327.582 309.052 262.644 352.076 237.353 336.039C210.743 319.158 276.413 278.749 276.413 278.749L277.032 279.09L282.451 284.761L458.76 183.796C464.392 180.563 470.511 178.272 476.891 176.989L492.271 173.918C492.711 173.836 493.15 173.918 493.541 174.129L526.514 193.139C527.393 193.643 527.686 194.78 527.165 195.657C521.924 204.301 514.552 211.499 505.78 216.536L334.743 314.608V314.625Z" fill="#ACAEAF"/>
<path d="M237.435 336.171C233.447 333.637 231.787 330.387 231.299 326.975C233.919 307.786 276.495 282.569 276.495 282.569L277.13 282.911L282.94 288.338L458.859 187.617C464.506 184.383 470.626 182.092 477.006 180.809L492.386 177.738C492.825 177.657 493.281 177.738 493.655 177.949L526.547 196.911C521.355 205.051 514.292 211.842 505.894 216.668L334.858 314.74L329.048 312.059L327.697 309.167C327.697 309.167 262.759 352.192 237.467 336.155" fill="#E7E7E6"/>
<path d="M461.625 185.357C470.609 182.318 506.414 185.259 506.414 185.259L526.433 196.795L508.351 214.603L479.951 227.634L461.625 185.357Z" fill="#8D8E90"/>
<path d="M472.855 178.548L481.612 173.625L527.947 200.337L519.256 205.487L472.855 178.548Z" fill="#F3F4F5"/>
<path d="M472.855 178.547L519.256 205.486L519.224 207.111L472.904 180.302L472.855 178.547Z" fill="#E8E9EA"/>
<path d="M519.223 207.111L519.239 205.487L527.946 200.336L527.767 202.269L519.223 207.111Z" fill="#A2A4A7"/>
<path d="M463.529 183.959L472.285 179.02L518.621 205.747L509.93 210.882L463.529 183.959Z" fill="#F3F4F5"/>
<path d="M463.529 183.957L509.93 210.88L509.897 212.521L463.578 185.696L463.529 183.957Z" fill="#E8E9EA"/>
<path d="M509.896 212.505L509.929 210.88L518.62 205.746L518.441 207.663L509.896 212.505Z" fill="#A2A4A7"/>
<path d="M454.023 189.419L462.796 184.512L509.131 211.223L500.424 216.358L454.023 189.419Z" fill="#F3F4F5"/>
<path d="M454.023 189.418L500.424 216.357L500.391 217.998L454.089 191.173L454.023 189.418Z" fill="#E8E9EA"/>
<path d="M500.393 217.998L500.425 216.357L509.132 211.223L508.937 213.14L500.393 217.998Z" fill="#A2A4A7"/>
<g style="mix-blend-mode:multiply">
<mask id="mask4_1228_10669" style="mask-type:luminance" maskUnits="userSpaceOnUse" x="285" y="283" width="63" height="32">
<path d="M347.244 283.543H285.072V314.235H347.244V283.543Z" fill="white"/>
</mask>
<g mask="url(#mask4_1228_10669)">
<mask id="mask5_1228_10669" style="mask-type:luminance" maskUnits="userSpaceOnUse" x="285" y="283" width="63" height="32">
<path d="M347.244 283.543H285.072V314.235H347.244V283.543Z" fill="white"/>
</mask>
<g mask="url(#mask5_1228_10669)">
<path d="M285.072 287.215L291.468 283.543L347.244 306.94L335.379 314.235L285.072 287.215Z" fill="#F1F1F2"/>
</g>
</g>
</g>
<path d="M237.353 336.058C262.644 352.095 327.598 309.103 327.598 309.103L334.76 314.627L505.796 216.555C514.584 211.502 521.941 204.32 527.181 195.66C527.702 194.783 527.409 193.661 526.53 193.141L493.557 174.131C493.166 173.904 492.727 173.839 492.287 173.92L476.907 176.991C470.527 178.275 464.408 180.566 458.777 183.799L282.451 284.763L277.031 279.093L276.413 278.752C276.413 278.752 210.726 319.176 237.353 336.042M231.428 325.448C231.266 308.209 270.001 283.902 277.031 279.093L282.858 285.186L459.086 184.351C464.668 181.151 470.706 178.876 477.037 177.608L492.401 174.538C492.401 174.538 492.548 174.521 492.629 174.521C492.841 174.521 493.052 174.57 493.215 174.684L526.205 193.694C526.481 193.856 526.677 194.116 526.758 194.425C526.839 194.75 526.839 195.091 526.628 195.335C521.257 201.623 514.177 210.592 505.47 216.002L334.678 313.701L328.217 308.664L327.533 308.307L327.208 308.534C326.752 308.859 279.831 338.885 251.154 338.885C245.75 338.885 241.21 337.748 237.678 335.506C233.56 332.906 231.461 329.51 231.428 325.432" fill="#F1F1F2"/>
<path d="M465.254 194.926V185.697L489.227 171.902V181.099L465.254 194.926Z" fill="#F3B700"/>
<path d="M465.855 186.054L488.641 172.926V180.757L465.855 193.886V186.054Z" fill="#D9A200"/>
<path d="M465.255 185.712L457.28 181.098L457.264 190.31L465.255 194.925V185.712Z" fill="#E6A543"/>
<path d="M457.85 189.969L457.866 182.121L464.669 186.053V193.885L457.85 189.969Z" fill="#F3B700"/>
<path d="M489.227 171.886L465.254 185.713L457.279 181.099L481.236 167.207L489.227 171.886Z" fill="#FED852"/>
<path d="M473.832 199.914V190.701L497.805 176.891V186.103L473.832 199.914Z" fill="#AE2D2F"/>
<path d="M474.434 191.055L497.203 177.91V185.758L474.434 198.886V191.055Z" fill="#932325"/>
<path d="M473.831 190.704L465.856 186.105L465.84 195.318L473.831 199.916V190.704Z" fill="#CF3C34"/>
<path d="M466.426 194.973L466.442 187.125L473.245 191.057V198.888L466.426 194.973Z" fill="#AE2D2F"/>
<path d="M497.804 176.89L473.847 190.701L465.855 186.103L489.813 172.211L497.804 176.89Z" fill="#E9463D"/>
<path d="M482.408 204.965V195.768L506.382 181.941V191.154L482.408 204.965Z" fill="#F3B700"/>
<path d="M483.01 196.096L505.779 182.984V190.816L483.01 203.944V196.096Z" fill="#D9A200"/>
<path d="M482.408 195.771L474.433 191.156L474.4 200.385L482.408 204.967V195.771Z" fill="#E6A543"/>
<path d="M475.004 200.027L475.02 192.18L481.823 196.095V203.943L475.004 200.027Z" fill="#F3B700"/>
<path d="M506.382 181.945L482.408 195.772L474.434 191.158L498.391 177.266L506.382 181.945Z" fill="#FED852"/>
<path d="M490.984 209.941V200.729L514.941 186.918V196.131L490.984 209.941Z" fill="#AE2D2F"/>
<path d="M491.588 201.069L514.357 187.957V195.789L491.588 208.917V201.069Z" fill="#932325"/>
<path d="M490.985 200.723L483.01 196.125L482.994 205.338L490.985 209.936V200.723Z" fill="#CF3C34"/>
<path d="M483.58 205L483.596 197.152L490.399 201.084V208.916L483.58 205Z" fill="#AE2D2F"/>
<path d="M514.942 186.918L490.985 200.728L483.01 196.13L506.967 182.238L514.942 186.918Z" fill="#E9463D"/>
<path d="M499.562 214.812V205.615L523.536 191.805V201.001L499.562 214.812Z" fill="#AE2D2F"/>
<path d="M500.164 205.96L522.933 192.832V200.664L500.164 213.792V205.96Z" fill="#932325"/>
<path d="M499.561 205.598L491.57 201V210.213L499.561 214.811V205.598Z" fill="#CF3C34"/>
<path d="M492.156 209.875L492.172 202.027L498.959 205.943V213.791L492.156 209.875Z" fill="#AE2D2F"/>
<path d="M523.535 191.805L499.561 205.616L491.57 201.001L515.544 187.109L523.535 191.805Z" fill="#E9463D"/>
<path d="M465.254 185.355V176.143L489.227 162.332V171.545L465.254 185.355Z" fill="#F3B700"/>
<path d="M465.855 176.499L488.641 163.371V171.203L465.855 184.331V176.499Z" fill="#D9A200"/>
<path d="M465.255 176.145L457.28 171.547L457.264 180.759L465.255 185.358V176.145Z" fill="#E6A543"/>
<path d="M457.85 180.414L457.866 172.566L464.669 176.498V184.33L457.85 180.414Z" fill="#F3B700"/>
<path d="M489.227 162.332L465.254 176.142L457.279 171.544L481.236 157.652L489.227 162.332Z" fill="#FED852"/>
<path d="M473.832 190.359V181.147L497.805 167.336V176.548L473.832 190.359Z" fill="#AE2D2F"/>
<path d="M474.434 181.488L497.203 168.359V176.207L474.434 189.319V181.488Z" fill="#932325"/>
<path d="M473.831 181.149L465.856 176.551L465.84 185.763L473.831 190.361V181.149Z" fill="#CF3C34"/>
<path d="M466.426 185.422L466.442 177.574L473.245 181.49V189.321L466.426 185.422Z" fill="#AE2D2F"/>
<path d="M497.804 167.336L473.847 181.146L465.855 176.548L489.813 162.656L497.804 167.336Z" fill="#E9463D"/>
<path d="M482.408 195.414V186.201L506.382 172.391V181.603L482.408 195.414Z" fill="#F3B700"/>
<path d="M483.01 186.538L505.779 173.41V181.258L483.01 194.386V186.538Z" fill="#D9A200"/>
<path d="M482.408 186.204L474.433 181.605L474.4 190.818L482.408 195.416V186.204Z" fill="#E6A543"/>
<path d="M475.004 190.473L475.02 182.625L481.823 186.541V194.388L475.004 190.473Z" fill="#F3B700"/>
<path d="M506.382 172.39L482.408 186.201L474.434 181.603L498.391 167.711L506.382 172.39Z" fill="#FED852"/>
<path d="M490.984 200.387V191.174L514.941 177.363V186.576L490.984 200.387Z" fill="#AE2D2F"/>
<path d="M491.588 191.515L514.357 178.387V186.234L491.588 199.347V191.515Z" fill="#932325"/>
<path d="M490.985 191.172L483.01 186.574L482.994 195.787L490.985 200.385V191.172Z" fill="#CF3C34"/>
<path d="M483.58 195.445L483.596 187.598L490.399 191.513V199.361L483.58 195.445Z" fill="#AE2D2F"/>
<path d="M514.942 177.363L490.985 191.174L483.01 186.576L506.967 172.684L514.942 177.363Z" fill="#E9463D"/>
<path d="M499.562 205.262V196.049L523.536 182.238V191.451L499.562 205.262Z" fill="#AE2D2F"/>
<path d="M500.164 196.389L522.933 183.277V191.109L500.164 204.237V196.389Z" fill="#932325"/>
<path d="M499.561 196.047L491.57 191.449V200.662L499.561 205.26V196.047Z" fill="#CF3C34"/>
<path d="M492.156 200.32L492.172 192.473L498.959 196.388V204.236L492.156 200.32Z" fill="#AE2D2F"/>
<path d="M523.535 182.237L499.561 196.048L491.57 191.45L515.544 177.574L523.535 182.237Z" fill="#E9463D"/>
<path d="M473.832 180.758V171.545L497.805 157.734V166.931L473.832 180.758Z" fill="#F3B700"/>
<path d="M474.434 171.882L497.203 158.754V166.602L474.434 179.714V171.882Z" fill="#D9A200"/>
<path d="M473.831 171.547L465.856 166.949L465.84 176.162L473.831 180.76V171.547Z" fill="#E6A543"/>
<path d="M466.426 175.816L466.442 167.969L473.245 171.885V179.716L466.426 175.816Z" fill="#F3B700"/>
<path d="M497.804 157.734L473.847 171.545L465.855 166.947L489.813 153.055L497.804 157.734Z" fill="#FED852"/>
<path d="M482.408 185.859V176.647L506.382 162.836V172.048L482.408 185.859Z" fill="#AE2D2F"/>
<path d="M483.01 176.988L505.779 163.859V171.707L483.01 184.835V176.988Z" fill="#932325"/>
<path d="M482.408 176.649L474.433 172.051L474.4 181.263L482.408 185.861V176.649Z" fill="#CF3C34"/>
<path d="M475.004 180.922L475.02 173.074L481.823 176.99V184.838L475.004 180.922Z" fill="#AE2D2F"/>
<path d="M506.382 162.836L482.408 176.646L474.434 172.048L498.391 158.156L506.382 162.836Z" fill="#E9463D"/>
<path d="M491.002 190.816V181.604L514.959 167.793V176.989L491.002 190.816Z" fill="#F3B700"/>
<path d="M491.588 181.941L514.373 168.812V176.66L491.588 189.772V181.941Z" fill="#D9A200"/>
<path d="M491.002 181.603L483.01 176.988L482.994 186.217L491.002 190.815V181.603Z" fill="#E6A543"/>
<path d="M483.596 185.875L483.612 178.027L490.399 181.943V189.775L483.596 185.875Z" fill="#F3B700"/>
<path d="M514.958 167.793L491.001 181.603L483.01 176.989L506.967 163.113L514.958 167.793Z" fill="#FED852"/>
<path d="M505.78 216.551L335.379 314.233L328.218 308.66C328.218 308.66 262.645 352.074 237.354 336.038C237.354 336.038 244.694 343.902 281.394 353.504C294.382 356.9 315.946 353.407 327.03 347.232C338.097 341.058 512.795 242.238 517.157 239.736C521.47 237.25 529.2 227.209 527.491 194.648C527.491 194.421 527.329 195.25 527.247 195.558C527.215 195.672 514.585 211.481 505.797 216.534" fill="#3E3E3E"/>
<path d="M281.393 353.524C280.433 353.264 279.505 353.02 278.594 352.776C300.533 350.112 314.025 342.719 313.878 342.41C313.748 342.134 490.448 243.249 526.058 222.793C523.828 233.76 519.825 238.228 517.156 239.772C512.794 242.274 338.096 341.094 327.029 347.268C315.962 353.442 294.381 356.936 281.393 353.54" fill="#9E3B34"/>
<path d="M231.428 325.443C231.428 325.086 231.46 324.728 231.477 324.371C237.043 305.507 277.6 281.379 277.6 281.379L325.791 309.602C315.538 316.458 275.745 338.864 251.17 338.864C245.766 338.864 241.225 337.727 237.694 335.484C233.576 332.885 231.477 329.489 231.444 325.411" fill="#8D8E90"/>
<g style="mix-blend-mode:multiply">
<mask id="mask6_1228_10669" style="mask-type:luminance" maskUnits="userSpaceOnUse" x="231" y="281" width="49" height="52">
<path d="M279.765 281.398H231.428V332.644H279.765V281.398Z" fill="white"/>
</mask>
<g mask="url(#mask6_1228_10669)">
<mask id="mask7_1228_10669" style="mask-type:luminance" maskUnits="userSpaceOnUse" x="231" y="281" width="49" height="52">
<path d="M279.765 281.398H231.428V332.644H279.765V281.398Z" fill="white"/>
</mask>
<g mask="url(#mask7_1228_10669)">
<path d="M232.372 326.714C232.372 326.356 232.405 325.999 232.421 325.641C237.971 307.33 277.341 284.079 279.766 282.666L277.601 281.398C277.601 281.398 237.043 305.527 231.477 324.39C231.461 324.748 231.412 325.105 231.412 325.463C231.445 328.176 232.405 330.565 234.228 332.644C233.007 330.873 232.356 328.891 232.34 326.714" fill="#E7E7E6"/>
</g>
</g>
</g>
<path d="M239.63 337.275C239.533 337.242 239.435 337.193 239.354 337.145C239.451 337.193 239.533 337.242 239.63 337.275Z" fill="#CCCCCC"/>
<path d="M242.04 338.216C241.91 338.184 241.796 338.135 241.666 338.086C241.796 338.135 241.91 338.167 242.04 338.216Z" fill="#CCCCCC"/>
<path d="M234.878 334.184C234.764 334.07 234.65 333.973 234.553 333.875C234.667 333.973 234.764 334.087 234.878 334.184Z" fill="#CCCCCC"/>
<path d="M232.877 331.962C232.877 331.962 232.812 331.881 232.779 331.832C232.812 331.881 232.844 331.913 232.877 331.962Z" fill="#CCCCCC"/>
<path d="M233.837 333.148C233.755 333.05 233.674 332.969 233.576 332.871C233.658 332.969 233.755 333.05 233.837 333.148Z" fill="#CCCCCC"/>
<g style="mix-blend-mode:multiply">
<mask id="mask8_1228_10669" style="mask-type:luminance" maskUnits="userSpaceOnUse" x="237" y="329" width="62" height="27">
<path d="M298.548 329.297H237.354V355.05H298.548V329.297Z" fill="white"/>
</mask>
<g mask="url(#mask8_1228_10669)">
<mask id="mask9_1228_10669" style="mask-type:luminance" maskUnits="userSpaceOnUse" x="237" y="329" width="62" height="27">
<path d="M298.548 329.297H237.354V355.05H298.548V329.297Z" fill="white"/>
</mask>
<g mask="url(#mask9_1228_10669)">
<path d="M237.354 336.04C249.674 343.839 271.434 338.201 290.183 329.297L298.565 354.936C292.526 355.277 286.553 354.855 281.41 353.523C244.71 343.92 237.37 336.056 237.37 336.056" fill="#CCCCCC"/>
</g>
</g>
</g>
<g style="mix-blend-mode:multiply">
<mask id="mask10_1228_10669" style="mask-type:luminance" maskUnits="userSpaceOnUse" x="237" y="336" width="46" height="18">
<path d="M282.631 336.035H237.354V353.794H282.631V336.035Z" fill="white"/>
</mask>
<g mask="url(#mask10_1228_10669)">
<mask id="mask11_1228_10669" style="mask-type:luminance" maskUnits="userSpaceOnUse" x="237" y="336" width="46" height="18">
<path d="M282.631 336.035H237.354V353.794H282.631V336.035Z" fill="white"/>
</mask>
<g mask="url(#mask11_1228_10669)">
<path d="M263.117 338.342L282.631 353.794C282.224 353.697 281.801 353.615 281.394 353.502C244.694 343.899 237.354 336.035 237.354 336.035C243.912 340.195 253.173 340.536 263.117 338.326" fill="#CCCCCC"/>
</g>
</g>
</g>
<path d="M473.652 199.864L490.416 190.798L462.504 175.801L449.402 183.356L473.652 199.864Z" fill="#E4E5E6"/>
<path d="M460.99 189.728L467.81 163.391L471.455 164.999L470.169 195.269L460.99 189.728Z" fill="#0071BA"/>
<path d="M471.456 164.996L476.81 162.055L482.018 188.295L470.17 195.265L471.456 164.996Z" fill="#0C68AC"/>
<path d="M466.978 166.588L471.291 168.701L477.395 164.996L478.306 169.627L471.015 173.461L465.807 171.105L466.978 166.588Z" fill="white"/>
<path d="M464.36 176.698L470.821 180.029L479.398 175.105L480.814 182.255L470.463 188.396L462.391 184.334L464.36 176.698Z" fill="white"/>
<g style="mix-blend-mode:multiply">
<mask id="mask12_1228_10669" style="mask-type:luminance" maskUnits="userSpaceOnUse" x="470" y="162" width="13" height="34">
<path d="M482.034 162.055H470.186V195.249H482.034V162.055Z" fill="white"/>
</mask>
<g mask="url(#mask12_1228_10669)">
<mask id="mask13_1228_10669" style="mask-type:luminance" maskUnits="userSpaceOnUse" x="470" y="162" width="13" height="34">
<path d="M482.034 162.055H470.186V195.249H482.034V162.055Z" fill="white"/>
</mask>
<g mask="url(#mask13_1228_10669)">
<path d="M471.456 164.996L476.81 162.055L482.018 188.295L470.17 195.265L471.456 164.996Z" fill="#E7E7E6"/>
</g>
</g>
</g>
<path d="M467.809 163.391L471.454 164.999L476.89 162.107L473.163 160.336L467.809 163.391Z" fill="#0A80C5"/>
<path d="M490.432 190.801V198.941L493.573 201.963L493.02 214.978L476.484 224.564V198.389L490.432 190.801Z" fill="#C3C5C6"/>
<path d="M490.431 198.938L476.271 207.078L476.743 212.391L493.572 201.96L490.431 198.938Z" fill="#E4E5E6"/>
<path d="M470.527 213.563L470.25 234.587L480.21 229.014L480.162 207.957L470.527 213.563Z" fill="#DDDEDF"/>
<path d="M470.479 213.661L483.662 217.057L483.792 210.184L417.031 172.262V178.68L424.176 186.706L423.981 208.072L470.251 234.589L470.479 213.661Z" fill="#F3F4F5"/>
<path d="M483.662 217.057L483.776 210.184L493.411 204.578L493.297 211.451L483.662 217.057Z" fill="#DDDEDF"/>
<path d="M417.031 172.258L483.776 210.18L493.411 204.575L426.666 166.652L417.031 172.258Z" fill="white"/>
<path d="M418.332 172.244L426.665 167.402L492.124 204.594L483.775 209.436L418.332 172.244Z" fill="#E4E5E6"/>
<path d="M426.665 167.89L491.701 204.838L492.124 204.594L426.665 167.402L418.332 172.244L418.755 172.488L426.665 167.89Z" fill="#C4C4C6"/>
<path d="M432.199 188.75V186.816L433.159 187.369V189.254L432.199 188.75Z" fill="#808081"/>
<path d="M433.729 189.609V187.691L434.672 188.244V190.129L433.729 189.609Z" fill="#808081"/>
<path d="M438.562 192.437V190.504L439.506 191.056V192.957L438.562 192.437Z" fill="#808081"/>
<path d="M440.076 193.304V191.387L441.036 191.939V193.824L440.076 193.304Z" fill="#808081"/>
<path d="M446.293 196.843V194.926L447.237 195.478V197.363L446.293 196.843Z" fill="#808081"/>
<path d="M447.807 197.719V195.785L448.751 196.354V198.239L447.807 197.719Z" fill="#808081"/>
<path d="M453.422 200.937V199.02L454.366 199.572V201.457L453.422 200.937Z" fill="#808081"/>
<path d="M454.936 201.812V199.879L455.896 200.431V202.332L454.936 201.812Z" fill="#808081"/>
<path d="M460.73 205.179V203.262L461.691 203.814V205.699L460.73 205.179Z" fill="#808081"/>
<path d="M462.26 206.058V204.141L463.204 204.677V206.578L462.26 206.058Z" fill="#808081"/>
<path d="M432.199 194.374V192.457L433.159 193.009V194.894L432.199 194.374Z" fill="#808081"/>
<path d="M433.729 195.25V193.316L434.672 193.885V195.77L433.729 195.25Z" fill="#808081"/>
<path d="M438.562 198.078V196.145L439.506 196.697V198.598L438.562 198.078Z" fill="#808081"/>
<path d="M440.076 198.941V197.023L441.036 197.576V199.461L440.076 198.941Z" fill="#808081"/>
<path d="M446.293 202.48V200.562L447.237 201.115V203L446.293 202.48Z" fill="#808081"/>
<path d="M447.807 203.359V201.426L448.751 201.978V203.879L447.807 203.359Z" fill="#808081"/>
<path d="M453.422 206.573V204.656L454.366 205.192V207.093L453.422 206.573Z" fill="#808081"/>
<path d="M454.936 207.453V205.52L455.896 206.072V207.973L454.936 207.453Z" fill="#808081"/>
<path d="M460.73 210.816V208.898L461.691 209.451V211.336L460.73 210.816Z" fill="#808081"/>
<path d="M462.26 211.695V209.762L463.204 210.314V212.215L462.26 211.695Z" fill="#808081"/>
<path d="M432.199 200.011V198.094L433.159 198.63V200.531L432.199 200.011Z" fill="#808081"/>
<path d="M433.729 200.891V198.957L434.672 199.509V201.41L433.729 200.891Z" fill="#808081"/>
<path d="M438.562 203.698V201.781L439.506 202.334V204.218L438.562 203.698Z" fill="#808081"/>
<path d="M440.076 204.574V202.656L441.036 203.209V205.093L440.076 204.574Z" fill="#808081"/>
<path d="M446.293 208.12V206.203L447.237 206.756V208.64L446.293 208.12Z" fill="#808081"/>
<path d="M447.807 208.996V207.062L448.751 207.615V209.516L447.807 208.996Z" fill="#808081"/>
<path d="M453.422 212.211V210.277L454.366 210.83V212.731L453.422 212.211Z" fill="#808081"/>
<path d="M454.936 213.073V211.156L455.896 211.709V213.593L454.936 213.073Z" fill="#808081"/>
<path d="M460.73 216.453V214.52L461.691 215.072V216.973L460.73 216.453Z" fill="#808081"/>
<path d="M462.26 217.316V215.398L463.204 215.951V217.852L462.26 217.316Z" fill="#808081"/>
<path d="M432.199 205.648V203.715L433.159 204.284V206.168L432.199 205.648Z" fill="#808081"/>
<path d="M433.729 206.527V204.594L434.672 205.146V207.031L433.729 206.527Z" fill="#808081"/>
<path d="M438.562 209.339V207.422L439.506 207.974V209.859L438.562 209.339Z" fill="#808081"/>
<path d="M440.076 210.214V208.297L441.036 208.833V210.734L440.076 210.214Z" fill="#808081"/>
<path d="M446.293 213.758V211.824L447.237 212.377V214.278L446.293 213.758Z" fill="#808081"/>
<path d="M447.807 214.62V212.703L448.751 213.256V215.14L447.807 214.62Z" fill="#808081"/>
<path d="M453.422 217.835V215.918L454.366 216.47V218.371L453.422 217.835Z" fill="#808081"/>
<path d="M454.936 218.714V216.797L455.896 217.349V219.234L454.936 218.714Z" fill="#808081"/>
<path d="M460.73 222.09V220.156L461.691 220.709V222.593L460.73 222.09Z" fill="#808081"/>
<path d="M462.26 222.952V221.035L463.204 221.588V223.472L462.26 222.952Z" fill="#808081"/>
<path d="M430.23 183.146L426.145 174.453L465.303 196.697L467.972 204.869L430.23 183.146Z" fill="#EBEDED"/>
<path d="M426.145 174.454L438.953 167.094L477.656 189.175L465.303 196.697L426.145 174.454Z" fill="white"/>
<path d="M427.447 174.453L438.954 167.84L476.371 189.19L465.303 195.949L427.447 174.453Z" fill="#E4E5E6"/>
<g style="mix-blend-mode:multiply">
<mask id="mask14_1228_10669" style="mask-type:luminance" maskUnits="userSpaceOnUse" x="446" y="179" width="15" height="2">
<path d="M460.762 179.91H446.488V180.658H460.762V179.91Z" fill="white"/>
</mask>
<g mask="url(#mask14_1228_10669)">
<mask id="mask15_1228_10669" style="mask-type:luminance" maskUnits="userSpaceOnUse" x="446" y="179" width="15" height="2">
<path d="M460.762 179.91H446.488V180.658H460.762V179.91Z" fill="white"/>
</mask>
<g mask="url(#mask15_1228_10669)">
<path d="M460.745 180.658L446.488 180.04V179.91L460.762 180.544L460.745 180.658Z" fill="#E7E7E6"/>
</g>
</g>
</g>
<path d="M439.084 168.652L475.882 189.628L476.387 189.19L438.954 167.84L427.447 174.453L428.115 174.826L439.084 168.652Z" fill="#C4C4C6"/>
<path d="M477.656 189.176V195.61L468.069 201.248L467.972 204.871L465.303 196.699L477.656 189.176Z" fill="#DDDEDF"/>
<path d="M429.676 177.961L430.408 179.553L463.854 198.872L463.333 196.987L429.676 177.961Z" fill="#808081"/>
<path d="M430.441 180.562L431.19 182.155L464.798 201.847L464.278 199.946L430.441 180.562Z" fill="#808081"/>
<path d="M448.719 182.656L451.437 171.754L452.023 171.348L452.853 171.673L455.424 182.672L452.722 184.85L448.719 182.656Z" fill="#F3F4F5"/>
<path d="M455.424 182.672L452.853 171.672L452.56 171.559L452.186 171.884L452.706 184.833L452.723 184.849L455.424 182.672Z" fill="#E7E7E6"/>
<path d="M455.423 185.114C455.423 185.114 455.374 185.098 455.358 185.066L453.291 176.097C453.291 176.097 453.291 176.032 453.34 176.016C453.389 176.016 453.421 176.016 453.421 176.064L455.472 185.033C455.472 185.033 455.472 185.114 455.423 185.114C455.423 185.114 455.423 185.114 455.407 185.114H455.423Z" fill="#989B9D"/>
<path d="M456.954 186.167C456.954 186.167 456.905 186.167 456.889 186.118L453.748 176.288C453.748 176.288 453.748 176.223 453.797 176.207C453.829 176.207 453.862 176.207 453.878 176.256L457.019 186.07C457.019 186.07 457.019 186.135 456.987 186.151C456.987 186.151 456.987 186.151 456.971 186.151" fill="#989B9D"/>
<path d="M446.489 180.076H446.456C446.424 180.06 446.424 180.011 446.456 179.995L450.264 174.194C450.264 174.194 450.33 174.162 450.362 174.194C450.378 174.194 450.395 174.243 450.362 174.275L446.554 180.076C446.554 180.076 446.521 180.108 446.505 180.108" fill="#989B9D"/>
<path d="M447.71 180.755C447.71 180.755 447.71 180.755 447.678 180.755C447.645 180.755 447.629 180.706 447.645 180.674L450.542 174.321C450.542 174.321 450.591 174.272 450.623 174.288C450.64 174.288 450.672 174.337 450.64 174.37L447.743 180.723C447.743 180.723 447.71 180.755 447.694 180.755" fill="#989B9D"/>
<path d="M452.201 172.065L452.803 171.691L452.022 171.398L451.469 171.756L452.201 172.065Z" fill="#A5A7A9"/>
<path d="M448.931 173.074L454.383 176.194L453.814 176.438L448.361 173.318L448.931 173.074Z" fill="white"/>
<path d="M448.361 173.312V173.93L453.814 177.066V176.432L448.361 173.312Z" fill="#EBEDED"/>
<path d="M454.382 176.191V176.76L453.812 177.069V176.435L454.382 176.191Z" fill="#E7E7E6"/>
<path d="M451.322 174.16L451.094 174.307L451.663 174.632L451.891 174.47L451.322 174.16Z" fill="white"/>
<path d="M451.892 174.469V174.762L451.664 174.632L451.892 174.469Z" fill="#E7E7E6"/>
<path d="M477.152 222.891V220.957L476.191 221.509V223.394L477.152 222.891Z" fill="#808081"/>
<path d="M475.622 223.749V221.832L474.678 222.384V224.269L475.622 223.749Z" fill="#808081"/>
<path d="M477.152 217.98V216.062L476.191 216.615V218.5L477.152 217.98Z" fill="#808081"/>
<path d="M475.622 218.859V216.926L474.678 217.478V219.379L475.622 218.859Z" fill="#808081"/>
<path d="M412.621 212.814L421.377 207.891L467.713 234.602L459.022 239.737L412.621 212.814Z" fill="#F3F4F5"/>
<path d="M412.621 212.812L459.022 239.735L458.989 241.376L412.67 214.567L412.621 212.812Z" fill="#E8E9EA"/>
<path d="M458.988 241.381L459.021 239.74L467.712 234.605L467.533 236.539L458.988 241.381Z" fill="#A2A4A7"/>
<path d="M403.295 218.208L412.051 213.285L458.386 239.997L449.696 245.147L403.295 218.208Z" fill="#F3F4F5"/>
<path d="M403.295 218.211L449.696 245.15L449.663 246.775L403.344 219.966L403.295 218.211Z" fill="#E8E9EA"/>
<path d="M449.662 246.791L449.695 245.15L458.386 240.016L458.207 241.933L449.662 246.791Z" fill="#A2A4A7"/>
<path d="M393.807 223.7L402.563 218.777L448.898 245.489L440.191 250.623L393.807 223.7Z" fill="#F3F4F5"/>
<path d="M393.807 223.703L440.191 250.626L440.175 252.251L393.855 225.442L393.807 223.703Z" fill="#E8E9EA"/>
<path d="M440.174 252.264L440.19 250.623L448.881 245.488L448.718 247.406L440.174 252.264Z" fill="#A2A4A7"/>
<path d="M384.025 229.275L392.781 224.336L439.117 251.064L430.426 256.198L384.025 229.275Z" fill="#F3F4F5"/>
<path d="M384.025 229.273L430.426 256.196L430.393 257.821L384.091 231.012L384.025 229.273Z" fill="#E8E9EA"/>
<path d="M430.393 257.822L430.425 256.197L439.116 251.062L438.937 252.98L430.393 257.822Z" fill="#A2A4A7"/>
<path d="M374.211 234.958L382.967 230.035L429.319 256.747L420.612 261.897L374.211 234.958Z" fill="#F3F4F5"/>
<path d="M374.211 234.961L420.612 261.9L420.579 263.525L374.26 236.699L374.211 234.961Z" fill="#E8E9EA"/>
<path d="M420.578 263.521L420.611 261.897L429.302 256.746L429.123 258.68L420.578 263.521Z" fill="#A2A4A7"/>
<path d="M364.869 240.326L373.625 235.387L419.961 262.115L411.27 267.249L364.869 240.326Z" fill="#F3F4F5"/>
<path d="M364.869 240.324L411.27 267.247L411.221 268.888L364.918 242.063L364.869 240.324Z" fill="#E8E9EA"/>
<path d="M411.236 268.889L411.269 267.248L419.96 262.113L419.765 264.031L411.236 268.889Z" fill="#A2A4A7"/>
<path d="M355.363 245.732L364.119 240.793L410.455 267.521L401.764 272.655L355.363 245.732Z" fill="#F3F4F5"/>
<path d="M355.363 245.734L401.764 272.657L401.731 274.298L355.412 247.473L355.363 245.734Z" fill="#E8E9EA"/>
<path d="M401.732 274.295L401.765 272.654L410.456 267.52L410.277 269.437L401.732 274.295Z" fill="#A2A4A7"/>
<path d="M346.006 251.173L354.778 246.25L401.097 272.962L392.406 278.112L346.006 251.173Z" fill="#F3F4F5"/>
<path d="M346.006 251.176L392.406 278.115L392.374 279.74L346.071 252.914L346.006 251.176Z" fill="#E8E9EA"/>
<path d="M392.373 279.74L392.406 278.099L401.097 272.965L400.918 274.898L392.373 279.74Z" fill="#A2A4A7"/>
<path d="M336.551 256.634L345.307 251.711L391.642 278.422L382.935 283.573L336.551 256.634Z" fill="#F3F4F5"/>
<path d="M336.551 256.637L382.935 283.576L382.903 285.217L336.6 258.391L336.551 256.637Z" fill="#E8E9EA"/>
<path d="M382.902 285.213L382.935 283.572L391.642 278.438L391.447 280.355L382.902 285.213Z" fill="#A2A4A7"/>
<path d="M327.191 261.997L335.947 257.074L382.283 283.786L373.592 288.936L327.191 261.997Z" fill="#F3F4F5"/>
<path d="M327.191 261.996L373.592 288.935L373.559 290.56L327.24 263.751L327.191 261.996Z" fill="#E8E9EA"/>
<path d="M373.561 290.561L373.593 288.936L382.284 283.785L382.105 285.719L373.561 290.561Z" fill="#A2A4A7"/>
<path d="M317.688 267.521L326.46 262.598L372.779 289.309L364.088 294.444L317.688 267.521Z" fill="#F3F4F5"/>
<path d="M317.688 267.52L364.088 294.442L364.056 296.083L317.753 269.274L317.688 267.52Z" fill="#E8E9EA"/>
<path d="M364.055 296.084L364.087 294.443L372.778 289.309L372.599 291.242L364.055 296.084Z" fill="#A2A4A7"/>
<path d="M308.377 272.884L317.133 267.961L363.469 294.672L354.761 299.807L308.377 272.884Z" fill="#F3F4F5"/>
<path d="M308.377 272.887L354.761 299.81L354.729 301.451L308.426 274.641L308.377 272.887Z" fill="#E8E9EA"/>
<path d="M354.729 301.447L354.761 299.806L363.452 294.672L363.273 296.589L354.729 301.447Z" fill="#A2A4A7"/>
<path d="M298.84 278.407L307.596 273.484L353.931 300.196L345.24 305.33L298.84 278.407Z" fill="#F3F4F5"/>
<path d="M298.84 278.406L345.24 305.329L345.208 306.97L298.889 280.145L298.84 278.406Z" fill="#E8E9EA"/>
<path d="M345.209 306.975L345.242 305.334L353.933 300.199L353.753 302.116L345.209 306.975Z" fill="#A2A4A7"/>
<path d="M289.074 283.865L297.847 278.941L344.182 305.653L335.475 310.804L289.074 283.865Z" fill="#F3F4F5"/>
<path d="M289.074 283.867L335.475 310.806L335.442 312.447L289.139 285.622L289.074 283.867Z" fill="#E8E9EA"/>
<path d="M335.443 312.444L335.476 310.803L344.183 305.652L343.988 307.586L335.443 312.444Z" fill="#A2A4A7"/>
<path d="M405.182 229.695V220.483L429.155 206.672V215.884L405.182 229.695Z" fill="#F3B700"/>
<path d="M405.785 220.828L428.554 207.699V215.531L405.785 228.659V220.828Z" fill="#D9A200"/>
<path d="M405.183 220.485L397.208 215.887L397.176 225.099L405.183 229.697V220.485Z" fill="#E6A543"/>
<path d="M397.777 224.754L397.794 216.906L404.597 220.822V228.653L397.777 224.754Z" fill="#F3B700"/>
<path d="M429.155 206.672L405.182 220.482L397.207 215.884L421.164 201.992L429.155 206.672Z" fill="#FED852"/>
<path d="M413.76 234.683V225.487L437.717 211.66V220.873L413.76 234.683Z" fill="#AE2D2F"/>
<path d="M414.346 225.831L437.131 212.703V220.535L414.346 233.663V225.831Z" fill="#932325"/>
<path d="M413.759 225.485L405.784 220.871L405.752 230.084L413.759 234.682V225.485Z" fill="#CF3C34"/>
<path d="M406.354 229.742L406.37 221.91L413.157 225.826V233.657L406.354 229.742Z" fill="#AE2D2F"/>
<path d="M437.716 211.664L413.759 225.491L405.768 220.876L429.741 206.984L437.716 211.664Z" fill="#E9463D"/>
<path d="M422.336 239.738V230.541L446.293 216.73V225.927L422.336 239.738Z" fill="#F3B700"/>
<path d="M422.939 230.882L445.708 217.754V225.585L422.939 238.714V230.882Z" fill="#D9A200"/>
<path d="M422.336 230.54L414.344 225.926L414.328 235.155L422.336 239.736V230.54Z" fill="#E6A543"/>
<path d="M414.932 234.796L414.948 226.965L421.735 230.881V238.712L414.932 234.796Z" fill="#F3B700"/>
<path d="M446.294 216.73L422.337 230.541L414.346 225.927L438.319 212.051L446.294 216.73Z" fill="#FED852"/>
<path d="M430.914 244.71V235.514L454.871 221.703V230.899L430.914 244.71Z" fill="#AE2D2F"/>
<path d="M431.516 235.851L454.285 222.723V230.554L431.516 243.682V235.851Z" fill="#932325"/>
<path d="M430.914 235.513L422.923 230.898L422.906 240.127L430.914 244.709V235.513Z" fill="#CF3C34"/>
<path d="M423.508 239.769L423.524 231.938L430.311 235.853V243.685L423.508 239.769Z" fill="#AE2D2F"/>
<path d="M454.87 221.683L430.913 235.51L422.922 230.896L446.895 217.004L454.87 221.683Z" fill="#E9463D"/>
<path d="M439.49 249.585V240.389L463.447 226.578V235.774L439.49 249.585Z" fill="#AE2D2F"/>
<path d="M440.092 240.726L462.861 227.598V235.429L440.092 248.557V240.726Z" fill="#932325"/>
<path d="M439.49 240.383L431.499 235.785L431.482 244.998L439.49 249.58V240.383Z" fill="#CF3C34"/>
<path d="M432.086 244.66L432.102 236.812L438.889 240.728V248.56L432.086 244.66Z" fill="#AE2D2F"/>
<path d="M463.448 226.578L439.491 240.389L431.5 235.774L455.457 221.898L463.448 226.578Z" fill="#E9463D"/>
<path d="M405.182 220.124V210.912L429.155 197.117V206.33L405.182 220.124Z" fill="#F3B700"/>
<path d="M405.785 211.273L428.554 198.145V205.976L405.785 219.104V211.273Z" fill="#D9A200"/>
<path d="M405.183 210.927L397.208 206.312L397.176 215.541L405.183 220.139V210.927Z" fill="#E6A543"/>
<path d="M397.777 215.203L397.794 207.355L404.597 211.271V219.103L397.777 215.203Z" fill="#F3B700"/>
<path d="M429.155 197.117L405.182 210.928L397.207 206.329L421.164 192.438L429.155 197.117Z" fill="#FED852"/>
<path d="M413.76 225.133V215.936L437.717 202.109V211.322L413.76 225.133Z" fill="#AE2D2F"/>
<path d="M414.346 216.277L437.131 203.148V210.98L414.346 224.108V216.277Z" fill="#932325"/>
<path d="M413.759 215.931L405.784 211.316L405.752 220.545L413.759 225.127V215.931Z" fill="#CF3C34"/>
<path d="M406.354 220.191L406.37 212.344L413.157 216.26V224.107L406.354 220.191Z" fill="#AE2D2F"/>
<path d="M437.716 202.109L413.759 215.936L405.768 211.322L429.741 197.43L437.716 202.109Z" fill="#E9463D"/>
<path d="M422.336 230.183V220.986L446.293 207.176V216.388L422.336 230.183Z" fill="#F3B700"/>
<path d="M422.939 221.331L445.708 208.203V216.035L422.939 229.163V221.331Z" fill="#D9A200"/>
<path d="M422.336 220.985L414.344 216.371L414.328 225.6L422.336 230.182V220.985Z" fill="#E6A543"/>
<path d="M414.932 225.258L414.948 217.41L421.735 221.326V229.157L414.932 225.258Z" fill="#F3B700"/>
<path d="M446.294 207.176L422.337 220.987L414.346 216.372L438.319 202.48L446.294 207.176Z" fill="#FED852"/>
<path d="M430.914 235.152V225.956L454.871 212.129V221.341L430.914 235.152Z" fill="#AE2D2F"/>
<path d="M431.516 226.284L454.285 213.172V221.003L431.516 234.132V226.284Z" fill="#932325"/>
<path d="M430.914 225.958L422.923 221.344L422.906 230.573L430.914 235.154V225.958Z" fill="#CF3C34"/>
<path d="M423.508 230.215L423.524 222.367L430.311 226.283V234.131L423.508 230.215Z" fill="#AE2D2F"/>
<path d="M454.87 212.133L430.913 225.959L422.922 221.345L446.895 207.453L454.87 212.133Z" fill="#E9463D"/>
<path d="M439.49 240.047V230.834L463.447 217.023V226.22L439.49 240.047Z" fill="#AE2D2F"/>
<path d="M440.092 231.175L462.861 218.047V225.878L440.092 239.007V231.175Z" fill="#932325"/>
<path d="M439.49 230.833L431.499 226.219L431.482 235.448L439.49 240.046V230.833Z" fill="#CF3C34"/>
<path d="M432.086 235.109L432.102 227.262L438.889 231.177V239.009L432.086 235.109Z" fill="#AE2D2F"/>
<path d="M463.448 217.023L439.491 230.834L431.5 226.219L455.457 212.344L463.448 217.023Z" fill="#E9463D"/>
<path d="M413.76 215.527V206.315L437.717 192.504V201.716L413.76 215.527Z" fill="#F3B700"/>
<path d="M414.346 206.675L437.131 193.547V201.378L414.346 214.507V206.675Z" fill="#D9A200"/>
<path d="M413.759 206.313L405.784 201.715L405.752 210.927L413.759 215.526V206.313Z" fill="#E6A543"/>
<path d="M406.354 210.59L406.37 202.742L413.157 206.674V214.506L406.354 210.59Z" fill="#F3B700"/>
<path d="M437.716 192.508L413.759 206.318L405.768 201.72L429.741 187.828L437.716 192.508Z" fill="#FED852"/>
<path d="M422.336 220.628V211.416L446.293 197.621V206.817L422.336 220.628Z" fill="#AE2D2F"/>
<path d="M422.939 211.773L445.708 198.629V206.477L422.939 219.605V211.773Z" fill="#932325"/>
<path d="M422.336 211.415L414.344 206.816L414.328 216.045L422.336 220.627V211.415Z" fill="#CF3C34"/>
<path d="M414.932 215.691L414.948 207.859L421.735 211.775V219.607L414.932 215.691Z" fill="#AE2D2F"/>
<path d="M446.294 197.605L422.337 211.416L414.346 206.818L438.319 192.926L446.294 197.605Z" fill="#E9463D"/>
<path d="M430.914 225.586V216.373L454.887 202.562V211.775L430.914 225.586Z" fill="#F3B700"/>
<path d="M431.516 216.714L454.285 203.586V211.434L431.516 224.546V216.714Z" fill="#D9A200"/>
<path d="M430.913 216.372L422.938 211.773L422.922 220.986L430.913 225.584V216.372Z" fill="#E6A543"/>
<path d="M423.508 220.649L423.524 212.801L430.327 216.717V224.564L423.508 220.649Z" fill="#F3B700"/>
<path d="M454.888 202.558L430.914 216.385L422.939 211.771L446.897 197.879L454.888 202.558Z" fill="#FED852"/>
<path d="M379.143 244.53V235.334L403.116 221.523V230.72L379.143 244.53Z" fill="#F3B700"/>
<path d="M379.744 235.675L402.513 222.547V230.378L379.744 243.507V235.675Z" fill="#D9A200"/>
<path d="M379.142 235.333L371.151 230.719L371.135 239.948L379.142 244.529V235.333Z" fill="#E6A543"/>
<path d="M371.736 239.593L371.753 231.762L378.539 235.677V243.509L371.736 239.593Z" fill="#F3B700"/>
<path d="M403.099 221.524L379.142 235.334L371.15 230.72L395.124 216.828L403.099 221.524Z" fill="#FED852"/>
<path d="M387.719 249.535V240.322L411.676 226.512V235.724L387.719 249.535Z" fill="#AE2D2F"/>
<path d="M388.32 240.663L411.089 227.551V235.382L388.32 248.511V240.663Z" fill="#932325"/>
<path d="M387.718 240.321L379.743 235.723L379.711 244.951L387.718 249.533V240.321Z" fill="#CF3C34"/>
<path d="M380.314 244.594L380.331 236.746L387.117 240.662V248.51L380.314 244.594Z" fill="#AE2D2F"/>
<path d="M411.677 226.511L387.72 240.322L379.729 235.724L403.702 221.832L411.677 226.511Z" fill="#E9463D"/>
<path d="M396.297 254.589V245.393L420.254 231.582V240.778L396.297 254.589Z" fill="#F3B700"/>
<path d="M396.883 245.734L419.668 232.605V240.437L396.883 253.565V245.734Z" fill="#D9A200"/>
<path d="M396.296 245.392L388.305 240.777L388.289 250.006L396.296 254.588V245.392Z" fill="#E6A543"/>
<path d="M388.891 249.649L388.907 241.801L395.694 245.733V253.564L388.891 249.649Z" fill="#F3B700"/>
<path d="M420.253 231.582L396.296 245.392L388.305 240.778L412.278 226.902L420.253 231.582Z" fill="#FED852"/>
<path d="M404.873 259.558V250.346L428.83 236.535V245.748L404.873 259.558Z" fill="#AE2D2F"/>
<path d="M405.459 250.706L428.244 237.578V245.41L405.459 258.538V250.706Z" fill="#932325"/>
<path d="M404.873 250.348L396.882 245.75L396.865 254.979L404.873 259.561V250.348Z" fill="#CF3C34"/>
<path d="M397.451 254.621L397.467 246.773L404.27 250.705V258.537L397.451 254.621Z" fill="#AE2D2F"/>
<path d="M428.831 236.539L404.874 250.349L396.883 245.751L420.84 231.859L428.831 236.539Z" fill="#E9463D"/>
<path d="M413.449 264.433V255.236L437.406 241.426V250.622L413.449 264.433Z" fill="#AE2D2F"/>
<path d="M414.035 255.581L436.82 242.453V250.285L414.035 263.413V255.581Z" fill="#932325"/>
<path d="M413.451 255.235L405.46 250.621L405.443 259.85L413.451 264.432V255.235Z" fill="#CF3C34"/>
<path d="M406.029 259.496L406.046 251.648L412.849 255.58V263.412L406.029 259.496Z" fill="#AE2D2F"/>
<path d="M437.407 241.425L413.45 255.236L405.459 250.622L429.416 236.746L437.407 241.425Z" fill="#E9463D"/>
<path d="M379.143 234.976V225.779L403.116 211.969V221.165L379.143 234.976Z" fill="#F3B700"/>
<path d="M379.744 226.12L402.513 212.992V220.824L379.744 233.952V226.12Z" fill="#D9A200"/>
<path d="M379.142 225.782L371.151 221.168L371.135 230.397L379.142 234.979V225.782Z" fill="#E6A543"/>
<path d="M371.736 230.035L371.753 222.188L378.539 226.119V233.951L371.736 230.035Z" fill="#F3B700"/>
<path d="M403.099 211.953L379.142 225.78L371.15 221.165L395.124 207.273L403.099 211.953Z" fill="#FED852"/>
<path d="M387.719 239.98V230.768L411.676 216.957V226.17L387.719 239.98Z" fill="#AE2D2F"/>
<path d="M388.32 231.113L411.089 217.984V225.832L388.32 238.96V231.113Z" fill="#932325"/>
<path d="M387.718 230.786L379.743 226.172L379.711 235.384L387.718 239.983V230.786Z" fill="#CF3C34"/>
<path d="M380.314 235.039L380.331 227.191L387.117 231.107V238.955L380.314 235.039Z" fill="#AE2D2F"/>
<path d="M411.677 216.957L387.72 230.784L379.729 226.169L403.702 212.277L411.677 216.957Z" fill="#E9463D"/>
<path d="M396.297 245.034V235.822L420.254 222.027V231.224L396.297 245.034Z" fill="#F3B700"/>
<path d="M396.883 236.179L419.668 223.051V230.882L396.883 244.011V236.179Z" fill="#D9A200"/>
<path d="M396.296 235.821L388.305 231.223L388.289 240.435L396.296 245.033V235.821Z" fill="#E6A543"/>
<path d="M388.891 240.094L388.907 232.246L395.694 236.178V244.01L388.891 240.094Z" fill="#F3B700"/>
<path d="M420.253 222.011L396.296 235.838L388.305 231.224L412.278 217.332L420.253 222.011Z" fill="#FED852"/>
<path d="M404.873 250.008V240.795L428.83 226.984V236.197L404.873 250.008Z" fill="#AE2D2F"/>
<path d="M405.459 241.136L428.244 228.023V235.855L405.459 248.983V241.136Z" fill="#932325"/>
<path d="M404.873 240.79L396.882 236.191L396.865 245.404L404.873 250.002V240.79Z" fill="#CF3C34"/>
<path d="M397.451 245.066L397.467 237.219L404.27 241.135V248.982L397.451 245.066Z" fill="#AE2D2F"/>
<path d="M428.831 226.984L404.874 240.811L396.883 236.197L420.84 222.305L428.831 226.984Z" fill="#E9463D"/>
<path d="M413.449 254.878V245.682L437.406 231.871V241.067L413.449 254.878Z" fill="#AE2D2F"/>
<path d="M414.035 246.027L436.82 232.898V240.73L414.035 253.858V246.027Z" fill="#932325"/>
<path d="M413.451 245.681L405.46 241.066L405.443 250.295L413.451 254.877V245.681Z" fill="#CF3C34"/>
<path d="M406.029 249.958L406.046 242.094L412.849 246.026V253.857L406.029 249.958Z" fill="#AE2D2F"/>
<path d="M437.407 231.875L413.45 245.686L405.459 241.072L429.416 227.18L437.407 231.875Z" fill="#E9463D"/>
<path d="M379.158 225.456V216.26L403.115 202.449V211.646L379.158 225.456Z" fill="#AE2D2F"/>
<path d="M379.744 216.597L402.529 203.469V211.3L379.744 224.429V216.597Z" fill="#932325"/>
<path d="M379.158 216.259L371.167 211.645L371.15 220.873L379.158 225.455V216.259Z" fill="#CF3C34"/>
<path d="M371.736 220.531L371.753 212.684L378.556 216.599V224.431L371.736 220.531Z" fill="#AE2D2F"/>
<path d="M403.116 202.449L379.159 216.26L371.168 211.645L395.125 197.77L403.116 202.449Z" fill="#E9463D"/>
<path d="M387.719 230.426V221.213L411.676 207.402V216.615L387.719 230.426Z" fill="#AE2D2F"/>
<path d="M388.32 221.558L411.089 208.43V216.277L388.32 229.389V221.558Z" fill="#932325"/>
<path d="M387.718 221.215L379.743 216.617L379.711 225.83L387.718 230.428V221.215Z" fill="#CF3C34"/>
<path d="M380.314 225.488L380.331 217.641L387.117 221.556V229.404L380.314 225.488Z" fill="#AE2D2F"/>
<path d="M411.677 207.402L387.72 221.213L379.729 216.615L403.702 202.723L411.677 207.402Z" fill="#E9463D"/>
<path d="M396.297 235.48V226.268L420.254 212.457V221.67L396.297 235.48Z" fill="#AE2D2F"/>
<path d="M396.883 226.608L419.668 213.496V221.328L396.883 234.456V226.608Z" fill="#932325"/>
<path d="M396.296 226.27L388.305 221.672L388.289 230.884L396.296 235.483V226.27Z" fill="#CF3C34"/>
<path d="M388.891 230.539L388.907 222.691L395.694 226.607V234.455L388.891 230.539Z" fill="#AE2D2F"/>
<path d="M420.253 212.457L396.296 226.267L388.305 221.669L412.278 207.777L420.253 212.457Z" fill="#E9463D"/>
<path d="M404.873 240.433V231.221L428.846 217.41V226.623L404.873 240.433Z" fill="#F3B700"/>
<path d="M405.475 231.562L428.244 218.434V226.281L405.475 239.393V231.562Z" fill="#D9A200"/>
<path d="M404.873 231.223L396.882 226.625L396.865 235.838L404.873 240.436V231.223Z" fill="#E6A543"/>
<path d="M397.469 235.496L397.485 227.648L404.288 231.564V239.412L397.469 235.496Z" fill="#F3B700"/>
<path d="M428.847 217.414L404.873 231.224L396.898 226.626L420.856 212.734L428.847 217.414Z" fill="#FED852"/>
<path d="M413.449 245.362V236.166L437.423 222.355V231.552L413.449 245.362Z" fill="#F3B700"/>
<path d="M414.053 236.503L436.822 223.375V231.207L414.053 244.335V236.503Z" fill="#D9A200"/>
<path d="M413.451 236.165L405.46 231.551L405.443 240.78L413.451 245.361V236.165Z" fill="#E6A543"/>
<path d="M406.045 240.438L406.061 232.59L412.864 236.506V244.337L406.045 240.438Z" fill="#F3B700"/>
<path d="M437.423 222.351L413.45 236.162L405.459 231.548L429.432 217.672L437.423 222.351Z" fill="#FED852"/>
<path d="M353.395 259.383V250.186L377.352 236.359V245.572L353.395 259.383Z" fill="#F3B700"/>
<path d="M353.98 250.527L376.766 237.398V245.23L353.98 258.358V250.527Z" fill="#D9A200"/>
<path d="M353.395 250.181L345.404 245.566V254.795L353.395 259.377V250.181Z" fill="#E6A543"/>
<path d="M345.99 254.441L346.006 246.594L352.81 250.526V258.357L345.99 254.441Z" fill="#F3B700"/>
<path d="M377.369 236.359L353.395 250.186L345.404 245.572L369.378 231.68L377.369 236.359Z" fill="#FED852"/>
<path d="M361.971 264.387V255.174L385.928 241.363V250.576L361.971 264.387Z" fill="#AE2D2F"/>
<path d="M362.574 255.515L385.343 242.387V250.234L362.574 263.363V255.515Z" fill="#932325"/>
<path d="M361.972 255.172L353.981 250.574L353.965 259.787L361.972 264.385V255.172Z" fill="#CF3C34"/>
<path d="M354.566 259.445L354.583 251.598L361.369 255.53V263.361L354.566 259.445Z" fill="#AE2D2F"/>
<path d="M385.929 241.363L361.972 255.174L353.98 250.576L377.954 236.684L385.929 241.363Z" fill="#E9463D"/>
<path d="M370.549 269.441V260.229L394.506 246.418V255.631L370.549 269.441Z" fill="#F3B700"/>
<path d="M371.135 260.569L393.92 247.457V255.289L371.135 268.417V260.569Z" fill="#D9A200"/>
<path d="M370.548 260.223L362.557 255.625L362.541 264.838L370.548 269.436V260.223Z" fill="#E6A543"/>
<path d="M363.145 264.5L363.161 256.652L369.948 260.568V268.416L363.145 264.5Z" fill="#F3B700"/>
<path d="M394.505 246.418L370.548 260.228L362.557 255.63L386.53 241.738L394.505 246.418Z" fill="#FED852"/>
<path d="M379.125 274.41V265.197L403.082 251.387V260.599L379.125 274.41Z" fill="#AE2D2F"/>
<path d="M379.711 265.538L402.496 252.41V260.258L379.711 273.386V265.538Z" fill="#932325"/>
<path d="M379.127 265.196L371.135 260.598L371.119 269.81L379.127 274.408V265.196Z" fill="#CF3C34"/>
<path d="M371.721 269.469L371.737 261.621L378.524 265.537V273.385L371.721 269.469Z" fill="#AE2D2F"/>
<path d="M403.083 251.386L379.126 265.197L371.135 260.599L395.092 246.707L403.083 251.386Z" fill="#E9463D"/>
<path d="M387.703 279.284V270.088L411.66 256.277V265.474L387.703 279.284Z" fill="#AE2D2F"/>
<path d="M388.289 270.429L411.058 257.301V265.132L388.289 278.261V270.429Z" fill="#932325"/>
<path d="M387.703 270.087L379.712 265.473L379.695 274.685L387.703 279.283V270.087Z" fill="#CF3C34"/>
<path d="M380.281 274.344L380.298 266.496L387.101 270.428V278.26L380.281 274.344Z" fill="#AE2D2F"/>
<path d="M411.659 256.261L387.702 270.072L379.711 265.474L403.668 251.582L411.659 256.261Z" fill="#E9463D"/>
<path d="M353.395 249.828V240.615L377.352 226.805V236.017L353.395 249.828Z" fill="#F3B700"/>
<path d="M353.98 240.972L376.766 227.844V235.675L353.98 248.804V240.972Z" fill="#D9A200"/>
<path d="M353.395 240.614L345.404 236.016V245.228L353.395 249.826V240.614Z" fill="#E6A543"/>
<path d="M345.99 244.891L346.006 237.043L352.81 240.975V248.806L345.99 244.891Z" fill="#F3B700"/>
<path d="M377.369 226.804L353.395 240.615L345.404 236.017L369.378 222.125L377.369 226.804Z" fill="#FED852"/>
<path d="M361.971 254.832V245.619L385.928 231.809V241.021L361.971 254.832Z" fill="#AE2D2F"/>
<path d="M362.574 245.96L385.343 232.832V240.68L362.574 253.808V245.96Z" fill="#932325"/>
<path d="M361.972 245.618L353.981 241.02L353.965 250.232L361.972 254.83V245.618Z" fill="#CF3C34"/>
<path d="M354.566 249.895L354.583 242.047L361.369 245.963V253.81L354.566 249.895Z" fill="#AE2D2F"/>
<path d="M385.929 231.808L361.972 245.619L353.98 241.021L377.954 227.129L385.929 231.808Z" fill="#E9463D"/>
<path d="M370.549 259.887V250.674L394.506 236.863V246.076L370.549 259.887Z" fill="#F3B700"/>
<path d="M371.135 251.015L393.92 237.887V245.734L371.135 258.863V251.015Z" fill="#D9A200"/>
<path d="M370.548 250.672L362.557 246.074L362.541 255.287L370.548 259.885V250.672Z" fill="#E6A543"/>
<path d="M363.145 254.945L363.161 247.098L369.948 251.013V258.861L363.145 254.945Z" fill="#F3B700"/>
<path d="M394.505 236.863L370.548 250.674L362.557 246.076L386.53 232.184L394.505 236.863Z" fill="#FED852"/>
<path d="M379.125 264.855V255.643L403.082 241.832V251.045L379.125 264.855Z" fill="#AE2D2F"/>
<path d="M379.711 255.983L402.496 242.871V250.703L379.711 263.815V255.983Z" fill="#932325"/>
<path d="M379.127 255.645L371.135 251.047L371.119 260.259L379.127 264.858V255.645Z" fill="#CF3C34"/>
<path d="M371.721 259.914L371.737 252.066L378.524 255.982V263.814L371.721 259.914Z" fill="#AE2D2F"/>
<path d="M403.083 241.832L379.126 255.642L371.135 251.044L395.092 237.152L403.083 241.832Z" fill="#E9463D"/>
<path d="M387.703 269.73V260.518L411.66 246.707V255.92L387.703 269.73Z" fill="#AE2D2F"/>
<path d="M388.289 260.858L411.058 247.746V255.578L388.289 268.706V260.858Z" fill="#932325"/>
<path d="M387.703 260.52L379.712 255.922L379.695 265.134L387.703 269.733V260.52Z" fill="#CF3C34"/>
<path d="M380.281 264.792L380.298 256.961L387.101 260.86V268.708L380.281 264.792Z" fill="#AE2D2F"/>
<path d="M411.659 246.707L387.702 260.517L379.711 255.919L403.668 242.027L411.659 246.707Z" fill="#E9463D"/>
<path d="M353.41 240.305V231.108L377.367 217.281V226.494L353.41 240.305Z" fill="#AE2D2F"/>
<path d="M353.996 231.453L376.781 218.324V226.156L353.996 239.284V231.453Z" fill="#932325"/>
<path d="M353.412 231.094L345.421 226.496L345.404 235.709L353.412 240.307V231.094Z" fill="#CF3C34"/>
<path d="M345.99 235.367L346.023 227.52L352.81 231.452V239.283L345.99 235.367Z" fill="#AE2D2F"/>
<path d="M377.368 217.285L353.411 231.112L345.42 226.497L369.377 212.605L377.368 217.285Z" fill="#E9463D"/>
<path d="M361.971 245.23V236.018L385.928 222.207V231.42L361.971 245.23Z" fill="#F3B700"/>
<path d="M362.574 236.359L385.343 223.23V231.062L362.574 244.19V236.359Z" fill="#D9A200"/>
<path d="M361.972 236.016L353.981 231.418L353.965 240.631L361.972 245.229V236.016Z" fill="#E6A543"/>
<path d="M354.566 240.289L354.583 232.441L361.369 236.357V244.189L354.566 240.289Z" fill="#F3B700"/>
<path d="M385.929 222.207L361.972 236.017L353.98 231.419L377.954 217.527L385.929 222.207Z" fill="#FED852"/>
<path d="M370.549 250.332V241.119L394.506 227.309V236.521L370.549 250.332Z" fill="#AE2D2F"/>
<path d="M371.135 241.46L393.92 228.332V236.18L371.135 249.308V241.46Z" fill="#932325"/>
<path d="M370.548 241.118L362.557 236.52L362.541 245.732L370.548 250.33V241.118Z" fill="#CF3C34"/>
<path d="M363.145 245.395L363.161 237.547L369.948 241.463V249.31L363.145 245.395Z" fill="#AE2D2F"/>
<path d="M394.505 227.304L370.548 241.115L362.557 236.517L386.53 222.625L394.505 227.304Z" fill="#E9463D"/>
<path d="M379.125 255.289V246.076L403.098 232.266V241.462L379.125 255.289Z" fill="#F3B700"/>
<path d="M379.729 246.413L402.498 233.285V241.117L379.729 254.245V246.413Z" fill="#D9A200"/>
<path d="M379.127 246.071L371.152 241.473L371.119 250.685L379.127 255.267V246.071Z" fill="#E6A543"/>
<path d="M371.721 250.348L371.737 242.5L378.54 246.416V254.247L371.721 250.348Z" fill="#F3B700"/>
<path d="M403.099 232.265L379.125 246.076L371.15 241.462L395.107 227.586L403.099 232.265Z" fill="#FED852"/>
<path d="M327.078 274.23V265.018L351.035 251.207V260.42L327.078 274.23Z" fill="#F3B700"/>
<path d="M327.664 265.363L350.449 252.234V260.082L327.664 273.21V265.363Z" fill="#D9A200"/>
<path d="M327.078 265.02L319.087 260.422L319.07 269.634L327.078 274.233V265.02Z" fill="#E6A543"/>
<path d="M319.672 269.289L319.688 261.441L326.475 265.357V273.205L319.672 269.289Z" fill="#F3B700"/>
<path d="M351.034 251.207L327.077 265.017L319.086 260.419L343.043 246.527L351.034 251.207Z" fill="#FED852"/>
<path d="M335.654 279.234V270.022L359.611 256.211V265.423L335.654 279.234Z" fill="#AE2D2F"/>
<path d="M336.24 270.367L359.026 257.238V265.07L336.24 278.198V270.367Z" fill="#932325"/>
<path d="M335.654 270.021L327.663 265.406L327.646 274.635L335.654 279.233V270.021Z" fill="#CF3C34"/>
<path d="M328.232 274.297L328.249 266.449L335.052 270.365V278.213L328.232 274.297Z" fill="#AE2D2F"/>
<path d="M359.612 256.211L335.655 270.021L327.664 265.423L351.621 251.531L359.612 256.211Z" fill="#E9463D"/>
<path d="M344.232 284.289V275.076L368.19 261.266V270.478L344.232 284.289Z" fill="#F3B700"/>
<path d="M344.818 275.421L367.604 262.293V270.141L344.818 283.253V275.421Z" fill="#D9A200"/>
<path d="M344.232 275.079L336.241 270.48L336.225 279.693L344.232 284.291V275.079Z" fill="#E6A543"/>
<path d="M336.811 279.348L336.827 271.5L343.63 275.416V283.263L336.811 279.348Z" fill="#F3B700"/>
<path d="M368.188 261.265L344.231 275.076L336.24 270.478L360.197 256.586L368.188 261.265Z" fill="#FED852"/>
<path d="M352.793 289.262V280.049L376.766 266.238V275.435L352.793 289.262Z" fill="#AE2D2F"/>
<path d="M353.395 280.39L376.164 267.262V275.109L353.395 288.222V280.39Z" fill="#932325"/>
<path d="M352.793 280.048L344.818 275.434L344.785 284.662L352.793 289.261V280.048Z" fill="#CF3C34"/>
<path d="M345.404 284.32V276.473L352.207 280.388V288.22L345.404 284.32Z" fill="#AE2D2F"/>
<path d="M376.767 266.238L352.809 280.049L344.818 275.434L368.775 261.559L376.767 266.238Z" fill="#E9463D"/>
<path d="M361.402 294.168V284.971L385.359 271.145V280.357L361.402 294.168Z" fill="#F3B700"/>
<path d="M361.988 285.312L384.757 272.184V280.015L361.988 293.143V285.312Z" fill="#D9A200"/>
<path d="M361.403 284.974L353.411 280.359L353.379 289.588L361.403 294.17V284.974Z" fill="#E6A543"/>
<path d="M353.98 289.227L353.997 281.379L360.8 285.311V293.142L353.98 289.227Z" fill="#F3B700"/>
<path d="M385.358 271.144L361.401 284.971L353.41 280.357L377.367 266.465L385.358 271.144Z" fill="#FED852"/>
<path d="M327.078 264.676V255.463L351.035 241.652V250.865L327.078 264.676Z" fill="#F3B700"/>
<path d="M327.664 255.808L350.449 242.68V250.527L327.664 263.639V255.808Z" fill="#D9A200"/>
<path d="M327.078 255.465L319.087 250.867L319.07 260.08L327.078 264.678V255.465Z" fill="#E6A543"/>
<path d="M319.672 259.738L319.688 251.891L326.475 255.806V263.654L319.672 259.738Z" fill="#F3B700"/>
<path d="M351.034 241.652L327.077 255.463L319.086 250.865L343.043 236.973L351.034 241.652Z" fill="#FED852"/>
<path d="M335.654 269.663V260.467L359.611 246.656V255.853L335.654 269.663Z" fill="#AE2D2F"/>
<path d="M336.24 260.812L359.026 247.684V255.515L336.24 268.643V260.812Z" fill="#932325"/>
<path d="M335.654 260.47L327.663 255.855L327.646 265.084L335.654 269.682V260.47Z" fill="#CF3C34"/>
<path d="M328.232 264.742L328.249 256.895L335.052 260.81V268.642L328.232 264.742Z" fill="#AE2D2F"/>
<path d="M359.612 246.66L335.655 260.471L327.664 255.856L351.621 241.98L359.612 246.66Z" fill="#E9463D"/>
<path d="M344.232 274.734V265.522L368.19 251.711V260.923L344.232 274.734Z" fill="#F3B700"/>
<path d="M344.818 265.867L367.604 252.738V260.57L344.818 273.698V265.867Z" fill="#D9A200"/>
<path d="M344.232 265.524L336.241 260.926L336.225 270.138L344.232 274.736V265.524Z" fill="#E6A543"/>
<path d="M336.811 269.797L336.827 261.949L343.63 265.865V273.696L336.811 269.797Z" fill="#F3B700"/>
<path d="M368.188 251.711L344.231 265.521L336.24 260.923L360.197 247.031L368.188 251.711Z" fill="#FED852"/>
<path d="M352.793 279.707V270.494L376.766 256.684V265.896L352.793 279.707Z" fill="#AE2D2F"/>
<path d="M353.395 270.835L376.164 257.707V265.539L353.395 278.667V270.835Z" fill="#932325"/>
<path d="M352.793 270.497L344.818 265.898L344.785 275.111L352.793 279.693V270.497Z" fill="#CF3C34"/>
<path d="M345.404 274.77V266.922L352.207 270.838V278.669L345.404 274.77Z" fill="#AE2D2F"/>
<path d="M376.767 256.683L352.809 270.494L344.818 265.88L368.775 252.004L376.767 256.683Z" fill="#E9463D"/>
<path d="M361.369 284.582V275.369L385.343 261.559V270.771L361.369 284.582Z" fill="#AE2D2F"/>
<path d="M361.971 275.71L384.74 262.582V270.414L361.971 283.558V275.71Z" fill="#932325"/>
<path d="M361.369 275.368L353.378 270.77L353.361 279.982L361.369 284.58V275.368Z" fill="#CF3C34"/>
<path d="M353.965 279.645L353.981 271.797L360.784 275.713V283.56L353.965 279.645Z" fill="#AE2D2F"/>
<path d="M385.343 261.558L361.37 275.369L353.379 270.771L377.352 256.879L385.343 261.558Z" fill="#E9463D"/>
<path d="M335.654 260.129V250.916L359.611 237.105V246.302L335.654 260.129Z" fill="#AE2D2F"/>
<path d="M336.24 251.257L359.026 238.129V245.96L336.24 259.089V251.257Z" fill="#932325"/>
<path d="M335.654 250.915L327.663 246.301L327.646 255.53L335.654 260.128V250.915Z" fill="#CF3C34"/>
<path d="M328.232 255.188L328.249 247.34L335.052 251.256V259.087L328.232 255.188Z" fill="#AE2D2F"/>
<path d="M359.612 237.105L335.655 250.916L327.664 246.301L351.621 232.426L359.612 237.105Z" fill="#E9463D"/>
<path d="M344.166 265.067V255.854L368.123 242.027V251.24L344.166 265.067Z" fill="#F3B700"/>
<path d="M344.77 256.195L367.539 243.066V250.898L344.77 264.026V256.195Z" fill="#D9A200"/>
<path d="M344.168 255.857L336.193 251.242L336.16 260.471L344.168 265.069V255.857Z" fill="#E6A543"/>
<path d="M336.762 260.129L336.778 252.281L343.581 256.197V264.028L336.762 260.129Z" fill="#F3B700"/>
<path d="M368.14 242.027L344.167 255.854L336.176 251.256L360.149 237.348L368.14 242.027Z" fill="#FED852"/>
<path d="M352.793 270.12V260.924L376.766 247.113V256.31L352.793 270.12Z" fill="#AE2D2F"/>
<path d="M353.395 261.269L376.164 248.141V255.972L353.395 269.1V261.269Z" fill="#932325"/>
<path d="M352.793 260.923L344.818 256.309L344.785 265.537L352.793 270.119V260.923Z" fill="#CF3C34"/>
<path d="M345.404 265.179V257.348L352.207 261.263V269.095L345.404 265.179Z" fill="#AE2D2F"/>
<path d="M376.767 247.113L352.809 260.924L344.818 256.309L368.775 242.434L376.767 247.113Z" fill="#E9463D"/>
<path d="M361.387 275.058V265.846L385.344 252.035V261.248L361.387 275.058Z" fill="#F3B700"/>
<path d="M361.988 266.19L384.757 253.078V260.91L361.988 274.022V266.19Z" fill="#D9A200"/>
<path d="M361.386 265.848L353.395 261.25L353.379 270.463L361.386 275.061V265.848Z" fill="#E6A543"/>
<path d="M353.965 270.121L353.981 262.273L360.784 266.189V274.037L353.965 270.121Z" fill="#F3B700"/>
<path d="M385.343 252.039L361.386 265.849L353.395 261.251L377.368 247.359L385.343 252.039Z" fill="#FED852"/>
<path d="M300.729 289.101V279.889L324.702 266.078V275.291L300.729 289.101Z" fill="#F3B700"/>
<path d="M301.33 280.229L324.099 267.117V274.949L301.33 288.061V280.229Z" fill="#D9A200"/>
<path d="M300.728 279.883L292.753 275.285L292.721 284.498L300.728 289.096V279.883Z" fill="#E6A543"/>
<path d="M293.322 284.156L293.339 276.309L300.142 280.224V288.072L293.322 284.156Z" fill="#F3B700"/>
<path d="M324.701 266.074L300.727 279.885L292.736 275.286L316.71 261.395L324.701 266.074Z" fill="#FED852"/>
<path d="M309.305 294.105V284.893L333.278 271.082V280.278L309.305 294.105Z" fill="#AE2D2F"/>
<path d="M309.908 285.234L332.677 272.105V279.937L309.908 293.065V285.234Z" fill="#932325"/>
<path d="M309.304 284.891L301.313 280.293L301.297 289.506L309.304 294.104V284.891Z" fill="#CF3C34"/>
<path d="M301.9 289.16L301.917 281.312L308.72 285.228V293.06L301.9 289.16Z" fill="#AE2D2F"/>
<path d="M333.279 271.078L309.306 284.889L301.314 280.29L325.288 266.398L333.279 271.078Z" fill="#E9463D"/>
<path d="M317.883 299.152V289.94L341.84 276.129V285.341L317.883 299.152Z" fill="#F3B700"/>
<path d="M318.484 290.285L341.253 277.156V285.004L318.484 298.116V290.285Z" fill="#D9A200"/>
<path d="M317.882 289.942L309.891 285.344L309.875 294.556L317.882 299.154V289.942Z" fill="#E6A543"/>
<path d="M310.461 294.215L310.494 286.367L317.28 290.283V298.114L310.461 294.215Z" fill="#F3B700"/>
<path d="M341.839 276.133L317.882 289.943L309.891 285.345L333.864 271.453L341.839 276.133Z" fill="#FED852"/>
<path d="M326.459 304.129V294.916L350.432 281.105V290.302L326.459 304.129Z" fill="#AE2D2F"/>
<path d="M327.045 295.253L349.83 282.125V289.957L327.045 303.085V295.253Z" fill="#932325"/>
<path d="M326.459 294.915L318.467 290.316L318.451 299.529L326.459 304.127V294.915Z" fill="#CF3C34"/>
<path d="M319.055 299.188L319.071 291.34L325.858 295.256V303.087L319.055 299.188Z" fill="#AE2D2F"/>
<path d="M350.433 281.105L326.46 294.916L318.469 290.301L342.426 276.426L350.433 281.105Z" fill="#E9463D"/>
<path d="M335.037 309.004V299.791L358.994 285.98V295.193L335.037 309.004Z" fill="#AE2D2F"/>
<path d="M335.623 300.128L358.408 287V294.832L335.623 307.976V300.128Z" fill="#932325"/>
<path d="M335.037 299.79L327.046 295.191L327.029 304.404L335.037 309.002V299.79Z" fill="#CF3C34"/>
<path d="M327.615 304.063L327.632 296.215L334.435 300.131V307.978L327.615 304.063Z" fill="#AE2D2F"/>
<path d="M358.993 285.98L335.036 299.791L327.045 295.193L351.002 281.301L358.993 285.98Z" fill="#E9463D"/>
<path d="M300.729 279.547V270.334L324.702 256.523V265.736L300.729 279.547Z" fill="#F3B700"/>
<path d="M301.33 270.675L324.099 257.547V265.395L301.33 278.507V270.675Z" fill="#D9A200"/>
<path d="M300.728 270.333L292.753 265.734L292.721 274.947L300.728 279.545V270.333Z" fill="#E6A543"/>
<path d="M293.322 274.602L293.339 266.754L300.142 270.67V278.517L293.322 274.602Z" fill="#F3B700"/>
<path d="M324.701 256.519L300.727 270.33L292.736 265.732L316.71 251.84L324.701 256.519Z" fill="#FED852"/>
<path d="M309.305 284.551V275.322L333.278 261.527V270.724L309.305 284.551Z" fill="#AE2D2F"/>
<path d="M309.908 275.679L332.677 262.551V270.382L309.908 283.511V275.679Z" fill="#932325"/>
<path d="M309.304 275.333L301.313 270.719L301.297 279.948L309.304 284.546V275.333Z" fill="#CF3C34"/>
<path d="M301.9 279.609L301.917 271.762L308.72 275.677V283.509L301.9 279.609Z" fill="#AE2D2F"/>
<path d="M333.279 261.523L309.306 275.334L301.314 270.719L325.288 256.844L333.279 261.523Z" fill="#E9463D"/>
<path d="M317.883 289.601V280.389L341.84 266.578V275.774L317.883 289.601Z" fill="#F3B700"/>
<path d="M318.484 280.734L341.253 267.605V275.437L318.484 288.565V280.734Z" fill="#D9A200"/>
<path d="M317.882 280.391L309.891 275.793L309.875 285.006L317.882 289.604V280.391Z" fill="#E6A543"/>
<path d="M310.461 284.66L310.494 276.812L317.28 280.728V288.56L310.461 284.66Z" fill="#F3B700"/>
<path d="M341.839 266.578L317.882 280.389L309.891 275.79L333.864 261.898L341.839 266.578Z" fill="#FED852"/>
<path d="M326.459 294.574V285.361L350.432 271.551V280.747L326.459 294.574Z" fill="#AE2D2F"/>
<path d="M327.045 285.703L349.83 272.574V280.406L327.045 293.534V285.703Z" fill="#932325"/>
<path d="M326.459 285.36L318.467 280.746L318.451 289.975L326.459 294.573V285.36Z" fill="#CF3C34"/>
<path d="M319.055 289.633L319.071 281.785L325.858 285.701V293.532L319.055 289.633Z" fill="#AE2D2F"/>
<path d="M350.433 271.551L326.46 285.362L318.469 280.747L342.426 266.855L350.433 271.551Z" fill="#E9463D"/>
<path d="M335.037 299.449V290.236L358.994 276.426V285.638L335.037 299.449Z" fill="#AE2D2F"/>
<path d="M335.623 290.578L358.408 277.449V285.281L335.623 298.409V290.578Z" fill="#932325"/>
<path d="M335.037 290.239L327.046 285.641L327.029 294.853L335.037 299.451V290.239Z" fill="#CF3C34"/>
<path d="M327.615 294.508L327.632 286.66L334.435 290.576V298.424L327.615 294.508Z" fill="#AE2D2F"/>
<path d="M358.993 276.425L335.036 290.236L327.045 285.638L351.002 271.746L358.993 276.425Z" fill="#E9463D"/>
<path d="M300.744 270.023V260.811L324.701 247V256.213L300.744 270.023Z" fill="#AE2D2F"/>
<path d="M301.33 261.155L324.115 248.043V255.874L301.33 269.003V261.155Z" fill="#932325"/>
<path d="M300.744 260.809L292.753 256.211L292.736 265.423L300.744 270.022V260.809Z" fill="#CF3C34"/>
<path d="M293.34 265.086V257.238L300.143 261.154V269.002L293.34 265.086Z" fill="#AE2D2F"/>
<path d="M324.702 247.004L300.745 260.814L292.754 256.216L316.727 242.324L324.702 247.004Z" fill="#E9463D"/>
<path d="M309.305 274.98V265.784L333.278 251.957V261.17L309.305 274.98Z" fill="#AE2D2F"/>
<path d="M309.908 266.124L332.677 252.996V260.828L309.908 273.956V266.124Z" fill="#932325"/>
<path d="M309.304 265.782L301.313 261.168L301.297 270.397L309.304 274.979V265.782Z" fill="#CF3C34"/>
<path d="M301.9 270.055L301.917 262.207L308.72 266.123V273.954L301.9 270.055Z" fill="#AE2D2F"/>
<path d="M333.279 251.956L309.306 265.783L301.314 261.169L325.288 247.293L333.279 251.956Z" fill="#E9463D"/>
<path d="M317.883 280.03V270.834L341.84 257.023V266.22L317.883 280.03Z" fill="#AE2D2F"/>
<path d="M318.484 271.179L341.253 258.051V265.899L318.484 279.011V271.179Z" fill="#932325"/>
<path d="M317.882 270.833L309.891 266.219L309.875 275.448L317.882 280.029V270.833Z" fill="#CF3C34"/>
<path d="M310.461 275.109L310.494 267.262L317.28 271.177V279.009L310.461 275.109Z" fill="#AE2D2F"/>
<path d="M341.839 257.023L317.882 270.834L309.891 266.219L333.864 252.344L341.839 257.023Z" fill="#E9463D"/>
<path d="M326.475 284.988V275.791L350.432 261.98V271.177L326.475 284.988Z" fill="#F3B700"/>
<path d="M327.061 276.132L349.83 263.004V270.835L327.061 283.964V276.132Z" fill="#D9A200"/>
<path d="M326.476 275.79L318.485 271.176L318.469 280.405L326.476 284.986V275.79Z" fill="#E6A543"/>
<path d="M319.055 280.046L319.071 272.215L325.874 276.131V283.962L319.055 280.046Z" fill="#F3B700"/>
<path d="M350.433 261.981L326.475 275.792L318.484 271.177L342.441 257.285L350.433 261.981Z" fill="#FED852"/>
<path d="M335.037 289.926V280.713L358.994 266.902V276.115L335.037 289.926Z" fill="#F3B700"/>
<path d="M335.639 281.053L358.408 267.941V275.757L335.639 288.901V281.053Z" fill="#D9A200"/>
<path d="M335.036 280.715L327.061 276.117L327.045 285.33L335.036 289.928V280.715Z" fill="#E6A543"/>
<path d="M327.631 284.988L327.647 277.141L334.45 281.073V288.904L327.631 284.988Z" fill="#F3B700"/>
<path d="M359.009 266.902L335.036 280.713L327.045 276.115L351.018 262.223L359.009 266.902Z" fill="#FED852"/>
<path d="M274.02 329.102C273.239 330.141 271.725 330.613 270.618 330.158C269.512 329.703 269.251 328.484 270.032 327.444C270.814 326.404 272.327 325.933 273.434 326.388C274.541 326.843 274.801 328.062 274.02 329.102Z" fill="#393939"/>
<path d="M273.873 328.777C273.092 329.817 271.578 330.288 270.472 329.833C269.365 329.379 269.105 328.16 269.886 327.12C270.651 326.08 272.181 325.609 273.287 326.064C274.394 326.519 274.655 327.737 273.873 328.777Z" fill="#595858"/>
<path d="M250.178 312.25C249.397 313.29 247.883 313.761 246.777 313.306C245.686 312.851 245.426 311.633 246.207 310.593C246.988 309.553 248.502 309.082 249.609 309.537C250.715 309.992 250.976 311.21 250.195 312.25" fill="#393939"/>
<path d="M250.031 311.93C249.25 312.986 247.736 313.441 246.629 312.986C245.539 312.531 245.262 311.312 246.043 310.272C246.825 309.233 248.355 308.761 249.445 309.216C250.535 309.671 250.812 310.89 250.031 311.93Z" fill="#595858"/>
<path d="M248.403 331.032C247.036 332.852 244.367 333.68 242.446 332.868C240.526 332.072 240.07 329.943 241.421 328.124C242.788 326.304 245.457 325.475 247.378 326.271C249.298 327.068 249.754 329.196 248.387 331.032" fill="#393939"/>
<path d="M248.143 330.481C246.776 332.3 244.107 333.129 242.187 332.333C240.266 331.537 239.811 329.408 241.178 327.589C242.545 325.769 245.198 324.94 247.134 325.736C249.055 326.532 249.511 328.661 248.143 330.481Z" fill="#595858"/>
<path d="M282.76 293.551L305.333 306.485L309.012 304.048V302.91L286.405 291.699L282.76 292.414V293.551Z" fill="#ACAEAF"/>
<path d="M282.76 292.415L305.333 305.349L309.012 302.912L286.405 290.547L282.76 292.415Z" fill="#E0E0E0"/>
<path d="M305.333 305.343L282.76 292.41V293.548L305.333 306.481V305.343Z" fill="#C3C5C4"/>
<path d="M268.471 304.924L282.76 313.26L290.1 308.564V307.41L275.762 300.781L268.471 303.803V304.924Z" fill="#ACAEAF"/>
<path d="M268.471 303.788L282.76 312.123L290.1 307.411L275.762 299.645L268.471 303.788Z" fill="#E0E0E0"/>
<path d="M282.76 312.124L268.471 303.805V304.926L282.76 313.261V312.124Z" fill="#C3C5C4"/>
<path d="M275.908 305.915L278.089 283.835L278.887 283.055L280.042 283.688L283.574 305.932L280.351 308.531L275.908 305.915Z" fill="#F3F4F5"/>
<path d="M284.388 306.468L280.042 283.688L279.652 283.461L279.131 284.111L280.335 308.515L280.351 308.531L284.388 306.468Z" fill="#DDDDDD"/>
<path d="M279.148 284.498L279.978 283.702L278.887 283.117L278.139 283.865L279.148 284.498Z" fill="#A5A7A9"/>
<g style="mix-blend-mode:multiply" opacity="0.1">
<mask id="mask16_1228_10669" style="mask-type:luminance" maskUnits="userSpaceOnUse" x="244" y="205" width="296" height="173">
<path d="M539.453 205.859H244.596V377.015H539.453V205.859Z" fill="white"/>
</mask>
<g mask="url(#mask16_1228_10669)">
<mask id="mask17_1228_10669" style="mask-type:luminance" maskUnits="userSpaceOnUse" x="244" y="205" width="296" height="173">
<path d="M539.453 205.859H244.596V377.015H539.453V205.859Z" fill="white"/>
</mask>
<g mask="url(#mask17_1228_10669)">
<path d="M539.454 230.423L495.25 205.84C469.682 220.122 444.113 234.404 418.545 248.702C375.318 272.846 362.965 281.896 319.787 306.138C300.387 317.04 300.941 316.878 281.28 327.212C270.408 332.947 235.905 350.121 246.614 368.075C252.506 377.97 280.938 377.743 289.825 376.215C308.899 372.95 373.007 336.733 396.329 323.215C439.101 298.42 513.43 251.74 522.658 245.501C522.658 245.501 538.314 234.891 539.437 230.423" fill="#231815"/>
</g>
</g>
</g>
</svg>
