<svg width="127" height="60" viewBox="0 0 127 60" fill="none" xmlns="http://www.w3.org/2000/svg">
<rect x="1.32812" y="1" width="124" height="58" rx="7" fill="white"/>
<rect x="1.32812" y="1" width="124" height="58" rx="7" stroke="#EEC288" stroke-width="2"/>
<rect x="5.32812" y="5" width="116" height="50" rx="5" fill="white"/>
<rect x="5.32812" y="5" width="116" height="50" rx="5" stroke="#EEC288" stroke-width="2"/>
<path d="M30.787 14.04V17.48H17.787V34.44H19.907C25.107 34.44 29.587 34.08 34.067 33.4L34.587 36.72C29.827 37.56 25.067 37.88 19.067 37.88H13.827V14.04H30.787ZM46.547 24.04V27.48H40.867V47.6H36.907V10.72H40.867V24.04H46.547ZM75.9211 27.8V31.16H65.3211V39.32H80.2411V42.68H46.4011V39.32H61.3211V31.16H50.9611V13.8H75.4811V17.16H54.9211V27.8H75.9211ZM109.855 12.12V28.48H85.6152V12.16H89.5352V17.2H105.935V12.12H109.855ZM99.7352 47.6H95.7352V35.88H80.8152V32.52H114.655V35.88H99.7352V47.6ZM89.5352 20.56V25.08H105.935V20.56H89.5352Z" fill="#1E1E1E"/>
</svg>
