<svg width="167" height="60" viewBox="0 0 167 60" fill="none" xmlns="http://www.w3.org/2000/svg">
<rect x="1.66406" y="1" width="164" height="58" rx="7" fill="white"/>
<rect x="1.66406" y="1" width="164" height="58" rx="7" stroke="#EEC288" stroke-width="2"/>
<rect x="5.66406" y="5" width="156" height="50" rx="5" fill="white"/>
<rect x="5.66406" y="5" width="156" height="50" rx="5" stroke="#EEC288" stroke-width="2"/>
<path d="M18.0759 39.92L16.1559 36.76C25.2359 31.72 28.0759 29.12 28.9559 26.32L16.1959 26.68L16.0759 23.36L29.2359 23.12V17.4H16.8359V14.04H33.1559V21.84C33.1559 28.76 32.9159 31.56 18.0759 39.92ZM49.6759 24.2V27.64H43.9959V47.6H40.0359V10.72H43.9959V24.2H49.6759ZM79.33 29.44H54.29V19.36H74.53V15.92H54.13V12.6H78.45V22.68H58.21V26.12H79.33V29.44ZM68.45 47.6H64.45V36.16H49.53V32.8H83.37V36.16H68.45V47.6ZM102.864 17.08H89.9041V24.08H102.064V27.44H89.9041V34.92H93.3841C98.7041 34.92 101.824 34.72 105.984 34.12L106.424 37.48C102.704 38.04 99.0641 38.32 92.4241 38.32H85.9841V13.68H102.864V17.08ZM118.544 24.2V27.64H112.864V47.6H108.904V10.72H112.864V24.2H118.544ZM147.398 12.12V28.48H123.158V12.16H127.078V17.2H143.478V12.12H147.398ZM137.278 47.6H133.278V35.88H118.358V32.52H152.198V35.88H137.278V47.6ZM127.078 20.56V25.08H143.478V20.56H127.078Z" fill="#1E1E1E"/>
</svg>
