<svg width="127" height="60" viewBox="0 0 127 60" fill="none" xmlns="http://www.w3.org/2000/svg">
<rect x="1.32812" y="1" width="124" height="58" rx="7" fill="white"/>
<rect x="1.32812" y="1" width="124" height="58" rx="7" stroke="#EEC288" stroke-width="2"/>
<rect x="5.32812" y="5" width="116" height="50" rx="5" fill="white"/>
<rect x="5.32812" y="5" width="116" height="50" rx="5" stroke="#EEC288" stroke-width="2"/>
<path d="M41.507 27.8V31.16H30.907V39.32H45.827V42.68H11.987V39.32H26.907V31.16H16.547V13.8H41.067V17.16H20.507V27.8H41.507ZM55.3611 13.48C59.0811 13.48 61.6011 15.32 62.7211 18.84H67.6811V11.48H71.5211V45.8H67.6811V33.04H62.8011C61.6811 36.72 59.2011 38.6 55.3611 38.6C50.0811 38.6 47.2811 35 47.2811 28V24.08C47.2811 17.08 50.0411 13.48 55.3611 13.48ZM78.5211 10.72V47.6H74.6411V10.72H78.5211ZM55.3611 35.12C58.4811 35.12 59.7211 32.48 59.7211 27.56V24.52C59.7211 19.56 58.4411 17 55.3611 17C52.2811 17 51.0011 19.56 51.0011 24.52V27.56C51.0011 32.52 52.2811 35.12 55.3611 35.12ZM63.4411 24.08V28C63.4411 28.56 63.4011 29.12 63.3611 29.64H67.6811V22.24H63.3611C63.4011 22.84 63.4411 23.44 63.4411 24.08ZM109.855 12.12V28.48H85.6152V12.16H89.5352V17.2H105.935V12.12H109.855ZM99.7352 47.6H95.7352V35.88H80.8152V32.52H114.655V35.88H99.7352V47.6ZM89.5352 20.56V25.08H105.935V20.56H89.5352Z" fill="#1E1E1E"/>
</svg>
