<svg width="127" height="60" viewBox="0 0 127 60" fill="none" xmlns="http://www.w3.org/2000/svg">
<rect x="1.66406" y="1" width="124" height="58" rx="7" fill="white"/>
<rect x="1.66406" y="1" width="124" height="58" rx="7" stroke="#EEC288" stroke-width="2"/>
<rect x="5.66406" y="5" width="116" height="50" rx="5" fill="white"/>
<rect x="5.66406" y="5" width="116" height="50" rx="5" stroke="#EEC288" stroke-width="2"/>
<path d="M41.683 38.08H37.763V10.72H41.683V21.96H46.883V25.4H41.683V38.08ZM22.123 36.16V43.84H42.683V47.24H18.163V36.16H22.123ZM35.483 28.4L35.803 31.68C29.443 32.32 24.643 32.6 12.323 32.6V29.2H19.683V21.56H23.603V29.12C28.003 29 31.283 28.8 35.483 28.4ZM32.003 25.76L28.123 25.28C28.723 22.52 29.003 19.84 29.003 17.56V16H14.803V12.6H32.923V17C32.923 19.84 32.563 23.44 32.003 25.76ZM66.057 20.12V22.16C66.057 25.72 63.177 30.24 56.897 30.24C50.617 30.24 47.737 25.72 47.737 22.16V20.12C47.737 16.56 50.617 12.04 56.897 12.04C63.177 12.04 66.057 16.56 66.057 20.12ZM52.537 37.44V34.04H75.857V47.96H71.897V37.44H52.537ZM81.097 19.36V22.8H75.857V32.12H71.937V10.72H75.857V19.36H81.097ZM62.257 21.96V20.32C62.257 17.96 60.577 15.48 56.897 15.48C53.217 15.48 51.537 17.96 51.537 20.32V21.96C51.537 24.32 53.217 26.8 56.897 26.8C60.577 26.8 62.257 24.32 62.257 21.96ZM110.191 12.12V28.48H85.9511V12.16H89.8711V17.2H106.271V12.12H110.191ZM100.071 47.6H96.0711V35.88H81.1511V32.52H114.991V35.88H100.071V47.6ZM89.8711 20.56V25.08H106.271V20.56H89.8711Z" fill="#1E1E1E"/>
</svg>
