<svg width="126" height="60" viewBox="0 0 126 60" fill="none" xmlns="http://www.w3.org/2000/svg">
<rect x="1" y="1" width="124" height="58" rx="7" fill="white"/>
<rect x="1" y="1" width="124" height="58" rx="7" stroke="#EEC288" stroke-width="2"/>
<rect x="5" y="5" width="116" height="50" rx="5" fill="white"/>
<rect x="5" y="5" width="116" height="50" rx="5" stroke="#EEC288" stroke-width="2"/>
<path d="M42.4989 47.6H38.5389V25.6H30.6989V22.12H38.5389V10.72H42.4989V47.6ZM22.8189 29.08H22.7789C22.4189 29.96 21.7389 30.76 20.4589 32.16C18.8189 33.96 16.6989 36.08 13.9789 38.56L11.3789 35.88C13.8189 33.72 15.8989 31.68 17.6989 29.68C20.1389 26.92 20.7789 25.12 20.7789 22.28V13.4H24.7789V22.28C24.7789 25.44 25.5389 27.08 27.9789 29.8C29.6989 31.68 31.4589 33.36 33.8589 35.48L31.2989 38.2C28.5389 35.64 26.7389 33.84 25.2189 32.2C24.0989 31 23.1389 29.88 22.8189 29.08ZM55.033 13.48C58.753 13.48 61.273 15.32 62.393 18.84H67.353V11.48H71.193V45.8H67.353V33.04H62.473C61.353 36.72 58.873 38.6 55.033 38.6C49.753 38.6 46.953 35 46.953 28V24.08C46.953 17.08 49.713 13.48 55.033 13.48ZM78.193 10.72V47.6H74.313V10.72H78.193ZM55.033 35.12C58.153 35.12 59.393 32.48 59.393 27.56V24.52C59.393 19.56 58.113 17 55.033 17C51.953 17 50.673 19.56 50.673 24.52V27.56C50.673 32.52 51.953 35.12 55.033 35.12ZM63.113 24.08V28C63.113 28.56 63.073 29.12 63.033 29.64H67.353V22.24H63.033C63.073 22.84 63.113 23.44 63.113 24.08ZM109.527 12.12V28.48H85.287V12.16H89.207V17.2H105.607V12.12H109.527ZM99.407 47.6H95.407V35.88H80.487V32.52H114.327V35.88H99.407V47.6ZM89.207 20.56V25.08H105.607V20.56H89.207Z" fill="#1E1E1E"/>
</svg>
