<svg width="34" height="52" viewBox="0 0 34 52" fill="none" xmlns="http://www.w3.org/2000/svg">
<path d="M2 24.5C1.17157 24.5 0.5 25.1716 0.5 26C0.5 26.8284 1.17157 27.5 2 27.5V24.5ZM33.0607 27.0607C33.6464 26.4749 33.6464 25.5251 33.0607 24.9393L23.5147 15.3934C22.9289 14.8076 21.9792 14.8076 21.3934 15.3934C20.8076 15.9792 20.8076 16.9289 21.3934 17.5147L29.8787 26L21.3934 34.4853C20.8076 35.0711 20.8076 36.0208 21.3934 36.6066C21.9792 37.1924 22.9289 37.1924 23.5147 36.6066L33.0607 27.0607ZM2 26V27.5H32V26V24.5H2V26Z" fill="#1E1E1E"/>
</svg>
