<svg width="40" height="40" viewBox="0 0 40 40" fill="none" xmlns="http://www.w3.org/2000/svg">
<circle cx="20" cy="20" r="20" fill="#41674B"/>
<path d="M13.6817 26.6797C10.0657 26.6797 8.37305 24.2091 8.37305 19.84V17.0313C8.37305 12.6622 10.0657 10.1915 13.6817 10.1915C16.1949 10.1915 17.7849 11.3878 18.503 13.5984H21.1189V8.86522H24.1707V31.3868H21.1189V23.3248H18.503C17.7593 25.5094 16.1693 26.6797 13.6817 26.6797ZM28.8382 8.37109V32.5571H25.7607V8.37109H28.8382ZM13.6817 13.0523C11.9121 13.0523 11.3479 14.5606 11.3479 17.3953V19.4759C11.3479 22.3106 11.9121 23.819 13.6817 23.819C15.4512 23.819 16.0154 22.3106 16.0154 19.4759V17.3953C16.0154 14.5606 15.4512 13.0523 13.6817 13.0523ZM18.9903 19.84C18.9903 20.1 18.9903 20.3601 18.9646 20.5941H21.1189V16.3291H18.9646C18.9903 16.5631 18.9903 16.7972 18.9903 17.0313V19.84Z" fill="white"/>
</svg>
