<svg width="224" height="50" viewBox="0 0 224 50" fill="none" xmlns="http://www.w3.org/2000/svg">
<circle cx="133" cy="25" r="25" fill="#7B957A"/>
<circle cx="165.559" cy="25" r="25" fill="#7B957A"/>
<circle cx="198.117" cy="25" r="25" fill="#7B957A"/>
<path d="M3.48 34.9994C3.48 30.1594 9.48 28.8394 16.84 28.8394C24.2 28.8394 30.2 29.5994 30.2 34.9994C30.2 40.3194 24.2 41.1594 16.84 41.1594C9.48 41.1594 3.48 40.3194 3.48 34.9994ZM29.84 12.1194V25.5194C29.84 25.5994 29.8 27.0394 28.72 27.6794C28.4 27.8794 28.16 27.9594 27.8 27.9594C27.32 27.9594 26.84 27.8394 26.48 27.5594C26.2 27.3594 25.96 27.0794 25.8 26.7594C25 25.2794 25.28 23.3594 25.32 21.7194V21.1594C24.6 21.1994 23.84 21.1994 23.24 21.2394H23.12V24.8794C23.08 25.4394 23 26.0794 22.68 26.6794C22.52 26.9994 22.28 27.2794 22 27.4394C21.64 27.7194 21.44 27.8794 20.96 27.8794C20.56 27.8794 20.2 27.7594 19.84 27.5594C18.8 26.9194 18.64 25.4794 18.64 25.4394V12.2394C18.6 11.9994 18.64 10.7994 18.96 10.1594C19.2 9.63937 19.84 9.27937 20.6 9.19937C21.48 9.07937 22.04 9.31937 22.48 9.79937C22.84 10.1994 22.88 10.5994 23 11.0394C23.16 11.5594 23.16 12.1994 23.16 12.7594C23.12 12.9194 23.12 13.0794 23.12 13.2394V16.7594C23.36 16.7994 24.44 16.8394 25.36 16.8794V13.1194V12.6394C25.32 12.0794 25.32 11.4794 25.48 10.9194C25.6 10.5194 25.84 10.1194 26.2 9.71937C26.6 9.19937 27.2 8.95937 28.08 9.07937C28.84 9.19937 29.28 9.59937 29.52 10.1194C29.84 10.7594 29.88 11.9194 29.84 12.1194ZM1.84 26.5594C1.52 26.3994 1.24 26.0794 1.12 25.6394C0.32 23.5194 2.48 21.4394 3.56 19.9994C4.32 18.8794 5.08 18.0794 5.88 16.9194C6.4 16.0394 7.28 15.0394 7.36 13.8794C7.4 12.0794 7.36 9.83937 9.36 9.83937C10.16 9.83937 11.48 9.91937 11.8 10.7594C12.2 11.7194 11.8 13.2794 12.12 14.2794C12.36 15.1594 12.6 15.7194 13 16.4794C13.88 18.0794 14.76 19.0394 15.72 20.5194C16.48 21.6394 17.16 22.6794 17.4 24.0394C17.88 26.3194 15.24 27.3194 13.96 25.7994L9.6 19.9194L5.4 25.1594C4.88 25.7994 4.2 26.4394 3.44 26.6394C2.88 26.7594 2.28 26.7994 1.84 26.5594ZM24.8 34.9994C24.8 33.1594 20.56 32.9994 16.84 32.9994C13.12 32.9994 9.12 33.1594 9.12 34.9994C9.12 36.6394 13.12 36.9594 16.84 36.9594C20.56 36.9594 24.8 37.1594 24.8 34.9994ZM36.0341 22.3594C37.1141 22.3594 38.4341 22.4394 39.9541 22.4794C39.9541 21.9194 39.9541 21.3994 39.9941 20.8794C39.9541 20.8794 39.9141 20.8794 39.8741 20.8394C37.1941 19.7594 35.0741 18.5994 35.0741 15.3994C35.0741 14.6394 35.1541 13.9594 35.3541 13.3594C34.0741 13.3594 33.0341 12.3994 33.0341 11.1994C33.0341 10.0394 34.1141 9.07937 35.3941 9.07937H40.6741V7.75937C40.6741 6.75937 41.7141 5.91937 42.9941 5.91937C44.2741 5.91937 45.3541 6.75937 45.3541 7.75937V9.07937H50.8741C52.1941 9.07937 53.2741 10.0394 53.2741 11.1994C53.2741 12.3994 52.2341 13.3194 50.9541 13.3594C51.1141 13.9594 51.2341 14.6394 51.2341 15.3994C51.2341 17.6394 50.5941 18.5994 48.7541 19.9194C47.8341 20.5994 46.5941 20.9994 45.2741 21.1594V22.3994V22.5994C47.2741 22.5994 46.9541 22.4794 49.7941 22.5594C50.7941 22.5594 51.7541 22.4794 52.6741 22.8794C53.3541 23.1994 53.7941 23.9594 53.7941 24.7994C53.7941 25.4794 53.5141 25.7194 53.0741 26.1994C52.3141 26.9994 51.1141 26.9594 50.1541 26.8794H36.0341C35.9541 26.8794 34.2741 26.9194 33.6341 25.9994C33.3141 25.6794 33.1541 25.3594 33.1541 24.7994C33.1541 24.2394 33.3541 23.8394 33.6341 23.4794C34.2341 22.7994 35.3541 22.4394 36.0341 22.3594ZM60.1141 37.7994C60.9541 37.8794 61.6741 38.1594 61.9141 38.9994C62.2341 39.9594 61.8741 40.6394 60.8741 41.0394C60.2341 41.2794 59.5541 41.3194 58.9941 41.3194H40.3941C39.3141 41.3194 38.1541 41.2794 36.9941 41.2394C35.8741 41.1994 35.0741 40.3594 34.9541 39.1594L34.8341 36.3594C34.7941 35.7994 34.7541 34.8394 35.2341 34.3194C35.9541 33.5194 37.3941 33.3994 38.5541 33.3994C40.0741 33.3994 45.1541 33.4394 57.3541 33.4394V31.9994H37.6741C37.1541 31.9994 36.7141 31.9994 36.3141 31.9194C35.8341 31.7994 35.4341 31.7994 35.1941 31.3594C34.8341 30.7994 34.7141 30.2794 34.9141 29.6394C35.1941 28.7994 36.3941 28.6794 36.9941 28.5994C37.3941 28.5194 37.7941 28.4794 38.2341 28.4794C40.6341 28.4794 43.4341 28.5194 57.7541 28.5194C60.4341 28.5194 61.9541 29.3194 61.9541 31.1594V33.9994C61.9541 34.7194 61.6341 35.5194 60.7941 35.9994C60.1141 36.3994 59.3941 36.3594 58.7141 36.3594H39.7541V37.7994H60.1141ZM56.3941 23.7994V13.5194C56.3541 12.3194 56.3941 10.3594 57.0741 9.67937C57.6741 9.15937 58.2741 9.07937 58.9941 9.07937C59.8741 9.07937 60.6741 9.63937 60.9941 10.4394C61.4341 11.5594 61.3941 12.7594 61.4341 13.9194C61.4341 15.2394 61.4341 16.2794 61.4741 17.2394C62.6341 17.2394 63.7541 17.2794 64.4341 17.3194C65.8341 17.3994 66.7941 19.5194 65.9541 20.5994C65.1941 21.6794 63.3141 21.8394 61.5141 21.7594V23.3594C61.5141 24.4794 61.3141 24.9594 61.1141 25.5594C61.0741 25.7194 60.9941 25.8794 60.9141 26.0794C60.7541 26.3994 60.5141 26.7194 60.1941 26.9194C59.6341 27.2794 58.9141 27.3594 58.2341 27.2394C57.9141 27.1594 57.5541 26.9994 57.2741 26.7594C56.3541 25.8794 56.3941 23.8794 56.3941 23.7994ZM42.8341 17.1594C44.3541 17.2394 46.4341 17.2394 46.4341 15.3994C46.4341 13.9194 45.6341 13.4794 44.5941 13.3594H41.3141C40.3541 13.5194 39.6341 13.9994 39.6341 15.3994C39.7141 17.1594 41.2741 17.2394 42.8341 17.1594ZM85.1394 19.7994C84.1394 20.4794 83.2594 21.4394 81.8594 21.7194C80.8994 21.9194 79.8594 22.2794 79.0594 21.0794C78.1794 19.7994 79.1394 18.8794 79.9394 18.1194C81.5394 16.6794 83.2994 14.9994 85.0994 13.7594C86.2594 12.9994 88.5794 10.8394 88.5794 10.8394C88.5794 10.8394 88.2194 8.87937 89.3394 7.99937C90.0194 7.51937 91.4194 7.35937 92.2594 7.55937C93.4994 7.87937 93.7394 8.59937 93.8994 9.55937C93.9794 10.3594 94.1394 11.0394 94.7394 11.7194C95.1794 12.1994 95.9394 12.6794 96.4594 13.1194C98.2994 14.7194 100.059 15.9994 101.979 17.5994C103.219 18.5994 103.979 20.8394 102.419 21.6794C100.859 22.2794 99.3794 21.3194 98.3794 20.4394C97.2994 19.6394 95.7394 18.8394 94.7394 17.9194L91.1794 15.3594C91.1794 15.3594 89.2194 16.8794 89.0194 17.0394C87.8594 17.9194 86.4194 18.9194 85.1394 19.7994ZM102.779 23.9194C103.659 23.9594 104.659 24.1194 105.419 24.7194C105.779 24.9994 105.979 25.4794 105.979 25.9594C105.979 26.4794 105.779 27.1594 105.459 27.4394C104.619 28.2394 102.539 28.1594 102.459 28.1594L81.1394 28.1994C79.9394 28.2394 78.4594 28.3194 77.5794 27.5994C76.9794 27.1594 76.6594 26.7194 76.6594 26.1194C76.6594 25.3994 77.2194 24.4794 78.0594 24.1994C79.1794 23.8394 80.3794 23.9594 81.5794 23.9194C84.1794 23.8394 85.0194 23.9194 87.6994 23.9194V21.5994C87.6994 19.9994 89.3794 19.4794 90.9794 19.6394C92.4194 19.7994 93.2194 20.1994 93.2594 21.2394C93.3394 21.9994 93.3794 22.9994 93.3794 23.9194C96.3394 23.9194 100.499 23.7994 102.779 23.9194ZM100.419 30.6394C102.579 30.6394 103.859 31.3594 103.859 32.5994V35.3194C103.899 35.7994 103.939 38.8394 103.859 39.4394C103.779 40.5594 102.899 41.3194 101.699 41.3194C101.419 41.3194 101.139 41.2794 100.859 41.1994C99.4194 40.7594 99.3394 39.4394 99.2994 38.2394C99.2594 37.7594 99.2194 35.7994 99.1394 35.3994C98.9794 35.3594 98.4194 35.2794 96.4594 35.2794C94.7394 35.2794 93.4194 35.3194 93.4194 35.3194H80.0594C79.9794 35.3194 78.4194 34.9594 78.2594 33.8394C78.0994 32.8394 78.2594 32.0394 78.7394 31.4394C79.3794 30.6794 80.3394 30.6794 80.3794 30.6794L100.419 30.6394Z" fill="#7B957A"/>
<path d="M145.397 38.1994C146.237 38.2394 146.957 38.5594 147.197 39.3994C147.477 40.3594 147.157 41.0394 146.157 41.3994C145.517 41.6794 144.797 41.6794 144.277 41.6794H126.477C125.397 41.6794 124.197 41.6794 123.037 41.6394C121.597 41.5994 121.117 40.5994 121.037 39.3994L120.877 36.6394C120.837 36.0394 120.837 34.6394 121.317 34.0794C122.037 33.3194 123.037 33.1994 124.197 33.1994H125.437C125.677 33.1994 125.837 33.2394 125.997 33.2394H142.637V31.6394H125.597C125.317 31.6394 125.037 31.5994 124.717 31.6394H123.757C123.237 31.6394 122.797 31.6394 122.397 31.5594C121.917 31.4394 121.517 31.4394 121.237 30.9994C120.917 30.4394 120.797 29.7994 120.997 29.1594C121.277 28.3194 122.477 28.1994 123.077 28.0794C123.477 28.0394 123.877 27.9994 124.317 27.9994H124.997C125.277 28.0394 125.477 28.0394 125.757 28.0394H143.037C145.717 28.0394 147.237 28.7994 147.237 30.6794V34.3594C147.237 35.0794 146.917 35.7194 146.077 36.2394C145.397 36.6394 144.677 36.5994 143.997 36.5994H125.797V38.1994H145.397ZM128.237 8.87937C133.677 9.23937 136.717 12.3594 136.317 18.0794C135.957 22.8394 133.397 25.5994 128.317 25.5994C126.357 25.5994 124.117 25.7994 121.677 24.2794C119.357 22.7994 118.637 19.8394 118.637 17.2794C118.637 11.5194 122.717 8.47937 128.237 8.87937ZM147.277 12.2794V23.7994C147.277 23.8394 147.117 25.3994 146.077 26.0794C145.717 26.2794 145.357 26.3994 144.957 26.3994C144.477 26.3994 144.037 26.2394 143.637 25.9594C143.357 25.7594 143.117 25.4794 142.957 25.1194C142.157 23.5194 142.477 21.1594 142.477 19.3994C142.517 17.1194 142.517 15.6394 142.517 13.3994V12.8794C142.477 12.2794 142.477 11.5994 142.637 10.9994C142.757 10.5594 142.997 10.1594 143.357 9.71937C143.797 9.19937 144.637 8.91937 145.517 9.03937C146.277 9.15937 146.877 9.55937 147.117 10.0794C147.437 10.7594 147.317 12.0794 147.277 12.2794ZM131.677 18.5594L131.717 18.2394C131.957 16.3194 130.997 14.4794 129.317 13.8794C127.077 13.1194 123.637 13.7994 123.197 16.7994C122.877 18.8394 123.757 21.0794 126.837 21.3594C128.957 21.5994 131.157 20.9994 131.677 18.5594ZM177.12 25.5194C177.56 25.5194 177.96 25.6394 178.52 25.7594C178.96 25.8794 179.4 26.0794 179.72 26.2794C180.08 26.6394 180.28 27.0794 180.28 27.5994C180.28 27.8394 180.28 28.1594 180.16 28.4794C180.08 28.7994 179.96 29.0394 179.72 29.1594C179.64 29.3594 179.28 29.4794 178.96 29.5994C178.64 29.6794 178.32 29.7994 177.96 29.7994C177.56 29.7994 177.2 29.9194 176.76 29.9194C176.56 29.9194 155.52 29.9194 155.52 29.9194C154.88 29.9194 154.2 29.9194 153.56 29.9194C152.8 29.9194 152 29.6794 151.48 29.1594C151.04 28.4794 150.92 27.2794 151.36 26.6394C151.56 26.1994 152 25.9594 152.36 25.8794C153 25.6394 153.56 25.5194 154.08 25.5194C154.64 25.5194 155.32 25.5194 155.96 25.5194C156.52 25.5194 162.52 25.5194 162.52 25.5194V23.1194C162.44 23.2394 162.2 23.1194 161.88 23.1194H160.68C159.48 23.1194 158.48 23.1194 157.16 23.1194C156.6 23.1194 155.76 23.1194 155.2 22.9994C154.64 22.9194 154.08 22.7994 153.64 22.4794C153.32 22.2394 153.12 21.9194 152.88 21.5994C152.8 21.1594 152.68 20.8394 152.56 20.4794C152.44 20.1594 152.44 19.8394 152.36 19.5194C152.36 19.2794 152.36 19.0794 152.36 19.0794V11.3994C152.36 10.9594 152.56 10.3994 152.8 9.95937C153 9.43937 153.44 9.19937 154 9.07937C154.32 9.07937 154.96 8.99937 155.32 8.99937C155.64 9.07937 155.84 9.07937 156.16 9.19937C157.16 9.63937 157.16 10.8394 157.16 11.8394C157.16 12.0394 157.16 12.3994 157.16 12.5994C157.16 12.9194 157.16 13.1594 157.16 13.1594C157.16 13.1594 174.04 13.3594 174.36 13.2794C174.36 13.1594 174.24 13.0394 174.36 12.8394C174.36 12.5994 174.36 12.3994 174.36 12.0394V11.5994V11.0794C174.36 10.6394 174.36 10.3194 174.6 9.87937C174.8 9.51937 175.44 9.19937 175.88 9.07937C176.88 8.87937 177.64 8.99937 178.2 9.43937C178.76 9.95937 178.96 10.6394 178.96 11.5994V13.5994C178.96 14.3594 178.96 15.1194 178.96 15.8794C178.96 16.6394 178.96 17.4394 178.96 18.1994C178.96 18.9594 178.96 19.5994 178.84 20.2794C178.84 20.5994 178.76 20.9194 178.64 21.1594C178.52 21.4794 178.4 21.6794 178.2 22.0394C177.76 22.6794 176.88 22.9194 176.24 22.9994C175.8 22.9994 175.44 23.1194 175.04 23.1194C174.24 23.1194 173.6 23.1194 172.84 23.1194C172.52 23.1194 169.76 23.1194 169.32 23.1194C169 23.1194 168.56 23.1194 168.24 23.1194C168.24 23.4394 168.24 24.1994 168.24 24.5594V25.5194C169 25.5194 169.2 25.5194 170.08 25.5194C170.96 25.5194 171.84 25.5194 172.6 25.5194H175.12C175.88 25.5194 176.56 25.5194 177.12 25.5194ZM162.76 35.9194H177.44C177.56 35.9194 177.56 35.9194 177.76 35.9194C177.88 36.0394 178.08 36.1594 178.32 36.2794C178.52 36.3594 178.64 36.4794 178.84 36.7194C178.96 36.9194 179.08 37.1594 179.2 37.4794C179.28 38.4394 179.2 39.2394 178.76 39.7594C178.4 40.1994 178.08 40.4394 177.76 40.4394C177.44 40.5594 177.2 40.5594 177.2 40.5594H155.32C154.32 40.5594 153.56 40.4394 153 40.1194C152.36 39.7594 152.12 39.2394 152.12 38.6794V35.0794C152 34.5194 152 33.9594 152.12 33.3194C152.12 32.7594 152.36 32.3194 152.68 31.9994C153.12 31.5594 153.56 31.4394 154.08 31.4394C154.2 31.4394 154.44 31.4394 154.64 31.4394C154.88 31.4394 155.08 31.4394 155.2 31.5594C155.52 31.6794 155.84 31.7594 155.96 31.9994C156.16 32.1994 156.28 32.4394 156.4 32.7594C156.52 33.0794 156.6 33.3194 156.6 33.6394C156.6 33.9594 156.72 34.2794 156.72 34.5194C156.72 34.7194 156.72 34.9594 156.72 35.1594C156.72 35.3994 156.84 35.5994 156.84 35.8394C156.96 35.8394 157.16 35.9194 157.6 35.9194C158.04 35.9194 158.68 35.9194 159.68 35.9194C160.44 35.9194 161.2 35.9194 161.76 35.9194C162.44 35.9194 162.76 35.9194 162.76 35.9194ZM157.4 19.0794C157.6 19.3994 157.92 19.5194 158.36 19.5194C158.68 19.5194 159.04 19.5194 159.36 19.5194C160.56 19.5194 161.56 19.5194 162.64 19.5194C163.08 19.5194 163.52 19.5194 163.96 19.5194H165.28H166.36C166.68 19.5194 173.6 19.5194 173.72 19.5194C173.92 19.5194 174.04 19.5194 174.16 19.3994C174.24 19.2794 174.36 19.0794 174.36 18.8394C174.36 18.6394 174.36 18.5194 174.36 18.3194C174.36 18.1994 174.36 17.0794 174.36 17.0794C174.36 17.0794 164.6 17.0794 163.96 17.0794C163.2 17.0794 159.36 17.0794 158.68 17.0794C158.24 17.0794 157.16 17.0794 157.16 17.0794C157.16 17.0794 157.16 18.1194 157.16 18.2394C157.28 18.4394 157.28 18.9594 157.4 19.0794ZM190.778 8.91937C191.458 8.91937 192.098 8.99937 192.738 9.07937C193.738 9.23937 194.658 9.71937 195.418 10.4794C198.018 13.1994 198.578 17.8794 198.738 21.6794C198.858 24.1194 198.818 26.5994 198.538 28.9994C198.258 31.4794 197.898 34.1594 196.578 36.1994C195.458 37.9194 193.698 39.0394 191.898 39.3994C190.258 39.7194 188.458 39.5194 186.938 38.6394C185.498 37.7994 184.538 36.4794 183.818 34.7994C183.298 33.5594 182.978 32.1994 182.898 30.8394C182.698 28.5994 182.618 26.3594 182.618 24.1194C182.618 22.5994 182.618 21.1194 182.778 19.6394C182.858 18.4394 183.058 17.1994 183.258 16.0394C183.458 15.0794 183.577 14.2394 183.978 13.3594C184.378 12.4794 184.898 11.6394 185.578 10.9994C186.738 9.83937 188.258 9.19937 189.778 8.99937C190.098 8.95937 190.458 8.95937 190.778 8.91937ZM205.138 26.3994C204.418 26.2794 202.898 26.2794 202.178 26.1994C200.338 26.0794 199.458 24.7194 200.018 22.6794C200.138 22.2794 200.538 21.7194 200.858 21.4394C201.178 21.1994 201.538 20.9994 201.978 20.9194C202.818 20.7994 204.218 20.9194 205.098 20.8394H205.218V20.6794C205.258 19.3594 205.258 19.6794 205.218 18.3194C205.218 16.9594 205.178 15.5594 205.218 14.2394V13.6794C205.218 12.2794 205.218 10.1994 206.178 9.23937C206.538 8.91937 206.938 8.71937 207.458 8.71937H207.538C210.138 8.83937 210.418 11.9594 210.418 13.6394V37.6394C210.418 37.7194 210.498 39.7594 209.578 40.5994C209.218 40.9594 208.378 41.1994 207.818 41.1994C207.218 41.1994 206.658 40.9594 206.298 40.5594C205.618 39.8394 205.538 38.9994 205.458 38.1194C205.458 37.9594 205.418 37.7994 205.418 37.5994C205.338 36.7594 205.338 35.7594 205.298 34.7994C205.258 34.1994 205.258 33.6394 205.258 33.0794V32.1594C205.258 31.0394 205.218 28.3994 205.218 27.2794C205.218 26.9994 205.258 26.6394 205.138 26.3994ZM190.658 34.0794C191.138 34.0794 191.658 33.9194 192.138 33.5994C193.018 32.9594 193.338 31.8394 193.578 30.5594C194.018 28.1194 193.978 25.1594 193.898 22.6394C193.858 20.5994 193.818 17.9594 192.858 16.3194C192.338 15.4394 191.538 14.8794 190.698 14.9994C189.818 15.0794 189.018 15.6394 188.538 16.6794L188.178 17.5194C187.858 18.5194 187.698 19.6394 187.618 20.7194C187.538 21.7994 187.458 22.9194 187.458 23.9994C187.498 25.0794 187.378 26.0794 187.458 27.1194C187.658 29.8794 188.018 34.0394 190.658 34.0794Z" fill="white"/>
</svg>
