<svg width="40" height="40" viewBox="0 0 40 40" fill="none" xmlns="http://www.w3.org/2000/svg">
<path d="M38.6916 34.6083C39.428 35.6033 38.7671 37 37.5396 37H18.8256C9.5347 37 2 29.3849 2 20.0096C2 10.6342 9.5347 3 18.8256 3C28.1165 3 35.6512 10.6151 35.6512 20.0096C35.2169 28.0264 36.9731 32.3315 38.6916 34.6083Z" fill="#EF897E"/>
<path d="M12.9629 12.25C12.6929 12.01 12.5729 11.68 12.5729 11.17C12.6029 10.72 12.6929 10.27 13.0229 9.97C13.9229 9.16 14.8829 9.19 16.0529 9.13C16.9529 9.1 17.6129 9.13 18.5129 9.13C19.9229 9.13 21.6929 9.19 23.1629 9.25C24.3629 9.31 25.6529 9.73 25.7129 11.11C25.8029 12.7 24.4829 14.05 23.5229 15.01C22.6529 15.91 21.3929 17.05 20.5229 17.95C23.6729 18.37 26.5529 19.93 26.5529 23.77C26.5529 27.61 23.4329 30.52 19.1429 30.52C17.2829 30.52 14.7629 29.92 13.3829 28.51C12.4229 27.58 11.8829 25.6 13.5029 25.03C14.7029 24.61 15.7229 25.36 16.6829 25.9C18.1529 26.8 19.8329 27.07 21.3929 26.14C23.1929 25.06 22.8929 22.87 21.2729 21.94C19.7429 21.04 17.4629 21.58 16.2329 20.2C14.8829 18.64 17.7329 16.57 18.6629 15.52C19.2629 14.92 20.2529 13.9 20.4029 13.3C20.6429 12.64 19.2629 12.85 18.7829 12.85H16.7729C15.6929 12.85 13.8629 13.03 12.9629 12.25Z" fill="#1E1E1E"/>
</svg>
