<svg width="40" height="39" viewBox="0 0 40 39" fill="none" xmlns="http://www.w3.org/2000/svg">
<path d="M12.4009 33.4565C12.4009 33.4565 12.4009 33.3784 12.3625 33.3393C12.516 33.1832 12.6696 33.027 12.8231 32.8318C12.8231 32.8709 12.8231 32.9099 12.8615 32.9489C12.708 33.1051 12.5544 33.2613 12.4009 33.4174M9.02274 29.6306C9.02274 29.6306 9.02274 29.5526 8.98435 29.4745C9.1379 29.3183 9.25307 29.2012 9.40662 29.045L9.48339 29.2012C9.48339 29.2012 9.17629 29.4745 9.06113 29.5916M38.85 3.86487C38.85 3.86487 38.8884 3.9039 38.9268 3.94294C38.9268 4.02102 38.85 4.0991 38.85 4.17718C38.85 4.13814 38.8116 4.0991 38.7732 4.06006C38.8116 3.98198 38.85 3.9039 38.8884 3.86487M37.6984 6.48048C36.7771 7.37838 35.8174 8.23724 34.8961 9.17417C32.9767 11.1652 31.0189 13.1562 29.1379 15.1862C27.3721 17.0601 25.6062 18.973 23.8788 20.8859C20.5007 24.5946 17.1225 28.3423 13.7444 32.0901C13.5909 32.2462 13.4757 32.3634 13.3222 32.5195C13.3222 32.4805 13.3222 32.4414 13.2838 32.4024C13.3989 32.2853 13.5141 32.1291 13.6293 32.012C14.3586 31.1922 15.088 30.3724 15.8558 29.5526C18.8116 26.2733 21.7291 22.955 24.6849 19.7147C26.5659 17.6456 28.4469 15.6547 30.3279 13.6637C32.0938 11.8288 33.8596 9.99399 35.6254 8.1982C36.7771 7.06607 37.9287 5.97297 39.0803 4.84084C39.4642 4.48949 39.7713 4.06006 40.0784 3.3964C39.7329 3.55255 39.4642 3.66967 39.1955 3.78679C39.1571 3.59159 39.1187 3.3964 39.2723 3.3964C39.541 3.3964 39.5026 3.08408 39.5026 2.84985C39.5026 2.73273 39.4642 2.61562 39.4642 2.4985C39.4642 2.10811 39.4258 1.99099 39.1955 2.06907C39.0419 2.14715 38.85 2.26426 38.7348 2.42042C38.5813 2.53754 38.4661 2.65465 38.3126 2.42042C38.5429 2.06907 38.7732 1.75676 38.9652 1.40541C38.6964 0.936937 38.6964 0.897898 38.3893 1.17117C38.0438 1.44444 37.6984 1.67868 37.3913 1.99099C35.7406 3.43544 34.0899 4.76276 32.4776 6.32432C28.9844 9.68168 25.5295 13.0781 22.0746 16.5526C19.0803 19.5586 16.0861 22.6817 13.1302 25.7658C12.2473 26.6637 11.4028 27.5225 10.5199 28.3814C10.3663 28.5375 10.2128 28.7718 9.90566 28.7327C10.0592 28.5375 10.136 28.4204 10.2511 28.3033C10.9805 27.5616 11.7099 26.8589 12.4392 26.0781C15.7406 22.6426 19.0035 19.2072 22.3433 15.8108C24.9153 13.1952 27.5256 10.6186 30.136 8.12012C32.0554 6.28528 34.0131 4.56757 35.9709 2.81081C36.1629 2.65465 36.3164 2.34234 36.5467 2.26426C36.9306 2.10811 37.1609 1.63964 37.4296 1.24925C37.5832 1.01502 37.8135 0.702703 37.66 0.273273C37.66 0.234234 37.66 0.156156 37.66 0C37.5064 0.039039 37.3913 0.0780781 37.3145 0.156156C36.5851 0.741742 35.8558 1.32733 35.1648 1.91291C32.017 4.48949 28.9844 7.22222 25.9901 10.1892C20.9997 15.1471 16.0477 20.1441 11.0573 25.1021C9.445 26.7027 7.79433 28.2643 6.18205 29.8258C5.95172 30.021 5.75978 30.2943 5.45268 30.3333C5.37591 29.4745 5.26074 28.6156 5.18397 27.7958C5.10719 26.8979 4.95364 25.961 4.95364 25.0631C4.95364 24.3604 4.68493 23.6577 4.87686 22.9159C4.7617 20.7688 4.72331 18.5826 4.41621 16.4745C4.30105 15.6547 4.1475 14.8739 3.8404 14.1712C3.53329 13.4685 3.07264 13.0781 2.68877 12.5315C2.68877 12.5315 2.65038 12.5315 2.61199 12.5315C2.53521 12.6486 2.42005 12.7658 2.30489 12.9219C2.30489 12.8048 2.2665 12.7267 2.22811 12.6096C2.07456 11.9069 1.88262 11.7898 1.46036 12.1411C1.19164 12.3754 0.961318 12.7267 0.884543 13.2342C0.807767 13.8589 0.692604 14.4444 0.615829 15.0691C0.0400129 19.012 -0.113538 23.0721 0.0784006 27.1321C0.155176 28.8498 0.347115 30.5676 0.539053 32.2853C0.615829 33.1832 0.846155 34.0811 1.23003 34.8228C1.42197 35.1742 1.57552 35.5255 1.72907 35.8769C2.03617 36.5015 2.38166 37.048 2.8807 37.3213C3.22619 37.5165 3.57168 37.7507 3.95556 37.985C4.1475 38.1021 4.37782 38.5315 4.60815 38.0631H4.72331C5.0688 38.4925 5.52946 38.3754 5.83656 38.8048C5.91333 38.8829 6.0285 38.9219 6.14366 38.9219C6.79625 39.039 7.41045 39 7.98627 38.5315C8.44692 38.1802 8.90758 37.8288 9.32984 37.3994C10.9037 35.7598 12.4392 34.0811 13.9748 32.4024C15.7406 30.4505 17.5064 28.4595 19.3106 26.4685C21.1149 24.4775 22.8807 22.4474 24.6849 20.4565C26.3356 18.6216 28.063 16.8258 29.7137 15.03C30.5582 14.1321 31.3644 13.2342 32.2089 12.3754C33.7444 10.7748 35.2799 9.17417 36.8154 7.61261C37.5832 6.83183 38.3893 6.09009 39.1955 5.30931C39.3106 5.19219 39.4642 5.11411 39.4258 4.84084C39.3106 4.91892 39.1955 4.95796 39.1187 5.03604C38.6197 5.5045 38.1206 6.01201 37.6216 6.51952" fill="#CC3C39"/>
</svg>
