<svg width="121" height="62" viewBox="0 0 121 62" fill="none" xmlns="http://www.w3.org/2000/svg">
<ellipse cx="89" cy="28" rx="32" ry="28" fill="#6A8EC9"/>
<path fill-rule="evenodd" clip-rule="evenodd" d="M32 56C49.6731 56 64 43.464 64 28C64 12.536 49.6731 0 32 0C14.525 0 0.32162 12.2566 0.00538535 27.4811C0.000900436 27.5197 -0.000837609 27.5593 0.000385797 27.5995C0.00101029 27.62 0.00164748 27.6405 0.00229735 27.661C0.000767216 27.7738 0 27.8868 0 28C0 29.6321 0.15959 31.2316 0.465859 32.7872C2.2288 44.1736 8.50485 50.0651 14.9995 54.8236C18.7041 57.5378 22.3764 59.3248 25.1207 60.4335C26.4939 60.9883 27.6373 61.3742 28.44 61.6221C28.8414 61.7461 29.1578 61.8356 29.3753 61.8945C29.484 61.9239 29.5681 61.9457 29.6257 61.9603L29.6921 61.9768L29.71 61.9812L29.7175 61.983C30.0264 62.0562 30.3405 61.8859 30.4739 61.5728C30.6073 61.2598 30.5244 60.8874 30.2743 60.6763C28.2881 58.9991 26.9261 57.2253 25.9989 55.5084C27.9428 55.8311 29.9488 56 32 56Z" fill="#F5B1A0"/>
<path d="M14.32 37.0162C14.32 35.0962 14.288 34.5202 14.288 24.1522C14.288 23.4482 14.32 22.7762 14.224 22.0722C14.096 21.3042 13.936 21.1762 13.168 21.1762C11.312 21.1442 10 21.1762 8.336 21.1762C6.832 21.1762 6.128 20.3442 6.128 19.0962C6.128 17.8802 6.736 17.2402 7.824 17.0162C8.688 16.7922 9.392 16.7922 10.32 16.7922H14.896C15.12 16.7922 15.344 16.8242 15.568 16.8242C16.112 16.8562 16.784 16.9522 17.296 17.1442C17.616 17.2722 18 17.4962 18.192 17.7842C18.608 18.3922 18.576 18.8403 18.64 19.5442C18.736 20.6962 18.704 21.9122 18.704 23.0962V25.4322H21.84V18.9682C21.84 18.4242 21.808 17.8162 21.936 17.2722C22 17.0802 22.064 16.8882 22.16 16.6962C22.416 16.2802 22.608 16.0562 23.088 15.8962C23.28 15.8322 23.568 15.8002 23.76 15.8002C24.464 15.8002 25.008 16.1522 25.36 16.7602C25.68 17.3042 25.648 18.8403 25.648 19.0002C25.68 34.5522 25.648 37.3042 25.648 37.3042C25.648 38.3603 25.616 38.8083 25.296 39.8003C25.072 40.4403 24.592 40.9203 23.664 40.9203C23.408 40.9203 22.96 40.8563 22.736 40.6963C21.872 40.1523 21.84 38.1683 21.84 37.5282V29.5922L18.704 29.5602V33.3362C18.704 33.4323 18.768 36.0562 18.704 37.4322C18.576 38.9683 17.712 39.9923 16.24 39.9923C14.672 39.9923 14.32 38.2323 14.32 37.0162ZM30.96 40.0243C30.832 40.3123 30.64 40.5363 30.352 40.7283C29.904 41.0163 29.488 41.0803 28.944 40.9523C27.664 40.6643 27.408 39.2563 27.408 38.1683V19.3202C27.376 18.3602 27.408 16.7602 27.984 16.1842C28.464 15.7682 28.976 15.7042 29.552 15.7042C30.288 15.7042 30.736 16.1522 30.992 16.8242C31.376 17.7202 31.344 18.6802 31.376 19.6402V19.8002C31.472 23.0322 31.376 26.2962 31.376 29.3042V36.9842C31.376 38.1043 31.376 39.1283 30.96 40.0243ZM36.2105 40.9843C36.1785 40.9843 36.1465 40.9523 36.1145 40.9203C35.6985 40.6003 35.5705 39.8003 35.5705 39.3203C35.5385 38.5523 35.4425 37.7843 35.4425 37.0482C35.4425 35.9602 35.4105 34.8722 35.6025 33.8162C35.7305 33.1442 35.9865 32.7602 36.6265 32.5042C37.2025 32.2802 37.8105 32.1522 38.4185 32.1522H53.1705C53.9705 32.1842 54.8665 32.2162 55.6345 32.5682C56.4665 32.9202 56.6905 33.8162 56.7545 34.6482C56.8185 36.1202 56.8825 38.5843 56.4665 40.1203C56.3385 40.6003 56.2425 40.9843 55.7305 41.1443C55.2825 41.3043 54.7385 41.3363 54.2905 41.3363L37.9385 41.2723C37.3945 41.2403 36.6905 41.3043 36.2105 40.9843ZM45.2985 16.4402C47.8585 17.8162 48.9145 20.2162 48.6585 23.5442C48.4025 27.8002 46.3225 29.8802 41.9065 29.8802C39.5705 29.8802 38.2905 30.0722 36.2105 28.7282C34.1945 27.4162 33.5865 25.0802 33.5865 22.8402C33.5865 20.6002 34.3545 18.5202 36.1785 17.1122C37.6825 15.9282 39.6345 15.3522 41.4905 15.5122C43.1865 15.6402 43.7945 15.7682 45.2985 16.4402ZM56.9465 18.3922V28.2483C56.9465 28.2802 56.8185 29.5282 55.9865 30.0722C55.6985 30.2322 55.4105 30.3282 55.0905 30.3282C54.7065 30.3282 54.3545 30.2002 54.0345 29.9762C53.8105 29.8162 53.6185 29.5922 53.4905 29.3042C52.8505 28.0242 53.1065 26.1362 53.1065 24.7282C53.1385 22.9042 53.1385 21.0802 53.1385 19.2882V18.8722C53.1065 18.3922 53.1065 17.8482 53.2345 17.3682C53.3305 17.0162 53.5225 16.6962 53.8105 16.3442C54.1625 15.9282 54.8345 15.7042 55.5385 15.8002C56.1465 15.8962 56.6265 16.2162 56.8185 16.6322C57.0745 17.1762 56.9785 18.2322 56.9465 18.3922ZM44.8505 23.8962C44.8505 22.0402 44.6265 20.4722 42.8025 19.8002C40.8505 19.1282 37.9065 19.7362 37.4905 22.3922C37.2345 24.2162 38.0025 26.2002 40.6585 26.4242C42.4505 26.6162 44.3705 26.0402 44.8505 23.8962ZM39.2505 37.2402C39.2505 37.4322 39.2505 37.6562 39.3785 37.7523C39.5385 37.9123 40.2745 37.8163 40.2745 37.8163H49.9705C49.9705 37.8163 51.4745 37.9443 52.2745 37.8483C52.6905 37.8163 52.7225 37.6242 52.7545 37.2402C52.7865 36.8882 52.8505 36.3762 52.5945 36.0562C52.3065 35.7042 51.6665 35.7682 51.2505 35.8002H42.6745C41.7465 35.7362 40.8505 35.7682 39.9225 35.8002C39.5705 35.8002 39.4105 35.7362 39.3145 36.1202C39.2505 36.4082 39.2505 36.6962 39.2505 36.9522C39.2825 37.0162 39.2505 37.1122 39.2505 37.2402Z" fill="white"/>
<path d="M67.296 26.4562C68.16 26.4562 69.216 26.5202 70.432 26.5522C70.432 26.1042 70.432 25.6882 70.464 25.2722C70.432 25.2722 70.4 25.2722 70.368 25.2402C68.224 24.3762 66.528 23.4482 66.528 20.8882C66.528 20.2802 66.592 19.7362 66.752 19.2562C65.728 19.2562 64.896 18.4882 64.896 17.5282C64.896 16.6002 65.76 15.8322 66.784 15.8322H71.008V14.7762C71.008 13.9762 71.84 13.3042 72.864 13.3042C73.888 13.3042 74.752 13.9762 74.752 14.7762V15.8322H79.168C80.224 15.8322 81.088 16.6002 81.088 17.5282C81.088 18.4882 80.256 19.2242 79.232 19.2562C79.36 19.7362 79.456 20.2802 79.456 20.8882C79.456 22.6802 78.944 23.4482 77.472 24.5042C76.736 25.0482 75.744 25.3682 74.688 25.4962V26.4882V26.6482C76.288 26.6482 76.032 26.5522 78.304 26.6162C79.104 26.6162 79.872 26.5522 80.608 26.8722C81.152 27.1282 81.504 27.7362 81.504 28.4082C81.504 28.9522 81.28 29.1442 80.928 29.5282C80.32 30.1682 79.36 30.1362 78.592 30.0722H67.296C67.232 30.0722 65.888 30.1042 65.376 29.3682C65.12 29.1122 64.992 28.8562 64.992 28.4082C64.992 27.9602 65.152 27.6402 65.376 27.3522C65.856 26.8082 66.752 26.5202 67.296 26.4562ZM86.56 38.8083C87.232 38.8723 87.808 39.0963 88 39.7682C88.256 40.5363 87.968 41.0803 87.168 41.4003C86.656 41.5923 86.112 41.6243 85.664 41.6243H70.784C69.92 41.6243 68.992 41.5923 68.064 41.5603C67.168 41.5283 66.528 40.8563 66.432 39.8963L66.336 37.6562C66.304 37.2082 66.272 36.4402 66.656 36.0242C67.232 35.3842 68.384 35.2882 69.312 35.2882C70.528 35.2882 74.592 35.3202 84.352 35.3202V34.1682H68.608C68.192 34.1682 67.84 34.1682 67.52 34.1042C67.136 34.0082 66.816 34.0082 66.624 33.6562C66.336 33.2082 66.24 32.7922 66.4 32.2802C66.624 31.6082 67.584 31.5122 68.064 31.4482C68.384 31.3842 68.704 31.3522 69.056 31.3522C70.976 31.3522 73.216 31.3842 84.672 31.3842C86.816 31.3842 88.032 32.0242 88.032 33.4962V35.7682C88.032 36.3442 87.776 36.9842 87.104 37.3682C86.56 37.6883 85.984 37.6562 85.44 37.6562H70.272V38.8083H86.56ZM83.584 27.6082V19.3842C83.552 18.4242 83.584 16.8562 84.128 16.3122C84.608 15.8962 85.088 15.8322 85.664 15.8322C86.368 15.8322 87.008 16.2802 87.264 16.9202C87.616 17.8162 87.584 18.7762 87.616 19.7042C87.616 20.7603 87.616 21.5922 87.648 22.3602C88.576 22.3602 89.472 22.3922 90.016 22.4242C91.136 22.4882 91.904 24.1842 91.232 25.0482C90.624 25.9122 89.12 26.0402 87.68 25.9762V27.2562C87.68 28.1522 87.52 28.5362 87.36 29.0162C87.328 29.1442 87.264 29.2722 87.2 29.4323C87.072 29.6882 86.88 29.9442 86.624 30.1042C86.176 30.3922 85.6 30.4562 85.056 30.3602C84.8 30.2962 84.512 30.1682 84.288 29.9762C83.552 29.2722 83.584 27.6722 83.584 27.6082ZM72.736 22.2962C73.952 22.3602 75.616 22.3602 75.616 20.8882C75.616 19.7042 74.976 19.3522 74.144 19.2562H71.52C70.752 19.3842 70.176 19.7682 70.176 20.8882C70.24 22.2962 71.488 22.3602 72.736 22.2962ZM112.692 28.0562C113.396 28.0882 114.196 28.2162 114.804 28.6962C115.092 28.9202 115.252 29.3042 115.252 29.6882C115.252 30.1042 115.092 30.6482 114.836 30.8722C114.164 31.5122 112.5 31.4482 112.436 31.4482L95.3802 31.4802C94.4203 31.5122 93.2363 31.5762 92.5323 31.0002C92.0523 30.6482 91.7963 30.2962 91.7963 29.8162C91.7963 29.2402 92.2443 28.5042 92.9163 28.2802C93.8123 27.9922 94.7723 28.0882 95.7323 28.0562C97.8123 27.9922 98.4843 28.0562 100.628 28.0562V26.2322C98.8683 26.2002 97.0123 26.1682 96.2123 26.1362C95.1562 26.1682 93.3323 26.0082 93.0123 24.8562C92.7883 23.8962 92.6923 24.0242 92.6923 23.0322V19.6082C92.6603 19.6722 92.5963 18.0722 93.1403 17.2082C93.6843 16.3122 95.6363 16.2802 95.8602 16.2802H109.94C110.836 16.2802 111.828 16.2162 112.692 16.5362C113.396 16.8242 113.62 17.5922 113.588 18.3602C113.524 19.0642 113.044 19.6402 112.308 19.8322C111.924 19.9282 111.316 19.9602 110.516 19.9602C109.972 19.9602 109.524 19.9282 109.524 19.9282H98.1963C97.9723 19.8962 97.4923 19.8962 97.2683 20.0243C97.0443 20.1202 97.0763 22.1682 97.1723 22.3922C97.3323 22.6802 98.0363 22.6482 98.4843 22.6162C99.5083 22.5842 101.428 22.6162 107.86 22.6162H110.228C111.284 22.6162 112.18 22.5522 112.884 22.9042C113.3 23.0962 113.62 23.5122 113.748 23.9922C113.844 24.5042 113.716 25.0482 113.428 25.4322C112.756 26.2642 111.956 26.1362 111.028 26.1682C110.324 26.2002 107.092 26.2322 105.108 26.2322C105.14 26.8402 105.172 27.5442 105.172 28.0562C107.54 28.0562 110.868 27.9602 112.692 28.0562ZM92.8203 37.4002C92.8203 33.7842 97.5243 32.9202 103.284 32.9202C109.076 32.9202 113.78 33.3682 113.78 37.4002C113.78 41.3683 109.076 41.8802 103.284 41.8802C97.5243 41.8802 92.8203 41.3683 92.8203 37.4002ZM109.556 37.4002C109.556 36.0242 106.228 36.0562 103.284 36.0562C100.372 36.0562 97.2363 36.0242 97.2363 37.4002C97.2363 38.6163 100.372 38.7443 103.284 38.7443C106.228 38.7443 109.556 39.0003 109.556 37.4002Z" fill="#F9D2DB"/>
</svg>
