<svg width="50" height="38" viewBox="0 0 50 38" fill="none" xmlns="http://www.w3.org/2000/svg">
<path d="M5.6 18.04V20.04C5.6 26.12 6.96 32.16 11.08 37.8H6.28C2.32 33.08 0.4 26.84 0.4 19.84V18.24C0.4 11.24 2.32 5.08 6.28 0.359999H11.08C7.16 5.64 5.6 11.64 5.6 18.04ZM20.3731 29.48H20.2531V32.04H15.4531V1.8H20.4931V12.16C21.9331 10.08 24.7731 9.52 26.5331 9.52C32.2131 9.52 35.1331 13.2 35.1331 18.92V22.8C35.1331 28.76 31.6131 32.36 26.2931 32.36C23.3731 32.36 21.3731 31.16 20.3731 29.48ZM30.1331 22.24V19.72C30.1331 16 28.7731 13.84 25.5331 13.84C22.1731 13.84 20.4131 16.04 20.4131 19.04V23.72C20.4131 25.76 22.6131 28.08 25.6531 28.08C28.5731 28.08 30.1331 25.92 30.1331 22.24ZM43.8244 20.04V18.04C43.8244 11.64 42.2644 5.64 38.3444 0.359999H43.1444C47.1044 5.08 49.0244 11.24 49.0244 18.24V19.84C49.0244 26.84 47.1044 33.08 43.1444 37.8H38.3444C42.4644 32.16 43.8244 26.12 43.8244 20.04Z" fill="#60AB83"/>
</svg>
