<svg width="48" height="38" viewBox="0 0 48 38" fill="none" xmlns="http://www.w3.org/2000/svg">
<path d="M5.6 18.04V20.04C5.6 26.12 6.96 32.16 11.08 37.8H6.28C2.32 33.08 0.4 26.84 0.4 19.84V18.24C0.4 11.24 2.32 5.08 6.28 0.359999H11.08C7.16 5.64 5.6 11.64 5.6 18.04ZM21.8131 32.36C17.0931 32.36 14.3331 30.08 14.3331 26.2V24.92C14.3331 21.32 16.4531 18.64 22.6531 18.64H27.6931V17.8C27.6931 15.08 26.4931 13.96 23.7731 13.96C21.4131 13.96 19.3731 14.72 17.5331 16.16L15.0531 12.48C17.2931 10.92 20.0531 9.52 23.8131 9.52C28.9731 9.52 32.6931 12.12 32.6931 16.56V32.04H28.1731L28.0931 29.32C27.2531 31.28 24.1331 32.36 21.8131 32.36ZM27.6931 23.16V22.56H22.7731C20.1331 22.56 19.2131 23.64 19.2131 25.36V25.84C19.2131 27.28 20.2531 28.12 22.2131 28.12C24.3331 28.12 25.7331 27.68 26.7731 26.64C27.6931 25.76 27.6931 24.8 27.6931 23.16ZM42.2228 20.04V18.04C42.2228 11.64 40.6628 5.64 36.7428 0.359999H41.5428C45.5028 5.08 47.4228 11.24 47.4228 18.24V19.84C47.4228 26.84 45.5028 33.08 41.5428 37.8H36.7428C40.8628 32.16 42.2228 26.12 42.2228 20.04Z" fill="#60AB83"/>
</svg>
