<svg width="24" height="24" viewBox="0 0 24 24" fill="none" xmlns="http://www.w3.org/2000/svg">
<rect width="24" height="24" rx="12" fill="#E6746F"/>
<path d="M15.59 11.72C15.68 11.795 15.755 11.9 15.77 12.065C15.8 12.305 15.695 12.62 15.485 12.74C15.275 12.86 14.93 12.785 14.69 12.785H13.535C13.76 13.145 13.985 13.49 14.21 13.85C14.315 14.015 14.42 14.225 14.465 14.42C14.495 14.555 14.525 14.72 14.45 14.855C14.015 15.59 13.205 15.035 12.875 14.54C12.665 14.21 12.44 13.895 12.23 13.565L11.51 14.69C11.39 14.885 11.24 15.155 11 15.26C10.73 15.38 10.52 15.395 10.28 15.26C9.65 14.87 9.995 14.27 10.295 13.805C10.52 13.475 10.745 13.13 10.97 12.785C10.58 12.785 10.19 12.815 9.815 12.83C9.56 12.83 9.305 12.86 9.065 12.74C8.705 12.53 8.645 11.96 8.975 11.69C9.245 11.465 9.725 11.57 10.055 11.57H10.97C10.82 11.36 10.67 11.135 10.535 10.91C10.295 10.565 9.92 10.115 10.025 9.65C10.085 9.335 10.415 9.185 10.745 9.215C11.105 9.23 11.495 9.665 11.69 9.965L12.23 10.82C12.47 10.445 12.71 10.085 12.95 9.71C13.115 9.485 13.235 9.305 13.505 9.185C13.745 9.095 14.09 9.095 14.27 9.32C14.81 10.055 13.925 10.985 13.535 11.57H14.585C14.885 11.57 15.32 11.525 15.59 11.72Z" fill="white"/>
</svg>
