<svg width="600" height="282" viewBox="0 0 600 282" fill="none" xmlns="http://www.w3.org/2000/svg">
<g clip-path="url(#clip0_1228_5708)">
<path d="M461.698 164.867C404.233 163.656 341.2 145.323 270.002 150.209C198.826 155.095 170.347 180.757 107.798 183.816C58.2129 186.237 34.1794 174.462 0 172.834V276.715H599.978V150.847C599.978 150.847 519.14 166.121 461.676 164.911" fill="#FFEC8B"/>
<path d="M527.085 195.173C527.085 195.173 496.581 194.249 450.737 172.9C404.893 151.574 371.44 139.425 344.898 146.82C318.355 154.215 289.81 162.336 263.268 141.824C236.725 121.312 223.476 112.993 203.756 117.197C174.331 123.469 177.214 138.523 148.25 148.383C119.287 158.221 121.708 143.453 85.5038 159.057C49.2995 174.639 27.599 198.453 10.6963 202.546C-6.2063 206.64 535.119 195.988 535.119 195.988" fill="#FABF1F"/>
<path d="M530.739 67.8531C530.739 94.7477 508.951 116.536 482.056 116.536C455.162 116.536 433.373 94.7477 433.373 67.8531C433.373 40.9585 455.162 19.1699 482.056 19.1699C508.951 19.1699 530.739 40.9585 530.739 67.8531Z" fill="#FFE03D"/>
<path d="M432.683 98.2265L370.609 128.301L371.214 129.549L433.287 99.4743L432.683 98.2265Z" fill="#FFEC8B"/>
<path d="M397.587 90.0158L397.367 88.6513L426.397 83.9414L426.617 85.3059L397.587 90.0158Z" fill="#FFEC8B"/>
<path d="M424.285 68.5674L386.062 69.2812L386.088 70.6676L424.311 69.9537L424.285 68.5674Z" fill="#FFEC8B"/>
<path d="M408.642 46.2487L408.193 47.5605L426.309 53.7628L426.758 52.451L408.642 46.2487Z" fill="#FFEC8B"/>
<path d="M453.44 113.564L440.777 137.141L441.999 137.797L454.662 114.22L453.44 113.564Z" fill="#FFEC8B"/>
<path d="M507.211 147.261L503.008 120.718L504.372 120.498L508.576 147.04L507.211 147.261Z" fill="#FFEC8B"/>
<path d="M514.681 116.515L513.551 117.318L520.255 126.756L521.386 125.953L514.681 116.515Z" fill="#FFEC8B"/>
<path d="M567.032 136.761L525.105 103.264L525.964 102.186L567.89 135.683L567.032 136.761Z" fill="#FFEC8B"/>
<path d="M437.334 34.8389C436.08 34.0906 413.939 15.5814 411.408 13.4685L412.289 12.4121C422.148 20.6654 437.136 33.1223 438.039 33.6725L437.334 34.8609V34.8389Z" fill="#FFEC8B"/>
<path d="M445.485 7.0975L444.32 7.84961L452.009 19.7567L453.173 19.0046L445.485 7.0975Z" fill="#FFEC8B"/>
<path d="M475.23 128.458L472.49 155.766L473.87 155.904L476.61 128.596L475.23 128.458Z" fill="#FFEC8B"/>
<path d="M538.997 86.6287L538.672 87.9766L563.382 93.9409L563.708 92.5931L538.997 86.6287Z" fill="#FFEC8B"/>
<path d="M540.339 67.1135L540.334 68.5L565.336 68.5916L565.341 67.2051L540.339 67.1135Z" fill="#FFEC8B"/>
<path d="M530.457 6.50945L518.092 24.1816L519.228 24.9765L531.593 7.30434L530.457 6.50945Z" fill="#FFEC8B"/>
<path d="M488.895 0.0176564L487.637 14.4004L489.018 14.5212L490.276 0.138502L488.895 0.0176564Z" fill="#FFEC8B"/>
<path d="M564.075 24.3218L532.465 40.623L533.1 41.8554L564.711 25.5541L564.075 24.3218Z" fill="#FFEC8B"/>
<path d="M548.401 48.329L538.307 52.4277L538.828 53.7124L548.922 49.6137L548.401 48.329Z" fill="#FFEC8B"/>
<path d="M469.575 2.74053L468.203 2.94141L469.718 13.2852L471.09 13.0844L469.575 2.74053Z" fill="#FFEC8B"/>
<path d="M0 194.006V280.434H599.978V194.05C599.978 194.05 34.1794 195.37 0 194.006Z" fill="#FED61A"/>
<path d="M176.752 175.981C176.752 175.695 176.378 170.743 176.092 170.567C175.828 170.391 174.947 170.567 174.903 170.105C174.859 169.643 174.859 166.562 174.859 166.562L181.242 165.527L186.194 166.1C186.194 166.1 187.118 169.643 186.15 169.753C185.159 169.863 184.235 170.545 184.345 170.897C184.455 171.25 184.719 176.268 184.719 176.268C184.719 176.268 178.227 176.378 178.029 176.62C177.809 176.84 176.774 175.651 176.774 175.651" fill="#9B5714"/>
<path d="M178.117 185.556L174.837 186.7L171.668 177.743C171.668 177.743 172.372 176.378 172.966 176.136C173.561 175.916 176.18 174.419 179.723 174.023C183.267 173.627 185.665 173.627 186.04 173.627C186.414 173.627 187.118 173.847 187.118 173.847C187.118 173.847 187.448 178.931 187.602 180.12C187.756 181.308 187.976 182.452 187.492 182.629C187.008 182.805 184.719 183.553 183.355 183.817C181.99 184.103 178.733 185.424 178.403 185.468" fill="#9B5714"/>
<path d="M176.047 189.715C175.717 189.781 175.783 184.125 175.783 184.125C175.783 184.125 180.515 179.965 184.674 179.789C188.812 179.613 190.881 179.569 191.541 179.679C192.201 179.789 192.091 179.569 192.201 179.789C192.311 180.009 192.575 183.729 192.575 183.729L197.747 183.685C197.747 183.685 197.593 185.732 197.593 186.084C197.593 186.436 198.408 187.91 197.263 188.263C196.119 188.593 194.974 189.231 194.974 189.231L195.238 192.356C195.238 192.356 189.472 192.994 184.564 193.611C179.656 194.249 177.147 192.928 177.147 192.928L176.047 189.737V189.715Z" fill="#9B5714"/>
<path d="M174.022 199.42C174.022 199.2 173.032 195.722 172.834 195.018C172.614 194.336 173.538 191.431 174.198 190.506C174.859 189.604 175.937 188.393 179.657 188.217C183.354 188.041 187.932 187.887 190.441 188.217C192.95 188.569 194.843 188.217 196.493 188.966C198.122 189.714 199.662 190.44 200.741 189.868C201.841 189.296 202.149 187.469 202.105 186.039C202.039 184.608 201.731 182.451 201.885 181.351C202.039 180.272 203.03 179.018 203.844 179.018C204.658 179.018 205.693 178.908 206.903 179.128C208.092 179.348 209.742 179.524 210.271 179.524C210.799 179.524 211.085 179.348 211.591 179.634C212.075 179.92 212.185 180.844 212.185 181.175C212.185 181.505 212.009 182.605 210.381 182.935C208.752 183.265 207.343 183.97 206.947 184.366C206.573 184.762 205.649 186.083 205.649 187.205C205.649 188.327 205.385 195.59 205.275 196.449C205.165 197.307 203.25 200.718 202.105 201.357C200.961 201.995 199.046 201.643 197.594 200.894C196.119 200.146 191.651 203.007 190.067 203.293C188.482 203.579 184.829 203.117 183.794 202.215C182.76 201.291 178.842 202.325 177.808 202.325C176.773 202.325 177.258 202.721 175.959 201.973C174.661 201.224 174.044 199.354 174.044 199.354" fill="#9B5714"/>
<path d="M173.427 195.195C173.471 195.481 173.537 207.344 173.537 208.268C173.537 209.193 172.767 209.017 172.723 209.809C172.679 210.601 172.987 218.194 172.987 218.701C172.987 219.207 173.251 220.197 173.251 220.197C173.251 220.197 177.059 220.307 177.059 220.087C177.059 219.867 175.65 217.512 175.474 217.116C175.298 216.72 174.66 210.271 174.814 210.051C174.968 209.831 176.553 207.19 176.949 206.86C177.323 206.53 178.533 199.839 178.577 199.685C178.643 199.509 173.405 195.239 173.405 195.239" fill="#9B5714"/>
<path d="M185.423 200.344C184.873 200.63 183.245 201.665 182.584 203.206C181.924 204.746 181.286 209.588 181.396 210.38C181.506 211.173 184.389 216.653 184.389 216.653C184.389 216.653 186.084 219.91 186.194 220.086C186.304 220.262 183.641 220.372 182.914 220.372C182.188 220.372 182.034 216.543 182.034 216.543L179.701 211.921C179.701 211.921 178.931 207.695 178.821 207.299C178.711 206.903 178.227 203.316 178.227 202.853C178.227 202.391 178.601 199.662 178.601 199.662L185.401 200.344H185.423Z" fill="#9B5714"/>
<path d="M187.382 200.85C187.426 201.027 187.756 205.692 188.152 207.013C188.527 208.333 189.187 210.446 189.187 210.842C189.187 211.239 188.637 213.527 188.307 214.32C187.976 215.112 187.426 216.829 187.382 217.335C187.338 217.841 187.162 219.206 187.162 219.668V220.284L190.86 220.35L189.825 217.489C189.825 217.489 190.705 214.122 190.904 213.153C191.124 212.185 191.498 210.138 191.564 209.28C191.608 208.421 191.19 203.183 191.19 203.183L191.52 199.42L187.382 200.85Z" fill="#9B5714"/>
<path d="M196.647 220.416L199.31 220.372C199.31 220.372 198.826 218.655 198.54 217.973C198.276 217.291 196.955 213.637 196.845 212.097C196.735 210.556 197.505 208.267 197.505 208.267C197.505 208.267 197.505 203.822 197.285 202.347C197.065 200.872 196.691 197.945 196.691 197.945L192.113 199.838C192.113 199.838 193.742 203.271 194.072 203.888C194.402 204.526 194.776 206.507 194.776 207.541C194.776 208.575 194.82 211.547 194.82 211.547L194.93 213.836L195.525 216.521L196.625 220.46L196.647 220.416Z" fill="#9B5714"/>
<path d="M203.999 198.583H203.888C203.602 198.539 202.216 198.385 201.93 198.341L202.15 197.219C202.304 197.241 203.228 197.351 203.888 197.417C205.011 197.021 206.838 196.228 207.344 195.612C207.916 194.952 208.048 192.993 208.136 191.937C208.136 191.694 208.18 191.474 208.18 191.298C208.268 190.484 208.29 184.344 208.29 182.055H209.391C209.391 182.385 209.391 190.374 209.281 191.408C209.281 191.562 209.259 191.783 209.237 192.003C209.127 193.345 208.972 195.392 208.18 196.338C207.3 197.395 204.439 198.385 204.131 198.495L204.021 198.539L203.999 198.583Z" fill="#9B5714"/>
<path d="M168.719 208.885L168.234 207.851C168.234 207.851 168.432 207.719 168.851 207.278C169.291 206.816 169.929 206.2 170.171 205.958C170.303 205.496 170.699 204.043 170.831 202.987C170.875 202.635 170.941 202.15 170.985 201.6C171.14 200.192 171.36 198.277 171.602 196.912C171.954 194.822 173.759 193.523 173.847 193.457L174.463 194.403C174.463 194.403 172.966 195.504 172.68 197.11C172.438 198.453 172.24 200.346 172.086 201.732C172.02 202.283 171.976 202.767 171.932 203.141C171.756 204.483 171.228 206.354 171.206 206.42L171.162 206.574L171.051 206.684C171.051 206.684 170.193 207.543 169.643 208.093C169.093 208.665 168.829 208.841 168.741 208.885" fill="#9B5714"/>
<path d="M170.348 208.928C169.819 210.073 168.895 210.777 168.279 210.469C167.663 210.161 167.574 208.994 168.103 207.828C168.631 206.683 169.555 205.979 170.172 206.287C170.788 206.595 170.876 207.762 170.348 208.928Z" fill="#9B5714"/>
<path d="M248.367 192.136C248.697 192.136 251.074 191.696 251.911 191.167C252.747 190.639 253.253 189.847 254.024 186.744C254.794 183.662 255.806 181.087 256.136 180.911C256.466 180.735 256.555 180.383 258.337 180.207C260.12 180.031 261.374 181.616 261.374 181.616C261.374 181.616 258.337 184.895 258.073 188.24C257.809 191.585 259.504 196.097 256.797 199.024C254.09 201.93 252.571 204.945 243.966 204.857C235.36 204.769 233.071 201.577 231.311 201.313C229.528 201.049 226.667 202.37 226.403 201.401C226.161 200.433 225.808 195.481 226.403 193.456C226.997 191.431 226.997 190.177 232.565 189.032C238.133 187.888 237.715 184.081 239.564 183.288C241.413 182.496 244.12 183.024 244.956 184.521C245.792 186.017 246.651 190.001 246.651 190.001L248.345 192.114L248.367 192.136Z" fill="#9B5714"/>
<path d="M260.539 181.088C260.737 181.088 261.683 181.088 262.058 181.572C262.432 182.056 262.234 182.54 263.246 182.893C264.258 183.245 264.677 182.717 264.721 183.641C264.765 184.565 265.271 186.414 264.677 186.766C264.082 187.118 263.422 187.03 261.309 186.854C259.196 186.678 258.25 186.062 258.25 186.062C258.25 186.062 257.832 185.754 257.744 185.314C257.656 184.873 258.03 182.54 258.03 182.54L260.561 181.088H260.539Z" fill="#9B5714"/>
<path d="M252.175 191.784C252.175 191.784 250.414 192.686 248.543 191.344C246.672 190.001 244.119 188.967 244.119 188.967L240.994 189.935C240.994 189.935 242.931 194.337 246.276 194.491C249.622 194.645 252.197 191.806 252.197 191.806" fill="#9B5714"/>
<path d="M250.018 193.477L227.328 193.235L226.205 183.265L248.764 180.492L250.018 193.477Z" fill="#9B5714"/>
<path d="M244.604 183.971H232.037C231.179 183.971 230.475 183.267 230.475 182.408V176.51C230.475 175.652 231.179 174.947 232.037 174.947H244.604C245.463 174.947 246.167 175.652 246.167 176.51V182.408C246.167 183.267 245.463 183.971 244.604 183.971Z" fill="#9B5714"/>
<path d="M243.064 172.086H234.084V178.358H243.064V172.086Z" fill="#9B5714"/>
<path d="M241.876 173.076L236.418 174.506C235.802 174.66 235.185 174.286 235.031 173.626L234.019 169.466C233.865 168.828 234.239 168.168 234.855 168.014L240.313 166.583C240.93 166.429 241.546 166.803 241.7 167.464L242.69 171.623C242.844 172.262 242.47 172.922 241.854 173.076" fill="#9B5714"/>
<path d="M222.354 207.695L222.023 206.55C222.31 206.462 222.486 205.978 222.508 205.23C222.53 204.658 222.53 203.997 222.53 203.337C222.53 201.18 222.53 198.715 223.234 196.933C223.916 195.216 225.809 193.917 227.482 192.795C228.12 192.355 228.714 191.959 229.198 191.562L229.903 192.509C229.374 192.927 228.758 193.367 228.098 193.807C226.557 194.842 224.819 196.03 224.268 197.417C223.652 198.979 223.63 201.312 223.63 203.359C223.63 204.063 223.63 204.724 223.608 205.318C223.542 206.991 222.86 207.541 222.31 207.717" fill="#9B5714"/>
<path d="M223.563 208.509C223.277 209.808 222.507 210.622 221.869 210.336C221.208 210.028 220.922 208.751 221.208 207.431C221.494 206.132 222.265 205.318 222.903 205.604C223.563 205.912 223.849 207.189 223.563 208.509Z" fill="#9B5714"/>
<path d="M247.839 202.611C247.839 202.611 247.509 215.773 247.575 216.807C247.619 217.841 247.619 219.36 247.619 219.36L248.587 220.394H245.572L244.934 203.162L247.861 202.611H247.839Z" fill="#9B5714"/>
<path d="M253.606 200.213C253.606 200.213 251.471 210.205 251.603 210.513C251.757 210.821 252.814 217.336 253.034 217.644C253.254 217.952 253.826 219.514 253.826 219.735C253.826 219.955 251.625 219.889 251.625 219.889C251.625 219.889 251.119 218.172 251.119 217.886C251.119 217.6 250.129 211.217 249.909 210.535C249.689 209.853 249.491 208.664 249.623 208.312C249.777 207.938 249.975 201.974 249.975 201.974L253.606 200.257V200.213Z" fill="#9B5714"/>
<path d="M226.492 196.625C226.492 196.625 225.832 202.457 226.118 203.976C226.404 205.494 226.778 208.444 226.778 208.444C226.778 208.444 225.567 213.726 225.435 214.672C225.303 215.596 225.435 218.942 225.501 219.14C225.545 219.338 225.633 219.932 225.633 219.932V220.284H228.186L227.35 217.533C227.35 217.533 227.262 215.464 227.592 214.254C227.922 213.021 228.913 209.214 228.913 209.214L229.573 206.529C229.573 206.529 230.85 200.653 231.07 200.102C231.312 199.552 226.536 196.669 226.536 196.669" fill="#9B5714"/>
<path d="M231.598 197.197C231.598 197.197 232.478 207.937 232.632 209.016C232.764 210.094 234.415 214.364 235.075 215.134C235.735 215.927 236.726 218.282 236.77 218.568C236.814 218.854 237.056 220.24 237.056 220.24C237.056 220.24 237.056 220.791 237.232 220.791C237.408 220.791 239.895 220.636 239.895 220.636C239.895 220.636 239.279 218.326 238.905 217.995C238.53 217.643 237.21 215.398 237.21 215.398C237.21 215.398 235.427 212.317 235.053 211.283C234.679 210.248 233.843 208.092 233.887 207.849C233.931 207.607 235.581 201.093 235.581 200.455C235.581 199.816 231.598 197.219 231.598 197.219" fill="#9B5714"/>
<path d="M257.546 202.479C256.864 202.479 256.379 202.303 256.357 202.303L256.203 202.215C252.396 199.332 252.242 199.112 252.176 199.002L253.122 198.342C253.276 198.496 255.103 199.926 256.798 201.181C257.04 201.247 258.008 201.445 258.932 200.917C259.835 200.388 260.495 199.288 260.869 197.659C261.265 195.965 261.001 188.041 260.869 185.136L261.992 185.07C261.992 185.51 262.476 195.723 261.992 197.923C261.551 199.904 260.693 201.247 259.483 201.951C258.8 202.347 258.14 202.457 257.59 202.457" fill="#9B5714"/>
<path d="M232.015 183.971C232.015 183.971 230.276 180.89 228.736 180.669C227.173 180.427 224.73 180.559 224.73 180.559C224.73 180.559 222.617 186.942 223.388 188.923C224.158 190.903 230.937 192.18 231.487 192.18C232.037 192.18 233.6 186.722 233.6 186.722L231.993 183.993L232.015 183.971Z" fill="#9B5714"/>
<path d="M327.027 174.22C327.027 173.956 326.675 169.246 326.411 169.092C326.147 168.938 325.333 169.092 325.267 168.652C325.223 168.211 325.223 165.306 325.223 165.306L331.253 164.338L335.963 164.888C335.963 164.888 336.843 168.233 335.919 168.343C334.995 168.454 334.114 169.092 334.202 169.422C334.312 169.752 334.576 174.506 334.576 174.506C334.576 174.506 328.436 174.616 328.216 174.836C328.018 175.056 327.027 173.912 327.027 173.912" fill="#9B5714"/>
<path d="M328.303 183.288L325.2 184.367L322.207 175.894C322.207 175.894 322.889 174.595 323.44 174.375C324.012 174.155 326.477 172.746 329.844 172.372C333.211 171.998 335.478 171.998 335.83 171.998C336.183 171.998 336.865 172.218 336.865 172.218C336.865 172.218 337.173 177.038 337.327 178.16C337.481 179.283 337.679 180.383 337.217 180.537C336.755 180.713 334.598 181.396 333.299 181.682C332.001 181.946 328.92 183.2 328.612 183.244" fill="#9B5714"/>
<path d="M326.344 187.228C326.036 187.272 326.08 181.924 326.08 181.924C326.08 181.924 330.57 177.985 334.488 177.831C338.405 177.677 340.364 177.611 341.002 177.721C341.618 177.831 341.508 177.611 341.618 177.831C341.728 178.051 341.971 181.55 341.971 181.55L346.878 181.484C346.878 181.484 346.724 183.421 346.724 183.751C346.724 184.081 347.495 185.49 346.416 185.798C345.338 186.128 344.237 186.722 344.237 186.722L344.502 189.693C344.502 189.693 339.021 190.288 334.378 190.882C329.734 191.476 327.357 190.222 327.357 190.222L326.322 187.206L326.344 187.228Z" fill="#9B5714"/>
<path d="M324.429 196.428C324.429 196.208 323.504 192.929 323.284 192.269C323.086 191.608 323.967 188.857 324.583 187.999C325.199 187.141 326.233 185.996 329.755 185.842C333.254 185.688 337.59 185.512 339.967 185.842C342.344 186.172 344.149 185.842 345.689 186.546C347.23 187.251 348.682 187.955 349.717 187.405C350.751 186.854 351.059 185.138 351.015 183.795C350.971 182.453 350.663 180.384 350.817 179.371C350.971 178.337 351.896 177.149 352.688 177.149C353.48 177.149 354.449 177.039 355.571 177.259C356.715 177.479 358.256 177.633 358.762 177.633C359.268 177.633 359.533 177.479 359.995 177.743C360.457 178.007 360.567 178.887 360.567 179.195C360.567 179.504 360.413 180.538 358.872 180.868C357.332 181.198 355.967 181.836 355.615 182.211C355.263 182.585 354.383 183.839 354.383 184.918C354.383 185.996 354.118 192.863 354.03 193.677C353.92 194.491 352.116 197.727 351.037 198.321C349.959 198.915 348.154 198.585 346.746 197.881C345.359 197.176 341.111 199.884 339.615 200.148C338.118 200.412 334.663 199.994 333.672 199.113C332.704 198.255 328.985 199.223 327.994 199.223C327.004 199.223 327.466 199.597 326.233 198.893C325.001 198.189 324.429 196.406 324.429 196.406" fill="#9B5714"/>
<path d="M323.879 192.422C323.923 192.686 323.989 203.932 323.989 204.791C323.989 205.649 323.263 205.495 323.219 206.243C323.175 207.014 323.483 214.188 323.483 214.673C323.483 215.157 323.747 216.081 323.747 216.081C323.747 216.081 327.357 216.191 327.357 215.971C327.357 215.751 326.014 213.55 325.86 213.154C325.706 212.78 325.09 206.661 325.244 206.463C325.398 206.243 326.895 203.756 327.247 203.426C327.599 203.096 328.743 196.78 328.787 196.626C328.831 196.471 323.879 192.422 323.879 192.422Z" fill="#9B5714"/>
<path d="M335.237 197.286C334.709 197.55 333.168 198.54 332.552 199.993C331.935 201.445 331.319 206.045 331.407 206.794C331.517 207.542 334.246 212.736 334.246 212.736C334.246 212.736 335.853 215.817 335.941 215.971C336.051 216.125 333.52 216.235 332.838 216.235C332.156 216.235 332.023 212.626 332.023 212.626L329.801 208.246C329.801 208.246 329.074 204.241 328.986 203.866C328.876 203.492 328.414 200.081 328.414 199.641C328.414 199.201 328.766 196.604 328.766 196.604L335.215 197.242L335.237 197.286Z" fill="#9B5714"/>
<path d="M337.085 197.77C337.129 197.924 337.437 202.37 337.811 203.603C338.163 204.857 338.801 206.838 338.801 207.234C338.801 207.63 338.273 209.765 337.965 210.535C337.657 211.284 337.129 212.912 337.085 213.396C337.041 213.881 336.887 215.179 336.887 215.619V216.214L340.386 216.28L339.418 213.572C339.418 213.572 340.254 210.381 340.452 209.457C340.65 208.532 341.024 206.596 341.068 205.781C341.112 204.967 340.716 199.993 340.716 199.993L341.024 196.428L337.107 197.77H337.085Z" fill="#9B5714"/>
<path d="M345.866 216.302L348.397 216.258C348.397 216.258 347.935 214.629 347.671 213.991C347.407 213.353 346.174 209.897 346.064 208.423C345.954 206.97 346.68 204.791 346.68 204.791C346.68 204.791 346.68 200.588 346.482 199.179C346.284 197.771 345.91 195.02 345.91 195.02L341.574 196.802C341.574 196.802 343.137 200.038 343.445 200.632C343.753 201.226 344.105 203.119 344.105 204.087C344.105 205.055 344.149 207.873 344.149 207.873L344.259 210.029L344.831 212.56L345.866 216.28V216.302Z" fill="#9B5714"/>
<path d="M352.844 195.635H352.734C352.469 195.591 351.149 195.459 350.885 195.393L351.083 194.337C351.237 194.359 352.095 194.469 352.734 194.535C353.79 194.161 355.529 193.413 356.013 192.84C356.541 192.202 356.695 190.353 356.761 189.363C356.761 189.121 356.783 188.923 356.805 188.769C356.893 187.998 356.915 182.188 356.915 180.031H357.95C357.95 180.361 357.95 187.91 357.84 188.901C357.84 189.055 357.818 189.253 357.796 189.473C357.707 190.749 357.553 192.686 356.783 193.589C355.925 194.579 353.24 195.525 352.932 195.635L352.822 195.679L352.844 195.635Z" fill="#9B5714"/>
<path d="M319.411 205.385L318.949 204.417C318.949 204.417 319.125 204.285 319.543 203.867C319.962 203.448 320.556 202.832 320.798 202.612C320.93 202.172 321.304 200.807 321.414 199.817C321.458 199.465 321.502 199.025 321.568 198.497C321.722 197.176 321.92 195.349 322.14 194.051C322.493 192.07 324.187 190.838 324.275 190.771L324.87 191.674C324.87 191.674 323.439 192.708 323.175 194.249C322.955 195.525 322.757 197.308 322.603 198.629C322.537 199.157 322.493 199.597 322.449 199.949C322.295 201.226 321.788 202.986 321.766 203.052L321.722 203.184L321.612 203.294C321.612 203.294 320.798 204.109 320.27 204.637C319.764 205.187 319.499 205.341 319.411 205.385Z" fill="#9B5714"/>
<path d="M320.953 205.428C320.446 206.529 319.588 207.167 318.994 206.881C318.4 206.595 318.334 205.472 318.84 204.394C319.324 203.293 320.204 202.655 320.799 202.941C321.393 203.227 321.459 204.35 320.953 205.428Z" fill="#9B5714"/>
<path d="M294.08 186.259C294.08 186.259 296.215 190.308 298.636 190.594C301.057 190.881 302.773 189.736 303.258 188.152C303.742 186.567 303.808 185.841 303.808 185.841C303.808 185.841 303.126 184.476 303.126 183.97C303.126 183.464 302.773 181.725 304.094 181.505C305.415 181.285 305.877 181.285 306.845 181.505C307.813 181.725 307.043 181.857 308.782 181.725C310.499 181.571 310.719 181.351 311.401 181.505C312.083 181.659 312.303 182.011 312.303 182.803C312.303 183.596 312.105 184.102 311.819 184.476C311.555 184.828 310.851 185.422 310.102 185.775C309.354 186.127 307.835 187.139 307.747 187.799C307.681 188.46 307.263 191.123 306.779 192.135C306.295 193.147 305.194 196.119 304.16 197.109C303.126 198.121 302.575 199.486 301.189 199.64C299.802 199.772 298.35 200.586 296.303 199.574C294.234 198.562 291.747 197.131 291.747 197.131C291.747 197.131 289.678 193.742 289.546 192.729C289.414 191.717 288.512 187.667 288.93 187.029C289.348 186.369 291.615 184.938 292.099 185.444C292.583 185.951 294.102 186.303 294.102 186.303" fill="#9B5714"/>
<path d="M292.671 188.548C292.737 188.306 294.277 184.961 293.045 183.53C291.812 182.1 292.957 180.009 289.986 181.131C287.014 182.254 289.457 181.682 285.254 182.496C281.05 183.288 282.04 183.222 279.223 182.98C276.406 182.738 277.705 183.772 276.406 182.738C275.108 181.704 275.482 181.219 274.271 181.219C273.061 181.219 273.039 180.581 272.203 181.704C271.366 182.826 270.838 181.946 269.848 184.411C268.857 186.898 268.021 188.812 268.021 189.209C268.021 189.605 267.097 190.485 270.684 191.277C274.271 192.07 275.944 191.123 276.252 192.158C276.56 193.192 275.79 194.403 278.761 195.591C281.732 196.802 283.867 197.99 287.455 196.802C291.042 195.591 292.935 196.868 292.869 194.161C292.781 191.453 292.649 188.57 292.649 188.57" fill="#9B5714"/>
<path d="M274.535 189.34C274.315 190.22 273.171 194.6 273.853 197.571C274.535 200.52 274.161 202.281 273.699 204.592C273.237 206.903 272.643 204.922 272.775 210.974L272.929 217.049H277.352C277.815 217.049 276.274 215.464 276.208 214.738C276.142 214.012 275.218 206.903 275.284 206.661C275.372 206.419 277.264 202.589 278.035 201.07C278.805 199.552 281.71 193.874 281.71 193.323C281.71 192.773 274.535 189.34 274.535 189.34Z" fill="#9B5714"/>
<path d="M283.846 193.852C283.846 193.852 281.865 198.232 281.535 199.377C281.205 200.543 280.655 202.656 280.765 204.395C280.875 206.111 280.809 208.202 280.919 208.422C281.029 208.642 281.579 209.699 282.46 210.777C283.34 211.878 283.78 213.594 284.066 214.012C284.33 214.409 284.726 214.761 284.947 215.223C285.167 215.685 285.211 216.543 285.211 216.543L282.394 216.609C282.394 216.609 282.57 214.695 282.283 214.254C281.997 213.792 279.797 211.151 279.797 211.151L277.926 207.124C277.926 207.124 278.19 200.433 278.256 199.685C278.3 198.936 278.256 193.698 278.256 193.698C278.256 193.698 279.797 192.422 280.721 192.884C281.645 193.346 283.802 193.852 283.802 193.852" fill="#9B5714"/>
<path d="M287.476 194.205C287.476 194.205 286.53 198.981 287.256 201.072C287.983 203.141 288.093 205.099 288.203 205.804C288.313 206.486 286.948 209.611 286.948 210.007C286.948 210.403 286.552 213.529 286.838 214.453C287.102 215.377 287.102 216.874 287.102 216.874H289.699L289.039 214.739C289.039 214.739 288.819 213 289.259 211.328C289.699 209.655 290.36 204.923 290.36 204.703C290.36 204.483 290.36 202.965 290.514 201.534C290.69 200.103 291.064 196.802 291.064 196.802L291.218 194.271L287.476 194.205Z" fill="#9B5714"/>
<path d="M295.18 195.414C295.224 195.59 296.016 198.935 295.73 201.466C295.444 203.997 294.519 205.802 294.673 206.374C294.85 206.946 295.994 209.83 296.544 211.458C297.094 213.065 297.491 214.627 297.645 214.98C297.821 215.332 298.085 216.542 298.085 216.542H295.598C295.598 216.542 295.994 214.759 295.994 214.583C295.994 214.407 295.488 212.559 295.488 212.559L293.837 208.993L293.133 206.352C293.133 206.352 292.869 205.208 292.429 203.821C291.988 202.435 291.328 201.29 290.778 199.441C290.228 197.593 290.404 197.131 290.404 195.81C290.404 194.49 290.624 194.027 290.624 194.027L295.202 195.458L295.18 195.414Z" fill="#9B5714"/>
<path d="M276.186 184.058L276.076 177.082L289.127 176.443L289.678 184.41L276.186 184.058Z" fill="#9B5714"/>
<path d="M277.574 177.941C277.574 177.941 275.637 177.368 275.263 176.444C274.867 175.52 274.382 174.265 275.153 173.451C275.923 172.637 277.97 171.888 279.4 171.668C280.831 171.426 283.802 171.096 285.563 171.426C287.323 171.778 288.534 171.888 289.26 172.813C289.986 173.737 290.096 174.419 289.986 174.992C289.876 175.564 289.15 176.422 289.15 176.422C289.15 176.422 287.279 177.633 285.629 177.875C283.978 178.095 278.256 177.809 277.926 177.875" fill="#9B5714"/>
<path d="M284.131 195.504L283.779 199.179H282.37L282.238 195.107L284.131 195.504Z" fill="#9B5714"/>
<path d="M285.695 195.504L285.343 199.179H283.934L283.824 195.107L285.695 195.504Z" fill="#9B5714"/>
<path d="M271.103 204.087C271.566 204.307 271.654 205.165 271.302 206.023C270.927 206.86 270.267 207.366 269.783 207.146C269.321 206.926 269.233 206.067 269.585 205.209C269.959 204.373 270.619 203.867 271.103 204.087Z" fill="#9B5714"/>
<path d="M271.125 205.208L270.465 204.284C270.465 204.284 271.829 203.162 271.675 201.159C271.631 200.587 271.587 200.058 271.521 199.596C271.367 198.144 271.257 197.087 271.763 195.657C272.666 193.148 274.558 191.541 275.263 191.541V192.685C275.043 192.774 273.568 193.918 272.798 196.053C272.38 197.219 272.49 198.1 272.622 199.464C272.666 199.948 272.732 200.455 272.776 201.071C272.952 203.712 271.191 205.142 271.125 205.208Z" fill="#9B5714"/>
<path d="M303.61 200.037C301.894 200.037 300.155 199.531 300.045 199.509L300.331 198.408C300.331 198.408 303.522 199.333 305.195 198.65C306.934 197.946 307.704 196.603 308.232 195.393C308.782 194.116 309.201 192.114 309.267 191.255C309.333 190.551 309.333 186.656 309.333 184.719H310.433C310.433 184.961 310.433 190.441 310.367 191.365C310.301 192.29 309.839 194.425 309.223 195.877C308.65 197.22 307.726 198.892 305.591 199.751C304.997 199.993 304.293 200.081 303.588 200.081" fill="#9B5714"/>
<path d="M136.696 188.988C136.696 188.988 138.831 193.037 141.252 193.324C143.673 193.61 145.39 192.465 145.874 190.859C146.358 189.274 146.424 188.548 146.424 188.548C146.424 188.548 145.742 187.183 145.742 186.677C145.742 186.171 145.39 184.432 146.71 184.212C148.031 183.992 148.515 183.992 149.483 184.212C150.452 184.432 149.681 184.586 151.42 184.432C153.137 184.278 153.357 184.08 154.039 184.212C154.721 184.366 154.942 184.718 154.942 185.51C154.942 186.303 154.721 186.809 154.457 187.183C154.171 187.535 153.489 188.129 152.719 188.482C151.948 188.856 150.43 189.846 150.364 190.506C150.298 191.167 149.88 193.83 149.395 194.842C148.911 195.855 147.811 198.826 146.776 199.838C145.742 200.85 145.192 202.215 143.805 202.369C142.419 202.523 140.966 203.315 138.897 202.303C136.828 201.291 134.341 199.838 134.341 199.838C134.341 199.838 132.273 196.427 132.119 195.414C131.987 194.402 131.084 190.352 131.502 189.692C131.92 189.032 134.209 187.601 134.672 188.107C135.156 188.614 136.674 188.966 136.674 188.966" fill="#9B5714"/>
<path d="M135.288 191.277C135.354 191.035 136.895 187.668 135.662 186.238C134.43 184.785 135.574 182.716 132.603 183.839C129.632 184.961 132.075 184.411 127.871 185.203C123.667 185.995 124.658 185.929 121.841 185.687C119.002 185.445 120.3 186.48 119.002 185.445C117.703 184.411 118.077 183.927 116.867 183.927C115.656 183.927 115.634 183.288 114.798 184.411C113.962 185.533 113.433 184.653 112.421 187.14C111.431 189.627 110.594 191.542 110.594 191.938C110.594 192.334 109.67 193.214 113.279 194.007C116.867 194.799 118.561 193.852 118.87 194.887C119.178 195.921 118.407 197.132 121.401 198.32C124.372 199.531 126.529 200.719 130.116 199.531C133.703 198.32 135.618 199.619 135.552 196.89C135.486 194.161 135.332 191.277 135.332 191.277" fill="#9B5714"/>
<path d="M117.086 192.092C116.866 192.972 115.721 197.374 116.403 200.345C117.086 203.316 116.711 205.077 116.249 207.388C115.787 209.721 115.171 207.696 115.325 213.792L115.479 219.889H119.925C120.387 219.889 118.846 218.282 118.78 217.556C118.692 216.83 117.79 209.721 117.856 209.479C117.944 209.237 119.837 205.385 120.607 203.866C121.377 202.348 124.282 196.67 124.282 196.097C124.282 195.525 117.086 192.092 117.086 192.092Z" fill="#9B5714"/>
<path d="M126.439 196.603C126.439 196.603 124.459 201.005 124.128 202.149C123.798 203.316 123.248 205.45 123.358 207.189C123.468 208.928 123.402 210.997 123.512 211.239C123.622 211.459 124.172 212.515 125.053 213.616C125.933 214.716 126.373 216.455 126.659 216.851C126.924 217.247 127.32 217.599 127.54 218.061C127.76 218.524 127.826 219.382 127.826 219.382L125.009 219.448C125.009 219.448 125.163 217.533 124.899 217.071C124.635 216.609 122.412 213.946 122.412 213.946L120.541 209.896C120.541 209.896 120.827 203.184 120.871 202.435C120.915 201.687 120.871 196.427 120.871 196.427C120.871 196.427 122.412 195.15 123.358 195.613C124.304 196.075 126.461 196.603 126.461 196.603" fill="#9B5714"/>
<path d="M130.071 196.956C130.071 196.956 129.125 201.753 129.851 203.822C130.577 205.913 130.687 207.872 130.797 208.554C130.907 209.258 129.521 212.362 129.521 212.78C129.521 213.198 129.147 216.301 129.411 217.226C129.675 218.15 129.675 219.647 129.675 219.647H132.272L131.612 217.512C131.612 217.512 131.392 215.773 131.832 214.1C132.272 212.428 132.932 207.674 132.932 207.454C132.932 207.234 132.932 205.715 133.108 204.284C133.284 202.832 133.658 199.553 133.658 199.553L133.835 197L130.071 196.934V196.956Z" fill="#9B5714"/>
<path d="M137.797 198.167C137.841 198.343 138.633 201.688 138.347 204.241C138.083 206.772 137.137 208.577 137.291 209.149C137.467 209.721 138.611 212.605 139.161 214.233C139.712 215.862 140.108 217.402 140.262 217.755C140.416 218.107 140.702 219.317 140.702 219.317H138.215C138.215 219.317 138.611 217.513 138.611 217.358C138.611 217.204 138.105 215.334 138.105 215.334L136.454 211.746L135.75 209.083C135.75 209.083 135.464 207.939 135.024 206.552C134.584 205.166 133.923 203.999 133.373 202.15C132.823 200.302 132.977 199.84 132.977 198.519C132.977 197.199 133.197 196.736 133.197 196.736L137.775 198.189L137.797 198.167Z" fill="#9B5714"/>
<path d="M118.758 186.787L118.648 179.789L131.744 179.15L132.294 187.14L118.758 186.787Z" fill="#9B5714"/>
<path d="M120.146 180.669C120.146 180.669 118.209 180.097 117.835 179.173C117.461 178.248 116.954 176.972 117.725 176.179C118.495 175.365 120.542 174.617 121.972 174.397C123.403 174.155 126.396 173.825 128.157 174.155C129.918 174.507 131.128 174.617 131.854 175.541C132.581 176.466 132.691 177.17 132.581 177.742C132.471 178.314 131.744 179.195 131.744 179.195C131.744 179.195 129.874 180.405 128.223 180.647C126.572 180.867 120.828 180.581 120.498 180.647" fill="#9B5714"/>
<path d="M126.727 198.254L126.353 201.951H124.944L124.834 197.857L126.727 198.254Z" fill="#9B5714"/>
<path d="M128.289 198.254L127.937 201.951H126.529L126.396 197.857L128.289 198.254Z" fill="#9B5714"/>
<path d="M113.652 206.882C114.114 207.102 114.202 207.982 113.85 208.818C113.476 209.655 112.816 210.161 112.332 209.941C111.87 209.721 111.782 208.862 112.134 208.004C112.508 207.168 113.168 206.661 113.652 206.882Z" fill="#9B5714"/>
<path d="M113.674 208.004L113.014 207.08C113.014 207.08 114.378 205.958 114.224 203.933C114.18 203.361 114.136 202.832 114.07 202.37C113.916 200.918 113.806 199.861 114.312 198.431C115.215 195.9 117.107 194.293 117.812 194.293V195.437C117.591 195.525 116.117 196.67 115.347 198.827C114.928 199.993 115.038 200.896 115.171 202.238C115.215 202.722 115.281 203.25 115.325 203.845C115.501 206.508 113.74 207.938 113.674 207.982" fill="#9B5714"/>
<path d="M146.247 202.809C144.508 202.809 142.792 202.303 142.682 202.281L142.99 201.181C142.99 201.181 146.181 202.105 147.876 201.423C149.614 200.718 150.385 199.376 150.913 198.143C151.463 196.867 151.881 194.864 151.947 194.006C152.013 193.302 152.013 189.406 152.013 187.447H153.114C153.114 187.689 153.114 193.192 153.048 194.116C152.982 195.04 152.52 197.197 151.925 198.628C151.353 199.992 150.407 201.643 148.272 202.501C147.678 202.743 146.973 202.831 146.269 202.831" fill="#9B5714"/>
<path d="M121.84 176.312L122.523 168.961C122.523 168.961 128.971 169.159 130.226 169.467C131.502 169.775 132.471 172.13 132.272 172.746C132.074 173.363 131.832 175.542 131.832 175.542L129.345 177.544C129.345 177.544 124.085 177.654 123.579 177.654C123.073 177.654 121.818 176.334 121.818 176.334" fill="#9B5714"/>
<path d="M49.5645 246.386C49.5645 246.386 85.2185 235.052 110.418 233.863C135.618 232.675 132.295 240.422 156.527 235.646C180.78 230.87 179.416 222.441 207.895 228.449C236.396 234.457 234.041 238.661 255.874 233.863C277.706 229.065 284.903 227.789 297.954 227.833C311.005 227.899 314.351 231.464 328.612 230.87C342.874 230.276 347.143 223.123 367.127 224.906C387.089 226.688 385.196 230.276 394.704 232.058C404.212 233.841 408.9 223.981 429.61 226.292C450.342 228.581 449.374 224.311 461.258 230.276C473.143 236.24 474.089 237.429 479.79 239.806" fill="#FFE03D"/>
<path d="M52.2486 281.051L600 280.347V211.569C600 211.569 569.694 216.587 532.852 207.806C496.009 199.047 462.314 190.903 395.98 209.677C329.646 228.45 320.182 244.12 259.108 255.389C198.034 266.657 92.7665 251.625 52.2266 281.051" fill="#FFEC8B"/>
</g>
<defs>
<clipPath id="clip0_1228_5708">
<rect width="600" height="281.051" fill="white"/>
</clipPath>
</defs>
</svg>
