<svg width="34" height="34" viewBox="0 0 34 34" fill="none" xmlns="http://www.w3.org/2000/svg">
<circle cx="17" cy="17" r="17" fill="#6291CC"/>
<path d="M11.1225 25.662L12.3445 22.906C13.5145 23.582 14.7885 23.946 16.3225 23.946C18.7405 23.946 20.0665 22.698 20.2485 18.694C19.3385 19.76 17.6485 20.332 16.0365 20.332C12.3965 20.332 10.1865 17.966 10.1865 14.326V13.806C10.1865 10.322 12.6825 7.644 16.8425 7.644C21.6265 7.644 23.5505 10.764 23.5505 15.574V16.77C23.5505 25.038 20.5605 26.962 16.1145 26.962C14.4245 26.962 12.5265 26.598 11.1225 25.662ZM20.1965 14.274V13.884C20.1965 11.856 19.0525 10.66 16.9205 10.66C14.6325 10.66 13.4625 11.83 13.4625 13.91V14.196C13.4625 16.38 14.5025 17.42 16.7905 17.42C19.1825 17.42 20.1965 15.99 20.1965 14.274Z" fill="white"/>
</svg>
