<svg width="34" height="34" viewBox="0 0 34 34" fill="none" xmlns="http://www.w3.org/2000/svg">
<circle cx="17" cy="17" r="17" fill="#6291CC"/>
<path d="M14.3985 12.974V13.234C14.3985 14.898 15.7765 15.652 17.0245 15.652C18.3245 15.652 19.5985 14.898 19.5985 13.234V12.974C19.5985 11.362 18.5325 10.53 16.9985 10.53C15.5425 10.53 14.3985 11.362 14.3985 12.974ZM13.9305 21.242V21.502C13.9305 23.114 15.1785 24.05 17.0505 24.05C18.8965 24.05 20.0665 23.114 20.0665 21.502V21.242C20.0665 19.396 18.6885 18.564 17.0505 18.564C15.4125 18.564 13.9305 19.344 13.9305 21.242ZM10.4985 21.71V21.268C10.4985 19.214 12.0065 17.498 13.5665 17.03C11.7725 16.146 10.9925 14.326 10.9925 13.104V12.792C10.9925 10.114 12.8645 7.644 16.9725 7.644C20.9765 7.644 23.0045 10.114 23.0045 12.792V13.104C23.0045 14.326 22.2765 15.99 20.4565 17.03C22.0685 17.524 23.4985 19.214 23.4985 21.268V21.71C23.4985 24.7 21.2365 26.962 17.0765 26.962C12.7605 26.962 10.4985 24.7 10.4985 21.71Z" fill="white"/>
</svg>
