<svg width="34" height="34" viewBox="0 0 34 34" fill="none" xmlns="http://www.w3.org/2000/svg">
<circle cx="17" cy="17" r="17" fill="#6291CC"/>
<path d="M11.993 26.676H8.66495V11.674L4.40095 14.118L2.78895 11.414L9.05495 7.93H11.993V26.676ZM19.978 12.116L17.716 10.348C18.964 8.736 20.576 7.644 23.28 7.644C26.79 7.644 29.078 9.516 29.078 12.324V12.584C29.078 14.066 28.506 16.068 26.374 16.874C28.844 17.316 30.014 18.98 30.014 21.112V21.502C30.014 24.336 27.804 26.962 23.202 26.962C21.018 26.962 18.964 26.286 17.196 24.882L18.834 22.282C20.654 23.608 21.72 23.998 23.228 23.998C25.568 23.998 26.66 22.984 26.66 21.346V21.008C26.66 19.188 25.646 18.356 23.254 18.356H20.732V15.496H22.968C25.308 15.496 25.828 14.404 25.828 12.792V12.584C25.828 11.18 24.84 10.556 23.28 10.556C21.694 10.556 20.81 11.206 19.978 12.116Z" fill="white"/>
</svg>
