<svg width="34" height="34" viewBox="0 0 34 34" fill="none" xmlns="http://www.w3.org/2000/svg">
<circle cx="17" cy="17" r="17" fill="#6291CC"/>
<path d="M11.993 26.676H8.66495V11.674L4.40095 14.118L2.78895 11.414L9.05495 7.93H11.993V26.676ZM27.518 20.696V20.41C27.518 18.408 26.296 17.29 24.216 17.29C22.63 17.29 21.486 17.966 20.654 18.772H18.418L19.016 7.93H29.65V10.686H22.006L21.798 15.574C22.656 15.054 23.722 14.612 25.282 14.612C28.896 14.612 30.872 17.316 30.872 20.332V20.722C30.872 23.712 28.896 26.962 24.19 26.962C21.486 26.962 19.406 26.416 17.534 24.882L19.146 22.256C20.914 23.66 22.422 23.946 24.164 23.946C26.452 23.946 27.518 22.568 27.518 20.696Z" fill="white"/>
</svg>
