<svg width="57" height="36" viewBox="0 0 57 36" fill="none" xmlns="http://www.w3.org/2000/svg">
<path d="M39.5 0.5C49.165 0.5 57 8.33502 57 18C57 27.665 49.165 35.5 39.5 35.5C35.3322 35.5 31.5057 34.0418 28.5 31.6094C25.4943 34.0418 21.6678 35.5 17.5 35.5C7.83502 35.5 0 27.665 0 18C0 8.33502 7.83502 0.5 17.5 0.5C21.6676 0.5 25.4944 1.95747 28.5 4.38965C31.5056 1.95747 35.3324 0.5 39.5 0.5Z" fill="#B2C0D7"/>
<path d="M25.2648 24.012C25.3608 24.036 25.4568 24.012 25.5528 24.012C26.0808 24.06 26.5608 24.18 26.9928 24.564C27.2088 24.78 27.3288 25.068 27.3288 25.404C27.3288 25.74 27.2088 26.22 27.0168 26.436C26.5128 26.94 25.3368 26.892 25.2888 26.892H11.8488C11.7048 26.892 11.5368 26.916 11.3688 26.916C10.6968 26.94 9.83278 26.988 9.30478 26.532C8.99278 26.244 8.80078 25.884 8.80078 25.5C8.80078 25.02 9.11278 24.42 9.59278 24.228C10.2408 23.988 10.9368 24.036 11.6328 24.012H11.7528C13.1208 23.988 14.6088 23.988 16.0488 24.012L16.0248 20.7C14.8008 20.724 13.7928 20.724 13.2168 20.676C12.5448 20.652 11.6568 20.628 11.1048 20.22C10.3848 19.668 10.3608 17.916 10.3608 17.844V12.684C10.3608 12.06 10.2648 11.388 10.3848 10.764C10.5528 10.02 11.4648 9.828 12.1848 9.78C12.7368 9.756 13.5528 9.9 13.6728 10.548C13.7208 10.836 13.6248 12.66 13.7448 12.924C13.8168 13.092 14.1528 13.116 14.3208 13.14C15.0648 13.188 15.3048 13.116 16.0488 13.116L21.5448 13.14C21.8808 13.164 22.1448 13.164 22.2408 12.828C22.2648 12.492 22.2648 11.076 22.2888 10.812C22.3128 10.236 22.4808 9.9 23.0808 9.78C23.7048 9.636 24.5928 9.684 24.9528 10.044C25.4568 10.572 25.4328 11.196 25.4328 12.444C25.3848 13.908 25.5048 17.436 25.3608 18.9C25.2888 19.836 24.7608 20.436 23.8488 20.58C23.3688 20.652 22.7208 20.628 22.2408 20.628C21.2088 20.652 20.2248 20.652 19.2648 20.652L19.3128 24.012C20.9448 24.012 22.0728 23.964 23.6328 24.012C24.2088 24.036 24.7608 23.964 25.2648 24.012ZM13.7448 17.604C13.8648 18.084 14.5608 18.084 15.0888 18.108C15.3288 18.084 20.2008 18.036 20.4888 18.084C20.7528 18.108 21.0168 18.084 21.2808 18.108C21.6168 18.132 22.1928 18.252 22.1928 17.724C22.1928 17.484 22.2408 16.5 22.1208 16.044C22.0248 15.66 21.8088 15.684 21.4968 15.708C21.3528 15.708 20.8968 15.732 20.7528 15.708H15.2808C14.6808 15.684 13.7928 15.564 13.7208 16.308C13.7208 16.476 13.7208 17.484 13.7448 17.604ZM47.0693 26.532C47.0213 26.916 46.9973 27.276 46.8773 27.66C46.8293 27.78 46.7813 27.876 46.7333 27.996C46.6373 28.188 46.4933 28.38 46.3013 28.524C45.9413 28.74 45.4853 28.788 45.0773 28.692C44.8373 28.644 44.6213 28.548 44.4533 28.404C43.8773 27.876 43.9013 26.628 43.9013 26.58V11.748C43.8773 11.004 43.9013 9.804 44.3573 9.372C44.6933 9.036 45.1013 8.988 45.5333 8.988C46.0853 8.988 46.5893 9.324 46.7813 9.852C47.0693 10.524 47.0453 11.268 47.0693 12.012V12.132C47.1413 14.58 47.0693 17.292 47.0693 19.596V25.668C47.0693 25.956 47.0933 26.244 47.0693 26.532ZM35.7413 24.18C35.7173 23.796 35.7173 23.412 35.7173 23.028V15.396C35.7173 14.892 35.7173 14.364 35.6693 13.836C35.6453 13.668 35.6213 13.308 35.4533 13.236C35.2853 13.14 35.0693 13.188 34.8773 13.164C34.6613 13.14 34.4453 13.188 34.2293 13.164H33.1013C32.5733 13.188 31.9973 13.14 31.4693 13.164C31.2293 13.188 31.0133 13.164 30.7733 13.164C30.4133 13.164 30.0053 13.164 29.6933 12.948C29.2373 12.636 29.1173 12.108 29.1173 11.604C29.0933 11.292 29.1653 10.98 29.3093 10.692C29.3813 10.524 29.4773 10.38 29.6213 10.284C29.7893 10.116 30.1493 9.996 30.3653 9.948C31.0373 9.78 31.8053 9.804 32.5013 9.804H36.6773C37.0853 9.852 37.5893 9.9 37.9733 10.044C38.2133 10.14 38.5013 10.308 38.6453 10.524C38.9333 10.98 38.9333 11.412 38.9813 11.94C39.0533 12.828 39.0293 13.716 39.0293 14.604V22.476C39.0293 22.548 39.0773 24.54 39.0293 25.548C38.9813 26.196 38.8373 26.988 37.9973 27.3C37.7093 27.42 37.4213 27.468 37.1813 27.468C36.7733 27.468 36.2933 27.3 36.1253 26.94C35.8853 26.46 35.7413 25.86 35.7413 25.236V24.18Z" fill="#4D2427"/>
</svg>
