<svg width="56" height="34" viewBox="0 0 56 34" fill="none" xmlns="http://www.w3.org/2000/svg">
<path d="M56 21.6364C56 31.3097 43.5 34 31.5 34C19.5 34 0 27.1883 0 17.5149C0 7.84157 17.5 0.000986718 32 6.10223e-08C46.5 -0.000986596 56 11.963 56 21.6364Z" fill="#336951"/>
<path d="M22.71 9.25C22.44 9.01 22.32 8.68 22.32 8.17C22.35 7.72 22.44 7.27 22.77 6.97C23.67 6.16 24.63 6.19 25.8 6.13C26.7 6.1 27.36 6.13 28.26 6.13C29.67 6.13 31.44 6.19 32.91 6.25C34.11 6.31 35.4 6.73 35.46 8.11C35.55 9.7 34.23 11.05 33.27 12.01C32.4 12.91 31.14 14.05 30.27 14.95C33.42 15.37 36.3 16.93 36.3 20.77C36.3 24.61 33.18 27.52 28.89 27.52C27.03 27.52 24.51 26.92 23.13 25.51C22.17 24.58 21.63 22.6 23.25 22.03C24.45 21.61 25.47 22.36 26.43 22.9C27.9 23.8 29.58 24.07 31.14 23.14C32.94 22.06 32.64 19.87 31.02 18.94C29.49 18.04 27.21 18.58 25.98 17.2C24.63 15.64 27.48 13.57 28.41 12.52C29.01 11.92 30 10.9 30.15 10.3C30.39 9.64 29.01 9.85 28.53 9.85H26.52C25.44 9.85 23.61 10.03 22.71 9.25Z" fill="white"/>
</svg>
