<svg width="221" height="54" viewBox="0 0 221 54" fill="none" xmlns="http://www.w3.org/2000/svg">
<rect x="20.5" y="2.5" width="162" height="48" rx="7.5" fill="#60AE72"/>
<rect x="20.5" y="2.5" width="162" height="48" rx="7.5" stroke="#79BE89"/>
<path d="M37.04 23.28C36.96 23.28 36.92 23.24 36.92 23.2C36.4 22.8 36.24 21.8 36.24 21.2C36.2 20.24 36.08 19.28 36.08 18.36C36.08 17 36.04 15.36 36.28 14.04C36.44 13.2 36.76 12.72 37.56 12.4C38.28 12.12 39.04 12.04 39.8 11.96C40.72 11.88 41.68 11.96 42.64 11.96H50.24C52.96 11.96 52.6 11.96 55.28 11.92C55.76 11.92 56.2 11.92 56.68 11.96C57.68 12 58.8 12.04 59.72 12.48C60.76 12.92 61.08 14.04 61.12 15.08C61.2 16.28 61.08 17.8 61.08 19C61.04 20.08 61.08 21.16 60.8 22.2C60.64 22.8 60.52 23.28 59.88 23.48C59.32 23.68 58.6 23.72 58.04 23.72H40.76C40.24 23.72 39.72 23.68 39.2 23.64C38.52 23.6 37.64 23.68 37.04 23.28ZM59.24 30.92C56.6 31 54.52 31.08 51.84 31.08C51.8 32.2 51.72 33.24 51.72 34.76C51.48 35.88 50 36.56 48.92 36.52C47.32 36.44 46.44 35.8 46.28 34.2C46.16 33.16 46.32 32.04 46.32 31C43.88 31 37.48 30.92 35.24 30.76C34.4 30.68 34 30.64 33.32 30C32.96 29.68 32.8 29.08 32.8 28.52C32.8 28 33 27.48 33.32 27.16C34.12 26.32 36.08 26.36 36.16 26.36H59.04C59.84 26.36 60.64 26.36 61.4 26.4C62.12 26.44 62.92 26.56 63.48 27.08C64.04 27.52 64.04 28.04 64.04 28.68C64.04 29.48 63.56 30.16 62.76 30.44C61.68 30.84 60.36 30.88 59.24 30.92ZM60.36 38.48C60.44 38.52 61.92 38.88 62.08 40C62.24 41 62.08 41.8 61.6 42.36C61 43.12 60.12 43.16 60.08 43.16H38.24C36.2 43.16 34.96 42.44 34.96 41.24V37.68C34.92 37.08 34.92 36.48 34.96 35.88C35.04 34.76 35.88 34 37 34C37.28 34 37.84 34.04 38.08 34.12C39.44 34.56 39.52 35.92 39.6 37.12C39.6 37.56 39.64 38.04 39.76 38.4C39.88 38.44 40.68 38.56 42.56 38.56C44.16 38.56 45.64 38.48 45.68 38.48H60.36ZM40.84 18.6C40.84 18.84 40.84 19.12 40.96 19.24C41.2 19.44 42.12 19.32 42.12 19.32H52.64C52.64 19.32 54.56 19.48 55.52 19.36C56.08 19.32 56.08 19.08 56.16 18.6C56.2 18.16 56.28 17.24 55.96 16.84C55.6 16.4 54.76 16.48 54.28 16.52H50.64C50.28 16.48 45.44 16.52 45.08 16.52C43.96 16.44 42.84 16.48 41.68 16.52C41.2 16.52 41.04 16.44 40.92 16.92C40.84 17.28 40.84 17.92 40.84 18.24V18.6ZM69.2516 35.72C69.4516 35.64 73.1316 35.8 73.8116 35.8C73.8516 35.16 73.9316 32.52 74.0116 31.2C73.5316 31.08 73.0916 30.96 72.6516 30.76C69.6516 29.52 67.3316 27.08 67.3316 23.56C67.3316 21.64 67.8916 20.16 68.8116 19H68.3716C67.0916 19 66.0116 18.04 66.0116 16.88C66.0116 15.68 67.0916 14.72 68.3716 14.72H73.6516V13.08C73.6516 12.04 74.6916 11.28 75.9716 11.28C77.2916 11.28 78.3316 12.04 78.3316 13.08V14.72H83.8516C85.1716 14.72 86.2516 15.68 86.2516 16.88C86.2516 18.04 85.1716 19 83.8516 19H83.7316C84.6516 20.16 85.2516 21.64 85.2516 23.56C85.2516 26.04 84.0516 28.08 82.0516 29.6C81.0516 30.32 79.9316 30.84 78.7716 31.16C78.8516 32.4 78.8516 35.16 78.8516 35.76V35.8H84.1716C85.0516 35.8 85.7716 35.96 86.2916 36.28C87.4916 37 87.4516 38.96 86.9316 39.92C86.4516 40.76 85.4116 40.84 84.5716 40.84H68.7716C68.7316 40.84 67.3716 40.72 66.6516 40.4C66.1316 40.12 65.7316 39.52 65.6116 38.76C65.4916 37.92 65.7716 37.12 66.2916 36.64C67.2516 35.84 68.3316 35.72 69.2516 35.72ZM95.7716 24.96H95.8516C96.1316 24.92 96.3716 25 96.6116 25C96.9316 25.04 97.2116 25.08 97.5316 25.12C98.1316 25.24 98.7716 25.48 99.0916 26.08C99.2516 26.4 99.3316 26.76 99.3316 27.16C99.3316 27.52 99.3316 27.92 99.2516 28.28C99.1316 28.68 99.0116 29.24 98.6916 29.52C98.3716 29.76 97.9716 29.96 97.5716 30.04C96.7316 30.16 95.2916 30.04 94.4516 30.08C94.3716 30.12 94.3316 30.12 94.3316 30.12C94.3316 30.12 94.3316 30.16 94.2916 30.28C94.2516 31.6 94.2916 32.76 94.2916 34.12C94.3316 35.48 94.3316 36.88 94.2916 38.2V38.76C94.2916 40.16 94.3316 42.2 93.3716 43.2C93.0116 43.52 92.5716 43.72 92.0516 43.72H91.9716C89.3716 43.6 89.1316 40.48 89.1316 38.8V15.04C89.1316 14.96 89.0516 12.96 89.9316 12.08C90.3316 11.72 91.1716 11.52 91.7316 11.52C92.3316 11.52 92.8916 11.76 93.2516 12.12C93.9316 12.88 94.0116 13.72 94.0516 14.6C94.0916 14.76 94.0916 14.92 94.1316 15.12C94.2116 15.96 94.2116 16.96 94.2516 17.92C94.2516 18.52 94.2916 19.08 94.2916 19.64V23.96C94.2916 24.24 94.2916 24.56 94.3716 24.84C94.3716 24.88 95.1716 24.88 95.2516 24.92C95.4116 24.92 95.6116 24.96 95.7716 24.96ZM77.0516 26.76C78.7716 26.44 80.2516 25.6 80.2516 23.56C80.2516 21.2 78.2916 20.32 76.3316 20.28C74.3316 20.2 72.3316 21.04 72.3316 23.56C72.3316 26.44 74.8516 27.2 77.0516 26.76ZM135.873 28.04C136.753 28.08 137.753 28.24 138.513 28.84C138.873 29.12 139.073 29.6 139.073 30.08C139.073 30.6 138.873 31.36 138.553 31.64C137.713 32.44 135.633 32.36 135.553 32.36L114.233 32.4C113.033 32.44 111.553 32.52 110.673 31.8C110.073 31.36 109.753 30.84 109.753 30.24C109.753 29.52 110.313 28.6 111.153 28.32C112.273 27.96 113.473 28.08 114.673 28.04C117.273 27.96 118.113 28.04 120.793 28.04V26.04H118.233H117.553C115.913 26.04 113.593 25.96 112.513 24.92C111.473 24.04 111.593 21.56 111.633 21.44V14.12C111.633 14 111.593 12.76 111.953 12.32C112.393 11.76 112.753 11.52 113.513 11.44C113.953 11.36 114.873 11.36 114.873 11.36H132.633C133.113 11.36 133.553 11.36 134.033 11.48C134.513 11.56 134.953 11.64 135.313 12C135.633 12.24 135.793 12.6 135.873 12.92C135.953 13.24 135.993 13.52 135.913 13.84C135.793 14.68 135.033 15.32 133.913 15.32H116.833V16.88C118.433 16.92 127.193 16.88 127.233 16.88H130.913C131.113 16.88 131.393 16.92 131.673 16.88H132.713C133.233 16.88 133.873 16.92 134.353 17.2C135.113 17.52 135.273 18.32 135.193 18.92C135.153 19.24 135.153 19.6 134.913 19.84C134.353 20.48 133.713 20.56 133.033 20.56H116.793L116.833 21.56C116.793 22.12 116.913 21.76 117.073 21.8C117.393 21.96 118.313 22.04 119.233 22.04H119.433C120.273 22 128.553 22 129.393 22.04H131.273C131.473 22.04 131.593 22.04 131.793 22H132.473C133.273 22 134.113 22 134.913 22.2C135.033 22.2 135.193 22.28 135.313 22.32C136.633 23.08 136.473 24.88 135.033 25.48C133.953 25.96 132.633 26.04 131.553 26.04H129.913C129.473 26.08 127.873 26.08 126.433 26.08C126.473 26.72 126.473 27.44 126.473 28.04C129.433 28.04 133.593 27.92 135.873 28.04ZM133.513 33.76C135.673 33.76 136.953 34.48 136.953 35.72V38.44C136.993 38.92 137.033 41.96 136.953 42.56C136.873 43.68 135.993 44.44 134.793 44.44C134.513 44.44 134.233 44.4 133.953 44.32C132.513 43.88 132.433 42.56 132.393 41.36C132.353 40.88 132.313 38.92 132.233 38.52C132.073 38.48 131.513 38.4 129.553 38.4C127.833 38.4 126.513 38.44 126.513 38.44H113.153C113.073 38.44 111.513 38.08 111.353 36.96C111.193 35.96 111.353 35.16 111.833 34.56C112.473 33.8 113.433 33.8 113.473 33.8L133.513 33.76ZM166.811 28.04C167.691 28.08 168.691 28.24 169.451 28.84C169.811 29.12 170.011 29.6 170.011 30.08C170.011 30.6 169.811 31.36 169.491 31.64C168.651 32.44 166.571 32.36 166.491 32.36L145.171 32.4C143.971 32.44 142.491 32.52 141.611 31.8C141.011 31.36 140.691 30.84 140.691 30.24C140.691 29.52 141.251 28.6 142.091 28.32C143.211 27.96 144.411 28.08 145.611 28.04C148.211 27.96 149.051 28.04 151.731 28.04V26.04H149.171H148.491C146.851 26.04 144.531 25.96 143.451 24.92C142.411 24.04 142.531 21.56 142.571 21.44V14.12C142.571 14 142.531 12.76 142.891 12.32C143.331 11.76 143.691 11.52 144.451 11.44C144.891 11.36 145.811 11.36 145.811 11.36H163.571C164.051 11.36 164.491 11.36 164.971 11.48C165.451 11.56 165.891 11.64 166.251 12C166.571 12.24 166.731 12.6 166.811 12.92C166.891 13.24 166.931 13.52 166.851 13.84C166.731 14.68 165.971 15.32 164.851 15.32H147.771V16.88C149.371 16.92 158.131 16.88 158.171 16.88H161.851C162.051 16.88 162.331 16.92 162.611 16.88H163.651C164.171 16.88 164.811 16.92 165.291 17.2C166.051 17.52 166.211 18.32 166.131 18.92C166.091 19.24 166.091 19.6 165.851 19.84C165.291 20.48 164.651 20.56 163.971 20.56H147.731L147.771 21.56C147.731 22.12 147.851 21.76 148.011 21.8C148.331 21.96 149.251 22.04 150.171 22.04H150.371C151.211 22 159.491 22 160.331 22.04H162.211C162.411 22.04 162.531 22.04 162.731 22H163.411C164.211 22 165.051 22 165.851 22.2C165.971 22.2 166.131 22.28 166.251 22.32C167.571 23.08 167.411 24.88 165.971 25.48C164.891 25.96 163.571 26.04 162.491 26.04H160.851C160.411 26.08 158.811 26.08 157.371 26.08C157.411 26.72 157.411 27.44 157.411 28.04C160.371 28.04 164.531 27.92 166.811 28.04ZM164.451 33.76C166.611 33.76 167.891 34.48 167.891 35.72V38.44C167.931 38.92 167.971 41.96 167.891 42.56C167.811 43.68 166.931 44.44 165.731 44.44C165.451 44.44 165.171 44.4 164.891 44.32C163.451 43.88 163.371 42.56 163.331 41.36C163.291 40.88 163.251 38.92 163.171 38.52C163.011 38.48 162.451 38.4 160.491 38.4C158.771 38.4 157.451 38.44 157.451 38.44H144.091C144.011 38.44 142.451 38.08 142.291 36.96C142.131 35.96 142.291 35.16 142.771 34.56C143.411 33.8 144.371 33.8 144.411 33.8L164.451 33.76Z" fill="#FFFFFE"/>
<path d="M169.88 5.93266C170.06 5.53266 170.28 5.12266 170.64 4.87266C171 4.61266 171.53 4.55266 171.87 4.83266C172.16 5.06266 172.24 5.45266 172.29 5.82266C172.45 7.18266 172.23 10.9927 170.19 10.9927C168.02 10.9727 169.39 7.04266 169.88 5.93266Z" fill="white"/>
<path d="M175.48 9.00972C175.72 8.80972 175.99 8.59972 176.3 8.60972C176.73 8.62972 177.04 9.07972 177.05 9.50972C177.05 9.93972 176.84 10.3497 176.62 10.7097C176.12 11.5197 172.62 16.1097 171.66 14.9197C170.4 13.3697 174.68 9.67972 175.48 8.99972" fill="white"/>
<ellipse cx="204" cy="26.5" rx="17" ry="16.5" fill="#F0B752"/>
<path d="M200.772 23.376C199.836 24.864 197.844 23.856 197.964 22.32C198.06 21.264 198.924 19.848 199.74 19.176C201.252 17.928 203.82 17.376 205.692 17.976C208.236 18.768 209.724 20.496 209.724 23.232C209.724 25.824 208.836 27.216 205.932 29.592C205.452 30 204.924 30.432 204.42 30.84C204.084 31.104 202.284 31.968 203.436 32.064C204.132 32.112 204.42 32.064 205.116 32.064C205.932 32.064 206.748 31.992 207.54 32.064C208.188 32.112 209.148 31.944 209.652 32.376C210.156 32.808 210.18 34.08 209.748 34.536C209.34 35.016 208.668 34.872 208.116 34.872H199.5C199.188 34.872 198.78 34.944 198.492 34.848C197.916 34.704 198.084 34.176 198.084 33.696C198.084 32.064 199.836 31.008 200.988 30.048C201.828 29.304 202.836 28.584 203.7 27.84C205.956 25.968 206.772 24.912 206.772 23.448C206.772 21.84 205.644 20.904 204.132 20.904C203.028 20.904 201.972 21.408 201.348 22.32C201.156 22.656 200.988 23.064 200.772 23.376Z" fill="#1E1E1E"/>
<path d="M13.9994 29.8338C13.2559 30.0774 12.8057 30.779 12.6172 31.4904V31.5586C13.7795 31.3734 14.9522 31.2857 16.1145 31.3052L16.3763 31.3345C16.3868 31.2273 16.4287 31.1201 16.4915 31.0324C16.3972 30.857 16.2611 30.6621 16.1041 30.4964C15.9051 30.2723 15.6643 30.0677 15.413 29.9508C14.9732 29.7364 14.4496 29.6877 13.9889 29.8338" fill="#9EA0A0"/>
<path d="M17.4156 30.6328C17.7611 30.5744 18.1067 30.5257 18.4522 30.5159V30.4964C18.0962 30.3405 17.7402 30.1749 17.3528 30.1261C16.9653 30.0677 16.4104 30.1554 16.1172 30.4964C16.2743 30.6718 16.4104 30.8667 16.5046 31.0421C16.5256 31.0226 16.536 30.9934 16.5674 30.9739C16.7873 30.7595 17.1119 30.6816 17.4261 30.6328" fill="#9EA0A0"/>
<path d="M4.76625 43.7631C5.16415 44.1042 6.07514 44.3575 6.57775 44.5622C6.46257 44.036 6.45209 43.4708 6.46257 42.9251H6.34738C6.19032 42.8569 6.04372 42.7789 5.89713 42.701H5.8343C5.75053 41.8143 5.74006 40.8301 5.74006 39.9531L5.71912 39.9239C5.57252 40.0603 5.37357 40.148 5.13274 40.1382C4.50447 40.0603 4.14846 39.6413 3.97045 39.0469C3.87621 40.1577 3.95998 41.7266 4.25317 42.8082C4.34741 43.159 4.47306 43.5195 4.76625 43.7729" fill="#727070"/>
<path d="M7.52124 32.4609C6.84062 33.1333 6.07624 33.5133 5.57362 33.5036C5.30138 33.5036 5.02913 33.4549 4.76735 33.3769C4.65217 33.6985 4.4951 34.2052 4.33804 34.7898C3.98202 36.1248 3.64695 37.9178 3.98202 39.0578C4.16003 39.6522 4.51605 40.0713 5.14431 40.1492C5.38515 40.1492 5.5841 40.0713 5.73069 39.9348C5.97153 39.7205 6.09718 39.3502 6.11812 38.9701C6.16001 37.9567 6.33801 36.6315 6.64167 35.3355C6.88251 34.3124 7.20711 33.2989 7.58407 32.4999L7.52124 32.4707V32.4609Z" fill="#9EA0A0"/>
<path d="M10.8606 30.1638C10.8606 30.3294 10.8292 30.5438 10.6617 30.5925H10.5151C10.5151 30.6802 10.5151 30.7679 10.4523 30.8361C10.3266 31.0213 10.0544 31.0505 9.81354 31.0603C9.66694 31.0603 9.52035 31.07 9.36328 31.0797C9.49941 31.2551 9.58317 31.9957 9.67741 32.2686V32.288C10.4418 32.0347 11.2271 31.8301 12.0125 31.6839V31.6059C11.9287 31.0797 11.6146 29.3453 11.091 29.1406H11.0596C11.091 29.2186 11.112 29.277 11.1434 29.3453C11.1957 29.4914 11.2167 29.6571 11.1748 29.813C11.1329 29.9689 11.0282 30.1053 10.8816 30.1833H10.8606V30.1638Z" fill="#9EA0A0"/>
<path d="M24.0616 41.6696C24.0616 40.9485 24.0721 40.2177 24.0825 39.4966C24.1244 38.9119 23.9988 38.415 23.5485 38.1421C23.381 38.0447 23.1611 37.9667 22.8888 37.9375C20.7632 38.5904 18.5643 38.9607 16.3549 39.3017C14.135 39.4771 12.8785 41.0849 12.8366 43.1215C12.8157 44.2616 12.3968 47.3408 13.2764 47.8085C13.402 47.8767 13.5486 47.9547 13.7057 48.0229C13.9361 48.1301 14.1978 48.208 14.3968 48.1885C15.6324 48.0911 16.8575 47.8767 18.0407 47.5454L19.203 47.2726C20.3129 46.99 21.4229 46.6976 22.5328 46.4151C23.6742 46.2786 24.1035 45.3237 24.0302 44.32C24.0302 43.4333 24.0511 42.5368 24.0616 41.6501" fill="#C9CACA"/>
<path d="M17.9821 35.4801L18.3905 35.597C18.8931 36.0355 18.7989 36.7956 18.2334 36.7956C18.1183 36.7956 17.9821 36.7663 17.8355 36.6884C17.3539 36.3766 17.3434 35.7237 17.9821 35.4801ZM8.41157 32.8004L8.49534 33.2681C9.38538 33.1415 10.2754 33.7164 10.8932 34.3692C11.2911 34.798 11.6367 35.2657 11.9089 35.7724C12.0136 35.9576 12.1079 36.1525 12.2021 36.3376C12.422 36.7469 12.6628 37.1464 13.0503 37.429C13.6366 37.8577 14.4324 37.9259 15.1759 37.9162C16.2544 37.9064 17.3329 37.77 18.3905 37.5849C19.2387 37.4387 20.0763 37.2438 20.914 37.0489C21.469 36.9223 22.0659 36.7566 22.3905 36.3181C22.5685 36.0745 22.6313 35.7919 22.6522 35.4996C22.6522 35.3827 22.6522 35.2657 22.6522 35.1488C22.6208 34.759 22.5475 34.3595 22.4219 33.9892C22.3067 33.6384 22.1391 33.2974 21.9402 32.9758C21.9088 32.9271 21.8878 32.8881 21.8564 32.8491L21.6889 32.8101C21.5737 33.2974 21.2491 33.7456 20.7465 33.9697C20.5161 34.2426 20.1496 34.3985 19.7727 34.3985H19.4481C19.3329 34.6031 19.0921 34.7688 18.8617 34.7688C18.7884 34.7688 18.7256 34.7493 18.6628 34.72C18.4847 34.6226 18.4219 34.418 18.4533 34.2231H18.2858C18.045 34.2913 17.7832 34.0964 17.7204 33.8625C17.7099 33.8236 17.6994 33.7748 17.6994 33.7359H17.6052C16.4638 33.6871 16.956 32.5763 17.6366 31.8552L17.3958 31.8357C17.113 31.8065 16.7884 31.9039 16.5476 31.748C16.401 31.6506 16.3486 31.4947 16.3696 31.329L16.1078 31.2998C14.935 31.2803 13.7728 31.3582 12.6209 31.5531C12.4115 31.5824 12.2126 31.6213 12.0136 31.6603C11.2178 31.8162 10.443 32.0111 9.67857 32.2645C9.46915 32.3327 9.25972 32.4106 9.0503 32.4788C8.81994 32.5665 8.58958 32.6542 8.39062 32.7907" fill="#C9CACA"/>
<path d="M6.46282 42.9212C6.46282 42.7945 6.46282 42.6581 6.47329 42.5315C6.52565 41.3816 6.58847 40.2123 6.70366 39.0625C6.81884 37.9126 6.98638 36.7628 7.24815 35.6325C7.39475 35.0088 7.56228 34.3852 7.76123 33.7713C7.85547 33.4985 7.96019 33.2159 8.15914 33.0015C8.23243 32.9236 8.3162 32.8553 8.41044 32.7969L8.49421 33.2646C9.38425 33.1379 10.2743 33.7128 10.8921 34.3657C11.29 34.7945 11.6355 35.2622 11.9078 35.7689C12.0125 35.954 12.1067 36.1489 12.201 36.3341C12.4209 36.7433 12.6617 37.1428 13.0491 37.4254C13.6355 37.8542 14.4313 37.9224 15.1748 37.9126C16.2533 37.9029 17.3318 37.7665 18.3998 37.5813C19.248 37.4254 20.0857 37.2403 20.9234 37.0454C21.4783 36.9187 22.0752 36.7531 22.3998 36.3146C22.5778 36.071 22.6406 35.7884 22.6511 35.4961C22.9966 36.2269 23.426 37.3182 23.5621 38.1075L23.5411 38.1368C23.3736 38.0393 23.1537 37.9711 22.8815 37.9321C20.7558 38.585 18.5569 38.9553 16.3475 39.2963C14.1276 39.4717 12.8711 41.0795 12.8292 43.1161C12.8083 44.2562 12.3895 47.3354 13.269 47.8031C13.3947 47.8713 13.5413 47.9493 13.6983 48.0175C12.7559 48.1832 11.1539 48.3098 10.2219 47.8226C10.1068 47.7642 10.002 47.6959 9.90781 47.618C9.2586 47.4816 8.73504 47.121 8.21149 46.7605C7.87642 46.5266 7.53087 46.2928 7.25862 45.9907C6.88166 45.5717 6.67224 45.0845 6.56753 44.5485C6.45235 44.0223 6.44188 43.4572 6.45235 42.9115" fill="#C9CACA"/>
<path d="M17.9791 35.4766C17.3404 35.7202 17.3613 36.373 17.8325 36.6849C17.9896 36.7531 18.1153 36.792 18.2304 36.792C18.7959 36.792 18.8797 36.032 18.3875 35.5935L17.9791 35.4766Z" fill="white"/>
<path d="M2.46362 43.7746L2.49503 43.8039C2.99764 43.7162 3.8458 43.5505 4.35888 43.6187L4.37982 43.5895C3.34319 43.0925 2.33796 42.4591 1.59452 41.6406L1.46886 41.6893C1.02908 42.1181 0.75683 42.693 0.725417 43.2777C0.704475 43.6382 0.798715 44.0572 1.14426 44.2326C1.34321 44.3398 1.60499 44.3301 1.82488 44.2521C2.04477 44.1741 2.22278 44.028 2.37985 43.8721C2.41126 43.8331 2.44267 43.8039 2.48456 43.7649" fill="white"/>
<path d="M24.0632 41.6629C24.0632 40.9418 24.0736 40.211 24.0841 39.4899C24.126 38.9053 24.0003 38.4083 23.5501 38.1355L23.571 38.1062C23.4244 37.3169 22.9951 36.2256 22.6601 35.4947C22.6601 35.3778 22.6601 35.2609 22.6601 35.1439C22.6286 34.7444 22.5553 34.3547 22.4297 33.9844C26.6391 33.9844 27.0684 39.295 24.0841 41.6629" fill="#4D72B5"/>
<path d="M6.10884 38.953C6.15072 37.9396 6.32873 36.6144 6.63239 35.3281C6.87323 35.4548 6.957 35.5035 7.19783 35.6399H7.23971C6.97794 36.7703 6.8104 37.9201 6.69522 39.0699C6.58004 40.2198 6.51721 41.3793 6.46486 42.5389C6.46486 42.6656 6.46486 42.802 6.45438 42.9287H6.3392C6.19261 42.8605 6.03554 42.7825 5.88895 42.7046H5.82612C5.74235 41.8178 5.73188 40.8337 5.73188 39.9567L5.71094 39.9274C5.95177 39.7131 6.07743 39.3428 6.09837 38.953" fill="#4D72B5"/>
<path d="M0.486129 37.0502C0.999212 35.7152 2.59082 34.5849 4.33948 34.7798C3.98347 36.1147 3.64839 37.9077 3.98347 39.0478C3.87876 40.1586 3.973 41.7275 4.26619 42.8091C4.36043 43.1599 4.48608 43.5204 4.77927 43.7738C4.65362 43.7153 4.52796 43.6569 4.40231 43.5984C3.36567 43.1014 2.36045 42.468 1.61701 41.6495C1.45994 41.4839 1.31334 41.3085 1.18769 41.1233C0.350005 39.9345 0.0044595 38.4047 0.507071 37.0599" fill="#4D72B5"/>
<path d="M3.19464 27.1762C3.35171 25.5976 3.61348 23.9216 4.692 22.6938C5.87524 21.3588 7.42496 20.4526 10.315 20.2188C9.88566 21.4173 14.9851 22.7036 14.0217 20.628H13.9903C13.9903 20.628 14.0217 20.5501 14.0322 20.5111L14.116 20.5403C15.2887 20.6085 16.9222 20.9788 17.9589 21.4855C19.718 22.3528 20.5452 24.2432 21.163 25.9971C21.8122 27.8388 23.7389 31.7755 22.1263 32.8474L21.9379 32.9741C21.9379 32.9741 21.8855 32.8864 21.8541 32.8474L21.6866 32.8084C21.7494 32.5356 21.7494 32.253 21.6656 31.9899C21.4562 31.2688 20.7337 30.6939 19.9065 30.6939C19.4353 30.5477 18.9431 30.499 18.4615 30.5185V30.499C18.1055 30.3431 17.7494 30.1774 17.362 30.1287C16.9746 30.0703 16.4196 30.158 16.1264 30.499C15.9275 30.2846 15.6866 30.08 15.4353 29.9631C14.9955 29.7487 14.472 29.6902 14.0113 29.8461C13.2783 30.0897 12.8176 30.7913 12.6291 31.5027V31.5709C12.4406 31.6001 12.2312 31.6391 12.0322 31.6781V31.6001C11.9485 31.0739 11.6343 29.3394 11.1108 29.1348H11.0794C11.0794 29.1348 11.0375 29.0568 11.0061 29.0179H11.027C10.9537 28.7548 10.9537 28.4917 10.8804 28.2383C10.8071 27.985 10.6291 27.7316 10.3464 27.6829C9.96943 27.6147 9.28881 28.0629 8.92232 28.1604C8.13699 28.3845 7.86474 28.7743 7.25742 29.2907C7.15271 29.3784 7.03753 29.4759 6.94329 29.5733C6.72339 29.7877 6.54539 30.0215 6.44067 30.2944C6.30455 30.6549 6.33596 31.0642 6.5035 31.4052C6.68151 31.756 7.14224 32.1263 7.87521 32.0678C7.94851 32.0678 8.02181 32.0484 8.10558 32.0386C8.59772 31.9412 9.27834 31.4345 9.3621 31.0934C9.49823 31.2688 9.582 32.0094 9.67624 32.2822V32.3017C9.47729 32.3699 9.26786 32.4479 9.05844 32.5161C8.82808 32.6038 8.59772 32.6915 8.39877 32.8279C8.315 32.8864 8.23123 32.9546 8.15793 33.0325C7.95898 33.2469 7.85427 33.5295 7.76003 33.8023C7.55061 34.4162 7.38307 35.0301 7.24695 35.6635H7.20506C6.96423 35.5271 6.86999 35.4784 6.63963 35.3517C6.88046 34.3285 7.20506 33.3151 7.58202 32.5161L7.5192 32.4869C6.83858 33.1592 6.07419 33.5392 5.57158 33.5295C5.29933 33.5295 5.02708 33.4808 4.7653 33.4028C4.46164 33.3054 4.18939 33.1495 3.9695 32.9253C3.72867 32.672 3.58207 32.3407 3.47736 32.0094C3.20511 31.1909 3.08993 30.3334 3.07946 29.4759C3.06899 28.7158 3.12134 27.9557 3.19464 27.2054" fill="#F5C33A"/>
<path d="M16.5048 31.0459C16.5048 31.0459 16.5467 30.9972 16.5677 30.9777C16.7876 30.7633 17.1122 30.6854 17.4263 30.6367C17.7718 30.5782 18.1174 30.5295 18.4629 30.5197C18.9551 30.5002 19.4367 30.549 19.9079 30.6951C20.7351 30.6951 21.4577 31.27 21.6671 31.9911C21.7404 32.2542 21.7508 32.5368 21.6775 32.8096C21.5624 33.2968 21.2378 33.7451 20.7351 33.9692C20.5048 34.2421 20.1383 34.398 19.7613 34.398H19.4367C19.3216 34.6026 19.0807 34.7682 18.8504 34.7682C18.7771 34.7682 18.7142 34.7488 18.6514 34.7195C18.4734 34.6221 18.4106 34.4174 18.442 34.2226H18.2744C18.0336 34.2908 17.7718 34.0959 17.709 33.862C17.6985 33.823 17.6881 33.7743 17.6881 33.7353H17.5938C16.4525 33.6866 16.9446 32.5758 17.6357 31.8547L17.3949 31.8352C17.1122 31.806 16.7876 31.9034 16.5467 31.7475C16.4001 31.6598 16.3582 31.4942 16.3687 31.3285C16.3792 31.2213 16.4211 31.1141 16.4839 31.0264" fill="#FDE6CD"/>
<path d="M6.4445 30.2904C6.54921 30.0175 6.72722 29.7837 6.94711 29.5693C7.04135 29.4719 7.15653 29.3744 7.26124 29.2867C7.86857 28.78 8.14081 28.3805 8.92615 28.1564C9.29263 28.0589 9.97325 27.6107 10.3502 27.6789C10.6225 27.7276 10.8109 27.981 10.8842 28.2343C10.9575 28.4877 10.9471 28.7605 11.0308 29.0041H11.0099C11.0413 29.0529 11.0622 29.1016 11.0832 29.1406C11.1146 29.199 11.1355 29.2672 11.167 29.3257C11.2193 29.4816 11.2298 29.6375 11.1984 29.7934C11.1565 29.9493 11.0518 30.0858 10.9052 30.1637H10.8842C10.8842 30.3391 10.8528 30.5437 10.6853 30.5925H10.5387C10.5387 30.6802 10.5387 30.7679 10.4759 30.8361C10.3502 31.0212 10.078 31.0504 9.83713 31.0504C9.69053 31.0504 9.53347 31.0602 9.38687 31.0699C9.29263 31.411 8.62248 31.9274 8.13034 32.0151C8.04657 32.0346 7.97328 32.0444 7.89998 32.0444C7.167 32.1028 6.71675 31.7423 6.52827 31.3817C6.35026 31.0407 6.32932 30.6314 6.45497 30.2709" fill="#FDE6CD"/>
<path d="M7.08955 14.2614C7.41415 14.7193 7.89582 15.1578 8.5555 15.5281C8.90105 15.8205 9.3513 16.3856 8.92199 17.0385C9.46649 17.7498 10.0738 18.4222 10.7335 19.0458L10.6497 19.1238C10.5659 19.3674 10.4822 19.8254 10.367 20.2249H10.3565H10.3251C9.8958 21.4234 14.9952 22.7097 14.0319 20.6342H14.0005C14.0005 20.6342 14.0319 20.5562 14.0423 20.5172C14.0528 20.4782 14.0738 20.4295 14.0947 20.3905L14.1366 20.1957C18.6706 21.0532 22.1784 19.6987 22.5239 16.2882C22.5553 16.0251 22.5553 15.762 22.5449 15.4794C22.7438 15.3625 22.9009 15.1871 23.0161 14.9922C23.2778 14.5342 23.3092 13.9301 23.1417 13.4428H23.1208C22.9637 13.628 22.8066 13.8131 22.6391 13.9983C23.215 11.533 23.2045 9.33074 21.8119 7.05057L21.6234 6.95312C20.7438 7.75216 19.592 8.29784 18.3669 8.49273C18.0318 8.54145 17.6758 8.57068 17.3617 8.43426C17.058 8.29784 16.8277 7.96653 16.9533 7.6742C15.0999 8.62915 14.1785 8.94097 12.5869 8.87276C11.7701 9.67179 11.1733 10.2857 10.6602 11.1529C8.24137 8.52196 5.33041 11.7278 7.12096 14.2711" fill="#FDE6CD"/>
<path d="M12.0857 12.7562C11.9705 13.1362 12.2951 13.5552 12.8291 13.7014C13.3631 13.8476 13.8867 13.6624 14.0123 13.2921C14.1275 12.9121 13.8029 12.4931 13.2689 12.3469C12.7349 12.2008 12.2113 12.3859 12.0857 12.7562Z" fill="#F29E9F"/>
<path d="M22.305 16.2423C22.3678 16.2618 22.4307 16.2715 22.504 16.2813C22.5354 16.0182 22.5354 15.7551 22.5249 15.4725C22.504 15.1022 22.4935 15.0827 22.4725 14.8391C22.0432 14.8099 21.6663 14.9853 21.5616 15.2971C21.4359 15.6771 21.771 16.0961 22.305 16.2423Z" fill="#F29E9F"/>
<path d="M8.92613 17.0271C9.36591 16.3743 8.90519 15.7993 8.55964 15.5168C7.89996 15.1367 7.41829 14.708 7.09369 14.25L6.97851 14.2987C6.66438 15.0101 7.43924 15.9553 8.05703 16.0527C8.09891 16.0527 8.15127 16.0624 8.18268 16.0917C8.24551 16.1404 8.23504 16.2378 8.23504 16.3158C8.23504 16.6471 8.64341 16.8322 8.91566 17.0271" fill="#79654E"/>
<path d="M6.93604 14.2362C6.93604 14.2362 6.96746 14.2752 6.9884 14.3044L7.10358 14.2557C7.10358 14.2557 7.08264 14.2264 7.07217 14.2069C6.63238 13.5736 6.49626 12.8915 6.56956 12.2873C6.76851 10.4651 8.85225 9.18862 10.6428 11.1472C11.1559 10.2702 11.7527 9.65634 12.5695 8.85731C14.1611 8.92552 15.0825 8.6137 16.9359 7.65876C16.8103 7.95109 17.0406 8.2824 17.3443 8.41882C17.648 8.55524 18.0144 8.526 18.3495 8.47728C19.5746 8.2824 20.7264 7.73671 21.606 6.93768L21.7945 7.03512C23.1976 9.32504 23.1976 11.5175 22.6217 13.9828C22.7788 13.8074 22.9463 13.6125 23.1034 13.4177C23.9515 12.3653 24.6531 11.1082 24.2657 9.79277C24.9463 9.24708 25.1662 8.33112 25.0196 7.51259C24.0877 3.44921 19.2291 1.19827 14.9778 1.29572C14.9778 1.27623 14.9778 1.26648 14.9778 1.247C14.7789 -0.0977214 12.4019 0.789012 11.5852 1.247C11.9936 -0.701869 9.16638 0.447961 9.0512 2.13373C4.73712 3.86822 4.39157 10.8744 6.92557 14.2459" fill="#79654E"/>
<path d="M6.93338 14.2362L7.05904 14.1972C6.61925 13.5638 6.48313 12.8817 6.55643 12.2776C6.11664 10.5918 5.43602 4.46262 10.148 3.30305C11.1218 1.81217 13.0066 1.24699 14.9856 1.24699C14.7867 -0.0977213 12.4098 0.789012 11.593 1.24699C12.0014 -0.701869 9.17419 0.447961 9.05901 2.13373C4.74493 3.86822 4.39938 10.8744 6.93338 14.2459" fill="white"/>
<path d="M21.6468 32.9499C21.9609 33.4079 22.1913 33.9146 22.3169 34.4408C22.4321 34.9183 22.4426 35.4542 22.2227 35.9024C21.9609 36.4189 21.4374 36.7015 20.8614 36.8281C20.0238 37.0133 19.1861 37.2471 18.3589 37.442C16.7987 37.8221 14.9453 38.1923 13.4584 37.4031C12.9977 37.1594 12.6835 36.8087 12.4008 36.3799C12.0972 35.9219 11.8458 35.4444 11.5631 34.9767C11.05 34.1387 10.3275 33.174 9.16525 33.2227C9.01866 33.2227 8.86159 33.252 8.72547 33.2812C8.43228 33.3494 8.55793 33.7684 8.85112 33.71C9.34326 33.6028 9.79352 33.71 10.1705 33.9925C10.5893 34.3141 10.8825 34.7623 11.1548 35.2008C11.7097 36.1071 12.1495 37.1984 13.1652 37.7539C14.7045 38.6114 16.5997 38.319 18.2437 37.9292C19.1128 37.7246 19.9714 37.481 20.8405 37.2861C21.5107 37.14 22.1389 36.8866 22.5263 36.3312C23.1965 35.3567 22.83 34.0315 22.296 33.0863C22.2227 32.9596 22.1494 32.8427 22.0656 32.7258C21.8981 32.4919 21.4897 32.7063 21.6572 32.9499" fill="#532D14"/>
<path d="M16.1183 31.0969C13.9298 31.0579 11.7309 31.3795 9.65761 32.0519C9.18641 32.2078 8.66286 32.3539 8.25448 32.6268C7.84611 32.9094 7.65763 33.3089 7.51104 33.7474C7.18643 34.7315 6.9456 35.7352 6.76759 36.7486C6.41157 38.7657 6.27545 40.812 6.21262 42.8486C6.19168 43.7061 6.21262 44.5928 6.57911 45.3918C6.97701 46.2493 7.79376 46.8048 8.6105 47.3115C8.81992 47.4381 9.03981 47.5648 9.27018 47.6525C9.37489 47.7012 9.49007 47.7402 9.60525 47.7694C9.66808 47.7889 9.73091 47.7987 9.78326 47.8182C9.78326 47.8182 9.73091 47.7792 9.77279 47.8084C9.79373 47.8182 9.81467 47.8474 9.84609 47.8571C10.1393 48.0715 10.4953 48.1982 10.8513 48.2762C11.6262 48.4418 12.4534 48.4126 13.2282 48.3151C13.4063 48.2956 13.5843 48.2664 13.7518 48.2372C14.0555 48.1885 13.9298 47.7597 13.6261 47.8084C12.9246 47.9254 12.1916 47.9741 11.4691 47.9156C11.1236 47.8864 10.7675 47.8279 10.4534 47.6915C10.3173 47.633 10.1916 47.5551 10.0765 47.4674C9.98221 47.3894 9.86703 47.3797 9.75185 47.3504C9.63667 47.3115 9.52148 47.2725 9.4063 47.2238C8.98746 47.0289 8.6105 46.7658 8.23354 46.5124C7.85658 46.2493 7.49009 45.9765 7.23879 45.6062C6.76759 44.9241 6.68382 44.0861 6.68382 43.2968C6.68382 42.3613 6.74665 41.4259 6.80947 40.4904C6.8723 39.5063 6.96654 38.5221 7.11314 37.5477C7.25973 36.583 7.44821 35.628 7.70999 34.6828C7.78329 34.4392 7.85658 34.1956 7.92988 33.9617C7.99271 33.7571 8.05553 33.5525 8.16024 33.3673C8.38014 32.9776 8.79898 32.8119 9.21782 32.6657C11.1654 31.9642 13.2387 31.5744 15.3329 31.5354C15.5947 31.5354 15.846 31.5354 16.1078 31.5354C16.4115 31.5354 16.4115 31.0969 16.1078 31.0969" fill="#532D14"/>
<path d="M10.808 37.1835C10.9337 37.8364 11.0698 38.499 11.164 39.1519C11.2897 39.9899 11.363 40.8376 11.3839 41.6854C11.4049 42.3285 11.4049 42.9619 11.3839 43.605C11.3839 43.8292 11.7609 43.8292 11.7609 43.605C11.8237 41.7828 11.7085 39.9801 11.3839 38.1872C11.3211 37.8267 11.2478 37.4564 11.1745 37.0958C11.1326 36.8717 10.7661 36.9692 10.808 37.1933" fill="#532D14"/>
<path d="M17.9894 47.3501C17.2146 47.5645 16.4188 47.7301 15.6125 47.8568C15.2146 47.9153 14.8062 47.9737 14.4083 47.9932C14.1047 48.0127 13.8115 47.8471 13.5602 47.7204C13.5078 47.6911 13.445 47.6619 13.3926 47.6327C13.3403 47.6034 13.3926 47.6327 13.3612 47.6034C13.3403 47.584 13.3193 47.5645 13.2984 47.545C13.3193 47.5742 13.2565 47.4865 13.246 47.4768C13.1623 47.3501 13.1309 47.2137 13.089 47.048C12.9843 46.6388 12.9738 46.21 12.9738 45.791C12.9738 44.9335 13.0576 44.076 13.089 43.2185C13.1204 42.2538 13.3717 41.2891 14.0837 40.5583C14.4188 40.2172 14.8376 39.9347 15.3088 39.769C15.9162 39.5546 16.5758 39.5157 17.2041 39.4085C18.7957 39.1551 20.3768 38.8725 21.937 38.4535C22.1255 38.4048 22.3035 38.3561 22.492 38.2976C22.67 38.2489 22.848 38.1514 23.0365 38.1904C23.2564 38.2391 23.4658 38.3268 23.6124 38.4828C23.9475 38.853 23.8532 39.4085 23.8428 39.847C23.8428 40.6265 23.8323 41.4061 23.8218 42.1856C23.8218 42.9457 23.7799 43.7057 23.8114 44.4658C23.8323 44.9238 23.7381 45.4402 23.403 45.8007C23.2355 45.9761 23.026 46.1028 22.7957 46.171C22.6595 46.21 22.5129 46.2295 22.3768 46.2587C22.1569 46.3172 21.9266 46.3757 21.7067 46.4244C20.5863 46.7167 19.4554 47.009 18.3245 47.2721C18.2198 47.3014 18.1046 47.3209 17.9999 47.3501C17.7067 47.4183 17.8324 47.847 18.1256 47.7788C19.0784 47.5547 20.0313 47.3209 20.9842 47.0772C21.403 46.9701 21.8323 46.8629 22.2616 46.7557C22.5967 46.668 22.9423 46.629 23.2459 46.4828C23.759 46.2392 24.0836 45.7715 24.2093 45.2648C24.2826 44.992 24.3035 44.7191 24.293 44.4365C24.2721 44.037 24.293 43.6375 24.293 43.2477C24.293 42.4195 24.314 41.5912 24.3244 40.7629C24.3244 40.3439 24.3244 39.9249 24.3349 39.5059C24.3349 39.2526 24.3349 38.9992 24.2721 38.7459C24.136 38.2489 23.7276 37.8981 23.1936 37.7812C23.1203 37.7617 23.0365 37.7519 22.9527 37.7422C22.848 37.7422 22.7643 37.7714 22.67 37.8007C22.4606 37.8689 22.2407 37.9273 22.0313 37.9858C21.6229 38.093 21.2145 38.2002 20.7957 38.2976C19.9685 38.4925 19.1308 38.6484 18.2931 38.7946C17.8743 38.8725 17.4554 38.9407 17.0366 39.0089C16.6596 39.0674 16.2722 39.1064 15.9057 39.1746C15.3403 39.272 14.7853 39.4767 14.3246 39.7982C13.4031 40.4316 12.8586 41.4158 12.6911 42.4584C12.6178 42.9067 12.6283 43.3549 12.5968 43.8032C12.5654 44.2806 12.534 44.7678 12.5235 45.2453C12.5131 45.7325 12.5026 46.2295 12.5654 46.7167C12.6073 47.087 12.6806 47.4963 12.911 47.7983C13.0366 47.964 13.2146 48.0614 13.4136 48.1589C13.7068 48.305 14.0418 48.4609 14.3874 48.4512C14.8062 48.4512 15.2355 48.3732 15.6439 48.3148C16.0628 48.2563 16.4816 48.1881 16.9004 48.1004C17.3193 48.0127 17.7277 47.9153 18.136 47.7983C18.4292 47.7204 18.3036 47.2916 18.0104 47.3696" fill="#532D14"/>
<path d="M20.6617 39.3125C19.6565 39.4976 18.6513 39.6438 17.6461 39.8387C16.777 40.0141 15.8764 40.209 15.0806 40.5988C14.777 40.7449 14.4943 40.9301 14.2848 41.1834C14.0859 41.427 13.9602 41.7096 13.866 42.0019C13.6356 42.723 13.5938 43.5026 13.5938 44.2529C13.5938 45.1104 13.6461 45.9679 13.6566 46.8351C13.6566 47.0592 14.0335 47.0592 14.0335 46.8351C14.0335 46.1043 13.9812 45.3735 13.9707 44.6426C13.9707 43.9021 13.9707 43.142 14.1487 42.4112C14.222 42.1189 14.3163 41.8168 14.4838 41.5537C14.6304 41.3198 14.8503 41.1444 15.1016 41.008C15.8241 40.5988 16.6722 40.4136 17.489 40.2382C18.578 40.0141 19.6774 39.8582 20.7769 39.6633C21.0177 39.6243 20.913 39.2833 20.6722 39.3222" fill="#532D14"/>
<path d="M22.074 39.0069C21.7704 39.0848 21.4667 39.153 21.163 39.2212C21.0688 39.2407 20.9955 39.3479 21.0269 39.4356C21.0583 39.5331 21.1526 39.5818 21.2573 39.5623C21.5609 39.5038 21.8646 39.4356 22.1683 39.3479C22.2625 39.3187 22.3358 39.2212 22.3044 39.1335C22.273 39.0458 22.1787 38.9776 22.074 39.0069Z" fill="#532D14"/>
<path d="M22.4516 35.6188C22.8285 36.4373 23.1741 37.2948 23.3416 38.1816C23.3625 38.2985 23.5196 38.3667 23.6348 38.3375C23.7709 38.3082 23.8233 38.1816 23.8023 38.0646C23.6243 37.1487 23.2578 36.2522 22.8599 35.4044C22.8076 35.2972 22.64 35.268 22.5353 35.3265C22.4097 35.3947 22.3992 35.5214 22.4516 35.6286" fill="#532D14"/>
<path d="M10.9776 29.3154C10.9776 29.3154 11.0195 29.3349 11.03 29.3447C10.9986 29.3154 11.0719 29.3641 11.03 29.3447C11.0509 29.3641 11.1033 29.4129 11.1033 29.4129C11.1452 29.4616 11.208 29.5785 11.2499 29.6565C11.3441 29.8514 11.4279 30.095 11.4907 30.3093C11.564 30.5529 11.6163 30.7966 11.6687 31.0402C11.6896 31.1473 11.7106 31.2545 11.7315 31.3617C11.7315 31.4104 11.742 31.4592 11.7525 31.5079C11.7525 31.5274 11.7525 31.5469 11.7525 31.5566C11.7525 31.5956 11.7525 31.5176 11.7525 31.5761C11.7629 31.693 11.8467 31.8002 11.9933 31.8002C12.1085 31.8002 12.2446 31.7028 12.2341 31.5761C12.1713 31.0889 12.0771 30.6114 11.9305 30.1339C11.8572 29.8806 11.7629 29.6272 11.6373 29.3836C11.5431 29.2082 11.4069 29.0036 11.208 28.9159C11.0928 28.8672 10.9567 28.8867 10.8834 28.9939C10.8205 29.0913 10.852 29.2472 10.9671 29.2959" fill="#532D14"/>
<path d="M9.16307 31.1776C9.16307 31.1776 9.18402 31.2069 9.18402 31.2166C9.19449 31.2361 9.18402 31.2458 9.18402 31.1971V31.2263C9.18402 31.2263 9.2259 31.314 9.23637 31.353C9.26778 31.4602 9.28873 31.5771 9.30967 31.6941C9.35155 31.8987 9.38297 32.1131 9.45626 32.3177C9.49815 32.4249 9.6238 32.5126 9.74945 32.4736C9.86464 32.4346 9.95888 32.3177 9.91699 32.2008C9.84369 31.9961 9.82275 31.772 9.7704 31.5576C9.74945 31.4505 9.71804 31.3335 9.68663 31.2263C9.65521 31.1386 9.6238 31.0315 9.57145 30.9535C9.49815 30.8561 9.36202 30.8073 9.24684 30.8755C9.14213 30.934 9.08978 31.0704 9.16307 31.1776Z" fill="#532D14"/>
<path d="M7.46927 32.1857C6.88289 33.4037 6.50593 34.6997 6.24415 36.0055C6.10803 36.6973 6.00332 37.3892 5.93002 38.081C5.89861 38.3831 5.88814 38.6851 5.86719 38.9872C5.84625 39.2601 5.77296 39.5621 5.55306 39.757C5.38553 39.9129 5.1761 39.9227 4.95621 39.8642C4.83056 39.8252 4.68396 39.7473 4.58972 39.6596C4.47454 39.5524 4.40124 39.4452 4.31748 39.2796C4.25465 39.1529 4.19182 38.9482 4.14994 38.7826C3.96146 37.9153 4.09758 36.9409 4.26512 36.0737C4.43266 35.1772 4.67349 34.2905 4.98762 33.433C5.08186 33.1601 4.62114 33.0432 4.5269 33.316C4.24418 34.1053 4.02429 34.9238 3.85675 35.7424C3.6578 36.7168 3.50073 37.7399 3.6578 38.7339C3.72062 39.1334 3.85675 39.5426 4.129 39.8642C4.3803 40.1565 4.79914 40.3904 5.20752 40.3612C5.98238 40.3222 6.30698 39.5914 6.33839 38.958C6.36981 38.2856 6.4431 37.623 6.54781 36.9604C6.79912 35.4111 7.18655 33.852 7.86717 32.4098C7.91953 32.3026 7.89858 32.1759 7.7834 32.1077C7.67869 32.0493 7.51115 32.0785 7.4588 32.1857" fill="#532D14"/>
<path d="M3.74117 39.0635C3.66787 40.0087 3.69928 40.9734 3.84588 41.9186C3.90871 42.3668 3.99247 42.8248 4.16001 43.2438C4.33802 43.6921 4.63121 43.9941 5.08147 44.2182C5.52125 44.4326 6.00292 44.569 6.46365 44.7542C6.57883 44.8029 6.71495 44.7834 6.78825 44.6762C6.85108 44.5788 6.81967 44.4229 6.70448 44.3742C6.31705 44.2182 5.92962 44.1013 5.54219 43.9357C5.14429 43.77 4.81969 43.5849 4.64168 43.1951C4.46367 42.7956 4.3799 42.3473 4.31708 41.9186C4.24378 41.4703 4.21237 41.0124 4.19142 40.5544C4.17048 40.0574 4.18095 39.5605 4.21237 39.0635C4.23331 38.7809 3.76211 38.7809 3.74117 39.0635Z" fill="#532D14"/>
<path d="M5.5 39.9541C5.5 40.987 5.5 42.0199 5.62565 43.0431C5.63612 43.16 5.73036 43.2672 5.86649 43.2672C5.98167 43.2672 6.11779 43.1698 6.10732 43.0431C5.99214 42.0199 5.9712 40.9773 5.98167 39.9541C5.98167 39.6715 5.51047 39.6715 5.51047 39.9541" fill="#532D14"/>
<path d="M6.46295 42.7303C6.31635 42.6621 6.15929 42.5841 6.01269 42.5062C5.96034 42.477 5.88704 42.4672 5.83468 42.4867C5.78233 42.5062 5.7195 42.5354 5.68809 42.5841C5.65667 42.6329 5.6462 42.7011 5.66715 42.7498C5.68809 42.8083 5.7195 42.8472 5.77186 42.8862C5.91845 42.9642 6.06505 43.0421 6.22211 43.1103C6.28494 43.1396 6.33729 43.1493 6.40012 43.1298C6.45248 43.1201 6.5153 43.0714 6.54672 43.0324C6.57813 42.9837 6.5886 42.9155 6.56766 42.8667C6.54672 42.818 6.5153 42.7595 6.46295 42.7303Z" fill="#532D14"/>
<path d="M16.629 30.8235C16.1682 29.9757 15.184 29.3813 14.1473 29.5762C13.1945 29.7614 12.6186 30.6189 12.3987 31.4374C12.3254 31.7102 12.7756 31.8272 12.8594 31.5543C13.0374 30.9015 13.4667 30.1804 14.2311 30.0147C15.0897 29.8198 15.8646 30.3655 16.2311 31.0476C16.3672 31.301 16.786 31.0769 16.6394 30.8235" fill="#532D14"/>
<path d="M15.5116 31.0885C15.3545 30.8449 15.0508 30.6695 14.7472 30.689C14.4435 30.6987 14.1398 30.8741 14.0037 31.1372C13.9514 31.2444 13.9723 31.3808 14.0875 31.4393C14.1922 31.488 14.3597 31.4685 14.4121 31.3613C14.4226 31.3418 14.433 31.3126 14.454 31.2931L14.4749 31.2639C14.4959 31.2444 14.5063 31.2347 14.5273 31.2152L14.5587 31.1859C14.5796 31.1762 14.6006 31.1664 14.6215 31.147L14.6529 31.1275C14.6739 31.1275 14.6948 31.1177 14.7262 31.108C14.7262 31.108 14.7786 31.0982 14.7367 31.108C14.6948 31.108 14.7472 31.108 14.7576 31.108C14.7786 31.108 14.81 31.108 14.8309 31.108C14.7681 31.0982 14.8624 31.108 14.8309 31.108H14.8624C14.8624 31.108 14.9147 31.1275 14.9356 31.1372C14.9671 31.147 14.9356 31.1372 14.9252 31.1372L14.9566 31.1567C14.9566 31.1567 14.9985 31.1859 15.0299 31.1957C14.988 31.1567 15.0508 31.2152 15.0299 31.1957L15.0508 31.2152C15.0508 31.2152 15.0822 31.2541 15.1032 31.2736C15.0822 31.2444 15.0927 31.2736 15.1032 31.2736C15.1032 31.2834 15.1241 31.3029 15.1241 31.3126C15.187 31.4101 15.344 31.4588 15.4487 31.3906C15.5534 31.3224 15.5953 31.1957 15.5325 31.0885" fill="#532D14"/>
<path d="M18.5797 30.299C18.1504 30.1041 17.7211 29.919 17.2499 29.88C16.831 29.8508 16.4122 29.9482 16.0981 30.2113C16.0038 30.2893 16.0143 30.4452 16.0981 30.5231C16.1923 30.6108 16.3389 30.6011 16.4331 30.5231C16.9776 30.0846 17.7944 30.4354 18.3389 30.679C18.4541 30.7278 18.5902 30.7083 18.6635 30.6011C18.7263 30.5036 18.6949 30.3477 18.5797 30.299Z" fill="#532D14"/>
<path d="M18.0964 36.5907C18.0964 36.5907 18.065 36.5809 18.0441 36.5712C18.0231 36.5615 18.0336 36.5712 18.0441 36.5712H18.0231C18.0231 36.5712 17.9917 36.542 17.9813 36.542C17.9708 36.542 17.9289 36.503 17.9603 36.5322C17.9289 36.5127 17.908 36.4932 17.887 36.464C17.887 36.464 17.8556 36.425 17.8661 36.4445C17.8765 36.464 17.8451 36.425 17.8451 36.4153C17.8242 36.3861 17.8137 36.3666 17.8032 36.3373C17.7823 36.2984 17.8032 36.3666 17.8032 36.3276C17.8032 36.3081 17.7928 36.2886 17.7823 36.2789C17.7823 36.2496 17.7614 36.2204 17.7614 36.1912V36.1619C17.7614 36.1619 17.7614 36.2009 17.7614 36.1717C17.7614 36.1522 17.7614 36.1327 17.7614 36.1132C17.7614 36.084 17.7614 36.0547 17.7614 36.0158C17.7614 35.9963 17.7614 35.9865 17.7614 35.9671V35.9476C17.7614 35.9183 17.7718 35.8891 17.7823 35.8599C17.7823 35.8501 17.7823 35.8306 17.7928 35.8209V35.8014C17.7928 35.8014 17.7928 35.8111 17.8032 35.8014C17.8137 35.7722 17.8347 35.7527 17.8451 35.7234C17.8556 35.704 17.8765 35.6942 17.8451 35.7234C17.8556 35.7137 17.8765 35.6942 17.887 35.6845L17.9184 35.6552C17.9289 35.6552 17.9394 35.6455 17.9498 35.6357H17.9708C18.0022 35.6357 18.0336 35.6163 18.065 35.6163C18.0964 35.6163 18.065 35.6163 18.0546 35.6163H18.086C18.086 35.6163 18.1279 35.6163 18.1488 35.6163C18.1488 35.6163 18.2221 35.6163 18.1907 35.6163C18.1593 35.6163 18.2116 35.6163 18.2221 35.6163C18.2535 35.6163 18.2954 35.6357 18.3268 35.6455C18.3477 35.6455 18.2954 35.626 18.3163 35.6455H18.3373C18.3373 35.6455 18.3582 35.665 18.3687 35.6747C18.3792 35.6747 18.3896 35.6942 18.4106 35.704C18.421 35.704 18.421 35.7234 18.4001 35.704L18.421 35.7234C18.421 35.7234 18.4629 35.7624 18.4839 35.7819C18.4629 35.7527 18.5048 35.8014 18.4839 35.7819C18.4839 35.7917 18.5048 35.8111 18.5153 35.8209C18.5153 35.8306 18.5258 35.8404 18.5362 35.8501C18.5467 35.8696 18.5572 35.8891 18.5362 35.8501C18.5467 35.8794 18.5572 35.8988 18.5676 35.9281C18.5676 35.9573 18.5781 35.9865 18.5886 36.0158C18.5886 35.9768 18.5886 36.045 18.5886 36.0158C18.5886 36.0353 18.5886 36.045 18.5886 36.0548C18.5886 36.084 18.5886 36.1132 18.5886 36.1424C18.5886 36.1619 18.5886 36.1717 18.5886 36.1814C18.5886 36.1619 18.5886 36.2301 18.5886 36.1814C18.5781 36.2399 18.5572 36.2886 18.5467 36.3471C18.5258 36.3958 18.5572 36.3178 18.5467 36.3568C18.5467 36.3666 18.5362 36.3861 18.5258 36.3958C18.5153 36.425 18.4943 36.4445 18.4734 36.4738C18.4734 36.4835 18.4525 36.4932 18.4839 36.464L18.4629 36.4835C18.4629 36.4835 18.442 36.503 18.4315 36.5127C18.421 36.5225 18.4001 36.5322 18.4001 36.542C18.3896 36.5517 18.421 36.5322 18.421 36.5322L18.4001 36.5517C18.4001 36.5517 18.3792 36.5615 18.3687 36.5712H18.3477C18.3163 36.5712 18.2849 36.5809 18.264 36.5907C18.243 36.5907 18.3059 36.5907 18.2849 36.5907H18.2535C18.2535 36.5907 18.2221 36.5907 18.2011 36.5907H18.1802C18.1593 36.5907 18.1383 36.5907 18.1174 36.5809C17.887 36.5225 17.7823 36.8635 18.0127 36.922C18.3477 37.0097 18.6828 36.8635 18.8399 36.5809C18.997 36.3081 19.0179 35.9671 18.8713 35.6747C18.7142 35.3532 18.3477 35.1875 17.9813 35.246C17.6043 35.3142 17.3949 35.665 17.3739 35.9963C17.3425 36.3958 17.5729 36.8051 18.0022 36.922C18.0964 36.9512 18.2116 36.8928 18.2326 36.7953C18.264 36.6979 18.2012 36.6004 18.0964 36.5809" fill="#532D14"/>
<path d="M4.35928 43.3911C4.03468 43.3522 3.69961 43.3911 3.375 43.4301C3.06087 43.4691 2.74674 43.5276 2.43261 43.586C2.30695 43.6055 2.23365 43.7517 2.26507 43.8589C2.30695 43.9855 2.43261 44.0343 2.55826 44.0148C2.86192 43.9563 3.16558 43.9076 3.46924 43.8686C3.74149 43.8296 4.06609 43.8004 4.34881 43.8394C4.47447 43.8589 4.58965 43.7225 4.58965 43.6153C4.58965 43.4788 4.48494 43.4106 4.34881 43.3911" fill="#532D14"/>
<path d="M2.76535 43.2993C2.36745 43.4357 2.19991 43.806 1.84389 44.0009C1.54023 44.1665 1.16327 44.1178 1.02715 43.7963C0.891025 43.4942 0.94338 43.1434 1.02715 42.8413C1.13186 42.471 1.34128 42.13 1.624 41.8474C1.83342 41.6428 1.49835 41.3309 1.28893 41.5356C0.775843 42.0423 0.430297 42.7731 0.472182 43.4844C0.493124 43.7963 0.597834 44.1373 0.870082 44.3419C1.18421 44.5855 1.60306 44.5953 1.96955 44.4394C2.1685 44.3614 2.3465 44.225 2.4931 44.0788C2.60828 43.9619 2.72346 43.7865 2.90147 43.728C3.01665 43.6891 3.10042 43.5819 3.06901 43.4552C3.0376 43.348 2.90147 43.2603 2.77582 43.2993" fill="#532D14"/>
<path d="M4.33716 34.551C2.53614 34.3658 0.756054 35.5059 0.211558 37.0942C-0.416707 38.9164 0.420979 40.914 1.84505 42.2003C2.65132 42.9311 3.6356 43.4865 4.64082 43.9445C4.91307 44.0712 5.15391 43.6911 4.88166 43.5645C3.22723 42.8239 1.61468 41.7812 0.881707 40.1539C0.52569 39.3647 0.368624 38.4682 0.546632 37.6302C0.703699 36.8799 1.12254 36.2367 1.74034 35.7398C2.45237 35.1746 3.38429 34.892 4.32669 34.9895C4.45234 34.9992 4.56753 34.8823 4.56753 34.7653C4.56753 34.6387 4.46281 34.5607 4.32669 34.5412" fill="#532D14"/>
<path d="M6.0233 38.605C6.14895 38.7804 6.2746 38.9558 6.40026 39.1409C6.43167 39.1897 6.48403 39.2286 6.54685 39.2384C6.59921 39.2579 6.68298 39.2384 6.73533 39.2189C6.78769 39.1897 6.82957 39.1409 6.84004 39.0825C6.85051 39.024 6.85051 38.9655 6.8191 38.9071C6.69345 38.7317 6.56779 38.5563 6.43167 38.3711C6.40026 38.3224 6.3479 38.2834 6.28508 38.2737C6.23272 38.2542 6.14895 38.2737 6.10707 38.2932C6.05471 38.3224 6.01283 38.3711 6.00236 38.4296C5.99189 38.4881 5.99189 38.5465 6.0233 38.5953" fill="#532D14"/>
<path d="M7.32029 35.443C7.13181 35.3456 6.94333 35.2384 6.75485 35.1312C6.7025 35.102 6.6292 35.0922 6.57685 35.1117C6.52449 35.1214 6.46166 35.1604 6.43025 35.2091C6.36742 35.3163 6.39884 35.4528 6.51402 35.5112C6.7025 35.6184 6.89098 35.7158 7.07946 35.823C7.13181 35.8523 7.20511 35.862 7.25746 35.8425C7.30982 35.8328 7.37265 35.7841 7.40406 35.7451C7.46689 35.6379 7.43547 35.5015 7.32029 35.443Z" fill="#532D14"/>
<path d="M22.4074 34.208C23.0881 34.208 23.7582 34.3639 24.3236 34.7244C24.8158 35.0363 25.1823 35.504 25.4126 36.0107C25.9362 37.1703 25.821 38.5345 25.3079 39.6745C24.9938 40.3664 24.5226 40.99 23.9153 41.4772C23.6849 41.6624 24.02 41.9742 24.2503 41.7891C25.4231 40.8341 26.1037 39.4309 26.2084 37.9888C26.2922 36.7123 25.8838 35.3091 24.7739 34.4808C24.0933 33.9839 23.2661 33.7597 22.4074 33.75C22.1038 33.75 22.1038 34.1885 22.4074 34.1885" fill="#532D14"/>
<path d="M17.8857 25.2089C18.2103 26.8947 18.3883 28.5999 18.4197 30.3149C18.4197 30.5975 18.9014 30.5975 18.8909 30.3149C18.8595 28.561 18.671 26.8167 18.336 25.092C18.2836 24.8094 17.8229 24.9263 17.8752 25.2089" fill="#532D14"/>
<path d="M14.1067 20.7555C14.7663 20.7945 15.426 20.9114 16.0647 21.0673C16.693 21.2232 17.3317 21.4181 17.9077 21.7104C19.0281 22.2951 19.7401 23.328 20.2532 24.3901C20.7034 25.3256 21.0176 26.3195 21.3945 27.2744C21.7715 28.2391 22.1484 29.2233 22.3683 30.2367C22.473 30.7239 22.5463 31.2306 22.4835 31.7178C22.4626 31.8932 22.4102 32.1076 22.3369 32.2538C22.2531 32.4194 22.138 32.5558 22.0018 32.6533C21.8971 32.7215 21.8448 32.8482 21.9181 32.9554C21.9809 33.0528 22.138 33.1015 22.2427 33.0333C23.0175 32.5071 23.049 31.5327 22.9338 30.7142C22.7872 29.6423 22.4102 28.5997 22.0123 27.5765C21.8343 27.1185 21.6563 26.6703 21.4888 26.2123C21.2898 25.6764 21.1013 25.1307 20.871 24.5947C20.3684 23.4449 19.6877 22.3146 18.5778 21.5643C17.96 21.1452 17.2166 20.8919 16.4941 20.697C15.7192 20.4826 14.9129 20.3462 14.1067 20.2975C13.803 20.278 13.803 20.7262 14.1067 20.736" fill="#532D14"/>
<path d="M10.3479 19.9974C8.92383 20.1144 7.48929 20.3969 6.26417 21.0985C5.17518 21.7222 4.24326 22.6576 3.73017 23.749C3.40557 24.4408 3.22756 25.1717 3.10191 25.922C2.97625 26.721 2.90296 27.5298 2.8506 28.3288C2.79825 29.1961 2.81919 30.0633 2.95531 30.9111C3.02861 31.3398 3.13332 31.7686 3.27992 32.1778C3.41604 32.5286 3.59405 32.8794 3.88724 33.1425C4.44221 33.6297 5.37413 33.8538 6.09664 33.62C6.89244 33.3569 7.55211 32.782 8.05473 32.1681C8.1385 32.0706 8.0652 31.9245 7.97096 31.866C7.84531 31.7978 7.71965 31.8465 7.64635 31.944C7.23798 32.4409 6.70396 32.9086 6.07569 33.1523C5.5312 33.3666 4.85058 33.2594 4.35844 32.9379C4.05478 32.7332 3.8663 32.4214 3.75111 32.0999C3.60452 31.7296 3.51028 31.3398 3.43698 30.95C3.29039 30.151 3.26945 29.3422 3.31133 28.5432C3.34274 27.7831 3.41604 27.0133 3.52075 26.2533C3.61499 25.5712 3.76159 24.8891 4.01289 24.2362C4.42126 23.1838 5.22754 22.2776 6.21182 21.6345C7.42646 20.8549 8.88194 20.5334 10.3269 20.4164C10.6306 20.3969 10.6306 19.9487 10.3269 19.9779" fill="#532D14"/>
<path d="M6.94647 29.3385C6.5381 29.3093 6.09832 29.2119 5.67947 29.1631C5.2711 29.1144 4.81037 29.056 4.41247 29.2021C4.29729 29.2508 4.21352 29.3483 4.24494 29.475C4.27635 29.5822 4.41247 29.6796 4.53813 29.6309C4.88367 29.5042 5.30252 29.5529 5.67947 29.6114C6.09832 29.6699 6.51716 29.7576 6.94647 29.7868C7.07213 29.7965 7.18731 29.6796 7.18731 29.5627C7.18731 29.436 7.0826 29.3483 6.94647 29.3385Z" fill="#532D14"/>
<path d="M7.04802 25.1908C6.74435 26.6232 6.59776 28.1043 6.62917 29.566C6.62917 29.8485 7.11084 29.8485 7.10037 29.566C7.06896 28.1433 7.20508 26.7011 7.50874 25.3077C7.57157 25.0349 7.11084 24.9082 7.04802 25.1908Z" fill="#532D14"/>
<path d="M13.826 20.7367C13.8888 20.8829 13.9202 20.9998 13.9097 21.146C13.9097 21.185 13.9202 21.107 13.9097 21.1557C13.9097 21.1752 13.9097 21.185 13.8993 21.1947C13.8993 21.2142 13.8888 21.2239 13.8888 21.2337C13.8783 21.2532 13.826 21.3116 13.8678 21.2727C13.8469 21.2921 13.826 21.3214 13.7945 21.3409C13.7631 21.3701 13.805 21.3409 13.7945 21.3409C13.7841 21.3409 13.7736 21.3604 13.7527 21.3701C13.7212 21.3896 13.6898 21.3993 13.6584 21.4188C13.7108 21.3993 13.627 21.4286 13.6061 21.4383C13.5642 21.4481 13.5328 21.4578 13.4909 21.4675C13.449 21.4675 13.4071 21.487 13.3652 21.487C13.4176 21.487 13.3024 21.487 13.271 21.487C13.1767 21.487 13.0825 21.487 12.9987 21.487C12.7788 21.487 12.6532 21.4578 12.4438 21.4188C12.2344 21.3798 12.0249 21.3214 11.826 21.2629C11.627 21.1947 11.4909 21.146 11.292 21.0485C11.2082 21.0096 11.1139 20.9608 11.0406 20.9121C10.9988 20.8926 10.9673 20.8634 10.9359 20.8439C10.8836 20.8049 10.915 20.8342 10.8626 20.7854C10.7998 20.7367 10.737 20.6782 10.6742 20.61C10.6427 20.5808 10.6637 20.6003 10.6637 20.6003C10.6532 20.5905 10.6427 20.5711 10.6323 20.5516C10.6113 20.5223 10.5904 20.4931 10.5799 20.4639C10.6113 20.5223 10.5799 20.4249 10.559 20.4054C10.5485 20.3762 10.559 20.3664 10.559 20.4054C10.559 20.3859 10.559 20.3762 10.559 20.3567C10.559 20.3372 10.559 20.3275 10.559 20.308C10.559 20.3372 10.559 20.3469 10.559 20.308C10.559 20.2982 10.559 20.2787 10.5694 20.2592C10.5799 20.23 10.5485 20.2982 10.5694 20.2495C10.7056 19.9961 10.2972 19.772 10.1611 20.0254C9.74223 20.8244 10.8731 21.3896 11.5118 21.6234C11.9621 21.7891 12.4333 21.8963 12.915 21.9255C13.2919 21.945 13.7422 21.9255 14.0563 21.7111C14.4961 21.4091 14.4333 20.9219 14.2448 20.5029C14.1924 20.3957 14.0249 20.3664 13.9202 20.4249C13.7945 20.4931 13.7841 20.6198 13.8364 20.727" fill="#532D14"/>
<path d="M9.70872 30.4037C9.70872 30.4037 9.75061 30.4037 9.77155 30.394C9.77155 30.394 9.83437 30.394 9.80296 30.394C9.77155 30.394 9.83437 30.394 9.84484 30.394C9.86579 30.394 9.88673 30.394 9.91814 30.394C9.93909 30.394 9.94956 30.394 9.9705 30.394H10.0019C10.0019 30.394 9.94956 30.394 9.98097 30.394C10.0229 30.394 10.0543 30.4135 10.0962 30.4232C10.1485 30.4427 10.0752 30.4135 10.1066 30.4232C10.1276 30.4232 10.138 30.4427 10.159 30.4525C10.159 30.4525 10.2113 30.4914 10.1799 30.4622L10.2009 30.4817C10.2009 30.4914 10.2218 30.5012 10.2218 30.5207C10.2218 30.5304 10.2427 30.5499 10.2427 30.5596C10.2532 30.5791 10.2427 30.5402 10.2427 30.5402V30.5694C10.2427 30.5694 10.2637 30.5986 10.2637 30.6084C10.2637 30.6181 10.2637 30.6376 10.2637 30.6473V30.6766V30.6571V30.7058L10.2427 30.7253C10.2427 30.7253 10.2742 30.6766 10.2427 30.7058C10.2427 30.7058 10.2218 30.7253 10.2218 30.735C10.2218 30.735 10.2532 30.7058 10.2323 30.7156L10.2113 30.7448H10.2009H10.2218L10.1799 30.774L10.138 30.7935C10.138 30.7935 10.1799 30.774 10.159 30.7838C10.1485 30.7838 10.138 30.7838 10.1276 30.7935C10.0962 30.8033 10.0647 30.813 10.0333 30.813C10.0229 30.813 10.0019 30.813 9.99144 30.813C9.92861 30.813 10.0333 30.813 9.98097 30.813C9.78202 30.8325 9.5726 30.8325 9.37365 30.8422C9.24799 30.8422 9.13281 30.9397 9.13281 31.0663C9.13281 31.1833 9.23752 31.2905 9.37365 31.2905C9.58307 31.2905 9.79249 31.2905 10.0019 31.2612C10.2113 31.2417 10.4208 31.193 10.5673 31.0469C10.9024 30.735 10.7349 30.2088 10.337 30.0237C10.0962 29.9165 9.83437 29.9068 9.58307 29.9652C9.46789 29.9945 9.38412 30.1212 9.41553 30.2381C9.45742 30.355 9.58307 30.4232 9.70872 30.394" fill="#532D14"/>
<path d="M9.24839 29.1162C9.45781 29.2039 9.66724 29.2916 9.86619 29.3988C10.0547 29.4963 10.2746 29.6035 10.4421 29.7301C10.5677 29.8276 10.5992 29.964 10.6096 30.1102C10.6096 30.1491 10.6096 30.1979 10.6096 30.2368C10.6096 30.2563 10.6096 30.2758 10.6096 30.2953C10.6096 30.3148 10.6096 30.2758 10.6096 30.3148C10.6096 30.3343 10.5992 30.3538 10.5887 30.3733C10.5887 30.3538 10.5887 30.3635 10.5887 30.3733C10.5782 30.3927 10.5782 30.3927 10.5887 30.383C10.6306 30.3635 10.5573 30.3927 10.5992 30.383C10.484 30.422 10.4002 30.5292 10.4316 30.6558C10.463 30.763 10.6096 30.8507 10.7248 30.8118C10.9866 30.7143 11.0913 30.4999 11.1018 30.2466C11.1122 30.0225 11.0704 29.7496 10.9238 29.5645C10.7667 29.3501 10.4945 29.2234 10.2536 29.0968C10.0023 28.9603 9.75101 28.8434 9.48923 28.7362C9.37405 28.6875 9.23792 28.707 9.16462 28.8142C9.1018 28.9116 9.13321 29.0675 9.24839 29.1162Z" fill="#532D14"/>
<path d="M9.86327 28.4538C10.2088 28.5805 10.5439 28.7851 10.7533 29.0774C10.9313 29.321 11.1198 29.7985 10.7638 29.9739C10.4915 30.1103 10.7324 30.4904 11.0046 30.3539C11.5701 30.0714 11.4968 29.3698 11.214 28.9215C10.9418 28.4928 10.4915 28.2005 9.9994 28.0251C9.87374 27.9861 9.73762 28.0738 9.70621 28.181C9.66432 28.3076 9.74809 28.4051 9.87374 28.4538" fill="#532D14"/>
<path d="M11.2503 28.95C11.1246 28.5115 11.177 28.0438 10.8314 27.693C10.5382 27.4007 10.1508 27.4201 9.78433 27.5566C9.43878 27.6832 9.11418 27.8684 8.76863 27.9756C8.3812 28.1022 8.04613 28.3069 7.74247 28.5602C7.41786 28.8331 7.09326 29.1157 6.7896 29.408C6.45453 29.7393 6.20322 30.1193 6.14039 30.5773C6.04615 31.3471 6.53829 32.0974 7.37598 32.2533C7.85765 32.341 8.33932 32.2533 8.75816 32.0097C9.09324 31.8148 9.49114 31.5128 9.60632 31.1425C9.69009 30.8696 9.22936 30.7527 9.14559 31.0255C9.07229 31.2594 8.80005 31.4543 8.59063 31.581C8.29744 31.7661 7.99377 31.8636 7.63776 31.8441C6.96761 31.8148 6.55924 31.2789 6.60112 30.6845C6.64301 29.9634 7.40739 29.4762 7.92048 29.0182C8.15084 28.8136 8.39167 28.6187 8.68487 28.492C8.82099 28.4336 8.96758 28.3946 9.11418 28.3459C9.27125 28.2874 9.41784 28.2192 9.56444 28.151C9.7948 28.0438 10.1927 27.8002 10.4335 27.9658C10.7686 28.1997 10.7058 28.7454 10.8 29.0864C10.8733 29.3593 11.334 29.2423 11.2608 28.9695" fill="#532D14"/>
<path d="M19.2694 33.2785C18.8296 33.4442 18.3165 33.6683 18.2223 34.1555C18.1804 34.3796 18.2223 34.6037 18.3793 34.7791C18.5364 34.9643 18.8087 35.0228 19.0495 34.9545C19.3217 34.8766 19.5521 34.6817 19.6882 34.4576C19.7511 34.3601 19.7196 34.214 19.6045 34.1555C19.4997 34.097 19.3427 34.1263 19.2799 34.2335C19.2589 34.2627 19.238 34.3017 19.217 34.3309C19.1961 34.3601 19.238 34.3017 19.217 34.3309L19.1961 34.3504C19.1961 34.3504 19.1647 34.3894 19.1437 34.3991C19.1333 34.4089 19.1123 34.4284 19.1018 34.4381L19.0809 34.4576C19.039 34.4771 19.0076 34.4966 18.9657 34.5258C18.9448 34.5355 18.9762 34.5258 18.9762 34.5258C18.9762 34.5258 18.9553 34.5258 18.9448 34.5355C18.9238 34.5355 18.9134 34.5453 18.8924 34.5453H18.8715C18.8715 34.5453 18.9134 34.5453 18.882 34.5453H18.8191C18.8191 34.5453 18.8715 34.555 18.8296 34.5453H18.8087L18.7877 34.5355L18.7458 34.5161C18.7458 34.5161 18.7772 34.5453 18.7668 34.5258L18.7354 34.4966C18.7354 34.4771 18.7144 34.4673 18.7039 34.4478C18.6725 34.4089 18.7039 34.4771 18.7039 34.4478C18.7039 34.4284 18.6935 34.4186 18.6935 34.3991V34.3699V34.3894V34.3407C18.6935 34.3407 18.6935 34.3017 18.6935 34.2822V34.2627C18.7039 34.2335 18.7144 34.1945 18.7249 34.1653L18.7563 34.1068C18.7563 34.1068 18.7772 34.0776 18.7877 34.0581L18.8087 34.0386C18.8087 34.0386 18.882 33.9704 18.9134 33.9411C18.8924 33.9606 18.9238 33.9411 18.9343 33.9314C18.9553 33.9119 18.9762 33.9022 19.0076 33.8924C19.0495 33.8632 19.1019 33.8437 19.1437 33.8242C19.1961 33.8047 19.2484 33.7755 19.3008 33.756C19.3217 33.756 19.3427 33.7365 19.3636 33.7268C19.3322 33.7365 19.395 33.717 19.3636 33.7268C19.3741 33.7268 19.395 33.717 19.416 33.7073C19.5312 33.6683 19.6254 33.5611 19.5835 33.4344C19.5521 33.3272 19.416 33.2298 19.2903 33.2785" fill="#532D14"/>
<path d="M18.7655 31.9372C18.5561 32.0931 18.3466 32.2295 18.1582 32.4146C17.9592 32.5998 17.8126 32.8239 17.6765 33.048C17.5089 33.3404 17.3728 33.6912 17.5194 34.0127C17.6555 34.3148 17.9906 34.5194 18.3466 34.4415C18.6398 34.3733 18.5142 33.9445 18.221 34.0127C18.0534 34.0517 17.9383 33.8471 17.9383 33.7009C17.9383 33.4573 18.1058 33.2332 18.2419 33.0383C18.4618 32.7167 18.7864 32.4926 19.111 32.249C19.2157 32.171 19.1948 32.0151 19.111 31.9372C19.0063 31.8495 18.8807 31.8592 18.7759 31.9372" fill="#532D14"/>
<path d="M18.4825 31.051C18.2312 31.09 18.0008 31.2459 17.8019 31.4018C17.5611 31.587 17.3516 31.8111 17.1736 32.0547C16.87 32.4542 16.5035 33.0681 16.7653 33.5553C16.9223 33.8476 17.2679 33.9451 17.6029 33.9646C17.9066 33.9841 17.9066 33.5358 17.6029 33.5261C17.5296 33.5261 17.5192 33.5261 17.4459 33.5066C17.4249 33.5066 17.3935 33.4968 17.3726 33.4871C17.3621 33.4871 17.3412 33.4871 17.3307 33.4774C17.3097 33.4676 17.2888 33.4579 17.2679 33.4481L17.2364 33.4286C17.2364 33.4286 17.1841 33.3702 17.2155 33.4091C17.205 33.3897 17.1946 33.3702 17.1841 33.3604C17.1632 33.3312 17.1841 33.3994 17.1841 33.3409C17.1841 33.3214 17.1841 33.302 17.1736 33.2825C17.1632 33.2338 17.1736 33.302 17.1736 33.263C17.1736 33.2338 17.1736 33.2143 17.1736 33.185C17.1736 33.1655 17.1736 33.1461 17.1736 33.1168C17.1736 33.1655 17.1736 33.0973 17.1736 33.0778C17.1841 33.0291 17.1946 32.9707 17.2155 32.9219C17.2574 32.805 17.2783 32.7465 17.3516 32.6296C17.4145 32.5224 17.4878 32.4055 17.5611 32.308C17.6972 32.1229 17.8752 31.9378 18.0741 31.7721C18.1788 31.6844 18.2207 31.6552 18.3464 31.5772C18.3673 31.5675 18.3987 31.548 18.4197 31.5382C18.4302 31.5382 18.5139 31.4993 18.4511 31.5188C18.493 31.4993 18.5453 31.4895 18.5977 31.4798C18.7233 31.4603 18.7966 31.3141 18.7652 31.2069C18.7338 31.0803 18.5977 31.0315 18.472 31.051" fill="#532D14"/>
<path d="M17.551 31.638C17.394 31.6185 17.2369 31.638 17.0798 31.638C16.9542 31.638 16.7552 31.6477 16.661 31.56C16.4621 31.3554 16.7448 31.0825 16.9333 30.9948C17.2579 30.8389 17.6872 30.8097 18.0432 30.7707C18.462 30.7317 18.9018 30.722 19.3207 30.7902C19.5301 30.8292 19.7395 30.9071 19.9489 30.9266C20.106 30.9266 20.2631 30.9656 20.4096 31.0143C20.7028 31.1118 20.9751 31.3066 21.1531 31.5405C21.5301 32.018 21.5824 32.6514 21.2787 33.1776C21.2054 33.314 21.1007 33.4407 20.9856 33.5478C20.8494 33.6745 20.661 33.7427 20.5248 33.8597C20.2631 34.1033 19.928 34.2494 19.551 34.1715C19.2474 34.113 19.1217 34.5418 19.4254 34.6002C19.8547 34.6879 20.2945 34.6002 20.6505 34.3566C20.7343 34.2982 20.7971 34.2299 20.8704 34.1715C20.9541 34.113 21.0484 34.074 21.1322 34.0156C21.2997 33.8986 21.4358 33.7622 21.551 33.6063C22.0327 32.9827 22.0745 32.1154 21.6557 31.4626C21.4463 31.141 21.1322 30.8584 20.7657 30.6928C20.5772 30.6051 20.3887 30.5466 20.1793 30.5174C20.0746 30.4979 19.9699 30.5076 19.8652 30.4784C19.729 30.4394 19.6034 30.4102 19.4673 30.3809C18.9437 30.2932 18.4201 30.2932 17.8966 30.3615C17.4463 30.4102 16.9123 30.4589 16.5354 30.722C16.1793 30.9656 15.9804 31.4626 16.2631 31.8231C16.5563 32.2129 17.1217 32.0667 17.551 32.1057C17.6767 32.1154 17.7919 31.9985 17.7919 31.8816C17.7919 31.7549 17.6872 31.6769 17.551 31.6574" fill="#532D14"/>
<path d="M19.4463 14.5401C19.4463 14.5401 19.4777 14.5207 19.4882 14.5207C19.5196 14.5109 19.551 14.5012 19.5824 14.4914C19.6138 14.4914 19.6348 14.4817 19.6662 14.4719C19.6766 14.4719 19.7081 14.4719 19.6557 14.4719H19.6766C19.6766 14.4719 19.7081 14.4719 19.7185 14.4719C19.7395 14.4719 19.7709 14.4719 19.7918 14.4719C19.7918 14.4719 19.8442 14.4719 19.8023 14.4719C19.7604 14.4719 19.8128 14.4719 19.8232 14.4719C19.8442 14.4719 19.8651 14.4817 19.8861 14.4914C19.8861 14.4914 19.9384 14.5109 19.8965 14.4914C19.8651 14.4817 19.8965 14.4914 19.907 14.4914C19.928 14.4914 19.9384 14.5109 19.9594 14.5207C19.9175 14.5012 19.9384 14.5012 19.9594 14.5207L19.9803 14.5401V14.5596C19.9803 14.5791 19.9803 14.5889 19.9908 14.6084C19.9908 14.6278 19.9908 14.5596 19.9908 14.5889V14.6278C19.9908 14.6278 19.9908 14.5889 19.9908 14.6181V14.6473L19.9803 14.6766V14.6961C19.9803 14.6961 19.9908 14.6571 19.9803 14.6766C19.9698 14.7058 19.9489 14.7253 19.9384 14.7448V14.7643C19.928 14.774 19.9175 14.7935 19.907 14.8032C19.8861 14.8325 19.8547 14.852 19.8232 14.8714L19.8023 14.8909C19.7814 14.9007 19.7604 14.9202 19.7395 14.9299C19.6662 14.9786 19.6243 15.0761 19.6766 15.154C19.729 15.2222 19.8337 15.2612 19.9175 15.2125C20.1583 15.0566 20.4096 14.813 20.3363 14.5109C20.2735 14.2673 20.0012 14.1406 19.7499 14.1406C19.5719 14.1406 19.3939 14.1893 19.2369 14.2576C19.1531 14.2965 19.1217 14.4037 19.174 14.4817C19.2264 14.5596 19.3206 14.5791 19.4149 14.5401" fill="#532D14"/>
<path d="M14.9979 11.5301C14.8618 12.1635 14.9979 12.7189 15.3121 12.7774C15.6157 12.8359 15.9822 12.3779 16.1183 11.7445C16.2545 11.1111 16.1183 10.5557 15.8042 10.4972C15.4901 10.4387 15.1341 10.8967 14.9979 11.5301Z" fill="#532D14"/>
<path d="M20.744 13.0379C20.6079 13.6713 20.744 14.2267 21.0582 14.2852C21.3618 14.3437 21.7283 13.8857 21.8644 13.2523C22.0006 12.6189 21.8644 12.0635 21.5503 12.005C21.2362 11.9466 20.8802 12.4045 20.744 13.0379Z" fill="#532D14"/>
<path d="M22.807 9.51714C22.7337 9.28328 22.5976 9.03967 22.3986 8.87402C22.2939 8.78632 22.1787 8.71811 22.0426 8.69862C21.8855 8.66939 21.7285 8.69862 21.5923 8.77657C21.5086 8.81555 21.4771 8.92274 21.5295 9.00069C21.5819 9.07865 21.6866 9.10788 21.7703 9.05916C21.7808 9.05916 21.8018 9.03967 21.8227 9.03967C21.7913 9.03967 21.8541 9.02018 21.8227 9.03967L21.9065 9.02018H21.9379C21.9379 9.02018 21.9902 9.02018 21.9588 9.02018C21.9274 9.02018 21.9693 9.02018 21.9798 9.02018H22.0112L22.0321 9.03967H22.0531L22.0845 9.0689C22.0949 9.0689 22.1054 9.07865 22.1159 9.08839H22.1264C22.1473 9.08839 22.1682 9.12737 22.1892 9.13711C22.2101 9.1566 22.2311 9.17609 22.2415 9.19558L22.2625 9.22481V9.2443C22.2625 9.2443 22.3358 9.332 22.3672 9.37098C22.3777 9.40021 22.3986 9.4197 22.4091 9.44893C22.4091 9.45868 22.4195 9.46842 22.4195 9.47816C22.4195 9.48791 22.4405 9.51714 22.4195 9.47816C22.451 9.51714 22.4614 9.57561 22.4719 9.62433C22.4928 9.70228 22.5976 9.76075 22.6918 9.74126C22.7756 9.71203 22.8384 9.63407 22.8174 9.53663" fill="#532D14"/>
<path d="M16.0748 7.2858C15.8131 7.17861 15.5304 7.14938 15.2476 7.18836C14.9754 7.23708 14.7241 7.36376 14.5042 7.51967C14.4309 7.56839 14.389 7.65609 14.4414 7.74379C14.4832 7.812 14.5984 7.85097 14.6822 7.80225C14.8707 7.66583 15.0801 7.5489 15.3209 7.50992C15.5408 7.47094 15.7712 7.50992 15.9911 7.59762C16.0748 7.6366 16.1796 7.55864 16.2005 7.48069C16.2319 7.38325 16.1691 7.31503 16.0748 7.27606" fill="#532D14"/>
<path d="M17.1428 17.4926C15.9909 17.288 14.9334 16.6741 14.2632 15.7874C14.1376 15.6217 13.8339 15.7874 13.9596 15.953C14.6821 16.9177 15.8025 17.5901 17.0485 17.8142C17.2684 17.8532 17.3627 17.5413 17.1428 17.5024" fill="#532D14"/>
<path d="M10.9019 11.0995C10.4097 10.5246 9.7396 10.0374 8.93332 9.94966C8.30506 9.88145 7.69774 10.1056 7.23701 10.4856C6.15849 11.3918 6.06425 12.9509 6.72393 14.1007C7.25795 15.0265 8.21082 15.6696 9.22651 16.0886C9.3417 16.1373 9.47782 16.1178 9.55112 16.0106C9.61394 15.9132 9.58253 15.7573 9.46735 15.7086C8.62966 15.3578 7.82339 14.8705 7.31031 14.1397C6.92288 13.6038 6.7344 12.9996 6.78675 12.3663C6.78675 12.2298 6.81817 12.1324 6.84958 11.9765C6.88099 11.8401 6.93335 11.7134 6.9857 11.577C7.01712 11.5088 6.9857 11.5965 6.9857 11.5575C6.9857 11.538 6.99617 11.5282 7.00665 11.5088C7.01712 11.4795 7.03806 11.4503 7.04853 11.4211C7.07994 11.3626 7.12183 11.3041 7.15324 11.2457C7.23701 11.119 7.28936 11.0508 7.3836 10.9533C7.58255 10.7487 7.72915 10.6318 7.99093 10.5148C8.18988 10.4271 8.45165 10.3687 8.69249 10.3687C8.99615 10.3687 9.29981 10.4564 9.57206 10.5928C9.95949 10.7877 10.2736 11.08 10.5459 11.4016C10.6296 11.499 10.7972 11.4795 10.8809 11.4016C10.9857 11.3139 10.9647 11.1774 10.8809 11.0897" fill="#532D14"/>
<path d="M21.8964 6.30436C21.2681 7.0157 20.4514 7.58087 19.5299 7.93166C19.0692 8.10706 18.5666 8.24348 18.0744 8.28246C17.8336 8.30195 17.5509 8.30195 17.3415 8.16553C17.1844 8.05834 17.0902 7.89269 17.1635 7.71729C17.2367 7.53215 16.9854 7.37624 16.8179 7.46394C16.0954 7.83422 15.3729 8.2045 14.5771 8.42862C13.9069 8.61377 13.2263 8.66249 12.5352 8.63325C12.0222 8.61377 11.5091 8.5553 11.0065 8.48709C10.8808 8.4676 10.7656 8.60402 10.7656 8.71121C10.7656 8.84763 10.8703 8.91584 11.0065 8.93533C11.8441 9.04252 12.7028 9.13996 13.5509 9.062C14.2839 9.00354 14.975 8.79891 15.6556 8.51632C16.1373 8.31169 16.598 8.07783 17.0587 7.84396C16.9436 7.75627 16.8284 7.67831 16.7132 7.59061C16.5666 7.98038 16.8284 8.40913 17.2053 8.59428C17.6451 8.79891 18.1687 8.7307 18.6294 8.643C19.5194 8.4676 20.3781 8.10706 21.111 7.6101C21.5299 7.32752 21.9068 6.99621 22.2315 6.61618C22.3152 6.51874 22.3257 6.39206 22.2315 6.30436C22.1477 6.22641 21.9801 6.21666 21.8964 6.30436Z" fill="#532D14"/>
<path d="M21.5831 7.14169C22.4418 8.54487 22.8187 10.104 22.7245 11.7215C22.6826 12.54 22.5255 13.3488 22.3371 14.1479C22.2952 14.3233 22.1905 14.5474 22.2219 14.7325C22.2428 14.8982 22.2638 15.0638 22.2742 15.2197C22.2952 15.5121 22.2952 15.8044 22.2742 16.0967C22.2009 17.0712 21.8345 18.0261 21.1119 18.7472C20.379 19.4585 19.3738 19.8678 18.3476 20.0627C16.8816 20.3452 15.3319 20.2088 13.8869 19.9165C13.5937 19.858 13.4576 20.277 13.7613 20.3452C15.5832 20.7253 17.5727 20.8519 19.3633 20.2673C20.0858 20.0334 20.7769 19.6729 21.3318 19.1759C21.8763 18.679 22.2742 18.0651 22.5046 17.3927C22.8083 16.4962 22.8187 15.5413 22.6826 14.6156V14.7325C23.2166 12.7252 23.4889 10.6107 22.7978 8.60334C22.5988 8.01868 22.3266 7.45351 22.002 6.92731C21.8554 6.68371 21.4366 6.89808 21.5936 7.15143" fill="#532D14"/>
<path d="M12.3983 8.70745C11.6653 9.42853 10.9533 10.1594 10.4297 11.0363C10.2831 11.2897 10.6915 11.5041 10.8381 11.2605C11.3407 10.4224 12.0213 9.71111 12.7333 9.01927C12.9428 8.81463 12.6077 8.50282 12.3983 8.70745Z" fill="#532D14"/>
<path d="M9.29219 2.13401C9.33407 1.58832 9.71103 1.08162 10.1718 0.769801C10.3917 0.623637 10.6011 0.516449 10.8524 0.467727C10.8628 0.467727 10.9257 0.457983 10.9152 0.457983C10.8943 0.457983 10.9571 0.457983 10.9676 0.457983C10.999 0.457983 11.0199 0.457983 11.0513 0.457983H11.0827C11.1037 0.457983 11.2189 0.49696 11.1665 0.477472C11.1875 0.487216 11.2084 0.49696 11.2293 0.506705C11.2503 0.516449 11.2189 0.487216 11.2503 0.526193C11.2608 0.535938 11.3026 0.584659 11.2712 0.545682C11.2922 0.565171 11.3026 0.594404 11.3131 0.613892C11.334 0.65287 11.3131 0.613892 11.334 0.65287C11.334 0.682103 11.355 0.72108 11.355 0.750313C11.3759 0.8575 11.355 1.04264 11.334 1.17906C11.3026 1.36421 11.4911 1.52986 11.6796 1.43242C12.2346 1.13034 12.8524 0.906222 13.4806 0.799034C13.7738 0.750313 14.0775 0.730824 14.3392 0.818523C14.4335 0.847756 14.5277 0.896478 14.601 0.993921C14.6534 1.06213 14.7057 1.18881 14.7162 1.30574C14.7267 1.42267 14.8104 1.52986 14.957 1.52986C16.9151 1.49088 18.9046 1.92938 20.6324 2.79662C22.3077 3.63463 23.7632 4.93063 24.4648 6.60665C24.6742 7.10361 24.8417 7.6298 24.8103 8.16574C24.7789 8.73091 24.5485 9.27659 24.0878 9.65662C24.025 9.70534 24.004 9.79304 24.025 9.871C24.4438 11.3521 23.4072 12.7553 22.4439 13.8369C22.3601 13.9344 22.3496 14.0611 22.4439 14.1488C22.5276 14.2267 22.6952 14.2462 22.7789 14.1488C23.8575 12.9307 24.9464 11.4009 24.4857 9.75407C24.4648 9.82228 24.4438 9.90023 24.4229 9.96844C24.8627 9.6079 25.1454 9.09145 25.2396 8.55551C25.3339 8.01958 25.271 7.50313 25.114 6.98668C24.8208 6.06097 24.3182 5.21321 23.648 4.48239C22.3182 3.00125 20.4125 2.01707 18.4334 1.50063C17.313 1.2083 16.1403 1.06213 14.9675 1.09136C15.0513 1.16932 15.1246 1.23753 15.2083 1.31548C15.0408 -0.0779545 13.2188 0.341051 12.266 0.701591C11.9833 0.808779 11.711 0.925711 11.4492 1.07188C11.5644 1.15957 11.6796 1.23753 11.7948 1.32523C11.8576 1.01341 11.889 0.643125 11.6901 0.36054C11.5539 0.107188 11.2817 0 10.9885 0C10.2974 0.00974432 9.66915 0.487216 9.28172 0.984176C9.01994 1.32523 8.8524 1.715 8.82099 2.13401C8.80005 2.41659 9.27125 2.41659 9.29219 2.13401Z" fill="#532D14"/>
<path d="M8.93541 1.93387C7.13439 2.66469 6.03493 4.29199 5.51137 5.99725C4.9564 7.82918 4.96688 9.84625 5.46949 11.6879C5.73126 12.6526 6.15011 13.5978 6.77837 14.4066C6.85167 14.504 6.98779 14.5528 7.10298 14.4846C7.20769 14.4261 7.26004 14.2799 7.18674 14.1825C6.08728 12.7598 5.63702 10.9474 5.58467 9.22262C5.53231 7.44915 5.88833 5.5685 6.95638 4.07762C7.51135 3.30781 8.26527 2.68418 9.17625 2.31389C9.29143 2.26517 9.32284 2.10926 9.26002 2.01182C9.18672 1.89489 9.0506 1.88514 8.93541 1.93387Z" fill="#532D14"/>
<path d="M8.38978 15.6787C8.38978 15.6787 8.47355 15.7469 8.51543 15.7859C8.53638 15.8054 8.55732 15.8248 8.57826 15.8541C8.57826 15.8541 8.64109 15.9223 8.60967 15.8931C8.65156 15.9418 8.68297 15.9905 8.72486 16.049C8.7458 16.0782 8.75627 16.1074 8.77721 16.1367C8.77721 16.1464 8.78768 16.1659 8.79815 16.1756C8.78768 16.1464 8.79815 16.1756 8.79815 16.1951C8.8191 16.2536 8.84004 16.3218 8.85051 16.3803C8.85051 16.3803 8.85051 16.429 8.85051 16.4095C8.85051 16.3803 8.85051 16.4387 8.85051 16.4485C8.85051 16.4777 8.85051 16.5167 8.85051 16.5459C8.85051 16.5654 8.85051 16.5752 8.85051 16.5946C8.85051 16.6141 8.85051 16.5849 8.85051 16.6141C8.85051 16.6531 8.82957 16.6823 8.8191 16.7213C8.79815 16.7895 8.75627 16.8577 8.71438 16.926C8.65156 17.0234 8.69344 17.1696 8.79815 17.228C8.91334 17.2865 9.05993 17.2475 9.12276 17.1501C9.33218 16.8285 9.39501 16.4485 9.25888 16.0977C9.15417 15.8151 8.95522 15.5715 8.71438 15.3669C8.62015 15.2889 8.47355 15.2792 8.37931 15.3669C8.29554 15.4448 8.28507 15.6007 8.37931 15.6787" fill="#532D14"/>
<path d="M8.71386 17.1464C9.32118 17.9357 9.99133 18.6762 10.7348 19.3583C10.9547 19.563 11.2897 19.2511 11.0698 19.0465C10.3578 18.3936 9.70861 17.6823 9.12223 16.9223C9.04893 16.8248 8.91281 16.7761 8.79762 16.8443C8.69291 16.9028 8.64056 17.0489 8.71386 17.1464Z" fill="#532D14"/>
<path d="M6.75602 14.2442C6.48377 14.8873 6.91309 15.6376 7.45758 16.0274C7.58324 16.1151 7.72983 16.193 7.8869 16.2418C7.91831 16.2418 7.93925 16.2612 7.97067 16.2612C7.99161 16.2612 8.02302 16.2612 8.04396 16.271C8.01255 16.193 8.00208 16.1833 8.00208 16.2418C7.98114 16.31 8.00208 16.4172 8.03349 16.4854C8.1382 16.8362 8.51516 17.0116 8.80835 17.2162C8.91306 17.2844 9.07013 17.2357 9.13295 17.1382C9.20625 17.0213 9.1539 16.9044 9.04919 16.8362C8.85024 16.69 8.48375 16.5438 8.48375 16.2807C8.48375 16.0956 8.42092 15.9202 8.2115 15.8617C8.08585 15.8228 7.97067 15.813 7.84501 15.7448C7.37381 15.4817 6.99686 14.8678 7.20628 14.3611C7.24816 14.2539 7.15392 14.1175 7.03874 14.0883C6.90262 14.0493 6.78743 14.1272 6.74555 14.2442" fill="#532D14"/>
<path d="M13.8433 20.318C13.77 20.5226 13.6862 20.7272 13.6024 20.9319C13.5815 20.9806 13.6024 21.0586 13.6234 21.0975C13.6548 21.1463 13.7071 21.1852 13.77 21.195C13.8328 21.2047 13.8956 21.2047 13.9584 21.1755C14.0108 21.1463 14.0422 21.0975 14.0632 21.0391C14.1469 20.8344 14.2202 20.6298 14.304 20.4252C14.3249 20.3765 14.304 20.2985 14.283 20.2595C14.2516 20.2108 14.1993 20.1718 14.1364 20.1621C14.0736 20.1523 14.0108 20.1523 13.948 20.1816C13.8956 20.2108 13.8642 20.2595 13.8433 20.318Z" fill="#532D14"/>
<path d="M10.4202 19.0533C10.3574 19.2384 10.3155 19.4333 10.2736 19.6282C10.2212 19.8621 10.1689 20.0862 10.0851 20.3103C10.0432 20.4175 10.127 20.5539 10.2527 20.5831C10.3783 20.6124 10.504 20.5442 10.5458 20.4272C10.6191 20.2031 10.682 19.9693 10.7343 19.7451C10.7762 19.5502 10.8181 19.3554 10.8914 19.1702C10.9333 19.063 10.8495 18.9266 10.7238 18.8974C10.5982 18.8681 10.4725 18.9364 10.4307 19.0533" fill="#532D14"/>
<path d="M22.9051 13.491C23.1041 14.0854 23.0098 14.9136 22.413 15.2839C22.1617 15.4398 22.392 15.8199 22.6538 15.664C23.4392 15.1865 23.6172 14.1731 23.3659 13.374C23.2716 13.1012 22.8214 13.2181 22.9051 13.491Z" fill="#532D14"/>
<path d="M28.7667 52.6058C29.0285 52.7325 29.2484 52.9176 29.4892 53.0638C30.1384 53.4828 31.0285 53.6972 31.73 53.3464C31.9081 53.2587 32.0756 53.1223 32.0861 52.9371C32.0965 52.8007 32.0232 52.674 31.9499 52.5668C31.7719 52.333 31.3636 52.0212 31.1018 51.875C30.0023 52.0504 28.6725 52.1478 27.3008 52.1673C27.8348 52.2258 28.2955 52.3622 28.7667 52.5961" fill="#727070"/>
<path d="M20.2735 49.6579H20.2526C17.5929 51.4216 22.64 52.2596 27.2996 52.1816C28.6713 52.1621 30.0011 52.0647 31.1006 51.8893C33.3938 51.519 34.6503 50.8077 33.0063 49.765C32.42 41.8819 20.8494 42.2911 20.284 49.6579" fill="white"/>
<path d="M33.2562 50.5884C33.2876 49.0878 32.9526 47.5384 32.0206 46.2814C31.2562 45.2485 30.1358 44.4787 28.8584 44.0792C27.6228 43.6992 26.272 43.6699 25.0155 43.9623C23.738 44.2644 22.5443 44.9075 21.6752 45.8429C20.6805 46.8953 20.1569 48.24 20.0522 49.6237C20.0313 49.8186 20.0312 50.0232 20.0312 50.2181C20.0312 50.5007 20.5024 50.5007 20.5024 50.2181C20.5024 48.8637 20.8794 47.5384 21.7485 46.4568C22.471 45.5506 23.5495 44.8588 24.7014 44.508C25.8636 44.1572 27.1097 44.1084 28.2825 44.391C29.4866 44.6736 30.5547 45.2875 31.3505 46.1937C32.2719 47.2364 32.7013 48.6201 32.7745 49.9745C32.7745 50.1792 32.785 50.3838 32.7745 50.5884C32.7745 50.871 33.2457 50.871 33.2457 50.5884" fill="#532D14"/>
<path d="M32.8826 49.9462C32.9454 49.9852 32.9978 50.0242 33.0501 50.0632C32.9978 50.0242 33.071 50.0826 33.092 50.0924C33.1129 50.1119 33.1443 50.1314 33.1653 50.1509C33.2491 50.2191 33.3224 50.2873 33.3852 50.3652C33.3538 50.3263 33.4166 50.4042 33.3852 50.3652L33.4061 50.3847C33.4061 50.3847 33.4271 50.4237 33.448 50.4432C33.4689 50.4724 33.4899 50.5114 33.5004 50.5406C33.4585 50.4627 33.5004 50.5601 33.5108 50.5991C33.5108 50.6088 33.5213 50.6673 33.5108 50.6186C33.5108 50.5699 33.5108 50.6283 33.5108 50.6478C33.5108 50.6673 33.5108 50.6771 33.5108 50.6965C33.5108 50.6771 33.5108 50.755 33.5108 50.6965C33.5004 50.7258 33.4899 50.755 33.4794 50.7842C33.4794 50.8232 33.5108 50.7355 33.4794 50.7842C33.4794 50.794 33.4585 50.8135 33.448 50.833C33.448 50.8427 33.4271 50.8622 33.4166 50.8719C33.3852 50.9207 33.448 50.8427 33.4166 50.8719C33.3852 50.9012 33.3642 50.9304 33.3328 50.9499C33.3224 50.9596 33.3014 50.9791 33.2909 50.9889C33.2909 50.9889 33.2176 51.0376 33.2595 51.0181C33.2909 50.9889 33.2386 51.0376 33.2281 51.0376C33.2072 51.0473 33.1862 51.0668 33.1653 51.0766C33.1234 51.1058 33.0815 51.1253 33.0292 51.1545C32.9873 51.1838 32.9349 51.2032 32.8826 51.2227C32.8616 51.2325 32.8302 51.2422 32.8093 51.252C32.7883 51.2617 32.7046 51.2909 32.7779 51.2715C32.6627 51.3202 32.537 51.3592 32.4218 51.3981C32.1391 51.4858 31.8459 51.554 31.5632 51.6125C30.8198 51.7587 30.202 51.8366 29.4585 51.8951C28.6313 51.9633 27.7936 51.9925 26.9664 52.0023C26.1183 52.0023 25.2806 51.9828 24.4324 51.9243C24.0345 51.8951 23.6471 51.8659 23.2492 51.8171C23.2073 51.8171 23.1549 51.8074 23.1131 51.7976C23.0921 51.7976 23.0712 51.7976 23.0502 51.7976C22.9979 51.7976 23.0607 51.7976 23.0083 51.7976C22.9141 51.7879 22.8303 51.7684 22.7361 51.7587C22.5581 51.7294 22.3801 51.7099 22.2021 51.671C21.8879 51.6125 21.5738 51.554 21.2597 51.4761C21.1236 51.4371 20.9874 51.3981 20.8513 51.3592C20.7885 51.3397 20.7256 51.3202 20.6628 51.3007C20.6314 51.2909 20.6 51.2812 20.5791 51.2715C20.5686 51.2715 20.5476 51.2617 20.5372 51.252C20.4325 51.213 20.3382 51.1643 20.2335 51.1155C20.1916 51.0961 20.1393 51.0668 20.0974 51.0376C20.0764 51.0278 20.066 51.0181 20.045 50.9986L20.0136 50.9791C20.0136 50.9791 20.0555 51.0084 20.0241 50.9791C19.9613 50.9304 19.8984 50.8719 19.8461 50.8135C19.8356 50.794 19.8775 50.8622 19.8461 50.8135C19.8461 50.794 19.8251 50.7842 19.8147 50.7745C19.8147 50.755 19.8042 50.7453 19.7937 50.7355C19.7623 50.6868 19.8042 50.7842 19.7937 50.7355C19.7937 50.7063 19.7728 50.6673 19.7623 50.6478C19.7518 50.6186 19.7623 50.7063 19.7623 50.6478C19.7623 50.6283 19.7623 50.6186 19.7623 50.5991C19.7623 50.5796 19.7623 50.5699 19.7623 50.5504C19.7518 50.5991 19.7623 50.5894 19.7623 50.5504C19.7728 50.5114 19.7833 50.4822 19.7937 50.4529C19.7728 50.4919 19.7833 50.4919 19.7937 50.4529C19.7937 50.4334 19.8147 50.414 19.8251 50.4042C19.8461 50.3652 19.8775 50.3263 19.9089 50.297C19.9298 50.2678 19.8775 50.336 19.9089 50.3068L19.9298 50.2775C19.9298 50.2775 19.9717 50.2386 19.9822 50.2191C20.0241 50.1801 20.066 50.1411 20.1079 50.1119C20.1497 50.0729 20.2021 50.0339 20.2545 49.995C20.2649 49.995 20.2754 49.9755 20.2859 49.9657C20.2545 49.9852 20.3173 49.9365 20.2859 49.9657C20.3173 49.9462 20.3487 49.9267 20.3801 49.8975C20.6314 49.7319 20.3801 49.3518 20.1393 49.5175C19.7623 49.7708 19.3225 50.1119 19.2911 50.5796C19.2597 50.9694 19.5948 51.2715 19.9194 51.4566C20.3906 51.7294 20.956 51.8756 21.49 51.9925C22.2335 52.1582 22.9979 52.2556 23.7518 52.3238C24.6104 52.4018 25.469 52.4408 26.3277 52.4505C27.2072 52.4603 28.0763 52.4505 28.9559 52.3823C29.7517 52.3336 30.5475 52.2459 31.3328 52.1192C31.9297 52.012 32.5266 51.8853 33.092 51.6515C33.448 51.5053 33.8564 51.2715 33.9716 50.8914C34.0972 50.4919 33.804 50.1216 33.5004 49.878C33.3852 49.7806 33.2595 49.7026 33.1339 49.6149C32.8826 49.459 32.6417 49.839 32.893 49.995" fill="#532D14"/>
<path d="M15.709 52.277C15.8347 52.2673 15.9499 52.277 16.0546 52.277C16.2745 52.3063 16.4734 52.3647 16.6619 52.4524C17.4158 52.7837 18.086 53.4658 19.1645 53.5535C20.6095 54.1479 21.7299 53.2125 20.2011 52.8422V52.813C21.1645 52.8909 22.3791 52.8227 22.1383 52.0919V52.0626C22.8294 51.9944 23.2901 51.7411 22.9446 51.1077C22.9446 51.0882 22.9236 51.0785 22.9131 51.0687C22.6618 50.7667 21.6147 50.8154 21.1645 50.7277C22.065 50.6595 23.0388 50.5133 22.9864 50.0066C22.9864 49.9384 22.9655 49.8799 22.9341 49.8215C22.7037 49.3147 21.7299 49.3732 20.8294 49.4512V49.4024C20.6305 48.9445 18.5362 48.6034 18.065 48.7691C18.065 48.7691 18.0336 48.7788 17.9917 48.7983H17.9813C17.8033 48.7886 17.6567 48.7788 17.531 48.7691C17.0912 48.7398 16.9132 48.7398 16.6724 48.7496C16.5991 48.7496 16.5258 48.7496 16.4316 48.7691C16.1593 48.8957 15.9499 48.9932 15.9499 48.9932C14.641 49.6071 14.463 51.4585 15.6986 52.2575" fill="white"/>
<path d="M16.0535 52.2833C16.2734 52.3126 16.4723 52.371 16.6608 52.4587C16.399 52.0982 16.1791 51.6694 16.1268 51.2504C16.0849 50.9386 16.1268 50.6853 16.242 50.3929C16.3257 50.198 16.5038 49.9349 16.6713 49.7693C16.8807 49.5549 17.0482 49.438 17.2681 49.2918C17.3728 49.2334 17.4671 49.1749 17.5718 49.1262C17.6242 49.0969 17.6765 49.0774 17.7289 49.0482C17.7498 49.0482 17.7708 49.0287 17.7917 49.019C17.844 48.9995 17.9592 48.9118 18.0116 48.7949H18.0011C17.8231 48.7851 17.6765 48.7754 17.5509 48.7656C16.7446 48.9215 15.8022 49.7206 15.5928 50.3345C15.3624 51.0458 15.6556 51.6597 16.064 52.2638" fill="#29A239"/>
<path d="M16.6797 48.7503V48.7698C16.7844 48.7698 16.8786 48.7698 16.9833 48.7698C17.1509 48.7698 17.3498 48.7796 17.6744 48.8088C17.7687 48.8088 17.8629 48.8185 17.9781 48.8283H17.9886L18.0723 48.7991C18.5331 48.6334 20.6273 48.9647 20.8262 49.4324V49.4812C21.7372 49.4032 22.7006 49.3447 22.9309 49.8514C23.1089 49.8709 23.2974 49.832 23.4545 49.7345C23.6011 49.6371 23.7058 49.4714 23.7058 49.296C23.7058 49.0914 23.5278 48.9062 23.3393 48.8088C23.1403 48.7114 22.91 48.6821 22.6901 48.6529C21.9466 48.5749 21.2032 48.5457 20.4597 48.5749V48.4775C20.7634 48.2534 21.3393 48.1364 21.3393 47.6979C21.3288 47.4446 21.0252 47.2789 20.7529 47.2984C20.2294 47.3374 19.4231 47.8539 18.8891 48C18.8577 48 18.8367 48.0195 18.8158 48.0195C18.5959 48.0585 18.3027 48.0585 17.999 48.0585C17.3812 48.0682 16.7425 48.1267 16.6797 48.7601" fill="#9EA0A0"/>
<path d="M21.1875 50.7523C21.6378 50.84 22.6744 50.7913 22.9362 51.0934C23.1875 50.9862 23.3864 50.8108 23.3969 50.5867C23.3969 50.3723 23.2084 50.1287 23.0095 50.0312C23.0618 50.538 22.0985 50.6744 21.1875 50.7523Z" fill="#9EA0A0"/>
<path d="M18.9018 47.9922C18.9018 47.9922 18.8495 48.0117 18.8285 48.0117C18.6086 48.0507 18.3155 48.0507 18.0118 48.0507C17.6453 48.2163 17.2788 48.4794 16.9961 48.762C17.1636 48.762 17.3626 48.7717 17.6977 48.801C17.8652 48.6451 18.0118 48.5379 18.2003 48.4209C18.305 48.3625 18.3992 48.304 18.5039 48.2553C18.5563 48.2261 18.6086 48.2066 18.661 48.1773C18.6819 48.1773 18.7029 48.1578 18.7238 48.1481C18.7657 48.1286 18.8495 48.0701 18.9018 47.9922Z" fill="#166836"/>
<path d="M20.2099 51.043C20.7649 50.9943 21.3198 50.9748 21.8748 50.8969C22.3041 50.8384 22.88 50.7507 23.1418 50.3902C23.3931 50.0394 23.1627 49.5716 22.7963 49.3865C22.3669 49.1721 21.8224 49.1916 21.3408 49.2209C20.7753 49.2501 20.1994 49.3573 19.634 49.3183C19.3303 49.2988 19.3303 49.7373 19.634 49.7568C20.0738 49.786 20.524 49.7178 20.9638 49.6886C21.4036 49.6496 21.8853 49.6009 22.3146 49.6886C22.4717 49.7178 22.5973 49.7665 22.6916 49.864C22.7439 49.9224 22.7963 50.0589 22.7544 50.1271C22.7858 50.0784 22.702 50.1855 22.7439 50.1466C22.7334 50.1563 22.6706 50.2148 22.6916 50.1953C22.6287 50.244 22.545 50.2732 22.4821 50.3025C22.2727 50.3804 22.0423 50.4194 21.8225 50.4486C21.2884 50.5266 20.7439 50.5363 20.2099 50.5851C20.0843 50.5948 19.9691 50.6825 19.9691 50.8092C19.9691 50.9164 20.0738 51.043 20.2099 51.0333" fill="#532D14"/>
<path d="M21.152 50.96C21.5918 51.0282 22.0525 51.0087 22.4923 51.1159C22.5656 51.1354 22.6389 51.1549 22.7017 51.1939C22.7017 51.1939 22.7436 51.2328 22.7331 51.2231C22.754 51.2523 22.7645 51.2913 22.7855 51.3108C22.7959 51.3498 22.8064 51.379 22.8169 51.418C22.8169 51.4375 22.8169 51.4569 22.8273 51.4764C22.8273 51.4375 22.8273 51.4667 22.8273 51.4764C22.8273 51.5057 22.8273 51.5252 22.8273 51.5544C22.8273 51.4862 22.8064 51.6226 22.8169 51.5934C22.8064 51.6226 22.7855 51.6518 22.754 51.6713C22.7436 51.6811 22.7331 51.6908 22.7226 51.7006C22.6912 51.72 22.6598 51.7298 22.6284 51.7493C22.5865 51.7688 22.5446 51.7883 22.4713 51.8077C22.3876 51.8272 22.3038 51.8467 22.2096 51.8565C21.864 51.9052 21.4556 51.8954 21.0891 51.876C20.6912 51.8467 20.2829 51.8077 19.9059 51.759C19.7803 51.7395 19.6546 51.7883 19.6127 51.9149C19.5813 52.0221 19.6546 52.1683 19.7803 52.1878C20.6284 52.295 21.508 52.4216 22.3666 52.2852C22.6912 52.2365 23.0787 52.1098 23.2357 51.8175C23.4033 51.4862 23.2567 50.999 22.9216 50.8138C22.4399 50.5605 21.8012 50.6384 21.2776 50.5507C20.974 50.502 20.8483 50.9308 21.152 50.9795" fill="#532D14"/>
<path d="M21.9186 52.1746C21.9186 52.1746 21.9396 52.2331 21.9396 52.2623C21.9396 52.2136 21.9396 52.2915 21.9396 52.3013C21.9396 52.311 21.9396 52.3208 21.9396 52.3403C21.9396 52.311 21.9396 52.311 21.9396 52.3403C21.9396 52.3598 21.9291 52.3792 21.9186 52.3987C21.9396 52.3403 21.9186 52.3987 21.8977 52.4182C21.8768 52.4475 21.9291 52.3987 21.8768 52.4377C21.8768 52.4377 21.8035 52.4962 21.8558 52.4572C21.8349 52.4669 21.8139 52.4864 21.793 52.4962C21.615 52.5936 21.3427 52.6326 21.1124 52.6423C20.5469 52.6813 19.9815 52.6228 19.4684 52.5351C19.3428 52.5157 19.2066 52.5644 19.1752 52.6911C19.1438 52.7982 19.2171 52.9444 19.3428 52.9639C19.8349 53.0516 20.3375 53.1003 20.8297 53.1003C21.2799 53.1003 21.8768 53.0711 22.2118 52.7495C22.4003 52.5644 22.4422 52.311 22.3689 52.0772C22.2851 51.8043 21.8244 51.9213 21.9082 52.1941" fill="#532D14"/>
<path d="M21.0482 49.3215C20.9121 49.0292 20.4619 48.8928 20.1582 48.8051C19.7184 48.6687 19.2577 48.5907 18.797 48.5615C18.6189 48.542 18.4409 48.542 18.2629 48.5615C18.1896 48.5615 18.1163 48.581 18.043 48.5907C18.0326 48.5907 17.9697 48.62 17.9802 48.62C17.9174 48.6297 17.7813 48.6102 17.6975 48.6005C17.3101 48.5712 16.9226 48.5517 16.5247 48.581C16.2734 48.6005 16.0535 48.7369 15.8336 48.8441C15.6242 48.9415 15.4357 49.0779 15.2682 49.2338C14.9227 49.5652 14.7132 49.9939 14.6504 50.4519C14.5876 50.9099 14.6609 51.3776 14.8912 51.7869C15.0064 51.9915 15.1635 52.1766 15.3415 52.3228C15.4357 52.4008 15.5614 52.5177 15.6975 52.5274C15.8127 52.5274 15.9279 52.5274 16.0431 52.5274C16.5666 52.6054 17.0064 52.9269 17.4462 53.19C17.9802 53.5019 18.5247 53.7455 19.1634 53.8039C19.1216 53.7942 19.0797 53.7844 19.0483 53.7747C19.6137 53.9988 20.4933 54.1742 20.9959 53.726C21.1739 53.5701 21.2262 53.3265 21.1006 53.1218C20.933 52.8587 20.5666 52.7418 20.2734 52.6638C19.9802 52.5859 19.8545 53.0146 20.1477 53.0926C20.3467 53.1413 20.5456 53.1998 20.6922 53.3362C20.7027 53.346 20.7132 53.3654 20.7027 53.3752C20.7132 53.3167 20.6713 53.4142 20.7027 53.3654C20.6713 53.4044 20.7027 53.3752 20.6713 53.4044C20.6503 53.4239 20.598 53.4629 20.5456 53.4824C20.4723 53.5116 20.3781 53.5311 20.2943 53.5506C20.0744 53.5798 19.8441 53.5506 19.6346 53.5019C19.4985 53.4726 19.3833 53.4044 19.2472 53.3752C19.1216 53.346 18.975 53.346 18.8493 53.307C18.6294 53.2583 18.42 53.1803 18.221 53.0829C17.8336 52.8977 17.4776 52.6444 17.1006 52.4397C16.6818 52.2059 16.2211 52.05 15.7289 52.0792C15.7708 52.0889 15.8127 52.0987 15.8441 52.1084C15.2577 51.7187 15.0169 51.0171 15.174 50.3739C15.2473 50.0524 15.4148 49.76 15.6556 49.5262C15.9174 49.2826 16.2629 49.1559 16.5771 49C16.5352 49.0097 16.4933 49.0195 16.4619 49.0292C16.7132 49.0097 16.975 49 17.2263 49.0097C17.4252 49.0195 17.6242 49.0292 17.8231 49.0487C17.9383 49.0487 18.0326 49.0682 18.1477 49.0292C18.1896 49.0195 18.221 49.0097 18.2629 49C18.221 49 18.2943 49 18.2629 49H18.2943C18.2943 49 18.3467 49 18.3781 49C18.4514 49 18.5142 49 18.5875 49C18.7446 49 18.8912 49.0195 19.0483 49.039C19.3833 49.0779 19.7079 49.1461 20.0325 49.2436C20.1896 49.2923 20.3257 49.341 20.4619 49.4092C20.4933 49.4287 20.5142 49.4385 20.5456 49.458C20.5875 49.4872 20.5456 49.458 20.5875 49.4872C20.598 49.4969 20.6399 49.5457 20.6294 49.5262C20.6189 49.5067 20.6503 49.5554 20.6503 49.5652C20.7027 49.6723 20.8702 49.7016 20.9749 49.6431C21.1006 49.5749 21.1111 49.4482 21.0587 49.341" fill="#532D14"/>
<path d="M16.9222 48.7556C16.9641 48.4438 17.2468 48.3464 17.5505 48.3074C17.9065 48.2587 18.273 48.2976 18.629 48.2684C19.0897 48.2294 19.4876 48.0151 19.896 47.8299C20.1054 47.7325 20.3253 47.635 20.5452 47.5668C20.7128 47.5181 20.9431 47.4791 21.0688 47.635C21.184 47.7909 20.9641 47.9566 20.8489 48.0345C20.6499 48.171 20.4196 48.2684 20.2311 48.4146C20.1264 48.4925 20.1473 48.6484 20.2311 48.7264C20.3253 48.8238 20.4615 48.7946 20.5662 48.7264C20.9431 48.4535 21.5609 48.2684 21.5819 47.7325C21.5819 47.4401 21.3515 47.2063 21.0688 47.1186C20.7965 47.0309 20.5138 47.0991 20.2625 47.1965C19.9798 47.294 19.7075 47.4304 19.4458 47.5473C19.2259 47.6545 18.9955 47.7617 18.7442 47.8104C18.3568 47.8786 17.8856 47.8202 17.4667 47.8786C17.2364 47.9079 17.0165 47.9663 16.828 48.1028C16.5976 48.2684 16.4929 48.5023 16.4615 48.7654C16.451 48.8823 16.5872 48.9895 16.7023 48.9895C16.8385 48.9895 16.9222 48.892 16.9432 48.7654" fill="#532D14"/>
<path d="M20.3684 48.8056C21.1432 48.7763 21.9286 48.8056 22.7034 48.8835C22.9652 48.9128 23.3631 48.9615 23.4678 49.2246C23.583 49.5266 23.1851 49.6436 22.9443 49.6241C22.6406 49.6046 22.6406 50.0431 22.9443 50.0626C23.3736 50.0918 23.8238 49.8872 23.939 49.4779C24.0542 49.0784 23.7505 48.7179 23.3736 48.5717C23.1641 48.484 22.9338 48.4548 22.7034 48.4353C22.4416 48.4061 22.1694 48.3866 21.9076 48.3671C21.3945 48.3378 20.8815 48.3378 20.3684 48.3573C20.0647 48.3671 20.0647 48.8153 20.3684 48.7958" fill="#532D14"/>
<path d="M22.9113 50.1727C22.9113 50.1727 22.9951 50.2507 23.037 50.2897L23.0579 50.3189C23.0579 50.3189 23.0893 50.3676 23.0998 50.3871L23.1207 50.4261C23.1207 50.4553 23.1417 50.4748 23.1417 50.504C23.1417 50.5138 23.1417 50.5333 23.1417 50.543C23.1417 50.4943 23.1417 50.5723 23.1417 50.543C23.1417 50.5723 23.1417 50.5917 23.1417 50.621C23.1417 50.6502 23.1417 50.621 23.1417 50.6015V50.6405C23.1417 50.6405 23.1312 50.66 23.1207 50.6794C23.1207 50.6794 23.0998 50.7282 23.1207 50.6892C23.1417 50.6502 23.1207 50.6989 23.1207 50.6989C23.1207 50.7087 23.1102 50.7184 23.0998 50.7282L23.0788 50.7574C23.0788 50.7574 23.1103 50.7282 23.0788 50.7477C23.0579 50.7671 23.0474 50.7769 23.0265 50.7964C22.9951 50.8256 23.0579 50.7769 23.0265 50.7964L22.9951 50.8159H22.9637C22.9427 50.8159 22.8589 50.8354 22.9322 50.8256C22.8066 50.8354 22.6914 50.923 22.6914 51.0497C22.6914 51.1569 22.7961 51.2836 22.9322 51.2738C23.0998 51.2544 23.2568 51.1959 23.3825 51.079C23.4872 50.9718 23.571 50.8451 23.5919 50.6989C23.6443 50.3871 23.4872 50.0753 23.2254 49.8707C23.1312 49.7927 22.9846 49.7732 22.8904 49.8707C22.8066 49.9486 22.7856 50.1045 22.8904 50.1825" fill="#532D14"/>
<path d="M10.1171 49.8008C10.2322 49.3721 10.0542 48.9628 9.72964 48.8946C9.40503 48.8166 9.04902 49.109 8.93383 49.5377C8.81865 49.9665 8.99666 50.3757 9.32126 50.4439C9.64587 50.5219 10.0019 50.2296 10.1171 49.8008ZM11.0071 47.0821C12.3683 48.651 11.8553 52.2174 8.92336 52.3831C8.07521 51.8861 7.6773 50.6291 8.02285 49.3233C8.42075 47.7935 9.68775 46.7703 10.85 47.0334C10.9129 47.0432 10.9652 47.0627 11.0176 47.0821" fill="white"/>
<path d="M8.93358 49.5385C8.8184 49.9673 8.9964 50.3765 9.32101 50.4448C9.64561 50.5227 10.0016 50.2304 10.1168 49.8016C10.232 49.3729 10.054 48.9636 9.72938 48.8954C9.40478 48.8175 9.04876 49.1098 8.93358 49.5385Z" fill="#9EA0A0"/>
<path d="M9.3826 52.572C10.5449 52.8351 11.8119 51.8119 12.2098 50.2821C12.5868 48.8302 12.0527 47.4465 11.0056 47.0859C12.3669 48.6548 11.8642 52.2212 8.92188 52.3868C9.06847 52.4745 9.22554 52.533 9.39307 52.572" fill="#9EA0A0"/>
<path d="M7.35385 49.1832C7.80411 47.4682 9.22817 46.2988 10.6313 46.3963C10.7465 46.3963 10.8721 46.4255 10.9873 46.445C12.5056 46.7861 13.3538 48.579 12.8616 50.4304C12.3695 52.2916 10.7465 53.5096 9.2177 53.1686C9.01875 53.1199 8.83027 53.0517 8.66273 52.964C7.50045 52.3598 6.92454 50.791 7.34338 49.1832M9.38524 52.5742C10.5475 52.8373 11.8145 51.8141 12.2124 50.2843C12.5894 48.8324 12.0554 47.4487 11.0083 47.0881C10.9559 47.0686 10.9035 47.0492 10.8407 47.0394C9.67843 46.7763 8.41143 47.7995 8.01353 49.3293C7.66798 50.6351 8.06588 51.8823 8.91404 52.389C9.06064 52.4767 9.2177 52.5352 9.38524 52.5742Z" fill="#727070"/>
<path d="M7.3522 49.1809C7.80246 47.4659 9.22652 46.2966 10.6296 46.3941V46.3746L8.91239 46.1797C7.68727 46.3648 6.5564 47.4562 6.16897 48.9471C5.81295 50.3113 6.16897 51.6365 6.98571 52.3771L8.65061 52.9812V52.9617C7.50927 52.3576 6.92289 50.7888 7.3522 49.1809Z" fill="#3C3A38"/>
<path d="M6.22175 44.5156C6.13798 44.5156 5.39453 44.5838 5.39453 44.5838C5.39453 44.5838 5.41547 44.652 5.45736 44.7592V44.7787C5.53066 44.9931 5.63537 45.3049 5.63537 45.3049C5.63537 45.3049 5.63537 45.3244 5.64584 45.3439C6.01232 45.3439 6.37881 45.3926 6.73483 45.4901C6.77671 45.4998 6.82907 45.5193 6.87095 45.5095C6.90237 45.5095 6.93378 45.4901 6.97566 45.4803C7.11179 45.4218 7.25838 45.3634 7.40498 45.3049C7.2898 45.2075 7.15367 45.1003 7.00708 44.9931C6.66153 44.7495 6.30551 44.5351 6.23222 44.5254" fill="#595756"/>
<path d="M8.58756 45.6404C8.49332 45.3189 8.2106 45.085 7.85459 45.0363L7.00643 44.9486L6.98549 44.9681C7.13208 45.0655 7.2682 45.1727 7.38339 45.2799C7.23679 45.3384 7.10067 45.3968 6.95407 45.4553C6.92266 45.465 6.89125 45.4845 6.85983 45.4845C6.80748 45.4845 6.76559 45.4845 6.72371 45.465C6.36769 45.3676 6.0012 45.3189 5.63472 45.3189C5.63472 45.2994 5.62425 45.2799 5.62425 45.2799C5.62425 45.2799 5.51954 44.9681 5.44624 44.7537L5.38341 44.7732L4.23159 44.6562L3.23684 44.7245C3.0693 44.7537 2.94365 44.8804 2.92271 45.0363L2.80753 45.8645C1.53006 46.1374 0.40965 49.4115 2.7447 50.8244C2.88082 50.8731 2.98553 50.9121 2.98553 50.9121L6.97501 52.3543C6.15827 51.6039 5.80225 50.2787 6.15827 48.9243C6.55617 47.4334 7.67658 46.342 8.90169 46.1569L8.72368 46.1374L8.63992 46.1082C8.62944 46.0497 8.6085 45.7086 8.57709 45.6112" fill="#DB392B"/>
<path d="M12.8693 50.4359L13.1206 50.4944C13.2148 50.1144 13.2672 49.7441 13.2672 49.3836C13.2672 48.6235 13.0578 47.9219 12.6808 47.3567C12.3038 46.7916 11.7489 46.3726 11.0578 46.2166C10.8693 46.1679 10.6704 46.1484 10.4714 46.1484C9.71749 46.1484 8.98451 46.47 8.38766 46.9962C7.79081 47.5224 7.33008 48.263 7.09972 49.1302C7.00548 49.5102 6.95312 49.8805 6.95312 50.2411C6.95312 51.0011 7.16255 51.7027 7.53951 52.2679C7.91646 52.833 8.47143 53.252 9.16252 53.408C9.36147 53.4469 9.54995 53.4762 9.7489 53.4762C10.5028 53.4762 11.2358 53.1546 11.8326 52.6284C12.4295 52.1022 12.8902 51.3617 13.1206 50.5042L12.8693 50.4457L12.618 50.3872C12.4086 51.1668 11.9897 51.8294 11.4766 52.2874C10.9531 52.7453 10.3458 52.9987 9.7489 52.9987C9.59184 52.9987 9.43477 52.9792 9.28817 52.95C8.74368 52.8233 8.29342 52.492 7.96882 52.0243C7.64422 51.5468 7.45574 50.9232 7.45574 50.2508C7.45574 49.9292 7.49762 49.5882 7.59186 49.2471C7.80128 48.4676 8.20965 47.805 8.73321 47.347C9.25676 46.889 9.86408 46.6357 10.4609 46.6357C10.618 46.6357 10.7751 46.6551 10.9217 46.6844C11.4662 46.8111 11.9164 47.1326 12.2305 47.6101C12.5552 48.0876 12.7436 48.7112 12.7332 49.3836C12.7332 49.7051 12.6913 50.0462 12.6075 50.3872L12.8588 50.4457L12.8693 50.4359Z" fill="#532D14"/>
<path d="M8.89333 46.0351C8.24412 46.1326 7.62633 46.4736 7.11325 46.9706C6.61063 47.4773 6.21273 48.1399 6.01378 48.9097C5.91954 49.28 5.86719 49.6503 5.86719 50.0011C5.86719 50.995 6.23368 51.9012 6.87241 52.4859L7.10277 52.2617C6.53734 51.7453 6.19179 50.9268 6.20226 49.9913C6.20226 49.66 6.24415 49.3189 6.33839 48.9682C6.52687 48.2471 6.89335 47.6234 7.35408 47.1655C7.81481 46.7075 8.38025 46.4054 8.94568 46.3177L8.89333 46.0156V46.0351Z" fill="#532D14"/>
<path d="M5.38416 44.5701C5.14332 44.5408 4.91296 44.5213 4.67213 44.5018C4.49412 44.4824 4.32658 44.4531 4.14857 44.4629C3.86585 44.4824 3.58313 44.5018 3.30041 44.5213C2.92346 44.5506 2.7245 44.7844 2.68262 45.1157C2.65121 45.3691 2.60932 45.6322 2.57791 45.8855C2.64074 45.8173 2.69309 45.7394 2.75592 45.6712C2.33708 45.7686 2.01247 46.0804 1.78211 46.402C1.49939 46.7918 1.32138 47.2595 1.22714 47.7272C1.01772 48.8381 1.32138 50.0269 2.26378 50.7772C2.38943 50.8844 2.53603 50.9916 2.69309 51.0598C2.77686 51.089 2.86063 51.1182 2.9444 51.1475C2.99675 51.167 3.04911 51.1865 3.10146 51.2059C3.38418 51.3131 3.67737 51.4106 3.96009 51.5178C4.88155 51.8491 5.803 52.1804 6.72446 52.5214C7.34225 52.7455 7.97051 52.9794 8.59878 53.2035C8.72443 53.2425 8.86056 53.1548 8.89197 53.0476C8.93385 52.9209 8.85008 52.8235 8.72443 52.7748C7.34225 52.2778 5.97054 51.7711 4.58836 51.2742C4.08575 51.089 3.57266 50.9039 3.07005 50.7285C2.06483 50.3679 1.61457 49.2571 1.63551 48.3216C1.64598 47.8149 1.78211 47.2985 2.04389 46.86C2.15907 46.6553 2.27425 46.4994 2.45226 46.3435C2.57791 46.2266 2.71403 46.1486 2.88157 46.1097C2.99675 46.0804 3.03864 45.9927 3.05958 45.8953C3.09099 45.6809 3.11193 45.4763 3.14335 45.2619C3.14335 45.2132 3.15382 45.1645 3.16429 45.1157C3.16429 45.106 3.16429 45.0963 3.16429 45.0768C3.16429 45.0768 3.16429 45.0768 3.18523 45.0475C3.25853 44.9598 3.24806 44.9793 3.36324 44.9696C3.63549 44.9501 3.89727 44.9306 4.16951 44.9209C4.32658 44.9111 4.47317 44.9403 4.63024 44.9501C4.88155 44.9793 5.13285 44.9988 5.38416 45.028C5.50981 45.0378 5.62499 44.9209 5.62499 44.8039C5.62499 44.6772 5.52028 44.5993 5.38416 44.5798" fill="#532D14"/>
<path d="M8.88203 46.0855C8.88203 46.0855 8.88203 46.144 8.88203 46.105C8.88203 46.0855 8.88203 46.0661 8.88203 46.0563C8.88203 46.0076 8.88203 45.9686 8.87156 45.9199C8.86109 45.8224 8.85062 45.7153 8.82968 45.6178C8.76685 45.3742 8.59931 45.1598 8.37942 45.0137C8.0967 44.8188 7.73021 44.8188 7.38467 44.7895C7.25901 44.7798 7.14383 44.7603 7.01818 44.7506C6.89253 44.7408 6.77734 44.8578 6.77734 44.9747C6.77734 45.1014 6.88205 45.1793 7.01818 45.1988L7.74068 45.2768C7.74068 45.2768 7.82445 45.2768 7.86634 45.2865C7.86634 45.2865 7.79304 45.2768 7.85586 45.2865H7.88728C7.88728 45.2865 7.93963 45.306 7.96058 45.3157C7.97105 45.3157 7.99199 45.3255 8.00246 45.3352C7.97105 45.3255 8.00246 45.3352 8.01293 45.3352C8.19094 45.4229 8.30612 45.5496 8.35848 45.725C8.35848 45.7445 8.35848 45.7542 8.36895 45.7737C8.36895 45.8224 8.36895 45.7347 8.36895 45.7932C8.36895 45.8419 8.37942 45.8907 8.38989 45.9491C8.38989 46.0368 8.40036 46.1343 8.4213 46.222C8.44225 46.3389 8.59931 46.4071 8.71449 46.3779C8.85062 46.3486 8.90297 46.222 8.88203 46.105" fill="#532D14"/>
<path d="M7.24517 46.5811C7.24517 46.4642 7.25564 46.3375 7.22423 46.2303C7.15093 46.016 6.96245 45.8211 6.75303 45.7236C6.57502 45.6457 6.38654 45.6359 6.18759 45.6067C5.60121 45.5385 5.00436 45.4605 4.41798 45.3826C4.25044 45.3631 4.07243 45.3436 3.9049 45.3144C3.77924 45.2949 3.66406 45.4313 3.66406 45.5385C3.66406 45.6749 3.77924 45.7431 3.9049 45.7626C4.29233 45.8113 4.69023 45.8601 5.07766 45.9088C5.52791 45.9672 5.98864 45.9965 6.4389 46.0744C6.49125 46.0842 6.40748 46.0549 6.49125 46.0939C6.58549 46.1329 6.65879 46.1719 6.72162 46.2498C6.73209 46.2693 6.79491 46.357 6.78444 46.3278C6.78444 46.3473 6.78444 46.3765 6.78444 46.396V46.5811C6.78444 46.8637 7.25564 46.8637 7.25564 46.5811" fill="#532D14"/>
<path d="M4.20329 45.7632C4.19282 45.8704 4.18235 45.9776 4.17188 46.0945C4.17188 46.114 4.17188 46.1237 4.17188 46.1432C4.17188 46.1919 4.20329 46.2601 4.24517 46.2991C4.28706 46.3381 4.34988 46.3673 4.41271 46.3673C4.47554 46.3673 4.53836 46.3478 4.58025 46.2991C4.59072 46.2796 4.60119 46.2699 4.62213 46.2504C4.64307 46.2212 4.65354 46.1822 4.65354 46.1432C4.66402 46.036 4.67449 45.9288 4.68496 45.8119C4.68496 45.7924 4.68496 45.7827 4.68496 45.7632C4.68496 45.7145 4.65354 45.6462 4.61166 45.6073C4.56978 45.5683 4.50695 45.5391 4.44412 45.5391C4.3813 45.5391 4.31847 45.5586 4.27659 45.6073C4.26611 45.617 4.25564 45.6365 4.2347 45.6463C4.21376 45.6852 4.20329 45.7145 4.20329 45.7534" fill="#532D14"/>
<path d="M10.6388 46.1524L8.97386 45.9673C8.89009 45.9673 8.81679 45.9478 8.73302 45.9381C8.60737 45.9283 8.49219 46.0453 8.49219 46.1622C8.49219 46.2986 8.60737 46.3668 8.73302 46.3863C9.28799 46.4448 9.84296 46.513 10.3979 46.5715C10.4817 46.5715 10.555 46.5909 10.6388 46.6007C10.7644 46.6104 10.8796 46.4935 10.8796 46.3766C10.8796 46.2401 10.7749 46.1719 10.6388 46.1524Z" fill="#532D14"/>
<path d="M5.67828 44.6936C5.65733 44.6351 5.63639 44.5767 5.61545 44.5279C5.54215 44.6156 5.46885 44.7131 5.38509 44.8105C5.52121 44.791 5.64686 44.7813 5.78299 44.7715C5.87723 44.7715 5.97147 44.752 6.05523 44.752C6.08665 44.752 6.12853 44.752 6.15995 44.752C6.20183 44.752 6.24371 44.7618 6.15995 44.752C6.18089 44.752 6.20183 44.752 6.139 44.752C6.14947 44.752 6.17042 44.7715 6.18089 44.7715C6.2123 44.791 6.25419 44.8105 6.2856 44.83C6.37984 44.8885 6.47408 44.9469 6.56832 45.0054C6.78821 45.1516 7.0081 45.3075 7.20705 45.4731C7.21752 45.3562 7.23847 45.2393 7.25941 45.1223C7.18611 45.1516 7.11281 45.1808 7.04999 45.21C6.98716 45.2393 6.91386 45.2588 6.85104 45.288H6.81962C6.78821 45.288 6.7568 45.2685 6.73585 45.2685C6.66256 45.249 6.58926 45.2295 6.51596 45.2198C6.22277 45.1613 5.91911 45.1321 5.62592 45.1321C5.69922 45.1808 5.78299 45.2393 5.85628 45.2977C5.79346 45.1028 5.73063 44.9177 5.65733 44.7228C5.61545 44.6059 5.4898 44.5377 5.36414 44.5669C5.24896 44.5961 5.15472 44.7228 5.19661 44.8397C5.25943 45.0346 5.32226 45.2198 5.39556 45.4147C5.42697 45.5121 5.52121 45.5803 5.62592 45.5803C5.94005 45.5803 6.24371 45.6193 6.5369 45.6875C6.71491 45.7265 6.86151 45.7655 7.03952 45.6875C7.19658 45.629 7.34318 45.5608 7.50024 45.4926C7.63637 45.4341 7.64684 45.2393 7.5526 45.1418C7.33271 44.9469 7.09187 44.7813 6.84057 44.6156C6.67303 44.5084 6.48455 44.3623 6.2856 44.3136C6.139 44.2746 5.95052 44.3136 5.80393 44.333C5.65733 44.3428 5.52121 44.3623 5.37461 44.372C5.22802 44.3915 5.0919 44.4987 5.14425 44.6546C5.16519 44.7131 5.18614 44.7715 5.20708 44.83C5.30132 45.1028 5.76204 44.9859 5.6678 44.7131" fill="#532D14"/>
</svg>
