<svg width="280" height="122" viewBox="0 0 280 122" fill="none" xmlns="http://www.w3.org/2000/svg">
<rect x="1" y="5" width="171" height="98" rx="38" fill="white"/>
<path d="M224.671 115.961H223.783C220.96 115.961 218.713 114.759 218.922 111.91L220.228 93.7467C220.438 90.9241 222.92 88.5981 225.743 88.5981H226.631C229.454 88.5981 231.623 90.9241 231.414 93.7467L230.107 111.91C229.898 114.733 227.494 115.961 224.671 115.961Z" fill="#3E3A39"/>
<path d="M224.671 116.795H223.782C221.744 116.795 220.15 116.22 219.157 115.175C218.373 114.339 218.007 113.189 218.111 111.882L219.418 93.7182C219.653 90.4514 222.502 87.7856 225.769 87.7856H226.657C228.252 87.7856 229.715 88.4129 230.787 89.5628C231.858 90.7127 232.381 92.2286 232.25 93.8228L230.943 111.986C230.734 114.966 228.33 116.795 224.671 116.795ZM225.769 89.4321C223.364 89.4321 221.247 91.3922 221.091 93.7966L219.784 111.96C219.732 112.823 219.941 113.502 220.385 113.999C221.038 114.704 222.267 115.096 223.782 115.096H224.671C225.978 115.096 229.062 114.783 229.271 111.83L230.578 93.666C230.656 92.516 230.29 91.4706 229.532 90.6605C228.774 89.8503 227.755 89.4321 226.631 89.4321H225.743H225.769Z" fill="#3E3A39"/>
<path d="M249.132 115.961H248.244C245.421 115.961 243.017 114.759 242.86 111.91L241.815 93.7467C241.658 90.9241 243.827 88.5981 246.676 88.5981H247.564C250.387 88.5981 252.844 90.9241 253 93.7467L254.046 111.91C254.203 114.733 251.955 115.961 249.132 115.961Z" fill="#3E3A39"/>
<path d="M249.131 116.796H248.243C244.584 116.796 242.206 114.941 242.023 111.961L240.977 93.7976C240.873 92.2034 241.422 90.6876 242.519 89.5377C243.617 88.3877 245.081 87.7605 246.675 87.7605H247.563C250.83 87.7605 253.653 90.4262 253.836 93.6931L254.881 111.857C254.96 113.164 254.568 114.313 253.783 115.15C252.764 116.221 251.17 116.77 249.131 116.77V116.796ZM246.675 89.4331C245.525 89.4331 244.506 89.8774 243.722 90.6876C242.964 91.4978 242.572 92.5693 242.65 93.6931L243.695 111.857C243.852 114.784 246.936 115.124 248.243 115.124H249.131C250.673 115.124 251.902 114.732 252.581 114.026C253.052 113.529 253.287 112.824 253.235 111.961L252.189 93.7976C252.059 91.3932 249.994 89.4331 247.59 89.4331H246.701H246.675Z" fill="#3E3A39"/>
<path d="M228.722 78.8482C227.833 78.8482 226.945 78.5869 226.135 78.0642L192.917 56.2939C190.722 54.8565 190.121 51.9294 191.558 49.7341C192.996 47.5388 195.923 46.9377 198.118 48.3751L231.335 70.1454C233.531 71.5828 234.132 74.5099 232.694 76.7052C231.78 78.0903 230.264 78.8482 228.722 78.8482Z" fill="#3E3A39"/>
<path d="M251.641 75.4268L251.118 69.442C250.57 62.8821 243.931 57.8381 236.352 57.8381C228.773 57.8381 222.187 62.8821 221.691 69.442L221.168 76.2893C228.224 77.7528 239.306 78.746 251.615 75.4268" fill="#3E3A39"/>
<path d="M234.68 78.4835C229.322 78.4835 224.644 77.8302 221.011 77.0984C220.593 77.02 220.305 76.628 220.358 76.2098L220.88 69.3625C221.403 62.4368 228.198 57.0007 236.352 57.0007C244.506 57.0007 251.38 62.4368 251.955 69.3625L252.477 75.3473C252.503 75.7394 252.242 76.1314 251.85 76.2359C245.682 77.9086 239.854 78.4835 234.68 78.4835ZM222.056 75.6087C228.904 76.9416 239.175 77.7779 250.726 74.7985L250.282 69.5193C249.759 63.456 243.644 58.6734 236.326 58.6734C229.008 58.6734 222.971 63.4299 222.501 69.4932L222.056 75.6087Z" fill="#3E3A39"/>
<path d="M221.17 76.2609L219.967 92.3076C219.288 101.298 227.024 102.788 236.589 102.788C246.154 102.788 253.838 101.298 253.08 92.3076L251.643 75.3984C239.333 78.7176 228.252 77.7244 221.196 76.2609" fill="white"/>
<path d="M236.588 103.626C230.865 103.626 224.566 103.155 221.325 99.6795C219.653 97.8762 218.921 95.3672 219.156 92.2572L220.358 76.2104C220.358 75.9752 220.489 75.74 220.698 75.6093C220.907 75.4787 221.142 75.4003 221.378 75.4525C228.33 76.8899 239.175 77.9092 251.459 74.6162C251.694 74.564 251.955 74.6162 252.164 74.7469C252.374 74.8776 252.504 75.1128 252.504 75.348L253.942 92.2572C254.203 95.3934 253.497 97.8762 251.851 99.6795C248.662 103.155 242.364 103.626 236.614 103.626H236.588ZM221.927 77.282L220.803 92.3879C220.594 95.0536 221.169 97.066 222.528 98.5557C225.324 101.561 231.204 101.979 236.562 101.979C241.92 101.979 247.8 101.561 250.544 98.5557C251.903 97.0921 252.452 95.0798 252.217 92.3879L250.858 76.4718C239.202 79.425 228.878 78.6148 221.9 77.282H221.927Z" fill="#3E3A39"/>
<path d="M216.176 26.5001C210.426 26.5001 205.748 21.7958 205.748 16.0723C205.748 10.3488 210.452 5.64453 216.176 5.64453C221.899 5.64453 226.604 10.3488 226.604 16.0723C226.604 21.7958 221.899 26.5001 216.176 26.5001Z" fill="#3E3A39"/>
<path d="M257.731 23.7291C251.981 23.7291 247.303 19.0248 247.303 13.3013C247.303 7.5778 252.007 2.87354 257.731 2.87354C263.454 2.87354 268.158 7.5778 268.158 13.3013C268.158 19.0248 263.454 23.7291 257.731 23.7291Z" fill="#3E3A39"/>
<path d="M269.884 39.1774C269.884 55.3287 254.961 68.3961 236.562 68.3961C218.163 68.3961 203.24 55.3026 203.24 39.1774C203.24 23.0523 218.163 9.95874 236.562 9.95874C254.961 9.95874 269.884 23.0523 269.884 39.1774Z" fill="white"/>
<path d="M236.562 69.256C217.719 69.256 202.404 55.7705 202.404 39.201C202.404 22.6315 217.719 9.146 236.562 9.146C255.406 9.146 270.721 22.6315 270.721 39.201C270.721 55.7705 255.406 69.256 236.562 69.256ZM236.562 10.7925C218.66 10.7925 204.077 23.5201 204.077 39.201C204.077 54.8819 218.66 67.5834 236.562 67.5834C254.465 67.5834 269.048 54.8557 269.048 39.201C269.048 23.5463 254.465 10.7925 236.562 10.7925Z" fill="#3E3A39"/>
<path d="M228.382 36.042C226.056 41.1382 220.542 43.6211 216.073 41.5825C211.604 39.544 209.879 33.7421 212.205 28.6458C214.531 23.5495 220.045 21.0667 224.514 23.1052C228.983 25.1438 230.708 30.9457 228.382 36.042Z" fill="#3E3A39"/>
<path d="M251.981 30.8681C251.981 32.2271 250.884 33.3509 249.498 33.3509C248.113 33.3509 247.016 32.2532 247.016 30.8681C247.016 29.4829 248.113 28.3853 249.498 28.3853C250.884 28.3853 251.981 29.4829 251.981 30.8681Z" fill="white"/>
<path d="M227.442 30.8682C227.442 33.3249 225.691 35.3111 223.522 35.3111C221.353 35.3111 219.602 33.3249 219.602 30.8682C219.602 28.4115 221.353 26.4253 223.522 26.4253C225.691 26.4253 227.442 28.4115 227.442 30.8682Z" fill="white"/>
<path d="M226.029 31.8324C226.029 32.9301 225.141 33.8187 224.043 33.8187C222.945 33.8187 222.057 32.9301 222.057 31.8324C222.057 30.7348 222.945 29.8462 224.043 29.8462C225.141 29.8462 226.029 30.7348 226.029 31.8324Z" fill="#3E3A39"/>
<path d="M242.024 36.0417C244.35 41.138 249.865 43.6208 254.334 41.5823C258.803 39.5438 260.528 33.7419 258.202 28.6456C255.876 23.5493 250.361 21.0665 245.892 23.105C241.423 25.1435 239.698 30.9454 242.05 36.0417" fill="#3E3A39"/>
<path d="M246.285 30.7325C246.285 33.2414 248.088 35.28 250.31 35.28C252.531 35.28 254.335 33.2414 254.335 30.7325C254.335 28.2236 252.531 26.1851 250.31 26.1851C248.088 26.1851 246.285 28.2236 246.285 30.7325Z" fill="white"/>
<path d="M248.584 31.7038C248.584 32.8014 249.473 33.69 250.57 33.69C251.668 33.69 252.556 32.8014 252.556 31.7038C252.556 30.6061 251.668 29.7175 250.57 29.7175C249.473 29.7175 248.584 30.6061 248.584 31.7038Z" fill="#3E3A39"/>
<path d="M237.998 38.1847C237.998 39.2562 236.587 40.1187 234.836 40.1187C233.085 40.1187 231.674 39.2562 231.674 38.1847C231.674 37.1132 233.085 36.2769 234.836 36.2769C236.587 36.2769 237.998 37.1393 237.998 38.1847Z" fill="#3E3A39"/>
<path d="M237.163 48.1431C236.954 48.1431 236.745 47.9863 236.693 47.7772L234.811 38.7608C234.759 38.4994 234.915 38.2642 235.177 38.2119C235.438 38.1596 235.673 38.3165 235.726 38.5778L237.607 47.5943C237.659 47.8557 237.503 48.0909 237.241 48.1431C237.215 48.1431 237.163 48.1431 237.137 48.1431H237.163Z" fill="#3E3A39"/>
<path d="M235.047 49.0281C233.767 49.0281 232.878 48.7668 232.774 48.7406C232.512 48.6622 232.382 48.4009 232.46 48.1395C232.539 47.8782 232.8 47.7475 233.035 47.8259C233.218 47.8782 237.504 49.1065 240.536 45.6044C240.719 45.4215 241.006 45.3954 241.215 45.5522C241.424 45.7351 241.424 46.0226 241.268 46.2317C239.255 48.5315 236.798 49.002 235.047 49.002V49.0281Z" fill="#3E3A39"/>
<path d="M249.655 19.4688C249.394 19.4688 249.184 19.2597 249.184 19.0245C249.184 18.8416 248.923 14.8691 245.891 14.8691C245.865 14.8691 245.813 14.8691 245.787 14.8691C244.898 14.8952 244.193 15.1827 243.722 15.7315C242.755 16.7769 242.834 18.4757 242.834 18.5018C242.834 18.7632 242.651 18.9722 242.389 18.9984C242.154 18.9984 241.919 18.8154 241.893 18.5541C241.893 18.4757 241.788 16.4372 243.017 15.0782C243.696 14.3464 244.611 13.9544 245.761 13.9282C245.813 13.9282 245.865 13.9282 245.918 13.9282C249.054 13.9282 250.047 17.2212 250.151 18.9722C250.151 19.2336 249.968 19.4427 249.707 19.4688H249.655Z" fill="#3E3A39"/>
<path d="M227.963 20.3077C227.702 20.3077 227.493 20.0986 227.493 19.8634C227.493 19.6804 227.232 15.7079 224.2 15.7079C224.174 15.7079 224.122 15.7079 224.096 15.7079C223.207 15.7341 222.501 16.0216 222.031 16.5704C221.064 17.6158 221.142 19.3145 221.142 19.3407C221.142 19.602 220.959 19.8111 220.698 19.8372C220.411 19.8372 220.228 19.6543 220.201 19.3929C220.201 19.3145 220.097 17.276 221.325 15.917C222.005 15.1852 222.919 14.7932 224.069 14.7671C224.122 14.7671 224.174 14.7671 224.226 14.7671C227.362 14.7671 228.355 18.0601 228.46 19.8111C228.46 20.0725 228.277 20.2815 228.016 20.3077H227.963Z" fill="#3E3A39"/>
<path d="M255.9 82.1149C249.628 79.5015 242.598 79.5015 236.352 82.1149V57.0255C242.624 54.4121 249.654 54.4121 255.9 57.0255V82.1149Z" fill="#E1AA00"/>
<path d="M255.901 82.9516C255.901 82.9516 255.692 82.9516 255.587 82.8994C249.498 80.3643 242.781 80.3643 236.666 82.8994C236.404 83.0039 236.117 82.9778 235.882 82.8209C235.646 82.6641 235.516 82.4028 235.516 82.1153V57.0259C235.516 56.6862 235.725 56.3725 236.038 56.268C242.546 53.55 249.733 53.55 256.241 56.268C256.554 56.3987 256.763 56.7123 256.763 57.0259V82.1153C256.763 82.4028 256.633 82.6641 256.397 82.8209C256.267 82.9255 256.11 82.9516 255.927 82.9516H255.901ZM237.188 57.5747V80.887C242.99 78.7701 249.263 78.7701 255.064 80.887V57.5747C249.289 55.301 242.964 55.301 237.188 57.5747Z" fill="#3E3A39"/>
<path d="M276.26 82.1149C269.987 79.5015 262.957 79.5015 256.711 82.1149V57.0255C262.983 54.4121 270.014 54.4121 276.26 57.0255V82.1149Z" fill="#E1AA00"/>
<path d="M256.711 82.9516C256.555 82.9516 256.398 82.8994 256.241 82.8209C256.006 82.6641 255.875 82.4028 255.875 82.1153V57.0259C255.875 56.6862 256.084 56.3725 256.398 56.268C262.905 53.55 270.092 53.55 276.6 56.268C276.914 56.3987 277.123 56.7123 277.123 57.0259V82.1153C277.123 82.4028 276.992 82.6641 276.757 82.8209C276.521 82.9778 276.234 83.0039 275.973 82.8994C269.857 80.3643 263.14 80.3643 257.051 82.8994C256.947 82.9516 256.842 82.9516 256.737 82.9516H256.711ZM266.486 79.3189C269.517 79.3189 272.523 79.8416 275.424 80.9131V57.6009C269.622 55.3272 263.323 55.3272 257.522 57.6009V80.9131C260.422 79.8677 263.454 79.3189 266.46 79.3189H266.486Z" fill="#3E3A39"/>
<path d="M255.169 85.0696C252.738 83.5015 252.033 80.2085 253.601 77.778L253.967 77.203C255.535 74.7725 258.828 74.0668 261.258 75.6349C263.689 77.203 264.394 80.496 262.826 82.9265L262.46 83.5015C260.892 85.932 257.599 86.6377 255.169 85.0696Z" fill="#3E3A39"/>
<path d="M258.019 86.7397C256.843 86.7397 255.719 86.3999 254.726 85.7727C253.367 84.8841 252.426 83.5251 252.06 81.9309C251.694 80.3366 252.008 78.6902 252.896 77.3312L253.262 76.7562C254.151 75.3972 255.51 74.4563 257.104 74.1166C258.698 73.7768 260.345 74.0643 261.704 74.9529C264.526 76.7823 265.363 80.5719 263.533 83.4206L263.167 83.9955C262.279 85.3545 260.92 86.2954 259.325 86.6613C258.881 86.7658 258.463 86.7919 258.019 86.7919V86.7397ZM258.411 75.6324C258.097 75.6324 257.784 75.6585 257.47 75.7369C256.294 75.9983 255.301 76.6778 254.674 77.6709L254.308 78.2459C253.68 79.239 253.445 80.4151 253.707 81.5911C253.968 82.7672 254.647 83.7603 255.64 84.3875C256.634 85.0409 257.81 85.25 258.986 84.9886C260.162 84.7273 261.155 84.0478 261.782 83.0547L262.148 82.4797C263.481 80.4151 262.88 77.6709 260.815 76.338C260.083 75.8676 259.273 75.6324 258.411 75.6324Z" fill="#3E3A39"/>
<path d="M195.687 53.1563C195.373 53.1563 195.06 52.9734 194.929 52.6597L185.625 31.3599C185.442 30.9417 185.625 30.4452 186.069 30.2622C186.487 30.0793 186.984 30.2622 187.167 30.7065L196.471 52.0064C196.654 52.4245 196.471 52.9211 196.027 53.104C195.922 53.1563 195.818 53.1824 195.687 53.1824V53.1563Z" fill="#3E3A39"/>
<path d="M133.931 102.84H37.6864C16.9092 102.84 0 85.9311 0 65.154V42.7564C0 21.9532 16.9092 5.04395 37.6864 5.04395L133.931 5.04395C155.779 5.04395 171.617 19.3397 171.617 39.0453C171.617 39.4112 171.329 39.6987 170.964 39.6987C170.598 39.6987 170.31 39.4112 170.31 39.0453C170.31 20.0976 154.995 6.35068 133.931 6.35068H37.6864C17.641 6.35068 1.30674 22.6849 1.30674 42.7303V65.1278C1.30674 85.1993 17.641 101.507 37.6864 101.507H133.931C154.002 101.507 170.31 85.1732 170.31 65.1278V50.8844C170.31 50.5185 170.598 50.231 170.964 50.231C171.329 50.231 171.617 50.5185 171.617 50.8844V65.1278C171.617 85.905 154.708 102.814 133.931 102.814V102.84Z" fill="#727171"/>
<path d="M178.253 45.7093C178.253 45.7093 178.152 45.7358 178.102 45.749L164.678 45.9613C164.329 45.9714 164.009 45.6768 164.025 45.3217C164.014 44.9731 164.284 44.6597 164.664 44.6683L178.088 44.456C178.436 44.4459 178.756 44.7405 178.741 45.0956C178.738 45.3936 178.538 45.6619 178.26 45.7346L178.253 45.7093Z" fill="#727171"/>
<path d="M21.4585 26.7636H23.4709V25.4307C23.4709 24.8296 23.7584 24.516 24.3334 24.516C24.9083 24.516 25.1435 24.8296 25.1435 25.4307V26.7636H27.182V25.3C27.2343 24.8035 27.5218 24.5421 28.0706 24.5421C28.6195 24.5421 28.8808 24.8035 28.8808 25.3L28.7763 29.9259C28.7501 31.311 28.0445 31.9905 26.7116 31.9905H21.929C20.5699 31.9905 19.8643 31.311 19.8382 29.9259L19.7598 25.3C19.7598 24.8035 20.0211 24.5421 20.5961 24.5421C21.1188 24.5421 21.3801 24.8035 21.4063 25.3V26.7636H21.4585ZM23.4709 28.2271H21.4847V29.6907C21.5108 30.344 21.7983 30.6838 22.3471 30.6838H23.497V28.2271H23.4709ZM21.7721 34.1336C21.7721 33.6631 22.0596 33.4279 22.6346 33.4279H31.7295C32.7488 33.4279 33.193 33.8461 33.0885 34.7085L32.9056 36.5641C32.801 37.4527 32.2783 37.8708 31.4159 37.8708H23.8368L24.072 39.4912H31.5727C32.1738 39.4912 32.4613 39.7264 32.4613 40.1968C32.4613 40.6673 32.1738 40.9025 31.5988 40.9025H23.8368C23.0005 40.9025 22.5039 40.4843 22.3994 39.6219L22.1642 37.7402C22.0596 36.9039 22.5039 36.4857 23.5493 36.4857H31.2329L31.3897 34.8653H22.6346C22.0335 34.8653 21.746 34.6301 21.746 34.1336H21.7721ZM27.1559 28.2271H25.1435V30.6838H26.2935C26.8162 30.6838 27.1036 30.344 27.1036 29.6907V28.2271H27.1559ZM31.2852 31.4678C31.4943 29.3509 31.4943 27.2079 31.2852 25.0648C31.2591 24.5682 31.4943 24.3069 32.0431 24.2546C32.5919 24.2285 32.8794 24.4376 32.9056 24.9341C32.984 25.875 33.0362 26.7897 33.0624 27.7305H35.5974C36.1463 27.7305 36.4076 27.9658 36.4076 28.4623C36.4076 28.9589 36.1463 29.1941 35.5974 29.1941H33.0362C33.0362 30.0043 32.984 30.8145 32.9056 31.5985C32.8794 32.1212 32.5658 32.3303 32.0431 32.278C31.4943 32.2257 31.2329 31.9644 31.2852 31.4678ZM37.4007 25.6398C37.4007 25.1693 37.6882 24.908 38.2632 24.908H45.1105C45.6855 24.908 45.973 25.1432 45.973 25.6398V26.6852C45.973 31.1281 43.3595 33.4018 38.1587 33.5063C37.6882 33.5063 37.4269 33.2973 37.4269 32.8007C37.4269 32.3303 37.636 32.0689 38.1064 32.0428C42.2357 31.9644 44.3003 30.1872 44.3003 26.7113V26.3454H38.2632C37.6882 26.3454 37.4007 26.1102 37.4007 25.6136V25.6398ZM39.6222 36.4857C39.5438 35.8585 39.7529 35.4664 40.2233 35.3096C40.8505 35.1006 41.1903 35.3096 41.2426 35.9369L41.5562 38.3674C41.6084 39.0208 41.9482 39.3344 42.497 39.3605C44.8492 39.4912 47.1752 39.4912 49.5011 39.3605C49.9977 39.3605 50.2329 39.5435 50.2329 39.9616C50.2329 40.4843 49.9977 40.7718 49.5011 40.7979C47.149 40.9286 44.5617 40.9286 41.713 40.7979C40.6937 40.7457 40.1188 40.223 39.9881 39.256L39.5961 36.4596L39.6222 36.4857ZM48.7432 35.2835C49.0046 31.886 49.0046 28.4623 48.7432 25.0387C48.7171 24.5421 48.9523 24.2808 49.5011 24.2285C50.05 24.2024 50.3375 24.4114 50.3636 24.908C50.4681 26.0841 50.5204 27.2601 50.5465 28.4623H53.0555C53.6043 28.4623 53.8657 28.6975 53.8657 29.1941C53.8657 29.6907 53.6043 29.952 53.0555 29.952H50.5727C50.5727 31.7814 50.4943 33.5847 50.3636 35.4142C50.3375 35.9107 50.0238 36.1459 49.5011 36.0937C48.9523 36.0675 48.691 35.7801 48.7432 35.2835ZM55.094 31.0758C57.1848 29.8213 58.204 27.9658 58.204 25.5614C58.204 24.9341 58.4915 24.6205 59.0665 24.6205C59.6414 24.6205 59.8767 24.9341 59.8767 25.5091C59.8767 26.4238 59.7721 27.2863 59.5369 28.0703C61.105 28.9066 62.1242 30.1872 62.5685 31.9121C62.6731 32.4087 62.4901 32.7223 61.9674 32.853C61.4447 33.0098 61.1311 32.853 61.0266 32.3564C60.6346 31.0235 59.9551 30.0827 58.9619 29.5077C58.2824 30.736 57.2632 31.7292 55.878 32.4871C55.3815 32.7484 54.9895 32.6178 54.7281 32.1212C54.4929 31.6769 54.5974 31.311 55.094 31.0758ZM57.6291 35.6755C57.6291 35.2051 57.9165 34.9437 58.4915 34.9437H68.5795C69.1545 34.9437 69.442 35.179 69.442 35.6755V36.7209C69.442 38.2367 69.1284 39.5435 68.5011 40.6411C68.2659 41.0854 67.9 41.19 67.4296 40.9025C66.9331 40.615 66.8024 40.2491 67.0637 39.8048C67.508 38.9685 67.7432 37.9492 67.7432 36.747V36.4073H58.4654C57.8904 36.4073 57.6029 36.1721 57.6029 35.6494L57.6291 35.6755ZM66.0445 25.1171C66.1229 26.1363 66.1751 27.1294 66.1751 28.1226H68.2921C68.2921 27.1817 68.2398 26.1886 68.1875 25.2216C68.1352 24.6205 68.3966 24.3069 68.9193 24.2546C69.4681 24.2285 69.7556 24.4376 69.7817 24.9341C69.9908 27.5476 69.9908 30.1349 69.7817 32.7223C69.7817 33.2189 69.4681 33.4541 68.9193 33.4018C68.3705 33.3495 68.1352 33.0359 68.1875 32.4348C68.2398 31.494 68.2921 30.527 68.2921 29.56H66.1751C66.1751 30.5531 66.0967 31.5462 66.0445 32.5393C66.0183 33.0359 65.7047 33.2711 65.182 33.2189C64.6332 33.1927 64.3718 32.9052 64.4241 32.3825C64.6071 30.0043 64.6071 27.626 64.4241 25.2216C64.398 24.725 64.6332 24.4637 65.182 24.4114C65.7309 24.3592 66.0183 24.5944 66.0445 25.0909V25.1171ZM71.5328 37.6618C71.5328 37.1913 71.7941 36.9561 72.2384 36.9823C76.7859 37.2959 81.3072 37.2959 85.8285 36.9823C86.2728 36.9823 86.508 37.1913 86.5341 37.6618C86.5341 38.1322 86.3512 38.3935 85.8808 38.4197C81.3072 38.7333 76.7597 38.7333 72.16 38.4197C71.7157 38.4197 71.4805 38.1322 71.5066 37.6618H71.5328ZM85.0445 29.168C85.0445 32.0689 83.0321 33.5586 79.0335 33.6109C75.0087 33.6893 72.9963 32.2519 72.9963 29.3509C72.9963 26.4499 75.0087 24.9864 79.0335 24.908C83.0321 24.8557 85.0445 26.267 85.0445 29.1418V29.168ZM79.0596 32.2257C81.9605 32.1735 83.398 31.1542 83.398 29.168C83.398 27.1817 81.9605 26.267 79.0596 26.3193C76.1586 26.3977 74.6951 27.3908 74.6951 29.3509C74.6951 31.311 76.1586 32.278 79.0596 32.2257ZM91.2645 30.4224V32.1735C91.2645 32.5655 91.4213 32.7484 91.6566 32.7484H99.7845C100.412 32.7484 100.725 32.9836 100.725 33.4541C100.725 33.9506 100.438 34.212 99.8367 34.212H96.0211V37.2436C98.0073 37.2436 99.9936 37.1652 101.98 37.0084C102.424 37.0084 102.659 37.2175 102.685 37.6879C102.685 38.1583 102.502 38.4197 102.032 38.4458C97.4585 38.7594 92.911 38.7594 88.3113 38.4458C87.867 38.4458 87.6318 38.1583 87.6579 37.6879C87.6579 37.2175 87.9193 36.9823 88.3636 37.0084C90.3498 37.1652 92.3361 37.2436 94.3223 37.2436V34.212H91.0032C90.0623 34.212 89.5919 33.7677 89.5658 32.8791L89.5135 30.2134C89.5135 29.4032 89.9317 28.985 90.7941 28.985H98.7129C98.9743 28.985 99.105 28.8021 99.105 28.4101V26.7113H90.3237C89.6964 26.7113 89.3828 26.4761 89.3828 25.9795C89.3828 25.483 89.618 25.2477 90.1146 25.2477H99.497C100.359 25.2477 100.778 25.6659 100.778 26.4761V29.1157C100.725 30.0043 100.229 30.4486 99.2618 30.4486H91.1861L91.2645 30.4224ZM119.359 26.659L119.176 32.1473H120.666C121.215 32.1473 121.476 32.3825 121.476 32.853C121.476 33.3495 121.215 33.6109 120.666 33.6109H118.994V37.1652C120.117 37.1391 121.241 37.0607 122.365 36.9823C122.809 36.9823 123.044 37.1913 123.071 37.6618C123.071 38.1322 122.888 38.3935 122.417 38.4197C117.844 38.7333 113.296 38.7333 108.696 38.4197C108.252 38.4197 108.017 38.1322 108.043 37.6618C108.043 37.1913 108.304 36.9561 108.749 36.9823C109.872 37.0607 110.996 37.1129 112.12 37.1652V33.6109H110.421C109.872 33.6109 109.611 33.3757 109.611 32.853C109.611 32.3825 109.872 32.1473 110.421 32.1473H111.911L111.728 26.659H110.238C109.69 26.659 109.428 26.3977 109.428 25.9011C109.428 25.4307 109.69 25.1955 110.238 25.1955H120.823C121.372 25.1955 121.633 25.4307 121.633 25.9011C121.633 26.4238 121.372 26.659 120.823 26.659H119.307H119.359ZM117.504 32.1473L117.687 26.659H113.453L113.636 32.1473H117.504ZM117.347 33.6109H113.819V37.1913C114.995 37.2175 116.171 37.2175 117.347 37.1913V33.6109ZM124.952 36.2766C127.461 34.7347 128.69 31.4156 128.69 26.3454C128.69 25.7182 128.977 25.3784 129.552 25.3784C130.127 25.3784 130.362 25.692 130.362 26.2931C130.362 28.201 130.205 29.9259 129.866 31.4156C131.695 32.5916 132.923 34.4472 133.603 37.0345C133.734 37.5311 133.551 37.8447 133.054 37.9754C132.557 38.1322 132.244 37.9754 132.113 37.4527C131.59 35.571 130.676 34.1074 129.395 33.1143C128.637 35.179 127.461 36.6686 125.867 37.6095C125.37 37.9231 124.978 37.8447 124.665 37.3481C124.377 36.9039 124.482 36.5118 124.926 36.2505L124.952 36.2766ZM136.53 38.3413C136.87 33.8984 136.87 29.4816 136.53 25.0387C136.504 24.5421 136.739 24.2808 137.288 24.2285C137.837 24.2024 138.124 24.4114 138.15 24.908C138.516 29.4032 138.516 33.9245 138.15 38.4458C138.15 38.9424 137.837 39.1776 137.288 39.1253C136.739 39.073 136.478 38.8117 136.53 38.3151V38.3413ZM148.055 24.4376C148.657 24.4376 148.944 24.6728 148.944 25.1432C148.944 25.6398 148.63 25.9011 148.003 25.9011H142.802C142.436 25.9011 142.28 26.1625 142.306 26.7113L142.384 28.2532C142.384 28.7759 142.646 29.0634 143.142 29.0896C145.337 29.2464 147.115 29.168 148.474 28.9066C148.944 28.8282 149.205 29.0112 149.284 29.4816C149.362 29.952 149.153 30.2134 148.683 30.3179C147.846 30.5008 146.958 30.6054 145.991 30.6315V32.6962C147.298 32.6962 148.578 32.6439 149.806 32.5655C150.251 32.5655 150.486 32.7746 150.512 33.2711C150.512 33.7415 150.329 34.0029 149.859 34.029C146.958 34.1858 143.952 34.1858 140.816 34.029C140.372 34.029 140.137 33.7677 140.163 33.2711C140.163 32.7746 140.424 32.5393 140.868 32.5655C142.018 32.6439 143.168 32.67 144.318 32.6962V30.6838C143.769 30.6838 143.194 30.6315 142.619 30.5792C141.417 30.5008 140.816 29.952 140.764 28.9589L140.607 25.692C140.581 24.908 140.999 24.4898 141.888 24.4898H148.055V24.4376ZM143.247 36.8516C143.168 36.2244 143.351 35.8323 143.822 35.6755C144.423 35.4926 144.762 35.7017 144.841 36.3289L145.076 38.3674C145.128 39.0208 145.468 39.3344 146.017 39.3605C148.369 39.4912 150.721 39.4912 153.021 39.3605C153.518 39.3605 153.753 39.5435 153.753 39.9616C153.753 40.4843 153.518 40.7718 153.021 40.7979C150.669 40.9286 148.082 40.9286 145.233 40.7979C144.214 40.7457 143.639 40.223 143.508 39.256L143.194 36.8516H143.247ZM152.106 35.2835C152.368 31.886 152.368 28.4623 152.106 25.0387C152.08 24.5421 152.315 24.2808 152.864 24.2285C153.413 24.2024 153.701 24.4114 153.727 24.908C154.014 28.3839 154.014 31.886 153.727 35.388C153.727 35.8846 153.413 36.1198 152.864 36.0675C152.315 36.0414 152.054 35.7539 152.106 35.2574V35.2835Z" fill="#231815"/>
<path d="M28 61.9998H26.2545V59.6986C25.6 60.4941 24.9909 61.0528 24.4273 61.3748C23.7545 61.7535 22.9636 61.9429 22.0545 61.9429C19.4909 61.9429 17.7455 60.8445 16.8182 58.6475C16.2727 57.3596 16 55.977 16 54.4998C16 52.4354 16.4545 50.7213 17.3636 49.3577C18.4 47.7857 19.8636 46.9998 21.7545 46.9998C22.8455 46.9998 23.8273 47.2933 24.7 47.8804C25.3182 48.2971 25.7182 48.7138 25.9 49.1304L25.9545 47.3975H28V61.9998ZM25.7091 54.6986C25.7091 53.2213 25.4455 52.0092 24.9182 51.0623C24.2818 49.907 23.3 49.3293 21.9727 49.3293C19.4273 49.3293 18.1545 51.0338 18.1545 54.4429C18.1545 58.0225 19.5 59.8123 22.1909 59.8123C23.3 59.8123 24.1636 59.282 24.7818 58.2213C25.2182 57.4827 25.4909 56.8672 25.6 56.3748C25.6727 56.0528 25.7091 55.4941 25.7091 54.6986Z" fill="#D2476E"/>
<path d="M35.2004 57.1057C32.8744 56.8967 31.6983 55.4854 31.6983 52.8719C31.6983 49.9971 33.1357 48.5074 36.0367 48.429C38.9376 48.3767 40.4012 49.788 40.4012 52.6628C40.4012 55.2763 39.2251 56.7398 36.873 57.0535V60.6078C38.0229 60.6078 39.1729 60.5555 40.3228 60.4771C40.7671 60.4771 41.0023 60.6862 41.0284 61.1566C41.0284 61.6271 40.8455 61.8884 40.3751 61.9145C37.4741 62.0975 34.5731 62.0975 31.6983 61.9145C31.254 61.9145 31.0188 61.6271 31.0449 61.1566C31.0449 60.6862 31.3063 60.451 31.7506 60.4771C32.9005 60.5555 34.0504 60.6078 35.2004 60.6078V57.1057ZM36.0367 55.7467C37.8138 55.6945 38.7286 54.6752 38.7286 52.689C38.7286 50.7027 37.84 49.788 36.0367 49.8403C34.2595 49.9187 33.3709 50.9118 33.3709 52.8719C33.3709 54.832 34.2595 55.799 36.0367 55.7467ZM42.5965 61.8623C42.9363 57.4194 42.9363 53.0026 42.5965 48.5597C42.5704 48.0631 42.8056 47.8018 43.3544 47.7495C43.9033 47.7233 44.1907 47.9324 44.2169 48.429C44.3737 50.4414 44.4521 52.4537 44.4782 54.44H46.9088C47.4576 54.44 47.7189 54.6752 47.7189 55.1718C47.7189 55.6683 47.4576 55.9035 46.9088 55.9035H44.4782C44.4782 57.942 44.3737 59.9806 44.2169 61.9929C44.1907 62.4895 43.8771 62.7247 43.3544 62.6724C42.8056 62.6202 42.5442 62.3588 42.5965 61.8623Z" fill="#231815"/>
<path fill-rule="evenodd" clip-rule="evenodd" d="M59.8552 47.3044C57.8645 47.3044 56.1743 48.0666 54.8244 49.5558C53.4743 51.045 52.8164 52.8863 52.8164 55.0615C52.8164 57.3639 53.5764 59.2576 55.0542 60.7224C56.4302 62.1108 58.0932 62.7943 60.0766 62.7943C61.2051 62.7943 62.3518 62.4891 63.4894 61.8878L63.4903 61.8874C63.819 61.712 64.1457 61.5126 64.5189 61.2661C64.8952 61.0174 65.2945 60.7206 65.7128 60.4036C65.7751 60.3564 65.8118 60.2826 65.8118 60.2044V57.8645C65.8118 57.7636 65.7511 57.6726 65.658 57.6338C65.5648 57.5949 65.4575 57.6159 65.3858 57.6869C64.9958 58.0734 64.6298 58.4119 64.3108 58.7037C64.0011 58.987 63.6917 59.2227 63.407 59.4108L63.4069 59.4107L63.3995 59.416C62.3802 60.1442 61.3234 60.4906 60.2242 60.4906C58.7686 60.4906 57.6085 59.9592 56.7231 58.9433C55.8796 57.9755 55.4218 56.5433 55.385 54.6534H65.7829C65.921 54.6534 66.0329 54.5415 66.0329 54.4034C66.0329 52.4079 65.5283 50.8157 64.5048 49.4973L64.5045 49.4969C63.3724 48.0436 61.8467 47.3044 59.8552 47.3044ZM57.1473 50.3701C57.8606 49.7089 58.7088 49.3887 59.7322 49.3887C60.6621 49.3887 61.4375 49.6633 62.0755 50.2278C62.6578 50.7429 63.0809 51.4943 63.2939 52.5204H55.7363C56.084 51.6285 56.5441 50.9061 57.1434 50.3737L57.1434 50.3737L57.1473 50.3701Z" fill="#D2476E"/>
<path d="M71.8987 61.7316C69.2853 61.8361 67.9785 59.7192 67.9785 55.3547C67.9785 50.9902 69.2853 48.821 71.8987 48.7165C74.4077 48.6119 75.6883 50.5459 75.7928 54.4923H78.0927C78.0927 52.6628 77.9881 50.8334 77.8313 48.9517C77.8052 48.4551 78.0404 48.1938 78.5892 48.1415C79.1381 48.0892 79.4256 48.3244 79.4517 48.821C79.7914 53.081 79.7914 57.3409 79.4517 61.6271C79.4256 62.1236 79.1119 62.3588 78.5892 62.3066C78.0404 62.2804 77.7791 61.9929 77.8313 61.4964C77.9881 59.6408 78.0665 57.7852 78.0927 55.9558H75.7928C75.6099 59.7192 74.3031 61.6532 71.8987 61.7316ZM71.8987 50.1539C70.4091 50.2062 69.6511 51.931 69.6511 55.3024C69.6511 58.6738 70.4091 60.3987 71.8987 60.3203C73.3884 60.268 74.1463 58.517 74.1463 55.1195C74.1463 51.722 73.3884 50.1016 71.8987 50.1539ZM81.3857 61.8623C81.7254 57.4194 81.7254 53.0026 81.3857 48.5597C81.3595 48.0631 81.5947 47.8018 82.1436 47.7495C82.6924 47.7233 82.9799 47.9324 83.006 48.429C83.3719 52.9242 83.3719 57.4455 83.006 61.9668C83.006 62.4634 82.6924 62.6986 82.1436 62.6463C81.5947 62.594 81.3334 62.3327 81.3857 61.8361V61.8623ZM89.0432 58.4909C89.0432 58.0205 89.3045 57.7852 89.7488 57.8114C94.2962 58.125 98.8176 58.125 103.339 57.8114C103.783 57.8114 104.018 58.0205 104.045 58.4909C104.045 58.9613 103.862 59.2227 103.391 59.2488C101.379 59.4056 99.3925 59.484 97.3802 59.484V62.8815C97.3802 63.5088 97.0927 63.8485 96.5438 63.8485C95.995 63.8485 95.7075 63.5349 95.7075 62.8815V59.484C93.6951 59.484 91.6828 59.4056 89.6704 59.2488C89.2261 59.2488 88.9909 58.9613 89.017 58.4909H89.0432ZM91.0817 49.2392C91.0817 48.7687 91.3692 48.5335 91.9441 48.5335H99.4448C101.144 48.5335 101.719 49.4482 101.144 51.2515C100.882 52.0617 100.49 52.7674 99.9414 53.3423C100.647 53.6037 101.3 53.9957 101.901 54.4661C102.32 54.8581 102.45 55.2502 102.241 55.6422C101.98 56.2172 101.666 56.2956 101.3 55.9035C100.621 55.2763 99.7323 54.7797 98.6085 54.4139C96.9097 55.4592 94.4792 55.9558 91.3169 55.9558C90.7419 55.9558 90.4544 55.7206 90.4544 55.2502C90.4544 54.7797 90.7419 54.5445 91.3169 54.5445C95.995 54.5445 98.7392 53.2901 99.5232 50.7811C99.68 50.2062 99.5755 49.9187 99.2096 49.9187H91.9441C91.343 49.9187 91.0555 49.6835 91.0555 49.213L91.0817 49.2392ZM105.56 61.1828C105.56 60.7123 105.822 60.4771 106.266 60.5033C109.245 60.6862 112.225 60.6862 115.204 60.5033C115.648 60.5033 115.884 60.7123 115.91 61.1828C115.91 61.6532 115.727 61.9145 115.256 61.9407C112.251 62.1236 109.219 62.1236 106.214 61.9407C105.769 61.9407 105.534 61.6532 105.56 61.1828ZM114.89 52.689C114.89 55.5899 113.427 57.0796 110.526 57.1319C107.625 57.2103 106.188 55.7729 106.188 52.8719C106.188 49.9709 107.625 48.5074 110.526 48.429C113.427 48.3767 114.89 49.788 114.89 52.6628V52.689ZM110.552 55.7467C112.329 55.6945 113.244 54.6752 113.244 52.689C113.244 50.7027 112.355 49.788 110.552 49.8403C108.775 49.9187 107.886 50.9118 107.886 52.8719C107.886 54.832 108.775 55.799 110.552 55.7467ZM117.478 61.8623C117.818 57.4194 117.818 53.0026 117.478 48.5597C117.452 48.0631 117.687 47.8018 118.236 47.7495C118.785 47.7233 119.072 47.9324 119.098 48.429C119.464 52.9242 119.464 57.4455 119.098 61.9668C119.098 62.4634 118.785 62.6986 118.236 62.6463C117.687 62.594 117.426 62.3327 117.478 61.8361V61.8623ZM121.189 51.3561C121.189 50.8857 121.476 50.6243 122.025 50.6243H124.796V48.6119C124.796 48.037 125.083 47.7495 125.632 47.7495C126.181 47.7495 126.468 48.037 126.468 48.6119V50.6243H129.212C129.787 50.6243 130.075 50.8595 130.075 51.3561C130.075 51.8526 129.787 52.0879 129.212 52.0879H121.999C121.45 52.0879 121.163 51.8526 121.163 51.3561H121.189ZM125.658 61.7316C123.045 61.8361 121.738 60.5555 121.738 57.8636C121.738 55.1718 123.045 53.8128 125.658 53.7082C128.245 53.5775 129.552 54.8843 129.552 57.5762C129.552 60.268 128.245 61.6532 125.658 61.7577V61.7316ZM125.658 55.1195C124.168 55.1979 123.41 56.0865 123.41 57.8114C123.41 59.5363 124.168 60.3987 125.658 60.3464C127.148 60.2942 127.879 59.3795 127.879 57.6284C127.879 55.8774 127.148 55.0934 125.658 55.1456V55.1195ZM132.688 61.8623C133.028 57.4194 133.028 53.0026 132.688 48.5597C132.662 48.0631 132.897 47.8018 133.446 47.7495C133.995 47.7233 134.282 47.9324 134.309 48.429C134.465 50.4414 134.544 52.4537 134.57 54.44H137C137.549 54.44 137.811 54.6752 137.811 55.1718C137.811 55.6683 137.549 55.9035 137 55.9035H134.57C134.57 57.942 134.465 59.9806 134.309 61.9929C134.282 62.4895 133.969 62.7247 133.446 62.6724C132.897 62.6202 132.636 62.3588 132.688 61.8623ZM142.985 61.7316C140.111 61.8361 138.699 59.7192 138.699 55.3547C138.699 50.9902 140.137 48.821 142.985 48.7165C145.102 48.6381 146.435 49.788 146.984 52.1924H150.721C150.669 50.9902 150.617 49.788 150.538 48.5858C150.512 48.0892 150.747 47.8279 151.296 47.7756C151.845 47.7495 152.133 47.9586 152.159 48.4551C152.525 52.9503 152.525 57.4716 152.159 61.9929C152.159 62.4895 151.845 62.7247 151.296 62.6724C150.747 62.6202 150.486 62.3588 150.538 61.8623C150.617 60.6339 150.695 59.4317 150.721 58.2295H146.906C146.331 60.5033 145.024 61.6532 142.985 61.7055V61.7316ZM142.985 50.1539C141.234 50.2062 140.372 51.931 140.372 55.3024C140.372 58.6738 141.234 60.3987 142.985 60.3203C144.71 60.268 145.599 58.517 145.599 55.1195C145.599 51.722 144.736 50.1016 142.985 50.1539ZM147.219 53.6298C147.245 54.0741 147.271 54.5445 147.271 55.0411C147.271 55.6683 147.245 56.2433 147.167 56.766H150.747C150.747 55.7206 150.747 54.6752 150.747 53.6298H147.219Z" fill="#231815"/>
<path d="M45.8433 73.8038H50.835V72.3402C50.8873 71.8175 51.1748 71.5823 51.7236 71.5823C52.2725 71.5823 52.5338 71.8437 52.5338 72.3402L52.4554 76.9661C52.4293 78.3512 51.7236 79.0569 50.3646 79.0569H46.3137C44.9547 79.0569 44.2752 78.3774 44.2491 76.9661L44.1445 72.3402C44.1445 71.8175 44.4059 71.5823 45.007 71.5823C45.5297 71.5823 45.791 71.8437 45.8172 72.3402V73.8038H45.8433ZM45.791 81.1738C45.791 80.7034 46.0785 80.4681 46.6535 80.4681H55.7484C56.7676 80.4681 57.2119 80.8863 57.1074 81.7487L56.9244 83.6043C56.8199 84.4929 56.2972 84.9111 55.4348 84.9111H47.8557L48.0909 86.5053H55.5916C56.1927 86.5053 56.4802 86.7405 56.4802 87.2109C56.4802 87.6813 56.1927 87.9166 55.6177 87.9166H47.8557C47.0194 87.9166 46.5228 87.4723 46.4183 86.6098L46.183 84.7281C46.0785 83.8918 46.5228 83.4736 47.5682 83.4736H55.2518L55.4086 81.8533H46.6535C46.0524 81.8533 45.7649 81.6181 45.7649 81.1215L45.791 81.1738ZM50.835 75.2673H45.8956V76.7047C45.9217 77.3842 46.2092 77.6979 46.758 77.6979H49.9726C50.5214 77.6979 50.8089 77.3581 50.8089 76.7047V75.2673H50.835ZM55.3302 78.508C55.5393 76.3911 55.5393 74.2481 55.3302 72.105C55.3041 71.6085 55.5393 71.3471 56.0881 71.2948C56.637 71.2687 56.9244 71.4778 56.9506 71.9743C57.029 72.9152 57.0812 73.8299 57.1074 74.7708H59.6425C60.1913 74.7708 60.4526 75.006 60.4526 75.5025C60.4526 75.9991 60.1913 76.2343 59.6425 76.2343H57.0812C57.0812 77.0445 57.029 77.8547 56.9506 78.6387C56.9244 79.1353 56.6108 79.3705 56.0881 79.3182C55.5393 79.2921 55.2779 79.0046 55.3302 78.508ZM60.8447 79.475C60.8447 79.0046 61.106 78.7694 61.5503 78.7955C66.0978 79.1091 70.6191 79.1091 75.1404 78.7955C75.5847 78.7955 75.8199 79.0046 75.846 79.475C75.846 79.9716 75.6631 80.2068 75.1927 80.2329C70.6191 80.5466 66.0716 80.5466 61.4719 80.2329C61.0276 80.2329 60.7924 79.9454 60.8185 79.475H60.8447ZM74.3825 74.0913C74.3825 76.0775 72.3701 77.1229 68.3715 77.1752C64.3467 77.2536 62.3343 76.2604 62.3343 74.2742C62.3343 72.288 64.3467 71.2426 68.3715 71.1903C72.3701 71.138 74.3825 72.0789 74.3825 74.0913ZM65.2876 87.9427C63.8502 87.9427 63.04 87.2371 62.857 85.8519L62.5696 83.7089C62.4389 82.7157 62.9877 82.193 64.2422 82.193H72.4746C73.7291 82.193 74.2779 82.6896 74.1473 83.7089L73.8859 85.8519C73.703 87.2371 72.8667 87.9427 71.4292 87.9427H65.2876ZM68.3715 75.8162C71.2724 75.7639 72.7099 75.1889 72.7099 74.1174C72.7099 73.0459 71.2724 72.5493 68.3715 72.6016C65.4705 72.68 64.007 73.2288 64.007 74.3003C64.007 75.3719 65.4705 75.8684 68.3715 75.8162ZM64.8694 83.6566C64.4513 83.6566 64.2683 83.9179 64.3467 84.4406L64.4513 85.5122C64.5297 86.1655 64.791 86.5053 65.2614 86.5053H71.4292C71.8997 86.5053 72.161 86.1917 72.2394 85.5122L72.344 84.4406C72.3962 83.9179 72.2394 83.6566 71.8213 83.6566H64.8433H64.8694ZM77.4141 74.8753C77.4141 74.4049 77.7016 74.1435 78.2504 74.1435H81.0207V72.1311C81.0207 71.5562 81.3082 71.2687 81.857 71.2687C82.4059 71.2687 82.6933 71.5562 82.6933 72.1311V74.1435H85.4375C86.0125 74.1435 86.2999 74.3787 86.2999 74.8753C86.2999 75.3719 86.0125 75.6071 85.4375 75.6071H78.2243C77.6755 75.6071 77.388 75.3719 77.388 74.8753H77.4141ZM81.8832 85.2508C79.2697 85.3554 77.9629 84.0747 77.9629 81.3567C77.9629 78.6387 79.2697 77.3058 81.8832 77.2013C84.4705 77.0968 85.7772 78.3774 85.7772 81.0692C85.7772 83.7611 84.4705 85.1463 81.8832 85.2508ZM81.8832 78.6387C80.3935 78.7171 79.6356 79.6057 79.6356 81.3306C79.6356 83.0555 80.3935 83.9179 81.8832 83.8657C83.3728 83.8134 84.1046 82.8987 84.1046 81.1477C84.1046 79.3966 83.3728 78.6126 81.8832 78.6648V78.6387ZM88.9134 85.3815C89.2532 80.9647 89.2532 76.5218 88.9134 72.0789C88.8873 71.5823 89.1225 71.321 89.6713 71.2687C90.2202 71.2426 90.5076 71.4516 90.5338 71.9482C90.6906 73.9606 90.769 75.973 90.7951 77.9592H93.2257C93.7745 77.9592 94.0358 78.1944 94.0358 78.691C94.0358 79.1875 93.7745 79.4228 93.2257 79.4228H90.7951C90.7951 81.4613 90.6906 83.4998 90.5338 85.5122C90.5076 86.0087 90.194 86.2439 89.6713 86.1655C89.1225 86.1394 88.8611 85.8519 88.9134 85.3553V85.3815ZM95.1858 83.3168C97.3027 81.984 98.3742 78.691 98.3742 73.4118C98.3742 72.7845 98.6617 72.4448 99.2367 72.4448C99.8116 72.4448 100.047 72.7584 100.047 73.3856C100.047 75.3719 99.9162 77.0968 99.6287 78.5864C101.066 79.7364 102.085 81.5658 102.739 84.1009C102.843 84.5974 102.66 84.9111 102.164 85.0417C101.667 85.1985 101.354 85.0417 101.223 84.5452C100.726 82.7157 100.021 81.3306 99.1583 80.3636C98.5049 82.4283 97.4856 83.8918 96.1005 84.702C95.6039 85.0156 95.2119 84.9372 94.8983 84.4406C94.6108 83.9963 94.7153 83.6043 95.1596 83.343L95.1858 83.3168ZM105.039 78.0115C105.039 76.182 104.934 74.3526 104.777 72.4709C104.751 71.9743 104.986 71.713 105.535 71.6607C106.084 71.6085 106.371 71.8437 106.398 72.3141C106.737 76.5741 106.737 80.834 106.398 85.1201C106.371 85.6167 106.058 85.8519 105.535 85.7735C104.986 85.7474 104.725 85.4599 104.777 84.9633C104.934 83.1078 105.012 81.2522 105.039 79.4228H103.34C102.817 79.4228 102.53 79.1875 102.53 78.691C102.53 78.1944 102.791 77.9592 103.34 77.9592H105.039V78.0115ZM108.332 85.3815C108.671 80.9647 108.671 76.5218 108.332 72.0789C108.305 71.5823 108.541 71.321 109.089 71.2687C109.638 71.2426 109.926 71.4516 109.952 71.9482C110.318 76.4695 110.318 80.9647 109.952 85.486C109.952 85.9826 109.638 86.2178 109.089 86.1394C108.541 86.1133 108.279 85.8258 108.332 85.3292V85.3815ZM115.78 80.4681C115.78 80.4681 115.78 80.2591 115.78 80.1807C114.055 79.5796 113.166 78.299 113.166 76.365C113.166 73.4902 115.179 72.0005 119.204 71.9482C123.202 71.8959 125.215 73.3072 125.215 76.182C125.215 78.116 124.352 79.3966 122.601 80.0761C122.601 80.1807 122.627 80.3113 122.627 80.442V84.1532C123.751 84.127 124.875 84.0486 125.999 83.9702C126.443 83.9702 126.678 84.1793 126.704 84.6497C126.704 85.1201 126.521 85.3815 126.051 85.4076C121.477 85.7212 116.93 85.7212 112.33 85.4076C111.886 85.4076 111.651 85.1201 111.677 84.6497C111.677 84.1793 111.938 83.9441 112.382 83.9702C113.506 84.0486 114.63 84.1009 115.754 84.1532V80.442L115.78 80.4681ZM119.23 79.2659C122.131 79.2137 123.568 78.1944 123.568 76.2082C123.568 74.2219 122.131 73.3072 119.23 73.3595C116.329 73.4379 114.865 74.431 114.865 76.3911C114.865 78.3512 116.329 79.3182 119.23 79.2659ZM120.981 80.5204C120.432 80.625 119.857 80.6511 119.23 80.6511C118.576 80.6511 118.001 80.6511 117.453 80.5727V84.2316C118.629 84.2577 119.805 84.2577 120.981 84.2316V80.5204ZM128.037 85.094C128.037 84.4406 128.377 84.1009 129.056 84.1009C129.736 84.1009 130.076 84.4406 130.076 85.094V85.2508C130.076 85.9042 129.736 86.2178 129.056 86.2178C128.377 86.2178 128.037 85.9042 128.037 85.2508V85.094Z" fill="#231815"/>
</svg>
