<svg width="395" height="26" viewBox="0 0 395 26" fill="none" xmlns="http://www.w3.org/2000/svg">
<path d="M8.554 19.348C9.36867 19.348 10.0793 19.0707 10.686 18.516C11.2927 17.9613 11.7607 17.1727 12.09 16.15C12.4367 15.1273 12.61 13.94 12.61 12.588C12.61 11.236 12.4367 10.0573 12.09 9.052C11.7607 8.02933 11.2927 7.24067 10.686 6.686C10.0793 6.114 9.36867 5.828 8.554 5.828C7.75667 5.828 7.046 6.10533 6.422 6.66C5.81533 7.21467 5.33867 8.00333 4.992 9.026C4.66267 10.0487 4.498 11.236 4.498 12.588C4.498 13.94 4.66267 15.1273 4.992 16.15C5.33867 17.1727 5.81533 17.9613 6.422 18.516C7.046 19.0707 7.75667 19.348 8.554 19.348ZM8.58 22.286C7.14133 22.286 5.85867 21.8787 4.732 21.064C3.60533 20.232 2.72133 19.0793 2.08 17.606C1.456 16.1327 1.144 14.46 1.144 12.588C1.144 10.716 1.456 9.04333 2.08 7.57C2.72133 6.09667 3.60533 4.95267 4.732 4.138C5.85867 3.306 7.13267 2.89 8.554 2.89C9.99267 2.89 11.2753 3.306 12.402 4.138C13.5287 4.95267 14.404 6.09667 15.028 7.57C15.652 9.04333 15.964 10.716 15.964 12.588C15.964 14.46 15.652 16.1327 15.028 17.606C14.404 19.0793 13.5287 20.232 12.402 21.064C11.2753 21.8787 10.0013 22.286 8.58 22.286ZM26.2913 22.13L22.9373 22.078V6.608L19.3233 8.324L18.1013 5.412L22.9633 3.098H26.2913V22.13Z" fill="#231815"/>
<path d="M53 13L45 19L45 7L53 13Z" fill="#D9D9D9"/>
<path d="M77.554 19.348C78.3687 19.348 79.0793 19.0707 79.686 18.516C80.2927 17.9613 80.7607 17.1727 81.09 16.15C81.4367 15.1273 81.61 13.94 81.61 12.588C81.61 11.236 81.4367 10.0573 81.09 9.052C80.7607 8.02933 80.2927 7.24067 79.686 6.686C79.0793 6.114 78.3687 5.828 77.554 5.828C76.7567 5.828 76.046 6.10533 75.422 6.66C74.8153 7.21467 74.3387 8.00333 73.992 9.026C73.6627 10.0487 73.498 11.236 73.498 12.588C73.498 13.94 73.6627 15.1273 73.992 16.15C74.3387 17.1727 74.8153 17.9613 75.422 18.516C76.046 19.0707 76.7567 19.348 77.554 19.348ZM77.58 22.286C76.1413 22.286 74.8587 21.8787 73.732 21.064C72.6053 20.232 71.7213 19.0793 71.08 17.606C70.456 16.1327 70.144 14.46 70.144 12.588C70.144 10.716 70.456 9.04333 71.08 7.57C71.7213 6.09667 72.6053 4.95267 73.732 4.138C74.8587 3.306 76.1327 2.89 77.554 2.89C78.9927 2.89 80.2753 3.306 81.402 4.138C82.5287 4.95267 83.404 6.09667 84.028 7.57C84.652 9.04333 84.964 10.716 84.964 12.588C84.964 14.46 84.652 16.1327 84.028 17.606C83.404 19.0793 82.5287 20.232 81.402 21.064C80.2753 21.8787 79.0013 22.286 77.58 22.286ZM87.8813 19.192C88.3493 18.7413 88.8433 18.282 89.3633 17.814C89.9006 17.346 90.4293 16.8953 90.9493 16.462C92.2319 15.37 93.2373 14.4687 93.9653 13.758C94.7106 13.0473 95.3346 12.3193 95.8373 11.574C96.3399 10.8113 96.5913 10.0747 96.5913 9.364C96.5913 8.70533 96.4613 8.13333 96.2013 7.648C95.9586 7.14533 95.6119 6.75533 95.1613 6.478C94.7106 6.18333 94.1993 6.036 93.6273 6.036C92.9166 6.036 92.2406 6.26133 91.5993 6.712C90.9753 7.14533 90.5073 7.71733 90.1953 8.428L87.3093 7.128C87.8466 5.89733 88.7046 4.892 89.8833 4.112C91.0793 3.332 92.3273 2.942 93.6273 2.942C94.8579 2.942 95.9499 3.21067 96.9033 3.748C97.8566 4.28533 98.6019 5.048 99.1393 6.036C99.6766 7.00667 99.9453 8.116 99.9453 9.364C99.9453 10.5773 99.5986 11.756 98.9053 12.9C98.2293 14.0267 97.4146 15.0493 96.4613 15.968C95.5253 16.8693 94.2859 17.9527 92.7433 19.218C91.5993 20.154 90.6893 20.934 90.0133 21.558L87.8813 19.192ZM87.8813 19.192H100.231V22.104H88.1413L87.8813 19.192Z" fill="#D9D9D9"/>
<path d="M126 13L118 19L118 7L126 13Z" fill="#D9D9D9"/>
<path d="M150.554 19.348C151.369 19.348 152.079 19.0707 152.686 18.516C153.293 17.9613 153.761 17.1727 154.09 16.15C154.437 15.1273 154.61 13.94 154.61 12.588C154.61 11.236 154.437 10.0573 154.09 9.052C153.761 8.02933 153.293 7.24067 152.686 6.686C152.079 6.114 151.369 5.828 150.554 5.828C149.757 5.828 149.046 6.10533 148.422 6.66C147.815 7.21467 147.339 8.00333 146.992 9.026C146.663 10.0487 146.498 11.236 146.498 12.588C146.498 13.94 146.663 15.1273 146.992 16.15C147.339 17.1727 147.815 17.9613 148.422 18.516C149.046 19.0707 149.757 19.348 150.554 19.348ZM150.58 22.286C149.141 22.286 147.859 21.8787 146.732 21.064C145.605 20.232 144.721 19.0793 144.08 17.606C143.456 16.1327 143.144 14.46 143.144 12.588C143.144 10.716 143.456 9.04333 144.08 7.57C144.721 6.09667 145.605 4.95267 146.732 4.138C147.859 3.306 149.133 2.89 150.554 2.89C151.993 2.89 153.275 3.306 154.402 4.138C155.529 4.95267 156.404 6.09667 157.028 7.57C157.652 9.04333 157.964 10.716 157.964 12.588C157.964 14.46 157.652 16.1327 157.028 17.606C156.404 19.0793 155.529 20.232 154.402 21.064C153.275 21.8787 152.001 22.286 150.58 22.286ZM170.709 12.276C171.559 12.7613 172.252 13.4287 172.789 14.278C173.327 15.11 173.595 15.9333 173.595 16.748C173.595 17.8053 173.309 18.7587 172.737 19.608C172.165 20.44 171.377 21.09 170.371 21.558C169.366 22.026 168.213 22.26 166.913 22.26C165.631 22.26 164.487 22.0173 163.481 21.532C162.476 21.0293 161.687 20.3447 161.115 19.478C160.561 18.594 160.283 17.5887 160.283 16.462H163.637C163.637 17.0167 163.776 17.5107 164.053 17.944C164.331 18.36 164.721 18.6893 165.223 18.932C165.726 19.1747 166.298 19.296 166.939 19.296C167.598 19.296 168.187 19.1833 168.707 18.958C169.227 18.7153 169.635 18.3773 169.929 17.944C170.224 17.5107 170.371 17.0167 170.371 16.462C170.371 15.9247 170.224 15.448 169.929 15.032C169.652 14.5987 169.253 14.2607 168.733 14.018C168.213 13.7753 167.633 13.654 166.991 13.654H165.665V10.924H167.017C167.624 10.924 168.153 10.82 168.603 10.612C169.071 10.3867 169.435 10.0833 169.695 9.702C169.955 9.32067 170.085 8.88733 170.085 8.402C170.085 7.65667 169.808 7.05867 169.253 6.608C168.699 6.14 167.979 5.906 167.095 5.906C166.541 5.906 166.047 6.01 165.613 6.218C165.197 6.426 164.859 6.72067 164.599 7.102C164.357 7.48333 164.235 7.91667 164.235 8.402H160.881C160.881 7.34467 161.141 6.4 161.661 5.568C162.199 4.736 162.935 4.09467 163.871 3.644C164.825 3.176 165.899 2.942 167.095 2.942C168.291 2.942 169.357 3.16733 170.293 3.618C171.229 4.05133 171.957 4.658 172.477 5.438C173.015 6.218 173.283 7.11067 173.283 8.116C173.283 8.86133 173.041 9.624 172.555 10.404C172.087 11.184 171.472 11.808 170.709 12.276Z" fill="#D9D9D9"/>
<path d="M199 13L191 19L191 7L199 13Z" fill="#D9D9D9"/>
<path d="M223.528 19.218C224.325 19.218 225.019 18.9493 225.608 18.412C226.197 17.8747 226.657 17.1033 226.986 16.098C227.315 15.0927 227.48 13.9227 227.48 12.588C227.48 11.2533 227.315 10.092 226.986 9.104C226.657 8.09867 226.197 7.32733 225.608 6.79C225.019 6.23533 224.325 5.958 223.528 5.958C222.731 5.958 222.029 6.23533 221.422 6.79C220.815 7.32733 220.347 8.09867 220.018 9.104C219.706 10.092 219.55 11.2533 219.55 12.588C219.55 13.9227 219.706 15.0927 220.018 16.098C220.347 17.1033 220.815 17.8747 221.422 18.412C222.029 18.9493 222.731 19.218 223.528 19.218ZM223.528 22.312C222.072 22.312 220.772 21.9047 219.628 21.09C218.501 20.258 217.617 19.1053 216.976 17.632C216.335 16.1587 216.014 14.4773 216.014 12.588C216.014 10.716 216.335 9.04333 216.976 7.57C217.617 6.09667 218.501 4.95267 219.628 4.138C220.772 3.306 222.072 2.89 223.528 2.89C224.967 2.89 226.258 3.306 227.402 4.138C228.546 4.95267 229.43 6.09667 230.054 7.57C230.695 9.04333 231.016 10.716 231.016 12.588C231.016 14.46 230.695 16.1327 230.054 17.606C229.43 19.0793 228.546 20.232 227.402 21.064C226.258 21.896 224.967 22.312 223.528 22.312ZM244.907 14.564H246.961V17.606H244.907V22.156H241.423V17.606H233.337L233.077 14.564L241.579 3.072H244.907V14.564ZM241.423 14.564V8.818L237.185 14.564H241.423Z" fill="#D9D9D9"/>
<path d="M273 13L265 19L265 7L273 13Z" fill="#D9D9D9"/>
<path d="M297.528 19.218C298.325 19.218 299.019 18.9493 299.608 18.412C300.197 17.8747 300.657 17.1033 300.986 16.098C301.315 15.0927 301.48 13.9227 301.48 12.588C301.48 11.2533 301.315 10.092 300.986 9.104C300.657 8.09867 300.197 7.32733 299.608 6.79C299.019 6.23533 298.325 5.958 297.528 5.958C296.731 5.958 296.029 6.23533 295.422 6.79C294.815 7.32733 294.347 8.09867 294.018 9.104C293.706 10.092 293.55 11.2533 293.55 12.588C293.55 13.9227 293.706 15.0927 294.018 16.098C294.347 17.1033 294.815 17.8747 295.422 18.412C296.029 18.9493 296.731 19.218 297.528 19.218ZM297.528 22.312C296.072 22.312 294.772 21.9047 293.628 21.09C292.501 20.258 291.617 19.1053 290.976 17.632C290.335 16.1587 290.014 14.4773 290.014 12.588C290.014 10.716 290.335 9.04333 290.976 7.57C291.617 6.09667 292.501 4.95267 293.628 4.138C294.772 3.306 296.072 2.89 297.528 2.89C298.967 2.89 300.258 3.306 301.402 4.138C302.546 4.95267 303.43 6.09667 304.054 7.57C304.695 9.04333 305.016 10.716 305.016 12.588C305.016 14.46 304.695 16.1327 304.054 17.606C303.43 19.0793 302.546 20.232 301.402 21.064C300.258 21.896 298.967 22.312 297.528 22.312ZM308.637 11.626C309.244 10.9673 310.032 10.43 311.003 10.014C311.974 9.598 312.91 9.39 313.811 9.39C315.163 9.39 316.368 9.66733 317.425 10.222C318.482 10.7593 319.306 11.522 319.895 12.51C320.484 13.498 320.779 14.6247 320.779 15.89C320.779 17.138 320.484 18.256 319.895 19.244C319.306 20.232 318.482 21.0033 317.425 21.558C316.368 22.1127 315.163 22.39 313.811 22.39C312.754 22.39 311.757 22.1733 310.821 21.74C309.885 21.2893 309.088 20.674 308.429 19.894C307.77 19.114 307.32 18.2213 307.077 17.216L310.509 16.384C310.7 17.1813 311.098 17.8313 311.705 18.334C312.329 18.8367 313.031 19.088 313.811 19.088C314.487 19.088 315.076 18.9493 315.579 18.672C316.099 18.3947 316.506 18.0133 316.801 17.528C317.096 17.0427 317.243 16.4967 317.243 15.89C317.243 15.266 317.096 14.7113 316.801 14.226C316.506 13.7407 316.099 13.368 315.579 13.108C315.076 12.8307 314.487 12.692 313.811 12.692C313.43 12.692 312.988 12.822 312.485 13.082C312 13.3247 311.575 13.6367 311.211 14.018L308.637 11.626ZM307.701 13.628L308.377 3.098H319.141V6.166H311.757L311.211 14.018L307.701 13.628Z" fill="#D9D9D9"/>
<path d="M346 13L338 19L338 7L346 13Z" fill="#D9D9D9"/>
<path d="M370.528 19.218C371.325 19.218 372.019 18.9493 372.608 18.412C373.197 17.8747 373.657 17.1033 373.986 16.098C374.315 15.0927 374.48 13.9227 374.48 12.588C374.48 11.2533 374.315 10.092 373.986 9.104C373.657 8.09867 373.197 7.32733 372.608 6.79C372.019 6.23533 371.325 5.958 370.528 5.958C369.731 5.958 369.029 6.23533 368.422 6.79C367.815 7.32733 367.347 8.09867 367.018 9.104C366.706 10.092 366.55 11.2533 366.55 12.588C366.55 13.9227 366.706 15.0927 367.018 16.098C367.347 17.1033 367.815 17.8747 368.422 18.412C369.029 18.9493 369.731 19.218 370.528 19.218ZM370.528 22.312C369.072 22.312 367.772 21.9047 366.628 21.09C365.501 20.258 364.617 19.1053 363.976 17.632C363.335 16.1587 363.014 14.4773 363.014 12.588C363.014 10.716 363.335 9.04333 363.976 7.57C364.617 6.09667 365.501 4.95267 366.628 4.138C367.772 3.306 369.072 2.89 370.528 2.89C371.967 2.89 373.258 3.306 374.402 4.138C375.546 4.95267 376.43 6.09667 377.054 7.57C377.695 9.04333 378.016 10.716 378.016 12.588C378.016 14.46 377.695 16.1327 377.054 17.606C376.43 19.0793 375.546 20.232 374.402 21.064C373.258 21.896 371.967 22.312 370.528 22.312ZM386.915 19.244C387.574 19.244 388.154 19.0967 388.657 18.802C389.16 18.5073 389.55 18.1087 389.827 17.606C390.122 17.1033 390.269 16.5227 390.269 15.864C390.269 15.2227 390.122 14.642 389.827 14.122C389.55 13.602 389.16 13.2033 388.657 12.926C388.154 12.6487 387.574 12.51 386.915 12.51C386.274 12.51 385.702 12.6487 385.199 12.926C384.696 13.2033 384.306 13.602 384.029 14.122C383.752 14.642 383.613 15.2227 383.613 15.864C383.613 16.5227 383.752 17.112 384.029 17.632C384.306 18.1347 384.696 18.5333 385.199 18.828C385.702 19.1053 386.274 19.244 386.915 19.244ZM380.077 15.89C380.077 14.7633 380.441 13.5327 381.169 12.198L386.291 2.994H390.321L386.681 9.468C386.82 9.43333 386.941 9.416 387.045 9.416C388.362 9.43333 389.532 9.71933 390.555 10.274C391.578 10.8287 392.375 11.5913 392.947 12.562C393.519 13.5327 393.805 14.642 393.805 15.89C393.805 17.138 393.51 18.2473 392.921 19.218C392.332 20.1887 391.517 20.9513 390.477 21.506C389.437 22.0433 388.25 22.312 386.915 22.312C385.58 22.312 384.393 22.0433 383.353 21.506C382.33 20.9513 381.524 20.1887 380.935 19.218C380.363 18.2473 380.077 17.138 380.077 15.89Z" fill="#D9D9D9"/>
</svg>
