<svg width="131" height="30" viewBox="0 0 131 30" fill="none" xmlns="http://www.w3.org/2000/svg">
<path d="M9.63696 4.63672C15.3575 4.63672 20 9.27918 20 14.9998C20 20.7203 15.3575 25.3628 9.63696 25.3628C5.25853 25.3628 1.51815 22.6565 0 18.8281H6.88669V21.5344C6.88669 22.1065 7.34873 22.5685 7.92079 22.5685C8.20682 22.5685 8.44884 22.4585 8.64686 22.2825L16.3036 15.7918C16.7437 15.4178 16.7877 14.7577 16.4136 14.3177C16.3696 14.2737 16.3256 14.2297 16.2816 14.1857L8.58086 7.65102C8.14081 7.27698 7.48075 7.34299 7.12871 7.78303C6.95269 7.98105 6.88669 8.22308 6.88669 8.4431V11.1494H0C1.51815 7.34299 5.25853 4.63672 9.63696 4.63672Z" fill="#A87752"/>
<path d="M31.4391 6.648V24.048L29.1591 24.024V9.12L26.2311 10.872L25.1991 9L29.1831 6.648H31.4391ZM44.1668 15.048C45.7268 15.96 46.6628 17.664 46.6628 19.128C46.6628 22.08 44.2628 24.192 40.8308 24.192C37.4468 24.192 35.0468 22.056 35.0468 19.032H37.3268C37.3268 20.88 38.7668 22.176 40.8308 22.176C42.9428 22.176 44.4308 20.88 44.4308 19.032C44.4308 17.256 42.9668 16.008 40.8788 16.008H39.6308V14.064H40.9028C42.8228 14.064 44.1668 12.912 44.1668 11.304C44.1668 9.648 42.8708 8.496 40.9988 8.496C39.1268 8.496 37.8308 9.672 37.8308 11.328H35.5508C35.5508 8.472 37.8068 6.48 40.9988 6.48C44.1668 6.48 46.3988 8.448 46.3988 11.232C46.3988 12.552 45.5828 14.136 44.1668 15.048ZM53.2133 24.072H50.7413L57.6293 8.568L49.4693 8.592V6.576H59.8613L60.1013 8.568L53.2133 24.072ZM63.4504 5.424H71.3704V7.296H68.8984V7.512C68.8984 8.616 69.9544 10.104 71.8024 10.896C73.6504 10.128 74.6584 8.688 74.6584 7.512V7.296H72.2104V5.424H80.1064V7.296H77.0344V7.608C77.0344 9.12 78.3544 10.8 80.8744 11.448L79.8664 13.2C77.8024 12.6 76.4344 11.352 75.7624 9.888C75.0664 11.184 73.7464 12.36 71.7784 12.912C69.8104 12.36 68.4904 11.16 67.7944 9.864C67.1224 11.304 65.7544 12.576 63.6904 13.2L62.7304 11.448C65.2024 10.752 66.5464 8.976 66.5464 7.608V7.296H63.4504V5.424ZM62.2024 15.024H70.6264V13.056H72.9544V15.024H81.4264V16.92H62.2024V15.024ZM64.2904 18.984H79.0024V25.872H76.6504V20.832H64.2904V18.984ZM102.942 4.632H105.294V9.912H108.27V11.856H105.294V17.136H102.942V4.632ZM91.3742 18.048H105.294V22.512H93.7262V24.048H106.086V25.68H91.3982V21.024H102.99V19.632H91.3742V18.048ZM88.5422 15.096C90.1502 15.096 92.0222 15.096 93.9902 15.048V13.872C91.6142 13.632 90.1262 12.648 90.1262 11.112C90.1262 9.384 92.0942 8.328 95.1422 8.328C98.2142 8.328 100.182 9.384 100.182 11.112C100.182 12.648 98.7182 13.632 96.3422 13.872V14.952C98.2142 14.88 100.062 14.736 101.814 14.496L101.982 15.936C97.4942 16.728 92.5022 16.776 88.8062 16.776L88.5422 15.096ZM89.0702 6.12H93.9902V4.416H96.3422V6.12H101.214V7.752H89.0702V6.12ZM95.1422 9.84C93.4142 9.84 92.3582 10.296 92.3582 11.112C92.3582 11.928 93.4142 12.408 95.1422 12.408C96.8942 12.408 97.9502 11.928 97.9502 11.112C97.9502 10.296 96.8942 9.84 95.1422 9.84ZM109.687 14.976H114.247V12.144C112.639 11.472 111.727 10.392 111.727 9C111.727 6.48 114.655 4.992 119.287 4.992C123.919 4.992 126.847 6.48 126.847 9C126.847 10.416 125.911 11.496 124.279 12.168V14.976H128.863V16.848H109.687V14.976ZM119.263 18.264C123.823 18.264 126.559 19.632 126.559 22.056C126.559 24.504 123.823 25.872 119.263 25.872C114.703 25.872 111.943 24.504 111.943 22.056C111.943 19.632 114.703 18.264 119.263 18.264ZM119.263 20.064C116.095 20.064 114.319 20.76 114.319 22.056C114.319 23.352 116.095 24.048 119.263 24.048C122.407 24.048 124.183 23.352 124.183 22.056C124.183 20.76 122.407 20.064 119.263 20.064ZM119.287 6.816C116.071 6.816 114.151 7.608 114.151 9C114.151 10.392 116.071 11.184 119.287 11.184C122.479 11.184 124.399 10.392 124.399 9C124.399 7.608 122.479 6.816 119.287 6.816ZM116.599 14.976H121.951V12.792C121.135 12.912 120.247 12.984 119.287 12.984C118.303 12.984 117.415 12.912 116.599 12.792V14.976Z" fill="#A87752"/>
</svg>
