<svg width="428" height="51" viewBox="0 0 428 51" fill="none" xmlns="http://www.w3.org/2000/svg">
<path d="M53.9977 19.4798C53.8795 25.8846 50.6607 30.1347 44.5121 31.8755C43.7106 32.1054 43.3888 32.4799 43.1129 33.2024C41.8779 36.4607 39.4933 38.3066 35.9986 38.5168C32.3265 38.7401 29.5413 37.2227 27.9713 33.8462C27.5443 32.9266 26.9859 32.5258 26.04 32.4602C24.47 32.3419 23.0642 31.7835 21.9672 30.6471C21.3957 30.0559 21.0147 30.0493 20.3775 30.6077C18.3279 32.4076 15.904 32.9528 13.2304 32.493C9.30209 31.823 6.79272 29.0377 6.56281 25.0437C6.44456 22.9285 6.34603 20.8133 6.31318 18.698C6.30005 17.8769 6.05042 17.5091 5.23586 17.2003C1.52437 15.7748 -0.170443 13.0093 0.0134894 8.9299C0.171146 5.44175 2.3652 2.41343 5.91904 1.59887C11.3188 0.363896 16.7973 -0.509785 22.3613 0.626657C22.9919 0.758037 23.524 0.574104 24.1021 0.409879C28.7595 -0.897357 32.8849 0.968246 34.849 5.34979C35.23 6.19719 35.7096 6.27602 36.4716 6.25631C39.3094 6.19062 42.1144 6.48623 44.8471 7.28108C50.5424 8.93647 54.1028 13.7056 53.9977 19.4732V19.4798ZM32.9637 27.4086C32.9637 28.3348 32.9309 29.2545 32.9703 30.1807C33.0425 31.9609 33.8046 32.782 35.3877 32.8346C36.7015 32.8806 37.7131 31.9149 37.8576 30.3318C37.9562 29.2545 37.9233 28.1574 37.9102 27.0735C37.9036 26.3707 38.081 26.0816 38.8561 26.3115C39.9663 26.6466 41.129 26.5612 42.2589 26.4626C45.0113 26.2261 47.1857 24.3934 47.8951 21.7723C48.7294 18.698 47.8426 15.8011 45.6091 14.1457C43.6844 12.7137 41.4049 12.4312 39.1452 12.1816C35.0987 11.748 34.6125 12.1487 33.8834 16.1952C33.798 16.6748 33.7126 17.1543 33.6732 17.6404C33.5878 18.6718 33.5089 19.6243 32.5367 20.3534C31.755 20.9381 31.6959 22.1074 32.1951 22.7446C33.3579 24.216 32.9506 25.8189 32.9637 27.402V27.4086ZM17.0207 20.7739C17.0207 20.7739 16.9747 20.7739 16.9484 20.7739C16.9484 19.5783 16.9879 18.3827 16.9353 17.1937C16.8827 15.9456 16.7579 14.7041 16.6594 13.4625C16.5324 11.8115 17.2922 10.9466 18.9389 10.8678C20.903 10.7692 21.8949 9.9284 21.8818 8.35183C21.8752 6.7884 20.9161 5.95414 18.8535 5.99355C16.5214 6.03953 14.1894 6.23003 11.8706 6.43367C10.3597 6.56505 8.83569 6.66359 7.38394 7.17597C6.02415 7.65551 5.30812 9.05472 5.67599 10.4211C5.9913 11.5969 7.23942 12.2013 8.69774 11.8728C9.06561 11.7874 9.4269 11.6692 9.7882 11.5575C10.9115 11.2028 11.3976 11.4393 11.5224 12.7728C11.8969 16.6616 12.0874 20.5571 12.1596 24.4656C12.1925 26.2327 12.9348 26.883 14.5376 26.8765C16.1799 26.8633 16.909 26.2196 17.0076 24.5313C17.0798 23.2898 17.0207 22.0351 17.0207 20.787V20.7739ZM29.7909 21.4308C29.8303 19.3155 29.6792 17.22 29.2128 15.1508C28.8778 13.6662 27.9647 12.9239 26.4078 13.075C24.7853 13.2326 24.2992 14.461 24.3517 15.7288C24.47 18.8032 24.7919 21.8709 25.0546 24.9386C25.1794 26.4364 26.0991 26.9225 27.5114 26.8765C28.9895 26.8305 29.7055 26.0751 29.7777 24.6824C29.8369 23.6051 29.7909 22.5212 29.7909 21.4373V21.4308ZM29.4559 8.12848C29.9026 6.75556 28.996 5.90815 27.7545 5.73079C25.5013 5.40891 23.9444 6.70957 23.9116 8.6343C23.8788 10.3225 24.9035 11.4327 26.5458 11.4918C28.4574 11.5575 29.3902 10.5327 29.4559 8.13505V8.12848Z" fill="#6A83B4"/>
<path d="M32.9637 27.4043C32.944 25.8212 33.3578 24.2183 32.1951 22.7469C31.6893 22.1097 31.7484 20.947 32.5367 20.3558C33.5089 19.6266 33.5877 18.6675 33.6731 17.6427C33.7125 17.1566 33.7979 16.6771 33.8833 16.1976C34.6125 12.1576 35.0986 11.7503 39.1451 12.1839C41.4114 12.4269 43.6843 12.716 45.609 14.148C47.8425 15.81 48.7293 18.7004 47.8951 21.7747C47.1856 24.3957 45.0113 26.2285 42.2588 26.4649C41.1224 26.5635 39.9663 26.6489 38.8561 26.3139C38.0809 26.0774 37.897 26.373 37.9102 27.0759C37.9233 28.1598 37.9561 29.2568 37.8576 30.3341C37.7131 31.9172 36.6949 32.8829 35.3876 32.8369C33.8045 32.7778 33.0491 31.9632 32.9702 30.183C32.9308 29.2634 32.9637 28.3371 32.9637 27.4109V27.4043ZM40.5706 21.6367C42.3508 21.6761 43.2836 20.9732 43.3493 19.6529C43.4216 18.2537 41.8844 17.0187 39.802 17.0515C37.5029 17.0909 38.5999 19.0879 38.3766 20.1324C37.9693 22.0571 39.8283 21.2623 40.5706 21.6433V21.6367Z" fill="#FCFCFC"/>
<path d="M17.0207 20.7713C17.0207 22.0194 17.0798 23.2741 17.0075 24.5157C16.909 26.2039 16.1798 26.8477 14.5376 26.8608C12.9282 26.874 12.1924 26.2171 12.1596 24.45C12.0939 20.5414 11.8968 16.6526 11.5224 12.7571C11.3976 11.4236 10.9049 11.1806 9.78818 11.5419C9.42689 11.6601 9.06559 11.7718 8.69773 11.8572C7.2394 12.1922 5.99129 11.5878 5.67597 10.4054C5.30811 9.04562 6.0307 7.63985 7.38392 7.16031C8.82911 6.64793 10.3597 6.54939 11.8706 6.41801C14.196 6.21437 16.528 6.02387 18.8534 5.97789C20.9227 5.93847 21.8752 6.77931 21.8818 8.33617C21.8883 9.91273 20.903 10.7536 18.9388 10.8521C17.2966 10.9353 16.5368 11.8002 16.6594 13.4469C16.7514 14.6884 16.8827 15.93 16.9353 17.1781C16.9813 18.3671 16.9484 19.5626 16.9484 20.7582C16.9747 20.7582 16.9944 20.7582 17.0207 20.7582V20.7713Z" fill="#FCFCFC"/>
<path d="M29.4421 21.3816C29.4421 22.4655 29.4881 23.5494 29.4289 24.6267C29.3567 26.0259 28.6341 26.7748 27.1626 26.8208C25.7503 26.8668 24.8306 26.3807 24.7058 24.8829C24.4431 21.8152 24.1212 18.7474 24.0029 15.6731C23.957 14.4119 24.4431 13.1769 26.059 13.0193C27.6159 12.8682 28.5224 13.6105 28.864 15.0951C29.3304 17.1643 29.4815 19.2598 29.4421 21.3751V21.3816Z" fill="#FCFCFC"/>
<path d="M29.4559 8.13268C29.3902 10.5304 28.4574 11.5617 26.5458 11.4894C24.897 11.4303 23.8788 10.3202 23.9117 8.63193C23.9511 6.71377 25.5079 5.40653 27.7545 5.72842C28.9961 5.90578 29.9026 6.75975 29.4559 8.12611V8.13268Z" fill="#FCFCFC"/>
<path d="M40.5706 21.6405C39.7692 21.5223 37.3912 22.0938 37.7985 20.169C38.0218 19.1246 37.4963 17.0947 39.7955 17.0553C41.8779 17.0225 43.415 18.2575 43.3427 19.6567C43.2771 20.977 42.3443 21.6799 40.564 21.6405H40.5706Z" fill="#6A83B4"/>
<path d="M70.58 20.16H69.3V18.54C68.82 19.1 68.3733 19.4933 67.96 19.72C67.4667 19.9867 66.8867 20.12 66.22 20.12C64.34 20.12 63.06 19.3467 62.38 17.8C61.98 16.8933 61.78 15.92 61.78 14.88C61.78 13.4267 62.1133 12.22 62.78 11.26C63.54 10.1533 64.6133 9.6 66 9.6C66.8 9.6 67.52 9.80667 68.16 10.22C68.6133 10.5133 68.9067 10.8067 69.04 11.1L69.08 9.88H70.58V20.16ZM68.9 15.02C68.9 13.98 68.7067 13.1267 68.32 12.46C67.8533 11.6467 67.1333 11.24 66.16 11.24C64.2933 11.24 63.36 12.44 63.36 14.84C63.36 17.36 64.3467 18.62 66.32 18.62C67.1333 18.62 67.7667 18.2467 68.22 17.5C68.54 16.98 68.74 16.5467 68.82 16.2C68.8733 15.9733 68.9 15.58 68.9 15.02ZM75.8533 19.84C75.8533 21.68 75.1599 22.72 73.7733 22.96V22.04C74.1333 21.9733 74.4133 21.74 74.6133 21.34C74.7866 21.0067 74.8733 20.64 74.8733 20.24L74.8333 20H73.7733V17.88H75.8533V19.84ZM92.8825 14.54C92.8825 16.3 92.4892 17.6867 91.7025 18.7C90.8358 19.82 89.5492 20.38 87.8425 20.38C86.2958 20.38 85.1092 19.8533 84.2825 18.8C83.5225 17.8533 83.1425 16.5867 83.1425 15C83.1425 13.32 83.5358 11.9667 84.3225 10.94C85.1892 9.80667 86.4358 9.24 88.0625 9.24C89.6358 9.24 90.8425 9.74 91.6825 10.74C92.4825 11.6733 92.8825 12.94 92.8825 14.54ZM91.0425 14.6C91.0425 12.0533 90.0358 10.78 88.0225 10.78C86.9292 10.78 86.1158 11.2267 85.5825 12.12C85.1558 12.84 84.9425 13.7867 84.9425 14.96C84.9425 16.0933 85.1625 16.9933 85.6025 17.66C86.1225 18.46 86.9225 18.86 88.0025 18.86C90.0292 18.86 91.0425 17.44 91.0425 14.6ZM97.4158 19.84C97.4158 21.68 96.7224 22.72 95.3358 22.96V22.04C95.6958 21.9733 95.9758 21.74 96.1758 21.34C96.3491 21.0067 96.4358 20.64 96.4358 20.24L96.3958 20H95.3358V17.88H97.4158V19.84ZM114.385 15.34H106.705C106.705 17.6733 107.685 18.84 109.645 18.84C111.152 18.84 112.105 18.1333 112.505 16.72H114.225C114.105 17.8533 113.565 18.76 112.605 19.44C111.725 20.0667 110.692 20.38 109.505 20.38C107.998 20.38 106.825 19.84 105.985 18.76C105.212 17.7733 104.825 16.5067 104.825 14.96C104.825 13.3467 105.238 12.0267 106.065 11C106.958 9.86667 108.192 9.3 109.765 9.3C110.418 9.3 111.092 9.45333 111.785 9.76C112.545 10.0933 113.085 10.5067 113.405 11C114.058 12.0267 114.385 13.4733 114.385 15.34ZM112.565 13.94C112.565 13.2467 112.325 12.4867 111.845 11.66C111.525 11.1133 110.798 10.84 109.665 10.84C108.385 10.84 107.492 11.4667 106.985 12.72C106.838 13.08 106.765 13.4867 106.765 13.94H112.565ZM131.998 17.84V19.44H115.958V17.84H131.998ZM124.918 14.22V18.5H122.978V14.22H124.918ZM130.078 5.1V10.66H119.838V13.98H117.898V9.1H128.138V6.66H117.858V5.1H130.078ZM130.478 13.2V14.78H117.898V13.2H130.478ZM144.168 5.34V8.26C144.168 9.68667 143.961 11.0467 143.548 12.34C143.135 13.62 142.541 14.7533 141.768 15.74C140.995 16.7133 140.095 17.4533 139.068 17.96L137.888 16.34C138.795 15.9133 139.601 15.2867 140.308 14.46C141.015 13.62 141.561 12.66 141.948 11.58C142.348 10.5 142.548 9.39333 142.548 8.26V5.34H144.168ZM144.528 5.34V8.26C144.528 9.35333 144.715 10.42 145.088 11.46C145.475 12.4867 146.015 13.4 146.708 14.2C147.415 15 148.221 15.6067 149.128 16.02L147.968 17.6C146.955 17.12 146.061 16.4067 145.288 15.46C144.528 14.5133 143.941 13.42 143.528 12.18C143.115 10.94 142.908 9.63333 142.908 8.26V5.34H144.528ZM152.568 3.84V21.58H150.608V3.84H152.568ZM161.349 5.68V7C161.349 8.09333 161.149 9.12 160.749 10.08C160.362 11.0267 159.795 11.86 159.049 12.58C158.315 13.2867 157.442 13.8133 156.429 14.16L155.369 12.62C156.275 12.3133 157.055 11.8733 157.709 11.3C158.375 10.7267 158.882 10.0667 159.229 9.32C159.575 8.57333 159.749 7.8 159.749 7V5.68H161.349ZM161.709 5.68V6.98C161.709 7.74 161.869 8.47333 162.189 9.18C162.522 9.87333 163.009 10.4933 163.649 11.04C164.289 11.5867 165.049 12.0067 165.929 12.3L164.909 13.84C163.922 13.4933 163.062 12.98 162.329 12.3C161.609 11.62 161.055 10.8267 160.669 9.92C160.295 9 160.109 8.02 160.109 6.98V5.68H161.709ZM165.449 5.02V6.62H155.949V5.02H165.449ZM169.329 3.86V14.5H167.369V3.86H169.329ZM171.849 8.38V10.02H168.789V8.38H171.849ZM169.329 15.4V21.56H167.369V16.98H157.729V15.4H169.329ZM186.729 3.86V21.56H184.769V3.86H186.729ZM189.489 11V12.64H186.269V11H189.489ZM183.329 6.6V8.2H172.909V6.6H183.329ZM178.169 9.5C179.009 9.5 179.762 9.67333 180.429 10.02C181.096 10.3667 181.616 10.8533 181.989 11.48C182.362 12.1067 182.549 12.8133 182.549 13.6C182.549 14.4133 182.356 15.1333 181.969 15.76C181.596 16.3733 181.076 16.86 180.409 17.22C179.756 17.5667 179.016 17.74 178.189 17.74C177.349 17.74 176.596 17.5667 175.929 17.22C175.262 16.86 174.736 16.3667 174.349 15.74C173.976 15.1133 173.789 14.4067 173.789 13.62C173.789 12.82 173.976 12.1067 174.349 11.48C174.736 10.8533 175.262 10.3667 175.929 10.02C176.596 9.67333 177.342 9.5 178.169 9.5ZM178.169 11.1C177.689 11.1 177.256 11.2067 176.869 11.42C176.496 11.6333 176.202 11.9267 175.989 12.3C175.789 12.6733 175.689 13.1133 175.689 13.62C175.689 14.1133 175.789 14.5533 175.989 14.94C176.202 15.3133 176.496 15.6067 176.869 15.82C177.256 16.02 177.689 16.12 178.169 16.12C178.649 16.12 179.076 16.02 179.449 15.82C179.836 15.6067 180.136 15.3133 180.349 14.94C180.562 14.5533 180.669 14.1133 180.669 13.62C180.669 13.1267 180.562 12.6933 180.349 12.32C180.136 11.9333 179.836 11.6333 179.449 11.42C179.076 11.2067 178.649 11.1 178.169 11.1ZM179.149 4.1V7.28H177.169V4.1H179.149ZM204.69 8.98V10.56H192.59V8.98H204.69ZM206.53 12.72V14.32H190.49V12.72H206.53ZM194.53 4.5V9.76H192.59V4.5H194.53ZM204.79 19.56V21.16H192.45V19.56H204.79ZM194.41 15.94V19.98H192.45V15.94H194.41ZM220.579 4.24C221.859 4.24 222.973 4.37333 223.919 4.64C224.866 4.90667 225.593 5.29333 226.099 5.8C226.619 6.30667 226.879 6.91333 226.879 7.62C226.879 8.31333 226.619 8.91333 226.099 9.42C225.593 9.92667 224.866 10.32 223.919 10.6C222.973 10.8667 221.859 11 220.579 11C219.299 11 218.179 10.8667 217.219 10.6C216.273 10.32 215.546 9.92667 215.039 9.42C214.533 8.91333 214.279 8.31333 214.279 7.62C214.279 6.91333 214.533 6.30667 215.039 5.8C215.546 5.29333 216.273 4.90667 217.219 4.64C218.179 4.37333 219.299 4.24 220.579 4.24ZM220.579 5.78C219.686 5.78 218.919 5.85333 218.279 6C217.639 6.13333 217.146 6.34 216.799 6.62C216.466 6.88667 216.299 7.22 216.299 7.62C216.299 8.00667 216.466 8.34 216.799 8.62C217.146 8.88667 217.639 9.09333 218.279 9.24C218.919 9.38667 219.686 9.46 220.579 9.46C221.459 9.46 222.219 9.38667 222.859 9.24C223.499 9.09333 223.986 8.88667 224.319 8.62C224.666 8.34 224.839 8.00667 224.839 7.62C224.839 7.22 224.666 6.88667 224.319 6.62C223.986 6.34 223.499 6.13333 222.859 6C222.219 5.85333 221.459 5.78 220.579 5.78ZM226.619 15.44V21.34H214.499V15.44H226.619ZM216.419 17V19.78H224.699V17H216.419ZM228.559 12.32V13.9H212.579V12.32H228.559ZM244.02 7.68V9.26H239.54V7.68H244.02ZM235.94 5.36V6.46C235.94 7.44667 235.74 8.4 235.34 9.32C234.94 10.2267 234.367 11.02 233.62 11.7C232.873 12.38 231.993 12.88 230.98 13.2L230.02 11.68C230.9 11.3867 231.667 10.9667 232.32 10.42C232.973 9.87333 233.473 9.26 233.82 8.58C234.18 7.88667 234.36 7.18 234.36 6.46V5.36H235.94ZM236.34 5.36V6.48C236.34 7.14667 236.5 7.8 236.82 8.44C237.153 9.08 237.633 9.65333 238.26 10.16C238.9 10.6533 239.647 11.0267 240.5 11.28L239.56 12.82C238.573 12.5133 237.713 12.0467 236.98 11.42C236.247 10.78 235.687 10.0333 235.3 9.18C234.927 8.32667 234.74 7.42667 234.74 6.48V5.36H236.34ZM240.06 4.66V6.26H230.6V4.66H240.06ZM244.68 3.86V12.94H242.74V3.86H244.68ZM244.68 13.78V18.2H235.16V20.76H233.22V16.76H242.74V15.3H233.18V13.78H244.68ZM245.3 19.82V21.36H233.22V19.82H245.3ZM262.08 3.84V21.58H260.1V3.84H262.08ZM252.68 5.16C253.56 5.16 254.34 5.41333 255.02 5.92C255.714 6.42667 256.254 7.15333 256.64 8.1C257.027 9.04667 257.22 10.14 257.22 11.38C257.22 12.6333 257.027 13.7333 256.64 14.68C256.254 15.6267 255.714 16.36 255.02 16.88C254.34 17.3867 253.56 17.64 252.68 17.64C251.787 17.64 250.994 17.3867 250.3 16.88C249.62 16.36 249.087 15.6267 248.7 14.68C248.314 13.7333 248.12 12.6333 248.12 11.38C248.12 10.14 248.314 9.04667 248.7 8.1C249.087 7.15333 249.62 6.42667 250.3 5.92C250.994 5.41333 251.787 5.16 252.68 5.16ZM252.68 6.94C252.147 6.94 251.68 7.12 251.28 7.48C250.88 7.84 250.567 8.35333 250.34 9.02C250.127 9.68667 250.02 10.4733 250.02 11.38C250.02 12.3 250.127 13.1 250.34 13.78C250.567 14.4467 250.88 14.96 251.28 15.32C251.68 15.68 252.147 15.86 252.68 15.86C253.2 15.86 253.66 15.68 254.06 15.32C254.46 14.96 254.774 14.44 255 13.76C255.227 13.08 255.34 12.2867 255.34 11.38C255.34 10.4733 255.227 9.68667 255 9.02C254.774 8.35333 254.46 7.84 254.06 7.48C253.66 7.12 253.2 6.94 252.68 6.94ZM283.35 3.84V21.58H281.37V3.84H283.35ZM286.11 10.66V12.3H282.89V10.66H286.11ZM271.79 15.58C273.523 15.58 274.997 15.54 276.21 15.46C277.423 15.38 278.65 15.2267 279.89 15L280.09 16.64C278.837 16.88 277.583 17.04 276.33 17.12C275.09 17.2 273.577 17.24 271.79 17.24H270.37V15.58H271.79ZM278.61 5.56V7.14H272.33V16.36H270.37V5.56H278.61ZM303.151 13.58V15.16H287.111V13.58H303.151ZM301.531 19.62V21.2H289.191V19.62H301.531ZM291.151 16.4V20.26H289.191V16.4H291.151ZM301.111 4.38V8.98H291.071V11.14H289.151V7.54H299.171V5.88H289.111V4.38H301.111ZM301.491 10.66V12.16H289.151V10.66H301.491ZM317.2 4.24C318.48 4.24 319.594 4.37333 320.54 4.64C321.487 4.90667 322.214 5.29333 322.72 5.8C323.24 6.30667 323.5 6.91333 323.5 7.62C323.5 8.31333 323.24 8.91333 322.72 9.42C322.214 9.92667 321.487 10.32 320.54 10.6C319.594 10.8667 318.48 11 317.2 11C315.92 11 314.8 10.8667 313.84 10.6C312.894 10.32 312.167 9.92667 311.66 9.42C311.154 8.91333 310.9 8.31333 310.9 7.62C310.9 6.91333 311.154 6.30667 311.66 5.8C312.167 5.29333 312.894 4.90667 313.84 4.64C314.8 4.37333 315.92 4.24 317.2 4.24ZM317.2 5.78C316.307 5.78 315.54 5.85333 314.9 6C314.26 6.13333 313.767 6.34 313.42 6.62C313.087 6.88667 312.92 7.22 312.92 7.62C312.92 8.00667 313.087 8.34 313.42 8.62C313.767 8.88667 314.26 9.09333 314.9 9.24C315.54 9.38667 316.307 9.46 317.2 9.46C318.08 9.46 318.84 9.38667 319.48 9.24C320.12 9.09333 320.607 8.88667 320.94 8.62C321.287 8.34 321.46 8.00667 321.46 7.62C321.46 7.22 321.287 6.88667 320.94 6.62C320.607 6.34 320.12 6.13333 319.48 6C318.84 5.85333 318.08 5.78 317.2 5.78ZM323.24 15.44V21.34H311.12V15.44H323.24ZM313.04 17V19.78H321.32V17H313.04ZM325.18 12.32V13.9H309.2V12.32H325.18ZM340.641 7.68V9.26H336.161V7.68H340.641ZM332.561 5.36V6.46C332.561 7.44667 332.361 8.4 331.961 9.32C331.561 10.2267 330.988 11.02 330.241 11.7C329.494 12.38 328.614 12.88 327.601 13.2L326.641 11.68C327.521 11.3867 328.288 10.9667 328.941 10.42C329.594 9.87333 330.094 9.26 330.441 8.58C330.801 7.88667 330.981 7.18 330.981 6.46V5.36H332.561ZM332.961 5.36V6.48C332.961 7.14667 333.121 7.8 333.441 8.44C333.774 9.08 334.254 9.65333 334.881 10.16C335.521 10.6533 336.268 11.0267 337.121 11.28L336.181 12.82C335.194 12.5133 334.334 12.0467 333.601 11.42C332.868 10.78 332.308 10.0333 331.921 9.18C331.548 8.32667 331.361 7.42667 331.361 6.48V5.36H332.961ZM336.681 4.66V6.26H327.221V4.66H336.681ZM341.301 3.86V12.94H339.361V3.86H341.301ZM341.301 13.78V18.2H331.781V20.76H329.841V16.76H339.361V15.3H329.801V13.78H341.301ZM341.921 19.82V21.36H329.841V19.82H341.921ZM355.551 13.84V21.02H353.571V13.84H355.551ZM363.371 3.86V21.58H361.411V3.86H363.371ZM348.691 13.42C351.264 13.4067 353.417 13.3733 355.151 13.32C356.884 13.2667 358.591 13.1467 360.271 12.96L360.371 14.4C358.611 14.68 356.804 14.86 354.951 14.94C353.111 15.02 351.104 15.0533 348.931 15.04L348.691 13.42ZM359.051 9.76V11.36H350.311V9.76H359.051ZM358.831 4.82V6.42H352.271V10.72H350.311V4.82H358.831ZM376.571 10.6V12.2H373.371V10.6H376.571ZM381.331 3.86V21.56H379.471V3.86H381.331ZM377.751 4.22V20.7H375.911V4.22H377.751ZM370.211 5.24C370.985 5.24 371.658 5.49333 372.231 6C372.805 6.50667 373.245 7.23333 373.551 8.18C373.871 9.12667 374.031 10.2333 374.031 11.5C374.031 12.78 373.871 13.8933 373.551 14.84C373.245 15.7867 372.805 16.5133 372.231 17.02C371.658 17.5267 370.985 17.78 370.211 17.78C369.451 17.78 368.785 17.5267 368.211 17.02C367.651 16.5133 367.211 15.7867 366.891 14.84C366.585 13.8933 366.431 12.78 366.431 11.5C366.431 10.2333 366.585 9.12667 366.891 8.18C367.211 7.23333 367.651 6.50667 368.211 6C368.785 5.49333 369.451 5.24 370.211 5.24ZM370.211 7.1C369.798 7.1 369.445 7.27333 369.151 7.62C368.858 7.95333 368.631 8.45333 368.471 9.12C368.311 9.77333 368.231 10.5667 368.231 11.5C368.231 12.4333 368.311 13.2333 368.471 13.9C368.631 14.5667 368.858 15.0733 369.151 15.42C369.445 15.7667 369.798 15.94 370.211 15.94C370.625 15.94 370.978 15.7667 371.271 15.42C371.578 15.0733 371.811 14.5667 371.971 13.9C372.145 13.2333 372.231 12.4333 372.231 11.5C372.231 10.5667 372.145 9.77333 371.971 9.12C371.811 8.45333 371.578 7.95333 371.271 7.62C370.978 7.27333 370.625 7.1 370.211 7.1ZM397.301 9.62V12H395.321V9.62H397.301ZM396.341 4.06C398.328 4.06 399.874 4.32667 400.981 4.86C402.088 5.38 402.641 6.12667 402.641 7.1C402.641 8.07333 402.088 8.82667 400.981 9.36C399.874 9.89333 398.328 10.16 396.341 10.16C394.354 10.16 392.808 9.89333 391.701 9.36C390.594 8.82667 390.041 8.07333 390.041 7.1C390.041 6.12667 390.594 5.38 391.701 4.86C392.808 4.32667 394.354 4.06 396.341 4.06ZM396.341 5.52C394.954 5.52 393.894 5.66 393.161 5.94C392.428 6.20667 392.061 6.59333 392.061 7.1C392.061 7.62 392.421 8.01333 393.141 8.28C393.874 8.54667 394.934 8.68 396.321 8.68C397.708 8.68 398.768 8.54667 399.501 8.28C400.234 8.01333 400.601 7.62 400.601 7.1C400.601 6.59333 400.234 6.20667 399.501 5.94C398.768 5.66 397.714 5.52 396.341 5.52ZM404.321 11.34V12.92H388.341V11.34H404.321ZM402.321 14.18V18.4H392.201V20.32H390.281V17H400.381V15.68H390.221V14.18H402.321ZM402.821 19.9V21.4H390.281V19.9H402.821ZM422.131 4.2V20.7H420.291V4.2H422.131ZM424.591 10.94V12.52H421.371V10.94H424.591ZM411.591 15.46C412.111 15.46 412.618 15.44 413.111 15.4C413.604 15.36 414.138 15.2733 414.711 15.14L414.851 16.76C414.238 16.8933 413.678 16.98 413.171 17.02C412.678 17.06 412.151 17.08 411.591 17.08H410.851V15.46H411.591ZM414.611 6.04V7.62H412.671V16.34H410.851V6.04H414.611ZM416.111 15.46C416.711 15.46 417.278 15.44 417.811 15.4C418.358 15.3467 418.931 15.2467 419.531 15.1L419.711 16.72C419.071 16.8667 418.478 16.9667 417.931 17.02C417.384 17.06 416.778 17.08 416.111 17.08H415.351V15.46H416.111ZM419.231 6.04V7.62H417.131V16.32H415.351V6.04H419.231ZM425.751 3.86V21.56H423.891V3.86H425.751ZM69.72 30.24C71 30.24 72.1133 30.3733 73.06 30.64C74.0067 30.9067 74.7333 31.2933 75.24 31.8C75.76 32.3067 76.02 32.9133 76.02 33.62C76.02 34.3133 75.76 34.9133 75.24 35.42C74.7333 35.9267 74.0067 36.32 73.06 36.6C72.1133 36.8667 71 37 69.72 37C68.44 37 67.32 36.8667 66.36 36.6C65.4133 36.32 64.6867 35.9267 64.18 35.42C63.6733 34.9133 63.42 34.3133 63.42 33.62C63.42 32.9133 63.6733 32.3067 64.18 31.8C64.6867 31.2933 65.4133 30.9067 66.36 30.64C67.32 30.3733 68.44 30.24 69.72 30.24ZM69.72 31.78C68.8267 31.78 68.06 31.8533 67.42 32C66.78 32.1333 66.2867 32.34 65.94 32.62C65.6067 32.8867 65.44 33.22 65.44 33.62C65.44 34.0067 65.6067 34.34 65.94 34.62C66.2867 34.8867 66.78 35.0933 67.42 35.24C68.06 35.3867 68.8267 35.46 69.72 35.46C70.6 35.46 71.36 35.3867 72 35.24C72.64 35.0933 73.1267 34.8867 73.46 34.62C73.8067 34.34 73.98 34.0067 73.98 33.62C73.98 33.22 73.8067 32.8867 73.46 32.62C73.1267 32.34 72.64 32.1333 72 32C71.36 31.8533 70.6 31.78 69.72 31.78ZM75.76 41.44V47.34H63.64V41.44H75.76ZM65.56 43V45.78H73.84V43H65.56ZM77.7 38.32V39.9H61.72V38.32H77.7ZM93.1605 33.68V35.26H88.6805V33.68H93.1605ZM85.0805 31.36V32.46C85.0805 33.4467 84.8805 34.4 84.4805 35.32C84.0805 36.2267 83.5071 37.02 82.7605 37.7C82.0138 38.38 81.1338 38.88 80.1205 39.2L79.1605 37.68C80.0405 37.3867 80.8071 36.9667 81.4605 36.42C82.1138 35.8733 82.6138 35.26 82.9605 34.58C83.3205 33.8867 83.5005 33.18 83.5005 32.46V31.36H85.0805ZM85.4805 31.36V32.48C85.4805 33.1467 85.6405 33.8 85.9605 34.44C86.2938 35.08 86.7738 35.6533 87.4005 36.16C88.0405 36.6533 88.7871 37.0267 89.6405 37.28L88.7005 38.82C87.7138 38.5133 86.8538 38.0467 86.1205 37.42C85.3871 36.78 84.8271 36.0333 84.4405 35.18C84.0671 34.3267 83.8805 33.4267 83.8805 32.48V31.36H85.4805ZM89.2005 30.66V32.26H79.7405V30.66H89.2005ZM93.8205 29.86V38.94H91.8805V29.86H93.8205ZM93.8205 39.78V44.2H84.3005V46.76H82.3605V42.76H91.8805V41.3H82.3205V39.78H93.8205ZM94.4405 45.82V47.36H82.3605V45.82H94.4405ZM104.681 30.16C106.668 30.16 108.214 30.42 109.321 30.94C110.428 31.46 110.981 32.2133 110.981 33.2C110.981 34.1733 110.428 34.9267 109.321 35.46C108.214 35.98 106.668 36.24 104.681 36.24C102.694 36.24 101.148 35.98 100.041 35.46C98.9343 34.9267 98.3809 34.1733 98.3809 33.2C98.3809 32.2133 98.9343 31.46 100.041 30.94C101.148 30.42 102.694 30.16 104.681 30.16ZM104.661 31.6C103.288 31.6 102.234 31.74 101.501 32.02C100.768 32.2867 100.401 32.68 100.401 33.2C100.401 33.72 100.761 34.1133 101.481 34.38C102.214 34.6467 103.274 34.78 104.661 34.78C106.048 34.78 107.108 34.6467 107.841 34.38C108.574 34.1133 108.941 33.72 108.941 33.2C108.941 32.68 108.568 32.2867 107.821 32.02C107.088 31.74 106.034 31.6 104.661 31.6ZM112.661 37.3V38.88H96.6809V37.3H112.661ZM110.661 40.18V44.38H100.541V46.3H98.6209V42.98H108.721V41.66H98.5609V40.18H110.661ZM111.161 45.9V47.4H98.6209V45.9H111.161ZM131.791 30.98V32.56H120.731V30.98H131.791ZM134.771 38.54V40.16H118.771V38.54H134.771ZM127.711 39.64V47.6H125.731V39.64H127.711ZM132.751 30.98V32.52C132.751 33.8 132.711 34.9533 132.631 35.98C132.564 36.9933 132.384 38.18 132.091 39.54L130.131 39.28C130.437 38.0133 130.631 36.88 130.711 35.88C130.791 34.88 130.831 33.76 130.831 32.52V30.98H132.751ZM152.271 39.1V40.68H136.231V39.1H152.271ZM145.391 39.92V43.86H143.411V39.92H145.391ZM150.491 45.6V47.22H138.211V45.6H150.491ZM140.151 42.38V46.24H138.211V42.38H140.151ZM140.291 30.4V32.5H148.211V30.4H150.171V37.58H138.351V30.4H140.291ZM140.291 36.02H148.211V34H140.291V36.02ZM167.452 29.86V47.56H165.492V29.86H167.452ZM170.212 37V38.64H166.992V37H170.212ZM164.052 32.6V34.2H153.632V32.6H164.052ZM158.892 35.5C159.732 35.5 160.485 35.6733 161.152 36.02C161.818 36.3667 162.338 36.8533 162.712 37.48C163.085 38.1067 163.272 38.8133 163.272 39.6C163.272 40.4133 163.078 41.1333 162.692 41.76C162.318 42.3733 161.798 42.86 161.132 43.22C160.478 43.5667 159.738 43.74 158.912 43.74C158.072 43.74 157.318 43.5667 156.652 43.22C155.985 42.86 155.458 42.3667 155.072 41.74C154.698 41.1133 154.512 40.4067 154.512 39.62C154.512 38.82 154.698 38.1067 155.072 37.48C155.458 36.8533 155.985 36.3667 156.652 36.02C157.318 35.6733 158.065 35.5 158.892 35.5ZM158.892 37.1C158.412 37.1 157.978 37.2067 157.592 37.42C157.218 37.6333 156.925 37.9267 156.712 38.3C156.512 38.6733 156.412 39.1133 156.412 39.62C156.412 40.1133 156.512 40.5533 156.712 40.94C156.925 41.3133 157.218 41.6067 157.592 41.82C157.978 42.02 158.412 42.12 158.892 42.12C159.372 42.12 159.798 42.02 160.172 41.82C160.558 41.6067 160.858 41.3133 161.072 40.94C161.285 40.5533 161.392 40.1133 161.392 39.62C161.392 39.1267 161.285 38.6933 161.072 38.32C160.858 37.9333 160.558 37.6333 160.172 37.42C159.798 37.2067 159.372 37.1 158.892 37.1ZM159.872 30.1V33.28H157.892V30.1H159.872ZM185.792 29.86V47.56H183.832V29.86H185.792ZM180.572 31.72C180.572 33.5467 180.299 35.2333 179.752 36.78C179.219 38.3133 178.346 39.7267 177.132 41.02C175.932 42.3 174.346 43.42 172.372 44.38L171.352 42.82C173.046 42.0067 174.426 41.0667 175.492 40C176.559 38.9333 177.346 37.7467 177.852 36.44C178.359 35.12 178.612 33.66 178.612 32.06V31.72H180.572ZM179.512 31.72V33.32H172.192V31.72H179.512ZM199.042 30.64C199.909 30.64 200.689 30.8 201.382 31.12C202.089 31.4267 202.635 31.86 203.022 32.42C203.409 32.98 203.602 33.62 203.602 34.34C203.602 35.0467 203.409 35.68 203.022 36.24C202.635 36.8 202.089 37.24 201.382 37.56C200.689 37.8667 199.909 38.02 199.042 38.02C198.175 38.02 197.395 37.8667 196.702 37.56C196.009 37.24 195.462 36.8 195.062 36.24C194.675 35.68 194.482 35.0467 194.482 34.34C194.482 33.62 194.675 32.98 195.062 32.42C195.462 31.86 196.009 31.4267 196.702 31.12C197.395 30.8 198.175 30.64 199.042 30.64ZM199.042 32.26C198.535 32.26 198.075 32.3467 197.662 32.52C197.262 32.6933 196.949 32.94 196.722 33.26C196.495 33.5667 196.382 33.9267 196.382 34.34C196.382 34.7533 196.495 35.12 196.722 35.44C196.949 35.7467 197.262 35.9867 197.662 36.16C198.075 36.32 198.535 36.4 199.042 36.4C199.562 36.4 200.022 36.32 200.422 36.16C200.835 35.9867 201.155 35.7467 201.382 35.44C201.609 35.12 201.722 34.7533 201.722 34.34C201.722 33.9267 201.609 33.5667 201.382 33.26C201.155 32.94 200.835 32.6933 200.422 32.52C200.022 32.3467 199.562 32.26 199.042 32.26ZM200.102 39.92V47.02H198.142V39.92H200.102ZM207.902 29.86V47.58H205.942V29.86H207.902ZM193.282 39.34C195.522 39.34 197.575 39.3067 199.442 39.24C201.309 39.16 203.089 38.9867 204.782 38.72L204.902 40.18C203.182 40.5133 201.415 40.7267 199.602 40.82C197.802 40.9133 195.775 40.9667 193.522 40.98L193.282 39.34ZM219.403 32.76V34.32H210.743V32.76H219.403ZM215.083 35.38C215.829 35.38 216.489 35.5533 217.063 35.9C217.649 36.2467 218.103 36.7333 218.423 37.36C218.756 37.9733 218.923 38.6733 218.923 39.46C218.923 40.2733 218.756 40.9933 218.423 41.62C218.103 42.2333 217.649 42.7133 217.063 43.06C216.489 43.4067 215.829 43.58 215.083 43.58C214.363 43.58 213.709 43.4067 213.123 43.06C212.549 42.7133 212.096 42.2333 211.763 41.62C211.429 40.9933 211.263 40.2733 211.263 39.46C211.263 38.6733 211.429 37.9733 211.763 37.36C212.096 36.7333 212.549 36.2467 213.123 35.9C213.709 35.5533 214.363 35.38 215.083 35.38ZM215.083 37C214.683 37 214.323 37.1067 214.003 37.32C213.696 37.52 213.449 37.8067 213.263 38.18C213.089 38.5533 213.002 38.98 213.002 39.46C213.002 39.9533 213.089 40.3867 213.263 40.76C213.449 41.12 213.696 41.4067 214.003 41.62C214.323 41.82 214.683 41.92 215.083 41.92C215.496 41.92 215.856 41.82 216.163 41.62C216.483 41.4067 216.729 41.12 216.903 40.76C217.089 40.3867 217.183 39.96 217.183 39.48C217.183 38.9867 217.089 38.5533 216.903 38.18C216.729 37.8067 216.483 37.52 216.163 37.32C215.843 37.1067 215.483 37 215.083 37ZM225.823 29.86V47.56H223.963V29.86H225.823ZM224.583 37.22V38.82H221.383V37.22H224.583ZM222.043 30.24V46.72H220.183V30.24H222.043ZM216.063 30.34V33.74H214.123V30.34H216.063ZM242.152 31.02C242.152 33.3 241.426 35.2267 239.972 36.8C238.519 38.3733 236.479 39.52 233.852 40.24L233.092 38.7C235.319 38.1 237.039 37.2067 238.252 36.02C239.479 34.8333 240.092 33.4667 240.092 31.92V31.02H242.152ZM241.332 31.02V32.6H234.032V31.02H241.332ZM247.512 41.16V47.52H245.552V42.74H235.592V41.16H247.512ZM247.512 29.86V40.4H245.552V29.86H247.512ZM245.892 32.9V34.48H241.392V32.9H245.892ZM245.772 36.66V38.24H241.212V36.66H245.772ZM258.353 30.24C259.633 30.24 260.746 30.3733 261.693 30.64C262.639 30.9067 263.366 31.2933 263.873 31.8C264.393 32.3067 264.653 32.9133 264.653 33.62C264.653 34.3133 264.393 34.9133 263.873 35.42C263.366 35.9267 262.639 36.32 261.693 36.6C260.746 36.8667 259.633 37 258.353 37C257.073 37 255.953 36.8667 254.993 36.6C254.046 36.32 253.319 35.9267 252.813 35.42C252.306 34.9133 252.053 34.3133 252.053 33.62C252.053 32.9133 252.306 32.3067 252.813 31.8C253.319 31.2933 254.046 30.9067 254.993 30.64C255.953 30.3733 257.073 30.24 258.353 30.24ZM258.353 31.78C257.459 31.78 256.693 31.8533 256.053 32C255.413 32.1333 254.919 32.34 254.573 32.62C254.239 32.8867 254.073 33.22 254.073 33.62C254.073 34.0067 254.239 34.34 254.573 34.62C254.919 34.8867 255.413 35.0933 256.053 35.24C256.693 35.3867 257.459 35.46 258.353 35.46C259.233 35.46 259.993 35.3867 260.633 35.24C261.273 35.0933 261.759 34.8867 262.093 34.62C262.439 34.34 262.613 34.0067 262.613 33.62C262.613 33.22 262.439 32.8867 262.093 32.62C261.759 32.34 261.273 32.1333 260.633 32C259.993 31.8533 259.233 31.78 258.353 31.78ZM264.393 41.44V47.34H252.273V41.44H264.393ZM254.193 43V45.78H262.473V43H254.193ZM266.333 38.32V39.9H250.353V38.32H266.333ZM288.483 40.26V41.82H272.443V40.26H288.483ZM281.383 41V47.56H279.423V41H281.383ZM276.323 30.58V32.84H284.543V30.58H286.463V38.3H274.383V30.58H276.323ZM276.323 36.7H284.543V34.4H276.323V36.7ZM305.123 32.28V33.88H290.683V32.28H305.123ZM305.963 43.98V45.58H289.923V43.98H305.963ZM298.903 41.34V44.6H296.923V41.34H298.903ZM297.903 34.9C299.73 34.9 301.163 35.2 302.203 35.8C303.243 36.3867 303.763 37.2133 303.763 38.28C303.763 39.36 303.243 40.2 302.203 40.8C301.163 41.4 299.73 41.7 297.903 41.7C296.076 41.7 294.636 41.4 293.583 40.8C292.543 40.2 292.023 39.36 292.023 38.28C292.023 37.2133 292.543 36.3867 293.583 35.8C294.636 35.2 296.076 34.9 297.903 34.9ZM297.903 36.42C297.09 36.42 296.39 36.4933 295.803 36.64C295.23 36.7867 294.79 37 294.483 37.28C294.176 37.56 294.023 37.8933 294.023 38.28C294.023 38.68 294.176 39.02 294.483 39.3C294.79 39.58 295.23 39.7933 295.803 39.94C296.376 40.0867 297.07 40.16 297.883 40.16C298.71 40.16 299.41 40.0867 299.983 39.94C300.556 39.7933 300.996 39.58 301.303 39.3C301.61 39.02 301.763 38.68 301.763 38.28C301.763 37.8933 301.61 37.56 301.303 37.28C300.996 37 300.556 36.7867 299.983 36.64C299.41 36.4933 298.716 36.42 297.903 36.42ZM298.903 30.1V33.26H296.923V30.1H298.903ZM309.444 43.02C308.99 41.4733 308.764 40.06 308.764 38.78C308.764 37.5 308.99 36.0933 309.444 34.56C309.91 33.0133 310.497 31.6733 311.204 30.54H313.244C312.43 31.66 311.764 32.9867 311.244 34.52C310.737 36.0533 310.484 37.4733 310.484 38.78C310.484 40.0867 310.737 41.5067 311.244 43.04C311.764 44.5733 312.43 45.9 313.244 47.02H311.204C310.497 45.8867 309.91 44.5533 309.444 43.02ZM316.575 36.86L315.995 35.82C317.175 35.08 317.775 34.3 317.795 33C317.735 33.02 317.655 33.02 317.595 33.02C316.875 33.02 316.255 32.54 316.255 31.72C316.255 30.84 316.795 30.3 317.595 30.3C318.635 30.3 319.235 31.14 319.235 32.62C319.235 34.52 318.335 35.9 316.575 36.86ZM325.572 34.56C326.026 36.0933 326.252 37.5 326.252 38.78C326.252 40.06 326.026 41.4733 325.572 43.02C325.119 44.5533 324.539 45.8867 323.832 47.02H321.792C322.592 45.9133 323.246 44.5933 323.752 43.06C324.272 41.5133 324.532 40.0867 324.532 38.78C324.532 37.4733 324.272 36.0533 323.752 34.52C323.246 32.9733 322.592 31.6467 321.792 30.54H323.832C324.539 31.6733 325.119 33.0133 325.572 34.56ZM345.104 38V39.44H329.064V38H345.104ZM343.124 40.66V44.6H332.904V46.46H330.964V43.3H341.204V42.04H330.924V40.66H343.124ZM343.664 45.98V47.38H330.964V45.98H343.664ZM343.064 30.3V34.18H333.024V35.92H331.104V32.88H341.124V31.68H331.064V30.3H343.064ZM343.404 35.46V36.86H331.104V35.46H343.404ZM356.954 31.34V34.26C356.954 35.62 356.754 36.94 356.354 38.22C355.954 39.4867 355.38 40.6133 354.634 41.6C353.9 42.5867 353.04 43.3333 352.054 43.84L350.874 42.24C351.754 41.8133 352.534 41.18 353.214 40.34C353.907 39.5 354.434 38.5533 354.794 37.5C355.167 36.4333 355.354 35.3533 355.354 34.26V31.34H356.954ZM357.294 31.34V34.26C357.294 35.3133 357.474 36.3533 357.834 37.38C358.207 38.3933 358.72 39.3 359.374 40.1C360.027 40.9 360.787 41.5133 361.654 41.94L360.454 43.5C359.494 43.0067 358.654 42.2867 357.934 41.34C357.227 40.3933 356.68 39.3067 356.294 38.08C355.92 36.8533 355.734 35.58 355.734 34.26V31.34H357.294ZM364.854 29.86V47.56H362.874V29.86H364.854ZM367.634 36.9V38.54H364.414V36.9H367.634ZM374.394 35.84V39.14H372.434V35.84H374.394ZM380.794 35.84V39.14H378.854V35.84H380.794ZM384.614 38.48V40.04H368.634V38.48H384.614ZM376.614 41.22C378.521 41.22 380.007 41.5 381.074 42.06C382.154 42.6067 382.694 43.38 382.694 44.38C382.694 45.3933 382.154 46.1733 381.074 46.72C380.007 47.28 378.521 47.56 376.614 47.56C374.694 47.56 373.194 47.28 372.114 46.72C371.047 46.1733 370.514 45.3933 370.514 44.38C370.514 43.38 371.047 42.6067 372.114 42.06C373.194 41.5 374.694 41.22 376.614 41.22ZM376.614 42.72C375.734 42.72 374.987 42.7867 374.374 42.92C373.761 43.04 373.294 43.2267 372.974 43.48C372.654 43.72 372.494 44.02 372.494 44.38C372.494 44.9133 372.847 45.3267 373.554 45.62C374.274 45.9 375.294 46.04 376.614 46.04C377.934 46.04 378.947 45.9 379.654 45.62C380.361 45.3267 380.714 44.9133 380.714 44.38C380.714 44.02 380.554 43.72 380.234 43.48C379.914 43.2267 379.447 43.04 378.834 42.92C378.234 42.7867 377.494 42.72 376.614 42.72ZM376.634 30.16C377.914 30.16 379.027 30.2933 379.974 30.56C380.921 30.8267 381.647 31.2133 382.154 31.72C382.674 32.2133 382.934 32.8067 382.934 33.5C382.934 34.18 382.674 34.7733 382.154 35.28C381.647 35.7733 380.921 36.1533 379.974 36.42C379.027 36.6867 377.914 36.82 376.634 36.82C375.354 36.82 374.234 36.6867 373.274 36.42C372.327 36.1533 371.601 35.7733 371.094 35.28C370.587 34.7733 370.334 34.18 370.334 33.5C370.334 32.8067 370.587 32.2133 371.094 31.72C371.601 31.2133 372.327 30.8267 373.274 30.56C374.234 30.2933 375.354 30.16 376.634 30.16ZM376.614 31.68C375.734 31.68 374.974 31.7533 374.334 31.9C373.694 32.0333 373.201 32.24 372.854 32.52C372.521 32.7867 372.354 33.1133 372.354 33.5C372.354 34.0733 372.727 34.52 373.474 34.84C374.234 35.16 375.281 35.32 376.614 35.32C377.961 35.32 379.007 35.16 379.754 34.84C380.514 34.52 380.894 34.0733 380.894 33.5C380.894 33.1133 380.721 32.7867 380.374 32.52C380.041 32.24 379.554 32.0333 378.914 31.9C378.274 31.7533 377.507 31.68 376.614 31.68ZM394.735 32.76V34.32H386.075V32.76H394.735ZM390.415 35.38C391.161 35.38 391.821 35.5533 392.395 35.9C392.981 36.2467 393.435 36.7333 393.755 37.36C394.088 37.9733 394.255 38.6733 394.255 39.46C394.255 40.2733 394.088 40.9933 393.755 41.62C393.435 42.2333 392.981 42.7133 392.395 43.06C391.821 43.4067 391.161 43.58 390.415 43.58C389.695 43.58 389.041 43.4067 388.455 43.06C387.881 42.7133 387.428 42.2333 387.095 41.62C386.761 40.9933 386.595 40.2733 386.595 39.46C386.595 38.6733 386.761 37.9733 387.095 37.36C387.428 36.7333 387.881 36.2467 388.455 35.9C389.041 35.5533 389.695 35.38 390.415 35.38ZM390.415 37C390.015 37 389.655 37.1067 389.335 37.32C389.028 37.52 388.781 37.8067 388.595 38.18C388.421 38.5533 388.335 38.98 388.335 39.46C388.335 39.9533 388.421 40.3867 388.595 40.76C388.781 41.12 389.028 41.4067 389.335 41.62C389.655 41.82 390.015 41.92 390.415 41.92C390.828 41.92 391.188 41.82 391.495 41.62C391.815 41.4067 392.061 41.12 392.235 40.76C392.421 40.3867 392.515 39.96 392.515 39.48C392.515 38.9867 392.421 38.5533 392.235 38.18C392.061 37.8067 391.815 37.52 391.495 37.32C391.175 37.1067 390.815 37 390.415 37ZM401.155 29.86V47.56H399.295V29.86H401.155ZM399.915 37.22V38.82H396.715V37.22H399.915ZM397.375 30.24V46.72H395.515V30.24H397.375ZM391.395 30.34V33.74H389.455V30.34H391.395ZM409.335 38.9V44.08H407.375V38.9H409.335ZM415.835 38.9V44.08H413.875V38.9H415.835ZM419.635 43.76V45.36H403.595V43.76H419.635ZM411.595 30.86C412.848 30.86 413.968 31.0533 414.955 31.44C415.942 31.8133 416.708 32.3533 417.255 33.06C417.815 33.7667 418.095 34.58 418.095 35.5C418.095 36.42 417.815 37.2333 417.255 37.94C416.708 38.6333 415.942 39.1733 414.955 39.56C413.968 39.9333 412.848 40.12 411.595 40.12C410.342 40.12 409.222 39.9333 408.235 39.56C407.248 39.1733 406.475 38.6333 405.915 37.94C405.368 37.2333 405.095 36.42 405.095 35.5C405.095 34.58 405.368 33.7667 405.915 33.06C406.475 32.3533 407.248 31.8133 408.235 31.44C409.222 31.0533 410.342 30.86 411.595 30.86ZM411.595 32.42C410.702 32.42 409.908 32.5467 409.215 32.8C408.522 33.04 407.982 33.3933 407.595 33.86C407.208 34.3267 407.015 34.8733 407.015 35.5C407.015 36.1267 407.202 36.6733 407.575 37.14C407.962 37.5933 408.502 37.9467 409.195 38.2C409.902 38.4533 410.702 38.58 411.595 38.58C412.488 38.58 413.282 38.4533 413.975 38.2C414.668 37.9467 415.208 37.5933 415.595 37.14C415.982 36.6733 416.175 36.1267 416.175 35.5C416.175 34.8733 415.975 34.3267 415.575 33.86C415.188 33.3933 414.648 33.04 413.955 32.8C413.275 32.5467 412.488 32.42 411.595 32.42ZM422.655 44.08C422.989 44.08 423.262 44.1867 423.475 44.4C423.689 44.6133 423.795 44.8867 423.795 45.22C423.795 45.58 423.689 45.8667 423.475 46.08C423.262 46.2933 422.989 46.4 422.655 46.4C422.309 46.4 422.022 46.2867 421.795 46.06C421.582 45.8467 421.475 45.5667 421.475 45.22C421.475 44.8867 421.582 44.6133 421.795 44.4C422.022 44.1867 422.309 44.08 422.655 44.08Z" fill="black"/>
</svg>
