<svg width="63" height="68" viewBox="0 0 63 68" fill="none" xmlns="http://www.w3.org/2000/svg">
<g clip-path="url(#clip0_1485_26544)">
<path d="M30.078 0.036781C12.6874 0.886781 -0.765752 15.152 -0.000126906 31.9303C0.218623 36.2911 1.38529 40.3933 3.28112 44.089C13.4165 66.6324 41.8176 68.0368 41.8176 68.0368C37.6978 65.8564 35.328 63.1955 33.9426 60.7194C50.8228 59.389 63.729 45.3455 62.9634 28.8998C62.1978 12.0846 47.4686 -0.813219 30.078 0.036781Z" fill="#BD94C2"/>
<path d="M19.4323 28.5303C19.4323 28.9368 19.5052 29.3064 19.6146 29.602C19.724 29.8977 20.0885 30.0825 20.7083 30.0825H24.026C24.5365 30.0825 24.901 30.2303 25.1198 30.5259C25.3385 30.8216 25.4844 31.1172 25.4844 31.4498C25.4844 31.8194 25.3385 32.152 25.0833 32.4477C24.8281 32.7433 24.4635 32.8542 24.026 32.8542H11.9948C11.5573 32.8542 11.2292 32.7064 10.974 32.4477C10.7187 32.152 10.6094 31.8194 10.6094 31.4498C10.6094 31.1172 10.7187 30.8216 10.974 30.5259C11.1927 30.2303 11.5573 30.0825 12.0312 30.0825H15.2396C15.8594 30.0825 16.224 29.9346 16.3333 29.602C16.4427 29.3064 16.5156 28.9368 16.5156 28.5303V27.1259C16.5156 27.1259 16.5156 26.9412 16.5521 26.8672C15.4583 26.6085 14.5833 26.0172 13.8542 25.1672C13.125 24.2803 12.7969 23.2825 12.7969 22.0998C12.7969 21.139 13.0156 20.289 13.4896 19.5868H12.4687C11.5573 19.5868 11.1198 19.1433 11.1198 18.2194C11.1198 17.2955 11.5573 16.852 12.4687 16.852H15.8229C16.2604 16.852 16.4792 16.5564 16.4792 15.9281V14.1542C16.4792 13.7477 16.625 13.4151 16.9167 13.1194C17.2083 12.8607 17.5729 12.7129 17.974 12.7129C18.375 12.7129 18.7396 12.8607 18.9948 13.1194C19.2865 13.3781 19.3958 13.7107 19.3958 14.1542V15.8912C19.3958 16.2607 19.3958 16.5194 19.5052 16.6303C19.5781 16.7412 19.7604 16.8151 20.0521 16.852H23.3333C23.7344 16.852 24.099 16.9629 24.3542 17.2216C24.6458 17.4803 24.7552 17.8129 24.7552 18.2194C24.7552 18.6259 24.6094 18.9585 24.3542 19.2172C24.0625 19.4759 23.7344 19.5868 23.3333 19.5868H22.3854C22.6042 19.8455 22.7865 20.252 22.9323 20.7694C23.0781 21.2868 23.1146 21.7303 23.1146 22.1368C23.1146 23.3194 22.75 24.3542 22.0573 25.2042C21.3281 26.0542 20.4531 26.6455 19.3594 26.9412C19.3594 27.0151 19.3958 27.1259 19.4323 27.1998C19.4323 27.2738 19.4323 27.3846 19.4323 27.4585V28.6042V28.5303ZM15.4219 21.952C15.4219 22.6542 15.6771 23.2455 16.1875 23.652C16.6979 24.0955 17.2812 24.2803 17.974 24.2803C18.6667 24.2803 19.1771 24.0585 19.651 23.652C20.125 23.2085 20.3802 22.6542 20.3802 21.952C20.3802 21.2498 20.125 20.6216 19.651 20.1781C19.1771 19.7346 18.5937 19.5129 17.974 19.5129C17.3542 19.5129 16.6979 19.7346 16.1875 20.1781C15.6771 20.6216 15.4219 21.2129 15.4219 21.952ZM27.6354 35.552C28.3646 35.552 28.9479 35.7738 29.4219 36.1803C29.8594 36.5868 30.1146 37.1781 30.1146 37.9542V42.1672C30.1146 42.9064 29.8594 43.4977 29.3854 43.9042C28.875 44.3107 28.3281 44.5325 27.6719 44.5325H24.026C23.4427 44.5325 23.0417 44.7172 22.8229 45.0498C22.6042 45.3825 22.4948 45.752 22.4948 46.0846V46.4542C22.4948 46.8607 22.6042 47.2672 22.7865 47.7107C23.0052 48.1172 23.4427 48.339 24.1719 48.339H29.0573C29.4583 48.339 29.8229 48.4498 30.0781 48.7085C30.3698 48.9672 30.4792 49.2999 30.4792 49.7064C30.4792 50.1129 30.3333 50.4455 30.0781 50.7042C29.7865 50.9629 29.4583 51.0738 29.0573 51.0738H21.9115C21.2552 51.0738 20.7083 50.852 20.2344 50.4455C19.7604 50.002 19.5052 49.4477 19.5052 48.7085V44.4585C19.5052 43.6825 19.7604 43.0542 20.2344 42.6107C20.7448 42.1303 21.3281 41.9085 22.0573 41.9085H25.5208C26.1042 41.9085 26.5052 41.7607 26.724 41.4651C26.9427 41.1694 27.0521 40.8368 27.0521 40.4303V40.0238C27.0521 39.6172 26.9427 39.2477 26.724 38.8781C26.5052 38.5455 26.0312 38.3607 25.3385 38.3607H21C20.599 38.3607 20.2344 38.2498 19.9792 37.9911C19.6875 37.7325 19.5781 37.3998 19.5781 36.9933C19.5781 36.5868 19.724 36.2542 19.9792 35.9955C20.2708 35.7368 20.599 35.6259 21 35.6259H27.5625L27.6354 35.552ZM26.8698 16.039C26.8698 15.5955 27.0156 15.2259 27.2708 14.9672C27.5625 14.7085 27.8906 14.5607 28.3281 14.5607C28.8385 14.5607 29.2396 14.7085 29.4583 14.9672C29.6771 15.2629 29.7865 15.5955 29.7865 16.002V18.589C29.7865 18.9585 29.8594 19.3281 29.9688 19.6238C30.1146 19.9194 30.4792 20.0672 31.099 20.0672H32.5937C33.1042 20.0672 33.4323 20.2151 33.651 20.5107C33.8698 20.8064 33.9792 21.102 33.9792 21.4346C33.9792 22.3216 33.5052 22.7651 32.5937 22.7651H31.099C30.5521 22.7651 30.1875 22.8759 30.0417 23.1346C29.8958 23.3933 29.7865 23.7259 29.7865 24.1325V28.5303C29.7865 28.9368 29.6406 29.3064 29.3854 29.602C29.0938 29.8977 28.7656 30.0455 28.3646 30.0455C27.9635 30.0455 27.599 29.8977 27.3073 29.602C27.0156 29.3064 26.8698 28.9368 26.8698 28.5303V16.039Z" fill="white"/>
<path d="M43.276 34.0739C43.276 34.4804 43.349 34.85 43.4583 35.1456C43.5677 35.4413 43.9323 35.6261 44.5521 35.6261H47.8698C48.3802 35.6261 48.7448 35.7739 48.9635 36.0695C49.1823 36.3652 49.3281 36.6608 49.3281 36.9934C49.3281 37.363 49.1823 37.6956 48.9271 37.9913C48.6719 38.2869 48.3073 38.3978 47.8698 38.3978H35.6198C35.1823 38.3978 34.8542 38.25 34.599 37.9913C34.3437 37.6956 34.2344 37.363 34.2344 36.9934C34.2344 36.6608 34.3437 36.3652 34.599 36.0695C34.8177 35.7739 35.1823 35.6261 35.6562 35.6261H39.0833C39.7031 35.6261 40.0677 35.4782 40.1771 35.1456C40.2865 34.85 40.3594 34.4804 40.3594 34.0739V32.9282C40.3594 32.6326 40.4323 32.3369 40.5781 32.0413H38.6823C37.9896 32.0413 37.4062 31.8195 36.9688 31.3391C36.5312 30.8956 36.276 30.2674 36.276 29.5282V23.8C36.276 23.0608 36.4948 22.4695 36.9688 22.0261C37.4062 21.5826 37.9896 21.3608 38.6823 21.3608H45.901C46.3021 21.3608 46.6667 21.5087 46.9219 21.7674C47.2135 22.0261 47.3229 22.3587 47.3229 22.8021C47.3229 23.2456 47.1771 23.5413 46.9219 23.8C46.6302 24.0587 46.3021 24.1695 45.901 24.1695H41.0156C40.3594 24.1695 39.8854 24.3543 39.6302 24.7608C39.375 25.1304 39.2292 25.5369 39.2292 25.9065V27.2739C39.2292 27.7543 39.3385 28.1978 39.5573 28.6043C39.776 29.0108 40.25 29.2326 40.9792 29.2326H46.0833C46.4844 29.2326 46.8125 29.3434 47.1042 29.6021C47.3594 29.8239 47.5052 30.1565 47.5052 30.563C47.5052 31.0065 47.3594 31.3391 47.1042 31.5978C46.849 31.8565 46.5208 32.0043 46.0833 32.0043H43.0573C43.2396 32.263 43.3125 32.5587 43.3125 32.8913V34.0369L43.276 34.0739ZM36.0208 45.9369C36.0208 44.3848 36.5677 43.0913 37.6979 42.0934C38.7917 41.0956 40.1771 40.5782 41.7812 40.5782C43.3854 40.5782 44.6979 41.0956 45.7917 42.0934C46.8854 43.0913 47.4688 44.3848 47.4688 45.9369C47.4688 47.4891 46.9219 48.8195 45.7917 49.8174C44.6979 50.8152 43.349 51.2956 41.7812 51.2956C40.2135 51.2956 38.8281 50.8152 37.6979 49.8174C36.6042 48.8195 36.0208 47.5261 36.0208 45.9369ZM38.901 45.9369C38.901 46.75 39.1927 47.4152 39.7396 47.8956C40.2865 48.3761 40.9792 48.6348 41.7448 48.6348C42.5104 48.6348 43.1302 48.3761 43.6771 47.8956C44.1875 47.4152 44.4792 46.75 44.4792 45.9369C44.4792 45.1239 44.224 44.4956 43.6771 43.9782C43.1667 43.4608 42.5104 43.2391 41.7448 43.2391C40.9792 43.2391 40.2865 43.4978 39.7396 43.9782C39.1927 44.4956 38.901 45.1239 38.901 45.9369Z" fill="white"/>
</g>
<defs>
<clipPath id="clip0_1485_26544">
<rect width="63" height="68" fill="white"/>
</clipPath>
</defs>
</svg>
