<svg width="970" height="376" viewBox="0 0 970 376" fill="none" xmlns="http://www.w3.org/2000/svg">
<g filter="url(#filter0_f_338_21)">
<path d="M10.7565 132.763L10.6562 115.273L103.062 124.945L10.7565 132.763Z" fill="#D3D3D4"/>
</g>
<path d="M17.0908 76.125H103.985C107.893 76.125 111.075 79.307 111.075 83.2157V119.121C111.075 123.029 107.893 126.212 103.985 126.212H17.0908C13.1821 126.212 10 123.029 10 119.121V83.2157C10 79.307 13.1821 76.125 17.0908 76.125Z" fill="#C9CACA"/>
<path d="M92.4094 82.3672H23.8564C19.9403 82.3672 16.7656 85.5417 16.7656 89.4579V112.885C16.7656 116.801 19.9403 119.976 23.8564 119.976H92.4094C96.3255 119.976 99.5002 116.801 99.5002 112.885V89.4579C99.5002 85.5417 96.3255 82.3672 92.4094 82.3672Z" fill="white"/>
<path d="M39.14 94.153C39.14 95.0303 38.944 95.861 38.552 96.645C38.16 97.429 37.6093 98.0917 36.9 98.633C36.2653 99.0997 35.5653 99.4263 34.8 99.613C34.0533 99.7997 33.2973 99.865 32.532 99.809C31.7667 99.753 31.0293 99.585 30.32 99.305C29.6107 99.0063 28.976 98.6143 28.416 98.129C27.8747 97.6437 27.436 97.065 27.1 96.393C26.764 95.721 26.596 94.9743 26.596 94.153C26.596 93.4063 26.708 92.7343 26.932 92.137C27.156 91.5397 27.464 91.0077 27.856 90.541H27.352C26.8853 90.541 26.4933 90.401 26.176 90.121C25.8587 89.8223 25.7 89.4677 25.7 89.057C25.7 88.6277 25.8587 88.273 26.176 87.993C26.4933 87.6943 26.8853 87.545 27.352 87.545H31.048V86.649C31.048 86.2757 31.2067 85.9677 31.524 85.725C31.8413 85.4637 32.224 85.333 32.672 85.333C33.12 85.333 33.5027 85.4637 33.82 85.725C34.1373 85.9677 34.296 86.2757 34.296 86.649V87.545H38.188C38.6547 87.545 39.0467 87.6943 39.364 87.993C39.6813 88.273 39.84 88.6277 39.84 89.057C39.84 89.4677 39.6813 89.8223 39.364 90.121C39.0467 90.401 38.6547 90.541 38.188 90.541H37.852C38.244 91.0077 38.552 91.5397 38.776 92.137C39.0187 92.7343 39.14 93.4063 39.14 94.153ZM31.524 108.881C30.7587 108.881 30.1427 108.713 29.676 108.377C29.2093 108.06 28.976 107.686 28.976 107.257V103.225C28.9387 102.814 28.9387 102.394 28.976 101.965C29.0133 101.573 29.1627 101.256 29.424 101.013C29.704 100.77 30.0587 100.649 30.488 100.649C30.5813 100.649 30.7493 100.658 30.992 100.677C31.2347 100.677 31.4027 100.696 31.496 100.733C31.7387 100.808 31.9253 100.92 32.056 101.069C32.2053 101.218 32.3173 101.396 32.392 101.601C32.4667 101.788 32.5133 101.993 32.532 102.217C32.5507 102.422 32.5693 102.628 32.588 102.833C32.588 102.908 32.588 103.085 32.588 103.365C32.6067 103.626 32.616 103.916 32.616 104.233C32.6347 104.532 32.644 104.812 32.644 105.073C32.6627 105.334 32.6813 105.493 32.7 105.549C32.756 105.568 32.9053 105.596 33.148 105.633C33.4093 105.652 33.8853 105.661 34.576 105.661C35.1733 105.661 35.5373 105.652 35.668 105.633C35.8173 105.614 35.9013 105.605 35.92 105.605H45.076C45.076 105.605 45.132 105.624 45.244 105.661C45.3747 105.698 45.5147 105.764 45.664 105.857C45.8133 105.932 45.9533 106.044 46.084 106.193C46.2147 106.324 46.2987 106.482 46.336 106.669C46.4293 107.378 46.308 107.929 45.972 108.321C45.748 108.582 45.5053 108.741 45.244 108.797C44.9827 108.853 44.8427 108.881 44.824 108.881H31.524ZM45.552 95.441V99.109C45.5333 99.3143 45.5053 99.529 45.468 99.753C45.4307 99.9583 45.3467 100.164 45.216 100.369C45.0853 100.612 44.9173 100.789 44.712 100.901C44.4133 101.106 44.0867 101.209 43.732 101.209C43.4333 101.209 43.1627 101.134 42.92 100.985C42.7147 100.873 42.5467 100.733 42.416 100.565C42.304 100.397 42.2107 100.238 42.136 100.089C42.08 99.9397 42.0427 99.809 42.024 99.697C42.0053 99.5663 41.996 99.501 41.996 99.501V88.833C41.996 88.7397 42.0053 88.5343 42.024 88.217C42.0613 87.881 42.136 87.601 42.248 87.377C42.4533 86.985 42.864 86.761 43.48 86.705C44.1707 86.6117 44.7027 86.7517 45.076 87.125C45.188 87.2743 45.272 87.4237 45.328 87.573C45.384 87.7037 45.4307 87.8437 45.468 87.993C45.524 88.1797 45.552 88.3757 45.552 88.581C45.5707 88.7863 45.5707 88.9917 45.552 89.197V92.305C45.6267 92.305 45.776 92.3143 46 92.333C46.224 92.3517 46.4573 92.3703 46.7 92.389C46.9427 92.389 47.1667 92.3983 47.372 92.417C47.596 92.4357 47.7453 92.4543 47.82 92.473C48.212 92.5477 48.492 92.6597 48.66 92.809C48.828 92.9397 48.94 93.1077 48.996 93.313C49.0333 93.5183 49.052 93.761 49.052 94.041C49.052 94.3023 48.996 94.5263 48.884 94.713C48.6413 95.0863 48.2867 95.301 47.82 95.357C47.3533 95.413 46.8213 95.441 46.224 95.441H45.552ZM33.428 96.645C34.0253 96.533 34.5387 96.2717 34.968 95.861C35.416 95.4317 35.64 94.8623 35.64 94.153C35.64 93.593 35.5 93.1263 35.22 92.753C34.9587 92.3797 34.6227 92.0997 34.212 91.913C33.8013 91.7077 33.3533 91.605 32.868 91.605C32.3827 91.5863 31.9347 91.6703 31.524 91.857C31.1133 92.0437 30.768 92.333 30.488 92.725C30.2267 93.0983 30.096 93.5743 30.096 94.153C30.096 94.657 30.1987 95.0863 30.404 95.441C30.6093 95.7957 30.8707 96.0757 31.188 96.281C31.5053 96.4863 31.86 96.617 32.252 96.673C32.644 96.729 33.036 96.7197 33.428 96.645Z" fill="#727171"/>
<path d="M68.319 108.496C69.159 108.496 69.7563 108.599 70.111 108.804C70.5777 109.084 70.811 109.448 70.811 109.896V111.548V113.284V114.152C70.811 114.302 70.8017 114.432 70.783 114.544C70.783 114.656 70.7643 114.787 70.727 114.936C70.6897 115.086 70.643 115.216 70.587 115.328C70.5497 115.459 70.475 115.58 70.363 115.692C70.2137 115.748 70.0363 115.804 69.831 115.86C69.719 115.972 69.5323 116.028 69.271 116.028H68.907C68.8697 116.028 68.8323 116.019 68.795 116C68.7577 115.982 68.7204 115.972 68.683 115.972C68.4963 115.879 68.3377 115.795 68.207 115.72C68.0763 115.646 67.9643 115.534 67.871 115.384C67.815 115.235 67.7497 115.076 67.675 114.908C67.619 114.722 67.5723 114.544 67.535 114.376C67.4977 114.19 67.479 114.003 67.479 113.816C67.479 113.63 67.479 113.452 67.479 113.284V112.276V111.828H67.255C67.2177 111.828 67.1803 111.828 67.143 111.828C67.1057 111.828 67.0403 111.81 66.947 111.772H53.843C53.675 111.772 53.5163 111.744 53.367 111.688C53.2177 111.632 53.087 111.53 52.975 111.38C52.863 111.287 52.7697 111.175 52.695 111.044C52.639 110.914 52.583 110.774 52.527 110.624V109.728C52.583 109.635 52.6297 109.532 52.667 109.42C52.723 109.308 52.807 109.196 52.919 109.084C52.9563 109.01 53.003 108.944 53.059 108.888C53.115 108.814 53.1617 108.758 53.199 108.72C53.3483 108.72 53.4883 108.674 53.619 108.58C53.7123 108.58 53.7777 108.571 53.815 108.552C53.8523 108.515 53.8897 108.496 53.927 108.496H54.067H60.059V106.144H57.707H56.531H55.383C55.3457 106.144 55.2803 106.144 55.187 106.144C55.0937 106.126 55.0097 106.098 54.935 106.06H54.375H53.339C53.2643 106.06 53.171 106.06 53.059 106.06C52.9657 106.06 52.863 106.042 52.751 106.004C52.695 106.004 52.6203 105.995 52.527 105.976C52.4337 105.958 52.3403 105.948 52.247 105.948C52.191 105.836 52.0977 105.762 51.967 105.724C51.9297 105.687 51.883 105.65 51.827 105.612C51.771 105.556 51.6963 105.491 51.603 105.416L51.575 105.388C51.5377 105.351 51.5097 105.314 51.491 105.276C51.4163 105.22 51.379 105.155 51.379 105.08C51.379 104.987 51.3697 104.931 51.351 104.912C51.3323 104.875 51.323 104.838 51.323 104.8V104.464C51.323 104.371 51.3323 104.278 51.351 104.184C51.3697 104.072 51.379 103.97 51.379 103.876C51.435 103.82 51.4723 103.755 51.491 103.68C51.5283 103.606 51.5657 103.54 51.603 103.484C51.6963 103.447 51.7617 103.41 51.799 103.372C51.8363 103.335 51.8737 103.298 51.911 103.26C51.967 103.167 52.0417 103.12 52.135 103.12C52.2097 103.064 52.3217 103.036 52.471 103.036C52.5083 103.036 52.555 103.027 52.611 103.008C52.667 102.971 52.7137 102.952 52.751 102.952C52.9003 102.952 53.0217 102.934 53.115 102.896H53.563H69.719H70.055C70.2604 102.896 70.391 102.915 70.447 102.952H70.867C70.9043 102.99 70.951 103.018 71.007 103.036C71.063 103.036 71.1097 103.036 71.147 103.036C71.5017 103.111 71.7444 103.26 71.875 103.484C72.1177 103.559 72.239 103.727 72.239 103.988V104.268V104.576C72.239 104.875 72.1643 105.108 72.015 105.276C71.8843 105.556 71.6697 105.724 71.371 105.78C71.2777 105.818 71.1843 105.855 71.091 105.892C71.0163 105.93 70.923 105.948 70.811 105.948C70.7177 105.986 70.6337 106.004 70.559 106.004C70.503 106.004 70.4377 106.023 70.363 106.06H69.719C69.607 106.098 69.5043 106.126 69.411 106.144C69.3363 106.144 69.243 106.144 69.131 106.144H68.963H67.703H66.387H63.839V107.432V108.496H68.319ZM54.879 97.8282C54.655 97.7909 54.4497 97.7535 54.263 97.7162C54.0763 97.6789 53.899 97.6135 53.731 97.5202C53.5817 97.4642 53.4323 97.3615 53.283 97.2122C53.1523 97.0629 53.0497 96.9042 52.975 96.7362C52.8443 96.2509 52.8443 95.8402 52.975 95.5042C53.0683 95.1122 53.2643 94.8509 53.563 94.7202C53.675 94.6082 53.815 94.5149 53.983 94.4402C54.151 94.3655 54.319 94.2815 54.487 94.1882C54.6363 94.1509 54.795 94.1322 54.963 94.1322C55.1497 94.1322 55.3363 94.1322 55.523 94.1322C55.803 94.1695 56.083 94.1789 56.363 94.1602C56.643 94.1415 56.9137 94.1322 57.175 94.1322H58.855H64.707C65.0057 94.1695 65.3043 94.1789 65.603 94.1602C65.9203 94.1415 66.219 94.1322 66.499 94.1322C66.8163 94.1322 67.1243 94.1509 67.423 94.1882C67.7403 94.2069 68.039 94.2349 68.319 94.2722C68.543 94.2722 68.7483 94.2909 68.935 94.3282C69.1217 94.3655 69.3084 94.4215 69.495 94.4962C69.663 94.5335 69.803 94.6175 69.915 94.7482C70.0457 94.8789 70.167 95.0562 70.279 95.2802C70.391 95.5975 70.4657 95.9149 70.503 96.2322C70.5404 96.5309 70.5404 96.8669 70.503 97.2402L70.531 99.6202C70.531 99.7695 70.531 99.9282 70.531 100.096C70.5497 100.264 70.5404 100.423 70.503 100.572C70.503 100.89 70.4284 101.188 70.279 101.468C70.1857 101.562 70.1017 101.655 70.027 101.748C69.971 101.842 69.8683 101.935 69.719 102.028C69.5697 102.159 69.3737 102.224 69.131 102.224C68.907 102.318 68.6923 102.318 68.487 102.224C68.2443 102.168 68.0203 102.075 67.815 101.944C67.759 101.87 67.6937 101.795 67.619 101.72C67.563 101.646 67.5164 101.562 67.479 101.468C67.3857 101.244 67.311 101.039 67.255 100.852C67.199 100.647 67.171 100.414 67.171 100.152C67.171 99.8349 67.1617 99.5735 67.143 99.3682C67.1243 99.1629 67.115 98.9295 67.115 98.6682C67.115 98.5935 67.087 98.5189 67.031 98.4442L66.947 98.3882C66.835 98.1642 66.6857 98.0522 66.499 98.0522C66.443 98.0149 66.387 97.9775 66.331 97.9402C66.2937 97.9029 66.2377 97.8842 66.163 97.8842H65.855C65.6124 97.8282 65.379 97.8282 65.155 97.8842H56.839H55.859C55.691 97.8842 55.523 97.8842 55.355 97.8842C55.187 97.8842 55.0283 97.8655 54.879 97.8282Z" fill="#727171"/>
<g filter="url(#filter1_f_338_21)">
<path d="M10.7565 249.342L10.6562 231.828L103.062 241.525L10.7565 249.342Z" fill="#D3D3D4"/>
</g>
<path d="M17.0908 192.719H103.985C107.893 192.719 111.075 195.901 111.075 199.81V235.715C111.075 239.623 107.893 242.805 103.985 242.805H17.0908C13.1821 242.805 10 239.623 10 235.715V199.81C10 195.901 13.1821 192.719 17.0908 192.719Z" fill="#C9CACA"/>
<path d="M92.4094 198.953H23.8564C19.9403 198.953 16.7656 202.128 16.7656 206.044V229.471C16.7656 233.387 19.9403 236.562 23.8564 236.562H92.4094C96.3255 236.562 99.5002 233.387 99.5002 229.471V206.044C99.5002 202.128 96.3255 198.953 92.4094 198.953Z" fill="white"/>
<path d="M27.212 222.243C27.212 221.552 27.3987 220.983 27.772 220.535C28.164 220.068 28.696 219.704 29.368 219.443C30.04 219.163 30.8333 218.967 31.748 218.855C32.6627 218.743 33.652 218.668 34.716 218.631V218.575L34.744 216.559C34.3147 216.559 33.7547 216.559 33.064 216.559C32.392 216.54 31.692 216.531 30.964 216.531C30.236 216.512 29.536 216.494 28.864 216.475C28.192 216.456 27.66 216.428 27.268 216.391C26.9693 216.354 26.7267 216.316 26.54 216.279C26.372 216.223 26.1667 216.083 25.924 215.859C25.7933 215.747 25.7 215.607 25.644 215.439C25.588 215.252 25.56 215.056 25.56 214.851C25.56 214.459 25.6813 214.142 25.924 213.899C26.0547 213.75 26.232 213.638 26.456 213.563C26.68 213.488 26.8947 213.432 27.1 213.395C27.3053 213.358 27.4827 213.339 27.632 213.339C27.8 213.339 27.8933 213.339 27.912 213.339H43.928C44.208 213.339 44.488 213.339 44.768 213.339C45.048 213.339 45.3187 213.348 45.58 213.367C45.8413 213.386 46.0933 213.423 46.336 213.479C46.5973 213.535 46.8307 213.656 47.036 213.843C47.2413 213.992 47.3533 214.16 47.372 214.347C47.4093 214.534 47.428 214.739 47.428 214.963C47.428 215.56 47.1293 215.962 46.532 216.167C46.1587 216.316 45.748 216.41 45.3 216.447C44.8707 216.466 44.46 216.484 44.068 216.503C43.1347 216.54 42.22 216.568 41.324 216.587C40.428 216.606 39.504 216.615 38.552 216.615L38.524 218.631C39.532 218.65 40.4653 218.715 41.324 218.827C42.1827 218.92 42.92 219.098 43.536 219.359C44.1707 219.602 44.6653 219.956 45.02 220.423C45.3747 220.89 45.552 221.496 45.552 222.243C45.552 223.12 45.3093 223.802 44.824 224.287C44.3387 224.772 43.676 225.127 42.836 225.351C42.0147 225.594 41.044 225.743 39.924 225.799C38.8227 225.855 37.6373 225.883 36.368 225.883C35.0987 225.883 33.904 225.855 32.784 225.799C31.6827 225.743 30.7213 225.594 29.9 225.351C29.0787 225.127 28.4253 224.772 27.94 224.287C27.4547 223.802 27.212 223.12 27.212 222.243ZM43.088 209.083C43.4427 209.232 43.788 209.419 44.124 209.643C44.46 209.867 44.7773 210.1 45.076 210.343C45.2253 210.474 45.328 210.642 45.384 210.847C45.44 211.052 45.44 211.258 45.384 211.463C45.3467 211.65 45.2533 211.827 45.104 211.995C44.9733 212.144 44.796 212.238 44.572 212.275C43.9747 212.406 43.3493 212.406 42.696 212.275C42.0613 212.126 41.4733 211.93 40.932 211.687C40.428 211.463 39.9613 211.248 39.532 211.043C39.1027 210.838 38.6733 210.614 38.244 210.371C38.1133 210.296 37.936 210.203 37.712 210.091C37.5067 209.979 37.3013 209.867 37.096 209.755C36.8533 209.624 36.592 209.494 36.312 209.363C35.9947 209.512 35.6867 209.652 35.388 209.783C35.1267 209.895 34.8653 210.007 34.604 210.119C34.3613 210.231 34.1653 210.324 34.016 210.399C33.5307 210.66 33.0827 210.884 32.672 211.071C32.2613 211.239 31.8133 211.435 31.328 211.659C30.9547 211.808 30.572 211.986 30.18 212.191C29.8067 212.378 29.4053 212.452 28.976 212.415C28.64 212.396 28.3133 212.312 27.996 212.163C27.6787 212.014 27.4827 211.752 27.408 211.379C27.3893 211.192 27.408 210.978 27.464 210.735C27.5387 210.474 27.66 210.25 27.828 210.063C28.0147 209.876 28.2387 209.708 28.5 209.559L30.432 208.607C30.7493 208.439 31.0293 208.299 31.272 208.187C31.5147 208.075 31.804 207.944 32.14 207.795C32.4573 207.627 32.8213 207.44 33.232 207.235C33.6613 207.03 34.0627 206.862 34.436 206.731V205.863H31.468C31.1693 205.863 30.908 205.872 30.684 205.891C30.4787 205.891 30.236 205.872 29.956 205.835C29.7507 205.798 29.5267 205.779 29.284 205.779C29.0413 205.779 28.8173 205.732 28.612 205.639C28.4067 205.527 28.2387 205.35 28.108 205.107C27.996 204.92 27.9307 204.715 27.912 204.491C27.8933 204.248 27.9307 204.024 28.024 203.819C28.1733 203.52 28.416 203.296 28.752 203.147C29.088 202.998 29.4333 202.923 29.788 202.923H30.432C30.7307 202.942 30.9453 202.951 31.076 202.951C31.2253 202.932 31.4493 202.923 31.748 202.923H41.436C41.7347 202.923 42.08 202.914 42.472 202.895C42.864 202.876 43.2373 202.904 43.592 202.979C43.9653 203.035 44.292 203.156 44.572 203.343C44.8707 203.53 45.0667 203.819 45.16 204.211C45.272 204.659 45.188 205.004 44.908 205.247C44.6467 205.49 44.3013 205.667 43.872 205.779C43.4613 205.872 43.0227 205.928 42.556 205.947C42.0893 205.947 41.7067 205.938 41.408 205.919C41.1093 205.9 40.792 205.891 40.456 205.891C40.1387 205.891 39.8307 205.891 39.532 205.891C39.196 205.891 38.86 205.9 38.524 205.919V206.787C38.636 206.843 38.748 206.908 38.86 206.983C38.9907 207.039 39.1213 207.086 39.252 207.123C39.364 207.179 39.4667 207.235 39.56 207.291C39.672 207.347 39.784 207.403 39.896 207.459C40.0827 207.552 40.26 207.646 40.428 207.739C40.6147 207.814 40.8013 207.898 40.988 207.991C41.3427 208.159 41.688 208.336 42.024 208.523C42.3787 208.71 42.7333 208.896 43.088 209.083ZM41.856 222.243C41.856 221.944 41.688 221.73 41.352 221.599C41.0347 221.468 40.6053 221.384 40.064 221.347C39.5413 221.31 38.9533 221.3 38.3 221.319C37.6467 221.338 37.0027 221.347 36.368 221.347C35.7333 221.347 35.0987 221.338 34.464 221.319C33.8293 221.3 33.26 221.31 32.756 221.347C32.252 221.384 31.8413 221.468 31.524 221.599C31.2253 221.73 31.076 221.944 31.076 222.243C31.076 222.504 31.2253 222.7 31.524 222.831C31.8413 222.962 32.252 223.055 32.756 223.111C33.26 223.148 33.8293 223.167 34.464 223.167C35.0987 223.148 35.7333 223.139 36.368 223.139C37.0027 223.139 37.6467 223.158 38.3 223.195C38.9533 223.232 39.5413 223.242 40.064 223.223C40.6053 223.186 41.0347 223.102 41.352 222.971C41.688 222.84 41.856 222.598 41.856 222.243Z" fill="#727171"/>
<path d="M68.319 225.246C69.159 225.246 69.7563 225.349 70.111 225.554C70.5777 225.834 70.811 226.198 70.811 226.646V228.298V230.034V230.902C70.811 231.052 70.8017 231.182 70.783 231.294C70.783 231.406 70.7643 231.537 70.727 231.686C70.6897 231.836 70.643 231.966 70.587 232.078C70.5497 232.209 70.475 232.33 70.363 232.442C70.2137 232.498 70.0363 232.554 69.831 232.61C69.719 232.722 69.5323 232.778 69.271 232.778H68.907C68.8697 232.778 68.8323 232.769 68.795 232.75C68.7577 232.732 68.7204 232.722 68.683 232.722C68.4963 232.629 68.3377 232.545 68.207 232.47C68.0763 232.396 67.9643 232.284 67.871 232.134C67.815 231.985 67.7497 231.826 67.675 231.658C67.619 231.472 67.5723 231.294 67.535 231.126C67.4977 230.94 67.479 230.753 67.479 230.566C67.479 230.38 67.479 230.202 67.479 230.034V229.026V228.578H67.255C67.2177 228.578 67.1803 228.578 67.143 228.578C67.1057 228.578 67.0403 228.56 66.947 228.522H53.843C53.675 228.522 53.5163 228.494 53.367 228.438C53.2177 228.382 53.087 228.28 52.975 228.13C52.863 228.037 52.7697 227.925 52.695 227.794C52.639 227.664 52.583 227.524 52.527 227.374V226.478C52.583 226.385 52.6297 226.282 52.667 226.17C52.723 226.058 52.807 225.946 52.919 225.834C52.9563 225.76 53.003 225.694 53.059 225.638C53.115 225.564 53.1617 225.508 53.199 225.47C53.3483 225.47 53.4883 225.424 53.619 225.33C53.7123 225.33 53.7777 225.321 53.815 225.302C53.8523 225.265 53.8897 225.246 53.927 225.246H54.067H60.059V222.894H57.707H56.531H55.383C55.3457 222.894 55.2803 222.894 55.187 222.894C55.0937 222.876 55.0097 222.848 54.935 222.81H54.375H53.339C53.2643 222.81 53.171 222.81 53.059 222.81C52.9657 222.81 52.863 222.792 52.751 222.754C52.695 222.754 52.6203 222.745 52.527 222.726C52.4337 222.708 52.3403 222.698 52.247 222.698C52.191 222.586 52.0977 222.512 51.967 222.474C51.9297 222.437 51.883 222.4 51.827 222.362C51.771 222.306 51.6963 222.241 51.603 222.166L51.575 222.138C51.5377 222.101 51.5097 222.064 51.491 222.026C51.4163 221.97 51.379 221.905 51.379 221.83C51.379 221.737 51.3697 221.681 51.351 221.662C51.3323 221.625 51.323 221.588 51.323 221.55V221.214C51.323 221.121 51.3323 221.028 51.351 220.934C51.3697 220.822 51.379 220.72 51.379 220.626C51.435 220.57 51.4723 220.505 51.491 220.43C51.5283 220.356 51.5657 220.29 51.603 220.234C51.6963 220.197 51.7617 220.16 51.799 220.122C51.8363 220.085 51.8737 220.048 51.911 220.01C51.967 219.917 52.0417 219.87 52.135 219.87C52.2097 219.814 52.3217 219.786 52.471 219.786C52.5083 219.786 52.555 219.777 52.611 219.758C52.667 219.721 52.7137 219.702 52.751 219.702C52.9003 219.702 53.0217 219.684 53.115 219.646H53.563H69.719H70.055C70.2604 219.646 70.391 219.665 70.447 219.702H70.867C70.9043 219.74 70.951 219.768 71.007 219.786C71.063 219.786 71.1097 219.786 71.147 219.786C71.5017 219.861 71.7444 220.01 71.875 220.234C72.1177 220.309 72.239 220.477 72.239 220.738V221.018V221.326C72.239 221.625 72.1643 221.858 72.015 222.026C71.8843 222.306 71.6697 222.474 71.371 222.53C71.2777 222.568 71.1843 222.605 71.091 222.642C71.0163 222.68 70.923 222.698 70.811 222.698C70.7177 222.736 70.6337 222.754 70.559 222.754C70.503 222.754 70.4377 222.773 70.363 222.81H69.719C69.607 222.848 69.5043 222.876 69.411 222.894C69.3363 222.894 69.243 222.894 69.131 222.894H68.963H67.703H66.387H63.839V224.182V225.246H68.319ZM54.879 214.578C54.655 214.541 54.4497 214.504 54.263 214.466C54.0763 214.429 53.899 214.364 53.731 214.27C53.5817 214.214 53.4323 214.112 53.283 213.962C53.1523 213.813 53.0497 213.654 52.975 213.486C52.8443 213.001 52.8443 212.59 52.975 212.254C53.0683 211.862 53.2643 211.601 53.563 211.47C53.675 211.358 53.815 211.265 53.983 211.19C54.151 211.116 54.319 211.032 54.487 210.938C54.6363 210.901 54.795 210.882 54.963 210.882C55.1497 210.882 55.3363 210.882 55.523 210.882C55.803 210.92 56.083 210.929 56.363 210.91C56.643 210.892 56.9137 210.882 57.175 210.882H58.855H64.707C65.0057 210.92 65.3043 210.929 65.603 210.91C65.9203 210.892 66.219 210.882 66.499 210.882C66.8163 210.882 67.1243 210.901 67.423 210.938C67.7403 210.957 68.039 210.985 68.319 211.022C68.543 211.022 68.7483 211.041 68.935 211.078C69.1217 211.116 69.3084 211.172 69.495 211.246C69.663 211.284 69.803 211.368 69.915 211.498C70.0457 211.629 70.167 211.806 70.279 212.03C70.391 212.348 70.4657 212.665 70.503 212.982C70.5404 213.281 70.5404 213.617 70.503 213.99L70.531 216.37C70.531 216.52 70.531 216.678 70.531 216.846C70.5497 217.014 70.5404 217.173 70.503 217.322C70.503 217.64 70.4284 217.938 70.279 218.218C70.1857 218.312 70.1017 218.405 70.027 218.498C69.971 218.592 69.8683 218.685 69.719 218.778C69.5697 218.909 69.3737 218.974 69.131 218.974C68.907 219.068 68.6923 219.068 68.487 218.974C68.2443 218.918 68.0203 218.825 67.815 218.694C67.759 218.62 67.6937 218.545 67.619 218.47C67.563 218.396 67.5164 218.312 67.479 218.218C67.3857 217.994 67.311 217.789 67.255 217.602C67.199 217.397 67.171 217.164 67.171 216.902C67.171 216.585 67.1617 216.324 67.143 216.118C67.1243 215.913 67.115 215.68 67.115 215.418C67.115 215.344 67.087 215.269 67.031 215.194L66.947 215.138C66.835 214.914 66.6857 214.802 66.499 214.802C66.443 214.765 66.387 214.728 66.331 214.69C66.2937 214.653 66.2377 214.634 66.163 214.634H65.855C65.6124 214.578 65.379 214.578 65.155 214.634H56.839H55.859C55.691 214.634 55.523 214.634 55.355 214.634C55.187 214.634 55.0283 214.616 54.879 214.578Z" fill="#727171"/>
<path d="M252.272 2H94.5954C86.7492 2 80.3887 8.3605 80.3887 16.2066V84.559C80.3887 92.4051 86.7492 98.7656 94.5954 98.7656H252.272C260.118 98.7656 266.479 92.4051 266.479 84.559V16.2066C266.479 8.3605 260.118 2 252.272 2Z" fill="#FEEED6"/>
<path d="M252.272 2H94.5954C86.7492 2 80.3887 8.3605 80.3887 16.2066V84.559C80.3887 92.4051 86.7492 98.7656 94.5954 98.7656H252.272C260.118 98.7656 266.479 92.4051 266.479 84.559V16.2066C266.479 8.3605 260.118 2 252.272 2Z" stroke="#FEEED6" stroke-width="2.50559"/>
<path d="M253.173 59.2344H95.0872C87.2208 59.2344 80.8438 67.4416 80.8438 77.5657V355.672C80.8438 365.796 87.2208 374.004 95.0872 374.004H253.173C261.039 374.004 267.416 365.796 267.416 355.672V77.5657C267.416 67.4416 261.039 59.2344 253.173 59.2344Z" fill="white"/>
<path d="M252.115 59.2344H94.9999C87.1817 59.2344 80.8438 67.4416 80.8438 77.5657V355.672C80.8438 365.796 87.1817 374.004 94.9999 374.004H252.115C259.934 374.004 266.271 365.796 266.271 355.672V77.5657C266.271 67.4416 259.934 59.2344 252.115 59.2344Z" stroke="#FEEED6" stroke-width="2.50559"/>
<path d="M89.7871 113.031H260.067" stroke="#FEEED6" stroke-width="2.50559" stroke-linecap="round" stroke-linejoin="round"/>
<path d="M444.403 2H286.726C278.88 2 272.52 8.3605 272.52 16.2066V84.559C272.52 92.4051 278.88 98.7656 286.726 98.7656H444.403C452.249 98.7656 458.61 92.4051 458.61 84.559V16.2066C458.61 8.3605 452.249 2 444.403 2Z" fill="#FEEED6"/>
<path d="M444.403 2H286.726C278.88 2 272.52 8.3605 272.52 16.2066V84.559C272.52 92.4051 278.88 98.7656 286.726 98.7656H444.403C452.249 98.7656 458.61 92.4051 458.61 84.559V16.2066C458.61 8.3605 452.249 2 444.403 2Z" stroke="#FEEED6" stroke-width="2.50559"/>
<path d="M444.327 59.2344H286.242C278.375 59.2344 271.998 67.4416 271.998 77.5657V355.672C271.998 365.796 278.375 374.004 286.242 374.004H444.327C452.193 374.004 458.57 365.796 458.57 355.672V77.5657C458.57 67.4416 452.193 59.2344 444.327 59.2344Z" fill="white"/>
<path d="M444.327 59.2344H286.242C278.375 59.2344 271.998 67.4416 271.998 77.5657V355.672C271.998 365.796 278.375 374.004 286.242 374.004H444.327C452.193 374.004 458.57 365.796 458.57 355.672V77.5657C458.57 67.4416 452.193 59.2344 444.327 59.2344Z" stroke="#FEEED6" stroke-width="2.50559"/>
<path d="M277.553 113.031H456.076" stroke="#FEEED6" stroke-width="2.50559" stroke-linecap="round" stroke-linejoin="round"/>
<path d="M698.696 2H478.881C471.034 2 464.674 8.3605 464.674 16.2066V84.559C464.674 92.4051 471.034 98.7656 478.881 98.7656H698.696C706.542 98.7656 712.903 92.4051 712.903 84.559V16.2066C712.903 8.3605 706.542 2 698.696 2Z" fill="#FEEED6"/>
<path d="M698.696 2H478.881C471.034 2 464.674 8.3605 464.674 16.2066V84.559C464.674 92.4051 471.034 98.7656 478.881 98.7656H698.696C706.542 98.7656 712.903 92.4051 712.903 84.559V16.2066C712.903 8.3605 706.542 2 698.696 2Z" stroke="#FEEED6" stroke-width="2.50559"/>
<path d="M733.877 2H953.717C961.56 2 967.924 8.36414 967.924 16.2066V84.559C967.924 92.4015 961.56 98.7656 953.717 98.7656H733.877C726.034 98.7656 719.67 92.4015 719.67 84.559V16.2066C719.67 8.36414 726.034 2 733.877 2Z" fill="#FEEED6"/>
<path d="M733.877 2H953.717C961.56 2 967.924 8.36414 967.924 16.2066V84.559C967.924 92.4015 961.56 98.7656 953.717 98.7656H733.877C726.034 98.7656 719.67 92.4015 719.67 84.559V16.2066C719.67 8.36414 726.034 2 733.877 2Z" stroke="#FEEED6" stroke-width="2.50559"/>
<path d="M698.459 59.2344H478.508C470.657 59.2344 464.293 67.4416 464.293 77.5657V355.672C464.293 365.796 470.657 374.004 478.508 374.004H698.459C706.31 374.004 712.674 365.796 712.674 355.672V77.5657C712.674 67.4416 706.31 59.2344 698.459 59.2344Z" fill="white"/>
<path d="M698.459 59.2344H478.508C470.657 59.2344 464.293 67.4416 464.293 77.5657V355.672C464.293 365.796 470.657 374.004 478.508 374.004H698.459C706.31 374.004 712.674 365.796 712.674 355.672V77.5657C712.674 67.4416 706.31 59.2344 698.459 59.2344Z" stroke="#FEEED6" stroke-width="2.50559"/>
<path d="M733.757 59.2344H953.711C961.557 59.2344 967.924 67.4463 967.924 77.5657V355.672C967.924 365.792 961.557 374.004 953.711 374.004H733.757C725.91 374.004 719.543 365.792 719.543 355.672V77.5657C719.543 67.4463 725.91 59.2344 733.757 59.2344Z" fill="white"/>
<path d="M733.757 59.2344H953.711C961.557 59.2344 967.924 67.4463 967.924 77.5657V355.672C967.924 365.792 961.557 374.004 953.711 374.004H733.757C725.91 374.004 719.543 365.792 719.543 355.672V77.5657C719.543 67.4463 725.91 59.2344 733.757 59.2344Z" stroke="#FEEED6" stroke-width="2.50559"/>
<path d="M482.765 9.80469H694.813C702.656 9.80469 709.02 16.1688 709.02 24.0113V37.1405C709.02 44.983 702.656 51.3473 694.813 51.3473H482.765C474.923 51.3473 468.559 44.983 468.559 37.1405V24.0113C468.559 16.1688 474.923 9.80469 482.765 9.80469Z" fill="white"/>
<path d="M737.759 9.80469H949.808C957.65 9.80469 964.014 16.1688 964.014 24.0113V37.1405C964.014 44.983 957.65 51.3473 949.808 51.3473H737.759C729.917 51.3473 723.553 44.983 723.553 37.1405V24.0113C723.553 16.1688 729.917 9.80469 737.759 9.80469Z" fill="white"/>
<path d="M469.633 113.031H710.42" stroke="#FEEED6" stroke-width="2.50559" stroke-linecap="round" stroke-linejoin="round"/>
<path d="M724.627 113.031H965.439" stroke="#FEEED6" stroke-width="2.50559" stroke-linecap="round" stroke-linejoin="round"/>
<path d="M493.561 34.8564L491.306 36.6104ZM486.421 29.9454L489.678 34.1299ZM484.216 19.8731L478.703 24.1576ZM487.874 35.533L477.526 22.6543C477.275 22.3285 477.325 21.8776 477.651 21.627L481.986 18.2444C482.311 17.9939 482.762 18.0439 483.013 18.3697L493.361 31.2484L487.849 35.533H487.874ZM487.874 35.533L493.712 37.362L493.361 31.2484" fill="white"/>
<mask id="mask0_338_21" style="mask-type:luminance" maskUnits="userSpaceOnUse" x="477" y="18" width="17" height="20">
<path d="M489.676 34.1201L487.872 35.5232L493.71 37.3522L493.359 31.2386L489.676 34.1201ZM482.009 18.2346L477.649 21.6173C477.323 21.8678 477.273 22.3188 477.524 22.6445L478.726 24.1478L487.872 35.5483L489.676 34.1452L493.359 31.2637L483.036 18.385C482.886 18.2096 482.66 18.1094 482.46 18.1094C482.309 18.1094 482.134 18.1595 482.009 18.2597" fill="white"/>
</mask>
<g mask="url(#mask0_338_21)">
<path d="M494.848 33.53L489.668 37.5625L491.592 40.0339L496.772 36.0013L494.848 33.53Z" fill="#B5B5B6"/>
</g>
<path d="M493.561 34.8564L491.306 36.6104M486.421 29.9454L489.678 34.1299M484.216 19.8731L478.703 24.1576M487.874 35.533L477.526 22.6543C477.275 22.3285 477.325 21.8776 477.651 21.627L481.986 18.2444C482.311 17.9939 482.762 18.0439 483.013 18.3697L493.361 31.2484M487.874 35.533H487.849L493.361 31.2484M487.874 35.533L493.712 37.362L493.361 31.2484" stroke="#B5B5B6" stroke-width="0.902011" stroke-linecap="round" stroke-linejoin="round"/>
<path d="M748.581 34.8564L746.326 36.6104ZM741.44 29.9454L744.697 34.1299ZM739.235 19.8731L733.723 24.1576ZM742.893 35.533L732.545 22.6543C732.295 22.3285 732.345 21.8776 732.67 21.627L737.005 18.2444C737.331 17.9939 737.782 18.0439 738.032 18.3697L748.381 31.2484L742.868 35.533H742.893ZM742.893 35.533L748.731 37.362L748.381 31.2484" fill="white"/>
<path d="M748.581 34.8564L746.326 36.6104M741.44 29.9454L744.697 34.1299M739.235 19.8731L733.723 24.1576M742.893 35.533L732.545 22.6543C732.295 22.3285 732.345 21.8776 732.67 21.627L737.005 18.2444C737.331 17.9939 737.782 18.0439 738.032 18.3697L748.381 31.2484M742.893 35.533H742.868L748.381 31.2484M742.893 35.533L748.731 37.362L748.381 31.2484" stroke="#B5B5B6" stroke-width="0.902011" stroke-linecap="round" stroke-linejoin="round"/>
<defs>
<filter id="filter0_f_338_21" x="0.65625" y="105.273" width="112.406" height="37.4922" filterUnits="userSpaceOnUse" color-interpolation-filters="sRGB">
<feFlood flood-opacity="0" result="BackgroundImageFix"/>
<feBlend mode="normal" in="SourceGraphic" in2="BackgroundImageFix" result="shape"/>
<feGaussianBlur stdDeviation="5" result="effect1_foregroundBlur_338_21"/>
</filter>
<filter id="filter1_f_338_21" x="0.65625" y="221.828" width="112.406" height="37.5156" filterUnits="userSpaceOnUse" color-interpolation-filters="sRGB">
<feFlood flood-opacity="0" result="BackgroundImageFix"/>
<feBlend mode="normal" in="SourceGraphic" in2="BackgroundImageFix" result="shape"/>
<feGaussianBlur stdDeviation="5" result="effect1_foregroundBlur_338_21"/>
</filter>
</defs>
</svg>
