<svg width="20" height="22" viewBox="0 0 20 22" fill="none" xmlns="http://www.w3.org/2000/svg">
<path d="M9.63696 0.988281C15.3575 0.988281 20 5.63075 20 11.3513C20 17.0719 15.3575 21.7144 9.63696 21.7144C5.25853 21.7144 1.51815 19.0081 0 15.1797H6.88669V17.886C6.88669 18.458 7.34873 18.9201 7.92079 18.9201C8.20682 18.9201 8.44884 18.8101 8.64686 18.634L16.3036 12.1434C16.7437 11.7694 16.7877 11.1093 16.4136 10.6692C16.3696 10.6252 16.3256 10.5812 16.2816 10.5372L8.58086 4.00258C8.14081 3.62854 7.48075 3.69455 7.12871 4.1346C6.95269 4.33262 6.88669 4.57464 6.88669 4.79466V7.50093H0C1.51815 3.69455 5.25853 0.988281 9.63696 0.988281Z" fill="#A87752"/>
</svg>
