<svg width="189" height="31" viewBox="0 0 189 31" fill="none" xmlns="http://www.w3.org/2000/svg">
<path d="M9.63696 4.99072C15.3575 4.99072 20 9.63319 20 15.3538C20 21.0743 15.3575 25.7168 9.63696 25.7168C5.25853 25.7168 1.51815 23.0105 0 19.1821H6.88669V21.8884C6.88669 22.4605 7.34873 22.9225 7.92079 22.9225C8.20682 22.9225 8.44884 22.8125 8.64686 22.6365L16.3036 16.1458C16.7437 15.7718 16.7877 15.1117 16.4136 14.6717C16.3696 14.6277 16.3256 14.5837 16.2816 14.5397L8.58086 8.00502C8.14081 7.63099 7.48075 7.69699 7.12871 8.13704C6.95269 8.33506 6.88669 8.57708 6.88669 8.7971V11.5034H0C1.51815 7.69699 5.25853 4.99072 9.63696 4.99072Z" fill="#A87752"/>
<path d="M31.4392 7.00151V24.4015L29.1592 24.3775V9.47352L26.2312 11.2255L25.1992 9.35352L29.1832 7.00151H31.4392ZM44.1668 15.4015C45.7268 16.3135 46.6628 18.0175 46.6628 19.4815C46.6628 22.4335 44.2628 24.5455 40.8308 24.5455C37.4468 24.5455 35.0468 22.4095 35.0468 19.3855H37.3268C37.3268 21.2335 38.7668 22.5295 40.8308 22.5295C42.9428 22.5295 44.4308 21.2335 44.4308 19.3855C44.4308 17.6095 42.9668 16.3615 40.8788 16.3615H39.6308V14.4175H40.9028C42.8228 14.4175 44.1668 13.2655 44.1668 11.6575C44.1668 10.0015 42.8708 8.84951 40.9988 8.84951C39.1268 8.84951 37.8308 10.0255 37.8308 11.6815H35.5508C35.5508 8.82552 37.8068 6.83352 40.9988 6.83352C44.1668 6.83352 46.3988 8.80152 46.3988 11.5855C46.3988 12.9055 45.5828 14.4895 44.1668 15.4015ZM55.0853 8.77751C52.9013 8.77751 51.3893 10.3375 51.3893 12.5695C51.3893 14.8015 52.9013 16.3615 55.0853 16.3615C57.1973 16.3615 58.7093 14.8015 58.7093 12.5695C58.7093 10.3375 57.1973 8.77751 55.0853 8.77751ZM60.9893 12.5695C60.9893 13.8175 60.5573 14.9455 60.0533 15.8575L55.2053 24.4255H52.5893L56.1173 18.2335C55.7573 18.3055 55.3973 18.3535 55.0133 18.3535C51.5333 18.3535 49.1093 15.9535 49.1093 12.5695C49.1093 9.16152 51.5573 6.78551 55.0373 6.78551C58.5413 6.78551 60.9893 9.16152 60.9893 12.5695ZM63.9817 15.5695C64.7017 13.8175 66.4297 12.6415 68.2057 12.7375C68.9257 12.7855 69.9097 13.1215 70.5577 13.5535L72.5737 14.8015C72.9817 15.0415 73.5097 15.2335 73.8217 15.2575C74.6137 15.2815 75.4297 14.7055 75.7657 13.8415L77.9737 14.6815C77.2777 16.4815 75.5017 17.7055 73.6777 17.6095C73.0297 17.5615 72.0697 17.2495 71.3737 16.8175L69.3097 15.5215C68.9257 15.3055 68.4217 15.1135 68.0617 15.0895C67.2937 15.0655 66.5017 15.6415 66.1657 16.4575L63.9817 15.5695ZM86.6579 7.00151V24.4015L84.3779 24.3775V9.47352L81.4499 11.2255L80.4179 9.35352L84.4019 7.00151H86.6579ZM100.322 6.97751V17.7775H102.65V19.7695H100.322V24.4015H98.0416V19.7695H90.5056L90.2656 17.7775L98.1376 6.97751H100.322ZM93.0016 17.7775H98.0416V10.8175L93.0016 17.7775ZM111.51 22.5535C113.982 22.5535 115.662 19.7455 115.662 15.6895C115.662 11.6095 113.982 8.82552 111.51 8.82552C109.038 8.82552 107.358 11.6095 107.358 15.6895C107.358 19.7455 109.038 22.5535 111.51 22.5535ZM111.51 24.5695C107.742 24.5695 105.078 20.8975 105.078 15.6895C105.078 10.4815 107.742 6.80952 111.51 6.80952C115.278 6.80952 117.942 10.4815 117.942 15.6895C117.942 20.8975 115.278 24.5695 111.51 24.5695ZM121.271 5.77751H129.191V7.64951H126.719V7.86551C126.719 8.96951 127.775 10.4575 129.623 11.2495C131.471 10.4815 132.479 9.04152 132.479 7.86551V7.64951H130.031V5.77751H137.927V7.64951H134.855V7.96151C134.855 9.47352 136.175 11.1535 138.695 11.8015L137.687 13.5535C135.623 12.9535 134.255 11.7055 133.583 10.2415C132.887 11.5375 131.567 12.7135 129.599 13.2655C127.631 12.7135 126.311 11.5135 125.615 10.2175C124.943 11.6575 123.575 12.9295 121.511 13.5535L120.551 11.8015C123.023 11.1055 124.367 9.32951 124.367 7.96151V7.64951H121.271V5.77751ZM120.023 15.3775H128.447V13.4095H130.775V15.3775H139.247V17.2735H120.023V15.3775ZM122.111 19.3375H136.823V26.2255H134.471V21.1855H122.111V19.3375ZM147.131 7.31351H151.643V4.88951H153.995V7.31351H158.507V9.20951H153.995V9.35352C153.995 11.8015 155.819 14.0575 159.059 14.9695L157.979 16.8415C155.555 16.1215 153.803 14.6335 152.843 12.7375C151.907 14.8015 150.083 16.4335 147.587 17.2015L146.483 15.3535C149.723 14.3935 151.643 11.9935 151.643 9.35352V9.20951H147.131V7.31351ZM160.739 4.98551H163.091V10.1935H166.115V12.1615H163.091V17.5135H160.739V4.98551ZM149.579 18.4735H163.091V25.9615H149.579V18.4735ZM160.787 20.3215H151.883V24.0895H160.787V20.3215ZM169.499 6.97751H184.571V9.06552C184.571 11.7055 184.571 14.6335 183.803 19.0255L181.427 18.7615C182.219 14.6095 182.219 11.6095 182.219 9.06552V8.89751H169.499V6.97751ZM167.507 21.4495H174.731V13.9855H177.059V21.4495H186.707V23.3935H167.507V21.4495Z" fill="#A87752"/>
</svg>
