<svg width="127" height="20" viewBox="0 0 127 20" fill="none" xmlns="http://www.w3.org/2000/svg">
<g clip-path="url(#clip0_176_1950)">
<path d="M12.2709 1.23638L14.2091 7.02698H20.4869C20.9504 7.00561 21.3296 7.28339 21.4771 7.7321C21.6035 8.15945 21.456 8.60817 21.0979 8.86458L15.9997 12.433L17.9589 18.1381C18.1064 18.5654 17.9589 18.9928 17.6219 19.2706C17.2637 19.5483 16.7581 19.5483 16.4 19.2919L11.3229 15.7236L6.24585 19.2919C5.86665 19.5483 5.38212 19.5483 5.02398 19.2706C4.66585 18.9928 4.53945 18.5654 4.66585 18.1381L6.60399 12.3475L1.50584 8.84322C1.12664 8.58681 0.979175 8.13809 1.12664 7.71074C1.25304 7.28339 1.65331 6.98424 2.11678 6.98424H8.41572L10.3328 1.23638C10.4803 0.809028 10.8595 0.53125 11.3019 0.53125C11.7443 0.53125 12.1445 0.809028 12.2709 1.23638Z" stroke="#8F5EA4" stroke-linecap="round" stroke-linejoin="round"/>
<path d="M38.3934 1.23638L40.3316 7.02698H46.6094C47.0729 7.00561 47.4521 7.28339 47.5996 7.7321C47.726 8.15945 47.5785 8.60817 47.2204 8.86458L42.1222 12.433L44.0814 18.1381C44.2289 18.5654 44.0814 18.9928 43.7444 19.2706C43.3862 19.5483 42.8806 19.5483 42.5225 19.2919L37.4454 15.7236L32.3683 19.2919C31.9891 19.5483 31.5046 19.5483 31.1465 19.2706C30.7883 18.9928 30.6619 18.5654 30.7883 18.1381L32.7265 12.3475L27.6494 8.84322C27.2702 8.58681 27.1227 8.13809 27.2702 7.71074C27.3966 7.28339 27.7969 6.98424 28.2603 6.98424H34.5593L36.4763 1.23638C36.6238 0.809028 37.003 0.53125 37.4454 0.53125C37.8878 0.53125 38.2881 0.809028 38.4145 1.23638H38.3934Z" stroke="#8F5EA4" stroke-linecap="round" stroke-linejoin="round"/>
<path d="M64.5165 1.23638L66.4546 7.02698H72.7325C73.1959 7.00561 73.5752 7.28339 73.7226 7.7321C73.849 8.15945 73.7016 8.60817 73.3434 8.86458L68.2453 12.433L70.2045 18.1381C70.3519 18.5654 70.2045 18.9928 69.8674 19.2706C69.5093 19.5483 69.0037 19.5483 68.6455 19.2919L63.5685 15.7236L58.4914 19.2919C58.1122 19.5483 57.6277 19.5483 57.2695 19.2706C56.9114 18.9928 56.785 18.5654 56.9114 18.1381L58.8495 12.3475L53.7724 8.84322C53.3932 8.58681 53.2458 8.13809 53.3932 7.71074C53.5196 7.28339 53.9199 6.98424 54.3834 6.98424H60.6823L62.5994 1.23638C62.7469 0.809028 63.1261 0.53125 63.5685 0.53125C64.0109 0.53125 64.4111 0.809028 64.5375 1.23638H64.5165Z" stroke="#8F5EA4" stroke-linecap="round" stroke-linejoin="round"/>
<path d="M90.639 1.23638L92.5772 7.02698H98.855C99.3185 7.00561 99.6977 7.28339 99.8452 7.7321C99.9716 8.15945 99.8241 8.60817 99.466 8.86458L94.3678 12.433L96.327 18.1381C96.4745 18.5654 96.327 18.9928 95.99 19.2706C95.6318 19.5483 95.1262 19.5483 94.7681 19.2919L89.691 15.7236L84.6139 19.2919C84.2347 19.5483 83.7502 19.5483 83.3921 19.2706C83.0339 18.9928 82.9075 18.5654 83.0339 18.1381L84.9721 12.3475L79.895 8.84322C79.5158 8.58681 79.3683 8.13809 79.5158 7.71074C79.6422 7.28339 80.0425 6.98424 80.5059 6.98424H86.8049L88.722 1.23638C88.8694 0.809028 89.2486 0.53125 89.691 0.53125C90.1334 0.53125 90.5337 0.809028 90.6601 1.23638H90.639Z" stroke="#8F5EA4" stroke-linecap="round" stroke-linejoin="round"/>
<path d="M116.762 1.23638L118.7 7.02698H124.978C125.441 7.00561 125.82 7.28339 125.968 7.7321C126.094 8.15945 125.947 8.60817 125.589 8.86458L120.49 12.433L122.45 18.1381C122.597 18.5654 122.45 18.9928 122.113 19.2706C121.754 19.5483 121.249 19.5483 120.891 19.2919L115.814 15.7236L110.737 19.2919C110.357 19.5483 109.873 19.5483 109.515 19.2706C109.157 18.9928 109.03 18.5654 109.157 18.1381L111.095 12.3475L106.018 8.84322C105.638 8.58681 105.491 8.13809 105.638 7.71074C105.765 7.28339 106.165 6.98424 106.628 6.98424H112.927L114.845 1.23638C114.992 0.809028 115.371 0.53125 115.814 0.53125C116.256 0.53125 116.656 0.809028 116.783 1.23638H116.762Z" stroke="#8F5EA4" stroke-linecap="round" stroke-linejoin="round"/>
</g>
<defs>
<clipPath id="clip0_176_1950">
<rect width="126" height="20" fill="white" transform="translate(0.536621)"/>
</clipPath>
</defs>
</svg>
