<svg width="944" height="361" viewBox="0 0 944 361" fill="none" xmlns="http://www.w3.org/2000/svg">
<path d="M41 46H33C16.4315 46 3 59.4315 3 76V318.778C3 331.603 13.3969 342 26.2222 342V342" stroke="#CFD686" stroke-width="5" stroke-dasharray="1 1"/>
<path d="M69.5068 336.161H72.0508V338.777C72.0508 341.129 73.3708 343.457 76.1548 344.561L74.7628 346.553C72.8908 345.809 71.5708 344.465 70.8268 342.785C70.0348 344.705 68.6668 346.337 66.6268 347.201L65.2348 345.161C68.1388 343.889 69.5068 341.201 69.5068 338.777V336.161ZM81.0268 334.889H83.5468V347.993H81.0268V342.425H78.9628V347.321H76.4908V335.297H78.9628V340.289H81.0268V334.889ZM76.3708 348.353C80.8348 348.353 83.6428 349.841 83.6428 352.289C83.6428 354.761 80.8348 356.225 76.3708 356.225C71.9308 356.225 69.1228 354.761 69.1228 352.289C69.1228 349.841 71.9308 348.353 76.3708 348.353ZM76.3708 350.369C73.4428 350.369 71.7388 351.041 71.7388 352.289C71.7388 353.537 73.4428 354.233 76.3708 354.233C79.3228 354.233 81.0028 353.537 81.0028 352.289C81.0028 351.041 79.3228 350.369 76.3708 350.369ZM87.2193 336.113H96.9393V342.401H89.8833V344.825C93.4593 344.801 95.9553 344.681 98.8353 344.153L99.0753 346.289C95.9553 346.865 93.1713 346.961 89.0193 346.961H87.2673V340.433H94.3233V338.201H87.2193V336.113ZM100.515 334.889H103.155V338.009H106.107V340.169H103.155V342.521H106.107V344.681H103.155V347.873H100.515V334.889ZM89.0433 348.905H103.155V356.249H100.515V351.017H89.0433V348.905ZM121.396 334.889H124.036V343.385H127.276V345.569H124.036V356.249H121.396V334.889ZM107.284 338.129H112.252V335.201H114.916V338.129H119.812V340.241H107.284V338.129ZM113.596 341.681C116.692 341.681 118.948 343.745 118.948 346.697C118.948 349.649 116.692 351.713 113.596 351.713C110.548 351.713 108.268 349.649 108.268 346.697C108.268 343.745 110.548 341.681 113.596 341.681ZM113.596 343.817C111.964 343.817 110.812 344.945 110.812 346.697C110.812 348.449 111.964 349.553 113.596 349.553C115.228 349.553 116.404 348.449 116.404 346.697C116.404 344.945 115.228 343.817 113.596 343.817ZM134.14 336.401C136.084 336.401 137.668 337.505 138.628 339.401H143.524V334.841H146.14V356.273H143.524V348.209H138.796C137.86 350.321 136.18 351.545 134.14 351.545C130.996 351.545 128.716 348.617 128.716 343.961C128.716 339.329 130.996 336.401 134.14 336.401ZM134.14 338.801C132.412 338.801 131.212 340.697 131.212 343.961C131.212 347.249 132.412 349.169 134.14 349.169C135.916 349.169 137.116 347.249 137.116 343.961C137.116 340.697 135.916 338.801 134.14 338.801ZM139.348 341.537C139.516 342.281 139.588 343.097 139.588 343.961C139.588 344.705 139.54 345.425 139.42 346.073H143.524V341.537H139.348ZM154.888 351.641H159.88V347.249H156.544V345.137H159.52V338.777H156.448V336.665H172.552V338.777H169.504V345.137H172.504V347.249H169.144V351.641H174.232V353.777H154.888V351.641ZM162.16 345.137H166.888V338.777H162.16V345.137ZM162.496 351.641H166.552V347.249H162.496V351.641ZM190.889 334.865H193.529V356.225H190.889V334.865ZM187.217 337.097C187.217 343.505 184.793 348.881 177.353 352.481L175.985 350.393C181.529 347.729 184.049 344.105 184.505 339.233H177.041V337.097H187.217Z" fill="#8A9347"/>
<path d="M50.4158 342.124C50.4935 342.61 50.5324 343.115 50.5324 343.62C50.5324 349.098 46.0839 353.546 40.5865 353.546C35.0891 353.546 30.6601 349.098 30.6601 343.62C30.6601 338.142 35.1085 333.693 40.5865 333.693C42.8593 333.693 44.9378 334.451 46.6084 335.733L47.8905 334.451C45.8897 332.858 43.3449 331.906 40.5865 331.906C34.0984 331.906 28.8535 337.171 28.8535 343.639C28.8535 350.108 34.1178 355.372 40.5865 355.372C47.0552 355.372 52.3389 350.108 52.3389 343.639C52.3389 342.59 52.203 341.58 51.9504 340.628L50.4158 342.163V342.124Z" fill="#EDB476"/>
<path d="M52.0859 332.797L40.586 344.277L35.4771 339.168L33.418 342.238L40.586 349.386L54.1256 335.847L52.0859 332.797Z" fill="#EDB476"/>
<path d="M100 46H75V56H100V46Z" fill="#C2CC66"/>
<path d="M94 46.4409V49.0866C94 52.9134 97.1412 56 101 56C104.859 56 108 52.8976 108 49.0866V46" fill="#8A9347"/>
<path d="M114.512 34.488C114.064 34.488 113.627 34.456 113.2 34.392C112.795 34.3067 112.421 34.1147 112.08 33.816C111.824 33.624 111.632 33.3787 111.504 33.08C111.376 32.76 111.28 32.4507 111.216 32.152C111.173 31.832 111.152 31.544 111.152 31.288C111.152 31.032 111.152 30.872 111.152 30.808V13.88C111.152 13.5813 111.173 13.2613 111.216 12.92C111.28 12.5787 111.376 12.2587 111.504 11.96C111.653 11.6613 111.835 11.416 112.048 11.224C112.283 11.032 112.571 10.936 112.912 10.936C113.403 10.936 113.755 11.0427 113.968 11.256C114.181 11.4693 114.363 11.8 114.512 12.248C114.597 12.5253 114.651 12.8133 114.672 13.112C114.693 13.3893 114.715 13.6773 114.736 13.976V14.04L114.768 20.376C114.96 20.3973 115.173 20.408 115.408 20.408C115.643 20.408 115.899 20.408 116.176 20.408V13.912C116.176 13.8907 116.176 13.7947 116.176 13.624C116.176 13.4533 116.197 13.2507 116.24 13.016C116.283 12.76 116.347 12.5147 116.432 12.28C116.517 12.024 116.645 11.8107 116.816 11.64C117.093 11.3627 117.435 11.224 117.84 11.224C118.245 11.224 118.597 11.3733 118.896 11.672C119.152 11.9707 119.301 12.28 119.344 12.6C119.387 12.8987 119.429 13.2187 119.472 13.56C119.472 13.6027 119.483 13.7627 119.504 14.04C119.525 14.296 119.536 14.584 119.536 14.904C119.557 15.2027 119.568 15.48 119.568 15.736C119.589 15.992 119.6 16.12 119.6 16.12C119.6 16.1627 119.6 16.312 119.6 16.568C119.6 16.8027 119.589 17.112 119.568 17.496C119.568 17.88 119.568 18.328 119.568 18.84C119.568 19.3307 119.568 19.8427 119.568 20.376C119.803 20.3547 120.037 20.344 120.272 20.344C120.507 20.344 120.731 20.3333 120.944 20.312L121.072 14.168C121.072 13.9547 121.061 13.6667 121.04 13.304C121.019 12.9413 121.04 12.5787 121.104 12.216C121.189 11.8533 121.328 11.544 121.52 11.288C121.733 11.0107 122.064 10.872 122.512 10.872C122.917 10.872 123.269 10.9893 123.568 11.224C123.803 11.3947 123.984 11.6933 124.112 12.12C124.24 12.5253 124.325 12.984 124.368 13.496C124.432 13.9867 124.464 14.488 124.464 15C124.464 15.512 124.453 15.928 124.432 16.248L124.4 28.984C124.4 29.24 124.4 29.5387 124.4 29.88C124.4 30.2213 124.379 30.5733 124.336 30.936C124.315 31.2987 124.261 31.6613 124.176 32.024C124.091 32.3867 123.963 32.728 123.792 33.048C123.728 33.176 123.632 33.3253 123.504 33.496C123.397 33.6453 123.312 33.7413 123.248 33.784C123.12 33.9547 122.939 34.0827 122.704 34.168C122.491 34.2533 122.267 34.3173 122.032 34.36C121.819 34.4027 121.627 34.4347 121.456 34.456C121.285 34.456 121.168 34.456 121.104 34.456L114.512 34.488ZM134.96 15.8C134.96 15.9067 134.949 16.0027 134.928 16.088C134.928 16.1733 134.928 16.248 134.928 16.312V31.864C134.928 31.928 134.928 32.0027 134.928 32.088C134.949 32.152 134.96 32.2373 134.96 32.344C134.981 32.8347 134.971 33.3467 134.928 33.88C134.885 34.392 134.715 34.8613 134.416 35.288C134.011 35.8427 133.541 36.0773 133.008 35.992C132.496 35.9067 132.101 35.5547 131.824 34.936C131.653 34.5093 131.536 34.072 131.472 33.624C131.408 33.176 131.376 32.728 131.376 32.28V24.312H129.616V31.864C129.616 31.9493 129.616 32.0453 129.616 32.152C129.616 32.2373 129.627 32.344 129.648 32.472C129.669 32.9413 129.648 33.4533 129.584 34.008C129.541 34.5413 129.413 34.9573 129.2 35.256C128.965 35.5973 128.603 35.768 128.112 35.768C127.856 35.768 127.6 35.7147 127.344 35.608C127.088 35.5227 126.875 35.3947 126.704 35.224C126.341 34.8827 126.139 34.4453 126.096 33.912C126.075 33.3787 126.064 32.8773 126.064 32.408V13.656C126.064 13.3787 126.064 13.0693 126.064 12.728C126.064 12.3653 126.096 12.0347 126.16 11.736C126.245 11.416 126.373 11.1387 126.544 10.904C126.736 10.648 127.013 10.4773 127.376 10.392C127.611 10.328 127.856 10.3067 128.112 10.328C128.389 10.3493 128.613 10.4453 128.784 10.616C129.019 10.8507 129.189 11.1813 129.296 11.608C129.424 12.0347 129.509 12.504 129.552 13.016C129.595 13.528 129.616 14.0613 129.616 14.616C129.616 15.1493 129.616 15.6507 129.616 16.12V20.472H131.376V13.944C131.376 13.6453 131.365 13.304 131.344 12.92C131.344 12.536 131.387 12.1627 131.472 11.8C131.557 11.4373 131.707 11.128 131.92 10.872C132.155 10.5947 132.496 10.424 132.944 10.36C133.392 10.3173 133.776 10.456 134.096 10.776C134.331 11.032 134.512 11.3733 134.64 11.8C134.768 12.2267 134.853 12.6747 134.896 13.144C134.939 13.6133 134.96 14.0933 134.96 14.584C134.96 15.0533 134.96 15.4587 134.96 15.8ZM114.608 24.152C114.608 24.3227 114.608 24.7387 114.608 25.4C114.608 26.0613 114.608 26.776 114.608 27.544C114.608 28.2907 114.608 28.9947 114.608 29.656C114.608 30.296 114.608 30.6907 114.608 30.84H116.176V24.152H114.608ZM119.504 24.152C119.504 24.728 119.493 25.336 119.472 25.976C119.472 26.5947 119.472 27.2027 119.472 27.8C119.472 28.376 119.461 28.9307 119.44 29.464C119.44 29.9973 119.44 30.456 119.44 30.84L121.072 30.808L121.008 24.12L119.504 24.152ZM160.979 33.624C160.936 33.88 160.904 34.136 160.883 34.392C160.861 34.6267 160.808 34.872 160.723 35.128C160.68 35.2133 160.648 35.288 160.627 35.352C160.605 35.416 160.573 35.4907 160.531 35.576C160.381 35.8747 160.189 36.1093 159.955 36.28C159.464 36.5787 158.92 36.6533 158.323 36.504C157.981 36.44 157.704 36.312 157.491 36.12C157.299 35.9493 157.149 35.7253 157.043 35.448C156.957 35.192 156.883 34.936 156.819 34.68C156.776 34.424 156.755 34.2 156.755 34.008C156.755 33.816 156.755 33.7093 156.755 33.688V13.912C156.755 13.656 156.755 13.3787 156.755 13.08C156.755 12.7813 156.776 12.4827 156.819 12.184C156.861 11.8853 156.925 11.608 157.011 11.352C157.096 11.096 157.213 10.8933 157.363 10.744C157.597 10.5093 157.843 10.3707 158.099 10.328C158.355 10.264 158.632 10.232 158.931 10.232C159.293 10.232 159.624 10.3387 159.923 10.552C160.243 10.744 160.467 11.0213 160.595 11.384C160.787 11.832 160.893 12.3013 160.915 12.792C160.936 13.2827 160.957 13.7733 160.979 14.264V14.424C161.021 16.0667 161.032 17.752 161.011 19.48C160.989 21.208 160.979 22.84 160.979 24.376V32.472C160.979 32.664 160.979 32.856 160.979 33.048C161 33.24 161 33.432 160.979 33.624ZM145.875 30.488C145.853 30.232 145.843 29.976 145.843 29.72C145.843 29.464 145.843 29.208 145.843 28.952V18.776C145.843 18.4347 145.843 18.0933 145.843 17.752C145.843 17.4107 145.821 17.0587 145.779 16.696C145.757 16.5893 145.725 16.44 145.683 16.248C145.661 16.056 145.597 15.9387 145.491 15.896C145.384 15.832 145.256 15.8107 145.107 15.832C144.979 15.832 144.851 15.8213 144.723 15.8C144.573 15.7787 144.424 15.7787 144.275 15.8C144.147 15.8213 144.008 15.8213 143.859 15.8H142.355C141.992 15.8213 141.629 15.8213 141.266 15.8C140.904 15.7787 140.541 15.7787 140.179 15.8C140.008 15.8213 139.848 15.832 139.699 15.832C139.571 15.8107 139.421 15.8 139.251 15.8C139.016 15.8 138.771 15.7893 138.515 15.768C138.259 15.7467 138.024 15.6613 137.811 15.512C137.512 15.2987 137.309 15.032 137.203 14.712C137.096 14.392 137.043 14.0613 137.043 13.72C137.021 13.3147 137.107 12.9093 137.299 12.504C137.405 12.248 137.544 12.0667 137.715 11.96C137.821 11.8533 137.971 11.768 138.163 11.704C138.376 11.6187 138.557 11.5547 138.707 11.512C139.155 11.4053 139.624 11.352 140.115 11.352C140.605 11.3307 141.085 11.32 141.555 11.32H147.123C147.4 11.3627 147.688 11.4053 147.987 11.448C148.307 11.4693 148.595 11.5333 148.851 11.64C149.021 11.704 149.181 11.7893 149.331 11.896C149.501 12.0027 149.64 12.1307 149.747 12.28C149.939 12.5787 150.045 12.8773 150.067 13.176C150.109 13.4747 150.152 13.8053 150.195 14.168C150.237 14.7653 150.259 15.3627 150.259 15.96C150.259 16.536 150.259 17.1227 150.259 17.72V28.216C150.259 28.2373 150.259 28.408 150.259 28.728C150.28 29.0267 150.291 29.3893 150.291 29.816C150.291 30.2213 150.291 30.6587 150.291 31.128C150.291 31.576 150.28 31.9707 150.259 32.312C150.237 32.5253 150.205 32.7493 150.163 32.984C150.12 33.2187 150.045 33.4427 149.939 33.656C149.853 33.8693 149.725 34.0613 149.555 34.232C149.384 34.4027 149.16 34.5413 148.883 34.648C148.52 34.7973 148.157 34.872 147.795 34.872C147.517 34.872 147.24 34.8187 146.963 34.712C146.685 34.584 146.493 34.4027 146.387 34.168C146.045 33.4853 145.875 32.728 145.875 31.896V30.488ZM194.255 23.672C194.489 23.736 194.777 23.7787 195.119 23.8C195.481 23.8213 195.748 23.8747 195.919 23.96C196.089 24.0027 196.228 24.0773 196.335 24.184C196.463 24.2907 196.58 24.3867 196.687 24.472C196.836 24.664 196.932 24.888 196.975 25.144C197.039 25.4 197.049 25.656 197.007 25.912C196.985 26.168 196.911 26.4133 196.783 26.648C196.676 26.8613 196.527 27.032 196.335 27.16C196.143 27.288 195.855 27.384 195.471 27.448C195.108 27.4907 194.745 27.5227 194.383 27.544C193.956 27.5653 193.497 27.5547 193.007 27.512H191.503V29.208V31.448V32.664C191.503 32.92 191.481 33.2293 191.439 33.592C191.396 33.9333 191.332 34.232 191.247 34.488C191.14 34.7013 191.023 34.904 190.895 35.096C190.788 35.3093 190.617 35.48 190.383 35.608C190.255 35.7147 190.095 35.7787 189.903 35.8C189.711 35.8427 189.529 35.864 189.359 35.864C189.145 35.864 188.932 35.8427 188.719 35.8C188.527 35.7787 188.367 35.7147 188.239 35.608C188.004 35.48 187.823 35.288 187.695 35.032C187.567 34.776 187.471 34.4987 187.407 34.2C187.343 33.88 187.3 33.5707 187.279 33.272C187.279 32.9733 187.279 32.7173 187.279 32.504V27.512H182.255V29.112V32.6C182.255 32.7707 182.255 32.9413 182.255 33.112C182.255 33.2613 182.233 33.4 182.191 33.528C182.191 33.6987 182.159 33.8907 182.095 34.104C182.031 34.296 181.977 34.4773 181.935 34.648C181.828 34.8187 181.711 34.9787 181.583 35.128C181.476 35.2987 181.337 35.4267 181.167 35.512C180.996 35.6613 180.815 35.7573 180.623 35.8C180.452 35.8427 180.249 35.864 180.015 35.864C179.844 35.864 179.663 35.8427 179.471 35.8C179.279 35.7787 179.097 35.7147 178.927 35.608C178.585 35.3733 178.34 35.0107 178.191 34.52C178.041 34.0293 177.988 33.5813 178.031 33.176V27.512H176.143C175.929 27.512 175.705 27.4907 175.471 27.448C175.236 27.4053 175.001 27.3627 174.767 27.32C174.553 27.2347 174.361 27.1493 174.191 27.064C174.02 26.9573 173.871 26.8187 173.743 26.648C173.465 26.264 173.38 25.8267 173.487 25.336C173.487 25.1653 173.508 24.9947 173.551 24.824C173.615 24.6533 173.732 24.4827 173.903 24.312C173.945 24.2053 174.02 24.1307 174.127 24.088C174.255 24.0453 174.383 24.0027 174.511 23.96C174.724 23.8747 174.937 23.8107 175.151 23.768C175.364 23.704 175.577 23.672 175.791 23.672H189.103V22.488C189.103 21.528 189.081 20.568 189.039 19.608C189.017 18.6267 189.007 17.656 189.007 16.696C189.007 16.3973 188.996 16.1093 188.975 15.832C188.953 15.5333 188.729 15.3627 188.303 15.32H187.919H177.807C177.572 15.32 177.359 15.3093 177.167 15.288C176.975 15.2453 176.751 15.2027 176.495 15.16C176.068 14.968 175.716 14.7013 175.439 14.36C175.289 14.04 175.215 13.6133 175.215 13.08C175.257 12.824 175.311 12.5893 175.375 12.376C175.46 12.1627 175.577 12.0027 175.727 11.896C175.855 11.7467 175.993 11.6507 176.143 11.608C176.292 11.544 176.441 11.4693 176.591 11.384C176.932 11.256 177.273 11.192 177.615 11.192C177.785 11.192 177.956 11.1813 178.127 11.16C178.319 11.1173 178.532 11.096 178.767 11.096H189.167C189.337 11.096 189.508 11.1173 189.679 11.16C189.871 11.1813 190.084 11.192 190.319 11.192C190.681 11.192 191.044 11.256 191.407 11.384C191.791 11.448 192.132 11.6187 192.431 11.896C192.708 12.1093 192.911 12.376 193.039 12.696C193.188 12.9947 193.284 13.3147 193.327 13.656C193.369 13.9973 193.391 14.3493 193.391 14.712C193.391 15.0747 193.401 15.416 193.423 15.736V18.712V21.976V23.608C193.551 23.608 193.679 23.6187 193.807 23.64C193.935 23.6613 194.084 23.672 194.255 23.672ZM210.392 20.344C210.755 20.7707 211.118 21.2187 211.48 21.688C211.843 22.1573 212.088 22.6267 212.216 23.096C212.259 23.3093 212.259 23.5333 212.216 23.768C212.174 24.0027 212.056 24.2053 211.864 24.376C211.544 24.5893 211.203 24.696 210.84 24.696C210.435 24.696 210.04 24.6 209.656 24.408C209.294 24.216 208.995 24.024 208.76 23.832C208.398 23.512 208.067 23.192 207.768 22.872C207.47 22.5307 207.171 22.2 206.872 21.88C206.638 21.624 206.382 21.368 206.104 21.112C205.827 20.856 205.582 20.5787 205.368 20.28L202.2 23.768C201.859 24.1307 201.496 24.3867 201.112 24.536C200.728 24.664 200.366 24.728 200.024 24.728C199.918 24.728 199.758 24.7067 199.544 24.664C199.139 24.5573 198.862 24.3653 198.712 24.088C198.584 23.8533 198.542 23.5867 198.584 23.288C198.627 22.9893 198.712 22.7227 198.84 22.488C198.99 22.232 199.15 21.9973 199.32 21.784C199.512 21.5707 199.704 21.3467 199.896 21.112C200.451 20.4933 200.984 19.8533 201.496 19.192C202.03 18.5093 202.606 17.848 203.224 17.208V15.448C203.139 15.448 202.99 15.448 202.776 15.448C202.584 15.448 202.36 15.448 202.104 15.448C201.87 15.448 201.624 15.448 201.368 15.448C201.112 15.448 200.888 15.448 200.696 15.448C200.419 15.448 200.142 15.416 199.864 15.352C199.587 15.288 199.331 15.192 199.096 15.064C198.883 14.936 198.702 14.7653 198.552 14.552C198.403 14.3387 198.328 14.072 198.328 13.752C198.307 13.048 198.478 12.568 198.84 12.312C199.224 12.056 199.843 11.928 200.696 11.928C200.76 11.928 200.952 11.9387 201.272 11.96C201.614 11.96 202.296 11.96 203.32 11.96C203.363 11.4693 203.459 11.0107 203.608 10.584C203.779 10.136 204.099 9.82667 204.568 9.656C205.336 9.35733 205.944 9.34667 206.392 9.624C206.862 9.90133 207.15 10.3493 207.256 10.968C207.278 11.032 207.288 11.2027 207.288 11.48C207.31 11.736 207.32 11.896 207.32 11.96H209.464C210.211 11.96 210.808 12.0133 211.256 12.12C211.704 12.2053 212.078 12.4613 212.376 12.888C212.462 13.016 212.526 13.1973 212.568 13.432C212.611 13.6453 212.611 13.8693 212.568 14.104C212.547 14.3173 212.494 14.52 212.408 14.712C212.323 14.904 212.216 15.0427 212.088 15.128C211.918 15.192 211.726 15.2667 211.512 15.352C211.32 15.416 211.139 15.448 210.968 15.448C210.712 15.4693 210.478 15.48 210.264 15.48C210.072 15.4587 209.848 15.448 209.592 15.448C209.208 15.448 208.856 15.4587 208.536 15.48C208.216 15.48 207.907 15.4693 207.608 15.448C207.608 15.7253 207.608 15.9067 207.608 15.992C207.608 16.056 207.608 16.12 207.608 16.184C207.608 16.248 207.608 16.344 207.608 16.472C207.608 16.6 207.608 16.8453 207.608 17.208C207.715 17.2933 207.854 17.464 208.024 17.72C208.195 17.976 208.366 18.1893 208.536 18.36C208.707 18.5307 208.888 18.7227 209.08 18.936C209.272 19.128 209.475 19.3413 209.688 19.576C209.838 19.7253 209.966 19.864 210.072 19.992C210.179 20.12 210.286 20.2373 210.392 20.344ZM217.272 27.416C217.912 27.3947 218.414 27.448 218.776 27.576C219.16 27.704 219.459 27.8747 219.672 28.088C219.886 28.3013 220.024 28.536 220.088 28.792C220.152 29.048 220.184 29.304 220.184 29.56V33.272C220.227 33.7413 220.227 34.2107 220.184 34.68C220.142 35.128 219.96 35.4907 219.64 35.768C219.342 36.0453 218.947 36.184 218.456 36.184C218.35 36.184 218.158 36.1733 217.88 36.152C217.603 36.152 217.411 36.1307 217.304 36.088C217.027 36.0027 216.803 35.8747 216.632 35.704C216.483 35.5333 216.366 35.3413 216.28 35.128C216.195 34.9147 216.142 34.6907 216.12 34.456C216.099 34.2 216.078 33.9547 216.056 33.72C216.056 33.6347 216.046 33.4747 216.024 33.24C216.024 32.984 216.014 32.728 215.992 32.472C215.992 32.1947 215.982 31.9387 215.96 31.704C215.96 31.4693 215.95 31.3093 215.928 31.224C215.864 31.2027 215.683 31.1813 215.384 31.16C215.107 31.1387 214.574 31.128 213.784 31.128C213.102 31.128 212.675 31.1387 212.504 31.16C212.355 31.16 212.27 31.1707 212.248 31.192H201.016L200.984 31.16C200.984 31.16 200.91 31.1387 200.76 31.096C200.632 31.0533 200.483 30.9893 200.312 30.904C200.142 30.8187 199.971 30.7013 199.8 30.552C199.651 30.4027 199.566 30.2107 199.544 29.976C199.438 29.1653 199.576 28.5253 199.96 28.056C200.216 27.7573 200.494 27.5867 200.792 27.544C201.091 27.48 201.251 27.448 201.272 27.448L217.272 27.416ZM220.088 22.84C220.088 22.84 220.078 22.9147 220.056 23.064C220.035 23.2133 219.992 23.384 219.928 23.576C219.864 23.768 219.768 23.9707 219.64 24.184C219.512 24.376 219.342 24.536 219.128 24.664C218.83 24.8347 218.531 24.92 218.232 24.92C217.87 24.92 217.518 24.8027 217.176 24.568C216.942 24.3973 216.76 24.1733 216.632 23.896C216.462 23.576 216.344 23.224 216.28 22.84C216.238 22.456 216.206 22.0613 216.184 21.656C216.184 21.2507 216.195 20.856 216.216 20.472C216.238 20.0667 216.248 19.6827 216.248 19.32C216.27 18.4027 216.28 17.496 216.28 16.6C216.28 15.6827 216.28 14.776 216.28 13.88V13.464C216.259 13.2293 216.248 12.984 216.248 12.728C216.27 12.4507 216.312 12.1947 216.376 11.96C216.462 11.64 216.654 11.2987 216.952 10.936C217.123 10.7227 217.358 10.5733 217.656 10.488C217.976 10.3813 218.318 10.3493 218.68 10.392C219.32 10.4987 219.747 10.776 219.96 11.224C220.088 11.5013 220.142 11.8427 220.12 12.248C220.12 12.6533 220.11 12.8987 220.088 12.984V22.84Z" fill="#231815"/>
<path d="M73.0621 0C84.6202 0 94 9.36851 94 20.9127V56H48.9379C37.3798 56 28 46.6315 28 35.0873V20.9127C28.0163 9.36851 37.3961 0 48.9542 0H73.0783H73.0621Z" fill="#C2CC66"/>
<g filter="url(#filter0_d_4157_1254)">
<path d="M50 28H72" stroke="white" stroke-width="8" stroke-miterlimit="10" stroke-linecap="round"/>
</g>
<path d="M88 46H225C236.046 46 245 37.0457 245 26V16" stroke="#C2CC66" stroke-width="2" stroke-linecap="round" stroke-linejoin="round"/>
<path d="M927.387 79H37.613C28.4379 79 21 86.5603 21 95.8864V288.114C21 297.44 28.4379 305 37.613 305H927.387C936.562 305 944 297.44 944 288.114V95.8864C944 86.5603 936.562 79 927.387 79Z" fill="#F9FAF1"/>
<defs>
<filter id="filter0_d_4157_1254" x="46" y="24" width="32" height="10" filterUnits="userSpaceOnUse" color-interpolation-filters="sRGB">
<feFlood flood-opacity="0" result="BackgroundImageFix"/>
<feColorMatrix in="SourceAlpha" type="matrix" values="0 0 0 0 0 0 0 0 0 0 0 0 0 0 0 0 0 0 127 0" result="hardAlpha"/>
<feOffset dx="2" dy="2"/>
<feComposite in2="hardAlpha" operator="out"/>
<feColorMatrix type="matrix" values="0 0 0 0 0 0 0 0 0 0 0 0 0 0 0 0 0 0 0.25 0"/>
<feBlend mode="normal" in2="BackgroundImageFix" result="effect1_dropShadow_4157_1254"/>
<feBlend mode="normal" in="SourceGraphic" in2="effect1_dropShadow_4157_1254" result="shape"/>
</filter>
</defs>
</svg>
