<svg width="273" height="100" viewBox="0 0 273 100" fill="none" xmlns="http://www.w3.org/2000/svg">
<g clip-path="url(#clip0_3860_14271)">
<path d="M96.5424 69.2704C96.5424 68.8191 96.6031 68.3439 96.7123 67.8688C96.8215 67.3936 96.9549 67.0254 97.1126 66.7522H96.7729C96.0936 66.7522 95.5355 66.5384 95.123 66.0989C94.6984 65.6594 94.4922 65.1011 94.4922 64.4122C94.4922 63.6876 94.6984 63.1293 95.123 62.7254C95.5355 62.3215 96.0936 62.1315 96.7729 62.1315H100.315C100.509 62.1315 100.704 62.0602 100.91 61.9058C101.116 61.7514 101.225 61.4901 101.225 61.1099V59.3994C101.225 58.7105 101.456 58.1403 101.905 57.689C102.366 57.2376 102.912 57 103.554 57C104.282 57 104.865 57.2257 105.326 57.689C105.787 58.1403 106.005 58.7105 106.005 59.3994V61.0505C106.005 61.4663 106.114 61.7514 106.345 61.9058C106.575 62.0602 106.757 62.1315 106.915 62.1315H110.397C111.076 62.1315 111.646 62.3334 112.083 62.7254C112.52 63.1293 112.738 63.6876 112.738 64.4122C112.738 65.1011 112.52 65.6594 112.083 66.0989C111.646 66.5384 111.088 66.7522 110.397 66.7522H109.996C110.19 67.0135 110.348 67.3699 110.482 67.8094C110.615 68.2489 110.676 68.7359 110.676 69.2586C110.676 71.1947 109.984 72.7983 108.589 74.0812C107.194 75.3522 105.52 75.9936 103.542 75.9936C102.293 75.9936 101.128 75.6967 100.061 75.1146C98.993 74.5207 98.1438 73.7249 97.4887 72.7152C96.8457 71.7055 96.5182 70.5533 96.5182 69.2704H96.5424ZM100.934 69.211C100.934 69.9356 101.213 70.5296 101.759 71.0047C102.305 71.4798 102.912 71.7174 103.554 71.7174C104.282 71.7174 104.901 71.4798 105.435 71.0047C105.969 70.5296 106.236 69.9356 106.236 69.211C106.236 68.3796 105.969 67.7381 105.435 67.2986C104.901 66.8591 104.27 66.6453 103.554 66.6453C102.912 66.6453 102.305 66.8591 101.759 67.2986C101.213 67.7381 100.934 68.3677 100.934 69.211ZM104.477 82.8475C104.477 82.1586 104.707 81.5884 105.156 81.137C105.617 80.6856 106.199 80.4481 106.927 80.4481C107.57 80.4481 108.14 80.6738 108.613 81.137C109.086 81.5884 109.329 82.1586 109.329 82.8475V86.4348C109.329 86.9693 109.487 87.4682 109.814 87.9434C110.142 88.4185 110.676 88.6561 111.44 88.6561H117.494C118.173 88.6561 118.743 88.8699 119.204 89.2856C119.665 89.7014 119.884 90.2359 119.884 90.8773C119.884 91.6019 119.653 92.1721 119.204 92.5878C118.743 93.0036 118.173 93.2174 117.494 93.2174H108.14C107.145 93.2174 106.296 92.9086 105.568 92.279C104.84 91.6494 104.489 90.7823 104.489 89.6895V82.8475H104.477ZM115.492 62.2028C115.492 61.4425 115.722 60.8486 116.171 60.4329C116.632 60.0171 117.215 59.8033 117.943 59.8033C118.67 59.8033 119.192 59.9696 119.508 60.3141C119.835 60.6586 120.053 61.003 120.163 61.3713C120.272 61.7276 120.332 62.0127 120.332 62.2028V65.0536C120.332 66.0751 120.806 66.5978 121.764 66.5978H123.244C124.118 66.5978 124.724 66.8235 125.076 67.2867C125.416 67.7381 125.585 68.2608 125.585 68.8309C125.585 69.4724 125.379 70.0188 124.955 70.4583C124.53 70.8978 123.96 71.1116 123.244 71.1116H121.764C120.818 71.1116 120.332 71.5273 120.332 72.3707V77.3359C120.332 78.0605 120.09 78.6425 119.617 79.1058C119.144 79.5572 118.586 79.7948 117.93 79.7948C117.203 79.7948 116.62 79.5691 116.159 79.1058C115.698 78.6544 115.48 78.0605 115.48 77.3359V62.2265L115.492 62.2028ZM128.218 67.6787C128.218 66.2296 128.57 64.9586 129.273 63.8539C129.977 62.7492 130.923 61.882 132.1 61.2644C133.277 60.6348 134.575 60.326 135.982 60.326C137.39 60.326 138.688 60.6348 139.864 61.2644C141.041 61.8939 142 62.761 142.715 63.8539C143.443 64.9586 143.795 66.2296 143.795 67.6787C143.795 69.1279 143.431 70.4583 142.715 71.5867C141.987 72.7033 141.041 73.5823 139.864 74.2119C138.688 74.8414 137.39 75.1503 135.982 75.1503C134.575 75.1503 133.277 74.8414 132.1 74.2119C130.923 73.5823 129.977 72.7152 129.273 71.5867C128.57 70.4702 128.218 69.1635 128.218 67.6787ZM133.01 67.6787C133.01 68.5934 133.301 69.3061 133.896 69.8168C134.49 70.3276 135.182 70.589 135.982 70.589C136.856 70.589 137.584 70.3276 138.154 69.8168C138.724 69.3061 139.015 68.5934 139.015 67.6787C139.015 66.7641 138.724 66.1108 138.154 65.6C137.584 65.0892 136.856 64.8279 135.982 64.8279C135.182 64.8279 134.49 65.0892 133.896 65.6C133.301 66.1108 133.01 66.8116 133.01 67.6787ZM154.18 77.3121C154.18 78.0367 153.961 78.6188 153.525 79.082C153.088 79.5334 152.53 79.771 151.838 79.771C151.11 79.771 150.516 79.5453 150.043 79.082C149.57 78.6307 149.327 78.0367 149.327 77.3121V71.3254C149.327 70.4464 148.902 70.0188 148.077 70.0188H146.476C145.748 70.0188 145.178 69.805 144.766 69.3892C144.341 68.9735 144.135 68.4152 144.135 67.7381C144.135 67.168 144.317 66.6572 144.681 66.1939C145.045 65.7425 145.639 65.505 146.476 65.505H148.077C148.611 65.505 148.951 65.3862 149.109 65.1367C149.254 64.8873 149.339 64.5191 149.339 64.0202V62.1909C149.339 62.0008 149.4 61.7276 149.509 61.3594C149.618 61.003 149.861 60.6467 150.225 60.3022C150.589 59.9577 151.122 59.7914 151.85 59.7914C152.578 59.7914 153.148 60.0052 153.561 60.4448C153.973 60.8843 154.192 61.4663 154.192 62.179V77.2884L154.18 77.3121ZM162.648 74.9127C161.58 74.9127 160.706 74.5682 160.027 73.8912C159.348 73.2022 158.996 72.3351 158.996 71.266V59.8033C158.996 59.1619 159.226 58.6155 159.675 58.176C160.136 57.7365 160.719 57.5227 161.446 57.5227C162.089 57.5227 162.66 57.7365 163.133 58.176C163.606 58.6155 163.849 59.15 163.849 59.8033V61.1693C163.849 61.5851 163.946 61.882 164.14 62.0483C164.334 62.2146 164.516 62.2859 164.71 62.2503H167.9C168.543 62.2503 168.871 61.8702 168.871 61.1099V59.6845C168.871 58.9956 169.089 58.4373 169.526 57.9978C169.963 57.5583 170.545 57.3445 171.261 57.3445C171.904 57.3445 172.474 57.5583 172.947 57.9978C173.42 58.4373 173.663 58.9956 173.663 59.6845V71.2541C173.663 72.3232 173.335 73.1903 172.692 73.8793C172.049 74.5682 171.176 74.9008 170.072 74.9008H162.648V74.9127ZM163.788 68.8785C163.788 69.3773 163.836 69.7337 163.933 69.9594C164.031 70.1851 164.346 70.3039 164.88 70.3039H167.621C168.192 70.3039 168.543 70.1851 168.677 69.9594C168.81 69.7337 168.871 69.3655 168.871 68.8785V67.7975C168.871 67.4174 168.798 67.1204 168.677 66.9185C168.543 66.7047 168.167 66.6097 167.561 66.6097H164.94C164.443 66.6097 164.128 66.7047 163.994 66.8948C163.861 67.0848 163.8 67.3936 163.8 67.8094V68.8903L163.788 68.8785ZM167.67 87.3494C167.67 85.9478 168.022 84.7005 168.725 83.6196C169.429 82.5387 170.375 81.6953 171.576 81.0776C172.777 80.4718 174.075 80.163 175.483 80.163C176.89 80.163 178.176 80.4718 179.341 81.0776C180.505 81.6834 181.439 82.5268 182.167 83.6196C182.895 84.7005 183.247 85.9478 183.247 87.3494C183.247 88.7511 182.883 90.0102 182.167 91.1149C181.439 92.2196 180.505 93.0749 179.341 93.6807C178.176 94.2865 176.89 94.5953 175.483 94.5953C174.075 94.5953 172.777 94.2865 171.576 93.6807C170.375 93.0749 169.429 92.2196 168.725 91.1149C168.022 90.0102 167.67 88.763 167.67 87.3494ZM172.523 87.3494C172.523 88.2284 172.814 88.9055 173.384 89.4044C173.954 89.9033 174.658 90.1409 175.495 90.1409C176.332 90.1409 177.036 89.8914 177.606 89.4044C178.176 88.9055 178.467 88.2284 178.467 87.3494C178.467 86.4704 178.176 85.7934 177.606 85.2945C177.036 84.7956 176.332 84.558 175.495 84.558C174.658 84.558 173.954 84.8075 173.384 85.2945C172.814 85.7934 172.523 86.4704 172.523 87.3494ZM184.387 77.3121C184.387 78.0367 184.169 78.6188 183.732 79.082C183.295 79.5334 182.713 79.771 181.997 79.771C181.391 79.771 180.845 79.5453 180.372 79.082C179.899 78.6307 179.656 78.0367 179.656 77.3121V75.376C179.656 74.9602 179.51 74.6514 179.231 74.4613C178.94 74.2713 178.649 74.1762 178.346 74.1762H176.975C176.247 74.1762 175.677 73.9862 175.24 73.6061C174.803 73.226 174.585 72.7271 174.585 72.1213C174.585 71.4798 174.767 70.9572 175.131 70.5771C175.495 70.197 176.114 70.0069 176.987 70.0069H178.358C179.231 70.0069 179.668 69.603 179.668 68.8072V67.6668C179.668 67.1323 179.559 66.7878 179.328 66.6097C179.098 66.4434 178.783 66.3483 178.358 66.3483H176.987C176.259 66.3483 175.689 66.1464 175.252 65.7544C174.815 65.3506 174.597 64.8517 174.597 64.2459C174.597 63.6044 174.779 63.0818 175.143 62.7017C175.507 62.3215 176.126 62.1315 176.999 62.1315H178.37C178.673 62.1315 178.965 62.0246 179.256 61.8226C179.547 61.6088 179.68 61.3 179.68 60.8842V60.1953C179.68 60.0053 179.729 59.732 179.826 59.3638C179.923 59.0075 180.141 58.663 180.481 58.3423C180.821 58.0215 181.342 57.8552 182.022 57.8552C182.786 57.8552 183.368 58.0691 183.793 58.4848C184.205 58.9006 184.424 59.4707 184.424 60.1953V77.3003L184.387 77.3121ZM205.969 78.3931C206.77 78.3931 207.365 78.6188 207.765 79.082C208.165 79.5334 208.359 80.068 208.359 80.6738C208.359 81.2796 208.141 81.8022 207.704 82.2417C207.268 82.6812 206.685 82.895 205.969 82.895H190.271C189.543 82.895 188.961 82.6812 188.5 82.2417C188.039 81.8022 187.821 81.2796 187.821 80.6738C187.821 80.068 188.015 79.5334 188.415 79.082C188.815 78.6307 189.434 78.3931 190.271 78.3931H205.969ZM190.732 67.7381C190.732 66.2889 191.084 65.018 191.788 63.9133C192.491 62.8086 193.437 61.9414 194.614 61.3238C195.791 60.6942 197.089 60.3854 198.496 60.3854C199.904 60.3854 201.202 60.6942 202.378 61.3238C203.555 61.9533 204.514 62.8204 205.229 63.9133C205.957 65.018 206.309 66.2889 206.309 67.7381C206.309 69.1873 205.945 70.5177 205.229 71.6461C204.502 72.7627 203.555 73.6417 202.378 74.2713C201.202 74.9008 199.904 75.2097 198.496 75.2097C197.089 75.2097 195.791 74.9008 194.614 74.2713C193.437 73.6417 192.491 72.7746 191.788 71.6461C191.084 70.5296 190.732 69.2229 190.732 67.7381ZM194.845 100C193.777 100 192.904 99.6793 192.224 99.026C191.545 98.3845 191.193 97.5293 191.193 96.4602V90.129C191.193 89.0599 191.533 88.2047 192.224 87.5632C192.904 86.9218 193.789 86.5892 194.845 86.5892H202.318C203.422 86.5892 204.295 86.9099 204.938 87.5632C205.581 88.2047 205.909 89.0599 205.909 90.129V96.4602C205.909 97.5293 205.581 98.3845 204.938 99.026C204.295 99.6674 203.422 100 202.318 100H194.845ZM195.524 67.7381C195.524 68.6528 195.815 69.3655 196.41 69.8762C197.004 70.387 197.696 70.6483 198.496 70.6483C199.37 70.6483 200.098 70.387 200.668 69.8762C201.238 69.3655 201.529 68.6528 201.529 67.7381C201.529 66.8235 201.238 66.1702 200.668 65.6594C200.098 65.1486 199.37 64.8873 198.496 64.8873C197.696 64.8873 197.004 65.1486 196.41 65.6594C195.815 66.1702 195.524 66.871 195.524 67.7381ZM196.034 93.9063C196.034 94.4052 196.106 94.7972 196.264 95.1061C196.41 95.4149 196.774 95.5574 197.344 95.5574H199.515C200.122 95.5574 200.534 95.403 200.741 95.1061C200.947 94.7972 201.056 94.4052 201.056 93.9063V92.4809C201.056 92.0296 200.947 91.6732 200.741 91.4237C200.534 91.1743 200.098 91.0555 199.455 91.0555H197.453C196.919 91.0555 196.543 91.1981 196.337 91.4831C196.131 91.7682 196.022 92.1246 196.022 92.5403V93.9063H196.034ZM243.116 79.3077C243.917 79.3077 244.499 79.5453 244.888 80.0204C245.264 80.4956 245.458 80.9945 245.458 81.529C245.458 82.1348 245.239 82.6693 244.803 83.1207C244.366 83.5721 243.808 83.8097 243.116 83.8097H226.739C226.011 83.8097 225.441 83.584 225.004 83.1207C224.567 82.6693 224.349 82.1348 224.349 81.529C224.349 80.9945 224.543 80.4956 224.943 80.0204C225.344 79.5453 225.938 79.3077 226.739 79.3077H227.6C228.134 79.3077 228.498 79.1889 228.68 78.9633C228.874 78.7376 228.971 78.4525 228.971 78.108V76.8014C228.971 75.9224 229.201 75.3047 229.65 74.9246H227.6C226.872 74.9246 226.302 74.7108 225.865 74.295C225.429 73.8793 225.21 73.321 225.21 72.6439C225.21 71.9193 225.429 71.3729 225.865 70.9928C226.302 70.6127 226.884 70.4226 227.6 70.4226H228.279C228.85 70.4226 229.141 70.0782 229.141 69.4011V66.6097C229.141 65.8138 228.85 65.4099 228.279 65.4099H227.709C227.03 65.4099 226.46 65.2199 226.023 64.8398C225.586 64.4597 225.368 63.9133 225.368 63.1887C225.368 62.5472 225.586 62.0246 226.023 61.6207C226.46 61.2168 227.006 61.003 227.649 60.9674H242.085C242.765 60.9674 243.335 61.1812 243.771 61.597C244.208 62.0127 244.427 62.5472 244.427 63.1887C244.427 63.9133 244.208 64.4597 243.771 64.8398C243.335 65.2199 242.777 65.4099 242.085 65.4099H241.685C241.418 65.4099 241.175 65.4931 240.945 65.6713C240.714 65.8494 240.605 66.1227 240.605 66.5028V69.413C240.605 70.1019 240.908 70.4345 241.515 70.4345H242.255C242.898 70.4345 243.456 70.6246 243.905 71.0047C244.366 71.3848 244.584 71.9312 244.584 72.6558C244.584 73.3447 244.354 73.8912 243.905 74.3069C243.444 74.7226 242.898 74.9365 242.255 74.9365H240.205C240.702 75.3878 240.945 76.0174 240.945 76.8133V78.1199C240.945 78.9157 241.309 79.3196 242.025 79.3196H243.104L243.116 79.3077ZM236.444 76.8014C236.444 75.9224 236.687 75.3047 237.184 74.9246H232.562C233.059 75.376 233.302 76.0055 233.302 76.8014V78.108C233.302 78.4525 233.399 78.7376 233.593 78.9633C233.787 79.1889 234.127 79.3077 234.624 79.3077H235.425C235.801 79.3077 236.068 79.1889 236.226 78.9395C236.371 78.6901 236.456 78.4168 236.456 78.108V76.8014H236.444ZM236.383 66.8235C236.383 66.182 236.238 65.7782 235.959 65.6238C235.668 65.4693 235.376 65.3981 235.073 65.3981H234.733C234.43 65.3981 234.139 65.4693 233.848 65.6238C233.557 65.7782 233.423 66.1583 233.423 66.7641V69.3298C233.423 69.7099 233.545 69.995 233.799 70.1851C234.042 70.3751 234.357 70.4702 234.746 70.4702H235.085C235.425 70.4702 235.728 70.387 235.995 70.2088C236.262 70.0425 236.395 69.7218 236.395 69.2704V66.8235H236.383ZM262.927 73.321C262.927 73.9624 262.685 74.5207 262.212 74.9721C261.738 75.4235 261.156 75.661 260.477 75.661C259.834 75.661 259.288 75.4354 258.851 74.9721C258.414 74.5207 258.196 73.9624 258.196 73.321V68.534C258.196 67.8094 258.002 67.2392 257.626 66.8235C257.25 66.4077 256.716 66.1939 256.024 66.1939H250.262C249.534 66.1939 248.952 65.9801 248.491 65.5644C248.03 65.1486 247.811 64.5903 247.811 63.9133C247.811 63.1887 248.042 62.6304 248.491 62.2265C248.952 61.8227 249.534 61.6326 250.262 61.6326H259.336C260.331 61.6326 261.168 61.9296 261.872 62.5116C262.575 63.1055 262.927 64.0083 262.927 65.2199V73.321ZM271.492 77.0865C271.492 77.811 271.274 78.3931 270.837 78.8564C270.4 79.3077 269.842 79.5453 269.151 79.5453C268.459 79.5453 267.877 79.3196 267.38 78.8564C266.882 78.405 266.64 77.811 266.64 77.0865V62.0959C266.64 61.9058 266.7 61.6326 266.834 61.2644C266.967 60.908 267.21 60.5517 267.574 60.2072C267.938 59.8627 268.459 59.6964 269.139 59.6964C269.867 59.6964 270.437 59.9102 270.849 60.3497C271.262 60.7892 271.48 61.3713 271.48 62.084V77.0746L271.492 77.0865Z" fill="#C2CC66"/>
<path d="M68 100C79.5973 100 89 90.6005 89 79C89 67.3995 79.5973 58 68 58C56.4027 58 47 67.3995 47 79C47 90.6005 56.4027 100 68 100Z" fill="#C2CC66"/>
<mask id="mask0_3860_14271" style="mask-type:luminance" maskUnits="userSpaceOnUse" x="45" y="58" width="43" height="43">
<path d="M45.1025 79.2077C45.1025 90.7514 54.5789 100.105 66.2671 100.105C77.9554 100.105 87.4318 90.7514 87.4318 79.2077C87.4318 67.664 77.9554 58.3105 66.2671 58.3105C54.5789 58.3105 45.1025 67.664 45.1025 79.2077Z" fill="white"/>
</mask>
<g mask="url(#mask0_3860_14271)">
<g style="mix-blend-mode:multiply">
<mask id="mask1_3860_14271" style="mask-type:luminance" maskUnits="userSpaceOnUse" x="50" y="71" width="76" height="70">
<path d="M125.59 71.7266H50.0537V140.193H125.59V71.7266Z" fill="white"/>
</mask>
<g mask="url(#mask1_3860_14271)">
<path d="M87.106 73.2594C103.97 72.8907 117.942 86.2632 118.311 103.127C118.679 119.991 105.307 133.963 88.4433 134.325C71.5795 134.693 57.6071 121.321 57.2457 104.457C56.8771 87.5932 70.2495 73.6208 87.1133 73.2522" fill="#E3E7BB"/>
</g>
</g>
<g opacity="0.3">
<mask id="mask2_3860_14271" style="mask-type:luminance" maskUnits="userSpaceOnUse" x="19" y="70" width="71" height="65">
<path d="M89.5205 70.2383H19.3477V134.028H89.5205V70.2383Z" fill="white"/>
</mask>
<g mask="url(#mask2_3860_14271)">
<path d="M53.7695 71.7136C69.1804 71.3811 81.9456 83.756 82.2926 99.362C82.6323 114.968 70.4164 127.892 55.0056 128.225C39.5947 128.557 26.8295 116.182 26.4825 100.576C26.1428 84.9704 38.3587 72.0461 53.7695 71.7136Z" fill="#D5DB97"/>
</g>
</g>
<g style="mix-blend-mode:multiply">
<mask id="mask3_3860_14271" style="mask-type:luminance" maskUnits="userSpaceOnUse" x="34" y="71" width="72" height="65">
<path d="M105.307 71.3145H34.4043V135.148H105.307V71.3145Z" fill="white"/>
</mask>
<g mask="url(#mask3_3860_14271)">
<path d="M69.1943 72.7963C84.8076 72.4566 97.7391 84.8387 98.0788 100.445C98.4186 116.058 86.0364 128.989 70.4304 129.329C54.8171 129.669 41.8856 117.287 41.5459 101.674C41.2062 86.0603 53.5883 73.1288 69.2016 72.7891" fill="#EBEECE"/>
</g>
</g>
</g>
<path d="M31.6794 64.5419C49.7286 64.5419 64.3587 50.0925 64.3587 32.2746C64.3587 14.4567 49.7286 0 31.6794 0C13.6302 0 -1 14.4495 -1 32.2674C-1 50.0852 13.6302 64.5347 31.6794 64.5347" fill="#F0F2DA"/>
<path d="M31.6798 50.0346C41.6188 50.0346 49.6712 42.0834 49.6712 32.2673C49.6712 22.4512 41.6116 14.5 31.6798 14.5C21.7481 14.5 13.6885 22.4584 13.6885 32.2673C13.6885 42.0762 21.7409 50.0346 31.6798 50.0346Z" fill="white"/>
</g>
<defs>
<clipPath id="clip0_3860_14271">
<rect width="273" height="116" fill="white" transform="translate(0 -16)"/>
</clipPath>
</defs>
</svg>
