<svg id="레이어_1" data-name="레이어 1" xmlns="http://www.w3.org/2000/svg" viewBox="0 0 31 31"><defs><style>.cls-1{opacity:0;}.cls-2{fill:#97fff5;}.cls-3{fill:#fff;}</style></defs><g class="cls-1"><rect class="cls-2" x="-36.39" y="-2.9" width="36.8" height="36.8"/></g><g id="_본문" data-name=" 본문"><path class="cls-3" d="M12.87,17.38H5.63a.76.76,0,0,0-.75.75v1a.76.76,0,0,0,.75.75h5.16a.35.35,0,0,1,.35.35v5.15a.76.76,0,0,0,.75.75h1a.76.76,0,0,0,.75-.75V18.13A.76.76,0,0,0,12.87,17.38Z"/><path class="cls-3" d="M25.37,11.13H20.21a.35.35,0,0,1-.35-.35V5.63a.76.76,0,0,0-.75-.75h-1a.76.76,0,0,0-.75.75v7.24a.76.76,0,0,0,.75.75h7.24a.76.76,0,0,0,.75-.75v-1A.76.76,0,0,0,25.37,11.13Z"/><path class="cls-3" d="M12.87,4.88h-1a.76.76,0,0,0-.75.75v5.15a.35.35,0,0,1-.35.35H5.63a.76.76,0,0,0-.75.75v1a.76.76,0,0,0,.75.75h7.24a.76.76,0,0,0,.75-.75V5.63A.76.76,0,0,0,12.87,4.88Z"/><path class="cls-3" d="M25.37,17.38H18.13a.76.76,0,0,0-.75.75v7.24a.76.76,0,0,0,.75.75h1a.76.76,0,0,0,.75-.75V20.22a.35.35,0,0,1,.35-.35h5.16a.76.76,0,0,0,.75-.75v-1A.76.76,0,0,0,25.37,17.38Z"/><g class="cls-1"><rect class="cls-2" x="-2.9" y="-2.9" width="36.8" height="36.8"/></g></g></svg>