<svg width="26" height="34" viewBox="0 0 26 34" fill="none" xmlns="http://www.w3.org/2000/svg">
<path d="M14.68 21.16V11.84C14.68 11.2267 14.7867 10.6933 15 10.24C15.2133 9.78667 15.4933 9.41333 15.84 9.12C16.1867 8.82667 16.5867 8.61333 17.04 8.48C17.4933 8.32 17.9467 8.24 18.4 8.24C18.8533 8.24 19.2933 8.32 19.72 8.48C20.1733 8.61333 20.5733 8.82667 20.92 9.12C21.2667 9.41333 21.5467 9.78667 21.76 10.24C21.9733 10.6933 22.08 11.2267 22.08 11.84V21.16H25.68V27.72H22.08V33.24H14.68V27.72H6.48C4.05333 27.72 2.36 27.1067 1.4 25.88C0.466667 24.6267 0.293333 22.96 0.88 20.88L5.96 4.12C6.30667 2.89333 6.86667 2.01333 7.64 1.48C8.41333 0.919999 9.30667 0.706666 10.32 0.839999C10.8533 0.893332 11.3467 1.04 11.8 1.28C12.2533 1.52 12.64 1.84 12.96 2.24C13.28 2.61333 13.4933 3.06667 13.6 3.6C13.7333 4.10667 13.7333 4.66667 13.6 5.28L9.16 20.04C9.02667 20.4933 9.05333 20.8 9.24 20.96C9.42667 21.0933 9.78667 21.16 10.32 21.16H14.68Z" fill="#421D1B"/>
</svg>
