<svg width="76" height="76" viewBox="0 0 76 76" fill="none" xmlns="http://www.w3.org/2000/svg">
<mask id="mask0_3241_8861" style="mask-type:alpha" maskUnits="userSpaceOnUse" x="0" y="0" width="76" height="76">
<circle cx="38" cy="38" r="38" fill="#D9D9D9"/>
</mask>
<g mask="url(#mask0_3241_8861)">
<path d="M47.0516 32.6007C46.5589 31.1176 47.3567 29.5167 48.835 29.0459C50.3133 28.575 51.909 29.3519 52.3783 30.8351C52.8711 32.3182 52.0732 33.9191 50.5949 34.3899C49.1166 34.8843 47.5209 34.0838 47.0516 32.6007ZM55.9451 27.4921L44.7285 21.7008C44.1419 21.3713 43.4614 21.3242 42.8278 21.5125L10.07 32.3888C8.82631 32.8126 8.14581 34.1545 8.54473 35.4022L14.153 52.4229C14.5754 53.6707 15.9129 54.3534 17.1566 53.9296L49.9613 43.0298C50.5715 42.8414 51.0642 42.3941 51.3458 41.8291L56.7429 30.5761C57.3061 29.4226 57.0245 28.0807 55.9216 27.445" fill="#FBDACF"/>
<path d="M16.429 54.5182C15.2557 54.5182 14.1528 53.7648 13.7539 52.5877L8.14567 35.567C7.6529 34.0838 8.45073 32.5065 9.92905 32.0122L42.6869 21.1358C43.4378 20.9004 44.2591 20.971 44.9161 21.3477L56.1326 27.139C57.3998 27.8453 57.8222 29.4226 57.1417 30.8115L51.7446 42.0645C51.4161 42.7472 50.8294 43.2652 50.102 43.5006L17.2972 54.4005C17.0156 54.4946 16.7106 54.5417 16.4055 54.5417L16.429 54.5182ZM43.5551 21.8421C43.3439 21.8421 43.1327 21.8656 42.945 21.9362L10.1872 32.8126C9.15469 33.1422 8.61498 34.2722 8.9435 35.308L14.5518 52.3288C14.9037 53.3646 16.0066 53.9061 17.0391 53.5765L49.8439 42.6766C50.3367 42.5118 50.759 42.1587 50.9937 41.6879L56.3908 30.4349C56.8835 29.4226 56.602 28.3632 55.7572 27.8688L44.5407 22.0775C44.2356 21.9127 43.9071 21.8185 43.5786 21.8185L43.5551 21.8421ZM49.7266 34.9549C49.2338 34.9549 48.741 34.8372 48.2717 34.6018C47.4973 34.2015 46.9342 33.5424 46.6526 32.7184C46.0894 31.0234 47.028 29.1871 48.7175 28.6221C50.4305 28.0571 52.2374 28.9753 52.8005 30.6938C53.3637 32.3888 52.4486 34.2251 50.7356 34.7901C50.4071 34.9078 50.0551 34.9549 49.7266 34.9549ZM47.4504 32.4595C47.6381 33.0715 48.084 33.5659 48.6471 33.8484C49.2103 34.1309 49.8674 34.178 50.4775 33.9897C51.7211 33.5659 52.4016 32.224 52.0027 30.9528C51.815 30.3407 51.3691 29.8463 50.806 29.5638C50.2428 29.2813 49.5858 29.2342 48.9757 29.4226C47.732 29.8463 47.0515 31.1882 47.4504 32.4595Z" fill="#3E3A39"/>
<path d="M43.2032 25.6323C42.7808 25.3968 42.2881 25.3498 41.8422 25.5146L16.9219 33.8013C16.0302 34.1073 15.5374 35.0725 15.8424 35.9671L19.855 48.1618C20.1601 49.0564 21.1222 49.5508 22.0139 49.2447L46.9577 40.958C47.3801 40.8168 47.7555 40.5107 47.9433 40.087L43.1798 25.6323H43.2032Z" fill="white"/>
<path d="M18.1654 47.8794C17.9777 47.8794 17.8134 47.7617 17.7665 47.5969L14.1528 36.6499C14.0824 36.438 14.1997 36.179 14.4109 36.1084C14.6456 36.0378 14.8802 36.1555 14.9506 36.3674L18.5643 47.3144C18.6347 47.5262 18.5174 47.7852 18.3062 47.8558C18.2593 47.8558 18.2123 47.8558 18.1654 47.8558V47.8794Z" fill="#3E3A39"/>
<path d="M15.5138 47.8794C15.3261 47.8794 15.1618 47.7617 15.1149 47.5969L12.0878 38.3921C12.0175 38.1802 12.1348 37.9212 12.346 37.8506C12.5806 37.78 12.8153 37.8977 12.8857 38.1096L15.9127 47.3144C15.9831 47.5263 15.8658 47.7853 15.6546 47.8559C15.6077 47.8559 15.5607 47.8559 15.5138 47.8559V47.8794Z" fill="#3E3A39"/>
<path d="M51.4631 31.023C51.3223 31.023 51.1815 30.9523 51.0876 30.8111C50.9703 30.5992 51.0407 30.3403 51.2284 30.2225C51.4161 30.1048 55.8746 27.4917 60.4738 28.3863C65.7066 29.4221 67.138 26.7619 67.2084 26.6677C67.3258 26.4559 67.5604 26.3852 67.7716 26.4794C67.9828 26.5971 68.0532 26.8325 67.9593 27.0444C67.8889 27.1857 66.1994 30.3873 60.3096 29.2338C56.0389 28.3863 51.6977 30.9288 51.6508 30.9524C51.5804 30.9994 51.51 31.023 51.4396 31.023H51.4631Z" fill="#3E3A39"/>
<path d="M23.3983 41.2636C23.7268 41.5932 23.9615 41.9699 24.0788 42.3701C24.2431 42.888 24.29 43.3588 24.2431 43.8297C24.1962 44.3005 24.0319 44.7007 23.7738 45.0303C23.5157 45.3599 23.1871 45.5953 22.7648 45.7366C22.3424 45.8778 21.92 45.8778 21.5211 45.7366C21.1222 45.6189 20.7702 45.3834 20.4417 45.0303C20.1366 44.6772 19.8785 44.2534 19.7142 43.759C19.5969 43.3588 19.55 42.9351 19.6204 42.4642C19.6908 41.9934 19.8316 41.5932 20.0662 41.2401C19.7377 41.0988 19.4092 40.8634 19.1276 40.5573C18.846 40.2513 18.6583 39.9453 18.541 39.6157C18.4002 39.1448 18.3298 38.6976 18.4002 38.2738C18.4706 37.85 18.5879 37.4734 18.8226 37.1673C19.0572 36.8613 19.3623 36.6494 19.7612 36.5082C20.1601 36.3905 20.5355 36.3669 20.8875 36.4846C21.263 36.6023 21.5915 36.8142 21.8731 37.1202C22.1547 37.4263 22.3893 37.8265 22.5301 38.2973C22.624 38.6269 22.6709 38.98 22.6005 39.4038C22.5536 39.8276 22.4362 40.1807 22.2485 40.5103C22.6474 40.6515 22.9994 40.8869 23.3279 41.2401L23.3983 41.2636ZM20.0897 40.2749C20.3947 40.4632 20.6998 40.5103 21.0518 40.3926C21.3803 40.2748 21.615 40.063 21.7557 39.7098C21.8731 39.3802 21.8731 38.98 21.7557 38.5798C21.615 38.1561 21.4038 37.85 21.0987 37.6382C20.7937 37.4263 20.4886 37.4028 20.1366 37.5205C19.7846 37.6382 19.5735 37.85 19.4327 38.1796C19.3153 38.5092 19.3153 38.8859 19.4327 39.3332C19.5735 39.7569 19.7846 40.063 20.0897 40.2749ZM23.0698 44.3005C23.2341 44.0886 23.3279 43.8532 23.3514 43.5472C23.3749 43.2647 23.3514 42.9586 23.2341 42.629C23.1167 42.2995 22.976 42.0405 22.7882 41.8286C22.6005 41.6167 22.3658 41.4755 22.1312 41.4049C21.8965 41.3342 21.6384 41.3342 21.3803 41.4049C21.1222 41.499 20.911 41.6403 20.7702 41.8522C20.6059 42.064 20.5121 42.2994 20.4886 42.6055C20.4651 42.888 20.4886 43.194 20.5825 43.5236C20.6763 43.8532 20.8406 44.1122 21.0283 44.3241C21.216 44.5359 21.4507 44.6772 21.7088 44.7713C21.9669 44.842 22.2016 44.842 22.4597 44.7713C22.7178 44.6772 22.929 44.5359 23.0698 44.3241V44.3005Z" fill="#D2476E"/>
<path d="M26.4957 43.8294C26.0029 43.5704 25.5571 43.1231 25.1112 42.4875C24.6888 41.8518 24.3369 41.122 24.0553 40.2275C23.7737 39.3564 23.6094 38.5324 23.586 37.7791C23.5625 37.0258 23.6798 36.3901 23.9145 35.8958C24.1491 35.4014 24.5011 35.0718 24.9704 34.907C25.4397 34.7422 25.909 34.8128 26.4018 35.0718C26.8946 35.3308 27.3404 35.7781 27.7628 36.4137C28.1852 37.0493 28.5372 37.7791 28.8188 38.6737C29.1003 39.5448 29.2646 40.3687 29.2881 41.1221C29.2881 41.8754 29.1942 42.511 28.9596 43.0054C28.7249 43.4998 28.3729 43.8294 27.9271 43.9942C27.4578 44.1354 26.9885 44.0883 26.4957 43.8294ZM28.2321 42.2756C28.3729 41.8989 28.4198 41.4281 28.3729 40.8631C28.326 40.2981 28.2087 39.6625 27.974 38.9797C27.7628 38.297 27.4812 37.7085 27.1996 37.2141C26.8946 36.7197 26.5895 36.3666 26.2376 36.1547C25.909 35.9428 25.604 35.8722 25.2989 35.9664C24.9939 36.0606 24.7827 36.296 24.6419 36.6726C24.5011 37.0493 24.4542 37.5202 24.5011 38.0852C24.548 38.6502 24.6654 39.2858 24.9 39.9685C25.1112 40.6512 25.3928 41.2398 25.6979 41.7341C26.0029 42.2285 26.308 42.5817 26.6599 42.7935C26.9885 43.0054 27.2935 43.076 27.5986 42.9819C27.9036 42.8877 28.1148 42.6523 28.2556 42.2756H28.2321Z" fill="#D2476E"/>
<path d="M31.3764 41.6646C31.5172 41.7587 31.6111 41.9235 31.6815 42.1119C31.7519 42.3238 31.7754 42.5121 31.705 42.6769C31.658 42.8417 31.5642 42.9359 31.3999 42.9829C31.2357 43.03 31.0949 43.0065 30.9541 42.9123C30.8133 42.8181 30.7194 42.6533 30.6256 42.4415C30.5552 42.2296 30.5552 42.0412 30.6256 41.9C30.6725 41.7352 30.7898 41.641 30.9306 41.5704C31.0949 41.5233 31.2357 41.5469 31.353 41.6411L31.3764 41.6646Z" fill="#D2476E"/>
<path d="M35.6708 37.2617C35.9993 37.5913 36.234 37.9679 36.3513 38.3681C36.5155 38.886 36.5625 39.3569 36.5155 39.8277C36.4686 40.2986 36.3044 40.6988 36.0462 41.0284C35.7881 41.358 35.4596 41.5934 35.0372 41.7346C34.6148 41.8759 34.1925 41.8759 33.7935 41.7346C33.3946 41.6169 33.0427 41.3815 32.7141 41.0284C32.3856 40.6752 32.151 40.2515 31.9867 39.7571C31.8694 39.3569 31.8224 38.9331 31.8928 38.4623C31.9632 37.9915 32.104 37.5913 32.3387 37.2381C32.0102 37.0969 31.6817 36.8615 31.4001 36.5554C31.1185 36.2494 30.9308 35.9433 30.8134 35.6137C30.6726 35.1429 30.6022 34.6956 30.6726 34.2718C30.7196 33.8481 30.8604 33.4714 31.095 33.1654C31.3297 32.8593 31.6347 32.6475 32.0336 32.5062C32.4325 32.3885 32.808 32.365 33.16 32.4827C33.5354 32.6004 33.8639 32.8123 34.1455 33.1183C34.4271 33.4243 34.6618 33.8246 34.8026 34.2954C34.8964 34.625 34.9434 34.9781 34.873 35.4019C34.826 35.8256 34.7087 36.1787 34.521 36.5083C34.9199 36.6496 35.2719 36.885 35.6004 37.2381L35.6708 37.2617ZM32.3622 36.2729C32.6672 36.4612 32.9723 36.5083 33.3242 36.3906C33.6528 36.2729 33.8874 36.061 34.0282 35.7079C34.169 35.3783 34.1455 34.9781 34.0282 34.5779C33.8874 34.1541 33.6762 33.8481 33.3712 33.6362C33.0661 33.4479 32.7611 33.4008 32.4091 33.5185C32.0806 33.6362 31.8459 33.8481 31.7051 34.1777C31.5878 34.5073 31.5878 34.8839 31.7051 35.3312C31.8459 35.755 32.0571 36.061 32.3622 36.2729ZM35.3423 40.2986C35.5065 40.0867 35.6004 39.8513 35.6239 39.5452C35.6473 39.2627 35.6239 38.9567 35.5065 38.6271C35.4127 38.2975 35.2484 38.0385 35.0607 37.8267C34.873 37.6148 34.6383 37.4735 34.4037 37.3794C34.169 37.3087 33.9109 37.3087 33.6528 37.3794C33.3946 37.4735 33.1834 37.6148 33.0427 37.8267C32.8784 38.0385 32.7845 38.274 32.7611 38.58C32.7376 38.8625 32.7611 39.1686 32.8549 39.4981C32.9488 39.8277 33.113 40.0867 33.3008 40.2986C33.4885 40.5104 33.7232 40.6517 33.9813 40.7459C34.2394 40.8165 34.474 40.8165 34.7322 40.7459C34.9903 40.6517 35.2015 40.5104 35.3423 40.2986Z" fill="#D2476E"/>
<path d="M42.7102 29.3281L43.0387 30.3169L36.6796 32.3886L36.3511 31.3998L42.7102 29.3281ZM44.4467 32.059L44.7752 33.0477L36.8439 35.6373L36.5153 34.6486L44.4467 32.059ZM39.8709 34.4132C40.481 36.8615 40.7626 38.9567 38.9088 40.7224C38.7446 40.5105 38.3691 40.2045 38.1345 40.0868C39.8005 38.5565 39.4955 36.7674 38.9792 34.7192L39.8709 34.4367V34.4132ZM42.2175 33.495L43.5081 37.4736C43.6254 37.8738 43.7192 37.9209 44.0478 37.8032C44.1886 37.7561 44.8691 37.5442 45.0568 37.4736C45.3853 37.3559 45.3618 37.0734 44.8691 35.4255C45.1272 35.5432 45.5496 35.6138 45.8077 35.6138C46.3239 37.5442 46.277 38.1328 45.4557 38.4153C45.268 38.4859 44.4467 38.7449 44.259 38.8155C43.3673 39.098 43.0153 38.839 42.6633 37.7561L41.3727 33.7775L42.2409 33.495H42.2175Z" fill="#D2476E"/>
</g>
</svg>
