<svg width="76" height="76" viewBox="0 0 76 76" fill="none" xmlns="http://www.w3.org/2000/svg">
<mask id="mask0_3241_8844" style="mask-type:alpha" maskUnits="userSpaceOnUse" x="0" y="0" width="76" height="76">
<circle cx="38" cy="38" r="38" fill="#D9D9D9"/>
</mask>
<g mask="url(#mask0_3241_8844)">
<path d="M47.0516 32.6006C46.5589 31.1175 47.3567 29.5166 48.835 29.0458C50.3133 28.575 51.909 29.3518 52.3783 30.835C52.8711 32.3181 52.0732 33.919 50.5949 34.3898C49.1166 34.8842 47.5209 34.0837 47.0516 32.6006ZM55.9451 27.5156L44.7285 21.7243C44.1419 21.3947 43.4614 21.3476 42.8278 21.5359L10.07 32.4123C8.82631 32.836 8.14581 34.1779 8.54473 35.4256L14.153 52.4464C14.5754 53.6941 15.9129 54.3768 17.1566 53.9766L49.9613 43.0767C50.5715 42.8884 51.0642 42.4411 51.3458 41.8761L56.7429 30.6231C57.3061 29.4695 57.0245 28.1277 55.9216 27.492" fill="#FBDACF"/>
<path d="M16.429 54.5417C15.2557 54.5417 14.1528 53.7884 13.7539 52.6113L8.14567 35.567C7.6529 34.0838 8.45073 32.5065 9.92905 32.0122L42.6869 21.1358C43.4143 20.9004 44.2356 20.971 44.9161 21.3477L56.1326 27.139C57.3998 27.8452 57.8222 29.4226 57.1417 30.8115L51.7446 42.0645C51.4161 42.7472 50.806 43.2652 50.102 43.5006L17.2972 54.4005C17.0156 54.4946 16.7106 54.5417 16.4055 54.5417H16.429ZM43.5551 21.8421C43.3439 21.8421 43.1327 21.8656 42.945 21.9362L10.1872 32.8361C9.15469 33.1657 8.61498 34.2957 8.9435 35.3316L14.5518 52.3523C14.9037 53.3882 16.0066 53.9296 17.0391 53.6L49.8439 42.7002C50.3367 42.5354 50.759 42.1822 50.9937 41.7114L56.3908 30.4584C56.8835 29.4461 56.602 28.3867 55.7572 27.8923L44.5407 22.101C44.2356 21.9362 43.9071 21.8421 43.5786 21.8421H43.5551ZM49.7266 34.9549C48.3656 34.9549 47.0984 34.0838 46.6526 32.742C46.0894 31.0469 47.028 29.2107 48.7175 28.6457C49.5388 28.3632 50.4071 28.4338 51.1814 28.834C51.9558 29.2342 52.519 29.8934 52.8005 30.7174C53.3637 32.4124 52.4486 34.2486 50.7356 34.8136C50.4071 34.9313 50.0551 34.9784 49.7266 34.9784V34.9549ZM47.4504 32.4595C47.8728 33.7072 49.2103 34.3899 50.4775 33.9897C51.7211 33.5659 52.4016 32.224 52.0027 30.9528C51.815 30.3407 51.3691 29.8463 50.806 29.5638C50.2428 29.2813 49.5858 29.2342 48.9757 29.4226C47.732 29.8463 47.0515 31.1882 47.4504 32.4595Z" fill="#3E3A39"/>
<path d="M43.2032 25.6557C42.7808 25.4203 42.2881 25.3732 41.8422 25.538L16.9219 33.8247C16.0302 34.1308 15.5374 35.096 15.8424 35.9906L19.855 48.1853C20.1601 49.0798 21.1222 49.5742 22.0139 49.2682L46.9577 40.9814C47.3801 40.8402 47.7555 40.5342 47.9433 40.1104L43.1798 25.6557H43.2032Z" fill="white"/>
<path d="M18.1654 47.9028C17.9777 47.9028 17.8134 47.7851 17.7665 47.6203L14.1528 36.6733C14.0824 36.4614 14.1997 36.2025 14.4109 36.1319C14.6456 36.0612 14.8802 36.1789 14.9506 36.3908L18.5643 47.3378C18.6347 47.5497 18.5174 47.8086 18.3062 47.8793C18.2593 47.8793 18.2123 47.8793 18.1654 47.8793V47.9028Z" fill="#3E3A39"/>
<path d="M15.5138 47.8794C15.3261 47.8794 15.1618 47.7617 15.1149 47.5969L12.0878 38.3921C12.0175 38.1802 12.1348 37.9212 12.346 37.8506C12.5806 37.78 12.8153 37.8977 12.8857 38.1096L15.9127 47.3144C15.9831 47.5263 15.8658 47.7853 15.6546 47.8559C15.6077 47.8559 15.5607 47.8559 15.5138 47.8559V47.8794Z" fill="#3E3A39"/>
<path d="M51.4631 31.0474C51.3223 31.0474 51.1815 30.9768 51.0876 30.8355C50.9703 30.6236 51.0407 30.3647 51.2284 30.247C51.4161 30.1293 55.8746 27.5161 60.4738 28.4107C65.7066 29.4465 67.138 26.7863 67.2084 26.6922C67.3258 26.4803 67.5604 26.4096 67.7716 26.5038C67.9828 26.6215 68.0532 26.8569 67.9593 27.0688C67.8889 27.2101 66.2229 30.4118 60.3096 29.2582C56.0389 28.4107 51.6977 30.9532 51.6508 30.9768C51.5804 31.0239 51.51 31.0474 51.4396 31.0474H51.4631Z" fill="#3E3A39"/>
<path d="M20.4413 41.429L21.5676 35.6613L23.0225 35.1904L22.2012 39.3573C22.4358 39.2396 22.6236 39.1455 22.7878 39.0984C23.4214 38.8865 24.0315 38.8394 24.6181 38.9807C25.2048 39.0984 25.721 39.3809 26.1668 39.7811C26.6127 40.1813 26.9412 40.7228 27.1524 41.3819C27.3636 42.0176 27.4105 42.6297 27.2697 43.2182C27.1524 43.8067 26.8943 44.3247 26.4719 44.772C26.073 45.2193 25.5333 45.5253 24.8997 45.7372C24.2427 45.9491 23.6326 45.9961 23.0459 45.8784C22.4593 45.7607 21.9431 45.5018 21.4972 45.1016C21.0514 44.7013 20.7229 44.1834 20.5117 43.5243C20.3239 42.9122 20.277 42.2294 20.4178 41.4761L20.4413 41.429ZM25.5098 43.9245C25.7679 43.642 25.9087 43.3124 25.9791 42.9122C26.0495 42.5119 26.0261 42.1353 25.8853 41.7115C25.7445 41.2878 25.5333 40.9346 25.2517 40.6757C24.9701 40.3932 24.6416 40.2284 24.2661 40.1342C23.8907 40.04 23.5152 40.0636 23.1163 40.2048C22.7174 40.3225 22.3889 40.5344 22.1308 40.8169C21.8727 41.0994 21.7319 41.429 21.6615 41.8292C21.5911 42.2294 21.638 42.6297 21.7788 43.0534C21.9196 43.4536 22.1073 43.8068 22.3889 44.0657C22.6705 44.3247 22.999 44.513 23.351 44.6072C23.7264 44.7013 24.1019 44.6778 24.5008 44.5365C24.8997 44.3953 25.2282 44.207 25.4864 43.9245H25.5098Z" fill="#D2476E"/>
<path d="M30.5781 43.1236C29.8976 42.8646 29.2641 42.4173 28.7244 41.7346C28.1612 41.0519 27.7388 40.2279 27.4103 39.2627C27.0818 38.274 26.9645 37.3558 27.0114 36.4848C27.0583 35.6137 27.293 34.8839 27.6919 34.2718C28.0908 33.6598 28.654 33.2595 29.3345 33.0241C30.0384 32.7887 30.7189 32.8122 31.3994 33.0712C32.0799 33.3302 32.69 33.7775 33.2532 34.4602C33.8164 35.1429 34.2388 35.9669 34.5673 36.9321C34.8723 37.9208 35.0131 38.839 34.9662 39.71C34.9193 40.5811 34.6846 41.3109 34.2857 41.923C33.8868 42.535 33.3236 42.9352 32.6431 43.1707C31.9391 43.4061 31.2586 43.3825 30.5547 43.1471L30.5781 43.1236ZM33.3001 41.1225C33.5348 40.6752 33.6521 40.1338 33.6756 39.4746C33.6756 38.8154 33.5583 38.1092 33.3236 37.3323C33.0655 36.5554 32.7604 35.9198 32.3615 35.3783C31.9626 34.8368 31.5402 34.4837 31.0944 34.2718C30.6485 34.06 30.1792 34.0129 29.7334 34.1777C29.2875 34.3189 28.9356 34.625 28.7009 35.0723C28.4662 35.5196 28.3255 36.061 28.3255 36.7202C28.3255 37.3794 28.4428 38.0856 28.7009 38.8625C28.959 39.6394 29.2641 40.275 29.663 40.8165C30.0619 41.3344 30.4843 41.7111 30.9301 41.923C31.3994 42.1348 31.8453 42.1819 32.2911 42.0171C32.737 41.8759 33.089 41.5698 33.3236 41.1225H33.3001Z" fill="#D2476E"/>
<path d="M41.9597 31L42.2413 31.824L35.8822 33.8957L35.6006 33.0717L41.9597 31ZM43.5554 33.26L43.837 34.1075L35.9056 36.6971L35.6241 35.8496L43.5554 33.26ZM38.9327 35.4965C39.4255 37.5682 39.6132 39.3574 37.7125 40.9582C37.5482 40.7699 37.2197 40.5345 36.9616 40.4403C38.6746 39.0513 38.4634 37.5211 38.0175 35.779L38.9092 35.4965H38.9327ZM41.2792 34.6019L42.3587 37.9684C42.4525 38.298 42.5464 38.3451 42.8749 38.2274C43.0157 38.1803 43.6962 37.9684 43.8839 37.8978C44.2124 37.7801 44.189 37.5446 43.79 36.1557C44.0247 36.2498 44.4471 36.2734 44.7052 36.2734C45.1276 37.8978 45.0572 38.4157 44.2124 38.6982C44.0247 38.7688 43.2034 39.0278 43.0157 39.0984C42.124 39.3809 41.7955 39.1926 41.4904 38.2744L40.411 34.9079L41.2792 34.6254V34.6019Z" fill="#D2476E"/>
</g>
</svg>
