<svg width="601" height="60" viewBox="0 0 601 60" fill="none" xmlns="http://www.w3.org/2000/svg">
<rect x="38" y="5" width="563" height="50" rx="25" fill="url(#paint0_linear_275_105)"/>
<path d="M30 55C43.794 55 55 43.794 55 30C55 16.206 43.794 5 30 5C16.206 5 5 16.206 5 30C5 43.794 16.206 55 30 55Z" fill="white" stroke="#E4E4E3" stroke-width="8.57143"/>
<path d="M24.0638 35.724C24.5838 35.2387 25.1471 34.736 25.7538 34.216C26.3778 33.6787 26.9758 33.176 27.5478 32.708C28.7091 31.772 29.6104 31.0007 30.2518 30.394C30.9104 29.7873 31.4478 29.1633 31.8638 28.522C32.2971 27.8807 32.5138 27.2393 32.5138 26.598C32.5138 26.0087 32.4011 25.4887 32.1758 25.038C31.9504 24.5873 31.6384 24.2407 31.2398 23.998C30.8411 23.738 30.3818 23.608 29.8618 23.608C29.2031 23.608 28.5704 23.8073 27.9638 24.206C27.3571 24.6047 26.9151 25.1247 26.6378 25.766L23.2838 24.258C23.8558 22.9927 24.7571 21.9527 25.9878 21.138C27.2184 20.3233 28.5098 19.916 29.8618 19.916C31.1444 19.916 32.2798 20.202 33.2678 20.774C34.2731 21.3287 35.0531 22.1173 35.6078 23.14C36.1798 24.1453 36.4658 25.298 36.4658 26.598C36.4658 27.8633 36.1278 29.0593 35.4518 30.186C34.7931 31.2953 33.9958 32.2833 33.0598 33.15C32.1411 33.9993 30.9278 35.0133 29.4198 36.192C28.1024 37.232 27.1318 38.038 26.5078 38.61L24.0638 35.724ZM24.0638 35.724H36.7258V39.156H24.3238L24.0638 35.724Z" fill="#727171"/>
<defs>
<linearGradient id="paint0_linear_275_105" x1="38" y1="30" x2="601" y2="30" gradientUnits="userSpaceOnUse">
<stop offset="0.5" stop-color="#E4E4E3"/>
<stop offset="1" stop-color="white" stop-opacity="0"/>
</linearGradient>
</defs>
</svg>
