<svg width="50" height="38" viewBox="0 0 50 38" fill="none" xmlns="http://www.w3.org/2000/svg">
<path d="M5.6 18.04V20.04C5.6 26.12 6.96 32.16 11.08 37.8H6.28C2.32 33.08 0.4 26.84 0.4 19.84V18.24C0.4 11.24 2.32 5.08 6.28 0.359999H11.08C7.16 5.64 5.6 11.64 5.6 18.04ZM29.0931 32.04H23.9731V8.96L17.4131 12.72L14.9331 8.56L24.5731 3.2H29.0931V32.04ZM44.0978 20.04V18.04C44.0978 11.64 42.5378 5.64 38.6178 0.359999H43.4178C47.3778 5.08 49.2978 11.24 49.2978 18.24V19.84C49.2978 26.84 47.3778 33.08 43.4178 37.8H38.6178C42.7378 32.16 44.0978 26.12 44.0978 20.04Z" fill="#60AB83"/>
</svg>
