<svg width="342" height="404" viewBox="0 0 342 404" fill="none" xmlns="http://www.w3.org/2000/svg">
<path d="M7.73695 321.68L0.179933 317.317L0 260.414L7.55702 264.822L7.73695 321.68Z" fill="#DADBDB"/>
<path d="M268.366 189.424L260.764 185.061L260.719 167.383L268.276 171.791L268.366 189.424Z" fill="#DADBDB"/>
<path d="M255.59 175.617L248.033 171.208L260.718 155.734L268.275 160.098L255.59 175.617Z" fill="#DADBDB"/>
<path d="M341.821 90.0508L342.001 146.953L268.365 189.462L268.275 171.784L255.59 175.607L268.275 160.088L268.185 132.559L341.821 90.0508Z" fill="white"/>
<path d="M268.274 160.088L260.717 155.679L260.627 128.195L268.184 132.559L268.274 160.088Z" fill="#DADBDB"/>
<path d="M268.184 132.567L260.627 128.204L334.263 85.6953L341.82 90.0586L268.184 132.567Z" fill="#DADBDB"/>
<path d="M229.139 307.171L221.582 302.808L221.492 275.863L229.049 280.272L229.139 307.171Z" fill="#DADBDB"/>
<path d="M229.049 266.123L221.447 261.715L221.402 245.926L229.004 250.334L229.049 266.123Z" fill="#DADBDB"/>
<path d="M229.004 250.315L221.402 245.907L295.038 203.398L302.64 207.807L229.004 250.315Z" fill="#DADBDB"/>
<path d="M302.596 207.812L302.776 264.67L229.14 307.178L229.05 280.279L213.576 276.41L229.005 266.11L228.96 250.321L302.596 207.812Z" fill="white"/>
<path d="M213.575 276.412L205.973 272.004L221.447 261.703L229.004 266.111L213.575 276.412Z" fill="#DADBDB"/>
<path d="M122.397 320.145L114.84 315.737L130.359 308.18L137.916 312.588L122.397 320.145Z" fill="#DADBDB"/>
<path d="M219.063 119.785L211.461 115.377L211.102 92.2109L218.659 96.6192L219.063 119.785Z" fill="#DADBDB"/>
<path d="M215.961 125.006L223.518 129.415C211.193 122.217 194.055 123.252 175.207 134.138L167.65 129.729C186.543 118.844 203.636 117.809 215.961 125.006Z" fill="#DADBDB"/>
<path d="M122.353 304.348L122.398 320.136L137.917 312.579L122.443 334.306L122.533 361.205L48.8967 403.713L48.7617 346.856L122.353 304.348Z" fill="white"/>
<path d="M48.7601 346.862L41.2031 342.454L114.794 299.945L122.351 304.354L48.7601 346.862Z" fill="#DADBDB"/>
<path d="M48.8951 403.711L41.3381 399.303L41.2031 342.445L48.7601 346.809L48.8951 403.711Z" fill="#DADBDB"/>
<path d="M206.11 46.9165L198.553 42.5082L272.189 0L279.746 4.40826L206.11 46.9165Z" fill="#DADBDB"/>
<path d="M279.745 4.41016L279.88 61.2677L234.223 87.6273L219.064 119.79L218.659 96.6238L206.289 103.776L206.109 46.9184L279.745 4.41016Z" fill="white"/>
<path d="M206.29 103.774L198.733 99.3654L198.553 42.5078L206.11 46.9161L206.29 103.774Z" fill="#DADBDB"/>
<path d="M127.346 294.896L119.789 290.487C107.599 283.425 100.042 268.356 99.9965 246.945C99.8616 203.852 130.18 151.357 167.695 129.676L175.252 134.084C137.737 155.721 107.419 208.215 107.554 251.308C107.599 272.719 115.156 287.788 127.346 294.851" fill="#DADBDB"/>
<path d="M175.207 134.132C212.722 112.496 243.22 129.859 243.355 172.952C243.49 216.045 213.172 268.539 175.656 290.176C138.141 311.812 107.643 294.449 107.508 251.356C107.373 208.263 137.691 155.769 175.207 134.087" fill="white"/>
<path d="M124.736 165.215L117.179 160.852L101.84 146.277L109.442 150.686L124.736 165.215Z" fill="#DADBDB"/>
<path d="M63.559 120.186L56.002 115.778L129.593 73.2695L137.195 77.6778L63.559 120.186Z" fill="#DADBDB"/>
<path d="M63.7389 177.088L56.1819 172.68L56.002 115.777L63.559 120.186L63.7389 177.088Z" fill="#DADBDB"/>
<path d="M137.197 77.6836L137.331 134.586L125.006 141.693L124.736 165.219L109.442 150.69L63.7405 177.094L63.5605 120.192L137.197 77.6836Z" fill="white"/>
<path d="M81.2817 250.193L73.6797 245.785L89.8283 247.764L97.3853 252.128L81.2817 250.193Z" fill="#DADBDB"/>
<path d="M81.1926 222.258L81.2825 250.192L97.3862 252.126L81.2825 263.686L81.3275 279.115L7.73657 321.624L7.55664 264.766L81.1926 222.258Z" fill="white"/>
<path d="M7.55702 264.764L0 260.356L73.6359 217.848L81.193 222.256L7.55702 264.764Z" fill="#DADBDB"/>
<path d="M221.763 156.217C222.618 156.307 223.023 157.161 223.607 157.656C226.981 160.94 227.746 168.857 225.317 176.234C224.417 179.293 223.787 182.397 223.428 185.41C223.248 185.05 223.203 184.421 223.068 183.926C221.718 178.798 216.86 177.403 214.881 173.04C214.251 171.601 213.711 170.026 213.396 168.272C215.511 171.556 220.774 170.836 222.213 175.019C222.798 175.919 222.753 177.538 223.113 178.663L223.248 178.393C222.618 173.67 222.798 168.182 223.383 162.784C223.338 160.085 223.113 157.566 221.763 156.172" fill="#339AD7"/>
<path d="M203.186 153.303C205.974 153.034 208.943 152.134 211.327 153.213C214.116 154.473 215.376 157.442 216.23 160.815L216.68 161.76C212.632 160.771 208.943 158.386 206.379 155.103L203.231 153.258L203.186 153.303Z" fill="#339AD7"/>
<path d="M213.53 153.13C217.219 151.87 220.412 154.434 221.222 158.033C222.122 162.126 220.817 167.344 221.672 171.437C219.468 167.839 214.835 168.199 211.641 166.129C209.797 164.87 208.987 162.486 208.537 159.742C210.381 163.7 215.284 161.991 218.073 164.6C219.018 165.005 219.333 166.219 219.918 166.984L220.008 166.804C218.388 163.79 217.803 159.607 216.679 156.053C216.094 154.569 214.97 153.399 213.485 153.13" fill="#339AD7"/>
<path d="M129.368 210.438C126.489 217.14 128.918 222.088 128.783 227.891L128.423 233.963H128.603C128.783 233.243 128.828 232.524 128.918 231.804C129.593 226.676 133.146 221.278 136.25 216.195C136.925 214.936 137.51 213.766 137.824 212.552C137.554 215.071 136.925 217.815 136.115 220.469C133.686 227.306 129.233 234.368 128.423 241.07C128.018 235.313 124.465 232.884 124.779 226.361C124.645 221.278 126.489 215.97 129.098 210.662L129.323 210.438H129.368Z" fill="#339AD7"/>
<path d="M137.375 197.887C133.642 203.015 133.867 208.188 132.697 213.316C132.292 215.205 131.662 217.049 131.348 218.938H131.438C132.067 216.734 133.147 214.305 134.496 211.966C137.15 207.603 141.109 203.554 142.368 198.606C142.368 204.454 138.14 211.471 134.091 217.094C132.427 219.703 130.808 222.582 129.908 225.236C129.818 223.841 130.088 222.177 129.998 220.693C129.548 215.835 129.233 210.257 132.337 204.679C133.687 201.935 135.396 199.596 137.33 197.932" fill="#339AD7"/>
<path d="M145.202 259.512C148.846 260.186 151.95 262.166 155.323 263.875C157.752 264.91 160.676 264.37 163.78 263.335C163.06 264.055 162.071 264.55 161.261 265.224C157.303 268.643 153.074 272.737 148.801 275.166C147.092 276.155 145.427 276.875 143.763 277.19C139.939 277.999 136.026 276.83 134.092 273.591C139.175 277.28 147.407 270.307 154.154 268.148C154.964 267.833 155.683 267.698 156.493 267.249C156.673 267.159 156.808 267.024 156.988 266.934C156.178 266.844 155.054 267.519 154.199 267.519C148.891 268.418 148.126 262.301 145.247 259.557" fill="#339AD7"/>
<path d="M137.6 250.863C139.714 252.573 141.648 254.462 142.908 256.981C144.797 261.254 145.562 266.922 149.925 268.451C145.202 269.396 139.624 273.085 135.441 272.14C130.852 271.555 126.804 268.451 125.904 262.919C129.098 269.261 136.97 265.393 142.278 267.372C143.268 267.822 144.257 268.047 145.382 268.002V267.912C144.212 267.327 142.818 266.697 141.963 265.572C138.859 262.424 139.939 254.867 137.6 250.863Z" fill="#339AD7"/>
<path d="M134.135 240.512C136.924 245.73 136.114 254.726 137.644 261.204C138.049 262.598 138.858 263.543 139.398 264.802C133.73 263.633 126.038 263.857 123.474 257.245C122.395 255.086 122.305 251.667 122.53 248.339C122.98 255.266 129.772 255.176 132.921 259.359C133.64 260.169 134.315 261.159 135.305 261.608C135.125 260.934 134.54 260.664 134.27 259.989C133.146 258.1 132.786 255.356 133.011 252.162C133.326 248.294 134.63 244.11 134.09 240.512" fill="#339AD7"/>
<path d="M123.836 229.503C122.666 236.97 126.669 239.579 128.019 244.707C128.559 246.596 128.694 248.89 129.503 250.509L129.683 250.284C127.704 245.157 130.493 237.734 133.327 231.167C134.002 229.458 134.406 227.748 134.721 226.039C135.036 228.693 134.406 232.337 134.092 235.485C133.417 239.624 132.427 243.762 131.528 247.9C130.943 250.509 131.123 252.983 131.438 255.188L131.123 255.098C129.053 251.904 124.915 250.869 123.701 246.776C122.711 243.537 121.991 239.489 122.666 234.946C122.981 233.146 123.206 231.347 123.836 229.503Z" fill="#339AD7"/>
<path d="M182.043 252.493C185.596 250.424 189.195 249.435 192.119 249.525L196.527 248.985C198.101 248.76 199.901 248.085 201.655 247.051C204.444 245.431 207.278 242.912 209.437 239.898C207.638 243.542 205.164 246.826 202.645 249.345C201.07 250.919 199.541 252.089 197.966 252.988C193.828 255.372 189.78 255.597 186.541 254.653C184.832 254.383 183.302 253.483 181.098 254.743C181.008 254.788 180.918 254.878 180.828 254.922C180.738 254.967 180.648 255.012 180.558 255.102C179.839 255.507 179.119 256.002 178.489 256.587C182.807 256.407 186.856 257.262 190.499 259.241C189.87 260.41 189.105 261.625 188.34 262.794C184.787 260.455 180.873 258.521 176.465 258.566C175.61 259.196 174.801 260.275 174.036 261.175C170.482 265.808 166.974 271.206 164.32 276.784L162.026 275.929C165.669 269.632 169.673 264.009 174.036 259.106C173.361 259.241 172.731 259.511 172.147 259.826C168.863 261.76 166.389 266.438 163.6 269.812C161.036 273.365 157.707 276.649 154.379 278.538C152.759 279.483 151.185 280.068 149.656 280.248C147.181 280.607 144.752 280.382 142.953 278.853C145.112 279.303 147.856 278.538 150.555 276.964C152.489 275.839 154.424 274.31 156.133 272.556C160.676 267.652 165.354 262.165 170.572 259.151C171.742 258.476 172.911 257.936 174.126 257.531C174.846 257.127 175.565 257.307 176.285 256.902C176.6 256.722 176.87 256.452 177.185 255.957C178.759 254.608 180.378 253.438 181.998 252.493" fill="#339AD7"/>
<path d="M206.962 223.246C204.128 229.049 203.858 235.121 199.225 240.519C198.056 242.049 196.616 243.038 195.402 244.388C195.402 244.388 195.492 244.343 195.537 244.343C197.201 243.398 198.73 241.824 200.35 240.699C206.602 235.931 213.754 232.962 218.163 224.326C216.543 229.544 212.45 235.481 208.761 239.125C207.007 240.924 205.208 242.229 203.453 243.263C198.82 245.917 194.232 246.592 189.824 248.301L188.654 248.796C191.578 246.322 194.412 243.668 196.751 239.89C200.17 234.087 203.229 228.419 207.007 223.246" fill="#339AD7"/>
<path d="M192.884 166.664C192.884 166.664 193.064 166.619 193.154 166.574C193.244 166.574 193.334 166.574 193.469 166.484C193.559 166.439 193.649 166.349 193.739 166.17C194.099 166.08 194.459 166.08 194.594 166.484C194.504 167.024 194.999 167.159 194.684 167.744C194.594 167.834 194.504 167.924 194.414 167.969C193.649 168.419 193.514 167.384 192.794 167.519C192.659 167.429 192.614 167.204 192.659 166.979C192.749 166.799 192.839 166.709 192.929 166.664" fill="#339AD7"/>
<path d="M180.964 168.151C182.043 167.657 183.303 167.072 183.933 167.746V167.881C183.438 168.691 182.808 169.456 182.133 169.816C181.908 169.951 181.683 170.041 181.458 170.041C180.784 170.58 179.929 171.435 179.119 171.885C178.49 172.245 177.905 172.38 177.455 171.975V171.615C177.455 171.615 177.635 171.255 177.77 171.165C177.95 171.075 178.13 171.03 178.22 171.03L180.964 168.106V168.151Z" fill="#339AD7"/>
<path d="M210.067 170.614C214.026 177.092 215.195 188.472 212.676 199.808C210.112 212.987 201.611 229.676 191.714 240.202C187.081 245.465 181.683 249.873 176.196 253.022C168.414 257.52 160.542 259.544 154.649 258.105C140.75 255.181 135.037 239.662 139.175 218.7C141.694 206.195 149.296 190.676 158.607 180.15C163.87 174.123 169.583 169.22 175.836 165.486C190.14 157.254 203.815 159.009 210.067 170.659M178.849 175.112C178.04 175.427 177.275 176.102 176.555 176.057L176.735 176.372C176.735 178.441 176.825 180.51 176.645 182.534C176.87 182.355 177.05 182.175 177.275 182.085C177.815 181.77 178.355 181.68 178.849 181.365C182.583 179.925 186.092 179.296 189.06 180.195C188.701 179.97 188.251 179.701 188.206 179.116L188.431 178.891C188.431 178.171 187.846 178.216 187.756 177.631C187.846 177.496 187.936 177.317 188.071 177.227H188.161C188.791 177.541 189.375 177.991 189.87 178.486C189.96 178.396 190.05 178.306 190.14 178.261C190.455 178.081 190.68 178.171 190.905 178.261C191.445 178.306 191.13 179.296 191.535 179.521C191.624 180.735 192.974 180.69 192.884 182.04C192.884 182.175 192.974 182.175 193.019 182.13C193.154 182.04 193.244 181.995 193.334 181.995L194.503 182.939C194.323 183.389 194.503 183.659 194.683 183.749C194.773 183.749 194.863 183.749 194.908 183.704C195.088 183.614 195.223 183.434 195.358 183.209C195.493 182.984 195.673 182.804 195.853 182.669C195.853 182.669 195.943 182.669 195.943 182.624C196.662 182.624 195.808 183.704 195.943 184.199C196.078 184.154 196.168 184.064 196.258 183.974C196.348 183.884 196.438 183.794 196.528 183.749C196.618 183.704 196.707 183.659 196.797 183.749C196.887 184.154 196.438 184.739 196.303 185.143C196.303 185.593 196.662 185.323 196.932 185.233C197.292 185.008 197.472 185.368 197.382 185.773C198.327 186.358 197.112 188.292 197.562 189.237C197.832 189.867 197.472 190.811 197.067 191.666C197.067 192.61 196.348 193.645 196.033 194.59L195.088 195.354C194.593 196.254 195.538 196.434 194.998 197.064L197.112 195.894L196.887 195.759C196.573 194.95 196.663 193.645 197.157 192.476C197.472 191.531 197.562 190.496 198.147 189.507C198.237 189.417 198.372 189.237 198.462 189.147C198.507 189.147 198.597 189.147 198.642 189.192C198.642 189.912 198.642 190.766 198.327 191.621C198.957 192.251 198.867 193.6 198.912 194.815C200.396 193.825 201.88 192.925 203.365 192.071C203.725 191.846 204.085 191.666 204.444 191.441L204.265 191.126C203.95 187.258 203.23 183.884 201.79 181.275C201.476 181.455 201.206 181.905 200.846 182.085C200.756 182.085 200.711 182.175 200.621 182.175C200.486 182.175 200.396 182.085 200.396 181.86C199.631 181.455 199.182 180.645 198.282 180.42C198.282 180.42 198.192 180.465 198.192 180.51C197.292 181.005 196.887 180.105 196.033 180.42C195.358 180.51 195.673 179.161 194.998 179.521C194.908 179.566 194.773 179.656 194.638 179.791C194.099 179.836 193.559 179.656 193.424 179.026C193.424 177.856 193.244 176.777 192.344 176.552C192.254 176.552 192.209 176.552 192.119 176.642C191.894 176.777 191.669 177.047 191.489 177.361C191.31 177.631 191.085 177.901 190.86 178.036C190.815 178.036 190.77 178.081 190.725 178.081C190.32 178.081 190.5 177.406 190.41 177.137C190.275 176.867 189.96 176.822 190.005 176.372C190.905 174.483 188.926 175.652 189.33 174.078C189.195 173.178 188.341 173.313 187.936 172.818C185.012 172.998 182.043 173.628 178.715 175.067M211.866 184.963C211.102 175.697 207.503 169.445 201.835 165.396C200.801 167.6 199.406 169.939 198.057 172.234L197.427 172.773C197.832 172.638 197.967 173.133 198.192 173.313C199.586 173.313 199.946 174.842 201.161 175.112C201.835 176.327 203.41 176.687 203.5 178.531C205.164 181.77 206.289 185.548 206.424 190.406L206.244 190.766C206.244 190.766 206.559 190.496 206.694 190.316L212.136 187.078C211.777 186.673 211.911 185.728 211.821 185.008M177.32 250.053C186.452 244.34 194.323 235.793 201.071 224.818L197.067 222.749L196.977 222.254C196.438 223.783 195.268 225.223 194.368 226.662C193.109 228.776 191.13 230.261 190.5 232.645C189.825 233.724 189.6 234.939 188.701 235.883C188.341 237.143 187.396 237.638 186.856 238.717C186.496 239.302 186.137 239.662 185.822 239.842C184.742 240.472 183.888 239.302 182.763 239.707L179.884 241.956C179.209 242.361 178.49 242.946 177.815 243.35C177.5 243.53 177.23 243.665 176.915 243.71C177.05 245.824 177.05 248.254 176.915 250.548L177.275 250.053M171.247 253.247C172.462 252.797 173.857 251.852 175.026 251.582L174.756 251.222V245.33L174.936 244.88L174.351 245.375C166.974 249.063 160.407 249.828 155.009 246.949V247.264L151.05 254.011C156.988 256.485 163.646 256.44 171.293 253.202M140.03 225.043C139.805 226.482 139.985 227.742 139.715 229.181C140.66 228.551 141.649 227.922 142.639 227.382C143.628 226.797 144.618 226.302 145.563 225.807L145.428 225.043C145.788 217.89 147.677 210.558 151.095 203.091C151.95 201.472 152.58 199.718 153.614 198.278C152.4 197.648 151.095 196.839 149.791 196.164L149.656 195.624C144.258 205.655 140.974 215.461 140.03 225.043ZM212.046 190.002L212.271 189.372L212.001 189.687L206.604 192.835L206.289 192.745L206.469 193.24C206.199 200.662 204.085 208.309 200.486 216.046C199.811 217.396 199.137 218.97 198.282 220.185C199.721 220.679 201.341 221.714 202.51 222.524L202.69 222.119C208.493 211.143 211.732 200.437 212.091 190.046M154.064 188.697C152.895 190.271 151.905 192.251 150.691 193.735L150.871 193.645C152.355 194.05 153.794 195.04 155.054 195.849L155.144 195.489C160.677 186.493 167.109 179.611 174.486 174.932L174.306 174.483L174.216 169.31L174.351 168.59C166.749 173.358 159.957 180.24 153.974 188.697M144.483 247.984C145.833 250.098 147.812 251.537 149.521 253.202L153.3 246.544L153.749 246.049C153.12 245.914 152.535 245.375 151.995 244.97C151.365 245.15 150.736 244.97 150.421 244.475C150.241 244.34 150.421 243.8 150.196 243.755L149.971 244.205C149.971 244.205 149.746 244.43 149.656 244.475C149.206 244.745 148.981 244.295 148.621 244.25C148.082 244.25 148.262 242.991 147.677 243.35C147.632 243.35 147.542 243.44 147.497 243.485C147.227 243.62 147.092 243.305 146.912 243.171C146.912 243.171 146.867 243.171 146.822 243.216C146.147 243.62 145.967 242.856 145.563 242.631C145.473 242.856 145.563 243.081 145.338 243.35C145.293 243.395 145.203 243.44 145.158 243.485C144.528 243.845 144.258 243.081 143.808 242.946C143.673 243.081 143.583 243.26 143.448 243.35C143.448 243.35 143.448 243.35 143.359 243.35C142.909 243.171 142.594 242.721 142.594 242.001C141.964 241.551 142.234 240.112 142.369 239.077C142.459 238.762 142.819 238.402 142.774 238.088C142.954 237.548 143.358 237.278 143.763 237.008C143.898 237.008 144.078 237.098 144.123 237.188C144.348 236.873 144.933 236.738 144.708 236.243C145.023 235.748 145.518 235.344 145.923 235.029C146.237 235.299 146.372 235.703 146.777 235.883L146.507 235.569C146.057 233.724 145.698 231.745 145.563 229.496C145.563 229.361 145.338 229.451 145.473 229.226C145.473 228.776 145.473 228.371 145.518 228.012L144.978 228.551L139.715 231.565C140.075 238.357 141.649 243.755 144.438 247.984M180.289 165.531C179.074 165.981 177.725 166.881 176.6 167.151C176.825 168.725 176.78 171.064 176.645 173.043C176.645 172.863 176.735 172.683 176.825 172.503C176.87 172.413 176.96 172.368 177.005 172.323C177.185 172.234 177.32 172.323 177.455 172.458C177.455 172.728 177.59 173.178 177.365 173.493C177.365 173.493 177.41 173.493 177.455 173.493C177.635 173.403 177.725 173.178 177.95 173.043C182.313 170.929 186.317 170.074 189.96 170.299V170.209C190.41 169.67 190.995 169.04 191.535 168.725C191.849 168.545 192.119 168.5 192.434 168.59C192.569 168.455 192.659 168.365 192.749 168.32C193.379 167.96 193.604 168.815 194.233 168.59C195.133 168.68 196.123 169.265 196.258 170.389C196.438 170.704 196.977 170.659 197.022 171.019C197.607 169.22 198.822 167.42 199.856 165.576L200.486 164.901C194.728 161.933 187.936 162.382 180.334 165.576M153.12 221.534C153.12 221.534 152.94 221.219 152.895 221.039C153.3 214.607 155.189 207.949 158.922 201.202C157.483 200.572 156.133 199.853 154.919 198.908V199.358L152.85 203.541C149.521 210.783 147.947 217.801 147.452 224.728L152.67 221.624L153.165 221.534M196.528 217.441C196.438 218.34 197.067 218.61 196.842 219.51C201.611 210.963 203.995 202.462 204.399 194.32L204.669 193.825C203.77 194.455 202.825 194.995 201.88 195.534C201.656 195.669 201.431 195.804 201.161 195.939C200.576 196.254 199.991 196.614 199.406 196.929L199.002 197.019C199.136 198.278 198.822 199.763 198.777 201.112L199.406 201.517C199.406 201.517 199.496 202.237 199.271 202.597C199.182 202.731 199.047 202.866 198.912 202.956C198.732 203.046 198.552 203.091 198.417 203.046C197.607 206.42 196.707 209.794 195.133 213.257C194.503 214.562 193.919 216.136 193.109 217.081L194.863 217.846V217.396C194.863 217.171 194.998 216.811 195.268 216.676C195.268 216.676 195.268 216.676 195.313 216.676C196.168 216.181 196.168 217.171 196.662 217.441M174.576 183.704C174.486 181.68 174.351 179.611 174.531 177.451C169.043 181.005 164.095 185.773 159.732 191.711C158.562 193.33 157.483 195.174 156.268 196.704C157.663 196.929 158.832 197.963 160.092 198.593L160.227 198.953C163.466 193.51 167.379 189.192 171.607 185.728C172.372 185.188 173.137 184.514 173.901 184.064C174.126 183.929 174.351 183.839 174.576 183.749M174.981 242.991L174.756 242.406V236.648L174.261 237.143C169.673 239.527 165.625 239.932 162.026 238.897C162.116 239.392 162.746 239.347 162.566 240.112C162.296 240.741 161.756 241.146 161.306 241.416C161.216 241.416 161.127 241.506 161.037 241.551C160.947 241.551 160.857 241.641 160.767 241.686C159.822 242.226 159.057 243.44 158.158 244.115C158.068 244.205 157.933 244.295 157.843 244.34C157.483 244.52 157.258 244.43 156.988 244.34C156.718 244.25 156.448 244.16 156.133 244.34C156.133 244.34 156.089 244.34 156.044 244.34C161.351 246.589 167.379 246.409 174.441 242.766L174.981 242.856M175.746 202.057C175.746 202.057 175.431 202.057 175.251 202.102C174.936 202.282 174.621 202.597 174.396 202.821C174.756 203.046 174.621 203.901 174.846 204.306C174.306 205.7 173.317 206.51 172.417 207.32C172.192 207.814 172.237 208.489 171.742 208.759C171.742 208.759 171.697 208.759 171.652 208.759C171.472 209.344 170.798 210.019 171.068 210.558C170.753 211.458 170.888 212.358 170.753 213.257C170.573 213.527 170.393 213.662 170.303 213.752C169.763 214.067 169.853 212.673 169.403 212.583L169.223 213.077C169.223 213.077 169.133 213.122 169.133 213.167C168.953 213.257 168.818 213.167 168.684 213.167C168.594 213.167 168.459 213.212 168.369 213.302C168.279 213.347 168.144 213.437 168.099 213.572C167.829 214.202 167.469 214.787 167.559 215.416C167.424 215.866 166.884 216.046 166.929 216.451C167.559 216.091 168.234 215.551 168.863 215.057C168.908 215.057 168.998 215.012 169.043 214.967C169.403 214.787 169.718 214.292 170.078 214.067C170.258 214.067 170.393 214.157 170.348 214.427L170.483 214.337C170.798 213.887 170.933 213.437 170.798 213.122C170.798 212.628 171.293 212.403 171.517 212.088C171.742 212.088 171.607 212.448 171.652 212.628C172.507 212.538 171.427 213.842 171.337 214.427C171.113 214.922 171.337 215.686 170.753 216.001C170.753 216.001 170.663 216.046 170.618 216.046C170.483 216.046 170.393 215.956 170.438 215.776H170.348C170.348 216.181 170.573 216.541 170.888 216.496C171.427 215.686 171.427 214.832 172.192 214.292C172.597 213.572 172.012 213.167 172.642 212.448C173.137 212.133 173.677 211.683 174.171 211.413C174.666 211.143 175.071 211.008 175.476 211.233C175.431 211.638 175.296 211.908 175.566 212.088C175.386 212.718 175.251 213.302 174.891 213.932C174.981 214.157 174.891 214.562 174.711 214.877C174.441 216.361 173.137 216.496 172.327 217.396C173.362 217.711 174.576 217.396 175.926 216.676C176.106 216.541 176.331 216.451 176.555 216.271C177.365 215.776 177.005 214.832 177.41 214.067C177.545 213.302 177.86 212.942 178.265 212.718C178.4 212.628 178.535 212.583 178.715 212.493C178.85 212.448 179.029 212.358 179.164 212.268C179.344 212.178 179.479 212.043 179.659 211.863C179.929 211.053 180.199 210.244 180.289 209.479C179.794 209.389 179.614 208.849 179.794 208.129C179.479 207.814 179.479 206.87 178.805 207.23C178.67 207.14 178.805 206.825 178.849 206.69C178.849 206.24 179.254 205.835 179.389 205.385C178.94 205.295 179.074 204.531 179.074 204.081C178.984 204.171 178.94 204.216 178.895 204.216C178.355 204.531 178.22 203.676 177.725 203.766C177.59 203.361 177.14 203.541 176.735 203.631C176.6 203.811 176.465 203.901 176.375 203.946C175.791 204.306 175.611 203.451 175.026 203.496C174.936 203.316 174.801 203.046 175.026 202.731C175.161 202.552 175.251 202.462 175.431 202.372C175.566 202.282 175.656 202.237 175.791 202.192C175.926 202.147 176.016 202.102 176.151 202.012C176.151 202.012 176.196 202.012 176.241 202.012H175.926M159.732 234.534C159.957 235.344 158.787 235.793 158.922 236.513C158.922 236.468 158.967 236.423 159.012 236.423C159.147 236.333 159.192 236.558 159.237 236.648C160.677 233.814 162.341 230.8 164.095 228.101L163.376 227.697C162.026 226.167 160.947 224.323 160.452 221.894H159.912C159.912 222.614 159.642 223.333 159.642 223.963L159.462 224.323C159.057 224.548 158.832 224.323 158.473 224.278C158.383 224.098 158.158 223.828 158.473 223.423C158.473 223.423 158.473 223.423 158.517 223.423C158.697 223.333 158.832 223.333 158.922 223.333C159.102 223.018 159.012 222.704 159.102 222.344C159.147 221.804 158.742 221.534 159.057 220.904C159.057 220.904 159.057 220.904 159.102 220.904C159.417 220.724 159.687 221.039 159.822 221.219C159.867 221.219 159.912 221.219 159.957 221.174C160.272 220.994 160.497 220.589 160.767 220.32C160.767 219.96 161.216 219.195 160.722 219.24C160.992 218.25 160.812 217.441 160.677 216.721C160.542 216.316 160.182 216.406 159.822 216.631C159.642 216.766 159.417 216.901 159.237 217.036C157.708 218.475 159.507 218.79 159.102 220.095C159.012 220.41 158.877 220.544 158.742 220.634C158.652 220.679 158.563 220.724 158.473 220.769C158.383 220.769 158.293 220.859 158.203 220.904C158.113 220.949 158.023 221.039 157.933 221.129L157.798 222.389C157.573 223.198 156.808 223.108 156.493 223.783C156.268 224.368 156.493 224.683 156.718 224.908C156.178 226.617 157.933 226.032 157.933 227.292C158.473 227.787 157.843 229.271 158.607 229.496C158.787 230.8 158.428 232.915 159.552 233.409L159.732 234.624M162.296 207.23C163.421 206.555 163.466 204.756 164.545 204.081C163.061 203.676 161.666 202.731 160.362 202.012C157.753 207.14 155.999 212.133 155.324 217.036C155.099 218.205 155.234 219.375 154.874 220.544C155.189 220.185 155.594 219.915 155.999 219.645C156.448 219.42 156.853 219.195 157.258 219.015C156.808 219.015 157.168 218.205 156.898 217.98C156.853 217.486 156.763 216.856 157.213 216.226C157.168 215.371 157.978 214.427 158.068 213.572C158.248 212.538 159.192 212.628 159.597 211.908C159.867 211.548 159.597 211.413 159.597 211.188C159.957 210.378 160.542 210.064 161.037 209.479C161.351 208.714 161.756 207.904 162.296 207.23ZM189.06 184.379L190.005 183.209H189.555C187.486 182.444 185.192 182.22 182.718 182.669C180.784 182.984 178.715 183.884 176.6 184.694L176.78 185.053V190.991L177.23 190.631C180.379 189.282 183.258 188.787 185.777 189.687L185.912 190.046C186.766 188.157 188.071 186.268 189.06 184.379ZM174.666 192.251C174.441 190.316 174.441 188.067 174.666 185.818L174.351 186.223C169.538 189.372 165.355 194.14 161.711 199.673C163.151 199.988 164.455 201.112 165.76 201.697C165.85 201.472 165.94 201.247 166.03 201.067C167.829 198.548 169.673 196.119 171.787 194.275C172.552 193.78 173.272 192.97 174.081 192.521C174.261 192.386 174.441 192.341 174.666 192.251ZM193.694 188.697C192.479 188.877 193.874 187.168 193.694 186.403C193.064 185.368 192.029 184.739 191.175 183.974L191.085 184.289C189.33 187.348 187.441 190.631 185.777 193.735C185.912 193.915 186.092 194.05 186.317 194.05C186.362 193.51 186.631 192.88 186.676 192.296C186.856 191.891 187.081 191.666 187.351 191.531C187.711 191.306 188.071 191.306 188.431 191.216C188.611 191.081 188.791 190.946 188.926 190.856C189.285 190.676 189.645 190.541 190.005 190.406C190.32 190.271 190.68 190.181 191.04 189.957C191.04 189.957 191.085 189.912 191.13 189.912C191.804 189.912 191.894 190.856 192.524 190.901C192.704 191.081 192.569 191.486 192.344 191.846C192.389 192.296 192.479 192.431 192.614 192.341C192.749 192.251 192.929 191.981 193.109 191.666C193.289 191.396 193.514 191.081 193.739 190.946C193.784 190.946 193.874 190.901 193.919 190.856C194.233 190.856 194.593 190.541 194.818 190.811C194.908 191.441 195.673 190.856 195.718 191.486C195.673 191.846 195.358 192.116 195.178 192.386C195.358 192.925 194.593 193.78 194.863 194.32C194.953 194.32 195.043 194.23 195.088 194.185C195.943 193.69 196.033 192.341 196.483 191.486C196.213 190.496 195.988 189.462 195.403 188.787C194.773 189.012 194.368 188.382 193.784 188.607M190.14 217.531C190.05 216.766 190.68 215.821 190.995 214.967L191.22 214.787C191.579 215.057 191.58 215.731 191.759 216.136C192.254 215.192 192.704 214.202 193.154 213.302C194.413 210.468 195.448 207.59 195.898 204.936C195.358 205.25 194.863 205.655 194.413 206.105C194.413 206.105 194.323 206.105 194.323 206.15C194.143 206.24 194.009 206.375 193.829 206.465C193.649 206.6 193.469 206.735 193.334 206.825C193.109 206.96 192.884 207.005 192.749 206.96H192.659C192.569 207.005 192.479 207.23 192.479 207.365C192.299 207.725 192.164 208.174 191.849 208.354C191.804 208.354 191.714 208.399 191.669 208.444C191.355 208.444 191.355 208.039 191.22 207.814C191.22 208.039 191.175 208.309 191.13 208.534C190.725 209.254 190.59 209.794 190.32 210.468C189.915 211.188 189.285 211.368 188.881 212.043C188.836 213.122 187.801 213.482 187.261 214.157L187.396 214.337C187.396 214.337 187.576 214.292 187.711 214.202C187.891 214.112 188.116 213.887 188.251 213.617C188.341 213.617 188.386 213.572 188.431 213.527C189.016 213.212 188.881 212.268 189.285 211.683C189.6 211.458 189.87 211.098 190.14 210.918C190.23 210.873 190.365 210.828 190.5 210.828C190.905 211.188 190.995 211.953 190.95 212.763C190.5 213.572 190.725 214.247 190.41 215.057C190.5 215.731 189.735 216.496 189.825 217.171C189.6 217.666 189.15 217.935 188.791 218.16C187.306 218.385 185.732 218.88 184.022 219.69C183.888 219.825 183.798 220.05 183.798 220.23C184.472 220.23 185.327 219.78 186.002 219.735C186.586 219.555 186.991 220.05 187.621 219.69C187.711 219.645 187.801 219.555 187.936 219.465C188.161 219.195 188.386 219.06 188.656 218.88C188.746 218.835 188.881 218.79 188.971 218.7C189.06 218.655 189.195 218.565 189.285 218.52C189.69 218.295 190.005 218.025 190.23 217.531M171.877 235.254C171.202 234.759 170.213 234.309 170.168 233.05C170.843 232.375 170.753 231.565 170.978 230.845C171.382 230.081 171.877 229.496 172.372 228.956C172.192 229.136 171.967 229.226 171.787 229.361C170.348 230.171 169.043 229.811 167.739 229.856C166.929 229.631 165.85 229.676 165.355 228.911C164.23 231.115 162.926 233.544 161.576 235.524C162.161 235.209 162.521 235.793 163.016 235.838C165.85 236.918 169.403 236.198 172.687 235.209H171.787M174.081 223.963C174.216 223.558 174.486 223.333 174.756 223.153C174.891 223.063 175.026 223.018 175.161 222.973C175.386 222.794 175.521 222.434 175.386 222.299C174.846 222.479 175.071 221.624 174.891 221.354C174.891 221.129 175.251 220.994 175.161 220.769C174.801 220.634 175.341 219.915 175.026 219.735L175.296 219.285C175.026 219.555 174.756 219.78 174.486 219.96C173.587 220.454 172.687 220.454 171.922 220.499C171.427 220.499 170.708 220.499 170.573 219.915C169.763 221.894 168.234 224.188 167.109 226.302C169.133 227.022 171.427 226.932 173.946 225.942C174.081 225.268 173.856 224.638 174.126 224.008M181.368 198.638C181.548 196.704 183.528 195.804 184.112 193.78L183.753 194.14C183.753 194.14 183.213 194.32 183.258 193.915C183.573 193.42 183.977 192.61 184.382 192.206C182.673 191.981 180.919 191.936 178.939 192.521C178.175 192.745 177.365 193.195 176.645 193.285C177.005 194.32 176.69 196.344 176.915 197.648L178.31 197.379C178.715 196.389 179.569 195.759 179.929 194.815C179.974 194.68 180.064 194.635 180.154 194.59C180.334 194.5 180.514 194.59 180.649 194.68C180.694 195.219 180.559 195.894 180.424 196.569C179.929 198.053 178.715 198.908 178.04 200.123C178.13 200.123 178.22 200.123 178.265 200.078C178.535 199.898 178.76 199.448 179.074 199.178C179.614 198.953 180.019 199.223 180.334 199.403C180.424 199.403 180.514 199.403 180.604 199.313C180.829 199.178 181.099 198.863 181.324 198.638M174.441 199.313C174.441 199.313 174.756 199.178 174.936 199.313C174.486 198.143 174.621 196.299 174.621 194.725C171.562 196.929 168.774 199.763 166.524 203.766L166.929 203.541C167.379 203.811 168.144 203.271 168.459 203.766C168.639 204.036 168.144 204.306 168.189 204.576L168.504 204.666C168.504 204.666 168.594 204.666 168.639 204.666C168.863 204.531 168.818 204.261 168.908 204.036C168.998 203.856 169.088 203.766 169.178 203.721C169.448 203.541 169.583 204.171 169.943 203.946C170.078 203.766 170.258 203.631 170.393 203.496C170.618 203.361 170.798 203.361 170.933 203.496C171.203 203.046 171.877 202.956 171.967 202.327C172.552 201.247 172.237 200.347 173.092 199.358C173.407 199.358 173.092 199.898 173.182 200.123C173.272 200.123 173.362 200.123 173.452 200.033C173.632 199.943 173.767 199.808 173.946 199.673C174.126 199.538 174.306 199.358 174.441 199.268M149.296 233.859C149.071 233.499 149.701 232.735 149.341 232.51C149.521 231.385 149.611 230.261 150.421 229.001C151.365 228.416 151.455 226.887 152.445 226.257C152.94 225.987 153.255 226.572 153.435 226.707C152.85 226.212 152.85 224.773 152.985 223.738L152.58 224.188C152.58 224.188 152.175 224.413 151.995 224.503C151.59 224.728 151.185 224.953 150.781 225.178C150.376 225.403 150.016 225.627 149.611 225.852C148.846 226.302 148.037 226.707 147.317 227.022L147.542 227.247L147.992 230.98C148.172 232.465 148.756 233.589 148.711 235.119C148.936 234.669 148.801 234.084 149.296 233.724M175.791 225.897C176.016 225.358 176.331 225.088 176.645 224.863C176.78 224.773 176.96 224.728 177.095 224.638C177.23 224.548 177.41 224.503 177.545 224.413C177.725 224.323 177.905 224.188 178.085 224.008C178.58 223.828 178.265 224.638 178.625 224.638C178.715 224.548 178.805 224.458 178.895 224.413C179.119 224.278 179.344 224.233 179.524 224.233C179.704 224.233 179.929 224.188 180.109 224.053C180.244 223.963 180.424 223.828 180.559 223.558C180.514 222.569 181.503 222.074 182.088 221.489C182.943 220.41 183.888 219.06 183.798 217.801L183.663 217.666C183.078 218.025 182.763 218.7 182.358 219.375C182.268 219.465 182.178 219.555 182.133 219.6C181.953 219.69 181.818 219.645 181.683 219.6C181.548 219.555 181.414 219.51 181.279 219.6C181.279 219.6 181.189 219.645 181.144 219.69L181.324 219.78C181.324 219.78 181.458 220.185 181.324 220.41C181.144 220.679 181.009 220.814 180.874 220.904C180.694 220.994 180.514 220.994 180.379 220.904C180.199 220.904 180.019 220.904 179.794 220.994V221.264C179.794 221.264 179.794 221.579 179.659 221.669C179.659 221.669 179.614 221.669 179.569 221.669C179.164 221.174 178.4 221.894 178.04 221.489C177.995 221.489 177.905 221.489 177.86 221.534C177.68 221.624 177.545 221.849 177.41 222.074C177.275 222.479 176.69 222.434 176.825 222.929C176.375 223.378 176.33 224.008 175.971 224.593C175.971 224.593 175.881 224.593 175.881 224.638C175.611 224.773 175.431 225.088 175.251 225.313C175.071 225.582 174.846 225.852 174.621 225.987C174.666 226.077 174.621 226.347 174.801 226.257C175.026 226.257 175.296 226.167 175.566 225.987C175.656 225.942 175.791 225.852 175.926 225.762M192.074 226.302C192.389 226.617 191.625 227.247 191.759 227.652L192.029 227.067C193.154 225.403 194.368 223.738 195.403 221.849L195.538 221.759C195.538 221.759 195.493 221.759 195.448 221.759C195.358 221.804 195.268 221.894 195.178 221.984C195.088 222.074 194.998 222.119 194.908 222.164C194.863 222.164 194.818 222.209 194.728 222.209C194.188 222.209 194.098 221.759 194.098 221.129L191.759 219.69L191.624 219.375C191.445 220.005 191.13 220.544 190.77 221.129C190.77 221.444 190.68 222.029 191.04 222.074C191.804 221.939 192.794 221.939 192.974 222.839C192.704 223.963 191.085 225.762 192.074 226.257M177.23 236.153C177.23 236.153 176.915 235.883 176.645 236.018L176.96 236.333C176.96 238.133 177.14 239.842 176.96 241.731C178.355 240.382 179.974 239.527 181.503 238.357C181.189 238.402 180.874 238.492 180.649 238.267C179.749 238.717 179.344 237.908 179.029 237.233C178.895 236.738 179.254 236.063 179.434 235.434C179.254 235.119 178.894 235.254 178.49 235.434C178.355 235.524 178.22 235.614 178.085 235.658C177.95 235.748 177.815 235.838 177.68 235.883C177.5 235.973 177.32 236.063 177.14 236.063M166.165 221.489C165.715 221.669 165.4 221.444 165.265 221.039C165.625 220.589 165.175 220.724 165.085 220.544C164.995 220.544 164.95 220.544 164.905 220.544C164.815 220.544 164.815 220.679 164.68 220.814L164.41 220.949C164.41 219.69 163.196 221.129 162.746 220.769C163.286 221.579 163.556 222.704 164.14 223.513C164.5 224.323 165.22 224.683 165.58 225.448C165.94 224.458 166.659 223.423 167.154 222.389C167.154 222.029 167.154 221.804 166.974 221.624C166.794 221.264 166.974 220.544 166.659 220.32C166.165 220.814 166.839 220.994 166.614 221.444C166.569 221.534 166.524 221.579 166.479 221.579C166.344 221.669 166.209 221.579 166.209 221.399M195.628 199.223C194.908 199.628 194.188 199.988 193.604 200.033L194.188 200.347C194.773 200.482 194.368 201.697 194.998 201.697C195.718 201.697 195.988 202.552 196.348 203.091C196.438 202.821 196.438 202.597 196.528 202.372C196.797 201.022 196.752 199.718 197.067 198.323C196.618 198.593 196.123 198.908 195.673 199.178M155.009 223.063C155.054 224.503 155.549 225.537 155.279 227.157C155.459 226.617 155.549 226.032 155.999 225.537C156.043 225.088 155.549 225.268 155.594 224.863C155.954 223.828 155.594 222.749 156.538 221.849C156.223 222.119 155.909 222.344 155.639 222.524C155.324 222.704 155.009 222.794 154.739 222.749L155.009 223.108M183.033 215.776C183.033 215.776 182.898 215.821 182.808 215.866C182.313 216.181 181.998 216.721 181.593 217.306C181.548 217.531 181.324 217.935 181.593 217.89C182.043 217.081 182.988 216.541 183.033 215.776ZM167.919 220.949H167.964C168.414 220.365 168.729 219.465 169.313 219.105H168.639C168.549 219.735 168.189 220.41 167.874 220.949" fill="#339AD7"/>
<path d="M217.759 191.439C217.309 196.567 219.153 199.626 219.018 204.574C218.883 207.588 218.073 210.692 216.724 213.795L216.949 213.661C218.748 209.882 220.188 206.149 222.302 202.28C225.586 196.702 228.959 191.034 229.364 185.727C230.534 193.553 226.395 203.36 220.278 211.681C217.759 215.055 215.24 218.294 212.766 221.847V221.577C216.454 212.311 214.61 203.63 216.904 194.498L217.759 191.394V191.439Z" fill="#339AD7"/>
<path d="M227.788 168.598C230.352 173.411 229.587 182.272 226.844 189.784C224.864 194.148 222.48 198.601 220.636 202.964C220.861 200.22 221.086 196.847 220.186 194.867C218.612 190.414 217.262 185.781 216.812 180.158V177.864C218.072 183.172 223.155 184.341 222.885 191.269C223.02 192.843 222.57 194.462 222.3 196.037H222.39L222.615 195.677C223.38 191.943 223.74 188.255 224.909 184.521C226.574 179.124 228.643 173.456 227.788 168.598Z" fill="#339AD7"/>
<path d="M214.34 205.889C212.181 212.141 213.126 218.124 210.652 224.467C209.707 226.941 208.313 229.64 206.783 232.024C207.278 231.709 207.728 230.989 208.133 230.404C212.181 223.387 217.489 219.024 221.897 212.681C223.652 210.027 225.271 207.013 226.036 204.27C225.226 212.501 218.524 223.612 212.226 229.55C208.942 232.428 205.479 234.767 202.33 237.826C207.683 229.46 207.368 221.453 210.922 213.131C212.046 210.702 212.991 208.318 214.34 205.889Z" fill="#339AD7"/>
<path d="M147.586 186.043C144.797 190.451 142.863 195.129 140.839 199.628C138.994 203.316 136.655 206.465 134.541 209.929C135.666 206.555 135.711 203.316 137.285 199.897C139.534 193.96 143.807 189.911 147.586 186.043Z" fill="#339AD7"/>
<path d="M244.165 261.371C244.165 261.371 244.48 262.046 244.525 262.811L244.795 267.849C244.795 268.613 244.795 269.243 244.615 269.603C244.435 270.008 244.12 270.323 243.625 270.592L240.206 272.392C240.206 272.392 239.982 272.572 239.937 272.662C239.937 272.752 239.892 272.932 239.892 273.111L240.072 276.71C240.072 276.71 240.072 277.025 240.162 277.07C240.206 277.115 240.296 277.07 240.431 277.07C241.511 276.485 242.501 275.9 243.49 275.316C244.435 274.731 245.379 274.101 246.279 273.426C246.459 273.291 246.639 273.291 246.774 273.426C246.909 273.561 246.999 273.786 246.999 274.056C246.999 274.371 246.999 274.686 246.999 275.001C246.999 275.316 246.819 275.541 246.639 275.675C246.279 275.99 245.829 276.26 245.379 276.575C244.93 276.89 244.435 277.205 243.895 277.565C243.355 277.925 242.725 278.284 242.096 278.644C241.421 279.049 240.701 279.409 239.892 279.859C239.397 280.129 239.037 280.174 238.857 279.949C238.677 279.769 238.542 279.274 238.497 278.509L238.227 273.291C238.227 272.527 238.227 271.942 238.407 271.537C238.587 271.177 238.902 270.817 239.397 270.547L242.815 268.703C243.04 268.568 243.175 268.343 243.13 267.939L242.95 264.52C242.95 264.16 242.815 264.025 242.546 264.16L238.407 266.364C238.407 266.364 238.047 266.454 237.912 266.274C237.822 266.094 237.732 265.824 237.732 265.509C237.732 265.195 237.732 264.925 237.822 264.61C237.912 264.34 238.047 264.115 238.272 264.025L243.13 261.461C243.625 261.191 243.985 261.146 244.165 261.326V261.371ZM248.753 256.738C248.978 256.603 249.203 256.603 249.383 256.738C249.563 256.828 249.653 257.098 249.698 257.458L250.822 278.734C250.822 279.139 250.777 279.454 250.597 279.724C250.417 279.994 250.238 280.174 250.013 280.309C249.788 280.444 249.608 280.444 249.428 280.309C249.248 280.219 249.158 279.994 249.113 279.589L248.483 267.669L246.414 268.748C246.414 268.748 246.054 268.838 245.919 268.658C245.829 268.478 245.739 268.253 245.739 267.894C245.739 267.579 245.739 267.264 245.829 266.994C245.919 266.724 246.054 266.544 246.279 266.409L248.348 265.33L247.988 258.312C247.988 257.907 248.033 257.593 248.213 257.323C248.393 257.053 248.573 256.873 248.798 256.738H248.753Z" fill="#595757"/>
<path d="M256.896 253.677C257.121 253.542 257.346 253.542 257.526 253.632C257.705 253.722 257.795 253.947 257.84 254.352L258.065 258.49C258.065 259.075 258.155 259.57 258.2 260.019C258.29 260.469 258.38 260.874 258.515 261.189C258.65 261.549 258.83 261.864 259.01 262.178C259.19 262.493 259.46 262.763 259.73 263.078C260.089 263.483 260.449 263.843 260.854 264.203C261.214 264.563 261.574 264.877 261.889 265.147C262.069 265.282 262.159 265.552 262.159 265.867C262.159 266.227 262.069 266.542 261.979 266.857C261.844 267.127 261.709 267.351 261.484 267.531C261.259 267.711 261.079 267.711 260.899 267.531C260.314 267.037 259.685 266.407 259.01 265.642C258.74 265.372 258.515 265.147 258.335 264.922C258.155 264.697 258.02 264.518 257.885 264.338C257.795 264.158 257.705 264.023 257.616 263.843C257.571 263.708 257.525 263.573 257.481 263.438C257.481 263.438 257.481 263.798 257.391 264.023C257.391 264.248 257.301 264.473 257.211 264.742C257.121 265.012 256.986 265.372 256.851 265.777C256.716 266.182 256.536 266.632 256.311 267.172C255.996 267.891 255.726 268.566 255.411 269.241C255.096 269.915 254.827 270.635 254.467 271.355C254.287 271.715 254.107 271.895 253.882 271.94C253.657 271.94 253.522 271.895 253.342 271.715C253.207 271.535 253.117 271.31 253.072 270.995C253.072 270.68 253.072 270.365 253.252 270.05C253.612 269.241 253.972 268.476 254.287 267.756C254.647 266.992 254.962 266.227 255.276 265.462C255.501 264.877 255.681 264.383 255.861 263.888C255.996 263.393 256.131 262.898 256.221 262.448C256.311 261.954 256.356 261.504 256.401 261.009C256.401 260.514 256.401 259.974 256.401 259.39L256.176 255.251C256.176 254.846 256.221 254.531 256.401 254.262C256.581 253.992 256.761 253.767 256.986 253.677H256.896ZM263.823 248.729C264.048 248.594 264.273 248.594 264.453 248.684C264.633 248.774 264.723 248.999 264.768 249.404L265.892 270.68C265.892 271.085 265.847 271.445 265.667 271.715C265.487 271.985 265.307 272.165 265.083 272.299C264.858 272.434 264.678 272.434 264.498 272.299C264.318 272.21 264.228 271.985 264.183 271.58L263.058 250.303C263.058 249.898 263.103 249.583 263.283 249.269C263.463 248.999 263.643 248.819 263.868 248.684L263.823 248.729Z" fill="#595757"/>
<path d="M271.289 246.206C272.593 245.487 273.628 245.667 274.393 246.701C275.157 247.736 275.562 249.58 275.697 252.234C275.832 254.888 275.607 257.092 275.022 258.801C274.438 260.556 273.448 261.77 272.143 262.445C270.839 263.12 269.804 262.985 269.085 261.95C268.365 260.916 267.915 259.071 267.78 256.417C267.645 253.763 267.87 251.559 268.455 249.85C269.04 248.096 269.984 246.881 271.334 246.206H271.289ZM271.424 248.59C270.614 249.04 270.029 249.85 269.714 250.975C269.399 252.144 269.31 253.673 269.4 255.518C269.489 257.407 269.759 258.711 270.164 259.521C270.569 260.286 271.199 260.466 272.008 260.016C272.863 259.566 273.403 258.756 273.718 257.587C274.033 256.417 274.123 254.888 274.033 253.044C273.943 251.154 273.673 249.85 273.268 249.085C272.863 248.321 272.233 248.141 271.379 248.59H271.424ZM278.261 241.033C278.486 240.899 278.711 240.899 278.891 240.988C279.071 241.078 279.161 241.348 279.206 241.708L279.565 248.815L281.455 247.826C281.68 247.691 281.86 247.736 281.95 247.916C282.039 248.096 282.129 248.366 282.129 248.68C282.129 248.995 282.129 249.31 282.04 249.625C281.95 249.895 281.815 250.12 281.545 250.255L279.655 251.244L280.285 263.03C280.285 263.435 280.24 263.749 280.06 264.019C279.88 264.289 279.7 264.469 279.476 264.604C279.251 264.739 279.026 264.739 278.846 264.604C278.666 264.514 278.576 264.289 278.531 263.884L277.406 242.608C277.406 242.203 277.451 241.888 277.631 241.618C277.811 241.348 277.991 241.168 278.216 241.033H278.261Z" fill="#595757"/>
<path d="M286.672 238.024C287.976 237.35 289.011 237.485 289.73 238.519C290.45 239.554 290.9 241.398 291.035 244.052C291.17 246.706 290.945 248.91 290.36 250.619C289.775 252.374 288.831 253.588 287.526 254.263C286.222 254.938 285.187 254.803 284.467 253.768C283.748 252.734 283.298 250.889 283.163 248.235C283.028 245.581 283.253 243.377 283.838 241.668C284.422 239.914 285.367 238.744 286.672 238.024ZM286.807 240.408C285.997 240.858 285.412 241.623 285.142 242.792C284.827 243.962 284.737 245.491 284.827 247.336C284.917 249.225 285.187 250.529 285.592 251.339C285.997 252.104 286.627 252.284 287.436 251.879C288.246 251.429 288.831 250.664 289.146 249.495C289.46 248.325 289.55 246.796 289.46 244.952C289.37 243.062 289.101 241.758 288.696 240.948C288.291 240.184 287.661 240.004 286.852 240.453L286.807 240.408ZM294.274 232.537C294.274 232.537 294.723 232.402 294.858 232.537C295.038 232.627 295.128 232.896 295.173 233.256L296.298 254.533C296.298 254.938 296.298 255.253 296.073 255.522C295.893 255.792 295.713 255.972 295.488 256.107C295.263 256.242 295.083 256.242 294.903 256.107C294.723 256.017 294.633 255.792 294.588 255.388L293.959 243.647L290 245.761L289.865 243.422L293.824 241.308L293.464 234.066C293.464 233.661 293.509 233.346 293.689 233.076C293.869 232.806 294.049 232.626 294.274 232.492V232.537Z" fill="#595757"/>
<path d="M290.586 155.588C290.586 155.588 290.766 156.037 290.766 156.352C290.766 156.667 290.766 156.937 290.631 157.252C290.541 157.522 290.406 157.747 290.181 157.837L276.821 164.359C276.821 164.359 276.461 164.404 276.371 164.224C276.281 164.044 276.236 163.774 276.191 163.459C276.191 163.145 276.191 162.83 276.326 162.56C276.416 162.29 276.596 162.11 276.776 161.975L290.136 155.453C290.136 155.453 290.496 155.408 290.586 155.588ZM288.292 139.169C288.292 139.169 288.652 139.124 288.741 139.304C288.831 139.484 288.921 139.709 288.921 140.024C288.921 140.339 288.921 140.608 288.786 140.878C288.696 141.148 288.562 141.328 288.337 141.418L286.672 142.228L286.807 149.965L288.562 149.11C288.562 149.11 288.921 149.065 289.011 149.245C289.101 149.425 289.191 149.65 289.191 149.965C289.191 150.28 289.191 150.55 289.056 150.819C288.966 151.089 288.831 151.269 288.607 151.359L278.216 156.442C278.216 156.442 277.856 156.487 277.766 156.307C277.676 156.127 277.631 155.902 277.586 155.588C277.586 155.273 277.586 155.003 277.721 154.733C277.811 154.463 277.946 154.283 278.171 154.193L279.925 153.338L279.79 145.602L278.126 146.411C278.126 146.411 277.766 146.501 277.676 146.321C277.586 146.141 277.541 145.916 277.496 145.602C277.496 145.287 277.496 145.017 277.631 144.747C277.721 144.477 277.901 144.297 278.081 144.162L288.337 139.169H288.292ZM285.098 150.819L284.963 143.083L281.454 144.792L281.589 152.529L285.098 150.819Z" fill="#595757"/>
<path d="M298.773 133.895C298.773 133.895 299.088 134.57 299.088 135.38V138.798C299.178 139.563 299.088 140.148 298.908 140.552C298.728 140.957 298.368 141.272 297.873 141.497L294.185 143.296C294.185 143.296 293.96 143.431 293.915 143.566C293.87 143.656 293.825 143.836 293.825 144.061V146.04C293.825 146.4 294.005 146.535 294.23 146.4C295.399 145.815 296.479 145.276 297.423 144.691C298.413 144.106 299.358 143.521 300.302 142.847C300.482 142.712 300.662 142.712 300.797 142.847C300.932 142.982 300.977 143.161 301.022 143.476C301.022 143.791 301.022 144.061 300.977 144.376C300.887 144.691 300.797 144.916 300.572 145.051C300.167 145.321 299.717 145.635 299.268 145.95C298.818 146.265 298.278 146.58 297.738 146.895C297.198 147.21 296.569 147.57 295.849 147.93C295.174 148.289 294.409 148.694 293.555 149.099C293.06 149.369 292.7 149.369 292.475 149.189C292.295 149.009 292.16 148.514 292.16 147.705V144.241C292.07 143.476 292.16 142.892 292.34 142.487C292.52 142.082 292.88 141.767 293.375 141.542L297.063 139.743C297.288 139.608 297.423 139.383 297.423 138.978V137.044C297.423 137.044 297.333 136.684 297.288 136.639C297.243 136.594 297.153 136.594 297.018 136.639L292.565 138.798C292.565 138.798 292.205 138.843 292.115 138.663C292.025 138.483 291.98 138.213 291.98 137.944C291.98 137.629 291.98 137.359 292.115 137.089C292.205 136.819 292.34 136.639 292.565 136.549L297.738 134.03C298.233 133.76 298.593 133.76 298.818 133.94L298.773 133.895ZM299.043 148.334C300.617 147.57 301.832 147.345 302.731 147.705C303.631 148.065 304.036 149.054 304.081 150.629C304.081 152.248 303.721 153.642 302.866 154.812C302.012 156.026 300.797 156.971 299.223 157.781C297.648 158.545 296.434 158.77 295.534 158.41C294.634 158.051 294.185 157.061 294.185 155.487C294.185 153.867 294.544 152.473 295.399 151.258C296.254 150.089 297.468 149.099 299.043 148.334ZM299.043 150.494C297.918 151.033 297.063 151.663 296.569 152.383C296.074 153.103 295.804 153.822 295.849 154.632C295.849 155.397 296.119 155.891 296.659 156.116C297.153 156.341 298.008 156.116 299.133 155.577C300.257 155.037 301.112 154.407 301.607 153.687C302.101 152.968 302.371 152.248 302.326 151.483C302.326 150.673 302.056 150.179 301.517 149.999C301.022 149.819 300.167 149.999 299.043 150.539V150.494ZM302.731 130.297C302.956 130.162 303.181 130.162 303.361 130.297C303.541 130.386 303.631 130.656 303.631 131.061L303.721 136.369L305.61 135.425C305.835 135.29 306.015 135.335 306.105 135.514C306.195 135.694 306.24 135.964 306.285 136.279C306.285 136.639 306.285 136.954 306.15 137.224C306.06 137.494 305.88 137.674 305.655 137.809L303.766 138.753L303.856 144.601C303.856 144.961 303.766 145.321 303.631 145.59C303.451 145.86 303.271 146.04 303.046 146.175C302.821 146.265 302.596 146.31 302.461 146.175C302.281 146.085 302.191 145.815 302.191 145.456L301.967 131.961C301.967 131.556 302.056 131.241 302.191 130.971C302.371 130.701 302.551 130.521 302.776 130.386L302.731 130.297Z" fill="#595757"/>
<path d="M321.488 140.503C321.488 140.503 321.668 140.953 321.668 141.268C321.668 141.583 321.668 141.853 321.533 142.168C321.443 142.437 321.308 142.662 321.083 142.752L307.723 149.275C307.723 149.275 307.364 149.32 307.274 149.14C307.184 148.96 307.139 148.69 307.094 148.375C307.094 148.06 307.094 147.745 307.229 147.475C307.319 147.206 307.454 147.026 307.678 146.891L321.038 140.368C321.038 140.368 321.398 140.323 321.488 140.503ZM314.021 125.929C314.246 125.839 314.471 125.794 314.651 125.929C314.831 126.019 314.921 126.289 314.921 126.694V128.268C314.921 128.853 315.011 129.348 315.056 129.797C315.101 130.247 315.236 130.607 315.37 130.922C315.505 131.237 315.685 131.507 315.91 131.777C316.135 132.002 316.405 132.226 316.72 132.361C317.26 132.631 317.8 132.901 318.339 133.126C318.879 133.351 319.464 133.576 320.049 133.846C320.229 133.891 320.318 134.116 320.318 134.431C320.318 134.745 320.319 135.06 320.229 135.375C320.094 135.735 319.959 136.005 319.779 136.185C319.599 136.365 319.419 136.455 319.194 136.41C318.654 136.23 318.069 136.005 317.53 135.735C316.99 135.51 316.45 135.24 315.955 134.97C315.37 134.655 314.921 134.341 314.651 134.026C314.381 133.711 314.201 133.351 314.156 133.036C314.111 133.441 313.931 133.936 313.706 134.521C313.436 135.105 313.031 135.87 312.447 136.725C311.952 137.444 311.457 138.209 310.917 138.974C310.377 139.738 309.838 140.503 309.298 141.268C309.118 141.493 308.938 141.628 308.713 141.583C308.533 141.583 308.353 141.448 308.263 141.223C308.128 140.998 308.083 140.728 308.128 140.368C308.128 140.008 308.218 139.738 308.398 139.514C308.938 138.749 309.523 137.939 310.018 137.174C310.512 136.41 311.097 135.645 311.592 134.835C311.907 134.341 312.177 133.891 312.402 133.441C312.627 132.991 312.761 132.541 312.896 132.091C313.031 131.642 313.121 131.192 313.166 130.697C313.166 130.202 313.256 129.662 313.211 129.123V127.548C313.211 127.143 313.211 126.784 313.436 126.514C313.616 126.244 313.796 126.064 314.066 125.929H314.021Z" fill="#595757"/>
<path d="M326.707 120.037C328.056 119.408 329.046 119.588 329.765 120.667C330.485 121.747 330.845 123.546 330.89 126.245C330.89 128.899 330.62 131.103 329.99 132.812C329.361 134.522 328.326 135.691 327.021 136.366C325.672 136.996 324.682 136.816 324.008 135.736C323.333 134.702 322.928 132.812 322.883 130.158C322.838 127.505 323.153 125.345 323.783 123.591C324.413 121.882 325.402 120.712 326.752 120.037H326.707ZM326.707 122.422C325.897 122.826 325.267 123.591 324.952 124.761C324.592 125.885 324.458 127.415 324.502 129.304C324.502 131.193 324.727 132.498 325.132 133.307C325.492 134.117 326.122 134.297 326.932 133.892C327.786 133.487 328.371 132.722 328.731 131.553C329.091 130.383 329.226 128.899 329.181 127.01C329.181 125.12 328.956 123.816 328.551 123.006C328.191 122.197 327.561 122.017 326.707 122.422ZM334.489 114.82C334.713 114.73 334.938 114.685 335.118 114.82C335.298 114.91 335.388 115.179 335.388 115.584L335.748 136.861C335.748 137.266 335.658 137.581 335.523 137.85C335.343 138.12 335.163 138.3 334.938 138.435C334.713 138.525 334.534 138.57 334.354 138.435C334.174 138.345 334.084 138.075 334.084 137.671L333.859 125.93L329.81 127.909V125.57L333.814 123.591L333.679 116.349C333.679 115.944 333.769 115.629 333.904 115.359C334.084 115.089 334.264 114.91 334.489 114.82Z" fill="#595757"/>
<path d="M60.773 357.958C62.5723 357.014 63.9668 357.014 65.0014 358.048C65.991 359.083 66.5757 361.017 66.7107 363.941C66.8456 366.82 66.5308 369.294 65.6761 371.273C64.8214 373.252 63.517 374.737 61.7177 375.726C59.9184 376.671 58.5239 376.671 57.5343 375.636C56.5447 374.602 55.9599 372.668 55.825 369.744C55.69 366.865 56.0049 364.391 56.8596 362.412C57.7143 360.432 59.0187 358.948 60.818 358.003L60.773 357.958ZM60.908 360.567C59.7834 361.152 58.9737 362.142 58.5689 363.446C58.1191 364.751 57.9841 366.46 58.0741 368.484C58.1641 370.508 58.5239 371.948 59.0637 372.758C59.6035 373.567 60.4582 373.657 61.5827 373.072C62.7522 372.443 63.517 371.498 63.9668 370.149C64.4166 368.844 64.5515 367.135 64.4616 365.111C64.3716 363.041 64.0118 361.647 63.472 360.837C62.9322 360.028 62.0775 359.938 60.908 360.567ZM70.3543 351.301C70.6691 351.121 70.939 351.076 71.164 351.166C71.3889 351.256 71.5238 351.481 71.5688 351.931L71.9736 359.668L74.5376 358.318C74.8525 358.138 75.0774 358.138 75.2124 358.318C75.3473 358.498 75.4373 358.768 75.4373 359.128C75.4373 359.488 75.4373 359.848 75.3023 360.163C75.1674 360.477 74.9874 360.747 74.6726 360.882L72.1086 362.232L72.7833 375.097C72.7833 375.546 72.6934 375.906 72.4684 376.221C72.2435 376.536 71.9736 376.806 71.6588 376.941C71.3439 377.121 71.074 377.166 70.8041 377.076C70.5792 376.986 70.4442 376.761 70.3992 376.311L69.1847 353.1C69.1847 352.65 69.2747 352.291 69.4996 351.976C69.7245 351.661 69.9944 351.391 70.3093 351.256L70.3543 351.301Z" fill="#595757"/>
<path d="M85.8286 344.872C86.0985 345.052 86.2784 345.546 86.3234 346.446L86.5033 350C86.5033 350.854 86.4584 351.484 86.1885 351.979C85.9636 352.429 85.4687 352.834 84.794 353.193L79.8009 355.847C79.8009 355.847 79.5311 356.027 79.4412 356.162C79.3512 356.297 79.3512 356.477 79.3512 356.702L79.4412 358.681C79.4412 359.086 79.6211 359.176 79.9809 359.041C81.5553 358.231 82.9947 357.377 84.2992 356.567C85.6037 355.757 86.9081 354.903 88.1676 354.003C88.4375 353.823 88.6625 353.778 88.8424 353.913C89.0224 354.003 89.1123 354.228 89.1573 354.543C89.2022 354.858 89.1573 355.218 89.1123 355.532C89.0223 355.892 88.8424 356.117 88.5725 356.297C88.0328 356.702 87.448 357.062 86.8182 357.512C86.1885 357.917 85.5137 358.366 84.749 358.816C83.9843 359.266 83.1297 359.761 82.23 360.301C81.2854 360.84 80.2508 361.38 79.1262 362.01C78.4515 362.37 77.9567 362.46 77.6868 362.28C77.4169 362.1 77.237 361.605 77.192 360.75L77.0121 357.152C77.0121 356.297 77.0571 355.667 77.282 355.173C77.5069 354.723 78.0017 354.318 78.6764 353.958L83.6694 351.304C83.9843 351.124 84.1643 350.854 84.1193 350.405L84.0293 348.47C84.0293 348.245 83.9843 348.11 83.8943 348.02C83.8044 347.975 83.6694 348.02 83.5345 348.065L77.5519 351.259C77.282 351.394 77.1021 351.394 76.9671 351.214C76.8322 351.034 76.7422 350.764 76.7422 350.45C76.7422 350.135 76.7422 349.775 76.8771 349.46C76.9671 349.145 77.192 348.92 77.4169 348.785L84.3892 345.052C85.0639 344.692 85.5587 344.602 85.8286 344.782V344.872ZM80.9255 363.045C81.2404 362.865 81.4653 362.865 81.7352 362.91C82.0051 363 82.0951 363.224 82.14 363.629L82.23 365.698L91.0915 360.975L91.0016 358.906C91.0016 358.501 91.0916 358.141 91.3165 357.827C91.5414 357.512 91.8113 357.287 92.0812 357.107C92.396 356.972 92.6209 356.927 92.8908 356.972C93.1607 357.062 93.2506 357.287 93.2956 357.692L93.6555 364.664C93.6555 365.519 93.6105 366.148 93.3406 366.643C93.1157 367.093 92.6209 367.498 91.9462 367.858L82.14 373.076C81.4653 373.435 80.9705 373.525 80.7006 373.345C80.4308 373.166 80.2508 372.626 80.2058 371.771L79.846 364.799C79.846 364.394 79.9359 364.034 80.1608 363.719C80.3857 363.404 80.6556 363.179 80.9255 363V363.045ZM82.455 369.972C82.455 370.287 82.5899 370.332 82.8598 370.197L91.0016 365.878C91.2714 365.743 91.3614 365.519 91.3614 365.249L91.2714 363.359L82.4099 368.083L82.4999 369.972H82.455ZM91.1365 340.239C91.4514 340.059 91.7213 340.014 91.9462 340.104C92.1711 340.194 92.3061 340.418 92.351 340.868L92.6209 346.266L95.1849 344.917C95.4998 344.737 95.7247 344.782 95.8596 344.917C95.9946 345.097 96.0846 345.366 96.0846 345.681C96.0846 346.041 96.0846 346.401 95.9496 346.716C95.8147 347.031 95.5898 347.256 95.3199 347.436L92.7559 348.785L93.0257 353.913C93.0257 354.363 92.9358 354.723 92.7109 355.038C92.486 355.353 92.2161 355.622 91.9012 355.757C91.5863 355.937 91.3164 355.982 91.0465 355.892C90.8216 355.802 90.6867 355.577 90.6417 355.128L89.967 341.993C89.967 341.543 90.0569 341.183 90.2818 340.868C90.5067 340.553 90.7767 340.284 91.0915 340.149L91.1365 340.239Z" fill="#595757"/>
<path d="M102.652 335.693C104.451 334.749 105.846 334.794 106.835 335.783C107.825 336.818 108.41 338.752 108.545 341.676C108.68 344.555 108.365 347.029 107.51 349.008C106.655 350.987 105.351 352.472 103.552 353.416C101.752 354.361 100.358 354.316 99.4132 353.281C98.4236 352.247 97.8838 350.313 97.7039 347.389C97.5689 344.51 97.8838 342.036 98.7385 340.057C99.5481 338.077 100.853 336.593 102.652 335.648V335.693ZM102.787 338.347C101.662 338.932 100.898 339.922 100.448 341.226C99.998 342.531 99.863 344.24 99.953 346.264C100.043 348.288 100.403 349.728 100.943 350.538C101.482 351.347 102.292 351.437 103.417 350.852C104.541 350.268 105.351 349.278 105.756 347.974C106.161 346.669 106.34 344.96 106.25 342.936C106.161 340.866 105.801 339.472 105.306 338.662C104.766 337.853 103.911 337.763 102.787 338.347ZM113.088 328.586C113.403 328.406 113.673 328.361 113.897 328.451C114.122 328.541 114.257 328.766 114.302 329.216L115.517 352.427C115.517 352.877 115.427 353.236 115.202 353.551C114.977 353.866 114.707 354.136 114.392 354.271C114.077 354.451 113.808 354.451 113.583 354.406C113.358 354.316 113.223 354.091 113.178 353.641L112.503 340.866L107.06 343.745L106.925 341.226L112.368 338.347L111.963 330.475C111.963 330.026 112.053 329.666 112.278 329.351C112.503 329.036 112.773 328.811 113.043 328.631L113.088 328.586Z" fill="#595757"/>
<path d="M29.3295 289.721C29.3295 289.721 29.5094 290.17 29.5094 290.485C29.5094 290.8 29.5095 291.07 29.4195 291.385C29.3295 291.655 29.1945 291.88 28.9696 291.97L15.8348 298.942C15.8348 298.942 15.475 299.032 15.385 298.807C15.295 298.627 15.2051 298.357 15.2051 298.042C15.2051 297.727 15.2051 297.413 15.295 297.143C15.385 296.873 15.52 296.693 15.7449 296.558L28.8797 289.586C28.8797 289.586 29.2395 289.496 29.3295 289.676V289.721ZM21.4126 275.416C21.6375 275.281 21.8624 275.281 22.0424 275.371C22.2223 275.461 22.3123 275.731 22.3573 276.136L22.4472 277.71C22.4472 278.295 22.5372 278.79 22.6272 279.24C22.7171 279.69 22.8071 280.049 22.987 280.364C23.122 280.679 23.3469 280.949 23.5718 281.174C23.7967 281.399 24.0666 281.579 24.4265 281.759C24.9662 282.029 25.506 282.254 26.0908 282.478C26.6306 282.703 27.2154 282.928 27.8001 283.108C27.9801 283.153 28.07 283.378 28.115 283.693C28.115 284.008 28.115 284.323 28.025 284.638C27.9351 284.997 27.8001 285.267 27.6202 285.492C27.4403 285.717 27.2603 285.762 27.0804 285.717C26.4956 285.537 25.9558 285.312 25.3711 285.132C24.8313 284.908 24.2915 284.683 23.7517 284.413C23.1669 284.143 22.7171 283.828 22.4022 283.513C22.1323 283.198 21.9524 282.883 21.8625 282.568C21.8625 282.973 21.6825 283.468 21.4576 284.098C21.2327 284.728 20.8279 285.447 20.2431 286.347C19.7933 287.112 19.2985 287.876 18.8037 288.686C18.3089 289.496 17.7691 290.26 17.2743 291.025C17.0943 291.25 16.9144 291.385 16.7345 291.385C16.5546 291.385 16.3746 291.25 16.2397 291.025C16.1047 290.8 16.0598 290.53 16.0598 290.17C16.0598 289.811 16.1497 289.541 16.2846 289.271C16.8244 288.461 17.3193 287.651 17.859 286.887C18.3539 286.122 18.8486 285.312 19.3434 284.503C19.6583 284.008 19.8833 283.513 20.1082 283.108C20.2881 282.658 20.468 282.209 20.558 281.759C20.6929 281.309 20.7379 280.814 20.7829 280.364C20.7829 279.87 20.7829 279.33 20.7829 278.745L20.6929 277.171C20.6929 276.766 20.6929 276.406 20.9178 276.136C21.0977 275.866 21.2777 275.686 21.5026 275.551L21.4126 275.416Z" fill="#595757"/>
<path d="M36.4818 268.452C36.4818 268.452 36.8416 268.362 36.9316 268.542C37.0216 268.721 37.1115 268.946 37.1115 269.261C37.1115 269.531 37.1115 269.846 37.0215 270.116C36.9316 270.386 36.7966 270.611 36.5717 270.701L35.807 271.106L36.3468 281.541C36.6617 281.316 36.9766 281.092 37.2915 280.867C37.4714 280.732 37.6513 280.732 37.7862 280.867C37.9212 281.002 38.0112 281.182 38.0562 281.451C38.0562 281.766 38.0562 282.036 38.0562 282.351C38.0112 282.666 37.8762 282.891 37.6963 283.026C37.2015 283.386 36.7067 283.746 36.2119 284.06C35.7171 284.375 35.2223 284.69 34.6375 285.005C34.0977 285.32 33.5129 285.635 32.8832 285.995C32.2534 286.355 31.5787 286.714 30.814 287.119C30.6341 287.209 30.4542 287.209 30.3642 287.029C30.2742 286.849 30.1843 286.624 30.1843 286.31C30.1843 286.04 30.1842 285.725 30.2742 285.455C30.3642 285.185 30.4991 285.005 30.724 284.87L31.6237 284.42L31.0839 273.759L30.3192 274.164C30.3192 274.164 29.9594 274.254 29.8694 274.074C29.7794 273.894 29.6895 273.67 29.6895 273.355C29.6895 273.04 29.6894 272.77 29.7794 272.5C29.8694 272.23 30.0043 272.05 30.2293 271.915L36.5717 268.542L36.4818 268.452ZM33.1081 283.521C33.7379 283.161 34.3226 282.846 34.8624 282.486L34.3226 271.915L32.5683 272.86L33.1081 283.521ZM39.0008 265.123C39.0008 265.123 39.3606 265.033 39.5406 265.123C39.7205 265.213 39.8105 265.438 39.8105 265.798L40.845 285.86C40.845 286.22 40.8001 286.534 40.6651 286.804C40.4852 287.074 40.3502 287.254 40.1253 287.344C39.9454 287.434 39.7655 287.479 39.5855 287.344C39.4056 287.254 39.3156 287.029 39.2707 286.669L38.7309 275.964L37.5613 276.593C37.5613 276.593 37.2015 276.683 37.0665 276.503C36.9766 276.323 36.8866 276.054 36.8866 275.784C36.8866 275.469 36.8866 275.154 36.9766 274.884C37.0666 274.614 37.2015 274.389 37.4264 274.299L38.5959 273.67L38.2361 266.652C38.2361 266.292 38.281 265.978 38.461 265.708C38.5959 265.438 38.7759 265.258 39.0008 265.168V265.123ZM41.8796 263.369C41.8796 263.369 42.2845 263.234 42.4644 263.369C42.6443 263.459 42.7343 263.683 42.7343 264.043L43.8589 285.455C43.8589 285.815 43.8139 286.13 43.6339 286.399C43.454 286.669 43.3191 286.849 43.0941 286.939C42.9142 287.029 42.7343 287.074 42.5544 286.939C42.3745 286.849 42.2845 286.624 42.2845 286.265L41.1599 264.853C41.1599 264.493 41.1599 264.178 41.3398 263.908C41.4748 263.638 41.6547 263.459 41.8796 263.369Z" fill="#595757"/>
<path d="M49.122 260.753C49.7968 260.393 50.3815 260.258 50.8763 260.303C51.4161 260.348 51.821 260.573 52.1808 260.978C52.5407 261.383 52.8106 261.923 53.0355 262.598C53.2154 263.272 53.3503 264.082 53.3953 264.982C53.4403 265.881 53.3953 266.781 53.3054 267.636C53.1704 268.49 52.9455 269.3 52.6756 270.02C52.3608 270.784 52.0009 271.414 51.5061 271.999C51.0113 272.584 50.4715 273.078 49.7968 273.393C49.122 273.753 48.5373 273.888 48.0425 273.843C47.5477 273.798 47.0978 273.573 46.738 273.168C46.3781 272.764 46.1082 272.224 45.8833 271.549C45.7034 270.874 45.5684 270.065 45.5234 269.165C45.5234 268.265 45.5234 267.411 45.6584 266.556C45.7933 265.701 45.9733 264.892 46.2882 264.172C46.603 263.452 46.9629 262.778 47.4577 262.193C47.9525 261.608 48.4923 261.113 49.167 260.753H49.122ZM49.257 263.092C48.8521 263.317 48.4923 263.632 48.1774 263.992C47.9075 264.352 47.6826 264.757 47.5027 265.252C47.3227 265.746 47.2328 266.241 47.1428 266.736C47.0978 267.276 47.0529 267.771 47.0978 268.355C47.0978 268.895 47.1878 269.39 47.3227 269.84C47.4127 270.29 47.5926 270.649 47.8175 270.919C48.0425 271.189 48.2674 271.369 48.5822 271.414C48.8971 271.459 49.257 271.414 49.6618 271.189C50.0667 270.964 50.4265 270.649 50.7414 270.29C51.0113 269.93 51.2362 269.48 51.4161 269.03C51.5961 268.58 51.686 268.085 51.776 267.546C51.821 267.006 51.8659 266.466 51.776 265.926C51.776 265.386 51.686 264.892 51.5511 264.442C51.4161 263.992 51.2812 263.632 51.0563 263.362C50.8314 263.092 50.6065 262.912 50.2916 262.867C49.9767 262.822 49.6168 262.867 49.212 263.137L49.257 263.092ZM49.122 276.092C49.122 276.092 49.5269 275.957 49.7068 276.092C49.8867 276.182 49.9767 276.407 50.0217 276.812L50.2466 281.4C50.2466 281.4 50.2916 281.715 50.3365 281.805C50.3815 281.85 50.4715 281.805 50.6065 281.805L58.2984 277.712C58.2984 277.712 58.6583 277.622 58.7932 277.802C58.8832 277.981 58.9732 278.251 58.9732 278.566C58.9732 278.881 58.9731 279.196 58.8832 279.466C58.7932 279.736 58.6583 279.961 58.4334 280.051L49.9767 284.549C49.4819 284.819 49.122 284.864 48.9421 284.684C48.7622 284.504 48.6272 284.009 48.5822 283.199L48.3123 277.712C48.3123 277.307 48.3124 276.992 48.5373 276.677C48.7172 276.407 48.8971 276.227 49.122 276.092ZM56.4991 255.58C56.724 255.445 56.9489 255.445 57.1289 255.535C57.3088 255.625 57.3988 255.895 57.4437 256.255L58.2984 272.404C58.2984 272.809 58.2534 273.123 58.0735 273.393C57.8936 273.663 57.7136 273.843 57.4887 273.978C57.2638 274.113 57.0839 274.113 56.9039 273.978C56.724 273.888 56.634 273.618 56.5891 273.258L55.7344 257.11C55.7344 256.705 55.7794 256.39 55.9593 256.12C56.1392 255.85 56.3192 255.67 56.5441 255.535L56.4991 255.58Z" fill="#595757"/>
<path d="M64.1911 252.976C65.4956 252.301 66.5302 252.436 67.2499 253.471C67.9696 254.505 68.4194 256.349 68.5544 259.003C68.6893 261.657 68.4644 263.861 67.8796 265.571C67.2949 267.28 66.3503 268.495 65.0458 269.214C63.7413 269.889 62.7067 269.754 61.987 268.72C61.2673 267.685 60.8174 265.841 60.6825 263.187C60.5475 260.533 60.7725 258.329 61.3572 256.619C61.942 254.91 62.8866 253.695 64.1911 252.976ZM64.2811 255.36C63.4714 255.81 62.8866 256.574 62.6167 257.744C62.3018 258.913 62.2119 260.398 62.3018 262.287C62.3918 264.176 62.6617 265.481 63.0665 266.291C63.4714 267.055 64.0562 267.235 64.9108 266.83C65.7205 266.38 66.3053 265.616 66.6201 264.446C66.935 263.277 67.025 261.792 66.935 259.903C66.8451 258.014 66.5752 256.709 66.1703 255.9C65.7655 255.135 65.1357 254.955 64.326 255.36H64.2811ZM71.7481 247.488C71.973 247.353 72.1979 247.353 72.3779 247.488C72.5578 247.578 72.6478 247.848 72.6927 248.208L73.8173 269.484C73.8173 269.889 73.7723 270.204 73.5924 270.474C73.4125 270.744 73.2325 270.924 73.0076 271.059C72.7827 271.194 72.6028 271.194 72.4229 271.059C72.2429 270.969 72.153 270.744 72.108 270.339L71.4782 258.599L67.5198 260.713L67.3848 258.419L71.3433 256.304L70.9834 249.062C70.9834 248.657 71.0284 248.343 71.2083 248.073C71.3882 247.803 71.5682 247.623 71.7481 247.488Z" fill="#595757"/>
<path d="M87.3568 122.946C88.2564 122.496 89.0211 122.226 89.6959 122.226C90.3706 122.226 90.9554 122.361 91.4502 122.721C91.9 123.081 92.3048 123.621 92.5747 124.295C92.8446 124.97 92.9795 125.78 93.0245 126.725C93.0695 127.669 93.0245 128.614 92.8446 129.513C92.6647 130.458 92.3498 131.313 91.945 132.122C91.5401 132.932 91.0003 133.697 90.3706 134.417C89.7408 135.091 88.9762 135.676 88.0765 136.171C87.1769 136.666 86.4121 136.891 85.7374 136.891C85.0627 136.891 84.4779 136.711 84.0281 136.396C83.5333 136.036 83.1734 135.496 82.9035 134.821C82.6336 134.147 82.4987 133.292 82.4537 132.347C82.4087 131.403 82.4537 130.503 82.6336 129.558C82.8136 128.659 83.0834 127.759 83.5333 126.949C83.9381 126.095 84.4779 125.375 85.1077 124.655C85.7374 123.981 86.5021 123.396 87.4017 122.901L87.3568 122.946ZM87.4917 125.465C86.9519 125.78 86.4571 126.14 86.0973 126.545C85.7374 126.949 85.4226 127.444 85.1976 127.939C84.9727 128.434 84.7928 128.974 84.7478 129.513C84.6578 130.098 84.6578 130.638 84.6578 131.178C84.6578 131.763 84.7478 132.257 84.9278 132.707C85.0627 133.157 85.2426 133.472 85.5125 133.742C85.7824 133.967 86.0973 134.102 86.5021 134.147C86.9069 134.147 87.3568 134.012 87.9416 133.742C88.4814 133.427 88.9761 133.067 89.336 132.662C89.6959 132.257 90.0107 131.763 90.2356 131.268C90.4606 130.773 90.6405 130.233 90.6855 129.693C90.7755 129.154 90.7754 128.569 90.7754 127.984C90.7754 127.444 90.6855 126.904 90.5505 126.5C90.4156 126.05 90.1907 125.69 89.9658 125.465C89.6959 125.24 89.381 125.105 88.9761 125.105C88.5713 125.105 88.1214 125.24 87.5367 125.51L87.4917 125.465ZM93.2045 135.766C95.4086 134.596 97.1179 134.192 98.3325 134.506C99.592 134.821 100.222 135.901 100.357 137.745C100.492 139.589 99.9518 141.344 98.7822 142.918C97.6127 144.493 95.9933 145.842 93.7892 147.012C91.6301 148.181 89.8758 148.586 88.6612 148.271C87.4467 147.956 86.772 146.877 86.637 145.032C86.5021 143.188 87.0419 141.434 88.2115 139.859C89.336 138.285 91.0004 136.936 93.2045 135.766ZM93.3394 138.15C91.765 139.005 90.5955 139.904 89.9207 140.849C89.246 141.794 88.9312 142.783 88.9761 143.773C89.0211 144.762 89.426 145.347 90.1907 145.572C90.9554 145.752 92.0799 145.437 93.6993 144.582C95.2737 143.728 96.4432 142.828 97.1179 141.884C97.7927 140.939 98.1076 139.949 98.0626 138.96C98.0176 137.97 97.6127 137.385 96.848 137.205C96.0833 137.025 94.9588 137.34 93.3394 138.195V138.15ZM97.9276 116.199C98.2425 116.064 98.5124 116.019 98.7373 116.064C98.9622 116.154 99.0971 116.379 99.1421 116.828L99.8618 130.638C99.8618 131.043 99.7719 131.403 99.547 131.763C99.3221 132.077 99.0521 132.302 98.7822 132.482C98.4674 132.662 98.1975 132.662 97.9726 132.617C97.7477 132.527 97.5678 132.302 97.5678 131.897L97.3878 128.524L94.6889 129.963C94.419 130.098 94.1941 130.098 94.0592 129.918C93.9242 129.738 93.8342 129.468 93.8342 129.109C93.8342 128.794 93.8342 128.434 93.9692 128.119C94.1041 127.804 94.2841 127.579 94.554 127.399L97.2529 125.96L97.1179 123.171L94.419 124.61C94.1491 124.745 93.9242 124.745 93.7892 124.565C93.6543 124.385 93.5644 124.116 93.5644 123.756C93.5644 123.441 93.5643 123.081 93.6993 122.766C93.8342 122.451 94.0141 122.226 94.284 122.091L96.983 120.652L96.848 118.043C96.848 117.593 96.938 117.233 97.1629 116.918C97.3878 116.604 97.6577 116.334 97.9726 116.199H97.9276Z" fill="#595757"/>
<path d="M108.273 112.324C110.072 111.38 111.467 111.425 112.456 112.414C113.446 113.449 114.031 115.383 114.166 118.307C114.301 121.186 113.986 123.66 113.131 125.639C112.321 127.618 110.972 129.103 109.218 130.047C107.418 130.992 106.024 130.947 105.079 129.912C104.09 128.878 103.55 126.944 103.37 124.02C103.235 121.141 103.55 118.667 104.404 116.688C105.214 114.708 106.519 113.224 108.318 112.279L108.273 112.324ZM108.408 114.933C107.283 115.518 106.519 116.508 106.069 117.812C105.664 119.117 105.484 120.826 105.574 122.85C105.664 124.874 106.024 126.314 106.564 127.123C107.103 127.933 107.913 128.023 109.038 127.438C110.162 126.854 110.972 125.864 111.377 124.559C111.827 123.255 111.962 121.546 111.872 119.521C111.782 117.452 111.467 116.058 110.927 115.248C110.387 114.438 109.532 114.348 108.408 114.933ZM118.664 105.172C118.979 104.992 119.249 104.947 119.519 105.037C119.743 105.127 119.878 105.352 119.923 105.802L121.138 129.013C121.138 129.463 121.048 129.822 120.823 130.137C120.598 130.452 120.328 130.722 120.013 130.857C119.698 131.037 119.429 131.037 119.204 130.992C118.979 130.902 118.844 130.677 118.799 130.227L118.124 117.452L112.681 120.331L112.546 117.812L117.989 114.933L117.584 107.061C117.584 106.612 117.674 106.252 117.899 105.937C118.124 105.622 118.394 105.352 118.664 105.217V105.172Z" fill="#595757"/>
<path d="M232.514 60.0879C232.514 60.0879 232.739 60.5377 232.739 60.8526C232.739 61.1674 232.739 61.5273 232.604 61.8422C232.469 62.1571 232.289 62.382 232.019 62.5169L224.148 66.7003L224.373 70.7037L222.078 71.9182L221.853 67.9148L213.982 72.0981C213.712 72.2331 213.532 72.2331 213.352 72.0532C213.217 71.8732 213.127 71.6033 213.127 71.2885C213.127 70.9736 213.127 70.6137 213.262 70.2988C213.397 69.984 213.577 69.7591 213.847 69.6241L231.885 60.0429C232.154 59.9079 232.334 59.9079 232.514 60.0879ZM229.455 49.607C229.455 49.607 229.68 50.0568 229.68 50.3717C229.68 50.6866 229.68 51.0464 229.545 51.3613C229.411 51.6762 229.231 51.9011 228.961 52.081L223.563 54.9599V55.4097C223.608 55.9945 223.788 56.4443 224.103 56.7592C224.417 57.0291 225.002 57.164 225.812 57.164C227.386 57.119 228.826 57.0291 230.085 56.8941C230.355 56.8941 230.535 56.9841 230.67 57.254C230.76 57.5689 230.805 57.8837 230.67 58.1986C230.58 58.6035 230.445 58.9183 230.22 59.1882C229.995 59.4581 229.77 59.5931 229.455 59.6381C228.871 59.728 228.196 59.773 227.521 59.818C226.847 59.818 226.127 59.863 225.407 59.9079C224.912 59.9079 224.462 59.9079 224.103 59.9079C223.743 59.863 223.473 59.773 223.248 59.683C223.023 59.5931 222.843 59.5031 222.753 59.3682C222.618 59.2332 222.573 59.0983 222.483 58.9183C222.483 58.9183 222.393 59.3682 222.258 59.6381C222.168 59.9079 222.033 60.1778 221.808 60.4927C221.629 60.8076 221.359 61.1674 221.044 61.5723C220.729 61.9771 220.324 62.427 219.829 62.9218C219.155 63.6415 218.48 64.3612 217.85 65.0359C217.22 65.7107 216.591 66.2954 216.051 66.8352C215.736 67.1051 215.466 67.2401 215.241 67.1951C215.016 67.1951 214.836 67.0151 214.701 66.7003C214.566 66.4304 214.566 66.1155 214.611 65.7556C214.656 65.3508 214.836 65.0359 215.106 64.811C216.321 63.5965 217.715 62.202 219.2 60.6277C219.964 59.818 220.504 59.0983 220.774 58.5135C221.044 57.9287 221.179 57.299 221.134 56.7142V56.2644L215.736 59.1432C215.466 59.2782 215.241 59.2782 215.106 59.1432C214.971 58.9633 214.881 58.6934 214.881 58.3785C214.881 58.0637 214.881 57.7038 215.016 57.3889C215.151 57.0741 215.331 56.8492 215.601 56.6692L228.781 49.652C229.051 49.517 229.276 49.517 229.411 49.652L229.455 49.607ZM223.113 69.7591C225.362 68.5445 227.161 68.0497 228.421 68.2297C229.725 68.4096 230.4 69.3542 230.49 71.1085C230.58 72.8628 230.04 74.5272 228.826 76.0116C227.611 77.496 225.902 78.8455 223.608 80.06C221.359 81.2745 219.559 81.7693 218.3 81.6344C216.995 81.4994 216.321 80.5098 216.231 78.7555C216.141 77.0012 216.681 75.3818 217.895 73.8974C219.11 72.413 220.819 71.0635 223.113 69.849V69.7591ZM223.248 72.1431C221.539 73.0428 220.324 73.9424 219.604 74.7971C218.885 75.6517 218.525 76.5514 218.57 77.451C218.615 78.3507 219.02 78.8455 219.829 78.8905C220.594 78.9354 221.853 78.5306 223.563 77.631C225.272 76.7313 226.487 75.8317 227.206 74.977C227.926 74.1223 228.286 73.2227 228.241 72.323C228.241 71.4234 227.791 70.9736 226.981 70.8836C226.172 70.7937 224.957 71.2435 223.248 72.1431Z" fill="#D20037"/>
<path d="M252.576 47.2786C252.846 47.1437 253.071 47.1437 253.206 47.3236C253.341 47.5035 253.431 47.7734 253.431 48.1333C253.431 48.4482 253.431 48.808 253.296 49.0779C253.161 49.3478 252.981 49.6177 252.711 49.7527L244.839 53.936L245.154 59.8287L242.86 61.0432L242.545 55.1505L234.673 59.3339C234.403 59.4688 234.178 59.4688 234.043 59.3339C233.908 59.1989 233.818 58.929 233.818 58.5692C233.818 58.2093 233.818 57.8944 233.953 57.5796C234.088 57.2647 234.268 56.9948 234.538 56.8599L252.531 47.2786H252.576ZM248.168 39.4067C248.842 39.0469 249.337 38.9569 249.607 39.1368C249.877 39.3168 250.057 39.8566 250.102 40.6662L250.192 42.5555C250.192 43.2302 250.192 43.9499 250.192 44.6697C250.192 45.3894 250.147 46.1091 250.102 46.8288C250.057 47.5035 249.967 48.1783 249.877 48.808C249.787 49.4378 249.697 49.9776 249.607 50.4724L247.493 51.0122C247.853 48.6731 247.988 46.334 247.853 43.9949V42.8704C247.853 42.8704 247.763 42.5105 247.673 42.4655C247.583 42.4205 247.448 42.4655 247.268 42.5555L236.607 48.2233C236.337 48.3582 236.112 48.3582 235.977 48.1783C235.843 47.9983 235.753 47.7284 235.753 47.3686C235.753 47.0087 235.753 46.6939 235.888 46.334C235.978 46.0191 236.202 45.7942 236.472 45.6143L248.168 39.4067ZM249.292 56.2301C249.967 55.8702 250.462 55.7803 250.732 55.9602C251.002 56.1401 251.181 56.6349 251.226 57.4896L251.541 63.6972C251.541 64.147 251.451 64.5068 251.226 64.8217C251.002 65.1366 250.732 65.4065 250.417 65.5414C250.102 65.7214 249.832 65.7214 249.607 65.6764C249.382 65.5864 249.247 65.3615 249.202 64.9117L248.932 59.6038C248.932 59.1989 248.752 59.109 248.393 59.2439L237.417 65.0916C237.147 65.2266 236.922 65.2265 236.787 65.0466C236.652 64.8667 236.562 64.5968 236.562 64.2369C236.562 63.8771 236.562 63.5622 236.697 63.2473C236.832 62.9325 237.012 62.7075 237.282 62.5726L249.292 56.1851V56.2301Z" fill="#D20037"/>
<path d="M260.132 33.502C261.932 32.5573 263.326 32.6023 264.316 33.5919C265.305 34.6265 265.89 36.5608 266.025 39.4846C266.16 42.3635 265.845 44.8375 264.99 46.8167C264.181 48.7959 262.831 50.2804 261.077 51.225C259.323 52.1696 257.883 52.1246 256.939 51.09C255.949 50.0554 255.409 48.1212 255.229 45.1974C255.094 42.3185 255.409 39.8445 256.264 37.8652C257.074 35.886 258.378 34.4016 260.177 33.457L260.132 33.502ZM260.267 36.1109C259.143 36.6957 258.378 37.6853 257.928 38.9898C257.523 40.2943 257.343 42.0036 257.433 44.0278C257.523 46.052 257.883 47.4915 258.423 48.3011C258.963 49.1108 259.773 49.2008 260.897 48.616C262.022 48.0312 262.831 47.0416 263.236 45.7371C263.686 44.4327 263.821 42.7233 263.731 40.6991C263.641 38.6749 263.326 37.2355 262.786 36.4258C262.247 35.6161 261.392 35.5262 260.267 36.1109ZM270.523 26.3948C270.838 26.2148 271.108 26.1699 271.378 26.2598C271.603 26.3498 271.738 26.5747 271.783 27.0245L272.997 50.2354C272.997 50.6852 272.907 51.045 272.682 51.3599C272.458 51.6748 272.188 51.9447 271.873 52.0796C271.558 52.2596 271.288 52.2596 271.063 52.2146C270.838 52.1246 270.703 51.8997 270.658 51.4499L269.984 38.6749L264.541 41.5538L264.406 39.0348L269.849 36.1559L269.444 28.284C269.444 27.8342 269.534 27.4743 269.759 27.1595C269.984 26.8446 270.253 26.6197 270.523 26.4398V26.3948Z" fill="#D20037"/>
</svg>
