<svg width="533" height="54" viewBox="0 0 533 54" fill="none" xmlns="http://www.w3.org/2000/svg">
<mask id="path-1-inside-1_1627_134639" fill="white">
<path d="M533 54H25.8682L0 35.8047V17.6084L25.8682 0H533V54ZM10.5469 22.6104C8.30677 22.6104 6.49121 24.3558 6.49121 26.5088C6.49129 28.6617 8.30682 30.4072 10.5469 30.4072C12.7869 30.4072 14.6025 28.6617 14.6025 26.5088C14.6025 24.3558 12.7869 22.6104 10.5469 22.6104Z"/>
</mask>
<path d="M533 54H25.8682L0 35.8047V17.6084L25.8682 0H533V54ZM10.5469 22.6104C8.30677 22.6104 6.49121 24.3558 6.49121 26.5088C6.49129 28.6617 8.30682 30.4072 10.5469 30.4072C12.7869 30.4072 14.6025 28.6617 14.6025 26.5088C14.6025 24.3558 12.7869 22.6104 10.5469 22.6104Z" fill="#ECC8C1"/>
<path d="M533 54V55H534V54H533ZM25.8682 54L25.2928 54.8179L25.5517 55H25.8682V54ZM0 35.8047H-1V36.3239L-0.57532 36.6226L0 35.8047ZM0 17.6084L-0.562704 16.7817L-1 17.0794V17.6084H0ZM25.8682 0V-1H25.5601L25.3055 -0.826658L25.8682 0ZM533 0H534V-1H533V0ZM10.5469 22.6104L10.5469 21.6104H10.5469V22.6104ZM6.49121 26.5088L5.49121 26.5088L5.49121 26.5088L6.49121 26.5088ZM10.5469 30.4072L10.5469 31.4072L10.5469 31.4072L10.5469 30.4072ZM14.6025 26.5088L15.6025 26.5088V26.5088H14.6025ZM533 54V53H25.8682V54V55H533V54ZM25.8682 54L26.4435 53.1821L0.57532 34.9868L0 35.8047L-0.57532 36.6226L25.2928 54.8179L25.8682 54ZM0 35.8047H1V17.6084H0H-1V35.8047H0ZM0 17.6084L0.562704 18.4351L26.4309 0.826658L25.8682 0L25.3055 -0.826658L-0.562704 16.7817L0 17.6084ZM25.8682 0V1H533V0V-1H25.8682V0ZM533 0H532V54H533H534V0H533ZM10.5469 22.6104V21.6104C7.79207 21.6104 5.49121 23.7667 5.49121 26.5088H6.49121H7.49121C7.49121 24.9449 8.82147 23.6104 10.5469 23.6104V22.6104ZM6.49121 26.5088L5.49121 26.5088C5.49131 29.2508 7.79208 31.4072 10.5469 31.4072V30.4072V29.4072C8.82155 29.4072 7.49127 28.0726 7.49121 26.5088L6.49121 26.5088ZM10.5469 30.4072L10.5469 31.4072C13.3016 31.4072 15.6024 29.2508 15.6025 26.5088L14.6025 26.5088L13.6025 26.5088C13.6025 28.0726 12.2722 29.4072 10.5469 29.4072L10.5469 30.4072ZM14.6025 26.5088H15.6025C15.6025 23.7667 13.3016 21.6104 10.5469 21.6104L10.5469 22.6104L10.5469 23.6104C12.2723 23.6104 13.6025 24.945 13.6025 26.5088H14.6025Z" fill="#DA9186" mask="url(#path-1-inside-1_1627_134639)"/>
</svg>
