<svg width="56" height="34" viewBox="0 0 56 34" fill="none" xmlns="http://www.w3.org/2000/svg">
<path d="M56 21.6364C56 31.3097 43.5 34 31.5 34C19.5 34 0 27.1883 0 17.5149C0 7.84157 17.5 0.000986718 32 6.10223e-08C46.5 -0.000986596 56 11.963 56 21.6364Z" fill="#336951"/>
<path d="M23.74 12.97C22.57 14.83 20.08 13.57 20.23 11.65C20.35 10.33 21.43 8.56 22.45 7.72C24.34 6.16 27.55 5.47 29.89 6.22C33.07 7.21 34.93 9.37 34.93 12.79C34.93 16.03 33.82 17.77 30.19 20.74C29.59 21.25 28.93 21.79 28.3 22.3C27.88 22.63 25.63 23.71 27.07 23.83C27.94 23.89 28.3 23.83 29.17 23.83C30.19 23.83 31.21 23.74 32.2 23.83C33.01 23.89 34.21 23.68 34.84 24.22C35.47 24.76 35.5 26.35 34.96 26.92C34.45 27.52 33.61 27.34 32.92 27.34H22.15C21.76 27.34 21.25 27.43 20.89 27.31C20.17 27.13 20.38 26.47 20.38 25.87C20.38 23.83 22.57 22.51 24.01 21.31C25.06 20.38 26.32 19.48 27.4 18.55C30.22 16.21 31.24 14.89 31.24 13.06C31.24 11.05 29.83 9.88 27.94 9.88C26.56 9.88 25.24 10.51 24.46 11.65C24.22 12.07 24.01 12.58 23.74 12.97Z" fill="white"/>
</svg>
