<svg width="63" height="68" viewBox="0 0 63 68" fill="none" xmlns="http://www.w3.org/2000/svg">
<g clip-path="url(#clip0_1485_26519)">
<path d="M30.078 0.0369641C12.6874 0.886964 -0.765752 15.1522 -0.000126906 31.9304C0.218623 36.2913 1.38529 40.3935 3.28112 44.0891C13.4165 66.6326 41.8176 68.037 41.8176 68.037C37.6978 65.8565 35.328 63.1957 33.9426 60.7196C50.8228 59.3891 63.729 45.3457 62.9634 28.9C62.1978 12.0848 47.4686 -0.813036 30.078 0.0369641Z" fill="#BD94C2"/>
<path d="M19.4323 28.5304C19.4323 28.937 19.5052 29.3065 19.6146 29.6022C19.724 29.8978 20.0885 30.0826 20.7083 30.0826H24.026C24.5365 30.0826 24.901 30.2304 25.1198 30.5261C25.3385 30.8217 25.4844 31.1174 25.4844 31.45C25.4844 31.8196 25.3385 32.1522 25.0833 32.4478C24.8281 32.7435 24.4635 32.8543 24.026 32.8543H11.9948C11.5573 32.8543 11.2292 32.7065 10.974 32.4478C10.7187 32.1522 10.6094 31.8196 10.6094 31.45C10.6094 31.1174 10.7187 30.8217 10.974 30.5261C11.1927 30.2304 11.5573 30.0826 12.0312 30.0826H15.2396C15.8594 30.0826 16.224 29.9348 16.3333 29.6022C16.4427 29.3065 16.5156 28.937 16.5156 28.5304V27.1261C16.5156 27.1261 16.5156 26.9413 16.5521 26.8674C15.4583 26.6087 14.5833 26.0174 13.8542 25.1674C13.125 24.2804 12.7969 23.2826 12.7969 22.1C12.7969 21.1391 13.0156 20.2891 13.4896 19.587H12.4687C11.5573 19.587 11.1198 19.1435 11.1198 18.2196C11.1198 17.2957 11.5573 16.8522 12.4687 16.8522H15.8229C16.2604 16.8522 16.4792 16.5565 16.4792 15.9283V14.1543C16.4792 13.7478 16.625 13.4152 16.9167 13.1196C17.2083 12.8609 17.5729 12.713 17.974 12.713C18.375 12.713 18.7396 12.8609 18.9948 13.1196C19.2865 13.3783 19.3958 13.7109 19.3958 14.1543V15.8913C19.3958 16.2609 19.3958 16.5196 19.5052 16.6304C19.5781 16.7413 19.7604 16.8152 20.0521 16.8522H23.3333C23.7344 16.8522 24.099 16.963 24.3542 17.2217C24.6458 17.4804 24.7552 17.813 24.7552 18.2196C24.7552 18.6261 24.6094 18.9587 24.3542 19.2174C24.0625 19.4761 23.7344 19.587 23.3333 19.587H22.3854C22.6042 19.8457 22.7865 20.2522 22.9323 20.7696C23.0781 21.287 23.1146 21.7304 23.1146 22.137C23.1146 23.3196 22.75 24.3543 22.0573 25.2043C21.3281 26.0543 20.4531 26.6457 19.3594 26.9413C19.3594 27.0152 19.3958 27.1261 19.4323 27.2C19.4323 27.2739 19.4323 27.3848 19.4323 27.4587V28.6043V28.5304ZM15.4219 21.9522C15.4219 22.6543 15.6771 23.2457 16.1875 23.6522C16.6979 24.0957 17.2812 24.2804 17.974 24.2804C18.6667 24.2804 19.1771 24.0587 19.651 23.6522C20.125 23.2087 20.3802 22.6543 20.3802 21.9522C20.3802 21.25 20.125 20.6217 19.651 20.1783C19.1771 19.7348 18.5937 19.513 17.974 19.513C17.3542 19.513 16.6979 19.7348 16.1875 20.1783C15.6771 20.6217 15.4219 21.213 15.4219 21.9522ZM27.6354 35.5522C28.3646 35.5522 28.9479 35.7739 29.4219 36.1804C29.8594 36.587 30.1146 37.1783 30.1146 37.9543V42.1674C30.1146 42.9065 29.8594 43.4978 29.3854 43.9044C28.875 44.3109 28.3281 44.5326 27.6719 44.5326H24.026C23.4427 44.5326 23.0417 44.7174 22.8229 45.05C22.6042 45.3826 22.4948 45.7522 22.4948 46.0848V46.4543C22.4948 46.8609 22.6042 47.2674 22.7865 47.7109C23.0052 48.1174 23.4427 48.3391 24.1719 48.3391H29.0573C29.4583 48.3391 29.8229 48.45 30.0781 48.7087C30.3698 48.9674 30.4792 49.3 30.4792 49.7065C30.4792 50.113 30.3333 50.4457 30.0781 50.7043C29.7865 50.963 29.4583 51.0739 29.0573 51.0739H21.9115C21.2552 51.0739 20.7083 50.8522 20.2344 50.4456C19.7604 50.0022 19.5052 49.4478 19.5052 48.7087V44.4587C19.5052 43.6826 19.7604 43.0543 20.2344 42.6109C20.7448 42.1304 21.3281 41.9087 22.0573 41.9087H25.5208C26.1042 41.9087 26.5052 41.7609 26.724 41.4652C26.9427 41.1696 27.0521 40.837 27.0521 40.4304V40.0239C27.0521 39.6174 26.9427 39.2478 26.724 38.8783C26.5052 38.5457 26.0312 38.3609 25.3385 38.3609H21C20.599 38.3609 20.2344 38.25 19.9792 37.9913C19.6875 37.7326 19.5781 37.4 19.5781 36.9935C19.5781 36.587 19.724 36.2543 19.9792 35.9957C20.2708 35.737 20.599 35.6261 21 35.6261H27.5625L27.6354 35.5522ZM26.8698 16.0391C26.8698 15.5957 27.0156 15.2261 27.2708 14.9674C27.5625 14.7087 27.8906 14.5609 28.3281 14.5609C28.8385 14.5609 29.2396 14.7087 29.4583 14.9674C29.6771 15.263 29.7865 15.5957 29.7865 16.0022V18.5891C29.7865 18.9587 29.8594 19.3283 29.9688 19.6239C30.1146 19.9196 30.4792 20.0674 31.099 20.0674H32.5937C33.1042 20.0674 33.4323 20.2152 33.651 20.5109C33.8698 20.8065 33.9792 21.1022 33.9792 21.4348C33.9792 22.3217 33.5052 22.7652 32.5937 22.7652H31.099C30.5521 22.7652 30.1875 22.8761 30.0417 23.1348C29.8958 23.3935 29.7865 23.7261 29.7865 24.1326V28.5304C29.7865 28.937 29.6406 29.3065 29.3854 29.6022C29.0938 29.8978 28.7656 30.0457 28.3646 30.0457C27.9635 30.0457 27.599 29.8978 27.3073 29.6022C27.0156 29.3065 26.8698 28.937 26.8698 28.5304V16.0391Z" fill="white"/>
<path d="M43.276 34.0739C43.276 34.4804 43.349 34.85 43.4583 35.1457C43.5677 35.4413 43.9323 35.6261 44.5521 35.6261H47.8698C48.3802 35.6261 48.7448 35.7739 48.9635 36.0696C49.1823 36.3652 49.3281 36.6609 49.3281 36.9935C49.3281 37.363 49.1823 37.6957 48.9271 37.9913C48.6719 38.287 48.3073 38.3978 47.8698 38.3978H35.6198C35.1823 38.3978 34.8542 38.25 34.599 37.9913C34.3437 37.6957 34.2344 37.363 34.2344 36.9935C34.2344 36.6609 34.3437 36.3652 34.599 36.0696C34.8177 35.7739 35.1823 35.6261 35.6562 35.6261H39.0833C39.7031 35.6261 40.0677 35.4783 40.1771 35.1457C40.2865 34.85 40.3594 34.4804 40.3594 34.0739V32.9283C40.3594 32.6326 40.4323 32.337 40.5781 32.0413H38.6823C37.9896 32.0413 37.4062 31.8196 36.9688 31.3391C36.5312 30.8957 36.276 30.2674 36.276 29.5283V23.8C36.276 23.0609 36.4948 22.4696 36.9688 22.0261C37.4062 21.5826 37.9896 21.3609 38.6823 21.3609H45.901C46.3021 21.3609 46.6667 21.5087 46.9219 21.7674C47.2135 22.0261 47.3229 22.3587 47.3229 22.8022C47.3229 23.2457 47.1771 23.5413 46.9219 23.8C46.6302 24.0587 46.3021 24.1696 45.901 24.1696H41.0156C40.3594 24.1696 39.8854 24.3543 39.6302 24.7609C39.375 25.1304 39.2292 25.537 39.2292 25.9065V27.2739C39.2292 27.7543 39.3385 28.1978 39.5573 28.6043C39.776 29.0109 40.25 29.2326 40.9792 29.2326H46.0833C46.4844 29.2326 46.8125 29.3435 47.1042 29.6022C47.3594 29.8239 47.5052 30.1565 47.5052 30.563C47.5052 31.0065 47.3594 31.3391 47.1042 31.5978C46.849 31.8565 46.5208 32.0043 46.0833 32.0043H43.0573C43.2396 32.263 43.3125 32.5587 43.3125 32.8913V34.037L43.276 34.0739ZM36.0208 45.937C36.0208 44.3848 36.5677 43.0913 37.6979 42.0935C38.7917 41.0957 40.1771 40.5783 41.7812 40.5783C43.3854 40.5783 44.6979 41.0957 45.7917 42.0935C46.8854 43.0913 47.4688 44.3848 47.4688 45.937C47.4688 47.4891 46.9219 48.8196 45.7917 49.8174C44.6979 50.8152 43.349 51.2957 41.7812 51.2957C40.2135 51.2957 38.8281 50.8152 37.6979 49.8174C36.6042 48.8196 36.0208 47.5261 36.0208 45.937ZM38.901 45.937C38.901 46.75 39.1927 47.4152 39.7396 47.8957C40.2865 48.3761 40.9792 48.6348 41.7448 48.6348C42.5104 48.6348 43.1302 48.3761 43.6771 47.8957C44.1875 47.4152 44.4792 46.75 44.4792 45.937C44.4792 45.1239 44.224 44.4957 43.6771 43.9783C43.1667 43.4609 42.5104 43.2391 41.7448 43.2391C40.9792 43.2391 40.2865 43.4978 39.7396 43.9783C39.1927 44.4957 38.901 45.1239 38.901 45.937Z" fill="white"/>
</g>
<defs>
<clipPath id="clip0_1485_26519">
<rect width="63" height="68" fill="white"/>
</clipPath>
</defs>
</svg>
