<svg width="389" height="236" viewBox="0 0 389 236" fill="none" xmlns="http://www.w3.org/2000/svg">
<path d="M165.462 55.85V12.73C165.462 10.28 166.162 9.58 168.122 9.58H174.702C176.732 9.58 177.362 10.28 177.362 12.73V28.06L181.422 27.99V12.03C181.422 9.58 182.122 8.88 184.082 8.88H190.662C192.692 8.88 193.322 9.58 193.322 12.03V55.15C193.322 57.6 192.692 58.3 190.662 58.3H184.082C182.122 58.3 181.422 57.6 181.422 55.15V38.63L177.362 38.7V55.85C177.362 58.3 176.732 59 174.702 59H168.122C166.162 59 165.462 58.3 165.462 55.85ZM146.842 57.25L149.782 19.1L133.612 19.52C131.932 19.59 131.302 19.1 131.302 17.49V10.91C131.302 9.3 131.932 8.95 133.612 8.88L159.582 8.18C161.752 8.11 162.452 8.88 162.242 11.33L158.672 57.25C158.462 59.7 158.042 60.4 156.012 60.4H149.502C147.542 60.4 146.632 59.7 146.842 57.25ZM247.553 71.88L210.803 72.58C208.773 72.65 208.143 71.88 208.143 69.43V54.03C208.143 51.58 208.843 50.88 210.803 50.88H217.383C219.413 50.88 220.043 51.58 220.043 54.03V61.8L247.693 61.24C249.373 61.17 249.863 61.8 249.863 63.69V69.43C249.863 71.32 249.443 71.81 247.553 71.88ZM239.433 46.05V11.33C239.433 8.88 240.133 8.18 242.093 8.18H248.673C250.703 8.18 251.333 8.88 251.333 11.33V23.58L256.023 23.44C257.703 23.37 258.333 23.86 258.333 25.47V32.05C258.333 33.66 257.703 34.01 256.023 34.08L251.333 34.22V46.05C251.333 48.5 250.703 49.2 248.673 49.2H242.093C240.133 49.2 239.433 48.5 239.433 46.05ZM202.193 7.48L232.363 6.78C234.533 6.71 235.233 7.48 235.023 9.93L234.113 29.95C233.903 32.19 233.483 32.61 231.453 32.61H224.243C222.353 32.61 221.933 32.19 222.003 30.23L222.563 17.63L202.193 18.12C200.513 18.19 199.883 17.7 199.883 16.09V9.51C199.883 7.9 200.513 7.55 202.193 7.48ZM201.843 36.95L206.113 36.88V26.8C206.113 24.35 206.813 23.65 208.773 23.65H215.353C217.383 23.65 218.013 24.35 218.013 26.8V36.6L233.623 36.25C235.303 36.25 235.933 36.67 235.933 38.28V44.86C235.933 46.47 235.303 46.89 233.623 46.89L201.843 47.59C200.163 47.59 199.533 47.17 199.533 45.56V38.98C199.533 37.37 200.163 36.95 201.843 36.95Z" fill="#C584B9"/>
<path d="M23 136.678C26.22 136.678 28.842 139.3 28.842 142.52C28.842 145.786 26.22 148.408 23 148.408C19.734 148.408 17.112 145.786 17.112 142.52C17.112 139.3 19.734 136.678 23 136.678Z" fill="#C584B9"/>
<path d="M79.8632 122.786V143.348H74.8032V122.786H79.8632ZM85.5212 130.974V135.114H77.7932V130.974H85.5212ZM79.8632 145.096V155.86H58.3812V161.196H53.3672V152.134H74.8952V149.006H53.2752V145.096H79.8632ZM81.1972 159.218V163.22H53.3672V159.218H81.1972ZM59.0712 124.028C61.1259 124.028 62.9659 124.427 64.5912 125.224C66.2472 126.021 67.5352 127.125 68.4552 128.536C69.4059 129.916 69.8812 131.495 69.8812 133.274C69.8812 135.053 69.4059 136.647 68.4552 138.058C67.5352 139.438 66.2472 140.527 64.5912 141.324C62.9659 142.091 61.1412 142.474 59.1172 142.474C57.0625 142.474 55.2072 142.091 53.5512 141.324C51.9259 140.527 50.6379 139.438 49.6872 138.058C48.7672 136.647 48.3072 135.053 48.3072 133.274C48.3072 131.495 48.7672 129.916 49.6872 128.536C50.6379 127.125 51.9259 126.021 53.5512 125.224C55.2072 124.427 57.0472 124.028 59.0712 124.028ZM59.0712 128.122C57.9365 128.122 56.9245 128.337 56.0352 128.766C55.1459 129.195 54.4405 129.809 53.9192 130.606C53.4285 131.373 53.1832 132.262 53.1832 133.274C53.1832 134.286 53.4285 135.191 53.9192 135.988C54.4405 136.755 55.1459 137.353 56.0352 137.782C56.9245 138.211 57.9365 138.426 59.0712 138.426C60.2059 138.426 61.2179 138.211 62.1072 137.782C62.9965 137.353 63.6865 136.755 64.1772 135.988C64.6985 135.191 64.9592 134.286 64.9592 133.274C64.9592 132.262 64.6985 131.373 64.1772 130.606C63.6865 129.809 62.9965 129.195 62.1072 128.766C61.2179 128.337 60.2059 128.122 59.0712 128.122ZM117.998 126.466V130.56H91.8703V126.466H117.998ZM125.082 154.296V158.436H88.0523V154.296H125.082ZM106.682 140.036V156.366H101.668V140.036H106.682ZM121.172 126.466V130.422C121.172 133.918 121.08 137.077 120.896 139.898C120.743 142.719 120.329 146.016 119.654 149.788L114.548 149.236C115.254 145.679 115.683 142.52 115.836 139.76C116.02 136.969 116.112 133.857 116.112 130.422V126.466H121.172ZM172.623 122.786V145.464H167.563V122.786H172.623ZM152.981 124.212V128.122C152.981 130.667 152.521 133.059 151.601 135.298C150.712 137.537 149.378 139.484 147.599 141.14C145.851 142.796 143.735 144.023 141.251 144.82L138.767 140.864C140.914 140.189 142.738 139.193 144.241 137.874C145.774 136.555 146.924 135.053 147.691 133.366C148.458 131.679 148.841 129.931 148.841 128.122V124.212H152.981ZM153.947 124.212V128.122C153.947 129.87 154.33 131.541 155.097 133.136C155.864 134.731 156.983 136.141 158.455 137.368C159.927 138.595 161.706 139.515 163.791 140.128L161.353 144.13C158.9 143.363 156.799 142.198 155.051 140.634C153.334 139.07 152.03 137.215 151.141 135.068C150.252 132.921 149.807 130.606 149.807 128.122V124.212H153.947ZM172.853 147.534V151.582H145.207V147.534H172.853ZM173.267 159.218V163.22H144.839V159.218H173.267ZM155.327 149.144V161.564H150.313V149.144H155.327ZM167.793 149.144V161.564H162.779V149.144H167.793ZM216.048 143.9V147.948H179.064V143.9H216.048ZM211.908 158.85V162.944H183.664V158.85H211.908ZM188.678 151.03V160.138H183.664V151.03H188.678ZM197.556 124.028C200.5 124.028 203.076 124.365 205.284 125.04C207.492 125.715 209.194 126.681 210.39 127.938C211.617 129.195 212.23 130.667 212.23 132.354C212.23 134.071 211.617 135.559 210.39 136.816C209.194 138.073 207.492 139.039 205.284 139.714C203.076 140.389 200.5 140.726 197.556 140.726C194.612 140.726 192.036 140.389 189.828 139.714C187.62 139.039 185.903 138.073 184.676 136.816C183.48 135.559 182.882 134.071 182.882 132.354C182.882 130.667 183.48 129.195 184.676 127.938C185.903 126.681 187.62 125.715 189.828 125.04C192.036 124.365 194.612 124.028 197.556 124.028ZM197.556 128.122C195.593 128.122 193.891 128.291 192.45 128.628C191.039 128.935 189.951 129.41 189.184 130.054C188.448 130.667 188.08 131.434 188.08 132.354C188.08 133.274 188.448 134.056 189.184 134.7C189.951 135.344 191.039 135.835 192.45 136.172C193.891 136.509 195.593 136.678 197.556 136.678C199.519 136.678 201.205 136.509 202.616 136.172C204.027 135.835 205.1 135.344 205.836 134.7C206.603 134.056 206.986 133.274 206.986 132.354C206.986 131.434 206.603 130.667 205.836 130.054C205.1 129.41 204.027 128.935 202.616 128.628C201.205 128.291 199.519 128.122 197.556 128.122ZM250.847 143.302V150.478H245.787V143.302H250.847ZM266.855 141.6V145.648H229.871V141.6H266.855ZM248.317 149.098C252.733 149.098 256.183 149.742 258.667 151.03C261.181 152.287 262.439 154.081 262.439 156.412C262.439 158.712 261.181 160.491 258.667 161.748C256.183 163.036 252.733 163.68 248.317 163.68C243.87 163.68 240.389 163.036 237.875 161.748C235.391 160.491 234.149 158.712 234.149 156.412C234.149 154.081 235.391 152.287 237.875 151.03C240.389 149.742 243.87 149.098 248.317 149.098ZM248.317 152.916C245.342 152.916 243.088 153.207 241.555 153.79C240.021 154.373 239.255 155.247 239.255 156.412C239.255 157.547 240.021 158.405 241.555 158.988C243.088 159.571 245.342 159.862 248.317 159.862C251.261 159.862 253.499 159.571 255.033 158.988C256.566 158.405 257.333 157.547 257.333 156.412C257.333 155.247 256.566 154.373 255.033 153.79C253.499 153.207 251.261 152.916 248.317 152.916ZM249.421 126.466V127.524C249.421 129.609 248.761 131.511 247.443 133.228C246.124 134.945 244.253 136.371 241.831 137.506C239.408 138.61 236.587 139.331 233.367 139.668L231.619 135.712C234.317 135.467 236.663 134.945 238.657 134.148C240.681 133.32 242.229 132.323 243.303 131.158C244.376 129.993 244.913 128.781 244.913 127.524V126.466H249.421ZM251.813 126.466V127.524C251.813 128.812 252.349 130.039 253.423 131.204C254.496 132.339 256.029 133.32 258.023 134.148C260.047 134.945 262.408 135.467 265.107 135.712L263.313 139.668C260.093 139.331 257.271 138.61 254.849 137.506C252.457 136.371 250.601 134.945 249.283 133.228C247.964 131.511 247.305 129.609 247.305 127.524V126.466H251.813ZM263.543 124.58V128.582H233.229V124.58H263.543ZM300.804 124.626V128.674H274.722V124.626H300.804ZM307.152 138.932V142.98H270.076V138.932H307.152ZM291.098 141.738V150.754H286.038V141.738H291.098ZM302.598 124.626V127.754C302.598 130.207 302.521 132.4 302.368 134.332C302.245 136.233 301.892 138.395 301.31 140.818L296.388 140.358C296.97 137.966 297.323 135.865 297.446 134.056C297.599 132.216 297.676 130.115 297.676 127.754V124.626H302.598ZM302.736 149.42V163.726H297.722V153.422H273.848V149.42H302.736Z" fill="#010101"/>
<path d="M23 206.678C26.22 206.678 28.842 209.3 28.842 212.52C28.842 215.786 26.22 218.408 23 218.408C19.734 218.408 17.112 215.786 17.112 212.52C17.112 209.3 19.734 206.678 23 206.678Z" fill="#C584B9"/>
<path d="M69.5841 196.788C69.5841 201.265 69.0321 205.329 67.9281 208.978C66.8548 212.597 64.9381 215.985 62.1781 219.144C59.4181 222.272 55.6155 225.032 50.7701 227.424L48.1021 223.514C52.2421 221.459 55.5235 219.159 57.9461 216.614C60.3995 214.038 62.1321 211.201 63.1441 208.104C64.1868 204.976 64.7081 201.419 64.7081 197.432V196.788H69.5841ZM67.2381 196.788V200.836H50.4481V196.788H67.2381ZM64.4781 210.772L49.0681 212.198L48.3781 207.874L64.4781 206.908V210.772ZM81.4981 192.74V233.68H76.4381V192.74H81.4981ZM103.211 215.74V232.484H98.1512V215.74H103.211ZM122.071 192.74V233.726H117.011V192.74H122.071ZM87.6632 213.854C92.9379 213.854 97.7065 213.777 101.969 213.624C106.232 213.471 110.311 213.133 114.205 212.612L114.527 216.246C110.479 216.951 106.324 217.427 102.061 217.672C97.7985 217.887 93.1985 217.994 88.2612 217.994L87.6632 213.854ZM118.069 220.432V224.342H108.409V220.432H118.069ZM100.911 194.626C102.905 194.626 104.683 194.979 106.247 195.684C107.842 196.359 109.069 197.325 109.927 198.582C110.817 199.809 111.261 201.235 111.261 202.86C111.261 204.485 110.817 205.927 109.927 207.184C109.069 208.411 107.857 209.377 106.293 210.082C104.729 210.757 102.935 211.094 100.911 211.094C98.8872 211.094 97.0932 210.757 95.5292 210.082C93.9652 209.377 92.7385 208.411 91.8492 207.184C90.9599 205.927 90.5152 204.485 90.5152 202.86C90.5152 201.235 90.9599 199.809 91.8492 198.582C92.7385 197.325 93.9652 196.359 95.5292 195.684C97.1239 194.979 98.9179 194.626 100.911 194.626ZM100.911 198.398C99.8072 198.398 98.8259 198.582 97.9672 198.95C97.1392 199.318 96.4799 199.839 95.9892 200.514C95.5292 201.189 95.2992 201.971 95.2992 202.86C95.2992 203.749 95.5292 204.531 95.9892 205.206C96.4799 205.881 97.1392 206.402 97.9672 206.77C98.8259 207.107 99.8072 207.276 100.911 207.276C102.015 207.276 102.981 207.107 103.809 206.77C104.668 206.402 105.327 205.896 105.787 205.252C106.247 204.577 106.477 203.78 106.477 202.86C106.477 201.971 106.247 201.189 105.787 200.514C105.327 199.839 104.668 199.318 103.809 198.95C102.981 198.582 102.015 198.398 100.911 198.398ZM161.034 211.922V215.97H132.514V211.922H161.034ZM165.128 224.388V228.528H128.052V224.388H165.128ZM160.666 196.236V200.376H137.528V213.624H132.514V196.236H160.666ZM205.333 224.848V228.942H168.257V224.848H205.333ZM189.233 216.706V226.504H184.219V216.706H189.233ZM201.009 195.546V208.702H177.641V216.062H172.673V204.7H195.995V199.548H172.581V195.546H201.009ZM201.929 214.084V218.132H172.673V214.084H201.929ZM256.14 224.618V228.758H219.064V224.618H256.14ZM240.04 215.464V225.676H235.026V215.464H240.04ZM228.172 195.454V202.124H246.94V195.454H251.954V216.614H223.158V195.454H228.172ZM228.172 212.566H246.94V206.126H228.172V212.566ZM292.159 204.286V208.334H264.007V204.286H292.159ZM296.345 213.072V217.12H259.269V213.072H296.345ZM269.021 194.212V206.31H264.007V194.212H269.021ZM292.389 228.712V232.806H263.685V228.712H292.389ZM268.699 220.662V229.816H263.685V220.662H268.699ZM331.052 213.302V220.478H325.992V213.302H331.052ZM347.06 211.6V215.648H310.076V211.6H347.06ZM328.522 219.098C332.938 219.098 336.388 219.742 338.872 221.03C341.386 222.287 342.644 224.081 342.644 226.412C342.644 228.712 341.386 230.491 338.872 231.748C336.388 233.036 332.938 233.68 328.522 233.68C324.075 233.68 320.594 233.036 318.08 231.748C315.596 230.491 314.354 228.712 314.354 226.412C314.354 224.081 315.596 222.287 318.08 221.03C320.594 219.742 324.075 219.098 328.522 219.098ZM328.522 222.916C325.547 222.916 323.293 223.207 321.76 223.79C320.226 224.373 319.46 225.247 319.46 226.412C319.46 227.547 320.226 228.405 321.76 228.988C323.293 229.571 325.547 229.862 328.522 229.862C331.466 229.862 333.704 229.571 335.238 228.988C336.771 228.405 337.538 227.547 337.538 226.412C337.538 225.247 336.771 224.373 335.238 223.79C333.704 223.207 331.466 222.916 328.522 222.916ZM329.626 196.466V197.524C329.626 199.609 328.966 201.511 327.648 203.228C326.329 204.945 324.458 206.371 322.036 207.506C319.613 208.61 316.792 209.331 313.572 209.668L311.824 205.712C314.522 205.467 316.868 204.945 318.862 204.148C320.886 203.32 322.434 202.323 323.508 201.158C324.581 199.993 325.118 198.781 325.118 197.524V196.466H329.626ZM332.018 196.466V197.524C332.018 198.812 332.554 200.039 333.628 201.204C334.701 202.339 336.234 203.32 338.228 204.148C340.252 204.945 342.613 205.467 345.312 205.712L343.518 209.668C340.298 209.331 337.476 208.61 335.054 207.506C332.662 206.371 330.806 204.945 329.488 203.228C328.169 201.511 327.51 199.609 327.51 197.524V196.466H332.018ZM343.748 194.58V198.582H313.434V194.58H343.748ZM381.009 194.626V198.674H354.927V194.626H381.009ZM387.357 208.932V212.98H350.281V208.932H387.357ZM371.303 211.738V220.754H366.243V211.738H371.303ZM382.803 194.626V197.754C382.803 200.207 382.726 202.4 382.573 204.332C382.45 206.233 382.097 208.395 381.515 210.818L376.593 210.358C377.175 207.966 377.528 205.865 377.651 204.056C377.804 202.216 377.881 200.115 377.881 197.754V194.626H382.803ZM382.941 219.42V233.726H377.927V223.422H354.053V219.42H382.941Z" fill="#010101"/>
</svg>
