<svg width="36" height="34" viewBox="0 0 36 34" fill="none" xmlns="http://www.w3.org/2000/svg">
<g clip-path="url(#clip0_2077_28027)">
<path d="M21.5094 0C19.6146 1.10569 17.9985 3.2065 17.9985 3.2065C17.9985 3.2065 16.3267 0.995122 14.4877 0C14.1533 0.773984 12.983 2.93008 13.7632 7.40813C14.5991 11.8862 17.9428 14.7057 17.9428 14.7057C17.9428 14.7057 21.3422 11.9415 22.1224 7.40813C22.9025 2.8748 21.8994 0.718699 21.3979 0" fill="#F4B03D"/>
<path d="M2.17337 9.34247C2.67492 11.4433 4.12384 13.6547 4.12384 13.6547C4.12384 13.6547 1.44892 14.5392 0 15.9766C0.613003 16.5295 2.34056 18.2986 6.91022 18.962C11.4799 19.5701 15.1579 17.2482 15.1579 17.2482C15.1579 17.2482 13.5418 13.2124 9.47368 11.0563C5.40557 8.9002 3.00929 9.17662 2.11765 9.39776" fill="#F4B03D"/>
<path d="M4.57031 29.909C6.74369 30.1301 9.30715 29.3562 9.30715 29.3562C9.30715 29.3562 9.30715 32.1204 10.2545 34.0001C10.979 33.6131 13.2081 32.5074 15.2143 28.4163C17.2205 24.3253 16.1059 20.0684 16.1059 20.0684C16.1059 20.0684 11.7034 20.3448 8.41551 23.496C5.07186 26.6472 4.62604 29.0245 4.57031 29.909Z" fill="#F4B03D"/>
<path d="M25.8008 34.0001C26.6367 32.0098 26.7481 29.3562 26.7481 29.3562C26.7481 29.3562 29.423 30.1854 31.485 29.909C31.3178 29.0797 30.9834 26.6472 27.6398 23.496C24.2961 20.3448 19.9494 20.0684 19.9494 20.0684C19.9494 20.0684 18.8348 24.27 20.841 28.4163C22.8472 32.5074 24.9648 33.6684 25.8008 34.0001Z" fill="#F4B03D"/>
<path d="M36.0016 15.9223C34.3855 14.4849 31.8778 13.6003 31.8778 13.6003C31.8778 13.6003 33.4939 11.3337 33.884 9.28813C33.0481 9.17756 30.5961 8.79057 26.528 10.9467C22.4599 13.1028 20.8438 17.1385 20.8438 17.1385C20.8438 17.1385 24.5775 19.4605 29.0914 18.8524C33.6611 18.2442 35.4444 16.5857 36.0016 15.867" fill="#F4B03D"/>
</g>
<defs>
<clipPath id="clip0_2077_28027">
<rect width="36" height="34" fill="white"/>
</clipPath>
</defs>
</svg>
