<svg width="528" height="49" viewBox="0 0 528 49" fill="none" xmlns="http://www.w3.org/2000/svg">
<rect width="351" height="49" rx="8" fill="#E4F2FC"/>
<path d="M13.5347 19.3784C14.3019 19 15.4038 18.3832 16.1943 17.9904C16.474 17.8177 16.7686 17.6676 17.0865 17.5031C15.806 17.8494 14.4789 18.2244 13.2134 18.5932C11.8332 18.9375 11.4911 16.9278 12.9203 16.807C14.0718 16.7624 15.2615 16.726 16.4364 16.667C15.2888 16.5188 14.1031 16.3624 12.9471 16.2511C11.5323 16.0457 12.0491 14.0451 13.4049 14.509C14.5465 14.9465 15.7114 15.3695 16.8763 15.7926C16.664 15.6698 16.4751 15.5327 16.2628 15.4099C15.5051 14.9575 14.4523 14.3066 13.6861 13.8912C12.4975 13.1338 13.8037 11.5342 14.8506 12.4743C15.7001 13.3142 16.6026 14.1848 17.5051 15.0554C16.8357 14.0409 16.1047 13.0327 15.4035 12.0695C14.6448 10.9198 16.5204 9.98404 17.0545 11.2407C17.3525 12.0403 17.774 13.1762 18.0953 13.9614C18.1612 14.111 18.2272 14.2607 18.2698 14.4247C18.0626 13.3153 17.8404 12.1833 17.6099 11.0882C17.4002 9.7265 19.5123 9.59658 19.4611 10.9607C19.3902 11.7977 19.3346 13.0059 19.2785 13.8655C19.2641 14.1916 19.2498 14.5178 19.2354 14.844C19.3261 14.5341 19.4169 14.2243 19.531 13.9C19.7779 13.0813 20.1008 11.9301 20.3329 11.0888C20.751 9.78369 22.699 10.5483 22.0602 11.7676C21.1779 13.2641 20.3021 14.82 19.4495 16.3616C21.4599 17.8174 23.2903 19.4478 24.9193 21.1708C24.4492 20.1601 23.9875 19.1125 23.509 18.1388C22.9601 16.8596 24.9824 16.2457 25.2918 17.6094C25.4842 18.6963 25.7063 19.8282 25.9518 20.9458C25.9473 20.79 25.9513 20.5971 25.9468 20.4412C25.9414 19.5879 25.9355 18.3859 25.8919 17.5245C25.9048 16.1522 28.0174 16.371 27.7521 17.7087C27.4505 18.9419 27.1554 20.2346 26.8836 21.5128C27.4673 20.3593 28.0446 19.1463 28.5901 17.9846C29.2289 16.7653 31.0246 17.846 30.1736 18.9425C29.0027 20.2999 27.8298 21.7536 26.7119 23.1417C28.4262 25.1928 29.8713 27.2831 31.0723 29.302C31.0529 29.1236 31.0103 28.9596 30.991 28.7811C30.8392 27.9547 30.634 26.7488 30.4823 25.9224C30.2725 24.5606 32.3995 24.4533 32.3633 25.8399C32.2715 26.9436 32.1713 28.0842 32.1092 29.233C32.4004 28.1332 32.6766 27.0108 32.9445 25.9253C33.3244 24.6121 35.304 25.3254 34.6801 26.5672C34.2507 27.3082 33.6838 28.3879 33.2925 29.1371L32.8293 30.0259C33.0495 29.763 33.2845 29.5227 33.4814 29.2743C34.0552 28.6028 34.8641 27.691 35.4146 27.0339C36.3484 26.0132 37.8138 27.4882 36.6761 28.3491C35.2057 29.352 33.7333 30.4514 32.3075 31.5219C33.7406 34.1907 34.6728 36.5977 35.1905 38.2769C35.2545 38.523 35.1573 38.7734 34.9708 38.8885C34.9242 38.9173 34.8776 38.946 34.831 38.9748C34.5299 39.0655 34.2264 38.9038 34.1327 38.6127C33.6448 36.9785 32.7488 34.6761 31.3603 32.0749C29.6008 32.59 27.7713 33.1482 26.0416 33.7084C24.6763 34.0753 24.2727 32.0718 25.6871 31.9284C27.0082 31.8426 28.3526 31.7424 29.697 31.6422C28.3586 31.4532 27.0052 31.2416 25.7198 31.0833C24.3134 30.841 24.8833 28.8711 26.2158 29.3494C27.281 29.7705 28.3844 30.1998 29.4878 30.6292C28.5029 30.0315 27.4799 29.4257 26.4866 28.8649C25.2979 28.1075 26.6042 26.5079 27.651 27.4481C28.2521 28.0606 29.1397 28.9086 29.7641 29.5068C29.8766 29.6277 29.9976 29.7116 30.1102 29.8325C28.9687 27.9038 27.545 25.8954 25.9284 23.9427C25.2291 24.3744 24.5299 24.806 23.839 25.2008C23.0932 25.6612 22.0443 26.3087 21.2984 26.7691C20.0948 27.4804 19.1358 25.6294 20.4882 25.1436C21.7389 24.7522 23.0213 24.3095 24.3038 23.8669C22.9509 24.004 21.598 24.1411 20.2983 24.309C18.869 24.4298 18.8959 22.3826 20.3127 22.4916C21.1845 22.6197 22.4169 22.7473 23.2887 22.8754C23.4647 22.8936 23.6408 22.9119 23.8168 22.9301C22.6966 22.5746 21.5679 22.2561 20.4541 21.9601C19.1131 21.5188 19.9419 19.6429 21.194 20.2977C21.9369 20.7275 23.0363 21.3496 23.7792 21.7794C23.9383 21.8715 24.1208 21.9492 24.2949 22.0639C22.6808 20.3634 20.8886 18.7412 18.9164 17.2935C17.5268 18.4686 16.0822 19.7094 14.7456 20.9152C13.661 21.8069 12.4372 20.1511 13.6557 19.4623" fill="#F3C574"/>
<path d="M37.2467 18.5741C38.4512 18.5602 39.6325 18.5607 40.852 18.5694C39.6618 18.2571 38.4632 17.9818 37.2943 17.7515C36.0109 17.4968 36.5575 15.5412 37.7585 16.0689C38.6859 16.48 39.6514 16.8992 40.5852 17.3698C39.7466 16.7453 38.8848 16.1351 38.0145 15.5619C36.8873 14.7983 38.0939 13.1967 39.0708 14.1801C39.8588 15.0262 40.6701 15.8579 41.4347 16.7185C40.8417 15.7203 40.2337 14.6996 39.5707 13.7446C38.7971 12.5723 40.5581 11.6121 41.1135 12.9508C41.5583 14.0722 41.9649 15.1855 42.3715 16.2988C42.196 15.138 42.0056 13.9547 41.7537 12.7777C41.4761 11.3627 43.5247 11.3354 43.5182 12.7672C43.4879 13.8646 43.4576 14.962 43.3891 16.0513C43.6485 15.0028 43.8846 13.9687 44.0677 12.9039C44.3648 11.5148 46.3171 12.4353 45.7845 13.716C45.2474 14.8408 44.7251 15.9881 44.135 17.0821C44.9438 16.1703 45.7294 15.2729 46.4936 14.2935C47.3511 13.2565 48.8085 15.1172 47.7492 15.898C46.3105 16.8496 44.8867 17.8237 43.4481 18.7753C44.4056 21.0714 45.3423 23.6342 46.0945 26.2157C46.1183 25.0588 46.104 23.8937 46.0515 22.7205C46.0198 21.2806 48.0242 21.5344 47.81 22.9992C47.6036 24.0784 47.4122 25.1802 47.1676 26.2513C47.5947 25.2579 47.9835 24.2564 48.3426 23.2098C48.8455 21.8841 50.654 23.0838 49.9007 24.2785C49.1811 25.3256 48.4997 26.3808 47.7503 27.3828C48.6866 26.6144 49.608 25.8235 50.523 24.9731C50.8831 24.6239 51.4643 24.7093 51.7851 25.1458C52.1655 25.6725 52.0182 26.4932 51.5222 26.7359C49.9581 27.4476 48.4004 28.2188 46.8511 28.9531C46.8045 28.9819 47.7927 33.5118 47.9038 34.0778C47.9509 34.3977 48.0744 34.7339 48.0367 35.0745C48.0009 35.3186 47.8804 35.5834 47.573 35.6146C47.1425 35.6582 46.9531 35.1723 46.9293 34.838C46.7344 33.4988 45.895 29.1944 45.8335 29.2006C44.0988 29.2562 42.3706 29.3712 40.6339 29.5232C39.3212 29.5721 39.3694 27.607 40.6548 27.7653C41.832 27.9586 43.0178 28.115 44.2184 28.294C43.1085 27.8052 41.9521 27.3452 40.8403 26.9528C39.6223 26.499 40.4659 24.6456 41.5867 25.3498C42.4421 25.9005 43.3124 26.4737 44.1743 27.0838C43.4458 26.3279 42.694 25.5863 41.9254 24.9186C40.94 23.9722 42.3802 22.5755 43.2004 23.719C43.8252 24.6659 44.5115 25.6065 45.1279 26.5903C44.3757 24.0088 43.4539 21.4685 42.4964 19.1724C40.8023 19.4884 39.0999 19.8414 37.4271 20.2395C36.1487 20.4893 35.8661 18.5697 37.1787 18.5209" fill="#F3C574"/>
<path d="M63.04 21.28C62.96 21.28 62.92 21.24 62.92 21.2C62.4 20.8 62.24 19.8 62.24 19.2C62.2 18.24 62.08 17.28 62.08 16.36C62.08 15 62.04 13.36 62.28 12.04C62.44 11.2 62.76 10.72 63.56 10.4C64.28 10.12 65.04 10.04 65.8 9.96C66.72 9.88 67.68 9.96 68.64 9.96H76.24C78.96 9.96 78.6 9.96 81.28 9.92C81.76 9.92 82.2 9.92 82.68 9.96C83.68 10 84.8 10.04 85.72 10.48C86.76 10.92 87.08 12.04 87.12 13.08C87.2 14.28 87.08 15.8 87.08 17C87.04 18.08 87.08 19.16 86.8 20.2C86.64 20.8 86.52 21.28 85.88 21.48C85.32 21.68 84.6 21.72 84.04 21.72H66.76C66.24 21.72 65.72 21.68 65.2 21.64C64.52 21.6 63.64 21.68 63.04 21.28ZM85.24 28.92C82.6 29 80.52 29.08 77.84 29.08C77.8 30.2 77.72 31.24 77.72 32.76C77.48 33.88 76 34.56 74.92 34.52C73.32 34.44 72.44 33.8 72.28 32.2C72.16 31.16 72.32 30.04 72.32 29C69.88 29 63.48 28.92 61.24 28.76C60.4 28.68 60 28.64 59.32 28C58.96 27.68 58.8 27.08 58.8 26.52C58.8 26 59 25.48 59.32 25.16C60.12 24.32 62.08 24.36 62.16 24.36H85.04C85.84 24.36 86.64 24.36 87.4 24.4C88.12 24.44 88.92 24.56 89.48 25.08C90.04 25.52 90.04 26.04 90.04 26.68C90.04 27.48 89.56 28.16 88.76 28.44C87.68 28.84 86.36 28.88 85.24 28.92ZM86.36 36.48C86.44 36.52 87.92 36.88 88.08 38C88.24 39 88.08 39.8 87.6 40.36C87 41.12 86.12 41.16 86.08 41.16H64.24C62.2 41.16 60.96 40.44 60.96 39.24V35.68C60.92 35.08 60.92 34.48 60.96 33.88C61.04 32.76 61.88 32 63 32C63.28 32 63.84 32.04 64.08 32.12C65.44 32.56 65.52 33.92 65.6 35.12C65.6 35.56 65.64 36.04 65.76 36.4C65.88 36.44 66.68 36.56 68.56 36.56C70.16 36.56 71.64 36.48 71.68 36.48H86.36ZM66.84 16.6C66.84 16.84 66.84 17.12 66.96 17.24C67.2 17.44 68.12 17.32 68.12 17.32H78.64C78.64 17.32 80.56 17.48 81.52 17.36C82.08 17.32 82.08 17.08 82.16 16.6C82.2 16.16 82.28 15.24 81.96 14.84C81.6 14.4 80.76 14.48 80.28 14.52H76.64C76.28 14.48 71.44 14.52 71.08 14.52C69.96 14.44 68.84 14.48 67.68 14.52C67.2 14.52 67.04 14.44 66.92 14.92C66.84 15.28 66.84 15.92 66.84 16.24V16.6ZM95.2516 33.72C95.4516 33.64 99.1316 33.8 99.8116 33.8C99.8516 33.16 99.9316 30.52 100.012 29.2C99.5316 29.08 99.0916 28.96 98.6516 28.76C95.6516 27.52 93.3316 25.08 93.3316 21.56C93.3316 19.64 93.8916 18.16 94.8116 17H94.3716C93.0916 17 92.0116 16.04 92.0116 14.88C92.0116 13.68 93.0916 12.72 94.3716 12.72H99.6516V11.08C99.6516 10.04 100.692 9.28 101.972 9.28C103.292 9.28 104.332 10.04 104.332 11.08V12.72H109.852C111.172 12.72 112.252 13.68 112.252 14.88C112.252 16.04 111.172 17 109.852 17H109.732C110.652 18.16 111.252 19.64 111.252 21.56C111.252 24.04 110.052 26.08 108.052 27.6C107.052 28.32 105.932 28.84 104.772 29.16C104.852 30.4 104.852 33.16 104.852 33.76V33.8H110.172C111.052 33.8 111.772 33.96 112.292 34.28C113.492 35 113.452 36.96 112.932 37.92C112.452 38.76 111.412 38.84 110.572 38.84H94.7716C94.7316 38.84 93.3716 38.72 92.6516 38.4C92.1316 38.12 91.7316 37.52 91.6116 36.76C91.4916 35.92 91.7716 35.12 92.2916 34.64C93.2516 33.84 94.3316 33.72 95.2516 33.72ZM121.772 22.96H121.852C122.132 22.92 122.372 23 122.612 23C122.932 23.04 123.212 23.08 123.532 23.12C124.132 23.24 124.772 23.48 125.092 24.08C125.252 24.4 125.332 24.76 125.332 25.16C125.332 25.52 125.332 25.92 125.252 26.28C125.132 26.68 125.012 27.24 124.692 27.52C124.372 27.76 123.972 27.96 123.572 28.04C122.732 28.16 121.292 28.04 120.452 28.08C120.372 28.12 120.332 28.12 120.332 28.12C120.332 28.12 120.332 28.16 120.292 28.28C120.252 29.6 120.292 30.76 120.292 32.12C120.332 33.48 120.332 34.88 120.292 36.2V36.76C120.292 38.16 120.332 40.2 119.372 41.2C119.012 41.52 118.572 41.72 118.052 41.72H117.972C115.372 41.6 115.132 38.48 115.132 36.8V13.04C115.132 12.96 115.052 10.96 115.932 10.08C116.332 9.72 117.172 9.52 117.732 9.52C118.332 9.52 118.892 9.76 119.252 10.12C119.932 10.88 120.012 11.72 120.052 12.6C120.092 12.76 120.092 12.92 120.132 13.12C120.212 13.96 120.212 14.96 120.252 15.92C120.252 16.52 120.292 17.08 120.292 17.64V21.96C120.292 22.24 120.292 22.56 120.372 22.84C120.372 22.88 121.172 22.88 121.252 22.92C121.412 22.92 121.612 22.96 121.772 22.96ZM103.052 24.76C104.772 24.44 106.252 23.6 106.252 21.56C106.252 19.2 104.292 18.32 102.332 18.28C100.332 18.2 98.3316 19.04 98.3316 21.56C98.3316 24.44 100.852 25.2 103.052 24.76ZM162.553 38.44C163.393 38.52 164.113 38.8 164.353 39.64C164.673 40.6 164.313 41.28 163.313 41.68C162.673 41.92 161.993 41.96 161.433 41.96H142.833C141.753 41.96 140.593 41.92 139.433 41.88C138.313 41.84 137.513 41 137.393 39.8L137.273 37C137.233 36.44 137.193 35.48 137.673 34.96C138.393 34.16 139.833 34.04 140.993 34.04C142.513 34.04 147.593 34.08 159.793 34.08V32.64H140.113C139.593 32.64 139.153 32.64 138.753 32.56C138.273 32.44 137.873 32.44 137.633 32C137.273 31.44 137.153 30.92 137.353 30.28C137.633 29.44 138.833 29.32 139.433 29.24C139.833 29.16 140.233 29.12 140.673 29.12C143.073 29.12 145.873 29.16 160.193 29.16C162.873 29.16 164.393 29.96 164.393 31.8V34.64C164.393 35.36 164.073 36.16 163.233 36.64C162.553 37.04 161.833 37 161.153 37H142.193V38.44H162.553ZM137.633 15.2C137.553 13.88 137.353 12.48 137.793 11.32C138.393 9.88 139.913 9.64 141.233 9.64H159.873C160.953 9.64 161.873 9.68 162.913 10.08C163.753 10.44 164.273 11.28 164.233 12.2C164.153 13.12 163.593 13.84 162.713 14.04C162.233 14.16 161.513 14.24 160.553 14.24C159.873 14.24 159.393 14.2 159.353 14.2H147.793C146.993 14.2 146.193 14.24 145.393 14.2C144.753 14.16 144.073 13.96 143.473 14.16C142.873 14.32 142.913 15 143.073 15.68C143.833 15.8 144.593 15.8 145.353 15.84H152.953C153.433 15.88 156.593 15.88 156.993 15.84C157.313 15.8 159.513 15.8 159.833 15.8C161.073 15.8 162.153 16 162.993 16.4C163.513 16.68 163.873 16.88 163.993 17.52C164.153 18.16 164.033 18.84 163.633 19.32C162.873 20.32 161.913 20.36 160.793 20.4C159.753 20.44 153.873 20.48 152.233 20.48C150.553 20.48 147.153 20.44 145.593 20.44C143.833 20.4 142.073 20.32 140.313 20.32C137.713 20.32 137.713 18.56 137.713 16.32C137.713 15.96 137.673 15.56 137.633 15.2ZM138.993 22.64C139.793 22.56 141.553 22.56 141.553 22.56H150.353C150.353 22.56 157.753 22.48 161.353 22.56H161.553C162.633 22.6 163.713 22.52 164.753 22.92C165.513 23.2 165.993 23.88 165.993 24.68C165.993 25.32 165.713 25.92 165.193 26.36C164.353 27.12 162.993 27.08 161.913 27H138.953C138.873 27 136.993 27.04 136.233 26.2C135.913 25.88 135.753 25.36 135.753 24.84C135.753 24.28 135.953 23.8 136.273 23.48C136.953 22.8 137.713 22.76 138.513 22.68C138.673 22.68 138.833 22.64 138.993 22.64ZM191.589 14.52C191.629 13.16 191.589 11.04 192.549 10.08C192.909 9.72 193.349 9.56 193.829 9.56H193.909C196.549 9.68 196.789 12.8 196.789 14.48V38.2C196.789 38.28 196.869 40.32 195.949 41.16C195.589 41.52 194.749 41.76 194.189 41.76C193.589 41.76 193.029 41.52 192.669 41.12C191.989 40.36 191.869 39.68 191.789 38.8C191.789 37.88 191.709 34.68 191.749 33.2H189.269C188.069 33.2 187.429 32.8 187.149 32.2C186.989 31.88 186.829 31.52 186.829 31.16C186.829 30.8 186.829 30.56 186.909 30.2C187.029 29.8 187.149 29.24 187.469 28.96C187.789 28.72 188.189 28.52 188.589 28.44C189.429 28.28 190.749 28.32 191.629 28.2C191.629 27.4 191.629 24.92 191.589 23.16L189.189 23.08C188.189 23.04 187.309 22.88 187.029 22.28C186.869 21.96 186.749 21.56 186.749 21.2C186.749 20.84 186.749 20.6 186.829 20.24C186.949 19.84 187.069 19.36 187.389 19.08C187.709 18.84 188.109 18.64 188.509 18.56C189.109 18.44 190.149 18.44 191.549 18.36C191.549 16.6 191.549 15.04 191.589 14.52ZM177.029 9.56C177.709 9.56 178.349 9.64 178.989 9.72C179.989 9.88 180.909 10.36 181.669 11.12C184.269 13.84 184.829 18.52 184.989 22.32C185.109 24.76 185.069 27.24 184.789 29.64C184.509 32.12 184.149 34.8 182.829 36.84C181.709 38.56 179.949 39.68 178.149 40.04C176.509 40.36 174.709 40.16 173.189 39.28C171.749 38.44 170.789 37.12 170.069 35.44C169.549 34.2 169.229 32.84 169.149 31.48C168.949 29.24 168.869 27 168.869 24.76C168.869 23.24 168.869 21.76 169.029 20.28C169.109 19.08 169.309 17.84 169.509 16.68C169.709 15.72 169.829 14.88 170.229 14C170.629 13.12 171.149 12.28 171.829 11.64C172.989 10.48 174.509 9.84 176.029 9.64C176.349 9.6 176.709 9.6 177.029 9.56ZM176.909 34.72C177.389 34.72 177.909 34.56 178.389 34.24C179.269 33.6 179.589 32.48 179.829 31.2C180.269 28.76 180.229 25.8 180.149 23.28C180.109 21.24 180.069 18.6 179.109 16.96C178.589 16.08 177.789 15.52 176.949 15.64C176.069 15.72 175.269 16.28 174.789 17.32L174.429 18.16C174.109 19.16 173.949 20.28 173.869 21.36C173.789 22.44 173.709 23.56 173.709 24.64C173.749 25.72 173.629 26.72 173.709 27.76C173.909 30.52 174.269 34.68 176.909 34.72ZM216.772 34.8C218.332 34.8 219.772 35.16 219.972 36.88C220.172 38.6 218.412 39.64 216.972 39.72C215.852 39.76 210.492 39.72 207.892 39.72H207.572C206.372 39.68 204.972 39.68 203.772 39.32C202.932 39.08 202.092 38.32 201.692 37.4C201.172 36.24 201.292 33.76 201.292 33.64V16.64C201.252 16.36 200.972 13.52 201.772 12.2C202.452 11.08 205.492 11.04 205.772 11.04H215.132C215.292 11.04 218.652 10.92 219.172 12.6C219.372 13.2 219.332 14.64 219.092 15.08C218.892 15.44 218.532 15.68 218.092 15.8C217.612 15.92 216.852 16 215.812 16C215.132 16 214.612 15.96 209.692 15.96C208.972 15.96 208.052 16 207.692 16.16C206.932 16.48 206.972 18.24 207.052 18.84V18.88L207.212 32.72C207.212 33.76 207.612 34.52 208.852 34.52C209.132 34.56 213.252 34.8 216.772 34.8ZM227.412 21.88L230.572 22.16C231.532 22.36 232.372 23 232.372 24.16C232.372 24.56 232.372 24.92 232.252 25.32C232.092 26.2 231.612 26.96 230.612 26.96L227.332 27C227.252 29.76 227.332 34 227.332 37.32C227.332 38.72 227.292 41.68 224.932 41.84C222.332 42 222.132 39.44 222.132 37.76V13.2C222.132 13.12 222.092 11.12 222.972 10.24C223.332 9.88 224.172 9.68 224.772 9.68C225.372 9.68 225.892 9.92 226.252 10.28C226.972 11.04 227.012 11.88 227.092 12.76C227.332 15.68 227.412 18.84 227.412 21.88ZM260.615 34.52C260.775 34.56 260.935 34.52 261.095 34.52C261.975 34.6 262.775 34.8 263.495 35.44C263.855 35.8 264.055 36.28 264.055 36.84C264.055 37.4 263.855 38.2 263.535 38.56C262.695 39.4 260.735 39.32 260.655 39.32H238.255C238.015 39.32 237.735 39.36 237.455 39.36C236.335 39.4 234.895 39.48 234.015 38.72C233.495 38.24 233.175 37.64 233.175 37C233.175 36.2 233.695 35.2 234.495 34.88C235.575 34.48 236.735 34.56 237.895 34.52H238.095C240.375 34.48 242.855 34.48 245.255 34.52L245.215 29C243.175 29.04 241.495 29.04 240.535 28.96C239.415 28.92 237.935 28.88 237.015 28.2C235.815 27.28 235.775 24.36 235.775 24.24V15.64C235.775 14.6 235.615 13.48 235.815 12.44C236.095 11.2 237.615 10.88 238.815 10.8C239.735 10.76 241.095 11 241.295 12.08C241.375 12.56 241.215 15.6 241.415 16.04C241.535 16.32 242.095 16.36 242.375 16.4C243.615 16.48 244.015 16.36 245.255 16.36L254.415 16.4C254.975 16.44 255.415 16.44 255.575 15.88C255.615 15.32 255.615 12.96 255.655 12.52C255.695 11.56 255.975 11 256.975 10.8C258.015 10.56 259.495 10.64 260.095 11.24C260.935 12.12 260.895 13.16 260.895 15.24C260.815 17.68 261.015 23.56 260.775 26C260.655 27.56 259.775 28.56 258.255 28.8C257.455 28.92 256.375 28.88 255.575 28.88C253.855 28.92 252.215 28.92 250.615 28.92L250.695 34.52C253.415 34.52 255.295 34.44 257.895 34.52C258.855 34.56 259.775 34.44 260.615 34.52ZM241.415 23.84C241.615 24.64 242.775 24.64 243.655 24.68C244.055 24.64 252.175 24.56 252.655 24.64C253.095 24.68 253.535 24.64 253.975 24.68C254.535 24.72 255.495 24.92 255.495 24.04C255.495 23.64 255.575 22 255.375 21.24C255.215 20.6 254.855 20.64 254.335 20.68C254.095 20.68 253.335 20.72 253.095 20.68H243.975C242.975 20.64 241.495 20.44 241.375 21.68C241.375 21.96 241.375 23.64 241.415 23.84ZM295.356 38.72C295.276 39.36 295.236 39.96 295.036 40.6C294.956 40.8 294.876 40.96 294.796 41.16C294.636 41.48 294.396 41.8 294.076 42.04C293.476 42.4 292.716 42.48 292.036 42.32C291.636 42.24 291.276 42.08 290.996 41.84C290.036 40.96 290.076 38.88 290.076 38.8V14.08C290.036 12.84 290.076 10.84 290.836 10.12C291.396 9.56 292.076 9.48 292.796 9.48C293.716 9.48 294.556 10.04 294.876 10.92C295.356 12.04 295.316 13.28 295.356 14.52V14.72C295.476 18.8 295.356 23.32 295.356 27.16V37.28C295.356 37.76 295.396 38.24 295.356 38.72ZM276.476 34.8C276.436 34.16 276.436 33.52 276.436 32.88V20.16C276.436 19.32 276.436 18.44 276.356 17.56C276.316 17.28 276.276 16.68 275.996 16.56C275.716 16.4 275.356 16.48 275.036 16.44C274.676 16.4 274.316 16.48 273.956 16.44H272.076C271.196 16.48 270.236 16.4 269.356 16.44C268.956 16.48 268.596 16.44 268.196 16.44C267.596 16.44 266.916 16.44 266.396 16.08C265.636 15.56 265.436 14.68 265.436 13.84C265.396 13.32 265.516 12.8 265.756 12.32C265.876 12.04 266.036 11.8 266.276 11.64C266.556 11.36 267.156 11.16 267.516 11.08C268.636 10.8 269.916 10.84 271.076 10.84H278.036C278.716 10.92 279.556 11 280.196 11.24C280.596 11.4 281.076 11.68 281.316 12.04C281.796 12.8 281.796 13.52 281.876 14.4C281.996 15.88 281.956 17.36 281.956 18.84V31.96C281.956 32.08 282.036 35.4 281.956 37.08C281.876 38.16 281.636 39.48 280.236 40C279.756 40.2 279.276 40.28 278.876 40.28C278.196 40.28 277.396 40 277.116 39.4C276.716 38.6 276.476 37.6 276.476 36.56V34.8Z" fill="#475783"/>
<circle cx="322" cy="24.5" r="17" fill="#ACB7D6"/>
<path d="M315.264 30.68L322.154 23.582C324.338 21.346 324.468 20.358 324.468 19.292V19.084C324.468 18.07 323.714 17.108 321.79 17.108C320.438 17.108 319.06 17.55 317.838 19.734L315.342 18.096C316.226 16.484 317.968 14.144 321.764 14.144C326.002 14.144 327.822 16.38 327.822 18.954V19.214C327.822 21.242 326.86 23.114 325.118 24.856L319.606 30.42H328.524V33.176H315.264V30.68Z" fill="white"/>
<path d="M376.76 22.44C369.04 22.44 363.16 21.72 363.16 15.84C363.16 10.48 369.04 9.24 376.76 9.24C384.48 9.24 390.36 9.88 390.36 15.84C390.36 21.72 384.48 22.44 376.76 22.44ZM376.76 13.72C372.84 13.72 368.6 13.8 368.6 15.84C368.6 17.64 371.72 18.12 376.76 18.04C380.68 18.04 384.92 18.2 384.92 15.84C384.92 13.8 380.68 13.72 376.76 13.72ZM364.28 24.56H387.76C389.6 24.56 391.76 24.4 391.76 26.84C391.76 27.44 391.48 27.88 390.96 28.36C390.12 29.08 388.8 29.04 387.72 29C387.48 28.96 387.24 28.96 387 28.96H364.2C363.48 28.96 361.8 28.72 361.8 26.96C361.8 25.4 363.08 24.56 364.28 24.56ZM364.52 41.56C364.48 41.56 364.44 41.52 364.4 41.48C363.88 41.08 363.72 40.2 363.72 39.6C363.68 38.64 363.56 37.68 363.56 36.76C363.56 35.4 363.52 34.36 363.76 33.04C363.92 32.2 364.24 31.72 365.04 31.4C365.76 31.12 366.52 30.96 367.28 30.96H385.72C386.72 31 387.84 31.04 388.8 31.48C389.84 31.92 390.12 32.72 390.2 33.76C390.28 35.6 390.36 38.56 389.84 40.48C389.68 41.08 389.56 41.56 388.92 41.76C388.36 41.96 387.68 42 387.12 42L366.68 41.92C366 41.88 365.12 41.96 364.52 41.56ZM368.32 37C368.32 37.24 368.32 37.56 368.48 37.68C368.68 37.88 369.6 37.76 369.6 37.76H381.72C381.72 37.76 383.6 37.92 384.6 37.8C385.12 37.76 385.16 37.48 385.2 37C385.24 36.56 385.32 35.92 385 35.52C384.64 35.08 383.84 35.16 383.32 35.2H372.6C371.44 35.12 370.32 35.16 369.16 35.2C368.72 35.2 368.52 35.12 368.4 35.6C368.32 35.96 368.32 36.32 368.32 36.64C368.36 36.72 368.32 36.84 368.32 37ZM397.562 30.4H416.603C417.483 30.36 418.083 30.4 418.563 30.6C418.923 30.8 419.403 30.96 419.643 31.28C419.883 31.56 420.083 31.8 420.123 32.12C420.203 32.4 420.323 32.72 420.323 33.12V38.64C420.323 41.56 419.723 42.04 418.803 42.4C417.523 42.84 415.883 42.76 415.243 41.4C414.923 40.6 415.043 38.28 415.043 36.64C415.043 35.56 414.083 35.4 413.122 35.4H407.603C405.003 35.4 402.443 35.48 399.803 35.4C398.363 35.4 396.723 35.52 395.283 35.12C394.083 34.68 393.563 33.36 393.882 32.16C394.483 30.4 395.883 30.4 397.562 30.4ZM393.882 26.76C393.563 26.56 393.363 26.24 393.203 25.88C392.963 25.28 392.963 24.76 393.043 24.24C393.203 23.64 393.403 23.16 393.723 22.64C394.083 22.28 394.443 21.72 394.803 21.32C395.283 20.88 395.603 20.56 395.883 20.16L397.283 18.52C397.683 17.88 398.163 17.32 398.643 16.72C398.803 16.48 399.003 16.32 399.163 16.04C399.403 15.76 399.563 15.52 399.843 15.28C400.043 14.96 400.163 14.76 400.363 14.48C400.403 14.24 400.483 13.92 400.483 13.68C400.603 13.16 400.603 12.72 400.603 12.32C400.643 11.88 400.723 11.48 400.883 11.04C401.003 10.68 401.203 10.44 401.483 10.2C401.843 10.04 402.283 9.84 402.883 9.84C403.283 9.84 403.723 9.92 404.083 10.04C404.563 10.16 404.763 10.4 405.003 10.8C405.163 11.32 405.243 11.84 405.163 12.44C405.083 12.96 405.163 13.52 405.323 14.12C405.443 14.48 405.723 14.92 406.003 15.2C407.523 16.8 408.803 18.76 410.163 20.56C410.523 21.12 410.923 21.72 411.363 22.32C411.683 22.92 412.003 23.6 412.123 24.24C412.243 24.8 412.163 25.4 411.923 25.76C411.683 26.24 411.363 26.48 410.923 26.68C410.523 26.8 410.083 26.92 409.563 26.8C409.083 26.76 408.603 26.56 408.243 26.24C407.163 25.2 406.283 24.12 405.523 23L403.003 19.76C402.523 20.28 402.123 20.64 401.683 21.08C401.363 21.44 400.963 21.92 400.483 22.32C400.083 22.84 399.643 23.24 399.323 23.64C398.923 24.12 398.643 24.52 398.363 24.8C398.043 25.08 397.842 25.4 397.803 25.44C397.562 25.76 397.163 26 396.843 26.32C396.523 26.56 396.123 26.76 395.643 26.8C395.443 26.92 395.043 26.92 394.803 26.92C394.483 26.92 394.203 26.8 393.882 26.76ZM420.963 25.2C420.843 26.44 420.123 27.76 418.643 27.76C416.363 27.76 416.203 25.52 416.163 23.64V13.8C416.163 12.68 416.043 11.4 416.683 10.32C417.283 9.36 418.683 9.24 419.643 9.6C420.963 10.32 420.963 11.96 420.963 13.16C421.083 17.2 420.963 21.12 420.963 25.2ZM427.441 26.72C426.361 25.96 425.601 24.84 425.161 23.52C424.641 22.16 424.481 20.88 424.481 19.56C424.481 18.16 424.721 17 425.161 15.84C425.681 14.72 426.281 13.72 427.121 12.96C427.961 12.08 428.881 11.44 430.081 11C431.161 10.48 432.441 10.24 433.801 10.24C434.321 10.16 434.721 10.16 435.201 10.24C435.641 10.24 436.161 10.32 436.601 10.4C436.801 10.48 437.081 10.48 437.321 10.56C437.601 10.56 437.841 10.68 438.001 10.76C438.601 10.92 439.081 11.08 439.601 11.36C440.121 11.6 440.561 11.84 440.961 12.08C441.281 12.24 441.721 12.6 442.081 12.96C442.601 13.48 442.921 13.88 443.241 14.44C443.561 14.96 443.841 15.56 443.921 16.24C444.081 16.84 444.161 17.44 444.281 18.04C444.361 18.6 444.441 19.2 444.361 19.88C444.361 20.2 444.281 20.64 444.281 20.96C444.161 21.4 444.161 21.84 444.001 22.16C443.841 23.16 443.481 24.2 443.001 25.04C442.401 25.96 441.721 26.6 440.801 27.24C440.121 27.64 439.441 28 438.681 28.16C438.001 28.36 437.241 28.48 436.521 28.64C436.241 28.72 436.001 28.72 435.721 28.72C435.561 28.72 435.281 28.72 435.041 28.8H434.321C434.121 28.8 433.881 28.8 433.601 28.72C433.281 28.72 432.921 28.72 432.601 28.64C432.201 28.64 431.841 28.56 431.481 28.56C430.721 28.44 430.081 28.24 429.401 27.92C428.681 27.56 428.041 27.24 427.441 26.72ZM453.241 14.76V17.36C453.321 18.4 453.321 19.56 453.321 20.76V27.24C453.321 28.44 453.321 29.52 453.241 30.52V35.08C453.161 35.92 453.241 36.8 453.241 37.52C453.241 38.04 453.241 38.56 453.161 38.96C453.161 39.4 453.081 39.72 452.881 40C452.801 40.24 452.641 40.4 452.561 40.68C452.361 40.84 452.201 41.08 451.761 41.24C451.281 41.6 450.601 41.68 449.921 41.6C449.481 41.48 449.161 41.32 448.921 41.08C448.681 40.92 448.481 40.6 448.321 40.24C448.161 39.88 448.041 39.56 448.041 39.2C447.961 38.96 447.881 38.64 447.881 38.48V38.04L447.801 14.32C447.801 13.64 447.801 12.96 447.961 12.12C448.041 11.36 448.321 10.76 448.681 10.36C449.001 10.12 449.321 9.92 449.561 9.84C449.921 9.76 450.241 9.76 450.681 9.76C451.121 9.76 451.521 9.84 451.961 10.12C452.281 10.36 452.561 10.72 452.721 11.12C452.961 11.72 453.161 12.32 453.161 12.88C453.161 13.48 453.161 14.16 453.241 14.76ZM444.441 33.2C444.801 33.32 445.121 33.48 445.361 33.64C445.881 34.16 446.201 34.68 446.201 35.32C446.201 35.76 446.041 36.2 445.761 36.52C445.521 36.84 445.241 37.08 444.881 37.2C444.601 37.28 444.361 37.36 444.081 37.36C443.761 37.44 443.481 37.44 443.241 37.44H439.441C438.521 37.44 437.601 37.44 436.601 37.52H433.801C432.841 37.44 432.121 37.44 431.401 37.44H427.201C426.681 37.44 426.201 37.36 425.681 37.28C425.401 37.2 425.161 37.08 424.921 37C424.641 36.92 424.481 36.84 424.241 36.64C423.921 36.28 423.721 35.84 423.721 35.16C423.721 34.6 423.921 34.16 424.241 33.8C424.401 33.56 424.641 33.4 425.001 33.32C425.321 33.2 425.681 33.12 425.921 33.04C426.281 32.96 426.481 32.96 426.681 32.96H441.801C442.321 32.96 442.841 32.96 443.241 33.04C443.681 33.04 444.001 33.12 444.441 33.2ZM429.801 18.84C429.721 19.36 429.721 19.88 429.801 20.44C429.921 21.04 430.081 21.56 430.321 22C430.881 22.84 431.681 23.44 432.681 23.84C433.441 24.12 434.201 24.2 434.961 24.2C435.401 24.12 435.721 24.12 436.161 24.04C436.521 24.04 436.881 23.84 437.241 23.68C437.761 23.44 438.201 23 438.521 22.48C438.881 21.92 439.001 21.4 439.161 20.8C439.361 19.88 439.281 19.12 439.001 18.24C438.881 17.88 438.681 17.52 438.521 17.24C438.361 17.08 438.281 16.84 438.081 16.76C438.001 16.56 437.841 16.4 437.601 16.24C437.401 16.12 437.161 16 436.961 15.92C436.761 15.76 436.521 15.68 436.241 15.56C435.561 15.4 434.881 15.32 434.121 15.32C433.441 15.32 432.761 15.4 432.201 15.68C431.601 15.92 431.081 16.24 430.641 16.84C430.241 17.36 430.001 18.04 429.801 18.84ZM490.604 17.88C491.604 18.32 492.604 19 493.444 19.68C494.324 20.44 494.044 22.2 492.724 22.44C491.044 22.8 489.044 22.28 487.524 21.6C486.084 20.96 484.884 20.4 483.684 19.72C482.964 19.32 480.924 18.28 480.924 18.28C480.924 18.28 478.484 19.36 477.644 19.76C476.244 20.48 475.204 20.92 473.804 21.56C472.764 22 471.644 22.72 470.444 22.64C469.484 22.6 468.404 22.2 468.204 21.16C468.164 20.88 468.204 20.56 468.284 20.24C468.484 19.48 469.044 19 469.764 18.56L472.524 17.2C473.444 16.72 474.004 16.48 474.964 16.04C475.844 15.56 477.204 14.88 478.244 14.52V13.28H474.004C473.164 13.28 472.644 13.32 471.844 13.24C471.244 13.16 470.484 13.24 469.924 12.96C469.604 12.8 469.364 12.52 469.204 12.2C468.884 11.68 468.804 10.92 469.084 10.36C469.484 9.52 470.604 9.08 471.604 9.08H472.524C473.364 9.12 473.564 9.08 474.404 9.08H488.244C490.004 9.08 493.004 8.64 493.564 10.92C494.204 13.52 489.884 13.44 488.204 13.36C486.564 13.28 484.084 13.36 484.084 13.36V14.6C484.404 14.76 484.764 14.96 485.124 15.08C485.444 15.24 485.724 15.4 486.044 15.56C486.564 15.84 487.084 16.04 487.604 16.32C488.604 16.8 489.604 17.36 490.604 17.88ZM492.764 24.56C493.644 24.6 494.644 24.76 495.404 25.36C495.764 25.64 495.964 26.12 495.964 26.6C495.964 27.12 495.764 27.8 495.444 28.08C494.604 28.88 492.524 28.8 492.444 28.8L471.124 28.84C469.924 28.88 468.444 28.96 467.564 28.24C466.964 27.8 466.644 27.36 466.644 26.76C466.644 26.04 467.204 25.12 468.044 24.84C469.164 24.48 470.364 24.6 471.564 24.56C474.164 24.48 475.004 24.56 477.684 24.56V22.24C477.684 20.64 479.364 20.12 480.964 20.28C482.404 20.44 483.204 20.84 483.244 21.88C483.324 22.64 483.364 23.64 483.364 24.56C486.324 24.56 490.484 24.44 492.764 24.56ZM467.924 36.36C467.924 31.84 473.804 31.16 481.004 31.16C488.244 31.16 494.124 31.32 494.124 36.36C494.124 41.32 488.244 41.56 481.004 41.56C473.804 41.56 467.924 41.32 467.924 36.36ZM488.844 36.36C488.844 34.64 484.684 34.72 481.004 34.72C477.364 34.72 473.444 34.64 473.444 36.36C473.444 37.88 477.364 38 481.004 38C484.684 38 488.844 38.36 488.844 36.36ZM512.381 10.24H520.461C521.381 10.24 522.301 10.24 523.141 10.52C524.421 10.88 524.661 12.4 524.661 13.56V17.2C524.661 18 524.381 20.32 523.541 20.88C522.821 21.32 522.101 21.32 521.461 21.28H504.861V22.96H521.501C521.981 22.96 522.421 22.96 522.861 23C523.661 23.04 524.381 23.4 524.661 24.32C524.941 25.4 524.581 26.44 523.621 26.88C522.981 27.16 522.261 27.2 521.701 27.2H505.501C504.421 27.2 503.261 27.2 502.101 27.16C500.981 27.08 500.181 25.88 500.061 24.52C499.981 23.52 499.941 21.32 499.941 20.48V19.52C499.901 18.88 499.901 18.12 500.381 17.52C501.061 16.6 502.501 16.48 503.661 16.48C503.941 16.48 504.701 16.56 505.061 16.52H520.061V14.8H504.661C504.381 14.8 504.061 14.84 503.781 14.84C503.461 14.84 503.101 14.88 502.781 14.88C502.261 14.88 501.821 14.84 501.421 14.72C500.941 14.6 500.581 14.28 500.301 13.8C499.941 13.16 499.861 12.56 500.021 11.84C500.301 10.88 501.501 10.44 502.101 10.32C502.501 10.24 502.901 10.24 503.381 10.24H504.781C506.461 10.28 510.061 10.28 512.381 10.24ZM523.141 30.04C524.821 29.96 527.141 30.2 527.141 32.4C527.141 35.04 522.981 34.84 521.221 34.88C520.981 34.88 520.741 34.92 520.501 34.92C520.541 36.4 520.621 37.68 520.461 38.96C520.301 39.96 519.981 40.96 519.101 41.56C518.301 42.08 517.101 42.08 516.261 41.6C515.581 41.2 515.261 40.28 515.101 39.52C515.021 38.96 515.101 38.2 515.061 37.6V34.92L509.781 34.88C509.821 36.52 509.941 37.52 509.741 38.92C509.581 39.92 509.261 40.92 508.381 41.52C507.581 42.04 506.381 42.04 505.541 41.56C504.861 41.16 504.541 40.24 504.381 39.48C504.301 38.92 504.381 38.16 504.341 37.56V34.88L501.101 34.92C499.861 34.92 498.661 34.68 498.021 33.64C497.421 32.76 497.421 31.64 498.181 30.84C498.981 30 500.981 30.08 501.061 30.08L523.141 30.04Z" fill="#475783"/>
</svg>
