<svg width="40" height="40" viewBox="0 0 40 40" fill="none" xmlns="http://www.w3.org/2000/svg">
<circle cx="20" cy="20" r="20" fill="#82AB8D"/>
<path d="M13.6797 26.6797C10.0637 26.6797 8.37109 24.2091 8.37109 19.84V17.0313C8.37109 12.6622 10.0637 10.1915 13.6797 10.1915C16.193 10.1915 17.783 11.3878 18.5011 13.5984H21.1169V8.86522H24.1687V31.3868H21.1169V23.3248H18.5011C17.7573 25.5094 16.1673 26.6797 13.6797 26.6797ZM28.8362 8.37109V32.5571H25.7588V8.37109H28.8362ZM13.6797 13.0523C11.9102 13.0523 11.346 14.5606 11.346 17.3953V19.4759C11.346 22.3106 11.9102 23.819 13.6797 23.819C15.4493 23.819 16.0135 22.3106 16.0135 19.4759V17.3953C16.0135 14.5606 15.4493 13.0523 13.6797 13.0523ZM18.9883 19.84C18.9883 20.1 18.9883 20.3601 18.9627 20.5941H21.1169V16.3291H18.9627C18.9883 16.5631 18.9883 16.7972 18.9883 17.0313V19.84Z" fill="white"/>
</svg>
