<svg width="30" height="30" viewBox="0 0 30 30" fill="none" xmlns="http://www.w3.org/2000/svg">
<path fill-rule="evenodd" clip-rule="evenodd" d="M11.3679 7.29057L22.029 13.3197C22.3233 13.4862 22.5685 13.7299 22.7392 14.0253C22.91 14.3207 23 14.6572 23 15C23 15.3428 22.91 15.6793 22.7392 15.9747C22.5685 16.2701 22.3233 16.5138 22.029 16.6803L11.3679 22.7094C11.0227 22.9047 10.6334 23.0048 10.2385 22.9998C9.84357 22.9948 9.45679 22.8849 9.11648 22.6809C8.77616 22.4769 8.49411 22.186 8.29828 21.8369C8.10245 21.4878 7.99963 21.0927 8 20.6908V9.30925C7.99963 8.90727 8.10245 8.51218 8.29828 8.1631C8.49411 7.81402 8.77616 7.52308 9.11648 7.3191C9.45679 7.11512 9.84357 7.00518 10.2385 7.00018C10.6334 6.99517 11.0227 7.09528 11.3679 7.29057Z" fill="#5C5C5C"/>
</svg>
