<svg width="179" height="144" viewBox="0 0 179 144" fill="none" xmlns="http://www.w3.org/2000/svg">
<rect x="0.5" y="0.5" width="177.571" height="143" rx="7.85714" fill="white"/>
<path d="M73.5133 124.639C73.8213 124.293 74.2226 124.009 74.7173 123.785C75.2213 123.561 75.7066 123.449 76.1733 123.449C76.864 123.449 77.48 123.593 78.0213 123.883C78.572 124.172 78.9966 124.578 79.2953 125.101C79.6033 125.614 79.7573 126.202 79.7573 126.865C79.7573 127.537 79.6033 128.134 79.2953 128.657C78.9966 129.179 78.572 129.59 78.0213 129.889C77.48 130.178 76.864 130.323 76.1733 130.323C75.632 130.323 75.1186 130.211 74.6333 129.987C74.1573 129.753 73.7513 129.436 73.4153 129.035C73.0793 128.624 72.8506 128.162 72.7293 127.649L74.1713 127.313C74.274 127.779 74.512 128.167 74.8853 128.475C75.2586 128.773 75.688 128.923 76.1733 128.923C76.5746 128.923 76.934 128.834 77.2513 128.657C77.578 128.479 77.83 128.237 78.0073 127.929C78.1846 127.611 78.2733 127.257 78.2733 126.865C78.2733 126.473 78.1846 126.127 78.0073 125.829C77.83 125.521 77.578 125.283 77.2513 125.115C76.934 124.937 76.5746 124.849 76.1733 124.849C75.912 124.849 75.6366 124.923 75.3473 125.073C75.058 125.213 74.8106 125.395 74.6053 125.619L73.5133 124.639ZM73.1213 125.437L73.4713 119.991H78.9173V121.293H74.8993L74.6053 125.619L73.1213 125.437Z" fill="#231815"/>
<path d="M89.0293 124.641H96.0293" stroke="#B5B5B6" stroke-width="1.4" stroke-linecap="round"/>
<path d="M94.138 126.641L96.0293 124.545L94.0293 122.641" stroke="#B5B5B6" stroke-width="1.4" stroke-linecap="round" stroke-linejoin="round"/>
<path d="M105.513 124.639C105.821 124.293 106.223 124.009 106.717 123.785C107.221 123.561 107.707 123.449 108.173 123.449C108.864 123.449 109.48 123.593 110.021 123.883C110.572 124.172 110.997 124.578 111.295 125.101C111.603 125.614 111.757 126.202 111.757 126.865C111.757 127.537 111.603 128.134 111.295 128.657C110.997 129.179 110.572 129.59 110.021 129.889C109.48 130.178 108.864 130.323 108.173 130.323C107.632 130.323 107.119 130.211 106.633 129.987C106.157 129.753 105.751 129.436 105.415 129.035C105.079 128.624 104.851 128.162 104.729 127.649L106.171 127.313C106.274 127.779 106.512 128.167 106.885 128.475C107.259 128.773 107.688 128.923 108.173 128.923C108.575 128.923 108.934 128.834 109.251 128.657C109.578 128.479 109.83 128.237 110.007 127.929C110.185 127.611 110.273 127.257 110.273 126.865C110.273 126.473 110.185 126.127 110.007 125.829C109.83 125.521 109.578 125.283 109.251 125.115C108.934 124.937 108.575 124.849 108.173 124.849C107.912 124.849 107.637 124.923 107.347 125.073C107.058 125.213 106.811 125.395 106.605 125.619L105.513 124.639ZM105.121 125.437L105.471 119.991H110.917V121.293H106.899L106.605 125.619L105.121 125.437Z" fill="#231815"/>
<path d="M167.105 42.3928H24.7188" stroke="#D3D3D4" stroke-width="1.12648" stroke-linecap="round"/>
<path d="M167.105 65.3741H24.7188" stroke="#D3D3D4" stroke-width="1.12648" stroke-linecap="round"/>
<path d="M167.105 88.3546H24.7188" stroke="#D3D3D4" stroke-width="1.12648" stroke-linecap="round"/>
<path d="M12.8805 19.3574C13.1885 19.0121 13.5898 18.7274 14.0845 18.5034C14.5885 18.2794 15.0738 18.1674 15.5405 18.1674C16.2312 18.1674 16.8472 18.3121 17.3885 18.6014C17.9392 18.8908 18.3638 19.2968 18.6625 19.8194C18.9705 20.3328 19.1245 20.9208 19.1245 21.5834C19.1245 22.2554 18.9705 22.8528 18.6625 23.3754C18.3638 23.8981 17.9392 24.3088 17.3885 24.6074C16.8472 24.8968 16.2312 25.0414 15.5405 25.0414C14.9992 25.0414 14.4858 24.9294 14.0005 24.7054C13.5245 24.4721 13.1185 24.1548 12.7825 23.7534C12.4465 23.3428 12.2178 22.8808 12.0965 22.3674L13.5385 22.0314C13.6412 22.4981 13.8792 22.8854 14.2525 23.1934C14.6258 23.4921 15.0552 23.6414 15.5405 23.6414C15.9418 23.6414 16.3012 23.5528 16.6185 23.3754C16.9452 23.1981 17.1972 22.9554 17.3745 22.6474C17.5518 22.3301 17.6405 21.9754 17.6405 21.5834C17.6405 21.1914 17.5518 20.8461 17.3745 20.5474C17.1972 20.2394 16.9452 20.0014 16.6185 19.8334C16.3012 19.6561 15.9418 19.5674 15.5405 19.5674C15.2792 19.5674 15.0038 19.6421 14.7145 19.7914C14.4252 19.9314 14.1778 20.1134 13.9725 20.3374L12.8805 19.3574ZM12.4885 20.1554L12.8385 14.7094H18.2845V16.0114H14.2665L13.9725 20.3374L12.4885 20.1554Z" fill="#231815"/>
<path d="M17.9654 42.251H19.2534V43.539H17.9654V46.171H16.4814V43.539H12.0994L11.9594 42.251L16.5514 35.979H17.9654V42.251ZM16.4814 42.251V38.457L13.7234 42.251H16.4814Z" fill="#231815"/>
<path d="M17.5757 62.1969C18.0237 62.4582 18.383 62.8129 18.6537 63.2609C18.9243 63.6996 19.0597 64.1382 19.0597 64.5769C19.0597 65.1462 18.9103 65.6596 18.6117 66.1169C18.3223 66.5649 17.9163 66.9149 17.3937 67.1669C16.871 67.4189 16.2737 67.5449 15.6017 67.5449C14.939 67.5449 14.3463 67.4142 13.8237 67.1529C13.301 66.8916 12.8903 66.5322 12.5917 66.0749C12.3023 65.6082 12.1577 65.0809 12.1577 64.4929H13.6417C13.6417 64.8289 13.7257 65.1276 13.8937 65.3889C14.0617 65.6502 14.2903 65.8556 14.5797 66.0049C14.8783 66.1542 15.219 66.2289 15.6017 66.2289C15.9937 66.2289 16.339 66.1542 16.6377 66.0049C16.9457 65.8556 17.1837 65.6502 17.3517 65.3889C17.529 65.1276 17.6177 64.8289 17.6177 64.4929C17.6177 64.1662 17.5337 63.8769 17.3657 63.6249C17.1977 63.3729 16.9597 63.1769 16.6517 63.0369C16.353 62.8876 16.0123 62.8129 15.6297 62.8129H14.9017V61.5669H15.6437C15.9983 61.5669 16.311 61.5016 16.5817 61.3709C16.8617 61.2402 17.0763 61.0629 17.2257 60.8389C17.3843 60.6056 17.4637 60.3396 17.4637 60.0409C17.4637 59.5836 17.3003 59.2149 16.9737 58.9349C16.647 58.6456 16.2223 58.5009 15.6997 58.5009C15.3543 58.5009 15.051 58.5662 14.7897 58.6969C14.5283 58.8276 14.323 59.0142 14.1737 59.2569C14.0243 59.4902 13.9497 59.7562 13.9497 60.0549H12.4657C12.4657 59.4949 12.601 59.0002 12.8717 58.5709C13.1517 58.1322 13.5343 57.7916 14.0197 57.5489C14.5143 57.3062 15.0743 57.1849 15.6997 57.1849C16.3157 57.1849 16.8663 57.3062 17.3517 57.5489C17.837 57.7822 18.215 58.1089 18.4857 58.5289C18.7657 58.9489 18.9057 59.4249 18.9057 59.9569C18.9057 60.3582 18.7843 60.7689 18.5417 61.1889C18.299 61.5996 17.977 61.9356 17.5757 62.1969Z" fill="#231815"/>
<path d="M13.4702 87.4481C13.6942 87.2334 13.9276 87.0187 14.1702 86.8041C14.4129 86.5801 14.6556 86.3607 14.8982 86.1461C15.6542 85.4741 16.2562 84.9187 16.7042 84.4801C17.1522 84.0321 17.5302 83.5747 17.8382 83.1081C18.1462 82.6414 18.3002 82.1981 18.3002 81.7781C18.3002 81.3954 18.2256 81.0594 18.0762 80.7701C17.9269 80.4714 17.7169 80.2381 17.4462 80.0701C17.1849 79.9021 16.8816 79.8181 16.5362 79.8181C16.1349 79.8181 15.7522 79.9487 15.3882 80.2101C15.0336 80.4714 14.7629 80.8074 14.5762 81.2181L13.2742 80.6441C13.5542 80.0001 13.9976 79.4774 14.6042 79.0761C15.2202 78.6654 15.8642 78.4601 16.5362 78.4601C17.1709 78.4601 17.7309 78.6001 18.2162 78.8801C18.7109 79.1601 19.0936 79.5521 19.3642 80.0561C19.6442 80.5601 19.7842 81.1341 19.7842 81.7781C19.7842 82.4127 19.5976 83.0381 19.2242 83.6541C18.8509 84.2701 18.4029 84.8394 17.8802 85.3621C17.3576 85.8847 16.6762 86.5054 15.8362 87.2241C15.3042 87.6721 14.8422 88.0827 14.4502 88.4561L13.4702 87.4481ZM13.4702 87.4481H19.9522V88.7501H13.6102L13.4702 87.4481Z" fill="#231815"/>
<path d="M17.6616 110.039L16.1776 110.025V101.443L14.3856 102.437L13.7696 101.191L16.1916 99.8611H17.6616V110.039Z" fill="#231815"/>
<path d="M24.2441 19.7521H153.518" stroke="#81CDE4" stroke-width="3.37943"/>
<path d="M167.465 19.7522L147.256 12.4075C147.256 12.4075 153.497 19.7522 147.256 27.1194L167.465 19.7747V19.7522Z" fill="#81CDE4"/>
<path d="M24.7188 19.416V111.337H167.105" stroke="#B08A4B" stroke-width="1.80236" stroke-linecap="round"/>
</svg>
