<svg width="178" height="144" viewBox="0 0 178 144" fill="none" xmlns="http://www.w3.org/2000/svg">
<rect y="0.5" width="177.571" height="143" rx="7.85714" fill="white"/>
<path d="M78.484 124.533C78.792 124.188 79.1933 123.903 79.688 123.679C80.192 123.455 80.6773 123.343 81.144 123.343C81.8347 123.343 82.4507 123.488 82.992 123.777C83.5427 124.066 83.9673 124.472 84.266 124.995C84.574 125.508 84.728 126.096 84.728 126.759C84.728 127.431 84.574 128.028 84.266 128.551C83.9673 129.074 83.5427 129.484 82.992 129.783C82.4507 130.072 81.8347 130.217 81.144 130.217C80.6027 130.217 80.0893 130.105 79.604 129.881C79.128 129.648 78.722 129.33 78.386 128.929C78.05 128.518 77.8213 128.056 77.7 127.543L79.142 127.207C79.2447 127.674 79.4827 128.061 79.856 128.369C80.2293 128.668 80.6587 128.817 81.144 128.817C81.5453 128.817 81.9047 128.728 82.222 128.551C82.5487 128.374 82.8007 128.131 82.978 127.823C83.1553 127.506 83.244 127.151 83.244 126.759C83.244 126.367 83.1553 126.022 82.978 125.723C82.8007 125.415 82.5487 125.177 82.222 125.009C81.9047 124.832 81.5453 124.743 81.144 124.743C80.8827 124.743 80.6073 124.818 80.318 124.967C80.0287 125.107 79.7813 125.289 79.576 125.513L78.484 124.533ZM78.092 125.331L78.442 119.885H83.888V121.187H79.87L79.576 125.513L78.092 125.331Z" fill="#231815"/>
<path d="M94 124.535H101" stroke="#B5B5B6" stroke-width="1.4" stroke-linecap="round"/>
<path d="M99.1087 126.535L101 124.439L99 122.535" stroke="#B5B5B6" stroke-width="1.4" stroke-linecap="round" stroke-linejoin="round"/>
<path d="M113.48 130.077L111.996 130.063V121.481L110.204 122.475L109.588 121.229L112.01 119.899H113.48V130.077Z" fill="#231815"/>
<path d="M166.734 42.4983H24.3477" stroke="#D3D3D4" stroke-width="1.12648" stroke-linecap="round"/>
<path d="M166.835 19.8843H24.4492" stroke="#D3D3D4" stroke-width="1.12648" stroke-linecap="round"/>
<path d="M166.734 65.4795H24.3477" stroke="#D3D3D4" stroke-width="1.12648" stroke-linecap="round"/>
<path d="M166.734 88.46H24.3477" stroke="#D3D3D4" stroke-width="1.12648" stroke-linecap="round"/>
<path d="M12.5094 19.4628C12.8174 19.1175 13.2187 18.8328 13.7134 18.6088C14.2174 18.3848 14.7027 18.2728 15.1694 18.2728C15.8601 18.2728 16.4761 18.4175 17.0174 18.7068C17.5681 18.9962 17.9927 19.4022 18.2914 19.9248C18.5994 20.4382 18.7534 21.0262 18.7534 21.6888C18.7534 22.3608 18.5994 22.9582 18.2914 23.4808C17.9927 24.0035 17.5681 24.4142 17.0174 24.7128C16.4761 25.0022 15.8601 25.1468 15.1694 25.1468C14.6281 25.1468 14.1147 25.0348 13.6294 24.8108C13.1534 24.5775 12.7474 24.2602 12.4114 23.8588C12.0754 23.4482 11.8467 22.9862 11.7254 22.4728L13.1674 22.1368C13.2701 22.6035 13.5081 22.9908 13.8814 23.2988C14.2547 23.5975 14.6841 23.7468 15.1694 23.7468C15.5707 23.7468 15.9301 23.6582 16.2474 23.4808C16.5741 23.3035 16.8261 23.0608 17.0034 22.7528C17.1807 22.4355 17.2694 22.0808 17.2694 21.6888C17.2694 21.2968 17.1807 20.9515 17.0034 20.6528C16.8261 20.3448 16.5741 20.1068 16.2474 19.9388C15.9301 19.7615 15.5707 19.6728 15.1694 19.6728C14.9081 19.6728 14.6327 19.7475 14.3434 19.8968C14.0541 20.0368 13.8067 20.2188 13.6014 20.4428L12.5094 19.4628ZM12.1174 20.2608L12.4674 14.8148H17.9134V16.1168H13.8954L13.6014 20.4428L12.1174 20.2608Z" fill="#231815"/>
<path d="M17.5943 42.3564H18.8823V43.6444H17.5943V46.2764H16.1103V43.6444H11.7283L11.5883 42.3564L16.1803 36.0844H17.5943V42.3564ZM16.1103 42.3564V38.5624L13.3523 42.3564H16.1103Z" fill="#231815"/>
<path d="M17.2046 62.3024C17.6526 62.5637 18.0119 62.9184 18.2826 63.3664C18.5533 63.8051 18.6886 64.2437 18.6886 64.6824C18.6886 65.2517 18.5393 65.7651 18.2406 66.2224C17.9513 66.6704 17.5453 67.0204 17.0226 67.2724C16.4999 67.5244 15.9026 67.6504 15.2306 67.6504C14.5679 67.6504 13.9753 67.5197 13.4526 67.2584C12.9299 66.9971 12.5193 66.6377 12.2206 66.1804C11.9313 65.7137 11.7866 65.1864 11.7866 64.5984H13.2706C13.2706 64.9344 13.3546 65.2331 13.5226 65.4944C13.6906 65.7557 13.9193 65.9611 14.2086 66.1104C14.5073 66.2597 14.8479 66.3344 15.2306 66.3344C15.6226 66.3344 15.9679 66.2597 16.2666 66.1104C16.5746 65.9611 16.8126 65.7557 16.9806 65.4944C17.1579 65.2331 17.2466 64.9344 17.2466 64.5984C17.2466 64.2717 17.1626 63.9824 16.9946 63.7304C16.8266 63.4784 16.5886 63.2824 16.2806 63.1424C15.9819 62.9931 15.6413 62.9184 15.2586 62.9184H14.5306V61.6724H15.2726C15.6273 61.6724 15.9399 61.6071 16.2106 61.4764C16.4906 61.3457 16.7053 61.1684 16.8546 60.9444C17.0133 60.7111 17.0926 60.4451 17.0926 60.1464C17.0926 59.6891 16.9293 59.3204 16.6026 59.0404C16.2759 58.7511 15.8513 58.6064 15.3286 58.6064C14.9833 58.6064 14.6799 58.6717 14.4186 58.8024C14.1573 58.9331 13.9519 59.1197 13.8026 59.3624C13.6533 59.5957 13.5786 59.8617 13.5786 60.1604H12.0946C12.0946 59.6004 12.2299 59.1057 12.5006 58.6764C12.7806 58.2377 13.1633 57.8971 13.6486 57.6544C14.1433 57.4117 14.7033 57.2904 15.3286 57.2904C15.9446 57.2904 16.4953 57.4117 16.9806 57.6544C17.4659 57.8877 17.8439 58.2144 18.1146 58.6344C18.3946 59.0544 18.5346 59.5304 18.5346 60.0624C18.5346 60.4637 18.4133 60.8744 18.1706 61.2944C17.9279 61.7051 17.6059 62.0411 17.2046 62.3024Z" fill="#231815"/>
<path d="M13.0991 87.5535C13.3231 87.3388 13.5565 87.1241 13.7991 86.9095C14.0418 86.6855 14.2845 86.4661 14.5271 86.2515C15.2831 85.5795 15.8851 85.0241 16.3331 84.5855C16.7811 84.1375 17.1591 83.6801 17.4671 83.2135C17.7751 82.7468 17.9291 82.3035 17.9291 81.8835C17.9291 81.5008 17.8545 81.1648 17.7051 80.8755C17.5558 80.5768 17.3458 80.3435 17.0751 80.1755C16.8138 80.0075 16.5105 79.9235 16.1651 79.9235C15.7638 79.9235 15.3811 80.0541 15.0171 80.3155C14.6625 80.5768 14.3918 80.9128 14.2051 81.3235L12.9031 80.7495C13.1831 80.1055 13.6265 79.5828 14.2331 79.1815C14.8491 78.7708 15.4931 78.5655 16.1651 78.5655C16.7998 78.5655 17.3598 78.7055 17.8451 78.9855C18.3398 79.2655 18.7225 79.6575 18.9931 80.1615C19.2731 80.6655 19.4131 81.2395 19.4131 81.8835C19.4131 82.5181 19.2265 83.1435 18.8531 83.7595C18.4798 84.3755 18.0318 84.9448 17.5091 85.4675C16.9865 85.9901 16.3051 86.6108 15.4651 87.3295C14.9331 87.7775 14.4711 88.1881 14.0791 88.5615L13.0991 87.5535ZM13.0991 87.5535H19.5811V88.8555H13.2391L13.0991 87.5535Z" fill="#231815"/>
<path d="M17.2905 110.145L15.8065 110.131V101.549L14.0145 102.543L13.3985 101.297L15.8205 99.9665H17.2905V110.145Z" fill="#231815"/>
<path d="M24 19.5215V111.443H166.386" stroke="#B08A4B" stroke-width="1.80236" stroke-linecap="round"/>
<g clip-path="url(#clip0_3860_32313)">
<path d="M114.548 101.671L25.1328 21.6875" stroke="#8DC986" stroke-width="3.40067"/>
<path d="M125.001 111.033L114.776 91.9668C114.776 91.9668 114.527 101.67 104.914 102.985L125.001 111.033Z" fill="#8DC986"/>
</g>
<defs>
<clipPath id="clip0_3860_32313">
<rect width="101" height="90.6166" fill="white" transform="translate(24 20.418)"/>
</clipPath>
</defs>
</svg>
