<svg width="178" height="144" viewBox="0 0 178 144" fill="none" xmlns="http://www.w3.org/2000/svg">
<rect y="0.5" width="177.571" height="143" rx="7.85714" fill="white"/>
<path d="M75.0825 124.919C75.5305 125.18 75.8898 125.535 76.1605 125.983C76.4312 126.421 76.5665 126.86 76.5665 127.299C76.5665 127.868 76.4172 128.381 76.1185 128.839C75.8292 129.287 75.4232 129.637 74.9005 129.889C74.3778 130.141 73.7805 130.267 73.1085 130.267C72.4458 130.267 71.8532 130.136 71.3305 129.875C70.8078 129.613 70.3972 129.254 70.0985 128.797C69.8092 128.33 69.6645 127.803 69.6645 127.215H71.1485C71.1485 127.551 71.2325 127.849 71.4005 128.111C71.5685 128.372 71.7972 128.577 72.0865 128.727C72.3852 128.876 72.7258 128.951 73.1085 128.951C73.5005 128.951 73.8458 128.876 74.1445 128.727C74.4525 128.577 74.6905 128.372 74.8585 128.111C75.0358 127.849 75.1245 127.551 75.1245 127.215C75.1245 126.888 75.0405 126.599 74.8725 126.347C74.7045 126.095 74.4665 125.899 74.1585 125.759C73.8598 125.609 73.5192 125.535 73.1365 125.535H72.4085V124.289H73.1505C73.5052 124.289 73.8178 124.223 74.0885 124.093C74.3685 123.962 74.5832 123.785 74.7325 123.561C74.8912 123.327 74.9705 123.061 74.9705 122.763C74.9705 122.305 74.8072 121.937 74.4805 121.657C74.1538 121.367 73.7292 121.223 73.2065 121.223C72.8612 121.223 72.5578 121.288 72.2965 121.419C72.0352 121.549 71.8298 121.736 71.6805 121.979C71.5312 122.212 71.4565 122.478 71.4565 122.777H69.9725C69.9725 122.217 70.1078 121.722 70.3785 121.293C70.6585 120.854 71.0412 120.513 71.5265 120.271C72.0212 120.028 72.5812 119.907 73.2065 119.907C73.8225 119.907 74.3732 120.028 74.8585 120.271C75.3438 120.504 75.7218 120.831 75.9925 121.251C76.2725 121.671 76.4125 122.147 76.4125 122.679C76.4125 123.08 76.2912 123.491 76.0485 123.911C75.8058 124.321 75.4838 124.657 75.0825 124.919Z" fill="#231815"/>
<path d="M85.9785 124.641H92.9785" stroke="#B5B5B6" stroke-width="1.4" stroke-linecap="round"/>
<path d="M91.0872 126.641L92.9785 124.545L90.9785 122.641" stroke="#B5B5B6" stroke-width="1.4" stroke-linecap="round" stroke-linejoin="round"/>
<path d="M102.463 124.639C102.771 124.293 103.172 124.009 103.667 123.785C104.171 123.561 104.656 123.449 105.123 123.449C105.813 123.449 106.429 123.593 106.971 123.883C107.521 124.172 107.946 124.578 108.245 125.101C108.553 125.614 108.707 126.202 108.707 126.865C108.707 127.537 108.553 128.134 108.245 128.657C107.946 129.179 107.521 129.59 106.971 129.889C106.429 130.178 105.813 130.323 105.123 130.323C104.581 130.323 104.068 130.211 103.583 129.987C103.107 129.753 102.701 129.436 102.365 129.035C102.029 128.624 101.8 128.162 101.679 127.649L103.121 127.313C103.223 127.779 103.461 128.167 103.835 128.475C104.208 128.773 104.637 128.923 105.123 128.923C105.524 128.923 105.883 128.834 106.201 128.657C106.527 128.479 106.779 128.237 106.957 127.929C107.134 127.611 107.223 127.257 107.223 126.865C107.223 126.473 107.134 126.127 106.957 125.829C106.779 125.521 106.527 125.283 106.201 125.115C105.883 124.937 105.524 124.849 105.123 124.849C104.861 124.849 104.586 124.923 104.297 125.073C104.007 125.213 103.76 125.395 103.555 125.619L102.463 124.639ZM102.071 125.437L102.421 119.991H107.867V121.293H103.849L103.555 125.619L102.071 125.437Z" fill="#231815"/>
<path d="M164.054 42.3927H21.668" stroke="#D3D3D4" stroke-width="1.12648" stroke-linecap="round"/>
<path d="M164.156 19.7788H21.7695" stroke="#D3D3D4" stroke-width="1.12648" stroke-linecap="round"/>
<path d="M164.054 65.374H21.668" stroke="#D3D3D4" stroke-width="1.12648" stroke-linecap="round"/>
<path d="M164.054 88.3545H21.668" stroke="#D3D3D4" stroke-width="1.12648" stroke-linecap="round"/>
<path d="M9.8297 19.3574C10.1377 19.012 10.539 18.7274 11.0337 18.5034C11.5377 18.2794 12.023 18.1674 12.4897 18.1674C13.1804 18.1674 13.7964 18.312 14.3377 18.6014C14.8884 18.8907 15.313 19.2967 15.6117 19.8194C15.9197 20.3327 16.0737 20.9207 16.0737 21.5834C16.0737 22.2554 15.9197 22.8527 15.6117 23.3754C15.313 23.898 14.8884 24.3087 14.3377 24.6074C13.7964 24.8967 13.1804 25.0414 12.4897 25.0414C11.9484 25.0414 11.435 24.9294 10.9497 24.7054C10.4737 24.472 10.0677 24.1547 9.7317 23.7534C9.3957 23.3427 9.16704 22.8807 9.0457 22.3674L10.4877 22.0314C10.5904 22.498 10.8284 22.8854 11.2017 23.1934C11.575 23.492 12.0044 23.6414 12.4897 23.6414C12.891 23.6414 13.2504 23.5527 13.5677 23.3754C13.8944 23.198 14.1464 22.9554 14.3237 22.6474C14.501 22.33 14.5897 21.9754 14.5897 21.5834C14.5897 21.1914 14.501 20.846 14.3237 20.5474C14.1464 20.2394 13.8944 20.0014 13.5677 19.8334C13.2504 19.656 12.891 19.5674 12.4897 19.5674C12.2284 19.5674 11.953 19.642 11.6637 19.7914C11.3744 19.9314 11.127 20.1134 10.9217 20.3374L9.8297 19.3574ZM9.4377 20.1554L9.7877 14.7094H15.2337V16.0114H11.2157L10.9217 20.3374L9.4377 20.1554Z" fill="#231815"/>
<path d="M14.9147 42.2509H16.2027V43.5389H14.9147V46.1709H13.4307V43.5389H9.04866L8.90866 42.2509L13.5007 35.9789H14.9147V42.2509ZM13.4307 42.2509V38.4569L10.6727 42.2509H13.4307Z" fill="#231815"/>
<path d="M14.5249 62.1968C14.9729 62.4582 15.3322 62.8128 15.6029 63.2608C15.8736 63.6995 16.0089 64.1382 16.0089 64.5768C16.0089 65.1462 15.8596 65.6595 15.5609 66.1168C15.2716 66.5648 14.8656 66.9148 14.3429 67.1668C13.8202 67.4188 13.2229 67.5448 12.5509 67.5448C11.8882 67.5448 11.2956 67.4142 10.7729 67.1528C10.2502 66.8915 9.83957 66.5322 9.5409 66.0748C9.25157 65.6082 9.1069 65.0808 9.1069 64.4928H10.5909C10.5909 64.8288 10.6749 65.1275 10.8429 65.3888C11.0109 65.6502 11.2396 65.8555 11.5289 66.0048C11.8276 66.1542 12.1682 66.2288 12.5509 66.2288C12.9429 66.2288 13.2882 66.1542 13.5869 66.0048C13.8949 65.8555 14.1329 65.6502 14.3009 65.3888C14.4782 65.1275 14.5669 64.8288 14.5669 64.4928C14.5669 64.1662 14.4829 63.8768 14.3149 63.6248C14.1469 63.3728 13.9089 63.1768 13.6009 63.0368C13.3022 62.8875 12.9616 62.8128 12.5789 62.8128H11.8509V61.5668H12.5929C12.9476 61.5668 13.2602 61.5015 13.5309 61.3708C13.8109 61.2402 14.0256 61.0628 14.1749 60.8388C14.3336 60.6055 14.4129 60.3395 14.4129 60.0408C14.4129 59.5835 14.2496 59.2148 13.9229 58.9348C13.5962 58.6455 13.1716 58.5008 12.6489 58.5008C12.3036 58.5008 12.0002 58.5662 11.7389 58.6968C11.4776 58.8275 11.2722 59.0142 11.1229 59.2568C10.9736 59.4902 10.8989 59.7562 10.8989 60.0548H9.4149C9.4149 59.4948 9.55023 59.0002 9.8209 58.5708C10.1009 58.1322 10.4836 57.7915 10.9689 57.5488C11.4636 57.3062 12.0236 57.1848 12.6489 57.1848C13.2649 57.1848 13.8156 57.3062 14.3009 57.5488C14.7862 57.7822 15.1642 58.1088 15.4349 58.5288C15.7149 58.9488 15.8549 59.4248 15.8549 59.9568C15.8549 60.3582 15.7336 60.7688 15.4909 61.1888C15.2482 61.5995 14.9262 61.9355 14.5249 62.1968Z" fill="#231815"/>
<path d="M10.4194 87.448C10.6434 87.2333 10.8768 87.0187 11.1194 86.804C11.3621 86.58 11.6048 86.3607 11.8474 86.146C12.6034 85.474 13.2054 84.9187 13.6534 84.48C14.1014 84.032 14.4794 83.5747 14.7874 83.108C15.0954 82.6413 15.2494 82.198 15.2494 81.778C15.2494 81.3953 15.1748 81.0593 15.0254 80.77C14.8761 80.4713 14.6661 80.238 14.3954 80.07C14.1341 79.902 13.8308 79.818 13.4854 79.818C13.0841 79.818 12.7014 79.9487 12.3374 80.21C11.9828 80.4713 11.7121 80.8073 11.5254 81.218L10.2234 80.644C10.5034 80 10.9468 79.4773 11.5534 79.076C12.1694 78.6653 12.8134 78.46 13.4854 78.46C14.1201 78.46 14.6801 78.6 15.1654 78.88C15.6601 79.16 16.0428 79.552 16.3134 80.056C16.5934 80.56 16.7334 81.134 16.7334 81.778C16.7334 82.4127 16.5468 83.038 16.1734 83.654C15.8001 84.27 15.3521 84.8393 14.8294 85.362C14.3068 85.8847 13.6254 86.5053 12.7854 87.224C12.2534 87.672 11.7914 88.0827 11.3994 88.456L10.4194 87.448ZM10.4194 87.448H16.9014V88.75H10.5594L10.4194 87.448Z" fill="#231815"/>
<path d="M14.6109 110.039L13.1269 110.025V101.443L11.3349 102.437L10.7189 101.191L13.1409 99.8611H14.6109V110.039Z" fill="#231815"/>
<path d="M160.5 22.5C148.826 36.8333 104.882 65.5 22.5 65.5" stroke="#F29C9F" stroke-width="3.37943"/>
<path d="M155.629 34.9392C154.514 31.7868 152.358 29.8439 150.273 28.6782C149.558 28.2786 148.853 27.9703 148.202 27.7328L162.002 21.29L155.629 34.9392Z" fill="#F29C9F" stroke="#F29C9F" stroke-width="2.25296"/>
<path d="M21.668 19.4159V111.337H164.054" stroke="#B08A4B" stroke-width="1.80236" stroke-linecap="round"/>
</svg>
