<svg width="75" height="75" viewBox="0 0 75 75" fill="none" xmlns="http://www.w3.org/2000/svg">
<mask id="mask0_6_259" style="mask-type:alpha" maskUnits="userSpaceOnUse" x="0" y="0" width="75" height="75">
<rect width="75" height="75" rx="37.5" fill="#D9D9D9"/>
</mask>
<g mask="url(#mask0_6_259)">
<mask id="mask1_6_259" style="mask-type:luminance" maskUnits="userSpaceOnUse" x="9" y="1" width="74" height="73">
<path d="M9.25293 37.5229C9.25293 57.6664 25.5697 73.9832 45.7133 73.9832C65.8568 73.9832 82.1736 57.6664 82.1736 37.5229C82.1736 17.3793 65.8568 1.0625 45.7133 1.0625C25.5697 1.0625 9.25293 17.3793 9.25293 37.5229Z" fill="white"/>
</mask>
<g mask="url(#mask1_6_259)">
<path d="M40.5312 48.8704H36.5184L24.5333 56.8693C23.6032 57.4805 23.0717 58.517 23.0717 59.6065V62.9549C36.0401 66.7817 49.1679 66.6754 62.4818 62.9549V59.6596C62.4818 58.5169 61.8972 57.454 60.9405 56.8693L48.477 49.083L40.5578 48.8438L40.5312 48.8704Z" fill="white"/>
<path d="M42.4977 66.5422C35.8541 66.5422 29.2636 65.5855 22.8325 63.6987C22.5136 63.5924 22.301 63.3001 22.301 62.9812V59.6328C22.301 58.2775 22.9654 57.0285 24.1081 56.2578L36.0932 48.2589C36.0932 48.2589 36.359 48.126 36.5184 48.126H40.5312L48.4504 48.3651C48.5833 48.3651 48.7162 48.4183 48.8225 48.4715L61.286 56.2578C62.4818 57.0019 63.1993 58.3041 63.1993 59.7125V63.0078C63.1993 63.3532 62.9867 63.6455 62.6413 63.7253C55.8648 65.6386 49.1148 66.5688 42.4712 66.5688L42.4977 66.5422ZM23.8158 62.3965C36.0667 65.9044 48.8225 65.9044 61.7112 62.3965V59.6859C61.7112 58.809 61.2594 57.9852 60.5153 57.5334L48.2113 49.8533L40.5046 49.6141H36.731L24.9319 57.4802C24.2144 57.9586 23.7892 58.7558 23.7892 59.6062V62.3965H23.8158Z" fill="#3E3A39"/>
</g>
<mask id="mask2_6_259" style="mask-type:luminance" maskUnits="userSpaceOnUse" x="9" y="1" width="74" height="73">
<path d="M9.25293 37.5229C9.25293 57.6664 25.5697 73.9832 45.7133 73.9832C65.8568 73.9832 82.1736 57.6664 82.1736 37.5229C82.1736 17.3793 65.8568 1.0625 45.7133 1.0625C25.5697 1.0625 9.25293 17.3793 9.25293 37.5229Z" fill="white"/>
</mask>
<g mask="url(#mask2_6_259)">
<path d="M56.7421 27.4236C56.7421 27.4236 56.6889 27.4236 56.6623 27.4236C56.6623 27.2642 56.6623 27.1579 56.6623 26.9985C56.6623 24.1816 56.5029 21.7633 56.184 19.6905C54.5364 9.03407 29.8751 9.19346 28.5198 21.1255C28.3338 22.8528 28.2275 24.7928 28.2275 26.9985C28.2275 27.1579 28.2275 27.3174 28.2275 27.4768C27.9883 27.4502 27.7757 27.4237 27.5366 27.4768C25.8889 27.7691 24.9057 30.0014 25.3574 32.4994C25.7826 34.9974 27.4568 36.7779 29.1045 36.4856C29.1045 36.4856 29.1045 36.4856 29.1576 36.4856C30.4863 42.1725 33.1704 44.7503 36.5454 45.893V49.5071L42.126 53.2807L47.627 49.5071V46.1322C51.3474 45.1489 54.3238 42.5978 55.7588 36.5388C57.4064 36.7248 58.9743 34.838 59.2666 32.3399C59.559 29.8419 58.4162 27.6628 56.7686 27.4768" fill="white"/>
<path d="M42.0994 53.9962C41.9399 53.9962 41.8071 53.9431 41.6742 53.8634L36.0935 50.0898C35.8809 49.9569 35.7746 49.7178 35.7746 49.4786V46.3959C32.1605 44.9875 29.7954 41.9845 28.5464 37.2277C26.6861 37.0948 25.0385 35.208 24.5867 32.6037C24.0818 29.6539 25.3043 27.0762 27.3771 26.7041C27.3771 26.7041 27.4036 26.7041 27.4302 26.7041C27.4302 24.6579 27.5365 22.7445 27.7225 21.0437C28.4666 14.4266 35.6418 11.3174 42.4183 11.1846C42.5777 11.1846 42.7106 11.1846 42.8701 11.1846C49.0885 11.1846 55.9979 13.7623 56.9015 19.5822C57.2204 21.6816 57.3798 24.0998 57.4064 26.8105C59.1603 27.3951 60.2764 29.7071 59.9841 32.3911C59.6918 35.0486 58.1505 37.0417 56.3168 37.2543C54.9881 42.3832 52.4369 45.3861 48.3444 46.6617V49.4786C48.3444 49.7178 48.2116 49.9569 48.0255 50.0898L42.5246 53.8634C42.5246 53.8634 42.2588 53.9962 42.0994 53.9962ZM37.2628 49.0534L42.0994 52.3221L46.8563 49.0534V46.077C46.8563 45.7316 47.0954 45.4392 47.4143 45.3595C51.3739 44.2965 53.7922 41.4265 55.0147 36.3241C55.0678 36.085 55.2538 35.899 55.4664 35.7927C55.5993 35.7395 55.7322 35.7395 55.865 35.7395C57.114 35.8724 58.2833 34.1982 58.4959 32.2051C58.7351 30.1588 57.8847 28.2986 56.6623 28.1657C56.6623 28.1657 56.6623 28.1657 56.6357 28.1657C56.2637 28.086 55.9182 27.7937 55.9182 27.4216V26.9965C55.9182 24.2859 55.7587 21.8675 55.4398 19.7947C54.6692 14.7455 48.185 12.5399 42.498 12.6727C36.3859 12.8056 29.9282 15.4896 29.2639 21.2032C29.0778 22.9305 28.9715 24.8705 28.9715 26.9965V27.4482C28.9715 27.6608 28.8918 27.9 28.7324 28.0329C28.5729 28.1657 28.3338 28.2455 28.1212 28.1923C27.9617 28.1657 27.8288 28.1657 27.696 28.1923C26.5001 28.4049 25.7826 30.2917 26.1281 32.3379C26.4735 34.3842 27.7757 35.9256 28.9981 35.713C29.3967 35.6332 29.8219 35.8724 29.9017 36.271C31.0444 41.1342 33.2235 43.9511 36.7845 45.1469C37.1034 45.2532 37.2894 45.5455 37.2894 45.8644V49.08L37.2628 49.0534Z" fill="#3E3A39"/>
<path d="M31.4164 20.1424C31.5227 17.4052 34.1801 17.4318 34.1801 17.4318H50.7095C50.7095 17.4318 53.367 17.4052 53.4733 20.1424C53.553 22.0823 53.4733 25.8293 56.6622 26.0419C56.6091 23.7299 60.9673 9.40625 42.4448 9.40625C23.9223 9.40625 28.254 24.3146 28.2274 26.0419C31.4164 25.8293 31.3632 22.0823 31.4429 20.1424" fill="white"/>
<path d="M28.2274 26.786C28.0414 26.786 27.8553 26.7063 27.6959 26.5734C27.5364 26.4405 27.4567 26.2279 27.4567 26.0153C27.4567 25.8558 27.4036 25.5104 27.3238 25.0852C26.8986 22.7201 25.942 17.1925 29.2904 13.1798C31.8149 10.1769 36.2263 8.66211 42.4182 8.66211C48.6101 8.66211 52.6229 10.1237 55.1475 12.9671C58.549 16.8205 57.8581 22.2417 57.5126 24.8195C57.4329 25.351 57.3797 25.7495 57.4063 26.0153C57.4063 26.2279 57.3266 26.4405 57.1671 26.5734C57.0077 26.7063 56.8216 26.786 56.5825 26.786C52.8886 26.5202 52.7557 22.4277 52.7026 20.4612V20.1423C52.6229 18.2555 51.0284 18.1758 50.7095 18.1758H34.1801C33.8612 18.1758 32.2401 18.2821 32.187 20.1423V20.4612C32.1338 22.4277 32.001 26.5202 28.3071 26.786C28.3071 26.786 28.2805 26.786 28.2539 26.786H28.2274ZM42.4448 10.1503C36.7047 10.1503 32.6919 11.479 30.4596 14.1364C27.5364 17.6177 28.4134 22.4809 28.812 24.8195C28.812 24.9258 28.8386 25.0321 28.8652 25.1384C30.3799 24.5803 30.5925 22.5872 30.6722 20.4347V20.1157C30.7785 17.3785 32.9577 16.6877 34.2067 16.6877H50.7095C51.8522 16.6345 54.111 17.352 54.2173 20.1157V20.4347C54.2971 22.5872 54.4831 24.5803 55.9713 25.1384C55.9713 24.9789 55.9978 24.8195 56.0244 24.66C56.3433 22.1089 56.9545 17.3254 54.0047 13.977C51.7725 11.4524 47.8926 10.1768 42.4182 10.1768L42.4448 10.1503Z" fill="#3E3A39"/>
<path d="M47.5738 28.2979C47.5738 29.0686 46.9626 29.6798 46.2451 29.6798C45.5276 29.6798 44.9164 29.0686 44.9164 28.2979C44.9164 27.5273 45.5276 26.916 46.2451 26.916C46.9626 26.916 47.5738 27.5273 47.5738 28.2979Z" fill="#3E3A39"/>
<path d="M39.2027 28.2979C39.2027 29.0686 38.5915 29.6798 37.874 29.6798C37.1565 29.6798 36.5453 29.0686 36.5453 28.2979C36.5453 27.5273 37.1565 26.916 37.874 26.916C38.5915 26.916 39.2027 27.5273 39.2027 28.2979Z" fill="#3E3A39"/>
<path d="M38.884 38.291C40.9037 38.8757 42.9765 38.7959 45.0759 38.291H38.884Z" fill="white"/>
<path d="M41.8601 39.4355C40.7706 39.4355 39.7076 39.3027 38.6977 39.0103C38.2991 38.904 38.0599 38.4788 38.1662 38.0802C38.2725 37.6816 38.6977 37.4424 39.0964 37.5487C40.8769 38.0536 42.7902 38.0536 44.9162 37.5487C45.3414 37.4424 45.7134 37.7082 45.8197 38.1068C45.926 38.5054 45.6603 38.9306 45.2617 39.0103C44.0658 39.3027 42.9497 39.4355 41.8601 39.4355Z" fill="#3E3A39"/>
<path d="M47.6269 23.1972H45.3415C44.9163 23.1972 44.5974 22.8517 44.5974 22.4531C44.5974 22.0545 44.9429 21.709 45.3415 21.709H47.6269C48.0521 21.709 48.371 22.0545 48.371 22.4531C48.371 22.8517 48.0255 23.1972 47.6269 23.1972Z" fill="#3E3A39"/>
<path d="M38.6447 23.1972H36.3327C35.9075 23.1972 35.5886 22.8517 35.5886 22.4531C35.5886 22.0545 35.9341 21.709 36.3327 21.709H38.6447C39.0699 21.709 39.3888 22.0545 39.3888 22.4531C39.3888 22.8517 39.0433 23.1972 38.6447 23.1972Z" fill="#3E3A39"/>
<path d="M36.1733 32.4987C31.2039 32.4987 30.6724 29.4692 30.6724 28.1405C30.6724 26.8118 31.2039 23.7822 36.1733 23.7822C41.1428 23.7822 41.6742 26.8118 41.6742 28.1405C41.6742 29.4692 41.1428 32.4987 36.1733 32.4987ZM36.1733 25.3236C33.5158 25.3236 32.1871 26.2802 32.1871 28.167C32.1871 30.0538 33.5158 31.0105 36.1733 31.0105C38.8308 31.0105 40.1595 30.0538 40.1595 28.167C40.1595 26.2802 38.8308 25.3236 36.1733 25.3236Z" fill="#3E3A39"/>
<path d="M47.9194 32.4987C42.9765 32.4987 42.4185 29.4692 42.4185 28.1405C42.4185 26.8118 42.9499 23.7822 47.9194 23.7822C52.8889 23.7822 53.4203 26.8118 53.4203 28.1405C53.4203 29.4692 52.8889 32.4987 47.9194 32.4987ZM47.9194 25.3236C45.2885 25.3236 43.9332 26.2802 43.9332 28.167C43.9332 30.0538 45.2619 31.0105 47.9194 31.0105C50.5769 31.0105 51.9056 30.0538 51.9056 28.167C51.9056 26.2802 50.5769 25.3236 47.9194 25.3236Z" fill="#3E3A39"/>
<path d="M31.2572 27.7402H28.2011C27.7759 27.7402 27.457 27.3947 27.457 26.9961C27.457 26.5975 27.8025 26.252 28.2011 26.252H31.2572C31.6824 26.252 32.0013 26.5975 32.0013 26.9961C32.0013 27.3947 31.6558 27.7402 31.2572 27.7402Z" fill="#3E3A39"/>
<path d="M56.2635 27.7402H53.2075C52.7823 27.7402 52.4634 27.3947 52.4634 26.9961C52.4634 26.5975 52.8088 26.252 53.2075 26.252H56.2635C56.6887 26.252 57.0076 26.5975 57.0076 26.9961C57.0076 27.3947 56.6622 27.7402 56.2635 27.7402Z" fill="#3E3A39"/>
<path d="M43.2953 27.7402H41.1694C40.7442 27.7402 40.4253 27.3947 40.4253 26.9961C40.4253 26.5975 40.7708 26.252 41.1694 26.252H43.2953C43.7205 26.252 44.0394 26.5975 44.0394 26.9961C44.0394 27.3947 43.694 27.7402 43.2953 27.7402Z" fill="#3E3A39"/>
<path d="M44.8898 66.3813C44.8898 66.3813 44.7835 66.3813 44.7304 66.3813C44.3318 66.3016 44.066 65.903 44.1457 65.4778L47.6802 48.9484C47.7599 48.5498 48.1585 48.284 48.5837 48.3638C48.9823 48.4435 49.2481 48.8421 49.1683 49.2673L45.6339 65.7967C45.5542 66.1422 45.2353 66.3813 44.8898 66.3813Z" fill="#3E3A39"/>
<path d="M38.2991 65.9309C37.9271 65.9309 37.5816 65.6386 37.555 65.2666L35.7745 49.561C35.7214 49.1358 36.0137 48.7638 36.4389 48.7372C36.8375 48.7106 37.2361 48.9763 37.2627 49.4015L39.0432 65.1071C39.0964 65.5323 38.804 65.9044 38.3789 65.9309C38.3523 65.9309 38.3257 65.9309 38.2991 65.9309Z" fill="#3E3A39"/>
<path d="M42.0729 54.1846L39.6812 56.3371L40.9036 58.2505L40.0001 65.6382H44.3051L43.2156 58.3302L44.5177 56.0448L42.0729 54.1846Z" fill="#FBDACF"/>
<path d="M44.305 66.3828H39.9999C39.7873 66.3828 39.5747 66.2764 39.4418 66.117C39.309 65.9575 39.2293 65.745 39.2558 65.5324L40.1328 58.437L39.0432 56.7362C38.8572 56.4173 38.9104 56.0187 39.1761 55.7795L41.5678 53.627C41.8336 53.3878 42.2322 53.3613 42.5245 53.5739L44.9694 55.4074C45.2617 55.6466 45.368 56.0453 45.182 56.3908L44.0127 58.4636L45.0491 65.5058C45.0757 65.7184 45.0225 65.931 44.8631 66.117C44.7302 66.2764 44.5176 66.3828 44.305 66.3828ZM40.8503 64.8681H43.428L42.4714 58.437C42.4714 58.2775 42.4714 58.0915 42.5511 57.9586L43.5343 56.2313L42.0993 55.1683L40.6643 56.4705L41.5412 57.8523C41.6475 58.0118 41.6741 58.1712 41.6475 58.3573L40.8237 64.8946L40.8503 64.8681Z" fill="#3E3A39"/>
<path d="M34.7383 50.543L31.948 56.5223L34.3663 60.0566" fill="white"/>
<path d="M34.3663 60.8279C34.1272 60.8279 33.888 60.7216 33.7551 60.509L31.3368 56.948C31.1774 56.7354 31.1774 56.4431 31.2837 56.2039L34.074 50.2247C34.26 49.8526 34.7118 49.6931 35.0838 49.8526C35.4559 50.0386 35.6153 50.4904 35.4559 50.8624L32.8516 56.4431L35.0307 59.6321C35.2699 59.9776 35.1636 60.4559 34.8181 60.6685C34.6852 60.7482 34.5524 60.8013 34.3929 60.8013L34.3663 60.8279Z" fill="#3E3A39"/>
<path d="M50.4969 50.6748L51.8787 56.6276L49.4604 59.6836" fill="white"/>
<path d="M49.4607 60.4268C49.3012 60.4268 49.1418 60.3736 48.9823 60.2673C48.6634 60.0016 48.6103 59.5233 48.8494 59.2044L51.0286 56.4406L49.6998 50.8333C49.5935 50.4347 49.8593 50.0361 50.2579 49.9298C50.6565 49.8235 51.0817 50.0893 51.1614 50.4879L52.5699 56.4672C52.623 56.6798 52.5699 56.9189 52.437 57.105L50.0187 60.161C49.8593 60.347 49.6467 60.4534 49.4341 60.4534L49.4607 60.4268Z" fill="#3E3A39"/>
</g>
</g>
</svg>
