<svg width="75" height="75" viewBox="0 0 75 75" fill="none" xmlns="http://www.w3.org/2000/svg">
<mask id="mask0_9_270" style="mask-type:alpha" maskUnits="userSpaceOnUse" x="0" y="0" width="75" height="75">
<path d="M0 37.5C0 58.2179 16.7821 75 37.5 75C58.2179 75 75 58.2179 75 37.5C75 16.7821 58.2179 0 37.5 0C16.7821 0 0 16.7821 0 37.5Z" fill="black"/>
</mask>
<g mask="url(#mask0_9_270)">
<mask id="mask1_9_270" style="mask-type:luminance" maskUnits="userSpaceOnUse" x="9" y="1" width="74" height="73">
<path d="M9.25317 37.476C9.25317 57.6195 25.57 73.9363 45.7135 73.9363C65.8571 73.9363 82.1739 57.6195 82.1739 37.476C82.1739 17.3324 65.8571 1.01562 45.7135 1.01562C25.57 1.01562 9.25317 17.3324 9.25317 37.476Z" fill="white"/>
</mask>
<g mask="url(#mask1_9_270)">
<path d="M43.8265 25.7559L68.8598 27.0315C71.5439 38.2725 63.3323 41.7803 65.7772 45.3944C68.5409 51.5598 59.1069 55.2802 55.0145 52.1444C50.6296 54.8285 41.6209 50.1779 44.9958 44.3315C47.7862 40.9831 39.9998 36.6514 43.8 25.7559" fill="white"/>
<path d="M58.7617 54.0311C57.4064 54.0311 56.0776 53.7388 54.9881 53.0479C51.9851 54.5361 47.7066 53.2871 45.4212 51.0548C43.3218 49.0086 42.9498 46.4309 44.3582 43.9594C45.2618 42.8699 44.8366 41.7537 43.9065 39.5746C42.5777 36.4654 40.7707 32.1869 43.0826 25.5166C43.1889 25.1977 43.5344 25.0117 43.8267 25.0117L68.8866 26.2873C69.2321 26.2873 69.4978 26.5264 69.5775 26.8719C71.2251 33.7547 68.9663 37.8207 67.3453 40.7704C66.2025 42.8698 65.6711 43.9063 66.3886 44.9693C67.611 47.6799 66.9732 50.2044 64.6878 52.038C63.1465 53.2605 60.9142 54.0311 58.7351 54.0311H58.7617ZM55.0412 51.4003C55.2007 51.4003 55.3601 51.4534 55.493 51.5597C57.5127 53.101 61.366 52.7556 63.7843 50.8688C64.7941 50.0716 66.2823 48.3442 65.113 45.7134C63.9171 43.9329 64.9004 42.1258 66.0431 40.053C67.5047 37.3689 69.5244 33.7548 68.2488 27.7755L44.3316 26.553C42.4714 32.3728 44.0925 36.1997 45.2883 38.99C46.2184 41.1957 47.0157 43.0824 45.5807 44.8363C44.1988 47.2281 45.5275 49.0883 46.4576 49.9918C48.6633 52.1178 52.4635 52.8619 54.6426 51.5332C54.7755 51.4535 54.9083 51.4269 55.0412 51.4269V51.4003Z" fill="#3E3A39"/>
<path d="M35.1899 43.1366C35.1899 43.1366 45.6603 43.987 51.2144 41.2764L52.1711 46.5382C52.1711 46.5382 45.0491 48.9033 38.432 47.8669" fill="#FBDACF"/>
<path d="M42.0461 48.9013C40.8237 48.9013 39.5747 48.8215 38.3257 48.6355C37.927 48.5823 37.6347 48.1838 37.6879 47.7852C37.741 47.3866 38.1396 47.0942 38.5383 47.1473C43.8 47.9711 49.4604 46.5627 51.3206 46.0312L50.6563 42.3639C44.863 44.6493 35.5353 43.9318 35.1367 43.9052C34.7115 43.8786 34.4192 43.5066 34.4458 43.0814C34.4723 42.6562 34.871 42.364 35.2696 42.3905C35.3759 42.3905 45.6071 43.1877 50.922 40.61C51.1346 40.5037 51.3738 40.5037 51.5864 40.61C51.799 40.7163 51.9319 40.9289 51.985 41.1415L52.9417 46.4032C53.0214 46.7753 52.7822 47.1474 52.4368 47.2536C52.1976 47.3334 47.4407 48.8747 42.0461 48.8747V48.9013Z" fill="#3E3A39"/>
<path d="M20.8661 59.4004L23.869 49.621C26.6062 43.4823 27.7489 42.127 31.7883 42.127C35.8276 42.127 39.0963 45.5019 39.0963 49.621V60.2243C39.0963 60.2243 32.5058 64.3965 20.8661 59.4004Z" fill="#FBDACF"/>
<path d="M31.7616 62.6139C28.8118 62.6139 25.0648 62.0027 20.5737 60.0893C20.2282 59.9299 20.0422 59.5313 20.1485 59.1858L23.1514 49.4064C25.9683 43.0816 27.3502 41.3809 31.7882 41.3809C36.2261 41.3809 39.8403 45.0747 39.8403 49.619V60.2222C39.8403 60.488 39.7074 60.7271 39.4948 60.86C39.3088 60.9663 36.6247 62.6139 31.7616 62.6139ZM21.7961 58.9466C31.0707 62.7202 36.8905 60.4614 38.3521 59.7439V49.5924C38.3521 45.872 35.4023 42.8424 31.7882 42.8424C28.174 42.8424 27.2705 43.8257 24.5599 49.8847L21.7695 58.9201L21.7961 58.9466Z" fill="#3E3A39"/>
<path d="M65.2724 60.2242L64.0765 49.621C62.3758 42.8711 58.9742 42.127 54.9615 42.127C50.9487 42.127 47.6534 45.5019 47.6534 49.621V60.2242C47.6534 60.2242 55.2538 65.5923 65.2724 60.2242Z" fill="#FBDACF"/>
<path d="M56.2371 63.3846C50.9222 63.3846 47.4409 60.9929 47.2283 60.8335C47.0157 60.7006 46.9094 60.4614 46.9094 60.2222V49.619C46.9094 45.0747 50.5236 41.3809 54.9615 41.3809C58.9211 41.3809 62.9339 41.9921 64.7941 49.433L66.0166 60.1425C66.0431 60.4614 65.8837 60.7537 65.6179 60.8866C62.1367 62.7468 58.9211 63.3846 56.2105 63.3846H56.2371ZM48.4242 59.8236C49.9124 60.7272 56.2371 63.9693 64.5018 59.8236L63.3591 49.7252C61.7646 43.4271 58.6288 42.8956 54.9881 42.8956C51.3474 42.8956 48.4242 45.9251 48.4242 49.6455V59.8502V59.8236Z" fill="#3E3A39"/>
<path d="M24.1349 34.501C24.1349 34.501 14.3554 36.6535 14.3022 46.4329C14.3022 46.4329 22.9124 46.9379 25.065 35.6437" fill="white"/>
<path d="M14.3818 47.1746H14.2489C13.8503 47.1746 13.5314 46.8292 13.5314 46.4305C13.5845 36.1727 23.8689 33.7811 23.9752 33.7545C24.3738 33.6748 24.7724 33.9139 24.8787 34.3391C24.9319 34.5517 24.8787 34.7908 24.7459 34.9503C24.8787 34.8971 25.0382 34.8706 25.1976 34.8972C25.5963 34.9769 25.862 35.3755 25.8088 35.7741C23.736 46.776 15.5776 47.2012 14.4083 47.2012L14.3818 47.1746ZM24.427 35.1629C24.427 35.1629 24.3472 35.1895 24.2941 35.216C23.9221 35.2958 15.6042 37.2623 15.0727 45.6333C17.0924 45.4473 22.673 44.1717 24.2941 35.4552C24.2941 35.3489 24.3738 35.2426 24.427 35.1363V35.1629Z" fill="#3E3A39"/>
<path d="M57.0342 15.3924C49.806 14.914 43.5343 20.3884 43.056 27.6167C42.6574 33.8352 46.6436 39.3361 52.3837 41.0635C52.5431 43.6678 54.5362 48.398 54.5628 48.398C54.5628 48.398 58.8413 44.1727 59.0273 42.5516L59.1868 41.276C64.6346 39.9739 68.8599 35.2701 69.2586 29.3706C69.7369 22.1423 64.2625 15.8707 57.0342 15.3924Z" fill="white"/>
<path d="M54.5625 49.1408C53.5261 49.1408 52.0645 43.5336 51.719 41.6202C45.7398 39.6005 41.8864 33.8869 42.3116 27.5622C42.8165 19.9353 49.4602 14.1155 57.0871 14.6204C64.714 15.1253 70.5339 21.7689 70.0289 29.3958C69.6303 35.322 65.591 40.2649 59.904 41.8593L59.8243 42.63C59.6117 44.4371 55.8912 48.1841 55.1206 48.9282C54.9877 49.0611 54.8017 49.1408 54.5891 49.1408H54.5625ZM56.157 16.1085C49.6994 16.1085 44.2516 21.1312 43.7998 27.6685C43.4278 33.4618 47.0419 38.6704 52.596 40.3446C52.8883 40.4243 53.1009 40.7166 53.1275 41.0089C53.2338 42.7363 54.217 45.5532 54.8283 47.0414C56.5556 45.2343 58.2032 43.1615 58.283 42.444L58.4424 41.1684C58.469 40.8495 58.7082 40.6103 59.0271 40.5306C64.342 39.255 68.1421 34.7639 68.5142 29.3161C68.966 22.513 63.7839 16.5869 56.9808 16.1351C56.7151 16.1351 56.4227 16.1085 56.157 16.1085Z" fill="#3E3A39"/>
<path d="M52.1178 28.361C52.0647 28.9988 52.543 29.5568 53.1542 29.5834C53.7654 29.61 54.2969 29.1316 54.3501 28.4938C54.4032 27.856 53.9249 27.298 53.3137 27.2714C52.7025 27.2183 52.171 27.7232 52.1178 28.361Z" fill="#3E3A39"/>
<path d="M57.4596 28.7311C57.4065 29.3689 57.8848 29.9269 58.496 29.9535C59.1072 29.9801 59.6387 29.5017 59.6919 28.8639C59.745 28.2262 59.2667 27.6681 58.6555 27.6415C58.0442 27.5884 57.5128 28.0933 57.4596 28.7311Z" fill="#3E3A39"/>
<path d="M58.177 33.4627C56.4231 34.3131 54.802 34.1536 53.3138 33.1172L58.177 33.4627Z" fill="white"/>
<path d="M55.9447 34.6335C54.9083 34.6335 53.925 34.3147 52.9417 33.6503C52.676 33.4643 52.5963 33.0922 52.7823 32.7999C52.9683 32.5341 53.3404 32.4544 53.6327 32.6404C54.988 33.5706 56.3699 33.6503 57.8846 32.9328C58.1769 32.7999 58.549 32.9327 58.6819 33.1985C58.8147 33.4642 58.6819 33.8629 58.4161 33.9958C57.5657 34.3944 56.7419 34.6069 55.9447 34.6069V34.6335Z" fill="#3E3A39"/>
<path d="M57.034 15.3934C62.4287 15.7655 66.84 19.3264 68.5408 24.1099C66.282 23.977 62.1895 23.7113 57.9376 23.4455C57.3263 23.4189 56.1836 20.8943 56.1836 20.8678C56.1836 20.8678 54.8815 23.2329 54.2968 23.2063C50.2309 22.9406 46.4573 22.728 44.4642 22.5951C46.7762 18.0243 51.6394 15.0479 57.0606 15.3934" fill="white"/>
<path d="M68.5144 24.8521C68.5144 24.8521 68.4879 24.8521 68.4613 24.8521L57.858 24.1877C57.5657 24.1877 57.0342 24.1346 56.1041 22.4338C55.0411 24.0283 54.483 23.9751 54.2173 23.9751L44.3847 23.3639C44.119 23.3639 43.9064 23.2045 43.7735 22.9919C43.6406 22.7793 43.6406 22.5135 43.7735 22.2744C46.2981 17.2783 51.4801 14.2754 57.0874 14.674C62.6149 15.046 67.3983 18.6602 69.2585 23.8689C69.3383 24.108 69.3117 24.3738 69.1522 24.5863C69.0194 24.7724 68.7802 24.8786 68.541 24.8786L68.5144 24.8521ZM56.1572 20.1218C56.1572 20.1218 56.3964 20.1218 56.5027 20.2016C56.6622 20.2813 56.795 20.4407 56.8748 20.6002C57.5126 21.9555 57.9909 22.6198 58.1503 22.7527L67.3983 23.2842C65.5115 19.2183 61.5253 16.4545 57.0076 16.1622C52.4634 15.8698 48.1051 18.1021 45.7134 21.9289L54.1907 22.4604C54.4831 22.2212 55.0677 21.3708 55.5195 20.5204C55.6523 20.2813 55.9181 20.1218 56.1838 20.1218H56.1572Z" fill="#3E3A39"/>
<path d="M54.3768 25.4367C54.3768 25.4367 53.5264 25.0115 52.676 25.357L54.3768 25.4367Z" fill="white"/>
<path d="M54.3766 26.0485C54.3766 26.0485 54.1906 26.0485 54.1109 25.9954C54.1109 25.9954 53.4731 25.7031 52.8885 25.9157C52.5696 26.0485 52.2241 25.8891 52.1178 25.5702C51.9849 25.2513 52.1444 24.9058 52.4633 24.7995C53.5528 24.3743 54.6158 24.8793 54.669 24.9058C54.9613 25.0653 55.0942 25.4108 54.9347 25.7031C54.8284 25.9157 54.6158 26.0485 54.4032 26.0485H54.3766Z" fill="#3E3A39"/>
<path d="M60.1434 25.7316C60.1434 25.7316 59.293 25.3064 58.4426 25.6519L60.1434 25.7316Z" fill="white"/>
<path d="M60.1435 26.3405C60.1435 26.3405 59.9575 26.3405 59.8777 26.2874C59.8777 26.2874 59.2399 25.995 58.6553 26.2076C58.3364 26.3139 57.9909 26.1811 57.8846 25.8622C57.7518 25.5433 57.9112 25.1978 58.2301 25.0915C59.3197 24.6663 60.3826 25.1712 60.4358 25.1978C60.7281 25.3573 60.861 25.7027 60.7015 25.995C60.5952 26.2076 60.3827 26.3405 60.1701 26.3405H60.1435Z" fill="#3E3A39"/>
<path d="M44.3583 26.9792C43.4813 19.7775 36.9174 14.6752 29.7157 15.5522C22.514 16.4291 17.4116 22.993 18.2886 30.1947C19.0061 36.0411 23.4707 40.5057 28.9716 41.5155C29.5297 43.8541 31.9214 46.9899 32.9578 46.9899C32.9578 46.9899 35.3229 43.7744 35.4027 42.1268L35.4558 41.0638C41.2756 39.1238 45.129 33.3306 44.3583 27.0058" fill="white"/>
<path d="M32.9575 47.7325C31.363 47.7325 29.1041 44.4372 28.3866 42.1518C22.6199 40.9028 18.2883 36.1992 17.5708 30.273C17.119 26.6057 18.1288 22.965 20.4142 20.0418C22.6997 17.1186 25.9683 15.2584 29.6622 14.8066C33.3295 14.3548 36.9702 15.3647 39.8934 17.6501C42.8166 19.9355 44.6769 23.2041 45.1286 26.898C45.9259 33.2759 42.1788 39.3615 36.2261 41.5938V42.1518C36.1198 43.9589 33.861 47.0947 33.5953 47.4402C33.4624 47.6262 33.2232 47.7591 32.984 47.7591L32.9575 47.7325ZM31.3364 16.215C30.8315 16.215 30.3 16.2416 29.7951 16.3214C26.5264 16.72 23.5766 18.3941 21.5569 20.9984C19.5373 23.6028 18.6337 26.8449 19.0324 30.1401C19.6967 35.5613 23.7361 39.8399 29.1041 40.7966C29.3965 40.8497 29.6356 41.0623 29.7154 41.3546C30.1671 43.2945 31.8679 45.4737 32.6917 46.0849C33.5421 44.8624 34.6317 43.0022 34.6582 42.0987L34.7114 41.0357C34.7114 40.7168 34.924 40.451 35.2163 40.3447C40.797 38.4845 44.3048 32.9305 43.5873 27.084C43.1887 23.8154 41.5145 20.8656 38.9102 18.8459C36.7045 17.1186 34.0736 16.215 31.3098 16.215H31.3364Z" fill="#3E3A39"/>
<path d="M27.3505 29.2104C27.4302 29.8482 27.9883 30.3 28.5995 30.2203C29.2107 30.1406 29.6625 29.5825 29.5827 28.9447C29.503 28.307 28.9449 27.8552 28.3337 27.9349C27.7225 28.0146 27.2707 28.5992 27.377 29.2104" fill="#3E3A39"/>
<path d="M32.6387 28.5982C32.7184 29.236 33.2765 29.6878 33.8877 29.6081C34.4989 29.5283 34.9507 28.9702 34.8709 28.3324C34.7912 27.6947 34.2331 27.2429 33.6219 27.3226C33.0107 27.4023 32.5589 27.987 32.6652 28.5982" fill="#3E3A39"/>
<path d="M34.2334 33.1172C32.6655 34.2865 31.0445 34.4193 29.3969 33.7018L34.2334 33.1172Z" fill="white"/>
<path d="M31.3898 34.7383C30.6723 34.7383 29.9282 34.5788 29.1575 34.2333C28.8652 34.1005 28.7058 33.7549 28.8386 33.4361C28.9715 33.1172 29.317 32.9843 29.6359 33.1172C31.1506 33.7815 32.5325 33.5956 33.8612 32.5857C34.127 32.3997 34.499 32.4528 34.7116 32.7186C34.8976 32.9843 34.8445 33.3564 34.5787 33.569C33.5423 34.3396 32.4794 34.7117 31.3632 34.7117L31.3898 34.7383Z" fill="#3E3A39"/>
<path d="M29.7155 15.5517C35.0836 14.8873 40.0796 17.5714 42.6573 21.9562C37.6082 22.594 23.3642 24.401 18.7136 25.0123C20.1221 20.096 24.3474 16.2426 29.7421 15.5782" fill="white"/>
<path d="M18.6872 25.7563C18.4746 25.7563 18.262 25.65 18.1291 25.4905C17.9696 25.3045 17.9165 25.0387 17.9696 24.7996C19.511 19.4315 24.0818 15.4984 29.6359 14.8341C35.1368 14.1697 40.5049 16.8006 43.3218 21.5841C43.4547 21.7967 43.4547 22.0624 43.3218 22.3016C43.1889 22.5408 43.0029 22.6736 42.7372 22.7267L18.7669 25.7829C18.7669 25.7829 18.7137 25.7829 18.6606 25.7829L18.6872 25.7563ZM31.3101 16.216C30.8052 16.216 30.3003 16.2426 29.7953 16.3223C25.2245 16.8804 21.4243 19.8833 19.7767 24.1087L41.3553 21.3715C39.0167 18.1294 35.2963 16.216 31.3101 16.216Z" fill="#3E3A39"/>
<path d="M28.998 25.9156C28.998 25.9156 28.0679 25.6498 27.2972 26.1548L28.998 25.9156Z" fill="white"/>
<path d="M27.3237 26.7636C27.1377 26.7636 26.9251 26.6573 26.8188 26.4978C26.6328 26.2055 26.7125 25.8335 27.0048 25.674C27.9881 25.0362 29.1308 25.3551 29.184 25.3551C29.5029 25.4348 29.6889 25.7803 29.6092 26.0992C29.5294 26.4181 29.184 26.6041 28.8651 26.5244C28.8651 26.5244 28.1741 26.365 27.6692 26.6839C27.5629 26.737 27.4566 26.7901 27.3503 26.7901L27.3237 26.7636Z" fill="#3E3A39"/>
<path d="M34.7384 25.1187C34.7384 25.1187 33.8083 24.853 33.0376 25.3579L34.7384 25.1187Z" fill="white"/>
<path d="M33.0375 25.9677C32.8515 25.9677 32.6389 25.8614 32.5326 25.702C32.3465 25.4097 32.4263 25.0376 32.7186 24.8781C33.7018 24.2403 34.8446 24.5592 34.8977 24.5592C35.2166 24.6389 35.4026 24.9844 35.3229 25.3033C35.2432 25.6222 34.8977 25.8082 34.5788 25.7285C34.5788 25.7285 33.8879 25.5425 33.3564 25.888C33.2501 25.9411 33.1438 25.9943 33.0375 25.9943V25.9677Z" fill="#3E3A39"/>
<path d="M50.231 44.0918C50.231 44.0918 44.8895 48.0514 38.7507 47.3605C39.3619 48.7424 39.3619 51.2404 39.3088 53.6321C39.3088 53.6321 42.7901 54.3762 48.6896 51.1873" fill="#FBDACF"/>
<path d="M40.3454 54.4578C39.6279 54.4578 39.2027 54.3781 39.1496 54.3781C38.8041 54.2984 38.5383 53.9795 38.5649 53.634C38.5915 51.9066 38.6446 49.01 38.06 47.6813C37.9537 47.4421 37.9803 47.1498 38.1397 46.9372C38.2992 46.7246 38.5649 46.6183 38.8307 46.6449C44.5708 47.2826 49.7262 43.5622 49.7794 43.5091C50.1249 43.2699 50.5766 43.323 50.8424 43.6685C51.1081 44.014 51.0284 44.4657 50.6829 44.7315C50.4703 44.8909 45.6603 48.3989 39.7873 48.2128C40.0797 49.515 40.1062 51.1891 40.0797 52.9696C41.2755 53.0228 44.1721 52.8102 48.3178 50.5513C48.6898 50.3387 49.1416 50.4982 49.3276 50.8703C49.5136 51.2423 49.3808 51.694 49.0087 51.8801C44.8631 54.1123 41.8602 54.4844 40.3188 54.4844L40.3454 54.4578Z" fill="#3E3A39"/>
<path d="M25.7559 60.7552C25.7559 60.7552 25.7028 60.7552 25.6762 60.7552C25.251 60.702 24.9587 60.33 25.0118 59.9314L25.6231 54.2976C25.6762 53.8724 26.0217 53.58 26.4469 53.6332C26.8721 53.6863 27.1644 54.0584 27.1112 54.457L26.5 60.0908C26.4469 60.4894 26.128 60.7552 25.7559 60.7552Z" fill="#3E3A39"/>
<path d="M60.8875 62.2427C60.4623 62.2427 60.1434 61.8972 60.1434 61.4986V55.5458C60.1434 55.1206 60.4889 54.8018 60.8875 54.8018C61.2861 54.8018 61.6316 55.1472 61.6316 55.5458V61.4986C61.6316 61.9238 61.2861 62.2427 60.8875 62.2427Z" fill="#3E3A39"/>
</g>
</g>
</svg>
