<svg width="569" height="55" viewBox="0 0 569 55" fill="none" xmlns="http://www.w3.org/2000/svg">
<path d="M494.716 0.662909C477.339 1.7002 473.914 1.69995 463.778 2.73707C453.641 3.77419 443.08 0.00612719 436.664 4.15459C430.248 8.30306 430.248 20.1823 431.986 27.7878C433.724 35.3933 435.751 36.7762 440.385 38.8504C445.019 40.9246 452.418 38.8504 457.052 38.8504C461.685 38.8504 474.849 41.616 482.379 41.9617C489.909 42.3074 509.574 40.2332 515.974 38.8504C521.498 37.6567 538.853 39.8875 541.17 40.2332C543.487 40.5789 554.736 41.113 560.714 37.085C567.279 32.6616 569.262 19.8367 568.973 13.9597C568.683 8.08269 565.432 2.73707 557.033 0.662834C548.634 -1.4114 538.945 2.04518 530.968 2.04547C521.403 2.04581 512.093 -0.374383 494.716 0.662909Z" fill="#F9D3D0"/>
<path d="M465.646 6.95V23.6H461.656V6.95H465.646ZM459.946 19.67L458.146 22.76C454.996 21.92 452.806 20.18 451.516 17.9C450.286 20.45 448.066 22.43 444.796 23.36L442.936 20.27C447.286 19.04 449.296 16.01 449.446 12.95H443.866V9.83H449.446V6.98H453.406V9.83H458.956V12.95H453.406C453.586 15.74 455.626 18.56 459.946 19.67ZM456.316 31.55C459.886 31.55 461.806 30.86 461.806 29.33C461.806 27.83 459.886 27.11 456.316 27.11C452.716 27.11 450.796 27.83 450.796 29.33C450.796 30.86 452.716 31.55 456.316 31.55ZM456.316 24.08C462.136 24.08 465.736 26.03 465.736 29.33C465.736 32.69 462.136 34.58 456.316 34.58C450.466 34.58 446.866 32.69 446.866 29.33C446.866 26.03 450.466 24.08 456.316 24.08ZM486.794 20.84L484.904 23.93C481.874 23.03 479.774 21.2 478.514 18.86C477.314 21.41 475.154 23.45 472.034 24.44L470.084 21.32C474.524 19.91 476.444 16.64 476.474 13.34H471.074V10.22H476.474V7.16H480.434V10.22H485.894V13.34H480.434C480.464 16.37 482.354 19.52 486.794 20.84ZM478.184 25.64V30.95H493.034V34.1H474.224V25.64H478.184ZM492.044 15.14H495.704V18.38H492.044V27.47H488.084V6.95H492.044V15.14ZM514.768 23.18V28.37H519.538V23.18H514.768ZM514.318 12.29V20.06H519.958V12.29H514.318ZM523.468 28.37H529.708V31.55H504.658V28.37H510.838V23.18H506.788V20.06H510.388V12.29H506.638V9.14H527.638V12.29H523.888V20.06H527.578V23.18H523.468V28.37ZM551.426 28.01V22.88H547.826V19.73H551.426V16.97H547.826V13.82H551.426V6.95H555.386V28.01H551.426ZM547.526 9.86V12.95H532.376V9.86H538.166V6.86H542.126V9.86H547.526ZM537.386 19.34C537.386 20.9 538.526 21.74 540.146 21.74C541.736 21.74 542.876 20.9 542.876 19.34C542.876 17.84 541.736 16.97 540.146 16.97C538.526 16.97 537.386 17.84 537.386 19.34ZM546.596 19.34C546.596 22.55 543.896 24.8 540.146 24.8C536.366 24.8 533.666 22.55 533.666 19.34C533.666 16.16 536.366 13.94 540.146 13.94C543.896 13.94 546.596 16.16 546.596 19.34ZM541.106 30.95H555.986V34.1H537.146V26.3H541.106V30.95Z" fill="#C84935"/>
<rect x="0.776149" y="0.723764" width="196.486" height="46.7291" rx="7.25" transform="matrix(0.99941 -0.0343522 0.0354555 0.999371 5.97449 6.8292)" stroke="#FCBE79" stroke-width="1.5"/>
<rect x="9.99945" y="2.96614" width="197.99" height="48.2281" rx="8" fill="#F69F5D"/>
<path d="M27.0343 23.8602C26.9543 23.8602 26.9143 23.8202 26.9143 23.7802C26.3943 23.3802 26.2343 22.3802 26.2343 21.7802C26.1943 20.8202 26.0743 19.8602 26.0743 18.9402C26.0743 17.5802 26.0343 15.9402 26.2743 14.6202C26.4343 13.7802 26.7543 13.3002 27.5543 12.9802C28.2743 12.7002 29.0343 12.6202 29.7943 12.5402C30.7143 12.4602 31.6743 12.5402 32.6343 12.5402H40.2343C42.9543 12.5402 42.5943 12.5402 45.2743 12.5002C45.7543 12.5002 46.1943 12.5002 46.6743 12.5402C47.6743 12.5802 48.7943 12.6202 49.7143 13.0602C50.7543 13.5002 51.0743 14.6202 51.1143 15.6602C51.1943 16.8602 51.0743 18.3802 51.0743 19.5802C51.0343 20.6602 51.0743 21.7402 50.7943 22.7802C50.6343 23.3802 50.5143 23.8602 49.8743 24.0602C49.3143 24.2602 48.5943 24.3002 48.0343 24.3002H30.7543C30.2343 24.3002 29.7143 24.2602 29.1943 24.2202C28.5143 24.1802 27.6343 24.2602 27.0343 23.8602ZM49.2343 31.5002C46.5943 31.5802 44.5143 31.6602 41.8343 31.6602C41.7943 32.7802 41.7143 33.8202 41.7143 35.3402C41.4743 36.4602 39.9943 37.1402 38.9143 37.1002C37.3143 37.0202 36.4343 36.3802 36.2743 34.7802C36.1543 33.7402 36.3143 32.6202 36.3143 31.5802C33.8743 31.5802 27.4743 31.5002 25.2343 31.3402C24.3943 31.2602 23.9943 31.2202 23.3143 30.5802C22.9543 30.2602 22.7943 29.6602 22.7943 29.1002C22.7943 28.5802 22.9943 28.0602 23.3143 27.7402C24.1143 26.9002 26.0743 26.9402 26.1543 26.9402H49.0343C49.8343 26.9402 50.6343 26.9402 51.3943 26.9802C52.1143 27.0202 52.9143 27.1402 53.4743 27.6602C54.0343 28.1002 54.0343 28.6202 54.0343 29.2602C54.0343 30.0602 53.5543 30.7402 52.7543 31.0202C51.6743 31.4202 50.3543 31.4602 49.2343 31.5002ZM50.3543 39.0602C50.4343 39.1002 51.9143 39.4602 52.0743 40.5802C52.2343 41.5802 52.0743 42.3802 51.5943 42.9402C50.9943 43.7002 50.1143 43.7402 50.0743 43.7402H28.2343C26.1943 43.7402 24.9543 43.0202 24.9543 41.8202V38.2602C24.9143 37.6602 24.9143 37.0602 24.9543 36.4602C25.0343 35.3402 25.8743 34.5802 26.9943 34.5802C27.2743 34.5802 27.8343 34.6202 28.0743 34.7002C29.4343 35.1402 29.5143 36.5002 29.5943 37.7002C29.5943 38.1402 29.6343 38.6202 29.7543 38.9802C29.8743 39.0202 30.6743 39.1402 32.5543 39.1402C34.1543 39.1402 35.6343 39.0602 35.6743 39.0602H50.3543ZM30.8343 19.1802C30.8343 19.4202 30.8343 19.7002 30.9543 19.8202C31.1943 20.0202 32.1143 19.9002 32.1143 19.9002H42.6343C42.6343 19.9002 44.5543 20.0602 45.5143 19.9402C46.0743 19.9002 46.0743 19.6602 46.1543 19.1802C46.1943 18.7402 46.2743 17.8202 45.9543 17.4202C45.5943 16.9802 44.7543 17.0602 44.2743 17.1002H40.6343C40.2743 17.0602 35.4343 17.1002 35.0743 17.1002C33.9543 17.0202 32.8343 17.0602 31.6743 17.1002C31.1943 17.1002 31.0343 17.0202 30.9143 17.5002C30.8343 17.8602 30.8343 18.5002 30.8343 18.8202V19.1802ZM59.2458 36.3002C59.4458 36.2202 63.1258 36.3802 63.8058 36.3802C63.8458 35.7402 63.9258 33.1002 64.0058 31.7802C63.5258 31.6602 63.0858 31.5402 62.6458 31.3402C59.6458 30.1002 57.3258 27.6602 57.3258 24.1402C57.3258 22.2202 57.8858 20.7402 58.8058 19.5802H58.3658C57.0858 19.5802 56.0058 18.6202 56.0058 17.4602C56.0058 16.2602 57.0858 15.3002 58.3658 15.3002H63.6458V13.6602C63.6458 12.6202 64.6858 11.8602 65.9658 11.8602C67.2858 11.8602 68.3258 12.6202 68.3258 13.6602V15.3002H73.8458C75.1658 15.3002 76.2458 16.2602 76.2458 17.4602C76.2458 18.6202 75.1658 19.5802 73.8458 19.5802H73.7258C74.6458 20.7402 75.2458 22.2202 75.2458 24.1402C75.2458 26.6202 74.0458 28.6602 72.0458 30.1802C71.0458 30.9002 69.9258 31.4202 68.7658 31.7402C68.8458 32.9802 68.8458 35.7402 68.8458 36.3402V36.3802H74.1658C75.0458 36.3802 75.7658 36.5402 76.2858 36.8602C77.4858 37.5802 77.4458 39.5402 76.9258 40.5002C76.4458 41.3402 75.4058 41.4202 74.5658 41.4202H58.7658C58.7258 41.4202 57.3658 41.3002 56.6458 40.9802C56.1258 40.7002 55.7258 40.1002 55.6058 39.3402C55.4858 38.5002 55.7658 37.7002 56.2858 37.2202C57.2458 36.4202 58.3258 36.3002 59.2458 36.3002ZM85.7658 25.5402H85.8458C86.1258 25.5002 86.3658 25.5802 86.6058 25.5802C86.9258 25.6202 87.2058 25.6602 87.5258 25.7002C88.1258 25.8202 88.7658 26.0602 89.0858 26.6602C89.2458 26.9802 89.3258 27.3402 89.3258 27.7402C89.3258 28.1002 89.3258 28.5002 89.2458 28.8602C89.1258 29.2602 89.0058 29.8202 88.6858 30.1002C88.3658 30.3402 87.9658 30.5402 87.5658 30.6202C86.7258 30.7402 85.2858 30.6202 84.4458 30.6602C84.3658 30.7002 84.3258 30.7002 84.3258 30.7002C84.3258 30.7002 84.3258 30.7402 84.2858 30.8602C84.2458 32.1802 84.2858 33.3402 84.2858 34.7002C84.3258 36.0602 84.3258 37.4602 84.2858 38.7802V39.3402C84.2858 40.7402 84.3258 42.7802 83.3658 43.7802C83.0058 44.1002 82.5658 44.3002 82.0458 44.3002H81.9658C79.3658 44.1802 79.1258 41.0602 79.1258 39.3802V15.6202C79.1258 15.5402 79.0458 13.5402 79.9258 12.6602C80.3258 12.3002 81.1658 12.1002 81.7258 12.1002C82.3258 12.1002 82.8858 12.3402 83.2458 12.7002C83.9258 13.4602 84.0058 14.3002 84.0458 15.1802C84.0858 15.3402 84.0858 15.5002 84.1258 15.7002C84.2058 16.5402 84.2058 17.5402 84.2458 18.5002C84.2458 19.1002 84.2858 19.6602 84.2858 20.2202V24.5402C84.2858 24.8202 84.2858 25.1402 84.3658 25.4202C84.3658 25.4602 85.1658 25.4602 85.2458 25.5002C85.4058 25.5002 85.6058 25.5402 85.7658 25.5402ZM67.0458 27.3402C68.7658 27.0202 70.2458 26.1802 70.2458 24.1402C70.2458 21.7802 68.2858 20.9002 66.3258 20.8602C64.3258 20.7802 62.3258 21.6202 62.3258 24.1402C62.3258 27.0202 64.8458 27.7802 67.0458 27.3402ZM127.547 41.4202C128.387 41.4602 129.107 41.7802 129.347 42.6202C129.627 43.5802 129.307 44.2602 128.307 44.6202C127.667 44.9002 126.947 44.9002 126.427 44.9002H108.627C107.547 44.9002 106.347 44.9002 105.187 44.8602C103.747 44.8202 103.267 43.8202 103.187 42.6202L103.027 39.8602C102.987 39.2602 102.987 37.8602 103.467 37.3002C104.187 36.5402 105.187 36.4202 106.347 36.4202H107.587C107.827 36.4202 107.987 36.4602 108.147 36.4602H124.787V34.8602H107.747C107.467 34.8602 107.187 34.8202 106.867 34.8602H105.907C105.387 34.8602 104.947 34.8602 104.547 34.7802C104.067 34.6602 103.667 34.6602 103.387 34.2202C103.067 33.6602 102.947 33.0202 103.147 32.3802C103.427 31.5402 104.627 31.4202 105.227 31.3002C105.627 31.2602 106.027 31.2202 106.467 31.2202H107.147C107.427 31.2602 107.627 31.2602 107.907 31.2602H125.187C127.867 31.2602 129.387 32.0202 129.387 33.9002V37.5802C129.387 38.3002 129.067 38.9402 128.227 39.4602C127.547 39.8602 126.827 39.8202 126.147 39.8202H107.947V41.4202H127.547ZM110.387 12.1002C115.827 12.4602 118.867 15.5802 118.467 21.3002C118.107 26.0602 115.547 28.8202 110.467 28.8202C108.507 28.8202 106.267 29.0202 103.827 27.5002C101.507 26.0202 100.787 23.0602 100.787 20.5002C100.787 14.7402 104.867 11.7002 110.387 12.1002ZM129.427 15.5002V27.0202C129.427 27.0602 129.267 28.6202 128.227 29.3002C127.867 29.5002 127.507 29.6202 127.107 29.6202C126.627 29.6202 126.187 29.4602 125.787 29.1802C125.507 28.9802 125.267 28.7002 125.107 28.3402C124.307 26.7402 124.627 24.3802 124.627 22.6202C124.667 20.3402 124.667 18.8602 124.667 16.6202V16.1002C124.627 15.5002 124.627 14.8202 124.787 14.2202C124.907 13.7802 125.147 13.3802 125.507 12.9402C125.947 12.4202 126.787 12.1402 127.667 12.2602C128.427 12.3802 129.027 12.7802 129.267 13.3002C129.587 13.9802 129.467 15.3002 129.427 15.5002ZM113.827 21.7802L113.867 21.4602C114.107 19.5402 113.147 17.7002 111.467 17.1002C109.227 16.3402 105.787 17.0202 105.347 20.0202C105.027 22.0602 105.907 24.3002 108.987 24.5802C111.107 24.8202 113.307 24.2202 113.827 21.7802ZM159.271 28.7402C159.711 28.7402 160.111 28.8602 160.671 28.9802C161.111 29.1002 161.551 29.3002 161.871 29.5002C162.231 29.8602 162.431 30.3002 162.431 30.8202C162.431 31.0602 162.431 31.3802 162.311 31.7002C162.231 32.0202 162.111 32.2602 161.871 32.3802C161.791 32.5802 161.431 32.7002 161.111 32.8202C160.791 32.9002 160.471 33.0202 160.111 33.0202C159.711 33.0202 159.351 33.1402 158.911 33.1402C158.711 33.1402 137.671 33.1402 137.671 33.1402C137.031 33.1402 136.351 33.1402 135.711 33.1402C134.951 33.1402 134.151 32.9002 133.631 32.3802C133.191 31.7002 133.071 30.5002 133.511 29.8602C133.711 29.4202 134.151 29.1802 134.511 29.1002C135.151 28.8602 135.711 28.7402 136.231 28.7402C136.791 28.7402 137.471 28.7402 138.111 28.7402C138.671 28.7402 144.671 28.7402 144.671 28.7402V26.3402C144.591 26.4602 144.351 26.3402 144.031 26.3402H142.831C141.631 26.3402 140.631 26.3402 139.311 26.3402C138.751 26.3402 137.911 26.3402 137.351 26.2202C136.791 26.1402 136.231 26.0202 135.791 25.7002C135.471 25.4602 135.271 25.1402 135.031 24.8202C134.951 24.3802 134.831 24.0602 134.711 23.7002C134.591 23.3802 134.591 23.0602 134.511 22.7402C134.511 22.5002 134.511 22.3002 134.511 22.3002V14.6202C134.511 14.1802 134.711 13.6202 134.951 13.1802C135.151 12.6602 135.591 12.4202 136.151 12.3002C136.471 12.3002 137.111 12.2202 137.471 12.2202C137.791 12.3002 137.991 12.3002 138.311 12.4202C139.311 12.8602 139.311 14.0602 139.311 15.0602C139.311 15.2602 139.311 15.6202 139.311 15.8202C139.311 16.1402 139.311 16.3802 139.311 16.3802C139.311 16.3802 156.191 16.5802 156.511 16.5002C156.511 16.3802 156.391 16.2602 156.511 16.0602C156.511 15.8202 156.511 15.6202 156.511 15.2602V14.8202V14.3002C156.511 13.8602 156.511 13.5402 156.751 13.1002C156.951 12.7402 157.591 12.4202 158.031 12.3002C159.031 12.1002 159.791 12.2202 160.351 12.6602C160.911 13.1802 161.111 13.8602 161.111 14.8202V16.8202C161.111 17.5802 161.111 18.3402 161.111 19.1002C161.111 19.8602 161.111 20.6602 161.111 21.4202C161.111 22.1802 161.111 22.8202 160.991 23.5002C160.991 23.8202 160.911 24.1402 160.791 24.3802C160.671 24.7002 160.551 24.9002 160.351 25.2602C159.911 25.9002 159.031 26.1402 158.391 26.2202C157.951 26.2202 157.591 26.3402 157.191 26.3402C156.391 26.3402 155.751 26.3402 154.991 26.3402C154.671 26.3402 151.911 26.3402 151.471 26.3402C151.151 26.3402 150.711 26.3402 150.391 26.3402C150.391 26.6602 150.391 27.4202 150.391 27.7802V28.7402C151.151 28.7402 151.351 28.7402 152.231 28.7402C153.111 28.7402 153.991 28.7402 154.751 28.7402H157.271C158.031 28.7402 158.711 28.7402 159.271 28.7402ZM144.911 39.1402H159.591C159.711 39.1402 159.711 39.1402 159.911 39.1402C160.031 39.2602 160.231 39.3802 160.471 39.5002C160.671 39.5802 160.791 39.7002 160.991 39.9402C161.111 40.1402 161.231 40.3802 161.351 40.7002C161.431 41.6602 161.351 42.4602 160.911 42.9802C160.551 43.4202 160.231 43.6602 159.911 43.6602C159.591 43.7802 159.351 43.7802 159.351 43.7802H137.471C136.471 43.7802 135.711 43.6602 135.151 43.3402C134.511 42.9802 134.271 42.4602 134.271 41.9002V38.3002C134.151 37.7402 134.151 37.1802 134.271 36.5402C134.271 35.9802 134.511 35.5402 134.831 35.2202C135.271 34.7802 135.711 34.6602 136.231 34.6602C136.351 34.6602 136.591 34.6602 136.791 34.6602C137.031 34.6602 137.231 34.6602 137.351 34.7802C137.671 34.9002 137.991 34.9802 138.111 35.2202C138.311 35.4202 138.431 35.6602 138.551 35.9802C138.671 36.3002 138.751 36.5402 138.751 36.8602C138.751 37.1802 138.871 37.5002 138.871 37.7402C138.871 37.9402 138.871 38.1802 138.871 38.3802C138.871 38.6202 138.991 38.8202 138.991 39.0602C139.111 39.0602 139.311 39.1402 139.751 39.1402C140.191 39.1402 140.831 39.1402 141.831 39.1402C142.591 39.1402 143.351 39.1402 143.911 39.1402C144.591 39.1402 144.911 39.1402 144.911 39.1402ZM139.551 22.3002C139.751 22.6202 140.071 22.7402 140.511 22.7402C140.831 22.7402 141.191 22.7402 141.511 22.7402C142.711 22.7402 143.711 22.7402 144.791 22.7402C145.231 22.7402 145.671 22.7402 146.111 22.7402H147.431H148.511C148.831 22.7402 155.751 22.7402 155.871 22.7402C156.071 22.7402 156.191 22.7402 156.311 22.6202C156.391 22.5002 156.511 22.3002 156.511 22.0602C156.511 21.8602 156.511 21.7402 156.511 21.5402C156.511 21.4202 156.511 20.3002 156.511 20.3002C156.511 20.3002 146.751 20.3002 146.111 20.3002C145.351 20.3002 141.511 20.3002 140.831 20.3002C140.391 20.3002 139.311 20.3002 139.311 20.3002C139.311 20.3002 139.311 21.3402 139.311 21.4602C139.431 21.6602 139.431 22.1802 139.551 22.3002ZM172.928 12.1402C173.608 12.1402 174.248 12.2202 174.888 12.3002C175.888 12.4602 176.808 12.9402 177.568 13.7002C180.168 16.4202 180.728 21.1002 180.888 24.9002C181.008 27.3402 180.968 29.8202 180.688 32.2202C180.408 34.7002 180.048 37.3802 178.728 39.4202C177.608 41.1402 175.848 42.2602 174.048 42.6202C172.408 42.9402 170.608 42.7402 169.088 41.8602C167.648 41.0202 166.688 39.7002 165.968 38.0202C165.448 36.7802 165.128 35.4202 165.048 34.0602C164.848 31.8202 164.768 29.5802 164.768 27.3402C164.768 25.8202 164.768 24.3402 164.928 22.8602C165.008 21.6602 165.208 20.4202 165.408 19.2602C165.608 18.3002 165.728 17.4602 166.128 16.5802C166.528 15.7002 167.048 14.8602 167.728 14.2202C168.888 13.0602 170.408 12.4202 171.928 12.2202C172.248 12.1802 172.608 12.1802 172.928 12.1402ZM187.288 29.6202C186.568 29.5002 185.048 29.5002 184.328 29.4202C182.488 29.3002 181.608 27.9402 182.168 25.9002C182.288 25.5002 182.688 24.9402 183.008 24.6602C183.328 24.4202 183.688 24.2202 184.128 24.1402C184.968 24.0202 186.368 24.1402 187.248 24.0602H187.368V23.9002C187.408 22.5802 187.408 22.9002 187.368 21.5402C187.368 20.1802 187.328 18.7802 187.368 17.4602V16.9002C187.368 15.5002 187.368 13.4202 188.328 12.4602C188.688 12.1402 189.088 11.9402 189.608 11.9402H189.688C192.288 12.0602 192.568 15.1802 192.568 16.8602V40.8602C192.568 40.9402 192.648 42.9802 191.728 43.8202C191.368 44.1802 190.528 44.4202 189.968 44.4202C189.368 44.4202 188.808 44.1802 188.448 43.7802C187.768 43.0602 187.688 42.2202 187.608 41.3402C187.608 41.1802 187.568 41.0202 187.568 40.8202C187.488 39.9802 187.488 38.9802 187.448 38.0202C187.408 37.4202 187.408 36.8602 187.408 36.3002V35.3802C187.408 34.2602 187.368 31.6202 187.368 30.5002C187.368 30.2202 187.408 29.8602 187.288 29.6202ZM172.808 37.3002C173.288 37.3002 173.808 37.1402 174.288 36.8202C175.168 36.1802 175.488 35.0602 175.728 33.7802C176.168 31.3402 176.128 28.3802 176.048 25.8602C176.008 23.8202 175.968 21.1802 175.008 19.5402C174.488 18.6602 173.688 18.1002 172.848 18.2202C171.968 18.3002 171.168 18.8602 170.688 19.9002L170.328 20.7402C170.008 21.7402 169.848 22.8602 169.768 23.9402C169.688 25.0202 169.608 26.1402 169.608 27.2202C169.648 28.3002 169.528 29.3002 169.608 30.3402C169.808 33.1002 170.168 37.2602 172.808 37.3002Z" fill="#FFFFFE"/>
<ellipse cx="3" cy="5.56732" rx="3" ry="2.95274" fill="#FCBE79"/>
<path d="M209.989 37.0638V43.9535C210.156 47.0703 208.489 53.3039 200.49 53.3039C192.49 53.3039 190.157 53.3039 188.99 53.3039" stroke="#FCC17E" stroke-width="1.5" stroke-linecap="round"/>
</svg>
