<svg width="355" height="53" viewBox="0 0 355 53" fill="none" xmlns="http://www.w3.org/2000/svg">
<path d="M2.00483 50.5488L78.5564 50.6566L155.889 48.8125L193.569 48.8636L231.655 50.8608L309.771 49.0214" stroke="#EE9D67" stroke-width="3" stroke-linecap="round"/>
<path d="M322.537 32.16C323.711 32.16 324.764 32.4533 325.697 33.04C326.631 33.6 327.377 34.3467 327.937 35.28C328.497 36.2133 328.777 37.2667 328.777 38.44C328.777 39.5867 328.497 40.64 327.937 41.6C327.377 42.5333 326.631 43.28 325.697 43.84C324.764 44.4 323.711 44.68 322.537 44.68C321.391 44.68 320.337 44.4 319.377 43.84C318.444 43.28 317.684 42.5333 317.097 41.6C316.537 40.64 316.257 39.5867 316.257 38.44C316.257 37.2667 316.537 36.2133 317.097 35.28C317.684 34.3467 318.444 33.6 319.377 33.04C320.337 32.4533 321.391 32.16 322.537 32.16ZM322.537 42.28C323.604 42.28 324.511 41.9067 325.257 41.16C326.004 40.4133 326.377 39.5067 326.377 38.44C326.377 37.72 326.204 37.08 325.857 36.52C325.537 35.9333 325.084 35.4667 324.497 35.12C323.911 34.7733 323.257 34.6 322.537 34.6C321.844 34.6 321.204 34.7733 320.617 35.12C320.031 35.4667 319.564 35.9333 319.217 36.52C318.871 37.08 318.697 37.72 318.697 38.44C318.697 39.1333 318.871 39.7867 319.217 40.4C319.564 40.9867 320.031 41.4533 320.617 41.8C321.204 42.12 321.844 42.28 322.537 42.28Z" fill="#1E1E1E"/>
</svg>
