<svg width="52" height="40" viewBox="0 0 52 40" fill="none" xmlns="http://www.w3.org/2000/svg">
<path d="M6.74453 19.04V21.04C6.74453 27.12 8.10453 33.16 12.2245 38.8H7.42453C3.46453 34.08 1.54453 27.84 1.54453 20.84V19.24C1.54453 12.24 3.46453 6.08 7.42453 1.36H12.2245C8.30453 6.64 6.74453 12.64 6.74453 19.04ZM19.7177 10.64L16.2377 7.92C18.1577 5.44 20.6377 3.76 24.7977 3.76C30.1977 3.76 33.7177 6.64 33.7177 10.96V11.36C33.7177 13.64 32.8377 16.72 29.5577 17.96C33.3577 18.64 35.1577 21.2 35.1577 24.48V25.08C35.1577 29.44 31.7577 33.48 24.6777 33.48C21.3177 33.48 18.1577 32.44 15.4377 30.28L17.9577 26.28C20.7577 28.32 22.3977 28.92 24.7177 28.92C28.3177 28.92 29.9977 27.36 29.9977 24.84V24.32C29.9977 21.52 28.4377 20.24 24.7577 20.24H20.8777V15.84H24.3177C27.9177 15.84 28.7177 14.16 28.7177 11.68V11.36C28.7177 9.2 27.1977 8.24 24.7977 8.24C22.3577 8.24 20.9977 9.24 19.7177 10.64ZM45.2423 21.04V19.04C45.2423 12.64 43.6823 6.64 39.7623 1.36H44.5623C48.5223 6.08 50.4423 12.24 50.4423 19.24V20.84C50.4423 27.84 48.5223 34.08 44.5623 38.8H39.7623C43.8823 33.16 45.2423 27.12 45.2423 21.04Z" fill="#1E1E1E"/>
</svg>
