<svg width="30" height="30" viewBox="0 0 30 30" fill="none" xmlns="http://www.w3.org/2000/svg">
<g clip-path="url(#clip0_179_2)">
<path d="M13 10C13 8.89543 12.1046 8 11 8C9.89543 8 9 8.89543 9 10V20C9 21.1046 9.89543 22 11 22C12.1046 22 13 21.1046 13 20V10Z" fill="#5C5C5C"/>
<path d="M21 10C21 8.89543 20.1046 8 19 8C17.8954 8 17 8.89543 17 10V20C17 21.1046 17.8954 22 19 22C20.1046 22 21 21.1046 21 20V10Z" fill="#5C5C5C"/>
</g>
<defs>
<clipPath id="clip0_179_2">
<rect width="30" height="30" fill="white"/>
</clipPath>
</defs>
</svg>
