<svg width="23" height="33" viewBox="0 0 23 33" fill="none" xmlns="http://www.w3.org/2000/svg">
<path d="M22.32 22.16C22.32 23.8667 22.0133 25.3867 21.4 26.72C20.8133 28.0533 20 29.1867 18.96 30.12C17.9467 31.0267 16.7467 31.72 15.36 32.2C14 32.68 12.56 32.92 11.04 32.92C10.16 32.92 9.25333 32.8533 8.32 32.72C7.41333 32.6133 6.53333 32.4267 5.68 32.16C4.85333 31.8933 4.09333 31.5333 3.4 31.08C2.70667 30.6267 2.12 30.08 1.64 29.44C1.10667 28.6933 0.866667 27.8533 0.92 26.92C1 25.9867 1.38667 25.2133 2.08 24.6C2.64 24.0933 3.28 23.8133 4 23.76C4.72 23.7067 5.38667 23.76 6 23.92C6.37333 24.0267 6.70667 24.2 7 24.44C7.32 24.68 7.58667 24.8667 7.8 25C8.25333 25.2933 8.72 25.48 9.2 25.56C9.70667 25.6133 10.2667 25.64 10.88 25.64C11.8933 25.64 12.7467 25.2933 13.44 24.6C14.1333 23.9067 14.48 23.0133 14.48 21.92C14.48 21.3333 14.3467 20.8267 14.08 20.4C13.84 19.9467 13.4933 19.5733 13.04 19.28C12.6133 18.96 12.1067 18.72 11.52 18.56C10.96 18.4 10.3467 18.32 9.68 18.32H7.76C7.17333 18.32 6.62667 18.1067 6.12 17.68C5.64 17.2533 5.33333 16.76 5.2 16.2C5.01333 15.48 5.01333 14.8133 5.2 14.2C5.38667 13.56 5.82667 12.9333 6.52 12.32L12.68 6.8H4.8C4.21333 6.8 3.70667 6.70666 3.28 6.52C2.88 6.30667 2.54667 6.04 2.28 5.72C2.01333 5.4 1.81333 5.05333 1.68 4.68C1.57333 4.28 1.52 3.88 1.52 3.48C1.52 3.10666 1.57333 2.72 1.68 2.32C1.81333 1.92 2.01333 1.56 2.28 1.24C2.54667 0.919999 2.88 0.653332 3.28 0.439999C3.70667 0.226665 4.21333 0.119998 4.8 0.119998H17.24C18.3067 0.119998 19.2 0.399998 19.92 0.959999C20.6667 1.52 21.1867 2.2 21.48 3C21.8 3.8 21.88 4.65333 21.72 5.56C21.56 6.44 21.1467 7.21333 20.48 7.88L14.88 13.44C15.7867 13.5467 16.68 13.8267 17.56 14.28C18.4667 14.7333 19.2667 15.3333 19.96 16.08C20.68 16.8267 21.2533 17.72 21.68 18.76C22.1067 19.7733 22.32 20.9067 22.32 22.16Z" fill="#507944"/>
</svg>
