<svg width="37" height="40" viewBox="0 0 37 40" fill="none" xmlns="http://www.w3.org/2000/svg">
<path d="M10.3628 2.98675L2.91552 10.5953L21.5812 29.6652L29.0284 22.0566L10.3628 2.98675ZM20.7255 32.2877L0.348596 11.4694C0.126764 11.2428 0 10.919 0 10.5953C0 10.2715 0.126764 9.94774 0.348596 9.72111L9.50712 0.364238C9.98248 -0.121413 10.743 -0.121413 11.1867 0.364238L31.5636 21.1825C31.7855 21.4091 31.9122 21.7329 31.9122 22.0566C31.9122 22.3804 31.7855 22.7042 31.5636 22.9308L22.4051 32.2877C22.1833 32.5143 21.8664 32.6438 21.5495 32.6438C21.2326 32.6438 20.9474 32.5143 20.6938 32.2877" fill="#9FA0A0"/>
<path d="M33.8151 35.8241C34.132 35.8241 34.4489 35.6946 34.6707 35.468C34.9559 35.1766 35.0827 34.7233 34.9876 34.3348L32.1989 22.1288C32.0404 21.4813 31.4066 21.0604 30.7728 21.2222C30.139 21.3841 29.727 22.0317 29.8855 22.7116L32.2622 33.0074L22.1847 30.5791C21.5509 30.4172 20.8854 30.8381 20.7586 31.4857C20.6002 32.1332 21.0121 32.8131 21.646 32.975L33.5932 35.8241C33.5932 35.8241 33.7834 35.8241 33.8785 35.8241" fill="#9FA0A0"/>
<path d="M4.59497 15.3245C4.91188 15.3245 5.19708 15.195 5.45061 14.9683L14.6091 5.61145C15.0845 5.1258 15.0845 4.34876 14.6091 3.89549C14.1338 3.40984 13.3732 3.40984 12.8979 3.89549L3.73933 13.2524C3.26397 13.738 3.26397 14.515 3.73933 14.9683C3.96116 15.195 4.27807 15.3245 4.59497 15.3245Z" fill="#9FA0A0"/>
<path d="M32.2832 29.9478L29.2148 33.0859L30.9188 34.825L33.9871 31.6869L32.2832 29.9478Z" fill="#9FA0A0"/>
<path d="M11.5187 7.54889L10.3086 8.78516L27.0253 25.8639L28.2354 24.6277L11.5187 7.54889Z" fill="#9FA0A0"/>
<path d="M8.44638 10.6387L7.23633 11.875L23.9531 28.9538L25.1631 27.7175L8.44638 10.6387Z" fill="#9FA0A0"/>
<path d="M1.20423 39.9997H35.7468C36.4123 39.9997 36.951 39.4493 36.951 38.7694C36.951 38.0895 36.4123 37.5391 35.7468 37.5391H1.20423C0.538734 37.5391 0 38.0895 0 38.7694C0 39.4493 0.538734 39.9997 1.20423 39.9997Z" fill="#9FA0A0"/>
</svg>
