<svg width="13" height="20" viewBox="0 0 13 20" fill="none" xmlns="http://www.w3.org/2000/svg">
<path d="M4.71875 2.22658C4.71875 1.29125 5.46704 0.542969 6.40238 0.542969C7.33771 0.542969 8.08598 1.31203 8.08598 2.22658V18.1896C8.08598 19.125 7.31693 19.8732 6.40238 19.8732C5.48783 19.8732 4.71875 19.125 4.71875 18.1896V2.22658Z" fill="#9FA0A0"/>
<path d="M9.43699 12.7918C10.1021 12.1267 11.1622 12.1267 11.8273 12.7918C12.4924 13.4569 12.4924 14.517 11.8273 15.1821L7.60788 19.4015C6.94276 20.0666 5.88272 20.0666 5.2176 19.4015C4.55247 18.7364 4.55247 17.6764 5.2176 17.0112L9.43699 12.7918Z" fill="#9FA0A0"/>
<path d="M3.38913 12.7918C2.72401 12.1267 1.66397 12.1267 0.998845 12.7918C0.333718 13.4569 0.333718 14.517 0.998845 15.1821L5.21824 19.4015C5.88337 20.0666 6.9434 20.0666 7.60853 19.4015C8.27366 18.7364 8.27366 17.6764 7.60853 17.0112L3.38913 12.7918Z" fill="#9FA0A0"/>
<path d="M10.5598 12.293H2.05859L2.78609 14.808H9.66599L10.5598 12.293Z" fill="#9FA0A0"/>
</svg>
