<svg width="118" height="70" viewBox="0 0 118 70" fill="none" xmlns="http://www.w3.org/2000/svg">
<path d="M75.3482 65.1445H8.93945V68.5325H75.3482V65.1445Z" fill="#595757"/>
<path d="M51.6111 50.0977H32.6758V67.6404H51.6111V50.0977Z" fill="#51514F"/>
<path d="M117.273 69.6632H87.7585V4.14817C87.7585 2.21514 89.3173 0.65625 91.2504 0.65625H113.761C115.694 0.65625 117.253 2.21514 117.253 4.14817V69.6632H117.273Z" fill="#767676"/>
<path d="M112.909 6.97266H92.1235V10.4022H112.909V6.97266Z" fill="#51514F"/>
<path d="M112.908 13.0625H92.1232V16.4921H112.908V13.0625Z" fill="#51514F"/>
<path d="M105.176 36.5312C105.176 38.1108 103.908 39.3787 102.329 39.3787C100.749 39.3787 99.481 38.1108 99.481 36.5312C99.481 34.9515 100.749 33.6836 102.329 33.6836C103.908 33.6836 105.176 34.9515 105.176 36.5312Z" fill="#ED797A"/>
<path d="M83.4559 3.23047H0.855469V52.9695H83.4559V3.23047Z" fill="#595757"/>
<path d="M79.6527 6.01562H4.65967V50.1842H79.6527V6.01562Z" fill="#319BD6"/>
<path d="M11.3522 15.3516H8.37988V18.3238H11.3522V15.3516Z" fill="white"/>
<path d="M11.3522 20.4844H8.37988V23.4567H11.3522V20.4844Z" fill="#FFF89B"/>
<path d="M11.3522 25.6211H8.37988V28.5934H11.3522V25.6211Z" fill="#ED797A"/>
<path d="M11.3522 30.7539H8.37988V33.7262H11.3522V30.7539Z" fill="#96D5F4"/>
<path d="M18.1075 22.1719H15.1353V25.1442H18.1075V22.1719Z" fill="#96D5F4"/>
<path d="M18.1075 28.3594H15.1353V31.3317H18.1075V28.3594Z" fill="#767676"/>
<path d="M18.1075 34.5781H15.1353V37.5504H18.1075V34.5781Z" fill="#ED797A"/>
</svg>
