<svg width="961" height="105" viewBox="0 0 961 105" fill="none" xmlns="http://www.w3.org/2000/svg">
<path d="M465 51L715 51" stroke="#DEF0EB" stroke-width="2.71583" stroke-linecap="round" stroke-linejoin="round" stroke-dasharray="5.43 5.43"/>
<rect x="526" y="1" width="434" height="103" rx="10" fill="white"/>
<rect x="526" y="1" width="434" height="103" rx="10" stroke="#DEF0EB" stroke-width="2"/>
<path d="M75.9833 8H10C4.47715 8 0 12.4772 0 18V85C0 90.5229 4.47714 95 9.99999 95H75.9833C81.5062 95 85.9833 90.5229 85.9833 85V18C85.9833 12.4772 81.5062 8 75.9833 8Z" fill="#DEF0EB"/>
<path d="M171.966 8H105.982C100.46 8 95.9824 12.4772 95.9824 18V85C95.9824 90.5229 100.46 95 105.982 95H171.966C177.489 95 181.966 90.5229 181.966 85V18C181.966 12.4772 177.489 8 171.966 8Z" fill="#DEF0EB"/>
<path d="M267.95 8H201.967C196.444 8 191.967 12.4772 191.967 18V85C191.967 90.5229 196.444 95 201.967 95H267.95C273.473 95 277.95 90.5229 277.95 85V18C277.95 12.4772 273.473 8 267.95 8Z" fill="#DEF0EB"/>
<path d="M363.933 8H297.949C292.426 8 287.949 12.4772 287.949 18V85C287.949 90.5229 292.426 95 297.949 95H363.933C369.455 95 373.933 90.5229 373.933 85V18C373.933 12.4772 369.455 8 363.933 8Z" fill="#DEF0EB"/>
</svg>
