<svg width="140" height="112" viewBox="0 0 140 112" fill="none" xmlns="http://www.w3.org/2000/svg">
<g style="mix-blend-mode:multiply">
<mask id="mask0_3860_40512" style="mask-type:luminance" maskUnits="userSpaceOnUse" x="-9" y="-70" width="97" height="151">
<path d="M87.6334 -69.4004H-8.07031V80.3228H87.6334V-69.4004Z" fill="white"/>
</mask>
<g mask="url(#mask0_3860_40512)">
<path d="M39.7809 -63.2402C17.8099 -63.2402 0 -45.7634 0 -24.2034V40.4062C0 61.9662 17.8099 79.443 39.7809 79.443C61.7519 79.443 79.5618 61.9662 79.5618 40.4062V-24.2034C79.5618 -45.7634 61.7519 -63.2402 39.7809 -63.2402Z" fill="#C8E7F2"/>
</g>
</g>
<path d="M47.8611 111.395C62.3619 111.395 74.1186 100.008 74.1186 85.9545C74.1186 71.9009 62.3619 60.5137 47.8611 60.5137C33.3602 60.5137 21.6035 71.9009 21.6035 85.9545C21.6035 100.008 33.3602 111.395 47.8611 111.395Z" fill="#81CDE4"/>
<mask id="mask1_3860_40512" style="mask-type:luminance" maskUnits="userSpaceOnUse" x="21" y="60" width="54" height="52">
<path d="M21.6035 85.9457C21.6035 99.9993 33.3602 111.386 47.8611 111.386C62.3619 111.386 74.1186 99.9993 74.1186 85.9457C74.1186 71.8921 62.3619 60.5049 47.8611 60.5049C33.3602 60.5049 21.6035 71.8921 21.6035 85.9457Z" fill="white"/>
</mask>
<g mask="url(#mask1_3860_40512)">
<g style="mix-blend-mode:multiply">
<mask id="mask2_3860_40512" style="mask-type:luminance" maskUnits="userSpaceOnUse" x="27" y="76" width="95" height="85">
<path d="M121.459 76.8369H27.7461V160.191H121.459V76.8369Z" fill="white"/>
</mask>
<g mask="url(#mask2_3860_40512)">
<path d="M73.7229 78.7024C94.6447 78.2536 111.979 94.5336 112.437 115.064C112.894 135.594 96.3037 152.605 75.382 153.045C54.4602 153.494 37.1256 137.214 36.6772 116.683C36.2198 96.1528 52.8102 79.1424 73.7319 78.6936" fill="#CBE9F3"/>
</g>
</g>
<g opacity="0.3">
<mask id="mask3_3860_40512" style="mask-type:luminance" maskUnits="userSpaceOnUse" x="-11" y="75" width="88" height="78">
<path d="M76.7112 75.0244H-10.3477V152.684H76.7112V75.0244Z" fill="white"/>
</mask>
<g mask="url(#mask3_3860_40512)">
<path d="M32.3559 76.8195C51.4752 76.4147 67.3122 91.4803 67.7427 110.479C68.1641 129.479 53.0087 145.213 33.8894 145.618C14.7702 146.023 -1.06683 130.957 -1.49728 111.958C-1.91876 92.9587 13.2367 77.2243 32.3559 76.8195Z" fill="#AEDDEC"/>
</g>
</g>
<g style="mix-blend-mode:multiply">
<mask id="mask4_3860_40512" style="mask-type:luminance" maskUnits="userSpaceOnUse" x="8" y="76" width="89" height="79">
<path d="M96.3044 76.3359H8.33984V154.049H96.3044V76.3359Z" fill="white"/>
</mask>
<g mask="url(#mask4_3860_40512)">
<path d="M51.4917 78.1397C70.862 77.7261 86.9053 92.8005 87.3268 111.8C87.7483 130.808 72.3866 146.551 53.0252 146.964C33.6549 147.378 17.6116 132.304 17.1901 113.296C16.7686 94.2877 32.1304 78.5445 51.5007 78.1309" fill="#DAEFF6"/>
</g>
</g>
</g>
<path d="M98.6232 83.1987C97.9569 82.5569 97.3786 81.9627 96.9009 81.4398C96.4231 80.9169 95.9077 80.394 95.3671 79.8592C94.7385 79.2888 94.1727 78.9916 93.6699 78.9441C93.167 78.9085 92.5761 79.1818 91.9098 79.7879C91.1932 80.4296 90.5017 81.107 89.8102 81.7844C89.1188 82.4737 88.5279 83.0561 88.025 83.5433C87.3587 84.1138 86.6421 84.3158 85.8878 84.1494C85.1335 83.983 84.53 83.7097 84.0648 83.3056C83.562 82.7352 83.3482 82.1172 83.4111 81.4279C83.4739 80.7386 83.7757 80.192 84.3163 79.7879C84.5677 79.5859 84.8192 79.3957 85.0706 79.2175C85.322 79.0392 85.5986 78.849 85.8878 78.647C86.7301 78.0053 87.5473 77.3397 88.3393 76.6505C89.1314 75.9612 89.7725 75.153 90.2503 74.2261C90.728 73.2991 90.9292 72.1463 90.8412 70.7678C90.7531 70.0428 90.992 69.4367 91.5326 68.9495C92.0732 68.4622 92.7018 68.2245 93.4184 68.2245C94.1727 68.2245 94.8265 68.4622 95.3671 68.9495C95.9077 69.4367 96.1465 70.0428 96.0585 70.7678C95.9705 72.182 96.1465 73.3347 96.5614 74.2261C96.9763 75.1174 97.5798 75.878 98.3466 76.5316C99.1261 77.1734 99.9684 77.827 100.886 78.4687C101.138 78.5876 101.364 78.7302 101.578 78.8966C101.791 79.063 102.018 79.2175 102.269 79.3838C102.81 79.7879 103.099 80.394 103.111 81.2021C103.137 82.0103 102.898 82.652 102.395 83.1392C101.892 83.6622 101.251 83.9355 100.484 83.9593C99.7044 83.983 99.0884 83.7216 98.6358 83.1987H98.6232ZM94.8013 97.1389C94.8013 95.6415 95.1911 94.3223 95.958 93.1695C96.7374 92.0168 97.7809 91.1136 99.101 90.4718C100.421 89.8301 101.854 89.4973 103.401 89.4973C104.947 89.4973 106.368 89.8182 107.637 90.4718C108.92 91.1136 109.951 92.0168 110.743 93.1695C111.535 94.3223 111.937 95.6415 111.937 97.1389C111.937 98.6363 111.535 99.9673 110.743 101.144C109.951 102.32 108.907 103.224 107.637 103.865C106.355 104.507 104.947 104.84 103.401 104.84C101.854 104.84 100.421 104.519 99.101 103.865C97.7809 103.224 96.7374 102.309 95.958 101.144C95.1785 99.9673 94.8013 98.6363 94.8013 97.1389ZM100.132 97.1389C100.132 98.0659 100.446 98.7908 101.075 99.3256C101.703 99.8485 102.483 100.11 103.401 100.11C104.318 100.11 105.098 99.8485 105.726 99.3256C106.355 98.8027 106.669 98.0777 106.669 97.1389C106.669 96.2 106.355 95.487 105.726 94.9522C105.098 94.4293 104.318 94.1678 103.401 94.1678C102.483 94.1678 101.703 94.4293 101.075 94.9522C100.446 95.4751 100.132 96.2 100.132 97.1389ZM113.207 86.4787C113.207 87.2512 112.968 87.8692 112.49 88.3564C112.012 88.8437 111.396 89.0814 110.642 89.0814C109.85 89.0814 109.184 88.8437 108.668 88.3564C108.14 87.8692 107.889 87.2512 107.889 86.4787V80.1088C107.889 79.1818 107.424 78.7183 106.506 78.7183H104.746C103.954 78.7183 103.325 78.4925 102.86 78.0528C102.395 77.6131 102.169 77.0189 102.169 76.2939C102.169 75.6878 102.37 75.1412 102.759 74.6539C103.162 74.1666 103.815 73.929 104.733 73.929H106.493C107.084 73.929 107.461 73.7982 107.625 73.5368C107.788 73.2753 107.876 72.8832 107.876 72.3602V70.4231C107.876 70.2211 107.939 69.924 108.065 69.5437C108.191 69.1634 108.455 68.7831 108.844 68.4266C109.247 68.0582 109.837 67.8799 110.63 67.8799C111.422 67.8799 112.05 68.1176 112.515 68.581C112.98 69.0445 113.207 69.6625 113.207 70.435V86.5025V86.4787ZM131.235 87.0848C131.235 88.095 131.776 88.606 132.869 88.606H137.27C138.15 88.606 138.803 88.8556 139.243 89.3666C139.683 89.8776 139.897 90.4124 139.897 90.971C139.897 91.6127 139.658 92.1832 139.181 92.6704C138.703 93.1577 138.062 93.3954 137.27 93.3954H119.87C119.116 93.3954 118.5 93.1577 118.022 92.6704C117.544 92.1832 117.305 91.6246 117.305 90.971C117.305 90.4005 117.519 89.8657 117.934 89.3666C118.349 88.8675 119.002 88.606 119.883 88.606H124.346C125.439 88.606 125.98 88.1187 125.98 87.1561V85.9439C125.98 85.219 126.169 84.6486 126.546 84.2445H124.66C123.491 84.2445 122.523 83.8761 121.768 83.1511C121.014 82.4262 120.637 81.4992 120.637 80.3583V72.8475C120.637 71.7185 121.014 70.8034 121.768 70.126C122.523 69.4367 123.491 69.0921 124.66 69.0921H132.706C133.875 69.0921 134.831 69.4367 135.56 70.126C136.289 70.8153 136.654 71.7185 136.654 72.8475V80.3583C136.654 81.4873 136.289 82.4143 135.56 83.1511C134.831 83.8761 133.875 84.2445 132.706 84.2445H130.632C131.046 84.6842 131.26 85.2546 131.26 85.9439V87.0967L131.235 87.0848ZM125.829 77.5061C125.829 78.029 125.905 78.4687 126.043 78.8134C126.194 79.158 126.558 79.3244 127.137 79.3244H129.777C130.443 79.3244 130.87 79.158 131.059 78.8134C131.248 78.4687 131.336 78.0409 131.336 77.5061V75.5096C131.336 75.0698 131.248 74.6777 131.059 74.3568C130.87 74.0359 130.418 73.8696 129.714 73.8696H127.325C126.734 73.8696 126.345 74.0478 126.131 74.3806C125.917 74.7252 125.816 75.0936 125.816 75.4977V77.4942L125.829 77.5061Z" fill="#81CDE4"/>
</svg>
