<svg width="295" height="300" viewBox="0 0 295 300" fill="none" xmlns="http://www.w3.org/2000/svg">
<g clip-path="url(#clip0_30_24060)">
<path d="M166.942 46.6025H150.192V64.1989H166.942V46.6025Z" fill="#F29988"/>
<path d="M166.942 67.4951H150.192V85.0915H166.942V67.4951Z" fill="#F29988"/>
<path d="M146.487 46.6025H129.737V64.1989H146.487V46.6025Z" fill="#F29988"/>
<path d="M146.487 67.4951H129.737V85.0915H146.487V67.4951Z" fill="#F29988"/>
<path d="M45.0221 70.6895L45.4789 26.9775H73.3449V53.9552L45.0221 70.6895Z" fill="#F29988"/>
<mask id="mask0_30_24060" style="mask-type:luminance" maskUnits="userSpaceOnUse" x="0" y="0" width="295" height="300">
<path d="M294.7 0H0V300H294.7V0Z" fill="white"/>
</mask>
<g mask="url(#mask0_30_24060)">
<path d="M291.451 105.02L147.35 6.94726L3.19774 105.02L0 100.304L147.35 0L294.7 100.304L291.451 105.02Z" fill="#F29988"/>
<path d="M283.381 300H277.645V97.7692L147.35 7.96191L15.7349 97.3635V299.595H9.99927V94.3209L147.35 1.01465L283.381 94.7773V300Z" fill="#F29988"/>
<path d="M192.88 198.783C192.88 200.963 191.103 202.738 188.92 202.738C186.738 202.738 184.961 200.963 184.961 198.783C184.961 196.602 186.738 194.827 188.92 194.827C191.103 194.827 192.88 196.602 192.88 198.783Z" fill="#4C4948"/>
<path d="M196.077 205.121C196.077 207.302 194.301 209.077 192.118 209.077C189.936 209.077 188.159 207.302 188.159 205.121C188.159 202.941 189.936 201.166 192.118 201.166C194.301 201.166 196.077 202.941 196.077 205.121Z" fill="#4C4948"/>
<path d="M199.681 211.055C199.681 213.236 197.905 215.01 195.722 215.01C193.539 215.01 191.763 213.236 191.763 211.055C191.763 208.874 193.539 207.1 195.722 207.1C197.905 207.1 199.681 208.874 199.681 211.055Z" fill="#4C4948"/>
<path d="M160.699 198.783C160.699 200.963 162.476 202.738 164.658 202.738C166.841 202.738 168.617 200.963 168.617 198.783C168.617 196.602 166.841 194.827 164.658 194.827C162.476 194.827 160.699 196.602 160.699 198.783Z" fill="#4C4948"/>
<path d="M157.248 204.108C157.248 206.288 159.024 208.063 161.207 208.063C163.389 208.063 165.166 206.288 165.166 204.108C165.166 201.927 163.389 200.152 161.207 200.152C159.024 200.152 157.248 201.927 157.248 204.108Z" fill="#4C4948"/>
<path d="M153.593 209.686C153.593 211.866 155.37 213.641 157.552 213.641C159.735 213.641 161.511 211.866 161.511 209.686C161.511 207.505 159.735 205.73 157.552 205.73C155.37 205.73 153.593 207.505 153.593 209.686Z" fill="#4C4948"/>
<path d="M195.62 244.524L186.89 243.814C186.89 243.814 187.601 234.99 187.804 232.15C187.042 230.477 184.86 226.217 182.982 222.668C181.865 220.538 182.626 217.901 184.758 216.735C186.89 215.619 189.53 216.43 190.697 218.56C196.686 229.716 196.636 230.376 196.636 231.643C196.636 232.404 195.671 244.524 195.671 244.524H195.62Z" fill="#FBDACF"/>
<path d="M176.891 281.39C176.891 281.39 177.551 284.483 176.688 287.221C175.825 289.96 169.734 293.408 163.998 291.379C158.314 289.351 166.689 281.39 166.689 281.39H176.891Z" fill="#FFDF5B"/>
<path d="M166.688 242.951V281.389C164.1 288.641 173.998 286.967 176.891 281.389V242.14L166.688 242.951Z" fill="#FBDACF"/>
<path d="M178.312 281.39C178.312 281.39 177.652 284.483 178.515 287.221C179.378 289.96 185.469 293.408 191.205 291.379C196.889 289.351 188.514 281.39 188.514 281.39H178.312Z" fill="#FFDF5B"/>
<path d="M188.514 242.951V281.389C191.103 288.641 181.205 286.967 178.312 281.389V242.14L188.514 242.951Z" fill="#FBDACF"/>
<path d="M176.739 174.797C167.805 174.645 160.445 181.745 160.293 190.72C160.141 199.645 167.298 206.998 176.231 207.15C185.164 207.302 192.524 200.203 192.676 191.278C192.829 182.353 185.723 175 176.789 174.848" fill="#FBDACF"/>
<path d="M171.409 191.126C171.409 191.988 172.069 192.748 172.932 192.748C173.795 192.748 174.505 192.038 174.505 191.176C174.505 190.314 173.845 189.554 172.983 189.554C172.12 189.554 171.46 190.264 171.409 191.126Z" fill="#4C4948"/>
<path d="M178.718 191.278C178.718 192.14 179.378 192.901 180.241 192.901C181.104 192.901 181.814 192.191 181.814 191.329C181.814 190.467 181.155 189.706 180.292 189.706C179.429 189.706 178.769 190.416 178.718 191.278Z" fill="#4C4948"/>
<path d="M172.12 187.83C172.12 187.83 171.764 187.728 171.663 187.525C171.561 187.272 171.663 186.967 171.917 186.866C173.135 186.308 174.404 186.866 174.454 186.866C174.708 186.967 174.81 187.272 174.708 187.525C174.607 187.779 174.302 187.88 174.048 187.779C174.048 187.779 173.135 187.424 172.323 187.779C172.272 187.779 172.17 187.779 172.12 187.779V187.83Z" fill="#4C4948"/>
<path d="M179.378 187.83C179.378 187.83 179.023 187.728 178.921 187.525C178.82 187.272 178.921 186.967 179.175 186.866C180.444 186.308 181.662 186.866 181.713 186.866C181.967 186.967 182.068 187.272 181.967 187.525C181.865 187.779 181.561 187.88 181.307 187.779C181.307 187.779 180.393 187.373 179.581 187.779C179.53 187.779 179.429 187.779 179.378 187.779V187.83Z" fill="#4C4948"/>
<path d="M170.039 195.334C170.039 196.754 168.922 197.92 167.501 197.92C166.079 197.92 165.014 196.754 165.014 195.334C165.014 193.914 166.13 192.748 167.501 192.748C168.871 192.748 170.039 193.914 170.039 195.334Z" fill="#F8CBC6"/>
<path d="M189.174 195.334C189.174 196.754 188.058 197.92 186.636 197.92C185.215 197.92 184.149 196.754 184.149 195.334C184.149 193.914 185.266 192.748 186.636 192.748C188.007 192.748 189.174 193.914 189.174 195.334Z" fill="#F8CBC6"/>
<path d="M193.539 195.284C191.661 195.284 190.189 193.762 190.189 191.937C190.189 190.111 191.712 188.59 193.539 188.59C195.367 188.59 196.889 190.111 196.889 191.937C196.889 193.762 195.367 195.284 193.539 195.284Z" fill="#FBDACF"/>
<path d="M193.539 193.408C192.727 193.408 192.017 192.749 192.017 191.887C192.017 191.024 192.677 190.365 193.539 190.365C194.402 190.365 195.062 191.024 195.062 191.887C195.062 192.749 194.402 193.408 193.539 193.408Z" fill="#F8CBC6"/>
<path d="M159.075 195.284C157.197 195.284 155.725 193.762 155.725 191.937C155.725 190.111 157.248 188.59 159.075 188.59C160.902 188.59 162.425 190.111 162.425 191.937C162.425 193.762 160.902 195.284 159.075 195.284Z" fill="#FBDACF"/>
<path d="M159.075 193.408C158.263 193.408 157.552 192.749 157.552 191.887C157.552 191.024 158.212 190.365 159.075 190.365C159.938 190.365 160.598 191.024 160.598 191.887C160.598 192.749 159.938 193.408 159.075 193.408Z" fill="#F8CBC6"/>
<path d="M176.739 172.921C167.653 172.769 160.141 180.021 159.989 189.098C159.989 189.199 159.989 189.351 159.989 189.453C173.287 187.779 176.536 181.288 177.246 181.187C177.246 181.187 180.647 189.047 192.88 189.605C192.981 180.528 185.773 173.073 176.688 172.921" fill="#4C4948"/>
<path d="M189.428 218.864C189.428 211.866 183.692 208.316 176.637 208.316C169.582 208.316 163.846 211.866 163.846 218.864L162.526 242.241H190.798L189.479 218.864H189.428Z" fill="#F1A0C3"/>
<path d="M191.763 265.111L190.748 242.241H162.526L161.511 265.111" fill="#EA6394"/>
<path d="M179.987 195.893C179.987 198.834 178.515 201.166 176.739 201.166C174.962 201.166 173.49 198.783 173.49 195.893H179.936H179.987Z" fill="white"/>
<path d="M176.739 201.572C174.708 201.572 173.084 199.037 173.084 195.842C173.084 195.589 173.287 195.386 173.541 195.386H179.987C179.987 195.386 180.444 195.589 180.444 195.842C180.444 199.037 178.82 201.572 176.789 201.572H176.739ZM173.947 196.299C174.099 198.733 175.317 200.71 176.739 200.71C178.16 200.71 179.378 198.733 179.53 196.299H173.998H173.947Z" fill="#EB816D"/>
<path d="M186.586 211.866C188.362 212.83 193.133 218.813 196.636 223.58C196.636 223.58 186.332 233.418 185.52 233.722C184.708 233.976 183.692 216.988 183.692 216.532C183.692 216.075 186.586 211.866 186.586 211.866Z" fill="#F1A0C3"/>
<path d="M181.002 210.142V204.666C181.002 202.536 171.409 202.536 171.409 204.666V209.838C171.409 211.512 181.002 211.157 181.002 210.193" fill="#FBDACF"/>
<path d="M195.925 242.951C195.925 245.943 193.692 248.377 190.951 248.377C188.21 248.377 185.976 245.943 185.976 242.951C185.976 239.959 188.21 237.525 190.951 237.525C193.692 237.525 195.925 239.959 195.925 242.951Z" fill="#FBDACF"/>
<path d="M172.323 242.648C171.764 242.648 171.206 242.546 170.648 242.242C158.669 236.461 158.11 235.599 158.009 233.216C158.009 232.506 158.009 231.796 161.054 222.211C161.714 220.183 163.846 219.067 165.876 219.727C167.907 220.386 169.023 222.516 168.363 224.544C167.602 226.877 166.79 229.564 166.232 231.441C168.16 232.506 171.257 234.078 173.947 235.396C175.876 236.309 176.637 238.591 175.723 240.518C175.064 241.887 173.693 242.698 172.272 242.698L172.323 242.648Z" fill="#FBDACF"/>
<path d="M167.754 238.894C167.754 241.988 170.242 244.523 173.236 244.523C176.231 244.523 178.718 241.988 178.718 238.894C178.718 235.801 176.282 233.266 173.236 233.266C170.191 233.266 167.754 235.801 167.754 238.894Z" fill="#FBDACF"/>
<path d="M169.683 211.004L167.044 211.359C167.044 211.359 164.201 213.894 163.085 215.669C161.968 217.444 158.263 226.521 158.263 226.521C158.263 226.521 167.247 229.006 168.11 229.006C168.973 229.006 172.932 221.349 173.287 219.371C173.642 217.393 169.683 211.055 169.683 211.055" fill="#F1A0C3"/>
<path d="M52.7374 211.308H51.5192C46.9002 211.308 43.0934 207.505 43.0934 202.89V201.876C43.0934 197.261 46.9002 193.458 51.5192 193.458H52.7374C57.3563 193.458 61.1632 197.261 61.1632 201.876V202.89C61.1632 207.505 57.3563 211.308 52.7374 211.308Z" fill="#FBDACF"/>
<path d="M52.0774 207.201C50.91 207.201 49.6918 206.896 48.6259 206.237C45.7835 204.564 44.6668 201.115 45.7327 198.174C36.3425 183.62 36.2918 182.758 36.241 180.831C36.1395 178.245 36.0887 177.18 47.6615 163.336C50.0471 160.497 54.3108 160.091 57.204 162.474C60.0972 164.858 60.4525 169.117 58.0668 172.008C55.5797 175 52.6865 178.549 50.91 180.933C52.8896 184.229 56.2903 189.604 59.3358 194.27C60.757 196.45 60.8078 199.188 59.4881 201.42L57.9653 203.955C56.6964 206.085 54.463 207.251 52.1789 207.251L52.0774 207.201Z" fill="#FBDACF"/>
<path d="M96.5413 229.716C91.7701 229.716 87.9125 225.812 87.9125 221.096V220.639C87.9125 215.872 91.8208 212.019 96.5413 212.019C101.262 212.019 105.17 215.923 105.17 220.639V221.096C105.17 225.862 101.262 229.716 96.5413 229.716Z" fill="#FBDBCF"/>
<path d="M245.465 231.542C243.434 231.542 241.455 230.528 240.389 228.651L238.968 226.319C238.409 225.406 238.155 224.341 238.155 223.276C238.155 219.219 238.155 206.998 238.206 203.398C237.343 200.71 233.587 190.822 230.187 181.998C229.019 178.956 230.491 175.507 233.537 174.341C236.582 173.175 240.034 174.645 241.201 177.739C250.134 200.71 250.084 201.471 250.084 202.891C250.084 204.057 250.033 217.039 250.033 221.653L250.591 222.617C252.266 225.406 251.302 229.057 248.51 230.73C247.546 231.288 246.531 231.542 245.515 231.542H245.465Z" fill="#FBDACF"/>
<path d="M204.96 231.542C203.945 231.542 202.879 231.288 201.965 230.73C199.174 229.057 198.209 225.456 199.884 222.617L200.442 221.653C200.442 217.038 200.442 204.006 200.392 202.89C200.392 201.47 200.341 200.659 209.274 177.738C210.442 174.696 213.893 173.174 216.939 174.341C219.984 175.507 221.507 178.955 220.34 181.998C216.939 190.821 213.183 200.71 212.32 203.397C212.32 206.896 212.32 219.168 212.32 223.276C212.32 224.341 212.015 225.406 211.508 226.318L210.086 228.651C208.97 230.527 206.99 231.542 205.011 231.542H204.96Z" fill="#FBDACF"/>
<path d="M228.055 222.059H219.274V235.04H228.055V222.059Z" fill="#8A89BE"/>
<path d="M222.979 277.586C222.979 277.586 223.994 281.947 222.674 285.801C221.304 289.655 212.015 294.523 203.285 291.683C194.555 288.844 207.396 277.586 207.396 277.586H223.03H222.979Z" fill="#4C4948"/>
<path d="M222.979 277.586V223.073L207.345 224.189V277.586H222.979Z" fill="#8A89BE"/>
<path d="M226.43 277.586C226.43 277.586 225.415 281.947 226.735 285.801C228.105 289.655 237.394 294.523 246.124 291.683C254.855 288.844 242.013 277.586 242.013 277.586H226.38H226.43Z" fill="#4C4948"/>
<path d="M226.43 277.586V223.073L242.064 224.189V277.586H226.43Z" fill="#8A89BE"/>
<path d="M236.937 169.827C242.673 173.428 245.566 183.215 252.012 197.363L239.881 201.622L234.805 193.458L236.937 169.878V169.827Z" fill="#AADBF6"/>
<path d="M243.18 228.397L241.759 180.172C241.759 170.69 233.993 165.872 224.502 165.872C215.01 165.872 207.244 170.639 207.244 180.172L205.823 227.992L243.231 228.397H243.18Z" fill="#AADBF6"/>
<path d="M246.074 142.85C246.277 130.781 236.633 120.842 224.552 120.639C212.472 120.436 202.524 130.071 202.32 142.14C202.168 152.079 208.665 160.446 217.649 163.286V167.14C217.649 169.32 229.983 168.56 229.983 167.292V163.489C239.12 160.953 245.921 152.789 246.074 142.85Z" fill="#FBDACF"/>
<path d="M218.005 142.697C218.005 143.762 218.817 144.675 219.883 144.675C220.949 144.675 221.811 143.813 221.811 142.748C221.811 141.683 220.999 140.771 219.933 140.771C218.868 140.771 218.005 141.633 218.005 142.697Z" fill="#4C4948"/>
<path d="M227.04 142.901C227.04 143.966 227.852 144.878 228.918 144.878C229.983 144.878 230.846 144.016 230.846 142.951C230.846 141.886 230.034 140.974 228.968 140.974C227.902 140.974 227.04 141.836 227.04 142.901Z" fill="#4C4948"/>
<path d="M221.253 139.605C221.253 139.605 221.05 139.605 220.999 139.554C220.999 139.554 219.781 139.047 218.664 139.554C218.36 139.706 217.903 139.554 217.751 139.199C217.599 138.844 217.751 138.438 218.106 138.286C219.781 137.526 221.507 138.286 221.558 138.286C221.913 138.438 222.065 138.844 221.913 139.199C221.811 139.453 221.558 139.605 221.304 139.605H221.253Z" fill="#4C4948"/>
<path d="M230.999 139.605C230.999 139.605 230.796 139.605 230.745 139.554C230.745 139.554 229.527 139.047 228.41 139.554C228.055 139.706 227.649 139.554 227.496 139.199C227.344 138.844 227.496 138.438 227.852 138.286C229.527 137.526 231.252 138.286 231.303 138.286C231.658 138.438 231.811 138.844 231.658 139.199C231.557 139.453 231.303 139.605 231.049 139.605H230.999Z" fill="#4C4948"/>
<path d="M217.497 148.377C217.497 150.304 215.974 151.876 214.096 151.876C212.218 151.876 210.696 150.304 210.696 148.377C210.696 146.45 212.218 144.878 214.096 144.878C215.974 144.878 217.497 146.45 217.497 148.377Z" fill="#F8CBC6"/>
<path d="M238.46 148.377C238.46 150.304 236.937 151.876 235.059 151.876C233.181 151.876 231.658 150.304 231.658 148.377C231.658 146.45 233.181 144.878 235.059 144.878C236.937 144.878 238.46 146.45 238.46 148.377Z" fill="#F8CBC6"/>
<path d="M247.241 148.276C244.754 148.276 242.673 146.248 242.673 143.712C242.673 141.177 244.703 139.148 247.241 139.148C249.779 139.148 251.809 141.177 251.809 143.712C251.809 146.248 249.779 148.276 247.241 148.276Z" fill="#FBDACF"/>
<path d="M247.241 145.791C246.124 145.791 245.211 144.878 245.211 143.763C245.211 142.647 246.124 141.734 247.241 141.734C248.358 141.734 249.271 142.647 249.271 143.763C249.271 144.878 248.358 145.791 247.241 145.791Z" fill="#F8CBC6"/>
<path d="M200.696 148.276C198.209 148.276 196.128 146.248 196.128 143.712C196.128 141.177 198.158 139.148 200.696 139.148C203.234 139.148 205.264 141.177 205.264 143.712C205.264 146.248 203.234 148.276 200.696 148.276Z" fill="#FBDACF"/>
<path d="M200.696 145.791C199.58 145.791 198.666 144.878 198.666 143.763C198.666 142.647 199.58 141.734 200.696 141.734C201.813 141.734 202.727 142.647 202.727 143.763C202.727 144.878 201.813 145.791 200.696 145.791Z" fill="#F8CBC6"/>
<path d="M217.852 130.375C219.527 131.541 220.644 132.809 222.827 133.316C225.568 133.975 229.07 133.975 231.608 132.606C231.811 132.505 232.521 131.795 232.775 131.795C233.638 131.795 235.11 133.468 236.024 133.925C238.765 135.345 241.861 135.902 245.008 135.852C242.267 127.13 234.247 120.639 224.603 120.487C214.147 120.284 205.315 127.535 202.98 137.272C205.264 137.119 207.65 136.562 208.361 136.257C211.558 135.04 215.974 133.316 217.903 130.324" fill="#4C4948"/>
<path d="M72.2791 274.848C72.2791 274.848 73.4465 280.375 71.9238 285.294C70.401 290.213 59.9957 296.45 50.2502 292.799C40.5047 289.148 54.8184 274.848 54.8184 274.848H72.2791Z" fill="#4C4948"/>
<path d="M72.279 274.848V211.359L54.7676 212.83V274.848H72.279Z" fill="#B48D67"/>
<path d="M74.8677 274.848C74.8677 274.848 73.7003 280.375 75.223 285.294C76.7458 290.213 87.1511 296.45 96.8966 292.799C106.642 289.148 92.3284 274.848 92.3284 274.848H74.8677Z" fill="#4C4948"/>
<path d="M74.8677 274.848V211.359L92.3284 212.83V274.848H74.8677Z" fill="#B48D67"/>
<path d="M54.0062 222.718V157.606C54.0062 150.761 59.6403 145.132 66.4926 145.132H81.5169C88.3692 145.132 94.0034 150.761 94.0034 157.606V222.718H54.057H54.0062Z" fill="#8A89BE"/>
<path d="M97.5057 120.03C97.7087 107.099 87.6587 96.4499 75.0708 96.2471C62.4828 96.0442 52.0775 106.338 51.8745 119.269C51.7222 129.614 58.1684 138.438 67.2541 141.683V147.566C67.2541 150.101 81.314 150.05 81.314 148.63V141.987C90.5519 139.097 97.3534 130.527 97.5565 120.081" fill="#FBDACF"/>
<path d="M67.9646 119.878C67.9646 121.044 68.8275 122.008 69.9441 122.008C71.0608 122.008 71.9745 121.095 72.0252 119.929C72.0252 118.762 71.1623 117.799 70.0457 117.799C68.929 117.799 68.0154 118.712 67.9646 119.878Z" fill="#4C4948"/>
<path d="M77.7102 120.081C77.7102 121.247 78.5731 122.211 79.6898 122.211C80.8064 122.211 81.7201 121.298 81.7708 120.132C81.7708 118.965 80.9079 118.002 79.7913 118.002C78.6746 118.002 77.761 118.915 77.7102 120.081Z" fill="#4C4948"/>
<path d="M71.467 116.582C71.467 116.582 71.2639 116.582 71.1624 116.532C71.1624 116.532 69.8427 115.974 68.6753 116.532C68.32 116.684 67.8632 116.532 67.7109 116.177C67.5586 115.822 67.7109 115.365 68.0662 115.213C69.8935 114.402 71.67 115.213 71.7715 115.213C72.1268 115.365 72.3299 115.822 72.1268 116.177C72.0253 116.43 71.7208 116.633 71.467 116.633V116.582Z" fill="#4C4948"/>
<path d="M81.9738 116.582C81.9738 116.582 81.7708 116.582 81.6693 116.532C81.6693 116.532 80.3496 115.974 79.1821 116.532C78.8268 116.684 78.37 116.532 78.2177 116.177C78.0655 115.822 78.2177 115.365 78.573 115.213C80.4003 114.402 82.1768 115.213 82.2784 115.213C82.6337 115.365 82.8367 115.822 82.6337 116.177C82.5321 116.43 82.2276 116.633 81.9738 116.633V116.582Z" fill="#4C4948"/>
<path d="M67.4571 126.014C67.4571 128.093 65.8328 129.767 63.8025 129.767C61.7722 129.767 60.1479 128.093 60.1479 126.014C60.1479 123.935 61.7722 122.262 63.8025 122.262C65.8328 122.262 67.4571 123.935 67.4571 126.014Z" fill="#F8CBC6"/>
<path d="M89.9428 126.014C89.9428 128.093 88.3185 129.767 86.2882 129.767C84.2579 129.767 82.6337 128.093 82.6337 126.014C82.6337 123.935 84.2579 122.262 86.2882 122.262C88.3185 122.262 89.9428 123.935 89.9428 126.014Z" fill="#F8CBC6"/>
<path d="M98.3178 123.682C95.6277 123.682 93.4451 121.501 93.4451 118.813C93.4451 116.126 95.6277 113.945 98.3178 113.945C101.008 113.945 103.191 116.126 103.191 118.813C103.191 121.501 101.008 123.682 98.3178 123.682Z" fill="#FBDACF"/>
<path d="M98.3178 120.943C97.0997 120.943 96.1353 119.98 96.1353 118.763C96.1353 117.546 97.0997 116.582 98.3178 116.582C99.536 116.582 100.5 117.546 100.5 118.763C100.5 119.98 99.536 120.943 98.3178 120.943Z" fill="#F8CBC6"/>
<path d="M50.9101 124.695C48.2199 124.695 46.0374 122.515 46.0374 119.827C46.0374 117.14 48.2199 114.959 50.9101 114.959C53.6003 114.959 55.7828 117.14 55.7828 119.827C55.7828 122.515 53.6003 124.695 50.9101 124.695Z" fill="#FBDACF"/>
<path d="M50.91 122.009C49.6918 122.009 48.7274 121.045 48.7274 119.828C48.7274 118.611 49.6918 117.647 50.91 117.647C52.1282 117.647 53.0926 118.611 53.0926 119.828C53.0926 121.045 52.1282 122.009 50.91 122.009Z" fill="#F8CBC6"/>
<path d="M93.039 153.397L107.454 214.249L91.9731 218.458L79.1821 174.036L93.039 153.397Z" fill="#8A89BE"/>
<path d="M57.61 148.985L38.9819 168.458C38.9819 168.458 45.1744 186.714 49.8441 182.352C58.5744 174.087 61.7722 174.695 63.5487 166.734C65.4267 158.062 57.61 148.985 57.61 148.985Z" fill="#8A89BE"/>
<path d="M59.3866 109.179C59.6404 108.621 59.7419 106.694 60.1987 106.39C60.7571 106.035 62.3813 106.846 62.9904 106.998C64.5639 107.404 66.1374 107.81 67.7617 108.013C73.8526 108.824 80.2481 107.303 86.0852 105.579C86.6435 105.426 86.9481 105.122 87.4557 105.325C87.7095 105.426 88.2678 106.846 88.3693 106.998C88.8769 107.759 89.4352 108.57 90.0443 109.23C91.7193 111.004 93.8004 111.309 95.983 111.157C92.7345 102.485 84.664 96.2479 75.0708 96.0958C64.2086 95.8929 55.0722 103.499 52.5851 113.844C53.6002 113.794 54.5646 113.641 55.6306 113.185C57.3563 112.475 58.6253 110.751 59.4374 109.128" fill="#4C4948"/>
<path d="M69.6904 97.4644C70.198 96.6024 73.6495 96.5009 74.7155 96.3995C76.7965 96.2474 78.7761 96.0953 80.8064 95.436C82.989 94.6754 86.6435 92.292 88.014 95.0304C88.4201 95.8417 88.3185 97.363 88.9784 97.9208C90.6026 99.2393 92.2776 96.9066 93.1913 99.4928C94.4602 103.195 90.1966 103.144 87.7602 102.789" fill="#4C4948"/>
<path d="M147.401 232.86C145.675 232.86 144.051 231.998 143.137 230.426L141.97 228.448C141.005 226.825 141.056 224.848 142.071 223.276C144.457 219.523 147.198 215.162 148.72 212.576C147.299 210.699 145.015 207.809 143.035 205.375C141.31 203.245 141.614 200.101 143.746 198.377C145.878 196.653 149.025 196.957 150.751 199.087C159.532 209.787 159.532 210.598 159.481 212.474C159.43 213.945 159.379 214.604 152.121 226.065C152.984 228.296 152.121 230.933 150.04 232.15C149.228 232.606 148.365 232.86 147.502 232.86H147.401Z" fill="#FBDACF"/>
<path d="M140.853 189.199L156.131 202.384L146.791 213.236L141.107 207.455L140.853 189.199Z" fill="#FFDF5B"/>
<path d="M129.94 280.223C129.94 280.223 130.701 283.722 129.686 286.866C128.671 290.01 121.768 293.914 115.271 291.632C108.774 289.35 118.316 280.273 118.316 280.273H129.94V280.223Z" fill="#EB816D"/>
<path d="M118.316 240.923V280.223C115.372 288.438 126.641 286.561 129.94 280.223V240.01L118.316 240.923Z" fill="#FBDACF"/>
<path d="M131.513 280.223C131.513 280.223 130.752 283.722 131.767 286.866C132.782 290.01 139.685 293.914 146.182 291.632C152.679 289.35 143.137 280.273 143.137 280.273H131.513V280.223Z" fill="#EB816D"/>
<path d="M143.086 240.923V280.223C146.03 288.438 134.762 286.561 131.463 280.223V240.01L143.086 240.923Z" fill="#FBDACF"/>
<path d="M111.363 252.739L115.068 197.059C115.068 189.098 121.616 185.041 129.585 185.041C137.554 185.041 144.101 189.047 144.101 197.059L147.807 252.739C141.411 260.954 118.266 261.664 111.312 252.739" fill="#F2C7DD"/>
<path d="M147.807 165.72C147.959 155.578 139.888 147.211 129.737 147.059C119.585 146.907 111.21 154.97 111.058 165.112C110.906 173.428 116.388 180.477 123.951 182.86V186.105C123.951 187.931 134.305 188.996 134.305 187.931V183.063C141.97 180.933 147.705 174.087 147.807 165.72Z" fill="#FBDACF"/>
<path d="M124.204 165.619C124.204 166.532 124.864 167.292 125.778 167.292C126.641 167.292 127.402 166.582 127.402 165.67C127.402 164.757 126.691 163.996 125.828 163.996C124.966 163.996 124.204 164.706 124.204 165.619Z" fill="#4C4948"/>
<path d="M131.767 165.771C131.767 166.684 132.427 167.445 133.341 167.445C134.204 167.445 134.965 166.735 134.965 165.822C134.965 164.909 134.254 164.148 133.391 164.148C132.529 164.148 131.767 164.858 131.767 165.771Z" fill="#4C4948"/>
<path d="M129.483 173.733C128.214 173.733 126.945 173.327 125.727 172.566C125.524 172.414 125.473 172.161 125.575 171.958C125.676 171.755 125.981 171.654 126.184 171.806C128.316 173.124 130.447 173.175 132.681 171.907C132.884 171.806 133.188 171.907 133.29 172.059C133.391 172.262 133.29 172.566 133.087 172.668C131.869 173.327 130.65 173.682 129.483 173.682V173.733Z" fill="#EB816D"/>
<path d="M126.945 163.033C126.945 163.033 126.793 163.033 126.742 163.033C126.742 163.033 125.676 162.576 124.763 163.033C124.458 163.134 124.154 163.033 124.001 162.728C123.849 162.424 124.001 162.12 124.306 161.968C125.727 161.309 127.148 161.968 127.199 161.968C127.504 162.12 127.605 162.424 127.504 162.728C127.402 162.931 127.199 163.083 126.996 163.083L126.945 163.033Z" fill="#4C4948"/>
<path d="M135.117 163.033C135.117 163.033 134.965 163.033 134.914 163.033C134.914 163.033 133.848 162.576 132.935 163.033C132.63 163.185 132.326 163.033 132.173 162.728C132.021 162.424 132.173 162.12 132.478 161.968C133.899 161.309 135.32 161.968 135.371 161.968C135.676 162.12 135.777 162.424 135.676 162.728C135.574 162.931 135.371 163.083 135.168 163.083L135.117 163.033Z" fill="#4C4948"/>
<path d="M108.723 189.605C108.723 193.408 105.779 196.45 102.125 196.45C98.4701 196.45 95.5261 193.408 95.5261 189.605C95.5261 185.801 98.4701 182.759 102.125 182.759C105.779 182.759 108.723 185.801 108.723 189.605Z" fill="#FBDACF"/>
<path d="M123.798 170.386C123.798 172.008 122.529 173.327 120.956 173.327C119.382 173.327 118.113 172.008 118.113 170.386C118.113 168.763 119.382 167.444 120.956 167.444C122.529 167.444 123.798 168.763 123.798 170.386Z" fill="#F8CBC6"/>
<path d="M141.36 170.386C141.36 172.008 140.091 173.327 138.518 173.327C136.944 173.327 135.676 172.008 135.676 170.386C135.676 168.763 136.944 167.444 138.518 167.444C140.091 167.444 141.36 168.763 141.36 170.386Z" fill="#F8CBC6"/>
<path d="M148.771 170.335C146.69 170.335 144.964 168.611 144.964 166.532C144.964 164.453 146.69 162.729 148.771 162.729C150.852 162.729 152.578 164.453 152.578 166.532C152.578 168.611 150.852 170.335 148.771 170.335Z" fill="#FBDACF"/>
<path d="M148.771 168.205C147.807 168.205 147.045 167.444 147.045 166.481C147.045 165.517 147.807 164.757 148.771 164.757C149.735 164.757 150.497 165.517 150.497 166.481C150.497 167.444 149.735 168.205 148.771 168.205Z" fill="#F8CBC6"/>
<path d="M109.688 170.335C107.607 170.335 105.881 168.611 105.881 166.532C105.881 164.453 107.607 162.729 109.688 162.729C111.769 162.729 113.494 164.453 113.494 166.532C113.494 168.611 111.769 170.335 109.688 170.335Z" fill="#FBDACF"/>
<path d="M109.688 168.205C108.723 168.205 107.962 167.444 107.962 166.481C107.962 165.517 108.723 164.757 109.688 164.757C110.652 164.757 111.413 165.517 111.413 166.481C111.413 167.444 110.652 168.205 109.688 168.205Z" fill="#F8CBC6"/>
<path d="M129.737 144.929C119.382 144.777 110.855 152.992 110.703 163.286C110.703 163.438 110.703 163.59 110.703 163.691C125.829 161.764 129.483 154.411 130.346 154.31C130.346 154.31 134.204 163.235 148.111 163.843C148.264 153.549 140.041 145.081 129.737 144.878" fill="#4C4948"/>
<path d="M123.392 188.539V184.381L129.077 185.547L134.711 184.634V188.995L123.9 189.35L123.392 188.539Z" fill="#FFDF5B"/>
<path d="M117.758 189.706L101.82 204.057C101.82 204.057 108.266 212.424 110.753 212.323C114.916 212.171 116.641 207.759 117.91 201.876C119.332 195.487 117.758 189.706 117.758 189.706Z" fill="#FFDF5B"/>
<path d="M102.125 214.351C101.414 214.351 100.703 214.199 100.044 213.895C98.2671 213.084 97.1504 211.309 97.1504 209.382V194.828C97.1504 192.09 99.3837 189.858 102.125 189.858C104.866 189.858 107.099 192.09 107.099 194.828V199.443C108.723 199.138 110.55 199.696 111.718 201.065C113.494 203.144 113.291 206.288 111.21 208.063L105.373 213.134C104.46 213.946 103.292 214.351 102.125 214.351Z" fill="#FBDACF"/>
<path d="M105.83 187.12C104.967 187.12 104.307 186.461 104.307 185.599V180.325C104.307 179.514 105.018 178.804 105.83 178.804C106.642 178.804 107.353 179.514 107.353 180.325V185.599C107.353 186.461 106.642 187.12 105.83 187.12Z" fill="#FBDACF"/>
<path d="M102.277 185.192C101.414 185.192 100.754 184.533 100.703 183.722L100.602 178.448C100.602 177.586 101.262 176.927 102.074 176.927C102.937 176.927 103.597 177.586 103.647 178.397L103.749 183.671C103.749 184.483 103.089 185.192 102.277 185.192Z" fill="#FBDACF"/>
<path d="M99.2822 186.916C98.4701 187.018 97.7088 186.409 97.6072 185.598L97.0489 180.324C96.9474 179.513 97.5565 178.752 98.3686 178.651C99.1807 178.549 99.9421 179.158 100.044 180.02L100.602 185.294C100.703 186.105 100.094 186.866 99.2822 186.967" fill="#FBDACF"/>
<path d="M97.4042 189.402C96.5921 189.655 95.7292 189.199 95.4754 188.387L93.9019 183.316C93.6481 182.505 94.105 181.643 94.9171 181.389C95.7292 181.136 96.5921 181.592 96.8459 182.404L98.4194 187.475C98.6732 188.286 98.2164 189.148 97.4042 189.402Z" fill="#FBDACF"/>
<path d="M106.134 191.632C105.322 191.075 105.069 189.959 105.627 189.148L108.419 184.939C108.977 184.127 110.094 183.874 110.906 184.432C111.769 184.989 111.972 186.105 111.413 186.916L108.622 191.125C108.063 191.937 106.947 192.19 106.134 191.632Z" fill="#FBDACF"/>
<path d="M49.0828 177.839C49.0828 177.839 56.8995 186.207 55.0215 188.438L45.0729 196.957C45.0729 196.957 35.429 184.178 35.429 178.397C35.429 172.616 38.982 168.509 38.982 168.509" fill="#8A89BE"/>
<path d="M229.324 149.646C229.324 151.877 227.243 153.652 224.705 153.652C222.167 153.652 220.086 151.826 220.086 149.646H229.273H229.324Z" fill="white"/>
<path d="M224.705 154.31C221.811 154.31 219.477 152.231 219.477 149.645C219.477 149.29 219.73 149.036 220.086 149.036H229.273C229.628 149.036 229.882 149.34 229.882 149.645C229.882 152.18 227.547 154.31 224.654 154.31H224.705ZM220.796 150.304C221.152 151.876 222.776 153.042 224.705 153.042C226.633 153.042 228.258 151.825 228.613 150.304H220.796Z" fill="#EB816D"/>
<path d="M74.8677 129.564C73.1419 129.564 71.4669 128.803 70.3502 127.485C70.0457 127.13 70.0965 126.623 70.4518 126.318C70.8071 126.014 71.3146 126.065 71.6192 126.42C72.4821 127.485 73.9033 128.043 75.223 127.89C76.3904 127.789 77.5071 127.231 78.2177 126.318C78.5222 125.963 79.0298 125.913 79.3851 126.166C79.7404 126.471 79.7912 126.978 79.4866 127.333C78.4715 128.6 76.9488 129.412 75.3245 129.513C75.1722 129.513 75.02 129.513 74.8677 129.513V129.564Z" fill="#EB816D"/>
<path d="M211.203 171.298C211.203 171.298 208.97 173.377 207.65 175.76C206.33 178.144 198.615 199.594 198.615 199.594C198.615 199.594 210.34 202.992 210.797 203.144C211.254 203.296 211.254 172.211 211.254 172.211" fill="#AADBF6"/>
</g>
</g>
<defs>
<clipPath id="clip0_30_24060">
<rect width="294.7" height="300" fill="white"/>
</clipPath>
</defs>
</svg>
