<svg width="347" height="56" viewBox="0 0 347 56" fill="none" xmlns="http://www.w3.org/2000/svg">
<mask id="path-1-inside-1_927_42235" fill="white">
<path d="M0 0H302V56H0V0Z"/>
</mask>
<path d="M302 56V52H0V56V60H302V56Z" fill="#B8C86F" mask="url(#path-1-inside-1_927_42235)"/>
<path d="M314.76 36.16C315.933 36.16 316.987 36.4533 317.92 37.04C318.853 37.6 319.6 38.3467 320.16 39.28C320.72 40.2133 321 41.2667 321 42.44C321 43.5867 320.72 44.64 320.16 45.6C319.6 46.5333 318.853 47.28 317.92 47.84C316.987 48.4 315.933 48.68 314.76 48.68C313.613 48.68 312.56 48.4 311.6 47.84C310.667 47.28 309.907 46.5333 309.32 45.6C308.76 44.64 308.48 43.5867 308.48 42.44C308.48 41.2667 308.76 40.2133 309.32 39.28C309.907 38.3467 310.667 37.6 311.6 37.04C312.56 36.4533 313.613 36.16 314.76 36.16ZM314.76 46.28C315.827 46.28 316.733 45.9067 317.48 45.16C318.227 44.4133 318.6 43.5067 318.6 42.44C318.6 41.72 318.427 41.08 318.08 40.52C317.76 39.9333 317.307 39.4667 316.72 39.12C316.133 38.7733 315.48 38.6 314.76 38.6C314.067 38.6 313.427 38.7733 312.84 39.12C312.253 39.4667 311.787 39.9333 311.44 40.52C311.093 41.08 310.92 41.72 310.92 42.44C310.92 43.1333 311.093 43.7867 311.44 44.4C311.787 44.9867 312.253 45.4533 312.84 45.8C313.427 46.12 314.067 46.28 314.76 46.28Z" fill="#1E1E1E"/>
</svg>
