<svg width="26" height="52" viewBox="0 0 26 52" fill="none" xmlns="http://www.w3.org/2000/svg">
<path d="M14.68 29.16V19.84C14.68 19.2267 14.7867 18.6933 15 18.24C15.2133 17.7867 15.4933 17.4133 15.84 17.12C16.1867 16.8267 16.5867 16.6133 17.04 16.48C17.4933 16.32 17.9467 16.24 18.4 16.24C18.8533 16.24 19.2933 16.32 19.72 16.48C20.1733 16.6133 20.5733 16.8267 20.92 17.12C21.2667 17.4133 21.5467 17.7867 21.76 18.24C21.9733 18.6933 22.08 19.2267 22.08 19.84V29.16H25.68V35.72H22.08V41.24H14.68V35.72H6.48C4.05333 35.72 2.36 35.1067 1.4 33.88C0.466667 32.6267 0.293333 30.96 0.88 28.88L5.96 12.12C6.30667 10.8933 6.86667 10.0133 7.64 9.48C8.41333 8.92 9.30667 8.70667 10.32 8.84C10.8533 8.89333 11.3467 9.04 11.8 9.28C12.2533 9.52 12.64 9.84 12.96 10.24C13.28 10.6133 13.4933 11.0667 13.6 11.6C13.7333 12.1067 13.7333 12.6667 13.6 13.28L9.16 28.04C9.02667 28.4933 9.05333 28.8 9.24 28.96C9.42667 29.0933 9.78667 29.16 10.32 29.16H14.68Z" fill="#507944"/>
</svg>
