<svg width="67" height="30" viewBox="0 0 67 30" fill="none" xmlns="http://www.w3.org/2000/svg">
<path fill-rule="evenodd" clip-rule="evenodd" d="M14.5 0.5C6.49187 0.5 0 6.99187 0 15C0 23.0081 6.49187 29.5 14.5 29.5H42.5C50.5081 29.5 57 23.0081 57 15C57 14.6553 56.988 14.3134 56.9643 13.9746L57 14C57 4.4 67 0.5 67 0.50243L42.6069 0.500386C42.5713 0.500129 42.5357 0.5 42.5 0.5H38H14.5Z" fill="#8CB7E2"/>
<path d="M26.8 19.66V21.46H10.68V19.66H26.8ZM19.8 15.68V20.12H17.62V15.68H19.8ZM14.64 6.98V9.88H22.8V6.98H24.98V16.18H12.46V6.98H14.64ZM14.64 14.42H22.8V11.62H14.64V14.42ZM42.8805 5.8V23.6H40.6805V5.8H42.8805ZM37.6205 7.66C37.6205 9.52667 37.3538 11.24 36.8205 12.8C36.3005 14.3467 35.4338 15.7733 34.2205 17.08C33.0071 18.3733 31.4005 19.5067 29.4005 20.48L28.2605 18.74C29.9538 17.9267 31.3271 17 32.3805 15.96C33.4338 14.9067 34.2005 13.7333 34.6805 12.44C35.1738 11.1333 35.4205 9.67333 35.4205 8.06V7.66H37.6205ZM36.4405 7.66V9.44H29.1405V7.66H36.4405Z" fill="white"/>
</svg>
