<svg width="944" height="361" viewBox="0 0 944 361" fill="none" xmlns="http://www.w3.org/2000/svg">
<path d="M41 46H33C16.4315 46 3 59.4315 3 76V318.778C3 331.603 13.3969 342 26.2222 342V342" stroke="#CFD686" stroke-width="5" stroke-dasharray="1 1"/>
<path d="M70.5628 336.041H73.2028V337.937C73.2028 340.841 74.8588 343.505 78.1468 344.561L76.7548 346.625C74.4748 345.833 72.8668 344.273 71.9548 342.281C71.0188 344.585 69.2428 346.385 66.6748 347.273L65.3068 345.137C68.7868 343.985 70.5628 341.129 70.5628 338.033V336.041ZM80.5228 334.889H83.1628V347.441H80.5228V341.177H76.3468V338.993H80.5228V334.889ZM76.0348 348.017C80.4988 348.017 83.2588 349.529 83.2588 352.121C83.2588 354.737 80.4988 356.225 76.0348 356.225C71.5468 356.225 68.7628 354.737 68.7628 352.121C68.7628 349.529 71.5468 348.017 76.0348 348.017ZM76.0348 350.057C73.0588 350.057 71.4268 350.777 71.4268 352.121C71.4268 353.465 73.0588 354.185 76.0348 354.185C78.9628 354.185 80.6428 353.465 80.6428 352.121C80.6428 350.777 78.9628 350.057 76.0348 350.057ZM86.4273 351.497H94.7553V346.841H88.5393V336.521H103.563V346.841H97.3713V351.497H105.771V353.633H86.4273V351.497ZM100.995 338.609H91.1313V344.753H100.995V338.609ZM121.348 334.841H124.012V343.217H127.156V345.401H124.012V356.225H121.348V334.841ZM118.396 337.097C118.396 343.385 115.828 348.857 108.796 352.385L107.308 350.393C112.468 347.753 115.228 344.105 115.732 339.233H108.436V337.097H118.396ZM136.288 347.393H138.76V349.697H141.496V347.393H143.944V354.185C146.44 353.105 147.568 350.945 147.568 348.905V347.249H150.16V348.905C150.16 351.137 151.312 353.297 153.904 354.209L152.584 356.177C150.712 355.457 149.512 354.185 148.84 352.577C148.144 354.137 146.92 355.457 145.144 356.177L143.944 354.329V355.985H136.288V347.393ZM138.76 351.641V353.993H141.496V351.641H138.76ZM139.792 335.729C142.576 335.729 144.736 337.265 145.264 339.617H149.032V334.889H151.672V346.169H149.032V341.753H145.288C144.784 344.129 142.6 345.713 139.792 345.713C136.576 345.713 134.2 343.649 134.2 340.721C134.2 337.769 136.576 335.729 139.792 335.729ZM139.792 337.913C138.016 337.913 136.744 339.017 136.744 340.721C136.744 342.449 138.016 343.553 139.792 343.553C141.568 343.553 142.864 342.449 142.864 340.721C142.864 339.017 141.568 337.913 139.792 337.913ZM164.536 335.225C169.336 335.225 172.192 336.497 172.192 338.873C172.192 341.249 169.336 342.545 164.536 342.545C159.736 342.545 156.88 341.249 156.88 338.873C156.88 336.497 159.736 335.225 164.536 335.225ZM164.536 337.145C161.296 337.145 159.616 337.745 159.616 338.873C159.616 340.025 161.296 340.601 164.536 340.601C167.752 340.601 169.456 340.025 169.456 338.873C169.456 337.745 167.752 337.145 164.536 337.145ZM154.888 343.697H174.184V345.809H154.888V343.697ZM157.12 347.225H171.784V352.457H159.76V354.065H172.384V356.057H157.192V350.609H169.192V349.217H157.12V347.225ZM193.108 335.249H195.556V343.313H197.452V334.865H199.924V356.225H197.452V345.425H195.556V355.217H193.108V335.249ZM181.828 337.481H186.364V339.593H184.252V348.713C184.9 348.665 185.62 348.593 186.436 348.401L186.628 350.561C185.02 350.897 183.772 350.921 182.764 350.921H181.828V337.481ZM187.204 337.481H191.884V339.593H189.604V348.713C190.396 348.665 191.26 348.569 192.22 348.353L192.436 350.513C190.756 350.897 189.436 350.921 188.164 350.921H187.204V337.481ZM207.904 351.641H212.896V347.249H209.56V345.137H212.536V338.777H209.464V336.665H225.568V338.777H222.52V345.137H225.52V347.249H222.16V351.641H227.248V353.777H207.904V351.641ZM215.176 345.137H219.904V338.777H215.176V345.137ZM215.512 351.641H219.568V347.249H215.512V351.641ZM243.904 334.865H246.544V356.225H243.904V334.865ZM240.232 337.097C240.232 343.505 237.808 348.881 230.368 352.481L229 350.393C234.544 347.729 237.064 344.105 237.52 339.233H230.056V337.097H240.232Z" fill="#8A9347"/>
<path d="M50.4158 342.124C50.4935 342.61 50.5324 343.115 50.5324 343.62C50.5324 349.098 46.0839 353.546 40.5865 353.546C35.0891 353.546 30.6601 349.098 30.6601 343.62C30.6601 338.142 35.1085 333.693 40.5865 333.693C42.8593 333.693 44.9378 334.451 46.6084 335.733L47.8905 334.451C45.8897 332.858 43.3449 331.906 40.5865 331.906C34.0984 331.906 28.8535 337.171 28.8535 343.639C28.8535 350.108 34.1178 355.372 40.5865 355.372C47.0552 355.372 52.3389 350.108 52.3389 343.639C52.3389 342.59 52.203 341.58 51.9504 340.628L50.4158 342.163V342.124Z" fill="#EDB476"/>
<path d="M52.0859 332.797L40.586 344.277L35.4771 339.168L33.418 342.238L40.586 349.386L54.1256 335.847L52.0859 332.797Z" fill="#EDB476"/>
<path d="M100 46H75V56H100V46Z" fill="#C2CC66"/>
<path d="M94 46.4409V49.0866C94 52.9134 97.1412 56 101 56C104.859 56 108 52.8976 108 49.0866V46" fill="#8A9347"/>
<path d="M128.656 24.44C128.507 24.4187 128.261 24.408 127.92 24.408C127.579 24.3867 127.205 24.376 126.8 24.376C126.416 24.376 126.053 24.376 125.712 24.376C125.371 24.376 125.125 24.3653 124.976 24.344C124.613 24.3227 124.261 24.2373 123.92 24.088C123.6 23.9387 123.323 23.7467 123.088 23.512C122.853 23.2773 122.693 22.9893 122.608 22.648C122.523 22.3067 122.533 21.9333 122.64 21.528C122.683 21.3573 122.768 21.176 122.896 20.984C123.045 20.792 123.184 20.6427 123.312 20.536C123.611 20.3227 123.941 20.1947 124.304 20.152C124.923 20.1093 125.637 20.088 126.448 20.088C127.28 20.088 128.037 20.0667 128.72 20.024C128.741 19.512 128.752 19.032 128.752 18.584C128.752 18.136 128.752 17.688 128.752 17.24C128.752 16.7707 128.741 16.2907 128.72 15.8C128.72 15.288 128.72 14.7227 128.72 14.104C128.72 13.8267 128.72 13.528 128.72 13.208C128.741 12.8667 128.773 12.536 128.816 12.216C128.859 11.8747 128.933 11.5653 129.04 11.288C129.147 10.9893 129.296 10.744 129.488 10.552C129.808 10.2747 130.149 10.136 130.512 10.136H130.576C131.088 10.1573 131.493 10.3173 131.792 10.616C132.112 10.8933 132.347 11.2347 132.496 11.64C132.667 12.0453 132.773 12.472 132.816 12.92C132.859 13.3467 132.88 13.7307 132.88 14.072V33.272C132.88 33.2933 132.88 33.4 132.88 33.592C132.88 33.7627 132.859 33.976 132.816 34.232C132.773 34.488 132.709 34.744 132.624 35C132.539 35.256 132.4 35.4693 132.208 35.64C132.059 35.7893 131.845 35.9067 131.568 35.992C131.291 36.0773 131.035 36.12 130.8 36.12C130.288 36.12 129.883 35.9493 129.584 35.608C129.307 35.3093 129.115 35 129.008 34.68C128.901 34.3387 128.827 33.9867 128.784 33.624C128.784 33.6027 128.784 33.4853 128.784 33.272C128.805 33.0373 128.816 32.6 128.816 31.96C128.816 31.32 128.805 30.4027 128.784 29.208C128.763 28.0133 128.72 26.424 128.656 24.44ZM123.408 30.488C124.027 30.488 124.581 30.5947 125.072 30.808C125.584 31.0213 125.883 31.4693 125.968 32.152C126.011 32.4933 125.957 32.8027 125.808 33.08C125.68 33.3573 125.499 33.592 125.264 33.784C125.029 33.976 124.752 34.1253 124.432 34.232C124.133 34.3387 123.845 34.4027 123.568 34.424C123.333 34.424 122.917 34.424 122.32 34.424C121.744 34.424 121.093 34.424 120.368 34.424C119.664 34.424 118.939 34.424 118.192 34.424C117.445 34.424 116.816 34.424 116.304 34.424H116.048C115.557 34.4027 115.045 34.3813 114.512 34.36C114 34.3387 113.499 34.2533 113.008 34.104C112.667 33.9973 112.347 33.8053 112.048 33.528C111.749 33.2507 111.515 32.9307 111.344 32.568C111.237 32.3333 111.163 32.056 111.12 31.736C111.077 31.3947 111.045 31.0747 111.024 30.776C111.003 30.456 110.992 30.1787 110.992 29.944C111.013 29.7093 111.024 29.5813 111.024 29.56V15.96C111.024 15.896 111.013 15.7253 110.992 15.448C110.971 15.1707 110.96 14.8507 110.96 14.488C110.981 14.1253 111.013 13.752 111.056 13.368C111.12 12.984 111.237 12.664 111.408 12.408C111.536 12.1947 111.76 12.024 112.08 11.896C112.421 11.768 112.763 11.672 113.104 11.608C113.467 11.544 113.787 11.512 114.064 11.512C114.363 11.4907 114.544 11.48 114.608 11.48H122.096C122.117 11.48 122.277 11.48 122.576 11.48C122.896 11.48 123.237 11.5227 123.6 11.608C123.963 11.672 124.315 11.7893 124.656 11.96C124.997 12.1307 125.221 12.3867 125.328 12.728C125.371 12.856 125.392 13.016 125.392 13.208C125.413 13.3787 125.424 13.5707 125.424 13.784C125.424 13.976 125.403 14.1573 125.36 14.328C125.339 14.4987 125.307 14.6267 125.264 14.712C125.115 14.9893 124.848 15.1813 124.464 15.288C124.037 15.3947 123.429 15.448 122.64 15.448C122.512 15.448 122.363 15.448 122.192 15.448C122.043 15.448 121.797 15.448 121.456 15.448C121.136 15.4267 120.677 15.416 120.08 15.416C119.504 15.416 118.725 15.416 117.744 15.416C117.445 15.416 117.136 15.4267 116.816 15.448C116.517 15.4693 116.293 15.512 116.144 15.576C115.995 15.64 115.877 15.768 115.792 15.96C115.728 16.1307 115.675 16.3333 115.632 16.568C115.611 16.7813 115.6 16.9947 115.6 17.208C115.6 17.4213 115.611 17.592 115.632 17.72V17.752L115.76 28.824C115.76 29.2507 115.856 29.6027 116.048 29.88C116.24 30.136 116.581 30.264 117.072 30.264C117.136 30.264 117.36 30.2853 117.744 30.328C118.149 30.3493 118.651 30.3707 119.248 30.392C119.867 30.4133 120.539 30.4347 121.264 30.456C121.989 30.4773 122.704 30.488 123.408 30.488ZM142.707 18.104C143.859 18.1467 144.83 18.424 145.619 18.936C146.408 19.448 147.048 20.1093 147.539 20.92C148.03 21.7307 148.371 22.648 148.563 23.672C148.755 24.696 148.83 25.7307 148.787 26.776C148.766 27.8213 148.616 28.8453 148.339 29.848C148.083 30.8507 147.742 31.736 147.315 32.504C146.846 33.336 146.184 33.976 145.331 34.424C144.499 34.8507 143.603 35.096 142.643 35.16C141.683 35.224 140.734 35.096 139.795 34.776C138.878 34.456 138.099 33.9547 137.459 33.272C136.904 32.6747 136.51 32.056 136.275 31.416C136.04 30.7547 135.87 30.0293 135.763 29.24C135.656 28.4507 135.571 27.6933 135.507 26.968C135.443 26.2213 135.432 25.4853 135.475 24.76C135.518 24.0347 135.635 23.32 135.827 22.616C136.04 21.912 136.36 21.208 136.787 20.504C137.022 20.0987 137.352 19.7467 137.779 19.448C138.206 19.128 138.686 18.872 139.219 18.68C139.752 18.4667 140.318 18.3173 140.915 18.232C141.534 18.1253 142.131 18.0827 142.707 18.104ZM157.683 20.44C157.79 20.44 157.886 20.4507 157.971 20.472C158.078 20.4933 158.184 20.504 158.291 20.504C158.398 20.5253 158.515 20.5467 158.643 20.568C158.771 20.568 158.899 20.5787 159.027 20.6C159.262 20.6427 159.496 20.728 159.731 20.856C159.966 20.9627 160.136 21.1333 160.243 21.368C160.392 21.6027 160.467 21.88 160.467 22.2C160.467 22.3707 160.456 22.5307 160.435 22.68C160.435 22.808 160.414 22.9573 160.371 23.128C160.328 23.2987 160.275 23.48 160.211 23.672C160.168 23.864 160.072 24.0133 159.923 24.12C159.624 24.3333 159.336 24.472 159.059 24.536C158.718 24.5787 158.302 24.5893 157.811 24.568C157.32 24.5467 156.904 24.5467 156.563 24.568C156.542 24.568 156.52 24.5787 156.499 24.6H156.467L156.435 24.632V24.728C156.414 25.2613 156.403 25.88 156.403 26.584C156.424 27.288 156.435 27.9173 156.435 28.472C156.478 29.5813 156.478 30.6693 156.435 31.736V32.184C156.435 32.4613 156.424 32.7707 156.403 33.112C156.403 33.432 156.382 33.752 156.339 34.072C156.296 34.392 156.222 34.7013 156.115 35C156.008 35.2773 155.859 35.512 155.667 35.704C155.411 36.0027 155.07 36.152 154.643 36.152C154.643 36.152 154.622 36.1413 154.579 36.12C154.067 36.0987 153.651 35.9493 153.331 35.672C153.032 35.3947 152.798 35.0533 152.627 34.648C152.478 34.2427 152.382 33.8267 152.339 33.4C152.296 32.952 152.275 32.5573 152.275 32.216V13.208C152.275 13.1867 152.275 13.0907 152.275 12.92C152.275 12.728 152.296 12.5147 152.339 12.28C152.382 12.024 152.446 11.768 152.531 11.512C152.638 11.2347 152.776 11.0107 152.947 10.84C153.096 10.6907 153.31 10.584 153.587 10.52C153.886 10.4347 154.152 10.392 154.387 10.392C154.856 10.392 155.251 10.552 155.571 10.872C155.87 11.1707 156.04 11.4907 156.083 11.832C156.147 12.152 156.2 12.4933 156.243 12.856C156.264 12.9413 156.275 13.0693 156.275 13.24C156.318 13.6027 156.339 13.976 156.339 14.36C156.36 14.744 156.382 15.128 156.403 15.512C156.403 15.7467 156.403 15.9813 156.403 16.216C156.424 16.4293 156.435 16.6533 156.435 16.888C156.414 17.016 156.403 17.144 156.403 17.272C156.424 17.3787 156.435 17.4853 156.435 17.592V19.672C156.435 19.7787 156.435 19.896 156.435 20.024C156.435 20.152 156.456 20.2693 156.499 20.376C156.499 20.3973 156.606 20.408 156.819 20.408C157.032 20.408 157.15 20.408 157.171 20.408C157.363 20.4507 157.512 20.4613 157.619 20.44H157.683ZM147.187 12.984C147.614 12.984 148.04 13.048 148.467 13.176C148.894 13.304 149.224 13.5813 149.459 14.008C149.608 14.2853 149.662 14.6373 149.619 15.064C149.576 15.4693 149.448 15.8107 149.235 16.088C149.022 16.344 148.691 16.5253 148.243 16.632C147.795 16.7387 147.326 16.8133 146.835 16.856C146.344 16.8773 145.886 16.8773 145.459 16.856C145.054 16.8347 144.776 16.824 144.627 16.824C144.456 16.8453 144.286 16.856 144.115 16.856C143.966 16.856 143.795 16.856 143.603 16.856H142.579C142.408 16.8347 142.238 16.824 142.067 16.824C141.918 16.824 141.758 16.824 141.587 16.824L137.811 16.76C136.723 16.76 135.944 16.6213 135.475 16.344C135.006 16.0667 134.728 15.6293 134.643 15.032C134.558 14.4133 134.718 13.912 135.123 13.528C135.422 13.272 135.667 13.112 135.859 13.048C136.072 12.984 136.339 12.952 136.659 12.952C136.744 12.952 136.83 12.9627 136.915 12.984C137 12.984 137.086 12.984 137.171 12.984H137.971C138.27 12.984 138.622 12.984 139.027 12.984C139.432 12.9627 139.784 12.9413 140.083 12.92C140.083 12.8347 140.083 12.7173 140.083 12.568C140.104 12.3973 140.115 12.2267 140.115 12.056C140.136 11.8853 140.147 11.7253 140.147 11.576C140.168 11.4053 140.179 11.288 140.179 11.224C140.222 10.8613 140.339 10.5307 140.531 10.232C140.979 9.61333 141.534 9.32533 142.195 9.368C142.494 9.41067 142.792 9.464 143.091 9.528C143.39 9.57067 143.635 9.72 143.827 9.976C144.062 10.3173 144.168 10.7867 144.147 11.384C144.147 11.96 144.168 12.4827 144.211 12.952H145.139C145.31 12.952 145.555 12.9627 145.875 12.984C146.195 12.984 146.44 12.984 146.611 12.984H147.187ZM142.579 31.64C143.048 31.576 143.454 31.3947 143.795 31.096C144.136 30.776 144.414 30.4027 144.627 29.976C144.84 29.5493 144.99 29.0907 145.075 28.6C145.16 28.1093 145.203 27.6507 145.203 27.224C145.203 26.8613 145.182 26.456 145.139 26.008C145.118 25.5387 145.064 25.0907 144.979 24.664C144.894 24.216 144.755 23.8107 144.563 23.448C144.371 23.064 144.115 22.7547 143.795 22.52C143.496 22.328 143.144 22.2107 142.739 22.168C142.334 22.104 141.918 22.1147 141.491 22.2C141.086 22.2853 140.712 22.4347 140.371 22.648C140.03 22.84 139.784 23.1067 139.635 23.448C139.23 24.3227 139.016 25.1973 138.995 26.072C138.995 26.9467 139.091 27.8427 139.283 28.76C139.39 29.2293 139.539 29.72 139.731 30.232C139.923 30.7227 140.222 31.1067 140.627 31.384C140.712 31.448 140.84 31.5013 141.011 31.544C141.203 31.5653 141.395 31.5867 141.587 31.608C141.8 31.6293 141.992 31.6507 142.163 31.672C142.355 31.672 142.494 31.6613 142.579 31.64ZM184.854 33.624C184.811 33.88 184.779 34.136 184.758 34.392C184.736 34.6267 184.683 34.872 184.598 35.128C184.555 35.2133 184.523 35.288 184.502 35.352C184.48 35.416 184.448 35.4907 184.406 35.576C184.256 35.8747 184.064 36.1093 183.83 36.28C183.339 36.5787 182.795 36.6533 182.198 36.504C181.856 36.44 181.579 36.312 181.366 36.12C181.174 35.9493 181.024 35.7253 180.918 35.448C180.832 35.192 180.758 34.936 180.694 34.68C180.651 34.424 180.63 34.2 180.63 34.008C180.63 33.816 180.63 33.7093 180.63 33.688V13.912C180.63 13.656 180.63 13.3787 180.63 13.08C180.63 12.7813 180.651 12.4827 180.694 12.184C180.736 11.8853 180.8 11.608 180.886 11.352C180.971 11.096 181.088 10.8933 181.238 10.744C181.472 10.5093 181.718 10.3707 181.974 10.328C182.23 10.264 182.507 10.232 182.806 10.232C183.168 10.232 183.499 10.3387 183.798 10.552C184.118 10.744 184.342 11.0213 184.47 11.384C184.662 11.832 184.768 12.3013 184.79 12.792C184.811 13.2827 184.832 13.7733 184.854 14.264V14.424C184.896 16.0667 184.907 17.752 184.886 19.48C184.864 21.208 184.854 22.84 184.854 24.376V32.472C184.854 32.664 184.854 32.856 184.854 33.048C184.875 33.24 184.875 33.432 184.854 33.624ZM169.75 30.488C169.728 30.232 169.718 29.976 169.718 29.72C169.718 29.464 169.718 29.208 169.718 28.952V18.776C169.718 18.4347 169.718 18.0933 169.718 17.752C169.718 17.4107 169.696 17.0587 169.654 16.696C169.632 16.5893 169.6 16.44 169.558 16.248C169.536 16.056 169.472 15.9387 169.366 15.896C169.259 15.832 169.131 15.8107 168.982 15.832C168.854 15.832 168.726 15.8213 168.598 15.8C168.448 15.7787 168.299 15.7787 168.15 15.8C168.022 15.8213 167.883 15.8213 167.734 15.8H166.23C165.867 15.8213 165.504 15.8213 165.141 15.8C164.779 15.7787 164.416 15.7787 164.054 15.8C163.883 15.8213 163.723 15.832 163.574 15.832C163.446 15.8107 163.296 15.8 163.126 15.8C162.891 15.8 162.646 15.7893 162.39 15.768C162.134 15.7467 161.899 15.6613 161.686 15.512C161.387 15.2987 161.184 15.032 161.078 14.712C160.971 14.392 160.918 14.0613 160.918 13.72C160.896 13.3147 160.982 12.9093 161.174 12.504C161.28 12.248 161.419 12.0667 161.59 11.96C161.696 11.8533 161.846 11.768 162.038 11.704C162.251 11.6187 162.432 11.5547 162.582 11.512C163.03 11.4053 163.499 11.352 163.99 11.352C164.48 11.3307 164.96 11.32 165.43 11.32H170.998C171.275 11.3627 171.563 11.4053 171.862 11.448C172.182 11.4693 172.47 11.5333 172.726 11.64C172.896 11.704 173.056 11.7893 173.206 11.896C173.376 12.0027 173.515 12.1307 173.622 12.28C173.814 12.5787 173.92 12.8773 173.942 13.176C173.984 13.4747 174.027 13.8053 174.07 14.168C174.112 14.7653 174.134 15.3627 174.134 15.96C174.134 16.536 174.134 17.1227 174.134 17.72V28.216C174.134 28.2373 174.134 28.408 174.134 28.728C174.155 29.0267 174.166 29.3893 174.166 29.816C174.166 30.2213 174.166 30.6587 174.166 31.128C174.166 31.576 174.155 31.9707 174.134 32.312C174.112 32.5253 174.08 32.7493 174.038 32.984C173.995 33.2187 173.92 33.4427 173.814 33.656C173.728 33.8693 173.6 34.0613 173.43 34.232C173.259 34.4027 173.035 34.5413 172.758 34.648C172.395 34.7973 172.032 34.872 171.67 34.872C171.392 34.872 171.115 34.8187 170.838 34.712C170.56 34.584 170.368 34.4027 170.262 34.168C169.92 33.4853 169.75 32.728 169.75 31.896V30.488ZM203 19.448C204.856 19.448 206.392 20.984 206.392 22.84C206.392 24.728 204.856 26.264 203 26.264C201.112 26.264 199.576 24.728 199.576 22.84C199.576 20.984 201.112 19.448 203 19.448ZM230.52 14.456C230.52 14.2427 230.531 13.944 230.552 13.56C230.573 13.176 230.648 12.792 230.776 12.408C230.904 12.024 231.096 11.6933 231.352 11.416C231.629 11.1387 232.024 11 232.536 11C232.984 11 233.379 11.1173 233.72 11.352C233.976 11.5227 234.168 11.832 234.296 12.28C234.445 12.7067 234.541 13.1867 234.584 13.72C234.648 14.2533 234.68 14.7867 234.68 15.32C234.68 15.8533 234.669 16.2907 234.648 16.632V28.376C234.648 28.44 234.648 28.6747 234.648 29.08C234.648 29.464 234.627 29.912 234.584 30.424C234.541 30.9147 234.467 31.4267 234.36 31.96C234.275 32.472 234.147 32.888 233.976 33.208C233.912 33.3573 233.805 33.5173 233.656 33.688C233.528 33.8373 233.432 33.944 233.368 34.008C233.197 34.1787 233.005 34.3067 232.792 34.392C232.6 34.4773 232.397 34.552 232.184 34.616C231.971 34.6587 231.779 34.6907 231.608 34.712C231.437 34.7333 231.32 34.744 231.256 34.744H224.536C224.024 34.744 223.533 34.7013 223.064 34.616C222.616 34.5307 222.2 34.3387 221.816 34.04C221.539 33.8267 221.325 33.56 221.176 33.24C221.048 32.8987 220.952 32.568 220.888 32.248C220.845 31.928 220.824 31.64 220.824 31.384C220.824 31.1067 220.824 30.936 220.824 30.872V14.136C220.824 13.8373 220.856 13.5067 220.92 13.144C221.005 12.7813 221.123 12.4507 221.272 12.152C221.443 11.832 221.656 11.576 221.912 11.384C222.168 11.1707 222.488 11.064 222.872 11.064C223.939 11.064 224.632 11.5227 224.952 12.44C225.059 12.7387 225.123 13.0373 225.144 13.336C225.165 13.6347 225.187 13.9333 225.208 14.232V14.296C225.208 14.4453 225.197 14.8187 225.176 15.416C225.176 15.992 225.176 16.6 225.176 17.24C225.176 17.88 225.176 18.456 225.176 18.968C225.176 19.4587 225.197 19.704 225.24 19.704L230.456 19.672C230.477 19.608 230.488 19.4907 230.488 19.32C230.509 19.1493 230.52 18.968 230.52 18.776C230.52 18.5627 230.52 18.3707 230.52 18.2C230.52 18.008 230.52 17.8587 230.52 17.752V14.456ZM243.736 20.152C243.843 20.152 243.939 20.1627 244.024 20.184C244.131 20.2053 244.237 20.216 244.344 20.216C244.451 20.2373 244.568 20.2587 244.696 20.28C244.824 20.28 244.952 20.2907 245.08 20.312C245.315 20.3547 245.549 20.44 245.784 20.568C246.019 20.6747 246.189 20.8453 246.296 21.08C246.445 21.3147 246.52 21.592 246.52 21.912C246.52 22.0827 246.509 22.2427 246.488 22.392C246.488 22.52 246.467 22.6693 246.424 22.84C246.381 23.0107 246.328 23.192 246.264 23.384C246.221 23.576 246.125 23.7253 245.976 23.832C245.677 24.0453 245.389 24.184 245.112 24.248C244.771 24.2907 244.355 24.3013 243.864 24.28C243.373 24.2587 242.957 24.2587 242.616 24.28C242.595 24.28 242.573 24.2907 242.552 24.312H242.52L242.488 24.344V24.44C242.488 24.696 242.488 25.0053 242.488 25.368C242.488 25.7093 242.488 26.072 242.488 26.456C242.488 26.8187 242.488 27.1813 242.488 27.544C242.488 27.8853 242.488 28.1947 242.488 28.472C242.531 29.5813 242.531 30.6693 242.488 31.736V32.184C242.488 32.4613 242.477 32.7707 242.456 33.112C242.456 33.432 242.435 33.752 242.392 34.072C242.349 34.392 242.275 34.7013 242.168 35C242.061 35.2773 241.912 35.512 241.72 35.704C241.464 36.0027 241.123 36.152 240.696 36.152C240.696 36.152 240.675 36.1413 240.632 36.12C240.12 36.0987 239.704 35.9493 239.384 35.672C239.085 35.3947 238.851 35.0533 238.68 34.648C238.531 34.2427 238.435 33.8267 238.392 33.4C238.349 32.952 238.328 32.5573 238.328 32.216V13.208C238.328 13.1867 238.328 13.0907 238.328 12.92C238.328 12.728 238.349 12.5147 238.392 12.28C238.435 12.024 238.499 11.768 238.584 11.512C238.691 11.2347 238.829 11.0107 239 10.84C239.149 10.6907 239.363 10.584 239.64 10.52C239.939 10.4347 240.205 10.392 240.44 10.392C240.909 10.392 241.304 10.552 241.624 10.872C241.923 11.1707 242.093 11.4907 242.136 11.832C242.2 12.152 242.253 12.4933 242.296 12.856C242.317 12.9413 242.328 13.0693 242.328 13.24C242.371 13.6027 242.392 13.976 242.392 14.36C242.413 14.744 242.435 15.128 242.456 15.512C242.456 15.7467 242.456 15.9813 242.456 16.216C242.477 16.4293 242.488 16.6533 242.488 16.888C242.467 17.016 242.456 17.144 242.456 17.272C242.477 17.3787 242.488 17.4853 242.488 17.592V19.384C242.488 19.4907 242.488 19.608 242.488 19.736C242.488 19.864 242.509 19.9813 242.552 20.088C242.552 20.1093 242.659 20.12 242.872 20.12C243.085 20.12 243.203 20.12 243.224 20.12C243.416 20.1627 243.565 20.1733 243.672 20.152H243.736ZM230.52 30.84L230.488 23.64L224.952 23.672C224.952 23.9067 224.952 24.1947 224.952 24.536C224.952 24.8773 224.952 25.24 224.952 25.624C224.952 26.008 224.952 26.3813 224.952 26.744C224.952 27.0853 224.952 27.3627 224.952 27.576C224.952 27.7467 224.952 27.9813 224.952 28.28C224.952 28.5787 224.952 28.8987 224.952 29.24C224.952 29.5813 224.952 29.9013 224.952 30.2C224.952 30.4987 224.952 30.7227 224.952 30.872L230.52 30.84ZM267.323 21.976C267.323 22.3173 267.28 22.6587 267.195 23C267.109 23.32 266.981 23.608 266.811 23.864C266.64 24.0987 266.416 24.2907 266.139 24.44C265.861 24.568 265.52 24.6107 265.115 24.568C264.688 24.5467 264.357 24.4507 264.123 24.28C263.888 24.1093 263.707 23.9067 263.579 23.672C263.451 23.416 263.365 23.128 263.323 22.808C263.28 22.488 263.237 22.1573 263.194 21.816C263.152 21.6027 263.12 21.2827 263.099 20.856C263.077 20.408 263.056 19.9387 263.035 19.448C263.035 18.936 263.024 18.4347 263.003 17.944C262.981 17.432 262.96 16.984 262.939 16.6C262.939 16.408 262.939 16.28 262.939 16.216C262.939 16.1307 262.917 16.0773 262.875 16.056C262.853 16.0133 262.8 15.9813 262.715 15.96C262.629 15.9173 262.512 15.8533 262.363 15.768C262.235 15.704 262.085 15.672 261.915 15.672C261.744 15.672 261.541 15.672 261.307 15.672H260.635C260.528 15.6933 260.421 15.704 260.315 15.704C260.208 15.6827 260.101 15.672 259.995 15.672H258.043C258.021 15.8427 258 16.0453 257.979 16.28C257.957 16.5147 257.936 16.7493 257.915 16.984C257.893 17.1973 257.872 17.4 257.851 17.592C257.829 17.7627 257.819 17.88 257.819 17.944C257.712 18.7973 257.605 19.5333 257.499 20.152C257.413 20.7493 257.317 21.3893 257.211 22.072C257.168 22.4133 257.072 22.744 256.923 23.064C256.795 23.384 256.613 23.6613 256.379 23.896C256.144 24.1093 255.867 24.2693 255.547 24.376C255.248 24.4613 254.896 24.472 254.491 24.408C254.064 24.3227 253.744 24.1733 253.531 23.96C253.339 23.7467 253.211 23.5013 253.147 23.224C253.083 22.9253 253.061 22.6053 253.083 22.264C253.104 21.9227 253.125 21.5813 253.147 21.24C253.189 20.664 253.243 19.8853 253.307 18.904C253.371 17.9013 253.445 16.856 253.531 15.768C253.232 15.768 252.944 15.768 252.667 15.768C252.389 15.768 252.112 15.7787 251.835 15.8C251.664 15.8213 251.525 15.8213 251.419 15.8C251.333 15.7787 251.205 15.768 251.035 15.768H249.435C249.072 15.768 248.656 15.7253 248.187 15.64C247.739 15.5333 247.387 15.288 247.131 14.904C246.981 14.648 246.885 14.36 246.843 14.04C246.8 13.72 246.821 13.4107 246.907 13.112C247.077 12.5147 247.472 12.0773 248.091 11.8C248.219 11.7573 248.347 11.7147 248.475 11.672C248.603 11.6293 248.741 11.5867 248.891 11.544C249.296 11.4373 249.627 11.384 249.883 11.384C250.16 11.3627 250.512 11.3413 250.939 11.32C251.131 11.32 251.28 11.32 251.387 11.32C251.493 11.32 251.632 11.3093 251.803 11.288C251.973 11.288 252.144 11.288 252.315 11.288C252.485 11.2667 252.667 11.256 252.859 11.256C252.965 11.256 253.221 11.256 253.627 11.256C254.053 11.256 254.544 11.256 255.099 11.256C255.675 11.256 256.283 11.2667 256.923 11.288C257.563 11.288 258.16 11.288 258.715 11.288C259.291 11.288 259.781 11.2987 260.187 11.32C260.613 11.32 260.88 11.32 260.987 11.32C261.307 11.3413 261.637 11.352 261.979 11.352C262.32 11.352 262.661 11.352 263.003 11.352C263.387 11.352 263.76 11.3627 264.123 11.384C264.507 11.4053 264.891 11.4373 265.275 11.48C265.445 11.5227 265.616 11.5547 265.787 11.576C265.979 11.5973 266.16 11.6613 266.331 11.768C266.565 11.896 266.747 12.088 266.875 12.344C267.003 12.5787 267.099 12.8453 267.163 13.144C267.248 13.4213 267.301 13.7093 267.323 14.008C267.344 14.3067 267.355 14.5733 267.355 14.808L267.323 21.976ZM266.843 25.688C267.184 25.6667 267.536 25.6773 267.899 25.72C268.283 25.7413 268.635 25.816 268.955 25.944C269.275 26.072 269.531 26.264 269.723 26.52C269.936 26.776 270.043 27.128 270.043 27.576C270.043 28.1093 269.861 28.5147 269.499 28.792C269.136 29.048 268.699 29.24 268.187 29.368C267.696 29.4747 267.173 29.5387 266.619 29.56C266.085 29.56 265.648 29.56 265.307 29.56C265.115 29.56 264.912 29.5707 264.699 29.592C264.507 29.592 264.304 29.592 264.091 29.592C263.472 29.592 262.853 29.592 262.235 29.592C261.616 29.592 260.997 29.5813 260.379 29.56C260.379 29.88 260.389 30.2427 260.411 30.648C260.432 31.0533 260.443 31.4587 260.443 31.864C260.443 32.2693 260.432 32.664 260.411 33.048C260.411 33.432 260.389 33.7627 260.347 34.04C260.283 34.4453 260.176 34.8293 260.027 35.192C259.877 35.576 259.621 35.8853 259.259 36.12C258.939 36.3333 258.565 36.44 258.139 36.44C257.712 36.44 257.328 36.344 256.987 36.152C256.709 35.9813 256.496 35.736 256.347 35.416C256.219 35.096 256.123 34.7867 256.059 34.488C256.016 34.2533 256.005 33.9973 256.027 33.72C256.048 33.4427 256.048 33.1867 256.027 32.952V29.56C255.344 29.56 254.725 29.56 254.171 29.56C253.616 29.56 253.072 29.5707 252.539 29.592C252.027 29.592 251.504 29.592 250.971 29.592C250.437 29.592 249.851 29.592 249.211 29.592C248.72 29.592 248.251 29.528 247.803 29.4C247.355 29.272 247.003 28.9947 246.747 28.568C246.512 28.2053 246.395 27.8213 246.395 27.416C246.416 27.0107 246.576 26.648 246.875 26.328C247.024 26.1573 247.227 26.0293 247.483 25.944C247.739 25.8587 247.984 25.8053 248.219 25.784C248.475 25.7413 248.688 25.72 248.859 25.72C249.051 25.72 249.157 25.72 249.179 25.72L266.843 25.688ZM295.447 33.624C295.405 33.88 295.373 34.136 295.351 34.392C295.33 34.6267 295.277 34.872 295.191 35.128C295.149 35.2133 295.117 35.288 295.095 35.352C295.074 35.416 295.042 35.4907 294.999 35.576C294.85 35.8747 294.658 36.1093 294.423 36.28C293.933 36.5787 293.389 36.6533 292.791 36.504C292.45 36.44 292.173 36.312 291.959 36.12C291.767 35.9493 291.618 35.7253 291.511 35.448C291.426 35.192 291.351 34.936 291.287 34.68C291.245 34.424 291.223 34.2 291.223 34.008C291.223 33.816 291.223 33.7093 291.223 33.688V13.912C291.223 13.656 291.223 13.3787 291.223 13.08C291.223 12.7813 291.245 12.4827 291.287 12.184C291.33 11.8853 291.394 11.608 291.479 11.352C291.565 11.096 291.682 10.8933 291.831 10.744C292.066 10.5093 292.311 10.3707 292.567 10.328C292.823 10.264 293.101 10.232 293.399 10.232C293.762 10.232 294.093 10.3387 294.391 10.552C294.711 10.744 294.935 11.0213 295.063 11.384C295.255 11.832 295.362 12.3013 295.383 12.792C295.405 13.2827 295.426 13.7733 295.447 14.264V14.424C295.49 16.0667 295.501 17.752 295.479 19.48C295.458 21.208 295.447 22.84 295.447 24.376V32.472C295.447 32.664 295.447 32.856 295.447 33.048C295.469 33.24 295.469 33.432 295.447 33.624ZM280.343 30.488C280.322 30.232 280.311 29.976 280.311 29.72C280.311 29.464 280.311 29.208 280.311 28.952V18.776C280.311 18.4347 280.311 18.0933 280.311 17.752C280.311 17.4107 280.29 17.0587 280.247 16.696C280.226 16.5893 280.194 16.44 280.151 16.248C280.13 16.056 280.066 15.9387 279.959 15.896C279.853 15.832 279.725 15.8107 279.575 15.832C279.447 15.832 279.319 15.8213 279.191 15.8C279.042 15.7787 278.893 15.7787 278.743 15.8C278.615 15.8213 278.477 15.8213 278.327 15.8H276.823C276.461 15.8213 276.098 15.8213 275.735 15.8C275.373 15.7787 275.01 15.7787 274.647 15.8C274.477 15.8213 274.317 15.832 274.167 15.832C274.039 15.8107 273.89 15.8 273.719 15.8C273.485 15.8 273.239 15.7893 272.983 15.768C272.727 15.7467 272.493 15.6613 272.279 15.512C271.981 15.2987 271.778 15.032 271.671 14.712C271.565 14.392 271.511 14.0613 271.511 13.72C271.49 13.3147 271.575 12.9093 271.767 12.504C271.874 12.248 272.013 12.0667 272.183 11.96C272.29 11.8533 272.439 11.768 272.631 11.704C272.845 11.6187 273.026 11.5547 273.175 11.512C273.623 11.4053 274.093 11.352 274.583 11.352C275.074 11.3307 275.554 11.32 276.023 11.32H281.591C281.869 11.3627 282.157 11.4053 282.455 11.448C282.775 11.4693 283.063 11.5333 283.319 11.64C283.49 11.704 283.65 11.7893 283.799 11.896C283.97 12.0027 284.109 12.1307 284.215 12.28C284.407 12.5787 284.514 12.8773 284.535 13.176C284.578 13.4747 284.621 13.8053 284.663 14.168C284.706 14.7653 284.727 15.3627 284.727 15.96C284.727 16.536 284.727 17.1227 284.727 17.72V28.216C284.727 28.2373 284.727 28.408 284.727 28.728C284.749 29.0267 284.759 29.3893 284.759 29.816C284.759 30.2213 284.759 30.6587 284.759 31.128C284.759 31.576 284.749 31.9707 284.727 32.312C284.706 32.5253 284.674 32.7493 284.631 32.984C284.589 33.2187 284.514 33.4427 284.407 33.656C284.322 33.8693 284.194 34.0613 284.023 34.232C283.853 34.4027 283.629 34.5413 283.351 34.648C282.989 34.7973 282.626 34.872 282.263 34.872C281.986 34.872 281.709 34.8187 281.431 34.712C281.154 34.584 280.962 34.4027 280.855 34.168C280.514 33.4853 280.343 32.728 280.343 31.896V30.488ZM328.724 23.672C328.958 23.736 329.246 23.7787 329.588 23.8C329.95 23.8213 330.217 23.8747 330.388 23.96C330.558 24.0027 330.697 24.0773 330.804 24.184C330.932 24.2907 331.049 24.3867 331.156 24.472C331.305 24.664 331.401 24.888 331.444 25.144C331.508 25.4 331.518 25.656 331.476 25.912C331.454 26.168 331.38 26.4133 331.252 26.648C331.145 26.8613 330.996 27.032 330.804 27.16C330.612 27.288 330.324 27.384 329.94 27.448C329.577 27.4907 329.214 27.5227 328.852 27.544C328.425 27.5653 327.966 27.5547 327.476 27.512H325.972V29.208V31.448V32.664C325.972 32.92 325.95 33.2293 325.908 33.592C325.865 33.9333 325.801 34.232 325.716 34.488C325.609 34.7013 325.492 34.904 325.364 35.096C325.257 35.3093 325.086 35.48 324.852 35.608C324.724 35.7147 324.564 35.7787 324.372 35.8C324.179 35.8427 323.998 35.864 323.828 35.864C323.614 35.864 323.401 35.8427 323.188 35.8C322.996 35.7787 322.836 35.7147 322.708 35.608C322.473 35.48 322.292 35.288 322.164 35.032C322.036 34.776 321.94 34.4987 321.876 34.2C321.812 33.88 321.769 33.5707 321.748 33.272C321.748 32.9733 321.748 32.7173 321.748 32.504V27.512H316.724V29.112V32.6C316.724 32.7707 316.724 32.9413 316.724 33.112C316.724 33.2613 316.702 33.4 316.66 33.528C316.66 33.6987 316.628 33.8907 316.564 34.104C316.5 34.296 316.446 34.4773 316.404 34.648C316.297 34.8187 316.18 34.9787 316.052 35.128C315.945 35.2987 315.806 35.4267 315.635 35.512C315.465 35.6613 315.284 35.7573 315.092 35.8C314.921 35.8427 314.718 35.864 314.484 35.864C314.313 35.864 314.132 35.8427 313.94 35.8C313.748 35.7787 313.566 35.7147 313.396 35.608C313.054 35.3733 312.809 35.0107 312.66 34.52C312.51 34.0293 312.457 33.5813 312.5 33.176V27.512H310.612C310.398 27.512 310.174 27.4907 309.94 27.448C309.705 27.4053 309.47 27.3627 309.236 27.32C309.022 27.2347 308.83 27.1493 308.66 27.064C308.489 26.9573 308.34 26.8187 308.212 26.648C307.934 26.264 307.849 25.8267 307.956 25.336C307.956 25.1653 307.977 24.9947 308.02 24.824C308.084 24.6533 308.201 24.4827 308.372 24.312C308.414 24.2053 308.489 24.1307 308.596 24.088C308.724 24.0453 308.852 24.0027 308.98 23.96C309.193 23.8747 309.406 23.8107 309.62 23.768C309.833 23.704 310.046 23.672 310.26 23.672H323.572V22.488C323.572 21.528 323.55 20.568 323.508 19.608C323.486 18.6267 323.476 17.656 323.476 16.696C323.476 16.3973 323.465 16.1093 323.444 15.832C323.422 15.5333 323.198 15.3627 322.772 15.32H322.388H312.276C312.041 15.32 311.828 15.3093 311.636 15.288C311.444 15.2453 311.22 15.2027 310.964 15.16C310.537 14.968 310.185 14.7013 309.908 14.36C309.758 14.04 309.684 13.6133 309.684 13.08C309.726 12.824 309.78 12.5893 309.844 12.376C309.929 12.1627 310.046 12.0027 310.196 11.896C310.324 11.7467 310.462 11.6507 310.612 11.608C310.761 11.544 310.91 11.4693 311.06 11.384C311.401 11.256 311.742 11.192 312.084 11.192C312.254 11.192 312.425 11.1813 312.596 11.16C312.788 11.1173 313.001 11.096 313.236 11.096H323.635C323.806 11.096 323.977 11.1173 324.148 11.16C324.34 11.1813 324.553 11.192 324.788 11.192C325.15 11.192 325.513 11.256 325.876 11.384C326.26 11.448 326.601 11.6187 326.9 11.896C327.177 12.1093 327.38 12.376 327.508 12.696C327.657 12.9947 327.753 13.3147 327.796 13.656C327.838 13.9973 327.86 14.3493 327.86 14.712C327.86 15.0747 327.87 15.416 327.892 15.736V18.712V21.976V23.608C328.02 23.608 328.148 23.6187 328.276 23.64C328.404 23.6613 328.553 23.672 328.724 23.672ZM344.861 20.344C345.224 20.7707 345.586 21.2187 345.949 21.688C346.312 22.1573 346.557 22.6267 346.685 23.096C346.728 23.3093 346.728 23.5333 346.685 23.768C346.642 24.0027 346.525 24.2053 346.333 24.376C346.013 24.5893 345.672 24.696 345.309 24.696C344.904 24.696 344.509 24.6 344.125 24.408C343.762 24.216 343.464 24.024 343.229 23.832C342.866 23.512 342.536 23.192 342.237 22.872C341.938 22.5307 341.64 22.2 341.341 21.88C341.106 21.624 340.85 21.368 340.573 21.112C340.296 20.856 340.05 20.5787 339.837 20.28L336.669 23.768C336.328 24.1307 335.965 24.3867 335.581 24.536C335.197 24.664 334.834 24.728 334.493 24.728C334.386 24.728 334.226 24.7067 334.013 24.664C333.608 24.5573 333.33 24.3653 333.181 24.088C333.053 23.8533 333.01 23.5867 333.053 23.288C333.096 22.9893 333.181 22.7227 333.309 22.488C333.458 22.232 333.618 21.9973 333.789 21.784C333.981 21.5707 334.173 21.3467 334.365 21.112C334.92 20.4933 335.453 19.8533 335.965 19.192C336.498 18.5093 337.074 17.848 337.693 17.208V15.448C337.608 15.448 337.458 15.448 337.245 15.448C337.053 15.448 336.829 15.448 336.573 15.448C336.338 15.448 336.093 15.448 335.837 15.448C335.581 15.448 335.357 15.448 335.165 15.448C334.888 15.448 334.61 15.416 334.333 15.352C334.056 15.288 333.8 15.192 333.565 15.064C333.352 14.936 333.17 14.7653 333.021 14.552C332.872 14.3387 332.797 14.072 332.797 13.752C332.776 13.048 332.946 12.568 333.309 12.312C333.693 12.056 334.312 11.928 335.165 11.928C335.229 11.928 335.421 11.9387 335.741 11.96C336.082 11.96 336.765 11.96 337.789 11.96C337.832 11.4693 337.928 11.0107 338.077 10.584C338.248 10.136 338.568 9.82667 339.037 9.656C339.805 9.35733 340.413 9.34667 340.861 9.624C341.33 9.90133 341.618 10.3493 341.725 10.968C341.746 11.032 341.757 11.2027 341.757 11.48C341.778 11.736 341.789 11.896 341.789 11.96H343.933C344.68 11.96 345.277 12.0133 345.725 12.12C346.173 12.2053 346.546 12.4613 346.845 12.888C346.93 13.016 346.994 13.1973 347.037 13.432C347.08 13.6453 347.08 13.8693 347.037 14.104C347.016 14.3173 346.962 14.52 346.877 14.712C346.792 14.904 346.685 15.0427 346.557 15.128C346.386 15.192 346.194 15.2667 345.981 15.352C345.789 15.416 345.608 15.448 345.437 15.448C345.181 15.4693 344.946 15.48 344.733 15.48C344.541 15.4587 344.317 15.448 344.061 15.448C343.677 15.448 343.325 15.4587 343.005 15.48C342.685 15.48 342.376 15.4693 342.077 15.448C342.077 15.7253 342.077 15.9067 342.077 15.992C342.077 16.056 342.077 16.12 342.077 16.184C342.077 16.248 342.077 16.344 342.077 16.472C342.077 16.6 342.077 16.8453 342.077 17.208C342.184 17.2933 342.322 17.464 342.493 17.72C342.664 17.976 342.834 18.1893 343.005 18.36C343.176 18.5307 343.357 18.7227 343.549 18.936C343.741 19.128 343.944 19.3413 344.157 19.576C344.306 19.7253 344.434 19.864 344.541 19.992C344.648 20.12 344.754 20.2373 344.861 20.344ZM351.741 27.416C352.381 27.3947 352.882 27.448 353.245 27.576C353.629 27.704 353.928 27.8747 354.141 28.088C354.354 28.3013 354.493 28.536 354.557 28.792C354.621 29.048 354.653 29.304 354.653 29.56V33.272C354.696 33.7413 354.696 34.2107 354.653 34.68C354.61 35.128 354.429 35.4907 354.109 35.768C353.81 36.0453 353.416 36.184 352.925 36.184C352.818 36.184 352.626 36.1733 352.349 36.152C352.072 36.152 351.88 36.1307 351.773 36.088C351.496 36.0027 351.272 35.8747 351.101 35.704C350.952 35.5333 350.834 35.3413 350.749 35.128C350.664 34.9147 350.61 34.6907 350.589 34.456C350.568 34.2 350.546 33.9547 350.525 33.72C350.525 33.6347 350.514 33.4747 350.493 33.24C350.493 32.984 350.482 32.728 350.461 32.472C350.461 32.1947 350.45 31.9387 350.429 31.704C350.429 31.4693 350.418 31.3093 350.397 31.224C350.333 31.2027 350.152 31.1813 349.853 31.16C349.576 31.1387 349.042 31.128 348.253 31.128C347.57 31.128 347.144 31.1387 346.973 31.16C346.824 31.16 346.738 31.1707 346.717 31.192H335.485L335.453 31.16C335.453 31.16 335.378 31.1387 335.229 31.096C335.101 31.0533 334.952 30.9893 334.781 30.904C334.61 30.8187 334.44 30.7013 334.269 30.552C334.12 30.4027 334.034 30.2107 334.013 29.976C333.906 29.1653 334.045 28.5253 334.429 28.056C334.685 27.7573 334.962 27.5867 335.261 27.544C335.56 27.48 335.72 27.448 335.741 27.448L351.741 27.416ZM354.557 22.84C354.557 22.84 354.546 22.9147 354.525 23.064C354.504 23.2133 354.461 23.384 354.397 23.576C354.333 23.768 354.237 23.9707 354.109 24.184C353.981 24.376 353.81 24.536 353.597 24.664C353.298 24.8347 353 24.92 352.701 24.92C352.338 24.92 351.986 24.8027 351.645 24.568C351.41 24.3973 351.229 24.1733 351.101 23.896C350.93 23.576 350.813 23.224 350.749 22.84C350.706 22.456 350.674 22.0613 350.653 21.656C350.653 21.2507 350.664 20.856 350.685 20.472C350.706 20.0667 350.717 19.6827 350.717 19.32C350.738 18.4027 350.749 17.496 350.749 16.6C350.749 15.6827 350.749 14.776 350.749 13.88V13.464C350.728 13.2293 350.717 12.984 350.717 12.728C350.738 12.4507 350.781 12.1947 350.845 11.96C350.93 11.64 351.122 11.2987 351.421 10.936C351.592 10.7227 351.826 10.5733 352.125 10.488C352.445 10.3813 352.786 10.3493 353.149 10.392C353.789 10.4987 354.216 10.776 354.429 11.224C354.557 11.5013 354.61 11.8427 354.589 12.248C354.589 12.6533 354.578 12.8987 354.557 12.984V22.84Z" fill="#231815"/>
<path d="M73.0621 0C84.6202 0 94 9.36851 94 20.9127V56H48.9379C37.3798 56 28 46.6315 28 35.0873V20.9127C28.0163 9.36851 37.3961 0 48.9542 0H73.0783H73.0621Z" fill="#C2CC66"/>
<g filter="url(#filter0_d_4153_1254)">
<path d="M50 28H72" stroke="white" stroke-width="8" stroke-miterlimit="10" stroke-linecap="round"/>
<path d="M61 39L61 17" stroke="white" stroke-width="8" stroke-miterlimit="10" stroke-linecap="round"/>
</g>
<path d="M88 46H357C368.046 46 377 37.0457 377 26V16" stroke="#C2CC66" stroke-width="2" stroke-linecap="round" stroke-linejoin="round"/>
<path d="M927.387 79H37.613C28.4379 79 21 86.5603 21 95.8864V288.114C21 297.44 28.4379 305 37.613 305H927.387C936.562 305 944 297.44 944 288.114V95.8864C944 86.5603 936.562 79 927.387 79Z" fill="#F9FAF1"/>
<defs>
<filter id="filter0_d_4153_1254" x="46" y="13" width="32" height="32" filterUnits="userSpaceOnUse" color-interpolation-filters="sRGB">
<feFlood flood-opacity="0" result="BackgroundImageFix"/>
<feColorMatrix in="SourceAlpha" type="matrix" values="0 0 0 0 0 0 0 0 0 0 0 0 0 0 0 0 0 0 127 0" result="hardAlpha"/>
<feOffset dx="2" dy="2"/>
<feComposite in2="hardAlpha" operator="out"/>
<feColorMatrix type="matrix" values="0 0 0 0 0 0 0 0 0 0 0 0 0 0 0 0 0 0 0.25 0"/>
<feBlend mode="normal" in2="BackgroundImageFix" result="effect1_dropShadow_4153_1254"/>
<feBlend mode="normal" in="SourceGraphic" in2="effect1_dropShadow_4153_1254" result="shape"/>
</filter>
</defs>
</svg>
