<svg width="28" height="20" viewBox="0 0 28 20" fill="none" xmlns="http://www.w3.org/2000/svg">
<path d="M27.8997 9.93777C27.8403 13.1577 26.222 15.2944 23.1309 16.1696C22.728 16.2852 22.5662 16.4734 22.4275 16.8367C21.8066 18.4747 20.6078 19.4028 18.8508 19.5084C17.0047 19.6207 15.6045 18.8578 14.8152 17.1604C14.6005 16.698 14.3198 16.4965 13.8442 16.4635C13.0549 16.4041 12.3482 16.1234 11.7967 15.552C11.5094 15.2548 11.3178 15.2515 10.9975 15.5322C9.9671 16.4371 8.74847 16.7112 7.40435 16.48C5.42946 16.1432 4.1679 14.7429 4.05231 12.735C3.99287 11.6716 3.94333 10.6082 3.92682 9.54477C3.92021 9.13196 3.79471 8.94702 3.3852 8.7918C1.51929 8.07516 0.667241 6.6848 0.759711 4.63394C0.838971 2.88031 1.94201 1.35786 3.72866 0.948347C6.44333 0.327476 9.19762 -0.111758 11.9948 0.459576C12.3119 0.525626 12.5794 0.433156 12.87 0.350593C15.2115 -0.306605 17.2855 0.631307 18.2729 2.83408C18.4644 3.2601 18.7055 3.29973 19.0886 3.28982C20.5153 3.2568 21.9255 3.40541 23.2993 3.80502C26.1626 4.63725 27.9525 7.03487 27.8997 9.93447V9.93777ZM17.3251 13.9239C17.3251 14.3895 17.3086 14.8519 17.3284 15.3176C17.3647 16.2125 17.7478 16.6253 18.5437 16.6518C19.2042 16.6749 19.7128 16.1894 19.7855 15.3935C19.835 14.8519 19.8185 14.3004 19.8119 13.7555C19.8086 13.4021 19.8977 13.2568 20.2874 13.3724C20.8456 13.5408 21.4301 13.4979 21.9981 13.4483C23.3819 13.3294 24.475 12.408 24.8317 11.0903C25.2511 9.54477 24.8053 8.08837 23.6824 7.25613C22.7148 6.53619 21.5688 6.39418 20.4327 6.26869C18.3984 6.05072 18.154 6.25217 17.7874 8.28652C17.7445 8.5276 17.7016 8.76868 17.6818 9.01307C17.6388 9.53156 17.5992 10.0104 17.1104 10.377C16.7174 10.6709 16.6877 11.2588 16.9387 11.5791C17.5232 12.3189 17.3185 13.1247 17.3251 13.9206V13.9239ZM9.3099 10.5884C9.3099 10.5884 9.28678 10.5884 9.27357 10.5884C9.27357 9.98731 9.29339 9.38625 9.26697 8.7885C9.24055 8.16102 9.1778 7.53685 9.12826 6.91267C9.06441 6.08264 9.4464 5.64781 10.2742 5.60818C11.2617 5.55865 11.7604 5.13593 11.7538 4.34332C11.7505 3.55733 11.2683 3.13791 10.2313 3.15772C9.05891 3.18084 7.88652 3.27661 6.72074 3.37899C5.96116 3.44504 5.19498 3.49458 4.46512 3.75218C3.7815 3.99326 3.42153 4.69669 3.60647 5.38361C3.76499 5.97476 4.39247 6.27859 5.12563 6.11347C5.31057 6.07053 5.4922 6.01109 5.67384 5.95495C6.23857 5.77661 6.48295 5.8955 6.5457 6.56591C6.73395 8.521 6.82972 10.4794 6.86605 12.4444C6.88256 13.3327 7.25574 13.6597 8.06155 13.6564C8.88718 13.6498 9.25376 13.3261 9.3033 12.4774C9.33962 11.8532 9.3099 11.2224 9.3099 10.595V10.5884ZM15.73 10.9186C15.7498 9.85521 15.6738 8.80171 15.4394 7.76142C15.2709 7.01505 14.8119 6.64187 14.0292 6.71783C13.2135 6.79709 12.9691 7.41466 12.9955 8.05204C13.0549 9.59761 13.2168 11.1399 13.3489 12.6822C13.4116 13.4351 13.874 13.6795 14.584 13.6564C15.3271 13.6333 15.687 13.2535 15.7234 12.5534C15.7531 12.0117 15.73 11.4668 15.73 10.9219V10.9186ZM15.5615 4.23104C15.7861 3.54081 15.3304 3.11479 14.7062 3.02562C13.5734 2.8638 12.7907 3.5177 12.7742 4.48533C12.7577 5.33408 13.2729 5.8922 14.0985 5.92192C15.0596 5.95495 15.5285 5.43976 15.5615 4.23434V4.23104Z" fill="#6A83B4"/>
<path d="M17.3253 13.92C17.3154 13.1241 17.5234 12.3183 16.9389 11.5785C16.6846 11.2582 16.7143 10.6736 17.1106 10.3764C17.5994 10.0098 17.639 9.52767 17.682 9.01248C17.7018 8.7681 17.7447 8.52701 17.7876 8.28593C18.1542 6.25489 18.3986 6.05013 20.4329 6.2681C21.5723 6.39029 22.715 6.5356 23.6826 7.25555C24.8055 8.09108 25.2513 9.54419 24.8319 11.0898C24.4752 12.4075 23.3821 13.3289 21.9983 13.4477C21.427 13.4973 20.8458 13.5402 20.2876 13.3718C19.8979 13.2529 19.8055 13.4015 19.8121 13.7549C19.8187 14.2998 19.8352 14.8513 19.7857 15.3929C19.713 16.1888 19.2011 16.6743 18.5439 16.6512C17.748 16.6215 17.3682 16.2119 17.3286 15.317C17.3088 14.8546 17.3253 14.389 17.3253 13.9233V13.92ZM21.1496 11.0204C22.0446 11.0402 22.5135 10.6869 22.5466 10.023C22.5829 9.31962 21.8101 8.69874 20.7632 8.71526C19.6073 8.73507 20.1588 9.73903 20.0466 10.2641C19.8418 11.2318 20.7764 10.8322 21.1496 11.0237V11.0204Z" fill="#FCFCFC"/>
<path d="M9.30999 10.5863C9.30999 11.2138 9.33971 11.8446 9.30338 12.4688C9.25384 13.3175 8.88727 13.6412 8.06164 13.6478C7.25253 13.6544 6.88265 13.3241 6.86613 12.4358C6.83311 10.4708 6.73403 8.51568 6.54579 6.55729C6.48304 5.88688 6.23535 5.76469 5.67393 5.94633C5.49229 6.00577 5.31065 6.06191 5.12571 6.10485C4.39256 6.27327 3.76508 5.96944 3.60656 5.37499C3.42162 4.69137 3.78489 3.98464 4.46521 3.74355C5.19176 3.48596 5.96125 3.43642 6.72082 3.37037C7.88991 3.26799 9.0623 3.17222 10.2314 3.1491C11.2717 3.12929 11.7505 3.55201 11.7538 4.3347C11.7571 5.12731 11.2618 5.55003 10.2743 5.59956C9.44869 5.6414 9.0667 6.07623 9.12835 6.90405C9.17458 7.52823 9.24063 8.1524 9.26706 8.77988C9.29017 9.37763 9.27366 9.97869 9.27366 10.5797C9.28687 10.5797 9.29678 10.5797 9.30999 10.5797V10.5863Z" fill="#FCFCFC"/>
<path d="M15.5546 10.8974C15.5546 11.4423 15.5777 11.9872 15.5479 12.5288C15.5116 13.2322 15.1483 13.6087 14.4086 13.6318C13.6985 13.655 13.2362 13.4106 13.1734 12.6576C13.0413 11.1153 12.8795 9.57306 12.8201 8.02749C12.797 7.39341 13.0413 6.77253 13.8538 6.69327C14.6365 6.61732 15.0922 6.9905 15.2639 7.73687C15.4984 8.77716 15.5744 9.83066 15.5546 10.8941V10.8974Z" fill="#FCFCFC"/>
<path d="M15.5614 4.23321C15.5284 5.43863 15.0594 5.95712 14.0984 5.9208C13.2694 5.89107 12.7576 5.33295 12.7741 4.48421C12.7939 3.51987 13.5766 2.86267 14.706 3.0245C15.3302 3.11367 15.786 3.54299 15.5614 4.22991V4.23321Z" fill="#FCFCFC"/>
<path d="M21.1492 11.0242C20.7463 10.9648 19.5508 11.2521 19.7556 10.2845C19.8679 9.75936 19.6037 8.73889 20.7595 8.71907C21.8064 8.70256 22.5792 9.32343 22.5429 10.0269C22.5099 10.6907 22.0409 11.044 21.1459 11.0242H21.1492Z" fill="#6A83B4"/>
</svg>
