<svg width="700" height="343" viewBox="0 0 700 343" fill="none" xmlns="http://www.w3.org/2000/svg">
<path d="M24.9246 0.310547H674.791C688.27 0.310547 699.216 11.2563 699.216 24.7359V317.944C699.216 331.423 688.27 342.369 674.791 342.369H24.9246C11.4449 342.369 0.499207 331.423 0.499207 317.944V24.7359C0.499207 11.2563 11.4449 0.310547 24.9246 0.310547Z" fill="#BACAD8"/>
<path d="M662.586 10.8145H37.1458C23.6561 10.8145 12.7205 21.7501 12.7205 35.2398V307.935C12.7205 321.425 23.6561 332.36 37.1458 332.36H662.586C676.076 332.36 687.012 321.425 687.012 307.935V35.2398C687.012 21.7501 676.076 10.8145 662.586 10.8145Z" fill="white"/>
<mask id="mask0_606_325" style="mask-type:luminance" maskUnits="userSpaceOnUse" x="12" y="10" width="676" height="323">
<path d="M37.1466 10.8281H662.587C676.067 10.8281 687.013 21.7739 687.013 35.2535V307.931C687.013 321.411 676.067 332.357 662.587 332.357H37.1466C23.667 332.357 12.7213 321.411 12.7213 307.931V35.2707C12.7213 21.7911 23.667 10.8454 37.1466 10.8454V10.8281Z" fill="white"/>
</mask>
<g mask="url(#mask0_606_325)">
<g opacity="0.2">
<mask id="mask1_606_325" style="mask-type:luminance" maskUnits="userSpaceOnUse" x="-18" y="-20" width="756" height="432">
<path d="M737.809 -19.168H-17.5155V411.232H737.809V-19.168Z" fill="white"/>
</mask>
<g mask="url(#mask1_606_325)">
<path d="M4.44739 37.5721V366.279C4.44739 375.122 11.5024 382.272 20.2134 382.272H720.385C729.096 382.272 736.151 375.104 736.151 366.279V25.7412C736.151 16.8984 729.096 9.74805 720.385 9.74805H31.874C16.729 9.74805 4.44739 22.2006 4.44739 37.5721Z" fill="#E0E3E0"/>
<path d="M202.682 381.029L202.947 381.259H331.836L326.211 345.126L348.818 301.957L291.965 261.609L202.682 381.029Z" fill="#7DD178"/>
<path d="M302.757 241.274L349.311 275.238C349.311 275.238 359.063 209.479 368.744 207.24C378.408 205 399.411 205.106 402.708 223.64C406.006 242.173 422.318 253.265 422.318 253.265L448.716 204.418L358.71 160.244L302.774 241.256L302.757 241.274Z" fill="#7DD178"/>
<path d="M559.83 117.469L590.602 139.548L624.284 81.0544L586.388 66.4355L559.83 117.469Z" fill="#7DD178"/>
<path d="M35.5783 0.904297L48.8746 27.3206L108.796 0.904297H35.5783Z" fill="#7DD178"/>
<path d="M124.632 0.904354L79.9644 77.508L198.82 141.574L215.132 103.536C215.132 103.536 172.157 80.2061 159.989 65.3403C149.267 52.238 130.928 10.6033 126.713 0.886719H124.632V0.904354Z" fill="#7DD178"/>
<path d="M286.762 0.904297L273.431 24.746L381.124 77.3316L406.993 1.53913L405.247 0.904297H286.762Z" fill="#7DD178"/>
<path d="M-3.28778 109.199C11.7191 108.652 25.6326 107.418 26.0029 104.719C26.8141 98.812 11.7543 82.6942 11.7543 82.6942L-3.28778 79.9961V109.181V109.199Z" fill="#7DD178"/>
<path d="M360.192 121.778C360.192 121.778 310.04 103.526 298.471 95.6438C286.903 87.7613 255.391 62.1562 255.391 62.1562L268.652 35.2285L377.368 89.6305L360.192 121.778Z" fill="#7DD178"/>
<path d="M466.668 176.666L476.931 159.138L392.992 103.148L377.156 134.061L466.668 176.666Z" fill="#7DD178"/>
<path d="M-3.28754 237.728L3.87201 269.223L-1.34776 286.875L63.4233 296.168C59.5613 256.826 80.6697 215.614 80.6697 215.614L48.5927 179.834L-3.30518 199.972V237.763L-3.28754 237.728Z" fill="#7DD178"/>
<path d="M744.745 141.724L684.682 117.318L663.504 144.669L707.343 177.504L744.745 144.14V141.724Z" fill="#7DD178"/>
<path d="M149.443 0.904297C162.704 34.5507 180.445 63.277 200.125 74.228C229.063 90.3105 299.494 129.441 325.999 141.556C352.485 153.671 448.61 195.799 476.72 210.312C504.829 224.825 541.332 262.545 571.557 288.415C601.782 314.285 601.976 343.628 613.209 366.535C615.167 370.538 616.895 375.546 618.482 381.277H669.992C666.73 375.194 664.155 368.545 662.709 361.086C651.97 305.732 622.221 269.529 573.638 236.94C524.967 204.281 472.505 185.924 433.797 167.214C395.09 148.504 343.404 120.007 312.226 110.237C281.049 100.468 228.516 45.625 206.737 27.1971C200.371 21.8186 193.441 12.4901 186.352 0.921932H149.461L149.443 0.904297Z" fill="#99C9F5"/>
<path d="M420.466 0.904354C432.739 3.88456 443.673 6.08886 460.284 13.5306C492.608 28.026 527.824 37.9365 556.991 52.5201C585.859 66.9803 623.649 72.6938 657.807 85.6551C682.054 94.8426 713.813 106.887 744.744 121.418V100.785C715.453 85.4435 675.036 62.8539 657.207 57.0698C634 49.5399 586.123 39.9997 552.424 26.1568C532.885 18.1331 511.741 8.34605 493.913 0.886719H420.466V0.904354Z" fill="#99C9F5"/>
<path d="M631.127 104.342C631.127 104.43 631.127 104.518 631.127 104.624C631.021 105.294 630.404 105.77 629.734 105.664L624.584 104.941L592.155 146.929C591.749 147.458 590.991 147.563 590.444 147.175L557.45 123.14L535.919 149.062C535.478 149.591 534.702 149.662 534.173 149.239C533.644 148.815 533.574 148.04 534.014 147.511L556.287 120.689C556.71 120.195 557.45 120.089 557.979 120.477L590.938 144.477L623.086 102.878C623.35 102.525 623.791 102.349 624.232 102.402L630.104 103.213C630.686 103.301 631.109 103.76 631.162 104.324" fill="white"/>
<path d="M277.839 0.904297L255.197 43.2797C254.88 43.8792 255.109 44.6199 255.708 44.9373C256.308 45.2547 257.049 45.0255 257.366 44.4259L280.608 0.904297H277.822H277.839Z" fill="white"/>
<path d="M191.343 185.918C191.008 186.007 190.708 186.218 190.549 186.518L106.786 339.602L14.9464 375.999V378.627L108.109 341.7C108.373 341.595 108.602 341.401 108.744 341.154L192.066 188.881L274.701 245.24C275.265 245.628 276.023 245.487 276.411 244.923C276.587 244.676 276.64 244.394 276.623 244.129C276.587 243.777 276.411 243.442 276.094 243.23L192.33 186.095C192.048 185.901 191.678 185.83 191.343 185.918Z" fill="white"/>
<path d="M283.994 233.598C284.153 233.369 284.206 233.087 284.188 232.822C284.153 232.469 283.959 232.117 283.641 231.905L197.057 175.722L227.335 102.363C227.599 101.728 227.282 101.023 226.665 100.776C226.03 100.529 225.325 100.829 225.06 101.446L194.412 175.74C194.182 176.286 194.376 176.903 194.87 177.221L282.301 233.951C282.866 234.321 283.624 234.162 284.012 233.598" fill="white"/>
<path d="M652.182 230.331C651.759 230.86 651.829 231.619 652.358 232.042C652.887 232.465 653.663 232.377 654.086 231.866L684.224 195.08L701.752 210.828C702.264 211.286 703.039 211.233 703.498 210.74C703.727 210.475 703.833 210.14 703.815 209.805C703.798 209.505 703.657 209.223 703.41 209.011L685.793 193.176L698.948 177.111C699.16 176.846 699.248 176.511 699.213 176.176C699.16 175.841 698.984 175.541 698.701 175.347L624.813 123.696C624.249 123.308 623.491 123.45 623.103 123.996C622.715 124.543 622.838 125.301 623.403 125.689L696.215 176.582L652.2 230.314L652.182 230.331Z" fill="white"/>
<path d="M646.908 81.5833C647.032 81.3541 647.085 81.1072 647.067 80.8603C647.032 80.4724 646.82 80.1197 646.468 79.9081C645.886 79.573 645.127 79.767 644.792 80.3489L585.329 181.958C584.994 182.54 585.188 183.281 585.77 183.633C586.352 183.968 587.11 183.774 587.445 183.193L646.908 81.5833Z" fill="white"/>
<path d="M265.777 27.0239C265.46 27.6235 265.707 28.3641 266.324 28.6639L390.346 90.6134C390.964 90.9132 391.704 90.6663 392.004 90.0667C392.11 89.8551 392.145 89.6259 392.128 89.4143C392.092 89.0087 391.845 88.6207 391.457 88.4267L267.435 26.4772C266.818 26.1774 266.077 26.4243 265.777 27.0239Z" fill="white"/>
<path d="M102.854 101.932L42.1215 165.398C41.6806 165.856 41.663 166.579 42.0862 167.056L84.3911 214.933C84.2676 215.074 84.1618 215.233 84.0913 215.427C69.49 260.641 66.2982 279.404 66.8978 299.754L-3.26935 291.642V294.111L66.9859 302.241C67.2681 308.712 67.8853 315.449 68.6083 323.331C69.0668 328.339 69.5958 334.035 70.0896 340.349C70.0896 340.454 70.1072 340.56 70.1072 340.666C71.2535 354.368 77.0023 368.422 84.3558 381.278H87.1949C76.8083 363.45 73.352 349.8 72.576 340.437C72.576 340.331 72.576 340.243 72.5584 340.137C72.2939 336.698 74.5335 335.94 73.687 326.893C70.6892 292.436 70.0896 278.134 89.6814 217.455L157.662 244.7C158.297 244.947 159.02 244.647 159.267 244.012C159.337 243.818 159.372 243.642 159.355 243.448C159.319 243.007 159.037 242.584 158.596 242.407L86.6306 213.751L44.6785 166.262L104.635 103.607C105.111 103.113 105.094 102.338 104.6 101.879C104.106 101.403 103.33 101.438 102.854 101.932Z" fill="white"/>
<path d="M517.843 69.9631C517.931 69.7691 517.966 69.5575 517.949 69.3635C517.914 68.9403 517.649 68.5347 517.226 68.3407L455.276 40.8487C454.694 40.6019 454.024 40.8135 453.707 41.3425L415.335 106.184C414.982 106.766 415.176 107.524 415.775 107.859C416.357 108.194 417.116 108 417.468 107.418L455.276 43.5292L516.203 70.5803C516.82 70.8624 517.561 70.5803 517.843 69.9631Z" fill="white"/>
<path d="M140.804 0.904297C150.432 26.5094 161.436 50.7214 171.311 62.9949C184.625 79.5183 218.042 100.962 270.663 126.761C309.776 145.947 345.45 160.478 345.803 160.619C346.438 160.883 347.161 160.566 347.425 159.949C347.496 159.755 347.531 159.561 347.514 159.384C347.478 158.943 347.196 158.538 346.755 158.362C345.345 157.78 204.517 100.256 173.251 61.4607C164.804 50.9859 154.329 29.6659 143.449 0.921932H140.821L140.804 0.904297Z" fill="white"/>
<path d="M404.454 325.174C403.008 326.849 372.518 362.383 365.641 381.287H368.251C370.949 374.374 377.209 364.234 386.714 351.397C396.448 338.259 406.235 326.885 406.323 326.761C406.764 326.25 406.711 325.474 406.182 325.033C405.671 324.592 404.895 324.663 404.454 325.174Z" fill="white"/>
<path d="M362.749 293.651L333.582 344.138C333.458 344.368 333.388 344.632 333.423 344.879C333.423 345.02 334.94 358.422 336.809 371.86C337.303 375.422 337.761 378.525 338.184 381.259H340.671C339.048 370.995 337.32 357.646 335.91 345.002L364.883 294.868C365.006 294.639 365.059 294.392 365.041 294.163C365.006 293.775 364.795 293.404 364.424 293.21C363.842 292.875 363.084 293.087 362.749 293.669" fill="white"/>
<path d="M232.606 260.56C232.624 260.842 232.553 261.142 232.359 261.389L219.486 278.459C219.275 278.741 218.957 278.917 218.605 278.953C218.252 278.988 217.917 278.864 217.652 278.618L168.505 232.222C168.012 231.763 167.994 230.987 168.47 230.493C168.946 230 169.722 229.982 170.216 230.441L218.358 275.884L230.384 259.925C230.79 259.379 231.566 259.273 232.113 259.678C232.412 259.89 232.571 260.225 232.606 260.56Z" fill="white"/>
<path d="M210.3 230.16C210.318 230.46 210.247 230.76 210.053 231.006L193.195 252.697C192.772 253.226 192.013 253.332 191.467 252.926C190.938 252.52 190.832 251.744 191.255 251.215L208.114 229.525C208.537 228.996 209.295 228.89 209.842 229.296C210.124 229.507 210.283 229.825 210.318 230.16" fill="white"/>
<path d="M510.066 123.235C510.084 123.517 510.014 123.817 509.82 124.064C509.414 124.61 508.638 124.716 508.091 124.311L407.558 50.1935C407.011 49.7879 406.906 49.0296 407.311 48.483C407.717 47.9363 408.493 47.8305 409.039 48.2361L509.573 122.371C509.873 122.583 510.031 122.918 510.066 123.253" fill="white"/>
<path d="M489.962 155.707C489.98 155.971 489.909 156.253 489.751 156.5C489.363 157.064 488.604 157.205 488.04 156.818L390.205 90.5476C389.64 90.1596 389.499 89.4013 389.887 88.8547C390.275 88.2904 391.033 88.1493 391.598 88.5373L489.433 154.807C489.751 155.019 489.927 155.354 489.962 155.707Z" fill="white"/>
<path d="M689.161 334.725L720.921 281.681L744.745 244.667V240.135L718.822 280.394L688.05 331.781L677.293 315.557C676.923 314.993 676.165 314.834 675.583 315.204C675.001 315.575 674.86 316.333 675.23 316.897L687.063 334.743C687.292 335.096 687.698 335.307 688.121 335.29C688.544 335.29 688.932 335.061 689.144 334.69" fill="white"/>
<path d="M438.066 22.7179C438.083 22.9824 438.03 23.2293 437.889 23.4586L427.591 40.1936C427.273 40.705 426.621 40.9166 426.074 40.6873L416.516 36.7372C415.882 36.4727 415.599 35.7673 415.864 35.1325C416.129 34.5153 416.852 34.2155 417.469 34.48L426.057 38.0245L435.138 23.2469L415.476 12.0491C414.894 11.7141 414.682 10.9734 415.018 10.3739C415.353 9.79193 416.111 9.58032 416.693 9.91537L437.448 21.748C437.731 21.9067 437.942 22.1889 438.03 22.5063C438.048 22.5768 438.066 22.6474 438.066 22.7003" fill="white"/>
<path d="M133.661 163.391L110.419 224.582C110.172 225.217 110.507 225.94 111.142 226.17C111.777 226.416 112.5 226.081 112.746 225.447L135.53 165.472L190.302 188.679C190.937 188.943 191.66 188.661 191.942 188.026C192.031 187.832 192.048 187.638 192.048 187.444C192.013 187.004 191.731 186.598 191.308 186.422L135.336 162.703C135.019 162.562 134.666 162.562 134.366 162.703C134.049 162.827 133.802 163.091 133.696 163.409" fill="white"/>
<path d="M-3.28778 192.718V195.363C23.8868 185.54 45.965 177.288 48.2046 176.459C48.7336 176.265 49.051 175.736 49.0157 175.207C49.0157 175.101 48.9805 174.995 48.9452 174.872C48.6983 174.237 47.9929 173.919 47.3405 174.149C46.7938 174.36 24.5392 182.684 -3.27015 192.718" fill="white"/>
<path d="M512.217 376.139C512.235 376.421 512.164 376.703 511.988 376.95C511.582 377.497 510.824 377.638 510.26 377.233L404.771 302.357C404.207 301.969 404.083 301.193 404.489 300.646C404.895 300.1 405.653 299.959 406.217 300.364L511.706 375.24C512.006 375.451 512.182 375.786 512.217 376.139Z" fill="white"/>
<path d="M567.802 322.525C567.837 322.878 567.713 323.231 567.431 323.513C566.937 323.989 566.162 323.989 565.685 323.513L497.211 254.633L437.73 244.899C437.06 244.793 436.602 244.158 436.725 243.488C436.831 242.818 437.466 242.36 438.154 242.483L498.022 252.288C498.287 252.323 498.516 252.446 498.692 252.64L567.449 321.802C567.66 322.014 567.784 322.278 567.802 322.561" fill="white"/>
<path d="M540.944 349.839C540.962 350.103 540.909 350.368 540.751 350.615C540.38 351.179 539.622 351.355 539.04 350.985L421.19 275.475C420.625 275.105 420.449 274.346 420.819 273.782C421.19 273.218 421.948 273.041 422.53 273.412L540.38 348.922C540.715 349.134 540.909 349.486 540.944 349.839Z" fill="white"/>
<path d="M510.948 265.333C510.966 265.58 510.913 265.844 510.772 266.073L463.829 342.677C463.477 343.259 462.718 343.435 462.136 343.1C461.554 342.747 461.378 341.989 461.731 341.407L508.673 264.804C509.026 264.222 509.784 264.045 510.366 264.398C510.719 264.61 510.931 264.962 510.948 265.35" fill="white"/>
<path d="M447.993 290.29C448.011 290.555 447.94 290.837 447.782 291.084L428.878 318.876C428.49 319.44 427.731 319.581 427.167 319.211C426.603 318.841 426.462 318.065 426.832 317.5L445.736 289.709C446.124 289.144 446.882 289.003 447.447 289.373C447.764 289.585 447.958 289.938 447.993 290.29Z" fill="white"/>
<path d="M744.744 91.5626L665.248 45.8543C665.248 45.8543 665.09 45.7661 665.002 45.7485L539.992 7.90516C539.339 7.71118 538.651 8.08151 538.457 8.71634C538.263 9.35118 538.616 10.0389 539.269 10.2329L664.155 48.0233L744.762 94.3664V91.5449L744.744 91.5626Z" fill="white"/>
<path d="M576.759 0.904297L571.451 18.7326C571.257 19.3675 571.628 20.0552 572.28 20.2316C572.933 20.4079 573.603 20.0552 573.797 19.4027L579.316 0.904297H576.759Z" fill="white"/>
<path d="M695.051 0.904297L663.627 46.2246C663.239 46.7713 663.38 47.5295 663.944 47.9175C664.509 48.3055 665.267 48.1644 665.655 47.6001L698.032 0.904297H695.069H695.051Z" fill="white"/>
<path d="M615.555 0.904297L684.082 19.1382L744.762 70.4366V67.2448L685.475 17.1103C685.334 16.9868 685.175 16.9163 684.999 16.8634L625.024 0.904297H615.555Z" fill="white"/>
<path d="M215.484 346.343C215.519 346.678 215.396 347.013 215.149 347.277C214.69 347.771 213.897 347.806 213.403 347.348C207.584 342.022 138.81 284.922 138.122 284.358C137.593 283.917 137.522 283.141 137.963 282.612C138.404 282.083 139.18 282.013 139.709 282.453C142.548 284.799 209.206 340.153 215.078 345.532C215.325 345.743 215.449 346.043 215.466 346.325" fill="white"/>
<path d="M253.292 295.061C253.327 295.396 253.222 295.731 252.975 295.995C252.516 296.489 251.74 296.524 251.229 296.083L223.508 270.902C223.014 270.443 222.979 269.667 223.437 269.173C223.896 268.68 224.671 268.644 225.183 269.085L252.904 294.267C253.133 294.479 253.274 294.761 253.292 295.061Z" fill="white"/>
<path d="M182.879 320.105L136.765 381.278H139.833L184.836 321.568C185.03 321.322 185.101 321.022 185.083 320.74C185.048 320.405 184.889 320.087 184.589 319.858C184.043 319.452 183.267 319.576 182.861 320.105" fill="white"/>
<path d="M220.316 0.904297L261.704 33.2281C262.233 33.6513 263.009 33.5455 263.432 33.0165C263.855 32.4874 263.767 31.7115 263.22 31.3059L224.284 0.904297H220.298H220.316Z" fill="white"/>
<path d="M633.207 282.843C632.661 283.231 632.519 283.989 632.907 284.553L661.546 324.636L675.653 373.148C675.706 373.29 675.777 373.431 675.865 373.554L681.896 381.278H685.017L677.963 372.249L663.873 323.755C663.838 323.631 663.768 323.508 663.697 323.384L634.935 283.143C634.547 282.596 633.772 282.473 633.225 282.861" fill="white"/>
<path d="M713.161 373.165L744.744 302.927V298.289C744.357 298.36 743.986 298.606 743.81 298.994L711.222 371.436L676.817 371.56C676.129 371.56 675.583 372.106 675.583 372.794C675.583 373.464 676.129 374.011 676.817 374.011L712.015 373.888C712.491 373.888 712.932 373.605 713.144 373.165" fill="white"/>
<path d="M705.419 307.112C705.454 307.43 705.348 307.765 705.101 308.029C704.643 308.541 703.867 308.576 703.373 308.135L654.667 264.825C654.156 264.384 654.12 263.608 654.579 263.097C655.037 262.585 655.813 262.55 656.307 263.009L705.013 306.301C705.26 306.513 705.383 306.812 705.419 307.112Z" fill="white"/>
<path d="M108.461 16.2354C108.479 16.4999 108.408 16.7821 108.25 17.0113L64.5165 81.8176C64.1286 82.3819 63.3703 82.523 62.806 82.1527C62.2417 81.7823 62.083 81.0241 62.471 80.4598L104 18.8982L22.9171 50.8517C22.2822 51.0985 21.5769 50.7988 21.33 50.1639C21.0831 49.5291 21.4005 48.8237 22.0177 48.5768L106.768 15.1774C107.262 14.9834 107.844 15.1244 108.179 15.5477C108.338 15.7417 108.426 15.9709 108.444 16.2178" fill="white"/>
<path d="M81.7101 126.965C81.7101 127.177 81.6925 127.389 81.6043 127.583C81.3222 128.2 80.5815 128.464 79.9643 128.164L33.3391 106.58C32.7219 106.298 32.4574 105.575 32.7395 104.958C33.0217 104.34 33.7623 104.076 34.3795 104.376L81.0048 125.96C81.4104 126.154 81.6749 126.542 81.7101 126.965Z" fill="white"/>
<path d="M122.094 316.43C122.111 316.659 122.058 316.888 121.935 317.082C121.617 317.611 120.93 317.77 120.401 317.47L72.7349 289.414C72.2059 289.097 72.0296 288.427 72.347 287.898C72.6644 287.369 73.3521 287.21 73.8812 287.51L121.547 315.566C121.864 315.76 122.058 316.077 122.094 316.412" fill="white"/>
<path d="M234.811 322.664C234.828 322.964 234.74 323.282 234.546 323.546C234.123 324.075 233.347 324.163 232.8 323.74L152.017 259.04C151.488 258.616 151.4 257.841 151.841 257.312C152.264 256.782 153.04 256.694 153.587 257.118L234.37 321.8C234.634 322.012 234.793 322.329 234.828 322.647" fill="white"/>
<path d="M332.612 187.266C332.612 187.478 332.595 187.689 332.489 187.901C332.189 188.518 331.448 188.765 330.849 188.483L213.439 132.6C212.822 132.3 212.575 131.577 212.857 130.96C213.157 130.343 213.898 130.096 214.515 130.378L331.924 186.261C332.33 186.455 332.577 186.843 332.612 187.266Z" fill="white"/>
<path d="M292.582 135.193C292.582 135.387 292.582 135.563 292.494 135.757L269.816 191.535C269.551 192.17 268.846 192.469 268.211 192.223C267.576 191.976 267.276 191.253 267.523 190.635L290.201 134.858C290.466 134.223 291.171 133.923 291.806 134.17C292.247 134.347 292.529 134.752 292.582 135.211" fill="white"/>
<path d="M-0.0256348 4.67383L25.9498 61.333L41.7854 166.416C41.8912 167.086 42.5084 167.545 43.1785 167.439C43.831 167.333 44.2719 166.769 44.219 166.134C44.219 166.099 44.219 166.081 44.219 166.046L28.3657 60.804C28.3657 60.6982 28.3128 60.5748 28.2599 60.4866L2.67242 4.69146H-0.0256348V4.67383Z" fill="white"/>
<path d="M625.413 266.515C625.431 266.815 625.343 267.133 625.149 267.397C624.725 267.926 623.95 268.014 623.403 267.591L562.829 219.273L479.471 177.162C478.872 176.845 478.625 176.122 478.942 175.504C479.26 174.905 480 174.658 480.6 174.958L564.063 217.121C564.063 217.121 564.204 217.21 564.275 217.263L624.955 265.669C625.219 265.88 625.378 266.198 625.413 266.515Z" fill="white"/>
<path d="M640.102 254.177C640.12 254.495 640.031 254.812 639.82 255.077C639.379 255.606 638.603 255.676 638.074 255.236L576.001 203.778L494.636 147.93C494.072 147.542 493.931 146.784 494.319 146.22C494.707 145.656 495.483 145.515 496.047 145.902L577.465 201.786C577.465 201.786 577.518 201.821 577.553 201.856L639.679 253.349C639.943 253.56 640.084 253.878 640.12 254.177" fill="white"/>
<path d="M587.622 182.465C587.622 182.676 587.604 182.888 587.499 183.1L577.853 203.309C577.553 203.926 576.83 204.19 576.213 203.891C575.595 203.608 575.331 202.868 575.631 202.251L585.277 182.042C585.576 181.424 586.299 181.16 586.917 181.46C587.322 181.654 587.587 182.042 587.622 182.465Z" fill="white"/>
<path d="M544.947 179.999C544.965 180.229 544.93 180.458 544.806 180.687L532.903 202.783C532.586 203.383 531.827 203.612 531.228 203.294C530.628 202.977 530.399 202.236 530.716 201.637L542.62 179.541C542.937 178.941 543.695 178.712 544.295 179.03C544.683 179.241 544.912 179.612 544.947 179.999Z" fill="white"/>
<path d="M624.055 211.333C624.072 211.598 624.002 211.88 623.843 212.127L610.882 230.925C610.494 231.489 609.735 231.63 609.171 231.242C608.607 230.854 608.466 230.096 608.854 229.532L621.815 210.734C622.203 210.169 622.961 210.028 623.526 210.416C623.843 210.628 624.019 210.963 624.055 211.316" fill="white"/>
<path d="M744.745 132.927L641.425 90.0046C640.79 89.7401 640.067 90.0399 639.802 90.6571C639.538 91.2743 639.838 91.9973 640.455 92.2618L744.745 135.589V132.927Z" fill="white"/>
<path d="M683.36 109.11C683.377 109.392 683.307 109.691 683.131 109.938L612.046 206.522C611.641 207.068 610.865 207.192 610.318 206.786C609.772 206.381 609.648 205.622 610.054 205.076L681.138 108.492C681.543 107.946 682.319 107.822 682.866 108.228C683.166 108.439 683.342 108.774 683.36 109.11Z" fill="white"/>
<path d="M744.745 293.26C735.804 286.488 726.775 279.805 719.528 274.497C691.136 253.688 662.198 233.409 657.596 231.081C653.099 228.824 604.781 195.248 528.336 141.269C518.99 134.656 508.673 127.444 508.568 127.373C506.892 126.21 504.582 126.615 503.401 128.273C502.219 129.93 502.607 132.223 504.283 133.387C504.388 133.457 514.687 140.67 524.015 147.265C569.777 179.589 647.544 234.291 654.21 237.641C657.948 239.528 685.352 258.608 715.084 280.404C726.229 288.569 736.192 296.029 744.709 302.536V293.242L744.745 293.26Z" fill="#F7C769"/>
<path d="M539.886 0.904297C530.54 25.3279 513.629 66.4865 512.817 68.4792C512.694 68.7613 512.606 69.0435 512.57 69.3256C512.482 69.8723 512.518 70.419 512.659 70.9303C512.8 71.4594 513.064 71.9531 513.452 72.3587C513.646 72.5703 513.858 72.7643 514.105 72.9407L528.847 83.5742C525.884 87.9475 520.136 97.3466 507.95 118.014C496.558 137.359 480.97 164.163 461.642 197.721C428.737 254.839 395.902 312.433 395.584 313.015C394.579 314.778 395.196 317.018 396.977 318.023C398.758 319.011 401.015 318.393 402.021 316.63C452.737 227.594 530.064 93.1673 536.412 85.6021C537.153 84.9849 537.629 84.1032 537.735 83.1157C537.858 81.8284 537.276 80.5587 536.236 79.8004L520.753 68.6379C524.95 58.41 539.745 22.2419 547.804 0.904297H539.904H539.886Z" fill="#F7C769"/>
<path d="M-3.28778 60.3246L30.0059 66.1086L308.347 216.724C310.145 217.694 312.385 217.041 313.372 215.242C313.743 214.59 313.884 213.867 313.813 213.179C313.708 211.998 313.037 210.887 311.909 210.27L33.039 59.3723C32.6863 59.1783 32.2984 59.0549 31.9104 58.9844L-3.28778 52.8652V60.3246Z" fill="#F7C769"/>
<path d="M287.997 244.439C286.869 246.132 287.327 248.407 289.038 249.535C290.678 250.611 410.239 329.031 484.991 381.282H497.864C425.105 329.966 300.095 247.948 293.129 243.399C291.418 242.288 289.126 242.746 287.997 244.439Z" fill="#F7C769"/>
<path d="M286.392 242.359L183.99 381.282H193.177L292.388 246.715C293.605 245.075 293.252 242.765 291.594 241.565C289.937 240.366 287.609 240.719 286.41 242.377" fill="#F7C769"/>
<path d="M412.901 0.904297C412.866 2.06816 412.83 3.2144 412.795 4.32536C411.772 38.3068 389.659 90.1518 348.888 154.235C317.905 202.941 286.798 241.843 286.498 242.231C285.211 243.818 285.475 246.145 287.08 247.415C288.685 248.685 291.012 248.42 292.3 246.815C292.617 246.428 323.918 207.262 355.131 158.22C373.488 129.371 388.23 102.796 398.952 79.2009C412.46 49.4693 419.62 24.3404 420.219 4.51934C420.254 3.33784 420.29 2.1387 420.343 0.904297H412.919H412.901Z" fill="#F7C769"/>
<path d="M653.716 260.528C596.264 313.696 538.97 365.805 521.935 381.27H532.921C554.999 361.203 606.827 313.995 658.777 265.924C696.497 231.026 724.271 204.944 744.745 185.406V175.195C723.725 195.316 694.417 222.879 653.716 260.528Z" fill="#F7C769"/>
<path d="M523.222 360.521L499.751 381.277H510.896L528.195 365.988C528.195 365.988 528.266 365.935 528.301 365.9L744.745 160.072V149.879L523.222 360.539V360.521Z" fill="#F7C769"/>
</g>
</g>
</g>
<path d="M687.223 119.846H4.44806V221.039H687.223V119.846Z" fill="#DBDCD9"/>
<path d="M288.011 10.8691H185.706V332.241H288.011V10.8691Z" fill="#DBDCD9"/>
<path d="M13.3441 103.166C5.97159 103.166 0 109.025 0 116.258V231.3C0 238.533 5.97159 244.392 13.3441 244.392C20.7167 244.392 26.6883 238.533 26.6883 231.3V116.258C26.6883 109.025 20.7167 103.166 13.3441 103.166Z" fill="#BACAD8"/>
<path d="M14.4562 156.543V205.471" stroke="#F4F7EB" stroke-width="4.93762" stroke-miterlimit="10" stroke-linecap="round"/>
<path d="M175.417 159.002C170.215 159.002 166 163.287 166 168.56C166 173.832 170.215 178.118 175.417 178.118C180.619 178.118 184.834 173.832 184.834 168.56C184.834 163.287 180.619 159.002 175.417 159.002Z" fill="#898989"/>
<path d="M14.5918 146.19C15.8355 146.19 16.847 145.179 16.847 143.935C16.847 142.691 15.8355 141.68 14.5918 141.68C13.3481 141.68 12.3365 142.691 12.3365 143.935C12.3365 145.179 13.3481 146.19 14.5918 146.19Z" fill="#F4F7EB"/>
<path d="M237.296 212.716C260.657 212.716 279.582 193.791 279.582 170.43C279.582 147.07 260.635 128.145 237.296 128.145C213.957 128.145 195.011 147.091 195.011 170.43C195.011 193.769 213.936 212.716 237.296 212.716Z" fill="#E6E5E6"/>
<path d="M227.364 116.27C227.364 110.994 231.71 106.721 237.056 106.721C242.403 106.721 246.748 110.994 246.748 116.27C246.748 121.545 242.403 125.819 237.056 125.819C231.71 125.819 227.364 121.545 227.364 116.27Z" fill="#898989"/>
<path d="M227.365 225.555C227.365 230.83 231.71 235.104 237.057 235.104C242.404 235.104 246.749 230.83 246.749 225.555C246.749 220.28 242.404 216.006 237.057 216.006C231.71 216.006 227.365 220.28 227.365 225.555Z" fill="#898989"/>
<path d="M236.449 183.53L230.547 182.958L230.977 168.867H236.86L236.449 183.53Z" fill="#4C4C4E"/>
<path d="M237.7 183.487L243.709 182.915L243.297 168.842H237.289L237.7 183.487Z" fill="#4C4C4E"/>
<mask id="mask2_606_325" style="mask-type:luminance" maskUnits="userSpaceOnUse" x="222" y="133" width="30" height="57">
<path d="M251.845 133.82H222.68V189.469H251.845V133.82Z" fill="white"/>
</mask>
<g mask="url(#mask2_606_325)">
<path d="M236.396 183.535V186.592H227.204C227.204 186.592 226.632 184.983 227.902 184.625C229.171 184.25 229.797 184.321 230.155 183.946C230.53 183.57 230.799 182.873 230.799 182.873L236.378 183.535H236.396Z" fill="#EE9B3A"/>
<path d="M237.881 183.535V186.592H247.054C247.054 186.592 247.627 184.983 246.357 184.625C245.087 184.25 244.462 184.321 244.104 183.946C243.746 183.57 243.46 182.873 243.46 182.873L237.881 183.535Z" fill="#EE9B3A"/>
<path d="M237.29 155.621H236.521C235.341 155.621 234.357 154.656 234.357 153.457V150.65C234.357 149.452 235.323 148.486 236.521 148.486H237.29C238.47 148.486 239.453 149.452 239.453 150.65V153.457C239.453 154.656 238.488 155.621 237.29 155.621Z" fill="#F7D0C5"/>
<path d="M245.122 147.11C244.425 147.11 243.853 146.52 243.853 145.822C243.853 145.125 244.443 144.553 245.14 144.553C245.838 144.553 246.41 145.143 246.41 145.84C246.41 146.538 245.82 147.11 245.122 147.11Z" fill="#F7D0C5"/>
<path d="M229.851 146.944C229.153 146.944 228.581 146.354 228.581 145.656C228.581 144.959 229.171 144.387 229.868 144.387C230.566 144.387 231.138 144.977 231.138 145.674C231.138 146.372 230.548 146.944 229.851 146.944Z" fill="#F7D0C5"/>
</g>
<mask id="mask3_606_325" style="mask-type:luminance" maskUnits="userSpaceOnUse" x="227" y="106" width="20" height="20">
<path d="M227.365 116.272C227.365 121.547 231.71 125.82 237.057 125.82C242.403 125.82 246.749 121.547 246.749 116.272C246.749 110.996 242.403 106.723 237.057 106.723C231.71 106.723 227.365 110.996 227.365 116.272Z" fill="white"/>
</mask>
<g mask="url(#mask3_606_325)">
<path d="M239.238 111.256L243.905 115.852C244.495 116.424 244.495 117.354 243.905 117.944L243.851 117.998C243.261 118.57 242.314 118.57 241.741 117.998L238.612 114.922V127.261C238.612 128.119 237.897 128.816 237.038 128.816C236.216 128.816 235.536 128.155 235.536 127.35V114.922L232.407 117.998C231.817 118.57 230.869 118.57 230.297 117.998L230.243 117.944C229.653 117.372 229.653 116.442 230.243 115.852L234.911 111.256L236.019 110.165C236.305 109.897 236.681 109.736 237.074 109.736C237.468 109.736 237.843 109.897 238.129 110.165L239.238 111.256Z" fill="#F9FBFC"/>
</g>
<path d="M196.518 16.5316H277.63C280.419 16.5316 282.69 18.8026 282.69 21.5921V77.3478C282.69 80.1373 280.419 82.4262 277.612 82.4262H196.518C193.728 82.4262 191.439 80.1552 191.439 77.3478V21.5921C191.439 18.8026 193.71 16.5137 196.518 16.5137V16.5316Z" fill="white"/>
<path d="M319.008 128.016H399.008C401.76 128.016 404 130.29 404 133.083V188.913C404 191.706 401.76 193.998 398.991 193.998H319.008C316.257 193.998 314 191.724 314 188.913V133.083C314 130.29 316.239 127.998 319.008 127.998V128.016Z" fill="white"/>
<path d="M319.008 128.016H398.997C401.748 128.016 403.988 130.29 403.988 133.083V188.913C403.988 191.706 401.748 193.998 398.98 193.998H319.008C316.257 193.998 314 191.724 314 188.913V133.083C314 130.29 316.239 127.998 319.008 127.998V128.016Z" fill="#FEEED3" stroke="#B5C3CC" stroke-width="1.11201"/>
<path d="M74.0087 128.018H154.009C156.76 128.018 159 130.257 159 133.008V187.992C159 190.743 156.76 193 153.991 193H74.0087C71.2574 193 68.9999 190.76 68.9999 187.992V133.008C68.9999 130.257 71.2397 128 74.0087 128V128.018Z" fill="white"/>
<path d="M74.008 128.018H153.998C156.748 128.018 158.988 130.257 158.988 133.008V187.992C158.988 190.743 156.748 193 153.98 193H74.008C71.2571 193 68.9999 190.761 68.9999 187.992V133.008C68.9999 130.257 71.2394 128 74.008 128V128.018Z" fill="#FEEED3" stroke="#B5C3CC" stroke-width="1.11201"/>
<path d="M297.175 159.002C302.45 159.002 306.724 163.347 306.724 168.694C306.724 174.041 302.45 178.386 297.175 178.386C291.9 178.386 287.626 174.041 287.626 168.694C287.626 163.347 291.9 159.002 297.175 159.002Z" fill="#898989"/>
<mask id="mask4_606_325" style="mask-type:luminance" maskUnits="userSpaceOnUse" x="287" y="158" width="20" height="21">
<path d="M287.645 168.69C287.645 174.055 291.919 178.382 297.194 178.382C302.469 178.382 306.743 174.037 306.743 168.69C306.743 163.343 302.469 158.998 297.194 158.998C291.919 158.998 287.645 163.343 287.645 168.69Z" fill="white"/>
</mask>
<g mask="url(#mask4_606_325)">
<path d="M302.183 170.863L297.588 175.53C297.016 176.12 296.086 176.12 295.496 175.53L295.442 175.476C294.87 174.886 294.87 173.939 295.442 173.366L298.518 170.237H286.179C285.321 170.237 284.623 169.54 284.623 168.663C284.623 167.841 285.285 167.161 286.09 167.161H298.518L295.442 164.032C294.87 163.442 294.87 162.494 295.442 161.922L295.496 161.868C296.068 161.278 296.998 161.278 297.588 161.868L302.183 166.536L303.274 167.644C303.542 167.93 303.703 168.306 303.703 168.699C303.703 169.093 303.542 169.468 303.274 169.754L302.183 170.863Z" fill="#F9FBFC"/>
</g>
<mask id="mask5_606_325" style="mask-type:luminance" maskUnits="userSpaceOnUse" x="165" y="158" width="21" height="21">
<path d="M165.999 168.688C165.999 174.053 170.273 178.38 175.548 178.38C180.823 178.38 185.097 174.035 185.097 168.688C185.097 163.341 180.823 158.996 175.548 158.996C170.273 158.996 165.999 163.341 165.999 168.688Z" fill="white"/>
</mask>
<g mask="url(#mask5_606_325)">
<path d="M170.523 170.861L175.101 175.528C175.673 176.118 176.603 176.118 177.193 175.528L177.247 175.475C177.819 174.884 177.819 173.937 177.247 173.364L174.171 170.235H186.51C187.368 170.235 188.066 169.538 188.066 168.662C188.066 167.839 187.404 167.159 186.599 167.159H174.171L177.247 164.03C177.819 163.44 177.819 162.492 177.247 161.92L177.193 161.866C176.621 161.276 175.691 161.276 175.101 161.866L170.523 166.534L169.415 167.642C169.147 167.928 168.986 168.304 168.986 168.697C168.986 169.091 169.147 169.466 169.415 169.752L170.523 170.861Z" fill="#F9FBFC"/>
</g>
<mask id="mask6_606_325" style="mask-type:luminance" maskUnits="userSpaceOnUse" x="227" y="215" width="20" height="21">
<path d="M227.366 225.547C227.366 230.822 231.711 235.096 237.058 235.096C242.404 235.096 246.75 230.822 246.75 225.547C246.75 220.272 242.404 215.998 237.058 215.998C231.711 215.998 227.366 220.272 227.366 225.547Z" fill="white"/>
</mask>
<g mask="url(#mask6_606_325)">
<path d="M239.239 230.546L243.906 225.968C244.496 225.396 244.496 224.466 243.906 223.876L243.853 223.822C243.262 223.25 242.315 223.25 241.742 223.822L238.613 226.898V214.56C238.613 213.701 237.898 213.004 237.04 213.004C236.217 213.004 235.537 213.666 235.537 214.47V226.898L232.408 223.822C231.818 223.25 230.87 223.25 230.298 223.822L230.244 223.876C229.654 224.448 229.654 225.378 230.244 225.968L234.912 230.546L236.02 231.655C236.306 231.923 236.682 232.084 237.075 232.084C237.469 232.084 237.844 231.923 238.13 231.655L239.239 230.546Z" fill="#F9FBFC"/>
</g>
<path d="M196.047 259.998H276.952C279.734 259.998 282 262.238 282 264.99V319.989C282 322.74 279.734 324.998 276.934 324.998H196.047C193.265 324.998 191 322.758 191 320.006V265.008C191 262.256 193.265 259.998 196.065 259.998H196.047Z" fill="white"/>
<path d="M276.962 259.998H197.008C194.242 259.998 192 262.24 192 265.006V319.973C192 322.738 194.242 324.981 197.008 324.981H276.962C279.728 324.981 281.97 322.738 281.97 319.973V265.006C281.97 262.24 279.728 259.998 276.962 259.998Z" fill="#FEEED3" stroke="#B5C3CC" stroke-width="1.11201"/>
<mask id="mask7_606_325" style="mask-type:luminance" maskUnits="userSpaceOnUse" x="221" y="132" width="33" height="61">
<path d="M253.005 132.791H221.578V192.766H253.005V132.791Z" fill="white"/>
</mask>
<g mask="url(#mask7_606_325)">
<path d="M238.216 133.969C233.38 133.561 229.102 137.151 228.693 142.009C228.285 146.845 231.875 151.123 236.733 151.532C241.57 151.94 245.847 148.35 246.256 143.492C246.664 138.655 243.074 134.378 238.216 133.969Z" fill="#F7D0C5"/>
<path d="M238.366 132.813C233.529 132.404 229.252 135.994 228.843 140.853C228.435 145.711 232.025 149.967 236.883 150.375C241.719 150.784 245.997 147.194 246.406 142.336C246.814 137.499 243.224 133.221 238.388 132.813" fill="#4C4C4E"/>
<path d="M229.51 172.146V157.55C229.51 154.089 232.949 151.252 237.141 151.252C241.333 151.252 244.772 154.089 244.772 157.55V172.146" fill="#E1504A"/>
<path d="M231.036 169.68C221.083 164.993 221.449 162.973 221.642 161.876C221.793 161.081 222.094 159.447 233.229 152.225L236.797 155.965C233.487 158.115 229.704 160.802 228.005 162.263C229.252 163.123 231.617 164.456 233.917 165.531L231.058 169.658L231.036 169.68Z" fill="#E1504A"/>
<path d="M243.547 169.68L240.688 165.531C242.988 164.456 245.353 163.123 246.599 162.263C244.901 160.802 241.096 158.115 237.807 155.965L241.376 152.225C252.511 159.447 252.812 161.081 252.962 161.876C253.156 162.973 253.521 164.993 243.568 169.68" fill="#E1504A"/>
</g>
<path d="M197.008 17.0176H276.998C279.749 17.0176 281.988 19.2572 281.988 22.0082V76.9921C281.988 79.7431 279.749 82.0003 276.98 82.0003H197.008C194.257 82.0003 192 79.7607 192 76.9921V22.0082C192 19.2572 194.24 17 197.008 17V17.0176Z" fill="#FEEED3" stroke="#B5C3CC" stroke-width="1.11201"/>
</svg>
