<svg width="131" height="30" viewBox="0 0 131 30" fill="none" xmlns="http://www.w3.org/2000/svg">
<path d="M9.63696 4.64062C15.3575 4.64062 20 9.28309 20 15.0037C20 20.7242 15.3575 25.3667 9.63696 25.3667C5.25853 25.3667 1.51815 22.6604 0 18.832H6.88669V21.5383C6.88669 22.1104 7.34873 22.5724 7.92079 22.5724C8.20682 22.5724 8.44884 22.4624 8.64686 22.2864L16.3036 15.7957C16.7437 15.4217 16.7877 14.7616 16.4136 14.3216C16.3696 14.2776 16.3256 14.2336 16.2816 14.1896L8.58086 7.65493C8.14081 7.28089 7.48075 7.3469 7.12871 7.78694C6.95269 7.98496 6.88669 8.22698 6.88669 8.44701V11.1533H0C1.51815 7.3469 5.25853 4.64062 9.63696 4.64062Z" fill="#A87752"/>
<path d="M31.4396 6.648V24.048L29.1596 24.024V9.12L26.2316 10.872L25.1996 9L29.1836 6.648H31.4396ZM44.1672 15.048C45.7272 15.96 46.6632 17.664 46.6632 19.128C46.6632 22.08 44.2632 24.192 40.8312 24.192C37.4472 24.192 35.0472 22.056 35.0472 19.032H37.3272C37.3272 20.88 38.7672 22.176 40.8312 22.176C42.9432 22.176 44.4312 20.88 44.4312 19.032C44.4312 17.256 42.9672 16.008 40.8792 16.008H39.6312V14.064H40.9032C42.8232 14.064 44.1672 12.912 44.1672 11.304C44.1672 9.648 42.8712 8.496 40.9992 8.496C39.1272 8.496 37.8312 9.672 37.8312 11.328H35.5512C35.5512 8.472 37.8072 6.48 40.9992 6.48C44.1672 6.48 46.3992 8.448 46.3992 11.232C46.3992 12.552 45.5832 14.136 44.1672 15.048ZM53.2137 24.072H50.7417L57.6297 8.568L49.4697 8.592V6.576H59.8617L60.1017 8.568L53.2137 24.072ZM63.4509 5.424H71.3709V7.296H68.8989V7.512C68.8989 8.616 69.9549 10.104 71.8029 10.896C73.6509 10.128 74.6589 8.688 74.6589 7.512V7.296H72.2109V5.424H80.1069V7.296H77.0349V7.608C77.0349 9.12 78.3549 10.8 80.8749 11.448L79.8669 13.2C77.8029 12.6 76.4349 11.352 75.7629 9.888C75.0669 11.184 73.7469 12.36 71.7789 12.912C69.8109 12.36 68.4909 11.16 67.7949 9.864C67.1229 11.304 65.7549 12.576 63.6909 13.2L62.7309 11.448C65.2029 10.752 66.5469 8.976 66.5469 7.608V7.296H63.4509V5.424ZM62.2029 15.024H70.6269V13.056H72.9549V15.024H81.4269V16.92H62.2029V15.024ZM64.2909 18.984H79.0029V25.872H76.6509V20.832H64.2909V18.984ZM102.943 4.632H105.295V9.912H108.271V11.856H105.295V17.136H102.943V4.632ZM91.3747 18.048H105.295V22.512H93.7267V24.048H106.087V25.68H91.3987V21.024H102.991V19.632H91.3747V18.048ZM88.5427 15.096C90.1507 15.096 92.0227 15.096 93.9907 15.048V13.872C91.6147 13.632 90.1267 12.648 90.1267 11.112C90.1267 9.384 92.0947 8.328 95.1427 8.328C98.2147 8.328 100.183 9.384 100.183 11.112C100.183 12.648 98.7187 13.632 96.3427 13.872V14.952C98.2147 14.88 100.063 14.736 101.815 14.496L101.983 15.936C97.4947 16.728 92.5027 16.776 88.8067 16.776L88.5427 15.096ZM89.0707 6.12H93.9907V4.416H96.3427V6.12H101.215V7.752H89.0707V6.12ZM95.1427 9.84C93.4147 9.84 92.3587 10.296 92.3587 11.112C92.3587 11.928 93.4147 12.408 95.1427 12.408C96.8947 12.408 97.9507 11.928 97.9507 11.112C97.9507 10.296 96.8947 9.84 95.1427 9.84ZM109.687 14.976H114.247V12.144C112.639 11.472 111.727 10.392 111.727 9C111.727 6.48 114.655 4.992 119.287 4.992C123.919 4.992 126.847 6.48 126.847 9C126.847 10.416 125.911 11.496 124.279 12.168V14.976H128.863V16.848H109.687V14.976ZM119.263 18.264C123.823 18.264 126.559 19.632 126.559 22.056C126.559 24.504 123.823 25.872 119.263 25.872C114.703 25.872 111.943 24.504 111.943 22.056C111.943 19.632 114.703 18.264 119.263 18.264ZM119.263 20.064C116.095 20.064 114.319 20.76 114.319 22.056C114.319 23.352 116.095 24.048 119.263 24.048C122.407 24.048 124.183 23.352 124.183 22.056C124.183 20.76 122.407 20.064 119.263 20.064ZM119.287 6.816C116.071 6.816 114.151 7.608 114.151 9C114.151 10.392 116.071 11.184 119.287 11.184C122.479 11.184 124.399 10.392 124.399 9C124.399 7.608 122.479 6.816 119.287 6.816ZM116.599 14.976H121.951V12.792C121.135 12.912 120.247 12.984 119.287 12.984C118.303 12.984 117.415 12.912 116.599 12.792V14.976Z" fill="#A87752"/>
</svg>
