<svg width="406" height="54" viewBox="0 0 406 54" fill="none" xmlns="http://www.w3.org/2000/svg">
<mask id="path-1-inside-1_1388_109794" fill="white">
<path d="M406 54H19.7051L0 35.8047V17.6084L19.7051 0H406V54ZM9.7002 22.6104C7.63961 22.6104 5.96875 24.3558 5.96875 26.5088C5.96882 28.6617 7.63965 30.4072 9.7002 30.4072C11.7605 30.407 13.4306 28.6616 13.4307 26.5088C13.4307 24.356 11.7606 22.6106 9.7002 22.6104Z"/>
</mask>
<path d="M406 54H19.7051L0 35.8047V17.6084L19.7051 0H406V54ZM9.7002 22.6104C7.63961 22.6104 5.96875 24.3558 5.96875 26.5088C5.96882 28.6617 7.63965 30.4072 9.7002 30.4072C11.7605 30.407 13.4306 28.6616 13.4307 26.5088C13.4307 24.356 11.7606 22.6106 9.7002 22.6104Z" fill="#ECC8C1"/>
<path d="M406 54V55H407V54H406ZM19.7051 54L19.0267 54.7347L19.314 55H19.7051V54ZM0 35.8047H-1V36.2424L-0.678401 36.5394L0 35.8047ZM0 17.6084L-0.666323 16.8627L-1 17.1609V17.6084H0ZM19.7051 0V-1H19.3234L19.0388 -0.745664L19.7051 0ZM406 0H407V-1H406V0ZM9.7002 22.6104L9.70031 21.6104H9.7002V22.6104ZM5.96875 26.5088H4.96875V26.5088L5.96875 26.5088ZM9.7002 30.4072V31.4072H9.70031L9.7002 30.4072ZM13.4307 26.5088L14.4307 26.5088V26.5088H13.4307ZM406 54V53H19.7051V54V55H406V54ZM19.7051 54L20.3835 53.2653L0.678401 35.07L0 35.8047L-0.678401 36.5394L19.0267 54.7347L19.7051 54ZM0 35.8047H1V17.6084H0H-1V35.8047H0ZM0 17.6084L0.666323 18.3541L20.3714 0.745664L19.7051 0L19.0388 -0.745664L-0.666323 16.8627L0 17.6084ZM19.7051 0V1H406V0V-1H19.7051V0ZM406 0H405V54H406H407V0H406ZM9.7002 22.6104V21.6104C7.04655 21.6104 4.96875 23.8452 4.96875 26.5088H5.96875H6.96875C6.96875 24.8664 8.23268 23.6104 9.7002 23.6104V22.6104ZM5.96875 26.5088L4.96875 26.5088C4.96883 29.1723 7.04656 31.4072 9.7002 31.4072V30.4072V29.4072C8.23275 29.4072 6.9688 28.1511 6.96875 26.5088L5.96875 26.5088ZM9.7002 30.4072L9.70031 31.4072C12.3539 31.4069 14.4306 29.1719 14.4307 26.5088L13.4307 26.5088L12.4307 26.5088C12.4306 28.1512 11.1672 29.4071 9.70008 29.4072L9.7002 30.4072ZM13.4307 26.5088H14.4307C14.4307 23.8456 12.3539 21.6107 9.70031 21.6104L9.7002 22.6104L9.70008 23.6104C11.1673 23.6105 12.4307 24.8663 12.4307 26.5088H13.4307Z" fill="#DA9186" mask="url(#path-1-inside-1_1388_109794)"/>
<path d="M59.48 7.56V44.76H54.4V7.56H59.48ZM28.92 12.64H37.36V7.84H42.48V12.64H50.56V16.92H28.92V12.64ZM39.92 36.72C34 36.72 30.68 32.8 30.68 28.84V26.48C30.68 22.52 34 18.6 39.92 18.6C45.84 18.6 49.16 22.52 49.16 26.48V28.84C49.16 32.8 45.84 36.72 39.92 36.72ZM39.92 32.48C42.76 32.48 44.48 30.48 44.48 28.44V26.88C44.48 24.84 42.76 22.84 39.92 22.84C37.08 22.84 35.36 24.84 35.36 26.88V28.44C35.36 30.48 37.08 32.48 39.92 32.48ZM92.0941 7.56V20.36H97.2141V24.76H92.0941V44.76H87.0141V7.56H92.0941ZM69.8941 10.56V30.52H72.0541C75.8541 30.52 80.5741 30.24 84.3341 29.72L84.8941 34.08C81.1341 34.68 75.7341 34.92 70.8541 34.92H64.7741V10.56H69.8941ZM98.7881 10.8H116.748V35.08H98.7881V10.8ZM111.708 30.8V15.08H103.828V30.8H111.708ZM126.508 7.56V20.64H131.628V25.04H126.508V44.76H121.428V7.56H126.508ZM131.402 35.8H165.482V40.08H131.402V35.8ZM148.402 29.44C147.042 28.44 145.522 27.2 144.322 26.16C142.802 24.84 142.042 24.04 141.842 23.56H141.802C141.642 24.04 140.802 25 139.082 26.6C138.042 27.56 136.802 28.64 135.202 29.92L132.122 26.48C134.082 24.88 135.642 23.48 136.762 22.32C138.722 20.28 139.242 18.92 139.242 15.92V10.16H144.082V15.76C144.082 19 144.682 20.08 146.522 21.92C147.042 22.44 147.682 23 148.442 23.6C149.202 23 149.842 22.44 150.362 21.92C152.202 20.08 152.802 19 152.802 15.76V10.16H157.642V15.92C157.642 18.92 158.162 20.28 160.122 22.32C161.242 23.48 162.802 24.88 164.562 26.32L161.482 29.76C160.082 28.64 158.842 27.56 157.802 26.6C156.082 25 155.242 24.04 155.082 23.56H155.042C154.842 24.04 154.082 24.84 152.562 26.16C151.362 27.2 149.842 28.44 148.482 29.44H148.402ZM197.136 7.56V44.76H192.056V7.56H197.136ZM173.416 24.92V31.64H177.296C180.936 31.64 185.056 31.4 188.776 30.92L189.336 35.16C185.576 35.72 180.976 35.92 176.096 35.92H168.416V20.8H180.416V14.72H168.416V10.44H185.416V24.92H173.416ZM209.11 35.72C203.47 35.72 200.83 31.92 200.83 25.2V20.88C200.83 14.16 203.47 10.36 209.11 10.36C214.71 10.36 217.35 14.16 217.39 20.84H220.35V8.32H225.15V42.96H220.35V25.2H217.39C217.39 31.92 214.75 35.72 209.11 35.72ZM232.67 7.56V44.76H227.87V7.56H232.67ZM209.11 14.76C206.35 14.76 205.47 17.08 205.47 21.44V24.64C205.47 29 206.35 31.32 209.11 31.32C211.87 31.32 212.75 29 212.75 24.64V21.44C212.75 17.08 211.87 14.76 209.11 14.76ZM270.484 29.24V20.16H263.764V26.8H246.204V9.56H263.764V15.92H270.484V7.56H275.524V29.24H270.484ZM250.884 35.2V30.92H275.524V45.2H270.484V35.2H250.884ZM258.764 22.6V13.76H251.204V22.6H258.764ZM288.898 33.08V40.08H309.058V44.36H283.858V33.08H288.898ZM279.058 26.12H313.138V30.4H279.058V26.12ZM283.858 8.84H288.898V18.24H308.258V22.52H283.858V8.84ZM328.233 44.76V31.72H352.793V44.76H328.233ZM333.233 35.76V40.72H347.793V35.76H333.233ZM323.473 24.96H357.553V29.04H323.473V24.96ZM340.513 22.84C333.353 22.84 328.312 20.4 328.312 15.88V14.92C328.312 10.4 333.353 7.96 340.513 7.96C347.673 7.96 352.713 10.4 352.713 14.92V15.88C352.713 20.4 347.673 22.84 340.513 22.84ZM340.513 12C336.433 12 333.312 13.28 333.312 15.08V15.72C333.312 17.52 336.433 18.8 340.513 18.8C344.593 18.8 347.713 17.52 347.713 15.72V15.08C347.713 13.28 344.593 12 340.513 12ZM364.167 35.24V30.96H388.807V45.2H383.767V35.24H364.167ZM388.807 7.56V29.28H383.767V7.56H388.807ZM369.647 21.12H369.607C369.447 21.8 368.367 22.84 367.167 23.96C365.367 25.64 363.647 27.12 361.167 29.12L358.047 25.44C360.127 23.84 362.367 21.88 364.207 20.12C366.127 18.28 366.887 16.6 366.887 13.88V8.96H372.007V13.68C372.007 16.6 372.527 17.92 374.607 19.72C376.527 21.36 378.567 22.92 380.487 24.28L377.567 27.8C376.007 26.68 374.207 25.28 372.327 23.76C370.927 22.64 369.887 21.8 369.647 21.12Z" fill="#1E1E1E"/>
</svg>
