<svg width="52" height="16" viewBox="0 0 52 16" fill="none" xmlns="http://www.w3.org/2000/svg">
<path d="M0.666667 10.4603C0.666667 13.4059 3.05448 15.7937 6 15.7937C8.94552 15.7937 11.3333 13.4059 11.3333 10.4603C11.3333 7.51483 8.94552 5.12701 6 5.12701C3.05448 5.12701 0.666667 7.51483 0.666667 10.4603ZM51.1429 11.4496C51.6895 11.3707 52.0687 10.8635 51.9897 10.3169L50.7033 1.40934C50.6244 0.862727 50.1173 0.483603 49.5707 0.562544C49.024 0.641484 48.6449 1.1486 48.7239 1.69521L49.8673 9.61307L41.9495 10.7565C41.4029 10.8355 41.0237 11.3426 41.1027 11.8892C41.1816 12.4358 41.6887 12.815 42.2353 12.736L51.1429 11.4496ZM6 10.4603L6.72217 11.1521C16.7937 0.637149 34.7072 -0.472264 50.4012 11.2608L51 10.4599L51.5988 9.65895C35.2928 -2.53164 16.2063 -1.64106 5.27783 9.76863L6 10.4603Z" fill="#701E24"/>
</svg>
