<svg width="83" height="61" viewBox="0 0 83 61" fill="none" xmlns="http://www.w3.org/2000/svg">
<path d="M0.666667 55C0.666667 57.9455 3.05448 60.3333 6 60.3333C8.94552 60.3333 11.3333 57.9455 11.3333 55C11.3333 52.0545 8.94552 49.6667 6 49.6667C3.05448 49.6667 0.666667 52.0545 0.666667 55ZM82.5694 9.2845C83.0234 8.97001 83.1365 8.34703 82.822 7.89303L77.6971 0.494686C77.3827 0.0406865 76.7597 -0.0724092 76.3057 0.242079C75.8517 0.556568 75.7386 1.17955 76.0531 1.63355L80.6085 8.20986L74.0322 12.7653C73.5782 13.0798 73.4651 13.7028 73.7796 14.1568C74.0941 14.6108 74.7171 14.7239 75.1711 14.4094L82.5694 9.2845ZM6 55L6.9907 55.136C11.1843 24.5985 40.4593 1.93754 81.8214 9.44638L82 8.46246L82.1786 7.47855C39.8773 -0.200801 9.38165 23.0244 5.0093 54.864L6 55Z" fill="#6E1B0E"/>
</svg>
