<svg width="82" height="84" viewBox="0 0 82 84" fill="none" xmlns="http://www.w3.org/2000/svg">
<path d="M0.166667 78.0013C0.166667 80.9468 2.55448 83.3346 5.5 83.3346C8.44552 83.3346 10.8333 80.9468 10.8333 78.0013C10.8333 75.0558 8.44552 72.6679 5.5 72.6679C2.55448 72.6679 0.166667 75.0558 0.166667 78.0013ZM81.6642 8.70418C82.077 8.33737 82.1144 7.7053 81.7476 7.29243L75.7701 0.564171C75.4033 0.151292 74.7712 0.113946 74.3583 0.480755C73.9454 0.847565 73.9081 1.47963 74.2749 1.89251L79.5882 7.87318L73.6076 13.1865C73.1947 13.5533 73.1574 14.1854 73.5242 14.5983C73.891 15.0111 74.523 15.0485 74.9359 14.6817L81.6642 8.70418ZM5.5 78.0013L6.49071 78.1373C8.62665 62.5809 12.849 44.4291 23.7051 30.6027C34.5055 16.8475 51.9768 7.24344 80.941 8.95485L81 7.95659L81.059 6.95833C51.5232 5.21315 33.386 15.0347 22.1321 29.3676C10.934 43.6294 6.65631 62.2282 4.50929 77.8652L5.5 78.0013Z" fill="#3F0C10"/>
</svg>
