<svg width="106" height="62" viewBox="0 0 106 62" fill="none" xmlns="http://www.w3.org/2000/svg">
<path d="M0.666667 55.9964C0.666667 58.9419 3.05448 61.3297 6 61.3297C8.94552 61.3297 11.3333 58.9419 11.3333 55.9964C11.3333 53.0508 8.94552 50.663 6 50.663C3.05448 50.663 0.666667 53.0508 0.666667 55.9964ZM105.499 10.3253C105.978 10.0495 106.142 9.43808 105.866 8.95956L101.373 1.16166C101.097 0.683138 100.486 0.518762 100.007 0.794513C99.5286 1.07026 99.3642 1.68172 99.6399 2.16024L103.634 9.09171L96.7028 13.086C96.2243 13.3618 96.0599 13.9733 96.3357 14.4518C96.6114 14.9303 97.2229 15.0947 97.7014 14.8189L105.499 10.3253ZM6 55.9964L6.9907 56.1324C9.0681 41.0048 22.3553 26.6014 40.8622 17.4421C59.3287 8.30281 82.7583 4.5152 104.74 10.4246L105 9.45885L105.26 8.49314C82.7417 2.43975 58.8128 6.32662 39.975 15.6496C21.1777 24.9527 7.21486 39.7994 5.0093 55.8603L6 55.9964Z" fill="#181F1B"/>
</svg>
