<svg width="50" height="38" viewBox="0 0 50 38" fill="none" xmlns="http://www.w3.org/2000/svg">
<path d="M5.6 18.04V20.04C5.6 26.12 6.96 32.16 11.08 37.8H6.28C2.32 33.08 0.4 26.84 0.4 19.84V18.24C0.4 11.24 2.32 5.08 6.28 0.359999H11.08C7.16 5.64 5.6 11.64 5.6 18.04ZM18.5731 9.64L15.0931 6.92C17.0131 4.44 19.4931 2.76 23.6531 2.76C29.0531 2.76 32.5731 5.64 32.5731 9.96V10.36C32.5731 12.64 31.6931 15.72 28.4131 16.96C32.2131 17.64 34.0131 20.2 34.0131 23.48V24.08C34.0131 28.44 30.6131 32.48 23.5331 32.48C20.1731 32.48 17.0131 31.44 14.2931 29.28L16.8131 25.28C19.6131 27.32 21.2531 27.92 23.5731 27.92C27.1731 27.92 28.8531 26.36 28.8531 23.84V23.32C28.8531 20.52 27.2931 19.24 23.6131 19.24H19.7331V14.84H23.1731C26.7731 14.84 27.5731 13.16 27.5731 10.68V10.36C27.5731 8.2 26.0531 7.24 23.6531 7.24C21.2131 7.24 19.8531 8.24 18.5731 9.64ZM44.0978 20.04V18.04C44.0978 11.64 42.5378 5.64 38.6178 0.359999H43.4178C47.3778 5.08 49.2978 11.24 49.2978 18.24V19.84C49.2978 26.84 47.3778 33.08 43.4178 37.8H38.6178C42.7378 32.16 44.0978 26.12 44.0978 20.04Z" fill="#60AB83"/>
</svg>
