<svg width="46" height="38" viewBox="0 0 46 38" fill="none" xmlns="http://www.w3.org/2000/svg">
<path d="M4.08 18.04V20.04C4.08 26.12 5.44 32.16 9.56 37.8H5.88C1.92 33.08 1.19209e-07 26.96 1.19209e-07 19.84V18.24C1.19209e-07 11.12 1.92 5.08 5.88 0.359999H9.56C5.64 5.64 4.08 11.64 4.08 18.04ZM16.3166 9.16L13.4766 7.08C15.1566 4.68 17.5566 2.76 21.8766 2.76C27.1966 2.76 30.5966 5.64 30.5966 9.96V10.36C30.5966 12.64 29.6366 15.6 26.0766 16.88C29.9566 17.56 31.9166 20.2 31.9166 23.52V24.12C31.9166 28.36 28.9166 32.48 21.8366 32.48C18.4766 32.48 15.3166 31.44 12.5966 29.28L14.5566 26.12C17.3566 28.16 19.3566 28.88 21.8366 28.88C26.0366 28.88 27.9566 26.76 27.9566 24.16V23.64C27.9566 19.84 25.3566 18.72 21.9966 18.72H18.4366V15.28H21.8366C25.4366 15.28 26.6766 12.88 26.6766 10.4V10.08C26.6766 7.56 24.5166 6.28 21.9166 6.28C19.5566 6.28 17.8766 7.12 16.3166 9.16ZM41.2906 20.04V18.04C41.2906 11.64 39.7306 5.64 35.8106 0.359999H39.4906C43.4506 5.08 45.3706 11.12 45.3706 18.24V19.84C45.3706 26.96 43.4506 33.08 39.4906 37.8H35.8106C39.9306 32.16 41.2906 26.12 41.2906 20.04Z" fill="#1E1E1E"/>
</svg>
