<svg width="255" height="41" viewBox="0 0 255 41" fill="none" xmlns="http://www.w3.org/2000/svg">
<path d="M47.0238 16.5846C47.0459 16.1275 47.2672 15.9098 47.7096 15.9315C52.1124 16.2145 56.4931 16.2145 60.8958 15.9315C61.3162 15.9098 61.5596 16.1275 61.5817 16.5846C61.6038 17.02 61.4047 17.2594 60.9622 17.2812C59.9224 17.3465 58.8825 17.4118 57.8205 17.4553V20.3506C57.8205 20.9601 57.555 21.2649 57.0019 21.2649C56.4488 21.2649 56.1833 20.9601 56.1833 20.3506V17.4771C54.9222 17.4989 53.6611 17.4989 52.4 17.4771V20.3506C52.4 20.9601 52.1345 21.2649 51.5814 21.2649C51.0283 21.2649 50.7628 20.9601 50.7628 20.3506V17.4553C49.723 17.4118 48.6831 17.3683 47.6211 17.2812C47.1787 17.2594 46.9795 17.02 47.0017 16.5846H47.0238ZM48.4176 8.76963C48.4176 8.31249 48.7052 8.0948 49.2584 8.0948H53.5063V6.87575C53.5063 6.35331 53.7717 6.07031 54.3249 6.07031C54.878 6.07031 55.1435 6.33154 55.1435 6.87575V8.07303H59.3471C59.9224 8.07303 60.1878 8.29072 60.1878 8.74786C60.1878 9.20501 59.9002 9.42269 59.3471 9.42269H58.7055C59.1701 9.85807 59.4135 10.4241 59.4135 11.1207C59.4135 13.254 57.732 14.386 54.347 14.4948C50.9619 14.5819 49.2584 13.5587 49.2584 11.4472C49.2584 10.5982 49.6123 9.92337 50.2982 9.42269H49.3026C48.7274 9.42269 48.4619 9.20501 48.4619 8.74786L48.4176 8.76963ZM54.3027 9.44446C52.0018 9.50977 50.8292 10.1628 50.8292 11.3819C50.8292 12.6009 51.9797 13.2104 54.3027 13.1669C56.6037 13.1016 57.7542 12.4485 57.7542 11.2077C57.7542 10.0975 56.8249 9.50977 54.9443 9.44446H54.3249H54.3027ZM63.418 8.42133C63.3959 7.70297 63.8163 7.35467 64.6791 7.35467H69.3695C69.9226 7.35467 70.1881 7.57235 70.1881 8.0295C70.1881 8.48664 69.9005 8.70433 69.3253 8.70433H65.5641C65.2101 8.70433 65.0331 8.94378 65.0552 9.42269L65.2101 16.7805C65.2101 17.3247 65.5198 17.6513 66.1172 17.6948C67.3562 17.8254 68.6615 17.7601 70.0775 17.5424C70.6527 17.4553 70.9182 17.6077 70.9182 17.9996C70.9182 18.5002 70.6749 18.805 70.166 18.8921C68.3739 19.2186 66.604 19.2404 64.8119 18.9574C64.0154 18.8268 63.6171 18.3479 63.595 17.5424L63.418 8.39956V8.42133ZM76.3608 12.4268C76.3387 10.5764 76.2502 8.72609 76.1175 6.85399C76.0732 6.37507 76.3166 6.13562 76.8476 6.09208C77.3786 6.04854 77.6441 6.26623 77.6662 6.74514C78.0202 11.0118 78.0202 15.2567 77.6662 19.5234C77.6441 20.0023 77.3564 20.1982 76.8476 20.1547C76.3166 20.1111 76.0732 19.8717 76.1175 19.3928C76.2502 17.5207 76.3387 15.6703 76.3608 13.7764H74.3254C74.3033 15.5832 74.2148 17.3683 74.0599 19.1533C74.0157 19.6322 73.7502 19.8281 73.2192 19.7846C72.6882 19.7411 72.4448 19.5016 72.4891 19.0227C72.8431 15.0826 72.8431 11.1424 72.4891 7.20229C72.4448 6.72337 72.6882 6.48392 73.2192 6.44038C73.7502 6.39684 74.0378 6.59276 74.0599 7.07167C74.2148 8.85671 74.3033 10.6417 74.3254 12.405H76.3608V12.4268ZM84.2814 7.41997C84.2814 6.96283 84.5469 6.74514 85.1 6.74514H89.2594C90.8524 6.74514 91.6267 7.46351 91.6267 8.90024C91.6267 10.0104 91.3391 10.9683 90.7639 11.7955C91.5161 12.1656 92.2462 12.7533 92.91 13.537C93.2197 13.9288 93.1976 14.2771 92.8657 14.5819C92.4675 14.9737 92.1356 14.9737 91.8259 14.5383C91.317 13.82 90.6311 13.2322 89.7683 12.8186C88.6178 13.7547 86.9585 14.4077 84.7903 14.8213C84.2814 14.9302 83.9938 14.7125 83.9274 14.2118C83.8389 13.7111 84.038 13.4281 84.5248 13.3193C88.1753 12.6227 90.0117 11.0771 90.0117 8.70433C90.0117 8.31249 89.8347 8.11657 89.4585 8.11657H85.1C84.5248 8.11657 84.2372 7.89888 84.2372 7.44174L84.2814 7.41997ZM86.8257 17.6513C86.7372 17.0417 86.9142 16.6717 87.3788 16.5411C87.9762 16.3451 88.3081 16.5411 88.3966 17.1288L88.6621 19.4145C88.7284 20.0241 89.0382 20.3288 89.5913 20.3288C91.8701 20.4377 94.1489 20.4377 96.3835 20.3288C96.8702 20.307 97.0915 20.503 97.0915 20.8948C97.0915 21.3955 96.8481 21.6567 96.3835 21.7002C94.1047 21.8309 91.6046 21.8309 88.8391 21.7002C87.8435 21.6567 87.2903 21.1778 87.1576 20.2635L86.8036 17.6295L86.8257 17.6513ZM95.6091 9.92337C95.5649 8.90024 95.5206 7.87712 95.4543 6.85399C95.41 6.37507 95.6534 6.13562 96.1844 6.09208C96.7154 6.04854 96.9809 6.26623 97.003 6.74514C97.2685 10.0322 97.2685 13.3411 97.003 16.6499C96.9809 17.1288 96.6932 17.3247 96.1844 17.2812C95.6534 17.2377 95.41 16.9982 95.4543 16.5193C95.587 14.7778 95.6313 13.0363 95.6091 11.2948H93.4188C92.8878 11.2948 92.6223 11.0771 92.6223 10.62C92.6223 10.1628 92.8878 9.94514 93.4188 9.94514H95.587L95.6091 9.92337ZM99.2154 9.1397C99.2154 8.66079 99.4809 8.4431 100.034 8.4431H103.021V6.89752C103.021 6.35331 103.286 6.09208 103.839 6.09208C104.393 6.09208 104.658 6.35331 104.658 6.89752V8.4431H107.623C108.176 8.4431 108.441 8.68256 108.441 9.1397C108.441 9.59684 108.176 9.81453 107.623 9.81453H106.981C107.446 10.337 107.667 11.0989 107.667 12.0567C107.667 14.2553 106.671 15.5397 104.658 15.888V18.2173C105.786 18.2173 106.893 18.1737 108.021 18.1084C108.441 18.0866 108.685 18.3043 108.707 18.7615C108.729 19.1968 108.53 19.4363 108.087 19.4581C105.278 19.6104 102.468 19.6104 99.6579 19.4581C99.2154 19.4363 99.0163 19.1968 99.0384 18.7615C99.0606 18.3043 99.2818 18.0866 99.7243 18.1084C100.853 18.1737 101.959 18.2173 103.065 18.2173V15.9315C101.052 15.7574 100.056 14.5601 100.056 12.3179C100.056 11.2295 100.366 10.4023 100.985 9.79276H100.078C99.5252 9.79276 99.2597 9.57507 99.2597 9.11793L99.2154 9.1397ZM103.839 9.81453C102.379 9.87984 101.649 10.707 101.649 12.2744C101.649 13.8417 102.379 14.669 103.839 14.6036C105.3 14.5601 106.03 13.7111 106.03 12.1002C106.03 10.6417 105.41 9.85807 104.149 9.81453H103.839ZM110.211 19.4145C110.543 15.2349 110.543 11.0553 110.211 6.87575C110.167 6.39684 110.41 6.15739 110.941 6.11385C111.472 6.07031 111.76 6.288 111.782 6.76691C111.937 8.66079 112.026 10.5547 112.048 12.4485H114.415C114.946 12.4485 115.211 12.6662 115.211 13.1234C115.211 13.5805 114.946 13.7982 114.415 13.7982H112.048C112.026 15.7138 111.937 17.6295 111.782 19.5451C111.738 20.0241 111.472 20.22 110.941 20.1764C110.41 20.1329 110.167 19.8934 110.211 19.4145ZM120.455 7.81181C120.433 7.09344 120.853 6.74514 121.738 6.74514H127.491C128.044 6.74514 128.309 6.96283 128.309 7.41997C128.309 7.87712 128.022 8.0948 127.446 8.0948H122.601C122.247 8.0948 122.07 8.33426 122.092 8.81317L122.136 10.9247C122.136 11.4907 122.446 11.8173 123.044 11.8608C124.305 11.9914 126.03 11.8608 128.287 11.5125C128.752 11.4472 128.973 11.6213 128.973 12.0132C128.973 12.5138 128.73 12.8186 128.221 12.9057C125.765 13.3411 123.619 13.4281 121.76 13.1016C120.964 12.971 120.566 12.5138 120.543 11.6866L120.455 7.79004V7.81181ZM122.026 15.4309C122.026 14.9955 122.291 14.756 122.844 14.756H131.672C132.646 14.756 133.088 15.1479 133 15.9533L132.823 17.7166C132.712 18.5438 132.225 18.9574 131.362 18.9574H124.017L124.238 20.4812H131.517C132.092 20.4812 132.38 20.6989 132.38 21.156C132.38 21.6132 132.115 21.8309 131.561 21.8309H124.039C123.221 21.8309 122.756 21.4173 122.645 20.6118L122.424 18.8268C122.313 18.0431 122.756 17.6513 123.774 17.6513H131.23L131.384 16.1275H122.911C122.336 16.1275 122.048 15.9098 122.048 15.4526L122.026 15.4309ZM131.252 12.9057C131.451 10.903 131.451 8.87848 131.252 6.85399C131.207 6.37507 131.451 6.13562 131.982 6.09208C132.513 6.04854 132.8 6.26623 132.823 6.74514C132.911 7.61589 132.955 8.48664 132.977 9.37916H135.455C135.986 9.37916 136.252 9.59684 136.252 10.054C136.252 10.5111 135.986 10.7288 135.455 10.7288H132.977C132.977 11.4907 132.933 12.2526 132.845 13.0145C132.8 13.4934 132.535 13.7111 132.004 13.6676C131.473 13.6241 131.23 13.3846 131.274 12.9057H131.252ZM139.084 11.3819L139.128 12.7751C139.128 13.1234 139.239 13.3193 139.482 13.3193H144.615C145.212 13.3193 145.5 13.537 145.5 13.9941C145.5 14.473 145.212 14.6907 144.659 14.6907H138.863C137.955 14.6907 137.513 14.2771 137.491 13.4281L137.447 11.1642C137.424 10.3805 137.845 9.98868 138.708 9.98868H143.841C144.084 9.98868 144.195 9.81453 144.195 9.44446L144.239 8.0948H138.309C137.712 8.0948 137.402 7.87712 137.402 7.41997C137.402 6.96283 137.646 6.72337 138.11 6.72337H144.615C145.456 6.72337 145.854 7.11521 145.854 7.87712L145.81 10.0975C145.787 10.9465 145.301 11.3819 144.372 11.3819H139.128H139.084ZM138.796 17.2594C138.796 16.8023 139.062 16.5846 139.615 16.5846H149.062C149.615 16.5846 149.881 16.8023 149.881 17.2594V17.9125C149.881 19.3275 149.571 20.5465 148.973 21.5914C148.73 22.0268 148.376 22.1138 147.934 21.8309C147.447 21.5696 147.336 21.2213 147.58 20.786C148.022 20.0241 148.243 19.0662 148.243 17.9343H139.571C139.017 17.9343 138.752 17.7166 138.752 17.2594H138.796ZM148.597 8.18188C148.575 7.7465 148.553 7.31113 148.553 6.85399C148.509 6.37507 148.752 6.13562 149.283 6.09208C149.814 6.04854 150.08 6.26623 150.102 6.74514C150.301 9.31385 150.301 11.9043 150.102 14.473C150.08 14.9519 149.792 15.1479 149.283 15.1043C148.752 15.0608 148.509 14.8213 148.553 14.3424C148.575 13.907 148.597 13.4717 148.597 13.0145H147.314C146.805 13.0145 146.54 12.7968 146.54 12.3397C146.54 11.8826 146.805 11.6649 147.314 11.6649H148.664C148.664 10.9683 148.664 10.2717 148.664 9.57507H147.314C146.805 9.57507 146.54 9.35739 146.54 8.90024C146.54 8.4431 146.805 8.22541 147.314 8.22541H148.597V8.18188ZM160.102 14.3207C157.58 14.4295 156.297 13.1451 156.297 10.4676C156.297 7.79004 157.558 6.46215 160.102 6.35331C162.624 6.24446 163.907 7.50705 163.907 10.1628C163.907 12.8186 162.646 14.19 160.102 14.2989V14.3207ZM160.102 7.6812C158.642 7.7465 157.934 8.63902 157.934 10.4023C157.934 12.1655 158.664 13.0145 160.102 12.971C161.562 12.9057 162.27 11.9914 162.27 10.2064C162.27 8.42133 161.54 7.61589 160.102 7.6812ZM169.018 17.4336L169.151 16.3887C169.217 15.9098 169.505 15.7139 170.058 15.7792C170.567 15.8445 170.81 16.1057 170.744 16.5846L170.346 19.8281C170.169 21.156 169.372 21.8091 167.978 21.8091H162.381C160.965 21.8091 160.168 21.156 160.014 19.8281L159.615 16.5846C159.549 16.1057 159.77 15.8227 160.301 15.7792C160.832 15.7139 161.142 15.9098 161.208 16.3887L161.341 17.4336H169.085H169.018ZM167.956 20.4377C168.421 20.4377 168.664 20.1329 168.753 19.5234L168.841 18.805H161.429L161.518 19.5234C161.584 20.1329 161.85 20.4377 162.314 20.4377H167.956ZM167.27 6.91929C167.337 7.87712 167.381 8.81317 167.403 9.74922H169.439C169.439 8.85671 169.394 7.94242 169.328 7.00637C169.284 6.44038 169.527 6.13562 170.036 6.09208C170.567 6.04854 170.832 6.26623 170.855 6.74514C171.054 9.20501 171.054 11.6649 170.855 14.103C170.832 14.5819 170.545 14.7778 170.036 14.7343C169.505 14.6907 169.262 14.386 169.328 13.82C169.394 12.9275 169.416 12.0132 169.439 11.0989H167.403C167.381 12.0349 167.337 12.971 167.27 13.907C167.226 14.386 166.961 14.5819 166.43 14.5601C165.899 14.5166 165.655 14.2553 165.7 13.7764C165.877 11.5343 165.877 9.27031 165.7 7.02814C165.655 6.54922 165.899 6.30977 166.43 6.26623C166.961 6.22269 167.248 6.41861 167.27 6.89752V6.91929ZM176.85 19.2839C174.328 19.3928 173.045 17.3683 173.045 13.2758C173.045 9.18324 174.306 7.09344 176.85 7.00637C179.262 6.89752 180.523 8.72609 180.634 12.4703H182.868C182.846 10.7506 182.757 9.00909 182.603 7.24582C182.558 6.76691 182.802 6.52746 183.333 6.48392C183.864 6.44038 184.151 6.6363 184.173 7.11521C184.505 11.1424 184.505 15.1696 184.173 19.1968C184.129 19.6758 183.864 19.8717 183.333 19.8281C182.802 19.7846 182.558 19.5451 182.603 19.0662C182.757 17.3247 182.846 15.5615 182.868 13.82H180.634C180.457 17.3683 179.195 19.1968 176.85 19.2839ZM176.85 8.33426C175.39 8.3778 174.682 10.0104 174.682 13.2104C174.682 16.4104 175.412 17.9996 176.85 17.956C178.31 17.8907 179.018 16.2581 179.018 13.0363C179.018 9.81453 178.288 8.29072 176.85 8.35603V8.33426ZM186.032 19.4145C186.364 15.2349 186.364 11.0553 186.032 6.87575C185.988 6.39684 186.231 6.15739 186.762 6.11385C187.293 6.07031 187.559 6.288 187.581 6.76691C187.935 11.0336 187.935 15.2785 187.581 19.5451C187.559 20.0241 187.271 20.22 186.762 20.1764C186.231 20.1329 185.988 19.8934 186.032 19.4145ZM193.444 13.6458C193.466 13.1887 193.687 12.971 194.129 12.9928C198.532 13.2758 202.913 13.2758 207.316 12.9928C207.736 12.971 207.979 13.1887 208.002 13.6458C208.024 14.0812 207.825 14.3207 207.382 14.3424C205.435 14.473 203.51 14.5601 201.563 14.5601V16.1928C204.904 16.2798 206.586 17.2159 206.586 19.0009C206.586 20.9166 204.639 21.9179 200.767 21.9832C196.873 22.0485 194.926 21.1125 194.926 19.1968C194.926 17.4118 196.607 16.4104 199.948 16.2363V14.5819C198.001 14.5819 196.054 14.4948 194.107 14.3642C193.665 14.3424 193.466 14.103 193.488 13.6676L193.444 13.6458ZM206.209 11.4907C205.966 11.9043 205.678 11.9914 205.324 11.7084C204.771 11.3166 203.997 11.0336 203.001 10.7941C201.408 11.4254 198.953 11.7519 195.656 11.7519C195.103 11.7519 194.837 11.5343 194.837 11.0771C194.837 10.62 195.125 10.4023 195.678 10.4023C200.302 10.4023 202.979 9.68392 203.709 8.24718C203.909 7.81181 203.82 7.57235 203.4 7.57235H196.32C195.722 7.57235 195.435 7.35467 195.435 6.89752C195.435 6.44038 195.7 6.22269 196.253 6.22269H203.532C205.17 6.22269 205.723 7.09344 205.17 8.81317C205.037 9.16147 204.838 9.488 204.572 9.79276C205.147 9.96691 205.612 10.1846 206.01 10.4676C206.386 10.7288 206.453 11.0553 206.209 11.4472V11.4907ZM200.723 20.6336C203.532 20.5683 204.926 20.0458 204.926 19.0227C204.926 17.9996 203.532 17.5424 200.723 17.6077C197.913 17.6513 196.497 18.1955 196.497 19.2186C196.497 20.2417 197.913 20.6989 200.723 20.6336ZM209.086 13.2322C209.108 12.7751 209.329 12.5574 209.771 12.5792C214.174 12.8839 218.555 12.8839 222.958 12.5792C223.378 12.5574 223.621 12.7751 223.644 13.2322C223.666 13.6676 223.467 13.907 223.024 13.9288C221.077 14.0594 219.152 14.1465 217.205 14.1465V16.0404C217.205 16.0404 217.205 16.1492 217.205 16.2145H221.188C221.763 16.2145 222.028 16.4322 222.028 16.8894V17.8907C222.028 19.3057 221.719 20.5465 221.121 21.5914C220.878 22.0268 220.546 22.1138 220.104 21.8309C219.617 21.5696 219.506 21.2213 219.727 20.786C220.17 20.0023 220.391 19.0445 220.391 17.8907V17.586H211.298C210.723 17.586 210.457 17.3465 210.457 16.8894C210.457 16.4322 210.745 16.2145 211.298 16.2145H215.568V14.1683C213.621 14.1683 211.674 14.0812 209.727 13.9506C209.285 13.9288 209.086 13.6894 209.108 13.254L209.086 13.2322ZM210.435 7.13698C210.435 6.67984 210.723 6.46215 211.276 6.46215H221.143C221.719 6.46215 221.984 6.67984 221.984 7.13698V7.79004C221.984 9.20501 221.674 10.4458 221.077 11.4907C220.834 11.9043 220.502 11.9914 220.059 11.7084C219.573 11.4472 219.462 11.1207 219.683 10.6853C220.126 9.9016 220.347 8.94378 220.347 7.81181H211.254C210.679 7.81181 210.413 7.59412 210.413 7.13698H210.435ZM229.374 19.2839C226.586 19.3928 225.214 17.3683 225.214 13.2758C225.214 9.18324 226.608 7.09344 229.374 7.00637C232.007 6.89752 233.4 8.72609 233.511 12.4703H236.918C236.896 10.62 236.808 8.74786 236.675 6.87575C236.631 6.39684 236.874 6.15739 237.405 6.11385C237.936 6.07031 238.201 6.288 238.224 6.76691C238.578 11.0336 238.578 15.2785 238.224 19.5451C238.201 20.0241 237.914 20.22 237.405 20.1764C236.874 20.1329 236.631 19.8934 236.675 19.4145C236.808 17.5642 236.896 15.6921 236.918 13.82H233.511C233.312 17.3683 231.94 19.1968 229.374 19.2839ZM229.374 8.33426C227.67 8.3778 226.829 10.0104 226.829 13.2104C226.829 16.4104 227.67 17.9996 229.374 17.956C231.055 17.8907 231.896 16.2581 231.896 13.0363C231.896 9.81453 231.055 8.29072 229.374 8.35603V8.33426ZM243.312 11.9043V13.5587C243.312 13.907 243.445 14.103 243.688 14.103H251.587C252.184 14.103 252.494 14.3207 252.494 14.7778C252.494 15.2567 252.206 15.4744 251.631 15.4744H247.936V18.3479C249.861 18.3479 251.786 18.2608 253.711 18.1302C254.131 18.1084 254.374 18.3261 254.397 18.7832C254.419 19.2186 254.22 19.4581 253.777 19.4798C249.352 19.7846 244.927 19.7846 240.48 19.4798C240.038 19.4581 239.839 19.2186 239.861 18.7832C239.883 18.3261 240.104 18.1084 240.547 18.1302C242.471 18.2608 244.396 18.3479 246.343 18.3479V15.4744H243.135C242.228 15.4744 241.763 15.0608 241.763 14.2118L241.719 11.6866C241.697 10.9247 242.117 10.5329 242.98 10.5329H250.658C250.901 10.5329 251.034 10.337 251.034 9.96691L251.078 8.35603H242.516C241.918 8.35603 241.609 8.13834 241.609 7.6812C241.609 7.22405 241.852 6.9846 242.317 6.9846H251.432C252.273 6.9846 252.671 7.37643 252.671 8.16011L252.627 10.6635C252.604 11.5125 252.118 11.9261 251.189 11.9261H243.356L243.312 11.9043Z" fill="#231815"/>
<path d="M51.1594 32.6009C48.3717 32.7097 47 31.5342 47 29.0961C47 26.658 48.3939 25.4607 51.1594 25.3519C53.925 25.243 55.2967 26.3968 55.2967 28.7913C55.2967 31.1859 53.925 32.4703 51.1594 32.5791V32.6009ZM51.1594 26.6798C49.4558 26.7451 48.6151 27.5288 48.6151 29.0308C48.6151 30.5328 49.4558 31.2947 51.1594 31.2512C52.8409 31.1859 53.6816 30.4022 53.6816 28.8566C53.6816 27.3111 52.8409 26.6145 51.1594 26.6798ZM49.2124 34.4294C49.2124 33.9941 49.478 33.7546 50.0311 33.7546H58.8809C59.8543 33.7546 60.2968 34.1464 60.1862 34.9519L60.0092 36.7151C59.9207 37.5424 59.434 37.956 58.549 37.956H51.2258L51.447 39.4798H58.7039C59.2791 39.4798 59.5667 39.6975 59.5667 40.1546C59.5667 40.6117 59.3012 40.8294 58.7481 40.8294H51.2479C50.4293 40.8294 49.9647 40.4158 49.8541 39.6104L49.6107 37.8254C49.5001 37.0417 49.9426 36.6498 50.9603 36.6498H58.4162L58.549 35.126H50.0753C49.5001 35.126 49.2346 34.9083 49.2346 34.4512L49.2124 34.4294ZM58.4384 31.9043C58.6154 29.9015 58.6154 27.8771 58.4384 25.8526C58.3941 25.3737 58.6375 25.1342 59.1685 25.0907C59.6995 25.0471 59.965 25.2648 59.9871 25.7437C60.1862 27.8335 60.1862 29.9233 59.9871 32.0131C59.965 32.492 59.6773 32.7097 59.1685 32.6662C58.6375 32.6226 58.3941 32.3832 58.4384 31.9043ZM69.744 27.7029C69.744 28.639 69.4785 29.4444 68.9696 30.1628C69.6776 30.4675 70.3635 31.0117 71.0051 31.7954C71.3148 32.1873 71.2927 32.5356 70.9608 32.8403C70.5626 33.2322 70.2307 33.2104 69.921 32.775C69.39 32.0131 68.682 31.4907 67.8192 31.2294C66.6687 32.0349 65.0315 32.6444 62.8854 33.058C62.3765 33.1669 62.0889 32.9492 62.0225 32.4485C61.934 31.9478 62.1332 31.6648 62.6199 31.556C66.2704 30.8376 68.1068 29.4662 68.1068 27.4417C68.1068 27.1805 67.974 27.0498 67.7307 27.0498H63.1951C62.6199 27.0498 62.3323 26.8322 62.3323 26.375C62.3323 25.9179 62.5978 25.7002 63.1509 25.7002H67.4651C68.9475 25.7002 69.6997 26.3532 69.6997 27.6811L69.744 27.7029ZM75.2087 37.8254C75.2087 39.8716 73.4167 40.9383 69.8104 40.9818C66.2041 41.0471 64.412 40.0458 64.412 37.9995C64.412 35.9532 66.2041 34.8866 69.8104 34.843C73.4167 34.7777 75.2087 35.7791 75.2087 37.8254ZM69.8104 39.6322C72.3326 39.5668 73.5936 38.9791 73.5936 37.8471C73.5936 36.7151 72.3326 36.1709 69.8104 36.2362C67.2882 36.3015 66.0271 36.8893 66.0271 38.0213C66.0271 39.1532 67.2882 39.6975 69.8104 39.6322ZM73.6821 28.5519C73.66 27.7029 73.6158 26.8539 73.5715 26.0049C73.5273 25.439 73.7706 25.1342 74.2795 25.0907C74.8105 25.0471 75.076 25.2648 75.0981 25.7437C75.2972 28.2036 75.2972 30.6634 75.0981 33.1015C75.076 33.5805 74.7884 33.7764 74.2795 33.7328C73.7485 33.6893 73.5051 33.3845 73.5715 32.8186C73.6379 31.8607 73.66 30.8811 73.6821 29.9233H71.5361C71.0051 29.9233 70.7396 29.7056 70.7396 29.2485C70.7396 28.7913 71.0051 28.5737 71.5361 28.5737H73.6821V28.5519ZM76.7574 31.839C76.7796 31.3818 77.0008 31.1641 77.4433 31.1859C81.8461 31.4689 86.2267 31.4689 90.6295 31.1859C91.0499 31.1641 91.2932 31.3818 91.3153 31.839C91.3375 32.2743 91.1384 32.5138 90.6959 32.5356C86.271 32.8186 81.8461 32.8186 77.3991 32.5356C76.9566 32.5138 76.7574 32.2743 76.7796 31.839H76.7574ZM78.1292 34.7995C78.1292 34.3641 78.3947 34.1247 78.9478 34.1247H88.5055C89.479 34.1247 89.9215 34.5165 89.8109 35.3002L89.6118 36.8893C89.5011 37.7165 89.0144 38.1301 88.1516 38.1301H80.1425L80.3195 39.458H88.3285C88.9038 39.458 89.1914 39.6757 89.1914 40.1328C89.1914 40.59 88.9259 40.8077 88.3728 40.8077H80.1425C79.3018 40.8077 78.8371 40.3941 78.7265 39.5886L78.5274 37.9995C78.4168 37.1941 78.8593 36.8022 79.877 36.8022H87.9967L88.1516 35.4743H78.9478C78.3725 35.4743 78.0849 35.2566 78.0849 34.7995H78.1292ZM89.8551 27.4634C89.8551 29.1832 87.9082 30.0757 84.0364 30.1192C80.1425 30.1845 78.1955 29.3573 78.1955 27.6376C78.1955 25.9179 80.1425 25.0471 84.0364 25.0036C87.9082 24.9383 89.8551 25.7655 89.8551 27.4634ZM84.0364 28.8566C86.8462 28.7913 88.24 28.3342 88.24 27.4634C88.24 26.5927 86.8462 26.2226 84.0364 26.2879C81.2266 26.3532 79.8106 26.8104 79.8106 27.6594C79.8106 28.5083 81.2266 28.922 84.0364 28.8566ZM99.7227 26.1791C100.209 26.1791 100.431 26.4839 100.431 27.0716C100.431 28.6607 100.342 30.0975 100.143 31.3818C100.94 32.2961 101.493 33.2757 101.847 34.2988C102.355 32.5138 102.599 30.0975 102.599 27.0716C102.599 26.4839 102.842 26.1791 103.307 26.1791C103.771 26.1791 104.015 26.4839 104.015 27.0716C104.015 28.9655 103.926 30.6199 103.727 32.0784C105.055 33.624 105.895 35.3437 106.249 37.2811C106.338 37.7383 106.161 37.9995 105.741 38.0866C105.276 38.1519 105.01 37.9777 104.922 37.5206C104.679 36.258 104.17 35.0607 103.373 33.9288C102.975 35.6267 102.4 36.9328 101.625 37.8254C101.338 38.1737 101.006 38.2172 100.674 37.9124C100.298 37.6077 100.276 37.2811 100.586 36.9111C100.785 36.6716 100.962 36.3886 101.161 36.0403C100.895 34.9737 100.453 33.9941 99.8333 33.1451C99.4129 35.0172 98.7271 36.5192 97.7978 37.6512C97.5102 37.9995 97.1783 38.043 96.8465 37.7165C96.4703 37.4335 96.4261 37.107 96.758 36.7151C98.2624 34.9301 99.0147 31.7083 99.0147 27.0281C99.0147 26.4403 99.258 26.1356 99.7227 26.1356V26.1791ZM108.683 31.4471C108.661 29.5968 108.572 27.7247 108.44 25.8526C108.395 25.3737 108.639 25.1342 109.17 25.0907C109.701 25.0471 109.966 25.2648 109.988 25.7437C110.342 30.0104 110.342 34.2553 109.988 38.522C109.966 39.0009 109.679 39.1968 109.17 39.1532C108.639 39.1097 108.395 38.8703 108.44 38.3913C108.572 36.541 108.661 34.6689 108.683 32.7968H106.227C105.696 32.7968 105.431 32.5791 105.431 32.122C105.431 31.6648 105.696 31.4471 106.227 31.4471H108.683ZM127.754 25.6349C128.33 25.6349 128.595 25.8743 128.573 26.3532L128.418 32.3179C128.374 33.6458 127.71 34.2988 126.383 34.2988H123.838V37.3247C125.763 37.3247 127.688 37.2376 129.613 37.107C130.033 37.0852 130.277 37.3029 130.299 37.76C130.321 38.1954 130.122 38.4349 129.679 38.4566C125.254 38.7614 120.829 38.7614 116.382 38.4566C115.94 38.4349 115.741 38.1954 115.763 37.76C115.785 37.3029 116.006 37.0852 116.449 37.107C118.374 37.2376 120.298 37.3247 122.245 37.3247V34.2988H119.657C118.329 34.2988 117.643 33.6458 117.621 32.3179L117.466 26.3532C117.466 25.8743 117.732 25.6349 118.285 25.6349C118.794 25.6349 119.059 25.8743 119.082 26.3532L119.126 28.639H126.892L126.936 26.3532C126.958 25.8743 127.223 25.6349 127.732 25.6349H127.754ZM119.192 30.0104L119.236 32.1002C119.236 32.7315 119.502 33.0362 120.011 33.0362H126.029C126.538 33.0362 126.781 32.7315 126.803 32.1002L126.847 30.0104H119.17H119.192ZM132.135 36.4322C134.193 35.1696 135.232 32.0566 135.232 27.0716C135.232 26.4621 135.498 26.1573 136.051 26.1573C136.604 26.1573 136.848 26.4621 136.848 27.0498C136.848 28.922 136.715 30.5546 136.449 31.9478C137.843 33.0362 138.839 34.756 139.458 37.1505C139.569 37.6077 139.392 37.9124 138.905 38.043C138.418 38.1737 138.131 38.0213 137.998 37.5641C137.511 35.8444 136.848 34.5165 136.007 33.624C135.365 35.5832 134.37 36.9546 133.042 37.7165C132.555 38.0213 132.179 37.9342 131.892 37.4771C131.626 37.0417 131.715 36.6934 132.157 36.4322H132.135ZM141.671 31.4471C141.649 29.7274 141.56 27.9859 141.405 26.2226C141.361 25.7437 141.604 25.5043 142.135 25.4607C142.666 25.4172 142.954 25.6131 142.976 26.092C143.308 30.1192 143.308 34.1464 142.976 38.1737C142.932 38.6526 142.666 38.8485 142.135 38.8049C141.604 38.7614 141.361 38.522 141.405 38.043C141.56 36.3015 141.649 34.5383 141.671 32.7968H140.033C139.525 32.7968 139.259 32.5791 139.259 32.122C139.259 31.6648 139.525 31.4471 140.033 31.4471H141.671ZM144.857 38.4131C145.188 34.2335 145.188 30.0539 144.857 25.8743C144.812 25.3954 145.056 25.156 145.587 25.1124C146.118 25.0689 146.383 25.2866 146.405 25.7655C146.759 30.0322 146.759 34.2771 146.405 38.5437C146.383 39.0226 146.096 39.2186 145.587 39.175C145.056 39.1315 144.812 38.892 144.857 38.4131ZM152.091 33.7546C152.091 33.7546 152.091 33.5805 152.091 33.4934C150.41 32.9056 149.569 31.7083 149.569 29.9015C149.569 27.1805 151.516 25.7873 155.41 25.722C159.282 25.6566 161.229 26.9845 161.229 29.7274C161.229 31.5342 160.388 32.775 158.684 33.4063C158.706 33.5151 158.729 33.624 158.729 33.7546V37.2594C159.813 37.2158 160.897 37.1723 161.981 37.0852C162.401 37.0634 162.645 37.2811 162.667 37.7383C162.689 38.1737 162.49 38.4131 162.047 38.4349C157.622 38.7396 153.198 38.7396 148.75 38.4349C148.308 38.4131 148.109 38.1737 148.131 37.7383C148.153 37.2811 148.374 37.0634 148.817 37.0852C149.901 37.1505 150.985 37.2158 152.069 37.2594V33.7546H152.091ZM155.432 32.6009C158.242 32.5356 159.636 31.5777 159.636 29.7056C159.636 27.8335 158.242 26.9628 155.432 27.0281C152.622 27.0934 151.206 28.0512 151.206 29.9015C151.206 31.7519 152.622 32.6662 155.432 32.6009ZM157.114 33.7981C156.583 33.8852 156.029 33.9288 155.41 33.9288C154.79 33.9288 154.215 33.9288 153.706 33.8634V37.3247C154.857 37.3464 155.985 37.3464 157.114 37.3247V33.8199V33.7981ZM163.95 38.1301C163.95 37.5206 164.282 37.1941 164.946 37.1941C165.609 37.1941 165.919 37.4988 165.919 38.1301V38.2825C165.919 38.892 165.587 39.1968 164.946 39.1968C164.304 39.1968 163.95 38.892 163.95 38.2825V38.1301Z" fill="#231815"/>
<path d="M40.4922 14.6076C40.4035 19.4105 37.9897 22.5976 33.379 23.903C32.778 24.0754 32.5366 24.3562 32.3297 24.8981C31.4037 27.3414 29.6155 28.7256 26.9949 28.8832C24.2412 29.0507 22.1526 27.9128 20.9753 25.3808C20.6551 24.6912 20.2364 24.3907 19.527 24.3414C18.3497 24.2528 17.2955 23.834 16.4729 22.9818C16.0443 22.5385 15.7586 22.5336 15.2808 22.9523C13.7439 24.302 11.9262 24.7109 9.92127 24.3661C6.97551 23.8636 5.09377 21.775 4.92136 18.7799C4.83269 17.1938 4.7588 15.6076 4.73417 14.0214C4.72432 13.4057 4.53713 13.1298 3.9263 12.8983C1.1431 11.8293 -0.127813 9.75547 0.0101155 6.69641C0.12834 4.0807 1.77363 1.8098 4.43861 1.19897C8.4878 0.27288 12.5961 -0.382281 16.7684 0.469921C17.2413 0.568442 17.6403 0.430513 18.0738 0.307362C21.5664 -0.672916 24.6599 0.726074 26.1328 4.01173C26.4185 4.64719 26.7781 4.7063 27.3495 4.69152C29.4776 4.64226 31.581 4.86393 33.6302 5.45998C37.9011 6.70134 40.571 10.2776 40.4922 14.6027V14.6076ZM24.719 20.5533C24.719 21.2479 24.6944 21.9375 24.724 22.6321C24.7782 23.967 25.3496 24.5828 26.5367 24.6222C27.5219 24.6567 28.2806 23.9326 28.3889 22.7454C28.4628 21.9375 28.4382 21.1149 28.4283 20.3021C28.4234 19.775 28.5564 19.5583 29.1377 19.7307C29.9702 19.9819 30.8421 19.9179 31.6894 19.844C33.7534 19.6666 35.3839 18.2923 35.9159 16.3268C36.5415 14.0214 35.8765 11.849 34.2016 10.6077C32.7583 9.5338 31.049 9.32198 29.3544 9.13479C26.32 8.80968 25.9555 9.11016 25.4087 12.1446C25.3446 12.5042 25.2806 12.8638 25.251 13.2283C25.187 14.0017 25.1279 14.716 24.3988 15.2628C23.8127 15.7012 23.7683 16.578 24.1427 17.0558C25.0146 18.1593 24.7092 19.3612 24.719 20.5484V20.5533ZM12.7636 15.578C12.7636 15.578 12.7291 15.578 12.7094 15.578C12.7094 14.6815 12.739 13.785 12.6995 12.8933C12.6601 11.9574 12.5665 11.0264 12.4927 10.0954C12.3974 8.85729 12.9672 8.2087 14.202 8.14959C15.6749 8.0757 16.4187 7.44517 16.4088 6.26292C16.4039 5.09053 15.6847 4.46492 14.1379 4.49448C12.3892 4.52896 10.6405 4.67182 8.90158 4.82452C7.7686 4.92304 6.62576 4.99693 5.53711 5.38116C4.51743 5.74076 3.98049 6.79001 4.25635 7.81462C4.4928 8.69638 5.42874 9.14957 6.52232 8.90327C6.79817 8.83923 7.0691 8.75056 7.34004 8.66682C8.18239 8.40082 8.54691 8.57815 8.64051 9.57814C8.92129 12.4943 9.06414 15.4155 9.11833 18.3465C9.14296 19.6716 9.6996 20.1592 10.9015 20.1543C12.1331 20.1444 12.6798 19.6617 12.7537 18.3957C12.8079 17.4647 12.7636 16.5238 12.7636 15.5879V15.578ZM22.3398 16.0706C22.3693 14.4845 22.256 12.9131 21.9063 11.3614C21.6551 10.2481 20.9703 9.69143 19.8029 9.80473C18.5861 9.92296 18.2216 10.8441 18.261 11.7948C18.3497 14.1002 18.5911 16.4007 18.7881 18.7011C18.8817 19.8243 19.5713 20.1888 20.6304 20.1543C21.7388 20.1198 22.2757 19.5533 22.3299 18.509C22.3743 17.7011 22.3398 16.8884 22.3398 16.0756V16.0706ZM22.0885 6.09544C22.4235 5.0659 21.7437 4.43044 20.8127 4.29744C19.1231 4.05607 17.9556 5.03142 17.931 6.47474C17.9064 7.74073 18.6748 8.57323 19.9063 8.61756C21.3398 8.66682 22.0393 7.89836 22.0885 6.10036V6.09544Z" fill="#6A83B4"/>
<path d="M24.7194 20.5476C24.7046 19.3604 25.015 18.1585 24.1431 17.055C23.7637 16.5772 23.8081 15.7053 24.3992 15.262C25.1283 14.7152 25.1874 13.996 25.2514 13.2275C25.281 12.863 25.345 12.5034 25.409 12.1438C25.9558 9.11429 26.3204 8.80888 29.3548 9.13399C31.0543 9.31626 32.7587 9.533 34.202 10.6069C35.8768 11.8532 36.5418 14.0206 35.9162 16.326C35.3842 18.2915 33.7537 19.6658 31.6897 19.8432C30.8375 19.9171 29.9705 19.9811 29.138 19.7299C28.5568 19.5525 28.4188 19.7742 28.4287 20.3013C28.4385 21.1141 28.4632 21.9367 28.3893 22.7446C28.2809 23.9318 27.5174 24.6559 26.5371 24.6214C25.3499 24.5771 24.7834 23.9662 24.7243 22.6313C24.6948 21.9416 24.7194 21.2471 24.7194 20.5525V20.5476ZM30.4237 16.2225C31.7587 16.2521 32.4582 15.725 32.5074 14.7349C32.5616 13.6856 31.4089 12.7595 29.8474 12.7842C28.1233 12.8137 28.9459 14.3112 28.7784 15.0945C28.473 16.5378 29.8671 15.9418 30.4237 16.2275V16.2225Z" fill="#FCFCFC"/>
<path d="M12.7634 15.5788C12.7634 16.5147 12.8077 17.4556 12.7535 18.3866C12.6796 19.6526 12.1328 20.1353 10.9013 20.1452C9.69444 20.155 9.14273 19.6624 9.1181 18.3373C9.06884 15.4064 8.92106 12.4902 8.64027 9.56902C8.54668 8.56904 8.17723 8.38678 7.3398 8.65771C7.06887 8.74638 6.79794 8.83012 6.52209 8.89416C5.42851 9.14538 4.49256 8.69219 4.25612 7.80551C3.98026 6.78582 4.52212 5.73165 5.53688 5.37205C6.62061 4.98782 7.76837 4.91393 8.90135 4.81541C10.6452 4.66271 12.3939 4.51985 14.1377 4.48537C15.6894 4.45581 16.4037 5.08634 16.4086 6.25381C16.4135 7.43606 15.6746 8.06659 14.2018 8.14048C12.9702 8.20287 12.4005 8.85147 12.4924 10.0863C12.5614 11.0173 12.6599 11.9483 12.6993 12.8842C12.7338 13.7758 12.7092 14.6724 12.7092 15.5689C12.7289 15.5689 12.7437 15.5689 12.7634 15.5689V15.5788Z" fill="#FCFCFC"/>
<path d="M22.078 16.0353C22.078 16.8481 22.1125 17.6609 22.0682 18.4687C22.014 19.518 21.4721 20.0795 20.3687 20.114C19.3096 20.1485 18.6199 19.784 18.5264 18.6608C18.3293 16.3604 18.0879 14.0599 17.9993 11.7546C17.9648 10.8088 18.3293 9.88266 19.5411 9.76444C20.7086 9.65114 21.3884 10.2078 21.6445 11.3211C21.9943 12.8728 22.1076 14.4442 22.078 16.0303V16.0353Z" fill="#FCFCFC"/>
<path d="M22.0878 6.09728C22.0386 7.89527 21.3391 8.66866 19.9056 8.61447C18.6692 8.57014 17.9056 7.73764 17.9303 6.47165C17.9598 5.03326 19.1273 4.05298 20.812 4.29435C21.743 4.42736 22.4228 5.06774 22.0878 6.09235V6.09728Z" fill="#FCFCFC"/>
<path d="M30.4232 16.2357C29.8223 16.147 28.0391 16.5756 28.3445 15.1323C28.512 14.3491 28.1179 12.8269 29.842 12.7974C31.4035 12.7727 32.5562 13.6988 32.502 14.7481C32.4528 15.7382 31.7533 16.2653 30.4183 16.2357H30.4232Z" fill="#6A83B4"/>
</svg>
