<svg width="34" height="62" viewBox="0 0 34 62" fill="none" xmlns="http://www.w3.org/2000/svg">
<path d="M9.636 7.608H12.518V24.658C12.518 25.4793 12.4153 26.0953 12.21 26.506C12.0047 26.9167 11.6527 27.232 11.154 27.452C10.6407 27.6573 9.99533 27.7893 9.218 27.848C8.45533 27.9213 7.53867 27.9507 6.468 27.936C6.424 27.6867 6.34333 27.3933 6.226 27.056C6.10867 26.7333 5.97667 26.4033 5.83 26.066C5.698 25.7287 5.55867 25.4427 5.412 25.208C5.896 25.2227 6.38 25.2373 6.864 25.252C7.348 25.2667 7.78067 25.274 8.162 25.274C8.54333 25.2593 8.81467 25.252 8.976 25.252C9.21067 25.252 9.37933 25.208 9.482 25.12C9.58467 25.032 9.636 24.878 9.636 24.658V7.608ZM14.916 13.394L17.512 12.426C18.1133 13.4673 18.6927 14.582 19.25 15.77C19.822 16.9433 20.3207 18.102 20.746 19.246C21.186 20.3753 21.5013 21.402 21.692 22.326L18.788 23.47C18.6413 22.5753 18.37 21.556 17.974 20.412C17.5927 19.2533 17.1307 18.0653 16.588 16.848C16.06 15.616 15.5027 14.4647 14.916 13.394ZM3.872 12.668L6.864 13.174C6.61467 14.2593 6.314 15.418 5.962 16.65C5.61 17.8673 5.192 19.0333 4.708 20.148C4.23867 21.248 3.696 22.2087 3.08 23.03C2.86 22.8687 2.58867 22.7 2.266 22.524C1.958 22.348 1.64267 22.1867 1.32 22.04C1.012 21.8787 0.733333 21.7467 0.484 21.644C1.08533 20.896 1.606 20.0087 2.046 18.982C2.50067 17.9407 2.882 16.87 3.19 15.77C3.498 14.6553 3.72533 13.6213 3.872 12.668ZM10.714 40.876H20.9V43.362H10.714V40.876ZM14.344 36.278H17.006V56.936H14.344V36.278ZM14.322 42.064L16.236 42.724C15.9427 43.7653 15.598 44.814 15.202 45.87C14.8207 46.926 14.3807 47.9527 13.882 48.95C13.398 49.9327 12.8773 50.8493 12.32 51.7C11.7627 52.5507 11.1687 53.284 10.538 53.9C10.3913 53.5187 10.164 53.1007 9.856 52.646C9.56267 52.1913 9.29133 51.8027 9.042 51.48C9.62867 50.9373 10.186 50.3067 10.714 49.588C11.2567 48.8547 11.7553 48.0773 12.21 47.256C12.6793 46.42 13.09 45.562 13.442 44.682C13.794 43.802 14.0873 42.9293 14.322 42.064ZM17.16 42.064C17.468 43.208 17.8493 44.3593 18.304 45.518C18.7587 46.662 19.2647 47.74 19.822 48.752C20.394 49.7493 20.9807 50.6 21.582 51.304C21.274 51.5387 20.922 51.854 20.526 52.25C20.1447 52.6313 19.8367 52.998 19.602 53.35C19.0153 52.514 18.458 51.5093 17.93 50.336C17.402 49.148 16.9253 47.8867 16.5 46.552C16.0747 45.2173 15.7153 43.89 15.422 42.57L17.16 42.064ZM1.056 40.876H10.032V43.362H1.056V40.876ZM4.554 36.278H7.128V56.936H4.554V36.278ZM4.4 42.504L6.094 43.12C5.88867 44.0293 5.632 44.9607 5.324 45.914C5.03067 46.8527 4.70067 47.7767 4.334 48.686C3.96733 49.5953 3.564 50.4387 3.124 51.216C2.69867 51.9933 2.244 52.668 1.76 53.24C1.64267 52.8587 1.44467 52.426 1.166 51.942C0.887333 51.4433 0.645333 51.018 0.44 50.666C0.88 50.182 1.298 49.6247 1.694 48.994C2.09 48.3487 2.464 47.6593 2.816 46.926C3.168 46.1927 3.476 45.452 3.74 44.704C4.01867 43.956 4.23867 43.2227 4.4 42.504ZM7.106 43.692C7.238 43.8093 7.42133 44 7.656 44.264C7.89067 44.5133 8.14733 44.7993 8.426 45.122C8.70467 45.43 8.98333 45.7453 9.262 46.068C9.54067 46.3907 9.79 46.6767 10.01 46.926C10.23 47.1753 10.3913 47.366 10.494 47.498L8.844 49.786C8.668 49.4487 8.448 49.0673 8.184 48.642C7.92 48.202 7.634 47.762 7.326 47.322C7.018 46.8673 6.71733 46.442 6.424 46.046C6.14533 45.6353 5.91067 45.298 5.72 45.034L7.106 43.692Z" fill="black"/>
<path d="M23.724 13.444C24.164 13.5 24.656 13.54 25.2 13.564C25.752 13.588 26.332 13.6 26.94 13.6C27.332 13.6 27.728 13.592 28.128 13.576C28.528 13.56 28.912 13.54 29.28 13.516C29.656 13.484 29.992 13.456 30.288 13.432V14.68C30.016 14.704 29.688 14.728 29.304 14.752C28.928 14.776 28.536 14.796 28.128 14.812C27.72 14.82 27.328 14.824 26.952 14.824C26.336 14.824 25.764 14.812 25.236 14.788C24.708 14.756 24.204 14.724 23.724 14.692V13.444ZM24.444 18.388C24.372 18.612 24.316 18.832 24.276 19.048C24.236 19.264 24.216 19.476 24.216 19.684C24.216 20.108 24.432 20.456 24.864 20.728C25.304 21 25.98 21.136 26.892 21.136C27.444 21.136 27.972 21.116 28.476 21.076C28.988 21.036 29.464 20.98 29.904 20.908C30.344 20.836 30.724 20.752 31.044 20.656L31.056 21.976C30.744 22.056 30.372 22.128 29.94 22.192C29.516 22.256 29.048 22.304 28.536 22.336C28.032 22.376 27.5 22.396 26.94 22.396C26.084 22.396 25.36 22.3 24.768 22.108C24.176 21.924 23.728 21.652 23.424 21.292C23.12 20.932 22.968 20.492 22.968 19.972C22.968 19.644 22.996 19.34 23.052 19.06C23.108 18.772 23.16 18.512 23.208 18.28L24.444 18.388Z" fill="black"/>
<path d="M25.44 31.92C25.784 31.952 26.124 31.98 26.46 32.004C26.796 32.02 27.14 32.028 27.492 32.028C28.228 32.028 28.956 31.996 29.676 31.932C30.396 31.868 31.06 31.776 31.668 31.656V32.82C31.036 32.924 30.36 33 29.64 33.048C28.92 33.096 28.204 33.124 27.492 33.132C27.148 33.132 26.808 33.124 26.472 33.108C26.136 33.092 25.792 33.072 25.44 33.048V31.92ZM29.796 29.82C29.772 29.94 29.752 30.064 29.736 30.192C29.728 30.32 29.72 30.444 29.712 30.564C29.704 30.708 29.696 30.892 29.688 31.116C29.688 31.332 29.684 31.572 29.676 31.836C29.676 32.092 29.676 32.348 29.676 32.604C29.676 33.108 29.684 33.592 29.7 34.056C29.724 34.52 29.748 34.96 29.772 35.376C29.796 35.792 29.816 36.184 29.832 36.552C29.856 36.912 29.868 37.24 29.868 37.536C29.868 37.816 29.828 38.08 29.748 38.328C29.676 38.568 29.556 38.784 29.388 38.976C29.22 39.168 28.996 39.316 28.716 39.42C28.436 39.532 28.088 39.588 27.672 39.588C26.856 39.588 26.22 39.428 25.764 39.108C25.316 38.788 25.092 38.34 25.092 37.764C25.092 37.396 25.192 37.068 25.392 36.78C25.6 36.492 25.892 36.264 26.268 36.096C26.652 35.928 27.112 35.844 27.648 35.844C28.176 35.844 28.664 35.904 29.112 36.024C29.56 36.144 29.968 36.3 30.336 36.492C30.704 36.684 31.04 36.896 31.344 37.128C31.648 37.36 31.924 37.584 32.172 37.8L31.524 38.808C31.084 38.392 30.652 38.032 30.228 37.728C29.804 37.424 29.372 37.188 28.932 37.02C28.492 36.852 28.032 36.768 27.552 36.768C27.152 36.768 26.824 36.848 26.568 37.008C26.32 37.168 26.196 37.38 26.196 37.644C26.196 37.916 26.316 38.124 26.556 38.268C26.804 38.404 27.12 38.472 27.504 38.472C27.8 38.472 28.032 38.424 28.2 38.328C28.368 38.232 28.488 38.096 28.56 37.92C28.632 37.736 28.668 37.516 28.668 37.26C28.668 37.052 28.66 36.772 28.644 36.42C28.628 36.06 28.608 35.668 28.584 35.244C28.568 34.812 28.552 34.372 28.536 33.924C28.52 33.468 28.512 33.032 28.512 32.616C28.512 32.184 28.508 31.788 28.5 31.428C28.5 31.06 28.5 30.78 28.5 30.588C28.5 30.492 28.492 30.368 28.476 30.216C28.468 30.064 28.456 29.932 28.44 29.82H29.796ZM23.904 29.928C23.88 30 23.848 30.096 23.808 30.216C23.776 30.328 23.744 30.444 23.712 30.564C23.688 30.684 23.668 30.78 23.652 30.852C23.612 31.052 23.564 31.3 23.508 31.596C23.46 31.892 23.408 32.22 23.352 32.58C23.304 32.932 23.256 33.292 23.208 33.66C23.168 34.028 23.136 34.38 23.112 34.716C23.088 35.052 23.076 35.348 23.076 35.604C23.076 35.812 23.08 36.024 23.088 36.24C23.104 36.448 23.128 36.664 23.16 36.888C23.216 36.72 23.28 36.548 23.352 36.372C23.424 36.196 23.496 36.02 23.568 35.844C23.648 35.668 23.72 35.504 23.784 35.352L24.384 35.82C24.28 36.124 24.168 36.452 24.048 36.804C23.936 37.148 23.828 37.476 23.724 37.788C23.628 38.1 23.56 38.36 23.52 38.568C23.504 38.648 23.488 38.744 23.472 38.856C23.464 38.96 23.46 39.048 23.46 39.12C23.468 39.176 23.472 39.244 23.472 39.324C23.472 39.412 23.476 39.496 23.484 39.576L22.428 39.648C22.308 39.224 22.2 38.688 22.104 38.04C22.008 37.384 21.96 36.648 21.96 35.832C21.96 35.392 21.98 34.928 22.02 34.44C22.06 33.952 22.108 33.48 22.164 33.024C22.228 32.56 22.288 32.136 22.344 31.752C22.408 31.36 22.456 31.044 22.488 30.804C22.512 30.652 22.532 30.488 22.548 30.312C22.564 30.136 22.576 29.968 22.584 29.808L23.904 29.928ZM30.804 29.4C30.884 29.544 30.964 29.716 31.044 29.916C31.124 30.116 31.204 30.316 31.284 30.516C31.364 30.716 31.432 30.896 31.488 31.056L30.768 31.296C30.712 31.12 30.648 30.932 30.576 30.732C30.504 30.532 30.428 30.336 30.348 30.144C30.276 29.944 30.2 29.764 30.12 29.604L30.804 29.4ZM32.028 29.016C32.108 29.168 32.188 29.344 32.268 29.544C32.356 29.736 32.44 29.932 32.52 30.132C32.6 30.332 32.668 30.512 32.724 30.672L32.016 30.9C31.928 30.636 31.824 30.352 31.704 30.048C31.584 29.744 31.46 29.476 31.332 29.244L32.028 29.016ZM27.504 42.38C27.36 42.22 27.184 42.044 26.976 41.852C26.768 41.652 26.556 41.456 26.34 41.264C26.124 41.072 25.932 40.916 25.764 40.796L26.64 40.172C26.776 40.276 26.952 40.42 27.168 40.604C27.392 40.788 27.616 40.98 27.84 41.18C28.064 41.38 28.244 41.556 28.38 41.708L27.504 42.38ZM23.928 41.228C23.968 41.3 24.012 41.392 24.06 41.504C24.116 41.608 24.172 41.716 24.228 41.828C24.284 41.932 24.332 42.02 24.372 42.092C24.612 42.54 24.864 43.044 25.128 43.604C25.4 44.164 25.652 44.708 25.884 45.236C26.036 45.588 26.196 45.988 26.364 46.436C26.54 46.884 26.712 47.348 26.88 47.828C27.048 48.3 27.204 48.756 27.348 49.196C27.5 49.636 27.628 50.024 27.732 50.36L26.424 50.696C26.304 50.208 26.16 49.676 25.992 49.1C25.824 48.524 25.64 47.948 25.44 47.372C25.24 46.796 25.028 46.256 24.804 45.752C24.628 45.352 24.456 44.964 24.288 44.588C24.12 44.212 23.956 43.86 23.796 43.532C23.644 43.204 23.492 42.912 23.34 42.656C23.26 42.528 23.16 42.372 23.04 42.188C22.92 42.004 22.808 41.848 22.704 41.72L23.928 41.228ZM21.6 44.744C21.8 44.696 22.004 44.636 22.212 44.564C22.42 44.492 22.576 44.432 22.68 44.384C23.056 44.24 23.46 44.072 23.892 43.88C24.332 43.68 24.78 43.48 25.236 43.28C25.7 43.072 26.164 42.88 26.628 42.704C27.1 42.528 27.556 42.388 27.996 42.284C28.444 42.172 28.864 42.116 29.256 42.116C29.84 42.116 30.34 42.22 30.756 42.428C31.172 42.636 31.492 42.92 31.716 43.28C31.948 43.64 32.064 44.044 32.064 44.492C32.064 44.996 31.952 45.44 31.728 45.824C31.512 46.208 31.192 46.512 30.768 46.736C30.344 46.952 29.824 47.06 29.208 47.06C28.872 47.06 28.54 47.024 28.212 46.952C27.892 46.88 27.616 46.804 27.384 46.724L27.42 45.524C27.668 45.636 27.936 45.732 28.224 45.812C28.52 45.892 28.812 45.932 29.1 45.932C29.476 45.932 29.792 45.868 30.048 45.74C30.304 45.612 30.496 45.436 30.624 45.212C30.76 44.988 30.828 44.732 30.828 44.444C30.828 44.22 30.768 44.016 30.648 43.832C30.528 43.64 30.348 43.488 30.108 43.376C29.868 43.256 29.572 43.196 29.22 43.196C28.82 43.196 28.372 43.268 27.876 43.412C27.38 43.556 26.86 43.744 26.316 43.976C25.78 44.2 25.252 44.44 24.732 44.696C24.212 44.952 23.728 45.192 23.28 45.416C22.84 45.64 22.472 45.82 22.176 45.956L21.6 44.744ZM25.248 51.58C25.216 51.796 25.188 52.028 25.164 52.276C25.14 52.516 25.124 52.744 25.116 52.96C25.1 53.288 25.084 53.696 25.068 54.184C25.052 54.664 25.036 55.176 25.02 55.72C25.004 56.256 24.992 56.788 24.984 57.316C24.976 57.836 24.972 58.304 24.972 58.72C24.972 59.144 25.048 59.48 25.2 59.728C25.36 59.976 25.58 60.156 25.86 60.268C26.14 60.372 26.452 60.424 26.796 60.424C27.324 60.424 27.8 60.356 28.224 60.22C28.648 60.084 29.028 59.9 29.364 59.668C29.708 59.436 30.016 59.172 30.288 58.876C30.56 58.58 30.804 58.272 31.02 57.952L31.872 58.996C31.672 59.284 31.42 59.584 31.116 59.896C30.812 60.208 30.448 60.5 30.024 60.772C29.608 61.044 29.128 61.264 28.584 61.432C28.048 61.6 27.444 61.684 26.772 61.684C26.164 61.684 25.632 61.592 25.176 61.408C24.72 61.224 24.364 60.928 24.108 60.52C23.852 60.112 23.724 59.576 23.724 58.912C23.724 58.568 23.728 58.18 23.736 57.748C23.744 57.316 23.752 56.872 23.76 56.416C23.776 55.952 23.788 55.5 23.796 55.06C23.812 54.62 23.824 54.216 23.832 53.848C23.84 53.48 23.844 53.184 23.844 52.96C23.844 52.704 23.832 52.46 23.808 52.228C23.792 51.988 23.76 51.768 23.712 51.568L25.248 51.58Z" fill="black"/>
</svg>
