<svg width="34" height="62" viewBox="0 0 34 62" fill="none" xmlns="http://www.w3.org/2000/svg">
<path d="M9.86381 6.91602H12.6358V24.12H9.86381V6.91602ZM2.36181 11.668H5.08981V26.716H2.36181V11.668ZM17.6298 11.624H20.3798V26.65H17.6298V11.624ZM3.70381 22.536H18.8618V25.242H3.70381V22.536ZM1.48181 36.928H21.2158V39.59H1.48181V36.928ZM9.46781 39.304H12.3058V55.914H9.46781V39.304ZM10.9638 44.65L12.7678 42.538C13.3691 42.8313 14.0145 43.1687 14.7038 43.55C15.4078 43.9167 16.1045 44.3053 16.7938 44.716C17.4831 45.1267 18.1358 45.53 18.7518 45.926C19.3678 46.3073 19.8811 46.674 20.2918 47.026L18.3338 49.446C17.9525 49.094 17.4685 48.7127 16.8818 48.302C16.3098 47.8767 15.6791 47.4513 14.9898 47.026C14.3151 46.6007 13.6331 46.1827 12.9438 45.772C12.2545 45.3467 11.5945 44.9727 10.9638 44.65Z" fill="#E22F61"/>
<path d="M28.004 8.37988C27.86 8.21988 27.684 8.04388 27.476 7.85188C27.268 7.65188 27.056 7.45588 26.84 7.26388C26.624 7.07188 26.432 6.91588 26.264 6.79588L27.14 6.17188C27.276 6.27588 27.452 6.41988 27.668 6.60388C27.892 6.78788 28.116 6.97987 28.34 7.17987C28.564 7.37987 28.744 7.55588 28.88 7.70788L28.004 8.37988ZM24.428 7.22788C24.468 7.29988 24.512 7.39188 24.56 7.50388C24.616 7.60788 24.672 7.71588 24.728 7.82788C24.784 7.93188 24.832 8.01988 24.872 8.09188C25.112 8.53988 25.364 9.04388 25.628 9.60388C25.9 10.1639 26.152 10.7079 26.384 11.2359C26.536 11.5879 26.696 11.9879 26.864 12.4359C27.04 12.8839 27.212 13.3479 27.38 13.8279C27.548 14.2999 27.704 14.7559 27.848 15.1959C28 15.6359 28.128 16.0239 28.232 16.3599L26.924 16.6959C26.804 16.2079 26.66 15.6759 26.492 15.0999C26.324 14.5239 26.14 13.9479 25.94 13.3719C25.74 12.7959 25.528 12.2559 25.304 11.7519C25.128 11.3519 24.956 10.9639 24.788 10.5879C24.62 10.2119 24.456 9.85987 24.296 9.53187C24.144 9.20387 23.992 8.91188 23.84 8.65588C23.76 8.52788 23.66 8.37187 23.54 8.18787C23.42 8.00387 23.308 7.84787 23.204 7.71987L24.428 7.22788ZM22.1 10.7439C22.3 10.6959 22.504 10.6359 22.712 10.5639C22.92 10.4919 23.076 10.4319 23.18 10.3839C23.556 10.2399 23.96 10.0719 24.392 9.87988C24.832 9.67988 25.28 9.47987 25.736 9.27987C26.2 9.07187 26.664 8.87988 27.128 8.70388C27.6 8.52788 28.056 8.38788 28.496 8.28388C28.944 8.17188 29.364 8.11588 29.756 8.11588C30.34 8.11588 30.84 8.21988 31.256 8.42788C31.672 8.63588 31.992 8.91987 32.216 9.27987C32.448 9.63987 32.564 10.0439 32.564 10.4919C32.564 10.9959 32.452 11.4399 32.228 11.8239C32.012 12.2079 31.692 12.5119 31.268 12.7359C30.844 12.9519 30.324 13.0599 29.708 13.0599C29.372 13.0599 29.04 13.0239 28.712 12.9519C28.392 12.8799 28.116 12.8039 27.884 12.7239L27.92 11.5239C28.168 11.6359 28.436 11.7319 28.724 11.8119C29.02 11.8919 29.312 11.9319 29.6 11.9319C29.976 11.9319 30.292 11.8679 30.548 11.7399C30.804 11.6119 30.996 11.4359 31.124 11.2119C31.26 10.9879 31.328 10.7319 31.328 10.4439C31.328 10.2199 31.268 10.0159 31.148 9.83187C31.028 9.63987 30.848 9.48788 30.608 9.37588C30.368 9.25588 30.072 9.19588 29.72 9.19588C29.32 9.19588 28.872 9.26787 28.376 9.41187C27.88 9.55587 27.36 9.74387 26.816 9.97587C26.28 10.1999 25.752 10.4399 25.232 10.6959C24.712 10.9519 24.228 11.1919 23.78 11.4159C23.34 11.6399 22.972 11.8199 22.676 11.9559L22.1 10.7439ZM28.496 18.3999C28.488 18.5119 28.476 18.6359 28.46 18.7719C28.452 18.8999 28.444 19.0479 28.436 19.2159C28.428 19.3519 28.42 19.5479 28.412 19.8039C28.412 20.0599 28.408 20.3439 28.4 20.6559C28.4 20.9599 28.4 21.2679 28.4 21.5799C28.4 21.8839 28.4 22.1639 28.4 22.4199C28.4 22.7879 28.408 23.1879 28.424 23.6199C28.448 24.0439 28.472 24.4639 28.496 24.8799C28.52 25.2959 28.54 25.6799 28.556 26.0319C28.58 26.3839 28.592 26.6719 28.592 26.8959C28.592 27.1999 28.516 27.4839 28.364 27.7479C28.212 28.0119 27.972 28.2239 27.644 28.3839C27.316 28.5519 26.888 28.6359 26.36 28.6359C25.456 28.6359 24.768 28.4719 24.296 28.1439C23.824 27.8239 23.588 27.3639 23.588 26.7639C23.588 26.3799 23.7 26.0439 23.924 25.7559C24.156 25.4679 24.484 25.2439 24.908 25.0839C25.34 24.9159 25.852 24.8319 26.444 24.8319C27.084 24.8319 27.684 24.9039 28.244 25.0479C28.812 25.1919 29.328 25.3759 29.792 25.5999C30.264 25.8239 30.68 26.0599 31.04 26.3079C31.4 26.5479 31.704 26.7639 31.952 26.9559L31.256 28.0239C30.976 27.7679 30.66 27.5079 30.308 27.2439C29.956 26.9799 29.568 26.7399 29.144 26.5239C28.72 26.3079 28.268 26.1359 27.788 26.0079C27.316 25.8799 26.816 25.8159 26.288 25.8159C25.776 25.8159 25.384 25.9039 25.112 26.0799C24.848 26.2479 24.716 26.4519 24.716 26.6919C24.716 26.8599 24.768 27.0119 24.872 27.1479C24.984 27.2759 25.148 27.3799 25.364 27.4599C25.58 27.5319 25.86 27.5679 26.204 27.5679C26.428 27.5679 26.628 27.5399 26.804 27.4839C26.988 27.4279 27.132 27.3319 27.236 27.1959C27.34 27.0519 27.392 26.8519 27.392 26.5959C27.392 26.3879 27.384 26.1079 27.368 25.7559C27.352 25.4039 27.336 25.0239 27.32 24.6159C27.312 24.1999 27.3 23.7999 27.284 23.4159C27.268 23.0239 27.26 22.6919 27.26 22.4199C27.26 22.1399 27.26 21.8519 27.26 21.5559C27.268 21.2519 27.272 20.9559 27.272 20.6679C27.272 20.3719 27.272 20.0959 27.272 19.8399C27.272 19.5759 27.272 19.3479 27.272 19.1559C27.272 19.0519 27.268 18.9239 27.26 18.7719C27.252 18.6119 27.236 18.4879 27.212 18.3999H28.496ZM23.744 19.6239C23.944 19.6559 24.176 19.6879 24.44 19.7199C24.712 19.7519 24.988 19.7839 25.268 19.8159C25.556 19.8399 25.828 19.8599 26.084 19.8759C26.34 19.8839 26.564 19.8879 26.756 19.8879C27.548 19.8879 28.344 19.8599 29.144 19.8039C29.944 19.7479 30.752 19.6519 31.568 19.5159V20.6199C31.136 20.6679 30.656 20.7159 30.128 20.7639C29.6 20.8119 29.048 20.8519 28.472 20.8839C27.904 20.9159 27.336 20.9319 26.768 20.9319C26.504 20.9319 26.184 20.9199 25.808 20.8959C25.44 20.8719 25.072 20.8439 24.704 20.8119C24.336 20.7799 24.02 20.7479 23.756 20.7159L23.744 19.6239ZM23.684 22.1919C23.884 22.2239 24.116 22.2559 24.38 22.2879C24.644 22.3119 24.916 22.3319 25.196 22.3479C25.476 22.3639 25.74 22.3799 25.988 22.3959C26.244 22.4039 26.464 22.4079 26.648 22.4079C27.296 22.4079 27.904 22.3959 28.472 22.3719C29.048 22.3399 29.6 22.2999 30.128 22.2519C30.664 22.1959 31.184 22.1359 31.688 22.0719L31.676 23.1879C31.268 23.2439 30.868 23.2919 30.476 23.3319C30.084 23.3639 29.688 23.3919 29.288 23.4159C28.896 23.4399 28.48 23.4559 28.04 23.4639C27.608 23.4719 27.136 23.4759 26.624 23.4759C26.376 23.4759 26.076 23.4719 25.724 23.4639C25.372 23.4479 25.016 23.4279 24.656 23.4039C24.296 23.3799 23.976 23.3519 23.696 23.3199L23.684 22.1919Z" fill="#E22F61"/>
<path d="M25.248 36.5804C25.216 36.7964 25.188 37.0284 25.164 37.2764C25.14 37.5164 25.124 37.7444 25.116 37.9604C25.1 38.2884 25.084 38.6964 25.068 39.1844C25.052 39.6644 25.036 40.1764 25.02 40.7204C25.004 41.2564 24.992 41.7884 24.984 42.3164C24.976 42.8364 24.972 43.3044 24.972 43.7204C24.972 44.1444 25.048 44.4804 25.2 44.7284C25.36 44.9764 25.58 45.1564 25.86 45.2684C26.14 45.3724 26.452 45.4244 26.796 45.4244C27.324 45.4244 27.8 45.3564 28.224 45.2204C28.648 45.0844 29.028 44.9004 29.364 44.6684C29.708 44.4364 30.016 44.1724 30.288 43.8764C30.56 43.5804 30.804 43.2724 31.02 42.9524L31.872 43.9964C31.672 44.2844 31.42 44.5844 31.116 44.8964C30.812 45.2084 30.448 45.5004 30.024 45.7724C29.608 46.0444 29.128 46.2644 28.584 46.4324C28.048 46.6004 27.444 46.6844 26.772 46.6844C26.164 46.6844 25.632 46.5924 25.176 46.4084C24.72 46.2244 24.364 45.9284 24.108 45.5204C23.852 45.1124 23.724 44.5764 23.724 43.9124C23.724 43.5684 23.728 43.1804 23.736 42.7484C23.744 42.3164 23.752 41.8724 23.76 41.4164C23.776 40.9524 23.788 40.5004 23.796 40.0604C23.812 39.6204 23.824 39.2164 23.832 38.8484C23.84 38.4804 23.844 38.1844 23.844 37.9604C23.844 37.7044 23.832 37.4604 23.808 37.2284C23.792 36.9884 23.76 36.7684 23.712 36.5684L25.248 36.5804ZM26.472 48.4964C26.432 48.6404 26.388 48.8204 26.34 49.0364C26.3 49.2444 26.268 49.4084 26.244 49.5284C26.188 49.8084 26.12 50.1444 26.04 50.5364C25.968 50.9204 25.88 51.3244 25.776 51.7484C25.68 52.1724 25.58 52.5844 25.476 52.9844C25.372 53.4084 25.244 53.8684 25.092 54.3644C24.94 54.8604 24.776 55.3644 24.6 55.8764C24.432 56.3804 24.26 56.8604 24.084 57.3164C23.916 57.7644 23.748 58.1604 23.58 58.5044L22.272 58.0604C22.448 57.7564 22.632 57.3884 22.824 56.9564C23.016 56.5164 23.204 56.0484 23.388 55.5524C23.572 55.0484 23.744 54.5484 23.904 54.0524C24.064 53.5564 24.2 53.1004 24.312 52.6844C24.384 52.4044 24.456 52.1124 24.528 51.8084C24.6 51.4964 24.668 51.1964 24.732 50.9084C24.796 50.6204 24.848 50.3524 24.888 50.1044C24.928 49.8484 24.96 49.6364 24.984 49.4684C25.016 49.2764 25.032 49.0804 25.032 48.8804C25.04 48.6804 25.04 48.5164 25.032 48.3884L26.472 48.4964ZM23.64 50.4164C24.104 50.4164 24.596 50.3924 25.116 50.3444C25.636 50.2964 26.164 50.2284 26.7 50.1404C27.244 50.0524 27.768 49.9444 28.272 49.8164V51.0044C27.776 51.1164 27.252 51.2124 26.7 51.2924C26.148 51.3724 25.608 51.4364 25.08 51.4844C24.552 51.5244 24.068 51.5444 23.628 51.5444C23.356 51.5444 23.104 51.5404 22.872 51.5324C22.648 51.5244 22.424 51.5124 22.2 51.4964L22.176 50.3204C22.472 50.3524 22.732 50.3764 22.956 50.3924C23.188 50.4084 23.416 50.4164 23.64 50.4164ZM27.42 52.1444C27.748 52.1124 28.108 52.0884 28.5 52.0724C28.892 52.0484 29.28 52.0364 29.664 52.0364C30.016 52.0364 30.368 52.0444 30.72 52.0604C31.08 52.0684 31.428 52.0924 31.764 52.1324L31.728 53.2844C31.424 53.2444 31.096 53.2084 30.744 53.1764C30.4 53.1444 30.048 53.1284 29.688 53.1284C29.296 53.1284 28.912 53.1404 28.536 53.1644C28.168 53.1804 27.796 53.2124 27.42 53.2604V52.1444ZM27.84 55.1084C27.8 55.2924 27.764 55.4764 27.732 55.6604C27.7 55.8364 27.684 56.0004 27.684 56.1524C27.684 56.2884 27.708 56.4204 27.756 56.5484C27.812 56.6684 27.904 56.7764 28.032 56.8724C28.168 56.9684 28.356 57.0444 28.596 57.1004C28.844 57.1564 29.16 57.1844 29.544 57.1844C29.936 57.1844 30.336 57.1644 30.744 57.1244C31.152 57.0764 31.552 57.0164 31.944 56.9444L31.908 58.1564C31.572 58.1964 31.204 58.2324 30.804 58.2644C30.412 58.3044 29.988 58.3244 29.532 58.3244C28.556 58.3244 27.808 58.1684 27.288 57.8564C26.776 57.5444 26.52 57.0924 26.52 56.5004C26.52 56.2444 26.54 55.9924 26.58 55.7444C26.62 55.4884 26.668 55.2404 26.724 55.0004L27.84 55.1084Z" fill="#E22F61"/>
</svg>
