<svg width="34" height="62" viewBox="0 0 34 62" fill="none" xmlns="http://www.w3.org/2000/svg">
<path d="M9.52599 7.91602H12.298V25.12H9.52599V7.91602ZM2.02399 12.668H4.75199V27.716H2.02399V12.668ZM17.292 12.624H20.042V27.65H17.292V12.624ZM3.36599 23.536H18.524V26.242H3.36599V23.536ZM2.33199 38.456H19.712V56.496H16.83V41.14H5.08199V56.54H2.33199V38.456ZM3.65199 52.03H18.634V54.736H3.65199V52.03Z" fill="#E22F61"/>
<path d="M27.504 8.37988C27.36 8.21988 27.184 8.04388 26.976 7.85188C26.768 7.65188 26.556 7.45588 26.34 7.26388C26.124 7.07188 25.932 6.91588 25.764 6.79588L26.64 6.17188C26.776 6.27588 26.952 6.41988 27.168 6.60388C27.392 6.78788 27.616 6.97987 27.84 7.17987C28.064 7.37987 28.244 7.55588 28.38 7.70788L27.504 8.37988ZM23.928 7.22788C23.968 7.29988 24.012 7.39188 24.06 7.50388C24.116 7.60788 24.172 7.71588 24.228 7.82788C24.284 7.93188 24.332 8.01988 24.372 8.09188C24.612 8.53988 24.864 9.04388 25.128 9.60388C25.4 10.1639 25.652 10.7079 25.884 11.2359C26.036 11.5879 26.196 11.9879 26.364 12.4359C26.54 12.8839 26.712 13.3479 26.88 13.8279C27.048 14.2999 27.204 14.7559 27.348 15.1959C27.5 15.6359 27.628 16.0239 27.732 16.3599L26.424 16.6959C26.304 16.2079 26.16 15.6759 25.992 15.0999C25.824 14.5239 25.64 13.9479 25.44 13.3719C25.24 12.7959 25.028 12.2559 24.804 11.7519C24.628 11.3519 24.456 10.9639 24.288 10.5879C24.12 10.2119 23.956 9.85987 23.796 9.53187C23.644 9.20387 23.492 8.91188 23.34 8.65588C23.26 8.52788 23.16 8.37187 23.04 8.18787C22.92 8.00387 22.808 7.84787 22.704 7.71987L23.928 7.22788ZM21.6 10.7439C21.8 10.6959 22.004 10.6359 22.212 10.5639C22.42 10.4919 22.576 10.4319 22.68 10.3839C23.056 10.2399 23.46 10.0719 23.892 9.87988C24.332 9.67988 24.78 9.47987 25.236 9.27987C25.7 9.07187 26.164 8.87988 26.628 8.70388C27.1 8.52788 27.556 8.38788 27.996 8.28388C28.444 8.17188 28.864 8.11588 29.256 8.11588C29.84 8.11588 30.34 8.21988 30.756 8.42788C31.172 8.63588 31.492 8.91987 31.716 9.27987C31.948 9.63987 32.064 10.0439 32.064 10.4919C32.064 10.9959 31.952 11.4399 31.728 11.8239C31.512 12.2079 31.192 12.5119 30.768 12.7359C30.344 12.9519 29.824 13.0599 29.208 13.0599C28.872 13.0599 28.54 13.0239 28.212 12.9519C27.892 12.8799 27.616 12.8039 27.384 12.7239L27.42 11.5239C27.668 11.6359 27.936 11.7319 28.224 11.8119C28.52 11.8919 28.812 11.9319 29.1 11.9319C29.476 11.9319 29.792 11.8679 30.048 11.7399C30.304 11.6119 30.496 11.4359 30.624 11.2119C30.76 10.9879 30.828 10.7319 30.828 10.4439C30.828 10.2199 30.768 10.0159 30.648 9.83187C30.528 9.63987 30.348 9.48788 30.108 9.37588C29.868 9.25588 29.572 9.19588 29.22 9.19588C28.82 9.19588 28.372 9.26787 27.876 9.41187C27.38 9.55587 26.86 9.74387 26.316 9.97587C25.78 10.1999 25.252 10.4399 24.732 10.6959C24.212 10.9519 23.728 11.1919 23.28 11.4159C22.84 11.6399 22.472 11.8199 22.176 11.9559L21.6 10.7439ZM27.996 18.3999C27.988 18.5119 27.976 18.6359 27.96 18.7719C27.952 18.8999 27.944 19.0479 27.936 19.2159C27.928 19.3519 27.92 19.5479 27.912 19.8039C27.912 20.0599 27.908 20.3439 27.9 20.6559C27.9 20.9599 27.9 21.2679 27.9 21.5799C27.9 21.8839 27.9 22.1639 27.9 22.4199C27.9 22.7879 27.908 23.1879 27.924 23.6199C27.948 24.0439 27.972 24.4639 27.996 24.8799C28.02 25.2959 28.04 25.6799 28.056 26.0319C28.08 26.3839 28.092 26.6719 28.092 26.8959C28.092 27.1999 28.016 27.4839 27.864 27.7479C27.712 28.0119 27.472 28.2239 27.144 28.3839C26.816 28.5519 26.388 28.6359 25.86 28.6359C24.956 28.6359 24.268 28.4719 23.796 28.1439C23.324 27.8239 23.088 27.3639 23.088 26.7639C23.088 26.3799 23.2 26.0439 23.424 25.7559C23.656 25.4679 23.984 25.2439 24.408 25.0839C24.84 24.9159 25.352 24.8319 25.944 24.8319C26.584 24.8319 27.184 24.9039 27.744 25.0479C28.312 25.1919 28.828 25.3759 29.292 25.5999C29.764 25.8239 30.18 26.0599 30.54 26.3079C30.9 26.5479 31.204 26.7639 31.452 26.9559L30.756 28.0239C30.476 27.7679 30.16 27.5079 29.808 27.2439C29.456 26.9799 29.068 26.7399 28.644 26.5239C28.22 26.3079 27.768 26.1359 27.288 26.0079C26.816 25.8799 26.316 25.8159 25.788 25.8159C25.276 25.8159 24.884 25.9039 24.612 26.0799C24.348 26.2479 24.216 26.4519 24.216 26.6919C24.216 26.8599 24.268 27.0119 24.372 27.1479C24.484 27.2759 24.648 27.3799 24.864 27.4599C25.08 27.5319 25.36 27.5679 25.704 27.5679C25.928 27.5679 26.128 27.5399 26.304 27.4839C26.488 27.4279 26.632 27.3319 26.736 27.1959C26.84 27.0519 26.892 26.8519 26.892 26.5959C26.892 26.3879 26.884 26.1079 26.868 25.7559C26.852 25.4039 26.836 25.0239 26.82 24.6159C26.812 24.1999 26.8 23.7999 26.784 23.4159C26.768 23.0239 26.76 22.6919 26.76 22.4199C26.76 22.1399 26.76 21.8519 26.76 21.5559C26.768 21.2519 26.772 20.9559 26.772 20.6679C26.772 20.3719 26.772 20.0959 26.772 19.8399C26.772 19.5759 26.772 19.3479 26.772 19.1559C26.772 19.0519 26.768 18.9239 26.76 18.7719C26.752 18.6119 26.736 18.4879 26.712 18.3999H27.996ZM23.244 19.6239C23.444 19.6559 23.676 19.6879 23.94 19.7199C24.212 19.7519 24.488 19.7839 24.768 19.8159C25.056 19.8399 25.328 19.8599 25.584 19.8759C25.84 19.8839 26.064 19.8879 26.256 19.8879C27.048 19.8879 27.844 19.8599 28.644 19.8039C29.444 19.7479 30.252 19.6519 31.068 19.5159V20.6199C30.636 20.6679 30.156 20.7159 29.628 20.7639C29.1 20.8119 28.548 20.8519 27.972 20.8839C27.404 20.9159 26.836 20.9319 26.268 20.9319C26.004 20.9319 25.684 20.9199 25.308 20.8959C24.94 20.8719 24.572 20.8439 24.204 20.8119C23.836 20.7799 23.52 20.7479 23.256 20.7159L23.244 19.6239ZM23.184 22.1919C23.384 22.2239 23.616 22.2559 23.88 22.2879C24.144 22.3119 24.416 22.3319 24.696 22.3479C24.976 22.3639 25.24 22.3799 25.488 22.3959C25.744 22.4039 25.964 22.4079 26.148 22.4079C26.796 22.4079 27.404 22.3959 27.972 22.3719C28.548 22.3399 29.1 22.2999 29.628 22.2519C30.164 22.1959 30.684 22.1359 31.188 22.0719L31.176 23.1879C30.768 23.2439 30.368 23.2919 29.976 23.3319C29.584 23.3639 29.188 23.3919 28.788 23.4159C28.396 23.4399 27.98 23.4559 27.54 23.4639C27.108 23.4719 26.636 23.4759 26.124 23.4759C25.876 23.4759 25.576 23.4719 25.224 23.4639C24.872 23.4479 24.516 23.4279 24.156 23.4039C23.796 23.3799 23.476 23.3519 23.196 23.3199L23.184 22.1919Z" fill="#E22F61"/>
<path d="M28.752 39.1241C28.856 39.2761 28.972 39.4641 29.1 39.6881C29.228 39.9041 29.352 40.1241 29.472 40.3481C29.6 40.5641 29.704 40.7441 29.784 40.8881L28.968 41.2361C28.888 41.0681 28.788 40.8761 28.668 40.6601C28.556 40.4441 28.44 40.2281 28.32 40.0121C28.2 39.7961 28.084 39.6081 27.972 39.4481L28.752 39.1241ZM30.18 38.5721C30.284 38.7081 30.4 38.8841 30.528 39.1001C30.656 39.3161 30.78 39.5321 30.9 39.7481C31.028 39.9641 31.136 40.1521 31.224 40.3121L30.42 40.6601C30.332 40.4921 30.228 40.3001 30.108 40.0841C29.988 39.8681 29.864 39.6561 29.736 39.4481C29.616 39.2401 29.5 39.0601 29.388 38.9081L30.18 38.5721ZM29.436 37.2401C29.284 37.3521 29.12 37.4801 28.944 37.6241C28.776 37.7601 28.628 37.8801 28.5 37.9841C28.308 38.1521 28.064 38.3521 27.768 38.5841C27.48 38.8161 27.176 39.0601 26.856 39.3161C26.544 39.5721 26.24 39.8201 25.944 40.0601C25.648 40.2921 25.396 40.5001 25.188 40.6841C24.964 40.8761 24.812 41.0361 24.732 41.1641C24.652 41.2921 24.652 41.4201 24.732 41.5481C24.82 41.6681 24.984 41.8321 25.224 42.0401C25.424 42.2081 25.664 42.4081 25.944 42.6401C26.232 42.8721 26.536 43.1241 26.856 43.3961C27.184 43.6601 27.516 43.9361 27.852 44.2241C28.188 44.5121 28.512 44.7961 28.824 45.0761C29.136 45.3561 29.416 45.6201 29.664 45.8681L28.584 46.8641C28.44 46.7041 28.288 46.5401 28.128 46.3721C27.976 46.2121 27.82 46.0521 27.66 45.8921C27.46 45.6841 27.208 45.4401 26.904 45.1601C26.608 44.8801 26.284 44.5881 25.932 44.2841C25.58 43.9801 25.232 43.6841 24.888 43.3961C24.552 43.1001 24.244 42.8361 23.964 42.6041C23.572 42.2761 23.32 41.9841 23.208 41.7281C23.104 41.4721 23.124 41.2161 23.268 40.9601C23.412 40.7041 23.676 40.4201 24.06 40.1081C24.284 39.9161 24.552 39.6961 24.864 39.4481C25.176 39.1921 25.496 38.9241 25.824 38.6441C26.16 38.3641 26.476 38.0961 26.772 37.8401C27.076 37.5761 27.328 37.3441 27.528 37.1441C27.672 37.0001 27.82 36.8481 27.972 36.6881C28.124 36.5201 28.24 36.3721 28.32 36.2441L29.436 37.2401ZM26.232 48.5321C26.176 48.7081 26.128 48.8921 26.088 49.0841C26.056 49.2761 26.02 49.4601 25.98 49.6361C25.948 49.8281 25.904 50.0601 25.848 50.3321C25.792 50.5961 25.728 50.8841 25.656 51.1961C25.592 51.5001 25.524 51.8081 25.452 52.1201C25.38 52.4321 25.304 52.7321 25.224 53.0201C25.144 53.3001 25.064 53.5521 24.984 53.7761C25.496 53.4561 26.012 53.2281 26.532 53.0921C27.052 52.9481 27.604 52.8761 28.188 52.8761C28.836 52.8761 29.388 52.9801 29.844 53.1881C30.308 53.3881 30.668 53.6721 30.924 54.0401C31.18 54.4081 31.308 54.8401 31.308 55.3361C31.308 55.9761 31.152 56.5201 30.84 56.9681C30.536 57.4161 30.104 57.7641 29.544 58.0121C28.984 58.2681 28.316 58.4321 27.54 58.5041C26.772 58.5761 25.916 58.5641 24.972 58.4681L24.648 57.2561C25.328 57.3521 25.988 57.3961 26.628 57.3881C27.276 57.3801 27.856 57.3081 28.368 57.1721C28.88 57.0281 29.288 56.8081 29.592 56.5121C29.896 56.2161 30.048 55.8321 30.048 55.3601C30.048 54.9521 29.876 54.6081 29.532 54.3281C29.196 54.0401 28.704 53.8961 28.056 53.8961C27.352 53.8961 26.696 54.0161 26.088 54.2561C25.48 54.4961 24.984 54.8521 24.6 55.3241C24.536 55.4121 24.476 55.5001 24.42 55.5881C24.364 55.6681 24.308 55.7601 24.252 55.8641L23.124 55.4681C23.356 55.0201 23.568 54.5201 23.76 53.9681C23.952 53.4161 24.12 52.8601 24.264 52.3001C24.416 51.7321 24.54 51.2081 24.636 50.7281C24.732 50.2481 24.796 49.8561 24.828 49.5521C24.86 49.3361 24.88 49.1481 24.888 48.9881C24.904 48.8201 24.904 48.6481 24.888 48.4721L26.232 48.5321ZM22.308 50.0081C22.652 50.0641 23.04 50.1121 23.472 50.1521C23.904 50.1921 24.304 50.2121 24.672 50.2121C25.056 50.2121 25.48 50.2001 25.944 50.1761C26.416 50.1521 26.908 50.1161 27.42 50.0681C27.932 50.0201 28.444 49.9601 28.956 49.8881C29.476 49.8081 29.976 49.7161 30.456 49.6121L30.48 50.7641C30.072 50.8281 29.62 50.8921 29.124 50.9561C28.628 51.0201 28.12 51.0801 27.6 51.1361C27.08 51.1841 26.568 51.2241 26.064 51.2561C25.56 51.2801 25.1 51.2921 24.684 51.2921C24.252 51.2921 23.836 51.2841 23.436 51.2681C23.036 51.2441 22.66 51.2161 22.308 51.1841V50.0081Z" fill="#E22F61"/>
</svg>
