<svg width="34" height="62" viewBox="0 0 34 62" fill="none" xmlns="http://www.w3.org/2000/svg">
<path d="M0.99 10.578H21.01V12.976H0.99V10.578ZM3.608 18.058H9.306V20.016H3.608V18.058ZM3.608 21.446H9.306V23.382H3.608V21.446ZM12.826 14.714H15.246V23.734H12.826V14.714ZM8.404 14.472H10.934V25.384C10.934 25.9267 10.868 26.3667 10.736 26.704C10.604 27.0413 10.3547 27.3053 9.988 27.496C9.60667 27.6867 9.15933 27.804 8.646 27.848C8.14733 27.892 7.56067 27.914 6.886 27.914C6.81267 27.5767 6.69533 27.188 6.534 26.748C6.38733 26.3227 6.226 25.9633 6.05 25.67C6.446 25.6847 6.842 25.6993 7.238 25.714C7.634 25.714 7.898 25.7067 8.03 25.692C8.162 25.692 8.25733 25.6627 8.316 25.604C8.37467 25.5453 8.404 25.4573 8.404 25.34V14.472ZM17.226 14.098H19.822V25.076C19.822 25.7213 19.7413 26.22 19.58 26.572C19.4333 26.9387 19.1473 27.232 18.722 27.452C18.2967 27.6427 17.7833 27.7673 17.182 27.826C16.5807 27.8847 15.8767 27.9067 15.07 27.892C15.0113 27.54 14.8867 27.122 14.696 26.638C14.52 26.154 14.3293 25.7433 14.124 25.406C14.696 25.4353 15.2313 25.45 15.73 25.45C16.2433 25.45 16.588 25.4427 16.764 25.428C16.94 25.428 17.0573 25.406 17.116 25.362C17.1893 25.3033 17.226 25.2007 17.226 25.054V14.098ZM4.026 8.158L6.534 7.278C6.93 7.718 7.326 8.202 7.722 8.73C8.118 9.258 8.41133 9.73467 8.602 10.16L5.918 11.084C5.77133 10.688 5.51467 10.2113 5.148 9.654C4.796 9.09667 4.422 8.598 4.026 8.158ZM15.334 7.234L18.194 8.092C17.754 8.796 17.2993 9.48533 16.83 10.16C16.3753 10.82 15.95 11.392 15.554 11.876L13.178 11.062C13.442 10.71 13.706 10.314 13.97 9.874C14.234 9.434 14.4833 8.98667 14.718 8.532C14.9673 8.06267 15.1727 7.63 15.334 7.234ZM2.2 14.472H9.13V16.694H4.686V27.848H2.2V14.472ZM3.3 52.712H18.678V55.374H3.3V52.712ZM3.3 45.166H18.788V47.806H3.3V45.166ZM1.804 37.774H20.24V56.738H17.49V40.326H4.444V56.738H1.804V37.774ZM9.504 38.962H12.188V54.098H9.504V38.962Z" fill="black"/>
<path d="M27.996 6.4C27.988 6.512 27.976 6.636 27.96 6.772C27.952 6.9 27.944 7.048 27.936 7.216C27.928 7.352 27.92 7.548 27.912 7.804C27.912 8.06 27.908 8.344 27.9 8.656C27.9 8.96 27.9 9.268 27.9 9.58C27.9 9.884 27.9 10.164 27.9 10.42C27.9 10.788 27.908 11.188 27.924 11.62C27.948 12.044 27.972 12.464 27.996 12.88C28.02 13.296 28.04 13.68 28.056 14.032C28.08 14.384 28.092 14.672 28.092 14.896C28.092 15.2 28.016 15.484 27.864 15.748C27.712 16.012 27.472 16.224 27.144 16.384C26.816 16.552 26.388 16.636 25.86 16.636C24.956 16.636 24.268 16.472 23.796 16.144C23.324 15.824 23.088 15.364 23.088 14.764C23.088 14.38 23.2 14.044 23.424 13.756C23.656 13.468 23.984 13.244 24.408 13.084C24.84 12.916 25.352 12.832 25.944 12.832C26.584 12.832 27.184 12.904 27.744 13.048C28.312 13.192 28.828 13.376 29.292 13.6C29.764 13.824 30.18 14.06 30.54 14.308C30.9 14.548 31.204 14.764 31.452 14.956L30.756 16.024C30.476 15.768 30.16 15.508 29.808 15.244C29.456 14.98 29.068 14.74 28.644 14.524C28.22 14.308 27.768 14.136 27.288 14.008C26.816 13.88 26.316 13.816 25.788 13.816C25.276 13.816 24.884 13.904 24.612 14.08C24.348 14.248 24.216 14.452 24.216 14.692C24.216 14.86 24.268 15.012 24.372 15.148C24.484 15.276 24.648 15.38 24.864 15.46C25.08 15.532 25.36 15.568 25.704 15.568C25.928 15.568 26.128 15.54 26.304 15.484C26.488 15.428 26.632 15.332 26.736 15.196C26.84 15.052 26.892 14.852 26.892 14.596C26.892 14.388 26.884 14.108 26.868 13.756C26.852 13.404 26.836 13.024 26.82 12.616C26.812 12.2 26.8 11.8 26.784 11.416C26.768 11.024 26.76 10.692 26.76 10.42C26.76 10.14 26.76 9.852 26.76 9.556C26.768 9.252 26.772 8.956 26.772 8.668C26.772 8.372 26.772 8.096 26.772 7.84C26.772 7.576 26.772 7.348 26.772 7.156C26.772 7.052 26.768 6.924 26.76 6.772C26.752 6.612 26.736 6.488 26.712 6.4H27.996ZM23.244 7.624C23.444 7.656 23.676 7.688 23.94 7.72C24.212 7.752 24.488 7.784 24.768 7.816C25.056 7.84 25.328 7.86 25.584 7.876C25.84 7.884 26.064 7.888 26.256 7.888C27.048 7.888 27.844 7.86 28.644 7.804C29.444 7.748 30.252 7.652 31.068 7.516V8.62C30.636 8.668 30.156 8.716 29.628 8.764C29.1 8.812 28.548 8.852 27.972 8.884C27.404 8.916 26.836 8.932 26.268 8.932C26.004 8.932 25.684 8.92 25.308 8.896C24.94 8.872 24.572 8.844 24.204 8.812C23.836 8.78 23.52 8.748 23.256 8.716L23.244 7.624ZM23.184 10.192C23.384 10.224 23.616 10.256 23.88 10.288C24.144 10.312 24.416 10.332 24.696 10.348C24.976 10.364 25.24 10.38 25.488 10.396C25.744 10.404 25.964 10.408 26.148 10.408C26.796 10.408 27.404 10.396 27.972 10.372C28.548 10.34 29.1 10.3 29.628 10.252C30.164 10.196 30.684 10.136 31.188 10.072L31.176 11.188C30.768 11.244 30.368 11.292 29.976 11.332C29.584 11.364 29.188 11.392 28.788 11.416C28.396 11.44 27.98 11.456 27.54 11.464C27.108 11.472 26.636 11.476 26.124 11.476C25.876 11.476 25.576 11.472 25.224 11.464C24.872 11.448 24.516 11.428 24.156 11.404C23.796 11.38 23.476 11.352 23.196 11.32L23.184 10.192ZM24.744 18.424C25.072 18.488 25.448 18.552 25.872 18.616C26.304 18.68 26.744 18.74 27.192 18.796C27.648 18.852 28.08 18.9 28.488 18.94C28.904 18.98 29.26 19.008 29.556 19.024L29.4 20.14C29.088 20.116 28.728 20.084 28.32 20.044C27.92 19.996 27.5 19.944 27.06 19.888C26.62 19.832 26.184 19.772 25.752 19.708C25.32 19.644 24.92 19.58 24.552 19.516L24.744 18.424ZM29.868 22.012C29.74 22.108 29.612 22.208 29.484 22.312C29.356 22.416 29.248 22.508 29.16 22.588C29.032 22.7 28.868 22.848 28.668 23.032C28.468 23.208 28.26 23.4 28.044 23.608C27.828 23.808 27.628 23.996 27.444 24.172C27.26 24.34 27.124 24.476 27.036 24.58C27.092 24.572 27.164 24.576 27.252 24.592C27.348 24.6 27.428 24.616 27.492 24.64C27.7 24.672 27.868 24.76 27.996 24.904C28.132 25.048 28.24 25.24 28.32 25.48C28.36 25.584 28.4 25.712 28.44 25.864C28.488 26.008 28.532 26.156 28.572 26.308C28.62 26.452 28.664 26.584 28.704 26.704C28.768 26.912 28.872 27.068 29.016 27.172C29.168 27.276 29.38 27.328 29.652 27.328C29.94 27.328 30.224 27.32 30.504 27.304C30.784 27.28 31.048 27.248 31.296 27.208C31.544 27.168 31.764 27.128 31.956 27.088L31.884 28.348C31.716 28.372 31.492 28.396 31.212 28.42C30.932 28.452 30.644 28.476 30.348 28.492C30.052 28.516 29.8 28.528 29.592 28.528C29.072 28.528 28.656 28.452 28.344 28.3C28.032 28.156 27.808 27.888 27.672 27.496C27.632 27.376 27.588 27.236 27.54 27.076C27.492 26.908 27.444 26.744 27.396 26.584C27.356 26.416 27.32 26.28 27.288 26.176C27.216 25.96 27.12 25.804 27 25.708C26.88 25.604 26.744 25.552 26.592 25.552C26.448 25.552 26.304 25.596 26.16 25.684C26.024 25.764 25.888 25.872 25.752 26.008C25.664 26.096 25.552 26.212 25.416 26.356C25.28 26.492 25.128 26.652 24.96 26.836C24.8 27.012 24.632 27.2 24.456 27.4C24.28 27.592 24.104 27.792 23.928 28C23.752 28.2 23.592 28.396 23.448 28.588L22.308 27.796C22.396 27.716 22.5 27.624 22.62 27.52C22.748 27.416 22.88 27.3 23.016 27.172C23.104 27.076 23.252 26.924 23.46 26.716C23.668 26.508 23.912 26.264 24.192 25.984C24.472 25.704 24.768 25.404 25.08 25.084C25.4 24.764 25.716 24.448 26.028 24.136C26.348 23.824 26.644 23.532 26.916 23.26C27.188 22.98 27.42 22.74 27.612 22.54C27.436 22.548 27.228 22.56 26.988 22.576C26.748 22.592 26.496 22.612 26.232 22.636C25.976 22.652 25.72 22.672 25.464 22.696C25.216 22.72 24.984 22.74 24.768 22.756C24.56 22.772 24.38 22.788 24.228 22.804C24.028 22.812 23.844 22.828 23.676 22.852C23.516 22.876 23.368 22.9 23.232 22.924L23.124 21.604C23.26 21.612 23.42 21.62 23.604 21.628C23.796 21.636 23.996 21.64 24.204 21.64C24.332 21.632 24.532 21.624 24.804 21.616C25.076 21.6 25.384 21.584 25.728 21.568C26.08 21.544 26.432 21.52 26.784 21.496C27.144 21.472 27.48 21.448 27.792 21.424C28.104 21.4 28.356 21.376 28.548 21.352C28.652 21.336 28.764 21.316 28.884 21.292C29.012 21.268 29.104 21.244 29.16 21.22L29.868 22.012Z" fill="black"/>
<path d="M26.112 42.652C26.072 42.796 26.028 42.976 25.98 43.192C25.94 43.4 25.908 43.564 25.884 43.684C25.828 43.964 25.76 44.3 25.68 44.692C25.6 45.076 25.512 45.48 25.416 45.904C25.32 46.328 25.22 46.74 25.116 47.14C25.004 47.564 24.872 48.024 24.72 48.52C24.576 49.016 24.416 49.52 24.24 50.032C24.072 50.536 23.9 51.016 23.724 51.472C23.556 51.92 23.388 52.316 23.22 52.66L21.9 52.216C22.084 51.912 22.272 51.544 22.464 51.112C22.656 50.672 22.844 50.204 23.028 49.708C23.212 49.204 23.38 48.704 23.532 48.208C23.692 47.712 23.828 47.256 23.94 46.84C24.02 46.56 24.096 46.268 24.168 45.964C24.24 45.652 24.308 45.352 24.372 45.064C24.436 44.776 24.488 44.508 24.528 44.26C24.568 44.004 24.6 43.796 24.624 43.636C24.656 43.436 24.672 43.236 24.672 43.036C24.68 42.836 24.68 42.672 24.672 42.544L26.112 42.652ZM23.28 44.572C23.744 44.572 24.236 44.548 24.756 44.5C25.276 44.452 25.804 44.384 26.34 44.296C26.884 44.208 27.408 44.104 27.912 43.984V45.16C27.416 45.272 26.892 45.368 26.34 45.448C25.788 45.528 25.248 45.592 24.72 45.64C24.192 45.68 23.708 45.7 23.268 45.7C22.988 45.7 22.736 45.696 22.512 45.688C22.288 45.68 22.064 45.668 21.84 45.652L21.816 44.476C22.112 44.508 22.372 44.532 22.596 44.548C22.82 44.564 23.048 44.572 23.28 44.572ZM27.06 46.3C27.388 46.268 27.748 46.244 28.14 46.228C28.532 46.204 28.92 46.192 29.304 46.192C29.656 46.192 30.008 46.2 30.36 46.216C30.72 46.224 31.068 46.248 31.404 46.288L31.368 47.44C31.064 47.4 30.736 47.368 30.384 47.344C30.04 47.312 29.688 47.296 29.328 47.296C28.936 47.296 28.552 47.308 28.176 47.332C27.808 47.348 27.436 47.376 27.06 47.416V46.3ZM27.48 49.264C27.44 49.448 27.404 49.632 27.372 49.816C27.34 49.992 27.324 50.156 27.324 50.308C27.324 50.444 27.348 50.576 27.396 50.704C27.452 50.824 27.544 50.932 27.672 51.028C27.808 51.124 27.996 51.2 28.236 51.256C28.484 51.312 28.8 51.34 29.184 51.34C29.576 51.34 29.976 51.32 30.384 51.28C30.792 51.232 31.192 51.172 31.584 51.1L31.548 52.312C31.212 52.352 30.844 52.388 30.444 52.42C30.052 52.46 29.628 52.48 29.172 52.48C28.196 52.48 27.448 52.324 26.928 52.012C26.416 51.7 26.16 51.248 26.16 50.656C26.16 50.4 26.18 50.148 26.22 49.9C26.26 49.644 26.304 49.396 26.352 49.156L27.48 49.264ZM30.108 43.012C30.212 43.156 30.324 43.328 30.444 43.528C30.564 43.72 30.68 43.92 30.792 44.128C30.904 44.328 31 44.504 31.08 44.656L30.288 45.004C30.216 44.836 30.124 44.656 30.012 44.464C29.9 44.264 29.784 44.064 29.664 43.864C29.552 43.664 29.44 43.488 29.328 43.336L30.108 43.012ZM31.476 42.496C31.58 42.648 31.692 42.824 31.812 43.024C31.94 43.224 32.064 43.424 32.184 43.624C32.304 43.824 32.4 43.996 32.472 44.14L31.692 44.488C31.564 44.224 31.408 43.936 31.224 43.624C31.04 43.312 30.868 43.044 30.708 42.82L31.476 42.496Z" fill="black"/>
</svg>
