<svg width="34" height="62" viewBox="0 0 34 62" fill="none" xmlns="http://www.w3.org/2000/svg">
<path d="M0.98999 10.5784H21.01V12.9764H0.98999V10.5784ZM3.60799 18.0584H9.30599V20.0164H3.60799V18.0584ZM3.60799 21.4464H9.30599V23.3824H3.60799V21.4464ZM12.826 14.7144H15.246V23.7344H12.826V14.7144ZM8.40399 14.4724H10.934V25.3844C10.934 25.9271 10.868 26.3671 10.736 26.7044C10.604 27.0417 10.3547 27.3057 9.98799 27.4964C9.60666 27.6871 9.15932 27.8044 8.64599 27.8484C8.14732 27.8924 7.56066 27.9144 6.88599 27.9144C6.81266 27.5771 6.69532 27.1884 6.53399 26.7484C6.38732 26.3231 6.22599 25.9637 6.04999 25.6704C6.44599 25.6851 6.84199 25.6997 7.23799 25.7144C7.63399 25.7144 7.89799 25.7071 8.02999 25.6924C8.16199 25.6924 8.25732 25.6631 8.31599 25.6044C8.37466 25.5457 8.40399 25.4577 8.40399 25.3404V14.4724ZM17.226 14.0984H19.822V25.0764C19.822 25.7217 19.7413 26.2204 19.58 26.5724C19.4333 26.9391 19.1473 27.2324 18.722 27.4524C18.2967 27.6431 17.7833 27.7677 17.182 27.8264C16.5807 27.8851 15.8767 27.9071 15.07 27.8924C15.0113 27.5404 14.8867 27.1224 14.696 26.6384C14.52 26.1544 14.3293 25.7437 14.124 25.4064C14.696 25.4357 15.2313 25.4504 15.73 25.4504C16.2433 25.4504 16.588 25.4431 16.764 25.4284C16.94 25.4284 17.0573 25.4064 17.116 25.3624C17.1893 25.3037 17.226 25.2011 17.226 25.0544V14.0984ZM4.02599 8.15837L6.53399 7.27837C6.92999 7.71837 7.32599 8.20237 7.72199 8.73037C8.11799 9.25837 8.41132 9.73504 8.60199 10.1604L5.91799 11.0844C5.77132 10.6884 5.51466 10.2117 5.14799 9.65438C4.79599 9.09705 4.42199 8.59837 4.02599 8.15837ZM15.334 7.23438L18.194 8.09237C17.754 8.79637 17.2993 9.4857 16.83 10.1604C16.3753 10.8204 15.95 11.3924 15.554 11.8764L13.178 11.0624C13.442 10.7104 13.706 10.3144 13.97 9.87437C14.234 9.43437 14.4833 8.98704 14.718 8.53237C14.9673 8.06304 15.1727 7.63037 15.334 7.23438ZM2.19999 14.4724H9.12999V16.6944H4.68599V27.8484H2.19999V14.4724ZM3.29999 52.7124H18.678V55.3744H3.29999V52.7124ZM3.29999 45.1664H18.788V47.8064H3.29999V45.1664ZM1.80399 37.7744H20.24V56.7384H17.49V40.3264H4.44399V56.7384H1.80399V37.7744ZM9.50399 38.9624H12.188V54.0984H9.50399V38.9624Z" fill="#E22F61"/>
<path d="M27.996 6.40039C27.988 6.51239 27.976 6.63639 27.96 6.77239C27.952 6.90039 27.944 7.04839 27.936 7.21639C27.928 7.35239 27.92 7.54839 27.912 7.80439C27.912 8.06039 27.908 8.34439 27.9 8.65639C27.9 8.96039 27.9 9.26839 27.9 9.58039C27.9 9.88439 27.9 10.1644 27.9 10.4204C27.9 10.7884 27.908 11.1884 27.924 11.6204C27.948 12.0444 27.972 12.4644 27.996 12.8804C28.02 13.2964 28.04 13.6804 28.056 14.0324C28.08 14.3844 28.092 14.6724 28.092 14.8964C28.092 15.2004 28.016 15.4844 27.864 15.7484C27.712 16.0124 27.472 16.2244 27.144 16.3844C26.816 16.5524 26.388 16.6364 25.86 16.6364C24.956 16.6364 24.268 16.4724 23.796 16.1444C23.324 15.8244 23.088 15.3644 23.088 14.7644C23.088 14.3804 23.2 14.0444 23.424 13.7564C23.656 13.4684 23.984 13.2444 24.408 13.0844C24.84 12.9164 25.352 12.8324 25.944 12.8324C26.584 12.8324 27.184 12.9044 27.744 13.0484C28.312 13.1924 28.828 13.3764 29.292 13.6004C29.764 13.8244 30.18 14.0604 30.54 14.3084C30.9 14.5484 31.204 14.7644 31.452 14.9564L30.756 16.0244C30.476 15.7684 30.16 15.5084 29.808 15.2444C29.456 14.9804 29.068 14.7404 28.644 14.5244C28.22 14.3084 27.768 14.1364 27.288 14.0084C26.816 13.8804 26.316 13.8164 25.788 13.8164C25.276 13.8164 24.884 13.9044 24.612 14.0804C24.348 14.2484 24.216 14.4524 24.216 14.6924C24.216 14.8604 24.268 15.0124 24.372 15.1484C24.484 15.2764 24.648 15.3804 24.864 15.4604C25.08 15.5324 25.36 15.5684 25.704 15.5684C25.928 15.5684 26.128 15.5404 26.304 15.4844C26.488 15.4284 26.632 15.3324 26.736 15.1964C26.84 15.0524 26.892 14.8524 26.892 14.5964C26.892 14.3884 26.884 14.1084 26.868 13.7564C26.852 13.4044 26.836 13.0244 26.82 12.6164C26.812 12.2004 26.8 11.8004 26.784 11.4164C26.768 11.0244 26.76 10.6924 26.76 10.4204C26.76 10.1404 26.76 9.85239 26.76 9.55639C26.768 9.25239 26.772 8.95639 26.772 8.66839C26.772 8.37239 26.772 8.09639 26.772 7.84039C26.772 7.57639 26.772 7.34839 26.772 7.15639C26.772 7.05239 26.768 6.92439 26.76 6.77239C26.752 6.61239 26.736 6.48839 26.712 6.40039H27.996ZM23.244 7.62439C23.444 7.65639 23.676 7.68839 23.94 7.72039C24.212 7.75239 24.488 7.78439 24.768 7.81639C25.056 7.84039 25.328 7.86039 25.584 7.87639C25.84 7.88439 26.064 7.88839 26.256 7.88839C27.048 7.88839 27.844 7.86039 28.644 7.80439C29.444 7.74839 30.252 7.65239 31.068 7.51639V8.62039C30.636 8.66839 30.156 8.71639 29.628 8.76439C29.1 8.81239 28.548 8.85239 27.972 8.88439C27.404 8.91639 26.836 8.93239 26.268 8.93239C26.004 8.93239 25.684 8.92039 25.308 8.89639C24.94 8.87239 24.572 8.84439 24.204 8.81239C23.836 8.78039 23.52 8.74839 23.256 8.71639L23.244 7.62439ZM23.184 10.1924C23.384 10.2244 23.616 10.2564 23.88 10.2884C24.144 10.3124 24.416 10.3324 24.696 10.3484C24.976 10.3644 25.24 10.3804 25.488 10.3964C25.744 10.4044 25.964 10.4084 26.148 10.4084C26.796 10.4084 27.404 10.3964 27.972 10.3724C28.548 10.3404 29.1 10.3004 29.628 10.2524C30.164 10.1964 30.684 10.1364 31.188 10.0724L31.176 11.1884C30.768 11.2444 30.368 11.2924 29.976 11.3324C29.584 11.3644 29.188 11.3924 28.788 11.4164C28.396 11.4404 27.98 11.4564 27.54 11.4644C27.108 11.4724 26.636 11.4764 26.124 11.4764C25.876 11.4764 25.576 11.4724 25.224 11.4644C24.872 11.4484 24.516 11.4284 24.156 11.4044C23.796 11.3804 23.476 11.3524 23.196 11.3204L23.184 10.1924ZM24.744 18.4244C25.072 18.4884 25.448 18.5524 25.872 18.6164C26.304 18.6804 26.744 18.7404 27.192 18.7964C27.648 18.8524 28.08 18.9004 28.488 18.9404C28.904 18.9804 29.26 19.0084 29.556 19.0244L29.4 20.1404C29.088 20.1164 28.728 20.0844 28.32 20.0444C27.92 19.9964 27.5 19.9444 27.06 19.8884C26.62 19.8324 26.184 19.7724 25.752 19.7084C25.32 19.6444 24.92 19.5804 24.552 19.5164L24.744 18.4244ZM29.868 22.0124C29.74 22.1084 29.612 22.2084 29.484 22.3124C29.356 22.4164 29.248 22.5084 29.16 22.5884C29.032 22.7004 28.868 22.8484 28.668 23.0324C28.468 23.2084 28.26 23.4004 28.044 23.6084C27.828 23.8084 27.628 23.9964 27.444 24.1724C27.26 24.3404 27.124 24.4764 27.036 24.5804C27.092 24.5724 27.164 24.5764 27.252 24.5924C27.348 24.6004 27.428 24.6164 27.492 24.6404C27.7 24.6724 27.868 24.7604 27.996 24.9044C28.132 25.0484 28.24 25.2404 28.32 25.4804C28.36 25.5844 28.4 25.7124 28.44 25.8644C28.488 26.0084 28.532 26.1564 28.572 26.3084C28.62 26.4524 28.664 26.5844 28.704 26.7044C28.768 26.9124 28.872 27.0684 29.016 27.1724C29.168 27.2764 29.38 27.3284 29.652 27.3284C29.94 27.3284 30.224 27.3204 30.504 27.3044C30.784 27.2804 31.048 27.2484 31.296 27.2084C31.544 27.1684 31.764 27.1284 31.956 27.0884L31.884 28.3484C31.716 28.3724 31.492 28.3964 31.212 28.4204C30.932 28.4524 30.644 28.4764 30.348 28.4924C30.052 28.5164 29.8 28.5284 29.592 28.5284C29.072 28.5284 28.656 28.4524 28.344 28.3004C28.032 28.1564 27.808 27.8884 27.672 27.4964C27.632 27.3764 27.588 27.2364 27.54 27.0764C27.492 26.9084 27.444 26.7444 27.396 26.5844C27.356 26.4164 27.32 26.2804 27.288 26.1764C27.216 25.9604 27.12 25.8044 27 25.7084C26.88 25.6044 26.744 25.5524 26.592 25.5524C26.448 25.5524 26.304 25.5964 26.16 25.6844C26.024 25.7644 25.888 25.8724 25.752 26.0084C25.664 26.0964 25.552 26.2124 25.416 26.3564C25.28 26.4924 25.128 26.6524 24.96 26.8364C24.8 27.0124 24.632 27.2004 24.456 27.4004C24.28 27.5924 24.104 27.7924 23.928 28.0004C23.752 28.2004 23.592 28.3964 23.448 28.5884L22.308 27.7964C22.396 27.7164 22.5 27.6244 22.62 27.5204C22.748 27.4164 22.88 27.3004 23.016 27.1724C23.104 27.0764 23.252 26.9244 23.46 26.7164C23.668 26.5084 23.912 26.2644 24.192 25.9844C24.472 25.7044 24.768 25.4044 25.08 25.0844C25.4 24.7644 25.716 24.4484 26.028 24.1364C26.348 23.8244 26.644 23.5324 26.916 23.2604C27.188 22.9804 27.42 22.7404 27.612 22.5404C27.436 22.5484 27.228 22.5604 26.988 22.5764C26.748 22.5924 26.496 22.6124 26.232 22.6364C25.976 22.6524 25.72 22.6724 25.464 22.6964C25.216 22.7204 24.984 22.7404 24.768 22.7564C24.56 22.7724 24.38 22.7884 24.228 22.8044C24.028 22.8124 23.844 22.8284 23.676 22.8524C23.516 22.8764 23.368 22.9004 23.232 22.9244L23.124 21.6044C23.26 21.6124 23.42 21.6204 23.604 21.6284C23.796 21.6364 23.996 21.6404 24.204 21.6404C24.332 21.6324 24.532 21.6244 24.804 21.6164C25.076 21.6004 25.384 21.5844 25.728 21.5684C26.08 21.5444 26.432 21.5204 26.784 21.4964C27.144 21.4724 27.48 21.4484 27.792 21.4244C28.104 21.4004 28.356 21.3764 28.548 21.3524C28.652 21.3364 28.764 21.3164 28.884 21.2924C29.012 21.2684 29.104 21.2444 29.16 21.2204L29.868 22.0124Z" fill="#E22F61"/>
<path d="M26.112 42.6521C26.072 42.7961 26.028 42.9761 25.98 43.1921C25.94 43.4001 25.908 43.5641 25.884 43.6841C25.828 43.9641 25.76 44.3001 25.68 44.6921C25.6 45.0761 25.512 45.4801 25.416 45.9041C25.32 46.3281 25.22 46.7401 25.116 47.1401C25.004 47.5641 24.872 48.0241 24.72 48.5201C24.576 49.0161 24.416 49.5201 24.24 50.0321C24.072 50.5361 23.9 51.0161 23.724 51.4721C23.556 51.9201 23.388 52.3161 23.22 52.6601L21.9 52.2161C22.084 51.9121 22.272 51.5441 22.464 51.1121C22.656 50.6721 22.844 50.2041 23.028 49.7081C23.212 49.2041 23.38 48.7041 23.532 48.2081C23.692 47.7121 23.828 47.2561 23.94 46.8401C24.02 46.5601 24.096 46.2681 24.168 45.9641C24.24 45.6521 24.308 45.3521 24.372 45.0641C24.436 44.7761 24.488 44.5081 24.528 44.2601C24.568 44.0041 24.6 43.7961 24.624 43.6361C24.656 43.4361 24.672 43.2361 24.672 43.0361C24.68 42.8361 24.68 42.6721 24.672 42.5441L26.112 42.6521ZM23.28 44.5721C23.744 44.5721 24.236 44.5481 24.756 44.5001C25.276 44.4521 25.804 44.3841 26.34 44.2961C26.884 44.2081 27.408 44.1041 27.912 43.9841V45.1601C27.416 45.2721 26.892 45.3681 26.34 45.4481C25.788 45.5281 25.248 45.5921 24.72 45.6401C24.192 45.6801 23.708 45.7001 23.268 45.7001C22.988 45.7001 22.736 45.6961 22.512 45.6881C22.288 45.6801 22.064 45.6681 21.84 45.6521L21.816 44.4761C22.112 44.5081 22.372 44.5321 22.596 44.5481C22.82 44.5641 23.048 44.5721 23.28 44.5721ZM27.06 46.3001C27.388 46.2681 27.748 46.2441 28.14 46.2281C28.532 46.2041 28.92 46.1921 29.304 46.1921C29.656 46.1921 30.008 46.2001 30.36 46.2161C30.72 46.2241 31.068 46.2481 31.404 46.2881L31.368 47.4401C31.064 47.4001 30.736 47.3681 30.384 47.3441C30.04 47.3121 29.688 47.2961 29.328 47.2961C28.936 47.2961 28.552 47.3081 28.176 47.3321C27.808 47.3481 27.436 47.3761 27.06 47.4161V46.3001ZM27.48 49.2641C27.44 49.4481 27.404 49.6321 27.372 49.8161C27.34 49.9921 27.324 50.1561 27.324 50.3081C27.324 50.4441 27.348 50.5761 27.396 50.7041C27.452 50.8241 27.544 50.9321 27.672 51.0281C27.808 51.1241 27.996 51.2001 28.236 51.2561C28.484 51.3121 28.8 51.3401 29.184 51.3401C29.576 51.3401 29.976 51.3201 30.384 51.2801C30.792 51.2321 31.192 51.1721 31.584 51.1001L31.548 52.3121C31.212 52.3521 30.844 52.3881 30.444 52.4201C30.052 52.4601 29.628 52.4801 29.172 52.4801C28.196 52.4801 27.448 52.3241 26.928 52.0121C26.416 51.7001 26.16 51.2481 26.16 50.6561C26.16 50.4001 26.18 50.1481 26.22 49.9001C26.26 49.6441 26.304 49.3961 26.352 49.1561L27.48 49.2641ZM30.108 43.0121C30.212 43.1561 30.324 43.3281 30.444 43.5281C30.564 43.7201 30.68 43.9201 30.792 44.1281C30.904 44.3281 31 44.5041 31.08 44.6561L30.288 45.0041C30.216 44.8361 30.124 44.6561 30.012 44.4641C29.9 44.2641 29.784 44.0641 29.664 43.8641C29.552 43.6641 29.44 43.4881 29.328 43.3361L30.108 43.0121ZM31.476 42.4961C31.58 42.6481 31.692 42.8241 31.812 43.0241C31.94 43.2241 32.064 43.4241 32.184 43.6241C32.304 43.8241 32.4 43.9961 32.472 44.1401L31.692 44.4881C31.564 44.2241 31.408 43.9361 31.224 43.6241C31.04 43.3121 30.868 43.0441 30.708 42.8201L31.476 42.4961Z" fill="#E22F61"/>
</svg>
