<svg width="34" height="62" viewBox="0 0 34 62" fill="none" xmlns="http://www.w3.org/2000/svg">
<path d="M9.86381 6.916H12.6358V24.12H9.86381V6.916ZM2.36181 11.668H5.08981V26.716H2.36181V11.668ZM17.6298 11.624H20.3798V26.65H17.6298V11.624ZM3.70381 22.536H18.8618V25.242H3.70381V22.536ZM1.48181 36.928H21.2158V39.59H1.48181V36.928ZM9.46781 39.304H12.3058V55.914H9.46781V39.304ZM10.9638 44.65L12.7678 42.538C13.3691 42.8313 14.0145 43.1687 14.7038 43.55C15.4078 43.9167 16.1045 44.3053 16.7938 44.716C17.4831 45.1267 18.1358 45.53 18.7518 45.926C19.3678 46.3073 19.8811 46.674 20.2918 47.026L18.3338 49.446C17.9525 49.094 17.4685 48.7127 16.8818 48.302C16.3098 47.8767 15.6791 47.4513 14.9898 47.026C14.3151 46.6007 13.6331 46.1827 12.9438 45.772C12.2545 45.3467 11.5945 44.9727 10.9638 44.65Z" fill="black"/>
<path d="M28.004 8.38C27.86 8.22 27.684 8.044 27.476 7.852C27.268 7.652 27.056 7.456 26.84 7.264C26.624 7.072 26.432 6.916 26.264 6.796L27.14 6.172C27.276 6.276 27.452 6.42 27.668 6.604C27.892 6.788 28.116 6.98 28.34 7.18C28.564 7.38 28.744 7.556 28.88 7.708L28.004 8.38ZM24.428 7.228C24.468 7.3 24.512 7.392 24.56 7.504C24.616 7.608 24.672 7.716 24.728 7.828C24.784 7.932 24.832 8.02 24.872 8.092C25.112 8.54 25.364 9.044 25.628 9.604C25.9 10.164 26.152 10.708 26.384 11.236C26.536 11.588 26.696 11.988 26.864 12.436C27.04 12.884 27.212 13.348 27.38 13.828C27.548 14.3 27.704 14.756 27.848 15.196C28 15.636 28.128 16.024 28.232 16.36L26.924 16.696C26.804 16.208 26.66 15.676 26.492 15.1C26.324 14.524 26.14 13.948 25.94 13.372C25.74 12.796 25.528 12.256 25.304 11.752C25.128 11.352 24.956 10.964 24.788 10.588C24.62 10.212 24.456 9.86 24.296 9.532C24.144 9.204 23.992 8.912 23.84 8.656C23.76 8.528 23.66 8.372 23.54 8.188C23.42 8.004 23.308 7.848 23.204 7.72L24.428 7.228ZM22.1 10.744C22.3 10.696 22.504 10.636 22.712 10.564C22.92 10.492 23.076 10.432 23.18 10.384C23.556 10.24 23.96 10.072 24.392 9.88C24.832 9.68 25.28 9.48 25.736 9.28C26.2 9.072 26.664 8.88 27.128 8.704C27.6 8.528 28.056 8.388 28.496 8.284C28.944 8.172 29.364 8.116 29.756 8.116C30.34 8.116 30.84 8.22 31.256 8.428C31.672 8.636 31.992 8.92 32.216 9.28C32.448 9.64 32.564 10.044 32.564 10.492C32.564 10.996 32.452 11.44 32.228 11.824C32.012 12.208 31.692 12.512 31.268 12.736C30.844 12.952 30.324 13.06 29.708 13.06C29.372 13.06 29.04 13.024 28.712 12.952C28.392 12.88 28.116 12.804 27.884 12.724L27.92 11.524C28.168 11.636 28.436 11.732 28.724 11.812C29.02 11.892 29.312 11.932 29.6 11.932C29.976 11.932 30.292 11.868 30.548 11.74C30.804 11.612 30.996 11.436 31.124 11.212C31.26 10.988 31.328 10.732 31.328 10.444C31.328 10.22 31.268 10.016 31.148 9.832C31.028 9.64 30.848 9.488 30.608 9.376C30.368 9.256 30.072 9.196 29.72 9.196C29.32 9.196 28.872 9.268 28.376 9.412C27.88 9.556 27.36 9.744 26.816 9.976C26.28 10.2 25.752 10.44 25.232 10.696C24.712 10.952 24.228 11.192 23.78 11.416C23.34 11.64 22.972 11.82 22.676 11.956L22.1 10.744ZM28.496 18.4C28.488 18.512 28.476 18.636 28.46 18.772C28.452 18.9 28.444 19.048 28.436 19.216C28.428 19.352 28.42 19.548 28.412 19.804C28.412 20.06 28.408 20.344 28.4 20.656C28.4 20.96 28.4 21.268 28.4 21.58C28.4 21.884 28.4 22.164 28.4 22.42C28.4 22.788 28.408 23.188 28.424 23.62C28.448 24.044 28.472 24.464 28.496 24.88C28.52 25.296 28.54 25.68 28.556 26.032C28.58 26.384 28.592 26.672 28.592 26.896C28.592 27.2 28.516 27.484 28.364 27.748C28.212 28.012 27.972 28.224 27.644 28.384C27.316 28.552 26.888 28.636 26.36 28.636C25.456 28.636 24.768 28.472 24.296 28.144C23.824 27.824 23.588 27.364 23.588 26.764C23.588 26.38 23.7 26.044 23.924 25.756C24.156 25.468 24.484 25.244 24.908 25.084C25.34 24.916 25.852 24.832 26.444 24.832C27.084 24.832 27.684 24.904 28.244 25.048C28.812 25.192 29.328 25.376 29.792 25.6C30.264 25.824 30.68 26.06 31.04 26.308C31.4 26.548 31.704 26.764 31.952 26.956L31.256 28.024C30.976 27.768 30.66 27.508 30.308 27.244C29.956 26.98 29.568 26.74 29.144 26.524C28.72 26.308 28.268 26.136 27.788 26.008C27.316 25.88 26.816 25.816 26.288 25.816C25.776 25.816 25.384 25.904 25.112 26.08C24.848 26.248 24.716 26.452 24.716 26.692C24.716 26.86 24.768 27.012 24.872 27.148C24.984 27.276 25.148 27.38 25.364 27.46C25.58 27.532 25.86 27.568 26.204 27.568C26.428 27.568 26.628 27.54 26.804 27.484C26.988 27.428 27.132 27.332 27.236 27.196C27.34 27.052 27.392 26.852 27.392 26.596C27.392 26.388 27.384 26.108 27.368 25.756C27.352 25.404 27.336 25.024 27.32 24.616C27.312 24.2 27.3 23.8 27.284 23.416C27.268 23.024 27.26 22.692 27.26 22.42C27.26 22.14 27.26 21.852 27.26 21.556C27.268 21.252 27.272 20.956 27.272 20.668C27.272 20.372 27.272 20.096 27.272 19.84C27.272 19.576 27.272 19.348 27.272 19.156C27.272 19.052 27.268 18.924 27.26 18.772C27.252 18.612 27.236 18.488 27.212 18.4H28.496ZM23.744 19.624C23.944 19.656 24.176 19.688 24.44 19.72C24.712 19.752 24.988 19.784 25.268 19.816C25.556 19.84 25.828 19.86 26.084 19.876C26.34 19.884 26.564 19.888 26.756 19.888C27.548 19.888 28.344 19.86 29.144 19.804C29.944 19.748 30.752 19.652 31.568 19.516V20.62C31.136 20.668 30.656 20.716 30.128 20.764C29.6 20.812 29.048 20.852 28.472 20.884C27.904 20.916 27.336 20.932 26.768 20.932C26.504 20.932 26.184 20.92 25.808 20.896C25.44 20.872 25.072 20.844 24.704 20.812C24.336 20.78 24.02 20.748 23.756 20.716L23.744 19.624ZM23.684 22.192C23.884 22.224 24.116 22.256 24.38 22.288C24.644 22.312 24.916 22.332 25.196 22.348C25.476 22.364 25.74 22.38 25.988 22.396C26.244 22.404 26.464 22.408 26.648 22.408C27.296 22.408 27.904 22.396 28.472 22.372C29.048 22.34 29.6 22.3 30.128 22.252C30.664 22.196 31.184 22.136 31.688 22.072L31.676 23.188C31.268 23.244 30.868 23.292 30.476 23.332C30.084 23.364 29.688 23.392 29.288 23.416C28.896 23.44 28.48 23.456 28.04 23.464C27.608 23.472 27.136 23.476 26.624 23.476C26.376 23.476 26.076 23.472 25.724 23.464C25.372 23.448 25.016 23.428 24.656 23.404C24.296 23.38 23.976 23.352 23.696 23.32L23.684 22.192Z" fill="black"/>
<path d="M25.248 36.58C25.216 36.796 25.188 37.028 25.164 37.276C25.14 37.516 25.124 37.744 25.116 37.96C25.1 38.288 25.084 38.696 25.068 39.184C25.052 39.664 25.036 40.176 25.02 40.72C25.004 41.256 24.992 41.788 24.984 42.316C24.976 42.836 24.972 43.304 24.972 43.72C24.972 44.144 25.048 44.48 25.2 44.728C25.36 44.976 25.58 45.156 25.86 45.268C26.14 45.372 26.452 45.424 26.796 45.424C27.324 45.424 27.8 45.356 28.224 45.22C28.648 45.084 29.028 44.9 29.364 44.668C29.708 44.436 30.016 44.172 30.288 43.876C30.56 43.58 30.804 43.272 31.02 42.952L31.872 43.996C31.672 44.284 31.42 44.584 31.116 44.896C30.812 45.208 30.448 45.5 30.024 45.772C29.608 46.044 29.128 46.264 28.584 46.432C28.048 46.6 27.444 46.684 26.772 46.684C26.164 46.684 25.632 46.592 25.176 46.408C24.72 46.224 24.364 45.928 24.108 45.52C23.852 45.112 23.724 44.576 23.724 43.912C23.724 43.568 23.728 43.18 23.736 42.748C23.744 42.316 23.752 41.872 23.76 41.416C23.776 40.952 23.788 40.5 23.796 40.06C23.812 39.62 23.824 39.216 23.832 38.848C23.84 38.48 23.844 38.184 23.844 37.96C23.844 37.704 23.832 37.46 23.808 37.228C23.792 36.988 23.76 36.768 23.712 36.568L25.248 36.58ZM26.472 48.496C26.432 48.64 26.388 48.82 26.34 49.036C26.3 49.244 26.268 49.408 26.244 49.528C26.188 49.808 26.12 50.144 26.04 50.536C25.968 50.92 25.88 51.324 25.776 51.748C25.68 52.172 25.58 52.584 25.476 52.984C25.372 53.408 25.244 53.868 25.092 54.364C24.94 54.86 24.776 55.364 24.6 55.876C24.432 56.38 24.26 56.86 24.084 57.316C23.916 57.764 23.748 58.16 23.58 58.504L22.272 58.06C22.448 57.756 22.632 57.388 22.824 56.956C23.016 56.516 23.204 56.048 23.388 55.552C23.572 55.048 23.744 54.548 23.904 54.052C24.064 53.556 24.2 53.1 24.312 52.684C24.384 52.404 24.456 52.112 24.528 51.808C24.6 51.496 24.668 51.196 24.732 50.908C24.796 50.62 24.848 50.352 24.888 50.104C24.928 49.848 24.96 49.636 24.984 49.468C25.016 49.276 25.032 49.08 25.032 48.88C25.04 48.68 25.04 48.516 25.032 48.388L26.472 48.496ZM23.64 50.416C24.104 50.416 24.596 50.392 25.116 50.344C25.636 50.296 26.164 50.228 26.7 50.14C27.244 50.052 27.768 49.944 28.272 49.816V51.004C27.776 51.116 27.252 51.212 26.7 51.292C26.148 51.372 25.608 51.436 25.08 51.484C24.552 51.524 24.068 51.544 23.628 51.544C23.356 51.544 23.104 51.54 22.872 51.532C22.648 51.524 22.424 51.512 22.2 51.496L22.176 50.32C22.472 50.352 22.732 50.376 22.956 50.392C23.188 50.408 23.416 50.416 23.64 50.416ZM27.42 52.144C27.748 52.112 28.108 52.088 28.5 52.072C28.892 52.048 29.28 52.036 29.664 52.036C30.016 52.036 30.368 52.044 30.72 52.06C31.08 52.068 31.428 52.092 31.764 52.132L31.728 53.284C31.424 53.244 31.096 53.208 30.744 53.176C30.4 53.144 30.048 53.128 29.688 53.128C29.296 53.128 28.912 53.14 28.536 53.164C28.168 53.18 27.796 53.212 27.42 53.26V52.144ZM27.84 55.108C27.8 55.292 27.764 55.476 27.732 55.66C27.7 55.836 27.684 56 27.684 56.152C27.684 56.288 27.708 56.42 27.756 56.548C27.812 56.668 27.904 56.776 28.032 56.872C28.168 56.968 28.356 57.044 28.596 57.1C28.844 57.156 29.16 57.184 29.544 57.184C29.936 57.184 30.336 57.164 30.744 57.124C31.152 57.076 31.552 57.016 31.944 56.944L31.908 58.156C31.572 58.196 31.204 58.232 30.804 58.264C30.412 58.304 29.988 58.324 29.532 58.324C28.556 58.324 27.808 58.168 27.288 57.856C26.776 57.544 26.52 57.092 26.52 56.5C26.52 56.244 26.54 55.992 26.58 55.744C26.62 55.488 26.668 55.24 26.724 55L27.84 55.108Z" fill="black"/>
</svg>
