<svg width="34" height="62" viewBox="0 0 34 62" fill="none" xmlns="http://www.w3.org/2000/svg">
<path d="M9.526 7.916H12.298V25.12H9.526V7.916ZM2.024 12.668H4.752V27.716H2.024V12.668ZM17.292 12.624H20.042V27.65H17.292V12.624ZM3.366 23.536H18.524V26.242H3.366V23.536ZM2.332 38.456H19.712V56.496H16.83V41.14H5.082V56.54H2.332V38.456ZM3.652 52.03H18.634V54.736H3.652V52.03Z" fill="black"/>
<path d="M27.504 8.38C27.36 8.22 27.184 8.044 26.976 7.852C26.768 7.652 26.556 7.456 26.34 7.264C26.124 7.072 25.932 6.916 25.764 6.796L26.64 6.172C26.776 6.276 26.952 6.42 27.168 6.604C27.392 6.788 27.616 6.98 27.84 7.18C28.064 7.38 28.244 7.556 28.38 7.708L27.504 8.38ZM23.928 7.228C23.968 7.3 24.012 7.392 24.06 7.504C24.116 7.608 24.172 7.716 24.228 7.828C24.284 7.932 24.332 8.02 24.372 8.092C24.612 8.54 24.864 9.044 25.128 9.604C25.4 10.164 25.652 10.708 25.884 11.236C26.036 11.588 26.196 11.988 26.364 12.436C26.54 12.884 26.712 13.348 26.88 13.828C27.048 14.3 27.204 14.756 27.348 15.196C27.5 15.636 27.628 16.024 27.732 16.36L26.424 16.696C26.304 16.208 26.16 15.676 25.992 15.1C25.824 14.524 25.64 13.948 25.44 13.372C25.24 12.796 25.028 12.256 24.804 11.752C24.628 11.352 24.456 10.964 24.288 10.588C24.12 10.212 23.956 9.86 23.796 9.532C23.644 9.204 23.492 8.912 23.34 8.656C23.26 8.528 23.16 8.372 23.04 8.188C22.92 8.004 22.808 7.848 22.704 7.72L23.928 7.228ZM21.6 10.744C21.8 10.696 22.004 10.636 22.212 10.564C22.42 10.492 22.576 10.432 22.68 10.384C23.056 10.24 23.46 10.072 23.892 9.88C24.332 9.68 24.78 9.48 25.236 9.28C25.7 9.072 26.164 8.88 26.628 8.704C27.1 8.528 27.556 8.388 27.996 8.284C28.444 8.172 28.864 8.116 29.256 8.116C29.84 8.116 30.34 8.22 30.756 8.428C31.172 8.636 31.492 8.92 31.716 9.28C31.948 9.64 32.064 10.044 32.064 10.492C32.064 10.996 31.952 11.44 31.728 11.824C31.512 12.208 31.192 12.512 30.768 12.736C30.344 12.952 29.824 13.06 29.208 13.06C28.872 13.06 28.54 13.024 28.212 12.952C27.892 12.88 27.616 12.804 27.384 12.724L27.42 11.524C27.668 11.636 27.936 11.732 28.224 11.812C28.52 11.892 28.812 11.932 29.1 11.932C29.476 11.932 29.792 11.868 30.048 11.74C30.304 11.612 30.496 11.436 30.624 11.212C30.76 10.988 30.828 10.732 30.828 10.444C30.828 10.22 30.768 10.016 30.648 9.832C30.528 9.64 30.348 9.488 30.108 9.376C29.868 9.256 29.572 9.196 29.22 9.196C28.82 9.196 28.372 9.268 27.876 9.412C27.38 9.556 26.86 9.744 26.316 9.976C25.78 10.2 25.252 10.44 24.732 10.696C24.212 10.952 23.728 11.192 23.28 11.416C22.84 11.64 22.472 11.82 22.176 11.956L21.6 10.744ZM27.996 18.4C27.988 18.512 27.976 18.636 27.96 18.772C27.952 18.9 27.944 19.048 27.936 19.216C27.928 19.352 27.92 19.548 27.912 19.804C27.912 20.06 27.908 20.344 27.9 20.656C27.9 20.96 27.9 21.268 27.9 21.58C27.9 21.884 27.9 22.164 27.9 22.42C27.9 22.788 27.908 23.188 27.924 23.62C27.948 24.044 27.972 24.464 27.996 24.88C28.02 25.296 28.04 25.68 28.056 26.032C28.08 26.384 28.092 26.672 28.092 26.896C28.092 27.2 28.016 27.484 27.864 27.748C27.712 28.012 27.472 28.224 27.144 28.384C26.816 28.552 26.388 28.636 25.86 28.636C24.956 28.636 24.268 28.472 23.796 28.144C23.324 27.824 23.088 27.364 23.088 26.764C23.088 26.38 23.2 26.044 23.424 25.756C23.656 25.468 23.984 25.244 24.408 25.084C24.84 24.916 25.352 24.832 25.944 24.832C26.584 24.832 27.184 24.904 27.744 25.048C28.312 25.192 28.828 25.376 29.292 25.6C29.764 25.824 30.18 26.06 30.54 26.308C30.9 26.548 31.204 26.764 31.452 26.956L30.756 28.024C30.476 27.768 30.16 27.508 29.808 27.244C29.456 26.98 29.068 26.74 28.644 26.524C28.22 26.308 27.768 26.136 27.288 26.008C26.816 25.88 26.316 25.816 25.788 25.816C25.276 25.816 24.884 25.904 24.612 26.08C24.348 26.248 24.216 26.452 24.216 26.692C24.216 26.86 24.268 27.012 24.372 27.148C24.484 27.276 24.648 27.38 24.864 27.46C25.08 27.532 25.36 27.568 25.704 27.568C25.928 27.568 26.128 27.54 26.304 27.484C26.488 27.428 26.632 27.332 26.736 27.196C26.84 27.052 26.892 26.852 26.892 26.596C26.892 26.388 26.884 26.108 26.868 25.756C26.852 25.404 26.836 25.024 26.82 24.616C26.812 24.2 26.8 23.8 26.784 23.416C26.768 23.024 26.76 22.692 26.76 22.42C26.76 22.14 26.76 21.852 26.76 21.556C26.768 21.252 26.772 20.956 26.772 20.668C26.772 20.372 26.772 20.096 26.772 19.84C26.772 19.576 26.772 19.348 26.772 19.156C26.772 19.052 26.768 18.924 26.76 18.772C26.752 18.612 26.736 18.488 26.712 18.4H27.996ZM23.244 19.624C23.444 19.656 23.676 19.688 23.94 19.72C24.212 19.752 24.488 19.784 24.768 19.816C25.056 19.84 25.328 19.86 25.584 19.876C25.84 19.884 26.064 19.888 26.256 19.888C27.048 19.888 27.844 19.86 28.644 19.804C29.444 19.748 30.252 19.652 31.068 19.516V20.62C30.636 20.668 30.156 20.716 29.628 20.764C29.1 20.812 28.548 20.852 27.972 20.884C27.404 20.916 26.836 20.932 26.268 20.932C26.004 20.932 25.684 20.92 25.308 20.896C24.94 20.872 24.572 20.844 24.204 20.812C23.836 20.78 23.52 20.748 23.256 20.716L23.244 19.624ZM23.184 22.192C23.384 22.224 23.616 22.256 23.88 22.288C24.144 22.312 24.416 22.332 24.696 22.348C24.976 22.364 25.24 22.38 25.488 22.396C25.744 22.404 25.964 22.408 26.148 22.408C26.796 22.408 27.404 22.396 27.972 22.372C28.548 22.34 29.1 22.3 29.628 22.252C30.164 22.196 30.684 22.136 31.188 22.072L31.176 23.188C30.768 23.244 30.368 23.292 29.976 23.332C29.584 23.364 29.188 23.392 28.788 23.416C28.396 23.44 27.98 23.456 27.54 23.464C27.108 23.472 26.636 23.476 26.124 23.476C25.876 23.476 25.576 23.472 25.224 23.464C24.872 23.448 24.516 23.428 24.156 23.404C23.796 23.38 23.476 23.352 23.196 23.32L23.184 22.192Z" fill="black"/>
<path d="M28.752 39.124C28.856 39.276 28.972 39.464 29.1 39.688C29.228 39.904 29.352 40.124 29.472 40.348C29.6 40.564 29.704 40.744 29.784 40.888L28.968 41.236C28.888 41.068 28.788 40.876 28.668 40.66C28.556 40.444 28.44 40.228 28.32 40.012C28.2 39.796 28.084 39.608 27.972 39.448L28.752 39.124ZM30.18 38.572C30.284 38.708 30.4 38.884 30.528 39.1C30.656 39.316 30.78 39.532 30.9 39.748C31.028 39.964 31.136 40.152 31.224 40.312L30.42 40.66C30.332 40.492 30.228 40.3 30.108 40.084C29.988 39.868 29.864 39.656 29.736 39.448C29.616 39.24 29.5 39.06 29.388 38.908L30.18 38.572ZM29.436 37.24C29.284 37.352 29.12 37.48 28.944 37.624C28.776 37.76 28.628 37.88 28.5 37.984C28.308 38.152 28.064 38.352 27.768 38.584C27.48 38.816 27.176 39.06 26.856 39.316C26.544 39.572 26.24 39.82 25.944 40.06C25.648 40.292 25.396 40.5 25.188 40.684C24.964 40.876 24.812 41.036 24.732 41.164C24.652 41.292 24.652 41.42 24.732 41.548C24.82 41.668 24.984 41.832 25.224 42.04C25.424 42.208 25.664 42.408 25.944 42.64C26.232 42.872 26.536 43.124 26.856 43.396C27.184 43.66 27.516 43.936 27.852 44.224C28.188 44.512 28.512 44.796 28.824 45.076C29.136 45.356 29.416 45.62 29.664 45.868L28.584 46.864C28.44 46.704 28.288 46.54 28.128 46.372C27.976 46.212 27.82 46.052 27.66 45.892C27.46 45.684 27.208 45.44 26.904 45.16C26.608 44.88 26.284 44.588 25.932 44.284C25.58 43.98 25.232 43.684 24.888 43.396C24.552 43.1 24.244 42.836 23.964 42.604C23.572 42.276 23.32 41.984 23.208 41.728C23.104 41.472 23.124 41.216 23.268 40.96C23.412 40.704 23.676 40.42 24.06 40.108C24.284 39.916 24.552 39.696 24.864 39.448C25.176 39.192 25.496 38.924 25.824 38.644C26.16 38.364 26.476 38.096 26.772 37.84C27.076 37.576 27.328 37.344 27.528 37.144C27.672 37 27.82 36.848 27.972 36.688C28.124 36.52 28.24 36.372 28.32 36.244L29.436 37.24ZM26.232 48.532C26.176 48.708 26.128 48.892 26.088 49.084C26.056 49.276 26.02 49.46 25.98 49.636C25.948 49.828 25.904 50.06 25.848 50.332C25.792 50.596 25.728 50.884 25.656 51.196C25.592 51.5 25.524 51.808 25.452 52.12C25.38 52.432 25.304 52.732 25.224 53.02C25.144 53.3 25.064 53.552 24.984 53.776C25.496 53.456 26.012 53.228 26.532 53.092C27.052 52.948 27.604 52.876 28.188 52.876C28.836 52.876 29.388 52.98 29.844 53.188C30.308 53.388 30.668 53.672 30.924 54.04C31.18 54.408 31.308 54.84 31.308 55.336C31.308 55.976 31.152 56.52 30.84 56.968C30.536 57.416 30.104 57.764 29.544 58.012C28.984 58.268 28.316 58.432 27.54 58.504C26.772 58.576 25.916 58.564 24.972 58.468L24.648 57.256C25.328 57.352 25.988 57.396 26.628 57.388C27.276 57.38 27.856 57.308 28.368 57.172C28.88 57.028 29.288 56.808 29.592 56.512C29.896 56.216 30.048 55.832 30.048 55.36C30.048 54.952 29.876 54.608 29.532 54.328C29.196 54.04 28.704 53.896 28.056 53.896C27.352 53.896 26.696 54.016 26.088 54.256C25.48 54.496 24.984 54.852 24.6 55.324C24.536 55.412 24.476 55.5 24.42 55.588C24.364 55.668 24.308 55.76 24.252 55.864L23.124 55.468C23.356 55.02 23.568 54.52 23.76 53.968C23.952 53.416 24.12 52.86 24.264 52.3C24.416 51.732 24.54 51.208 24.636 50.728C24.732 50.248 24.796 49.856 24.828 49.552C24.86 49.336 24.88 49.148 24.888 48.988C24.904 48.82 24.904 48.648 24.888 48.472L26.232 48.532ZM22.308 50.008C22.652 50.064 23.04 50.112 23.472 50.152C23.904 50.192 24.304 50.212 24.672 50.212C25.056 50.212 25.48 50.2 25.944 50.176C26.416 50.152 26.908 50.116 27.42 50.068C27.932 50.02 28.444 49.96 28.956 49.888C29.476 49.808 29.976 49.716 30.456 49.612L30.48 50.764C30.072 50.828 29.62 50.892 29.124 50.956C28.628 51.02 28.12 51.08 27.6 51.136C27.08 51.184 26.568 51.224 26.064 51.256C25.56 51.28 25.1 51.292 24.684 51.292C24.252 51.292 23.836 51.284 23.436 51.268C23.036 51.244 22.66 51.216 22.308 51.184V50.008Z" fill="black"/>
</svg>
