<svg width="34" height="62" viewBox="0 0 34 62" fill="none" xmlns="http://www.w3.org/2000/svg">
<path d="M2.20001 24.0439H19.954V26.3539H2.20001V24.0439ZM0.990012 33.3279H10.076V35.6159H0.990012V33.3279ZM10.736 33.3279H21.076V35.6159H10.736V33.3279ZM9.57001 21.7559H12.21V31.6999H9.57001V21.7559ZM4.73001 30.9739H7.19401V42.4579H4.73001V30.9739ZM14.234 30.9739H16.742V42.4579H14.234V30.9739ZM8.75601 24.5059L10.912 25.3199C10.3253 26.2586 9.60668 27.1386 8.75601 27.9599C7.92001 28.7666 6.99601 29.4926 5.98401 30.1379C4.97201 30.7686 3.91601 31.2892 2.81601 31.6999C2.65468 31.3772 2.41268 31.0179 2.09001 30.6219C1.76734 30.2259 1.46668 29.9032 1.18801 29.6539C2.22934 29.3459 3.23401 28.9352 4.20201 28.4219C5.17001 27.8939 6.05001 27.2926 6.84201 26.6179C7.63401 25.9432 8.27201 25.2392 8.75601 24.5059ZM12.804 24.5059C13.3467 25.2246 14.0433 25.9066 14.894 26.5519C15.7447 27.1972 16.6833 27.7692 17.71 28.2679C18.7513 28.7666 19.822 29.1626 20.922 29.4559C20.746 29.6319 20.548 29.8519 20.328 30.1159C20.108 30.3652 19.9027 30.6292 19.712 30.9079C19.5213 31.1719 19.36 31.4139 19.228 31.6339C18.1133 31.2379 17.0353 30.7246 15.994 30.0939C14.9527 29.4632 13.992 28.7372 13.112 27.9159C12.232 27.0946 11.4693 26.2146 10.824 25.2759L12.804 24.5059ZM13.772 33.8339L15.686 34.3619C15.3487 35.3592 14.9233 36.3199 14.41 37.2439C13.9113 38.1679 13.3467 39.0039 12.716 39.7519C12.0853 40.4999 11.3887 41.1232 10.626 41.6219C10.45 41.3286 10.2007 40.9912 9.87801 40.6099C9.57001 40.2286 9.27668 39.9279 8.99801 39.7079C9.70201 39.3266 10.362 38.8279 10.978 38.2119C11.594 37.5812 12.1367 36.8919 12.606 36.1439C13.09 35.3959 13.4787 34.6259 13.772 33.8339ZM17.028 34.0979C17.3653 34.7726 17.776 35.4546 18.26 36.1439C18.7587 36.8186 19.294 37.4419 19.866 38.0139C20.4527 38.5859 21.0467 39.0699 21.648 39.4659C21.3547 39.7006 21.0247 40.0232 20.658 40.4339C20.2913 40.8446 19.998 41.2259 19.778 41.5779C19.206 41.0646 18.6413 40.4339 18.084 39.6859C17.5413 38.9379 17.0353 38.1312 16.566 37.2659C16.1113 36.3859 15.73 35.5059 15.422 34.6259L17.028 34.0979ZM4.59801 34.0099L6.35801 34.6699C6.02068 35.5792 5.61734 36.4666 5.14801 37.3319C4.67868 38.1972 4.15068 38.9892 3.56401 39.7079C2.97734 40.4266 2.33201 41.0206 1.62801 41.4899C1.52534 41.1232 1.35668 40.7052 1.12201 40.2359C0.902012 39.7666 0.696679 39.3632 0.506012 39.0259C1.09268 38.6592 1.64268 38.2119 2.15601 37.6839C2.68401 37.1559 3.15334 36.5766 3.56401 35.9459C3.98934 35.3152 4.33401 34.6699 4.59801 34.0099ZM6.86401 35.7479C7.02534 35.8359 7.26001 35.9752 7.56801 36.1659C7.89068 36.3566 8.22068 36.5692 8.55801 36.8039C8.89534 37.0239 9.21068 37.2366 9.50401 37.4419C9.79734 37.6326 10.0027 37.7719 10.12 37.8599L8.58001 39.8179C8.41868 39.6126 8.19868 39.3779 7.92001 39.1139C7.65601 38.8499 7.37001 38.5786 7.06201 38.2999C6.76868 38.0066 6.48268 37.7352 6.20401 37.4859C5.92534 37.2219 5.68334 37.0092 5.47801 36.8479L6.86401 35.7479Z" fill="#E22F61"/>
<path d="M26.448 21.4841C26.408 21.6681 26.372 21.8361 26.34 21.9881C26.316 22.1401 26.292 22.2881 26.268 22.4321C26.244 22.6321 26.208 22.8961 26.16 23.2241C26.12 23.5441 26.072 23.9041 26.016 24.3041C25.96 24.7041 25.908 25.1161 25.86 25.5401C25.812 25.9641 25.764 26.3801 25.716 26.7881C25.668 27.1881 25.632 27.5561 25.608 27.8921C25.584 28.2201 25.572 28.4881 25.572 28.6961C25.572 29.2401 25.728 29.6641 26.04 29.9681C26.36 30.2721 26.844 30.4241 27.492 30.4241C28.076 30.4241 28.576 30.3441 28.992 30.1841C29.416 30.0241 29.74 29.8001 29.964 29.5121C30.188 29.2241 30.3 28.8921 30.3 28.5161C30.3 28.1081 30.192 27.7001 29.976 27.2921C29.768 26.8841 29.452 26.4921 29.028 26.1161L30.36 25.8401C30.76 26.3121 31.06 26.7721 31.26 27.2201C31.46 27.6601 31.56 28.1401 31.56 28.6601C31.56 29.2521 31.388 29.7721 31.044 30.2201C30.708 30.6681 30.236 31.0161 29.628 31.2641C29.02 31.5121 28.3 31.6361 27.468 31.6361C26.884 31.6361 26.36 31.5441 25.896 31.3601C25.432 31.1761 25.064 30.8841 24.792 30.4841C24.528 30.0841 24.396 29.5521 24.396 28.8881C24.396 28.6401 24.416 28.3081 24.456 27.8921C24.496 27.4761 24.544 27.0201 24.6 26.5241C24.664 26.0281 24.728 25.5241 24.792 25.0121C24.864 24.4921 24.924 24.0041 24.972 23.5481C25.028 23.0841 25.068 22.6881 25.092 22.3601C25.116 22.1201 25.128 21.9321 25.128 21.7961C25.128 21.6601 25.12 21.5321 25.104 21.4121L26.448 21.4841ZM22.416 23.0321C22.76 23.1441 23.14 23.2361 23.556 23.3081C23.972 23.3801 24.396 23.4361 24.828 23.4761C25.26 23.5081 25.664 23.5241 26.04 23.5241C26.504 23.5241 26.94 23.5121 27.348 23.4881C27.756 23.4561 28.124 23.4161 28.452 23.3681L28.416 24.4961C28.04 24.5281 27.668 24.5561 27.3 24.5801C26.932 24.6041 26.5 24.6161 26.004 24.6161C25.636 24.6161 25.236 24.5961 24.804 24.5561C24.38 24.5161 23.956 24.4601 23.532 24.3881C23.108 24.3081 22.716 24.2241 22.356 24.1361L22.416 23.0321ZM22.14 26.0201C22.548 26.1561 22.968 26.2641 23.4 26.3441C23.832 26.4241 24.26 26.4801 24.684 26.5121C25.116 26.5361 25.524 26.5481 25.908 26.5481C26.3 26.5481 26.704 26.5361 27.12 26.5121C27.544 26.4881 27.96 26.4521 28.368 26.4041L28.332 27.5321C27.964 27.5721 27.596 27.6041 27.228 27.6281C26.86 27.6441 26.48 27.6521 26.088 27.6521C25.368 27.6521 24.656 27.6121 23.952 27.5321C23.248 27.4441 22.624 27.3241 22.08 27.1721L22.14 26.0201ZM25.176 33.4601C25.128 33.6441 25.076 33.8681 25.02 34.1321C24.964 34.3881 24.912 34.6561 24.864 34.9361C24.816 35.2161 24.772 35.4881 24.732 35.7521C24.7 36.0081 24.676 36.2321 24.66 36.4241C24.796 36.1521 24.964 35.8761 25.164 35.5961C25.372 35.3161 25.612 35.0601 25.884 34.8281C26.156 34.5961 26.452 34.4081 26.772 34.2641C27.092 34.1201 27.432 34.0481 27.792 34.0481C28.336 34.0481 28.82 34.2201 29.244 34.5641C29.676 34.9001 30.016 35.3801 30.264 36.0041C30.512 36.6281 30.636 37.3721 30.636 38.2361C30.636 39.0681 30.512 39.7961 30.264 40.4201C30.016 41.0441 29.664 41.5721 29.208 42.0041C28.752 42.4361 28.208 42.7881 27.576 43.0601C26.944 43.3401 26.248 43.5481 25.488 43.6841L24.768 42.5921C25.424 42.4881 26.032 42.3441 26.592 42.1601C27.152 41.9681 27.64 41.7081 28.056 41.3801C28.472 41.0521 28.792 40.6321 29.016 40.1201C29.248 39.6081 29.364 38.9801 29.364 38.2361C29.364 37.6121 29.296 37.0681 29.16 36.6041C29.024 36.1401 28.824 35.7801 28.56 35.5241C28.296 35.2681 27.972 35.1401 27.588 35.1401C27.22 35.1401 26.868 35.2601 26.532 35.5001C26.196 35.7401 25.892 36.0481 25.62 36.4241C25.356 36.8001 25.14 37.2041 24.972 37.6361C24.812 38.0681 24.716 38.4841 24.684 38.8841C24.668 39.0841 24.66 39.2921 24.66 39.5081C24.668 39.7241 24.692 39.9761 24.732 40.2641L23.556 40.3481C23.532 40.1241 23.504 39.8441 23.472 39.5081C23.44 39.1641 23.424 38.7961 23.424 38.4041C23.424 38.1161 23.436 37.8081 23.46 37.4801C23.484 37.1441 23.512 36.8041 23.544 36.4601C23.576 36.1081 23.612 35.7681 23.652 35.4401C23.7 35.1121 23.74 34.8121 23.772 34.5401C23.804 34.3321 23.824 34.1321 23.832 33.9401C23.848 33.7481 23.86 33.5681 23.868 33.4001L25.176 33.4601Z" fill="#E22F61"/>
</svg>
