<svg width="34" height="62" viewBox="0 0 34 62" fill="none" xmlns="http://www.w3.org/2000/svg">
<path d="M9.63601 7.6084H12.518V24.6584C12.518 25.4797 12.4153 26.0957 12.21 26.5064C12.0047 26.9171 11.6527 27.2324 11.154 27.4524C10.6407 27.6577 9.99534 27.7897 9.21801 27.8484C8.45534 27.9217 7.53868 27.9511 6.46801 27.9364C6.42401 27.6871 6.34334 27.3937 6.22601 27.0564C6.10868 26.7337 5.97668 26.4037 5.83001 26.0664C5.69801 25.7291 5.55868 25.4431 5.41201 25.2084C5.89601 25.2231 6.38001 25.2377 6.86401 25.2524C7.34801 25.2671 7.78068 25.2744 8.16201 25.2744C8.54334 25.2597 8.81468 25.2524 8.97601 25.2524C9.21068 25.2524 9.37934 25.2084 9.48201 25.1204C9.58468 25.0324 9.63601 24.8784 9.63601 24.6584V7.6084ZM14.916 13.3944L17.512 12.4264C18.1133 13.4677 18.6927 14.5824 19.25 15.7704C19.822 16.9437 20.3207 18.1024 20.746 19.2464C21.186 20.3757 21.5013 21.4024 21.692 22.3264L18.788 23.4704C18.6413 22.5757 18.37 21.5564 17.974 20.4124C17.5927 19.2537 17.1307 18.0657 16.588 16.8484C16.06 15.6164 15.5027 14.4651 14.916 13.3944ZM3.87201 12.6684L6.86401 13.1744C6.61468 14.2597 6.31401 15.4184 5.96201 16.6504C5.61001 17.8677 5.19201 19.0337 4.70801 20.1484C4.23868 21.2484 3.69601 22.2091 3.08001 23.0304C2.86001 22.8691 2.58868 22.7004 2.26601 22.5244C1.95801 22.3484 1.64268 22.1871 1.32001 22.0404C1.01201 21.8791 0.733342 21.7471 0.484009 21.6444C1.08534 20.8964 1.60601 20.0091 2.04601 18.9824C2.50068 17.9411 2.88201 16.8704 3.19001 15.7704C3.49801 14.6557 3.72534 13.6217 3.87201 12.6684ZM3.32201 37.4224H6.02801V45.0344C6.02801 46.1197 5.99134 47.2051 5.91801 48.2904C5.85934 49.3611 5.72001 50.4171 5.50001 51.4584C5.28001 52.4997 4.95001 53.5044 4.51001 54.4724C4.08468 55.4404 3.50534 56.3424 2.77201 57.1784C2.61068 56.9731 2.39068 56.7457 2.11201 56.4964C1.84801 56.2617 1.56934 56.0271 1.27601 55.7924C0.982676 55.5724 0.726009 55.3964 0.506009 55.2644C1.35668 54.3111 1.98001 53.2771 2.37601 52.1624C2.77201 51.0331 3.02868 49.8671 3.14601 48.6644C3.26334 47.4471 3.32201 46.2371 3.32201 45.0344V37.4224ZM10.054 38.3684H12.76V54.8464H10.054V38.3684ZM16.786 37.3784H19.558V56.9144H16.786V37.3784Z" fill="#E22F61"/>
<path d="M26.064 12.3398C26.048 12.4118 26.036 12.5038 26.028 12.6158C26.02 12.7198 26.008 12.8318 25.992 12.9518C25.984 13.0638 25.976 13.1678 25.968 13.2638C25.96 13.4718 25.948 13.7198 25.932 14.0078C25.924 14.2878 25.912 14.5958 25.896 14.9318C25.888 15.2598 25.88 15.5918 25.872 15.9278C25.872 16.2558 25.872 16.5718 25.872 16.8758C25.872 17.1878 25.876 17.5358 25.884 17.9198C25.892 18.3038 25.9 18.6838 25.908 19.0598C25.916 19.4278 25.924 19.7718 25.932 20.0918C25.94 20.4038 25.944 20.6518 25.944 20.8358C25.944 21.2598 25.892 21.5918 25.788 21.8318C25.692 22.0718 25.556 22.2398 25.38 22.3358C25.212 22.4318 25.008 22.4798 24.768 22.4798C24.512 22.4798 24.232 22.4238 23.928 22.3118C23.624 22.1998 23.336 22.0478 23.064 21.8558C22.792 21.6638 22.568 21.4398 22.392 21.1838C22.216 20.9278 22.128 20.6558 22.128 20.3678C22.128 19.9998 22.268 19.6358 22.548 19.2758C22.836 18.9078 23.212 18.5718 23.676 18.2678C24.14 17.9638 24.632 17.7158 25.152 17.5238C25.696 17.3238 26.252 17.1718 26.82 17.0678C27.388 16.9638 27.904 16.9118 28.368 16.9118C28.968 16.9118 29.504 17.0118 29.976 17.2118C30.448 17.4118 30.82 17.6998 31.092 18.0758C31.364 18.4518 31.5 18.8958 31.5 19.4078C31.5 19.8798 31.404 20.3038 31.212 20.6798C31.028 21.0558 30.744 21.3758 30.36 21.6398C29.976 21.9038 29.492 22.1078 28.908 22.2518C28.636 22.3078 28.368 22.3478 28.104 22.3718C27.848 22.3958 27.608 22.4158 27.384 22.4318L26.952 21.2078C27.192 21.2158 27.436 21.2158 27.684 21.2078C27.932 21.1998 28.168 21.1718 28.392 21.1238C28.728 21.0598 29.04 20.9598 29.328 20.8238C29.616 20.6798 29.844 20.4918 30.012 20.2598C30.188 20.0198 30.276 19.7318 30.276 19.3958C30.276 19.0838 30.192 18.8238 30.024 18.6158C29.856 18.3998 29.628 18.2358 29.34 18.1238C29.052 18.0118 28.724 17.9558 28.356 17.9558C27.836 17.9558 27.32 18.0118 26.808 18.1238C26.296 18.2278 25.792 18.3758 25.296 18.5678C24.928 18.7118 24.592 18.8838 24.288 19.0838C23.984 19.2838 23.744 19.4918 23.568 19.7078C23.392 19.9158 23.304 20.1158 23.304 20.3078C23.304 20.4278 23.344 20.5438 23.424 20.6558C23.504 20.7598 23.6 20.8518 23.712 20.9318C23.832 21.0118 23.956 21.0758 24.084 21.1238C24.212 21.1718 24.328 21.1958 24.432 21.1958C24.552 21.1958 24.648 21.1558 24.72 21.0758C24.8 20.9878 24.84 20.8438 24.84 20.6438C24.84 20.4198 24.832 20.1038 24.816 19.6958C24.808 19.2878 24.8 18.8398 24.792 18.3518C24.784 17.8558 24.78 17.3798 24.78 16.9238C24.78 16.5798 24.78 16.2238 24.78 15.8558C24.788 15.4798 24.792 15.1198 24.792 14.7758C24.8 14.4318 24.804 14.1278 24.804 13.8638C24.812 13.5998 24.816 13.4078 24.816 13.2878C24.816 13.1998 24.812 13.0958 24.804 12.9758C24.796 12.8558 24.788 12.7398 24.78 12.6278C24.772 12.5078 24.76 12.4118 24.744 12.3398H26.064ZM29.652 13.6598C29.948 13.8038 30.276 13.9838 30.636 14.1998C31.004 14.4078 31.352 14.6198 31.68 14.8358C32.016 15.0438 32.284 15.2278 32.484 15.3878L31.896 16.3478C31.752 16.2118 31.56 16.0638 31.32 15.9038C31.088 15.7438 30.836 15.5798 30.564 15.4118C30.3 15.2438 30.04 15.0878 29.784 14.9438C29.536 14.7918 29.316 14.6678 29.124 14.5718L29.652 13.6598ZM22.38 14.4158C22.724 14.4558 23.02 14.4838 23.268 14.4998C23.516 14.5078 23.752 14.5118 23.976 14.5118C24.272 14.5118 24.608 14.4958 24.984 14.4638C25.36 14.4318 25.74 14.3918 26.124 14.3438C26.516 14.2958 26.896 14.2358 27.264 14.1638C27.64 14.0838 27.98 13.9998 28.284 13.9118L28.308 15.0878C27.988 15.1598 27.632 15.2278 27.24 15.2918C26.856 15.3558 26.464 15.4158 26.064 15.4718C25.672 15.5198 25.296 15.5598 24.936 15.5918C24.584 15.6158 24.272 15.6278 24 15.6278C23.64 15.6278 23.336 15.6238 23.088 15.6158C22.84 15.5998 22.616 15.5838 22.416 15.5678L22.38 14.4158Z" fill="#E22F61"/>
<path d="M26.256 36.6522C26.224 36.7722 26.192 36.9082 26.16 37.0602C26.136 37.2122 26.108 37.3522 26.076 37.4802C26.052 37.6402 26.016 37.8402 25.968 38.0802C25.92 38.3122 25.872 38.5562 25.824 38.8122C25.784 39.0602 25.736 39.3002 25.68 39.5322C25.6 39.8682 25.5 40.2562 25.38 40.6962C25.26 41.1362 25.12 41.6082 24.96 42.1122C24.808 42.6082 24.632 43.1162 24.432 43.6362C24.24 44.1482 24.028 44.6522 23.796 45.1482C23.572 45.6362 23.328 46.0922 23.064 46.5162L21.828 46.0242C22.108 45.6562 22.368 45.2402 22.608 44.7762C22.848 44.3122 23.068 43.8362 23.268 43.3482C23.468 42.8522 23.648 42.3642 23.808 41.8842C23.968 41.4042 24.104 40.9602 24.216 40.5522C24.328 40.1362 24.416 39.7802 24.48 39.4842C24.592 38.9722 24.68 38.4602 24.744 37.9482C24.816 37.4362 24.852 36.9562 24.852 36.5082L26.256 36.6522ZM30.384 37.9602C30.568 38.2082 30.764 38.5202 30.972 38.8962C31.188 39.2642 31.396 39.6562 31.596 40.0722C31.796 40.4882 31.98 40.8922 32.148 41.2842C32.316 41.6682 32.448 42.0002 32.544 42.2802L31.356 42.8442C31.268 42.5242 31.148 42.1642 30.996 41.7642C30.852 41.3642 30.684 40.9602 30.492 40.5522C30.308 40.1362 30.108 39.7442 29.892 39.3762C29.684 39.0082 29.476 38.7002 29.268 38.4522L30.384 37.9602ZM21.696 39.2082C21.896 39.2162 22.088 39.2202 22.272 39.2202C22.456 39.2202 22.652 39.2162 22.86 39.2082C23.044 39.2002 23.276 39.1882 23.556 39.1722C23.844 39.1482 24.148 39.1242 24.468 39.1002C24.796 39.0682 25.12 39.0402 25.44 39.0162C25.76 38.9842 26.056 38.9602 26.328 38.9442C26.608 38.9282 26.832 38.9202 27 38.9202C27.384 38.9202 27.728 38.9842 28.032 39.1122C28.344 39.2322 28.588 39.4482 28.764 39.7602C28.948 40.0722 29.04 40.5082 29.04 41.0682C29.04 41.5402 29.016 42.0522 28.968 42.6042C28.928 43.1482 28.856 43.6722 28.752 44.1762C28.656 44.6722 28.524 45.0882 28.356 45.4242C28.164 45.8402 27.912 46.1202 27.6 46.2642C27.288 46.4082 26.924 46.4802 26.508 46.4802C26.276 46.4802 26.028 46.4602 25.764 46.4202C25.508 46.3882 25.28 46.3482 25.08 46.3002L24.876 45.0522C25.044 45.1002 25.22 45.1442 25.404 45.1842C25.588 45.2162 25.764 45.2442 25.932 45.2682C26.1 45.2842 26.24 45.2922 26.352 45.2922C26.56 45.2922 26.748 45.2562 26.916 45.1842C27.084 45.1042 27.224 44.9522 27.336 44.7282C27.456 44.4722 27.552 44.1482 27.624 43.7562C27.704 43.3642 27.764 42.9442 27.804 42.4962C27.844 42.0482 27.864 41.6162 27.864 41.2002C27.864 40.8482 27.816 40.5882 27.72 40.4202C27.624 40.2522 27.484 40.1402 27.3 40.0842C27.116 40.0202 26.896 39.9882 26.64 39.9882C26.448 39.9882 26.184 40.0042 25.848 40.0362C25.52 40.0602 25.168 40.0922 24.792 40.1322C24.424 40.1722 24.076 40.2122 23.748 40.2522C23.428 40.2842 23.18 40.3122 23.004 40.3362C22.852 40.3522 22.656 40.3762 22.416 40.4082C22.184 40.4402 21.984 40.4722 21.816 40.5042L21.696 39.2082ZM30.36 36.2442C30.464 36.3882 30.576 36.5602 30.696 36.7602C30.816 36.9602 30.932 37.1602 31.044 37.3602C31.156 37.5602 31.252 37.7402 31.332 37.9002L30.54 38.2362C30.468 38.0762 30.376 37.8962 30.264 37.6962C30.152 37.4962 30.036 37.2962 29.916 37.0962C29.804 36.8962 29.692 36.7202 29.58 36.5682L30.36 36.2442ZM31.728 35.7402C31.832 35.8922 31.948 36.0682 32.076 36.2682C32.204 36.4682 32.324 36.6682 32.436 36.8682C32.556 37.0602 32.652 37.2282 32.724 37.3722L31.944 37.7202C31.816 37.4642 31.66 37.1802 31.476 36.8682C31.3 36.5562 31.124 36.2882 30.948 36.0642L31.728 35.7402ZM27.252 57.0282C27.764 56.9482 28.244 56.8322 28.692 56.6802C29.148 56.5202 29.548 56.3162 29.892 56.0682C30.244 55.8122 30.516 55.5002 30.708 55.1322C30.9 54.7562 30.992 54.3242 30.984 53.8362C30.984 53.5962 30.94 53.3602 30.852 53.1282C30.764 52.8962 30.628 52.6842 30.444 52.4922C30.26 52.2922 30.032 52.1362 29.76 52.0242C29.496 51.9042 29.184 51.8442 28.824 51.8442C28.064 51.8442 27.344 52.0402 26.664 52.4322C25.992 52.8162 25.364 53.3122 24.78 53.9202V52.5882C25.508 51.9082 26.236 51.4322 26.964 51.1602C27.7 50.8802 28.384 50.7402 29.016 50.7402C29.6 50.7402 30.136 50.8682 30.624 51.1242C31.112 51.3802 31.5 51.7442 31.788 52.2162C32.084 52.6802 32.232 53.2282 32.232 53.8602C32.24 54.4682 32.14 55.0082 31.932 55.4802C31.732 55.9522 31.44 56.3642 31.056 56.7162C30.68 57.0682 30.216 57.3642 29.664 57.6042C29.12 57.8442 28.5 58.0322 27.804 58.1682L27.252 57.0282ZM24.54 51.4842C24.428 51.5002 24.272 51.5202 24.072 51.5442C23.872 51.5682 23.652 51.5962 23.412 51.6282C23.172 51.6602 22.928 51.6962 22.68 51.7362C22.44 51.7682 22.212 51.7962 21.996 51.8202L21.876 50.5962C22.028 50.6042 22.172 50.6082 22.308 50.6082C22.444 50.6002 22.6 50.5922 22.776 50.5842C22.952 50.5682 23.164 50.5482 23.412 50.5242C23.668 50.4922 23.932 50.4602 24.204 50.4282C24.476 50.3882 24.728 50.3482 24.96 50.3082C25.2 50.2602 25.388 50.2122 25.524 50.1642L25.932 50.6682C25.868 50.7642 25.788 50.8842 25.692 51.0282C25.604 51.1642 25.512 51.3042 25.416 51.4482C25.328 51.5922 25.252 51.7202 25.188 51.8322L24.672 53.7402C24.536 53.9482 24.368 54.1962 24.168 54.4842C23.976 54.7722 23.772 55.0762 23.556 55.3962C23.34 55.7082 23.124 56.0202 22.908 56.3322C22.7 56.6362 22.508 56.9082 22.332 57.1482L21.588 56.1042C21.74 55.9202 21.916 55.6962 22.116 55.4322C22.316 55.1682 22.528 54.8882 22.752 54.5922C22.976 54.2882 23.192 53.9922 23.4 53.7042C23.616 53.4082 23.812 53.1322 23.988 52.8762C24.164 52.6202 24.304 52.4082 24.408 52.2402L24.444 51.7602L24.54 51.4842ZM24.408 49.3602C24.408 49.2082 24.404 49.0482 24.396 48.8802C24.396 48.7122 24.384 48.5482 24.36 48.3882L25.764 48.4362C25.724 48.6042 25.68 48.8602 25.632 49.2042C25.584 49.5482 25.532 49.9482 25.476 50.4042C25.428 50.8602 25.38 51.3402 25.332 51.8442C25.292 52.3482 25.26 52.8482 25.236 53.3442C25.212 53.8402 25.2 54.3002 25.2 54.7242C25.2 55.0682 25.2 55.4002 25.2 55.7202C25.2 56.0402 25.204 56.3602 25.212 56.6802C25.228 57.0002 25.244 57.3442 25.26 57.7122C25.268 57.8162 25.276 57.9442 25.284 58.0962C25.3 58.2562 25.312 58.4002 25.32 58.5282H24.024C24.032 58.4242 24.04 58.2882 24.048 58.1202C24.056 57.9602 24.06 57.8322 24.06 57.7362C24.06 57.3522 24.06 57.0042 24.06 56.6922C24.068 56.3722 24.072 56.0442 24.072 55.7082C24.08 55.3642 24.092 54.9602 24.108 54.4962C24.108 54.3122 24.116 54.0722 24.132 53.7762C24.148 53.4802 24.168 53.1522 24.192 52.7922C24.216 52.4322 24.24 52.0682 24.264 51.7002C24.288 51.3322 24.308 50.9842 24.324 50.6562C24.348 50.3282 24.368 50.0482 24.384 49.8162C24.4 49.5842 24.408 49.4322 24.408 49.3602Z" fill="#E22F61"/>
</svg>
