<svg width="34" height="62" viewBox="0 0 34 62" fill="none" xmlns="http://www.w3.org/2000/svg">
<path d="M9.636 7.6084H12.518V24.6584C12.518 25.4797 12.4153 26.0957 12.21 26.5064C12.0047 26.9171 11.6527 27.2324 11.154 27.4524C10.6407 27.6577 9.99533 27.7897 9.218 27.8484C8.45533 27.9217 7.53867 27.9511 6.468 27.9364C6.424 27.6871 6.34333 27.3937 6.226 27.0564C6.10867 26.7337 5.97667 26.4037 5.83 26.0664C5.698 25.7291 5.55867 25.4431 5.412 25.2084C5.896 25.2231 6.38 25.2377 6.864 25.2524C7.348 25.2671 7.78067 25.2744 8.162 25.2744C8.54333 25.2597 8.81467 25.2524 8.976 25.2524C9.21067 25.2524 9.37933 25.2084 9.482 25.1204C9.58467 25.0324 9.636 24.8784 9.636 24.6584V7.6084ZM14.916 13.3944L17.512 12.4264C18.1133 13.4677 18.6927 14.5824 19.25 15.7704C19.822 16.9437 20.3207 18.1024 20.746 19.2464C21.186 20.3757 21.5013 21.4024 21.692 22.3264L18.788 23.4704C18.6413 22.5757 18.37 21.5564 17.974 20.4124C17.5927 19.2537 17.1307 18.0657 16.588 16.8484C16.06 15.6164 15.5027 14.4651 14.916 13.3944ZM3.872 12.6684L6.864 13.1744C6.61467 14.2597 6.314 15.4184 5.962 16.6504C5.61 17.8677 5.192 19.0337 4.708 20.1484C4.23867 21.2484 3.696 22.2091 3.08 23.0304C2.86 22.8691 2.58867 22.7004 2.266 22.5244C1.958 22.3484 1.64267 22.1871 1.32 22.0404C1.012 21.8791 0.733335 21.7471 0.484002 21.6444C1.08533 20.8964 1.606 20.0091 2.046 18.9824C2.50067 17.9411 2.882 16.8704 3.19 15.7704C3.498 14.6557 3.72533 13.6217 3.872 12.6684ZM10.714 40.8764H20.9V43.3624H10.714V40.8764ZM14.344 36.2784H17.006V56.9364H14.344V36.2784ZM14.322 42.0644L16.236 42.7244C15.9427 43.7657 15.598 44.8144 15.202 45.8704C14.8207 46.9264 14.3807 47.9531 13.882 48.9504C13.398 49.9331 12.8773 50.8497 12.32 51.7004C11.7627 52.5511 11.1687 53.2844 10.538 53.9004C10.3913 53.5191 10.164 53.1011 9.856 52.6464C9.56267 52.1917 9.29133 51.8031 9.042 51.4804C9.62867 50.9377 10.186 50.3071 10.714 49.5884C11.2567 48.8551 11.7553 48.0777 12.21 47.2564C12.6793 46.4204 13.09 45.5624 13.442 44.6824C13.794 43.8024 14.0873 42.9297 14.322 42.0644ZM17.16 42.0644C17.468 43.2084 17.8493 44.3597 18.304 45.5184C18.7587 46.6624 19.2647 47.7404 19.822 48.7524C20.394 49.7497 20.9807 50.6004 21.582 51.3044C21.274 51.5391 20.922 51.8544 20.526 52.2504C20.1447 52.6317 19.8367 52.9984 19.602 53.3504C19.0153 52.5144 18.458 51.5097 17.93 50.3364C17.402 49.1484 16.9253 47.8871 16.5 46.5524C16.0747 45.2177 15.7153 43.8904 15.422 42.5704L17.16 42.0644ZM1.056 40.8764H10.032V43.3624H1.056V40.8764ZM4.554 36.2784H7.128V56.9364H4.554V36.2784ZM4.4 42.5044L6.094 43.1204C5.88867 44.0297 5.632 44.9611 5.324 45.9144C5.03067 46.8531 4.70067 47.7771 4.334 48.6864C3.96733 49.5957 3.564 50.4391 3.124 51.2164C2.69867 51.9937 2.244 52.6684 1.76 53.2404C1.64267 52.8591 1.44467 52.4264 1.166 51.9424C0.887335 51.4437 0.645335 51.0184 0.440002 50.6664C0.880002 50.1824 1.298 49.6251 1.694 48.9944C2.09 48.3491 2.464 47.6597 2.816 46.9264C3.168 46.1931 3.476 45.4524 3.74 44.7044C4.01867 43.9564 4.23867 43.2231 4.4 42.5044ZM7.106 43.6924C7.238 43.8097 7.42133 44.0004 7.656 44.2644C7.89067 44.5137 8.14733 44.7997 8.426 45.1224C8.70467 45.4304 8.98333 45.7457 9.262 46.0684C9.54067 46.3911 9.79 46.6771 10.01 46.9264C10.23 47.1757 10.3913 47.3664 10.494 47.4984L8.844 49.7864C8.668 49.4491 8.448 49.0677 8.184 48.6424C7.92 48.2024 7.634 47.7624 7.326 47.3224C7.018 46.8677 6.71733 46.4424 6.424 46.0464C6.14533 45.6357 5.91067 45.2984 5.72 45.0344L7.106 43.6924Z" fill="#E22F61"/>
<path d="M23.724 13.4436C24.164 13.4996 24.656 13.5396 25.2 13.5636C25.752 13.5876 26.332 13.5996 26.94 13.5996C27.332 13.5996 27.728 13.5916 28.128 13.5756C28.528 13.5596 28.912 13.5396 29.28 13.5156C29.656 13.4836 29.992 13.4556 30.288 13.4316V14.6796C30.016 14.7036 29.688 14.7276 29.304 14.7516C28.928 14.7756 28.536 14.7956 28.128 14.8116C27.72 14.8196 27.328 14.8236 26.952 14.8236C26.336 14.8236 25.764 14.8116 25.236 14.7876C24.708 14.7556 24.204 14.7236 23.724 14.6916V13.4436ZM24.444 18.3876C24.372 18.6116 24.316 18.8316 24.276 19.0476C24.236 19.2636 24.216 19.4756 24.216 19.6836C24.216 20.1076 24.432 20.4556 24.864 20.7276C25.304 20.9996 25.98 21.1356 26.892 21.1356C27.444 21.1356 27.972 21.1156 28.476 21.0756C28.988 21.0356 29.464 20.9796 29.904 20.9076C30.344 20.8356 30.724 20.7516 31.044 20.6556L31.056 21.9756C30.744 22.0556 30.372 22.1276 29.94 22.1916C29.516 22.2556 29.048 22.3036 28.536 22.3356C28.032 22.3756 27.5 22.3956 26.94 22.3956C26.084 22.3956 25.36 22.2996 24.768 22.1076C24.176 21.9236 23.728 21.6516 23.424 21.2916C23.12 20.9316 22.968 20.4916 22.968 19.9716C22.968 19.6436 22.996 19.3396 23.052 19.0596C23.108 18.7716 23.16 18.5116 23.208 18.2796L24.444 18.3876Z" fill="#E22F61"/>
<path d="M25.44 31.9196C25.784 31.9516 26.124 31.9796 26.46 32.0036C26.796 32.0196 27.14 32.0276 27.492 32.0276C28.228 32.0276 28.956 31.9956 29.676 31.9316C30.396 31.8676 31.06 31.7756 31.668 31.6556V32.8196C31.036 32.9236 30.36 32.9996 29.64 33.0476C28.92 33.0956 28.204 33.1236 27.492 33.1316C27.148 33.1316 26.808 33.1236 26.472 33.1076C26.136 33.0916 25.792 33.0716 25.44 33.0476V31.9196ZM29.796 29.8196C29.772 29.9396 29.752 30.0636 29.736 30.1916C29.728 30.3196 29.72 30.4436 29.712 30.5636C29.704 30.7076 29.696 30.8916 29.688 31.1156C29.688 31.3316 29.684 31.5716 29.676 31.8356C29.676 32.0916 29.676 32.3476 29.676 32.6036C29.676 33.1076 29.684 33.5916 29.7 34.0556C29.724 34.5196 29.748 34.9596 29.772 35.3756C29.796 35.7916 29.816 36.1836 29.832 36.5516C29.856 36.9116 29.868 37.2396 29.868 37.5356C29.868 37.8156 29.828 38.0796 29.748 38.3276C29.676 38.5676 29.556 38.7836 29.388 38.9756C29.22 39.1676 28.996 39.3156 28.716 39.4196C28.436 39.5316 28.088 39.5876 27.672 39.5876C26.856 39.5876 26.22 39.4276 25.764 39.1076C25.316 38.7876 25.092 38.3396 25.092 37.7636C25.092 37.3956 25.192 37.0676 25.392 36.7796C25.6 36.4916 25.892 36.2636 26.268 36.0956C26.652 35.9276 27.112 35.8436 27.648 35.8436C28.176 35.8436 28.664 35.9036 29.112 36.0236C29.56 36.1436 29.968 36.2996 30.336 36.4916C30.704 36.6836 31.04 36.8956 31.344 37.1276C31.648 37.3596 31.924 37.5836 32.172 37.7996L31.524 38.8076C31.084 38.3916 30.652 38.0316 30.228 37.7276C29.804 37.4236 29.372 37.1876 28.932 37.0196C28.492 36.8516 28.032 36.7676 27.552 36.7676C27.152 36.7676 26.824 36.8476 26.568 37.0076C26.32 37.1676 26.196 37.3796 26.196 37.6436C26.196 37.9156 26.316 38.1236 26.556 38.2676C26.804 38.4036 27.12 38.4716 27.504 38.4716C27.8 38.4716 28.032 38.4236 28.2 38.3276C28.368 38.2316 28.488 38.0956 28.56 37.9196C28.632 37.7356 28.668 37.5156 28.668 37.2596C28.668 37.0516 28.66 36.7716 28.644 36.4196C28.628 36.0596 28.608 35.6676 28.584 35.2436C28.568 34.8116 28.552 34.3716 28.536 33.9236C28.52 33.4676 28.512 33.0316 28.512 32.6156C28.512 32.1836 28.508 31.7876 28.5 31.4276C28.5 31.0596 28.5 30.7796 28.5 30.5876C28.5 30.4916 28.492 30.3676 28.476 30.2156C28.468 30.0636 28.456 29.9316 28.44 29.8196H29.796ZM23.904 29.9276C23.88 29.9996 23.848 30.0956 23.808 30.2156C23.776 30.3276 23.744 30.4436 23.712 30.5636C23.688 30.6836 23.668 30.7796 23.652 30.8516C23.612 31.0516 23.564 31.2996 23.508 31.5956C23.46 31.8916 23.408 32.2196 23.352 32.5796C23.304 32.9316 23.256 33.2916 23.208 33.6596C23.168 34.0276 23.136 34.3796 23.112 34.7156C23.088 35.0516 23.076 35.3476 23.076 35.6036C23.076 35.8116 23.08 36.0236 23.088 36.2396C23.104 36.4476 23.128 36.6636 23.16 36.8876C23.216 36.7196 23.28 36.5476 23.352 36.3716C23.424 36.1956 23.496 36.0196 23.568 35.8436C23.648 35.6676 23.72 35.5036 23.784 35.3516L24.384 35.8196C24.28 36.1236 24.168 36.4516 24.048 36.8036C23.936 37.1476 23.828 37.4756 23.724 37.7876C23.628 38.0996 23.56 38.3596 23.52 38.5676C23.504 38.6476 23.488 38.7436 23.472 38.8556C23.464 38.9596 23.46 39.0476 23.46 39.1196C23.468 39.1756 23.472 39.2436 23.472 39.3236C23.472 39.4116 23.476 39.4956 23.484 39.5756L22.428 39.6476C22.308 39.2236 22.2 38.6876 22.104 38.0396C22.008 37.3836 21.96 36.6476 21.96 35.8316C21.96 35.3916 21.98 34.9276 22.02 34.4396C22.06 33.9516 22.108 33.4796 22.164 33.0236C22.228 32.5596 22.288 32.1356 22.344 31.7516C22.408 31.3596 22.456 31.0436 22.488 30.8036C22.512 30.6516 22.532 30.4876 22.548 30.3116C22.564 30.1356 22.576 29.9676 22.584 29.8076L23.904 29.9276ZM30.804 29.3996C30.884 29.5436 30.964 29.7156 31.044 29.9156C31.124 30.1156 31.204 30.3156 31.284 30.5156C31.364 30.7156 31.432 30.8956 31.488 31.0556L30.768 31.2956C30.712 31.1196 30.648 30.9316 30.576 30.7316C30.504 30.5316 30.428 30.3356 30.348 30.1436C30.276 29.9436 30.2 29.7636 30.12 29.6036L30.804 29.3996ZM32.028 29.0156C32.108 29.1676 32.188 29.3436 32.268 29.5436C32.356 29.7356 32.44 29.9316 32.52 30.1316C32.6 30.3316 32.668 30.5116 32.724 30.6716L32.016 30.8996C31.928 30.6356 31.824 30.3516 31.704 30.0476C31.584 29.7436 31.46 29.4756 31.332 29.2436L32.028 29.0156ZM27.504 42.3796C27.36 42.2196 27.184 42.0436 26.976 41.8516C26.768 41.6516 26.556 41.4556 26.34 41.2636C26.124 41.0716 25.932 40.9156 25.764 40.7956L26.64 40.1716C26.776 40.2756 26.952 40.4196 27.168 40.6036C27.392 40.7876 27.616 40.9796 27.84 41.1796C28.064 41.3796 28.244 41.5556 28.38 41.7076L27.504 42.3796ZM23.928 41.2276C23.968 41.2996 24.012 41.3916 24.06 41.5036C24.116 41.6076 24.172 41.7156 24.228 41.8276C24.284 41.9316 24.332 42.0196 24.372 42.0916C24.612 42.5396 24.864 43.0436 25.128 43.6036C25.4 44.1636 25.652 44.7076 25.884 45.2356C26.036 45.5876 26.196 45.9876 26.364 46.4356C26.54 46.8836 26.712 47.3476 26.88 47.8276C27.048 48.2996 27.204 48.7556 27.348 49.1956C27.5 49.6356 27.628 50.0236 27.732 50.3596L26.424 50.6956C26.304 50.2076 26.16 49.6756 25.992 49.0996C25.824 48.5236 25.64 47.9476 25.44 47.3716C25.24 46.7956 25.028 46.2556 24.804 45.7516C24.628 45.3516 24.456 44.9636 24.288 44.5876C24.12 44.2116 23.956 43.8596 23.796 43.5316C23.644 43.2036 23.492 42.9116 23.34 42.6556C23.26 42.5276 23.16 42.3716 23.04 42.1876C22.92 42.0036 22.808 41.8476 22.704 41.7196L23.928 41.2276ZM21.6 44.7436C21.8 44.6956 22.004 44.6356 22.212 44.5636C22.42 44.4916 22.576 44.4316 22.68 44.3836C23.056 44.2396 23.46 44.0716 23.892 43.8796C24.332 43.6796 24.78 43.4796 25.236 43.2796C25.7 43.0716 26.164 42.8796 26.628 42.7036C27.1 42.5276 27.556 42.3876 27.996 42.2836C28.444 42.1716 28.864 42.1156 29.256 42.1156C29.84 42.1156 30.34 42.2196 30.756 42.4276C31.172 42.6356 31.492 42.9196 31.716 43.2796C31.948 43.6396 32.064 44.0436 32.064 44.4916C32.064 44.9956 31.952 45.4396 31.728 45.8236C31.512 46.2076 31.192 46.5116 30.768 46.7356C30.344 46.9516 29.824 47.0596 29.208 47.0596C28.872 47.0596 28.54 47.0236 28.212 46.9516C27.892 46.8796 27.616 46.8036 27.384 46.7236L27.42 45.5236C27.668 45.6356 27.936 45.7316 28.224 45.8116C28.52 45.8916 28.812 45.9316 29.1 45.9316C29.476 45.9316 29.792 45.8676 30.048 45.7396C30.304 45.6116 30.496 45.4356 30.624 45.2116C30.76 44.9876 30.828 44.7316 30.828 44.4436C30.828 44.2196 30.768 44.0156 30.648 43.8316C30.528 43.6396 30.348 43.4876 30.108 43.3756C29.868 43.2556 29.572 43.1956 29.22 43.1956C28.82 43.1956 28.372 43.2676 27.876 43.4116C27.38 43.5556 26.86 43.7436 26.316 43.9756C25.78 44.1996 25.252 44.4396 24.732 44.6956C24.212 44.9516 23.728 45.1916 23.28 45.4156C22.84 45.6396 22.472 45.8196 22.176 45.9556L21.6 44.7436ZM25.248 51.5796C25.216 51.7956 25.188 52.0276 25.164 52.2756C25.14 52.5156 25.124 52.7436 25.116 52.9596C25.1 53.2876 25.084 53.6956 25.068 54.1836C25.052 54.6636 25.036 55.1756 25.02 55.7196C25.004 56.2556 24.992 56.7876 24.984 57.3156C24.976 57.8356 24.972 58.3036 24.972 58.7196C24.972 59.1436 25.048 59.4796 25.2 59.7276C25.36 59.9756 25.58 60.1556 25.86 60.2676C26.14 60.3716 26.452 60.4236 26.796 60.4236C27.324 60.4236 27.8 60.3556 28.224 60.2196C28.648 60.0836 29.028 59.8996 29.364 59.6676C29.708 59.4356 30.016 59.1716 30.288 58.8756C30.56 58.5796 30.804 58.2716 31.02 57.9516L31.872 58.9956C31.672 59.2836 31.42 59.5836 31.116 59.8956C30.812 60.2076 30.448 60.4996 30.024 60.7716C29.608 61.0436 29.128 61.2636 28.584 61.4316C28.048 61.5996 27.444 61.6836 26.772 61.6836C26.164 61.6836 25.632 61.5916 25.176 61.4076C24.72 61.2236 24.364 60.9276 24.108 60.5196C23.852 60.1116 23.724 59.5756 23.724 58.9116C23.724 58.5676 23.728 58.1796 23.736 57.7476C23.744 57.3156 23.752 56.8716 23.76 56.4156C23.776 55.9516 23.788 55.4996 23.796 55.0596C23.812 54.6196 23.824 54.2156 23.832 53.8476C23.84 53.4796 23.844 53.1836 23.844 52.9596C23.844 52.7036 23.832 52.4596 23.808 52.2276C23.792 51.9876 23.76 51.7676 23.712 51.5676L25.248 51.5796Z" fill="#E22F61"/>
</svg>
