<svg width="34" height="62" viewBox="0 0 34 62" fill="none" xmlns="http://www.w3.org/2000/svg">
<path d="M3.3 23.712H18.678V26.374H3.3V23.712ZM3.3 16.166H18.788V18.806H3.3V16.166ZM1.804 8.774H20.24V27.738H17.49V11.326H4.444V27.738H1.804V8.774ZM9.504 9.962H12.188V25.098H9.504V9.962ZM1.936 40.128H20.108V51.172H17.336V42.724H4.576V51.282H1.936V40.128ZM3.3 47.476H18.876V50.072H3.3V47.476ZM9.548 36.3H12.342V56.958H9.548V36.3Z" fill="black"/>
<path d="M26.472 12.496C26.432 12.64 26.388 12.82 26.34 13.036C26.3 13.244 26.268 13.408 26.244 13.528C26.188 13.808 26.12 14.144 26.04 14.536C25.968 14.92 25.88 15.324 25.776 15.748C25.68 16.172 25.58 16.584 25.476 16.984C25.372 17.408 25.244 17.868 25.092 18.364C24.94 18.86 24.776 19.364 24.6 19.876C24.432 20.38 24.26 20.86 24.084 21.316C23.916 21.764 23.748 22.16 23.58 22.504L22.272 22.06C22.448 21.756 22.632 21.388 22.824 20.956C23.016 20.516 23.204 20.048 23.388 19.552C23.572 19.048 23.744 18.548 23.904 18.052C24.064 17.556 24.2 17.1 24.312 16.684C24.384 16.404 24.456 16.112 24.528 15.808C24.6 15.496 24.668 15.196 24.732 14.908C24.796 14.62 24.848 14.352 24.888 14.104C24.928 13.848 24.96 13.636 24.984 13.468C25.016 13.276 25.032 13.08 25.032 12.88C25.04 12.68 25.04 12.516 25.032 12.388L26.472 12.496ZM23.64 14.416C24.104 14.416 24.596 14.392 25.116 14.344C25.636 14.296 26.164 14.228 26.7 14.14C27.244 14.052 27.768 13.944 28.272 13.816V15.004C27.776 15.116 27.252 15.212 26.7 15.292C26.148 15.372 25.608 15.436 25.08 15.484C24.552 15.524 24.068 15.544 23.628 15.544C23.356 15.544 23.104 15.54 22.872 15.532C22.648 15.524 22.424 15.512 22.2 15.496L22.176 14.32C22.472 14.352 22.732 14.376 22.956 14.392C23.188 14.408 23.416 14.416 23.64 14.416ZM27.42 16.144C27.748 16.112 28.108 16.088 28.5 16.072C28.892 16.048 29.28 16.036 29.664 16.036C30.016 16.036 30.368 16.044 30.72 16.06C31.08 16.068 31.428 16.092 31.764 16.132L31.728 17.284C31.424 17.244 31.096 17.208 30.744 17.176C30.4 17.144 30.048 17.128 29.688 17.128C29.296 17.128 28.912 17.14 28.536 17.164C28.168 17.18 27.796 17.212 27.42 17.26V16.144ZM27.84 19.108C27.8 19.292 27.764 19.476 27.732 19.66C27.7 19.836 27.684 20 27.684 20.152C27.684 20.288 27.708 20.42 27.756 20.548C27.812 20.668 27.904 20.776 28.032 20.872C28.168 20.968 28.356 21.044 28.596 21.1C28.844 21.156 29.16 21.184 29.544 21.184C29.936 21.184 30.336 21.164 30.744 21.124C31.152 21.076 31.552 21.016 31.944 20.944L31.908 22.156C31.572 22.196 31.204 22.232 30.804 22.264C30.412 22.304 29.988 22.324 29.532 22.324C28.556 22.324 27.808 22.168 27.288 21.856C26.776 21.544 26.52 21.092 26.52 20.5C26.52 20.244 26.54 19.992 26.58 19.744C26.62 19.488 26.668 19.24 26.724 19L27.84 19.108Z" fill="black"/>
<path d="M22.092 38.308C22.332 38.332 22.584 38.352 22.848 38.368C23.12 38.376 23.376 38.38 23.616 38.38C24.08 38.38 24.552 38.36 25.032 38.32C25.52 38.272 26 38.204 26.472 38.116C26.952 38.02 27.408 37.904 27.84 37.768L27.876 38.872C27.508 38.976 27.088 39.072 26.616 39.16C26.144 39.248 25.652 39.32 25.14 39.376C24.628 39.432 24.12 39.46 23.616 39.46C23.392 39.46 23.156 39.456 22.908 39.448C22.66 39.44 22.416 39.432 22.176 39.424L22.092 38.308ZM26.52 36.412C26.472 36.612 26.408 36.864 26.328 37.168C26.256 37.472 26.172 37.792 26.076 38.128C25.988 38.464 25.896 38.788 25.8 39.1C25.608 39.676 25.368 40.288 25.08 40.936C24.792 41.576 24.48 42.2 24.144 42.808C23.808 43.416 23.468 43.948 23.124 44.404L21.972 43.816C22.244 43.488 22.512 43.124 22.776 42.724C23.04 42.316 23.288 41.896 23.52 41.464C23.76 41.024 23.976 40.6 24.168 40.192C24.36 39.776 24.516 39.396 24.636 39.052C24.772 38.652 24.896 38.2 25.008 37.696C25.12 37.192 25.184 36.72 25.2 36.28L26.52 36.412ZM29.34 40.132C29.332 40.38 29.328 40.616 29.328 40.84C29.328 41.064 29.332 41.296 29.34 41.536C29.348 41.72 29.356 41.96 29.364 42.256C29.38 42.544 29.396 42.852 29.412 43.18C29.428 43.508 29.44 43.82 29.448 44.116C29.464 44.412 29.472 44.652 29.472 44.836C29.472 45.172 29.396 45.48 29.244 45.76C29.1 46.04 28.868 46.264 28.548 46.432C28.228 46.6 27.804 46.684 27.276 46.684C26.812 46.684 26.388 46.616 26.004 46.48C25.628 46.344 25.324 46.14 25.092 45.868C24.868 45.596 24.756 45.252 24.756 44.836C24.756 44.46 24.86 44.128 25.068 43.84C25.284 43.552 25.58 43.328 25.956 43.168C26.332 43 26.768 42.916 27.264 42.916C27.952 42.916 28.584 43.016 29.16 43.216C29.736 43.408 30.252 43.652 30.708 43.948C31.172 44.236 31.572 44.528 31.908 44.824L31.272 45.844C31.04 45.636 30.784 45.42 30.504 45.196C30.224 44.964 29.912 44.752 29.568 44.56C29.232 44.36 28.864 44.196 28.464 44.068C28.072 43.94 27.652 43.876 27.204 43.876C26.804 43.876 26.48 43.956 26.232 44.116C25.992 44.276 25.872 44.48 25.872 44.728C25.872 44.984 25.976 45.192 26.184 45.352C26.4 45.512 26.712 45.592 27.12 45.592C27.424 45.592 27.664 45.544 27.84 45.448C28.024 45.344 28.152 45.204 28.224 45.028C28.296 44.852 28.332 44.656 28.332 44.44C28.332 44.232 28.324 43.952 28.308 43.6C28.3 43.248 28.284 42.868 28.26 42.46C28.244 42.052 28.224 41.644 28.2 41.236C28.184 40.82 28.172 40.452 28.164 40.132H29.34ZM31.596 40.588C31.372 40.404 31.092 40.208 30.756 40C30.42 39.784 30.076 39.58 29.724 39.388C29.372 39.188 29.06 39.028 28.788 38.908L29.4 37.984C29.616 38.08 29.86 38.196 30.132 38.332C30.404 38.468 30.676 38.612 30.948 38.764C31.22 38.916 31.472 39.068 31.704 39.22C31.936 39.364 32.128 39.488 32.28 39.592L31.596 40.588ZM26.376 48.592C26.352 48.712 26.324 48.848 26.292 49C26.26 49.152 26.232 49.292 26.208 49.42C26.176 49.58 26.136 49.78 26.088 50.02C26.048 50.252 26.004 50.496 25.956 50.752C25.908 51 25.856 51.24 25.8 51.472C25.72 51.808 25.62 52.196 25.5 52.636C25.38 53.076 25.24 53.548 25.08 54.052C24.928 54.548 24.752 55.056 24.552 55.576C24.36 56.088 24.148 56.592 23.916 57.088C23.692 57.576 23.448 58.032 23.184 58.456L21.948 57.964C22.228 57.588 22.488 57.172 22.728 56.716C22.968 56.252 23.188 55.776 23.388 55.288C23.588 54.792 23.768 54.304 23.928 53.824C24.088 53.344 24.224 52.9 24.336 52.492C24.456 52.076 24.548 51.72 24.612 51.424C24.724 50.912 24.812 50.4 24.876 49.888C24.948 49.376 24.98 48.896 24.972 48.448L26.376 48.592ZM30.516 49.804C30.7 50.052 30.896 50.364 31.104 50.74C31.312 51.116 31.516 51.516 31.716 51.94C31.924 52.364 32.108 52.772 32.268 53.164C32.436 53.556 32.568 53.892 32.664 54.172L31.476 54.724C31.396 54.404 31.28 54.044 31.128 53.644C30.984 53.236 30.816 52.824 30.624 52.408C30.44 51.992 30.24 51.6 30.024 51.232C29.816 50.856 29.608 50.54 29.4 50.284L30.516 49.804ZM21.816 51.148C22.016 51.156 22.208 51.16 22.392 51.16C22.584 51.16 22.78 51.156 22.98 51.148C23.172 51.14 23.408 51.128 23.688 51.112C23.968 51.088 24.268 51.064 24.588 51.04C24.916 51.008 25.24 50.98 25.56 50.956C25.888 50.924 26.188 50.9 26.46 50.884C26.732 50.868 26.952 50.86 27.12 50.86C27.512 50.86 27.86 50.924 28.164 51.052C28.468 51.172 28.708 51.388 28.884 51.7C29.068 52.012 29.16 52.448 29.16 53.008C29.16 53.48 29.14 53.992 29.1 54.544C29.06 55.088 28.988 55.612 28.884 56.116C28.788 56.612 28.652 57.028 28.476 57.364C28.284 57.78 28.032 58.056 27.72 58.192C27.416 58.336 27.052 58.408 26.628 58.408C26.404 58.408 26.16 58.392 25.896 58.36C25.632 58.328 25.4 58.288 25.2 58.24L25.008 56.992C25.168 57.032 25.34 57.072 25.524 57.112C25.716 57.152 25.896 57.184 26.064 57.208C26.232 57.224 26.368 57.232 26.472 57.232C26.688 57.232 26.876 57.196 27.036 57.124C27.204 57.044 27.344 56.888 27.456 56.656C27.576 56.408 27.676 56.088 27.756 55.696C27.836 55.304 27.896 54.884 27.936 54.436C27.976 53.988 27.996 53.556 27.996 53.14C27.996 52.788 27.944 52.528 27.84 52.36C27.744 52.192 27.604 52.08 27.42 52.024C27.236 51.96 27.02 51.928 26.772 51.928C26.58 51.928 26.316 51.944 25.98 51.976C25.652 52 25.3 52.032 24.924 52.072C24.548 52.112 24.2 52.152 23.88 52.192C23.56 52.224 23.308 52.252 23.124 52.276C22.972 52.292 22.776 52.316 22.536 52.348C22.304 52.38 22.104 52.412 21.936 52.444L21.816 51.148Z" fill="black"/>
</svg>
