<svg width="34" height="62" viewBox="0 0 34 62" fill="none" xmlns="http://www.w3.org/2000/svg">
<path d="M3.29999 23.7124H18.678V26.3744H3.29999V23.7124ZM3.29999 16.1664H18.788V18.8064H3.29999V16.1664ZM1.80399 8.77441H20.24V27.7384H17.49V11.3264H4.44399V27.7384H1.80399V8.77441ZM9.50399 9.96241H12.188V25.0984H9.50399V9.96241ZM1.93599 40.1284H20.108V51.1724H17.336V42.7244H4.57599V51.2824H1.93599V40.1284ZM3.29999 47.4764H18.876V50.0724H3.29999V47.4764ZM9.54799 36.3004H12.342V56.9584H9.54799V36.3004Z" fill="#E22F61"/>
<path d="M26.472 12.4957C26.432 12.6397 26.388 12.8197 26.34 13.0357C26.3 13.2437 26.268 13.4077 26.244 13.5277C26.188 13.8077 26.12 14.1437 26.04 14.5357C25.968 14.9197 25.88 15.3237 25.776 15.7477C25.68 16.1717 25.58 16.5837 25.476 16.9837C25.372 17.4077 25.244 17.8677 25.092 18.3637C24.94 18.8597 24.776 19.3637 24.6 19.8757C24.432 20.3797 24.26 20.8597 24.084 21.3157C23.916 21.7637 23.748 22.1597 23.58 22.5037L22.272 22.0597C22.448 21.7557 22.632 21.3877 22.824 20.9557C23.016 20.5157 23.204 20.0477 23.388 19.5517C23.572 19.0477 23.744 18.5477 23.904 18.0517C24.064 17.5557 24.2 17.0997 24.312 16.6837C24.384 16.4037 24.456 16.1117 24.528 15.8077C24.6 15.4957 24.668 15.1957 24.732 14.9077C24.796 14.6197 24.848 14.3517 24.888 14.1037C24.928 13.8477 24.96 13.6357 24.984 13.4677C25.016 13.2757 25.032 13.0797 25.032 12.8797C25.04 12.6797 25.04 12.5157 25.032 12.3877L26.472 12.4957ZM23.64 14.4157C24.104 14.4157 24.596 14.3917 25.116 14.3437C25.636 14.2957 26.164 14.2277 26.7 14.1397C27.244 14.0517 27.768 13.9437 28.272 13.8157V15.0037C27.776 15.1157 27.252 15.2117 26.7 15.2917C26.148 15.3717 25.608 15.4357 25.08 15.4837C24.552 15.5237 24.068 15.5437 23.628 15.5437C23.356 15.5437 23.104 15.5397 22.872 15.5317C22.648 15.5237 22.424 15.5117 22.2 15.4957L22.176 14.3197C22.472 14.3517 22.732 14.3757 22.956 14.3917C23.188 14.4077 23.416 14.4157 23.64 14.4157ZM27.42 16.1437C27.748 16.1117 28.108 16.0877 28.5 16.0717C28.892 16.0477 29.28 16.0357 29.664 16.0357C30.016 16.0357 30.368 16.0437 30.72 16.0597C31.08 16.0677 31.428 16.0917 31.764 16.1317L31.728 17.2837C31.424 17.2437 31.096 17.2077 30.744 17.1757C30.4 17.1437 30.048 17.1277 29.688 17.1277C29.296 17.1277 28.912 17.1397 28.536 17.1637C28.168 17.1797 27.796 17.2117 27.42 17.2597V16.1437ZM27.84 19.1077C27.8 19.2917 27.764 19.4757 27.732 19.6597C27.7 19.8357 27.684 19.9997 27.684 20.1517C27.684 20.2877 27.708 20.4197 27.756 20.5477C27.812 20.6677 27.904 20.7757 28.032 20.8717C28.168 20.9677 28.356 21.0437 28.596 21.0997C28.844 21.1557 29.16 21.1837 29.544 21.1837C29.936 21.1837 30.336 21.1637 30.744 21.1237C31.152 21.0757 31.552 21.0157 31.944 20.9437L31.908 22.1557C31.572 22.1957 31.204 22.2317 30.804 22.2637C30.412 22.3037 29.988 22.3237 29.532 22.3237C28.556 22.3237 27.808 22.1677 27.288 21.8557C26.776 21.5437 26.52 21.0917 26.52 20.4997C26.52 20.2437 26.54 19.9917 26.58 19.7437C26.62 19.4877 26.668 19.2397 26.724 18.9997L27.84 19.1077Z" fill="#E22F61"/>
<path d="M22.092 38.3083C22.332 38.3323 22.584 38.3523 22.848 38.3683C23.12 38.3763 23.376 38.3803 23.616 38.3803C24.08 38.3803 24.552 38.3603 25.032 38.3203C25.52 38.2723 26 38.2043 26.472 38.1163C26.952 38.0203 27.408 37.9043 27.84 37.7683L27.876 38.8723C27.508 38.9763 27.088 39.0723 26.616 39.1603C26.144 39.2483 25.652 39.3203 25.14 39.3763C24.628 39.4323 24.12 39.4603 23.616 39.4603C23.392 39.4603 23.156 39.4563 22.908 39.4483C22.66 39.4403 22.416 39.4323 22.176 39.4243L22.092 38.3083ZM26.52 36.4123C26.472 36.6123 26.408 36.8643 26.328 37.1683C26.256 37.4723 26.172 37.7923 26.076 38.1283C25.988 38.4643 25.896 38.7883 25.8 39.1003C25.608 39.6763 25.368 40.2883 25.08 40.9363C24.792 41.5763 24.48 42.2003 24.144 42.8083C23.808 43.4163 23.468 43.9483 23.124 44.4043L21.972 43.8163C22.244 43.4883 22.512 43.1243 22.776 42.7243C23.04 42.3163 23.288 41.8963 23.52 41.4643C23.76 41.0243 23.976 40.6003 24.168 40.1923C24.36 39.7763 24.516 39.3963 24.636 39.0523C24.772 38.6523 24.896 38.2003 25.008 37.6963C25.12 37.1923 25.184 36.7203 25.2 36.2803L26.52 36.4123ZM29.34 40.1323C29.332 40.3803 29.328 40.6163 29.328 40.8403C29.328 41.0643 29.332 41.2963 29.34 41.5363C29.348 41.7203 29.356 41.9603 29.364 42.2563C29.38 42.5443 29.396 42.8523 29.412 43.1803C29.428 43.5083 29.44 43.8203 29.448 44.1163C29.464 44.4123 29.472 44.6523 29.472 44.8363C29.472 45.1723 29.396 45.4803 29.244 45.7603C29.1 46.0403 28.868 46.2643 28.548 46.4323C28.228 46.6003 27.804 46.6843 27.276 46.6843C26.812 46.6843 26.388 46.6163 26.004 46.4803C25.628 46.3443 25.324 46.1403 25.092 45.8683C24.868 45.5963 24.756 45.2523 24.756 44.8363C24.756 44.4603 24.86 44.1283 25.068 43.8403C25.284 43.5523 25.58 43.3283 25.956 43.1683C26.332 43.0003 26.768 42.9163 27.264 42.9163C27.952 42.9163 28.584 43.0163 29.16 43.2163C29.736 43.4083 30.252 43.6523 30.708 43.9483C31.172 44.2363 31.572 44.5283 31.908 44.8243L31.272 45.8443C31.04 45.6363 30.784 45.4203 30.504 45.1963C30.224 44.9643 29.912 44.7523 29.568 44.5603C29.232 44.3603 28.864 44.1963 28.464 44.0683C28.072 43.9403 27.652 43.8763 27.204 43.8763C26.804 43.8763 26.48 43.9563 26.232 44.1163C25.992 44.2763 25.872 44.4803 25.872 44.7283C25.872 44.9843 25.976 45.1923 26.184 45.3523C26.4 45.5123 26.712 45.5923 27.12 45.5923C27.424 45.5923 27.664 45.5443 27.84 45.4483C28.024 45.3443 28.152 45.2043 28.224 45.0283C28.296 44.8523 28.332 44.6563 28.332 44.4403C28.332 44.2323 28.324 43.9523 28.308 43.6003C28.3 43.2483 28.284 42.8683 28.26 42.4603C28.244 42.0523 28.224 41.6443 28.2 41.2363C28.184 40.8203 28.172 40.4523 28.164 40.1323H29.34ZM31.596 40.5883C31.372 40.4043 31.092 40.2083 30.756 40.0003C30.42 39.7843 30.076 39.5803 29.724 39.3883C29.372 39.1883 29.06 39.0283 28.788 38.9083L29.4 37.9843C29.616 38.0803 29.86 38.1963 30.132 38.3323C30.404 38.4683 30.676 38.6123 30.948 38.7643C31.22 38.9163 31.472 39.0683 31.704 39.2203C31.936 39.3643 32.128 39.4883 32.28 39.5923L31.596 40.5883ZM26.376 48.5923C26.352 48.7123 26.324 48.8483 26.292 49.0003C26.26 49.1523 26.232 49.2923 26.208 49.4203C26.176 49.5803 26.136 49.7803 26.088 50.0203C26.048 50.2523 26.004 50.4963 25.956 50.7523C25.908 51.0003 25.856 51.2403 25.8 51.4723C25.72 51.8083 25.62 52.1963 25.5 52.6363C25.38 53.0763 25.24 53.5483 25.08 54.0523C24.928 54.5483 24.752 55.0563 24.552 55.5763C24.36 56.0883 24.148 56.5923 23.916 57.0883C23.692 57.5763 23.448 58.0323 23.184 58.4563L21.948 57.9643C22.228 57.5883 22.488 57.1723 22.728 56.7163C22.968 56.2523 23.188 55.7763 23.388 55.2883C23.588 54.7923 23.768 54.3043 23.928 53.8243C24.088 53.3443 24.224 52.9003 24.336 52.4923C24.456 52.0763 24.548 51.7203 24.612 51.4243C24.724 50.9123 24.812 50.4003 24.876 49.8883C24.948 49.3763 24.98 48.8963 24.972 48.4483L26.376 48.5923ZM30.516 49.8043C30.7 50.0523 30.896 50.3643 31.104 50.7403C31.312 51.1163 31.516 51.5163 31.716 51.9403C31.924 52.3643 32.108 52.7723 32.268 53.1643C32.436 53.5563 32.568 53.8923 32.664 54.1723L31.476 54.7243C31.396 54.4043 31.28 54.0443 31.128 53.6443C30.984 53.2363 30.816 52.8243 30.624 52.4083C30.44 51.9923 30.24 51.6003 30.024 51.2323C29.816 50.8563 29.608 50.5403 29.4 50.2843L30.516 49.8043ZM21.816 51.1483C22.016 51.1563 22.208 51.1603 22.392 51.1603C22.584 51.1603 22.78 51.1563 22.98 51.1483C23.172 51.1403 23.408 51.1283 23.688 51.1123C23.968 51.0883 24.268 51.0643 24.588 51.0403C24.916 51.0083 25.24 50.9803 25.56 50.9563C25.888 50.9243 26.188 50.9003 26.46 50.8843C26.732 50.8683 26.952 50.8603 27.12 50.8603C27.512 50.8603 27.86 50.9243 28.164 51.0523C28.468 51.1723 28.708 51.3883 28.884 51.7003C29.068 52.0123 29.16 52.4483 29.16 53.0083C29.16 53.4803 29.14 53.9923 29.1 54.5443C29.06 55.0883 28.988 55.6123 28.884 56.1163C28.788 56.6123 28.652 57.0283 28.476 57.3643C28.284 57.7803 28.032 58.0563 27.72 58.1923C27.416 58.3363 27.052 58.4083 26.628 58.4083C26.404 58.4083 26.16 58.3923 25.896 58.3603C25.632 58.3283 25.4 58.2883 25.2 58.2403L25.008 56.9923C25.168 57.0323 25.34 57.0723 25.524 57.1123C25.716 57.1523 25.896 57.1843 26.064 57.2083C26.232 57.2243 26.368 57.2323 26.472 57.2323C26.688 57.2323 26.876 57.1963 27.036 57.1243C27.204 57.0443 27.344 56.8883 27.456 56.6563C27.576 56.4083 27.676 56.0883 27.756 55.6963C27.836 55.3043 27.896 54.8843 27.936 54.4363C27.976 53.9883 27.996 53.5563 27.996 53.1403C27.996 52.7883 27.944 52.5283 27.84 52.3603C27.744 52.1923 27.604 52.0803 27.42 52.0243C27.236 51.9603 27.02 51.9283 26.772 51.9283C26.58 51.9283 26.316 51.9443 25.98 51.9763C25.652 52.0003 25.3 52.0323 24.924 52.0723C24.548 52.1123 24.2 52.1523 23.88 52.1923C23.56 52.2243 23.308 52.2523 23.124 52.2763C22.972 52.2923 22.776 52.3163 22.536 52.3483C22.304 52.3803 22.104 52.4123 21.936 52.4443L21.816 51.1483Z" fill="#E22F61"/>
</svg>
