<svg width="34" height="62" viewBox="0 0 34 62" fill="none" xmlns="http://www.w3.org/2000/svg">
<path d="M2.2 24.044H19.954V26.354H2.2V24.044ZM0.99 33.328H10.076V35.616H0.99V33.328ZM10.736 33.328H21.076V35.616H10.736V33.328ZM9.57 21.756H12.21V31.7H9.57V21.756ZM4.73 30.974H7.194V42.458H4.73V30.974ZM14.234 30.974H16.742V42.458H14.234V30.974ZM8.756 24.506L10.912 25.32C10.3253 26.2587 9.60667 27.1387 8.756 27.96C7.92 28.7667 6.996 29.4927 5.984 30.138C4.972 30.7687 3.916 31.2893 2.816 31.7C2.65467 31.3773 2.41267 31.018 2.09 30.622C1.76733 30.226 1.46667 29.9033 1.188 29.654C2.22933 29.346 3.234 28.9353 4.202 28.422C5.17 27.894 6.05 27.2927 6.842 26.618C7.634 25.9433 8.272 25.2393 8.756 24.506ZM12.804 24.506C13.3467 25.2247 14.0433 25.9067 14.894 26.552C15.7447 27.1973 16.6833 27.7693 17.71 28.268C18.7513 28.7667 19.822 29.1627 20.922 29.456C20.746 29.632 20.548 29.852 20.328 30.116C20.108 30.3653 19.9027 30.6293 19.712 30.908C19.5213 31.172 19.36 31.414 19.228 31.634C18.1133 31.238 17.0353 30.7247 15.994 30.094C14.9527 29.4633 13.992 28.7373 13.112 27.916C12.232 27.0947 11.4693 26.2147 10.824 25.276L12.804 24.506ZM13.772 33.834L15.686 34.362C15.3487 35.3593 14.9233 36.32 14.41 37.244C13.9113 38.168 13.3467 39.004 12.716 39.752C12.0853 40.5 11.3887 41.1233 10.626 41.622C10.45 41.3287 10.2007 40.9913 9.878 40.61C9.57 40.2287 9.27667 39.928 8.998 39.708C9.702 39.3267 10.362 38.828 10.978 38.212C11.594 37.5813 12.1367 36.892 12.606 36.144C13.09 35.396 13.4787 34.626 13.772 33.834ZM17.028 34.098C17.3653 34.7727 17.776 35.4547 18.26 36.144C18.7587 36.8187 19.294 37.442 19.866 38.014C20.4527 38.586 21.0467 39.07 21.648 39.466C21.3547 39.7007 21.0247 40.0233 20.658 40.434C20.2913 40.8447 19.998 41.226 19.778 41.578C19.206 41.0647 18.6413 40.434 18.084 39.686C17.5413 38.938 17.0353 38.1313 16.566 37.266C16.1113 36.386 15.73 35.506 15.422 34.626L17.028 34.098ZM4.598 34.01L6.358 34.67C6.02067 35.5793 5.61733 36.4667 5.148 37.332C4.67867 38.1973 4.15067 38.9893 3.564 39.708C2.97733 40.4267 2.332 41.0207 1.628 41.49C1.52533 41.1233 1.35667 40.7053 1.122 40.236C0.902 39.7667 0.696667 39.3633 0.506 39.026C1.09267 38.6593 1.64267 38.212 2.156 37.684C2.684 37.156 3.15333 36.5767 3.564 35.946C3.98933 35.3153 4.334 34.67 4.598 34.01ZM6.864 35.748C7.02533 35.836 7.26 35.9753 7.568 36.166C7.89067 36.3567 8.22067 36.5693 8.558 36.804C8.89533 37.024 9.21067 37.2367 9.504 37.442C9.79733 37.6327 10.0027 37.772 10.12 37.86L8.58 39.818C8.41867 39.6127 8.19867 39.378 7.92 39.114C7.656 38.85 7.37 38.5787 7.062 38.3C6.76867 38.0067 6.48267 37.7353 6.204 37.486C5.92533 37.222 5.68333 37.0093 5.478 36.848L6.864 35.748Z" fill="black"/>
<path d="M26.448 21.484C26.408 21.668 26.372 21.836 26.34 21.988C26.316 22.14 26.292 22.288 26.268 22.432C26.244 22.632 26.208 22.896 26.16 23.224C26.12 23.544 26.072 23.904 26.016 24.304C25.96 24.704 25.908 25.116 25.86 25.54C25.812 25.964 25.764 26.38 25.716 26.788C25.668 27.188 25.632 27.556 25.608 27.892C25.584 28.22 25.572 28.488 25.572 28.696C25.572 29.24 25.728 29.664 26.04 29.968C26.36 30.272 26.844 30.424 27.492 30.424C28.076 30.424 28.576 30.344 28.992 30.184C29.416 30.024 29.74 29.8 29.964 29.512C30.188 29.224 30.3 28.892 30.3 28.516C30.3 28.108 30.192 27.7 29.976 27.292C29.768 26.884 29.452 26.492 29.028 26.116L30.36 25.84C30.76 26.312 31.06 26.772 31.26 27.22C31.46 27.66 31.56 28.14 31.56 28.66C31.56 29.252 31.388 29.772 31.044 30.22C30.708 30.668 30.236 31.016 29.628 31.264C29.02 31.512 28.3 31.636 27.468 31.636C26.884 31.636 26.36 31.544 25.896 31.36C25.432 31.176 25.064 30.884 24.792 30.484C24.528 30.084 24.396 29.552 24.396 28.888C24.396 28.64 24.416 28.308 24.456 27.892C24.496 27.476 24.544 27.02 24.6 26.524C24.664 26.028 24.728 25.524 24.792 25.012C24.864 24.492 24.924 24.004 24.972 23.548C25.028 23.084 25.068 22.688 25.092 22.36C25.116 22.12 25.128 21.932 25.128 21.796C25.128 21.66 25.12 21.532 25.104 21.412L26.448 21.484ZM22.416 23.032C22.76 23.144 23.14 23.236 23.556 23.308C23.972 23.38 24.396 23.436 24.828 23.476C25.26 23.508 25.664 23.524 26.04 23.524C26.504 23.524 26.94 23.512 27.348 23.488C27.756 23.456 28.124 23.416 28.452 23.368L28.416 24.496C28.04 24.528 27.668 24.556 27.3 24.58C26.932 24.604 26.5 24.616 26.004 24.616C25.636 24.616 25.236 24.596 24.804 24.556C24.38 24.516 23.956 24.46 23.532 24.388C23.108 24.308 22.716 24.224 22.356 24.136L22.416 23.032ZM22.14 26.02C22.548 26.156 22.968 26.264 23.4 26.344C23.832 26.424 24.26 26.48 24.684 26.512C25.116 26.536 25.524 26.548 25.908 26.548C26.3 26.548 26.704 26.536 27.12 26.512C27.544 26.488 27.96 26.452 28.368 26.404L28.332 27.532C27.964 27.572 27.596 27.604 27.228 27.628C26.86 27.644 26.48 27.652 26.088 27.652C25.368 27.652 24.656 27.612 23.952 27.532C23.248 27.444 22.624 27.324 22.08 27.172L22.14 26.02ZM25.176 33.46C25.128 33.644 25.076 33.868 25.02 34.132C24.964 34.388 24.912 34.656 24.864 34.936C24.816 35.216 24.772 35.488 24.732 35.752C24.7 36.008 24.676 36.232 24.66 36.424C24.796 36.152 24.964 35.876 25.164 35.596C25.372 35.316 25.612 35.06 25.884 34.828C26.156 34.596 26.452 34.408 26.772 34.264C27.092 34.12 27.432 34.048 27.792 34.048C28.336 34.048 28.82 34.22 29.244 34.564C29.676 34.9 30.016 35.38 30.264 36.004C30.512 36.628 30.636 37.372 30.636 38.236C30.636 39.068 30.512 39.796 30.264 40.42C30.016 41.044 29.664 41.572 29.208 42.004C28.752 42.436 28.208 42.788 27.576 43.06C26.944 43.34 26.248 43.548 25.488 43.684L24.768 42.592C25.424 42.488 26.032 42.344 26.592 42.16C27.152 41.968 27.64 41.708 28.056 41.38C28.472 41.052 28.792 40.632 29.016 40.12C29.248 39.608 29.364 38.98 29.364 38.236C29.364 37.612 29.296 37.068 29.16 36.604C29.024 36.14 28.824 35.78 28.56 35.524C28.296 35.268 27.972 35.14 27.588 35.14C27.22 35.14 26.868 35.26 26.532 35.5C26.196 35.74 25.892 36.048 25.62 36.424C25.356 36.8 25.14 37.204 24.972 37.636C24.812 38.068 24.716 38.484 24.684 38.884C24.668 39.084 24.66 39.292 24.66 39.508C24.668 39.724 24.692 39.976 24.732 40.264L23.556 40.348C23.532 40.124 23.504 39.844 23.472 39.508C23.44 39.164 23.424 38.796 23.424 38.404C23.424 38.116 23.436 37.808 23.46 37.48C23.484 37.144 23.512 36.804 23.544 36.46C23.576 36.108 23.612 35.768 23.652 35.44C23.7 35.112 23.74 34.812 23.772 34.54C23.804 34.332 23.824 34.132 23.832 33.94C23.848 33.748 23.86 33.568 23.868 33.4L25.176 33.46Z" fill="black"/>
</svg>
