<svg width="34" height="62" viewBox="0 0 34 62" fill="none" xmlns="http://www.w3.org/2000/svg">
<path d="M9.636 7.608H12.518V24.658C12.518 25.4793 12.4153 26.0953 12.21 26.506C12.0047 26.9167 11.6527 27.232 11.154 27.452C10.6407 27.6573 9.99533 27.7893 9.218 27.848C8.45533 27.9213 7.53867 27.9507 6.468 27.936C6.424 27.6867 6.34333 27.3933 6.226 27.056C6.10867 26.7333 5.97667 26.4033 5.83 26.066C5.698 25.7287 5.55867 25.4427 5.412 25.208C5.896 25.2227 6.38 25.2373 6.864 25.252C7.348 25.2667 7.78067 25.274 8.162 25.274C8.54333 25.2593 8.81467 25.252 8.976 25.252C9.21067 25.252 9.37933 25.208 9.482 25.12C9.58467 25.032 9.636 24.878 9.636 24.658V7.608ZM14.916 13.394L17.512 12.426C18.1133 13.4673 18.6927 14.582 19.25 15.77C19.822 16.9433 20.3207 18.102 20.746 19.246C21.186 20.3753 21.5013 21.402 21.692 22.326L18.788 23.47C18.6413 22.5753 18.37 21.556 17.974 20.412C17.5927 19.2533 17.1307 18.0653 16.588 16.848C16.06 15.616 15.5027 14.4647 14.916 13.394ZM3.872 12.668L6.864 13.174C6.61467 14.2593 6.314 15.418 5.962 16.65C5.61 17.8673 5.192 19.0333 4.708 20.148C4.23867 21.248 3.696 22.2087 3.08 23.03C2.86 22.8687 2.58867 22.7 2.266 22.524C1.958 22.348 1.64267 22.1867 1.32 22.04C1.012 21.8787 0.733333 21.7467 0.484 21.644C1.08533 20.896 1.606 20.0087 2.046 18.982C2.50067 17.9407 2.882 16.87 3.19 15.77C3.498 14.6553 3.72533 13.6213 3.872 12.668ZM3.322 37.422H6.028V45.034C6.028 46.1193 5.99133 47.2047 5.918 48.29C5.85933 49.3607 5.72 50.4167 5.5 51.458C5.28 52.4993 4.95 53.504 4.51 54.472C4.08467 55.44 3.50533 56.342 2.772 57.178C2.61067 56.9727 2.39067 56.7453 2.112 56.496C1.848 56.2613 1.56933 56.0267 1.276 55.792C0.982667 55.572 0.726 55.396 0.506 55.264C1.35667 54.3107 1.98 53.2767 2.376 52.162C2.772 51.0327 3.02867 49.8667 3.146 48.664C3.26333 47.4467 3.322 46.2367 3.322 45.034V37.422ZM10.054 38.368H12.76V54.846H10.054V38.368ZM16.786 37.378H19.558V56.914H16.786V37.378Z" fill="black"/>
<path d="M26.064 12.34C26.048 12.412 26.036 12.504 26.028 12.616C26.02 12.72 26.008 12.832 25.992 12.952C25.984 13.064 25.976 13.168 25.968 13.264C25.96 13.472 25.948 13.72 25.932 14.008C25.924 14.288 25.912 14.596 25.896 14.932C25.888 15.26 25.88 15.592 25.872 15.928C25.872 16.256 25.872 16.572 25.872 16.876C25.872 17.188 25.876 17.536 25.884 17.92C25.892 18.304 25.9 18.684 25.908 19.06C25.916 19.428 25.924 19.772 25.932 20.092C25.94 20.404 25.944 20.652 25.944 20.836C25.944 21.26 25.892 21.592 25.788 21.832C25.692 22.072 25.556 22.24 25.38 22.336C25.212 22.432 25.008 22.48 24.768 22.48C24.512 22.48 24.232 22.424 23.928 22.312C23.624 22.2 23.336 22.048 23.064 21.856C22.792 21.664 22.568 21.44 22.392 21.184C22.216 20.928 22.128 20.656 22.128 20.368C22.128 20 22.268 19.636 22.548 19.276C22.836 18.908 23.212 18.572 23.676 18.268C24.14 17.964 24.632 17.716 25.152 17.524C25.696 17.324 26.252 17.172 26.82 17.068C27.388 16.964 27.904 16.912 28.368 16.912C28.968 16.912 29.504 17.012 29.976 17.212C30.448 17.412 30.82 17.7 31.092 18.076C31.364 18.452 31.5 18.896 31.5 19.408C31.5 19.88 31.404 20.304 31.212 20.68C31.028 21.056 30.744 21.376 30.36 21.64C29.976 21.904 29.492 22.108 28.908 22.252C28.636 22.308 28.368 22.348 28.104 22.372C27.848 22.396 27.608 22.416 27.384 22.432L26.952 21.208C27.192 21.216 27.436 21.216 27.684 21.208C27.932 21.2 28.168 21.172 28.392 21.124C28.728 21.06 29.04 20.96 29.328 20.824C29.616 20.68 29.844 20.492 30.012 20.26C30.188 20.02 30.276 19.732 30.276 19.396C30.276 19.084 30.192 18.824 30.024 18.616C29.856 18.4 29.628 18.236 29.34 18.124C29.052 18.012 28.724 17.956 28.356 17.956C27.836 17.956 27.32 18.012 26.808 18.124C26.296 18.228 25.792 18.376 25.296 18.568C24.928 18.712 24.592 18.884 24.288 19.084C23.984 19.284 23.744 19.492 23.568 19.708C23.392 19.916 23.304 20.116 23.304 20.308C23.304 20.428 23.344 20.544 23.424 20.656C23.504 20.76 23.6 20.852 23.712 20.932C23.832 21.012 23.956 21.076 24.084 21.124C24.212 21.172 24.328 21.196 24.432 21.196C24.552 21.196 24.648 21.156 24.72 21.076C24.8 20.988 24.84 20.844 24.84 20.644C24.84 20.42 24.832 20.104 24.816 19.696C24.808 19.288 24.8 18.84 24.792 18.352C24.784 17.856 24.78 17.38 24.78 16.924C24.78 16.58 24.78 16.224 24.78 15.856C24.788 15.48 24.792 15.12 24.792 14.776C24.8 14.432 24.804 14.128 24.804 13.864C24.812 13.6 24.816 13.408 24.816 13.288C24.816 13.2 24.812 13.096 24.804 12.976C24.796 12.856 24.788 12.74 24.78 12.628C24.772 12.508 24.76 12.412 24.744 12.34H26.064ZM29.652 13.66C29.948 13.804 30.276 13.984 30.636 14.2C31.004 14.408 31.352 14.62 31.68 14.836C32.016 15.044 32.284 15.228 32.484 15.388L31.896 16.348C31.752 16.212 31.56 16.064 31.32 15.904C31.088 15.744 30.836 15.58 30.564 15.412C30.3 15.244 30.04 15.088 29.784 14.944C29.536 14.792 29.316 14.668 29.124 14.572L29.652 13.66ZM22.38 14.416C22.724 14.456 23.02 14.484 23.268 14.5C23.516 14.508 23.752 14.512 23.976 14.512C24.272 14.512 24.608 14.496 24.984 14.464C25.36 14.432 25.74 14.392 26.124 14.344C26.516 14.296 26.896 14.236 27.264 14.164C27.64 14.084 27.98 14 28.284 13.912L28.308 15.088C27.988 15.16 27.632 15.228 27.24 15.292C26.856 15.356 26.464 15.416 26.064 15.472C25.672 15.52 25.296 15.56 24.936 15.592C24.584 15.616 24.272 15.628 24 15.628C23.64 15.628 23.336 15.624 23.088 15.616C22.84 15.6 22.616 15.584 22.416 15.568L22.38 14.416Z" fill="black"/>
<path d="M26.256 36.652C26.224 36.772 26.192 36.908 26.16 37.06C26.136 37.212 26.108 37.352 26.076 37.48C26.052 37.64 26.016 37.84 25.968 38.08C25.92 38.312 25.872 38.556 25.824 38.812C25.784 39.06 25.736 39.3 25.68 39.532C25.6 39.868 25.5 40.256 25.38 40.696C25.26 41.136 25.12 41.608 24.96 42.112C24.808 42.608 24.632 43.116 24.432 43.636C24.24 44.148 24.028 44.652 23.796 45.148C23.572 45.636 23.328 46.092 23.064 46.516L21.828 46.024C22.108 45.656 22.368 45.24 22.608 44.776C22.848 44.312 23.068 43.836 23.268 43.348C23.468 42.852 23.648 42.364 23.808 41.884C23.968 41.404 24.104 40.96 24.216 40.552C24.328 40.136 24.416 39.78 24.48 39.484C24.592 38.972 24.68 38.46 24.744 37.948C24.816 37.436 24.852 36.956 24.852 36.508L26.256 36.652ZM30.384 37.96C30.568 38.208 30.764 38.52 30.972 38.896C31.188 39.264 31.396 39.656 31.596 40.072C31.796 40.488 31.98 40.892 32.148 41.284C32.316 41.668 32.448 42 32.544 42.28L31.356 42.844C31.268 42.524 31.148 42.164 30.996 41.764C30.852 41.364 30.684 40.96 30.492 40.552C30.308 40.136 30.108 39.744 29.892 39.376C29.684 39.008 29.476 38.7 29.268 38.452L30.384 37.96ZM21.696 39.208C21.896 39.216 22.088 39.22 22.272 39.22C22.456 39.22 22.652 39.216 22.86 39.208C23.044 39.2 23.276 39.188 23.556 39.172C23.844 39.148 24.148 39.124 24.468 39.1C24.796 39.068 25.12 39.04 25.44 39.016C25.76 38.984 26.056 38.96 26.328 38.944C26.608 38.928 26.832 38.92 27 38.92C27.384 38.92 27.728 38.984 28.032 39.112C28.344 39.232 28.588 39.448 28.764 39.76C28.948 40.072 29.04 40.508 29.04 41.068C29.04 41.54 29.016 42.052 28.968 42.604C28.928 43.148 28.856 43.672 28.752 44.176C28.656 44.672 28.524 45.088 28.356 45.424C28.164 45.84 27.912 46.12 27.6 46.264C27.288 46.408 26.924 46.48 26.508 46.48C26.276 46.48 26.028 46.46 25.764 46.42C25.508 46.388 25.28 46.348 25.08 46.3L24.876 45.052C25.044 45.1 25.22 45.144 25.404 45.184C25.588 45.216 25.764 45.244 25.932 45.268C26.1 45.284 26.24 45.292 26.352 45.292C26.56 45.292 26.748 45.256 26.916 45.184C27.084 45.104 27.224 44.952 27.336 44.728C27.456 44.472 27.552 44.148 27.624 43.756C27.704 43.364 27.764 42.944 27.804 42.496C27.844 42.048 27.864 41.616 27.864 41.2C27.864 40.848 27.816 40.588 27.72 40.42C27.624 40.252 27.484 40.14 27.3 40.084C27.116 40.02 26.896 39.988 26.64 39.988C26.448 39.988 26.184 40.004 25.848 40.036C25.52 40.06 25.168 40.092 24.792 40.132C24.424 40.172 24.076 40.212 23.748 40.252C23.428 40.284 23.18 40.312 23.004 40.336C22.852 40.352 22.656 40.376 22.416 40.408C22.184 40.44 21.984 40.472 21.816 40.504L21.696 39.208ZM30.36 36.244C30.464 36.388 30.576 36.56 30.696 36.76C30.816 36.96 30.932 37.16 31.044 37.36C31.156 37.56 31.252 37.74 31.332 37.9L30.54 38.236C30.468 38.076 30.376 37.896 30.264 37.696C30.152 37.496 30.036 37.296 29.916 37.096C29.804 36.896 29.692 36.72 29.58 36.568L30.36 36.244ZM31.728 35.74C31.832 35.892 31.948 36.068 32.076 36.268C32.204 36.468 32.324 36.668 32.436 36.868C32.556 37.06 32.652 37.228 32.724 37.372L31.944 37.72C31.816 37.464 31.66 37.18 31.476 36.868C31.3 36.556 31.124 36.288 30.948 36.064L31.728 35.74ZM27.252 57.028C27.764 56.948 28.244 56.832 28.692 56.68C29.148 56.52 29.548 56.316 29.892 56.068C30.244 55.812 30.516 55.5 30.708 55.132C30.9 54.756 30.992 54.324 30.984 53.836C30.984 53.596 30.94 53.36 30.852 53.128C30.764 52.896 30.628 52.684 30.444 52.492C30.26 52.292 30.032 52.136 29.76 52.024C29.496 51.904 29.184 51.844 28.824 51.844C28.064 51.844 27.344 52.04 26.664 52.432C25.992 52.816 25.364 53.312 24.78 53.92V52.588C25.508 51.908 26.236 51.432 26.964 51.16C27.7 50.88 28.384 50.74 29.016 50.74C29.6 50.74 30.136 50.868 30.624 51.124C31.112 51.38 31.5 51.744 31.788 52.216C32.084 52.68 32.232 53.228 32.232 53.86C32.24 54.468 32.14 55.008 31.932 55.48C31.732 55.952 31.44 56.364 31.056 56.716C30.68 57.068 30.216 57.364 29.664 57.604C29.12 57.844 28.5 58.032 27.804 58.168L27.252 57.028ZM24.54 51.484C24.428 51.5 24.272 51.52 24.072 51.544C23.872 51.568 23.652 51.596 23.412 51.628C23.172 51.66 22.928 51.696 22.68 51.736C22.44 51.768 22.212 51.796 21.996 51.82L21.876 50.596C22.028 50.604 22.172 50.608 22.308 50.608C22.444 50.6 22.6 50.592 22.776 50.584C22.952 50.568 23.164 50.548 23.412 50.524C23.668 50.492 23.932 50.46 24.204 50.428C24.476 50.388 24.728 50.348 24.96 50.308C25.2 50.26 25.388 50.212 25.524 50.164L25.932 50.668C25.868 50.764 25.788 50.884 25.692 51.028C25.604 51.164 25.512 51.304 25.416 51.448C25.328 51.592 25.252 51.72 25.188 51.832L24.672 53.74C24.536 53.948 24.368 54.196 24.168 54.484C23.976 54.772 23.772 55.076 23.556 55.396C23.34 55.708 23.124 56.02 22.908 56.332C22.7 56.636 22.508 56.908 22.332 57.148L21.588 56.104C21.74 55.92 21.916 55.696 22.116 55.432C22.316 55.168 22.528 54.888 22.752 54.592C22.976 54.288 23.192 53.992 23.4 53.704C23.616 53.408 23.812 53.132 23.988 52.876C24.164 52.62 24.304 52.408 24.408 52.24L24.444 51.76L24.54 51.484ZM24.408 49.36C24.408 49.208 24.404 49.048 24.396 48.88C24.396 48.712 24.384 48.548 24.36 48.388L25.764 48.436C25.724 48.604 25.68 48.86 25.632 49.204C25.584 49.548 25.532 49.948 25.476 50.404C25.428 50.86 25.38 51.34 25.332 51.844C25.292 52.348 25.26 52.848 25.236 53.344C25.212 53.84 25.2 54.3 25.2 54.724C25.2 55.068 25.2 55.4 25.2 55.72C25.2 56.04 25.204 56.36 25.212 56.68C25.228 57 25.244 57.344 25.26 57.712C25.268 57.816 25.276 57.944 25.284 58.096C25.3 58.256 25.312 58.4 25.32 58.528H24.024C24.032 58.424 24.04 58.288 24.048 58.12C24.056 57.96 24.06 57.832 24.06 57.736C24.06 57.352 24.06 57.004 24.06 56.692C24.068 56.372 24.072 56.044 24.072 55.708C24.08 55.364 24.092 54.96 24.108 54.496C24.108 54.312 24.116 54.072 24.132 53.776C24.148 53.48 24.168 53.152 24.192 52.792C24.216 52.432 24.24 52.068 24.264 51.7C24.288 51.332 24.308 50.984 24.324 50.656C24.348 50.328 24.368 50.048 24.384 49.816C24.4 49.584 24.408 49.432 24.408 49.36Z" fill="black"/>
</svg>
