<svg width="60" height="68" viewBox="0 0 60 68" fill="none" xmlns="http://www.w3.org/2000/svg">
<path d="M33.525 0.210112C17.0743 -1.72998 2.15748 9.98245 0.209825 26.3693C-0.298919 30.6428 0.133894 34.8104 1.32982 38.6717C7.21455 62.1457 33.6655 68 33.6655 68C30.146 65.243 28.3312 62.2856 27.439 59.6459C43.5062 61.0262 57.8802 49.4613 59.7898 33.396C61.7337 17.0054 49.9756 2.14643 33.525 0.210112Z" fill="#895AC3"/>
<path d="M16.4917 35.1013C16.4917 35.5433 16.3476 35.9372 16.0593 36.2734C15.7711 36.6097 15.3387 36.7827 14.7623 36.7827C13.6382 36.7827 13.0809 36.2254 13.0809 35.1013V33.7274C13.0809 33.2566 13.0041 32.8435 12.8503 32.5072C12.6966 32.1709 12.2643 31.998 11.5533 31.998H7.68136C7.10489 31.998 6.68215 31.8154 6.40353 31.46C6.13451 31.1045 6 30.7394 6 30.3647C6 29.9611 6.15372 29.5864 6.46117 29.2406C6.76862 28.9043 7.17215 28.7314 7.68136 28.7314H21.9393C22.4485 28.7314 22.8424 28.9043 23.1402 29.2406C23.4285 29.5768 23.5726 29.9515 23.5726 30.3647C23.5726 30.7394 23.4477 31.1045 23.1883 31.46C22.9289 31.8154 22.5157 31.998 21.9393 31.998H17.9713C17.2891 31.998 16.876 32.1709 16.7223 32.5072C16.5685 32.8435 16.4917 33.2566 16.4917 33.7274V35.1013ZM8.14253 36.7827C8.14253 36.3023 8.30586 35.9083 8.62292 35.5817C8.94958 35.255 9.3435 35.1013 9.82389 35.1013C10.3043 35.1013 10.6982 35.2646 11.0249 35.5817C11.3515 35.8987 11.5052 36.3023 11.5052 36.7827V40.3952C11.5052 40.9332 11.6494 41.4712 11.9376 41.9997C12.2258 42.5281 12.8503 42.7875 13.7919 42.7875H20.0081C20.4789 42.7875 20.8824 42.9316 21.2091 43.2199C21.5357 43.5081 21.6895 43.8924 21.6895 44.3632C21.6895 44.8724 21.5261 45.2663 21.2091 45.5641C20.8824 45.8524 20.4885 45.9965 20.0081 45.9965H10.8903C10.1409 45.9965 9.49722 45.7467 8.95919 45.2567C8.41155 44.7667 8.14253 44.0557 8.14253 43.143V36.7827ZM11.1978 25.7337C10.3811 25.7337 9.70859 25.4839 9.18978 24.9747C8.66135 24.4655 8.40194 23.7834 8.40194 22.9379V16.3662C8.40194 15.5495 8.66135 14.877 9.18978 14.3581C9.7182 13.8297 10.3907 13.5703 11.1978 13.5703H18.0673C18.9513 13.5703 19.643 13.8297 20.1522 14.3581C20.6614 14.8866 20.9112 15.5591 20.9112 16.3662V22.9379C20.9112 23.7834 20.6614 24.4655 20.1522 24.9747C19.643 25.4839 18.9513 25.7337 18.0673 25.7337H11.1978ZM11.707 20.4879C11.707 21.1028 11.8127 21.6024 12.0145 21.9867C12.2162 22.3806 12.6774 22.5728 13.3884 22.5728H15.7327C16.4821 22.5728 16.9625 22.3806 17.1834 21.9867C17.4044 21.5928 17.5101 21.0932 17.5101 20.4879V18.6528C17.5101 18.1436 17.3948 17.7016 17.1834 17.3269C16.9625 16.9522 16.4628 16.7697 15.6846 16.7697H13.4941C12.7831 16.7697 12.3027 16.9619 12.0721 17.3558C11.8319 17.7497 11.7166 18.182 11.7166 18.6528V20.4879H11.707Z" fill="white"/>
<path d="M36.7439 28.2259C36.7439 28.7063 36.8111 29.1194 36.9457 29.4749C37.0802 29.8304 37.5029 30.013 38.2235 30.013H42.0954C42.6719 30.013 43.0946 30.1859 43.3732 30.5222C43.6423 30.8584 43.7768 31.2139 43.7768 31.5886C43.7768 32.0306 43.623 32.4149 43.3156 32.732C43.0081 33.0586 42.6046 33.2123 42.0954 33.2123H28.0873C27.5781 33.2123 27.1746 33.049 26.8863 32.732C26.5981 32.4053 26.454 32.0306 26.454 31.5886C26.454 31.2139 26.5885 30.8584 26.8575 30.5222C27.1265 30.1859 27.5397 30.013 28.0777 30.013H31.7959C32.5069 30.013 32.9296 29.8304 33.0737 29.4749C33.2082 29.1194 33.2755 28.7063 33.2755 28.2259V26.5926C33.2755 26.4869 33.2947 26.3908 33.3235 26.2851C32.0649 25.9777 31.0273 25.3244 30.1914 24.3252C29.3555 23.326 28.9424 22.1442 28.9424 20.7895C28.9424 19.6654 29.2114 18.7046 29.759 17.888H28.5869C27.53 17.888 27.0112 17.3595 27.0112 16.3123C27.0112 15.2651 27.5397 14.7366 28.5869 14.7366H32.5069C33.0161 14.7366 33.2659 14.3811 33.2659 13.6702V11.6333C33.2659 11.1625 33.4388 10.7686 33.7751 10.4612C34.1114 10.1537 34.5245 10 34.9953 10C35.4661 10 35.8696 10.1537 36.1962 10.4612C36.5229 10.7686 36.6766 11.1529 36.6766 11.6333V13.6221C36.6766 14.0641 36.7151 14.3523 36.8015 14.4868C36.888 14.6213 37.0994 14.7078 37.4356 14.7462H41.2499C41.7207 14.7462 42.1242 14.8903 42.4509 15.1786C42.7776 15.4668 42.9313 15.8511 42.9313 16.3219C42.9313 16.7927 42.768 17.177 42.4509 17.4652C42.1242 17.7535 41.7303 17.8976 41.2499 17.8976H40.1258C40.3948 18.205 40.6062 18.6566 40.7599 19.2427C40.9137 19.8383 40.9905 20.3572 40.9905 20.7991C40.9905 22.1538 40.5774 23.326 39.7415 24.3156C38.9056 25.3052 37.868 25.9585 36.6094 26.3044C36.6382 26.41 36.667 26.5061 36.6862 26.6118C36.7055 26.7175 36.7151 26.8136 36.7151 26.9193V28.2451L36.7439 28.2259ZM32.0553 20.6934C32.0553 21.5101 32.3531 22.1634 32.9488 22.6534C33.5445 23.1434 34.2267 23.3932 35.0145 23.3932C35.8023 23.3932 36.4172 23.1434 36.9745 22.6534C37.5317 22.1634 37.8103 21.5101 37.8103 20.6934C37.8103 19.8768 37.5317 19.1658 36.9745 18.6566C36.4172 18.1474 35.7639 17.888 35.0145 17.888C34.2651 17.888 33.5445 18.1474 32.9488 18.6566C32.3531 19.1658 32.0553 19.8479 32.0553 20.6934ZM45.4005 13.92C45.4005 13.4108 45.5638 13.0072 45.8809 12.6998C46.1979 12.3923 46.6207 12.2386 47.1299 12.2386C47.7448 12.2386 48.1771 12.4019 48.4269 12.719C48.6767 13.0457 48.8112 13.4396 48.8112 13.92V16.8695C48.8112 17.3115 48.8881 17.7054 49.0418 18.0417C49.1955 18.378 49.6279 18.5509 50.3389 18.5509H52.0683C52.6447 18.5509 53.0579 18.7238 53.3173 19.0601C53.5767 19.3964 53.7016 19.7519 53.7016 20.1266C53.7016 21.145 53.1539 21.6542 52.0683 21.6542H50.3389C49.6951 21.6542 49.282 21.7983 49.0899 22.0866C48.9073 22.3748 48.8112 22.7591 48.8112 23.2299V28.274C48.8112 28.7543 48.6479 29.1579 48.3308 29.4941C48.0042 29.8304 47.6103 30.0033 47.1299 30.0033C46.6495 30.0033 46.246 29.8304 45.9097 29.4941C45.5734 29.1579 45.4005 28.7447 45.4005 28.274V13.92Z" fill="white"/>
</svg>
