<svg width="406" height="54" viewBox="0 0 406 54" fill="none" xmlns="http://www.w3.org/2000/svg">
<mask id="path-1-inside-1_1582_191230" fill="white">
<path d="M406 54H19.7051L0 35.8047V17.6084L19.7051 0H406V54ZM9.7002 22.6104C7.63961 22.6104 5.96875 24.3558 5.96875 26.5088C5.96882 28.6617 7.63965 30.4072 9.7002 30.4072C11.7605 30.407 13.4306 28.6616 13.4307 26.5088C13.4307 24.356 11.7606 22.6106 9.7002 22.6104Z"/>
</mask>
<path d="M406 54H19.7051L0 35.8047V17.6084L19.7051 0H406V54ZM9.7002 22.6104C7.63961 22.6104 5.96875 24.3558 5.96875 26.5088C5.96882 28.6617 7.63965 30.4072 9.7002 30.4072C11.7605 30.407 13.4306 28.6616 13.4307 26.5088C13.4307 24.356 11.7606 22.6106 9.7002 22.6104Z" fill="#ECC8C1"/>
<path d="M406 54V55H407V54H406ZM19.7051 54L19.0267 54.7347L19.314 55H19.7051V54ZM0 35.8047H-1V36.2424L-0.678401 36.5394L0 35.8047ZM0 17.6084L-0.666323 16.8627L-1 17.1609V17.6084H0ZM19.7051 0V-1H19.3234L19.0388 -0.745664L19.7051 0ZM406 0H407V-1H406V0ZM9.7002 22.6104L9.70031 21.6104H9.7002V22.6104ZM5.96875 26.5088H4.96875V26.5088L5.96875 26.5088ZM9.7002 30.4072V31.4072H9.70031L9.7002 30.4072ZM13.4307 26.5088L14.4307 26.5088V26.5088H13.4307ZM406 54V53H19.7051V54V55H406V54ZM19.7051 54L20.3835 53.2653L0.678401 35.07L0 35.8047L-0.678401 36.5394L19.0267 54.7347L19.7051 54ZM0 35.8047H1V17.6084H0H-1V35.8047H0ZM0 17.6084L0.666323 18.3541L20.3714 0.745664L19.7051 0L19.0388 -0.745664L-0.666323 16.8627L0 17.6084ZM19.7051 0V1H406V0V-1H19.7051V0ZM406 0H405V54H406H407V0H406ZM9.7002 22.6104V21.6104C7.04655 21.6104 4.96875 23.8452 4.96875 26.5088H5.96875H6.96875C6.96875 24.8664 8.23268 23.6104 9.7002 23.6104V22.6104ZM5.96875 26.5088L4.96875 26.5088C4.96883 29.1723 7.04656 31.4072 9.7002 31.4072V30.4072V29.4072C8.23275 29.4072 6.9688 28.1511 6.96875 26.5088L5.96875 26.5088ZM9.7002 30.4072L9.70031 31.4072C12.3539 31.4069 14.4306 29.1719 14.4307 26.5088L13.4307 26.5088L12.4307 26.5088C12.4306 28.1512 11.1672 29.4071 9.70008 29.4072L9.7002 30.4072ZM13.4307 26.5088H14.4307C14.4307 23.8456 12.3539 21.6107 9.70031 21.6104L9.7002 22.6104L9.70008 23.6104C11.1673 23.6105 12.4307 24.8663 12.4307 26.5088H13.4307Z" fill="#DA9186" mask="url(#path-1-inside-1_1582_191230)"/>
<path d="M29.96 10.8H47.92V35.08H29.96V10.8ZM42.88 30.8V15.08H35V30.8H42.88ZM57.68 7.56V20.64H62.8V25.04H57.68V44.76H52.6V7.56H57.68ZM62.5741 35.8H96.6541V40.08H62.5741V35.8ZM79.5741 29.44C78.2141 28.44 76.6941 27.2 75.4941 26.16C73.9741 24.84 73.2141 24.04 73.0141 23.56H72.9741C72.8141 24.04 71.9741 25 70.2541 26.6C69.2141 27.56 67.9741 28.64 66.3741 29.92L63.2941 26.48C65.2541 24.88 66.8141 23.48 67.9341 22.32C69.8941 20.28 70.4141 18.92 70.4141 15.92V10.16H75.2541V15.76C75.2541 19 75.8541 20.08 77.6941 21.92C78.2141 22.44 78.8541 23 79.6141 23.6C80.3741 23 81.0141 22.44 81.5341 21.92C83.3741 20.08 83.9741 19 83.9741 15.76V10.16H88.8141V15.92C88.8141 18.92 89.3341 20.28 91.2941 22.32C92.4141 23.48 93.9741 24.88 95.7341 26.32L92.6541 29.76C91.2541 28.64 90.0141 27.56 88.9741 26.6C87.2541 25 86.4141 24.04 86.2541 23.56H86.2141C86.0141 24.04 85.2541 24.84 83.7341 26.16C82.5341 27.2 81.0141 28.44 79.6541 29.44H79.5741ZM128.308 7.56V44.76H123.228V7.56H128.308ZM104.588 24.92V31.64H108.468C112.108 31.64 116.228 31.4 119.948 30.92L120.508 35.16C116.748 35.72 112.148 35.92 107.268 35.92H99.5881V20.8H111.588V14.72H99.5881V10.44H116.588V24.92H104.588ZM162.842 7.56V44.76H157.842V7.56H162.842ZM143.642 28.24C137.642 28.24 133.562 24.32 133.562 19.84V18.24C133.562 13.76 137.642 9.84 143.642 9.84C149.642 9.84 153.722 13.76 153.722 18.24V19.84C153.722 24.32 149.642 28.24 143.642 28.24ZM143.642 14.16C140.402 14.16 138.362 16.32 138.362 18.52V19.56C138.362 21.76 140.402 23.92 143.642 23.92C146.882 23.92 148.922 21.76 148.922 19.56V18.52C148.922 16.32 146.882 14.16 143.642 14.16ZM132.162 37.2V32.84C144.402 32.84 151.162 32.64 155.922 32.16L156.282 36.48C151.682 37.04 144.442 37.2 132.162 37.2ZM201.656 34.04V21.32H195.696V17H201.656V7.56H206.696V34.04H201.656ZM188.096 31.88V40.04H207.296V44.36H183.016V31.88H188.096ZM177.576 14.2V9.88H196.776V14.2H189.856V17.32C189.856 19.28 190.336 20.44 192.456 22.08C194.136 23.36 196.136 24.72 198.136 26L195.416 29.6C193.696 28.48 191.976 27.28 190.496 26.2C188.816 24.96 187.776 24.04 187.616 23.64H187.576C187.416 24.12 186.296 25.2 184.456 26.64C182.736 28 180.976 29.36 178.976 30.76L176.016 27.04C178.536 25.32 180.936 23.48 182.616 22C184.016 20.76 184.816 19.28 184.816 17.32V14.2H177.576ZM229.55 45.92C222.55 45.92 217.87 43.4 217.87 39.48V38.04C217.87 34.12 222.55 31.6 229.55 31.6C236.55 31.6 241.23 34.12 241.23 38.04V39.48C241.23 43.4 236.55 45.92 229.55 45.92ZM221.03 30.52C215.47 30.52 212.23 27.68 212.23 24.2V22.92C212.23 19.44 215.47 16.6 221.03 16.6C226.59 16.6 229.83 19.44 229.83 22.92V24.2C229.83 27.68 226.59 30.52 221.03 30.52ZM241.11 7.56V31H236.11V27.92H231.55V23.64H236.11V20.84H231.55V16.56H236.11V7.56H241.11ZM223.51 7.16V11.16H231.79V15.4H210.35V11.16H218.47V7.16H223.51ZM229.55 35.72C225.63 35.72 222.79 36.92 222.79 38.44V39.08C222.79 40.6 225.63 41.8 229.55 41.8C233.47 41.8 236.31 40.6 236.31 39.08V38.44C236.31 36.92 233.47 35.72 229.55 35.72ZM221.03 20.56C218.39 20.56 216.99 21.92 216.99 23.16V23.96C216.99 25.2 218.39 26.56 221.03 26.56C223.67 26.56 225.07 25.2 225.07 23.96V23.16C225.07 21.92 223.67 20.56 221.03 20.56ZM250.884 35.28V31H275.524V45.2H270.484V35.28H250.884ZM270.484 29.32V20.8H264.524V16.52H270.484V7.56H275.524V29.32H270.484ZM246.404 13.96V9.68H265.604V13.96H258.684V16.32C258.684 18.28 259.164 19.44 261.284 21.08C262.964 22.36 264.964 23.72 266.964 25L264.244 28.56C262.484 27.4 260.804 26.24 259.324 25.16C257.644 23.92 256.604 23 256.444 22.6H256.404C256.244 23.08 255.124 24.16 253.284 25.6C251.564 26.96 249.804 28.32 247.804 29.72L244.844 26.04C247.364 24.32 249.764 22.48 251.444 21C252.844 19.76 253.644 18.28 253.644 16.32V13.96H246.404ZM291.378 31.88V40.04H310.578V44.36H286.298V31.88H291.378ZM309.978 7.56V34.04H304.938V7.56H309.978ZM289.818 28.36C283.858 28.36 280.218 24.28 280.218 19.76V17.52C280.218 13 283.858 8.92 289.818 8.92C295.778 8.92 299.418 13 299.418 17.52V19.76C299.418 24.28 295.778 28.36 289.818 28.36ZM289.818 13.28C286.818 13.28 284.978 15.48 284.978 17.88V19.4C284.978 21.8 286.818 24 289.818 24C292.818 24 294.658 21.8 294.658 19.4V17.88C294.658 15.48 292.818 13.28 289.818 13.28ZM340.513 45.88C334.033 45.88 328.513 43.72 328.513 39.2V38C328.513 34.08 332.673 31.96 337.993 31.44V29.08H323.473V25H357.553V29.08H343.033V31.44C348.353 31.96 352.513 34.08 352.513 38V39.2C352.513 43.72 346.993 45.88 340.513 45.88ZM327.593 8.76H353.433V12.72H349.153V18.6H353.673V22.56H327.353V18.6H331.873V12.72H327.593V8.76ZM340.513 35.4C336.953 35.4 333.513 36.6 333.513 38.32V38.88C333.513 40.6 336.953 41.8 340.513 41.8C344.073 41.8 347.513 40.6 347.513 38.88V38.32C347.513 36.6 344.073 35.4 340.513 35.4ZM336.833 12.72V18.6H344.193V12.72H336.833ZM377.247 45.88C370.647 45.88 365.607 43.2 365.607 38.68V36.92C365.607 32.4 370.647 29.72 377.247 29.72C383.847 29.72 388.887 32.4 388.887 36.92V38.68C388.887 43.2 383.847 45.88 377.247 45.88ZM377.247 33.84C373.767 33.84 370.567 35.4 370.567 37.28V38.32C370.567 40.2 373.767 41.76 377.247 41.76C380.727 41.76 383.927 40.2 383.927 38.32V37.28C383.927 35.4 380.727 33.84 377.247 33.84ZM378.167 12.72H383.767V7.56H388.767V29.56H383.767V24.72H377.527V20.48H383.767V16.96H378.167V12.72ZM360.407 30.36L358.367 26.24C369.687 21.44 371.247 20 371.247 15.76V14.04H359.967V9.76H376.287V16.24C376.287 22.6 373.167 24.96 360.407 30.36Z" fill="#1E1E1E"/>
</svg>
