<svg width="307" height="216" viewBox="0 0 307 216" fill="none" xmlns="http://www.w3.org/2000/svg">
<g clip-path="url(#clip0_498_1405)">
<path d="M45.9797 214.192C45.0756 214.192 44.3652 213.482 44.3652 212.513V198.952C44.3652 198.048 45.1402 197.273 46.0442 197.273H58.6368C59.0888 197.273 59.5409 197.467 59.8638 197.855L72.3272 211.609C72.7792 212.061 72.8438 212.771 72.5855 213.417C72.3272 213.998 71.746 214.386 71.1002 214.386L46.0442 214.192" fill="#C9CACA"/>
<path d="M58.5715 198.952L71.0349 212.707L45.979 212.513V198.952H58.5715ZM58.5715 195.659H45.979C44.1708 195.659 42.6855 197.144 42.6855 198.952V212.513C42.6855 214.321 44.1708 215.806 45.979 215.806L71.0349 216C72.3265 216 73.4889 215.225 74.0701 214.063C74.5867 212.9 74.393 211.48 73.4889 210.511L61.0255 196.757C60.3797 196.047 59.4756 195.659 58.5715 195.659Z" fill="#3E3A39"/>
<path d="M25.8957 214.192C24.9916 214.192 24.2812 213.482 24.2812 212.513V198.952C24.2812 198.048 25.0562 197.273 25.9603 197.273H38.5528C39.0048 197.273 39.4569 197.467 39.7798 197.855L52.2432 211.609C52.6952 212.061 52.7598 212.771 52.5015 213.417C52.2432 213.998 51.662 214.386 51.0162 214.386L25.9603 214.192" fill="#C9CACA"/>
<path d="M38.4876 198.952L50.951 212.707L25.895 212.513V198.952H38.4876ZM38.4876 195.659H25.895C24.0868 195.659 22.6016 197.144 22.6016 198.952V212.513C22.6016 214.321 24.0868 215.806 25.895 215.806L50.951 216C52.2425 216 53.4049 215.225 53.9861 214.063C54.5027 212.9 54.309 211.48 53.4049 210.511L40.9415 196.757C40.2957 196.047 39.3916 195.659 38.4876 195.659Z" fill="#3E3A39"/>
<path d="M45.9794 200.566C45.0754 200.566 44.3004 199.856 44.3004 198.887V144.71H40.6195L40.1029 198.952C40.1029 199.856 39.328 200.566 38.4239 200.566H25.8314C24.9273 200.566 24.1523 199.856 24.1523 198.887V129.664C24.1523 129.212 24.3461 128.825 24.669 128.502C24.9918 128.179 25.3793 128.05 25.8314 128.05L31.5141 128.114C31.6433 128.114 31.837 128.05 31.9662 128.05H49.5958C49.5958 128.05 49.9186 128.05 50.0478 128.05L59.2178 128.179C60.1218 128.179 60.8322 128.954 60.8322 129.858L60.1218 198.887C60.1218 199.792 59.3469 200.502 58.4428 200.502H45.8503L45.9794 200.566Z" fill="#E4E4E5"/>
<path d="M49.6593 129.729L59.2167 129.923L58.5064 198.952H45.9138V143.096H38.9395L38.3583 198.952H25.7657V129.729H31.9006H49.5301H49.6593ZM49.6593 126.436H32.0297C32.0297 126.436 31.5131 126.436 31.3194 126.5H25.9595V126.436C25.1199 126.436 24.2804 126.758 23.6347 127.404C22.9889 128.05 22.666 128.889 22.666 129.729V198.952C22.666 200.76 24.1513 202.245 25.9595 202.245H38.552C40.3602 202.245 41.8454 200.825 41.8454 199.017L42.3621 146.389H42.7495V198.952C42.7495 200.76 44.2348 202.245 46.043 202.245H58.6355C60.4437 202.245 61.929 200.825 61.929 199.017L62.6393 129.987C62.6393 128.179 61.2186 126.694 59.4104 126.694L50.4342 126.565C50.4342 126.565 49.9822 126.5 49.7884 126.5" fill="#3E3A39"/>
<path d="M104.68 88.7892L57.3448 66.5758C53.9868 62.1202 48.6914 59.4727 42.7503 59.4727C32.6117 59.4727 24.2812 67.157 24.2812 78.522V131.537H61.284V84.5919L98.7388 102.091C102.355 103.706 106.682 102.091 108.296 98.4108C109.911 94.7946 108.296 90.4682 104.615 88.8538" fill="#AADBF6"/>
<path d="M61.2832 133.152H24.2804C23.3764 133.152 22.666 132.441 22.666 131.537V78.5221C22.666 66.705 31.3194 57.8584 42.8141 57.8584C49.0135 57.8584 54.6963 60.5705 58.4418 65.2844L105.389 87.3687C109.845 89.3705 111.847 94.6656 109.91 99.1212C107.908 103.577 102.677 105.643 98.1568 103.641L63.0268 87.2396V131.602C63.0268 132.506 62.3164 133.216 61.4123 133.216L61.2832 133.152ZM25.9595 129.858H59.6687V84.5275C59.6687 83.9463 59.9271 83.4297 60.4437 83.1714C60.8957 82.8485 61.5415 82.8485 61.9935 83.0423L99.4483 100.542C102.225 101.769 105.583 100.542 106.81 97.7006C108.102 94.8593 106.81 91.566 103.969 90.2745L56.6336 68.0611C56.6336 68.0611 56.1816 67.8028 56.0524 67.5445C52.8881 63.4118 48.1094 61.0871 42.8141 61.0871C33.0629 61.0871 25.9595 68.384 25.9595 78.4575V129.858Z" fill="#3E3A39"/>
<path d="M72.3902 30.6083C72.7131 14.9168 60.2497 1.9374 44.5574 1.61453C28.8652 1.29166 15.8852 13.7544 15.5623 29.4459C15.304 42.4899 23.9573 53.5966 35.9041 57.1482V60.2477C35.9041 63.9284 38.8746 66.8988 42.5555 66.8988H43.6534C47.3343 66.8988 50.3048 63.9284 50.3048 60.2477V57.6648C62.7036 54.8235 72.1319 43.9105 72.3902 30.6083Z" fill="white"/>
<path d="M43.6547 68.5775H42.5569C37.9719 68.5775 34.291 64.8322 34.291 60.312V58.4393C22.0214 54.242 13.6909 42.4896 13.9492 29.5102C14.2721 13.1084 27.7041 0.0644531 43.9776 0.0644531C44.1713 0.0644531 44.3651 0.0644531 44.5588 0.0644531C52.5664 0.193601 60.0573 3.48688 65.6755 9.29853C71.2292 15.1102 74.1997 22.7299 74.0706 30.7371C73.8123 44.0393 64.836 55.5335 51.9852 59.0205V60.312C51.9852 64.8967 48.2397 68.5775 43.6547 68.5775ZM43.913 3.29315C29.3832 3.29315 17.4364 14.981 17.1781 29.5102C16.9198 41.4564 24.8627 52.1757 36.3575 55.5981C37.0678 55.7918 37.5199 56.4375 37.5199 57.1479V60.2474C37.5199 63.0241 39.7801 65.2196 42.4923 65.2196H43.5901C46.367 65.2196 48.6272 62.9595 48.6272 60.2474V57.6645C48.6272 56.8896 49.1438 56.2438 49.9187 56.0501C61.9301 53.2734 70.4542 42.8124 70.7126 30.5434C70.8417 23.3757 68.194 16.5954 63.2216 11.494C58.2492 6.32813 51.5977 3.4223 44.4296 3.29315C44.2359 3.29315 44.0422 3.29315 43.913 3.29315Z" fill="#3E3A39"/>
<path d="M65.2222 33.3844C65.2222 34.805 64.0598 35.9027 62.7683 35.8382C61.4121 35.8382 60.3789 34.6758 60.3789 33.2552C60.3789 31.8992 61.4767 30.7368 62.8328 30.8014C64.189 30.8014 65.2222 31.9637 65.2222 33.3844Z" fill="#3E3A39"/>
<path d="M52.8882 33.1265C52.8882 34.5472 51.7258 35.6449 50.4343 35.5804C49.0782 35.5804 48.0449 34.418 48.0449 32.9974C48.0449 31.6413 49.1427 30.479 50.4989 30.5436C51.855 30.5436 52.8882 31.7059 52.8882 33.1265Z" fill="#3E3A39"/>
<path d="M50.3711 44.2974C53.7291 45.9117 56.6997 45.5243 59.3473 43.5225L50.3711 44.2974Z" fill="white"/>
<path d="M54.4392 46.6224C52.954 46.6224 51.4041 46.235 49.7897 45.4601C49.1439 45.1372 48.8856 44.3624 49.1439 43.7166C49.4668 43.0709 50.2417 42.8126 50.8875 43.0709C53.6643 44.4269 56.1828 44.2332 58.5076 42.4251C59.0888 41.9731 59.9283 42.1023 60.3803 42.6834C60.8324 43.2646 60.7032 44.1041 60.122 44.5561C58.3139 45.9121 56.3766 46.6224 54.3747 46.6224H54.4392Z" fill="#3E3A39"/>
<path d="M64.5778 28.3478H60.9615C60.2511 28.2833 59.6699 27.6375 59.6699 26.9272C59.6699 26.2169 60.2511 25.6357 60.9615 25.6357H64.5778C65.2881 25.7003 65.8693 26.3461 65.8693 27.0564C65.8693 27.7667 65.2881 28.3478 64.5778 28.3478Z" fill="#3E3A39"/>
<path d="M51.3395 28.09H47.7232C47.0128 28.0255 46.4316 27.3797 46.4316 26.6694C46.4316 25.9591 47.0128 25.3779 47.7232 25.3779H51.3395C52.0499 25.4425 52.631 26.0882 52.631 26.7986C52.631 27.5089 52.0499 28.09 51.3395 28.09Z" fill="#3E3A39"/>
<path d="M44.4942 2.00212C32.7412 1.74383 22.538 8.65324 18.0176 18.7268C29.3186 18.9205 59.5407 19.5662 70.2605 19.76C66.1276 9.55728 56.1827 2.26042 44.4942 2.00212Z" fill="#C9CACA"/>
<path d="M70.2608 21.4388L18.0179 20.4056C17.4367 20.4056 16.9201 20.0828 16.6618 19.6307C16.3389 19.1787 16.3389 18.5976 16.5326 18.081C21.3759 7.23254 32.0957 0.387695 43.9133 0.387695C44.1071 0.387695 44.3008 0.387695 44.4945 0.387695C56.5705 0.645991 67.2257 8.00743 71.7461 19.1787C71.9398 19.6953 71.8753 20.2765 71.5524 20.7285C71.2295 21.1805 70.7129 21.4388 70.1963 21.4388H70.2608ZM20.6655 17.1769L67.6777 18.081C63.1573 9.42805 54.3103 3.87469 44.43 3.68097C44.2362 3.68097 44.0425 3.68097 43.9133 3.68097C34.2268 3.68097 25.3797 8.84689 20.6655 17.1769Z" fill="#3E3A39"/>
<path d="M29.8339 99.8957L17.8871 135.863L5.48828 131.731L26.2176 69.5459" fill="#AADBF6"/>
<path d="M17.8879 137.478C17.8879 137.478 17.565 137.478 17.3713 137.413L4.97248 133.281C4.58501 133.152 4.19755 132.829 4.00382 132.441C3.81009 132.054 3.74551 131.602 3.93924 131.15L24.6685 68.9651C24.9268 68.1256 25.8955 67.6736 26.735 67.9319C27.5745 68.1902 28.0911 69.1588 27.7682 69.9983L7.55556 130.633L16.8547 133.733L28.3494 99.3148C28.6077 98.4754 29.5764 97.9588 30.4159 98.2817C31.2554 98.54 31.772 99.5086 31.4491 100.348L19.4378 136.316C19.1795 137.026 18.5337 137.413 17.8879 137.413V137.478Z" fill="#3E3A39"/>
<path d="M10.656 147.164C5.6836 147.164 1.61523 143.096 1.61523 138.124V137.349C1.61523 132.377 5.6836 128.309 10.656 128.309C15.6285 128.309 19.6968 132.377 19.6968 137.349V138.124C19.6968 143.096 15.6285 147.164 10.656 147.164Z" fill="white"/>
<path d="M10.7198 148.843C4.84329 148.843 0 144.065 0 138.124V137.349C0 131.473 4.77871 126.63 10.7198 126.63C16.6609 126.63 21.3751 131.408 21.3751 137.349V138.124C21.3751 144 16.5963 148.843 10.7198 148.843ZM10.7198 129.988C6.65145 129.988 3.29344 133.281 3.29344 137.414V138.189C3.29344 142.257 6.58687 145.615 10.7198 145.615C14.8528 145.615 18.0816 142.321 18.0816 138.189V137.414C18.0816 133.346 14.7882 129.988 10.7198 129.988Z" fill="#3E3A39"/>
<path d="M305.322 188.62C305.322 195.594 299.704 201.212 292.729 201.212C285.755 201.212 280.137 195.594 280.137 188.62C280.137 181.646 285.755 176.028 292.729 176.028C299.704 176.028 305.322 181.646 305.322 188.62Z" fill="#CCE2A1"/>
<path d="M292.728 202.827C284.915 202.827 278.521 196.434 278.521 188.62C278.521 180.807 284.915 174.414 292.728 174.414C300.542 174.414 306.935 180.807 306.935 188.62C306.935 196.434 300.542 202.827 292.728 202.827ZM292.728 177.643C286.723 177.643 281.815 182.55 281.815 188.556C281.815 194.561 286.723 199.469 292.728 199.469C298.734 199.469 303.642 194.561 303.642 188.556C303.642 182.55 298.734 177.643 292.728 177.643Z" fill="#3E3A39"/>
<path d="M242.036 157.883L234.222 154.332L235.578 151.361L243.392 154.913L242.036 157.883ZM224.212 149.747C220.79 148.197 217.496 146.647 214.267 145.162L215.623 142.192C218.852 143.677 222.21 145.227 225.568 146.777L224.212 149.747ZM204.258 140.513C200.835 138.899 197.542 137.349 194.313 135.799L195.734 132.829C198.963 134.378 202.256 135.928 205.679 137.478L204.258 140.448V140.513ZM184.368 131.085C180.881 129.406 177.588 127.856 174.488 126.307L175.908 123.336C179.073 124.886 182.366 126.436 185.789 128.115L184.368 131.085ZM164.607 121.528L154.727 116.685L156.212 113.715L166.093 118.558L164.672 121.528H164.607ZM144.911 111.777C138.518 108.613 135.096 106.805 135.096 106.805L136.581 103.899C136.581 103.899 140.068 105.643 146.397 108.807L144.911 111.777Z" fill="#C7C8C8"/>
<path d="M240.679 142.45L259.471 164.857L230.734 162.791L241.842 155.817L240.679 142.45Z" fill="#C7C8C8"/>
<path d="M124.505 95.0532L112.752 89.8227C110.104 87.4335 106.423 86.4649 102.936 87.5626C97.6405 89.3061 94.7991 95.1178 96.6072 100.542C98.4154 105.966 104.098 109.001 109.394 107.258C113.268 106.031 115.722 102.544 116.174 98.6693L121.857 101.188C123.536 101.963 125.538 101.188 126.313 99.5088C127.088 97.8299 126.313 95.8281 124.634 95.0532" fill="white"/>
<path d="M106.295 109.453C101.322 109.453 96.6083 106.16 94.9939 101.059C92.9274 94.7303 96.2208 88.0146 102.356 86.0128C106.23 84.7214 110.428 85.6254 113.592 88.4021L125.151 93.568C126.378 94.0846 127.282 95.1178 127.799 96.3447C128.251 97.5716 128.251 98.9922 127.67 100.219C126.572 102.738 123.602 103.835 121.018 102.737L117.273 101.059C116.175 104.739 113.463 107.71 109.782 108.872C108.62 109.259 107.393 109.453 106.23 109.453H106.295ZM105.843 88.7249C105.003 88.7249 104.164 88.8541 103.324 89.1124C98.9331 90.533 96.5437 95.4406 98.029 100.025C99.5143 104.61 104.358 107.129 108.749 105.708C111.849 104.675 114.044 101.898 114.367 98.4756C114.367 97.959 114.754 97.507 115.207 97.1841C115.659 96.9258 116.24 96.8613 116.692 97.1196L122.375 99.6379C123.279 100.025 124.312 99.6379 124.635 98.7985C124.829 98.3465 124.829 97.8945 124.635 97.4424C124.441 96.9904 124.118 96.6675 123.731 96.4738L111.978 91.2433C111.978 91.2433 111.655 91.0496 111.526 90.985C109.847 89.4998 107.845 88.7249 105.778 88.7249H105.843Z" fill="#3E3A39"/>
</g>
<defs>
<clipPath id="clip0_498_1405">
<rect width="307" height="216" fill="white"/>
</clipPath>
</defs>
</svg>
