<svg width="34" height="34" viewBox="0 0 34 34" fill="none" xmlns="http://www.w3.org/2000/svg">
<circle cx="17" cy="17" r="17" fill="#D97973"/>
<path d="M19.908 25.676V23.986H19.83C19.076 25.364 17.438 25.884 15.722 25.884C12.056 25.884 10.236 23.648 10.236 19.774V17.252C10.236 13.378 12.498 11.038 15.956 11.038C18.218 11.038 19.31 11.948 19.726 12.572V6.02H23.002V25.676H19.908ZM13.46 17.668V19.28C13.46 21.698 14.474 23.102 16.372 23.102C18.53 23.102 19.778 21.542 19.778 19.592V16.68C19.778 15.354 18.764 13.846 16.502 13.846C14.422 13.846 13.46 15.276 13.46 17.668Z" fill="white"/>
</svg>
