<svg width="34" height="34" viewBox="0 0 34 34" fill="none" xmlns="http://www.w3.org/2000/svg">
<circle cx="17" cy="17" r="17" fill="#D97973"/>
<path d="M13.8276 16.226H20.2756V15.602C20.2756 14.068 19.3916 12.742 17.1036 12.742C14.9196 12.742 13.8276 14.068 13.8276 15.68V16.226ZM21.7056 20.984L23.0576 23.35C21.6796 24.286 19.8596 24.884 17.1816 24.884C13.8796 24.884 10.6296 23.324 10.6296 18.202V16.72C10.6296 12.066 13.5156 10.038 17.1556 10.038C20.7956 10.038 23.4216 12.144 23.4216 16.33V18.696H13.8276C13.8276 20.984 15.0756 22.154 17.3636 22.154C19.0536 22.154 20.2756 21.816 21.7056 20.984Z" fill="white"/>
</svg>
