<svg width="76" height="46" viewBox="0 0 76 46" fill="none" xmlns="http://www.w3.org/2000/svg">
<rect width="76" height="46" rx="23" fill="#D97973"/>
<path d="M19.648 15.304H19.616C18.048 15.304 16.224 15.496 14.656 15.304C13.92 15.208 13.568 14.12 13.568 13.064C13.6 12.104 14.432 11.688 15.168 11.464C16.064 11.208 16.864 11.24 17.792 11.208C18.368 11.208 19.264 11.24 19.84 11.24H22.4C22.656 11.24 22.912 11.208 23.168 11.24H24.064C24.448 11.24 24.832 11.272 25.184 11.272C25.568 11.272 25.952 11.272 26.336 11.304C26.528 11.304 26.72 11.304 26.88 11.368C27.008 11.4 27.104 11.432 27.232 11.496C27.616 11.688 27.968 11.944 28.192 12.328C28.576 12.968 28.64 13.736 28.64 14.44C28.64 16.392 28.768 19.496 28.672 21.448C28.608 22.632 28.8 22.664 28.224 23.688C27.552 24.904 25.632 25.256 24.896 24.04C24.128 22.76 24.288 22.664 24.32 21.192H14.88C14.848 21.192 14.08 21.224 13.728 20.648C13.6 20.392 13.536 20.04 13.536 19.656C13.536 19.272 13.6 18.952 13.76 18.696C14.048 18.248 14.368 18.216 14.72 18.152C14.784 18.152 14.848 18.152 14.912 18.12C15.264 18.056 15.616 18.024 16 17.992C17.184 17.928 20.032 17.896 21.344 17.896C22.176 17.896 23.392 17.896 24.32 17.928C24.32 17.096 24.32 16.296 24.256 15.464C22.944 15.432 21.024 15.336 19.648 15.304ZM35.872 35.944C35.776 36.2 35.552 36.456 35.264 36.616C34.816 36.904 34.208 36.968 33.664 36.872C33.376 36.808 33.088 36.68 32.864 36.488C32.096 35.784 32.128 34.12 32.128 34.088V14.6C32.096 13.64 32.128 12.072 32.704 11.496C33.184 11.048 33.696 11.016 34.272 11.016C35.008 11.016 35.648 11.432 35.904 12.104C36.288 13 36.256 13.992 36.288 14.952C36.352 18.344 36.288 21.896 36.288 24.904V32.904C36.288 33.864 36.224 34.888 35.872 35.944ZM14.496 29.192C13.888 29.16 13.28 29 12.768 28.456C12.512 28.2 12.384 27.784 12.384 27.336C12.384 26.92 12.512 26.504 12.768 26.216C13.344 25.544 14.752 25.576 14.816 25.576H27.392C28.224 25.576 29.28 25.544 29.92 26.152C30.304 26.536 30.432 26.952 30.432 27.464C30.432 28.104 30.112 28.68 29.536 28.904C28.768 29.224 27.936 29.256 27.136 29.288C24.64 29.384 24.832 29.416 23.36 29.416L23.328 34.216C23.328 35.464 22.464 36.52 21.28 36.424C20.384 36.328 19.488 36.04 19.456 34.44L19.36 29.384C17.696 29.352 16.416 29.288 14.496 29.192ZM43.6015 12.392L58.0335 12.328C59.5695 12.328 60.8495 12.616 60.8495 14.056C60.9775 16.2 59.3455 16.2 57.9055 16.104L53.1055 16.168L53.1375 17.384C53.1375 17.736 53.0735 18.248 53.1375 18.6C53.2655 19.08 53.6815 19.336 53.9695 19.688C55.2175 21.128 56.9455 22.152 58.5775 23.56C59.3775 24.392 60.6575 25.608 60.0175 26.856C59.3135 28.2 57.4255 27.752 56.3695 27.08C54.3215 25.768 52.6255 24.264 50.8975 22.632C50.8015 22.568 48.0495 24.872 46.8335 25.832C45.4575 26.888 42.8655 29.48 41.2655 27.272C40.1775 25.576 41.8415 24.392 43.0895 23.56C44.7535 22.44 46.4495 20.84 47.8895 19.4C48.4655 18.824 48.3055 18.344 48.3055 17.544V16.104H43.2495C43.2495 16.104 40.4015 16.392 40.2415 14.44C40.1135 13.032 40.9775 12.52 42.0335 12.424C42.3215 12.392 43.2175 12.392 43.6015 12.392ZM41.3295 34.696C39.9855 34.568 38.5775 34.28 38.5775 32.616C38.5775 32.168 38.7375 31.784 38.9935 31.496C39.6655 30.824 41.2335 30.856 41.2975 30.856L59.1215 30.888C60.2095 30.888 61.1695 30.76 61.8735 31.368C62.2895 31.752 62.5455 32.232 62.5455 32.744C62.5455 33.384 62.1295 33.96 61.4895 34.184C60.6255 34.504 59.6975 34.632 58.8015 34.664C55.6975 34.792 52.3055 34.696 49.4575 34.696C46.3855 34.696 43.2495 34.792 41.3295 34.696Z" fill="white"/>
</svg>
