<svg width="205" height="79" viewBox="0 0 205 79" fill="none" xmlns="http://www.w3.org/2000/svg">
<g clip-path="url(#clip0_2622_4295)">
<path d="M0.415036 46.2436C2.65072 45.1051 3.76857 43.4493 3.76857 41.2966C3.76857 40.7377 4.01697 40.4479 4.53449 40.4479C5.05201 40.4479 5.27972 40.717 5.27972 41.2552C5.27972 42.0417 5.17622 42.7662 4.96921 43.4286C6.70808 44.1116 7.78452 45.2914 8.21924 46.9887C8.34344 47.4234 8.15713 47.7132 7.68102 47.8374C7.2049 47.9823 6.91509 47.8374 6.81158 47.4027C6.43897 46.1194 5.65234 45.2293 4.41029 44.7533C3.72716 45.9124 2.63002 46.8438 1.16026 47.5269C0.704847 47.7546 0.352934 47.6304 0.125225 47.1957C-0.102484 46.7817 0.00102005 46.4713 0.435737 46.2436H0.415036ZM12.3801 52.2255C12.3801 54.1712 10.7033 55.1854 7.3291 55.2268C3.95487 55.2889 2.27811 54.3368 2.27811 52.3911C2.27811 50.4454 3.95487 49.4312 7.3291 49.3898C10.7033 49.3277 12.3801 50.2798 12.3801 52.2255ZM7.3291 53.9435C9.68899 53.8814 10.8689 53.3225 10.8689 52.2462C10.8689 51.1699 9.68899 50.6524 7.3291 50.7145C4.96921 50.7766 3.78927 51.3355 3.78927 52.4118C3.78927 53.4881 4.96921 54.0056 7.3291 53.9435ZM10.9724 43.4079C10.9517 42.6006 10.9103 41.7934 10.8689 40.9861C10.8275 40.4479 11.0552 40.1582 11.5314 40.1168C12.0282 40.0754 12.2766 40.2824 12.2973 40.7377C12.4836 43.0767 12.4836 45.4156 12.2973 47.7339C12.2766 48.1893 12.0075 48.3755 11.5314 48.3341C11.0345 48.2928 10.8068 48.003 10.8689 47.4648C10.931 46.5541 10.9517 45.6226 10.9724 44.7119H8.77816C8.28134 44.7119 8.03293 44.5049 8.03293 44.0702C8.03293 43.6355 8.28134 43.4286 8.77816 43.4286H10.9724V43.4079ZM14.1811 52.1634C14.2018 51.7287 14.4088 51.5217 14.8228 51.5424C15.4645 51.5838 16.1062 51.6252 16.7687 51.6252V46.9887C16.7687 46.4092 17.0171 46.1194 17.5346 46.1194C18.0521 46.1194 18.3005 46.4092 18.3005 46.9887V51.6666C19.7289 51.6666 21.1779 51.6252 22.6063 51.5424C22.9996 51.5217 23.2273 51.7287 23.248 52.1634C23.2687 52.5774 23.0824 52.8051 22.6684 52.8258C20.0394 52.9707 17.4104 52.9707 14.7814 52.8258C14.3674 52.8051 14.1811 52.5774 14.2018 52.1634H14.1811ZM14.6986 41.7934C14.6986 41.3587 14.947 41.1517 15.4645 41.1517H21.6748C22.1923 41.1517 22.4407 41.3587 22.4407 41.7934V42.7662C22.4407 45.25 22.006 47.2785 21.1158 48.8516C20.8881 49.2449 20.5569 49.3277 20.1429 49.0586C19.6875 48.8102 19.584 48.4997 19.8117 48.0858C20.5569 46.7403 20.9088 44.981 20.9088 42.7662V42.435H15.4438C14.9263 42.435 14.6779 42.228 14.6779 41.7934H14.6986ZM24.6557 52.7844C24.9662 48.8102 24.9662 44.8361 24.6557 40.8619C24.6143 40.4065 24.842 40.1789 25.3388 40.1375C25.8356 40.0961 26.1047 40.303 26.1254 40.7584C26.2703 42.5592 26.3531 44.36 26.3738 46.1608H28.5888C29.0856 46.1608 29.3341 46.3678 29.3341 46.8024C29.3341 47.2371 29.0856 47.4441 28.5888 47.4441H26.3738C26.3531 49.2656 26.2703 51.0871 26.1254 52.9086C26.084 53.3639 25.8356 53.5502 25.3388 53.5088C24.842 53.4674 24.6143 53.2397 24.6557 52.7844ZM37.8628 52.6602C35.2545 52.7637 33.971 50.8387 33.971 46.9473C33.971 43.056 35.2752 41.0689 37.8628 40.9861C40.4504 40.8826 41.7338 42.7869 41.7338 46.6783C41.7338 50.5696 40.4504 52.5774 37.8628 52.6809V52.6602ZM37.8628 42.2487C36.2688 42.2901 35.4822 43.8425 35.4822 46.8852C35.4822 49.9279 36.2688 51.439 37.8628 51.3976C39.436 51.3355 40.2227 49.7831 40.2227 46.7196C40.2227 43.6562 39.436 42.2073 37.8628 42.2694V42.2487ZM44.694 52.7844C45.0046 48.8102 45.0046 44.8361 44.694 40.8619C44.6526 40.4065 44.8804 40.1789 45.3772 40.1375C45.874 40.0961 46.1224 40.303 46.1431 40.7584C46.4743 44.8154 46.4743 48.8516 46.1431 52.9086C46.1224 53.3639 45.8533 53.5502 45.3772 53.5088C44.8804 53.4674 44.6526 53.2397 44.694 52.7844ZM47.675 48.3962C47.6957 47.9616 47.9027 47.7546 48.3167 47.7546C52.4361 47.8788 56.5349 47.8788 60.6544 47.7546C61.0477 47.7546 61.2754 47.9616 61.2961 48.3962C61.3168 48.8102 61.1305 49.0379 60.7165 49.0379C56.5763 49.1621 52.4361 49.1621 48.2753 49.0379C47.8613 49.0379 47.675 48.8102 47.6957 48.3962H47.675ZM51.6702 55.0612C50.3661 55.0612 49.6208 54.4403 49.4552 53.1776L49.2689 51.7908C49.1447 50.8801 49.6415 50.4247 50.7801 50.4247H58.1289C59.2674 50.4247 59.7642 50.8801 59.64 51.7908L59.4537 53.1776C59.2881 54.4403 58.5429 55.0612 57.2387 55.0612H51.6702ZM50.8422 44.0495L50.8836 44.6912C50.8836 45.0431 50.9871 45.2086 51.2148 45.2086H58.7085C59.2674 45.2086 59.5365 45.4156 59.5365 45.8503C59.5365 46.3057 59.2674 46.5127 58.7499 46.5127H50.6559C49.8071 46.5127 49.3724 46.0987 49.3724 45.2914L49.331 43.8218C49.3103 43.0974 49.7036 42.7248 50.511 42.7248H57.7976C58.0254 42.7248 58.1289 42.5592 58.1289 42.2073L58.1703 41.5657H50.097C49.538 41.5657 49.2482 41.3587 49.2482 40.924C49.2482 40.4893 49.4759 40.2617 49.9106 40.2617H58.5015C59.2881 40.2617 59.6607 40.6342 59.6607 41.3794L59.6193 42.849C59.5986 43.6562 59.1432 44.0495 58.2738 44.0495H50.8215H50.8422ZM51.3597 51.7494C50.9871 51.7494 50.8215 51.9771 50.8836 52.4532L50.925 53.0742C50.9871 53.5502 51.2355 53.7779 51.6702 53.7779H57.2387C57.6734 53.7779 57.9012 53.5502 57.984 53.0742L58.0668 52.4532C58.1082 51.9771 57.9426 51.7494 57.5699 51.7494H51.3597ZM62.6623 52.1634C62.683 51.7287 62.89 51.5217 63.3041 51.5424C65.9952 51.708 68.707 51.708 71.4188 51.5424C71.8328 51.5217 72.0398 51.7287 72.0605 52.1634C72.0812 52.5774 71.8949 52.8051 71.4809 52.8258C68.7484 52.9914 66.0159 52.9914 63.2627 52.8258C62.8486 52.8051 62.6623 52.5774 62.683 52.1634H62.6623ZM71.129 44.5256C71.129 47.1336 69.8041 48.4583 67.1751 48.5204C64.5461 48.5825 63.242 47.2992 63.242 44.7119C63.242 42.1245 64.5461 40.7998 67.1751 40.7377C69.8041 40.6756 71.129 41.9382 71.129 44.5463V44.5256ZM67.1751 47.2785C68.7898 47.2164 69.5971 46.3057 69.5971 44.5256C69.5971 42.7455 68.7898 41.9175 67.1751 41.9796C65.5604 42.0417 64.7531 42.9525 64.7531 44.7119C64.7531 46.4713 65.5604 47.3406 67.1751 47.2785ZM73.4682 52.7844C73.7787 48.8102 73.7787 44.8361 73.4682 40.8619C73.4268 40.4065 73.6545 40.1789 74.1513 40.1375C74.6481 40.0961 74.8965 40.303 74.9172 40.7584C75.2484 44.8154 75.2484 48.8516 74.9172 52.9086C74.8965 53.3639 74.6274 53.5502 74.1513 53.5088C73.6545 53.4674 73.4268 53.2397 73.4682 52.7844ZM80.6927 42.4764C80.6927 42.0417 80.9411 41.8348 81.4587 41.8348H83.9842V40.717C83.9842 40.2203 84.2326 39.9512 84.7501 39.9512C85.2676 39.9512 85.516 40.1996 85.516 40.717V41.8348H88.0208C88.5383 41.8348 88.7867 42.0417 88.7867 42.4764C88.7867 42.9111 88.5383 43.1181 88.0208 43.1181H87.6896C88.1036 43.6148 88.3106 44.2979 88.3106 45.1672C88.3106 47.4855 87.1307 48.686 84.7708 48.7895C82.4109 48.8723 81.2103 47.7546 81.2103 45.457C81.2103 44.4428 81.5001 43.6769 82.059 43.1181H81.4794C80.9825 43.1181 80.7134 42.9111 80.7134 42.4764H80.6927ZM84.7501 43.1388C83.3838 43.2009 82.7214 43.946 82.7214 45.4156C82.7214 46.8852 83.4045 47.6097 84.7501 47.5476C86.0956 47.4855 86.7581 46.7196 86.7581 45.2707C86.7581 43.9253 86.1784 43.2216 85.0192 43.1595H84.7501V43.1388ZM82.9077 51.439C82.8456 50.8594 83.0112 50.5075 83.4459 50.3833C84.0049 50.2177 84.2947 50.404 84.3568 50.9629L84.6052 52.7844C84.6673 53.3639 84.9571 53.6537 85.4746 53.6537C87.6068 53.7572 89.7183 53.7572 91.8298 53.6537C92.2852 53.633 92.4922 53.8193 92.4922 54.1919C92.4922 54.668 92.2645 54.9163 91.8298 54.9577C89.6976 55.0819 87.3377 55.0819 84.7708 54.9577C83.8393 54.9163 83.3217 54.461 83.1975 53.5916L82.9077 51.4183V51.439ZM91.1259 50.0314C91.3743 46.968 91.3743 43.9046 91.1259 40.8412C91.0845 40.3858 91.3122 40.1582 91.8091 40.1168C92.3059 40.0754 92.575 40.2824 92.5957 40.7377C92.6785 41.8555 92.7406 42.9732 92.7613 44.0702H95.0384C95.5352 44.0702 95.7836 44.2772 95.7836 44.7119C95.7836 45.1465 95.5352 45.3535 95.0384 45.3535H92.782C92.782 46.9473 92.7199 48.5411 92.5957 50.1142C92.5543 50.5696 92.3059 50.7559 91.8091 50.7145C91.3122 50.6731 91.0845 50.4454 91.1259 49.99V50.0314ZM100.462 52.6602C97.8537 52.7637 96.5702 50.8387 96.5702 46.9473C96.5702 43.056 97.8744 41.0689 100.462 40.9861C102.925 40.8826 104.23 42.6213 104.333 46.1815H107.521C107.5 44.4221 107.417 42.642 107.293 40.8619C107.252 40.4065 107.48 40.1789 107.976 40.1375C108.473 40.0961 108.722 40.303 108.742 40.7584C109.074 44.8154 109.074 48.8516 108.742 52.9086C108.722 53.3639 108.452 53.5502 107.976 53.5088C107.48 53.4674 107.252 53.2397 107.293 52.7844C107.417 51.025 107.5 49.2449 107.521 47.4648H104.333C104.147 50.8387 102.863 52.5774 100.462 52.6602ZM100.462 42.2487C98.868 42.2901 98.0814 43.8425 98.0814 46.8852C98.0814 49.9279 98.868 51.439 100.462 51.3976C102.035 51.3355 102.822 49.7831 102.822 46.7196C102.822 43.6562 102.035 42.2073 100.462 42.2694V42.2487ZM112.531 42.7248H117.043L117.085 41.0482C117.085 40.5928 117.354 40.3651 117.851 40.3651C118.347 40.3651 118.575 40.5928 118.575 41.0482V41.8348H121.494C121.473 41.545 121.453 41.2759 121.453 40.9654C121.411 40.4272 121.639 40.1375 122.115 40.0961C122.612 40.0547 122.86 40.2617 122.881 40.717C123.067 43.056 123.067 45.3949 122.881 47.7132C122.86 48.1686 122.591 48.3548 122.115 48.3134C121.618 48.2721 121.39 47.9823 121.453 47.4441C121.473 47.0508 121.494 46.6369 121.515 46.2436H118.472C118.327 47.2371 117.706 47.7132 116.609 47.7132H112.965C111.744 47.7132 111.102 47.0922 111.082 45.8503L110.978 41.0068C110.978 40.5514 111.226 40.3237 111.744 40.3237C112.22 40.3237 112.468 40.5514 112.489 41.0068L112.531 42.6834V42.7248ZM117.002 44.0288H112.551L112.593 45.6847C112.593 46.285 112.841 46.5748 113.338 46.5748H116.215C116.712 46.5748 116.961 46.285 116.981 45.6847L117.023 44.0288H117.002ZM122.964 52.2255C122.964 54.1712 121.287 55.1854 117.913 55.2268C114.539 55.2889 112.862 54.3368 112.862 52.3911C112.862 50.4454 114.539 49.4312 117.913 49.3898C121.287 49.3277 122.964 50.2798 122.964 52.2255ZM117.913 53.9435C120.273 53.8814 121.453 53.3225 121.453 52.2462C121.453 51.1699 120.273 50.6524 117.913 50.7145C115.553 50.7766 114.373 51.3355 114.373 52.4118C114.373 53.4881 115.553 54.0056 117.913 53.9435ZM118.534 43.1595L118.492 44.981H121.535C121.535 44.3807 121.535 43.7597 121.535 43.1595H118.513H118.534ZM124.413 47.4648C124.434 47.0301 124.641 46.8231 125.055 46.8438C129.174 47.1336 133.273 47.1336 137.392 46.8438C137.786 46.8231 138.013 47.0301 138.034 47.4648C138.055 47.8995 137.868 48.1272 137.454 48.1479C133.314 48.4169 129.174 48.4169 125.013 48.1479C124.599 48.1272 124.413 47.8995 124.434 47.4648H124.413ZM136.688 42.642C136.688 44.4428 134.867 45.3535 131.244 45.4156C127.601 45.4777 125.779 44.6084 125.779 42.8076C125.779 41.0068 127.601 40.0754 131.244 40.034C134.867 39.9719 136.688 40.8412 136.688 42.642ZM128.449 55.0612C127.145 55.0612 126.4 54.4403 126.234 53.1776L125.986 51.2527C125.862 50.3419 126.359 49.9072 127.497 49.9072H134.97C136.109 49.9072 136.606 50.3626 136.481 51.2527L136.233 53.1776C136.067 54.4403 135.322 55.0612 134.018 55.0612H128.449ZM131.223 44.1737C133.852 44.1116 135.157 43.6148 135.157 42.642C135.157 41.6692 133.852 41.2345 131.223 41.2966C128.594 41.3587 127.27 41.8555 127.27 42.8283C127.27 43.8011 128.594 44.2358 131.223 44.1737ZM128.056 51.2113C127.684 51.2113 127.518 51.439 127.58 51.915L127.684 52.8879C127.746 53.4674 127.994 53.7779 128.429 53.7779H134.039C134.473 53.7779 134.701 53.4881 134.784 52.8879L134.887 51.915C134.95 51.439 134.784 51.2113 134.411 51.2113H128.077H128.056ZM146.48 40.717C146.48 40.2203 146.728 39.9512 147.246 39.9512C147.763 39.9512 148.012 40.1996 148.012 40.717V41.6692H148.529C149.854 41.6692 150.537 42.3108 150.537 43.5734C150.537 44.36 150.31 45.0638 149.875 45.6847C150.517 45.9745 151.138 46.4713 151.738 47.1957C152.028 47.5683 152.007 47.8995 151.696 48.1893C151.324 48.5618 151.013 48.5618 150.724 48.1479C150.227 47.4234 149.585 46.9473 148.819 46.6783C147.743 47.4441 146.19 48.0237 144.141 48.3962C143.665 48.4997 143.395 48.2928 143.333 47.8167C143.251 47.3406 143.437 47.0715 143.892 46.968C147.37 46.285 149.109 45.0638 149.109 43.3251C149.109 43.0767 149.005 42.9525 148.778 42.9525H144.451C143.913 42.9525 143.644 42.7248 143.644 42.2901C143.644 41.8555 143.892 41.6485 144.41 41.6485H146.501V40.6963L146.48 40.717ZM145.962 53.6744C148.633 53.1569 149.978 52.0185 149.978 50.2177C149.978 49.6382 150.227 49.3484 150.744 49.3484C151.262 49.3484 151.489 49.6175 151.489 50.1556C151.489 50.5489 151.448 50.9008 151.365 51.2527C153.27 51.7287 154.677 52.6188 155.588 53.9228C155.857 54.2954 155.775 54.6059 155.361 54.8749C154.967 55.1854 154.615 55.144 154.367 54.7714C153.58 53.6537 152.38 52.8879 150.806 52.5153C149.978 53.7572 148.384 54.5852 146.004 55.0198C145.569 55.1026 145.341 54.9163 145.259 54.4817C145.176 54.047 145.403 53.7779 145.942 53.6744H145.962ZM154.222 44.2772C154.222 43.1181 154.16 41.9796 154.077 40.8412C154.036 40.3858 154.263 40.1582 154.76 40.1168C155.257 40.0754 155.505 40.2824 155.526 40.7377C155.754 43.4079 155.754 46.0987 155.526 48.8102C155.485 49.3484 155.236 49.5968 154.739 49.5554C154.243 49.514 154.015 49.2863 154.056 48.8309C154.139 47.7339 154.181 46.6576 154.201 45.5812H152.504C152.007 45.5812 151.759 45.3742 151.759 44.9396C151.759 44.5049 152.007 44.2979 152.504 44.2979H154.201L154.222 44.2772ZM160.929 46.4713C160.95 46.0366 161.157 45.8296 161.571 45.8503C165.69 46.1194 169.789 46.1194 173.908 45.8503C174.302 45.8296 174.529 46.0366 174.55 46.4713C174.571 46.8852 174.385 47.1129 173.971 47.1336C169.83 47.4027 165.69 47.4027 161.529 47.1336C161.115 47.1129 160.929 46.8852 160.95 46.4713H160.929ZM162.192 41.1103C162.192 40.6756 162.461 40.4686 162.978 40.4686H172.211C172.749 40.4686 172.998 40.6756 172.998 41.1103V41.7106C172.998 42.7041 172.749 43.6562 172.232 44.5463C172.004 44.9603 171.693 45.0431 171.279 44.774C170.824 44.5256 170.721 44.1944 170.928 43.7804C171.279 43.1595 171.445 42.4764 171.466 41.752H162.958C162.419 41.752 162.171 41.545 162.171 41.1103H162.192ZM162.212 49.3484C162.212 48.9344 162.461 48.7067 162.978 48.7067H171.921C172.832 48.7067 173.246 49.0793 173.143 49.8245L172.956 51.3355C172.853 52.122 172.397 52.5153 171.59 52.5153H164.096L164.262 53.7779H171.756C172.294 53.7779 172.563 53.9849 172.563 54.4196C172.563 54.8542 172.314 55.0612 171.797 55.0612H164.096C163.31 55.0612 162.875 54.668 162.771 53.9021L162.585 52.3911C162.482 51.6252 162.896 51.2527 163.848 51.2527H171.445L171.59 49.99H162.978C162.44 49.99 162.171 49.7831 162.171 49.3484H162.212ZM176.248 41.9796C176.248 41.545 176.496 41.338 177.014 41.338H180.74C182.334 41.338 183.141 42.1038 183.141 43.6148C183.141 45.9745 182.686 47.8995 181.754 49.3277C182.748 49.7417 183.617 50.3626 184.342 51.232C184.631 51.6045 184.611 51.9564 184.3 52.2462C183.928 52.6188 183.617 52.5981 183.327 52.1841C182.789 51.3976 181.982 50.7973 180.905 50.3833C179.87 51.4183 178.483 52.122 176.724 52.4532C176.248 52.536 175.979 52.329 175.916 51.8529C175.834 51.3769 176.02 51.1078 176.475 51.025C179.891 50.3419 181.609 47.7753 181.609 43.3458C181.609 42.8697 181.381 42.6213 180.947 42.6213H177.034C176.496 42.6213 176.227 42.4143 176.227 41.9796H176.248ZM186.37 52.7844C186.681 48.8102 186.681 44.8361 186.37 40.8619C186.329 40.4065 186.557 40.1789 187.053 40.1375C187.55 40.0961 187.819 40.303 187.84 40.7584C187.985 42.5592 188.068 44.36 188.088 46.1608H190.303C190.8 46.1608 191.049 46.3678 191.049 46.8024C191.049 47.2371 190.8 47.4441 190.303 47.4441H188.088C188.068 49.2656 187.985 51.0871 187.84 52.9086C187.799 53.3639 187.55 53.5502 187.053 53.5088C186.557 53.4674 186.329 53.2397 186.37 52.7844ZM191.401 48.1686C191.421 47.7132 191.628 47.5062 192.042 47.5269C196.162 47.8167 200.261 47.8167 204.38 47.5269C204.773 47.5062 205.001 47.7132 205.022 48.1686C205.042 48.5825 204.856 48.8102 204.442 48.8309C200.302 49.1 196.162 49.1 192.001 48.8309C191.587 48.8102 191.401 48.5825 191.421 48.1686H191.401ZM193.16 51.439C193.077 50.8594 193.243 50.5075 193.657 50.3833C194.216 50.2177 194.526 50.404 194.609 50.9629L194.816 52.7844C194.878 53.3639 195.168 53.6537 195.686 53.6537C198.418 53.7365 200.716 53.7365 202.579 53.6537C203.034 53.633 203.262 53.8193 203.262 54.1919C203.262 54.668 203.034 54.9163 202.579 54.9577C199.95 55.0819 197.425 55.0819 194.982 54.9577C194.05 54.9163 193.533 54.461 193.409 53.5916L193.16 51.4183V51.439ZM193.16 40.8412C193.139 40.3651 193.388 40.1168 193.926 40.0961C194.402 40.0961 194.651 40.303 194.671 40.7377L194.713 43.3872C194.713 43.9667 194.961 44.2772 195.458 44.3186C197.3 44.5256 199.743 44.4842 202.745 44.153C203.179 44.1116 203.428 44.2772 203.511 44.6705C203.573 45.1051 203.407 45.3535 202.993 45.4156C199.847 45.8296 197.114 45.8917 194.796 45.6226C193.802 45.4984 193.284 45.0224 193.264 44.1737L193.202 40.8205L193.16 40.8412Z" fill="#231815"/>
<path d="M0.414839 65.6801C0.394138 64.997 0.787453 64.6658 1.59478 64.6658H5.98335C6.50087 64.6658 6.74928 64.8728 6.74928 65.3075C6.74928 65.7422 6.48017 65.9492 5.94195 65.9492H2.42282C2.0916 65.9492 1.926 66.1769 1.9467 66.6322L2.0916 73.6284C2.0916 74.1666 2.38141 74.4563 2.94034 74.4977C4.09958 74.6219 5.32093 74.5598 6.64578 74.3528C7.184 74.2701 7.43241 74.4149 7.43241 74.7875C7.43241 75.2636 7.2047 75.5534 6.72858 75.6362C5.05182 75.9466 3.39575 75.9673 1.71899 75.6983C0.97376 75.5741 0.601146 75.1187 0.580445 74.3528L0.414839 65.6594V65.6801ZM12.5041 69.468C12.4834 67.7086 12.4006 65.9492 12.2764 64.1691C12.235 63.7137 12.4627 63.486 12.9595 63.4446C13.4563 63.4032 13.7048 63.6102 13.7255 64.0656C14.0567 68.1225 14.0567 72.1588 13.7255 76.2157C13.7048 76.6711 13.4356 76.8574 12.9595 76.816C12.4627 76.7746 12.235 76.5469 12.2764 76.0915C12.4006 74.3114 12.4834 72.5521 12.5041 70.7513H10.5996C10.5789 72.4693 10.4961 74.1666 10.3512 75.8639C10.3098 76.3192 10.0614 76.5055 9.56459 76.4641C9.06777 76.4227 8.84006 76.195 8.88146 75.7397C9.21268 71.9932 9.21268 68.2467 8.88146 64.5003C8.84006 64.0449 9.06777 63.8172 9.56459 63.7758C10.0614 63.7344 10.3305 63.9207 10.3512 64.3761C10.4961 66.0734 10.5789 67.7707 10.5996 69.4473H12.5041V69.468ZM15.3608 71.4964C15.3815 71.0411 15.5885 70.8341 16.0025 70.8548C20.122 71.1445 24.2208 71.1445 28.3402 70.8548C28.7335 70.8341 28.9612 71.0411 28.9819 71.4964C29.0026 71.9104 28.8163 72.1381 28.4023 72.1588C26.7463 72.2623 25.0902 72.3244 23.4548 72.3451V74.6012C23.4548 75.1808 23.2064 75.4706 22.6889 75.4706C22.1714 75.4706 21.923 75.1808 21.923 74.6012V72.3451C19.9357 72.3451 17.9484 72.283 15.9611 72.1588C15.5471 72.1381 15.3608 71.9104 15.3815 71.4964H15.3608ZM18.9214 69.1989C17.6793 69.1989 17.0376 68.5779 17.0169 67.3153L16.9548 64.6658C16.9341 63.9828 17.3481 63.6309 18.1761 63.6309H26.1252C26.9533 63.6309 27.3673 63.9828 27.3466 64.6658L27.2845 67.3153C27.2431 68.5779 26.622 69.1989 25.38 69.1989H18.9214ZM17.1204 74.7668C17.0376 74.1873 17.2032 73.8354 17.6172 73.7112C18.1761 73.5456 18.4866 73.7319 18.5694 74.2907L18.7764 76.1122C18.8385 76.6918 19.1284 76.9816 19.6459 76.9816C22.3784 77.0644 24.6762 77.0644 26.5392 76.9816C26.9947 76.9609 27.2224 77.1472 27.2224 77.5197C27.2224 77.9958 26.9947 78.2442 26.5392 78.2856C23.9102 78.4098 21.3847 78.4098 18.9421 78.2856C18.0105 78.2442 17.493 77.7888 17.3688 76.9195L17.1204 74.7461V74.7668ZM18.9835 64.9142C18.6315 64.9142 18.4659 65.1419 18.4866 65.618L18.528 66.9841C18.528 67.5637 18.7764 67.8535 19.2526 67.8535H25.0488C25.5249 67.8535 25.7526 67.5637 25.7733 66.9841L25.8147 65.618C25.8147 65.1419 25.6491 64.9142 25.3179 64.9142H18.9835ZM30.6794 65.3075C30.6794 64.8728 30.9278 64.6658 31.4453 64.6658H35.1715C36.7654 64.6658 37.5728 65.4317 37.5728 66.9427C37.5728 69.3024 37.1174 71.2273 36.1858 72.6556C37.1795 73.0695 38.0489 73.6905 38.7734 74.5598C39.0632 74.9324 39.0425 75.2843 38.732 75.5741C38.3594 75.9466 38.0489 75.9259 37.7591 75.512C37.2209 74.7254 36.4135 74.1252 35.3371 73.7112C34.302 74.7461 32.9151 75.4499 31.1555 75.7811C30.6794 75.8639 30.4103 75.6569 30.3482 75.1808C30.2654 74.7047 30.4517 74.4356 30.9071 74.3528C34.3227 73.6698 36.0409 71.1031 36.0409 66.6736C36.0409 66.1976 35.8132 65.9492 35.3785 65.9492H31.466C30.9278 65.9492 30.6587 65.7422 30.6587 65.3075H30.6794ZM40.8021 76.1122C41.1126 72.1381 41.1126 68.1639 40.8021 64.1898C40.7607 63.7344 40.9884 63.5067 41.4852 63.4653C41.982 63.4239 42.2512 63.6309 42.2719 64.0863C42.4168 65.8871 42.4996 67.6879 42.5203 69.4887H44.7352C45.2321 69.4887 45.4805 69.6956 45.4805 70.1303C45.4805 70.565 45.2321 70.772 44.7352 70.772H42.5203C42.4996 72.5935 42.4168 74.4149 42.2719 76.2364C42.2304 76.6918 41.982 76.8781 41.4852 76.8367C40.9884 76.7953 40.7607 76.5676 40.8021 76.1122ZM49.0617 68.9919V70.565C49.0617 70.8962 49.1859 71.0824 49.4136 71.0824H56.8038C57.3627 71.0824 57.6525 71.2894 57.6525 71.7241C57.6525 72.1795 57.3834 72.3865 56.8452 72.3865H53.3882V75.1187C55.1892 75.1187 56.9901 75.0359 58.7911 74.9117C59.1844 74.891 59.4121 75.098 59.4328 75.5327C59.4535 75.9466 59.2672 76.1743 58.8532 76.195C54.713 76.4848 50.5729 76.4848 46.412 76.195C45.998 76.1743 45.8117 75.9466 45.8324 75.5327C45.8531 75.098 46.0601 74.891 46.4741 74.9117C48.2751 75.0359 50.0761 75.1187 51.8977 75.1187V72.3865H48.8961C48.0474 72.3865 47.6127 71.9932 47.6127 71.1859L47.5713 68.7849C47.5506 68.0604 47.9439 67.6879 48.7512 67.6879H55.9344C56.1621 67.6879 56.2863 67.5223 56.2863 67.1497L56.3277 65.618H48.3165C47.7576 65.618 47.4678 65.411 47.4678 64.9763C47.4678 64.5417 47.6955 64.314 48.1302 64.314H56.6589C57.4455 64.314 57.8182 64.6866 57.8182 65.4317L57.7767 67.8121C57.7561 68.6193 57.3006 69.0126 56.4312 69.0126H49.1031L49.0617 68.9919ZM74.5444 65.618L74.3995 70.5443H75.7657C76.2626 70.5443 76.511 70.7513 76.511 71.1859C76.511 71.6413 76.2626 71.8483 75.7657 71.8483H74.2546V75.0359C75.2689 74.9945 76.2833 74.9531 77.2976 74.8703C77.6909 74.8496 77.9186 75.0566 77.9393 75.4913C77.96 75.9052 77.7737 76.1329 77.3597 76.1536C73.2195 76.4434 69.0794 76.4434 64.9185 76.1536C64.5045 76.1329 64.3182 75.9052 64.3389 75.4913C64.3596 75.0566 64.5666 74.8496 64.9806 74.8703C65.995 74.9324 67.0093 74.9945 68.0237 75.0359V71.8483H66.4918C65.995 71.8483 65.7466 71.6206 65.7466 71.1859C65.7466 70.772 65.995 70.5443 66.4918 70.5443H67.858L67.7131 65.618H66.3469C65.8501 65.618 65.6017 65.3903 65.6017 64.9349C65.6017 64.521 65.8501 64.2933 66.3469 64.2933H75.952C76.4489 64.2933 76.6973 64.5003 76.6973 64.9349C76.6973 65.3903 76.4489 65.618 75.952 65.618H74.5651H74.5444ZM72.8883 70.5443L73.0539 65.618H69.2036L69.3485 70.5443H72.8676H72.8883ZM72.7227 71.8483H69.5348V75.0773C70.6113 75.098 71.667 75.098 72.7227 75.0773V71.8483ZM79.4919 65.3075C79.4919 64.8728 79.7403 64.6658 80.2578 64.6658H86.4681C86.9856 64.6658 87.234 64.8728 87.234 65.3075V66.9427C87.234 72.7797 84.8741 75.7397 80.1543 75.8225C79.7196 75.8225 79.4919 75.6155 79.4919 75.1808C79.4712 74.7461 79.6782 74.5184 80.1129 74.5184C83.8598 74.4563 85.7435 71.9518 85.7435 67.0048V65.9699H80.2785C79.761 65.9699 79.5126 65.7629 79.5126 65.3282L79.4919 65.3075ZM90.1321 76.1122C90.4426 72.1381 90.4426 68.1639 90.1321 64.1898C90.0907 63.7344 90.3184 63.5067 90.8152 63.4653C91.312 63.4239 91.5605 63.6309 91.5812 64.0863C91.9124 68.1432 91.9124 72.1795 91.5812 76.2364C91.5605 76.6918 91.2913 76.8781 90.8152 76.8367C90.3184 76.7953 90.0907 76.5676 90.1321 76.1122ZM93.4856 66.6736C93.4856 66.239 93.734 66.032 94.2516 66.032H96.4251V64.2105C96.4251 63.693 96.6736 63.4446 97.1911 63.4446C97.7086 63.4446 97.957 63.693 97.957 64.2105V66.032H100.131C100.648 66.032 100.897 66.239 100.897 66.6736C100.897 67.1083 100.648 67.3153 100.131 67.3153H94.2723C93.7754 67.3153 93.5063 67.1083 93.5063 66.6736H93.4856ZM97.1911 75.988C95.0589 76.0915 93.9825 74.9117 93.9825 72.5107C93.9825 70.1096 95.0589 68.8677 97.1911 68.7849C99.3233 68.6814 100.4 69.8405 100.4 72.2416C100.4 74.6426 99.3233 75.9052 97.1911 75.988ZM97.1704 70.0475C96.0525 70.1096 95.4936 70.9169 95.4936 72.4693C95.4936 74.0217 96.0525 74.7875 97.1911 74.7254C98.3089 74.6633 98.8678 73.8354 98.8678 72.2623C98.8678 70.6892 98.3089 69.9854 97.1704 70.0475ZM105.927 69.468C105.906 67.7086 105.823 65.9492 105.699 64.1691C105.658 63.7137 105.885 63.486 106.382 63.4446C106.879 63.4032 107.127 63.6102 107.148 64.0656C107.479 68.1225 107.479 72.1588 107.148 76.2157C107.127 76.6711 106.858 76.8574 106.382 76.816C105.885 76.7746 105.658 76.5469 105.699 76.0915C105.823 74.3114 105.906 72.5521 105.927 70.7513H104.022C104.002 72.4693 103.919 74.1666 103.774 75.8639C103.733 76.3192 103.484 76.5055 102.987 76.4641C102.49 76.4227 102.263 76.195 102.304 75.7397C102.635 71.9932 102.635 68.2467 102.304 64.5003C102.263 64.0449 102.49 63.8172 102.987 63.7758C103.484 63.7344 103.753 63.9207 103.774 64.3761C103.919 66.0734 104.002 67.7707 104.022 69.4473H105.927V69.468ZM112.448 71.6827C112.448 71.6827 112.448 71.5171 112.448 71.4343C110.874 70.8755 110.088 69.737 110.088 68.019C110.088 65.4317 111.909 64.107 115.553 64.0449C119.175 63.9828 120.997 65.2454 120.997 67.8535C120.997 69.5714 120.21 70.7513 118.616 71.3515C118.637 71.455 118.658 71.5585 118.658 71.6827V75.0359C119.672 74.9945 120.686 74.9531 121.701 74.8703C122.094 74.8496 122.322 75.0566 122.343 75.4913C122.363 75.9052 122.177 76.1329 121.763 76.1536C117.623 76.4434 113.483 76.4434 109.322 76.1536C108.908 76.1329 108.721 75.9052 108.742 75.4913C108.763 75.0566 108.97 74.8496 109.384 74.8703C110.398 74.9324 111.413 74.9945 112.427 75.0359V71.6827H112.448ZM115.573 70.6064C118.202 70.5443 119.507 69.6335 119.507 67.8535C119.507 66.0734 118.202 65.2454 115.573 65.3075C112.944 65.3696 111.62 66.2803 111.62 68.0397C111.62 69.7991 112.944 70.6685 115.573 70.6064ZM117.167 71.7241C116.671 71.8069 116.153 71.8483 115.573 71.8483C114.994 71.8483 114.456 71.8483 113.979 71.7862V75.0773C115.056 75.098 116.112 75.098 117.167 75.0773V71.7448V71.7241ZM123.564 75.8432C123.564 75.2636 123.874 74.9738 124.495 74.9738C125.116 74.9738 125.406 75.2636 125.406 75.8432V75.988C125.406 76.5676 125.096 76.8574 124.495 76.8574C123.895 76.8574 123.564 76.5676 123.564 75.988V75.8432Z" fill="#231815"/>
</g>
<path d="M41.8884 15.1113C41.7967 20.0798 39.2997 23.3768 34.53 24.7272C33.9083 24.9056 33.6586 25.1961 33.4446 25.7566C32.4865 28.2842 30.6367 29.7161 27.9257 29.8792C25.0771 30.0524 22.9165 28.8753 21.6985 26.256C21.3673 25.5426 20.9342 25.2317 20.2004 25.1808C18.9824 25.0891 17.8919 24.6559 17.0409 23.7743C16.5976 23.3157 16.302 23.3106 15.8077 23.7437C14.2178 25.14 12.3374 25.563 10.2634 25.2063C7.21604 24.6865 5.26942 22.5258 5.09106 19.4275C4.99933 17.7867 4.9229 16.1458 4.89742 14.5049C4.88723 13.8679 4.69358 13.5825 4.06169 13.343C1.18252 12.2372 -0.13222 10.0919 0.0104643 6.92732C0.132766 4.22141 1.83479 1.87221 4.59166 1.24032C8.78048 0.28229 13.0304 -0.395463 17.3467 0.486125C17.8359 0.588043 18.2486 0.445358 18.6971 0.317961C22.3101 -0.69612 25.5103 0.751111 27.0339 4.15007C27.3295 4.80744 27.7015 4.86859 28.2926 4.8533C30.494 4.80234 32.67 5.03165 34.7899 5.64826C39.208 6.93242 41.97 10.632 41.8884 15.1062V15.1113ZM25.5714 21.262C25.5714 21.9806 25.5459 22.694 25.5765 23.4125C25.6326 24.7935 26.2237 25.4305 27.4518 25.4712C28.471 25.5069 29.2557 24.7578 29.3679 23.5297C29.4443 22.694 29.4188 21.843 29.4086 21.0022C29.4035 20.4569 29.5411 20.2327 30.1424 20.411C31.0036 20.6709 31.9056 20.6047 32.7821 20.5282C34.9173 20.3448 36.604 18.923 37.1544 16.8898C37.8015 14.5049 37.1136 12.2576 35.381 10.9735C33.8879 9.86255 32.1196 9.64343 30.3666 9.44979C27.2276 9.11346 26.8505 9.42431 26.2848 12.5634C26.2186 12.9354 26.1523 13.3074 26.1218 13.6845C26.0555 14.4845 25.9944 15.2234 25.2402 15.7891C24.6338 16.2426 24.5879 17.1497 24.9752 17.644C25.8772 18.7854 25.5612 20.0288 25.5714 21.2569V21.262ZM13.2037 16.1152C13.2037 16.1152 13.168 16.1152 13.1477 16.1152C13.1477 15.1878 13.1782 14.2603 13.1375 13.3379C13.0967 12.3697 12.9999 11.4066 12.9234 10.4435C12.8249 9.16272 13.4143 8.49176 14.6917 8.43061C16.2154 8.35417 16.9849 7.7019 16.9747 6.47889C16.9696 5.26606 16.2256 4.61889 14.6255 4.64946C12.8164 4.68513 11.0074 4.83291 9.20854 4.99089C8.03648 5.0928 6.85424 5.16924 5.72805 5.56672C4.6732 5.93872 4.11775 7.02414 4.40312 8.08409C4.64772 8.99625 5.61594 9.46507 6.74722 9.21028C7.03259 9.14403 7.31287 9.05231 7.59314 8.96568C8.46454 8.6905 8.84163 8.87395 8.93845 9.90842C9.22892 12.9252 9.3767 15.947 9.43275 18.9791C9.45823 20.3499 10.0341 20.8544 11.2775 20.8493C12.5514 20.8391 13.1171 20.3397 13.1935 19.03C13.2496 18.0669 13.2037 17.0936 13.2037 16.1254V16.1152ZM23.1101 16.6248C23.1407 14.9839 23.0235 13.3583 22.6617 11.7531C22.4018 10.6015 21.6935 10.0256 20.4857 10.1428C19.227 10.2651 18.8499 11.2181 18.8907 12.2016C18.9824 14.5864 19.2321 16.9662 19.436 19.346C19.5328 20.5079 20.2462 20.8849 21.3418 20.8493C22.4884 20.8136 23.0439 20.2276 23.0999 19.1473C23.1458 18.3115 23.1101 17.4707 23.1101 16.6299V16.6248ZM22.8502 6.30562C23.1967 5.24059 22.4935 4.58322 21.5304 4.44563C19.7825 4.19593 18.5748 5.20491 18.5493 6.69801C18.5238 8.00765 19.3188 8.86886 20.5927 8.91472C22.0756 8.96568 22.7993 8.17072 22.8502 6.31072V6.30562Z" fill="#6A83B4"/>
<path d="M25.5719 21.2572C25.5566 20.0291 25.8777 18.7857 24.9757 17.6442C24.5833 17.1499 24.6292 16.2479 25.2407 15.7893C25.9949 15.2237 26.056 14.4797 26.1223 13.6847C26.1529 13.3076 26.2191 12.9356 26.2853 12.5636C26.851 9.42965 27.2281 9.11371 30.3672 9.45004C32.1252 9.63858 33.8884 9.8628 35.3815 10.9737C37.1141 12.263 37.802 14.5052 37.1549 16.89C36.6045 18.9233 34.9178 20.345 32.7826 20.5285C31.901 20.6049 31.0041 20.6712 30.1429 20.4113C29.5416 20.2278 29.3989 20.4571 29.4091 21.0024C29.4193 21.8432 29.4448 22.6942 29.3684 23.53C29.2562 24.7581 28.4664 25.5072 27.4523 25.4715C26.2242 25.4256 25.6382 24.7937 25.577 23.4128C25.5464 22.6993 25.5719 21.9808 25.5719 21.2623V21.2572ZM31.473 16.783C32.8539 16.8136 33.5776 16.2683 33.6285 15.2441C33.6846 14.1586 32.4921 13.2006 30.8767 13.2261C29.0932 13.2567 29.9442 14.8058 29.7709 15.6161C29.455 17.1091 30.8971 16.4925 31.473 16.7881V16.783Z" fill="#FCFCFC"/>
<path d="M13.2027 16.1137C13.2027 17.0819 13.2486 18.0552 13.1925 19.0183C13.1161 20.328 12.5505 20.8274 11.2765 20.8376C10.028 20.8478 9.45725 20.3382 9.43177 18.9674C9.38082 15.9353 9.22794 12.9186 8.93747 9.8967C8.84065 8.86224 8.45846 8.67369 7.59216 8.95396C7.31189 9.04569 7.03161 9.13232 6.74624 9.19856C5.61496 9.45845 4.64674 8.98963 4.40214 8.07237C4.11677 7.01753 4.67731 5.92701 5.72707 5.55501C6.84816 5.15753 8.0355 5.08109 9.20756 4.97917C11.0115 4.8212 12.8205 4.67342 14.6245 4.63775C16.2297 4.60717 16.9686 5.25944 16.9737 6.46717C16.9788 7.69018 16.2144 8.34246 14.6907 8.41889C13.4168 8.48344 12.8273 9.1544 12.9225 10.4318C12.9938 11.3949 13.0957 12.358 13.1365 13.3262C13.1722 14.2486 13.1467 15.176 13.1467 16.1035C13.1671 16.1035 13.1823 16.1035 13.2027 16.1035V16.1137Z" fill="#FCFCFC"/>
<path d="M22.8389 16.586C22.8389 17.4268 22.8745 18.2676 22.8287 19.1033C22.7726 20.1888 22.2121 20.7697 21.0706 20.8054C19.975 20.841 19.2615 20.464 19.1647 19.3021C18.9609 16.9223 18.7112 14.5425 18.6195 12.1577C18.5838 11.1793 18.9609 10.2212 20.2145 10.0989C21.4222 9.98172 22.1254 10.5576 22.3904 11.7092C22.7522 13.3144 22.8694 14.94 22.8389 16.5809V16.586Z" fill="#FCFCFC"/>
<path d="M22.8484 6.30914C22.7974 8.16914 22.0738 8.9692 20.5909 8.91314C19.3119 8.86728 18.522 8.00607 18.5475 6.69643C18.578 5.20843 19.7858 4.19435 21.5286 4.44405C22.4917 4.58164 23.1949 5.2441 22.8484 6.30405V6.30914Z" fill="#FCFCFC"/>
<path d="M31.4717 16.7879C30.85 16.6962 29.0053 17.1395 29.3213 15.6464C29.4945 14.8362 29.0868 13.2615 30.8704 13.231C32.4858 13.2055 33.6782 14.1635 33.6222 15.2489C33.5712 16.2732 32.8476 16.8185 31.4666 16.7879H31.4717Z" fill="#6A83B4"/>
<defs>
<clipPath id="clip0_2622_4295">
<rect width="205" height="38.4375" fill="white" transform="translate(0 39.9512)"/>
</clipPath>
</defs>
</svg>
