<svg width="242" height="52" viewBox="0 0 242 52" fill="none" xmlns="http://www.w3.org/2000/svg">
<path d="M19.868 39.75C19.459 39.75 19.1863 39.6124 18.7772 39.4747C14.6868 36.4464 10.5963 33.1428 7.46032 28.6004C6.50588 26.9486 5.00605 24.4709 5.00605 21.4427C4.8697 17.7261 7.05128 14.2849 10.1873 12.9084C13.3233 11.5319 17.141 12.3578 19.868 14.9732L20.0044 15.2485C20.1407 15.1108 20.2771 14.9732 20.4134 14.8355C23.4131 12.0825 27.5035 11.5319 30.7759 13.459C34.0482 15.5238 35.6844 19.6532 34.73 23.6451C33.9119 27.0863 31.7303 29.8393 29.8214 32.0416C27.0945 35.0699 23.9585 37.41 21.2315 39.4747C20.9588 39.6124 20.4134 39.75 19.868 39.75Z" fill="#E6002D"/>
<path d="M59 39.04H55.04V14.84L48.28 18.84L46.4 15.64L55.68 10.2H59V39.04ZM68.9741 35.72L79.7341 24.04C83.0141 20.44 83.3341 18.84 83.3341 17.32V17C83.3341 14.72 81.3741 13.32 78.3741 13.32C76.2541 13.32 73.9741 14.16 72.0941 17.52L69.0541 15.56C70.4141 13.08 72.9741 9.76 78.2941 9.76C84.1341 9.76 87.2941 12.8 87.2941 17V17.4C87.2941 20.52 85.4541 23.24 82.8541 26L73.8541 35.6H88.3341V39.04H68.9741V35.72Z" fill="#E6002D"/>
<path fill-rule="evenodd" clip-rule="evenodd" d="M121 13.5714C114.136 13.5714 108.571 19.1359 108.571 26C108.571 32.8641 114.136 38.4286 121 38.4286C123.332 38.4286 125.51 37.7877 127.372 36.6733C127.671 36.4946 128.029 36.4446 128.365 36.5346L132.705 37.6974L131.541 33.3545C131.451 33.0187 131.501 32.6609 131.679 32.3625C132.79 30.5023 133.429 28.3277 133.429 26C133.429 19.1359 127.864 13.5714 121 13.5714ZM106 26C106 17.7157 112.716 11 121 11C129.284 11 136 17.7157 136 26C136 28.6071 135.334 31.062 134.162 33.2003L135.765 39.1829C135.884 39.6266 135.757 40.1 135.432 40.4248C135.107 40.7496 134.634 40.8765 134.19 40.7576L128.212 39.1556C126.071 40.3315 123.612 41 121 41C112.716 41 106 34.2843 106 26Z" fill="#E6002D"/>
<path d="M145.56 35.72L156.32 24.04C159.6 20.44 159.92 18.84 159.92 17.32V17C159.92 14.72 157.96 13.32 154.96 13.32C152.84 13.32 150.56 14.16 148.68 17.52L145.64 15.56C147 13.08 149.56 9.76 154.88 9.76C160.72 9.76 163.88 12.8 163.88 17V17.4C163.88 20.52 162.04 23.24 159.44 26L150.44 35.6H164.92V39.04H145.56V35.72ZM173.254 16.16L170.414 14.08C172.094 11.68 174.494 9.76 178.814 9.76C184.134 9.76 187.534 12.64 187.534 16.96V17.36C187.534 19.64 186.574 22.6 183.014 23.88C186.894 24.56 188.854 27.2 188.854 30.52V31.12C188.854 35.36 185.854 39.48 178.774 39.48C175.414 39.48 172.254 38.44 169.534 36.28L171.494 33.12C174.294 35.16 176.294 35.88 178.774 35.88C182.974 35.88 184.894 33.76 184.894 31.16V30.64C184.894 26.84 182.294 25.72 178.934 25.72H175.374V22.28H178.774C182.374 22.28 183.614 19.88 183.614 17.4V17.08C183.614 14.56 181.454 13.28 178.854 13.28C176.494 13.28 174.814 14.12 173.254 16.16Z" fill="#E6002D"/>
<path fill-rule="evenodd" clip-rule="evenodd" d="M207.438 15.8927C206.513 14.8674 207.105 13 208.726 13L235.636 13C236.119 13 236.565 13.2525 236.811 13.6639C237.056 14.0753 237.063 14.5844 236.83 15.0026L223.375 39.1095C222.607 40.485 220.62 40.1895 220.198 38.7553L216.376 25.798L207.438 15.8927ZM219.203 25.7455L222.146 35.727L231.978 18.1126L219.203 25.7455ZM230.738 15.6998L210.922 15.6998L217.863 23.3923L230.738 15.6998Z" fill="#E6002D"/>
</svg>
