<svg width="30" height="30" viewBox="0 0 30 30" fill="none" xmlns="http://www.w3.org/2000/svg">
<circle cx="15" cy="15" r="15" fill="white"/>
<path d="M21.4817 8.51907C21.1563 8.19358 20.6286 8.1935 20.3032 8.51889C19.9777 8.84428 19.9776 9.37192 20.303 9.6974C21.709 11.1039 22.4989 13.0112 22.4989 14.9999C22.4989 16.9886 21.709 18.8959 20.303 20.3024C19.9776 20.6279 19.9777 21.1555 20.3032 21.4809C20.6286 21.8063 21.1563 21.8062 21.4817 21.4807C23.2001 19.7617 24.1655 17.4306 24.1655 14.9999C24.1655 12.5692 23.2001 10.2381 21.4817 8.51907Z" fill="#5F9EE9"/>
<path d="M15.0007 9.16657C15.0007 8.84623 14.817 8.55425 14.5283 8.41548C14.2396 8.27672 13.8969 8.31573 13.6467 8.51585L9.70833 11.6666H6.66732C6.20708 11.6666 5.83398 12.0397 5.83398 12.4999V17.4999C5.83398 17.9601 6.20708 18.3332 6.66732 18.3332H9.70833L13.6467 21.484C13.8969 21.6841 14.2396 21.7231 14.5283 21.5843C14.817 21.4456 15.0007 21.1536 15.0007 20.8332V9.16657Z" fill="#5F9EE9"/>
<path d="M18.54 11.4607C18.2146 11.1352 17.687 11.1352 17.3615 11.4606C17.036 11.7859 17.0359 12.3136 17.3613 12.6391C17.9862 13.2642 18.3373 14.1119 18.3373 14.9957C18.3373 15.8796 17.9862 16.7273 17.3613 17.3524C17.0359 17.6779 17.036 18.2055 17.3615 18.5309C17.687 18.8563 18.2146 18.8562 18.54 18.5307C19.4774 17.5931 20.0039 16.3216 20.0039 14.9957C20.0039 13.6699 19.4774 12.3984 18.54 11.4607Z" fill="#5F9EE9"/>
</svg>
