<svg width="550" height="322" viewBox="0 0 550 322" fill="none" xmlns="http://www.w3.org/2000/svg">
<path d="M0.832845 96.621C1.25638 97.2627 1.57724 97.4809 5.45322 97.4424C6.30029 97.7247 7.01902 98.2253 7.72491 98.6745C8.3923 99.098 8.76449 99.5857 8.76449 100.112V94.4391C8.76449 93.9129 8.3923 93.4252 7.72491 93.0017C7.00619 92.5525 6.28746 92.0391 5.45322 91.7696C3.37405 91.7952 2.33447 91.7311 1.73126 91.5899V86.9438C1.73126 86.6101 1.64141 86.2508 1.51307 85.8914C1.23071 85.2497 1.10237 84.7492 1.10237 84.377V90.0497C1.10237 90.4219 1.23071 90.8968 1.4874 91.5257C1.14087 91.3974 0.986854 91.2177 0.820007 90.961C0.550485 90.5503 0.357977 90.1139 0.165461 89.6904C0.0884547 89.5235 0.0371094 89.3567 0.0371094 89.2027V94.8755C0.0371094 95.0295 0.0884547 95.1963 0.165461 95.3632C0.370811 95.7867 0.550485 96.2359 0.820007 96.6338" fill="#F2A576"/>
<path d="M7.29883 104.267C7.29883 104.395 7.29883 104.523 7.29883 104.652C7.29883 104.818 7.31167 104.985 7.31167 105.165V99.4922C7.31167 99.3253 7.31166 99.1456 7.29883 98.9788C7.29883 98.8504 7.29883 98.7221 7.29883 98.5938V104.267Z" fill="#F2A576"/>
<path d="M353.88 105.332V99.6592C353.88 99.0817 353.508 98.7352 352.635 98.3116V97.9009C352.635 97.6442 352.635 97.3875 352.635 97.1309V103.984C353.52 104.408 353.893 104.767 353.893 105.345" fill="#F2A576"/>
<path d="M93.9564 104.615V107.297C93.9564 107.066 93.9949 106.822 94.0848 106.54V104.512C94.4441 104.204 94.5725 103.896 94.5725 103.575V97.9023C94.5725 98.2489 94.4313 98.5826 94.0206 98.9034C93.4174 99.3783 93.1094 99.635 93.1094 99.8788V105.552C93.1094 105.308 93.3917 105.064 93.9564 104.615Z" fill="#F2A576"/>
<path d="M482.903 106.552V100.879C482.762 101.636 482.659 102.381 482.454 103.125C482.415 103.266 482.402 103.407 482.402 103.536V109.208C482.402 109.08 482.428 108.939 482.454 108.798C482.659 108.066 482.762 107.322 482.903 106.552Z" fill="#F2A576"/>
<path d="M450.857 112.739V107.066C450.857 107.31 450.78 107.554 450.587 107.798C450.459 107.965 450.395 108.119 450.395 108.26V113.933C450.395 113.792 450.459 113.638 450.587 113.471C450.792 113.214 450.857 112.97 450.857 112.739Z" fill="#F2A576"/>
<path d="M326.17 123.044V117.372C326.17 117.372 326.17 117.333 326.17 117.307C326.157 117.153 326.145 117.012 326.145 116.871V122.544C326.145 122.685 326.145 122.826 326.17 122.98C326.17 123.006 326.17 123.019 326.17 123.044Z" fill="#F2A576"/>
<path d="M38.101 127.423V121.75C38.101 121.468 37.9855 121.198 37.7544 120.967C37.0871 120.3 36.8047 119.658 36.8047 119.029V124.702C36.8047 125.318 37.0742 125.96 37.7544 126.64C37.9855 126.871 38.101 127.141 38.101 127.423Z" fill="#F2A576"/>
<path d="M15.1411 127.218C16.4374 127.834 16.8224 128.591 16.8224 129.451V123.778C16.8224 122.918 16.4374 122.161 15.1411 121.545C14.5893 121.288 14.3839 120.66 13.9219 120.082V125.755C14.3967 126.332 14.5893 126.961 15.1411 127.218Z" fill="#F2A576"/>
<path d="M325.978 128.96C326.298 129.281 326.863 129.473 328.301 129.165C329.25 128.254 330.495 128.19 334.294 127.471C336.181 127.779 338.568 127.266 339.544 129.127C340.904 128.613 341.597 127.766 342.29 127.009C342.868 126.38 343.484 126.072 344.613 126.072C345.396 126.085 346.179 126.085 346.987 126.085C348.13 126.085 349.298 126.085 350.517 126.085C351.043 127.15 352.301 127.805 354.56 128.6C354.996 129.525 355.997 130.064 357.024 130.628C358.346 131.347 359.578 132.143 360.797 132.938C361.824 133.606 362.453 134.44 362.543 135.441C362.543 135.505 362.543 135.557 362.543 135.621V129.948C362.543 129.948 362.543 129.833 362.543 129.781C362.453 128.793 361.824 127.946 360.797 127.278C359.565 126.483 358.346 125.687 357.024 124.968C355.997 124.404 354.996 123.865 354.56 122.94C352.301 122.145 351.043 121.49 350.517 120.425C349.298 120.425 348.13 120.425 346.987 120.425C346.192 120.425 345.409 120.425 344.613 120.399C343.484 120.399 342.868 120.707 342.29 121.336C341.597 122.106 340.904 122.94 339.544 123.454C338.568 121.593 336.181 122.106 334.294 121.798C330.495 122.517 329.25 122.568 328.301 123.492C326.863 123.8 326.298 123.621 325.978 123.287C325.246 122.543 324.591 121.76 323.924 120.99C323.732 120.759 323.629 120.54 323.629 120.322V125.995C323.629 126.213 323.719 126.431 323.924 126.662C324.591 127.433 325.246 128.215 325.978 128.96Z" fill="#F2A576"/>
<path d="M111.016 134.825C111.94 134.44 112.427 133.863 112.427 133.105V132.207C112.517 131.578 112.825 130.975 113.339 130.423C113.993 129.717 114.25 129.024 114.25 128.331V122.658C114.25 123.351 113.98 124.044 113.339 124.75C112.735 125.405 112.389 126.098 112.389 126.855V127.638C112.299 128.28 111.85 128.793 111.016 129.14C109.36 129.833 108.834 131.052 108.423 132.207C108.359 132.4 108.32 132.579 108.32 132.759V138.432C108.32 138.252 108.346 138.072 108.423 137.88C108.834 136.725 109.36 135.505 111.016 134.812" fill="#F2A576"/>
<path d="M331.346 145.401C331.346 145.607 331.371 145.825 331.436 146.043C331.448 146.094 331.461 146.146 331.461 146.21V140.537C331.461 140.537 331.461 140.422 331.436 140.37C331.371 140.152 331.346 139.934 331.346 139.729V145.401Z" fill="#F2A576"/>
<path d="M146.298 154.669V148.996C146.298 149.099 146.246 149.201 146.195 149.291C146.105 149.471 146.041 149.651 146.041 149.805V155.477C146.041 155.311 146.092 155.144 146.195 154.964C146.246 154.861 146.298 154.772 146.298 154.669Z" fill="#F2A576"/>
<path d="M294.15 164.283C294.522 164.655 294.727 164.899 294.727 165.117V159.444C294.727 159.226 294.522 158.982 294.15 158.61C293.11 157.57 292.071 156.544 290.98 155.53C290.351 154.952 289.979 154.375 289.979 153.771V159.444C289.979 160.047 290.351 160.625 290.98 161.203C292.071 162.204 293.11 163.243 294.15 164.283Z" fill="#F2A576"/>
<path d="M358.847 197.677C357.128 198.036 356.755 197.843 356.216 197.445C355.767 197.112 355.318 196.74 354.715 196.74C353.149 197.24 351.84 197.343 351.75 198.447C351.699 199.011 351.352 199.576 351.057 200.128C350.762 200.68 350.582 201.219 350.582 201.745V207.418C350.582 206.904 350.762 206.365 351.057 205.801C351.352 205.249 351.699 204.684 351.75 204.119C351.84 203.016 353.149 202.913 354.715 202.412C355.318 202.412 355.767 202.785 356.216 203.118C356.768 203.529 357.128 203.709 358.847 203.349C359.515 203.08 360.31 202.733 361.324 202.733C363.558 202.733 364.7 201.681 366.201 199.692V198.986C366.33 197.317 367.6 196.034 370.604 194.75C371.861 193.685 373.35 192.876 376.251 191.593C377.059 190.63 377.74 189.604 378.574 188.641C379.062 188.089 379.767 187.627 380.178 187.293C380.499 186.754 380.589 186.254 380.987 186.036C381.77 185.587 382.309 184.816 384.016 184.868C384.555 184.958 385.081 185.047 385.594 185.047C386.262 185.047 386.903 184.906 388.289 184.175C388.79 184.175 389.265 184.457 389.393 184.932C389.586 185.587 390.086 185.92 390.818 186.267C391.909 186.78 392.396 187.448 392.396 188.205V182.532C392.396 181.762 391.896 181.107 390.818 180.594C390.086 180.247 389.586 179.914 389.393 179.259C389.252 178.784 388.777 178.502 388.289 178.502C386.903 179.234 386.262 179.375 385.594 179.375C385.081 179.375 384.555 179.285 384.016 179.195C382.321 179.144 381.77 179.927 380.987 180.363C380.589 180.581 380.499 181.082 380.178 181.621C379.767 181.954 379.062 182.416 378.574 182.968C377.74 183.931 377.059 184.958 376.251 185.92C373.35 187.191 371.861 188.012 370.604 189.077C367.446 190.425 366.176 191.773 366.176 193.57V194.044C364.687 196.021 363.532 197.048 361.312 197.048C360.298 197.048 359.502 197.381 358.835 197.664" fill="#F2A576"/>
<path d="M364.891 208.496C364.891 208.496 364.891 208.521 364.891 208.534V211.217C364.775 211.538 364.66 211.858 364.557 212.192C364.519 212.308 364.506 212.41 364.506 212.513V218.186C364.506 218.083 364.519 217.968 364.557 217.865C364.84 216.954 365.199 216.042 365.443 215.349V209.677C365.289 210.1 365.109 210.613 364.917 211.14V208.072C364.917 208.201 364.917 208.342 364.891 208.483" fill="#F2A576"/>
<path d="M399.854 213.955C399.712 214.109 399.558 214.25 399.404 214.365C397.146 214.096 396.555 213.993 395.952 213.993C395.131 213.993 394.271 214.173 393.809 214.519C392.654 215.392 391.383 215.97 389.74 216.316C388.316 216.624 387.058 217.33 385.8 217.831C385.749 218.344 385.71 218.742 385.672 219.204C385.12 219.23 384.645 219.255 384.093 219.281C383.785 219.743 383.554 220.205 383.554 220.706V221.283C380.705 222.875 378.908 223.991 377.778 225.608C376.688 225.814 376.79 227.02 375.34 227.02C374.891 227.02 374.403 227.61 374.108 227.983C373.594 228.599 373.171 229.253 372.735 229.908C371.926 231.294 371.785 231.782 371.374 232.064C370.784 232.449 370.643 232.885 370.643 233.335V239.007C370.643 238.558 370.784 238.122 371.374 237.737C371.785 237.467 371.926 236.967 372.735 235.581C373.171 234.926 373.594 234.271 374.108 233.655C374.403 233.283 374.891 232.693 375.34 232.693C376.777 232.693 376.688 231.486 377.778 231.281C378.921 229.651 380.743 228.535 383.644 226.905V225.852C383.734 225.544 383.9 225.249 384.093 224.954C384.632 224.928 385.107 224.915 385.672 224.877C385.723 224.415 385.749 224.017 385.8 223.503C387.058 223.003 388.303 222.297 389.74 221.989C391.383 221.63 392.654 221.052 393.809 220.192C394.271 219.846 395.131 219.666 395.952 219.666C396.555 219.666 397.146 219.756 399.404 220.038C399.751 219.756 400.162 219.448 400.162 218.857V216.958C400.367 216.38 400.598 215.79 400.868 215.071V209.398C400.457 210.477 400.136 211.324 399.854 212.171V213.942V213.955Z" fill="#F2A576"/>
<path d="M390.729 256.433C390.729 255.945 390.96 255.432 391.422 254.97C391.691 254.7 391.781 254.289 391.781 253.892V248.219C391.781 248.617 391.704 249.014 391.422 249.297C390.96 249.772 390.729 250.272 390.729 250.76V256.433Z" fill="#F2A576"/>
<path d="M398.119 266.776V267.841C397.863 267.88 397.529 267.88 397.247 268.008V269.125C396.99 269.369 396.579 269.548 396.168 269.689C395.116 270.062 394.59 270.588 394.59 271.371V277.044C394.59 276.261 395.116 275.747 396.168 275.362C396.849 275.118 397.503 274.798 397.503 274.284V273.604C397.965 273.501 398.466 273.591 398.466 273.232V271.858C399.018 271.332 400.032 271.307 400.648 270.305C401.2 270.1 401.674 269.92 402.162 269.741V268.252C402.521 268.201 402.855 268.162 403.176 268.111C403.407 267.662 403.638 267.225 403.638 266.712V261.039C403.638 261.54 403.407 261.989 403.176 262.425C402.624 262.502 402.085 262.579 401.405 262.669V264.337C401.161 264.427 400.917 264.517 400.66 264.62C399.878 265.89 398.414 265.57 398.132 266.763" fill="#F2A576"/>
<path d="M272.074 143.865L272.883 144.327L316.892 118.851L316.083 118.389L272.074 143.865Z" fill="#F8BB71"/>
<path d="M292.953 236.821C292.863 236.795 293.119 238.181 293.132 238.245C293.492 239.234 295.571 240.94 296.7 240.183C298.138 239.221 297.727 237.244 297.727 237.244C297.727 237.244 292.978 236.821 292.953 236.821Z" fill="#F3C482"/>
<path d="M351.711 269.602C351.711 269.602 351.12 268.678 350.684 268.011C350.248 267.356 349.118 266.958 348.887 266.714C348.656 266.47 348.695 267.112 349.093 267.407C349.747 267.869 349.606 268.126 349.606 268.126C349.606 268.126 348.81 267.78 347.925 267.6C347.039 267.42 346.59 267.369 346.449 267.497C346.32 267.613 346.025 268.229 346.564 268.819C347.103 269.41 347.578 269.897 348.335 270.141C349.08 270.385 350.8 271.296 350.8 271.296L351.698 269.602H351.711Z" fill="#F3C482"/>
<path d="M351.03 269.191L350.35 271.117C350.35 271.117 350.414 271.117 350.452 271.117C350.452 271.117 357.986 275.788 358.949 275.275C359.205 275.134 359.423 275.018 362.119 274.441L359.462 270.886C356.818 271.296 351.492 269.256 351.043 269.191" fill="#F3C482"/>
<path d="M357.668 265.247L357.989 267.943L362.199 266.467L361.377 263.861C360.222 264.554 357.386 265.389 357.668 265.247Z" fill="#F3C482"/>
<path d="M231.771 222.653C231.861 222.627 231.604 224.013 231.579 224.077C231.219 225.066 229.14 226.773 228.011 226.015C226.573 225.053 226.984 223.076 226.984 223.076C226.984 223.076 231.733 222.653 231.758 222.653" fill="#F3C482"/>
<path d="M423.134 15.697C423.584 15.4403 423.994 15.1195 425.149 15.235C426.022 15.5559 426.086 16.1077 426.202 16.7238C426.305 17.2757 426.638 17.8532 427.075 18.3152C427.421 18.6874 427.601 19.0468 427.601 19.4062V13.7334C427.601 13.374 427.408 13.0146 427.075 12.6424C426.638 12.1676 426.305 11.59 426.202 11.051C426.086 10.4349 426.022 9.88306 425.149 9.5622C423.982 9.44669 423.571 9.76755 423.134 10.0242C422.082 9.58787 421.633 9.25417 421.633 8.86914V14.5419C421.633 14.9141 422.082 15.2607 423.134 15.697Z" fill="#F2A576"/>
<path d="M419.36 37.0762V31.4034C419.36 30.8258 418.988 30.4793 418.115 30.0558V29.6451C418.115 29.3884 418.115 29.1189 418.115 28.875V35.7286C419.001 36.1521 419.373 36.5115 419.373 37.089" fill="#F2A576"/>
<path d="M159.437 36.3628V39.0452C159.437 38.8141 159.475 38.5703 159.565 38.2879V36.2601C159.925 35.9521 160.053 35.644 160.053 35.3232V29.6504C160.053 29.9969 159.912 30.3306 159.501 30.6515C158.898 31.1263 158.59 31.383 158.59 31.6269V37.2997C158.59 37.0558 158.872 36.812 159.437 36.3628Z" fill="#F2A576"/>
<path d="M548.385 38.3095V32.6367C548.244 33.3939 548.141 34.1383 547.936 34.8827C547.898 35.0239 547.885 35.1651 547.885 35.2934V40.9662C547.885 40.8379 547.91 40.6967 547.936 40.5555C548.141 39.824 548.244 39.0796 548.385 38.3095Z" fill="#F2A576"/>
<path d="M549.421 39.9188C547.599 41.292 546.867 41.8311 546.867 42.4086V45.2194C546.803 45.3734 546.752 45.5274 546.713 45.6942C546.687 45.7969 546.687 45.8996 546.687 46.0023V51.6751C546.687 51.5724 546.687 51.4697 546.713 51.367C546.726 51.2772 546.764 51.2002 546.79 51.1103V53.151C546.752 53.3179 546.7 53.4847 546.636 53.6515C546.136 54.9992 545.211 56.2569 545.211 57.6815V57.8997C544.146 58.8366 544.005 59.9276 543.967 61.0955C543.928 62.4816 543.299 62.8281 541.387 63.1875C540.655 63.3287 539.949 63.38 539.231 63.38C537.716 63.38 536.215 63.149 534.713 63.072C532.89 63.0592 532.403 63.2773 532.108 64.1244C531.697 65.3052 530.734 66.0239 529.258 66.5116C528.142 66.9736 527.77 67.2817 527.77 67.6154V73.2882C527.77 72.9416 528.142 72.6336 529.258 72.1844C530.734 71.6967 531.697 70.978 532.108 69.7844C532.403 68.9373 532.89 68.7191 534.713 68.7319C536.215 68.809 537.716 69.04 539.231 69.04C539.949 69.04 540.655 68.9886 541.387 68.8475C543.286 68.4753 543.915 68.1416 543.967 66.7555C544.005 65.5875 544.146 64.4966 545.211 63.5597V63.2517C545.25 61.8656 546.148 60.6206 546.636 59.3115C546.867 58.6698 546.854 58.0152 547.38 57.3864C547.483 57.258 547.534 57.0655 547.534 56.873V51.2002C547.534 51.3927 547.483 51.5852 547.38 51.7136C547.175 51.9446 547.06 52.2013 546.97 52.4451V50.6611C547.175 50.2633 547.457 49.8782 547.663 49.4932V46.9263C548.074 46.5798 548.638 46.1563 549.408 45.5787C549.806 45.1552 549.999 44.6675 549.999 44.1669V38.4941C549.999 38.9947 549.806 39.4824 549.408 39.9059" fill="#F2A576"/>
<path d="M516.351 44.497V38.8242C516.351 39.0681 516.274 39.3119 516.081 39.5558C515.953 39.7226 515.889 39.8766 515.889 40.0178V45.6906C515.889 45.5494 515.953 45.3954 516.081 45.2286C516.287 44.9719 516.351 44.728 516.351 44.497Z" fill="#F2A576"/>
<path d="M391.649 54.8042V49.1314C391.649 49.1314 391.649 49.0929 391.649 49.0672C391.636 48.9132 391.623 48.772 391.623 48.6309V54.3037C391.623 54.4448 391.623 54.586 391.649 54.74C391.649 54.7657 391.649 54.7785 391.649 54.8042Z" fill="#F2A576"/>
<path d="M103.581 59.1691V53.4963C103.581 53.2139 103.466 52.9444 103.235 52.7134C102.568 52.046 102.285 51.4043 102.285 50.7754V56.4482C102.285 57.0642 102.555 57.706 103.235 58.3862C103.466 58.6172 103.581 58.8867 103.581 59.1691Z" fill="#F2A576"/>
<path d="M80.6236 58.966C81.9199 59.582 82.3049 60.3393 82.3049 61.1992V55.5264C82.3049 54.6665 81.9199 53.9093 80.6236 53.2932C80.0717 53.0365 79.8663 52.4076 79.4043 51.8301V57.5029C79.8792 58.0804 80.0717 58.7093 80.6236 58.966Z" fill="#F2A576"/>
<path d="M391.46 60.7215C391.781 61.0424 392.346 61.2349 393.783 60.9269C394.733 60.0156 395.978 59.9515 399.777 59.2327C401.663 59.5408 404.051 59.0274 405.026 60.8884C406.386 60.375 407.079 59.5279 407.773 58.7707C408.35 58.1418 408.966 57.8338 410.096 57.8338C410.878 57.8466 411.661 57.8466 412.47 57.8466C413.612 57.8466 414.78 57.8466 415.999 57.8466C416.526 58.9119 417.783 59.5664 420.042 60.3622C420.479 61.2862 421.48 61.8253 422.506 62.39C423.828 63.1087 425.06 63.9045 426.28 64.7002C427.306 65.3676 427.935 66.2018 428.025 67.2029C428.025 67.2671 428.025 67.3184 428.025 67.3826V61.7098C428.025 61.7098 428.025 61.5943 428.025 61.5429C427.935 60.5547 427.306 59.7076 426.28 59.0402C425.048 58.2445 423.828 57.4488 422.506 56.73C421.48 56.1653 420.479 55.6263 420.042 54.7022C417.783 53.9065 416.526 53.2519 415.999 52.1867C414.78 52.1867 413.612 52.1867 412.47 52.1867C411.674 52.1867 410.891 52.1867 410.096 52.161C408.966 52.161 408.35 52.469 407.773 53.0979C407.079 53.868 406.386 54.7022 405.026 55.2156C404.051 53.3546 401.663 53.868 399.777 53.5599C395.978 54.2787 394.733 54.33 393.783 55.2541C392.346 55.5621 391.781 55.3824 391.46 55.0487C390.728 54.3043 390.074 53.5214 389.407 52.7514C389.214 52.5204 389.111 52.3022 389.111 52.084V57.7568C389.111 57.975 389.201 58.1932 389.407 58.4242C390.074 59.1942 390.728 59.9771 391.46 60.7215Z" fill="#F2A576"/>
<path d="M176.494 66.5869C177.418 66.2019 177.906 65.6243 177.906 64.8671V63.9687C177.996 63.3398 178.291 62.7366 178.817 62.1847C179.472 61.4788 179.728 60.7858 179.728 60.0927V54.4199C179.728 55.113 179.459 55.806 178.817 56.5119C178.214 57.1665 177.867 57.8595 177.867 58.6168V59.3997C177.777 60.0414 177.328 60.5548 176.494 60.9013C174.838 61.5943 174.312 62.8136 173.902 63.9687C173.837 64.1612 173.799 64.3409 173.799 64.5206V70.1934C173.799 70.0137 173.824 69.834 173.902 69.6415C174.312 68.4864 174.838 67.2671 176.494 66.5741" fill="#F2A576"/>
<path d="M81.2266 69.4736C81.2266 69.7431 81.2522 70.0126 81.3421 70.2693C81.4961 70.6928 81.5602 71.0907 81.5602 71.5014V65.8286C81.5602 65.4307 81.4961 65.02 81.3421 64.5965C81.2522 64.3398 81.2266 64.0703 81.2266 63.8008V69.4736Z" fill="#F2A576"/>
<path d="M396.824 77.163C396.824 77.3684 396.85 77.5866 396.914 77.8048C396.927 77.8561 396.94 77.9074 396.94 77.9716V72.2988C396.94 72.2988 396.94 72.1833 396.914 72.132C396.85 71.9138 396.824 71.6956 396.824 71.4902V77.163Z" fill="#F2A576"/>
<path d="M211.778 86.4287V80.7559C211.778 80.8585 211.727 80.9612 211.676 81.051C211.586 81.2307 211.521 81.4104 211.521 81.5644V87.2372C211.521 87.0704 211.573 86.9035 211.676 86.7238C211.727 86.6212 211.778 86.5313 211.778 86.4287Z" fill="#F2A576"/>
<path d="M530.557 85.0292C529.556 85.2088 528.362 85.2987 527.823 86.2227V87.9297C526.681 87.3522 525.654 86.8388 525.051 85.9147C524.691 85.3628 523.921 85.1318 522.946 85.1318C521.727 86.1329 521.701 87.0185 521.688 87.9041C521.688 87.9682 521.688 88.0324 521.688 88.0966V88.764C521.688 88.9308 521.688 89.0976 521.65 89.2645C521.521 90.0474 520.918 90.4196 519.891 90.4196C517.838 92.6784 516.208 93.3843 515.22 94.3982C512.486 94.8988 511.164 95.0913 509.842 95.2453C509.149 95.3223 508.828 95.5405 508.828 95.8999V100.969C507.352 101.085 505.851 101.085 504.362 101.175C502.167 101.2 500.909 100.674 499.818 99.7759C499.254 99.301 498.856 99.0571 498.445 99.0571C498.034 99.0571 497.649 99.2753 497.085 99.7245C496.507 100.174 495.853 100.777 495.801 101.329C495.634 102.882 494.184 103.947 493.337 105.243C492.259 107.04 491.54 107.489 490.334 107.836C489.371 108.118 488.704 108.901 487.844 109.414C487.125 109.851 486.381 110.274 485.572 110.621C484.956 110.89 484.391 111.083 484.148 111.648C482.325 112.803 481.529 113.252 480.836 113.765C480.272 114.189 479.835 114.689 479.347 115.164C478.885 116.846 477.589 117.282 477.063 118.014C474.958 118.565 473.931 118.54 472.93 118.655C472.276 118.732 471.634 118.963 470.992 119.117C468.823 120.542 467.36 120.298 466.552 120.709C464.601 121.723 462.663 122.749 460.738 123.776C458.992 125.432 457.863 126.561 456.682 127.729C454.86 126.638 454.333 125.907 453.627 125.265C453.319 124.983 452.768 124.764 452.267 124.636C452.254 124.636 452.241 124.636 452.216 124.636V121.825C452.216 121.697 452.177 121.556 452.1 121.389C452.062 121.299 452.036 121.222 452.036 121.145V124.61C451.458 124.495 450.842 124.456 450.29 124.392C450.201 124.187 450.162 124.007 450.162 123.853V129.526C450.162 129.68 450.201 129.86 450.29 130.065C450.919 130.142 451.625 130.168 452.267 130.322C452.768 130.45 453.319 130.655 453.627 130.951C454.333 131.592 454.86 132.324 456.682 133.415C457.863 132.247 458.992 131.117 460.738 129.462C462.663 128.435 464.601 127.408 466.552 126.394C467.36 125.971 468.823 126.228 470.992 124.803C471.634 124.649 472.276 124.418 472.93 124.341C473.931 124.225 474.958 124.251 477.063 123.699C477.602 122.968 478.885 122.531 479.347 120.85C479.835 120.375 480.272 119.875 480.836 119.451C481.529 118.938 482.325 118.501 484.148 117.333C484.391 116.781 484.956 116.576 485.572 116.307C486.368 115.96 487.125 115.536 487.844 115.1C488.691 114.574 489.358 113.804 490.334 113.521C491.54 113.175 492.259 112.726 493.337 110.916C494.184 109.62 495.634 108.542 495.801 107.002C495.853 106.437 496.507 105.847 497.085 105.397C497.649 104.948 498.06 104.73 498.445 104.73C498.83 104.73 499.254 104.974 499.818 105.449C500.909 106.347 502.167 106.873 504.362 106.848C506.069 106.732 507.814 106.771 509.508 106.578C510.073 106.527 510.728 106.078 510.997 105.68C511.125 105.487 511.215 105.269 511.215 105.051V100.738C512.204 100.597 513.397 100.405 515.22 100.071C516.208 99.0571 517.851 98.3512 519.891 96.0924C520.931 96.0924 521.521 95.7202 521.65 94.9373C521.688 94.7319 521.688 94.5394 521.688 94.3341V93.4228C521.714 92.5886 521.791 91.7415 522.946 90.8046C523.908 90.8046 524.691 91.0356 525.051 91.5875C525.898 92.9095 527.618 93.3972 529.337 94.4239V90.9458C529.735 90.8431 530.159 90.7918 530.557 90.7148C531.968 90.4581 532.636 89.8035 532.674 88.8923C532.713 88.0581 532.739 87.2238 532.739 86.3896V80.7168C532.739 81.551 532.713 82.3853 532.674 83.2323C532.636 84.1436 531.981 84.811 530.557 85.0548" fill="#F2A576"/>
<path d="M359.642 96.0426C360.014 96.4148 360.219 96.6587 360.219 96.8768V91.204C360.219 90.9859 360.014 90.742 359.642 90.3698C358.602 89.3302 357.563 88.3035 356.472 87.2896C355.843 86.712 355.471 86.1345 355.471 85.5312V91.204C355.471 91.8073 355.843 92.3848 356.472 92.9624C357.563 93.9634 358.602 95.003 359.642 96.0426Z" fill="#F2A576"/>
<path d="M11.1087 118.295C11.1216 118.423 11.1344 118.551 11.1344 118.667V112.994C11.1344 112.866 11.1344 112.75 11.1087 112.622C10.9547 111.672 10.5055 110.851 9.23491 110.389C8.3365 110.055 7.79746 109.554 7.36109 108.913C7.19424 108.656 6.97606 108.399 6.71937 108.168V103.484C6.71937 103.343 6.68086 103.176 6.60385 103.009C6.43701 102.624 6.33433 102.264 6.33433 101.918V107.591C6.33433 107.693 6.36 107.809 6.37283 107.912C6.28299 107.86 6.20599 107.796 6.10331 107.758C4.17816 106.885 2.17599 106.089 0.0839844 105.216V110.889C2.17599 111.762 4.17816 112.558 6.10331 113.43C6.65519 113.674 7.06589 114.149 7.34825 114.586C7.78462 115.227 8.32366 115.728 9.22207 116.061C10.4798 116.536 10.9419 117.345 11.0959 118.295" fill="#F2A576"/>
<path d="M24.5617 131.81C24.767 131.874 24.9852 131.951 25.2034 132.016V133.248C25.2034 133.248 25.2034 133.248 25.2034 133.235V138.908C25.2034 139.383 25.3703 139.819 26.1018 140.153L26.2173 140.204V145.351C26.243 145.671 26.2815 145.967 26.3072 146.275C26.1788 146.095 26.0248 145.915 25.858 145.748C25.3318 145.209 25.0622 144.632 25.0622 144.054V149.727C25.0622 150.305 25.3318 150.882 25.858 151.421C26.5254 152.114 26.8976 152.807 27.0387 153.552V155.734C27.0387 156.042 27.0516 156.35 27.1029 156.658C27.1157 156.786 27.1286 156.914 27.1286 157.043V151.37C27.1286 151.28 27.1286 151.19 27.1029 151.088V148.585C27.1029 147.763 26.8591 147.019 26.32 146.288V140.756C26.32 140.576 26.3072 140.409 26.2815 140.23C27.2698 140.679 28.2195 141.218 29.5799 142.258C29.6313 142.655 29.6826 143.002 29.6826 143.31V137.637C29.6826 137.329 29.6313 136.983 29.5799 136.585C28.1425 135.481 27.1542 134.942 26.1147 134.467C25.8836 134.364 25.704 134.236 25.5756 134.121V132.131C25.8836 132.234 26.2302 132.349 26.628 132.478V126.805C25.7681 126.523 25.1777 126.317 24.5745 126.138C22.7649 125.573 20.9552 125.008 19.1328 124.443C17.4643 123.468 16.2579 122.736 15.0899 121.979C14.6407 121.684 14.1787 121.402 13.9092 121.029V119.746C12.9338 119.682 12.2022 119.63 11.4578 119.605C10.6236 119.566 10.0588 119.374 10.046 118.745V118.617C9.5198 117.898 9.31445 117.346 9.31445 116.871V122.544C9.31445 123.006 9.50697 123.571 10.046 124.277V124.379C10.046 125.034 10.6107 125.226 11.4706 125.278C12.1509 125.303 12.8439 125.355 13.7166 125.406V126.099C13.7166 126.792 14.4482 127.216 15.1028 127.652C16.2579 128.422 17.4771 129.141 19.1456 130.116C20.9552 130.681 22.7649 131.246 24.5874 131.81" fill="#F2A576"/>
<path d="M424.328 129.436C422.608 129.796 422.236 129.603 421.697 129.205C421.248 128.872 420.798 128.499 420.195 128.499C418.629 129 417.32 129.103 417.23 130.206C417.179 130.771 416.833 131.336 416.537 131.888C416.242 132.44 416.062 132.979 416.062 133.505V139.178C416.062 138.664 416.242 138.125 416.537 137.56C416.833 137.009 417.179 136.444 417.23 135.879C417.32 134.775 418.629 134.673 420.195 134.172C420.798 134.172 421.248 134.544 421.697 134.878C422.249 135.289 422.608 135.468 424.328 135.109C424.995 134.84 425.791 134.493 426.805 134.493C429.038 134.493 430.18 133.441 431.682 131.451V130.745C431.81 129.077 433.081 127.793 436.084 126.51C437.342 125.445 438.831 124.636 441.731 123.353C442.54 122.39 443.22 121.363 444.054 120.401C444.542 119.849 445.248 119.387 445.659 119.053C445.979 118.514 446.069 118.014 446.467 117.796C447.25 117.346 447.789 116.576 449.496 116.628C450.035 116.717 450.561 116.807 451.075 116.807C451.742 116.807 452.384 116.666 453.77 115.935C454.27 115.935 454.745 116.217 454.874 116.692C455.066 117.346 455.567 117.68 456.298 118.027C457.389 118.54 457.877 119.207 457.877 119.965V114.292C457.877 113.522 457.376 112.867 456.298 112.354C455.567 112.007 455.066 111.674 454.874 111.019C454.733 110.544 454.258 110.262 453.77 110.262C452.384 110.993 451.742 111.134 451.075 111.134C450.561 111.134 450.035 111.045 449.496 110.955C447.802 110.903 447.25 111.686 446.467 112.123C446.069 112.341 445.979 112.841 445.659 113.38C445.248 113.714 444.542 114.176 444.054 114.728C443.22 115.691 442.54 116.717 441.731 117.68C438.831 118.951 437.342 119.772 436.084 120.837C432.927 122.185 431.656 123.532 431.656 125.329V125.804C430.168 127.781 429.012 128.807 426.792 128.807C425.778 128.807 424.982 129.141 424.315 129.423" fill="#F2A576"/>
<path d="M430.371 140.259C430.371 140.259 430.371 140.285 430.371 140.298V142.98C430.256 143.301 430.14 143.622 430.038 143.956C429.999 144.071 429.986 144.174 429.986 144.277V149.949C429.986 149.847 429.999 149.731 430.038 149.629C430.32 148.717 430.679 147.806 430.923 147.113V141.44C430.769 141.864 430.59 142.377 430.397 142.903V139.836C430.397 139.964 430.397 140.105 430.371 140.247" fill="#F2A576"/>
<path d="M465.346 145.709C465.205 145.863 465.051 146.004 464.897 146.119C462.638 145.85 462.047 145.747 461.444 145.747C460.623 145.747 459.763 145.927 459.301 146.273C458.146 147.146 456.875 147.724 455.232 148.07C453.808 148.378 452.55 149.084 451.292 149.585C451.241 150.098 451.202 150.496 451.164 150.958C450.612 150.983 450.137 151.009 449.585 151.035C449.277 151.497 449.046 151.959 449.046 152.459V153.037C446.197 154.628 444.4 155.745 443.271 157.362C442.18 157.568 442.282 158.774 440.832 158.774C440.383 158.774 439.895 159.364 439.6 159.737C439.087 160.353 438.663 161.007 438.227 161.662C437.418 163.048 437.277 163.536 436.866 163.818C436.276 164.203 436.135 164.639 436.135 165.088V170.761C436.135 170.312 436.276 169.876 436.866 169.491C437.277 169.221 437.418 168.721 438.227 167.334C438.663 166.68 439.087 166.025 439.6 165.409C439.895 165.037 440.383 164.447 440.832 164.447C442.27 164.447 442.18 163.24 443.271 163.035C444.413 161.405 446.235 160.288 449.136 158.658V157.606C449.226 157.298 449.393 157.003 449.585 156.708C450.124 156.682 450.599 156.669 451.164 156.631C451.215 156.169 451.241 155.771 451.292 155.257C452.55 154.757 453.795 154.051 455.232 153.743C456.875 153.384 458.146 152.806 459.301 151.946C459.763 151.6 460.623 151.42 461.444 151.42C462.047 151.42 462.638 151.51 464.897 151.792C465.243 151.51 465.654 151.202 465.654 150.611V148.712C465.859 148.134 466.09 147.544 466.36 146.825V141.152C465.949 142.23 465.628 143.078 465.346 143.925V145.696V145.709Z" fill="#F2A576"/>
<path d="M456.221 188.191C456.221 187.703 456.452 187.189 456.914 186.727C457.183 186.458 457.273 186.047 457.273 185.649V179.977C457.273 180.374 457.196 180.772 456.914 181.055C456.452 181.53 456.221 182.03 456.221 182.518V188.191Z" fill="#F2A576"/>
<path d="M463.602 198.538V199.603C463.345 199.642 463.011 199.641 462.729 199.77V200.886C462.472 201.13 462.062 201.31 461.651 201.451C460.598 201.823 460.072 202.35 460.072 203.132V208.805C460.072 208.022 460.598 207.509 461.651 207.124C462.331 206.88 462.986 206.559 462.986 206.046V205.366C463.448 205.263 463.948 205.353 463.948 204.993V203.62C464.5 203.094 465.514 203.068 466.13 202.067C466.682 201.862 467.157 201.682 467.645 201.502V200.014C468.004 199.962 468.338 199.924 468.658 199.873C468.889 199.423 469.12 198.987 469.12 198.474V192.801C469.12 193.301 468.889 193.751 468.658 194.187C468.107 194.264 467.568 194.341 466.887 194.431V196.099C466.643 196.189 466.4 196.279 466.143 196.382C465.36 197.652 463.897 197.331 463.615 198.525" fill="#F2A576"/>
<path d="M204.142 228.054C204.167 227.618 204.565 227.091 205.027 226.77C205.836 226.231 206.58 225.718 208.724 224.986C209.044 225.41 209.199 225.911 209.725 226.411C210.674 226.411 211.278 226.783 211.881 227.309C212.484 227.836 212.818 228.375 212.921 228.978V230.082C212.921 231.493 213.909 232.713 214.499 234.06C215.128 233.829 215.564 233.611 216.463 233.508C217.04 233.508 217.554 233.688 217.733 234.125V235.446C217.708 235.318 217.682 235.19 217.656 235.061C217.631 234.972 217.618 234.882 217.618 234.779V240.452C217.618 240.542 217.618 240.632 217.656 240.734C217.746 241.029 217.785 241.325 217.785 241.607V238.18C217.81 238.45 217.849 238.732 217.862 239.002C217.862 239.027 217.862 239.04 217.862 239.066V234.42C218.041 234.869 218.247 235.357 218.247 235.767V230.095C218.247 229.594 217.939 228.978 217.746 228.465C217.579 228.003 217.04 227.823 216.463 227.823C215.552 227.926 215.128 228.144 214.499 228.375C213.986 227.207 213.164 226.129 212.972 224.948V223.69C212.972 222.933 212.612 222.278 211.881 221.637C211.278 221.11 210.674 220.738 209.725 220.738C209.199 220.238 209.044 219.75 208.724 219.326C206.58 220.045 205.849 220.571 205.027 221.098C204.552 221.406 204.167 221.945 204.142 222.381C204.078 223.639 202.858 224.204 201.549 224.704C198.572 223.665 197.057 222.625 195.414 221.688C194.49 221.162 193.464 220.674 192.36 220.366C190.473 219.866 188.574 219.198 186.571 219.198C185.814 219.198 185.044 219.288 184.236 219.519C183.491 219.724 182.85 220.122 182.195 220.456C181.476 220.802 180.847 221.277 180.052 221.521C178.062 222.137 176.022 222.689 173.968 223.202C173.198 223.395 172.338 223.472 171.53 223.472C168.283 223.472 165.934 224.614 164.137 226.398C163.187 227.335 161.403 228.003 159.748 228.003C155.063 227.861 153.523 227.515 152.047 227.143C150.468 226.745 148.928 226.719 147.324 226.706C146.028 226.706 145.206 226.655 144.667 226.539V222.06C144.667 221.47 143.974 221.123 142.524 220.815C141.317 220.559 140.753 220.366 140.509 220.058V218.043C140.509 216.785 139.7 216.182 139.161 215.515C137.557 215.438 137.018 215.605 136.466 215.707C134.515 215.81 133.707 215.54 133.001 214.976C132.244 214.347 131.422 213.833 130.1 213.808C129.561 213.808 128.958 213.423 128.534 213.102C127.867 212.614 127.225 212.216 126.173 212.216C125.454 212.216 124.838 211.972 124.273 211.793C123.452 211.549 122.643 211.421 121.861 211.421C120.436 211.421 119.088 211.831 117.946 212.627C117.446 212.973 116.868 213.269 116.278 213.525C114.275 214.424 112.902 215.592 112.825 217.35C112.799 217.838 112.556 218.274 111.863 218.415C110.861 218.467 110.451 218.184 110.143 217.786C109.283 216.926 108.846 216.452 108.757 216.041C110.014 216.105 110.707 216.721 110.784 217.902C110.784 217.94 110.784 217.979 110.784 218.03V212.357C110.784 212.357 110.784 212.28 110.784 212.229C110.707 210.971 109.925 210.355 108.526 210.355C105.882 210.727 104.277 210.907 102.699 210.933C101.723 210.933 100.786 210.561 99.6571 210.304C97.2057 210.638 95.9094 210.496 94.626 210.304C93.4067 210.124 92.3414 209.765 91.4302 209.136C90.4805 208.469 89.4024 207.891 88.3499 207.301C85.5649 207.596 85.0772 207.763 84.6537 207.763C84.0633 207.763 83.6269 207.442 83.075 206.762C82.8568 206.492 82.7028 206.21 82.3691 205.722C81.8044 206.261 81.3809 206.672 80.9573 207.07C78.737 203.373 77.8258 202.821 75.0022 202.552C74.322 202.488 73.6289 202.359 72.9744 202.18C72.538 202.064 72.2171 201.885 72.0375 201.641V200.473C72.0375 199.857 71.4214 199.485 70.5743 199.202C68.5978 198.548 67.3657 197.328 65.9924 196.212C65.6203 195.904 65.1839 195.634 64.7347 195.339V193.003C64.7347 192.515 64.4908 192.041 63.7336 191.617C62.9764 191.194 62.1935 191.014 61.3977 191.014C60.602 191.014 59.7164 191.219 58.8822 191.553C57.817 190.885 57.2907 190.064 56.9956 189.179C56.572 187.921 55.7506 186.945 54.0308 186.355C52.7345 185.919 51.8105 185.2 51.1944 184.237C50.5527 183.211 49.7056 182.209 48.3195 181.581C47.4083 181.17 46.9077 180.669 46.7794 180.04V179.296C45.4446 178.128 44.1868 177.525 42.9162 176.935C40.9269 176.626 40.2852 176.87 39.6948 177.281C38.6552 178.025 37.59 178.783 36.3579 179.296C35.7033 177.576 34.6894 176.498 33.3289 175.382C31.8017 174.124 29.9022 173.238 28.1567 172.199C27.2711 171.672 26.6037 171.082 26.4369 170.299C26.1802 169.106 25.0764 168.412 23.8058 167.758C23.0999 167.411 22.4326 167.014 21.547 166.539C21.2261 166.641 20.6614 166.821 20.0325 167.014C19.0571 166.128 18.3512 165.307 17.8507 164.537V159.993C17.8507 159.993 17.8122 159.916 17.7993 159.878V157.028C17.7993 156.72 17.6068 156.412 17.286 156.117C16.8239 155.694 16.5801 155.283 16.5801 154.859V160.532C16.5801 160.943 16.8111 161.328 17.2346 161.726V163.356C16.9138 162.586 16.7598 161.841 16.7084 161.084V166.744C16.8239 168.656 17.5812 170.44 20.0454 172.673C20.6742 172.481 21.2261 172.301 21.5598 172.199C22.4454 172.686 23.1128 173.071 23.8187 173.431C25.1021 174.072 26.193 174.778 26.4497 175.972C26.6166 176.755 27.284 177.332 28.1695 177.859C29.915 178.898 31.8145 179.784 33.3418 181.042C34.7022 182.158 35.7161 183.236 36.3707 184.956C37.6156 184.43 38.668 183.685 39.7076 182.941C40.298 182.517 40.9397 182.286 42.9291 182.594C44.1997 183.172 45.4446 183.775 46.7537 184.93V185.367C46.7537 186.162 47.2671 186.766 48.3323 187.253C49.7185 187.869 50.5655 188.883 51.2072 189.91C51.8233 190.885 52.7474 191.591 54.0436 192.028C55.7634 192.618 56.5849 193.594 57.0084 194.851C57.3036 195.724 57.8298 196.558 58.895 197.226C59.7293 196.879 60.5763 196.674 61.4106 196.674C62.2448 196.674 62.9892 196.866 63.7464 197.277C63.9133 197.367 64.0545 197.47 64.17 197.559V200.614C64.8374 201.063 65.4663 201.423 66.0053 201.859C67.3786 202.975 68.5978 204.195 70.5872 204.849C71.1775 205.042 71.6653 205.299 71.8963 205.632V206.877C71.8963 207.339 72.3326 207.647 72.9872 207.827C73.6417 207.994 74.322 208.122 75.015 208.199C77.8514 208.469 78.7498 209.02 80.9702 212.717C81.3937 212.319 81.8173 211.908 82.382 211.356C82.7028 211.844 82.8697 212.139 83.0879 212.396C83.6269 213.076 84.0633 213.397 84.6665 213.397C85.09 213.397 85.5777 213.23 88.3628 212.935C89.4152 213.525 90.4933 214.103 91.443 214.77C92.3543 215.412 93.4324 215.771 94.6388 215.951C95.9222 216.144 97.2185 216.272 99.6699 215.951C100.799 216.195 101.749 216.58 102.712 216.58C104.303 216.567 105.907 216.375 108.538 216.002C108.615 216.002 108.68 216.002 108.757 216.002V221.521C108.757 221.97 109.193 222.445 110.168 223.421C110.476 223.806 110.887 224.088 111.888 224.05C112.594 223.896 112.825 223.472 112.851 222.984C112.928 221.226 114.288 220.058 116.303 219.16C116.894 218.89 117.484 218.608 117.972 218.261C119.114 217.465 120.462 217.055 121.886 217.055C122.669 217.055 123.478 217.183 124.299 217.427C124.864 217.607 125.48 217.851 126.199 217.851C127.251 217.851 127.88 218.248 128.56 218.736C128.984 219.044 129.587 219.429 130.126 219.429C131.448 219.455 132.269 219.981 133.026 220.597C133.732 221.162 134.541 221.431 136.492 221.329C137.044 221.226 137.583 221.059 139.187 221.136C139.572 221.598 140.073 222.047 140.342 222.702V224.935C140.342 225.782 140.637 226 142.55 226.411C142.96 226.501 143.294 226.591 143.589 226.681V230.441C143.589 230.736 143.628 231.044 143.692 231.352C143.82 232.007 144.321 232.315 147.35 232.315C148.941 232.315 150.494 232.353 152.073 232.751C153.549 233.111 155.089 233.457 159.773 233.611C161.442 233.611 163.226 232.944 164.163 231.994C165.959 230.21 168.295 229.081 171.555 229.068C172.377 229.068 173.237 228.991 173.994 228.798C176.047 228.285 178.088 227.733 180.077 227.117C180.86 226.873 181.489 226.398 182.221 226.039C182.888 225.718 183.53 225.32 184.261 225.115C185.057 224.884 185.84 224.794 186.597 224.794C188.612 224.794 190.499 225.448 192.385 225.962C193.489 226.257 194.516 226.758 195.44 227.284C197.083 228.221 198.597 229.26 201.575 230.3C202.884 229.799 204.103 229.247 204.167 227.977" fill="#F2A576"/>
<path d="M460.969 234.849V233.129C461.072 232.988 461.175 232.834 461.29 232.692C461.688 232.192 462.073 231.679 462.471 231.178V230.254C463.01 230.292 463.549 230.305 464.062 230.305C465.128 230.305 466.077 230.241 466.629 230.1C466.732 229.279 467.643 228.714 468.105 228.046C468.708 227.187 469.594 226.943 470.787 226.647V220.975C470.646 221.013 470.518 221.039 470.39 221.077V219.165C470.877 219.011 471.673 218.896 472.931 218.831V213.248C473.046 213.146 473.11 213.043 473.11 212.94V207.268C473.11 207.473 472.905 207.665 472.482 207.845C471.737 208.179 470.903 208.448 470.672 209.27V213.415C469.94 213.582 469.722 213.813 469.722 214.07V217.394C469.491 217.625 469.235 217.869 468.991 218.164V221.591C468.657 221.783 468.362 222.027 468.105 222.374C467.643 223.041 466.732 223.606 466.629 224.427C466.077 224.568 465.115 224.645 464.062 224.645C463.1 224.645 462.047 224.581 461.149 224.466V227.212C460.854 227.597 460.61 227.969 460.61 228.38V230.434C460.379 231.011 460.096 231.383 459.814 231.756C457.376 232.718 457.042 233.001 456.759 234.297C456.259 234.553 455.746 234.797 455.258 235.041V237.249C455.258 237.249 455.168 237.3 455.117 237.326C454.603 237.57 454.039 237.801 453.461 237.929C452.717 238.096 452.332 238.301 452.332 238.596V240.175C451.485 241.035 449.97 241.497 449.893 242.819V248.492C449.944 247.465 450.881 246.951 451.703 246.374V248.145C449.393 249.903 448.879 250.109 448.379 250.288C447.852 250.481 447.326 250.673 446.761 250.673C445.247 251.213 444.669 251.418 444.669 251.739V253.266C444.028 253.587 443.014 253.561 442.436 253.985V255.769C442.218 256.013 441.974 256.256 441.769 256.487C441.256 257.091 440.19 257.514 439.241 257.822C438.008 258.207 436.905 258.528 436.135 259.452C435.185 260.582 433.773 261.531 432.541 262.584C431.604 262.404 431.155 263.059 430.321 263.059C428.485 263.79 429.936 265.138 428.229 265.972C428.1 265.446 428.01 265.048 427.895 264.586C426.496 265.972 426.085 266.511 425.071 266.511C423.249 267.563 421.696 268.244 421.696 269.54V269.745C420.323 270.028 419.553 270.644 419.36 271.748C419.219 272.556 418.59 272.749 417.422 272.749C414.534 273.686 413.212 273.763 412.096 274.16C408.374 273.66 408.053 274.032 407.86 274.802C404.78 274.751 404.049 274.558 403.394 274.558C402.124 274.558 401.174 275.328 400.583 276.483C399.146 276.394 398.53 276.355 398.312 276.086V274.969C396.13 275.226 396.682 274.879 395.86 276.548C393.255 276.676 390.624 276.804 387.71 276.933C387.056 276.599 387.005 275.392 385.67 275.392C384.656 277.356 384.399 279.217 384.13 281.283C383.565 280.95 383.052 280.796 382.564 280.796C381.986 280.796 381.46 281.027 380.96 281.45C379.792 281.707 379.278 281.258 378.624 281.065V283.632H376.788C375.389 283.144 374.786 283.529 374.222 283.94C373.631 284.364 373.246 284.569 372.912 284.569C372.527 284.569 372.207 284.287 371.706 283.696C370.795 284.8 370.307 285.121 369.768 285.121C368.01 284.261 366.88 284.364 365.712 284.184C365.648 284.89 365.584 285.532 365.494 286.379C364.788 286.084 364.352 285.904 363.916 285.724C363.068 286.148 362.286 286.674 361.349 286.969C360.386 287.277 359.282 287.444 358.243 287.47C357.165 287.47 356.176 287.213 355.599 287.136C354.251 287.611 353.289 288.111 352.211 288.291C351.158 288.458 350.722 288.792 350.414 289.472C350.221 289.882 349.669 290.216 349.156 290.717C348.857 289.93 348.394 289.459 347.77 289.305C347.475 289.844 347.192 290.37 346.859 290.986V291.885C346.358 291.859 345.806 291.705 345.113 291.435V297.108C345.614 297.301 346.05 297.429 346.448 297.506V298.34C345.909 298.533 345.319 298.636 344.702 298.636C343.034 298.456 342.315 298.353 341.609 298.238C340.891 296.852 340.159 295.414 339.389 294.002C339.338 293.669 339.299 293.361 339.248 293.078C339.607 293.373 340.095 293.733 340.801 294.182V288.509C338.966 287.316 338.58 286.815 338.157 286.25C337.092 286.481 336.809 287.572 335.487 287.572C333.19 287.521 332.356 287.547 331.457 287.547V286.995C331.457 286.096 330.841 285.955 330.212 285.955C328.454 286.019 327.954 285.775 327.504 285.339C325.772 284.685 325.669 284.133 325.4 283.594C324.719 283.837 324.463 284.133 324.463 284.454V286.225C324.463 286.225 324.347 286.289 324.27 286.315C323.5 285.467 322.717 284.967 321.844 284.967C321.113 284.967 320.304 285.313 319.38 286.084C318.225 285.583 317.417 285.378 316.557 285.378C315.838 285.378 315.106 285.519 314.323 285.763C310.897 285.403 309.421 285.07 308.253 284.492C306.751 283.748 305.699 282.593 303.863 282.105C303.491 282.002 303.363 281.412 303.158 281.04C302.939 280.642 302.734 280.244 302.529 279.846C302.862 279.949 303.196 280.077 303.53 280.205C304.184 280.462 304.518 280.719 304.518 281.065V275.392C304.518 275.046 304.197 274.789 303.53 274.533C302.927 274.302 302.336 274.032 301.682 274.032C298.101 273.57 297.562 273.365 296.971 273.365C294.379 273.763 293.904 273.583 293.391 273.326C292.005 272.607 290.426 272.068 289.746 270.811C289.553 270.464 288.976 270.22 288.565 269.925C285.78 270.284 284.727 270.644 283.688 270.965C282.802 271.234 282.186 271.517 281.981 272.261C281.724 273.185 281.07 273.942 279.427 273.942C277.63 274.635 277.232 274.93 276.642 275.264C276.257 274.93 275.91 274.687 275.641 274.417C272.933 274.738 272.74 275.187 272.445 275.585C270.006 275.855 269.763 274.263 268.017 273.75C267.683 274.225 267.337 274.712 266.836 275.431C266.195 274.712 265.745 274.199 265.27 273.66C264.205 273.788 263.769 274.366 263.243 274.841C262.229 275.778 261.613 276.252 260.971 276.252C260.329 276.252 259.7 275.816 258.648 274.956C257.916 274.353 257.121 273.904 256.145 273.531C253.489 274.481 252.949 275.046 252.308 275.559C249.638 275.816 248.124 276.047 246.763 275.521C244.697 276.676 244.184 277.536 244.184 278.383V284.056C244.184 283.209 244.697 282.336 246.763 281.194C248.124 281.72 249.625 281.502 252.308 281.232C252.949 280.732 253.489 280.154 256.145 279.204C257.121 279.576 257.916 280.026 258.648 280.629C259.7 281.502 260.355 281.925 260.971 281.925C261.587 281.925 262.229 281.45 263.243 280.513C263.769 280.026 264.205 279.461 265.27 279.333C265.745 279.872 266.195 280.372 266.836 281.104C267.337 280.385 267.683 279.897 268.017 279.422C269.763 279.949 270.006 281.527 272.445 281.258C272.74 280.86 272.933 280.411 275.641 280.09C275.91 280.359 276.257 280.603 276.642 280.937C277.219 280.59 277.63 280.308 279.427 279.615C281.07 279.615 281.724 278.858 281.981 277.934C282.186 277.189 282.815 276.894 283.688 276.637C284.74 276.317 285.793 275.957 288.565 275.598C288.963 275.893 289.553 276.137 289.746 276.483C290.413 277.741 292.005 278.28 293.391 278.999C293.904 279.268 294.379 279.448 296.971 279.037C297.562 279.037 298.114 279.243 301.682 279.705C301.682 279.705 301.707 279.705 301.72 279.705V283.889C301.72 284.133 301.836 284.402 302.067 284.723C302.503 285.352 302.798 286.045 303.17 286.712C303.376 287.085 303.504 287.675 303.876 287.778C305.724 288.265 306.764 289.42 308.266 290.165C309.446 290.742 310.91 291.076 314.336 291.435C315.106 291.204 315.851 291.05 316.57 291.05C317.417 291.05 318.238 291.256 319.393 291.756C320.317 290.986 321.126 290.64 321.857 290.64C322.73 290.64 323.513 291.14 324.283 291.987C324.784 291.808 325.027 291.602 325.027 291.32V289.433C325.13 289.369 325.258 289.318 325.412 289.266C325.682 289.806 325.785 290.357 327.517 291.012C327.966 291.435 328.467 291.692 330.225 291.628C330.751 291.628 331.252 291.731 331.419 292.257V293.219C332.33 293.219 333.152 293.194 335.5 293.245C336.822 293.245 337.104 292.154 338.17 291.923C338.401 292.218 338.619 292.501 339.043 292.873V296.762C339.043 297.455 339.222 298.379 339.402 299.675C340.172 301.1 340.903 302.524 341.622 303.91C342.315 304.013 343.047 304.129 344.715 304.308C346.204 304.308 347.526 303.744 348.296 302.73C348.514 302.435 348.643 302.139 348.643 301.87V297.108C348.643 297.108 348.694 297.083 348.732 297.07V295.414C348.874 295.594 348.976 295.876 349.169 296.39C349.682 295.902 350.234 295.568 350.427 295.145C350.735 294.464 351.171 294.131 352.223 293.964C353.302 293.797 354.264 293.296 355.612 292.809C356.202 292.886 357.19 293.142 358.256 293.142C359.308 293.13 360.412 292.95 361.361 292.642C362.298 292.347 363.081 291.82 363.928 291.397C364.365 291.577 364.814 291.756 365.507 292.052C365.597 291.204 365.661 290.55 365.725 289.857C366.893 290.024 368.023 289.934 369.781 290.794C370.32 290.794 370.808 290.473 371.719 289.369C372.207 289.959 372.54 290.242 372.925 290.242C373.259 290.242 373.644 290.024 374.234 289.6C374.799 289.189 375.389 288.817 376.801 289.292H379.022V286.866C379.522 287.072 380.036 287.316 380.972 287.11C381.473 286.687 381.999 286.456 382.577 286.456C383.052 286.456 383.565 286.61 384.143 286.943C384.425 284.877 384.669 283.016 385.683 281.052C387.017 281.052 387.056 282.259 387.723 282.605C390.624 282.464 393.268 282.336 395.873 282.22C396.669 280.578 396.168 280.886 398.222 280.655V281.399C398.222 282.002 398.684 282.041 400.596 282.156C401.187 281.001 402.136 280.244 403.407 280.244C404.062 280.244 404.806 280.449 407.873 280.501C408.066 279.731 408.387 279.358 412.109 279.859C413.238 279.461 414.547 279.384 417.435 278.447C418.603 278.447 419.232 278.255 419.373 277.446C419.565 276.342 420.335 275.713 421.722 275.444V275.161C421.786 273.929 423.313 273.249 425.084 272.222C426.098 272.222 426.496 271.683 427.908 270.297C428.01 270.759 428.113 271.157 428.241 271.683C429.936 270.849 428.498 269.502 430.333 268.77C431.168 268.77 431.617 268.115 432.554 268.295C433.786 267.255 435.198 266.306 436.147 265.163C436.93 264.239 438.021 263.931 439.253 263.546C440.203 263.238 441.268 262.802 441.782 262.212C442.218 261.724 442.886 261.185 442.886 260.556V259.491C443.784 259.17 445.067 259.273 445.247 258.284V256.975C445.581 256.821 446.068 256.654 446.761 256.41C447.326 256.41 447.852 256.218 448.379 256.025C448.905 255.833 449.444 255.628 452.011 253.638C452.473 253.394 452.717 253.215 452.717 252.919V247.247C452.717 247.542 452.46 247.722 452.011 247.965C451.985 247.978 451.972 247.991 451.947 248.017V246.246C452.37 245.925 452.717 245.553 452.858 245.065V243.833C453.025 243.769 453.217 243.704 453.461 243.653C454.051 243.525 454.616 243.294 455.117 243.05C455.925 242.652 456.323 242.421 456.323 242.113V240.252C456.477 240.175 456.618 240.111 456.772 240.034C457.055 238.725 457.388 238.455 459.827 237.493C460.276 236.902 460.725 236.312 460.982 234.939" fill="#F2A576"/>
<path d="M215.282 248.165V242.493C215.282 241.992 214.999 241.517 214.691 241.004V246.677C214.999 247.19 215.282 247.665 215.282 248.165Z" fill="#F2A576"/>
<path d="M480.399 251.181C479.898 251.591 479.5 252.054 479.5 252.58V255.814C479.205 256.315 478.833 256.802 478.473 257.277C477.909 258.021 477.562 258.702 477.357 259.523C477.01 260.986 476.317 262.411 475.996 263.874C475.65 265.414 474.777 266.813 473.93 268.199C473.25 269.303 472.249 270.278 471.068 271.202C469.72 272.229 469.233 273.628 469.13 275.066C469.079 275.913 468.937 276.747 468.86 277.491C468.488 277.594 468.193 277.632 467.936 277.632C467.256 277.632 466.948 277.312 466.794 276.811C466.704 276.503 466.704 276.182 466.666 275.861C466.55 275.001 466.063 274.295 465.074 273.769C464.458 273.448 463.778 273.153 463.252 272.768C462.661 272.319 462.122 271.806 461.725 271.254C461.301 270.663 460.903 270.047 460.518 269.431V264.349C460.518 264.169 460.492 264.002 460.441 263.81C460.364 263.553 460.326 263.309 460.326 263.053V268.725C460.326 268.892 460.351 269.059 460.377 269.213C460.107 268.79 459.851 268.366 459.594 267.942C459.466 267.737 459.389 267.48 459.389 267.249V272.922C459.389 273.153 459.479 273.41 459.594 273.615C460.261 274.732 460.942 275.848 461.712 276.927C462.097 277.478 462.649 277.992 463.239 278.441C463.752 278.826 464.445 279.121 465.061 279.442C466.05 279.968 466.537 280.674 466.653 281.534C466.691 281.842 466.679 282.176 466.781 282.484C466.935 282.984 467.256 283.305 467.924 283.305C468.18 283.305 468.488 283.254 468.848 283.151C468.937 282.407 469.066 281.56 469.117 280.726C469.207 279.288 469.708 277.889 471.055 276.862C472.249 275.938 473.237 274.963 473.917 273.859C474.764 272.46 475.65 271.074 475.984 269.534C476.304 268.071 476.997 266.646 477.344 265.183C477.549 264.362 477.896 263.669 478.461 262.937C479.166 262.013 479.962 261.038 479.962 259.972V257.264C480.091 257.123 480.232 256.982 480.386 256.854C480.822 256.494 481.027 256.148 481.027 255.853V250.18C481.027 250.475 480.822 250.821 480.386 251.181" fill="#F2A576"/>
<path d="M470.019 258.4V252.727C469.98 252.419 469.916 252.124 469.916 251.842V257.515C469.916 257.81 469.98 258.105 470.019 258.4Z" fill="#F2A576"/>
<path d="M218.721 273.605C219.991 273.733 220.748 274.259 221.249 275.17V269.498C220.748 268.599 219.991 268.073 218.721 267.932C218.079 267.868 217.463 267.752 216.847 267.637C214.947 267.239 214.498 266.815 214.46 265.416C214.46 264.954 214.306 264.518 214.177 264.069C214.357 264.081 214.524 264.107 214.703 264.12V258.447C212.765 258.293 210.827 258.024 208.915 258.024C207.183 258.024 205.476 258.242 203.781 258.922C203.409 259.076 202.986 259.192 202.549 259.281V255.996C202.549 255.508 202.203 255.097 201.574 254.699C201.099 254.404 200.958 254.16 200.958 253.865V259.294C200.65 259.166 200.355 258.948 200.162 258.755V264.428C200.457 264.71 200.996 265.082 201.433 265.082C202.228 265.057 203.076 264.864 203.769 264.582C205.463 263.902 207.183 263.696 208.902 263.696C210.134 263.696 211.367 263.799 212.599 263.915V266.032C212.599 266.276 212.778 266.546 213.138 266.866C213.382 267.097 213.754 267.367 213.921 267.598V268.407C213.921 269.318 214.434 270.165 214.46 271.063C214.498 272.462 214.947 272.886 216.847 273.284C217.463 273.412 218.092 273.515 218.721 273.579" fill="#F2A576"/>
<path d="M244.994 284.847V286.76C244.853 286.837 244.711 286.888 244.583 286.888C242.992 286.118 242.363 285.938 241.644 285.938C239.924 286.015 238.923 285.733 238.5 285.271V283.577C238.5 283.012 238.23 282.511 238.204 281.96C236.022 281.664 234.752 281.729 233.918 282.486C230.08 282.858 229.554 282.743 228.976 282.743C226.653 282.858 226.397 282.55 226.307 281.741C226.256 281.292 226.063 280.997 225.511 280.74C225.357 280.663 225.216 280.586 225.1 280.509V277.609C222.084 276.71 218.773 277.16 215.924 276.043V281.716C218.581 282.768 221.635 282.46 224.472 283.128V285.194C224.472 285.669 224.805 286.079 225.511 286.4C226.063 286.657 226.256 286.939 226.307 287.401C226.397 288.21 226.653 288.518 228.976 288.402C229.554 288.402 230.08 288.505 233.918 288.146C234.752 287.389 236.022 287.324 238.204 287.62C238.204 287.748 238.23 287.876 238.256 288.005V290.34C238.256 291.136 239.282 291.688 241.631 291.585C242.35 291.585 242.979 291.765 244.57 292.535C244.942 292.535 245.276 292.266 245.866 291.688V287.992C245.879 287.889 245.892 287.786 245.892 287.697V282.024C245.892 282.473 245.751 282.948 245.481 283.448C245.25 283.898 244.981 284.372 244.981 284.835" fill="#F2A576"/>
<path d="M332.832 302.711V308.384C332.832 308.692 332.986 309 333.063 309.321V303.648C332.986 303.327 332.832 303.019 332.832 302.711Z" fill="#F2A576"/>
<path d="M353.058 304.56C350.773 305.42 349.785 306.806 349.195 308.513C348.912 309.347 348.437 310.105 348.437 310.99V311.17C348.412 311.824 347.577 312.197 346.73 312.364C345.293 312.633 344.163 313.185 343.483 314.109C343.162 314.558 342.739 314.725 342.11 314.725C342.059 314.725 342.007 314.725 341.943 314.725C341.725 314.725 341.52 314.712 341.314 314.712C340.377 314.712 339.492 314.841 338.722 315.354C338.452 315.534 337.875 315.508 337.425 315.534C336.976 315.559 336.54 315.572 336.116 315.572C332.792 315.572 329.789 314.802 327.145 313.685C326.824 312.595 326.375 311.696 326.311 310.772C326.285 310.477 326.285 310.182 326.285 309.886V315.559C326.285 315.854 326.285 316.15 326.311 316.445C326.375 317.369 326.811 318.28 327.145 319.358C329.789 320.475 332.792 321.245 336.116 321.245C336.553 321.245 336.989 321.232 337.425 321.206C337.862 321.181 338.439 321.206 338.722 321.027C339.492 320.513 340.377 320.385 341.314 320.385C341.52 320.385 341.725 320.385 341.943 320.398C341.994 320.398 342.059 320.398 342.11 320.398C342.739 320.398 343.162 320.231 343.483 319.782C344.163 318.858 345.293 318.306 346.73 318.036C347.59 317.869 348.437 317.484 348.437 316.817V316.625C348.437 315.752 348.925 314.995 349.195 314.173C349.772 312.466 350.773 311.08 353.058 310.22C353.905 309.899 354.097 309.424 354.097 308.911V303.238C354.097 303.752 353.892 304.227 353.058 304.547" fill="#F2A576"/>
<path d="M476.281 248.087C476.589 248.087 476.936 248.229 477.513 248.472C478.476 248.896 479.503 249.23 480.863 249.743C481.21 250.089 481.081 250.616 480.414 251.18C479.734 251.745 479.259 252.387 479.682 253.183C480.529 254.723 479.426 256.032 478.489 257.277C477.924 258.021 477.577 258.701 477.372 259.523C477.026 260.986 476.332 262.411 476.012 263.874C475.678 265.414 474.792 266.813 473.945 268.199C473.265 269.303 472.264 270.278 471.083 271.202C469.736 272.229 469.248 273.628 469.145 275.065C469.094 275.912 468.953 276.746 468.876 277.491C468.504 277.594 468.208 277.632 467.952 277.632C467.271 277.632 466.963 277.311 466.809 276.811C466.72 276.503 466.72 276.182 466.681 275.861C466.565 275.001 466.078 274.295 465.09 273.769C464.474 273.448 463.793 273.153 463.267 272.768C462.677 272.319 462.138 271.805 461.74 271.253C460.97 270.175 460.289 269.059 459.622 267.942C459.468 267.673 459.365 267.339 459.43 267.057C459.571 266.53 459.776 265.991 460.123 265.504C460.533 264.939 460.623 264.413 460.456 263.809C460.148 262.731 460.469 261.769 461.509 260.896C462.073 260.421 462.433 259.818 462.895 259.279C464.14 257.854 465.5 256.481 466.591 255.005C467.374 253.94 468.465 253.208 470.044 252.695C469.954 251.989 469.748 251.309 470.467 250.667C471.173 250.038 472.071 249.794 473.047 249.576C473.92 249.384 474.664 249.127 475.28 248.588C475.704 248.216 475.986 248.049 476.307 248.049" fill="#F8C497"/>
<path d="M445.786 0.0385031C446.363 0.0385031 446.941 0.0898407 447.544 0.166847C448.789 0.346528 450.098 0.372197 451.343 0.551879C452.216 0.680222 453.037 0.924076 453.859 1.15509C455.193 1.52729 456.477 1.82248 457.901 1.82248C462.483 1.6428 464.203 2.07917 465.653 3.02891C466.115 3.33694 466.565 3.68347 467.091 3.94016C468.002 4.38936 468.721 4.90273 469.029 5.7113C469.183 6.122 469.696 6.48136 470.107 6.81506C471.262 7.79047 471.275 7.79047 471.57 9.03541C472.045 9.13808 472.558 9.25359 473.097 9.38194C473.136 11.1146 473.662 11.7435 474.471 12.4108C475.407 13.1937 476.062 14.1435 476.832 15.0162C478.193 16.505 478.603 17.0826 478.526 17.8141C478.475 18.443 478.847 18.905 479.566 19.3286C481.619 20.5478 483.198 21.9853 483.532 23.9746C483.583 24.3083 484.032 24.796 484.456 24.8987C485.649 25.1939 485.79 25.7714 485.726 26.503C485.585 28.9672 488.229 30.5587 490.68 30.5587C492.028 30.4432 492.837 30.3276 493.465 30.0581C496.867 30.2121 497.649 30.302 498.33 30.5458C498.959 30.7769 499.562 30.9437 500.178 30.9437C500.666 30.9437 501.179 30.841 501.718 30.5715C503.515 30.4432 505.106 31.0207 505.915 31.6881C506.454 32.1245 506.967 32.625 507.635 32.9459C508.777 33.5106 509.431 33.7544 510.355 33.7544C511.061 33.7544 511.908 33.6133 513.256 33.3566C513.295 33.8058 513.359 34.2293 513.384 34.6528C513.41 35.102 513.384 35.5512 513.384 36.0518C514.514 36.3983 515.528 36.6935 515.913 37.6176C516.195 38.285 516.555 38.8882 516.015 39.5684C515.605 40.0946 515.9 40.4668 516.503 40.8647C517.299 41.3781 518.018 41.9684 518.672 42.5588C521.624 42.5588 522.343 42.4176 523.19 42.4176C526.078 42.4176 528.683 41.8529 531.134 40.9417C531.635 40.7492 532.058 40.3256 532.302 39.9406C533.38 38.2721 534.843 36.9374 537.5 36.3983C538.257 36.2443 539.13 35.8978 539.554 35.4486C540.901 34.0111 543.263 33.5491 544.97 32.471C546.728 32.3811 547.408 32.5223 548.332 32.6507C548.191 33.4079 548.089 34.1523 547.883 34.8967C547.704 35.5512 547.922 36.0518 548.628 36.4753C550.039 37.3096 550.386 38.8625 549.359 39.9406C547.348 41.4465 546.767 42.7513 547.614 43.8551C547.28 44.4711 546.779 45.0744 546.651 45.7161C546.523 46.3193 546.831 46.961 546.921 47.5899C546.587 49.1814 546.702 49.8872 547.293 50.6188C547.537 50.914 547.575 51.4659 547.331 51.7482C546.805 52.3643 546.831 53.0317 546.587 53.6734C546.061 55.0852 545.06 56.3943 545.162 57.9087C544.097 58.8456 543.943 59.9494 543.917 61.1045C543.879 62.4906 543.25 62.8243 541.338 63.1965C540.619 63.3377 539.9 63.389 539.182 63.389C537.667 63.389 536.165 63.158 534.664 63.081C532.841 63.0553 532.354 63.2863 532.058 64.1334C531.648 65.3142 530.685 66.0329 529.209 66.5206C527.515 67.2137 527.541 67.573 527.977 68.2019C529.607 70.5506 531.481 72.848 532.123 75.479C532.751 78.0459 532.713 80.6256 532.597 83.2053C532.559 84.1165 531.892 84.7839 530.48 85.0278C529.479 85.2075 528.285 85.2973 527.746 86.2214C528.144 86.5294 528.696 86.8118 528.953 87.1968C529.196 87.569 529.145 88.031 529.273 88.7369C527.554 87.7102 525.834 87.2225 524.987 85.9005C524.627 85.3486 523.857 85.1176 522.882 85.1176C521.663 86.1187 521.637 87.0043 521.624 87.8899C521.611 88.3391 521.663 88.8011 521.586 89.2503C521.457 90.0332 520.854 90.4054 519.814 90.4054C517.761 92.6643 516.131 93.3701 515.143 94.3841C512.409 94.8846 511.087 95.0771 509.765 95.2311C508.854 95.3466 508.572 95.6803 508.854 96.2964C509.226 97.1049 509.367 97.9649 510.522 98.5167C511.254 98.8761 511.241 99.5306 510.92 100.006C510.651 100.403 509.996 100.853 509.431 100.904C507.737 101.084 505.992 101.058 504.285 101.173C502.09 101.199 500.832 100.673 499.741 99.7745C499.164 99.2996 498.779 99.0558 498.368 99.0558C497.957 99.0558 497.572 99.2739 497.008 99.7232C496.43 100.172 495.776 100.776 495.724 101.327C495.557 102.88 494.107 103.946 493.26 105.242C492.182 107.039 491.463 107.488 490.27 107.834C489.307 108.117 488.64 108.9 487.78 109.413C487.061 109.849 486.317 110.273 485.508 110.62C484.892 110.889 484.327 111.082 484.083 111.646C482.261 112.801 481.465 113.251 480.772 113.764C480.208 114.188 479.771 114.688 479.283 115.163C478.821 116.844 477.525 117.281 476.999 117.999C474.894 118.551 473.867 118.526 472.866 118.641C472.212 118.718 471.57 118.949 470.928 119.103C468.759 120.528 467.296 120.284 466.488 120.707C464.537 121.721 462.599 122.748 460.674 123.775C458.928 125.43 457.799 126.56 456.618 127.728C454.795 126.637 454.269 125.905 453.563 125.264C453.255 124.981 452.703 124.763 452.203 124.635C451.561 124.481 450.855 124.455 450.226 124.378C449.88 123.582 450.239 123.146 451.073 122.812C451.856 122.504 452.383 122.106 452.036 121.388C451.741 120.784 452.549 120.515 452.973 120.155C454.68 118.705 456.464 117.293 457.439 115.484C458.12 114.213 457.812 113.109 456.194 112.352C455.463 112.006 454.962 111.672 454.77 111.017C454.629 110.543 454.154 110.26 453.666 110.26C452.28 110.992 451.638 111.133 450.971 111.133C450.457 111.133 449.931 111.043 449.392 110.953C447.698 110.902 447.159 111.685 446.363 112.121C445.965 112.339 445.876 112.84 445.555 113.379C445.157 113.713 444.438 114.175 443.95 114.727C443.116 115.689 442.436 116.716 441.627 117.678C438.727 118.949 437.238 119.77 435.98 120.836C432.579 122.299 431.36 123.736 431.578 125.777C430.076 127.766 428.921 128.819 426.701 128.819C425.687 128.819 424.891 129.152 424.224 129.435C422.504 129.794 422.132 129.602 421.593 129.204C421.144 128.87 420.694 128.498 420.091 128.498C418.525 128.998 417.216 129.101 417.127 130.205C417.088 130.77 416.729 131.334 416.446 131.886C415.728 133.208 415.689 134.453 417.178 135.557C418.166 137.546 419.206 138.239 420.669 138.74C422.389 139.035 423.043 138.855 423.736 138.855C424.25 138.855 424.776 138.958 425.341 139.163C427.458 138.701 427.895 138.355 428.369 138.085C430.141 138.74 430.397 139.099 430.282 140.267C430.256 140.588 430.59 140.947 430.834 141.461C430.59 142.154 430.23 143.052 429.948 143.976C429.756 144.618 430.141 145.17 430.923 145.465C432.284 145.978 433.657 146.312 435.082 146.312C436.057 146.312 437.046 146.158 438.072 145.799C438.996 145.478 439.625 145.131 439.587 144.425C439.535 143.745 440.023 143.424 440.755 143.18C442.089 142.731 443.167 142.154 443.334 141.011C444.528 140.228 445.247 140.023 445.888 139.715C446.761 139.304 447.557 139.125 448.301 139.125C449.649 139.125 450.817 139.715 451.908 140.626C454.244 141.486 454.885 141.602 455.565 141.602C456.066 141.602 456.605 141.538 457.157 141.512C458.607 141.448 459.737 141.101 460.905 140.472C461.816 141.153 462.881 141.409 464.075 141.409C464.768 141.409 465.486 141.319 466.269 141.191C465.859 142.269 465.538 143.116 465.255 143.963C465.961 145.272 465.307 145.734 464.806 146.145C462.547 145.876 461.957 145.773 461.354 145.773C460.532 145.773 459.672 145.953 459.21 146.299C458.055 147.172 456.772 147.749 455.142 148.096C453.717 148.404 452.46 149.11 451.202 149.61C451.15 150.124 451.112 150.522 451.073 150.984C450.522 151.009 450.047 151.035 449.495 151.061C449.084 151.69 448.802 152.293 449.046 153.012C446.132 154.629 444.323 155.758 443.18 157.375C442.089 157.581 442.192 158.787 440.742 158.787C440.293 158.787 439.805 159.377 439.51 159.75C438.996 160.366 438.573 161.02 438.136 161.662C437.328 163.048 437.187 163.536 436.776 163.818C435.865 164.421 436.019 165.127 436.121 165.846C436.198 166.346 436.66 166.603 437.341 166.603C439.304 167.694 440.498 168.105 442.064 168.336C443.668 168.58 445.208 169.042 446.774 169.427C448.558 171.134 449.893 172.276 450.534 173.752C451.15 175.202 452.306 176.537 453.217 177.91C454.192 179.361 454.641 179.553 455.245 179.553C456.464 178.732 457.067 179.001 457.144 179.54C457.208 180.041 457.195 180.67 456.823 181.055C455.527 182.351 456.092 183.981 458.184 184.558C458.723 184.7 459.275 184.828 459.814 184.956C460.776 185.2 461.521 185.572 461.572 186.394C461.623 187.331 462.419 187.677 463.664 187.844C466.244 188.191 467.925 189.5 468.387 191.386C469.439 192.58 469.003 193.401 468.58 194.223C468.028 194.3 467.489 194.364 466.808 194.467C467.078 194.967 467.296 195.365 467.566 195.853C467.078 196.032 466.603 196.212 466.051 196.417C465.268 197.688 463.805 197.367 463.523 198.561C464.421 199.985 463.343 199.472 462.65 199.793C463.343 200.678 462.47 201.153 461.572 201.474C460.391 201.898 459.865 202.501 460.019 203.463C460.686 203.797 461.379 204.003 462.175 204.003C464.614 203.823 465.281 204.041 465.859 204.439C466.462 204.85 467.091 205.222 467.732 205.607C468.323 205.966 468.926 206.313 469.696 206.313C471.48 206.518 472.006 206.685 472.584 206.762C473.264 207.134 473.213 207.532 472.43 207.879C471.685 208.212 470.851 208.482 470.62 209.303C471.249 209.329 471.788 209.342 472.314 209.367C472.584 210.664 472.738 211.87 472.879 213.192C469.889 213.346 469.516 213.77 469.696 214.321C469.94 215.027 470.402 215.759 470.325 216.452C470.274 216.978 469.542 217.466 468.913 218.197C469.362 218.903 470.004 219.904 470.723 221.008C469.529 221.303 468.644 221.547 468.04 222.407C467.578 223.074 466.667 223.639 466.565 224.461C466.013 224.602 465.05 224.666 463.998 224.666C463.035 224.666 461.983 224.615 461.084 224.486C461.144 224.888 461.585 225.235 462.406 225.526C462.008 226.039 461.623 226.553 461.225 227.053C460.686 227.746 460.199 228.414 460.905 229.209C460.648 230.583 460.199 231.173 459.75 231.763C457.311 232.726 456.977 233.008 456.695 234.305C456.194 234.548 455.681 234.805 455.18 235.049C456.618 236.422 456.618 236.551 455.039 237.321C454.526 237.577 453.961 237.795 453.384 237.924C452.126 238.206 451.921 238.591 452.78 239.336C452.37 240.85 449.918 241.132 449.829 242.827C450.611 242.904 451.292 242.981 451.869 243.045C451.779 243.943 451.638 244.803 451.625 245.663C452.947 247.113 452.883 247.408 451.933 247.909C449.367 249.898 448.827 250.091 448.301 250.283C447.775 250.476 447.249 250.681 446.697 250.681C445.063 251.263 444.558 251.888 445.182 252.555C444.964 253.723 443.206 253.364 442.372 253.98C443.437 254.968 442.333 255.776 441.704 256.482C441.191 257.086 440.126 257.509 439.176 257.817C437.944 258.202 436.84 258.523 436.057 259.447C435.108 260.589 433.696 261.526 432.464 262.579C431.527 262.399 431.078 263.053 430.243 263.053C428.408 263.785 429.858 265.133 428.151 265.967C428.023 265.441 427.933 265.043 427.818 264.581C426.419 265.967 426.008 266.506 424.994 266.506C423.082 267.61 421.465 268.316 421.631 269.74C420.245 270.01 419.475 270.639 419.283 271.742C419.142 272.551 418.513 272.743 417.345 272.743C414.457 273.68 413.135 273.757 412.018 274.155C408.296 273.655 407.976 274.027 407.783 274.797C404.703 274.746 403.971 274.553 403.304 274.553C402.033 274.553 401.084 275.31 400.493 276.465C398.816 276.354 398.059 275.849 398.221 274.951C396.04 275.195 396.592 274.861 395.77 276.53C393.165 276.658 390.534 276.786 387.62 276.915C386.966 276.581 386.914 275.375 385.58 275.375C384.566 277.338 384.322 279.199 384.04 281.266C383.475 280.932 382.961 280.778 382.474 280.778C381.896 280.778 381.37 281.009 380.869 281.432C379.701 281.689 379.188 281.24 378.534 281.047C378.675 281.971 378.79 282.754 378.919 283.614H376.698C375.299 283.126 374.696 283.512 374.131 283.922C373.541 284.346 373.156 284.551 372.822 284.551C372.437 284.551 372.116 284.269 371.616 283.678C370.705 284.782 370.217 285.103 369.678 285.103C367.92 284.243 366.79 284.346 365.622 284.166C365.558 284.872 365.494 285.514 365.404 286.361C364.698 286.066 364.262 285.886 363.825 285.706C362.978 286.13 362.195 286.656 361.258 286.951C360.296 287.246 359.192 287.426 358.153 287.452C357.074 287.452 356.086 287.195 355.496 287.118C354.148 287.593 353.186 288.093 352.108 288.273C351.055 288.44 350.619 288.774 350.311 289.454C350.118 289.865 349.566 290.198 349.053 290.699C348.754 289.92 348.291 289.45 347.667 289.287C347.385 289.826 347.089 290.352 346.756 290.968C347.397 291.109 347.962 291.238 348.617 291.379C348.039 291.713 347.526 291.88 346.961 291.88C346.396 291.88 345.793 291.726 345.023 291.418C345.216 293.047 345.806 293.201 346.576 293.381C346.075 294.267 346.409 294.844 347.705 295.268C348.681 295.589 348.732 296.32 348.18 297.039C347.41 298.053 346.101 298.618 344.599 298.618C342.931 298.438 342.212 298.335 341.506 298.233C340.788 296.846 340.056 295.409 339.286 293.997C338.927 291.418 338.58 290.327 339.62 289.544C340.03 289.236 340.364 288.863 340.698 288.504C338.862 287.31 338.477 286.81 338.041 286.245C336.976 286.476 336.693 287.567 335.372 287.567C333.023 287.516 332.201 287.542 331.29 287.542C331.573 286.143 330.854 285.95 330.097 285.95C328.351 286.014 327.838 285.77 327.389 285.334C325.656 284.679 325.553 284.128 325.284 283.589C324.154 283.999 324.193 284.538 324.642 285.103C325.117 285.668 324.937 286.027 324.154 286.309C323.384 285.462 322.601 284.975 321.729 284.975C320.997 284.975 320.188 285.321 319.264 286.091C318.109 285.591 317.301 285.385 316.441 285.385C315.722 285.385 314.991 285.527 314.208 285.77C310.781 285.411 309.318 285.077 308.137 284.5C306.635 283.755 305.583 282.6 303.748 282.113C303.375 282.01 303.247 281.42 303.042 281.047C302.67 280.393 302.374 279.7 301.938 279.058C301.322 278.172 301.514 277.685 302.682 277.133C303.234 276.863 303.748 276.504 304.068 276.093C304.659 275.362 304.453 274.938 303.414 274.54C302.811 274.309 302.22 274.04 301.566 274.04C297.985 273.578 297.446 273.372 296.856 273.372C294.263 273.77 293.788 273.591 293.275 273.334C291.889 272.615 290.31 272.076 289.643 270.818C289.45 270.459 288.873 270.228 288.462 269.933C285.677 270.292 284.624 270.651 283.585 270.972C282.699 271.242 282.083 271.524 281.878 272.269C281.621 273.193 280.967 273.95 279.324 273.95C277.527 274.656 277.129 274.938 276.539 275.272C276.154 274.938 275.807 274.694 275.538 274.425C272.83 274.746 272.637 275.195 272.342 275.593C269.903 275.862 269.659 274.271 267.914 273.757C267.58 274.232 267.234 274.72 266.733 275.439C266.092 274.72 265.642 274.207 265.167 273.668C264.102 273.796 263.666 274.373 263.14 274.848C262.126 275.785 261.523 276.26 260.868 276.26C260.213 276.26 259.597 275.824 258.545 274.964C257.813 274.361 257.018 273.899 256.042 273.539C253.385 274.489 252.846 275.054 252.205 275.567C249.535 275.824 248.021 276.055 246.66 275.529C244.209 276.902 243.939 277.864 244.132 278.865C244.209 279.251 244.376 279.674 244.697 279.982C245.877 281.086 246.108 282.202 245.402 283.524C244.953 284.371 244.401 285.372 245.788 286.104C245.197 286.682 244.863 286.951 244.491 286.951C242.9 286.181 242.271 286.001 241.552 286.001C238.754 286.13 237.83 285.321 238.279 284.282C238.626 283.447 238.151 282.767 238.125 282.023C235.944 281.728 234.673 281.792 233.839 282.562C230.001 282.934 229.475 282.818 228.898 282.818C226.574 282.934 226.318 282.626 226.228 281.817C226.177 281.368 225.984 281.073 225.432 280.816C224.367 280.329 224.149 279.636 224.662 278.814C224.867 278.455 224.919 278.057 225.022 277.698C222.005 276.799 218.694 277.248 215.858 276.132C216.345 275.131 216.782 274.309 217.873 273.719C218.258 271.255 219.156 270.189 221.171 269.561C220.671 268.662 219.913 268.136 218.63 267.995C218.001 267.931 217.372 267.828 216.756 267.7C214.857 267.302 214.407 266.878 214.369 265.479C214.343 264.401 213.599 263.387 213.907 262.271C213.984 261.988 213.381 261.603 213.047 261.282C212.264 260.538 212.328 260.127 213.368 259.588C213.856 259.332 214.613 259.267 214.613 258.523C212.675 258.369 210.737 258.099 208.825 258.099C207.092 258.099 205.385 258.305 203.691 258.998C202.998 259.28 202.151 259.473 201.355 259.498C200.906 259.498 200.38 259.126 200.084 258.844C202.869 256.829 203.049 255.764 201.496 254.788C200.803 254.352 200.816 254.018 200.957 253.518C201.227 252.542 201.304 251.515 203.011 251.118C203.293 249.321 203.832 248.679 204.679 248.166C207.361 247.639 208.375 247.242 208.825 246.24C209.107 245.637 209.505 245.175 210.339 245.175C212.585 243.635 213.548 243.212 215.049 243.212C215.434 242.454 215.049 241.825 214.613 241.094C215.806 239.785 216.102 239.207 216.576 238.643C217.475 237.564 217.95 236.448 217.578 235.152C217.424 234.6 217.809 233.996 217.783 233.419C217.744 232.495 217.424 231.622 218.04 230.672C218.399 230.12 217.937 229.248 217.667 228.555C217.501 228.105 216.974 227.913 216.384 227.913C215.473 228.016 215.049 228.234 214.42 228.465C213.779 227.002 212.662 225.693 212.867 224.101C212.983 223.203 212.624 222.446 211.802 221.727C211.199 221.201 210.596 220.828 209.646 220.828C209.107 220.328 208.966 219.84 208.645 219.404C206.502 220.122 205.77 220.649 204.949 221.175C204.474 221.483 204.089 222.022 204.063 222.458C203.999 223.716 202.78 224.281 201.47 224.781C198.493 223.742 196.978 222.702 195.336 221.765C194.412 221.239 193.385 220.739 192.268 220.443C190.382 219.93 188.495 219.275 186.48 219.275C185.723 219.275 184.953 219.365 184.144 219.596C183.412 219.802 182.771 220.2 182.103 220.52C181.385 220.867 180.756 221.342 179.96 221.586C177.971 222.202 175.93 222.754 173.877 223.267C173.106 223.459 172.247 223.536 171.438 223.536C168.191 223.536 165.842 224.679 164.045 226.463C163.096 227.4 161.312 228.08 159.656 228.08C154.971 227.939 153.431 227.592 151.955 227.22C150.377 226.822 148.824 226.796 147.232 226.784C144.203 226.784 143.703 226.476 143.575 225.821C143.408 224.961 143.382 224.152 144.011 223.331C145.089 221.906 144.678 221.355 142.432 220.893C140.417 220.456 140.199 220.238 140.225 219.275C140.854 217.209 139.75 216.452 139.057 215.605C137.453 215.528 136.913 215.695 136.362 215.797C134.411 215.9 133.602 215.63 132.896 215.066C132.139 214.437 131.318 213.924 129.996 213.898C129.457 213.898 128.854 213.513 128.43 213.192C127.763 212.704 127.121 212.306 126.068 212.306C125.35 212.306 124.734 212.063 124.169 211.883C123.348 211.626 122.539 211.511 121.756 211.511C120.331 211.511 118.984 211.921 117.842 212.717C117.341 213.064 116.764 213.359 116.173 213.615C114.171 214.514 112.798 215.682 112.721 217.44C112.695 217.928 112.451 218.364 111.758 218.505C110.757 218.557 110.346 218.274 110.038 217.876C108.293 216.118 108.267 215.977 109.448 214.694C110.128 213.962 110.731 213.256 110.68 212.319C110.603 211.074 109.82 210.445 108.421 210.445C105.777 210.818 104.173 211.01 102.594 211.023C101.619 211.023 100.682 210.651 99.5526 210.394C97.1012 210.728 95.805 210.587 94.5215 210.394C93.3023 210.214 92.237 209.855 91.3258 209.226C90.376 208.559 89.298 207.981 88.2455 207.391C85.4605 207.686 84.9728 207.853 84.5492 207.853C83.9588 207.853 83.5225 207.532 82.9706 206.852C82.7524 206.582 82.5984 206.3 82.2647 205.812C81.7 206.351 81.2765 206.762 80.8529 207.16C78.6326 203.463 77.7213 202.912 74.8978 202.642C74.2176 202.578 73.5245 202.45 72.8828 202.27C72.0871 202.052 71.6122 201.654 71.856 200.999C72.2026 200.101 71.5095 199.639 70.4827 199.305C68.5062 198.651 67.2742 197.431 65.9009 196.315C65.3618 195.878 64.7329 195.519 64.0656 195.07C64.3607 193.953 65.426 192.721 63.642 191.733C62.8848 191.322 62.1019 191.13 61.3062 191.13C60.5104 191.13 59.6249 191.335 58.7906 191.669C57.7254 191.001 57.1992 190.18 56.904 189.294C56.4804 188.037 55.659 187.061 53.9392 186.471C52.643 186.034 51.7189 185.328 51.1028 184.353C50.4611 183.326 49.614 182.325 48.2279 181.696C46.983 181.132 46.4953 180.413 46.6878 179.412C45.353 178.244 44.0953 177.641 42.8247 177.05C40.8353 176.755 40.1936 176.986 39.6032 177.397C38.5636 178.141 37.4984 178.898 36.2534 179.412C35.5989 177.692 34.585 176.614 33.2245 175.497C31.6972 174.24 29.7978 173.354 28.0523 172.314C27.1667 171.788 26.4993 171.198 26.3325 170.415C26.0758 169.221 24.972 168.528 23.7014 167.874C22.9955 167.527 22.3281 167.129 21.4426 166.642C21.1217 166.744 20.557 166.924 19.9281 167.117C17.4639 164.883 16.7067 163.087 16.5912 161.2C16.5783 160.866 17.2842 160.532 17.7334 160.096C17.0532 158.723 16.989 158.235 17.2586 157.966C17.9003 157.324 17.7719 156.772 17.1687 156.22C16.3088 155.45 16.219 154.68 17.0147 153.846C17.6564 152.498 17.6693 151.844 18.1056 151.613C18.7217 151.292 19.6586 151.266 20.4672 151.151C21.2501 151.728 21.2372 152.164 21.2629 152.601C21.3014 153.666 21.9303 154.205 22.9955 154.205C26.371 153.384 27.2437 152.46 27.0384 150.984C26.9485 150.303 26.987 149.623 27.0384 148.943C27.1282 147.775 26.7817 146.748 25.8063 145.747C24.7667 144.682 24.7282 143.488 25.7934 142.32C26.1143 141.974 26.1785 141.473 26.2426 141.05C26.3068 140.614 26.2041 140.164 26.1656 139.689C29.8619 139.189 29.7721 138.367 29.5154 136.596C28.0908 135.493 27.0897 134.954 26.0501 134.479C25.0362 134.029 25.1004 133.375 25.1902 132.682C25.3057 131.873 25.3956 131.065 25.4982 130.256C24.8822 128.678 24.9592 127.728 26.5507 126.817C25.6908 126.534 25.1004 126.329 24.4972 126.149C22.6875 125.584 20.8779 125.02 19.0554 124.455C17.3869 123.48 16.1805 122.748 15.0126 121.978C14.1655 121.426 13.2029 120.874 13.8318 119.745C12.8564 119.681 12.1248 119.629 11.3804 119.604C10.482 119.565 9.90447 119.347 9.96864 118.615C8.72371 116.934 9.31408 116.113 9.99431 115.343C10.7259 114.508 11.1879 113.636 11.0467 112.635C10.8927 111.685 10.4435 110.863 9.17291 110.401C8.2745 110.068 7.73546 109.567 7.29909 108.925C7.01673 108.489 6.5932 108.014 6.05415 107.77C4.12899 106.898 2.12683 106.102 0.0348243 105.216V103.946C2.07549 103.766 2.73005 103.907 3.37177 104.19C6.36218 104.523 6.96539 103.959 6.55469 103.009C6.14399 102.072 6.13116 101.289 6.99107 100.442C7.33759 100.095 7.27342 99.4793 7.26059 98.9916C7.22208 97.7467 7.35042 96.5531 8.28733 95.4493C9.05739 94.5509 8.76221 93.691 7.68412 93.0108C6.9654 92.5616 6.2595 92.0482 5.41243 91.7787C1.53645 91.8172 1.21559 91.599 0.779221 90.9573C0.509699 90.5466 0.330025 90.1102 0.124674 89.6867C-0.0935101 89.2246 -0.0678487 88.7626 0.548202 88.4546C1.93431 87.7872 1.79314 86.8631 1.47228 85.8877C0.702216 84.078 1.07441 83.4235 2.21667 83.4235C4.69371 83.462 5.3996 82.7048 6.05415 81.7037C6.40068 81.1775 6.90122 80.6898 7.44027 80.2406C8.18466 79.6117 8.98039 79.2908 9.89163 79.2908C10.405 79.2908 10.944 79.3935 11.5473 79.5988C14.8072 79.4063 15.5901 79.3036 16.2447 79.0213C16.9762 78.7133 17.6179 78.2897 18.4522 77.8534C20.0693 78.9315 20.6597 79.124 21.3271 79.124C23.3806 78.7261 24.3175 78.5849 25.5111 78.3539C25.5367 79.124 25.5239 79.7272 25.5752 80.3304C25.6779 81.4085 25.8704 81.5882 27.1795 81.5882C28.309 81.5882 28.9379 81.7294 29.4769 81.909C30.0929 82.1144 30.6577 82.2171 31.1839 82.2171C32.0438 82.2171 32.8267 81.9347 33.5711 81.3058C34.7133 80.3432 35.9711 79.432 37.3315 78.6106C38.0374 78.1999 38.4995 77.9945 38.9615 77.9945C39.4492 77.9945 39.9369 78.2127 40.6941 78.5978C41.2332 78.8801 41.8621 79.0726 42.5166 79.3422C42.8888 78.8545 43.0685 78.4437 43.4407 78.1614C43.8257 77.8919 44.3648 77.6095 44.8782 77.5582C46.1359 77.4298 47.3809 77.3913 48.4974 76.8266C49.9349 76.7496 51.6675 77.2887 52.0526 77.7764C52.4889 78.3539 53.0665 78.5208 53.7082 78.5208C57.5585 77.9817 60.2281 77.5197 62.9233 77.0833C66.8891 77.0576 69.225 76.0181 71.7277 75.4405C73.3191 75.0683 73.5117 74.8373 73.5887 73.6694C73.6785 71.3848 74.5384 70.7303 76.2839 70.5121C78.0422 68.1634 79.5053 68.4843 80.8786 68.2789C81.4176 67.0853 81.7898 65.8789 81.315 64.5955C81.1738 64.2104 81.1738 63.7869 81.2123 63.389C81.2893 62.4008 81.4048 61.4125 81.5331 60.4114C81.7 59.1537 81.8027 57.8831 82.0979 56.6381C82.4187 55.3034 82.4187 54.1483 80.5834 53.2755C80.0315 53.0188 79.839 52.3899 79.3641 51.8124C83.2658 51.5942 85.7428 51.7611 88.2327 51.8124C89.7086 51.8509 91.1846 51.8766 92.6605 51.8766C93.8028 51.8766 94.9451 51.8637 96.0745 51.8252C97.7943 51.7996 98.1152 51.9536 98.6157 52.775C99.0777 53.5579 99.758 53.8916 100.939 53.9301C101.67 53.9557 102.389 54.1868 103.185 54.3536C103.672 53.8146 103.685 53.1857 103.21 52.7108C101.465 50.9653 102.402 49.4252 103.865 47.9749C105.764 46.1011 107.754 44.2658 109.794 42.469C111.078 41.3396 112.477 40.2743 113.901 39.2347C117.341 39.6326 118.239 40.2486 119.074 40.8647C119.895 41.4936 120.832 41.8658 122.026 42.0454C125.671 42.546 129.303 43.085 132.922 43.6369C134.244 43.6882 134.783 43.4829 135.245 43.0209C136.259 41.9941 136.965 40.9417 136.901 39.6326C136.836 38.6058 137.093 37.5534 137.26 36.5267C137.491 35.0507 138.71 33.9341 140.084 32.9074C140.417 32.6507 141.085 32.548 141.624 32.4967C145.705 32.4967 146.757 32.2271 147.797 31.8421C149.196 31.3031 150.017 30.5715 150.12 29.3907C150.21 28.3127 151.314 27.6068 152.546 27.6068C153.072 27.6068 153.637 27.7351 154.137 28.0175C155.279 28.6592 156.422 28.7747 157.705 28.7747C158.578 28.7747 159.181 28.8132 159.861 28.8389C160.105 29.5448 160.195 30.0966 159.476 30.6613C158.244 31.6239 158.283 31.6881 159.54 32.625C159.143 33.9726 159.733 34.5887 160.952 35.2175C162.249 35.8721 163.416 36.6807 163.635 37.9256C165.508 39.3759 166.702 40.762 169.089 40.7748C170.27 40.7748 171.04 41.0957 171.464 41.8786C171.733 42.3791 172.259 42.7 173.068 42.7C173.979 42.7 174.441 43.0979 174.775 43.6241C175.84 45.3054 177.149 46.8968 177.252 48.8605C177.303 49.8487 178.035 50.8498 178.664 51.7739C179.742 53.3654 180.281 54.9312 178.792 56.5355C178.099 57.2799 177.752 58.0884 177.868 58.974C177.984 59.8467 177.496 60.4884 176.482 60.9248C174.826 61.6307 174.3 62.8371 173.889 63.9922C173.44 65.2628 174.608 66.2768 175.981 66.9826C177.996 68.0094 180.242 68.741 182.771 68.9848C185.735 70.4094 187.956 70.2041 189.971 70.5634C193.808 71.2308 197.723 71.8084 200.546 74.0801C202.484 75.6459 204.564 77.1218 206.643 78.6106C207.618 79.3037 208.671 79.9197 210.134 79.9197C212.059 80.4459 211.815 80.7539 211.661 81.0748C211.391 81.601 211.417 82.1144 212.328 82.2556C213.201 82.3967 213.227 82.8844 213.329 83.2952C213.676 84.6299 213.907 85.9647 214.241 87.3123C214.395 87.9284 214.51 88.5957 214.934 89.1348C216.268 90.8289 218.027 92.3691 217.963 94.4739C225.278 94.6536 230.925 95.3723 236.534 96.3477C239.383 96.8483 242.361 97.0151 245.184 97.5798C247.443 98.029 249.728 98.1317 251.999 98.1317C253.36 98.1317 254.707 98.0932 256.055 98.0675C259.662 98.0675 262.524 98.6836 265.424 99.3638C267.991 99.8515 268.877 100.365 269.416 101.225C270.584 102.829 271.392 103.24 272.534 103.24C274.678 103.188 275.653 103.471 276.616 103.933C278.105 104.639 279.645 105.306 281.249 105.871C282.84 106.423 284.496 107.013 286.216 107.244C288.847 107.334 290.015 107.218 291.157 107.18C292.813 107.719 292.954 108.284 293.146 109.002C293.981 109.067 294.815 109.144 295.662 109.144C296.599 109.144 297.536 109.041 298.473 108.707C302.541 107.257 306.674 105.884 310.665 104.344C312.436 103.663 314.31 103.535 316.184 103.304C318.456 103.034 320.715 102.637 323.025 102.637C326.529 102.816 328.877 103.047 331.239 103.099C333.164 103.099 334.589 102.97 336 102.842C337.643 102.701 339.209 102.521 340.557 101.648C341.224 101.225 342.469 101.135 343.457 101.058C345.729 100.891 347.153 99.9927 348.283 98.6836C349.284 97.5285 350.362 96.3991 351.504 95.3081C351.838 94.9873 352.505 94.6664 353.032 94.6407C354.084 94.6022 354.841 94.2685 355.624 93.8578C356.805 93.229 358.063 92.6899 359.218 92.0482C360.399 91.4065 360.424 91.2011 359.59 90.3797C358.55 89.3401 357.511 88.3006 356.42 87.2995C355.342 86.3112 355.021 85.3358 356.035 84.1807C356.908 83.1796 357.537 82.0759 358.294 81.0235C359.051 79.9582 360.604 79.3036 362.208 79.3036C362.734 79.3036 363.273 79.3807 363.787 79.5218C364.66 79.7785 365.494 80.1764 366.148 80.6384C367.137 81.3572 368.228 81.755 369.588 81.755C374.914 81.8064 376.66 81.1261 378.277 80.1122C379.137 79.5732 380.112 79.124 380.959 78.5721C381.652 78.1229 382.397 77.6352 382.82 77.0576C383.308 76.3902 383.924 76.1336 384.848 76.1336C389.545 76.1721 390.893 75.864 392.125 75.1967C394.384 74.8501 395.09 73.8105 396.296 73.2972C396.707 73.1175 397.002 72.4758 396.9 72.1164C396.412 70.4223 397.939 69.2672 399.056 68.0607C399.8 67.265 401.212 66.7901 402.714 66.7388C405.986 66.6875 406.102 66.6105 406.487 65.3655C406.705 64.6981 406.91 64.4158 407.437 64.4158C411.569 64.0307 412.391 63.6714 413.148 63.2478C413.764 62.9013 414.406 62.6446 415.137 62.6446C421.028 63.0425 421.978 63.1837 422.941 63.1837C424.16 63.1837 425.392 62.9526 426.611 62.8628C427.676 62.7858 428.113 62.2724 428.036 61.4895C427.946 60.5013 427.317 59.6542 426.29 58.9997C425.058 58.2039 423.839 57.4082 422.517 56.6895C421.49 56.1248 420.489 55.5857 420.053 54.6745C417.794 53.8787 416.536 53.2242 416.01 52.1589C414.791 52.1589 413.623 52.1589 412.48 52.1589C411.685 52.1589 410.889 52.1589 410.106 52.1333C408.977 52.1333 408.361 52.4413 407.783 53.0702C407.09 53.8402 406.384 54.6745 405.037 55.1878C404.061 53.3269 401.674 53.8402 399.787 53.5322C395.988 54.2509 394.743 54.3151 393.794 55.2263C392.343 55.5344 391.791 55.3547 391.471 55.021C390.739 54.2766 390.085 53.4937 389.417 52.7236C388.955 52.1974 389.045 51.6841 389.635 51.222C390.033 50.9268 390.521 50.6701 390.829 50.3364C391.201 49.9386 391.714 49.4509 391.663 49.0402C391.458 47.5129 392.382 46.1909 393.062 44.8433C394.333 42.3791 395.732 39.9406 397.092 37.5021C397.464 36.8347 397.849 36.501 398.388 36.501C401.956 37.8871 405.011 38.0154 407.834 38.1823C409.413 37.117 410.902 36.1545 412.326 35.1405C413.161 34.5502 414.008 34.1651 415.214 34.1651C417.024 34.1651 419.013 32.8817 419.27 31.9576C419.539 30.995 419.27 30.5715 418.102 30.0196C418.153 29.1726 418.012 28.3512 418.256 27.6068C418.603 26.5543 419 25.4506 419.796 24.565C420.926 23.2944 421.58 21.9468 421.978 20.535C422.466 18.8152 423.659 17.4419 425.418 16.2355C426.098 15.7735 426.65 15.1959 427.176 14.644C427.818 13.9766 427.728 13.3221 427.086 12.6162C426.65 12.1413 426.316 11.5638 426.213 11.0119C426.098 10.3959 426.034 9.84397 425.161 9.52311C423.993 9.4076 423.582 9.72846 423.133 9.98515C421.298 9.22792 421.311 8.75305 422.312 7.89315C422.966 7.34127 423.685 6.75089 423.954 6.09633C424.288 5.3006 425.071 4.78722 425.687 4.17117C428.138 3.23426 430.038 2.57971 432.053 2.22035C434.081 1.84815 436.211 1.78398 438.008 0.885572C441.114 0.847069 441.884 0.73156 442.654 0.487707C443.668 0.154013 444.708 0 445.786 0" fill="#F8C497"/>
<path d="M350.004 299.709C350.287 299.709 350.633 299.876 351.211 300.197C351.519 300.364 351.84 300.595 352.174 300.607C353.508 300.697 353.868 301.352 353.945 302.109C354.047 302.982 354.497 304.009 353.046 304.56C350.762 305.42 349.774 306.806 349.183 308.513C348.901 309.373 348.387 310.169 348.426 311.106C348.464 311.799 347.592 312.197 346.719 312.364C345.281 312.646 344.152 313.185 343.472 314.109C343.151 314.558 342.727 314.725 342.099 314.725C342.047 314.725 341.996 314.725 341.932 314.725C341.714 314.725 341.508 314.712 341.303 314.712C340.366 314.712 339.48 314.841 338.71 315.354C338.441 315.534 337.863 315.508 337.414 315.534C336.965 315.559 336.541 315.572 336.105 315.572C332.781 315.572 329.778 314.802 327.134 313.686C326.813 312.595 326.364 311.696 326.299 310.772C326.21 309.476 326.338 308.18 326.479 306.871C326.505 306.614 326.954 306.332 327.3 306.152C328.481 305.536 329.675 304.933 330.907 304.368C331.536 304.073 332.267 303.893 333.05 303.636C332.96 303.277 332.781 302.93 332.832 302.597C332.883 302.16 333.731 301.673 334.475 301.673C334.565 301.673 334.642 301.673 334.719 301.685C334.963 301.724 335.181 301.75 335.399 301.75C336.131 301.75 336.721 301.519 337.324 301.146C337.645 300.941 338.248 300.864 338.723 300.864H338.826C339.93 300.864 341.046 300.941 342.15 300.954C342.625 300.954 343.074 300.903 343.446 300.787C344.601 300.415 345.512 300.235 346.437 300.235C347.194 300.235 347.951 300.351 348.862 300.595C349.363 299.978 349.632 299.709 349.992 299.709" fill="#F8C497"/>
<path d="M358.449 168.567C358.359 168.541 358.616 169.927 358.628 169.991C358.988 170.98 361.067 172.687 362.196 171.929C363.634 170.967 363.223 168.99 363.223 168.99C363.223 168.99 358.474 168.567 358.449 168.567Z" fill="#F3C482"/>
<path d="M417.203 201.348C417.203 201.348 416.613 200.424 416.176 199.757C415.74 199.102 414.61 198.704 414.379 198.46C414.148 198.217 414.187 198.858 414.585 199.153C415.239 199.615 415.098 199.872 415.098 199.872C415.098 199.872 414.302 199.526 413.417 199.346C412.531 199.166 412.082 199.115 411.941 199.243C411.813 199.359 411.517 199.975 412.056 200.565C412.595 201.156 413.07 201.643 413.828 201.887C414.572 202.131 416.292 203.042 416.292 203.042L417.19 201.348H417.203Z" fill="#F3C482"/>
<path d="M416.524 200.938L415.844 202.863C415.844 202.863 415.908 202.863 415.946 202.863C415.946 202.863 423.48 207.534 424.443 207.021C424.699 206.88 424.918 206.764 427.613 206.187L424.956 202.632C422.312 203.042 416.986 201.002 416.537 200.938" fill="#F3C482"/>
<path d="M423.156 197.011L423.477 199.706L427.687 198.23L426.866 195.625C425.71 196.318 422.874 197.152 423.156 197.011Z" fill="#F3C482"/>
<path d="M256.346 215.684L256.038 218.302L251.957 216.864L252.753 214.336C253.869 215.003 256.629 215.825 256.346 215.671" fill="#F3C482"/>
<path d="M297.254 154.414C297.344 154.389 297.087 155.775 297.061 155.839C296.702 156.827 294.623 158.534 293.493 157.777C292.056 156.814 292.466 154.838 292.466 154.838C292.466 154.838 297.215 154.414 297.241 154.414" fill="#F3C482"/>
<path d="M323.692 217.157C323.781 217.131 323.538 218.62 323.512 218.684C323.165 219.736 322.37 221.623 321.253 220.827C319.841 219.8 318.994 217.619 318.994 217.619C318.994 217.619 323.666 217.169 323.692 217.157Z" fill="#F3C482"/>
</svg>
