<svg width="960" height="394" viewBox="0 0 960 394" fill="none" xmlns="http://www.w3.org/2000/svg">
<path d="M918 25C930.15 25 940 34.8497 940 47V225C951.046 225 960 233.954 960 245V285C960 296.046 951.046 305 940 305V323C940 335.15 930.15 345 918 345H829.987C829.348 372.153 802.736 394 770 394C737.264 394 710.652 372.153 710.013 345H249.987C249.348 372.153 222.736 394 190 394C157.264 394 130.652 372.153 130.013 345H22C9.84974 345 2.57719e-07 335.15 0 323V47C4.12352e-06 34.8497 9.84974 25 22 25H918Z" fill="#FFF2CF"/>
<rect x="265" width="431" height="50" rx="25" fill="#ADC6DB"/>
<path d="M295.08 33.24C296.328 33.24 297.48 33.528 297.64 34.904C297.8 36.28 296.392 37.112 295.24 37.176C294.344 37.208 290.056 37.176 287.976 37.176H287.72C286.76 37.144 285.64 37.144 284.68 36.856C284.008 36.664 283.336 36.056 283.016 35.32C282.6 34.392 282.696 32.408 282.696 32.312V18.712C282.664 18.488 282.44 16.216 283.08 15.16C283.624 14.264 286.056 14.232 286.28 14.232H293.768C293.896 14.232 296.584 14.136 297 15.48C297.16 15.96 297.128 17.112 296.936 17.464C296.776 17.752 296.488 17.944 296.136 18.04C295.752 18.136 295.144 18.2 294.312 18.2C293.768 18.2 293.352 18.168 289.416 18.168C288.84 18.168 288.104 18.2 287.816 18.328C287.208 18.584 287.24 19.992 287.304 20.472V20.504L287.432 31.576C287.432 32.408 287.752 33.016 288.744 33.016C288.968 33.048 292.264 33.24 295.08 33.24ZM303.592 22.904L306.12 23.128C306.888 23.288 307.56 23.8 307.56 24.728C307.56 25.048 307.56 25.336 307.464 25.656C307.336 26.36 306.952 26.968 306.152 26.968L303.528 27C303.464 29.208 303.528 32.6 303.528 35.256C303.528 36.376 303.496 38.744 301.608 38.872C299.528 39 299.368 36.952 299.368 35.608V15.96C299.368 15.896 299.336 14.296 300.04 13.592C300.328 13.304 301 13.144 301.48 13.144C301.96 13.144 302.376 13.336 302.664 13.624C303.24 14.232 303.272 14.904 303.336 15.608C303.528 17.944 303.592 20.472 303.592 22.904ZM321.739 37.912C321.579 38.232 321.323 38.552 320.939 38.744C320.683 39 320.299 39.064 319.915 39.064C319.275 39.128 318.699 39.064 318.315 38.488C318.059 38.232 317.995 37.784 317.931 37.528C317.867 37.272 317.803 36.76 317.803 36.504V30.712H310.987C310.475 30.648 310.027 30.584 309.643 30.52C309.195 30.392 308.811 30.136 308.555 29.688C308.363 29.368 308.203 28.952 308.203 28.568C308.299 28.184 308.427 27.8 308.747 27.544C308.875 27.352 309.067 27.224 309.323 27.16C309.579 27.096 309.771 27.032 310.027 26.968C310.219 26.968 310.411 26.904 310.603 26.904H324.171V20.472C324.107 20.152 324.171 19.96 324.171 19.704C324.107 19.32 324.171 18.936 324.043 18.616C323.979 18.488 323.915 18.36 323.787 18.296C323.659 18.232 323.531 18.232 323.339 18.232C322.699 18.168 321.995 18.232 321.259 18.232H312.907C312.523 18.232 312.139 18.168 311.627 18.04C311.179 17.912 310.859 17.656 310.603 17.272C310.539 17.144 310.411 16.952 310.411 16.664C310.347 16.472 310.347 16.216 310.347 15.96C310.411 15.512 310.539 15.064 310.859 14.744C311.115 14.552 311.435 14.424 311.755 14.296C312.075 14.168 312.395 14.104 312.779 14.104C313.099 14.04 313.483 14.04 313.803 14.04H322.251C322.891 14.104 323.595 14.04 324.235 14.04C324.555 14.04 324.939 14.04 325.323 14.104C325.707 14.104 326.091 14.168 326.475 14.296C326.859 14.36 327.179 14.552 327.435 14.744C327.755 15 327.947 15.32 328.075 15.704C328.171 15.96 328.235 16.152 328.235 16.344C328.299 16.536 328.363 16.824 328.363 17.016C328.427 17.592 328.427 18.104 328.427 18.68V21.24C328.491 21.56 328.427 22.2 328.427 22.584V26.904H329.739C330.123 26.968 330.443 27.032 330.763 27.096C331.147 27.224 331.403 27.416 331.595 27.672C331.851 27.928 331.979 28.248 331.979 28.76C331.979 29.304 331.915 29.624 331.467 30.008C331.211 30.264 330.763 30.392 330.315 30.52C329.803 30.648 328.619 30.712 328.075 30.712H322.123V35.512C322.059 36.056 322.059 36.504 321.995 36.76C321.995 37.144 321.867 37.528 321.739 37.912ZM339.729 38.616C338.001 38.616 336.817 37.72 336.817 36.76V32.152C336.785 31.672 336.785 31.192 336.817 30.712C336.913 29.816 337.585 29.208 338.545 29.208C338.769 29.208 339.473 29.24 339.697 29.304C340.817 29.656 340.881 30.744 340.945 31.704C340.977 32.056 341.009 34.52 341.073 34.808C341.201 34.84 341.649 34.936 343.217 34.936C344.593 34.936 344.721 34.872 344.753 34.872H355.217C355.249 34.904 356.529 35.192 356.657 36.088C356.753 36.888 356.625 37.528 356.241 37.976C355.729 38.584 354.961 38.616 354.929 38.616H339.729ZM343.633 13.56C344.017 13.56 344.369 13.528 344.721 13.624C345.297 13.816 345.937 14.104 346.321 14.616C346.705 15.16 346.929 16.12 346.929 16.792C346.929 18.616 347.025 20.472 346.929 22.296C346.897 23.448 347.057 25.048 346.513 26.04C345.873 27.192 344.049 27.512 343.345 26.36C342.577 25.08 342.769 23.256 342.801 21.784C342.801 20.728 342.801 19.512 342.705 18.456C342.609 17.432 341.841 17.624 341.009 17.56C340.177 17.528 340.497 17.592 339.665 17.592H338.289C336.913 17.592 335.409 17.56 333.841 17.368C332.689 17.208 332.753 15.64 332.913 14.84C333.009 14.424 333.233 14.104 333.585 13.88C334.033 13.56 334.609 13.592 335.153 13.56C335.761 13.496 336.337 13.56 336.945 13.56H343.633ZM356.721 22.904H355.985V25.816C355.953 26.264 355.889 26.776 355.633 27.256C355.505 27.512 355.313 27.736 355.089 27.864C354.769 28.088 354.417 28.216 354.033 28.216C353.713 28.216 353.393 28.12 353.137 27.96C352.273 27.448 352.145 26.296 352.145 26.264V15.704C352.145 15.512 352.177 14.552 352.433 14.04C352.625 13.624 353.105 13.336 353.745 13.272C354.449 13.176 355.121 13.368 355.473 13.752C355.729 14.072 355.793 14.392 355.889 14.744C356.017 15.16 356.017 15.672 355.985 16.12V19.32C356.337 19.352 358.097 19.416 358.449 19.512C359.281 19.672 359.569 19.992 359.697 20.472C359.793 20.92 359.825 21.656 359.569 22.072C359.057 22.904 357.969 22.904 356.721 22.904ZM381.216 23.704C375.04 23.704 370.336 23.128 370.336 18.424C370.336 14.136 375.04 13.144 381.216 13.144C387.392 13.144 392.096 13.656 392.096 18.424C392.096 23.128 387.392 23.704 381.216 23.704ZM389.792 29.176C387.68 29.24 385.696 29.304 383.552 29.304C383.52 30.2 383.456 30.712 383.456 31.928C383.264 32.824 382.08 33.368 381.216 33.336C379.936 33.272 379.232 32.76 379.104 31.48C379.008 30.648 379.136 30.072 379.136 29.24C377.184 29.24 372.384 29.176 370.592 29.048C369.92 28.984 369.6 28.952 369.056 28.44C368.768 28.184 368.64 27.704 368.64 27.256C368.64 26.84 368.8 26.424 369.056 26.168C369.696 25.496 371.264 25.528 371.328 25.528H389.632C390.272 25.528 390.912 25.528 391.52 25.56C392.096 25.592 392.736 25.688 393.184 26.104C393.632 26.456 393.632 26.872 393.632 27.384C393.632 28.024 393.248 28.568 392.608 28.792C391.744 29.112 390.688 29.144 389.792 29.176ZM390.688 34.904C390.752 34.936 391.936 35.224 392.064 36.12C392.192 36.92 392.064 37.56 391.68 38.008C391.2 38.616 390.496 38.648 390.464 38.648H372.992C371.36 38.648 370.368 38.072 370.368 37.112V34.264C370.336 33.784 370.336 33.304 370.368 32.824C370.432 31.928 371.104 31.32 372 31.32C372.224 31.32 372.672 31.352 372.864 31.416C373.952 31.768 374.016 32.856 374.08 33.816C374.08 34.168 374.112 34.552 374.208 34.84C374.304 34.872 374.944 34.968 376.448 34.968C377.728 34.968 378.912 34.904 378.944 34.904H390.688ZM381.216 16.728C378.08 16.728 374.688 16.792 374.688 18.424C374.688 19.864 377.184 20.248 381.216 20.184C384.352 20.184 387.744 20.312 387.744 18.424C387.744 16.792 384.352 16.728 381.216 16.728ZM397.929 38.328C397.897 38.328 397.865 38.296 397.833 38.264C397.417 37.944 397.289 37.144 397.289 36.664C397.257 35.896 397.161 35.128 397.161 34.392C397.161 33.304 397.129 32.216 397.321 31.16C397.449 30.488 397.705 30.104 398.345 29.848C398.921 29.624 399.529 29.496 400.137 29.496H414.889C415.689 29.528 416.585 29.56 417.353 29.912C418.185 30.264 418.409 31.16 418.473 31.992C418.537 33.464 418.601 35.928 418.185 37.464C418.057 37.944 417.961 38.328 417.449 38.488C417.001 38.648 416.457 38.68 416.009 38.68L399.657 38.616C399.113 38.584 398.409 38.648 397.929 38.328ZM407.017 13.784C409.577 15.16 410.633 17.56 410.377 20.888C410.121 25.144 408.041 27.224 403.625 27.224C401.289 27.224 400.009 27.416 397.929 26.072C395.913 24.76 395.305 22.424 395.305 20.184C395.305 17.944 396.073 15.864 397.897 14.456C399.401 13.272 401.353 12.696 403.209 12.856C404.905 12.984 405.513 13.112 407.017 13.784ZM418.665 15.736V25.592C418.665 25.624 418.537 26.872 417.705 27.416C417.417 27.576 417.129 27.672 416.809 27.672C416.425 27.672 416.073 27.544 415.753 27.32C415.529 27.16 415.337 26.936 415.209 26.648C414.569 25.368 414.825 23.48 414.825 22.072C414.857 20.248 414.857 18.424 414.857 16.632V16.216C414.825 15.736 414.825 15.192 414.953 14.712C415.049 14.36 415.241 14.04 415.529 13.688C415.881 13.272 416.553 13.048 417.257 13.144C417.865 13.24 418.345 13.56 418.537 13.976C418.793 14.52 418.697 15.576 418.665 15.736ZM406.569 21.24C406.569 19.384 406.345 17.816 404.521 17.144C402.569 16.472 399.625 17.08 399.209 19.736C398.953 21.56 399.721 23.544 402.377 23.768C404.169 23.96 406.089 23.384 406.569 21.24ZM400.969 34.584C400.969 34.776 400.969 35 401.097 35.096C401.257 35.256 401.993 35.16 401.993 35.16H411.689C411.689 35.16 413.193 35.288 413.993 35.192C414.409 35.16 414.441 34.968 414.473 34.584C414.505 34.232 414.569 33.72 414.313 33.4C414.025 33.048 413.385 33.112 412.969 33.144H404.393C403.465 33.08 402.569 33.112 401.641 33.144C401.289 33.144 401.129 33.08 401.033 33.464C400.969 33.752 400.969 34.04 400.969 34.296C401.001 34.36 400.969 34.456 400.969 34.584ZM439.863 34.648C439.863 35.704 439.831 36.152 439.511 37.144C439.287 37.784 438.807 38.264 437.879 38.264C437.623 38.264 437.175 38.2 436.951 38.04C436.087 37.496 436.055 35.512 436.055 34.872V26.808L433.623 26.776C432.887 26.744 431.863 26.456 431.767 25.176C431.703 24.408 431.767 23.608 432.727 23.16C433.111 22.968 433.783 22.808 434.199 22.808H436.055V16.344C436.055 15.8 436.023 15.192 436.151 14.648C436.215 14.456 436.279 14.264 436.375 14.072C436.631 13.656 436.823 13.432 437.303 13.272C437.495 13.208 437.783 13.176 437.975 13.176C438.679 13.176 439.223 13.528 439.575 14.136C439.895 14.68 439.863 16.216 439.863 16.376C439.895 31.928 439.863 34.648 439.863 34.648ZM445.015 37.368C444.887 37.656 444.695 37.88 444.407 38.072C443.959 38.36 443.639 38.424 443.095 38.296C441.815 38.008 441.559 36.6 441.559 35.512V16.696C441.527 15.736 441.559 14.136 442.135 13.56C442.615 13.144 442.839 13.08 443.415 13.08C444.151 13.08 444.791 13.528 445.047 14.2C445.431 15.096 445.399 16.056 445.431 17.016V17.176C445.527 20.408 445.431 23.32 445.431 26.328V34.328C445.431 35.448 445.431 36.472 445.015 37.368ZM425.719 18.392C424.375 18.392 422.839 18.36 422.583 18.328C421.943 18.168 421.463 17.656 421.207 16.952C421.047 16.312 421.111 15.832 421.431 15.352C421.751 14.872 422.231 14.52 422.711 14.392C422.967 14.36 425.271 14.36 425.463 14.36H431.287C432.727 14.36 433.591 14.52 434.199 15.736C434.487 16.312 434.551 16.728 434.359 17.272C434.103 17.816 433.591 18.232 432.983 18.328C432.151 18.456 431.511 18.488 429.719 18.392C429.751 18.744 429.719 26.072 429.751 26.328C430.007 26.68 430.391 27.736 430.679 28.152C431.031 28.632 431.383 29.368 431.799 30.04C432.055 30.424 432.279 30.808 432.471 31.128C433.143 32.248 434.007 33.304 434.295 34.616C434.391 35.224 434.391 36.024 433.975 36.472C433.687 36.76 433.335 36.92 432.919 36.92C432.119 36.92 431.319 36.28 430.871 35.704C430.199 34.84 429.591 33.912 429.047 33.016C428.631 32.376 428.023 31.448 427.607 30.872C427.415 31.224 427.191 31.64 426.999 31.96C426.743 32.344 426.359 32.728 426.103 33.112C425.655 33.976 425.175 34.872 424.503 35.64C423.767 36.536 423.159 36.984 422.487 36.984C422.327 36.984 422.167 36.984 421.975 36.92C421.591 36.76 421.303 36.472 421.143 36.024C420.887 35.32 421.207 34.36 421.495 33.752C421.751 33.048 422.135 32.408 422.519 31.8C422.743 31.416 422.999 31.032 423.191 30.648C423.831 29.4 425.303 27 425.719 26.456V18.392ZM450.778 26.776C449.914 26.168 449.306 25.272 448.954 24.216C448.538 23.128 448.41 22.104 448.41 21.048C448.41 19.928 448.602 19 448.954 18.072C449.37 17.176 449.85 16.376 450.522 15.768C451.194 15.064 451.93 14.552 452.89 14.2C453.754 13.784 454.778 13.592 455.866 13.592C456.282 13.528 456.602 13.528 456.986 13.592C457.338 13.592 457.754 13.656 458.106 13.72C458.266 13.784 458.49 13.784 458.682 13.848C458.906 13.848 459.098 13.944 459.226 14.008C459.706 14.136 460.09 14.264 460.506 14.488C460.922 14.68 461.274 14.872 461.594 15.064C461.85 15.192 462.202 15.48 462.49 15.768C462.906 16.184 463.162 16.504 463.418 16.952C463.674 17.368 463.898 17.848 463.962 18.392C464.09 18.872 464.154 19.352 464.25 19.832C464.314 20.28 464.378 20.76 464.314 21.304C464.314 21.56 464.25 21.912 464.25 22.168C464.154 22.52 464.154 22.872 464.026 23.128C463.898 23.928 463.61 24.76 463.226 25.432C462.746 26.168 462.202 26.68 461.466 27.192C460.922 27.512 460.378 27.8 459.77 27.928C459.226 28.088 458.618 28.184 458.042 28.312C457.818 28.376 457.626 28.376 457.402 28.376C457.274 28.376 457.05 28.376 456.858 28.44H456.282C456.122 28.44 455.93 28.44 455.706 28.376C455.45 28.376 455.161 28.376 454.906 28.312C454.586 28.312 454.298 28.248 454.01 28.248C453.402 28.152 452.89 27.992 452.346 27.736C451.77 27.448 451.258 27.192 450.778 26.776ZM471.418 17.208V19.288C471.482 20.12 471.482 21.048 471.482 22.008V27.192C471.482 28.152 471.482 29.016 471.418 29.816V33.464C471.354 34.136 471.418 34.84 471.418 35.416C471.418 35.832 471.418 36.248 471.354 36.568C471.354 36.92 471.29 37.176 471.13 37.4C471.066 37.592 470.938 37.72 470.874 37.944C470.714 38.072 470.586 38.264 470.234 38.392C469.85 38.68 469.306 38.744 468.762 38.68C468.41 38.584 468.154 38.456 467.962 38.264C467.77 38.136 467.61 37.88 467.482 37.592C467.354 37.304 467.258 37.048 467.258 36.76C467.194 36.568 467.13 36.312 467.13 36.184V35.832L467.066 16.856C467.066 16.312 467.066 15.768 467.194 15.096C467.258 14.488 467.482 14.008 467.77 13.688C468.026 13.496 468.282 13.336 468.474 13.272C468.762 13.208 469.018 13.208 469.37 13.208C469.722 13.208 470.042 13.272 470.394 13.496C470.65 13.688 470.874 13.976 471.002 14.296C471.194 14.776 471.354 15.256 471.354 15.704C471.354 16.184 471.354 16.728 471.418 17.208ZM464.378 31.96C464.666 32.056 464.922 32.184 465.114 32.312C465.53 32.728 465.786 33.144 465.786 33.656C465.786 34.008 465.658 34.36 465.434 34.616C465.242 34.872 465.017 35.064 464.73 35.16C464.506 35.224 464.314 35.288 464.09 35.288C463.833 35.352 463.61 35.352 463.418 35.352H460.378C459.642 35.352 458.906 35.352 458.106 35.416H455.866C455.098 35.352 454.522 35.352 453.946 35.352H450.586C450.17 35.352 449.786 35.288 449.37 35.224C449.146 35.16 448.954 35.064 448.762 35C448.538 34.936 448.41 34.872 448.218 34.712C447.962 34.424 447.802 34.072 447.802 33.528C447.802 33.08 447.962 32.728 448.218 32.44C448.346 32.248 448.538 32.12 448.826 32.056C449.082 31.96 449.37 31.896 449.562 31.832C449.85 31.768 450.01 31.768 450.17 31.768H462.266C462.682 31.768 463.097 31.768 463.418 31.832C463.77 31.832 464.026 31.896 464.378 31.96ZM452.666 20.472C452.602 20.888 452.602 21.304 452.666 21.752C452.762 22.232 452.89 22.648 453.082 23C453.53 23.672 454.17 24.152 454.97 24.472C455.578 24.696 456.186 24.76 456.794 24.76C457.146 24.696 457.402 24.696 457.754 24.632C458.042 24.632 458.33 24.472 458.618 24.344C459.034 24.152 459.386 23.8 459.642 23.384C459.93 22.936 460.026 22.52 460.154 22.04C460.314 21.304 460.25 20.696 460.026 19.992C459.93 19.704 459.77 19.416 459.642 19.192C459.514 19.064 459.45 18.872 459.29 18.808C459.226 18.648 459.098 18.52 458.906 18.392C458.746 18.296 458.554 18.2 458.394 18.136C458.234 18.008 458.042 17.944 457.818 17.848C457.274 17.72 456.73 17.656 456.122 17.656C455.578 17.656 455.034 17.72 454.586 17.944C454.106 18.136 453.69 18.392 453.338 18.872C453.018 19.288 452.826 19.832 452.666 20.472ZM493.34 21.464V17.208C493.34 16.344 493.34 13.752 495.356 13.752C495.772 13.752 496.22 13.88 496.54 14.104C497.564 14.776 497.532 18.008 497.468 19.384V31.128C497.468 31.384 497.5 34.68 496.796 35.96C496.668 36.248 496.316 36.632 496.188 36.76C495.548 37.4 494.364 37.464 494.076 37.496H487.356C486.332 37.496 485.404 37.4 484.636 36.792C483.516 35.96 483.644 33.912 483.644 33.624V16.888C483.644 15.672 484.188 13.816 485.692 13.816C486.78 13.816 487.452 14.264 487.772 15.192C487.964 15.768 487.996 16.408 488.028 16.984V17.048C488.028 17.656 488.028 22.072 488.06 23.096C488.476 23.096 492.188 23.16 493.276 22.936L493.34 21.464ZM501.948 27.416C501.372 27.32 500.764 27.32 500.188 27.256C498.716 27.16 497.724 26.072 498.172 24.44C498.268 24.12 498.588 23.672 498.844 23.448C499.1 23.256 499.388 23.096 499.74 23.032C500.412 22.936 501.212 23.032 501.916 22.968H502.012V22.84C502.044 21.784 502.044 21.656 502.012 20.568C502.012 19.48 501.98 18.36 502.012 17.304V16.856C502.012 15.736 502.012 14.072 502.78 13.304C503.068 13.048 503.388 12.888 503.804 12.888H503.868C505.948 12.984 506.172 15.48 506.172 16.824V36.024C506.172 36.088 506.236 37.72 505.5 38.392C505.212 38.68 504.54 38.872 504.092 38.872C503.612 38.872 503.164 38.68 502.876 38.36C502.332 37.784 502.268 37.112 502.204 36.408C502.204 36.28 502.172 36.152 502.172 35.992C502.108 35.32 502.108 34.52 502.076 33.752C502.044 33.272 502.044 32.824 502.044 32.376V31.64C502.044 30.744 502.012 29.016 502.012 28.12C502.012 27.896 502.044 27.608 501.948 27.416ZM487.772 33.624L493.34 33.592L493.308 26.968L487.772 27C487.74 27.896 487.772 29.432 487.772 30.328C487.804 30.968 487.772 33.016 487.772 33.624ZM520.607 23.416L516.223 27.448C515.263 28.088 514.367 29.336 513.023 29.72C512.255 29.912 511.231 29.656 510.751 29.016C510.079 28.024 510.847 26.904 511.487 26.136C512.766 24.664 514.111 23.32 515.551 22.04C516.479 21.24 518.111 19.128 518.111 19.128C518.111 19.128 518.111 17.112 518.271 15.896C518.367 15.128 518.687 14.392 519.039 14.04C519.583 13.528 520.703 13.4 521.375 13.592C522.367 13.88 522.751 14.648 522.847 15.64C522.943 16.44 522.879 18.552 523.359 19.224C523.711 19.736 523.999 20.216 524.415 20.664C525.887 22.328 527.327 24.056 528.863 25.656C529.855 26.712 531.007 28.888 529.215 29.752C527.967 30.36 526.783 29.368 525.983 28.504L520.607 23.416ZM511.455 36.696C510.111 36.568 508.703 36.28 508.703 34.616C508.703 34.168 508.863 33.784 509.118 33.496C509.791 32.824 511.359 32.856 511.423 32.856L528.927 32.888C530.015 32.888 530.975 32.76 531.679 33.368C532.095 33.752 532.351 34.232 532.351 34.744C532.351 35.384 531.935 35.96 531.295 36.184C530.431 36.504 529.503 36.632 528.607 36.664C525.503 36.792 522.431 36.696 519.583 36.696C516.51 36.696 513.375 36.792 511.455 36.696ZM542.92 34.296C542.92 30.68 547.624 29.816 553.384 29.816C559.176 29.816 563.88 30.264 563.88 34.296C563.88 38.264 559.176 38.776 553.384 38.776C547.624 38.776 542.92 38.264 542.92 34.296ZM548.68 21.752C547.88 22.296 547.176 23.064 546.056 23.288C545.288 23.448 544.456 23.736 543.816 22.776C543.112 21.752 543.88 21.016 544.52 20.408C545.8 19.256 547.208 17.912 548.648 16.92C549.576 16.312 551.432 14.584 551.432 14.584C551.432 14.584 551.144 13.016 552.04 12.312C552.584 11.928 553.704 11.8 554.376 11.96C555.368 12.216 555.56 12.792 555.688 13.56C555.752 14.2 555.88 14.744 556.36 15.288C556.712 15.672 557.32 16.056 557.736 16.408C559.208 17.688 560.616 18.712 562.152 19.992C563.144 20.792 563.752 22.584 562.504 23.256C561.256 23.736 560.072 22.968 559.272 22.264C558.408 21.624 557.16 20.984 556.36 20.248L553.512 18.2C553.512 18.2 551.944 19.416 551.784 19.544C550.856 20.248 549.704 21.048 548.68 21.752ZM544.232 24.952C546.344 25.016 550.728 24.952 553.192 24.952C555.88 24.952 559.048 24.888 561.928 24.952H562.088C563.56 24.952 565.608 24.472 565.608 26.776C565.608 27.256 565.384 27.608 564.968 27.992C564.296 28.568 563.24 28.536 562.376 28.504C562.184 28.472 561.992 28.472 544.168 28.472C544.104 28.472 542.632 28.504 542.024 27.864C541.768 27.576 541.64 27.288 541.64 26.872C541.64 26.424 541.8 26.168 542.056 25.912C542.6 25.4 543.208 25.016 543.848 24.952C543.976 24.952 544.104 24.984 544.232 24.952ZM559.656 34.296C559.656 32.92 556.328 32.952 553.384 32.952C550.472 32.952 547.336 32.92 547.336 34.296C547.336 35.512 550.472 35.64 553.384 35.64C556.328 35.64 559.656 35.896 559.656 34.296ZM575.082 20.856C581.962 21.112 582.282 30.648 579.69 35.256C577.802 38.584 572.394 38.776 569.834 36.024C568.746 34.84 568.362 33.56 568.138 31.992C567.69 28.856 567.466 26.104 569.162 23.256C570.09 21.656 572.746 20.76 575.082 20.856ZM589.994 23.192H590.058C590.25 23.192 590.442 23.256 590.666 23.256C590.89 23.288 591.146 23.32 591.402 23.352C591.882 23.448 592.394 23.64 592.618 24.12C592.778 24.376 592.842 24.664 592.842 24.952C592.842 25.272 592.842 25.56 592.746 25.88C592.682 26.2 592.586 26.648 592.298 26.872C592.042 27.064 591.754 27.224 591.434 27.288C590.762 27.384 589.61 27.288 588.938 27.32C588.874 27.32 588.842 27.352 588.842 27.352C588.842 27.352 588.81 27.352 588.81 27.48C588.778 28.536 588.81 30.136 588.81 31.224C588.842 32.312 588.842 33.432 588.81 34.488V34.936C588.81 36.056 588.81 37.688 588.042 38.456C587.786 38.744 587.434 38.904 587.018 38.904C587.018 38.904 586.986 38.872 586.954 38.872C584.874 38.808 584.65 36.312 584.65 34.968V15.96C584.65 15.896 584.618 14.296 585.322 13.592C585.61 13.304 586.282 13.144 586.762 13.144C587.242 13.144 587.658 13.336 587.946 13.624C588.522 14.232 588.554 14.904 588.618 15.608C588.65 15.736 588.65 15.864 588.65 15.992C588.746 16.696 588.746 17.496 588.778 18.264C588.778 18.744 588.81 19.16 588.81 19.64C588.778 19.896 588.81 20.12 588.81 20.344V22.424C588.81 22.648 588.81 22.904 588.874 23.128C588.874 23.16 589.514 23.16 589.546 23.16C589.706 23.192 589.834 23.224 589.994 23.192ZM579.562 15.736C580.394 15.736 581.386 15.928 581.834 16.76C582.122 17.304 582.026 18.296 581.61 18.84C580.778 19.896 577.578 19.544 577.002 19.576C576.682 19.608 576.362 19.608 575.978 19.608H574.954C574.634 19.576 574.314 19.576 573.962 19.576L570.186 19.512C568.01 19.512 567.178 18.968 567.018 17.784C566.922 17.144 567.114 16.632 567.498 16.28C568.074 15.768 568.394 15.704 569.034 15.704C569.194 15.704 569.386 15.736 569.546 15.736H570.346C570.954 15.736 571.85 15.704 572.458 15.672C572.49 15.352 572.522 14.264 572.554 13.976C572.586 13.624 572.714 13.272 572.906 12.984C573.322 12.408 573.93 12.088 574.57 12.12C575.178 12.184 575.818 12.216 576.202 12.728C576.682 13.4 576.49 14.776 576.586 15.704H577.514C577.866 15.704 578.666 15.736 578.986 15.736H579.562ZM574.954 34.392C576.874 34.104 577.61 31.704 577.578 29.976C577.546 28.504 577.482 26.168 576.17 25.272C575.018 24.504 572.618 24.856 572.01 26.2C571.21 27.928 571.274 29.688 571.658 31.512C571.85 32.44 572.202 33.592 573.002 34.136C573.354 34.36 574.602 34.456 574.954 34.392ZM598.957 28.024C599.213 27.768 599.469 27.32 599.597 27.192V19.96C599.405 20.024 599.213 19.96 599.021 19.96H598.157C596.653 19.96 595.469 19.896 595.181 19.832C594.413 19.672 593.868 19.288 593.613 18.52C593.549 18.232 593.485 17.976 593.549 17.656C593.549 17.4 593.677 17.144 593.868 16.856C593.997 16.664 594.285 16.472 594.541 16.344C594.797 16.152 595.053 16.088 595.309 16.024H599.533C599.533 15.544 599.597 14.52 599.597 14.136C599.693 13.592 599.885 13.144 600.077 12.76C600.333 12.344 600.717 12.088 601.197 11.96C601.645 11.768 602.157 11.832 602.637 12.024C602.957 12.152 603.277 12.408 603.405 12.696C603.629 12.952 603.821 13.272 603.885 13.592C603.949 13.944 604.013 14.328 604.013 14.712V16.024H605.965C606.829 16.024 607.757 16.088 608.365 16.152C608.941 16.28 609.485 16.6 609.805 17.144C609.997 17.464 610.061 17.72 610.061 18.04C610.125 18.296 610.061 18.584 609.933 18.84C609.677 19.352 609.165 19.672 608.429 19.832C607.981 19.896 607.373 19.896 606.733 19.96C606.061 19.96 605.069 20.024 604.013 19.96C604.013 20.664 603.949 21.912 604.013 22.424V25.944C604.013 26.136 603.949 26.328 604.013 26.584V27.096C604.205 27.256 604.397 27.576 604.717 27.896C605.005 28.152 605.197 28.408 605.389 28.632C605.581 28.888 605.773 29.144 606.029 29.4C606.253 29.592 606.445 29.944 606.701 30.2C606.829 30.392 606.957 30.584 607.085 30.712C607.213 30.904 607.341 31.128 607.405 31.256C607.821 31.768 608.205 32.28 608.589 32.952C609.069 33.528 609.325 34.2 609.453 34.776C609.517 35.064 609.517 35.384 609.453 35.704C609.389 36.024 609.26 36.28 609.005 36.568C608.717 36.824 608.333 36.952 607.821 36.952C607.341 36.952 606.957 36.824 606.509 36.632C606.093 36.376 605.773 36.088 605.453 35.832C605.069 35.448 604.717 34.968 604.397 34.584C604.077 34.2 603.757 33.752 603.405 33.272C603.149 33.016 602.893 32.696 602.637 32.344C602.381 31.96 602.029 31.704 601.773 31.448C601.517 31.768 601.26 32.088 601.005 32.44C600.717 32.76 600.461 33.08 600.205 33.4C599.949 33.816 599.597 34.264 599.277 34.648C599.021 35.064 598.701 35.512 598.285 35.896C597.453 36.76 596.717 37.016 595.949 37.016C595.757 37.016 595.533 37.016 595.341 36.952C594.893 36.824 594.573 36.568 594.349 36.088C594.221 35.768 594.157 35.448 594.221 35.064C594.285 34.648 594.349 34.264 594.573 34.008C594.701 33.656 594.893 33.336 595.085 33.016C595.277 32.76 595.469 32.44 595.757 32.152C595.885 32.024 596.013 31.832 596.141 31.704L596.525 31.128C596.653 30.84 596.781 30.712 597.133 30.264C597.453 29.88 597.773 29.464 598.029 29.144C598.381 28.76 598.701 28.344 598.957 28.024ZM616.845 22.904H616.909C617.101 22.904 617.293 22.968 617.517 22.968C617.741 23 617.997 23.032 618.253 23.064C618.733 23.16 619.245 23.352 619.469 23.832C619.629 24.088 619.693 24.376 619.693 24.664C619.693 24.984 619.693 25.272 619.597 25.592C619.533 25.912 619.437 26.36 619.149 26.584C618.893 26.776 618.605 26.936 618.285 27C617.613 27.096 616.461 27 615.789 27.032C615.725 27.032 615.693 27.064 615.693 27.064C615.693 27.064 615.661 27.064 615.661 27.192C615.629 28.248 615.661 30.136 615.661 31.224C615.693 32.312 615.693 33.432 615.661 34.488V34.936C615.661 36.056 615.661 37.688 614.893 38.456C614.637 38.744 614.285 38.904 613.869 38.904C613.869 38.904 613.837 38.872 613.805 38.872C611.725 38.808 611.501 36.312 611.501 34.968V15.96C611.501 15.896 611.469 14.296 612.173 13.592C612.461 13.304 613.133 13.144 613.613 13.144C614.093 13.144 614.509 13.336 614.797 13.624C615.373 14.232 615.405 14.904 615.469 15.608C615.501 15.736 615.501 15.864 615.501 15.992C615.597 16.696 615.597 17.496 615.629 18.264C615.629 18.744 615.661 19.16 615.661 19.64C615.629 19.896 615.661 20.12 615.661 20.344V22.136C615.661 22.36 615.661 22.616 615.725 22.84C615.725 22.872 616.365 22.872 616.397 22.872C616.557 22.904 616.685 22.936 616.845 22.904ZM649.636 28.536C647.524 28.6 645.54 28.664 643.396 28.664C643.364 29.56 643.3 30.072 643.3 31.288C643.108 32.184 641.924 32.728 641.06 32.696C639.78 32.632 639.076 32.12 638.948 30.84C638.852 30.008 638.98 29.432 638.98 28.6C637.028 28.6 632.228 28.536 630.436 28.408C629.764 28.344 629.444 28.312 628.9 27.8C628.612 27.544 628.484 27.064 628.484 26.616C628.484 26.2 628.644 25.784 628.9 25.528C629.54 24.856 631.108 24.888 631.172 24.888H649.476C650.116 24.888 650.756 24.888 651.364 24.92C651.94 24.952 652.58 25.048 653.028 25.464C653.476 25.816 653.476 26.232 653.476 26.744C653.476 27.384 653.092 27.928 652.452 28.152C651.588 28.472 650.532 28.504 649.636 28.536ZM636.132 21.752C635.332 22.296 634.628 23.064 633.508 23.288C632.74 23.448 631.908 23.736 631.268 22.776C630.564 21.752 631.332 21.016 631.972 20.408C633.252 19.256 634.66 17.912 636.1 16.92C637.028 16.312 638.884 14.584 638.884 14.584C638.884 14.584 638.596 13.016 639.492 12.312C640.036 11.928 641.156 11.8 641.828 11.96C642.82 12.216 643.012 12.792 643.14 13.56C643.204 14.2 643.332 14.744 643.812 15.288C644.164 15.672 644.772 16.056 645.188 16.408C646.66 17.688 648.068 18.712 649.604 19.992C650.596 20.792 651.204 22.584 649.956 23.256C648.708 23.736 647.524 22.968 646.724 22.264C645.86 21.624 644.612 20.984 643.812 20.248L640.964 18.2C640.964 18.2 639.396 19.416 639.236 19.544C638.308 20.248 637.156 21.048 636.132 21.752ZM650.532 34.904C650.596 34.936 651.78 35.224 651.908 36.12C652.036 36.92 651.908 37.56 651.524 38.008C651.044 38.616 650.34 38.648 650.308 38.648H632.836C631.204 38.648 630.212 38.072 630.212 37.112V33.944C630.18 33.464 630.18 32.984 630.212 32.504C630.276 31.608 630.948 31 631.844 31C632.068 31 632.516 31.032 632.708 31.096C633.796 31.448 633.86 32.536 633.924 33.496C633.924 33.848 633.956 34.552 634.052 34.84C634.148 34.872 634.788 34.968 636.292 34.968C637.572 34.968 638.756 34.904 638.788 34.904H650.532ZM660.493 24.12V18.008C660.493 17.368 660.493 16.792 660.621 16.152C660.813 14.968 661.197 14.136 662.669 14.072C662.797 14.072 663.405 14.136 663.597 14.2C664.621 14.648 664.717 16.024 664.781 16.856C664.877 17.816 664.781 18.584 664.781 19.544C664.877 20.696 664.781 21.848 664.781 23.032C664.781 23.8 664.877 24.632 664.941 25.4C665.005 26.488 665.613 27.448 666.189 28.344C666.765 29.464 667.725 30.872 668.301 31.896C668.621 32.472 669.005 33.048 669.261 33.624C669.581 34.328 669.901 35.224 669.581 35.96C669.389 36.408 668.813 36.792 668.301 36.856C667.661 36.92 667.277 36.728 666.829 36.28C665.997 35.448 664.909 34.136 664.173 33.176C664.045 32.984 662.573 31 662.509 31C662.445 31.064 662.381 31.192 662.253 31.32C660.909 32.792 659.949 34.456 658.541 35.896C658.221 36.216 657.805 36.472 657.357 36.6C657.165 36.664 656.973 36.728 656.717 36.728C656.269 36.728 655.821 36.536 655.501 36.152C655.117 35.832 654.925 35.384 654.925 34.84C654.989 34.456 655.053 34.136 655.245 33.816C656.205 31.96 657.421 30.232 658.669 28.472C658.989 27.96 659.213 27.448 659.533 27C659.661 26.808 659.853 26.552 659.981 26.296C660.109 26.104 660.237 25.912 660.301 25.72C660.365 25.528 660.429 25.336 660.429 25.144C660.493 24.76 660.493 24.44 660.493 24.12ZM668.301 23.128C668.429 23 668.557 22.808 668.685 22.744C668.941 22.552 669.197 22.36 669.517 22.296C669.965 22.232 672.077 22.232 673.325 22.296L673.261 19.096C673.197 18.584 673.197 18.2 673.261 17.688V16.216C673.261 15.896 673.325 15.544 673.325 15.224C673.389 14.904 673.453 14.648 673.581 14.328C673.645 14.072 673.773 13.816 673.965 13.624C674.605 13.048 675.885 12.92 676.589 13.624C677.357 14.392 677.229 15.96 677.229 17.048V36.504C677.229 36.696 677.229 36.888 677.165 37.144C677.165 37.4 677.101 37.656 676.973 37.912C676.909 38.168 676.781 38.296 676.589 38.488C676.013 39 674.605 39.128 674.029 38.488C673.261 37.656 673.261 36.76 673.261 35.704V31.864C673.261 31.48 673.261 31.032 673.197 30.584L673.261 26.52C673.005 26.456 671.373 26.52 671.117 26.456C670.797 26.456 670.541 26.456 670.221 26.392C669.901 26.392 669.581 26.328 669.261 26.136C668.941 26.008 668.685 25.816 668.429 25.624C668.237 25.368 668.045 25.112 667.981 24.792C667.917 24.472 667.917 24.088 667.981 23.704C668.045 23.512 668.109 23.32 668.301 23.128Z" fill="#1E1E1E"/>
</svg>
