<svg width="59" height="102" viewBox="0 0 59 102" fill="none" xmlns="http://www.w3.org/2000/svg">
<mask id="mask0_30_42483" style="mask-type:luminance" maskUnits="userSpaceOnUse" x="0" y="0" width="59" height="102">
<path d="M59 0H0V102H59V0Z" fill="white"/>
</mask>
<g mask="url(#mask0_30_42483)">
<path d="M45.6327 81.7515C45.4844 81.7515 45.3574 81.7515 45.2303 81.7303C43.1763 81.5186 41.673 79.6552 41.9059 77.6011C42.4141 72.8155 38.9836 65.8699 37.6072 63.5829C36.5272 61.8042 37.1201 59.496 38.8777 58.4372C40.6564 57.3785 42.9647 57.929 44.0234 59.7078C44.6587 60.7666 50.2278 70.2744 49.3596 78.4058C49.1478 80.3328 47.5173 81.7515 45.6327 81.7515Z" fill="#3E3A39"/>
<mask id="mask1_30_42483" style="mask-type:luminance" maskUnits="userSpaceOnUse" x="39" y="56" width="10" height="14">
<path d="M41.1433 56.6738C41.1433 56.6738 44.3409 58.4102 45.442 60.6972C46.5431 62.9841 48.1948 67.3674 48.1948 67.3674C48.1948 67.3674 43.0703 68.7439 42.3503 69.0191C41.6092 69.2944 39.7034 57.6056 39.7034 57.6056L41.1645 56.695L41.1433 56.6738Z" fill="white"/>
</mask>
<g mask="url(#mask1_30_42483)">
<mask id="mask2_30_42483" style="mask-type:luminance" maskUnits="userSpaceOnUse" x="37" y="61" width="20" height="22">
<path d="M56.9614 61.3105H37.734V82.2108H56.9614V61.3105Z" fill="white"/>
</mask>
<g mask="url(#mask2_30_42483)">
<mask id="mask3_30_42483" style="mask-type:luminance" maskUnits="userSpaceOnUse" x="37" y="61" width="20" height="22">
<path d="M56.9612 61.3145H37.7338V82.2147H56.9612V61.3145Z" fill="white"/>
</mask>
<g mask="url(#mask3_30_42483)">
<path d="M53.3826 65.5918H41.3337V77.9795H53.3826V65.5918Z" fill="#9DB85E"/>
<path d="M45.9075 68.2188H43.9806V69.5316H45.9075V68.2188Z" fill="#E8D598"/>
<path d="M45.1242 67.3086H43.1973V68.6215H45.1242V67.3086Z" fill="#E8D598"/>
<path d="M43.7688 65.5918H31.72V77.9795H43.7688V65.5918Z" fill="#9DB85E"/>
<path d="M58.1893 55.1309H46.1404V67.5186H58.1893V55.1309Z" fill="#9DB85E"/>
<path d="M48.5755 55.1309H36.5266V67.5186H48.5755V55.1309Z" fill="#9DB85E"/>
<path d="M48.1523 63.5625H46.2254V64.8754H48.1523V63.5625Z" fill="#4CA03A"/>
<path d="M44.4888 63.7695H42.5619V65.0824H44.4888V63.7695Z" fill="#4CA03A"/>
<path d="M46.31 62.6523H44.3831V63.9652H46.31V62.6523Z" fill="#4CA03A"/>
</g>
</g>
<mask id="mask4_30_42483" style="mask-type:luminance" maskUnits="userSpaceOnUse" x="37" y="40" width="20" height="22">
<path d="M56.9614 40.4141H37.7339V61.3143H56.9614V40.4141Z" fill="white"/>
</mask>
<g mask="url(#mask4_30_42483)">
<mask id="mask5_30_42483" style="mask-type:luminance" maskUnits="userSpaceOnUse" x="37" y="40" width="20" height="22">
<path d="M56.9612 40.4121H37.7338V61.3124H56.9612V40.4121Z" fill="white"/>
</mask>
<g mask="url(#mask5_30_42483)">
<path d="M58.1893 55.127H46.1404V67.5147H58.1893V55.127Z" fill="#9DB85E"/>
<path d="M49.9309 56.8438H48.0038V58.1567H49.9309V56.8438Z" fill="#E8D598"/>
<path d="M48.4908 58.623H46.5638V59.9359H48.4908V58.623Z" fill="#E8D598"/>
<path d="M48.5754 55.127H36.5266V67.5147H48.5754V55.127Z" fill="#9DB85E"/>
<path d="M43.917 58.75H40.9313V60.3593H43.917V58.75Z" fill="#61677C"/>
<path d="M42.3713 59.7012H39.3856V61.3105H42.3713V59.7012Z" fill="#61677C"/>
<path d="M45.6748 59.6406H42.6891V61.25H45.6748V59.6406Z" fill="#61677C"/>
<path d="M41.1006 57.7539H39.1736V59.0668H41.1006V57.7539Z" fill="#E8D598"/>
<path d="M40.2963 56.8438H38.3693V58.1567H40.2963V56.8438Z" fill="#E8D598"/>
<path d="M53.3825 44.666H41.3336V57.0537H53.3825V44.666Z" fill="#9DB85E"/>
<path d="M43.7687 44.666H31.72V57.0537H43.7687V44.666Z" fill="#9DB85E"/>
</g>
</g>
</g>
<path d="M42.2658 69.9145L41.8635 69.7027C41.5035 69.491 40.7623 69.0674 38.8989 57.7174L38.8142 57.188L41.1223 55.748L41.5458 55.981C41.694 56.0657 44.9762 57.8656 46.1833 60.3643C47.2844 62.6513 48.8937 66.9288 48.9572 67.0982L49.2749 67.924L48.4067 68.1569C46.3738 68.7075 43.134 69.5757 42.6258 69.7874L42.2658 69.9145ZM40.5718 57.9926C41.2706 62.1854 42.16 66.6323 42.6682 68.051C43.7693 67.7122 45.908 67.1405 47.115 66.8017C46.5856 65.4253 45.5056 62.6513 44.7221 61.0207C43.9598 59.4537 42.0117 58.1197 41.1647 57.5903L40.5718 57.9503V57.9926Z" fill="#3E3A39"/>
<path d="M39.6401 71.0594L39.0683 68.0737C39.0048 67.7772 39.2166 67.4808 39.513 67.4173L48.1315 65.7867C48.428 65.7232 48.7244 65.935 48.7879 66.2314L49.3384 69.2172C49.4019 69.5136 49.1902 69.8101 48.8938 69.8736L40.2753 71.5041C39.9789 71.5676 39.6824 71.3559 39.6189 71.0594" fill="#CBD7A6"/>
<path d="M40.1906 72.331C39.9153 72.331 39.6611 72.2462 39.4282 72.098C39.1318 71.8862 38.9201 71.5686 38.8566 71.2086L38.2848 68.2229C38.1577 67.4818 38.6448 66.7618 39.3859 66.6135L48.0043 64.9831C48.7242 64.856 49.4654 65.343 49.6136 66.063L50.1854 69.0699C50.2489 69.4299 50.1855 69.7898 49.9737 70.0863C49.762 70.3828 49.4442 70.5946 49.0843 70.6581L40.4658 72.2886C40.4658 72.2886 40.2964 72.3098 40.2117 72.3098L40.1906 72.331ZM39.9153 68.1594L40.4023 70.7428L48.5337 69.1334L48.0679 66.6135L39.9364 68.1382L39.9153 68.1594Z" fill="#3E3A39"/>
<path d="M28.6712 91.0489V98.5027C28.6712 99.5826 27.8029 100.472 26.7018 100.472H15.9023C14.293 100.472 13.4671 98.5239 14.6106 97.3804C15.9023 96.0887 17.914 94.8605 20.815 94.7546V89.7148" fill="#4C4948"/>
<path d="M26.7018 101.255H15.9023C14.8435 101.255 13.8906 100.62 13.4671 99.6244C13.0647 98.6292 13.2765 97.5492 14.0389 96.7869C15.6482 95.1775 17.7022 94.2246 20.0104 93.9705V89.6719H21.6197V95.4951H20.8362C18.5916 95.601 16.6857 96.4057 15.1823 97.9304C14.7588 98.3539 14.9071 98.8621 14.9706 99.0103C15.0341 99.1585 15.267 99.6456 15.9023 99.6456H26.7018C27.337 99.6456 27.8453 99.1374 27.8453 98.5021V91.0483H29.4547V98.5021C29.4547 100.027 28.2054 101.276 26.6807 101.276L26.7018 101.255Z" fill="#3E3A39"/>
<path d="M31.9744 89.6923V95.8544L31.6991 98.9249C31.6144 99.9201 32.3979 100.788 33.3932 100.788H39.3859C40.5717 100.788 41.3974 99.6025 40.9951 98.5014L39.7034 94.965V89.3535L31.9744 89.6923Z" fill="#4C4948"/>
<path d="M39.3859 101.594H33.3932C32.6944 101.594 32.0168 101.298 31.5297 100.768C31.0639 100.239 30.8098 99.5403 30.8733 98.8415L31.1486 95.771V88.9102L40.4869 88.5078V94.8181L41.7363 98.2062C42.0116 98.9685 41.9057 99.8368 41.4399 100.514C40.974 101.192 40.1905 101.594 39.3647 101.594H39.3859ZM32.7791 90.456V95.8557L32.5038 98.9897C32.4827 99.2438 32.5673 99.4979 32.7367 99.6885C32.9061 99.8791 33.1391 99.985 33.3932 99.985H39.3859C39.6824 99.985 39.9576 99.8367 40.127 99.6038C40.2964 99.3497 40.3387 99.0532 40.2328 98.778L38.8988 94.9663V90.2018L32.7791 90.456Z" fill="#3E3A39"/>
<mask id="mask6_30_42483" style="mask-type:luminance" maskUnits="userSpaceOnUse" x="18" y="74" width="12" height="19">
<path d="M24.1182 92.8238C21.0265 92.8238 18.5066 91.3415 18.5066 88.2499V80.4573C18.5066 77.3656 21.0265 74.8457 24.1182 74.8457C27.2098 74.8457 29.7297 77.3656 29.7297 80.4573V88.2499C29.7297 91.3415 27.2098 92.8238 24.1182 92.8238Z" fill="white"/>
</mask>
<g mask="url(#mask6_30_42483)">
<mask id="mask7_30_42483" style="mask-type:luminance" maskUnits="userSpaceOnUse" x="18" y="82" width="20" height="22">
<path d="M37.7338 82.2363H18.5064V103.137H37.7338V82.2363Z" fill="white"/>
</mask>
<g mask="url(#mask7_30_42483)">
<mask id="mask8_30_42483" style="mask-type:luminance" maskUnits="userSpaceOnUse" x="18" y="82" width="20" height="22">
<path d="M37.7337 82.2402H18.5063V103.14H37.7337V82.2402Z" fill="white"/>
</mask>
<g mask="url(#mask8_30_42483)">
<path d="M34.1547 86.4961H22.1058V98.8838H34.1547V86.4961Z" fill="#9DB85E"/>
<path d="M29.475 90.1191H26.4893V91.7284H29.475V90.1191Z" fill="#61677C"/>
<path d="M27.9505 91.0684H24.9648V92.6777H27.9505V91.0684Z" fill="#61677C"/>
<path d="M31.2327 91.0059H28.247V92.6152H31.2327V91.0059Z" fill="#61677C"/>
<path d="M26.6586 89.123H24.7316V90.4359H26.6586V89.123Z" fill="#E8D598"/>
<path d="M25.8754 88.2129H23.9484V89.5258H25.8754V88.2129Z" fill="#E8D598"/>
<path d="M24.4563 89.9863H22.5294V91.2992H24.4563V89.9863Z" fill="#E8D598"/>
<path d="M24.52 86.4961H12.4711V98.8838H24.52V86.4961Z" fill="#9DB85E"/>
<path d="M19.8612 90.1191H16.8755V91.7284H19.8612V90.1191Z" fill="#61677C"/>
<path d="M21.619 91.0059H18.6332V92.6152H21.619V91.0059Z" fill="#61677C"/>
<path d="M38.9615 76.0352H26.9127V88.4228H38.9615V76.0352Z" fill="#9DB85E"/>
<path d="M29.3269 76.0352H17.278V88.4228H29.3269V76.0352Z" fill="#9DB85E"/>
<path d="M28.9033 84.4629H26.9763V85.7758H28.9033V84.4629Z" fill="#4CA03A"/>
<path d="M25.261 84.6738H23.3341V85.9867H25.261V84.6738Z" fill="#4CA03A"/>
<path d="M27.0823 83.5547H25.1553V84.8676H27.0823V83.5547Z" fill="#4CA03A"/>
<path d="M19.7132 76.0352H7.66431V88.4228H19.7132V76.0352Z" fill="#9DB85E"/>
<path d="M19.2894 84.4629H17.3625V85.7758H19.2894V84.4629Z" fill="#4CA03A"/>
</g>
</g>
<mask id="mask9_30_42483" style="mask-type:luminance" maskUnits="userSpaceOnUse" x="18" y="61" width="20" height="22">
<path d="M37.7339 61.3145H18.5065V82.2147H37.7339V61.3145Z" fill="white"/>
</mask>
<g mask="url(#mask9_30_42483)">
<mask id="mask10_30_42483" style="mask-type:luminance" maskUnits="userSpaceOnUse" x="18" y="61" width="20" height="22">
<path d="M37.7338 61.3223H18.5063V82.2225H37.7338V61.3223Z" fill="white"/>
</mask>
<g mask="url(#mask10_30_42483)">
<path d="M38.9618 76.0352H26.913V88.4228H38.9618V76.0352Z" fill="#9DB85E"/>
<path d="M31.4656 78.6797H29.5386V79.9926H31.4656V78.6797Z" fill="#E8D598"/>
<path d="M30.6823 77.7715H28.7554V79.0844H30.6823V77.7715Z" fill="#E8D598"/>
<path d="M29.2635 79.5312H27.3365V80.8441H29.2635V79.5312Z" fill="#E8D598"/>
<path d="M29.3271 76.0352H17.2783V88.4228H29.3271V76.0352Z" fill="#9DB85E"/>
<path d="M24.6684 79.6582H21.6826V81.2675H24.6684V79.6582Z" fill="#61677C"/>
<path d="M23.1437 80.6094H20.158V82.2187H23.1437V80.6094Z" fill="#61677C"/>
<path d="M26.4262 80.5488H23.4404V82.1582H26.4262V80.5488Z" fill="#61677C"/>
<path d="M21.8521 78.6797H19.9252V79.9926H21.8521V78.6797Z" fill="#E8D598"/>
<path d="M21.0686 77.7715H19.1417V79.0844H21.0686V77.7715Z" fill="#E8D598"/>
<path d="M19.6286 79.5312H17.7016V80.8441H19.6286V79.5312Z" fill="#E8D598"/>
<path d="M19.7133 76.0352H7.66443V88.4228H19.7133V76.0352Z" fill="#9DB85E"/>
<path d="M34.1548 65.5977H22.106V77.9854H34.1548V65.5977Z" fill="#9DB85E"/>
<path d="M30.0682 74.2129H28.1412V75.5258H30.0682V74.2129Z" fill="#4CA03A"/>
<path d="M24.5201 65.5977H12.4713V77.9854H24.5201V65.5977Z" fill="#9DB85E"/>
<path d="M24.0965 74.0059H22.1696V75.3187H24.0965V74.0059Z" fill="#4CA03A"/>
<path d="M20.4545 74.2129H18.5275V75.5258H20.4545V74.2129Z" fill="#4CA03A"/>
</g>
</g>
</g>
<path d="M24.1183 93.6323C20.222 93.6323 17.681 91.5147 17.681 88.2537V80.4611C17.681 76.9248 20.5609 74.0449 24.1183 74.0449C27.6758 74.0449 30.5557 76.9248 30.5557 80.4611V88.2537C30.5557 91.5147 28.0358 93.6323 24.1183 93.6323ZM24.1183 75.6542C21.4714 75.6542 19.3115 77.8142 19.3115 80.4611V88.2537C19.3115 91.7477 22.996 92.0229 24.1183 92.0229C25.2406 92.0229 28.9252 91.7477 28.9252 88.2537V80.4611C28.9252 77.8142 26.7653 75.6542 24.1183 75.6542Z" fill="#3E3A39"/>
<mask id="mask11_30_42483" style="mask-type:luminance" maskUnits="userSpaceOnUse" x="30" y="74" width="12" height="19">
<path d="M36.1884 92.8238C33.118 92.8238 30.6193 91.3626 30.6193 88.2922V80.4149C30.6193 77.3444 33.118 74.8457 36.1884 74.8457C39.2589 74.8457 41.7576 77.3656 41.7576 80.4149V88.2922C41.7576 91.3626 39.2589 92.8238 36.1884 92.8238Z" fill="white"/>
</mask>
<g mask="url(#mask11_30_42483)">
<mask id="mask12_30_42483" style="mask-type:luminance" maskUnits="userSpaceOnUse" x="37" y="82" width="20" height="22">
<path d="M56.9614 82.2363H37.7339V103.137H56.9614V82.2363Z" fill="white"/>
</mask>
<g mask="url(#mask12_30_42483)">
<mask id="mask13_30_42483" style="mask-type:luminance" maskUnits="userSpaceOnUse" x="37" y="82" width="20" height="22">
<path d="M56.9612 82.2402H37.7338V103.14H56.9612V82.2402Z" fill="white"/>
</mask>
<g mask="url(#mask13_30_42483)">
<path d="M53.3824 86.4961H41.3336V98.8838H53.3824V86.4961Z" fill="#9DB85E"/>
<path d="M43.6841 89.9863H41.7571V91.2992H43.6841V89.9863Z" fill="#E8D598"/>
<path d="M43.7687 86.4961H31.72V98.8838H43.7687V86.4961Z" fill="#9DB85E"/>
<path d="M39.0891 90.1191H36.1033V91.7284H39.0891V90.1191Z" fill="#61677C"/>
<path d="M40.8467 91.0059H37.8609V92.6152H40.8467V91.0059Z" fill="#61677C"/>
<path d="M48.5755 76.0352H36.5266V88.4228H48.5755V76.0352Z" fill="#9DB85E"/>
<path d="M38.9621 76.0352H26.9132V88.4228H38.9621V76.0352Z" fill="#9DB85E"/>
<path d="M38.5171 84.4629H36.5902V85.7758H38.5171V84.4629Z" fill="#4CA03A"/>
</g>
</g>
<mask id="mask14_30_42483" style="mask-type:luminance" maskUnits="userSpaceOnUse" x="37" y="61" width="20" height="22">
<path d="M56.9614 61.3145H37.734V82.2147H56.9614V61.3145Z" fill="white"/>
</mask>
<g mask="url(#mask14_30_42483)">
<mask id="mask15_30_42483" style="mask-type:luminance" maskUnits="userSpaceOnUse" x="37" y="61" width="20" height="22">
<path d="M56.9612 61.3223H37.7338V82.2225H56.9612V61.3223Z" fill="white"/>
</mask>
<g mask="url(#mask15_30_42483)">
<path d="M48.5754 76.0352H36.5266V88.4228H48.5754V76.0352Z" fill="#9DB85E"/>
<path d="M43.917 79.6582H40.9313V81.2675H43.917V79.6582Z" fill="#61677C"/>
<path d="M42.3713 80.6094H39.3856V82.2187H42.3713V80.6094Z" fill="#61677C"/>
<path d="M41.1006 78.6797H39.1736V79.9926H41.1006V78.6797Z" fill="#E8D598"/>
<path d="M40.2963 77.7715H38.3693V79.0844H40.2963V77.7715Z" fill="#E8D598"/>
<path d="M38.8772 79.5312H36.9503V80.8441H38.8772V79.5312Z" fill="#E8D598"/>
<path d="M38.962 76.0352H26.9131V88.4228H38.962V76.0352Z" fill="#9DB85E"/>
<path d="M53.3825 65.5977H41.3336V77.9854H53.3825V65.5977Z" fill="#9DB85E"/>
<path d="M43.7687 65.5977H31.72V77.9854H43.7687V65.5977Z" fill="#9DB85E"/>
<path d="M43.3243 74.0059H41.3972V75.3187H43.3243V74.0059Z" fill="#4CA03A"/>
<path d="M39.6819 74.2129H37.755V75.5258H39.6819V74.2129Z" fill="#4CA03A"/>
</g>
</g>
<mask id="mask16_30_42483" style="mask-type:luminance" maskUnits="userSpaceOnUse" x="18" y="82" width="20" height="22">
<path d="M37.7338 82.2363H18.5064V103.137H37.7338V82.2363Z" fill="white"/>
</mask>
<g mask="url(#mask16_30_42483)">
<mask id="mask17_30_42483" style="mask-type:luminance" maskUnits="userSpaceOnUse" x="18" y="82" width="20" height="22">
<path d="M37.7338 82.2402H18.5063V103.14H37.7338V82.2402Z" fill="white"/>
</mask>
<g mask="url(#mask17_30_42483)">
<path d="M43.7685 86.4961H31.7198V98.8838H43.7685V86.4961Z" fill="#9DB85E"/>
<path d="M39.1103 90.1191H36.1245V91.7284H39.1103V90.1191Z" fill="#61677C"/>
<path d="M37.5644 91.0684H34.5787V92.6777H37.5644V91.0684Z" fill="#61677C"/>
<path d="M36.2937 89.123H34.3668V90.4359H36.2937V89.123Z" fill="#E8D598"/>
<path d="M35.4891 88.2129H33.5622V89.5258H35.4891V88.2129Z" fill="#E8D598"/>
<path d="M34.0702 89.9863H32.1431V91.2992H34.0702V89.9863Z" fill="#E8D598"/>
<path d="M34.1548 86.4961H22.106V98.8838H34.1548V86.4961Z" fill="#9DB85E"/>
<path d="M31.2328 91.0059H28.2471V92.6152H31.2328V91.0059Z" fill="#61677C"/>
<path d="M48.5754 76.0352H36.5266V88.4228H48.5754V76.0352Z" fill="#9DB85E"/>
<path d="M38.9617 76.0352H26.9128V88.4228H38.9617V76.0352Z" fill="#9DB85E"/>
<path d="M38.5171 84.4629H36.5901V85.7758H38.5171V84.4629Z" fill="#4CA03A"/>
<path d="M34.875 84.6738H32.948V85.9867H34.875V84.6738Z" fill="#4CA03A"/>
<path d="M36.6959 83.5547H34.7689V84.8676H36.6959V83.5547Z" fill="#4CA03A"/>
</g>
</g>
<mask id="mask18_30_42483" style="mask-type:luminance" maskUnits="userSpaceOnUse" x="18" y="61" width="20" height="22">
<path d="M37.7339 61.3145H18.5065V82.2147H37.7339V61.3145Z" fill="white"/>
</mask>
<g mask="url(#mask18_30_42483)">
<mask id="mask19_30_42483" style="mask-type:luminance" maskUnits="userSpaceOnUse" x="18" y="61" width="20" height="22">
<path d="M37.7338 61.3223H18.5063V82.2225H37.7338V61.3223Z" fill="white"/>
</mask>
<g mask="url(#mask19_30_42483)">
<path d="M48.5756 76.0352H36.5267V88.4228H48.5756V76.0352Z" fill="#9DB85E"/>
<path d="M38.8771 79.5312H36.9502V80.8441H38.8771V79.5312Z" fill="#E8D598"/>
<path d="M38.9618 76.0352H26.913V88.4228H38.9618V76.0352Z" fill="#9DB85E"/>
<path d="M34.2821 79.6582H31.2964V81.2675H34.2821V79.6582Z" fill="#61677C"/>
<path d="M32.7576 80.6094H29.7717V82.2187H32.7576V80.6094Z" fill="#61677C"/>
<path d="M36.0398 80.5488H33.054V82.1582H36.0398V80.5488Z" fill="#61677C"/>
<path d="M31.4656 78.6797H29.5386V79.9926H31.4656V78.6797Z" fill="#E8D598"/>
<path d="M30.6823 77.7715H28.7554V79.0844H30.6823V77.7715Z" fill="#E8D598"/>
<path d="M43.7685 65.5977H31.7198V77.9854H43.7685V65.5977Z" fill="#9DB85E"/>
<path d="M34.1548 65.5977H22.106V77.9854H34.1548V65.5977Z" fill="#9DB85E"/>
<path d="M33.7103 74.0059H31.7834V75.3187H33.7103V74.0059Z" fill="#4CA03A"/>
</g>
</g>
</g>
<path d="M36.1884 93.632C32.3133 93.632 29.7933 91.5356 29.7933 88.2957V80.4184C29.7933 76.9033 32.6521 74.0234 36.1884 74.0234C39.7247 74.0234 42.5833 76.8821 42.5833 80.4184V88.2957C42.5833 91.5356 40.0847 93.632 36.1884 93.632ZM36.1884 75.6539C33.5626 75.6539 31.4239 77.7927 31.4239 80.4184V88.2957C31.4239 91.7473 35.0661 92.0226 36.1884 92.0226C37.3107 92.0226 40.9529 91.7473 40.9529 88.2957V80.4184C40.9529 77.7927 38.8142 75.6539 36.1884 75.6539Z" fill="#3E3A39"/>
<mask id="mask20_30_42483" style="mask-type:luminance" maskUnits="userSpaceOnUse" x="16" y="51" width="28" height="35">
<path d="M42.5411 66.6725L42.2022 61.7386C41.8422 56.3388 36.4637 52.1037 30.2381 51.9767C24.0125 51.8708 18.528 55.8941 18.0198 61.2939L17.4904 66.9054L16.474 75.8415C15.7964 83.2105 23.0172 85.6881 30.8945 85.8152C38.7507 85.9634 44.1927 81.7918 43.6845 74.3803L42.5199 66.6513L42.5411 66.6725Z" fill="white"/>
</mask>
<g mask="url(#mask20_30_42483)">
<mask id="mask21_30_42483" style="mask-type:luminance" maskUnits="userSpaceOnUse" x="37" y="82" width="20" height="22">
<path d="M56.9615 82.2422H37.7341V103.142H56.9615V82.2422Z" fill="white"/>
</mask>
<g mask="url(#mask21_30_42483)">
<mask id="mask22_30_42483" style="mask-type:luminance" maskUnits="userSpaceOnUse" x="37" y="82" width="20" height="22">
<path d="M56.9613 82.2402H37.7339V103.14H56.9613V82.2402Z" fill="white"/>
</mask>
<g mask="url(#mask22_30_42483)">
<path d="M48.5756 76.0371H36.5267V88.4247H48.5756V76.0371Z" fill="#9DB85E"/>
<path d="M44.4889 84.6758H42.562V85.9887H44.4889V84.6758Z" fill="#4CA03A"/>
<path d="M38.9622 76.0371H26.9133V88.4247H38.9622V76.0371Z" fill="#9DB85E"/>
<path d="M38.5172 84.4648H36.5903V85.7777H38.5172V84.4648Z" fill="#4CA03A"/>
</g>
</g>
<mask id="mask23_30_42483" style="mask-type:luminance" maskUnits="userSpaceOnUse" x="37" y="61" width="20" height="22">
<path d="M56.9616 61.3164H37.7341V82.2167H56.9616V61.3164Z" fill="white"/>
</mask>
<g mask="url(#mask23_30_42483)">
<mask id="mask24_30_42483" style="mask-type:luminance" maskUnits="userSpaceOnUse" x="37" y="61" width="20" height="22">
<path d="M56.9613 61.3242H37.7338V82.2245H56.9613V61.3242Z" fill="white"/>
</mask>
<g mask="url(#mask24_30_42483)">
<path d="M48.5756 76.0371H36.5267V88.4247H48.5756V76.0371Z" fill="#9DB85E"/>
<path d="M43.9172 79.6602H40.9315V81.2695H43.9172V79.6602Z" fill="#61677C"/>
<path d="M42.3714 80.6113H39.3857V82.2207H42.3714V80.6113Z" fill="#61677C"/>
<path d="M45.6749 80.5508H42.6892V82.1601H45.6749V80.5508Z" fill="#61677C"/>
<path d="M41.1008 78.6816H39.1737V79.9945H41.1008V78.6816Z" fill="#E8D598"/>
<path d="M40.2964 77.7734H38.3694V79.0863H40.2964V77.7734Z" fill="#E8D598"/>
<path d="M38.8774 79.5332H36.9504V80.8461H38.8774V79.5332Z" fill="#E8D598"/>
<path d="M38.9622 76.0371H26.9133V88.4247H38.9622V76.0371Z" fill="#9DB85E"/>
<path d="M53.3826 65.5996H41.3337V77.9873H53.3826V65.5996Z" fill="#9DB85E"/>
<path d="M45.1242 67.3164H43.1973V68.6293H45.1242V67.3164Z" fill="#E8D598"/>
<path d="M43.6842 69.0938H41.7573V70.4067H43.6842V69.0938Z" fill="#E8D598"/>
<path d="M43.7688 65.5996H31.7201V77.9873H43.7688V65.5996Z" fill="#9DB85E"/>
<path d="M39.0892 69.2227H36.1033V70.832H39.0892V69.2227Z" fill="#61677C"/>
<path d="M40.8469 70.1094H37.8611V71.7187H40.8469V70.1094Z" fill="#61677C"/>
<path d="M43.3244 74.0078H41.3973V75.3207H43.3244V74.0078Z" fill="#4CA03A"/>
<path d="M39.682 74.2148H37.7551V75.5277H39.682V74.2148Z" fill="#4CA03A"/>
<path d="M41.5032 73.0977H39.5762V74.4105H41.5032V73.0977Z" fill="#4CA03A"/>
<path d="M48.5756 55.1387H36.5267V67.5264H48.5756V55.1387Z" fill="#9DB85E"/>
<path d="M44.4889 63.7773H42.562V65.0902H44.4889V63.7773Z" fill="#4CA03A"/>
<path d="M38.9622 55.1387H26.9133V67.5264H38.9622V55.1387Z" fill="#9DB85E"/>
<path d="M38.5172 63.5703H36.5903V64.8832H38.5172V63.5703Z" fill="#4CA03A"/>
</g>
</g>
<mask id="mask25_30_42483" style="mask-type:luminance" maskUnits="userSpaceOnUse" x="37" y="40" width="20" height="22">
<path d="M56.9616 40.4199H37.7341V61.3202H56.9616V40.4199Z" fill="white"/>
</mask>
<g mask="url(#mask25_30_42483)">
<mask id="mask26_30_42483" style="mask-type:luminance" maskUnits="userSpaceOnUse" x="37" y="40" width="20" height="22">
<path d="M56.9613 40.4219H37.7339V61.3221H56.9613V40.4219Z" fill="white"/>
</mask>
<g mask="url(#mask26_30_42483)">
<path d="M48.5757 55.1367H36.5268V67.5244H48.5757V55.1367Z" fill="#9DB85E"/>
<path d="M43.9172 58.7598H40.9315V60.3691H43.9172V58.7598Z" fill="#61677C"/>
<path d="M42.3714 59.7109H39.3857V61.3203H42.3714V59.7109Z" fill="#61677C"/>
<path d="M45.675 59.6504H42.6893V61.2598H45.675V59.6504Z" fill="#61677C"/>
<path d="M41.1008 57.7637H39.1738V59.0765H41.1008V57.7637Z" fill="#E8D598"/>
<path d="M40.2965 56.8535H38.3694V58.1665H40.2965V56.8535Z" fill="#E8D598"/>
<path d="M38.8774 58.6328H36.9505V59.9457H38.8774V58.6328Z" fill="#E8D598"/>
<path d="M38.9622 55.1367H26.9133V67.5244H38.9622V55.1367Z" fill="#9DB85E"/>
<path d="M53.3827 44.6758H41.3338V57.0635H53.3827V44.6758Z" fill="#9DB85E"/>
<path d="M43.7689 44.6758H31.7202V57.0635H43.7689V44.6758Z" fill="#9DB85E"/>
<path d="M43.3244 53.1074H41.3974V54.4203H43.3244V53.1074Z" fill="#4CA03A"/>
<path d="M39.6821 53.3145H37.7552V54.6273H39.6821V53.3145Z" fill="#4CA03A"/>
<path d="M41.5033 52.1973H39.5762V53.5101H41.5033V52.1973Z" fill="#4CA03A"/>
</g>
</g>
<mask id="mask27_30_42483" style="mask-type:luminance" maskUnits="userSpaceOnUse" x="18" y="82" width="20" height="22">
<path d="M37.734 82.2422H18.5066V103.142H37.734V82.2422Z" fill="white"/>
</mask>
<g mask="url(#mask27_30_42483)">
<mask id="mask28_30_42483" style="mask-type:luminance" maskUnits="userSpaceOnUse" x="18" y="82" width="20" height="22">
<path d="M37.7337 82.2402H18.5063V103.14H37.7337V82.2402Z" fill="white"/>
</mask>
<g mask="url(#mask28_30_42483)">
<path d="M48.5756 76.0371H36.5267V88.4247H48.5756V76.0371Z" fill="#9DB85E"/>
<path d="M38.9618 76.0371H26.9129V88.4247H38.9618V76.0371Z" fill="#9DB85E"/>
<path d="M38.5172 84.4648H36.5903V85.7777H38.5172V84.4648Z" fill="#4CA03A"/>
<path d="M34.8752 84.6758H32.9481V85.9887H34.8752V84.6758Z" fill="#4CA03A"/>
<path d="M36.696 83.5586H34.769V84.8715H36.696V83.5586Z" fill="#4CA03A"/>
<path d="M29.3273 76.0371H17.2784V88.4247H29.3273V76.0371Z" fill="#9DB85E"/>
<path d="M28.9035 84.4648H26.9765V85.7777H28.9035V84.4648Z" fill="#4CA03A"/>
<path d="M25.2613 84.6758H23.3344V85.9887H25.2613V84.6758Z" fill="#4CA03A"/>
<path d="M27.0826 83.5586H25.1556V84.8715H27.0826V83.5586Z" fill="#4CA03A"/>
<path d="M19.7134 76.0371H7.66455V88.4247H19.7134V76.0371Z" fill="#9DB85E"/>
<path d="M19.2896 84.4648H17.3627V85.7777H19.2896V84.4648Z" fill="#4CA03A"/>
</g>
</g>
<mask id="mask29_30_42483" style="mask-type:luminance" maskUnits="userSpaceOnUse" x="18" y="61" width="20" height="22">
<path d="M37.734 61.3164H18.5065V82.2167H37.734V61.3164Z" fill="white"/>
</mask>
<g mask="url(#mask29_30_42483)">
<mask id="mask30_30_42483" style="mask-type:luminance" maskUnits="userSpaceOnUse" x="18" y="61" width="20" height="22">
<path d="M37.7338 61.3242H18.5063V82.2245H37.7338V61.3242Z" fill="white"/>
</mask>
<g mask="url(#mask30_30_42483)">
<path d="M48.5756 76.0371H36.5267V88.4247H48.5756V76.0371Z" fill="#9DB85E"/>
<path d="M38.8771 79.5332H36.9502V80.8461H38.8771V79.5332Z" fill="#E8D598"/>
<path d="M38.9618 76.0371H26.913V88.4247H38.9618V76.0371Z" fill="#9DB85E"/>
<path d="M34.2821 79.6602H31.2964V81.2695H34.2821V79.6602Z" fill="#61677C"/>
<path d="M32.7576 80.6113H29.7717V82.2207H32.7576V80.6113Z" fill="#61677C"/>
<path d="M36.0398 80.5508H33.054V82.1601H36.0398V80.5508Z" fill="#61677C"/>
<path d="M31.4656 78.6816H29.5386V79.9945H31.4656V78.6816Z" fill="#E8D598"/>
<path d="M30.6823 77.7734H28.7554V79.0863H30.6823V77.7734Z" fill="#E8D598"/>
<path d="M29.2635 79.5332H27.3365V80.8461H29.2635V79.5332Z" fill="#E8D598"/>
<path d="M29.3271 76.0371H17.2783V88.4247H29.3271V76.0371Z" fill="#9DB85E"/>
<path d="M24.6684 79.6602H21.6826V81.2695H24.6684V79.6602Z" fill="#61677C"/>
<path d="M23.1437 80.6113H20.158V82.2207H23.1437V80.6113Z" fill="#61677C"/>
<path d="M26.4262 80.5508H23.4404V82.1601H26.4262V80.5508Z" fill="#61677C"/>
<path d="M21.8521 78.6816H19.9252V79.9945H21.8521V78.6816Z" fill="#E8D598"/>
<path d="M21.0686 77.7734H19.1417V79.0863H21.0686V77.7734Z" fill="#E8D598"/>
<path d="M19.6286 79.5332H17.7016V80.8461H19.6286V79.5332Z" fill="#E8D598"/>
<path d="M19.7133 76.0371H7.66443V88.4247H19.7133V76.0371Z" fill="#9DB85E"/>
<path d="M43.7685 65.5996H31.7198V77.9873H43.7685V65.5996Z" fill="#9DB85E"/>
<path d="M39.1103 69.2227H36.1245V70.832H39.1103V69.2227Z" fill="#61677C"/>
<path d="M37.5644 70.1719H34.5787V71.7812H37.5644V70.1719Z" fill="#61677C"/>
<path d="M36.2937 68.2266H34.3668V69.5394H36.2937V68.2266Z" fill="#E8D598"/>
<path d="M35.4892 67.3164H33.5623V68.6293H35.4892V67.3164Z" fill="#E8D598"/>
<path d="M34.0702 69.0938H32.1432V70.4067H34.0702V69.0938Z" fill="#E8D598"/>
<path d="M34.1548 65.5996H22.106V77.9873H34.1548V65.5996Z" fill="#9DB85E"/>
<path d="M29.4753 69.2227H26.4896V70.832H29.4753V69.2227Z" fill="#61677C"/>
<path d="M27.9507 70.1719H24.965V71.7812H27.9507V70.1719Z" fill="#61677C"/>
<path d="M31.233 70.1094H28.2473V71.7187H31.233V70.1094Z" fill="#61677C"/>
<path d="M26.6589 68.2266H24.7318V69.5394H26.6589V68.2266Z" fill="#E8D598"/>
<path d="M25.8755 67.3164H23.9485V68.6293H25.8755V67.3164Z" fill="#E8D598"/>
<path d="M24.4566 69.0938H22.5297V70.4067H24.4566V69.0938Z" fill="#E8D598"/>
<path d="M33.7103 74.0078H31.7834V75.3207H33.7103V74.0078Z" fill="#4CA03A"/>
<path d="M30.0682 74.2148H28.1412V75.5277H30.0682V74.2148Z" fill="#4CA03A"/>
<path d="M31.8893 73.0977H29.9624V74.4105H31.8893V73.0977Z" fill="#4CA03A"/>
<path d="M24.5201 65.5996H12.4713V77.9873H24.5201V65.5996Z" fill="#9DB85E"/>
<path d="M19.8614 69.2227H16.8757V70.832H19.8614V69.2227Z" fill="#61677C"/>
<path d="M21.6193 70.1094H18.6335V71.7187H21.6193V70.1094Z" fill="#61677C"/>
<path d="M24.0965 74.0078H22.1696V75.3207H24.0965V74.0078Z" fill="#4CA03A"/>
<path d="M20.4545 74.2148H18.5275V75.5277H20.4545V74.2148Z" fill="#4CA03A"/>
<path d="M22.2757 73.0977H20.3486V74.4105H22.2757V73.0977Z" fill="#4CA03A"/>
<path d="M48.5756 55.1387H36.5267V67.5264H48.5756V55.1387Z" fill="#9DB85E"/>
<path d="M38.9618 55.1387H26.913V67.5264H38.9618V55.1387Z" fill="#9DB85E"/>
<path d="M38.5172 63.5703H36.5903V64.8832H38.5172V63.5703Z" fill="#4CA03A"/>
<path d="M34.8753 63.7773H32.9482V65.0902H34.8753V63.7773Z" fill="#4CA03A"/>
<path d="M36.6961 62.6602H34.769V63.973H36.6961V62.6602Z" fill="#4CA03A"/>
<path d="M29.3271 55.1387H17.2783V67.5264H29.3271V55.1387Z" fill="#9DB85E"/>
<path d="M28.9037 63.5703H26.9766V64.8832H28.9037V63.5703Z" fill="#4CA03A"/>
<path d="M25.2613 63.7773H23.3344V65.0902H25.2613V63.7773Z" fill="#4CA03A"/>
<path d="M27.0825 62.6602H25.1555V63.973H27.0825V62.6602Z" fill="#4CA03A"/>
<path d="M19.7133 55.1387H7.66443V67.5264H19.7133V55.1387Z" fill="#9DB85E"/>
<path d="M19.2897 63.5703H17.3628V64.8832H19.2897V63.5703Z" fill="#4CA03A"/>
</g>
</g>
<mask id="mask31_30_42483" style="mask-type:luminance" maskUnits="userSpaceOnUse" x="18" y="40" width="20" height="22">
<path d="M37.734 40.4199H18.5065V61.3202H37.734V40.4199Z" fill="white"/>
</mask>
<g mask="url(#mask31_30_42483)">
<mask id="mask32_30_42483" style="mask-type:luminance" maskUnits="userSpaceOnUse" x="18" y="40" width="20" height="22">
<path d="M37.7338 40.4219H18.5063V61.3221H37.7338V40.4219Z" fill="white"/>
</mask>
<g mask="url(#mask32_30_42483)">
<path d="M48.5757 55.1367H36.5268V67.5244H48.5757V55.1367Z" fill="#9DB85E"/>
<path d="M38.8771 58.6328H36.9502V59.9457H38.8771V58.6328Z" fill="#E8D598"/>
<path d="M38.9619 55.1367H26.913V67.5244H38.9619V55.1367Z" fill="#9DB85E"/>
<path d="M34.2821 58.7598H31.2964V60.3691H34.2821V58.7598Z" fill="#61677C"/>
<path d="M32.7576 59.7109H29.7718V61.3203H32.7576V59.7109Z" fill="#61677C"/>
<path d="M36.0398 59.6504H33.054V61.2598H36.0398V59.6504Z" fill="#61677C"/>
<path d="M31.4656 57.7637H29.5386V59.0765H31.4656V57.7637Z" fill="#E8D598"/>
<path d="M30.6823 56.8535H28.7554V58.1665H30.6823V56.8535Z" fill="#E8D598"/>
<path d="M29.2635 58.6328H27.3365V59.9457H29.2635V58.6328Z" fill="#E8D598"/>
<path d="M29.3271 55.1367H17.2783V67.5244H29.3271V55.1367Z" fill="#9DB85E"/>
<path d="M24.6684 58.7598H21.6826V60.3691H24.6684V58.7598Z" fill="#61677C"/>
<path d="M23.1437 59.7109H20.158V61.3203H23.1437V59.7109Z" fill="#61677C"/>
<path d="M26.4262 59.6504H23.4404V61.2598H26.4262V59.6504Z" fill="#61677C"/>
<path d="M21.8521 57.7637H19.9252V59.0765H21.8521V57.7637Z" fill="#E8D598"/>
<path d="M21.0686 56.8535H19.1417V58.1665H21.0686V56.8535Z" fill="#E8D598"/>
<path d="M19.6287 58.6328H17.7017V59.9457H19.6287V58.6328Z" fill="#E8D598"/>
<path d="M19.7133 55.1367H7.66443V67.5244H19.7133V55.1367Z" fill="#9DB85E"/>
<path d="M43.7685 44.6758H31.7198V57.0635H43.7685V44.6758Z" fill="#9DB85E"/>
<path d="M34.1549 44.6758H22.106V57.0635H34.1549V44.6758Z" fill="#9DB85E"/>
<path d="M33.7103 53.1074H31.7834V54.4203H33.7103V53.1074Z" fill="#4CA03A"/>
<path d="M30.0682 53.3145H28.1412V54.6273H30.0682V53.3145Z" fill="#4CA03A"/>
<path d="M31.8893 52.1973H29.9624V53.5101H31.8893V52.1973Z" fill="#4CA03A"/>
<path d="M24.5201 44.6758H12.4713V57.0635H24.5201V44.6758Z" fill="#9DB85E"/>
<path d="M24.0965 53.1074H22.1696V54.4203H24.0965V53.1074Z" fill="#4CA03A"/>
<path d="M20.4545 53.3145H18.5275V54.6273H20.4545V53.3145Z" fill="#4CA03A"/>
<path d="M22.2757 52.1973H20.3486V53.5101H22.2757V52.1973Z" fill="#4CA03A"/>
</g>
</g>
<mask id="mask33_30_42483" style="mask-type:luminance" maskUnits="userSpaceOnUse" x="-1" y="82" width="20" height="22">
<path d="M18.4856 82.2422H-0.741821V103.142H18.4856V82.2422Z" fill="white"/>
</mask>
<g mask="url(#mask33_30_42483)">
<mask id="mask34_30_42483" style="mask-type:luminance" maskUnits="userSpaceOnUse" x="-1" y="82" width="20" height="22">
<path d="M18.4856 82.2402H-0.741821V103.14H18.4856V82.2402Z" fill="white"/>
</mask>
<g mask="url(#mask34_30_42483)">
<path d="M29.3484 76.0371H17.2995V88.4247H29.3484V76.0371Z" fill="#9DB85E"/>
<path d="M19.7137 76.0371H7.66479V88.4247H19.7137V76.0371Z" fill="#9DB85E"/>
<path d="M19.29 84.4648H17.3631V85.7777H19.29V84.4648Z" fill="#4CA03A"/>
<path d="M17.4692 83.5586H15.5422V84.8715H17.4692V83.5586Z" fill="#4CA03A"/>
</g>
</g>
<mask id="mask35_30_42483" style="mask-type:luminance" maskUnits="userSpaceOnUse" x="-1" y="61" width="20" height="22">
<path d="M18.4856 61.3164H-0.741821V82.2167H18.4856V61.3164Z" fill="white"/>
</mask>
<g mask="url(#mask35_30_42483)">
<mask id="mask36_30_42483" style="mask-type:luminance" maskUnits="userSpaceOnUse" x="-1" y="61" width="20" height="22">
<path d="M18.4857 61.3242H-0.741699V82.2245H18.4857V61.3242Z" fill="white"/>
</mask>
<g mask="url(#mask36_30_42483)">
<path d="M29.3486 76.0371H17.2997V88.4247H29.3486V76.0371Z" fill="#9DB85E"/>
<path d="M19.6292 79.5332H17.7021V80.8461H19.6292V79.5332Z" fill="#E8D598"/>
<path d="M19.7138 76.0371H7.66492V88.4247H19.7138V76.0371Z" fill="#9DB85E"/>
<path d="M16.813 80.5508H13.8273V82.1601H16.813V80.5508Z" fill="#61677C"/>
<path d="M24.5208 65.5996H12.4719V77.9873H24.5208V65.5996Z" fill="#9DB85E"/>
<path d="M19.862 69.2227H16.8763V70.832H19.862V69.2227Z" fill="#61677C"/>
<path d="M18.3375 70.1719H15.3517V71.7812H18.3375V70.1719Z" fill="#61677C"/>
<path d="M17.0459 68.2266H15.119V69.5394H17.0459V68.2266Z" fill="#E8D598"/>
<path d="M29.3486 55.1387H17.2997V67.5264H29.3486V55.1387Z" fill="#9DB85E"/>
<path d="M19.7138 55.1387H7.66492V67.5264H19.7138V55.1387Z" fill="#9DB85E"/>
<path d="M19.2903 63.5703H17.3633V64.8832H19.2903V63.5703Z" fill="#4CA03A"/>
<path d="M17.4694 62.6602H15.5425V63.973H17.4694V62.6602Z" fill="#4CA03A"/>
</g>
</g>
<mask id="mask37_30_42483" style="mask-type:luminance" maskUnits="userSpaceOnUse" x="-1" y="40" width="20" height="22">
<path d="M18.4856 40.4199H-0.741821V61.3202H18.4856V40.4199Z" fill="white"/>
</mask>
<g mask="url(#mask37_30_42483)">
<mask id="mask38_30_42483" style="mask-type:luminance" maskUnits="userSpaceOnUse" x="-1" y="40" width="20" height="22">
<path d="M18.4856 40.4219H-0.741821V61.3221H18.4856V40.4219Z" fill="white"/>
</mask>
<g mask="url(#mask38_30_42483)">
<path d="M29.3485 55.1367H17.2996V67.5244H29.3485V55.1367Z" fill="#9DB85E"/>
<path d="M19.6291 58.6328H17.702V59.9457H19.6291V58.6328Z" fill="#E8D598"/>
<path d="M19.7137 55.1367H7.66479V67.5244H19.7137V55.1367Z" fill="#9DB85E"/>
<path d="M16.8128 59.6504H13.8271V61.2598H16.8128V59.6504Z" fill="#61677C"/>
<path d="M24.5207 44.6758H12.4718V57.0635H24.5207V44.6758Z" fill="#9DB85E"/>
</g>
</g>
</g>
<path d="M31.2969 86.6464C31.1699 86.6464 31.0216 86.6464 30.8946 86.6464C26.5536 86.5617 20.7303 85.757 17.6599 82.3266C16.1141 80.5902 15.4365 78.388 15.6906 75.7834L16.707 66.8262L17.2363 61.2358C17.7657 55.476 23.5042 50.9868 30.2804 51.1986C37.0354 51.3257 42.647 55.9419 43.0281 61.7016L43.367 66.5932L44.5104 74.3011C44.7434 77.7739 43.7905 80.6961 41.7364 82.856C39.386 85.3124 35.7015 86.6464 31.3181 86.6464H31.2969ZM29.9841 52.808C24.1608 52.808 19.2904 56.5348 18.8245 61.384L18.2951 66.9955L17.2787 75.9528C17.0882 78.0915 17.6175 79.8702 18.8457 81.2678C21.5138 84.2536 26.8712 84.9736 30.8946 85.0371C35.0238 85.1218 38.433 83.9359 40.5294 81.7337C42.2658 79.9126 43.0705 77.3927 42.8799 74.4705L41.7153 66.7414L41.3765 61.8076C41.0377 56.8737 36.1461 52.9138 30.1958 52.808C30.1111 52.808 30.0264 52.808 29.9417 52.808H29.9841Z" fill="#3E3A39"/>
<path d="M26.2358 67.0795H21.1536C20.4336 67.0795 19.8619 66.4866 19.8619 65.7878C19.8619 65.089 20.4548 64.4961 21.1536 64.4961H26.2358C26.9558 64.4961 27.5275 65.089 27.5275 65.7878C27.5275 66.4866 26.9346 67.0795 26.2358 67.0795Z" fill="#9DB85E"/>
<path d="M38.1577 67.0795H33.0755C32.3555 67.0795 31.7838 66.4866 31.7838 65.7878C31.7838 65.089 32.3767 64.4961 33.0755 64.4961H38.1577C38.8776 64.4961 39.4493 65.089 39.4493 65.7878C39.4493 66.4866 38.8565 67.0795 38.1577 67.0795Z" fill="#9DB85E"/>
<path d="M25.0713 58.3956C25.0713 58.3956 28.0782 63.5624 28.7134 63.6894C29.3487 63.8165 33.5415 58.332 33.5415 58.332L25.0925 58.3956H25.0713Z" fill="#3E3A39"/>
<path d="M12.7471 22.9247C8.04612 22.6918 4.38269 18.6473 4.61562 13.9251C4.84855 9.22415 8.89308 5.56079 13.6152 5.79372C18.3162 6.02666 21.9796 10.0712 21.7467 14.7933C21.5138 19.4943 17.4692 23.1577 12.7471 22.9247Z" fill="#3E3A39"/>
<path d="M45.0822 22.081C40.3812 21.8481 36.7178 17.8036 36.9507 13.0814C37.1836 8.35928 41.2282 4.7171 45.9503 4.95003C50.6513 5.18296 54.3147 9.22749 54.0818 13.9496C53.8488 18.6506 49.8043 22.314 45.0822 22.081Z" fill="#3E3A39"/>
<path d="M57.8085 37.2641C57.1521 50.52 44.3621 60.6419 29.2427 59.8796C14.1446 59.1173 2.43456 47.7672 3.091 34.5113C3.76862 21.2554 16.5374 11.1335 31.6568 11.8959C46.7549 12.6582 58.465 24.0082 57.8085 37.2641Z" fill="white"/>
<path d="M30.8522 60.7276C30.3017 60.7276 29.7512 60.7276 29.2006 60.6853C13.679 59.9018 1.60885 48.1494 2.28647 34.47C2.98526 20.7906 16.1353 10.2875 31.6993 11.0921C47.221 11.8756 59.291 23.6281 58.6133 37.3075C58.2745 43.9566 55.0348 50.034 49.4444 54.4597C44.2988 58.5254 37.7555 60.7276 30.8522 60.7276ZM30.09 12.6591C16.1353 12.6591 4.55229 22.2093 3.91703 34.5546C3.28176 47.3446 14.653 58.3348 29.2853 59.0759C36.3791 59.4359 43.1976 57.3395 48.4279 53.1891C53.6371 49.0599 56.6653 43.3848 56.9829 37.2228C57.6182 24.4327 46.2468 13.4427 31.6145 12.7015C31.1063 12.6803 30.577 12.6591 30.0688 12.6591H30.09Z" fill="#3E3A39"/>
<path d="M23.4408 37.8148C21.302 41.9016 16.6858 43.7016 13.1071 41.8593C9.52844 39.9959 8.34263 35.1678 10.4814 31.081C12.5989 26.9941 17.2364 25.1942 20.815 27.0576C24.3937 28.9211 25.5795 33.7491 23.4408 37.836" fill="#3E3A39"/>
<path d="M21.7256 34.5946C21.0692 37.0086 18.8246 38.491 16.707 37.9192C14.5895 37.3475 13.3824 34.9334 14.0389 32.5194C14.6953 30.1054 16.9399 28.6231 19.0575 29.1948C21.175 29.7666 22.3821 32.1806 21.7256 34.5946Z" fill="white"/>
<path d="M21.302 33.5791C21.2173 35.2307 19.7986 36.5013 18.1469 36.4166C16.4952 36.3319 15.2247 34.9131 15.3094 33.2614C15.3941 31.6097 16.8129 30.3392 18.4646 30.4239C20.1162 30.5086 21.3867 31.9274 21.302 33.5791Z" fill="#3E3A39"/>
<path d="M34.3461 37.8148C36.4848 41.9016 41.1011 43.7016 44.6798 41.8593C48.2584 39.9959 49.4443 35.1678 47.3055 31.081C45.188 26.9941 40.5505 25.1942 36.9719 27.0576C33.3932 28.9211 32.2074 33.7491 34.3461 37.836" fill="#3E3A39"/>
<path d="M36.0614 34.5946C36.7178 37.0086 38.9624 38.491 41.0799 37.9192C43.1975 37.3475 44.4045 34.9334 43.7481 32.5194C43.0916 30.1054 40.847 28.6231 38.7295 29.1948C36.6119 29.7666 35.4049 32.1806 36.0614 34.5946Z" fill="white"/>
<path d="M36.8449 33.5791C36.9296 35.2307 38.3272 36.5013 40.0001 36.4166C41.6518 36.3319 42.9224 34.9131 42.8377 33.2614C42.753 31.6097 41.3553 30.3392 39.6824 30.4239C38.0307 30.5086 36.7602 31.9274 36.8449 33.5791Z" fill="#3E3A39"/>
<path d="M30.2159 39.6913L29.0942 39.7266L29.343 47.6423L30.4647 47.6071L30.2159 39.6913Z" fill="#3E3A39"/>
<path d="M32.7158 39.5498C32.7158 41.138 31.297 42.4297 29.5394 42.4297C27.7819 42.4297 26.3419 41.138 26.3419 39.5498C26.3419 37.9617 27.7607 36.6699 29.5394 36.6699C31.297 36.6699 32.737 37.9617 32.737 39.5498" fill="#3E3A39"/>
<path d="M28.5018 48.8665C27.7183 48.8665 26.85 48.7607 25.9183 48.5489C25.6218 48.4642 25.4312 48.1677 25.5159 47.8713C25.6006 47.5748 25.8971 47.3842 26.1936 47.4689C31.0639 48.6759 33.8591 45.7537 33.9862 45.6267C34.1979 45.3937 34.5579 45.3937 34.7908 45.6055C35.0238 45.8172 35.0238 46.1772 34.812 46.4102C34.7062 46.5372 32.4616 48.9089 28.5018 48.9089V48.8665Z" fill="#3E3A39"/>
<path d="M34.8331 23.2202C34.6214 23.2202 34.4097 23.0931 34.325 22.8814C34.1979 22.6061 34.325 22.2673 34.6002 22.1402C34.7697 22.0555 38.92 20.2132 41.5881 21.8014C41.8634 21.9708 41.9482 22.3097 41.7788 22.5638C41.6094 22.839 41.2705 22.9237 40.9952 22.7543C38.8564 21.4626 35.0872 23.1355 35.066 23.1567C34.9813 23.199 34.9178 23.199 34.8331 23.199V23.2202Z" fill="#3E3A39"/>
<path d="M24.6054 23.2202C24.6054 23.2202 24.4572 23.2202 24.3725 23.1778C24.3302 23.1778 20.5821 21.4838 18.4434 22.7755C18.1681 22.9449 17.8293 22.839 17.6811 22.5849C17.5117 22.3096 17.5963 21.9708 17.8716 21.8014C20.5186 20.2132 24.669 22.0555 24.8384 22.1402C25.1137 22.2673 25.2407 22.6061 25.1136 22.8814C25.0289 23.0931 24.8172 23.2202 24.6054 23.2202Z" fill="#3E3A39"/>
<path d="M45.4633 16.9532H23.1866C22.4455 16.9532 21.8525 16.3603 21.8525 15.6192C21.8525 14.878 22.4455 14.2852 23.1866 14.2852H45.4633C46.2045 14.2852 46.7974 14.8992 46.7974 15.6192C46.7974 16.3391 46.2045 16.9532 45.4633 16.9532Z" fill="#3E3A39"/>
<path d="M30.2592 14.9432H45.4208C45.4208 14.9432 46.7125 11.0469 44.5103 7.04473C42.308 3.02138 33.2237 0.946213 28.565 1.98381C23.9064 3.02142 11.9634 10.1575 10.4176 13.1433C8.8506 16.129 12.4929 19.7501 19.0996 19.2419C25.7064 18.7337 26.4899 15.3456 26.4899 15.3456L30.238 14.9644L30.2592 14.9432Z" fill="#74A93C"/>
<path d="M17.8715 20.0864C14.2928 20.0864 11.3283 18.8795 9.97306 16.8043C9.12604 15.5337 9.04134 14.0514 9.71896 12.7597C11.4342 9.47752 23.61 2.25662 28.4169 1.19784C33.1814 0.139065 42.8163 2.2143 45.2514 6.66117C47.6019 10.9386 46.2679 15.0467 46.2256 15.2161L46.0349 15.7666H30.3227L27.0829 16.1054C26.5324 17.2277 24.7324 19.6206 19.1844 20.0441C18.7397 20.0865 18.3162 20.0864 17.8927 20.0864H17.8715ZM31.318 2.53191C30.3863 2.53191 29.5181 2.6166 28.7557 2.78601C24.0548 3.82361 12.5353 10.8539 11.1377 13.522C10.6295 14.5173 10.9471 15.3855 11.3071 15.9361C12.2177 17.2913 14.7587 18.7736 19.0361 18.4348C24.8806 17.9689 25.6853 15.2796 25.7065 15.1526L25.8547 14.6232L30.2593 14.1573H44.8068C45.0398 13.0138 45.3574 10.2398 43.8327 7.44465C42.2446 4.56478 36.0401 2.53191 31.3391 2.53191H31.318Z" fill="#3E3A39"/>
<path d="M41.3554 13.5654C40.6989 13.5654 40.1696 13.0359 40.1696 12.4007V11.596C40.1696 10.9395 40.6989 10.4102 41.3554 10.4102C42.0118 10.4102 42.52 10.9395 42.52 11.596V12.4007C42.52 13.0359 41.9906 13.5654 41.3554 13.5654Z" fill="#FCCA00"/>
<path d="M39.0259 10.9812C38.8353 10.833 38.793 10.5577 38.9412 10.3671L39.1529 10.0918C39.3011 9.90124 39.5765 9.85887 39.7671 10.0071C39.9577 10.1553 40 10.4306 39.8517 10.6212L39.64 10.8965C39.4918 11.0871 39.2164 11.1294 39.0259 10.9812Z" fill="#FCCA00"/>
<path d="M39.1106 12.0033C38.8777 11.9609 38.7294 11.7068 38.7717 11.4739L38.8565 11.1351C38.8989 10.9022 39.153 10.7539 39.3859 10.7963C39.6188 10.8598 39.767 11.0927 39.7035 11.3257L39.6188 11.6645C39.5765 11.8974 39.3435 12.0456 39.0894 12.0033" fill="#FCCA00"/>
<path d="M39.5343 12.9317C39.3013 13.0164 39.0473 12.9318 38.9626 12.6988L38.8356 12.3812C38.7509 12.1694 38.8355 11.8941 39.0685 11.8094C39.3014 11.7247 39.5556 11.8095 39.6403 12.0424L39.7673 12.36C39.852 12.5718 39.7672 12.847 39.5343 12.9317Z" fill="#FCCA00"/>
<path d="M43.8117 10.9812C44.0023 10.833 44.0447 10.5577 43.8965 10.3671L43.6847 10.0918C43.5364 9.90124 43.2612 9.85887 43.0706 10.0071C42.88 10.1553 42.8376 10.4306 42.9858 10.6212L43.1977 10.8965C43.3459 11.0871 43.6211 11.1294 43.8117 10.9812Z" fill="#FCCA00"/>
<path d="M43.727 12.0033C43.9599 11.9609 44.1081 11.7068 44.0657 11.4739L43.9811 11.1351C43.9387 10.9022 43.6846 10.7539 43.4517 10.7963C43.2187 10.8598 43.0704 11.0927 43.1128 11.3257L43.1976 11.6645C43.2399 11.8974 43.4729 12.0456 43.727 12.0033Z" fill="#FCCA00"/>
<path d="M43.3246 12.9317C43.5363 13.0164 43.8117 12.9318 43.8964 12.6988L44.0234 12.3812C44.1081 12.1694 44.0233 11.8941 43.7904 11.8094C43.5574 11.7247 43.3034 11.8095 43.2187 12.0424L43.0917 12.36C43.007 12.5718 43.0916 12.847 43.3246 12.9317Z" fill="#FCCA00"/>
<path d="M14.0601 64.5389C13.7001 64.5389 13.3189 64.4966 12.9589 64.3695C12.5989 64.2848 12.1119 64.2425 11.519 64.179C8.49086 63.8402 3.93809 63.3319 1.56643 59.8379C0.655884 58.4615 -0.254566 56.1111 0.740684 52.6383C1.77829 48.9961 5.50513 46.3703 6.24627 45.8833C7.98267 44.7398 10.312 45.2057 11.4555 46.9421C12.599 48.6785 12.1119 51.0077 10.3967 52.1512C9.31677 52.8712 8.15209 54.0994 7.98268 54.6923C7.77093 55.4123 7.85563 55.7088 7.85563 55.7088C8.36385 56.3017 11.2861 56.6193 12.366 56.7251C13.446 56.8522 14.3988 56.9581 15.2247 57.2122C17.194 57.8263 18.2952 59.9439 17.6599 61.9132C17.1517 63.5013 15.6694 64.5178 14.0812 64.5178" fill="#3E3A39"/>
<mask id="mask39_30_42483" style="mask-type:luminance" maskUnits="userSpaceOnUse" x="11" y="56" width="9" height="11">
<path d="M19.9256 58.0591L12.6412 56.2168L11.2648 65.4494L18.2527 66.7622" fill="white"/>
</mask>
<g mask="url(#mask39_30_42483)">
<mask id="mask40_30_42483" style="mask-type:luminance" maskUnits="userSpaceOnUse" x="18" y="61" width="20" height="22">
<path d="M37.7346 61.3145H18.5071V82.2147H37.7346V61.3145Z" fill="white"/>
</mask>
<g mask="url(#mask40_30_42483)">
<mask id="mask41_30_42483" style="mask-type:luminance" maskUnits="userSpaceOnUse" x="18" y="61" width="20" height="22">
<path d="M37.7347 61.3223H18.5073V82.2225H37.7347V61.3223Z" fill="white"/>
</mask>
<g mask="url(#mask41_30_42483)">
<path d="M24.5211 65.5977H12.4722V77.9854H24.5211V65.5977Z" fill="#9DB85E"/>
<path d="M29.3281 55.1367H17.2792V67.5244H29.3281V55.1367Z" fill="#9DB85E"/>
<path d="M19.7143 55.1367H7.66541V67.5244H19.7143V55.1367Z" fill="#9DB85E"/>
<path d="M19.2908 63.5684H17.3639V64.8812H19.2908V63.5684Z" fill="#4CA03A"/>
</g>
</g>
<mask id="mask42_30_42483" style="mask-type:luminance" maskUnits="userSpaceOnUse" x="18" y="40" width="20" height="22">
<path d="M37.7346 40.418H18.5072V61.3182H37.7346V40.418Z" fill="white"/>
</mask>
<g mask="url(#mask42_30_42483)">
<mask id="mask43_30_42483" style="mask-type:luminance" maskUnits="userSpaceOnUse" x="18" y="40" width="20" height="22">
<path d="M37.7347 40.4199H18.5073V61.3202H37.7347V40.4199Z" fill="white"/>
</mask>
<g mask="url(#mask43_30_42483)">
<path d="M29.3281 55.1348H17.2792V67.5225H29.3281V55.1348Z" fill="#9DB85E"/>
<path d="M21.0696 56.8516H19.1426V58.1645H21.0696V56.8516Z" fill="#E8D598"/>
<path d="M19.6296 58.6309H17.7026V59.9437H19.6296V58.6309Z" fill="#E8D598"/>
<path d="M19.7143 55.1348H7.66541V67.5225H19.7143V55.1348Z" fill="#9DB85E"/>
<path d="M24.5211 44.6738H12.4722V57.0615H24.5211V44.6738Z" fill="#9DB85E"/>
</g>
</g>
<mask id="mask44_30_42483" style="mask-type:luminance" maskUnits="userSpaceOnUse" x="-1" y="61" width="20" height="22">
<path d="M18.4862 61.3145H-0.741211V82.2147H18.4862V61.3145Z" fill="white"/>
</mask>
<g mask="url(#mask44_30_42483)">
<mask id="mask45_30_42483" style="mask-type:luminance" maskUnits="userSpaceOnUse" x="-1" y="61" width="20" height="22">
<path d="M18.4863 61.3223H-0.741089V82.2225H18.4863V61.3223Z" fill="white"/>
</mask>
<g mask="url(#mask45_30_42483)">
<path d="M24.5213 65.5977H12.4724V77.9854H24.5213V65.5977Z" fill="#9DB85E"/>
<path d="M14.9075 65.5977H2.85864V77.9854H14.9075V65.5977Z" fill="#9DB85E"/>
<path d="M29.3494 55.1367H17.3005V67.5244H29.3494V55.1367Z" fill="#9DB85E"/>
<path d="M19.7143 55.1367H7.66541V67.5244H19.7143V55.1367Z" fill="#9DB85E"/>
<path d="M19.2911 63.5684H17.3641V64.8812H19.2911V63.5684Z" fill="#4CA03A"/>
<path d="M15.649 63.7754H13.722V65.0883H15.649V63.7754Z" fill="#4CA03A"/>
<path d="M17.4698 62.6582H15.5428V63.9711H17.4698V62.6582Z" fill="#4CA03A"/>
</g>
</g>
<mask id="mask46_30_42483" style="mask-type:luminance" maskUnits="userSpaceOnUse" x="-1" y="40" width="20" height="22">
<path d="M18.4862 40.418H-0.741211V61.3182H18.4862V40.418Z" fill="white"/>
</mask>
<g mask="url(#mask46_30_42483)">
<mask id="mask47_30_42483" style="mask-type:luminance" maskUnits="userSpaceOnUse" x="-1" y="40" width="20" height="22">
<path d="M18.4863 40.4199H-0.741089V61.3202H18.4863V40.4199Z" fill="white"/>
</mask>
<g mask="url(#mask47_30_42483)">
<path d="M29.3495 55.1348H17.3006V67.5225H29.3495V55.1348Z" fill="#9DB85E"/>
<path d="M19.6297 58.6309H17.7027V59.9437H19.6297V58.6309Z" fill="#E8D598"/>
<path d="M19.7143 55.1348H7.66541V67.5225H19.7143V55.1348Z" fill="#9DB85E"/>
<path d="M15.0559 58.7578H12.0702V60.3671H15.0559V58.7578Z" fill="#61677C"/>
<path d="M13.5101 59.709H10.5244V61.3183H13.5101V59.709Z" fill="#61677C"/>
<path d="M16.8135 59.6484H13.8278V61.2578H16.8135V59.6484Z" fill="#61677C"/>
<path d="M12.2395 57.7617H10.3124V59.0746H12.2395V57.7617Z" fill="#E8D598"/>
<path d="M11.456 56.8516H9.52899V58.1645H11.456V56.8516Z" fill="#E8D598"/>
<path d="M24.5214 44.6738H12.4725V57.0615H24.5214V44.6738Z" fill="#9DB85E"/>
<path d="M14.9075 44.6738H2.85864V57.0615H14.9075V44.6738Z" fill="#9DB85E"/>
</g>
</g>
</g>
<path d="M18.1044 67.541L10.3542 66.0799L11.9636 55.2168L20.1373 57.2708L19.735 58.8378L13.2977 57.2073L12.1753 64.7881L18.4009 65.9528L18.1044 67.541Z" fill="#3E3A39"/>
<path d="M13.3823 66.2097L10.3754 65.7438C10.0789 65.7015 9.8671 65.4051 9.90945 65.1086L11.2435 56.4478C11.2859 56.1514 11.5823 55.9396 11.8788 55.982L14.8858 56.4478C15.2034 56.4902 15.3939 56.7866 15.3516 57.0831L14.0175 65.7438C13.9752 66.0615 13.6787 66.2732 13.3823 66.2097Z" fill="#CBD7A6"/>
<path d="M13.4671 67.0367C13.4671 67.0367 13.3189 67.0367 13.2554 67.0367L10.2485 66.5708C9.88853 66.5073 9.5708 66.3167 9.35904 66.0202C9.14729 65.7238 9.0626 65.3638 9.10495 65.0038L10.439 56.343C10.5449 55.6018 11.2437 55.0936 12.006 55.1995L15.013 55.6654C15.373 55.7289 15.6906 55.9195 15.9023 56.2159C16.1141 56.5124 16.1988 56.8724 16.1564 57.2324L14.8224 65.8932C14.7165 66.5708 14.1235 67.0578 13.4671 67.0578V67.0367ZM10.7355 65.0038L13.2554 65.4061L14.5259 57.2324L12.006 56.8512L10.7355 65.025V65.0038Z" fill="#3E3A39"/>
<path d="M29.3597 62.5925L28.2375 62.6094L28.5109 80.8183L29.633 80.8015L29.3597 62.5925Z" fill="#3E3A39"/>
<path d="M41.7789 80.9062H18.401V82.0286H41.7789V80.9062Z" fill="#3E3A39"/>
<path d="M37.0566 94.0958H35.0027C34.7486 94.0958 34.5367 93.884 34.5367 93.6299C34.5367 93.3758 34.7486 93.1641 35.0027 93.1641H37.0566C37.3107 93.1641 37.5226 93.3758 37.5226 93.6299C37.5226 93.884 37.3107 94.0958 37.0566 94.0958Z" fill="#898989"/>
<path d="M37.2684 95.8556H35.2143C34.9602 95.8556 34.7485 95.6438 34.7485 95.3897C34.7485 95.1356 34.9602 94.9238 35.2143 94.9238H37.2684C37.5225 94.9238 37.7342 95.1356 37.7342 95.3897C37.7342 95.6438 37.5225 95.8556 37.2684 95.8556Z" fill="#898989"/>
<path d="M23.5466 94.2247H21.4927C21.2386 94.2247 21.0267 94.0129 21.0267 93.7588C21.0267 93.5047 21.2386 93.293 21.4927 93.293H23.5466C23.8007 93.293 24.0126 93.5047 24.0126 93.7588C24.0126 94.0129 23.8007 94.2247 23.5466 94.2247Z" fill="#898989"/>
<path d="M23.2714 95.8106H21.2174C20.9633 95.8106 20.7515 95.5989 20.7515 95.3448C20.7515 95.0907 20.9633 94.8789 21.2174 94.8789H23.2714C23.5255 94.8789 23.7373 95.0907 23.7373 95.3448C23.7373 95.5989 23.5255 95.8106 23.2714 95.8106Z" fill="#898989"/>
</g>
</svg>
