<svg width="79" height="30" viewBox="0 0 79 30" fill="none" xmlns="http://www.w3.org/2000/svg">
<path d="M39.3107 13.2339C37.3882 13.2339 35.8136 11.6598 35.8136 9.73791C35.8136 7.81605 37.3699 6.24194 39.3107 6.24194C41.2515 6.24194 42.8078 7.79774 42.8078 9.73791C42.8078 11.6781 41.2515 13.2339 39.3107 13.2339ZM76.5158 14.9544C74.6299 14.6249 71.7553 14.6433 68.6243 14.6616C60.9709 14.6982 47.8979 14.7348 47.8979 9.75622C47.8979 4.77766 44.0529 1.17188 39.3107 1.17188C34.5685 1.17188 30.7235 5.01561 30.7235 9.75622C30.7235 14.7348 17.6504 14.6982 9.99703 14.6616C6.86609 14.6616 3.99148 14.6249 2.10559 14.9544C1.42814 15.0642 0 15.8147 0 17.0776V28.1695C0 29.1762 0.823932 29.9999 1.83096 29.9999H76.7538C77.7608 29.9999 78.5848 29.1762 78.5848 28.1695V17.0776C78.5848 15.8147 77.1749 15.0642 76.4975 14.9544" fill="#ABABAB"/>
<path d="M39.3107 12.0776C37.3882 12.0776 35.8136 10.5035 35.8136 8.58166C35.8136 6.65979 37.3699 5.08569 39.3107 5.08569C41.2515 5.08569 42.8078 6.64149 42.8078 8.58166C42.8078 10.5218 41.2515 12.0776 39.3107 12.0776ZM76.5158 13.7982C74.6299 13.4687 71.7553 13.487 68.6243 13.5053C60.9709 13.5419 47.8979 13.5785 47.8979 8.59996C47.8979 3.62141 44.0529 0.015625 39.3107 0.015625C34.5685 0.015625 30.7235 3.85936 30.7235 8.59996C30.7235 13.5785 17.6504 13.5419 9.99703 13.5053C6.86609 13.5053 3.99148 13.4687 2.10559 13.7982C1.42814 13.908 0 14.6584 0 15.9214V27.0133C0 28.02 0.823932 28.8436 1.83096 28.8436H76.7538C77.7608 28.8436 78.5848 28.02 78.5848 27.0133V15.9214C78.5848 14.6584 77.1749 13.908 76.4975 13.7982" fill="#CCCCCC"/>
<path d="M39.2007 6.24219C37.5346 6.3154 36.1614 7.54174 35.8867 9.15244C36.1614 10.7632 37.5163 12.0078 39.2007 12.0627C37.5346 11.9895 36.1797 10.7448 35.905 9.15244C36.1797 7.54174 37.5346 6.2971 39.2007 6.24219Z" fill="#FFCDB3"/>
<path d="M39.3116 5.08594C37.3708 5.08594 35.8145 6.66004 35.8145 8.58191C35.8145 8.78324 35.8145 8.96628 35.8694 9.16762C36.144 7.55691 37.4989 6.31227 39.1651 6.25736H39.2017H39.2933V5.10424L39.3116 5.08594Z" fill="#C4C4C4"/>
<path d="M0.0195312 27.0156V28.1687C0.0195312 29.1754 0.843463 29.9991 1.85049 29.9991H39.3119V28.846H1.85049C0.843463 28.846 0.0195312 28.0223 0.0195312 27.0156Z" fill="#C4C4C4"/>
<path d="M39.3119 0C34.5697 0 30.7247 3.84373 30.7247 8.58434C30.7247 13.3249 19.153 13.508 11.9757 13.508C11.3165 13.508 10.6391 13.508 9.99827 13.508C9.33912 13.508 8.69828 13.508 8.07575 13.508C5.71382 13.508 3.5899 13.5446 2.10682 13.8191C1.42937 13.929 0.0195312 14.6794 0.0195312 15.9423V27.0343C0.0195312 28.041 0.843463 28.8646 1.85049 28.8646H39.3119V12.0803H39.2753H39.2021H39.1837C37.5176 12.0071 36.1444 10.7808 35.888 9.17005C35.8514 8.98702 35.8331 8.78568 35.8331 8.58434C35.8331 6.66247 37.3894 5.08837 39.3302 5.08837V0H39.3119Z" fill="#DBDBDB"/>
</svg>
