<svg width="76" height="76" viewBox="0 0 76 76" fill="none" xmlns="http://www.w3.org/2000/svg">
<mask id="mask0_319_44" style="mask-type:alpha" maskUnits="userSpaceOnUse" x="0" y="0" width="76" height="76">
<circle cx="38" cy="38" r="38" fill="#D9D9D9"/>
</mask>
<g mask="url(#mask0_319_44)">
<path d="M60.3198 40.9381C60.3198 47.7269 50.0922 53.2512 37.4685 53.2512C24.8448 53.2512 14.6172 47.7269 14.6172 40.9381C14.6172 34.1492 24.8448 28.625 37.4685 28.625C50.0922 28.625 60.3198 34.1271 60.3198 40.9381Z" fill="white"/>
<path d="M37.4686 53.8686C24.5343 53.8686 13.9961 48.0559 13.9961 40.9343C13.9961 33.8127 24.5121 28 37.4686 28C50.4251 28 60.9411 33.7905 60.9411 40.9343C60.9411 48.0781 50.4029 53.8686 37.4686 53.8686ZM37.4686 29.2424C25.2221 29.2424 15.2385 34.4782 15.2385 40.9343C15.2385 47.3903 25.1999 52.6262 37.4686 52.6262C49.7373 52.6262 59.6987 47.3903 59.6987 40.9343C59.6987 34.4782 49.7373 29.2424 37.4686 29.2424Z" fill="#3E3A39"/>
<path d="M41.3066 24.5315C41.5285 25.064 44.0799 24.3319 44.6567 24.3319C45.2557 24.3319 45.8547 24.3319 46.4315 24.1544C47.0527 23.9769 47.6074 23.6441 48.1842 23.3557C49.2935 22.8454 50.5137 22.6014 51.7339 22.6458C52.4439 22.6901 53.2426 22.8676 53.6419 23.4666C54.13 24.2209 53.7085 25.308 52.9763 25.8405C52.2442 26.373 51.3346 26.5504 50.4472 26.7501C49.5597 26.9498 48.6501 27.2604 48.0733 27.9703" fill="#FBDACF"/>
<path d="M48.0734 28.6214C47.9402 28.6214 47.8071 28.577 47.674 28.4883C47.4078 28.2664 47.3634 27.8892 47.5853 27.6008C48.273 26.7356 49.3379 26.4028 50.2919 26.1588L50.5803 26.0922C51.3347 25.9147 52.0446 25.7594 52.5771 25.3601C53.0652 25.0051 53.3758 24.273 53.0873 23.8293C52.8211 23.4299 52.1777 23.319 51.6896 23.2746C50.5803 23.2302 49.4489 23.4521 48.4505 23.918C48.273 24.0067 48.1177 24.0733 47.9402 24.162C47.5187 24.3839 47.075 24.6058 46.5869 24.7389C45.9213 24.9164 45.2336 24.9385 44.6346 24.9385C44.4793 24.9385 44.1687 25.0051 43.8137 25.0717C42.3273 25.3601 41.0627 25.6041 40.7077 24.7611C40.5746 24.4505 40.7299 24.0733 41.0627 23.9402C41.3067 23.8514 41.5729 23.8958 41.7504 24.0733C42.0832 24.1177 43.1038 23.918 43.5918 23.8293C44.0577 23.7405 44.4571 23.674 44.6346 23.674C45.1892 23.674 45.7439 23.674 46.2541 23.5187C46.6313 23.4077 46.9863 23.2302 47.3634 23.0306C47.5409 22.9418 47.7184 22.8531 47.8959 22.7643C49.0939 22.2097 50.4029 21.9435 51.734 22.01C52.8877 22.0766 53.6863 22.4537 54.1301 23.1193C54.8178 24.2064 54.241 25.6263 53.3092 26.3362C52.5549 26.8909 51.6896 27.0906 50.8244 27.2902L50.536 27.3568C49.7817 27.5343 48.9608 27.7783 48.5171 28.3551C48.4061 28.5104 48.2065 28.5992 48.029 28.5992L48.0734 28.6214Z" fill="#3E3A39"/>
<path d="M20.9627 43.8785C20.6743 43.8341 20.3415 43.8119 19.9422 43.7897C19.0769 43.7453 18.123 43.5679 17.5905 42.9245C17.169 42.392 17.1246 41.6821 17.2355 41.0387C17.3021 40.6393 17.4352 40.24 17.7236 39.9516C18.3226 39.3082 19.2101 39.042 19.4541 38.1324C19.6094 37.5112 19.2766 37.0231 19.2322 36.424C19.0769 34.6492 20.6078 32.6081 21.6727 31.277C23.5363 28.9696 25.9323 27.2392 28.4393 26.0189C31.5453 24.4881 34.5626 25.065 37.2914 24.8431C39.754 24.6434 42.7491 23.7782 45.3227 24.7765C49.6489 26.4848 53.5314 29.6574 54.9956 33.4955C57.3473 39.5966 54.7072 43.346 49.2717 45.7421C48.3843 46.1414 46.0548 46.208 45.1008 46.4964C41.5955 47.5391 39.1772 48.1825 35.5831 48.1381C33.7639 48.1159 31.7228 48.005 29.7483 47.65C27.2635 47.2063 24.8674 46.4076 23.0482 44.9212C22.2939 44.3 21.7392 44.0338 20.9405 43.9228" fill="#FBDACF"/>
<path d="M35.9605 48.7513C35.8274 48.7513 35.7165 48.7513 35.5833 48.7513C33.3204 48.7291 31.368 48.5516 29.6597 48.2632C26.6647 47.7307 24.3795 46.7989 22.6712 45.4012C22.0057 44.8466 21.5398 44.6469 20.852 44.536C20.5858 44.4916 20.2752 44.4694 19.898 44.4472C19.055 44.4029 17.8348 44.2476 17.1026 43.3601C16.6145 42.7611 16.4592 41.9181 16.6145 40.9641C16.7255 40.3651 16.9251 39.8992 17.2579 39.5664C17.4798 39.3223 17.7682 39.1227 18.0344 38.923C18.5003 38.5902 18.7444 38.3905 18.8553 38.0134C18.9219 37.7915 18.8553 37.614 18.7666 37.2812C18.7 37.0372 18.6334 36.7932 18.6113 36.5269C18.4338 34.619 19.8315 32.6222 21.207 30.9361C22.9818 28.7397 25.3335 26.8983 28.1955 25.5006C30.5694 24.347 32.9211 24.3248 34.9843 24.3248C35.7608 24.3248 36.5373 24.3248 37.2695 24.2582C37.8463 24.2138 38.4675 24.1251 39.1109 24.0364C41.152 23.7479 43.4815 23.4152 45.5891 24.236C50.4034 26.144 54.175 29.5384 55.6171 33.31C57.88 39.1892 55.8389 43.582 49.5604 46.3552C48.9613 46.6214 47.963 46.7324 46.9868 46.8655C46.3434 46.9542 45.6778 47.0208 45.3007 47.1317C41.9728 48.1301 39.5102 48.7956 35.9605 48.7956V48.7513ZM42.5053 24.9016C41.4404 24.9016 40.3533 25.0569 39.2662 25.2122C38.6006 25.301 37.9572 25.3897 37.3582 25.4563C36.5817 25.5228 35.783 25.5228 34.9621 25.5228C32.9211 25.5228 30.8356 25.5228 28.7058 26.5655C26.0213 27.8745 23.8027 29.605 22.1388 31.6683C21.4067 32.5779 19.6762 34.7077 19.8315 36.3716C19.8315 36.5713 19.898 36.7266 19.9424 36.9041C20.0533 37.2812 20.1864 37.7471 20.0311 38.3018C19.8093 39.1227 19.2103 39.5664 18.7444 39.8992C18.5447 40.0545 18.3228 40.1876 18.1454 40.3873C17.9901 40.5426 17.8791 40.8088 17.8348 41.1637C17.7682 41.4965 17.7238 42.1399 18.0566 42.5615C18.3672 42.9386 18.9884 43.1383 19.9424 43.1827C20.3639 43.2048 20.6967 43.227 21.0295 43.2936C21.9391 43.4489 22.5825 43.7373 23.4256 44.4251C24.9564 45.6675 27.1084 46.5327 29.8372 47.0208C31.5012 47.3092 33.3648 47.4645 35.5612 47.4867C39.1996 47.5311 41.4626 46.9099 44.9013 45.8893C45.3672 45.7562 46.055 45.6675 46.7871 45.5787C47.6302 45.4678 48.562 45.3569 49.0057 45.1794C54.7296 42.6502 56.4379 39.0117 54.3968 33.7315C53.0879 30.3149 49.4938 27.098 45.0566 25.3675C44.2358 25.0347 43.3483 24.9238 42.4387 24.9238L42.5053 24.9016Z" fill="#3E3A39"/>
<path d="M52.8652 33.3218C53.3089 33.8099 53.8414 34.2758 54.507 34.4089C55.8381 34.6973 57.014 33.6324 58.2564 33.0556C58.8998 32.745 59.6097 32.5675 60.3196 32.5231C60.6746 32.5009 61.074 32.5231 61.4067 32.6562C62.2054 32.989 62.4938 33.943 62.4051 34.7639C62.272 35.8732 61.6064 36.8937 60.6081 37.5149C59.4766 38.2027 58.0567 38.3136 56.7034 38.5133C55.3722 38.7351 53.9301 39.1567 53.198 40.2438" fill="#FBDACF"/>
<path d="M53.1987 40.8897C53.0878 40.8897 52.9547 40.8453 52.8437 40.7788C52.5553 40.5791 52.4666 40.2019 52.6662 39.9135C53.5759 38.538 55.3507 38.1165 56.5931 37.8946L57.2809 37.7837C58.3902 37.6284 59.4107 37.4731 60.2538 36.9628C61.0746 36.4526 61.6515 35.5873 61.7402 34.6777C61.8068 34.1231 61.6293 33.4353 61.119 33.2134C60.9193 33.1247 60.6753 33.1025 60.3203 33.1247C59.6991 33.1691 59.0557 33.3244 58.5011 33.5906C58.1905 33.7237 57.9021 33.9012 57.5915 34.0787C56.6597 34.6333 55.5948 35.2545 54.3524 34.9883C53.6646 34.8552 52.999 34.4337 52.3778 33.7015C52.156 33.4353 52.1782 33.0581 52.4444 32.8141C52.7106 32.5922 53.0878 32.6144 53.3318 32.8807C53.7755 33.3909 54.2192 33.6793 54.6186 33.7681C55.3729 33.9234 56.1494 33.4797 56.9703 32.9916C57.3031 32.7919 57.6358 32.6144 57.9686 32.4369C58.6786 32.1042 59.4773 31.9045 60.2538 31.8601C60.6087 31.8601 61.119 31.8379 61.6071 32.0376C62.7164 32.5035 63.0935 33.7681 62.9826 34.7886C62.8273 36.0976 62.0508 37.2956 60.8972 37.9834C59.8322 38.6268 58.612 38.8042 57.4362 38.9595L56.7706 39.0483C55.1954 39.3145 54.1749 39.7804 53.6868 40.5125C53.5759 40.69 53.3762 40.801 53.1765 40.801L53.1987 40.8897Z" fill="#3E3A39"/>
<path d="M47.4746 41.1328C47.2749 41.1328 47.0974 41.1772 46.9199 41.2437Z" fill="#FBDACF"/>
<path d="M46.9196 41.8677C46.6756 41.8677 46.4315 41.7124 46.3428 41.4684C46.2097 41.1578 46.365 40.7806 46.6756 40.6475C46.9196 40.5587 47.1858 40.4922 47.4521 40.4922C47.7849 40.4922 48.0733 40.7584 48.0733 41.0912C48.0733 41.4462 47.807 41.7346 47.4743 41.7346C47.3633 41.7346 47.2524 41.7568 47.1415 41.8011C47.0527 41.8233 46.9862 41.8455 46.8974 41.8455L46.9196 41.8677Z" fill="#3E3A39"/>
<path d="M46.9199 36.125C46.7202 36.125 46.5427 36.1694 46.3652 36.2359Z" fill="#FBDACF"/>
<path d="M46.3646 36.8599C46.1206 36.8599 45.8765 36.7046 45.7878 36.4605C45.6547 36.1499 45.81 35.7728 46.1427 35.6397C46.3868 35.5509 46.653 35.4844 46.8971 35.4844C47.2077 35.5066 47.5404 35.7506 47.5404 36.0834C47.5404 36.4384 47.2742 36.7268 46.9414 36.7268C46.8305 36.7268 46.6974 36.749 46.6086 36.7933C46.5421 36.8155 46.4533 36.8377 46.3868 36.8377L46.3646 36.8599Z" fill="#3E3A39"/>
<path d="M29.748 30.9453C29.5483 30.9453 29.3708 30.9897 29.1934 31.0562Z" fill="#FBDACF"/>
<path d="M29.1927 31.6802C28.9487 31.6802 28.7046 31.5249 28.6159 31.2809C28.4828 30.9703 28.6381 30.5931 28.9709 30.46C29.2149 30.3712 29.4811 30.3047 29.7252 30.3047C30.058 30.3047 30.3464 30.5709 30.3464 30.9037C30.3464 31.2587 30.0802 31.5471 29.7474 31.5471C29.6364 31.5471 29.5255 31.5693 29.4146 31.6136C29.348 31.6358 29.2593 31.658 29.1927 31.658V31.6802Z" fill="#3E3A39"/>
<path d="M37.9355 27.9297C37.7358 27.9297 37.5583 27.9741 37.3809 28.0406Z" fill="#FBDACF"/>
<path d="M37.3802 28.6646C37.1362 28.6646 36.8921 28.5093 36.8034 28.2652C36.6703 27.9546 36.8256 27.5775 37.1584 27.4444C37.4024 27.3556 37.6686 27.2891 37.9127 27.2891C38.2455 27.2891 38.5339 27.5553 38.5339 27.8881C38.5339 28.243 38.2677 28.5315 37.9349 28.5315C37.8239 28.5315 37.6908 28.5536 37.6021 28.598C37.5355 28.6202 37.4468 28.6424 37.358 28.6424L37.3802 28.6646Z" fill="#3E3A39"/>
<path d="M39.666 42.1719C39.4663 42.1719 39.2888 42.2162 39.1113 42.2828Z" fill="#FBDACF"/>
<path d="M39.111 42.9224C38.867 42.9224 38.6229 42.7671 38.5342 42.523C38.4011 42.2124 38.5564 41.8353 38.867 41.7022C39.111 41.6134 39.3772 41.5469 39.6435 41.5469C40.0428 41.5469 40.2869 41.8131 40.2869 42.1459C40.2869 42.5009 40.0206 42.7893 39.6878 42.7893C39.5769 42.7893 39.466 42.8115 39.3551 42.8558C39.2663 42.878 39.1998 42.9002 39.111 42.9002V42.9224Z" fill="#3E3A39"/>
<path d="M33.7851 37.9609C33.5854 37.9609 33.408 38.0053 33.2305 38.0719Z" fill="#FBDACF"/>
<path d="M33.2302 38.7115C32.9861 38.7115 32.7421 38.5562 32.6533 38.3121C32.5202 38.0015 32.6755 37.6244 32.9861 37.4912C33.2302 37.4025 33.4964 37.3359 33.7626 37.3359C34.0954 37.3359 34.406 37.6022 34.406 37.935C34.406 38.2899 34.1398 38.5783 33.807 38.5783C33.6961 38.5783 33.5851 38.6005 33.4742 38.6449C33.3855 38.6671 33.3189 38.6893 33.2302 38.6893V38.7115Z" fill="#3E3A39"/>
<path d="M28.3945 43.2969C28.1948 43.2969 28.0173 43.3412 27.8398 43.4078Z" fill="#FBDACF"/>
<path d="M27.8392 44.0318C27.5952 44.0318 27.3511 43.8765 27.2624 43.6324C27.1293 43.3218 27.2846 42.9447 27.6174 42.8115C27.8614 42.7228 28.1276 42.6562 28.3717 42.6562C28.7266 42.6784 29.0151 42.9225 29.0151 43.2553C29.0151 43.6102 28.7488 43.8987 28.416 43.8987C28.3051 43.8987 28.172 43.9208 28.0833 43.9652C28.0167 43.9874 27.928 44.0096 27.8614 44.0096L27.8392 44.0318Z" fill="#3E3A39"/>
<path d="M24.1796 36.7031C23.98 36.7031 23.8025 36.7475 23.625 36.8141Z" fill="#FBDACF"/>
<path d="M23.6247 37.4458C23.3806 37.4458 23.1366 37.2905 23.0479 37.0465C22.9147 36.7359 23.07 36.3587 23.3806 36.2256C23.6247 36.1369 23.8909 36.0703 24.1571 36.0703C24.4899 36.0703 24.8005 36.3365 24.8005 36.6693C24.8005 37.0243 24.5343 37.3127 24.2015 37.3127C24.0906 37.3127 23.9797 37.3349 23.8687 37.3793C23.78 37.4015 23.7134 37.4236 23.6247 37.4236V37.4458Z" fill="#3E3A39"/>
<path d="M42.371 33.7031C42.1714 33.7031 41.9939 33.7475 41.8164 33.8141Z" fill="#FBDACF"/>
<path d="M41.8177 34.438C41.5737 34.438 41.3296 34.2827 41.2409 34.0387C41.1078 33.7281 41.2631 33.3509 41.5959 33.2178C41.8399 33.1291 42.1061 33.0625 42.3502 33.0625C42.683 33.0625 42.9714 33.3287 42.9714 33.6615C42.9714 34.0165 42.7052 34.3049 42.3724 34.3049C42.2614 34.3049 42.1283 34.3271 42.0396 34.3715C41.973 34.3936 41.8843 34.4158 41.8177 34.4158V34.438Z" fill="#3E3A39"/>
</g>
</svg>
