<svg width="76" height="76" viewBox="0 0 76 76" fill="none" xmlns="http://www.w3.org/2000/svg">
<mask id="mask0_319_79" style="mask-type:alpha" maskUnits="userSpaceOnUse" x="0" y="0" width="76" height="76">
<circle cx="38" cy="38" r="38" fill="#D9D9D9"/>
</mask>
<g mask="url(#mask0_319_79)">
<path d="M61.9769 39.9093C61.9769 48.8946 51.4165 56.1937 38.3712 56.1937C25.326 56.1937 14.7656 48.9167 14.7656 39.9093C14.7656 30.9019 25.326 23.625 38.3712 23.625C51.4165 23.625 61.9769 30.9241 61.9769 39.9093Z" fill="#FBDACF"/>
<path d="M38.3721 56.8398C24.9941 56.8398 14.123 49.2523 14.123 39.9121C14.123 30.5719 24.9941 22.9844 38.3721 22.9844C51.7501 22.9844 62.6211 30.5719 62.6211 39.9121C62.6211 49.2523 51.7501 56.8398 38.3721 56.8398ZM38.3721 24.2711C25.704 24.2711 15.4098 31.2818 15.4098 39.9121C15.4098 48.5423 25.704 55.553 38.3721 55.553C51.0401 55.553 61.3343 48.5423 61.3343 39.9121C61.3343 31.2818 51.0401 24.2711 38.3721 24.2711Z" fill="#3E3A39"/>
<path d="M36.4636 23.4253C36.5967 23.1147 36.6854 22.7819 36.6854 22.4047C36.6854 21.007 35.5539 19.8977 34.1562 19.8977C33.6682 19.8977 33.2244 20.053 32.8251 20.2749C32.3814 19.5428 31.5827 19.0547 30.6731 19.0547C29.6525 19.0547 28.7873 19.6759 28.388 20.5411C27.9442 20.1418 27.3674 19.8977 26.724 19.8977C25.3263 19.8977 24.1948 21.0292 24.1948 22.4047C24.1948 22.7819 24.2836 23.1147 24.4167 23.4253C20.7561 25.1779 18.3156 28.4393 18.3822 32.1443C18.4487 37.6241 24.3502 40.5305 31.0059 40.4417C37.6616 40.353 42.5203 37.3135 42.4537 31.8337C42.4093 28.2174 40.0133 25.0892 36.4636 23.4031" fill="white"/>
<path d="M30.7176 41.1052C27.3232 41.1052 24.195 40.3509 21.8877 38.9532C19.2032 37.3336 17.7611 34.9819 17.7389 32.1865C17.6946 28.5259 19.9353 25.1093 23.6403 23.1347C23.596 22.9129 23.5516 22.6688 23.5516 22.4248C23.5516 20.6721 24.9715 19.2522 26.7242 19.2522C27.2344 19.2522 27.7447 19.3854 28.1884 19.6294C29.3199 18.1651 31.7825 18.0764 33.0249 19.4741C33.3799 19.341 33.7792 19.2522 34.1564 19.2522C35.909 19.2522 37.3289 20.6721 37.3289 22.4248C37.3289 22.6467 37.3067 22.8907 37.2624 23.1126C40.8343 24.9983 43.075 28.304 43.0972 31.8537C43.1638 37.378 38.416 41.0164 31.006 41.1052C30.9173 41.1052 30.8063 41.1052 30.7176 41.1052ZM26.7242 20.539C25.6814 20.539 24.8384 21.3821 24.8384 22.4026C24.8384 22.6688 24.9049 22.9129 25.0158 23.1791C25.149 23.4897 25.0158 23.8669 24.7052 24.0222C21.1555 25.7083 18.9813 28.8365 19.0257 32.1422C19.0701 35.0929 20.978 36.8677 22.5532 37.8439C24.7274 39.1528 27.7003 39.8628 30.9838 39.8184C36.264 39.7519 41.877 37.622 41.8105 31.8537C41.7661 28.5924 39.6584 25.6639 36.1975 24C35.8869 23.8447 35.7537 23.4675 35.8869 23.1569C35.9978 22.9129 36.0422 22.6688 36.0422 22.4026C36.0422 21.0271 34.4226 20.0509 33.1802 20.8274C33.0249 20.9162 32.8696 20.9384 32.6921 20.894C32.5146 20.8496 32.3815 20.7387 32.2928 20.6056C31.9378 20.0287 31.361 19.696 30.6954 19.696C29.9633 19.696 29.2977 20.1397 28.9871 20.8052C28.8984 20.9827 28.7431 21.138 28.5434 21.1602C28.3437 21.2046 28.144 21.1602 27.9887 21.0049C27.7447 20.7831 27.3232 20.5168 26.7463 20.5168L26.7242 20.539Z" fill="#3E3A39"/>
<path d="M31.9609 23.2891C31.9609 23.2891 33.4918 24.2652 33.2255 25.5298Z" fill="white"/>
<path d="M33.2244 26.1795C33.2244 26.1795 33.1356 26.1795 33.0912 26.1795C32.7363 26.0907 32.5366 25.7579 32.6032 25.403C32.7806 24.6265 31.6492 23.85 31.627 23.85C31.3386 23.6503 31.2498 23.251 31.4273 22.9625C31.627 22.6519 32.0041 22.5632 32.3147 22.7629C32.4035 22.8072 34.2449 24.0053 33.8456 25.6914C33.779 25.9798 33.5128 26.2017 33.2244 26.2017V26.1795Z" fill="#3E3A39"/>
<path d="M28.9663 23.3672C28.9663 23.3672 27.4133 24.3434 27.7017 25.6079Z" fill="white"/>
<path d="M27.7014 26.2431C27.413 26.2431 27.1467 26.0435 27.0802 25.7329C26.703 24.0468 28.5444 22.8487 28.611 22.8043C28.9216 22.6047 29.2987 22.7156 29.4984 23.004C29.6981 23.2924 29.6093 23.6918 29.2987 23.8914C29.2987 23.8914 28.1451 24.668 28.3226 25.4445C28.4113 25.7994 28.1895 26.1322 27.8345 26.221C27.7901 26.221 27.7457 26.221 27.7014 26.221V26.2431Z" fill="#3E3A39"/>
<path d="M51.4831 33.3003C51.6162 32.9897 51.705 32.6569 51.705 32.2797C51.705 30.882 50.5735 29.7727 49.1758 29.7727C48.6877 29.7727 48.244 29.928 47.8446 30.1499C47.4009 29.4178 46.6022 28.9297 45.6926 28.9297C44.6721 28.9297 43.8068 29.5509 43.4075 30.4161C42.9638 30.0168 42.3869 29.7727 41.7436 29.7727C40.3459 29.7727 39.2144 30.9042 39.2144 32.2797C39.2144 32.6569 39.3031 32.9897 39.4362 33.3003C35.7756 35.053 33.3352 38.3143 33.4017 42.0193C33.4683 47.4992 39.3697 50.4055 46.0254 50.3167C52.6811 50.228 57.5398 47.1886 57.4732 41.7087C57.4289 38.0924 55.0328 34.9642 51.4831 33.2781" fill="white"/>
<path d="M45.7384 50.9711C42.3439 50.9711 39.2379 50.2168 36.9306 48.8191C34.2462 47.1996 32.8041 44.8479 32.7819 42.0303C32.7375 38.3696 34.9783 34.953 38.6833 32.9785C38.6389 32.7566 38.5946 32.5126 38.5946 32.2685C38.5946 30.5159 40.0144 29.096 41.7671 29.096C42.2774 29.096 42.7877 29.2291 43.2314 29.4731C44.385 28.0089 46.8477 27.9201 48.0679 29.3178C48.4228 29.1847 48.8222 29.096 49.1993 29.096C50.952 29.096 52.3719 30.5159 52.3719 32.2685C52.3719 32.4904 52.3497 32.7344 52.3053 32.9563C55.8772 34.8421 58.118 38.17 58.1402 41.6975C58.2068 47.2217 53.459 50.8602 46.049 50.9711C45.938 50.9711 45.8493 50.9711 45.7384 50.9711ZM41.7449 30.4049C40.7022 30.4049 39.8591 31.248 39.8591 32.2685C39.8591 32.5348 39.9257 32.7788 40.0366 33.0451C40.1697 33.3557 40.0366 33.7328 39.726 33.8881C36.1763 35.5742 34.0021 38.7024 34.0465 42.0081C34.0909 44.9588 35.9988 46.7336 37.574 47.7098C39.7482 49.0188 42.7211 49.7065 46.0046 49.6844C51.2848 49.6178 56.8978 47.488 56.809 41.7197C56.7647 38.4584 54.6792 35.5299 51.1961 33.8659C50.8855 33.7106 50.7523 33.3557 50.8855 33.0229C50.9964 32.7788 51.0408 32.5348 51.0408 32.2685C51.0408 30.893 49.4212 29.9169 48.1788 30.6934C48.0235 30.7821 47.8682 30.8043 47.6907 30.7821C47.5132 30.7377 47.3801 30.6268 47.2914 30.4937C46.9586 29.9169 46.3596 29.5841 45.694 29.5841C44.9619 29.5841 44.2963 30.0278 43.9857 30.6934C43.897 30.8709 43.7417 31.0262 43.542 31.0483C43.3423 31.0927 43.1426 31.0483 42.9873 30.893C42.7433 30.6712 42.3218 30.4049 41.7449 30.4049Z" fill="#3E3A39"/>
<path d="M47.002 33.1562C47.002 33.1562 48.5328 34.1324 48.2665 35.397Z" fill="white"/>
<path d="M48.2673 36.047C48.2673 36.047 48.1786 36.047 48.1342 36.047C47.7792 35.9583 47.5796 35.6255 47.6461 35.2705C47.8236 34.494 46.67 33.7175 46.67 33.7175C46.3815 33.5179 46.2928 33.1185 46.4703 32.8301C46.67 32.5417 47.0471 32.453 47.3577 32.6304C47.4465 32.6748 49.2657 33.8728 48.8885 35.559C48.822 35.8696 48.5557 36.0692 48.2673 36.0692V36.047Z" fill="#3E3A39"/>
<path d="M43.9859 33.2266C43.9859 33.2266 42.4328 34.2027 42.7213 35.4673Z" fill="white"/>
<path d="M42.7209 36.1079C42.4325 36.1079 42.1662 35.9082 42.0997 35.5976C41.7225 33.9115 43.5639 32.7135 43.6527 32.6691C43.9633 32.4694 44.3404 32.5582 44.5401 32.8688C44.7398 33.1572 44.651 33.5565 44.3404 33.7562C44.3404 33.7562 43.1868 34.5327 43.3643 35.3092C43.453 35.6642 43.2312 35.997 42.8762 36.0857C42.8318 36.0857 42.7874 36.0857 42.7431 36.0857L42.7209 36.1079Z" fill="#3E3A39"/>
</g>
</svg>
