<svg width="76" height="76" viewBox="0 0 76 76" fill="none" xmlns="http://www.w3.org/2000/svg">
<mask id="mask0_319_101" style="mask-type:alpha" maskUnits="userSpaceOnUse" x="0" y="0" width="76" height="76">
<circle cx="38" cy="38" r="38" fill="#D9D9D9"/>
</mask>
<g mask="url(#mask0_319_101)">
<path d="M29.0765 25.9141L27.7231 49.6528C27.7231 50.6512 25.4158 51.472 22.5539 51.472C19.6919 51.472 17.3846 50.6512 17.3846 49.6528L16.0312 25.9141" fill="white"/>
<path d="M22.5312 52.0993C19.7358 52.0993 16.7186 51.3228 16.7186 49.6366L15.3652 25.9423C15.3652 25.5873 15.6093 25.2767 15.9642 25.2545C16.3636 25.2101 16.6298 25.4986 16.652 25.8535L18.0053 49.5923C18.0053 49.9251 19.5583 50.8125 22.5312 50.8125C25.5041 50.8125 27.0571 49.9472 27.0571 49.6366L28.4104 25.8535C28.4104 25.5207 28.721 25.2545 29.0538 25.2545C29.0538 25.2545 29.076 25.2545 29.0982 25.2545C29.4532 25.2545 29.7194 25.5873 29.6972 25.9423L28.3439 49.681C28.3439 51.3449 25.3266 52.0993 22.5312 52.0993Z" fill="#3E3A39"/>
<path d="M29.0759 25.8933C29.0759 27.1578 26.1474 28.2006 22.5311 28.2006C18.9148 28.2006 15.9863 27.1578 15.9863 25.8933C15.9863 24.6287 18.9148 23.5859 22.5311 23.5859C26.1474 23.5859 29.0759 24.6287 29.0759 25.8933Z" fill="white"/>
<path d="M22.5319 28.8543C18.96 28.8543 15.3438 27.8337 15.3438 25.9036C15.3438 22.0432 29.6979 22.0211 29.6979 25.9036C29.6979 27.8337 26.0816 28.8543 22.5319 28.8543ZM22.5319 24.2396C18.8713 24.2396 16.6305 25.3045 16.6305 25.9036C16.6305 26.5026 18.8713 27.5675 22.5319 27.5675C26.1926 27.5675 28.4111 26.5026 28.4111 25.9036C28.4111 25.3045 26.1704 24.2396 22.5319 24.2396Z" fill="#3E3A39"/>
<path d="M22.5313 35.5652C19.3366 35.5652 16.7408 34.7887 16.4746 33.8125L17.362 49.7419C17.362 50.7402 19.6694 51.5611 22.5313 51.5611C25.3933 51.5611 27.7006 50.7402 27.7006 49.7419L28.588 33.8125C28.3218 34.7887 25.7261 35.5652 22.5313 35.5652Z" fill="#E6E6E6"/>
<path d="M22.5321 52.2203C19.7367 52.2203 16.7195 51.4438 16.7195 49.7577L15.832 33.8727C15.832 33.54 16.0539 33.2515 16.3645 33.2072C16.6751 33.1628 17.0079 33.3625 17.0966 33.6731C17.1854 34.028 18.9602 34.9377 22.5321 34.9377C25.8156 34.9377 27.8345 34.0946 27.9676 33.6731C28.0564 33.3625 28.367 33.1406 28.6998 33.2072C29.0325 33.2515 29.2544 33.54 29.2322 33.8727L28.3448 49.8021C28.3448 51.466 25.3275 52.2425 22.5321 52.2425V52.2203ZM17.2075 35.2926L18.0062 49.6912C18.0062 50.0239 19.5592 50.9114 22.5321 50.9114C25.505 50.9114 27.058 50.0461 27.058 49.7355L27.8567 35.2926C25.2388 36.535 19.8255 36.535 17.2075 35.2926Z" fill="#3E3A39"/>
<path d="M22.532 31.7344C19.2485 31.7344 16.6084 32.5331 16.4531 33.5536V33.7976C16.7415 34.7738 19.3373 35.5503 22.532 35.5503C25.7268 35.5503 28.3225 34.7738 28.5887 33.7976V33.5536C28.4556 32.5331 25.8155 31.7344 22.532 31.7344Z" fill="#E6E6E6"/>
<path d="M22.5328 36.2121C19.5156 36.2121 16.2764 35.5243 15.8549 33.9935L15.8105 33.6385C16.0546 31.8415 19.3603 31.1094 22.5328 31.1094C25.7054 31.1094 29.0111 31.8415 29.2551 33.4832V33.8826C28.7892 35.5243 25.5723 36.2121 22.5328 36.2121ZM22.5328 32.374C18.9387 32.374 17.1639 33.3058 17.0973 33.6385V33.7273C17.2082 33.9713 18.9609 34.9031 22.5328 34.9031C25.8163 34.9031 27.8352 34.0601 27.9683 33.6385V33.4832C27.9018 33.2836 26.1269 32.374 22.5328 32.374Z" fill="#3E3A39"/>
<path d="M21.0901 39.2374C21.0901 39.659 20.7351 40.0139 20.3136 40.0139C19.8921 40.0139 19.5371 39.659 19.5371 39.2374C19.5371 38.8159 19.8921 38.4609 20.3136 38.4609C20.7351 38.4609 21.0901 38.8159 21.0901 39.2374Z" fill="white"/>
<path d="M24.7288 38.9093C24.7288 39.3308 24.3738 39.6858 23.9523 39.6858C23.5308 39.6858 23.1758 39.3308 23.1758 38.9093C23.1758 38.4878 23.5308 38.1328 23.9523 38.1328C24.3738 38.1328 24.7288 38.4878 24.7288 38.9093Z" fill="white"/>
<path d="M22.221 43.8312C22.221 44.2527 21.866 44.6077 21.4445 44.6077C21.0229 44.6077 20.668 44.2527 20.668 43.8312C20.668 43.4097 21.0229 43.0547 21.4445 43.0547C21.866 43.0547 22.221 43.4097 22.221 43.8312Z" fill="white"/>
<path d="M25.8147 45.2374C25.8147 45.659 25.4597 46.0139 25.0382 46.0139C24.6167 46.0139 24.2617 45.659 24.2617 45.2374C24.2617 44.8159 24.6167 44.4609 25.0382 44.4609C25.4597 44.4609 25.8147 44.8159 25.8147 45.2374Z" fill="white"/>
<path d="M22.1331 48.0265C22.1331 48.448 21.7781 48.803 21.3566 48.803C20.935 48.803 20.5801 48.448 20.5801 48.0265C20.5801 47.605 20.935 47.25 21.3566 47.25C21.7781 47.25 22.1331 47.605 22.1331 48.0265Z" fill="white"/>
<path d="M44.8284 25.9141L43.4751 49.6528C43.4751 50.6512 41.1678 51.472 38.3058 51.472C35.4439 51.472 33.1365 50.6512 33.1365 49.6528L31.7832 25.9141" fill="white"/>
<path d="M38.2832 52.1038C35.4878 52.1038 32.4705 51.3273 32.4705 49.6412L31.1172 25.9468C31.1172 25.5918 31.3612 25.2812 31.7162 25.2591C32.1377 25.2147 32.3818 25.5031 32.404 25.8581L33.7573 49.5968C33.7573 49.9296 35.3103 50.817 38.2832 50.817C41.2561 50.817 42.8091 49.9518 42.8091 49.6412L44.1624 25.8581C44.1624 25.5031 44.4064 25.1925 44.8502 25.2591C45.2051 25.2591 45.4714 25.5918 45.4492 25.9468L44.0958 49.6855C44.0958 51.3495 41.0786 52.1038 38.2832 52.1038Z" fill="#3E3A39"/>
<path d="M44.8279 25.8933C44.8279 27.1578 41.8993 28.2006 38.2831 28.2006C34.6668 28.2006 31.7383 27.1578 31.7383 25.8933C31.7383 24.6287 34.6668 23.5859 38.2831 23.5859C41.8993 23.5859 44.8279 24.6287 44.8279 25.8933Z" fill="white"/>
<path d="M38.2832 28.8459C34.7113 28.8459 31.1172 27.8254 31.1172 25.8952C31.1172 22.0349 45.4714 22.0349 45.4714 25.8952C45.4714 27.8254 41.8551 28.8459 38.2832 28.8459ZM38.2832 24.2313C34.6225 24.2313 32.404 25.2962 32.404 25.8952C32.404 26.4943 34.6447 27.5592 38.2832 27.5592C41.9216 27.5592 44.1846 26.4943 44.1846 25.8952C44.1846 25.2962 41.9438 24.2313 38.2832 24.2313Z" fill="#3E3A39"/>
<path d="M38.2833 35.5652C35.0885 35.5652 32.4928 34.7887 32.2266 33.8125L33.114 49.7419C33.114 50.7402 35.4213 51.5611 38.2833 51.5611C41.1452 51.5611 43.4525 50.7402 43.4525 49.7419L44.34 33.8125C44.0737 34.7887 41.478 35.5652 38.2833 35.5652Z" fill="#E6E6E6"/>
<path d="M38.2841 52.2203C35.4887 52.2203 32.4714 51.4438 32.4714 49.7577L31.584 33.8727C31.584 33.54 31.8058 33.2515 32.1164 33.2072C32.4714 33.1406 32.7598 33.3625 32.8486 33.6731C32.9595 34.0946 34.9784 34.9377 38.2841 34.9377C41.5897 34.9377 43.5865 34.0946 43.7196 33.6731C43.8083 33.3625 44.1189 33.1406 44.4517 33.2072C44.7845 33.2515 45.0064 33.54 44.9842 33.8727L44.1189 49.8021C44.1189 51.466 41.1017 52.2425 38.3063 52.2425L38.2841 52.2203ZM32.9595 35.2926L33.7582 49.6912C33.7582 50.0239 35.3112 50.9114 38.2841 50.9114C41.257 50.9114 42.81 50.0461 42.81 49.7355L43.6087 35.2926C40.9907 36.535 35.5774 36.535 32.9595 35.2926Z" fill="#3E3A39"/>
<path d="M38.284 31.7344C35.0005 31.7344 32.3604 32.5331 32.2051 33.5536V33.7976C32.4935 34.7738 35.0892 35.5503 38.284 35.5503C41.4787 35.5503 44.0744 34.7738 44.3407 33.7976V33.5536C44.2076 32.5331 41.5675 31.7344 38.284 31.7344Z" fill="#E6E6E6"/>
<path d="M38.2848 36.2121C35.2675 36.2121 32.0284 35.5243 31.6069 33.9935L31.5625 33.6385C31.8065 31.8415 35.1122 31.1094 38.2848 31.1094C41.4573 31.1094 44.7408 31.8415 44.9849 33.4832C44.9849 33.5276 44.9849 33.5942 44.9849 33.6385V33.8826C44.519 35.5243 41.2799 36.2121 38.2626 36.2121H38.2848ZM38.2848 32.374C34.6907 32.374 32.9158 33.3058 32.8493 33.6607V33.7495C32.9824 34.0823 35.0013 34.9253 38.2848 34.9253C41.5683 34.9253 43.5872 34.0823 43.7203 33.6607C43.565 33.2614 41.7679 32.3962 38.2848 32.3962V32.374Z" fill="#3E3A39"/>
<path d="M36.8421 39.2374C36.8421 39.659 36.4871 40.0139 36.0656 40.0139C35.644 40.0139 35.2891 39.659 35.2891 39.2374C35.2891 38.8159 35.644 38.4609 36.0656 38.4609C36.4871 38.4609 36.8421 38.8159 36.8421 39.2374Z" fill="white"/>
<path d="M41.301 38.1281C41.301 38.5496 40.9461 38.9046 40.5245 38.9046C40.103 38.9046 39.748 38.5496 39.748 38.1281C39.748 37.7065 40.103 37.3516 40.5245 37.3516C40.9461 37.3516 41.301 37.7065 41.301 38.1281Z" fill="white"/>
<path d="M37.6409 42.9796C37.6409 43.4012 37.2859 43.7561 36.8644 43.7561C36.4429 43.7561 36.0879 43.4012 36.0879 42.9796C36.0879 42.5581 36.4429 42.2031 36.8644 42.2031C37.2859 42.2031 37.6409 42.5581 37.6409 42.9796Z" fill="white"/>
<path d="M40.68 41.7531C40.68 42.1746 40.325 42.5296 39.9035 42.5296C39.4819 42.5296 39.127 42.1746 39.127 41.7531C39.127 41.3315 39.4819 40.9766 39.9035 40.9766C40.325 40.9766 40.68 41.3315 40.68 41.7531Z" fill="white"/>
<path d="M41.4339 46.8312C41.4339 47.2527 41.0789 47.6077 40.6574 47.6077C40.2358 47.6077 39.8809 47.2527 39.8809 46.8312C39.8809 46.4097 40.2358 46.0547 40.6574 46.0547C41.0789 46.0547 41.4339 46.4097 41.4339 46.8312Z" fill="white"/>
<path d="M37.885 48.0265C37.885 48.448 37.5301 48.803 37.1085 48.803C36.687 48.803 36.332 48.448 36.332 48.0265C36.332 47.605 36.687 47.25 37.1085 47.25C37.5301 47.25 37.885 47.605 37.885 48.0265Z" fill="white"/>
<path d="M60.5804 25.9141L59.227 49.6528C59.227 50.6512 56.9197 51.472 54.0578 51.472C51.1958 51.472 48.8885 50.6512 48.8885 49.6528L47.5352 25.9141" fill="white"/>
<path d="M54.0586 52.0993C51.2632 52.0993 48.2459 51.3228 48.2459 49.6366L46.8926 25.9423C46.8926 25.5873 47.1366 25.2767 47.4916 25.2545C47.8909 25.2101 48.1572 25.4986 48.1794 25.8535L49.5327 49.5923C49.5327 49.9251 51.0857 50.8125 54.0586 50.8125C57.0315 50.8125 58.5845 49.9472 58.5845 49.6366L59.9378 25.8535C59.9378 25.5207 60.2484 25.2545 60.5812 25.2545C60.5812 25.2545 60.6034 25.2545 60.6255 25.2545C60.9805 25.2545 61.2467 25.5873 61.2246 25.9423L59.8712 49.681C59.8712 51.3449 56.854 52.0993 54.0586 52.0993Z" fill="#3E3A39"/>
<path d="M60.5798 25.8933C60.5798 27.1578 57.6513 28.2006 54.035 28.2006C50.4187 28.2006 47.4902 27.1578 47.4902 25.8933C47.4902 24.6287 50.4187 23.5859 54.035 23.5859C57.6513 23.5859 60.5798 24.6287 60.5798 25.8933Z" fill="white"/>
<path d="M54.0573 28.8459C50.4854 28.8459 46.8691 27.8254 46.8691 25.8952C46.8691 22.0349 61.2233 22.0349 61.2233 25.8952C61.2233 27.8254 57.607 28.8459 54.0351 28.8459H54.0573ZM54.0573 24.2313C50.3967 24.2313 48.1559 25.2962 48.1559 25.8952C48.1559 26.4943 50.3967 27.5592 54.0573 27.5592C57.718 27.5592 59.9587 26.4943 59.9587 25.8952C59.9587 25.2962 57.718 24.2313 54.0573 24.2313Z" fill="#3E3A39"/>
<path d="M54.0587 35.5652C50.8639 35.5652 48.2682 34.7887 48.002 33.8125L48.8894 49.7419C48.8894 50.7402 51.1967 51.5611 54.0587 51.5611C56.9206 51.5611 59.2279 50.7402 59.2279 49.7419L60.1154 33.8125C59.8491 34.7887 57.2534 35.5652 54.0587 35.5652Z" fill="#E6E6E6"/>
<path d="M54.0575 52.2203C51.2621 52.2203 48.2449 51.4438 48.2449 49.7577L47.3574 33.8727C47.3574 33.54 47.5793 33.2515 47.8899 33.2072C48.2449 33.1406 48.5333 33.3625 48.622 33.6731C48.7329 34.0946 50.7518 34.9377 54.0575 34.9377C57.6294 34.9377 59.3821 34.028 59.493 33.6731C59.5818 33.3625 59.8924 33.1628 60.2252 33.2072C60.5579 33.2515 60.7798 33.54 60.7576 33.8727L59.8702 49.8021C59.8702 51.466 56.8529 52.2425 54.0575 52.2425V52.2203ZM48.7329 35.2926L49.5316 49.6912C49.5316 50.0239 51.0846 50.9114 54.0575 50.9114C57.0304 50.9114 58.5834 50.0461 58.5834 49.7355L59.3821 35.2926C56.7642 36.535 51.3509 36.535 48.7329 35.2926Z" fill="#3E3A39"/>
<path d="M54.0574 31.7344C50.7739 31.7344 48.1338 32.5331 47.9785 33.5536V33.7976C48.2669 34.7738 50.8627 35.5503 54.0574 35.5503C57.2522 35.5503 59.8479 34.7738 60.1141 33.7976V33.5536C59.981 32.5331 57.3409 31.7344 54.0574 31.7344Z" fill="#E6E6E6"/>
<path d="M54.0582 36.2121C51.041 36.2121 47.8018 35.5243 47.3803 33.9935L47.3359 33.6385C47.58 31.8415 50.8857 31.1094 54.0582 31.1094C57.2308 31.1094 60.5143 31.8415 60.7583 33.4832V33.8826C60.2924 35.5243 57.0755 36.2121 54.0582 36.2121ZM54.0582 32.374C50.4641 32.374 48.6893 33.3058 48.6227 33.6607V33.7495C48.7558 34.0823 50.7747 34.9253 54.0582 34.9253C57.6301 34.9253 59.3828 34.0157 59.4937 33.6607V33.5276C59.4272 33.3279 57.6523 32.4183 54.0582 32.4183V32.374Z" fill="#3E3A39"/>
<path d="M52.9495 41.3156C52.9495 41.7371 52.5945 42.0921 52.173 42.0921C51.7515 42.0921 51.3965 41.7371 51.3965 41.3156C51.3965 40.894 51.7515 40.5391 52.173 40.5391C52.5945 40.5391 52.9495 40.894 52.9495 41.3156Z" fill="white"/>
<path d="M50.7073 38.1281C50.7073 38.5496 50.3523 38.9046 49.9308 38.9046C49.5093 38.9046 49.1543 38.5496 49.1543 38.1281C49.1543 37.7065 49.5093 37.3516 49.9308 37.3516C50.3523 37.3516 50.7073 37.7065 50.7073 38.1281Z" fill="white"/>
<path d="M56.2327 38.9093C56.2327 39.3308 55.8777 39.6858 55.4562 39.6858C55.0347 39.6858 54.6797 39.3308 54.6797 38.9093C54.6797 38.4878 55.0347 38.1328 55.4562 38.1328C55.8777 38.1328 56.2327 38.4878 56.2327 38.9093Z" fill="white"/>
<path d="M55.7444 42.3937C55.7444 42.8152 55.3894 43.1702 54.9679 43.1702C54.5464 43.1702 54.1914 42.8152 54.1914 42.3937C54.1914 41.9722 54.5464 41.6172 54.9679 41.6172C55.3894 41.6172 55.7444 41.9722 55.7444 42.3937Z" fill="white"/>
<path d="M57.3186 45.2374C57.3186 45.659 56.9637 46.0139 56.5421 46.0139C56.1206 46.0139 55.7656 45.659 55.7656 45.2374C55.7656 44.8159 56.1206 44.4609 56.5421 44.4609C56.9637 44.4609 57.3186 44.8159 57.3186 45.2374Z" fill="white"/>
<path d="M53.5022 47.3468C53.5022 47.7683 53.1472 48.1233 52.7257 48.1233C52.3042 48.1233 51.9492 47.7683 51.9492 47.3468C51.9492 46.9253 52.3042 46.5703 52.7257 46.5703C53.1472 46.5703 53.5022 46.9253 53.5022 47.3468Z" fill="white"/>
</g>
</svg>
