<svg width="42" height="30" viewBox="0 0 42 30" fill="none" xmlns="http://www.w3.org/2000/svg">
<path d="M41.8884 15.1113C41.7967 20.0798 39.2997 23.3768 34.53 24.7272C33.9083 24.9056 33.6586 25.1961 33.4446 25.7566C32.4865 28.2842 30.6367 29.7161 27.9257 29.8792C25.0771 30.0524 22.9165 28.8753 21.6985 26.256C21.3673 25.5426 20.9342 25.2317 20.2004 25.1808C18.9824 25.0891 17.8919 24.6559 17.0409 23.7743C16.5976 23.3157 16.302 23.3106 15.8077 23.7437C14.2178 25.14 12.3374 25.563 10.2634 25.2063C7.21604 24.6865 5.26942 22.5258 5.09106 19.4275C4.99933 17.7867 4.9229 16.1458 4.89742 14.5049C4.88723 13.8679 4.69358 13.5825 4.06169 13.343C1.18252 12.2372 -0.13222 10.0919 0.0104643 6.92732C0.132766 4.22141 1.83479 1.87221 4.59166 1.24032C8.78048 0.28229 13.0304 -0.395463 17.3467 0.486125C17.8359 0.588043 18.2486 0.445358 18.6971 0.317961C22.3101 -0.69612 25.5103 0.751111 27.0339 4.15007C27.3295 4.80744 27.7015 4.86859 28.2926 4.8533C30.494 4.80234 32.67 5.03165 34.7899 5.64826C39.208 6.93242 41.97 10.632 41.8884 15.1062V15.1113ZM25.5714 21.262C25.5714 21.9806 25.5459 22.694 25.5765 23.4125C25.6326 24.7935 26.2237 25.4305 27.4518 25.4712C28.471 25.5069 29.2557 24.7578 29.3679 23.5297C29.4443 22.694 29.4188 21.843 29.4086 21.0022C29.4035 20.4569 29.5411 20.2327 30.1424 20.411C31.0036 20.6709 31.9056 20.6047 32.7821 20.5282C34.9173 20.3448 36.604 18.923 37.1544 16.8898C37.8015 14.5049 37.1136 12.2576 35.381 10.9735C33.8879 9.86255 32.1196 9.64343 30.3666 9.44979C27.2276 9.11346 26.8505 9.42431 26.2848 12.5634C26.2186 12.9354 26.1523 13.3074 26.1218 13.6845C26.0555 14.4845 25.9944 15.2234 25.2402 15.7891C24.6338 16.2426 24.5879 17.1497 24.9752 17.644C25.8772 18.7854 25.5612 20.0288 25.5714 21.2569V21.262ZM13.2037 16.1152C13.2037 16.1152 13.168 16.1152 13.1477 16.1152C13.1477 15.1878 13.1782 14.2603 13.1375 13.3379C13.0967 12.3697 12.9999 11.4066 12.9234 10.4435C12.8249 9.16272 13.4143 8.49176 14.6917 8.43061C16.2154 8.35417 16.9849 7.7019 16.9747 6.47889C16.9696 5.26606 16.2256 4.61889 14.6255 4.64946C12.8164 4.68513 11.0074 4.83291 9.20854 4.99089C8.03648 5.0928 6.85424 5.16924 5.72805 5.56672C4.6732 5.93872 4.11775 7.02414 4.40312 8.08409C4.64772 8.99625 5.61594 9.46507 6.74722 9.21028C7.03259 9.14403 7.31287 9.05231 7.59314 8.96568C8.46454 8.6905 8.84163 8.87395 8.93845 9.90842C9.22892 12.9252 9.3767 15.947 9.43275 18.9791C9.45823 20.3499 10.0341 20.8544 11.2775 20.8493C12.5514 20.8391 13.1171 20.3397 13.1935 19.03C13.2496 18.0669 13.2037 17.0936 13.2037 16.1254V16.1152ZM23.1101 16.6248C23.1407 14.9839 23.0235 13.3583 22.6617 11.7531C22.4018 10.6015 21.6935 10.0256 20.4857 10.1428C19.227 10.2651 18.8499 11.2181 18.8907 12.2016C18.9824 14.5864 19.2321 16.9662 19.436 19.346C19.5328 20.5079 20.2462 20.8849 21.3418 20.8493C22.4884 20.8136 23.0439 20.2276 23.0999 19.1473C23.1458 18.3115 23.1101 17.4707 23.1101 16.6299V16.6248ZM22.8502 6.30562C23.1967 5.24059 22.4935 4.58322 21.5304 4.44563C19.7825 4.19593 18.5748 5.20491 18.5493 6.69801C18.5238 8.00765 19.3188 8.86886 20.5927 8.91472C22.0756 8.96568 22.7993 8.17072 22.8502 6.31072V6.30562Z" fill="#6A83B4"/>
<path d="M25.5719 21.2572C25.5566 20.0291 25.8777 18.7857 24.9757 17.6442C24.5833 17.1499 24.6292 16.2479 25.2407 15.7893C25.9949 15.2237 26.056 14.4797 26.1223 13.6847C26.1529 13.3076 26.2191 12.9356 26.2853 12.5636C26.851 9.42965 27.2281 9.11371 30.3672 9.45004C32.1252 9.63858 33.8884 9.8628 35.3815 10.9737C37.1141 12.263 37.802 14.5052 37.1549 16.89C36.6045 18.9233 34.9178 20.345 32.7826 20.5285C31.901 20.6049 31.0041 20.6712 30.1429 20.4113C29.5416 20.2278 29.3989 20.4571 29.4091 21.0024C29.4193 21.8432 29.4448 22.6942 29.3684 23.53C29.2562 24.7581 28.4664 25.5072 27.4523 25.4715C26.2242 25.4256 25.6382 24.7937 25.577 23.4128C25.5464 22.6993 25.5719 21.9808 25.5719 21.2623V21.2572ZM31.473 16.783C32.8539 16.8136 33.5776 16.2683 33.6285 15.2441C33.6846 14.1586 32.4921 13.2006 30.8767 13.2261C29.0932 13.2567 29.9442 14.8058 29.7709 15.6161C29.455 17.1091 30.8971 16.4925 31.473 16.7881V16.783Z" fill="#FCFCFC"/>
<path d="M13.2037 16.1176C13.2037 17.0858 13.2496 18.0591 13.1935 19.0222C13.1171 20.3319 12.5514 20.8313 11.2775 20.8415C10.029 20.8517 9.45823 20.3421 9.43275 18.9713C9.38179 15.9392 9.22892 12.9225 8.93845 9.90061C8.84163 8.86614 8.45944 8.67759 7.59314 8.95787C7.31286 9.04959 7.03259 9.13622 6.74722 9.20247C5.61593 9.46236 4.64772 8.99354 4.40311 8.07628C4.11774 7.02143 4.67829 5.93091 5.72804 5.55891C6.84914 5.16143 8.03648 5.085 9.20853 4.98308C11.0125 4.82511 12.8215 4.67732 14.6255 4.64165C16.2307 4.61108 16.9696 5.26335 16.9747 6.47108C16.9798 7.69409 16.2154 8.34636 14.6917 8.4228C13.4177 8.48735 12.8283 9.15831 12.9234 10.4357C12.9948 11.3988 13.0967 12.3619 13.1375 13.3301C13.1731 14.2525 13.1477 15.1799 13.1477 16.1074C13.168 16.1074 13.1833 16.1074 13.2037 16.1074V16.1176Z" fill="#FCFCFC"/>
<path d="M22.8393 16.5879C22.8393 17.4288 22.875 18.2696 22.8292 19.1053C22.7731 20.1907 22.2126 20.7717 21.0711 20.8073C19.9755 20.843 19.262 20.4659 19.1652 19.304C18.9614 16.9243 18.7117 14.5445 18.62 12.1596C18.5843 11.1812 18.9614 10.2232 20.215 10.1009C21.4227 9.98367 22.1259 10.5595 22.3909 11.7112C22.7527 13.3164 22.8699 14.942 22.8393 16.5828V16.5879Z" fill="#FCFCFC"/>
<path d="M22.8499 6.30914C22.7989 8.16914 22.0753 8.9692 20.5924 8.91314C19.3133 8.86728 18.5235 8.00607 18.5489 6.69643C18.5795 5.20843 19.7872 4.19435 21.53 4.44405C22.4932 4.58164 23.1964 5.2441 22.8499 6.30405V6.30914Z" fill="#FCFCFC"/>
<path d="M31.4722 16.7918C30.8505 16.7001 29.0058 17.1434 29.3217 15.6503C29.495 14.8401 29.0873 13.2654 30.8709 13.2349C32.4863 13.2094 33.6787 14.1674 33.6227 15.2528C33.5717 16.2771 32.8481 16.8224 31.4671 16.7918H31.4722Z" fill="#6A83B4"/>
</svg>
