<svg width="621" height="185" viewBox="0 0 621 185" fill="none" xmlns="http://www.w3.org/2000/svg">
<rect x="1" y="42" width="619" height="142" rx="29" stroke="#BCCEE7" stroke-width="2" stroke-dasharray="2 2"/>
<path d="M222 20C222 8.9543 230.954 0 242 0H378C389.046 0 398 8.95431 398 20V43H222V20Z" fill="#BCCEE7"/>
<g clip-path="url(#clip0_1501_261612)">
<path d="M245.142 27.2789L245.56 42.9992H249.5L248.858 26.7734L245.142 27.2789Z" fill="#9D3400"/>
<path d="M249.511 42.9988L252.19 42.9988C252.206 43.2852 251.503 29.233 251.503 29.233L248.758 28.9297L249.511 42.9988Z" fill="#EA5532"/>
<path d="M234.042 21.0718C234.042 21.0718 255.454 9.02466 263.992 6.61522C269.115 5.18304 269.065 33.4054 269.065 33.4054C269.065 33.4054 235.08 30.6927 236.537 30.7096C234.561 30.6927 232.619 28.7551 232.134 26.4804C231.648 24.1721 232.803 21.8974 234.059 21.0718" fill="#D0121B"/>
<path d="M264.16 6.43368C262.72 6.66957 257.497 10.7134 258.217 19.7109C258.937 28.6915 264.896 33.999 268.831 33.4093C272.781 32.8364 274.74 24.496 274.004 17.4025C273.267 10.3259 267.675 5.86081 264.143 6.45053" fill="#FED600"/>
<path d="M258.267 16.3564L268.027 15.4297L268.981 21.9166L259.321 24.8821C259.321 24.8821 257.748 20.1643 258.267 16.3564Z" fill="#F5A200"/>
<path d="M267.073 10.5147L268.144 11.7953L275.778 5.84752L276.9 3L267.073 10.5147Z" fill="#761A00"/>
<path d="M268.361 27.0625L266.704 28.1745L277.117 34.9816L278.222 34.0549L268.361 27.0625Z" fill="#761A00"/>
</g>
<path d="M293.61 19.93C294.78 19.93 296.4 20.26 296.4 21.91C296.4 23.62 293.49 23.71 291.96 23.71H287.73C286.29 23.74 284.7 23.74 284.07 22.78C283.38 21.73 283.53 19.36 283.53 19.24L283.59 13.84C283.59 13.6 283.59 12.43 283.89 11.92C284.25 11.35 284.58 11.11 285.21 11.02C285.66 10.93 286.23 10.9 286.95 10.9C287.34 10.9 292.44 10.96 292.83 11.02C293.88 11.02 295.14 10.99 295.77 12.01C296.22 12.7 296.19 13.57 295.71 14.23C295.26 14.89 293.94 14.95 293.28 14.95L287.7 14.92L287.76 19.84C288.81 19.93 292.56 19.96 293.61 19.93ZM288.42 34.39C286.8 34.39 285.69 33.55 285.69 32.65V28.33C285.66 27.88 285.66 27.43 285.69 26.98C285.78 26.14 286.41 25.57 287.31 25.57C287.52 25.57 288.18 25.6 288.39 25.66C289.44 25.99 289.5 27.01 289.56 27.91C289.59 28.24 289.62 30.55 289.68 30.82C289.8 30.85 290.22 30.94 291.69 30.94C292.98 30.94 293.1 30.88 293.13 30.88H302.64C302.67 30.91 303.87 31.18 303.99 32.02C304.08 32.77 303.96 33.37 303.6 33.79C303.12 34.36 302.4 34.39 302.37 34.39H288.42ZM304.71 19.81H303.12V23.11C303.09 23.53 303.03 24.01 302.79 24.46C302.67 24.7 302.49 24.91 302.28 25.06C301.98 25.27 301.5 25.36 301.17 25.36C300.87 25.36 300.45 25.3 300.21 25.15C299.4 24.67 299.28 23.56 299.28 23.53V12.73C299.25 12.58 299.31 11.65 299.55 11.17C299.73 10.78 300.3 10.51 300.87 10.45C301.56 10.36 302.31 10.54 302.64 10.9C302.88 11.2 302.94 11.5 303.03 11.83C303.15 12.22 303.15 12.7 303.12 13.12V16.48C303.45 16.51 305.37 16.54 305.73 16.63C306.51 16.78 306.78 17.11 306.87 17.53C306.99 17.95 307.02 18.64 306.78 19.03C306.3 19.81 305.88 19.78 304.71 19.81ZM310.862 30.82C310.802 30.82 309.632 30.55 309.512 29.71C309.392 28.96 309.512 28.36 309.872 27.91C310.352 27.34 311.072 27.34 311.102 27.34H317.282C317.222 26.59 317.342 26.14 317.342 25.36C315.512 25.36 311.012 25.3 309.332 25.18C308.702 25.12 308.402 25.09 307.892 24.61C307.622 24.37 307.502 23.98 307.502 23.56C307.502 23.17 307.652 22.78 307.892 22.54C308.492 21.91 309.962 21.94 310.022 21.94H327.182C327.782 21.94 328.382 21.94 328.952 21.97C329.492 22 330.092 22.09 330.512 22.48C330.932 22.81 330.932 23.2 330.932 23.68C330.932 24.28 330.572 24.73 329.972 24.94C329.162 25.24 328.172 25.27 327.332 25.3C325.352 25.36 323.492 25.42 321.482 25.42C321.452 26.14 321.392 26.56 321.392 27.34H325.922C325.922 27.34 326.012 27.31 326.132 27.31C327.752 27.31 328.712 27.85 328.712 28.78V30.82C328.712 31.03 328.742 31.24 328.742 31.45C328.742 31.87 328.772 33.16 328.712 33.61C328.652 34.45 327.992 35.02 327.092 35.02C326.882 35.02 326.672 34.99 326.462 34.93C325.382 34.6 325.322 33.61 325.292 32.71C325.262 32.35 325.232 31.18 325.172 30.88C325.052 30.85 324.632 30.79 323.162 30.79C321.872 30.79 320.882 30.82 320.882 30.82H310.862ZM326.282 16.66C327.032 16.99 327.782 17.5 328.412 18.01C329.072 18.58 328.862 19.9 327.872 20.08C326.612 20.35 325.112 19.96 323.972 19.45C322.892 18.97 321.992 18.55 321.092 18.04C320.552 17.74 319.022 16.96 319.022 16.96C319.022 16.96 317.192 17.77 316.562 18.07C315.512 18.61 314.732 18.94 313.682 19.42C312.902 19.75 312.062 20.29 311.162 20.23C310.442 20.2 309.632 19.9 309.482 19.12C309.452 18.91 309.482 18.67 309.542 18.43C309.692 17.86 310.112 17.5 310.652 17.17L312.722 16.15C313.412 15.79 313.832 15.61 314.552 15.28C314.882 15.1 315.302 14.89 315.722 14.68H313.832C313.202 14.68 312.812 14.71 312.212 14.65C311.762 14.59 311.192 14.65 310.772 14.44C310.532 14.32 310.352 14.11 310.232 13.87C309.992 13.48 309.932 12.91 310.142 12.49C310.442 11.86 311.282 11.53 312.032 11.53H312.722C313.352 11.56 313.502 11.53 314.132 11.53H316.802V10.63C316.802 9.43 318.062 9.04 319.262 9.16C320.342 9.28 320.942 9.58 320.972 10.36C321.002 10.63 321.032 11.08 321.032 11.53H324.512C325.832 11.53 328.082 11.2 328.502 12.91C328.982 14.86 325.742 14.8 324.482 14.74C323.852 14.71 323.102 14.71 322.472 14.71C322.592 14.77 322.742 14.86 322.862 14.92C323.252 15.13 323.642 15.28 324.032 15.49C324.782 15.85 325.532 16.27 326.282 16.66ZM342.131 20.5C342.941 20.5 343.931 20.56 345.071 20.59C345.071 20.17 345.071 19.78 345.101 19.39C345.071 19.39 345.041 19.39 345.011 19.36C343.001 18.55 341.411 17.68 341.411 15.28C341.411 14.71 341.471 14.2 341.621 13.75C340.661 13.75 339.881 13.03 339.881 12.13C339.881 11.26 340.691 10.54 341.651 10.54H345.611V9.55C345.611 8.8 346.391 8.17 347.351 8.17C348.311 8.17 349.121 8.8 349.121 9.55V10.54H353.261C354.251 10.54 355.061 11.26 355.061 12.13C355.061 13.03 354.281 13.72 353.321 13.75C353.441 14.2 353.531 14.71 353.531 15.28C353.531 16.96 353.051 17.68 351.671 18.67C350.981 19.18 350.051 19.48 349.061 19.6V20.53V20.68C350.561 20.68 350.321 20.59 352.451 20.65C353.201 20.65 353.921 20.59 354.611 20.89C355.121 21.13 355.451 21.7 355.451 22.33C355.451 22.84 355.241 23.02 354.911 23.38C354.341 23.98 353.441 23.95 352.721 23.89H342.131C342.071 23.89 340.811 23.92 340.331 23.23C340.091 22.99 339.971 22.75 339.971 22.33C339.971 21.91 340.121 21.61 340.331 21.34C340.781 20.83 341.621 20.56 342.131 20.5ZM360.191 32.08C360.821 32.14 361.361 32.35 361.541 32.98C361.781 33.7 361.511 34.21 360.761 34.51C360.281 34.69 359.771 34.72 359.351 34.72H345.401C344.591 34.72 343.721 34.69 342.851 34.66C342.011 34.63 341.411 34 341.321 33.1L341.231 31C341.201 30.58 341.171 29.86 341.531 29.47C342.071 28.87 343.151 28.78 344.021 28.78C345.161 28.78 348.971 28.81 358.121 28.81V27.73H343.361C342.971 27.73 342.641 27.73 342.341 27.67C341.981 27.58 341.681 27.58 341.501 27.25C341.231 26.83 341.141 26.44 341.291 25.96C341.501 25.33 342.401 25.24 342.851 25.18C343.151 25.12 343.451 25.09 343.781 25.09C345.581 25.09 347.681 25.12 358.421 25.12C360.431 25.12 361.571 25.72 361.571 27.1V29.23C361.571 29.77 361.331 30.37 360.701 30.73C360.191 31.03 359.651 31 359.141 31H344.921V32.08H360.191ZM357.401 21.58V13.87C357.371 12.97 357.401 11.5 357.911 10.99C358.361 10.6 358.811 10.54 359.351 10.54C360.011 10.54 360.611 10.96 360.851 11.56C361.181 12.4 361.151 13.3 361.181 14.17C361.181 15.16 361.181 15.94 361.211 16.66C362.081 16.66 362.921 16.69 363.431 16.72C364.481 16.78 365.201 18.37 364.571 19.18C364.001 19.99 362.591 20.11 361.241 20.05V21.25C361.241 22.09 361.091 22.45 360.941 22.9C360.911 23.02 360.851 23.14 360.791 23.29C360.671 23.53 360.491 23.77 360.251 23.92C359.831 24.19 359.291 24.25 358.781 24.16C358.541 24.1 358.271 23.98 358.061 23.8C357.371 23.14 357.401 21.64 357.401 21.58ZM347.231 16.6C348.371 16.66 349.931 16.66 349.931 15.28C349.931 14.17 349.331 13.84 348.551 13.75H346.091C345.371 13.87 344.831 14.23 344.831 15.28C344.891 16.6 346.061 16.66 347.231 16.6ZM384.69 22C385.35 22.03 386.1 22.15 386.67 22.6C386.94 22.81 387.09 23.17 387.09 23.53C387.09 23.92 386.94 24.43 386.7 24.64C386.07 25.24 384.51 25.18 384.45 25.18L368.46 25.21C367.56 25.24 366.45 25.3 365.79 24.76C365.34 24.43 365.1 24.1 365.1 23.65C365.1 23.11 365.52 22.42 366.15 22.21C366.99 21.94 367.89 22.03 368.79 22C370.74 21.94 371.37 22 373.38 22V20.29C371.73 20.26 369.99 20.23 369.24 20.2C368.25 20.23 366.54 20.08 366.24 19C366.03 18.1 365.94 18.22 365.94 17.29V14.08C365.91 14.14 365.85 12.64 366.36 11.83C366.87 10.99 368.7 10.96 368.91 10.96H382.11C382.95 10.96 383.88 10.9 384.69 11.2C385.35 11.47 385.56 12.19 385.53 12.91C385.47 13.57 385.02 14.11 384.33 14.29C383.97 14.38 383.4 14.41 382.65 14.41C382.14 14.41 381.72 14.38 381.72 14.38H371.1C370.89 14.35 370.44 14.35 370.23 14.47C370.02 14.56 370.05 16.48 370.14 16.69C370.29 16.96 370.95 16.93 371.37 16.9C372.33 16.87 374.13 16.9 380.16 16.9H382.38C383.37 16.9 384.21 16.84 384.87 17.17C385.26 17.35 385.56 17.74 385.68 18.19C385.77 18.67 385.65 19.18 385.38 19.54C384.75 20.32 384 20.2 383.13 20.23C382.47 20.26 379.44 20.29 377.58 20.29C377.61 20.86 377.64 21.52 377.64 22C379.86 22 382.98 21.91 384.69 22ZM366.06 30.76C366.06 27.37 370.47 26.56 375.87 26.56C381.3 26.56 385.71 26.98 385.71 30.76C385.71 34.48 381.3 34.96 375.87 34.96C370.47 34.96 366.06 34.48 366.06 30.76ZM381.75 30.76C381.75 29.47 378.63 29.5 375.87 29.5C373.14 29.5 370.2 29.47 370.2 30.76C370.2 31.9 373.14 32.02 375.87 32.02C378.63 32.02 381.75 32.26 381.75 30.76Z" fill="#1A3459"/>
<defs>
<clipPath id="clip0_1501_261612">
<rect width="46.2222" height="40" fill="white" transform="translate(232 3)"/>
</clipPath>
</defs>
</svg>
