<svg width="82" height="42" viewBox="0 0 82 42" fill="none" xmlns="http://www.w3.org/2000/svg">
<path d="M70.1127 0H11.6714C5.23153 0 0 5.27409 0 11.7802V30.2337C0 36.7397 5.23153 42 11.6714 42H70.3286C76.7822 42 82 36.7259 82 30.2337V9.90587L70.1127 0Z" fill="#D7DF96"/>
<rect x="60" y="8.55859" width="12" height="2.88" rx="1.44" fill="#FFF100"/>
<rect x="67.4385" y="4" width="12" height="2.88" rx="1.44" transform="rotate(90 67.4385 4)" fill="#FFF100"/>
<path d="M12.032 18.424C11.968 18.424 11.936 18.392 11.936 18.36C11.52 18.04 11.392 17.24 11.392 16.76C11.36 15.992 11.264 15.224 11.264 14.488C11.264 13.4 11.232 12.088 11.424 11.032C11.552 10.36 11.808 9.976 12.448 9.72C13.024 9.496 13.632 9.432 14.24 9.368C14.976 9.304 15.744 9.368 16.512 9.368H22.592C24.768 9.368 24.48 9.368 26.624 9.336C27.008 9.336 27.36 9.336 27.744 9.368C28.544 9.4 29.44 9.432 30.176 9.784C31.008 10.136 31.264 11.032 31.296 11.864C31.36 12.824 31.264 14.04 31.264 15C31.232 15.864 31.264 16.728 31.04 17.56C30.912 18.04 30.816 18.424 30.304 18.584C29.856 18.744 29.28 18.776 28.832 18.776H15.008C14.592 18.776 14.176 18.744 13.76 18.712C13.216 18.68 12.512 18.744 12.032 18.424ZM29.792 24.536C27.68 24.6 26.016 24.664 23.872 24.664C23.84 25.56 23.776 26.392 23.776 27.608C23.584 28.504 22.4 29.048 21.536 29.016C20.256 28.952 19.552 28.44 19.424 27.16C19.328 26.328 19.456 25.432 19.456 24.6C17.504 24.6 12.384 24.536 10.592 24.408C9.92 24.344 9.6 24.312 9.056 23.8C8.768 23.544 8.64 23.064 8.64 22.616C8.64 22.2 8.8 21.784 9.056 21.528C9.696 20.856 11.264 20.888 11.328 20.888H29.632C30.272 20.888 30.912 20.888 31.52 20.92C32.096 20.952 32.736 21.048 33.184 21.464C33.632 21.816 33.632 22.232 33.632 22.744C33.632 23.384 33.248 23.928 32.608 24.152C31.744 24.472 30.688 24.504 29.792 24.536ZM30.688 30.584C30.752 30.616 31.936 30.904 32.064 31.8C32.192 32.6 32.064 33.24 31.68 33.688C31.2 34.296 30.496 34.328 30.464 34.328H12.992C11.36 34.328 10.368 33.752 10.368 32.792V29.944C10.336 29.464 10.336 28.984 10.368 28.504C10.432 27.608 11.104 27 12 27C12.224 27 12.672 27.032 12.864 27.096C13.952 27.448 14.016 28.536 14.08 29.496C14.08 29.848 14.112 30.232 14.208 30.52C14.304 30.552 14.944 30.648 16.448 30.648C17.728 30.648 18.912 30.584 18.944 30.584H30.688ZM15.072 14.68C15.072 14.872 15.072 15.096 15.168 15.192C15.36 15.352 16.096 15.256 16.096 15.256H24.512C24.512 15.256 26.048 15.384 26.816 15.288C27.264 15.256 27.264 15.064 27.328 14.68C27.36 14.328 27.424 13.592 27.168 13.272C26.88 12.92 26.208 12.984 25.824 13.016H22.912C22.624 12.984 18.752 13.016 18.464 13.016C17.568 12.952 16.672 12.984 15.744 13.016C15.36 13.016 15.232 12.952 15.136 13.336C15.072 13.624 15.072 14.136 15.072 14.392V14.68ZM37.8013 28.376C37.9613 28.312 40.9053 28.44 41.4493 28.44C41.4813 27.928 41.5453 25.816 41.6093 24.76C41.2253 24.664 40.8733 24.568 40.5213 24.408C38.1213 23.416 36.2653 21.464 36.2653 18.648C36.2653 17.112 36.7133 15.928 37.4493 15H37.0973C36.0733 15 35.2093 14.232 35.2093 13.304C35.2093 12.344 36.0733 11.576 37.0973 11.576H41.3213V10.264C41.3213 9.432 42.1533 8.824 43.1773 8.824C44.2333 8.824 45.0653 9.432 45.0653 10.264V11.576H49.4813C50.5373 11.576 51.4013 12.344 51.4013 13.304C51.4013 14.232 50.5373 15 49.4813 15H49.3853C50.1213 15.928 50.6013 17.112 50.6013 18.648C50.6013 20.632 49.6413 22.264 48.0413 23.48C47.2413 24.056 46.3453 24.472 45.4173 24.728C45.4813 25.72 45.4813 27.928 45.4813 28.408V28.44H49.7373C50.4412 28.44 51.0173 28.568 51.4333 28.824C52.3933 29.4 52.3612 30.968 51.9453 31.736C51.5613 32.408 50.7292 32.472 50.0573 32.472H37.4173C37.3853 32.472 36.2973 32.376 35.7213 32.12C35.3053 31.896 34.9853 31.416 34.8893 30.808C34.7933 30.136 35.0173 29.496 35.4333 29.112C36.2013 28.472 37.0653 28.376 37.8013 28.376ZM59.0173 19.768H59.0813C59.3053 19.736 59.4973 19.8 59.6893 19.8C59.9453 19.832 60.1693 19.864 60.4253 19.896C60.9053 19.992 61.4173 20.184 61.6733 20.664C61.8013 20.92 61.8653 21.208 61.8653 21.528C61.8653 21.816 61.8653 22.136 61.8013 22.424C61.7053 22.744 61.6093 23.192 61.3533 23.416C61.0973 23.608 60.7773 23.768 60.4573 23.832C59.7853 23.928 58.6333 23.832 57.9613 23.864C57.8973 23.896 57.8653 23.896 57.8653 23.896C57.8653 23.896 57.8653 23.928 57.8333 24.024C57.8013 25.08 57.8333 26.008 57.8333 27.096C57.8653 28.184 57.8653 29.304 57.8333 30.36V30.808C57.8333 31.928 57.8653 33.56 57.0973 34.36C56.8093 34.616 56.4573 34.776 56.0413 34.776H55.9773C53.8973 34.68 53.7053 32.184 53.7053 30.84V11.832C53.7053 11.768 53.6413 10.168 54.3453 9.464C54.6653 9.176 55.3373 9.016 55.7853 9.016C56.2653 9.016 56.7133 9.208 57.0013 9.496C57.5453 10.104 57.6093 10.776 57.6413 11.48C57.6733 11.608 57.6733 11.736 57.7053 11.896C57.7693 12.568 57.7693 13.368 57.8013 14.136C57.8013 14.616 57.8333 15.064 57.8333 15.512V18.968C57.8333 19.192 57.8333 19.448 57.8973 19.672C57.8973 19.704 58.5373 19.704 58.6013 19.736C58.7293 19.736 58.8893 19.768 59.0173 19.768ZM44.0413 21.208C45.4173 20.952 46.6013 20.28 46.6013 18.648C46.6013 16.76 45.0333 16.056 43.4653 16.024C41.8653 15.96 40.2653 16.632 40.2653 18.648C40.2653 20.952 42.2812 21.56 44.0413 21.208Z" fill="#538D6D"/>
</svg>
