<svg width="132" height="30" viewBox="0 0 132 30" fill="none" xmlns="http://www.w3.org/2000/svg">
<path d="M9.63696 4.63672C15.3575 4.63672 20 9.27918 20 14.9998C20 20.7203 15.3575 25.3628 9.63696 25.3628C5.25853 25.3628 1.51815 22.6565 0 18.8281H6.88669V21.5344C6.88669 22.1065 7.34873 22.5685 7.92079 22.5685C8.20682 22.5685 8.44884 22.4585 8.64686 22.2825L16.3036 15.7918C16.7437 15.4178 16.7877 14.7577 16.4136 14.3177C16.3696 14.2737 16.3256 14.2297 16.2816 14.1857L8.58086 7.65102C8.14081 7.27698 7.48075 7.34299 7.12871 7.78303C6.95269 7.98105 6.88669 8.22308 6.88669 8.4431V11.1494H0C1.51815 7.34299 5.25853 4.63672 9.63696 4.63672Z" fill="#A87752"/>
<path d="M31.4396 6.648V24.048L29.1596 24.024V9.12L26.2316 10.872L25.1996 9L29.1836 6.648H31.4396ZM35.3112 22.056C38.7912 18.696 43.7112 15.024 43.7112 12.024C43.7112 9.96 42.4152 8.496 40.5432 8.496C39.1512 8.496 37.7352 9.528 37.0872 10.992L35.0712 10.128C36.0072 7.944 38.2872 6.432 40.5432 6.432C43.7592 6.432 45.9912 8.736 45.9912 12.024C45.9912 15.696 41.7912 19.152 38.4792 22.056H46.2792V24.048H35.5512L35.3112 22.056ZM54.7107 8.424C52.5267 8.424 51.0147 9.984 51.0147 12.216C51.0147 14.448 52.5267 16.008 54.7107 16.008C56.8227 16.008 58.3347 14.448 58.3347 12.216C58.3347 9.984 56.8227 8.424 54.7107 8.424ZM60.6147 12.216C60.6147 13.464 60.1827 14.592 59.6787 15.504L54.8307 24.072H52.2147L55.7427 17.88C55.3827 17.952 55.0227 18 54.6387 18C51.1587 18 48.7347 15.6 48.7347 12.216C48.7347 8.808 51.1827 6.432 54.6627 6.432C58.1667 6.432 60.6147 8.808 60.6147 12.216ZM63.9431 5.424H71.8631V7.296H69.3911V7.512C69.3911 8.616 70.4471 10.104 72.2951 10.896C74.1431 10.128 75.1511 8.688 75.1511 7.512V7.296H72.7031V5.424H80.5991V7.296H77.5271V7.608C77.5271 9.12 78.8471 10.8 81.3671 11.448L80.3591 13.2C78.2951 12.6 76.9271 11.352 76.2551 9.888C75.5591 11.184 74.2391 12.36 72.2711 12.912C70.3031 12.36 68.9831 11.16 68.2871 9.864C67.6151 11.304 66.2471 12.576 64.1831 13.2L63.2231 11.448C65.6951 10.752 67.0391 8.976 67.0391 7.608V7.296H63.9431V5.424ZM62.6951 15.024H71.1191V13.056H73.4471V15.024H81.9191V16.92H62.6951V15.024ZM64.7831 18.984H79.4951V25.872H77.1431V20.832H64.7831V18.984ZM103.435 4.632H105.787V9.912H108.763V11.856H105.787V17.136H103.435V4.632ZM91.8669 18.048H105.787V22.512H94.2189V24.048H106.579V25.68H91.8909V21.024H103.483V19.632H91.8669V18.048ZM89.0349 15.096C90.6429 15.096 92.5149 15.096 94.4829 15.048V13.872C92.1069 13.632 90.6189 12.648 90.6189 11.112C90.6189 9.384 92.5869 8.328 95.6349 8.328C98.7069 8.328 100.675 9.384 100.675 11.112C100.675 12.648 99.2109 13.632 96.8349 13.872V14.952C98.7069 14.88 100.555 14.736 102.307 14.496L102.475 15.936C97.9869 16.728 92.9949 16.776 89.2989 16.776L89.0349 15.096ZM89.5629 6.12H94.4829V4.416H96.8349V6.12H101.707V7.752H89.5629V6.12ZM95.6349 9.84C93.9069 9.84 92.8509 10.296 92.8509 11.112C92.8509 11.928 93.9069 12.408 95.6349 12.408C97.3869 12.408 98.4429 11.928 98.4429 11.112C98.4429 10.296 97.3869 9.84 95.6349 9.84ZM110.179 14.976H114.739V12.144C113.131 11.472 112.219 10.392 112.219 9C112.219 6.48 115.147 4.992 119.779 4.992C124.411 4.992 127.339 6.48 127.339 9C127.339 10.416 126.403 11.496 124.771 12.168V14.976H129.355V16.848H110.179V14.976ZM119.755 18.264C124.315 18.264 127.051 19.632 127.051 22.056C127.051 24.504 124.315 25.872 119.755 25.872C115.195 25.872 112.435 24.504 112.435 22.056C112.435 19.632 115.195 18.264 119.755 18.264ZM119.755 20.064C116.587 20.064 114.811 20.76 114.811 22.056C114.811 23.352 116.587 24.048 119.755 24.048C122.899 24.048 124.675 23.352 124.675 22.056C124.675 20.76 122.899 20.064 119.755 20.064ZM119.779 6.816C116.563 6.816 114.643 7.608 114.643 9C114.643 10.392 116.563 11.184 119.779 11.184C122.971 11.184 124.891 10.392 124.891 9C124.891 7.608 122.971 6.816 119.779 6.816ZM117.091 14.976H122.443V12.792C121.627 12.912 120.739 12.984 119.779 12.984C118.795 12.984 117.907 12.912 117.091 12.792V14.976Z" fill="#A87752"/>
</svg>
