<svg width="945" height="381" viewBox="0 0 945 381" fill="none" xmlns="http://www.w3.org/2000/svg">
<path d="M41 46H33C16.4315 46 3 59.4315 3 76V340.778C3 353.603 13.3969 364 26.2222 364V364" stroke="#CFD686" stroke-width="5" stroke-dasharray="1 1"/>
<path d="M70.5628 356.041H73.2028V357.937C73.2028 360.841 74.8588 363.505 78.1468 364.561L76.7548 366.625C74.4748 365.833 72.8668 364.273 71.9548 362.281C71.0188 364.585 69.2428 366.385 66.6748 367.273L65.3068 365.137C68.7868 363.985 70.5628 361.129 70.5628 358.033V356.041ZM80.5228 354.889H83.1628V367.441H80.5228V361.177H76.3468V358.993H80.5228V354.889ZM76.0348 368.017C80.4988 368.017 83.2588 369.529 83.2588 372.121C83.2588 374.737 80.4988 376.225 76.0348 376.225C71.5468 376.225 68.7628 374.737 68.7628 372.121C68.7628 369.529 71.5468 368.017 76.0348 368.017ZM76.0348 370.057C73.0588 370.057 71.4268 370.777 71.4268 372.121C71.4268 373.465 73.0588 374.185 76.0348 374.185C78.9628 374.185 80.6428 373.465 80.6428 372.121C80.6428 370.777 78.9628 370.057 76.0348 370.057ZM86.4273 371.497H94.7793V366.601H97.4193V371.497H105.771V373.657H86.4273V371.497ZM88.0353 356.617H104.115V358.729H97.4433C97.5153 361.801 100.635 364.609 105.003 365.281L103.971 367.369C100.371 366.697 97.4673 364.801 96.0993 362.137C94.7313 364.825 91.8513 366.769 88.2993 367.465L87.2433 365.377C91.5393 364.681 94.6353 361.801 94.7073 358.729H88.0353V356.617ZM112.935 371.641H117.927V367.249H114.591V365.137H117.567V358.777H114.495V356.665H130.599V358.777H127.551V365.137H130.551V367.249H127.191V371.641H132.279V373.777H112.935V371.641ZM120.207 365.137H124.935V358.777H120.207V365.137ZM120.543 371.641H124.599V367.249H120.543V371.641ZM148.936 354.865H151.576V376.225H148.936V354.865ZM145.264 357.097C145.264 363.505 142.84 368.881 135.4 372.481L134.032 370.393C139.576 367.729 142.096 364.105 142.552 359.233H135.088V357.097H145.264Z" fill="#8A9347"/>
<path d="M50.4158 362.124C50.4935 362.61 50.5324 363.115 50.5324 363.62C50.5324 369.098 46.0839 373.546 40.5865 373.546C35.0891 373.546 30.6601 369.098 30.6601 363.62C30.6601 358.142 35.1085 353.693 40.5865 353.693C42.8593 353.693 44.9378 354.451 46.6084 355.733L47.8905 354.451C45.8897 352.858 43.3449 351.906 40.5865 351.906C34.0984 351.906 28.8535 357.171 28.8535 363.639C28.8535 370.108 34.1178 375.372 40.5865 375.372C47.0552 375.372 52.3389 370.108 52.3389 363.639C52.3389 362.59 52.203 361.58 51.9504 360.628L50.4158 362.163V362.124Z" fill="#EDB476"/>
<path d="M52.0859 352.797L40.586 364.277L35.4771 359.168L33.418 362.238L40.586 369.386L54.1256 355.847L52.0859 352.797Z" fill="#EDB476"/>
<path d="M928.387 69H38.613C29.4379 69 22 77.9319 22 88.9499V316.05C22 327.068 29.4379 336 38.613 336H928.387C937.562 336 945 327.068 945 316.05V88.9499C945 77.9319 937.562 69 928.387 69Z" fill="#F9FAF1"/>
<path d="M100 46H75V56H100V46Z" fill="#C2CC66"/>
<path d="M94 46.4409V49.0866C94 52.9134 97.1412 56 101 56C104.859 56 108 52.8976 108 49.0866V46" fill="#8A9347"/>
<path d="M111.12 24.088C110.821 23.96 110.608 23.7147 110.48 23.352C110.309 22.9253 110.277 22.4987 110.384 22.072C110.512 21.6453 110.704 21.24 110.96 20.856C111.216 20.472 111.504 20.1093 111.824 19.768C112.165 19.4267 112.453 19.1067 112.688 18.808C113.051 18.36 113.413 17.912 113.776 17.464C114.139 17.016 114.501 16.5573 114.864 16.088C114.992 15.9173 115.141 15.736 115.312 15.544C115.483 15.352 115.643 15.1493 115.792 14.936C115.963 14.7227 116.101 14.5093 116.208 14.296C116.315 14.0827 116.379 13.8587 116.4 13.624C116.421 13.2613 116.443 12.9093 116.464 12.568C116.485 12.2053 116.549 11.8853 116.656 11.608C116.763 11.3093 116.933 11.0747 117.168 10.904C117.424 10.7333 117.787 10.648 118.256 10.648C118.597 10.648 118.928 10.6907 119.248 10.776C119.568 10.84 119.803 11.0427 119.952 11.384C120.101 11.768 120.144 12.1947 120.08 12.664C120.037 13.112 120.08 13.5387 120.208 13.944C120.315 14.3067 120.496 14.6267 120.752 14.904C121.008 15.16 121.221 15.4373 121.392 15.736C121.755 16.3973 122.181 16.984 122.672 17.496C123.163 18.008 123.621 18.5627 124.048 19.16C124.389 19.608 124.709 20.0773 125.008 20.568C125.328 21.0373 125.541 21.5493 125.648 22.104C125.755 22.5733 125.701 22.9787 125.488 23.32C125.296 23.64 125.029 23.8747 124.688 24.024C124.347 24.1733 123.973 24.2267 123.568 24.184C123.163 24.12 122.811 23.9387 122.512 23.64C121.723 22.8293 120.997 21.9973 120.336 21.144C119.696 20.2693 119.035 19.384 118.352 18.488C118.352 18.488 118.256 18.5947 118.064 18.808C117.872 19 117.627 19.256 117.328 19.576C117.029 19.8747 116.709 20.216 116.368 20.6C116.027 20.9627 115.707 21.3147 115.408 21.656C115.109 21.9973 114.843 22.296 114.608 22.552C114.373 22.7867 114.235 22.936 114.192 23C113.957 23.2773 113.712 23.5227 113.456 23.736C113.2 23.9493 112.891 24.0987 112.528 24.184C112.293 24.2267 112.048 24.248 111.792 24.248C111.557 24.248 111.333 24.1947 111.12 24.088ZM127.376 18.744C126.757 18.7013 126.203 18.6693 125.712 18.648C125.221 18.6053 124.837 18.3707 124.56 17.944C124.432 17.7307 124.368 17.4533 124.368 17.112C124.368 16.7707 124.389 16.4827 124.432 16.248C124.496 16.0133 124.613 15.8213 124.784 15.672C124.955 15.5013 125.253 15.3627 125.68 15.256C125.765 15.2347 125.968 15.224 126.288 15.224C126.629 15.2027 126.992 15.192 127.376 15.192C127.76 15.1707 128.123 15.16 128.464 15.16C128.805 15.1387 129.019 15.128 129.104 15.128V13.048C129.083 12.8133 129.072 12.5787 129.072 12.344C129.093 12.1093 129.136 11.8747 129.2 11.64C129.243 11.4693 129.285 11.3093 129.328 11.16C129.371 11.0107 129.467 10.8507 129.616 10.68C129.787 10.4667 130.021 10.3173 130.32 10.232C130.64 10.1467 130.981 10.1253 131.344 10.168C131.664 10.2107 131.952 10.3067 132.208 10.456C132.464 10.584 132.645 10.7547 132.752 10.968C132.88 11.224 132.955 11.544 132.976 11.928C133.019 12.2907 133.04 12.5147 133.04 12.6V22.968H133.008C133.008 22.9893 132.997 23.064 132.976 23.192C132.955 23.32 132.912 23.48 132.848 23.672C132.784 23.8427 132.688 24.024 132.56 24.216C132.432 24.408 132.261 24.568 132.048 24.696C131.749 24.8667 131.419 24.952 131.056 24.952C130.693 24.952 130.341 24.8347 130 24.6C129.744 24.4293 129.563 24.216 129.456 23.96C129.328 23.7253 129.243 23.4907 129.2 23.256C129.157 23.0213 129.125 22.7867 129.104 22.552V18.744H127.376ZM112.016 31.16C112.016 30.2 112.293 29.4 112.848 28.76C113.424 28.12 114.192 27.6187 115.152 27.256C116.112 26.872 117.243 26.6053 118.544 26.456C119.845 26.3067 121.232 26.232 122.704 26.232C124.176 26.232 125.563 26.2853 126.864 26.392C128.165 26.4987 129.296 26.7333 130.256 27.096C131.216 27.4373 131.973 27.928 132.528 28.568C133.104 29.208 133.392 30.072 133.392 31.16C133.392 32.2267 133.104 33.08 132.528 33.72C131.973 34.36 131.216 34.8507 130.256 35.192C129.296 35.5547 128.165 35.7893 126.864 35.896C125.563 36.024 124.176 36.088 122.704 36.088C121.232 36.088 119.845 36.024 118.544 35.896C117.243 35.7893 116.112 35.5547 115.152 35.192C114.192 34.8507 113.424 34.36 112.848 33.72C112.293 33.08 112.016 32.2267 112.016 31.16ZM129.072 31.16C129.072 30.7973 128.88 30.5093 128.496 30.296C128.112 30.0827 127.611 29.9227 126.992 29.816C126.395 29.7093 125.712 29.6453 124.944 29.624C124.197 29.5813 123.451 29.56 122.704 29.56C121.957 29.56 121.211 29.5813 120.464 29.624C119.739 29.6453 119.077 29.7093 118.48 29.816C117.904 29.9227 117.435 30.0827 117.072 30.296C116.709 30.5093 116.528 30.7973 116.528 31.16C116.528 31.48 116.709 31.7467 117.072 31.96C117.435 32.1733 117.904 32.3333 118.48 32.44C119.077 32.5467 119.739 32.6213 120.464 32.664C121.211 32.7067 121.957 32.728 122.704 32.728C123.451 32.728 124.197 32.728 124.944 32.728C125.712 32.728 126.395 32.6853 126.992 32.6C127.611 32.5147 128.112 32.3653 128.496 32.152C128.88 31.9173 129.072 31.5867 129.072 31.16ZM153.96 11.224C154.344 11.224 154.738 11.256 155.144 11.32C155.549 11.3627 155.922 11.448 156.264 11.576C156.605 11.704 156.882 11.8853 157.096 12.12C157.309 12.3547 157.416 12.6533 157.416 13.016C157.416 13.5493 157.309 13.9547 157.096 14.232C156.904 14.5093 156.648 14.712 156.328 14.84C156.029 14.968 155.688 15.0427 155.304 15.064C154.92 15.064 154.546 15.0533 154.184 15.032C153.48 14.9893 152.818 14.9787 152.2 15C151.581 15 150.856 15.0213 150.024 15.064L150.056 15.928C150.056 16.0987 150.045 16.3013 150.024 16.536C150.024 16.7707 150.045 16.9733 150.088 17.144C150.152 17.3787 150.269 17.592 150.44 17.784C150.61 17.9547 150.781 18.1253 150.952 18.296C151.57 18.9787 152.296 19.672 153.128 20.376C153.96 21.0587 154.717 21.7413 155.4 22.424C155.592 22.6373 155.805 22.8613 156.04 23.096C156.274 23.3307 156.477 23.5867 156.648 23.864C156.818 24.12 156.936 24.3973 157 24.696C157.085 24.9733 157.074 25.2613 156.968 25.56C156.818 25.944 156.584 26.2107 156.264 26.36C155.965 26.5093 155.634 26.584 155.272 26.584C154.93 26.5627 154.578 26.488 154.216 26.36C153.853 26.2107 153.544 26.0507 153.288 25.88C152.669 25.432 152.114 25.016 151.624 24.632C151.133 24.248 150.674 23.8747 150.248 23.512C149.842 23.1493 149.437 22.7867 149.032 22.424C148.648 22.04 148.242 21.6453 147.816 21.24C147.794 21.2187 147.677 21.2933 147.464 21.464C147.25 21.6133 146.994 21.8053 146.696 22.04C146.418 22.2533 146.13 22.4773 145.832 22.712C145.533 22.9467 145.288 23.1387 145.096 23.288C144.925 23.416 144.701 23.5867 144.424 23.8C144.168 23.992 143.869 24.2053 143.528 24.44C143.208 24.6747 142.866 24.92 142.504 25.176C142.162 25.4107 141.832 25.624 141.512 25.816C141.192 26.0293 140.861 26.2107 140.52 26.36C140.178 26.5093 139.848 26.6053 139.528 26.648C139.229 26.6693 138.93 26.6267 138.632 26.52C138.354 26.4133 138.109 26.2 137.896 25.88C137.618 25.4533 137.49 25.0693 137.512 24.728C137.554 24.3653 137.682 24.0453 137.896 23.768C138.109 23.4693 138.365 23.192 138.664 22.936C138.984 22.68 139.293 22.4347 139.592 22.2C140.466 21.5173 141.341 20.824 142.216 20.12C143.09 19.3947 143.89 18.68 144.616 17.976C144.914 17.6773 145.085 17.432 145.128 17.24C145.192 17.048 145.224 16.7707 145.224 16.408V15H140.424C139.89 15.0427 139.41 15.0213 138.984 14.936C138.621 14.8507 138.28 14.7013 137.96 14.488C137.661 14.2533 137.49 13.8907 137.448 13.4C137.426 13.1653 137.469 12.9307 137.576 12.696C137.682 12.44 137.842 12.216 138.056 12.024C138.269 11.832 138.514 11.672 138.792 11.544C139.09 11.3947 139.421 11.3093 139.784 11.288C139.848 11.288 139.88 11.288 139.88 11.288C139.901 11.2667 139.986 11.256 140.136 11.256C140.285 11.256 140.541 11.256 140.904 11.256C141.266 11.256 141.842 11.256 142.632 11.256L153.96 11.224ZM156.936 30.264C157 30.2853 157.064 30.296 157.128 30.296C157.192 30.2747 157.256 30.264 157.32 30.264C157.682 30.3067 158.013 30.3813 158.312 30.488C158.632 30.5733 158.941 30.744 159.24 31C159.538 31.2987 159.688 31.672 159.688 32.12C159.688 32.3547 159.645 32.6107 159.56 32.888C159.496 33.144 159.4 33.3467 159.272 33.496C159.101 33.6667 158.888 33.7947 158.632 33.88C158.376 33.9653 158.13 34.0293 157.896 34.072C157.661 34.0933 157.448 34.104 157.256 34.104C157.085 34.104 156.989 34.104 156.968 34.104H139.048C138.941 34.104 138.834 34.1147 138.728 34.136C138.621 34.136 138.514 34.136 138.408 34.136C137.96 34.1573 137.48 34.1573 136.968 34.136C136.456 34.0933 136.018 33.9227 135.656 33.624C135.208 33.2187 134.984 32.76 134.984 32.248C134.984 31.928 135.08 31.5973 135.272 31.256C135.464 30.9147 135.72 30.68 136.04 30.552C136.466 30.3813 136.904 30.296 137.352 30.296C137.821 30.296 138.29 30.2853 138.76 30.264H138.92C140.968 30.2213 143.058 30.2213 145.192 30.264L145.16 26.904C145.16 26.712 145.192 26.5093 145.256 26.296C145.298 26.1253 145.373 25.944 145.48 25.752C145.608 25.56 145.789 25.3787 146.024 25.208C146.301 25.016 146.621 24.8987 146.984 24.856C147.368 24.8133 147.73 24.856 148.072 24.984C148.413 25.0907 148.701 25.2827 148.936 25.56C149.17 25.816 149.288 26.136 149.288 26.52L149.32 30.264C149.832 30.264 150.301 30.264 150.728 30.264C151.176 30.2427 151.613 30.232 152.04 30.232C152.488 30.232 152.925 30.2427 153.352 30.264C153.8 30.264 154.269 30.264 154.76 30.264C155.144 30.2853 155.517 30.2853 155.88 30.264C156.242 30.2213 156.594 30.2213 156.936 30.264ZM174.93 25.24C174.781 25.24 174.632 25.24 174.482 25.24C174.333 25.2187 174.173 25.1867 174.002 25.144C173.704 25.144 173.384 25.1013 173.042 25.016C172.701 24.9093 172.445 24.76 172.274 24.568C172.082 24.376 171.954 24.1413 171.89 23.864C171.826 23.5653 171.794 23.2987 171.794 23.064C171.794 22.7013 171.976 22.392 172.338 22.136C172.552 21.9867 172.808 21.8907 173.106 21.848C173.405 21.784 173.704 21.752 174.002 21.752C174.024 21.7307 174.098 21.7093 174.226 21.688C174.376 21.6667 174.525 21.656 174.674 21.656C174.845 21.6347 174.994 21.624 175.122 21.624C175.25 21.624 175.314 21.6347 175.314 21.656V20.408C175.314 20.1733 175.314 19.9387 175.314 19.704C175.314 19.4693 175.304 19.1707 175.282 18.808C175.282 18.4453 175.272 17.976 175.25 17.4C175.25 16.824 175.24 16.0773 175.218 15.16H174.258C174.088 15.16 173.928 15.1493 173.778 15.128C173.629 15.0853 173.48 15.064 173.33 15.064C173.181 15.0213 173.032 14.9787 172.882 14.936C172.754 14.872 172.605 14.7867 172.434 14.68C172.114 14.488 171.922 14.2427 171.858 13.944C171.816 13.624 171.794 13.3253 171.794 13.048C171.794 12.28 172.146 11.8 172.85 11.608C173.085 11.5227 173.341 11.4587 173.618 11.416C173.896 11.352 174.173 11.2987 174.45 11.256H190.194C190.429 11.256 190.664 11.2773 190.898 11.32C191.133 11.3627 191.368 11.4053 191.602 11.448C191.858 11.4907 192.093 11.5547 192.306 11.64C192.52 11.7253 192.701 11.8427 192.85 11.992C193.042 12.184 193.17 12.3973 193.234 12.632C193.298 12.8667 193.33 13.1227 193.33 13.4C193.33 13.5067 193.309 13.624 193.266 13.752C193.224 13.88 193.181 13.9973 193.138 14.104C192.989 14.488 192.712 14.7653 192.306 14.936C191.922 15.0853 191.528 15.16 191.122 15.16H189.714C189.714 15.288 189.714 15.4373 189.714 15.608C189.736 15.7787 189.768 15.9387 189.81 16.088V21.56L190.77 21.624C191.005 21.6453 191.229 21.656 191.442 21.656C191.656 21.656 191.784 21.656 191.826 21.656C192.146 21.7627 192.424 21.8907 192.658 22.04C192.893 22.1893 193.085 22.4027 193.234 22.68C193.341 22.9787 193.362 23.3093 193.298 23.672C193.256 24.0347 193.138 24.3333 192.946 24.568C192.754 24.8667 192.541 25.0587 192.306 25.144C192.157 25.1867 191.997 25.2187 191.826 25.24C191.677 25.24 191.506 25.24 191.314 25.24H174.93ZM178.482 25.88C178.589 25.88 178.664 25.9013 178.706 25.944C178.77 25.9653 178.824 25.976 178.866 25.976C179.165 26.0827 179.41 26.2533 179.602 26.488C179.709 26.6373 179.794 26.7867 179.858 26.936C179.944 27.0853 179.986 27.256 179.986 27.448V28.664C180.029 28.8987 180.05 29.1013 180.05 29.272C180.072 29.4213 180.082 29.6453 180.082 29.944V30.136C180.338 30.1573 180.648 30.1787 181.01 30.2C181.373 30.2 181.736 30.2 182.098 30.2C182.482 30.2 182.845 30.2 183.186 30.2C183.528 30.1787 183.816 30.168 184.05 30.168H184.338V27.896C184.338 27.4267 184.509 26.9787 184.85 26.552C185.192 26.104 185.629 25.88 186.162 25.88C186.354 25.88 186.525 25.8907 186.674 25.912C186.824 25.912 186.973 25.9333 187.122 25.976C187.293 26.0187 187.432 26.0933 187.538 26.2C187.666 26.2853 187.805 26.3813 187.954 26.488C188.061 26.6373 188.136 26.7867 188.178 26.936C188.242 27.0853 188.296 27.256 188.338 27.448V30.168H188.434C189.117 30.168 189.896 30.168 190.77 30.168C191.666 30.168 192.456 30.2533 193.138 30.424C193.288 30.4667 193.448 30.5413 193.618 30.648C193.789 30.7333 193.949 30.84 194.098 30.968C194.376 31.2667 194.514 31.672 194.514 32.184C194.514 32.696 194.376 33.1227 194.098 33.464C193.992 33.5067 193.896 33.5707 193.81 33.656C193.725 33.7413 193.629 33.8053 193.522 33.848C193.224 33.9547 192.936 34.0187 192.658 34.04C192.381 34.04 192.104 34.04 191.826 34.04H176.53C175.869 34.04 175.208 34.0507 174.546 34.072C173.885 34.0933 173.213 34.0827 172.53 34.04C171.997 34.04 171.56 33.912 171.218 33.656C170.77 33.208 170.546 32.696 170.546 32.12C170.546 31.864 170.642 31.544 170.834 31.16C171.005 30.84 171.261 30.6267 171.602 30.52C171.986 30.328 172.434 30.232 172.946 30.232C173.053 30.232 173.266 30.232 173.586 30.232C173.928 30.232 174.28 30.2213 174.642 30.2C175.069 30.1787 175.549 30.1573 176.082 30.136V27.896C176.082 27.7893 176.082 27.704 176.082 27.64C176.104 27.5547 176.136 27.4587 176.178 27.352C176.178 27.2453 176.2 27.1493 176.242 27.064C176.285 26.9787 176.328 26.8827 176.37 26.776C176.477 26.5627 176.669 26.392 176.946 26.264C177.053 26.1573 177.16 26.0827 177.266 26.04C177.394 25.976 177.533 25.9227 177.682 25.88H178.482ZM185.202 21.56C185.416 21.56 185.576 21.528 185.682 21.464C185.789 21.3787 185.853 21.2827 185.874 21.176C185.917 21.0693 185.938 20.9627 185.938 20.856C185.938 20.728 185.938 20.6213 185.938 20.536L185.842 15.832C185.842 15.6613 185.8 15.512 185.714 15.384C185.629 15.2347 185.48 15.16 185.266 15.16H179.762C179.336 15.16 179.122 15.2773 179.122 15.512C179.122 15.7467 179.122 16.0347 179.122 16.376C179.122 16.6107 179.112 16.856 179.09 17.112C179.09 17.3467 179.09 17.624 179.09 17.944C179.09 18.264 179.09 18.648 179.09 19.096C179.112 19.5227 179.133 20.0347 179.154 20.632C179.154 20.696 179.154 20.7813 179.154 20.888C179.154 20.9947 179.176 21.1013 179.218 21.208C179.261 21.2933 179.325 21.3787 179.41 21.464C179.517 21.528 179.656 21.56 179.826 21.56H185.202ZM219.572 33.624C219.53 33.88 219.498 34.136 219.476 34.392C219.455 34.6267 219.402 34.872 219.316 35.128C219.274 35.2133 219.242 35.288 219.22 35.352C219.199 35.416 219.167 35.4907 219.124 35.576C218.975 35.8747 218.783 36.1093 218.548 36.28C218.058 36.5787 217.514 36.6533 216.916 36.504C216.575 36.44 216.298 36.312 216.084 36.12C215.892 35.9493 215.743 35.7253 215.636 35.448C215.551 35.192 215.476 34.936 215.412 34.68C215.37 34.424 215.348 34.2 215.348 34.008C215.348 33.816 215.348 33.7093 215.348 33.688V13.912C215.348 13.656 215.348 13.3787 215.348 13.08C215.348 12.7813 215.37 12.4827 215.412 12.184C215.455 11.8853 215.519 11.608 215.604 11.352C215.69 11.096 215.807 10.8933 215.956 10.744C216.191 10.5093 216.436 10.3707 216.692 10.328C216.948 10.264 217.226 10.232 217.524 10.232C217.887 10.232 218.218 10.3387 218.516 10.552C218.836 10.744 219.06 11.0213 219.188 11.384C219.38 11.832 219.487 12.3013 219.508 12.792C219.53 13.2827 219.551 13.7733 219.572 14.264V14.424C219.615 16.0667 219.626 17.752 219.604 19.48C219.583 21.208 219.572 22.84 219.572 24.376V32.472C219.572 32.664 219.572 32.856 219.572 33.048C219.594 33.24 219.594 33.432 219.572 33.624ZM204.468 30.488C204.447 30.232 204.436 29.976 204.436 29.72C204.436 29.464 204.436 29.208 204.436 28.952V18.776C204.436 18.4347 204.436 18.0933 204.436 17.752C204.436 17.4107 204.415 17.0587 204.372 16.696C204.351 16.5893 204.319 16.44 204.276 16.248C204.255 16.056 204.191 15.9387 204.084 15.896C203.978 15.832 203.85 15.8107 203.7 15.832C203.572 15.832 203.444 15.8213 203.316 15.8C203.167 15.7787 203.018 15.7787 202.868 15.8C202.74 15.8213 202.602 15.8213 202.452 15.8H200.948C200.586 15.8213 200.223 15.8213 199.86 15.8C199.498 15.7787 199.135 15.7787 198.772 15.8C198.602 15.8213 198.442 15.832 198.292 15.832C198.164 15.8107 198.015 15.8 197.844 15.8C197.61 15.8 197.364 15.7893 197.108 15.768C196.852 15.7467 196.618 15.6613 196.404 15.512C196.106 15.2987 195.903 15.032 195.796 14.712C195.69 14.392 195.636 14.0613 195.636 13.72C195.615 13.3147 195.7 12.9093 195.892 12.504C195.999 12.248 196.138 12.0667 196.308 11.96C196.415 11.8533 196.564 11.768 196.756 11.704C196.97 11.6187 197.151 11.5547 197.3 11.512C197.748 11.4053 198.218 11.352 198.708 11.352C199.199 11.3307 199.679 11.32 200.148 11.32H205.716C205.994 11.3627 206.282 11.4053 206.58 11.448C206.9 11.4693 207.188 11.5333 207.444 11.64C207.615 11.704 207.775 11.7893 207.924 11.896C208.095 12.0027 208.234 12.1307 208.34 12.28C208.532 12.5787 208.639 12.8773 208.66 13.176C208.703 13.4747 208.746 13.8053 208.788 14.168C208.831 14.7653 208.852 15.3627 208.852 15.96C208.852 16.536 208.852 17.1227 208.852 17.72V28.216C208.852 28.2373 208.852 28.408 208.852 28.728C208.874 29.0267 208.884 29.3893 208.884 29.816C208.884 30.2213 208.884 30.6587 208.884 31.128C208.884 31.576 208.874 31.9707 208.852 32.312C208.831 32.5253 208.799 32.7493 208.756 32.984C208.714 33.2187 208.639 33.4427 208.532 33.656C208.447 33.8693 208.319 34.0613 208.148 34.232C207.978 34.4027 207.754 34.5413 207.476 34.648C207.114 34.7973 206.751 34.872 206.388 34.872C206.111 34.872 205.834 34.8187 205.556 34.712C205.279 34.584 205.087 34.4027 204.98 34.168C204.639 33.4853 204.468 32.728 204.468 31.896V30.488ZM252.849 23.672C253.083 23.736 253.371 23.7787 253.713 23.8C254.075 23.8213 254.342 23.8747 254.513 23.96C254.683 24.0027 254.822 24.0773 254.929 24.184C255.057 24.2907 255.174 24.3867 255.281 24.472C255.43 24.664 255.526 24.888 255.569 25.144C255.633 25.4 255.643 25.656 255.601 25.912C255.579 26.168 255.505 26.4133 255.377 26.648C255.27 26.8613 255.121 27.032 254.929 27.16C254.737 27.288 254.449 27.384 254.065 27.448C253.702 27.4907 253.339 27.5227 252.977 27.544C252.55 27.5653 252.091 27.5547 251.601 27.512H250.097V29.208V31.448V32.664C250.097 32.92 250.075 33.2293 250.033 33.592C249.99 33.9333 249.926 34.232 249.841 34.488C249.734 34.7013 249.617 34.904 249.489 35.096C249.382 35.3093 249.211 35.48 248.977 35.608C248.849 35.7147 248.689 35.7787 248.497 35.8C248.304 35.8427 248.123 35.864 247.953 35.864C247.739 35.864 247.526 35.8427 247.312 35.8C247.121 35.7787 246.961 35.7147 246.833 35.608C246.598 35.48 246.417 35.288 246.289 35.032C246.161 34.776 246.065 34.4987 246.001 34.2C245.937 33.88 245.894 33.5707 245.873 33.272C245.873 32.9733 245.873 32.7173 245.873 32.504V27.512H240.849V29.112V32.6C240.849 32.7707 240.849 32.9413 240.849 33.112C240.849 33.2613 240.827 33.4 240.785 33.528C240.785 33.6987 240.753 33.8907 240.689 34.104C240.625 34.296 240.571 34.4773 240.529 34.648C240.422 34.8187 240.305 34.9787 240.177 35.128C240.07 35.2987 239.931 35.4267 239.76 35.512C239.59 35.6613 239.409 35.7573 239.217 35.8C239.046 35.8427 238.843 35.864 238.609 35.864C238.438 35.864 238.257 35.8427 238.065 35.8C237.873 35.7787 237.691 35.7147 237.521 35.608C237.179 35.3733 236.934 35.0107 236.785 34.52C236.635 34.0293 236.582 33.5813 236.625 33.176V27.512H234.737C234.523 27.512 234.299 27.4907 234.065 27.448C233.83 27.4053 233.595 27.3627 233.361 27.32C233.147 27.2347 232.955 27.1493 232.785 27.064C232.614 26.9573 232.465 26.8187 232.337 26.648C232.059 26.264 231.974 25.8267 232.081 25.336C232.081 25.1653 232.102 24.9947 232.145 24.824C232.209 24.6533 232.326 24.4827 232.497 24.312C232.539 24.2053 232.614 24.1307 232.721 24.088C232.849 24.0453 232.977 24.0027 233.105 23.96C233.318 23.8747 233.531 23.8107 233.745 23.768C233.958 23.704 234.171 23.672 234.385 23.672H247.697V22.488C247.697 21.528 247.675 20.568 247.633 19.608C247.611 18.6267 247.601 17.656 247.601 16.696C247.601 16.3973 247.59 16.1093 247.569 15.832C247.547 15.5333 247.323 15.3627 246.897 15.32H246.513H236.401C236.166 15.32 235.953 15.3093 235.761 15.288C235.569 15.2453 235.345 15.2027 235.089 15.16C234.662 14.968 234.31 14.7013 234.033 14.36C233.883 14.04 233.809 13.6133 233.809 13.08C233.851 12.824 233.905 12.5893 233.969 12.376C234.054 12.1627 234.171 12.0027 234.321 11.896C234.449 11.7467 234.587 11.6507 234.737 11.608C234.886 11.544 235.035 11.4693 235.185 11.384C235.526 11.256 235.867 11.192 236.209 11.192C236.379 11.192 236.55 11.1813 236.721 11.16C236.913 11.1173 237.126 11.096 237.361 11.096H247.76C247.931 11.096 248.102 11.1173 248.273 11.16C248.465 11.1813 248.678 11.192 248.913 11.192C249.275 11.192 249.638 11.256 250.001 11.384C250.385 11.448 250.726 11.6187 251.025 11.896C251.302 12.1093 251.505 12.376 251.633 12.696C251.782 12.9947 251.878 13.3147 251.921 13.656C251.963 13.9973 251.985 14.3493 251.985 14.712C251.985 15.0747 251.995 15.416 252.017 15.736V18.712V21.976V23.608C252.145 23.608 252.273 23.6187 252.401 23.64C252.529 23.6613 252.678 23.672 252.849 23.672ZM268.986 20.344C269.349 20.7707 269.711 21.2187 270.074 21.688C270.437 22.1573 270.682 22.6267 270.81 23.096C270.853 23.3093 270.853 23.5333 270.81 23.768C270.767 24.0027 270.65 24.2053 270.458 24.376C270.138 24.5893 269.797 24.696 269.434 24.696C269.029 24.696 268.634 24.6 268.25 24.408C267.887 24.216 267.589 24.024 267.354 23.832C266.991 23.512 266.661 23.192 266.362 22.872C266.063 22.5307 265.765 22.2 265.466 21.88C265.231 21.624 264.975 21.368 264.698 21.112C264.421 20.856 264.175 20.5787 263.962 20.28L260.794 23.768C260.453 24.1307 260.09 24.3867 259.706 24.536C259.322 24.664 258.959 24.728 258.618 24.728C258.511 24.728 258.351 24.7067 258.138 24.664C257.733 24.5573 257.455 24.3653 257.306 24.088C257.178 23.8533 257.135 23.5867 257.178 23.288C257.221 22.9893 257.306 22.7227 257.434 22.488C257.583 22.232 257.743 21.9973 257.914 21.784C258.106 21.5707 258.298 21.3467 258.49 21.112C259.045 20.4933 259.578 19.8533 260.09 19.192C260.623 18.5093 261.199 17.848 261.818 17.208V15.448C261.733 15.448 261.583 15.448 261.37 15.448C261.178 15.448 260.954 15.448 260.698 15.448C260.463 15.448 260.218 15.448 259.962 15.448C259.706 15.448 259.482 15.448 259.29 15.448C259.013 15.448 258.735 15.416 258.458 15.352C258.181 15.288 257.925 15.192 257.69 15.064C257.477 14.936 257.295 14.7653 257.146 14.552C256.997 14.3387 256.922 14.072 256.922 13.752C256.901 13.048 257.071 12.568 257.434 12.312C257.818 12.056 258.437 11.928 259.29 11.928C259.354 11.928 259.546 11.9387 259.866 11.96C260.207 11.96 260.89 11.96 261.914 11.96C261.957 11.4693 262.053 11.0107 262.202 10.584C262.373 10.136 262.693 9.82667 263.162 9.656C263.93 9.35733 264.538 9.34667 264.986 9.624C265.455 9.90133 265.743 10.3493 265.85 10.968C265.871 11.032 265.882 11.2027 265.882 11.48C265.903 11.736 265.914 11.896 265.914 11.96H268.058C268.805 11.96 269.402 12.0133 269.85 12.12C270.298 12.2053 270.671 12.4613 270.97 12.888C271.055 13.016 271.119 13.1973 271.162 13.432C271.205 13.6453 271.205 13.8693 271.162 14.104C271.141 14.3173 271.087 14.52 271.002 14.712C270.917 14.904 270.81 15.0427 270.682 15.128C270.511 15.192 270.319 15.2667 270.106 15.352C269.914 15.416 269.733 15.448 269.562 15.448C269.306 15.4693 269.071 15.48 268.858 15.48C268.666 15.4587 268.442 15.448 268.186 15.448C267.802 15.448 267.45 15.4587 267.13 15.48C266.81 15.48 266.501 15.4693 266.202 15.448C266.202 15.7253 266.202 15.9067 266.202 15.992C266.202 16.056 266.202 16.12 266.202 16.184C266.202 16.248 266.202 16.344 266.202 16.472C266.202 16.6 266.202 16.8453 266.202 17.208C266.309 17.2933 266.447 17.464 266.618 17.72C266.789 17.976 266.959 18.1893 267.13 18.36C267.301 18.5307 267.482 18.7227 267.674 18.936C267.866 19.128 268.069 19.3413 268.282 19.576C268.431 19.7253 268.559 19.864 268.666 19.992C268.773 20.12 268.879 20.2373 268.986 20.344ZM275.866 27.416C276.506 27.3947 277.007 27.448 277.37 27.576C277.754 27.704 278.053 27.8747 278.266 28.088C278.479 28.3013 278.618 28.536 278.682 28.792C278.746 29.048 278.778 29.304 278.778 29.56V33.272C278.821 33.7413 278.821 34.2107 278.778 34.68C278.735 35.128 278.554 35.4907 278.234 35.768C277.935 36.0453 277.541 36.184 277.05 36.184C276.943 36.184 276.751 36.1733 276.474 36.152C276.197 36.152 276.005 36.1307 275.898 36.088C275.621 36.0027 275.397 35.8747 275.226 35.704C275.077 35.5333 274.959 35.3413 274.874 35.128C274.789 34.9147 274.735 34.6907 274.714 34.456C274.693 34.2 274.671 33.9547 274.65 33.72C274.65 33.6347 274.639 33.4747 274.618 33.24C274.618 32.984 274.607 32.728 274.586 32.472C274.586 32.1947 274.575 31.9387 274.554 31.704C274.554 31.4693 274.543 31.3093 274.522 31.224C274.458 31.2027 274.277 31.1813 273.978 31.16C273.701 31.1387 273.167 31.128 272.378 31.128C271.695 31.128 271.269 31.1387 271.098 31.16C270.949 31.16 270.863 31.1707 270.842 31.192H259.61L259.578 31.16C259.578 31.16 259.503 31.1387 259.354 31.096C259.226 31.0533 259.077 30.9893 258.906 30.904C258.735 30.8187 258.565 30.7013 258.394 30.552C258.245 30.4027 258.159 30.2107 258.138 29.976C258.031 29.1653 258.17 28.5253 258.554 28.056C258.81 27.7573 259.087 27.5867 259.386 27.544C259.685 27.48 259.845 27.448 259.866 27.448L275.866 27.416ZM278.682 22.84C278.682 22.84 278.671 22.9147 278.65 23.064C278.629 23.2133 278.586 23.384 278.522 23.576C278.458 23.768 278.362 23.9707 278.234 24.184C278.106 24.376 277.935 24.536 277.722 24.664C277.423 24.8347 277.125 24.92 276.826 24.92C276.463 24.92 276.111 24.8027 275.77 24.568C275.535 24.3973 275.354 24.1733 275.226 23.896C275.055 23.576 274.938 23.224 274.874 22.84C274.831 22.456 274.799 22.0613 274.778 21.656C274.778 21.2507 274.789 20.856 274.81 20.472C274.831 20.0667 274.842 19.6827 274.842 19.32C274.863 18.4027 274.874 17.496 274.874 16.6C274.874 15.6827 274.874 14.776 274.874 13.88V13.464C274.853 13.2293 274.842 12.984 274.842 12.728C274.863 12.4507 274.906 12.1947 274.97 11.96C275.055 11.64 275.247 11.2987 275.546 10.936C275.717 10.7227 275.951 10.5733 276.25 10.488C276.57 10.3813 276.911 10.3493 277.274 10.392C277.914 10.4987 278.341 10.776 278.554 11.224C278.682 11.5013 278.735 11.8427 278.714 12.248C278.714 12.6533 278.703 12.8987 278.682 12.984V22.84Z" fill="#231815"/>
<path d="M73.0621 0C84.6202 0 94 9.36851 94 20.9127V56H48.9379C37.3798 56 28 46.6315 28 35.0873V20.9127C28.0163 9.36851 37.3961 0 48.9542 0H73.0783H73.0621Z" fill="#C2CC66"/>
<g filter="url(#filter0_d_3860_14301)">
<path d="M64.3627 42.707H58.2617C57.76 42.707 57.3555 42.3024 57.3555 41.8008C57.3555 41.2991 57.76 40.8945 58.2617 40.8945H64.3627V42.707Z" fill="#FBFCF4"/>
<path d="M68.101 46.218H53.6173V37.6572H68.101V46.218ZM60.8673 32.948V37.6572V32.948ZM60.8673 32.948C55.8344 32.948 51.7725 28.9184 51.7725 23.9341V10.2109H69.9783V23.9341C69.9783 28.9184 65.9002 32.948 60.8835 32.948" fill="white"/>
<path fill-rule="evenodd" clip-rule="evenodd" d="M50.1533 10.212C50.1533 9.31828 50.8779 8.59375 51.7716 8.59375H69.9774C70.8712 8.59375 71.5957 9.31828 71.5957 10.212V23.9352C71.5957 29.2843 67.6264 33.6826 62.4847 34.449V36.04H68.1002C68.994 36.04 69.7185 36.7645 69.7185 37.6583V46.2191C69.7185 47.1128 68.994 47.8374 68.1002 47.8374H53.6165C52.7227 47.8374 51.9982 47.1128 51.9982 46.2191V37.6583C51.9982 36.7645 52.7227 36.04 53.6165 36.04H59.2481V34.4472C54.1016 33.6754 50.1533 29.2784 50.1533 23.9352V10.212ZM55.2348 39.2766V44.6008H66.4819V39.2766H55.2348ZM53.3899 11.8303V23.9352C53.3899 28.0126 56.7141 31.3308 60.8664 31.3308H60.8826C65.0207 31.3308 68.3591 28.0107 68.3591 23.9352V11.8303H53.3899Z" fill="white"/>
<path fill-rule="evenodd" clip-rule="evenodd" d="M43.4053 10.212C43.4053 9.31828 44.1298 8.59375 45.0236 8.59375H51.8366C52.7303 8.59375 53.4549 9.31828 53.4549 10.212V23.6115C53.4549 24.5053 52.7303 25.2298 51.8366 25.2298C47.1499 25.2298 43.4053 21.3919 43.4053 16.7014V10.212ZM46.6419 11.8303V16.7014C46.6419 19.0666 48.1483 21.043 50.2183 21.7319V11.8303H46.6419ZM68.2623 10.212C68.2623 9.31828 68.9868 8.59375 69.8806 8.59375H76.6936C77.5873 8.59375 78.3119 9.31828 78.3119 10.212V16.7014C78.3119 21.3919 74.5672 25.2298 69.8806 25.2298C68.9868 25.2298 68.2623 24.5053 68.2623 23.6115V10.212ZM71.4989 11.8303V21.7319C73.5688 21.043 75.0753 19.0666 75.0753 16.7014V11.8303H71.4989Z" fill="white"/>
</g>
<path d="M61 16L62.2358 18.3034L65 18.6774L63 20.4722L63.4715 23L61 21.8034L58.5285 23L59 20.4722L57 18.6774L59.7642 18.3034L61 16Z" fill="#C2CC66"/>
<path d="M88 46H282C293.046 46 302 37.0457 302 26V16" stroke="#C2CC66" stroke-width="2" stroke-linecap="round" stroke-linejoin="round"/>
<defs>
<filter id="filter0_d_3860_14301" x="43.4053" y="8.59375" width="36.902" height="41.2399" filterUnits="userSpaceOnUse" color-interpolation-filters="sRGB">
<feFlood flood-opacity="0" result="BackgroundImageFix"/>
<feColorMatrix in="SourceAlpha" type="matrix" values="0 0 0 0 0 0 0 0 0 0 0 0 0 0 0 0 0 0 127 0" result="hardAlpha"/>
<feOffset dx="1.99575" dy="1.99575"/>
<feComposite in2="hardAlpha" operator="out"/>
<feColorMatrix type="matrix" values="0 0 0 0 0 0 0 0 0 0 0 0 0 0 0 0 0 0 0.25 0"/>
<feBlend mode="normal" in2="BackgroundImageFix" result="effect1_dropShadow_3860_14301"/>
<feBlend mode="normal" in="SourceGraphic" in2="effect1_dropShadow_3860_14301" result="shape"/>
</filter>
</defs>
</svg>
