<svg id="Layer_1" data-name="Layer 1" xmlns="http://www.w3.org/2000/svg" viewBox="0 0 42 46"><defs><style>.cls-1{opacity:0.2;}.cls-2{fill:#21aa83;}.cls-3{fill:#108460;}.cls-4{fill:#fff;}</style></defs><g class="cls-1"><circle cx="21" cy="25" r="20"/></g><circle class="cls-2" cx="21" cy="21" r="20"/><path class="cls-3" d="M21,2A19,19,0,1,1,2,21,19,19,0,0,1,21,2m0-1A20,20,0,1,0,41,21,20,20,0,0,0,21,1Z"/><path class="cls-4" d="M19.6,30.11a.92.92,0,0,0,1.4-.78V12.27a.92.92,0,0,0-1.4-.78l-6.41,4.94H10.27a1.62,1.62,0,0,0-1.62,1.62v5.5a1.62,1.62,0,0,0,1.62,1.62h2.92Z"/><path class="cls-4" d="M30.81,25.46a11.33,11.33,0,0,0-2.32-12.67.77.77,0,1,1,1.09-1.09,12.87,12.87,0,0,1,0,18.2.76.76,0,0,1-1.09,0,.77.77,0,0,1,0-1.09,11.44,11.44,0,0,0,2.32-3.35"/><path class="cls-4" d="M26.48,27.56a.77.77,0,0,1-.55-.22.78.78,0,0,1,0-1.1,7.7,7.7,0,0,0,0-10.88.77.77,0,0,1,0-1.09.76.76,0,0,1,1.09,0,9.24,9.24,0,0,1,0,13.07A.75.75,0,0,1,26.48,27.56Z"/><path class="cls-4" d="M23.76,25.76a.77.77,0,0,1-.54-1.31,5.17,5.17,0,0,0,0-7.3.76.76,0,0,1,0-1.09.77.77,0,0,1,1.09,0,6.72,6.72,0,0,1,0,9.48A.77.77,0,0,1,23.76,25.76Z"/></svg>