<svg width="116" height="47" viewBox="0 0 116 47" fill="none" xmlns="http://www.w3.org/2000/svg">
<path d="M4.44 42H0.216V7.584H4.44V42ZM19.8806 6.576C20.6166 5.68 21.4326 4.672 22.3286 3.552C23.2566 2.4 23.9766 1.28 24.4886 0.191998H29.5286V0.671997C29.1766 1.248 28.6006 1.936 27.8006 2.736C27.0006 3.536 26.1366 4.336 25.2086 5.136C24.2806 5.904 23.4486 6.576 22.7126 7.152H19.8806V6.576ZM17.9606 13.152C17.3526 13.152 16.8246 12.976 16.3766 12.624C15.9286 12.24 15.7046 11.632 15.7046 10.8C15.7046 9.968 15.9286 9.36 16.3766 8.976C16.8246 8.592 17.3526 8.4 17.9606 8.4C18.5686 8.4 19.0806 8.592 19.4966 8.976C19.9446 9.36 20.1686 9.968 20.1686 10.8C20.1686 11.632 19.9446 12.24 19.4966 12.624C19.0806 12.976 18.5686 13.152 17.9606 13.152ZM26.9366 13.152C26.3286 13.152 25.8006 12.976 25.3526 12.624C24.9046 12.24 24.6806 11.632 24.6806 10.8C24.6806 9.968 24.9046 9.36 25.3526 8.976C25.8006 8.592 26.3286 8.4 26.9366 8.4C27.5766 8.4 28.1046 8.592 28.5206 8.976C28.9686 9.36 29.1926 9.968 29.1926 10.8C29.1926 11.632 28.9686 12.24 28.5206 12.624C28.1046 12.976 27.5766 13.152 26.9366 13.152ZM33.2246 16.272V42H29.7686L29.1446 38.592H28.9526C28.4086 39.488 27.7046 40.224 26.8406 40.8C25.9766 41.376 25.0326 41.792 24.0086 42.048C22.9846 42.336 21.9126 42.48 20.7926 42.48C18.7446 42.48 17.0166 42.16 15.6086 41.52C14.2326 40.848 13.1926 39.824 12.4886 38.448C11.7846 37.072 11.4326 35.296 11.4326 33.12V16.272H15.7046V32.832C15.7046 34.88 16.1686 36.416 17.0966 37.44C18.0246 38.464 19.4646 38.976 21.4166 38.976C23.3366 38.976 24.8406 38.624 25.9286 37.92C27.0486 37.184 27.8326 36.128 28.2806 34.752C28.7606 33.344 29.0006 31.648 29.0006 29.664V16.272H33.2246ZM43.9365 34.704C42.8485 31.056 42.3045 27.712 42.3045 24.672C42.3045 21.632 42.8485 18.304 43.9365 14.688C45.0245 11.04 46.4165 7.872 48.1125 5.184H52.0005C50.0805 7.84 48.5125 10.976 47.2965 14.592C46.0805 18.208 45.4725 21.568 45.4725 24.672C45.4725 27.776 46.0805 31.136 47.2965 34.752C48.5125 38.368 50.0805 41.504 52.0005 44.16H48.1125C46.4165 41.472 45.0245 38.32 43.9365 34.704ZM80.613 9.36H99.717V27.696H96.309V12.72H80.613V9.36ZM80.517 21.792H98.133V25.104H80.517V21.792ZM78.741 9.36H82.245V26.448C82.245 32.736 81.765 40.896 77.973 46.176C77.301 45.552 75.717 44.64 74.853 44.256C78.405 39.216 78.741 32.208 78.741 26.4V9.36ZM85.317 2.928L88.197 1.728C89.877 3.552 91.653 6.096 92.373 7.824L89.253 9.264C88.581 7.488 86.901 4.848 85.317 2.928ZM71.925 24.288H75.381C75.381 24.288 75.333 25.392 75.285 25.872C74.517 38.016 73.797 42.624 72.309 44.208C71.445 45.216 70.533 45.552 69.093 45.648C67.845 45.744 65.589 45.744 63.237 45.6C63.141 44.64 62.757 43.296 62.181 42.384C64.581 42.576 66.789 42.624 67.701 42.624C68.517 42.624 68.997 42.576 69.429 42.096C70.533 40.944 71.301 36.528 71.925 24.912V24.288ZM56.757 35.04C60.069 34.32 64.725 33.12 69.477 31.872L69.765 34.8C65.493 36 61.077 37.2 57.525 38.16L56.757 35.04ZM58.341 3.408H71.013V6.576H58.341V3.408ZM70.053 3.408H73.365C72.885 10.416 72.117 19.824 71.493 25.152L68.133 25.296C68.901 19.776 69.717 10.272 70.053 3.408ZM60.213 10.704L63.333 10.896C62.997 16.176 62.421 23.136 61.845 27.216H58.725C59.301 23.04 59.925 15.888 60.213 10.704ZM59.781 24.288H72.645V27.216H59.781V24.288ZM114.261 14.688C115.349 18.304 115.893 21.632 115.893 24.672C115.893 27.712 115.349 31.056 114.261 34.704C113.205 38.32 111.829 41.472 110.133 44.16H106.245C108.133 41.536 109.685 38.416 110.901 34.8C112.117 31.152 112.725 27.776 112.725 24.672C112.725 21.568 112.117 18.208 110.901 14.592C109.685 10.944 108.133 7.808 106.245 5.184H110.133C111.829 7.872 113.205 11.04 114.261 14.688Z" fill="#231815"/>
</svg>
