<svg width="76" height="76" viewBox="0 0 76 76" fill="none" xmlns="http://www.w3.org/2000/svg">
<mask id="mask0_3241_3689" style="mask-type:alpha" maskUnits="userSpaceOnUse" x="0" y="0" width="76" height="76">
<circle cx="38" cy="38" r="38" fill="#D9D9D9"/>
</mask>
<g mask="url(#mask0_3241_3689)">
<path d="M48.2038 18.6653H44.0275C43.1923 21.4991 40.7356 23.5937 37.7876 23.5937C34.8397 23.5937 32.383 21.5238 31.5478 18.6653H27.4697C26.1923 18.6653 24.9639 19.1335 24.0058 19.9713L13.9336 28.8672L20.0752 36.0135L25.4553 31.4547V57.1813H50.1691V31.5286L55.4509 35.9889L61.5926 28.8426L51.6923 19.9713C50.7342 19.1088 49.4813 18.6406 48.2038 18.6406" fill="white"/>
<path d="M50.1935 57.8221H25.4796C25.1111 57.8221 24.8163 57.5264 24.8163 57.1567V32.8347L20.5172 36.4818C20.247 36.7036 19.8293 36.6789 19.6082 36.4079L13.4421 29.2862C13.1964 29.0151 13.2455 28.5962 13.5158 28.3744L23.5634 19.4785C24.6444 18.5175 26.0201 18 27.4449 18H31.523C31.8178 18 32.0634 18.1971 32.1371 18.4682C32.9233 21.1296 35.1834 22.9285 37.7383 22.9285C40.2932 22.9285 42.5533 21.1296 43.3395 18.4682C43.4132 18.1971 43.6834 18 43.9536 18H48.1299C49.5793 18 50.9551 18.5421 52.036 19.5032L61.9608 28.3744C62.2311 28.6209 62.2556 29.0151 62.01 29.2862L55.8684 36.4325C55.6473 36.7036 55.2296 36.7282 54.9594 36.5064L50.7585 32.9579V57.1814C50.7585 57.551 50.4637 57.8467 50.0952 57.8467L50.1935 57.8221ZM26.1429 56.516H49.5548V31.5287C49.5548 31.2822 49.7022 31.0358 49.9233 30.9372C50.1444 30.8387 50.4392 30.8633 50.6111 31.0358L55.4016 35.0772L60.7079 28.9166L51.2499 20.4642C50.4146 19.725 49.3337 19.306 48.2036 19.306H44.4941C43.4377 22.2631 40.7845 24.2345 37.7874 24.2345C34.7903 24.2345 32.1617 22.2878 31.0808 19.306H27.4695C26.364 19.306 25.2831 19.725 24.4478 20.4642L14.8669 28.9166L20.1733 35.0772L25.062 30.9372C25.2585 30.7647 25.5288 30.7401 25.7499 30.8387C25.971 30.9372 26.1184 31.1837 26.1184 31.4301V56.516H26.1429Z" fill="#3E3A39"/>
<path d="M46.1893 30.8906V34.8088C46.1893 36.3366 44.789 37.5933 43.0939 37.5933C41.3988 37.5933 39.9985 36.3366 39.9985 34.8088V30.8906H46.1893Z" fill="#FBDACF"/>
<path d="M43.094 38.2314C41.0304 38.2314 39.3599 36.7036 39.3599 34.8061V30.888C39.3599 30.5184 39.6547 30.2227 40.0232 30.2227H46.2139C46.5824 30.2227 46.8772 30.5184 46.8772 30.888V34.8061C46.8772 36.7036 45.2067 38.2314 43.1431 38.2314H43.094ZM40.6619 31.5287V34.7815C40.6619 35.9397 41.7674 36.9007 43.094 36.9007C44.4206 36.9007 45.526 35.9397 45.526 34.7815V31.5287H40.6373H40.6619Z" fill="#3E3A39"/>
</g>
</svg>
