<svg width="76" height="76" viewBox="0 0 76 76" fill="none" xmlns="http://www.w3.org/2000/svg">
<mask id="mask0_3241_3734" style="mask-type:alpha" maskUnits="userSpaceOnUse" x="0" y="0" width="76" height="76">
<circle cx="38" cy="38" r="38" fill="#D9D9D9"/>
</mask>
<g mask="url(#mask0_3241_3734)">
<path d="M34.0507 63.0294L18.7703 42.6009C18.7703 42.6009 16.0435 39.2002 19.7039 37.5245L42.5261 30.8711L58.5189 51.9896" fill="#FBDACF"/>
<path d="M34.0506 63.694C33.854 63.694 33.6575 63.5954 33.5347 63.4229L18.2543 42.9944C18.2543 42.9944 16.8049 41.1462 17.2225 39.3227C17.4682 38.2877 18.2052 37.4991 19.4335 36.9324L42.354 30.2543C42.6243 30.1804 42.8945 30.2543 43.0665 30.4761L59.0592 51.5946C59.2803 51.8903 59.2312 52.2846 58.9364 52.5063C58.6416 52.7281 58.2486 52.6789 58.0275 52.3831L42.3049 31.6096L19.9003 38.1399C19.1633 38.4848 18.672 39.0023 18.5246 39.6184C18.2298 40.8259 19.2861 42.1812 19.3107 42.1812L34.6156 62.6097C34.8367 62.9054 34.763 63.2997 34.4928 63.5215C34.3699 63.6201 34.2471 63.6447 34.0997 63.6447L34.0506 63.694Z" fill="#3E3A39"/>
<path d="M58.715 57.9286L36.7771 64.2863C35.0575 64.7792 33.608 62.7338 33.5589 61.5017C33.5098 60.2696 34.8609 58.865 36.556 58.3722L58.4939 52.0391L58.715 57.9532V57.9286Z" fill="#FBDACF"/>
<path d="M36.2372 64.9981C35.6721 64.9981 35.1317 64.801 34.5912 64.4314C33.6577 63.766 32.9453 62.5339 32.8961 61.4989C32.8224 59.9464 34.3455 58.2954 36.3846 57.704L58.3224 51.3709C58.519 51.3216 58.7155 51.3709 58.8874 51.4695C59.0594 51.5927 59.1577 51.7652 59.1577 51.987L59.3788 57.9011C59.3788 58.1968 59.2068 58.4679 58.912 58.5665L36.9742 64.9242C36.7285 64.9981 36.5074 65.0228 36.2617 65.0228L36.2372 64.9981ZM57.8802 52.8741L36.7531 58.9854C35.2054 59.429 34.1736 60.6364 34.2227 61.4496C34.2473 61.9918 34.6895 62.8789 35.3773 63.3717C35.795 63.6674 36.188 63.7414 36.6057 63.6428L58.0522 57.4329L57.8802 52.8741Z" fill="#3E3A39"/>
<path d="M41.9609 59.5044C41.6661 59.5044 41.4204 59.3073 41.3222 59.0362C41.2239 58.6912 41.4204 58.3216 41.7644 58.223L57.9537 53.541C58.2976 53.4424 58.6661 53.6396 58.7644 53.9846C58.8626 54.3296 58.6661 54.6992 58.3222 54.7977L42.1329 59.4798C42.1329 59.4798 42.01 59.5044 41.9609 59.5044Z" fill="#3E3A39"/>
<path d="M41.8379 61.4263C41.5431 61.4263 41.2974 61.2292 41.1991 60.9581C41.1009 60.6131 41.2974 60.2435 41.6413 60.1449L57.8306 55.4629C58.1746 55.3643 58.5431 55.5614 58.6413 55.9064C58.7396 56.2514 58.5431 56.6211 58.1991 56.7196L42.0098 61.4017C42.0098 61.4017 41.887 61.4263 41.8379 61.4263Z" fill="#3E3A39"/>
<path d="M34.0507 54.0333L18.7703 33.6048C18.7703 33.6048 16.0435 30.2041 19.7039 28.5285L42.5261 21.875L58.5189 42.9935" fill="white"/>
<path d="M34.0506 54.6745C33.854 54.6745 33.6575 54.5759 33.5347 54.4034L18.2543 33.9749C18.2543 33.9749 16.8049 32.1267 17.2225 30.3031C17.4682 29.2682 18.2052 28.4796 19.4335 27.9128L42.354 21.2348C42.6243 21.1608 42.8945 21.2347 43.0665 21.4565L59.0592 42.575C59.2803 42.8707 59.2312 43.265 58.9364 43.4868C58.6416 43.7086 58.2486 43.6593 58.0275 43.3636L42.3049 22.5901L19.9003 29.1203C19.1633 29.4653 18.672 29.9828 18.5246 30.5988C18.2298 31.8063 19.2861 33.1617 19.3107 33.1617L34.6156 53.5902C34.8367 53.8859 34.763 54.2802 34.4928 54.502C34.3699 54.6005 34.2471 54.6252 34.0997 54.6252L34.0506 54.6745Z" fill="#3E3A39"/>
<path d="M58.715 48.9091L36.7771 55.2668C35.0575 55.7596 33.608 53.7143 33.5589 52.4822C33.5098 51.2501 34.8609 49.8455 36.556 49.3526L58.4939 43.0195L58.715 48.9337V48.9091Z" fill="white"/>
<path d="M36.2372 56.006C35.6721 56.006 35.1317 55.8088 34.5912 55.4392C33.6577 54.7738 32.9453 53.5417 32.8961 52.5067C32.8224 50.9543 34.3455 49.3032 36.3846 48.7118L58.3224 42.3787C58.519 42.3294 58.7155 42.3787 58.8874 42.4773C59.0594 42.5759 59.1577 42.773 59.1577 42.9948L59.3788 48.9089C59.3788 49.2047 59.2068 49.4757 58.912 49.5743L36.9742 55.932C36.7285 56.0059 36.5074 56.0306 36.2617 56.0306L36.2372 56.006ZM57.8802 43.8573L36.7531 49.9686C35.2054 50.4121 34.1736 51.6196 34.2227 52.4328C34.2473 52.9749 34.6895 53.8621 35.3773 54.3549C35.795 54.6506 36.188 54.7245 36.6057 54.626L58.0522 48.4161L57.8802 43.8573Z" fill="#3E3A39"/>
<path d="M41.9613 50.3597C41.7402 50.3597 41.5191 50.2118 41.47 49.99C41.3963 49.719 41.5437 49.4233 41.8384 49.3493L58.0278 44.6673C58.298 44.5933 58.5928 44.7412 58.6665 45.0369C58.7402 45.308 58.5928 45.6037 58.298 45.6776L42.1087 50.3597C42.1087 50.3597 42.0104 50.3597 41.9613 50.3597Z" fill="#3E3A39"/>
<path d="M41.8382 52.3089C41.6171 52.3089 41.396 52.161 41.3469 51.9393C41.2732 51.6682 41.4206 51.3725 41.7154 51.2985L57.9047 46.6165C58.1749 46.5426 58.4697 46.6904 58.5434 46.9861C58.6171 47.2572 58.4697 47.5529 58.1749 47.6268L41.9856 52.3089C41.9856 52.3089 41.8874 52.3089 41.8382 52.3089Z" fill="#3E3A39"/>
<path d="M34.247 44.7677L18.9666 24.3391C18.9666 24.3391 16.2397 20.9385 19.9002 19.2628L42.7224 12.6094L58.7152 33.7279" fill="#FBDACF"/>
<path d="M34.2474 45.4088C34.0508 45.4088 33.8543 45.3103 33.7315 45.1378L18.4511 24.7092C18.4511 24.7092 17.0017 22.8611 17.4193 21.0375C17.665 20.0025 18.402 19.214 19.6303 18.6472L42.5508 11.9691C42.8211 11.8952 43.0913 11.9691 43.2633 12.1909L59.256 33.3094C59.4771 33.6051 59.428 33.9994 59.1332 34.2212C58.8384 34.443 58.4453 34.3937 58.2242 34.098L42.5017 13.3245L20.0971 19.8547C19.3601 20.1997 18.8442 20.7172 18.6968 21.3332C18.4265 22.5407 19.4583 23.896 19.4829 23.896L34.7878 44.3246C35.0089 44.6203 34.9352 45.0145 34.665 45.2363C34.5422 45.3349 34.4193 45.3596 34.2719 45.3596L34.2474 45.4088Z" fill="#3E3A39"/>
<path d="M58.9118 39.6435L36.9739 46.0012C35.2542 46.494 33.8048 44.4487 33.7557 43.2166C33.7066 41.9845 35.0577 40.5799 36.7528 40.087L58.6907 33.7539L58.9118 39.6681V39.6435Z" fill="white"/>
<path d="M36.4335 46.7169C35.8684 46.7169 35.3034 46.5197 34.7875 46.1501C33.854 45.4848 33.1415 44.2526 33.0924 43.2177C33.0187 41.6652 34.5418 40.0142 36.5808 39.4227L58.5187 33.0896C58.7152 33.0404 58.9118 33.0896 59.0837 33.1882C59.2557 33.3114 59.354 33.4839 59.354 33.7057L59.5751 39.6199C59.5751 39.9156 59.4031 40.1866 59.1083 40.2852L37.1704 46.643C36.9248 46.7169 36.7037 46.7415 36.458 46.7415L36.4335 46.7169ZM58.0765 34.5928L36.9493 40.7042C35.4017 41.1477 34.3699 42.3552 34.419 43.1684C34.4436 43.7105 34.8858 44.5976 35.5736 45.0905C35.9913 45.3862 36.4089 45.4848 36.8019 45.3616L58.2485 39.1517L58.0765 34.5928Z" fill="#3E3A39"/>
<path d="M42.1576 41.094C41.9365 41.094 41.7154 40.9462 41.6662 40.7244C41.5925 40.4533 41.7399 40.1576 42.0347 40.0837L58.224 35.4017C58.4943 35.3277 58.7891 35.4756 58.8628 35.7713C58.9365 36.0424 58.7891 36.3381 58.4943 36.412L42.305 41.094C42.305 41.094 42.2067 41.094 42.1576 41.094Z" fill="#3E3A39"/>
<path d="M42.0345 43.0198C41.8134 43.0198 41.5923 42.872 41.5432 42.6502C41.4695 42.3791 41.6169 42.0834 41.9117 42.0095L58.101 37.3274C58.3712 37.2535 58.666 37.4014 58.7397 37.6971C58.8134 37.9681 58.666 38.2638 58.3712 38.3378L42.1819 43.0198C42.1819 43.0198 42.0837 43.0198 42.0345 43.0198Z" fill="#3E3A39"/>
<path d="M34.7384 38.2903C34.591 38.2903 34.419 38.2163 34.3207 38.0685L22.4306 21.9524C22.2586 21.7306 22.3077 21.3856 22.5288 21.2131C22.7499 21.0406 23.0939 21.0899 23.2658 21.3117L35.156 37.4278C35.328 37.6496 35.2788 37.9946 35.0577 38.167C34.9595 38.241 34.8612 38.2656 34.7384 38.2656V38.2903Z" fill="#3E3A39"/>
</g>
</svg>
