<svg width="76" height="76" viewBox="0 0 76 76" fill="none" xmlns="http://www.w3.org/2000/svg">
<mask id="mask0_3241_3702" style="mask-type:alpha" maskUnits="userSpaceOnUse" x="0" y="0" width="76" height="76">
<circle cx="38" cy="38" r="38" fill="#D9D9D9"/>
</mask>
<g mask="url(#mask0_3241_3702)">
<path d="M57 0C36.0058 0 19 17.0058 19 38C19 58.9942 36.0058 76 57 76" fill="white"/>
<path d="M24.736 21.9345C24.736 21.9345 21.0019 17.7206 15.2534 23.0434C9.82416 28.0704 13.9759 36.9663 18.1276 40.1945C22.2794 43.4226 25.2765 43.1023 29.6984 41.8702C34.1204 40.6381 37.1912 35.6849 37.6088 30.7072C38.1247 24.4234 33.7519 18.1889 24.7606 21.9345" fill="#FBDACF"/>
<path d="M24.7114 43.4206C22.5249 43.4206 20.314 42.7306 17.7345 40.7099C15.0322 38.6153 12.207 34.155 12.0105 29.6455C11.8877 26.8116 12.8457 24.3474 14.7865 22.5485C16.9483 20.5525 19.1593 19.5668 21.1983 19.69C23.0163 19.7885 24.2692 20.6757 24.8342 21.1685C29.7229 19.2711 32.8183 20.38 34.5871 21.6614C37.1174 23.5095 38.4931 26.9841 38.1983 30.7544C37.7562 36.3482 34.2186 41.2767 29.8212 42.5088C28.0033 43.0263 26.3327 43.4206 24.6622 43.4206H24.7114ZM20.9281 20.996C19.2576 20.996 17.5134 21.8339 15.6955 23.5095C14.0249 25.062 13.2142 27.1073 13.3371 29.5716C13.509 33.6376 16.1377 37.8021 18.5206 39.6503C22.2793 42.5827 24.9325 42.5088 29.5264 41.2274C33.4079 40.1431 36.5524 35.6829 36.9455 30.6312C37.2157 27.3291 36.0365 24.2735 33.8746 22.6963C31.6637 21.0699 28.5929 21.0207 24.9816 22.5238C24.7114 22.6224 24.4166 22.5731 24.2446 22.3514C24.22 22.3021 23.0654 21.0699 21.1492 20.996C21.0755 20.996 21.0018 20.996 20.9281 20.996Z" fill="#3E3A39"/>
<path d="M22.9424 23.043C22.9424 23.043 24.6129 25.2361 28.6172 23.4619L22.9424 23.043Z" fill="white"/>
<path d="M25.7184 24.8163C23.5074 24.8163 22.4756 23.5102 22.4265 23.4363C22.2054 23.1406 22.2545 22.7463 22.5493 22.5245C22.8195 22.3028 23.2372 22.3521 23.4583 22.6478C23.532 22.7463 24.9322 24.3727 28.347 22.8695C28.6664 22.7217 29.0594 22.8695 29.2068 23.2145C29.3542 23.5349 29.2068 23.9292 28.8629 24.077C27.61 24.6191 26.5782 24.8163 25.7184 24.8163Z" fill="#3E3A39"/>
<path d="M25.4484 23.8073C25.4484 23.6101 25.4484 19.3223 23.9253 17.5234L25.4484 23.8073Z" fill="white"/>
<path d="M25.4482 24.469C25.0797 24.469 24.7849 24.1733 24.7849 23.8283C24.7849 22.2266 24.4901 19.2202 23.4338 17.9634C23.1881 17.6924 23.2372 17.2734 23.5075 17.027C23.7777 16.7806 24.1953 16.8299 24.441 17.1009C26.0378 18.9738 26.1115 23.0151 26.1115 23.8283C26.1115 24.1979 25.8167 24.4937 25.4482 24.4937V24.469Z" fill="#3E3A39"/>
<path d="M25.5959 22.2543C25.5959 22.2543 24.6378 14.8862 33.5554 15.6994C33.5554 15.6994 33.9239 23.4617 25.5959 22.2543Z" fill="white"/>
<path d="M27.2415 23.0445C26.701 23.0445 26.1114 22.9952 25.4973 22.9213C25.2025 22.872 24.9814 22.6502 24.9323 22.3545C24.9323 22.2313 24.5392 19.151 26.6028 17.0071C28.1013 15.43 30.4351 14.7893 33.5797 15.0604C33.899 15.085 34.1692 15.3561 34.1692 15.6764C34.1692 15.8243 34.3166 19.2742 31.9583 21.4181C30.7545 22.5024 29.1823 23.0445 27.2169 23.0445H27.2415ZM26.2097 21.6645C28.3224 21.8863 29.9684 21.4674 31.0984 20.4324C32.4987 19.1756 32.8181 17.2535 32.8672 16.2925C30.4351 16.1693 28.6664 16.7114 27.5609 17.8942C26.3571 19.151 26.2097 20.8513 26.2097 21.6645Z" fill="#3E3A39"/>
<path d="M49.4499 27.0126C49.4499 27.0126 45.7158 22.7988 39.9672 28.1215C34.538 33.1486 38.6898 42.0445 42.8415 45.2726C46.9932 48.5008 49.9903 48.1804 54.4123 46.9483C58.8343 45.7162 61.9051 40.7631 62.3227 35.7853C62.8386 29.5015 58.4658 23.267 49.4744 27.0126" fill="#FBDACF"/>
<path d="M49.4251 48.4987C47.2387 48.4987 45.0277 47.8087 42.4482 45.788C39.7704 43.6934 36.9453 39.2332 36.7488 34.7236C36.6259 31.8898 37.584 29.4255 39.5248 27.6266C41.6866 25.6306 43.8485 24.6203 45.9366 24.7681C47.7545 24.8667 49.0074 25.7538 49.597 26.2466C54.4858 24.3492 57.5811 25.4581 59.3499 26.7395C61.8803 28.5877 63.256 32.0622 62.9612 35.8325C62.519 41.4263 58.9814 46.3548 54.584 47.5869C52.7415 48.1044 51.0956 48.4987 49.4251 48.4987ZM45.6418 26.0742C43.9713 26.0742 42.2271 26.912 40.4092 28.5877C38.7387 30.1401 37.928 32.1855 38.0508 34.6497C38.2228 38.7157 40.8514 42.8802 43.2343 44.7284C46.993 47.6609 49.6707 47.5623 54.2401 46.3055C58.1216 45.2213 61.2661 40.761 61.6592 35.7093C61.9294 32.4072 60.7502 29.3516 58.5884 27.7745C56.3774 26.1481 53.3066 26.0988 49.6953 27.602C49.4496 27.7005 49.1303 27.6513 48.9583 27.4295C48.9337 27.3802 47.7791 26.1481 45.8629 26.0742C45.7892 26.0742 45.7155 26.0742 45.6418 26.0742Z" fill="#3E3A39"/>
<path d="M47.6562 28.1172C47.6562 28.1172 49.3268 30.3104 53.3065 28.5361L47.6562 28.1172Z" fill="white"/>
<path d="M50.4322 29.8905C48.2213 29.8905 47.214 28.6091 47.1403 28.5105C46.9192 28.2148 46.9684 27.8205 47.2632 27.5988C47.5334 27.377 47.951 27.4263 48.1721 27.722C48.2458 27.7959 49.6461 29.4469 53.0609 27.9438C53.3802 27.7959 53.7733 27.9438 53.9207 28.2888C54.0681 28.6091 53.9207 29.0034 53.5767 29.1512C52.3239 29.6934 51.2921 29.8905 50.4077 29.8905H50.4322Z" fill="#3E3A39"/>
<path d="M50.1623 28.8854C50.1623 28.6882 50.1623 24.4005 48.6392 22.6016L50.1623 28.8854Z" fill="white"/>
<path d="M50.1621 29.5471C49.7936 29.5471 49.4988 29.2514 49.4988 28.9064C49.4988 27.3047 49.204 24.2983 48.1476 23.0416C47.902 22.7705 47.9511 22.3516 48.2213 22.1051C48.4915 21.8587 48.9092 21.908 49.1548 22.1791C50.7517 24.0519 50.8254 28.0932 50.8254 28.8818C50.8254 29.2514 50.5306 29.5471 50.1621 29.5471Z" fill="#3E3A39"/>
<path d="M50.3098 27.3285C50.3098 27.3285 49.3517 19.9604 58.2693 20.7736C58.2693 20.7736 58.6378 28.536 50.3098 27.3285Z" fill="white"/>
<path d="M51.9554 28.1199C51.4149 28.1199 50.8253 28.0706 50.2112 27.9967C49.9164 27.9474 49.6953 27.7256 49.6461 27.4299C49.6461 27.3067 49.2531 24.2264 51.3166 22.0579C52.8152 20.4808 55.1736 19.8401 58.2935 20.1111C58.6129 20.1358 58.8831 20.4068 58.8831 20.7272C58.8831 20.8751 59.0305 24.325 56.6721 26.4689C55.4684 27.5531 53.8961 28.0953 51.9308 28.0953L51.9554 28.1199ZM50.9481 26.7646C53.0609 26.9864 54.7068 26.5674 55.8369 25.5325C57.2372 24.2757 57.5565 22.3536 57.6057 21.3925C55.1981 21.2693 53.4294 21.8115 52.2993 22.9697C51.0955 24.2264 50.9481 25.9267 50.9481 26.7646Z" fill="#3E3A39"/>
<path d="M32.0324 38.79C32.0324 38.79 28.2983 34.5761 22.5497 39.8989C17.1206 44.9259 21.2723 53.8218 25.424 57.05C29.5758 60.2781 32.5729 59.9578 36.9948 58.7256C41.4168 57.4935 44.4876 52.5404 44.9052 47.5627C45.4211 41.2788 41.0237 35.0443 32.057 38.79" fill="#FBDACF"/>
<path d="M32.0077 60.2765C29.8213 60.2765 27.6103 59.5866 25.0063 57.5659C22.3285 55.4713 19.5034 51.011 19.3069 46.5015C19.184 43.6676 20.1421 41.2034 22.0829 39.4045C24.2447 37.4084 26.382 36.4474 28.4947 36.5459C30.3127 36.6445 31.5655 37.5316 32.1551 38.0245C37.0439 36.127 40.1392 37.2359 41.908 38.5173C44.4384 40.3655 45.8141 43.8401 45.5193 47.6104C45.0771 53.2042 41.5395 58.1327 37.1421 59.3648C35.3242 59.8823 33.6537 60.2765 31.9832 60.2765H32.0077ZM28.2245 37.8766C26.554 37.8766 24.8098 38.7145 22.9918 40.3902C21.3213 41.9426 20.5106 43.9879 20.6335 46.4522C20.8054 50.5182 23.434 54.6827 25.817 56.5309C29.5757 59.4387 32.2534 59.3648 36.8228 58.108C40.7043 57.0238 43.8488 52.5635 44.2418 47.5118C44.5121 44.2097 43.3329 41.1541 41.171 39.577C38.9601 37.9506 35.8892 37.9013 32.278 39.3798C32.0323 39.4784 31.7375 39.4291 31.541 39.2073C31.541 39.2073 30.3618 37.9259 28.4456 37.852C28.3719 37.852 28.2982 37.852 28.2245 37.852V37.8766Z" fill="#3E3A39"/>
<path d="M30.2388 39.8984C30.2388 39.8984 31.9093 42.0916 35.8891 40.3174L30.2388 39.8984Z" fill="white"/>
<path d="M33.0148 41.6718C30.8038 41.6718 29.772 40.3657 29.7229 40.2918C29.5018 39.9961 29.5509 39.6018 29.8457 39.38C30.1159 39.1582 30.5335 39.2075 30.7546 39.5032C30.8283 39.6018 32.2286 41.2282 35.6434 39.725C35.9627 39.5772 36.3558 39.725 36.5032 40.07C36.6506 40.3904 36.5032 40.7846 36.1593 40.9325C34.9064 41.4746 33.8746 41.6718 32.9902 41.6718H33.0148Z" fill="#3E3A39"/>
<path d="M32.7448 40.6861C32.7448 40.489 32.7448 36.2012 31.2217 34.4023L32.7448 40.6861Z" fill="white"/>
<path d="M32.7447 41.3284C32.3762 41.3284 32.0814 41.0327 32.0814 40.6877C32.0814 39.0859 31.7866 36.0796 30.7057 34.8228C30.4601 34.5517 30.5092 34.1328 30.7794 33.8864C31.0497 33.64 31.4673 33.6893 31.713 33.9603C33.3098 35.8331 33.3835 39.8745 33.3835 40.663C33.3835 41.0327 33.0887 41.3284 32.7202 41.3284H32.7447Z" fill="#3E3A39"/>
<path d="M32.8923 39.1332C32.8923 39.1332 31.9342 31.7651 40.8518 32.5783C40.8518 32.5783 41.2203 40.3407 32.8923 39.1332Z" fill="white"/>
<path d="M34.5379 39.8973C33.9974 39.8973 33.4078 39.848 32.7937 39.774C32.4989 39.7248 32.2778 39.503 32.2286 39.2073C32.2286 39.0841 31.8356 36.0038 33.8992 33.8352C35.3977 32.2581 37.7561 31.6174 40.876 31.8885C41.1954 31.9131 41.4656 32.1842 41.4656 32.5045C41.4656 32.6524 41.613 36.1023 39.2547 38.2462C38.0755 39.3305 36.4786 39.8726 34.5133 39.8726L34.5379 39.8973ZM33.5061 38.5419C35.6188 38.7391 37.2648 38.3448 38.3948 37.3098C39.7951 36.053 40.1145 34.1309 40.1636 33.1699C37.8052 33.0467 35.9873 33.5888 34.8573 34.747C33.6535 36.0038 33.5061 37.7041 33.5061 38.5419Z" fill="#3E3A39"/>
</g>
</svg>
