<svg width="140" height="111" viewBox="0 0 140 111" fill="none" xmlns="http://www.w3.org/2000/svg">
<g style="mix-blend-mode:multiply">
<mask id="mask0_3860_22242" style="mask-type:luminance" maskUnits="userSpaceOnUse" x="-8" y="-72" width="97" height="152">
<path d="M88.0213 -72H-7.03711V79.5484H88.0213V-72Z" fill="white"/>
</mask>
<g mask="url(#mask0_3860_22242)">
<path d="M40.4912 -65.7656C18.6684 -65.7656 0.978516 -48.0758 0.978516 -26.2529V39.1443C0.978516 60.9671 18.6684 78.657 40.4912 78.657C62.314 78.657 80.0039 60.9671 80.0039 39.1443V-26.2529C80.0039 -48.0758 62.314 -65.7656 40.4912 -65.7656Z" fill="#FAD5B7"/>
</g>
</g>
<path d="M49.0258 111C63.4289 111 75.1063 99.4739 75.1063 85.249C75.1063 71.0241 63.4289 59.498 49.0258 59.498C34.6228 59.498 22.9453 71.0241 22.9453 85.249C22.9453 99.4739 34.6228 111 49.0258 111Z" fill="#F4A76F"/>
<mask id="mask1_3860_22242" style="mask-type:luminance" maskUnits="userSpaceOnUse" x="22" y="59" width="54" height="52">
<path d="M22.9453 85.2412C22.9453 99.4661 34.6228 110.992 49.0258 110.992C63.4289 110.992 75.1063 99.4661 75.1063 85.2412C75.1063 71.0163 63.4289 59.4902 49.0258 59.4902C34.6228 59.4902 22.9453 71.0163 22.9453 85.2412Z" fill="white"/>
</mask>
<g mask="url(#mask1_3860_22242)">
<g opacity="0.75">
<mask id="mask2_3860_22242" style="mask-type:luminance" maskUnits="userSpaceOnUse" x="-16" y="63" width="146" height="92">
<path d="M129.121 63.6777H-15.8984V154.879H129.121V63.6777Z" fill="white"/>
</mask>
<g mask="url(#mask2_3860_22242)">
<g style="mix-blend-mode:multiply">
<mask id="mask3_3860_22242" style="mask-type:luminance" maskUnits="userSpaceOnUse" x="29" y="76" width="94" height="85">
<path d="M122.13 76.0215H29.0488V160.391H122.13V76.0215Z" fill="white"/>
</mask>
<g mask="url(#mask3_3860_22242)">
<path d="M74.7164 77.9096C95.4971 77.4553 112.715 93.9337 113.16 114.714C113.614 135.495 97.136 152.713 76.3553 153.158C55.5746 153.613 38.3569 137.134 37.9115 116.353C37.4572 95.5727 53.9357 78.3549 74.7164 77.9006" fill="#FBD8BC"/>
</g>
</g>
<g opacity="0.3">
<mask id="mask4_3860_22242" style="mask-type:luminance" maskUnits="userSpaceOnUse" x="-9" y="74" width="87" height="79">
<path d="M77.6828 74.1875H-8.78906V152.794H77.6828V74.1875Z" fill="white"/>
</mask>
<g mask="url(#mask4_3860_22242)">
<path d="M33.6268 76.0042C52.6171 75.5944 68.3473 90.8437 68.766 110.074C69.1846 129.305 54.1313 145.232 35.141 145.641C16.1507 146.051 0.420449 130.802 -0.00710046 111.571C-0.425742 92.3401 14.6276 76.4139 33.6179 76.0042" fill="#FBD9BF"/>
</g>
</g>
<g style="mix-blend-mode:multiply">
<mask id="mask5_3860_22242" style="mask-type:luminance" maskUnits="userSpaceOnUse" x="9" y="75" width="89" height="80">
<path d="M97.1449 75.5156H9.77344V154.176H97.1449V75.5156Z" fill="white"/>
</mask>
<g mask="url(#mask5_3860_22242)">
<path d="M52.6354 77.3409C71.8751 76.9223 87.8102 92.1805 88.2289 111.411C88.6475 130.651 73.3894 146.586 54.1585 147.005C34.9188 147.423 18.9837 132.165 18.5651 112.926C18.1464 93.6858 33.4046 77.7507 52.6443 77.332" fill="#FBD7BA"/>
</g>
</g>
</g>
</g>
</g>
<path d="M105.122 91.6146C105.122 92.3306 104.918 92.9479 104.497 93.4664C104.077 93.985 103.453 94.2566 102.612 94.2566C101.856 94.2566 101.244 94.0096 100.788 93.5282C100.331 93.0467 100.103 92.4047 100.103 91.6022V90.2812C100.103 89.1084 99.5869 88.5158 98.5424 88.5158H94.3402C93.4997 88.5158 92.8754 88.2689 92.4792 87.7627C92.083 87.2566 91.8789 86.7134 91.8789 86.1208C91.8789 85.4047 92.107 84.8245 92.5633 84.3553C93.0195 83.8985 93.6078 83.664 94.3282 83.664H110.945C111.701 83.664 112.314 83.8985 112.77 84.3553C113.226 84.8121 113.454 85.4047 113.454 86.1208C113.454 86.7134 113.25 87.2566 112.83 87.7627C112.41 88.2689 111.785 88.5158 110.945 88.5158H106.683C105.638 88.5158 105.122 89.1208 105.122 90.343V91.6022V91.6146ZM94.6283 72.4047C94.6283 70.8121 95.0005 69.4047 95.7329 68.1825C96.4773 66.9603 97.4618 66.0096 98.6985 65.3183C99.9351 64.6269 101.304 64.2812 102.781 64.2812C104.257 64.2812 105.626 64.6269 106.863 65.3183C108.099 66.0096 109.108 66.9603 109.864 68.1825C110.621 69.4047 111.005 70.8121 111.005 72.4047C111.005 73.9973 110.621 75.4788 109.864 76.7134C109.108 77.9479 108.099 78.9109 106.863 79.6146C105.626 80.3059 104.257 80.6516 102.781 80.6516C101.304 80.6516 99.9351 80.3059 98.6985 79.6146C97.4618 78.9232 96.4653 77.9603 95.7329 76.7134C94.9885 75.4788 94.6283 74.0343 94.6283 72.4047ZM94.6283 94.6269C94.6283 93.8738 94.8685 93.2442 95.3487 92.738C95.829 92.2319 96.4533 91.985 97.2097 91.985C97.894 91.985 98.4823 92.2319 98.9746 92.738C99.4789 93.2442 99.719 93.8738 99.719 94.6269V98.6516C99.719 99.2442 99.8871 99.7998 100.223 100.318C100.559 100.837 101.136 101.108 101.928 101.108H108.291C109.012 101.108 109.612 101.343 110.092 101.8C110.573 102.257 110.813 102.849 110.813 103.565C110.813 104.368 110.573 104.997 110.092 105.454C109.612 105.911 109.012 106.145 108.291 106.145H98.4463C97.4018 106.145 96.5013 105.8 95.7449 105.108C94.9885 104.417 94.6043 103.466 94.6043 102.244V94.6269H94.6283ZM99.671 72.4047C99.671 73.4171 99.9831 74.1948 100.595 74.7627C101.22 75.3306 101.94 75.6146 102.781 75.6146C103.705 75.6146 104.461 75.3306 105.062 74.7627C105.662 74.1948 105.962 73.4047 105.962 72.4047C105.962 71.4047 105.662 70.6763 105.062 70.1084C104.461 69.5405 103.705 69.2566 102.781 69.2566C101.94 69.2566 101.208 69.5405 100.595 70.1084C99.9711 70.6763 99.671 71.4417 99.671 72.4047ZM130.815 83.6146C130.815 84.664 131.331 85.1948 132.376 85.1948H136.578C137.419 85.1948 138.043 85.4541 138.463 85.985C138.883 86.5158 139.087 87.0714 139.087 87.6516C139.087 88.3183 138.859 88.9109 138.403 89.4171C137.947 89.9232 137.335 90.1701 136.578 90.1701H119.962C119.241 90.1701 118.653 89.9232 118.197 89.4171C117.74 88.9109 117.512 88.3306 117.512 87.6516C117.512 87.059 117.716 86.5035 118.113 85.985C118.509 85.4664 119.133 85.1948 119.974 85.1948H124.236C125.28 85.1948 125.797 84.6887 125.797 83.6887V82.4294C125.797 81.6763 125.977 81.0837 126.337 80.664H124.536C123.419 80.664 122.495 80.2813 121.774 79.5282C121.054 78.7751 120.694 77.8121 120.694 76.6269V68.8245C120.694 67.6516 121.054 66.701 121.774 65.9973C122.495 65.2812 123.419 64.9232 124.536 64.9232H132.22C133.336 64.9232 134.249 65.2812 134.945 65.9973C135.642 66.7133 135.99 67.6516 135.99 68.8245V76.6269C135.99 77.7998 135.642 78.7627 134.945 79.5282C134.249 80.2813 133.336 80.664 132.22 80.664H130.239C130.635 81.1208 130.839 81.7133 130.839 82.4294V83.6269L130.815 83.6146ZM125.652 73.664C125.652 74.2072 125.725 74.664 125.857 75.022C126.001 75.38 126.349 75.5529 126.901 75.5529H129.422C130.059 75.5529 130.467 75.38 130.647 75.022C130.827 74.664 130.911 74.2195 130.911 73.664V71.5899C130.911 71.1331 130.827 70.7257 130.647 70.3924C130.467 70.059 130.035 69.8862 129.362 69.8862H127.081C126.517 69.8862 126.145 70.0714 125.941 70.4171C125.737 70.7751 125.64 71.1578 125.64 71.5776V73.6516L125.652 73.664Z" fill="#F4A76F"/>
</svg>
