<svg width="325" height="54" viewBox="0 0 325 54" fill="none" xmlns="http://www.w3.org/2000/svg">
<mask id="path-1-inside-1_1388_112475" fill="white">
<path d="M325 54H15.7734L0 35.8047V17.6084L15.7734 0H325V54ZM10.5469 22.6104C8.30677 22.6104 6.49121 24.3558 6.49121 26.5088C6.49129 28.6617 8.30682 30.4072 10.5469 30.4072C12.7869 30.4072 14.6025 28.6617 14.6025 26.5088C14.6025 24.3558 12.7869 22.6104 10.5469 22.6104Z"/>
</mask>
<path d="M325 54H15.7734L0 35.8047V17.6084L15.7734 0H325V54ZM10.5469 22.6104C8.30677 22.6104 6.49121 24.3558 6.49121 26.5088C6.49129 28.6617 8.30682 30.4072 10.5469 30.4072C12.7869 30.4072 14.6025 28.6617 14.6025 26.5088C14.6025 24.3558 12.7869 22.6104 10.5469 22.6104Z" fill="#ECC8C1"/>
<path d="M325 54V55H326V54H325ZM15.7734 54L15.0178 54.655L15.3169 55H15.7734V54ZM0 35.8047H-1V36.1778L-0.755603 36.4597L0 35.8047ZM0 17.6084L-0.744851 16.9412L-1 17.226V17.6084H0ZM15.7734 0V-1H15.3267L15.0286 -0.667231L15.7734 0ZM325 0H326V-1H325V0ZM10.5469 22.6104L10.5469 21.6104H10.5469V22.6104ZM6.49121 26.5088H5.49121V26.5088L6.49121 26.5088ZM10.5469 30.4072V31.4072H10.5469L10.5469 30.4072ZM14.6025 26.5088L15.6025 26.5088V26.5088H14.6025ZM325 54V53H15.7734V54V55H325V54ZM15.7734 54L16.529 53.345L0.755603 35.1497L0 35.8047L-0.755603 36.4597L15.0178 54.655L15.7734 54ZM0 35.8047H1V17.6084H0H-1V35.8047H0ZM0 17.6084L0.744851 18.2756L16.5183 0.667231L15.7734 0L15.0286 -0.667231L-0.744851 16.9412L0 17.6084ZM15.7734 0V1H325V0V-1H15.7734V0ZM325 0H324V54H325H326V0H325ZM10.5469 22.6104V21.6104C7.79207 21.6104 5.49121 23.7667 5.49121 26.5088H6.49121H7.49121C7.49121 24.945 8.82147 23.6104 10.5469 23.6104V22.6104ZM6.49121 26.5088L5.49121 26.5088C5.49131 29.2508 7.79208 31.4072 10.5469 31.4072V30.4072V29.4072C8.82155 29.4072 7.49127 28.0726 7.49121 26.5088L6.49121 26.5088ZM10.5469 30.4072L10.5469 31.4072C13.3016 31.4072 15.6024 29.2508 15.6025 26.5088L14.6025 26.5088L13.6025 26.5088C13.6025 28.0726 12.2722 29.4072 10.5469 29.4072L10.5469 30.4072ZM14.6025 26.5088H15.6025C15.6025 23.7667 13.3016 21.6104 10.5469 21.6104L10.5469 22.6104L10.5469 23.6104C12.2723 23.6104 13.6025 24.945 13.6025 26.5088H14.6025Z" fill="#DA9186" mask="url(#path-1-inside-1_1388_112475)"/>
</svg>
