<svg width="650" height="197" viewBox="0 0 650 197" fill="none" xmlns="http://www.w3.org/2000/svg">
<path d="M11.6899 11.0059H104.717C111.116 11.0059 116.325 16.2149 116.325 22.6136V137.462C116.325 143.86 111.116 149.111 104.676 149.111H11.6489C5.25018 149.111 0 143.901 0 137.462V22.6136C0 16.2149 5.20917 10.9648 11.6489 10.9648L11.6899 11.0059Z" fill="#FCE2BA"/>
<path d="M11.687 11.0078H104.714C111.113 11.0078 116.322 16.2168 116.322 22.6155V137.464C116.322 143.862 111.113 149.072 104.714 149.072H11.687C5.28829 149.072 0.0791016 143.862 0.0791016 137.464V22.6155C0.0791016 16.2168 5.28829 11.0078 11.687 11.0078Z" fill="#FCE2BA"/>
<path d="M38.4406 184.232C37.7152 181.757 37.3526 179.496 37.3526 177.448C37.3526 175.4 37.7152 173.149 38.4406 170.696C39.1872 168.221 40.1259 166.077 41.2566 164.264H44.5206C43.2192 166.056 42.1526 168.179 41.3206 170.632C40.5099 173.085 40.1046 175.357 40.1046 177.448C40.1046 179.539 40.5099 181.811 41.3206 184.264C42.1526 186.717 43.2192 188.84 44.5206 190.632H41.2566C40.1259 188.819 39.1872 186.685 38.4406 184.232ZM68.9551 166.984V169.384H61.2751V166.984H68.9551ZM69.0511 172.36V174.76H61.2751V172.36H69.0511ZM62.2031 164.808V177.032H49.0191V164.808H62.2031ZM52.0911 167.272V174.536H59.1311V167.272H52.0911ZM71.1631 163.176V179.336H68.0591V163.176H71.1631ZM63.0671 182.824V183.304C63.0671 184.627 62.5977 185.864 61.6591 187.016C60.7204 188.168 59.4191 189.128 57.7551 189.896C56.0911 190.664 54.2244 191.165 52.1551 191.4L51.0991 189.064C52.8484 188.851 54.4271 188.456 55.8351 187.88C57.2644 187.304 58.3737 186.611 59.1631 185.8C59.9737 184.968 60.3791 184.136 60.3791 183.304V182.824H63.0671ZM63.6111 182.824V183.304C63.6111 184.115 64.0057 184.925 64.7951 185.736C65.5844 186.547 66.6724 187.251 68.0591 187.848C69.4671 188.445 71.0457 188.851 72.7951 189.064L71.7391 191.4C69.6484 191.165 67.7817 190.653 66.1391 189.864C64.5177 189.075 63.2377 188.104 62.2991 186.952C61.3817 185.8 60.9231 184.584 60.9231 183.304V182.824H63.6111ZM71.7391 181.128V183.464H52.2191V181.128H71.7391ZM63.5791 178.568V182.376H60.4111V178.568H63.5791ZM82.6838 170.696C83.4092 173.149 83.7718 175.4 83.7718 177.448C83.7718 179.496 83.4092 181.757 82.6838 184.232C81.9585 186.685 81.0305 188.819 79.8998 190.632H76.6358C77.9158 188.861 78.9612 186.749 79.7718 184.296C80.6038 181.821 81.0198 179.539 81.0198 177.448C81.0198 175.357 80.6038 173.085 79.7718 170.632C78.9612 168.157 77.9158 166.035 76.6358 164.264H79.8998C81.0305 166.077 81.9585 168.221 82.6838 170.696Z" fill="#595757"/>
<path d="M56.7517 86.0422V89.1536H25.5984V86.0422H56.7517ZM42.9836 87.4423V92.7706H39.172V87.4423H42.9836ZM42.3613 94.2875V95.182C42.3613 96.8674 41.7908 98.3972 40.65 99.7714C39.535 101.146 37.9664 102.273 35.9439 103.155C33.9215 104.063 31.6138 104.646 29.021 104.905L27.7375 102.027C29.9414 101.82 31.912 101.392 33.6492 100.744C35.3865 100.07 36.7348 99.2528 37.6941 98.2934C38.6535 97.3082 39.1332 96.271 39.1332 95.182V94.2875H42.3613ZM43.0225 94.2875V95.182C43.0225 96.3229 43.4892 97.373 44.4226 98.3323C45.382 99.2917 46.7303 100.095 48.4675 100.744C50.2047 101.392 52.1753 101.82 54.3792 102.027L53.1735 104.905C50.5547 104.62 48.2341 104.037 46.2117 103.155C44.2152 102.299 42.6465 101.184 41.5056 99.8103C40.3648 98.4361 39.7943 96.8933 39.7943 95.182V94.2875H43.0225ZM42.478 71.0295V72.3518C42.478 74.2965 41.8686 76.0855 40.65 77.7191C39.4313 79.3266 37.7719 80.662 35.6717 81.725C33.5715 82.7622 31.2249 83.4623 28.632 83.8253L27.2319 80.9083C29.4618 80.6231 31.4842 80.0656 33.2992 79.2359C35.1142 78.3802 36.5403 77.3561 37.5774 76.1633C38.6405 74.9447 39.172 73.6742 39.172 72.3518V71.0295H42.478ZM43.1002 71.0295V72.3518C43.1002 73.6742 43.6188 74.9447 44.656 76.1633C45.719 77.3561 47.1581 78.3802 48.9731 79.2359C50.814 80.0656 52.8235 80.6231 55.0015 80.9083L53.6791 83.8253C51.0863 83.4623 48.7397 82.7492 46.6395 81.6861C44.5393 80.6231 42.8798 79.2877 41.6612 77.6802C40.4425 76.0467 39.8332 74.2705 39.8332 72.3518V71.0295H43.1002ZM70.7073 75.9942V80.8849C70.7073 83.2982 70.2965 85.6858 69.475 88.0477C68.6791 90.4097 67.5495 92.5149 66.0861 94.3633C64.6228 96.1861 62.9668 97.5597 61.1184 98.4839L58.9618 95.5186C60.6306 94.6971 62.1325 93.5033 63.4675 91.9372C64.8025 90.3455 65.8422 88.5869 66.5868 86.6614C67.3313 84.7102 67.7036 82.7847 67.7036 80.8849V75.9942H70.7073ZM71.439 75.9942V80.8849C71.439 82.6307 71.7984 84.4278 72.5173 86.2763C73.2361 88.0991 74.2502 89.755 75.5596 91.244C76.8689 92.7331 78.3579 93.8755 80.0267 94.6714L77.9087 97.6752C76.0345 96.7509 74.3786 95.4159 72.9409 93.6702C71.5289 91.8987 70.4249 89.909 69.629 87.7011C68.8332 85.4676 68.4352 83.1955 68.4352 80.8849V75.9942H71.439ZM78.7174 74.2997V77.4575H60.1941V74.2997H78.7174ZM85.9572 70.9109V104.992H82.1447V70.9109H85.9572ZM91.2716 84.3893V87.5471H85.11V84.3893H91.2716Z" fill="#231815"/>
<path d="M31.6633 3C28.9561 3 26.7412 5.21498 26.7412 7.92211V19.7759C26.7412 22.483 28.9561 24.698 31.6633 24.698C34.3704 24.698 36.5853 22.483 36.5853 19.7759V7.92211C36.5853 5.21498 34.3704 3 31.6633 3Z" fill="#FCE2BA"/>
<path d="M31.6633 3C28.9561 3 26.7412 5.21498 26.7412 7.92211V19.7759C26.7412 22.483 28.9561 24.698 31.6633 24.698C34.3704 24.698 36.5853 22.483 36.5853 19.7759V7.92211C36.5853 5.21498 34.3704 3 31.6633 3Z" stroke="#FFFAF4" stroke-width="4.13639"/>
<path d="M86.9113 3C84.2042 3 81.9893 5.21498 81.9893 7.92211V19.7759C81.9893 22.483 84.2042 24.698 86.9113 24.698C89.6184 24.698 91.8334 22.483 91.8334 19.7759V7.92211C91.8334 5.21498 89.6184 3 86.9113 3Z" fill="#FCE2BA"/>
<path d="M86.9113 3C84.2042 3 81.9893 5.21498 81.9893 7.92211V19.7759C81.9893 22.483 84.2042 24.698 86.9113 24.698C89.6184 24.698 91.8334 22.483 91.8334 19.7759V7.92211C91.8334 5.21498 89.6184 3 86.9113 3Z" stroke="#FFFAF4" stroke-width="4.13639"/>
<path d="M189.578 10.9942H282.605C289.003 10.9942 294.212 16.2032 294.212 22.6019V137.45C294.212 143.849 289.003 149.099 282.564 149.099H189.537C183.138 149.099 177.888 143.89 177.888 137.45V22.6019C177.888 16.2032 183.097 10.9531 189.537 10.9531L189.578 10.9942Z" fill="#FCE2BA"/>
<path d="M189.58 11.002H282.606C289.005 11.002 294.214 16.211 294.214 22.6097V137.458C294.214 143.856 289.005 149.066 282.606 149.066H189.58C183.181 149.066 177.972 143.856 177.972 137.458V22.6097C177.972 16.211 183.181 10.9609 189.621 10.9609L189.58 11.002Z" fill="#FCE2BA"/>
<path d="M232.98 174.792V179.816H229.844V174.792H232.98ZM245.94 163.176V179.752H242.804V163.176H245.94ZM222.452 173.576C226.1 173.576 229.396 173.533 232.34 173.448C235.284 173.363 238.1 173.181 240.788 172.904L240.98 174.888C238.228 175.293 235.412 175.549 232.532 175.656C229.652 175.763 226.42 175.816 222.836 175.816L222.452 173.576ZM245.94 180.712V186.856H229.844V189.704H226.708V184.84H242.836V182.92H226.676V180.712H245.94ZM246.804 189V191.24H226.708V189H246.804ZM243.796 176.488V178.472H237.428V176.488H243.796ZM231.54 163.656C232.948 163.656 234.174 163.827 235.22 164.168C236.286 164.509 237.108 165.011 237.684 165.672C238.26 166.312 238.548 167.059 238.548 167.912C238.548 169.213 237.908 170.248 236.628 171.016C235.348 171.763 233.652 172.136 231.54 172.136C229.428 172.136 227.732 171.763 226.452 171.016C225.172 170.248 224.532 169.213 224.532 167.912C224.532 167.059 224.82 166.312 225.396 165.672C225.972 165.011 226.782 164.509 227.828 164.168C228.894 163.827 230.132 163.656 231.54 163.656ZM231.54 165.8C230.302 165.8 229.31 165.992 228.564 166.376C227.838 166.739 227.476 167.251 227.476 167.912C227.476 168.573 227.838 169.096 228.564 169.48C229.31 169.864 230.302 170.056 231.54 170.056C232.798 170.056 233.79 169.864 234.516 169.48C235.262 169.096 235.636 168.573 235.636 167.912C235.636 167.251 235.262 166.739 234.516 166.376C233.79 165.992 232.798 165.8 231.54 165.8Z" fill="#595757"/>
<path d="M226.05 48.8841H247.642V51.9037H226.05V48.8841ZM226.05 58.8528H247.807V61.831H226.05V58.8528ZM225.719 68.8629H247.601V71.8411H225.719V68.8629ZM224.147 48.8841H227.291V61.6656C227.291 68.8215 226.257 78.5834 219.142 84.788C218.687 84.1262 217.446 83.0093 216.785 82.5543C223.444 76.722 224.147 68.3251 224.147 61.6656V48.8841ZM246.277 48.8841H249.503V80.1966C249.503 82.3889 248.924 83.4643 247.352 84.0021C245.739 84.5398 243.009 84.5812 238.542 84.5812C238.335 83.6712 237.756 82.1821 237.218 81.3134C240.651 81.4375 244.043 81.3961 244.995 81.3961C245.946 81.3548 246.277 81.0652 246.277 80.1552V48.8841Z" fill="#231815"/>
<path d="M209.586 136.937C208.999 136.937 208.475 136.888 208.014 136.79C207.554 136.702 207.236 136.614 207.06 136.526L207.941 133.471C208.783 133.686 209.527 133.765 210.174 133.706C210.82 133.647 211.393 133.358 211.892 132.839C212.402 132.33 212.867 131.502 213.288 130.357L213.934 128.594L205.591 105.914H209.351L215.579 123.894H215.814L222.042 105.914H225.803L216.226 131.767C215.795 132.932 215.261 133.897 214.624 134.661C213.988 135.434 213.249 136.007 212.406 136.379C211.574 136.751 210.634 136.937 209.586 136.937ZM244.597 119.252V105.914H248.064V128.477H244.597V124.657H244.362C243.833 125.803 243.011 126.778 241.894 127.581C240.778 128.374 239.368 128.77 237.664 128.77C236.254 128.77 235 128.462 233.904 127.845C232.807 127.218 231.945 126.278 231.318 125.025C230.692 123.761 230.378 122.17 230.378 120.251V105.914H233.845V120.016C233.845 121.661 234.305 122.973 235.226 123.952C236.156 124.932 237.341 125.421 238.78 125.421C239.642 125.421 240.519 125.201 241.41 124.76C242.311 124.32 243.065 123.644 243.672 122.733C244.289 121.822 244.597 120.662 244.597 119.252ZM263.873 128.947C261.699 128.947 259.823 128.467 258.247 127.507C256.68 126.538 255.471 125.186 254.619 123.453C253.776 121.71 253.355 119.683 253.355 117.372C253.355 115.061 253.776 113.024 254.619 111.261C255.471 109.489 256.655 108.108 258.173 107.119C259.701 106.12 261.483 105.621 263.52 105.621C264.695 105.621 265.856 105.817 267.001 106.208C268.147 106.6 269.19 107.236 270.13 108.118C271.07 108.989 271.819 110.145 272.378 111.584C272.936 113.024 273.215 114.796 273.215 116.902V118.371H255.823V115.374H269.689C269.689 114.101 269.435 112.965 268.926 111.966C268.426 110.967 267.711 110.179 266.781 109.601C265.861 109.024 264.774 108.735 263.52 108.735C262.139 108.735 260.945 109.077 259.936 109.763C258.937 110.439 258.168 111.32 257.63 112.407C257.091 113.494 256.822 114.659 256.822 115.903V117.901C256.822 119.604 257.116 121.049 257.703 122.234C258.301 123.409 259.128 124.305 260.186 124.922C261.243 125.529 262.472 125.833 263.873 125.833C264.783 125.833 265.606 125.705 266.34 125.451C267.085 125.186 267.726 124.795 268.265 124.276C268.803 123.747 269.219 123.091 269.513 122.307L272.862 123.247C272.51 124.383 271.917 125.382 271.085 126.244C270.253 127.096 269.224 127.762 268 128.242C266.776 128.712 265.4 128.947 263.873 128.947ZM261.875 102.859L257.292 96.0435H261.346L264.93 102.859H261.875Z" fill="#231815"/>
<path d="M209.556 3C206.849 3 204.634 5.21498 204.634 7.92211V19.7759C204.634 22.483 206.849 24.698 209.556 24.698C212.263 24.698 214.478 22.483 214.478 19.7759V7.92211C214.478 5.21498 212.263 3 209.556 3Z" fill="#FCE2BA"/>
<path d="M209.556 3C206.849 3 204.634 5.21498 204.634 7.92211V19.7759C204.634 22.483 206.849 24.698 209.556 24.698C212.263 24.698 214.478 22.483 214.478 19.7759V7.92211C214.478 5.21498 212.263 3 209.556 3Z" stroke="#FFFAF4" stroke-width="4.13639"/>
<path d="M264.804 3C262.097 3 259.882 5.21498 259.882 7.92211V19.7759C259.882 22.483 262.097 24.698 264.804 24.698C267.511 24.698 269.726 22.483 269.726 19.7759V7.92211C269.726 5.21498 267.511 3 264.804 3Z" fill="#FCE2BA"/>
<path d="M264.804 3C262.097 3 259.882 5.21498 259.882 7.92211V19.7759C259.882 22.483 262.097 24.698 264.804 24.698C267.511 24.698 269.726 22.483 269.726 19.7759V7.92211C269.726 5.21498 267.511 3 264.804 3Z" stroke="#FFFAF4" stroke-width="4.13639"/>
<path d="M147.136 91.1834V71.9928H150.392V91.1834H147.136ZM139.169 83.2164V79.9598H158.359V83.2164H139.169Z" fill="#231815"/>
<path d="M367.469 11.0059H460.496C466.895 11.0059 472.104 16.2149 472.104 22.6136V137.462C472.104 143.86 466.895 149.111 460.455 149.111H367.428C361.029 149.111 355.779 143.901 355.779 137.462V22.6136C355.779 16.2149 360.988 10.9648 367.428 10.9648L367.469 11.0059Z" fill="#FCE2BA"/>
<path d="M460.501 11.0078H367.433C361.022 11.0078 355.825 16.2046 355.825 22.6155V137.505C355.825 143.915 361.022 149.113 367.433 149.113H460.501C466.912 149.113 472.109 143.915 472.109 137.505V22.6155C472.109 16.2046 466.912 11.0078 460.501 11.0078Z" fill="#FCE2BA"/>
<path d="M394.225 184.232C393.499 181.757 393.137 179.496 393.137 177.448C393.137 175.4 393.499 173.149 394.225 170.696C394.971 168.221 395.91 166.077 397.041 164.264H400.305C399.003 166.056 397.937 168.179 397.105 170.632C396.294 173.085 395.889 175.357 395.889 177.448C395.889 179.539 396.294 181.811 397.105 184.264C397.937 186.717 399.003 188.84 400.305 190.632H397.041C395.91 188.819 394.971 186.685 394.225 184.232ZM424.739 166.984V169.384H417.059V166.984H424.739ZM424.835 172.36V174.76H417.059V172.36H424.835ZM417.987 164.808V177.032H404.803V164.808H417.987ZM407.875 167.272V174.536H414.915V167.272H407.875ZM426.947 163.176V179.336H423.843V163.176H426.947ZM418.851 182.824V183.304C418.851 184.627 418.382 185.864 417.443 187.016C416.505 188.168 415.203 189.128 413.539 189.896C411.875 190.664 410.009 191.165 407.939 191.4L406.883 189.064C408.633 188.851 410.211 188.456 411.619 187.88C413.049 187.304 414.158 186.611 414.947 185.8C415.758 184.968 416.163 184.136 416.163 183.304V182.824H418.851ZM419.395 182.824V183.304C419.395 184.115 419.79 184.925 420.579 185.736C421.369 186.547 422.457 187.251 423.843 187.848C425.251 188.445 426.83 188.851 428.579 189.064L427.523 191.4C425.433 191.165 423.566 190.653 421.923 189.864C420.302 189.075 419.022 188.104 418.083 186.952C417.166 185.8 416.707 184.584 416.707 183.304V182.824H419.395ZM427.523 181.128V183.464H408.003V181.128H427.523ZM419.363 178.568V182.376H416.195V178.568H419.363ZM438.468 170.696C439.193 173.149 439.556 175.4 439.556 177.448C439.556 179.496 439.193 181.757 438.468 184.232C437.743 186.685 436.815 188.819 435.684 190.632H432.42C433.7 188.861 434.745 186.749 435.556 184.296C436.388 181.821 436.804 179.539 436.804 177.448C436.804 175.357 436.388 173.085 435.556 170.632C434.745 168.157 433.7 166.035 432.42 164.264H435.684C436.815 166.077 437.743 168.221 438.468 170.696Z" fill="#595757"/>
<path d="M412.535 86.0422V89.1536H381.382V86.0422H412.535ZM398.767 87.4423V92.7706H394.955V87.4423H398.767ZM398.144 94.2875V95.182C398.144 96.8674 397.574 98.3972 396.433 99.7714C395.318 101.146 393.75 102.273 391.727 103.155C389.705 104.063 387.397 104.646 384.804 104.905L383.521 102.027C385.725 101.82 387.695 101.392 389.432 100.744C391.17 100.07 392.518 99.2528 393.477 98.2934C394.437 97.3082 394.916 96.271 394.916 95.182V94.2875H398.144ZM398.806 94.2875V95.182C398.806 96.3229 399.272 97.373 400.206 98.3323C401.165 99.2917 402.513 100.095 404.251 100.744C405.988 101.392 407.958 101.82 410.162 102.027L408.957 104.905C406.338 104.62 404.017 104.037 401.995 103.155C399.998 102.299 398.43 101.184 397.289 99.8103C396.148 98.4361 395.578 96.8933 395.578 95.182V94.2875H398.806ZM398.261 71.0295V72.3518C398.261 74.2965 397.652 76.0855 396.433 77.7191C395.215 79.3266 393.555 80.662 391.455 81.725C389.355 82.7622 387.008 83.4623 384.415 83.8253L383.015 80.9083C385.245 80.6231 387.267 80.0656 389.082 79.2359C390.897 78.3802 392.323 77.3561 393.361 76.1633C394.424 74.9447 394.955 73.6742 394.955 72.3518V71.0295H398.261ZM398.883 71.0295V72.3518C398.883 73.6742 399.402 74.9447 400.439 76.1633C401.502 77.3561 402.941 78.3802 404.756 79.2359C406.597 80.0656 408.607 80.6231 410.785 80.9083L409.462 83.8253C406.869 83.4623 404.523 82.7492 402.423 81.6861C400.322 80.6231 398.663 79.2877 397.444 77.6802C396.226 76.0467 395.616 74.2705 395.616 72.3518V71.0295H398.883ZM426.491 75.9942V80.8849C426.491 83.2982 426.08 85.6858 425.258 88.0477C424.462 90.4097 423.333 92.5149 421.869 94.3633C420.406 96.1861 418.75 97.5597 416.902 98.4839L414.745 95.5186C416.414 94.6971 417.916 93.5033 419.251 91.9372C420.586 90.3455 421.625 88.5869 422.37 86.6614C423.114 84.7102 423.487 82.7847 423.487 80.8849V75.9942H426.491ZM427.222 75.9942V80.8849C427.222 82.6307 427.582 84.4278 428.3 86.2763C429.019 88.0991 430.033 89.755 431.343 91.244C432.652 92.7331 434.141 93.8755 435.81 94.6714L433.692 97.6752C431.818 96.7509 430.162 95.4159 428.724 93.6702C427.312 91.8987 426.208 89.909 425.412 87.7011C424.616 85.4676 424.218 83.1955 424.218 80.8849V75.9942H427.222ZM434.501 74.2997V77.4575H415.977V74.2997H434.501ZM441.74 70.9109V104.992H437.928V70.9109H441.74ZM447.055 84.3893V87.5471H440.893V84.3893H447.055Z" fill="#231815"/>
<path d="M387.447 3C384.74 3 382.525 5.21498 382.525 7.92211V19.7759C382.525 22.483 384.74 24.698 387.447 24.698C390.155 24.698 392.369 22.483 392.369 19.7759V7.92211C392.369 5.21498 390.155 3 387.447 3Z" fill="#FCE2BA"/>
<path d="M387.447 3C384.74 3 382.525 5.21498 382.525 7.92211V19.7759C382.525 22.483 384.74 24.698 387.447 24.698C390.155 24.698 392.369 22.483 392.369 19.7759V7.92211C392.369 5.21498 390.155 3 387.447 3Z" stroke="#FFFAF4" stroke-width="4.13639"/>
<path d="M442.695 3C439.988 3 437.773 5.21498 437.773 7.92211V19.7759C437.773 22.483 439.988 24.698 442.695 24.698C445.403 24.698 447.618 22.483 447.618 19.7759V7.92211C447.618 5.21498 445.403 3 442.695 3Z" fill="#FCE2BA"/>
<path d="M442.695 3C439.988 3 437.773 5.21498 437.773 7.92211V19.7759C437.773 22.483 439.988 24.698 442.695 24.698C445.403 24.698 447.618 22.483 447.618 19.7759V7.92211C447.618 5.21498 445.403 3 442.695 3Z" stroke="#FFFAF4" stroke-width="4.13639"/>
<path d="M545.366 10.9962H638.393C644.791 10.9962 650.001 16.2052 650.001 22.6039V137.452C650.001 143.851 644.791 149.06 638.393 149.06H545.366C538.967 149.06 533.717 143.851 533.717 137.411V22.5628C533.717 16.1641 538.926 10.9141 545.366 10.9141V10.9962Z" fill="#FCE2BA"/>
<path d="M638.352 11.0078H545.366C538.932 11.0078 533.717 16.2231 533.717 22.6566V137.464C533.717 143.897 538.932 149.113 545.366 149.113H638.352C644.785 149.113 650.001 143.897 650.001 137.464V22.6566C650.001 16.2231 644.785 11.0078 638.352 11.0078Z" fill="#FCE2BA"/>
<path d="M586.307 164.136C587.715 164.136 588.984 164.403 590.115 164.936C591.245 165.469 592.131 166.227 592.771 167.208C593.411 168.168 593.731 169.256 593.731 170.472C593.731 171.709 593.411 172.808 592.771 173.768C592.131 174.728 591.245 175.475 590.115 176.008C588.984 176.541 587.715 176.808 586.307 176.808C584.899 176.808 583.629 176.541 582.499 176.008C581.389 175.475 580.515 174.728 579.875 173.768C579.235 172.808 578.915 171.709 578.915 170.472C578.915 169.256 579.235 168.168 579.875 167.208C580.515 166.227 581.389 165.469 582.499 164.936C583.629 164.403 584.899 164.136 586.307 164.136ZM586.307 166.696C585.475 166.696 584.728 166.856 584.067 167.176C583.405 167.475 582.883 167.912 582.499 168.488C582.136 169.064 581.955 169.725 581.955 170.472C581.955 171.24 582.136 171.912 582.499 172.488C582.883 173.043 583.405 173.48 584.067 173.8C584.728 174.099 585.475 174.248 586.307 174.248C587.16 174.248 587.907 174.099 588.547 173.8C589.208 173.48 589.731 173.043 590.115 172.488C590.499 171.912 590.691 171.24 590.691 170.472C590.691 169.725 590.499 169.064 590.115 168.488C589.731 167.912 589.208 167.475 588.547 167.176C587.885 166.856 587.139 166.696 586.307 166.696ZM601.699 163.176V177.544H598.531V163.176H601.699ZM601.699 178.856V186.056H586.307V189.992H583.235V183.752H598.563V181.32H583.171V178.856H601.699ZM602.531 188.68V191.144H583.235V188.68H602.531Z" fill="#595757"/>
<path d="M582.124 51.1591V57.8187H602.268V51.1591H582.124ZM579.104 48.4291H605.453V60.5901H579.104V48.4291ZM573.355 63.7751H610.623V66.6706H573.355V63.7751ZM582.206 70.3106H603.302V73.2061H582.206V70.3106ZM602.185 70.3106H605.494C605.494 70.3106 605.412 71.3033 605.329 71.7583C604.253 79.0384 603.261 82.2648 601.689 83.6298C600.696 84.4984 599.703 84.7052 598.09 84.788C596.684 84.8707 593.954 84.788 591.058 84.6225C590.976 83.7539 590.562 82.513 589.983 81.6857C592.92 81.9339 595.939 81.9752 597.056 81.9752C598.049 81.9752 598.587 81.9339 599.083 81.603C600.324 80.6102 601.275 77.5493 602.144 70.7656L602.185 70.3106ZM582.992 64.561L586.26 65.0574C585.143 68.6974 583.613 73.2061 582.413 76.0602L579.104 75.4811C580.345 72.627 581.958 68.0356 582.992 64.561Z" fill="#231815"/>
<path d="M565.34 3C562.633 3 560.418 5.21498 560.418 7.92211V19.7759C560.418 22.483 562.633 24.698 565.34 24.698C568.047 24.698 570.262 22.483 570.262 19.7759V7.92211C570.262 5.21498 568.047 3 565.34 3Z" fill="#FCE2BA"/>
<path d="M565.34 3C562.633 3 560.418 5.21498 560.418 7.92211V19.7759C560.418 22.483 562.633 24.698 565.34 24.698C568.047 24.698 570.262 22.483 570.262 19.7759V7.92211C570.262 5.21498 568.047 3 565.34 3Z" stroke="#FFFAF4" stroke-width="4.13639"/>
<path d="M620.589 3C617.882 3 615.667 5.21498 615.667 7.92211V19.7759C615.667 22.483 617.882 24.698 620.589 24.698C623.296 24.698 625.511 22.483 625.511 19.7759V7.92211C625.511 5.21498 623.296 3 620.589 3Z" fill="#FCE2BA"/>
<path d="M620.589 3C617.882 3 615.667 5.21498 615.667 7.92211V19.7759C615.667 22.483 617.882 24.698 620.589 24.698C623.296 24.698 625.511 22.483 625.511 19.7759V7.92211C625.511 5.21498 623.296 3 620.589 3Z" stroke="#FFFAF4" stroke-width="4.13639"/>
<path d="M502.92 91.1834V71.9928H506.177V91.1834H502.92ZM494.953 83.2164V79.9598H514.144V83.2164H494.953Z" fill="#231815"/>
<path d="M201.189 39.3457H270.959C277.358 39.3457 282.608 44.555 282.608 50.9947V128.886C282.608 135.285 277.399 140.494 271 140.494H201.23C194.831 140.494 189.581 135.285 189.581 128.845V50.9537C189.581 44.555 194.79 39.3047 201.23 39.3047L201.189 39.3457Z" fill="#F7B664"/>
<path d="M556.974 39.3516H626.744C633.143 39.3516 638.352 44.5609 638.352 50.9596V128.851C638.352 135.25 633.143 140.459 626.744 140.459H556.974C550.575 140.459 545.325 135.25 545.325 128.81V50.9185C545.325 44.5198 550.534 39.2695 556.974 39.2695V39.3516Z" fill="#F7B664"/>
</svg>
