<svg width="854" height="217" viewBox="0 0 854 217" fill="none" xmlns="http://www.w3.org/2000/svg">
<path d="M33.4316 0H820.529C838.976 0 853.961 14.9852 853.961 33.4316V116.106C853.961 134.552 838.976 149.537 820.529 149.537H33.4316C14.9852 149.537 0 134.552 0 116.106V33.4316C0 14.9852 14.9852 0 33.4316 0Z" fill="#FEEBC4"/>
<path d="M820.568 60.5703H33.4316C14.9678 60.5703 0 75.5381 0 94.0019V183.245C0 201.708 14.9678 216.676 33.4316 216.676H820.568C839.032 216.676 854 201.708 854 183.245V94.0019C854 75.5381 839.032 60.5703 820.568 60.5703Z" fill="#FFFAF4"/>
<path d="M170.775 185.645V70.6797" stroke="#FEEBC4" stroke-width="3.1465" stroke-linecap="round" stroke-linejoin="round"/>
<path d="M341.594 185.645V70.6797" stroke="#FEEBC4" stroke-width="3.1465" stroke-linecap="round" stroke-linejoin="round"/>
<path d="M512.371 185.645V70.6797" stroke="#FEEBC4" stroke-width="3.1465" stroke-linecap="round" stroke-linejoin="round"/>
<path d="M683.186 185.645V70.6797" stroke="#FEEBC4" stroke-width="3.1465" stroke-linecap="round" stroke-linejoin="round"/>
<path d="M0 195H170.776" stroke="#FEEBC4" stroke-width="3.1465" stroke-miterlimit="10"/>
<path d="M170.775 195H341.591" stroke="#FEEBC4" stroke-width="3.1465" stroke-miterlimit="10"/>
<path d="M341.594 195H512.37" stroke="#FEEBC4" stroke-width="3.1465" stroke-miterlimit="10"/>
<path d="M512.371 195H683.187" stroke="#FEEBC4" stroke-width="3.1465" stroke-miterlimit="10"/>
<path d="M683.186 195H853.962" stroke="#FEEBC4" stroke-width="3.1465" stroke-miterlimit="10"/>
<path d="M170.775 58.0499V3.85156" stroke="white" stroke-width="3.1465" stroke-linecap="round" stroke-linejoin="round"/>
<path d="M341.594 58.0499V3.85156" stroke="white" stroke-width="3.1465" stroke-linecap="round" stroke-linejoin="round"/>
<path d="M512.371 58.0499V3.85156" stroke="white" stroke-width="3.1465" stroke-linecap="round" stroke-linejoin="round"/>
<path d="M683.186 58.0499V3.85156" stroke="white" stroke-width="3.1465" stroke-linecap="round" stroke-linejoin="round"/>
<path d="M69.555 20.868V23.08H53.679V20.868H69.555ZM73.699 37.444V39.712H51.299V37.444H73.699ZM70.787 20.868V23.528C70.787 25.7493 70.731 27.728 70.619 29.464C70.5257 31.1813 70.283 33.2067 69.891 35.54L67.119 35.288C67.5297 33.104 67.791 31.1533 67.903 29.436C68.015 27.7 68.071 25.7307 68.071 23.528V20.868H70.787ZM96.2677 18.376V43.212H93.5517V18.376H96.2677ZM94.2517 27.28V29.52H88.5677V27.28H94.2517ZM84.0037 22.072V25.236C84.0037 27.084 83.7143 28.8947 83.1357 30.668C82.5757 32.4227 81.7637 33.9813 80.6997 35.344C79.6543 36.688 78.4503 37.7147 77.0877 38.424L75.4917 36.24C76.7237 35.6427 77.8157 34.7653 78.7677 33.608C79.7383 32.4507 80.485 31.144 81.0077 29.688C81.549 28.2133 81.8197 26.7293 81.8197 25.236V22.072H84.0037ZM84.5917 22.072V25.236C84.5917 26.6547 84.853 28.064 85.3757 29.464C85.917 30.864 86.6637 32.124 87.6157 33.244C88.5677 34.3453 89.669 35.176 90.9197 35.736L89.2957 37.92C87.9143 37.248 86.701 36.2587 85.6557 34.952C84.629 33.6453 83.8263 32.152 83.2477 30.472C82.6877 28.7733 82.4077 27.028 82.4077 25.236V22.072H84.5917ZM89.9957 20.868V23.108H76.4157V20.868H89.9957ZM106.264 21.316C106.264 24.5827 105.975 27.5507 105.396 30.22C104.836 32.8893 103.791 35.3347 102.26 37.556L100.104 36.352C101.131 34.9333 101.924 33.4493 102.484 31.9C103.063 30.332 103.455 28.7173 103.66 27.056C103.866 25.3947 103.968 23.556 103.968 21.54V21.316H106.264ZM105.368 21.316V23.556H100.748V21.316H105.368ZM111.78 21.316C111.78 23.6307 111.687 25.7587 111.5 27.7C111.314 29.6413 110.931 31.6013 110.352 33.58C109.774 35.54 108.906 37.3507 107.748 39.012L105.592 37.78C106.712 36.2493 107.552 34.5973 108.112 32.824C108.672 31.0507 109.027 29.296 109.176 27.56C109.344 25.8053 109.428 23.808 109.428 21.568V21.316H111.78ZM110.94 21.316V23.556H107.048V21.316H110.94ZM121.496 18.404V43.184H118.864V18.404H121.496ZM114.72 27.952V30.192H110.576V27.952H114.72ZM116.792 18.992V41.952H114.216V18.992H116.792Z" fill="#050000"/>
<path d="M241.699 20.224C242.894 20.224 243.967 20.5787 244.919 21.288C245.871 21.9973 246.609 23.0147 247.131 24.34C247.673 25.6653 247.943 27.196 247.943 28.932C247.943 30.6867 247.673 32.2267 247.131 33.552C246.609 34.8773 245.871 35.904 244.919 36.632C243.986 37.3413 242.903 37.696 241.671 37.696C240.477 37.696 239.403 37.3413 238.451 36.632C237.499 35.904 236.753 34.8773 236.211 33.552C235.689 32.2267 235.427 30.6867 235.427 28.932C235.427 27.196 235.689 25.6653 236.211 24.34C236.753 23.0147 237.499 21.9973 238.451 21.288C239.403 20.5787 240.486 20.224 241.699 20.224ZM241.699 22.716C240.971 22.716 240.327 22.968 239.767 23.472C239.226 23.976 238.797 24.6947 238.479 25.628C238.181 26.5613 238.031 27.6627 238.031 28.932C238.031 30.22 238.181 31.34 238.479 32.292C238.797 33.2253 239.226 33.944 239.767 34.448C240.327 34.952 240.962 35.204 241.671 35.204C242.399 35.204 243.043 34.952 243.603 34.448C244.163 33.944 244.593 33.2253 244.891 32.292C245.19 31.34 245.339 30.22 245.339 28.932C245.339 27.6627 245.19 26.5613 244.891 25.628C244.593 24.6947 244.163 23.976 243.603 23.472C243.043 22.968 242.409 22.716 241.699 22.716ZM255.559 18.376V43.212H252.815V18.376H255.559ZM254.019 27.644V29.856H247.075V27.644H254.019ZM280.592 18.404V43.184H277.988V18.404H280.592ZM273.788 27.14V29.38H269.252V27.14H273.788ZM275.552 18.908V41.952H273.004V18.908H275.552ZM266.396 22.324V25.264C266.396 27.112 266.181 28.8947 265.752 30.612C265.341 32.3107 264.707 33.8413 263.848 35.204C263.008 36.548 261.981 37.6027 260.768 38.368L259.116 36.324C260.236 35.6147 261.188 34.6813 261.972 33.524C262.756 32.3667 263.335 31.0787 263.708 29.66C264.1 28.2413 264.296 26.776 264.296 25.264V22.324H266.396ZM266.984 22.324V25.264C266.984 26.7013 267.171 28.1013 267.544 29.464C267.917 30.808 268.477 32.0307 269.224 33.132C269.989 34.2333 270.932 35.1107 272.052 35.764L270.4 37.752C269.187 37.024 268.169 36.0253 267.348 34.756C266.527 33.468 265.911 32.012 265.5 30.388C265.089 28.7453 264.884 27.0373 264.884 25.264V22.324H266.984ZM271.1 21.148V23.388H259.872V21.148H271.1Z" fill="#050000"/>
<path d="M418.579 32.348V38.312H415.863V32.348H418.579ZM417.235 19.86C418.99 19.86 420.549 20.14 421.911 20.7C423.293 21.2413 424.375 22.016 425.159 23.024C425.943 24.0133 426.335 25.1707 426.335 26.496C426.335 27.8213 425.943 28.988 425.159 29.996C424.375 30.9853 423.293 31.7507 421.911 32.292C420.549 32.8333 418.99 33.104 417.235 33.104C415.481 33.104 413.913 32.8333 412.531 32.292C411.15 31.7507 410.067 30.976 409.283 29.968C408.518 28.96 408.135 27.8027 408.135 26.496C408.135 25.1707 408.518 24.0133 409.283 23.024C410.067 22.016 411.15 21.2413 412.531 20.7C413.913 20.14 415.481 19.86 417.235 19.86ZM417.207 22.044C415.975 22.044 414.874 22.2307 413.903 22.604C412.933 22.9773 412.177 23.5 411.635 24.172C411.094 24.8253 410.823 25.6 410.823 26.496C410.823 27.3733 411.094 28.148 411.635 28.82C412.177 29.492 412.933 30.0147 413.903 30.388C414.874 30.7427 415.975 30.92 417.207 30.92C418.458 30.92 419.569 30.7427 420.539 30.388C421.51 30.0147 422.266 29.492 422.807 28.82C423.367 28.148 423.647 27.3733 423.647 26.496C423.647 25.6 423.367 24.8253 422.807 24.172C422.266 23.5 421.51 22.9773 420.539 22.604C419.569 22.2307 418.458 22.044 417.207 22.044ZM428.491 37.864V40.104H406.035V37.864H428.491ZM450.36 23.948V26.16H433.448V23.948H450.36ZM452.964 28.26V30.5H430.508V28.26H452.964ZM436.136 18.74V25.04H433.448V18.74H436.136ZM450.164 32.404V38.536H435.996V41.364H433.252V36.52H447.42V34.532H433.196V32.404H450.164ZM450.948 40.748V42.876H433.252V40.748H450.948Z" fill="#050000"/>
<path d="M597.091 18.404V43.184H594.459V18.404H597.091ZM595.187 28.288V30.528H590.651V28.288H595.187ZM591.463 18.908V41.924H588.887V18.908H591.463ZM579.871 21.316V35.596H577.155V21.316H579.871ZM578.779 34.532C581.841 34.532 584.669 34.28 587.263 33.776L587.543 36.156C586.013 36.436 584.538 36.632 583.119 36.744C581.701 36.856 580.254 36.912 578.779 36.912H577.155V34.532H578.779ZM607.452 19.244C608.684 19.244 609.795 19.4773 610.784 19.944C611.773 20.4107 612.548 21.0733 613.108 21.932C613.668 22.772 613.948 23.724 613.948 24.788C613.948 25.8707 613.668 26.832 613.108 27.672C612.548 28.512 611.773 29.1653 610.784 29.632C609.795 30.0987 608.684 30.332 607.452 30.332C606.22 30.332 605.109 30.0987 604.12 29.632C603.149 29.1653 602.384 28.512 601.824 27.672C601.264 26.832 600.984 25.8707 600.984 24.788C600.984 23.724 601.264 22.772 601.824 21.932C602.384 21.0733 603.149 20.4107 604.12 19.944C605.109 19.4773 606.22 19.244 607.452 19.244ZM607.452 21.484C606.724 21.484 606.071 21.624 605.492 21.904C604.913 22.1653 604.456 22.548 604.12 23.052C603.803 23.556 603.644 24.1347 603.644 24.788C603.644 25.46 603.803 26.048 604.12 26.552C604.456 27.0373 604.913 27.42 605.492 27.7C606.071 27.9613 606.724 28.092 607.452 28.092C608.199 28.092 608.852 27.9613 609.412 27.7C609.991 27.42 610.448 27.0373 610.784 26.552C611.12 26.048 611.288 25.46 611.288 24.788C611.288 24.1347 611.12 23.556 610.784 23.052C610.448 22.548 609.991 22.1653 609.412 21.904C608.833 21.624 608.18 21.484 607.452 21.484ZM620.92 18.404V30.976H618.148V18.404H620.92ZM620.92 32.124V38.424H607.452V41.868H604.764V36.408H618.176V34.28H604.708V32.124H620.92ZM621.648 40.72V42.876H604.764V40.72H621.648Z" fill="#050000"/>
<path d="M769.491 37.864V40.104H747.035V37.864H769.491ZM759.579 31.788V38.424H756.863V31.788H759.579ZM766.859 20.364V32.208H749.555V20.364H766.859ZM752.243 22.548V30.024H764.171V22.548H752.243ZM773.944 34.924C775.68 34.924 777.239 34.8867 778.62 34.812C780.02 34.7187 781.467 34.5413 782.96 34.28L783.184 36.52C781.653 36.7813 780.179 36.9587 778.76 37.052C777.36 37.1453 775.755 37.192 773.944 37.192H772.264V34.924H773.944ZM781.028 21.008V29.94H774.924V35.848H772.264V27.784H778.396V23.248H772.236V21.008H781.028ZM792.62 18.404V43.184H789.988V18.404H792.62ZM786.096 27.14V29.38H782.148V27.14H786.096ZM787.524 18.964V41.924H784.976V18.964H787.524Z" fill="#050000"/>
</svg>
