<svg width="36" height="21" viewBox="0 0 36 21" fill="none" xmlns="http://www.w3.org/2000/svg">
<g clip-path="url(#clip0_370_36332)">
<path d="M25.7507 20.5007C25.4448 20.5007 25.1388 20.3981 24.8839 20.1674C24.3739 19.6802 24.3229 18.8853 24.8074 18.3469L32.762 9.62891C31.6657 8.88532 30.6204 8.11609 29.6006 7.34686C27.4334 5.75712 25.3938 4.26994 22.9717 2.88532C22.3598 2.55199 22.1303 1.75712 22.4873 1.14173C22.8187 0.526347 23.6091 0.295578 24.221 0.654552C26.796 2.09045 28.9887 3.70583 31.1303 5.26994C32.5071 6.29558 33.9093 7.32122 35.4391 8.32122C35.745 8.52635 35.949 8.85968 36 9.2443C36.051 9.62891 35.9235 9.98788 35.6686 10.2699L26.7195 20.0904C26.4646 20.3725 26.1331 20.5007 25.7762 20.5007H25.7507ZM28.9632 10.7571C28.9632 10.7571 28.9122 10.7571 28.8867 10.7571C18.4844 10.193 11.9575 10.2187 1.27479 10.5263H1.24929C0.586402 10.5263 0 9.96224 0 9.26994C0 8.55199 0.535411 7.96224 1.24929 7.96224C11.983 7.65455 18.5609 7.62891 29.0652 8.19301C29.779 8.21865 30.3144 8.83404 30.2635 9.55199C30.238 10.2443 29.6516 10.7571 28.9887 10.7571H28.9632Z" fill="#B8C86F"/>
</g>
<defs>
<clipPath id="clip0_370_36332">
<rect width="36" height="20" fill="white" transform="translate(0 0.5)"/>
</clipPath>
</defs>
</svg>
