<svg width="43" height="81" viewBox="0 0 43 81" fill="none" xmlns="http://www.w3.org/2000/svg">
<path d="M36.765 40.4688L22.5853 80.0486C22.1743 81.1789 20.4686 81.1789 20.0782 80.0486L5.89844 40.4688H36.7855H36.765Z" fill="#F8CC97"/>
<path d="M27.6197 60.6133C27.6197 60.6133 22.0711 66.7989 17.9199 68.7923" stroke="#F5B472" stroke-width="2.19888" stroke-linecap="round" stroke-linejoin="round"/>
<path d="M28.9567 51.8516C28.9567 51.8516 21.0037 59.6196 16.832 61.6129" stroke="#F5B472" stroke-width="2.19888" stroke-linecap="round" stroke-linejoin="round"/>
<path d="M26.9018 45.9375C26.9018 45.9375 19.4832 53.1507 15.332 55.144" stroke="#F5B472" stroke-width="2.19888" stroke-linecap="round" stroke-linejoin="round"/>
<path d="M19.1133 63.4688C19.1133 63.4688 22.5246 65.8731 24.6002 67.7432" stroke="#F5B472" stroke-width="2.19888" stroke-linecap="round" stroke-linejoin="round"/>
<path d="M12.5566 49.7031C12.5566 49.7031 23.2839 59.6289 27.435 61.6428" stroke="#F5B472" stroke-width="2.19888" stroke-linecap="round" stroke-linejoin="round"/>
<path d="M17.3867 45.9375C17.3867 45.9375 24.8053 53.1507 28.9565 55.144" stroke="#F5B472" stroke-width="2.19888" stroke-linecap="round" stroke-linejoin="round"/>
<path d="M41.3073 25.304C41.3073 36.3395 32.3473 45.2995 21.3118 45.2995C10.2763 45.2995 1.31641 36.3601 1.31641 25.304C1.31641 14.248 10.2557 5.30859 21.3118 5.30859C32.3679 5.30859 41.3073 14.248 41.3073 25.304Z" fill="#EE84B2"/>
<path d="M9.49542 47.3169C5.26206 47.3169 1.78906 43.8439 1.78906 39.6311C1.78906 35.4183 5.26206 31.9453 9.49542 31.9453C13.7288 31.9453 17.1813 35.3978 17.1813 39.6311C17.1813 43.8645 13.7082 47.3169 9.49542 47.3169Z" fill="#EE84B2"/>
<path d="M18.9681 47.3169C14.7347 47.3169 11.2617 43.8439 11.2617 39.6311C11.2617 35.4183 14.7347 31.9453 18.9681 31.9453C23.2014 31.9453 26.6539 35.3978 26.6539 39.6311C26.6539 43.8645 23.1809 47.3169 18.9681 47.3169Z" fill="#EE84B2"/>
<path d="M28.1946 47.3169C23.9613 47.3169 20.4883 43.8439 20.4883 39.6311C20.4883 35.4183 23.9613 31.9453 28.1946 31.9453C32.428 31.9453 35.8805 35.3978 35.8805 39.6311C35.8805 43.8645 32.4074 47.3169 28.1946 47.3169Z" fill="#EE84B2"/>
<path d="M34.3607 47.3169C30.1273 47.3169 26.6543 43.8439 26.6543 39.6311C26.6543 35.4183 30.1273 31.9453 34.3607 31.9453C38.594 31.9453 42.0465 35.3978 42.0465 39.6311C42.0465 43.8645 38.5735 47.3169 34.3607 47.3169Z" fill="#EE84B2"/>
<path d="M21.3111 0.871094C11.1182 0.871094 2.58986 8.45415 0.103274 18.7087C-0.246081 20.1062 0.329312 21.5858 1.50068 22.2639C2.95975 23.086 4.29548 23.7641 6.98757 22.7572C14.8172 16.8387 12.3924 29.8059 21.5578 17.7018C27.7434 15.0713 31.5041 21.1953 36.0868 23.9285C37.8952 24.4423 39.5187 24.3395 40.9161 23.8463C42.3341 23.3326 43.1356 21.7913 42.8478 20.1884C40.8545 9.17341 31.9767 0.871094 21.3111 0.871094Z" fill="#FADAE8"/>
<path d="M8.16187 8.59766L7.03516 16.5742L10.2909 17.0341L11.4176 9.05754L8.16187 8.59766Z" fill="white"/>
<path d="M24.0102 7.28696L21.4355 9.33203L26.4459 15.64L29.0206 13.5949L24.0102 7.28696Z" fill="#EE84B2"/>
<path d="M33.1448 5.27402L31.8125 13.2188L35.0553 13.7626L36.3876 5.81783L33.1448 5.27402Z" fill="#85D0F4"/>
<path d="M16.933 3.23233L14.9609 11.043L18.1489 11.8479L20.121 4.03725L16.933 3.23233Z" fill="#A1D2A5"/>
</svg>
