<svg width="76" height="79" viewBox="0 0 76 79" fill="none" xmlns="http://www.w3.org/2000/svg">
<path d="M52.8228 53.6167C42.671 65.0016 24.71 82.2227 7.94101 78.051C-7.1429 70.694 4.63241 48.8902 10.8797 39.211C21.9769 23.3256 36.7114 8.94041 55.1861 2.17936C62.2554 -0.553827 74.0718 -0.574378 75.5515 9.00206C76.2502 12.9888 75.3049 16.8728 74.0308 20.4486C77.5038 5.94006 70.1262 -0.574377 56.2959 5.26191C46.0002 9.57747 37.0813 16.7906 29.2311 24.6819C-11.9311 67.4471 2.51574 97.3067 52.8228 53.6373" fill="#319BD6"/>
<path d="M72.1202 42.6206C72.2641 41.4903 72.3463 40.319 72.3463 39.1476C72.3463 22.1525 57.5912 8.36328 39.3631 8.36328C21.135 8.36328 6.40039 22.1525 6.40039 39.1476C6.40039 39.1682 6.40039 39.1887 6.40039 39.2298C11.0653 33.784 20.7034 23.6116 32.3349 17.2205C32.3349 17.2205 19.5115 26.4064 7.1402 45.6004C10.3255 59.4924 23.5393 69.9114 39.3631 69.9114C55.1868 69.9114 67.1265 60.4583 71.0516 47.5527H50.2547C48.0147 52.1971 43.9869 55.3412 39.3631 55.3412C33.2391 55.3412 28.122 49.8954 26.8685 42.6001H72.0997L72.1202 42.6206ZM27.5672 32.9209C29.4989 27.064 34.0611 22.954 39.3836 22.954C44.7061 22.954 49.2683 27.0846 51.2 32.9209H27.5672Z" fill="#319BD6"/>
</svg>
