<svg width="960" height="87" viewBox="0 0 960 87" fill="none" xmlns="http://www.w3.org/2000/svg">
<rect x="481" y="1.73926" width="478" height="84" rx="9.13542" fill="white"/>
<rect x="481" y="1.73926" width="478" height="84" rx="9.13542" stroke="#DBEBCC" stroke-width="1.82708"/>
<path d="M318 45.7393L481 45.7393" stroke="#DBEBCC" stroke-width="2.48103" stroke-linecap="round" stroke-linejoin="round" stroke-dasharray="4.96 4.96"/>
<path d="M69.4139 6.2373H9.13542C4.09007 6.2373 0 10.3274 0 15.3727V76.58C0 81.6254 4.09007 85.7154 9.13542 85.7154H69.4139C74.4593 85.7154 78.5493 81.6254 78.5493 76.58V15.3727C78.5493 10.3274 74.4593 6.2373 69.4139 6.2373Z" fill="#DBEBCC"/>
<path d="M157.099 6.2373H96.821C91.7756 6.2373 87.6855 10.3274 87.6855 15.3727V76.58C87.6855 81.6254 91.7756 85.7154 96.821 85.7154H157.099C162.145 85.7154 166.235 81.6254 166.235 76.58V15.3727C166.235 10.3274 162.145 6.2373 157.099 6.2373Z" fill="#DBEBCC"/>
<path d="M244.783 6.2373H184.505C179.459 6.2373 175.369 10.3274 175.369 15.3727V76.58C175.369 81.6254 179.459 85.7154 184.505 85.7154H244.783C249.828 85.7154 253.918 81.6254 253.918 76.58V15.3727C253.918 10.3274 249.828 6.2373 244.783 6.2373Z" fill="#DBEBCC"/>
</svg>
