<svg width="477" height="304" viewBox="0 0 477 304" fill="none" xmlns="http://www.w3.org/2000/svg">
<rect x="1" y="1" width="475" height="302" rx="9" fill="white" stroke="#6E74A9" stroke-width="2" stroke-dasharray="3 3"/>
<path d="M28.3661 45V45.24L42.1261 52.08V57.16L22.7661 47.16V43.2L42.1261 33.2V38.24L28.3661 45ZM74.7308 26.56V39.36H79.8508V43.76H74.7308V63.76H69.6508V26.56H74.7308ZM52.5308 29.56V49.52H54.6908C58.4908 49.52 63.2108 49.24 66.9708 48.72L67.5308 53.08C63.7708 53.68 58.3708 53.92 53.4908 53.92H47.4108V29.56H52.5308ZM111.065 26.56V63.76H106.065V26.56H111.065ZM91.8648 47.24C85.8648 47.24 81.7848 43.32 81.7848 38.84V37.24C81.7848 32.76 85.8648 28.84 91.8648 28.84C97.8648 28.84 101.945 32.76 101.945 37.24V38.84C101.945 43.32 97.8648 47.24 91.8648 47.24ZM91.8648 33.16C88.6248 33.16 86.5848 35.32 86.5848 37.52V38.56C86.5848 40.76 88.6248 42.92 91.8648 42.92C95.1048 42.92 97.1448 40.76 97.1448 38.56V37.52C97.1448 35.32 95.1048 33.16 91.8648 33.16ZM80.3848 56.2V51.84C92.6248 51.84 99.3848 51.64 104.145 51.16L104.505 55.48C99.9048 56.04 92.6648 56.2 80.3848 56.2ZM143.999 29.52V39.24H150.359V26.56H155.439V63.76H150.359V43.6H143.999V54.16H125.959V29.52H130.959V37.88H138.999V29.52H143.999ZM130.959 42.2V49.92H138.999V42.2H130.959ZM161.573 50.56L159.813 46.52C168.413 43.48 171.253 41.88 172.173 40.36L160.093 40.8L159.973 36.6L172.613 36.32V32.96H161.093V28.72H177.533V37.08C177.533 43.64 174.453 45.92 161.573 50.56ZM177.333 57.6H177.293C177.053 58.32 175.573 59.24 173.413 60.36C170.853 61.68 167.933 63.04 165.213 64.16L163.213 60C166.173 58.8 169.533 57.32 171.853 56.08C173.733 55.08 174.613 53.84 174.613 51.8V48.72H179.733V51.8C179.733 53.84 180.493 55.04 182.453 56.08C184.733 57.28 188.333 58.88 191.133 60L189.173 64.04C186.253 62.76 183.533 61.52 181.013 60.24C178.933 59.2 177.613 58.28 177.333 57.6ZM189.373 26.56V50.64H184.333V26.56H189.373ZM234.187 26.56V63.76H229.107V26.56H234.187ZM210.467 43.92V50.64H214.347C217.987 50.64 222.107 50.4 225.827 49.92L226.387 54.16C222.627 54.72 218.027 54.92 213.147 54.92H205.467V39.8H217.467V33.72H205.467V29.44H222.467V43.92H210.467ZM237.281 54.8H271.361V59.08H237.281V54.8ZM254.481 41.32H254.441C254.041 42.24 252.561 43.24 250.561 44.6C248.401 46.04 245.561 47.76 241.721 49.92L239.241 45.92C242.161 44.28 245.361 42.4 247.681 40.8C250.841 38.64 251.761 36.68 251.761 33.2V29.08H256.881V33.2C256.881 36.68 257.801 38.64 260.961 40.8C263.281 42.4 266.481 44.28 269.401 45.92L266.961 49.84C263.121 47.68 260.281 45.96 258.121 44.52C256.121 43.16 254.881 42.2 254.481 41.32ZM271.695 54.8H305.775V59.08H271.695V54.8ZM301.415 45.48V49.72H276.095V29.32H301.015V33.56H281.095V37.4H300.695V41.64H281.095V45.48H301.415ZM322.629 45.24V45L308.869 38.24V33.2L328.229 43.2V47.16L308.869 57.16V52.08L322.629 45.24Z" fill="#1E1E1E"/>
<path d="M27.3964 101.04V103.04C27.3964 109.12 28.7564 115.16 32.8764 120.8H29.1964C25.2364 116.08 23.3164 109.96 23.3164 102.84V101.24C23.3164 94.12 25.2364 88.08 29.1964 83.36H32.8764C28.9564 88.64 27.3964 94.64 27.3964 101.04ZM49.593 115.04H45.633V90.84L38.873 94.84L36.993 91.64L46.273 86.2H49.593V115.04ZM64.607 103.04V101.04C64.607 94.64 63.047 88.64 59.127 83.36H62.807C66.767 88.08 68.687 94.12 68.687 101.24V102.84C68.687 109.96 66.767 116.08 62.807 120.8H59.127C63.247 115.16 64.607 109.12 64.607 103.04Z" fill="#1E1E1E"/>
<path d="M27.3964 151.04V153.04C27.3964 159.12 28.7564 165.16 32.8764 170.8H29.1964C25.2364 166.08 23.3164 159.96 23.3164 152.84V151.24C23.3164 144.12 25.2364 138.08 29.1964 133.36H32.8764C28.9564 138.64 27.3964 144.64 27.3964 151.04ZM36.353 161.72L47.113 150.04C50.393 146.44 50.713 144.84 50.713 143.32V143C50.713 140.72 48.753 139.32 45.753 139.32C43.633 139.32 41.353 140.16 39.473 143.52L36.433 141.56C37.793 139.08 40.353 135.76 45.673 135.76C51.513 135.76 54.673 138.8 54.673 143V143.4C54.673 146.52 52.833 149.24 50.233 152L41.233 161.6H55.713V165.04H36.353V161.72ZM64.607 153.04V151.04C64.607 144.64 63.047 138.64 59.127 133.36H62.807C66.767 138.08 68.687 144.12 68.687 151.24V152.84C68.687 159.96 66.767 166.08 62.807 170.8H59.127C63.247 165.16 64.607 159.12 64.607 153.04Z" fill="#1E1E1E"/>
<path d="M27.3964 201.04V203.04C27.3964 209.12 28.7564 215.16 32.8764 220.8H29.1964C25.2364 216.08 23.3164 209.96 23.3164 202.84V201.24C23.3164 194.12 25.2364 188.08 29.1964 183.36H32.8764C28.9564 188.64 27.3964 194.64 27.3964 201.04ZM39.633 192.16L36.793 190.08C38.473 187.68 40.873 185.76 45.193 185.76C50.513 185.76 53.913 188.64 53.913 192.96V193.36C53.913 195.64 52.953 198.6 49.393 199.88C53.273 200.56 55.233 203.2 55.233 206.52V207.12C55.233 211.36 52.233 215.48 45.153 215.48C41.793 215.48 38.633 214.44 35.913 212.28L37.873 209.12C40.673 211.16 42.673 211.88 45.153 211.88C49.353 211.88 51.273 209.76 51.273 207.16V206.64C51.273 202.84 48.673 201.72 45.313 201.72H41.753V198.28H45.153C48.753 198.28 49.993 195.88 49.993 193.4V193.08C49.993 190.56 47.833 189.28 45.233 189.28C42.873 189.28 41.193 190.12 39.633 192.16ZM64.607 203.04V201.04C64.607 194.64 63.047 188.64 59.127 183.36H62.807C66.767 188.08 68.687 194.12 68.687 201.24V202.84C68.687 209.96 66.767 216.08 62.807 220.8H59.127C63.247 215.16 64.607 209.12 64.607 203.04Z" fill="#1E1E1E"/>
<path d="M122.707 258.707C123.098 258.317 123.098 257.683 122.707 257.293L116.343 250.929C115.953 250.538 115.319 250.538 114.929 250.929C114.538 251.319 114.538 251.953 114.929 252.343L120.586 258L114.929 263.657C114.538 264.047 114.538 264.681 114.929 265.071C115.319 265.462 115.953 265.462 116.343 265.071L122.707 258.707ZM72 258V259H122V258V257H72V258Z" fill="#1E1E1E"/>
<line x1="304" y1="283" x2="457" y2="283" stroke="#1E1E1E" stroke-width="2"/>
<path d="M163.12 275.6H159.16V260.4H151.44C150.16 264.6 146.92 266.72 142.76 266.72C137.36 266.72 133.48 263.12 133.48 256.08V251.92C133.48 244.84 137.36 241.24 142.76 241.24C146.8 241.24 149.96 243.28 151.32 247.24H159.16V238.72H163.12V275.6ZM142.76 263.16C145.64 263.16 148.24 261.16 148.24 255.52V252.48C148.24 246.84 145.64 244.84 142.76 244.84C139.88 244.84 137.28 246.84 137.28 252.48V255.52C137.28 261.16 139.88 263.16 142.76 263.16ZM152.04 251.92V256.08C152.04 256.36 152.04 256.64 152 256.92H159.16V250.72H152C152 251.12 152.04 251.52 152.04 251.92ZM175.254 270.24V268.72C175.254 264.56 179.734 262.28 186.774 262.28C193.814 262.28 198.294 264.6 198.294 268.72V270.24C198.294 274.36 193.814 276.68 186.774 276.68C179.734 276.68 175.254 274.4 175.254 270.24ZM194.254 248.16V238.72H198.054V261.56H194.254V251.56H190.654V260H186.894V239.2H190.654V248.16H194.254ZM175.894 260.8C171.134 260.8 168.214 258.08 168.214 255V253.48C168.214 250.36 171.134 247.68 175.894 247.68C180.654 247.68 183.574 250.36 183.574 253.48V255C183.574 258.08 180.654 260.8 175.894 260.8ZM194.414 270V268.96C194.414 266.88 191.294 265.52 186.774 265.52C182.254 265.52 179.134 266.88 179.134 268.96V269.96C179.134 272.08 182.254 273.44 186.774 273.44C191.294 273.44 194.414 272.08 194.414 270ZM166.934 243H173.974V238.76H177.814V243H184.134V246.32H166.934V243ZM175.894 250.76C173.414 250.76 171.734 252.08 171.734 253.8V254.68C171.734 256.4 173.414 257.72 175.894 257.72C178.374 257.72 180.054 256.4 180.054 254.68V253.8C180.054 252.08 178.374 250.76 175.894 250.76ZM232.508 253C229.868 251.68 228.548 250.72 228.068 249.8H228.028C227.588 250.72 226.228 251.72 223.588 253.04C221.428 254.12 218.708 255.44 215.388 256.72L213.828 253.48C216.788 252.36 219.748 251.04 222.308 249.64C225.548 247.88 226.028 246.16 226.068 244.2H215.468V240.84H240.668V244.2H230.028C230.068 246.16 230.508 247.88 233.748 249.64C236.308 251.04 239.268 252.36 242.228 253.48L240.708 256.68C237.388 255.4 234.668 254.08 232.508 253ZM230.028 275.6H226.028V262.96H211.108V259.6H244.948V262.96H230.028V275.6ZM254.922 257.64H254.882C254.602 258.44 253.962 259.32 253.162 260.28C251.562 262.2 249.522 264.4 247.402 266.56L244.722 263.88C247.122 261.6 249.202 259.44 250.922 257.2C252.522 255.12 252.922 253.16 252.922 250.88V245.6H246.602V242.28H262.682V245.6H256.762V250.88C256.762 253.16 257.282 255.04 258.882 257.12C260.562 259.28 262.322 261.16 264.682 263.44L262.002 266.08C259.882 263.96 258.202 262.2 256.602 260.28C255.802 259.32 255.202 258.44 254.922 257.64ZM266.442 250.8V239.48H270.322V273.8H266.442V254.24H260.842V250.8H266.442ZM277.642 238.72V275.6H273.762V238.72H277.642Z" fill="#1E1E1E"/>
<path d="M291 253.422C289.325 253.422 288 252.074 288 250.25C288 248.387 289.325 247 291 247C292.675 247 294 248.387 294 250.25C294 252.074 292.675 253.422 291 253.422ZM291 269C289.325 269 288 267.692 288 265.829C288 263.966 289.325 262.578 291 262.578C292.675 262.578 294 263.966 294 265.829C294 267.692 292.675 269 291 269Z" fill="#1E1E1E"/>
</svg>
