<svg width="960" height="338" viewBox="0 0 960 338" fill="none" xmlns="http://www.w3.org/2000/svg">
<rect width="960" height="338" rx="10" fill="#FEEDE8"/>
<circle cx="30" cy="42" r="20" fill="#F98686"/>
<path d="M23.6817 48.6836C20.0657 48.6836 18.373 46.213 18.373 41.8439V39.0352C18.373 34.6661 20.0657 32.1955 23.6817 32.1955C26.1949 32.1955 27.7849 33.3918 28.503 35.6023H31.1189V30.8691H34.1707V53.3908H31.1189V45.3287H28.503C27.7593 47.5133 26.1693 48.6836 23.6817 48.6836ZM38.8382 30.375V54.561H35.7607V30.375H38.8382ZM23.6817 35.0562C21.9121 35.0562 21.3479 36.5645 21.3479 39.3993V41.4798C21.3479 44.3145 21.9121 45.8229 23.6817 45.8229C25.4512 45.8229 26.0154 44.3145 26.0154 41.4798V39.3993C26.0154 36.5645 25.4512 35.0562 23.6817 35.0562ZM28.9903 41.8439C28.9903 42.1039 28.9903 42.364 28.9646 42.5981H31.1189V38.333H28.9646C28.9903 38.567 28.9903 38.8011 28.9903 39.0352V41.8439Z" fill="white"/>
<path d="M68.3661 41V41.24L82.1261 48.08V53.16L62.7661 43.16V39.2L82.1261 29.2V34.24L68.3661 41ZM114.731 22.56V35.36H119.851V39.76H114.731V59.76H109.651V22.56H114.731ZM92.5308 25.56V45.52H94.6908C98.4908 45.52 103.211 45.24 106.971 44.72L107.531 49.08C103.771 49.68 98.3708 49.92 93.4908 49.92H87.4108V25.56H92.5308ZM151.065 22.56V59.76H146.065V22.56H151.065ZM131.865 43.24C125.865 43.24 121.785 39.32 121.785 34.84V33.24C121.785 28.76 125.865 24.84 131.865 24.84C137.865 24.84 141.945 28.76 141.945 33.24V34.84C141.945 39.32 137.865 43.24 131.865 43.24ZM131.865 29.16C128.625 29.16 126.585 31.32 126.585 33.52V34.56C126.585 36.76 128.625 38.92 131.865 38.92C135.105 38.92 137.145 36.76 137.145 34.56V33.52C137.145 31.32 135.105 29.16 131.865 29.16ZM120.385 52.2V47.84C132.625 47.84 139.385 47.64 144.145 47.16L144.505 51.48C139.905 52.04 132.665 52.2 120.385 52.2ZM183.999 25.52V35.24H190.359V22.56H195.439V59.76H190.359V39.6H183.999V50.16H165.959V25.52H170.959V33.88H178.999V25.52H183.999ZM170.959 38.2V45.92H178.999V38.2H170.959ZM201.573 46.56L199.813 42.52C208.413 39.48 211.253 37.88 212.173 36.36L200.093 36.8L199.973 32.6L212.613 32.32V28.96H201.093V24.72H217.533V33.08C217.533 39.64 214.453 41.92 201.573 46.56ZM217.333 53.6H217.293C217.053 54.32 215.573 55.24 213.413 56.36C210.853 57.68 207.933 59.04 205.213 60.16L203.213 56C206.173 54.8 209.533 53.32 211.853 52.08C213.733 51.08 214.613 49.84 214.613 47.8V44.72H219.733V47.8C219.733 49.84 220.493 51.04 222.453 52.08C224.733 53.28 228.333 54.88 231.133 56L229.173 60.04C226.253 58.76 223.533 57.52 221.013 56.24C218.933 55.2 217.613 54.28 217.333 53.6ZM229.373 22.56V46.64H224.333V22.56H229.373ZM274.187 22.56V59.76H269.107V22.56H274.187ZM250.467 39.92V46.64H254.347C257.987 46.64 262.107 46.4 265.827 45.92L266.387 50.16C262.627 50.72 258.027 50.92 253.147 50.92H245.467V35.8H257.467V29.72H245.467V25.44H262.467V39.92H250.467ZM277.281 50.8H311.361V55.08H277.281V50.8ZM294.481 37.32H294.441C294.041 38.24 292.561 39.24 290.561 40.6C288.401 42.04 285.561 43.76 281.721 45.92L279.241 41.92C282.161 40.28 285.361 38.4 287.681 36.8C290.841 34.64 291.761 32.68 291.761 29.2V25.08H296.881V29.2C296.881 32.68 297.801 34.64 300.961 36.8C303.281 38.4 306.481 40.28 309.401 41.92L306.961 45.84C303.121 43.68 300.281 41.96 298.121 40.52C296.121 39.16 294.881 38.2 294.481 37.32ZM311.695 50.8H345.775V55.08H311.695V50.8ZM341.415 41.48V45.72H316.095V25.32H341.015V29.56H321.095V33.4H340.695V37.64H321.095V41.48H341.415ZM362.629 41.24V41L348.869 34.24V29.2L368.229 39.2V43.16L348.869 53.16V48.08L362.629 41.24Z" fill="#1E1E1E"/>
<path d="M67.3964 103.04V105.04C67.3964 111.12 68.7564 117.16 72.8764 122.8H69.1964C65.2364 118.08 63.3164 111.96 63.3164 104.84V103.24C63.3164 96.12 65.2364 90.08 69.1964 85.36H72.8764C68.9564 90.64 67.3964 96.64 67.3964 103.04ZM89.593 117.04H85.633V92.84L78.873 96.84L76.993 93.64L86.273 88.2H89.593V117.04ZM104.607 105.04V103.04C104.607 96.64 103.047 90.64 99.127 85.36H102.807C106.767 90.08 108.687 96.12 108.687 103.24V104.84C108.687 111.96 106.767 118.08 102.807 122.8H99.127C103.247 117.16 104.607 111.12 104.607 105.04Z" fill="#1E1E1E"/>
<path d="M153.88 121.84H130V111.76H148.96V108.2H129.8V104.92H152.84V114.96H133.88V118.56H153.88V121.84ZM152.84 103.08H148.92V84.72H152.84V103.08ZM132.76 85.24C138.76 85.24 141.92 89.16 141.92 92.84V94.44C141.92 98.12 138.76 102.04 132.76 102.04C126.76 102.04 123.6 98.12 123.6 94.44V92.84C123.6 89.16 126.76 85.24 132.76 85.24ZM132.76 98.64C136.2 98.64 138.12 96.48 138.12 94.2V93.08C138.12 90.84 136.2 88.68 132.76 88.68C129.32 88.68 127.4 90.8 127.4 93.08V94.2C127.4 96.48 129.32 98.64 132.76 98.64ZM185.654 85.68V100.68H175.614V104.56H190.534V107.92H156.694V104.56H171.614V100.68H161.534V85.72H165.454V90.2H181.734V85.68H185.654ZM165.534 110.6V117.76H186.374V121.2H161.574V110.6H165.534ZM165.454 93.4V97.36H181.734V93.4H165.454ZM218.028 85.44C225.548 85.44 230.428 88.64 230.428 93.36V94.8C230.428 99.52 225.548 102.72 218.028 102.72C210.508 102.72 205.628 99.52 205.628 94.8V93.36C205.628 88.64 210.508 85.44 218.028 85.44ZM226.428 121.52H222.468V109.48H213.588V121.52H209.628V109.48H201.108V106.12H234.948V109.48H226.428V121.52ZM218.028 99.28C223.148 99.28 226.548 97.4 226.548 94.72V93.44C226.548 90.76 223.148 88.88 218.028 88.88C212.908 88.88 209.508 90.76 209.508 93.44V94.72C209.508 97.4 212.908 99.28 218.028 99.28ZM243.842 115.6V114C243.842 110.12 248.082 106.96 255.162 106.96C262.242 106.96 266.482 110.12 266.482 114V115.6C266.482 119.48 262.242 122.64 255.162 122.64C248.082 122.64 243.842 119.48 243.842 115.6ZM254.442 86.88V103.52H237.802V86.88H254.442ZM266.322 106.48H262.442V100.6H256.602V97.2H262.442V93.44H256.602V90.04H262.442V84.72H266.322V106.48ZM262.602 115.36V114.24C262.602 112.28 259.722 110.2 255.162 110.2C250.602 110.2 247.722 112.28 247.722 114.24V115.36C247.722 117.32 250.602 119.4 255.162 119.4C259.722 119.4 262.602 117.32 262.602 115.36ZM241.682 90.24V100.16H250.562V90.24H241.682ZM298.456 101.44H285.896V109.2H289.256C294.576 109.2 297.696 109 301.856 108.4L302.296 111.76C298.576 112.32 294.936 112.6 288.296 112.6H281.976V98.12H294.536V91.08H281.856V87.68H298.456V101.44ZM314.576 98.2V101.64H308.896V121.6H304.936V84.72H308.896V98.2H314.576ZM333.27 86.96V104.68H316.63V86.96H333.27ZM345.15 111.04H341.27V101.56H335.43V98.16H341.27V93.64H335.43V90.24H341.27V84.72H345.15V111.04ZM326.07 108.96V117.76H345.91V121.2H322.11V108.96H326.07ZM320.51 90.32V101.32H329.39V90.32H320.51ZM377.204 86.96V103.32H360.364V86.96H377.204ZM374.484 110.12V106.44H378.404V110.12C378.404 112.36 378.924 113.28 381.804 114.84C383.564 115.8 386.164 117 390.124 118.64L388.524 121.8C385.004 120.32 382.444 118.96 380.644 118.04C378.084 116.72 376.964 115.88 376.484 115.12C376.004 115.96 375.004 116.8 372.244 118.2C370.484 119.08 367.924 120.36 364.444 121.84L362.764 118.64C366.684 117.04 369.364 115.84 371.124 114.84C373.924 113.28 374.484 112.2 374.484 110.12ZM393.124 93.36V96.8H387.884V108.4H383.964V84.72H387.884V93.36H393.124ZM364.244 90.32V99.96H373.324V90.32H364.244ZM422.258 87.4V106.36H412.058V113.32H427.018V116.68H393.178V113.32H408.098V106.36H397.938V87.44H401.858V93.72H418.338V87.4H422.258ZM401.858 97.08V103H418.338V97.08H401.858ZM431.233 113.56L429.153 110.4C441.913 102.92 442.473 100.84 442.473 95.16V91.52H429.873V88.12H446.393V95.2C446.393 102.48 445.833 104.72 431.233 113.56ZM458.153 121.6H454.193V84.72H458.153V121.6ZM465.447 118.68V114.08H470.007V118.68H465.447ZM469.407 109.96H466.047L465.487 86.64H469.967L469.407 109.96Z" fill="#1E1E1E"/>
<path d="M67.3964 163.04V165.04C67.3964 171.12 68.7564 177.16 72.8764 182.8H69.1964C65.2364 178.08 63.3164 171.96 63.3164 164.84V163.24C63.3164 156.12 65.2364 150.08 69.1964 145.36H72.8764C68.9564 150.64 67.3964 156.64 67.3964 163.04ZM76.353 173.72L87.113 162.04C90.393 158.44 90.713 156.84 90.713 155.32V155C90.713 152.72 88.753 151.32 85.753 151.32C83.633 151.32 81.353 152.16 79.473 155.52L76.433 153.56C77.793 151.08 80.353 147.76 85.673 147.76C91.513 147.76 94.673 150.8 94.673 155V155.4C94.673 158.52 92.833 161.24 90.233 164L81.233 173.6H95.713V177.04H76.353V173.72ZM104.607 165.04V163.04C104.607 156.64 103.047 150.64 99.127 145.36H102.807C106.767 150.08 108.687 156.12 108.687 163.24V164.84C108.687 171.96 106.767 178.08 102.807 182.8H99.127C103.247 177.16 104.607 171.12 104.607 165.04Z" fill="#1E1E1E"/>
<path d="M153.88 181.84H130V171.76H148.96V168.2H129.8V164.92H152.84V174.96H133.88V178.56H153.88V181.84ZM152.84 163.08H148.92V144.72H152.84V163.08ZM132.76 145.24C138.76 145.24 141.92 149.16 141.92 152.84V154.44C141.92 158.12 138.76 162.04 132.76 162.04C126.76 162.04 123.6 158.12 123.6 154.44V152.84C123.6 149.16 126.76 145.24 132.76 145.24ZM132.76 158.64C136.2 158.64 138.12 156.48 138.12 154.2V153.08C138.12 150.84 136.2 148.68 132.76 148.68C129.32 148.68 127.4 150.8 127.4 153.08V154.2C127.4 156.48 129.32 158.64 132.76 158.64ZM185.654 145.68V160.68H175.614V164.56H190.534V167.92H156.694V164.56H171.614V160.68H161.534V145.72H165.454V150.2H181.734V145.68H185.654ZM165.534 170.6V177.76H186.374V181.2H161.574V170.6H165.534ZM165.454 153.4V157.36H181.734V153.4H165.454ZM202.068 165.8V162.56H205.828V150.24H202.308V147H222.428V150.24H218.948V162.28C220.628 162.2 222.108 162.08 223.788 161.92L224.068 165.08C219.108 165.52 214.828 165.72 202.068 165.8ZM231.908 171.36H228.028V160.68H222.548V157.28H228.028V154.44H222.548V151.04H228.028V144.72H231.908V171.36ZM212.828 169.4V177.76H232.668V181.2H208.868V169.4H212.828ZM209.628 162.56L215.148 162.44V150.24H209.628V162.56ZM248.002 164.96C241.962 164.96 238.202 161.04 238.202 156.92V155.08C238.202 150.96 241.962 147.04 248.002 147.04C254.042 147.04 257.802 150.96 257.802 155.08V156.92C257.802 161.04 254.042 164.96 248.002 164.96ZM248.002 161.52C251.362 161.52 254.002 159.28 254.002 156.68V155.32C254.002 152.6 251.362 150.48 248.002 150.48C244.642 150.48 242.002 152.6 242.002 155.32V156.68C242.002 159.28 244.642 161.52 248.002 161.52ZM260.322 169.64L260.682 172.96C253.922 173.64 246.882 173.92 236.402 173.92V170.48C246.962 170.52 253.682 170.28 260.322 169.64ZM266.522 181.6H262.602V144.72H266.522V181.6ZM300.736 167.36V181.64H277.736V167.36H300.736ZM281.856 157.8H281.816C281.576 158.48 280.416 159.84 279.136 160.92C277.416 162.4 275.256 164.12 273.016 165.68L270.696 162.84C273.256 161.04 275.616 159.24 277.056 157.84C279.016 155.92 279.696 154.4 279.696 151.48V150.28H271.936V146.88H290.976V150.28H283.696V151.32C283.696 153.88 284.016 155.24 285.776 156.84C287.656 158.56 289.736 160.08 292.096 161.64L289.856 164.52C287.776 163.08 286.056 161.76 284.136 160.16C282.936 159.16 282.136 158.4 281.856 157.8ZM296.856 178.28V170.72H281.616V178.28H296.856ZM300.736 165.56H296.816V156.8H290.056V153.4H296.816V144.72H300.736V165.56ZM343.87 161.8V165.16H333.27V173.32H348.19V176.68H314.35V173.32H329.27V165.16H318.91V147.8H343.43V151.16H322.87V161.8H343.87ZM379.324 181.6H375.364V144.72H379.324V181.6ZM360.364 163.16H360.324C359.964 164.04 359.284 164.84 358.004 166.24C356.364 168.04 354.244 170.16 351.524 172.64L348.924 169.96C351.364 167.8 353.444 165.76 355.244 163.76C357.684 161 358.324 159.2 358.324 156.36V147.36H362.324V156.36C362.324 159.52 363.084 161.16 365.524 163.88C367.244 165.76 369.004 167.44 371.404 169.56L368.844 172.28C366.084 169.72 364.284 167.92 362.764 166.28C361.644 165.08 360.684 163.96 360.364 163.16ZM391.778 165.12H384.898V154.08H397.378V149.76H384.898V146.4H401.298V157.36H388.818V161.76H392.178C396.578 161.76 400.258 161.64 405.218 161.04L405.578 164.32C401.058 164.88 397.618 165.12 391.778 165.12ZM388.978 172.64V169.24H412.298V181.96H408.338V172.64H388.978ZM417.538 153.88V157.32H412.298V167.32H408.378V144.72H412.298V153.88H417.538ZM462.113 158.04V161.48H456.433V181.6H452.473V144.72H456.433V158.04H462.113ZM438.553 163.08H438.513C438.153 163.96 437.473 164.76 436.193 166.16C434.553 167.96 432.433 170.08 429.713 172.56L427.112 169.88C429.553 167.72 431.633 165.68 433.433 163.68C435.873 160.92 436.513 159.12 436.513 156.28V147.4H440.513V156.28C440.513 159.44 441.273 161.08 443.713 163.8C445.433 165.68 447.193 167.36 449.593 169.48L447.033 172.2C444.273 169.64 442.473 167.84 440.953 166.2C439.833 165 438.873 163.88 438.553 163.08ZM502.807 166.12H498.887V156.72H491.127V163.52H474.287V146.76H491.127V153.32H498.887V144.72H502.807V166.12ZM478.527 171.44V168.04H502.807V181.96H498.847V171.44H478.527ZM478.167 150.12V160.16H487.247V150.12H478.167ZM510.061 173.56L507.981 170.4C520.741 162.92 521.301 160.84 521.301 155.16V151.52H508.701V148.12H525.221V155.2C525.221 162.48 524.661 164.72 510.061 173.56ZM536.981 181.6H533.021V144.72H536.981V181.6ZM544.275 178.68V174.08H548.835V178.68H544.275ZM548.235 169.96H544.875L544.315 146.64H548.795L548.235 169.96Z" fill="#1E1E1E"/>
<path d="M67.3964 223.04V225.04C67.3964 231.12 68.7564 237.16 72.8764 242.8H69.1964C65.2364 238.08 63.3164 231.96 63.3164 224.84V223.24C63.3164 216.12 65.2364 210.08 69.1964 205.36H72.8764C68.9564 210.64 67.3964 216.64 67.3964 223.04ZM79.633 214.16L76.793 212.08C78.473 209.68 80.873 207.76 85.193 207.76C90.513 207.76 93.913 210.64 93.913 214.96V215.36C93.913 217.64 92.953 220.6 89.393 221.88C93.273 222.56 95.233 225.2 95.233 228.52V229.12C95.233 233.36 92.233 237.48 85.153 237.48C81.793 237.48 78.633 236.44 75.913 234.28L77.873 231.12C80.673 233.16 82.673 233.88 85.153 233.88C89.353 233.88 91.273 231.76 91.273 229.16V228.64C91.273 224.84 88.673 223.72 85.313 223.72H81.753V220.28H85.153C88.753 220.28 89.993 217.88 89.993 215.4V215.08C89.993 212.56 87.833 211.28 85.233 211.28C82.873 211.28 81.193 212.12 79.633 214.16ZM104.607 225.04V223.04C104.607 216.64 103.047 210.64 99.127 205.36H102.807C106.767 210.08 108.687 216.12 108.687 223.24V224.84C108.687 231.96 106.767 238.08 102.807 242.8H99.127C103.247 237.16 104.607 231.12 104.607 225.04Z" fill="#1E1E1E"/>
<path d="M153.88 241.84H130V231.76H148.96V228.2H129.8V224.92H152.84V234.96H133.88V238.56H153.88V241.84ZM152.84 223.08H148.92V204.72H152.84V223.08ZM132.76 205.24C138.76 205.24 141.92 209.16 141.92 212.84V214.44C141.92 218.12 138.76 222.04 132.76 222.04C126.76 222.04 123.6 218.12 123.6 214.44V212.84C123.6 209.16 126.76 205.24 132.76 205.24ZM132.76 218.64C136.2 218.64 138.12 216.48 138.12 214.2V213.08C138.12 210.84 136.2 208.68 132.76 208.68C129.32 208.68 127.4 210.8 127.4 213.08V214.2C127.4 216.48 129.32 218.64 132.76 218.64ZM185.654 205.68V220.68H175.614V224.56H190.534V227.92H156.694V224.56H171.614V220.68H161.534V205.72H165.454V210.2H181.734V205.68H185.654ZM165.534 230.6V237.76H186.374V241.2H161.574V230.6H165.534ZM165.454 213.4V217.36H181.734V213.4H165.454ZM200.108 207.48C205.428 207.48 208.228 211.04 208.228 218.08V218.2H212.028V205.48H215.908V239.8H212.028V221.64H208.228V222C208.228 229.04 205.428 232.6 200.108 232.6C194.788 232.6 191.988 229.04 191.988 222V218.08C191.988 211.04 194.788 207.48 200.108 207.48ZM223.228 204.72V241.6H219.348V204.72H223.228ZM200.108 229.12C203.068 229.12 204.468 226.96 204.468 221.56V218.52C204.468 213.12 203.068 211 200.108 211C197.148 211 195.748 213.12 195.748 218.52V221.56C195.748 226.96 197.148 229.12 200.108 229.12ZM256.362 241.6H252.402V219.6H244.562V216.12H252.402V204.72H256.362V241.6ZM236.682 223.08H236.642C236.282 223.96 235.602 224.76 234.322 226.16C232.682 227.96 230.562 230.08 227.842 232.56L225.242 229.88C227.682 227.72 229.762 225.68 231.562 223.68C234.002 220.92 234.642 219.12 234.642 216.28V207.4H238.642V216.28C238.642 219.44 239.402 221.08 241.842 223.8C243.562 225.68 245.322 227.36 247.722 229.48L245.162 232.2C242.402 229.64 240.602 227.84 239.082 226.2C237.962 225 237.002 223.88 236.682 223.08ZM281.416 228.96V237.76H301.256V241.2H277.456V228.96H281.416ZM300.496 231.04H296.576V204.72H300.496V231.04ZM286.176 216.56V214.8C286.176 212.36 284.576 209.64 280.736 209.64C276.896 209.64 275.296 212.36 275.296 214.8V216.56C275.296 219 276.936 221.72 280.736 221.72C284.576 221.72 286.176 219 286.176 216.56ZM271.496 216.72V214.64C271.496 211 274.496 206.2 280.736 206.2C286.976 206.2 289.976 211 289.976 214.64V216.72C289.976 220.36 286.976 225.16 280.736 225.16C274.496 225.16 271.496 220.36 271.496 216.72ZM307.99 233.56L305.91 230.4C318.67 222.92 319.23 220.84 319.23 215.16V211.52H306.63V208.12H323.15V215.2C323.15 222.48 322.59 224.72 307.99 233.56ZM334.91 241.6H330.95V204.72H334.91V241.6ZM368.684 213.8V215.76C368.684 218.96 366.004 223.72 359.524 223.72C353.044 223.72 350.364 218.96 350.364 215.76V213.8C350.364 210.6 353.044 205.84 359.524 205.84C366.004 205.84 368.684 210.6 368.684 213.8ZM372.044 226.88H375.884V230.28C375.884 232.36 376.084 233.16 377.724 234.68C379.084 235.96 380.884 237.52 382.964 239.04L380.804 241.76C378.884 240.32 376.844 238.56 375.804 237.64C374.724 236.68 374.204 236 373.964 235.56C373.724 236.04 373.284 236.68 372.404 237.56C371.084 238.84 369.244 240.4 367.444 241.8C365.644 240.4 363.804 238.84 362.484 237.56C361.604 236.68 361.164 236.04 360.924 235.56C360.684 236 360.164 236.68 359.084 237.64C358.044 238.56 356.004 240.32 354.084 241.76L351.924 239.04C354.004 237.52 355.804 235.96 357.164 234.68C358.804 233.16 359.004 232.36 359.004 230.28V226.88H362.844V230.28C362.844 232.48 363.044 233.16 364.484 234.76C365.244 235.6 366.164 236.4 367.444 237.52C368.724 236.4 369.644 235.6 370.404 234.76C371.844 233.16 372.044 232.48 372.044 230.28V226.88ZM364.884 215.6V213.96C364.884 211.56 362.844 209.28 359.524 209.28C356.204 209.28 354.164 211.56 354.164 213.96V215.6C354.164 218 356.204 220.28 359.524 220.28C362.844 220.28 364.884 218 364.884 215.6ZM379.324 224.76H375.404V204.72H379.324V224.76ZM383.178 223.36H417.018V226.72H383.178V223.36ZM392.018 230.08V237.76H412.858V241.2H388.058V230.08H392.018ZM388.298 206.16H392.218V215.76H412.178V219.12H388.298V206.16ZM447.673 208.04V211.48H434.193V228.44H436.713C441.913 228.44 446.473 228.04 450.753 227.32L451.233 230.72C447.193 231.52 441.993 231.88 435.873 231.88H430.233V208.04H447.673ZM458.153 241.6H454.193V204.72H458.153V241.6ZM473.487 223.36H473.447C473.087 224.24 472.367 225.12 471.087 226.52C469.447 228.32 467.447 230.36 464.767 232.84L462.167 230.16C464.567 228 466.527 226.04 468.327 224.04C470.967 221.12 471.407 219.6 471.407 216.64V211.52H463.487V208.08H483.047V211.52H475.407V216.64C475.407 219.8 475.847 221 478.687 224.08C480.407 225.96 482.087 227.52 484.447 229.6L481.847 232.28C479.127 229.8 477.447 228.12 475.927 226.48C474.807 225.28 473.807 224.16 473.487 223.36ZM492.847 241.6H488.887V220.52H481.407V217.04H488.887V204.72H492.847V241.6ZM525.901 223.88V227.24H500.981V207.48H525.341V210.84H504.941V215.72H525.061V219H504.941V223.88H525.901ZM496.421 233.32H530.261V236.68H496.421V233.32ZM559.275 206.96V223.32H542.435V206.96H559.275ZM556.555 230.12V226.44H560.475V230.12C560.475 232.36 560.995 233.28 563.875 234.84C565.635 235.8 568.235 237 572.195 238.64L570.595 241.8C567.075 240.32 564.515 238.96 562.715 238.04C560.155 236.72 559.035 235.88 558.555 235.12C558.075 235.96 557.075 236.8 554.315 238.2C552.555 239.08 549.995 240.36 546.515 241.84L544.835 238.64C548.755 237.04 551.435 235.84 553.195 234.84C555.995 233.28 556.555 232.2 556.555 230.12ZM575.195 213.36V216.8H569.955V228.4H566.035V204.72H569.955V213.36H575.195ZM546.315 210.32V219.96H555.395V210.32H546.315ZM601.889 225.44H605.809V241.6H582.809V225.44H586.729V230.08H601.889V225.44ZM587.409 217.04H587.369C587.129 217.68 585.969 219.04 584.689 220.04C583.049 221.32 580.609 223.08 578.449 224.48L576.249 221.6C578.809 219.96 581.329 218.2 582.809 216.88C584.969 214.96 585.249 213.56 585.249 210.64V210.24H577.409V206.88H596.649V210.24H589.249V210.48C589.249 213.04 589.169 214.24 591.169 215.92C593.049 217.52 595.409 219.08 597.729 220.56L595.569 223.44C593.489 222.12 591.409 220.6 589.689 219.28C588.609 218.44 587.689 217.6 587.409 217.04ZM605.809 223.64H601.889V204.72H605.809V223.64ZM586.729 238.24H601.889V233.4H586.729V238.24ZM626.703 235.72V234.12C626.703 230.24 630.863 227.2 637.823 227.2C644.783 227.2 648.943 230.24 648.943 234.12V235.72C648.943 239.6 644.783 242.64 637.823 242.64C630.863 242.64 626.703 239.6 626.703 235.72ZM638.703 224.16H621.463V206.52H625.343V212.48H634.823V206.52H638.703V224.16ZM645.063 235.48V234.36C645.063 232.4 642.263 230.44 637.823 230.44C633.383 230.44 630.583 232.4 630.583 234.36V235.48C630.583 237.44 633.383 239.4 637.823 239.4C642.263 239.4 645.063 237.44 645.063 235.48ZM654.023 213.28V216.72H648.783V226.72H644.863V204.72H648.783V213.28H654.023ZM625.343 215.8V220.8H634.823V215.8H625.343ZM682.997 206.16V219.68H658.997V206.16H682.997ZM673.477 233.64H669.477V226.52H654.077V223.16H687.917V226.52H673.477V233.64ZM662.917 230.32V237.76H683.757V241.2H658.957V230.32H662.917ZM679.077 216.36V209.48H662.917V216.36H679.077ZM691.931 238.68V234.08H696.491V238.68H691.931ZM695.891 229.96H692.531L691.971 206.64H696.451L695.891 229.96Z" fill="#1E1E1E"/>
<path d="M213.12 313.6H209.16V298.4H201.44C200.16 302.6 196.92 304.72 192.76 304.72C187.36 304.72 183.48 301.12 183.48 294.08V289.92C183.48 282.84 187.36 279.24 192.76 279.24C196.8 279.24 199.96 281.28 201.32 285.24H209.16V276.72H213.12V313.6ZM192.76 301.16C195.64 301.16 198.24 299.16 198.24 293.52V290.48C198.24 284.84 195.64 282.84 192.76 282.84C189.88 282.84 187.28 284.84 187.28 290.48V293.52C187.28 299.16 189.88 301.16 192.76 301.16ZM202.04 289.92V294.08C202.04 294.36 202.04 294.64 202 294.92H209.16V288.72H202C202 289.12 202.04 289.52 202.04 289.92ZM225.254 308.24V306.72C225.254 302.56 229.734 300.28 236.774 300.28C243.814 300.28 248.294 302.6 248.294 306.72V308.24C248.294 312.36 243.814 314.68 236.774 314.68C229.734 314.68 225.254 312.4 225.254 308.24ZM244.254 286.16V276.72H248.054V299.56H244.254V289.56H240.654V298H236.894V277.2H240.654V286.16H244.254ZM225.894 298.8C221.134 298.8 218.214 296.08 218.214 293V291.48C218.214 288.36 221.134 285.68 225.894 285.68C230.654 285.68 233.574 288.36 233.574 291.48V293C233.574 296.08 230.654 298.8 225.894 298.8ZM244.414 308V306.96C244.414 304.88 241.294 303.52 236.774 303.52C232.254 303.52 229.134 304.88 229.134 306.96V307.96C229.134 310.08 232.254 311.44 236.774 311.44C241.294 311.44 244.414 310.08 244.414 308ZM216.934 281H223.974V276.76H227.814V281H234.134V284.32H216.934V281ZM225.894 288.76C223.414 288.76 221.734 290.08 221.734 291.8V292.68C221.734 294.4 223.414 295.72 225.894 295.72C228.374 295.72 230.054 294.4 230.054 292.68V291.8C230.054 290.08 228.374 288.76 225.894 288.76ZM282.508 291C279.868 289.68 278.548 288.72 278.068 287.8H278.028C277.588 288.72 276.228 289.72 273.588 291.04C271.428 292.12 268.708 293.44 265.388 294.72L263.828 291.48C266.788 290.36 269.748 289.04 272.308 287.64C275.548 285.88 276.028 284.16 276.068 282.2H265.468V278.84H290.668V282.2H280.028C280.068 284.16 280.508 285.88 283.748 287.64C286.308 289.04 289.268 290.36 292.228 291.48L290.708 294.68C287.388 293.4 284.668 292.08 282.508 291ZM280.028 313.6H276.028V300.96H261.108V297.6H294.948V300.96H280.028V313.6ZM304.922 295.64H304.882C304.602 296.44 303.962 297.32 303.162 298.28C301.562 300.2 299.522 302.4 297.402 304.56L294.722 301.88C297.122 299.6 299.202 297.44 300.922 295.2C302.522 293.12 302.922 291.16 302.922 288.88V283.6H296.602V280.28H312.682V283.6H306.762V288.88C306.762 291.16 307.282 293.04 308.882 295.12C310.562 297.28 312.322 299.16 314.682 301.44L312.002 304.08C309.882 301.96 308.202 300.2 306.602 298.28C305.802 297.32 305.202 296.44 304.922 295.64ZM316.442 288.8V277.48H320.322V311.8H316.442V292.24H310.842V288.8H316.442ZM327.642 276.72V313.6H323.762V276.72H327.642Z" fill="#1E1E1E"/>
<path d="M341 291.422C339.325 291.422 338 290.074 338 288.25C338 286.387 339.325 285 341 285C342.675 285 344 286.387 344 288.25C344 290.074 342.675 291.422 341 291.422ZM341 307C339.325 307 338 305.692 338 303.829C338 301.966 339.325 300.578 341 300.578C342.675 300.578 344 301.966 344 303.829C344 305.692 342.675 307 341 307Z" fill="#1E1E1E"/>
<mask id="path-13-inside-1_1717_67974" fill="white">
<path d="M352 270H668V322H352V270Z"/>
</mask>
<path d="M668 322V320H352V322V324H668V322Z" fill="#1E1E1E" mask="url(#path-13-inside-1_1717_67974)"/>
<path d="M393.88 313.84H370V303.76H388.96V300.2H369.8V296.92H392.84V306.96H373.88V310.56H393.88V313.84ZM392.84 295.08H388.92V276.72H392.84V295.08ZM372.76 277.24C378.76 277.24 381.92 281.16 381.92 284.84V286.44C381.92 290.12 378.76 294.04 372.76 294.04C366.76 294.04 363.6 290.12 363.6 286.44V284.84C363.6 281.16 366.76 277.24 372.76 277.24ZM372.76 290.64C376.2 290.64 378.12 288.48 378.12 286.2V285.08C378.12 282.84 376.2 280.68 372.76 280.68C369.32 280.68 367.4 282.8 367.4 285.08V286.2C367.4 288.48 369.32 290.64 372.76 290.64ZM425.654 277.68V292.68H415.614V296.56H430.534V299.92H396.694V296.56H411.614V292.68H401.534V277.72H405.454V282.2H421.734V277.68H425.654ZM405.534 302.6V309.76H426.374V313.2H401.574V302.6H405.534ZM405.454 285.4V289.36H421.734V285.4H405.454ZM440.108 279.48C445.428 279.48 448.228 283.04 448.228 290.08V290.2H452.028V277.48H455.908V311.8H452.028V293.64H448.228V294C448.228 301.04 445.428 304.6 440.108 304.6C434.788 304.6 431.988 301.04 431.988 294V290.08C431.988 283.04 434.788 279.48 440.108 279.48ZM463.228 276.72V313.6H459.348V276.72H463.228ZM440.108 301.12C443.068 301.12 444.468 298.96 444.468 293.56V290.52C444.468 285.12 443.068 283 440.108 283C437.148 283 435.748 285.12 435.748 290.52V293.56C435.748 298.96 437.148 301.12 440.108 301.12ZM496.362 313.6H492.402V291.6H484.562V288.12H492.402V276.72H496.362V313.6ZM476.682 295.08H476.642C476.282 295.96 475.602 296.76 474.322 298.16C472.682 299.96 470.562 302.08 467.842 304.56L465.242 301.88C467.682 299.72 469.762 297.68 471.562 295.68C474.002 292.92 474.642 291.12 474.642 288.28V279.4H478.642V288.28C478.642 291.44 479.402 293.08 481.842 295.8C483.562 297.68 485.322 299.36 487.722 301.48L485.162 304.2C482.402 301.64 480.602 299.84 479.082 298.2C477.962 297 477.002 295.88 476.682 295.08ZM540.736 298.12H536.816V288.72H529.056V295.52H512.216V278.76H529.056V285.32H536.816V276.72H540.736V298.12ZM516.456 303.44V300.04H540.736V313.96H536.776V303.44H516.456ZM516.096 282.12V292.16H525.176V282.12H516.096ZM551.39 307.72V306.12C551.39 302.24 555.55 299.2 562.51 299.2C569.47 299.2 573.63 302.24 573.63 306.12V307.72C573.63 311.6 569.47 314.64 562.51 314.64C555.55 314.64 551.39 311.6 551.39 307.72ZM563.39 296.16H546.15V278.52H550.03V284.48H559.51V278.52H563.39V296.16ZM569.75 307.48V306.36C569.75 304.4 566.95 302.44 562.51 302.44C558.07 302.44 555.27 304.4 555.27 306.36V307.48C555.27 309.44 558.07 311.4 562.51 311.4C566.95 311.4 569.75 309.44 569.75 307.48ZM578.71 285.28V288.72H573.47V298.72H569.55V276.72H573.47V285.28H578.71ZM550.03 287.8V292.8H559.51V287.8H550.03ZM612.564 278.88V282.28H608.484V284.64C608.484 287.44 608.884 288.32 610.284 290.48C611.324 292.08 612.204 293.16 613.844 295.04L611.244 297.24C609.884 295.64 609.084 294.64 608.204 293.44C607.484 292.44 606.764 291.24 606.644 290.84H606.604C606.444 291.24 605.884 292.12 604.884 293.36C603.884 294.6 602.964 295.6 601.524 296.96H601.444C600.004 295.6 599.084 294.6 598.084 293.36C597.084 292.12 596.524 291.24 596.364 290.84H596.324C596.204 291.24 595.524 292.44 594.804 293.44C593.924 294.64 592.964 295.92 591.444 297.64L588.804 295.48C590.564 293.52 591.684 292.08 592.724 290.48C594.124 288.32 594.484 287.44 594.484 284.64V282.28H590.284V278.88H612.564ZM595.404 303.6V300.2H620.164V313.96H616.204V303.6H595.404ZM620.164 298.16H616.364V276.72H620.164V298.16ZM599.324 289.48C600.004 290.52 600.444 291.08 601.484 292.12C602.524 291.08 602.964 290.52 603.644 289.48C604.524 288.08 604.844 287.36 604.844 284.64V282.28H598.124V284.64C598.124 287.36 598.444 288.08 599.324 289.48ZM626.818 305.56L624.738 302.4C637.498 294.92 638.058 292.84 638.058 287.16V283.52H625.458V280.12H641.978V287.2C641.978 294.48 641.418 296.72 626.818 305.56ZM653.738 313.6H649.778V276.72H653.738V313.6Z" fill="#1E1E1E"/>
<path d="M172.707 296.707C173.098 296.317 173.098 295.683 172.707 295.293L166.343 288.929C165.953 288.538 165.319 288.538 164.929 288.929C164.538 289.319 164.538 289.953 164.929 290.343L170.586 296L164.929 301.657C164.538 302.047 164.538 302.681 164.929 303.071C165.319 303.462 165.953 303.462 166.343 303.071L172.707 296.707ZM122 296V297H172V296V295H122V296Z" fill="#1E1E1E"/>
</svg>
