<svg width="46" height="38" viewBox="0 0 46 38" fill="none" xmlns="http://www.w3.org/2000/svg">
<path d="M4.08 18.04V20.04C4.08 26.12 5.44 32.16 9.56 37.8H5.88C1.92 33.08 1.19209e-07 26.96 1.19209e-07 19.84V18.24C1.19209e-07 11.12 1.92 5.08 5.88 0.359999H9.56C5.64 5.64 4.08 11.64 4.08 18.04ZM27.4766 32.04H23.5166V7.84L16.7566 11.84L14.8766 8.64L24.1566 3.2H27.4766V32.04ZM41.2906 20.04V18.04C41.2906 11.64 39.7306 5.64 35.8106 0.359999H39.4906C43.4506 5.08 45.3706 11.12 45.3706 18.24V19.84C45.3706 26.96 43.4506 33.08 39.4906 37.8H35.8106C39.9306 32.16 41.2906 26.12 41.2906 20.04Z" fill="#421D1B"/>
</svg>
