<svg width="872" height="294" viewBox="0 0 872 294" fill="none" xmlns="http://www.w3.org/2000/svg">
<rect x="1" y="1" width="869" height="293" rx="28" fill="#F7F9FA"/>
<path d="M871 30C871 13.9754 859.536 1 845.417 1H26.5829C12.4464 1 1 13.9958 1 30" stroke="#C9CACA" stroke-width="1.44754" stroke-linecap="round"/>
<path d="M41.328 90.448C41.328 86.32 42.96 80.88 45.232 77.264H48.496C45.904 80.848 44.08 86.288 44.08 90.448C44.08 94.608 45.904 100.048 48.496 103.632H45.232C42.96 100.016 41.328 94.576 41.328 90.448ZM60.2905 78.864V102.064L57.2505 102.032V82.16L53.3465 84.496L51.9705 82L57.2825 78.864H60.2905ZM72.6848 90.448C72.6848 94.576 71.0848 99.984 68.8128 103.632H65.5488C68.1088 100.08 69.9328 94.608 69.9328 90.448C69.9328 86.288 68.1088 80.816 65.5488 77.264H68.8128C71.0848 80.912 72.6848 86.32 72.6848 90.448Z" fill="#231815"/>
<path d="M186.868 82.0933C186.868 82.0933 191.462 76.2629 190.206 74.0997C187.857 70.0205 184.581 75.1709 184.581 75.1709C184.581 75.1709 185.714 70.3706 182.068 70.0204C177.803 69.6083 178.977 75.5829 178.977 75.5829C178.977 75.5829 177.144 72.6781 174.033 73.8318C170.943 74.9855 173.229 82.2581 175.743 84.4213" fill="#E94A3F"/>
<path d="M144.633 145.219H140.018V162.751H144.633V145.219Z" fill="#FED61A"/>
<path d="M144.242 161.33C144.242 161.33 150.876 161.269 150.176 162.896C149.97 163.35 146.756 164.256 146.756 164.256C146.756 164.256 149.826 167.738 149.125 168.047C148.425 168.356 144.119 166.275 144.119 166.275C144.119 166.275 143.603 170.437 142.594 169.963C140.41 168.954 140.039 162.587 140.039 162.587L144.242 161.351V161.33Z" fill="#FED61A"/>
<path d="M160.064 145.219H155.449V162.751H160.064V145.219Z" fill="#FED61A"/>
<path d="M159.673 161.328C159.673 161.328 166.307 161.267 165.607 162.894C165.4 163.348 162.207 164.254 162.207 164.254C162.207 164.254 165.277 167.736 164.576 168.045C163.876 168.354 159.57 166.273 159.57 166.273C159.57 166.273 159.055 170.435 158.045 169.961C155.861 168.952 155.49 162.585 155.49 162.585L159.693 161.349L159.673 161.328Z" fill="#FED61A"/>
<path d="M149.248 139.244C149.433 139.636 149.639 151.853 157.324 152.141C165.029 152.429 165.029 142.808 165.029 142.808L149.248 139.244Z" fill="#CE8C44"/>
<path d="M189.546 110.194C189.546 110.194 191.277 121.072 186.085 130.879C180.894 140.685 165.978 147.525 151.845 147.031C137.712 146.557 127.617 137.307 122.796 128.571C117.996 119.816 117.419 98.3688 118.47 93.7539C118.47 93.7539 121.931 108.093 133.756 110.4C145.582 112.708 160.58 110.297 162.311 106.939C164.041 103.581 189.526 110.215 189.526 110.215" fill="#DC9D55"/>
<path d="M122.693 109.145C122.693 109.145 115.585 102.985 113.937 98.3702C112.309 93.7554 111.527 114.914 122.775 120.208" fill="#DC9D55"/>
<path d="M127.739 121.958C127.739 121.958 118.901 118.724 115.749 114.974C112.597 111.225 119.354 131.291 131.736 132.259" fill="#DC9D55"/>
<path d="M131.53 112.029C131.53 112.029 152.812 109.618 160.311 112.214C167.81 114.81 170.014 120.764 167.336 126.553C164.637 132.322 155.696 141.366 143.582 140.109C131.468 138.853 122.032 126.45 121.559 115.675C121.559 115.675 125.988 120.105 126.359 120.187C126.75 120.29 123.186 111.926 123.186 111.926C123.186 111.926 127.224 115.778 127.616 115.778C128.007 115.778 125.123 108.279 125.123 108.279C127.265 110.051 129.429 111.596 131.551 112.029" fill="#B76E2E"/>
<path d="M135.773 138.955C135.959 139.347 136.165 151.564 143.85 151.852C151.555 152.14 151.555 142.519 151.555 142.519L135.773 138.955Z" fill="#DC9D55"/>
<path d="M187.199 83.6197C187.302 83.2489 195.152 88.1318 195.152 88.1318C195.152 88.1318 186.848 89.0384 186.642 88.7499C186.457 88.4615 186.89 84.6705 187.178 83.6197" fill="#FED61A"/>
<path d="M187.815 104.425C186.085 100.676 185.735 96.3697 186.27 92.8056C188.186 83.6377 187.3 79.5998 183.571 78.0752C178.586 76.015 174.96 79.3319 172.694 83.5553C170.798 87.0988 169.459 90.9103 168.182 94.7217C167.028 98.1622 166.121 101.809 163.732 104.652C162.908 105.62 161.96 106.382 161.816 107.722C161.63 109.638 169.603 114.644 177.205 115.324C184.808 116.004 189.814 114.747 190.288 111.759C190.617 109.617 189.896 109.061 187.795 104.446" fill="#B76E2E"/>
<path d="M183.099 83.7837C183.099 84.7521 182.316 85.5556 181.327 85.5556C180.338 85.5556 179.555 84.7727 179.555 83.7837C179.555 82.7947 180.338 82.0117 181.327 82.0117C182.316 82.0117 183.099 82.7947 183.099 83.7837Z" fill="#4C4948"/>
<rect x="222.5" y="121.359" width="39" height="48" rx="4.5" fill="white" stroke="#D9D9D9"/>
<path d="M278.324 134.571H266.468V132.367H278.324V134.571ZM273.916 158.359H270.496V138.599H273.916V158.359Z" fill="#231815"/>
<path d="M319.328 90.448C319.328 86.32 320.96 80.88 323.232 77.264H326.496C323.904 80.848 322.08 86.288 322.08 90.448C322.08 94.608 323.904 100.048 326.496 103.632H323.232C320.96 100.016 319.328 94.576 319.328 90.448ZM330.547 99.408C335.187 94.928 341.747 90.032 341.747 86.032C341.747 83.28 340.019 81.328 337.523 81.328C335.667 81.328 333.779 82.704 332.915 84.656L330.227 83.504C331.475 80.592 334.515 78.576 337.523 78.576C341.811 78.576 344.787 81.648 344.787 86.032C344.787 90.928 339.187 95.536 334.771 99.408H345.171V102.064H330.867L330.547 99.408ZM356.029 90.448C356.029 94.576 354.429 99.984 352.157 103.632H348.893C351.453 100.08 353.277 94.608 353.277 90.448C353.277 86.288 351.453 80.816 348.893 77.264H352.157C354.429 80.912 356.029 86.32 356.029 90.448Z" fill="#231815"/>
<path d="M439.258 145.324H434.903C419.039 145.324 406.041 132.348 406.041 116.461C406.041 100.575 419.017 87.6211 434.903 87.6211H439.258C455.122 87.6211 468.098 100.597 468.098 116.461C468.098 132.326 455.122 145.324 439.258 145.324Z" fill="#C6B3D6"/>
<path d="M473.786 121.549C467.098 121.549 461.654 116.106 461.654 109.418C461.654 102.73 467.098 97.3086 473.786 97.3086C480.474 97.3086 485.895 102.752 485.895 109.418C485.895 116.084 480.452 121.549 473.786 121.549ZM473.786 102.197C469.809 102.197 466.565 105.441 466.565 109.418C466.565 113.395 469.809 116.639 473.786 116.639C477.763 116.639 481.007 113.395 481.007 109.418C481.007 105.441 477.763 102.197 473.786 102.197Z" fill="#C6B3D6"/>
<path d="M415.174 106.596C415.174 106.596 405.331 114.328 403.22 107.574C400.243 98.0862 393.688 98.9971 394.133 98.9082L390 101.752C390 101.752 392.933 103.041 394.777 106.596C396.621 110.151 391.444 117.572 402.443 124.682C413.441 131.792 421.04 128.237 422.373 126.615" fill="#C6B3D6"/>
<path d="M461.012 145.39C461.012 152.611 454.769 158.477 447.059 158.477C439.349 158.477 433.105 152.611 433.105 145.39C433.105 142.168 434.35 139.213 436.416 136.947C438.971 134.103 454.747 133.925 457.28 136.48C459.613 138.813 461.035 141.946 461.035 145.412" fill="#EFD7A3"/>
<path d="M463.188 140.701C463.188 145.1 455.9 148.678 446.902 148.678C437.903 148.678 430.615 145.1 430.615 140.701C430.615 136.302 437.903 132.725 446.902 132.725C455.9 132.725 463.188 136.302 463.188 140.701Z" fill="#EFD7A3"/>
<path d="M460.522 141.191C460.522 144.501 454.59 147.19 447.302 147.19C440.014 147.19 434.082 144.501 434.082 141.191C434.082 137.88 440.014 135.191 447.302 135.191C454.59 135.191 460.522 137.88 460.522 141.191Z" fill="#D4D365"/>
<path d="M425.218 149.677C425.218 156.898 418.974 162.764 411.264 162.764C403.554 162.764 397.311 156.898 397.311 149.677C397.311 146.455 398.555 143.5 400.621 141.234C403.176 138.39 418.952 138.212 421.485 140.767C423.818 143.1 425.24 146.233 425.24 149.699" fill="#EFD7A3"/>
<path d="M427.393 145.014C427.393 149.413 420.105 152.99 411.107 152.99C402.108 152.99 394.82 149.413 394.82 145.014C394.82 140.614 402.108 137.037 411.107 137.037C420.105 137.037 427.393 140.614 427.393 145.014Z" fill="#EFD7A3"/>
<path d="M424.728 145.499C424.728 148.81 418.795 151.498 411.507 151.498C404.22 151.498 398.287 148.81 398.287 145.499C398.287 142.189 404.22 139.5 411.507 139.5C418.795 139.5 424.728 142.189 424.728 145.499Z" fill="#D4D365"/>
<path d="M437.437 104.042C427.327 104.042 416.596 101.153 416.596 95.7765C416.596 90.3995 427.327 87.5332 437.437 87.5332C447.547 87.5332 458.278 90.4217 458.278 95.7765C458.278 101.131 447.547 104.042 437.437 104.042ZM437.437 89.5107C426.328 89.5107 418.595 92.7991 418.595 95.7765C418.595 98.7538 426.328 102.042 437.437 102.042C448.547 102.042 456.279 98.7316 456.279 95.7765C456.279 92.8214 448.547 89.5107 437.437 89.5107Z" fill="white"/>
<path d="M437.548 93.2643C433.46 93.2643 430.127 89.9314 430.127 85.8431V84.4212C430.127 80.3329 433.46 77 437.548 77C441.636 77 444.969 80.3329 444.969 84.4212V85.8431C444.969 89.9314 441.636 93.2643 437.548 93.2643ZM437.548 82.6658C436.593 82.6658 435.793 83.4658 435.793 84.4212V85.8431C435.793 86.7985 436.593 87.5985 437.548 87.5985C438.504 87.5985 439.303 86.7985 439.303 85.8431V84.4212C439.303 83.4658 438.504 82.6658 437.548 82.6658Z" fill="#C6B3D6"/>
<path d="M403.864 143.946C403.864 144.479 403.198 144.901 402.375 144.901C401.553 144.901 400.887 144.479 400.887 143.946C400.887 143.412 401.553 142.99 402.375 142.99C403.198 142.99 403.864 143.412 403.864 143.946Z" fill="white"/>
<path d="M440.681 139.213C440.681 139.747 440.014 140.169 439.192 140.169C438.37 140.169 437.703 139.747 437.703 139.213C437.703 138.68 438.37 138.258 439.192 138.258C440.014 138.258 440.681 138.68 440.681 139.213Z" fill="white"/>
<rect x="506.5" y="121.219" width="59" height="48.8305" rx="4.5" fill="white" stroke="#D9D9D9"/>
<path d="M585.516 127.903L582.096 133.261H577.992L582.932 127.903H585.516ZM589.202 156.023H586.77V152.945C585.858 154.009 585.009 154.756 584.224 155.187C583.287 155.693 582.185 155.947 580.918 155.947C577.346 155.947 574.914 154.477 573.622 151.539C572.862 149.816 572.482 147.967 572.482 145.991C572.482 143.229 573.115 140.937 574.382 139.113C575.826 137.01 577.865 135.959 580.5 135.959C582.02 135.959 583.388 136.351 584.604 137.137C585.465 137.694 586.023 138.251 586.276 138.809L586.352 136.491H589.202V156.023ZM586.01 146.257C586.01 144.281 585.643 142.659 584.908 141.393C584.021 139.847 582.653 139.075 580.804 139.075C577.257 139.075 575.484 141.355 575.484 145.915C575.484 150.703 577.359 153.097 581.108 153.097C582.653 153.097 583.857 152.387 584.718 150.969C585.326 149.981 585.706 149.157 585.858 148.499C585.959 148.068 586.01 147.321 586.01 146.257Z" fill="#231815"/>
<path d="M634.328 90.448C634.328 86.32 635.96 80.88 638.232 77.264H641.496C638.904 80.848 637.08 86.288 637.08 90.448C637.08 94.608 638.904 100.048 641.496 103.632H638.232C635.96 100.016 634.328 94.576 634.328 90.448ZM657.355 90.064C659.435 91.28 660.683 93.552 660.683 95.504C660.683 99.44 657.483 102.256 652.907 102.256C648.395 102.256 645.195 99.408 645.195 95.376H648.235C648.235 97.84 650.155 99.568 652.907 99.568C655.723 99.568 657.707 97.84 657.707 95.376C657.707 93.008 655.755 91.344 652.97 91.344H651.307V88.752H653.003C655.563 88.752 657.355 87.216 657.355 85.072C657.355 82.864 655.627 81.328 653.131 81.328C650.635 81.328 648.907 82.896 648.907 85.104H645.867C645.867 81.296 648.875 78.64 653.131 78.64C657.355 78.64 660.331 81.264 660.331 84.976C660.331 86.736 659.243 88.848 657.355 90.064ZM671.529 90.448C671.529 94.576 669.929 99.984 667.657 103.632H664.393C666.953 100.08 668.777 94.608 668.777 90.448C668.777 86.288 666.953 80.816 664.393 77.264H667.657C669.929 80.912 671.529 86.32 671.529 90.448Z" fill="#231815"/>
<path d="M750.942 124.262H714.17V150.195H750.942V124.262Z" fill="#FBDACF"/>
<path d="M735.925 140.571H728.258C715.183 140.571 706.799 129.515 706.799 117.526V113.595C706.799 101.627 716.595 98.3691 728.584 98.3691H735.599C747.567 98.3691 757.384 101.627 757.384 113.595V117.526C757.384 129.494 749.022 140.571 735.925 140.571Z" fill="#FBDACF"/>
<path d="M748.87 121.694L748.371 121.651C745.373 121.433 743.093 118.784 743.332 115.786L745.895 81.8816C746.112 78.8842 748.762 76.6038 751.759 76.821L752.258 76.8643C755.256 77.1032 757.536 79.7314 757.297 82.7504L754.735 116.655C754.517 119.652 751.868 121.933 748.87 121.716" fill="#FBDACF"/>
<path d="M736.836 114.961H736.336C733.317 114.874 730.928 112.355 730.993 109.336L731.862 75.3444C731.949 72.3254 734.469 69.9361 737.488 70.0013H737.987C741.006 70.0882 743.395 72.6295 743.33 75.6268L742.461 109.618C742.375 112.637 739.855 115.027 736.836 114.961Z" fill="#FBDACF"/>
<path d="M726.216 117.223H725.717C722.719 117.44 720.091 115.138 719.917 112.14L717.789 78.2137C717.593 75.1947 719.917 72.5883 722.915 72.4146H723.414C726.433 72.1974 729.04 74.4998 729.213 77.5188L731.342 111.445C731.537 114.443 729.213 117.071 726.216 117.244" fill="#FBDACF"/>
<path d="M714.031 124.651L713.531 124.695C710.534 124.934 707.884 122.653 707.645 119.656L705.017 85.7513C704.778 82.754 707.059 80.1041 710.056 79.8652L710.556 79.8219C713.553 79.583 716.203 81.8636 716.442 84.8609L719.07 118.766C719.309 121.763 717.028 124.413 714.031 124.651Z" fill="#FBDACF"/>
<path d="M747.61 104.233L736.012 99.4977C732.863 98.4335 729.453 100.236 728.584 103.451C727.802 106.253 729.214 109.163 731.864 110.314L741.594 114.506C741.594 114.506 733.406 115.809 732.146 124.258" stroke="#F2A098" stroke-width="2.55518" stroke-linecap="round" stroke-linejoin="round"/>
<path d="M754.343 143.633H709.688V170.001H754.343V143.633Z" fill="#76CCF3"/>
<rect x="777.883" y="121.359" width="39" height="48" rx="4.5" fill="white" stroke="#D9D9D9"/>
<path d="M829.299 158.359H825.879V138.599H829.299V158.359ZM830.135 135.863H827.589L822.611 130.505H826.753L830.135 135.863Z" fill="#231815"/>
</svg>
