<svg width="43" height="40" viewBox="0 0 43 40" fill="none" xmlns="http://www.w3.org/2000/svg">
<g clip-path="url(#clip0_2754_6828)">
<path d="M42.4041 0.632812H0.618896V24.4172H42.4041V0.632812Z" fill="#FBDACF"/>
<path d="M42.4041 25.0264H0.61887C0.275053 25.0264 0 24.7452 0 24.3937V0.632689C0 0.281195 0.275053 0 0.61887 0H42.4041C42.7479 0 43.0229 0.281195 43.0229 0.632689V24.4171C43.0229 24.7686 42.7479 25.0498 42.4041 25.0498V25.0264ZM1.21482 23.7844H41.7852V1.24194H1.21482V23.761V23.7844Z" fill="#3E3A39"/>
<path d="M40.089 2.71875H2.9339V22.3321H40.089V2.71875Z" fill="white"/>
<path d="M40.0891 22.9412H2.93393C2.59012 22.9412 2.31506 22.66 2.31506 22.3086V2.71863C2.31506 2.36713 2.59012 2.08594 2.93393 2.08594H40.0891C40.4329 2.08594 40.7079 2.36713 40.7079 2.71863V22.332C40.7079 22.6835 40.4329 22.9647 40.0891 22.9647V22.9412ZM3.52988 21.6993H39.4702V3.32788H3.52988V21.6993Z" fill="#3E3A39"/>
<path d="M4.49255 36.8384V33.2531C4.49255 31.1207 6.21164 29.3633 8.29746 29.3633C10.3833 29.3633 12.1024 31.1207 12.1024 33.2531V36.8384" fill="white"/>
<path d="M12.1023 37.4709C11.7585 37.4709 11.4835 37.1898 11.4835 36.8383V33.253C11.4835 31.4487 10.0624 29.9958 8.29743 29.9958C6.53251 29.9958 5.1114 31.4487 5.1114 33.253V36.8383C5.1114 37.1898 4.83634 37.4709 4.49253 37.4709C4.14871 37.4709 3.87366 37.1898 3.87366 36.8383V33.253C3.87366 30.7691 5.84487 28.7305 8.29743 28.7305C10.75 28.7305 12.6983 30.7457 12.6983 33.253V36.8383C12.6983 37.1898 12.4232 37.4709 12.0794 37.4709H12.1023Z" fill="#3E3A39"/>
<path d="M8.36622 30.5095C5.27187 30.5095 2.75055 27.9319 2.75055 24.7684C2.75055 21.605 5.27187 19.0273 8.36622 19.0273C11.4606 19.0273 13.9819 21.605 13.9819 24.7684C13.9819 27.9319 11.4606 30.5095 8.36622 30.5095Z" fill="white"/>
<path d="M8.36622 31.1421C4.92806 31.1421 2.1546 28.2832 2.1546 24.7917C2.1546 21.3002 4.95098 18.4414 8.36622 18.4414C11.7815 18.4414 14.5778 21.3002 14.5778 24.7917C14.5778 28.2832 11.7815 31.1421 8.36622 31.1421ZM8.36622 19.6599C5.61569 19.6599 3.36942 21.9563 3.36942 24.7683C3.36942 27.5802 5.61569 29.8767 8.36622 29.8767C11.1168 29.8767 13.363 27.5802 13.363 24.7683C13.363 21.9563 11.1168 19.6599 8.36622 19.6599Z" fill="#3E3A39"/>
<path d="M2.06287 39.3659V36.0384C2.06287 34.2341 3.41521 32.7578 5.06553 32.7578H11.1396C12.7899 32.7578 14.1423 34.2341 14.1423 36.0384V39.3659" fill="#E9EAEA"/>
<path d="M14.1423 39.9985C13.7985 39.9985 13.5235 39.7173 13.5235 39.3658V36.0383C13.5235 34.5855 12.4462 33.3904 11.1397 33.3904H5.06557C3.75906 33.3904 2.68177 34.5855 2.68177 36.0383V39.3658C2.68177 39.7173 2.40672 39.9985 2.0629 39.9985C1.71908 39.9985 1.44403 39.7173 1.44403 39.3658V36.0383C1.44403 33.8825 3.07143 32.1484 5.04264 32.1484H11.1167C13.1109 32.1484 14.7154 33.9059 14.7154 36.0383V39.3658C14.7154 39.7173 14.4403 39.9985 14.0965 39.9985H14.1423Z" fill="#3E3A39"/>
<path d="M17.6034 36.8384V33.2531C17.6034 31.1207 19.3225 29.3633 21.4083 29.3633C23.4941 29.3633 25.2132 31.1207 25.2132 33.2531V36.8384" fill="white"/>
<path d="M25.2132 37.4709C24.8694 37.4709 24.5944 37.1898 24.5944 36.8383V33.253C24.5944 31.4487 23.1733 29.9958 21.4083 29.9958C19.6434 29.9958 18.2223 31.4487 18.2223 33.253V36.8383C18.2223 37.1898 17.9472 37.4709 17.6034 37.4709C17.2596 37.4709 16.9846 37.1898 16.9846 36.8383V33.253C16.9846 30.7691 18.9558 28.7305 21.4083 28.7305C23.8609 28.7305 25.8092 30.7457 25.8092 33.253V36.8383C25.8092 37.1898 25.5341 37.4709 25.1903 37.4709H25.2132Z" fill="#3E3A39"/>
<path d="M21.4771 30.5095C18.3827 30.5095 15.8614 27.9319 15.8614 24.7684C15.8614 21.605 18.3827 19.0273 21.4771 19.0273C24.5714 19.0273 27.0927 21.605 27.0927 24.7684C27.0927 27.9319 24.5714 30.5095 21.4771 30.5095Z" fill="white"/>
<path d="M21.4771 31.1421C18.0389 31.1421 15.2654 28.2832 15.2654 24.7917C15.2654 21.3002 18.0618 18.4414 21.4771 18.4414C24.8923 18.4414 27.6887 21.3002 27.6887 24.7917C27.6887 28.2832 24.8923 31.1421 21.4771 31.1421ZM21.4771 19.6599C18.7265 19.6599 16.4803 21.9563 16.4803 24.7683C16.4803 27.5802 18.7265 29.8767 21.4771 29.8767C24.2276 29.8767 26.4739 27.5802 26.4739 24.7683C26.4739 21.9563 24.2276 19.6599 21.4771 19.6599Z" fill="#3E3A39"/>
<path d="M15.1738 39.3659V36.0384C15.1738 34.2341 16.5261 32.7578 18.1764 32.7578H24.2505C25.9008 32.7578 27.2532 34.2341 27.2532 36.0384V39.3659" fill="#E9EAEA"/>
<path d="M27.2303 39.9985C26.8865 39.9985 26.6114 39.7173 26.6114 39.3658V36.0383C26.6114 34.5855 25.5341 33.3904 24.2276 33.3904H18.1535C16.847 33.3904 15.7697 34.5855 15.7697 36.0383V39.3658C15.7697 39.7173 15.4947 39.9985 15.1509 39.9985C14.807 39.9985 14.532 39.7173 14.532 39.3658V36.0383C14.532 33.8825 16.1594 32.1484 18.1306 32.1484H24.2047C26.1988 32.1484 27.8033 33.9059 27.8033 36.0383V39.3658C27.8033 39.7173 27.5282 39.9985 27.1844 39.9985H27.2303Z" fill="#3E3A39"/>
<path d="M30.7143 36.8384V33.2531C30.7143 31.1207 32.4334 29.3633 34.5192 29.3633C36.605 29.3633 38.3241 31.1207 38.3241 33.2531V36.8384" fill="white"/>
<path d="M38.3012 37.4709C37.9574 37.4709 37.6823 37.1898 37.6823 36.8383V33.253C37.6823 31.4487 36.2612 29.9958 34.4963 29.9958C32.7314 29.9958 31.3102 31.4487 31.3102 33.253V36.8383C31.3102 37.1898 31.0352 37.4709 30.6914 37.4709C30.3476 37.4709 30.0725 37.1898 30.0725 36.8383V33.253C30.0725 30.7691 32.0437 28.7305 34.4963 28.7305C36.9488 28.7305 38.8971 30.7457 38.8971 33.253V36.8383C38.8971 37.1898 38.6221 37.4709 38.2783 37.4709H38.3012Z" fill="#3E3A39"/>
<path d="M34.565 30.5095C31.4707 30.5095 28.9493 27.9319 28.9493 24.7684C28.9493 21.605 31.4707 19.0273 34.565 19.0273C37.6594 19.0273 40.1807 21.605 40.1807 24.7684C40.1807 27.9319 37.6594 30.5095 34.565 30.5095Z" fill="white"/>
<path d="M34.565 31.1421C31.1268 31.1421 28.3534 28.2832 28.3534 24.7917C28.3534 21.3002 31.1498 18.4414 34.565 18.4414C37.9803 18.4414 40.7766 21.3002 40.7766 24.7917C40.7766 28.2832 37.9803 31.1421 34.565 31.1421ZM34.565 19.6599C31.8145 19.6599 29.5682 21.9563 29.5682 24.7683C29.5682 27.5802 31.8145 29.8767 34.565 29.8767C37.3155 29.8767 39.5618 27.5802 39.5618 24.7683C39.5618 21.9563 37.3155 19.6599 34.565 19.6599Z" fill="#3E3A39"/>
<path d="M28.2617 39.3659V36.0384C28.2617 34.2341 29.6141 32.7578 31.2644 32.7578H37.3385C38.9888 32.7578 40.3411 34.2341 40.3411 36.0384V39.3659" fill="#E9EAEA"/>
<path d="M40.3411 39.9985C39.9973 39.9985 39.7222 39.7173 39.7222 39.3658V36.0383C39.7222 34.5855 38.645 33.3904 37.3385 33.3904H31.2644C29.9579 33.3904 28.8806 34.5855 28.8806 36.0383V39.3658C28.8806 39.7173 28.6055 39.9985 28.2617 39.9985C27.9179 39.9985 27.6428 39.7173 27.6428 39.3658V36.0383C27.6428 33.8825 29.2702 32.1484 31.2414 32.1484H37.3155C39.3097 32.1484 40.9141 33.9059 40.9141 36.0383V39.3658C40.9141 39.7173 40.6391 39.9985 40.2953 39.9985H40.3411Z" fill="#3E3A39"/>
</g>
<defs>
<clipPath id="clip0_2754_6828">
<rect width="43" height="40" fill="white"/>
</clipPath>
</defs>
</svg>
