<svg width="43" height="47" viewBox="0 0 43 47" fill="none" xmlns="http://www.w3.org/2000/svg">
<g clip-path="url(#clip0_2754_6790)">
<path d="M5.25153 14.5145C5.25153 6.85453 11.5871 0.636719 19.3921 0.636719C27.1972 0.636719 33.5328 6.85453 33.5328 14.5145" fill="#FBDACF"/>
<path d="M33.5328 15.1308C33.1714 15.1308 32.8823 14.8471 32.8823 14.4925C32.8823 7.18712 26.8358 1.25302 19.3681 1.25302C11.9003 1.25302 5.87787 7.21076 5.87787 14.5161C5.87787 14.8707 5.58879 15.1544 5.22745 15.1544C4.8661 15.1544 4.57703 14.8707 4.57703 14.5161C4.60112 6.50151 11.2499 0 19.3922 0C27.5344 0 34.1832 6.50151 34.1832 14.5161C34.1832 14.8707 33.8941 15.1544 33.5328 15.1544V15.1308Z" fill="#3E3A39"/>
<path d="M11.5389 46.3837V35.603C11.563 30.0708 15.5378 28.2031 20.3798 28.2031C25.2219 28.2031 29.2689 30.5673 30.3048 36.6669L31.8465 46.3837" fill="white"/>
<path d="M31.8224 47C31.5092 47 31.2443 46.7872 31.1961 46.4562L29.6543 36.7394C28.5462 30.1907 23.9933 28.8194 20.3798 28.8194C14.9597 28.8194 12.2134 31.089 12.2134 35.581V46.3617C12.1893 46.7163 11.9003 47 11.5389 47C11.1776 47 10.8885 46.7163 10.9126 46.3617V35.581C10.9367 30.4034 14.3092 27.5664 20.4039 27.5664C26.4986 27.5664 29.9675 30.7581 30.9552 36.5503L32.4969 46.2671C32.5451 46.6217 32.3042 46.9291 31.9669 46.9764C31.9429 46.9764 31.8947 46.9764 31.8706 46.9764L31.8224 47Z" fill="#3E3A39"/>
<path d="M14.8151 29.456L8.40725 32.1275L9.05767 25.7915L1.39717 25.0586L0.650391 36.6667C0.650391 39.8584 3.83022 40.8986 5.9742 40.4022C6.35963 40.3076 12.2375 37.9434 12.2375 37.9434" fill="white"/>
<path d="M4.91429 41.1857C3.7098 41.1857 2.48123 40.8075 1.58992 40.0982C0.554062 39.2708 0 38.1123 0 36.6938L0.746779 25.0384C0.746779 24.8729 0.843137 24.7074 0.963585 24.5892C1.08403 24.471 1.27675 24.4237 1.44538 24.4473L9.10588 25.1802C9.27451 25.1802 9.41905 25.2748 9.5395 25.4166C9.65994 25.5585 9.70812 25.7003 9.68403 25.8895L9.12997 31.1616L14.5501 28.892C14.8874 28.7501 15.2487 28.892 15.3933 29.223C15.5378 29.554 15.3933 29.9086 15.056 30.0504L8.64818 32.722C8.43137 32.8165 8.19048 32.7692 8.02185 32.651C7.82913 32.5092 7.73277 32.2964 7.75686 32.0836L8.33501 26.3859L1.97535 25.7713L1.27675 36.7411C1.27675 37.734 1.66218 38.5379 2.38487 39.1289C3.39664 39.9327 4.84202 40.0509 5.8056 39.8382C6.16695 39.7436 9.78039 38.3014 11.9725 37.4031C12.2857 37.2612 12.6711 37.4031 12.8157 37.7577C12.9602 38.0887 12.8157 38.4433 12.4784 38.5851C10.6958 39.2944 6.5042 40.9966 6.11877 41.0675C5.73333 41.1621 5.32381 41.1857 4.93837 41.1857H4.91429Z" fill="#3E3A39"/>
<path d="M9.92491 22.9808C9.92491 25.7469 7.87729 27.9929 5.37197 27.9929C2.86665 27.9929 0.819031 25.7469 0.819031 22.9808C0.819031 20.2147 2.84256 17.9688 5.37197 17.9688C7.90138 17.9688 9.92491 20.2147 9.92491 22.9808Z" fill="white"/>
<path d="M5.37202 28.6285C2.50535 28.6285 0.192749 26.0988 0.192749 23.0018C0.192749 19.9047 2.52944 17.375 5.37202 17.375C8.2146 17.375 10.5513 19.9047 10.5513 23.0018C10.5513 26.0988 8.2146 28.6285 5.37202 28.6285ZM5.37202 18.628C3.22804 18.628 1.4695 20.5903 1.4695 23.0018C1.4695 25.4132 3.22804 27.3755 5.37202 27.3755C7.516 27.3755 9.27454 25.4132 9.27454 23.0018C9.27454 20.5903 7.516 18.628 5.37202 18.628Z" fill="#3E3A39"/>
<path d="M32.3765 14.1609C32.256 12.7897 31.8465 11.5367 31.3406 10.331C29.1966 5.41346 24.0896 2.12724 18.3563 2.62372C12.623 3.1202 8.16639 7.23388 6.96191 12.4351C6.67283 13.7117 6.5042 15.012 6.62465 16.3833C7.10644 21.75 10.9367 26.0292 15.8992 27.4477V29.8828L17.7782 31.3722C19.2717 32.5543 21.4157 32.5543 22.9092 31.3722L24.8364 29.8591V26.8093C29.7025 24.6579 32.9064 19.6459 32.4006 14.1373" fill="white"/>
<path d="M20.3317 32.8872C19.2717 32.8872 18.2118 32.5562 17.3686 31.8706L15.4897 30.3811C15.3451 30.2629 15.2488 30.0738 15.2488 29.8847V27.9224C10.0695 26.2438 6.45604 21.7991 5.97425 16.4561C5.8538 15.1794 5.97425 13.8082 6.33559 12.3188C7.63643 6.64472 12.4544 2.5074 18.284 2.01092C24.1378 1.51444 29.6062 4.75337 31.9188 10.0964C32.521 11.5149 32.8824 12.8152 33.0028 14.1155C33.4846 19.6241 30.4734 24.8489 25.4387 27.2604V29.9083C25.4387 30.0974 25.3423 30.2866 25.1978 30.4048L23.2706 31.9179C22.4034 32.6035 21.3675 32.9345 20.3076 32.9345L20.3317 32.8872ZM16.5255 29.5773L18.1636 30.8776C19.4163 31.8706 21.223 31.8706 22.4756 30.8776L24.1619 29.5537V26.8112C24.1619 26.5748 24.3065 26.3384 24.5474 26.2438C29.3171 24.1397 32.2079 19.2931 31.7502 14.1865C31.6538 13.028 31.3165 11.8459 30.7625 10.5456C28.6667 5.69905 23.7283 2.74382 18.4286 3.21665C13.153 3.66585 8.79273 7.4249 7.58825 12.5552C7.27509 13.9264 7.15464 15.1558 7.27509 16.3142C7.73279 21.3027 11.1776 25.4164 16.0919 26.8349C16.3569 26.9058 16.5496 27.1658 16.5496 27.4496V29.5773H16.5255Z" fill="#3E3A39"/>
<path d="M24.451 15.8633C24.3065 16.3598 23.8488 16.738 23.2947 16.7853C22.7647 16.8326 22.2588 16.5725 22.0179 16.147" fill="white"/>
<path d="M23.1742 17.4258C22.4756 17.4258 21.8011 17.0475 21.4639 16.4564C21.2953 16.1491 21.3916 15.7708 21.7048 15.6053C22.0179 15.4398 22.4034 15.5344 22.572 15.8417C22.6925 16.0545 22.9093 16.1964 23.2465 16.1727C23.5356 16.1491 23.7765 15.96 23.8488 15.6999C23.9451 15.3689 24.3065 15.1798 24.6437 15.2743C24.981 15.3689 25.1737 15.7235 25.0773 16.0545C24.8364 16.8111 24.1619 17.3548 23.3429 17.4258C23.2947 17.4258 23.2224 17.4258 23.1742 17.4258Z" fill="#3E3A39"/>
<path d="M17.2482 16.5039C17.1036 17.0004 16.6459 17.3787 16.0919 17.4259C15.5619 17.4732 15.056 17.2132 14.8151 16.7876" fill="white"/>
<path d="M15.9715 18.039C15.2729 18.039 14.5984 17.6608 14.237 17.0697C14.0684 16.7624 14.1647 16.3841 14.4779 16.2186C14.7911 16.0531 15.1765 16.1477 15.3451 16.455C15.4656 16.6914 15.7547 16.8333 16.0196 16.786C16.3087 16.7624 16.5496 16.5732 16.6219 16.3132C16.7182 15.9822 17.0796 15.7931 17.4168 15.8876C17.7541 15.9822 17.9468 16.3368 17.8505 16.6678C17.6096 17.4243 16.9351 17.9445 16.1401 18.039C16.0919 18.039 16.0196 18.039 15.9715 18.039Z" fill="#3E3A39"/>
<path d="M16.7905 20.544C19.1753 21.4187 21.3675 21.1587 23.3669 19.9766L16.7905 20.544Z" fill="white"/>
<path d="M19.5608 21.7027C18.5731 21.7027 17.5855 21.5136 16.5496 21.159C16.2124 21.0408 16.0437 20.6861 16.1642 20.3551C16.2846 20.0242 16.646 19.8587 16.9832 19.9769C19.1272 20.7571 21.1025 20.5916 23.0056 19.4567C23.2947 19.2676 23.7042 19.3622 23.8969 19.6695C24.0897 19.9769 23.9933 20.3551 23.6801 20.5443C22.3552 21.3245 20.9821 21.7264 19.5367 21.7264L19.5608 21.7027Z" fill="#3E3A39"/>
<path d="M22.2588 13.2635C21.9938 13.2635 21.777 13.0744 21.7529 12.8143C21.7529 12.5306 21.9456 12.2942 22.2106 12.2706L23.7283 12.1523C24.0414 12.1523 24.2583 12.3415 24.2823 12.6015C24.2823 12.8852 24.0896 13.1217 23.8246 13.1453L22.307 13.2635C22.307 13.2635 22.2829 13.2635 22.2588 13.2635Z" fill="#3E3A39"/>
<path d="M14.502 13.9473C14.237 13.9473 14.0202 13.7582 13.9961 13.4981C13.9961 13.2144 14.1888 12.978 14.4538 12.9544L15.9714 12.8125C16.3087 12.8125 16.5014 13.0016 16.5255 13.2617C16.5255 13.5454 16.3328 13.7818 16.0678 13.8055L14.5502 13.9473C14.5502 13.9473 14.5261 13.9473 14.502 13.9473Z" fill="#3E3A39"/>
<path d="M7.87732 12.3883C7.78096 11.3008 6.5283 10.5915 5.51654 11.1116C3.34847 12.2228 2.48124 14.587 2.72214 17.2349C2.96303 19.8828 4.23979 22.0578 6.57648 22.7671C7.6846 23.0981 8.76864 22.1997 8.67228 21.1121L7.87732 12.3883Z" fill="#FBDACF"/>
<path d="M7.0342 23.4544C6.8174 23.4544 6.60059 23.4307 6.38378 23.3598C3.92664 22.6033 2.36081 20.3809 2.09583 17.2839C1.80675 14.1631 2.96306 11.728 5.22748 10.5696C5.90199 10.2386 6.67286 10.2386 7.34737 10.5932C8.02188 10.9478 8.45549 11.6098 8.52776 12.3427L9.32272 21.0666C9.39499 21.7995 9.08182 22.5087 8.47958 22.9816C8.07006 23.3125 7.56418 23.478 7.05829 23.478L7.0342 23.4544ZM6.26334 11.5625C6.1188 11.5625 5.97426 11.5862 5.82972 11.6571C4.023 12.5791 3.13168 14.5887 3.37258 17.1657C3.61348 19.7426 4.84205 21.563 6.76922 22.1541C7.08238 22.2487 7.39555 22.1777 7.66053 21.965C7.92552 21.7522 8.07006 21.4448 8.04597 21.1375L7.25101 12.4136C7.22692 12.1063 7.0342 11.8226 6.74513 11.6571C6.60059 11.5862 6.43196 11.5389 6.26334 11.5389V11.5625Z" fill="#3E3A39"/>
<path d="M30.9552 10.4042C30.8588 9.31671 31.967 8.41832 33.051 8.7493C35.3877 9.45856 36.6644 11.6336 36.9053 14.2815C37.1462 16.9294 36.279 19.2936 34.1109 20.4047C33.0992 20.9249 31.8465 20.2156 31.7502 19.1281L30.9552 10.4042Z" fill="#FBDACF"/>
<path d="M33.3641 21.1821C32.9787 21.1821 32.6173 21.0875 32.2801 20.8984C31.6056 20.5437 31.172 19.8818 31.0997 19.1489L30.3047 10.425C30.2325 9.69212 30.5456 8.98286 31.1479 8.51003C31.7501 8.03719 32.521 7.89534 33.2196 8.10812C35.6767 8.86466 37.2426 11.087 37.5075 14.1841C37.7966 17.3048 36.6403 19.7399 34.3759 20.922C34.0627 21.0875 33.7014 21.1584 33.34 21.1584L33.3641 21.1821ZM31.5815 10.3541L32.3764 19.0779C32.4005 19.3853 32.5933 19.669 32.8823 19.8345C33.1714 20 33.5087 20 33.7977 19.8345C35.6045 18.9124 36.4958 16.9029 36.2549 14.3259C36.014 11.749 34.7854 9.92854 32.8582 9.33749C32.5451 9.24293 32.2319 9.31385 31.9669 9.50299C31.7019 9.71576 31.5574 10.0231 31.5815 10.3305V10.3541Z" fill="#3E3A39"/>
<path d="M28.1126 46.9993C27.7512 46.9993 27.4622 46.7156 27.4622 46.361V38.6774C27.4622 38.3228 27.7512 38.0391 28.1126 38.0391C28.4739 38.0391 28.763 38.3228 28.763 38.6774V46.361C28.763 46.7156 28.4739 46.9993 28.1126 46.9993Z" fill="#3E3A39"/>
<path d="M8.26278 15.2958C8.02188 15.2958 7.80507 15.1776 7.68462 14.9412C7.516 14.6338 7.66053 14.2556 7.9737 14.0901C10.9126 12.6479 12.3098 9.38535 12.3339 9.36171C12.4544 9.05437 12.8157 8.88888 13.1289 9.00709C18.8381 10.993 30.4734 10.9457 30.642 10.9457C31.0034 10.9457 31.2925 11.2294 31.2925 11.5604C31.2925 11.915 31.0034 12.1987 30.6661 12.1987C30.2084 12.1987 19.344 12.246 13.2734 10.3547C12.7194 11.4422 11.2017 13.9009 8.55185 15.2013C8.45549 15.2485 8.35913 15.2722 8.26278 15.2722V15.2958Z" fill="#3E3A39"/>
<path d="M39.2661 29.6234C39.2661 31.0183 38.1098 32.1767 36.6644 32.1767C35.2191 32.1767 34.0869 31.0419 34.0869 29.6234C34.0869 28.2049 35.2432 27.0938 36.6644 27.0938C38.0857 27.0938 39.2661 28.2286 39.2661 29.6234Z" fill="white"/>
<path d="M36.6644 32.8165C34.8818 32.8165 33.4364 31.398 33.4364 29.6485C33.4364 27.899 34.8818 26.4805 36.6644 26.4805C38.447 26.4805 39.8924 27.899 39.8924 29.6485C39.8924 31.398 38.447 32.8165 36.6644 32.8165ZM36.6644 27.7335C35.5804 27.7335 34.7132 28.5846 34.7132 29.6485C34.7132 30.7124 35.5804 31.5635 36.6644 31.5635C37.7484 31.5635 38.6157 30.7124 38.6157 29.6485C38.6157 28.5846 37.7484 27.7335 36.6644 27.7335Z" fill="#3E3A39"/>
<path d="M39.2179 29.3394C38.8566 29.3394 38.5675 29.0557 38.5675 28.701V20.7337C38.5675 20.5446 38.6639 20.3555 38.8325 20.2373C39.0011 20.1191 39.1938 20.0718 39.3866 20.1427C39.4829 20.1663 41.7232 20.8283 42.6146 22.6251C43.0964 23.5944 43.0964 24.7056 42.6146 25.9113C42.4941 26.2423 42.1087 26.3841 41.7714 26.2659C41.4342 26.1477 41.2896 25.7695 41.4101 25.4385C41.7714 24.5637 41.7714 23.8308 41.4583 23.1689C41.0969 22.4596 40.3983 21.9868 39.8443 21.6794V28.701C39.8443 29.0557 39.5552 29.3394 39.1938 29.3394H39.2179Z" fill="#3E3A39"/>
</g>
<defs>
<clipPath id="clip0_2754_6790">
<rect width="43" height="47" fill="white"/>
</clipPath>
</defs>
</svg>
