<svg width="33" height="48" viewBox="0 0 33 48" fill="none" xmlns="http://www.w3.org/2000/svg">
<g clip-path="url(#clip0_2754_6745)">
<path d="M32.4143 40.2812H0.608154V47.3856H32.4143V40.2812Z" fill="#E9EAEA"/>
<path d="M32.3918 48.0019H0.608191C0.270307 48.0019 0 47.7287 0 47.3871V40.2828C0 39.9412 0.270307 39.668 0.608191 39.668H32.4143C32.7522 39.668 33.0225 39.9412 33.0225 40.2828V47.3871C33.0225 47.7287 32.7522 48.0019 32.4143 48.0019H32.3918ZM1.19386 46.7951H31.8061V40.8976H1.19386V46.7951Z" fill="#3E3A39"/>
<path d="M25.8594 9.90625H6.12695V21.2687H25.8594V9.90625Z" fill="white"/>
<path d="M25.8594 21.8804H6.12699C5.78911 21.8804 5.5188 21.6072 5.5188 21.2656V9.88043C5.5188 9.53887 5.78911 9.26562 6.12699 9.26562H25.8594C26.1973 9.26562 26.4676 9.53887 26.4676 9.88043V21.2656C26.4676 21.6072 26.1973 21.8804 25.8594 21.8804ZM6.73518 20.6736H25.2512V10.518H6.73518V20.6736Z" fill="#3E3A39"/>
<path d="M8.83002 40.0764V26.7558C8.83002 23.1125 11.8935 20.1523 15.6327 20.1523C19.372 20.1523 22.4355 23.1125 22.4355 26.7558V40.0764" fill="white"/>
<path d="M22.4355 40.6889C22.0976 40.6889 21.8273 40.4156 21.8273 40.0741V26.7534C21.8273 23.4517 19.0341 20.7648 15.6102 20.7648C12.1863 20.7648 9.39314 23.4517 9.39314 26.7534V40.0741C9.39314 40.4156 9.12283 40.6889 8.78495 40.6889C8.44706 40.6889 8.17676 40.4156 8.17676 40.0741V26.7534C8.17676 22.7686 11.488 19.5352 15.5877 19.5352C19.6873 19.5352 22.9986 22.7686 22.9986 26.7534V40.0741C22.9986 40.4156 22.7283 40.6889 22.3904 40.6889H22.4355Z" fill="#3E3A39"/>
<path d="M26.1297 10.9973C26.2198 5.35021 21.7597 0.682281 16.1509 0.5912C10.542 0.500118 5.94677 5.00866 5.85667 10.6785C5.78909 15.4147 8.89763 19.4223 13.2 20.6747V20.9935C13.2 22.428 14.3713 23.6121 15.7905 23.6121H15.8355C17.2546 23.6121 18.426 22.428 18.426 20.9935V20.7658C22.7734 19.6728 26.0396 15.7335 26.1297 10.9973Z" fill="white"/>
<path d="M15.8355 24.2505C14.0785 24.2505 12.6594 22.8615 12.5918 21.1309C8.17676 19.6509 5.18086 15.4156 5.24843 10.6793C5.33854 4.75901 10.1365 0 15.9706 0C16.0382 0 16.0832 0 16.1508 0C19.0116 0.0455408 21.6921 1.20683 23.6969 3.30171C25.7017 5.37381 26.7604 8.12903 26.7153 11.0209C26.6478 15.7799 23.4942 19.9241 19.0116 21.2448C18.8989 22.907 17.5024 24.2505 15.8129 24.2505H15.8355ZM15.9931 1.20683C10.8123 1.20683 6.53239 5.44213 6.46482 10.7021C6.39724 15.0285 9.23547 18.8994 13.3576 20.1063C13.6054 20.1746 13.7856 20.425 13.7856 20.6983V21.0171C13.7856 22.1328 14.6867 23.0436 15.7904 23.0436C16.8942 23.0436 17.8402 22.1328 17.8402 21.0171V20.7894C17.8402 20.5161 18.0204 20.2657 18.2908 20.1973C22.4805 19.1499 25.4539 15.37 25.5215 10.9981C25.5665 8.42505 24.5979 5.98862 22.8409 4.14421C21.0614 2.29981 18.6962 1.25237 16.1508 1.20683C16.1058 1.20683 16.0607 1.20683 15.9931 1.20683Z" fill="#3E3A39"/>
<path d="M12.9297 12.8893C12.9297 13.4358 13.3352 13.8912 13.8532 13.8912C14.3713 13.8912 14.8218 13.4585 14.8218 12.9121C14.8218 12.3656 14.4164 11.9102 13.8758 11.9102C13.3577 11.9102 12.9297 12.3428 12.9072 12.8893" fill="#3E3A39"/>
<path d="M17.4573 12.9791C17.4573 13.5256 17.8628 13.981 18.3809 13.981C18.899 13.981 19.327 13.5484 19.3495 13.0019C19.3495 12.4554 18.944 12 18.4259 12C17.9078 12 17.4799 12.4326 17.4573 12.9791Z" fill="#3E3A39"/>
<path d="M18.1556 30.0554C18.1556 30.4881 18.471 30.8296 18.8765 30.8524C19.2819 30.8524 19.6198 30.5109 19.6198 30.0782C19.6198 29.6456 19.3044 29.2812 18.899 29.2812C18.4935 29.2812 18.1556 29.6228 18.1556 30.0554Z" fill="#3E3A39"/>
<path d="M18.9666 32.2664C18.9666 32.699 19.2819 33.0406 19.6874 33.0633C20.0928 33.0633 20.4307 32.7218 20.4307 32.2892C20.4307 31.8565 20.1154 31.4922 19.7099 31.4922C19.3044 31.4922 18.9666 31.8337 18.9666 32.2664Z" fill="#3E3A39"/>
<path d="M16.4211 32.8797C16.4211 33.3123 16.7365 33.6539 17.142 33.6766C17.5474 33.6766 17.8853 33.3351 17.8853 32.9024C17.8853 32.4698 17.5699 32.1055 17.1645 32.1055C16.759 32.1055 16.4211 32.447 16.4211 32.8797Z" fill="#3E3A39"/>
<path d="M18.1781 15.7363C16.7815 16.4194 15.4751 16.3739 14.2136 15.668L18.1781 15.7363Z" fill="white"/>
<path d="M16.2409 16.8503C15.4525 16.8503 14.6867 16.6453 13.9433 16.2127C13.6505 16.0533 13.5379 15.689 13.6955 15.393C13.8532 15.0969 14.2136 14.9831 14.5065 15.1425C15.6327 15.7573 16.7365 15.7801 17.9078 15.188C18.2007 15.0514 18.5611 15.1653 18.7188 15.4613C18.8539 15.7573 18.7188 16.1216 18.4484 16.281C17.7051 16.6453 16.9618 16.8275 16.2409 16.8275V16.8503Z" fill="#3E3A39"/>
<path d="M13.9433 10.748H12.772C12.5017 10.7252 12.299 10.4975 12.299 10.2243C12.299 9.95103 12.4792 9.79163 12.7945 9.74609H13.9658C14.2362 9.76886 14.4389 9.99657 14.4389 10.2698C14.4389 10.5431 14.2136 10.748 13.9658 10.748H13.9433Z" fill="#3E3A39"/>
<path d="M19.2819 10.8378H18.1557C17.8853 10.8151 17.6826 10.5874 17.6826 10.3141C17.6826 10.0409 17.9079 9.83594 18.1557 9.83594H19.2819C19.5522 9.85871 19.755 10.0864 19.755 10.3597C19.755 10.6329 19.5297 10.8378 19.2819 10.8378Z" fill="#3E3A39"/>
<path d="M10.2716 32.7887C9.93376 32.7887 9.66345 32.5155 9.66345 32.1739V27.3921C9.66345 27.0506 9.93376 26.7773 10.2716 26.7773C10.6095 26.7773 10.8798 27.0506 10.8798 27.3921V32.1739C10.8798 32.5155 10.6095 32.7887 10.2716 32.7887Z" fill="#3E3A39"/>
<path d="M25.8368 37.6406V44.2213C25.8368 45.7924 21.8498 47.0676 16.9618 47.0676C12.0737 47.0676 8.08667 45.7924 8.08667 44.2213V37.7317" fill="#FBDACF"/>
<path d="M16.9618 47.68C12.2539 47.68 7.47852 46.4959 7.47852 44.2189V37.7293C7.47852 37.3878 7.74882 37.1145 8.08671 37.1145C8.42459 37.1145 8.6949 37.3878 8.6949 37.7293V44.2189C8.6949 45.1297 11.9161 46.4504 16.9843 46.4504C22.0526 46.4504 25.2737 45.1297 25.2737 44.2189V37.6382C25.2737 37.2967 25.544 37.0234 25.8819 37.0234C26.2198 37.0234 26.4901 37.2967 26.4901 37.6382V44.2189C26.4901 46.4959 21.7147 47.68 17.0068 47.68H16.9618Z" fill="#3E3A39"/>
<path d="M6.62255 10.6321C6.37477 10.6321 6.14951 10.4727 6.05941 10.2222C5.94678 9.90344 6.12699 9.56189 6.41982 9.44803L19.5072 4.84841C19.7775 4.75733 20.1154 4.89395 20.2505 5.1672C20.2505 5.21274 21.94 8.76492 25.4314 9.37972C25.7693 9.44803 25.972 9.74405 25.927 10.0856C25.8594 10.4044 25.5666 10.6321 25.2287 10.5866C21.9174 9.99452 20.0703 7.30762 19.4171 6.1691L6.82528 10.5866C6.82528 10.5866 6.69013 10.6093 6.62255 10.6093V10.6321Z" fill="#3E3A39"/>
<path d="M11.5782 21.5195C11.5782 21.5195 3.1536 26.2558 2.86076 31.0603C2.59046 35.8649 8.55974 33.5195 10.0014 32.973" fill="white"/>
<path d="M5.63138 34.6123C4.79793 34.6123 4.03206 34.4529 3.42387 33.9975C2.59043 33.3827 2.23002 32.3808 2.29759 31.0146C2.59043 25.9368 10.9474 21.1777 11.3078 20.9956C11.6007 20.8362 11.9611 20.9273 12.1188 21.2233C12.2764 21.5193 12.1863 21.8836 11.8935 22.043C11.8034 22.0886 3.76176 26.6654 3.49145 31.0829C3.4464 32.0392 3.64913 32.6768 4.12217 33.0183C4.75288 33.4965 6.2621 33.7698 9.82114 32.3808L10.2491 33.5193C9.41568 33.8381 7.43343 34.6123 5.63138 34.6123Z" fill="#3E3A39"/>
<path d="M18.9666 21.2461C18.9666 21.2461 27.7065 24.7072 29.7788 27.7129C31.8512 30.6958 30.0041 33.1778 27.5488 34.4529C25.116 35.7281 21.9399 30.5136 21.9399 30.5136" fill="white"/>
<path d="M26.7379 35.2478C24.215 35.2478 21.7372 31.3313 21.4219 30.8304C21.2416 30.5571 21.3317 30.17 21.6246 29.9879C21.8949 29.8057 22.2778 29.8968 22.458 30.1928C23.2014 31.4224 25.7242 34.7241 27.301 33.9044C28.7427 33.153 29.7338 32.0828 30.0041 30.9442C30.2294 30.0334 30.0041 29.0543 29.3058 28.0524C27.3686 25.2516 18.8539 21.8361 18.7638 21.8133C18.4485 21.6995 18.3133 21.3351 18.4259 21.0391C18.5386 20.7203 18.899 20.5609 19.1918 20.6976C19.5522 20.8342 28.1345 24.2725 30.2744 27.3693C31.1754 28.6672 31.4683 29.9651 31.1529 31.2403C30.7925 32.7203 29.5986 34.041 27.8191 34.9746C27.4587 35.1568 27.0758 35.2478 26.7154 35.2478H26.7379Z" fill="#3E3A39"/>
<path d="M28.4498 34.4533H28.3823C26.3324 34.4533 24.643 32.7456 24.643 30.6735V30.2408C24.643 28.1687 26.3324 26.4609 28.3823 26.4609H28.4498C30.4997 26.4609 32.1891 28.1687 32.1891 30.2408V30.6735C32.1891 32.7456 30.4997 34.4533 28.4498 34.4533Z" fill="white"/>
<path d="M28.4498 35.0658H28.3822C25.9945 35.0658 24.0348 33.0847 24.0348 30.6711V30.2384C24.0348 27.8248 25.9945 25.8438 28.3822 25.8438C30.7699 25.8438 32.7972 27.802 32.7972 30.2384V30.6711C32.7972 33.0847 30.86 35.0658 28.4498 35.0658ZM28.4498 27.0506C26.6478 27.0506 25.2286 28.4851 25.2286 30.2384V30.6711C25.2286 32.4244 26.6478 33.8589 28.3822 33.8589H28.4498C30.1843 33.8589 31.6034 32.4244 31.6034 30.6711V30.2384C31.6034 28.4851 30.1843 27.0506 28.4498 27.0506Z" fill="#3E3A39"/>
<path d="M8.08667 37.4127C8.08667 38.9839 12.0512 40.259 16.9618 40.259C21.8723 40.259 25.8368 38.9839 25.8368 37.4127C25.8368 35.8415 21.8498 34.5664 16.9618 34.5664C12.0737 34.5664 8.08667 35.8415 8.08667 37.4127Z" fill="white"/>
<path d="M16.9618 40.8518C12.2539 40.8518 7.47852 39.6677 7.47852 37.3907C7.47852 32.8594 26.4451 32.8594 26.4451 37.3907C26.4451 39.6677 21.6696 40.8518 16.9618 40.8518ZM16.9618 35.1592C11.8935 35.1592 8.67237 36.4799 8.67237 37.3907C8.67237 38.3015 11.8935 39.6222 16.9618 39.6222C22.0301 39.6222 25.2512 38.3015 25.2512 37.3907C25.2512 36.4799 22.0301 35.1592 16.9618 35.1592Z" fill="#3E3A39"/>
<path d="M22.1652 35.3388L26.828 30.1699C27.9768 29.965 28.6075 30.6253 28.9679 31.7411L23.6293 37.6614" fill="white"/>
<path d="M23.6519 38.2758C23.5167 38.2758 23.359 38.2303 23.2464 38.1164C22.9986 37.8887 22.9761 37.5016 23.2014 37.2511L28.2921 31.6041C27.9768 30.8526 27.5263 30.716 27.1208 30.7388L22.5932 35.7255C22.3679 35.976 21.985 35.9988 21.7372 35.771C21.4894 35.5433 21.4669 35.1562 21.6921 34.9058L26.3549 29.7369C26.3549 29.7369 26.5577 29.5775 26.6928 29.5547C27.6389 29.3953 28.9003 29.6003 29.5085 31.5358C29.5761 31.7407 29.5085 31.9684 29.3734 32.1278L24.0348 38.0481C23.9222 38.1847 23.7645 38.253 23.5843 38.253L23.6519 38.2758Z" fill="#3E3A39"/>
<path d="M11.9005 25.7035L10.5288 29.3906L15.61 31.3223L16.9818 27.6352L11.9005 25.7035Z" fill="#FBDACF"/>
<path d="M15.6328 31.9232C15.6328 31.9232 15.4976 31.9232 15.43 31.8776L10.3393 29.9421C10.1816 29.8966 10.0689 29.7827 10.0014 29.6233C9.93379 29.464 9.93379 29.3046 10.0014 29.1679L11.3754 25.4791C11.4881 25.1603 11.8259 25.001 12.1413 25.1148L17.2321 27.0503C17.3898 27.0958 17.5024 27.2097 17.57 27.3691C17.6375 27.5285 17.6375 27.6879 17.57 27.8245L16.1959 31.5133C16.1058 31.7638 15.8805 31.9004 15.6328 31.9004V31.9232ZM11.3304 29.0313L15.2949 30.5342L16.241 27.9839L12.2765 26.481L11.3304 29.0313Z" fill="#3E3A39"/>
<path d="M10.1816 32.8127H10.114C8.06418 32.8127 6.37476 31.1049 6.37476 29.0328V28.6002C6.37476 26.5281 8.06418 24.8203 10.114 24.8203H10.1816C12.2314 24.8203 13.9208 26.5281 13.9208 28.6002V29.0328C13.9208 31.1049 12.2314 32.8127 10.1816 32.8127Z" fill="white"/>
<path d="M10.1816 33.4251H10.114C7.72627 33.4251 5.76654 31.4441 5.76654 29.0304V28.5978C5.76654 26.1842 7.70374 24.2031 10.114 24.2031C12.5242 24.2031 14.529 26.1614 14.529 28.5978V29.0304C14.529 31.4441 12.5693 33.4251 10.1816 33.4251ZM10.1816 25.41C8.37951 25.41 6.9604 26.8445 6.9604 28.5978V29.0304C6.9604 30.7838 8.37951 32.2183 10.114 32.2183H10.1816C11.916 32.2183 13.3351 30.7838 13.3351 29.0304V28.5978C13.3351 26.8445 11.916 25.41 10.1816 25.41Z" fill="#3E3A39"/>
</g>
<defs>
<clipPath id="clip0_2754_6745">
<rect width="33" height="48" fill="white"/>
</clipPath>
</defs>
</svg>
