<svg width="758" height="286" viewBox="0 0 758 286" fill="none" xmlns="http://www.w3.org/2000/svg">
<rect x="1" y="11.5" width="13" height="13" rx="6.5" fill="#79A15A"/>
<path d="M40.8 10.656V12.576H34.416V10.656H40.8ZM40.8 15.36V17.28H34.416V15.36H40.8ZM42.432 21.264V28.872H40.08V23.136H28.128V21.264H42.432ZM42.432 7.632V20.16H40.08V7.632H42.432ZM30.672 8.808C31.696 8.808 32.624 9.032 33.456 9.48C34.304 9.912 34.968 10.52 35.448 11.304C35.928 12.088 36.168 12.968 36.168 13.944C36.168 14.936 35.928 15.824 35.448 16.608C34.968 17.392 34.304 18.008 33.456 18.456C32.624 18.888 31.696 19.104 30.672 19.104C29.632 19.104 28.688 18.888 27.84 18.456C27.008 18.008 26.352 17.392 25.872 16.608C25.392 15.824 25.152 14.936 25.152 13.944C25.152 12.968 25.392 12.088 25.872 11.304C26.352 10.52 27.008 9.912 27.84 9.48C28.688 9.032 29.632 8.808 30.672 8.808ZM30.672 10.8C30.048 10.8 29.48 10.936 28.968 11.208C28.472 11.464 28.08 11.832 27.792 12.312C27.52 12.792 27.384 13.336 27.384 13.944C27.384 14.584 27.52 15.144 27.792 15.624C28.08 16.088 28.472 16.456 28.968 16.728C29.48 16.984 30.048 17.112 30.672 17.112C31.28 17.112 31.832 16.984 32.328 16.728C32.824 16.456 33.208 16.088 33.48 15.624C33.768 15.144 33.912 14.584 33.912 13.944C33.912 13.336 33.768 12.792 33.48 12.312C33.208 11.832 32.824 11.464 32.328 11.208C31.848 10.936 31.296 10.8 30.672 10.8ZM62.4006 7.584V19.2H60.0486V7.584H62.4006ZM65.4486 12.48V14.424H61.4406V12.48H65.4486ZM62.4006 20.208V25.176H51.0966V27.504H48.7926V23.52H60.0726V21.96H48.7206V20.208H62.4006ZM63.1206 26.88V28.68H48.7926V26.88H63.1206ZM58.3926 9.408V11.208H45.8886V9.408H58.3926ZM52.1286 12C53.6806 12 54.9286 12.312 55.8726 12.936C56.8166 13.56 57.2886 14.408 57.2886 15.48C57.2886 16.552 56.8166 17.4 55.8726 18.024C54.9286 18.632 53.6806 18.936 52.1286 18.936C50.5766 18.936 49.3366 18.624 48.4086 18C47.4806 17.376 47.0166 16.536 47.0166 15.48C47.0166 14.408 47.4806 13.56 48.4086 12.936C49.3366 12.312 50.5766 12 52.1286 12ZM52.1286 13.704C51.2486 13.704 50.5526 13.864 50.0406 14.184C49.5286 14.488 49.2726 14.92 49.2726 15.48C49.2726 16.04 49.5286 16.48 50.0406 16.8C50.5526 17.104 51.2486 17.256 52.1286 17.256C53.0246 17.256 53.7286 17.104 54.2406 16.8C54.7526 16.48 55.0086 16.04 55.0086 15.48C55.0086 14.92 54.7526 14.488 54.2406 14.184C53.7286 13.864 53.0246 13.704 52.1286 13.704ZM53.3286 7.416V10.68H50.9526V7.416H53.3286ZM92.0284 15.936V17.904H88.1884V15.936H92.0284ZM88.8124 7.608V28.872H86.4364V7.608H88.8124ZM75.4684 9.696V22.848H73.1404V9.696H75.4684ZM74.8684 21.6C76.5164 21.6 78.1484 21.528 79.7644 21.384C81.3964 21.24 83.0364 21 84.6844 20.664L84.9484 22.608C83.2684 22.96 81.6044 23.208 79.9564 23.352C78.3244 23.48 76.6284 23.544 74.8684 23.544H73.1404V21.6H74.8684ZM110.413 14.592V16.488H95.7729V14.592H110.413ZM112.573 19.392V21.312H93.3249V19.392H112.573ZM104.029 20.472V28.896H101.701V20.472H104.029ZM98.1249 8.664V15.48H95.7729V8.664H98.1249ZM131.798 7.632V28.872H129.446V7.632H131.798ZM125.534 9.864C125.534 12.056 125.206 14.08 124.55 15.936C123.91 17.776 122.862 19.472 121.406 21.024C119.966 22.56 118.062 23.904 115.694 25.056L114.47 23.184C116.502 22.208 118.158 21.08 119.438 19.8C120.718 18.52 121.662 17.096 122.27 15.528C122.878 13.944 123.182 12.192 123.182 10.272V9.864H125.534ZM124.262 9.864V11.784H115.478V9.864H124.262Z" fill="#231815"/>
<rect x="1" y="164.5" width="13" height="13" rx="6.5" fill="#79A15A"/>
<path d="M32.208 162.408V165.912C32.208 167.624 31.96 169.256 31.464 170.808C30.968 172.344 30.256 173.704 29.328 174.888C28.4 176.056 27.32 176.944 26.088 177.552L24.672 175.608C25.76 175.096 26.728 174.344 27.576 173.352C28.424 172.344 29.08 171.192 29.544 169.896C30.024 168.6 30.264 167.272 30.264 165.912V162.408H32.208ZM32.64 162.408V165.912C32.64 167.224 32.864 168.504 33.312 169.752C33.776 170.984 34.424 172.08 35.256 173.04C36.104 174 37.072 174.728 38.16 175.224L36.768 177.12C35.552 176.544 34.48 175.688 33.552 174.552C32.64 173.416 31.936 172.104 31.44 170.616C30.944 169.128 30.696 167.56 30.696 165.912V162.408H32.64ZM42.288 160.608V181.896H39.936V160.608H42.288ZM65.5206 168.936V170.904H61.6806V168.936H65.5206ZM62.3046 160.608V181.872H59.9286V160.608H62.3046ZM48.9606 162.696V175.848H46.6326V162.696H48.9606ZM48.3606 174.6C50.0086 174.6 51.6406 174.528 53.2566 174.384C54.8886 174.24 56.5286 174 58.1766 173.664L58.4406 175.608C56.7606 175.96 55.0966 176.208 53.4486 176.352C51.8166 176.48 50.1206 176.544 48.3606 176.544H46.6326V174.6H48.3606ZM84.3131 160.608V181.896H81.9611V160.608H84.3131ZM69.8171 174.888C71.8171 174.888 73.6171 174.84 75.2171 174.744C76.8171 174.648 78.4651 174.456 80.1611 174.168L80.4011 176.064C78.6731 176.368 76.9931 176.576 75.3611 176.688C73.7451 176.784 71.8971 176.832 69.8171 176.832H68.0171V174.888H69.8171ZM77.8571 162.552V170.376H70.3931V175.632H68.0171V168.456H75.4811V164.448H67.9691V162.552H77.8571ZM98.5457 172.584V177.696H96.2177V172.584H98.5457ZM97.3937 161.88C98.8977 161.88 100.234 162.12 101.402 162.6C102.586 163.064 103.514 163.728 104.186 164.592C104.858 165.44 105.194 166.432 105.194 167.568C105.194 168.704 104.858 169.704 104.186 170.568C103.514 171.416 102.586 172.072 101.402 172.536C100.234 173 98.8977 173.232 97.3937 173.232C95.8897 173.232 94.5457 173 93.3617 172.536C92.1777 172.072 91.2497 171.408 90.5777 170.544C89.9217 169.68 89.5937 168.688 89.5937 167.568C89.5937 166.432 89.9217 165.44 90.5777 164.592C91.2497 163.728 92.1777 163.064 93.3617 162.6C94.5457 162.12 95.8897 161.88 97.3937 161.88ZM97.3697 163.752C96.3137 163.752 95.3697 163.912 94.5377 164.232C93.7057 164.552 93.0577 165 92.5937 165.576C92.1297 166.136 91.8977 166.8 91.8977 167.568C91.8977 168.32 92.1297 168.984 92.5937 169.56C93.0577 170.136 93.7057 170.584 94.5377 170.904C95.3697 171.208 96.3137 171.36 97.3697 171.36C98.4417 171.36 99.3937 171.208 100.226 170.904C101.058 170.584 101.706 170.136 102.17 169.56C102.65 168.984 102.89 168.32 102.89 167.568C102.89 166.8 102.65 166.136 102.17 165.576C101.706 165 101.058 164.552 100.226 164.232C99.3937 163.912 98.4417 163.752 97.3697 163.752ZM107.042 177.312V179.232H87.7937V177.312H107.042ZM130.526 164.208V166.104H125.174V164.208H130.526ZM131.87 160.632V171.528H129.518V160.632H131.87ZM131.87 172.536V177.864H120.422V180.888H118.094V176.136H129.542V174.384H118.07V172.536H131.87ZM132.59 179.76V181.608H118.094V179.76H132.59ZM121.334 161.304V163.104C121.334 164.432 121.102 165.664 120.638 166.8C120.174 167.92 119.502 168.896 118.622 169.728C117.742 170.56 116.686 171.184 115.454 171.6L114.229 169.752C115.302 169.4 116.23 168.896 117.014 168.24C117.798 167.568 118.39 166.792 118.79 165.912C119.206 165.016 119.414 164.08 119.414 163.104V161.304H121.334ZM121.766 161.304V163.104C121.766 164 121.966 164.864 122.366 165.696C122.766 166.512 123.342 167.24 124.094 167.88C124.862 168.52 125.758 169.008 126.782 169.344L125.582 171.168C124.398 170.752 123.374 170.152 122.51 169.368C121.646 168.568 120.982 167.632 120.518 166.56C120.07 165.488 119.846 164.336 119.846 163.104V161.304H121.766ZM151.166 166.008V167.928H146.654V166.008H151.166ZM152.846 160.632V173.256H150.494V160.632H152.846ZM145.79 173.856C147.998 173.856 149.734 174.216 150.998 174.936C152.278 175.64 152.918 176.616 152.918 177.864C152.918 179.128 152.278 180.112 150.998 180.816C149.734 181.52 147.998 181.872 145.79 181.872C143.55 181.872 141.79 181.52 140.51 180.816C139.246 180.112 138.614 179.128 138.614 177.864C138.614 177.032 138.902 176.32 139.478 175.728C140.054 175.12 140.878 174.656 141.95 174.336C143.038 174.016 144.318 173.856 145.79 173.856ZM145.79 175.656C144.782 175.656 143.918 175.744 143.198 175.92C142.478 176.096 141.926 176.352 141.542 176.688C141.174 177.008 140.99 177.4 140.99 177.864C140.99 178.328 141.174 178.728 141.542 179.064C141.926 179.384 142.478 179.632 143.198 179.808C143.918 179.968 144.782 180.048 145.79 180.048C146.782 180.048 147.638 179.968 148.358 179.808C149.078 179.632 149.63 179.384 150.014 179.064C150.398 178.728 150.59 178.328 150.59 177.864C150.59 177.4 150.398 177.008 150.014 176.688C149.63 176.352 149.078 176.096 148.358 175.92C147.638 175.744 146.782 175.656 145.79 175.656ZM142.406 162.768V164.352C142.406 165.68 142.166 166.928 141.686 168.096C141.206 169.264 140.518 170.288 139.622 171.168C138.742 172.048 137.686 172.712 136.454 173.16L135.278 171.288C136.35 170.904 137.278 170.36 138.062 169.656C138.846 168.936 139.446 168.12 139.862 167.208C140.278 166.28 140.486 165.328 140.486 164.352V162.768H142.406ZM142.862 162.768V164.352C142.862 165.248 143.054 166.12 143.438 166.968C143.838 167.8 144.422 168.544 145.19 169.2C145.958 169.856 146.854 170.36 147.878 170.712L146.702 172.584C145.502 172.168 144.47 171.544 143.606 170.712C142.742 169.88 142.086 168.92 141.638 167.832C141.19 166.728 140.966 165.568 140.966 164.352V162.768H142.862ZM147.326 162.096V163.992H135.95V162.096H147.326Z" fill="#231815"/>
<path d="M1 58C1 52.4772 5.47715 48 11 48H216V90H1V58Z" fill="#EBEBEB"/>
<path d="M1 58C1 52.4772 5.47715 48 11 48H216V90H1V58Z" stroke="#D0D0D0" stroke-width="2"/>
<path d="M104.947 58.132V70.108H102.595V58.132H104.947ZM107.971 63.076V65.044H104.299V63.076H107.971ZM99.1394 59.428C99.1394 62.148 98.2754 64.452 96.5474 66.34C94.8194 68.228 92.3714 69.588 89.2034 70.42L88.2914 68.548C90.9634 67.844 93.0194 66.796 94.4594 65.404C95.9154 63.996 96.6434 62.372 96.6434 60.532V59.428H99.1394ZM97.9874 59.428V61.324H89.2514V59.428H97.9874ZM104.947 71.02V79.084H91.4354V71.02H104.947ZM93.7634 72.916V77.212H102.619V72.916H93.7634ZM128.564 68.62V70.492H109.364V68.62H128.564ZM120.14 65.044V69.316H117.788V65.044H120.14ZM126.26 72.34V79.516H123.908V74.212H111.5V72.34H126.26ZM126.404 64.444V66.34H111.764V64.444H126.404ZM126.212 58.996V60.892H114.092V65.428H111.764V58.996H126.212Z" fill="#231815"/>
<rect x="216" y="48" width="163" height="42" fill="white"/>
<rect x="216" y="48" width="163" height="42" stroke="#D0D0D0" stroke-width="2"/>
<rect x="379" y="48" width="215" height="42" fill="#EBEBEB"/>
<rect x="379" y="48" width="215" height="42" stroke="#D0D0D0" stroke-width="2"/>
<path d="M473.587 61.108V61.396C473.587 62.66 473.051 63.748 471.979 64.66C470.923 65.572 469.491 66.172 467.683 66.46L466.867 64.78C467.843 64.652 468.699 64.42 469.435 64.084C470.187 63.748 470.771 63.348 471.187 62.884C471.603 62.42 471.811 61.924 471.811 61.396V61.108H473.587ZM474.139 61.108V61.396C474.139 61.892 474.339 62.364 474.739 62.812C475.155 63.244 475.731 63.612 476.467 63.916C477.203 64.22 478.051 64.444 479.011 64.588L478.243 66.268C476.435 65.996 475.003 65.42 473.947 64.54C472.891 63.66 472.363 62.612 472.363 61.396V61.108H474.139ZM478.555 59.788V61.516H467.371V59.788H478.555ZM474.163 65.596V68.524H471.787V65.596H474.163ZM474.139 58.084V60.652H471.787V58.084H474.139ZM482.971 70.9V75.772H471.403V78.196H469.099V74.14H480.667V72.628H469.051V70.9H482.971ZM483.763 77.404V79.18H469.099V77.404H483.763ZM482.971 58.132V70.036H480.619V58.132H482.971ZM485.947 62.98V64.924H482.083V62.98H485.947ZM466.339 67.732C468.851 67.732 471.187 67.7 473.347 67.636C475.507 67.556 477.531 67.396 479.419 67.156L479.611 68.74C477.659 69.06 475.627 69.268 473.515 69.364C471.419 69.46 469.123 69.508 466.627 69.508L466.339 67.732ZM503.3 61.108V63.004H496.916V61.108H503.3ZM503.3 65.908V67.828H496.916V65.908H503.3ZM493.172 59.332C494.196 59.332 495.124 59.556 495.956 60.004C496.804 60.436 497.468 61.044 497.948 61.828C498.428 62.596 498.668 63.476 498.668 64.468C498.668 65.428 498.428 66.3 497.948 67.084C497.468 67.868 496.804 68.476 495.956 68.908C495.124 69.34 494.196 69.556 493.172 69.556C492.132 69.556 491.188 69.34 490.34 68.908C489.508 68.476 488.852 67.876 488.372 67.108C487.892 66.324 487.652 65.444 487.652 64.468C487.652 63.476 487.892 62.596 488.372 61.828C488.852 61.044 489.508 60.436 490.34 60.004C491.188 59.556 492.132 59.332 493.172 59.332ZM493.172 61.348C492.548 61.348 491.98 61.476 491.468 61.732C490.972 61.988 490.58 62.356 490.292 62.836C490.02 63.3 489.884 63.836 489.884 64.444C489.884 65.052 490.02 65.596 490.292 66.076C490.58 66.54 490.972 66.9 491.468 67.156C491.98 67.412 492.548 67.54 493.172 67.54C493.796 67.54 494.356 67.412 494.852 67.156C495.348 66.9 495.732 66.54 496.004 66.076C496.276 65.596 496.412 65.052 496.412 64.444C496.412 63.836 496.276 63.3 496.004 62.836C495.732 62.356 495.348 61.988 494.852 61.732C494.356 61.476 493.796 61.348 493.172 61.348ZM504.932 58.132V70.66H502.58V58.132H504.932ZM497.876 71.116C500.084 71.116 501.82 71.484 503.084 72.22C504.364 72.94 505.004 73.948 505.004 75.244C505.004 76.54 504.364 77.548 503.084 78.268C501.82 78.988 500.076 79.348 497.852 79.348C495.644 79.348 493.9 78.988 492.62 78.268C491.34 77.548 490.7 76.54 490.7 75.244C490.7 73.948 491.34 72.94 492.62 72.22C493.9 71.484 495.652 71.116 497.876 71.116ZM497.876 72.964C496.852 72.964 495.98 73.052 495.26 73.228C494.54 73.404 493.988 73.668 493.604 74.02C493.22 74.356 493.028 74.764 493.028 75.244C493.028 75.724 493.22 76.14 493.604 76.492C493.988 76.828 494.54 77.084 495.26 77.26C495.98 77.436 496.852 77.524 497.876 77.524C498.884 77.524 499.748 77.436 500.468 77.26C501.188 77.084 501.732 76.828 502.1 76.492C502.484 76.14 502.676 75.724 502.676 75.244C502.676 74.764 502.484 74.356 502.1 74.02C501.732 73.668 501.188 73.404 500.468 73.228C499.748 73.052 498.884 72.964 497.876 72.964Z" fill="#231815"/>
<path d="M594 48H747C752.523 48 757 52.4772 757 58V90H594V48Z" fill="white"/>
<path d="M594 48H747C752.523 48 757 52.4772 757 58V90H594V48Z" stroke="#D0D0D0" stroke-width="2"/>
<path d="M1 90H216V132H11C5.47716 132 1 127.523 1 122V90Z" fill="#EBEBEB"/>
<path d="M1 90H216V132H11C5.47716 132 1 127.523 1 122V90Z" stroke="#D0D0D0" stroke-width="2"/>
<path d="M79.0054 110.116V112.036H59.8294V110.116H79.0054ZM76.7974 106.396V108.292H62.2054V106.396H76.7974ZM76.6534 100.876V102.796H64.5334V107.308H62.2054V100.876H76.6534ZM69.3814 113.644C71.6694 113.644 73.4534 113.98 74.7334 114.652C76.0294 115.324 76.6774 116.276 76.6774 117.508C76.6774 118.724 76.0294 119.668 74.7334 120.34C73.4534 121.028 71.6694 121.372 69.3814 121.372C67.0774 121.372 65.2774 121.036 63.9814 120.364C62.7014 119.692 62.0614 118.74 62.0614 117.508C62.0614 116.276 62.7014 115.324 63.9814 114.652C65.2774 113.98 67.0774 113.644 69.3814 113.644ZM69.3814 115.468C67.7974 115.468 66.5734 115.644 65.7094 115.996C64.8614 116.348 64.4374 116.852 64.4374 117.508C64.4374 118.164 64.8614 118.668 65.7094 119.02C66.5734 119.356 67.7974 119.524 69.3814 119.524C70.9654 119.524 72.1814 119.356 73.0294 119.02C73.8774 118.668 74.3014 118.164 74.3014 117.508C74.3014 116.852 73.8694 116.348 73.0054 115.996C72.1574 115.644 70.9494 115.468 69.3814 115.468ZM87.766 102.436V104.02C87.766 105.348 87.526 106.588 87.046 107.74C86.582 108.892 85.902 109.9 85.006 110.764C84.11 111.628 83.046 112.268 81.814 112.684L80.614 110.836C81.702 110.468 82.638 109.932 83.422 109.228C84.206 108.524 84.806 107.724 85.222 106.828C85.638 105.932 85.846 104.996 85.846 104.02V102.436H87.766ZM88.198 102.436V103.996C88.198 104.892 88.39 105.748 88.774 106.564C89.174 107.364 89.75 108.084 90.502 108.724C91.254 109.364 92.166 109.852 93.238 110.188L92.086 112.012C90.886 111.628 89.846 111.044 88.966 110.26C88.086 109.46 87.414 108.524 86.95 107.452C86.502 106.38 86.278 105.228 86.278 103.996V102.436H88.198ZM92.686 101.644V103.564H81.286V101.644H92.686ZM97.342 100.132V112.852H94.99V100.132H97.342ZM100.366 105.34V107.284H96.694V105.34H100.366ZM90.526 113.356C91.966 113.356 93.214 113.516 94.27 113.836C95.342 114.14 96.158 114.596 96.718 115.204C97.294 115.796 97.582 116.508 97.582 117.34C97.582 118.604 96.95 119.588 95.686 120.292C94.438 120.996 92.718 121.348 90.526 121.348C89.086 121.348 87.83 121.188 86.758 120.868C85.702 120.564 84.886 120.108 84.31 119.5C83.75 118.892 83.47 118.172 83.47 117.34C83.47 116.508 83.75 115.796 84.31 115.204C84.886 114.596 85.702 114.14 86.758 113.836C87.83 113.516 89.086 113.356 90.526 113.356ZM90.526 115.228C89.534 115.228 88.678 115.308 87.958 115.468C87.254 115.628 86.71 115.868 86.326 116.188C85.958 116.508 85.774 116.892 85.774 117.34C85.774 118.028 86.19 118.564 87.022 118.948C87.854 119.332 89.022 119.524 90.526 119.524C92.014 119.524 93.174 119.332 94.006 118.948C94.838 118.564 95.254 118.028 95.254 117.34C95.254 116.892 95.07 116.508 94.702 116.188C94.334 115.868 93.79 115.628 93.07 115.468C92.366 115.308 91.518 115.228 90.526 115.228ZM119.255 100.156V115.54H116.879V100.156H119.255ZM119.855 119.02V120.94H105.431V119.02H119.855ZM107.759 114.004V119.74H105.431V114.004H107.759ZM107.783 101.572C108.839 101.572 109.791 101.796 110.639 102.244C111.503 102.692 112.175 103.324 112.655 104.14C113.151 104.94 113.399 105.844 113.399 106.852C113.399 107.86 113.151 108.772 112.655 109.588C112.175 110.388 111.503 111.02 110.639 111.484C109.791 111.932 108.839 112.156 107.783 112.156C106.743 112.156 105.791 111.932 104.927 111.484C104.063 111.02 103.383 110.388 102.887 109.588C102.407 108.772 102.167 107.86 102.167 106.852C102.167 105.844 102.407 104.94 102.887 104.14C103.383 103.324 104.063 102.692 104.927 102.244C105.791 101.796 106.743 101.572 107.783 101.572ZM107.783 103.612C107.159 103.612 106.591 103.748 106.079 104.02C105.567 104.292 105.167 104.676 104.879 105.172C104.591 105.652 104.447 106.212 104.447 106.852C104.447 107.492 104.591 108.06 104.879 108.556C105.183 109.036 105.583 109.412 106.079 109.684C106.591 109.956 107.159 110.092 107.783 110.092C108.407 110.092 108.975 109.956 109.487 109.684C109.999 109.412 110.399 109.036 110.687 108.556C110.975 108.06 111.119 107.492 111.119 106.852C111.119 106.212 110.975 105.652 110.687 105.172C110.399 104.676 109.999 104.292 109.487 104.02C108.975 103.748 108.407 103.612 107.783 103.612ZM133.487 110.236V113.404H131.135V110.236H133.487ZM141.911 108.892V110.788H122.735V108.892H141.911ZM139.439 100.828V107.356H125.183V100.828H139.439ZM127.487 102.676V105.508H137.135V102.676H127.487ZM139.511 112.564V117.58H127.367V119.908H125.063V115.9H137.183V114.34H124.991V112.564H139.511ZM140.111 119.38V121.18H125.063V119.38H140.111ZM155.675 119.548L153.395 119.524V104.62L150.467 106.372L149.435 104.5L153.419 102.148H155.675V119.548Z" fill="#231815"/>
<rect x="216" y="90" width="163" height="42" fill="white"/>
<rect x="216" y="90" width="163" height="42" stroke="#D0D0D0" stroke-width="2"/>
<rect x="379" y="90" width="215" height="42" fill="#EBEBEB"/>
<rect x="379" y="90" width="215" height="42" stroke="#D0D0D0" stroke-width="2"/>
<path d="M455.002 110.116V112.036H435.826V110.116H455.002ZM452.794 106.396V108.292H438.202V106.396H452.794ZM452.65 100.876V102.796H440.53V107.308H438.202V100.876H452.65ZM445.378 113.644C447.666 113.644 449.45 113.98 450.73 114.652C452.026 115.324 452.674 116.276 452.674 117.508C452.674 118.724 452.026 119.668 450.73 120.34C449.45 121.028 447.666 121.372 445.378 121.372C443.074 121.372 441.274 121.036 439.978 120.364C438.698 119.692 438.058 118.74 438.058 117.508C438.058 116.276 438.698 115.324 439.978 114.652C441.274 113.98 443.074 113.644 445.378 113.644ZM445.378 115.468C443.794 115.468 442.57 115.644 441.706 115.996C440.858 116.348 440.434 116.852 440.434 117.508C440.434 118.164 440.858 118.668 441.706 119.02C442.57 119.356 443.794 119.524 445.378 119.524C446.962 119.524 448.178 119.356 449.026 119.02C449.874 118.668 450.298 118.164 450.298 117.508C450.298 116.852 449.866 116.348 449.002 115.996C448.154 115.644 446.946 115.468 445.378 115.468ZM463.762 102.436V104.02C463.762 105.348 463.522 106.588 463.042 107.74C462.578 108.892 461.898 109.9 461.002 110.764C460.106 111.628 459.042 112.268 457.81 112.684L456.61 110.836C457.698 110.468 458.634 109.932 459.418 109.228C460.202 108.524 460.802 107.724 461.218 106.828C461.634 105.932 461.842 104.996 461.842 104.02V102.436H463.762ZM464.194 102.436V103.996C464.194 104.892 464.386 105.748 464.77 106.564C465.17 107.364 465.746 108.084 466.498 108.724C467.25 109.364 468.162 109.852 469.234 110.188L468.082 112.012C466.882 111.628 465.842 111.044 464.962 110.26C464.082 109.46 463.41 108.524 462.946 107.452C462.498 106.38 462.274 105.228 462.274 103.996V102.436H464.194ZM468.682 101.644V103.564H457.282V101.644H468.682ZM473.338 100.132V112.852H470.986V100.132H473.338ZM476.362 105.34V107.284H472.69V105.34H476.362ZM466.522 113.356C467.962 113.356 469.21 113.516 470.266 113.836C471.338 114.14 472.154 114.596 472.714 115.204C473.29 115.796 473.578 116.508 473.578 117.34C473.578 118.604 472.946 119.588 471.682 120.292C470.434 120.996 468.714 121.348 466.522 121.348C465.082 121.348 463.826 121.188 462.754 120.868C461.698 120.564 460.882 120.108 460.306 119.5C459.746 118.892 459.466 118.172 459.466 117.34C459.466 116.508 459.746 115.796 460.306 115.204C460.882 114.596 461.698 114.14 462.754 113.836C463.826 113.516 465.082 113.356 466.522 113.356ZM466.522 115.228C465.53 115.228 464.674 115.308 463.954 115.468C463.25 115.628 462.706 115.868 462.322 116.188C461.954 116.508 461.77 116.892 461.77 117.34C461.77 118.028 462.186 118.564 463.018 118.948C463.85 119.332 465.018 119.524 466.522 119.524C468.01 119.524 469.17 119.332 470.002 118.948C470.834 118.564 471.25 118.028 471.25 117.34C471.25 116.892 471.066 116.508 470.698 116.188C470.33 115.868 469.786 115.628 469.066 115.468C468.362 115.308 467.514 115.228 466.522 115.228ZM495.251 100.156V115.54H492.875V100.156H495.251ZM495.851 119.02V120.94H481.427V119.02H495.851ZM483.755 114.004V119.74H481.427V114.004H483.755ZM483.779 101.572C484.835 101.572 485.787 101.796 486.635 102.244C487.499 102.692 488.171 103.324 488.651 104.14C489.147 104.94 489.395 105.844 489.395 106.852C489.395 107.86 489.147 108.772 488.651 109.588C488.171 110.388 487.499 111.02 486.635 111.484C485.787 111.932 484.835 112.156 483.779 112.156C482.739 112.156 481.787 111.932 480.923 111.484C480.059 111.02 479.379 110.388 478.883 109.588C478.403 108.772 478.163 107.86 478.163 106.852C478.163 105.844 478.403 104.94 478.883 104.14C479.379 103.324 480.059 102.692 480.923 102.244C481.787 101.796 482.739 101.572 483.779 101.572ZM483.779 103.612C483.155 103.612 482.587 103.748 482.075 104.02C481.563 104.292 481.163 104.676 480.875 105.172C480.587 105.652 480.443 106.212 480.443 106.852C480.443 107.492 480.587 108.06 480.875 108.556C481.179 109.036 481.579 109.412 482.075 109.684C482.587 109.956 483.155 110.092 483.779 110.092C484.403 110.092 484.971 109.956 485.483 109.684C485.995 109.412 486.395 109.036 486.683 108.556C486.971 108.06 487.115 107.492 487.115 106.852C487.115 106.212 486.971 105.652 486.683 105.172C486.395 104.676 485.995 104.292 485.483 104.02C484.971 103.748 484.403 103.612 483.779 103.612ZM509.483 110.236V113.404H507.131V110.236H509.483ZM517.907 108.892V110.788H498.731V108.892H517.907ZM515.435 100.828V107.356H501.179V100.828H515.435ZM503.483 102.676V105.508H513.131V102.676H503.483ZM515.507 112.564V117.58H503.363V119.908H501.059V115.9H513.179V114.34H500.987V112.564H515.507ZM516.107 119.38V121.18H501.059V119.38H516.107ZM525.863 117.556C526.263 117.172 526.639 116.828 526.991 116.524C527.343 116.204 527.727 115.852 528.143 115.468C529.487 114.252 530.559 113.236 531.359 112.42C532.175 111.604 532.863 110.772 533.423 109.924C533.983 109.06 534.263 108.26 534.263 107.524C534.263 106.836 534.127 106.228 533.855 105.7C533.599 105.172 533.231 104.756 532.751 104.452C532.271 104.148 531.719 103.996 531.095 103.996C530.391 103.996 529.719 104.236 529.079 104.716C528.455 105.18 527.975 105.772 527.639 106.492L525.623 105.628C526.087 104.54 526.831 103.652 527.855 102.964C528.895 102.276 529.975 101.932 531.095 101.932C532.167 101.932 533.111 102.172 533.927 102.652C534.743 103.116 535.383 103.772 535.847 104.62C536.311 105.468 536.543 106.436 536.543 107.524C536.543 108.58 536.215 109.652 535.559 110.74C534.903 111.812 534.119 112.812 533.207 113.74C532.295 114.652 531.111 115.748 529.655 117.028C528.823 117.748 528.071 118.42 527.399 119.044L525.863 117.556ZM525.863 117.556H536.831V119.548H526.103L525.863 117.556Z" fill="#231815"/>
<path d="M594 90H757V122C757 127.523 752.523 132 747 132H594V90Z" fill="white"/>
<path d="M594 90H757V122C757 127.523 752.523 132 747 132H594V90Z" stroke="#D0D0D0" stroke-width="2"/>
<path d="M1 211C1 205.477 5.47715 201 11 201H216V243H1V211Z" fill="#EBEBEB"/>
<path d="M1 211C1 205.477 5.47715 201 11 201H216V243H1V211Z" stroke="#D0D0D0" stroke-width="2"/>
<path d="M95.2994 212.26V214.324C95.2994 215.7 95.0674 216.988 94.6034 218.188C94.1554 219.388 93.4914 220.436 92.6114 221.332C91.7314 222.212 90.6834 222.884 89.4674 223.348L88.1954 221.476C89.2834 221.092 90.2194 220.54 91.0034 219.82C91.7874 219.084 92.3794 218.244 92.7794 217.3C93.1794 216.356 93.3794 215.364 93.3794 214.324V212.26H95.2994ZM95.7074 212.26V214.516C95.7074 215.428 95.9074 216.308 96.3074 217.156C96.7074 218.004 97.2834 218.756 98.0354 219.412C98.7874 220.068 99.6834 220.564 100.723 220.9L99.4994 222.724C98.3314 222.324 97.3154 221.716 96.4514 220.9C95.6034 220.084 94.9474 219.132 94.4834 218.044C94.0354 216.94 93.8114 215.764 93.8114 214.516V212.26H95.7074ZM104.947 211.132V223.9H102.595V211.132H104.947ZM107.971 216.412V218.38H104.299V216.412H107.971ZM98.1314 224.452C100.339 224.452 102.067 224.804 103.315 225.508C104.563 226.196 105.187 227.156 105.187 228.388C105.187 229.22 104.899 229.932 104.323 230.524C103.763 231.116 102.955 231.564 101.899 231.868C100.843 232.188 99.5874 232.348 98.1314 232.348C96.6754 232.348 95.4194 232.188 94.3634 231.868C93.3074 231.564 92.4914 231.116 91.9154 230.524C91.3554 229.932 91.0754 229.22 91.0754 228.388C91.0754 227.572 91.3554 226.868 91.9154 226.276C92.4914 225.684 93.3074 225.236 94.3634 224.932C95.4194 224.612 96.6754 224.452 98.1314 224.452ZM98.1314 226.276C96.6274 226.276 95.4594 226.46 94.6274 226.828C93.7954 227.196 93.3794 227.716 93.3794 228.388C93.3794 229.06 93.7954 229.588 94.6274 229.972C95.4594 230.34 96.6274 230.524 98.1314 230.524C99.6354 230.524 100.795 230.34 101.611 229.972C102.443 229.588 102.859 229.06 102.859 228.388C102.859 227.716 102.443 227.196 101.611 226.828C100.795 226.46 99.6354 226.276 98.1314 226.276ZM125.948 211.156V225.508H123.596V211.156H125.948ZM128.924 217.396V219.34H125.06V217.396H128.924ZM119.036 225.772C121.308 225.772 123.052 226.06 124.268 226.636C125.5 227.196 126.116 228.012 126.116 229.084C126.116 230.14 125.5 230.948 124.268 231.508C123.036 232.084 121.292 232.372 119.036 232.372C116.796 232.372 115.06 232.084 113.828 231.508C112.612 230.948 112.004 230.14 112.004 229.084C112.004 228.012 112.612 227.196 113.828 226.636C115.044 226.06 116.78 225.772 119.036 225.772ZM119.06 227.5C117.508 227.5 116.34 227.636 115.556 227.908C114.772 228.164 114.38 228.548 114.38 229.06C114.38 229.572 114.772 229.964 115.556 230.236C116.34 230.508 117.5 230.644 119.036 230.644C120.572 230.644 121.74 230.508 122.54 230.236C123.34 229.964 123.74 229.572 123.74 229.06C123.74 228.548 123.34 228.164 122.54 227.908C121.756 227.636 120.596 227.5 119.06 227.5ZM116.996 220.684V223.66H114.644V220.684H116.996ZM109.196 222.892C111.74 222.892 114.108 222.852 116.3 222.772C118.492 222.692 120.548 222.516 122.468 222.244L122.636 223.852C120.652 224.22 118.588 224.46 116.444 224.572C114.316 224.668 111.996 224.716 109.484 224.716L109.196 222.892ZM121.868 212.836V214.588H109.724V212.836H121.868ZM115.796 215.332C117.332 215.332 118.556 215.604 119.468 216.148C120.38 216.676 120.836 217.404 120.836 218.332C120.836 219.276 120.38 220.02 119.468 220.564C118.556 221.092 117.332 221.356 115.796 221.356C114.244 221.356 113.02 221.092 112.124 220.564C111.228 220.02 110.78 219.276 110.78 218.332C110.78 217.404 111.228 216.676 112.124 216.148C113.036 215.604 114.26 215.332 115.796 215.332ZM115.796 216.892C114.932 216.892 114.252 217.028 113.756 217.3C113.26 217.556 113.012 217.9 113.012 218.332C113.012 218.796 113.26 219.156 113.756 219.412C114.252 219.668 114.932 219.796 115.796 219.796C116.676 219.796 117.364 219.668 117.86 219.412C118.356 219.156 118.604 218.796 118.604 218.332C118.604 217.9 118.348 217.556 117.836 217.3C117.34 217.028 116.66 216.892 115.796 216.892ZM116.996 210.964V213.556H114.644V210.964H116.996Z" fill="#231815"/>
<path d="M216 201H747C752.523 201 757 205.477 757 211V243H216V201Z" fill="white"/>
<path d="M216 201H747C752.523 201 757 205.477 757 211V243H216V201Z" stroke="#D0D0D0" stroke-width="2"/>
<path d="M1 243H216V285H11C5.47716 285 1 280.523 1 275V243Z" fill="#EBEBEB"/>
<path d="M1 243H216V285H11C5.47716 285 1 280.523 1 275V243Z" stroke="#D0D0D0" stroke-width="2"/>
<path d="M106.483 253.132V274.372H104.227V253.132H106.483ZM104.803 261.508V263.452H100.915V261.508H104.803ZM101.635 253.564V273.292H99.4514V253.564H101.635ZM90.4994 267.34C92.0994 267.34 93.4674 267.3 94.6034 267.22C95.7394 267.14 96.8834 266.988 98.0354 266.764L98.2754 268.708C97.0594 268.948 95.8674 269.108 94.6994 269.188C93.5474 269.268 92.1474 269.308 90.4994 269.308H89.1074V267.34H90.4994ZM96.9314 255.676V257.596H91.4114V268.252H89.1074V255.676H96.9314ZM116.324 254.908V258.412C116.324 260.044 116.084 261.628 115.604 263.164C115.124 264.684 114.436 266.036 113.54 267.22C112.66 268.404 111.628 269.3 110.444 269.908L109.028 267.988C110.084 267.476 111.02 266.716 111.836 265.708C112.668 264.7 113.3 263.564 113.732 262.3C114.18 261.02 114.404 259.724 114.404 258.412V254.908H116.324ZM116.732 254.908V258.412C116.732 259.676 116.948 260.924 117.38 262.156C117.828 263.372 118.444 264.46 119.228 265.42C120.012 266.38 120.924 267.116 121.964 267.628L120.524 269.5C119.372 268.908 118.364 268.044 117.5 266.908C116.652 265.772 115.996 264.468 115.532 262.996C115.084 261.524 114.86 259.996 114.86 258.412V254.908H116.732ZM125.804 253.132V274.372H123.428V253.132H125.804ZM129.14 261.58V263.548H125.276V261.58H129.14Z" fill="#231815"/>
<path d="M216 243H757V275C757 280.523 752.523 285 747 285H216V243Z" fill="white"/>
<path d="M216 243H757V275C757 280.523 752.523 285 747 285H216V243Z" stroke="#D0D0D0" stroke-width="2"/>
</svg>
