<svg width="990" height="392" viewBox="0 0 990 392" fill="none" xmlns="http://www.w3.org/2000/svg">
<rect width="941" height="68" transform="translate(10 44)" fill="#EBB977"/>
<path d="M347.564 73.376H347.528C347.132 74.024 345.908 75.14 343.532 76.652C341.084 78.2 338.888 79.424 336.188 80.828L334.424 77.984C337.52 76.4 339.644 75.248 341.948 73.772C344.72 71.972 345.728 70.352 345.728 67.616V66.752H336.08V63.656H358.976V66.752H349.328V67.616C349.328 70.316 350.192 71.864 353.072 73.7C355.844 75.464 357.608 76.4 360.632 77.948L358.868 80.792C355.808 79.172 353.9 78.092 351.488 76.58C349.112 75.068 347.924 73.988 347.564 73.376ZM349.328 86.588H362.756V89.612H332.3V86.588H345.728V79.496H349.328V86.588ZM373.46 73.268H373.424C373.244 73.88 372.128 75.14 371.012 76.148C369.536 77.516 367.412 79.316 365.504 80.828L363.38 78.308C365.684 76.544 367.916 74.636 369.176 73.376C371.012 71.54 371.516 70.172 371.516 67.652V62.396H375.116V67.508C375.116 69.74 375.26 70.928 376.988 72.512C378.68 74.06 380.732 75.68 382.856 77.228L380.768 79.712C378.896 78.308 377.24 76.94 375.512 75.5C374.432 74.6 373.676 73.808 373.46 73.268ZM390.848 84.464H387.32V71.432H380.66V68.372H387.32V60.848H390.848V84.464ZM373.676 82.52V90.584H391.532V93.68H370.112V82.52H373.676ZM400.365 77.336V79.136C400.365 84.608 401.589 90.044 405.297 95.12H401.985C398.421 90.872 396.693 85.364 396.693 78.956V77.516C396.693 71.108 398.421 65.672 401.985 61.424H405.297C401.769 66.176 400.365 71.576 400.365 77.336ZM421.422 89.936H417.858V68.156L411.774 71.756L410.082 68.876L418.434 63.98H421.422V89.936ZM433.351 69.344L430.795 67.472C432.307 65.312 434.467 63.584 438.355 63.584C443.143 63.584 446.203 66.176 446.203 70.064V70.424C446.203 72.476 445.339 75.14 442.135 76.292C445.627 76.904 447.391 79.28 447.391 82.268V82.808C447.391 86.624 444.691 90.332 438.319 90.332C435.295 90.332 432.451 89.396 430.003 87.452L431.767 84.608C434.287 86.444 436.087 87.092 438.319 87.092C442.099 87.092 443.827 85.184 443.827 82.844V82.376C443.827 78.956 441.487 77.948 438.463 77.948H435.259V74.852H438.319C441.559 74.852 442.675 72.692 442.675 70.46V70.172C442.675 67.904 440.731 66.752 438.391 66.752C436.267 66.752 434.755 67.508 433.351 69.344ZM453.091 88.496L454.459 85.472C456.079 86.408 457.987 87.056 460.039 87.056C463.639 87.056 466.123 84.968 466.267 78.2C465.403 79.712 462.955 81.152 460.075 81.152C455.467 81.152 451.903 77.948 451.903 72.872V72.08C451.903 67.112 455.467 63.584 460.759 63.584C466.519 63.584 469.795 67.184 469.795 74.132V75.464C469.795 86.84 466.267 90.332 459.823 90.332C457.483 90.332 455.035 89.684 453.091 88.496ZM466.159 72.872V72.368C466.159 69.02 464.143 66.824 460.903 66.824C457.555 66.824 455.467 68.804 455.467 72.188V72.656C455.467 76.112 457.735 77.984 460.795 77.984C463.963 77.984 466.159 75.716 466.159 72.872ZM474.344 86.948L484.028 76.436C486.98 73.196 487.268 71.756 487.268 70.388V70.1C487.268 68.048 485.504 66.788 482.804 66.788C480.896 66.788 478.844 67.544 477.152 70.568L474.416 68.804C475.64 66.572 477.944 63.584 482.732 63.584C487.988 63.584 490.832 66.32 490.832 70.1V70.46C490.832 73.268 489.176 75.716 486.836 78.2L478.736 86.84H491.768V89.936H474.344V86.948ZM510.717 76.58C509.853 75.692 508.989 75.008 508.125 74.528C507.285 74.024 506.229 73.772 504.957 73.772C503.637 73.772 502.425 74.192 501.321 75.032C500.241 75.872 499.341 76.976 498.621 78.344L495.453 76.616C496.629 74.48 498.033 72.872 499.665 71.792C501.321 70.712 503.097 70.172 504.993 70.172C506.673 70.172 508.161 70.508 509.457 71.18C510.777 71.828 512.061 72.788 513.309 74.06C514.173 74.948 515.025 75.644 515.865 76.148C516.729 76.628 517.797 76.868 519.069 76.868C520.389 76.868 521.589 76.448 522.669 75.608C523.773 74.768 524.685 73.664 525.405 72.296L528.573 74.024C527.397 76.16 525.981 77.768 524.325 78.848C522.693 79.928 520.929 80.468 519.033 80.468C517.377 80.468 515.889 80.144 514.569 79.496C513.249 78.824 511.965 77.852 510.717 76.58ZM544.233 89.936H540.669V68.156L534.585 71.756L532.893 68.876L541.245 63.98H544.233V89.936ZM553.929 88.496L555.297 85.472C556.917 86.408 558.825 87.056 560.877 87.056C564.477 87.056 566.961 84.968 567.105 78.2C566.241 79.712 563.793 81.152 560.913 81.152C556.305 81.152 552.741 77.948 552.741 72.872V72.08C552.741 67.112 556.305 63.584 561.597 63.584C567.357 63.584 570.633 67.184 570.633 74.132V75.464C570.633 86.84 567.105 90.332 560.661 90.332C558.321 90.332 555.873 89.684 553.929 88.496ZM566.997 72.872V72.368C566.997 69.02 564.981 66.824 561.741 66.824C558.393 66.824 556.305 68.804 556.305 72.188V72.656C556.305 76.112 558.573 77.984 561.633 77.984C564.801 77.984 566.997 75.716 566.997 72.872ZM588.178 89.936H584.614V68.156L578.53 71.756L576.838 68.876L585.19 63.98H588.178V89.936ZM615.011 74.924V78.956C615.011 86.3 612.059 90.332 605.831 90.332C599.675 90.332 596.651 86.228 596.651 78.956V74.924C596.651 67.652 599.783 63.584 605.831 63.584C611.951 63.584 615.011 67.652 615.011 74.924ZM611.375 78.992V74.888C611.375 68.552 608.999 66.896 605.831 66.896C602.807 66.896 600.287 68.588 600.287 74.888V78.992C600.287 85.364 602.807 87.02 605.831 87.02C608.999 87.02 611.375 85.4 611.375 78.992ZM622.583 79.136V77.336C622.583 71.576 621.179 66.176 617.651 61.424H620.963C624.527 65.672 626.255 71.108 626.255 77.516V78.956C626.255 85.364 624.527 90.872 620.963 95.12H617.651C621.359 90.044 622.583 84.608 622.583 79.136Z" fill="#1E1E1E"/>
<rect width="33" height="68" transform="translate(957 44)" fill="#EBB977"/>
<path d="M0 0H58C63.5228 0 68 4.47715 68 10V36C68 41.5228 63.5228 46 58 46H0V0Z" fill="#4F6554"/>
<path d="M15.5248 26.888C10.9488 26.888 8.64475 24.2 8.64475 21.448V20.488C8.64475 17.704 10.9488 15.048 15.5248 15.048C20.1008 15.048 22.4048 17.736 22.4048 20.488V21.448C22.4048 24.2 20.1008 26.888 15.5248 26.888ZM34.1808 16.744V19.496H29.9888V29.384H26.8528V7.976H29.9888V16.744H34.1808ZM15.1408 29V34.408H30.7888V37.16H11.9728V29H15.1408ZM23.9728 11.24V13.928H7.04475V11.24H13.9568V7.688H17.0928V11.24H23.9728ZM15.5248 24.36C18.1168 24.36 19.3968 22.856 19.3968 21.288V20.648C19.3968 19.08 18.1488 17.576 15.5248 17.576C12.9008 17.576 11.6528 19.08 11.6528 20.648V21.288C11.6528 22.856 12.9328 24.36 15.5248 24.36ZM37.712 30.12V27.432H46.064V22.312H34.224V19.624H53.264C53.808 17.256 54 14.952 54 13.032V11.848H37.776V9.16H57.2V13.16C57.2 14.952 56.976 17.384 56.56 19.624H61.296V22.312H49.264V27.432H57.52V37.768H54.352V30.12H37.712Z" fill="white"/>
<path d="M10 54L0 46H10V54Z" fill="#80A685"/>
<rect width="342" height="146" transform="translate(10 246)" fill="#CDACC7"/>
<rect width="309" height="146" transform="translate(362 246)" fill="#CDACC7"/>
<rect width="309" height="146" transform="translate(681 246)" fill="#CDACC7"/>
<path d="M0 202H58C63.5228 202 68 206.477 68 212V238C68 243.523 63.5228 248 58 248H0V202Z" fill="#4F6554"/>
<path d="M31.9728 239.672H12.8688V231.608H28.0368V228.76H12.7088V226.136H31.1408V234.168H15.9728V237.048H31.9728V239.672ZM31.1408 224.664H28.0048V209.976H31.1408V224.664ZM15.0768 210.392C19.8768 210.392 22.4048 213.528 22.4048 216.472V217.752C22.4048 220.696 19.8768 223.832 15.0768 223.832C10.2768 223.832 7.74875 220.696 7.74875 217.752V216.472C7.74875 213.528 10.2768 210.392 15.0768 210.392ZM15.0768 221.112C17.8288 221.112 19.3648 219.384 19.3648 217.56V216.664C19.3648 214.872 17.8288 213.144 15.0768 213.144C12.3248 213.144 10.7888 214.84 10.7888 216.664V217.56C10.7888 219.384 12.3248 221.112 15.0768 221.112ZM57.392 210.744V222.744H49.36V225.848H61.296V228.536H34.224V225.848H46.16V222.744H38.096V210.776H41.232V214.36H54.256V210.744H57.392ZM41.296 230.68V236.408H57.968V239.16H38.128V230.68H41.296ZM41.232 216.92V220.088H54.256V216.92H41.232Z" fill="white"/>
<path d="M10 256L0 248H10V256Z" fill="#80A685"/>
<path d="M318 122L358 157L318 192H10V122H318Z" fill="#668FAF"/>
<path d="M89.4437 170.04H85.4837V145.84L78.7237 149.84L76.8437 146.64L86.1237 141.2H89.4437V170.04ZM119.218 160.76V161.36C119.218 165.6 116.378 170.48 109.178 170.48C105.258 170.48 102.098 169.44 99.3778 167.28L101.338 164.12C104.098 166.28 106.578 166.88 109.258 166.88C113.458 166.88 115.258 164.04 115.258 161.36V160.88C115.258 157.04 113.138 155.16 109.458 155.16C107.018 155.16 105.098 156.2 103.818 157.44H100.778L101.698 141.2H117.338V144.6H105.298L104.858 153.6C106.138 152.64 108.218 151.84 110.618 151.84C116.098 151.84 119.218 155.88 119.218 160.76ZM143.512 144.24L132.112 170.04H127.792L139.232 144.64H123.552V141.2H143.512V144.24ZM151.526 147.16L148.686 145.08C150.366 142.68 152.766 140.76 157.086 140.76C162.406 140.76 165.806 143.64 165.806 147.96V148.36C165.806 150.64 164.846 153.6 161.286 154.88C165.166 155.56 167.126 158.2 167.126 161.52V162.12C167.126 166.36 164.126 170.48 157.046 170.48C153.686 170.48 150.526 169.44 147.806 167.28L149.766 164.12C152.566 166.16 154.566 166.88 157.046 166.88C161.246 166.88 163.166 164.76 163.166 162.16V161.64C163.166 157.84 160.566 156.72 157.206 156.72H153.646V153.28H157.046C160.646 153.28 161.886 150.88 161.886 148.4V148.08C161.886 145.56 159.726 144.28 157.126 144.28C154.766 144.28 153.086 145.12 151.526 147.16ZM188.66 155.2C187.7 154.213 186.74 153.453 185.78 152.92C184.847 152.36 183.673 152.08 182.26 152.08C180.793 152.08 179.447 152.547 178.22 153.48C177.02 154.413 176.02 155.64 175.22 157.16L171.7 155.24C173.007 152.867 174.567 151.08 176.38 149.88C178.22 148.68 180.193 148.08 182.3 148.08C184.167 148.08 185.82 148.453 187.26 149.2C188.727 149.92 190.153 150.987 191.54 152.4C192.5 153.387 193.447 154.16 194.38 154.72C195.34 155.253 196.527 155.52 197.94 155.52C199.407 155.52 200.74 155.053 201.94 154.12C203.167 153.187 204.18 151.96 204.98 150.44L208.5 152.36C207.193 154.733 205.62 156.52 203.78 157.72C201.967 158.92 200.007 159.52 197.9 159.52C196.06 159.52 194.407 159.16 192.94 158.44C191.473 157.693 190.047 156.613 188.66 155.2ZM225.9 170.04H221.94V145.84L215.18 149.84L213.3 146.64L222.58 141.2H225.9V170.04ZM254.354 142.72L252.834 146.08C251.034 145.04 248.914 144.4 246.634 144.4C242.714 144.4 239.994 146.8 239.714 154.4C240.674 152.72 243.394 151.12 246.594 151.12C251.714 151.12 255.674 154.68 255.674 160.32V161.2C255.674 166.72 251.714 170.48 245.834 170.48C239.354 170.48 235.794 166.32 235.794 158.6V157.12C235.794 144.48 240.394 140.76 246.874 140.76C249.474 140.76 252.194 141.4 254.354 142.72ZM239.834 160.24V160.8C239.834 164.52 242.074 166.88 245.674 166.88C249.394 166.88 251.714 164.76 251.714 161V160.48C251.714 156.64 249.314 154.64 245.794 154.64C242.274 154.64 239.834 157.08 239.834 160.24ZM280.128 153.36V157.84C280.128 166 276.848 170.48 269.928 170.48C263.088 170.48 259.728 165.92 259.728 157.84V153.36C259.728 145.28 263.208 140.76 269.928 140.76C276.728 140.76 280.128 145.28 280.128 153.36ZM276.088 157.88V153.32C276.088 146.28 273.448 144.44 269.928 144.44C266.568 144.44 263.768 146.32 263.768 153.32V157.88C263.768 164.96 266.568 166.8 269.928 166.8C273.448 166.8 276.088 165 276.088 157.88ZM287.982 147.16L285.142 145.08C286.822 142.68 289.222 140.76 293.542 140.76C298.862 140.76 302.262 143.64 302.262 147.96V148.36C302.262 150.64 301.302 153.6 297.742 154.88C301.622 155.56 303.582 158.2 303.582 161.52V162.12C303.582 166.36 300.582 170.48 293.502 170.48C290.142 170.48 286.982 169.44 284.262 167.28L286.222 164.12C289.022 166.16 291.022 166.88 293.502 166.88C297.702 166.88 299.622 164.76 299.622 162.16V161.64C299.622 157.84 297.022 156.72 293.662 156.72H290.102V153.28H293.502C297.102 153.28 298.342 150.88 298.342 148.4V148.08C298.342 145.56 296.182 144.28 293.582 144.28C291.222 144.28 289.542 145.12 287.982 147.16Z" fill="white"/>
<path d="M673 157L633 192H325L365 157L325 122H633L673 157Z" fill="#54709A"/>
<path d="M404.444 170.04H400.484V145.84L393.724 149.84L391.844 146.64L401.124 141.2H404.444V170.04ZM432.898 142.72L431.378 146.08C429.578 145.04 427.458 144.4 425.178 144.4C421.258 144.4 418.538 146.8 418.258 154.4C419.218 152.72 421.938 151.12 425.138 151.12C430.258 151.12 434.218 154.68 434.218 160.32V161.2C434.218 166.72 430.258 170.48 424.378 170.48C417.898 170.48 414.338 166.32 414.338 158.6V157.12C414.338 144.48 418.938 140.76 425.418 140.76C428.018 140.76 430.738 141.4 432.898 142.72ZM418.378 160.24V160.8C418.378 164.52 420.618 166.88 424.218 166.88C427.938 166.88 430.258 164.76 430.258 161V160.48C430.258 156.64 427.858 154.64 424.338 154.64C420.818 154.64 418.378 157.08 418.378 160.24ZM458.672 153.36V157.84C458.672 166 455.392 170.48 448.472 170.48C441.632 170.48 438.272 165.92 438.272 157.84V153.36C438.272 145.28 441.752 140.76 448.472 140.76C455.272 140.76 458.672 145.28 458.672 153.36ZM454.632 157.88V153.32C454.632 146.28 451.992 144.44 448.472 144.44C445.112 144.44 442.312 146.32 442.312 153.32V157.88C442.312 164.96 445.112 166.8 448.472 166.8C451.992 166.8 454.632 165 454.632 157.88ZM466.526 147.16L463.686 145.08C465.366 142.68 467.766 140.76 472.086 140.76C477.406 140.76 480.806 143.64 480.806 147.96V148.36C480.806 150.64 479.846 153.6 476.286 154.88C480.166 155.56 482.126 158.2 482.126 161.52V162.12C482.126 166.36 479.126 170.48 472.046 170.48C468.686 170.48 465.526 169.44 462.806 167.28L464.766 164.12C467.566 166.16 469.566 166.88 472.046 166.88C476.246 166.88 478.166 164.76 478.166 162.16V161.64C478.166 157.84 475.566 156.72 472.206 156.72H468.646V153.28H472.046C475.646 153.28 476.886 150.88 476.886 148.4V148.08C476.886 145.56 474.726 144.28 472.126 144.28C469.766 144.28 468.086 145.12 466.526 147.16ZM503.66 155.2C502.7 154.213 501.74 153.453 500.78 152.92C499.847 152.36 498.673 152.08 497.26 152.08C495.793 152.08 494.447 152.547 493.22 153.48C492.02 154.413 491.02 155.64 490.22 157.16L486.7 155.24C488.007 152.867 489.567 151.08 491.38 149.88C493.22 148.68 495.193 148.08 497.3 148.08C499.167 148.08 500.82 148.453 502.26 149.2C503.727 149.92 505.153 150.987 506.54 152.4C507.5 153.387 508.447 154.16 509.38 154.72C510.34 155.253 511.527 155.52 512.94 155.52C514.407 155.52 515.74 155.053 516.94 154.12C518.167 153.187 519.18 151.96 519.98 150.44L523.5 152.36C522.193 154.733 520.62 156.52 518.78 157.72C516.967 158.92 515.007 159.52 512.9 159.52C511.06 159.52 509.407 159.16 507.94 158.44C506.473 157.693 505.047 156.613 503.66 155.2ZM540.9 170.04H536.94V145.84L530.18 149.84L528.3 146.64L537.58 141.2H540.9V170.04ZM555.714 148.6V149.04C555.714 151.88 557.834 153.6 560.514 153.6C563.234 153.6 565.314 151.88 565.314 149.04V148.6C565.314 145.88 563.394 144.24 560.514 144.24C557.674 144.24 555.714 145.88 555.714 148.6ZM554.954 161.92V162.36C554.954 165.08 557.114 166.92 560.554 166.92C563.994 166.92 566.074 165.08 566.074 162.36V161.92C566.074 158.8 563.714 157.08 560.554 157.08C557.434 157.08 554.954 158.72 554.954 161.92ZM550.874 162.56V161.88C550.874 158.72 553.074 156.08 555.834 155.24C553.074 153.92 551.714 151.32 551.714 148.88V148.32C551.714 144.2 554.874 140.76 560.514 140.76C566.074 140.76 569.314 144.2 569.314 148.32V148.88C569.314 151.32 567.994 153.8 565.194 155.24C567.994 156.08 570.154 158.72 570.154 161.88V162.56C570.154 167.16 566.554 170.48 560.514 170.48C554.474 170.48 550.874 167.16 550.874 162.56ZM593.768 142.72L592.248 146.08C590.448 145.04 588.328 144.4 586.048 144.4C582.128 144.4 579.408 146.8 579.128 154.4C580.088 152.72 582.808 151.12 586.008 151.12C591.128 151.12 595.088 154.68 595.088 160.32V161.2C595.088 166.72 591.128 170.48 585.248 170.48C578.768 170.48 575.208 166.32 575.208 158.6V157.12C575.208 144.48 579.808 140.76 586.288 140.76C588.888 140.76 591.608 141.4 593.768 142.72ZM579.248 160.24V160.8C579.248 164.52 581.488 166.88 585.088 166.88C588.808 166.88 591.128 164.76 591.128 161V160.48C591.128 156.64 588.728 154.64 585.208 154.64C581.688 154.64 579.248 157.08 579.248 160.24ZM604.542 148.6V149.04C604.542 151.88 606.662 153.6 609.342 153.6C612.062 153.6 614.142 151.88 614.142 149.04V148.6C614.142 145.88 612.222 144.24 609.342 144.24C606.502 144.24 604.542 145.88 604.542 148.6ZM603.782 161.92V162.36C603.782 165.08 605.942 166.92 609.382 166.92C612.822 166.92 614.902 165.08 614.902 162.36V161.92C614.902 158.8 612.542 157.08 609.382 157.08C606.262 157.08 603.782 158.72 603.782 161.92ZM599.702 162.56V161.88C599.702 158.72 601.902 156.08 604.662 155.24C601.902 153.92 600.542 151.32 600.542 148.88V148.32C600.542 144.2 603.702 140.76 609.342 140.76C614.902 140.76 618.142 144.2 618.142 148.32V148.88C618.142 151.32 616.822 153.8 614.022 155.24C616.822 156.08 618.982 158.72 618.982 161.88V162.56C618.982 167.16 615.382 170.48 609.342 170.48C603.302 170.48 599.702 167.16 599.702 162.56Z" fill="white"/>
<path d="M990 157L950 192H640L680 157L640 122H950L990 157Z" fill="#54709A"/>
<path d="M725.444 170.04H721.484V145.84L714.724 149.84L712.844 146.64L722.124 141.2H725.444V170.04ZM740.258 148.6V149.04C740.258 151.88 742.378 153.6 745.058 153.6C747.778 153.6 749.858 151.88 749.858 149.04V148.6C749.858 145.88 747.938 144.24 745.058 144.24C742.218 144.24 740.258 145.88 740.258 148.6ZM739.498 161.92V162.36C739.498 165.08 741.658 166.92 745.098 166.92C748.538 166.92 750.618 165.08 750.618 162.36V161.92C750.618 158.8 748.258 157.08 745.098 157.08C741.978 157.08 739.498 158.72 739.498 161.92ZM735.418 162.56V161.88C735.418 158.72 737.618 156.08 740.378 155.24C737.618 153.92 736.258 151.32 736.258 148.88V148.32C736.258 144.2 739.418 140.76 745.058 140.76C750.618 140.76 753.858 144.2 753.858 148.32V148.88C753.858 151.32 752.538 153.8 749.738 155.24C752.538 156.08 754.698 158.72 754.698 161.88V162.56C754.698 167.16 751.098 170.48 745.058 170.48C739.018 170.48 735.418 167.16 735.418 162.56ZM778.312 142.72L776.792 146.08C774.992 145.04 772.872 144.4 770.592 144.4C766.672 144.4 763.952 146.8 763.672 154.4C764.632 152.72 767.352 151.12 770.552 151.12C775.672 151.12 779.632 154.68 779.632 160.32V161.2C779.632 166.72 775.672 170.48 769.792 170.48C763.312 170.48 759.752 166.32 759.752 158.6V157.12C759.752 144.48 764.352 140.76 770.832 140.76C773.432 140.76 776.152 141.4 778.312 142.72ZM763.792 160.24V160.8C763.792 164.52 766.032 166.88 769.632 166.88C773.352 166.88 775.672 164.76 775.672 161V160.48C775.672 156.64 773.272 154.64 769.752 154.64C766.232 154.64 763.792 157.08 763.792 160.24ZM789.086 148.6V149.04C789.086 151.88 791.206 153.6 793.886 153.6C796.606 153.6 798.686 151.88 798.686 149.04V148.6C798.686 145.88 796.766 144.24 793.886 144.24C791.046 144.24 789.086 145.88 789.086 148.6ZM788.326 161.92V162.36C788.326 165.08 790.486 166.92 793.926 166.92C797.366 166.92 799.446 165.08 799.446 162.36V161.92C799.446 158.8 797.086 157.08 793.926 157.08C790.806 157.08 788.326 158.72 788.326 161.92ZM784.246 162.56V161.88C784.246 158.72 786.446 156.08 789.206 155.24C786.446 153.92 785.086 151.32 785.086 148.88V148.32C785.086 144.2 788.246 140.76 793.886 140.76C799.446 140.76 802.686 144.2 802.686 148.32V148.88C802.686 151.32 801.366 153.8 798.566 155.24C801.366 156.08 803.526 158.72 803.526 161.88V162.56C803.526 167.16 799.926 170.48 793.886 170.48C787.846 170.48 784.246 167.16 784.246 162.56ZM824.66 155.2C823.7 154.213 822.74 153.453 821.78 152.92C820.847 152.36 819.673 152.08 818.26 152.08C816.793 152.08 815.447 152.547 814.22 153.48C813.02 154.413 812.02 155.64 811.22 157.16L807.7 155.24C809.007 152.867 810.567 151.08 812.38 149.88C814.22 148.68 816.193 148.08 818.3 148.08C820.167 148.08 821.82 148.453 823.26 149.2C824.727 149.92 826.153 150.987 827.54 152.4C828.5 153.387 829.447 154.16 830.38 154.72C831.34 155.253 832.527 155.52 833.94 155.52C835.407 155.52 836.74 155.053 837.94 154.12C839.167 153.187 840.18 151.96 840.98 150.44L844.5 152.36C843.193 154.733 841.62 156.52 839.78 157.72C837.967 158.92 836.007 159.52 833.9 159.52C832.06 159.52 830.407 159.16 828.94 158.44C827.473 157.693 826.047 156.613 824.66 155.2ZM861.9 170.04H857.94V145.84L851.18 149.84L849.3 146.64L858.58 141.2H861.9V170.04ZM872.674 168.44L874.194 165.08C875.994 166.12 878.114 166.84 880.394 166.84C884.394 166.84 887.154 164.52 887.314 157C886.354 158.68 883.634 160.28 880.434 160.28C875.314 160.28 871.354 156.72 871.354 151.08V150.2C871.354 144.68 875.314 140.76 881.194 140.76C887.594 140.76 891.234 144.76 891.234 152.48V153.96C891.234 166.6 887.314 170.48 880.154 170.48C877.554 170.48 874.834 169.76 872.674 168.44ZM887.194 151.08V150.52C887.194 146.8 884.954 144.36 881.354 144.36C877.634 144.36 875.314 146.56 875.314 150.32V150.84C875.314 154.68 877.834 156.76 881.234 156.76C884.754 156.76 887.194 154.24 887.194 151.08ZM910.728 170.04H906.768V145.84L900.008 149.84L898.128 146.64L907.408 141.2H910.728V170.04ZM920.702 166.72L931.462 155.04C934.742 151.44 935.062 149.84 935.062 148.32V148C935.062 145.72 933.102 144.32 930.102 144.32C927.982 144.32 925.702 145.16 923.822 148.52L920.782 146.56C922.142 144.08 924.702 140.76 930.022 140.76C935.862 140.76 939.022 143.8 939.022 148V148.4C939.022 151.52 937.182 154.24 934.582 157L925.582 166.6H940.062V170.04H920.702V166.72Z" fill="white"/>
<path d="M170 200C174.418 200 178 196.418 178 192C178 187.582 174.418 184 170 184C165.582 184 162 187.582 162 192C162 196.418 165.582 200 170 200ZM170 246H171.5V192H170H168.5V246H170Z" fill="#E2605D"/>
<path d="M500 200C504.418 200 508 196.418 508 192C508 187.582 504.418 184 500 184C495.582 184 492 187.582 492 192C492 196.418 495.582 200 500 200ZM500 246H501.5V192H500H498.5V246H500Z" fill="#E2605D"/>
<path d="M830 200C834.418 200 838 196.418 838 192C838 187.582 834.418 184 830 184C825.582 184 822 187.582 822 192C822 196.418 825.582 200 830 200ZM830 246H831.5V192H830H828.5V246H830Z" fill="#E2605D"/>
</svg>
