<svg width="990" height="380" viewBox="0 0 990 380" fill="none" xmlns="http://www.w3.org/2000/svg">
<rect width="77" height="68" transform="translate(10 44)" fill="#EBB977"/>
<rect width="661" height="68" transform="translate(93 44)" fill="#EBB977"/>
<path d="M300.866 88.588H316.742V91.612H286.286V88.588H297.302V76.528H300.866V88.588ZM290.03 65.836H312.278V70.192C312.278 76.636 311.882 80.236 311.054 84.736L307.49 84.304C308.354 79.768 308.714 75.916 308.714 71.452V68.932H290.03V65.836ZM332.991 77.896H322.947V84.88H325.971C330.759 84.88 333.567 84.7 337.311 84.16L337.707 87.184C334.359 87.688 331.083 87.94 325.107 87.94H319.419V74.908H329.463V68.572H319.311V65.512H332.991V77.896ZM345.159 96.04H341.595V81.028H335.511V77.896H341.595V73.036H335.511V69.904H341.595V62.848H345.159V96.04ZM354.351 79.336V81.136C354.351 86.608 355.575 92.044 359.283 97.12H355.971C352.407 92.872 350.679 87.364 350.679 80.956V79.516C350.679 73.108 352.407 67.672 355.971 63.424H359.283C355.755 68.176 354.351 73.576 354.351 79.336ZM363.132 90.496L364.5 87.472C366.12 88.408 368.028 89.056 370.08 89.056C373.68 89.056 376.164 86.968 376.308 80.2C375.444 81.712 372.996 83.152 370.116 83.152C365.508 83.152 361.944 79.948 361.944 74.872V74.08C361.944 69.112 365.508 65.584 370.8 65.584C376.56 65.584 379.836 69.184 379.836 76.132V77.464C379.836 88.84 376.308 92.332 369.864 92.332C367.524 92.332 365.076 91.684 363.132 90.496ZM376.2 74.872V74.368C376.2 71.02 374.184 68.824 370.944 68.824C367.596 68.824 365.508 70.804 365.508 74.188V74.656C365.508 78.112 367.776 79.984 370.836 79.984C374.004 79.984 376.2 77.716 376.2 74.872ZM397.381 91.936H393.817V70.156L387.733 73.756L386.041 70.876L394.393 65.98H397.381V91.936ZM410.714 72.64V73.036C410.714 75.592 412.622 77.14 415.034 77.14C417.482 77.14 419.354 75.592 419.354 73.036V72.64C419.354 70.192 417.626 68.716 415.034 68.716C412.478 68.716 410.714 70.192 410.714 72.64ZM410.03 84.628V85.024C410.03 87.472 411.974 89.128 415.07 89.128C418.166 89.128 420.038 87.472 420.038 85.024V84.628C420.038 81.82 417.914 80.272 415.07 80.272C412.262 80.272 410.03 81.748 410.03 84.628ZM406.358 85.204V84.592C406.358 81.748 408.338 79.372 410.822 78.616C408.338 77.428 407.114 75.088 407.114 72.892V72.388C407.114 68.68 409.958 65.584 415.034 65.584C420.038 65.584 422.954 68.68 422.954 72.388V72.892C422.954 75.088 421.766 77.32 419.246 78.616C421.766 79.372 423.71 81.748 423.71 84.592V85.204C423.71 89.344 420.47 92.332 415.034 92.332C409.598 92.332 406.358 89.344 406.358 85.204ZM442.73 78.58C440.966 76.816 439.526 75.772 436.97 75.772C434.342 75.772 432.074 77.608 430.634 80.344L427.466 78.616C429.806 74.368 433.19 72.172 437.006 72.172C440.354 72.172 442.802 73.504 445.322 76.06C447.086 77.824 448.526 78.868 451.082 78.868C453.71 78.868 455.978 77.032 457.418 74.296L460.586 76.024C458.246 80.272 454.862 82.468 451.046 82.468C447.698 82.468 445.25 81.136 442.73 78.58ZM476.246 91.936H472.682V70.156L466.598 73.756L464.906 70.876L473.258 65.98H476.246V91.936ZM488.175 71.344L485.619 69.472C487.131 67.312 489.291 65.584 493.179 65.584C497.967 65.584 501.027 68.176 501.027 72.064V72.424C501.027 74.476 500.163 77.14 496.959 78.292C500.451 78.904 502.215 81.28 502.215 84.268V84.808C502.215 88.624 499.515 92.332 493.143 92.332C490.119 92.332 487.275 91.396 484.827 89.452L486.591 86.608C489.111 88.444 490.911 89.092 493.143 89.092C496.923 89.092 498.651 87.184 498.651 84.844V84.376C498.651 80.956 496.311 79.948 493.287 79.948H490.083V76.852H493.143C496.383 76.852 497.499 74.692 497.499 72.46V72.172C497.499 69.904 495.555 68.752 493.215 68.752C491.091 68.752 489.579 69.508 488.175 71.344ZM507.916 90.496L509.284 87.472C510.904 88.408 512.812 89.056 514.864 89.056C518.464 89.056 520.948 86.968 521.092 80.2C520.228 81.712 517.78 83.152 514.9 83.152C510.292 83.152 506.728 79.948 506.728 74.872V74.08C506.728 69.112 510.292 65.584 515.584 65.584C521.344 65.584 524.62 69.184 524.62 76.132V77.464C524.62 88.84 521.092 92.332 514.648 92.332C512.308 92.332 509.86 91.684 507.916 90.496ZM520.984 74.872V74.368C520.984 71.02 518.968 68.824 515.728 68.824C512.38 68.824 510.292 70.804 510.292 74.188V74.656C510.292 78.112 512.56 79.984 515.62 79.984C518.788 79.984 520.984 77.716 520.984 74.872ZM529.168 88.948L538.852 78.436C541.804 75.196 542.092 73.756 542.092 72.388V72.1C542.092 70.048 540.328 68.788 537.628 68.788C535.72 68.788 533.668 69.544 531.976 72.568L529.24 70.804C530.464 68.572 532.768 65.584 537.556 65.584C542.812 65.584 545.656 68.32 545.656 72.1V72.46C545.656 75.268 544 77.716 541.66 80.2L533.56 88.84H546.592V91.936H529.168V88.948ZM554.597 81.136V79.336C554.597 73.576 553.193 68.176 549.665 63.424H552.977C556.541 67.672 558.269 73.108 558.269 79.516V80.956C558.269 87.364 556.541 92.872 552.977 97.12H549.665C553.373 92.044 554.597 86.608 554.597 81.136Z" fill="#1E1E1E"/>
<rect width="230" height="68" transform="translate(760 44)" fill="#EBB977"/>
<path d="M786.009 75.376H785.973C785.577 76.024 784.353 77.14 781.977 78.652C779.529 80.2 777.333 81.424 774.633 82.828L772.869 79.984C775.965 78.4 778.089 77.248 780.393 75.772C783.165 73.972 784.173 72.352 784.173 69.616V68.752H774.525V65.656H797.421V68.752H787.773V69.616C787.773 72.316 788.637 73.864 791.517 75.7C794.289 77.464 796.053 78.4 799.077 79.948L797.313 82.792C794.253 81.172 792.345 80.092 789.933 78.58C787.557 77.068 786.369 75.988 786.009 75.376ZM787.773 88.588H801.201V91.612H770.745V88.588H784.173V81.496H787.773V88.588ZM811.906 75.268H811.87C811.69 75.88 810.574 77.14 809.458 78.148C807.982 79.516 805.858 81.316 803.95 82.828L801.826 80.308C804.13 78.544 806.362 76.636 807.622 75.376C809.458 73.54 809.962 72.172 809.962 69.652V64.396H813.562V69.508C813.562 71.74 813.706 72.928 815.434 74.512C817.126 76.06 819.178 77.68 821.302 79.228L819.214 81.712C817.342 80.308 815.686 78.94 813.958 77.5C812.878 76.6 812.122 75.808 811.906 75.268ZM829.294 86.464H825.766V73.432H819.106V70.372H825.766V62.848H829.294V86.464ZM812.122 84.52V92.584H829.978V95.68H808.558V84.52H812.122ZM838.81 79.336V81.136C838.81 86.608 840.034 92.044 843.742 97.12H840.43C836.866 92.872 835.138 87.364 835.138 80.956V79.516C835.138 73.108 836.866 67.672 840.43 63.424H843.742C840.214 68.176 838.81 73.576 838.81 79.336ZM859.867 91.936H856.303V70.156L850.219 73.756L848.527 70.876L856.879 65.98H859.867V91.936ZM871.796 71.344L869.24 69.472C870.752 67.312 872.912 65.584 876.8 65.584C881.588 65.584 884.648 68.176 884.648 72.064V72.424C884.648 74.476 883.784 77.14 880.58 78.292C884.072 78.904 885.836 81.28 885.836 84.268V84.808C885.836 88.624 883.136 92.332 876.764 92.332C873.74 92.332 870.896 91.396 868.448 89.452L870.212 86.608C872.732 88.444 874.532 89.092 876.764 89.092C880.544 89.092 882.272 87.184 882.272 84.844V84.376C882.272 80.956 879.932 79.948 876.908 79.948H873.704V76.852H876.764C880.004 76.852 881.12 74.692 881.12 72.46V72.172C881.12 69.904 879.176 68.752 876.836 68.752C874.712 68.752 873.2 69.508 871.796 71.344ZM891.537 90.496L892.905 87.472C894.525 88.408 896.433 89.056 898.485 89.056C902.085 89.056 904.569 86.968 904.713 80.2C903.849 81.712 901.401 83.152 898.521 83.152C893.913 83.152 890.349 79.948 890.349 74.872V74.08C890.349 69.112 893.913 65.584 899.205 65.584C904.965 65.584 908.241 69.184 908.241 76.132V77.464C908.241 88.84 904.713 92.332 898.269 92.332C895.929 92.332 893.481 91.684 891.537 90.496ZM904.605 74.872V74.368C904.605 71.02 902.589 68.824 899.349 68.824C896.001 68.824 893.913 70.804 893.913 74.188V74.656C893.913 78.112 896.181 79.984 899.241 79.984C902.409 79.984 904.605 77.716 904.605 74.872ZM912.789 88.948L922.473 78.436C925.425 75.196 925.713 73.756 925.713 72.388V72.1C925.713 70.048 923.949 68.788 921.249 68.788C919.341 68.788 917.289 69.544 915.597 72.568L912.861 70.804C914.085 68.572 916.389 65.584 921.177 65.584C926.433 65.584 929.277 68.32 929.277 72.1V72.46C929.277 75.268 927.621 77.716 925.281 80.2L917.181 88.84H930.213V91.936H912.789V88.948ZM949.162 78.58C948.298 77.692 947.434 77.008 946.57 76.528C945.73 76.024 944.674 75.772 943.402 75.772C942.082 75.772 940.87 76.192 939.766 77.032C938.686 77.872 937.786 78.976 937.066 80.344L933.898 78.616C935.074 76.48 936.478 74.872 938.11 73.792C939.766 72.712 941.542 72.172 943.438 72.172C945.118 72.172 946.606 72.508 947.902 73.18C949.222 73.828 950.506 74.788 951.754 76.06C952.618 76.948 953.47 77.644 954.31 78.148C955.174 78.628 956.242 78.868 957.514 78.868C958.834 78.868 960.034 78.448 961.114 77.608C962.218 76.768 963.13 75.664 963.85 74.296L967.018 76.024C965.842 78.16 964.426 79.768 962.77 80.848C961.138 81.928 959.374 82.468 957.478 82.468C955.822 82.468 954.334 82.144 953.014 81.496C951.694 80.824 950.41 79.852 949.162 78.58ZM973.138 81.136V79.336C973.138 73.576 971.734 68.176 968.206 63.424H971.518C975.082 67.672 976.81 73.108 976.81 79.516V80.956C976.81 87.364 975.082 92.872 971.518 97.12H968.206C971.914 92.044 973.138 86.608 973.138 81.136Z" fill="#1E1E1E"/>
<path d="M0 0H58C63.5228 0 68 4.47715 68 10V36C68 41.5228 63.5228 46 58 46H0V0Z" fill="#4F6554"/>
<path d="M15.5248 26.888C10.9488 26.888 8.64475 24.2 8.64475 21.448V20.488C8.64475 17.704 10.9488 15.048 15.5248 15.048C20.1008 15.048 22.4048 17.736 22.4048 20.488V21.448C22.4048 24.2 20.1008 26.888 15.5248 26.888ZM34.1808 16.744V19.496H29.9888V29.384H26.8528V7.976H29.9888V16.744H34.1808ZM15.1408 29V34.408H30.7888V37.16H11.9728V29H15.1408ZM23.9728 11.24V13.928H7.04475V11.24H13.9568V7.688H17.0928V11.24H23.9728ZM15.5248 24.36C18.1168 24.36 19.3968 22.856 19.3968 21.288V20.648C19.3968 19.08 18.1488 17.576 15.5248 17.576C12.9008 17.576 11.6528 19.08 11.6528 20.648V21.288C11.6528 22.856 12.9328 24.36 15.5248 24.36ZM37.712 30.12V27.432H46.064V22.312H34.224V19.624H53.264C53.808 17.256 54 14.952 54 13.032V11.848H37.776V9.16H57.2V13.16C57.2 14.952 56.976 17.384 56.56 19.624H61.296V22.312H49.264V27.432H57.52V37.768H54.352V30.12H37.712Z" fill="white"/>
<path d="M10 54L0 46H10V54Z" fill="#80A685"/>
<rect width="320" height="134" transform="translate(10 246)" fill="#CDACC7"/>
<rect width="320" height="134" transform="translate(340 246)" fill="#CDACC7"/>
<rect width="320" height="134" transform="translate(670 246)" fill="#CDACC7"/>
<path d="M0 202H58C63.5228 202 68 206.477 68 212V238C68 243.523 63.5228 248 58 248H0V202Z" fill="#4F6554"/>
<path d="M31.9728 239.672H12.8688V231.608H28.0368V228.76H12.7088V226.136H31.1408V234.168H15.9728V237.048H31.9728V239.672ZM31.1408 224.664H28.0048V209.976H31.1408V224.664ZM15.0768 210.392C19.8768 210.392 22.4048 213.528 22.4048 216.472V217.752C22.4048 220.696 19.8768 223.832 15.0768 223.832C10.2768 223.832 7.74875 220.696 7.74875 217.752V216.472C7.74875 213.528 10.2768 210.392 15.0768 210.392ZM15.0768 221.112C17.8288 221.112 19.3648 219.384 19.3648 217.56V216.664C19.3648 214.872 17.8288 213.144 15.0768 213.144C12.3248 213.144 10.7888 214.84 10.7888 216.664V217.56C10.7888 219.384 12.3248 221.112 15.0768 221.112ZM57.392 210.744V222.744H49.36V225.848H61.296V228.536H34.224V225.848H46.16V222.744H38.096V210.776H41.232V214.36H54.256V210.744H57.392ZM41.296 230.68V236.408H57.968V239.16H38.128V230.68H41.296ZM41.232 216.92V220.088H54.256V216.92H41.232Z" fill="white"/>
<path d="M10 256L0 248H10V256Z" fill="#80A685"/>
<path d="M318 122L358 157L318 192H10V122H318Z" fill="#9CB1C7"/>
<path d="M94.3908 144.24L82.9908 170.04H78.6708L90.1108 144.64H74.4308V141.2H94.3908V144.24ZM99.9248 168.44L101.445 165.08C103.245 166.12 105.365 166.84 107.645 166.84C111.645 166.84 114.405 164.52 114.565 157C113.605 158.68 110.885 160.28 107.685 160.28C102.565 160.28 98.6048 156.72 98.6048 151.08V150.2C98.6048 144.68 102.565 140.76 108.445 140.76C114.845 140.76 118.485 144.76 118.485 152.48V153.96C118.485 166.6 114.565 170.48 107.405 170.48C104.805 170.48 102.085 169.76 99.9248 168.44ZM114.445 151.08V150.52C114.445 146.8 112.205 144.36 108.605 144.36C104.885 144.36 102.565 146.56 102.565 150.32V150.84C102.565 154.68 105.085 156.76 108.485 156.76C112.005 156.76 114.445 154.24 114.445 151.08ZM136.459 151.64H140.379V160.48H144.459V163.84H140.379V170.04H136.459V163.84H122.059V160.88L135.619 141.2H139.979L126.699 160.48H136.459V151.64ZM163.953 155.2C162.993 154.213 162.033 153.453 161.073 152.92C160.14 152.36 158.966 152.08 157.553 152.08C156.086 152.08 154.74 152.547 153.513 153.48C152.313 154.413 151.313 155.64 150.513 157.16L146.993 155.24C148.3 152.867 149.86 151.08 151.673 149.88C153.513 148.68 155.486 148.08 157.593 148.08C159.46 148.08 161.113 148.453 162.553 149.2C164.02 149.92 165.446 150.987 166.833 152.4C167.793 153.387 168.74 154.16 169.673 154.72C170.633 155.253 171.82 155.52 173.233 155.52C174.7 155.52 176.033 155.053 177.233 154.12C178.46 153.187 179.473 151.96 180.273 150.44L183.793 152.36C182.486 154.733 180.913 156.52 179.073 157.72C177.26 158.92 175.3 159.52 173.193 159.52C171.353 159.52 169.7 159.16 168.233 158.44C166.766 157.693 165.34 156.613 163.953 155.2ZM201.193 170.04H197.233V145.84L190.473 149.84L188.593 146.64L197.873 141.2H201.193V170.04ZM225.607 170.04H221.647V145.84L214.887 149.84L213.007 146.64L222.287 141.2H225.607V170.04ZM240.421 148.6V149.04C240.421 151.88 242.541 153.6 245.221 153.6C247.941 153.6 250.021 151.88 250.021 149.04V148.6C250.021 145.88 248.101 144.24 245.221 144.24C242.381 144.24 240.421 145.88 240.421 148.6ZM239.661 161.92V162.36C239.661 165.08 241.821 166.92 245.261 166.92C248.701 166.92 250.781 165.08 250.781 162.36V161.92C250.781 158.8 248.421 157.08 245.261 157.08C242.141 157.08 239.661 158.72 239.661 161.92ZM235.581 162.56V161.88C235.581 158.72 237.781 156.08 240.541 155.24C237.781 153.92 236.421 151.32 236.421 148.88V148.32C236.421 144.2 239.581 140.76 245.221 140.76C250.781 140.76 254.021 144.2 254.021 148.32V148.88C254.021 151.32 252.701 153.8 249.901 155.24C252.701 156.08 254.861 158.72 254.861 161.88V162.56C254.861 167.16 251.261 170.48 245.221 170.48C239.181 170.48 235.581 167.16 235.581 162.56ZM279.795 160.76V161.36C279.795 165.6 276.955 170.48 269.755 170.48C265.835 170.48 262.675 169.44 259.955 167.28L261.915 164.12C264.675 166.28 267.155 166.88 269.835 166.88C274.035 166.88 275.835 164.04 275.835 161.36V160.88C275.835 157.04 273.715 155.16 270.035 155.16C267.595 155.16 265.675 156.2 264.395 157.44H261.355L262.275 141.2H277.915V144.6H265.875L265.435 153.6C266.715 152.64 268.795 151.84 271.195 151.84C276.675 151.84 279.795 155.88 279.795 160.76Z" fill="white"/>
<path d="M673 157L633 192H325L365 157L325 122H633L673 157Z" fill="#87A1BC"/>
<path d="M404.444 170.04H400.484V145.84L393.724 149.84L391.844 146.64L401.124 141.2H404.444V170.04ZM428.858 170.04H424.898V145.84L418.138 149.84L416.258 146.64L425.538 141.2H428.858V170.04ZM443.672 148.6V149.04C443.672 151.88 445.792 153.6 448.472 153.6C451.192 153.6 453.272 151.88 453.272 149.04V148.6C453.272 145.88 451.352 144.24 448.472 144.24C445.632 144.24 443.672 145.88 443.672 148.6ZM442.912 161.92V162.36C442.912 165.08 445.072 166.92 448.512 166.92C451.952 166.92 454.032 165.08 454.032 162.36V161.92C454.032 158.8 451.672 157.08 448.512 157.08C445.392 157.08 442.912 158.72 442.912 161.92ZM438.832 162.56V161.88C438.832 158.72 441.032 156.08 443.792 155.24C441.032 153.92 439.672 151.32 439.672 148.88V148.32C439.672 144.2 442.832 140.76 448.472 140.76C454.032 140.76 457.272 144.2 457.272 148.32V148.88C457.272 151.32 455.952 153.8 453.152 155.24C455.952 156.08 458.112 158.72 458.112 161.88V162.56C458.112 167.16 454.512 170.48 448.472 170.48C442.432 170.48 438.832 167.16 438.832 162.56ZM483.046 160.76V161.36C483.046 165.6 480.206 170.48 473.006 170.48C469.086 170.48 465.926 169.44 463.206 167.28L465.166 164.12C467.926 166.28 470.406 166.88 473.086 166.88C477.286 166.88 479.086 164.04 479.086 161.36V160.88C479.086 157.04 476.966 155.16 473.286 155.16C470.846 155.16 468.926 156.2 467.646 157.44H464.606L465.526 141.2H481.166V144.6H469.126L468.686 153.6C469.966 152.64 472.046 151.84 474.446 151.84C479.926 151.84 483.046 155.88 483.046 160.76ZM503.66 155.2C502.7 154.213 501.74 153.453 500.78 152.92C499.847 152.36 498.673 152.08 497.26 152.08C495.793 152.08 494.447 152.547 493.22 153.48C492.02 154.413 491.02 155.64 490.22 157.16L486.7 155.24C488.007 152.867 489.567 151.08 491.38 149.88C493.22 148.68 495.193 148.08 497.3 148.08C499.167 148.08 500.82 148.453 502.26 149.2C503.727 149.92 505.153 150.987 506.54 152.4C507.5 153.387 508.447 154.16 509.38 154.72C510.34 155.253 511.527 155.52 512.94 155.52C514.407 155.52 515.74 155.053 516.94 154.12C518.167 153.187 519.18 151.96 519.98 150.44L523.5 152.36C522.193 154.733 520.62 156.52 518.78 157.72C516.967 158.92 515.007 159.52 512.9 159.52C511.06 159.52 509.407 159.16 507.94 158.44C506.473 157.693 505.047 156.613 503.66 155.2ZM540.9 170.04H536.94V145.84L530.18 149.84L528.3 146.64L537.58 141.2H540.9V170.04ZM554.154 147.16L551.314 145.08C552.994 142.68 555.394 140.76 559.714 140.76C565.034 140.76 568.434 143.64 568.434 147.96V148.36C568.434 150.64 567.474 153.6 563.914 154.88C567.794 155.56 569.754 158.2 569.754 161.52V162.12C569.754 166.36 566.754 170.48 559.674 170.48C556.314 170.48 553.154 169.44 550.434 167.28L552.394 164.12C555.194 166.16 557.194 166.88 559.674 166.88C563.874 166.88 565.794 164.76 565.794 162.16V161.64C565.794 157.84 563.194 156.72 559.834 156.72H556.274V153.28H559.674C563.274 153.28 564.514 150.88 564.514 148.4V148.08C564.514 145.56 562.354 144.28 559.754 144.28C557.394 144.28 555.714 145.12 554.154 147.16ZM578.568 147.16L575.728 145.08C577.408 142.68 579.808 140.76 584.128 140.76C589.448 140.76 592.848 143.64 592.848 147.96V148.36C592.848 150.64 591.888 153.6 588.328 154.88C592.208 155.56 594.168 158.2 594.168 161.52V162.12C594.168 166.36 591.168 170.48 584.088 170.48C580.728 170.48 577.568 169.44 574.848 167.28L576.808 164.12C579.608 166.16 581.608 166.88 584.088 166.88C588.288 166.88 590.208 164.76 590.208 162.16V161.64C590.208 157.84 587.608 156.72 584.248 156.72H580.688V153.28H584.088C587.688 153.28 588.928 150.88 588.928 148.4V148.08C588.928 145.56 586.768 144.28 584.168 144.28C581.808 144.28 580.128 145.12 578.568 147.16ZM602.982 147.16L600.142 145.08C601.822 142.68 604.222 140.76 608.542 140.76C613.862 140.76 617.262 143.64 617.262 147.96V148.36C617.262 150.64 616.302 153.6 612.742 154.88C616.622 155.56 618.582 158.2 618.582 161.52V162.12C618.582 166.36 615.582 170.48 608.502 170.48C605.142 170.48 601.982 169.44 599.262 167.28L601.222 164.12C604.022 166.16 606.022 166.88 608.502 166.88C612.702 166.88 614.622 164.76 614.622 162.16V161.64C614.622 157.84 612.022 156.72 608.662 156.72H605.102V153.28H608.502C612.102 153.28 613.342 150.88 613.342 148.4V148.08C613.342 145.56 611.182 144.28 608.582 144.28C606.222 144.28 604.542 145.12 602.982 147.16Z" fill="white"/>
<path d="M990 157L950 192H640L680 157L640 122H950L990 157Z" fill="#779ABB"/>
<path d="M725.444 170.04H721.484V145.84L714.724 149.84L712.844 146.64L722.124 141.2H725.444V170.04ZM738.698 147.16L735.858 145.08C737.538 142.68 739.938 140.76 744.258 140.76C749.578 140.76 752.978 143.64 752.978 147.96V148.36C752.978 150.64 752.018 153.6 748.458 154.88C752.338 155.56 754.298 158.2 754.298 161.52V162.12C754.298 166.36 751.298 170.48 744.218 170.48C740.858 170.48 737.698 169.44 734.978 167.28L736.938 164.12C739.738 166.16 741.738 166.88 744.218 166.88C748.418 166.88 750.338 164.76 750.338 162.16V161.64C750.338 157.84 747.738 156.72 744.378 156.72H740.818V153.28H744.218C747.818 153.28 749.058 150.88 749.058 148.4V148.08C749.058 145.56 746.898 144.28 744.298 144.28C741.938 144.28 740.258 145.12 738.698 147.16ZM763.112 147.16L760.272 145.08C761.952 142.68 764.352 140.76 768.672 140.76C773.992 140.76 777.392 143.64 777.392 147.96V148.36C777.392 150.64 776.432 153.6 772.872 154.88C776.752 155.56 778.712 158.2 778.712 161.52V162.12C778.712 166.36 775.712 170.48 768.632 170.48C765.272 170.48 762.112 169.44 759.392 167.28L761.352 164.12C764.152 166.16 766.152 166.88 768.632 166.88C772.832 166.88 774.752 164.76 774.752 162.16V161.64C774.752 157.84 772.152 156.72 768.792 156.72H765.232V153.28H768.632C772.232 153.28 773.472 150.88 773.472 148.4V148.08C773.472 145.56 771.312 144.28 768.712 144.28C766.352 144.28 764.672 145.12 763.112 147.16ZM802.726 142.72L801.206 146.08C799.406 145.04 797.286 144.4 795.006 144.4C791.086 144.4 788.366 146.8 788.086 154.4C789.046 152.72 791.766 151.12 794.966 151.12C800.086 151.12 804.046 154.68 804.046 160.32V161.2C804.046 166.72 800.086 170.48 794.206 170.48C787.726 170.48 784.166 166.32 784.166 158.6V157.12C784.166 144.48 788.766 140.76 795.246 140.76C797.846 140.76 800.566 141.4 802.726 142.72ZM788.206 160.24V160.8C788.206 164.52 790.446 166.88 794.046 166.88C797.766 166.88 800.086 164.76 800.086 161V160.48C800.086 156.64 797.686 154.64 794.166 154.64C790.646 154.64 788.206 157.08 788.206 160.24ZM824.66 155.2C823.7 154.213 822.74 153.453 821.78 152.92C820.847 152.36 819.673 152.08 818.26 152.08C816.793 152.08 815.447 152.547 814.22 153.48C813.02 154.413 812.02 155.64 811.22 157.16L807.7 155.24C809.007 152.867 810.567 151.08 812.38 149.88C814.22 148.68 816.193 148.08 818.3 148.08C820.167 148.08 821.82 148.453 823.26 149.2C824.727 149.92 826.153 150.987 827.54 152.4C828.5 153.387 829.447 154.16 830.38 154.72C831.34 155.253 832.527 155.52 833.94 155.52C835.407 155.52 836.74 155.053 837.94 154.12C839.167 153.187 840.18 151.96 840.98 150.44L844.5 152.36C843.193 154.733 841.62 156.52 839.78 157.72C837.967 158.92 836.007 159.52 833.9 159.52C832.06 159.52 830.407 159.16 828.94 158.44C827.473 157.693 826.047 156.613 824.66 155.2ZM861.9 170.04H857.94V145.84L851.18 149.84L849.3 146.64L858.58 141.2H861.9V170.04ZM891.674 160.76V161.36C891.674 165.6 888.834 170.48 881.634 170.48C877.714 170.48 874.554 169.44 871.834 167.28L873.794 164.12C876.554 166.28 879.034 166.88 881.714 166.88C885.914 166.88 887.714 164.04 887.714 161.36V160.88C887.714 157.04 885.594 155.16 881.914 155.16C879.474 155.16 877.554 156.2 876.274 157.44H873.234L874.154 141.2H889.794V144.6H877.754L877.314 153.6C878.594 152.64 880.674 151.84 883.074 151.84C888.554 151.84 891.674 155.88 891.674 160.76ZM915.968 144.24L904.568 170.04H900.248L911.688 144.64H896.008V141.2H915.968V144.24ZM923.982 147.16L921.142 145.08C922.822 142.68 925.222 140.76 929.542 140.76C934.862 140.76 938.262 143.64 938.262 147.96V148.36C938.262 150.64 937.302 153.6 933.742 154.88C937.622 155.56 939.582 158.2 939.582 161.52V162.12C939.582 166.36 936.582 170.48 929.502 170.48C926.142 170.48 922.982 169.44 920.262 167.28L922.222 164.12C925.022 166.16 927.022 166.88 929.502 166.88C933.702 166.88 935.622 164.76 935.622 162.16V161.64C935.622 157.84 933.022 156.72 929.662 156.72H926.102V153.28H929.502C933.102 153.28 934.342 150.88 934.342 148.4V148.08C934.342 145.56 932.182 144.28 929.582 144.28C927.222 144.28 925.542 145.12 923.982 147.16Z" fill="white"/>
<path d="M170 200C174.418 200 178 196.418 178 192C178 187.582 174.418 184 170 184C165.582 184 162 187.582 162 192C162 196.418 165.582 200 170 200ZM170 246H171.5V192H170H168.5V246H170Z" fill="#E2605D"/>
<path d="M500 200C504.418 200 508 196.418 508 192C508 187.582 504.418 184 500 184C495.582 184 492 187.582 492 192C492 196.418 495.582 200 500 200ZM500 246H501.5V192H500H498.5V246H500Z" fill="#E2605D"/>
<path d="M830 200C834.418 200 838 196.418 838 192C838 187.582 834.418 184 830 184C825.582 184 822 187.582 822 192C822 196.418 825.582 200 830 200ZM830 246H831.5V192H830H828.5V246H830Z" fill="#E2605D"/>
</svg>
