<svg width="202" height="46" viewBox="0 0 202 46" fill="none" xmlns="http://www.w3.org/2000/svg">
<rect width="202" height="46" rx="2" fill="#6C8FB1"/>
<path d="M19.4623 26.888C14.8863 26.888 12.5823 24.2 12.5823 21.448V20.488C12.5823 17.704 14.8863 15.048 19.4623 15.048C24.0383 15.048 26.3423 17.736 26.3423 20.488V21.448C26.3423 24.2 24.0383 26.888 19.4623 26.888ZM38.1183 16.744V19.496H33.9263V29.384H30.7903V7.976H33.9263V16.744H38.1183ZM19.0783 29V34.408H34.7263V37.16H15.9103V29H19.0783ZM27.9103 11.24V13.928H10.9823V11.24H17.8943V7.688H21.0303V11.24H27.9103ZM19.4623 24.36C22.0543 24.36 23.3343 22.856 23.3343 21.288V20.648C23.3343 19.08 22.0863 17.576 19.4623 17.576C16.8383 17.576 15.5903 19.08 15.5903 20.648V21.288C15.5903 22.856 16.8703 24.36 19.4623 24.36ZM63.4415 37.672H44.3375V29.608H59.5055V26.76H44.1775V24.136H62.6095V32.168H47.4415V35.048H63.4415V37.672ZM62.6095 22.664H59.4735V7.976H62.6095V22.664ZM46.5455 8.392C51.3455 8.392 53.8735 11.528 53.8735 14.472V15.752C53.8735 18.696 51.3455 21.832 46.5455 21.832C41.7455 21.832 39.2175 18.696 39.2175 15.752V14.472C39.2175 11.528 41.7455 8.392 46.5455 8.392ZM46.5455 19.112C49.2975 19.112 50.8335 17.384 50.8335 15.56V14.664C50.8335 12.872 49.2975 11.144 46.5455 11.144C43.7935 11.144 42.2575 12.84 42.2575 14.664V15.56C42.2575 17.384 43.7935 19.112 46.5455 19.112ZM81.6608 9.032C86.5248 9.032 89.0528 12.648 89.0528 15.816V17.448C89.0528 20.616 86.5248 24.232 81.6608 24.232C76.7968 24.232 74.2688 20.616 74.2688 17.448V15.816C74.2688 12.616 76.7968 9.032 81.6608 9.032ZM98.3328 29.032H95.2288V21.736H90.5888V19.016H95.2288V14.632H90.5888V11.912H95.2288V7.976H98.3328V29.032ZM83.0688 27.368V34.408H99.0368V37.16H79.9008V27.368H83.0688ZM81.6608 21.448C84.4768 21.448 86.0448 19.24 86.0448 17.192V16.072C86.0448 14.024 84.4768 11.816 81.6608 11.816C78.8448 11.816 77.2768 14.024 77.2768 16.072V17.192C77.2768 19.24 78.8768 21.448 81.6608 21.448ZM121.384 21.992H125.48V24.616H120.712V30.856H128.296V33.544H101.224V30.856H108.808V24.616H104.04V21.992H108.168V13.064H104.264V10.44H125.224V13.064H121.384V21.992ZM111.336 13.064V21.992H118.216V13.064H111.336ZM111.944 24.616V30.856H117.576V24.616H111.944ZM161.203 37.48H158.035V7.976H161.203V37.48ZM152.627 29.736H138.899V10.376H142.035V17.352H149.491V10.376H152.627V29.736ZM142.035 20.04V27.016H149.491V20.04H142.035ZM180.543 30.856H191.359V33.544H164.287V30.856H170.431V20.648H173.535V30.856H177.439V20.648H180.543V30.856ZM167.615 10.6H187.679V14.472C187.679 20.2 187.455 23.4 186.751 27.4L183.615 27.016C184.415 22.952 184.543 19.56 184.543 15.592V13.352H167.615V10.6Z" fill="white"/>
</svg>
