<svg id="레이어_1" data-name="레이어 1" xmlns="http://www.w3.org/2000/svg" viewBox="0 0 31 31"><defs><style>.cls-1{fill:#97fff5;opacity:0;}.cls-2{fill:#fff;}</style></defs><rect class="cls-1" x="-2.9" y="-2.9" width="36.8" height="36.8"/><polygon class="cls-2" points="10.68 8.97 8.74 10.42 16.34 18.02 16.34 14.63 10.68 8.97"/><path class="cls-2" d="M20.17,20.43a7.61,7.61,0,0,0,.92-1.05L19.3,17.59a4.26,4.26,0,0,1-.85,1.06,1.22,1.22,0,0,0-.36,1.12l1,1a1.07,1.07,0,0,0,.25,0A1.28,1.28,0,0,0,20.17,20.43Z"/><path class="cls-2" d="M22.68,24.36l.18.18a1.29,1.29,0,0,0,.79.28,1.27,1.27,0,0,0,.86-.33c.29-.28.57-.56.83-.86l-1.75-1.75a8.94,8.94,0,0,1-.8.83A1.21,1.21,0,0,0,22.68,24.36Z"/><path class="cls-2" d="M16.34,7.47a1.34,1.34,0,0,0-.76-1.21,1.38,1.38,0,0,0-1.44.13L11.77,8.16l4.57,4.57Z"/><path class="cls-2" d="M3.9,10.7a1.36,1.36,0,0,0-1.37,1.35v6.88A1.36,1.36,0,0,0,3.9,20.28H8.36l5.78,4.32a1.37,1.37,0,0,0,.83.27,1.43,1.43,0,0,0,.61-.14,1.35,1.35,0,0,0,.76-1.21V19.9l-9.2-9.2Z"/><path class="cls-2" d="M22.35,15.49a6.79,6.79,0,0,0-2.18-4.94,1.26,1.26,0,0,0-1.76,0,1.2,1.2,0,0,0,0,1.73,4.33,4.33,0,0,1,1.42,3.17,3.94,3.94,0,0,1-.07.69l2,2A6.6,6.6,0,0,0,22.35,15.49Z"/><path class="cls-2" d="M28.5,15.49a12.39,12.39,0,0,0-4-9,1.26,1.26,0,0,0-1.76,0,1.21,1.21,0,0,0,0,1.73A9.81,9.81,0,0,1,26,15.49a9.6,9.6,0,0,1-1.61,5.3l1.77,1.77A12.19,12.19,0,0,0,28.5,15.49Z"/><path class="cls-2" d="M6.59,4.87A1.2,1.2,0,0,0,4.9,6.57L24.65,26.32a1.2,1.2,0,0,0,1.69,0,1.19,1.19,0,0,0,0-1.69Z"/></svg>