<svg width="298" height="54" viewBox="0 0 298 54" fill="none" xmlns="http://www.w3.org/2000/svg">
<mask id="path-1-inside-1_784_68659" fill="white">
<path d="M298 54H14.4629L0 35.8047V17.6084L14.4629 0H298V54ZM10.9512 22.6104C8.62521 22.6104 6.73926 24.3558 6.73926 26.5088C6.73934 28.6617 8.62526 30.4072 10.9512 30.4072C13.277 30.4071 15.162 28.6616 15.1621 26.5088C15.1621 24.3559 13.277 22.6105 10.9512 22.6104Z"/>
</mask>
<path d="M298 54H14.4629L0 35.8047V17.6084L14.4629 0H298V54ZM10.9512 22.6104C8.62521 22.6104 6.73926 24.3558 6.73926 26.5088C6.73934 28.6617 8.62526 30.4072 10.9512 30.4072C13.277 30.4071 15.162 28.6616 15.1621 26.5088C15.1621 24.3559 13.277 22.6105 10.9512 22.6104Z" fill="#ECC8C1"/>
<path d="M298 54V55H299V54H298ZM14.4629 54L13.6801 54.6222L13.9803 55H14.4629V54ZM0 35.8047H-1V36.1537L-0.782824 36.4269L0 35.8047ZM0 17.6084L-0.772751 16.9737L-1 17.2504V17.6084H0ZM14.4629 0V-1H13.9902L13.6901 -0.634709L14.4629 0ZM298 0H299V-1H298V0ZM10.9512 22.6104L10.9512 21.6104H10.9512V22.6104ZM6.73926 26.5088H5.73926V26.5088L6.73926 26.5088ZM10.9512 30.4072V31.4072H10.9512L10.9512 30.4072ZM15.1621 26.5088L16.1621 26.5088V26.5088H15.1621ZM298 54V53H14.4629V54V55H298V54ZM14.4629 54L15.2457 53.3778L0.782824 35.1824L0 35.8047L-0.782824 36.4269L13.6801 54.6222L14.4629 54ZM0 35.8047H1V17.6084H0H-1V35.8047H0ZM0 17.6084L0.772751 18.2431L15.2356 0.634709L14.4629 0L13.6901 -0.634709L-0.772751 16.9737L0 17.6084ZM14.4629 0V1H298V0V-1H14.4629V0ZM298 0H297V54H298H299V0H298ZM10.9512 22.6104V21.6104C8.14718 21.6104 5.73926 23.7321 5.73926 26.5088H6.73926H7.73926C7.73926 24.9795 9.10324 23.6104 10.9512 23.6104V22.6104ZM6.73926 26.5088L5.73926 26.5088C5.73936 29.2854 8.14719 31.4072 10.9512 31.4072V30.4072V29.4072C9.10332 29.4072 7.73931 28.038 7.73926 26.5088L6.73926 26.5088ZM10.9512 30.4072L10.9512 31.4072C13.7553 31.4071 16.162 29.2851 16.1621 26.5088L15.1621 26.5088L14.1621 26.5088C14.1621 28.0382 12.7986 29.4071 10.9511 29.4072L10.9512 30.4072ZM15.1621 26.5088H16.1621C16.1621 23.7324 13.7553 21.6105 10.9512 21.6104L10.9512 22.6104L10.9511 23.6104C12.7987 23.6104 14.1621 24.9794 14.1621 26.5088H15.1621Z" fill="#DA9186" mask="url(#path-1-inside-1_784_68659)"/>
<path d="M59.08 7.56V26.04H54.04V7.56H59.08ZM35.56 27.72H59.08V38.32H40.64V41.12H60.2V45.12H35.76V34.52H54.2V31.72H35.56V27.72ZM38.88 25.44C32.92 25.44 29.36 21.48 29.36 17.44V16.16C29.36 12.12 32.92 8.16 38.88 8.16C44.84 8.16 48.4 12.12 48.4 16.16V17.44C48.4 21.48 44.84 25.44 38.88 25.44ZM38.88 12.4C35.88 12.4 34.12 14.36 34.12 16.24V17.36C34.12 19.24 35.88 21.2 38.88 21.2C41.88 21.2 43.64 19.24 43.64 17.36V16.24C43.64 14.36 41.88 12.4 38.88 12.4ZM91.8941 23.88H82.1341V27.24H96.6541V31.48H62.5741V27.24H77.0941V23.88H67.3341V8.36H72.3341V12.36H86.8941V8.36H91.8941V23.88ZM72.4141 33.64V40.08H92.5741V44.36H67.3741V33.64H72.4141ZM72.3341 16.52V19.72H86.8941V16.52H72.3341ZM128.428 7.56V44.76H123.428V7.56H128.428ZM109.228 28.24C103.228 28.24 99.1481 24.32 99.1481 19.84V18.24C99.1481 13.76 103.228 9.84 109.228 9.84C115.228 9.84 119.308 13.76 119.308 18.24V19.84C119.308 24.32 115.228 28.24 109.228 28.24ZM109.228 14.16C105.988 14.16 103.948 16.32 103.948 18.52V19.56C103.948 21.76 105.988 23.92 109.228 23.92C112.468 23.92 114.508 21.76 114.508 19.56V18.52C114.508 16.32 112.468 14.16 109.228 14.16ZM97.7481 37.2V32.84C109.988 32.84 116.748 32.64 121.508 32.16L121.868 36.48C117.268 37.04 110.028 37.2 97.7481 37.2ZM160.362 9.68V27H142.922V9.68H160.362ZM155.362 22.8V13.88H147.922V22.8H155.362ZM162.282 12.76H167.282V7.56H172.282V29.56H167.282V24.28H162.282V20.04H167.282V17H162.282V12.76ZM160.762 45.88C154.162 45.88 149.122 43.2 149.122 38.68V36.92C149.122 32.4 154.162 29.72 160.762 29.72C167.362 29.72 172.402 32.4 172.402 36.92V38.68C172.402 43.2 167.362 45.88 160.762 45.88ZM160.762 33.84C157.282 33.84 154.082 35.4 154.082 37.36V38.24C154.082 40.2 157.282 41.76 160.762 41.76C164.242 41.76 167.442 40.2 167.442 38.24V37.36C167.442 35.4 164.242 33.84 160.762 33.84ZM182.256 44.8V31.64H205.336V44.8H182.256ZM187.256 35.76V40.68H200.336V35.76H187.256ZM205.336 7.56V16.64H210.216V21.04H205.336V29.96H200.296V7.56H205.336ZM189.456 7.08V11.08H197.496V15.28H176.216V11.08H184.416V7.08H189.456ZM186.936 29.72C181.336 29.72 178.096 27.12 178.096 23.68V22.48C178.096 19.04 181.336 16.44 186.936 16.44C192.536 16.44 195.776 19.04 195.776 22.48V23.68C195.776 27.12 192.536 29.72 186.936 29.72ZM186.936 20.36C184.256 20.36 182.856 21.56 182.856 22.72V23.44C182.856 24.6 184.256 25.8 186.936 25.8C189.616 25.8 191.016 24.6 191.016 23.44V22.72C191.016 21.56 189.616 20.36 186.936 20.36ZM225.03 8.84H249.51V23H225.03V8.84ZM230.03 13.04V18.8H244.51V13.04H230.03ZM220.23 25.92H254.31V30.16H240.35V36.64H235.31V30.16H220.23V25.92ZM230.07 33.52V40.08H250.27V44.36H225.03V33.52H230.07ZM254.764 38.28V34C258.284 34 261.284 34 263.924 33.96V31.2C259.444 30.44 257.244 27.64 257.244 24.92V23.48C257.244 20.32 260.244 17 266.404 17C272.564 17 275.564 20.32 275.564 23.48V24.92C275.564 27.64 273.364 30.44 268.924 31.2V33.84C272.644 33.76 275.404 33.56 277.764 33.32L278.124 37.56C273.724 38.12 266.924 38.28 254.764 38.28ZM284.604 7.56V22.04H289.764V26.44H284.604V44.76H279.604V7.56H284.604ZM255.484 11.56H263.924V7.48H268.924V11.56H276.884V15.8H255.484V11.56ZM266.404 20.96C263.324 20.96 261.964 22.52 261.964 23.96V24.44C261.964 25.88 263.324 27.44 266.404 27.44C269.484 27.44 270.844 25.88 270.844 24.44V23.96C270.844 22.52 269.484 20.96 266.404 20.96Z" fill="#1E1E1E"/>
</svg>
