<svg width="722" height="375" viewBox="0 0 722 375" fill="none" xmlns="http://www.w3.org/2000/svg">
<path d="M487 117.5C487 182.407 539.593 235 604.5 235C669.407 235 722 182.407 722 117.5C722 52.5926 669.407 0 604.5 0C539.593 0 487 52.5926 487 117.5Z" fill="#C24848"/>
<path d="M514 117.5C514 167.52 554.479 208 604.5 208C654.52 208 695 167.428 695 117.5C695 67.5722 654.52 27 604.5 27C554.479 27 514 67.5722 514 117.5Z" fill="#F76969"/>
<path d="M650.87 150.258C650.87 150.258 650.592 150.258 650.407 150.351C650.407 150.722 650.5 151.093 650.592 151.464C650.778 151.464 651.055 151.371 651.055 151.278C651.055 150.907 650.963 150.536 650.87 150.165M582.774 149.887C582.774 149.887 582.126 149.701 581.849 149.701C581.571 151 581.294 152.299 581.108 153.598C581.386 153.598 581.571 153.691 581.849 153.784C582.126 152.485 582.496 151.186 582.774 149.887ZM588.418 111.845C588.048 108.32 588.418 109.711 587.215 106.371C585.179 109.062 585.92 108.134 584.439 109.711C584.162 109.062 583.607 108.505 583.607 107.856C583.607 106 583.792 104.052 580.831 105.165C580.553 105.258 580.091 105.165 579.906 105.165C577.593 103.031 575.742 100.526 573.152 98.5773C571.394 97.1856 570.283 94.866 569.081 92.8247C567.23 89.8557 565.287 86.8866 563.992 83.6392C561.864 78.1649 572.319 72.8763 578.148 79C579.443 80.3917 579.906 82.6186 582.034 80.1134C588.788 86.1443 591.471 88 593.691 90.3196C594.432 91.1546 593.691 94.4021 596.282 91.8041C600.261 95.9794 598.873 94.5876 601.556 96.3505C601.833 96.5361 602.296 96.6289 602.388 96.9072C603.406 99.7835 603.591 98.1134 605.442 97.2783C608.31 95.9794 608.865 93.8454 610.345 91.8969C612.011 89.7629 615.249 89.9485 616.544 86.4227C617.655 83.3608 620.985 81.0412 623.391 78.4433C623.669 78.165 623.946 78.0722 624.316 77.8866C624.779 79.1856 624.594 78.5361 625.241 80.2062C627.092 79.0928 624.964 80.6701 629.96 75.7526C630.145 75.567 630.793 75.567 630.885 75.7526C632.458 78.9072 633.846 76.5876 634.124 75.2887C635.049 70.8351 639.86 72.5979 641.895 70C642.728 72.134 642.358 71.0206 643.376 74.1753C646.336 72.7835 645.226 73.433 647.632 71.7629C648.094 74.4536 647.632 74.268 651.333 74.6392C650.037 79.6495 649.482 76.9588 649.76 80.299C651.24 79.4639 650.592 79.7423 651.98 79.1856C652.073 79.6495 652.443 80.2062 652.35 80.4845C650.407 84.1031 648.464 87.6289 646.336 91.1546C645.041 93.1959 641.618 93.2887 641.71 96.8144C641.71 97.5567 638.935 98.299 637.454 99.134C636.622 99.5052 635.789 99.8763 635.141 100.433C634.401 100.99 635.049 103.959 632.736 101.732C632.736 101.732 632.458 101.732 632.366 101.732C630.793 103.68 629.22 105.629 627.554 107.577C626.167 109.155 624.224 110.546 623.483 112.402C622.928 113.887 623.669 115.928 624.131 117.598C624.224 117.969 627.277 117.598 627.369 117.969C631.348 126.598 629.22 123.443 632.551 126.134C633.013 126.505 633.568 126.876 633.846 127.34C634.956 129.103 635.789 131.144 637.084 132.629C637.824 133.557 639.675 133.464 640.6 134.299C641.525 135.134 641.988 136.526 642.821 137.546C644.208 139.309 645.781 140.887 646.984 142.835C647.539 143.763 646.984 145.247 647.169 146.361C647.169 147.103 647.632 147.753 647.909 148.495C649.667 147.567 648.464 148.124 652.443 146.639C652.628 148.031 652.998 149.515 652.998 150.907C652.998 161.113 653.183 161.948 649.945 165.01C649.297 165.66 646.521 164.546 645.689 164.639C644.023 165.01 642.358 165.567 640.693 165.753C640.323 165.753 639.86 164.454 639.305 164.082C638.565 163.619 637.639 163.619 636.807 163.34C632.643 161.856 632.551 161.577 631.07 160.835C630.885 160.742 630.515 160.835 630.423 160.649C629.22 158.701 628.202 156.474 626.814 154.711C625.612 153.227 623.761 152.392 622.466 150.907C621.818 150.258 622.003 148.959 621.633 147.938C621.356 147.103 620.893 146.361 620.523 145.526C619.875 145.897 619.228 146.639 618.672 146.546C617.932 146.546 617.007 145.99 616.637 145.433C614.139 141.814 611.826 138.01 609.235 134.485C608.125 132.907 603.129 133.928 601.833 135.412C601.001 136.34 599.243 136.433 598.41 137.454C596.282 139.773 594.524 142.371 592.489 144.783C592.304 145.062 590.268 144.969 590.083 145.34C589.621 146.546 589.435 147.845 588.88 149.052C588.695 149.515 587.77 149.608 587.215 149.887C584.162 151.649 581.571 157.031 577.222 160.186C574.539 162.134 571.024 162.691 568.34 165.474C567.323 166.588 563.067 165.753 560.939 164.639C558.626 163.34 558.348 157.124 560.291 156.103C565.75 153.505 561.124 149.33 563.807 144.691C564.64 143.299 565.565 142 566.49 140.701V140.515C569.358 139.309 570.283 136.619 571.764 134.206C573.244 131.794 576.852 131.144 577.037 127.433C577.037 126.041 577.685 123.165 580.646 125.021C580.831 125.113 581.941 123.722 582.589 122.979C583.329 122.144 581.941 118.155 585.364 121.124C585.55 121.309 586.382 121.031 586.567 120.753C592.581 113.701 591.101 115 591.471 112.309C590.823 112.309 590.083 112.68 589.435 112.495C588.973 112.402 588.695 111.753 588.788 111.845" fill="white"/>
<path d="M235 120.5C235 185.407 182.407 238 117.5 238C52.5926 238 0 185.407 0 120.5C0 55.5926 52.5926 3 117.5 3C182.407 3 235 55.5926 235 120.5Z" fill="#A4A4A4"/>
<path d="M208 120.5C208 170.52 167.52 211 117.5 211C67.4795 211 27 170.428 27 120.5C27 70.5722 67.4795 30 117.5 30C167.52 30 208 70.5722 208 120.5Z" fill="white"/>
<path d="M113.254 67.0742C113.254 67.0742 113.069 67.3533 112.976 67.4464C113.254 67.6325 113.069 67.7256 113.717 67.4464C113.624 67.3533 113.439 67.2603 113.347 67.0742M153.419 116.951C153.974 115.742 154.344 115.276 154.344 114.718C154.344 114.346 153.882 113.88 153.604 113.415C152.308 115.835 152.493 114.904 153.419 116.951ZM153.234 136.493C156.01 131.002 153.326 116.765 148.977 112.578C147.866 111.554 144.72 104.761 143.702 103.365C142.406 101.597 140.37 100.295 139.074 98.4335C136.668 95.0835 136.853 91.4544 134.262 92.7572C132.318 93.6877 130.468 94.4322 128.987 92.0127C128.617 91.4544 127.691 90.71 127.136 90.803C123.804 91.2683 122.231 89.7794 121.861 86.5225C121.861 86.1503 121.398 85.7781 121.12 85.4989C121.12 85.4989 120.565 85.7781 120.473 85.9642C120.102 88.3836 119.27 88.2906 117.789 86.6156C117.419 86.2434 116.401 86.6156 115.66 86.5225C112.236 86.1503 108.719 89.3142 105.388 86.1503C105.203 85.9642 104.185 86.1503 104.092 86.3364C103.444 88.1045 103.629 89.8725 100.483 89.5933C97.9841 89.3142 95.7631 93.3155 92.524 90.803C92.4314 90.803 91.9687 90.8961 91.7836 91.0822C87.3414 96.2002 89.7476 92.478 80.8633 107.46C80.7707 107.646 80.6782 107.739 80.5856 107.925C77.5316 117.417 76.8838 110.903 80.4005 133.236C80.4931 133.794 80.7707 134.352 81.1409 134.911C82.344 136.679 84.7502 138.447 84.5651 140.029C84.1024 144.588 89.3774 144.681 90.0253 148.124C90.0253 148.218 90.488 148.124 90.6731 148.311C92.4314 149.706 96.3183 149.148 95.1152 153.242C95.1152 153.336 95.3929 153.708 95.578 153.708C96.9661 153.708 98.6319 153.336 99.835 153.894C102.796 155.29 105.48 157.151 108.442 158.733C109.922 159.477 112.699 158.174 114.18 157.988C116.493 157.802 119.084 158.453 121.028 157.523C124.545 155.848 125.748 150.73 130.375 150.265C130.468 150.265 130.56 149.799 130.745 149.706C131.393 149.427 132.133 149.334 132.689 149.055C134.725 148.124 137.594 148.869 138.797 147.938C142.128 145.333 144.812 141.704 147.681 138.54C147.774 138.447 148.051 138.168 148.051 138.261C151.013 140.215 150.55 137.051 151.105 136.027C151.846 134.818 151.938 133.236 152.401 131.84C152.678 133.329 152.864 134.725 153.141 136.4M163.599 155.104C166.56 149.613 165.912 151.288 165.172 149.055C163.414 150.823 164.524 148.404 162.396 156.592C162.211 157.151 161.933 157.709 161.563 158.081C161.193 158.36 159.064 156.406 158.694 156.127C158.324 156.872 157.676 157.709 157.768 158.453C157.954 161.431 157.768 163.758 153.789 162.269C152.308 161.71 149.81 165.898 148.051 167.852C147.681 168.224 144.812 167.387 144.812 167.48C142.591 170.923 138.426 169.992 135.465 171.853C134.91 172.226 133.984 172.039 133.151 172.132C123.434 173.807 123.156 175.11 118.437 175.762C116.586 176.041 114.457 174.738 112.514 174.645C111.403 174.645 110.2 175.669 108.997 175.855C105.11 176.413 101.686 175.389 99.0021 172.319C98.4469 171.667 96.7811 171.388 96.1332 171.667C92.8016 173.528 91.0433 170.644 88.7296 169.527C86.8787 168.596 85.1203 167.573 83.362 166.549C82.8993 166.27 79.8453 163.292 79.4751 162.92C77.5316 160.873 80.7707 163.199 74.8478 159.57C73.9224 159.012 72.9969 158.547 71.7938 155.941C71.0535 154.359 68.4622 148.497 67.6293 145.612C67.074 145.984 66.5187 146.449 66.7964 146.263C66.056 144.961 64.8529 143.472 64.2976 141.797C63.8349 140.494 64.2977 138.819 63.9275 137.423C63.6498 136.4 62.6318 135.469 61.984 134.539C61.7989 134.259 61.5213 133.887 61.4287 133.608C59.6704 119.836 59.4853 127.001 61.1511 102.528C61.1511 102.249 61.2437 101.876 61.4287 101.876C66.056 101.504 63.1871 97.5029 64.4827 95.5488C65.7784 93.6877 66.7964 90.8961 68.6473 90.2447C74.3851 88.0114 74.5702 82.242 78.7347 78.8921C79.3825 80.5671 79.1049 79.6365 79.8452 82.242C84.1949 72.0061 83.5471 73.8671 85.398 73.588C85.398 74.2394 85.5831 74.9838 85.6756 75.6352C82.4365 75.9143 82.9918 76.3796 83.0844 80.1948C85.398 78.6129 82.1589 81.2184 95.578 70.145C96.2258 69.5867 96.8736 69.0283 97.614 68.5631C98.632 68.0047 101.593 69.3075 102.796 69.4005C103.167 69.4005 103.629 68.2839 103.907 67.5395C104.833 64.9339 106.036 64.0034 108.257 66.3298C108.534 66.6089 109.275 66.9811 109.275 66.9811C111.958 63.7242 113.994 67.6325 116.401 67.6325C116.678 67.6325 117.141 67.6325 117.234 67.4464C119.362 64.7478 121.12 66.795 123.249 67.6325C124.637 68.1908 126.488 67.9117 128.061 68.0047C129.079 68.0047 130.375 67.6325 131.023 68.1908C132.318 69.1214 132.874 71.4477 135.095 69.4005C136.298 72.0061 135.65 70.9825 137.316 73.4019C139.259 71.7269 138.612 72.2852 139.537 71.3547C139.722 71.6338 140 71.913 140.185 72.2852C140.74 73.4019 141.11 74.6116 141.758 75.6352C142.036 76.0074 143.331 76.2866 143.516 76.0074C146.478 72.9366 148.421 75.5421 150.365 77.2171C152.864 79.3574 155.362 81.4976 157.676 83.7309C160.082 86.0573 157.676 92.0127 162.673 89.5003C162.766 89.5003 163.229 89.6864 163.321 89.8725C165.635 94.6183 167.301 99.8293 170.447 103.924C172.576 106.715 171.095 109.228 171.928 111.554C172.391 112.857 174.149 113.787 174.519 115.09C175.074 117.23 175.074 119.65 174.889 121.883C174.612 126.908 172.853 132.119 173.871 136.772C174.982 142.076 168.596 143.751 169.707 148.404C170.077 142.913 170.355 144.961 169.707 142.913C167.578 144.402 169.707 140.959 165.172 155.662C164.709 155.476 164.154 155.29 163.691 155.01" fill="#C6C5C5"/>
<path d="M400.139 375L390.986 375L368.322 317.943L375.963 314.881L400.139 375Z" fill="#FFDF5B"/>
<path d="M330.16 158.635C335.254 171.401 330.16 185.417 318.806 189.945C307.409 194.473 294.07 187.832 288.976 175.066C283.882 162.301 288.976 148.285 300.373 143.756C311.769 139.228 325.109 145.87 330.203 158.635" fill="#9DC93A"/>
<path d="M294.673 164.154C294.673 164.585 294.76 164.974 294.932 165.405C295.709 167.346 297.911 168.294 299.854 167.518L300.07 167.432C301.581 166.828 302.53 165.319 302.444 163.766C302.444 163.378 302.358 162.947 302.185 162.558C301.408 160.618 299.206 159.669 297.264 160.445L297.048 160.532C295.537 161.135 294.587 162.645 294.673 164.197" fill="#D3E5A3"/>
<path d="M348.292 203.963C353.386 216.729 348.292 230.745 336.938 235.273C325.541 239.802 312.201 233.16 307.107 220.395C302.013 207.629 307.107 193.613 318.461 189.085C329.815 184.556 343.197 191.198 348.292 203.963Z" fill="#9DC93A"/>
<path d="M312.761 209.479C312.761 209.91 312.848 210.298 313.02 210.686C313.797 212.627 315.999 213.576 317.942 212.799L318.158 212.713C319.668 212.109 320.618 210.6 320.532 209.047C320.532 208.659 320.446 208.228 320.273 207.84C319.496 205.899 317.294 204.95 315.351 205.727L315.136 205.813C313.625 206.417 312.675 207.926 312.761 209.479Z" fill="#D3E5A3"/>
<path d="M366.379 249.33C371.473 262.096 366.379 276.112 355.026 280.64C343.629 285.169 330.289 278.527 325.195 265.762C320.101 252.996 325.195 238.98 336.549 234.452C347.903 229.923 361.285 236.565 366.379 249.33Z" fill="#9DC93A"/>
<path d="M330.893 254.807C330.893 255.238 330.979 255.626 331.152 256.014C331.929 257.955 334.13 258.904 336.073 258.127L336.289 258.041C337.8 257.437 338.75 255.928 338.663 254.375C338.663 253.987 338.577 253.556 338.404 253.168C337.627 251.227 335.425 250.278 333.483 251.055L333.31 251.141C331.799 251.745 330.849 253.254 330.936 254.807" fill="#D3E5A3"/>
<path d="M384.51 294.659C389.604 307.424 384.51 321.44 373.157 325.969C361.76 330.497 348.42 323.855 343.326 311.09C338.232 298.324 343.326 284.308 354.68 279.78C366.077 275.252 379.416 281.893 384.51 294.659Z" fill="#9DC93A"/>
<path d="M349.025 300.135C349.025 300.566 349.111 300.954 349.284 301.342C350.061 303.283 352.263 304.232 354.205 303.456L354.421 303.369C355.932 302.766 356.882 301.256 356.796 299.704C356.796 299.315 356.709 298.884 356.537 298.496C355.759 296.555 353.558 295.606 351.615 296.383L351.399 296.469C349.888 297.073 348.939 298.582 349.025 300.135Z" fill="#D3E5A3"/>
<path d="M394.268 120.469L394.268 122.15C394.268 124.221 395.951 125.859 397.98 125.859C400.009 125.859 401.693 124.177 401.693 122.15L401.693 120.469C401.693 118.398 400.009 116.76 397.98 116.76C395.951 116.76 394.268 118.442 394.268 120.469Z" fill="#F4AC97"/>
<path d="M394.613 173.861L394.613 176.19C394.613 178.174 396.254 179.812 398.24 179.812C400.225 179.812 401.866 178.174 401.866 176.19L401.866 173.861C401.866 171.877 400.225 170.238 398.24 170.238C396.254 170.238 394.613 171.877 394.613 173.861Z" fill="#FCD79D"/>
<path d="M406.959 298.105L406.959 375L415.118 375L415.118 298.105L406.959 298.105Z" fill="#FFDF5B"/>
<path d="M411.319 103.003C424.184 103.003 434.588 114.776 434.588 129.31C434.588 143.844 424.184 155.617 411.319 155.617C398.455 155.617 388.051 143.844 388.051 129.31C388.051 114.776 398.455 103.003 411.319 103.003Z" fill="#E94A3F"/>
<path d="M411.319 154.62C424.184 154.62 434.588 166.393 434.588 180.927C434.588 195.461 424.184 207.234 411.319 207.234C398.455 207.234 388.051 195.461 388.051 180.927C388.051 166.393 398.455 154.62 411.319 154.62Z" fill="#F6AA2D"/>
<path d="M411.319 205.815C424.184 205.815 434.588 217.589 434.588 232.122C434.588 246.656 424.184 258.43 411.319 258.43C398.455 258.43 388.051 246.656 388.051 232.122C388.051 217.589 398.455 205.815 411.319 205.815Z" fill="#E94A3F"/>
<path d="M411.319 258.042C424.184 258.042 434.588 269.815 434.588 284.349C434.588 298.883 424.184 310.656 411.319 310.656C398.455 310.656 388.051 298.883 388.051 284.349C388.051 269.815 398.455 258.042 411.319 258.042Z" fill="#F6AA2D"/>
<path d="M394.268 223.281L394.268 224.963C394.268 227.033 395.951 228.672 397.98 228.672C400.009 228.672 401.693 226.99 401.693 224.963L401.693 223.281C401.693 221.254 400.009 219.572 397.98 219.572C395.951 219.572 394.268 221.254 394.268 223.281Z" fill="#F4AC97"/>
<path d="M394.268 117.711L394.268 119.393C394.268 121.463 395.951 123.102 397.98 123.102C400.009 123.102 401.693 121.42 401.693 119.393L401.693 117.711C401.693 115.684 400.009 114.002 397.98 114.002C395.951 114.002 394.268 115.684 394.268 117.711Z" fill="#F4AC97"/>
<path d="M394.791 277.623L394.791 279.995C394.791 281.978 396.431 283.617 398.417 283.617C400.403 283.617 402.044 281.978 402.044 279.995L402.044 277.623C402.044 275.639 400.403 274 398.417 274C396.431 274 394.791 275.639 394.791 277.623Z" fill="#FCD79D"/>
<path d="M394.791 173.623L394.791 175.995C394.791 177.978 396.431 179.617 398.417 179.617C400.403 179.617 402.044 177.978 402.044 175.995L402.044 173.623C402.044 171.639 400.403 170 398.417 170C396.431 170 394.791 171.639 394.791 173.623Z" fill="#FCD79D"/>
</svg>
