<svg width="480" height="460" viewBox="0 0 480 460" fill="none" xmlns="http://www.w3.org/2000/svg">
<path d="M331.944 172.233C331.291 172.233 330.775 171.718 330.775 171.065V153.202C330.775 152.549 331.291 152.034 331.944 152.034C332.596 152.034 333.112 152.549 333.112 153.202V171.065C333.112 171.718 332.596 172.233 331.944 172.233Z" fill="#D38090"/>
<path d="M337.235 151.588C337.235 154.508 334.864 156.878 331.944 156.878C329.023 156.878 326.652 154.508 326.652 151.588C326.652 148.668 329.023 146.297 331.944 146.297C334.864 146.297 337.235 148.668 337.235 151.588Z" fill="#008B63"/>
<path d="M316.242 175.394C315.658 175.669 314.937 175.394 314.696 174.81L307.446 158.458C307.172 157.874 307.446 157.153 308.065 156.912C308.649 156.638 309.37 156.912 309.611 157.496L316.861 173.848C317.135 174.432 316.861 175.153 316.277 175.394" fill="#D38090"/>
<path d="M312.737 154.37C313.94 157.05 312.737 160.176 310.057 161.378C307.377 162.58 304.251 161.378 303.048 158.699C301.845 156.019 303.048 152.893 305.762 151.691C308.442 150.488 311.569 151.691 312.771 154.37" fill="#008B63"/>
<path d="M305.796 182.436C305.35 182.917 304.628 182.952 304.147 182.539L290.885 170.55C290.404 170.104 290.369 169.382 290.782 168.867C291.228 168.386 291.984 168.352 292.465 168.798L305.727 180.787C306.208 181.234 306.243 181.99 305.831 182.436" fill="#D38090"/>
<path d="M294.046 164.676C296.21 166.634 296.382 170 294.424 172.165C292.465 174.329 289.098 174.501 286.933 172.542C284.769 170.584 284.597 167.218 286.555 165.054C288.514 162.889 291.881 162.718 294.046 164.676Z" fill="#008B63"/>
<path d="M344.794 175.394C345.378 175.669 346.1 175.394 346.34 174.81L353.59 158.458C353.865 157.874 353.59 157.153 353.006 156.912C352.422 156.638 351.7 156.912 351.46 157.496L344.21 173.848C343.935 174.432 344.21 175.153 344.829 175.394" fill="#D38090"/>
<path d="M348.299 154.37C347.096 157.05 348.299 160.176 350.979 161.378C353.659 162.58 356.785 161.378 357.988 158.699C359.19 156.019 357.988 152.893 355.273 151.691C352.593 150.488 349.467 151.691 348.264 154.37" fill="#008B63"/>
<path d="M355.239 182.436C355.686 182.917 356.407 182.952 356.888 182.539L370.151 170.55C370.632 170.104 370.666 169.382 370.254 168.867C369.807 168.386 369.086 168.352 368.605 168.798L355.342 180.787C354.861 181.234 354.827 181.99 355.274 182.436" fill="#D38090"/>
<path d="M366.988 164.676C364.823 166.634 364.652 170 366.61 172.165C368.569 174.329 371.936 174.501 374.1 172.542C376.265 170.584 376.437 167.218 374.478 165.054C372.52 162.889 369.153 162.718 366.988 164.676Z" fill="#008B63"/>
<path d="M350.565 439.014H343.968C339.571 439.014 335.963 435.407 335.963 431.01V427.884C335.963 423.487 339.571 419.88 343.968 419.88H350.565C354.963 419.88 358.571 423.487 358.571 427.884V431.01C358.571 435.407 354.963 439.014 350.565 439.014Z" fill="#4C4948"/>
<path d="M336.548 435.235C335.895 435.235 335.277 434.857 335.002 434.205C334.658 433.346 335.071 432.384 335.93 432.006C338.816 430.838 343.866 428.296 345.275 426.51C345.825 425.823 346.821 425.651 347.577 426.166C350.223 428.056 355.411 431.01 357.885 431.01C358.812 431.01 359.568 431.766 359.568 432.693C359.568 433.621 358.812 434.377 357.885 434.377C354.38 434.377 349.192 431.25 346.821 429.705C343.763 432.384 337.922 434.789 337.201 435.098C336.995 435.167 336.789 435.235 336.582 435.235H336.548Z" fill="#FFDF5B"/>
<path d="M325.278 439.014H318.681C314.283 439.014 310.676 435.407 310.676 431.01V427.884C310.676 423.487 314.283 419.88 318.681 419.88H325.278C329.676 419.88 333.284 423.487 333.284 427.884V431.01C333.284 435.407 329.676 439.014 325.278 439.014Z" fill="#4C4948"/>
<path d="M359.979 330.838L307.96 330.186L301.535 406.757H365.614L359.979 330.838Z" fill="#CC1A28"/>
<path d="M301.537 406.757L299.922 425.96H367.058L365.615 406.757H301.537Z" fill="#B4121F"/>
<path d="M311.259 435.235C310.606 435.235 309.988 434.858 309.713 434.205C309.369 433.346 309.782 432.384 310.641 432.006C313.492 430.838 318.577 428.296 319.986 426.51C320.536 425.789 321.532 425.651 322.288 426.166C324.968 428.056 330.122 431.01 332.63 431.01C333.558 431.01 334.314 431.766 334.314 432.693C334.314 433.621 333.558 434.377 332.63 434.377C329.125 434.377 323.937 431.251 321.567 429.705C318.509 432.384 312.702 434.789 311.946 435.098C311.74 435.167 311.534 435.235 311.328 435.235H311.259Z" fill="#FFDF5B"/>
<path d="M315.966 377.661C311.603 377.661 308.029 374.088 308.029 369.725C308.029 365.363 311.603 361.79 315.966 361.79C320.33 361.79 323.903 365.363 323.903 369.725C323.903 374.088 320.33 377.661 315.966 377.661ZM315.966 363.13C312.324 363.13 309.369 366.084 309.369 369.725C309.369 373.367 312.324 376.321 315.966 376.321C319.608 376.321 322.563 373.367 322.563 369.725C322.563 366.084 319.608 363.13 315.966 363.13Z" fill="#B4121F"/>
<path d="M316.172 369.966H310.641V366.427H313.286V367.767H311.946V368.626H314.832V364.744H316.172V369.966Z" fill="#B4121F"/>
<path d="M316.826 374.466H315.486V370.996H318.372V365.912H320.365V367.252H319.678V372.336H316.826V374.466Z" fill="#B4121F"/>
<path d="M314.524 373.435H311.432V371.512H312.772V372.096H313.218V369.382H314.524V373.435Z" fill="#B4121F"/>
<path d="M321.017 367.527H317.271V368.867H321.017V367.527Z" fill="#B4121F"/>
<path d="M322.667 399.062C318.304 399.062 314.73 395.49 314.73 391.127C314.73 386.764 318.304 383.191 322.667 383.191C327.031 383.191 330.604 386.764 330.604 391.127C330.604 395.49 327.031 399.062 322.667 399.062ZM322.667 384.497C319.025 384.497 316.07 387.451 316.07 391.092C316.07 394.734 319.025 397.688 322.667 397.688C326.309 397.688 329.264 394.734 329.264 391.092C329.264 387.451 326.309 384.497 322.667 384.497Z" fill="#B4121F"/>
<path d="M322.874 391.367H317.342V387.829H319.987V389.134H318.647V390.027H321.534V386.111H322.874V391.367Z" fill="#B4121F"/>
<path d="M323.526 395.833H322.186V392.363H325.072V387.279H327.064V388.619H326.412V393.703H323.526V395.833Z" fill="#B4121F"/>
<path d="M321.223 394.837H318.131V392.913H319.471V393.497H319.917V390.749H321.223V394.837Z" fill="#B4121F"/>
<path d="M327.718 388.928H323.973V390.268H327.718V388.928Z" fill="#B4121F"/>
<path d="M350.978 373.229C346.614 373.229 343.041 369.657 343.041 365.294C343.041 360.931 346.614 357.358 350.978 357.358C355.341 357.358 358.915 360.931 358.915 365.294C358.915 369.657 355.341 373.229 350.978 373.229ZM350.978 358.664C347.336 358.664 344.381 361.618 344.381 365.259C344.381 368.901 347.336 371.855 350.978 371.855C354.62 371.855 357.575 368.901 357.575 365.259C357.575 361.618 354.62 358.664 350.978 358.664Z" fill="#B4121F"/>
<path d="M351.149 365.534H345.617V361.962H348.297V363.301H346.957V364.194H349.843V360.278H351.149V365.534Z" fill="#B4121F"/>
<path d="M351.836 370H350.496V366.53H353.348V361.446H355.375V362.786H354.688V367.87H351.836V370Z" fill="#B4121F"/>
<path d="M349.536 369.004H346.443V367.08H347.783V367.664H348.196V364.916H349.536V369.004Z" fill="#B4121F"/>
<path d="M356.029 363.095H352.25V364.435H356.029V363.095Z" fill="#B4121F"/>
<path d="M351.458 400.299C347.095 400.299 343.521 396.726 343.521 392.364C343.521 388.001 347.095 384.428 351.458 384.428C355.822 384.428 359.395 388.001 359.395 392.364C359.395 396.726 355.822 400.299 351.458 400.299ZM351.458 385.768C347.816 385.768 344.861 388.722 344.861 392.364C344.861 396.005 347.816 398.959 351.458 398.959C355.1 398.959 358.055 396.005 358.055 392.364C358.055 388.722 355.1 385.768 351.458 385.768Z" fill="#B4121F"/>
<path d="M351.665 392.604H346.133V389.066H348.778V390.405H347.438V391.264H350.325V387.382H351.665V392.604Z" fill="#B4121F"/>
<path d="M352.318 397.104H350.979V393.634H353.865V388.55H355.857V389.89H355.205V394.974H352.318V397.104Z" fill="#B4121F"/>
<path d="M350.05 396.074H346.924V394.15H348.264V394.734H348.71V392.02H350.05V396.074Z" fill="#B4121F"/>
<path d="M356.543 390.165H352.764V391.505H356.543V390.165Z" fill="#B4121F"/>
<path d="M350.978 391.952L333.936 405.315L316.447 391.952V343.412H350.978V391.952Z" fill="#FFDF5B"/>
<path d="M345.997 388.928L333.868 399.99L321.465 388.928V348.667H345.997V388.928Z" fill="#B4121F"/>
<path d="M366.131 220.808C365.959 201.502 350.188 186.009 330.879 186.181C311.604 186.352 296.074 202.12 296.246 221.426C296.383 237.366 306.519 252.343 321.533 256.912V257.908C321.533 263.542 341.977 263.542 341.977 257.908V256.603C356.613 251.553 366.268 236.576 366.131 220.808Z" fill="#FBDACF"/>
<path d="M343.281 223.006C343.281 224.724 341.975 226.098 340.326 226.132C338.677 226.167 337.337 224.792 337.303 223.075C337.303 221.357 338.608 219.983 340.258 219.949C341.907 219.949 343.247 221.323 343.281 223.006Z" fill="#4C4948"/>
<path d="M327.752 223.075C327.752 224.793 326.446 226.167 324.797 226.201C323.148 226.201 321.808 224.861 321.773 223.144C321.773 221.426 323.079 220.052 324.728 220.018C326.377 220.018 327.717 221.392 327.752 223.075Z" fill="#4C4948"/>
<path d="M337.99 216.136C337.475 216.136 337.062 215.723 337.062 215.208C337.062 214.693 337.475 214.281 337.99 214.246H341.014V214.212C341.529 214.212 341.941 214.624 341.941 215.139C341.941 215.655 341.529 216.067 341.014 216.101H337.99V216.136Z" fill="#4C4948"/>
<path d="M322.254 216.136C321.738 216.136 321.326 215.723 321.326 215.208C321.326 214.693 321.738 214.281 322.254 214.246H325.277V214.212C325.793 214.212 326.205 214.624 326.205 215.139C326.205 215.655 325.793 216.067 325.277 216.101H322.254V216.136Z" fill="#4C4948"/>
<path d="M340.464 234.377C336.96 241.625 327.958 241.969 323.869 233.862L340.464 234.377Z" fill="#E7553B"/>
<path d="M359.91 319.296L367.16 352.927H298.512L306.723 319.056L359.91 319.296Z" fill="#FFDF5B"/>
<path d="M304.869 228.778C304.869 231.595 307.171 233.896 309.989 233.896C312.806 233.896 315.108 231.595 315.108 228.778C315.108 225.961 312.806 223.659 309.989 223.659C307.171 223.659 304.869 225.961 304.869 228.778Z" fill="#F8CBC6"/>
<path d="M347.68 228.778C347.68 231.595 349.982 233.896 352.799 233.896C355.616 233.896 357.919 231.595 357.919 228.778C357.919 225.961 355.616 223.659 352.799 223.659C349.982 223.659 347.68 225.961 347.68 228.778Z" fill="#F8CBC6"/>
<path d="M296.829 232.969C293.324 232.969 290.473 230.117 290.473 226.613C290.473 223.11 293.324 220.258 296.829 220.258C300.334 220.258 303.185 223.11 303.185 226.613C303.185 230.117 300.334 232.969 296.829 232.969Z" fill="#FBDACF"/>
<path d="M367.641 234.034C364.137 234.034 361.285 231.182 361.285 227.678C361.285 224.174 364.137 221.323 367.641 221.323C371.146 221.323 373.998 224.174 373.998 227.678C373.998 231.182 371.146 234.034 367.641 234.034Z" fill="#FBDACF"/>
<path d="M330.878 186.764C311.844 186.936 296.554 202.257 296.279 221.186C297.447 220.979 298.581 220.361 299.578 219.708C305.006 215.998 308.408 210.021 311.912 204.422C312.531 203.425 313.218 202.395 314.249 201.811C315.176 201.261 316.31 201.192 317.375 201.124C325.725 200.643 334.074 200.437 342.457 200.505C344.175 200.505 345.927 200.574 347.508 201.227C351.459 202.91 352.799 207.754 355.616 210.983C358.125 213.8 361.801 215.277 365.546 215.758C362.694 199.166 348.229 186.593 330.844 186.73" fill="#4C4948"/>
<path d="M301.984 338.053L307.309 290.372C307.309 273.195 303.083 259.111 332.597 259.111C346.512 259.111 357.713 265.157 357.885 290.372L364.482 338.053H301.949H301.984Z" fill="#CC1A28"/>
<path d="M344.758 255.675H318.371V262.271H344.758V255.675Z" fill="#CC1A28"/>
<path d="M311.775 296.933L319.231 260.313C307.961 258.801 303.391 265.569 303.391 265.569L284.219 296.933C273.706 319.468 288.411 328.125 293.599 328.125H328.92V296.933H311.74H311.775Z" fill="#CC1A28"/>
<path d="M333.042 297.963H315.52V329.155H333.042V297.963Z" fill="#FFDF5B"/>
<path d="M351.769 297.963L344.279 261.344C355.549 259.832 360.118 266.565 360.118 266.565L379.29 297.929C389.804 320.464 375.098 329.121 369.91 329.121H334.59V297.929H351.769V297.963Z" fill="#CC1A28"/>
<path d="M347.679 297.963H330.156V329.155H347.679V297.963Z" fill="#FFDF5B"/>
<path d="M348.23 285.871C343.866 285.871 340.293 282.299 340.293 277.936C340.293 273.573 343.866 270 348.23 270C352.593 270 356.167 273.573 356.167 277.936C356.167 282.299 352.593 285.871 348.23 285.871ZM348.23 271.34C344.588 271.34 341.633 274.295 341.633 277.936C341.633 281.577 344.588 284.532 348.23 284.532C351.872 284.532 354.827 281.577 354.827 277.936C354.827 274.295 351.872 271.34 348.23 271.34Z" fill="#B4121F"/>
<path d="M348.401 278.176H342.869V274.638H345.515V275.978H344.209V276.836H347.061V272.955H348.401V278.176Z" fill="#B4121F"/>
<path d="M349.088 282.676H347.748V279.207H350.6V274.123H352.593V275.462H351.94V280.546H349.088V282.676Z" fill="#B4121F"/>
<path d="M346.786 281.646H343.693V279.722H344.999V280.306H345.446V277.592H346.786V281.646Z" fill="#B4121F"/>
<path d="M353.279 275.737H349.5V277.077H353.279V275.737Z" fill="#B4121F"/>
<path d="M326.824 297.929C322.46 297.929 318.887 294.356 318.887 289.994C318.887 285.631 322.46 282.058 326.824 282.058C331.187 282.058 334.76 285.631 334.76 289.994C334.76 294.356 331.187 297.929 326.824 297.929ZM326.824 283.398C323.182 283.398 320.227 286.352 320.227 289.994C320.227 293.635 323.182 296.589 326.824 296.589C330.466 296.589 333.42 293.635 333.42 289.994C333.42 286.352 330.466 283.398 326.824 283.398Z" fill="#B4121F"/>
<path d="M326.997 290.234H321.465V286.695H324.145V288.035H322.805V288.894H325.691V285.012H326.997V290.234Z" fill="#B4121F"/>
<path d="M327.684 294.734H326.344V291.264H329.23V286.18H331.223V287.52H330.535V292.604H327.684V294.734Z" fill="#B4121F"/>
<path d="M325.381 293.703H322.289V291.78H323.629V292.364H324.076V289.65H325.381V293.703Z" fill="#B4121F"/>
<path d="M331.874 287.795H328.129V289.135H331.874V287.795Z" fill="#B4121F"/>
<path d="M314.765 281.199C310.401 281.199 306.828 277.627 306.828 273.264C306.828 268.901 310.401 265.329 314.765 265.329C319.128 265.329 322.702 268.901 322.702 273.264C322.702 277.627 319.128 281.199 314.765 281.199ZM314.765 266.668C311.123 266.668 308.168 269.623 308.168 273.264C308.168 276.905 311.123 279.86 314.765 279.86C318.407 279.86 321.362 276.905 321.362 273.264C321.362 269.623 318.407 266.668 314.765 266.668Z" fill="#B4121F"/>
<path d="M314.97 273.504H309.404V269.966H312.084V271.306H310.744V272.165H313.63V268.283H314.97V273.504Z" fill="#B4121F"/>
<path d="M315.623 278.004H314.283V274.535H317.169V269.451H319.162V270.79H318.509V275.875H315.623V278.004Z" fill="#B4121F"/>
<path d="M313.321 276.974H310.229V275.05H311.568V275.634H311.981V272.92H313.321V276.974Z" fill="#B4121F"/>
<path d="M319.815 271.065H316.07V272.405H319.815V271.065Z" fill="#B4121F"/>
<path d="M297.654 316.204C293.29 316.204 289.717 312.632 289.717 308.269C289.717 303.906 293.29 300.333 297.654 300.333C302.017 300.333 305.59 303.906 305.59 308.269C305.59 312.632 302.017 316.204 297.654 316.204ZM297.654 301.673C294.012 301.673 291.057 304.628 291.057 308.269C291.057 311.91 294.012 314.865 297.654 314.865C301.296 314.865 304.25 311.91 304.25 308.269C304.25 304.628 301.296 301.673 297.654 301.673Z" fill="#B4121F"/>
<path d="M297.825 308.509H292.293V304.971H294.973V306.311H293.633V307.169H296.519V303.288H297.825V308.509Z" fill="#B4121F"/>
<path d="M298.512 313.009H297.172V309.54H300.024V304.456H302.051V305.795H301.364V310.879H298.512V313.009Z" fill="#B4121F"/>
<path d="M296.209 311.979H293.117V310.055H294.457V310.639H294.869V307.925H296.209V311.979Z" fill="#B4121F"/>
<path d="M302.704 306.07H298.959V307.41H302.704V306.07Z" fill="#B4121F"/>
<path d="M363.003 320.876C358.64 320.876 355.066 317.304 355.066 312.941C355.066 308.578 358.64 305.005 363.003 305.005C367.367 305.005 370.94 308.578 370.94 312.941C370.94 317.304 367.367 320.876 363.003 320.876ZM363.003 306.345C359.361 306.345 356.406 309.299 356.406 312.941C356.406 316.582 359.361 319.536 363.003 319.536C366.645 319.536 369.6 316.582 369.6 312.941C369.6 309.299 366.645 306.345 363.003 306.345Z" fill="#B4121F"/>
<path d="M363.174 313.181H357.643V309.643H360.288V310.948H358.983V311.841H361.869V307.925H363.174V313.181Z" fill="#B4121F"/>
<path d="M363.861 317.682H362.521V314.212H365.373V309.128H367.4V310.433H366.713V315.517H363.861V317.682Z" fill="#B4121F"/>
<path d="M361.561 316.651H358.469V314.727H359.809V315.311H360.221V312.597H361.561V316.651Z" fill="#B4121F"/>
<path d="M368.02 310.742H364.275V312.082H368.02V310.742Z" fill="#B4121F"/>
<path d="M302.91 203.013C302.91 189.066 315.554 177.798 331.153 177.798C346.752 177.798 359.396 189.1 359.396 203.013" fill="#B4121F"/>
<path d="M297.996 238.155C297.344 238.155 296.828 237.64 296.828 236.987V234.136C296.828 233.484 297.344 232.968 297.996 232.968C298.649 232.968 299.165 233.484 299.165 234.136V236.987C299.165 237.64 298.649 238.155 297.996 238.155Z" fill="#CC1A28"/>
<path d="M297.996 242.862C297.344 242.862 296.828 242.347 296.828 241.694V238.843C296.828 238.19 297.344 237.675 297.996 237.675C298.649 237.675 299.165 238.19 299.165 238.843V241.694C299.165 242.347 298.649 242.862 297.996 242.862Z" fill="#FFDF5B"/>
<path d="M297.996 247.568C297.344 247.568 296.828 247.053 296.828 246.4V243.549C296.828 242.896 297.344 242.381 297.996 242.381C298.649 242.381 299.165 242.896 299.165 243.549V246.4C299.165 247.053 298.649 247.568 297.996 247.568Z" fill="#CC1A28"/>
<path d="M297.996 252.275C297.344 252.275 296.828 251.759 296.828 251.107V248.255C296.828 247.603 297.344 247.087 297.996 247.087C298.649 247.087 299.165 247.603 299.165 248.255V251.107C299.165 251.759 298.649 252.275 297.996 252.275Z" fill="#FFDF5B"/>
<path d="M297.996 257.015C297.344 257.015 296.828 256.5 296.828 255.847V252.961C296.828 252.309 297.344 251.793 297.996 251.793C298.649 251.793 299.165 252.309 299.165 252.961V255.847C299.165 256.5 298.649 257.015 297.996 257.015Z" fill="#CC1A28"/>
<path d="M297.413 262.958C295.214 262.958 293.428 261.172 293.428 259.008C293.428 256.843 295.214 255.057 297.413 255.057C299.612 255.057 301.365 256.843 301.365 259.008C301.365 261.172 299.578 262.958 297.413 262.958Z" fill="#CC1A28"/>
<path d="M366.68 238.155C367.333 238.155 367.848 237.64 367.848 236.987V234.136C367.848 233.484 367.333 232.968 366.68 232.968C366.027 232.968 365.512 233.484 365.512 234.136V236.987C365.512 237.64 366.027 238.155 366.68 238.155Z" fill="#CC1A28"/>
<path d="M366.68 242.862C367.333 242.862 367.848 242.347 367.848 241.694V238.843C367.848 238.19 367.333 237.675 366.68 237.675C366.027 237.675 365.512 238.19 365.512 238.843V241.694C365.512 242.347 366.027 242.862 366.68 242.862Z" fill="#FFDF5B"/>
<path d="M366.68 247.568C367.333 247.568 367.848 247.053 367.848 246.4V243.549C367.848 242.896 367.333 242.381 366.68 242.381C366.027 242.381 365.512 242.896 365.512 243.549V246.4C365.512 247.053 366.027 247.568 366.68 247.568Z" fill="#CC1A28"/>
<path d="M366.68 252.275C367.333 252.275 367.848 251.759 367.848 251.107V248.255C367.848 247.603 367.333 247.087 366.68 247.087C366.027 247.087 365.512 247.603 365.512 248.255V251.107C365.512 251.759 366.027 252.275 366.68 252.275Z" fill="#FFDF5B"/>
<path d="M366.68 257.015C367.333 257.015 367.848 256.5 367.848 255.847V252.961C367.848 252.309 367.333 251.793 366.68 251.793C366.027 251.793 365.512 252.309 365.512 252.961V255.847C365.512 256.5 366.027 257.015 366.68 257.015Z" fill="#CC1A28"/>
<path d="M367.263 262.958C369.428 262.958 371.214 261.172 371.214 259.008C371.214 256.843 369.428 255.057 367.263 255.057C365.098 255.057 363.277 256.843 363.277 259.008C363.277 261.172 365.064 262.958 367.263 262.958Z" fill="#CC1A28"/>
<path d="M315.52 298.65H307.377V286.867H308.717V297.31H315.52V298.65Z" fill="#B4121F"/>
<path d="M355.926 298.65H347.68V297.311H354.586V287.486H355.926V298.65Z" fill="#B4121F"/>
<path d="M337.613 211.807H322.736C319.815 211.807 317.41 209.403 317.41 206.483C317.41 203.563 319.815 201.158 322.736 201.158H337.613C340.533 201.158 342.939 203.563 342.939 206.483C342.939 209.403 340.533 211.807 337.613 211.807Z" fill="#4C4948"/>
<path d="M315.382 211.945C312.771 211.945 310.641 209.815 310.641 207.204C310.641 204.593 312.771 202.463 315.382 202.463C317.993 202.463 320.124 204.593 320.124 207.204C320.124 209.815 317.993 211.945 315.382 211.945Z" fill="#4C4948"/>
<path d="M345.927 211.945C343.316 211.945 341.186 209.815 341.186 207.204C341.186 204.593 343.316 202.463 345.927 202.463C348.538 202.463 350.668 204.593 350.668 207.204C350.668 209.815 348.538 211.945 345.927 211.945Z" fill="#4C4948"/>
<path d="M291.916 202.532C291.916 183.123 309.473 167.905 331.153 167.905C352.834 167.905 370.391 183.157 370.391 202.532L353.589 207.17H308.889L291.916 202.532Z" fill="#CC1A28"/>
<path d="M294.423 199.063C294.423 201.296 292.602 203.116 290.369 203.116C288.135 203.116 286.314 201.296 286.314 199.063C286.314 196.83 288.135 195.009 290.369 195.009C292.602 195.009 294.423 196.83 294.423 199.063Z" fill="#FFDF5B"/>
<path d="M295.765 191.539C295.765 193.772 293.944 195.593 291.711 195.593C289.477 195.593 287.656 193.772 287.656 191.539C287.656 189.307 289.477 187.486 291.711 187.486C293.944 187.486 295.765 189.307 295.765 191.539Z" fill="#FFDF5B"/>
<path d="M298.513 183.673C298.513 185.906 296.692 187.726 294.459 187.726C292.225 187.726 290.404 185.906 290.404 183.673C290.404 181.44 292.225 179.619 294.459 179.619C296.692 179.619 298.513 181.44 298.513 183.673Z" fill="#FFDF5B"/>
<path d="M303.632 177.18C303.632 179.413 301.811 181.234 299.578 181.234C297.344 181.234 295.523 179.413 295.523 177.18C295.523 174.947 297.344 173.126 299.578 173.126C301.811 173.126 303.632 174.947 303.632 177.18Z" fill="#FFDF5B"/>
<path d="M310.779 171.924C310.779 174.157 308.958 175.978 306.724 175.978C304.491 175.978 302.67 174.157 302.67 171.924C302.67 169.691 304.491 167.871 306.724 167.871C308.958 167.871 310.779 169.691 310.779 171.924Z" fill="#FFDF5B"/>
<path d="M317.857 168.283C317.857 170.516 316.036 172.337 313.802 172.337C311.569 172.337 309.748 170.516 309.748 168.283C309.748 166.05 311.569 164.229 313.802 164.229C316.036 164.229 317.857 166.05 317.857 168.283Z" fill="#FFDF5B"/>
<path d="M326.927 166.222C326.927 168.454 325.106 170.275 322.873 170.275C320.639 170.275 318.818 168.454 318.818 166.222C318.818 163.989 320.639 162.168 322.873 162.168C325.106 162.168 326.927 163.989 326.927 166.222Z" fill="#FFDF5B"/>
<path d="M335.654 166.222C335.654 168.454 333.833 170.275 331.599 170.275C329.366 170.275 327.545 168.454 327.545 166.222C327.545 163.989 329.366 162.168 331.599 162.168C333.833 162.168 335.654 163.989 335.654 166.222Z" fill="#FFDF5B"/>
<path d="M344.175 166.393C344.175 168.626 342.354 170.447 340.121 170.447C337.887 170.447 336.066 168.626 336.066 166.393C336.066 164.161 337.887 162.34 340.121 162.34C342.354 162.34 344.175 164.161 344.175 166.393Z" fill="#FFDF5B"/>
<path d="M352.558 168.626C352.558 170.859 350.737 172.68 348.504 172.68C346.27 172.68 344.449 170.859 344.449 168.626C344.449 166.393 346.27 164.573 348.504 164.573C350.737 164.573 352.558 166.393 352.558 168.626Z" fill="#FFDF5B"/>
<path d="M359.603 172.542C359.603 174.775 357.782 176.596 355.548 176.596C353.315 176.596 351.494 174.775 351.494 172.542C351.494 170.309 353.315 168.489 355.548 168.489C357.782 168.489 359.603 170.309 359.603 172.542Z" fill="#FFDF5B"/>
<path d="M365.923 177.524C365.923 179.757 364.102 181.577 361.869 181.577C359.635 181.577 357.814 179.757 357.814 177.524C357.814 175.291 359.635 173.47 361.869 173.47C364.102 173.47 365.923 175.291 365.923 177.524Z" fill="#FFDF5B"/>
<path d="M370.665 183.02C370.665 185.253 368.844 187.073 366.611 187.073C364.378 187.073 362.557 185.253 362.557 183.02C362.557 180.787 364.378 178.966 366.611 178.966C368.844 178.966 370.665 180.787 370.665 183.02Z" fill="#FFDF5B"/>
<path d="M374.308 190.337C374.308 192.57 372.487 194.391 370.254 194.391C368.02 194.391 366.199 192.57 366.199 190.337C366.199 188.104 368.02 186.284 370.254 186.284C372.487 186.284 374.308 188.104 374.308 190.337Z" fill="#FFDF5B"/>
<path d="M376.404 198.788C376.404 201.021 374.583 202.842 372.349 202.842C370.116 202.842 368.295 201.021 368.295 198.788C368.295 196.555 370.116 194.734 372.349 194.734C374.583 194.734 376.404 196.555 376.404 198.788Z" fill="#FFDF5B"/>
<path d="M331.943 188.276C331.222 188.276 330.604 187.692 330.604 186.971V177.696C330.604 176.974 331.188 176.356 331.943 176.356C332.699 176.356 333.249 176.94 333.249 177.696V186.971C333.249 187.692 332.665 188.276 331.943 188.276Z" fill="#FFDF5B"/>
<path d="M337.922 182.333C337.922 183.055 337.338 183.639 336.582 183.639H327.34C326.618 183.639 326 183.055 326 182.333C326 181.612 326.584 181.028 327.34 181.028H336.582C337.304 181.028 337.922 181.612 337.922 182.333Z" fill="#FFDF5B"/>
<path d="M311.878 193.223C311.329 193.223 310.848 192.776 310.848 192.192V185.081C310.848 184.532 311.294 184.051 311.878 184.051C312.463 184.051 312.909 184.497 312.909 185.081V192.192C312.909 192.742 312.463 193.223 311.878 193.223Z" fill="#FFDF5B"/>
<path d="M316.448 188.654C316.448 189.204 315.967 189.685 315.417 189.685H308.305C307.755 189.685 307.309 189.238 307.309 188.654C307.309 188.07 307.755 187.624 308.305 187.624H315.417C315.967 187.624 316.448 188.104 316.448 188.654Z" fill="#FFDF5B"/>
<path d="M352.455 193.223C351.905 193.223 351.424 192.776 351.424 192.192V185.081C351.424 184.532 351.87 184.051 352.455 184.051C353.039 184.051 353.485 184.497 353.485 185.081V192.192C353.485 192.742 353.004 193.223 352.455 193.223Z" fill="#FFDF5B"/>
<path d="M357.024 188.654C357.024 189.204 356.577 189.685 355.993 189.685H348.881C348.331 189.685 347.885 189.238 347.885 188.654C347.885 188.07 348.331 187.624 348.881 187.624H355.993C356.543 187.624 357.024 188.104 357.024 188.654Z" fill="#FFDF5B"/>
<path d="M335.174 195.009C335.174 196.555 333.903 197.826 332.356 197.826C330.81 197.826 329.539 196.555 329.539 195.009C329.539 193.463 330.81 192.192 332.356 192.192C333.903 192.192 335.174 193.463 335.174 195.009Z" fill="white"/>
<path d="M335.174 199.99C335.174 201.536 333.903 202.807 332.356 202.807C330.81 202.807 329.539 201.536 329.539 199.99C329.539 198.444 330.81 197.173 332.356 197.173C333.903 197.173 335.174 198.444 335.174 199.99Z" fill="white"/>
<path d="M329.882 194.7C331.428 194.7 332.699 195.971 332.699 197.517C332.699 199.062 331.428 200.333 329.882 200.333C328.336 200.333 327.064 199.062 327.064 197.517C327.064 195.971 328.336 194.7 329.882 194.7Z" fill="white"/>
<path d="M334.864 194.7C336.41 194.7 337.682 195.971 337.682 197.517C337.682 199.062 336.41 200.333 334.864 200.333C333.318 200.333 332.047 199.062 332.047 197.517C332.047 195.971 333.318 194.7 334.864 194.7Z" fill="white"/>
<path d="M334.623 197.208C334.623 198.41 333.627 199.406 332.459 199.406C331.291 199.406 330.26 198.444 330.26 197.208C330.26 195.971 331.222 195.043 332.459 195.043C333.696 195.043 334.623 196.005 334.623 197.208Z" fill="#CC1A28"/>
<path d="M324.488 197.517C324.488 199.062 323.217 200.333 321.671 200.333C320.125 200.333 318.854 199.062 318.854 197.517C318.854 195.971 320.125 194.7 321.671 194.7C323.217 194.7 324.488 195.971 324.488 197.517Z" fill="white"/>
<path d="M324.488 202.498C324.488 204.044 323.217 205.315 321.671 205.315C320.125 205.315 318.854 204.044 318.854 202.498C318.854 200.952 320.125 199.681 321.671 199.681C323.217 199.681 324.488 200.952 324.488 202.498Z" fill="white"/>
<path d="M319.161 197.173C320.707 197.173 321.979 198.444 321.979 199.99C321.979 201.536 320.707 202.807 319.161 202.807C317.615 202.807 316.344 201.536 316.344 199.99C316.344 198.444 317.615 197.173 319.161 197.173Z" fill="white"/>
<path d="M324.144 197.173C325.69 197.173 326.961 198.444 326.961 199.99C326.961 201.536 325.69 202.807 324.144 202.807C322.597 202.807 321.326 201.536 321.326 199.99C321.326 198.444 322.597 197.173 324.144 197.173Z" fill="white"/>
<path d="M323.903 199.681C323.903 200.883 322.941 201.879 321.739 201.879C320.536 201.879 319.574 200.917 319.574 199.681C319.574 198.444 320.536 197.517 321.739 197.517C322.941 197.517 323.903 198.478 323.903 199.681Z" fill="#CC1A28"/>
<path d="M313.732 201.089C313.732 202.635 312.461 203.906 310.915 203.906C309.369 203.906 308.098 202.635 308.098 201.089C308.098 199.543 309.369 198.272 310.915 198.272C312.461 198.272 313.732 199.543 313.732 201.089Z" fill="white"/>
<path d="M313.732 206.07C313.732 207.616 312.461 208.887 310.915 208.887C309.369 208.887 308.098 207.616 308.098 206.07C308.098 204.524 309.369 203.253 310.915 203.253C312.461 203.253 313.732 204.524 313.732 206.07Z" fill="white"/>
<path d="M308.407 200.746C309.953 200.746 311.225 202.017 311.225 203.563C311.225 205.109 309.953 206.38 308.407 206.38C306.861 206.38 305.59 205.109 305.59 203.563C305.59 202.017 306.861 200.746 308.407 200.746Z" fill="white"/>
<path d="M313.39 200.746C314.936 200.746 316.207 202.017 316.207 203.563C316.207 205.109 314.936 206.38 313.39 206.38C311.844 206.38 310.572 205.109 310.572 203.563C310.572 202.017 311.844 200.746 313.39 200.746Z" fill="white"/>
<path d="M313.149 203.288C313.149 204.491 312.187 205.452 310.985 205.452C309.782 205.452 308.82 204.491 308.82 203.288C308.82 202.086 309.782 201.124 310.985 201.124C312.187 201.124 313.149 202.086 313.149 203.288Z" fill="#CC1A28"/>
<path d="M340.602 197.517C340.602 199.062 341.873 200.333 343.419 200.333C344.965 200.333 346.236 199.062 346.236 197.517C346.236 195.971 344.965 194.7 343.419 194.7C341.873 194.7 340.602 195.971 340.602 197.517Z" fill="white"/>
<path d="M340.602 202.498C340.602 204.044 341.873 205.315 343.419 205.315C344.965 205.315 346.236 204.044 346.236 202.498C346.236 200.952 344.965 199.681 343.419 199.681C341.873 199.681 340.602 200.952 340.602 202.498Z" fill="white"/>
<path d="M345.927 197.173C344.381 197.173 343.109 198.444 343.109 199.99C343.109 201.536 344.381 202.807 345.927 202.807C347.473 202.807 348.744 201.536 348.744 199.99C348.744 198.444 347.473 197.173 345.927 197.173Z" fill="white"/>
<path d="M340.944 197.173C339.398 197.173 338.127 198.444 338.127 199.99C338.127 201.536 339.398 202.807 340.944 202.807C342.49 202.807 343.762 201.536 343.762 199.99C343.762 198.444 342.49 197.173 340.944 197.173Z" fill="white"/>
<path d="M341.186 199.681C341.186 200.883 342.148 201.879 343.35 201.879C344.553 201.879 345.515 200.917 345.515 199.681C345.515 198.444 344.553 197.517 343.35 197.517C342.148 197.517 341.186 198.478 341.186 199.681Z" fill="#CC1A28"/>
<path d="M351.355 201.089C351.355 202.635 352.627 203.906 354.173 203.906C355.719 203.906 356.99 202.635 356.99 201.089C356.99 199.543 355.719 198.272 354.173 198.272C352.627 198.272 351.355 199.543 351.355 201.089Z" fill="white"/>
<path d="M351.355 206.07C351.355 207.616 352.627 208.887 354.173 208.887C355.719 208.887 356.99 207.616 356.99 206.07C356.99 204.524 355.719 203.253 354.173 203.253C352.627 203.253 351.355 204.524 351.355 206.07Z" fill="white"/>
<path d="M356.681 200.746C355.135 200.746 353.863 202.017 353.863 203.563C353.863 205.109 355.135 206.38 356.681 206.38C358.227 206.38 359.498 205.109 359.498 203.563C359.498 202.017 358.227 200.746 356.681 200.746Z" fill="white"/>
<path d="M351.7 200.746C350.154 200.746 348.883 202.017 348.883 203.563C348.883 205.109 350.154 206.38 351.7 206.38C353.246 206.38 354.518 205.109 354.518 203.563C354.518 202.017 353.246 200.746 351.7 200.746Z" fill="white"/>
<path d="M351.939 203.288C351.939 204.491 352.902 205.452 354.104 205.452C355.307 205.452 356.269 204.491 356.269 203.288C356.269 202.086 355.307 201.124 354.104 201.124C352.902 201.124 351.939 202.086 351.939 203.288Z" fill="#CC1A28"/>
<path d="M332.391 297.963H331.051V329.155H332.391V297.963Z" fill="#B4121F"/>
<path d="M135.928 191.677L105.658 194.322C100.883 194.322 97 189.616 97 183.879C97 178.142 100.917 173.436 105.658 173.436L135.928 176.081C140.223 176.081 143.728 179.585 143.728 183.879C143.728 188.173 140.223 191.677 135.928 191.677Z" fill="#CC1A28"/>
<path d="M189.94 191.677L220.21 194.322C224.986 194.322 228.868 189.616 228.868 183.879C228.868 178.142 224.986 173.436 220.21 173.436L189.94 176.081C185.645 176.081 182.141 179.585 182.141 183.879C182.141 188.173 185.645 191.677 189.94 191.677Z" fill="#CC1A28"/>
<path d="M189.046 438.052H178.841C173.55 438.052 169.221 433.724 169.221 428.434V426.476C169.221 421.185 173.55 416.857 178.841 416.857H189.046C194.337 416.857 198.666 421.185 198.666 426.476V428.434C198.666 433.724 194.337 438.052 189.046 438.052Z" fill="#4C4948"/>
<path d="M170.012 433.69C169.325 433.69 168.673 433.243 168.432 432.556C168.123 431.697 168.604 430.735 169.463 430.426C172.177 429.499 179.702 426.544 181.832 424.208C182.382 423.624 183.24 423.487 183.928 423.899C186.47 425.411 193.892 429.361 197.74 429.361C198.667 429.361 199.423 430.117 199.423 431.045C199.423 431.972 198.667 432.728 197.74 432.728C193.17 432.728 186.058 428.983 183.309 427.403C179.564 430.426 171.559 433.243 170.597 433.587C170.425 433.655 170.219 433.69 170.047 433.69H170.012Z" fill="#FFDF5B"/>
<path d="M156.165 438.052H145.96C140.669 438.052 136.34 433.724 136.34 428.434V426.476C136.34 421.185 140.669 416.857 145.96 416.857H156.165C161.456 416.857 165.785 421.185 165.785 426.476V428.434C165.785 433.724 161.456 438.052 156.165 438.052Z" fill="#4C4948"/>
<path d="M194.063 324.106L139.536 323.418L132.836 403.666H199.972L194.063 324.106Z" fill="#CC1A28"/>
<path d="M132.835 403.666L131.117 423.796H201.483L199.972 403.666H132.835Z" fill="#B4121F"/>
<path d="M200.522 208.819C200.35 188.62 183.824 172.371 163.587 172.543C143.384 172.715 127.132 189.238 127.304 209.472C127.442 226.201 138.058 241.866 153.794 246.675V247.706C153.794 253.58 175.2 253.58 175.2 247.706V246.332C190.558 241.042 200.659 225.342 200.522 208.819Z" fill="#FBDACF"/>
<path d="M176.574 211.121C176.574 212.907 175.199 214.384 173.481 214.384C171.763 214.384 170.355 212.976 170.32 211.189C170.32 209.403 171.695 207.926 173.413 207.926C175.13 207.926 176.539 209.369 176.574 211.121Z" fill="#4C4948"/>
<path d="M160.288 211.189C160.288 212.975 158.914 214.452 157.196 214.452C155.478 214.452 154.07 213.044 154.035 211.258C154.035 209.471 155.409 207.994 157.127 207.994C158.845 207.994 160.254 209.437 160.288 211.189Z" fill="#4C4948"/>
<path d="M171.043 203.872C170.528 203.872 170.115 203.46 170.115 202.944C170.115 202.429 170.528 202.017 171.043 201.983H174.204V201.948C174.719 201.948 175.132 202.36 175.132 202.876C175.132 203.391 174.719 203.803 174.204 203.838H171.043V203.872Z" fill="#4C4948"/>
<path d="M154.551 203.872C154.035 203.872 153.623 203.46 153.623 202.944C153.623 202.429 154.035 202.017 154.551 201.983H157.712V201.948C158.227 201.948 158.639 202.36 158.639 202.876C158.639 203.391 158.227 203.803 157.712 203.838H154.551V203.872Z" fill="#4C4948"/>
<path d="M165.133 228.468C162.041 228.468 159.189 227.06 157.471 224.655C157.093 224.14 157.231 223.419 157.746 223.075C158.261 222.697 158.983 222.835 159.326 223.35C160.632 225.171 162.865 226.167 165.236 226.201C167.469 226.201 169.428 225.239 170.527 223.659C170.871 223.144 171.592 223.006 172.108 223.35C172.623 223.693 172.761 224.415 172.417 224.93C170.905 227.129 168.26 228.434 165.27 228.468H165.167H165.133Z" fill="#E7553B"/>
<path d="M193.134 311.155L200.487 353.477H130.773L139.123 310.88L193.134 311.155Z" fill="#B4121F"/>
<path d="M136.307 217.167C136.307 220.121 138.712 222.526 141.667 222.526C144.621 222.526 147.026 220.121 147.026 217.167C147.026 214.212 144.621 211.808 141.667 211.808C138.712 211.808 136.307 214.212 136.307 217.167Z" fill="#F8CBC6"/>
<path d="M181.178 217.167C181.178 220.121 183.583 222.526 186.538 222.526C189.492 222.526 191.898 220.121 191.898 217.167C191.898 214.212 189.492 211.808 186.538 211.808C183.583 211.808 181.178 214.212 181.178 217.167Z" fill="#F8CBC6"/>
<path d="M127.888 221.564C124.212 221.564 121.223 218.575 121.223 214.899C121.223 211.224 124.212 208.235 127.888 208.235C131.565 208.235 134.554 211.224 134.554 214.899C134.554 218.575 131.565 221.564 127.888 221.564Z" fill="#FBDACF"/>
<path d="M202.103 221.564C198.427 221.564 195.438 218.575 195.438 214.899C195.438 211.224 198.427 208.235 202.103 208.235C205.779 208.235 208.769 211.224 208.769 214.899C208.769 218.575 205.779 221.564 202.103 221.564Z" fill="#FBDACF"/>
<path d="M163.586 173.161C143.658 173.333 127.613 189.41 127.338 209.231C128.575 208.99 129.743 208.372 130.808 207.685C136.512 203.769 140.051 197.517 143.727 191.677C144.38 190.646 145.101 189.547 146.166 188.963C147.163 188.413 148.331 188.31 149.465 188.242C158.192 187.726 166.988 187.52 175.749 187.589C177.536 187.589 179.391 187.623 181.04 188.345C185.163 190.097 186.572 195.181 189.527 198.547C192.138 201.502 196.02 203.047 199.937 203.563C196.983 186.18 181.796 172.989 163.586 173.161Z" fill="#4C4948"/>
<path d="M137.439 178.348V167.287C137.439 154.508 147.85 144.03 160.563 144.03H167.056C179.769 144.03 190.18 154.508 190.18 167.287V178.348C190.18 191.127 137.439 191.127 137.439 178.348Z" fill="#CC1A28"/>
<path d="M134.623 331.697L138.883 281.749C138.883 263.748 134.451 249.011 165.408 249.011C180.011 249.011 191.727 255.332 191.933 281.749L196.193 331.697H134.623Z" fill="#4C4948"/>
<path d="M178.12 245.37H150.461V252.274H178.12V245.37Z" fill="#DC0D17"/>
<path d="M143.179 289.684L151.012 251.313C139.193 249.732 134.417 256.809 134.417 256.809L114.352 289.684C103.323 313.284 118.75 322.353 124.178 322.353H161.182V289.684H143.179Z" fill="#CC1A28"/>
<path d="M165.235 253.305H163.002V293.429H165.235V253.305Z" fill="#DC0D17"/>
<path d="M169.221 266.325H158.089C157.333 266.325 156.715 265.706 156.715 264.951C156.715 264.195 157.333 263.611 158.089 263.611H169.221C169.977 263.611 170.596 264.229 170.596 264.951C170.596 265.672 169.977 266.325 169.221 266.325Z" fill="#DC0D17"/>
<path d="M160.873 265.569C160.873 267.39 159.395 268.901 157.54 268.901C155.684 268.901 154.207 267.424 154.207 265.569C154.207 263.714 155.684 262.271 157.54 262.271C159.395 262.271 160.873 263.748 160.873 265.569Z" fill="#DC0D17"/>
<path d="M173.378 265.569C173.378 267.39 171.901 268.901 170.046 268.901C168.19 268.901 166.713 267.424 166.713 265.569C166.713 263.714 168.19 262.271 170.046 262.271C171.901 262.271 173.378 263.748 173.378 265.569Z" fill="#DC0D17"/>
<path d="M169.221 279.481H158.089C157.333 279.481 156.715 278.863 156.715 278.142C156.715 277.42 157.333 276.768 158.089 276.768H169.221C169.977 276.768 170.596 277.386 170.596 278.142C170.596 278.897 169.977 279.481 169.221 279.481Z" fill="#DC0D17"/>
<path d="M160.873 278.726C160.873 280.547 159.395 282.058 157.54 282.058C155.684 282.058 154.207 280.581 154.207 278.726C154.207 276.871 155.684 275.428 157.54 275.428C159.395 275.428 160.873 276.905 160.873 278.726Z" fill="#DC0D17"/>
<path d="M173.378 278.726C173.378 280.547 171.901 282.058 170.046 282.058C168.19 282.058 166.713 280.581 166.713 278.726C166.713 276.871 168.19 275.428 170.046 275.428C171.901 275.428 173.378 276.905 173.378 278.726Z" fill="#DC0D17"/>
<path d="M165.82 289.684H147.473V322.353H165.82V289.684Z" fill="#FFDF5B"/>
<path d="M185.473 289.684L177.639 251.313C189.458 249.732 194.234 256.809 194.234 256.809L214.299 289.684C225.328 313.284 209.901 322.353 204.473 322.353H167.469V289.684H185.473Z" fill="#CC1A28"/>
<path d="M181.144 289.684H162.797V322.353H181.144V289.684Z" fill="#FFDF5B"/>
<path d="M137.132 433.69C136.444 433.69 135.792 433.243 135.551 432.556C135.242 431.697 135.723 430.735 136.582 430.426C139.296 429.499 146.821 426.544 148.917 424.208C149.466 423.624 150.325 423.487 151.012 423.899C153.555 425.411 160.976 429.361 164.825 429.361C165.752 429.361 166.508 430.117 166.508 431.045C166.508 431.972 165.752 432.728 164.825 432.728C160.255 432.728 153.143 428.983 150.36 427.403C146.615 430.426 138.643 433.243 137.647 433.587C137.475 433.655 137.269 433.69 137.097 433.69H137.132Z" fill="#FFDF5B"/>
<path d="M147.954 373.16C143.385 373.16 139.674 369.45 139.674 364.881C139.674 360.313 143.385 356.603 147.954 356.603C152.524 356.603 156.235 360.313 156.235 364.881C156.235 369.45 152.524 373.16 147.954 373.16ZM147.954 357.942C144.106 357.942 141.014 361.068 141.014 364.881C141.014 368.695 144.14 371.821 147.954 371.821C151.768 371.821 154.895 368.695 154.895 364.881C154.895 361.068 151.768 357.942 147.954 357.942Z" fill="#B4121F"/>
<path d="M148.126 365.088H142.354V361.446H145.137V362.786H143.693V363.748H146.786V359.625H148.126V365.088Z" fill="#B4121F"/>
<path d="M148.813 369.829H147.473V366.222H150.496V360.897H152.523V362.237H151.802V367.561H148.813V369.829Z" fill="#B4121F"/>
<path d="M146.408 368.729H143.213V366.737H144.553V367.39H145.068V364.504H146.408V368.729Z" fill="#B4121F"/>
<path d="M153.244 362.614H149.293V363.954H153.244V362.614Z" fill="#B4121F"/>
<path d="M154.962 395.558C150.392 395.558 146.682 391.848 146.682 387.279C146.682 382.711 150.392 379 154.962 379C159.532 379 163.242 382.711 163.242 387.279C163.242 391.848 159.532 395.558 154.962 395.558ZM154.962 380.34C151.114 380.34 148.022 383.466 148.022 387.279C148.022 391.093 151.148 394.219 154.962 394.219C158.776 394.219 161.902 391.093 161.902 387.279C161.902 383.466 158.776 380.34 154.962 380.34Z" fill="#B4121F"/>
<path d="M155.134 387.52H149.396V383.844H152.145V385.184H150.736V386.18H153.794V382.058H155.134V387.52Z" fill="#B4121F"/>
<path d="M155.822 392.261H154.482V388.654H157.506V383.329H159.567V384.669H158.846V389.993H155.822V392.261Z" fill="#B4121F"/>
<path d="M153.451 391.127H150.256V389.169H151.561V389.787H152.111V386.936H153.451V391.127Z" fill="#B4121F"/>
<path d="M160.254 385.012H156.303V386.352H160.254V385.012Z" fill="#B4121F"/>
<path d="M180.216 373.813C175.646 373.813 171.936 370.103 171.936 365.534C171.936 360.965 175.646 357.255 180.216 357.255C184.786 357.255 188.496 360.965 188.496 365.534C188.496 370.103 184.786 373.813 180.216 373.813ZM180.216 358.595C176.368 358.595 173.276 361.721 173.276 365.534C173.276 369.347 176.402 372.473 180.216 372.473C184.03 372.473 187.156 369.347 187.156 365.534C187.156 361.721 184.03 358.595 180.216 358.595Z" fill="#B4121F"/>
<path d="M180.388 365.775H174.65V362.099H177.399V363.439H175.99V364.435H179.048V360.313H180.388V365.775Z" fill="#B4121F"/>
<path d="M181.074 370.516H179.734V366.909H182.758V361.584H184.819V362.924H184.098V368.248H181.074V370.516Z" fill="#B4121F"/>
<path d="M178.705 369.382H175.51V367.424H176.85V368.077H177.365V365.191H178.705V369.382Z" fill="#B4121F"/>
<path d="M185.541 363.267H181.59V364.607H185.541V363.267Z" fill="#B4121F"/>
<path d="M181.9 398.581C177.33 398.581 173.619 394.871 173.619 390.302C173.619 385.734 177.33 382.023 181.9 382.023C186.469 382.023 190.18 385.734 190.18 390.302C190.18 394.871 186.469 398.581 181.9 398.581ZM181.9 383.329C178.051 383.329 174.959 386.455 174.959 390.268C174.959 394.081 178.086 397.207 181.9 397.207C185.713 397.207 188.84 394.081 188.84 390.268C188.84 386.455 185.713 383.329 181.9 383.329Z" fill="#B4121F"/>
<path d="M182.072 390.509H176.334V386.867H179.083V388.207H177.674V389.169H180.732V385.081H182.072V390.509Z" fill="#B4121F"/>
<path d="M182.758 395.249H181.418V391.642H184.442V386.317H186.503V387.657H185.781V392.982H182.758V395.249Z" fill="#B4121F"/>
<path d="M180.354 394.15H177.193V392.157H178.499V392.81H179.014V389.924H180.354V394.15Z" fill="#B4121F"/>
<path d="M187.191 388.035H183.24V389.375H187.191V388.035Z" fill="#B4121F"/>
<path d="M134.279 190.166C134.279 175.566 147.542 163.749 163.862 163.749C180.182 163.749 193.445 175.566 193.445 190.166" fill="#B4121F"/>
<path d="M130.533 194.734C130.533 179.722 145.445 167.562 163.861 167.562C182.277 167.562 197.189 179.722 197.189 194.734" fill="#CC1A28"/>
<path d="M197.19 191.677H130.156V194.768H197.19V191.677Z" fill="#FFDF5B"/>
<path d="M169.154 184.944H159.293C157.781 184.944 156.51 183.707 156.51 182.161C156.51 180.616 157.747 179.379 159.293 179.379H169.154C170.665 179.379 171.937 180.616 171.937 182.161C171.937 183.707 170.665 184.944 169.154 184.944Z" fill="#FFDF5B"/>
<path d="M193.033 182.711H134.589C134.142 182.711 133.799 182.368 133.799 181.921C133.799 181.474 134.142 181.131 134.589 181.131H193.033C193.48 181.131 193.823 181.474 193.823 181.921C193.823 182.368 193.48 182.711 193.033 182.711Z" fill="#FFDF5B"/>
<path d="M164.342 291.093H163.002V322.285H164.342V291.093Z" fill="#B4121F"/>
<path d="M247.043 163.611C247.696 163.611 248.211 164.126 248.211 164.779V182.642C248.211 183.295 247.696 183.81 247.043 183.81C246.39 183.81 245.875 183.295 245.875 182.642V164.779C245.875 164.126 246.39 163.611 247.043 163.611Z" fill="#D38090"/>
<path d="M247.043 185.803C247.696 185.803 248.211 186.318 248.211 186.971V204.834C248.211 205.487 247.696 206.002 247.043 206.002C246.39 206.002 245.875 205.487 245.875 204.834V186.971C245.875 186.318 246.39 185.803 247.043 185.803Z" fill="#D38090"/>
<path d="M247.043 236.713C247.696 236.713 248.211 237.228 248.211 237.881V255.778C248.211 256.431 247.696 256.946 247.043 256.946C246.39 256.946 245.875 256.431 245.875 255.778V237.881C245.875 237.228 246.39 236.713 247.043 236.713Z" fill="#CC1A28"/>
<path d="M241.752 184.222C241.752 181.302 244.123 178.932 247.043 178.932C249.964 178.932 252.334 181.302 252.334 184.222C252.334 187.142 249.964 189.513 247.043 189.513C244.123 189.513 241.752 187.142 241.752 184.222Z" fill="#008B63"/>
<path d="M246.905 21.0001L174.506 93.3867L246.905 165.773L319.305 93.3867L246.905 21.0001Z" fill="#CC1A28"/>
<path d="M246.906 157.771L182.553 93.4291L246.906 29.0527L311.26 93.3948L246.906 157.737V157.771ZM187.26 93.3948L246.872 152.996L306.484 93.3948L246.906 33.7934L187.294 93.3948H187.26Z" fill="#FFDF5B"/>
<path d="M245.188 78.3483H240.069V75.9093H245.188V72.7832H240.069V69.4854H233.747V72.7832H226.703V75.9093H233.747V78.3483H226.703V81.44H245.188V78.3483Z" fill="#FFDF5B"/>
<path d="M239.142 101.055V98.5133H245.189V94.3566H239.142V91.9176H245.12V83.0547H228.078V91.9176H233.954V94.3566H226.738V98.5133H233.954V101.055H227.838V112.117H245.361V101.055H239.142ZM232.614 85.425H240.55V89.5473H232.614V85.425ZM240.653 107.101H232.476V104.01H240.653V107.101Z" fill="#FFDF5B"/>
<path d="M266.594 78.3483H261.509V75.9093H266.594V72.7832H261.509V69.4854H255.187V72.7832H248.109V75.9093H255.187V78.3483H248.109V81.44H266.594V78.3483Z" fill="#FFDF5B"/>
<path d="M260.547 101.055V98.5133H266.594V94.3566H260.547V91.9176H266.526V83.0547H249.449V91.9176H255.325V94.3566H248.109V98.5133H255.325V101.055H249.209V112.117H266.732V101.055H260.513H260.547ZM254.019 85.425H261.956V89.5473H254.019V85.425ZM262.059 107.101H253.882V104.01H262.059V107.101Z" fill="#FFDF5B"/>
<path d="M246.838 213.388C244.536 213.388 242.646 211.498 242.646 209.197C242.646 206.895 244.536 205.006 246.838 205.006C249.14 205.006 251.03 206.895 251.03 209.197C251.03 211.498 249.14 213.388 246.838 213.388ZM246.838 206.998C245.636 206.998 244.639 207.995 244.639 209.197C244.639 210.399 245.636 211.395 246.838 211.395C248.041 211.395 249.037 210.399 249.037 209.197C249.037 207.995 248.041 206.998 246.838 206.998Z" fill="#D90A1C"/>
<path d="M246.838 221.461C244.536 221.461 242.646 219.571 242.646 217.27C242.646 214.968 244.536 213.079 246.838 213.079C249.14 213.079 251.03 214.968 251.03 217.27C251.03 219.571 249.14 221.461 246.838 221.461ZM246.838 215.071C245.636 215.071 244.639 216.067 244.639 217.27C244.639 218.472 245.636 219.468 246.838 219.468C248.041 219.468 249.037 218.472 249.037 217.27C249.037 216.067 248.041 215.071 246.838 215.071Z" fill="#D90A1C"/>
<path d="M246.838 229.465C244.536 229.465 242.646 227.575 242.646 225.274C242.646 222.972 244.536 221.083 246.838 221.083C249.14 221.083 251.03 222.972 251.03 225.274C251.03 227.575 249.14 229.465 246.838 229.465ZM246.838 223.075C245.636 223.075 244.639 224.071 244.639 225.274C244.639 226.476 245.636 227.472 246.838 227.472C248.041 227.472 249.037 226.476 249.037 225.274C249.037 224.071 248.041 223.075 246.838 223.075Z" fill="#D90A1C"/>
<path d="M239.313 221.461C237.011 221.461 235.121 219.571 235.121 217.27C235.121 214.968 237.011 213.079 239.313 213.079C241.615 213.079 243.505 214.968 243.505 217.27C243.505 219.571 241.615 221.461 239.313 221.461ZM239.313 215.071C238.11 215.071 237.114 216.067 237.114 217.27C237.114 218.472 238.11 219.468 239.313 219.468C240.515 219.468 241.512 218.472 241.512 217.27C241.512 216.067 240.515 215.071 239.313 215.071Z" fill="#D90A1C"/>
<path d="M239.313 229.465C237.011 229.465 235.121 227.575 235.121 225.274C235.121 222.972 237.011 221.083 239.313 221.083C241.615 221.083 243.505 222.972 243.505 225.274C243.505 227.575 241.615 229.465 239.313 229.465ZM239.313 223.075C238.11 223.075 237.114 224.071 237.114 225.274C237.114 226.476 238.11 227.472 239.313 227.472C240.515 227.472 241.512 226.476 241.512 225.274C241.512 224.071 240.515 223.075 239.313 223.075Z" fill="#D90A1C"/>
<path d="M254.465 221.461C252.163 221.461 250.273 219.571 250.273 217.27C250.273 214.968 252.163 213.079 254.465 213.079C256.767 213.079 258.657 214.968 258.657 217.27C258.657 219.571 256.767 221.461 254.465 221.461ZM254.465 215.071C253.263 215.071 252.266 216.067 252.266 217.27C252.266 218.472 253.263 219.468 254.465 219.468C255.668 219.468 256.664 218.472 256.664 217.27C256.664 216.067 255.668 215.071 254.465 215.071Z" fill="#D90A1C"/>
<path d="M254.465 229.465C252.163 229.465 250.273 227.575 250.273 225.274C250.273 222.972 252.163 221.083 254.465 221.083C256.767 221.083 258.657 222.972 258.657 225.274C258.657 227.575 256.767 229.465 254.465 229.465ZM254.465 223.075C253.263 223.075 252.266 224.071 252.266 225.274C252.266 226.476 253.263 227.472 254.465 227.472C255.668 227.472 256.664 226.476 256.664 225.274C256.664 224.071 255.668 223.075 254.465 223.075Z" fill="#D90A1C"/>
<path d="M246.838 237.468C244.536 237.468 242.646 235.579 242.646 233.277C242.646 230.976 244.536 229.086 246.838 229.086C249.14 229.086 251.03 230.976 251.03 233.277C251.03 235.579 249.14 237.468 246.838 237.468ZM246.838 231.079C245.636 231.079 244.639 232.075 244.639 233.277C244.639 234.48 245.636 235.476 246.838 235.476C248.041 235.476 249.037 234.48 249.037 233.277C249.037 232.075 248.041 231.079 246.838 231.079Z" fill="#D90A1C"/>
<path d="M251.475 255.847C251.475 254.13 249.586 252.721 247.284 252.721C244.982 252.721 243.092 254.13 243.092 255.847V257.874H251.441V255.847H251.475Z" fill="#CC1A28"/>
<path d="M251.476 261.206H243.127V285.596H251.476V261.206Z" fill="#CC1A28"/>
<path d="M251.476 257.874H243.127V261.206H251.476V257.874Z" fill="#FFDF5B"/>
</svg>
