<svg width="211" height="228" viewBox="0 0 211 228" fill="none" xmlns="http://www.w3.org/2000/svg">
<rect x="27.8828" width="156" height="50" rx="20" fill="#A6D3A0"/>
<path d="M25.4663 75.8374C25.8025 75.4487 26.2438 75.1334 26.7902 74.8918C27.3471 74.6396 27.883 74.5135 28.3978 74.5135C29.1649 74.5135 29.8479 74.6764 30.4468 75.0021C31.0562 75.3278 31.529 75.7796 31.8653 76.3575C32.2015 76.9249 32.3696 77.5817 32.3696 78.3277C32.3696 79.0737 32.2015 79.7409 31.8653 80.3293C31.529 80.9072 31.0562 81.3643 30.4468 81.7005C29.8479 82.0263 29.1649 82.1891 28.3978 82.1891C27.7989 82.1891 27.2315 82.063 26.6956 81.8109C26.1703 81.5587 25.7237 81.2067 25.356 80.7549C24.9882 80.3031 24.736 79.7935 24.5994 79.2261L26.0494 78.8951C26.1755 79.4415 26.454 79.8933 26.8848 80.2505C27.3261 80.6078 27.8304 80.7864 28.3978 80.7864C28.8707 80.7864 29.2962 80.6813 29.6745 80.4712C30.0528 80.261 30.347 79.9668 30.5571 79.5886C30.7673 79.2103 30.8723 78.79 30.8723 78.3277C30.8723 77.8548 30.7673 77.4398 30.5571 77.0826C30.347 76.7148 30.0528 76.4311 29.6745 76.2315C29.2962 76.0213 28.8707 75.9162 28.3978 75.9162C28.0826 75.9162 27.7569 76.0003 27.4207 76.1684C27.0844 76.3365 26.8007 76.5519 26.5696 76.8146L25.4663 75.8374ZM25.0723 76.6097L25.4505 70.589H31.4397V71.8972H26.8848L26.5696 76.8146L25.0723 76.6097Z" fill="#231815"/>
<path d="M31.6213 97.4696H33.1501V98.7777H31.6213V101.82H30.124V98.7777H25.175L25.0174 97.4696L30.187 90.3771H31.6213V97.4696ZM30.124 97.4696V92.8989L26.8142 97.4696H30.124Z" fill="#231815"/>
<path d="M30.6575 115.72C31.1514 116.014 31.5454 116.413 31.8396 116.918C32.1443 117.411 32.2967 117.905 32.2967 118.399C32.2967 119.04 32.1338 119.613 31.8081 120.117C31.4824 120.621 31.0305 121.015 30.4526 121.299C29.8747 121.583 29.2128 121.725 28.4667 121.725C27.7312 121.725 27.0745 121.583 26.4966 121.299C25.9292 121.005 25.4826 120.6 25.1569 120.086C24.8312 119.571 24.6683 118.988 24.6683 118.336H26.1656C26.1656 118.735 26.2602 119.093 26.4493 119.408C26.649 119.713 26.9222 119.954 27.2689 120.133C27.6261 120.311 28.0307 120.401 28.4825 120.401C28.9343 120.401 29.3388 120.311 29.6961 120.133C30.0533 119.954 30.3318 119.713 30.5314 119.408C30.7311 119.093 30.8309 118.735 30.8309 118.336C30.8309 117.947 30.7311 117.606 30.5314 117.312C30.3318 117.007 30.0533 116.77 29.6961 116.602C29.3494 116.434 28.9501 116.35 28.4983 116.35H27.6787V115.074H28.514C28.9343 115.074 29.3073 114.995 29.6331 114.837C29.9588 114.68 30.211 114.469 30.3896 114.207C30.5682 113.934 30.6575 113.618 30.6575 113.261C30.6575 112.715 30.4631 112.273 30.0744 111.937C29.6961 111.59 29.197 111.417 28.5771 111.417C28.1673 111.417 27.8048 111.496 27.4896 111.653C27.1848 111.811 26.9432 112.032 26.7645 112.315C26.5859 112.599 26.4966 112.92 26.4966 113.277H24.9993C24.9993 112.657 25.1517 112.105 25.4564 111.622C25.7611 111.139 26.1814 110.766 26.7173 110.503C27.2636 110.23 27.8836 110.093 28.5771 110.093C29.26 110.093 29.8695 110.23 30.4053 110.503C30.9412 110.766 31.3615 111.133 31.6662 111.606C31.9709 112.079 32.1233 112.615 32.1233 113.214C32.1233 113.655 31.992 114.112 31.7293 114.585C31.4666 115.047 31.1093 115.426 30.6575 115.72Z" fill="#231815"/>
<path d="M24.9648 140.133C25.2275 139.881 25.4744 139.655 25.7056 139.455C25.9368 139.245 26.1889 139.014 26.4621 138.762C27.3447 137.963 28.0487 137.296 28.5741 136.76C29.11 136.224 29.5618 135.678 29.9296 135.121C30.2973 134.554 30.4812 134.028 30.4812 133.545C30.4812 133.093 30.3919 132.694 30.2133 132.347C30.0451 132 29.8035 131.727 29.4882 131.527C29.173 131.328 28.8105 131.228 28.4007 131.228C27.9384 131.228 27.4971 131.386 27.0768 131.701C26.667 132.006 26.3518 132.394 26.1311 132.867L24.8072 132.3C25.1119 131.585 25.6005 131.002 26.273 130.55C26.956 130.098 27.6652 129.873 28.4007 129.873C29.1047 129.873 29.7247 130.03 30.2605 130.345C30.7964 130.65 31.2167 131.081 31.5214 131.638C31.8261 132.195 31.9785 132.83 31.9785 133.545C31.9785 134.238 31.7631 134.942 31.3323 135.657C30.9015 136.361 30.3866 137.018 29.7877 137.627C29.1888 138.226 28.4112 138.946 27.4551 139.786C26.9087 140.259 26.4148 140.7 25.9735 141.11L24.9648 140.133ZM24.9648 140.133H32.1676V141.441H25.1224L24.9648 140.133Z" fill="#231815"/>
<path d="M30.0496 161.23L28.5523 161.214V151.426L26.6294 152.577L25.9517 151.348L28.568 149.803H30.0496V161.23Z" fill="#231815"/>
<path d="M188.688 77.1157H37.8262" stroke="#D8CCA5" stroke-width="0.693486" stroke-linecap="round"/>
<path d="M188.688 97.0146H37.8262" stroke="#D8CCA5" stroke-width="0.693486" stroke-linecap="round"/>
<path d="M188.688 116.914H37.8262" stroke="#D8CCA5" stroke-width="0.693486" stroke-linecap="round"/>
<path d="M188.688 136.791H37.8262" stroke="#D8CCA5" stroke-width="0.693486" stroke-linecap="round"/>
<path d="M37.8262 77.1157V156.69H188.71" stroke="#B39E4F" stroke-width="0.693486" stroke-linecap="round"/>
<path d="M120.26 78.3564C129.389 81.0377 157.133 90.8544 175.525 115.185" stroke="#898989" stroke-width="1.58" stroke-linecap="round" stroke-linejoin="round" stroke-dasharray="0.16 3.15"/>
<path d="M106.897 83.9399C106.897 83.9399 62.6671 119.572 38.2031 116.381" stroke="#F29C9F" stroke-width="1.38697"/>
<path d="M116.026 76.5835L100.736 81.8131L107.672 90.411L116.026 76.5835Z" fill="#F29C9F"/>
<path d="M176.544 119.972C178.228 119.972 179.579 118.62 179.579 116.936C179.579 115.252 178.228 113.9 176.544 113.9C174.86 113.9 173.508 115.252 173.508 116.936C173.508 118.62 174.86 119.972 176.544 119.972Z" fill="#898989"/>
<path d="M77.2302 205.365C77.2302 215.603 68.9426 223.89 58.705 223.89C48.4673 223.89 40.1797 215.603 40.1797 205.365C40.1797 195.127 48.4673 186.84 58.705 186.84C68.9426 186.84 77.2302 195.127 77.2302 205.365Z" fill="#D1EAAD"/>
<path d="M61.5409 212.943L54.6271 213.342C55.7794 216.71 54.2282 217.685 52.9208 217.995C51.6577 220.167 51.9015 221.829 52.9208 222.981C54.7379 223.579 56.6658 223.89 58.6823 223.89C60.455 223.89 62.1613 223.646 63.8011 223.181C64.9755 222.028 65.3523 220.322 64.0892 218.017C60.8982 217.419 61.5187 214.583 61.5187 212.943" fill="#F2AC71"/>
<g style="mix-blend-mode:multiply" opacity="0.7">
<mask id="mask0_3860_33374" style="mask-type:luminance" maskUnits="userSpaceOnUse" x="54" y="212" width="8" height="5">
<path d="M61.5407 212.943H54.627V216.643H61.5407V212.943Z" fill="white"/>
</mask>
<g mask="url(#mask0_3860_33374)">
<mask id="mask1_3860_33374" style="mask-type:luminance" maskUnits="userSpaceOnUse" x="54" y="212" width="8" height="5">
<path d="M61.5407 212.943H54.627V216.643H61.5407V212.943Z" fill="white"/>
</mask>
<g mask="url(#mask1_3860_33374)">
<path d="M61.5178 214.959C59.6564 215.58 56.5541 216.222 54.8035 216.643C55.1359 215.934 55.1803 214.893 54.6484 213.342L61.5622 212.943C61.5622 213.519 61.4735 214.25 61.5178 214.959Z" fill="#EF9D78"/>
</g>
</g>
</g>
<path d="M67.879 201.377L67.1699 206.629C68.7876 206.983 70.1171 206.54 70.2944 203.881C70.4717 201.133 69.1643 200.49 67.879 201.399" fill="#F2AC71"/>
<mask id="mask2_3860_33374" style="mask-type:luminance" maskUnits="userSpaceOnUse" x="47" y="201" width="4" height="6">
<path d="M47.0487 203.97C47.2482 206.629 48.5556 207.05 50.1732 206.696L49.4419 201.488C49.0874 201.244 48.7328 201.111 48.4005 201.111C47.5584 201.111 46.9158 201.998 47.0487 203.97Z" fill="white"/>
</mask>
<g mask="url(#mask2_3860_33374)">
<path d="M50.1655 201.068L46.8418 201.104L46.9063 207.065L50.23 207.029L50.1655 201.068Z" fill="url(#paint0_linear_3860_33374)"/>
</g>
<path d="M66.9708 195.017C65.5747 192.425 61.3866 190.076 57.132 190.608C49.5756 191.538 49.4205 197.189 49.3097 201.155C49.2211 204.058 50.329 210.618 51.0603 212.147C51.6586 213.365 54.8939 215.382 57.8189 215.338C61.6082 215.293 65.1094 213.166 65.9293 211.659C66.7935 210.086 67.0816 208.114 67.4804 205.875C68.2338 201.776 68.4111 197.743 66.9264 194.995" fill="#F2AC71"/>
<g style="mix-blend-mode:multiply" opacity="0.3">
<mask id="mask3_3860_33374" style="mask-type:luminance" maskUnits="userSpaceOnUse" x="57" y="195" width="12" height="21">
<path d="M68.056 195.018H57.8184V215.36H68.056V195.018Z" fill="white"/>
</mask>
<g mask="url(#mask3_3860_33374)">
<mask id="mask4_3860_33374" style="mask-type:luminance" maskUnits="userSpaceOnUse" x="57" y="195" width="12" height="21">
<path d="M66.7486 195.417C67.1918 198.365 66.4384 207.893 65.3969 211.594C65.1088 212.613 61.6298 214.984 57.8184 215.361C61.6076 215.317 65.1088 213.189 65.9287 211.682C66.7929 210.109 67.081 208.137 67.4799 205.899C67.8123 204.104 68.0338 202.309 68.056 200.625V200.16C68.0338 198.21 67.7236 196.437 66.948 195.019L66.7486 195.417Z" fill="white"/>
</mask>
<g mask="url(#mask4_3860_33374)">
<path d="M68.0915 194.914L57.6328 195.027L57.8541 215.479L68.3128 215.366L68.0915 194.914Z" fill="url(#paint1_linear_3860_33374)"/>
</g>
</g>
</g>
<g style="mix-blend-mode:screen" opacity="0.3">
<mask id="mask5_3860_33374" style="mask-type:luminance" maskUnits="userSpaceOnUse" x="49" y="195" width="9" height="21">
<path d="M57.84 195.063H49.3086V215.384H57.84V195.063Z" fill="white"/>
</mask>
<g mask="url(#mask5_3860_33374)">
<mask id="mask6_3860_33374" style="mask-type:luminance" maskUnits="userSpaceOnUse" x="49" y="195" width="9" height="21">
<path d="M57.84 195.064H49.3086V215.362H57.84V195.064Z" fill="white"/>
</mask>
<g mask="url(#mask6_3860_33374)">
<path d="M51.701 211.95C50.8589 210.443 49.9282 201.778 50.881 195.086L50.2828 195.042C49.4185 196.992 49.3742 199.274 49.3077 201.158C49.2191 204.061 50.3271 210.62 51.0583 212.149C51.6566 213.368 54.8919 215.384 57.817 215.34C54.9805 214.83 52.4544 213.301 51.6788 211.927" fill="#F2AC71"/>
</g>
</g>
</g>
<g style="mix-blend-mode:multiply" opacity="0.08">
<mask id="mask7_3860_33374" style="mask-type:luminance" maskUnits="userSpaceOnUse" x="60" y="201" width="8" height="7">
<path d="M67.4363 201.222H60.7441V207.914H67.4363V201.222Z" fill="white"/>
</mask>
<g mask="url(#mask7_3860_33374)">
<mask id="mask8_3860_33374" style="mask-type:luminance" maskUnits="userSpaceOnUse" x="60" y="201" width="8" height="7">
<path d="M64.0459 201.223H64.1123C65.9516 201.223 67.4141 202.708 67.4141 204.525V204.591C67.4141 206.408 65.9294 207.893 64.1123 207.893H64.0459C62.2066 207.893 60.7441 206.408 60.7441 204.591V204.525C60.7441 202.686 62.2288 201.223 64.0459 201.223Z" fill="white"/>
</mask>
<g mask="url(#mask8_3860_33374)">
<path d="M67.4282 201.147L60.6699 201.22L60.7433 208L67.5015 207.927L67.4282 201.147Z" fill="url(#paint2_radial_3860_33374)"/>
</g>
</g>
</g>
<g style="mix-blend-mode:multiply" opacity="0.08">
<mask id="mask9_3860_33374" style="mask-type:luminance" maskUnits="userSpaceOnUse" x="49" y="201" width="7" height="8">
<path d="M55.3587 201.555H49.3535V208.247H55.3587V201.555Z" fill="white"/>
</mask>
<g mask="url(#mask9_3860_33374)">
<mask id="mask10_3860_33374" style="mask-type:luminance" maskUnits="userSpaceOnUse" x="49" y="201" width="7" height="8">
<path d="M51.9683 201.555C50.9047 201.555 49.9518 202.087 49.3535 202.862C49.4422 204.258 49.6637 205.964 49.9296 207.538C50.5058 207.981 51.2149 208.247 51.9905 208.247H52.0348C53.8519 208.247 55.3366 206.74 55.3366 204.923V204.856C55.3366 203.017 53.8297 201.555 52.0126 201.555H51.9462H51.9683Z" fill="white"/>
</mask>
<g mask="url(#mask10_3860_33374)">
<path d="M55.376 201.499L49.3047 201.564L49.3778 208.323L55.4492 208.257L55.376 201.499Z" fill="url(#paint3_radial_3860_33374)"/>
</g>
</g>
</g>
<g style="mix-blend-mode:multiply" opacity="0.7">
<mask id="mask11_3860_33374" style="mask-type:luminance" maskUnits="userSpaceOnUse" x="54" y="209" width="7" height="2">
<path d="M60.8772 209.177H54.6504V210.019H60.8772V209.177Z" fill="white"/>
</mask>
<g mask="url(#mask11_3860_33374)">
<mask id="mask12_3860_33374" style="mask-type:luminance" maskUnits="userSpaceOnUse" x="54" y="209" width="7" height="2">
<path d="M60.8772 209.176H54.6504V210.018H60.8772V209.176Z" fill="white"/>
</mask>
<g mask="url(#mask12_3860_33374)">
<path d="M60.8772 209.176C60.3454 209.397 59.5255 209.73 57.7528 209.752C56.3346 209.752 55.0936 209.397 54.6947 209.198C54.6504 209.198 54.6283 209.309 54.6726 209.331C55.6919 209.885 57.0437 209.996 57.7306 210.018C59.2375 210.04 61.0545 209.442 60.8772 209.176Z" fill="#C42727"/>
</g>
</g>
</g>
<g style="mix-blend-mode:multiply" opacity="0.4">
<mask id="mask13_3860_33374" style="mask-type:luminance" maskUnits="userSpaceOnUse" x="56" y="210" width="4" height="2">
<path d="M59.1266 210.95H56.4453V211.46H59.1266V210.95Z" fill="white"/>
</mask>
<g mask="url(#mask13_3860_33374)">
<mask id="mask14_3860_33374" style="mask-type:luminance" maskUnits="userSpaceOnUse" x="56" y="210" width="4" height="2">
<path d="M56.4667 211.216C56.3781 211.393 56.4889 211.482 56.6662 211.482C56.9542 211.482 57.9736 211.039 59.1259 211.305L59.0372 211.194C58.5054 211.017 58.0179 210.95 57.5969 210.95C56.9321 210.95 56.5111 211.105 56.4446 211.216" fill="white"/>
</mask>
<g mask="url(#mask14_3860_33374)">
<path d="M59.1114 210.767L56.3477 210.951L56.3949 211.659L59.1587 211.474L59.1114 210.767Z" fill="url(#paint4_linear_3860_33374)"/>
</g>
</g>
</g>
<g style="mix-blend-mode:multiply" opacity="0.3">
<mask id="mask15_3860_33374" style="mask-type:luminance" maskUnits="userSpaceOnUse" x="54" y="208" width="8" height="2">
<path d="M61.4506 208.515H54.1602V209.711H61.4506V208.515Z" fill="white"/>
</mask>
<g mask="url(#mask15_3860_33374)">
<mask id="mask16_3860_33374" style="mask-type:luminance" maskUnits="userSpaceOnUse" x="54" y="208" width="8" height="2">
<path d="M61.4506 208.515H54.1602V209.712H61.4506V208.515Z" fill="white"/>
</mask>
<g mask="url(#mask16_3860_33374)">
<g style="mix-blend-mode:multiply" opacity="0.3">
<mask id="mask17_3860_33374" style="mask-type:luminance" maskUnits="userSpaceOnUse" x="60" y="208" width="2" height="2">
<path d="M61.4504 208.515H60.3203V209.579H61.4504V208.515Z" fill="white"/>
</mask>
<g mask="url(#mask17_3860_33374)">
<mask id="mask18_3860_33374" style="mask-type:luminance" maskUnits="userSpaceOnUse" x="60" y="208" width="2" height="2">
<path d="M60.4754 208.672C60.4754 208.783 60.3868 209.204 60.3203 209.315L60.4311 209.47C60.4311 209.47 60.7413 209.581 61.0072 209.581H61.0294C61.1624 209.581 61.2953 209.581 61.3175 209.559C61.5612 209.426 61.4726 208.872 61.2953 208.717C61.2067 208.65 60.9186 208.517 60.7192 208.517C60.6084 208.517 60.4976 208.561 60.4976 208.672" fill="white"/>
</mask>
<g mask="url(#mask18_3860_33374)">
<path d="M61.581 208.45L60.3184 208.482L60.346 209.59L61.6087 209.558L61.581 208.45Z" fill="url(#paint5_linear_3860_33374)"/>
</g>
</g>
</g>
<g style="mix-blend-mode:multiply" opacity="0.3">
<mask id="mask19_3860_33374" style="mask-type:luminance" maskUnits="userSpaceOnUse" x="54" y="208" width="2" height="2">
<path d="M55.1352 208.713H54.1602V209.711H55.1352V208.713Z" fill="white"/>
</mask>
<g mask="url(#mask19_3860_33374)">
<mask id="mask20_3860_33374" style="mask-type:luminance" maskUnits="userSpaceOnUse" x="54" y="208" width="2" height="2">
<path d="M54.1819 209.045C54.1154 209.266 54.1819 209.621 54.47 209.71H54.5143C54.6915 209.71 55.0904 209.599 55.0461 209.488L55.1126 209.311C55.1126 209.311 54.8245 208.956 54.7802 208.845C54.7359 208.757 54.6694 208.712 54.6029 208.712C54.4257 208.712 54.2041 208.89 54.1597 209.045" fill="white"/>
</mask>
<g mask="url(#mask20_3860_33374)">
<path d="M55.1623 208.652L54.1211 208.678L54.1471 209.719L55.1883 209.693L55.1623 208.652Z" fill="url(#paint6_linear_3860_33374)"/>
</g>
</g>
</g>
</g>
</g>
</g>
<g style="mix-blend-mode:multiply" opacity="0.3">
<mask id="mask21_3860_33374" style="mask-type:luminance" maskUnits="userSpaceOnUse" x="55" y="201" width="6" height="8">
<path d="M60.0349 201.179H55.4258V208.115H60.0349V201.179Z" fill="white"/>
</mask>
<g mask="url(#mask21_3860_33374)">
<mask id="mask22_3860_33374" style="mask-type:luminance" maskUnits="userSpaceOnUse" x="55" y="201" width="6" height="8">
<path d="M56.2235 204.481C55.8911 205.478 55.4479 206.143 55.4258 206.541V206.586C55.4258 206.586 55.4258 206.586 55.4258 206.608C55.5144 207.384 57.0434 208.048 57.6861 208.093C57.6861 208.093 57.7082 208.093 57.7304 208.093H57.7525C58.4395 208.093 59.9241 207.206 60.0349 206.32C59.9685 206.32 56.4451 201.157 56.4451 201.157C56.5559 202.243 56.5559 203.439 56.2235 204.458" fill="white"/>
</mask>
<g mask="url(#mask22_3860_33374)">
<path d="M55.4062 201.049L55.207 208.093L60.0137 208.229L60.2129 201.185L55.4062 201.049Z" fill="url(#paint7_linear_3860_33374)"/>
</g>
</g>
</g>
<g style="mix-blend-mode:multiply" opacity="0.4">
<mask id="mask23_3860_33374" style="mask-type:luminance" maskUnits="userSpaceOnUse" x="55" y="201" width="6" height="8">
<path d="M60.0349 201.179H55.4258V208.115H60.0349V201.179Z" fill="white"/>
</mask>
<g mask="url(#mask23_3860_33374)">
<mask id="mask24_3860_33374" style="mask-type:luminance" maskUnits="userSpaceOnUse" x="55" y="201" width="6" height="8">
<path d="M56.2235 204.481C55.8911 205.478 55.4479 206.143 55.4258 206.541V206.586C55.4258 206.586 55.4258 206.586 55.4258 206.608C55.5144 207.384 57.0434 208.048 57.6861 208.093C57.6861 208.093 57.7082 208.093 57.7304 208.093H57.7525C58.4395 208.093 59.9241 207.206 60.0349 206.32C60.0128 206.32 59.1264 207.428 57.7304 207.494C56.844 207.516 55.6696 206.741 55.7582 206.541C57.1542 203.661 56.4451 201.157 56.4451 201.157C56.5559 202.243 56.5559 203.439 56.2235 204.458" fill="white"/>
</mask>
<g mask="url(#mask24_3860_33374)">
<path d="M55.4062 201.049L55.207 208.093L60.0137 208.229L60.2129 201.185L55.4062 201.049Z" fill="url(#paint8_linear_3860_33374)"/>
</g>
</g>
</g>
<g style="mix-blend-mode:multiply" opacity="0.3">
<mask id="mask25_3860_33374" style="mask-type:luminance" maskUnits="userSpaceOnUse" x="59" y="204" width="4" height="6">
<path d="M62.6261 204.567H59.834V209.863H62.6261V204.567Z" fill="white"/>
</mask>
<g mask="url(#mask25_3860_33374)">
<mask id="mask26_3860_33374" style="mask-type:luminance" maskUnits="userSpaceOnUse" x="59" y="204" width="4" height="6">
<path d="M62.6039 209.863C62.6039 209.753 62.6039 209.62 62.6039 209.509V209.398C62.5596 206.894 60.1442 204.9 59.834 204.612C60.1221 204.944 62.4488 207.714 62.5818 209.886M59.834 204.567C59.834 204.567 59.834 204.567 59.8561 204.612C59.8561 204.612 59.834 204.59 59.834 204.567Z" fill="white"/>
</mask>
<g mask="url(#mask26_3860_33374)">
<path d="M62.6085 204.296L59.3223 204.616L59.859 210.13L63.1452 209.81L62.6085 204.296Z" fill="url(#paint9_linear_3860_33374)"/>
</g>
</g>
</g>
<g style="mix-blend-mode:multiply" opacity="0.3">
<mask id="mask27_3860_33374" style="mask-type:luminance" maskUnits="userSpaceOnUse" x="53" y="204" width="3" height="6">
<path d="M55.8029 204.457H53.2324V209.886H55.8029V204.457Z" fill="white"/>
</mask>
<g mask="url(#mask27_3860_33374)">
<mask id="mask28_3860_33374" style="mask-type:luminance" maskUnits="userSpaceOnUse" x="53" y="204" width="3" height="6">
<path d="M53.2324 209.177V209.376C53.2324 209.553 53.2324 209.709 53.2767 209.886C53.2767 207.736 55.4927 204.856 55.7586 204.501C55.4705 204.811 53.2767 206.783 53.2324 209.199M55.7807 204.479C55.7807 204.479 55.8029 204.457 55.8029 204.435C55.8029 204.435 55.8029 204.435 55.7807 204.479Z" fill="white"/>
</mask>
<g mask="url(#mask28_3860_33374)">
<path d="M53.2208 204.316L52.9512 209.849L55.7621 209.986L56.0317 204.453L53.2208 204.316Z" fill="url(#paint10_linear_3860_33374)"/>
</g>
</g>
</g>
<g style="mix-blend-mode:multiply" opacity="0.4">
<mask id="mask29_3860_33374" style="mask-type:luminance" maskUnits="userSpaceOnUse" x="54" y="195" width="8" height="2">
<path d="M61.3642 195.526H54.5391V196.235H61.3642V195.526Z" fill="white"/>
</mask>
<g mask="url(#mask29_3860_33374)">
<mask id="mask30_3860_33374" style="mask-type:luminance" maskUnits="userSpaceOnUse" x="54" y="195" width="8" height="2">
<path d="M57.4419 195.526C56.4891 195.526 55.4698 195.681 54.5391 196.036C57.73 195.437 60.2562 196.102 61.3642 196.235C61.2977 196.08 59.6136 195.526 57.5971 195.526H57.4198H57.4419Z" fill="white"/>
</mask>
<g mask="url(#mask30_3860_33374)">
<path d="M61.3142 194.776L54.4551 195.444L54.5968 196.899L61.4559 196.232L61.3142 194.776Z" fill="url(#paint11_linear_3860_33374)"/>
</g>
</g>
</g>
<g style="mix-blend-mode:multiply" opacity="0.4">
<mask id="mask31_3860_33374" style="mask-type:luminance" maskUnits="userSpaceOnUse" x="53" y="193" width="10" height="2">
<path d="M62.1178 193.888H53.7637V194.663H62.1178V193.888Z" fill="white"/>
</mask>
<g mask="url(#mask31_3860_33374)">
<mask id="mask32_3860_33374" style="mask-type:luminance" maskUnits="userSpaceOnUse" x="53" y="193" width="10" height="2">
<path d="M57.3978 193.888C56.179 193.888 54.916 194.065 53.7637 194.552C57.1984 193.821 60.8547 194.442 62.1178 194.663C62.0735 194.53 60.0569 193.932 57.708 193.888H57.3978Z" fill="white"/>
</mask>
<g mask="url(#mask32_3860_33374)">
<path d="M62.1078 193.605L53.7344 193.822L53.7613 194.863L62.1347 194.647L62.1078 193.605Z" fill="url(#paint12_linear_3860_33374)"/>
</g>
</g>
</g>
<g style="mix-blend-mode:multiply" opacity="0.5">
<mask id="mask33_3860_33374" style="mask-type:luminance" maskUnits="userSpaceOnUse" x="52" y="201" width="3" height="3">
<path d="M54.582 201.33H52.8535V203.435H54.582V201.33Z" fill="white"/>
</mask>
<g mask="url(#mask33_3860_33374)">
<mask id="mask34_3860_33374" style="mask-type:luminance" maskUnits="userSpaceOnUse" x="52" y="201" width="3" height="3">
<path d="M53.7168 201.309C53.2514 201.309 52.8747 201.774 52.8525 202.328C52.8304 202.904 53.185 203.392 53.6725 203.392H53.7168C54.1821 203.392 54.5589 202.926 54.581 202.372C54.6032 201.796 54.2486 201.309 53.7611 201.287H53.7168V201.309Z" fill="white"/>
</mask>
<g mask="url(#mask34_3860_33374)">
<path d="M54.588 201.286L52.7715 201.33L52.8233 203.478L54.6398 203.435L54.588 201.286Z" fill="url(#paint13_linear_3860_33374)"/>
</g>
</g>
</g>
<path d="M54.4273 202.352C54.4051 202.906 54.0063 203.371 53.5409 203.349C53.0756 203.349 52.721 202.861 52.7432 202.307C52.7653 201.754 53.1642 201.288 53.6295 201.31C54.0949 201.31 54.4494 201.798 54.4273 202.352Z" fill="#724B30"/>
<path d="M54.2734 202.108C54.2734 202.285 54.1404 202.396 54.0074 202.396C53.8745 202.396 53.7637 202.263 53.7637 202.086C53.7637 201.931 53.8967 201.798 54.0296 201.798C54.1626 201.798 54.2734 201.931 54.2734 202.108Z" fill="white"/>
<g style="mix-blend-mode:multiply" opacity="0.5">
<mask id="mask35_3860_33374" style="mask-type:luminance" maskUnits="userSpaceOnUse" x="61" y="201" width="3" height="3">
<path d="M63.2688 201.244H61.5625V203.304H63.2688V201.244Z" fill="white"/>
</mask>
<g mask="url(#mask35_3860_33374)">
<mask id="mask36_3860_33374" style="mask-type:luminance" maskUnits="userSpaceOnUse" x="61" y="201" width="3" height="3">
<path d="M62.4257 201.246C61.9826 201.246 61.6059 201.712 61.5615 202.243C61.5394 202.82 61.8939 203.285 62.3593 203.307H62.4036C62.8468 203.307 63.2457 202.842 63.2678 202.288C63.29 201.712 62.9354 201.246 62.4701 201.224H62.4257V201.246Z" fill="white"/>
</mask>
<g mask="url(#mask36_3860_33374)">
<path d="M63.3146 201.214L61.498 201.257L61.5487 203.362L63.3653 203.318L63.3146 201.214Z" fill="url(#paint14_linear_3860_33374)"/>
</g>
</g>
</g>
<path d="M63.0927 202.308C63.0705 202.862 62.6716 203.305 62.2063 203.283C61.7409 203.261 61.4086 202.817 61.4307 202.263C61.4529 201.709 61.8517 201.266 62.3171 201.288C62.7824 201.288 63.1149 201.754 63.0927 202.308Z" fill="#724B30"/>
<path d="M62.9142 202.019C62.9142 202.174 62.7812 202.307 62.6483 202.307C62.5153 202.307 62.4045 202.174 62.4267 201.997C62.4267 201.841 62.5375 201.708 62.6926 201.708C62.8255 201.708 62.9363 201.841 62.9142 202.019Z" fill="white"/>
<path d="M55.3593 198.164C54.761 197.433 51.2377 198.053 50.6172 199.316L50.9053 199.826C52.4343 199.427 53.4758 199.737 54.6724 199.804C55.2042 199.826 55.6031 198.452 55.3815 198.164" fill="#E6E6E6"/>
<path d="M60.0785 198.075C60.6768 197.366 64.2001 198.053 64.7984 199.338L64.4882 199.848C62.9813 199.427 61.9177 199.715 60.7211 199.737C60.1892 199.737 59.8125 198.363 60.0563 198.075" fill="#E6E6E6"/>
<path d="M61.4961 208.38C60.8756 208.468 60.4324 207.161 59.679 207.028C59.3023 207.405 58.5932 208.025 57.6846 208.025C56.9977 208.025 55.7568 207.205 55.7568 207.205C55.0034 207.316 54.9812 208.623 54.3164 208.601C55.6238 209.709 57.175 209.421 57.8397 208.756C58.4602 209.643 60.9421 209.399 61.4961 208.38Z" fill="#E6E6E6"/>
<path d="M68.7207 194.308C68.2997 193.643 64.4883 190.785 63.7349 190.474C62.7377 190.053 58.5496 189.455 58.5496 189.455C58.3723 189.455 55.4029 189.765 54.2728 190.275C53.3421 190.696 50.1954 192.646 49.996 192.735C49.6415 192.89 48.2897 195.682 48.2676 196.347C48.2676 197.011 48.3784 200.269 48.6443 201.133C48.6443 201.133 49.2426 203.017 49.442 203.925C49.442 203.837 49.5307 202.972 49.5528 202.485C49.5528 200.158 50.0625 196.524 50.3062 195.859C50.5943 195.084 54.0734 192.247 54.2285 192.136C54.5609 191.915 56.8211 192.314 58.062 192.247C58.8376 192.203 61.3417 192.07 62.0951 192.181C62.8263 192.291 65.5076 193.798 66.4605 194.951C67.3912 195.97 67.3912 199.626 67.2582 202.152C67.4355 202.44 67.7457 204.169 67.8565 203.681C68.1889 202.175 68.5213 201.111 69.031 201.022C69.2304 200.047 69.5185 195.593 68.7207 194.33" fill="white"/>
<g style="mix-blend-mode:multiply" opacity="0.5">
<mask id="mask37_3860_33374" style="mask-type:luminance" maskUnits="userSpaceOnUse" x="49" y="200" width="20" height="6">
<path d="M68.7862 200.224H49.1973V205.985H68.7862V200.224Z" fill="white"/>
</mask>
<g mask="url(#mask37_3860_33374)">
<mask id="mask38_3860_33374" style="mask-type:luminance" maskUnits="userSpaceOnUse" x="49" y="200" width="20" height="6">
<path d="M50.3276 204.366C49.8401 203.68 49.7293 202.815 49.7293 202.195C49.7293 201.065 50.7264 200.843 52.6986 200.843H52.7651C53.6293 200.843 54.4935 200.843 55.114 201.065C55.7123 201.264 55.9782 201.597 55.9782 202.151C55.9782 203.369 55.6015 205.43 52.8981 205.452H52.8316C51.7015 205.452 50.8594 205.076 50.3276 204.366ZM60.0555 204.278C59.568 203.591 59.4573 202.727 59.4573 202.106C59.4573 200.976 60.5209 200.754 62.471 200.732H62.5374C64.5761 200.732 65.6619 200.91 65.6841 202.062C65.6841 203.281 65.3074 205.341 62.6039 205.364H62.5596C61.4073 205.364 60.5874 204.987 60.0555 204.278ZM62.8477 200.223C62.8477 200.223 62.6482 200.223 62.5374 200.223H62.471C61.3851 200.223 59.8783 200.245 59.2357 201.109C58.9033 200.91 58.4823 200.821 58.1499 200.777C57.4851 200.71 56.5765 200.799 56.089 201.087C55.8896 200.865 55.6015 200.688 55.247 200.555C54.56 200.333 53.6293 200.311 52.743 200.311H52.6765C51.2804 200.311 49.1753 200.356 49.1974 202.195C49.1974 202.882 49.3304 203.857 49.8844 204.655C50.4827 205.519 51.4577 205.962 52.7651 205.962H52.8759C56.1555 205.918 56.4879 203.258 56.4657 202.128C56.4657 201.907 56.4214 201.707 56.3549 201.53C56.643 201.353 57.3743 201.22 58.0834 201.286C58.4601 201.331 58.7925 201.419 58.9698 201.552C58.9254 201.707 58.8811 201.885 58.9033 202.106C58.9033 202.793 59.0362 203.768 59.5902 204.566C60.2107 205.452 61.23 205.895 62.5596 205.873C65.8392 205.829 66.1494 203.17 66.1494 202.04C66.1494 201.951 66.1494 201.885 66.1494 201.796L68.4983 201.419L68.7421 200.998L65.8613 201.065C65.2852 200.311 64.0221 200.223 62.9585 200.223H62.8255H62.8477Z" fill="white"/>
</mask>
<g mask="url(#mask38_3860_33374)">
<path d="M68.7871 200L49.1328 200.213L49.1976 206.196L68.8518 205.983L68.7871 200Z" fill="url(#paint15_linear_3860_33374)"/>
</g>
</g>
</g>
<path d="M69.0309 201L65.7956 200.911C65.1308 200.047 63.5575 200.069 62.4495 200.069H62.383C61.2972 200.069 59.7904 200.091 59.1478 200.955C58.8154 200.756 58.3943 200.667 58.0619 200.623C57.3972 200.556 56.4886 200.645 56.0011 200.933C55.8017 200.712 55.5136 200.534 55.1591 200.401C54.4721 200.18 53.5414 200.158 52.655 200.158H52.5886C51.1925 200.158 49.0874 200.202 49.1095 202.041C49.1095 202.728 49.2425 203.703 49.8186 204.501C50.4391 205.387 51.4363 205.83 52.788 205.808C56.0676 205.764 56.3778 203.105 56.3778 201.975C56.3778 201.753 56.3335 201.554 56.267 201.376C56.5551 201.199 57.2864 201.066 57.9955 201.133C58.3722 201.177 58.7046 201.266 58.8818 201.398C58.8375 201.554 58.8154 201.731 58.8154 201.952C58.8154 202.639 58.9483 203.614 59.5023 204.412C60.1228 205.299 61.12 205.742 62.4717 205.72C65.7513 205.675 66.0615 203.016 66.0615 201.886C66.0615 201.797 66.0615 201.709 66.0394 201.642L68.5212 201.398L68.9866 201H69.0309ZM52.788 205.299C51.6135 205.299 50.7715 204.944 50.2397 204.213C49.7522 203.526 49.6414 202.662 49.6414 202.041C49.6414 200.911 50.6385 200.712 52.5886 200.689H52.655C53.5193 200.689 54.3835 200.689 55.0039 200.911C55.6022 201.11 55.8681 201.443 55.8681 201.997C55.8681 203.216 55.4914 205.276 52.788 205.299ZM62.516 205.21C61.3415 205.21 60.4995 204.855 59.9677 204.124C59.4801 203.437 59.3693 202.573 59.3693 201.975C59.3693 200.844 60.433 200.623 62.383 200.601H62.4495C64.4882 200.601 65.574 200.778 65.5961 201.908C65.5961 203.127 65.2194 205.188 62.516 205.21Z" fill="#876148"/>
<path d="M55.1589 223.559C56.3112 223.78 57.4856 223.913 58.7044 223.913C59.2806 223.913 59.8567 223.891 60.4328 223.825L63.6016 217.731L53.3418 217.62L55.1589 223.559Z" fill="#E6E6E6"/>
<path d="M59.4587 217.421H56.2456L55.4922 218.839L56.7996 220.501C56.7331 221.254 56.578 222.385 56.4007 223.736C57.1542 223.825 57.9298 223.891 58.7053 223.891C58.9048 223.891 59.1042 223.891 59.3036 223.891L59.1042 220.545L60.6332 218.795L59.4366 217.421H59.4587Z" fill="#989F91"/>
<mask id="mask39_3860_33374" style="mask-type:luminance" maskUnits="userSpaceOnUse" x="66" y="218" width="4" height="4">
<path d="M66.4609 218.129C66.4609 218.129 66.7712 219.569 67.2144 221.808C67.9235 221.431 68.6104 221.032 69.253 220.567C68.2558 219.171 67.2587 218.329 66.4609 218.107V218.129Z" fill="white"/>
</mask>
<g mask="url(#mask39_3860_33374)">
<path d="M69.253 218.128H66.4609V221.807H69.253V218.128Z" fill="url(#paint16_linear_3860_33374)"/>
</g>
<mask id="mask40_3860_33374" style="mask-type:luminance" maskUnits="userSpaceOnUse" x="47" y="218" width="4" height="4">
<path d="M47.8906 220.39C48.5332 220.856 49.1759 221.277 49.885 221.653C50.306 219.526 50.5941 218.174 50.5941 218.174C49.6412 218.529 48.7327 219.304 47.9128 220.39" fill="white"/>
</mask>
<g mask="url(#mask40_3860_33374)">
<path d="M50.5719 218.174H47.8906V221.653H50.5719V218.174Z" fill="url(#paint17_linear_3860_33374)"/>
</g>
<path d="M58.7054 223.891C62.0071 223.891 65.0873 223.027 67.7686 221.52C67.3697 220.301 66.9265 219.149 66.439 218.152C65.3975 217.487 63.6026 216.955 62.8713 216.955C61.5639 219.06 59.3037 222.561 58.4395 223.891C58.5281 223.891 58.6168 223.891 58.7054 223.891Z" fill="#A38D5D"/>
<path d="M57.709 223.868C56.5789 222.25 53.4101 217.641 53.2771 217.176C52.2578 217.486 50.5959 217.907 50.3743 218.417C49.9532 219.347 49.5765 220.322 49.2441 221.297C51.7482 222.782 54.6289 223.713 57.709 223.868Z" fill="#A38D5D"/>
<path d="M59.4588 222.296C59.0378 222.938 58.6832 223.492 58.4395 223.869C58.5281 223.869 58.6168 223.869 58.7054 223.869C59.1043 223.869 59.4809 223.869 59.8577 223.825L61.1429 222.118L60.4116 221.166C60.0571 221.564 59.7469 221.941 59.4588 222.273" fill="#6D644A"/>
<path d="M64.1558 217.176C64.1558 217.176 64.0228 217.287 63.9785 217.353L64.3774 217.863L64.7541 217.353C64.5547 217.287 64.3552 217.22 64.1558 217.176Z" fill="#6D644A"/>
<path d="M62.2069 223.558C64.024 223.204 65.7302 222.605 67.3036 221.763L64.3564 217.863L61.1211 222.14L62.1847 223.558H62.2069Z" fill="#6D644A"/>
<path d="M49.2429 221.276C50.6832 222.14 52.2344 222.805 53.8742 223.248L54.6941 222.14L51.4588 217.863L49.5309 220.412C49.4201 220.7 49.3093 220.988 49.2207 221.276" fill="#6D644A"/>
<path d="M51.3933 217.753L51.4598 217.864L51.5927 217.687C51.5927 217.687 51.4597 217.731 51.3711 217.775" fill="#6D644A"/>
<path d="M57.5526 223.846L55.381 221.209L54.6719 222.14L55.8242 223.669C56.4003 223.758 56.9543 223.824 57.5526 223.846Z" fill="#6D644A"/>
<path d="M64.7556 217.354L64.3789 217.864L67.3261 221.764C67.4812 221.675 67.6363 221.586 67.7914 221.52C67.3926 220.279 66.9494 219.149 66.4619 218.13C65.9966 217.842 65.3761 217.553 64.7556 217.354Z" fill="#B7AB83"/>
<path d="M50.3726 218.417C50.0845 219.082 49.7965 219.747 49.5527 220.412L51.4806 217.863L51.392 217.752C50.8823 217.952 50.4834 218.173 50.3726 218.395" fill="#B7AB83"/>
<path d="M55.8459 223.67L54.6936 222.141L53.8516 223.249C54.4942 223.426 55.159 223.559 55.8238 223.67" fill="#B7AB83"/>
<path d="M52.301 217.442C52.0573 217.509 51.8135 217.598 51.5919 217.686L51.459 217.863L54.6942 222.14L55.4034 221.209L52.3232 217.442H52.301Z" fill="#B7AB83"/>
<path d="M62.2063 223.559L61.1427 222.141L59.8574 223.847C60.6552 223.803 61.4307 223.692 62.2063 223.559Z" fill="#B7AB83"/>
<path d="M60.4121 221.188L61.1434 222.14L64.3787 217.864L63.9798 217.354C62.7389 218.595 61.4758 219.991 60.4121 221.188Z" fill="#B7AB83"/>
<g opacity="0.5">
<mask id="mask41_3860_33374" style="mask-type:luminance" maskUnits="userSpaceOnUse" x="59" y="223" width="1" height="1">
<path d="M59.3695 223.624H59.0371V223.89H59.3695V223.624Z" fill="white"/>
</mask>
<g mask="url(#mask41_3860_33374)">
<mask id="mask42_3860_33374" style="mask-type:luminance" maskUnits="userSpaceOnUse" x="59" y="223" width="1" height="1">
<path d="M59.3695 223.624H59.0371V223.889H59.3695V223.624Z" fill="white"/>
</mask>
<g mask="url(#mask42_3860_33374)">
<path d="M59.1701 223.624C59.1701 223.624 59.0814 223.756 59.0371 223.823L59.0814 223.889C59.0814 223.889 59.2808 223.889 59.3695 223.889L59.1701 223.624Z" fill="#E2D6B7"/>
</g>
</g>
</g>
<g opacity="0.5">
<mask id="mask43_3860_33374" style="mask-type:luminance" maskUnits="userSpaceOnUse" x="49" y="219" width="5" height="4">
<path d="M53.7863 219.083H49.709V222.629H53.7863V219.083Z" fill="white"/>
</mask>
<g mask="url(#mask43_3860_33374)">
<mask id="mask44_3860_33374" style="mask-type:luminance" maskUnits="userSpaceOnUse" x="49" y="219" width="5" height="4">
<path d="M53.7863 219.084H49.709V222.629H53.7863V219.084Z" fill="white"/>
</mask>
<g mask="url(#mask44_3860_33374)">
<path d="M51.4153 222.408L51.4596 222.341L51.5482 222.452C51.6812 222.519 51.8363 222.563 51.9693 222.607L51.6147 222.142L53.7863 219.261L53.6312 219.084L51.4596 221.965L49.7976 219.749C49.7976 219.749 49.7311 219.926 49.709 220.015L51.3266 222.164L51.2158 222.319C51.2158 222.319 51.3709 222.386 51.4374 222.408" fill="#E2D6B7"/>
</g>
</g>
</g>
<g opacity="0.5">
<mask id="mask45_3860_33374" style="mask-type:luminance" maskUnits="userSpaceOnUse" x="56" y="223" width="2" height="1">
<path d="M57.153 223.16H56.5547V223.781H57.153V223.16Z" fill="white"/>
</mask>
<g mask="url(#mask45_3860_33374)">
<mask id="mask46_3860_33374" style="mask-type:luminance" maskUnits="userSpaceOnUse" x="56" y="223" width="2" height="1">
<path d="M57.153 223.161H56.5547V223.781H57.153V223.161Z" fill="white"/>
</mask>
<g mask="url(#mask46_3860_33374)">
<path d="M56.5547 223.757C56.5547 223.757 56.732 223.779 56.8206 223.802L57.153 223.358L56.9979 223.181L56.5547 223.779V223.757Z" fill="#E2D6B7"/>
</g>
</g>
</g>
<g opacity="0.5">
<mask id="mask47_3860_33374" style="mask-type:luminance" maskUnits="userSpaceOnUse" x="62" y="218" width="5" height="6">
<path d="M66.86 218.793H62.0957V223.292H66.86V218.793Z" fill="white"/>
</mask>
<g mask="url(#mask47_3860_33374)">
<mask id="mask48_3860_33374" style="mask-type:luminance" maskUnits="userSpaceOnUse" x="62" y="218" width="5" height="6">
<path d="M66.86 218.792H62.0957V223.291H66.86V218.792Z" fill="white"/>
</mask>
<g mask="url(#mask48_3860_33374)">
<path d="M66.7492 218.792L64.3781 221.961L62.8269 219.923L62.2508 219.147C62.2508 219.147 62.14 219.258 62.0957 219.324L62.694 220.1L64.223 222.139L63.3588 223.291C63.4917 223.269 63.6025 223.224 63.7355 223.18L64.3781 222.338L64.777 222.87C64.777 222.87 64.9321 222.825 65.0207 222.781L64.5332 222.139L66.8821 219.036L66.7713 218.792" fill="#E2D6B7"/>
</g>
</g>
</g>
<path d="M62.8706 216.933C61.3416 219.083 58.4165 223.204 57.9512 223.869C58.1949 223.869 58.4387 223.869 58.7046 223.869C59.1035 223.869 59.5023 223.869 59.9012 223.825C61.2086 222.097 62.9814 219.703 64.6877 217.31C64.2888 217.155 62.8706 216.778 62.8706 216.911" fill="#6D644A"/>
<path d="M53.2975 217.087C52.7657 217.265 51.9236 217.42 51.5469 217.708C52.4776 219.17 54.339 221.719 55.8015 223.669C56.4663 223.78 57.1311 223.846 57.818 223.868L53.2753 217.087H53.2975Z" fill="#6D644A"/>
<path d="M54.074 216.024L51.2598 217.819L53.941 221.675L56.6223 217.31C56.6223 217.31 54.1405 215.98 54.074 216.047" fill="white"/>
<path d="M65.2415 217.531L62.4494 215.758L59.2363 217.332L61.9619 221.586L65.2415 217.531Z" fill="white"/>
<defs>
<linearGradient id="paint0_linear_3860_33374" x1="48.4969" y1="203.324" x2="45.3947" y2="203.358" gradientUnits="userSpaceOnUse">
<stop stop-color="#E29359"/>
<stop offset="0.04" stop-color="#E3945A"/>
<stop offset="0.59" stop-color="#EEA56B"/>
<stop offset="1" stop-color="#F2AC71"/>
</linearGradient>
<linearGradient id="paint1_linear_3860_33374" x1="70.3753" y1="205.684" x2="59.961" y2="205.797" gradientUnits="userSpaceOnUse">
<stop stop-color="#F2AC71"/>
<stop offset="0.36" stop-color="#EDA56A"/>
<stop offset="0.85" stop-color="#E09459"/>
<stop offset="1" stop-color="#DB8E53"/>
</linearGradient>
<radialGradient id="paint2_radial_3860_33374" cx="0" cy="0" r="1" gradientUnits="userSpaceOnUse" gradientTransform="translate(62.5343 203.902) rotate(179.38) scale(3.34608 3.34608)">
<stop stop-color="#DE4031"/>
<stop offset="0.11" stop-color="#DE4435"/>
<stop offset="0.25" stop-color="#E15144"/>
<stop offset="0.39" stop-color="#E4675B"/>
<stop offset="0.55" stop-color="#EA867D"/>
<stop offset="0.71" stop-color="#F1ADA7"/>
<stop offset="0.87" stop-color="#F9DDDA"/>
<stop offset="0.97" stop-color="white"/>
<stop offset="1" stop-color="white"/>
</radialGradient>
<radialGradient id="paint3_radial_3860_33374" cx="0" cy="0" r="1" gradientUnits="userSpaceOnUse" gradientTransform="translate(48.6355 203.372) rotate(179.38) scale(3.16881 3.1688)">
<stop stop-color="#DE4031"/>
<stop offset="0.11" stop-color="#DE4435"/>
<stop offset="0.25" stop-color="#E15144"/>
<stop offset="0.39" stop-color="#E4675B"/>
<stop offset="0.55" stop-color="#EA867D"/>
<stop offset="0.71" stop-color="#F1ADA7"/>
<stop offset="0.87" stop-color="#F9DDDA"/>
<stop offset="0.97" stop-color="white"/>
<stop offset="1" stop-color="white"/>
</radialGradient>
<linearGradient id="paint4_linear_3860_33374" x1="58.3016" y1="209.221" x2="60.9769" y2="209.043" gradientUnits="userSpaceOnUse">
<stop stop-color="#F2AC71"/>
<stop offset="0.36" stop-color="#EDA56A"/>
<stop offset="0.85" stop-color="#E09459"/>
<stop offset="1" stop-color="#DB8E53"/>
</linearGradient>
<linearGradient id="paint5_linear_3860_33374" x1="61.1199" y1="204.184" x2="62.2497" y2="204.156" gradientUnits="userSpaceOnUse">
<stop stop-color="#F2AC71"/>
<stop offset="0.36" stop-color="#EDA56A"/>
<stop offset="0.85" stop-color="#E09459"/>
<stop offset="1" stop-color="#DB8E53"/>
</linearGradient>
<linearGradient id="paint6_linear_3860_33374" x1="54.7424" y1="199.515" x2="55.695" y2="199.491" gradientUnits="userSpaceOnUse">
<stop stop-color="#F2AC71"/>
<stop offset="0.36" stop-color="#EDA56A"/>
<stop offset="0.85" stop-color="#E09459"/>
<stop offset="1" stop-color="#DB8E53"/>
</linearGradient>
<linearGradient id="paint7_linear_3860_33374" x1="57.7185" y1="202.903" x2="57.5475" y2="208.95" gradientUnits="userSpaceOnUse">
<stop stop-color="white"/>
<stop offset="0.15" stop-color="#FEFCFB"/>
<stop offset="0.28" stop-color="#FBF4F0"/>
<stop offset="0.41" stop-color="#F6E7DD"/>
<stop offset="0.53" stop-color="#EFD5C3"/>
<stop offset="0.65" stop-color="#E7BDA1"/>
<stop offset="0.77" stop-color="#DCA078"/>
<stop offset="0.89" stop-color="#D07F48"/>
<stop offset="1" stop-color="#C35B15"/>
</linearGradient>
<linearGradient id="paint8_linear_3860_33374" x1="57.7185" y1="202.903" x2="57.5475" y2="208.95" gradientUnits="userSpaceOnUse">
<stop stop-color="#F2AC71"/>
<stop offset="0.36" stop-color="#EDA56A"/>
<stop offset="0.85" stop-color="#E09459"/>
<stop offset="1" stop-color="#DB8E53"/>
</linearGradient>
<linearGradient id="paint9_linear_3860_33374" x1="61.5463" y1="205.312" x2="63.8621" y2="205.087" gradientUnits="userSpaceOnUse">
<stop stop-color="#F2AC71"/>
<stop offset="0.36" stop-color="#EDA56A"/>
<stop offset="0.85" stop-color="#E09459"/>
<stop offset="1" stop-color="#DB8E53"/>
</linearGradient>
<linearGradient id="paint10_linear_3860_33374" x1="52.9891" y1="205.635" x2="50.6651" y2="205.521" gradientUnits="userSpaceOnUse">
<stop stop-color="#F2AC71"/>
<stop offset="0.36" stop-color="#EDA56A"/>
<stop offset="0.85" stop-color="#E09459"/>
<stop offset="1" stop-color="#DB8E53"/>
</linearGradient>
<linearGradient id="paint11_linear_3860_33374" x1="56.2114" y1="195.331" x2="62.9603" y2="194.674" gradientUnits="userSpaceOnUse">
<stop stop-color="#F2AC71"/>
<stop offset="0.36" stop-color="#EDA56A"/>
<stop offset="0.85" stop-color="#E09459"/>
<stop offset="1" stop-color="#DB8E53"/>
</linearGradient>
<linearGradient id="paint12_linear_3860_33374" x1="58.9091" y1="194.306" x2="67.2383" y2="194.091" gradientUnits="userSpaceOnUse">
<stop stop-color="#F2AC71"/>
<stop offset="0.36" stop-color="#EDA56A"/>
<stop offset="0.85" stop-color="#E09459"/>
<stop offset="1" stop-color="#DB8E53"/>
</linearGradient>
<linearGradient id="paint13_linear_3860_33374" x1="53.71" y1="200.631" x2="55.4379" y2="200.589" gradientUnits="userSpaceOnUse">
<stop stop-color="#F2AC71"/>
<stop offset="0.36" stop-color="#EDA56A"/>
<stop offset="0.85" stop-color="#E09459"/>
<stop offset="1" stop-color="#DB8E53"/>
</linearGradient>
<linearGradient id="paint14_linear_3860_33374" x1="61.9795" y1="201.488" x2="63.6853" y2="201.447" gradientUnits="userSpaceOnUse">
<stop stop-color="#F2AC71"/>
<stop offset="0.36" stop-color="#EDA56A"/>
<stop offset="0.85" stop-color="#E09459"/>
<stop offset="1" stop-color="#DB8E53"/>
</linearGradient>
<linearGradient id="paint15_linear_3860_33374" x1="68.7418" y1="203.023" x2="49.154" y2="203.234" gradientUnits="userSpaceOnUse">
<stop stop-color="#F2AC71"/>
<stop offset="0.36" stop-color="#EDA56A"/>
<stop offset="0.85" stop-color="#E09459"/>
<stop offset="1" stop-color="#DB8E53"/>
</linearGradient>
<linearGradient id="paint16_linear_3860_33374" x1="71.3143" y1="216.243" x2="74.1064" y2="216.243" gradientUnits="userSpaceOnUse">
<stop stop-color="#5D5541"/>
<stop offset="0.27" stop-color="#605842"/>
<stop offset="1" stop-color="#675F46"/>
</linearGradient>
<linearGradient id="paint17_linear_3860_33374" x1="49.5894" y1="217.459" x2="52.2706" y2="217.459" gradientUnits="userSpaceOnUse">
<stop stop-color="#675F46"/>
<stop offset="0.73" stop-color="#605842"/>
<stop offset="1" stop-color="#5D5541"/>
</linearGradient>
</defs>
</svg>
