<svg width="401" height="235" viewBox="0 0 401 235" fill="none" xmlns="http://www.w3.org/2000/svg">
<rect x="0.626953" width="400" height="234.925" rx="39.0095" fill="white"/>
<path d="M45.2855 38.0956C45.935 37.3446 46.7875 36.7357 47.843 36.2689C48.9187 35.7817 49.9539 35.5381 50.9485 35.5381C52.4302 35.5381 53.7495 35.8528 54.9064 36.482C56.0837 37.1112 56.9971 37.984 57.6466 39.1003C58.2961 40.1964 58.6208 41.465 58.6208 42.9061C58.6208 44.3472 58.2961 45.6361 57.6466 46.7727C56.9971 47.8891 56.0837 48.772 54.9064 49.4215C53.7495 50.0507 52.4302 50.3654 50.9485 50.3654C49.7915 50.3654 48.6954 50.1218 47.6603 49.6346C46.6454 49.1475 45.7828 48.4676 45.0724 47.5948C44.362 46.722 43.8748 45.7376 43.611 44.6415L46.412 44.0021C46.6556 45.0576 47.1934 45.9304 48.0256 46.6205C48.8781 47.3106 49.8524 47.6557 50.9485 47.6557C51.8618 47.6557 52.6839 47.4527 53.4146 47.0467C54.1453 46.6408 54.7136 46.0725 55.1196 45.3418C55.5255 44.6111 55.7285 43.7992 55.7285 42.9061C55.7285 41.9927 55.5255 41.191 55.1196 40.5008C54.7136 39.7904 54.1453 39.2424 53.4146 38.8568C52.6839 38.4508 51.8618 38.2478 50.9485 38.2478C50.3395 38.2478 49.7103 38.4102 49.0608 38.735C48.4113 39.0597 47.8633 39.4758 47.4167 39.9833L45.2855 38.0956ZM44.5243 39.5875L45.2551 27.9571H56.8245V30.4841H48.0256L47.4167 39.9833L44.5243 39.5875Z" fill="#231815"/>
<path d="M57.1752 79.8834H60.1285V82.4104H57.1752V88.2865H54.2829V82.4104H44.7228L44.4184 79.8834L54.4047 66.1827H57.1752V79.8834ZM54.2829 79.8834V71.054L47.8892 79.8834H54.2829Z" fill="#231815"/>
<path d="M55.3135 115.137C56.2675 115.705 57.0287 116.476 57.597 117.451C58.1856 118.405 58.4799 119.359 58.4799 120.313C58.4799 121.551 58.1653 122.657 57.5361 123.631C56.9069 124.606 56.0341 125.367 54.9177 125.915C53.8014 126.463 52.5226 126.737 51.0815 126.737C49.6607 126.737 48.3921 126.463 47.2758 125.915C46.1797 125.346 45.3171 124.565 44.6879 123.57C44.0587 122.576 43.744 121.449 43.744 120.191H46.6364C46.6364 120.962 46.8191 121.652 47.1844 122.261C47.5701 122.85 48.0978 123.317 48.7676 123.662C49.4577 124.007 50.2392 124.179 51.112 124.179C51.9848 124.179 52.7662 124.007 53.4563 123.662C54.1464 123.317 54.6843 122.85 55.07 122.261C55.4556 121.652 55.6484 120.962 55.6484 120.191C55.6484 119.44 55.4556 118.78 55.07 118.212C54.6843 117.623 54.1464 117.167 53.4563 116.842C52.7865 116.517 52.0152 116.355 51.1424 116.355H49.5592V113.889H51.1729C51.9848 113.889 52.7053 113.736 53.3345 113.432C53.9638 113.127 54.4509 112.721 54.7959 112.214C55.141 111.686 55.3135 111.077 55.3135 110.387C55.3135 109.332 54.938 108.479 54.187 107.83C53.4563 107.16 52.4922 106.825 51.2947 106.825C50.5031 106.825 49.8028 106.977 49.1939 107.282C48.6053 107.586 48.1384 108.012 47.7934 108.56C47.4483 109.108 47.2758 109.728 47.2758 110.418H44.3834C44.3834 109.22 44.6777 108.155 45.2663 107.221C45.855 106.287 46.6669 105.567 47.702 105.059C48.7575 104.531 49.955 104.268 51.2947 104.268C52.614 104.268 53.7912 104.531 54.8264 105.059C55.8616 105.567 56.6735 106.277 57.2621 107.19C57.8507 108.104 58.145 109.139 58.145 110.296C58.145 111.148 57.8913 112.031 57.3839 112.945C56.8764 113.838 56.1863 114.568 55.3135 115.137Z" fill="#231815"/>
<path d="M44.3168 162.298C44.8242 161.81 45.3012 161.374 45.7478 160.988C46.1943 160.582 46.6815 160.136 47.2092 159.649C48.9142 158.106 50.2741 156.817 51.289 155.782C52.3241 154.747 53.1969 153.691 53.9073 152.616C54.6177 151.52 54.9729 150.505 54.9729 149.571C54.9729 148.698 54.8004 147.927 54.4553 147.257C54.1306 146.587 53.6637 146.06 53.0548 145.674C52.4459 145.288 51.7456 145.096 50.954 145.096C50.061 145.096 49.2085 145.4 48.3966 146.009C47.605 146.598 46.9961 147.349 46.5698 148.262L44.0124 147.166C44.601 145.786 45.5448 144.659 46.8438 143.786C48.1632 142.914 49.5332 142.477 50.954 142.477C52.314 142.477 53.5115 142.782 54.5467 143.391C55.5818 143.979 56.3937 144.811 56.9824 145.887C57.571 146.963 57.8653 148.191 57.8653 149.571C57.8653 150.911 57.4492 152.271 56.617 153.651C55.7848 155.011 54.7902 156.279 53.6333 157.457C52.4763 158.614 50.9743 160.004 49.1273 161.628C48.0718 162.541 47.1178 163.394 46.2654 164.185L44.3168 162.298ZM44.3168 162.298H58.2306V164.825H44.6213L44.3168 162.298Z" fill="#231815"/>
<path d="M54.1384 203.05L51.2461 203.02V184.113L47.5316 186.335L46.2225 183.961L51.2765 180.977H54.1384V203.05Z" fill="#231815"/>
<path d="M360.585 41.4717H69.1621" stroke="#D8CCA5" stroke-width="1.33962" stroke-linecap="round"/>
<path d="M360.585 79.9102H69.1621" stroke="#D8CCA5" stroke-width="1.33962" stroke-linecap="round"/>
<path d="M360.585 118.353H69.1621" stroke="#D8CCA5" stroke-width="1.33962" stroke-linecap="round"/>
<path d="M360.585 156.747H69.1621" stroke="#D8CCA5" stroke-width="1.33962" stroke-linecap="round"/>
<path d="M69.1621 41.4717V195.188H360.628" stroke="#B39E4F" stroke-width="1.33962" stroke-linecap="round"/>
<path d="M228.4 43.8696C246.036 49.0491 299.629 68.0122 335.158 115.013" stroke="#898989" stroke-width="3.05212" stroke-linecap="round" stroke-linejoin="round" stroke-dasharray="0.31 6.08"/>
<path d="M202.589 54.6548C202.589 54.6548 117.148 123.487 69.8906 117.323" stroke="#F29C9F" stroke-width="2.67925"/>
<path d="M220.224 40.4438L190.688 50.546L204.086 67.1547L220.224 40.4438Z" fill="#F29C9F"/>
<path d="M337.128 124.258C340.381 124.258 342.992 121.646 342.992 118.393C342.992 115.14 340.381 112.529 337.128 112.529C333.875 112.529 331.264 115.14 331.264 118.393C331.264 121.646 333.875 124.258 337.128 124.258Z" fill="#898989"/>
</svg>
