<svg width="401" height="236" viewBox="0 0 401 236" fill="none" xmlns="http://www.w3.org/2000/svg">
<rect x="0.625977" y="0.561523" width="400" height="234.8" rx="39.0095" fill="white"/>
<path d="M45.2815 38.6648C45.9306 37.9142 46.7826 37.3057 47.8374 36.8392C48.9124 36.3524 49.9469 36.1089 50.9409 36.1089C52.4216 36.1089 53.7401 36.4234 54.8963 37.0522C56.0728 37.681 56.9856 38.5532 57.6347 39.6688C58.2838 40.7642 58.6083 42.032 58.6083 43.4722C58.6083 44.9123 58.2838 46.2004 57.6347 47.3363C56.9856 48.452 56.0728 49.3343 54.8963 49.9834C53.7401 50.6122 52.4216 50.9266 50.9409 50.9266C49.7847 50.9266 48.6893 50.6832 47.6548 50.1964C46.6406 49.7096 45.7785 49.0301 45.0685 48.1578C44.3586 47.2856 43.8718 46.3018 43.6081 45.2065L46.4073 44.5675C46.6507 45.6223 47.1883 46.4945 48.0199 47.1842C48.8719 47.8739 49.8455 48.2187 50.9409 48.2187C51.8537 48.2187 52.6752 48.0158 53.4054 47.6102C54.1356 47.2045 54.7036 46.6365 55.1093 45.9063C55.515 45.176 55.7178 44.3647 55.7178 43.4722C55.7178 42.5594 55.515 41.7581 55.1093 41.0685C54.7036 40.3585 54.1356 39.8108 53.4054 39.4254C52.6752 39.0197 51.8537 38.8169 50.9409 38.8169C50.3323 38.8169 49.7035 38.9792 49.0544 39.3037C48.4053 39.6283 47.8576 40.0441 47.4114 40.5512L45.2815 38.6648ZM44.5209 40.1557L45.2511 28.5327H56.8132V31.0581H48.0199L47.4114 40.5512L44.5209 40.1557Z" fill="#231815"/>
<path d="M57.1636 80.4249H60.115V82.9503H57.1636V88.8226H54.2731V82.9503H44.7192L44.415 80.4249L54.3948 66.7329H57.1636V80.4249ZM54.2731 80.4249V71.6012L47.8836 80.4249H54.2731Z" fill="#231815"/>
<path d="M55.3031 115.657C56.2565 116.225 57.0172 116.996 57.5851 117.969C58.1734 118.923 58.4675 119.876 58.4675 120.829C58.4675 122.067 58.1531 123.172 57.5243 124.146C56.8955 125.119 56.0232 125.88 54.9076 126.428C53.792 126.975 52.514 127.249 51.0739 127.249C49.654 127.249 48.3862 126.975 47.2705 126.428C46.1752 125.86 45.3131 125.079 44.6843 124.085C44.0555 123.091 43.7411 121.965 43.7411 120.708H46.6316C46.6316 121.478 46.8141 122.168 47.1793 122.777C47.5647 123.365 48.0921 123.831 48.7614 124.176C49.4511 124.521 50.2321 124.693 51.1043 124.693C51.9765 124.693 52.7575 124.521 53.4471 124.176C54.1368 123.831 54.6743 123.365 55.0597 122.777C55.4451 122.168 55.6378 121.478 55.6378 120.708C55.6378 119.957 55.4451 119.298 55.0597 118.73C54.6743 118.142 54.1368 117.685 53.4471 117.361C52.7777 117.036 52.0069 116.874 51.1347 116.874H49.5525V114.409H51.1651C51.9765 114.409 52.6966 114.257 53.3254 113.953C53.9542 113.649 54.4411 113.243 54.7859 112.736C55.1307 112.208 55.3031 111.6 55.3031 110.91C55.3031 109.855 54.9279 109.004 54.1774 108.354C53.4471 107.685 52.4836 107.35 51.2868 107.35C50.4958 107.35 49.7959 107.502 49.1874 107.807C48.5992 108.111 48.1326 108.537 47.7878 109.085C47.443 109.632 47.2705 110.251 47.2705 110.941H44.38C44.38 109.744 44.6742 108.679 45.2624 107.746C45.8506 106.813 46.662 106.093 47.6965 105.586C48.7513 105.058 49.9481 104.795 51.2868 104.795C52.6053 104.795 53.7818 105.058 54.8163 105.586C55.8508 106.093 56.6622 106.803 57.2504 107.715C57.8387 108.628 58.1328 109.663 58.1328 110.819C58.1328 111.671 57.8792 112.553 57.3721 113.466C56.865 114.359 56.1754 115.089 55.3031 115.657Z" fill="#231815"/>
<path d="M44.3135 162.787C44.8206 162.301 45.2973 161.864 45.7435 161.479C46.1898 161.073 46.6766 160.627 47.204 160.14C48.9079 158.599 50.2669 157.311 51.2811 156.276C52.3156 155.242 53.1879 154.187 53.8978 153.112C54.6078 152.016 54.9627 151.002 54.9627 150.069C54.9627 149.197 54.7903 148.426 54.4455 147.757C54.1209 147.087 53.6544 146.56 53.0459 146.175C52.4373 145.789 51.7375 145.596 50.9464 145.596C50.0539 145.596 49.202 145.901 48.3906 146.509C47.5995 147.097 46.991 147.848 46.565 148.761L44.0092 147.665C44.5975 146.286 45.5407 145.16 46.8389 144.288C48.1574 143.416 49.5265 142.98 50.9464 142.98C52.3055 142.98 53.5023 143.284 54.5368 143.893C55.5713 144.481 56.3826 145.312 56.9709 146.388C57.5591 147.463 57.8533 148.69 57.8533 150.069C57.8533 151.408 57.4374 152.767 56.6058 154.146C55.7741 155.505 54.7802 156.773 53.624 157.95C52.4678 159.106 50.9667 160.495 49.1209 162.118C48.0661 163.031 47.1127 163.883 46.2608 164.674L44.3135 162.787ZM44.3135 162.787H58.2184V165.313H44.6177L44.3135 162.787Z" fill="#231815"/>
<path d="M54.13 203.513L51.2395 203.483V184.588L47.5274 186.809L46.2191 184.436L51.2699 181.454H54.13V203.513Z" fill="#231815"/>
<path d="M360.626 40.9932H69.3906" stroke="#D8CCA5" stroke-width="1.33877" stroke-linecap="round"/>
<path d="M360.626 79.3652H69.3906" stroke="#D8CCA5" stroke-width="1.33877" stroke-linecap="round"/>
<path d="M360.626 117.782H69.3906" stroke="#D8CCA5" stroke-width="1.33877" stroke-linecap="round"/>
<path d="M360.626 156.196H69.3906" stroke="#D8CCA5" stroke-width="1.33877" stroke-linecap="round"/>
<path d="M69.3906 40.9932V194.568H360.626" stroke="#B39E4F" stroke-width="1.33877" stroke-linecap="round"/>
<path d="M311.345 86.8092C314.596 86.8092 317.206 84.1997 317.206 80.9485C317.206 77.6974 314.596 75.0879 311.345 75.0879C308.094 75.0879 305.484 77.6974 305.484 80.9485C305.484 84.1997 308.094 86.8092 311.345 86.8092Z" fill="#898989"/>
<path d="M71.0166 155.084C71.0166 155.084 95.8709 192.002 151.44 192.002C153.964 192.002 163.974 192.344 166.626 192.002" stroke="#CDA6CB" stroke-width="3.04265"/>
<path d="M280 110C270.074 129.654 238.937 178.407 170 191" stroke="#CDA6CB" stroke-width="3.04265" stroke-linecap="round" stroke-linejoin="round" stroke-dasharray="0.3 6.09"/>
<path d="M291.966 80.2646L271.475 104.777L292.008 112.22L291.966 80.2646Z" fill="#CDA6CB"/>
</svg>
