<svg width="51" height="51" viewBox="0 0 51 51" fill="none" xmlns="http://www.w3.org/2000/svg">
<path d="M50.6641 25.6846C50.6641 39.5004 39.4799 50.6846 25.6641 50.6846C11.8483 50.6846 0.664062 39.5004 0.664062 25.6846C0.664062 11.8688 11.8483 0.68457 25.6641 0.68457C39.4799 0.68457 50.6641 11.8688 50.6641 25.6846Z" fill="#DBCCBD"/>
<path d="M37.2371 16.0545C37.0875 15.7256 17.9488 10.8213 17.9488 10.8213C12.7155 13.3033 6.52533 39.4696 17.6796 44.3141C22.554 50.2651 32.3327 46.527 33.828 45.3607C40.7957 39.978 40.0182 21.9457 37.2371 16.0545Z" fill="#6B4932"/>
<path d="M28.0856 36.2994L22.8524 36.8078C23.7196 41.0243 22.5534 42.2504 21.5665 42.6092C20.1012 46.736 21.2974 49.3975 23.2412 50.5638C24.0486 50.6535 24.856 50.6834 25.6933 50.6834C26.5904 50.6834 27.4876 50.6236 28.3548 50.5339C30.2388 49.3377 31.3751 46.736 30.0294 42.6092C27.6072 41.8616 28.0856 38.303 28.0856 36.2695" fill="#F2AC71"/>
<g style="mix-blend-mode:multiply" opacity="0.5">
<mask id="mask0_2155_18163" style="mask-type:luminance" maskUnits="userSpaceOnUse" x="21" y="42" width="9" height="2">
<path d="M29.9707 42.3438H21.5078V43.5399H29.9707V42.3438Z" fill="white"/>
</mask>
<g mask="url(#mask0_2155_18163)">
<mask id="mask1_2155_18163" style="mask-type:luminance" maskUnits="userSpaceOnUse" x="21" y="42" width="9" height="2">
<path d="M29.9707 42.3457H21.5078V43.5419H29.9707V42.3457Z" fill="white"/>
</mask>
<g mask="url(#mask1_2155_18163)">
<path d="M29.9707 42.6148C28.9241 43.2428 27.2195 43.5419 25.5449 43.5419C23.96 43.5419 22.4049 43.2727 21.5078 42.7943C21.5078 42.7345 21.5377 42.6746 21.5676 42.6148C21.6872 42.5849 21.7769 42.5251 21.8966 42.4653C23.5712 43.2727 27.4887 43.3325 29.4025 42.3457C29.5521 42.4653 29.7315 42.555 29.9408 42.6148" fill="#EF9D78"/>
</g>
</g>
</g>
<g style="mix-blend-mode:multiply" opacity="0.7">
<mask id="mask2_2155_18163" style="mask-type:luminance" maskUnits="userSpaceOnUse" x="22" y="36" width="7" height="5">
<path d="M28.0868 36.3018H22.8535V40.9369H28.0868V36.3018Z" fill="white"/>
</mask>
<g mask="url(#mask2_2155_18163)">
<mask id="mask3_2155_18163" style="mask-type:luminance" maskUnits="userSpaceOnUse" x="22" y="36" width="7" height="5">
<path d="M28.0868 36.3047H22.8535V40.9399H28.0868V36.3047Z" fill="white"/>
</mask>
<g mask="url(#mask3_2155_18163)">
<path d="M22.9731 40.9399C23.2124 40.0427 23.2423 38.7569 22.8535 36.8131L28.0868 36.3047C28.0868 37.0224 28.027 37.9195 28.0569 38.8167C26.2925 39.6241 23.9899 40.5212 22.9731 40.91" fill="#EF9D78"/>
</g>
</g>
</g>
<path d="M14.779 22.9945C10.084 20.7816 11.2503 29.3641 15.3471 30.0519C15.5266 29.5136 14.779 22.9945 14.779 22.9945Z" fill="#F2AC71"/>
<path d="M36.0414 22.8129C40.4972 20.3608 40.2879 28.6442 35.3237 29.7208C35.1144 29.2124 36.0414 22.8129 36.0414 22.8129Z" fill="#F2AC71"/>
<path d="M35.5931 14.171C34.5763 7.02384 14.2115 13.8719 14.2115 13.8719C13.9125 21.7069 13.8527 29.8109 15.4077 33.4593C16.7235 36.5992 22.4352 39.4102 24.4986 39.4999C27.0704 39.5896 33.0811 36.0908 34.3371 34.0274C34.9352 33.0705 36.1314 30.1399 36.1314 24.0693C36.1314 20.72 35.9519 16.6829 35.5931 14.171Z" fill="#F2AC71"/>
<g style="mix-blend-mode:multiply" opacity="0.4">
<mask id="mask4_2155_18163" style="mask-type:luminance" maskUnits="userSpaceOnUse" x="14" y="10" width="22" height="30">
<path d="M35.5923 10.9121H14.0312V39.4707H35.5923V10.9121Z" fill="white"/>
</mask>
<g mask="url(#mask4_2155_18163)">
<mask id="mask5_2155_18163" style="mask-type:luminance" maskUnits="userSpaceOnUse" x="14" y="10" width="22" height="30">
<path d="M35.5623 10.9102H14.0312V39.4688H35.5623V10.9102Z" fill="white"/>
</mask>
<g mask="url(#mask5_2155_18163)">
<path d="M16.0058 33.5468C13.9723 29.5396 15.3778 19.7011 18.1888 14.5875C19.4448 14.4081 24.3192 20.2992 35.5931 21.615C35.4735 21.5851 34.0381 12.883 34.5165 12.2251C34.4567 12.1652 34.3969 12.1353 34.3072 12.0755C34.2773 12.0755 34.2175 12.0157 34.1876 11.9858C34.1876 11.9858 34.1577 11.9858 34.1278 11.9559C29.2534 8.84586 14.2115 13.8997 14.2115 13.8997C13.9125 21.7346 13.8527 29.8387 15.4077 33.487C16.7534 36.5971 22.4352 39.438 24.4986 39.5277C22.0763 39.109 17.3814 36.2681 16.0058 33.5767" fill="#F2AC71"/>
</g>
</g>
</g>
<g style="mix-blend-mode:screen" opacity="0.3">
<mask id="mask6_2155_18163" style="mask-type:luminance" maskUnits="userSpaceOnUse" x="24" y="13" width="13" height="27">
<path d="M36.1287 13.3086H24.7949V39.4749H36.1287V13.3086Z" fill="white"/>
</mask>
<g mask="url(#mask6_2155_18163)">
<mask id="mask7_2155_18163" style="mask-type:luminance" maskUnits="userSpaceOnUse" x="24" y="13" width="13" height="27">
<path d="M36.1287 13.3096H24.7949V39.4758H36.1287V13.3096Z" fill="white"/>
</mask>
<g mask="url(#mask7_2155_18163)">
<path d="M33.8864 13.3102C35.6508 18.8126 35.1424 31.6714 33.7369 34.0339C32.9594 35.3497 27.3075 39.0877 24.7656 39.4764C27.4869 39.3269 33.1089 36.0075 34.3051 34.0339C34.9032 33.0769 36.0694 30.1463 36.0994 24.0757C36.0994 20.7264 35.9199 16.6893 35.5611 14.1774C35.5611 14.0877 35.5312 13.998 35.5013 13.9083L33.8565 13.2803L33.8864 13.3102Z" fill="#F2AC71"/>
</g>
</g>
</g>
<g style="mix-blend-mode:multiply" opacity="0.08">
<mask id="mask8_2155_18163" style="mask-type:luminance" maskUnits="userSpaceOnUse" x="27" y="23" width="9" height="10">
<path d="M35.1451 23.8936H27.041V32.1172H35.1451V23.8936Z" fill="white"/>
</mask>
<g mask="url(#mask8_2155_18163)">
<mask id="mask9_2155_18163" style="mask-type:luminance" maskUnits="userSpaceOnUse" x="27" y="23" width="9" height="10">
<path d="M27.1309 27.2458C26.6823 29.4886 28.1177 31.6118 30.3307 32.0305C30.54 32.0604 30.7493 32.0903 30.9587 32.0903H31.1979C33.0819 32.0305 34.7266 30.6848 35.1153 28.741C35.5639 26.4982 34.1285 24.375 31.9156 23.9563C31.6764 23.9264 31.4072 23.8965 31.168 23.8965C29.2541 23.8965 27.5197 25.2721 27.1309 27.2458Z" fill="white"/>
</mask>
<g mask="url(#mask9_2155_18163)">
<path d="M27.0059 22.238L25.1758 31.8135L35.2212 33.7334L37.0513 24.1579L27.0059 22.238Z" fill="url(#paint0_radial_2155_18163)"/>
</g>
</g>
</g>
<g style="mix-blend-mode:multiply" opacity="0.08">
<mask id="mask10_2155_18163" style="mask-type:luminance" maskUnits="userSpaceOnUse" x="14" y="23" width="8" height="10">
<path d="M21.6279 23.8574H14.2715V32.0811H21.6279V23.8574Z" fill="white"/>
</mask>
<g mask="url(#mask10_2155_18163)">
<mask id="mask11_2155_18163" style="mask-type:luminance" maskUnits="userSpaceOnUse" x="14" y="23" width="8" height="10">
<path d="M17.5629 23.8564C16.2471 23.8564 15.021 24.5442 14.2734 25.6208C14.3931 27.5945 14.5426 29.4186 14.7519 30.9737C15.2902 31.482 15.978 31.8708 16.7555 32.0203C18.9385 32.439 21.0916 30.9737 21.5103 28.7308C21.5701 28.4916 21.5701 28.2524 21.6 28.0131V27.8337C21.5701 25.9498 20.2244 24.305 18.3404 23.9462C18.1012 23.9163 17.8919 23.8863 17.6526 23.8863H17.533L17.5629 23.8564Z" fill="white"/>
</mask>
<g mask="url(#mask11_2155_18163)">
<path d="M14.2755 23.6212L13.9824 32.4082L21.6038 32.6624L21.8968 23.8754L14.2755 23.6212Z" fill="url(#paint1_radial_2155_18163)"/>
</g>
</g>
</g>
<g style="mix-blend-mode:multiply" opacity="0.3">
<mask id="mask12_2155_18163" style="mask-type:luminance" maskUnits="userSpaceOnUse" x="20" y="33" width="9" height="3">
<path d="M28.0256 33.373H20.6094V35.6458H28.0256V33.373Z" fill="white"/>
</mask>
<g mask="url(#mask12_2155_18163)">
<mask id="mask13_2155_18163" style="mask-type:luminance" maskUnits="userSpaceOnUse" x="20" y="33" width="9" height="3">
<path d="M20.6094 33.4344C21.4766 34.0325 22.1644 35.5876 24.1381 35.6175H24.3773C26.6799 35.5577 27.906 33.5541 28.0256 33.3447C27.8462 33.3746 20.6094 33.4045 20.6094 33.4045" fill="white"/>
</mask>
<g mask="url(#mask13_2155_18163)">
<path d="M28.0256 33.374H20.6094V35.6467H28.0256V33.374Z" fill="url(#paint2_linear_2155_18163)"/>
</g>
</g>
</g>
<path d="M20.5801 33.4893C21.866 34.2668 21.9557 35.2536 23.9892 35.3433C26.2918 35.433 27.6674 33.7285 27.8468 33.5491L20.5801 33.4893Z" fill="#D67751"/>
<path d="M24.0198 33.1025C21.4779 33.1025 21.2686 33.581 20.1621 33.2222C20.6406 34.0296 26.3822 34.5978 28.4157 33.1624C27.7279 33.6408 26.143 33.1025 23.9899 33.1025" fill="#D67751"/>
<g style="mix-blend-mode:multiply" opacity="0.7">
<mask id="mask14_2155_18163" style="mask-type:luminance" maskUnits="userSpaceOnUse" x="20" y="33" width="9" height="2">
<path d="M28.4773 33.0996H20.0742V34.2061H28.4773V33.0996Z" fill="white"/>
</mask>
<g mask="url(#mask14_2155_18163)">
<mask id="mask15_2155_18163" style="mask-type:luminance" maskUnits="userSpaceOnUse" x="20" y="33" width="9" height="2">
<path d="M28.4474 33.0996H20.0742V34.2061H28.4474V33.0996Z" fill="white"/>
</mask>
<g mask="url(#mask15_2155_18163)">
<path d="M28.447 33.1012C27.7891 33.5497 26.6228 33.9983 24.2604 33.9983C22.3465 33.9983 20.7017 33.4002 20.1934 33.1311C20.1336 33.1311 20.0738 33.2208 20.1037 33.2208C21.4793 33.9983 23.3034 34.1777 24.2005 34.1777C26.234 34.2375 28.6862 33.4301 28.4769 33.0713" fill="#BC5C5C"/>
</g>
</g>
</g>
<g style="mix-blend-mode:multiply" opacity="0.3">
<mask id="mask16_2155_18163" style="mask-type:luminance" maskUnits="userSpaceOnUse" x="19" y="32" width="11" height="2">
<path d="M29.013 32.5322H19.623V33.6686H29.013V32.5322Z" fill="white"/>
</mask>
<g mask="url(#mask16_2155_18163)">
<mask id="mask17_2155_18163" style="mask-type:luminance" maskUnits="userSpaceOnUse" x="19" y="32" width="11" height="2">
<path d="M29.013 32.5312H19.623V33.6676H29.013V32.5312Z" fill="white"/>
</mask>
<g mask="url(#mask17_2155_18163)">
<g style="mix-blend-mode:multiply" opacity="0.3">
<mask id="mask18_2155_18163" style="mask-type:luminance" maskUnits="userSpaceOnUse" x="27" y="32" width="2" height="2">
<path d="M28.9852 32.5303H27.7891V33.6666H28.9852V32.5303Z" fill="white"/>
</mask>
<g mask="url(#mask18_2155_18163)">
<mask id="mask19_2155_18163" style="mask-type:luminance" maskUnits="userSpaceOnUse" x="27" y="32" width="2" height="2">
<path d="M28.2097 32.5322C28.2097 32.5322 28.0003 32.5621 27.9704 32.7116C27.9704 32.8313 27.8807 33.2798 27.791 33.3994L27.9106 33.549C27.9106 33.549 28.2097 33.6686 28.5087 33.6686H28.6283C28.6283 33.6686 28.8078 33.6686 28.8377 33.6686C28.9274 33.6088 28.9872 33.4892 28.9872 33.3396V33.22C28.9872 33.0406 28.8975 32.8313 28.8078 32.7714C28.718 32.6817 28.419 32.5322 28.2097 32.5322Z" fill="white"/>
</mask>
<g mask="url(#mask19_2155_18163)">
<path d="M29.0033 32.5032L27.7773 32.5205L27.7938 33.6867L29.0198 33.6693L29.0033 32.5032Z" fill="url(#paint3_linear_2155_18163)"/>
</g>
</g>
</g>
<g style="mix-blend-mode:multiply" opacity="0.3">
<mask id="mask20_2155_18163" style="mask-type:luminance" maskUnits="userSpaceOnUse" x="19" y="32" width="2" height="2">
<path d="M20.6677 32.5596H19.6211V33.666H20.6677V32.5596Z" fill="white"/>
</mask>
<g mask="url(#mask20_2155_18163)">
<mask id="mask21_2155_18163" style="mask-type:luminance" maskUnits="userSpaceOnUse" x="19" y="32" width="2" height="2">
<path d="M19.6497 32.92C19.5899 33.1592 19.6497 33.548 19.9488 33.6377C20.0385 33.6377 20.6366 33.548 20.5768 33.3985L20.6665 33.1891C20.6665 33.1891 20.3674 32.8004 20.3375 32.6808C20.3076 32.5611 20.2179 32.5312 20.1282 32.5312C19.9488 32.5312 19.7096 32.7107 19.6497 32.8901" fill="white"/>
</mask>
<g mask="url(#mask21_2155_18163)">
<path d="M20.6552 32.5312L19.5488 32.5469L19.5649 33.6831L20.6712 33.6675L20.6552 32.5312Z" fill="url(#paint4_linear_2155_18163)"/>
</g>
</g>
</g>
</g>
</g>
</g>
<g style="mix-blend-mode:multiply" opacity="0.4">
<mask id="mask22_2155_18163" style="mask-type:luminance" maskUnits="userSpaceOnUse" x="21" y="25" width="5" height="7">
<path d="M25.2153 25.4746H21.5371V31.4256H25.2153V25.4746Z" fill="white"/>
</mask>
<g mask="url(#mask22_2155_18163)">
<mask id="mask23_2155_18163" style="mask-type:luminance" maskUnits="userSpaceOnUse" x="21" y="25" width="5" height="7">
<path d="M25.2153 25.4736H21.5371V31.4246H25.2153V25.4736Z" fill="white"/>
</mask>
<g mask="url(#mask23_2155_18163)">
<path d="M23.51 25.6224C23.4202 26.2803 22.7922 27.9549 22.4334 28.7026C21.925 29.809 21.3269 30.437 21.5961 30.7959C22.0446 31.394 23.181 31.4239 23.8688 31.3341C24.4071 31.2743 25.0949 31.0052 25.1846 30.8258C25.1846 30.766 25.2145 30.7062 25.1846 30.6762C25.1846 30.6762 23.2109 30.9753 22.6128 30.2576C22.3736 29.9585 23.4501 28.3437 23.7492 25.4131L23.51 25.5626V25.6224Z" fill="#F2AC71"/>
</g>
</g>
</g>
<g style="mix-blend-mode:multiply" opacity="0.5">
<mask id="mask24_2155_18163" style="mask-type:luminance" maskUnits="userSpaceOnUse" x="22" y="25" width="4" height="6">
<path d="M25.215 25.416H22.2246V30.9782H25.215V25.416Z" fill="white"/>
</mask>
<g mask="url(#mask24_2155_18163)">
<mask id="mask25_2155_18163" style="mask-type:luminance" maskUnits="userSpaceOnUse" x="22" y="25" width="4" height="6">
<path d="M25.215 25.417H22.2246V30.9792H25.215V25.417Z" fill="white"/>
</mask>
<g mask="url(#mask25_2155_18163)">
<path d="M23.6579 25.6263C23.6579 26.7029 23.2393 27.6 22.8804 28.6467C22.7608 29.0055 22.1926 30.112 22.2524 30.2615C22.402 30.8297 23.4785 31.039 24.1364 30.9792C24.4953 30.9792 24.884 30.8297 25.213 30.74C25.213 30.6801 25.213 30.74 25.213 30.6802C25.213 30.6802 23.03 31.039 22.6412 30.2615C22.5216 30.0522 23.7477 27.5402 23.7776 25.417C23.7776 25.417 23.6878 25.5665 23.6579 25.6263Z" fill="#A05C37"/>
</g>
</g>
</g>
<g style="mix-blend-mode:screen" opacity="0.15">
<mask id="mask26_2155_18163" style="mask-type:luminance" maskUnits="userSpaceOnUse" x="22" y="25" width="4" height="6">
<path d="M25.2147 25.8896H22.9121V30.4949H25.2147V25.8896Z" fill="white"/>
</mask>
<g mask="url(#mask26_2155_18163)">
<mask id="mask27_2155_18163" style="mask-type:luminance" maskUnits="userSpaceOnUse" x="22" y="25" width="4" height="6">
<path d="M25.2167 25.8867H22.9141V30.492H25.2167V25.8867Z" fill="white"/>
</mask>
<g mask="url(#mask27_2155_18163)">
<path d="M24.08 25.89C24.08 25.89 23.6015 28.4916 22.9137 29.8971C22.7343 30.256 23.9903 30.7345 25.0967 30.2859C25.4556 30.1364 24.8874 25.561 24.08 25.89Z" fill="#F2AC71"/>
</g>
</g>
</g>
<g style="mix-blend-mode:multiply" opacity="0.4">
<mask id="mask28_2155_18163" style="mask-type:luminance" maskUnits="userSpaceOnUse" x="28" y="23" width="4" height="4">
<path d="M31.2255 23.416H28.2949V26.4662H31.2255V23.416Z" fill="white"/>
</mask>
<g mask="url(#mask28_2155_18163)">
<mask id="mask29_2155_18163" style="mask-type:luminance" maskUnits="userSpaceOnUse" x="28" y="23" width="4" height="4">
<path d="M31.2236 23.416H28.293V26.4962H31.2236V23.416Z" fill="white"/>
</mask>
<g mask="url(#mask29_2155_18163)">
<path d="M31.2246 25.0009C31.1947 25.8383 30.5069 26.4962 29.6995 26.4662C28.8921 26.4363 28.2641 25.7186 28.294 24.8813C28.3239 24.044 29.0117 23.3861 29.8191 23.416C30.6265 23.416 31.2545 24.1636 31.2246 25.0009Z" fill="#F2AC71"/>
</g>
</g>
</g>
<path d="M30.8678 25.2051C30.8678 25.9228 30.3295 26.4909 29.7016 26.4909C29.0736 26.4909 28.625 25.863 28.625 25.1453C28.625 24.4276 29.1633 23.8594 29.7913 23.8594C30.4193 23.8594 30.8977 24.4874 30.8678 25.2051Z" fill="#724B30"/>
<path d="M30.5974 24.6071C30.5974 24.8165 30.4479 24.9959 30.2984 24.9959C30.1489 24.9959 29.9993 24.8165 30.0292 24.5772C30.0292 24.3679 30.1788 24.1885 30.3283 24.1885C30.4778 24.1885 30.6273 24.3679 30.5974 24.5772" fill="white"/>
<path d="M32.5716 22.2457C31.9736 21.6775 28.5047 20.9299 27.3085 21.528C27.0991 21.8869 27.1889 22.1859 27.5477 22.6046C28.6243 22.4551 30.7176 22.2457 32.5716 22.9036C32.781 22.4252 32.5716 22.3354 32.5716 22.2756" fill="#895D3F"/>
<g style="mix-blend-mode:multiply" opacity="0.4">
<mask id="mask30_2155_18163" style="mask-type:luminance" maskUnits="userSpaceOnUse" x="17" y="23" width="4" height="4">
<path d="M20.2822 23.502H17.3516V26.5821H20.2822V23.502Z" fill="white"/>
</mask>
<g mask="url(#mask30_2155_18163)">
<mask id="mask31_2155_18163" style="mask-type:luminance" maskUnits="userSpaceOnUse" x="17" y="23" width="4" height="4">
<path d="M20.2822 23.5029H17.3516V26.5831H20.2822V23.5029Z" fill="white"/>
</mask>
<g mask="url(#mask31_2155_18163)">
<path d="M20.2813 25.0869C20.2514 25.9242 19.5636 26.5821 18.7561 26.5522C17.9487 26.5223 17.3207 25.8046 17.3506 24.9673C17.3805 24.1299 18.0683 23.4721 18.8758 23.502C19.6832 23.502 20.3112 24.2496 20.2813 25.0869Z" fill="#F2AC71"/>
</g>
</g>
</g>
<path d="M19.9219 25.2949C19.9219 26.0126 19.3537 26.5808 18.7556 26.5808C18.1276 26.5808 17.6492 25.9528 17.6791 25.2351C17.6791 24.5174 18.2173 23.9492 18.8453 23.9492C19.4733 23.9492 19.9518 24.5772 19.9219 25.2949Z" fill="#724B30"/>
<path d="M19.6228 24.697C19.6228 24.9063 19.4733 25.0857 19.3238 25.0857C19.1742 25.0857 19.0247 24.9063 19.0546 24.6671C19.0546 24.4577 19.2041 24.2783 19.3537 24.2783C19.5032 24.2783 19.6527 24.4577 19.6228 24.6671" fill="white"/>
<path d="M16.1831 22.126C16.5719 21.6475 20.1604 20.9597 20.9977 21.5279C21.1472 21.8867 21.207 22.3652 20.8482 22.724C19.2932 22.3652 17.0503 22.4848 16.3625 22.724C16.1532 22.5147 16.1831 22.126 16.1831 22.126Z" fill="#895D3F"/>
<path d="M38.3443 11.8084C37.9855 10.6421 28.6852 6.12658 25.0967 6.09668C21.6278 6.09668 18.6374 8.30961 17.6805 8.81798C17.6805 8.81798 14.8694 9.20673 14.0321 10.8216C2.81801 32.7713 13.1649 46.5871 16.3049 47.0357C16.3049 47.0357 19.3252 45.9591 20.2522 45.3012C15.3778 43.8359 11.7295 25.5943 17.6505 14.3204C20.4316 14.0213 23.3623 19.4041 35.5632 21.5871C35.7726 38.9017 33.4101 43.7761 30.5991 45.3012C30.8682 45.6003 36.1015 46.7665 36.1015 46.7665C43.1589 41.7725 44.7738 32.6816 38.3144 11.7785" fill="#895D3F"/>
<g style="mix-blend-mode:screen" opacity="0.2">
<mask id="mask32_2155_18163" style="mask-type:luminance" maskUnits="userSpaceOnUse" x="30" y="21" width="7" height="26">
<path d="M36.8171 21.5859H30.627V46.1075H36.8171V21.5859Z" fill="white"/>
</mask>
<g mask="url(#mask32_2155_18163)">
<mask id="mask33_2155_18163" style="mask-type:luminance" maskUnits="userSpaceOnUse" x="30" y="21" width="7" height="26">
<path d="M36.8171 21.585H30.627V46.1065H36.8171V21.585Z" fill="white"/>
</mask>
<g mask="url(#mask33_2155_18163)">
<path d="M35.5911 21.585C35.8004 38.8996 33.438 43.774 30.627 45.2991C30.7466 45.4187 32.0025 45.7775 33.3183 46.1065C34.7238 46.4653 38.8506 37.6137 35.621 21.585" fill="#895D3F"/>
</g>
</g>
</g>
<g style="mix-blend-mode:screen" opacity="0.2">
<mask id="mask34_2155_18163" style="mask-type:luminance" maskUnits="userSpaceOnUse" x="12" y="14" width="9" height="33">
<path d="M20.2801 14.3193H12.3555V46.915H20.2801V14.3193Z" fill="white"/>
</mask>
<g mask="url(#mask34_2155_18163)">
<mask id="mask35_2155_18163" style="mask-type:luminance" maskUnits="userSpaceOnUse" x="12" y="14" width="9" height="33">
<path d="M20.2801 14.3193H12.3555V46.915H20.2801V14.3193Z" fill="white"/>
</mask>
<g mask="url(#mask35_2155_18163)">
<path d="M16.6036 46.9469C17.3811 46.6479 19.5342 45.8404 20.2818 45.3021C15.4074 43.8368 11.7292 25.5952 17.71 14.3213L16.7531 15.5773C8.82846 34.6562 13.4636 45.7208 16.6335 46.9469" fill="#895D3F"/>
</g>
</g>
</g>
<g style="mix-blend-mode:multiply" opacity="0.25">
<mask id="mask36_2155_18163" style="mask-type:luminance" maskUnits="userSpaceOnUse" x="17" y="12" width="19" height="10">
<path d="M35.5924 12.8242H17.6797V21.5862H35.5924V12.8242Z" fill="white"/>
</mask>
<g mask="url(#mask36_2155_18163)">
<mask id="mask37_2155_18163" style="mask-type:luminance" maskUnits="userSpaceOnUse" x="17" y="12" width="19" height="10">
<path d="M35.5924 12.8252H17.6797V21.5872H35.5924V12.8252Z" fill="white"/>
</mask>
<g mask="url(#mask37_2155_18163)">
<path d="M33.7084 19.8791C25.395 18.4437 18.8161 12.8217 17.6797 14.3468C20.4608 14.0477 23.3914 19.4305 35.5924 21.6135C35.5027 17.3372 35.1737 14.915 34.2467 12.8516C34.755 16.2307 34.755 19.909 33.7084 19.909" fill="#895D3F"/>
</g>
</g>
</g>
<path d="M35.9505 44.5237C35.9505 44.5237 29.8799 42.5799 29.8201 42.4902C29.8201 42.4902 25.0952 44.135 21.6861 42.4902C21.6263 42.5799 16.1538 44.3144 16.094 44.4041C15.3165 44.7331 14.6586 45.9591 14.0605 47.8132C17.5294 49.6374 21.4768 50.684 25.6634 50.684C30.0893 50.684 34.2459 49.5477 37.8345 47.5142C37.2962 46.1386 36.6682 45.0919 35.9206 44.5237" fill="#C1BD3D"/>
<defs>
<radialGradient id="paint0_radial_2155_18163" cx="0" cy="0" r="1" gradientUnits="userSpaceOnUse" gradientTransform="translate(32.596 27.7721) rotate(10.82) scale(4.03708 4.12679)">
<stop stop-color="#DE4031"/>
<stop offset="0.11" stop-color="#DE4435"/>
<stop offset="0.25" stop-color="#E15144"/>
<stop offset="0.39" stop-color="#E4675B"/>
<stop offset="0.55" stop-color="#EA867D"/>
<stop offset="0.71" stop-color="#F1ADA7"/>
<stop offset="0.87" stop-color="#F9DDDA"/>
<stop offset="0.97" stop-color="white"/>
<stop offset="1" stop-color="white"/>
</radialGradient>
<radialGradient id="paint1_radial_2155_18163" cx="0" cy="0" r="1" gradientUnits="userSpaceOnUse" gradientTransform="translate(17.4812 28.0879) rotate(1.91) scale(3.91747 3.91746)">
<stop stop-color="#DE4031"/>
<stop offset="0.11" stop-color="#DE4435"/>
<stop offset="0.25" stop-color="#E15144"/>
<stop offset="0.39" stop-color="#E4675B"/>
<stop offset="0.55" stop-color="#EA867D"/>
<stop offset="0.71" stop-color="#F1ADA7"/>
<stop offset="0.87" stop-color="#F9DDDA"/>
<stop offset="0.97" stop-color="white"/>
<stop offset="1" stop-color="white"/>
</radialGradient>
<linearGradient id="paint2_linear_2155_18163" x1="22.2613" y1="33.74" x2="29.6776" y2="33.74" gradientUnits="userSpaceOnUse">
<stop stop-color="#F2AC71"/>
<stop offset="0.36" stop-color="#EDA56A"/>
<stop offset="0.85" stop-color="#E09459"/>
<stop offset="1" stop-color="#DB8E53"/>
</linearGradient>
<linearGradient id="paint3_linear_2155_18163" x1="27.9663" y1="24.3113" x2="29.1624" y2="24.2944" gradientUnits="userSpaceOnUse">
<stop stop-color="#F2AC71"/>
<stop offset="0.36" stop-color="#EDA56A"/>
<stop offset="0.85" stop-color="#E09459"/>
<stop offset="1" stop-color="#DB8E53"/>
</linearGradient>
<linearGradient id="paint4_linear_2155_18163" x1="19.3173" y1="27.7022" x2="20.3639" y2="27.6874" gradientUnits="userSpaceOnUse">
<stop stop-color="#F2AC71"/>
<stop offset="0.36" stop-color="#EDA56A"/>
<stop offset="0.85" stop-color="#E09459"/>
<stop offset="1" stop-color="#DB8E53"/>
</linearGradient>
</defs>
</svg>
