<svg width="40" height="20" viewBox="0 0 40 20" fill="none" xmlns="http://www.w3.org/2000/svg">
<path d="M0.172196 2.65667C0.934863 2.7068 1.67293 2.73184 2.36179 2.7569C3.05065 2.78197 3.73953 2.80704 4.45299 2.80704C5.14185 2.80704 5.87993 2.80704 6.61799 2.80704C7.38066 2.80704 8.19252 2.75689 9.1028 2.70677L9.20119 4.21054C8.58614 4.26067 7.99568 4.28571 7.42983 4.31077C6.86398 4.33584 6.29815 4.36091 5.7569 4.36091C5.43707 5.31329 5.14185 6.29076 4.87122 7.24313C4.6006 8.19551 4.30537 9.17293 3.98554 10.1504C4.84662 10.802 5.7077 11.4787 6.56878 12.2055C7.40525 12.9323 8.21711 13.6592 8.97978 14.4361L7.72508 15.7644C7.06082 15.0627 6.34736 14.411 5.60929 13.7844C4.87123 13.1829 4.13315 12.5814 3.37049 12.0301C3.14907 12.7318 2.90306 13.4336 2.65704 14.1604C2.41102 14.8622 2.14038 15.589 1.86975 16.3408L0 15.5639C0.664259 13.8095 1.3285 11.98 1.94356 10.1253C2.55861 8.27069 3.17367 6.36592 3.71492 4.43609C3.14907 4.43609 2.58324 4.38596 1.96818 4.38596C1.37773 4.38596 0.738049 4.33585 0.0983922 4.28573L0.147607 2.68172L0.172196 2.65667ZM17.3691 1.27822C17.3691 2.33085 17.3691 3.4336 17.3691 4.56142C17.3691 5.68923 17.3691 6.86716 17.3691 8.14535C17.3691 9.42355 17.3691 10.7519 17.3691 12.1804C17.3691 13.609 17.3691 15.1378 17.3691 16.817L15.4994 16.7669C15.4994 15.6391 15.4994 14.4862 15.4994 13.3083C15.4994 12.1303 15.4994 10.8521 15.4994 9.49876C15.1057 9.54888 14.6875 9.57393 14.2201 9.59899C13.7526 9.59899 13.2114 9.62408 12.5963 9.62408V15.9398L10.7266 15.8897C10.7266 14.6617 10.7266 13.5338 10.7266 12.4561C10.7266 11.4035 10.7266 10.3258 10.7266 9.2732C10.7266 8.22057 10.7266 7.11782 10.7266 5.99C10.7266 4.83712 10.7266 3.58399 10.7266 2.23061H12.5963C12.5963 3.13286 12.5963 4.03509 12.5963 4.93734C12.5963 5.83959 12.5963 6.792 12.5963 7.81956C13.5312 7.81956 14.4661 7.76942 15.4502 7.64411C15.4502 6.69173 15.4748 5.68922 15.4748 4.66165V1.32835H17.3445L17.3691 1.27822ZM20.592 18.1704C21.0841 18.1704 21.6007 18.1955 22.142 18.2205C22.6832 18.2205 23.1998 18.2205 23.7411 18.2205V14.2105H25.4386V18.2205C26.4719 18.2205 27.5544 18.1704 28.6615 18.1203V14.2105H30.3591V18.02C30.9003 17.9699 31.4416 17.9449 31.9582 17.9198C32.4995 17.8947 33.0407 17.8446 33.582 17.8195L33.6804 19.624C31.3924 19.7494 29.1782 19.8246 27.0378 19.8747C24.8728 19.9248 22.7324 19.9749 20.592 20V18.1454V18.1704ZM21.5515 0.300777C22.3142 0.22559 23.1506 0.150397 24.0855 0.100272C25.0204 0.0501467 26.0045 0.0250626 26.9886 0C27.9727 0 28.9321 0 29.8916 0C30.8511 0 31.6876 0.0250733 32.4503 0.050136V1.60404C32.4503 2.05517 32.4503 2.50627 32.4257 2.90727C32.4257 3.30828 32.3765 3.73435 32.3519 4.13536C32.3272 4.53636 32.2781 4.96242 32.2535 5.38849C30.7527 5.9148 29.3012 6.41606 27.9481 6.91731C26.5704 7.41856 25.1434 7.96992 23.6673 8.54636C23.6673 8.89724 23.7165 9.29827 23.7165 9.7494C23.7165 10.2005 23.7657 10.6015 23.8395 10.9524C24.8728 10.9524 25.7585 10.9524 26.5211 10.9023C27.2838 10.8772 27.9727 10.8271 28.6123 10.7769C29.252 10.7268 29.8424 10.6516 30.4083 10.5764C30.9741 10.4762 31.5646 10.376 32.1797 10.2506L32.4011 11.8546C30.8757 12.2055 29.2766 12.4311 27.6036 12.5564C25.9307 12.6817 24.0609 12.7318 22.0189 12.7318C21.9697 12.2807 21.9452 11.8296 21.9206 11.4286C21.8959 11.0276 21.8713 10.6266 21.8467 10.2005C21.8467 9.77444 21.8221 9.34838 21.7975 8.87219C21.7975 8.42106 21.7975 7.86969 21.7975 7.26818C22.5356 6.99249 23.2983 6.69175 24.1101 6.41606C24.922 6.11531 25.7093 5.83959 26.4719 5.56391C27.2346 5.28822 27.9481 5.01255 28.6369 4.76192C29.3258 4.5113 29.8916 4.26065 30.3591 4.03508C30.4083 3.68421 30.4083 3.33333 30.3591 2.98246C30.3345 2.63158 30.3099 2.2807 30.3099 1.8797C29.7932 1.82957 29.1536 1.80451 28.4155 1.80451C27.6775 1.80451 26.8902 1.80451 26.1029 1.80451C25.291 1.80451 24.5038 1.85466 23.7165 1.90478C22.9292 1.95491 22.1912 2.0301 21.5515 2.10529V0.27569V0.300777ZM36.5588 6.91731C36.5588 6.54137 36.6818 6.21554 36.9279 5.96492C37.1739 5.71429 37.4937 5.56391 37.8628 5.56391C38.2318 5.56391 38.527 5.68923 38.7976 5.96492C39.0436 6.21554 39.1667 6.54137 39.1667 6.91731C39.1667 7.29325 39.0436 7.61906 38.7976 7.89475C38.5516 8.17044 38.2318 8.29576 37.8628 8.29576C37.4937 8.29576 37.1985 8.17044 36.9279 7.89475C36.6818 7.61906 36.5588 7.29325 36.5588 6.91731ZM36.5588 14.7368C36.5588 14.3609 36.6818 14.0351 36.9279 13.7844C37.1739 13.5338 37.4937 13.3835 37.8628 13.3835C38.2318 13.3835 38.527 13.5088 38.7976 13.7844C39.0436 14.0351 39.1667 14.3609 39.1667 14.7368C39.1667 15.1128 39.0436 15.4386 38.7976 15.7143C38.5516 15.99 38.2318 16.1153 37.8628 16.1153C37.4937 16.1153 37.1985 15.99 36.9279 15.7143C36.6818 15.4386 36.5588 15.1128 36.5588 14.7368Z" fill="#C79747"/>
</svg>
