<svg width="401" height="30" viewBox="0 0 401 30" fill="none" xmlns="http://www.w3.org/2000/svg">
<path d="M47.4768 14.1897C49.6267 12.8908 50.724 11.0096 50.724 8.52383C50.724 7.87438 51.0152 7.56087 51.6198 7.56087C52.2245 7.56087 52.4708 7.87437 52.4708 8.47903C52.4708 9.41961 52.3589 10.293 52.1125 11.0992C53.7473 11.9502 54.7999 13.2715 55.2478 15.0407C55.3598 15.5334 55.1582 15.8693 54.6207 16.0037C54.0833 16.1604 53.7473 16.0037 53.6354 15.4886C53.2323 14.1225 52.5156 13.1371 51.5079 12.5773C50.8136 13.8314 49.7387 14.8616 48.3054 15.6454C47.7679 15.8917 47.3872 15.7797 47.1185 15.2646C46.8721 14.7944 46.9841 14.4361 47.4992 14.1673L47.4768 14.1897ZM50.1194 18.915C50.1194 18.4223 50.4329 18.176 51.0376 18.176H61.4959C62.1006 18.176 62.4141 18.4223 62.4141 18.915V20.0124C62.4141 21.5576 62.1006 22.9013 61.4511 24.0434C61.2048 24.5137 60.8241 24.6033 60.3538 24.3122C59.8387 24.021 59.7044 23.6627 59.9731 23.1924C60.4434 22.3414 60.6897 21.2888 60.6897 20.0571V19.7212H51.06C50.4553 19.7212 50.1418 19.4749 50.1418 18.9598L50.1194 18.915ZM58.8533 8.05352C58.9429 9.08368 58.9877 10.1139 58.9877 11.144H61.1824C61.1824 10.1586 61.1376 9.17327 61.0704 8.1655C61.0257 7.53845 61.272 7.22491 61.8319 7.18012C62.3917 7.13533 62.7053 7.38169 62.7277 7.89677C62.9292 10.5618 62.9292 13.2491 62.7277 15.9141C62.7053 16.4292 62.4141 16.6531 61.8319 16.6083C61.272 16.5636 61.0033 16.25 61.0704 15.623C61.1376 14.6376 61.1824 13.6522 61.1824 12.6669H58.9877C58.9653 13.697 58.9205 14.7048 58.8533 15.735C58.8086 16.25 58.5174 16.474 57.9352 16.4516C57.3753 16.4068 57.1066 16.1381 57.1514 15.6006C57.3529 13.1596 57.3529 10.6961 57.1514 8.23268C57.1066 7.7176 57.3753 7.44888 57.9352 7.40409C58.495 7.3593 58.8086 7.58324 58.8533 8.09832V8.05352ZM64.564 20.9529C64.5864 20.4603 64.8328 20.2139 65.3031 20.2363C70.006 20.5498 74.7313 20.5498 79.4342 20.2363C79.9045 20.2139 80.1285 20.4379 80.1733 20.9529C80.1957 21.4456 79.9717 21.692 79.5014 21.7144C74.7537 22.0279 70.006 22.0279 65.2583 21.7144C64.788 21.692 64.564 21.4232 64.5864 20.9529H64.564ZM78.6056 12.219C78.6056 15.1975 76.5229 16.7203 72.3575 16.7875C68.1921 16.8547 66.0869 15.399 66.0869 12.4205C66.0869 9.44202 68.1697 7.94158 72.3575 7.87439C76.5229 7.80721 78.6056 9.26284 78.6056 12.219ZM72.3575 15.3542C75.3584 15.2871 76.8588 14.2345 76.8588 12.219C76.8588 10.2034 75.3584 9.24045 72.3575 9.28524C69.3342 9.35242 67.8337 10.405 67.8337 12.4205C67.8337 14.4361 69.3342 15.4214 72.3575 15.3542ZM85.0329 13.4955V15.2871C85.0329 15.6678 85.1896 15.8693 85.4584 15.8693H93.9012C94.5506 15.8693 94.8642 16.1157 94.8642 16.586C94.8642 17.101 94.5507 17.3474 93.946 17.3474H90.0045V20.4826C92.0648 20.4826 94.1251 20.3931 96.1855 20.2363C96.6558 20.2139 96.8797 20.4379 96.9245 20.9529C96.9469 21.4456 96.7229 21.692 96.2527 21.7144C91.505 22.0279 86.7573 22.0279 82.0096 21.7144C81.5393 21.692 81.3154 21.4232 81.3378 20.9529C81.3602 20.4603 81.6065 20.2139 82.0768 20.2363C84.1371 20.3931 86.1974 20.4602 88.2801 20.4826V17.3474H84.8537C83.8683 17.3474 83.3757 16.8995 83.3757 15.9813L83.3085 13.2491C83.2861 12.4205 83.734 11.995 84.6522 11.995H92.8934C93.1622 11.995 93.2965 11.7935 93.2965 11.3904L93.3413 9.64356H84.1819C83.5324 9.64356 83.2189 9.39722 83.2189 8.90453C83.2189 8.41185 83.4652 8.14312 83.9803 8.14312H93.7444C94.6402 8.14312 95.0881 8.5686 95.0657 9.4196L95.0209 12.1294C94.9985 13.0476 94.4835 13.4955 93.4757 13.4955H85.0777H85.0329ZM102.523 17.8176C102.546 17.325 102.792 17.0786 103.262 17.101C107.965 17.4146 112.69 17.4146 117.393 17.101C117.863 17.0786 118.087 17.3026 118.132 17.8176C118.155 18.3103 117.931 18.5567 117.46 18.5791C115.378 18.7359 113.295 18.803 111.212 18.8254V22.7221C111.212 23.3716 110.921 23.7075 110.339 23.7075C109.757 23.7075 109.465 23.3716 109.465 22.7221V18.8254C107.383 18.8254 105.278 18.7359 103.195 18.5791C102.725 18.5567 102.501 18.2879 102.523 17.8176ZM103.956 8.70299C103.956 8.2103 104.27 7.96396 104.874 7.96396H115.445C116.049 7.96396 116.363 8.2103 116.363 8.70299V9.77793C116.363 11.995 116.005 13.7418 115.31 14.9959C115.042 15.4438 114.683 15.5334 114.213 15.2646C113.698 14.9735 113.564 14.5928 113.81 14.1449C114.347 13.1819 114.616 11.7487 114.616 9.82273V9.48682H104.874C104.27 9.48682 103.956 9.24047 103.956 8.74779V8.70299ZM121.85 9.75555H127.045L127.09 8.2551C127.09 7.74002 127.404 7.47127 127.986 7.47127C128.568 7.47127 128.815 7.74002 128.815 8.2551V8.85973H132.151C132.129 8.591 132.107 8.29989 132.084 8.00875C132.039 7.49367 132.308 7.22491 132.868 7.18012C133.428 7.13533 133.741 7.38169 133.764 7.89677C133.965 10.181 133.965 12.4653 133.764 14.7272C133.741 15.2423 133.45 15.4886 132.868 15.4438C132.308 15.399 132.039 15.1303 132.084 14.6152C132.084 14.3241 132.107 14.0553 132.151 13.7642H128.635C128.389 14.6824 127.695 15.1527 126.553 15.1527H122.342C120.932 15.1527 120.215 14.436 120.193 13.0252L120.103 8.27748C120.103 7.7624 120.394 7.49365 120.999 7.49365C121.536 7.49365 121.827 7.7624 121.85 8.27748V9.77793V9.75555ZM127.023 11.256H121.895L121.939 12.7564C121.939 13.4507 122.23 13.7866 122.79 13.7866H126.127C126.687 13.7866 126.978 13.4507 127.001 12.7564L127.045 11.256H127.023ZM122.186 17.325C122.186 16.8323 122.477 16.6083 123.059 16.6083H132.532C133.562 16.6083 134.033 17.0562 133.943 17.9072L133.741 19.8108C133.629 20.7066 133.114 21.1545 132.174 21.1545H124.336L124.582 22.8117H132.375C133.002 22.8117 133.293 23.058 133.293 23.5283C133.293 23.9986 133.002 24.245 132.398 24.245H124.358C123.485 24.245 122.969 23.7971 122.858 22.9237L122.611 20.9977C122.499 20.1467 122.969 19.6988 124.044 19.6988H132.039L132.174 18.0416H123.081C122.477 18.0416 122.163 17.7953 122.163 17.3026L122.186 17.325ZM128.77 10.3602L128.725 12.2414H132.174C132.174 11.6143 132.174 11.0097 132.174 10.3602H128.747H128.77ZM144.065 7.35929C144.692 7.35929 144.984 7.60565 144.984 8.07594C144.984 8.59102 144.67 8.83735 144.021 8.83735H138.601C138.22 8.83735 138.041 9.10608 138.086 9.66595L138.176 11.2336C138.176 11.7711 138.444 12.0622 138.959 12.107C141.244 12.2638 143.08 12.1966 144.491 11.9278C144.984 11.8383 145.252 12.0398 145.342 12.5101C145.431 12.9804 145.208 13.2715 144.737 13.3611C143.864 13.5403 142.923 13.6522 141.938 13.6746V15.8021C143.304 15.8021 144.625 15.735 145.902 15.6678C146.372 15.6454 146.618 15.8917 146.641 16.3844C146.663 16.8771 146.439 17.1234 145.969 17.1458C142.968 17.3026 139.833 17.3026 136.563 17.1458C136.093 17.1234 135.869 16.8547 135.891 16.3844C135.914 15.8693 136.16 15.623 136.63 15.6678C137.817 15.735 139.027 15.7797 140.213 15.7797V13.697C139.631 13.697 139.049 13.6522 138.444 13.6075C137.213 13.5179 136.563 12.958 136.518 11.9502L136.362 8.59101C136.317 7.7624 136.765 7.35929 137.683 7.35929H144.11H144.065ZM139.071 20.1243C138.982 19.4749 139.183 19.0718 139.654 18.915C140.281 18.7358 140.639 18.9598 140.729 19.5869L140.975 21.692C141.042 22.3414 141.378 22.6773 141.96 22.6997C144.401 22.8117 146.842 22.8117 149.239 22.6997C149.754 22.6773 150 22.8789 150 23.3268C150 23.8867 149.754 24.1554 149.239 24.2002C146.798 24.3569 144.11 24.3569 141.154 24.2002C140.079 24.1554 139.497 23.6179 139.362 22.6326L139.049 20.1467L139.071 20.1243ZM148.276 18.5119C148.544 14.9959 148.544 11.5023 148.276 7.98634C148.231 7.47126 148.5 7.20253 149.059 7.15774C149.619 7.11295 149.933 7.35931 149.955 7.87439C150.246 11.4576 150.246 15.0631 149.955 18.6687C149.933 19.1837 149.642 19.4077 149.059 19.3629C148.5 19.3181 148.231 19.0494 148.276 18.5343V18.5119ZM157.956 8.85974C157.934 8.07592 158.382 7.69524 159.345 7.69524H165.503C166.085 7.69524 166.399 7.94155 166.399 8.43423C166.399 8.92692 166.085 9.17327 165.481 9.17327H160.285C159.904 9.17327 159.725 9.44202 159.725 9.9571L159.815 13.8314C159.815 14.4584 160.128 14.7944 160.778 14.8616C162.121 15.0183 163.98 14.8839 166.376 14.5032C166.869 14.4137 167.116 14.5928 167.116 15.0183C167.116 15.5782 166.847 15.8917 166.309 15.9813C163.689 16.474 161.382 16.5412 159.412 16.2276C158.561 16.0709 158.113 15.5558 158.113 14.66L158.001 8.85974H157.956ZM160.061 19.5644C159.972 18.915 160.196 18.5119 160.666 18.3551C161.315 18.1536 161.674 18.3551 161.741 19.0046L162.054 21.5128C162.121 22.1623 162.457 22.4982 163.04 22.5206C165.481 22.6326 167.899 22.6326 170.318 22.5206C170.833 22.4982 171.079 22.6997 171.079 23.1476C171.079 23.7075 170.833 23.9762 170.318 24.021C167.877 24.1778 165.167 24.1778 162.233 24.021C161.159 23.9762 160.576 23.4388 160.442 22.4534L160.039 19.5869L160.061 19.5644ZM169.534 18.3328C169.803 14.8168 169.803 11.3232 169.534 7.80718C169.489 7.2921 169.758 7.02337 170.318 6.97858C170.878 6.93379 171.191 7.18016 171.236 7.69524C171.348 8.90456 171.415 10.1139 171.438 11.3456H174.035C174.595 11.3456 174.886 11.5919 174.886 12.0846C174.886 12.5773 174.595 12.846 174.035 12.846H171.438C171.438 14.7048 171.371 16.586 171.214 18.4671C171.169 18.9822 170.878 19.2061 170.296 19.1614C169.736 19.1166 169.467 18.8478 169.512 18.3328H169.534ZM180.239 21.356C177.26 21.468 175.782 19.2733 175.782 14.8168C175.782 10.3602 177.26 8.09832 180.239 7.98634C183.06 7.87437 184.539 9.86751 184.673 13.9434H188.323C188.301 11.9278 188.211 9.88991 188.077 7.85198C188.032 7.3369 188.301 7.06817 188.861 7.02338C189.421 6.97859 189.734 7.22492 189.757 7.74C190.115 12.3757 190.115 17.0114 189.757 21.6696C189.734 22.1846 189.443 22.4086 188.861 22.3638C188.301 22.319 188.032 22.0503 188.077 21.5352C188.211 19.5197 188.301 17.4817 188.323 15.4438H184.673C184.471 19.3181 182.993 21.2889 180.239 21.3785V21.356ZM180.239 9.44203C178.425 9.48682 177.507 11.256 177.507 14.7496C177.507 18.2432 178.425 19.9676 180.239 19.9004C182.053 19.8332 182.949 18.0416 182.949 14.548C182.949 11.0544 182.053 9.37484 180.239 9.44203ZM191.862 20.7738C191.884 20.2811 192.13 20.0347 192.601 20.0571C195.691 20.2363 198.782 20.2363 201.894 20.0571C202.365 20.0347 202.611 20.2587 202.634 20.7738C202.656 21.2665 202.432 21.5128 201.962 21.5352C198.826 21.7144 195.691 21.7144 192.556 21.5352C192.086 21.5128 191.862 21.2441 191.884 20.7738H191.862ZM201.559 12.0398C201.559 15.0183 200.058 16.5412 197.035 16.6083C194.034 16.6755 192.533 15.2199 192.533 12.2414C192.533 9.26287 194.034 7.76242 197.035 7.69524C200.058 7.62805 201.559 9.08368 201.559 12.0398ZM197.035 15.1751C198.894 15.1079 199.812 14.0553 199.812 12.0398C199.812 10.0243 198.894 9.0613 197.035 9.10609C195.198 9.17327 194.28 10.2258 194.28 12.2414C194.28 14.2569 195.198 15.2423 197.035 15.1751ZM204.246 21.4904C204.604 16.9443 204.604 12.3757 204.246 7.8296C204.201 7.31452 204.47 7.04576 205.03 7.00097C205.59 6.95618 205.903 7.20254 205.926 7.71762C206.284 12.3533 206.284 16.9891 205.926 21.6472C205.903 22.1623 205.612 22.3862 205.03 22.3414C204.47 22.2966 204.201 22.0279 204.246 21.5128V21.4904ZM212.084 15.399C212.107 14.9063 212.353 14.66 212.823 14.6824C217.526 14.9959 222.251 14.9959 226.954 14.6824C227.425 14.66 227.649 14.8839 227.693 15.399C227.716 15.8917 227.492 16.1604 227.021 16.1828C222.274 16.4964 217.526 16.4964 212.778 16.1828C212.308 16.1604 212.084 15.8917 212.107 15.399H212.084ZM218.287 7.18013C218.892 7.18013 219.206 7.42649 219.206 7.89678C219.206 8.41186 218.892 8.6582 218.265 8.6582H215.443C215.063 8.6582 214.883 8.92693 214.928 9.46441V10.1811C214.928 10.8529 215.242 11.2112 215.802 11.2336C216.742 11.3232 217.548 11.3456 218.198 11.3456C218.847 11.3456 219.161 11.5919 219.161 12.0846C219.161 12.5997 218.959 12.8684 218.579 12.8908C217.616 12.9356 216.496 12.8908 215.197 12.7564C213.943 12.6221 213.293 12.0622 213.271 11.0992L213.181 8.41185C213.137 7.58324 213.585 7.15775 214.48 7.15775H218.287V7.18013ZM214.055 22.5654C217.369 21.9607 219.027 20.617 219.027 18.5119C219.027 17.8848 219.318 17.5937 219.922 17.5937C220.527 17.5937 220.773 17.9072 220.773 18.5119C220.773 18.9598 220.729 19.3629 220.617 19.766C223.102 20.3483 224.827 21.3784 225.857 22.8341C226.17 23.2596 226.081 23.6179 225.611 23.9315C225.14 24.2898 224.76 24.245 224.468 23.8195C223.595 22.5654 222.095 21.692 219.99 21.2441C218.982 22.6325 217.101 23.5731 214.301 24.1106C213.809 24.2002 213.54 23.9986 213.45 23.4835C213.361 22.9909 213.585 22.6997 214.077 22.5878L214.055 22.5654ZM225.521 7.18013C226.126 7.18013 226.439 7.42649 226.439 7.89678C226.439 8.41186 226.126 8.6582 225.476 8.6582H222.274C221.871 8.6582 221.692 8.92693 221.736 9.46441V10.1811C221.759 10.9425 222.072 11.2784 222.654 11.2336L225.767 11.0545C226.282 11.0321 226.574 11.2336 226.641 11.6367C226.73 12.1294 226.529 12.4205 226.058 12.4877C224.603 12.6669 223.259 12.8012 222.005 12.846C220.751 12.9132 220.124 12.3309 220.079 11.0992L219.99 8.41185C219.967 7.58324 220.415 7.15775 221.311 7.15775H225.521V7.18013ZM228.858 14.3241C228.88 13.8314 229.127 13.5851 229.597 13.6075C234.3 13.921 239.025 13.921 243.728 13.6075C244.198 13.5851 244.422 13.809 244.467 14.3241C244.489 14.8168 244.265 15.0631 243.795 15.0855C239.047 15.399 234.3 15.399 229.552 15.0855C229.082 15.0631 228.858 14.7944 228.88 14.3241H228.858ZM230.336 17.5489C230.336 17.0562 230.627 16.8323 231.232 16.8323H241.488C242.519 16.8323 242.989 17.2578 242.899 18.1312L242.675 19.8556C242.563 20.7514 242.026 21.1993 241.108 21.1993H232.531L232.732 22.6549H241.309C241.936 22.6549 242.228 22.9013 242.228 23.3716C242.228 23.8419 241.936 24.0882 241.332 24.0882H232.531C231.635 24.0882 231.12 23.6403 231.008 22.7669L230.784 21.0425C230.672 20.1691 231.142 19.7436 232.217 19.7436H240.929L241.108 18.288H231.254C230.627 18.288 230.336 18.0416 230.336 17.5713V17.5489ZM242.899 9.57639C242.899 11.4352 240.817 12.4205 236.651 12.4877C232.486 12.5549 230.381 11.6591 230.381 9.77794C230.381 7.89677 232.463 6.95621 236.651 6.88902C240.817 6.82184 242.899 7.71763 242.899 9.57639ZM236.674 11.0768C239.675 11.0096 241.175 10.517 241.175 9.55397C241.175 8.591 239.675 8.18792 236.674 8.2551C233.65 8.32229 232.15 8.81497 232.15 9.75555C232.15 10.6961 233.65 11.144 236.674 11.0545V11.0768ZM250.007 7.49365C250.007 7.00097 250.298 6.75465 250.903 6.75465H258.024C258.607 6.75465 258.92 7.00097 258.92 7.49365V8.59101C258.92 12.7788 256.21 14.9063 250.791 15.0183C250.298 15.0183 250.03 14.7944 250.03 14.3017C250.007 13.809 250.231 13.5403 250.746 13.5403C255.046 13.4507 257.196 11.8383 257.196 8.63581V8.2551H250.925C250.343 8.2551 250.03 8.00876 250.03 7.51608L250.007 7.49365ZM251.373 17.7953C251.373 17.3026 251.664 17.0562 252.269 17.0562H262.391C262.974 17.0562 263.287 17.3026 263.287 17.7953V18.8926C263.287 20.4379 262.974 21.7816 262.324 22.9237C262.078 23.394 261.72 23.4836 261.227 23.1924C260.712 22.9013 260.577 22.543 260.824 22.0727C261.294 21.2217 261.54 20.1691 261.54 18.9374V18.6015H252.269C251.687 18.6015 251.373 18.3551 251.373 17.8401V17.7953ZM261.832 14.4808C262.033 12.0174 262.033 9.53159 261.832 7.04577C261.787 6.41871 262.033 6.10518 262.593 6.06039C263.153 6.0156 263.466 6.26196 263.511 6.77704C263.601 7.87438 263.646 8.94935 263.668 10.0467H266.311C266.87 10.0467 267.162 10.293 267.162 10.7857C267.162 11.2784 266.87 11.5247 266.311 11.5247H263.668C263.646 12.6221 263.578 13.697 263.511 14.7944C263.466 15.3095 263.175 15.5334 262.593 15.4886C262.033 15.4438 261.764 15.1303 261.832 14.5032V14.4808ZM268.147 7.49365C268.147 7.00097 268.438 6.75465 269.043 6.75465H276.164C276.747 6.75465 277.06 7.00097 277.06 7.49365V8.59101C277.06 12.7788 274.35 14.9063 268.931 15.0183C268.438 15.0183 268.169 14.7944 268.169 14.3017C268.147 13.809 268.371 13.5403 268.886 13.5403C273.186 13.4507 275.336 11.8383 275.336 8.63581V8.2551H269.065C268.483 8.2551 268.169 8.00876 268.169 7.51608L268.147 7.49365ZM269.513 17.7953C269.513 17.3026 269.804 17.0562 270.409 17.0562H280.531C281.113 17.0562 281.427 17.3026 281.427 17.7953V18.8926C281.427 20.4379 281.113 21.7816 280.464 22.9237C280.218 23.394 279.859 23.4836 279.367 23.1924C278.852 22.9013 278.717 22.543 278.964 22.0727C279.434 21.2217 279.68 20.1691 279.68 18.9374V18.6015H270.409C269.827 18.6015 269.513 18.3551 269.513 17.8401V17.7953ZM279.949 14.4808C280.151 12.0174 280.151 9.53159 279.949 7.04577C279.904 6.41871 280.151 6.10518 280.71 6.06039C281.27 6.0156 281.584 6.26196 281.629 6.77704C281.718 7.87438 281.763 8.94935 281.785 10.0467H284.428C284.988 10.0467 285.279 10.293 285.279 10.7857C285.279 11.2784 284.988 11.5247 284.428 11.5247H281.785C281.763 12.6221 281.696 13.697 281.629 14.7944C281.584 15.3095 281.293 15.5334 280.71 15.4886C280.151 15.4438 279.882 15.1303 279.949 14.5032V14.4808ZM290.698 7.49365C290.698 7.00097 290.99 6.75465 291.594 6.75465H298.716C299.298 6.75465 299.611 7.00097 299.611 7.49365V8.59101C299.611 12.7788 296.902 14.9063 291.482 15.0183C290.99 15.0183 290.721 14.7944 290.721 14.3017C290.698 13.809 290.922 13.5403 291.437 13.5403C295.737 13.4507 297.887 11.8383 297.887 8.63581V8.2551H291.617C291.034 8.2551 290.721 8.00876 290.721 7.51608L290.698 7.49365ZM296.096 23.17C294.595 23.17 293.744 22.4534 293.543 21.0201L293.207 18.4447C293.072 17.4146 293.654 16.8995 294.953 16.8995H302.881C304.18 16.8995 304.74 17.4146 304.605 18.4447L304.292 21.0201C304.09 22.4534 303.239 23.17 301.739 23.17H296.118H296.096ZM295.603 18.3775C295.177 18.3775 294.976 18.6463 295.043 19.1837L295.222 20.6842C295.312 21.3561 295.58 21.692 296.073 21.692H301.739C302.232 21.692 302.5 21.3561 302.59 20.6842L302.769 19.1837C302.836 18.6463 302.635 18.3775 302.187 18.3775H295.603ZM303.015 10.0243C303.015 9.03891 302.971 8.05353 302.904 7.04577C302.859 6.41871 303.105 6.10518 303.665 6.06039C304.225 6.0156 304.538 6.26196 304.561 6.77704C304.762 9.44202 304.762 12.1294 304.561 14.7944C304.538 15.3095 304.247 15.5334 303.665 15.4886C303.105 15.4438 302.836 15.1303 302.904 14.5032C302.971 13.5179 303.015 12.5325 303.015 11.5471H301.202C300.642 11.5471 300.351 11.3008 300.351 10.8081C300.351 10.3154 300.642 10.0691 301.202 10.0691H303.015V10.0243ZM307.158 13.07C309.308 11.7711 310.405 9.88991 310.405 7.40409C310.405 6.75464 310.697 6.44113 311.301 6.44113C311.906 6.44113 312.152 6.75463 312.152 7.35929C312.152 8.29987 312.04 9.17326 311.794 9.97948C313.429 10.8305 314.481 12.1518 314.929 13.921C315.041 14.4137 314.84 14.7496 314.302 14.8839C313.765 15.0407 313.429 14.884 313.317 14.3689C312.914 13.0028 312.197 12.0174 311.189 11.4575C310.495 12.7116 309.42 13.7418 307.987 14.5256C307.449 14.772 307.069 14.66 306.8 14.1449C306.554 13.6746 306.666 13.3163 307.181 13.0476L307.158 13.07ZM309.801 17.7953C309.801 17.3026 310.114 17.0562 310.719 17.0562H321.177C321.782 17.0562 322.096 17.3026 322.096 17.7953V18.8926C322.096 20.4379 321.782 21.7816 321.133 22.9237C320.886 23.394 320.506 23.4836 320.035 23.1924C319.52 22.9013 319.386 22.543 319.655 22.0727C320.125 21.2217 320.371 20.1691 320.371 18.9374V18.6015H310.741C310.137 18.6015 309.823 18.3551 309.823 17.8401L309.801 17.7953ZM318.535 6.93378C318.624 7.96395 318.669 8.99412 318.669 10.0243H320.864C320.864 9.03891 320.819 8.05353 320.752 7.04577C320.707 6.41871 320.953 6.10518 321.513 6.06039C322.073 6.0156 322.387 6.26196 322.409 6.77704C322.611 9.44202 322.611 12.1294 322.409 14.7944C322.387 15.3095 322.096 15.5334 321.513 15.4886C320.953 15.4438 320.685 15.1303 320.752 14.5032C320.819 13.5179 320.864 12.5325 320.864 11.5471H318.669C318.647 12.5773 318.602 13.5851 318.535 14.6152C318.49 15.1303 318.199 15.3542 317.617 15.3318C317.057 15.287 316.788 15.0183 316.833 14.4808C317.034 12.0398 317.034 9.57637 316.833 7.11295C316.788 6.59787 317.057 6.32914 317.617 6.28436C318.176 6.23957 318.49 6.4635 318.535 6.97858V6.93378ZM324.671 9.73313C324.671 9.24045 324.962 8.99414 325.544 8.99414H328.03V6.9114C328.03 6.32914 328.321 6.01562 328.904 6.01562C329.486 6.01562 329.777 6.30674 329.777 6.9114V8.99414H332.263C332.845 8.99414 333.159 9.24045 333.159 9.73313C333.159 10.2258 332.867 10.4722 332.263 10.4722H325.544C324.962 10.4722 324.671 10.2258 324.671 9.73313ZM328.926 20.4155C326.485 20.5274 325.253 19.1837 325.253 16.4292C325.253 13.6746 326.485 12.2638 328.926 12.1518C331.367 12.0398 332.599 13.3611 332.599 16.1157C332.599 18.8702 331.367 20.3035 328.926 20.4155ZM328.904 13.585C327.627 13.6746 326.978 14.5928 326.978 16.362C326.978 18.1312 327.627 19.027 328.926 18.9374C330.202 18.8478 330.852 17.9072 330.852 16.1157C330.852 14.3241 330.202 13.5179 328.904 13.585ZM338.914 12.958C338.892 10.9425 338.802 8.92695 338.668 6.88902C338.623 6.37394 338.892 6.10518 339.452 6.06039C340.011 6.0156 340.325 6.26196 340.347 6.77704C340.706 11.4128 340.706 16.0485 340.347 20.7066C340.325 21.2217 340.034 21.4456 339.452 21.4008C338.892 21.356 338.623 21.0873 338.668 20.5722C338.802 18.5343 338.892 16.5188 338.914 14.4584H336.742C336.719 16.4292 336.63 18.3775 336.473 20.3259C336.428 20.841 336.137 21.0649 335.555 21.0201C334.995 20.9753 334.726 20.7066 334.771 20.1915C335.129 15.8917 335.129 11.5919 334.771 7.31453C334.726 6.79945 334.995 6.53068 335.555 6.48589C336.115 6.4411 336.428 6.66505 336.473 7.18013C336.63 9.12848 336.719 11.0545 336.742 12.9804H338.914V12.958ZM359.45 6.64268C360.055 6.64268 360.346 6.9114 360.346 7.42648L360.189 13.921C360.144 15.3542 359.428 16.0709 357.994 16.0709H355.262V19.3853C357.323 19.3853 359.383 19.2957 361.443 19.139C361.914 19.1166 362.137 19.3405 362.182 19.8556C362.205 20.3483 361.981 20.5946 361.51 20.617C356.763 20.9305 352.015 20.9305 347.267 20.617C346.797 20.5946 346.573 20.3259 346.595 19.8556C346.618 19.3629 346.864 19.1166 347.335 19.139C349.395 19.2957 351.455 19.3629 353.538 19.3853V16.0709H350.783C349.35 16.0709 348.633 15.3542 348.611 13.921L348.454 7.42648C348.454 6.9114 348.745 6.64268 349.35 6.64268C349.887 6.64268 350.179 6.9114 350.201 7.42648L350.268 9.9123H358.577L358.644 7.42648C358.666 6.9114 358.957 6.64268 359.495 6.64268H359.45ZM350.268 11.3904L350.335 13.6746C350.335 14.3689 350.604 14.7048 351.164 14.7048H357.614C358.151 14.7048 358.42 14.3689 358.442 13.6746L358.509 11.3904H350.268ZM364.131 18.3999C366.348 17.0339 367.445 13.6298 367.445 8.2103C367.445 7.56086 367.736 7.22493 368.341 7.22493C368.945 7.22493 369.192 7.53847 369.192 8.18792C369.192 10.2258 369.057 11.995 368.766 13.5403C370.244 14.7272 371.319 16.6084 371.991 19.2062C372.103 19.6988 371.902 20.0347 371.409 20.1691C370.894 20.3259 370.58 20.1467 370.446 19.654C369.908 17.7729 369.214 16.3396 368.318 15.3542C367.624 17.4817 366.572 18.9822 365.138 19.8108C364.623 20.1243 364.22 20.0571 363.884 19.5421C363.593 19.0718 363.683 18.6911 364.153 18.4223L364.131 18.3999ZM374.365 12.958C374.343 11.0768 374.253 9.17329 374.096 7.26973C374.051 6.75465 374.32 6.48592 374.88 6.44113C375.44 6.39634 375.753 6.62029 375.798 7.13537C376.157 11.5247 376.157 15.9141 375.798 20.3035C375.753 20.8186 375.462 21.0425 374.88 20.9977C374.32 20.953 374.051 20.6842 374.096 20.1691C374.253 18.2656 374.343 16.362 374.365 14.4584H372.618C372.058 14.4584 371.79 14.2121 371.79 13.7194C371.79 13.2267 372.058 12.9804 372.618 12.9804H374.365V12.958ZM377.791 20.5498C378.15 16.0037 378.15 11.4352 377.791 6.88902C377.747 6.37394 378.015 6.10518 378.575 6.06039C379.135 6.0156 379.449 6.26196 379.471 6.77704C379.829 11.4128 379.829 16.0485 379.471 20.7066C379.449 21.2217 379.158 21.4456 378.575 21.4008C378.015 21.356 377.747 21.0873 377.791 20.5722V20.5498ZM385.518 15.4886C385.518 15.4886 385.518 15.287 385.518 15.1975C383.704 14.5704 382.808 13.2715 382.808 11.2784C382.808 8.29987 384.891 6.79942 389.078 6.73224C393.244 6.66505 395.327 8.12072 395.327 11.0768C395.327 13.0476 394.408 14.3913 392.594 15.0855C392.617 15.1975 392.639 15.3319 392.639 15.4662V19.2957C393.804 19.2509 394.968 19.1837 396.133 19.1166C396.603 19.0942 396.827 19.3181 396.872 19.8332C396.894 20.3259 396.67 20.5722 396.2 20.5946C391.452 20.9081 386.705 20.9081 381.957 20.5946C381.487 20.5722 381.263 20.3035 381.285 19.8332C381.307 19.3405 381.554 19.0942 382.024 19.1166C383.189 19.2061 384.353 19.2509 385.518 19.2957V15.4662V15.4886ZM389.101 14.2345C392.102 14.1673 393.602 13.1147 393.602 11.0992C393.602 9.08369 392.102 8.12071 389.101 8.1655C386.077 8.23269 384.577 9.28526 384.577 11.3008C384.577 13.3163 386.077 14.3017 389.101 14.2345ZM390.915 15.5334C390.355 15.623 389.75 15.6678 389.101 15.6678C388.429 15.6678 387.824 15.6678 387.264 15.5782V19.3405C388.496 19.3629 389.705 19.3629 390.915 19.3405V15.511V15.5334ZM398.26 20.2363C398.26 19.5645 398.619 19.2285 399.335 19.2285C400.052 19.2285 400.388 19.5645 400.388 20.2363V20.3931C400.388 21.0425 400.029 21.3785 399.335 21.3785C398.641 21.3785 398.26 21.0425 398.26 20.3931V20.2363Z" fill="#231815"/>
<path d="M41.8884 15.1113C41.7967 20.0798 39.2997 23.3768 34.53 24.7272C33.9083 24.9056 33.6586 25.1961 33.4446 25.7566C32.4865 28.2842 30.6367 29.7161 27.9257 29.8792C25.0771 30.0524 22.9165 28.8753 21.6985 26.256C21.3673 25.5426 20.9342 25.2317 20.2004 25.1808C18.9824 25.0891 17.8919 24.6559 17.0409 23.7743C16.5976 23.3157 16.302 23.3106 15.8077 23.7437C14.2178 25.14 12.3374 25.563 10.2634 25.2063C7.21604 24.6865 5.26942 22.5258 5.09106 19.4275C4.99933 17.7867 4.9229 16.1458 4.89742 14.5049C4.88723 13.8679 4.69358 13.5825 4.06169 13.343C1.18252 12.2372 -0.13222 10.0919 0.0104643 6.92732C0.132766 4.22141 1.83479 1.87221 4.59166 1.24032C8.78048 0.28229 13.0304 -0.395463 17.3467 0.486125C17.8359 0.588043 18.2486 0.445358 18.6971 0.317961C22.3101 -0.69612 25.5103 0.751111 27.0339 4.15007C27.3295 4.80744 27.7015 4.86859 28.2926 4.8533C30.494 4.80234 32.67 5.03165 34.7899 5.64826C39.208 6.93242 41.97 10.632 41.8884 15.1062V15.1113ZM25.5714 21.262C25.5714 21.9806 25.5459 22.694 25.5765 23.4125C25.6326 24.7935 26.2237 25.4305 27.4518 25.4712C28.471 25.5069 29.2557 24.7578 29.3679 23.5297C29.4443 22.694 29.4188 21.843 29.4086 21.0022C29.4035 20.4569 29.5411 20.2327 30.1424 20.411C31.0036 20.6709 31.9056 20.6047 32.7821 20.5282C34.9173 20.3448 36.604 18.923 37.1544 16.8898C37.8015 14.5049 37.1136 12.2576 35.381 10.9735C33.8879 9.86255 32.1196 9.64343 30.3666 9.44979C27.2276 9.11346 26.8505 9.42431 26.2848 12.5634C26.2186 12.9354 26.1523 13.3074 26.1218 13.6845C26.0555 14.4845 25.9944 15.2234 25.2402 15.7891C24.6338 16.2426 24.5879 17.1497 24.9752 17.644C25.8772 18.7854 25.5612 20.0288 25.5714 21.2569V21.262ZM13.2037 16.1152C13.2037 16.1152 13.168 16.1152 13.1477 16.1152C13.1477 15.1878 13.1782 14.2603 13.1375 13.3379C13.0967 12.3697 12.9999 11.4066 12.9234 10.4435C12.8249 9.16272 13.4143 8.49176 14.6917 8.43061C16.2154 8.35417 16.9849 7.7019 16.9747 6.47889C16.9696 5.26606 16.2256 4.61889 14.6255 4.64946C12.8164 4.68513 11.0074 4.83291 9.20854 4.99089C8.03648 5.0928 6.85424 5.16924 5.72805 5.56672C4.6732 5.93872 4.11775 7.02414 4.40312 8.08409C4.64772 8.99625 5.61594 9.46507 6.74722 9.21028C7.03259 9.14403 7.31287 9.05231 7.59314 8.96568C8.46454 8.6905 8.84163 8.87395 8.93845 9.90842C9.22892 12.9252 9.3767 15.947 9.43275 18.9791C9.45823 20.3499 10.0341 20.8544 11.2775 20.8493C12.5514 20.8391 13.1171 20.3397 13.1935 19.03C13.2496 18.0669 13.2037 17.0936 13.2037 16.1254V16.1152ZM23.1101 16.6248C23.1407 14.9839 23.0235 13.3583 22.6617 11.7531C22.4018 10.6015 21.6935 10.0256 20.4857 10.1428C19.227 10.2651 18.8499 11.2181 18.8907 12.2016C18.9824 14.5864 19.2321 16.9662 19.436 19.346C19.5328 20.5079 20.2462 20.8849 21.3418 20.8493C22.4884 20.8136 23.0439 20.2276 23.0999 19.1473C23.1458 18.3115 23.1101 17.4707 23.1101 16.6299V16.6248ZM22.8502 6.30562C23.1967 5.24059 22.4935 4.58322 21.5304 4.44563C19.7825 4.19593 18.5748 5.20491 18.5493 6.69801C18.5238 8.00765 19.3188 8.86886 20.5927 8.91472C22.0756 8.96568 22.7993 8.17072 22.8502 6.31072V6.30562Z" fill="#6A83B4"/>
<path d="M25.5719 21.2572C25.5566 20.0291 25.8777 18.7857 24.9757 17.6442C24.5833 17.1499 24.6292 16.2479 25.2407 15.7893C25.9949 15.2237 26.056 14.4797 26.1223 13.6847C26.1529 13.3076 26.2191 12.9356 26.2853 12.5636C26.851 9.42965 27.2281 9.11371 30.3672 9.45004C32.1252 9.63858 33.8884 9.8628 35.3815 10.9737C37.1141 12.263 37.802 14.5052 37.1549 16.89C36.6045 18.9233 34.9178 20.345 32.7826 20.5285C31.901 20.6049 31.0041 20.6712 30.1429 20.4113C29.5416 20.2278 29.3989 20.4571 29.4091 21.0024C29.4193 21.8432 29.4448 22.6942 29.3684 23.53C29.2562 24.7581 28.4664 25.5072 27.4523 25.4715C26.2242 25.4256 25.6382 24.7937 25.577 23.4128C25.5464 22.6993 25.5719 21.9808 25.5719 21.2623V21.2572ZM31.473 16.783C32.8539 16.8136 33.5776 16.2683 33.6285 15.2441C33.6846 14.1586 32.4921 13.2006 30.8767 13.2261C29.0932 13.2567 29.9442 14.8058 29.7709 15.6161C29.455 17.1091 30.8971 16.4925 31.473 16.7881V16.783Z" fill="#FCFCFC"/>
<path d="M13.2037 16.1176C13.2037 17.0858 13.2496 18.0591 13.1935 19.0222C13.1171 20.3319 12.5514 20.8313 11.2775 20.8415C10.029 20.8517 9.45823 20.3421 9.43275 18.9713C9.38179 15.9392 9.22892 12.9225 8.93845 9.90061C8.84163 8.86614 8.45944 8.67759 7.59314 8.95787C7.31286 9.04959 7.03259 9.13622 6.74722 9.20247C5.61593 9.46236 4.64772 8.99354 4.40311 8.07628C4.11774 7.02143 4.67829 5.93091 5.72804 5.55891C6.84914 5.16143 8.03648 5.085 9.20853 4.98308C11.0125 4.82511 12.8215 4.67732 14.6255 4.64165C16.2307 4.61108 16.9696 5.26335 16.9747 6.47108C16.9798 7.69409 16.2154 8.34636 14.6917 8.4228C13.4177 8.48735 12.8283 9.15831 12.9234 10.4357C12.9948 11.3988 13.0967 12.3619 13.1375 13.3301C13.1731 14.2525 13.1477 15.1799 13.1477 16.1074C13.168 16.1074 13.1833 16.1074 13.2037 16.1074V16.1176Z" fill="#FCFCFC"/>
<path d="M22.8393 16.5879C22.8393 17.4288 22.875 18.2696 22.8292 19.1053C22.7731 20.1907 22.2126 20.7717 21.0711 20.8073C19.9755 20.843 19.262 20.4659 19.1652 19.304C18.9614 16.9243 18.7117 14.5445 18.62 12.1596C18.5843 11.1812 18.9614 10.2232 20.215 10.1009C21.4227 9.98367 22.1259 10.5595 22.3909 11.7112C22.7527 13.3164 22.8699 14.942 22.8393 16.5828V16.5879Z" fill="#FCFCFC"/>
<path d="M22.8499 6.30914C22.7989 8.16914 22.0753 8.9692 20.5924 8.91314C19.3133 8.86728 18.5235 8.00607 18.5489 6.69643C18.5795 5.20843 19.7872 4.19435 21.53 4.44405C22.4932 4.58164 23.1964 5.2441 22.8499 6.30405V6.30914Z" fill="#FCFCFC"/>
<path d="M31.4722 16.7918C30.8505 16.7001 29.0058 17.1434 29.3217 15.6503C29.495 14.8401 29.0873 13.2654 30.8709 13.2349C32.4863 13.2094 33.6787 14.1674 33.6227 15.2528C33.5717 16.2771 32.8481 16.8224 31.4671 16.7918H31.4722Z" fill="#6A83B4"/>
</svg>
