<svg width="76" height="76" viewBox="0 0 76 76" fill="none" xmlns="http://www.w3.org/2000/svg">
<mask id="mask0_3241_5008" style="mask-type:alpha" maskUnits="userSpaceOnUse" x="0" y="0" width="76" height="76">
<circle cx="38" cy="38" r="38" fill="#D9D9D9"/>
</mask>
<g mask="url(#mask0_3241_5008)">
<path d="M47.6707 58.3295C41.8377 60.0531 35.5401 60.0531 29.707 58.3295V48.168C35.5401 49.8916 41.8377 49.8916 47.6707 48.168V58.3295Z" fill="white"/>
<path d="M38.6886 60.2824C35.5914 60.2824 32.5201 59.8451 29.5261 58.9447C29.2422 58.8675 29.0615 58.6102 29.0615 58.3273V48.1657C29.0615 47.9599 29.1648 47.7541 29.3196 47.6512C29.4745 47.5226 29.7068 47.4968 29.8874 47.5483C35.6431 49.2462 41.7084 49.2462 47.464 47.5483C47.6705 47.4968 47.877 47.5483 48.0318 47.6512C48.1867 47.7798 48.2899 47.9599 48.2899 48.1657V58.3273C48.2899 58.6102 48.1092 58.8675 47.8253 58.9447C44.8314 59.8193 41.7342 60.2824 38.6628 60.2824H38.6886ZM30.3778 57.8385C35.8237 59.3563 41.5535 59.3563 47.0252 57.8385V49.0404C41.5535 50.5067 35.8495 50.5067 30.3778 49.0404V57.8385Z" fill="#3E3A39"/>
<path d="M47.6707 58.3295C41.8377 60.0531 35.5401 60.0531 29.707 58.3295V48.168C35.5401 49.8916 41.8377 49.8916 47.6707 48.168V58.3295Z" fill="#FBDACF"/>
<path d="M38.6886 60.2824C35.5914 60.2824 32.5201 59.8451 29.5261 58.9447C29.2422 58.8675 29.0615 58.6102 29.0615 58.3273V48.1657C29.0615 47.9599 29.1648 47.7541 29.3196 47.6512C29.4745 47.5226 29.7068 47.4968 29.8874 47.5483C35.6431 49.2462 41.7084 49.2462 47.464 47.5483C47.6705 47.4968 47.877 47.5483 48.0318 47.6512C48.1867 47.7798 48.2899 47.9599 48.2899 48.1657V58.3273C48.2899 58.6102 48.1092 58.8675 47.8253 58.9447C44.8314 59.8193 41.7342 60.2824 38.6628 60.2824H38.6886ZM30.3778 57.8385C35.8237 59.3563 41.5535 59.3563 47.0252 57.8385V49.0404C41.5535 50.5067 35.8495 50.5067 30.3778 49.0404V57.8385Z" fill="#3E3A39"/>
<path d="M59.0528 38.2891C59.0528 48.1419 49.9419 56.1168 38.6887 56.1168C27.4356 56.1168 18.3247 48.1419 18.3247 38.2891" fill="white"/>
<path d="M38.689 56.7843C27.1003 56.7843 17.6797 48.5007 17.6797 38.2877C17.6797 37.9275 17.9636 37.6445 18.3249 37.6445C18.6863 37.6445 18.9702 37.9275 18.9702 38.2877C18.9702 47.7547 27.7972 55.4723 38.6632 55.4723C49.5291 55.4723 58.3819 47.7547 58.3819 38.2877C58.3819 37.9275 58.6658 37.6445 59.0272 37.6445C59.3885 37.6445 59.6724 37.9275 59.6724 38.2877C59.6724 48.475 50.2518 56.7843 38.6373 56.7843H38.689Z" fill="#3E3A39"/>
<path d="M58.9751 37.5166C58.9751 41.5298 49.89 44.797 38.6885 44.797C27.4869 44.797 18.4019 41.5298 18.4019 37.5166C18.4019 33.5035 27.4869 30.2363 38.6885 30.2363C49.89 30.2363 58.9751 33.5035 58.9751 37.5166Z" fill="white"/>
<path d="M38.6887 45.4394C26.9452 45.4394 17.7568 41.9407 17.7568 37.4902C17.7568 33.0397 26.9452 29.541 38.6887 29.541C50.4322 29.541 59.6205 33.0397 59.6205 37.4902C59.6205 41.9407 50.4322 45.4394 38.6887 45.4394ZM38.6887 30.8787C26.9452 30.8787 19.0731 34.3002 19.0731 37.5159C19.0731 40.7316 26.9452 44.1531 38.6887 44.1531C50.4322 44.1531 58.3042 40.7316 58.3042 37.5159C58.3042 34.3002 50.4322 30.8787 38.6887 30.8787Z" fill="#3E3A39"/>
<path d="M28.2356 24.4731C23.9512 25.1934 23.3575 25.7851 22.6349 30.0555C21.9122 25.7851 21.3186 25.1934 17.0083 24.4731C21.2927 23.7528 21.8864 23.1611 22.6349 18.8906C23.3575 23.1611 23.9512 23.7528 28.2356 24.4731Z" fill="white"/>
<path d="M22.6349 30.621C22.3768 30.621 22.1445 30.4152 22.0929 30.1579C21.396 26.0933 21.0089 25.7074 16.9309 25.0128C16.6728 24.9614 16.4663 24.7299 16.4663 24.4726C16.4663 24.2154 16.6728 23.9838 16.9309 23.9324C21.0089 23.2378 21.396 22.8519 22.0929 18.7873C22.1445 18.53 22.3768 18.3242 22.6349 18.3242C22.893 18.3242 23.1253 18.53 23.1769 18.7873C23.8738 22.8519 24.2609 23.2378 28.3389 23.9324C28.597 23.9838 28.8035 24.2154 28.8035 24.4726C28.8035 24.7299 28.597 24.9614 28.3389 25.0128C24.2609 25.7074 23.8738 26.0933 23.1769 30.1579C23.1253 30.4152 22.893 30.621 22.6349 30.621ZM19.5635 24.4726C21.2928 25.0128 22.0929 25.8103 22.6349 27.5339C23.1769 25.8103 23.977 25.0128 25.7063 24.4726C23.977 23.9324 23.1769 23.1349 22.6349 21.4113C22.0929 23.1349 21.2928 23.9324 19.5635 24.4726Z" fill="#3E3A39"/>
<path d="M28.2356 24.4731C23.9512 25.1934 23.3575 25.7851 22.6349 30.0555C21.9122 25.7851 21.3186 25.1934 17.0083 24.4731C21.2927 23.7528 21.8864 23.1611 22.6349 18.8906C23.3575 23.1611 23.9512 23.7528 28.2356 24.4731Z" fill="white"/>
<path d="M22.6349 30.621C22.3768 30.621 22.1445 30.4152 22.0929 30.1579C21.396 26.0933 21.0089 25.7074 16.9309 25.0128C16.6728 24.9614 16.4663 24.7299 16.4663 24.4726C16.4663 24.2154 16.6728 23.9838 16.9309 23.9324C21.0089 23.2378 21.396 22.8519 22.0929 18.7873C22.1445 18.53 22.3768 18.3242 22.6349 18.3242C22.893 18.3242 23.1253 18.53 23.1769 18.7873C23.8738 22.8519 24.2609 23.2378 28.3389 23.9324C28.597 23.9838 28.8035 24.2154 28.8035 24.4726C28.8035 24.7299 28.597 24.9614 28.3389 25.0128C24.2609 25.7074 23.8738 26.0933 23.1769 30.1579C23.1253 30.4152 22.893 30.621 22.6349 30.621ZM19.5635 24.4726C21.2928 25.0128 22.0929 25.8103 22.6349 27.5339C23.1769 25.8103 23.977 25.0128 25.7063 24.4726C23.977 23.9324 23.1769 23.1349 22.6349 21.4113C22.0929 23.1349 21.2928 23.9324 19.5635 24.4726Z" fill="#3E3A39"/>
<path d="M44.5992 21.4133C41.3988 21.9535 40.96 22.3909 40.418 25.5808C39.876 22.3909 39.4372 21.9535 36.2368 21.4133C39.4372 20.8731 39.876 20.4357 40.418 17.2715C40.96 20.4614 41.3988 20.8988 44.5992 21.4133Z" fill="white"/>
<path d="M40.4439 26.1187C40.1858 26.1187 39.9535 25.9129 39.9019 25.6556C39.3857 22.6972 39.1534 22.4399 36.1853 21.9511C35.9272 21.8997 35.7207 21.6682 35.7207 21.4109C35.7207 21.1536 35.9272 20.9221 36.1853 20.8707C39.1534 20.3819 39.4115 20.1246 39.9019 17.1662C39.9535 16.9089 40.1858 16.7031 40.4439 16.7031C40.702 16.7031 40.9343 16.9089 40.9859 17.1662C41.4763 20.1246 41.7344 20.3819 44.7026 20.8707C44.9607 20.9221 45.1671 21.1536 45.1671 21.4109C45.1671 21.6682 44.9607 21.8997 44.7026 21.9511C41.7344 22.4399 41.4763 22.6972 40.9859 25.6556C40.9343 25.9129 40.702 26.1187 40.4439 26.1187ZM38.6114 21.4109C39.5664 21.7711 40.0826 22.2856 40.4439 23.2374C40.8053 22.2856 41.3215 21.7711 42.2764 21.4109C41.3215 21.0507 40.8053 20.5362 40.4439 19.5844C40.0826 20.5362 39.5664 21.0507 38.6114 21.4109Z" fill="#3E3A39"/>
<path d="M44.5992 21.4133C41.3988 21.9535 40.96 22.3909 40.418 25.5808C39.876 22.3909 39.4372 21.9535 36.2368 21.4133C39.4372 20.8731 39.876 20.4357 40.418 17.2715C40.96 20.4614 41.3988 20.8988 44.5992 21.4133Z" fill="white"/>
<path d="M40.4439 26.1187C40.1858 26.1187 39.9535 25.9129 39.9019 25.6556C39.3857 22.6972 39.1534 22.4399 36.1853 21.9511C35.9272 21.8997 35.7207 21.6682 35.7207 21.4109C35.7207 21.1536 35.9272 20.9221 36.1853 20.8707C39.1534 20.3819 39.4115 20.1246 39.9019 17.1662C39.9535 16.9089 40.1858 16.7031 40.4439 16.7031C40.702 16.7031 40.9343 16.9089 40.9859 17.1662C41.4763 20.1246 41.7344 20.3819 44.7026 20.8707C44.9607 20.9221 45.1671 21.1536 45.1671 21.4109C45.1671 21.6682 44.9607 21.8997 44.7026 21.9511C41.7344 22.4399 41.4763 22.6972 40.9859 25.6556C40.9343 25.9129 40.702 26.1187 40.4439 26.1187ZM38.6114 21.4109C39.5664 21.7711 40.0826 22.2856 40.4439 23.2374C40.8053 22.2856 41.3215 21.7711 42.2764 21.4109C41.3215 21.0507 40.8053 20.5362 40.4439 19.5844C40.0826 20.5362 39.5664 21.0507 38.6114 21.4109Z" fill="#3E3A39"/>
</g>
</svg>
