<svg width="76" height="76" viewBox="0 0 76 76" fill="none" xmlns="http://www.w3.org/2000/svg">
<mask id="mask0_3241_4950" style="mask-type:alpha" maskUnits="userSpaceOnUse" x="0" y="0" width="76" height="76">
<circle cx="38" cy="38" r="38" fill="#D9D9D9"/>
</mask>
<g mask="url(#mask0_3241_4950)">
<path d="M29.4817 25.1653C28.8364 25.1653 28.0879 25.0624 27.3136 24.7537C25.1714 23.9305 22.4872 20.9206 22.0484 19.7887C21.8419 19.197 22.0484 18.4252 22.5904 17.6792C23.2615 16.7788 24.5004 15.8784 25.9457 15.9298C28.1654 16.0585 31.0303 21.1778 31.5981 22.2069C31.6239 22.2583 31.6497 22.3355 31.6755 22.3869C31.9852 23.9562 31.9336 24.162 31.882 24.3164C31.8046 24.5736 31.5465 24.728 31.3658 24.8309C31.0045 25.0109 30.3334 25.191 29.5075 25.191L29.4817 25.1653ZM25.765 17.2418C24.9133 17.2418 24.1648 17.8078 23.7261 18.348C23.3131 18.8625 23.2357 19.2484 23.2615 19.3256C23.5196 20.0202 25.8683 22.7985 27.7524 23.5189C29.0171 24.0076 30.0753 23.8276 30.5399 23.6989C30.4883 23.4674 30.4366 23.0815 30.3592 22.7471C28.9397 20.1231 26.8232 17.2933 25.8425 17.2418C25.8167 17.2418 25.765 17.2418 25.7392 17.2418H25.765Z" fill="#3E3A39"/>
<path d="M29.327 22.4633C29.1463 22.4633 28.9914 22.3861 28.8624 22.2575L26.0749 19.4277C25.8168 19.1704 25.8168 18.7588 26.0749 18.5015C26.333 18.2443 26.746 18.2443 27.0041 18.5015L29.7915 21.3313C30.0496 21.5886 30.0496 22.0002 29.7915 22.2575C29.6625 22.3861 29.4818 22.4375 29.327 22.4375V22.4633Z" fill="#3E3A39"/>
<path d="M33.0951 25.1653C32.2692 25.1653 31.5981 24.9852 31.2368 24.8051C31.0303 24.7022 30.798 24.5736 30.6948 24.2649C30.6432 24.1363 30.5915 23.9562 30.9013 22.3612C30.9013 22.284 30.9271 22.2326 30.9787 22.1811C31.5207 21.1778 34.3856 16.0585 36.6053 15.9298C38.0248 15.8784 39.2895 16.7788 39.9605 17.6534C40.5284 18.4252 40.7348 19.197 40.5026 19.7629C40.0896 20.8949 37.3796 23.9047 35.2373 24.728C34.463 25.0367 33.7145 25.1396 33.0693 25.1396L33.0951 25.1653ZM32.0111 23.6989C32.4757 23.8533 33.5339 24.0076 34.7986 23.5189C36.6311 22.7985 39.0572 19.9945 39.3153 19.3256C39.3153 19.2484 39.2637 18.8625 38.8507 18.348C38.3861 17.7821 37.6635 17.1904 36.7085 17.2676C35.7277 17.319 33.6113 20.1488 32.1918 22.7728C32.1143 23.1073 32.0627 23.4674 32.0369 23.7247L32.0111 23.6989Z" fill="#3E3A39"/>
<path d="M33.2241 22.4649C33.0692 22.4649 32.8885 22.4134 32.7595 22.2848C32.5014 22.0275 32.5014 21.6159 32.7595 21.3587L35.547 18.5289C35.8051 18.2716 36.218 18.2716 36.4761 18.5289C36.7342 18.7861 36.7342 19.1977 36.4761 19.455L33.6886 22.2848C33.5596 22.4134 33.3789 22.4906 33.2241 22.4906V22.4649Z" fill="#3E3A39"/>
<path d="M61.9505 42.7097C61.9505 43.3271 59.705 43.4815 59.4985 44.0217C59.2662 44.562 60.7374 46.2598 60.2986 46.6714C59.8857 47.0831 58.1822 45.6424 57.6402 45.8482C57.0982 46.0798 56.9433 48.2922 56.3239 48.2922C55.7045 48.2922 55.5496 46.054 55.0334 45.8482C54.4914 45.6167 52.7879 47.0831 52.375 46.6457C51.962 46.2341 53.4074 44.5362 53.1751 43.996C52.9686 43.4558 50.7231 43.3014 50.7231 42.684C50.7231 42.0666 52.9686 41.9122 53.1751 41.372C53.4074 40.8318 51.962 39.1339 52.375 38.7223C52.7879 38.3107 54.4914 39.7513 55.0334 39.5455C55.5754 39.3397 55.7303 37.1016 56.3239 37.1016C56.9175 37.1016 57.0982 39.3397 57.6402 39.5455C58.1822 39.777 59.8857 38.3107 60.2986 38.748C60.7116 39.1596 59.2662 40.8575 59.4727 41.3977C59.705 41.938 61.9246 42.0923 61.9246 42.7097" fill="#FBDACF"/>
<path d="M56.35 48.9606C55.5499 48.9606 55.266 48.0859 55.0079 47.237C54.9305 47.0312 54.853 46.7225 54.7756 46.5424C54.5691 46.6196 54.2594 46.7739 54.0787 46.8768C53.3044 47.2884 52.5043 47.7 51.9365 47.1341C51.3687 46.5938 51.8075 45.7963 52.1946 45.0246C52.2978 44.8188 52.4527 44.5101 52.5301 44.33C52.3495 44.2528 52.0397 44.1499 51.8333 44.0985C51.0332 43.8412 50.104 43.5582 50.104 42.7607C50.104 41.9632 51.0332 41.6545 51.8333 41.423C52.0397 41.3458 52.3495 41.2686 52.5301 41.1915C52.4527 40.9857 52.2978 40.677 52.1946 40.4969C51.7816 39.7251 51.3687 38.9276 51.9365 38.3617C52.5043 37.8214 53.3044 38.233 54.0787 38.6189C54.2852 38.7218 54.5949 38.8762 54.7756 38.9534C54.853 38.7733 54.9563 38.4646 55.0079 38.2588C55.266 37.4613 55.5499 36.5352 56.35 36.5352C57.1501 36.5352 57.4598 37.4613 57.6921 38.2588C57.7695 38.4646 57.847 38.7733 57.9244 38.9534C58.1309 38.8762 58.4406 38.7218 58.6213 38.6189C59.3956 38.2073 60.1957 37.7957 60.7635 38.3617C61.3313 38.9276 60.8925 39.7251 60.5054 40.4969C60.4022 40.7027 60.2473 41.0114 60.1699 41.1915C60.3505 41.2686 60.6603 41.3715 60.8667 41.423C61.6668 41.6803 62.596 41.9632 62.596 42.7607C62.596 43.5582 61.6668 43.8412 60.8667 44.0985C60.6603 44.1756 60.3505 44.2528 60.1699 44.33C60.2473 44.5358 60.4022 44.8445 60.5054 45.0246C60.9184 45.7963 61.3313 46.5938 60.7635 47.1598C60.1957 47.7257 59.3956 47.2884 58.6471 46.9025C58.4406 46.7996 58.1309 46.6453 57.9502 46.5681C57.8728 46.7482 57.7695 47.0569 57.7179 47.2627C57.4598 48.0602 57.1759 48.9863 56.3758 48.9863L56.35 48.9606ZM54.9046 45.1789C55.0337 45.1789 55.1627 45.1789 55.2918 45.2561C55.8338 45.4876 56.0145 46.105 56.2468 46.8511C56.2468 46.9283 56.2984 47.0312 56.35 47.1341C56.3758 47.0312 56.4274 46.9283 56.4532 46.8511C56.6855 46.105 56.892 45.4876 57.4082 45.2561C57.9502 45.0246 58.5697 45.359 59.2665 45.7192C59.3181 45.7449 59.3956 45.7963 59.473 45.8221C59.4472 45.7449 59.3956 45.6934 59.3698 45.6163C59.0084 44.9217 58.6987 44.3043 58.9052 43.764C59.1375 43.2238 59.7569 43.0437 60.5054 42.8122C60.5828 42.7865 60.6861 42.7607 60.7893 42.7093C60.6861 42.6836 60.5828 42.6321 60.5054 42.6064C59.7569 42.3748 59.1375 42.169 58.9052 41.6545C58.6729 41.1143 59.0084 40.4969 59.3698 39.8023C59.3956 39.7508 59.4472 39.6737 59.473 39.5965C59.3956 39.6222 59.344 39.6737 59.2665 39.6994C58.5697 40.0595 57.9502 40.3683 57.4082 40.1625C56.8662 39.9566 56.6855 39.3135 56.4532 38.5675C56.4274 38.4903 56.4016 38.3874 56.35 38.2845C56.3242 38.3874 56.2726 38.4903 56.2468 38.5675C56.0145 39.3135 55.808 39.9309 55.2918 40.1625C54.7498 40.394 54.1304 40.0595 53.4335 39.6994C53.3819 39.6737 53.3044 39.6222 53.227 39.5965C53.2528 39.6737 53.3044 39.7251 53.3302 39.8023C53.6916 40.4969 54.0013 41.1143 53.7948 41.6545C53.5883 42.1948 52.9431 42.3748 52.1946 42.6064C52.1172 42.6321 52.0139 42.6578 51.9107 42.7093C52.0139 42.735 52.1172 42.7607 52.1946 42.8122C52.9431 43.0437 53.5883 43.2495 53.7948 43.764C54.0271 44.3043 53.7174 44.9217 53.3302 45.6163C53.3044 45.6677 53.2528 45.7449 53.227 45.8221C53.3044 45.7963 53.3561 45.7449 53.4335 45.7192C53.9755 45.4362 54.4659 45.1789 54.9046 45.1789Z" fill="#3E3A39"/>
<path d="M66.1574 48.6543H46.6709V60.7196H66.1574V48.6543Z" fill="#FBDACF"/>
<path d="M66.1317 61.3613H46.6452C46.2839 61.3613 46 61.0783 46 60.7182V48.6529C46 48.2927 46.2839 48.0098 46.6452 48.0098H66.1317C66.4931 48.0098 66.777 48.2927 66.777 48.6529V60.7182C66.777 61.0783 66.4931 61.3613 66.1317 61.3613ZM47.3163 60.0493H65.4865V49.296H47.3163V60.0493Z" fill="#3E3A39"/>
<path d="M67.1127 43.7402H45.7163V51.0206H67.1127V43.7402Z" fill="#FBDACF"/>
<path d="M67.0866 51.6642H45.6902C45.3288 51.6642 45.0449 51.3813 45.0449 51.0211V43.7408C45.0449 43.3806 45.3288 43.0977 45.6902 43.0977H67.0866C67.4479 43.0977 67.7318 43.3806 67.7318 43.7408V51.0211C67.7318 51.3813 67.4479 51.6642 67.0866 51.6642ZM46.3612 50.3522H66.4413V44.3839H46.3612V50.3522Z" fill="#3E3A39"/>
<path d="M57.9242 61.4907H54.4914C54.1301 61.4907 53.8462 61.2077 53.8462 60.8476V43.7916C53.8462 43.4314 54.1301 43.1484 54.4914 43.1484H57.9242C58.2855 43.1484 58.5694 43.4314 58.5694 43.7916V60.8476C58.5694 61.2077 58.2855 61.4907 57.9242 61.4907ZM55.1625 60.1787H57.2789V44.4347H55.1625V60.1787Z" fill="#3E3A39"/>
<path d="M43.0321 61.7222H19.5193C19.1579 61.7222 18.874 61.4392 18.874 61.0791V28.6392C18.874 28.2791 19.1579 27.9961 19.5193 27.9961H43.0321C43.3934 27.9961 43.6774 28.2791 43.6774 28.6392V61.0791C43.6774 61.4392 43.3934 61.7222 43.0321 61.7222ZM20.1903 60.4102H42.3869V29.3081H20.1903V60.436V60.4102Z" fill="#3E3A39"/>
<path d="M44.1676 32.1371H18.3577C17.9963 32.1371 17.7124 31.8542 17.7124 31.494V22.6959C17.7124 22.3357 17.9963 22.0527 18.3577 22.0527H44.1676C44.5289 22.0527 44.8128 22.3357 44.8128 22.6959V31.494C44.8128 31.8542 44.5289 32.1371 44.1676 32.1371ZM19.0287 30.8251H43.5223V23.339H19.0287V30.8251Z" fill="#3E3A39"/>
<path d="M33.121 61.8748H28.9914C28.6301 61.8748 28.3462 61.5918 28.3462 61.2317V22.772C28.3462 22.4119 28.6301 22.1289 28.9914 22.1289H33.121C33.4824 22.1289 33.7663 22.4119 33.7663 22.772V61.2317C33.7663 61.5918 33.4824 61.8748 33.121 61.8748ZM29.6625 60.5628H32.4758V23.4152H29.6625V60.5628Z" fill="#3E3A39"/>
<path d="M63.551 27.3783L68.0935 20.1751L63.7575 17.5254L59.2407 24.7028L54.6724 21.9245L56.8404 33.4238L68.1193 30.1566L63.551 27.3783Z" fill="#FBDACF"/>
<path d="M56.8405 34.068C56.8405 34.068 56.6082 34.0423 56.5049 33.9651C56.3501 33.8622 56.2468 33.7079 56.1952 33.5278L54.0272 22.0285C53.9756 21.7713 54.0788 21.514 54.3111 21.3596C54.5176 21.2053 54.8015 21.2053 55.0338 21.3596L59.0343 23.8036L63.2155 17.1664C63.3962 16.8577 63.8091 16.7548 64.1189 16.9606L68.4549 19.6103C68.6098 19.7132 68.713 19.8418 68.7388 20.0219C68.7647 20.202 68.7388 20.3821 68.6614 20.5107L64.4802 27.1479L68.4807 29.5918C68.713 29.7204 68.8163 29.9777 68.7905 30.2349C68.7647 30.4922 68.584 30.698 68.3259 30.7752L57.0469 34.0423C57.0469 34.0423 56.9179 34.0423 56.8663 34.0423L56.8405 34.068ZM55.6016 23.2633L57.3567 32.6017L66.5192 29.952L63.2413 27.9454C63.0865 27.8425 62.9832 27.7138 62.9574 27.5338C62.9316 27.3537 62.9574 27.1736 63.0348 27.045L67.2161 20.4078L64.0156 18.4269L59.8344 25.0641C59.6537 25.3728 59.2408 25.4757 58.9311 25.2699L55.6274 23.2633H55.6016Z" fill="#3E3A39"/>
</g>
</svg>
