<svg width="76" height="76" viewBox="0 0 76 76" fill="none" xmlns="http://www.w3.org/2000/svg">
<mask id="mask0_3241_4983" style="mask-type:alpha" maskUnits="userSpaceOnUse" x="0" y="0" width="76" height="76">
<circle cx="38" cy="38" r="38" fill="#D9D9D9"/>
</mask>
<g mask="url(#mask0_3241_4983)">
</g>
<g clip-path="url(#clip0_3241_4983)">
<path d="M42.5454 24.2373L42.6339 16.5898H38.0312L37.9427 24.2373L33.0967 24.2153L40.244 32.0381L47.4135 24.2592L42.5454 24.2373Z" fill="#FBDACF"/>
<path d="M40.2437 32.6299C40.0667 32.6299 39.9118 32.5642 39.8012 32.4327L32.6538 24.61C32.4989 24.4347 32.4546 24.1937 32.5432 23.9746C32.6317 23.7554 32.853 23.624 33.0964 23.624H37.3449L37.4335 16.5682C37.4335 16.2395 37.699 15.9766 38.0309 15.9766H42.6336C42.7884 15.9766 42.9433 16.0423 43.054 16.1519C43.1646 16.2614 43.231 16.4148 43.231 16.5682L43.1646 23.624H47.4132C47.6566 23.624 47.8558 23.7774 47.9664 23.9746C48.0549 24.1937 48.0107 24.4347 47.8558 24.61L40.6863 32.4108C40.5756 32.5423 40.4207 32.608 40.2437 32.608V32.6299ZM34.4462 24.8292L40.2437 31.1837L46.0634 24.8511H42.5672C42.4123 24.8511 42.2574 24.7853 42.1467 24.6758C42.0361 24.5662 41.9697 24.4128 41.9697 24.2594L42.0361 17.2037H38.6284L38.5399 24.2594C38.5399 24.5881 38.2743 24.8511 37.9424 24.8511H34.4462V24.8292Z" fill="#3E3A39"/>
<path d="M60.0042 27.5258L57.1497 24.6991C56.6186 24.1732 55.7556 24.1732 55.2245 24.6991L53.5649 26.3425L58.3667 31.0756L60.0263 29.4322C60.5574 28.9063 60.5574 28.0517 60.0263 27.5258" fill="white"/>
<path d="M58.3447 31.6691C58.1898 31.6691 58.0349 31.6033 57.9243 31.4938L53.1225 26.7388C52.8791 26.4978 52.8791 26.1252 53.1225 25.9061L54.7821 24.2627C55.5566 23.4958 56.7958 23.4958 57.5481 24.2627L60.4026 27.0894C61.1771 27.8563 61.1771 29.0834 60.4026 29.8284L58.743 31.4719C58.6324 31.5814 58.4775 31.6472 58.3226 31.6472L58.3447 31.6691ZM54.4059 26.3225L58.3447 30.2229L59.5839 28.9958C59.8937 28.689 59.8937 28.2069 59.5839 27.9221L56.7294 25.0954C56.4196 24.8105 55.9328 24.8105 55.6451 25.0954L54.4059 26.3225Z" fill="#3E3A39"/>
<path d="M24.4443 59.4088L27.8078 58.2474L25.6171 56.0781L24.4443 59.4088Z" fill="white"/>
<path d="M24.4444 60.0018C24.2895 60.0018 24.1346 59.9361 24.024 59.8266C23.8691 59.6732 23.8027 59.4321 23.8912 59.213L25.064 55.9042C25.1304 55.707 25.2853 55.5756 25.5066 55.5317C25.7057 55.4879 25.927 55.5317 26.0598 55.6851L28.2504 57.8544C28.4053 58.0078 28.4496 58.205 28.4053 58.4022C28.3611 58.5995 28.2062 58.7528 28.0292 58.8186L24.6657 59.9799C24.6657 59.9799 24.5329 60.0018 24.4665 60.0018H24.4444ZM25.8606 57.1752L25.418 58.4461L26.7015 58.0078L25.8606 57.1752Z" fill="#3E3A39"/>
<path d="M27.0113 52.1133L25.6172 56.0794L27.8079 58.2487L31.813 56.8683L27.0113 52.1133Z" fill="white"/>
<path d="M27.8079 58.8403C27.653 58.8403 27.4981 58.7745 27.3875 58.665L25.1968 56.4956C25.0419 56.3423 24.9755 56.1012 25.0641 55.8821L26.4581 51.916C26.5245 51.7187 26.6794 51.5873 26.9007 51.5435C27.0998 51.4996 27.299 51.5435 27.4539 51.6968L32.2557 56.4518C32.4106 56.6052 32.4548 56.8024 32.4106 56.9996C32.3663 57.1968 32.2114 57.3502 32.0344 57.416L28.0292 58.7964C28.0292 58.7964 27.8965 58.8184 27.8301 58.8184L27.8079 58.8403ZM26.3032 55.9259L27.9628 57.5693L30.7288 56.6271L27.2769 53.2088L26.3254 55.9259H26.3032Z" fill="#3E3A39"/>
<path d="M58.3446 31.0753L53.5649 26.3203L27.0112 52.1111L31.813 56.8661L58.3446 31.0753Z" fill="#FBDACF"/>
<path d="M31.8133 57.4564C31.6584 57.4564 31.5035 57.3907 31.3929 57.2811L26.5911 52.5261C26.4804 52.4166 26.4141 52.2632 26.4141 52.1098C26.4141 51.9564 26.4804 51.803 26.5911 51.6935L53.1448 25.9026C53.366 25.6835 53.7422 25.6835 53.9856 25.9026L58.7874 30.6576C58.8981 30.7672 58.9644 30.9206 58.9644 31.0739C58.9644 31.2273 58.8981 31.3807 58.7874 31.4903L32.2337 57.2811C32.1231 57.3907 31.9682 57.4564 31.8133 57.4564ZM27.8524 52.1317L31.7912 56.0321L57.4819 31.0739L53.5431 27.1735L27.8524 52.1317Z" fill="#3E3A39"/>
<path d="M30.2865 36.9479L27.7418 34.428C27.255 33.9459 26.5026 33.9459 26.0158 34.428L24.5332 35.8961L28.8039 40.1252L30.2865 38.657C30.7512 38.1969 30.7512 37.43 30.2865 36.9479Z" fill="white"/>
<path d="M28.8257 40.6959C28.6708 40.6959 28.5159 40.6302 28.4053 40.5206L24.1345 36.2915C24.0239 36.182 23.9575 36.0286 23.9575 35.8752C23.9575 35.7218 24.0239 35.5684 24.1345 35.4589L25.6171 33.9907C26.3252 33.2895 27.4759 33.2895 28.184 33.9907L30.7287 36.5107C31.4368 37.2119 31.4368 38.3513 30.7287 39.0525L29.2461 40.5206C29.1355 40.6302 28.9806 40.6959 28.8257 40.6959ZM25.3958 35.8971L28.8257 39.2935L29.8878 38.2417C30.1312 38.0007 30.1312 37.6063 29.8878 37.3652L27.3431 34.8453C27.0997 34.6043 26.7014 34.6043 26.458 34.8453L25.3958 35.8752V35.8971Z" fill="#3E3A39"/>
<path d="M14.5977 49.966L17.5849 48.9361L15.6377 47.0078L14.5977 49.966Z" fill="white"/>
<path d="M14.5977 50.5575C14.4428 50.5575 14.2879 50.4918 14.1773 50.3822C14.0224 50.2288 13.956 49.9878 14.0445 49.7687L15.0845 46.8105C15.1509 46.6133 15.3058 46.4818 15.505 46.438C15.7041 46.3942 15.9033 46.438 16.0582 46.5914L18.0054 48.5197C18.1603 48.673 18.2046 48.8703 18.1603 49.0675C18.1161 49.2647 17.9612 49.4181 17.7842 49.4838L14.7969 50.5137C14.7969 50.5137 14.6641 50.5356 14.5977 50.5356V50.5575ZM15.8812 48.0814L15.5492 49.0017L16.4786 48.673L15.8812 48.0814Z" fill="#3E3A39"/>
<path d="M16.8769 43.4766L15.6377 47.0045L17.585 48.9327L21.1476 47.7056L16.8769 43.4766Z" fill="white"/>
<path d="M17.585 49.5243C17.4301 49.5243 17.2752 49.4585 17.1646 49.349L15.2173 47.4207C15.0624 47.2673 14.9961 47.0263 15.0846 46.8071L16.3237 43.2792C16.3901 43.082 16.545 42.9506 16.7442 42.9067C16.9433 42.8629 17.1425 42.9067 17.2974 43.0601L21.5681 47.2892C21.723 47.4426 21.7672 47.6398 21.723 47.837C21.6787 48.0342 21.5238 48.1876 21.3468 48.2533L17.7842 49.4804C17.7842 49.4804 17.6514 49.5023 17.585 49.5023V49.5243ZM16.3237 46.851L17.7399 48.2533L20.0634 47.4645L17.1425 44.5721L16.3237 46.851Z" fill="#3E3A39"/>
<path d="M24.5591 35.896L16.8921 43.4883L21.1637 47.7182L28.8307 40.126L24.5591 35.896Z" fill="white"/>
<path d="M21.1471 48.2995C20.9922 48.2995 20.8374 48.2337 20.7267 48.1242L16.456 43.8951C16.2126 43.6541 16.2126 43.2815 16.456 43.0624L24.1123 35.4807C24.3336 35.2616 24.7319 35.2616 24.9532 35.4807L29.2239 39.7098C29.4673 39.9509 29.4673 40.3234 29.2239 40.5425L21.5676 48.1242C21.4569 48.2337 21.302 48.2995 21.1471 48.2995ZM17.7394 43.4788L21.1693 46.8752L27.9847 40.1262L24.5549 36.7298L17.7394 43.4788Z" fill="#3E3A39"/>
</g>
<defs>
<clipPath id="clip0_3241_4983">
<rect width="47" height="44" fill="white" transform="translate(14 16)"/>
</clipPath>
</defs>
</svg>
