<svg width="26" height="27" viewBox="0 0 26 27" fill="none" xmlns="http://www.w3.org/2000/svg">
<g clip-path="url(#clip0_158_20096)">
<path d="M12.9856 26.5C20.155 26.5 25.9712 20.6838 25.9712 13.5144C25.9712 6.34496 20.1838 0.5 12.9856 0.5C5.78738 0.5 0 6.31617 0 13.4856C0 20.655 5.81617 26.4712 12.9856 26.4712" fill="#F3A8A2"/>
<path d="M13.6191 15.9628V21.9805H15.6634V4.47442H13.6191V8.39026H11.1717C10.5383 6.77785 9.44416 5.71252 7.77417 5.71252C4.95247 5.71252 3.74316 8.70698 3.74316 12.2485C3.74316 15.79 4.98126 18.8421 7.77417 18.8421C9.50175 18.8421 10.6535 17.6616 11.2581 15.934H13.6191V15.9628ZM19.3489 4.12891H17.3046V22.8731H19.3489V4.12891ZM9.78968 12.3061C9.78968 15.0126 9.15623 16.9705 7.80297 16.9705C6.4497 16.9705 5.81625 15.0126 5.81625 12.3061C5.81625 9.59956 6.47849 7.61285 7.80297 7.61285C9.12744 7.61285 9.78968 9.59956 9.78968 12.3061ZM11.834 12.3061C11.834 11.5575 11.7764 10.8089 11.6612 10.1178H13.6479V14.2928H11.7188C11.8052 13.6882 11.8628 12.9971 11.8628 12.3061" fill="white"/>
</g>
<defs>
<clipPath id="clip0_158_20096">
<rect width="26" height="26" fill="white" transform="translate(0 0.5)"/>
</clipPath>
</defs>
</svg>
