<svg width="40" height="36" viewBox="0 0 40 36" fill="none" xmlns="http://www.w3.org/2000/svg">
<path d="M38.7525 35.1648C39.0286 35.1648 39.2525 34.941 39.2525 34.6648C39.2525 34.3887 39.0286 34.1648 38.7525 34.1648V35.1648ZM17.3568 34.6648L16.9015 34.8714L17.0346 35.1648H17.3568V34.6648ZM0.201986 2.73438C0.201986 4.20713 1.39589 5.40104 2.86865 5.40104C4.34141 5.40104 5.53532 4.20713 5.53532 2.73438C5.53532 1.26162 4.34141 0.0677083 2.86865 0.0677083C1.39589 0.0677083 0.201986 1.26162 0.201986 2.73438ZM38.7525 34.1648H17.3568V35.1648H38.7525V34.1648ZM17.8121 34.4582L3.32397 2.52778L2.41333 2.94097L16.9015 34.8714L17.8121 34.4582Z" fill="#595757"/>
</svg>
