<svg width="28" height="20" viewBox="0 0 28 20" fill="none" xmlns="http://www.w3.org/2000/svg">
<path d="M27.2225 1.85547C27.4986 1.85547 27.7225 1.63161 27.7225 1.35547C27.7225 1.07933 27.4986 0.855469 27.2225 0.855469V1.85547ZM13.4945 1.35547V0.855469H13.2179L13.0709 1.0898L13.4945 1.35547ZM0.81429 17.3207C0.81429 18.7935 2.0082 19.9874 3.48096 19.9874C4.95372 19.9874 6.14762 18.7935 6.14762 17.3207C6.14762 15.848 4.95372 14.6541 3.48096 14.6541C2.0082 14.6541 0.81429 15.848 0.81429 17.3207ZM27.2225 0.855469H13.4945V1.85547H27.2225V0.855469ZM13.0709 1.0898L3.05738 17.0551L3.90454 17.5864L13.9181 1.62114L13.0709 1.0898Z" fill="#595757"/>
</svg>
