<svg width="144" height="105" viewBox="0 0 144 105" fill="none" xmlns="http://www.w3.org/2000/svg">
<path d="M41.8884 15.1113C41.7967 20.0798 39.2997 23.3768 34.53 24.7272C33.9083 24.9056 33.6586 25.1961 33.4446 25.7566C32.4865 28.2842 30.6367 29.7161 27.9257 29.8792C25.0771 30.0524 22.9165 28.8753 21.6985 26.256C21.3673 25.5426 20.9342 25.2317 20.2004 25.1808C18.9824 25.0891 17.8919 24.6559 17.0409 23.7743C16.5976 23.3157 16.302 23.3106 15.8077 23.7437C14.2178 25.14 12.3374 25.563 10.2634 25.2063C7.21604 24.6865 5.26942 22.5258 5.09106 19.4275C4.99933 17.7867 4.9229 16.1458 4.89742 14.5049C4.88723 13.8679 4.69358 13.5825 4.06169 13.343C1.18252 12.2372 -0.13222 10.0919 0.0104643 6.92732C0.132766 4.22141 1.83479 1.87221 4.59166 1.24032C8.78048 0.28229 13.0304 -0.395463 17.3467 0.486125C17.8359 0.588043 18.2486 0.445358 18.6971 0.317961C22.3101 -0.69612 25.5103 0.751111 27.0339 4.15007C27.3295 4.80744 27.7015 4.86859 28.2926 4.8533C30.494 4.80234 32.67 5.03165 34.7899 5.64826C39.208 6.93242 41.97 10.632 41.8884 15.1062V15.1113ZM25.5714 21.262C25.5714 21.9806 25.5459 22.694 25.5765 23.4125C25.6326 24.7935 26.2237 25.4305 27.4518 25.4712C28.471 25.5069 29.2557 24.7578 29.3679 23.5297C29.4443 22.694 29.4188 21.843 29.4086 21.0022C29.4035 20.4569 29.5411 20.2327 30.1424 20.411C31.0036 20.6709 31.9056 20.6047 32.7821 20.5282C34.9173 20.3448 36.604 18.923 37.1544 16.8898C37.8015 14.5049 37.1136 12.2576 35.381 10.9735C33.8879 9.86255 32.1196 9.64343 30.3666 9.44979C27.2276 9.11346 26.8505 9.42431 26.2848 12.5634C26.2186 12.9354 26.1523 13.3074 26.1218 13.6845C26.0555 14.4845 25.9944 15.2234 25.2402 15.7891C24.6338 16.2426 24.5879 17.1497 24.9752 17.644C25.8772 18.7854 25.5612 20.0288 25.5714 21.2569V21.262ZM13.2037 16.1152C13.2037 16.1152 13.168 16.1152 13.1477 16.1152C13.1477 15.1878 13.1782 14.2603 13.1375 13.3379C13.0967 12.3697 12.9999 11.4066 12.9234 10.4435C12.8249 9.16272 13.4143 8.49176 14.6917 8.43061C16.2154 8.35417 16.9849 7.7019 16.9747 6.47889C16.9696 5.26606 16.2256 4.61889 14.6255 4.64946C12.8164 4.68513 11.0074 4.83291 9.20853 4.99089C8.03648 5.0928 6.85424 5.16924 5.72805 5.56672C4.6732 5.93872 4.11775 7.02414 4.40312 8.08409C4.64772 8.99625 5.61594 9.46507 6.74722 9.21028C7.03259 9.14403 7.31287 9.05231 7.59314 8.96568C8.46454 8.6905 8.84163 8.87395 8.93845 9.90842C9.22892 12.9252 9.3767 15.947 9.43275 18.9791C9.45823 20.3499 10.0341 20.8544 11.2775 20.8493C12.5514 20.8391 13.1171 20.3397 13.1935 19.03C13.2496 18.0669 13.2037 17.0936 13.2037 16.1254V16.1152ZM23.1101 16.6248C23.1407 14.9839 23.0235 13.3583 22.6617 11.7531C22.4018 10.6015 21.6935 10.0256 20.4857 10.1428C19.227 10.2651 18.8499 11.2181 18.8907 12.2016C18.9824 14.5864 19.2321 16.9662 19.436 19.346C19.5328 20.5079 20.2462 20.8849 21.3418 20.8493C22.4884 20.8136 23.0439 20.2276 23.0999 19.1473C23.1458 18.3115 23.1101 17.4707 23.1101 16.6299V16.6248ZM22.8502 6.30563C23.1967 5.24059 22.4935 4.58322 21.5304 4.44563C19.7825 4.19593 18.5748 5.20491 18.5493 6.69801C18.5238 8.00765 19.3188 8.86886 20.5927 8.91472C22.0756 8.96568 22.7993 8.17072 22.8502 6.31072V6.30563Z" fill="#6A83B4"/>
<path d="M25.5719 21.2572C25.5566 20.0291 25.8777 18.7857 24.9757 17.6442C24.5833 17.1499 24.6292 16.2479 25.2407 15.7893C25.9949 15.2237 26.056 14.4797 26.1223 13.6847C26.1529 13.3076 26.2191 12.9356 26.2853 12.5636C26.851 9.42965 27.2281 9.11371 30.3672 9.45004C32.1252 9.63858 33.8884 9.8628 35.3815 10.9737C37.1141 12.263 37.802 14.5052 37.1549 16.89C36.6045 18.9233 34.9178 20.345 32.7826 20.5285C31.901 20.6049 31.0041 20.6712 30.1429 20.4113C29.5416 20.2278 29.3989 20.4571 29.4091 21.0024C29.4193 21.8432 29.4448 22.6942 29.3684 23.53C29.2562 24.7581 28.4664 25.5072 27.4523 25.4715C26.2242 25.4256 25.6382 24.7937 25.577 23.4128C25.5464 22.6993 25.5719 21.9808 25.5719 21.2623V21.2572ZM31.473 16.783C32.8539 16.8136 33.5776 16.2683 33.6285 15.2441C33.6846 14.1586 32.4921 13.2006 30.8767 13.2261C29.0932 13.2567 29.9442 14.8058 29.7709 15.6161C29.455 17.1091 30.8971 16.4925 31.473 16.7881V16.783Z" fill="#FCFCFC"/>
<path d="M13.2037 16.1176C13.2037 17.0858 13.2496 18.0591 13.1935 19.0222C13.1171 20.3319 12.5514 20.8313 11.2775 20.8415C10.029 20.8517 9.45823 20.3421 9.43275 18.9713C9.38179 15.9392 9.22892 12.9225 8.93845 9.90061C8.84163 8.86614 8.45944 8.67759 7.59314 8.95787C7.31286 9.04959 7.03259 9.13622 6.74722 9.20247C5.61593 9.46236 4.64772 8.99354 4.40311 8.07628C4.11774 7.02143 4.67829 5.93091 5.72804 5.55891C6.84914 5.16143 8.03648 5.085 9.20853 4.98308C11.0125 4.82511 12.8215 4.67732 14.6255 4.64165C16.2307 4.61108 16.9696 5.26335 16.9747 6.47108C16.9798 7.69409 16.2154 8.34636 14.6917 8.4228C13.4177 8.48735 12.8283 9.15831 12.9234 10.4357C12.9948 11.3988 13.0967 12.3619 13.1375 13.3301C13.1731 14.2525 13.1477 15.1799 13.1477 16.1074C13.168 16.1074 13.1833 16.1074 13.2037 16.1074V16.1176Z" fill="#FCFCFC"/>
<path d="M22.8393 16.5879C22.8393 17.4288 22.875 18.2696 22.8292 19.1053C22.7731 20.1907 22.2126 20.7717 21.0711 20.8073C19.9755 20.843 19.262 20.4659 19.1652 19.304C18.9614 16.9243 18.7117 14.5445 18.62 12.1596C18.5843 11.1812 18.9614 10.2232 20.215 10.1009C21.4227 9.98367 22.1259 10.5595 22.3909 11.7112C22.7527 13.3164 22.8699 14.942 22.8393 16.5828V16.5879Z" fill="#FCFCFC"/>
<path d="M22.8498 6.30914C22.7988 8.16914 22.0752 8.9692 20.5923 8.91314C19.3133 8.86728 18.5234 8.00607 18.5489 6.69643C18.5795 5.20843 19.7872 4.19435 21.53 4.44405C22.4931 4.58164 23.1963 5.2441 22.8498 6.30405V6.30914Z" fill="#FCFCFC"/>
<path d="M31.4722 16.7918C30.8505 16.7001 29.0058 17.1434 29.3217 15.6503C29.495 14.8401 29.0873 13.2654 30.8709 13.2349C32.4863 13.2094 33.6787 14.1674 33.6227 15.2528C33.5717 16.2771 32.8481 16.8224 31.4671 16.7918H31.4722Z" fill="#6A83B4"/>
<path d="M23.2134 48.9986C23.237 48.4558 23.4966 48.1962 23.9922 48.2434C28.9482 48.5738 33.9278 48.5738 38.8838 48.2434C39.3794 48.2198 39.6154 48.4794 39.6626 48.9986C39.6862 49.5178 39.4503 49.7774 38.9547 49.801C33.9514 50.1314 28.9482 50.1314 23.945 49.801C23.4494 49.7774 23.2134 49.4942 23.237 48.9986H23.2134ZM25.3374 52.9634C25.243 52.279 25.4318 51.8542 25.951 51.689C26.6354 51.5002 27.013 51.7362 27.1074 52.397L27.367 54.6154C27.4378 55.2998 27.7918 55.6538 28.4054 55.6774C31.7094 55.7718 34.4942 55.7718 36.7362 55.6774C37.3026 55.6538 37.5622 55.8662 37.5622 56.3382C37.5622 56.9282 37.279 57.2114 36.7362 57.2586C33.5502 57.4002 30.5058 57.4002 27.5794 57.2586C26.4466 57.2114 25.833 56.645 25.6914 55.6066L25.3846 52.987L25.3374 52.9634ZM25.3374 40.1722C25.3138 39.6058 25.6206 39.299 26.2578 39.2754C26.8478 39.2754 27.131 39.535 27.1546 40.0542L27.2018 43.2638C27.2018 43.9482 27.5086 44.3258 28.0986 44.3966C30.3406 44.6562 33.267 44.5854 36.8778 44.2078C37.397 44.1606 37.7038 44.3494 37.7982 44.8214C37.8926 45.3406 37.6802 45.6474 37.1846 45.7182C33.385 46.2138 30.081 46.3082 27.2962 45.9778C26.0926 45.8362 25.479 45.2462 25.4554 44.2314L25.361 40.1722H25.3374ZM45.5391 50.9102C45.5627 50.391 45.8223 50.1314 46.3179 50.1786C51.2739 50.509 56.2535 50.509 61.2095 50.1786C61.7051 50.155 61.9411 50.391 61.9883 50.9102C62.0119 51.4294 61.7759 51.689 61.2803 51.7126C59.0855 51.8778 56.8907 51.9486 54.6959 51.9722V55.6774C54.6959 56.3618 54.3891 56.7159 53.7755 56.7159C53.1619 56.7159 52.8551 56.3618 52.8551 55.6774V51.9722C50.6603 51.9722 48.4419 51.8778 46.2471 51.7126C45.7515 51.689 45.5155 51.4058 45.5391 50.9102ZM47.5923 46.4026C51.0851 45.7418 52.8315 43.8774 52.8315 40.7622C52.8315 40.0778 53.1383 39.7238 53.7755 39.7238C54.4127 39.7238 54.6723 40.0542 54.6723 40.6914C54.6723 41.4938 54.5779 42.2254 54.3891 42.9098C56.8435 43.5234 58.7315 44.7742 60.0295 46.6858C60.3599 47.1578 60.3127 47.5354 59.8879 47.8422C59.3923 48.149 59.0383 48.1018 58.7551 47.7006C57.6223 46.025 55.9467 44.9394 53.7519 44.4438C52.6899 46.2846 50.7311 47.4646 47.8283 48.0074C47.3091 48.1018 47.0259 47.8658 46.9315 47.323C46.8371 46.8038 47.0731 46.497 47.5923 46.379V46.4026ZM64.0179 52.3262C66.7555 50.6506 68.1243 47.0634 68.1243 41.5882C68.1243 40.9038 68.4311 40.5498 69.0683 40.5498C69.7055 40.5498 69.9652 40.8802 69.9652 41.541C69.9652 43.6178 69.7763 45.4822 69.4223 47.087C71.4284 48.3378 72.7736 50.3674 73.5052 53.1523C73.6468 53.6715 73.4344 54.0254 72.8916 54.167C72.3488 54.3322 72.0184 54.1434 71.8768 53.6242C71.3104 51.571 70.3191 49.9898 68.9031 48.9042C68.0771 51.1226 66.7791 52.751 65.0563 53.7894C64.5135 54.1198 64.0887 54.049 63.7347 53.5062C63.4279 53.0106 63.5223 52.6094 64.0179 52.3262ZM76.2664 54.5682C76.644 49.7774 76.644 44.963 76.2664 40.1722C76.2192 39.6294 76.5024 39.3462 77.0924 39.299C77.6824 39.2518 78.0128 39.5114 78.06 40.0306C78.2252 42.2018 78.3196 44.3966 78.3432 46.5442H81.01C81.6 46.5442 81.9068 46.8038 81.9068 47.323C81.9068 47.8422 81.6 48.1018 81.01 48.1018H78.3432C78.3196 50.3202 78.2252 52.515 78.06 54.6862C78.0128 55.229 77.706 55.465 77.0924 55.4178C76.5024 55.3706 76.2192 55.0875 76.2664 54.5446V54.5682ZM98.0256 51.7362C96.6804 51.8306 95.3352 51.8779 93.99 51.9015V54.521C93.99 55.1582 93.6832 55.465 93.0696 55.465C92.456 55.465 92.1492 55.1346 92.1492 54.521V51.9015C90.7804 51.9015 89.4352 51.8306 88.1136 51.7362C87.618 51.7126 87.382 51.4294 87.4056 50.9338C87.4292 50.4146 87.6888 50.155 88.1844 50.2022C91.4412 50.4382 94.6981 50.4382 97.9785 50.2022C98.4741 50.1786 98.7337 50.4146 98.7573 50.9338C98.7809 51.453 98.5449 51.7126 98.0493 51.7362H98.0256ZM96.0196 39.9126C96.6804 39.9126 96.9873 40.1722 96.9873 40.6678C96.9873 41.2106 96.6568 41.4702 95.9724 41.4702H90.2612C89.86 41.4702 89.6712 41.7534 89.7184 42.3198L89.8364 45.0102C89.86 45.6946 90.214 46.0722 90.8984 46.143C93.0696 46.3082 94.9104 46.2374 96.4444 45.9542C96.9636 45.8598 97.2468 46.0486 97.3412 46.5678C97.4356 47.0634 97.1996 47.3702 96.704 47.4646C94.7924 47.8422 92.5976 47.913 90.096 47.7242C88.798 47.6298 88.1136 47.0398 88.0664 45.9778L87.8304 41.187C87.7832 40.3374 88.2552 39.9126 89.2228 39.9126H95.996H96.0196ZM100.456 54.5682C100.834 49.7774 100.834 44.963 100.456 40.1722C100.409 39.6294 100.692 39.3462 101.282 39.299C101.872 39.2518 102.203 39.5114 102.226 40.0306C102.604 44.9158 102.604 49.801 102.226 54.7098C102.203 55.2526 101.896 55.4887 101.282 55.4415C100.692 55.3943 100.409 55.111 100.456 54.5682ZM108.858 54.4266C106.002 54.5446 104.563 52.2318 104.563 47.5354C104.563 42.839 106.002 40.4554 108.858 40.3374C111.596 40.2194 113.012 42.3198 113.13 46.5914H115.655C115.631 44.609 115.537 42.603 115.372 40.597C115.325 40.0542 115.608 39.771 116.198 39.7238C116.788 39.6766 117.118 39.9126 117.165 40.4554C117.543 45.081 117.543 49.7066 117.165 54.3323C117.118 54.8751 116.811 55.1111 116.198 55.0639C115.608 55.0167 115.325 54.7334 115.372 54.1906C115.537 52.1846 115.631 50.1786 115.655 48.1726H113.13C112.941 52.2554 111.501 54.3322 108.858 54.4266ZM108.858 41.8714C107.23 41.9186 106.404 43.783 106.404 47.4646C106.404 51.1462 107.23 52.9634 108.858 52.8926C110.486 52.8218 111.312 50.9338 111.312 47.2522C111.312 43.5706 110.486 41.8006 108.858 41.8714ZM119.242 54.5682C119.62 49.7774 119.62 44.963 119.242 40.1722C119.195 39.6294 119.478 39.3462 120.068 39.299C120.658 39.2518 120.989 39.5114 121.012 40.0306C121.39 44.9158 121.39 49.801 121.012 54.7098C120.989 55.2526 120.682 55.4887 120.068 55.4415C119.478 55.3943 119.195 55.111 119.242 54.5682ZM0.459152 74.6808C3.19676 73.0052 4.56557 69.418 4.56557 63.9428C4.56557 63.2584 4.87236 62.9044 5.50957 62.9044C6.14677 62.9044 6.40639 63.2348 6.40639 63.8956C6.40639 65.9724 6.21754 67.8368 5.86354 69.4416C7.86955 70.6924 9.21479 72.7221 9.94639 75.5069C10.088 76.0261 9.87556 76.3801 9.33276 76.5217C8.78996 76.6869 8.45958 76.4981 8.31798 75.9789C7.75158 73.9257 6.76038 72.3444 5.34438 71.2588C4.51837 73.4773 3.22036 75.1056 1.49756 76.144C0.954756 76.4744 0.529965 76.4037 0.175964 75.8609C-0.130837 75.3653 -0.0364501 74.964 0.459152 74.6808ZM12.7076 76.9229C13.0852 72.132 13.0852 67.3176 12.7076 62.5268C12.6604 61.984 12.9436 61.7008 13.5336 61.6536C14.1236 61.6064 14.454 61.866 14.5012 62.3852C14.6664 64.5564 14.7608 66.7512 14.7844 68.8988H17.4512C18.0412 68.8988 18.348 69.1584 18.348 69.6776C18.348 70.1968 18.0412 70.4564 17.4512 70.4564H14.7844C14.7608 72.6749 14.6664 74.8696 14.5012 77.0409C14.454 77.5837 14.1472 77.8197 13.5336 77.7725C12.9436 77.7253 12.6604 77.4421 12.7076 76.8993V76.9229ZM23.2096 67.7188C21.3216 67.2468 20.3776 66.3028 20.3776 64.8868C20.3776 62.7156 22.5724 61.5828 26.9856 61.5356C31.3753 61.4648 33.5701 62.5032 33.5701 64.6744C33.5701 66.114 32.6261 67.1052 30.7145 67.6008C30.7145 67.6952 30.7145 67.766 30.7145 67.8368V70.0552C31.9417 70.008 33.1689 69.9608 34.3961 69.8664C34.8917 69.8428 35.1277 70.0788 35.1749 70.598C35.1985 71.1172 34.9625 71.3768 34.4669 71.4004C29.4637 71.7308 24.4604 71.7308 19.4572 71.4004C18.9616 71.3768 18.7256 71.0936 18.7492 70.598C18.7728 70.0788 19.0324 69.8192 19.528 69.8664C20.7552 69.9608 21.9824 70.008 23.2096 70.0552V67.7188ZM33.5701 76.4744C33.5701 78.6928 31.3753 79.8257 26.9856 79.8965C22.596 79.9673 20.3776 78.9053 20.3776 76.6869C20.3776 74.4685 22.5724 73.312 26.9856 73.2412C31.3753 73.1704 33.5701 74.256 33.5701 76.4744ZM26.9856 66.5388C30.1481 66.468 31.7292 65.8544 31.7292 64.698C31.7292 63.5416 30.1481 62.9988 26.9856 63.0696C23.7996 63.1404 22.2184 63.754 22.2184 64.9104C22.2184 66.0668 23.7996 66.6096 26.9856 66.5388ZM26.9856 78.3389C30.1481 78.2681 31.7292 77.6545 31.7292 76.4981C31.7292 75.3417 30.1481 74.7989 26.9856 74.8697C23.7996 74.9169 22.2184 75.5541 22.2184 76.7105C22.2184 77.8669 23.7996 78.4097 26.9856 78.3389ZM28.8972 67.9312C28.3072 67.9784 27.67 68.0256 26.9856 68.0256C26.2776 68.0256 25.6404 68.0256 25.0504 67.9548V70.0788C26.3484 70.1024 27.6228 70.1024 28.8972 70.0788V67.9076V67.9312ZM45.4645 62.6684C46.1253 62.6684 46.4321 62.928 46.4321 63.4236C46.4321 63.9664 46.1017 64.2496 45.4173 64.2496H39.7061C39.3049 64.2496 39.1161 64.5328 39.1633 65.0992L39.3521 68.828C39.3757 69.5124 39.7297 69.89 40.3905 69.9608C42.5617 70.126 44.4025 70.0552 45.9129 69.772C46.4321 69.6776 46.7153 69.89 46.8097 70.4092C46.9041 70.9048 46.6681 71.2117 46.1725 71.3061C45.2521 71.4713 44.2609 71.5893 43.2225 71.6365V75.6012C44.6621 75.6012 46.0545 75.5305 47.3997 75.4597C47.8953 75.4361 48.1549 75.672 48.1785 76.2148C48.2021 76.734 47.9661 76.9937 47.4705 77.0173C44.3081 77.2061 41.0041 77.2061 37.5585 77.0173C37.0629 76.9937 36.8269 76.7104 36.8505 76.2148C36.8741 75.6956 37.1337 75.4361 37.6293 75.4597C38.8801 75.5305 40.1545 75.5777 41.4053 75.5777V71.6365C40.8389 71.6365 40.2489 71.5892 39.6589 71.542C38.3609 71.4476 37.6765 70.8576 37.6293 69.7956L37.3461 63.9664C37.2989 63.0932 37.7709 62.6684 38.7385 62.6684H45.5117H45.4645ZM49.9013 76.9229C50.2789 72.132 50.2789 67.3176 49.9013 62.5268C49.8541 61.984 50.1373 61.7008 50.7273 61.6536C51.3173 61.6064 51.6477 61.866 51.6713 62.3852C52.0489 67.2704 52.0489 72.1556 51.6713 77.0644C51.6477 77.6072 51.3409 77.8433 50.7273 77.7961C50.1373 77.7489 49.8541 77.4657 49.9013 76.9229ZM56.7217 71.3061C55.2349 71.3061 54.4797 70.5508 54.4561 69.0404L54.3617 63.6124C54.3381 62.7864 54.8101 62.3852 55.825 62.3852H62.0554C63.0466 62.3852 63.5421 62.7864 63.5421 63.6124V63.9664H67.0586C67.035 63.4944 67.0114 63.0224 66.9878 62.5268C66.9406 61.984 67.2237 61.7008 67.8138 61.6536C68.4038 61.6064 68.7342 61.866 68.7578 62.3852C69.0646 66.1612 69.0646 69.9608 68.7578 73.7604C68.7342 74.3033 68.4274 74.5392 67.8138 74.492C67.2237 74.4448 66.9406 74.1617 66.9878 73.6189C67.0822 72.3208 67.1294 70.9992 67.1766 69.6776H63.3533C63.1173 70.7632 62.3858 71.2824 61.1586 71.2824H56.7689L56.7217 71.3061ZM56.8397 63.9428C56.4149 63.9428 56.2026 64.226 56.2262 64.7688L56.3205 68.6392C56.3205 69.3472 56.6273 69.7012 57.2173 69.7012H60.6866C61.2766 69.7012 61.5834 69.3472 61.607 68.6392L61.7013 64.7688C61.7013 64.226 61.489 63.9428 61.0642 63.9428H56.8869H56.8397ZM57.1937 74.9169C57.0993 74.2325 57.3117 73.8076 57.8073 73.6424C58.4917 73.43 58.8693 73.6425 58.9637 74.3269L59.2705 76.9701C59.3413 77.6545 59.6953 78.0085 60.3089 78.0321C62.8814 78.1501 65.4538 78.1501 67.979 78.0321C68.5218 78.0085 68.7814 78.2209 68.7814 78.6929C68.7814 79.2829 68.5218 79.5661 67.979 79.6133C65.4066 79.7785 62.5746 79.7785 59.4594 79.6133C58.3265 79.5661 57.7129 78.9997 57.5713 77.9613L57.1701 74.9405L57.1937 74.9169ZM63.4714 65.5476L63.4242 68.12H67.153C67.153 67.2704 67.153 66.4208 67.1058 65.5476H63.4714ZM76.2627 63.164C76.2627 62.6448 76.5695 62.3852 77.2067 62.3852H84.7115C85.3251 62.3852 85.6556 62.6448 85.6556 63.164V64.3204C85.6556 68.7336 82.7999 70.9756 77.0887 71.0936C76.5695 71.0936 76.2863 70.8576 76.2863 70.3384C76.2627 69.8192 76.4987 69.5361 77.0415 69.5361C81.5727 69.4417 83.8383 67.7188 83.8383 64.3676V63.9664H77.2303C76.6167 63.9664 76.2863 63.7068 76.2863 63.1876L76.2627 63.164ZM90.9419 76.2621C90.9419 78.6221 88.9123 79.8257 84.8531 79.8965C80.7939 79.9673 78.7643 78.8345 78.7643 76.4744C78.7643 74.1144 80.7939 72.9108 84.8531 72.84C88.9123 72.7692 90.9419 73.902 90.9419 76.2621ZM84.8531 78.3389C87.7087 78.2681 89.1247 77.5836 89.1247 76.2856C89.1247 74.9876 87.7087 74.374 84.8531 74.4448C81.9975 74.5156 80.5815 75.2001 80.5815 76.4981C80.5815 77.7961 81.9975 78.4097 84.8531 78.3389ZM89.1247 62.692C89.0775 62.0312 89.3372 61.7008 89.9272 61.6536C90.5172 61.6064 90.8475 61.866 90.8711 62.3852C91.0835 65.1936 91.0835 68.0256 90.8711 70.834C90.8475 71.3768 90.5408 71.6128 89.9272 71.5656C89.3372 71.5184 89.0539 71.1881 89.1247 70.5273L89.1956 69.3H87.3547C86.7647 69.3 86.4579 69.0404 86.4579 68.5212C86.4579 68.002 86.7647 67.7424 87.3547 67.7424H89.2664C89.2664 67.0108 89.2664 66.2792 89.2664 65.524H87.3547C86.7647 65.524 86.4579 65.2644 86.4579 64.7452C86.4579 64.226 86.7647 63.9664 87.3547 63.9664H89.1956L89.1247 62.7156V62.692ZM93.5851 69.0404C96.2756 67.6716 97.6208 65.6892 97.6208 63.0696C97.6208 62.3852 97.9276 62.0548 98.5648 62.0548C99.202 62.0548 99.4616 62.3852 99.4616 63.0224C99.4616 63.9664 99.3436 64.8396 99.084 65.6656C101.184 66.4916 102.482 67.9076 103.002 69.9608C103.143 70.48 102.931 70.834 102.364 70.9756C101.798 71.1408 101.444 70.9757 101.302 70.4565C100.854 68.8988 99.8864 67.8368 98.3996 67.2468C97.5736 68.6392 96.252 69.772 94.4584 70.598C93.892 70.8576 93.4908 70.7396 93.2076 70.1968C92.948 69.7012 93.0659 69.3236 93.5851 69.0404ZM108.028 76.2621C108.028 78.6221 105.999 79.8257 101.94 79.8965C97.8804 79.9673 95.8508 78.8345 95.8508 76.4744C95.8508 74.1144 97.8804 72.9108 101.94 72.84C105.999 72.7692 108.028 73.902 108.028 76.2621ZM101.916 78.3389C104.772 78.2681 106.188 77.5836 106.188 76.2856C106.188 74.9876 104.772 74.374 101.916 74.4448C99.0604 74.5156 97.6444 75.2001 97.6444 76.4981C97.6444 77.7961 99.0604 78.4097 101.916 78.3389ZM106.306 65.6184C106.282 64.6508 106.235 63.6832 106.188 62.692C106.14 62.0312 106.4 61.7008 106.99 61.6536C107.58 61.6064 107.91 61.866 107.934 62.3852C108.146 65.1936 108.146 68.0256 107.934 70.834C107.91 71.3768 107.604 71.6128 106.99 71.5656C106.4 71.5184 106.117 71.1881 106.188 70.5273C106.258 69.418 106.306 68.3088 106.306 67.1996H103.662C103.072 67.1996 102.766 66.94 102.766 66.4208C102.766 65.9016 103.072 65.642 103.662 65.642H106.306V65.6184ZM109.775 76.1913C109.798 75.6721 110.058 75.4125 110.554 75.4361C115.51 75.7665 120.489 75.7665 125.445 75.4361C125.941 75.4125 126.177 75.6485 126.224 76.1913C126.248 76.7105 126.012 76.9701 125.516 76.9937C120.513 77.3241 115.51 77.3241 110.506 76.9937C110.011 76.9701 109.775 76.6869 109.798 76.1913H109.775ZM124.572 66.9636C124.572 70.1024 122.377 71.7073 117.988 71.7781C113.598 71.8489 111.38 70.3149 111.38 67.176C111.38 64.0372 113.574 62.456 117.988 62.3852C122.377 62.3144 124.572 63.8484 124.572 66.9636ZM117.988 70.2676C121.15 70.1968 122.731 69.0876 122.731 66.9636C122.731 64.8396 121.15 63.8248 117.988 63.872C114.802 63.9428 113.22 65.0284 113.22 67.1524C113.22 69.2764 114.802 70.3148 117.988 70.244V70.2676ZM131.345 68.3324V70.2204C131.345 70.6216 131.51 70.834 131.794 70.834H140.691C141.375 70.834 141.706 71.0936 141.706 71.5892C141.706 72.1321 141.375 72.3916 140.738 72.3916H136.585V75.6721C138.756 75.6721 140.927 75.5776 143.098 75.4124C143.594 75.3888 143.83 75.6249 143.877 76.1677C143.901 76.6869 143.665 76.9465 143.169 76.9701C138.166 77.3005 133.163 77.3005 128.159 76.9701C127.664 76.9465 127.428 76.6633 127.451 76.1677C127.475 75.6485 127.734 75.3888 128.23 75.4124C130.401 75.5776 132.573 75.6485 134.767 75.6721V72.3916H131.157C130.118 72.3916 129.599 71.9196 129.599 70.952L129.528 68.0728C129.504 67.1996 129.976 66.7512 130.944 66.7512H139.629C139.912 66.7512 140.054 66.5388 140.054 66.114L140.101 64.2732H130.449C129.764 64.2732 129.434 64.0136 129.434 63.4944C129.434 62.9752 129.693 62.692 130.236 62.692H140.526C141.47 62.692 141.942 63.1404 141.918 64.0372L141.871 66.8928C141.847 67.8604 141.305 68.3324 140.243 68.3324H131.392H131.345ZM2.29985 89.2049H7.77504L7.82225 87.6001C7.82225 87.0573 8.15265 86.7741 8.76625 86.7741C9.37985 86.7741 9.63945 87.0573 9.63945 87.6001L9.54503 92.6033C9.49783 94.1137 8.74265 94.8453 7.25584 94.8453H2.81905C1.33224 94.8453 0.57702 94.0901 0.55342 92.6033L0.459029 87.6001C0.459029 87.0573 0.765827 86.7741 1.40303 86.7741C1.96943 86.7741 2.27625 87.0573 2.29985 87.6001V89.2049ZM2.22905 97.2053C2.22905 96.6861 2.53582 96.4501 3.17302 96.4501H13.1323C14.2415 96.4501 14.7371 96.9221 14.6427 97.8189L14.4303 99.8485C14.3123 100.793 13.7459 101.265 12.7783 101.265H4.49461L4.75423 103.011H12.9671C13.6279 103.011 13.9346 103.271 13.9346 103.766C13.9346 104.262 13.6279 104.521 12.9907 104.521H4.49461C3.57421 104.521 3.03144 104.049 2.91344 103.129L2.65382 101.099C2.53582 100.203 3.03143 99.7305 4.16423 99.7305H12.5658L12.7311 97.9841H3.14943C2.48863 97.9841 2.18184 97.7245 2.18184 97.2053H2.22905ZM7.75145 90.8097H2.347L2.39421 92.3909C2.39421 93.1225 2.70103 93.4765 3.29103 93.4765H6.80742C7.39742 93.4765 7.70423 93.1225 7.72783 92.3909L7.77504 90.8097H7.75145ZM12.6603 94.3025C12.8727 91.9897 12.8727 89.6769 12.6603 87.3641C12.6131 86.8213 12.8962 86.5381 13.4863 86.4909C14.0763 86.4437 14.4067 86.7033 14.4539 87.2225C14.5483 88.2373 14.5955 89.2285 14.6191 90.2433H17.4039C17.9939 90.2433 18.3007 90.5029 18.3007 91.0221C18.3007 91.5413 17.9939 91.8009 17.4039 91.8009H14.5954C14.5954 92.6741 14.5247 93.5473 14.4539 94.4205C14.4067 94.9633 14.0999 95.2229 13.4863 95.1757C12.8962 95.1285 12.6131 94.8453 12.6603 94.3025ZM18.7255 95.3409C18.7491 94.8217 19.0087 94.5621 19.5043 94.5857C24.4603 94.9161 29.4399 94.9161 34.3959 94.5857C34.8915 94.5621 35.1275 94.7981 35.1747 95.3409C35.1983 95.8601 34.9623 96.1433 34.4667 96.1669C29.4635 96.4973 24.4603 96.4973 19.4571 96.1669C18.9615 96.1433 18.7255 95.8601 18.7491 95.3409H18.7255ZM33.5227 89.5353C33.5227 91.7065 31.328 92.8157 26.9383 92.8865C22.5487 92.9573 20.3303 91.9189 20.3303 89.7477C20.3303 87.5765 22.5251 86.4437 26.9383 86.3965C31.328 86.3257 33.5227 87.3641 33.5227 89.5353ZM23.5635 104.521C21.9823 104.521 21.0855 103.766 20.8967 102.256L20.5899 99.9429C20.4483 98.8573 21.0383 98.3145 22.4307 98.3145H31.4459C32.8147 98.3145 33.4283 98.8573 33.2867 99.9429L33.0035 102.256C32.7911 103.766 31.8943 104.521 30.3131 104.521H23.5871H23.5635ZM26.9383 91.3761C30.1007 91.3053 31.6819 90.6917 31.6819 89.5353C31.6819 88.3789 30.1007 87.8361 26.9383 87.9069C23.7523 87.9777 22.1711 88.5913 22.1711 89.7477C22.1711 90.9041 23.7523 91.4469 26.9383 91.3761ZM23.1151 99.8721C22.6667 99.8721 22.4543 100.155 22.5251 100.722L22.6431 101.902C22.7375 102.61 23.0207 102.964 23.5399 102.964H30.3131C30.8323 102.964 31.1155 102.61 31.2099 101.902L31.3279 100.722C31.3987 100.155 31.2099 99.8721 30.7379 99.8721H23.0915H23.1151ZM36.8504 90.3849C36.8504 89.8657 37.1572 89.6061 37.7708 89.6061H40.3904V87.4113C40.3904 86.7977 40.6972 86.4673 41.3108 86.4673C41.9244 86.4673 42.2312 86.7741 42.2312 87.4113V89.6061H44.8508C45.4644 89.6061 45.7948 89.8657 45.7948 90.3849C45.7948 90.9041 45.488 91.1637 44.8508 91.1637H37.7708C37.1572 91.1637 36.8504 90.9041 36.8504 90.3849ZM41.3108 101.619C38.7384 101.737 37.4404 100.321 37.4404 97.4177C37.4404 94.5149 38.7384 93.0281 41.3108 92.9101C43.8832 92.7921 45.1812 94.1845 45.1812 97.0873C45.1812 99.9901 43.8832 101.501 41.3108 101.619ZM41.3108 94.4441C39.9656 94.5385 39.2811 95.5061 39.2811 97.3705C39.2811 99.2349 39.9656 100.179 41.3344 100.085C42.6796 99.9901 43.364 98.9989 43.364 97.1109C43.364 95.2229 42.6796 94.3733 41.3108 94.4441ZM51.86 93.7597C51.8364 91.6357 51.742 89.5117 51.6004 87.3641C51.5532 86.8213 51.8364 86.5381 52.4264 86.4909C53.0164 86.4437 53.3468 86.7033 53.3704 87.2225C53.748 92.1077 53.748 96.9929 53.3704 101.902C53.3468 102.445 53.04 102.681 52.4264 102.633C51.8364 102.586 51.5532 102.303 51.6004 101.76C51.742 99.6125 51.8364 97.4885 51.86 95.3173H49.5708C49.5472 97.3941 49.4528 99.4473 49.2876 101.501C49.2404 102.043 48.9336 102.279 48.32 102.232C47.73 102.185 47.4468 101.902 47.494 101.359C47.8716 96.8277 47.8716 92.2965 47.494 87.7889C47.4468 87.2461 47.73 86.9629 48.32 86.9157C48.91 86.8685 49.2404 87.1045 49.2876 87.6473C49.4528 89.7005 49.5472 91.7301 49.5708 93.7597H51.86ZM59.7424 96.4265C59.7424 96.4265 59.7424 96.2141 59.7424 96.1197C57.8308 95.4589 56.8868 94.0901 56.8868 91.9897C56.8868 88.8509 59.0816 87.2697 63.4948 87.1989C67.8844 87.1281 70.0793 88.6621 70.0793 91.7773C70.0793 93.8541 69.1117 95.2701 67.2001 96.0017C67.2237 96.1197 67.2472 96.2613 67.2472 96.4029V100.439C68.4744 100.391 69.7017 100.344 70.9289 100.25C71.4245 100.226 71.6604 100.462 71.7076 101.005C71.7312 101.524 71.4953 101.784 70.9997 101.807C65.9965 102.138 60.9932 102.138 55.99 101.807C55.4944 101.784 55.2584 101.501 55.282 101.005C55.3056 100.486 55.5652 100.226 56.0608 100.25C57.288 100.344 58.5152 100.391 59.7424 100.439V96.4029V96.4265ZM63.5184 95.1049C66.6809 95.0341 68.262 93.9249 68.262 91.8009C68.262 89.6769 66.6809 88.6621 63.5184 88.7093C60.3324 88.7801 58.7512 89.8657 58.7512 91.9897C58.7512 94.1137 60.3324 95.1521 63.5184 95.0813V95.1049ZM65.43 96.4737C64.84 96.5681 64.2028 96.6153 63.5184 96.6153C62.8104 96.6153 62.1732 96.6153 61.5832 96.5209V100.486C62.8812 100.509 64.1556 100.509 65.43 100.486V96.4501V96.4737ZM73.1473 101.453C73.1473 100.745 73.5249 100.391 74.2801 100.391C75.0353 100.391 75.3893 100.745 75.3893 101.453V101.619C75.3893 102.303 75.0117 102.657 74.2801 102.657C73.5485 102.657 73.1473 102.303 73.1473 101.619V101.453Z" fill="#231815"/>
</svg>
