<svg width="803" height="62" viewBox="0 0 803 62" fill="none" xmlns="http://www.w3.org/2000/svg">
<path d="M2 57.7344L50.3524 57L97.1859 59.1714L123.548 57.916L136.392 58.1208L149.37 60L176 58.7521" stroke="#EE9D67" stroke-width="3" stroke-linecap="round"/>
<path d="M196 57.7344L244.352 57L291.186 59.1714L317.548 57.916L330.392 58.1208L343.37 60L370 58.7521" stroke="#EE9D67" stroke-width="3" stroke-linecap="round"/>
<path d="M390 57.7344L438.352 57L485.186 59.1714L511.548 57.916L524.392 58.1208L537.37 60L564 58.7521" stroke="#EE9D67" stroke-width="3" stroke-linecap="round"/>
<path d="M584 57.7344L632.352 57L679.186 59.1714L705.548 57.916L718.392 58.1208L731.37 60L758 58.7521" stroke="#EE9D67" stroke-width="3" stroke-linecap="round"/>
<path d="M770.76 32.16C771.933 32.16 772.987 32.4533 773.92 33.04C774.853 33.6 775.6 34.3467 776.16 35.28C776.72 36.2133 777 37.2667 777 38.44C777 39.5867 776.72 40.64 776.16 41.6C775.6 42.5333 774.853 43.28 773.92 43.84C772.987 44.4 771.933 44.68 770.76 44.68C769.613 44.68 768.56 44.4 767.6 43.84C766.667 43.28 765.907 42.5333 765.32 41.6C764.76 40.64 764.48 39.5867 764.48 38.44C764.48 37.2667 764.76 36.2133 765.32 35.28C765.907 34.3467 766.667 33.6 767.6 33.04C768.56 32.4533 769.613 32.16 770.76 32.16ZM770.76 42.28C771.827 42.28 772.733 41.9067 773.48 41.16C774.227 40.4133 774.6 39.5067 774.6 38.44C774.6 37.72 774.427 37.08 774.08 36.52C773.76 35.9333 773.307 35.4667 772.72 35.12C772.133 34.7733 771.48 34.6 770.76 34.6C770.067 34.6 769.427 34.7733 768.84 35.12C768.253 35.4667 767.787 35.9333 767.44 36.52C767.093 37.08 766.92 37.72 766.92 38.44C766.92 39.1333 767.093 39.7867 767.44 40.4C767.787 40.9867 768.253 41.4533 768.84 41.8C769.427 42.12 770.067 42.28 770.76 42.28Z" fill="#1E1E1E"/>
</svg>
