<svg width="71" height="44" viewBox="0 0 71 44" fill="none" xmlns="http://www.w3.org/2000/svg">
<path d="M57.891 7.56338C61.0551 2.96485 65.517 0 70.5535 0V2.04651C66.3192 2.04651 62.3979 4.53562 59.4964 8.75243C56.5962 12.9675 54.7733 18.8424 54.7733 25.3767C54.7733 25.9419 54.3317 26.4 53.787 26.4C53.2423 26.4 52.8008 25.9419 52.8008 25.3767C52.8008 18.4656 54.7257 12.1637 57.891 7.56338Z" fill="#D9D9D9"/>
<path fill-rule="evenodd" clip-rule="evenodd" d="M16.8236 22.8828C17.3669 22.8828 17.8073 23.3401 17.8073 23.9041C17.8073 33.8796 25.591 41.9603 35.1998 41.9603C44.8087 41.9603 52.5924 33.8796 52.5924 23.9041C52.5924 23.3401 53.0328 22.8828 53.5761 22.8828C54.1194 22.8828 54.5598 23.3401 54.5598 23.9041C54.5598 35.0077 45.8953 44.0028 35.1998 44.0028C24.5043 44.0028 15.8398 35.0077 15.8398 23.9041C15.8398 23.3401 16.2803 22.8828 16.8236 22.8828Z" fill="#BB97C5"/>
<path d="M15.84 40.4571C24.5916 40.4571 31.68 33.3731 31.68 24.627C31.68 15.8808 24.5916 8.79688 15.84 8.79688C7.0884 8.79688 0 15.9006 0 24.6468C0 33.3929 7.0884 40.4769 15.84 40.4769" fill="#BB97C5"/>
<path d="M35.1994 40.4769C43.951 40.4769 51.0394 33.3885 51.0394 24.6369C51.0394 15.8853 43.951 8.79688 35.1994 8.79688C26.4478 8.79688 19.3594 15.8853 19.3594 24.6369C19.3594 33.3885 26.4478 40.4769 35.1994 40.4769Z" fill="#BB97C5"/>
<path d="M6.472 25.416C7.216 25.416 8.2 25.464 9.28 25.488C9.304 25.2 9.304 24.912 9.304 24.6C9.136 24.552 8.944 24.48 8.776 24.408C7.168 23.76 5.896 22.824 5.896 20.904C5.896 20.352 5.968 19.872 6.136 19.44H6.088C5.32 19.44 4.672 18.864 4.672 18.144C4.672 17.448 5.32 16.872 6.088 16.872H9.256V16.08C9.256 15.48 9.88 14.976 10.648 14.976C11.416 14.976 12.064 15.48 12.064 16.08V16.872H15.376C16.168 16.872 16.816 17.448 16.816 18.144C16.816 18.864 16.168 19.44 15.376 19.44H15.352C15.496 19.872 15.592 20.352 15.592 20.904C15.592 22.248 14.968 23.088 13.864 23.88C13.432 24.192 12.976 24.432 12.496 24.6V24.624C12.472 24.96 12.472 25.248 12.448 25.536C13.216 25.512 13.264 25.464 14.728 25.512C15.328 25.512 15.904 25.464 16.456 25.704C16.864 25.896 17.128 26.256 17.128 26.76C17.128 27.168 16.96 27.552 16.696 27.84C16.24 28.32 15.52 28.296 14.944 28.248H6.472C6.424 28.248 5.416 28.272 5.032 27.72C4.84 27.528 4.744 27.216 4.744 26.88C4.744 26.544 4.864 26.304 5.032 26.088C5.392 25.68 6.064 25.464 6.472 25.416ZM15.688 32.496H7.288V32.472C7.24 32.472 6.28 32.256 6.184 31.584C6.112 30.984 6.184 30.504 6.472 30.144C6.856 29.688 7.432 29.688 7.456 29.688L19.696 29.664C21.016 29.664 21.592 30.168 21.64 31.32V33.816C21.664 34.152 21.664 34.536 21.64 34.872C21.568 35.544 21.064 36 20.344 36C20.176 36 19.672 35.976 19.504 35.928C18.64 35.664 18.592 34.872 18.544 34.152C18.52 33.864 18.52 32.76 18.448 32.52C18.352 32.496 16.864 32.52 15.688 32.496ZM18.688 26.256V19.296C18.664 18.576 18.688 17.4 19.096 16.992C19.456 16.68 19.816 16.632 20.248 16.632C20.776 16.632 21.256 16.968 21.448 17.448C21.712 18.12 21.688 18.84 21.712 19.536C21.712 20.616 21.736 21.552 21.736 22.488C22.384 22.488 22.96 22.512 23.32 22.536C24.16 22.584 24.736 23.856 24.232 24.504C23.8 25.104 22.768 25.224 21.76 25.224V25.992C21.76 26.664 21.64 26.952 21.52 27.312C21.496 27.408 21.448 27.504 21.4 27.624C21.304 27.816 21.16 28.008 20.968 28.128C20.632 28.344 20.2 28.392 19.792 28.32C19.6 28.272 19.384 28.176 19.216 28.032C18.664 27.504 18.688 26.304 18.688 26.256ZM11.176 22.2C12.088 22.032 12.712 22.008 12.712 20.904C12.712 19.872 12.04 19.536 11.248 19.44H10C9.304 19.536 8.752 19.896 8.752 20.904C8.752 22.464 9.976 22.416 11.176 22.2ZM35.2319 17.136C36.2399 17.712 36.9119 18.432 37.3199 19.296C37.7279 20.16 37.8479 21.216 37.7759 22.512C37.5839 25.368 35.4959 27.192 32.7839 27.192C32.3039 27.192 31.8959 27.192 31.5599 27.192C31.2479 27.192 30.9119 27.192 30.5759 27.12C30.2399 27.12 29.9039 26.976 29.5679 26.928C29.2319 26.784 28.8959 26.592 28.4639 26.328C27.7439 25.848 27.2159 25.176 26.9279 24.384C26.6879 23.64 26.5439 22.776 26.5439 21.984C26.5439 21.12 26.6879 20.304 27.0239 19.584C27.2639 18.816 27.8399 18.24 28.4639 17.712C29.0399 17.232 29.6159 16.896 30.3599 16.704C31.0079 16.464 31.7759 16.416 32.4479 16.464C32.7839 16.56 33.0239 16.56 33.2399 16.56C33.5039 16.608 33.6959 16.608 33.8879 16.704C34.1039 16.752 34.3199 16.8 34.5119 16.896C34.7039 16.944 34.9679 17.088 35.2319 17.136ZM43.2479 32.88C43.7039 32.88 43.9919 33.336 44.0879 33.864C44.1359 34.488 43.9919 34.872 43.7519 35.208C43.5359 35.4 43.3199 35.544 43.1279 35.592C42.9839 35.592 42.8639 35.688 42.6479 35.688C42.1199 35.688 41.5439 35.688 40.9199 35.688C39.9119 35.688 38.9279 35.688 37.9199 35.688C36.8399 35.688 35.7839 35.688 34.6319 35.688C33.7679 35.688 32.9039 35.688 32.0159 35.688C31.6319 35.688 31.2959 35.688 30.9119 35.688C30.2399 35.688 29.7599 35.688 29.3759 35.496C29.0399 35.304 28.7999 34.872 28.7999 34.536C28.7999 34.536 28.7999 30.984 28.7999 30.864C28.7999 30.744 28.7999 30.6 28.7999 30.408C28.7999 30.264 28.7999 30.072 28.7999 29.928C28.7999 29.784 28.7999 29.664 28.7999 29.592C28.8959 29.256 29.0399 28.992 29.2799 28.8C29.6159 28.584 29.9039 28.464 30.2879 28.464C30.3599 28.464 30.8159 28.536 30.9119 28.536C31.1039 28.584 31.2959 28.656 31.4399 28.872C31.4879 28.992 31.6319 29.136 31.6799 29.328C31.7759 29.544 31.7759 29.736 31.8239 29.928C31.8239 30.192 31.8239 30.408 31.8239 30.528V30.984V31.752V32.472V32.808C31.8959 32.808 32.3039 32.808 32.3039 32.808C32.3039 32.808 32.8319 32.856 33.4319 32.856C33.9839 32.856 40.5839 32.808 41.9999 32.856C42.2159 32.856 42.4079 32.856 42.5999 32.856C42.6479 32.856 42.8879 32.88 43.2479 32.88ZM34.8959 22.776C34.8959 22.368 34.8959 22.032 34.8959 21.768C34.8479 21.432 34.7759 21.168 34.7039 20.88C34.5599 20.64 34.4399 20.352 34.2239 20.16C34.0319 19.968 33.7679 19.824 33.4319 19.68C33.0239 19.584 32.6399 19.488 32.2319 19.488C31.7759 19.488 31.3439 19.584 31.0079 19.68C30.6239 19.896 30.2879 20.112 30.0239 20.448C29.7119 20.688 29.5679 21.12 29.4239 21.648C29.4239 21.984 29.4239 22.32 29.4719 22.656C29.4719 22.968 29.6159 23.304 29.8079 23.568C30.0239 23.856 30.2879 24.048 30.5759 24.24C30.9119 24.432 31.2959 24.576 31.8239 24.648C32.1599 24.648 32.4959 24.648 32.8319 24.576C33.1679 24.576 33.4319 24.504 33.7679 24.312C34.0319 24.192 34.3199 23.976 34.5119 23.712C34.7039 23.448 34.8479 23.112 34.8959 22.776ZM43.9439 18.624V26.664C43.9439 26.976 43.8719 27.312 43.7999 27.648C43.6559 28.128 43.3199 28.464 42.7919 28.584C41.7839 28.8 41.1119 27.984 40.9919 27.048C40.9199 26.784 40.9199 26.52 40.9199 26.256C40.9199 25.992 40.9199 25.728 40.9199 25.44L40.9919 19.248C40.9919 18.336 40.7999 17.04 41.8799 16.56C42.1199 16.416 42.4559 16.416 42.7919 16.464C43.5359 16.56 43.8719 17.136 43.9439 17.808C43.9439 18.096 43.9439 18.432 43.9439 18.624Z" fill="white"/>
</svg>
