<svg width="121" height="62" viewBox="0 0 121 62" fill="none" xmlns="http://www.w3.org/2000/svg">
<ellipse cx="89" cy="28" rx="32" ry="28" fill="#6A8EC9"/>
<path fill-rule="evenodd" clip-rule="evenodd" d="M32 56C49.6731 56 64 43.464 64 28C64 12.536 49.6731 0 32 0C14.5252 0 0.321951 12.2563 0.00539772 27.4805C0.000900108 27.5193 -0.00084396 27.5589 0.000380916 27.5991C0.00100798 27.6197 0.00164783 27.6403 0.00230048 27.6609C0.000769164 27.7737 1.35395e-06 27.8868 1.35395e-06 28C1.35395e-06 29.6325 0.159677 31.2325 0.46611 32.7884C2.2294 44.1738 8.50516 50.065 14.9995 54.8232C18.7041 57.5374 22.3764 59.3244 25.1207 60.4331C26.4939 60.9879 27.6373 61.3738 28.44 61.6217C28.8414 61.7457 29.1578 61.8352 29.3753 61.8941C29.484 61.9235 29.5681 61.9453 29.6257 61.9599L29.6921 61.9765L29.71 61.9808L29.7175 61.9826C30.0264 62.0559 30.3405 61.8855 30.4739 61.5724C30.6073 61.2594 30.5244 60.8871 30.2743 60.6759C28.2882 58.9988 26.9263 57.2252 25.9991 55.5085C27.9429 55.8312 29.9489 56 32 56Z" fill="#F5B1A0"/>
<path d="M31.024 20.8242V37.5282C31.056 38.6803 31.056 40.0243 30.096 40.6643C29.776 40.8563 29.456 40.9843 29.136 40.9843C27.664 40.9843 27.472 38.6803 27.472 37.4962V29.6882H25.392V37.6883C25.456 38.6483 25.328 39.8323 24.912 40.4403C24.656 40.7923 24.272 40.9843 23.792 40.9843C23.312 40.9843 22.928 40.7283 22.576 40.4083C21.84 39.7043 21.84 38.5523 21.84 37.5922V18.6482C21.808 17.4642 21.968 16.0562 23.376 15.7042C23.824 15.6082 24.24 15.7042 24.56 16.0562C25.52 17.0162 25.392 19.2562 25.392 21.1442V25.8162H27.472V18.9362C27.472 17.7202 27.248 15.8962 29.04 15.7042C29.488 15.6722 29.872 15.8002 30.16 16.1202C31.152 17.1442 31.024 19.4162 31.024 20.8242ZM14.32 37.0162C14.32 35.0962 14.288 34.5202 14.288 24.1522C14.288 23.4482 14.32 22.7762 14.224 22.0722C14.096 21.3042 13.936 21.1762 13.168 21.1762C11.312 21.1442 10 21.1762 8.336 21.1762C6.832 21.1762 6.128 20.3442 6.128 19.0962C6.128 17.8802 6.736 17.2402 7.824 17.0162C8.688 16.7922 9.392 16.7922 10.32 16.7922H14.896C15.12 16.7922 15.344 16.8242 15.568 16.8242C16.112 16.8562 16.784 16.9522 17.296 17.1442C17.616 17.2722 18 17.4962 18.192 17.7842C18.608 18.3922 18.576 18.8403 18.64 19.5442C18.736 20.6962 18.704 21.9122 18.704 23.0962V33.3362C18.704 33.4323 18.768 36.0562 18.704 37.4322C18.576 38.9683 17.712 39.9923 16.24 39.9923C14.672 39.9923 14.32 38.2323 14.32 37.0162ZM45.3625 16.5042C46.7065 17.2722 47.6025 18.2322 48.1465 19.3842C48.6905 20.5362 48.8505 21.9442 48.7545 23.6722C48.4985 27.4802 45.7145 29.9122 42.0985 29.9122C41.4585 29.9122 40.9145 29.9122 40.4665 29.9122C40.0505 29.9122 39.6025 29.9122 39.1545 29.8162C38.7065 29.8162 38.2585 29.6242 37.8105 29.5602C37.3625 29.3682 36.9145 29.1122 36.3385 28.7602C35.3785 28.1202 34.6745 27.2242 34.2905 26.1682C33.9705 25.1762 33.7785 24.0242 33.7785 22.9682C33.7785 21.8162 33.9705 20.7282 34.4185 19.7682C34.7385 18.7442 35.5065 17.9762 36.3385 17.2722C37.1065 16.6322 37.8745 16.1842 38.8665 15.9282C39.7305 15.6082 40.7545 15.5442 41.6505 15.6082C42.0985 15.7362 42.4185 15.7362 42.7065 15.7362C43.0585 15.8002 43.3145 15.8002 43.5705 15.9282C43.8585 15.9922 44.1465 16.0562 44.4025 16.1842C44.6585 16.2482 45.0105 16.4402 45.3625 16.5042ZM56.0505 37.4962C56.6585 37.4962 57.0425 38.1043 57.1705 38.8083C57.2345 39.6403 57.0425 40.1523 56.7225 40.6003C56.4345 40.8563 56.1465 41.0483 55.8905 41.1123C55.6985 41.1123 55.5385 41.2403 55.2505 41.2403C54.5465 41.2403 53.7785 41.2403 52.9465 41.2403C51.6025 41.2403 50.2905 41.2403 48.9465 41.2403C47.5065 41.2403 46.0985 41.2403 44.5625 41.2403C43.4105 41.2403 42.2585 41.2403 41.0745 41.2403C40.5625 41.2403 40.1145 41.2403 39.6025 41.2403C38.7065 41.2403 38.0665 41.2403 37.5545 40.9843C37.1065 40.7283 36.7865 40.1523 36.7865 39.7043C36.7865 39.7043 36.7865 34.9682 36.7865 34.8082C36.7865 34.6482 36.7865 34.4562 36.7865 34.2002C36.7865 34.0082 36.7865 33.7522 36.7865 33.5602C36.7865 33.3682 36.7865 33.2082 36.7865 33.1122C36.9145 32.6642 37.1065 32.3122 37.4265 32.0562C37.8745 31.7682 38.2585 31.6082 38.7705 31.6082C38.8665 31.6082 39.4745 31.7042 39.6025 31.7042C39.8585 31.7682 40.1145 31.8642 40.3065 32.1522C40.3705 32.3122 40.5625 32.5042 40.6265 32.7602C40.7545 33.0482 40.7545 33.3042 40.8185 33.5602C40.8185 33.9122 40.8185 34.2002 40.8185 34.3602V34.9682V35.9922V36.9522V37.4002C40.9145 37.4002 41.4585 37.4002 41.4585 37.4002C41.4585 37.4002 42.1625 37.4642 42.9625 37.4642C43.6985 37.4642 52.4985 37.4002 54.3865 37.4642C54.6745 37.4642 54.9305 37.4642 55.1865 37.4642C55.2505 37.4642 55.5705 37.4962 56.0505 37.4962ZM44.9145 24.0242C44.9145 23.4802 44.9145 23.0322 44.9145 22.6802C44.8505 22.2322 44.7545 21.8802 44.6585 21.4963C44.4665 21.1762 44.3065 20.7922 44.0185 20.5362C43.7625 20.2802 43.4105 20.0882 42.9625 19.8962C42.4185 19.7682 41.9065 19.6402 41.3625 19.6402C40.7545 19.6402 40.1785 19.7682 39.7305 19.8962C39.2185 20.1842 38.7705 20.4722 38.4185 20.9202C38.0025 21.2402 37.8105 21.8162 37.6185 22.5202C37.6185 22.9682 37.6185 23.4162 37.6825 23.8642C37.6825 24.2802 37.8745 24.7282 38.1305 25.0802C38.4185 25.4642 38.7705 25.7202 39.1545 25.9762C39.6025 26.2322 40.1145 26.4242 40.8185 26.5202C41.2665 26.5202 41.7145 26.5202 42.1625 26.4242C42.6105 26.4242 42.9625 26.3282 43.4105 26.0722C43.7625 25.9122 44.1465 25.6242 44.4025 25.2722C44.6585 24.9202 44.8505 24.4722 44.9145 24.0242ZM56.9785 18.4882V29.2083C56.9785 29.6242 56.8825 30.0722 56.7865 30.5202C56.5945 31.1602 56.1465 31.6082 55.4425 31.7682C54.0985 32.0562 53.2025 30.9682 53.0425 29.7202C52.9465 29.3682 52.9465 29.0162 52.9465 28.6642C52.9465 28.3122 52.9465 27.9602 52.9465 27.5762L53.0425 19.3202C53.0425 18.1042 52.7865 16.3762 54.2265 15.7362C54.5465 15.5442 54.9945 15.5442 55.4425 15.6082C56.4345 15.7362 56.8825 16.5042 56.9785 17.4002C56.9785 17.7842 56.9785 18.2322 56.9785 18.4882Z" fill="white"/>
<path d="M67.296 26.4562C68.16 26.4562 69.216 26.5202 70.432 26.5522C70.432 26.1042 70.432 25.6882 70.464 25.2722C70.432 25.2722 70.4 25.2722 70.368 25.2402C68.224 24.3762 66.528 23.4482 66.528 20.8882C66.528 20.2802 66.592 19.7362 66.752 19.2562C65.728 19.2562 64.896 18.4882 64.896 17.5282C64.896 16.6002 65.76 15.8322 66.784 15.8322H71.008V14.7762C71.008 13.9762 71.84 13.3042 72.864 13.3042C73.888 13.3042 74.752 13.9762 74.752 14.7762V15.8322H79.168C80.224 15.8322 81.088 16.6002 81.088 17.5282C81.088 18.4882 80.256 19.2242 79.232 19.2562C79.36 19.7362 79.456 20.2802 79.456 20.8882C79.456 22.6802 78.944 23.4482 77.472 24.5042C76.736 25.0482 75.744 25.3682 74.688 25.4962V26.4882V26.6482C76.288 26.6482 76.032 26.5522 78.304 26.6162C79.104 26.6162 79.872 26.5522 80.608 26.8722C81.152 27.1282 81.504 27.7362 81.504 28.4082C81.504 28.9522 81.28 29.1442 80.928 29.5282C80.32 30.1682 79.36 30.1362 78.592 30.0722H67.296C67.232 30.0722 65.888 30.1042 65.376 29.3682C65.12 29.1122 64.992 28.8562 64.992 28.4082C64.992 27.9602 65.152 27.6402 65.376 27.3522C65.856 26.8082 66.752 26.5202 67.296 26.4562ZM86.56 38.8083C87.232 38.8723 87.808 39.0963 88 39.7682C88.256 40.5363 87.968 41.0803 87.168 41.4003C86.656 41.5923 86.112 41.6243 85.664 41.6243H70.784C69.92 41.6243 68.992 41.5923 68.064 41.5603C67.168 41.5283 66.528 40.8563 66.432 39.8963L66.336 37.6562C66.304 37.2082 66.272 36.4402 66.656 36.0242C67.232 35.3842 68.384 35.2882 69.312 35.2882C70.528 35.2882 74.592 35.3202 84.352 35.3202V34.1682H68.608C68.192 34.1682 67.84 34.1682 67.52 34.1042C67.136 34.0082 66.816 34.0082 66.624 33.6562C66.336 33.2082 66.24 32.7922 66.4 32.2802C66.624 31.6082 67.584 31.5122 68.064 31.4482C68.384 31.3842 68.704 31.3522 69.056 31.3522C70.976 31.3522 73.216 31.3842 84.672 31.3842C86.816 31.3842 88.032 32.0242 88.032 33.4962V35.7682C88.032 36.3442 87.776 36.9842 87.104 37.3682C86.56 37.6883 85.984 37.6562 85.44 37.6562H70.272V38.8083H86.56ZM83.584 27.6082V19.3842C83.552 18.4242 83.584 16.8562 84.128 16.3122C84.608 15.8962 85.088 15.8322 85.664 15.8322C86.368 15.8322 87.008 16.2802 87.264 16.9202C87.616 17.8162 87.584 18.7762 87.616 19.7042C87.616 20.7603 87.616 21.5922 87.648 22.3602C88.576 22.3602 89.472 22.3922 90.016 22.4242C91.136 22.4882 91.904 24.1842 91.232 25.0482C90.624 25.9122 89.12 26.0402 87.68 25.9762V27.2562C87.68 28.1522 87.52 28.5362 87.36 29.0162C87.328 29.1442 87.264 29.2722 87.2 29.4323C87.072 29.6882 86.88 29.9442 86.624 30.1042C86.176 30.3922 85.6 30.4562 85.056 30.3602C84.8 30.2962 84.512 30.1682 84.288 29.9762C83.552 29.2722 83.584 27.6722 83.584 27.6082ZM72.736 22.2962C73.952 22.3602 75.616 22.3602 75.616 20.8882C75.616 19.7042 74.976 19.3522 74.144 19.2562H71.52C70.752 19.3842 70.176 19.7682 70.176 20.8882C70.24 22.2962 71.488 22.3602 72.736 22.2962ZM112.692 28.0562C113.396 28.0882 114.196 28.2162 114.804 28.6962C115.092 28.9202 115.252 29.3042 115.252 29.6882C115.252 30.1042 115.092 30.6482 114.836 30.8722C114.164 31.5122 112.5 31.4482 112.436 31.4482L95.3802 31.4802C94.4203 31.5122 93.2363 31.5762 92.5323 31.0002C92.0523 30.6482 91.7963 30.2962 91.7963 29.8162C91.7963 29.2402 92.2443 28.5042 92.9163 28.2802C93.8123 27.9922 94.7723 28.0882 95.7323 28.0562C97.8123 27.9922 98.4843 28.0562 100.628 28.0562V26.2322C98.8683 26.2002 97.0123 26.1682 96.2123 26.1362C95.1562 26.1682 93.3323 26.0082 93.0123 24.8562C92.7883 23.8962 92.6923 24.0242 92.6923 23.0322V19.6082C92.6603 19.6722 92.5963 18.0722 93.1403 17.2082C93.6843 16.3122 95.6363 16.2802 95.8602 16.2802H109.94C110.836 16.2802 111.828 16.2162 112.692 16.5362C113.396 16.8242 113.62 17.5922 113.588 18.3602C113.524 19.0642 113.044 19.6402 112.308 19.8322C111.924 19.9282 111.316 19.9602 110.516 19.9602C109.972 19.9602 109.524 19.9282 109.524 19.9282H98.1963C97.9723 19.8962 97.4923 19.8962 97.2683 20.0243C97.0443 20.1202 97.0763 22.1682 97.1723 22.3922C97.3323 22.6802 98.0363 22.6482 98.4843 22.6162C99.5083 22.5842 101.428 22.6162 107.86 22.6162H110.228C111.284 22.6162 112.18 22.5522 112.884 22.9042C113.3 23.0962 113.62 23.5122 113.748 23.9922C113.844 24.5042 113.716 25.0482 113.428 25.4322C112.756 26.2642 111.956 26.1362 111.028 26.1682C110.324 26.2002 107.092 26.2322 105.108 26.2322C105.14 26.8402 105.172 27.5442 105.172 28.0562C107.54 28.0562 110.868 27.9602 112.692 28.0562ZM92.8203 37.4002C92.8203 33.7842 97.5243 32.9202 103.284 32.9202C109.076 32.9202 113.78 33.3682 113.78 37.4002C113.78 41.3683 109.076 41.8802 103.284 41.8802C97.5243 41.8802 92.8203 41.3683 92.8203 37.4002ZM109.556 37.4002C109.556 36.0242 106.228 36.0562 103.284 36.0562C100.372 36.0562 97.2363 36.0242 97.2363 37.4002C97.2363 38.6163 100.372 38.7443 103.284 38.7443C106.228 38.7443 109.556 39.0003 109.556 37.4002Z" fill="#F9D2DB"/>
</svg>
