<svg width="56" height="34" viewBox="0 0 56 34" fill="none" xmlns="http://www.w3.org/2000/svg">
<path d="M56 21.6364C56 31.3097 43.5 34 31.5 34C19.5 34 0 27.1883 0 17.5149C0 7.84157 17.5 0.000986718 32 6.10223e-08C46.5 -0.000986596 56 11.963 56 21.6364Z" fill="#336951"/>
<path d="M28.24 5.92C28.51 5.86 28.75 5.77 28.99 5.74C29.59 5.59 30.7 5.59 31.03 6.28C31.36 7.09 31.21 8.5 31.21 9.37V24.7C31.21 25.54 31.42 26.68 30.58 27.28C30.01 27.73 28.9 27.7 28.24 27.46C27.52 27.22 27.49 26.41 27.49 25.75C27.22 20.5 27.31 15.52 27.31 10.18C27.19 10.54 25.12 10.87 24.79 10.87C23.74 10.99 22.75 10.75 22.63 9.52C22.48 8.26 23.32 7.57 24.49 7.21C25.75 6.79 26.98 6.28 28.24 5.92Z" fill="white"/>
</svg>
