<svg width="960" height="86" viewBox="0 0 960 86" fill="none" xmlns="http://www.w3.org/2000/svg">
<path d="M318.189 42.2822L546.575 42.2822" stroke="#E9F0BF" stroke-width="2.48103" stroke-linecap="round" stroke-linejoin="round" stroke-dasharray="4.96 4.96"/>
<rect x="481" y="1" width="478" height="84" rx="9.13542" fill="white"/>
<rect x="481" y="1" width="478" height="84" rx="9.13542" stroke="#E9F0BF" stroke-width="1.82708"/>
<path d="M69.4139 3H9.13542C4.09007 3 0 7.09007 0 12.1354V73.3427C0 78.3881 4.09007 82.4781 9.13542 82.4781H69.4139C74.4593 82.4781 78.5493 78.3881 78.5493 73.3427V12.1354C78.5493 7.09007 74.4593 3 69.4139 3Z" fill="#E9F0BF"/>
<path d="M157.099 3H96.821C91.7756 3 87.6855 7.09007 87.6855 12.1354V73.3427C87.6855 78.3881 91.7756 82.4781 96.821 82.4781H157.099C162.145 82.4781 166.235 78.3881 166.235 73.3427V12.1354C166.235 7.09007 162.145 3 157.099 3Z" fill="#E9F0BF"/>
<path d="M244.783 3H184.505C179.459 3 175.369 7.09007 175.369 12.1354V73.3427C175.369 78.3881 179.459 82.4781 184.505 82.4781H244.783C249.828 82.4781 253.918 78.3881 253.918 73.3427V12.1354C253.918 7.09007 249.828 3 244.783 3Z" fill="#E9F0BF"/>
</svg>
