<svg width="961" height="86" viewBox="0 0 961 86" fill="none" xmlns="http://www.w3.org/2000/svg">
<path d="M405.875 42.7715L634.26 42.7715" stroke="#DBEBCC" stroke-width="2.48103" stroke-linecap="round" stroke-linejoin="round" stroke-dasharray="4.96 4.96"/>
<path d="M69.4139 3.48926H9.13542C4.09007 3.48926 0 7.57933 0 12.6247V73.832C0 78.8773 4.09007 82.9674 9.13542 82.9674H69.4139C74.4593 82.9674 78.5493 78.8773 78.5493 73.832V12.6247C78.5493 7.57932 74.4593 3.48926 69.4139 3.48926Z" fill="#DBEBCC"/>
<path d="M157.099 3.48926H96.821C91.7756 3.48926 87.6855 7.57933 87.6855 12.6247V73.832C87.6855 78.8773 91.7756 82.9674 96.821 82.9674H157.099C162.145 82.9674 166.235 78.8773 166.235 73.832V12.6247C166.235 7.57932 162.145 3.48926 157.099 3.48926Z" fill="#DBEBCC"/>
<path d="M244.783 3.48926H184.505C179.459 3.48926 175.369 7.57933 175.369 12.6247V73.832C175.369 78.8773 179.459 82.9674 184.505 82.9674H244.783C249.828 82.9674 253.918 78.8773 253.918 73.832V12.6247C253.918 7.57932 249.828 3.48926 244.783 3.48926Z" fill="#DBEBCC"/>
<path d="M332.469 3.48926H272.19C267.145 3.48926 263.055 7.57933 263.055 12.6247V73.832C263.055 78.8773 267.145 82.9674 272.19 82.9674H332.469C337.514 82.9674 341.604 78.8773 341.604 73.832V12.6247C341.604 7.57932 337.514 3.48926 332.469 3.48926Z" fill="#DBEBCC"/>
<rect x="481" y="1" width="479" height="84" rx="9.13542" fill="white"/>
<rect x="481" y="1" width="479" height="84" rx="9.13542" stroke="#DBEBCC" stroke-width="1.82708"/>
</svg>
