<svg width="127" height="60" viewBox="0 0 127 60" fill="none" xmlns="http://www.w3.org/2000/svg">
<rect x="1.66406" y="1" width="124" height="58" rx="7" fill="white"/>
<rect x="1.66406" y="1" width="124" height="58" rx="7" stroke="#7379A4" stroke-width="2"/>
<rect x="5.66406" y="5" width="116" height="50" rx="5" fill="white"/>
<rect x="5.66406" y="5" width="116" height="50" rx="5" stroke="#7379A4" stroke-width="2"/>
<path d="M22.723 13.24C28.123 13.24 32.003 16.88 32.003 23.92V28.08C32.003 35.12 28.123 38.72 22.723 38.72C17.323 38.72 13.443 35.12 13.443 28.08V23.92C13.443 16.84 17.323 13.24 22.723 13.24ZM46.883 18.96V22.4H41.203V29.24H46.883V32.68H41.203V47.6H37.243V10.72H41.203V18.96H46.883ZM22.723 35.16C25.603 35.16 28.203 33.16 28.203 27.52V24.48C28.203 18.84 25.603 16.84 22.723 16.84C19.843 16.84 17.243 18.84 17.243 24.48V27.52C17.243 33.16 19.843 35.16 22.723 35.16ZM74.337 29.6H80.577V32.96H65.657V47.6H61.657V32.96H46.737V29.6H70.337C71.177 25.68 71.497 22.2 71.497 18.64V16.48H50.977V13H75.457V17.72C75.457 21.56 75.097 25.6 74.337 29.6ZM110.191 12.12V28.48H85.9511V12.16H89.8711V17.2H106.271V12.12H110.191ZM100.071 47.6H96.0711V35.88H81.1511V32.52H114.991V35.88H100.071V47.6ZM89.8711 20.56V25.08H106.271V20.56H89.8711Z" fill="#1E1E1E"/>
</svg>
