<svg width="126" height="60" viewBox="0 0 126 60" fill="none" xmlns="http://www.w3.org/2000/svg">
<rect x="1" y="1" width="124" height="58" rx="7" fill="white"/>
<rect x="1" y="1" width="124" height="58" rx="7" stroke="#7379A4" stroke-width="2"/>
<rect x="5" y="5" width="116" height="50" rx="5" fill="white"/>
<rect x="5" y="5" width="116" height="50" rx="5" stroke="#7379A4" stroke-width="2"/>
<path d="M28.5789 48.64C21.5389 48.64 17.0589 45.76 17.0589 42V40.64C17.0589 36.8 21.5389 34 28.5789 34C35.6189 34 40.0989 36.84 40.0989 40.64V42C40.0989 45.72 35.6589 48.64 28.5789 48.64ZM16.7789 11.92H20.6989V20.96H40.6589V24.32H30.5789V28.36H45.4989V31.72H11.6589V28.36H26.5789V24.32H16.7789V11.92ZM28.5789 37.24C24.0589 37.24 20.9789 38.96 20.9789 40.88V41.76C20.9789 43.68 24.0589 45.4 28.5789 45.4C33.0989 45.4 36.1789 43.68 36.1789 41.76V40.88C36.1789 38.96 33.0989 37.24 28.5789 37.24ZM73.673 29.6H79.913V32.96H64.993V47.6H60.993V32.96H46.073V29.6H69.673C70.513 25.68 70.833 22.2 70.833 18.64V16.48H50.313V13H74.793V17.72C74.793 21.56 74.433 25.6 73.673 29.6ZM109.527 12.12V28.48H85.287V12.16H89.207V17.2H105.607V12.12H109.527ZM99.407 47.6H95.407V35.88H80.487V32.52H114.327V35.88H99.407V47.6ZM89.207 20.56V25.08H105.607V20.56H89.207Z" fill="#1E1E1E"/>
</svg>
