<svg width="127" height="60" viewBox="0 0 127 60" fill="none" xmlns="http://www.w3.org/2000/svg">
<rect x="1.66406" y="1" width="124" height="58" rx="7" fill="white"/>
<rect x="1.66406" y="1" width="124" height="58" rx="7" stroke="#7379A4" stroke-width="2"/>
<rect x="5.66406" y="5" width="116" height="50" rx="5" fill="white"/>
<rect x="5.66406" y="5" width="116" height="50" rx="5" stroke="#7379A4" stroke-width="2"/>
<path d="M29.243 11.44C36.763 11.44 41.643 14.64 41.643 19.36V20.8C41.643 25.52 36.763 28.72 29.243 28.72C21.723 28.72 16.843 25.52 16.843 20.8V19.36C16.843 14.64 21.723 11.44 29.243 11.44ZM37.643 47.52H33.683V35.48H24.803V47.52H20.843V35.48H12.323V32.12H46.163V35.48H37.643V47.52ZM29.243 25.28C34.363 25.28 37.763 23.4 37.763 20.72V19.44C37.763 16.76 34.363 14.88 29.243 14.88C24.123 14.88 20.723 16.76 20.723 19.44V20.72C20.723 23.4 24.123 25.28 29.243 25.28ZM76.257 27.8V31.16H65.657V39.32H80.577V42.68H46.737V39.32H61.657V31.16H51.297V13.8H75.817V17.16H55.257V27.8H76.257ZM110.191 12.12V28.48H85.9511V12.16H89.8711V17.2H106.271V12.12H110.191ZM100.071 47.6H96.0711V35.88H81.1511V32.52H114.991V35.88H100.071V47.6ZM89.8711 20.56V25.08H106.271V20.56H89.8711Z" fill="#1E1E1E"/>
</svg>
