<svg width="127" height="60" viewBox="0 0 127 60" fill="none" xmlns="http://www.w3.org/2000/svg">
<rect x="1.32812" y="1" width="124" height="58" rx="7" fill="white"/>
<rect x="1.32812" y="1" width="124" height="58" rx="7" stroke="#7379A4" stroke-width="2"/>
<rect x="5.32812" y="5" width="116" height="50" rx="5" fill="white"/>
<rect x="5.32812" y="5" width="116" height="50" rx="5" stroke="#7379A4" stroke-width="2"/>
<path d="M19.787 33.24H42.787V47.56H19.787V33.24ZM42.787 31.44H38.867V22.88H29.587C27.987 26.2 23.787 28.48 14.707 32.32L13.227 29.12C24.507 24.4 26.587 22.4 26.587 18.24V16.24H14.747V12.88H30.467V18.52C30.467 18.84 30.467 19.2 30.427 19.48H38.867V10.72H42.787V31.44ZM23.707 36.6V44.2H38.867V36.6H23.707ZM75.9211 27.8V31.16H65.3211V39.32H80.2411V42.68H46.4011V39.32H61.3211V31.16H50.9611V13.8H75.4811V17.16H54.9211V27.8H75.9211ZM109.855 12.12V28.48H85.6152V12.16H89.5352V17.2H105.935V12.12H109.855ZM99.7352 47.6H95.7352V35.88H80.8152V32.52H114.655V35.88H99.7352V47.6ZM89.5352 20.56V25.08H105.935V20.56H89.5352Z" fill="#1E1E1E"/>
</svg>
