<svg width="126" height="60" viewBox="0 0 126 60" fill="none" xmlns="http://www.w3.org/2000/svg">
<rect x="1" y="1" width="124" height="58" rx="7" fill="white"/>
<rect x="1" y="1" width="124" height="58" rx="7" stroke="#7379A4" stroke-width="2"/>
<rect x="5" y="5" width="116" height="50" rx="5" fill="white"/>
<rect x="5" y="5" width="116" height="50" rx="5" stroke="#7379A4" stroke-width="2"/>
<path d="M39.6189 25.24H45.4989V28.6H30.5789V33.72C36.0589 34.2 40.0989 36.68 40.0989 40.48V41.72C40.0989 46 35.0589 48.64 28.5789 48.64C22.0989 48.64 17.0589 46 17.0589 41.72V40.48C17.0589 36.68 21.0989 34.2 26.5789 33.72V28.6H11.6589V25.24H35.5389C36.1389 22.36 36.3789 19.56 36.3789 17.24V15.56H16.0989V12.2H40.3789V17.4C40.3789 19.56 40.0989 22.52 39.6189 25.24ZM28.5789 45.4C32.8189 45.4 36.1789 43.8 36.1789 41.48V40.72C36.1789 38.48 32.8189 36.88 28.5789 36.88C24.3389 36.88 20.9789 38.48 20.9789 40.72V41.48C20.9789 43.8 24.3389 45.4 28.5789 45.4ZM75.593 27.8V31.16H64.993V39.32H79.913V42.68H46.073V39.32H60.993V31.16H50.633V13.8H75.153V17.16H54.593V27.8H75.593ZM109.527 12.12V28.48H85.287V12.16H89.207V17.2H105.607V12.12H109.527ZM99.407 47.6H95.407V35.88H80.487V32.52H114.327V35.88H99.407V47.6ZM89.207 20.56V25.08H105.607V20.56H89.207Z" fill="#1E1E1E"/>
</svg>
