<svg width="352" height="44" viewBox="0 0 352 44" fill="none" xmlns="http://www.w3.org/2000/svg">
<path d="M351.796 41.3081H42V43.104H351.796V41.3081Z" fill="#9FA0A0"/>
<path d="M13.0303 3.63613L3.62617 13.0403L27.0967 36.5108L36.461 27.1465L13.0303 3.63613ZM26.0606 39.6986L0.438328 14.0763C0.159392 13.7974 0 13.3989 0 13.0004C0 12.6019 0.159392 12.2035 0.438328 11.9245L11.9544 0.44829C12.5521 -0.14943 13.5085 -0.14943 14.1062 0.44829L39.7285 26.0706C40.0074 26.3495 40.1668 26.748 40.1668 27.1465C40.1668 27.545 40.0074 27.9434 39.7285 28.2224L28.2124 39.7385C27.9335 40.0174 27.535 40.1768 27.1365 40.1768C26.738 40.1768 26.3794 40.0174 26.0606 39.7385" fill="#9FA0A0"/>
<path d="M42.5176 44.002C42.9161 44.002 43.3145 43.8426 43.5935 43.5637C43.9521 43.2051 44.1115 42.6472 43.992 42.169L40.4853 27.1463C40.2861 26.3493 39.4891 25.8313 38.6922 26.0306C37.8952 26.2298 37.3772 27.0268 37.5764 27.8636L40.5252 40.5352L27.8535 37.5466C27.0565 37.3474 26.2197 37.8654 26.0603 38.6624C25.8611 39.4593 26.3791 40.2962 27.1761 40.4954L42.1988 44.002C42.1988 44.002 42.4379 44.002 42.5574 44.002" fill="#9FA0A0"/>
<path d="M5.77809 18.8188C6.17657 18.8188 6.53521 18.6595 6.85399 18.3805L18.3701 6.86444C18.9678 6.26671 18.9678 5.31036 18.3701 4.75249C17.7724 4.15477 16.816 4.15477 16.2183 4.75249L4.7022 16.2686C4.10448 16.8663 4.10448 17.8226 4.7022 18.3805C4.98113 18.6595 5.37961 18.8188 5.77809 18.8188Z" fill="#9FA0A0"/>
<path d="M40.577 36.7891L36.7188 40.6514L38.8613 42.7917L42.7195 38.9294L40.577 36.7891Z" fill="#9FA0A0"/>
<path d="M14.4942 9.24212L12.9727 10.7637L33.9926 31.7836L35.5141 30.262L14.4942 9.24212Z" fill="#9FA0A0"/>
<path d="M10.627 13.0576L9.10547 14.5791L30.1254 35.599L31.6469 34.0775L10.627 13.0576Z" fill="#9FA0A0"/>
</svg>
