<svg width="124" height="37" viewBox="0 0 124 37" fill="none" xmlns="http://www.w3.org/2000/svg">
<rect width="116" height="37" rx="10" fill="#41674B"/>
<path d="M13.936 10.792H23.824V13.032C23.824 13.96 23.728 15.368 23.568 16.376H25.696V17.928H12.064V16.376H21.584C21.664 15.992 21.712 15.592 21.744 15.176L13.808 15.32L13.76 13.688L21.84 13.56V12.456H13.936V10.792ZM13.856 19H23.792V22.936H15.888V23.912H24.224V25.432H13.936V21.48H21.84V20.52H13.856V19ZM28.9816 21.912V20.216H38.8376V25.496H36.8216V21.912H28.9816ZM38.8376 10.424V19.544H36.8216V10.424H38.8376ZM29.3176 15.8V17.208C31.5576 17.208 33.4936 17.176 35.5096 16.984L35.6856 18.648C33.7816 18.856 31.4136 18.888 27.3336 18.888V14.184H32.1656V12.776H27.3336V11.096H34.1496V15.8H29.3176ZM50.7633 10.728V15.8H52.0273V10.424H53.9473V25.304H52.0273V17.544H50.7633V24.584H48.8433V10.728H50.7633ZM44.6193 21.624C42.4753 21.624 41.3073 20.168 41.3073 18.728V17.96C41.3073 16.52 42.4753 15.064 44.6193 15.064C46.7633 15.064 47.9313 16.52 47.9313 17.96V18.728C47.9313 20.168 46.7633 21.624 44.6193 21.624ZM40.7953 12.824H43.6113V10.84H45.5793V12.824H48.1073V14.488H40.7953V12.824ZM44.6193 16.68C43.5793 16.68 43.0673 17.48 43.0673 18.072V18.616C43.0673 19.208 43.5793 20.008 44.6193 20.008C45.6593 20.008 46.1713 19.208 46.1713 18.616V18.072C46.1713 17.48 45.6593 16.68 44.6193 16.68ZM67.0729 19.288H63.1049V21.72H68.9129V23.432H55.2809V21.72H61.0889V19.288H57.1209V11.448H59.1369V13.832H65.0569V11.448H67.0729V19.288ZM59.1369 17.592H65.0569V15.544H59.1369V17.592ZM77.7185 24.584V16.792H75.7185V15.032H77.7185V10.728H79.6385V24.584H77.7185ZM72.3265 15.192V11.608H74.3265V15.192C74.3265 16.408 74.6145 17.064 75.2865 17.896C75.8785 18.632 76.6305 19.448 77.3665 20.184L76.0385 21.416C75.3505 20.712 74.7425 20.056 74.2625 19.496C73.7825 18.936 73.5265 18.6 73.4305 18.376H73.4145C73.3345 18.6 72.9825 19.096 72.5825 19.56C72.1505 20.056 71.3345 20.968 70.6145 21.672L69.2545 20.36C69.9425 19.688 70.7425 18.824 71.3505 18.056C72.1025 17.096 72.3265 16.472 72.3265 15.192ZM82.6625 10.424V25.304H80.7425V10.424H82.6625ZM84.0921 21.736H87.2921V18.376C86.3641 17.72 85.8041 16.76 85.8041 15.624V14.888C85.8041 12.632 87.9961 11.128 90.9081 11.128C93.8201 11.128 96.0121 12.632 96.0121 14.888V15.624C96.0121 16.776 95.4521 17.72 94.5241 18.376V21.736H97.7241V23.432H84.0921V21.736ZM90.9081 12.824C89.2441 12.824 87.7881 13.688 87.7881 15V15.512C87.7881 16.824 89.2441 17.688 90.9081 17.688C92.5721 17.688 94.0281 16.824 94.0281 15.512V15C94.0281 13.688 92.5721 12.824 90.9081 12.824ZM90.9081 19.384C90.3321 19.384 89.7881 19.32 89.2761 19.208V21.736H92.5401V19.208C92.0281 19.32 91.4841 19.384 90.9081 19.384ZM100.162 24.152V22.072H102.194V24.152H100.162Z" fill="#CDEED3"/>
<path d="M122.211 17.1056C122.948 17.4741 122.948 18.5259 122.211 18.8944L115.447 22.2764C114.782 22.6088 114 22.1253 114 21.382L114 14.618C114 13.8747 114.782 13.3912 115.447 13.7236L122.211 17.1056Z" fill="#41674B"/>
</svg>
