<svg width="170" height="37" viewBox="0 0 170 37" fill="none" xmlns="http://www.w3.org/2000/svg">
<rect width="170" height="37" rx="10" fill="#41674B"/>
<path d="M12.784 13.432V11.704H20.72V13.432H17.84V15.128C17.84 16.376 18.032 17.032 18.992 18.072C19.68 18.824 20.512 19.64 21.312 20.36L20.016 21.704C19.328 21.064 18.624 20.36 18.032 19.752C17.424 19.128 16.96 18.6 16.848 18.344H16.816C16.672 18.648 16.128 19.272 15.6 19.816C15.008 20.44 14.4 21.048 13.52 21.864L12.192 20.504C13.056 19.736 13.872 18.936 14.56 18.184C15.504 17.128 15.792 16.456 15.792 15.128V13.432H12.784ZM24.592 10.424V25.304H22.56V10.424H24.592ZM38.3576 18.824H34.2936V21.72H40.1016V23.432H26.4696V21.72H32.2776V18.824H28.2136V11.608H38.1656V13.32H30.2296V17.112H38.3576V18.824ZM42.6673 19.496H52.6033V23.192H44.6993V23.928H53.0353V25.448H42.7473V21.736H50.6513V21.016H42.6673V19.496ZM40.8753 17.256H54.5073V18.792H40.8753V17.256ZM52.7793 16.552H42.7793V12.888H50.5713V12.216H42.7313V10.696H52.5233V14.344H44.7313V15.032H52.7793V16.552ZM61.7929 10.792H71.6809V13.032C71.6809 13.96 71.5849 15.368 71.4249 16.376H73.5529V17.928H59.9209V16.376H69.4409C69.5209 15.992 69.5689 15.592 69.6009 15.176L61.6649 15.32L61.6169 13.688L69.6969 13.56V12.456H61.7929V10.792ZM61.7129 19H71.6489V22.936H63.7449V23.912H72.0809V25.432H61.7929V21.48H69.6969V20.52H61.7129V19ZM76.8385 21.912V20.216H86.6945V25.496H84.6785V21.912H76.8385ZM86.6945 10.424V19.544H84.6785V10.424H86.6945ZM77.1745 15.8V17.208C79.4145 17.208 81.3505 17.176 83.3665 16.984L83.5425 18.648C81.6385 18.856 79.2705 18.888 75.1905 18.888V14.184H80.0225V12.776H75.1905V11.096H82.0065V15.8H77.1745ZM98.6201 10.728V15.8H99.8841V10.424H101.804V25.304H99.8841V17.544H98.6201V24.584H96.7001V10.728H98.6201ZM92.4761 21.624C90.3321 21.624 89.1641 20.168 89.1641 18.728V17.96C89.1641 16.52 90.3321 15.064 92.4761 15.064C94.6201 15.064 95.7881 16.52 95.7881 17.96V18.728C95.7881 20.168 94.6201 21.624 92.4761 21.624ZM88.6521 12.824H91.4681V10.84H93.4361V12.824H95.9641V14.488H88.6521V12.824ZM92.4761 16.68C91.4361 16.68 90.9241 17.48 90.9241 18.072V18.616C90.9241 19.208 91.4361 20.008 92.4761 20.008C93.5161 20.008 94.0281 19.208 94.0281 18.616V18.072C94.0281 17.48 93.5161 16.68 92.4761 16.68ZM119.57 19.288H115.602V21.72H121.41V23.432H107.778V21.72H113.586V19.288H109.618V11.448H111.634V13.832H117.554V11.448H119.57V19.288ZM111.634 17.592H117.554V15.544H111.634V17.592ZM130.215 24.584V16.792H128.215V15.032H130.215V10.728H132.135V24.584H130.215ZM124.823 15.192V11.608H126.823V15.192C126.823 16.408 127.111 17.064 127.783 17.896C128.375 18.632 129.127 19.448 129.863 20.184L128.535 21.416C127.847 20.712 127.239 20.056 126.759 19.496C126.279 18.936 126.023 18.6 125.927 18.376H125.911C125.831 18.6 125.479 19.096 125.079 19.56C124.647 20.056 123.831 20.968 123.111 21.672L121.751 20.36C122.439 19.688 123.239 18.824 123.847 18.056C124.599 17.096 124.823 16.472 124.823 15.192ZM135.159 10.424V25.304H133.239V10.424H135.159ZM136.589 21.736H139.789V18.376C138.861 17.72 138.301 16.76 138.301 15.624V14.888C138.301 12.632 140.493 11.128 143.405 11.128C146.317 11.128 148.509 12.632 148.509 14.888V15.624C148.509 16.776 147.949 17.72 147.021 18.376V21.736H150.221V23.432H136.589V21.736ZM143.405 12.824C141.741 12.824 140.285 13.688 140.285 15V15.512C140.285 16.824 141.741 17.688 143.405 17.688C145.069 17.688 146.525 16.824 146.525 15.512V15C146.525 13.688 145.069 12.824 143.405 12.824ZM143.405 19.384C142.829 19.384 142.285 19.32 141.773 19.208V21.736H145.037V19.208C144.525 19.32 143.981 19.384 143.405 19.384ZM152.659 24.152V22.072H154.691V24.152H152.659Z" fill="#CDEED3"/>
</svg>
