<svg width="395" height="26" viewBox="0 0 395 26" fill="none" xmlns="http://www.w3.org/2000/svg">
<path d="M8.528 19.218C9.32533 19.218 10.0187 18.9493 10.608 18.412C11.1973 17.8747 11.6567 17.1033 11.986 16.098C12.3153 15.0927 12.48 13.9227 12.48 12.588C12.48 11.2533 12.3153 10.092 11.986 9.104C11.6567 8.09867 11.1973 7.32733 10.608 6.79C10.0187 6.23533 9.32533 5.958 8.528 5.958C7.73067 5.958 7.02867 6.23533 6.422 6.79C5.81533 7.32733 5.34733 8.09867 5.018 9.104C4.706 10.092 4.55 11.2533 4.55 12.588C4.55 13.9227 4.706 15.0927 5.018 16.098C5.34733 17.1033 5.81533 17.8747 6.422 18.412C7.02867 18.9493 7.73067 19.218 8.528 19.218ZM8.528 22.312C7.072 22.312 5.772 21.9047 4.628 21.09C3.50133 20.258 2.61733 19.1053 1.976 17.632C1.33467 16.1587 1.014 14.4773 1.014 12.588C1.014 10.716 1.33467 9.04333 1.976 7.57C2.61733 6.09667 3.50133 4.95267 4.628 4.138C5.772 3.306 7.072 2.89 8.528 2.89C9.96667 2.89 11.258 3.306 12.402 4.138C13.546 4.95267 14.43 6.09667 15.054 7.57C15.6953 9.04333 16.016 10.716 16.016 12.588C16.016 14.46 15.6953 16.1327 15.054 17.606C14.43 19.0793 13.546 20.232 12.402 21.064C11.258 21.896 9.96667 22.312 8.528 22.312ZM26.3451 22.156L22.8091 22.104V6.764L19.1171 8.428L17.8951 5.36L22.8351 3.098H26.3451V22.156Z" fill="#D9D9D9"/>
<path d="M53 13L45 19L45 7L53 13Z" fill="#D9D9D9"/>
<path d="M77.528 19.218C78.3253 19.218 79.0187 18.9493 79.608 18.412C80.1973 17.8747 80.6567 17.1033 80.986 16.098C81.3153 15.0927 81.48 13.9227 81.48 12.588C81.48 11.2533 81.3153 10.092 80.986 9.104C80.6567 8.09867 80.1973 7.32733 79.608 6.79C79.0187 6.23533 78.3253 5.958 77.528 5.958C76.7307 5.958 76.0287 6.23533 75.422 6.79C74.8153 7.32733 74.3473 8.09867 74.018 9.104C73.706 10.092 73.55 11.2533 73.55 12.588C73.55 13.9227 73.706 15.0927 74.018 16.098C74.3473 17.1033 74.8153 17.8747 75.422 18.412C76.0287 18.9493 76.7307 19.218 77.528 19.218ZM77.528 22.312C76.072 22.312 74.772 21.9047 73.628 21.09C72.5013 20.258 71.6173 19.1053 70.976 17.632C70.3347 16.1587 70.014 14.4773 70.014 12.588C70.014 10.716 70.3347 9.04333 70.976 7.57C71.6173 6.09667 72.5013 4.95267 73.628 4.138C74.772 3.306 76.072 2.89 77.528 2.89C78.9667 2.89 80.258 3.306 81.402 4.138C82.546 4.95267 83.43 6.09667 84.054 7.57C84.6953 9.04333 85.016 10.716 85.016 12.588C85.016 14.46 84.6953 16.1327 84.054 17.606C83.43 19.0793 82.546 20.232 81.402 21.064C80.258 21.896 78.9667 22.312 77.528 22.312ZM87.7271 19.062C88.5071 18.2993 89.5731 17.3633 90.9251 16.254C92.1558 15.214 93.1264 14.356 93.8371 13.68C94.5651 12.9867 95.1631 12.276 95.6311 11.548C96.1164 10.82 96.3591 10.118 96.3591 9.442C96.3591 8.80067 96.2291 8.23733 95.9691 7.752C95.7264 7.26667 95.3884 6.894 94.9551 6.634C94.5391 6.35667 94.0451 6.218 93.4731 6.218C92.7971 6.218 92.1384 6.43467 91.4971 6.868C90.8731 7.284 90.4051 7.83867 90.0931 8.532L87.0771 7.18C87.6318 5.932 88.5071 4.918 89.7031 4.138C90.8991 3.34067 92.1558 2.942 93.4731 2.942C94.7211 2.942 95.8304 3.21933 96.8011 3.774C97.7718 4.31133 98.5258 5.074 99.0631 6.062C99.6178 7.05 99.8951 8.17667 99.8951 9.442C99.8951 10.6727 99.5484 11.86 98.8551 13.004C98.1791 14.1307 97.3644 15.1447 96.4111 16.046C95.4578 16.9473 94.2184 18.0133 92.6931 19.244C91.4971 20.2147 90.5784 20.9947 89.9371 21.584L87.7271 19.062ZM87.7271 19.062H100.155V22.13H87.9871L87.7271 19.062Z" fill="#D9D9D9"/>
<path d="M126 13L118 19L118 7L126 13Z" fill="#D9D9D9"/>
<path d="M150.528 19.218C151.325 19.218 152.019 18.9493 152.608 18.412C153.197 17.8747 153.657 17.1033 153.986 16.098C154.315 15.0927 154.48 13.9227 154.48 12.588C154.48 11.2533 154.315 10.092 153.986 9.104C153.657 8.09867 153.197 7.32733 152.608 6.79C152.019 6.23533 151.325 5.958 150.528 5.958C149.731 5.958 149.029 6.23533 148.422 6.79C147.815 7.32733 147.347 8.09867 147.018 9.104C146.706 10.092 146.55 11.2533 146.55 12.588C146.55 13.9227 146.706 15.0927 147.018 16.098C147.347 17.1033 147.815 17.8747 148.422 18.412C149.029 18.9493 149.731 19.218 150.528 19.218ZM150.528 22.312C149.072 22.312 147.772 21.9047 146.628 21.09C145.501 20.258 144.617 19.1053 143.976 17.632C143.335 16.1587 143.014 14.4773 143.014 12.588C143.014 10.716 143.335 9.04333 143.976 7.57C144.617 6.09667 145.501 4.95267 146.628 4.138C147.772 3.306 149.072 2.89 150.528 2.89C151.967 2.89 153.258 3.306 154.402 4.138C155.546 4.95267 156.43 6.09667 157.054 7.57C157.695 9.04333 158.016 10.716 158.016 12.588C158.016 14.46 157.695 16.1327 157.054 17.606C156.43 19.0793 155.546 20.232 154.402 21.064C153.258 21.896 151.967 22.312 150.528 22.312ZM170.581 12.276C171.448 12.7613 172.15 13.4287 172.687 14.278C173.242 15.11 173.519 15.9333 173.519 16.748C173.519 17.8227 173.233 18.7847 172.661 19.634C172.089 20.466 171.292 21.116 170.269 21.584C169.246 22.052 168.085 22.286 166.785 22.286C165.485 22.286 164.324 22.0433 163.301 21.558C162.296 21.0553 161.507 20.362 160.935 19.478C160.363 18.5767 160.077 17.5627 160.077 16.436H163.613C163.613 16.956 163.743 17.424 164.003 17.84C164.28 18.256 164.662 18.5853 165.147 18.828C165.632 19.0533 166.178 19.166 166.785 19.166C167.444 19.166 168.016 19.0533 168.501 18.828C169.004 18.5853 169.394 18.2647 169.671 17.866C169.966 17.45 170.113 16.982 170.113 16.462C170.113 15.9247 169.974 15.448 169.697 15.032C169.42 14.616 169.03 14.2953 168.527 14.07C168.042 13.8273 167.478 13.706 166.837 13.706H165.537V10.872H166.889C167.461 10.872 167.964 10.768 168.397 10.56C168.848 10.352 169.203 10.066 169.463 9.702C169.723 9.32067 169.853 8.88733 169.853 8.402C169.853 7.726 169.584 7.17133 169.047 6.738C168.51 6.28733 167.816 6.062 166.967 6.062C166.43 6.062 165.953 6.166 165.537 6.374C165.121 6.56467 164.792 6.842 164.549 7.206C164.324 7.55267 164.211 7.96 164.211 8.428H160.675C160.675 7.37067 160.944 6.426 161.481 5.594C162.018 4.74467 162.764 4.09467 163.717 3.644C164.67 3.176 165.754 2.942 166.967 2.942C168.18 2.942 169.255 3.16733 170.191 3.618C171.144 4.05133 171.881 4.658 172.401 5.438C172.938 6.218 173.207 7.11067 173.207 8.116C173.207 8.86133 172.964 9.624 172.479 10.404C171.994 11.184 171.361 11.808 170.581 12.276Z" fill="#D9D9D9"/>
<path d="M199 13L191 19L191 7L199 13Z" fill="#D9D9D9"/>
<path d="M223.528 19.218C224.325 19.218 225.019 18.9493 225.608 18.412C226.197 17.8747 226.657 17.1033 226.986 16.098C227.315 15.0927 227.48 13.9227 227.48 12.588C227.48 11.2533 227.315 10.092 226.986 9.104C226.657 8.09867 226.197 7.32733 225.608 6.79C225.019 6.23533 224.325 5.958 223.528 5.958C222.731 5.958 222.029 6.23533 221.422 6.79C220.815 7.32733 220.347 8.09867 220.018 9.104C219.706 10.092 219.55 11.2533 219.55 12.588C219.55 13.9227 219.706 15.0927 220.018 16.098C220.347 17.1033 220.815 17.8747 221.422 18.412C222.029 18.9493 222.731 19.218 223.528 19.218ZM223.528 22.312C222.072 22.312 220.772 21.9047 219.628 21.09C218.501 20.258 217.617 19.1053 216.976 17.632C216.335 16.1587 216.014 14.4773 216.014 12.588C216.014 10.716 216.335 9.04333 216.976 7.57C217.617 6.09667 218.501 4.95267 219.628 4.138C220.772 3.306 222.072 2.89 223.528 2.89C224.967 2.89 226.258 3.306 227.402 4.138C228.546 4.95267 229.43 6.09667 230.054 7.57C230.695 9.04333 231.016 10.716 231.016 12.588C231.016 14.46 230.695 16.1327 230.054 17.606C229.43 19.0793 228.546 20.232 227.402 21.064C226.258 21.896 224.967 22.312 223.528 22.312ZM244.907 14.564H246.961V17.606H244.907V22.156H241.423V17.606H233.337L233.077 14.564L241.579 3.072H244.907V14.564ZM241.423 14.564V8.818L237.185 14.564H241.423Z" fill="#D9D9D9"/>
<path d="M273 13L265 19L265 7L273 13Z" fill="#D9D9D9"/>
<path d="M297.528 19.218C298.325 19.218 299.019 18.9493 299.608 18.412C300.197 17.8747 300.657 17.1033 300.986 16.098C301.315 15.0927 301.48 13.9227 301.48 12.588C301.48 11.2533 301.315 10.092 300.986 9.104C300.657 8.09867 300.197 7.32733 299.608 6.79C299.019 6.23533 298.325 5.958 297.528 5.958C296.731 5.958 296.029 6.23533 295.422 6.79C294.815 7.32733 294.347 8.09867 294.018 9.104C293.706 10.092 293.55 11.2533 293.55 12.588C293.55 13.9227 293.706 15.0927 294.018 16.098C294.347 17.1033 294.815 17.8747 295.422 18.412C296.029 18.9493 296.731 19.218 297.528 19.218ZM297.528 22.312C296.072 22.312 294.772 21.9047 293.628 21.09C292.501 20.258 291.617 19.1053 290.976 17.632C290.335 16.1587 290.014 14.4773 290.014 12.588C290.014 10.716 290.335 9.04333 290.976 7.57C291.617 6.09667 292.501 4.95267 293.628 4.138C294.772 3.306 296.072 2.89 297.528 2.89C298.967 2.89 300.258 3.306 301.402 4.138C302.546 4.95267 303.43 6.09667 304.054 7.57C304.695 9.04333 305.016 10.716 305.016 12.588C305.016 14.46 304.695 16.1327 304.054 17.606C303.43 19.0793 302.546 20.232 301.402 21.064C300.258 21.896 298.967 22.312 297.528 22.312ZM308.637 11.626C309.244 10.9673 310.032 10.43 311.003 10.014C311.974 9.598 312.91 9.39 313.811 9.39C315.163 9.39 316.368 9.66733 317.425 10.222C318.482 10.7593 319.306 11.522 319.895 12.51C320.484 13.498 320.779 14.6247 320.779 15.89C320.779 17.138 320.484 18.256 319.895 19.244C319.306 20.232 318.482 21.0033 317.425 21.558C316.368 22.1127 315.163 22.39 313.811 22.39C312.754 22.39 311.757 22.1733 310.821 21.74C309.885 21.2893 309.088 20.674 308.429 19.894C307.77 19.114 307.32 18.2213 307.077 17.216L310.509 16.384C310.7 17.1813 311.098 17.8313 311.705 18.334C312.329 18.8367 313.031 19.088 313.811 19.088C314.487 19.088 315.076 18.9493 315.579 18.672C316.099 18.3947 316.506 18.0133 316.801 17.528C317.096 17.0427 317.243 16.4967 317.243 15.89C317.243 15.266 317.096 14.7113 316.801 14.226C316.506 13.7407 316.099 13.368 315.579 13.108C315.076 12.8307 314.487 12.692 313.811 12.692C313.43 12.692 312.988 12.822 312.485 13.082C312 13.3247 311.575 13.6367 311.211 14.018L308.637 11.626ZM307.701 13.628L308.377 3.098H319.141V6.166H311.757L311.211 14.018L307.701 13.628Z" fill="#231815"/>
<path d="M346 13L338 19L338 7L346 13Z" fill="#D9D9D9"/>
<path d="M370.528 19.218C371.325 19.218 372.019 18.9493 372.608 18.412C373.197 17.8747 373.657 17.1033 373.986 16.098C374.315 15.0927 374.48 13.9227 374.48 12.588C374.48 11.2533 374.315 10.092 373.986 9.104C373.657 8.09867 373.197 7.32733 372.608 6.79C372.019 6.23533 371.325 5.958 370.528 5.958C369.731 5.958 369.029 6.23533 368.422 6.79C367.815 7.32733 367.347 8.09867 367.018 9.104C366.706 10.092 366.55 11.2533 366.55 12.588C366.55 13.9227 366.706 15.0927 367.018 16.098C367.347 17.1033 367.815 17.8747 368.422 18.412C369.029 18.9493 369.731 19.218 370.528 19.218ZM370.528 22.312C369.072 22.312 367.772 21.9047 366.628 21.09C365.501 20.258 364.617 19.1053 363.976 17.632C363.335 16.1587 363.014 14.4773 363.014 12.588C363.014 10.716 363.335 9.04333 363.976 7.57C364.617 6.09667 365.501 4.95267 366.628 4.138C367.772 3.306 369.072 2.89 370.528 2.89C371.967 2.89 373.258 3.306 374.402 4.138C375.546 4.95267 376.43 6.09667 377.054 7.57C377.695 9.04333 378.016 10.716 378.016 12.588C378.016 14.46 377.695 16.1327 377.054 17.606C376.43 19.0793 375.546 20.232 374.402 21.064C373.258 21.896 371.967 22.312 370.528 22.312ZM386.915 19.244C387.574 19.244 388.154 19.0967 388.657 18.802C389.16 18.5073 389.55 18.1087 389.827 17.606C390.122 17.1033 390.269 16.5227 390.269 15.864C390.269 15.2227 390.122 14.642 389.827 14.122C389.55 13.602 389.16 13.2033 388.657 12.926C388.154 12.6487 387.574 12.51 386.915 12.51C386.274 12.51 385.702 12.6487 385.199 12.926C384.696 13.2033 384.306 13.602 384.029 14.122C383.752 14.642 383.613 15.2227 383.613 15.864C383.613 16.5227 383.752 17.112 384.029 17.632C384.306 18.1347 384.696 18.5333 385.199 18.828C385.702 19.1053 386.274 19.244 386.915 19.244ZM380.077 15.89C380.077 14.7633 380.441 13.5327 381.169 12.198L386.291 2.994H390.321L386.681 9.468C386.82 9.43333 386.941 9.416 387.045 9.416C388.362 9.43333 389.532 9.71933 390.555 10.274C391.578 10.8287 392.375 11.5913 392.947 12.562C393.519 13.5327 393.805 14.642 393.805 15.89C393.805 17.138 393.51 18.2473 392.921 19.218C392.332 20.1887 391.517 20.9513 390.477 21.506C389.437 22.0433 388.25 22.312 386.915 22.312C385.58 22.312 384.393 22.0433 383.353 21.506C382.33 20.9513 381.524 20.1887 380.935 19.218C380.363 18.2473 380.077 17.138 380.077 15.89Z" fill="#D9D9D9"/>
</svg>
