<svg width="205" height="79" viewBox="0 0 205 79" fill="none" xmlns="http://www.w3.org/2000/svg">
<g clip-path="url(#clip0_2622_6685)">
<path d="M0 52.391C0.0206196 51.9499 0.226816 51.7399 0.639207 51.7609C2.1032 51.8659 3.54657 51.9289 5.01056 51.9499V47.1405C5.01056 46.5525 5.258 46.2585 5.77349 46.2585C6.28898 46.2585 6.53641 46.5525 6.53641 47.1405V51.9709C8.66023 51.9709 10.784 51.9079 12.9285 51.7609C13.3203 51.7399 13.5471 51.9499 13.5677 52.391C13.5883 52.811 13.4027 53.042 12.9903 53.063C8.86643 53.357 4.74251 53.357 0.597968 53.063C0.185576 53.042 0 52.811 0.0206196 52.391H0ZM1.2578 41.8691C1.2578 41.4281 1.52585 41.2181 2.04134 41.2181H11.2377C11.7738 41.2181 12.0212 41.4281 12.0212 41.8691V42.8562C12.0212 45.0404 11.4851 47.0985 10.4335 49.0307C10.2067 49.4297 9.89741 49.5137 9.48501 49.2407C9.03138 48.9887 8.92828 48.6737 9.13448 48.2536C10.0417 46.5735 10.516 44.7674 10.516 42.8352V42.5202H2.04134C1.50523 42.5202 1.2578 42.3102 1.2578 41.8691ZM14.5781 49.9338C14.5987 49.4927 14.8049 49.2827 15.2173 49.3037C19.3206 49.5977 23.4032 49.5977 27.5065 49.3037C27.8983 49.2827 28.1251 49.4927 28.1457 49.9338C28.1664 50.3538 27.9808 50.5848 27.5684 50.6058C26.5993 50.6688 25.6302 50.7318 24.6404 50.7738V53.9241C24.6404 54.5121 24.393 54.8061 23.8775 54.8061C23.362 54.8061 23.1146 54.5121 23.1146 53.9241V50.7948C21.9392 50.8368 20.7639 50.8368 19.5886 50.7948V53.9241C19.5886 54.5121 19.3412 54.8061 18.8257 54.8061C18.3102 54.8061 18.0628 54.5121 18.0628 53.9241V50.7738C17.0936 50.7318 16.1245 50.6898 15.1348 50.6058C14.7224 50.5848 14.5368 50.3538 14.5574 49.9338H14.5781ZM26.8055 43.8643C26.8055 46.2165 24.9909 47.4136 21.3825 47.4766C17.7535 47.5396 15.9389 46.3845 15.9389 44.0323C15.9389 41.6801 17.7535 40.483 21.3825 40.42C24.9909 40.357 26.8055 41.5121 26.8055 43.8643ZM21.3619 46.1955C23.9806 46.1535 25.2796 45.3764 25.2796 43.8853C25.2796 42.3942 23.9806 41.6591 21.3619 41.7011C18.7432 41.7641 17.4236 42.5412 17.4236 44.0323C17.4236 45.5234 18.7432 46.2585 21.3619 46.1955ZM35.6719 47.9176C34.4553 47.9176 33.8161 47.2876 33.7955 46.0275L33.713 41.8061C33.6924 41.1131 34.0842 40.7771 34.909 40.7771H40.0433C40.8474 40.7771 41.2598 41.1131 41.2598 41.8061V41.9111H44.1672C44.1466 41.6171 44.1259 41.3441 44.1259 41.0291C44.0847 40.483 44.3115 40.189 44.7858 40.147C45.2806 40.105 45.5281 40.315 45.5487 40.7771C45.7343 43.1502 45.7343 45.5234 45.5487 47.8756C45.5281 48.3376 45.26 48.5267 44.7858 48.4847C44.2909 48.4426 44.0641 48.1486 44.1259 47.6026C44.1466 47.2036 44.1672 46.7835 44.1672 46.3845H41.1361C40.9918 47.3926 40.3732 47.8756 39.2803 47.8756H35.6513L35.6719 47.9176ZM35.7544 42.1002C35.4038 42.1002 35.2183 42.3312 35.2389 42.7932L35.3007 45.6914C35.3007 46.3005 35.5482 46.5945 36.0431 46.5945H38.9092C39.404 46.5945 39.6515 46.3005 39.6721 45.6914L39.734 42.7932C39.734 42.3312 39.5484 42.1002 39.1978 42.1002H35.7544ZM45.6518 52.454C45.6518 54.4281 43.9816 55.4572 40.6206 55.4992C37.2596 55.5622 35.5894 54.5961 35.5894 52.622C35.5894 50.6478 37.2596 49.6187 40.6206 49.5767C43.9816 49.5137 45.6518 50.4798 45.6518 52.454ZM40.6206 54.1971C42.9712 54.1341 44.1466 53.567 44.1466 52.475C44.1466 51.3829 42.9712 50.8578 40.6206 50.9208C38.27 50.9838 37.0947 51.5509 37.0947 52.643C37.0947 53.7351 38.27 54.2601 40.6206 54.1971ZM41.2392 43.2553L41.1979 45.1034H44.229C44.229 44.4943 44.229 43.8643 44.229 43.2553H41.2186H41.2392ZM47.7756 51.1309C50.0231 49.7237 51.1572 46.6995 51.1572 42.1002C51.1572 41.5121 51.4047 41.2181 51.9201 41.2181C52.4356 41.2181 52.6624 41.4911 52.6624 42.0582C52.6624 43.8013 52.5181 45.3554 52.2088 46.7205C53.8584 47.7706 54.9718 49.4717 55.5698 51.8239C55.6935 52.2649 55.5286 52.559 55.0749 52.685C54.6213 52.811 54.3533 52.664 54.2295 52.2229C53.7553 50.5008 52.9511 49.1777 51.7758 48.2536C51.0954 50.1228 50.0231 51.4879 48.6004 52.37C48.1468 52.664 47.7962 52.58 47.5282 52.1389C47.2807 51.7189 47.3632 51.3829 47.7756 51.1309ZM57.8586 53.021C58.1679 48.9887 58.1679 44.9564 57.8586 40.9241C57.8173 40.462 58.0442 40.231 58.539 40.189C59.0339 40.147 59.302 40.357 59.3226 40.8191C59.4669 42.6462 59.5494 44.4733 59.57 46.3005H61.7763C62.2712 46.3005 62.5186 46.5105 62.5186 46.9515C62.5186 47.3926 62.2712 47.6026 61.7763 47.6026H59.57C59.5494 49.4507 59.4669 51.2989 59.3226 53.147C59.2813 53.609 59.0339 53.7981 58.539 53.7561C58.0442 53.7141 57.8173 53.483 57.8586 53.021ZM63.2197 52.391C63.2403 51.9499 63.4465 51.7399 63.8589 51.7609C66.5394 51.9289 69.2406 51.9289 71.9418 51.7609C72.3542 51.7399 72.5604 51.9499 72.581 52.391C72.6016 52.811 72.416 53.042 72.0036 53.063C69.2818 53.231 66.5601 53.231 63.8176 53.063C63.4053 53.042 63.2197 52.811 63.2403 52.391H63.2197ZM71.6531 44.6414C71.6531 47.2876 70.3334 48.6317 67.7148 48.6947C65.0961 48.7577 63.797 47.4556 63.797 44.8304C63.797 42.2052 65.0961 40.8611 67.7148 40.7981C70.3334 40.7351 71.6531 42.0162 71.6531 44.6624V44.6414ZM67.7148 47.4346C69.3231 47.3716 70.1272 46.4475 70.1272 44.6414C70.1272 42.8352 69.3231 41.9952 67.7148 42.0582C66.1064 42.1212 65.3023 43.0452 65.3023 44.8304C65.3023 46.6155 66.1064 47.4976 67.7148 47.4346ZM73.9831 53.021C74.2924 48.9887 74.2924 44.9564 73.9831 40.9241C73.9419 40.462 74.1687 40.231 74.6636 40.189C75.1584 40.147 75.4059 40.357 75.4265 40.8191C75.7564 44.9354 75.7564 49.0307 75.4265 53.147C75.4059 53.609 75.1378 53.7981 74.6636 53.7561C74.1687 53.7141 73.9419 53.483 73.9831 53.021ZM81.1793 42.5622C81.1793 42.1212 81.4268 41.9111 81.9423 41.9111H84.4579V40.7771C84.4579 40.273 84.7053 40 85.2208 40C85.7363 40 85.9837 40.252 85.9837 40.7771V41.9111H88.4787C88.9942 41.9111 89.2416 42.1212 89.2416 42.5622C89.2416 43.0032 88.9942 43.2132 88.4787 43.2132H88.1488C88.5612 43.7173 88.7674 44.4103 88.7674 45.2924C88.7674 47.6446 87.592 48.8627 85.2414 48.9677C82.8908 49.0517 81.6948 47.9176 81.6948 45.5864C81.6948 44.5574 81.9835 43.7803 82.5402 43.2132H81.9629C81.468 43.2132 81.2 43.0032 81.2 42.5622H81.1793ZM85.2208 43.2342C83.8599 43.2973 83.2001 44.0533 83.2001 45.5444C83.2001 47.0355 83.8805 47.7706 85.2208 47.7076C86.5611 47.6446 87.2209 46.8675 87.2209 45.3974C87.2209 44.0323 86.6435 43.3183 85.4888 43.2553H85.2208V43.2342ZM83.3856 51.6559C83.3238 51.0679 83.4887 50.7108 83.9218 50.5848C84.4785 50.4168 84.7672 50.6058 84.829 51.1729L85.0764 53.021C85.1383 53.609 85.427 53.9031 85.9425 53.9031C88.0663 54.0081 90.1695 54.0081 92.2727 53.9031C92.7263 53.8821 92.9325 54.0711 92.9325 54.4491C92.9325 54.9321 92.7057 55.1842 92.2727 55.2262C90.1489 55.3522 87.7982 55.3522 85.2414 55.2262C84.3135 55.1842 83.798 54.7221 83.6743 53.8401L83.3856 51.6349V51.6559ZM91.5716 50.2278C91.8191 47.1195 91.8191 44.0113 91.5716 40.9031C91.5304 40.441 91.7572 40.21 92.2521 40.168C92.7469 40.126 93.015 40.336 93.0356 40.7981C93.1181 41.9321 93.18 43.0662 93.2006 44.1793H95.4687C95.9636 44.1793 96.211 44.3893 96.211 44.8304C96.211 45.2714 95.9636 45.4814 95.4687 45.4814H93.2212C93.2212 47.0985 93.1593 48.7157 93.0356 50.3118C92.9944 50.7738 92.7469 50.9628 92.2521 50.9208C91.7572 50.8788 91.5304 50.6478 91.5716 50.1858V50.2278ZM100.871 52.895C98.273 53 96.9946 51.0469 96.9946 47.0985C96.9946 43.1502 98.2936 41.1341 100.871 41.0501C103.325 40.9451 104.624 42.7092 104.727 46.3215H107.902C107.882 44.5363 107.799 42.7302 107.676 40.9241C107.634 40.462 107.861 40.231 108.356 40.189C108.851 40.147 109.098 40.357 109.119 40.8191C109.449 44.9354 109.449 49.0307 109.119 53.147C109.098 53.609 108.83 53.7981 108.356 53.7561C107.861 53.7141 107.634 53.483 107.676 53.021C107.799 51.2359 107.882 49.4297 107.902 47.6236H104.727C104.541 51.0469 103.263 52.811 100.871 52.895ZM100.871 42.3312C99.2833 42.3732 98.4998 43.9483 98.4998 47.0355C98.4998 50.1228 99.2833 51.6559 100.871 51.6139C102.438 51.5509 103.222 49.9758 103.222 46.8675C103.222 43.7593 102.438 42.2892 100.871 42.3522V42.3312ZM112.892 42.8142H117.387L117.429 41.1131C117.429 40.6511 117.697 40.42 118.192 40.42C118.686 40.42 118.913 40.6511 118.913 41.1131V41.9111H121.821C121.8 41.6171 121.779 41.3441 121.779 41.0291C121.738 40.483 121.965 40.189 122.439 40.147C122.934 40.105 123.181 40.315 123.202 40.7771C123.388 43.1502 123.388 45.5234 123.202 47.8756C123.181 48.3376 122.913 48.5267 122.439 48.4847C121.944 48.4426 121.717 48.1486 121.779 47.6026C121.8 47.2036 121.821 46.7835 121.841 46.3845H118.81C118.666 47.3926 118.047 47.8756 116.954 47.8756H113.325C112.109 47.8756 111.47 47.2456 111.449 45.9855L111.346 41.0711C111.346 40.609 111.593 40.378 112.109 40.378C112.583 40.378 112.83 40.609 112.851 41.0711L112.892 42.7722V42.8142ZM117.346 44.1373H112.913L112.954 45.8174C112.954 46.4265 113.202 46.7205 113.696 46.7205H116.563C117.057 46.7205 117.305 46.4265 117.326 45.8174L117.367 44.1373H117.346ZM123.285 52.454C123.285 54.4281 121.614 55.4572 118.253 55.4992C114.892 55.5622 113.222 54.5961 113.222 52.622C113.222 50.6478 114.892 49.6187 118.253 49.5767C121.614 49.5137 123.285 50.4798 123.285 52.454ZM118.253 54.1971C120.604 54.1341 121.779 53.567 121.779 52.475C121.779 51.3829 120.604 50.8578 118.253 50.9208C115.903 50.9838 114.727 51.5509 114.727 52.643C114.727 53.7351 115.903 54.2601 118.253 54.1971ZM118.872 43.2553L118.831 45.1034H121.862C121.862 44.4943 121.862 43.8643 121.862 43.2553H118.851H118.872ZM124.728 47.6236C124.749 47.1826 124.955 46.9725 125.367 46.9935C129.47 47.2876 133.553 47.2876 137.656 46.9935C138.048 46.9725 138.275 47.1826 138.296 47.6236C138.316 48.0646 138.131 48.2956 137.718 48.3166C133.594 48.5897 129.47 48.5897 125.326 48.3166C124.914 48.2956 124.728 48.0646 124.749 47.6236H124.728ZM136.955 42.7302C136.955 44.5574 135.141 45.4814 131.532 45.5444C127.903 45.6074 126.089 44.7254 126.089 42.8982C126.089 41.0711 127.903 40.126 131.532 40.084C135.141 40.021 136.955 40.9031 136.955 42.7302ZM128.728 55.3312C127.429 55.3312 126.687 54.7011 126.522 53.42L126.274 51.4669C126.151 50.5428 126.646 50.1018 127.78 50.1018H135.223C136.357 50.1018 136.852 50.5638 136.729 51.4669L136.481 53.42C136.316 54.7011 135.574 55.3312 134.275 55.3312H128.728ZM131.512 44.2843C134.13 44.2213 135.43 43.7173 135.43 42.7302C135.43 41.7431 134.13 41.3021 131.512 41.3651C128.893 41.4281 127.573 41.9321 127.573 42.9192C127.573 43.9063 128.893 44.3473 131.512 44.2843ZM128.357 51.4249C127.986 51.4249 127.821 51.6559 127.883 52.1389L127.986 53.126C128.048 53.7141 128.295 54.0291 128.728 54.0291H134.316C134.749 54.0291 134.976 53.7351 135.058 53.126L135.161 52.1389C135.223 51.6559 135.058 51.4249 134.687 51.4249H128.378H128.357ZM146.708 40.7771C146.708 40.273 146.956 40 147.471 40C147.987 40 148.234 40.252 148.234 40.7771V41.7431H148.75C150.069 41.7431 150.75 42.3942 150.75 43.6753C150.75 44.4733 150.523 45.1874 150.09 45.8174C150.729 46.1115 151.348 46.6155 151.946 47.3506C152.234 47.7286 152.214 48.0646 151.905 48.3586C151.533 48.7367 151.224 48.7367 150.935 48.3166C150.441 47.5816 149.801 47.0985 149.038 46.8255C147.966 47.6026 146.42 48.1906 144.378 48.5687C143.904 48.6737 143.636 48.4637 143.574 47.9806C143.492 47.4976 143.677 47.2246 144.131 47.1195C147.595 46.4265 149.327 45.1874 149.327 43.4233C149.327 43.1712 149.224 43.0452 148.997 43.0452H144.688C144.152 43.0452 143.884 42.8142 143.884 42.3732C143.884 41.9321 144.131 41.7221 144.646 41.7221H146.729V40.7561L146.708 40.7771ZM146.193 53.9241C148.853 53.399 150.193 52.2439 150.193 50.4168C150.193 49.8288 150.441 49.5347 150.956 49.5347C151.472 49.5347 151.698 49.8078 151.698 50.3538C151.698 50.7528 151.657 51.1099 151.575 51.4669C153.472 51.9499 154.874 52.853 155.781 54.1761C156.049 54.5541 155.967 54.8691 155.554 55.1422C155.162 55.4572 154.812 55.4152 154.564 55.0372C153.781 53.9031 152.585 53.126 151.018 52.748C150.193 54.0081 148.605 54.8481 146.234 55.2892C145.801 55.3732 145.574 55.1842 145.492 54.7431C145.409 54.3021 145.636 54.0291 146.172 53.9241H146.193ZM154.42 44.3893C154.42 43.2132 154.358 42.0582 154.276 40.9031C154.235 40.441 154.461 40.21 154.956 40.168C155.451 40.126 155.699 40.336 155.719 40.7981C155.946 43.5073 155.946 46.2375 155.719 48.9887C155.678 49.5347 155.431 49.7868 154.936 49.7447C154.441 49.7027 154.214 49.4717 154.255 49.0097C154.338 47.8966 154.379 46.8045 154.4 45.7124H152.709C152.214 45.7124 151.966 45.5024 151.966 45.0614C151.966 44.6204 152.214 44.4103 152.709 44.4103H154.4L154.42 44.3893ZM161.101 46.6155C161.122 46.1745 161.328 45.9645 161.74 45.9855C165.843 46.2585 169.926 46.2585 174.029 45.9855C174.421 45.9645 174.648 46.1745 174.669 46.6155C174.689 47.0355 174.504 47.2666 174.091 47.2876C169.967 47.5606 165.843 47.5606 161.699 47.2876C161.286 47.2666 161.101 47.0355 161.122 46.6155H161.101ZM162.359 41.1761C162.359 40.7351 162.627 40.525 163.142 40.525H172.339C172.875 40.525 173.122 40.7351 173.122 41.1761V41.7851C173.122 42.7932 172.875 43.7593 172.359 44.6624C172.132 45.0824 171.823 45.1664 171.411 44.8934C170.957 44.6414 170.854 44.3053 171.06 43.8853C171.411 43.2553 171.576 42.5622 171.596 41.8271H163.122C162.586 41.8271 162.338 41.6171 162.338 41.1761H162.359ZM162.379 49.5347C162.379 49.1147 162.627 48.8837 163.142 48.8837H172.05C172.957 48.8837 173.37 49.2617 173.266 50.0178L173.081 51.5509C172.978 52.349 172.524 52.748 171.72 52.748H164.256L164.421 54.0291H171.885C172.421 54.0291 172.689 54.2391 172.689 54.6801C172.689 55.1212 172.442 55.3312 171.926 55.3312H164.256C163.472 55.3312 163.039 54.9321 162.936 54.1551L162.75 52.622C162.647 51.8449 163.06 51.4669 164.008 51.4669H171.576L171.72 50.1858H163.142C162.606 50.1858 162.338 49.9758 162.338 49.5347H162.379ZM176.359 42.0582C176.359 41.6171 176.607 41.4071 177.122 41.4071H180.834C182.422 41.4071 183.226 42.1842 183.226 43.7173C183.226 46.1115 182.772 48.0646 181.844 49.5137C182.834 49.9338 183.7 50.5638 184.422 51.4459C184.71 51.8239 184.69 52.1809 184.38 52.475C184.009 52.853 183.7 52.832 183.411 52.412C182.875 51.6139 182.071 51.0048 180.999 50.5848C179.968 51.6349 178.586 52.3489 176.834 52.685C176.359 52.769 176.091 52.559 176.029 52.0759C175.947 51.5929 176.133 51.3199 176.586 51.2359C179.988 50.5428 181.7 47.9386 181.7 43.4443C181.7 42.9612 181.473 42.7092 181.04 42.7092H177.143C176.607 42.7092 176.339 42.4992 176.339 42.0582H176.359ZM186.442 53.021C186.752 48.9887 186.752 44.9564 186.442 40.9241C186.401 40.462 186.628 40.231 187.123 40.189C187.618 40.147 187.886 40.357 187.906 40.8191C188.051 42.6462 188.133 44.4733 188.154 46.3005H190.36C190.855 46.3005 191.102 46.5105 191.102 46.9515C191.102 47.3926 190.855 47.6026 190.36 47.6026H188.154C188.133 49.4507 188.051 51.2989 187.906 53.147C187.865 53.609 187.618 53.7981 187.123 53.7561C186.628 53.7141 186.401 53.483 186.442 53.021ZM191.453 48.3376C191.474 47.8756 191.68 47.6656 192.092 47.6866C196.195 47.9806 200.278 47.9806 204.381 47.6866C204.773 47.6656 205 47.8756 205.021 48.3376C205.041 48.7577 204.856 48.9887 204.443 49.0097C200.319 49.2827 196.195 49.2827 192.051 49.0097C191.639 48.9887 191.453 48.7577 191.474 48.3376H191.453ZM193.206 51.6559C193.123 51.0679 193.288 50.7108 193.7 50.5848C194.257 50.4168 194.566 50.6058 194.649 51.1729L194.855 53.021C194.917 53.609 195.206 53.9031 195.721 53.9031C198.443 53.9871 200.732 53.9871 202.588 53.9031C203.041 53.8821 203.268 54.0711 203.268 54.4491C203.268 54.9321 203.041 55.1842 202.588 55.2262C199.969 55.3522 197.453 55.3522 195.02 55.2262C194.092 55.1842 193.577 54.7221 193.453 53.8401L193.206 51.6349V51.6559ZM193.206 40.9031C193.185 40.42 193.432 40.168 193.969 40.147C194.443 40.147 194.69 40.357 194.711 40.7981L194.752 43.4863C194.752 44.0743 195 44.3893 195.494 44.4313C197.33 44.6414 199.763 44.5994 202.752 44.2633C203.185 44.2213 203.433 44.3893 203.515 44.7884C203.577 45.2294 203.412 45.4814 203 45.5444C199.866 45.9645 197.144 46.0275 194.835 45.7544C193.845 45.6284 193.329 45.1454 193.309 44.2843L193.247 40.8821L193.206 40.9031Z" fill="#231815"/>
<path d="M0.699992 66.1055C0.679372 65.4124 1.07114 65.0764 1.87531 65.0764H6.24666C6.76215 65.0764 7.00959 65.2864 7.00959 65.7274C7.00959 66.1685 6.74153 66.3785 6.20542 66.3785H2.70009C2.37018 66.3785 2.20522 66.6095 2.22584 67.0715L2.37018 74.1701C2.37018 74.7161 2.65885 75.0101 3.21558 75.0521C4.37028 75.1782 5.58684 75.1152 6.90649 74.9051C7.4426 74.8211 7.69003 74.9681 7.69003 75.3462C7.69003 75.8292 7.46322 76.1232 6.98897 76.2072C5.31878 76.5223 3.66921 76.5433 1.99903 76.2702C1.25672 76.1442 0.885568 75.6822 0.864949 74.9051L0.699992 66.0845V66.1055ZM12.7625 69.9488C12.7418 68.1636 12.6594 66.3785 12.5356 64.5723C12.4944 64.1103 12.7212 63.8793 13.2161 63.8373C13.711 63.7953 13.9584 64.0053 13.979 64.4673C14.3089 68.5836 14.3089 72.679 13.979 76.7953C13.9584 77.2573 13.6903 77.4463 13.2161 77.4043C12.7212 77.3623 12.4944 77.1313 12.5356 76.6693C12.6594 74.8631 12.7418 73.078 12.7625 71.2509H10.8655C10.8448 72.994 10.7624 74.7161 10.618 76.4383C10.5768 76.9003 10.3293 77.0893 9.83447 77.0473C9.3396 77.0053 9.11279 76.7743 9.15403 76.3122C9.48394 72.511 9.48394 68.7097 9.15403 64.9084C9.11279 64.4463 9.3396 64.2153 9.83447 64.1733C10.3293 64.1313 10.5974 64.3203 10.618 64.7824C10.7624 66.5045 10.8448 68.2266 10.8655 69.9277H12.7625V69.9488ZM15.5873 72.0069C15.608 71.5449 15.8142 71.3349 16.2265 71.3559C20.3298 71.6499 24.4125 71.6499 28.5158 71.3559C28.9076 71.3349 29.1344 71.5449 29.155 72.0069C29.1757 72.4269 28.9901 72.658 28.5777 72.679C26.9281 72.784 25.2785 72.847 23.6496 72.868V75.1572C23.6496 75.7452 23.4022 76.0392 22.8867 76.0392C22.3712 76.0392 22.1237 75.7452 22.1237 75.1572V72.868C20.1443 72.868 18.1648 72.805 16.1853 72.679C15.7729 72.658 15.5873 72.4269 15.608 72.0069H15.5873ZM19.1545 69.6757C17.9174 69.6757 17.2781 69.0457 17.2575 67.7646L17.1957 65.0764C17.175 64.3833 17.5874 64.0263 18.4122 64.0263H26.3301C27.1549 64.0263 27.5673 64.3833 27.5467 65.0764L27.4848 67.7646C27.4436 69.0457 26.825 69.6757 25.5878 69.6757H19.1545ZM17.34 75.3252C17.2575 74.7371 17.4225 74.3801 17.8349 74.2541C18.3916 74.0861 18.7009 74.2751 18.7834 74.8421L18.9896 76.6903C19.0514 77.2783 19.3401 77.5723 19.8556 77.5723C22.5774 77.6563 24.8662 77.6563 26.7219 77.5723C27.1756 77.5513 27.4024 77.7403 27.4024 78.1184C27.4024 78.6014 27.1756 78.8534 26.7219 78.8954C24.1032 79.0215 21.5876 79.0215 19.1545 78.8954C18.2266 78.8534 17.7112 78.3914 17.5874 77.5093L17.34 75.3042V75.3252ZM19.2164 65.3284C18.8659 65.3284 18.7009 65.5594 18.7215 66.0424L18.7628 67.4286C18.7628 68.0166 19.0102 68.3106 19.4844 68.3106H25.2579C25.7322 68.3106 25.959 68.0166 25.9796 67.4286L26.0209 66.0424C26.0209 65.5594 25.8559 65.3284 25.526 65.3284H19.2164ZM30.8665 65.7274C30.8665 65.2864 31.1139 65.0764 31.6294 65.0764H35.3409C36.9286 65.0764 37.7328 65.8534 37.7328 67.3866C37.7328 69.7807 37.2792 71.7339 36.3513 73.183C37.341 73.603 38.207 74.2331 38.9287 75.1151C39.2174 75.4932 39.1968 75.8502 38.8875 76.1442C38.5163 76.5223 38.207 76.5013 37.9184 76.0812C37.3823 75.2832 36.5781 74.6741 35.5059 74.2541C34.4749 75.3042 33.0934 76.0182 31.3407 76.3542C30.8665 76.4382 30.5984 76.2282 30.5365 75.7452C30.4541 75.2622 30.6396 74.9891 31.0933 74.9051C34.4955 74.2121 36.2069 71.6079 36.2069 67.1135C36.2069 66.6305 35.9801 66.3785 35.5471 66.3785H31.65C31.1139 66.3785 30.8458 66.1685 30.8458 65.7274H30.8665ZM40.9494 76.6903C41.2587 72.658 41.2587 68.6256 40.9494 64.5933C40.9082 64.1313 41.135 63.9003 41.6299 63.8583C42.1248 63.8163 42.3928 64.0263 42.4134 64.4883C42.5578 66.3155 42.6403 68.1426 42.6609 69.9698H44.8672C45.362 69.9698 45.6095 70.1798 45.6095 70.6208C45.6095 71.0618 45.362 71.2719 44.8672 71.2719H42.6609C42.6403 73.12 42.5578 74.9681 42.4134 76.8163C42.3722 77.2783 42.1248 77.4673 41.6299 77.4253C41.135 77.3833 40.9082 77.1523 40.9494 76.6903ZM49.1767 69.4657V71.0618C49.1767 71.3979 49.3004 71.5869 49.5272 71.5869H56.8884C57.4451 71.5869 57.7338 71.7969 57.7338 72.2379C57.7338 72.7 57.4657 72.91 56.9296 72.91H53.4862V75.6822C55.2801 75.6822 57.074 75.5982 58.8679 75.4722C59.2596 75.4512 59.4865 75.6612 59.5071 76.1022C59.5277 76.5223 59.3421 76.7533 58.9297 76.7743C54.8058 77.0683 50.6819 77.0683 46.5374 76.7743C46.125 76.7533 45.9394 76.5223 45.96 76.1022C45.9806 75.6612 46.1868 75.4512 46.5992 75.4722C48.3931 75.5982 50.187 75.6822 52.0015 75.6822V72.91H49.0117C48.1663 72.91 47.7333 72.5109 47.7333 71.6919L47.692 69.2557C47.6714 68.5206 48.0632 68.1426 48.8674 68.1426H56.0224C56.2492 68.1426 56.3729 67.9746 56.3729 67.5966L56.4141 66.0424H48.4344C47.8776 66.0424 47.589 65.8324 47.589 65.3914C47.589 64.9504 47.8158 64.7193 48.2488 64.7193H56.7441C57.5276 64.7193 57.8988 65.0974 57.8988 65.8534L57.8575 68.2686C57.8369 69.0877 57.3833 69.4867 56.5172 69.4867H49.2179L49.1767 69.4657ZM74.5594 66.0424L74.415 71.0408H75.7759C76.2708 71.0408 76.5182 71.2509 76.5182 71.6919C76.5182 72.1539 76.2708 72.3639 75.7759 72.3639H74.2707V75.5982C75.2811 75.5562 76.2914 75.5142 77.3018 75.4302C77.6936 75.4092 77.9204 75.6192 77.941 76.0602C77.9616 76.4803 77.776 76.7113 77.3636 76.7323C73.2397 77.0263 69.1158 77.0263 64.9713 76.7323C64.5589 76.7113 64.3733 76.4803 64.3939 76.0602C64.4145 75.6192 64.6207 75.4092 65.0331 75.4302C66.0435 75.4932 67.0538 75.5562 68.0642 75.5982V72.3639H66.5384C66.0435 72.3639 65.7961 72.1329 65.7961 71.6919C65.7961 71.2719 66.0435 71.0408 66.5384 71.0408H67.8993L67.7549 66.0424H66.394C65.8992 66.0424 65.6517 65.8114 65.6517 65.3494C65.6517 64.9294 65.8992 64.6983 66.394 64.6983H75.9615C76.4564 64.6983 76.7038 64.9084 76.7038 65.3494C76.7038 65.8114 76.4564 66.0424 75.9615 66.0424H74.58H74.5594ZM72.8892 71.0408L73.0541 66.0424H69.2189L69.3632 71.0408H72.8686H72.8892ZM72.7449 72.3639H69.5694V75.6402C70.6417 75.6612 71.6933 75.6612 72.7449 75.6402V72.3639ZM79.4668 65.7274C79.4668 65.2864 79.7143 65.0764 80.2298 65.0764H86.4156C86.9311 65.0764 87.1786 65.2864 87.1786 65.7274V67.3866C87.1786 73.309 84.8279 76.3122 80.1267 76.3962C79.6937 76.3962 79.4668 76.1862 79.4668 75.7452C79.4462 75.3042 79.6524 75.0731 80.0854 75.0731C83.8176 75.0101 85.694 72.4689 85.694 67.4496V66.3995H80.2504C79.7349 66.3995 79.4875 66.1895 79.4875 65.7484L79.4668 65.7274ZM90.0653 76.6903C90.3746 72.658 90.3746 68.6256 90.0653 64.5933C90.0241 64.1313 90.2509 63.9003 90.7458 63.8583C91.2406 63.8163 91.4881 64.0263 91.5087 64.4883C91.8386 68.6046 91.8386 72.7 91.5087 76.8163C91.4881 77.2783 91.22 77.4673 90.7458 77.4253C90.2509 77.3833 90.0241 77.1523 90.0653 76.6903ZM93.4263 67.1135C93.4263 66.6725 93.6737 66.4625 94.1892 66.4625H96.3543V64.6143C96.3543 64.0893 96.6017 63.8373 97.1172 63.8373C97.6327 63.8373 97.8801 64.0893 97.8801 64.6143V66.4625H100.045C100.561 66.4625 100.808 66.6725 100.808 67.1135C100.808 67.5546 100.561 67.7646 100.045 67.7646H94.2098C93.715 67.7646 93.4469 67.5546 93.4469 67.1135H93.4263ZM97.1172 76.5643C94.9934 76.6693 93.9212 75.4722 93.9212 73.036C93.9212 70.5998 94.9934 69.3397 97.1172 69.2557C99.241 69.1507 100.313 70.3268 100.313 72.763C100.313 75.1992 99.241 76.4803 97.1172 76.5643ZM97.0966 70.5368C95.9831 70.5998 95.4264 71.4189 95.4264 72.994C95.4264 74.5691 95.9831 75.3462 97.1172 75.2832C98.2307 75.2202 98.7874 74.3801 98.7874 72.784C98.7874 71.1878 98.2307 70.4738 97.0966 70.5368ZM105.798 69.9488C105.777 68.1636 105.695 66.3785 105.571 64.5723C105.53 64.1103 105.757 63.8793 106.252 63.8373C106.747 63.7953 106.994 64.0053 107.015 64.4673C107.345 68.5836 107.345 72.679 107.015 76.7953C106.994 77.2573 106.726 77.4463 106.252 77.4043C105.757 77.3623 105.53 77.1313 105.571 76.6693C105.695 74.8631 105.777 73.078 105.798 71.2509H103.901C103.88 72.994 103.798 74.7161 103.654 76.4383C103.612 76.9003 103.365 77.0893 102.87 77.0473C102.375 77.0053 102.148 76.7743 102.19 76.3122C102.52 72.511 102.52 68.7097 102.19 64.9084C102.148 64.4463 102.375 64.2153 102.87 64.1733C103.365 64.1313 103.633 64.3203 103.654 64.7824C103.798 66.5045 103.88 68.2266 103.901 69.9277H105.798V69.9488ZM112.314 72.1959C112.314 72.1959 112.314 72.0279 112.314 71.9439C110.747 71.3769 109.963 70.2218 109.963 68.4786C109.963 65.8534 111.778 64.5093 115.407 64.4463C119.015 64.3833 120.83 65.6644 120.83 68.3106C120.83 70.0538 120.046 71.2509 118.458 71.8599C118.479 71.9649 118.5 72.0699 118.5 72.1959V75.5982C119.51 75.5562 120.52 75.5142 121.531 75.4302C121.923 75.4092 122.149 75.6192 122.17 76.0602C122.191 76.4803 122.005 76.7113 121.593 76.7323C117.469 77.0263 113.345 77.0263 109.2 76.7323C108.788 76.7113 108.602 76.4803 108.623 76.0602C108.644 75.6192 108.85 75.4092 109.262 75.4302C110.273 75.4932 111.283 75.5562 112.293 75.5982V72.1959H112.314ZM115.427 71.1038C118.046 71.0408 119.345 70.1168 119.345 68.3106C119.345 66.5045 118.046 65.6644 115.427 65.7274C112.809 65.7904 111.489 66.7145 111.489 68.4996C111.489 70.2848 112.809 71.1668 115.427 71.1038ZM116.995 72.2379C116.5 72.3219 115.984 72.3639 115.407 72.3639C114.829 72.3639 114.293 72.3639 113.819 72.3009V75.6402C114.891 75.6612 115.943 75.6612 116.995 75.6402V72.2589V72.2379ZM123.366 76.4172C123.366 75.8292 123.675 75.5352 124.294 75.5352C124.912 75.5352 125.201 75.8292 125.201 76.4172V76.5643C125.201 77.1523 124.892 77.4463 124.294 77.4463C123.696 77.4463 123.366 77.1523 123.366 76.5643V76.4172Z" fill="#231815"/>
</g>
<path d="M41.8884 15.1113C41.7967 20.0798 39.2997 23.3768 34.53 24.7272C33.9083 24.9056 33.6586 25.1961 33.4446 25.7566C32.4865 28.2842 30.6367 29.7161 27.9257 29.8792C25.0771 30.0524 22.9165 28.8753 21.6985 26.256C21.3673 25.5426 20.9342 25.2317 20.2004 25.1808C18.9824 25.0891 17.8919 24.6559 17.0409 23.7743C16.5976 23.3157 16.302 23.3106 15.8077 23.7437C14.2178 25.14 12.3374 25.563 10.2634 25.2063C7.21604 24.6865 5.26942 22.5258 5.09106 19.4275C4.99933 17.7867 4.9229 16.1458 4.89742 14.5049C4.88723 13.8679 4.69358 13.5825 4.06169 13.343C1.18252 12.2372 -0.13222 10.0919 0.0104643 6.92732C0.132766 4.22141 1.83479 1.87221 4.59166 1.24032C8.78048 0.28229 13.0304 -0.395463 17.3467 0.486125C17.8359 0.588043 18.2486 0.445358 18.6971 0.317961C22.3101 -0.69612 25.5103 0.751111 27.0339 4.15007C27.3295 4.80744 27.7015 4.86859 28.2926 4.8533C30.494 4.80234 32.67 5.03165 34.7899 5.64826C39.208 6.93242 41.97 10.632 41.8884 15.1062V15.1113ZM25.5714 21.262C25.5714 21.9806 25.5459 22.694 25.5765 23.4125C25.6326 24.7935 26.2237 25.4305 27.4518 25.4712C28.471 25.5069 29.2557 24.7578 29.3679 23.5297C29.4443 22.694 29.4188 21.843 29.4086 21.0022C29.4035 20.4569 29.5411 20.2327 30.1424 20.411C31.0036 20.6709 31.9056 20.6047 32.7821 20.5282C34.9173 20.3448 36.604 18.923 37.1544 16.8898C37.8015 14.5049 37.1136 12.2576 35.381 10.9735C33.8879 9.86255 32.1196 9.64343 30.3666 9.44979C27.2276 9.11346 26.8505 9.42431 26.2848 12.5634C26.2186 12.9354 26.1523 13.3074 26.1218 13.6845C26.0555 14.4845 25.9944 15.2234 25.2402 15.7891C24.6338 16.2426 24.5879 17.1497 24.9752 17.644C25.8772 18.7854 25.5612 20.0288 25.5714 21.2569V21.262ZM13.2037 16.1152C13.2037 16.1152 13.168 16.1152 13.1477 16.1152C13.1477 15.1878 13.1782 14.2603 13.1375 13.3379C13.0967 12.3697 12.9999 11.4066 12.9234 10.4435C12.8249 9.16272 13.4143 8.49176 14.6917 8.43061C16.2154 8.35417 16.9849 7.7019 16.9747 6.47889C16.9696 5.26606 16.2256 4.61889 14.6255 4.64946C12.8164 4.68513 11.0074 4.83291 9.20854 4.99089C8.03648 5.0928 6.85424 5.16924 5.72805 5.56672C4.6732 5.93872 4.11775 7.02414 4.40312 8.08409C4.64772 8.99625 5.61594 9.46507 6.74722 9.21028C7.03259 9.14403 7.31287 9.05231 7.59314 8.96568C8.46454 8.6905 8.84163 8.87395 8.93845 9.90842C9.22892 12.9252 9.3767 15.947 9.43275 18.9791C9.45823 20.3499 10.0341 20.8544 11.2775 20.8493C12.5514 20.8391 13.1171 20.3397 13.1935 19.03C13.2496 18.0669 13.2037 17.0936 13.2037 16.1254V16.1152ZM23.1101 16.6248C23.1407 14.9839 23.0235 13.3583 22.6617 11.7531C22.4018 10.6015 21.6935 10.0256 20.4857 10.1428C19.227 10.2651 18.8499 11.2181 18.8907 12.2016C18.9824 14.5864 19.2321 16.9662 19.436 19.346C19.5328 20.5079 20.2462 20.8849 21.3418 20.8493C22.4884 20.8136 23.0439 20.2276 23.0999 19.1473C23.1458 18.3115 23.1101 17.4707 23.1101 16.6299V16.6248ZM22.8502 6.30562C23.1967 5.24059 22.4935 4.58322 21.5304 4.44563C19.7825 4.19593 18.5748 5.20491 18.5493 6.69801C18.5238 8.00765 19.3188 8.86886 20.5927 8.91472C22.0756 8.96568 22.7993 8.17072 22.8502 6.31072V6.30562Z" fill="#6A83B4"/>
<path d="M25.5719 21.2572C25.5566 20.0291 25.8777 18.7857 24.9757 17.6442C24.5833 17.1499 24.6292 16.2479 25.2407 15.7893C25.9949 15.2237 26.056 14.4797 26.1223 13.6847C26.1529 13.3076 26.2191 12.9356 26.2853 12.5636C26.851 9.42965 27.2281 9.11371 30.3672 9.45004C32.1252 9.63858 33.8884 9.8628 35.3815 10.9737C37.1141 12.263 37.802 14.5052 37.1549 16.89C36.6045 18.9233 34.9178 20.345 32.7826 20.5285C31.901 20.6049 31.0041 20.6712 30.1429 20.4113C29.5416 20.2278 29.3989 20.4571 29.4091 21.0024C29.4193 21.8432 29.4448 22.6942 29.3684 23.53C29.2562 24.7581 28.4664 25.5072 27.4523 25.4715C26.2242 25.4256 25.6382 24.7937 25.577 23.4128C25.5464 22.6993 25.5719 21.9808 25.5719 21.2623V21.2572ZM31.473 16.783C32.8539 16.8136 33.5776 16.2683 33.6285 15.2441C33.6846 14.1586 32.4921 13.2006 30.8767 13.2261C29.0932 13.2567 29.9442 14.8058 29.7709 15.6161C29.455 17.1091 30.8971 16.4925 31.473 16.7881V16.783Z" fill="#FCFCFC"/>
<path d="M13.2027 16.1137C13.2027 17.0819 13.2486 18.0552 13.1925 19.0183C13.1161 20.328 12.5505 20.8274 11.2765 20.8376C10.028 20.8478 9.45725 20.3382 9.43177 18.9674C9.38082 15.9353 9.22794 12.9186 8.93747 9.8967C8.84065 8.86224 8.45846 8.67369 7.59216 8.95396C7.31189 9.04569 7.03161 9.13232 6.74624 9.19856C5.61496 9.45845 4.64674 8.98963 4.40214 8.07237C4.11677 7.01753 4.67731 5.92701 5.72707 5.55501C6.84816 5.15753 8.0355 5.08109 9.20756 4.97917C11.0115 4.8212 12.8205 4.67342 14.6245 4.63775C16.2297 4.60717 16.9686 5.25944 16.9737 6.46717C16.9788 7.69018 16.2144 8.34246 14.6907 8.41889C13.4168 8.48344 12.8273 9.1544 12.9225 10.4318C12.9938 11.3949 13.0957 12.358 13.1365 13.3262C13.1722 14.2486 13.1467 15.176 13.1467 16.1035C13.1671 16.1035 13.1823 16.1035 13.2027 16.1035V16.1137Z" fill="#FCFCFC"/>
<path d="M22.8389 16.5879C22.8389 17.4288 22.8745 18.2696 22.8287 19.1053C22.7726 20.1907 22.2121 20.7717 21.0706 20.8073C19.975 20.843 19.2615 20.4659 19.1647 19.304C18.9609 16.9243 18.7112 14.5445 18.6195 12.1596C18.5838 11.1812 18.9609 10.2232 20.2145 10.1009C21.4222 9.98367 22.1254 10.5595 22.3904 11.7112C22.7522 13.3164 22.8694 14.942 22.8389 16.5828V16.5879Z" fill="#FCFCFC"/>
<path d="M22.8484 6.30914C22.7974 8.16914 22.0738 8.9692 20.5909 8.91314C19.3119 8.86728 18.522 8.00607 18.5475 6.69643C18.578 5.20843 19.7858 4.19435 21.5286 4.44405C22.4917 4.58164 23.1949 5.2441 22.8484 6.30405V6.30914Z" fill="#FCFCFC"/>
<path d="M31.4717 16.7879C30.85 16.6962 29.0053 17.1395 29.3213 15.6464C29.4945 14.8362 29.0868 13.2615 30.8704 13.231C32.4858 13.2055 33.6782 14.1635 33.6222 15.2489C33.5712 16.2732 32.8476 16.8185 31.4666 16.7879H31.4717Z" fill="#6A83B4"/>
<defs>
<clipPath id="clip0_2622_6685">
<rect width="205" height="39" fill="white" transform="translate(0 40)"/>
</clipPath>
</defs>
</svg>
