<svg width="60" height="68" viewBox="0 0 60 68" fill="none" xmlns="http://www.w3.org/2000/svg">
<path d="M33.525 0.210112C17.0743 -1.72998 2.15748 9.98245 0.209825 26.3693C-0.298919 30.6428 0.133894 34.8104 1.32982 38.6717C7.21455 62.1457 33.6655 68 33.6655 68C30.146 65.243 28.3312 62.2856 27.439 59.6459C43.5062 61.0262 57.8802 49.4613 59.7898 33.396C61.7337 17.0054 49.9756 2.14643 33.525 0.210112Z" fill="#895AC3"/>
<path d="M16.4917 35.1013C16.4917 35.5433 16.3476 35.9372 16.0593 36.2734C15.7711 36.6097 15.3387 36.7827 14.7623 36.7827C13.6382 36.7827 13.0809 36.2254 13.0809 35.1013V33.7274C13.0809 33.2566 13.0041 32.8435 12.8503 32.5072C12.6966 32.1709 12.2643 31.998 11.5533 31.998H7.68136C7.10489 31.998 6.68215 31.8154 6.40353 31.46C6.13451 31.1045 6 30.7394 6 30.3647C6 29.9611 6.15372 29.5864 6.46117 29.2406C6.76862 28.9043 7.17215 28.7314 7.68136 28.7314H21.9393C22.4485 28.7314 22.8424 28.9043 23.1402 29.2406C23.4285 29.5768 23.5726 29.9515 23.5726 30.3647C23.5726 30.7394 23.4477 31.1045 23.1883 31.46C22.9289 31.8154 22.5157 31.998 21.9393 31.998H17.9713C17.2891 31.998 16.876 32.1709 16.7223 32.5072C16.5685 32.8435 16.4917 33.2566 16.4917 33.7274V35.1013ZM8.14253 36.7827C8.14253 36.3023 8.30586 35.9083 8.62292 35.5817C8.94958 35.255 9.3435 35.1013 9.82389 35.1013C10.3043 35.1013 10.6982 35.2646 11.0249 35.5817C11.3515 35.8987 11.5052 36.3023 11.5052 36.7827V40.3952C11.5052 40.9332 11.6494 41.4712 11.9376 41.9997C12.2258 42.5281 12.8503 42.7875 13.7919 42.7875H20.0081C20.4789 42.7875 20.8824 42.9316 21.2091 43.2199C21.5357 43.5081 21.6895 43.8924 21.6895 44.3632C21.6895 44.8724 21.5261 45.2663 21.2091 45.5641C20.8824 45.8524 20.4885 45.9965 20.0081 45.9965H10.8903C10.1409 45.9965 9.49722 45.7467 8.95919 45.2567C8.41155 44.7667 8.14253 44.0557 8.14253 43.143V36.7827ZM11.1978 25.7337C10.3811 25.7337 9.70859 25.4839 9.18978 24.9747C8.66135 24.4655 8.40194 23.7834 8.40194 22.9379V16.3662C8.40194 15.5495 8.66135 14.877 9.18978 14.3581C9.7182 13.8297 10.3907 13.5703 11.1978 13.5703H18.0673C18.9513 13.5703 19.643 13.8297 20.1522 14.3581C20.6614 14.8866 20.9112 15.5591 20.9112 16.3662V22.9379C20.9112 23.7834 20.6614 24.4655 20.1522 24.9747C19.643 25.4839 18.9513 25.7337 18.0673 25.7337H11.1978ZM11.707 20.4879C11.707 21.1028 11.8127 21.6024 12.0145 21.9867C12.2162 22.3806 12.6774 22.5728 13.3884 22.5728H15.7327C16.4821 22.5728 16.9625 22.3806 17.1834 21.9867C17.4044 21.5928 17.5101 21.0932 17.5101 20.4879V18.6528C17.5101 18.1436 17.3948 17.7016 17.1834 17.3269C16.9625 16.9522 16.4628 16.7697 15.6846 16.7697H13.4941C12.7831 16.7697 12.3027 16.9619 12.0721 17.3558C11.8319 17.7497 11.7166 18.182 11.7166 18.6528V20.4879H11.707Z" fill="white"/>
<path d="M36.744 28.2259C36.744 28.7063 36.8113 29.1194 36.9458 29.4749C37.0803 29.8304 37.503 30.013 38.2236 30.013H42.0955C42.672 30.013 43.0947 30.1859 43.3734 30.5222C43.6424 30.8584 43.7769 31.2139 43.7769 31.5886C43.7769 32.0306 43.6232 32.4149 43.3157 32.732C43.0083 33.0586 42.6047 33.2123 42.0955 33.2123H28.0874C27.5782 33.2123 27.1747 33.049 26.8864 32.732C26.5982 32.4053 26.4541 32.0306 26.4541 31.5886C26.4541 31.2139 26.5886 30.8584 26.8576 30.5222C27.1266 30.1859 27.5398 30.013 28.0778 30.013H31.796C32.507 30.013 32.9297 29.8304 33.0738 29.4749C33.2084 29.1194 33.2756 28.7063 33.2756 28.2259V26.5926C33.2756 26.4869 33.2948 26.3908 33.3236 26.2851C32.065 25.9777 31.0274 25.3244 30.1915 24.3252C29.3556 23.326 28.9425 22.1442 28.9425 20.7895C28.9425 19.6654 29.2115 18.7046 29.7592 17.888H28.587C27.5302 17.888 27.0114 17.3595 27.0114 16.3123C27.0114 15.2651 27.5398 14.7366 28.587 14.7366H32.507C33.0162 14.7366 33.266 14.3811 33.266 13.6702V11.6333C33.266 11.1625 33.4389 10.7686 33.7752 10.4612C34.1115 10.1537 34.5246 10 34.9954 10C35.4662 10 35.8697 10.1537 36.1964 10.4612C36.523 10.7686 36.6768 11.1529 36.6768 11.6333V13.6221C36.6768 14.0641 36.7152 14.3523 36.8017 14.4868C36.8881 14.6213 37.0995 14.7078 37.4358 14.7462H41.25C41.7208 14.7462 42.1244 14.8903 42.451 15.1786C42.7777 15.4668 42.9314 15.8511 42.9314 16.3219C42.9314 16.7927 42.7681 17.177 42.451 17.4652C42.1244 17.7535 41.7304 17.8976 41.25 17.8976H40.1259C40.395 18.205 40.6063 18.6566 40.7601 19.2427C40.9138 19.8383 40.9906 20.3572 40.9906 20.7991C40.9906 22.1538 40.5775 23.326 39.7416 24.3156C38.9058 25.3052 37.8681 25.9585 36.6095 26.3044C36.6383 26.41 36.6671 26.5061 36.6864 26.6118C36.7056 26.7175 36.7152 26.8136 36.7152 26.9193V28.2451L36.744 28.2259ZM32.0554 20.6934C32.0554 21.5101 32.3533 22.1634 32.9489 22.6534C33.5446 23.1434 34.2268 23.3932 35.0146 23.3932C35.8024 23.3932 36.4173 23.1434 36.9746 22.6534C37.5318 22.1634 37.8105 21.5101 37.8105 20.6934C37.8105 19.8768 37.5318 19.1658 36.9746 18.6566C36.4173 18.1474 35.764 17.888 35.0146 17.888C34.2652 17.888 33.5446 18.1474 32.9489 18.6566C32.3533 19.1658 32.0554 19.8479 32.0554 20.6934ZM45.4006 13.92C45.4006 13.4108 45.5639 13.0072 45.881 12.6998C46.198 12.3923 46.6208 12.2386 47.13 12.2386C47.7449 12.2386 48.1772 12.4019 48.427 12.719C48.6768 13.0457 48.8114 13.4396 48.8114 13.92V16.8695C48.8114 17.3115 48.8882 17.7054 49.0419 18.0417C49.1957 18.378 49.628 18.5509 50.339 18.5509H52.0684C52.6448 18.5509 53.058 18.7238 53.3174 19.0601C53.5768 19.3964 53.7017 19.7519 53.7017 20.1266C53.7017 21.145 53.1541 21.6542 52.0684 21.6542H50.339C49.6953 21.6542 49.2821 21.7983 49.09 22.0866C48.9074 22.3748 48.8114 22.7591 48.8114 23.2299V28.274C48.8114 28.7543 48.648 29.1579 48.331 29.4941C48.0043 29.8304 47.6104 30.0033 47.13 30.0033C46.6496 30.0033 46.2461 29.8304 45.9098 29.4941C45.5735 29.1579 45.4006 28.7447 45.4006 28.274V13.92Z" fill="white"/>
</svg>
