<svg width="304" height="214" viewBox="0 0 304 214" fill="none" xmlns="http://www.w3.org/2000/svg">
<path d="M151.668 1C192.979 1.00002 228.832 5.36968 255.252 20.5078C281.767 35.7005 298.642 61.6526 302.164 104.418C304.464 132.34 287.367 155.025 259.562 170.659C251.593 175.14 242.73 179.049 233.166 182.35L260.651 208.086C262.533 209.848 260.84 212.959 258.339 212.337L182.135 193.39C172.235 194.454 162.037 195 151.668 195C110.284 195 71.7063 187.358 43.9463 172.25C16.1602 157.128 -0.906531 134.438 1.16992 104.431C3.94105 64.3859 20.8318 38.4492 47.5068 22.5781C74.1059 6.75228 110.324 1 151.668 1Z" fill="#ED9C9B" stroke="#E6746F" stroke-width="2"/>
<path d="M71.9567 48.12C66.0367 48.12 63.3567 44.88 63.3567 41.84V40.56C63.3567 37.48 66.0367 34.28 71.9567 34.28C77.8767 34.28 80.5567 37.52 80.5567 40.56V41.84C80.5567 44.88 77.8767 48.12 71.9567 48.12ZM66.7167 54.04V50.64H90.0367V62.96H86.0767V54.04H66.7167ZM95.2767 35.4V38.84H90.0367V48.72H86.1167V25.72H90.0367V35.4H95.2767ZM82.5167 29.6V32.92H61.3567V29.6H69.9967V25.24H73.9167V29.6H82.5167ZM71.9567 44.96C75.1967 44.96 76.7967 43.24 76.7967 41.64V40.76C76.7967 39.16 75.2367 37.44 71.9567 37.44C68.6767 37.44 67.1167 39.16 67.1167 40.76V41.64C67.1167 43.24 68.7167 44.96 71.9567 44.96ZM115.651 54.32H129.171V57.68H95.3308V54.32H103.011V41.56H106.891V54.32H111.771V41.56H115.651V54.32ZM99.4908 29H124.571V33.84C124.571 41 124.291 45 123.411 50L119.491 49.52C120.491 44.44 120.651 40.2 120.651 35.24V32.44H99.4908V29ZM138.745 28.48C144.065 28.48 146.865 32.04 146.865 39.08V39.2H150.665V26.48H154.545V60.8H150.665V42.64H146.865V43C146.865 50.04 144.065 53.6 138.745 53.6C133.425 53.6 130.625 50.04 130.625 43V39.08C130.625 32.04 133.425 28.48 138.745 28.48ZM161.865 25.72V62.6H157.985V25.72H161.865ZM138.745 50.12C141.705 50.12 143.105 47.96 143.105 42.56V39.52C143.105 34.12 141.705 32 138.745 32C135.785 32 134.385 34.12 134.385 39.52V42.56C134.385 47.96 135.785 50.12 138.745 50.12ZM203.439 42.36V62.6H199.599V25.72H203.439V38.92H208.519V42.36H203.439ZM197.679 48.92L198.039 52.28C195.999 52.56 192.479 52.84 188.679 52.84H186.599V29.08H196.359V32.52H190.319V49.4C193.079 49.4 195.559 49.24 197.679 48.92ZM185.079 49L185.399 52.32C183.159 52.64 179.879 52.84 177.039 52.84H175.159V29.08H184.439V32.52H178.959V49.4C180.959 49.4 182.879 49.32 185.079 49ZM227.093 42.44H214.533V50.2H217.893C223.213 50.2 226.333 50 230.493 49.4L230.933 52.76C227.213 53.32 223.573 53.6 216.933 53.6H210.613V39.12H223.173V32.08H210.493V28.68H227.093V42.44ZM243.213 39.2V42.64H237.533V62.6H233.573V25.72H237.533V39.2H243.213ZM92.5167 114.84H68.6367V104.76H87.5967V101.2H68.4367V97.92H91.4767V107.96H72.5167V111.56H92.5167V114.84ZM91.4767 96.08H87.5567V77.72H91.4767V96.08ZM71.3967 78.24C77.3967 78.24 80.5567 82.16 80.5567 85.84V87.44C80.5567 91.12 77.3967 95.04 71.3967 95.04C65.3967 95.04 62.2367 91.12 62.2367 87.44V85.84C62.2367 82.16 65.3967 78.24 71.3967 78.24ZM71.3967 91.64C74.8367 91.64 76.7567 89.48 76.7567 87.2V86.08C76.7567 83.84 74.8367 81.68 71.3967 81.68C67.9567 81.68 66.0367 83.8 66.0367 86.08V87.2C66.0367 89.48 67.9567 91.64 71.3967 91.64ZM124.851 114.6H120.931V77.72H124.851V91.32H130.371V94.76H124.851V114.6ZM118.571 102.04L118.891 105.48C112.251 106.12 108.091 106.32 95.4508 106.32V102.88C98.1708 102.88 100.571 102.88 102.651 102.84V91.8H106.571V102.76C111.411 102.64 114.651 102.4 118.571 102.04ZM97.2508 84.64V81.2H115.891V86.72C115.891 89.36 115.651 94.56 114.971 97.72L111.091 97.24C111.891 93.4 111.971 89.32 111.971 87.36V84.64H97.2508ZM170.305 114.6H166.345V77.72H170.305V114.6ZM151.345 96.16H151.305C150.945 97.04 150.265 97.84 148.985 99.24C147.345 101.04 145.225 103.16 142.505 105.64L139.905 102.96C142.345 100.8 144.425 98.76 146.225 96.76C148.665 94 149.305 92.2 149.305 89.36V80.36H153.305V89.36C153.305 92.52 154.065 94.16 156.505 96.88C158.225 98.76 159.985 100.44 162.385 102.56L159.825 105.28C157.065 102.72 155.265 100.92 153.745 99.28C152.625 98.08 151.665 96.96 151.345 96.16ZM188.159 86.36V83.44H176.399V80.08H192.039V86.56C192.039 92.48 189.279 95 176.439 100.52L174.879 97.32C186.319 92.32 188.159 90.4 188.159 86.36ZM208.519 88.08V91.52H203.279V104.04H199.359V77.72H203.279V88.08H208.519ZM184.719 102.08V110.76H204.279V114.2H180.759V102.08H184.719ZM208.573 96.68H242.413V100.04H208.573V96.68ZM217.413 103.24V110.76H238.253V114.2H213.453V103.24H217.413ZM225.493 78.16C232.893 78.16 237.333 81.48 237.333 85.52V86.72C237.333 90.76 232.893 94.08 225.493 94.08C218.093 94.08 213.653 90.76 213.653 86.72V85.52C213.653 81.48 218.093 78.16 225.493 78.16ZM225.493 90.8C230.413 90.8 233.453 88.76 233.453 86.56V85.68C233.453 83.48 230.413 81.44 225.493 81.44C220.573 81.44 217.533 83.48 217.533 85.68V86.56C217.533 88.76 220.573 90.8 225.493 90.8ZM48.9508 148.96H48.9108C48.5508 149.84 47.8308 150.72 46.5508 152.12C44.9108 153.92 42.9108 155.96 40.2308 158.44L37.6308 155.76C40.0308 153.6 41.9908 151.64 43.7908 149.64C46.4308 146.72 46.8708 145.2 46.8708 142.24V138.52H38.6308V135.08H46.8708V129.88H50.8708V135.08H58.7908V138.52H50.8708V142.24C50.8708 145.4 51.3108 146.6 54.1508 149.68C55.8708 151.56 57.5508 153.12 59.9108 155.2L57.3108 157.88C54.5908 155.4 52.9108 153.72 51.3908 152.08C50.2708 150.88 49.2708 149.76 48.9508 148.96ZM72.3508 143.44V146.88H66.6708V166.6H62.7108V129.72H66.6708V143.44H72.3508ZM102.805 166.6H98.8448V129.72H102.805V166.6ZM83.4048 132.2C88.8048 132.2 92.7248 135.88 92.7248 142.92V147.08C92.7248 154.12 88.8048 157.76 83.4048 157.76C78.0048 157.76 74.0848 154.12 74.0848 147.08V142.92C74.0848 135.84 78.0048 132.2 83.4048 132.2ZM83.4048 154.2C86.2848 154.2 88.9248 152.16 88.9248 146.52V143.48C88.9248 137.84 86.2448 135.8 83.4048 135.8C80.5248 135.8 77.8848 137.84 77.8848 143.48V146.52C77.8848 152.16 80.5248 154.2 83.4048 154.2ZM141.219 143.36V146.8H135.539V166.6H131.579V129.72H135.539V143.36H141.219ZM109.499 158.48L107.419 155.32C120.179 147.84 120.659 145.8 120.659 140.12V136.56H108.139V133.16H124.579V140.16C124.579 147.44 124.099 149.64 109.499 158.48ZM170.993 138.8V140.76C170.993 143.96 168.313 148.72 161.833 148.72C155.353 148.72 152.673 143.96 152.673 140.76V138.8C152.673 135.6 155.353 130.84 161.833 130.84C168.313 130.84 170.993 135.6 170.993 138.8ZM174.353 151.88H178.193V155.28C178.193 157.36 178.393 158.16 180.033 159.68C181.393 160.96 183.193 162.52 185.273 164.04L183.113 166.76C181.193 165.32 179.153 163.56 178.113 162.64C177.033 161.68 176.513 161 176.273 160.56C176.033 161.04 175.593 161.68 174.713 162.56C173.393 163.84 171.553 165.4 169.753 166.8C167.953 165.4 166.113 163.84 164.793 162.56C163.913 161.68 163.473 161.04 163.233 160.56C162.993 161 162.473 161.68 161.393 162.64C160.353 163.56 158.313 165.32 156.393 166.76L154.233 164.04C156.313 162.52 158.113 160.96 159.473 159.68C161.113 158.16 161.313 157.36 161.313 155.28V151.88H165.153V155.28C165.153 157.48 165.353 158.16 166.793 159.76C167.553 160.6 168.473 161.4 169.753 162.52C171.033 161.4 171.953 160.6 172.713 159.76C174.153 158.16 174.353 157.48 174.353 155.28V151.88ZM167.193 140.6V138.96C167.193 136.56 165.153 134.28 161.833 134.28C158.513 134.28 156.473 136.56 156.473 138.96V140.6C156.473 143 158.513 145.28 161.833 145.28C165.153 145.28 167.193 143 167.193 140.6ZM181.633 149.76H177.713V129.72H181.633V149.76ZM216.327 166.6H212.367V146.16H205.247V147.08C205.247 154.12 201.367 157.72 195.967 157.72C190.567 157.72 186.687 154.12 186.687 147.08V142.92C186.687 135.84 190.567 132.24 195.967 132.24C201.287 132.24 205.167 135.8 205.247 142.68H212.367V129.72H216.327V166.6ZM195.967 154.16C198.847 154.16 201.447 152.16 201.447 146.52V143.48C201.447 137.84 198.847 135.84 195.967 135.84C193.087 135.84 190.487 137.84 190.487 143.48V146.52C190.487 152.16 193.087 154.16 195.967 154.16ZM245.301 158.32H253.741V161.68H219.901V158.32H228.341V149.4C225.941 147.84 224.421 145.56 224.421 142.64V140.72C224.421 135.16 230.061 131.72 236.821 131.72C243.581 131.72 249.221 135.16 249.221 140.72V142.64C249.221 145.56 247.701 147.84 245.301 149.4V158.32ZM236.821 135.16C232.221 135.16 228.301 137.36 228.301 140.92V142.44C228.301 146 232.221 148.2 236.821 148.2C241.421 148.2 245.341 146 245.341 142.44V140.92C245.341 137.36 241.421 135.16 236.821 135.16ZM236.821 151.6C235.221 151.6 233.661 151.4 232.261 151.04V158.32H241.381V151.04C239.941 151.4 238.421 151.6 236.821 151.6ZM257.635 163.68V159.08H262.195V163.68H257.635Z" fill="black"/>
</svg>
