<svg width="76" height="76" viewBox="0 0 76 76" fill="none" xmlns="http://www.w3.org/2000/svg">
<mask id="mask0_372_58" style="mask-type:alpha" maskUnits="userSpaceOnUse" x="0" y="0" width="76" height="76">
<circle cx="38" cy="38" r="38" fill="#D9D9D9"/>
</mask>
<g mask="url(#mask0_372_58)">
<path d="M39.5887 44.2656H36.2852V62.2918H39.5887V44.2656Z" fill="white"/>
<path d="M39.611 62.9627H36.3075C35.9503 62.9627 35.6602 62.6705 35.6602 62.3109V44.2846C35.6602 43.925 35.9503 43.6328 36.3075 43.6328H39.611C39.9682 43.6328 40.2584 43.925 40.2584 44.2846V62.3109C40.2584 62.6705 39.9682 62.9627 39.611 62.9627ZM36.9325 61.659H38.9414V44.9365H36.9325V61.659Z" fill="#3E3A39"/>
<path d="M53.6964 29.3C53.6964 37.931 46.7545 44.9437 38.1607 44.9437C29.567 44.9437 22.625 37.9534 22.625 29.3C22.625 20.6465 29.567 13.6562 38.1607 13.6562C46.7545 13.6562 53.6964 20.6465 53.6964 29.3Z" fill="#FBDACF"/>
<path d="M38.183 45.5911C29.2545 45.5911 22 38.2862 22 29.2955C22 20.3049 29.2545 13 38.183 13C47.1116 13 54.3661 20.3049 54.3661 29.2955C54.3661 38.2862 47.1116 45.5911 38.183 45.5911ZM38.183 14.3261C29.9688 14.3261 23.2946 21.0466 23.2946 29.318C23.2946 37.5894 29.9688 44.3099 38.183 44.3099C46.3973 44.3099 53.0714 37.5894 53.0714 29.318C53.0714 21.0466 46.3973 14.3261 38.183 14.3261Z" fill="#3E3A39"/>
<path d="M40.103 43.9774C32.2905 43.9774 25.9512 37.5716 25.9512 29.7273C25.9512 22.9843 31.3976 17.5 38.094 17.5C43.8306 17.5 48.4958 22.1976 48.4958 27.9741C48.4958 32.9414 44.478 36.9872 39.5449 36.9872C35.3039 36.9872 31.844 33.5033 31.844 29.2328C31.844 25.5466 34.8351 22.5348 38.4958 22.5348C41.6655 22.5348 44.2324 25.1196 44.2324 28.3112C44.2324 31.0759 42.0003 33.3235 39.2547 33.3235C36.8664 33.3235 34.9244 31.3681 34.9244 28.9631C34.9244 28.6034 35.2146 28.3112 35.5717 28.3112C35.9289 28.3112 36.219 28.6034 36.219 28.9631C36.219 30.6488 37.5806 32.0199 39.2547 32.0199C41.286 32.0199 42.9378 30.3566 42.9378 28.3112C42.9378 25.8388 40.9512 23.8384 38.4958 23.8384C35.5494 23.8384 33.1387 26.2659 33.1387 29.2328C33.1387 32.7841 36.0181 35.6836 39.5449 35.6836C43.7637 35.6836 47.2012 32.2222 47.2012 27.9741C47.2012 22.9169 43.1164 18.8036 38.094 18.8036C32.1119 18.8036 27.2458 23.7035 27.2458 29.7273C27.2458 36.8748 33.0047 42.6738 40.103 42.6738C42.8931 42.6738 45.6387 41.9096 48.0271 40.4486C48.3396 40.2688 48.7413 40.3587 48.9199 40.6734C49.0985 40.988 49.0092 41.3926 48.6967 41.5724C46.1074 43.1458 43.1387 43.9999 40.103 43.9999V43.9774Z" fill="#3E3A39"/>
</g>
</svg>
