<svg width="76" height="76" viewBox="0 0 76 76" fill="none" xmlns="http://www.w3.org/2000/svg">
<mask id="mask0_372_71" style="mask-type:alpha" maskUnits="userSpaceOnUse" x="0" y="0" width="76" height="76">
<circle cx="38" cy="38" r="38" fill="#D9D9D9"/>
</mask>
<g mask="url(#mask0_372_71)">
<path d="M16.6473 58.3194L27.5625 50.0255C32.3393 45.5077 33.3437 44.0692 34.8616 41.4395L39.125 32.6961C40.6429 30.0663 43.5223 30.0214 46.1339 31.5498C48.7455 33.0782 50.1295 35.6181 48.6116 38.2478L44.4152 46.1596C38.3214 52.5429 28.4554 57.3304 16.625 58.3194" fill="white"/>
<path d="M16.6469 58.971C16.379 58.971 16.1558 58.8137 16.0442 58.5664C15.9326 58.2967 16.0442 58.0045 16.2451 57.8247L27.1603 49.5308C31.8032 45.1029 32.8076 43.7094 34.3032 41.1471L38.5442 32.4486C40.129 29.684 43.2317 29.1446 46.446 31.0101C49.6603 32.8982 50.7317 35.8651 49.1692 38.5847L44.9728 46.4965C44.9728 46.4965 44.9058 46.5864 44.8612 46.6313C38.2764 53.5317 28.0085 58.027 16.6692 58.971H16.6246H16.6469ZM42.763 31.1899C41.5576 31.1899 40.4415 31.7069 39.6603 33.033L35.4192 41.7314C33.8567 44.4736 32.8076 45.9121 27.9862 50.4973L18.8567 57.4426C28.946 56.139 37.9862 51.9583 43.9014 45.7772L48.0532 37.9329C49.504 35.438 47.8299 33.2803 45.7987 32.089C44.8612 31.5496 43.7898 31.1675 42.763 31.1675V31.1899Z" fill="#3E3A39"/>
<path d="M46.7801 41.6884C46.914 41.5536 38.2533 56.3881 40.8203 60.9508C40.8203 60.9508 33.9453 58.5683 36.5569 48.7461" fill="white"/>
<path d="M40.8202 61.5816C40.8202 61.5816 40.6863 61.5816 40.6193 61.5366C40.5523 61.5142 33.2086 58.8394 35.9541 48.5676C36.0434 48.2305 36.4006 48.0282 36.7354 48.1181C37.0702 48.208 37.2711 48.5676 37.1818 48.9048C35.4407 55.4455 38.0523 58.4349 39.7711 59.6486C39.2131 55.4005 42.7398 47.781 46.0211 41.7572L46.1997 41.4426L46.7577 41.7347L47.1372 41.1953C47.5836 41.5325 47.3604 41.937 47.1372 42.3866C42.1818 51.4446 40.0389 58.2775 41.3782 60.6376C41.5122 60.8623 41.4898 61.1545 41.3113 61.3568C41.1773 61.5142 40.9988 61.5816 40.8202 61.5816Z" fill="#3E3A39"/>
<path d="M46.6242 41.4362C46.6242 41.4362 46.401 41.4137 46.3117 41.3463L43.5662 39.7504C43.2537 39.5706 43.1644 39.1885 43.343 38.8739C43.5215 38.5817 43.901 38.4693 44.2135 38.6491L46.959 40.2449C47.2715 40.4247 47.3608 40.8068 47.1823 41.1215C47.0706 41.3238 46.8474 41.4362 46.6242 41.4362Z" fill="#3E3A39"/>
<path d="M38.3214 41.1023C38.2098 41.1023 38.0982 41.0798 37.9866 41.0123L36 39.7986C35.7098 39.6188 35.5982 39.2142 35.7991 38.922C35.9777 38.6298 36.3795 38.5175 36.6696 38.7197L38.6562 39.9335C38.9464 40.1133 39.058 40.5179 38.8571 40.8101C38.7455 41.0124 38.5223 41.1247 38.3214 41.1247V41.1023Z" fill="#3E3A39"/>
<path d="M46.7819 32.1562C46.7819 32.1562 46.5586 32.1337 46.447 32.0663C46.1345 31.8865 46.0453 31.4819 46.2238 31.1897L53.0765 19.6367C53.2551 19.3221 53.6569 19.2321 53.947 19.412C54.2595 19.5918 54.3488 19.9964 54.1703 20.2886L47.3176 31.8415C47.206 32.0438 46.9828 32.1562 46.7595 32.1562H46.7819Z" fill="#3E3A39"/>
<path d="M48.3201 27.9282C48.3201 27.9282 49.8157 21.455 41.8023 20.2188C41.8023 20.2188 41.1549 26.8044 48.3201 27.9282Z" fill="#FBDACF"/>
<path d="M48.3216 28.5576C48.3216 28.5576 48.2546 28.5576 48.2323 28.5576C40.576 27.3439 41.1787 20.2413 41.201 20.1738C41.201 19.994 41.3126 19.8592 41.4466 19.7468C41.5805 19.6344 41.7591 19.5895 41.9153 19.6344C44.7501 20.0615 46.7814 21.1853 47.9644 22.9385C49.5716 25.321 48.9689 27.9957 48.9466 28.1081C48.8796 28.4003 48.6341 28.5801 48.3439 28.5801L48.3216 28.5576ZM42.4064 20.9605C42.4734 22.5114 43.1207 26.1751 47.7859 27.209C47.8528 26.3999 47.7859 24.9389 46.893 23.6128C46.0001 22.3091 44.4823 21.4101 42.3841 20.983L42.4064 20.9605Z" fill="#3E3A39"/>
<path d="M48.7461 29.12C48.7461 29.12 52.1166 34.8515 58.7461 30.1314C58.7461 30.1314 54.6836 24.9393 48.7461 29.12Z" fill="#FBDACF"/>
<path d="M53.7903 32.6321C53.3439 32.6321 52.8975 32.5871 52.4734 32.4972C49.6832 31.8903 48.2769 29.5528 48.21 29.4629C48.0537 29.1931 48.1207 28.811 48.3885 28.6312C54.7501 24.1584 59.1921 29.7101 59.2368 29.7775C59.3484 29.9124 59.393 30.0922 59.3707 30.2496C59.3484 30.4294 59.2591 30.5642 59.1251 30.6766C57.2725 31.9802 55.4868 32.6545 53.8126 32.6545L53.7903 32.6321ZM49.6162 29.2831C50.1296 29.9124 51.1787 30.9238 52.7412 31.261C54.2814 31.5981 55.9778 31.1711 57.8082 30.0248C56.6921 28.9459 53.701 26.7657 49.6162 29.2831Z" fill="#3E3A39"/>
<path d="M50.6875 24.8541C50.6875 24.8541 58.7679 25.6408 58.9464 15.5938C58.9464 15.5938 50.8884 15.886 50.6875 24.8541Z" fill="#FBDACF"/>
<path d="M51.0893 25.5C50.8214 25.5 50.6429 25.5 50.6205 25.5C50.308 25.4776 50.0625 25.1854 50.0625 24.8707C50.2634 15.4305 58.8348 15.0035 58.9241 15.0035C59.0804 14.981 59.2589 15.0709 59.3705 15.1833C59.4821 15.2957 59.5491 15.4755 59.5491 15.6328C59.4821 19.1392 58.4777 21.7689 56.5804 23.4772C54.5491 25.2978 52.0938 25.5 51.0893 25.5ZM58.2991 16.3071C56.5134 16.5768 51.7589 17.9254 51.3348 24.2413C52.2946 24.1964 54.2143 23.9492 55.7991 22.5331C57.2946 21.1845 58.1429 19.0717 58.3214 16.3071H58.2991Z" fill="#3E3A39"/>
<path d="M33.3429 54.2969C33.3429 54.2969 31.4233 57.1514 27.584 59.2642Z" fill="white"/>
<path d="M27.584 59.9161C27.3608 59.9161 27.1376 59.8037 27.0259 59.579C26.8474 59.2643 26.9813 58.8822 27.2715 58.7024C30.9322 56.6795 32.8072 53.9598 32.8072 53.9373C33.0081 53.6451 33.3876 53.5553 33.7001 53.7575C33.9902 53.9598 34.0572 54.3644 33.8786 54.6566C33.7893 54.769 31.8251 57.6685 27.8965 59.8262C27.8072 59.8712 27.6956 59.8936 27.584 59.8936V59.9161Z" fill="#3E3A39"/>
<path d="M30.4855 47.0547C30.4855 47.0547 24.7042 51.7523 20.0391 50.1115Z" fill="white"/>
<path d="M22.1828 51.107C21.3793 51.107 20.5757 50.9946 19.8168 50.7249C19.4819 50.6125 19.3034 50.2304 19.4373 49.9158C19.5489 49.5786 19.9061 49.3988 20.2409 49.5337C24.5266 51.0621 30.0177 46.6342 30.0846 46.5892C30.3525 46.3645 30.7543 46.4094 30.9775 46.6791C31.2007 46.9489 31.1561 47.3534 30.8882 47.5782C30.6873 47.758 26.4909 51.1295 22.2052 51.1295L22.1828 51.107Z" fill="#3E3A39"/>
<path d="M42.9188 49.3984C42.9188 49.3984 42.1376 53.9837 44.3251 55.9391Z" fill="white"/>
<path d="M44.3243 56.5691C44.1681 56.5691 44.0118 56.5242 43.9002 56.4118C41.4672 54.254 42.2708 49.489 42.2931 49.2867C42.3601 48.9271 42.6949 48.7023 43.0297 48.7697C43.3868 48.8372 43.6101 49.1518 43.5431 49.5115C43.5431 49.5564 42.8511 53.782 44.7261 55.4678C44.994 55.715 45.0163 56.1196 44.7708 56.3668C44.6368 56.5017 44.4806 56.5916 44.302 56.5916L44.3243 56.5691Z" fill="#3E3A39"/>
</g>
</svg>
