<svg width="30" height="25" viewBox="0 0 30 25" fill="none" xmlns="http://www.w3.org/2000/svg">
<g clip-path="url(#clip0_2090_59215)">
<path d="M29.0288 9.13843C27.616 6.10104 23.8487 4.92376 21.5413 5.81849C21.1174 2.68692 18.6922 0.261719 14.9956 0.261719C11.2989 0.261719 8.89726 2.68692 8.44989 5.81849C6.14242 4.92376 2.37511 6.10104 0.962374 9.13843C-0.63873 12.5761 0.632735 16.0138 2.91666 17.2381C3.01085 17.1439 5.34186 14.9777 10.0745 16.6024C12.9707 17.5913 14.3363 19.0511 14.972 20.252C15.6078 19.0511 16.9734 17.5913 19.8695 16.6024C24.6022 14.9777 26.9332 17.1439 27.0274 17.2381C29.3113 16.0138 30.5828 12.5761 28.9817 9.13843" fill="#CC5539"/>
<path d="M14.9951 20.8144L14.7597 20.367C14.1946 19.3074 12.9231 17.8476 10.0034 16.8351C5.3885 15.2576 3.19876 17.3296 3.10457 17.4238L2.9633 17.6357L2.77493 17.4944C0.491007 16.223 -0.945278 12.644 0.726464 9.01798C2.1392 6.00414 5.76523 4.70913 8.23753 5.46259C8.84971 2.18975 11.5339 0 14.9951 0C18.4563 0 21.1405 2.18975 21.7527 5.46259C24.225 4.70913 27.8511 6.00414 29.2638 9.01798C30.9591 12.644 29.4992 16.223 27.1918 17.4709L27.027 17.5651L26.8857 17.4238C26.8857 17.4238 24.5782 15.234 19.9868 16.8351C17.0671 17.8476 15.7957 19.3074 15.2306 20.367L14.9951 20.8144ZM6.7777 15.7285C7.74307 15.7285 8.87326 15.8933 10.1918 16.3407C12.9231 17.2825 14.3123 18.6246 14.9951 19.7077C15.678 18.6246 17.0671 17.2825 19.7984 16.3407C24.1308 14.8573 26.5325 16.4584 27.0976 16.9293C29.099 15.7049 30.2763 12.5027 28.7693 9.25344C27.4508 6.40442 23.8247 5.20359 21.635 6.07478L21.3289 6.19251L21.2818 5.86287C20.8109 2.63711 18.3622 0.54155 14.9951 0.54155C11.6281 0.54155 9.17935 2.63711 8.70844 5.86287L8.66135 6.19251L8.35525 6.07478C6.14196 5.20359 2.53948 6.42796 1.22092 9.25344C-0.285999 12.5027 0.891283 15.7049 2.89266 16.9293C3.24585 16.6468 4.51731 15.7285 6.7777 15.7285Z" fill="#C8A374"/>
<path d="M11.8162 18.5534C11.6278 18.5534 11.4865 18.3886 11.4865 18.2003C11.5572 16.1518 10.8979 12.9731 9.76769 11.5368C9.76769 11.5368 9.74414 11.5133 9.7206 11.5133C9.34387 11.5133 9.03777 11.2543 8.96713 10.9011C8.8965 10.5008 9.1555 10.1006 9.55578 10.0299C9.60287 10.0299 9.64996 10.0299 9.69705 10.0299C10.0502 10.0299 10.3563 10.2889 10.427 10.6421C10.4505 10.8069 10.427 10.9953 10.3563 11.1366C10.3563 11.1366 10.3563 11.1837 10.3563 11.2072C11.5807 12.8554 12.24 16.1518 12.1693 18.2473C12.1693 18.4357 12.0045 18.577 11.8162 18.577V18.5534ZM18.2912 18.5534C18.1028 18.5534 17.9616 18.4122 17.938 18.2238C17.8674 16.1282 18.5267 12.8318 19.751 11.1837C19.751 11.1601 19.751 11.1366 19.751 11.113C19.6804 10.9482 19.6333 10.7834 19.6804 10.6186C19.751 10.2654 20.0571 10.0064 20.4103 10.0064C20.4574 10.0064 20.5045 10.0064 20.5516 10.0064C20.9519 10.077 21.2109 10.4773 21.1402 10.8776C21.0696 11.2307 20.7635 11.4897 20.4103 11.4897C20.4103 11.4897 20.3632 11.4897 20.3397 11.5133C19.2095 12.9496 18.5502 16.1047 18.6209 18.1767C18.6209 18.3651 18.4796 18.5299 18.2912 18.5299V18.5534ZM13.3466 18.9066C13.1583 18.9066 13.017 18.7418 13.017 18.5534C13.1583 14.998 12.7344 11.8194 11.8868 10.2654C11.8868 10.2654 11.8633 10.2183 11.8162 10.2183C11.4159 10.1947 11.1333 9.86509 11.1333 9.46482C11.1333 9.041 11.463 8.71136 11.8868 8.71136C12.3106 8.71136 12.6403 9.041 12.6403 9.46482C12.6403 9.60609 12.5932 9.74737 12.5225 9.86509C12.5225 9.88864 12.5225 9.91218 12.5225 9.93573C13.5585 11.9136 13.8175 15.6809 13.7234 18.5534C13.7234 18.7418 13.5585 18.8831 13.3702 18.8831L13.3466 18.9066ZM16.7607 18.9066C16.5724 18.9066 16.4311 18.7653 16.4076 18.577C16.2898 15.7044 16.5488 11.9371 17.6084 9.95928C17.6084 9.95928 17.6084 9.91218 17.6084 9.88864C17.5378 9.77091 17.4907 9.62964 17.4907 9.48836C17.4907 9.06454 17.8203 8.7349 18.2441 8.7349C18.6679 8.7349 18.9976 9.06454 18.9976 9.48836C18.9976 9.86509 18.6915 10.1947 18.3148 10.2418C18.2912 10.2418 18.2677 10.2418 18.2441 10.2889C17.42 11.8429 16.9727 14.998 17.1139 18.577C17.1139 18.7653 16.9727 18.9302 16.7843 18.9302L16.7607 18.9066ZM19.9865 18.9773C19.7981 18.9773 19.6569 18.836 19.6569 18.6476C19.5627 16.0105 20.2926 13.8679 21.776 12.4551C21.776 12.4551 21.7995 12.408 21.776 12.3845C21.7289 12.2432 21.7289 12.1019 21.776 11.9842C21.8466 11.6546 22.1527 11.3956 22.5059 11.3956C22.5765 11.3956 22.6236 11.3956 22.6707 11.3956C22.8591 11.4427 23.0239 11.5604 23.1416 11.7252C23.2358 11.89 23.2829 12.1019 23.2358 12.2903C23.1652 12.6199 22.8591 12.8554 22.5059 12.8554C22.4588 12.8554 22.4117 12.8554 22.3646 12.8554C22.3646 12.8554 22.3411 12.8554 22.3175 12.8554C21.3757 13.7501 20.269 15.4925 20.3632 18.577C20.3632 18.7653 20.222 18.9302 20.0336 18.9302H20.01L19.9865 18.9773ZM10.0738 18.9773C9.88542 18.9773 9.74414 18.8124 9.74414 18.6241C9.88542 15.516 8.77877 13.7972 7.83694 12.8789C7.83694 12.8789 7.8134 12.8789 7.78985 12.8789C7.78985 12.8789 7.69567 12.8789 7.64858 12.8789C7.29539 12.8789 6.9893 12.6435 6.91866 12.2903C6.87157 12.1019 6.91866 11.89 7.01285 11.7252C7.10703 11.5604 7.29539 11.4427 7.48376 11.3956C7.53085 11.3956 7.60149 11.3956 7.64858 11.3956C8.00176 11.3956 8.30786 11.631 8.37849 11.9842C8.40204 12.1255 8.37849 12.2668 8.37849 12.3845C8.37849 12.408 8.37849 12.4316 8.37849 12.4551C9.83832 13.8914 10.5447 16.0576 10.4505 18.6712C10.4505 18.8595 10.2857 19.0008 10.1209 19.0008H10.0973L10.0738 18.9773ZM8.82586 19.9426C8.6375 19.9426 8.49622 19.8014 8.47268 19.613C8.28431 16.5285 7.03639 14.9274 6.02393 14.1033C6.02393 14.1033 6.00038 14.1033 5.97684 14.1033C5.97684 14.1033 5.97684 14.1033 5.95329 14.1033C5.9062 14.1033 5.85911 14.1504 5.81202 14.1504C5.74138 14.1504 5.69429 14.1504 5.62365 14.1504C5.27047 14.1504 4.98792 13.9149 4.89374 13.5853C4.79955 13.185 5.03501 12.7848 5.43529 12.667C5.50592 12.667 5.55302 12.6435 5.62365 12.6435C5.97684 12.6435 6.25939 12.8789 6.35357 13.2086C6.35357 13.2792 6.37711 13.3498 6.35357 13.4205C6.35357 13.444 6.35357 13.4676 6.37711 13.4911C8.02531 14.7626 8.96714 16.8582 9.13195 19.5424C9.13195 19.7307 8.99068 19.8955 8.80232 19.8955L8.82586 19.9426ZM21.2815 19.9426C21.2815 19.9426 21.1167 19.8955 21.0461 19.8249C20.9754 19.7543 20.9519 19.6601 20.9519 19.5659C21.1167 16.8817 22.0585 14.8097 23.7067 13.5147C23.7067 13.5147 23.7303 13.4676 23.7303 13.444C23.7303 13.3734 23.7303 13.3028 23.7303 13.2321C23.8244 12.9025 24.107 12.667 24.4602 12.667C24.5308 12.667 24.5779 12.667 24.6485 12.6906C25.0488 12.7848 25.2843 13.185 25.1901 13.6089C25.0959 13.9385 24.8134 14.1739 24.4602 14.1739C24.3895 14.1739 24.3424 14.1739 24.2718 14.1739C24.2247 14.1739 24.1776 14.1504 24.1305 14.1269C24.1305 14.1269 24.1305 14.1269 24.107 14.1269C24.107 14.1269 24.0834 14.1269 24.0599 14.1269C23.0474 14.9274 21.7995 16.5521 21.6112 19.6365C21.6112 19.8249 21.4463 19.9662 21.258 19.9662L21.2815 19.9426ZM14.9948 20.2723C14.8065 20.2723 14.6416 20.1075 14.6416 19.9191V9.22936C14.6416 9.22936 14.6416 9.18227 14.5945 9.15872C14.3591 9.01745 14.2178 8.78199 14.2178 8.52299C14.2178 8.12272 14.5475 7.76953 14.9713 7.76953C15.3951 7.76953 15.7247 8.09917 15.7247 8.52299C15.7247 8.78199 15.5835 9.041 15.348 9.15872C15.3245 9.15872 15.3009 9.20582 15.3009 9.22936V19.9191C15.3009 20.1075 15.1361 20.2723 14.9477 20.2723" fill="#C8A374"/>
<path d="M9.67405 16.201C4.47046 14.3409 2.32781 16.8132 2.32781 16.8132C2.32781 16.8132 0.820888 22.3229 6.49539 24.1595C12.4524 26.0902 14.9012 20.4392 14.9012 20.4392C14.9012 20.4392 14.7364 18.014 9.6976 16.2246" fill="#CC5539"/>
<path d="M8.84906 24.8156C8.0956 24.8156 7.29504 24.6978 6.40031 24.4153C0.560989 22.5316 2.04436 16.81 2.06791 16.763L2.115 16.6688C2.115 16.6688 4.44602 14.0788 9.76734 15.9859C14.9238 17.8225 15.1593 20.3419 15.1593 20.4361V20.5067V20.5538C15.1593 20.6009 13.2521 24.8391 8.8726 24.8391L8.84906 24.8156ZM2.56237 16.9513C2.4211 17.5871 1.47927 22.2726 6.56513 23.8973C11.9335 25.6161 14.3116 21.0247 14.6177 20.389C14.5471 20.0358 13.9585 18.0109 9.57897 16.4569C4.96403 14.8087 2.86846 16.6217 2.56237 16.9513Z" fill="#C8A374"/>
<path d="M20.1041 16.201C25.3077 14.3409 27.4503 16.8132 27.4503 16.8132C27.4503 16.8132 28.9573 22.3229 23.2828 24.1595C17.3257 26.0902 14.877 20.4392 14.877 20.4392C14.877 20.4392 15.0418 18.014 20.1041 16.2246" fill="#CC5539"/>
<path d="M20.9293 24.8153C16.5733 24.8153 14.6661 20.5771 14.6426 20.53V20.4829V20.4122C14.6426 20.3181 14.878 17.7987 20.0345 15.9621C25.3323 14.0549 27.5927 16.5508 27.6869 16.6449L27.734 16.7391C27.734 16.7391 29.2409 22.5313 23.4016 24.3915C22.5068 24.674 21.7063 24.7917 20.9528 24.7917L20.9293 24.8153ZM15.1606 20.3887C15.4667 21.048 17.8448 25.6394 23.2132 23.897C28.3226 22.2488 27.3808 17.5632 27.216 16.951C26.8863 16.6214 24.8143 14.8084 20.1994 16.4566C15.8434 18.0106 15.2312 20.0355 15.1606 20.3887Z" fill="#C8A374"/>
</g>
<defs>
<clipPath id="clip0_2090_59215">
<rect width="30" height="24.84" fill="white"/>
</clipPath>
</defs>
</svg>
