<svg width="439" height="51" viewBox="0 0 439 51" fill="none" xmlns="http://www.w3.org/2000/svg">
<path d="M176.762 0.753906C180.746 0.618154 184.082 3.71494 184.223 7.6582L185.245 36.2871C185.386 40.2294 182.281 43.5445 178.298 43.6807L15.2383 49.2461C11.2541 49.3818 7.91823 46.2851 7.77734 42.3418L6.75488 13.7129C6.61403 9.77059 9.71888 6.45552 13.7021 6.31934L176.762 0.753906Z" stroke="#FCBE79" stroke-width="1.5"/>
<rect x="10" y="3" width="180" height="45" rx="8" fill="#F69F5D"/>
<path d="M26.536 21.852C26.464 21.852 26.428 21.816 26.428 21.78C25.96 21.42 25.816 20.52 25.816 19.98C25.78 19.116 25.672 18.252 25.672 17.424C25.672 16.2 25.636 14.724 25.852 13.536C25.996 12.78 26.284 12.348 27.004 12.06C27.652 11.808 28.336 11.736 29.02 11.664C29.848 11.592 30.712 11.664 31.576 11.664H38.416C40.864 11.664 40.54 11.664 42.952 11.628C43.384 11.628 43.78 11.628 44.212 11.664C45.112 11.7 46.12 11.736 46.948 12.132C47.884 12.528 48.172 13.536 48.208 14.472C48.28 15.552 48.172 16.92 48.172 18C48.136 18.972 48.172 19.944 47.92 20.88C47.776 21.42 47.668 21.852 47.092 22.032C46.588 22.212 45.94 22.248 45.436 22.248H29.884C29.416 22.248 28.948 22.212 28.48 22.176C27.868 22.14 27.076 22.212 26.536 21.852ZM46.516 28.728C44.14 28.8 42.268 28.872 39.856 28.872C39.82 29.88 39.748 30.816 39.748 32.184C39.532 33.192 38.2 33.804 37.228 33.768C35.788 33.696 34.996 33.12 34.852 31.68C34.744 30.744 34.888 29.736 34.888 28.8C32.692 28.8 26.932 28.728 24.916 28.584C24.16 28.512 23.8 28.476 23.188 27.9C22.864 27.612 22.72 27.072 22.72 26.568C22.72 26.1 22.9 25.632 23.188 25.344C23.908 24.588 25.672 24.624 25.744 24.624H46.336C47.056 24.624 47.776 24.624 48.46 24.66C49.108 24.696 49.828 24.804 50.332 25.272C50.836 25.668 50.836 26.136 50.836 26.712C50.836 27.432 50.404 28.044 49.684 28.296C48.712 28.656 47.524 28.692 46.516 28.728ZM47.524 35.532C47.596 35.568 48.928 35.892 49.072 36.9C49.216 37.8 49.072 38.52 48.64 39.024C48.1 39.708 47.308 39.744 47.272 39.744H27.616C25.78 39.744 24.664 39.096 24.664 38.016V34.812C24.628 34.272 24.628 33.732 24.664 33.192C24.736 32.184 25.492 31.5 26.5 31.5C26.752 31.5 27.256 31.536 27.472 31.608C28.696 32.004 28.768 33.228 28.84 34.308C28.84 34.704 28.876 35.136 28.984 35.46C29.092 35.496 29.812 35.604 31.504 35.604C32.944 35.604 34.276 35.532 34.312 35.532H47.524ZM29.956 17.64C29.956 17.856 29.956 18.108 30.064 18.216C30.28 18.396 31.108 18.288 31.108 18.288H40.576C40.576 18.288 42.304 18.432 43.168 18.324C43.672 18.288 43.672 18.072 43.744 17.64C43.78 17.244 43.852 16.416 43.564 16.056C43.24 15.66 42.484 15.732 42.052 15.768H38.776C38.452 15.732 34.096 15.768 33.772 15.768C32.764 15.696 31.756 15.732 30.712 15.768C30.28 15.768 30.136 15.696 30.028 16.128C29.956 16.452 29.956 17.028 29.956 17.316V17.64ZM55.5264 33.048C55.7064 32.976 59.0184 33.12 59.6304 33.12C59.6664 32.544 59.7384 30.168 59.8104 28.98C59.3784 28.872 58.9824 28.764 58.5864 28.584C55.8864 27.468 53.7984 25.272 53.7984 22.104C53.7984 20.376 54.3024 19.044 55.1304 18H54.7344C53.5824 18 52.6104 17.136 52.6104 16.092C52.6104 15.012 53.5824 14.148 54.7344 14.148H59.4864V12.672C59.4864 11.736 60.4224 11.052 61.5744 11.052C62.7624 11.052 63.6984 11.736 63.6984 12.672V14.148H68.6664C69.8544 14.148 70.8264 15.012 70.8264 16.092C70.8264 17.136 69.8544 18 68.6664 18H68.5584C69.3864 19.044 69.9264 20.376 69.9264 22.104C69.9264 24.336 68.8464 26.172 67.0464 27.54C66.1464 28.188 65.1384 28.656 64.0944 28.944C64.1664 30.06 64.1664 32.544 64.1664 33.084V33.12H68.9544C69.7464 33.12 70.3944 33.264 70.8624 33.552C71.9424 34.2 71.9064 35.964 71.4384 36.828C71.0064 37.584 70.0704 37.656 69.3144 37.656H55.0944C55.0584 37.656 53.8344 37.548 53.1864 37.26C52.7184 37.008 52.3584 36.468 52.2504 35.784C52.1424 35.028 52.3944 34.308 52.8624 33.876C53.7264 33.156 54.6984 33.048 55.5264 33.048ZM79.3944 23.364H79.4664C79.7184 23.328 79.9344 23.4 80.1504 23.4C80.4384 23.436 80.6904 23.472 80.9784 23.508C81.5184 23.616 82.0944 23.832 82.3824 24.372C82.5264 24.66 82.5984 24.984 82.5984 25.344C82.5984 25.668 82.5984 26.028 82.5264 26.352C82.4184 26.712 82.3104 27.216 82.0224 27.468C81.7344 27.684 81.3744 27.864 81.0144 27.936C80.2584 28.044 78.9624 27.936 78.2064 27.972C78.1344 28.008 78.0984 28.008 78.0984 28.008C78.0984 28.008 78.0984 28.044 78.0624 28.152C78.0264 29.34 78.0624 30.384 78.0624 31.608C78.0984 32.832 78.0984 34.092 78.0624 35.28V35.784C78.0624 37.044 78.0984 38.88 77.2344 39.78C76.9104 40.068 76.5144 40.248 76.0464 40.248H75.9744C73.6344 40.14 73.4184 37.332 73.4184 35.82V14.436C73.4184 14.364 73.3464 12.564 74.1384 11.772C74.4984 11.448 75.2544 11.268 75.7584 11.268C76.2984 11.268 76.8024 11.484 77.1264 11.808C77.7384 12.492 77.8104 13.248 77.8464 14.04C77.8824 14.184 77.8824 14.328 77.9184 14.508C77.9904 15.264 77.9904 16.164 78.0264 17.028C78.0264 17.568 78.0624 18.072 78.0624 18.576V22.464C78.0624 22.716 78.0624 23.004 78.1344 23.256C78.1344 23.292 78.8544 23.292 78.9264 23.328C79.0704 23.328 79.2504 23.364 79.3944 23.364ZM62.5464 24.984C64.0944 24.696 65.4264 23.94 65.4264 22.104C65.4264 19.98 63.6624 19.188 61.8984 19.152C60.0984 19.08 58.2984 19.836 58.2984 22.104C58.2984 24.696 60.5664 25.38 62.5464 24.984ZM116.998 37.656C117.754 37.692 118.402 37.98 118.618 38.736C118.87 39.6 118.582 40.212 117.682 40.536C117.106 40.788 116.458 40.788 115.99 40.788H99.9698C98.9978 40.788 97.9178 40.788 96.8738 40.752C95.5778 40.716 95.1458 39.816 95.0738 38.736L94.9298 36.252C94.8938 35.712 94.8938 34.452 95.3258 33.948C95.9738 33.264 96.8738 33.156 97.9178 33.156H99.0338C99.2498 33.156 99.3938 33.192 99.5378 33.192H114.514V31.752H99.1778C98.9258 31.752 98.6738 31.716 98.3858 31.752H97.5218C97.0538 31.752 96.6578 31.752 96.2978 31.68C95.8658 31.572 95.5058 31.572 95.2538 31.176C94.9658 30.672 94.8578 30.096 95.0378 29.52C95.2898 28.764 96.3698 28.656 96.9098 28.548C97.2698 28.512 97.6298 28.476 98.0258 28.476H98.6378C98.8898 28.512 99.0698 28.512 99.3218 28.512H114.874C117.286 28.512 118.654 29.196 118.654 30.888V34.2C118.654 34.848 118.366 35.424 117.61 35.892C116.998 36.252 116.35 36.216 115.738 36.216H99.3578V37.656H116.998ZM101.554 11.268C106.45 11.592 109.186 14.4 108.826 19.548C108.502 23.832 106.198 26.316 101.626 26.316C99.8618 26.316 97.8458 26.496 95.6498 25.128C93.5618 23.796 92.9138 21.132 92.9138 18.828C92.9138 13.644 96.5858 10.908 101.554 11.268ZM118.69 14.328V24.696C118.69 24.732 118.546 26.136 117.61 26.748C117.286 26.928 116.962 27.036 116.602 27.036C116.17 27.036 115.774 26.892 115.414 26.64C115.162 26.46 114.946 26.208 114.802 25.884C114.082 24.444 114.37 22.32 114.37 20.736C114.406 18.684 114.406 17.352 114.406 15.336V14.868C114.37 14.328 114.37 13.716 114.514 13.176C114.622 12.78 114.838 12.42 115.162 12.024C115.558 11.556 116.314 11.304 117.106 11.412C117.79 11.52 118.33 11.88 118.546 12.348C118.834 12.96 118.726 14.148 118.69 14.328ZM104.65 19.98L104.686 19.692C104.902 17.964 104.038 16.308 102.526 15.768C100.51 15.084 97.4138 15.696 97.0178 18.396C96.7298 20.232 97.5218 22.248 100.294 22.5C102.202 22.716 104.182 22.176 104.65 19.98ZM145.549 26.244C145.945 26.244 146.305 26.352 146.809 26.46C147.205 26.568 147.601 26.748 147.889 26.928C148.213 27.252 148.393 27.648 148.393 28.116C148.393 28.332 148.393 28.62 148.285 28.908C148.213 29.196 148.105 29.412 147.889 29.52C147.817 29.7 147.493 29.808 147.205 29.916C146.917 29.988 146.629 30.096 146.305 30.096C145.945 30.096 145.621 30.204 145.225 30.204C145.045 30.204 126.109 30.204 126.109 30.204C125.533 30.204 124.921 30.204 124.345 30.204C123.661 30.204 122.941 29.988 122.473 29.52C122.077 28.908 121.969 27.828 122.365 27.252C122.545 26.856 122.941 26.64 123.265 26.568C123.841 26.352 124.345 26.244 124.813 26.244C125.317 26.244 125.929 26.244 126.505 26.244C127.009 26.244 132.409 26.244 132.409 26.244V24.084C132.337 24.192 132.121 24.084 131.833 24.084H130.753C129.673 24.084 128.773 24.084 127.585 24.084C127.081 24.084 126.325 24.084 125.821 23.976C125.317 23.904 124.813 23.796 124.417 23.508C124.129 23.292 123.949 23.004 123.733 22.716C123.661 22.32 123.553 22.032 123.445 21.708C123.337 21.42 123.337 21.132 123.265 20.844C123.265 20.628 123.265 20.448 123.265 20.448V13.536C123.265 13.14 123.445 12.636 123.661 12.24C123.841 11.772 124.237 11.556 124.741 11.448C125.029 11.448 125.605 11.376 125.929 11.376C126.217 11.448 126.397 11.448 126.685 11.556C127.585 11.952 127.585 13.032 127.585 13.932C127.585 14.112 127.585 14.436 127.585 14.616C127.585 14.904 127.585 15.12 127.585 15.12C127.585 15.12 142.777 15.3 143.065 15.228C143.065 15.12 142.957 15.012 143.065 14.832C143.065 14.616 143.065 14.436 143.065 14.112V13.716V13.248C143.065 12.852 143.065 12.564 143.281 12.168C143.461 11.844 144.037 11.556 144.433 11.448C145.333 11.268 146.017 11.376 146.521 11.772C147.025 12.24 147.205 12.852 147.205 13.716V15.516C147.205 16.2 147.205 16.884 147.205 17.568C147.205 18.252 147.205 18.972 147.205 19.656C147.205 20.34 147.205 20.916 147.097 21.528C147.097 21.816 147.025 22.104 146.917 22.32C146.809 22.608 146.701 22.788 146.521 23.112C146.125 23.688 145.333 23.904 144.757 23.976C144.361 23.976 144.037 24.084 143.677 24.084C142.957 24.084 142.381 24.084 141.697 24.084C141.409 24.084 138.925 24.084 138.529 24.084C138.241 24.084 137.845 24.084 137.557 24.084C137.557 24.372 137.557 25.056 137.557 25.38V26.244C138.241 26.244 138.421 26.244 139.213 26.244C140.005 26.244 140.797 26.244 141.481 26.244H143.749C144.433 26.244 145.045 26.244 145.549 26.244ZM132.625 35.604H145.837C145.945 35.604 145.945 35.604 146.125 35.604C146.233 35.712 146.413 35.82 146.629 35.928C146.809 36 146.917 36.108 147.097 36.324C147.205 36.504 147.313 36.72 147.421 37.008C147.493 37.872 147.421 38.592 147.025 39.06C146.701 39.456 146.413 39.672 146.125 39.672C145.837 39.78 145.621 39.78 145.621 39.78H125.929C125.029 39.78 124.345 39.672 123.841 39.384C123.265 39.06 123.049 38.592 123.049 38.088V34.848C122.941 34.344 122.941 33.84 123.049 33.264C123.049 32.76 123.265 32.364 123.553 32.076C123.949 31.68 124.345 31.572 124.813 31.572C124.921 31.572 125.137 31.572 125.317 31.572C125.533 31.572 125.713 31.572 125.821 31.68C126.109 31.788 126.397 31.86 126.505 32.076C126.685 32.256 126.793 32.472 126.901 32.76C127.009 33.048 127.081 33.264 127.081 33.552C127.081 33.84 127.189 34.128 127.189 34.344C127.189 34.524 127.189 34.74 127.189 34.92C127.189 35.136 127.297 35.316 127.297 35.532C127.405 35.532 127.585 35.604 127.981 35.604C128.377 35.604 128.953 35.604 129.853 35.604C130.537 35.604 131.221 35.604 131.725 35.604C132.337 35.604 132.625 35.604 132.625 35.604ZM127.801 20.448C127.981 20.736 128.269 20.844 128.665 20.844C128.953 20.844 129.277 20.844 129.565 20.844C130.645 20.844 131.545 20.844 132.517 20.844C132.913 20.844 133.309 20.844 133.705 20.844H134.893H135.865C136.153 20.844 142.381 20.844 142.489 20.844C142.669 20.844 142.777 20.844 142.885 20.736C142.957 20.628 143.065 20.448 143.065 20.232C143.065 20.052 143.065 19.944 143.065 19.764C143.065 19.656 143.065 18.648 143.065 18.648C143.065 18.648 134.281 18.648 133.705 18.648C133.021 18.648 129.565 18.648 128.953 18.648C128.557 18.648 127.585 18.648 127.585 18.648C127.585 18.648 127.585 19.584 127.585 19.692C127.693 19.872 127.693 20.34 127.801 20.448ZM157.84 11.304C158.452 11.304 159.028 11.376 159.604 11.448C160.504 11.592 161.332 12.024 162.016 12.708C164.356 15.156 164.86 19.368 165.004 22.788C165.112 24.984 165.076 27.216 164.824 29.376C164.572 31.608 164.248 34.02 163.06 35.856C162.052 37.404 160.468 38.412 158.848 38.736C157.372 39.024 155.752 38.844 154.384 38.052C153.088 37.296 152.224 36.108 151.576 34.596C151.108 33.48 150.82 32.256 150.748 31.032C150.568 29.016 150.496 27 150.496 24.984C150.496 23.616 150.496 22.284 150.64 20.952C150.712 19.872 150.892 18.756 151.072 17.712C151.252 16.848 151.36 16.092 151.72 15.3C152.08 14.508 152.548 13.752 153.16 13.176C154.204 12.132 155.572 11.556 156.94 11.376C157.228 11.34 157.552 11.34 157.84 11.304ZM170.764 27.036C170.116 26.928 168.748 26.928 168.1 26.856C166.444 26.748 165.652 25.524 166.156 23.688C166.264 23.328 166.624 22.824 166.912 22.572C167.2 22.356 167.524 22.176 167.92 22.104C168.676 21.996 169.936 22.104 170.728 22.032H170.836V21.888C170.872 20.7 170.872 20.988 170.836 19.764C170.836 18.54 170.8 17.28 170.836 16.092V15.588C170.836 14.328 170.836 12.456 171.7 11.592C172.024 11.304 172.384 11.124 172.852 11.124H172.924C175.264 11.232 175.516 14.04 175.516 15.552V37.152C175.516 37.224 175.588 39.06 174.76 39.816C174.436 40.14 173.68 40.356 173.176 40.356C172.636 40.356 172.132 40.14 171.808 39.78C171.196 39.132 171.124 38.376 171.052 37.584C171.052 37.44 171.016 37.296 171.016 37.116C170.944 36.36 170.944 35.46 170.908 34.596C170.872 34.056 170.872 33.552 170.872 33.048V32.22C170.872 31.212 170.836 28.836 170.836 27.828C170.836 27.576 170.872 27.252 170.764 27.036ZM157.732 33.948C158.164 33.948 158.632 33.804 159.064 33.516C159.856 32.94 160.144 31.932 160.36 30.78C160.756 28.584 160.72 25.92 160.648 23.652C160.612 21.816 160.576 19.44 159.712 17.964C159.244 17.172 158.524 16.668 157.768 16.776C156.976 16.848 156.256 17.352 155.824 18.288L155.5 19.044C155.212 19.944 155.068 20.952 154.996 21.924C154.924 22.896 154.852 23.904 154.852 24.876C154.888 25.848 154.78 26.748 154.852 27.684C155.032 30.168 155.356 33.912 157.732 33.948Z" fill="#FFFFFE"/>
<circle cx="3" cy="6" r="3" fill="#FCBE79"/>
<path d="M191.99 34V40.7879C192.148 43.8586 190.562 50 182.947 50C175.332 50 173.111 50 172 50" stroke="#FCC17E" stroke-width="1.5" stroke-linecap="round"/>
<rect x="204" width="235" height="51" rx="25.5" fill="#FFE1DE"/>
<path d="M225.56 15.26C225.464 15.692 225.38 16.184 225.308 16.736C225.26 17.288 225.212 17.828 225.164 18.356C225.14 18.884 225.128 19.316 225.128 19.652C225.104 20.444 225.092 21.26 225.092 22.1C225.116 22.94 225.14 23.804 225.164 24.692C225.212 25.556 225.272 26.42 225.344 27.284C225.512 29.012 225.752 30.536 226.064 31.856C226.376 33.176 226.784 34.208 227.288 34.952C227.792 35.672 228.428 36.032 229.196 36.032C229.604 36.032 230 35.804 230.384 35.348C230.792 34.892 231.152 34.304 231.464 33.584C231.8 32.84 232.088 32.06 232.328 31.244C232.592 30.428 232.82 29.66 233.012 28.94L236.612 33.332C235.82 35.42 235.028 37.088 234.236 38.336C233.468 39.56 232.664 40.448 231.824 41C230.984 41.528 230.072 41.792 229.088 41.792C227.792 41.792 226.556 41.36 225.38 40.496C224.228 39.632 223.244 38.24 222.428 36.32C221.612 34.376 221.036 31.796 220.7 28.58C220.58 27.476 220.484 26.312 220.412 25.088C220.364 23.864 220.328 22.7 220.304 21.596C220.304 20.492 220.304 19.58 220.304 18.86C220.304 18.356 220.28 17.756 220.232 17.06C220.184 16.364 220.112 15.74 220.016 15.188L225.56 15.26ZM243.56 16.088C244.232 16.904 244.88 17.9 245.504 19.076C246.128 20.252 246.704 21.512 247.232 22.856C247.76 24.2 248.228 25.58 248.636 26.996C249.044 28.388 249.368 29.756 249.608 31.1C249.872 32.42 250.04 33.632 250.112 34.736L245.36 36.572C245.24 35.108 245.024 33.512 244.712 31.784C244.4 30.056 243.98 28.316 243.452 26.564C242.924 24.812 242.288 23.156 241.544 21.596C240.824 20.036 239.972 18.692 238.988 17.564L243.56 16.088ZM268.184 12.272C268.04 12.752 267.896 13.34 267.752 14.036C267.608 14.732 267.5 15.272 267.428 15.656C267.26 16.472 267.044 17.468 266.78 18.644C266.54 19.82 266.264 21.068 265.952 22.388C265.664 23.708 265.364 24.968 265.052 26.168C264.74 27.44 264.356 28.82 263.9 30.308C263.444 31.772 262.952 33.272 262.424 34.808C261.92 36.32 261.404 37.772 260.876 39.164C260.348 40.532 259.832 41.756 259.328 42.836L254.324 41.144C254.852 40.232 255.416 39.128 256.016 37.832C256.616 36.512 257.192 35.096 257.744 33.584C258.32 32.072 258.848 30.572 259.328 29.084C259.808 27.596 260.216 26.216 260.552 24.944C260.792 24.104 261.02 23.24 261.236 22.352C261.452 21.464 261.644 20.6 261.812 19.76C261.98 18.92 262.124 18.14 262.244 17.42C262.388 16.676 262.496 16.028 262.568 15.476C262.64 14.804 262.688 14.132 262.712 13.46C262.736 12.788 262.724 12.248 262.676 11.84L268.184 12.272ZM259.004 17.636C260.468 17.636 261.992 17.564 263.576 17.42C265.16 17.276 266.756 17.072 268.364 16.808C269.972 16.544 271.568 16.232 273.152 15.872V20.372C271.664 20.708 270.08 20.996 268.4 21.236C266.72 21.476 265.064 21.668 263.432 21.812C261.8 21.932 260.3 21.992 258.932 21.992C258.068 21.992 257.288 21.98 256.592 21.956C255.896 21.908 255.224 21.872 254.576 21.848L254.468 17.348C255.404 17.444 256.208 17.516 256.88 17.564C257.552 17.612 258.26 17.636 259.004 17.636ZM270.308 23.144C271.316 23.048 272.432 22.964 273.656 22.892C274.88 22.82 276.068 22.784 277.22 22.784C278.252 22.784 279.296 22.808 280.352 22.856C281.432 22.904 282.5 22.988 283.556 23.108L283.448 27.428C282.56 27.308 281.576 27.212 280.496 27.14C279.44 27.044 278.36 26.996 277.256 26.996C276.032 26.996 274.844 27.032 273.692 27.104C272.564 27.152 271.436 27.248 270.308 27.392V23.144ZM272.252 32.216C272.108 32.72 271.988 33.248 271.892 33.8C271.796 34.328 271.748 34.796 271.748 35.204C271.748 35.588 271.832 35.948 272 36.284C272.168 36.62 272.432 36.92 272.792 37.184C273.152 37.424 273.644 37.616 274.268 37.76C274.916 37.904 275.72 37.976 276.68 37.976C277.904 37.976 279.128 37.916 280.352 37.796C281.6 37.652 282.872 37.46 284.168 37.22L283.988 41.828C282.98 41.948 281.864 42.056 280.64 42.152C279.416 42.272 278.084 42.332 276.644 42.332C273.62 42.332 271.304 41.84 269.696 40.856C268.112 39.848 267.32 38.432 267.32 36.608C267.32 35.792 267.392 34.964 267.536 34.124C267.68 33.284 267.824 32.504 267.968 31.784L272.252 32.216ZM302.024 12.668C301.88 13.172 301.724 13.772 301.556 14.468C301.412 15.14 301.304 15.68 301.232 16.088C301.064 16.904 300.848 17.9 300.584 19.076C300.344 20.252 300.08 21.5 299.792 22.82C299.504 24.116 299.204 25.376 298.892 26.6C298.556 27.848 298.16 29.216 297.704 30.704C297.272 32.192 296.792 33.692 296.264 35.204C295.76 36.716 295.244 38.168 294.716 39.56C294.188 40.952 293.672 42.188 293.168 43.268L288.128 41.576C288.68 40.664 289.244 39.548 289.82 38.228C290.42 36.908 291.008 35.504 291.584 34.016C292.16 32.504 292.688 31.004 293.168 29.516C293.648 28.004 294.056 26.624 294.392 25.376C294.608 24.512 294.824 23.636 295.04 22.748C295.256 21.86 295.448 20.996 295.616 20.156C295.808 19.316 295.964 18.536 296.084 17.816C296.228 17.072 296.336 16.436 296.408 15.908C296.48 15.236 296.528 14.564 296.552 13.892C296.576 13.22 296.564 12.668 296.516 12.236L302.024 12.668ZM292.844 18.068C294.308 18.068 295.832 17.996 297.416 17.852C299 17.708 300.596 17.504 302.204 17.24C303.812 16.952 305.408 16.628 306.992 16.268V20.768C305.504 21.128 303.92 21.428 302.24 21.668C300.56 21.908 298.904 22.1 297.272 22.244C295.64 22.364 294.14 22.424 292.772 22.424C291.908 22.424 291.128 22.412 290.432 22.388C289.736 22.34 289.064 22.304 288.416 22.28L288.308 17.78C289.244 17.876 290.048 17.948 290.72 17.996C291.392 18.044 292.1 18.068 292.844 18.068ZM304.148 23.576C305.156 23.456 306.272 23.372 307.496 23.324C308.72 23.252 309.908 23.216 311.06 23.216C312.092 23.216 313.136 23.24 314.192 23.288C315.272 23.336 316.34 23.42 317.396 23.54L317.288 27.86C316.4 27.74 315.416 27.632 314.336 27.536C313.28 27.44 312.2 27.392 311.096 27.392C309.848 27.392 308.66 27.428 307.532 27.5C306.404 27.548 305.276 27.644 304.148 27.788V23.576ZM306.092 32.612C305.948 33.116 305.828 33.644 305.732 34.196C305.636 34.748 305.588 35.216 305.588 35.6C305.588 36.008 305.672 36.38 305.84 36.716C306.008 37.052 306.272 37.352 306.632 37.616C306.992 37.856 307.484 38.048 308.108 38.192C308.756 38.312 309.56 38.372 310.52 38.372C311.72 38.372 312.944 38.312 314.192 38.192C315.44 38.072 316.712 37.892 318.008 37.652L317.828 42.224C316.82 42.368 315.704 42.488 314.48 42.584C313.256 42.704 311.924 42.764 310.484 42.764C307.46 42.764 305.144 42.26 303.536 41.252C301.952 40.244 301.16 38.84 301.16 37.04C301.16 36.2 301.22 35.36 301.34 34.52C301.484 33.68 301.628 32.912 301.772 32.216L306.092 32.612ZM313.544 13.712C313.856 14.144 314.18 14.66 314.516 15.26C314.876 15.86 315.224 16.46 315.56 17.06C315.896 17.66 316.172 18.188 316.388 18.644L313.508 19.904C313.268 19.4 312.992 18.848 312.68 18.248C312.368 17.648 312.044 17.048 311.708 16.448C311.372 15.848 311.036 15.332 310.7 14.9L313.544 13.712ZM317.792 12.092C318.128 12.524 318.476 13.052 318.836 13.676C319.196 14.276 319.544 14.876 319.88 15.476C320.24 16.052 320.516 16.556 320.708 16.988L317.864 18.212C317.48 17.444 317.024 16.592 316.496 15.656C315.968 14.72 315.452 13.916 314.948 13.244L317.792 12.092ZM326.864 15.152C329.504 15.464 331.928 15.656 334.136 15.728C336.368 15.776 338.432 15.728 340.328 15.584C341.984 15.44 343.568 15.224 345.08 14.936C346.592 14.648 348.08 14.276 349.544 13.82L350.12 17.96C348.824 18.32 347.42 18.632 345.908 18.896C344.396 19.16 342.848 19.364 341.264 19.508C339.416 19.652 337.28 19.724 334.856 19.724C332.456 19.7 329.876 19.556 327.116 19.292L326.864 15.152ZM326.216 22.712C328.4 22.904 330.488 23.036 332.48 23.108C334.472 23.18 336.344 23.18 338.096 23.108C339.848 23.036 341.444 22.94 342.884 22.82C344.828 22.652 346.496 22.412 347.888 22.1C349.28 21.764 350.492 21.452 351.524 21.164L352.244 25.412C351.164 25.676 349.976 25.928 348.68 26.168C347.384 26.408 346.004 26.612 344.54 26.78C343.004 26.924 341.24 27.044 339.248 27.14C337.28 27.212 335.204 27.236 333.02 27.212C330.836 27.164 328.652 27.08 326.468 26.96L326.216 22.712ZM338.24 16.16C338.072 15.488 337.88 14.828 337.664 14.18C337.448 13.508 337.208 12.824 336.944 12.128L341.804 11.588C341.948 12.716 342.128 13.832 342.344 14.936C342.584 16.016 342.848 17.06 343.136 18.068C343.448 19.076 343.748 20.048 344.036 20.984C344.324 21.8 344.696 22.736 345.152 23.792C345.632 24.824 346.148 25.868 346.7 26.924C347.252 27.956 347.804 28.892 348.356 29.732C348.596 30.068 348.836 30.392 349.076 30.704C349.34 30.992 349.64 31.28 349.976 31.568L347.78 34.88C347.108 34.736 346.268 34.592 345.26 34.448C344.276 34.304 343.244 34.172 342.164 34.052C341.108 33.932 340.136 33.824 339.248 33.728L339.608 30.308C340.352 30.38 341.156 30.452 342.02 30.524C342.908 30.596 343.616 30.668 344.144 30.74C343.184 29.132 342.356 27.56 341.66 26.024C340.988 24.488 340.424 23.06 339.968 21.74C339.68 20.9 339.44 20.18 339.248 19.58C339.056 18.956 338.876 18.38 338.708 17.852C338.564 17.3 338.408 16.736 338.24 16.16ZM333.128 31.064C332.696 31.664 332.324 32.288 332.012 32.936C331.7 33.56 331.544 34.268 331.544 35.06C331.544 36.38 332.156 37.34 333.38 37.94C334.628 38.516 336.44 38.804 338.816 38.804C340.52 38.804 342.128 38.732 343.64 38.588C345.176 38.444 346.58 38.252 347.852 38.012L347.6 42.584C346.352 42.8 344.948 42.968 343.388 43.088C341.828 43.208 340.316 43.268 338.852 43.268C336.452 43.268 334.376 43.016 332.624 42.512C330.896 42.008 329.552 41.228 328.592 40.172C327.632 39.092 327.14 37.7 327.116 35.996C327.092 34.844 327.236 33.812 327.548 32.9C327.884 31.964 328.256 31.064 328.664 30.2L333.128 31.064ZM377.372 11.876C377.324 12.236 377.276 12.644 377.228 13.1C377.204 13.532 377.18 13.976 377.156 14.432C377.132 14.912 377.108 15.56 377.084 16.376C377.06 17.168 377.048 18.044 377.048 19.004C377.048 19.964 377.048 20.912 377.048 21.848C377.048 22.784 377.048 23.636 377.048 24.404C377.048 25.412 377.072 26.54 377.12 27.788C377.168 29.012 377.228 30.26 377.3 31.532C377.396 32.78 377.468 33.956 377.516 35.06C377.588 36.14 377.624 37.04 377.624 37.76C377.624 38.768 377.36 39.692 376.832 40.532C376.304 41.348 375.512 41.996 374.456 42.476C373.424 42.956 372.116 43.196 370.532 43.196C367.652 43.196 365.468 42.668 363.98 41.612C362.492 40.556 361.748 39.08 361.748 37.184C361.748 35.96 362.096 34.892 362.792 33.98C363.512 33.044 364.532 32.312 365.852 31.784C367.196 31.256 368.792 30.992 370.64 30.992C372.608 30.992 374.444 31.208 376.148 31.64C377.876 32.048 379.448 32.588 380.864 33.26C382.28 33.932 383.54 34.64 384.644 35.384C385.748 36.128 386.684 36.8 387.452 37.4L384.86 41.432C383.996 40.616 383.024 39.812 381.944 39.02C380.888 38.228 379.724 37.508 378.452 36.86C377.204 36.212 375.872 35.696 374.456 35.312C373.064 34.904 371.588 34.7 370.028 34.7C368.78 34.7 367.808 34.916 367.112 35.348C366.44 35.78 366.104 36.308 366.104 36.932C366.104 37.388 366.248 37.784 366.536 38.12C366.824 38.456 367.244 38.708 367.796 38.876C368.348 39.044 369.044 39.128 369.884 39.128C370.532 39.128 371.084 39.056 371.54 38.912C372.02 38.768 372.392 38.504 372.656 38.12C372.92 37.736 373.052 37.196 373.052 36.5C373.052 35.972 373.028 35.216 372.98 34.232C372.956 33.248 372.92 32.168 372.872 30.992C372.824 29.792 372.776 28.616 372.728 27.464C372.68 26.312 372.656 25.292 372.656 24.404C372.656 23.54 372.656 22.64 372.656 21.704C372.68 20.744 372.692 19.796 372.692 18.86C372.692 17.924 372.692 17.072 372.692 16.304C372.716 15.512 372.728 14.864 372.728 14.36C372.728 14.024 372.704 13.616 372.656 13.136C372.632 12.632 372.584 12.212 372.512 11.876H377.372ZM362.432 15.26C363.08 15.356 363.8 15.452 364.592 15.548C365.384 15.644 366.188 15.74 367.004 15.836C367.844 15.908 368.636 15.968 369.38 16.016C370.124 16.04 370.772 16.052 371.324 16.052C373.772 16.052 376.208 15.98 378.632 15.836C381.08 15.668 383.612 15.368 386.228 14.936L386.192 19.076C384.968 19.244 383.552 19.4 381.944 19.544C380.336 19.688 378.62 19.808 376.796 19.904C374.996 19.976 373.184 20.012 371.36 20.012C370.616 20.012 369.692 19.988 368.588 19.94C367.508 19.868 366.428 19.784 365.348 19.688C364.268 19.568 363.332 19.46 362.54 19.364L362.432 15.26ZM362.252 23.036C362.828 23.132 363.512 23.228 364.304 23.324C365.096 23.42 365.9 23.492 366.716 23.54C367.556 23.588 368.348 23.636 369.092 23.684C369.836 23.708 370.448 23.72 370.928 23.72C373.16 23.72 375.176 23.672 376.976 23.576C378.8 23.48 380.504 23.36 382.088 23.216C383.672 23.072 385.196 22.904 386.66 22.712L386.624 26.96C385.376 27.104 384.164 27.224 382.988 27.32C381.836 27.416 380.648 27.5 379.424 27.572C378.224 27.644 376.928 27.692 375.536 27.716C374.144 27.74 372.584 27.752 370.856 27.752C370.16 27.752 369.296 27.74 368.264 27.716C367.232 27.668 366.176 27.608 365.096 27.536C364.04 27.464 363.104 27.38 362.288 27.284L362.252 23.036ZM414.308 11.984C414.284 12.176 414.248 12.488 414.2 12.92C414.176 13.328 414.152 13.748 414.128 14.18C414.104 14.588 414.08 14.888 414.056 15.08C414.032 15.56 414.02 16.208 414.02 17.024C414.02 17.816 414.02 18.704 414.02 19.688C414.02 20.672 414.02 21.668 414.02 22.676C414.044 23.66 414.056 24.596 414.056 25.484C414.08 26.348 414.092 27.068 414.092 27.644L409.592 26.132C409.592 25.676 409.592 25.076 409.592 24.332C409.592 23.564 409.592 22.736 409.592 21.848C409.592 20.936 409.58 20.036 409.556 19.148C409.556 18.26 409.544 17.456 409.52 16.736C409.496 16.016 409.472 15.476 409.448 15.116C409.4 14.372 409.34 13.724 409.268 13.172C409.196 12.596 409.136 12.2 409.088 11.984H414.308ZM393.968 16.448C395.024 16.448 396.224 16.436 397.568 16.412C398.912 16.388 400.316 16.364 401.78 16.34C403.244 16.316 404.684 16.292 406.1 16.268C407.516 16.244 408.848 16.232 410.096 16.232C411.344 16.208 412.424 16.196 413.336 16.196C414.248 16.196 415.244 16.196 416.324 16.196C417.404 16.172 418.472 16.16 419.528 16.16C420.584 16.16 421.544 16.16 422.408 16.16C423.296 16.16 423.98 16.16 424.46 16.16L424.424 20.408C423.296 20.36 421.808 20.324 419.96 20.3C418.112 20.252 415.856 20.228 413.192 20.228C411.56 20.228 409.904 20.252 408.224 20.3C406.544 20.324 404.876 20.36 403.22 20.408C401.564 20.456 399.968 20.516 398.432 20.588C396.896 20.636 395.444 20.708 394.076 20.804L393.968 16.448ZM413.444 27.104C413.444 29.072 413.204 30.704 412.724 32C412.268 33.296 411.572 34.28 410.636 34.952C409.7 35.6 408.536 35.924 407.144 35.924C406.472 35.924 405.764 35.78 405.02 35.492C404.3 35.204 403.628 34.784 403.004 34.232C402.38 33.68 401.876 32.996 401.492 32.18C401.132 31.364 400.952 30.404 400.952 29.3C400.952 27.932 401.276 26.756 401.924 25.772C402.572 24.764 403.436 23.984 404.516 23.432C405.62 22.856 406.832 22.568 408.152 22.568C409.736 22.568 411.056 22.928 412.112 23.648C413.192 24.344 413.996 25.292 414.524 26.492C415.076 27.692 415.352 29.048 415.352 30.56C415.352 31.736 415.16 32.96 414.776 34.232C414.392 35.504 413.756 36.752 412.868 37.976C412.004 39.176 410.828 40.268 409.34 41.252C407.876 42.236 406.04 43.04 403.832 43.664L399.98 39.848C401.516 39.536 402.944 39.128 404.264 38.624C405.584 38.12 406.736 37.484 407.72 36.716C408.728 35.948 409.508 35 410.06 33.872C410.636 32.744 410.924 31.388 410.924 29.804C410.924 28.652 410.636 27.788 410.06 27.212C409.508 26.636 408.836 26.348 408.044 26.348C407.588 26.348 407.144 26.456 406.712 26.672C406.28 26.888 405.932 27.212 405.668 27.644C405.404 28.076 405.272 28.604 405.272 29.228C405.272 30.044 405.548 30.704 406.1 31.208C406.676 31.688 407.324 31.928 408.044 31.928C408.62 31.928 409.124 31.748 409.556 31.388C410.012 31.028 410.312 30.428 410.456 29.588C410.6 28.748 410.48 27.62 410.096 26.204L413.444 27.104Z" fill="#D83953"/>
</svg>
