<svg width="235" height="51" viewBox="0 0 235 51" fill="none" xmlns="http://www.w3.org/2000/svg">
<rect width="235" height="51" rx="25.5" fill="#FFE1DE"/>
<path d="M21.56 15.26C21.464 15.692 21.38 16.184 21.308 16.736C21.26 17.288 21.212 17.828 21.164 18.356C21.14 18.884 21.128 19.316 21.128 19.652C21.104 20.444 21.092 21.26 21.092 22.1C21.116 22.94 21.14 23.804 21.164 24.692C21.212 25.556 21.272 26.42 21.344 27.284C21.512 29.012 21.752 30.536 22.064 31.856C22.376 33.176 22.784 34.208 23.288 34.952C23.792 35.672 24.428 36.032 25.196 36.032C25.604 36.032 26 35.804 26.384 35.348C26.792 34.892 27.152 34.304 27.464 33.584C27.8 32.84 28.088 32.06 28.328 31.244C28.592 30.428 28.82 29.66 29.012 28.94L32.612 33.332C31.82 35.42 31.028 37.088 30.236 38.336C29.468 39.56 28.664 40.448 27.824 41C26.984 41.528 26.072 41.792 25.088 41.792C23.792 41.792 22.556 41.36 21.38 40.496C20.228 39.632 19.244 38.24 18.428 36.32C17.612 34.376 17.036 31.796 16.7 28.58C16.58 27.476 16.484 26.312 16.412 25.088C16.364 23.864 16.328 22.7 16.304 21.596C16.304 20.492 16.304 19.58 16.304 18.86C16.304 18.356 16.28 17.756 16.232 17.06C16.184 16.364 16.112 15.74 16.016 15.188L21.56 15.26ZM39.56 16.088C40.232 16.904 40.88 17.9 41.504 19.076C42.128 20.252 42.704 21.512 43.232 22.856C43.76 24.2 44.228 25.58 44.636 26.996C45.044 28.388 45.368 29.756 45.608 31.1C45.872 32.42 46.04 33.632 46.112 34.736L41.36 36.572C41.24 35.108 41.024 33.512 40.712 31.784C40.4 30.056 39.98 28.316 39.452 26.564C38.924 24.812 38.288 23.156 37.544 21.596C36.824 20.036 35.972 18.692 34.988 17.564L39.56 16.088ZM64.184 12.272C64.04 12.752 63.896 13.34 63.752 14.036C63.608 14.732 63.5 15.272 63.428 15.656C63.26 16.472 63.044 17.468 62.78 18.644C62.54 19.82 62.264 21.068 61.952 22.388C61.664 23.708 61.364 24.968 61.052 26.168C60.74 27.44 60.356 28.82 59.9 30.308C59.444 31.772 58.952 33.272 58.424 34.808C57.92 36.32 57.404 37.772 56.876 39.164C56.348 40.532 55.832 41.756 55.328 42.836L50.324 41.144C50.852 40.232 51.416 39.128 52.016 37.832C52.616 36.512 53.192 35.096 53.744 33.584C54.32 32.072 54.848 30.572 55.328 29.084C55.808 27.596 56.216 26.216 56.552 24.944C56.792 24.104 57.02 23.24 57.236 22.352C57.452 21.464 57.644 20.6 57.812 19.76C57.98 18.92 58.124 18.14 58.244 17.42C58.388 16.676 58.496 16.028 58.568 15.476C58.64 14.804 58.688 14.132 58.712 13.46C58.736 12.788 58.724 12.248 58.676 11.84L64.184 12.272ZM55.004 17.636C56.468 17.636 57.992 17.564 59.576 17.42C61.16 17.276 62.756 17.072 64.364 16.808C65.972 16.544 67.568 16.232 69.152 15.872V20.372C67.664 20.708 66.08 20.996 64.4 21.236C62.72 21.476 61.064 21.668 59.432 21.812C57.8 21.932 56.3 21.992 54.932 21.992C54.068 21.992 53.288 21.98 52.592 21.956C51.896 21.908 51.224 21.872 50.576 21.848L50.468 17.348C51.404 17.444 52.208 17.516 52.88 17.564C53.552 17.612 54.26 17.636 55.004 17.636ZM66.308 23.144C67.316 23.048 68.432 22.964 69.656 22.892C70.88 22.82 72.068 22.784 73.22 22.784C74.252 22.784 75.296 22.808 76.352 22.856C77.432 22.904 78.5 22.988 79.556 23.108L79.448 27.428C78.56 27.308 77.576 27.212 76.496 27.14C75.44 27.044 74.36 26.996 73.256 26.996C72.032 26.996 70.844 27.032 69.692 27.104C68.564 27.152 67.436 27.248 66.308 27.392V23.144ZM68.252 32.216C68.108 32.72 67.988 33.248 67.892 33.8C67.796 34.328 67.748 34.796 67.748 35.204C67.748 35.588 67.832 35.948 68 36.284C68.168 36.62 68.432 36.92 68.792 37.184C69.152 37.424 69.644 37.616 70.268 37.76C70.916 37.904 71.72 37.976 72.68 37.976C73.904 37.976 75.128 37.916 76.352 37.796C77.6 37.652 78.872 37.46 80.168 37.22L79.988 41.828C78.98 41.948 77.864 42.056 76.64 42.152C75.416 42.272 74.084 42.332 72.644 42.332C69.62 42.332 67.304 41.84 65.696 40.856C64.112 39.848 63.32 38.432 63.32 36.608C63.32 35.792 63.392 34.964 63.536 34.124C63.68 33.284 63.824 32.504 63.968 31.784L68.252 32.216ZM98.024 12.668C97.88 13.172 97.724 13.772 97.556 14.468C97.412 15.14 97.304 15.68 97.232 16.088C97.064 16.904 96.848 17.9 96.584 19.076C96.344 20.252 96.08 21.5 95.792 22.82C95.504 24.116 95.204 25.376 94.892 26.6C94.556 27.848 94.16 29.216 93.704 30.704C93.272 32.192 92.792 33.692 92.264 35.204C91.76 36.716 91.244 38.168 90.716 39.56C90.188 40.952 89.672 42.188 89.168 43.268L84.128 41.576C84.68 40.664 85.244 39.548 85.82 38.228C86.42 36.908 87.008 35.504 87.584 34.016C88.16 32.504 88.688 31.004 89.168 29.516C89.648 28.004 90.056 26.624 90.392 25.376C90.608 24.512 90.824 23.636 91.04 22.748C91.256 21.86 91.448 20.996 91.616 20.156C91.808 19.316 91.964 18.536 92.084 17.816C92.228 17.072 92.336 16.436 92.408 15.908C92.48 15.236 92.528 14.564 92.552 13.892C92.576 13.22 92.564 12.668 92.516 12.236L98.024 12.668ZM88.844 18.068C90.308 18.068 91.832 17.996 93.416 17.852C95 17.708 96.596 17.504 98.204 17.24C99.812 16.952 101.408 16.628 102.992 16.268V20.768C101.504 21.128 99.92 21.428 98.24 21.668C96.56 21.908 94.904 22.1 93.272 22.244C91.64 22.364 90.14 22.424 88.772 22.424C87.908 22.424 87.128 22.412 86.432 22.388C85.736 22.34 85.064 22.304 84.416 22.28L84.308 17.78C85.244 17.876 86.048 17.948 86.72 17.996C87.392 18.044 88.1 18.068 88.844 18.068ZM100.148 23.576C101.156 23.456 102.272 23.372 103.496 23.324C104.72 23.252 105.908 23.216 107.06 23.216C108.092 23.216 109.136 23.24 110.192 23.288C111.272 23.336 112.34 23.42 113.396 23.54L113.288 27.86C112.4 27.74 111.416 27.632 110.336 27.536C109.28 27.44 108.2 27.392 107.096 27.392C105.848 27.392 104.66 27.428 103.532 27.5C102.404 27.548 101.276 27.644 100.148 27.788V23.576ZM102.092 32.612C101.948 33.116 101.828 33.644 101.732 34.196C101.636 34.748 101.588 35.216 101.588 35.6C101.588 36.008 101.672 36.38 101.84 36.716C102.008 37.052 102.272 37.352 102.632 37.616C102.992 37.856 103.484 38.048 104.108 38.192C104.756 38.312 105.56 38.372 106.52 38.372C107.72 38.372 108.944 38.312 110.192 38.192C111.44 38.072 112.712 37.892 114.008 37.652L113.828 42.224C112.82 42.368 111.704 42.488 110.48 42.584C109.256 42.704 107.924 42.764 106.484 42.764C103.46 42.764 101.144 42.26 99.536 41.252C97.952 40.244 97.16 38.84 97.16 37.04C97.16 36.2 97.22 35.36 97.34 34.52C97.484 33.68 97.628 32.912 97.772 32.216L102.092 32.612ZM109.544 13.712C109.856 14.144 110.18 14.66 110.516 15.26C110.876 15.86 111.224 16.46 111.56 17.06C111.896 17.66 112.172 18.188 112.388 18.644L109.508 19.904C109.268 19.4 108.992 18.848 108.68 18.248C108.368 17.648 108.044 17.048 107.708 16.448C107.372 15.848 107.036 15.332 106.7 14.9L109.544 13.712ZM113.792 12.092C114.128 12.524 114.476 13.052 114.836 13.676C115.196 14.276 115.544 14.876 115.88 15.476C116.24 16.052 116.516 16.556 116.708 16.988L113.864 18.212C113.48 17.444 113.024 16.592 112.496 15.656C111.968 14.72 111.452 13.916 110.948 13.244L113.792 12.092ZM122.864 15.152C125.504 15.464 127.928 15.656 130.136 15.728C132.368 15.776 134.432 15.728 136.328 15.584C137.984 15.44 139.568 15.224 141.08 14.936C142.592 14.648 144.08 14.276 145.544 13.82L146.12 17.96C144.824 18.32 143.42 18.632 141.908 18.896C140.396 19.16 138.848 19.364 137.264 19.508C135.416 19.652 133.28 19.724 130.856 19.724C128.456 19.7 125.876 19.556 123.116 19.292L122.864 15.152ZM122.216 22.712C124.4 22.904 126.488 23.036 128.48 23.108C130.472 23.18 132.344 23.18 134.096 23.108C135.848 23.036 137.444 22.94 138.884 22.82C140.828 22.652 142.496 22.412 143.888 22.1C145.28 21.764 146.492 21.452 147.524 21.164L148.244 25.412C147.164 25.676 145.976 25.928 144.68 26.168C143.384 26.408 142.004 26.612 140.54 26.78C139.004 26.924 137.24 27.044 135.248 27.14C133.28 27.212 131.204 27.236 129.02 27.212C126.836 27.164 124.652 27.08 122.468 26.96L122.216 22.712ZM134.24 16.16C134.072 15.488 133.88 14.828 133.664 14.18C133.448 13.508 133.208 12.824 132.944 12.128L137.804 11.588C137.948 12.716 138.128 13.832 138.344 14.936C138.584 16.016 138.848 17.06 139.136 18.068C139.448 19.076 139.748 20.048 140.036 20.984C140.324 21.8 140.696 22.736 141.152 23.792C141.632 24.824 142.148 25.868 142.7 26.924C143.252 27.956 143.804 28.892 144.356 29.732C144.596 30.068 144.836 30.392 145.076 30.704C145.34 30.992 145.64 31.28 145.976 31.568L143.78 34.88C143.108 34.736 142.268 34.592 141.26 34.448C140.276 34.304 139.244 34.172 138.164 34.052C137.108 33.932 136.136 33.824 135.248 33.728L135.608 30.308C136.352 30.38 137.156 30.452 138.02 30.524C138.908 30.596 139.616 30.668 140.144 30.74C139.184 29.132 138.356 27.56 137.66 26.024C136.988 24.488 136.424 23.06 135.968 21.74C135.68 20.9 135.44 20.18 135.248 19.58C135.056 18.956 134.876 18.38 134.708 17.852C134.564 17.3 134.408 16.736 134.24 16.16ZM129.128 31.064C128.696 31.664 128.324 32.288 128.012 32.936C127.7 33.56 127.544 34.268 127.544 35.06C127.544 36.38 128.156 37.34 129.38 37.94C130.628 38.516 132.44 38.804 134.816 38.804C136.52 38.804 138.128 38.732 139.64 38.588C141.176 38.444 142.58 38.252 143.852 38.012L143.6 42.584C142.352 42.8 140.948 42.968 139.388 43.088C137.828 43.208 136.316 43.268 134.852 43.268C132.452 43.268 130.376 43.016 128.624 42.512C126.896 42.008 125.552 41.228 124.592 40.172C123.632 39.092 123.14 37.7 123.116 35.996C123.092 34.844 123.236 33.812 123.548 32.9C123.884 31.964 124.256 31.064 124.664 30.2L129.128 31.064ZM173.372 11.876C173.324 12.236 173.276 12.644 173.228 13.1C173.204 13.532 173.18 13.976 173.156 14.432C173.132 14.912 173.108 15.56 173.084 16.376C173.06 17.168 173.048 18.044 173.048 19.004C173.048 19.964 173.048 20.912 173.048 21.848C173.048 22.784 173.048 23.636 173.048 24.404C173.048 25.412 173.072 26.54 173.12 27.788C173.168 29.012 173.228 30.26 173.3 31.532C173.396 32.78 173.468 33.956 173.516 35.06C173.588 36.14 173.624 37.04 173.624 37.76C173.624 38.768 173.36 39.692 172.832 40.532C172.304 41.348 171.512 41.996 170.456 42.476C169.424 42.956 168.116 43.196 166.532 43.196C163.652 43.196 161.468 42.668 159.98 41.612C158.492 40.556 157.748 39.08 157.748 37.184C157.748 35.96 158.096 34.892 158.792 33.98C159.512 33.044 160.532 32.312 161.852 31.784C163.196 31.256 164.792 30.992 166.64 30.992C168.608 30.992 170.444 31.208 172.148 31.64C173.876 32.048 175.448 32.588 176.864 33.26C178.28 33.932 179.54 34.64 180.644 35.384C181.748 36.128 182.684 36.8 183.452 37.4L180.86 41.432C179.996 40.616 179.024 39.812 177.944 39.02C176.888 38.228 175.724 37.508 174.452 36.86C173.204 36.212 171.872 35.696 170.456 35.312C169.064 34.904 167.588 34.7 166.028 34.7C164.78 34.7 163.808 34.916 163.112 35.348C162.44 35.78 162.104 36.308 162.104 36.932C162.104 37.388 162.248 37.784 162.536 38.12C162.824 38.456 163.244 38.708 163.796 38.876C164.348 39.044 165.044 39.128 165.884 39.128C166.532 39.128 167.084 39.056 167.54 38.912C168.02 38.768 168.392 38.504 168.656 38.12C168.92 37.736 169.052 37.196 169.052 36.5C169.052 35.972 169.028 35.216 168.98 34.232C168.956 33.248 168.92 32.168 168.872 30.992C168.824 29.792 168.776 28.616 168.728 27.464C168.68 26.312 168.656 25.292 168.656 24.404C168.656 23.54 168.656 22.64 168.656 21.704C168.68 20.744 168.692 19.796 168.692 18.86C168.692 17.924 168.692 17.072 168.692 16.304C168.716 15.512 168.728 14.864 168.728 14.36C168.728 14.024 168.704 13.616 168.656 13.136C168.632 12.632 168.584 12.212 168.512 11.876H173.372ZM158.432 15.26C159.08 15.356 159.8 15.452 160.592 15.548C161.384 15.644 162.188 15.74 163.004 15.836C163.844 15.908 164.636 15.968 165.38 16.016C166.124 16.04 166.772 16.052 167.324 16.052C169.772 16.052 172.208 15.98 174.632 15.836C177.08 15.668 179.612 15.368 182.228 14.936L182.192 19.076C180.968 19.244 179.552 19.4 177.944 19.544C176.336 19.688 174.62 19.808 172.796 19.904C170.996 19.976 169.184 20.012 167.36 20.012C166.616 20.012 165.692 19.988 164.588 19.94C163.508 19.868 162.428 19.784 161.348 19.688C160.268 19.568 159.332 19.46 158.54 19.364L158.432 15.26ZM158.252 23.036C158.828 23.132 159.512 23.228 160.304 23.324C161.096 23.42 161.9 23.492 162.716 23.54C163.556 23.588 164.348 23.636 165.092 23.684C165.836 23.708 166.448 23.72 166.928 23.72C169.16 23.72 171.176 23.672 172.976 23.576C174.8 23.48 176.504 23.36 178.088 23.216C179.672 23.072 181.196 22.904 182.66 22.712L182.624 26.96C181.376 27.104 180.164 27.224 178.988 27.32C177.836 27.416 176.648 27.5 175.424 27.572C174.224 27.644 172.928 27.692 171.536 27.716C170.144 27.74 168.584 27.752 166.856 27.752C166.16 27.752 165.296 27.74 164.264 27.716C163.232 27.668 162.176 27.608 161.096 27.536C160.04 27.464 159.104 27.38 158.288 27.284L158.252 23.036ZM210.308 11.984C210.284 12.176 210.248 12.488 210.2 12.92C210.176 13.328 210.152 13.748 210.128 14.18C210.104 14.588 210.08 14.888 210.056 15.08C210.032 15.56 210.02 16.208 210.02 17.024C210.02 17.816 210.02 18.704 210.02 19.688C210.02 20.672 210.02 21.668 210.02 22.676C210.044 23.66 210.056 24.596 210.056 25.484C210.08 26.348 210.092 27.068 210.092 27.644L205.592 26.132C205.592 25.676 205.592 25.076 205.592 24.332C205.592 23.564 205.592 22.736 205.592 21.848C205.592 20.936 205.58 20.036 205.556 19.148C205.556 18.26 205.544 17.456 205.52 16.736C205.496 16.016 205.472 15.476 205.448 15.116C205.4 14.372 205.34 13.724 205.268 13.172C205.196 12.596 205.136 12.2 205.088 11.984H210.308ZM189.968 16.448C191.024 16.448 192.224 16.436 193.568 16.412C194.912 16.388 196.316 16.364 197.78 16.34C199.244 16.316 200.684 16.292 202.1 16.268C203.516 16.244 204.848 16.232 206.096 16.232C207.344 16.208 208.424 16.196 209.336 16.196C210.248 16.196 211.244 16.196 212.324 16.196C213.404 16.172 214.472 16.16 215.528 16.16C216.584 16.16 217.544 16.16 218.408 16.16C219.296 16.16 219.98 16.16 220.46 16.16L220.424 20.408C219.296 20.36 217.808 20.324 215.96 20.3C214.112 20.252 211.856 20.228 209.192 20.228C207.56 20.228 205.904 20.252 204.224 20.3C202.544 20.324 200.876 20.36 199.22 20.408C197.564 20.456 195.968 20.516 194.432 20.588C192.896 20.636 191.444 20.708 190.076 20.804L189.968 16.448ZM209.444 27.104C209.444 29.072 209.204 30.704 208.724 32C208.268 33.296 207.572 34.28 206.636 34.952C205.7 35.6 204.536 35.924 203.144 35.924C202.472 35.924 201.764 35.78 201.02 35.492C200.3 35.204 199.628 34.784 199.004 34.232C198.38 33.68 197.876 32.996 197.492 32.18C197.132 31.364 196.952 30.404 196.952 29.3C196.952 27.932 197.276 26.756 197.924 25.772C198.572 24.764 199.436 23.984 200.516 23.432C201.62 22.856 202.832 22.568 204.152 22.568C205.736 22.568 207.056 22.928 208.112 23.648C209.192 24.344 209.996 25.292 210.524 26.492C211.076 27.692 211.352 29.048 211.352 30.56C211.352 31.736 211.16 32.96 210.776 34.232C210.392 35.504 209.756 36.752 208.868 37.976C208.004 39.176 206.828 40.268 205.34 41.252C203.876 42.236 202.04 43.04 199.832 43.664L195.98 39.848C197.516 39.536 198.944 39.128 200.264 38.624C201.584 38.12 202.736 37.484 203.72 36.716C204.728 35.948 205.508 35 206.06 33.872C206.636 32.744 206.924 31.388 206.924 29.804C206.924 28.652 206.636 27.788 206.06 27.212C205.508 26.636 204.836 26.348 204.044 26.348C203.588 26.348 203.144 26.456 202.712 26.672C202.28 26.888 201.932 27.212 201.668 27.644C201.404 28.076 201.272 28.604 201.272 29.228C201.272 30.044 201.548 30.704 202.1 31.208C202.676 31.688 203.324 31.928 204.044 31.928C204.62 31.928 205.124 31.748 205.556 31.388C206.012 31.028 206.312 30.428 206.456 29.588C206.6 28.748 206.48 27.62 206.096 26.204L209.444 27.104Z" fill="#D83953"/>
</svg>
