<svg width="193" height="51" viewBox="0 0 193 51" fill="none" xmlns="http://www.w3.org/2000/svg">
<path d="M176.762 0.753906C180.746 0.618155 184.082 3.71494 184.223 7.6582L185.245 36.2871C185.386 40.2294 182.281 43.5445 178.298 43.6807L15.2383 49.2461C11.2541 49.3818 7.91823 46.2851 7.77734 42.3418L6.75488 13.7129C6.61403 9.77059 9.71888 6.45552 13.7021 6.31934L176.762 0.753906Z" stroke="#FCBE79" stroke-width="1.5"/>
<rect x="10" y="2.99976" width="180" height="45" rx="8" fill="#F69F5D"/>
<path d="M26.536 21.8518C26.464 21.8518 26.428 21.8158 26.428 21.7798C25.96 21.4198 25.816 20.5198 25.816 19.9798C25.78 19.1158 25.672 18.2518 25.672 17.4238C25.672 16.1998 25.636 14.7238 25.852 13.5358C25.996 12.7798 26.284 12.3478 27.004 12.0598C27.652 11.8078 28.336 11.7358 29.02 11.6638C29.848 11.5918 30.712 11.6638 31.576 11.6638H38.416C40.864 11.6638 40.54 11.6638 42.952 11.6278C43.384 11.6278 43.78 11.6278 44.212 11.6638C45.112 11.6998 46.12 11.7358 46.948 12.1318C47.884 12.5278 48.172 13.5358 48.208 14.4718C48.28 15.5518 48.172 16.9198 48.172 17.9998C48.136 18.9718 48.172 19.9438 47.92 20.8798C47.776 21.4198 47.668 21.8518 47.092 22.0318C46.588 22.2118 45.94 22.2478 45.436 22.2478H29.884C29.416 22.2478 28.948 22.2118 28.48 22.1758C27.868 22.1398 27.076 22.2118 26.536 21.8518ZM46.516 28.7278C44.14 28.7998 42.268 28.8718 39.856 28.8718C39.82 29.8798 39.748 30.8158 39.748 32.1838C39.532 33.1918 38.2 33.8038 37.228 33.7678C35.788 33.6958 34.996 33.1198 34.852 31.6798C34.744 30.7438 34.888 29.7358 34.888 28.7998C32.692 28.7998 26.932 28.7278 24.916 28.5838C24.16 28.5118 23.8 28.4758 23.188 27.8998C22.864 27.6118 22.72 27.0718 22.72 26.5678C22.72 26.0998 22.9 25.6318 23.188 25.3438C23.908 24.5878 25.672 24.6238 25.744 24.6238H46.336C47.056 24.6238 47.776 24.6238 48.46 24.6598C49.108 24.6958 49.828 24.8038 50.332 25.2718C50.836 25.6678 50.836 26.1358 50.836 26.7118C50.836 27.4318 50.404 28.0438 49.684 28.2958C48.712 28.6558 47.524 28.6918 46.516 28.7278ZM47.524 35.5318C47.596 35.5678 48.928 35.8918 49.072 36.8998C49.216 37.7998 49.072 38.5198 48.64 39.0238C48.1 39.7078 47.308 39.7438 47.272 39.7438H27.616C25.78 39.7438 24.664 39.0958 24.664 38.0158V34.8118C24.628 34.2718 24.628 33.7318 24.664 33.1918C24.736 32.1838 25.492 31.4998 26.5 31.4998C26.752 31.4998 27.256 31.5358 27.472 31.6078C28.696 32.0038 28.768 33.2278 28.84 34.3078C28.84 34.7038 28.876 35.1358 28.984 35.4598C29.092 35.4958 29.812 35.6038 31.504 35.6038C32.944 35.6038 34.276 35.5318 34.312 35.5318H47.524ZM29.956 17.6398C29.956 17.8558 29.956 18.1078 30.064 18.2158C30.28 18.3958 31.108 18.2878 31.108 18.2878H40.576C40.576 18.2878 42.304 18.4318 43.168 18.3238C43.672 18.2878 43.672 18.0718 43.744 17.6398C43.78 17.2438 43.852 16.4158 43.564 16.0558C43.24 15.6598 42.484 15.7318 42.052 15.7678H38.776C38.452 15.7318 34.096 15.7678 33.772 15.7678C32.764 15.6958 31.756 15.7318 30.712 15.7678C30.28 15.7678 30.136 15.6958 30.028 16.1278C29.956 16.4518 29.956 17.0278 29.956 17.3158V17.6398ZM55.5264 33.0478C55.7064 32.9758 59.0184 33.1198 59.6304 33.1198C59.6664 32.5438 59.7384 30.1678 59.8104 28.9798C59.3784 28.8718 58.9824 28.7638 58.5864 28.5838C55.8864 27.4678 53.7984 25.2718 53.7984 22.1038C53.7984 20.3758 54.3024 19.0438 55.1304 17.9998H54.7344C53.5824 17.9998 52.6104 17.1358 52.6104 16.0918C52.6104 15.0118 53.5824 14.1478 54.7344 14.1478H59.4864V12.6718C59.4864 11.7358 60.4224 11.0518 61.5744 11.0518C62.7624 11.0518 63.6984 11.7358 63.6984 12.6718V14.1478H68.6664C69.8544 14.1478 70.8264 15.0118 70.8264 16.0918C70.8264 17.1358 69.8544 17.9998 68.6664 17.9998H68.5584C69.3864 19.0438 69.9264 20.3758 69.9264 22.1038C69.9264 24.3358 68.8464 26.1718 67.0464 27.5398C66.1464 28.1878 65.1384 28.6558 64.0944 28.9438C64.1664 30.0598 64.1664 32.5438 64.1664 33.0838V33.1198H68.9544C69.7464 33.1198 70.3944 33.2638 70.8624 33.5518C71.9424 34.1998 71.9064 35.9638 71.4384 36.8278C71.0064 37.5838 70.0704 37.6558 69.3144 37.6558H55.0944C55.0584 37.6558 53.8344 37.5478 53.1864 37.2598C52.7184 37.0078 52.3584 36.4678 52.2504 35.7838C52.1424 35.0278 52.3944 34.3078 52.8624 33.8758C53.7264 33.1558 54.6984 33.0478 55.5264 33.0478ZM79.3944 23.3638H79.4664C79.7184 23.3278 79.9344 23.3998 80.1504 23.3998C80.4384 23.4358 80.6904 23.4718 80.9784 23.5078C81.5184 23.6158 82.0944 23.8318 82.3824 24.3718C82.5264 24.6598 82.5984 24.9838 82.5984 25.3438C82.5984 25.6678 82.5984 26.0278 82.5264 26.3518C82.4184 26.7118 82.3104 27.2158 82.0224 27.4678C81.7344 27.6838 81.3744 27.8638 81.0144 27.9358C80.2584 28.0438 78.9624 27.9358 78.2064 27.9718C78.1344 28.0078 78.0984 28.0078 78.0984 28.0078C78.0984 28.0078 78.0984 28.0438 78.0624 28.1518C78.0264 29.3398 78.0624 30.3838 78.0624 31.6078C78.0984 32.8318 78.0984 34.0918 78.0624 35.2798V35.7838C78.0624 37.0438 78.0984 38.8798 77.2344 39.7798C76.9104 40.0678 76.5144 40.2478 76.0464 40.2478H75.9744C73.6344 40.1398 73.4184 37.3318 73.4184 35.8198V14.4358C73.4184 14.3638 73.3464 12.5638 74.1384 11.7718C74.4984 11.4478 75.2544 11.2678 75.7584 11.2678C76.2984 11.2678 76.8024 11.4838 77.1264 11.8078C77.7384 12.4918 77.8104 13.2478 77.8464 14.0398C77.8824 14.1838 77.8824 14.3278 77.9184 14.5078C77.9904 15.2638 77.9904 16.1638 78.0264 17.0278C78.0264 17.5678 78.0624 18.0718 78.0624 18.5758V22.4638C78.0624 22.7158 78.0624 23.0038 78.1344 23.2558C78.1344 23.2918 78.8544 23.2918 78.9264 23.3278C79.0704 23.3278 79.2504 23.3638 79.3944 23.3638ZM62.5464 24.9838C64.0944 24.6958 65.4264 23.9398 65.4264 22.1038C65.4264 19.9798 63.6624 19.1878 61.8984 19.1518C60.0984 19.0798 58.2984 19.8358 58.2984 22.1038C58.2984 24.6958 60.5664 25.3798 62.5464 24.9838ZM116.998 37.6558C117.754 37.6918 118.402 37.9798 118.618 38.7358C118.87 39.5998 118.582 40.2118 117.682 40.5358C117.106 40.7878 116.458 40.7878 115.99 40.7878H99.9698C98.9978 40.7878 97.9178 40.7878 96.8738 40.7518C95.5778 40.7158 95.1458 39.8158 95.0738 38.7358L94.9298 36.2518C94.8938 35.7118 94.8938 34.4518 95.3258 33.9478C95.9738 33.2638 96.8738 33.1558 97.9178 33.1558H99.0338C99.2498 33.1558 99.3938 33.1918 99.5378 33.1918H114.514V31.7518H99.1778C98.9258 31.7518 98.6738 31.7158 98.3858 31.7518H97.5218C97.0538 31.7518 96.6578 31.7518 96.2978 31.6798C95.8658 31.5718 95.5058 31.5718 95.2538 31.1758C94.9658 30.6718 94.8578 30.0958 95.0378 29.5198C95.2898 28.7638 96.3698 28.6558 96.9098 28.5478C97.2698 28.5118 97.6298 28.4758 98.0258 28.4758H98.6378C98.8898 28.5118 99.0698 28.5118 99.3218 28.5118H114.874C117.286 28.5118 118.654 29.1958 118.654 30.8878V34.1998C118.654 34.8478 118.366 35.4238 117.61 35.8918C116.998 36.2518 116.35 36.2158 115.738 36.2158H99.3578V37.6558H116.998ZM101.554 11.2678C106.45 11.5918 109.186 14.3998 108.826 19.5478C108.502 23.8318 106.198 26.3158 101.626 26.3158C99.8618 26.3158 97.8458 26.4958 95.6498 25.1278C93.5618 23.7958 92.9138 21.1318 92.9138 18.8278C92.9138 13.6438 96.5858 10.9078 101.554 11.2678ZM118.69 14.3278V24.6958C118.69 24.7318 118.546 26.1358 117.61 26.7478C117.286 26.9278 116.962 27.0358 116.602 27.0358C116.17 27.0358 115.774 26.8918 115.414 26.6398C115.162 26.4598 114.946 26.2078 114.802 25.8838C114.082 24.4438 114.37 22.3198 114.37 20.7358C114.406 18.6838 114.406 17.3518 114.406 15.3358V14.8678C114.37 14.3278 114.37 13.7158 114.514 13.1758C114.622 12.7798 114.838 12.4198 115.162 12.0238C115.558 11.5558 116.314 11.3038 117.106 11.4118C117.79 11.5198 118.33 11.8798 118.546 12.3478C118.834 12.9598 118.726 14.1478 118.69 14.3278ZM104.65 19.9798L104.686 19.6918C104.902 17.9638 104.038 16.3078 102.526 15.7678C100.51 15.0838 97.4138 15.6958 97.0178 18.3958C96.7298 20.2318 97.5218 22.2478 100.294 22.4998C102.202 22.7158 104.182 22.1758 104.65 19.9798ZM145.549 26.2438C145.945 26.2438 146.305 26.3518 146.809 26.4598C147.205 26.5678 147.601 26.7478 147.889 26.9278C148.213 27.2518 148.393 27.6478 148.393 28.1158C148.393 28.3318 148.393 28.6198 148.285 28.9078C148.213 29.1958 148.105 29.4118 147.889 29.5198C147.817 29.6998 147.493 29.8078 147.205 29.9158C146.917 29.9878 146.629 30.0958 146.305 30.0958C145.945 30.0958 145.621 30.2038 145.225 30.2038C145.045 30.2038 126.109 30.2038 126.109 30.2038C125.533 30.2038 124.921 30.2038 124.345 30.2038C123.661 30.2038 122.941 29.9878 122.473 29.5198C122.077 28.9078 121.969 27.8278 122.365 27.2518C122.545 26.8558 122.941 26.6398 123.265 26.5678C123.841 26.3518 124.345 26.2438 124.813 26.2438C125.317 26.2438 125.929 26.2438 126.505 26.2438C127.009 26.2438 132.409 26.2438 132.409 26.2438V24.0838C132.337 24.1918 132.121 24.0838 131.833 24.0838H130.753C129.673 24.0838 128.773 24.0838 127.585 24.0838C127.081 24.0838 126.325 24.0838 125.821 23.9758C125.317 23.9038 124.813 23.7958 124.417 23.5078C124.129 23.2918 123.949 23.0038 123.733 22.7158C123.661 22.3198 123.553 22.0318 123.445 21.7078C123.337 21.4198 123.337 21.1318 123.265 20.8438C123.265 20.6278 123.265 20.4478 123.265 20.4478V13.5358C123.265 13.1398 123.445 12.6358 123.661 12.2398C123.841 11.7718 124.237 11.5558 124.741 11.4478C125.029 11.4478 125.605 11.3758 125.929 11.3758C126.217 11.4478 126.397 11.4478 126.685 11.5558C127.585 11.9518 127.585 13.0318 127.585 13.9318C127.585 14.1118 127.585 14.4358 127.585 14.6158C127.585 14.9038 127.585 15.1198 127.585 15.1198C127.585 15.1198 142.777 15.2998 143.065 15.2278C143.065 15.1198 142.957 15.0118 143.065 14.8318C143.065 14.6158 143.065 14.4358 143.065 14.1118V13.7158V13.2478C143.065 12.8518 143.065 12.5638 143.281 12.1678C143.461 11.8438 144.037 11.5558 144.433 11.4478C145.333 11.2678 146.017 11.3758 146.521 11.7718C147.025 12.2398 147.205 12.8518 147.205 13.7158V15.5158C147.205 16.1998 147.205 16.8838 147.205 17.5678C147.205 18.2518 147.205 18.9718 147.205 19.6558C147.205 20.3398 147.205 20.9158 147.097 21.5278C147.097 21.8158 147.025 22.1038 146.917 22.3198C146.809 22.6078 146.701 22.7878 146.521 23.1118C146.125 23.6878 145.333 23.9038 144.757 23.9758C144.361 23.9758 144.037 24.0838 143.677 24.0838C142.957 24.0838 142.381 24.0838 141.697 24.0838C141.409 24.0838 138.925 24.0838 138.529 24.0838C138.241 24.0838 137.845 24.0838 137.557 24.0838C137.557 24.3718 137.557 25.0558 137.557 25.3798V26.2438C138.241 26.2438 138.421 26.2438 139.213 26.2438C140.005 26.2438 140.797 26.2438 141.481 26.2438H143.749C144.433 26.2438 145.045 26.2438 145.549 26.2438ZM132.625 35.6038H145.837C145.945 35.6038 145.945 35.6038 146.125 35.6038C146.233 35.7118 146.413 35.8198 146.629 35.9278C146.809 35.9998 146.917 36.1078 147.097 36.3238C147.205 36.5038 147.313 36.7198 147.421 37.0078C147.493 37.8718 147.421 38.5918 147.025 39.0598C146.701 39.4558 146.413 39.6718 146.125 39.6718C145.837 39.7798 145.621 39.7798 145.621 39.7798H125.929C125.029 39.7798 124.345 39.6718 123.841 39.3838C123.265 39.0598 123.049 38.5918 123.049 38.0878V34.8478C122.941 34.3438 122.941 33.8398 123.049 33.2638C123.049 32.7598 123.265 32.3638 123.553 32.0758C123.949 31.6798 124.345 31.5718 124.813 31.5718C124.921 31.5718 125.137 31.5718 125.317 31.5718C125.533 31.5718 125.713 31.5718 125.821 31.6798C126.109 31.7878 126.397 31.8598 126.505 32.0758C126.685 32.2558 126.793 32.4718 126.901 32.7598C127.009 33.0478 127.081 33.2638 127.081 33.5518C127.081 33.8398 127.189 34.1278 127.189 34.3438C127.189 34.5238 127.189 34.7398 127.189 34.9198C127.189 35.1358 127.297 35.3158 127.297 35.5318C127.405 35.5318 127.585 35.6038 127.981 35.6038C128.377 35.6038 128.953 35.6038 129.853 35.6038C130.537 35.6038 131.221 35.6038 131.725 35.6038C132.337 35.6038 132.625 35.6038 132.625 35.6038ZM127.801 20.4478C127.981 20.7358 128.269 20.8438 128.665 20.8438C128.953 20.8438 129.277 20.8438 129.565 20.8438C130.645 20.8438 131.545 20.8438 132.517 20.8438C132.913 20.8438 133.309 20.8438 133.705 20.8438H134.893H135.865C136.153 20.8438 142.381 20.8438 142.489 20.8438C142.669 20.8438 142.777 20.8438 142.885 20.7358C142.957 20.6278 143.065 20.4478 143.065 20.2318C143.065 20.0518 143.065 19.9438 143.065 19.7638C143.065 19.6558 143.065 18.6478 143.065 18.6478C143.065 18.6478 134.281 18.6478 133.705 18.6478C133.021 18.6478 129.565 18.6478 128.953 18.6478C128.557 18.6478 127.585 18.6478 127.585 18.6478C127.585 18.6478 127.585 19.5838 127.585 19.6918C127.693 19.8718 127.693 20.3398 127.801 20.4478ZM157.84 11.3038C158.452 11.3038 159.028 11.3758 159.604 11.4478C160.504 11.5918 161.332 12.0238 162.016 12.7078C164.356 15.1558 164.86 19.3678 165.004 22.7878C165.112 24.9838 165.076 27.2158 164.824 29.3758C164.572 31.6078 164.248 34.0198 163.06 35.8558C162.052 37.4038 160.468 38.4118 158.848 38.7358C157.372 39.0238 155.752 38.8438 154.384 38.0518C153.088 37.2958 152.224 36.1078 151.576 34.5958C151.108 33.4798 150.82 32.2558 150.748 31.0318C150.568 29.0158 150.496 26.9998 150.496 24.9838C150.496 23.6158 150.496 22.2838 150.64 20.9518C150.712 19.8718 150.892 18.7558 151.072 17.7118C151.252 16.8478 151.36 16.0918 151.72 15.2998C152.08 14.5078 152.548 13.7518 153.16 13.1758C154.204 12.1318 155.572 11.5558 156.94 11.3758C157.228 11.3398 157.552 11.3398 157.84 11.3038ZM170.764 27.0358C170.116 26.9278 168.748 26.9278 168.1 26.8558C166.444 26.7478 165.652 25.5238 166.156 23.6878C166.264 23.3278 166.624 22.8238 166.912 22.5718C167.2 22.3558 167.524 22.1758 167.92 22.1038C168.676 21.9958 169.936 22.1038 170.728 22.0318H170.836V21.8878C170.872 20.6998 170.872 20.9878 170.836 19.7638C170.836 18.5398 170.8 17.2798 170.836 16.0918V15.5878C170.836 14.3278 170.836 12.4558 171.7 11.5918C172.024 11.3038 172.384 11.1238 172.852 11.1238H172.924C175.264 11.2318 175.516 14.0398 175.516 15.5518V37.1518C175.516 37.2238 175.588 39.0598 174.76 39.8158C174.436 40.1398 173.68 40.3558 173.176 40.3558C172.636 40.3558 172.132 40.1398 171.808 39.7798C171.196 39.1318 171.124 38.3758 171.052 37.5838C171.052 37.4398 171.016 37.2958 171.016 37.1158C170.944 36.3598 170.944 35.4598 170.908 34.5958C170.872 34.0558 170.872 33.5518 170.872 33.0478V32.2198C170.872 31.2118 170.836 28.8358 170.836 27.8278C170.836 27.5758 170.872 27.2518 170.764 27.0358ZM157.732 33.9478C158.164 33.9478 158.632 33.8038 159.064 33.5158C159.856 32.9398 160.144 31.9318 160.36 30.7798C160.756 28.5838 160.72 25.9198 160.648 23.6518C160.612 21.8158 160.576 19.4398 159.712 17.9638C159.244 17.1718 158.524 16.6678 157.768 16.7758C156.976 16.8478 156.256 17.3518 155.824 18.2878L155.5 19.0438C155.212 19.9438 155.068 20.9518 154.996 21.9238C154.924 22.8958 154.852 23.9038 154.852 24.8758C154.888 25.8478 154.78 26.7478 154.852 27.6838C155.032 30.1678 155.356 33.9118 157.732 33.9478Z" fill="#FFFFFE"/>
<circle cx="3" cy="5.99976" r="3" fill="#FCBE79"/>
<path d="M191.99 34V40.7879C192.148 43.8586 190.562 50 182.947 50C175.332 50 173.111 50 172 50" stroke="#FCC17E" stroke-width="1.5" stroke-linecap="round"/>
</svg>
