<svg width="178" height="274" viewBox="0 0 178 274" fill="none" xmlns="http://www.w3.org/2000/svg">
<rect x="1.03627" y="1.03627" width="175.927" height="271.927" rx="19.6891" fill="white" stroke="#DCEDD8" stroke-width="2.07254"/>
<path d="M137.699 24.3396L142.301 21.182L137.699 18V24.3396Z" fill="#D2476E"/>
<path d="M96.0393 86.1675H88.0108V54.176C88.0108 48.7666 85.3673 46.0741 80.0802 46.0741C76.2618 46.0741 73.3735 47.3959 71.4398 50.0394C69.7265 52.3402 68.8942 55.4488 68.8942 59.3896V86.1675H61.0616V56.1831C61.0616 52.9032 60.621 50.5045 59.7398 48.9624C58.5649 47.0287 56.4599 46.0496 53.4003 46.0496C45.7145 46.0496 41.8471 51.2877 41.8471 61.7884V86.143H34.0879V40.0528H41.8471V46.5637C44.0745 43.8712 46.0327 41.9864 47.7216 40.9339C49.8266 39.6366 52.4457 39.0002 55.5298 39.0002C58.6139 39.0002 61.0126 39.5387 62.8729 40.6402C64.7331 41.7417 66.3486 43.6264 67.7438 46.3189C71.0727 41.4479 75.6989 39.0002 81.6223 39.0002C91.2173 39.0002 96.0393 44.4831 96.0393 55.4733V86.143V86.1675Z" stroke="#231815" stroke-width="0.425833" stroke-miterlimit="2.88"/>
<path d="M144.064 86.8536H138.434V79.7063C136.329 82.2274 134.346 84.0143 132.535 85.0423C130.356 86.2417 127.811 86.8536 124.874 86.8536C116.6 86.8536 110.946 83.4268 107.96 76.5977C106.198 72.5835 105.316 68.2755 105.316 63.6739C105.316 57.2364 106.785 51.9004 109.722 47.6659C113.076 42.7705 117.8 40.3228 123.919 40.3228C127.444 40.3228 130.626 41.2284 133.441 43.0642C135.448 44.3615 136.72 45.6587 137.308 46.9315V41.5466H144.088V86.8291L144.064 86.8536ZM136.647 64.3592C136.647 59.733 135.79 55.9636 134.101 53.0019C132.045 49.3793 128.863 47.5924 124.58 47.5924C116.356 47.5924 112.243 52.9284 112.243 63.5759C112.243 74.762 116.6 80.3672 125.29 80.3672C128.863 80.3672 131.654 78.7028 133.661 75.3984C135.08 73.0975 135.962 71.1638 136.304 69.6218C136.549 68.6182 136.647 66.8803 136.647 64.3837V64.3592Z" stroke="#231815" stroke-width="0.425833" stroke-miterlimit="2.88"/>
<path d="M143.646 34.6199H108.742V27.7908H143.646V34.6199ZM109.232 34.1303H143.157V28.2803H109.232V34.1303Z" fill="#231815"/>
<path d="M139.144 20.0544H110.041V21.0335H139.144V20.0544Z" fill="#D2476E"/>
<path d="M79.8196 244.991C77.7711 247.779 73.807 248.367 71.0188 246.319L68.1927 244.233C65.4045 242.184 64.8165 238.22 66.884 235.432C68.9324 232.644 72.8966 232.056 75.6847 234.104L78.4919 236.191C81.2801 238.239 81.868 242.203 79.8196 244.991Z" fill="#FBDACF"/>
<path d="M127.902 174.644C127.902 174.644 130.102 182.8 128.149 188.68C126.195 194.578 123.103 203.531 127.333 206.755C131.563 209.98 136.532 219.084 131.108 225.931C122.269 237.122 98.7875 237.008 80.8824 228.985C62.9774 220.962 64.3051 206.471 70.6022 200.003C74.8129 195.678 77.2218 189.419 77.0511 185.057C76.8804 180.694 78.3788 171.647 85.2449 169.276" fill="#4C4948"/>
<path d="M116.35 219.444C114.112 215.86 111.817 214.115 109.845 212.901C106.981 214.798 101.935 217.396 96.6434 216.599C92.6414 215.992 89.8722 213.546 88.0703 211.232C87.7478 211.345 87.4444 211.497 87.084 211.592C80.7679 213.109 75.0398 223.238 73.8828 237.748L118.721 239.834C118.721 239.834 121.263 227.392 116.35 219.482" fill="#F4AFA7"/>
<path d="M96.6435 216.598C101.935 217.395 106.981 214.815 109.845 212.899C107.455 211.439 105.539 210.737 104.724 208.575C103.244 204.592 104.022 201.766 104.022 201.766L95.2589 203.757C95.2589 203.757 93.5708 209.315 88.0703 211.23C89.8722 213.563 92.6414 216.01 96.6435 216.598Z" fill="#FBDACF"/>
<path d="M108.686 157.707C95.3145 154.141 81.6012 162.07 78.0354 175.442C74.4696 188.795 82.3979 202.527 95.7697 206.093C109.123 209.658 122.855 201.73 126.421 188.358C129.987 174.986 122.039 161.273 108.686 157.707Z" fill="#FBDACF"/>
<path d="M93.4354 180.449C93.1129 181.644 93.7958 182.877 94.9528 183.18C96.1098 183.484 97.3047 182.763 97.6271 181.568C97.9496 180.373 97.2668 179.14 96.1098 178.837C94.9528 178.533 93.7578 179.254 93.4354 180.449Z" fill="#4C4948"/>
<path d="M104.494 184.565C104.172 185.76 104.854 186.993 106.011 187.296C107.168 187.6 108.363 186.879 108.686 185.684C109.008 184.489 108.325 183.256 107.168 182.953C106.011 182.649 104.816 183.37 104.494 184.565Z" fill="#4C4948"/>
<path d="M98.0845 177.68C97.9707 177.68 97.8569 177.642 97.762 177.566C97.762 177.566 96.4533 176.58 94.9739 176.864C94.6514 176.921 94.4049 176.732 94.348 176.428C94.2911 176.144 94.4807 175.859 94.7842 175.802C96.7378 175.442 98.35 176.656 98.4259 176.713C98.6535 176.902 98.7104 177.225 98.5207 177.471C98.4069 177.604 98.2552 177.68 98.0845 177.68Z" fill="#4C4948"/>
<path d="M109.938 182.062C109.806 182.062 109.654 182.006 109.559 181.892C109.559 181.892 108.383 180.754 106.904 180.792C106.543 180.792 106.354 180.564 106.354 180.28C106.354 179.976 106.581 179.729 106.866 179.729C108.819 179.654 110.28 181.095 110.337 181.152C110.545 181.361 110.545 181.702 110.337 181.911C110.242 182.006 110.09 182.062 109.957 182.062H109.938Z" fill="#4C4948"/>
<path d="M91.3116 186.119C90.7805 188.263 88.6561 189.59 86.5698 189.078C84.4834 188.566 83.2315 186.404 83.7626 184.242C84.2937 182.098 86.418 180.771 88.5044 181.302C90.5908 181.814 91.8426 183.976 91.3116 186.119Z" fill="#F8CBC6"/>
<path d="M117.638 195.338C117.107 197.482 114.982 198.809 112.896 198.297C110.81 197.785 109.558 195.623 110.089 193.461C110.62 191.317 112.744 189.99 114.831 190.521C116.917 191.033 118.169 193.195 117.638 195.338Z" fill="#F8CBC6"/>
<path d="M126.913 194.921C124.143 194.238 122.436 191.393 123.119 188.605C123.821 185.836 126.647 184.129 129.435 184.812C132.223 185.494 133.912 188.339 133.229 191.128C132.546 193.897 129.701 195.604 126.913 194.921Z" fill="#FBDACF"/>
<path d="M127.596 192.132C126.344 191.829 125.586 190.558 125.908 189.306C126.212 188.073 127.482 187.296 128.734 187.618C129.967 187.922 130.745 189.192 130.422 190.444C130.119 191.677 128.848 192.455 127.596 192.132Z" fill="#F8CBC6"/>
<path d="M75.2095 182.043C72.4403 181.36 70.7332 178.515 71.4161 175.727C72.0989 172.939 74.944 171.25 77.7321 171.933C80.5013 172.616 82.2084 175.461 81.5256 178.249C80.8428 181.019 77.9977 182.726 75.2095 182.043Z" fill="#FBDACF"/>
<path d="M75.9115 179.253C74.6787 178.95 73.901 177.679 74.2234 176.427C74.5269 175.194 75.7977 174.416 77.0496 174.739C78.2824 175.042 79.0601 176.313 78.7376 177.565C78.4342 178.798 77.1634 179.575 75.9115 179.253Z" fill="#F8CBC6"/>
<path d="M109.655 156.873C96.0551 153.231 82.5315 159.509 78.8898 173.109C78.8329 173.298 78.8329 173.488 78.7949 173.659C90.8391 176.617 103.642 167.267 100.057 167.02C100.057 167.02 109.996 180.771 128.167 186.158C131.732 172.577 123.216 160.476 109.636 156.854" fill="#4C4948"/>
<path d="M55.9007 184.697C58.2906 178.096 63.6773 179.576 63.6773 179.576C68.8743 180.448 70.0503 186.575 68.7415 190.956C66.9396 197.102 61.1546 202.868 61.1546 202.868C61.1546 202.868 53.2264 201.123 48.3897 196.836C44.9567 193.858 43.041 187.883 46.5689 184.526C46.5689 184.526 49.7554 180.733 55.9007 184.697Z" fill="#F4B2CF"/>
<path d="M57.6263 162.904C59.523 159.831 62.1405 161.121 62.1405 161.121C64.72 162.088 64.7011 165.275 63.582 167.342C62.6336 169.125 60.9076 170.7 59.7317 171.629C58.973 172.236 57.9298 172.331 57.0763 171.857C55.7485 171.136 53.7949 169.865 52.5431 168.253C51.0826 166.413 50.7033 163.227 52.8655 161.88C52.8655 161.88 54.8761 160.306 57.6453 162.904" fill="#F4B2CF"/>
<path d="M103.584 191.639C101.745 196.438 94.0059 196.514 94.1766 189.97L103.584 191.639Z" fill="#E7553B"/>
<path d="M98.2345 215.178H97.7982C94.7635 214.951 92.4305 212.295 92.6202 209.261L93.0185 203.362C93.2271 200.308 95.8825 197.994 98.9173 198.184H99.3535C102.388 198.411 104.721 201.067 104.532 204.12L104.133 210.019C103.925 213.054 101.288 215.387 98.2345 215.178Z" fill="#FBDACF"/>
<path d="M97.6103 255.18C97.6103 255.18 82.4176 251.064 73.2754 241.334C64.1332 231.604 59.0121 222.367 61.1743 214.818C63.3366 207.288 68.1732 203.76 76.386 203.855C84.6178 203.949 92.2616 214.647 95.6377 217.435C99.0139 220.223 107.018 228.645 111.039 233.462C115.06 238.299 118.152 243.724 114.908 248.959C111.665 254.194 105.235 257.323 97.5913 255.161" fill="#AADBF6"/>
<path d="M88.4494 218.65C87.9942 225.649 82.0196 230.979 75.1345 230.523C68.2494 230.068 63.0334 224.018 63.4886 217.019C63.9438 210.02 69.9185 204.709 76.8036 205.145C83.6887 205.6 88.9046 211.651 88.4494 218.65Z" fill="#FBDACF"/>
<path d="M72.7435 216.278C72.3262 216.278 72.0038 216.164 71.9848 216.145C71.7952 216.069 71.7003 215.861 71.7762 215.671C71.8521 215.481 72.0607 215.386 72.2504 215.462C72.2504 215.462 72.8194 215.671 73.2746 215.424C73.5401 215.273 73.7488 214.988 73.8436 214.552C73.9005 214.343 74.0902 214.229 74.2988 214.286C74.5075 214.343 74.6213 214.533 74.5644 214.742C74.4126 215.386 74.0902 215.842 73.616 216.107C73.3315 216.259 73.028 216.297 72.7625 216.297L72.7435 216.278Z" fill="#4C4948"/>
<path d="M78.3959 213.509C77.9786 213.509 77.6561 213.395 77.6372 213.376C77.4475 213.3 77.3527 213.092 77.4285 212.902C77.5044 212.712 77.713 212.618 77.9027 212.693C77.9027 212.693 78.4528 212.902 78.9269 212.656C79.1925 212.504 79.4011 212.219 79.496 211.783C79.5529 211.574 79.7425 211.461 79.9512 211.518C80.1598 211.574 80.2736 211.764 80.2167 211.973C80.065 212.618 79.7425 213.092 79.2684 213.338C78.9838 213.49 78.6804 213.528 78.4148 213.528L78.3959 213.509Z" fill="#4C4948"/>
<path d="M80.881 219.408C81.0517 220.224 80.293 221.077 79.1929 221.305C78.0928 221.552 77.0496 221.077 76.8599 220.281C76.6892 219.465 77.4479 218.612 78.548 218.384C79.6481 218.138 80.6913 218.593 80.881 219.408Z" fill="#E7553B"/>
<path d="M74.9451 221.247C74.8692 222.499 73.7691 223.448 72.5172 223.372C71.2654 223.296 70.3171 222.215 70.3929 220.944C70.4688 219.692 71.5689 218.744 72.8207 218.82C74.0726 218.896 75.0209 219.977 74.9451 221.247Z" fill="#F8CBC6"/>
<path d="M85.5466 215.728C85.4707 216.98 84.3706 217.928 83.1188 217.852C81.867 217.776 80.9186 216.695 80.9945 215.424C81.0704 214.172 82.1705 213.224 83.4223 213.3C84.6741 213.376 85.6225 214.457 85.5466 215.728Z" fill="#F8CBC6"/>
<path d="M107.738 224.966C108.098 225.251 108.458 233.084 105.708 236.688C102.939 240.292 92.8673 240.254 92.7155 244.521C92.5638 248.789 89.586 253.891 101.706 253.569C113.826 253.227 123.101 244.388 118.682 225.44" fill="#F4AFA7"/>
<path d="M98.5192 246.093C98.2536 250.152 94.6878 253.206 90.5719 252.941C86.4371 252.675 83.3264 249.166 83.592 245.107C83.8575 241.048 87.4234 237.994 91.5392 238.26C95.6551 238.526 98.7847 242.034 98.5192 246.093Z" fill="#FBDACF"/>
<path d="M74.2794 236.195C74.8864 237.409 73.957 239.097 72.231 239.969C70.486 240.842 68.5893 240.557 67.9633 239.343C67.3564 238.129 68.2668 236.441 70.0118 235.569C71.7568 234.696 73.6535 234.981 74.2794 236.195Z" fill="#FBDACF"/>
<path d="M77.8464 239.209C78.4533 240.423 77.5239 242.111 75.7979 242.983C74.053 243.856 72.1562 243.571 71.5493 242.357C70.9423 241.143 71.8528 239.455 73.5977 238.583C75.3427 237.71 77.2394 237.995 77.8654 239.209" fill="#FBDACF"/>
<path d="M81.0319 242.32C81.6389 243.533 80.7095 245.222 78.9835 246.094C77.2385 246.967 75.3418 246.682 74.7348 245.468C74.1279 244.254 75.0383 242.566 76.7833 241.694C78.5283 240.821 80.425 241.106 81.0509 242.32" fill="#FBDACF"/>
</svg>
