<svg width="178" height="274" viewBox="0 0 178 274" fill="none" xmlns="http://www.w3.org/2000/svg">
<rect x="1.03627" y="1.03627" width="175.927" height="271.927" rx="19.6891" fill="white" stroke="#DCEDD8" stroke-width="2.07254"/>
<path d="M95.9514 87.7268H87.9229V55.7353C87.9229 50.3259 85.2793 47.6334 79.9923 47.6334C76.1739 47.6334 73.2856 48.9552 71.3519 51.5987C69.6385 53.8996 68.8063 57.0081 68.8063 60.949V87.7268H60.9737V57.7424C60.9737 54.4625 60.5331 52.0638 59.6519 50.5217C58.477 48.588 56.372 47.609 53.3123 47.609C45.6266 47.609 41.7592 52.847 41.7592 63.3477V87.7024H34V41.6121H41.7592V48.123C43.9866 45.4305 45.9447 43.5458 47.6337 42.4933C49.7387 41.196 52.3577 40.5596 55.4418 40.5596C58.5259 40.5596 60.9247 41.0981 62.7849 42.1995C64.6452 43.301 66.2607 45.1857 67.6559 47.8782C70.9848 43.0073 75.6109 40.5596 81.5344 40.5596C91.1294 40.5596 95.9514 46.0424 95.9514 57.0326V87.7024V87.7268Z" fill="#231815" stroke="#231815" stroke-width="0.425833" stroke-miterlimit="2.88"/>
<path d="M143.976 88.4127H138.346V81.2654C136.241 83.7865 134.258 85.5734 132.447 86.6014C130.269 87.8008 127.723 88.4127 124.786 88.4127C116.512 88.4127 110.858 84.9859 107.872 78.1568C106.11 74.1426 105.229 69.8346 105.229 65.2329C105.229 58.7955 106.697 53.4595 109.634 49.2249C112.988 44.3295 117.712 41.8818 123.831 41.8818C127.356 41.8818 130.538 42.7875 133.353 44.6233C135.36 45.9206 136.633 47.2178 137.22 48.4906V43.1057H144V88.3882L143.976 88.4127ZM136.559 65.9183C136.559 61.2921 135.702 57.5227 134.014 54.5609C131.957 50.9383 128.775 49.1515 124.492 49.1515C116.268 49.1515 112.156 54.4875 112.156 65.135C112.156 76.321 116.512 81.9263 125.202 81.9263C128.775 81.9263 131.566 80.2618 133.573 76.9574C134.993 74.6566 135.874 72.7229 136.216 71.1809C136.461 70.1773 136.559 68.4394 136.559 65.9428V65.9183Z" fill="#231815" stroke="#231815" stroke-width="0.425833" stroke-miterlimit="2.88"/>
<path d="M124.613 24.0131L118.592 17.0371L119.497 16.2294L124.564 22.0794L129.337 16.0825L130.292 16.8413L124.613 24.0131Z" fill="#D2476E"/>
<path d="M131.393 19.5808L131.784 14L126.424 15.64L131.393 19.5808Z" fill="#D2476E"/>
<path d="M130.217 37.7922H119.741L119.668 37.6943L108.408 21.7598H117.807L117.881 21.8577L124.93 31.8933L132.053 21.7598H141.452L130.168 37.7922H130.217ZM120.01 37.3027H129.972L140.571 22.2493H132.347L124.955 32.75L117.563 22.2493H109.363L120.01 37.3027Z" fill="#231815"/>
<path d="M120.011 37.3029H129.973L140.572 22.2495H132.347L124.955 32.7502L117.563 22.2495H109.363L120.011 37.3029Z" fill="#231815"/>
<path d="M110.995 168.906C108.826 168.691 106.597 169.375 104.916 170.763C103.235 172.151 102.14 174.223 101.945 176.373C101.867 177.136 101.886 177.976 101.398 178.563C100.616 179.52 99.1497 179.247 97.9182 179.344C96.0417 179.501 94.3215 180.81 93.6764 182.57C93.4614 183.176 93.3637 183.86 93.5983 184.446C93.7546 184.857 94.0674 185.189 94.2433 185.58C94.5365 186.264 94.4192 187.085 94.1651 187.789C93.9696 188.336 93.6765 188.864 93.2464 189.255C92.0931 190.291 90.3338 190.017 88.7895 189.998C87.1085 189.959 85.3492 190.33 84.1177 191.464C82.8862 192.598 82.3975 194.631 83.3749 195.999C83.8441 196.644 84.5673 197.074 85.2906 197.367C87.2453 198.13 89.4737 198.032 91.4871 197.445C93.5005 196.859 95.3575 195.784 97.0972 194.611C100.753 192.148 104.095 189.138 106.617 185.521C109.158 181.905 110.859 177.663 111.21 173.265" fill="#AF6548"/>
<path d="M79.9928 220.999C79.9928 218.106 77.6862 215.741 74.8714 215.741C72.0566 215.741 69.7695 218.106 69.7695 220.999V249.968H79.9928V220.999Z" fill="#E79E22"/>
<path d="M118.384 231.594C120.417 233.353 123.506 233.099 125.265 231.066C127.005 229.033 126.77 225.925 124.737 224.185L113.38 214.431L107.027 221.84L118.384 231.594Z" fill="#E79E22"/>
<path d="M117.443 225.07L112.416 235.84L121.255 239.965L126.281 229.196L117.443 225.07Z" fill="#E79E22"/>
<path d="M61.2085 200.729C61.2085 200.729 52.9399 197.699 49.9101 203.602C46.8802 209.486 49.7537 211.714 47.0562 213.786C44.3586 215.858 43.5572 218.556 44.3586 222.055C45.1601 225.554 47.0562 231.281 44.3586 232.552C44.3586 232.552 50.5551 232.552 52.158 227.939C53.7414 223.325 53.2722 221.742 53.2722 221.742C53.2722 221.742 58.1982 222.544 58.511 216.171C58.8237 209.799 62.01 207.414 61.6972 204.873C61.3844 202.331 61.2281 200.729 61.2281 200.729" fill="#AF6548"/>
<path d="M108.806 170.684L96.9599 191.913C96.9599 191.913 91.6039 196.389 88.4763 196.604C85.3487 196.819 71.5677 196.604 71.5677 196.604C71.5677 196.604 55.9297 195.724 55.9297 208.899V225.554H106.577C106.577 225.554 115.295 220.862 116.41 215.272C117.524 209.681 117.758 187.221 117.758 187.221L108.825 170.684H108.806Z" fill="#EAB21F"/>
<path d="M106.717 223.775C106.717 221.097 104.528 218.888 101.83 218.888C99.1327 218.888 96.9434 221.077 96.9434 223.775V250.633H106.698V223.775H106.717Z" fill="#EAB21F"/>
<path d="M96.9609 250.613V254.991C96.9609 257.669 107.868 257.669 107.868 254.991L106.715 250.613H96.9609Z" fill="#AF6548"/>
<path d="M121.278 239.959L116.273 246.899C115.14 249.323 107.672 240.663 108.806 238.239L112.442 235.815L121.278 239.94V239.959Z" fill="#AF6548"/>
<path d="M66.0964 220.998C66.0964 218.105 63.7898 215.74 60.975 215.74C58.1601 215.74 55.873 218.105 55.873 220.998V249.967H66.0964V220.998Z" fill="#EAB21F"/>
<path d="M55.873 249.949V254.679C55.873 257.572 67.2888 257.572 67.2888 254.679L66.0964 249.949H55.873Z" fill="#AF6548"/>
<path d="M69.791 249.949V254.679C69.791 257.572 81.2067 257.572 81.2067 254.679L80.0143 249.949H69.791Z" fill="#AF6548"/>
<path d="M111.72 205.536H111.642C108.338 205.536 105.641 202.839 105.641 199.535V178.932C105.641 175.629 108.338 172.931 111.642 172.931H111.72C115.023 172.931 117.721 175.629 117.721 178.932V199.535C117.721 202.839 115.023 205.536 111.72 205.536Z" fill="#E79E22"/>
<path d="M107.869 191.422V197.052C107.869 200.16 110.41 202.701 113.518 202.701H123.429C126.537 202.701 129.078 200.16 129.078 197.052V191.422H107.85H107.869Z" fill="#FBDACF"/>
<path d="M129.098 173.518C129.098 168.905 125.325 165.113 120.692 165.113H116.275C111.661 165.113 107.869 168.885 107.869 173.518V191.404H129.098V173.518Z" fill="#EAB21F"/>
<path d="M115.708 177.739C115.708 178.736 114.907 179.538 113.91 179.538C112.913 179.538 112.111 178.736 112.111 177.739C112.111 176.742 112.913 175.941 113.91 175.941C114.907 175.941 115.708 176.742 115.708 177.739Z" fill="#4C4948"/>
<path d="M125.501 177.739C125.501 178.736 124.7 179.538 123.703 179.538C122.706 179.538 121.904 178.736 121.904 177.739C121.904 176.742 122.706 175.941 123.703 175.941C124.7 175.941 125.501 176.742 125.501 177.739Z" fill="#4C4948"/>
<path d="M116.53 195.528C116.53 196.212 115.943 196.779 115.22 196.779C114.497 196.779 113.91 196.212 113.91 195.528C113.91 194.844 114.497 194.277 115.22 194.277C115.943 194.277 116.53 194.844 116.53 195.528Z" fill="#4C4948"/>
<path d="M123.723 195.528C123.723 196.212 123.136 196.779 122.413 196.779C121.69 196.779 121.104 196.212 121.104 195.528C121.104 194.844 121.69 194.277 122.413 194.277C123.136 194.277 123.723 194.844 123.723 195.528Z" fill="#4C4948"/>
<path d="M123.508 166.07L133.301 157C133.301 157 136.859 168.318 127.183 170.566" fill="#EAB21F"/>
<path d="M109.551 168.768L115.865 157C115.865 157 122.921 166.539 114.496 171.817" fill="#EAB21F"/>
</svg>
