<svg width="178" height="274" viewBox="0 0 178 274" fill="none" xmlns="http://www.w3.org/2000/svg">
<rect x="1.03627" y="1.03627" width="175.927" height="271.927" rx="19.6891" fill="white" stroke="#DCEDD8" stroke-width="2.07254"/>
<path d="M95.9514 86.7654H87.9229V54.7739C87.9229 49.3645 85.2793 46.672 79.9923 46.672C76.1739 46.672 73.2856 47.9938 71.3519 50.6373C69.6385 52.9381 68.8064 56.0467 68.8064 59.9875V86.7654H60.9737V56.781C60.9737 53.5011 60.5331 51.1024 59.6519 49.5603C58.477 47.6266 56.372 46.6475 53.3123 46.6475C45.6266 46.6475 41.7592 51.8856 41.7592 62.3863V86.7409H34V40.6507H41.7592V47.1616C43.9866 44.4691 45.9447 42.5843 47.6337 41.5318C49.7387 40.2345 52.3577 39.5981 55.4418 39.5981C58.5259 39.5981 60.9247 40.1366 62.7849 41.2381C64.6452 42.3396 66.2607 44.2243 67.6559 46.9168C70.9848 42.0458 75.6109 39.5981 81.5344 39.5981C91.1294 39.5981 95.9514 45.081 95.9514 56.0712V86.7409V86.7654Z" fill="#231815" stroke="#231815" stroke-width="0.425833" stroke-miterlimit="2.88"/>
<path d="M143.976 87.4513H138.346V80.304C136.241 82.8251 134.258 84.6119 132.447 85.64C130.269 86.8393 127.723 87.4513 124.786 87.4513C116.512 87.4513 110.858 84.0245 107.872 77.1954C106.11 73.1812 105.229 68.8732 105.229 64.2715C105.229 57.834 106.697 52.4981 109.634 48.2635C112.988 43.3681 117.712 40.9204 123.831 40.9204C127.356 40.9204 130.538 41.8261 133.353 43.6618C135.36 44.9591 136.632 46.2564 137.22 47.5292V42.1443H144V87.4268L143.976 87.4513ZM136.584 64.9569C136.584 60.3307 135.727 56.5612 134.038 53.5995C131.982 49.9769 128.8 48.1901 124.516 48.1901C116.292 48.1901 112.18 53.5261 112.18 64.1736C112.18 75.3596 116.537 80.9649 125.226 80.9649C128.8 80.9649 131.59 79.3004 133.597 75.996C135.017 73.6952 135.898 71.7615 136.241 70.2194C136.486 69.2159 136.584 67.478 136.584 64.9813V64.9569Z" fill="#231815" stroke="#231815" stroke-width="0.425833" stroke-miterlimit="2.88"/>
<path d="M137.808 29.3889L125.912 16.8322L126.793 16L138.714 28.5567L137.808 29.3889Z" fill="#D2476E"/>
<path d="M134.943 30.0757L140.426 31.2506L139.545 25.7188L134.943 30.0757Z" fill="#D2476E"/>
<path d="M136.217 35.2141H129.681L129.608 35.1651L107.064 18.8145H120.992L121.065 18.8879L136.217 35.2141ZM129.853 34.7245H135.115L120.796 19.304H108.606L129.877 34.7245H129.853Z" fill="#231815"/>
<path d="M129.852 34.7247H135.114L120.795 19.3042H108.605L129.876 34.7247H129.852Z" fill="#231815"/>
<path d="M101.345 255.722L100.124 213.753C99.2837 203.226 90.6377 198.423 80.6308 199.323C70.6239 200.224 62.8786 206.468 63.7192 216.996L63.2988 256.343C72.9455 259.345 93.8399 260.626 101.325 255.702" fill="#98D4DE"/>
<path d="M90.5174 204.866L84.7935 221.257L78.0488 204.566L90.5174 204.866Z" fill="white"/>
<path d="M82.8507 210.331C79.3282 209.291 77.0267 205.808 77.7271 202.626L78.3675 199.664C79.068 196.482 82.5104 194.741 86.0328 195.781C89.5553 196.822 91.8569 200.305 91.1764 203.487L90.5359 206.449C89.8355 209.631 86.3931 211.372 82.8706 210.331" fill="#FBDACF"/>
<path d="M103.925 185.214C106.567 185.314 108.808 183.212 108.908 180.57C109.008 177.929 106.907 175.687 104.265 175.587C101.623 175.487 99.3816 177.588 99.2815 180.23C99.2015 182.872 101.283 185.113 103.925 185.214Z" fill="#FBDACF"/>
<path d="M104.025 182.492C105.165 182.532 106.146 181.631 106.186 180.49C106.226 179.35 105.325 178.369 104.165 178.329C103.024 178.289 102.063 179.19 102.003 180.35C101.963 181.491 102.864 182.452 104.005 182.492" fill="#F8CBC6"/>
<path d="M85.5938 205.348C94.9202 205.668 102.806 198.303 103.126 188.996L103.526 177.629C103.846 168.302 96.4813 160.417 87.1749 160.096C77.8485 159.776 69.963 167.141 69.6428 176.448L69.2425 187.816C68.9223 197.142 76.2874 205.027 85.6138 205.348" fill="#FBDACF"/>
<path d="M93.5775 179.39C93.5775 180.391 92.7569 181.211 91.7762 181.191C90.7956 181.191 90.0351 180.351 90.0551 179.33C90.0551 178.329 90.8756 177.509 91.8563 177.529C92.837 177.529 93.5975 178.369 93.5775 179.39Z" fill="#4C4948"/>
<path d="M85.1927 179.269C85.1927 180.27 84.3721 181.091 83.3915 181.071C82.4108 181.071 81.6503 180.23 81.6703 179.209C81.6703 178.209 82.4909 177.388 83.4715 177.408C84.4522 177.408 85.2127 178.249 85.1927 179.269Z" fill="#4C4948"/>
<path d="M93.9179 186.834C93.8579 188.636 95.2188 190.137 96.96 190.197C98.7012 190.257 100.162 188.856 100.222 187.055C100.282 185.253 98.9214 183.752 97.1802 183.692C95.439 183.632 93.978 185.033 93.9179 186.834Z" fill="#F8CBC6"/>
<path d="M73.2656 186.414C73.2055 188.215 74.5665 189.716 76.3077 189.776C78.0489 189.836 79.5099 188.435 79.5699 186.634C79.63 184.833 78.269 183.332 76.5278 183.272C74.7866 183.212 73.3256 184.613 73.2656 186.414Z" fill="#F8CBC6"/>
<path d="M67.381 184.653C70.0228 184.754 72.2644 182.652 72.3644 180.01C72.4645 177.368 70.3631 175.127 67.7213 175.027C65.0795 174.927 62.8379 177.028 62.7378 179.67C62.6377 182.312 64.7392 184.553 67.381 184.653Z" fill="#FBDACF"/>
<path d="M67.4812 181.912C68.622 181.952 69.6026 181.051 69.6426 179.91C69.6827 178.77 68.782 177.789 67.6413 177.749C66.5005 177.709 65.5198 178.609 65.4798 179.75C65.4398 180.891 66.3404 181.872 67.4812 181.912Z" fill="#F8CBC6"/>
<path d="M81.0905 159.916C90.2368 156.574 101.024 162.758 102.966 172.265C100.564 172.025 99.4231 169.963 97.9621 168.382C91.8579 165.1 91.2375 172.445 79.9897 167.361C75.5066 167.581 78.3486 174.907 69.6426 173.826C70.4832 167.281 75.0663 161.958 81.0905 159.916Z" fill="#4C4948"/>
<path d="M92.7572 184.915C92.7572 184.915 85.8925 186.195 82.9504 185.115L82.1699 196.603C82.1699 196.603 84.0112 198.444 91.076 196.923L91.7965 187.196C91.7965 187.196 93.0173 186.416 92.7572 184.915Z" fill="#E7553B"/>
<path d="M89.9771 176.867C89.837 176.867 89.6969 176.807 89.5968 176.687L88.6762 175.626C88.4961 175.406 88.5161 175.086 88.7162 174.906C88.9364 174.725 89.2566 174.745 89.4367 174.946L89.9971 175.586C90.9378 174.825 92.739 174.165 93.1393 174.025C93.4194 173.925 93.6997 174.065 93.7997 174.345C93.8998 174.605 93.7597 174.906 93.4795 175.006C92.3988 175.386 90.7176 176.146 90.3974 176.647C90.3173 176.787 90.1572 176.867 89.9971 176.887C89.9971 176.887 89.9771 176.887 89.9571 176.887L89.9771 176.867Z" fill="#4C4948"/>
<path d="M85.0321 176.808C85.0321 176.808 84.852 176.788 84.7719 176.748C83.5711 176.068 81.3896 174.947 80.6691 174.907C80.3889 174.907 80.1688 174.647 80.1888 174.366C80.1888 174.086 80.449 173.866 80.7292 173.886C81.7299 173.946 84.0315 175.167 84.9321 175.667L85.6325 174.927C85.8327 174.727 86.1529 174.707 86.373 174.927C86.5932 175.147 86.5932 175.447 86.373 175.667L85.3924 176.688C85.2923 176.788 85.1522 176.848 85.0121 176.848L85.0321 176.808Z" fill="#4C4948"/>
<path d="M79.0078 165.82C80.3888 168.402 83.0106 170.063 85.7325 171.084C86.9733 171.544 88.2942 171.904 89.5951 171.724C89.3349 170.984 89.0747 170.243 88.8146 169.503C91.4964 170.504 94.3384 171.084 97.2003 171.224C96.68 170.524 96.2397 169.783 95.8794 169.002C96.9802 169.863 98.101 170.724 99.3218 171.364C100.563 172.025 101.944 172.465 103.345 172.425C101.864 169.783 99.7822 167.501 97.3004 165.76" fill="#4C4948"/>
<path d="M87.1133 159.055C89.5349 158.895 91.8966 159.736 94.2982 160.096C96.3196 160.416 98.381 160.396 100.402 160.056C100.723 159.996 101.063 159.936 101.363 160.056C101.843 160.276 102.004 160.896 101.984 161.437C101.923 163.698 100.022 165.76 97.7606 165.96" fill="#4C4948"/>
<path d="M110.85 232.046C109.368 232.046 107.908 231.566 106.687 230.645L86.6328 215.475L94.9386 204.487L108.988 215.115L115.112 205.288L126.8 212.573L116.694 228.784C115.673 230.425 114.012 231.566 112.11 231.906C111.69 231.986 111.27 232.026 110.87 232.026" fill="#98D4DE"/>
<path d="M122.698 214.353H122.158C118.255 214.353 115.053 211.151 115.053 207.248V203.326C115.053 199.403 118.255 196.201 122.158 196.201H122.698C126.621 196.201 129.823 199.403 129.823 203.326V207.248C129.823 211.171 126.621 214.353 122.698 214.353Z" fill="#FBDACF"/>
<path d="M134.206 200.924H124.299C122.998 200.924 121.938 199.863 121.938 198.562C121.938 197.261 122.998 196.201 124.299 196.201H134.206C135.507 196.201 136.568 197.261 136.568 198.562C136.568 199.863 135.507 200.924 134.206 200.924Z" fill="#FBDACF"/>
<path d="M61.8569 242.613C58.9549 242.613 56.0529 241.912 53.4911 239.951C51.4097 238.37 50.1689 236.008 50.0088 233.327C49.6285 227.262 55.7927 217.976 68.3214 205.728L77.948 215.574C73.9853 219.437 70.1427 223.78 67.4208 227.262C68.2814 226.882 69.262 226.442 70.3828 225.881C71.0432 225.541 71.5436 225.321 71.7838 225.221L76.8873 238.01L74.3455 231.625L77.1074 237.93L76.6071 238.19C73.7852 239.611 67.841 242.633 61.8569 242.633" fill="#98D4DE"/>
<path d="M77.668 239.951C73.0849 239.951 69.3223 236.188 69.3223 231.625V229.964C69.3223 225.381 73.0649 221.638 77.668 221.638C82.2712 221.638 85.9938 225.401 85.9938 229.964V231.625C85.9938 236.208 82.2512 239.951 77.668 239.951Z" fill="#FBDACF"/>
<path d="M55.7122 179.43L59.1546 179.09C59.1546 179.09 56.3926 175.868 54.9316 174.267C56.2125 173.166 57.0531 171.565 57.0531 169.743C57.0531 166.461 54.3713 163.779 51.089 163.779C49.8882 163.779 48.7674 164.14 47.8268 164.76C47.2063 164.44 46.5259 164.24 45.7654 164.24C43.2836 164.24 41.2623 166.261 41.2623 168.743C41.2623 168.823 41.2822 168.903 41.2822 168.983C39.3209 170.084 38 172.165 38 174.547C38 178.089 40.882 180.971 44.4244 180.971C46.1456 180.971 47.7267 180.271 48.8675 179.15L56.3526 182.432L55.7122 179.39V179.43Z" fill="#EBEBEC"/>
<path d="M119.916 192.717C119.916 192.717 119.896 192.777 119.876 192.817C119.856 192.857 119.816 192.857 119.756 192.857C119.656 192.857 119.556 192.817 119.456 192.797C119.356 192.797 119.256 192.757 119.136 192.717C118.995 192.937 118.795 193.118 118.575 193.278C118.355 193.438 118.095 193.558 117.815 193.618C117.534 193.678 117.274 193.718 117.034 193.698C116.794 193.678 116.574 193.618 116.374 193.538C116.174 193.438 116.013 193.318 115.873 193.138C115.733 192.977 115.633 192.777 115.593 192.557C115.553 192.397 115.533 192.217 115.553 192.017C115.573 191.817 115.673 191.596 115.833 191.376C115.813 191.376 115.773 191.336 115.753 191.316C115.733 191.316 115.713 191.276 115.673 191.256C115.453 191.096 115.253 190.916 115.073 190.716C114.893 190.516 114.793 190.296 114.733 190.035C114.672 189.795 114.672 189.555 114.733 189.335C114.793 189.115 114.873 188.895 115.013 188.694C115.153 188.494 115.333 188.334 115.573 188.194C115.793 188.054 116.053 187.934 116.354 187.874C116.654 187.794 116.934 187.774 117.194 187.794C117.454 187.814 117.695 187.894 117.915 187.994C118.135 188.094 118.315 188.234 118.455 188.414C118.595 188.594 118.695 188.795 118.755 189.035C118.795 189.195 118.815 189.375 118.795 189.535C118.795 189.695 118.735 189.875 118.655 190.035C118.575 190.195 118.475 190.356 118.315 190.496C118.175 190.636 117.995 190.776 117.775 190.916L117.474 191.096C117.615 191.156 117.755 191.216 117.895 191.276C118.035 191.336 118.175 191.396 118.335 191.456C118.335 191.376 118.315 191.276 118.295 191.196C118.275 191.076 118.295 190.996 118.415 190.976L119.156 190.796C119.156 190.796 119.256 190.796 119.296 190.796C119.316 190.816 119.356 190.856 119.376 190.916C119.456 191.216 119.476 191.516 119.436 191.797C119.536 191.817 119.616 191.857 119.716 191.877C119.816 191.877 119.896 191.917 119.996 191.937C120.036 191.937 120.056 191.977 120.076 192.017C120.076 192.057 120.076 192.097 120.076 192.137L119.916 192.677V192.717ZM116.634 190.596C116.814 190.476 116.954 190.356 117.094 190.256C117.234 190.155 117.334 190.055 117.414 189.955C117.494 189.855 117.574 189.775 117.594 189.675C117.635 189.595 117.635 189.495 117.594 189.395C117.574 189.295 117.534 189.215 117.454 189.135C117.394 189.055 117.314 188.995 117.214 188.955C117.134 188.915 117.014 188.875 116.914 188.855C116.794 188.855 116.694 188.855 116.574 188.875C116.454 188.895 116.354 188.955 116.254 189.015C116.154 189.075 116.073 189.155 116.033 189.235C115.973 189.315 115.933 189.415 115.913 189.515C115.893 189.615 115.893 189.715 115.913 189.815C115.953 189.975 116.033 190.115 116.134 190.236C116.254 190.376 116.394 190.496 116.594 190.616L116.634 190.576V190.596ZM117.354 192.157C117.134 192.057 116.894 191.957 116.694 191.857C116.614 191.997 116.594 192.137 116.634 192.257C116.694 192.457 116.794 192.597 116.974 192.657C117.154 192.717 117.354 192.717 117.594 192.657C117.775 192.617 117.935 192.537 118.055 192.417C117.835 192.337 117.595 192.257 117.374 192.157" fill="#E7553B"/>
<path d="M121.118 192.599C120.958 192.599 120.878 192.539 120.878 192.399L120.818 191.278L120.337 191.358C120.337 191.358 120.217 191.358 120.177 191.318C120.137 191.278 120.097 191.238 120.097 191.178L119.997 190.478C119.997 190.478 119.997 190.358 120.017 190.318C120.057 190.278 120.097 190.238 120.177 190.238L120.758 190.158L120.698 189.077L120.217 189.157C120.217 189.157 120.097 189.157 120.057 189.117C120.017 189.077 119.977 189.037 119.977 188.977L119.877 188.276C119.877 188.276 119.877 188.156 119.917 188.116C119.957 188.076 119.997 188.036 120.057 188.036L120.637 187.956L120.597 187.116C120.597 187.116 120.597 186.975 120.617 186.915C120.637 186.855 120.697 186.835 120.778 186.815L121.678 186.755C121.678 186.755 121.818 186.755 121.838 186.795C121.878 186.835 121.878 186.875 121.898 186.935L121.938 187.776L122.719 187.676L122.659 186.715C122.659 186.715 122.659 186.555 122.679 186.515C122.699 186.455 122.759 186.435 122.819 186.415L123.72 186.355C123.72 186.355 123.86 186.355 123.88 186.395C123.92 186.435 123.94 186.475 123.94 186.535L123.98 187.516L124.42 187.456C124.42 187.456 124.54 187.456 124.58 187.496C124.62 187.536 124.64 187.576 124.66 187.636L124.76 188.276C124.76 188.276 124.76 188.396 124.72 188.436C124.68 188.476 124.64 188.516 124.56 188.516L124 188.597L124.04 189.717L124.52 189.657C124.52 189.657 124.64 189.657 124.68 189.697C124.72 189.737 124.76 189.777 124.76 189.837L124.86 190.478C124.86 190.478 124.86 190.598 124.82 190.638C124.78 190.678 124.74 190.698 124.66 190.718L124.06 190.818L124.1 191.919C124.1 192.059 124.04 192.139 123.9 192.159L123.179 192.219C123.019 192.219 122.939 192.159 122.939 192.019L122.879 190.998L122.018 191.138L122.058 192.339C122.058 192.479 121.998 192.559 121.858 192.579L121.138 192.639L121.118 192.599ZM121.978 189.977L122.819 189.877L122.759 188.777L121.938 188.897L121.978 189.997V189.977Z" fill="#E7553B"/>
<path d="M128.021 191.619C127.881 191.659 127.801 191.599 127.761 191.459L127.661 191.099C127.361 191.119 127.061 191.099 126.76 191.059C126.46 190.999 126.18 190.919 125.92 190.799C125.8 190.739 125.78 190.659 125.82 190.538L126.02 189.998C126.02 189.998 126.08 189.898 126.12 189.878C126.16 189.858 126.22 189.858 126.3 189.878C126.48 189.958 126.64 190.018 126.82 190.038C127.001 190.078 127.201 190.098 127.401 190.078L127.101 188.917C126.981 188.917 126.881 188.917 126.76 188.877C126.64 188.877 126.54 188.837 126.42 188.817C126.28 188.777 126.14 188.737 126 188.677C125.86 188.617 125.74 188.537 125.62 188.457C125.5 188.357 125.4 188.257 125.319 188.117C125.239 187.997 125.179 187.837 125.139 187.656C125.039 187.236 125.099 186.836 125.299 186.496C125.5 186.155 125.82 185.875 126.28 185.675L126.22 185.455C126.18 185.315 126.22 185.235 126.38 185.195L127.101 185.015C127.241 184.975 127.321 185.035 127.361 185.175L127.421 185.395C127.641 185.375 127.861 185.375 128.061 185.395C128.261 185.395 128.442 185.435 128.622 185.475C128.702 185.475 128.762 185.535 128.802 185.555C128.842 185.595 128.862 185.655 128.862 185.715L128.782 186.356C128.782 186.356 128.742 186.496 128.702 186.516C128.642 186.556 128.582 186.556 128.502 186.536C128.382 186.516 128.241 186.496 128.101 186.476C127.961 186.476 127.821 186.476 127.681 186.476L128.001 187.877H128.201C128.662 187.877 129.042 187.977 129.322 188.157C129.602 188.337 129.783 188.617 129.863 189.017C129.923 189.398 129.863 189.738 129.662 190.058C129.462 190.378 129.122 190.618 128.702 190.799L128.782 191.179C128.822 191.319 128.762 191.399 128.622 191.439L128.041 191.579L128.021 191.619ZM126.58 186.816C126.4 186.956 126.32 187.136 126.36 187.356C126.36 187.496 126.42 187.576 126.52 187.656C126.6 187.736 126.72 187.777 126.84 187.797L126.58 186.796V186.816ZM128.422 189.778C128.582 189.658 128.662 189.498 128.622 189.338C128.602 189.238 128.542 189.157 128.482 189.097C128.422 189.037 128.321 188.997 128.221 188.977L128.402 189.778H128.422Z" fill="#E7553B"/>
<path d="M131.924 186.775C131.784 186.875 131.624 186.955 131.444 186.995C131.264 187.055 131.104 187.075 130.923 187.055C130.763 187.055 130.603 186.995 130.463 186.915C130.323 186.835 130.203 186.735 130.103 186.595C130.003 186.455 129.923 186.275 129.883 186.075C129.843 185.874 129.843 185.694 129.863 185.534C129.903 185.374 129.963 185.214 130.043 185.074C130.123 184.934 130.243 184.834 130.403 184.734C130.543 184.634 130.703 184.573 130.903 184.533C131.084 184.493 131.244 184.473 131.404 184.493C131.564 184.513 131.704 184.573 131.844 184.654C131.984 184.734 132.084 184.834 132.184 184.974C132.284 185.114 132.344 185.254 132.404 185.434C132.465 185.614 132.465 185.794 132.445 185.954C132.425 186.115 132.364 186.275 132.284 186.415C132.204 186.555 132.084 186.675 131.944 186.775M130.783 185.894C130.823 186.034 130.883 186.115 130.984 186.155C131.084 186.195 131.164 186.195 131.264 186.175C131.364 186.155 131.444 186.095 131.504 186.014C131.564 185.934 131.584 185.834 131.564 185.694C131.524 185.554 131.464 185.474 131.364 185.434C131.264 185.394 131.184 185.394 131.104 185.414C131.004 185.434 130.903 185.494 130.843 185.574C130.783 185.654 130.763 185.774 130.803 185.894M131.564 189.697C131.564 189.697 131.424 189.637 131.384 189.597C131.344 189.557 131.324 189.497 131.384 189.437C131.544 189.037 131.724 188.616 131.924 188.136C132.124 187.656 132.304 187.175 132.505 186.695C132.685 186.215 132.885 185.734 133.065 185.274C133.245 184.814 133.405 184.393 133.565 184.013C133.605 183.933 133.625 183.873 133.665 183.833C133.705 183.793 133.765 183.793 133.845 183.813L134.686 184.133C134.686 184.133 134.806 184.193 134.826 184.233C134.826 184.273 134.826 184.333 134.826 184.373C134.666 184.754 134.486 185.174 134.286 185.634C134.086 186.095 133.886 186.575 133.685 187.055C133.485 187.536 133.285 188.016 133.085 188.476C132.885 188.936 132.725 189.357 132.565 189.717C132.525 189.797 132.505 189.857 132.465 189.897C132.425 189.937 132.384 189.957 132.304 189.917L131.624 189.677L131.564 189.697ZM135.767 188.997C135.627 189.097 135.467 189.177 135.286 189.217C135.106 189.277 134.946 189.297 134.766 189.277C134.586 189.277 134.446 189.217 134.306 189.137C134.166 189.057 134.046 188.956 133.946 188.816C133.846 188.676 133.765 188.496 133.725 188.296C133.685 188.096 133.685 187.916 133.725 187.756C133.765 187.596 133.805 187.435 133.906 187.295C134.006 187.155 134.106 187.055 134.266 186.955C134.406 186.855 134.566 186.795 134.766 186.735C134.926 186.695 135.106 186.695 135.266 186.715C135.427 186.715 135.567 186.795 135.707 186.855C135.847 186.935 135.947 187.035 136.047 187.175C136.147 187.315 136.207 187.455 136.267 187.636C136.307 187.816 136.327 187.996 136.307 188.156C136.287 188.316 136.227 188.476 136.147 188.616C136.067 188.756 135.947 188.876 135.807 188.977M134.626 188.096C134.666 188.236 134.726 188.316 134.826 188.356C134.926 188.396 135.006 188.396 135.106 188.376C135.206 188.356 135.286 188.296 135.347 188.216C135.407 188.136 135.427 188.036 135.407 187.896C135.367 187.756 135.307 187.676 135.206 187.636C135.106 187.596 135.026 187.596 134.946 187.616C134.846 187.636 134.746 187.696 134.686 187.776C134.626 187.856 134.606 187.976 134.646 188.096" fill="#E7553B"/>
<path d="M137.467 188.655C137.307 188.655 137.227 188.595 137.227 188.455L137.167 187.334L136.687 187.414C136.687 187.414 136.567 187.414 136.527 187.374C136.487 187.334 136.447 187.294 136.447 187.234L136.347 186.533C136.347 186.533 136.347 186.413 136.367 186.373C136.407 186.333 136.447 186.293 136.527 186.293L137.107 186.213L137.047 185.133L136.567 185.213C136.567 185.213 136.447 185.213 136.407 185.173C136.367 185.133 136.327 185.092 136.327 185.032L136.227 184.332C136.227 184.332 136.227 184.212 136.267 184.152C136.287 184.112 136.347 184.092 136.407 184.072L136.987 183.992L136.947 183.151C136.947 183.151 136.947 183.011 136.967 182.951C136.987 182.891 137.047 182.871 137.127 182.851L138.028 182.791C138.028 182.791 138.168 182.791 138.188 182.831C138.228 182.871 138.228 182.911 138.248 182.971L138.288 183.812L139.069 183.712L139.009 182.751C139.009 182.751 139.009 182.591 139.029 182.551C139.049 182.491 139.109 182.471 139.169 182.451L140.069 182.391C140.069 182.391 140.209 182.391 140.249 182.431C140.289 182.471 140.289 182.511 140.309 182.571L140.349 183.551L140.79 183.491C140.79 183.491 140.91 183.491 140.95 183.531C140.99 183.571 141.01 183.611 141.03 183.672L141.13 184.312C141.13 184.312 141.13 184.432 141.09 184.472C141.05 184.512 141.01 184.552 140.93 184.552L140.369 184.632L140.409 185.753L140.89 185.693C140.89 185.693 141.01 185.693 141.05 185.733C141.09 185.773 141.13 185.813 141.13 185.873L141.23 186.513C141.23 186.513 141.23 186.634 141.19 186.674C141.15 186.714 141.11 186.734 141.05 186.754L140.45 186.854L140.49 187.954C140.49 188.095 140.429 188.175 140.289 188.195L139.569 188.255C139.409 188.255 139.329 188.195 139.329 188.055L139.269 187.054L138.408 187.194L138.448 188.395C138.448 188.535 138.388 188.615 138.248 188.635L137.528 188.695L137.467 188.655ZM138.308 186.033L139.149 185.933L139.089 184.832L138.268 184.952L138.308 186.053V186.033Z" fill="#E7553B"/>
<path d="M106.288 191.319C106.068 191.319 105.868 191.199 105.768 190.999C105.628 190.719 105.768 190.379 106.048 190.239L110.051 188.357C110.331 188.217 110.671 188.357 110.811 188.637C110.951 188.918 110.811 189.258 110.531 189.398L106.528 191.279C106.528 191.279 106.368 191.339 106.288 191.339V191.319Z" fill="#E7553B"/>
<path d="M111.09 197.142H111.05L105.967 196.722C105.647 196.702 105.427 196.421 105.447 196.101C105.467 195.781 105.767 195.561 106.067 195.581L111.15 196.001C111.471 196.021 111.691 196.301 111.671 196.622C111.651 196.922 111.391 197.142 111.11 197.142H111.09Z" fill="#E7553B"/>
</svg>
