<svg width="219" height="137" viewBox="0 0 219 137" fill="none" xmlns="http://www.w3.org/2000/svg">
<path d="M205.801 12.531L214.897 6.28967L205.801 0V12.531Z" fill="#D2476E"/>
<path d="M123.455 134.742H107.585V71.5066C107.585 60.8142 102.36 55.4922 91.9097 55.4922C84.3622 55.4922 78.6531 58.1048 74.8309 63.3301C71.4442 67.878 69.7992 74.0225 69.7992 81.812V134.742H54.3169V75.4739C54.3169 68.9907 53.4461 64.2493 51.7043 61.2012C49.382 57.3791 45.2211 55.4438 39.1734 55.4438C23.9814 55.4438 16.3371 65.7975 16.3371 86.5534V134.693H1V43.5902H16.3371V56.4598C20.7398 51.1378 24.6104 47.4124 27.9488 45.3319C32.1096 42.7677 37.2865 41.5098 43.3826 41.5098C49.4787 41.5098 54.2202 42.5742 57.8972 44.7513C61.5742 46.9285 64.7674 50.654 67.5252 55.976C74.1052 46.348 83.2494 41.5098 94.9578 41.5098C113.924 41.5098 123.455 52.3473 123.455 74.0709V134.693V134.742Z" fill="#231815" stroke="#231815" stroke-width="0.425833" stroke-miterlimit="2.88"/>
<path d="M218.382 136.097H207.254V121.97C203.093 126.953 199.174 130.485 195.594 132.517C191.288 134.888 186.256 136.097 180.45 136.097C164.097 136.097 152.921 129.324 147.018 115.825C143.535 107.891 141.793 99.3753 141.793 90.2795C141.793 77.555 144.696 67.0077 150.502 58.6376C157.13 48.9612 166.468 44.123 178.563 44.123C185.53 44.123 191.82 45.9132 197.384 49.5418C201.351 52.1061 203.867 54.6703 205.028 57.1862V46.5421H218.43V136.049L218.382 136.097ZM203.722 91.6342C203.722 82.49 202.029 75.0391 198.69 69.1849C194.626 62.0244 188.336 58.4925 179.87 58.4925C163.613 58.4925 155.485 69.0398 155.485 90.0859C155.485 112.197 164.097 123.276 181.273 123.276C188.336 123.276 193.852 119.986 197.819 113.454C200.625 108.907 202.367 105.084 203.045 102.036C203.528 100.053 203.722 96.6175 203.722 91.6825V91.6342Z" fill="#231815" stroke="#231815" stroke-width="0.425833" stroke-miterlimit="2.88"/>
<path d="M217.057 19.8535V32.3521H149.064V19.8535H217.057Z" stroke="#231815"/>
<path d="M208.657 5.04102H151.131V6.9763H208.657V5.04102Z" fill="#D2476E"/>
</svg>
