<svg width="218" height="142" viewBox="0 0 218 142" fill="none" xmlns="http://www.w3.org/2000/svg">
<path d="M122.428 140.172H106.59V77.0617C106.59 66.3903 101.375 61.0788 90.9451 61.0788C83.4124 61.0788 77.7146 63.6863 73.9 68.9013C70.5199 73.4402 68.8783 79.5726 68.8783 87.3467V140.172H53.4265V81.0211C53.4265 74.5508 52.5573 69.8187 50.819 66.7766C48.5013 62.962 44.3487 61.0305 38.3128 61.0305C23.1509 61.0305 15.5216 71.3638 15.5216 92.0788V140.124H0.214844V49.2003H15.5216V62.0446C19.9157 56.7331 23.7786 53.015 27.1103 50.9387C31.263 48.3795 36.4296 47.124 42.5137 47.124C48.5978 47.124 53.3299 48.1863 56.9997 50.3592C60.6695 52.5321 63.8565 56.2502 66.6088 61.5617C73.1758 51.9527 82.3019 47.124 93.9872 47.124C112.916 47.124 122.428 57.9402 122.428 79.6209V140.124V140.172Z" fill="#231815" stroke="#231815" stroke-width="0.425833" stroke-miterlimit="2.88"/>
<path d="M217.166 141.525H206.06V127.425C201.908 132.399 197.996 135.924 194.423 137.952C190.126 140.318 185.104 141.525 179.309 141.525C162.989 141.525 151.834 134.765 145.943 121.293C142.467 113.374 140.729 104.876 140.729 95.7978C140.729 83.0984 143.626 72.572 149.42 64.2184C156.035 54.5611 165.355 49.7324 177.426 49.7324C184.379 49.7324 190.657 51.519 196.21 55.1405C200.169 57.6997 202.68 60.2589 203.839 62.7698V52.1467H217.214V141.477L217.166 141.525ZM202.584 97.1498C202.584 88.0236 200.893 80.5875 197.562 74.7448C193.506 67.5984 187.228 64.0735 178.778 64.0735C162.554 64.0735 154.442 74.6 154.442 95.6046C154.442 117.672 163.037 128.729 180.179 128.729C187.228 128.729 192.733 125.446 196.693 118.927C199.493 114.388 201.231 110.573 201.907 107.531C202.39 105.552 202.584 102.123 202.584 97.1981V97.1498Z" fill="#231815" stroke="#231815" stroke-width="0.425833" stroke-miterlimit="2.88"/>
<path d="M205.001 26.985L181.533 2.21399L183.272 0.572266L206.787 25.3432L205.001 26.985Z" fill="#D2476E"/>
<path d="M199.348 28.3401L210.164 30.6579L208.426 19.7451L199.348 28.3401Z" fill="#D2476E"/>
<path d="M201.861 38.476H188.968L188.823 38.3794L144.352 6.12402H171.826L171.971 6.26888L201.861 38.476ZM189.306 37.5103H199.688L171.44 7.08974H147.393L189.354 37.5103H189.306Z" fill="#231815"/>
<path d="M198.538 37.0104H189.514L148.932 7.58984H171.219L198.538 37.0104Z" stroke="#231815"/>
</svg>
