<svg width="219" height="148" viewBox="0 0 219 148" fill="none" xmlns="http://www.w3.org/2000/svg">
<path d="M123.213 146.094H107.375V82.9835C107.375 72.3122 102.16 67.0007 91.7302 67.0007C84.1975 67.0007 78.4997 69.6082 74.6851 74.8231C71.305 79.362 69.6632 85.4944 69.6632 93.2685V146.094H54.2116V86.943C54.2116 80.4726 53.3424 75.7405 51.6041 72.6985C49.2864 68.8839 45.1338 66.9524 39.098 66.9524C23.936 66.9524 16.3067 77.2857 16.3067 98.0006V146.046H1V55.1222H16.3067V67.9664C20.7008 62.6549 24.5637 58.9369 27.8955 56.8605C32.0481 54.3014 37.2148 53.0459 43.2989 53.0459C49.3829 53.0459 54.115 54.1082 57.7848 56.2811C61.4546 58.454 64.6416 62.172 67.3939 67.4835C73.9609 57.8745 83.0869 53.0459 94.7723 53.0459C113.701 53.0459 123.213 63.8621 123.213 85.5427V146.046V146.094Z" fill="#231815" stroke="#231815" stroke-width="0.425833" stroke-miterlimit="2.88"/>
<path d="M217.952 147.447H206.846V133.347C202.694 138.321 198.782 141.846 195.209 143.874C190.912 146.24 185.89 147.447 180.096 147.447C163.775 147.447 152.621 140.687 146.73 127.215C143.253 119.296 141.515 110.797 141.515 101.72C141.515 89.0203 144.412 78.4938 150.206 70.1402C156.822 60.4829 166.141 55.6543 178.212 55.6543C185.166 55.6543 191.443 57.4409 196.996 61.0624C200.955 63.6216 203.466 66.1807 204.625 68.6916V58.0686H218V147.399L217.952 147.447ZM203.321 103.072C203.321 93.9455 201.631 86.5094 198.3 80.6667C194.244 73.5203 187.966 69.9954 179.516 69.9954C163.292 69.9954 155.18 80.5218 155.18 101.526C155.18 123.593 163.775 134.651 180.916 134.651C187.966 134.651 193.471 131.368 197.43 124.849C200.231 120.31 201.969 116.495 202.645 113.453C203.128 111.473 203.321 108.045 203.321 103.12V103.072Z" fill="#231815" stroke="#231815" stroke-width="0.425833" stroke-miterlimit="2.88"/>
<path d="M179.754 20.4056L167.876 6.64391L169.663 5.05045L179.658 16.5909L189.074 4.76074L190.957 6.25761L179.754 20.4056Z" fill="#D2476E"/>
<path d="M193.129 11.6607L193.902 0.651367L183.327 3.88655L193.129 11.6607Z" fill="#D2476E"/>
<path d="M190.81 47.5866H170.144L169.999 47.3935L147.787 15.959H166.329L166.474 16.1521L180.38 35.9496L194.432 15.959H212.974L190.714 47.5866H190.81ZM170.675 46.6209H190.327L211.235 16.9247H195.011L180.429 37.6396L165.846 16.9247H149.67L170.675 46.6209Z" fill="#231815"/>
<path d="M150.637 17.4248H165.587L180.021 37.9275L180.429 38.5083L180.838 37.9275L195.271 17.4248H210.273L190.069 46.121H170.934L150.637 17.4248Z" stroke="#231815"/>
</svg>
