<svg width="219" height="145" viewBox="0 0 219 145" fill="none" xmlns="http://www.w3.org/2000/svg">
<path d="M123.213 142.63H107.375V79.1446C107.375 68.41 102.16 63.0669 91.7304 63.0669C84.1977 63.0669 78.4999 65.6899 74.6852 70.9358C71.3052 75.5017 69.6635 81.6705 69.6635 89.4907V142.63H54.2117V83.1276C54.2117 76.6188 53.3426 71.8587 51.6043 68.7986C49.2865 64.9613 45.1339 63.0183 39.0981 63.0183C23.9361 63.0183 16.3068 73.413 16.3068 94.2509V142.581H1V51.1179H16.3068V64.0384C20.7009 58.6954 24.5638 54.9552 27.8956 52.8666C32.0482 50.2922 37.2149 49.0293 43.299 49.0293C49.3831 49.0293 54.1152 50.0979 57.7849 52.2837C61.4547 54.4695 64.6417 58.2096 67.394 63.5527C73.961 53.8866 83.0871 49.0293 94.7724 49.0293C113.701 49.0293 123.213 59.9097 123.213 81.719V142.581V142.63Z" fill="#231815" stroke="#231815" stroke-width="0.425833" stroke-miterlimit="2.88"/>
<path d="M217.951 143.99H206.845V129.807C202.693 134.81 198.782 138.355 195.208 140.395C190.911 142.776 185.889 143.99 180.095 143.99C163.774 143.99 152.62 137.19 146.729 123.638C143.252 115.672 141.514 107.123 141.514 97.9911C141.514 85.2164 144.411 74.6274 150.205 66.2243C156.821 56.5097 166.14 51.6523 178.211 51.6523C185.165 51.6523 191.442 53.4496 196.995 57.0925C200.954 59.6669 203.465 62.2413 204.624 64.7671V54.081H218V143.941L217.951 143.99ZM203.32 99.3512C203.32 90.1708 201.63 82.6906 198.299 76.8132C194.243 69.6244 187.965 66.0786 179.515 66.0786C163.291 66.0786 155.179 76.6675 155.179 97.7968C155.179 119.995 163.774 131.118 180.915 131.118C187.965 131.118 193.47 127.815 197.429 121.258C200.23 116.692 201.968 112.854 202.644 109.794C203.127 107.803 203.32 104.354 203.32 99.3997V99.3512Z" fill="#231815" stroke="#231815" stroke-width="0.425833" stroke-miterlimit="2.88"/>
<path d="M151.7 28.6706L150.01 26.8735L174.974 3.50977L176.616 5.2584L151.7 28.6706Z" fill="#D2476E"/>
<path d="M177.924 10.9392L180.339 0.107422L169.426 1.75889L177.924 10.9392Z" fill="#D2476E"/>
<path d="M185.745 39.2607H162.664L163.63 38.435L200.134 6.32812H213.075L185.745 39.2607ZM165.272 38.3378H185.31L210.999 7.34816H200.472L165.223 38.3378H165.272Z" fill="#231815"/>
<path d="M209.934 7.84766L185.075 37.8373H166.549L200.66 7.84766H209.934Z" stroke="black"/>
</svg>
