<svg width="137" height="71" viewBox="0 0 137 71" fill="none" xmlns="http://www.w3.org/2000/svg">
<g clip-path="url(#clip0_3860_31564)">
<g style="mix-blend-mode:multiply">
<path d="M97.5792 43.1977C96.9447 42.5559 96.3941 41.9617 95.9392 41.4388C95.4843 40.9159 94.9935 40.393 94.4787 39.8582C93.8801 39.2878 93.3414 38.9907 92.8626 38.9431C92.3838 38.9075 91.8211 39.1808 91.1866 39.7869C90.5043 40.4287 89.8459 41.1061 89.1875 41.7835C88.5291 42.4728 87.9664 43.0551 87.4876 43.5423C86.8531 44.1128 86.1707 44.3148 85.4525 44.1484C84.7342 43.9821 84.1596 43.7087 83.7167 43.3046C83.2378 42.7342 83.0343 42.1162 83.0942 41.4269C83.154 40.7376 83.4413 40.191 83.9561 39.7869C84.1955 39.5849 84.4349 39.3947 84.6744 39.2165C84.9138 39.0382 85.1771 38.8481 85.4525 38.646C86.2545 38.0043 87.0327 37.3388 87.7868 36.6495C88.541 35.9602 89.1516 35.1521 89.6065 34.2251C90.0614 33.2981 90.2529 32.1454 90.1691 30.7668C90.0853 30.0418 90.3128 29.4357 90.8275 28.9485C91.3423 28.4612 91.9408 28.2236 92.6232 28.2236C93.3414 28.2236 93.9639 28.4612 94.4787 28.9485C94.9935 29.4357 95.2209 30.0418 95.1371 30.7668C95.0533 32.181 95.2209 33.3338 95.616 34.2251C96.011 35.1164 96.5856 35.877 97.3159 36.5306C98.0581 37.1724 98.8601 37.826 99.734 38.4678C99.9734 38.5866 100.189 38.7292 100.392 38.8956C100.596 39.062 100.811 39.2165 101.051 39.3829C101.566 39.7869 101.841 40.393 101.853 41.2011C101.877 42.0093 101.649 42.651 101.171 43.1383C100.692 43.6612 100.081 43.9345 99.3509 43.9583C98.6087 43.9821 98.0222 43.7206 97.5912 43.1977H97.5792ZM93.94 57.1379C93.94 55.6405 94.3111 54.3213 95.0413 53.1686C95.7835 52.0158 96.7772 51.1126 98.0341 50.4708C99.2911 49.8291 100.656 49.4963 102.128 49.4963C103.601 49.4963 104.953 49.8172 106.163 50.4708C107.384 51.1126 108.365 52.0158 109.119 53.1686C109.874 54.3213 110.257 55.6405 110.257 57.1379C110.257 58.6353 109.874 59.9664 109.119 61.1429C108.365 62.3194 107.372 63.2226 106.163 63.8644C104.941 64.5061 103.601 64.8389 102.128 64.8389C100.656 64.8389 99.2911 64.518 98.0341 63.8644C96.7772 63.2226 95.7835 62.3076 95.0413 61.1429C94.2991 59.9664 93.94 58.6353 93.94 57.1379ZM99.0157 57.1379C99.0157 58.0649 99.315 58.7898 99.9136 59.3246C100.512 59.8475 101.254 60.109 102.128 60.109C103.002 60.109 103.744 59.8475 104.343 59.3246C104.941 58.8017 105.241 58.0768 105.241 57.1379C105.241 56.199 104.941 55.486 104.343 54.9512C103.744 54.4283 103.002 54.1668 102.128 54.1668C101.254 54.1668 100.512 54.4283 99.9136 54.9512C99.315 55.4741 99.0157 56.199 99.0157 57.1379ZM111.466 46.4777C111.466 47.2502 111.238 47.8682 110.783 48.3555C110.328 48.8427 109.742 49.0804 109.024 49.0804C108.269 49.0804 107.635 48.8427 107.144 48.3555C106.641 47.8682 106.402 47.2502 106.402 46.4777V40.1078C106.402 39.1808 105.959 38.7173 105.085 38.7173H103.409C102.655 38.7173 102.056 38.4915 101.613 38.0518C101.171 37.6121 100.955 37.0179 100.955 36.293C100.955 35.6869 101.147 35.1402 101.518 34.6529C101.901 34.1657 102.523 33.928 103.397 33.928H105.073C105.636 33.928 105.995 33.7973 106.151 33.5358C106.306 33.2743 106.39 32.8822 106.39 32.3593V30.4221C106.39 30.2201 106.45 29.923 106.57 29.5427C106.689 29.1624 106.941 28.7821 107.312 28.4256C107.695 28.0572 108.257 27.8789 109.012 27.8789C109.766 27.8789 110.364 28.1166 110.807 28.5801C111.25 29.0436 111.466 29.6615 111.466 30.434V46.5015V46.4777ZM128.752 47.0838C128.752 48.094 129.267 48.605 130.308 48.605H134.498C135.336 48.605 135.959 48.8546 136.378 49.3656C136.797 49.8766 137 50.4114 137 50.97C137 51.6117 136.773 52.1822 136.318 52.6694C135.863 53.1567 135.252 53.3944 134.498 53.3944H117.93C117.212 53.3944 116.625 53.1567 116.17 52.6694C115.715 52.1822 115.488 51.6236 115.488 50.97C115.488 50.3996 115.692 49.8648 116.087 49.3656C116.482 48.8665 117.104 48.605 117.942 48.605H122.192C123.233 48.605 123.748 48.1178 123.748 47.1551V45.943C123.748 45.1705 123.976 44.5644 124.43 44.1247C124.885 43.6849 125.472 43.4591 126.19 43.4591C127.064 43.4591 127.711 43.6968 128.13 44.1841C128.549 44.6713 128.752 45.2537 128.752 45.943V47.0957V47.0838ZM129.291 33.928C129.087 33.928 128.967 33.9874 128.908 34.1063C128.848 34.2251 128.824 34.332 128.824 34.4152C128.824 35.259 129.386 36.0196 130.5 36.6851C131.613 37.3507 132.99 38.2539 134.63 39.3829C135.073 39.7037 135.36 40.2266 135.492 40.9635C135.635 41.6884 135.42 42.342 134.869 42.9006C134.426 43.4235 133.84 43.685 133.109 43.685C132.379 43.685 131.721 43.4473 131.17 42.96L128.058 40.2979C127.423 39.7275 126.896 39.4542 126.501 39.4779C126.106 39.5017 125.58 39.7869 124.945 40.3574L121.533 43.2096C120.935 43.7325 120.264 43.9939 119.534 43.9702C118.792 43.9464 118.205 43.6731 117.774 43.1502C117.26 42.6273 117.032 41.9855 117.092 41.2368C117.152 40.4881 117.475 39.9177 118.074 39.5136C119.953 38.337 121.39 37.3982 122.383 36.697C123.377 35.9958 123.904 35.2352 123.94 34.4271C123.94 34.3439 123.916 34.2489 123.856 34.1181C123.796 33.9993 123.652 33.9399 123.413 33.9399H120.241C119.522 33.9399 118.948 33.726 118.505 33.2981C118.062 32.8703 117.846 32.2998 117.846 31.5749C117.846 30.8024 118.062 30.1963 118.505 29.7566C118.948 29.3169 119.522 29.0911 120.241 29.0911H132.511C133.229 29.0911 133.816 29.3169 134.271 29.7566C134.726 30.1963 134.953 30.8024 134.953 31.5749C134.953 32.2998 134.726 32.8822 134.271 33.2981C133.816 33.726 133.229 33.9399 132.511 33.9399H129.339L129.291 33.928Z" fill="#8DC986"/>
<mask id="mask0_3860_31564" style="mask-type:luminance" maskUnits="userSpaceOnUse" x="-8" y="-110" width="95" height="151">
<path d="M86.3716 -109.4H-7.95508V40.3228H86.3716V-109.4Z" fill="white"/>
</mask>
<g mask="url(#mask0_3860_31564)">
<path d="M39.2085 -103.24C17.5537 -103.24 0 -85.7636 0 -64.2036V0.406021C0 21.966 17.5537 39.4428 39.2085 39.4428C60.8634 39.4428 78.417 21.966 78.417 0.406021V-64.2036C78.417 -85.7636 60.8634 -103.24 39.2085 -103.24Z" fill="#CBE5C5"/>
</g>
</g>
<path d="M47.6766 71.3953C61.9688 71.3953 73.5564 60.0081 73.5564 45.9545C73.5564 31.9009 61.9688 20.5137 47.6766 20.5137C33.3844 20.5137 21.7969 31.9009 21.7969 45.9545C21.7969 60.0081 33.3844 71.3953 47.6766 71.3953Z" fill="#8DC986"/>
<mask id="mask1_3860_31564" style="mask-type:luminance" maskUnits="userSpaceOnUse" x="21" y="20" width="53" height="52">
<path d="M21.7969 45.9467C21.7969 60.0003 33.3844 71.3875 47.6766 71.3875C61.9688 71.3875 73.5564 60.0003 73.5564 45.9467C73.5564 31.8931 61.9688 20.5059 47.6766 20.5059C33.3844 20.5059 21.7969 31.8931 21.7969 45.9467Z" fill="white"/>
</mask>
<g mask="url(#mask1_3860_31564)">
<g opacity="0.75">
<mask id="mask2_3860_31564" style="mask-type:luminance" maskUnits="userSpaceOnUse" x="-17" y="24" width="145" height="91">
<path d="M127.153 24.6406H-16.75V114.744H127.153V24.6406Z" fill="white"/>
</mask>
<g mask="url(#mask2_3860_31564)">
<g style="mix-blend-mode:multiply">
<mask id="mask3_3860_31564" style="mask-type:luminance" maskUnits="userSpaceOnUse" x="27" y="36" width="94" height="85">
<path d="M120.216 36.8378H27.8516V120.191H120.216V36.8378Z" fill="white"/>
</mask>
<g mask="url(#mask3_3860_31564)">
<path d="M73.1674 38.7023C93.7881 38.2535 110.873 54.5335 111.315 75.0639C111.766 95.5943 95.4144 112.605 74.7937 113.045C54.173 113.494 37.0878 97.2136 36.6458 76.6831C36.195 56.1527 52.5467 39.1423 73.1674 38.6935" fill="#CFE7C9"/>
</g>
</g>
<g opacity="0.3">
<mask id="mask4_3860_31564" style="mask-type:luminance" maskUnits="userSpaceOnUse" x="-10" y="35" width="87" height="78">
<path d="M76.1109 35.0254H-9.69531V112.685H76.1109V35.0254Z" fill="white"/>
</mask>
<g mask="url(#mask4_3860_31564)">
<path d="M32.3951 36.8205C51.2393 36.4157 66.8484 51.4813 67.2639 70.4805C67.6793 89.4797 52.7419 105.214 33.8977 105.619C15.0536 106.024 -0.555564 90.9581 -0.979822 71.9589C-1.39524 52.9597 13.5422 37.2253 32.3863 36.8205" fill="#D1E8CB"/>
</g>
</g>
<g style="mix-blend-mode:multiply">
<mask id="mask5_3860_31564" style="mask-type:luminance" maskUnits="userSpaceOnUse" x="8" y="36" width="88" height="79">
<path d="M95.4235 36.3359H8.72461V114.049H95.4235V36.3359Z" fill="white"/>
</mask>
<g mask="url(#mask5_3860_31564)">
<path d="M51.2578 38.1397C70.3494 37.7261 86.1619 52.8005 86.5773 71.7997C86.9927 90.8077 71.852 106.551 52.7692 106.964C33.6776 107.378 17.8652 92.3037 17.4498 73.2957C17.0343 54.2877 32.175 38.5445 51.2667 38.1309" fill="#CEE6C8"/>
</g>
</g>
</g>
</g>
</g>
</g>
<defs>
<clipPath id="clip0_3860_31564">
<rect width="137" height="71" fill="white"/>
</clipPath>
</defs>
</svg>
