<svg width="37" height="30" viewBox="0 0 37 30" fill="none" xmlns="http://www.w3.org/2000/svg">
<path d="M1.73735 1.1352C0.921721 1.28026 0.378116 2.05905 0.523174 2.87468C0.668232 3.69031 1.44702 4.23391 2.26265 4.08886L1.73735 1.1352ZM24.7134 29.0593C25.2985 29.6458 26.2482 29.6471 26.8347 29.062L36.3929 19.5283C36.9794 18.9432 36.9806 17.9935 36.3956 17.407C35.8106 16.8204 34.8608 16.8192 34.2743 17.4043L25.7782 25.8787L17.3037 17.3826C16.7187 16.796 15.7689 16.7948 15.1824 17.3798C14.5959 17.9649 14.5947 18.9146 15.1797 19.5012L24.7134 29.0593ZM2 2.61203L2.26265 4.08886C9.04144 2.88326 13.6572 3.6453 16.8116 5.31524C19.9494 6.97637 21.8412 9.64186 22.9719 12.6578C25.2934 18.8506 24.2781 25.9516 24.2754 27.9981L25.7754 28L27.2754 28.0019C27.2773 26.5559 28.3569 18.4762 25.781 11.6047C24.4628 8.08853 22.1578 4.751 18.2152 2.66386C14.2894 0.585523 8.94124 -0.145992 1.73735 1.1352L2 2.61203Z" fill="black"/>
</svg>
