<svg width="40" height="52" viewBox="0 0 40 52" fill="none" xmlns="http://www.w3.org/2000/svg">
<circle cx="20" cy="29" r="20" fill="#FA91A6"/>
<path d="M13.6836 35.6797C10.0676 35.6797 8.375 33.2091 8.375 28.84V26.0313C8.375 21.6622 10.0676 19.1915 13.6836 19.1915C16.1969 19.1915 17.7869 20.3878 18.505 22.5984H21.1208V17.8652H24.1726V40.3868H21.1208V32.3248H18.505C17.7613 34.5094 16.1712 35.6797 13.6836 35.6797ZM28.8401 17.3711V41.5571H25.7627V17.3711H28.8401ZM13.6836 22.0523C11.9141 22.0523 11.3499 23.5606 11.3499 26.3953V28.4759C11.3499 31.3106 11.9141 32.819 13.6836 32.819C15.4532 32.819 16.0174 31.3106 16.0174 28.4759V26.3953C16.0174 23.5606 15.4532 22.0523 13.6836 22.0523ZM18.9922 28.84C18.9922 29.1 18.9922 29.3601 18.9666 29.5941H21.1208V25.3291H18.9666C18.9922 25.5631 18.9922 25.7972 18.9922 26.0313V28.84Z" fill="white"/>
</svg>
