<svg width="26" height="14" viewBox="0 0 26 14" fill="none" xmlns="http://www.w3.org/2000/svg">
<path d="M7 13C5.34 13 3.925 12.415 2.755 11.245C1.585 10.075 1 8.66 1 7C1 5.34 1.585 3.925 2.755 2.755C3.925 1.585 5.34 1 7 1H10.6C10.94 1 11.225 1.115 11.455 1.345C11.685 1.575 11.8 1.86 11.8 2.2C11.8 2.54 11.685 2.825 11.455 3.055C11.225 3.285 10.94 3.4 10.6 3.4H7C6 3.4 5.15 3.75 4.45 4.45C3.75 5.15 3.4 6 3.4 7C3.4 8 3.75 8.85 4.45 9.55C5.15 10.25 6 10.6 7 10.6H10.6C10.94 10.6 11.225 10.715 11.455 10.945C11.685 11.175 11.8 11.46 11.8 11.8C11.8 12.14 11.685 12.425 11.455 12.655C11.225 12.885 10.94 13 10.6 13H7ZM9.4 8.2C9.06 8.2 8.775 8.085 8.545 7.855C8.315 7.625 8.2 7.34 8.2 7C8.2 6.66 8.315 6.375 8.545 6.145C8.775 5.915 9.06 5.8 9.4 5.8H16.6C16.94 5.8 17.225 5.915 17.455 6.145C17.685 6.375 17.8 6.66 17.8 7C17.8 7.34 17.685 7.625 17.455 7.855C17.225 8.085 16.94 8.2 16.6 8.2H9.4ZM15.4 13C15.06 13 14.775 12.885 14.545 12.655C14.315 12.425 14.2 12.14 14.2 11.8C14.2 11.46 14.315 11.175 14.545 10.945C14.775 10.715 15.06 10.6 15.4 10.6H19C20 10.6 20.85 10.25 21.55 9.55C22.25 8.85 22.6 8 22.6 7C22.6 6 22.25 5.15 21.55 4.45C20.85 3.75 20 3.4 19 3.4H15.4C15.06 3.4 14.775 3.285 14.545 3.055C14.315 2.825 14.2 2.54 14.2 2.2C14.2 1.86 14.315 1.575 14.545 1.345C14.775 1.115 15.06 1 15.4 1H19C20.66 1 22.075 1.585 23.245 2.755C24.415 3.925 25 5.34 25 7C25 8.66 24.415 10.075 23.245 11.245C22.075 12.415 20.66 13 19 13H15.4Z" fill="#E44061" stroke="#E44061" stroke-width="0.3"/>
</svg>
