<svg width="764" height="49" viewBox="0 0 764 49" fill="none" xmlns="http://www.w3.org/2000/svg">
<rect width="351" height="49" rx="8" fill="#E4F2E6"/>
<path d="M13.5347 19.3784C14.3019 19 15.4038 18.3832 16.1943 17.9904C16.474 17.8177 16.7686 17.6676 17.0865 17.5031C15.806 17.8494 14.4789 18.2244 13.2134 18.5932C11.8332 18.9375 11.4911 16.9278 12.9203 16.807C14.0718 16.7624 15.2615 16.726 16.4364 16.667C15.2888 16.5188 14.1031 16.3624 12.9471 16.2511C11.5323 16.0457 12.0491 14.0451 13.4049 14.509C14.5465 14.9465 15.7114 15.3695 16.8763 15.7926C16.664 15.6698 16.4751 15.5327 16.2628 15.4099C15.5051 14.9575 14.4523 14.3066 13.6861 13.8912C12.4975 13.1338 13.8037 11.5342 14.8506 12.4743C15.7001 13.3142 16.6026 14.1848 17.5051 15.0554C16.8357 14.0409 16.1047 13.0327 15.4035 12.0695C14.6448 10.9198 16.5204 9.98404 17.0545 11.2407C17.3525 12.0403 17.774 13.1762 18.0953 13.9614C18.1612 14.111 18.2272 14.2607 18.2698 14.4247C18.0626 13.3153 17.8405 12.1833 17.6099 11.0882C17.4002 9.7265 19.5123 9.59658 19.4611 10.9607C19.3902 11.7977 19.3346 13.0059 19.2785 13.8655C19.2641 14.1916 19.2498 14.5178 19.2354 14.844C19.3261 14.5341 19.4169 14.2243 19.531 13.9C19.778 13.0813 20.1008 11.9301 20.3329 11.0888C20.751 9.78369 22.699 10.5483 22.0602 11.7676C21.1779 13.2641 20.3021 14.82 19.4495 16.3616C21.4599 17.8174 23.2903 19.4478 24.9193 21.1708C24.4492 20.1601 23.9875 19.1125 23.509 18.1388C22.9601 16.8596 24.9824 16.2457 25.2918 17.6094C25.4842 18.6963 25.7063 19.8282 25.9518 20.9458C25.9473 20.79 25.9513 20.5971 25.9468 20.4412C25.9414 19.5879 25.9355 18.3859 25.8919 17.5245C25.9048 16.1522 28.0174 16.371 27.7521 17.7087C27.4505 18.9419 27.1554 20.2346 26.8836 21.5128C27.4673 20.3593 28.0446 19.1463 28.5901 17.9846C29.2289 16.7653 31.0246 17.846 30.1736 18.9425C29.0027 20.2999 27.8298 21.7536 26.7119 23.1417C28.4262 25.1928 29.8713 27.2831 31.0723 29.302C31.0529 29.1236 31.0103 28.9596 30.991 28.7811C30.8392 27.9547 30.634 26.7488 30.4823 25.9224C30.2725 24.5606 32.3995 24.4533 32.3633 25.8399C32.2715 26.9436 32.1713 28.0842 32.1092 29.233C32.4004 28.1332 32.6766 27.0108 32.9445 25.9253C33.3244 24.6121 35.304 25.3254 34.6801 26.5672C34.2507 27.3082 33.6838 28.3879 33.2925 29.1371L32.8293 30.0259C33.0495 29.763 33.2845 29.5227 33.4814 29.2743C34.0552 28.6028 34.8641 27.691 35.4146 27.0339C36.3484 26.0132 37.8138 27.4882 36.6761 28.3491C35.2057 29.352 33.7333 30.4514 32.3075 31.5219C33.7406 34.1907 34.6728 36.5977 35.1905 38.2769C35.2545 38.523 35.1573 38.7734 34.9708 38.8885C34.9242 38.9173 34.8776 38.946 34.831 38.9748C34.5299 39.0655 34.2264 38.9038 34.1327 38.6127C33.6448 36.9785 32.7488 34.6761 31.3603 32.0749C29.6008 32.59 27.7713 33.1482 26.0416 33.7084C24.6763 34.0753 24.2727 32.0718 25.6871 31.9284C27.0082 31.8426 28.3526 31.7424 29.697 31.6422C28.3586 31.4532 27.0052 31.2416 25.7198 31.0833C24.3134 30.841 24.8833 28.8711 26.2158 29.3494C27.281 29.7705 28.3844 30.1998 29.4878 30.6292C28.5029 30.0315 27.4799 29.4257 26.4866 28.8649C25.2979 28.1075 26.6042 26.5079 27.651 27.4481C28.2521 28.0606 29.1397 28.9086 29.7641 29.5068C29.8766 29.6277 29.9976 29.7116 30.1102 29.8325C28.9687 27.9038 27.545 25.8954 25.9284 23.9427C25.2291 24.3744 24.5299 24.806 23.839 25.2008C23.0932 25.6612 22.0443 26.3087 21.2984 26.7691C20.0948 27.4804 19.1358 25.6294 20.4882 25.1436C21.7389 24.7522 23.0213 24.3095 24.3038 23.8669C22.9509 24.004 21.598 24.1411 20.2983 24.309C18.869 24.4298 18.8959 22.3826 20.3127 22.4916C21.1845 22.6197 22.4169 22.7473 23.2887 22.8754C23.4647 22.8936 23.6408 22.9119 23.8168 22.9301C22.6966 22.5746 21.5679 22.2561 20.4541 21.9601C19.1131 21.5188 19.9419 19.6429 21.194 20.2977C21.9369 20.7275 23.0363 21.3496 23.7792 21.7794C23.9383 21.8715 24.1208 21.9492 24.2949 22.0639C22.6808 20.3634 20.8886 18.7412 18.9164 17.2935C17.5268 18.4686 16.0822 19.7094 14.7456 20.9152C13.661 21.8069 12.4372 20.1511 13.6557 19.4623" fill="#F3C574"/>
<path d="M37.2467 18.5741C38.4513 18.5602 39.6325 18.5607 40.852 18.5694C39.6618 18.2571 38.4632 17.9818 37.2943 17.7515C36.0109 17.4968 36.5575 15.5412 37.7585 16.0689C38.6859 16.48 39.6514 16.8992 40.5852 17.3698C39.7466 16.7453 38.8848 16.1351 38.0145 15.5619C36.8873 14.7983 38.0939 13.1967 39.0708 14.1801C39.8588 15.0262 40.6701 15.8579 41.4347 16.7185C40.8417 15.7203 40.2337 14.6996 39.5707 13.7446C38.7971 12.5723 40.5581 11.6121 41.1135 12.9508C41.5583 14.0722 41.9649 15.1855 42.3715 16.2988C42.196 15.138 42.0056 13.9547 41.7537 12.7777C41.4761 11.3627 43.5247 11.3354 43.5182 12.7672C43.4879 13.8646 43.4576 14.962 43.3891 16.0513C43.6485 15.0028 43.8846 13.9687 44.0677 12.9039C44.3648 11.5148 46.3171 12.4353 45.7845 13.716C45.2474 14.8408 44.7251 15.9881 44.135 17.0821C44.9438 16.1703 45.7294 15.2729 46.4936 14.2935C47.3511 13.2565 48.8085 15.1172 47.7492 15.898C46.3105 16.8496 44.8867 17.8237 43.4481 18.7753C44.4056 21.0714 45.3423 23.6342 46.0945 26.2157C46.1183 25.0588 46.104 23.8937 46.0515 22.7205C46.0198 21.2806 48.0242 21.5344 47.81 22.9992C47.6036 24.0784 47.4122 25.1802 47.1676 26.2513C47.5947 25.2579 47.9835 24.2564 48.3426 23.2098C48.8455 21.8841 50.654 23.0838 49.9007 24.2785C49.1811 25.3256 48.4997 26.3808 47.7503 27.3828C48.6866 26.6144 49.608 25.8235 50.523 24.9731C50.8831 24.6239 51.4643 24.7093 51.7851 25.1458C52.1655 25.6725 52.0182 26.4932 51.5222 26.7359C49.9581 27.4476 48.4004 28.2188 46.8511 28.9531C46.8045 28.9819 47.7927 33.5118 47.9038 34.0778C47.9509 34.3977 48.0744 34.7339 48.0367 35.0745C48.0009 35.3186 47.8804 35.5834 47.573 35.6146C47.1425 35.6582 46.9531 35.1723 46.9293 34.838C46.7344 33.4988 45.895 29.1944 45.8335 29.2006C44.0988 29.2562 42.3706 29.3712 40.6339 29.5232C39.3212 29.5721 39.3694 27.607 40.6548 27.7653C41.832 27.9586 43.0178 28.115 44.2184 28.294C43.1085 27.8052 41.9521 27.3452 40.8403 26.9528C39.6223 26.499 40.4659 24.6456 41.5867 25.3498C42.4421 25.9005 43.3124 26.4737 44.1743 27.0838C43.4458 26.3279 42.694 25.5863 41.9254 24.9186C40.94 23.9722 42.3802 22.5755 43.2004 23.719C43.8252 24.6659 44.5115 25.6065 45.1279 26.5903C44.3757 24.0088 43.4539 21.4685 42.4964 19.1724C40.8023 19.4884 39.0999 19.8414 37.4271 20.2395C36.1487 20.4893 35.8661 18.5697 37.1787 18.5209" fill="#F3C574"/>
<path d="M63.04 21.28C62.96 21.28 62.92 21.24 62.92 21.2C62.4 20.8 62.24 19.8 62.24 19.2C62.2 18.24 62.08 17.28 62.08 16.36C62.08 15 62.04 13.36 62.28 12.04C62.44 11.2 62.76 10.72 63.56 10.4C64.28 10.12 65.04 10.04 65.8 9.96C66.72 9.88 67.68 9.96 68.64 9.96H76.24C78.96 9.96 78.6 9.96 81.28 9.92C81.76 9.92 82.2 9.92 82.68 9.96C83.68 10 84.8 10.04 85.72 10.48C86.76 10.92 87.08 12.04 87.12 13.08C87.2 14.28 87.08 15.8 87.08 17C87.04 18.08 87.08 19.16 86.8 20.2C86.64 20.8 86.52 21.28 85.88 21.48C85.32 21.68 84.6 21.72 84.04 21.72H66.76C66.24 21.72 65.72 21.68 65.2 21.64C64.52 21.6 63.64 21.68 63.04 21.28ZM85.24 28.92C82.6 29 80.52 29.08 77.84 29.08C77.8 30.2 77.72 31.24 77.72 32.76C77.48 33.88 76 34.56 74.92 34.52C73.32 34.44 72.44 33.8 72.28 32.2C72.16 31.16 72.32 30.04 72.32 29C69.88 29 63.48 28.92 61.24 28.76C60.4 28.68 60 28.64 59.32 28C58.96 27.68 58.8 27.08 58.8 26.52C58.8 26 59 25.48 59.32 25.16C60.12 24.32 62.08 24.36 62.16 24.36H85.04C85.84 24.36 86.64 24.36 87.4 24.4C88.12 24.44 88.92 24.56 89.48 25.08C90.04 25.52 90.04 26.04 90.04 26.68C90.04 27.48 89.56 28.16 88.76 28.44C87.68 28.84 86.36 28.88 85.24 28.92ZM86.36 36.48C86.44 36.52 87.92 36.88 88.08 38C88.24 39 88.08 39.8 87.6 40.36C87 41.12 86.12 41.16 86.08 41.16H64.24C62.2 41.16 60.96 40.44 60.96 39.24V35.68C60.92 35.08 60.92 34.48 60.96 33.88C61.04 32.76 61.88 32 63 32C63.28 32 63.84 32.04 64.08 32.12C65.44 32.56 65.52 33.92 65.6 35.12C65.6 35.56 65.64 36.04 65.76 36.4C65.88 36.44 66.68 36.56 68.56 36.56C70.16 36.56 71.64 36.48 71.68 36.48H86.36ZM66.84 16.6C66.84 16.84 66.84 17.12 66.96 17.24C67.2 17.44 68.12 17.32 68.12 17.32H78.64C78.64 17.32 80.56 17.48 81.52 17.36C82.08 17.32 82.08 17.08 82.16 16.6C82.2 16.16 82.28 15.24 81.96 14.84C81.6 14.4 80.76 14.48 80.28 14.52H76.64C76.28 14.48 71.44 14.52 71.08 14.52C69.96 14.44 68.84 14.48 67.68 14.52C67.2 14.52 67.04 14.44 66.92 14.92C66.84 15.28 66.84 15.92 66.84 16.24V16.6ZM95.2516 33.72C95.4516 33.64 99.1316 33.8 99.8116 33.8C99.8516 33.16 99.9316 30.52 100.012 29.2C99.5316 29.08 99.0916 28.96 98.6516 28.76C95.6516 27.52 93.3316 25.08 93.3316 21.56C93.3316 19.64 93.8916 18.16 94.8116 17H94.3716C93.0916 17 92.0116 16.04 92.0116 14.88C92.0116 13.68 93.0916 12.72 94.3716 12.72H99.6516V11.08C99.6516 10.04 100.692 9.28 101.972 9.28C103.292 9.28 104.332 10.04 104.332 11.08V12.72H109.852C111.172 12.72 112.252 13.68 112.252 14.88C112.252 16.04 111.172 17 109.852 17H109.732C110.652 18.16 111.252 19.64 111.252 21.56C111.252 24.04 110.052 26.08 108.052 27.6C107.052 28.32 105.932 28.84 104.772 29.16C104.852 30.4 104.852 33.16 104.852 33.76V33.8H110.172C111.052 33.8 111.772 33.96 112.292 34.28C113.492 35 113.452 36.96 112.932 37.92C112.452 38.76 111.412 38.84 110.572 38.84H94.7716C94.7316 38.84 93.3716 38.72 92.6516 38.4C92.1316 38.12 91.7316 37.52 91.6116 36.76C91.4916 35.92 91.7716 35.12 92.2916 34.64C93.2516 33.84 94.3316 33.72 95.2516 33.72ZM121.772 22.96H121.852C122.132 22.92 122.372 23 122.612 23C122.932 23.04 123.212 23.08 123.532 23.12C124.132 23.24 124.772 23.48 125.092 24.08C125.252 24.4 125.332 24.76 125.332 25.16C125.332 25.52 125.332 25.92 125.252 26.28C125.132 26.68 125.012 27.24 124.692 27.52C124.372 27.76 123.972 27.96 123.572 28.04C122.732 28.16 121.292 28.04 120.452 28.08C120.372 28.12 120.332 28.12 120.332 28.12C120.332 28.12 120.332 28.16 120.292 28.28C120.252 29.6 120.292 30.76 120.292 32.12C120.332 33.48 120.332 34.88 120.292 36.2V36.76C120.292 38.16 120.332 40.2 119.372 41.2C119.012 41.52 118.572 41.72 118.052 41.72H117.972C115.372 41.6 115.132 38.48 115.132 36.8V13.04C115.132 12.96 115.052 10.96 115.932 10.08C116.332 9.72 117.172 9.52 117.732 9.52C118.332 9.52 118.892 9.76 119.252 10.12C119.932 10.88 120.012 11.72 120.052 12.6C120.092 12.76 120.092 12.92 120.132 13.12C120.212 13.96 120.212 14.96 120.252 15.92C120.252 16.52 120.292 17.08 120.292 17.64V21.96C120.292 22.24 120.292 22.56 120.372 22.84C120.372 22.88 121.172 22.88 121.252 22.92C121.412 22.92 121.612 22.96 121.772 22.96ZM103.052 24.76C104.772 24.44 106.252 23.6 106.252 21.56C106.252 19.2 104.292 18.32 102.332 18.28C100.332 18.2 98.3316 19.04 98.3316 21.56C98.3316 24.44 100.852 25.2 103.052 24.76ZM162.553 38.44C163.393 38.52 164.113 38.8 164.353 39.64C164.673 40.6 164.313 41.28 163.313 41.68C162.673 41.92 161.993 41.96 161.433 41.96H142.833C141.753 41.96 140.593 41.92 139.433 41.88C138.313 41.84 137.513 41 137.393 39.8L137.273 37C137.233 36.44 137.193 35.48 137.673 34.96C138.393 34.16 139.833 34.04 140.993 34.04C142.513 34.04 147.593 34.08 159.793 34.08V32.64H140.113C139.593 32.64 139.153 32.64 138.753 32.56C138.273 32.44 137.873 32.44 137.633 32C137.273 31.44 137.153 30.92 137.353 30.28C137.633 29.44 138.833 29.32 139.433 29.24C139.833 29.16 140.233 29.12 140.673 29.12C143.073 29.12 145.873 29.16 160.193 29.16C162.873 29.16 164.393 29.96 164.393 31.8V34.64C164.393 35.36 164.073 36.16 163.233 36.64C162.553 37.04 161.833 37 161.153 37H142.193V38.44H162.553ZM137.633 15.2C137.553 13.88 137.353 12.48 137.793 11.32C138.393 9.88 139.913 9.64 141.233 9.64H159.873C160.953 9.64 161.873 9.68 162.913 10.08C163.753 10.44 164.273 11.28 164.233 12.2C164.153 13.12 163.593 13.84 162.713 14.04C162.233 14.16 161.513 14.24 160.553 14.24C159.873 14.24 159.393 14.2 159.353 14.2H147.793C146.993 14.2 146.193 14.24 145.393 14.2C144.753 14.16 144.073 13.96 143.473 14.16C142.873 14.32 142.913 15 143.073 15.68C143.833 15.8 144.593 15.8 145.353 15.84H152.953C153.433 15.88 156.593 15.88 156.993 15.84C157.313 15.8 159.513 15.8 159.833 15.8C161.073 15.8 162.153 16 162.993 16.4C163.513 16.68 163.873 16.88 163.993 17.52C164.153 18.16 164.033 18.84 163.633 19.32C162.873 20.32 161.913 20.36 160.793 20.4C159.753 20.44 153.873 20.48 152.233 20.48C150.553 20.48 147.153 20.44 145.593 20.44C143.833 20.4 142.073 20.32 140.313 20.32C137.713 20.32 137.713 18.56 137.713 16.32C137.713 15.96 137.673 15.56 137.633 15.2ZM138.993 22.64C139.793 22.56 141.553 22.56 141.553 22.56H150.353C150.353 22.56 157.753 22.48 161.353 22.56H161.553C162.633 22.6 163.713 22.52 164.753 22.92C165.513 23.2 165.993 23.88 165.993 24.68C165.993 25.32 165.713 25.92 165.193 26.36C164.353 27.12 162.993 27.08 161.913 27H138.953C138.873 27 136.993 27.04 136.233 26.2C135.913 25.88 135.753 25.36 135.753 24.84C135.753 24.28 135.953 23.8 136.273 23.48C136.953 22.8 137.713 22.76 138.513 22.68C138.673 22.68 138.833 22.64 138.993 22.64ZM191.589 14.52C191.629 13.16 191.589 11.04 192.549 10.08C192.909 9.72 193.349 9.56 193.829 9.56H193.909C196.549 9.68 196.789 12.8 196.789 14.48V38.2C196.789 38.28 196.869 40.32 195.949 41.16C195.589 41.52 194.749 41.76 194.189 41.76C193.589 41.76 193.029 41.52 192.669 41.12C191.989 40.36 191.869 39.68 191.789 38.8C191.789 37.88 191.709 34.68 191.749 33.2H189.269C188.069 33.2 187.429 32.8 187.149 32.2C186.989 31.88 186.829 31.52 186.829 31.16C186.829 30.8 186.829 30.56 186.909 30.2C187.029 29.8 187.149 29.24 187.469 28.96C187.789 28.72 188.189 28.52 188.589 28.44C189.429 28.28 190.749 28.32 191.629 28.2C191.629 27.4 191.629 24.92 191.589 23.16L189.189 23.08C188.189 23.04 187.309 22.88 187.029 22.28C186.869 21.96 186.749 21.56 186.749 21.2C186.749 20.84 186.749 20.6 186.829 20.24C186.949 19.84 187.069 19.36 187.389 19.08C187.709 18.84 188.109 18.64 188.509 18.56C189.109 18.44 190.149 18.44 191.549 18.36C191.549 16.6 191.549 15.04 191.589 14.52ZM177.029 9.56C177.709 9.56 178.349 9.64 178.989 9.72C179.989 9.88 180.909 10.36 181.669 11.12C184.269 13.84 184.829 18.52 184.989 22.32C185.109 24.76 185.069 27.24 184.789 29.64C184.509 32.12 184.149 34.8 182.829 36.84C181.709 38.56 179.949 39.68 178.149 40.04C176.509 40.36 174.709 40.16 173.189 39.28C171.749 38.44 170.789 37.12 170.069 35.44C169.549 34.2 169.229 32.84 169.149 31.48C168.949 29.24 168.869 27 168.869 24.76C168.869 23.24 168.869 21.76 169.029 20.28C169.109 19.08 169.309 17.84 169.509 16.68C169.709 15.72 169.829 14.88 170.229 14C170.629 13.12 171.149 12.28 171.829 11.64C172.989 10.48 174.509 9.84 176.029 9.64C176.349 9.6 176.709 9.6 177.029 9.56ZM176.909 34.72C177.389 34.72 177.909 34.56 178.389 34.24C179.269 33.6 179.589 32.48 179.829 31.2C180.269 28.76 180.229 25.8 180.149 23.28C180.109 21.24 180.069 18.6 179.109 16.96C178.589 16.08 177.789 15.52 176.949 15.64C176.069 15.72 175.269 16.28 174.789 17.32L174.429 18.16C174.109 19.16 173.949 20.28 173.869 21.36C173.789 22.44 173.709 23.56 173.709 24.64C173.749 25.72 173.629 26.72 173.709 27.76C173.909 30.52 174.269 34.68 176.909 34.72ZM216.772 34.8C218.332 34.8 219.772 35.16 219.972 36.88C220.172 38.6 218.412 39.64 216.972 39.72C215.852 39.76 210.492 39.72 207.892 39.72H207.572C206.372 39.68 204.972 39.68 203.772 39.32C202.932 39.08 202.092 38.32 201.692 37.4C201.172 36.24 201.292 33.76 201.292 33.64V16.64C201.252 16.36 200.972 13.52 201.772 12.2C202.452 11.08 205.492 11.04 205.772 11.04H215.132C215.292 11.04 218.652 10.92 219.172 12.6C219.372 13.2 219.332 14.64 219.092 15.08C218.892 15.44 218.532 15.68 218.092 15.8C217.612 15.92 216.852 16 215.812 16C215.132 16 214.612 15.96 209.692 15.96C208.972 15.96 208.052 16 207.692 16.16C206.932 16.48 206.972 18.24 207.052 18.84V18.88L207.212 32.72C207.212 33.76 207.612 34.52 208.852 34.52C209.132 34.56 213.252 34.8 216.772 34.8ZM227.412 21.88L230.572 22.16C231.532 22.36 232.372 23 232.372 24.16C232.372 24.56 232.372 24.92 232.252 25.32C232.092 26.2 231.612 26.96 230.612 26.96L227.332 27C227.252 29.76 227.332 34 227.332 37.32C227.332 38.72 227.292 41.68 224.932 41.84C222.332 42 222.132 39.44 222.132 37.76V13.2C222.132 13.12 222.092 11.12 222.972 10.24C223.332 9.88 224.172 9.68 224.772 9.68C225.372 9.68 225.892 9.92 226.252 10.28C226.972 11.04 227.012 11.88 227.092 12.76C227.332 15.68 227.412 18.84 227.412 21.88ZM260.615 34.52C260.775 34.56 260.935 34.52 261.095 34.52C261.975 34.6 262.775 34.8 263.495 35.44C263.855 35.8 264.055 36.28 264.055 36.84C264.055 37.4 263.855 38.2 263.535 38.56C262.695 39.4 260.735 39.32 260.655 39.32H238.255C238.015 39.32 237.735 39.36 237.455 39.36C236.335 39.4 234.895 39.48 234.015 38.72C233.495 38.24 233.175 37.64 233.175 37C233.175 36.2 233.695 35.2 234.495 34.88C235.575 34.48 236.735 34.56 237.895 34.52H238.095C240.375 34.48 242.855 34.48 245.255 34.52L245.215 29C243.175 29.04 241.495 29.04 240.535 28.96C239.415 28.92 237.935 28.88 237.015 28.2C235.815 27.28 235.775 24.36 235.775 24.24V15.64C235.775 14.6 235.615 13.48 235.815 12.44C236.095 11.2 237.615 10.88 238.815 10.8C239.735 10.76 241.095 11 241.295 12.08C241.375 12.56 241.215 15.6 241.415 16.04C241.535 16.32 242.095 16.36 242.375 16.4C243.615 16.48 244.015 16.36 245.255 16.36L254.415 16.4C254.975 16.44 255.415 16.44 255.575 15.88C255.615 15.32 255.615 12.96 255.655 12.52C255.695 11.56 255.975 11 256.975 10.8C258.015 10.56 259.495 10.64 260.095 11.24C260.935 12.12 260.895 13.16 260.895 15.24C260.815 17.68 261.015 23.56 260.775 26C260.655 27.56 259.775 28.56 258.255 28.8C257.455 28.92 256.375 28.88 255.575 28.88C253.855 28.92 252.215 28.92 250.615 28.92L250.695 34.52C253.415 34.52 255.295 34.44 257.895 34.52C258.855 34.56 259.775 34.44 260.615 34.52ZM241.415 23.84C241.615 24.64 242.775 24.64 243.655 24.68C244.055 24.64 252.175 24.56 252.655 24.64C253.095 24.68 253.535 24.64 253.975 24.68C254.535 24.72 255.495 24.92 255.495 24.04C255.495 23.64 255.575 22 255.375 21.24C255.215 20.6 254.855 20.64 254.335 20.68C254.095 20.68 253.335 20.72 253.095 20.68H243.975C242.975 20.64 241.495 20.44 241.375 21.68C241.375 21.96 241.375 23.64 241.415 23.84ZM295.356 38.72C295.276 39.36 295.236 39.96 295.036 40.6C294.956 40.8 294.876 40.96 294.796 41.16C294.636 41.48 294.396 41.8 294.076 42.04C293.476 42.4 292.716 42.48 292.036 42.32C291.636 42.24 291.276 42.08 290.996 41.84C290.036 40.96 290.076 38.88 290.076 38.8V14.08C290.036 12.84 290.076 10.84 290.836 10.12C291.396 9.56 292.076 9.48 292.796 9.48C293.716 9.48 294.556 10.04 294.876 10.92C295.356 12.04 295.316 13.28 295.356 14.52V14.72C295.476 18.8 295.356 23.32 295.356 27.16V37.28C295.356 37.76 295.396 38.24 295.356 38.72ZM276.476 34.8C276.436 34.16 276.436 33.52 276.436 32.88V20.16C276.436 19.32 276.436 18.44 276.356 17.56C276.316 17.28 276.276 16.68 275.996 16.56C275.716 16.4 275.356 16.48 275.036 16.44C274.676 16.4 274.316 16.48 273.956 16.44H272.076C271.196 16.48 270.236 16.4 269.356 16.44C268.956 16.48 268.596 16.44 268.196 16.44C267.596 16.44 266.916 16.44 266.396 16.08C265.636 15.56 265.436 14.68 265.436 13.84C265.396 13.32 265.516 12.8 265.756 12.32C265.876 12.04 266.036 11.8 266.276 11.64C266.556 11.36 267.156 11.16 267.516 11.08C268.636 10.8 269.916 10.84 271.076 10.84H278.036C278.716 10.92 279.556 11 280.196 11.24C280.596 11.4 281.076 11.68 281.316 12.04C281.796 12.8 281.796 13.52 281.876 14.4C281.996 15.88 281.956 17.36 281.956 18.84V31.96C281.956 32.08 282.036 35.4 281.956 37.08C281.876 38.16 281.636 39.48 280.236 40C279.756 40.2 279.276 40.28 278.876 40.28C278.196 40.28 277.396 40 277.116 39.4C276.716 38.6 276.476 37.6 276.476 36.56V34.8Z" fill="#48724B"/>
<circle cx="322" cy="24.5" r="17" fill="#A0C0A6"/>
<path d="M324.554 33.176H321.226V18.174L316.962 20.618L315.35 17.914L321.616 14.43H324.554V33.176Z" fill="white"/>
<path d="M373.8 10.4C373.88 10.36 376.24 10.44 376.28 10.44C379.68 10.44 380.4 13.2 380.4 14.8V35.08C380.4 35.2 380.32 37.6 379.68 38.68C378.88 40 375.96 40.04 375.8 40.04H368.56C367.56 40.04 364.24 39.88 363.4 37.84C362.68 36.08 362.72 34.12 362.76 32.24V17.84C362.72 17.52 362.32 13.68 363.2 12C364.28 9.84 367.08 10.4 369.04 10.4C370.72 10.4 372.2 10.44 373.8 10.4ZM391.04 21.88H391.12C391.36 21.88 391.6 21.96 391.88 21.96C392.16 22 392.48 22.04 392.8 22.08C393.4 22.2 394.04 22.44 394.32 23.04C394.52 23.36 394.6 23.72 394.6 24.08C394.6 24.48 394.6 24.84 394.48 25.24C394.4 25.64 394.28 26.2 393.92 26.48C393.6 26.72 393.24 26.92 392.84 27C392 27.12 390.56 27 389.72 27.04C389.64 27.04 389.6 27.08 389.6 27.08C389.6 27.08 389.56 27.08 389.56 27.24C389.52 28.56 389.56 30.92 389.56 32.28C389.6 33.64 389.6 35.04 389.56 36.36V36.92C389.56 38.32 389.56 40.36 388.6 41.32C388.28 41.68 387.84 41.88 387.32 41.88C387.32 41.88 387.28 41.84 387.24 41.84C384.64 41.76 384.36 38.64 384.36 36.96V13.2C384.36 13.12 384.32 11.12 385.2 10.24C385.56 9.88 386.4 9.68 387 9.68C387.6 9.68 388.12 9.92 388.48 10.28C389.2 11.04 389.24 11.88 389.32 12.76C389.36 12.92 389.36 13.08 389.36 13.24C389.48 14.12 389.48 15.12 389.52 16.08C389.52 16.68 389.56 17.2 389.56 17.8C389.52 18.12 389.56 18.4 389.56 18.68V20.92C389.56 21.2 389.56 21.52 389.64 21.8C389.64 21.84 390.44 21.84 390.48 21.84C390.68 21.88 390.84 21.92 391.04 21.88ZM367.88 19.44V33.96C367.92 34.4 368.2 34.88 368.8 35L372.52 35.04C373.16 35 373.84 34.96 374.36 34.64C374.92 34.32 374.88 33.4 374.84 32.64V32.2C374.88 30.8 374.84 30.28 374.84 28.92V19.28C374.84 19.28 374.8 17.52 374.68 16.64C374.56 15.6 373.76 15.52 373.44 15.52H373.4L370 15.44C368.72 15.44 368.2 15.8 367.96 16.56C367.84 17.08 367.88 18.76 367.88 19.44ZM413.672 16.96V14.72C413.712 14.24 413.832 12.44 414.032 12.04C414.152 11.76 414.352 11.4 414.592 11.12C414.872 10.76 415.512 10.6 416.112 10.48H416.192C416.712 10.36 417.032 10.4 417.512 10.52C417.752 10.6 417.992 10.72 418.152 10.84C418.432 11 418.912 11.36 419.112 11.76C419.392 12.24 419.552 12.8 419.592 13.44V14.76C419.672 17.36 419.392 19 420.712 21.44C421.552 22.96 422.352 23.84 423.152 25.44C423.312 25.72 423.512 26.04 423.672 26.36C424.232 27.44 424.552 29.04 423.272 29.8C422.672 30.16 421.152 30.8 420.192 29.6C418.592 27.92 417.872 26.72 416.312 24.52C415.392 25.72 414.472 27 413.472 28.2C412.952 28.88 412.552 29.48 411.752 29.84C410.992 30.24 410.352 30.28 409.752 30.08C409.552 30.04 409.392 29.96 409.232 29.84C408.752 29.52 408.352 29.08 407.912 28.52C406.792 27.16 405.632 25.32 405.192 24.48C404.272 25.68 403.312 26.96 402.352 28.16C401.672 29 401.272 29.8 399.832 30C398.792 30.16 397.912 30.08 397.312 29.4C396.032 27.96 397.592 26.32 398.472 25.04L400.952 21.16C401.912 19.24 402.552 18.96 402.552 16.88V13.48C402.552 12.96 402.672 12.4 402.872 12C402.992 11.72 403.232 11.36 403.472 11.08C403.752 10.72 404.392 10.56 404.992 10.44H405.072C405.592 10.32 405.912 10.36 406.352 10.48C406.632 10.56 406.832 10.68 407.032 10.8C407.312 10.96 407.792 11.32 407.992 11.72C408.272 12.2 408.392 12.76 408.472 13.4V16.32C408.472 18.4 408.152 19.36 409.232 21C409.672 21.88 410.152 22.8 410.632 23.76C411.192 23.04 411.672 22.4 412.192 21.4C413.152 19.48 413.672 18.24 413.672 16.96ZM398.912 39C397.232 38.84 395.472 38.48 395.472 36.4C395.472 35.84 395.672 35.36 395.992 35C396.832 34.16 398.792 34.2 398.872 34.2L421.152 34.24C422.512 34.24 423.712 34.08 424.592 34.84C425.112 35.32 425.432 35.92 425.432 36.56C425.432 37.36 424.912 38.08 424.112 38.36C423.032 38.76 421.872 38.92 420.752 38.96C416.872 39.12 412.632 39 409.072 39C405.232 39 401.312 39.12 398.912 39ZM433.914 28.2C432.874 28.44 433.194 29.6 433.194 30.32C433.194 30.96 433.194 32.52 433.274 33.24C433.274 33.56 433.194 34.28 433.434 34.52C433.434 34.6 433.594 34.68 433.674 34.68C434.874 34.68 436.554 34.68 437.754 34.6C439.634 34.6 441.794 34.52 443.634 34.68C444.354 34.76 444.754 35.08 444.994 35.48C445.314 35.88 445.394 36.44 445.394 37C445.474 37.64 445.234 38.24 444.994 38.56C444.754 38.88 444.354 39.12 443.954 39.36C442.914 39.84 441.874 39.68 440.754 39.76C439.794 39.76 438.434 39.84 437.434 39.76C436.634 39.68 435.514 39.76 434.794 39.76C434.074 39.68 433.354 39.76 432.634 39.76C431.354 39.68 429.994 39.6 428.954 38.88C428.514 38.64 428.274 38.24 428.114 37.8C427.794 37.16 427.634 36.28 427.714 35.56C427.794 33.16 427.634 29.84 427.634 27.32C427.634 26.36 427.474 25.16 427.954 24.36C428.874 22.84 430.394 23.16 431.834 23.16H435.514C436.154 23.16 437.914 23.16 438.594 23C438.834 22.92 438.994 22.76 439.074 22.52C439.314 21.16 439.314 19.32 439.234 17.96C439.234 17.4 439.314 16.28 438.994 15.8C438.834 15.56 438.434 15.4 437.754 15.4L430.314 15.48C429.594 15.48 428.514 15.32 428.034 14.76C427.874 14.52 427.714 14.28 427.554 13.88C427.154 12.44 427.874 11.12 429.354 10.8C430.634 10.56 431.914 10.72 433.194 10.64H439.234C440.274 10.64 441.474 10.56 442.514 10.88C443.074 11.04 443.554 11.44 443.954 12.08C444.034 12.32 444.114 12.52 444.194 12.84C444.274 13.08 444.354 13.32 444.354 13.56C444.434 14.44 444.434 15.88 444.434 16.68C444.434 18.36 444.514 20.4 444.514 22.12C444.514 23.88 444.594 25.64 444.114 26.84C443.874 27.32 443.474 27.72 442.994 27.88C442.114 28.28 440.914 28.12 440.034 28.12C438.834 28.12 436.714 28.2 435.754 28.2C434.874 28.2 434.794 28.04 433.914 28.2ZM455.714 37.96C455.634 38.6 455.594 39.2 455.394 39.84C455.314 40.04 455.234 40.2 455.154 40.4C454.994 40.72 454.754 41.04 454.434 41.28C453.834 41.64 453.074 41.72 452.394 41.56C451.994 41.48 451.634 41.32 451.354 41.08C450.394 40.2 450.434 38.12 450.434 38.04V14.48C450.394 13.24 450.434 11.24 451.194 10.52C451.754 9.96 452.434 9.88 453.154 9.88C454.074 9.88 454.914 10.44 455.234 11.32C455.714 12.44 455.674 13.68 455.714 14.92V15.12C455.834 19.2 455.714 22.56 455.714 26.4V36.52C455.714 37 455.754 37.48 455.714 37.96Z" fill="#48724B"/>
<g clip-path="url(#clip0_1582_190107)">
<path d="M468.992 17.8C466.844 18.7579 467.169 21.2524 466.617 22.0307C466.065 22.809 463.611 23.5973 463.385 26.2415C463.148 28.8857 464.942 28.756 465.73 29.9035C466.509 31.051 465.996 33.8648 469.377 34.4236C472.757 34.9824 472.866 32.1785 474.216 31.8792C475.566 31.5898 478.739 31.6497 480.484 29.5144C482.189 27.4189 480.671 24.9543 480.385 24.0762C480.099 23.1882 480.622 20.8633 479.143 19.6958C477.665 18.5384 476.207 19.7058 474.975 19.0672C473.743 18.4286 471.161 16.8421 469.012 17.8" fill="#D1E8CF"/>
<path d="M470.204 34.8633C469.928 34.8633 469.633 34.8433 469.307 34.7834C466.637 34.3344 466.173 32.5583 465.838 31.2611C465.72 30.8121 465.612 30.3831 465.424 30.1136C465.217 29.8043 464.892 29.5848 464.557 29.3653C463.798 28.8564 462.842 28.2178 463.02 26.2122C463.207 24.1367 464.636 23.109 465.592 22.4205C465.917 22.181 466.203 21.9814 466.331 21.8118C466.459 21.6322 466.538 21.243 466.637 20.8339C466.873 19.7264 467.208 18.1997 468.854 17.4613C470.963 16.5234 473.348 17.7906 474.767 18.5489L475.132 18.7385C475.566 18.968 476.068 18.9082 476.64 18.8483C477.468 18.7585 478.404 18.6487 479.36 19.3971C480.533 20.3151 480.582 21.8417 480.621 22.9493C480.631 23.3584 480.651 23.7376 480.72 23.9471C480.759 24.0768 480.828 24.2465 480.917 24.4361C481.42 25.6135 482.346 27.7987 480.759 29.7345C479.271 31.5505 476.857 31.8698 475.26 32.0793C474.886 32.1292 474.55 32.1691 474.294 32.229C473.949 32.3088 473.683 32.6481 473.348 33.0871C472.757 33.8455 471.978 34.8533 470.224 34.8533L470.204 34.8633ZM469.14 18.1398C467.819 18.7285 467.553 19.9858 467.336 20.9936C467.228 21.5025 467.129 21.9415 466.912 22.2508C466.725 22.5103 466.39 22.7497 466.016 23.0291C465.129 23.6677 463.907 24.5458 463.749 26.282C463.611 27.8586 464.242 28.2777 464.961 28.7566C465.345 29.0061 465.74 29.2755 466.025 29.7045C466.282 30.0737 466.41 30.5627 466.538 31.0815C466.873 32.3687 467.228 33.7058 469.426 34.075C471.407 34.4043 472.096 33.5162 472.757 32.6581C473.151 32.1492 473.525 31.6702 474.127 31.5405C474.403 31.4807 474.757 31.4308 475.161 31.3809C476.65 31.1913 478.887 30.8919 480.198 29.2954C481.499 27.6989 480.72 25.853 480.247 24.7554C480.158 24.5358 480.079 24.3463 480.03 24.2066C479.932 23.8972 479.912 23.4782 479.902 22.9992C479.863 21.9814 479.823 20.7142 478.916 20.0058C478.197 19.437 477.478 19.5168 476.719 19.6066C476.088 19.6765 475.428 19.7463 474.797 19.427L474.422 19.2275C473.121 18.529 470.933 17.3615 469.14 18.1598V18.1398Z" fill="#7DA37E"/>
<path d="M471.821 26.6002C472.176 26.5104 472.541 26.7299 472.619 27.0792C472.708 27.4384 472.491 27.7976 472.137 27.8874C471.782 27.9772 471.417 27.7577 471.328 27.4085C471.24 27.0492 471.457 26.69 471.821 26.6002Z" fill="#C8A374"/>
<path d="M470.569 25.4733C470.924 25.3835 471.289 25.603 471.368 25.9522C471.456 26.3114 471.239 26.6706 470.885 26.7604C470.53 26.8503 470.165 26.6307 470.076 26.2815C469.988 25.9223 470.205 25.5631 470.569 25.4733Z" fill="#C8A374"/>
<path d="M473.743 26.2506C474.098 26.1608 474.463 26.3803 474.541 26.7296C474.63 27.0888 474.413 27.448 474.058 27.5378C473.704 27.6276 473.339 27.4081 473.25 27.0588C473.162 26.6996 473.378 26.3404 473.743 26.2506Z" fill="#C8A374"/>
<path d="M474.313 24.7155C474.668 24.6257 475.033 24.8452 475.112 25.1944C475.2 25.5536 474.984 25.9128 474.629 26.0026C474.274 26.0924 473.909 25.8729 473.821 25.5237C473.732 25.1645 473.949 24.8053 474.313 24.7155Z" fill="#C8A374"/>
<path d="M472.452 24.694C472.807 24.6042 473.171 24.8237 473.25 25.1729C473.339 25.5321 473.122 25.8914 472.767 25.9812C472.413 26.071 472.048 25.8514 471.959 25.5022C471.871 25.143 472.087 24.7838 472.452 24.694Z" fill="#C8A374"/>
<path d="M473.653 23.0182C474.008 22.9284 474.373 23.1479 474.452 23.4971C474.54 23.8564 474.323 24.2156 473.969 24.3054C473.614 24.3952 473.249 24.1757 473.16 23.8264C473.072 23.4672 473.289 23.108 473.653 23.0182Z" fill="#C8A374"/>
<path d="M471.929 22.7194C472.283 22.6296 472.648 22.8491 472.727 23.1983C472.816 23.5575 472.599 23.9167 472.244 24.0065C471.889 24.0963 471.525 23.8768 471.436 23.5276C471.347 23.1684 471.564 22.8092 471.929 22.7194Z" fill="#C8A374"/>
<path d="M470.708 23.8463C471.063 23.7565 471.427 23.976 471.506 24.3253C471.595 24.6845 471.378 25.0437 471.023 25.1335C470.668 25.2233 470.304 25.0038 470.215 24.6545C470.126 24.2953 470.343 23.9361 470.708 23.8463Z" fill="#C8A374"/>
<path d="M484.21 21.83C482.643 21.7202 480.967 22.5584 480.189 23.6061C479.41 24.6538 479.41 26.4599 478.819 26.9688C478.346 27.3679 477.222 27.5375 476.227 28.0963C475.084 28.7449 474.206 29.9422 473.96 31.6585C473.704 33.4745 474.778 34.8016 476.01 35.53C476.956 36.0888 477.745 36.0289 478.572 36.5179C479.39 37.0068 479.794 37.6454 480.504 38.4237C481.164 39.1521 482.239 40.0002 484.003 40.11C485.777 40.2098 486.989 39.5812 487.521 38.723C487.984 37.9747 488.339 37.1365 488.802 36.6176C489.236 36.1187 490.261 35.979 491.099 35.3604C492.153 34.5821 492.794 33.1452 492.616 31.2494C492.528 30.3514 491.946 29.3136 491.197 28.665C490.369 27.9566 488.95 27.5674 488.645 27.1683C488.329 26.7692 488.832 25.4321 487.965 24.1948C487.097 22.9575 485.678 21.9298 484.22 21.83" fill="#E9F4E5"/>
<path d="M484.367 40.5009C484.239 40.5009 484.111 40.5009 483.983 40.4909C482.485 40.4011 481.253 39.8124 480.238 38.6949C480.051 38.4853 479.883 38.2957 479.726 38.1062C479.292 37.5873 478.947 37.1882 478.385 36.8489C478.03 36.6394 477.666 36.5396 477.281 36.4298C476.848 36.3101 476.355 36.1704 475.823 35.8611C474.187 34.8932 473.359 33.3067 473.605 31.6203C473.852 29.9041 474.719 28.5471 476.049 27.7887C476.562 27.4994 477.094 27.3098 477.567 27.1501C477.991 27.0005 478.395 26.8608 478.582 26.7011C478.789 26.5315 478.927 25.9827 479.075 25.4439C479.252 24.7554 479.459 23.987 479.903 23.3884C480.81 22.171 482.623 21.3528 484.239 21.4725C485.708 21.5723 487.255 22.5402 488.26 23.997C488.862 24.8651 488.871 25.7831 488.881 26.3918C488.881 26.6013 488.881 26.8907 488.931 26.9605C489.019 27.0803 489.453 27.2798 489.798 27.4395C490.34 27.6989 490.961 27.9883 491.444 28.3974C492.272 29.1058 492.892 30.2434 492.981 31.2212C493.168 33.137 492.557 34.7535 491.316 35.6715C490.882 35.9908 490.409 36.1903 489.995 36.37C489.591 36.5396 489.246 36.6893 489.078 36.8788C488.812 37.1882 488.566 37.6272 488.31 38.1062C488.162 38.3855 488.004 38.6649 487.837 38.9443C487.226 39.9421 485.944 40.5109 484.377 40.5109L484.367 40.5009ZM483.944 22.191C482.653 22.191 481.194 22.8695 480.484 23.8274C480.13 24.3063 479.942 25.0048 479.775 25.6235C479.588 26.3219 479.43 26.9206 479.055 27.2499C478.76 27.4994 478.316 27.649 477.804 27.8286C477.36 27.9883 476.858 28.1579 476.404 28.4174C475.271 29.056 474.532 30.2234 474.325 31.7102C474.039 33.6958 475.537 34.8233 476.197 35.2125C476.641 35.4819 477.045 35.5917 477.478 35.7114C477.892 35.8212 478.316 35.9409 478.76 36.2003C479.42 36.5995 479.824 37.0684 480.277 37.6072C480.425 37.7869 480.593 37.9764 480.77 38.176C481.657 39.1539 482.722 39.6628 484.023 39.7426C485.491 39.8224 486.693 39.3734 487.216 38.5252C487.373 38.2658 487.531 37.9864 487.669 37.727C487.945 37.2181 488.211 36.7391 488.536 36.37C488.822 36.0507 489.256 35.8611 489.719 35.6715C490.113 35.5019 490.527 35.3322 490.892 35.0628C491.917 34.3045 492.419 32.9275 492.262 31.2811C492.183 30.4928 491.651 29.5349 490.971 28.9462C490.567 28.597 489.995 28.3275 489.492 28.0981C488.97 27.8586 488.566 27.659 488.359 27.3996C488.162 27.1501 488.162 26.8109 488.152 26.3818C488.152 25.8031 488.142 25.0846 487.669 24.4061C486.802 23.1489 485.432 22.2808 484.19 22.191C484.111 22.191 484.032 22.191 483.944 22.191Z" fill="#7DA37E"/>
<path d="M483.047 29.7836C482.948 30.1229 482.594 30.3124 482.268 30.2127C481.943 30.1129 481.756 29.7537 481.854 29.4244C481.953 29.0851 482.298 28.8955 482.633 28.9953C482.958 29.0951 483.145 29.4543 483.047 29.7836Z" fill="#C8A374"/>
<path d="M484.555 29.3051C484.456 29.6443 484.101 29.8339 483.776 29.7341C483.451 29.6344 483.264 29.2751 483.362 28.9459C483.461 28.6066 483.806 28.417 484.141 28.5168C484.466 28.6166 484.653 28.9758 484.555 29.3051Z" fill="#C8A374"/>
<path d="M482.395 31.5395C482.296 31.8787 481.941 32.0683 481.616 31.9685C481.291 31.8687 481.104 31.5095 481.202 31.1802C481.301 30.841 481.646 30.6514 481.981 30.7512C482.306 30.851 482.493 31.2102 482.395 31.5395Z" fill="#C8A374"/>
<path d="M483.352 32.7563C483.253 33.0955 482.898 33.2851 482.573 33.1853C482.248 33.0855 482.061 32.7263 482.159 32.397C482.258 32.0578 482.603 31.8682 482.938 31.968C483.263 32.0678 483.45 32.427 483.352 32.7563Z" fill="#C8A374"/>
<path d="M484.268 31.2309C484.169 31.5701 483.814 31.7597 483.489 31.6599C483.164 31.5601 482.977 31.2009 483.075 30.8716C483.174 30.5324 483.519 30.3428 483.854 30.4426C484.179 30.5424 484.366 30.9016 484.268 31.2309Z" fill="#C8A374"/>
<path d="M485.037 33.0258C484.939 33.365 484.584 33.5546 484.259 33.4548C483.933 33.3551 483.746 32.9958 483.845 32.6666C483.943 32.3273 484.288 32.1377 484.623 32.2375C484.948 32.3373 485.136 32.6965 485.037 33.0258Z" fill="#C8A374"/>
<path d="M486.111 31.7582C486.013 32.0975 485.658 32.287 485.333 32.1873C485.008 32.0875 484.82 31.7283 484.919 31.399C485.017 31.0597 485.362 30.8701 485.697 30.9699C486.023 31.0697 486.21 31.4289 486.111 31.7582Z" fill="#C8A374"/>
<path d="M485.795 30.2133C485.696 30.5525 485.342 30.7421 485.016 30.6423C484.691 30.5426 484.504 30.1833 484.602 29.8541C484.701 29.5148 485.046 29.3252 485.381 29.425C485.706 29.5248 485.894 29.884 485.795 30.2133Z" fill="#C8A374"/>
<path d="M485.903 9.26849C484.593 8.62989 482.868 8.7596 481.833 9.37825C480.798 10.0069 480.187 11.5635 479.497 11.793C478.955 11.9726 477.92 11.7231 476.876 11.8528C475.664 12.0025 474.501 12.7309 473.702 14.1179C472.855 15.5847 473.328 17.1014 474.136 18.169C474.757 18.9872 475.457 19.2068 475.999 19.9152C476.541 20.6237 476.659 21.3121 477.004 22.2401C477.319 23.0982 477.95 24.2058 479.438 24.9242C480.926 25.6327 482.198 25.5229 482.947 24.9642C483.597 24.4852 484.198 23.8865 484.77 23.5971C485.312 23.3277 486.238 23.5572 487.175 23.3277C488.347 23.0284 489.392 22.0206 489.885 20.3243C490.121 19.5161 489.974 18.4185 489.55 17.6102C489.077 16.7022 487.993 15.884 487.865 15.425C487.736 14.966 488.623 13.9981 488.308 12.6212C487.993 11.2442 487.116 9.86718 485.893 9.26849" fill="#E9F4E5"/>
<path d="M481.429 25.7514C480.769 25.7514 480.04 25.5718 479.301 25.2225C478.039 24.6139 477.192 23.6759 476.699 22.3588C476.61 22.1193 476.531 21.8898 476.462 21.6703C476.265 21.0716 476.107 20.6026 475.743 20.1237C475.506 19.8144 475.23 19.6048 474.935 19.3753C474.6 19.1159 474.225 18.8265 473.88 18.3675C472.806 16.9606 472.638 15.3042 473.427 13.9372C474.225 12.5502 475.447 11.6821 476.847 11.5025C477.389 11.4327 477.911 11.4626 478.374 11.4826C478.798 11.5025 479.192 11.5225 479.409 11.4526C479.646 11.3728 479.961 10.9537 480.257 10.5446C480.651 10.0158 481.094 9.42708 481.676 9.06787C482.878 8.33946 484.721 8.27959 486.061 8.93815C487.293 9.54682 488.289 10.9138 488.653 12.5203C488.87 13.4782 488.565 14.2665 488.368 14.7953C488.299 14.9749 488.2 15.2344 488.21 15.3042C488.249 15.4339 488.545 15.7632 488.791 16.0227C489.176 16.4318 489.609 16.9007 489.876 17.4296C490.339 18.3276 490.487 19.525 490.23 20.4031C489.728 22.1093 488.653 23.2967 487.274 23.646C486.791 23.7657 486.318 23.7757 485.894 23.7757C485.49 23.7757 485.145 23.7757 484.928 23.8954C484.593 24.0651 484.228 24.3644 483.844 24.6837C483.617 24.8733 483.391 25.0629 483.154 25.2325C482.681 25.5817 482.1 25.7514 481.439 25.7514H481.429ZM477.596 12.1411C477.379 12.1411 477.152 12.1411 476.925 12.1811C475.733 12.3307 474.688 13.0791 473.998 14.2865C473.072 15.8929 473.979 17.3897 474.402 17.9584C474.698 18.3476 475.004 18.587 475.329 18.8365C475.644 19.076 475.969 19.3354 476.255 19.7046C476.689 20.2734 476.866 20.8222 477.083 21.4508C477.152 21.6603 477.221 21.8798 477.31 22.1193C477.743 23.2668 478.483 24.085 479.577 24.6139C480.818 25.2026 482.001 25.2325 482.74 24.6937C482.967 24.5241 483.194 24.3444 483.4 24.1648C483.814 23.8256 484.209 23.4963 484.613 23.2967C484.967 23.1171 485.401 23.1171 485.864 23.1072C486.259 23.1072 486.672 23.1072 487.086 22.9974C488.23 22.708 489.136 21.7002 489.56 20.2235C489.767 19.515 489.639 18.5072 489.255 17.7589C489.028 17.3198 488.624 16.8808 488.269 16.5016C487.904 16.1125 487.619 15.8031 487.54 15.5138C487.461 15.2344 487.569 14.935 487.717 14.5658C487.914 14.0669 488.151 13.4483 487.973 12.6899C487.658 11.303 486.781 10.0757 485.746 9.56678C484.455 8.93815 482.858 9.14769 482.001 9.66656C481.528 9.95592 481.134 10.4947 480.779 10.9637C480.385 11.5025 480.04 11.9615 479.596 12.1112C479.261 12.221 478.828 12.201 478.325 12.1711C478.088 12.1611 477.842 12.1511 477.586 12.1511L477.596 12.1411Z" fill="#7DA37E"/>
<path d="M482.179 15.7044C481.972 15.9638 481.607 16.0037 481.361 15.8042C481.114 15.6046 481.075 15.2354 481.282 14.976C481.489 14.7166 481.854 14.6766 482.1 14.8762C482.346 15.0758 482.386 15.445 482.179 15.7044Z" fill="#C8A374"/>
<path d="M483.638 15.8146C483.431 16.0741 483.066 16.114 482.82 15.9144C482.573 15.7148 482.534 15.3457 482.741 15.0862C482.948 14.8368 483.313 14.7869 483.559 14.9964C483.805 15.196 483.845 15.5652 483.638 15.8246" fill="#C8A374"/>
<path d="M481.017 16.972C480.81 17.2314 480.445 17.2713 480.199 17.0718C479.952 16.8722 479.913 16.503 480.12 16.2436C480.327 15.9841 480.691 15.9442 480.938 16.1438C481.184 16.3434 481.224 16.7125 481.017 16.972Z" fill="#C8A374"/>
<path d="M481.409 18.3587C481.202 18.6081 480.838 18.658 480.591 18.4585C480.345 18.2589 480.305 17.8897 480.512 17.6303C480.719 17.3709 481.084 17.3309 481.33 17.5305C481.577 17.7301 481.616 18.0993 481.409 18.3587Z" fill="#C8A374"/>
<path d="M482.731 17.3704C482.525 17.6298 482.16 17.6698 481.913 17.4702C481.667 17.2706 481.628 16.9014 481.835 16.642C482.042 16.3826 482.406 16.3427 482.653 16.5422C482.899 16.7418 482.938 17.111 482.731 17.3704Z" fill="#C8A374"/>
<path d="M482.771 19.1869C482.564 19.4463 482.199 19.4862 481.953 19.2867C481.706 19.0871 481.667 18.7179 481.874 18.4585C482.081 18.1991 482.445 18.1592 482.692 18.3687C482.938 18.5683 482.978 18.9374 482.771 19.1969" fill="#C8A374"/>
<path d="M484.13 18.4682C483.923 18.7276 483.558 18.7675 483.312 18.5679C483.066 18.3684 483.026 17.9992 483.233 17.7397C483.44 17.4803 483.805 17.4404 484.051 17.6499C484.297 17.8495 484.337 18.2187 484.13 18.4781" fill="#C8A374"/>
<path d="M484.396 17.0307C484.189 17.2901 483.824 17.33 483.578 17.1304C483.331 16.9309 483.292 16.5617 483.499 16.3022C483.706 16.0428 484.07 16.0029 484.317 16.2124C484.563 16.412 484.603 16.7812 484.396 17.0406" fill="#C8A374"/>
</g>
<defs>
<clipPath id="clip0_1582_190107">
<rect width="30" height="32" fill="white" transform="translate(463 8.5)"/>
</clipPath>
</defs>
</svg>
