<svg width="764" height="49" viewBox="0 0 764 49" fill="none" xmlns="http://www.w3.org/2000/svg">
<rect width="351" height="49" rx="8" fill="#E4F2E6"/>
<path d="M13.5347 19.3784C14.3019 19 15.4038 18.3832 16.1943 17.9904C16.474 17.8177 16.7686 17.6676 17.0865 17.5031C15.806 17.8494 14.4789 18.2244 13.2134 18.5932C11.8332 18.9375 11.4911 16.9278 12.9203 16.807C14.0718 16.7624 15.2615 16.726 16.4364 16.667C15.2888 16.5188 14.1031 16.3624 12.9471 16.2511C11.5323 16.0457 12.0491 14.0451 13.4049 14.509C14.5465 14.9465 15.7114 15.3695 16.8763 15.7926C16.664 15.6698 16.4751 15.5327 16.2628 15.4099C15.5051 14.9575 14.4523 14.3066 13.6861 13.8912C12.4975 13.1338 13.8037 11.5342 14.8506 12.4743C15.7001 13.3142 16.6026 14.1848 17.5051 15.0554C16.8357 14.0409 16.1047 13.0327 15.4035 12.0695C14.6448 10.9198 16.5204 9.98404 17.0545 11.2407C17.3525 12.0403 17.774 13.1762 18.0953 13.9614C18.1612 14.111 18.2272 14.2607 18.2698 14.4247C18.0626 13.3153 17.8405 12.1833 17.6099 11.0882C17.4002 9.7265 19.5123 9.59658 19.4611 10.9607C19.3902 11.7977 19.3346 13.0059 19.2785 13.8655C19.2641 14.1916 19.2498 14.5178 19.2354 14.844C19.3261 14.5341 19.4169 14.2243 19.531 13.9C19.778 13.0813 20.1008 11.9301 20.3329 11.0888C20.751 9.78369 22.699 10.5483 22.0602 11.7676C21.1779 13.2641 20.3021 14.82 19.4495 16.3616C21.4599 17.8174 23.2903 19.4478 24.9193 21.1708C24.4492 20.1601 23.9875 19.1125 23.509 18.1388C22.9601 16.8596 24.9824 16.2457 25.2918 17.6094C25.4842 18.6963 25.7063 19.8282 25.9518 20.9458C25.9473 20.79 25.9513 20.5971 25.9468 20.4412C25.9414 19.5879 25.9355 18.3859 25.8919 17.5245C25.9048 16.1522 28.0174 16.371 27.7521 17.7087C27.4505 18.9419 27.1554 20.2346 26.8836 21.5128C27.4673 20.3593 28.0446 19.1463 28.5901 17.9846C29.2289 16.7653 31.0246 17.846 30.1736 18.9425C29.0027 20.2999 27.8298 21.7536 26.7119 23.1417C28.4262 25.1928 29.8713 27.2831 31.0723 29.302C31.0529 29.1236 31.0103 28.9596 30.991 28.7811C30.8392 27.9547 30.634 26.7488 30.4823 25.9224C30.2725 24.5606 32.3995 24.4533 32.3633 25.8399C32.2715 26.9436 32.1713 28.0842 32.1092 29.233C32.4004 28.1332 32.6766 27.0108 32.9445 25.9253C33.3244 24.6121 35.304 25.3254 34.6801 26.5672C34.2507 27.3082 33.6838 28.3879 33.2925 29.1371L32.8293 30.0259C33.0495 29.763 33.2845 29.5227 33.4814 29.2743C34.0552 28.6028 34.8641 27.691 35.4146 27.0339C36.3484 26.0132 37.8138 27.4882 36.6761 28.3491C35.2057 29.352 33.7333 30.4514 32.3075 31.5219C33.7406 34.1907 34.6728 36.5977 35.1905 38.2769C35.2545 38.523 35.1573 38.7734 34.9708 38.8885C34.9242 38.9173 34.8776 38.946 34.831 38.9748C34.5299 39.0655 34.2264 38.9038 34.1327 38.6127C33.6448 36.9785 32.7488 34.6761 31.3603 32.0749C29.6008 32.59 27.7713 33.1482 26.0416 33.7084C24.6763 34.0753 24.2727 32.0718 25.6871 31.9284C27.0082 31.8426 28.3526 31.7424 29.697 31.6422C28.3586 31.4532 27.0052 31.2416 25.7198 31.0833C24.3134 30.841 24.8833 28.8711 26.2158 29.3494C27.281 29.7705 28.3844 30.1998 29.4878 30.6292C28.5029 30.0315 27.4799 29.4257 26.4866 28.8649C25.2979 28.1075 26.6042 26.5079 27.651 27.4481C28.2521 28.0606 29.1397 28.9086 29.7641 29.5068C29.8766 29.6277 29.9976 29.7116 30.1102 29.8325C28.9687 27.9038 27.545 25.8954 25.9284 23.9427C25.2291 24.3744 24.5299 24.806 23.839 25.2008C23.0932 25.6612 22.0443 26.3087 21.2984 26.7691C20.0948 27.4804 19.1358 25.6294 20.4882 25.1436C21.7389 24.7522 23.0213 24.3095 24.3038 23.8669C22.9509 24.004 21.598 24.1411 20.2983 24.309C18.869 24.4298 18.8959 22.3826 20.3127 22.4916C21.1845 22.6197 22.4169 22.7473 23.2887 22.8754C23.4647 22.8936 23.6408 22.9119 23.8168 22.9301C22.6966 22.5746 21.5679 22.2561 20.4541 21.9601C19.1131 21.5188 19.9419 19.6429 21.194 20.2977C21.9369 20.7275 23.0363 21.3496 23.7792 21.7794C23.9383 21.8715 24.1208 21.9492 24.2949 22.0639C22.6808 20.3634 20.8886 18.7412 18.9164 17.2935C17.5268 18.4686 16.0822 19.7094 14.7456 20.9152C13.661 21.8069 12.4372 20.1511 13.6557 19.4623" fill="#F3C574"/>
<path d="M37.2467 18.5741C38.4513 18.5602 39.6325 18.5607 40.852 18.5694C39.6618 18.2571 38.4632 17.9818 37.2943 17.7515C36.0109 17.4968 36.5575 15.5412 37.7585 16.0689C38.6859 16.48 39.6514 16.8992 40.5852 17.3698C39.7466 16.7453 38.8848 16.1351 38.0145 15.5619C36.8873 14.7983 38.0939 13.1967 39.0708 14.1801C39.8588 15.0262 40.6701 15.8579 41.4347 16.7185C40.8417 15.7203 40.2337 14.6996 39.5707 13.7446C38.7971 12.5723 40.5581 11.6121 41.1135 12.9508C41.5583 14.0722 41.9649 15.1855 42.3715 16.2988C42.196 15.138 42.0056 13.9547 41.7537 12.7777C41.4761 11.3627 43.5247 11.3354 43.5182 12.7672C43.4879 13.8646 43.4576 14.962 43.3891 16.0513C43.6485 15.0028 43.8846 13.9687 44.0677 12.9039C44.3648 11.5148 46.3171 12.4353 45.7845 13.716C45.2474 14.8408 44.7251 15.9881 44.135 17.0821C44.9438 16.1703 45.7294 15.2729 46.4936 14.2935C47.3511 13.2565 48.8085 15.1172 47.7492 15.898C46.3105 16.8496 44.8867 17.8237 43.4481 18.7753C44.4056 21.0714 45.3423 23.6342 46.0945 26.2157C46.1183 25.0588 46.104 23.8937 46.0515 22.7205C46.0198 21.2806 48.0242 21.5344 47.81 22.9992C47.6036 24.0784 47.4122 25.1802 47.1676 26.2513C47.5947 25.2579 47.9835 24.2564 48.3426 23.2098C48.8455 21.8841 50.654 23.0838 49.9007 24.2785C49.1811 25.3256 48.4997 26.3808 47.7503 27.3828C48.6866 26.6144 49.608 25.8235 50.523 24.9731C50.8831 24.6239 51.4643 24.7093 51.7851 25.1458C52.1655 25.6725 52.0182 26.4932 51.5222 26.7359C49.9581 27.4476 48.4004 28.2188 46.8511 28.9531C46.8045 28.9819 47.7927 33.5118 47.9038 34.0778C47.9509 34.3977 48.0744 34.7339 48.0367 35.0745C48.0009 35.3186 47.8804 35.5834 47.573 35.6146C47.1425 35.6582 46.9531 35.1723 46.9293 34.838C46.7344 33.4988 45.895 29.1944 45.8335 29.2006C44.0988 29.2562 42.3706 29.3712 40.6339 29.5232C39.3212 29.5721 39.3694 27.607 40.6548 27.7653C41.832 27.9586 43.0178 28.115 44.2184 28.294C43.1085 27.8052 41.9521 27.3452 40.8403 26.9528C39.6223 26.499 40.4659 24.6456 41.5867 25.3498C42.4421 25.9005 43.3124 26.4737 44.1743 27.0838C43.4458 26.3279 42.694 25.5863 41.9254 24.9186C40.94 23.9722 42.3802 22.5755 43.2004 23.719C43.8252 24.6659 44.5115 25.6065 45.1279 26.5903C44.3757 24.0088 43.4539 21.4685 42.4964 19.1724C40.8023 19.4884 39.0999 19.8414 37.4271 20.2395C36.1487 20.4893 35.8661 18.5697 37.1787 18.5209" fill="#F3C574"/>
<path d="M63.04 21.28C62.96 21.28 62.92 21.24 62.92 21.2C62.4 20.8 62.24 19.8 62.24 19.2C62.2 18.24 62.08 17.28 62.08 16.36C62.08 15 62.04 13.36 62.28 12.04C62.44 11.2 62.76 10.72 63.56 10.4C64.28 10.12 65.04 10.04 65.8 9.96C66.72 9.88 67.68 9.96 68.64 9.96H76.24C78.96 9.96 78.6 9.96 81.28 9.92C81.76 9.92 82.2 9.92 82.68 9.96C83.68 10 84.8 10.04 85.72 10.48C86.76 10.92 87.08 12.04 87.12 13.08C87.2 14.28 87.08 15.8 87.08 17C87.04 18.08 87.08 19.16 86.8 20.2C86.64 20.8 86.52 21.28 85.88 21.48C85.32 21.68 84.6 21.72 84.04 21.72H66.76C66.24 21.72 65.72 21.68 65.2 21.64C64.52 21.6 63.64 21.68 63.04 21.28ZM85.24 28.92C82.6 29 80.52 29.08 77.84 29.08C77.8 30.2 77.72 31.24 77.72 32.76C77.48 33.88 76 34.56 74.92 34.52C73.32 34.44 72.44 33.8 72.28 32.2C72.16 31.16 72.32 30.04 72.32 29C69.88 29 63.48 28.92 61.24 28.76C60.4 28.68 60 28.64 59.32 28C58.96 27.68 58.8 27.08 58.8 26.52C58.8 26 59 25.48 59.32 25.16C60.12 24.32 62.08 24.36 62.16 24.36H85.04C85.84 24.36 86.64 24.36 87.4 24.4C88.12 24.44 88.92 24.56 89.48 25.08C90.04 25.52 90.04 26.04 90.04 26.68C90.04 27.48 89.56 28.16 88.76 28.44C87.68 28.84 86.36 28.88 85.24 28.92ZM86.36 36.48C86.44 36.52 87.92 36.88 88.08 38C88.24 39 88.08 39.8 87.6 40.36C87 41.12 86.12 41.16 86.08 41.16H64.24C62.2 41.16 60.96 40.44 60.96 39.24V35.68C60.92 35.08 60.92 34.48 60.96 33.88C61.04 32.76 61.88 32 63 32C63.28 32 63.84 32.04 64.08 32.12C65.44 32.56 65.52 33.92 65.6 35.12C65.6 35.56 65.64 36.04 65.76 36.4C65.88 36.44 66.68 36.56 68.56 36.56C70.16 36.56 71.64 36.48 71.68 36.48H86.36ZM66.84 16.6C66.84 16.84 66.84 17.12 66.96 17.24C67.2 17.44 68.12 17.32 68.12 17.32H78.64C78.64 17.32 80.56 17.48 81.52 17.36C82.08 17.32 82.08 17.08 82.16 16.6C82.2 16.16 82.28 15.24 81.96 14.84C81.6 14.4 80.76 14.48 80.28 14.52H76.64C76.28 14.48 71.44 14.52 71.08 14.52C69.96 14.44 68.84 14.48 67.68 14.52C67.2 14.52 67.04 14.44 66.92 14.92C66.84 15.28 66.84 15.92 66.84 16.24V16.6ZM95.2516 33.72C95.4516 33.64 99.1316 33.8 99.8116 33.8C99.8516 33.16 99.9316 30.52 100.012 29.2C99.5316 29.08 99.0916 28.96 98.6516 28.76C95.6516 27.52 93.3316 25.08 93.3316 21.56C93.3316 19.64 93.8916 18.16 94.8116 17H94.3716C93.0916 17 92.0116 16.04 92.0116 14.88C92.0116 13.68 93.0916 12.72 94.3716 12.72H99.6516V11.08C99.6516 10.04 100.692 9.28 101.972 9.28C103.292 9.28 104.332 10.04 104.332 11.08V12.72H109.852C111.172 12.72 112.252 13.68 112.252 14.88C112.252 16.04 111.172 17 109.852 17H109.732C110.652 18.16 111.252 19.64 111.252 21.56C111.252 24.04 110.052 26.08 108.052 27.6C107.052 28.32 105.932 28.84 104.772 29.16C104.852 30.4 104.852 33.16 104.852 33.76V33.8H110.172C111.052 33.8 111.772 33.96 112.292 34.28C113.492 35 113.452 36.96 112.932 37.92C112.452 38.76 111.412 38.84 110.572 38.84H94.7716C94.7316 38.84 93.3716 38.72 92.6516 38.4C92.1316 38.12 91.7316 37.52 91.6116 36.76C91.4916 35.92 91.7716 35.12 92.2916 34.64C93.2516 33.84 94.3316 33.72 95.2516 33.72ZM121.772 22.96H121.852C122.132 22.92 122.372 23 122.612 23C122.932 23.04 123.212 23.08 123.532 23.12C124.132 23.24 124.772 23.48 125.092 24.08C125.252 24.4 125.332 24.76 125.332 25.16C125.332 25.52 125.332 25.92 125.252 26.28C125.132 26.68 125.012 27.24 124.692 27.52C124.372 27.76 123.972 27.96 123.572 28.04C122.732 28.16 121.292 28.04 120.452 28.08C120.372 28.12 120.332 28.12 120.332 28.12C120.332 28.12 120.332 28.16 120.292 28.28C120.252 29.6 120.292 30.76 120.292 32.12C120.332 33.48 120.332 34.88 120.292 36.2V36.76C120.292 38.16 120.332 40.2 119.372 41.2C119.012 41.52 118.572 41.72 118.052 41.72H117.972C115.372 41.6 115.132 38.48 115.132 36.8V13.04C115.132 12.96 115.052 10.96 115.932 10.08C116.332 9.72 117.172 9.52 117.732 9.52C118.332 9.52 118.892 9.76 119.252 10.12C119.932 10.88 120.012 11.72 120.052 12.6C120.092 12.76 120.092 12.92 120.132 13.12C120.212 13.96 120.212 14.96 120.252 15.92C120.252 16.52 120.292 17.08 120.292 17.64V21.96C120.292 22.24 120.292 22.56 120.372 22.84C120.372 22.88 121.172 22.88 121.252 22.92C121.412 22.92 121.612 22.96 121.772 22.96ZM103.052 24.76C104.772 24.44 106.252 23.6 106.252 21.56C106.252 19.2 104.292 18.32 102.332 18.28C100.332 18.2 98.3316 19.04 98.3316 21.56C98.3316 24.44 100.852 25.2 103.052 24.76ZM162.553 38.44C163.393 38.52 164.113 38.8 164.353 39.64C164.673 40.6 164.313 41.28 163.313 41.68C162.673 41.92 161.993 41.96 161.433 41.96H142.833C141.753 41.96 140.593 41.92 139.433 41.88C138.313 41.84 137.513 41 137.393 39.8L137.273 37C137.233 36.44 137.193 35.48 137.673 34.96C138.393 34.16 139.833 34.04 140.993 34.04C142.513 34.04 147.593 34.08 159.793 34.08V32.64H140.113C139.593 32.64 139.153 32.64 138.753 32.56C138.273 32.44 137.873 32.44 137.633 32C137.273 31.44 137.153 30.92 137.353 30.28C137.633 29.44 138.833 29.32 139.433 29.24C139.833 29.16 140.233 29.12 140.673 29.12C143.073 29.12 145.873 29.16 160.193 29.16C162.873 29.16 164.393 29.96 164.393 31.8V34.64C164.393 35.36 164.073 36.16 163.233 36.64C162.553 37.04 161.833 37 161.153 37H142.193V38.44H162.553ZM137.633 15.2C137.553 13.88 137.353 12.48 137.793 11.32C138.393 9.88 139.913 9.64 141.233 9.64H159.873C160.953 9.64 161.873 9.68 162.913 10.08C163.753 10.44 164.273 11.28 164.233 12.2C164.153 13.12 163.593 13.84 162.713 14.04C162.233 14.16 161.513 14.24 160.553 14.24C159.873 14.24 159.393 14.2 159.353 14.2H147.793C146.993 14.2 146.193 14.24 145.393 14.2C144.753 14.16 144.073 13.96 143.473 14.16C142.873 14.32 142.913 15 143.073 15.68C143.833 15.8 144.593 15.8 145.353 15.84H152.953C153.433 15.88 156.593 15.88 156.993 15.84C157.313 15.8 159.513 15.8 159.833 15.8C161.073 15.8 162.153 16 162.993 16.4C163.513 16.68 163.873 16.88 163.993 17.52C164.153 18.16 164.033 18.84 163.633 19.32C162.873 20.32 161.913 20.36 160.793 20.4C159.753 20.44 153.873 20.48 152.233 20.48C150.553 20.48 147.153 20.44 145.593 20.44C143.833 20.4 142.073 20.32 140.313 20.32C137.713 20.32 137.713 18.56 137.713 16.32C137.713 15.96 137.673 15.56 137.633 15.2ZM138.993 22.64C139.793 22.56 141.553 22.56 141.553 22.56H150.353C150.353 22.56 157.753 22.48 161.353 22.56H161.553C162.633 22.6 163.713 22.52 164.753 22.92C165.513 23.2 165.993 23.88 165.993 24.68C165.993 25.32 165.713 25.92 165.193 26.36C164.353 27.12 162.993 27.08 161.913 27H138.953C138.873 27 136.993 27.04 136.233 26.2C135.913 25.88 135.753 25.36 135.753 24.84C135.753 24.28 135.953 23.8 136.273 23.48C136.953 22.8 137.713 22.76 138.513 22.68C138.673 22.68 138.833 22.64 138.993 22.64ZM191.589 14.52C191.629 13.16 191.589 11.04 192.549 10.08C192.909 9.72 193.349 9.56 193.829 9.56H193.909C196.549 9.68 196.789 12.8 196.789 14.48V38.2C196.789 38.28 196.869 40.32 195.949 41.16C195.589 41.52 194.749 41.76 194.189 41.76C193.589 41.76 193.029 41.52 192.669 41.12C191.989 40.36 191.869 39.68 191.789 38.8C191.789 37.88 191.709 34.68 191.749 33.2H189.269C188.069 33.2 187.429 32.8 187.149 32.2C186.989 31.88 186.829 31.52 186.829 31.16C186.829 30.8 186.829 30.56 186.909 30.2C187.029 29.8 187.149 29.24 187.469 28.96C187.789 28.72 188.189 28.52 188.589 28.44C189.429 28.28 190.749 28.32 191.629 28.2C191.629 27.4 191.629 24.92 191.589 23.16L189.189 23.08C188.189 23.04 187.309 22.88 187.029 22.28C186.869 21.96 186.749 21.56 186.749 21.2C186.749 20.84 186.749 20.6 186.829 20.24C186.949 19.84 187.069 19.36 187.389 19.08C187.709 18.84 188.109 18.64 188.509 18.56C189.109 18.44 190.149 18.44 191.549 18.36C191.549 16.6 191.549 15.04 191.589 14.52ZM177.029 9.56C177.709 9.56 178.349 9.64 178.989 9.72C179.989 9.88 180.909 10.36 181.669 11.12C184.269 13.84 184.829 18.52 184.989 22.32C185.109 24.76 185.069 27.24 184.789 29.64C184.509 32.12 184.149 34.8 182.829 36.84C181.709 38.56 179.949 39.68 178.149 40.04C176.509 40.36 174.709 40.16 173.189 39.28C171.749 38.44 170.789 37.12 170.069 35.44C169.549 34.2 169.229 32.84 169.149 31.48C168.949 29.24 168.869 27 168.869 24.76C168.869 23.24 168.869 21.76 169.029 20.28C169.109 19.08 169.309 17.84 169.509 16.68C169.709 15.72 169.829 14.88 170.229 14C170.629 13.12 171.149 12.28 171.829 11.64C172.989 10.48 174.509 9.84 176.029 9.64C176.349 9.6 176.709 9.6 177.029 9.56ZM176.909 34.72C177.389 34.72 177.909 34.56 178.389 34.24C179.269 33.6 179.589 32.48 179.829 31.2C180.269 28.76 180.229 25.8 180.149 23.28C180.109 21.24 180.069 18.6 179.109 16.96C178.589 16.08 177.789 15.52 176.949 15.64C176.069 15.72 175.269 16.28 174.789 17.32L174.429 18.16C174.109 19.16 173.949 20.28 173.869 21.36C173.789 22.44 173.709 23.56 173.709 24.64C173.749 25.72 173.629 26.72 173.709 27.76C173.909 30.52 174.269 34.68 176.909 34.72ZM216.772 34.8C218.332 34.8 219.772 35.16 219.972 36.88C220.172 38.6 218.412 39.64 216.972 39.72C215.852 39.76 210.492 39.72 207.892 39.72H207.572C206.372 39.68 204.972 39.68 203.772 39.32C202.932 39.08 202.092 38.32 201.692 37.4C201.172 36.24 201.292 33.76 201.292 33.64V16.64C201.252 16.36 200.972 13.52 201.772 12.2C202.452 11.08 205.492 11.04 205.772 11.04H215.132C215.292 11.04 218.652 10.92 219.172 12.6C219.372 13.2 219.332 14.64 219.092 15.08C218.892 15.44 218.532 15.68 218.092 15.8C217.612 15.92 216.852 16 215.812 16C215.132 16 214.612 15.96 209.692 15.96C208.972 15.96 208.052 16 207.692 16.16C206.932 16.48 206.972 18.24 207.052 18.84V18.88L207.212 32.72C207.212 33.76 207.612 34.52 208.852 34.52C209.132 34.56 213.252 34.8 216.772 34.8ZM227.412 21.88L230.572 22.16C231.532 22.36 232.372 23 232.372 24.16C232.372 24.56 232.372 24.92 232.252 25.32C232.092 26.2 231.612 26.96 230.612 26.96L227.332 27C227.252 29.76 227.332 34 227.332 37.32C227.332 38.72 227.292 41.68 224.932 41.84C222.332 42 222.132 39.44 222.132 37.76V13.2C222.132 13.12 222.092 11.12 222.972 10.24C223.332 9.88 224.172 9.68 224.772 9.68C225.372 9.68 225.892 9.92 226.252 10.28C226.972 11.04 227.012 11.88 227.092 12.76C227.332 15.68 227.412 18.84 227.412 21.88ZM260.615 34.52C260.775 34.56 260.935 34.52 261.095 34.52C261.975 34.6 262.775 34.8 263.495 35.44C263.855 35.8 264.055 36.28 264.055 36.84C264.055 37.4 263.855 38.2 263.535 38.56C262.695 39.4 260.735 39.32 260.655 39.32H238.255C238.015 39.32 237.735 39.36 237.455 39.36C236.335 39.4 234.895 39.48 234.015 38.72C233.495 38.24 233.175 37.64 233.175 37C233.175 36.2 233.695 35.2 234.495 34.88C235.575 34.48 236.735 34.56 237.895 34.52H238.095C240.375 34.48 242.855 34.48 245.255 34.52L245.215 29C243.175 29.04 241.495 29.04 240.535 28.96C239.415 28.92 237.935 28.88 237.015 28.2C235.815 27.28 235.775 24.36 235.775 24.24V15.64C235.775 14.6 235.615 13.48 235.815 12.44C236.095 11.2 237.615 10.88 238.815 10.8C239.735 10.76 241.095 11 241.295 12.08C241.375 12.56 241.215 15.6 241.415 16.04C241.535 16.32 242.095 16.36 242.375 16.4C243.615 16.48 244.015 16.36 245.255 16.36L254.415 16.4C254.975 16.44 255.415 16.44 255.575 15.88C255.615 15.32 255.615 12.96 255.655 12.52C255.695 11.56 255.975 11 256.975 10.8C258.015 10.56 259.495 10.64 260.095 11.24C260.935 12.12 260.895 13.16 260.895 15.24C260.815 17.68 261.015 23.56 260.775 26C260.655 27.56 259.775 28.56 258.255 28.8C257.455 28.92 256.375 28.88 255.575 28.88C253.855 28.92 252.215 28.92 250.615 28.92L250.695 34.52C253.415 34.52 255.295 34.44 257.895 34.52C258.855 34.56 259.775 34.44 260.615 34.52ZM241.415 23.84C241.615 24.64 242.775 24.64 243.655 24.68C244.055 24.64 252.175 24.56 252.655 24.64C253.095 24.68 253.535 24.64 253.975 24.68C254.535 24.72 255.495 24.92 255.495 24.04C255.495 23.64 255.575 22 255.375 21.24C255.215 20.6 254.855 20.64 254.335 20.68C254.095 20.68 253.335 20.72 253.095 20.68H243.975C242.975 20.64 241.495 20.44 241.375 21.68C241.375 21.96 241.375 23.64 241.415 23.84ZM295.356 38.72C295.276 39.36 295.236 39.96 295.036 40.6C294.956 40.8 294.876 40.96 294.796 41.16C294.636 41.48 294.396 41.8 294.076 42.04C293.476 42.4 292.716 42.48 292.036 42.32C291.636 42.24 291.276 42.08 290.996 41.84C290.036 40.96 290.076 38.88 290.076 38.8V14.08C290.036 12.84 290.076 10.84 290.836 10.12C291.396 9.56 292.076 9.48 292.796 9.48C293.716 9.48 294.556 10.04 294.876 10.92C295.356 12.04 295.316 13.28 295.356 14.52V14.72C295.476 18.8 295.356 23.32 295.356 27.16V37.28C295.356 37.76 295.396 38.24 295.356 38.72ZM276.476 34.8C276.436 34.16 276.436 33.52 276.436 32.88V20.16C276.436 19.32 276.436 18.44 276.356 17.56C276.316 17.28 276.276 16.68 275.996 16.56C275.716 16.4 275.356 16.48 275.036 16.44C274.676 16.4 274.316 16.48 273.956 16.44H272.076C271.196 16.48 270.236 16.4 269.356 16.44C268.956 16.48 268.596 16.44 268.196 16.44C267.596 16.44 266.916 16.44 266.396 16.08C265.636 15.56 265.436 14.68 265.436 13.84C265.396 13.32 265.516 12.8 265.756 12.32C265.876 12.04 266.036 11.8 266.276 11.64C266.556 11.36 267.156 11.16 267.516 11.08C268.636 10.8 269.916 10.84 271.076 10.84H278.036C278.716 10.92 279.556 11 280.196 11.24C280.596 11.4 281.076 11.68 281.316 12.04C281.796 12.8 281.796 13.52 281.876 14.4C281.996 15.88 281.956 17.36 281.956 18.84V31.96C281.956 32.08 282.036 35.4 281.956 37.08C281.876 38.16 281.636 39.48 280.236 40C279.756 40.2 279.276 40.28 278.876 40.28C278.196 40.28 277.396 40 277.116 39.4C276.716 38.6 276.476 37.6 276.476 36.56V34.8Z" fill="#48724B"/>
<circle cx="322" cy="24.5" r="17" fill="#A0C0A6"/>
<path d="M324.554 33.176H321.226V18.174L316.962 20.618L315.35 17.914L321.616 14.43H324.554V33.176Z" fill="white"/>
<path d="M374.52 14.56C374.48 14.52 374.48 18.44 374.52 18.64C374.8 18.88 375.64 19.68 376.12 20.08C376.64 20.52 377.2 21.04 377.8 21.6C378.16 21.96 378.48 22.32 378.76 22.6C379.76 23.6 380.96 24.84 381.32 26.04C381.48 26.52 381.4 27.2 380.84 27.6C380.44 27.84 379.96 28 379.4 28C378.24 28 377.08 27.4 376.44 26.92C375.44 26.16 374.6 25.32 373.76 24.48C373.16 23.88 372.4 23 371.64 22.44L370.56 23.52C370.2 23.88 369.8 24.24 369.48 24.6C368.8 25.36 368.08 26.16 367.12 26.84C366.04 27.64 365 28.04 364.04 28.04C363.8 28.04 363.6 28.04 363.36 27.96C362.8 27.84 362.4 27.6 362.2 27.24C361.84 26.64 362.04 25.8 362.36 25.24C362.76 24.64 363.36 24.08 363.88 23.52C364.84 22.48 368.48 19.08 368.92 18.64V14.56H366.36C365.04 14.56 362.76 14.88 362.08 13.32C361.84 12.72 361.72 11.92 361.88 11.28C362.08 10.52 363 10.28 363.68 10.2C363.92 10.16 367.24 10.24 367.6 10.16H376.96C379.08 10.16 380.56 10.32 381.44 11.36C381.96 12 381.8 13.72 380.96 14.12C380.56 14.28 379.88 14.52 379.44 14.56C378.68 14.6 377.92 14.56 377.16 14.56H374.52ZM389.44 37.2C389.48 37.24 391.08 37.6 391.24 38.72C391.36 39.72 391.2 40.52 390.72 41.08C390.08 41.84 389.12 41.88 389.08 41.88H369.04C366.88 41.88 365.56 41.16 365.56 39.96V34.4C365.52 33.8 365.52 32.24 365.56 31.64C365.68 30.52 366.8 29.76 368 29.76C368.28 29.76 368.72 29.8 369 29.88C370.44 30.32 370.52 32.08 370.6 33.28C370.64 33.72 370.56 36.84 370.6 37.12C370.76 37.16 371.32 37.28 373.28 37.28C375 37.28 376.56 37.2 376.6 37.2H389.44ZM385.8 21.72H384.04C382.48 21.64 381.2 21.76 380.52 20.72C380.2 20.2 380.24 19.24 380.36 18.68C380.52 18.08 380.88 17.68 381.92 17.44C382.36 17.36 385.36 17.28 385.8 17.24V13C385.76 12.44 385.76 11.8 385.92 11.24C386.04 10.84 386.08 10.44 386.44 10.04C386.88 9.52 387.72 9.28 388.6 9.4C389.4 9.52 390 9.88 390.24 10.4C390.56 11.04 390.6 12.24 390.6 12.44V28.68H390.56C390.56 28.76 390.4 30.2 389.36 30.84C389 31.04 388.64 31.16 388.24 31.16C387.76 31.16 387.32 31 386.92 30.72C386.64 30.52 386.4 30.28 386.24 29.92C385.92 29.36 385.84 28.72 385.8 28.16V21.72ZM419.795 25.6C420.675 25.64 421.675 25.8 422.435 26.4C422.795 26.68 422.995 27.16 422.995 27.64C422.995 28.16 422.795 28.92 422.475 29.2C421.635 30 419.555 29.92 419.475 29.92L398.155 29.96C396.955 30 395.475 30.08 394.595 29.36C393.995 28.92 393.675 28.4 393.675 27.8C393.675 27.08 394.235 26.16 395.075 25.88C396.195 25.52 397.395 25.64 398.595 25.6C401.195 25.52 402.035 25.6 404.715 25.6V23.6H402.155H401.475C399.835 23.6 397.515 23.52 396.435 22.48C395.395 21.6 395.515 19.12 395.555 19V11.68C395.555 11.56 395.515 10.32 395.875 9.88C396.315 9.32 396.675 9.08 397.435 9C397.875 8.92 398.795 8.92 398.795 8.92H416.555C417.035 8.92 417.475 8.92 417.955 9.04C418.435 9.12 418.875 9.2 419.235 9.56C419.555 9.8 419.715 10.16 419.795 10.48C419.875 10.8 419.915 11.08 419.835 11.4C419.715 12.24 418.955 12.88 417.835 12.88H400.755V14.44C402.355 14.48 411.115 14.44 411.155 14.44H414.835C415.035 14.44 415.315 14.48 415.595 14.44H416.635C417.155 14.44 417.795 14.48 418.275 14.76C419.035 15.08 419.195 15.88 419.115 16.48C419.075 16.8 419.075 17.16 418.835 17.4C418.275 18.04 417.635 18.12 416.955 18.12H400.715L400.755 19.12C400.715 19.68 400.835 19.32 400.995 19.36C401.315 19.52 402.235 19.6 403.155 19.6H403.355C404.195 19.56 412.475 19.56 413.315 19.6H415.195C415.395 19.6 415.515 19.6 415.715 19.56H416.395C417.195 19.56 418.035 19.56 418.835 19.76C418.955 19.76 419.115 19.84 419.235 19.88C420.555 20.64 420.395 22.44 418.955 23.04C417.875 23.52 416.555 23.6 415.475 23.6H413.835C413.395 23.64 411.795 23.64 410.355 23.64C410.395 24.28 410.395 25 410.395 25.6C413.355 25.6 417.515 25.48 419.795 25.6ZM394.955 36.36C394.955 31.84 400.835 31.16 408.035 31.16C415.275 31.16 421.155 31.32 421.155 36.36C421.155 41.32 415.275 41.56 408.035 41.56C400.835 41.56 394.955 41.32 394.955 36.36ZM415.875 36.36C415.875 34.64 411.715 34.72 408.035 34.72C404.395 34.72 400.475 34.64 400.475 36.36C400.475 37.88 404.395 38 408.035 38C411.715 38 415.875 38.36 415.875 36.36ZM438.613 26.72C437.533 25.96 436.773 24.84 436.333 23.52C435.813 22.16 435.653 20.88 435.653 19.56C435.653 18.16 435.893 17 436.333 15.84C436.853 14.72 437.453 13.72 438.293 12.96C439.133 12.08 440.053 11.44 441.253 11C442.333 10.48 443.613 10.24 444.973 10.24C445.493 10.16 445.893 10.16 446.373 10.24C446.813 10.24 447.333 10.32 447.773 10.4C447.973 10.48 448.253 10.48 448.493 10.56C448.773 10.56 449.013 10.68 449.173 10.76C449.773 10.92 450.253 11.08 450.773 11.36C451.293 11.6 451.733 11.84 452.133 12.08C452.453 12.24 452.893 12.6 453.253 12.96C453.773 13.48 454.093 13.88 454.413 14.44C454.733 14.96 455.013 15.56 455.093 16.24C455.253 16.84 455.333 17.44 455.453 18.04C455.533 18.6 455.613 19.2 455.533 19.88C455.533 20.2 455.453 20.64 455.453 20.96C455.333 21.4 455.333 21.84 455.173 22.16C455.013 23.16 454.653 24.2 454.173 25.04C453.573 25.96 452.893 26.6 451.973 27.24C451.293 27.64 450.613 28 449.853 28.16C449.173 28.36 448.413 28.48 447.693 28.64C447.413 28.72 447.173 28.72 446.893 28.72C446.733 28.72 446.453 28.72 446.213 28.8H445.493C445.293 28.8 445.053 28.8 444.773 28.72C444.453 28.72 444.092 28.72 443.773 28.64C443.373 28.64 443.013 28.56 442.653 28.56C441.893 28.44 441.253 28.24 440.573 27.92C439.853 27.56 439.213 27.24 438.613 26.72ZM464.413 14.76V17.36C464.493 18.4 464.493 19.56 464.493 20.76V27.24C464.493 28.44 464.493 29.52 464.413 30.52V35.08C464.333 35.92 464.413 36.8 464.413 37.52C464.413 38.04 464.413 38.56 464.333 38.96C464.333 39.4 464.253 39.72 464.053 40C463.973 40.24 463.813 40.4 463.733 40.68C463.533 40.84 463.373 41.08 462.933 41.24C462.453 41.6 461.773 41.68 461.093 41.6C460.653 41.48 460.333 41.32 460.093 41.08C459.853 40.92 459.653 40.6 459.493 40.24C459.333 39.88 459.213 39.56 459.213 39.2C459.133 38.96 459.053 38.64 459.053 38.48V38.04L458.973 14.32C458.973 13.64 458.973 12.96 459.133 12.12C459.213 11.36 459.493 10.76 459.853 10.36C460.173 10.12 460.493 9.92 460.733 9.84C461.093 9.76 461.413 9.76 461.853 9.76C462.293 9.76 462.693 9.84 463.133 10.12C463.453 10.36 463.733 10.72 463.893 11.12C464.133 11.72 464.333 12.32 464.333 12.88C464.333 13.48 464.333 14.16 464.413 14.76ZM455.613 33.2C455.973 33.32 456.293 33.48 456.533 33.64C457.053 34.16 457.373 34.68 457.373 35.32C457.373 35.76 457.213 36.2 456.933 36.52C456.693 36.84 456.412 37.08 456.053 37.2C455.773 37.28 455.533 37.36 455.253 37.36C454.932 37.44 454.653 37.44 454.413 37.44H450.613C449.693 37.44 448.773 37.44 447.773 37.52H444.973C444.013 37.44 443.293 37.44 442.573 37.44H438.373C437.853 37.44 437.373 37.36 436.853 37.28C436.573 37.2 436.333 37.08 436.093 37C435.813 36.92 435.653 36.84 435.413 36.64C435.093 36.28 434.893 35.84 434.893 35.16C434.893 34.6 435.093 34.16 435.413 33.8C435.573 33.56 435.813 33.4 436.173 33.32C436.493 33.2 436.853 33.12 437.093 33.04C437.453 32.96 437.653 32.96 437.853 32.96H452.973C453.493 32.96 454.012 32.96 454.413 33.04C454.853 33.04 455.173 33.12 455.613 33.2ZM440.973 18.84C440.893 19.36 440.893 19.88 440.973 20.44C441.093 21.04 441.253 21.56 441.493 22C442.053 22.84 442.853 23.44 443.853 23.84C444.613 24.12 445.373 24.2 446.133 24.2C446.573 24.12 446.893 24.12 447.333 24.04C447.693 24.04 448.053 23.84 448.413 23.68C448.933 23.44 449.373 23 449.693 22.48C450.053 21.92 450.173 21.4 450.333 20.8C450.533 19.88 450.453 19.12 450.173 18.24C450.053 17.88 449.853 17.52 449.693 17.24C449.533 17.08 449.453 16.84 449.253 16.76C449.173 16.56 449.013 16.4 448.773 16.24C448.573 16.12 448.333 16 448.133 15.92C447.933 15.76 447.693 15.68 447.413 15.56C446.733 15.4 446.053 15.32 445.293 15.32C444.613 15.32 443.933 15.4 443.373 15.68C442.773 15.92 442.253 16.24 441.813 16.84C441.413 17.36 441.173 18.04 440.973 18.84ZM469.136 35.64C469.136 30.8 475.136 29.48 482.496 29.48C489.856 29.48 495.856 30.24 495.856 35.64C495.856 40.96 489.856 41.8 482.496 41.8C475.136 41.8 469.136 40.96 469.136 35.64ZM468.536 26.8C468.176 26.64 467.896 26.32 467.736 25.88C466.856 23.72 469.296 21.64 470.496 20.2C471.416 19.08 472.336 17.96 473.216 16.8C473.856 15.92 475.056 14.88 475.136 13.72C475.216 11.92 475.136 10 477.456 10C478.296 10 479.216 10.08 479.576 10.92C479.976 11.88 479.576 13.12 479.896 14.12C480.176 15 480.936 15.6 481.376 16.36C482.296 18 483.616 19.16 484.696 20.64C485.536 21.76 486.416 22.96 486.696 24.32C487.216 26.64 484.256 27.76 482.776 26.24C480.816 24.24 479.296 22 477.576 19.8C477.536 19.76 472.776 24.96 472.376 25.44C471.816 26.12 471.176 26.72 470.296 26.92C469.696 27.04 469.056 27.04 468.536 26.8ZM496.056 21.64H495.136V25.28C495.096 25.84 495.016 26.48 494.696 27.08C494.536 27.4 494.296 27.68 494.016 27.88C493.616 28.16 492.976 28.28 492.536 28.28C492.136 28.28 491.576 28.2 491.256 28C490.176 27.36 490.016 25.88 490.016 25.84V12.64C489.976 12.44 490.056 11.2 490.376 10.56C490.616 10.04 491.376 9.68 492.136 9.6C493.056 9.48 494.056 9.72 494.496 10.2C494.816 10.6 494.896 11 495.016 11.44C495.176 11.96 495.176 12.6 495.136 13.16V15.92C495.136 15.92 495.096 16.44 495.136 17.2C495.576 17.24 497.736 17.28 498.216 17.4C499.256 17.6 499.616 18.04 499.736 18.6C499.896 19.16 499.936 20.08 499.616 20.6C498.976 21.64 497.616 21.6 496.056 21.64ZM490.456 35.64C490.456 33.8 486.216 33.64 482.496 33.64C478.776 33.64 474.776 33.8 474.776 35.64C474.776 37.28 478.776 37.6 482.496 37.6C486.216 37.6 490.456 37.8 490.456 35.64ZM518.539 11.56C518.899 11.48 519.219 11.36 519.539 11.32C520.339 11.12 521.819 11.12 522.259 12.04C522.699 13.12 522.499 15 522.499 16.16V36.6C522.499 37.72 522.779 39.24 521.659 40.04C520.899 40.64 519.419 40.6 518.539 40.28C517.579 39.96 517.539 38.88 517.539 38C517.179 31 517.299 24.36 517.299 17.24C517.139 17.72 514.379 18.16 513.939 18.16C512.539 18.32 511.219 18 511.059 16.36C510.859 14.68 511.979 13.76 513.539 13.28C515.219 12.72 516.859 12.04 518.539 11.56Z" fill="#48724B"/>
<g clip-path="url(#clip0_370_36887)">
<path d="M538.992 17.7995C536.844 18.7574 537.169 21.2519 536.617 22.0302C536.065 22.8085 533.611 23.5968 533.385 26.241C533.148 28.8852 534.942 28.7555 535.73 29.903C536.509 31.0505 535.996 33.8643 539.377 34.4231C542.757 34.9819 542.866 32.178 544.216 31.8787C545.566 31.5893 548.739 31.6492 550.484 29.5139C552.189 27.4184 550.671 24.9538 550.385 24.0758C550.099 23.1877 550.622 20.8628 549.143 19.6953C547.665 18.5379 546.207 19.7053 544.975 19.0667C543.743 18.4281 541.161 16.8416 539.012 17.7995" fill="#D1E8CF"/>
<path d="M540.206 34.8623C539.93 34.8623 539.635 34.8423 539.309 34.7825C536.638 34.3334 536.175 32.5573 535.84 31.2602C535.722 30.8111 535.613 30.3821 535.426 30.1127C535.219 29.8033 534.894 29.5838 534.559 29.3643C533.8 28.8554 532.844 28.2168 533.022 26.2112C533.209 24.1357 534.638 23.108 535.594 22.4195C535.919 22.18 536.205 21.9805 536.333 21.8108C536.461 21.6312 536.54 21.2421 536.638 20.833C536.875 19.7254 537.21 18.1987 538.856 17.4603C540.965 16.5224 543.35 17.7896 544.769 18.548L545.134 18.7375C545.568 18.967 546.07 18.9072 546.642 18.8473C547.47 18.7575 548.406 18.6477 549.362 19.3961C550.535 20.3141 550.584 21.8408 550.623 22.9483C550.633 23.3574 550.653 23.7366 550.722 23.9462C550.761 24.0759 550.83 24.2455 550.919 24.4351C551.422 25.6125 552.348 27.7977 550.761 29.7335C549.273 31.5495 546.859 31.8688 545.262 32.0784C544.887 32.1283 544.552 32.1682 544.296 32.228C543.951 32.3079 543.685 32.6471 543.35 33.0862C542.759 33.8445 541.98 34.8523 540.226 34.8523L540.206 34.8623ZM539.142 18.1389C537.821 18.7276 537.555 19.9848 537.338 20.9926C537.23 21.5015 537.131 21.9405 536.914 22.2499C536.727 22.5093 536.392 22.7488 536.018 23.0282C535.131 23.6668 533.909 24.5448 533.751 26.281C533.613 27.8576 534.244 28.2767 534.963 28.7556C535.347 29.0051 535.742 29.2745 536.027 29.7036C536.284 30.0728 536.412 30.5617 536.54 31.0805C536.875 32.3677 537.23 33.7048 539.428 34.074C541.409 34.4033 542.098 33.5152 542.759 32.6571C543.153 32.1482 543.527 31.6693 544.129 31.5395C544.405 31.4797 544.759 31.4298 545.163 31.3799C546.652 31.1903 548.889 30.891 550.2 29.2945C551.5 27.6979 550.722 25.852 550.249 24.7544C550.16 24.5349 550.081 24.3453 550.032 24.2056C549.933 23.8963 549.914 23.4772 549.904 22.9982C549.864 21.9805 549.825 20.7132 548.918 20.0048C548.199 19.436 547.479 19.5158 546.721 19.6056C546.09 19.6755 545.43 19.7453 544.799 19.426L544.424 19.2265C543.123 18.528 540.935 17.3606 539.142 18.1588V18.1389Z" fill="#7DA37E"/>
<path d="M541.821 26.6002C542.176 26.5104 542.541 26.7299 542.619 27.0792C542.708 27.4384 542.491 27.7976 542.137 27.8874C541.782 27.9772 541.417 27.7577 541.328 27.4085C541.24 27.0492 541.457 26.69 541.821 26.6002Z" fill="#C8A374"/>
<path d="M540.567 25.4728C540.922 25.383 541.287 25.6025 541.366 25.9517C541.454 26.3109 541.237 26.6702 540.883 26.76C540.528 26.8498 540.163 26.6302 540.075 26.281C539.986 25.9218 540.203 25.5626 540.567 25.4728Z" fill="#C8A374"/>
<path d="M543.743 26.2511C544.098 26.1613 544.463 26.3808 544.541 26.7301C544.63 27.0893 544.413 27.4485 544.058 27.5383C543.704 27.6281 543.339 27.4086 543.25 27.0593C543.162 26.7001 543.378 26.3409 543.743 26.2511Z" fill="#C8A374"/>
<path d="M544.313 24.7145C544.668 24.6247 545.033 24.8442 545.112 25.1934C545.2 25.5526 544.984 25.9119 544.629 26.0017C544.274 26.0915 543.909 25.8719 543.821 25.5227C543.732 25.1635 543.949 24.8043 544.313 24.7145Z" fill="#C8A374"/>
<path d="M542.45 24.6945C542.805 24.6047 543.17 24.8242 543.248 25.1734C543.337 25.5326 543.12 25.8918 542.765 25.9816C542.411 26.0714 542.046 25.8519 541.957 25.5027C541.869 25.1435 542.085 24.7843 542.45 24.6945Z" fill="#C8A374"/>
<path d="M543.653 23.0182C544.008 22.9284 544.373 23.1479 544.452 23.4971C544.54 23.8564 544.323 24.2156 543.969 24.3054C543.614 24.3952 543.249 24.1757 543.16 23.8264C543.072 23.4672 543.289 23.108 543.653 23.0182Z" fill="#C8A374"/>
<path d="M541.931 22.7189C542.285 22.6291 542.65 22.8486 542.729 23.1978C542.818 23.557 542.601 23.9163 542.246 24.0061C541.891 24.0959 541.526 23.8763 541.438 23.5271C541.349 23.1679 541.566 22.8087 541.931 22.7189Z" fill="#C8A374"/>
<path d="M540.708 23.8463C541.063 23.7565 541.427 23.976 541.506 24.3253C541.595 24.6845 541.378 25.0437 541.023 25.1335C540.668 25.2233 540.304 25.0038 540.215 24.6545C540.126 24.2953 540.343 23.9361 540.708 23.8463Z" fill="#C8A374"/>
<path d="M554.21 21.831C552.643 21.7212 550.967 22.5594 550.189 23.6071C549.41 24.6548 549.41 26.4608 548.819 26.9697C548.346 27.3689 547.222 27.5385 546.227 28.0973C545.084 28.7458 544.206 29.9432 543.96 31.6595C543.704 33.4755 544.778 34.8026 546.01 35.531C546.956 36.0898 547.745 36.0299 548.572 36.5188C549.39 37.0078 549.794 37.6464 550.504 38.4247C551.164 39.1531 552.239 40.0012 554.003 40.111C555.777 40.2108 556.989 39.5821 557.521 38.724C557.984 37.9757 558.339 37.1375 558.802 36.6186C559.236 36.1197 560.261 35.98 561.099 35.3614C562.153 34.5831 562.794 33.1462 562.616 31.2504C562.528 30.3523 561.946 29.3146 561.197 28.666C560.369 27.9576 558.95 27.5684 558.645 27.1693C558.329 26.7702 558.832 25.4331 557.965 24.1958C557.097 22.9585 555.678 21.9308 554.22 21.831" fill="#E9F4E5"/>
<path d="M554.367 40.4999C554.239 40.4999 554.111 40.4999 553.983 40.49C552.485 40.4002 551.253 39.8114 550.238 38.6939C550.051 38.4844 549.883 38.2948 549.726 38.1052C549.292 37.5863 548.947 37.1872 548.385 36.8479C548.03 36.6384 547.666 36.5386 547.281 36.4288C546.848 36.3091 546.355 36.1694 545.823 35.8601C544.187 34.8922 543.359 33.3057 543.605 31.6194C543.852 29.9031 544.719 28.5461 546.049 27.7878C546.562 27.4984 547.094 27.3088 547.567 27.1491C547.991 26.9995 548.395 26.8598 548.582 26.7001C548.789 26.5305 548.927 25.9817 549.075 25.4429C549.252 24.7544 549.459 23.9861 549.903 23.3874C550.81 22.17 552.623 21.3518 554.239 21.4716C555.708 21.5714 557.255 22.5392 558.26 23.996C558.862 24.8641 558.871 25.7821 558.881 26.3908C558.881 26.6003 558.881 26.8897 558.931 26.9596C559.019 27.0793 559.453 27.2789 559.798 27.4385C560.34 27.6979 560.961 27.9873 561.444 28.3964C562.272 29.1049 562.892 30.2424 562.981 31.2202C563.168 33.1361 562.557 34.7525 561.316 35.6705C560.882 35.9898 560.409 36.1894 559.995 36.369C559.591 36.5386 559.246 36.6883 559.078 36.8779C558.812 37.1872 558.566 37.6262 558.31 38.1052C558.162 38.3846 558.004 38.664 557.837 38.9433C557.226 39.9412 555.944 40.5099 554.377 40.5099L554.367 40.4999ZM553.944 22.19C552.653 22.19 551.194 22.8685 550.484 23.8264C550.13 24.3054 549.942 25.0038 549.775 25.6225C549.588 26.321 549.43 26.9197 549.055 27.2489C548.76 27.4984 548.316 27.6481 547.804 27.8277C547.36 27.9873 546.858 28.1569 546.404 28.4164C545.271 29.055 544.532 30.2224 544.325 31.7092C544.039 33.6948 545.537 34.8224 546.197 35.2115C546.641 35.4809 547.045 35.5907 547.478 35.7104C547.892 35.8202 548.316 35.9399 548.76 36.1994C549.42 36.5985 549.824 37.0675 550.277 37.6063C550.425 37.7859 550.593 37.9755 550.77 38.175C551.657 39.1529 552.722 39.6618 554.023 39.7416C555.491 39.8214 556.693 39.3724 557.216 38.5243C557.373 38.2648 557.531 37.9854 557.669 37.726C557.945 37.2171 558.211 36.7382 558.536 36.369C558.822 36.0497 559.256 35.8601 559.719 35.6705C560.113 35.5009 560.527 35.3313 560.892 35.0618C561.917 34.3035 562.419 32.9265 562.262 31.2801C562.183 30.4918 561.651 29.5339 560.971 28.9452C560.567 28.596 559.995 28.3266 559.492 28.0971C558.97 27.8576 558.566 27.658 558.359 27.3986C558.162 27.1491 558.162 26.8099 558.152 26.3808C558.152 25.8021 558.142 25.0837 557.669 24.4052C556.802 23.1479 555.432 22.2798 554.19 22.19C554.111 22.19 554.032 22.19 553.944 22.19Z" fill="#7DA37E"/>
<path d="M553.047 29.7836C552.948 30.1229 552.594 30.3124 552.268 30.2127C551.943 30.1129 551.756 29.7537 551.854 29.4244C551.953 29.0851 552.298 28.8955 552.633 28.9953C552.958 29.0951 553.145 29.4543 553.047 29.7836Z" fill="#C8A374"/>
<path d="M554.555 29.3046C554.456 29.6439 554.101 29.8334 553.776 29.7337C553.451 29.6339 553.264 29.2747 553.362 28.9454C553.461 28.6061 553.806 28.4165 554.141 28.5163C554.466 28.6161 554.653 28.9753 554.555 29.3046Z" fill="#C8A374"/>
<path d="M552.395 31.5395C552.296 31.8787 551.941 32.0683 551.616 31.9685C551.291 31.8687 551.104 31.5095 551.202 31.1802C551.301 30.841 551.646 30.6514 551.981 30.7512C552.306 30.851 552.493 31.2102 552.395 31.5395Z" fill="#C8A374"/>
<path d="M553.352 32.7567C553.253 33.096 552.898 33.2856 552.573 33.1858C552.248 33.086 552.061 32.7268 552.159 32.3975C552.258 32.0583 552.603 31.8687 552.938 31.9685C553.263 32.0682 553.45 32.4275 553.352 32.7567Z" fill="#C8A374"/>
<path d="M554.27 31.2304C554.171 31.5696 553.816 31.7592 553.491 31.6594C553.166 31.5597 552.979 31.2004 553.077 30.8712C553.176 30.5319 553.521 30.3423 553.856 30.4421C554.181 30.5419 554.368 30.9011 554.27 31.2304Z" fill="#C8A374"/>
<path d="M555.035 33.0263C554.937 33.3655 554.582 33.5551 554.257 33.4553C553.931 33.3556 553.744 32.9963 553.843 32.6671C553.941 32.3278 554.286 32.1382 554.621 32.238C554.947 32.3378 555.134 32.697 555.035 33.0263Z" fill="#C8A374"/>
<path d="M556.109 31.7592C556.011 32.0984 555.656 32.288 555.331 32.1882C555.006 32.0885 554.818 31.7292 554.917 31.4C555.015 31.0607 555.36 30.8711 555.696 30.9709C556.021 31.0707 556.208 31.4299 556.109 31.7592Z" fill="#C8A374"/>
<path d="M555.797 30.2123C555.698 30.5516 555.344 30.7412 555.018 30.6414C554.693 30.5416 554.506 30.1824 554.604 29.8531C554.703 29.5138 555.048 29.3242 555.383 29.424C555.708 29.5238 555.895 29.883 555.797 30.2123Z" fill="#C8A374"/>
<path d="M555.903 9.26849C554.593 8.62989 552.868 8.7596 551.833 9.37825C550.798 10.0069 550.187 11.5635 549.497 11.793C548.955 11.9726 547.92 11.7231 546.876 11.8528C545.664 12.0025 544.501 12.7309 543.702 14.1179C542.855 15.5847 543.328 17.1014 544.136 18.169C544.757 18.9872 545.457 19.2068 545.999 19.9152C546.541 20.6237 546.659 21.3121 547.004 22.2401C547.319 23.0982 547.95 24.2058 549.438 24.9242C550.926 25.6327 552.198 25.5229 552.947 24.9642C553.597 24.4852 554.198 23.8865 554.77 23.5971C555.312 23.3277 556.238 23.5572 557.175 23.3277C558.347 23.0284 559.392 22.0206 559.885 20.3243C560.121 19.5161 559.974 18.4185 559.55 17.6102C559.077 16.7022 557.993 15.884 557.865 15.425C557.736 14.966 558.623 13.9981 558.308 12.6212C557.993 11.2442 557.116 9.86718 555.893 9.26849" fill="#E9F4E5"/>
<path d="M551.431 25.7523C550.771 25.7523 550.042 25.5727 549.303 25.2235C548.041 24.6148 547.193 23.6769 546.701 22.3598C546.612 22.1203 546.533 21.8908 546.464 21.6713C546.267 21.0726 546.109 20.6036 545.745 20.1247C545.508 19.8153 545.232 19.6058 544.937 19.3763C544.602 19.1169 544.227 18.8275 543.882 18.3685C542.808 16.9616 542.64 15.3052 543.429 13.9382C544.227 12.5512 545.449 11.6831 546.849 11.5035C547.391 11.4337 547.913 11.4636 548.376 11.4836C548.8 11.5035 549.194 11.5235 549.411 11.4536C549.647 11.3738 549.963 10.9547 550.259 10.5456C550.653 10.0168 551.096 9.42806 551.678 9.06884C552.88 8.34044 554.723 8.28057 556.063 8.93913C557.295 9.5478 558.291 10.9148 558.655 12.5213C558.872 13.4792 558.567 14.2675 558.37 14.7963C558.301 14.9759 558.202 15.2354 558.212 15.3052C558.251 15.4349 558.547 15.7642 558.793 16.0236C559.178 16.4327 559.611 16.9017 559.877 17.4306C560.341 18.3286 560.488 19.526 560.232 20.404C559.73 22.1103 558.655 23.2977 557.276 23.647C556.793 23.7667 556.32 23.7767 555.896 23.7767C555.492 23.7767 555.147 23.7767 554.93 23.8964C554.595 24.066 554.23 24.3654 553.846 24.6847C553.619 24.8743 553.393 25.0639 553.156 25.2335C552.683 25.5827 552.102 25.7523 551.441 25.7523H551.431ZM547.598 12.1421C547.381 12.1421 547.154 12.1421 546.927 12.182C545.735 12.3317 544.69 13.0801 544 14.2874C543.074 15.8939 543.981 17.3906 544.404 17.9594C544.7 18.3485 545.006 18.588 545.331 18.8375C545.646 19.0769 545.971 19.3364 546.257 19.7056C546.691 20.2743 546.868 20.8231 547.085 21.4518C547.154 21.6613 547.223 21.8808 547.312 22.1203C547.745 23.2678 548.485 24.086 549.579 24.6148C550.82 25.2035 552.003 25.2335 552.742 24.6947C552.969 24.525 553.195 24.3454 553.402 24.1658C553.816 23.8266 554.211 23.4973 554.615 23.2977C554.969 23.1181 555.403 23.1181 555.866 23.1081C556.261 23.1081 556.674 23.1081 557.088 22.9984C558.232 22.709 559.138 21.7012 559.562 20.2244C559.769 19.516 559.641 18.5082 559.257 17.7598C559.03 17.3208 558.626 16.8818 558.271 16.5026C557.906 16.1134 557.621 15.8041 557.542 15.5147C557.463 15.2354 557.571 14.936 557.719 14.5668C557.916 14.0679 558.153 13.4493 557.975 12.6909C557.66 11.304 556.783 10.0766 555.748 9.56775C554.457 8.93913 552.86 9.14867 552.003 9.66753C551.53 9.9569 551.136 10.4957 550.781 10.9647C550.387 11.5035 550.042 11.9625 549.598 12.1122C549.263 12.2219 548.829 12.202 548.327 12.1721C548.09 12.1621 547.844 12.1521 547.588 12.1521L547.598 12.1421Z" fill="#7DA37E"/>
<path d="M552.179 15.7044C551.972 15.9638 551.607 16.0037 551.361 15.8042C551.114 15.6046 551.075 15.2354 551.282 14.976C551.489 14.7166 551.854 14.6766 552.1 14.8762C552.346 15.0758 552.386 15.445 552.179 15.7044Z" fill="#C8A374"/>
<path d="M553.636 15.8141C553.429 16.0736 553.064 16.1135 552.818 15.9139C552.571 15.7144 552.532 15.3452 552.739 15.0857C552.946 14.8363 553.311 14.7864 553.557 14.9959C553.803 15.1955 553.843 15.5647 553.636 15.8241" fill="#C8A374"/>
<path d="M551.015 16.9715C550.808 17.2309 550.443 17.2708 550.197 17.0713C549.95 16.8717 549.911 16.5025 550.118 16.2431C550.325 15.9836 550.689 15.9437 550.936 16.1433C551.182 16.3429 551.222 16.7121 551.015 16.9715Z" fill="#C8A374"/>
<path d="M551.409 18.3582C551.202 18.6077 550.838 18.6576 550.591 18.458C550.345 18.2584 550.305 17.8892 550.512 17.6298C550.719 17.3704 551.084 17.3305 551.33 17.53C551.577 17.7296 551.616 18.0988 551.409 18.3582Z" fill="#C8A374"/>
<path d="M552.73 17.3704C552.523 17.6298 552.158 17.6698 551.912 17.4702C551.665 17.2706 551.626 16.9014 551.833 16.642C552.04 16.3826 552.404 16.3427 552.651 16.5422C552.897 16.7418 552.936 17.111 552.73 17.3704Z" fill="#C8A374"/>
<path d="M552.769 19.1864C552.562 19.4458 552.197 19.4858 551.951 19.2862C551.704 19.0866 551.665 18.7174 551.872 18.458C552.079 18.1986 552.443 18.1587 552.69 18.3682C552.936 18.5678 552.976 18.937 552.769 19.1964" fill="#C8A374"/>
<path d="M554.132 18.4682C553.925 18.7276 553.56 18.7675 553.314 18.5679C553.067 18.3684 553.028 17.9992 553.235 17.7397C553.442 17.4803 553.807 17.4404 554.053 17.6499C554.299 17.8495 554.339 18.2187 554.132 18.4781" fill="#C8A374"/>
<path d="M554.397 17.0311C554.191 17.2906 553.826 17.3305 553.579 17.1309C553.333 16.9314 553.294 16.5622 553.501 16.3027C553.708 16.0433 554.072 16.0034 554.319 16.2129C554.565 16.4125 554.604 16.7817 554.397 17.0411" fill="#C8A374"/>
</g>
<defs>
<clipPath id="clip0_370_36887">
<rect width="30" height="32" fill="white" transform="translate(533 8.5)"/>
</clipPath>
</defs>
</svg>
