<svg width="63" height="68" viewBox="0 0 63 68" fill="none" xmlns="http://www.w3.org/2000/svg">
<g clip-path="url(#clip0_1485_3633)">
<path d="M30.078 0.0358044C12.6874 0.885805 -0.765752 15.151 -0.000126906 31.9293C0.218623 36.2902 1.38529 40.3923 3.28112 44.088C13.4165 66.6315 41.8176 68.0358 41.8176 68.0358C37.6978 65.8554 35.328 63.1945 33.9426 60.7184C50.8228 59.388 63.729 45.3445 62.9634 28.8989C62.1978 12.0836 47.4686 -0.814196 30.078 0.0358044Z" fill="#BD94C2"/>
<path d="M19.4323 28.5322C19.4323 28.9388 19.5052 29.3083 19.6146 29.604C19.724 29.8996 20.0885 30.0844 20.7083 30.0844H24.026C24.5365 30.0844 24.901 30.2322 25.1198 30.5279C25.3385 30.8235 25.4844 31.1192 25.4844 31.4518C25.4844 31.8214 25.3385 32.154 25.0833 32.4496C24.8281 32.7453 24.4635 32.8561 24.026 32.8561H11.9948C11.5573 32.8561 11.2292 32.7083 10.974 32.4496C10.7187 32.154 10.6094 31.8214 10.6094 31.4518C10.6094 31.1192 10.7187 30.8235 10.974 30.5279C11.1927 30.2322 11.5573 30.0844 12.0312 30.0844H15.2396C15.8594 30.0844 16.224 29.9366 16.3333 29.604C16.4427 29.3083 16.5156 28.9388 16.5156 28.5322V27.1279C16.5156 27.1279 16.5156 26.9431 16.5521 26.8692C15.4583 26.6105 14.5833 26.0192 13.8542 25.1692C13.125 24.2822 12.7969 23.2844 12.7969 22.1018C12.7969 21.1409 13.0156 20.2909 13.4896 19.5888H12.4687C11.5573 19.5888 11.1198 19.1453 11.1198 18.2214C11.1198 17.2975 11.5573 16.854 12.4687 16.854H15.8229C16.2604 16.854 16.4792 16.5583 16.4792 15.9301V14.1561C16.4792 13.7496 16.625 13.417 16.9167 13.1214C17.2083 12.8627 17.5729 12.7148 17.974 12.7148C18.375 12.7148 18.7396 12.8627 18.9948 13.1214C19.2865 13.3801 19.3958 13.7127 19.3958 14.1561V15.8931C19.3958 16.2627 19.3958 16.5214 19.5052 16.6322C19.5781 16.7431 19.7604 16.817 20.0521 16.854H23.3333C23.7344 16.854 24.099 16.9648 24.3542 17.2235C24.6458 17.4822 24.7552 17.8148 24.7552 18.2214C24.7552 18.6279 24.6094 18.9605 24.3542 19.2192C24.0625 19.4779 23.7344 19.5888 23.3333 19.5888H22.3854C22.6042 19.8475 22.7865 20.254 22.9323 20.7714C23.0781 21.2888 23.1146 21.7322 23.1146 22.1388C23.1146 23.3214 22.75 24.3561 22.0573 25.2061C21.3281 26.0561 20.4531 26.6475 19.3594 26.9431C19.3594 27.017 19.3958 27.1279 19.4323 27.2018C19.4323 27.2757 19.4323 27.3866 19.4323 27.4605V28.6061V28.5322ZM15.4219 21.954C15.4219 22.6561 15.6771 23.2475 16.1875 23.654C16.6979 24.0975 17.2812 24.2822 17.974 24.2822C18.6667 24.2822 19.1771 24.0605 19.651 23.654C20.125 23.2105 20.3802 22.6561 20.3802 21.954C20.3802 21.2518 20.125 20.6235 19.651 20.1801C19.1771 19.7366 18.5937 19.5148 17.974 19.5148C17.3542 19.5148 16.6979 19.7366 16.1875 20.1801C15.6771 20.6235 15.4219 21.2148 15.4219 21.954ZM27.6354 35.554C28.3646 35.554 28.9479 35.7757 29.4219 36.1822C29.8594 36.5888 30.1146 37.1801 30.1146 37.9562V42.1692C30.1146 42.9083 29.8594 43.4996 29.3854 43.9062C28.875 44.3127 28.3281 44.5344 27.6719 44.5344H24.026C23.4427 44.5344 23.0417 44.7192 22.8229 45.0518C22.6042 45.3844 22.4948 45.754 22.4948 46.0866V46.4561C22.4948 46.8627 22.6042 47.2692 22.7865 47.7127C23.0052 48.1192 23.4427 48.3409 24.1719 48.3409H29.0573C29.4583 48.3409 29.8229 48.4518 30.0781 48.7105C30.3698 48.9692 30.4792 49.3018 30.4792 49.7083C30.4792 50.1148 30.3333 50.4475 30.0781 50.7062C29.7865 50.9648 29.4583 51.0757 29.0573 51.0757H21.9115C21.2552 51.0757 20.7083 50.854 20.2344 50.4474C19.7604 50.004 19.5052 49.4496 19.5052 48.7105V44.4605C19.5052 43.6844 19.7604 43.0561 20.2344 42.6127C20.7448 42.1322 21.3281 41.9105 22.0573 41.9105H25.5208C26.1042 41.9105 26.5052 41.7627 26.724 41.467C26.9427 41.1714 27.0521 40.8388 27.0521 40.4322V40.0257C27.0521 39.6192 26.9427 39.2496 26.724 38.8801C26.5052 38.5475 26.0312 38.3627 25.3385 38.3627H21C20.599 38.3627 20.2344 38.2518 19.9792 37.9931C19.6875 37.7344 19.5781 37.4018 19.5781 36.9953C19.5781 36.5888 19.724 36.2561 19.9792 35.9975C20.2708 35.7388 20.599 35.6279 21 35.6279H27.5625L27.6354 35.554ZM26.8698 16.0409C26.8698 15.5975 27.0156 15.2279 27.2708 14.9692C27.5625 14.7105 27.8906 14.5627 28.3281 14.5627C28.8385 14.5627 29.2396 14.7105 29.4583 14.9692C29.6771 15.2648 29.7865 15.5975 29.7865 16.004V18.5909C29.7865 18.9605 29.8594 19.3301 29.9688 19.6257C30.1146 19.9214 30.4792 20.0692 31.099 20.0692H32.5937C33.1042 20.0692 33.4323 20.217 33.651 20.5127C33.8698 20.8083 33.9792 21.104 33.9792 21.4366C33.9792 22.3235 33.5052 22.767 32.5937 22.767H31.099C30.5521 22.767 30.1875 22.8779 30.0417 23.1366C29.8958 23.3953 29.7865 23.7279 29.7865 24.1344V28.5322C29.7865 28.9388 29.6406 29.3083 29.3854 29.604C29.0938 29.8996 28.7656 30.0475 28.3646 30.0475C27.9635 30.0475 27.599 29.8996 27.3073 29.604C27.0156 29.3083 26.8698 28.9388 26.8698 28.5322V16.0409Z" fill="white"/>
<path d="M43.276 34.0724C43.276 34.4789 43.349 34.8485 43.4583 35.1442C43.5677 35.4398 43.9323 35.6246 44.5521 35.6246H47.8698C48.3802 35.6246 48.7448 35.7724 48.9635 36.0681C49.1823 36.3637 49.3281 36.6594 49.3281 36.992C49.3281 37.3615 49.1823 37.6942 48.9271 37.9898C48.6719 38.2855 48.3073 38.3963 47.8698 38.3963H35.6198C35.1823 38.3963 34.8542 38.2485 34.599 37.9898C34.3437 37.6942 34.2344 37.3615 34.2344 36.992C34.2344 36.6594 34.3437 36.3637 34.599 36.0681C34.8177 35.7724 35.1823 35.6246 35.6562 35.6246H39.0833C39.7031 35.6246 40.0677 35.4768 40.1771 35.1442C40.2865 34.8485 40.3594 34.4789 40.3594 34.0724V32.9268C40.3594 32.6311 40.4323 32.3355 40.5781 32.0398H38.6823C37.9896 32.0398 37.4062 31.8181 36.9688 31.3376C36.5312 30.8942 36.276 30.2659 36.276 29.5268V23.7985C36.276 23.0594 36.4948 22.4681 36.9688 22.0246C37.4062 21.5811 37.9896 21.3594 38.6823 21.3594H45.901C46.3021 21.3594 46.6667 21.5072 46.9219 21.7659C47.2135 22.0246 47.3229 22.3572 47.3229 22.8007C47.3229 23.2442 47.1771 23.5398 46.9219 23.7985C46.6302 24.0572 46.3021 24.1681 45.901 24.1681H41.0156C40.3594 24.1681 39.8854 24.3529 39.6302 24.7594C39.375 25.1289 39.2292 25.5355 39.2292 25.905V27.2724C39.2292 27.7529 39.3385 28.1963 39.5573 28.6029C39.776 29.0094 40.25 29.2311 40.9792 29.2311H46.0833C46.4844 29.2311 46.8125 29.342 47.1042 29.6007C47.3594 29.8224 47.5052 30.155 47.5052 30.5616C47.5052 31.005 47.3594 31.3376 47.1042 31.5963C46.849 31.855 46.5208 32.0029 46.0833 32.0029H43.0573C43.2396 32.2615 43.3125 32.5572 43.3125 32.8898V34.0355L43.276 34.0724ZM36.0208 45.9355C36.0208 44.3833 36.5677 43.0898 37.6979 42.092C38.7917 41.0942 40.1771 40.5768 41.7812 40.5768C43.3854 40.5768 44.6979 41.0942 45.7917 42.092C46.8854 43.0898 47.4688 44.3833 47.4688 45.9355C47.4688 47.4876 46.9219 48.8181 45.7917 49.8159C44.6979 50.8137 43.349 51.2942 41.7812 51.2942C40.2135 51.2942 38.8281 50.8137 37.6979 49.8159C36.6042 48.8181 36.0208 47.5246 36.0208 45.9355ZM38.901 45.9355C38.901 46.7485 39.1927 47.4137 39.7396 47.8942C40.2865 48.3746 40.9792 48.6333 41.7448 48.6333C42.5104 48.6333 43.1302 48.3746 43.6771 47.8942C44.1875 47.4137 44.4792 46.7485 44.4792 45.9355C44.4792 45.1224 44.224 44.4942 43.6771 43.9768C43.1667 43.4594 42.5104 43.2376 41.7448 43.2376C40.9792 43.2376 40.2865 43.4963 39.7396 43.9768C39.1927 44.4942 38.901 45.1224 38.901 45.9355Z" fill="white"/>
</g>
<defs>
<clipPath id="clip0_1485_3633">
<rect width="63" height="68" fill="white"/>
</clipPath>
</defs>
</svg>
