<svg width="285" height="31" viewBox="0 0 285 31" fill="none" xmlns="http://www.w3.org/2000/svg">
<g clip-path="url(#clip0_2006_2179)">
<path d="M12.5 28C19.4005 28 25 22.4005 25 15.5C25 8.59955 19.4005 3 12.5 3C5.59955 3 0 8.59955 0 15.5C0 22.4005 5.59955 28 12.5 28Z" fill="#8A979F"/>
<path d="M13.6038 17.8453V23.6429H15.5552V6.81593H13.6038V10.5772H11.2565C10.6626 9.05009 9.58799 8.00371 7.976 8.00371C5.28935 8.00371 4.10156 10.8883 4.10156 14.282C4.10156 17.6757 5.28935 20.6168 7.976 20.6168C9.64455 20.6168 10.7192 19.4856 11.3131 17.8171H13.5755L13.6038 17.8453ZM19.0903 6.47656H17.1106V24.4913H19.0903V6.47656ZM9.92735 14.3386C9.92735 16.9404 9.30518 18.8352 8.03256 18.8352C6.75993 18.8352 6.13776 16.9404 6.13776 14.3386C6.13776 11.7367 6.75993 9.81367 8.03256 9.81367C9.30518 9.81367 9.92735 11.7367 9.92735 14.3386ZM11.8787 14.3386C11.8787 13.6315 11.8222 12.8962 11.709 12.2175H13.6038V16.2333H11.7373C11.8222 15.6395 11.8787 14.989 11.8787 14.3386Z" fill="white"/>
</g>
<path d="M40.528 7.996V8.906C40.528 10.2407 40.268 11.4973 39.748 12.676C39.2453 13.8373 38.5087 14.8513 37.538 15.718C36.5673 16.5847 35.4233 17.226 34.106 17.642L32.884 15.64C34.0453 15.2933 35.042 14.782 35.874 14.106C36.706 13.4127 37.3387 12.6153 37.772 11.714C38.2227 10.8127 38.448 9.87667 38.448 8.906V7.996H40.528ZM40.996 7.996V8.906C40.996 9.80733 41.2127 10.674 41.646 11.506C42.0967 12.3207 42.7467 13.04 43.596 13.664C44.4453 14.288 45.442 14.7647 46.586 15.094L45.416 17.07C44.0813 16.6887 42.92 16.0993 41.932 15.302C40.944 14.4873 40.19 13.534 39.67 12.442C39.15 11.35 38.89 10.1713 38.89 8.906V7.996H40.996ZM45.858 6.644V8.672H33.534V6.644H45.858ZM40.996 3.914V7.398H38.448V3.914H40.996ZM50.07 10.414V12.494H45.182V10.414H50.07ZM51.968 4.018V17.928H49.42V4.018H51.968ZM44.324 18.474C46.716 18.474 48.5967 18.8467 49.966 19.592C51.3527 20.3373 52.046 21.3773 52.046 22.712C52.046 24.0467 51.3527 25.0953 49.966 25.858C48.5967 26.6207 46.716 27.002 44.324 27.002C41.8973 27.002 39.9907 26.6207 38.604 25.858C37.2347 25.0953 36.55 24.0467 36.55 22.712C36.55 21.3773 37.2347 20.3373 38.604 19.592C39.9907 18.8467 41.8973 18.474 44.324 18.474ZM44.324 20.424C43.2147 20.424 42.27 20.5193 41.49 20.71C40.71 20.8833 40.1207 21.1433 39.722 21.49C39.3233 21.8367 39.124 22.244 39.124 22.712C39.124 23.2147 39.3233 23.6393 39.722 23.986C40.1207 24.3327 40.71 24.5927 41.49 24.766C42.27 24.9393 43.2147 25.026 44.324 25.026C45.3987 25.026 46.326 24.9393 47.106 24.766C47.886 24.5927 48.484 24.3327 48.9 23.986C49.316 23.6393 49.524 23.2147 49.524 22.712C49.524 22.244 49.316 21.8367 48.9 21.49C48.484 21.1433 47.886 20.8833 47.106 20.71C46.326 20.5193 45.3987 20.424 44.324 20.424ZM63.2266 5.396V8.126C63.2266 10.414 62.6633 12.4247 61.5366 14.158C60.4273 15.8913 58.8673 17.1307 56.8566 17.876L55.4786 15.848C56.6573 15.432 57.6713 14.834 58.5206 14.054C59.3873 13.274 60.0373 12.3813 60.4706 11.376C60.9213 10.3533 61.1466 9.27 61.1466 8.126V5.396H63.2266ZM63.6686 5.396V8.152C63.6686 9.17467 63.8853 10.1627 64.3186 11.116C64.7693 12.052 65.4106 12.8927 66.2426 13.638C67.0746 14.3833 68.0626 14.9467 69.2066 15.328L67.9066 17.33C66.6066 16.8793 65.4799 16.2033 64.5266 15.302C63.5733 14.3833 62.8453 13.3173 62.3426 12.104C61.8573 10.8733 61.6146 9.556 61.6146 8.152V5.396H63.6686ZM73.6006 3.992V20.918H71.0526V3.992H73.6006ZM76.8766 10.908V13.04H72.8726V10.908H76.8766ZM74.5626 24.48V26.56H59.1446V24.48H74.5626ZM61.6926 19.306V25.546H59.1446V19.306H61.6926ZM97.3392 3.992V27.054H94.7912V3.992H97.3392ZM81.6352 19.462C83.8019 19.462 85.7519 19.41 87.4852 19.306C89.2186 19.202 91.0039 18.994 92.8412 18.682L93.1012 20.736C91.2292 21.0653 89.4092 21.2907 87.6412 21.412C85.8906 21.516 83.8886 21.568 81.6352 21.568H79.6852V19.462H81.6352ZM90.3452 6.098V14.574H82.2592V20.268H79.6852V12.494H87.7712V8.152H79.6332V6.098H90.3452ZM124.964 10.206V12.286H119.322V10.206H124.964ZM126.134 4.044V20.84H123.586V4.044H126.134ZM126.732 24.48V26.56H111.236V24.48H126.732ZM113.81 19.384V25.624H111.236V19.384H113.81ZM114.824 6.93V8.646C114.824 10.05 114.564 11.3847 114.044 12.65C113.524 13.9153 112.779 15.0247 111.808 15.978C110.855 16.914 109.711 17.616 108.376 18.084L107.076 16.056C108.237 15.6573 109.243 15.0767 110.092 14.314C110.959 13.5513 111.617 12.6847 112.068 11.714C112.519 10.726 112.744 9.70333 112.744 8.646V6.93H114.824ZM115.318 6.93V8.646C115.318 9.59933 115.535 10.5353 115.968 11.454C116.401 12.3727 117.025 13.196 117.84 13.924C118.672 14.6347 119.643 15.1807 120.752 15.562L119.504 17.564C118.204 17.1133 117.077 16.4373 116.124 15.536C115.188 14.6347 114.477 13.5947 113.992 12.416C113.507 11.2373 113.264 9.98067 113.264 8.646V6.93H115.318ZM120.154 5.76V7.814H107.83V5.76H120.154ZM150.653 17.85V19.956H129.801V17.85H150.653ZM141.501 18.526V27.054H138.927V18.526H141.501ZM148.391 13.716V15.77H132.531V13.716H148.391ZM148.131 5.058V7.086H135.053V14.262H132.531V5.058H148.131ZM147.611 9.348V11.35H134.299V9.348H147.611ZM154.423 28.328H152.603L153.513 22.738H156.087L154.423 28.328ZM186.808 15.406V17.434H166.034V15.406H186.808ZM177.682 12.39V16.004H175.134V12.39H177.682ZM176.408 18.89C178.886 18.89 180.819 19.254 182.206 19.982C183.592 20.6927 184.286 21.6893 184.286 22.972C184.286 24.2547 183.592 25.2427 182.206 25.936C180.819 26.6467 178.886 27.002 176.408 27.002C173.912 27.002 171.962 26.6467 170.558 25.936C169.171 25.2427 168.478 24.2547 168.478 22.972C168.478 21.672 169.171 20.6667 170.558 19.956C171.962 19.2453 173.912 18.89 176.408 18.89ZM176.408 20.866C174.674 20.866 173.348 21.048 172.43 21.412C171.528 21.7587 171.078 22.2787 171.078 22.972C171.078 23.4053 171.286 23.7867 171.702 24.116C172.118 24.428 172.716 24.6707 173.496 24.844C174.293 25 175.264 25.078 176.408 25.078C177.534 25.078 178.496 25 179.294 24.844C180.091 24.6707 180.698 24.428 181.114 24.116C181.53 23.7867 181.738 23.4053 181.738 22.972C181.738 22.2787 181.278 21.7587 180.36 21.412C179.441 21.048 178.124 20.866 176.408 20.866ZM171.286 4.642V6.956H181.582V4.642H184.13V13.222H168.764V4.642H171.286ZM171.286 11.194H181.582V8.906H171.286V11.194ZM200.406 16.966V22.504H197.884V16.966H200.406ZM199.158 5.37C200.788 5.37 202.235 5.63 203.5 6.15C204.783 6.65267 205.788 7.372 206.516 8.308C207.244 9.22667 207.608 10.3013 207.608 11.532C207.608 12.7627 207.244 13.846 206.516 14.782C205.788 15.7007 204.783 16.4113 203.5 16.914C202.235 17.4167 200.788 17.668 199.158 17.668C197.529 17.668 196.073 17.4167 194.79 16.914C193.508 16.4113 192.502 15.692 191.774 14.756C191.064 13.82 190.708 12.7453 190.708 11.532C190.708 10.3013 191.064 9.22667 191.774 8.308C192.502 7.372 193.508 6.65267 194.79 6.15C196.073 5.63 197.529 5.37 199.158 5.37ZM199.132 7.398C197.988 7.398 196.966 7.57133 196.064 7.918C195.163 8.26467 194.461 8.75 193.958 9.374C193.456 9.98067 193.204 10.7 193.204 11.532C193.204 12.3467 193.456 13.066 193.958 13.69C194.461 14.314 195.163 14.7993 196.064 15.146C196.966 15.4753 197.988 15.64 199.132 15.64C200.294 15.64 201.325 15.4753 202.226 15.146C203.128 14.7993 203.83 14.314 204.332 13.69C204.852 13.066 205.112 12.3467 205.112 11.532C205.112 10.7 204.852 9.98067 204.332 9.374C203.83 8.75 203.128 8.26467 202.226 7.918C201.325 7.57133 200.294 7.398 199.132 7.398ZM209.61 22.088V24.168H188.758V22.088H209.61ZM232.283 15.172V17.226H211.509V15.172H232.283ZM223.157 11.584V16.004H220.609V11.584H223.157ZM229.891 10.752V12.832H214.083V10.752H229.891ZM229.735 5.058V7.112H216.605V12.026H214.083V5.058H229.735ZM221.857 18.682C224.336 18.682 226.268 19.0547 227.655 19.8C229.059 20.528 229.761 21.5507 229.761 22.868C229.761 24.1853 229.059 25.208 227.655 25.936C226.268 26.664 224.336 27.028 221.857 27.028C219.361 27.028 217.411 26.664 216.007 25.936C214.62 25.208 213.927 24.1853 213.927 22.868C213.927 21.5507 214.62 20.528 216.007 19.8C217.411 19.0547 219.361 18.682 221.857 18.682ZM221.857 20.658C220.141 20.658 218.815 20.8487 217.879 21.23C216.96 21.6113 216.501 22.1573 216.501 22.868C216.501 23.5787 216.96 24.1247 217.879 24.506C218.798 24.87 220.124 25.052 221.857 25.052C223.573 25.052 224.89 24.87 225.809 24.506C226.728 24.1247 227.187 23.5787 227.187 22.868C227.187 22.1573 226.719 21.6113 225.783 21.23C224.864 20.8487 223.556 20.658 221.857 20.658ZM258.062 10.206V12.286H252.42V10.206H258.062ZM259.232 4.044V20.84H256.684V4.044H259.232ZM259.83 24.48V26.56H244.334V24.48H259.83ZM246.908 19.384V25.624H244.334V19.384H246.908ZM247.922 6.93V8.646C247.922 10.05 247.662 11.3847 247.142 12.65C246.622 13.9153 245.876 15.0247 244.906 15.978C243.952 16.914 242.808 17.616 241.474 18.084L240.174 16.056C241.335 15.6573 242.34 15.0767 243.19 14.314C244.056 13.5513 244.715 12.6847 245.166 11.714C245.616 10.726 245.842 9.70333 245.842 8.646V6.93H247.922ZM248.416 6.93V8.646C248.416 9.59933 248.632 10.5353 249.066 11.454C249.499 12.3727 250.123 13.196 250.938 13.924C251.77 14.6347 252.74 15.1807 253.85 15.562L252.602 17.564C251.302 17.1133 250.175 16.4373 249.222 15.536C248.286 14.6347 247.575 13.5947 247.09 12.416C246.604 11.2373 246.362 9.98067 246.362 8.646V6.93H248.416ZM253.252 5.76V7.814H240.928V5.76H253.252ZM283.75 17.85V19.956H262.898V17.85H283.75ZM274.598 18.526V27.054H272.024V18.526H274.598ZM281.488 13.716V15.77H265.628V13.716H281.488ZM281.228 5.058V7.086H268.15V14.262H265.628V5.058H281.228ZM280.708 9.348V11.35H267.396V9.348H280.708Z" fill="#727171"/>
<defs>
<clipPath id="clip0_2006_2179">
<rect width="25" height="25" fill="white" transform="translate(0 3)"/>
</clipPath>
</defs>
</svg>
