<svg width="76" height="76" viewBox="0 0 76 76" fill="none" xmlns="http://www.w3.org/2000/svg">
<mask id="mask0_321_152" style="mask-type:alpha" maskUnits="userSpaceOnUse" x="0" y="0" width="76" height="76">
<circle cx="38" cy="38" r="38" fill="#D9D9D9"/>
</mask>
<g mask="url(#mask0_321_152)">
</g>
<g clip-path="url(#clip0_321_152)">
<path d="M47.2837 59.5642V58.4946C47.2837 58.4946 47.4497 58.5173 47.5446 58.5173C48.0189 58.5173 48.4932 58.4263 48.9438 58.1987L56.6038 54.5118C57.5287 54.0566 58.1691 53.1917 58.3114 52.1903C58.4536 51.1889 58.0505 50.2103 57.2442 49.5503L45.9793 40.2191C43.6789 38.4212 41.26 37.5336 39.0781 37.5336C37.7264 37.5336 36.4695 37.8295 35.3548 38.3529C34.6908 38.2846 33.9793 38.3984 33.3627 38.7626L25.1098 43.6557L25.3706 36.7598C25.4418 35.0984 24.09 33.7101 22.3588 33.6418C20.6513 33.5963 19.1809 34.8708 19.1098 36.5322L18.6355 49.0496C18.588 50.1648 19.1809 51.189 20.177 51.7579C20.675 52.031 21.1967 52.1676 21.7422 52.1676C22.3113 52.1676 22.8805 52.0083 23.4023 51.7124L30.8963 47.2517V59.4732C39.4102 63.4788 47.26 59.4732 47.26 59.4732M47.2837 52.3041V49.2544L49.6078 51.189L47.2837 52.3041Z" fill="#FBDACF"/>
<path d="M38.984 61.9979C36.4701 61.9979 33.6006 61.5427 30.6598 60.1544C30.4464 60.0406 30.3041 59.8358 30.3041 59.5854V48.479L23.8061 52.3253C22.644 53.0308 21.0788 53.0536 19.9168 52.3708C18.7073 51.7108 17.9958 50.4591 18.0432 49.1163L18.5176 36.5989C18.5887 34.6188 20.2962 33.0712 22.4306 33.094C24.5176 33.1623 26.1539 34.8464 26.0828 36.8492L25.8693 42.5617L33.0788 38.283C33.7429 37.8961 34.5255 37.7141 35.3081 37.7596C38.7231 36.2575 42.8021 36.9175 46.4543 39.7851L57.7191 49.1163C58.6678 49.9129 59.1658 51.0963 58.9998 52.3025C58.8338 53.5088 58.0749 54.5557 56.9365 55.1019L49.2765 58.7888C48.8733 58.9937 48.4227 59.1075 47.9721 59.153V59.5854C47.9721 59.813 47.8298 60.0406 47.6164 60.1316C47.4029 60.2454 43.8693 61.9979 39.0077 61.9979H38.984ZM31.5848 59.1757C38.5808 62.271 45.0788 59.8358 46.6203 59.1757V58.5157C46.6203 58.3337 46.6915 58.1743 46.8338 58.0606C46.9761 57.9468 47.1183 57.9012 47.3318 57.9012C47.3318 57.9012 47.4978 57.9012 47.5215 57.924C47.9484 57.924 48.3278 57.8557 48.6599 57.6737L56.3199 53.9867C57.0551 53.6226 57.5768 52.9398 57.6717 52.1432C57.7666 51.3467 57.4583 50.5729 56.8417 50.0494L45.5768 40.7182C42.2804 38.1237 38.6757 37.5547 35.6638 38.943C35.5452 38.9886 35.4266 39.0113 35.3081 39.0113C34.7389 38.943 34.1934 39.0568 33.7191 39.3299L25.4662 44.2459C25.2764 44.3597 24.9919 44.3824 24.8021 44.2459C24.5887 44.1321 24.4701 43.9045 24.4701 43.6769L24.731 36.7809C24.7784 35.4609 23.7112 34.3685 22.3357 34.323H22.2646C20.9365 34.323 19.7982 35.3471 19.7508 36.6216L19.2764 49.1391C19.2527 50.0267 19.727 50.846 20.5097 51.2784C21.2923 51.7108 22.2883 51.7108 23.0709 51.2556L30.565 46.7949C30.7784 46.6811 31.0156 46.6811 31.229 46.7949C31.4425 46.9087 31.561 47.1135 31.561 47.3411V59.1757H31.5848ZM47.2844 52.9398C47.2844 52.9398 47.0472 52.917 46.9523 52.8488C46.7626 52.735 46.644 52.5301 46.644 52.3253V49.2756C46.644 49.0253 46.7863 48.7977 47.0235 48.7066C47.2606 48.6156 47.5215 48.6384 47.7112 48.7977L50.0353 50.7322C50.2014 50.8687 50.2725 51.0736 50.2488 51.2784C50.2251 51.4832 50.0828 51.6653 49.8931 51.7563L47.5689 52.8715C47.5689 52.8715 47.3792 52.9398 47.2844 52.9398ZM47.9484 50.6184V51.2784L48.4701 51.028L47.9484 50.5956V50.6184Z" fill="#3E3A39"/>
<path d="M41.0704 13.7064C34.1929 12.9782 28.0032 17.7348 27.2443 24.3349C26.604 30.0018 30.1613 35.1681 35.521 36.9888V38.2406C35.521 40.0841 37.0862 41.5861 38.9834 41.5861C40.8806 41.5861 42.4696 40.0841 42.4696 38.2406V37.353C47.521 36.2378 51.5289 32.1867 52.1217 26.9749C52.8806 20.3748 47.9241 14.4347 41.0466 13.7064" fill="white"/>
<path d="M39.0073 42.1994C36.7306 42.1994 34.8808 40.4242 34.8808 38.2393V37.42C29.3314 35.3262 25.9401 30.0006 26.6041 24.2654C26.9836 20.9198 28.7148 17.8928 31.4658 15.7763C34.193 13.6597 37.6318 12.7038 41.1417 13.068C44.6278 13.4321 47.782 15.0935 49.9875 17.7335C52.193 20.3736 53.1891 23.6736 52.8096 27.0192C52.2168 32.1855 48.3511 36.4641 43.1575 37.8297V38.2166C43.1575 40.4014 41.3077 42.1766 39.031 42.1766L39.0073 42.1994ZM39.6713 14.2514C36.9915 14.2514 34.4065 15.1163 32.2721 16.7549C29.8057 18.6667 28.2405 21.375 27.8847 24.4019C27.2681 29.682 30.4934 34.6207 35.7345 36.3959C35.9954 36.4869 36.1614 36.7145 36.1614 36.9876V38.2393C36.1614 39.7414 37.4183 40.9477 38.9836 40.9477C40.5488 40.9477 41.8057 39.7414 41.8057 38.2393V37.3517C41.8057 37.0559 42.0191 36.8055 42.3037 36.7373C47.2365 35.6676 50.9124 31.7075 51.4579 26.8826C51.8136 23.8557 50.9124 20.8743 48.9203 18.5073C46.9282 16.1404 44.1061 14.6383 40.9519 14.2969C40.5013 14.2514 40.0507 14.2287 39.6239 14.2287L39.6713 14.2514Z" fill="#3E3A39"/>
<path d="M35.664 25.5183C35.5929 26.1101 36.0197 26.6335 36.6126 26.6791C37.2055 26.7473 37.7272 26.3149 37.7984 25.7459C37.8695 25.1542 37.4427 24.6307 36.8498 24.5852C36.2569 24.517 35.7351 24.9494 35.664 25.5183Z" fill="#3E3A39"/>
<path d="M41.7597 26.1746C41.6886 26.7663 42.1154 27.2898 42.7083 27.3353C43.3012 27.4036 43.8229 26.9712 43.8941 26.4022C43.9652 25.8105 43.5384 25.287 42.9455 25.2415C42.3526 25.1732 41.8308 25.6056 41.7597 26.1746Z" fill="#3E3A39"/>
<path d="M42.185 30.8417C40.1218 31.5928 38.2482 31.3424 36.5645 30.25Z" fill="white"/>
<path d="M39.8844 31.755C38.6275 31.755 37.418 31.3909 36.2796 30.6398C36.0425 30.4805 35.9713 30.1619 36.1373 29.9343C36.3034 29.7067 36.6354 29.6384 36.8725 29.7978C38.4852 30.8447 40.1453 31.0267 42.0188 30.344C42.3034 30.2529 42.5879 30.3667 42.6828 30.6398C42.7777 30.8902 42.6591 31.1861 42.3745 31.2771C41.5207 31.573 40.6907 31.7323 39.8844 31.7323V31.755Z" fill="#3E3A39"/>
<path d="M37.537 23.2407C37.537 23.2407 37.5133 23.2407 37.4896 23.2407L35.9244 23.0813C35.711 23.0813 35.545 22.8765 35.5687 22.6717C35.5687 22.4668 35.7821 22.3075 35.9955 22.3303L37.5608 22.4896C37.7742 22.4896 37.9402 22.6944 37.9165 22.8993C37.9165 23.0813 37.7268 23.2407 37.537 23.2407Z" fill="#3E3A39"/>
<path d="M44.0585 23.9282C44.0585 23.9282 44.0348 23.9282 44.0111 23.9282L42.4459 23.7688C42.2324 23.7688 42.0664 23.564 42.0901 23.3592C42.0901 23.1543 42.2799 22.995 42.517 23.0178L44.0822 23.1771C44.2957 23.1771 44.4617 23.3819 44.438 23.5868C44.438 23.7688 44.2483 23.9282 44.0585 23.9282Z" fill="#3E3A39"/>
<path d="M41.072 13.7067C46.1945 14.2529 50.2498 17.6895 51.6728 22.1275C46.8585 21.6268 33.2222 20.2385 28.7637 19.7834C31.1352 15.6868 35.902 13.1605 41.072 13.7067Z" fill="white"/>
<path d="M51.6725 22.7389C51.6725 22.7389 51.625 22.7389 51.6013 22.7389C46.7871 22.2382 33.1507 20.8499 28.6922 20.3948C28.4788 20.3948 28.2891 20.2354 28.1942 20.0534C28.0993 19.8713 28.0993 19.6437 28.1942 19.4616C30.7792 15.0236 35.8306 12.5202 41.1428 13.0664C46.3602 13.6126 50.7476 17.0947 52.2891 21.9196C52.3602 22.1244 52.2891 22.3293 52.1705 22.5113C52.0519 22.6479 51.8622 22.7389 51.6725 22.7389ZM29.8543 19.2568C34.7396 19.7575 45.6013 20.8727 50.7001 21.3962C49.0875 17.5271 45.3642 14.7961 41.0005 14.3181C36.5895 13.8629 32.3207 15.7747 29.8543 19.2568Z" fill="#3E3A39"/>
<path d="M28.8581 34.2605C28.3838 33.8281 27.6012 33.8281 27.1506 34.3061L26.3443 35.1026C25.6802 33.8054 24.3047 33.0088 22.5735 32.895C20.0597 32.7357 17.8304 34.1467 17.6644 36.6275C17.4984 39.1082 19.3956 41.2475 21.9095 41.4068C24.0439 41.5434 25.8937 40.1779 26.534 38.2661L28.8818 35.8992C29.3324 35.444 29.3324 34.693 28.8344 34.2605" fill="white"/>
<path d="M22.1947 42.0411C22.1947 42.0411 21.9813 42.0411 21.8627 42.0411C19.0169 41.859 16.8351 39.401 17.0011 36.5789C17.1671 33.8934 19.4912 32.0726 22.5979 32.2547C24.2106 32.3457 25.5623 33.0058 26.4161 34.0754L26.6295 33.8478C26.9853 33.5065 27.4358 33.3016 27.9339 33.3016C28.4319 33.3016 28.9062 33.4609 29.2619 33.8023C29.6177 34.1209 29.8311 34.5761 29.8311 35.0541C29.8311 35.532 29.6651 35.9872 29.3094 36.3286L27.0564 38.5817C26.3212 40.6528 24.3528 42.0183 22.1473 42.0183L22.1947 42.0411ZM22.2185 33.5065C20.3924 33.5065 18.4714 34.4623 18.3054 36.6699C18.1631 38.8093 19.7995 40.6528 21.9576 40.7893C23.7362 40.8803 25.3489 39.7879 25.9181 38.081C25.9418 37.99 25.9892 37.8989 26.0604 37.8307L28.4082 35.4637C28.4082 35.4637 28.5742 35.2361 28.5505 35.0768C28.5505 34.9403 28.4793 34.8037 28.3845 34.6899C28.3845 34.6899 28.0762 34.5306 27.9813 34.5306C27.839 34.5306 27.6967 34.5989 27.5781 34.6899L26.7718 35.4865C26.6295 35.623 26.4161 35.7141 26.2026 35.6686C25.9892 35.6458 25.7995 35.5092 25.7046 35.3272C25.1355 34.2347 23.9734 33.552 22.4793 33.4609C22.3845 33.4609 22.2659 33.4609 22.171 33.4609L22.2185 33.5065Z" fill="#3E3A39"/>
<path d="M47.2851 59.135C46.9294 59.135 46.6211 58.8618 46.6211 58.4977V47.0044C46.6211 46.6631 46.9057 46.3672 47.2851 46.3672C47.6646 46.3672 47.9492 46.6403 47.9492 47.0044V58.4977C47.9492 58.8391 47.6646 59.135 47.2851 59.135Z" fill="#3E3A39"/>
</g>
<defs>
<clipPath id="clip0_321_152">
<rect width="42" height="49" fill="white" transform="translate(17 13)"/>
</clipPath>
</defs>
</svg>
