<svg width="76" height="76" viewBox="0 0 76 76" fill="none" xmlns="http://www.w3.org/2000/svg">
<mask id="mask0_321_208" style="mask-type:alpha" maskUnits="userSpaceOnUse" x="0" y="0" width="76" height="76">
<circle cx="38" cy="38" r="38" fill="#D9D9D9"/>
</mask>
<g mask="url(#mask0_321_208)">
</g>
<g clip-path="url(#clip0_321_208)">
<path d="M59.3266 52.371C59.3266 56.765 50.0389 60.3123 38.592 60.3123C27.145 60.3123 17.8574 56.765 17.8574 52.371C17.8574 47.977 27.145 44.4297 38.592 44.4297C50.0389 44.4297 59.3266 47.977 59.3266 52.371Z" fill="white"/>
<path d="M38.5915 60.999C26.5873 60.999 17.1836 57.2229 17.1836 52.394C17.1836 47.5652 26.5873 43.7891 38.5915 43.7891C50.5957 43.7891 59.9994 47.5652 59.9994 52.394C59.9994 57.2229 50.5957 60.999 38.5915 60.999ZM38.5915 45.0935C26.5873 45.0935 18.5303 48.8697 18.5303 52.3712C18.5303 55.8726 26.5873 59.6488 38.5915 59.6488C50.5957 59.6488 58.6527 55.8726 58.6527 52.3712C58.6527 48.8697 50.5957 45.0935 38.5915 45.0935Z" fill="#3E3A39"/>
<path d="M48.9937 49.9461C48.9937 52.7839 44.3267 55.0954 38.5916 55.0954C32.8565 55.0954 28.1895 52.7839 28.1895 49.9461C28.1895 47.1083 32.8565 44.7969 38.5916 44.7969C44.3267 44.7969 48.9937 47.1083 48.9937 49.9461Z" fill="white"/>
<path d="M38.5911 55.7587C32.3684 55.7587 27.5156 53.1955 27.5156 49.9457C27.5156 46.696 32.3684 44.1328 38.5911 44.1328C44.8138 44.1328 49.6665 46.696 49.6665 49.9457C49.6665 53.1955 44.7906 55.7587 38.5911 55.7587ZM38.5911 45.4602C33.3204 45.4602 28.8623 47.5199 28.8623 49.9457C28.8623 52.3716 33.3204 54.4313 38.5911 54.4313C43.8618 54.4313 48.3198 52.3716 48.3198 49.9457C48.3198 47.5199 43.8618 45.4602 38.5911 45.4602Z" fill="#3E3A39"/>
<path d="M45.0461 28.7734H23.1738C23.1738 28.7734 23.2435 38.4769 24.0329 42.665C24.7295 46.3267 28.4678 50.8351 36.7337 51.7963H40.4952C48.7612 50.8122 52.4994 46.3267 53.196 42.665C53.9854 38.4769 54.0551 28.7734 54.0551 28.7734H45.0461Z" fill="white"/>
<path d="M36.7354 52.444C28.0051 51.4141 24.1043 46.6082 23.3845 42.7634C22.595 38.5525 22.5254 29.1465 22.5254 28.7574C22.5254 28.5743 22.595 28.4141 22.7111 28.2768C22.8272 28.1395 23.013 28.0938 23.1987 28.0938H54.08C54.2658 28.0938 54.4283 28.1624 54.5676 28.2768C54.6837 28.4141 54.7534 28.5743 54.7534 28.7574C54.7534 29.1465 54.6837 38.5525 53.8943 42.7634C53.1745 46.5853 49.2505 51.4141 40.613 52.4211H36.7586L36.7354 52.444ZM23.8721 29.444C23.8953 31.7097 24.0578 39.0788 24.708 42.5345C25.3581 45.9216 28.9106 50.2012 36.8283 51.1166H40.5201C48.3681 50.1783 51.9206 45.8987 52.5708 42.5345C53.2209 39.0788 53.3834 31.6868 53.4067 29.444H23.8721Z" fill="#3E3A39"/>
<path d="M54.0087 28.6414C54.0087 25.9866 47.1126 23.8125 38.5912 23.8125C30.0699 23.8125 23.1738 25.9637 23.1738 28.6414C23.1738 29.8314 24.5205 30.907 26.7728 31.7309C29.3501 30.2433 33.6688 29.2593 38.568 29.2593C43.4672 29.2593 47.8092 30.2433 50.3633 31.7309C52.6155 30.8841 53.9622 29.8085 53.9622 28.6414" fill="white"/>
<path d="M50.3878 32.3942C50.2717 32.3942 50.1556 32.3713 50.0395 32.3027C47.4854 30.8151 43.1899 29.9226 38.5693 29.9226C33.9487 29.9226 29.6764 30.8151 27.0991 32.3027C26.9133 32.3942 26.7044 32.4171 26.5186 32.3484C23.1751 31.1126 22.4785 29.6479 22.4785 28.641C22.4785 25.0708 30.7677 23.1484 38.5693 23.1484C46.3709 23.1484 54.66 25.0708 54.66 28.641C54.66 29.6479 53.9635 31.1126 50.6199 32.3484C50.5503 32.3713 50.4574 32.3942 50.3878 32.3942ZM38.5925 24.4758C30.164 24.4758 23.8484 26.6728 23.8484 28.641C23.8484 29.3962 24.9165 30.2887 26.7276 30.9982C29.5139 29.4877 33.9023 28.5952 38.5925 28.5952C43.2827 28.5952 47.6711 29.4877 50.4574 30.9982C52.2685 30.2658 53.3366 29.3962 53.3366 28.641C53.3366 26.6728 47.0442 24.4758 38.5925 24.4758Z" fill="#3E3A39"/>
<path d="M26.7734 31.7295C29.6062 32.7822 33.832 33.4459 38.5687 33.4459C43.3054 33.4459 47.5544 32.7822 50.3639 31.7295C47.7866 30.2419 43.4679 29.2578 38.5687 29.2578C33.6695 29.2578 29.3275 30.2419 26.7734 31.7295Z" fill="#FBDACF"/>
<path d="M38.5914 34.1086C33.9476 34.1086 29.5592 33.4678 26.5408 32.3464C26.3086 32.2549 26.1228 32.026 26.0996 31.7743C26.0996 31.5226 26.2157 31.2708 26.4247 31.1335C29.1877 29.5315 33.7387 28.5703 38.5682 28.5703C43.3978 28.5703 47.9487 29.5315 50.7117 31.1335C50.9439 31.2708 51.06 31.4997 51.0368 31.7514C51.0368 32.0031 50.8511 32.232 50.5956 32.3235C47.5772 33.4449 43.1888 34.0857 38.545 34.0857L38.5914 34.1086ZM28.5608 31.6141C31.3007 32.3693 34.8532 32.8041 38.5914 32.8041C42.3297 32.8041 45.8822 32.3693 48.622 31.6141C46.0447 30.5614 42.4226 29.9434 38.5914 29.9434C34.7603 29.9434 31.1614 30.5614 28.5608 31.6141Z" fill="#3E3A39"/>
<path d="M34.3203 53.4919C34.3203 53.4919 30.7678 38.2959 16.6738 43.6511C16.6738 43.6511 20.4353 57.5884 33.3218 53.4461" fill="#FBDACF"/>
<path d="M28.7709 54.8914C26.8205 54.8914 24.9862 54.4337 23.3377 53.5412C17.9044 50.6347 16.0933 44.1123 16.0005 43.8377C15.9076 43.5173 16.0933 43.174 16.4184 43.0596C20.6443 41.4576 24.4057 41.4805 27.5635 43.1282C33.1825 46.0805 34.9007 53.0606 34.9704 53.3581C35.0633 53.7242 34.8311 54.0675 34.4596 54.1591C34.2042 54.2048 33.9488 54.1133 33.7862 53.9531C33.7166 54.0218 33.6237 54.0675 33.5308 54.1133C31.859 54.6397 30.2802 54.9143 28.7477 54.9143L28.7709 54.8914ZM17.5097 44.0665C18.067 45.6685 19.9477 50.2228 23.9646 52.374C26.5651 53.77 29.6532 53.9073 33.1129 52.8088C33.2057 52.7859 33.2986 52.7631 33.3915 52.7859C32.7646 50.8864 30.9071 46.3551 26.9134 44.2725C24.2664 42.8765 21.0854 42.8078 17.4865 44.0665H17.5097Z" fill="#3E3A39"/>
<path d="M23.7324 47.1094C23.7324 47.1094 33.5076 52.1213 36.7815 55.6228Z" fill="white"/>
<path d="M36.8045 56.2844C36.6188 56.2844 36.433 56.2157 36.3169 56.0784C33.1592 52.7142 23.5465 47.7481 23.4536 47.7023C23.1286 47.5421 22.9892 47.1302 23.175 46.8098C23.3375 46.4894 23.7555 46.352 24.0805 46.5351C24.4753 46.7411 33.995 51.6386 37.3154 55.1859C37.5708 55.4605 37.5476 55.8724 37.2689 56.1242C37.1296 56.2386 36.9671 56.3073 36.8045 56.3073V56.2844Z" fill="#3E3A39"/>
<path d="M32.6953 54.3417C32.6953 54.3417 39.3824 38.5507 52.7565 49.9019C52.7565 49.9019 46.1159 64.1825 33.7169 54.6621" fill="#FBDACF"/>
<path d="M41.9122 58.6171C39.1491 58.6171 36.2468 57.4728 33.2979 55.2071C33.2051 55.1156 33.1122 55.0241 33.089 54.9096C32.9032 55.0241 32.671 55.0698 32.4388 54.9783C32.0906 54.841 31.928 54.4519 32.0673 54.1086C32.1834 53.8111 35.2251 46.831 41.3549 45.4121C45.0468 44.5425 49.0172 45.8927 53.1734 49.4171C53.4056 49.6002 53.4752 49.9206 53.3359 50.1952C53.2198 50.4698 50.1549 56.9007 44.2109 58.3425C43.4446 58.5255 42.6784 58.6171 41.889 58.6171H41.9122ZM33.7159 53.9942C33.8552 53.9942 34.0177 54.04 34.1338 54.1315C37.5935 56.7862 40.8906 57.7474 43.9322 57.038C48.3903 55.9624 51.1301 51.4997 51.9196 50.0808C48.2742 47.1056 44.8146 45.9614 41.68 46.6937C37.1755 47.7464 34.4589 52.3693 33.5998 54.0171C33.623 54.0171 33.6694 54.0171 33.7159 54.0171V53.9942Z" fill="#3E3A39"/>
<path d="M44.815 51.1328C44.815 51.1328 33.786 53.101 29.7227 55.8244Z" fill="white"/>
<path d="M29.7229 56.4683C29.514 56.4683 29.305 56.3767 29.1657 56.1708C28.9567 55.8733 29.0264 55.4613 29.3514 55.2554C33.4844 52.5091 44.258 50.5638 44.6992 50.4723C45.0707 50.4036 45.419 50.6554 45.4886 50.9986C45.5583 51.3648 45.3029 51.7081 44.9546 51.7767C44.8385 51.7767 34.0184 53.7449 30.1177 56.3539C30.0016 56.4225 29.8622 56.4683 29.7462 56.4683H29.7229Z" fill="#3E3A39"/>
<path d="M41.5865 26.8291C41.4007 26.8291 41.215 26.7604 41.0757 26.6002C40.8435 26.3256 40.8667 25.9137 41.1453 25.6619C41.1453 25.6619 42.0973 24.8152 42.1437 23.6709C42.167 22.9385 41.8187 22.2062 41.0989 21.4739C40.0308 20.3982 39.5664 19.2769 39.7058 18.1326C39.9379 16.2788 41.7258 15.1346 41.7955 15.0888C42.1205 14.8828 42.5153 14.9972 42.7242 15.2948C42.9332 15.5923 42.8403 16.0042 42.5153 16.2102C42.5153 16.2102 41.1918 17.057 41.0525 18.2928C40.9596 19.0251 41.3079 19.7803 42.0741 20.5584C43.0725 21.5654 43.5369 22.641 43.4904 23.7624C43.4208 25.4788 42.0973 26.646 42.0277 26.6918C41.9116 26.8062 41.749 26.852 41.5865 26.852V26.8291Z" fill="#3E3A39"/>
<path d="M34.3189 26.8291C34.1332 26.8291 33.9474 26.7604 33.8081 26.6002C33.5759 26.3256 33.5991 25.9137 33.8778 25.6619C33.8778 25.6619 34.8297 24.8152 34.8762 23.6709C34.8994 22.9385 34.5511 22.2062 33.8313 21.4739C32.7632 20.3982 32.2989 19.2769 32.4382 18.1326C32.6704 16.2788 34.4582 15.1346 34.5279 15.0888C34.853 14.8828 35.2477 14.9972 35.4566 15.2948C35.6656 15.5923 35.5495 16.0042 35.2477 16.2102C35.2477 16.2102 33.9242 17.057 33.7849 18.2928C33.692 19.0251 34.0403 19.7803 34.8065 20.5584C35.8049 21.5654 36.2693 22.641 36.2229 23.7624C36.1532 25.4788 34.8297 26.646 34.7601 26.6918C34.6208 26.8062 34.4814 26.852 34.3189 26.852V26.8291Z" fill="#3E3A39"/>
</g>
<defs>
<clipPath id="clip0_321_208">
<rect width="44" height="46" fill="white" transform="translate(16 15)"/>
</clipPath>
</defs>
</svg>
