<svg width="76" height="76" viewBox="0 0 76 76" fill="none" xmlns="http://www.w3.org/2000/svg">
<mask id="mask0_321_238" style="mask-type:alpha" maskUnits="userSpaceOnUse" x="0" y="0" width="76" height="76">
<circle cx="38" cy="38" r="38" fill="#D9D9D9"/>
</mask>
<g mask="url(#mask0_321_238)">
<path d="M41.2598 56.7422L43.2701 43.9735C43.2701 40.2843 46.2082 37.2578 49.7869 37.2578C53.3657 37.2578 56.3038 40.2843 56.3038 43.9735L58.3141 56.7422C53.7633 59.4373 44.6618 58.9734 41.2819 56.7422" fill="#FBDACF"/>
<path d="M49.8097 59.1892C46.2751 59.1892 42.8068 58.4823 40.9291 57.2452C40.7302 57.1126 40.6198 56.8917 40.664 56.6487L42.6743 43.88C42.6743 39.9257 45.8554 36.6562 49.7876 36.6562C53.7198 36.6562 56.9009 39.9478 56.9009 43.9905L58.8891 56.6708C58.9333 56.9138 58.8229 57.1568 58.602 57.2894C56.3708 58.6148 53.035 59.2113 49.7876 59.2113L49.8097 59.1892ZM41.9232 56.4499C45.3252 58.3497 53.4105 58.6811 57.652 56.4499L55.708 44.101C55.708 40.6327 53.035 37.8934 49.7876 37.8934C46.5402 37.8934 43.8672 40.6327 43.8672 44.0126L41.9232 56.472V56.4499Z" fill="#3E3A39"/>
<path d="M33.7496 25.7656H15.1931C12.7852 33.9835 18.7056 36.8775 16.7837 39.4621C14.5083 43.9245 21.3344 47.0173 24.4714 44.8524C27.6083 46.9952 34.4566 43.9024 32.1812 39.4621C30.2372 36.8775 36.1797 33.9835 33.7717 25.7656" fill="white"/>
<path d="M26.9671 46.1571C26.0834 46.1571 25.2219 45.9804 24.4708 45.5606C22.2838 46.7536 19.0585 46.0025 17.2912 44.434C15.6564 42.9981 15.2588 41.0761 16.2308 39.1763C16.8493 38.3368 16.4959 37.5636 15.7448 35.9952C14.6402 33.7419 13.138 30.627 14.6181 25.5903C14.6844 25.3252 14.9274 25.1484 15.1925 25.1484H33.7491C34.0141 25.1484 34.2571 25.3252 34.3234 25.5903C35.8035 30.627 34.3013 33.7198 33.1968 35.9952C32.4236 37.5636 32.0922 38.3589 32.6445 39.11C33.6607 41.0982 33.2851 42.9981 31.6504 44.4561C30.4796 45.4944 28.6902 46.1792 26.9671 46.1792V46.1571ZM24.4708 44.2573C24.5812 44.2573 24.7138 44.3014 24.8021 44.3677C26.3264 45.406 29.1541 45.0304 30.8551 43.5503C31.562 42.9318 32.6003 41.6063 31.6283 39.7507C30.6563 38.4694 31.3411 37.0776 32.1143 35.4871C33.0863 33.4547 34.4339 30.7154 33.2851 26.3855H15.6564C14.5077 30.7154 15.8552 33.4768 16.8273 35.4871C17.6004 37.0776 18.2853 38.4694 17.247 39.839C16.3412 41.6284 17.3795 42.9539 18.0864 43.5503C19.7654 45.0304 22.593 45.4281 24.1394 44.3677C24.2499 44.3014 24.3603 44.2573 24.4708 44.2573Z" fill="#3E3A39"/>
<path d="M17.8438 55.8583V43.7082C17.8438 40.0852 20.804 37.125 24.4269 37.125C28.0498 37.125 30.988 40.0852 30.988 43.7082V55.8583C27.8952 58.708 20.4505 58.7964 17.8438 55.8583Z" fill="white"/>
<path d="M24.2048 58.6302C23.9618 58.6302 23.7188 58.6302 23.4758 58.6302C20.8249 58.4976 18.6157 57.6361 17.4007 56.2664C17.3124 56.156 17.2461 56.0234 17.2461 55.8688V43.7187C17.2461 39.7644 20.4714 36.5391 24.4257 36.5391C28.38 36.5391 31.6053 39.7644 31.6053 43.7187V55.8688C31.6053 56.0455 31.5391 56.2002 31.4065 56.3106C29.8159 57.7686 27.0987 58.6302 24.2048 58.6302ZM18.439 55.6258C19.4773 56.6641 21.3109 57.3047 23.52 57.4152C26.193 57.5698 28.866 56.8408 30.3903 55.5816V43.6966C30.3903 40.405 27.7173 37.732 24.4257 37.732C21.1341 37.732 18.4611 40.405 18.4611 43.6966V55.6037L18.439 55.6258Z" fill="#3E3A39"/>
<path d="M34.2579 27.1527C34.1696 21.7846 29.7513 17.4989 24.3832 17.5873C19.0151 17.6756 14.7294 22.0939 14.8177 27.462C14.884 31.9023 17.9105 35.5915 21.9974 36.674V37.2705C21.9974 38.4855 24.7808 41.9538 24.7808 41.9538C24.7808 41.9538 27.1446 38.4192 27.3434 36.5856C31.3861 35.3706 34.3242 31.571 34.2579 27.1306" fill="white"/>
<path d="M24.7796 42.5815C24.6028 42.5815 24.4261 42.4932 24.3157 42.3606C23.6308 41.4991 21.3996 38.6272 21.3996 37.3017V37.1471C17.2023 35.7995 14.2863 31.8894 14.22 27.4712C14.1317 21.7938 18.6824 17.0884 24.3819 17C24.4261 17 24.4924 17 24.5587 17C27.2538 17 29.7943 18.0383 31.7383 19.916C33.7265 21.838 34.831 24.4005 34.8752 27.1619C34.9415 31.6243 32.0917 35.667 27.8723 37.0808C27.4305 38.6493 25.5749 42.5815 24.8017 42.5815H24.7796ZM24.5366 18.1929H24.3819C19.3672 18.2813 15.3467 22.4344 15.4129 27.4712C15.4792 31.5139 18.2406 35.0705 22.1507 36.1309C22.4158 36.1972 22.5926 36.4402 22.5926 36.7053V37.3017C22.5926 37.854 23.6308 39.4888 24.7354 40.9468C25.3981 39.8422 26.6131 37.7215 26.7457 36.5506C26.7678 36.3076 26.9445 36.1088 27.1654 36.0425C31.0314 34.8717 33.7044 31.2267 33.6381 27.184C33.5939 24.754 32.6219 22.4786 30.8767 20.7776C29.1536 19.1207 26.9224 18.215 24.5366 18.215V18.1929Z" fill="#3E3A39"/>
<path d="M29.6393 28.0582C29.6393 28.5442 29.2858 28.9198 28.8219 28.9419C28.358 28.9419 27.9824 28.5663 27.9824 28.1024C27.9824 27.6385 28.3359 27.2408 28.7998 27.2188C29.2637 27.2188 29.6393 27.5943 29.6393 28.0582Z" fill="#3E3A39"/>
<path d="M25.6861 28.1285C25.6861 28.6145 25.3327 28.9901 24.8688 29.0122C24.4048 29.0122 24.0293 28.6366 24.0293 28.1727C24.0293 27.7088 24.3828 27.3112 24.8467 27.2891C25.3106 27.2891 25.6861 27.6646 25.6861 28.1285Z" fill="#3E3A39"/>
<path d="M24.0059 30.9397C24.8674 33.3476 28.0485 33.6348 28.888 30.7188L24.0059 30.9397Z" fill="white"/>
<path d="M26.48 33.3115C25.1987 33.3115 24.0279 32.4279 23.564 31.1024C23.5198 30.9478 23.5419 30.7931 23.6082 30.6606C23.6965 30.528 23.8291 30.4618 23.9837 30.4397L28.8659 30.2188C29.0205 30.2188 29.1751 30.285 29.2635 30.3955C29.3519 30.528 29.3961 30.6827 29.3519 30.8373C28.9321 32.3395 27.8939 33.2452 26.5684 33.2894C26.5463 33.2894 26.5021 33.2894 26.48 33.2894V33.3115ZM24.779 31.3896C25.1987 31.986 25.8173 32.3395 26.5242 32.3395C27.209 32.3395 27.7834 31.9198 28.1369 31.2349L24.7569 31.3896H24.779Z" fill="#3E3A39"/>
<path d="M24.3814 17.5873C20.3829 17.6535 16.9808 20.1278 15.5449 23.5961C17.2238 23.5961 22.6362 23.5519 25.7952 23.5077C26.2591 23.5077 27.1869 21.6741 27.1869 21.6741C27.1869 21.6741 28.0706 23.4856 28.4903 23.4856C31.4947 23.4414 31.9144 23.4193 33.3945 23.3972C31.8924 19.9289 28.402 17.521 24.3814 17.5873Z" fill="white"/>
<path d="M15.5456 24.2017C15.3468 24.2017 15.1701 24.1133 15.0375 23.9366C14.905 23.7599 14.905 23.5611 14.9713 23.3622C16.5839 19.5626 20.251 17.0663 24.3821 17C24.3821 17 24.4925 17 24.5367 17C28.6236 17 32.3128 19.4079 33.9696 23.1413C34.058 23.3181 34.0359 23.539 33.9255 23.7157C33.815 23.8924 33.6383 23.9808 33.4174 23.9808C32.7988 23.9808 32.3791 23.9808 31.871 24.0029C31.142 24.0029 30.2804 24.0471 28.491 24.0692C28.2038 24.0913 27.8283 23.9587 27.1656 22.8983C26.4145 24.0913 26.0168 24.0913 25.7959 24.0913C24.0949 24.0913 21.7091 24.1354 19.6325 24.1354C17.8652 24.1354 16.2967 24.1575 15.5456 24.1796V24.2017ZM24.3821 18.1929C21.0684 18.2371 18.064 20.0928 16.4956 22.9867C17.335 22.9867 18.4396 22.9867 19.6325 22.9646C21.6649 22.9646 23.9844 22.9204 25.6855 22.9204C25.8401 22.7658 26.1936 22.3019 26.6575 21.4403C26.8563 21.0427 27.5411 21.0648 27.762 21.4403C28.2259 22.3461 28.5131 22.7437 28.6457 22.8762C30.3246 22.8762 31.1641 22.8321 31.871 22.81C32.0698 22.81 32.2686 22.81 32.4674 22.81C30.8327 19.9381 27.762 18.1487 24.4042 18.1929H24.3821Z" fill="#3E3A39"/>
<path d="M28.0723 25.823C28.0723 25.823 28.7129 25.5358 29.3315 25.823Z" fill="white"/>
<path d="M28.0711 26.1687C27.9386 26.1687 27.806 26.0803 27.7397 25.9478C27.6514 25.7711 27.7397 25.5501 27.9165 25.4618C27.9386 25.4618 28.7118 25.1083 29.4849 25.4618C29.6617 25.5501 29.75 25.7711 29.6617 25.9478C29.5733 26.1245 29.3524 26.2129 29.1757 26.1245C28.7118 25.9036 28.2037 26.1245 28.2037 26.1245C28.1595 26.1245 28.1153 26.1466 28.049 26.1466L28.0711 26.1687Z" fill="#3E3A39"/>
<path d="M23.7852 25.823C23.7852 25.823 24.4258 25.5358 25.0444 25.823Z" fill="white"/>
<path d="M23.786 26.1687C23.6534 26.1687 23.5209 26.0803 23.4546 25.9478C23.3662 25.7711 23.4546 25.5501 23.6313 25.4618C23.6534 25.4618 24.4266 25.1083 25.1998 25.4618C25.3765 25.5501 25.4649 25.7711 25.3765 25.9478C25.2882 26.1245 25.0672 26.2129 24.8905 26.1245C24.4266 25.9036 23.9185 26.1245 23.9185 26.1245C23.8743 26.1245 23.8301 26.1466 23.7639 26.1466L23.786 26.1687Z" fill="#3E3A39"/>
<path d="M56.5457 31.3281C56.5457 31.3281 63.173 34.6639 61.4278 41.6889C61.4278 41.6889 55.154 40.4738 55.6841 31.9909" fill="white"/>
<path d="M61.4291 42.304C61.4291 42.304 61.3628 42.304 61.3186 42.304C61.2523 42.304 54.5366 40.8902 55.0889 31.9654C55.0889 31.634 55.3098 31.4131 55.7296 31.4131C55.8179 31.4131 55.8842 31.4352 55.9726 31.4794C55.9505 31.3468 55.9726 31.2143 56.0168 31.1038C56.1714 30.8167 56.5248 30.6841 56.812 30.8388C56.8783 30.8829 63.8591 34.4838 62.0255 41.8843C61.9593 42.1494 61.7163 42.3482 61.4512 42.3482L61.4291 42.304ZM56.2818 31.877C56.2818 31.877 56.2818 31.9654 56.2818 32.0317C55.8842 38.4602 59.5292 40.4263 60.9873 40.9565C62.0918 34.9035 56.5248 32.0096 56.2818 31.8991V31.877Z" fill="#3E3A39"/>
<path d="M59.3966 27.1527C59.3082 21.7846 54.89 17.4989 49.5219 17.5873C44.1537 17.6756 39.8681 22.0939 39.9564 27.462C40.0227 31.9023 43.0492 35.5915 47.136 36.674V37.2705C47.136 38.4855 48.7929 42.0863 48.7929 42.0863C48.7929 42.0863 52.1728 38.4413 52.4821 36.6077C56.5469 35.3927 59.4629 31.5931 59.3966 27.1527Z" fill="white"/>
<path d="M48.7936 42.7141C48.5506 42.7141 48.3518 42.5815 48.2414 42.3606C48.0646 41.9851 46.5403 38.6051 46.5403 37.3017V37.1471C42.3651 35.8216 39.427 31.9115 39.3607 27.4933C39.3165 24.7319 40.3548 22.1251 42.2768 20.159C44.1987 18.1487 46.7613 17.0442 49.5226 17C49.5668 17 49.6331 17 49.6994 17C52.3945 17 54.935 18.0383 56.879 19.916C58.8672 21.838 59.9717 24.4005 60.0159 27.1619C60.0822 31.6464 57.2104 35.6891 52.991 37.1029C52.3724 38.826 49.5447 42.7141 48.8157 42.7141H48.7936ZM49.6994 18.1929H49.5447C47.1147 18.2371 44.8393 19.2091 43.1383 20.9543C41.4373 22.6995 40.5316 24.997 40.5757 27.4491C40.642 31.4918 43.4034 35.0484 47.3135 36.1088C47.5786 36.1751 47.7554 36.4181 47.7554 36.6832V37.2797C47.7554 37.9203 48.396 39.6655 48.9704 41.013C49.9645 39.8643 51.6876 37.6552 51.8864 36.5065C51.9306 36.2855 52.0852 36.0867 52.3061 36.0205C56.1942 34.8496 58.8672 31.2046 58.8009 27.1619C58.7567 24.7319 57.7847 22.4565 56.0395 20.7555C54.3164 19.0987 52.0852 18.1929 49.6994 18.1929Z" fill="#3E3A39"/>
<path d="M51.024 27.816C51.024 28.302 50.6706 28.6776 50.2066 28.6997C49.7427 28.6997 49.3672 28.3241 49.3672 27.8602C49.3672 27.3963 49.7206 26.9987 50.1846 26.9766C50.6485 26.9766 51.024 27.3521 51.024 27.816Z" fill="#3E3A39"/>
<path d="M47.0689 27.8694C47.0689 28.3554 46.7155 28.7309 46.2516 28.7309C45.7877 28.7309 45.4121 28.3554 45.4121 27.8915C45.4121 27.4275 45.7656 27.0299 46.2295 27.0078C46.6934 27.0078 47.0689 27.3834 47.0689 27.8473" fill="#3E3A39"/>
<path d="M46.3633 31.3553C47.6446 32.0623 48.8375 31.996 49.9641 31.2891Z" fill="white"/>
<path d="M48.1301 32.3405C47.4673 32.3405 46.8046 32.1638 46.1198 31.7882C45.8768 31.6557 45.7884 31.3685 45.9209 31.1255C46.0535 30.8825 46.3407 30.7941 46.5837 30.9267C47.6661 31.5231 48.6823 31.5011 49.6985 30.8825C49.9415 30.7279 50.2287 30.8162 50.3613 31.0371C50.4938 31.2581 50.4275 31.5673 50.2066 31.6999C49.5218 32.1196 48.8149 32.3405 48.108 32.3405H48.1301Z" fill="#3E3A39"/>
<path d="M49.5435 17.5873C45.545 17.6536 42.143 20.1278 40.707 23.5961C44.4625 23.5519 55.1104 23.4193 58.5788 23.3752C57.0545 19.9069 53.5641 17.521 49.5435 17.5873Z" fill="white"/>
<path d="M40.7077 24.2017C40.5089 24.2017 40.3322 24.1133 40.1996 23.9366C40.0671 23.7599 40.0671 23.5611 40.1334 23.3622C41.7239 19.5626 45.4132 17.0663 49.5221 17C49.5221 17 49.6326 17 49.6767 17C53.7636 17 57.4528 19.4079 59.1097 23.1413C59.198 23.3181 59.1759 23.539 59.0655 23.7157C58.955 23.8924 58.7783 23.9808 58.5574 23.9808L40.6857 24.2017H40.7077ZM49.5442 18.1929C46.2084 18.2371 43.204 20.0928 41.6577 22.9867L57.6075 22.7879C55.9948 19.9602 52.9904 18.1929 49.6767 18.1929H49.5221H49.5442Z" fill="#3E3A39"/>
<path d="M49.4551 25.5495C49.4551 25.5495 50.0957 25.2623 50.7143 25.5495Z" fill="white"/>
<path d="M49.4559 25.9265C49.3233 25.9265 49.1908 25.8381 49.1245 25.7056C49.0361 25.5289 49.1245 25.308 49.3012 25.2196C49.3233 25.2196 50.0965 24.8661 50.8697 25.2196C51.0464 25.308 51.1348 25.5289 51.0464 25.7056C50.9581 25.8823 50.7372 25.9707 50.5604 25.8823C50.0965 25.6614 49.5884 25.8823 49.5884 25.8823C49.5442 25.8823 49.5001 25.9044 49.4338 25.9044L49.4559 25.9265Z" fill="#3E3A39"/>
<path d="M45.1934 25.5495C45.1934 25.5495 45.834 25.2623 46.4526 25.5495Z" fill="white"/>
<path d="M46.452 25.9265C46.452 25.9265 46.3415 25.9265 46.2974 25.9044C45.8335 25.7056 45.3254 25.9044 45.3254 25.9044C45.1265 25.9928 44.9277 25.9044 44.8394 25.7056C44.751 25.5289 44.8394 25.308 45.0161 25.2196C45.0382 25.2196 45.8335 24.8661 46.5846 25.2196C46.7613 25.308 46.8496 25.5289 46.7613 25.7056C46.695 25.8381 46.5625 25.9265 46.4299 25.9265H46.452Z" fill="#3E3A39"/>
<path d="M22.5703 43.4648L28.0268 46.9993L32.8206 41.4766L37.0179 45.0774L30.2138 52.5442C29.4186 53.4058 28.1152 53.5604 27.1653 52.8756L20.2949 48.0155" fill="white"/>
<path d="M28.4908 53.8961C27.9164 53.8961 27.3199 53.7193 26.8118 53.3659L19.9415 48.5058C19.6764 48.307 19.6101 47.9315 19.809 47.6664C20.0078 47.4013 20.3833 47.335 20.6484 47.5338L27.5188 52.3939C28.2257 52.8799 29.1977 52.7915 29.7721 52.1509L36.1564 45.148L32.8869 42.3203L28.4908 47.3792C28.292 47.6001 27.9606 47.6443 27.7176 47.4896L22.2611 43.9551C21.9739 43.7783 21.9076 43.4028 22.0843 43.1156C22.2611 42.8284 22.6366 42.7621 22.9238 42.9389L27.9385 46.1863L32.3788 41.0611C32.5997 40.8181 32.9753 40.7739 33.2183 40.9948L37.4156 44.5957C37.5481 44.7062 37.6144 44.8608 37.6144 45.0154C37.6144 45.1701 37.5702 45.3468 37.4598 45.4573L30.6557 52.9241C30.0813 53.5426 29.2861 53.874 28.4908 53.874V53.8961Z" fill="#3E3A39"/>
<path d="M40.1333 38.9661H35.5605C35.5605 38.9661 35.5163 38.9661 35.4721 38.9661C35.3616 38.9661 35.2512 38.9219 35.1407 38.9219C33.02 38.9219 31.2969 40.645 31.2969 42.7657C31.2969 44.8865 33.02 46.6096 35.1407 46.6096C37.2615 46.6096 38.9846 44.8865 38.9846 42.7657C38.9846 42.2135 38.8741 41.6833 38.6532 41.2194H40.1112C40.7298 41.2194 41.26 40.7113 41.26 40.0706C41.26 39.43 40.7519 38.9219 40.1112 38.9219" fill="white"/>
<path d="M35.163 47.2478C32.7109 47.2478 30.7227 45.2596 30.7227 42.8075C30.7227 40.3554 32.7109 38.3672 35.163 38.3672C35.2734 38.3672 35.3618 38.3672 35.4502 38.3893C35.4722 38.3893 35.5164 38.3893 35.5606 38.3893H40.1335C41.1055 38.3893 41.8787 39.1625 41.8787 40.1345C41.8787 41.1065 41.1055 41.8797 40.1335 41.8797H39.5149C39.5812 42.189 39.6254 42.4982 39.6254 42.8296C39.6254 45.2817 37.6372 47.2699 35.1851 47.2699L35.163 47.2478ZM35.2734 39.5601C33.3736 39.5601 31.9156 41.0181 31.9156 42.7854C31.9156 44.5527 33.3736 46.0328 35.163 46.0328C36.9524 46.0328 38.4104 44.5748 38.4104 42.7854C38.4104 42.3436 38.322 41.9018 38.1453 41.482C38.0569 41.3053 38.079 41.0844 38.1895 40.9077C38.2999 40.7309 38.4987 40.6426 38.6976 40.6426H40.1556C40.4427 40.6426 40.7078 40.3996 40.7078 40.1124C40.7078 39.8252 40.4648 39.5601 40.1556 39.5601H35.3176C35.3176 39.5601 35.3176 39.5601 35.2955 39.5601H35.2734Z" fill="#3E3A39"/>
<path d="M54.0951 58.1956C53.7637 58.1956 53.4766 57.9305 53.4766 57.577V49.2045C53.4766 48.8731 53.7417 48.5859 54.0951 48.5859C54.4486 48.5859 54.7137 48.851 54.7137 49.2045V57.577C54.7137 57.9084 54.4486 58.1956 54.0951 58.1956Z" fill="#3E3A39"/>
<path d="M44.64 58.0078C44.3087 58.0078 44.0215 57.7427 44.0215 57.3892V50.1654C44.0215 49.8341 44.2866 49.5469 44.64 49.5469C44.9935 49.5469 45.2586 49.812 45.2586 50.1654V57.3892C45.2586 57.7206 44.9935 58.0078 44.64 58.0078Z" fill="#3E3A39"/>
</g>
</svg>
