<svg width="76" height="76" viewBox="0 0 76 76" fill="none" xmlns="http://www.w3.org/2000/svg">
<mask id="mask0_321_337" style="mask-type:alpha" maskUnits="userSpaceOnUse" x="0" y="0" width="76" height="76">
<circle cx="38" cy="38" r="38" fill="#D9D9D9"/>
</mask>
<g mask="url(#mask0_321_337)">
<path d="M58.9489 50.1578C58.9489 54.3993 50.1124 57.8234 39.2215 57.8234C28.3306 57.8234 19.4941 54.3993 19.4941 50.1578C19.4941 45.9163 28.3306 42.4922 39.2215 42.4922C50.1124 42.4922 58.9489 45.9163 58.9489 50.1578Z" fill="white"/>
<path d="M39.2196 58.4641C27.7985 58.4641 18.8516 54.8191 18.8516 50.1578C18.8516 45.4966 27.7985 41.8516 39.2196 41.8516C50.6407 41.8516 59.5876 45.4966 59.5876 50.1578C59.5876 54.8191 50.6407 58.4641 39.2196 58.4641ZM39.2196 43.1108C27.7985 43.1108 20.1328 46.7558 20.1328 50.1357C20.1328 53.5157 27.7985 57.1607 39.2196 57.1607C50.6407 57.1607 58.3063 53.5157 58.3063 50.1357C58.3063 46.7558 50.6407 43.1108 39.2196 43.1108Z" fill="#3E3A39"/>
<path d="M27.9983 46.34C22.8732 46.34 18.7863 44.3739 16.7539 40.8393C15.2738 38.2767 15.2959 35.3386 16.8202 33.3283C18.8967 30.589 21.9011 30.4785 25.8113 32.9969C25.8996 33.0632 25.988 33.1074 26.0543 33.1516C26.7391 33.3946 27.2251 34.0573 27.2251 34.8305C27.2251 35.8246 26.4298 36.6199 25.4357 36.6199C24.8393 36.6199 24.4416 36.3548 23.8893 36.0013C21.3047 34.3445 20.3989 34.5654 19.692 35.4932C19.0514 36.3327 19.1398 37.7686 19.8908 39.0499C20.5094 40.1103 23.0278 43.5123 30.2295 42.6287C31.2236 42.5182 32.1072 43.203 32.2177 44.1971C32.3282 45.1691 31.6433 46.0749 30.6492 46.1853C29.7435 46.2958 28.8819 46.34 28.0204 46.34" fill="white"/>
<path d="M27.9985 46.9922C22.6304 46.9922 18.3226 44.8714 16.1798 41.1601C14.5671 38.3766 14.6113 35.1513 16.2903 32.9422C17.8808 30.8436 20.8631 29.0763 26.1208 32.4562L26.3638 32.6109C27.2033 32.898 27.8218 33.8259 27.8218 34.82C27.8218 36.1675 26.7394 37.25 25.3918 37.25C24.5965 37.25 24.0663 36.8965 23.492 36.5431C20.9073 34.8862 20.4876 35.4385 20.1562 35.8803C19.6923 36.4989 19.7806 37.6697 20.3992 38.7301C20.9515 39.7021 23.2931 42.817 30.1193 41.9775C31.4448 41.8008 32.6598 42.7728 32.8144 44.0982C32.9028 44.7389 32.726 45.3795 32.3063 45.8876C31.9087 46.3957 31.3343 46.7271 30.6937 46.7934C29.7879 46.9038 28.8822 46.9701 27.9985 46.9701V46.9922ZM20.8189 31.8377C19.4272 31.8377 18.2785 32.4562 17.3285 33.7154C15.981 35.5048 15.9589 38.1778 17.3285 40.5195C19.2284 43.8111 23.1164 45.7109 28.0206 45.7109C28.8601 45.7109 29.6996 45.6446 30.5611 45.5563C30.8704 45.5121 31.1355 45.3574 31.3122 45.1144C31.511 44.8714 31.5773 44.5622 31.5552 44.275C31.4669 43.6564 30.8925 43.2146 30.2739 43.2809C22.7188 44.2087 19.9574 40.5416 19.2946 39.3928C18.411 37.8465 18.3447 36.1675 19.14 35.1293C20.355 33.5166 22.056 34.1131 24.1989 35.4827C24.7291 35.8362 25.0162 35.9908 25.4139 35.9908C26.0545 35.9908 26.5626 35.4827 26.5626 34.8421C26.5626 34.3561 26.2533 33.9363 25.8115 33.7596L25.6348 33.6491C25.6348 33.6491 25.5022 33.6712 25.436 33.6712C25.0825 33.6491 24.8174 33.4503 24.7732 33.119C23.271 32.2574 21.9677 31.8377 20.8189 31.8377Z" fill="#3E3A39"/>
<path d="M49.9122 44.2188C49.9122 48.8358 46.1567 53.2098 39.0655 53.2098C31.9742 53.2098 28.2188 48.8358 28.2188 44.2188" fill="white"/>
<path d="M39.087 53.8505C31.5539 53.8505 27.5996 49.0125 27.5996 44.2188C27.5996 43.8653 27.8868 43.5781 28.2403 43.5781C28.5937 43.5781 28.8809 43.8653 28.8809 44.2188C28.8809 48.2394 32.0841 52.5692 39.087 52.5692C46.0899 52.5692 49.2931 48.2394 49.2931 44.2188C49.2931 43.8653 49.5803 43.5781 49.9337 43.5781C50.2872 43.5781 50.5744 43.8653 50.5744 44.2188C50.5744 48.8579 46.9735 53.8505 39.087 53.8505Z" fill="#3E3A39"/>
<path d="M54.7723 30.8438C54.7723 40.608 49.3379 49.8642 39.0876 49.8642C28.8374 49.8642 23.3809 40.608 23.3809 30.8438" fill="white"/>
<path d="M39.0871 50.4892C27.8648 50.4892 22.7617 40.3052 22.7617 30.8281C22.7617 30.4747 23.0489 30.1875 23.4024 30.1875C23.7558 30.1875 24.043 30.4747 24.043 30.8281C24.043 39.6867 28.7484 49.208 39.0871 49.208C49.4257 49.208 54.1311 39.6867 54.1311 30.8281C54.1311 30.4747 54.4183 30.1875 54.7718 30.1875C55.1252 30.1875 55.4124 30.4747 55.4124 30.8281C55.4124 40.3052 50.3093 50.4892 39.0871 50.4892Z" fill="#3E3A39"/>
<path d="M54.8621 31.0707C54.8621 28.3093 47.815 26.0781 39.1332 26.0781C30.4514 26.0781 23.4043 28.3093 23.4043 31.0707C23.4043 32.2857 24.796 33.4124 27.0935 34.2739C29.7224 32.7276 34.1185 31.7335 39.1332 31.7335C44.1479 31.7335 48.544 32.7496 51.1728 34.2739C53.4703 33.4124 54.8621 32.2857 54.8621 31.0707Z" fill="white"/>
<path d="M51.1723 34.9146C51.0618 34.9146 50.9513 34.8925 50.8409 34.8262C48.212 33.2798 43.838 32.352 39.1326 32.352C34.4272 32.352 30.0531 33.2798 27.4243 34.8262C27.2476 34.9367 27.0487 34.9367 26.872 34.8704C23.4921 33.5891 22.7852 32.0869 22.7852 31.0707C22.7852 27.4036 31.2019 25.4375 39.1326 25.4375C47.0633 25.4375 55.5021 27.4036 55.5021 31.0707C55.5021 32.109 54.7952 33.5891 51.4153 34.8704C51.349 34.8925 51.2606 34.9146 51.1943 34.9146H51.1723ZM39.1326 31.0707C43.9043 31.0707 48.3888 31.9986 51.2385 33.5449C53.1384 32.7938 54.2208 31.8881 54.2208 31.0486C54.2208 28.9942 48.0353 26.6967 39.1326 26.6967C30.2299 26.6967 24.0664 28.9942 24.0664 31.0486C24.0664 31.8881 25.1489 32.7938 27.0487 33.5449C29.8764 31.9765 34.3609 31.0707 39.1326 31.0707Z" fill="#3E3A39"/>
<path d="M27.0918 34.2827C29.9636 35.3651 34.2935 36.072 39.1315 36.072C43.9694 36.072 48.2993 35.3872 51.1711 34.2827C48.5423 32.7363 44.1241 31.7422 39.1315 31.7422C34.1389 31.7422 29.7206 32.7584 27.0918 34.2827Z" fill="#E6E6E6"/>
<path d="M39.1315 36.6801C34.404 36.6801 29.9195 36.0174 26.8709 34.8465C26.65 34.7582 26.4733 34.5373 26.4512 34.2943C26.4512 34.0513 26.5616 33.8083 26.7604 33.6757C29.566 32.0189 34.2052 31.0469 39.1315 31.0469C44.0578 31.0469 48.6748 32.041 51.5025 33.6757C51.7234 33.8083 51.8339 34.0292 51.8118 34.2943C51.8118 34.5373 51.635 34.7582 51.392 34.8465C48.3214 36.0174 43.8369 36.6801 39.1315 36.6801ZM28.7707 34.1396C31.5763 34.957 35.2655 35.3988 39.1315 35.3988C42.9974 35.3988 46.6866 34.9349 49.4922 34.1396C46.8413 33.013 43.1079 32.3503 39.1315 32.3503C35.1551 32.3503 31.4217 33.013 28.7707 34.1396Z" fill="#3E3A39"/>
<path d="M38.6902 29.1625C38.5135 29.1625 38.3368 29.0963 38.2042 28.9416C37.9833 28.6765 38.0054 28.2789 38.2705 28.0359C38.2705 28.0359 39.2646 27.1523 39.3088 25.9372C39.3309 25.1641 38.9774 24.3909 38.2484 23.6398C37.1659 22.5352 36.702 21.3865 36.8346 20.2156C37.0555 18.3158 38.8669 17.145 38.9553 17.1008C39.2425 16.902 39.6401 17.0124 39.839 17.2996C40.0378 17.5868 39.9273 17.9844 39.6401 18.1833C39.6401 18.1833 38.2705 19.0669 38.1158 20.3703C38.0275 21.1214 38.3809 21.9387 39.1762 22.734C40.1703 23.7502 40.6563 24.8548 40.6121 26.0035C40.5459 27.7708 39.1983 28.9416 39.132 28.9858C39.0216 29.0963 38.8669 29.1405 38.7123 29.1405L38.6902 29.1625Z" fill="#3E3A39"/>
<path d="M44.1687 29.1625C43.992 29.1625 43.8153 29.0963 43.6827 28.9416C43.4618 28.6765 43.4839 28.2789 43.749 28.0359C43.749 28.0359 44.7431 27.1523 44.7873 25.9372C44.8094 25.1641 44.4559 24.3909 43.7269 23.6398C42.6444 22.5352 42.1805 21.3865 42.3131 20.2156C42.534 18.3158 44.3455 17.145 44.4338 17.1008C44.721 16.902 45.1187 17.0124 45.3175 17.2996C45.5163 17.5868 45.4058 17.9844 45.1187 18.1833C45.1187 18.1833 43.749 19.0669 43.5944 20.3703C43.506 21.1435 43.8595 21.9387 44.6547 22.734C45.6488 23.7502 46.1348 24.8548 46.0907 26.0035C46.0244 27.7708 44.6768 28.9416 44.6106 28.9858C44.5001 29.0963 44.3455 29.1405 44.1908 29.1405L44.1687 29.1625Z" fill="#3E3A39"/>
<path d="M33.2566 29.1625C33.0799 29.1625 32.9032 29.0963 32.7706 28.9416C32.5497 28.6765 32.5718 28.2789 32.8369 28.0359C32.8369 28.0359 33.831 27.1523 33.8752 25.9372C33.8973 25.1641 33.5438 24.3909 32.8148 23.6398C31.7323 22.5352 31.2684 21.3865 31.401 20.2156C31.6219 18.3158 33.4334 17.145 33.4996 17.1008C33.8089 16.902 34.1844 17.0124 34.3833 17.2996C34.5821 17.5868 34.4716 17.9844 34.1844 18.1833C34.1844 18.1833 32.8148 19.0669 32.6602 20.3703C32.5718 21.1214 32.9253 21.9387 33.7205 22.734C34.7146 23.7502 35.2006 24.8548 35.1565 26.0035C35.0902 27.7708 33.7426 28.9416 33.6764 28.9858C33.5438 29.0963 33.4113 29.1405 33.2566 29.1405V29.1625Z" fill="#3E3A39"/>
<path d="M59.4112 51.1861C58.4171 52.4674 56.1196 52.3569 53.9105 50.6338C51.7014 48.9107 51.0387 46.7237 52.0549 45.4424C53.049 44.1611 55.3465 44.2715 57.5556 45.9947C59.7647 47.7178 60.4274 49.9048 59.4112 51.1861Z" fill="#FBDACF"/>
<path d="M57.4454 52.6729C57.3128 52.6729 57.2024 52.6729 57.0698 52.6729C55.9211 52.5846 54.684 52.0323 53.5353 51.1266C52.3644 50.2208 51.5692 49.1605 51.1936 48.0559C50.796 46.9072 50.9285 45.8247 51.5692 45.0294C52.2098 44.212 53.226 43.8144 54.4189 43.9469C55.5676 44.0353 56.8047 44.5876 57.9535 45.4933C59.4115 46.62 60.3393 48.0559 60.494 49.3814C60.5823 50.2208 60.4056 50.9719 59.9196 51.5905C59.3452 52.3195 58.4837 52.695 57.4454 52.695V52.6729ZM54.0434 45.1841C53.4027 45.1841 52.8946 45.405 52.5633 45.8026C52.2098 46.2665 52.1435 46.9072 52.3865 47.6362C52.6737 48.4756 53.3585 49.3593 54.3085 50.1104C55.2584 50.8615 56.2746 51.3033 57.1582 51.3917C57.9314 51.4358 58.5279 51.237 58.9034 50.7952C59.1685 50.4638 59.279 50.0441 59.2127 49.536C59.1022 48.5419 58.3511 47.4153 57.1582 46.4874C56.2083 45.7363 55.1921 45.2945 54.3085 45.2061C54.2201 45.2061 54.1317 45.2061 54.0434 45.2061V45.1841Z" fill="#3E3A39"/>
<path d="M52.0781 45.4062C52.0781 45.4062 56.2975 48.0793 57.2695 49.3827Z" fill="#FBDACF"/>
<path d="M57.2698 50.019C57.071 50.019 56.8942 49.9307 56.7617 49.776C56.0106 48.7819 52.8736 46.6833 51.7249 45.9543C51.4156 45.7554 51.3273 45.3799 51.5261 45.0706C51.7028 44.7613 52.1225 44.673 52.4097 44.8718C52.8515 45.159 56.7396 47.6332 57.7779 48.9807C57.9988 49.2679 57.9325 49.6656 57.6453 49.8865C57.5349 49.9748 57.4023 50.019 57.2477 50.019H57.2698Z" fill="#3E3A39"/>
<path d="M53.381 49.638C54.2646 51.0077 53.4251 53.1284 51.0614 54.6527C48.6976 56.177 46.4222 56.0887 45.5386 54.719C44.655 53.3494 45.4944 51.2286 47.8582 49.7043C50.2219 48.18 52.4973 48.2684 53.381 49.638Z" fill="#FBDACF"/>
<path d="M47.7706 56.4218C46.5556 56.4218 45.5836 55.9358 45.0313 55.0743C43.9047 53.3291 44.9651 50.8328 47.5497 49.1759C48.7868 48.3807 50.046 47.9609 51.1947 47.9609C52.4098 47.9609 53.3818 48.4469 53.934 49.3085C55.0607 51.0537 54.0003 53.5279 51.4157 55.2068C50.1786 56.0021 48.9194 56.4218 47.7706 56.4218ZM51.1506 49.2422C50.2669 49.2422 49.2065 49.5957 48.2124 50.2584C46.2905 51.4955 45.3627 53.2849 46.0696 54.3895C46.3789 54.8755 46.9753 55.1406 47.7485 55.1406C48.6322 55.1406 49.6926 54.7871 50.6867 54.1244C52.6086 52.8873 53.5364 51.0979 52.8074 49.9933C52.4981 49.5073 51.9017 49.2422 51.1285 49.2422H51.1506Z" fill="#3E3A39"/>
<path d="M45.5391 54.7089C45.5391 54.7089 49.4271 51.594 50.9735 51.0859Z" fill="#FBDACF"/>
<path d="M45.5382 55.3601C45.3615 55.3601 45.1627 55.2718 45.0301 55.1171C44.8092 54.8521 44.8534 54.4323 45.1185 54.2114C45.5161 53.88 49.1391 51.0082 50.7517 50.478C51.0831 50.3676 51.4586 50.5443 51.5691 50.8977C51.6795 51.2291 51.5028 51.6047 51.1494 51.7151C49.9564 52.0907 46.9741 54.3881 45.9138 55.2276C45.8033 55.316 45.6487 55.3601 45.5161 55.3601H45.5382Z" fill="#3E3A39"/>
</g>
</svg>
