<svg width="76" height="76" viewBox="0 0 76 76" fill="none" xmlns="http://www.w3.org/2000/svg">
<mask id="mask0_321_285" style="mask-type:alpha" maskUnits="userSpaceOnUse" x="0" y="0" width="76" height="76">
<circle cx="38" cy="38" r="38" fill="#D9D9D9"/>
</mask>
<g mask="url(#mask0_321_285)">
<path d="M44.8554 55.6492H31.6007C21.726 55.6492 13.6406 47.5638 13.6406 37.6891V37.6007C13.6406 27.726 21.726 19.6406 31.6007 19.6406H44.8554C54.7301 19.6406 62.8155 27.726 62.8155 37.6007V37.6891C62.8155 47.5638 54.7301 55.6492 44.8554 55.6492Z" fill="#FBDACF"/>
<path d="M44.8554 56.2898H31.6007C21.3504 56.2898 13 47.9394 13 37.6891C13 27.4388 21.3504 19 31.6007 19H44.8554C55.1057 19 63.4561 27.3504 63.4561 37.6007C63.4561 47.851 55.1057 56.2898 44.8554 56.2898ZM31.6228 20.2813C22.0795 20.2813 14.3034 28.0574 14.3034 37.6007C14.3034 47.1441 22.0795 55.0085 31.6228 55.0085H44.8775C54.4209 55.0085 62.1969 47.2325 62.1969 37.6891C62.1969 28.1457 54.4209 20.2813 44.8775 20.2813H31.6228Z" fill="#3E3A39"/>
<path d="M57.0951 39.5344C57.8462 37.9217 56.6754 36.6625 57.0289 35.2708C57.3823 33.8791 57.6695 31.9792 56.4987 31.1177C55.3057 30.2561 55.3499 29.5271 54.9302 28.3121C54.5105 27.1192 53.1408 25.9925 52.1025 25.9263C51.0642 25.86 49.54 25.3519 48.9214 24.4682C48.3029 23.5846 47.375 22.7672 46.3367 23.2532C45.2985 23.7171 44.1497 23.916 43.0452 23.4521C42.1615 23.0765 41.3883 22.458 40.3942 23.1207C39.4001 23.7834 38.649 24.888 37.6328 24.5345C36.6167 24.1811 35.8214 24.7112 35.2249 25.6612C34.6505 26.589 34.9598 27.0087 33.8553 27.2738C32.7507 27.5389 31.9554 28.4226 32.5961 29.3504C33.2146 30.2561 35.2028 30.5875 36.948 31.692C38.649 33.2163 41.2116 35.2929 43.7079 36.5079C47.0437 38.1206 51.5061 39.1809 53.4501 39.4681C54.7093 39.9983 56.6091 40.6169 57.0951 39.5565" fill="white"/>
<path d="M55.99 40.7493C55.2831 40.7493 54.3773 40.5284 53.2728 40.0645C51.1741 39.7331 46.7338 38.6507 43.4422 37.0601C40.9018 35.823 38.295 33.7022 36.5498 32.1559C35.9313 31.7803 35.1581 31.4489 34.4732 31.1839C33.4571 30.7641 32.5513 30.3886 32.0874 29.7258C31.7339 29.2177 31.6456 28.6213 31.8444 28.0911C32.1095 27.4063 32.7943 26.8761 33.7221 26.6552C34.1419 26.5447 34.1419 26.5447 34.2965 26.1913C34.3849 25.9704 34.4953 25.6832 34.7162 25.3518C35.8208 23.5624 37.1684 23.7171 37.8753 23.9601C38.2066 24.0705 38.5601 23.8496 39.2228 23.2752C39.4879 23.0543 39.7751 22.8113 40.0844 22.6125C41.1889 21.8835 42.183 22.3474 42.89 22.7009C43.0446 22.7671 43.1772 22.8334 43.3318 22.8997C44.1492 23.2311 45.077 23.1648 46.1153 22.7009C46.778 22.3916 48.1035 22.1707 49.4952 24.1368C49.9591 24.7995 51.2404 25.2634 52.1903 25.3297C53.4937 25.4181 55.0843 26.7435 55.5703 28.1353C55.6586 28.4004 55.7249 28.6434 55.7912 28.8643C56.0121 29.6375 56.1446 30.0793 56.8957 30.6095C58.6188 31.8466 57.9119 34.5638 57.6689 35.4474C57.5585 35.8893 57.6689 36.3753 57.8015 36.9276C57.9782 37.7228 58.2212 38.7169 57.691 39.8215C57.4038 40.4621 56.8295 40.7714 55.99 40.7714V40.7493ZM37.0358 25.0425C36.7045 25.0425 36.2626 25.2193 35.7766 25.9703C35.622 26.2354 35.5336 26.4343 35.4673 26.611C35.2464 27.1854 35.0034 27.6272 34.0093 27.8702C33.4571 28.0027 33.1257 28.2899 33.0373 28.5108C33.0152 28.5992 32.971 28.7317 33.1257 28.9527C33.3687 29.3061 34.1419 29.6154 34.9372 29.9688C35.6662 30.2781 36.4835 30.6095 37.2788 31.1176C39.0461 32.6861 41.5645 34.7184 43.9724 35.8893C47.1756 37.4356 51.5276 38.496 53.5158 38.7832C53.56 38.7832 53.6263 38.8053 53.6704 38.8274C55.3935 39.5564 56.3435 39.5564 56.4981 39.225C56.8295 38.5181 56.6748 37.8996 56.4981 37.1705C56.3435 36.552 56.1888 35.823 56.3876 35.0719C56.8736 33.2604 56.7632 32.0896 56.1005 31.6036C54.9959 30.8083 54.7529 30.013 54.5099 29.1736C54.4436 28.9747 54.3773 28.7317 54.3111 28.5108C53.9576 27.4946 52.7868 26.611 52.0578 26.5668C50.8207 26.4784 49.1418 25.9041 48.4127 24.8216C47.9709 24.181 47.2861 23.4961 46.6234 23.8054C45.2758 24.424 43.9503 24.4902 42.8237 24.0042C42.647 23.938 42.4702 23.8496 42.3156 23.7612C41.6087 23.4299 41.2552 23.2752 40.7692 23.6066C40.5041 23.7833 40.2832 23.9822 40.0402 24.181C39.3554 24.7553 38.5159 25.4623 37.4335 25.0867C37.3451 25.0646 37.2125 24.9983 37.0358 24.9983V25.0425Z" fill="#3E3A39"/>
<path d="M42.2266 25.2969C42.2928 25.9375 42.4917 26.5561 42.8009 27.0863Z" fill="white"/>
<path d="M42.8009 27.6146C42.6242 27.6146 42.4475 27.5262 42.3591 27.3495C42.0057 26.753 41.7847 26.0461 41.7185 25.3392C41.6964 25.052 41.8952 24.809 42.1824 24.7869C42.5358 24.7427 42.7126 24.9636 42.7347 25.2508C42.7788 25.8031 42.9556 26.3554 43.2428 26.8414C43.3753 27.0844 43.309 27.3936 43.066 27.5483C42.9777 27.5925 42.8893 27.6146 42.8009 27.6146Z" fill="#3E3A39"/>
<path d="M45.8056 26.0078C45.4963 26.3834 45.3196 26.8694 45.3417 27.3775Z" fill="white"/>
<path d="M45.3421 27.8854C45.077 27.8854 44.834 27.6645 44.834 27.3773C44.834 26.7587 45.0328 26.1402 45.4304 25.6763C45.6072 25.4554 45.9385 25.4333 46.1594 25.61C46.3804 25.7867 46.4025 26.1181 46.2257 26.339C45.9827 26.6041 45.8723 26.9797 45.8723 27.3552C45.8723 27.6424 45.6514 27.8854 45.3642 27.8854H45.3421Z" fill="#3E3A39"/>
<path d="M49.9808 27.7812C49.539 28.0022 49.3402 28.5324 49.1855 28.9963Z" fill="white"/>
<path d="M49.1627 29.5305C49.1627 29.5305 49.0522 29.5305 48.986 29.5084C48.7209 29.4201 48.5662 29.1329 48.6767 28.8678C48.8313 28.426 49.0743 27.697 49.7371 27.3656C49.9801 27.233 50.2893 27.3214 50.4219 27.5865C50.5544 27.8295 50.444 28.1388 50.201 28.2713C49.9359 28.4039 49.7812 28.8015 49.6487 29.1992C49.5824 29.4201 49.3836 29.5526 49.1627 29.5526V29.5305Z" fill="#3E3A39"/>
<path d="M52.9198 30.5781C52.5 30.5781 52.0803 30.7769 51.8594 31.1083Z" fill="white"/>
<path d="M51.8361 31.6089C51.8361 31.6089 51.6373 31.5868 51.5489 31.5205C51.3059 31.3659 51.2617 31.0345 51.4164 30.8136C51.7477 30.3276 52.3442 30.0625 52.9407 30.0625C53.2278 30.0625 53.4488 30.3055 53.4267 30.5927C53.4267 30.8799 53.2279 31.0787 52.8965 31.0787C52.6314 31.0787 52.4105 31.1891 52.2779 31.388C52.1896 31.5426 52.0128 31.6089 51.8582 31.6089H51.8361Z" fill="#3E3A39"/>
<path d="M54.7747 33.4297C54.3992 33.5401 54.0678 33.739 53.8027 34.0041Z" fill="white"/>
<path d="M53.8254 34.4965C53.6929 34.4965 53.5603 34.4523 53.472 34.3639C53.2731 34.1651 53.2511 33.8338 53.472 33.6349C53.8033 33.3036 54.201 33.0385 54.6649 32.9059C54.93 32.8397 55.2172 32.9943 55.3055 33.2594C55.3939 33.5245 55.2172 33.8117 54.9521 33.9C54.687 33.9884 54.4219 34.143 54.2231 34.3418C54.1126 34.4523 53.9801 34.4965 53.8475 34.4965H53.8254Z" fill="#3E3A39"/>
<path d="M37.7207 27.1094C37.9416 27.6396 38.2951 28.1256 38.7148 28.5011Z" fill="white"/>
<path d="M38.7154 29.0221C38.6049 29.0221 38.4724 28.9779 38.384 28.8896C37.898 28.4477 37.5004 27.9176 37.2574 27.299C37.1469 27.0339 37.2574 26.7467 37.5225 26.6363C37.7875 26.5258 38.0747 26.6363 38.1852 26.9014C38.384 27.3653 38.6933 27.785 39.0467 28.1164C39.2677 28.3152 39.2677 28.6245 39.0909 28.8454C38.9805 28.9558 38.8479 29.0221 38.7154 29.0221Z" fill="#3E3A39"/>
<path d="M48.9432 44.7297C49.6943 43.1171 48.5235 41.8579 48.8769 40.4661C49.2304 39.0965 49.5397 37.1745 48.3468 36.313C47.1538 35.4514 47.198 34.7224 46.7783 33.5074C46.3586 32.3145 44.9889 31.1878 43.9506 31.1216C42.9123 31.0553 41.4101 30.5472 40.7695 29.6636C40.151 28.7799 39.2231 27.9625 38.1848 28.4485C37.1466 28.9125 35.9978 29.1113 34.8933 28.6474C34.0096 28.2718 33.2364 27.6533 32.2423 28.316C31.2482 28.9787 30.4971 30.0833 29.4809 29.7298C28.4647 29.3764 27.6474 29.9066 27.073 30.8565C26.4986 31.7843 26.8079 32.204 25.7034 32.4691C24.5988 32.7342 23.8035 33.6179 24.4663 34.5678C25.0848 35.4735 27.0509 35.8049 28.8182 36.9094C30.5192 38.4337 33.0818 40.5103 35.556 41.7253C38.8918 43.338 43.3542 44.3983 45.2982 44.6855C46.5574 45.2157 48.4572 45.8343 48.9432 44.7739" fill="white"/>
<path d="M47.8162 45.9451C47.1093 45.9451 46.2035 45.7242 45.099 45.2603C43.0003 44.9289 38.5379 43.8465 35.2684 42.2559C32.7279 41.0188 30.1212 38.898 28.376 37.3517C27.7574 36.9761 26.9842 36.6668 26.2994 36.3797C25.2832 35.9599 24.3775 35.5844 23.9136 34.9216C23.5601 34.4135 23.4718 33.8171 23.6706 33.2869C23.9357 32.6021 24.6205 32.0719 25.5483 31.8289C25.9681 31.7184 25.9901 31.7184 26.1227 31.365C26.2111 31.122 26.3215 30.8569 26.5424 30.5034C27.647 28.714 28.9945 28.8687 29.7015 29.1117C30.0549 29.2442 30.3642 29.0012 31.049 28.4489C31.3141 28.228 31.6013 27.985 31.9106 27.7862C33.0151 27.0351 34.0092 27.5211 34.7161 27.8746C34.8708 27.9408 35.0033 28.0071 35.158 28.0734C35.9753 28.4048 36.9032 28.3606 37.9414 27.8746C39.0681 27.3665 40.3052 27.8746 41.3214 29.3105C41.7853 29.9511 43.0666 30.4371 44.0165 30.5034C45.3199 30.5918 46.9104 31.9172 47.3964 33.309C47.4848 33.5741 47.5511 33.8171 47.6174 34.038C47.8383 34.8112 47.9708 35.253 48.7219 35.8053C50.445 37.0424 49.7381 39.7596 49.4951 40.6432C49.3846 41.0851 49.4951 41.5711 49.6276 42.1233C49.8044 42.9186 50.0474 43.9127 49.5172 45.0173C49.23 45.6579 48.6556 45.9672 47.8162 45.9672V45.9451ZM28.8841 30.2383C28.5527 30.2383 28.1109 30.415 27.6249 31.1661C27.4702 31.4312 27.3819 31.6301 27.3156 31.8068C27.0947 32.3812 26.8517 32.823 25.8576 33.066C25.3053 33.1985 24.974 33.4857 24.8856 33.7287C24.8635 33.8171 24.8193 33.9496 24.974 34.1705C25.217 34.524 25.9901 34.8554 26.7854 35.1867C27.5144 35.496 28.3318 35.8274 29.1271 36.3355C30.8944 37.9039 33.4128 39.9363 35.8207 41.1072C39.0239 42.6535 43.3759 43.7139 45.3641 44.0232C45.4082 44.0232 45.4745 44.0453 45.5187 44.0674C47.2418 44.7964 48.1917 44.7964 48.3464 44.465C48.6777 43.7581 48.5231 43.1395 48.3464 42.4105C48.1917 41.792 48.0371 41.0851 48.2359 40.3119C48.7219 38.5004 48.6115 37.3296 47.9487 36.8436C46.8221 36.0483 46.6012 35.253 46.3582 34.4135C46.2919 34.2147 46.2256 33.9938 46.1593 33.7508C45.8059 32.7346 44.6351 31.851 43.906 31.8068C42.6689 31.7184 41.0121 31.1441 40.261 30.0616C39.8192 29.4209 39.1344 28.7582 38.4716 29.0454C37.1241 29.664 35.8207 29.7302 34.672 29.2442C34.4952 29.1779 34.3185 29.0896 34.1639 29.0012C33.4569 28.6698 33.1035 28.5152 32.6175 28.8466C32.3524 29.0233 32.1094 29.2221 31.8885 29.4209C31.2257 29.9953 30.3863 30.7022 29.3038 30.3267C29.2154 30.3046 29.0829 30.2383 28.9062 30.2383H28.8841Z" fill="#3E3A39"/>
<path d="M34.0527 30.5078C34.119 31.1485 34.3178 31.767 34.6271 32.2972Z" fill="white"/>
<path d="M34.6271 32.8059C34.4504 32.8059 34.2736 32.7175 34.1853 32.5408C33.8318 31.9223 33.6109 31.2374 33.5446 30.5305C33.5226 30.2433 33.7214 30.0003 34.0086 29.9782C34.3178 29.9561 34.5387 30.155 34.5608 30.4421C34.605 30.9944 34.7817 31.5467 35.0689 32.0327C35.2015 32.2757 35.1352 32.585 34.8922 32.7396C34.8038 32.7838 34.7155 32.8059 34.6271 32.8059Z" fill="#3E3A39"/>
<path d="M37.654 31.1875C37.3447 31.563 37.168 32.0491 37.168 32.5571Z" fill="white"/>
<path d="M37.1897 33.0807C36.9246 33.0807 36.6816 32.8598 36.6816 32.5726C36.6816 31.9541 36.8805 31.3355 37.2781 30.8716C37.4548 30.6507 37.7862 30.6286 38.0071 30.8053C38.228 30.982 38.2501 31.3134 38.0734 31.5343C37.8304 31.8215 37.6978 32.175 37.7199 32.5505C37.7199 32.8377 37.499 33.0807 37.2118 33.0807H37.1897Z" fill="#3E3A39"/>
<path d="M41.807 32.9766C41.3652 33.1975 41.1664 33.7277 41.0117 34.1916Z" fill="white"/>
<path d="M41.0123 34.7203C41.0123 34.7203 40.9018 34.7203 40.8356 34.6982C40.5705 34.6098 40.4158 34.3226 40.5263 34.0355C40.6809 33.5715 40.9239 32.8646 41.5867 32.5333C41.8518 32.4007 42.1389 32.5112 42.2715 32.7542C42.404 33.0193 42.2936 33.3065 42.0506 33.439C41.7855 33.5715 41.6309 33.9471 41.4983 34.3668C41.432 34.5877 41.2332 34.7203 41.0123 34.7203Z" fill="#3E3A39"/>
<path d="M44.7674 35.7578C44.3477 35.7578 43.9279 35.9566 43.707 36.288Z" fill="white"/>
<path d="M43.6838 36.8054C43.6838 36.8054 43.4849 36.7833 43.3966 36.717C43.1536 36.5624 43.1094 36.231 43.264 36.0101C43.5954 35.5241 44.1698 35.2369 44.7883 35.259C45.0755 35.259 45.2964 35.502 45.2743 35.7892C45.2743 36.0543 45.0313 36.2752 44.7662 36.2752H44.722C44.5011 36.2752 44.2581 36.4077 44.1256 36.5845C44.0372 36.7391 43.8605 36.8054 43.7059 36.8054H43.6838Z" fill="#3E3A39"/>
<path d="M46.6224 38.6094C46.2469 38.7198 45.9155 38.9186 45.6504 39.1837Z" fill="white"/>
<path d="M45.6516 39.6995C45.519 39.6995 45.3865 39.6553 45.2981 39.5669C45.0993 39.3681 45.0772 39.0367 45.2981 38.8379C45.6295 38.5066 46.0271 38.2415 46.4911 38.1089C46.7561 38.0206 47.0433 38.1973 47.1317 38.4624C47.2201 38.7275 47.0433 39.0147 46.7782 39.103C46.4911 39.1914 46.2481 39.3239 46.0492 39.5449C45.9609 39.6553 45.8062 39.6995 45.6737 39.6995H45.6516Z" fill="#3E3A39"/>
<path d="M29.5469 32.2891C29.7678 32.8192 30.1212 33.3053 30.541 33.7029Z" fill="white"/>
<path d="M30.563 34.2174C30.4526 34.2174 30.32 34.1732 30.2317 34.0849C29.7457 33.6431 29.348 33.1129 29.105 32.4943C28.9946 32.2292 29.105 31.942 29.3701 31.8316C29.6352 31.7211 29.9224 31.8316 30.0328 32.0967C30.2317 32.5606 30.5188 32.9803 30.8944 33.3117C31.1153 33.4884 31.1153 33.8198 30.9386 34.0407C30.8281 34.1512 30.6956 34.2174 30.563 34.2174Z" fill="#3E3A39"/>
<path d="M40.4818 51.5656C41.2329 49.953 40.0621 48.6938 40.4156 47.3021C40.769 45.9324 41.0562 44.0105 39.8854 43.1489C38.6925 42.2874 38.7366 41.5584 38.3169 40.3433C37.8972 39.1504 36.5275 38.0238 35.4892 37.9575C34.451 37.8912 32.9267 37.3831 32.3081 36.4995C31.6896 35.6159 30.7618 34.7985 29.7235 35.2845C28.6852 35.7484 27.5364 35.9472 26.4319 35.4833C25.5482 35.1078 24.7751 34.4892 23.781 35.1519C22.7869 35.8147 22.0358 36.9192 21.0196 36.5658C20.0034 36.2123 19.186 36.7425 18.6116 37.6924C18.0152 38.6202 18.3465 39.0179 17.242 39.3051C16.1374 39.5702 15.3421 40.4538 15.9828 41.3816C16.6013 42.2874 18.5674 42.6187 20.3347 43.7233C22.0358 45.2476 24.5983 47.3241 27.0725 48.5392C30.4083 50.1518 34.8707 51.2122 36.8147 51.4994C38.0739 52.0296 39.9737 52.6481 40.4597 51.5877" fill="white"/>
<path d="M39.3325 52.7636C38.6698 52.7636 37.8083 52.5648 36.6374 52.0788C34.5388 51.7474 30.0984 50.6649 26.8069 49.0744C24.2664 47.8373 21.6596 45.7165 19.9144 44.1701C19.2959 43.7946 18.5227 43.4853 17.86 43.1981C16.8217 42.7784 15.938 42.4029 15.4741 41.7401C15.1207 41.232 15.0323 40.6356 15.2311 40.1054C15.4962 39.4206 16.181 38.8904 17.1089 38.6474C17.5286 38.5369 17.5507 38.5369 17.6832 38.1835C17.7716 37.9404 17.8821 37.6754 18.103 37.3219C19.2075 35.5325 20.5551 35.6872 21.262 35.9302C21.6155 36.0627 21.9468 35.8197 22.6096 35.2674C22.8746 35.0244 23.1618 34.8035 23.4711 34.6047C24.5978 33.8757 25.5698 34.3396 26.2767 34.6931C26.4313 34.7593 26.5639 34.8256 26.7185 34.8919C27.5359 35.2453 28.4858 35.157 29.502 34.7151C30.1647 34.4059 31.4902 34.185 32.8819 36.1511C33.3458 36.8138 34.6271 37.2777 35.577 37.344C36.8804 37.4324 38.471 38.7578 38.957 40.1496C39.0454 40.4147 39.1116 40.6577 39.1779 40.8786C39.3988 41.6518 39.5314 42.0936 40.2825 42.6238C42.0056 43.8609 41.2986 46.5781 41.0556 47.4617C40.9452 47.9035 41.0556 48.3895 41.1661 48.9418C41.3428 49.7371 41.5858 50.7312 41.0556 51.8358C40.8347 52.3218 40.3487 52.7857 39.3325 52.7857V52.7636ZM20.4225 37.0568C20.0912 37.0568 19.6493 37.2335 19.1854 37.9846C19.0308 38.2497 18.9424 38.4485 18.8762 38.6253C18.6552 39.1996 18.4122 39.6415 17.4181 39.8845C16.8659 40.017 16.5345 40.3042 16.4461 40.5251C16.4461 40.5693 16.3799 40.7239 16.5345 40.9669C16.7775 41.3204 17.5507 41.6518 18.3681 41.9831C19.0971 42.2924 19.9144 42.6238 20.7097 43.1098C22.477 44.6782 24.9954 46.7106 27.4033 47.8815C30.6065 49.4278 34.9585 50.4882 36.9467 50.7754C36.9909 50.7754 37.0572 50.7975 37.1013 50.8196C38.8244 51.5486 39.7744 51.5486 39.929 51.2172C40.2604 50.5103 40.1057 49.8917 39.929 49.1627C39.7744 48.5442 39.6197 47.8152 39.8185 47.0641C40.2825 45.2526 40.1941 44.0818 39.5314 43.5958C38.4268 42.8005 38.1838 42.0052 37.9408 41.1657C37.8745 40.9669 37.8083 40.746 37.742 40.503C37.3885 39.4868 36.2177 38.6032 35.4887 38.559C34.2516 38.4706 32.5727 37.8963 31.8216 36.8138C31.3797 36.1732 30.6949 35.4883 30.0322 35.7976C28.6846 36.4162 27.3812 36.4824 26.2325 35.9964C26.0558 35.9302 25.879 35.8418 25.7244 35.7534C25.0175 35.4221 24.664 35.2674 24.178 35.5988C23.9129 35.7755 23.6699 35.9743 23.449 36.1732C22.7863 36.7475 21.9247 37.4544 20.8423 37.0789C20.7539 37.0568 20.6214 36.9905 20.4446 36.9905L20.4225 37.0568Z" fill="#3E3A39"/>
<path d="M25.6152 37.3125C25.6815 37.9531 25.8803 38.5717 26.1896 39.1019Z" fill="white"/>
<path d="M26.1877 39.6262C26.0109 39.6262 25.8342 39.5378 25.7458 39.3611C25.3924 38.7426 25.1715 38.0577 25.1052 37.3508C25.0831 37.0636 25.2819 36.8206 25.5691 36.7985C25.9005 36.7765 26.0993 36.9753 26.1214 37.2625C26.1656 37.8147 26.3423 38.367 26.6295 38.853C26.762 39.096 26.6957 39.4053 26.4527 39.5599C26.3644 39.6041 26.276 39.6262 26.1877 39.6262Z" fill="#3E3A39"/>
<path d="M29.1923 38.0156C28.8831 38.3912 28.7063 38.8772 28.7284 39.3853Z" fill="white"/>
<path d="M28.7288 39.8932C28.4637 39.8932 28.2207 39.6723 28.2207 39.3851C28.2207 38.7666 28.4195 38.148 28.8172 37.6841C28.9939 37.4632 29.3253 37.4411 29.5462 37.6178C29.7671 37.7945 29.7892 38.1259 29.6124 38.3468C29.3694 38.6119 29.259 38.9875 29.259 39.363C29.259 39.6502 29.0381 39.8932 28.7509 39.8932H28.7288Z" fill="#3E3A39"/>
<path d="M33.3675 39.8125C32.9257 40.0334 32.7269 40.5636 32.5723 41.0275Z" fill="white"/>
<path d="M32.5514 41.5498C32.5514 41.5498 32.4409 41.5498 32.3746 41.5277C32.1095 41.4393 31.9549 41.1521 32.0654 40.887C32.22 40.4452 32.463 39.7162 33.1257 39.3848C33.3687 39.2523 33.678 39.3627 33.8106 39.6057C33.9431 39.8487 33.8326 40.158 33.5896 40.2906C33.3246 40.4231 33.1699 40.8208 33.0374 41.2184C32.9711 41.4393 32.7723 41.5719 32.5514 41.5719V41.5498Z" fill="#3E3A39"/>
<path d="M36.3065 42.5938C35.8867 42.5938 35.467 42.7926 35.2461 43.1239Z" fill="white"/>
<path d="M35.2248 43.6232C35.2248 43.6232 35.026 43.6011 34.9376 43.5348C34.6946 43.3802 34.6504 43.0488 34.805 42.8279C35.1364 42.3419 35.755 42.0768 36.3293 42.0547C36.6165 42.0547 36.8374 42.2977 36.8153 42.5849C36.8153 42.8721 36.5944 43.0488 36.2852 43.0709C35.998 43.0709 35.7991 43.1813 35.6666 43.3802C35.5782 43.5348 35.4015 43.6011 35.2469 43.6011L35.2248 43.6232Z" fill="#3E3A39"/>
<path d="M38.1615 45.4375C37.7859 45.548 37.4545 45.7468 37.1895 46.0119Z" fill="white"/>
<path d="M37.1907 46.5198C37.0581 46.5198 36.9256 46.4756 36.8372 46.3873C36.6384 46.1884 36.6163 45.8571 36.8372 45.6582C37.1686 45.3269 37.5662 45.0618 38.0301 44.9292C38.3173 44.8409 38.5824 45.0176 38.6708 45.2827C38.7591 45.5478 38.5824 45.835 38.3173 45.9233C38.0301 46.0117 37.7871 46.1442 37.5883 46.3652C37.4999 46.4756 37.3453 46.5198 37.2127 46.5198H37.1907Z" fill="#3E3A39"/>
<path d="M21.1074 39.125C21.3283 39.6552 21.6818 40.1412 22.1015 40.5388Z" fill="white"/>
<path d="M22.1021 41.0534C21.9916 41.0534 21.8591 41.0092 21.7707 40.9208C21.2847 40.479 20.8871 39.9267 20.6441 39.3303C20.5336 39.0652 20.6441 38.778 20.9092 38.6675C21.1743 38.5571 21.4615 38.6675 21.5719 38.9326C21.7707 39.3965 22.0579 39.8163 22.4335 40.1476C22.6544 40.3464 22.6544 40.6557 22.4776 40.8766C22.3672 40.9871 22.2346 41.0534 22.1021 41.0534Z" fill="#3E3A39"/>
</g>
</svg>
