<svg width="32" height="33" viewBox="0 0 32 33" fill="none" xmlns="http://www.w3.org/2000/svg">
<path d="M6.82409 29.9165C6.56282 29.9165 6.30155 30.0254 6.12736 30.1996C4.88631 31.3971 3.10093 31.789 1.48974 31.2882C2.51306 29.1327 2.66547 26.6724 1.85988 24.408C0.858324 21.5775 0.618823 18.7471 1.75101 15.8948C2.73079 13.3909 4.64681 11.3225 7.0636 10.125C6.91119 10.9306 6.84587 11.7362 6.84587 12.5418C6.84587 16.0037 8.17401 19.2696 10.5908 21.7299C13.0076 24.1903 16.2518 25.562 19.7354 25.6273C20.3886 25.6273 21.02 25.6055 21.6514 25.5184C19.7354 28.8714 16.1429 31.0487 12.1802 31.0923C10.4384 31.1141 8.78365 30.7657 7.23778 30.0254C7.10714 29.9601 6.95473 29.9165 6.80232 29.9165" fill="#FFF582"/>
<path d="M14.0528 14.1961C14.9455 14.1961 15.664 13.4776 15.664 12.6067C15.664 11.7358 14.9455 10.9955 14.0528 10.9955C13.1601 10.9955 12.4416 11.714 12.4416 12.6067C12.4416 13.4994 13.1601 14.1961 14.0528 14.1961ZM19.9532 14.1961C20.8459 14.1961 21.5644 13.4776 21.5644 12.6067C21.5644 11.7358 20.8459 10.9955 19.9532 10.9955C19.0606 10.9955 18.3421 11.714 18.3421 12.6067C18.3421 13.4994 19.0606 14.1961 19.9532 14.1961ZM25.8537 14.1961C26.7464 14.1961 27.4649 13.4776 27.4649 12.6067C27.4649 11.7358 26.7464 10.9955 25.8537 10.9955C24.961 10.9955 24.2425 11.714 24.2425 12.6067C24.2425 13.4994 24.961 14.1961 25.8537 14.1961ZM19.7137 1.50251C25.8755 1.37187 30.9921 6.35786 31.0139 12.5196C31.0139 14.0219 30.7308 15.4807 30.143 16.8524C30.143 16.8524 30.143 16.8959 30.1212 16.9177C29.3156 19.2039 29.468 21.6424 30.4913 23.7979C28.9019 24.2987 27.0948 23.9068 25.8537 22.7093C25.5489 22.4262 25.0916 22.3392 24.7215 22.5351C23.1756 23.2754 21.5209 23.6455 19.7791 23.602C13.6609 23.5149 8.87085 18.6595 8.87085 12.5414C8.87085 6.42318 13.748 1.63315 19.7137 1.50251Z" fill="#FFE55F"/>
</svg>
