<svg width="141" height="60" viewBox="0 0 141 60" fill="none" xmlns="http://www.w3.org/2000/svg">
<path d="M47.0063 0H30C13.4328 0 0 13.4328 0 30C0 46.5672 13.4328 60 30 60H47.0063V49.0901H30C27.4168 49.0901 24.9627 48.5735 22.7153 47.6435L13.8892 50.4851L16.4638 43.4587C13.0367 40.0057 10.9099 35.2526 10.9099 30.0086C10.9099 19.469 19.4518 10.9185 30 10.9185H47.0063V0Z" fill="#B7CA00"/>
<path d="M23.6113 22.2502C23.6113 21.3203 23.8352 20.4936 24.2916 19.7875C24.748 19.0728 25.3507 18.5218 26.1085 18.117C26.8662 17.7123 27.7015 17.5143 28.6056 17.5143C29.5097 17.5143 30.345 17.7123 31.1027 18.117C31.8605 18.5218 32.4718 19.0815 32.9454 19.7875C33.4104 20.5022 33.6429 21.3203 33.6429 22.2502C33.6429 23.1802 33.4104 24.0499 32.9454 24.7732C32.4804 25.4965 31.8691 26.0648 31.1027 26.4695C30.345 26.8742 29.5097 27.0723 28.6056 27.0723C27.7015 27.0723 26.8662 26.8742 26.1085 26.4695C25.3507 26.0648 24.7393 25.5051 24.2916 24.7732C23.8352 24.0499 23.6113 23.206 23.6113 22.2502ZM26.7026 22.2502C26.7026 22.8358 26.892 23.3007 27.2709 23.6279C27.6498 23.9552 28.0976 24.1274 28.6142 24.1274C29.1739 24.1274 29.6475 23.9638 30.0091 23.6279C30.3708 23.2921 30.5602 22.8358 30.5602 22.2502C30.5602 21.6647 30.3794 21.2428 30.0091 20.9069C29.6389 20.5797 29.1739 20.4075 28.6142 20.4075C28.0976 20.4075 27.6498 20.5711 27.2709 20.9069C26.892 21.2341 26.7026 21.6819 26.7026 22.2502ZM36.0798 30.9299C36.7945 30.9299 37.3628 31.1193 37.7933 31.4982C38.2238 31.8771 38.4391 32.4454 38.4391 33.2118V36.6302C38.4391 37.3191 38.2066 37.8616 37.7416 38.2663C37.2767 38.671 36.7256 38.8691 36.0884 38.8691H33.5912C33.1263 38.8691 32.8335 38.9638 32.7302 39.1618C32.6182 39.3599 32.5666 39.5665 32.5666 39.7904V40.0832C32.5666 40.3243 32.6182 40.5654 32.7302 40.7806C32.8421 41.0045 33.1693 41.1079 33.7032 41.1079H37.1992C37.6383 41.1079 38 41.237 38.2841 41.4953C38.5683 41.7537 38.706 42.1153 38.706 42.5803C38.706 42.9936 38.5683 43.3553 38.2841 43.648C38 43.9408 37.6383 44.0872 37.1992 44.0872H31.7571C31.1199 44.0872 30.5688 43.8633 30.1039 43.4242C29.6389 42.985 29.4064 42.4167 29.4064 41.7278V38.3438C29.4064 37.6291 29.6475 37.0522 30.1383 36.613C30.6291 36.1739 31.2147 35.95 31.9035 35.95H34.2973C34.7365 35.95 35.0292 35.8553 35.1842 35.6744C35.3306 35.4936 35.4081 35.3042 35.4081 35.1061V34.8134C35.4081 34.5895 35.3392 34.3742 35.2101 34.1503C35.0723 33.9265 34.7365 33.8231 34.2026 33.8231H31.0769C30.6377 33.8231 30.2675 33.694 29.9747 33.4356C29.6819 33.1773 29.5356 32.8157 29.5356 32.3507C29.5356 31.9115 29.6819 31.5585 29.9747 31.3002C30.2675 31.0418 30.6377 30.9127 31.0769 30.9127H36.1142L36.0798 30.9299ZM36.2261 18.7198C36.2261 18.229 36.3725 17.8501 36.6653 17.5832C36.9581 17.3162 37.3369 17.1785 37.8019 17.1785C38.2669 17.1785 38.6027 17.2904 38.8094 17.5057C39.016 17.7296 39.1624 17.9534 39.2313 18.1859C39.3088 18.4184 39.3432 18.5992 39.3432 18.7198V20.5625C39.3432 21.2255 39.6532 21.5527 40.2646 21.5527H41.2204C41.7801 21.5527 42.1762 21.6991 42.4001 21.9919C42.624 22.2847 42.7273 22.6205 42.7273 22.9821C42.7273 23.3955 42.5895 23.7485 42.3226 24.0327C42.0556 24.3168 41.6854 24.4546 41.2204 24.4546H40.2646C39.6532 24.4546 39.3432 24.7215 39.3432 25.264V28.4672C39.3432 28.9322 39.1883 29.3111 38.8869 29.6038C38.5769 29.8966 38.2152 30.043 37.8019 30.043C37.3369 30.043 36.9581 29.8966 36.6653 29.6038C36.3725 29.3111 36.2261 28.9322 36.2261 28.4672V18.7198ZM49.9862 28.76C49.9862 29.423 50.3048 29.7502 50.942 29.7502H54.2485C54.7652 29.7502 55.1527 29.9052 55.411 30.2066C55.6693 30.5166 55.7985 30.8352 55.7985 31.1796C55.7985 31.5757 55.6607 31.9115 55.3765 32.2129C55.0924 32.5057 54.7221 32.6521 54.2571 32.6521H44.0706C43.6314 32.6521 43.2698 32.5057 42.9856 32.2129C42.7015 31.9201 42.5637 31.5757 42.5637 31.1796C42.5637 30.8352 42.6842 30.508 42.9339 30.2066C43.175 29.8966 43.5625 29.7502 44.0706 29.7502H45.9477C46.5849 29.7502 46.9035 29.4316 46.9035 28.7944V27.6147C46.9035 27.1498 47.0413 26.7795 47.3254 26.5126C47.6096 26.2456 47.9713 26.1079 48.4104 26.1079C48.9529 26.1079 49.349 26.2542 49.6073 26.547C49.8656 26.8398 49.9948 27.1928 49.9948 27.6147V28.7514L49.9862 28.76ZM54.326 26.0734C54.326 26.4867 54.171 26.8484 53.8697 27.1412C53.5597 27.4339 53.1894 27.5803 52.7502 27.5803C52.3369 27.5803 51.9839 27.4339 51.6997 27.1412C51.4156 26.8484 51.2778 26.4953 51.2778 26.0734V22.8013C51.2778 22.3363 51.1573 21.9661 50.9075 21.6991C50.6578 21.4322 50.322 21.2944 49.8742 21.2944H45.9736C45.5086 21.2944 45.1297 21.1567 44.8369 20.8897C44.5442 20.6228 44.3978 20.2611 44.3978 19.822C44.3978 19.357 44.5442 18.9953 44.8369 18.737C45.1297 18.4787 45.5086 18.3495 45.9736 18.3495H52.0097C52.6469 18.3495 53.1894 18.539 53.6458 18.9178C54.1021 19.2967 54.326 19.8823 54.326 20.6658V26.0734Z" fill="#B7CA00"/>
<path d="M74.104 26.4782C73.7079 26.0821 73.372 25.7291 73.0965 25.4105C72.8123 25.0919 72.511 24.7733 72.1924 24.4547C71.8221 24.1103 71.4949 23.9294 71.2021 23.9036C70.9094 23.8778 70.5649 24.05 70.1688 24.4202C69.7555 24.8163 69.3422 25.2211 68.9375 25.6344C68.5328 26.0477 68.1797 26.4093 67.887 26.7021C67.4909 27.0465 67.0775 27.1671 66.6384 27.0724C66.1992 26.9777 65.8376 26.8054 65.5707 26.5557C65.2779 26.2113 65.1487 25.8324 65.1832 25.4191C65.2176 25.0058 65.3984 24.67 65.717 24.4289C65.8634 24.3083 66.0098 24.1878 66.1562 24.0758C66.3026 23.9639 66.4662 23.8519 66.6384 23.7228C67.1292 23.3267 67.6028 22.922 68.0764 22.5087C68.5414 22.0953 68.9203 21.6045 69.1958 21.0362C69.48 20.4765 69.5919 19.7704 69.5488 18.9438C69.4972 18.5046 69.635 18.1344 69.9536 17.8416C70.2722 17.5488 70.6424 17.4025 71.0557 17.4025C71.4949 17.4025 71.8738 17.5488 72.1924 17.8416C72.511 18.1344 72.6487 18.5046 72.5971 18.9438C72.5454 19.8049 72.6487 20.5023 72.8898 21.0362C73.1309 21.5787 73.484 22.0437 73.9404 22.4312C74.3967 22.8272 74.8875 23.2147 75.43 23.6108C75.5764 23.6883 75.7142 23.7744 75.8347 23.8692C75.9553 23.9639 76.093 24.0672 76.2394 24.1619C76.558 24.403 76.7216 24.7733 76.7389 25.2641C76.7475 25.7549 76.6097 26.151 76.3169 26.4438C76.0242 26.7624 75.6453 26.926 75.1975 26.9432C74.7412 26.9518 74.3795 26.8054 74.1126 26.4868L74.104 26.4782ZM70.0224 39.4977C69.5833 39.4977 69.2216 39.36 68.9375 39.093C68.6533 38.8261 68.5156 38.4558 68.5156 37.9909C68.5156 37.5517 68.6533 37.2159 68.9375 36.9834C69.2216 36.7509 69.5833 36.6304 70.0224 36.6304H70.608C70.9782 36.6304 71.1591 36.3979 71.1591 35.9329V34.4604C71.1591 33.9696 70.9782 33.7285 70.608 33.7285H70.1258C69.6608 33.7285 69.2819 33.5994 69.0064 33.341C68.7222 33.0827 68.5844 32.721 68.5844 32.2561C68.5844 31.8169 68.7222 31.4725 69.0064 31.2228C69.2905 30.9817 69.6522 30.8525 70.0913 30.8525H79.8732C80.3382 30.8525 80.717 30.9731 80.9926 31.2228C81.2767 31.4725 81.4145 31.8083 81.4145 32.2561C81.4145 32.721 81.2767 33.0827 80.9926 33.341C80.7084 33.5994 80.3382 33.7285 79.8732 33.7285H79.5804C79.4082 33.7027 79.2532 33.7457 79.0982 33.8577C78.9518 33.9696 78.8743 34.1418 78.8743 34.3915V35.9329C78.8743 36.3979 79.0724 36.6304 79.4599 36.6304H80.0454C80.4415 36.6304 80.7773 36.7423 81.0787 36.9834C81.3715 37.2159 81.5178 37.5517 81.5178 37.9909C81.5178 38.4558 81.3715 38.8261 81.0787 39.093C80.7859 39.36 80.4329 39.4977 80.011 39.4977H70.0052H70.0224ZM76.1275 34.6068C76.1275 34.1935 76.0328 33.9352 75.8347 33.8491C75.6367 33.763 75.4386 33.7199 75.2492 33.7199H74.8445C74.6723 33.7199 74.4828 33.763 74.2762 33.8491C74.0695 33.9352 73.9662 34.1763 73.9662 34.5638V35.8554C73.9662 36.1223 74.0523 36.3204 74.2245 36.4409C74.3967 36.5615 74.6034 36.6217 74.8531 36.6217H75.2578C75.4817 36.6217 75.6797 36.5701 75.8606 36.4581C76.0414 36.3462 76.1361 36.1309 76.1361 35.8123V34.5982L76.1275 34.6068ZM81.5351 28.3123C81.5351 28.7773 81.3973 29.1562 81.1131 29.4489C80.829 29.7417 80.4673 29.8881 80.0282 29.8881C79.589 29.8881 79.2102 29.7417 78.8916 29.4489C78.573 29.1562 78.4093 28.7773 78.4093 28.3123V18.6424C78.4093 18.5219 78.4524 18.341 78.5385 18.1085C78.6246 17.876 78.7796 17.6522 79.0207 17.4283C79.2532 17.2044 79.589 17.1011 80.0282 17.1011C80.4932 17.1011 80.8634 17.2388 81.1304 17.523C81.3973 17.8072 81.5351 18.1774 81.5351 18.6424V28.3123ZM95.0712 29.1648C95.5879 29.1648 95.9754 29.3112 96.2337 29.6039C96.492 29.8967 96.6212 30.2411 96.6212 30.6372C96.6212 31.0333 96.4834 31.3692 96.1993 31.6447C95.9151 31.9289 95.5448 32.0666 95.0798 32.0666H84.9622C84.4972 32.0666 84.1183 31.9289 83.8255 31.6447C83.5328 31.3605 83.3864 31.0247 83.3864 30.6372C83.3864 30.2498 83.5156 29.9053 83.7739 29.6039C84.0322 29.3112 84.4283 29.1648 84.9708 29.1648H95.0885H95.0712ZM85.2549 22.2848C85.2549 21.3548 85.4788 20.5282 85.9352 19.8221C86.3916 19.1074 86.9943 18.5563 87.7521 18.1516C88.5098 17.7469 89.3451 17.5488 90.2492 17.5488C91.1533 17.5488 91.9886 17.7469 92.7463 18.1516C93.5041 18.5563 94.1154 19.116 94.589 19.8221C95.054 20.5368 95.2865 21.3548 95.2865 22.2848C95.2865 23.2147 95.054 24.0844 94.589 24.8077C94.124 25.531 93.5127 26.0994 92.7463 26.5041C91.9886 26.9088 91.1533 27.1068 90.2492 27.1068C89.3451 27.1068 88.5098 26.9088 87.7521 26.5041C86.9943 26.0994 86.3829 25.5396 85.9352 24.8077C85.4788 24.0844 85.2549 23.2406 85.2549 22.2848ZM85.2549 35.2698C85.2549 34.8307 85.4013 34.4604 85.6941 34.1677C85.9868 33.8749 86.3657 33.7285 86.8307 33.7285C87.244 33.7285 87.6057 33.8749 87.9157 34.1677C88.2257 34.4604 88.372 34.8307 88.372 35.2698V37.6206C88.372 37.965 88.4754 38.2922 88.682 38.5936C88.8887 38.9036 89.2417 39.05 89.7325 39.05H93.6332C94.0724 39.05 94.4426 39.1878 94.7354 39.4547C95.0282 39.7216 95.1746 40.0661 95.1746 40.488C95.1746 40.953 95.0282 41.3232 94.7354 41.5902C94.4426 41.8571 94.0724 41.9949 93.6332 41.9949H87.5971C86.9599 41.9949 86.4088 41.7968 85.9438 41.3921C85.4788 40.9874 85.2463 40.4277 85.2463 39.7216V35.2698H85.2549ZM88.3462 22.2848C88.3462 22.8703 88.5356 23.3353 88.9145 23.6625C89.2934 23.9897 89.7412 24.1619 90.2578 24.1619C90.8175 24.1619 91.2911 23.9983 91.6528 23.6625C92.0144 23.3267 92.2038 22.8703 92.2038 22.2848C92.2038 21.6992 92.023 21.2773 91.6528 20.9415C91.2825 20.6057 90.8175 20.4421 90.2578 20.4421C89.7412 20.4421 89.2934 20.6057 88.9145 20.9415C88.5356 21.2687 88.3462 21.7165 88.3462 22.2848Z" fill="#B7CA00"/>
<path d="M108.444 41.8483C108.444 40.5481 108.857 39.4459 109.684 38.5418C110.511 37.629 111.535 37.0521 112.749 36.8024C112.637 36.5785 112.586 36.2772 112.586 35.8897V35.02C112.586 34.245 112.224 33.8575 111.509 33.8575H108.616C108.039 33.8575 107.609 33.6939 107.333 33.3581C107.058 33.0309 106.92 32.6692 106.92 32.2817C106.92 31.8168 107.075 31.4293 107.394 31.1193C107.712 30.8179 108.117 30.6629 108.616 30.6629H120.077C120.602 30.6629 121.024 30.8179 121.343 31.1193C121.662 31.4207 121.817 31.8082 121.817 32.2817C121.817 32.6692 121.67 33.0309 121.386 33.3581C121.093 33.6853 120.663 33.8575 120.086 33.8575H117.15C116.435 33.8575 116.073 34.2536 116.073 35.0544V35.8811C116.073 36.2427 115.987 36.5699 115.823 36.8713C116.951 37.1727 117.89 37.7754 118.639 38.671C119.388 39.5665 119.759 40.6256 119.759 41.8397C119.759 42.8558 119.5 43.7685 118.975 44.5693C118.45 45.3701 117.77 45.9901 116.926 46.4293C116.082 46.8684 115.152 47.0923 114.136 47.0923C113.12 47.0923 112.173 46.8684 111.303 46.4293C110.433 45.9901 109.744 45.3701 109.236 44.5693C108.728 43.7685 108.47 42.8558 108.47 41.8397L108.444 41.8483ZM116.426 21.656C116.288 21.656 116.202 21.6991 116.159 21.7766C116.116 21.8627 116.099 21.9316 116.099 21.9832C116.099 22.5602 116.487 23.0768 117.261 23.5332C118.036 23.9896 118.984 24.6009 120.12 25.3759C120.422 25.5998 120.62 25.9528 120.723 26.4522C120.818 26.9517 120.671 27.3908 120.292 27.7783C119.991 28.14 119.578 28.3122 119.07 28.3122C118.562 28.3122 118.114 28.1486 117.726 27.8127L115.574 25.9959C115.135 25.6084 114.773 25.4276 114.497 25.4362C114.222 25.4534 113.86 25.6514 113.421 26.0389L111.062 27.985C110.648 28.3466 110.183 28.5188 109.675 28.5016C109.167 28.4844 108.754 28.3036 108.453 27.9419C108.091 27.5803 107.936 27.1497 107.979 26.6417C108.022 26.1336 108.246 25.7375 108.659 25.462C109.96 24.6612 110.95 24.024 111.639 23.5418C112.327 23.0596 112.689 22.5429 112.715 21.9918C112.715 21.9402 112.698 21.8713 112.655 21.7852C112.612 21.6991 112.508 21.6646 112.345 21.6646H110.149C109.65 21.6646 109.253 21.5183 108.952 21.2341C108.651 20.9413 108.496 20.5538 108.496 20.0544C108.496 19.5292 108.651 19.1158 108.952 18.8145C109.253 18.5131 109.658 18.3581 110.149 18.3581H118.631C119.13 18.3581 119.535 18.5131 119.853 18.8145C120.172 19.1158 120.327 19.5292 120.327 20.0544C120.327 20.5538 120.172 20.9413 119.853 21.2341C119.535 21.5269 119.13 21.6646 118.631 21.6646H116.435L116.426 21.656ZM111.957 41.8483C111.957 42.4855 112.164 42.9764 112.577 43.338C112.991 43.6997 113.499 43.8719 114.11 43.8719C114.721 43.8719 115.229 43.691 115.643 43.338C116.056 42.9764 116.263 42.4855 116.263 41.8483C116.263 41.2111 116.056 40.7203 115.643 40.3587C115.229 39.997 114.721 39.8248 114.11 39.8248C113.499 39.8248 112.991 40.0056 112.577 40.3587C112.164 40.7203 111.957 41.2111 111.957 41.8483ZM137.66 45.1204C137.66 45.6199 137.497 46.0246 137.161 46.3432C136.834 46.6618 136.412 46.8168 135.921 46.8168C135.43 46.8168 135.017 46.6618 134.698 46.3432C134.38 46.0246 134.225 45.6199 134.225 45.1204V42.0205C134.225 41.4953 134.096 41.0734 133.829 40.7548C133.57 40.4362 133.174 40.2812 132.649 40.2812H128.473C127.947 40.2812 127.526 40.1348 127.207 39.8506C126.888 39.5579 126.733 39.1532 126.733 38.6279C126.733 38.1285 126.888 37.741 127.207 37.4482C127.526 37.1555 127.947 37.0177 128.473 37.0177H130.625C130.402 36.7163 130.298 36.3374 130.298 35.8983V35.0286C130.298 34.2536 129.937 33.8661 129.222 33.8661H126.329C125.752 33.8661 125.321 33.7025 125.046 33.3667C124.77 33.0395 124.632 32.6778 124.632 32.2904C124.632 31.8254 124.787 31.4379 125.106 31.1279C125.425 30.8265 125.829 30.6715 126.329 30.6715H137.79C138.315 30.6715 138.737 30.8265 139.055 31.1279C139.374 31.4293 139.529 31.8168 139.529 32.2904C139.529 32.6778 139.383 33.0395 139.098 33.3667C138.806 33.6939 138.375 33.8661 137.798 33.8661H134.862C134.147 33.8661 133.786 34.2622 133.786 35.063V35.8897C133.786 36.3288 133.674 36.6991 133.458 37.0091H135.112C135.826 37.0091 136.438 37.2243 136.929 37.6463C137.428 38.0768 137.678 38.714 137.678 39.5665V45.1118L137.66 45.1204ZM137.454 27.5286C137.454 28.0022 137.282 28.3983 136.937 28.7255C136.593 29.0527 136.171 29.2249 135.671 29.2249C135.198 29.2249 134.81 29.0613 134.492 28.7255C134.173 28.3983 134.018 27.9936 134.018 27.5286V23.8432C134.018 23.3179 133.88 22.9046 133.605 22.6032C133.329 22.3018 132.942 22.1468 132.442 22.1468H128.059C127.534 22.1468 127.104 21.9918 126.776 21.6905C126.449 21.3891 126.277 20.9844 126.277 20.4936C126.277 19.9683 126.441 19.5636 126.776 19.2708C127.104 18.9781 127.534 18.8403 128.059 18.8403H134.845C135.559 18.8403 136.179 19.0556 136.687 19.4775C137.195 19.908 137.454 20.5625 137.454 21.4408V27.52V27.5286Z" fill="#B7CA00"/>
</svg>
