<svg width="350" height="262" viewBox="0 0 350 262" fill="none" xmlns="http://www.w3.org/2000/svg">
<g clip-path="url(#clip0_1228_5809)">
<path d="M1.08184 123.975V113.14L16.2522 111.321L35.7499 97.6107L37.2006 88.2245C37.2006 88.2245 34.6681 76.6761 36.4875 76.6761C38.307 76.6761 46.2487 76.3076 46.2487 76.3076L48.4124 63.3095C48.4124 63.3095 61.419 63.3095 61.7633 62.2284C62.1321 61.1472 64.6646 52.8422 64.6646 52.8422L71.5244 46.6995L86.326 56.7982L94.2676 60.7787L92.4482 74.1453L110.151 78.8384L118.83 88.9371L134.714 96.161L157.113 96.8735L171.57 104.441L185.659 99.0358L204.812 98.3232L214.204 88.9371L210.59 81.7132L218.901 77.0201L236.972 77.7327L238.767 69.4277L252.487 65.8157C252.487 65.8157 255.388 63.6535 255.019 61.1227C254.65 58.5919 249.241 55.3485 249.241 55.3485L240.218 53.5548C240.218 53.5548 244.914 42.719 245.283 40.1882C245.652 37.6573 244.914 36.2076 249.979 36.2076C255.044 36.2076 258.289 34.7579 258.289 34.7579C258.289 34.7579 265.149 22.497 265.518 21.3913C265.887 20.3102 264.436 13.0863 264.436 13.0863L268.764 3.70016L286.466 0.800781L303.8 7.6561L309.947 26.7969L317.889 40.1636L326.913 40.8761L327.281 54.9553L340.288 53.8742L347.885 49.5497L350.049 67.6094L338.493 76.9956L330.183 79.5264L325.855 80.9761L326.224 94.3427L317.545 100.485L311.398 103.016L305.989 109.159L291.9 106.997L283.959 118.545C283.959 118.545 280.713 120.339 277.812 120.707C274.91 121.076 273.829 127.194 272.747 125.769C271.665 124.319 270.583 120.707 270.583 120.707L273.46 112.402H266.969C266.969 112.402 262.641 120.339 259.371 121.42C256.126 122.501 245.996 124.319 245.996 124.319L253.224 132.256L256.839 138.03L264.067 135.868H268.764L273.829 139.48L261.191 147.785L265.518 166.557L268.395 183.167C268.395 183.167 260.084 204.814 259.002 205.551C257.921 206.264 250.692 223.611 250.692 225.773C250.692 227.935 240.587 231.547 238.423 232.26C236.259 232.973 222.884 241.278 214.573 241.278C206.263 241.278 197.239 241.99 196.157 241.646C195.076 241.278 190.011 239.852 186.396 238.403C182.782 236.953 179.168 232.628 179.168 232.628C179.168 232.628 166.161 234.791 161.833 235.872C157.506 236.953 153.892 235.872 153.892 239.115C153.892 242.359 152.097 245.258 149.909 244.889C147.745 244.521 139.066 233.341 139.066 233.341C139.066 233.341 128.96 226.486 129.305 224.323C129.673 222.161 134.001 210.244 134.001 210.244C134.001 210.244 132.919 201.571 130.755 201.571C128.591 201.571 114.134 202.283 113.052 203.733C111.97 205.183 107.274 210.22 106.192 210.22C105.111 210.22 97.1689 204.077 97.1689 204.077C97.1689 204.077 88.8584 200.465 86.326 201.915C83.7935 203.364 74.0323 205.527 70.7868 204.814C67.5413 204.102 50.5515 195.059 47.6747 193.978C44.7734 192.897 41.1837 185.305 37.2006 184.592C33.2174 183.88 25.6445 178.818 25.6445 178.818C25.6445 178.818 23.112 168.719 24.5627 167.27C26.0133 165.82 21.3172 154.984 21.3172 154.984C21.3172 154.984 19.4977 146.679 11.2118 144.517C2.9013 142.355 0.368809 136.212 0.368809 136.212C0.368809 136.212 0 129.356 0 127.907C0 126.457 1.08184 123.926 1.08184 123.926" fill="#9DC147"/>
<path d="M266.575 217.123C266.575 217.123 260.797 229.753 261.166 230.834C261.535 231.915 259.715 239.139 262.961 239.507C266.206 239.876 264.042 242.407 266.206 239.876C268.37 237.345 273.435 222.922 272.353 222.553C271.271 222.185 266.575 217.148 266.575 217.148" fill="#9DC147"/>
<path d="M204.075 247.443C204.075 247.443 194.314 255.036 195.764 256.461C197.215 257.911 199.01 261.154 201.173 261.154C203.337 261.154 209.484 252.849 209.484 252.849L206.583 248.524L204.05 247.443H204.075Z" fill="#9DC147"/>
<path d="M203.214 241.548C203.017 241.548 202.845 241.474 202.697 241.326C202.427 241.032 202.427 240.589 202.697 240.294C202.919 240.073 203.14 239.877 203.312 239.705C204.074 238.992 204.271 238.82 204.566 237.567L204.713 236.928L205.377 237.026C205.894 237.125 206.361 236.83 206.73 236.314C207.172 235.7 207.271 234.963 207 234.397C206.926 234.275 206.853 234.127 206.779 234.004C206.41 233.39 205.894 232.53 206.41 231.67C206.705 231.154 207.246 230.933 207.541 230.81L213.368 228.427C213.762 225.503 213.762 222.53 213.368 219.63C213.344 219.36 213.442 219.139 213.639 218.967C213.024 218.746 212.458 218.352 212.04 217.787C211.082 216.485 211.18 214.79 211.278 213.291L211.327 212.554C211.401 211.129 210.934 209.531 209.951 209.359C209.631 209.31 209.238 209.409 208.82 209.507C207.098 209.949 205.476 210.023 204 209.777C203.632 211.423 202.525 212.849 201.075 213.512C200.927 213.586 200.755 213.659 200.583 213.709C200.239 213.831 199.968 213.954 199.747 214.126C199.329 214.495 199.181 215.183 199.009 215.92C198.862 216.559 198.714 217.247 198.345 217.861C197.264 219.679 194.879 219.9 193.108 219.36C192.297 219.114 191.559 218.721 190.846 218.377C190.084 218.008 189.371 217.64 188.633 217.419C187.183 217.001 185.634 217.148 183.913 217.345C183.445 217.394 183.101 217.443 182.88 217.64C182.659 217.812 182.487 218.156 182.364 218.451C180.888 221.375 179.487 224.372 178.184 227.37C178.356 227.64 178.503 227.935 178.626 228.279C178.798 228.82 178.848 229.336 178.872 229.876C178.921 230.466 178.971 231.031 179.216 231.424C179.438 231.768 179.339 232.211 178.995 232.432C178.651 232.653 178.208 232.555 177.987 232.211C177.544 231.498 177.471 230.687 177.422 229.975C177.397 229.532 177.348 229.09 177.225 228.721C177.151 228.476 177.028 228.255 176.881 228.058C176.782 227.984 176.709 227.886 176.684 227.788C176.413 227.468 176.069 227.149 175.7 226.854C175.16 226.387 174.619 225.896 174.201 225.257C173.143 223.684 173.168 221.817 173.217 219.999C173.217 218.524 173.266 217.124 172.725 215.945C172.086 214.495 170.734 213.61 169.283 212.677C168.89 212.431 168.521 212.185 168.152 211.915C166.751 210.932 165.521 209.753 164.464 208.401C164.513 209.212 164.39 210.023 163.825 210.686C163.358 211.251 162.645 211.571 161.784 211.645C159.227 211.841 156.744 209.802 155.17 206.165C154.924 205.576 154.678 204.961 154.432 204.347C153.646 202.283 152.883 200.317 151.408 199.04C148.138 196.165 142.999 198.032 139.262 200.096C139.016 200.244 138.746 200.219 138.524 200.096C138.426 200.391 138.229 200.612 137.811 200.588C137.418 200.588 137.098 200.219 137.123 199.826C137.246 197.762 138.107 195.895 138.967 194.101C139.852 192.233 140.688 190.464 140.664 188.548C140.639 186.435 139.533 184.469 138.5 182.553L138.107 181.84C137.025 179.825 135.672 176.852 136.533 174.002C136.705 173.437 136.975 172.773 137.271 172.061C137.934 170.439 138.746 168.424 138.402 167.171C138.303 166.778 138.524 166.385 138.918 166.286C138.967 166.286 139.041 166.262 139.09 166.262C138.942 165.992 138.82 165.721 138.697 165.451C138.451 164.96 138.229 164.444 137.934 163.977C136.607 161.765 134.197 160.389 131.738 160.488C131.173 160.488 130.411 160.635 130.042 161.176C129.55 161.888 129.894 162.797 130.558 164.223C130.927 164.984 131.296 165.77 131.443 166.606C131.911 169.112 130.189 171.422 128.247 172.405C126.28 173.388 124.092 173.387 122.125 173.387C120.945 173.387 119.445 173.388 118.166 172.675C116.273 171.643 115.388 169.505 114.527 167.441C113.691 165.377 112.88 163.436 111.183 162.969C110.274 162.724 109.266 162.969 108.208 163.215L108.012 163.264C103.635 164.296 99.1848 164.591 94.7345 164.149C92.9397 163.977 91.0956 163.633 89.6696 162.38C87.2846 160.291 87.26 156.925 87.26 153.657C87.26 150.708 87.26 147.907 85.5881 146.089C85.3176 145.794 85.3422 145.327 85.6372 145.057C85.3668 145.057 85.1209 145.033 84.8504 145.008C83.4244 144.836 82.0229 144.418 80.6706 144.025C78.7036 143.46 76.8104 142.895 74.9172 143.042C73.3928 143.165 71.9421 143.706 70.3931 144.295C69.09 144.787 67.7623 145.278 66.3608 145.524C63.8037 145.966 61.1729 145.475 58.6404 145.008C55.567 144.443 52.6411 143.902 49.9611 144.959C49.0268 145.327 48.1416 145.893 47.2073 146.458C45.6337 147.44 44.011 148.472 42.0932 148.546C39.8065 148.669 37.8642 147.49 35.8726 146.163C34.1761 145.033 32.4304 143.878 30.5371 143.878C29.2832 143.878 24.2674 146.875 22.0545 149.406C21.3907 150.168 21.2431 150.635 21.2677 150.758C21.3169 151.151 21.0464 151.519 20.6531 151.568C20.2351 151.642 19.8908 151.347 19.8417 150.954C19.7433 150.242 20.1121 149.431 20.9727 148.448C23.2593 145.819 28.6193 142.428 30.5371 142.428C32.8483 142.428 34.8891 143.755 36.6594 144.934C38.4542 146.114 40.2245 147.195 42.0194 147.072C43.5684 146.998 44.9453 146.114 46.4205 145.205C47.3548 144.615 48.3383 144.001 49.3956 143.583C52.4936 142.354 55.7391 142.969 58.8863 143.558C61.2958 144.001 63.7791 144.467 66.0904 144.074C67.3443 143.853 68.5737 143.411 69.8522 142.919C71.4258 142.33 73.0486 141.715 74.7697 141.593C76.9579 141.421 79.0233 142.035 81.0394 142.625C82.3425 142.993 83.6703 143.386 84.9734 143.558C86.9404 143.804 89.1286 143.165 90.4564 141.986C91.3661 141.175 91.8086 140.192 91.8086 139.086C91.8086 138.202 91.489 137.342 91.1448 136.433C90.9235 135.818 90.7022 135.204 90.5547 134.541C89.522 129.897 93.0134 125.4 96.8245 123.533C99.4553 122.231 102.307 121.739 105.086 121.272C106.315 121.051 107.569 120.855 108.774 120.56C109.954 120.289 110.864 119.97 111.503 119.307C112.757 118.054 112.659 116.014 112.56 113.852C112.487 112.476 112.437 111.051 112.708 109.699C113.372 106.505 115.904 104.318 118.142 102.402L118.633 101.984C120.895 100.043 123.846 95.7922 123.6 92.8682C123.575 92.4751 123.846 92.1311 124.264 92.0819C124.657 92.0328 125.001 92.3277 125.051 92.7454C125.37 96.3327 122.051 100.952 119.592 103.09L119.101 103.507C116.937 105.375 114.699 107.291 114.134 110.019C113.888 111.174 113.962 112.525 114.011 113.803C114.134 116.162 114.232 118.619 112.536 120.339C111.601 121.297 110.323 121.69 109.094 121.96C107.84 122.255 106.586 122.476 105.307 122.697C102.504 123.189 99.8733 123.631 97.4391 124.835C94.1199 126.481 91.071 130.339 91.9562 134.246C92.0791 134.811 92.2758 135.376 92.4971 135.966C92.8659 136.949 93.2347 137.981 93.2347 139.111C93.2347 140.634 92.62 142.035 91.3907 143.116C90.1367 144.246 88.3173 144.959 86.4978 145.082C86.5224 145.082 86.547 145.131 86.5716 145.155C88.5877 147.391 88.6123 150.586 88.6123 153.682C88.6123 156.753 88.6123 159.652 90.5301 161.323C91.6611 162.306 93.2347 162.576 94.7837 162.724C99.0619 163.141 103.365 162.847 107.569 161.864L107.766 161.815C108.897 161.544 110.2 161.225 111.454 161.593C113.814 162.257 114.798 164.616 115.732 166.901C116.519 168.817 117.256 170.611 118.707 171.422C119.789 172.012 121.141 171.938 122.371 171.938C124.043 171.938 125.887 171.889 127.436 171.102C128.862 170.39 130.214 168.645 129.87 166.876C129.747 166.237 129.427 165.525 129.108 164.837C128.444 163.412 127.706 161.815 128.714 160.365C129.28 159.554 130.239 159.112 131.542 159.063C134.443 159.013 137.443 160.586 139.041 163.24C139.336 163.756 139.606 164.296 139.877 164.837C140.344 165.82 140.787 166.729 141.475 167.368C143.54 169.26 147.032 167.761 149.245 165.377C149.835 164.763 150.376 164.075 150.916 163.412C152.613 161.348 154.383 159.21 156.94 158.35C160.727 157.072 164.218 159.136 167.587 161.102C169.627 162.306 171.767 163.535 173.906 164.026C175.43 164.37 176.954 164.321 178.577 164.198C178.479 163.928 178.577 163.608 178.798 163.412C180.741 161.741 180.716 158.719 180.667 155.5C180.643 151.986 180.593 148.374 183.372 146.458L183.618 146.286C183.863 146.114 184.085 145.991 184.183 145.819C184.38 145.426 183.937 144.811 183.421 144.541C183.15 144.394 182.855 144.295 182.56 144.197C182.019 144.001 181.405 143.779 180.864 143.313C179.979 142.551 179.634 141.421 179.88 140.167C180.249 138.349 181.823 136.506 183.568 135.941C184.208 135.72 184.872 135.597 185.535 135.474C184.134 133.165 183.691 130.658 184.183 128.029C184.208 127.857 184.257 127.636 184.232 127.563C184.232 127.563 184.158 127.489 184.085 127.391C183.249 126.678 182.093 126.285 180.913 126.383C179.708 126.457 178.602 126.997 177.864 127.882C177.643 128.128 177.446 128.423 177.225 128.717C176.438 129.774 175.528 131.002 174.078 130.953C173.242 130.953 172.455 130.486 171.717 129.651C169.48 127.096 169.357 123.361 169.259 120.068C169.234 118.963 169.16 118.004 168.669 117.415C168.251 116.899 167.537 116.702 166.652 116.506C163.259 115.719 159.424 115.056 156.842 117.243C156.645 117.415 156.473 117.587 156.301 117.759C155.883 118.176 155.416 118.619 154.85 118.914C153.621 119.577 152.539 119.38 151.433 119.061C151.433 120.486 151.138 121.911 150.498 123.164L150.4 123.361C149.982 124.172 149.515 125.081 149.859 125.597C150.056 125.867 150.523 125.99 150.99 126.088C154.924 126.997 158.784 128.766 162.104 131.224C163.431 132.206 165.079 133.558 165.939 135.499C166.898 137.612 166.628 140.094 165.3 141.519C164.267 142.649 162.866 142.993 161.514 143.313C160.604 143.534 159.743 143.73 159.03 144.173C157.211 145.303 156.547 147.858 156.694 149.898C156.867 152.256 157.899 154.468 158.883 156.605C159.055 156.974 158.883 157.392 158.539 157.564C158.17 157.736 157.752 157.564 157.58 157.22C156.572 155.082 155.441 152.65 155.244 150.02C154.998 146.998 156.203 144.197 158.268 142.944C159.178 142.379 160.186 142.133 161.169 141.912C162.374 141.617 163.481 141.347 164.243 140.536C165.3 139.381 165.226 137.44 164.636 136.089C163.899 134.467 162.448 133.263 161.268 132.378C158.096 130.044 154.432 128.373 150.671 127.489C150.031 127.341 149.171 127.145 148.679 126.408C147.843 125.204 148.581 123.754 149.122 122.697L149.22 122.501C150.695 119.577 150.007 115.596 147.646 113.459C147.081 112.943 146.589 112.697 146.122 112.648C145.606 112.623 144.966 112.894 144.327 113.188C144.081 113.311 143.86 113.41 143.614 113.508C141.131 114.54 138.156 114.073 136.041 112.304C133.976 110.559 132.845 107.635 133.189 104.834C133.337 103.63 133.73 102.525 134.099 101.443C134.369 100.633 134.64 99.871 134.812 99.0847C134.91 98.667 134.984 98.3721 135.058 98.151C134.886 98.0773 134.689 97.9544 134.418 97.807C134.074 97.6104 133.951 97.1681 134.148 96.8242C134.345 96.4802 134.787 96.3573 135.131 96.5539C135.476 96.7504 135.697 96.8733 135.869 96.947C136.484 97.2419 136.803 97.5859 136.508 98.3967C136.435 98.5933 136.336 98.8881 136.213 99.3795C136.017 100.264 135.722 101.1 135.451 101.91C135.082 102.967 134.738 103.974 134.615 105.006C134.345 107.316 135.254 109.749 136.975 111.198C138.672 112.623 141.057 112.992 143.049 112.156C143.27 112.058 143.491 111.96 143.712 111.862C144.45 111.518 145.261 111.075 146.245 111.174C147.032 111.247 147.818 111.616 148.63 112.353C150.056 113.655 150.966 115.498 151.31 117.439C152.588 117.857 153.301 118.029 154.187 117.562C154.58 117.366 154.924 117.022 155.318 116.653C155.514 116.456 155.736 116.26 155.932 116.063C159.006 113.434 163.259 114.147 166.997 115.007C167.857 115.203 169.013 115.474 169.8 116.407C170.586 117.341 170.685 118.594 170.734 119.773C170.832 123.14 170.955 126.457 172.848 128.644C173.168 129.012 173.66 129.454 174.151 129.454C174.84 129.405 175.479 128.668 176.118 127.808C176.364 127.489 176.586 127.169 176.831 126.899C177.815 125.744 179.29 125.032 180.864 124.909C182.437 124.811 183.962 125.302 185.093 126.285C185.24 126.408 185.486 126.629 185.634 126.973C185.83 127.415 185.732 127.882 185.683 128.201C185.191 130.732 185.707 133.066 187.183 135.229C188.56 135.057 189.838 134.836 190.92 134.148C192.666 133.017 193.477 130.855 194.338 128.594C195.026 126.752 195.739 124.86 197.018 123.385C197.706 122.599 198.517 121.96 199.304 121.321C200.509 120.388 201.64 119.503 202.181 118.176C202.328 117.808 202.427 117.439 202.525 117.071C202.673 116.506 202.82 115.916 203.115 115.375C204.443 112.869 207.738 112.304 211.942 113.852C214.548 114.81 217.72 115.646 219.294 113.631C220.351 112.279 220.179 110.215 220.031 108.225C219.785 105.35 219.712 101.738 221.089 98.5687C222.564 95.1779 225.686 92.9911 228.661 93.2368L229.129 93.2859L230.407 96.9224C232.177 96.8487 233.702 95.3007 235.3 93.6791C237.292 91.6642 239.332 89.6003 242.086 90.19C244.496 90.706 245.7 92.9911 246.856 95.2025C247.717 96.8487 248.553 98.4213 249.807 99.2321L253.323 92.3031C253.79 91.3694 254.38 90.2145 255.486 89.5757C257.601 88.3471 259.592 89.8214 261.363 91.1237C262.321 91.8362 263.33 92.5734 264.313 92.8928C266.649 93.6545 268.812 92.0328 271.124 90.3374C272.648 89.2317 274.222 88.0769 275.943 87.4872L276.385 87.3643C276.779 87.2414 277.172 87.1186 277.467 86.9466C278.033 86.6026 278.352 86.0129 278.426 85.2266C278.574 83.8261 277.861 82.0324 276.754 80.9758C276.017 80.2878 275.181 79.7227 274.295 79.133C272.919 78.2239 271.493 77.2656 270.509 75.7913C268.419 72.6954 269.181 67.8795 272.132 65.6681C272.894 65.1029 273.779 64.6607 274.64 64.2184C276.213 63.4321 277.59 62.7441 278.008 61.5156C277.689 61.4419 277.369 61.3681 277.074 61.319C276.68 61.2453 276.435 60.8522 276.508 60.459C276.582 60.0659 276.975 59.8202 277.369 59.8939C277.59 59.943 277.836 59.9922 278.082 60.0413C277.787 58.911 276.779 57.9528 275.722 56.9454C274.295 55.5694 272.648 54.0214 272.894 51.81C273.017 50.606 273.705 49.5986 274.369 48.7878C276.115 46.6501 278.156 44.8564 280.467 43.4559L280.762 43.2839C281.524 42.817 282.262 42.3993 282.704 41.7359C283.196 40.9988 283.319 39.9913 283.442 38.9348C283.491 38.6154 283.516 38.2959 283.565 37.9765C283.983 35.2983 285.212 32.9149 286.392 30.6298C286.909 29.6469 287.4 28.6395 287.843 27.6321C288.458 26.2316 290.228 21.5631 288.212 18.2706L282.385 21.3174C281.942 21.5385 281.327 21.8825 280.639 21.8825C278.869 21.8825 278.205 20.1871 277.615 18.7128C277.197 17.6317 276.754 16.526 275.992 16.182C275.476 15.9363 274.861 16.0592 274.123 16.2066C273.582 16.3049 272.992 16.4277 272.402 16.4032C269.919 16.2803 268.517 13.9461 267.263 11.8821C267.042 11.5381 266.846 11.1941 266.624 10.8501C266.403 10.5061 266.501 10.0638 266.846 9.84269C267.19 9.62155 267.632 9.71983 267.854 10.0638C268.075 10.4078 268.296 10.7518 268.517 11.1204C269.624 12.9632 270.779 14.8552 272.501 14.9535C272.919 14.9535 273.386 14.8798 273.853 14.7815C274.713 14.6095 275.672 14.4375 276.607 14.8552C277.885 15.4449 278.475 16.8946 278.967 18.1723C279.533 19.5728 279.926 20.4328 280.664 20.4328C280.983 20.4328 281.327 20.2608 281.745 20.0397L288.654 16.4277L289.023 16.8946C291.064 19.5482 291.138 23.7745 289.171 28.1973C288.704 29.2292 288.187 30.2612 287.671 31.2686C286.491 33.5783 285.36 35.7406 284.991 38.1977C284.942 38.4925 284.917 38.7874 284.868 39.1068C284.72 40.2862 284.573 41.5148 283.884 42.5467C283.27 43.4804 282.311 44.0456 281.475 44.537L281.18 44.709C279.016 46.0358 277.074 47.7067 275.451 49.7215C274.886 50.4095 274.369 51.1466 274.271 51.982C274.123 53.4809 275.353 54.6603 276.68 55.9134C277.984 57.1419 279.434 58.5425 279.557 60.4099C280.786 60.7539 282.04 61.1962 283.171 61.9579C285.261 63.383 286.442 65.6926 286.171 67.8795C286.147 68.1252 286.097 68.3463 286.073 68.592C285.95 69.3537 285.802 70.1154 286.171 70.4349C286.319 70.5577 286.589 70.6069 286.786 70.6314C288.04 70.8034 289.318 70.484 290.695 70.1646C292.564 69.7223 294.482 69.2554 296.375 70.0172C298.735 70.9509 299.965 73.3342 301.145 75.6193C302.227 77.7325 303.235 79.6981 305.03 80.5336C306.284 81.0987 307.685 81.0004 309.209 80.9021C309.922 80.853 310.611 80.8038 311.324 80.8038C313.955 80.853 321.503 81.0004 326.371 92.5979C326.519 92.9665 326.371 93.3842 325.978 93.5316C325.609 93.6791 325.191 93.5316 325.044 93.1385C320.569 82.401 313.709 82.2781 311.447 82.229C310.635 82.229 309.972 82.2535 309.308 82.3027C307.685 82.4255 306.013 82.5484 304.439 81.8112C302.202 80.7793 301.022 78.4696 299.866 76.2582C298.76 74.0959 297.727 72.0811 295.859 71.344C294.383 70.7543 292.761 71.1474 291.039 71.5406C289.613 71.8846 288.114 72.2285 286.638 72.0565C286.22 72.0074 285.704 71.9091 285.261 71.516C284.302 70.6806 284.524 69.3783 284.696 68.3463C284.72 68.1252 284.77 67.904 284.794 67.7075C285.016 65.8401 283.762 64.071 282.409 63.1373C281.524 62.523 280.491 62.1298 279.459 61.835C278.893 63.7024 277 64.6361 275.328 65.4961C274.517 65.8892 273.705 66.3069 273.042 66.7983C270.73 68.5183 270.116 72.4988 271.763 74.9559C272.599 76.1845 273.853 77.0199 275.156 77.9045C276.041 78.4942 276.975 79.133 277.787 79.8947C279.213 81.2461 280.098 83.4821 279.901 85.3249C279.803 86.3815 279.36 87.2414 278.647 87.8312C281.229 88.1506 283.786 88.7894 286.245 89.7231C286.614 89.8706 287.032 90.0425 287.327 90.4603C287.696 90.9762 287.671 91.6151 287.671 92.0082L287.523 97.463C287.499 98.4704 287.523 99.3795 287.892 100.043C288.261 100.706 288.999 101.124 289.785 101.542C290.031 101.689 290.277 101.812 290.523 101.959C291.752 102.697 293.006 104.171 292.515 105.817C292.416 106.21 291.998 106.431 291.605 106.309C291.212 106.186 290.99 105.793 291.113 105.399C291.359 104.589 290.572 103.679 289.736 103.188C289.515 103.065 289.294 102.918 289.048 102.795C288.163 102.303 287.179 101.763 286.589 100.731C285.974 99.6498 286.024 98.3475 286.048 97.4138L286.196 91.9591C286.196 91.7625 286.196 91.4185 286.122 91.2711C286.048 91.1728 285.827 91.0991 285.704 91.0499C282.95 89.9934 280.073 89.33 277.172 89.1088C276.926 89.1088 276.705 88.9368 276.582 88.7403L276.41 88.7894C274.886 89.3054 273.41 90.3865 271.984 91.4431C269.476 93.2859 266.919 95.1779 263.87 94.2196C262.666 93.8265 261.559 93.0156 260.502 92.2294C258.633 90.8534 257.429 90.0671 256.224 90.7551C255.511 91.1728 255.019 92.1311 254.626 92.8928L250.47 101.05L249.856 100.805C247.766 99.9692 246.635 97.8561 245.553 95.8167C244.496 93.8265 243.512 91.9345 241.742 91.5414C239.775 91.0991 238.078 92.8191 236.308 94.6373C234.39 96.5784 232.448 98.5441 229.792 98.2984L229.325 98.2493L228.047 94.6128C225.465 94.6619 223.326 96.8979 222.367 99.0847C221.138 101.959 221.212 105.326 221.433 107.955C221.605 110.215 221.826 112.648 220.425 114.466C218.015 117.562 213.221 115.818 211.426 115.154C210.123 114.663 205.795 113.336 204.369 116.014C204.148 116.432 204.025 116.899 203.902 117.415C203.779 117.857 203.656 118.299 203.484 118.717C203.263 119.258 202.968 119.724 202.648 120.167C203.214 121.567 203.14 122.968 203.066 124.319C202.992 125.646 202.943 126.924 203.484 128.078C204.074 129.332 205.181 130.241 206.361 131.224C207.811 132.403 209.287 133.632 209.852 135.597C210.344 137.366 209.901 139.455 208.672 141.224C207.59 142.747 206.14 143.853 204.713 144.861C204.074 145.327 203.509 145.745 203.386 146.31C203.214 147.072 203.877 147.907 204.517 148.374C204.763 148.546 205.008 148.718 205.254 148.866C205.967 149.308 206.68 149.775 207.221 150.536C207.787 151.347 207.984 152.256 207.984 153.19C211.5 151.077 216.81 149.824 218.482 149.48C218.777 149.431 219.097 149.357 219.195 149.21C219.343 149.013 219.367 148.546 219.367 148.276L219.441 143.657L219.933 143.485C224.211 142.035 228.981 142.133 233.21 143.755C233.923 141.15 235.374 139.111 236.8 137.121C238.57 134.664 240.242 132.329 240.242 129.184V128.472H240.955C241.594 128.472 243.045 128.054 244.348 127.71C245.873 127.292 247.299 126.899 248.11 126.899C248.503 126.899 248.823 127.219 248.823 127.612C248.823 128.005 248.503 128.324 248.11 128.349C247.495 128.349 246.02 128.766 244.717 129.11C243.561 129.43 242.455 129.725 241.644 129.872C241.422 133.165 239.652 135.622 237.955 138.005C236.579 139.946 235.128 141.937 234.538 144.394C235.079 144.664 235.57 145.033 235.89 145.598C236.308 146.335 236.308 147.17 236.308 147.907C236.308 148.128 236.308 148.325 236.308 148.546C236.456 151.593 239.357 153.682 242.184 155.328C242.283 155.377 242.357 155.451 242.406 155.549C242.627 155.549 242.627 155.549 242.75 155.549H242.824C246.413 155.549 257.601 151.052 260.133 148.202C260.404 147.907 260.846 147.883 261.166 148.128C261.461 148.399 261.485 148.841 261.24 149.16C258.805 151.912 249.88 155.745 244.889 156.753C247.053 158.129 248.43 160.758 249.02 164.616C249.143 165.451 249.241 166.286 249.339 167.122C249.561 169.235 249.782 171.201 250.52 173.044C251.454 175.378 253.79 178.449 256.052 177.909C256.273 177.859 256.47 177.909 256.642 178.031C257.822 177.933 259.15 177.81 260.453 177.687C262.838 177.466 265.223 177.245 266.846 177.147C267.239 177.098 267.583 177.417 267.608 177.81C267.632 178.203 267.337 178.547 266.944 178.572C265.346 178.67 262.985 178.891 260.6 179.113C258.461 179.309 256.298 179.506 254.724 179.629L253.913 182.823C253.593 184.125 252.585 188.081 249.61 188.376C249.462 188.376 249.315 188.376 249.167 188.376C248.872 188.376 248.528 188.376 248.454 188.499C248.356 188.622 248.356 188.966 248.356 189.113C248.356 189.285 248.356 189.457 248.356 189.654C248.405 189.801 248.405 189.948 248.356 190.096C248.454 192.455 248.823 194.789 249.462 197.049C250.298 197.467 250.913 198.18 251.478 198.819C251.675 199.064 251.872 199.285 252.093 199.507C253.765 201.251 256.593 201.914 259.076 202.529L259.371 202.602C259.764 202.701 259.986 203.094 259.912 203.487C259.814 203.88 259.445 204.101 259.027 204.028L258.732 203.954C256.175 203.34 253.003 202.578 251.036 200.538C250.815 200.293 250.593 200.047 250.372 199.777C249.88 199.212 249.438 198.671 248.897 198.401C248.798 198.352 248.553 198.327 248.405 198.229C247.594 198.057 246.758 198.425 245.799 198.868C244.422 199.507 242.996 200.17 241.865 201.202C240.832 202.136 239.972 203.413 239.062 205.305C238.029 207.468 237.218 209.777 236.701 212.161C236.406 213.512 238.005 217.026 238.767 218.721L239.111 219.483C240.414 219.532 241.693 219.95 242.602 220.687C243.438 221.35 243.906 222.235 243.979 223.242C246.315 227.935 246.168 228.549 245.676 229.016C245.553 229.115 245.135 229.434 244.496 229.016C244.151 228.795 244.053 228.353 244.274 228.009C244.324 227.935 244.373 227.886 244.446 227.837C244.274 227.296 243.832 226.117 242.602 223.684C242.602 223.635 242.553 223.586 242.529 223.562C242.43 223.316 242.406 223.095 242.455 222.923C242.332 222.505 242.062 222.161 241.693 221.842C240.808 221.129 239.357 220.81 238.078 221.031C237.415 221.154 236.726 221.326 236.062 221.522C234.439 221.964 232.768 222.431 231.046 221.964C229.424 221.547 228.145 220.392 226.916 219.262C225.613 218.082 224.383 216.977 222.908 216.854C221.679 216.755 220.498 217.345 219.245 217.984C218.851 218.18 218.433 218.377 218.04 218.574C217.056 219.016 215.876 219.311 214.745 219.188C214.794 219.262 214.819 219.335 214.819 219.434C215.212 222.628 215.188 225.847 214.745 229.041L214.696 229.459L208.106 232.161C208.106 232.161 207.738 232.309 207.689 232.383C207.615 232.53 207.861 232.948 208.057 233.267C208.156 233.439 208.254 233.587 208.328 233.759C208.844 234.791 208.697 236.117 207.959 237.174C207.418 237.936 206.656 238.402 205.869 238.476C205.525 239.656 205.131 240.049 204.32 240.786C204.148 240.933 203.951 241.13 203.73 241.326C203.582 241.474 203.41 241.523 203.238 241.523L203.214 241.548ZM164.317 206.288C164.538 206.288 164.784 206.411 164.907 206.608C166.013 208.254 167.39 209.654 168.988 210.785C169.332 211.03 169.701 211.276 170.07 211.522C171.619 212.529 173.217 213.561 174.053 215.404C174.717 216.878 174.692 218.5 174.668 220.072C174.643 221.743 174.619 223.316 175.405 224.52C175.725 224.987 176.192 225.404 176.659 225.822C176.807 225.945 176.954 226.092 177.102 226.24C178.356 223.414 179.659 220.613 181.036 217.861C181.233 217.468 181.503 216.952 181.97 216.583C182.536 216.141 183.224 216.043 183.741 215.994C185.56 215.773 187.33 215.625 189.027 216.117C189.912 216.362 190.723 216.78 191.51 217.173C192.199 217.517 192.862 217.861 193.551 218.082C194.78 218.475 196.428 218.377 197.091 217.222C197.337 216.805 197.46 216.264 197.583 215.699C197.78 214.814 198.001 213.831 198.788 213.143C199.181 212.799 199.624 212.627 200.042 212.455C200.189 212.406 200.337 212.333 200.46 212.283C201.517 211.792 202.353 210.711 202.599 209.482C202.181 209.335 201.788 209.163 201.419 208.966C198.985 207.64 197.485 204.986 197.632 202.406C197.632 202.16 197.681 201.89 197.731 201.644C197.534 201.816 197.264 201.865 196.993 201.742C195.001 200.932 193.354 199.531 191.731 198.18C190.92 197.492 190.084 196.804 189.223 196.189C189.027 196.042 188.904 195.993 188.855 195.993C188.781 195.993 188.56 196.189 188.437 196.288C187.011 197.443 185.486 198.45 183.863 199.261C182.732 199.826 181.405 200.17 180.323 199.851C180.2 200.563 179.88 201.251 179.438 201.718C178.897 202.283 178.208 202.504 177.495 202.381C176.758 202.234 176.241 201.718 175.774 201.276C175.528 201.03 175.282 200.784 175.061 200.661C174.545 200.342 173.807 200.367 173.143 200.391C171.103 200.465 168.988 200.514 167.169 201.423C165.62 202.185 163.997 203.929 164.095 206.018C164.095 206.141 164.095 206.264 164.12 206.411C164.169 206.411 164.218 206.411 164.267 206.411L164.317 206.288ZM226.104 216.706C226.719 217.149 227.309 217.689 227.875 218.205C229.03 219.237 230.112 220.244 231.415 220.564C232.768 220.932 234.194 220.539 235.693 220.122C236.333 219.95 236.972 219.778 237.611 219.655L237.464 219.36C236.161 216.485 234.931 213.561 235.3 211.89C235.841 209.409 236.677 207.001 237.759 204.74C238.767 202.652 239.726 201.251 240.906 200.17C242.209 198.991 243.807 198.253 245.209 197.615C245.922 197.295 246.881 196.853 247.889 196.804C247.348 194.666 247.004 192.504 246.93 190.292C244.643 188.622 239.972 188.548 236.529 188.499C235.669 188.499 234.857 188.499 234.169 188.45C234.095 188.523 233.997 188.597 233.874 188.622C232.792 188.941 231.661 189.924 230.555 190.833C230.038 191.251 229.547 191.668 229.079 192.012C227.58 193.093 226.645 194.641 226.596 196.189C226.572 197.123 226.817 198.032 227.112 199.015C227.309 199.728 227.53 200.465 227.629 201.251C227.727 202.086 227.703 202.922 227.678 203.733C227.629 204.814 227.604 205.821 227.875 206.755C228.022 207.271 228.268 207.762 228.539 208.278C228.735 208.647 228.907 209.04 229.079 209.433C229.399 210.219 229.817 211.718 229.079 212.971C228.809 213.438 228.44 213.758 228.121 214.053L227.604 214.544C226.768 215.33 226.473 215.601 226.203 216.706H226.104ZM209.754 207.91C209.901 207.91 210.024 207.91 210.172 207.934C212.09 208.254 212.852 210.588 212.753 212.627L212.704 213.389C212.606 214.691 212.532 216.043 213.171 216.927C214.081 218.156 216.024 217.886 217.425 217.271C217.794 217.099 218.187 216.903 218.556 216.731C219.933 216.043 221.334 215.33 222.982 215.453C223.621 215.502 224.211 215.674 224.777 215.945C225.145 214.741 225.662 214.274 226.473 213.512L227.014 213.021C227.285 212.775 227.555 212.529 227.703 212.283C228.145 211.522 227.801 210.441 227.629 209.998C227.481 209.63 227.309 209.31 227.137 208.966C226.867 208.401 226.572 207.836 226.375 207.197C226.031 206.042 226.08 204.863 226.129 203.733C226.154 202.946 226.178 202.209 226.104 201.472C226.031 200.809 225.834 200.145 225.637 199.457C225.342 198.401 225.023 197.32 225.072 196.165C225.121 195.157 225.416 194.15 225.981 193.241C225.145 193.315 224.137 193.413 223.129 193.487C221.605 193.609 220.081 193.732 219.122 193.855C218.777 193.904 218.286 193.953 217.818 193.732C217.4 193.536 217.081 193.143 216.86 192.577C216.565 191.767 216.565 190.931 216.565 190.145C216.565 189.383 216.565 188.646 216.294 188.081C215.729 186.877 214.081 186.656 212.876 186.852C212.36 186.926 211.868 187.074 211.352 187.196C210.27 187.467 209.188 187.737 208.008 187.639C206.754 187.516 205.623 186.951 204.541 186.435C203.632 185.992 202.746 185.55 201.886 185.427C201.837 185.476 201.763 185.526 201.689 185.55C201.222 185.845 200.73 186.042 200.263 186.214C199.648 186.435 199.108 186.631 198.788 187.049C198.272 187.762 198.567 188.99 199.108 189.899C199.304 190.219 199.526 190.538 199.747 190.857C200.263 191.619 200.829 192.405 201.099 193.364C201.64 195.329 200.878 197.148 200.14 198.892C199.624 200.121 199.132 201.276 199.058 202.455C198.935 204.47 200.165 206.632 202.083 207.664C203.755 208.598 205.967 208.77 208.254 208.18C208.77 208.057 209.238 207.934 209.729 207.934L209.754 207.91ZM147.228 196.165C149.245 196.165 150.99 196.779 152.367 198.008C154.113 199.531 154.949 201.742 155.785 203.88C156.006 204.47 156.252 205.084 156.498 205.649C157.506 207.984 159.448 210.416 161.661 210.269C161.932 210.269 162.423 210.17 162.718 209.826C163.186 209.286 163.013 208.377 162.866 207.394C162.792 206.927 162.718 206.46 162.694 206.018C162.571 203.266 164.538 201.054 166.579 200.072C168.693 199.04 171.053 198.966 173.143 198.892C173.955 198.892 174.963 198.843 175.848 199.359C176.241 199.605 176.561 199.924 176.856 200.195C177.2 200.538 177.495 200.858 177.815 200.907C177.962 200.907 178.159 200.932 178.43 200.661C178.848 200.244 179.044 199.433 178.971 198.769C178.971 198.769 178.946 198.72 178.921 198.696C178.823 198.548 178.798 198.376 178.823 198.204C178.626 197.664 178.356 197.123 178.061 196.583C177.692 195.919 177.323 195.231 177.102 194.445C176.168 191.128 178.43 187.688 181.183 186.287C183.716 184.985 186.568 184.96 189.174 185.01C189.42 181.987 189.936 177.909 190.625 174.69L190.109 174.567L190.945 173.658C191.584 172.945 191.903 171.938 191.805 170.808C191.707 169.309 190.92 167.785 189.814 166.901C187.576 165.107 184.429 165.132 182.265 165.304C181.651 165.353 181.06 165.402 180.446 165.476C178.233 165.697 175.922 165.942 173.684 165.451C171.299 164.935 169.086 163.633 166.947 162.355C163.702 160.463 160.628 158.669 157.506 159.726C155.342 160.439 153.793 162.331 152.146 164.345C151.58 165.033 151.015 165.721 150.4 166.385C147.72 169.284 143.368 170.98 140.614 168.473C140.344 168.228 140.123 167.982 139.926 167.687C139.975 169.235 139.262 171.029 138.598 172.626C138.328 173.289 138.082 173.903 137.91 174.444C137.221 176.729 138.328 179.235 139.36 181.152L139.754 181.865C140.885 183.928 142.065 186.066 142.114 188.523C142.139 190.784 141.205 192.774 140.295 194.715C139.656 196.091 139.016 197.393 138.746 198.769C141.967 197.025 144.819 196.14 147.253 196.14L147.228 196.165ZM188.879 194.519C189.371 194.519 189.764 194.764 190.084 194.985C190.994 195.624 191.854 196.337 192.69 197.049C194.288 198.376 195.788 199.654 197.583 200.367C197.755 200.44 197.878 200.563 197.977 200.735C198.198 199.9 198.542 199.113 198.886 198.327C199.55 196.73 200.189 195.207 199.796 193.732C199.599 192.995 199.132 192.356 198.665 191.668C198.419 191.324 198.173 190.98 197.977 190.612C197.214 189.334 196.747 187.516 197.731 186.164C198.296 185.403 199.132 185.083 199.87 184.813C199.87 184.813 199.919 184.813 199.944 184.788C199.919 184.444 200.14 184.1 200.484 184.002C200.804 183.928 201.124 183.879 201.443 183.879C202.402 182.798 202.427 180.882 202.353 179.727L202.304 178.941C202.181 177.393 202.033 175.402 202.255 173.805C201.493 174.493 200.583 175.009 199.673 175.279C197.116 176.09 194.362 175.55 192.076 175.034C191.338 178.425 190.822 182.798 190.6 185.82L190.551 186.508H189.863C187.256 186.41 184.331 186.336 181.896 187.59C179.684 188.72 177.815 191.472 178.553 194.052C178.725 194.666 179.044 195.256 179.389 195.895C179.757 196.583 180.151 197.32 180.372 198.131C181.208 198.941 183.101 198.032 183.323 197.909C184.847 197.148 186.298 196.189 187.625 195.108C187.945 194.863 188.363 194.494 188.953 194.494H188.978L188.879 194.519ZM213.712 185.304C215.237 185.304 216.884 185.845 217.646 187.393C218.064 188.278 218.064 189.187 218.064 190.096C218.064 190.808 218.064 191.472 218.261 192.012C218.359 192.233 218.433 192.356 218.507 192.381C218.581 192.405 218.802 192.381 218.974 192.381C219.958 192.258 221.507 192.135 223.056 192.012C224.555 191.889 226.055 191.767 227.014 191.644C227.112 191.644 227.186 191.644 227.26 191.644C227.555 191.349 227.875 191.079 228.243 190.833C228.686 190.514 229.153 190.12 229.645 189.727C230.555 188.966 231.538 188.155 232.571 187.614C232.472 187.442 232.399 187.27 232.35 187.123C231.735 185.403 231.759 183.584 231.784 181.84C231.784 181.422 231.784 181.005 231.784 180.562C231.784 178.007 231.219 176.262 230.137 175.255C229.645 175.427 229.079 175.574 228.465 175.673C225.219 176.189 221.875 175.476 219.048 173.707C217.499 172.724 216.122 171.422 214.819 170.193C214.057 169.481 213.294 168.744 212.483 168.08C210.713 166.63 208.057 164.984 205.402 165.525C205.082 165.598 204.32 165.795 204.148 166.336C204.05 166.68 204.148 167.122 204.295 167.589C204.345 167.785 204.394 167.957 204.443 168.154C204.738 169.554 204.443 170.906 203.755 172.061C204.025 172.257 204.123 172.601 204 172.921C203.435 174.321 203.632 177.073 203.779 178.891L203.828 179.678C203.951 181.521 203.681 183.044 203.066 184.174C203.828 184.395 204.566 184.764 205.304 185.132C206.336 185.624 207.295 186.115 208.279 186.189C209.188 186.287 210.123 186.042 211.131 185.796C211.672 185.648 212.237 185.526 212.778 185.427C213.098 185.378 213.442 185.354 213.811 185.354L213.712 185.304ZM231.415 174.542C232.595 175.845 233.161 177.81 233.186 180.538C233.186 180.955 233.186 181.398 233.186 181.84C233.161 183.535 233.136 185.132 233.653 186.607C233.653 186.656 233.751 186.852 233.8 186.902C233.849 186.951 234.144 186.975 234.218 186.975C234.907 187 235.693 187.024 236.554 187.024C240.021 187.074 244.201 187.147 246.93 188.572C246.979 188.253 247.077 187.958 247.274 187.663C247.766 187.024 248.528 186.975 249.093 186.975C249.216 186.975 249.339 186.975 249.438 186.975C250.741 186.852 251.774 185.354 252.487 182.503L253.421 178.867C251.478 177.81 249.929 175.451 249.167 173.609C248.356 171.594 248.11 169.407 247.889 167.318C247.79 166.508 247.717 165.672 247.594 164.861C247.225 162.478 246.315 159.357 244.053 157.957C243.709 157.736 243.611 157.293 243.807 156.949C243.414 156.999 243.07 157.023 242.75 157.023C239.996 156.974 235.03 157.465 233.653 161.176C233.063 162.773 233.235 164.738 233.407 166.655C233.653 169.358 233.923 172.159 231.956 174.1C231.784 174.272 231.587 174.444 231.391 174.591L231.415 174.542ZM206.385 163.928C208.574 163.928 210.934 164.935 213.319 166.925C214.155 167.613 214.942 168.35 215.729 169.112C217.056 170.365 218.286 171.545 219.736 172.454C222.269 174.051 225.268 174.665 228.17 174.223C229.448 174.026 230.358 173.633 230.973 173.019C232.448 171.569 232.227 169.235 231.981 166.753C231.784 164.689 231.587 162.552 232.3 160.635C233.579 157.244 237.021 156.04 240.021 155.696C237.39 153.976 235.054 151.79 234.882 148.62C234.882 148.374 234.882 148.153 234.882 147.907C234.882 147.293 234.882 146.728 234.661 146.335C234.464 145.966 234.046 145.745 233.481 145.499C229.547 143.755 224.973 143.485 220.867 144.762L220.818 148.374C220.818 148.89 220.818 149.652 220.302 150.217C219.859 150.733 219.245 150.856 218.777 150.954C217.032 151.323 211.082 152.699 207.91 155.033C207.861 155.057 207.811 155.107 207.762 155.131C207.615 155.844 207.393 156.532 207.148 157.22L204.689 164.198C204.689 164.198 204.91 164.149 205.033 164.124C205.476 164.026 205.918 164.001 206.385 164.001V163.928ZM192.666 173.707C194.78 174.198 197.091 174.567 199.181 173.904C201.394 173.216 203.435 170.832 202.943 168.4C202.919 168.252 202.869 168.08 202.82 167.908C202.648 167.294 202.476 166.581 202.697 165.844C202.746 165.672 202.82 165.5 202.919 165.353C202.845 165.205 202.845 165.009 202.919 164.837L205.795 156.655C206.459 154.787 207 152.699 206.041 151.347C205.672 150.807 205.107 150.438 204.492 150.045C204.222 149.873 203.951 149.701 203.681 149.504C202.648 148.743 201.665 147.416 201.984 145.966C202.255 144.811 203.238 144.123 203.877 143.657C205.181 142.723 206.533 141.715 207.467 140.389C208.451 138.988 208.82 137.342 208.426 135.99C208.008 134.467 206.754 133.435 205.426 132.354C204.173 131.322 202.894 130.265 202.156 128.717C201.468 127.243 201.542 125.744 201.615 124.295C201.665 123.287 201.714 122.329 201.517 121.42C201.099 121.813 200.632 122.157 200.189 122.501C199.427 123.115 198.69 123.68 198.099 124.368C196.993 125.646 196.329 127.44 195.665 129.135C194.756 131.518 193.846 133.976 191.707 135.376C190.256 136.334 188.609 136.531 187.011 136.728C185.978 136.85 185.019 136.973 184.109 137.293C182.831 137.71 181.626 139.111 181.38 140.438C181.233 141.199 181.38 141.789 181.896 142.207C182.216 142.477 182.659 142.649 183.126 142.821C183.47 142.944 183.839 143.067 184.158 143.239C185.314 143.853 186.15 145.278 185.511 146.458C185.24 146.974 184.798 147.244 184.454 147.49L184.257 147.637C182.118 149.111 182.142 152.207 182.191 155.475C182.216 158.62 182.265 161.888 180.298 164.026C180.913 163.952 181.528 163.903 182.142 163.854C184.552 163.682 188.068 163.657 190.723 165.77C192.149 166.901 193.108 168.793 193.256 170.709C193.33 171.815 193.133 172.847 192.666 173.707ZM264.387 115.596C264.215 115.596 264.067 115.547 263.92 115.424C263.625 115.179 263.575 114.712 263.821 114.417C263.772 114.048 263.575 113.827 263.379 113.778C263.034 113.68 262.592 113.729 262.149 113.803C261.903 113.852 261.682 113.876 261.436 113.901C260.379 113.999 259.174 113.582 258.83 112.427C258.584 111.64 258.904 110.928 259.15 110.363C259.223 110.166 259.322 109.97 259.371 109.798C259.641 108.938 259.346 107.857 258.609 107.021C257.699 105.989 252.757 101.124 251.847 100.657C251.503 100.461 251.356 100.043 251.552 99.6744C251.749 99.3304 252.191 99.183 252.536 99.3795C253.74 100.018 258.904 105.178 259.691 106.087C260.527 107.046 261.24 108.643 260.748 110.264C260.674 110.51 260.576 110.756 260.453 110.977C260.256 111.395 260.109 111.763 260.182 112.058C260.281 112.402 260.822 112.55 261.289 112.5C261.485 112.5 261.682 112.451 261.879 112.427C262.444 112.353 263.084 112.23 263.748 112.427C264.387 112.623 264.952 113.188 265.149 113.852C265.321 114.417 265.223 114.958 264.879 115.375C264.731 115.547 264.534 115.646 264.313 115.646L264.387 115.596Z" fill="#FFEE89"/>
<path d="M254.798 91.3699C254.798 98.2744 242.258 116.039 242.258 116.039C242.258 116.039 229.719 98.2744 229.719 91.3699C229.719 84.4655 235.325 78.8633 242.258 78.8633C249.192 78.8633 254.798 84.4655 254.798 91.3699Z" fill="#E94A3F"/>
<path d="M248.726 91.3692C248.726 94.9321 245.849 97.8069 242.284 97.8069C238.719 97.8069 235.842 94.9321 235.842 91.3692C235.842 87.8064 238.719 84.9316 242.284 84.9316C245.849 84.9316 248.726 87.8064 248.726 91.3692Z" fill="white"/>
</g>
<defs>
<clipPath id="clip0_1228_5809">
<rect width="350" height="260.256" fill="white" transform="translate(0 0.898438)"/>
</clipPath>
</defs>
</svg>
