<svg width="173" height="100" viewBox="0 0 173 100" fill="none" xmlns="http://www.w3.org/2000/svg">
<path d="M32.8635 64.2298C51.0144 64.2298 65.727 49.6989 65.727 31.7806C65.727 13.8624 51.0144 -0.675781 32.8635 -0.675781C14.7126 -0.675781 0 13.8551 0 31.7734C0 49.6916 14.7126 64.2225 32.8635 64.2225" fill="#EFE2EC"/>
<path d="M32.8632 49.641C42.8582 49.641 50.956 41.645 50.956 31.7736C50.956 21.9022 42.8509 13.9062 32.8632 13.9062C22.8755 13.9062 14.7705 21.9095 14.7705 31.7736C14.7705 41.6378 22.8755 49.641 32.8632 49.641Z" fill="white"/>
<path d="M41.2839 100.002C53.0379 100.002 62.5677 90.5963 62.5677 78.9876C62.5677 67.3788 53.0379 57.9727 41.2839 57.9727C29.5298 57.9727 20 67.3788 20 78.9876C20 90.5963 29.5298 100.002 41.2839 100.002Z" fill="#CFA1C0"/>
<mask id="mask0_2237_6934" style="mask-type:luminance" maskUnits="userSpaceOnUse" x="20" y="57" width="43" height="43">
<path d="M20 78.9797C20 90.5885 29.5298 99.9946 41.2839 99.9946C53.0379 99.9946 62.5677 90.5885 62.5677 78.9797C62.5677 67.371 53.0379 57.9648 41.2839 57.9648C29.5298 57.9648 20 67.371 20 78.9797Z" fill="white"/>
</mask>
<g mask="url(#mask0_2237_6934)">
<g opacity="0.75">
<mask id="mask1_2237_6934" style="mask-type:luminance" maskUnits="userSpaceOnUse" x="-12" y="61" width="119" height="75">
<path d="M106.648 61.3828H-11.7002V135.811H106.648V61.3828Z" fill="white"/>
</mask>
<g mask="url(#mask1_2237_6934)">
<g style="mix-blend-mode:multiply">
<mask id="mask2_2237_6934" style="mask-type:luminance" maskUnits="userSpaceOnUse" x="24" y="71" width="77" height="70">
<path d="M100.941 71.457H24.9795V140.31H100.941V71.457Z" fill="white"/>
</mask>
<g mask="url(#mask2_2237_6934)">
<path d="M62.2406 72.9997C79.1993 72.6289 93.2505 86.0767 93.6139 103.035C93.9846 119.994 80.5368 134.045 63.5781 134.409C46.6193 134.78 32.5682 121.332 32.2048 104.373C31.834 87.4142 45.2818 73.3631 62.2406 72.9924" fill="#E8D4E3"/>
</g>
</g>
<g opacity="0.3">
<mask id="mask3_2237_6934" style="mask-type:luminance" maskUnits="userSpaceOnUse" x="-6" y="69" width="71" height="66">
<path d="M64.6688 69.9609H-5.89941V134.111H64.6688V69.9609Z" fill="white"/>
</mask>
<g mask="url(#mask3_2237_6934)">
<path d="M28.7157 71.4441C44.2134 71.1097 57.0506 83.5544 57.3922 99.2483C57.7339 114.942 45.4491 127.939 29.9515 128.274C14.4538 128.608 1.61661 116.163 1.2677 100.47C0.926052 84.7756 13.2108 71.7785 28.7085 71.4441" fill="#E9D6E4"/>
</g>
</g>
<g style="mix-blend-mode:multiply">
<mask id="mask4_2237_6934" style="mask-type:luminance" maskUnits="userSpaceOnUse" x="9" y="71" width="72" height="65">
<path d="M80.5446 71.043H9.24219V135.236H80.5446V71.043Z" fill="white"/>
</mask>
<g mask="url(#mask4_2237_6934)">
<path d="M44.2281 72.5307C59.9293 72.1891 72.9337 84.641 73.2753 100.335C73.617 116.036 61.165 129.041 45.4711 129.382C29.7699 129.724 16.7655 117.272 16.4239 101.571C16.0822 85.8695 28.5341 72.8651 44.2353 72.5234" fill="#E8D4E2"/>
</g>
</g>
</g>
</g>
</g>
<path d="M70.9813 74.0915C70.009 74.0915 69.2028 73.7585 68.5744 73.0926C67.946 72.4267 67.6377 71.5759 67.6377 70.54V59.38C67.6377 58.7511 67.8511 58.2208 68.2661 57.8015C68.6811 57.3823 69.2265 57.1603 69.8905 57.1603C70.4833 57.1603 70.9931 57.3699 71.4318 57.8015C71.8705 58.2331 72.084 58.7511 72.084 59.38V60.7118C72.084 61.1187 72.167 61.4024 72.3448 61.575C72.5227 61.7476 72.6887 61.8093 72.8665 61.7723H75.7951C76.388 61.7723 76.6844 61.4023 76.6844 60.6625V59.2813C76.6844 58.6154 76.8859 58.0728 77.2891 57.6412C77.6922 57.222 78.2257 57 78.8897 57C79.4826 57 79.9924 57.2096 80.4311 57.6412C80.8698 58.0728 81.0832 58.6154 81.0832 59.2813V70.5523C81.0832 71.5882 80.7868 72.4391 80.1939 73.105C79.6011 73.7709 78.7949 74.1038 77.787 74.1038H70.9931L70.9813 74.0915ZM72.0247 68.2093C72.0247 68.6903 72.0721 69.0356 72.1551 69.2575C72.2381 69.4795 72.5345 69.5905 73.0206 69.5905H75.5343C76.056 69.5905 76.3761 69.4795 76.5065 69.2575C76.6251 69.0356 76.6844 68.6903 76.6844 68.2093V67.1612C76.6844 66.7912 76.6251 66.5076 76.5065 66.298C76.3879 66.1007 76.0441 65.9897 75.4868 65.9897H73.0799C72.6294 65.9897 72.3448 66.0883 72.2144 66.261C72.0958 66.4459 72.0365 66.7419 72.0365 67.1488V68.197L72.0247 68.2093ZM84.8418 80.1463C85.8496 80.1463 86.6677 80.4299 87.2724 81.0095C87.8771 81.589 88.1854 82.4399 88.1854 83.5868V88.7413C88.1854 89.7772 87.8534 90.6034 87.1894 91.2076C86.5254 91.8119 85.7429 92.1202 84.8418 92.1202H81.2848C80.6208 92.1202 80.2177 92.2681 80.0517 92.5641C79.8975 92.8601 79.8145 93.1683 79.8145 93.5136V93.9576C79.8145 94.3275 79.8975 94.6728 80.0517 95.0057C80.2058 95.3387 80.6682 95.5113 81.4389 95.5113H86.4069C87.0353 95.5113 87.5451 95.7086 87.9482 96.0909C88.3514 96.4855 88.5529 97.0281 88.5529 97.731C88.5529 98.3599 88.3514 98.9025 87.9482 99.3341C87.5451 99.778 87.0353 100 86.4069 100H78.6644C77.7633 100 76.9689 99.6671 76.3168 99.0012C75.6528 98.3353 75.3208 97.4844 75.3208 96.4485V91.3433C75.3208 90.2704 75.6647 89.3949 76.3642 88.729C77.0638 88.0631 77.8937 87.7301 78.8779 87.7301H82.2807C82.9091 87.7301 83.3241 87.5945 83.5375 87.3109C83.751 87.0272 83.8458 86.7436 83.8458 86.4477V86.0037C83.8458 85.6708 83.751 85.3378 83.5613 85.0049C83.3716 84.6719 82.8854 84.4993 82.1266 84.4993H77.6803C77.0519 84.4993 76.5302 84.302 76.1152 83.9197C75.7003 83.5374 75.4868 82.9825 75.4868 82.2796C75.4868 81.6137 75.7003 81.0834 76.1152 80.7012C76.5302 80.3189 77.0519 80.1216 77.6803 80.1216H84.8418V80.1463ZM85.0434 61.723C85.0434 60.9831 85.2568 60.4158 85.6718 59.9966C86.0867 59.5896 86.6321 59.3923 87.2961 59.3923C87.9601 59.3923 88.4344 59.565 88.7308 59.8979C89.0272 60.2309 89.2288 60.5761 89.3355 60.9214C89.4422 61.279 89.4896 61.538 89.4896 61.723V64.4976C89.4896 65.4964 89.9283 66.002 90.7938 66.002H92.1574C92.9636 66.002 93.5209 66.224 93.8292 66.6679C94.1374 67.1118 94.3034 67.6174 94.3034 68.1724C94.3034 68.8013 94.1137 69.3315 93.7225 69.7508C93.343 70.1824 92.8214 70.392 92.1574 70.392H90.7938C89.9165 70.392 89.4896 70.799 89.4896 71.6128V76.4345C89.4896 77.1374 89.2762 77.7169 88.8375 78.1609C88.3988 78.6048 87.889 78.8268 87.2961 78.8268C86.6321 78.8268 86.0986 78.6048 85.6718 78.1609C85.2449 77.7169 85.0434 77.1497 85.0434 76.4345V61.7353V61.723ZM112.444 77.4827C113.179 77.4827 113.725 77.7046 114.092 78.1485C114.46 78.5925 114.638 79.1104 114.638 79.7023C114.638 80.2942 114.436 80.7998 114.033 81.2314C113.63 81.663 113.096 81.8727 112.432 81.8727H98.0502C97.3862 81.8727 96.8526 81.663 96.4258 81.2314C96.0108 80.8122 95.7974 80.2942 95.7974 79.7023C95.7974 79.1104 95.9752 78.5925 96.3428 78.1485C96.7104 77.7046 97.2795 77.4827 98.0383 77.4827H112.42H112.444ZM98.4889 67.0995C98.4889 65.6937 98.809 64.4606 99.4611 63.3754C100.101 62.3026 100.967 61.464 102.046 60.8474C103.125 60.2432 104.311 59.9349 105.603 59.9349C106.895 59.9349 108.081 60.2432 109.16 60.8474C110.239 61.4517 111.116 62.3026 111.78 63.3754C112.444 64.4482 112.776 65.6937 112.776 67.0995C112.776 68.5053 112.444 69.8124 111.78 70.8976C111.116 71.9951 110.251 72.846 109.16 73.4502C108.081 74.0545 106.895 74.3628 105.603 74.3628C104.311 74.3628 103.125 74.0545 102.046 73.4502C100.967 72.846 100.101 71.9951 99.4611 70.8976C98.8208 69.8124 98.4889 68.5423 98.4889 67.0995ZM102.247 98.5079C101.275 98.5079 100.469 98.1873 99.8405 97.5584C99.2121 96.9295 98.9038 96.0909 98.9038 95.0551V88.9016C98.9038 87.8658 99.2121 87.0272 99.8405 86.4107C100.469 85.7818 101.275 85.4611 102.247 85.4611H109.101C110.108 85.4611 110.915 85.7694 111.508 86.4107C112.1 87.0396 112.397 87.8658 112.397 88.9016V95.0551C112.397 96.0909 112.1 96.9171 111.508 97.5584C110.915 98.1873 110.108 98.5079 109.101 98.5079H102.247ZM102.876 67.0995C102.876 67.9874 103.149 68.6779 103.682 69.1835C104.228 69.6891 104.856 69.9358 105.591 69.9358C106.397 69.9358 107.049 69.6891 107.583 69.1835C108.105 68.6903 108.366 67.9874 108.366 67.0995C108.366 66.2116 108.105 65.5704 107.583 65.0771C107.061 64.5715 106.397 64.3249 105.591 64.3249C104.856 64.3249 104.228 64.5715 103.682 65.0771C103.137 65.5704 102.876 66.2486 102.876 67.0995ZM103.35 92.5764C103.35 93.0574 103.421 93.4396 103.564 93.7479C103.706 94.0439 104.038 94.1919 104.559 94.1919H106.551C107.109 94.1919 107.488 94.0439 107.678 93.7479C107.868 93.452 107.962 93.0574 107.962 92.5764V91.1953C107.962 90.7514 107.868 90.4061 107.678 90.1718C107.488 89.9251 107.097 89.8142 106.504 89.8142H104.678C104.192 89.8142 103.848 89.9498 103.658 90.2334C103.469 90.5171 103.374 90.85 103.374 91.257V92.5888L103.35 92.5764Z" fill="#CFA1C0"/>
<path d="M126.638 67.2192C126.638 65.8578 126.956 64.6636 127.603 63.6127C128.239 62.5738 129.098 61.7617 130.17 61.1646C131.241 60.5795 132.419 60.2809 133.702 60.2809C134.985 60.2809 136.163 60.5795 137.234 61.1646C138.305 61.7498 139.177 62.5738 139.836 63.6127C140.495 64.6517 140.825 65.8578 140.825 67.2192C140.825 68.5806 140.495 69.8465 139.836 70.8974C139.177 71.9602 138.317 72.7722 137.234 73.3693C136.163 73.9545 134.985 74.2531 133.702 74.2531C132.419 74.2531 131.241 73.9545 130.17 73.3693C129.098 72.7722 128.239 71.9602 127.603 70.8974C126.967 69.8465 126.638 68.6164 126.638 67.2192ZM130.994 67.2192C130.994 68.079 131.265 68.7478 131.795 69.2374C132.336 69.7151 132.96 69.9659 133.69 69.9659C134.491 69.9659 135.138 69.727 135.668 69.2374C136.186 68.7478 136.445 68.079 136.445 67.2192C136.445 66.3594 136.186 65.7384 135.668 65.2607C135.15 64.783 134.491 64.5323 133.69 64.5323C132.96 64.5323 132.336 64.7711 131.795 65.2607C131.253 65.7504 130.994 66.3952 130.994 67.2192ZM135.986 81.5138C135.986 80.8689 136.198 80.3315 136.61 79.9016C137.022 79.4717 137.564 79.2568 138.223 79.2568C138.812 79.2568 139.318 79.4717 139.754 79.9016C140.189 80.3315 140.401 80.8689 140.401 81.5138V84.9531C140.401 85.4547 140.542 85.9323 140.837 86.3742C141.131 86.816 141.626 87.0429 142.32 87.0429H147.819C148.443 87.0429 148.961 87.234 149.373 87.6281C149.785 88.0222 149.997 88.5238 149.997 89.1328C149.997 89.8135 149.785 90.3509 149.373 90.745C148.961 91.139 148.443 91.3301 147.819 91.3301H139.306C138.411 91.3301 137.623 91.0316 136.975 90.4464C136.316 89.8493 135.986 89.0373 135.986 87.9983V81.4899V81.5138ZM150.256 76.2951C150.256 76.9758 150.056 77.5371 149.655 77.967C149.255 78.3969 148.725 78.6119 148.066 78.6119C147.513 78.6119 147.018 78.3969 146.582 77.967C146.147 77.5371 145.935 76.9878 145.935 76.2951V74.468C145.935 74.0739 145.805 73.7873 145.546 73.6082C145.287 73.4291 145.016 73.3455 144.746 73.3455H143.498C142.838 73.3455 142.309 73.1663 141.908 72.8081C141.508 72.4498 141.308 71.9841 141.308 71.4109C141.308 70.8018 141.473 70.3241 141.802 69.9539C142.132 69.5957 142.697 69.4165 143.486 69.4165H144.734C145.535 69.4165 145.923 69.0344 145.923 68.294V67.2192C145.923 66.7177 145.817 66.3833 145.617 66.228C145.405 66.0608 145.111 65.9892 144.734 65.9892H143.486C142.827 65.9892 142.297 65.7981 141.896 65.4279C141.496 65.0458 141.296 64.58 141.296 64.0068C141.296 63.3978 141.461 62.9201 141.79 62.5618C142.12 62.2036 142.685 62.0244 143.474 62.0244H144.722C144.993 62.0244 145.264 61.9289 145.523 61.7259C145.782 61.5348 145.911 61.2363 145.911 60.8422V60.1973C145.911 60.0182 145.958 59.7555 146.041 59.4211C146.123 59.0867 146.323 58.7643 146.641 58.4538C146.947 58.1552 147.418 58 148.042 58C148.737 58 149.267 58.203 149.655 58.5852C150.032 58.9792 150.232 59.5166 150.232 60.1973V76.319L150.256 76.2951ZM170.46 77.3222C171.19 77.3222 171.731 77.5371 172.096 77.967C172.461 78.3969 172.638 78.8985 172.638 79.4717C172.638 80.0449 172.438 80.5345 172.037 80.9525C171.637 81.3705 171.107 81.5735 170.448 81.5735H156.166C155.507 81.5735 154.977 81.3705 154.553 80.9525C154.141 80.5465 153.929 80.0449 153.929 79.4717C153.929 78.8985 154.106 78.3969 154.471 77.967C154.836 77.5371 155.401 77.3222 156.154 77.3222H170.436H170.46ZM167.858 73.3932C167.304 72.82 166.821 72.3065 166.433 71.8408C166.033 71.375 165.609 70.9093 165.161 70.4436C164.643 69.942 164.172 69.6793 163.76 69.6434C163.348 69.6076 162.865 69.8584 162.312 70.3958C161.723 70.969 161.147 71.5661 160.57 72.1751C159.993 72.7842 159.51 73.3096 159.086 73.7276C158.533 74.2292 157.944 74.4083 157.32 74.265C156.696 74.1217 156.19 73.8709 155.813 73.5127C155.401 73.0111 155.213 72.4618 155.271 71.8408C155.319 71.2317 155.578 70.754 156.025 70.3838C156.237 70.2047 156.437 70.0375 156.649 69.8703C156.861 69.7032 157.085 69.536 157.32 69.3568C158.015 68.7836 158.686 68.1985 159.345 67.5894C160.004 66.9804 160.534 66.2639 160.935 65.4399C161.335 64.6159 161.5 63.6008 161.429 62.3708C161.358 61.7259 161.547 61.1885 162.006 60.7586C162.453 60.3287 162.971 60.1137 163.56 60.1137C164.184 60.1137 164.714 60.3287 165.173 60.7586C165.621 61.1885 165.809 61.7259 165.75 62.3708C165.679 63.6247 165.821 64.6517 166.162 65.4399C166.504 66.228 166.998 66.9087 167.646 67.4819C168.281 68.0552 168.988 68.6284 169.753 69.2016C169.965 69.3091 170.153 69.4404 170.33 69.5837C170.507 69.727 170.695 69.8703 170.907 70.0136C171.354 70.3719 171.59 70.9093 171.613 71.6258C171.625 72.3423 171.437 72.9156 171.013 73.3455C170.601 73.8112 170.071 74.05 169.423 74.0739C168.788 74.0978 168.27 73.8709 167.893 73.4052L167.858 73.3932ZM160.228 100C159.227 100 158.415 99.6895 157.815 99.0805C157.214 98.4714 156.908 97.6594 156.908 96.6563V86.9832C156.908 86.3384 157.12 85.8129 157.532 85.3949C157.944 84.977 158.462 84.774 159.086 84.774C159.71 84.774 160.24 84.977 160.676 85.3949C161.111 85.801 161.323 86.3384 161.323 86.9832V88.058C161.323 88.3446 161.37 88.5715 161.453 88.7268C161.535 88.882 161.735 88.9656 162.053 88.9656H164.961C165.303 88.9298 165.526 88.8342 165.609 88.6671C165.691 88.4999 165.738 88.2849 165.738 87.9983V86.816C165.738 86.207 165.938 85.6815 166.339 85.2278C166.739 84.774 167.269 84.559 167.928 84.559C168.517 84.559 169.023 84.7859 169.459 85.2278C169.894 85.6696 170.106 86.207 170.106 86.816V96.5965C170.106 97.5997 169.812 98.4117 169.223 99.0447C168.635 99.6656 167.834 99.9881 166.833 99.9881H160.24L160.228 100ZM161.264 94.4112C161.264 94.7694 161.311 95.0918 161.394 95.3785C161.476 95.6651 161.771 95.8084 162.253 95.8084H164.584C165.103 95.8084 165.432 95.6651 165.573 95.3785C165.715 95.0918 165.785 94.7694 165.785 94.4112V93.9812C165.785 93.6946 165.715 93.42 165.573 93.1811C165.432 92.9303 165.091 92.799 164.537 92.799H162.253C161.806 92.799 161.523 92.9184 161.417 93.1811C161.311 93.4319 161.264 93.6946 161.264 93.9812V94.4112Z" fill="#DDBED4"/>
</svg>
