<svg width="44" height="44" viewBox="0 0 44 44" fill="none" xmlns="http://www.w3.org/2000/svg">
<path d="M42 38.2712L37.9875 30.3992C39.1875 27.838 39.825 25.0132 39.825 22C39.825 10.9642 30.9 2 19.9125 2C8.925 2 0 10.9642 0 22C0 33.0358 8.925 42 19.9125 42C25.0125 42 29.6625 40.0791 33.15 36.9153L41.9625 38.2712H42Z" fill="#FFF100"/>
<path d="M30.8048 29.8688L29.2471 32.4208C28.8432 33.0298 28.3528 32.9718 27.8624 32.7688C26.9681 32.4208 26.1316 31.9568 25.3238 31.4348C23.7372 32.4498 21.8045 33.0298 19.6409 33.0298C13.4387 33.0298 9.25586 28.4768 9.25586 21.8358C9.25586 15.1948 13.4387 10.4678 19.6409 10.4678C25.8142 10.4678 29.9683 15.1948 29.9683 21.8358C29.9683 24.0398 29.5067 26.0408 28.6701 27.6938C29.2182 27.9838 29.7663 28.2448 30.3721 28.4768C31.0645 28.7668 31.0933 29.4338 30.8048 29.8688ZM20.3044 24.4458L22.2372 22.9378C22.5833 22.6768 23.1891 22.7928 23.4776 23.1988C23.9103 23.8368 24.4007 24.4168 24.92 24.9388C25.2373 24.1268 25.4104 23.1988 25.4104 22.1258C25.4104 18.0368 22.8141 15.7458 19.9005 15.7458C16.8716 15.7458 14.3907 18.0368 14.3907 22.1258C14.3907 26.2148 16.9581 28.4768 19.9005 28.4768C20.5352 28.4768 21.141 28.3898 21.7468 28.1578C21.0833 27.3458 20.5063 26.5048 20.0736 25.6348C19.8428 25.1998 19.9005 24.7648 20.3044 24.4458Z" fill="#1E1E1E"/>
</svg>
