<svg width="764" height="49" viewBox="0 0 764 49" fill="none" xmlns="http://www.w3.org/2000/svg">
<rect width="351" height="49" rx="8" fill="#E4F2FC"/>
<path d="M13.5347 19.3784C14.3019 19 15.4038 18.3832 16.1943 17.9904C16.474 17.8177 16.7686 17.6676 17.0865 17.5031C15.806 17.8494 14.4789 18.2244 13.2134 18.5932C11.8332 18.9375 11.4911 16.9278 12.9203 16.807C14.0718 16.7624 15.2615 16.726 16.4364 16.667C15.2888 16.5188 14.1031 16.3624 12.9471 16.2511C11.5323 16.0457 12.0491 14.0451 13.4049 14.509C14.5465 14.9465 15.7114 15.3695 16.8763 15.7926C16.664 15.6698 16.4751 15.5327 16.2628 15.4099C15.5051 14.9575 14.4523 14.3066 13.6861 13.8912C12.4975 13.1338 13.8037 11.5342 14.8506 12.4743C15.7001 13.3142 16.6026 14.1848 17.5051 15.0554C16.8357 14.0409 16.1047 13.0327 15.4035 12.0695C14.6448 10.9198 16.5204 9.98404 17.0545 11.2407C17.3525 12.0403 17.774 13.1762 18.0953 13.9614C18.1612 14.111 18.2272 14.2607 18.2698 14.4247C18.0626 13.3153 17.8405 12.1833 17.6099 11.0882C17.4002 9.7265 19.5123 9.59658 19.4611 10.9607C19.3902 11.7977 19.3346 13.0059 19.2785 13.8655C19.2641 14.1916 19.2498 14.5178 19.2354 14.844C19.3261 14.5341 19.4169 14.2243 19.531 13.9C19.778 13.0813 20.1008 11.9301 20.3329 11.0888C20.751 9.78369 22.699 10.5483 22.0602 11.7676C21.1779 13.2641 20.3021 14.82 19.4495 16.3616C21.4599 17.8174 23.2903 19.4478 24.9193 21.1708C24.4492 20.1601 23.9875 19.1125 23.509 18.1388C22.9601 16.8596 24.9824 16.2457 25.2918 17.6094C25.4842 18.6963 25.7063 19.8282 25.9518 20.9458C25.9473 20.79 25.9513 20.5971 25.9468 20.4412C25.9414 19.5879 25.9355 18.3859 25.8919 17.5245C25.9048 16.1522 28.0174 16.371 27.7521 17.7087C27.4505 18.9419 27.1554 20.2346 26.8836 21.5128C27.4673 20.3593 28.0446 19.1463 28.5901 17.9846C29.2289 16.7653 31.0246 17.846 30.1736 18.9425C29.0027 20.2999 27.8298 21.7536 26.7119 23.1417C28.4262 25.1928 29.8713 27.2831 31.0723 29.302C31.0529 29.1236 31.0103 28.9596 30.991 28.7811C30.8392 27.9547 30.634 26.7488 30.4823 25.9224C30.2725 24.5606 32.3995 24.4533 32.3633 25.8399C32.2715 26.9436 32.1713 28.0842 32.1092 29.233C32.4004 28.1332 32.6766 27.0108 32.9445 25.9253C33.3244 24.6121 35.304 25.3254 34.6801 26.5672C34.2507 27.3082 33.6838 28.3879 33.2925 29.1371L32.8293 30.0259C33.0495 29.763 33.2845 29.5227 33.4814 29.2743C34.0552 28.6028 34.8641 27.691 35.4146 27.0339C36.3484 26.0132 37.8138 27.4882 36.6761 28.3491C35.2057 29.352 33.7333 30.4514 32.3075 31.5219C33.7406 34.1907 34.6728 36.5977 35.1905 38.2769C35.2545 38.523 35.1573 38.7734 34.9708 38.8885C34.9242 38.9173 34.8776 38.946 34.831 38.9748C34.5299 39.0655 34.2264 38.9038 34.1327 38.6127C33.6448 36.9785 32.7488 34.6761 31.3603 32.0749C29.6008 32.59 27.7713 33.1482 26.0416 33.7084C24.6763 34.0753 24.2727 32.0718 25.6871 31.9284C27.0082 31.8426 28.3526 31.7424 29.697 31.6422C28.3586 31.4532 27.0052 31.2416 25.7198 31.0833C24.3134 30.841 24.8833 28.8711 26.2158 29.3494C27.281 29.7705 28.3844 30.1998 29.4878 30.6292C28.5029 30.0315 27.4799 29.4257 26.4866 28.8649C25.2979 28.1075 26.6042 26.5079 27.651 27.4481C28.2521 28.0606 29.1397 28.9086 29.7641 29.5068C29.8766 29.6277 29.9976 29.7116 30.1102 29.8325C28.9687 27.9038 27.545 25.8954 25.9284 23.9427C25.2291 24.3744 24.5299 24.806 23.839 25.2008C23.0932 25.6612 22.0443 26.3087 21.2984 26.7691C20.0948 27.4804 19.1358 25.6294 20.4882 25.1436C21.7389 24.7522 23.0213 24.3095 24.3038 23.8669C22.9509 24.004 21.598 24.1411 20.2983 24.309C18.869 24.4298 18.8959 22.3826 20.3127 22.4916C21.1845 22.6197 22.4169 22.7473 23.2887 22.8754C23.4647 22.8936 23.6408 22.9119 23.8168 22.9301C22.6966 22.5746 21.5679 22.2561 20.4541 21.9601C19.1131 21.5188 19.9419 19.6429 21.194 20.2977C21.9369 20.7275 23.0363 21.3496 23.7792 21.7794C23.9383 21.8715 24.1208 21.9492 24.2949 22.0639C22.6808 20.3634 20.8886 18.7412 18.9164 17.2935C17.5268 18.4686 16.0822 19.7094 14.7456 20.9152C13.661 21.8069 12.4372 20.1511 13.6557 19.4623" fill="#F3C574"/>
<path d="M37.2467 18.5741C38.4513 18.5602 39.6325 18.5607 40.852 18.5694C39.6618 18.2571 38.4632 17.9818 37.2943 17.7515C36.0109 17.4968 36.5575 15.5412 37.7585 16.0689C38.6859 16.48 39.6514 16.8992 40.5852 17.3698C39.7466 16.7453 38.8848 16.1351 38.0145 15.5619C36.8873 14.7983 38.0939 13.1967 39.0708 14.1801C39.8588 15.0262 40.6701 15.8579 41.4347 16.7185C40.8417 15.7203 40.2337 14.6996 39.5707 13.7446C38.7971 12.5723 40.5581 11.6121 41.1135 12.9508C41.5583 14.0722 41.9649 15.1855 42.3715 16.2988C42.196 15.138 42.0056 13.9547 41.7537 12.7777C41.4761 11.3627 43.5247 11.3354 43.5182 12.7672C43.4879 13.8646 43.4576 14.962 43.3891 16.0513C43.6485 15.0028 43.8846 13.9687 44.0677 12.9039C44.3648 11.5148 46.3171 12.4353 45.7845 13.716C45.2474 14.8408 44.7251 15.9881 44.135 17.0821C44.9438 16.1703 45.7294 15.2729 46.4936 14.2935C47.3511 13.2565 48.8085 15.1172 47.7492 15.898C46.3105 16.8496 44.8867 17.8237 43.4481 18.7753C44.4056 21.0714 45.3423 23.6342 46.0945 26.2157C46.1183 25.0588 46.104 23.8937 46.0515 22.7205C46.0198 21.2806 48.0242 21.5344 47.81 22.9992C47.6036 24.0784 47.4122 25.1802 47.1676 26.2513C47.5947 25.2579 47.9835 24.2564 48.3426 23.2098C48.8455 21.8841 50.654 23.0838 49.9007 24.2785C49.1811 25.3256 48.4997 26.3808 47.7503 27.3828C48.6866 26.6144 49.608 25.8235 50.523 24.9731C50.8831 24.6239 51.4643 24.7093 51.7851 25.1458C52.1655 25.6725 52.0182 26.4932 51.5222 26.7359C49.9581 27.4476 48.4004 28.2188 46.8511 28.9531C46.8045 28.9819 47.7927 33.5118 47.9038 34.0778C47.9509 34.3977 48.0744 34.7339 48.0367 35.0745C48.0009 35.3186 47.8804 35.5834 47.573 35.6146C47.1425 35.6582 46.9531 35.1723 46.9293 34.838C46.7344 33.4988 45.895 29.1944 45.8335 29.2006C44.0988 29.2562 42.3706 29.3712 40.6339 29.5232C39.3212 29.5721 39.3694 27.607 40.6548 27.7653C41.832 27.9586 43.0178 28.115 44.2184 28.294C43.1085 27.8052 41.9521 27.3452 40.8403 26.9528C39.6223 26.499 40.4659 24.6456 41.5867 25.3498C42.4421 25.9005 43.3124 26.4737 44.1743 27.0838C43.4458 26.3279 42.694 25.5863 41.9254 24.9186C40.94 23.9722 42.3802 22.5755 43.2004 23.719C43.8252 24.6659 44.5115 25.6065 45.1279 26.5903C44.3757 24.0088 43.4539 21.4685 42.4964 19.1724C40.8023 19.4884 39.0999 19.8414 37.4271 20.2395C36.1487 20.4893 35.8661 18.5697 37.1787 18.5209" fill="#F3C574"/>
<path d="M63.04 21.28C62.96 21.28 62.92 21.24 62.92 21.2C62.4 20.8 62.24 19.8 62.24 19.2C62.2 18.24 62.08 17.28 62.08 16.36C62.08 15 62.04 13.36 62.28 12.04C62.44 11.2 62.76 10.72 63.56 10.4C64.28 10.12 65.04 10.04 65.8 9.96C66.72 9.88 67.68 9.96 68.64 9.96H76.24C78.96 9.96 78.6 9.96 81.28 9.92C81.76 9.92 82.2 9.92 82.68 9.96C83.68 10 84.8 10.04 85.72 10.48C86.76 10.92 87.08 12.04 87.12 13.08C87.2 14.28 87.08 15.8 87.08 17C87.04 18.08 87.08 19.16 86.8 20.2C86.64 20.8 86.52 21.28 85.88 21.48C85.32 21.68 84.6 21.72 84.04 21.72H66.76C66.24 21.72 65.72 21.68 65.2 21.64C64.52 21.6 63.64 21.68 63.04 21.28ZM85.24 28.92C82.6 29 80.52 29.08 77.84 29.08C77.8 30.2 77.72 31.24 77.72 32.76C77.48 33.88 76 34.56 74.92 34.52C73.32 34.44 72.44 33.8 72.28 32.2C72.16 31.16 72.32 30.04 72.32 29C69.88 29 63.48 28.92 61.24 28.76C60.4 28.68 60 28.64 59.32 28C58.96 27.68 58.8 27.08 58.8 26.52C58.8 26 59 25.48 59.32 25.16C60.12 24.32 62.08 24.36 62.16 24.36H85.04C85.84 24.36 86.64 24.36 87.4 24.4C88.12 24.44 88.92 24.56 89.48 25.08C90.04 25.52 90.04 26.04 90.04 26.68C90.04 27.48 89.56 28.16 88.76 28.44C87.68 28.84 86.36 28.88 85.24 28.92ZM86.36 36.48C86.44 36.52 87.92 36.88 88.08 38C88.24 39 88.08 39.8 87.6 40.36C87 41.12 86.12 41.16 86.08 41.16H64.24C62.2 41.16 60.96 40.44 60.96 39.24V35.68C60.92 35.08 60.92 34.48 60.96 33.88C61.04 32.76 61.88 32 63 32C63.28 32 63.84 32.04 64.08 32.12C65.44 32.56 65.52 33.92 65.6 35.12C65.6 35.56 65.64 36.04 65.76 36.4C65.88 36.44 66.68 36.56 68.56 36.56C70.16 36.56 71.64 36.48 71.68 36.48H86.36ZM66.84 16.6C66.84 16.84 66.84 17.12 66.96 17.24C67.2 17.44 68.12 17.32 68.12 17.32H78.64C78.64 17.32 80.56 17.48 81.52 17.36C82.08 17.32 82.08 17.08 82.16 16.6C82.2 16.16 82.28 15.24 81.96 14.84C81.6 14.4 80.76 14.48 80.28 14.52H76.64C76.28 14.48 71.44 14.52 71.08 14.52C69.96 14.44 68.84 14.48 67.68 14.52C67.2 14.52 67.04 14.44 66.92 14.92C66.84 15.28 66.84 15.92 66.84 16.24V16.6ZM95.2516 33.72C95.4516 33.64 99.1316 33.8 99.8116 33.8C99.8516 33.16 99.9316 30.52 100.012 29.2C99.5316 29.08 99.0916 28.96 98.6516 28.76C95.6516 27.52 93.3316 25.08 93.3316 21.56C93.3316 19.64 93.8916 18.16 94.8116 17H94.3716C93.0916 17 92.0116 16.04 92.0116 14.88C92.0116 13.68 93.0916 12.72 94.3716 12.72H99.6516V11.08C99.6516 10.04 100.692 9.28 101.972 9.28C103.292 9.28 104.332 10.04 104.332 11.08V12.72H109.852C111.172 12.72 112.252 13.68 112.252 14.88C112.252 16.04 111.172 17 109.852 17H109.732C110.652 18.16 111.252 19.64 111.252 21.56C111.252 24.04 110.052 26.08 108.052 27.6C107.052 28.32 105.932 28.84 104.772 29.16C104.852 30.4 104.852 33.16 104.852 33.76V33.8H110.172C111.052 33.8 111.772 33.96 112.292 34.28C113.492 35 113.452 36.96 112.932 37.92C112.452 38.76 111.412 38.84 110.572 38.84H94.7716C94.7316 38.84 93.3716 38.72 92.6516 38.4C92.1316 38.12 91.7316 37.52 91.6116 36.76C91.4916 35.92 91.7716 35.12 92.2916 34.64C93.2516 33.84 94.3316 33.72 95.2516 33.72ZM121.772 22.96H121.852C122.132 22.92 122.372 23 122.612 23C122.932 23.04 123.212 23.08 123.532 23.12C124.132 23.24 124.772 23.48 125.092 24.08C125.252 24.4 125.332 24.76 125.332 25.16C125.332 25.52 125.332 25.92 125.252 26.28C125.132 26.68 125.012 27.24 124.692 27.52C124.372 27.76 123.972 27.96 123.572 28.04C122.732 28.16 121.292 28.04 120.452 28.08C120.372 28.12 120.332 28.12 120.332 28.12C120.332 28.12 120.332 28.16 120.292 28.28C120.252 29.6 120.292 30.76 120.292 32.12C120.332 33.48 120.332 34.88 120.292 36.2V36.76C120.292 38.16 120.332 40.2 119.372 41.2C119.012 41.52 118.572 41.72 118.052 41.72H117.972C115.372 41.6 115.132 38.48 115.132 36.8V13.04C115.132 12.96 115.052 10.96 115.932 10.08C116.332 9.72 117.172 9.52 117.732 9.52C118.332 9.52 118.892 9.76 119.252 10.12C119.932 10.88 120.012 11.72 120.052 12.6C120.092 12.76 120.092 12.92 120.132 13.12C120.212 13.96 120.212 14.96 120.252 15.92C120.252 16.52 120.292 17.08 120.292 17.64V21.96C120.292 22.24 120.292 22.56 120.372 22.84C120.372 22.88 121.172 22.88 121.252 22.92C121.412 22.92 121.612 22.96 121.772 22.96ZM103.052 24.76C104.772 24.44 106.252 23.6 106.252 21.56C106.252 19.2 104.292 18.32 102.332 18.28C100.332 18.2 98.3316 19.04 98.3316 21.56C98.3316 24.44 100.852 25.2 103.052 24.76ZM162.553 38.44C163.393 38.52 164.113 38.8 164.353 39.64C164.673 40.6 164.313 41.28 163.313 41.68C162.673 41.92 161.993 41.96 161.433 41.96H142.833C141.753 41.96 140.593 41.92 139.433 41.88C138.313 41.84 137.513 41 137.393 39.8L137.273 37C137.233 36.44 137.193 35.48 137.673 34.96C138.393 34.16 139.833 34.04 140.993 34.04C142.513 34.04 147.593 34.08 159.793 34.08V32.64H140.113C139.593 32.64 139.153 32.64 138.753 32.56C138.273 32.44 137.873 32.44 137.633 32C137.273 31.44 137.153 30.92 137.353 30.28C137.633 29.44 138.833 29.32 139.433 29.24C139.833 29.16 140.233 29.12 140.673 29.12C143.073 29.12 145.873 29.16 160.193 29.16C162.873 29.16 164.393 29.96 164.393 31.8V34.64C164.393 35.36 164.073 36.16 163.233 36.64C162.553 37.04 161.833 37 161.153 37H142.193V38.44H162.553ZM137.633 15.2C137.553 13.88 137.353 12.48 137.793 11.32C138.393 9.88 139.913 9.64 141.233 9.64H159.873C160.953 9.64 161.873 9.68 162.913 10.08C163.753 10.44 164.273 11.28 164.233 12.2C164.153 13.12 163.593 13.84 162.713 14.04C162.233 14.16 161.513 14.24 160.553 14.24C159.873 14.24 159.393 14.2 159.353 14.2H147.793C146.993 14.2 146.193 14.24 145.393 14.2C144.753 14.16 144.073 13.96 143.473 14.16C142.873 14.32 142.913 15 143.073 15.68C143.833 15.8 144.593 15.8 145.353 15.84H152.953C153.433 15.88 156.593 15.88 156.993 15.84C157.313 15.8 159.513 15.8 159.833 15.8C161.073 15.8 162.153 16 162.993 16.4C163.513 16.68 163.873 16.88 163.993 17.52C164.153 18.16 164.033 18.84 163.633 19.32C162.873 20.32 161.913 20.36 160.793 20.4C159.753 20.44 153.873 20.48 152.233 20.48C150.553 20.48 147.153 20.44 145.593 20.44C143.833 20.4 142.073 20.32 140.313 20.32C137.713 20.32 137.713 18.56 137.713 16.32C137.713 15.96 137.673 15.56 137.633 15.2ZM138.993 22.64C139.793 22.56 141.553 22.56 141.553 22.56H150.353C150.353 22.56 157.753 22.48 161.353 22.56H161.553C162.633 22.6 163.713 22.52 164.753 22.92C165.513 23.2 165.993 23.88 165.993 24.68C165.993 25.32 165.713 25.92 165.193 26.36C164.353 27.12 162.993 27.08 161.913 27H138.953C138.873 27 136.993 27.04 136.233 26.2C135.913 25.88 135.753 25.36 135.753 24.84C135.753 24.28 135.953 23.8 136.273 23.48C136.953 22.8 137.713 22.76 138.513 22.68C138.673 22.68 138.833 22.64 138.993 22.64ZM191.589 14.52C191.629 13.16 191.589 11.04 192.549 10.08C192.909 9.72 193.349 9.56 193.829 9.56H193.909C196.549 9.68 196.789 12.8 196.789 14.48V38.2C196.789 38.28 196.869 40.32 195.949 41.16C195.589 41.52 194.749 41.76 194.189 41.76C193.589 41.76 193.029 41.52 192.669 41.12C191.989 40.36 191.869 39.68 191.789 38.8C191.789 37.88 191.709 34.68 191.749 33.2H189.269C188.069 33.2 187.429 32.8 187.149 32.2C186.989 31.88 186.829 31.52 186.829 31.16C186.829 30.8 186.829 30.56 186.909 30.2C187.029 29.8 187.149 29.24 187.469 28.96C187.789 28.72 188.189 28.52 188.589 28.44C189.429 28.28 190.749 28.32 191.629 28.2C191.629 27.4 191.629 24.92 191.589 23.16L189.189 23.08C188.189 23.04 187.309 22.88 187.029 22.28C186.869 21.96 186.749 21.56 186.749 21.2C186.749 20.84 186.749 20.6 186.829 20.24C186.949 19.84 187.069 19.36 187.389 19.08C187.709 18.84 188.109 18.64 188.509 18.56C189.109 18.44 190.149 18.44 191.549 18.36C191.549 16.6 191.549 15.04 191.589 14.52ZM177.029 9.56C177.709 9.56 178.349 9.64 178.989 9.72C179.989 9.88 180.909 10.36 181.669 11.12C184.269 13.84 184.829 18.52 184.989 22.32C185.109 24.76 185.069 27.24 184.789 29.64C184.509 32.12 184.149 34.8 182.829 36.84C181.709 38.56 179.949 39.68 178.149 40.04C176.509 40.36 174.709 40.16 173.189 39.28C171.749 38.44 170.789 37.12 170.069 35.44C169.549 34.2 169.229 32.84 169.149 31.48C168.949 29.24 168.869 27 168.869 24.76C168.869 23.24 168.869 21.76 169.029 20.28C169.109 19.08 169.309 17.84 169.509 16.68C169.709 15.72 169.829 14.88 170.229 14C170.629 13.12 171.149 12.28 171.829 11.64C172.989 10.48 174.509 9.84 176.029 9.64C176.349 9.6 176.709 9.6 177.029 9.56ZM176.909 34.72C177.389 34.72 177.909 34.56 178.389 34.24C179.269 33.6 179.589 32.48 179.829 31.2C180.269 28.76 180.229 25.8 180.149 23.28C180.109 21.24 180.069 18.6 179.109 16.96C178.589 16.08 177.789 15.52 176.949 15.64C176.069 15.72 175.269 16.28 174.789 17.32L174.429 18.16C174.109 19.16 173.949 20.28 173.869 21.36C173.789 22.44 173.709 23.56 173.709 24.64C173.749 25.72 173.629 26.72 173.709 27.76C173.909 30.52 174.269 34.68 176.909 34.72ZM216.772 34.8C218.332 34.8 219.772 35.16 219.972 36.88C220.172 38.6 218.412 39.64 216.972 39.72C215.852 39.76 210.492 39.72 207.892 39.72H207.572C206.372 39.68 204.972 39.68 203.772 39.32C202.932 39.08 202.092 38.32 201.692 37.4C201.172 36.24 201.292 33.76 201.292 33.64V16.64C201.252 16.36 200.972 13.52 201.772 12.2C202.452 11.08 205.492 11.04 205.772 11.04H215.132C215.292 11.04 218.652 10.92 219.172 12.6C219.372 13.2 219.332 14.64 219.092 15.08C218.892 15.44 218.532 15.68 218.092 15.8C217.612 15.92 216.852 16 215.812 16C215.132 16 214.612 15.96 209.692 15.96C208.972 15.96 208.052 16 207.692 16.16C206.932 16.48 206.972 18.24 207.052 18.84V18.88L207.212 32.72C207.212 33.76 207.612 34.52 208.852 34.52C209.132 34.56 213.252 34.8 216.772 34.8ZM227.412 21.88L230.572 22.16C231.532 22.36 232.372 23 232.372 24.16C232.372 24.56 232.372 24.92 232.252 25.32C232.092 26.2 231.612 26.96 230.612 26.96L227.332 27C227.252 29.76 227.332 34 227.332 37.32C227.332 38.72 227.292 41.68 224.932 41.84C222.332 42 222.132 39.44 222.132 37.76V13.2C222.132 13.12 222.092 11.12 222.972 10.24C223.332 9.88 224.172 9.68 224.772 9.68C225.372 9.68 225.892 9.92 226.252 10.28C226.972 11.04 227.012 11.88 227.092 12.76C227.332 15.68 227.412 18.84 227.412 21.88ZM260.615 34.52C260.775 34.56 260.935 34.52 261.095 34.52C261.975 34.6 262.775 34.8 263.495 35.44C263.855 35.8 264.055 36.28 264.055 36.84C264.055 37.4 263.855 38.2 263.535 38.56C262.695 39.4 260.735 39.32 260.655 39.32H238.255C238.015 39.32 237.735 39.36 237.455 39.36C236.335 39.4 234.895 39.48 234.015 38.72C233.495 38.24 233.175 37.64 233.175 37C233.175 36.2 233.695 35.2 234.495 34.88C235.575 34.48 236.735 34.56 237.895 34.52H238.095C240.375 34.48 242.855 34.48 245.255 34.52L245.215 29C243.175 29.04 241.495 29.04 240.535 28.96C239.415 28.92 237.935 28.88 237.015 28.2C235.815 27.28 235.775 24.36 235.775 24.24V15.64C235.775 14.6 235.615 13.48 235.815 12.44C236.095 11.2 237.615 10.88 238.815 10.8C239.735 10.76 241.095 11 241.295 12.08C241.375 12.56 241.215 15.6 241.415 16.04C241.535 16.32 242.095 16.36 242.375 16.4C243.615 16.48 244.015 16.36 245.255 16.36L254.415 16.4C254.975 16.44 255.415 16.44 255.575 15.88C255.615 15.32 255.615 12.96 255.655 12.52C255.695 11.56 255.975 11 256.975 10.8C258.015 10.56 259.495 10.64 260.095 11.24C260.935 12.12 260.895 13.16 260.895 15.24C260.815 17.68 261.015 23.56 260.775 26C260.655 27.56 259.775 28.56 258.255 28.8C257.455 28.92 256.375 28.88 255.575 28.88C253.855 28.92 252.215 28.92 250.615 28.92L250.695 34.52C253.415 34.52 255.295 34.44 257.895 34.52C258.855 34.56 259.775 34.44 260.615 34.52ZM241.415 23.84C241.615 24.64 242.775 24.64 243.655 24.68C244.055 24.64 252.175 24.56 252.655 24.64C253.095 24.68 253.535 24.64 253.975 24.68C254.535 24.72 255.495 24.92 255.495 24.04C255.495 23.64 255.575 22 255.375 21.24C255.215 20.6 254.855 20.64 254.335 20.68C254.095 20.68 253.335 20.72 253.095 20.68H243.975C242.975 20.64 241.495 20.44 241.375 21.68C241.375 21.96 241.375 23.64 241.415 23.84ZM295.356 38.72C295.276 39.36 295.236 39.96 295.036 40.6C294.956 40.8 294.876 40.96 294.796 41.16C294.636 41.48 294.396 41.8 294.076 42.04C293.476 42.4 292.716 42.48 292.036 42.32C291.636 42.24 291.276 42.08 290.996 41.84C290.036 40.96 290.076 38.88 290.076 38.8V14.08C290.036 12.84 290.076 10.84 290.836 10.12C291.396 9.56 292.076 9.48 292.796 9.48C293.716 9.48 294.556 10.04 294.876 10.92C295.356 12.04 295.316 13.28 295.356 14.52V14.72C295.476 18.8 295.356 23.32 295.356 27.16V37.28C295.356 37.76 295.396 38.24 295.356 38.72ZM276.476 34.8C276.436 34.16 276.436 33.52 276.436 32.88V20.16C276.436 19.32 276.436 18.44 276.356 17.56C276.316 17.28 276.276 16.68 275.996 16.56C275.716 16.4 275.356 16.48 275.036 16.44C274.676 16.4 274.316 16.48 273.956 16.44H272.076C271.196 16.48 270.236 16.4 269.356 16.44C268.956 16.48 268.596 16.44 268.196 16.44C267.596 16.44 266.916 16.44 266.396 16.08C265.636 15.56 265.436 14.68 265.436 13.84C265.396 13.32 265.516 12.8 265.756 12.32C265.876 12.04 266.036 11.8 266.276 11.64C266.556 11.36 267.156 11.16 267.516 11.08C268.636 10.8 269.916 10.84 271.076 10.84H278.036C278.716 10.92 279.556 11 280.196 11.24C280.596 11.4 281.076 11.68 281.316 12.04C281.796 12.8 281.796 13.52 281.876 14.4C281.996 15.88 281.956 17.36 281.956 18.84V31.96C281.956 32.08 282.036 35.4 281.956 37.08C281.876 38.16 281.636 39.48 280.236 40C279.756 40.2 279.276 40.28 278.876 40.28C278.196 40.28 277.396 40 277.116 39.4C276.716 38.6 276.476 37.6 276.476 36.56V34.8Z" fill="#475783"/>
<circle cx="322" cy="24.5" r="17" fill="#ACB7D6"/>
<path d="M315.264 30.68L322.154 23.582C324.338 21.346 324.468 20.358 324.468 19.292V19.084C324.468 18.07 323.714 17.108 321.79 17.108C320.438 17.108 319.06 17.55 317.838 19.734L315.342 18.096C316.226 16.484 317.968 14.144 321.764 14.144C326.002 14.144 327.822 16.38 327.822 18.954V19.214C327.822 21.242 326.86 23.114 325.118 24.856L319.606 30.42H328.524V33.176H315.264V30.68Z" fill="white"/>
<path d="M389.6 38.84C390.44 38.88 391.16 39.2 391.4 40.04C391.68 41 391.36 41.68 390.36 42.04C389.72 42.32 389 42.32 388.48 42.32H370.68C369.6 42.32 368.4 42.32 367.24 42.28C365.8 42.24 365.32 41.24 365.24 40.04L365.08 37.28C365.04 36.68 365.04 35.28 365.52 34.72C366.24 33.96 367.24 33.84 368.4 33.84H369.64C369.88 33.84 370.04 33.88 370.2 33.88H386.84V32.28H369.8C369.52 32.28 369.24 32.24 368.92 32.28H367.96C367.44 32.28 367 32.28 366.6 32.2C366.12 32.08 365.72 32.08 365.44 31.64C365.12 31.08 365 30.44 365.2 29.8C365.48 28.96 366.68 28.84 367.28 28.72C367.68 28.68 368.08 28.64 368.52 28.64H369.2C369.48 28.68 369.68 28.68 369.96 28.68H387.24C389.92 28.68 391.44 29.44 391.44 31.32V35C391.44 35.72 391.12 36.36 390.28 36.88C389.6 37.28 388.88 37.24 388.2 37.24H370V38.84H389.6ZM372.44 9.52C377.88 9.88 380.92 13 380.52 18.72C380.16 23.48 377.6 26.24 372.52 26.24C370.56 26.24 368.32 26.44 365.88 24.92C363.56 23.44 362.84 20.48 362.84 17.92C362.84 12.16 366.92 9.12 372.44 9.52ZM391.48 12.92V24.44C391.48 24.48 391.32 26.04 390.28 26.72C389.92 26.92 389.56 27.04 389.16 27.04C388.68 27.04 388.24 26.88 387.84 26.6C387.56 26.4 387.32 26.12 387.16 25.76C386.36 24.16 386.68 21.8 386.68 20.04C386.72 17.76 386.72 16.28 386.72 14.04V13.52C386.68 12.92 386.68 12.24 386.84 11.64C386.96 11.2 387.2 10.8 387.56 10.36C388 9.84 388.84 9.56 389.72 9.68C390.48 9.8 391.08 10.2 391.32 10.72C391.64 11.4 391.52 12.72 391.48 12.92ZM375.88 19.2L375.92 18.88C376.16 16.96 375.2 15.12 373.52 14.52C371.28 13.76 367.84 14.44 367.4 17.44C367.08 19.48 367.96 21.72 371.04 22C373.16 22.24 375.36 21.64 375.88 19.2ZM421.323 26.16C421.763 26.16 422.163 26.28 422.723 26.4C423.163 26.52 423.603 26.72 423.923 26.92C424.283 27.28 424.483 27.72 424.483 28.24C424.483 28.48 424.483 28.8 424.363 29.12C424.283 29.44 424.163 29.68 423.923 29.8C423.843 30 423.483 30.12 423.163 30.24C422.843 30.32 422.523 30.44 422.163 30.44C421.763 30.44 421.403 30.56 420.963 30.56C420.763 30.56 399.723 30.56 399.723 30.56C399.083 30.56 398.403 30.56 397.763 30.56C397.003 30.56 396.203 30.32 395.683 29.8C395.243 29.12 395.123 27.92 395.563 27.28C395.763 26.84 396.203 26.6 396.563 26.52C397.203 26.28 397.763 26.16 398.283 26.16C398.843 26.16 399.523 26.16 400.163 26.16C400.723 26.16 406.723 26.16 406.723 26.16V23.76C406.643 23.88 406.403 23.76 406.083 23.76H404.883C403.683 23.76 402.683 23.76 401.363 23.76C400.803 23.76 399.963 23.76 399.403 23.64C398.843 23.56 398.283 23.44 397.843 23.12C397.523 22.88 397.323 22.56 397.083 22.24C397.003 21.8 396.883 21.48 396.763 21.12C396.643 20.8 396.643 20.48 396.563 20.16C396.563 19.92 396.563 19.72 396.563 19.72V12.04C396.563 11.6 396.763 11.04 397.003 10.6C397.203 10.08 397.643 9.84 398.203 9.72C398.523 9.72 399.163 9.64 399.523 9.64C399.843 9.72 400.043 9.72 400.363 9.84C401.363 10.28 401.363 11.48 401.363 12.48C401.363 12.68 401.363 13.04 401.363 13.24C401.363 13.56 401.363 13.8 401.363 13.8C401.363 13.8 418.243 14 418.563 13.92C418.563 13.8 418.443 13.68 418.563 13.48C418.563 13.24 418.563 13.04 418.563 12.68V12.24V11.72C418.563 11.28 418.563 10.96 418.803 10.52C419.003 10.16 419.643 9.84 420.083 9.72C421.083 9.52 421.843 9.64 422.403 10.08C422.963 10.6 423.163 11.28 423.163 12.24V14.24C423.163 15 423.163 15.76 423.163 16.52C423.163 17.28 423.163 18.08 423.163 18.84C423.163 19.6 423.163 20.24 423.043 20.92C423.043 21.24 422.963 21.56 422.843 21.8C422.723 22.12 422.603 22.32 422.403 22.68C421.963 23.32 421.083 23.56 420.443 23.64C420.003 23.64 419.643 23.76 419.243 23.76C418.443 23.76 417.803 23.76 417.043 23.76C416.723 23.76 413.963 23.76 413.523 23.76C413.203 23.76 412.763 23.76 412.443 23.76C412.443 24.08 412.443 24.84 412.443 25.2V26.16C413.203 26.16 413.403 26.16 414.283 26.16C415.163 26.16 416.043 26.16 416.803 26.16H419.323C420.083 26.16 420.763 26.16 421.323 26.16ZM406.963 36.56H421.643C421.763 36.56 421.763 36.56 421.963 36.56C422.083 36.68 422.283 36.8 422.523 36.92C422.723 37 422.843 37.12 423.043 37.36C423.163 37.56 423.283 37.8 423.403 38.12C423.483 39.08 423.403 39.88 422.963 40.4C422.603 40.84 422.283 41.08 421.963 41.08C421.643 41.2 421.403 41.2 421.403 41.2H399.523C398.523 41.2 397.763 41.08 397.203 40.76C396.563 40.4 396.323 39.88 396.323 39.32V35.72C396.203 35.16 396.203 34.6 396.323 33.96C396.323 33.4 396.563 32.96 396.883 32.64C397.323 32.2 397.763 32.08 398.283 32.08C398.403 32.08 398.643 32.08 398.843 32.08C399.083 32.08 399.283 32.08 399.403 32.2C399.723 32.32 400.043 32.4 400.163 32.64C400.363 32.84 400.483 33.08 400.603 33.4C400.723 33.72 400.803 33.96 400.803 34.28C400.803 34.6 400.923 34.92 400.923 35.16C400.923 35.36 400.923 35.6 400.923 35.8C400.923 36.04 401.043 36.24 401.043 36.48C401.163 36.48 401.363 36.56 401.803 36.56C402.243 36.56 402.883 36.56 403.883 36.56C404.643 36.56 405.403 36.56 405.963 36.56C406.643 36.56 406.963 36.56 406.963 36.56ZM401.603 19.72C401.803 20.04 402.123 20.16 402.563 20.16C402.883 20.16 403.243 20.16 403.563 20.16C404.763 20.16 405.763 20.16 406.843 20.16C407.283 20.16 407.723 20.16 408.163 20.16H409.483H410.563C410.883 20.16 417.803 20.16 417.923 20.16C418.123 20.16 418.243 20.16 418.363 20.04C418.443 19.92 418.563 19.72 418.563 19.48C418.563 19.28 418.563 19.16 418.563 18.96C418.563 18.84 418.563 17.72 418.563 17.72C418.563 17.72 408.803 17.72 408.163 17.72C407.403 17.72 403.563 17.72 402.883 17.72C402.443 17.72 401.363 17.72 401.363 17.72C401.363 17.72 401.363 18.76 401.363 18.88C401.483 19.08 401.483 19.6 401.603 19.72ZM441.141 10.56C442.821 11.52 443.941 12.72 444.621 14.16C445.301 15.6 445.501 17.36 445.381 19.52C445.061 24.28 441.581 27.32 437.061 27.32C436.261 27.32 435.581 27.32 435.021 27.32C434.501 27.32 433.941 27.32 433.381 27.2C432.821 27.2 432.261 26.96 431.701 26.88C431.141 26.64 430.581 26.32 429.861 25.88C428.661 25.08 427.781 23.96 427.301 22.64C426.901 21.4 426.661 19.96 426.661 18.64C426.661 17.2 426.901 15.84 427.461 14.64C427.861 13.36 428.821 12.4 429.861 11.52C430.821 10.72 431.781 10.16 433.021 9.84C434.101 9.44 435.381 9.36 436.501 9.44C437.061 9.6 437.461 9.6 437.821 9.6C438.261 9.68 438.581 9.68 438.901 9.84C439.261 9.92 439.621 10 439.941 10.16C440.261 10.24 440.701 10.48 441.141 10.56ZM454.501 36.8C455.261 36.8 455.741 37.56 455.901 38.44C455.981 39.48 455.741 40.12 455.341 40.68C454.981 41 454.621 41.24 454.301 41.32C454.061 41.32 453.861 41.48 453.501 41.48C452.621 41.48 451.661 41.48 450.621 41.48C448.941 41.48 447.301 41.48 445.621 41.48C443.821 41.48 442.061 41.48 440.141 41.48C438.701 41.48 437.261 41.48 435.781 41.48C435.141 41.48 434.581 41.48 433.941 41.48C432.821 41.48 432.021 41.48 431.381 41.16C430.821 40.84 430.421 40.12 430.421 39.56C430.421 39.56 430.421 33.64 430.421 33.44C430.421 33.24 430.421 33 430.421 32.68C430.421 32.44 430.421 32.12 430.421 31.88C430.421 31.64 430.421 31.44 430.421 31.32C430.581 30.76 430.821 30.32 431.221 30C431.781 29.64 432.261 29.44 432.901 29.44C433.021 29.44 433.781 29.56 433.941 29.56C434.261 29.64 434.581 29.76 434.821 30.12C434.901 30.32 435.141 30.56 435.221 30.88C435.381 31.24 435.381 31.56 435.461 31.88C435.461 32.32 435.461 32.68 435.461 32.88V33.64V34.92V36.12V36.68C435.581 36.68 436.261 36.68 436.261 36.68C436.261 36.68 437.141 36.76 438.141 36.76C439.061 36.76 450.061 36.68 452.421 36.76C452.781 36.76 453.101 36.76 453.421 36.76C453.501 36.76 453.901 36.8 454.501 36.8ZM440.581 19.96C440.581 19.28 440.581 18.72 440.581 18.28C440.501 17.72 440.381 17.28 440.261 16.8C440.021 16.4 439.821 15.92 439.461 15.6C439.141 15.28 438.701 15.04 438.141 14.8C437.461 14.64 436.821 14.48 436.141 14.48C435.381 14.48 434.661 14.64 434.101 14.8C433.461 15.16 432.901 15.52 432.461 16.08C431.941 16.48 431.701 17.2 431.461 18.08C431.461 18.64 431.461 19.2 431.541 19.76C431.541 20.28 431.781 20.84 432.101 21.28C432.461 21.76 432.901 22.08 433.381 22.4C433.941 22.72 434.581 22.96 435.461 23.08C436.021 23.08 436.581 23.08 437.141 22.96C437.701 22.96 438.141 22.84 438.701 22.52C439.141 22.32 439.621 21.96 439.941 21.52C440.261 21.08 440.501 20.52 440.581 19.96ZM455.661 13.04V26.44C455.661 26.96 455.541 27.52 455.421 28.08C455.181 28.88 454.621 29.44 453.741 29.64C452.061 30 450.941 28.64 450.741 27.08C450.621 26.64 450.621 26.2 450.621 25.76C450.621 25.32 450.621 24.88 450.621 24.4L450.741 14.08C450.741 12.56 450.421 10.4 452.221 9.6C452.621 9.36 453.181 9.36 453.741 9.44C454.981 9.6 455.541 10.56 455.661 11.68C455.661 12.16 455.661 12.72 455.661 13.04ZM463.144 26.72C462.064 25.96 461.304 24.84 460.864 23.52C460.344 22.16 460.184 20.88 460.184 19.56C460.184 18.16 460.424 17 460.864 15.84C461.384 14.72 461.984 13.72 462.824 12.96C463.664 12.08 464.584 11.44 465.784 11C466.864 10.48 468.144 10.24 469.504 10.24C470.024 10.16 470.424 10.16 470.904 10.24C471.344 10.24 471.864 10.32 472.304 10.4C472.504 10.48 472.784 10.48 473.024 10.56C473.304 10.56 473.544 10.68 473.704 10.76C474.304 10.92 474.784 11.08 475.304 11.36C475.824 11.6 476.264 11.84 476.664 12.08C476.984 12.24 477.424 12.6 477.784 12.96C478.304 13.48 478.624 13.88 478.944 14.44C479.264 14.96 479.544 15.56 479.624 16.24C479.784 16.84 479.864 17.44 479.984 18.04C480.064 18.6 480.144 19.2 480.064 19.88C480.064 20.2 479.984 20.64 479.984 20.96C479.864 21.4 479.864 21.84 479.704 22.16C479.544 23.16 479.184 24.2 478.704 25.04C478.104 25.96 477.424 26.6 476.504 27.24C475.824 27.64 475.144 28 474.384 28.16C473.704 28.36 472.944 28.48 472.224 28.64C471.944 28.72 471.704 28.72 471.424 28.72C471.264 28.72 470.984 28.72 470.744 28.8H470.024C469.824 28.8 469.584 28.8 469.304 28.72C468.984 28.72 468.624 28.72 468.304 28.64C467.904 28.64 467.544 28.56 467.184 28.56C466.424 28.44 465.784 28.24 465.104 27.92C464.384 27.56 463.744 27.24 463.144 26.72ZM488.944 14.76V17.36C489.024 18.4 489.024 19.56 489.024 20.76V27.24C489.024 28.44 489.024 29.52 488.944 30.52V35.08C488.864 35.92 488.944 36.8 488.944 37.52C488.944 38.04 488.944 38.56 488.864 38.96C488.864 39.4 488.784 39.72 488.584 40C488.504 40.24 488.344 40.4 488.264 40.68C488.064 40.84 487.904 41.08 487.464 41.24C486.984 41.6 486.304 41.68 485.624 41.6C485.184 41.48 484.864 41.32 484.624 41.08C484.384 40.92 484.184 40.6 484.024 40.24C483.864 39.88 483.744 39.56 483.744 39.2C483.664 38.96 483.584 38.64 483.584 38.48V38.04L483.504 14.32C483.504 13.64 483.504 12.96 483.664 12.12C483.744 11.36 484.024 10.76 484.384 10.36C484.704 10.12 485.024 9.92 485.264 9.84C485.624 9.76 485.944 9.76 486.384 9.76C486.824 9.76 487.224 9.84 487.664 10.12C487.984 10.36 488.264 10.72 488.424 11.12C488.664 11.72 488.864 12.32 488.864 12.88C488.864 13.48 488.864 14.16 488.944 14.76ZM480.144 33.2C480.504 33.32 480.824 33.48 481.064 33.64C481.584 34.16 481.904 34.68 481.904 35.32C481.904 35.76 481.744 36.2 481.464 36.52C481.224 36.84 480.944 37.08 480.584 37.2C480.304 37.28 480.064 37.36 479.784 37.36C479.464 37.44 479.184 37.44 478.944 37.44H475.144C474.224 37.44 473.304 37.44 472.304 37.52H469.504C468.544 37.44 467.824 37.44 467.104 37.44H462.904C462.384 37.44 461.904 37.36 461.384 37.28C461.104 37.2 460.864 37.08 460.624 37C460.344 36.92 460.184 36.84 459.944 36.64C459.624 36.28 459.424 35.84 459.424 35.16C459.424 34.6 459.624 34.16 459.944 33.8C460.104 33.56 460.344 33.4 460.704 33.32C461.024 33.2 461.384 33.12 461.624 33.04C461.984 32.96 462.184 32.96 462.384 32.96H477.504C478.024 32.96 478.544 32.96 478.944 33.04C479.384 33.04 479.704 33.12 480.144 33.2ZM465.504 18.84C465.424 19.36 465.424 19.88 465.504 20.44C465.624 21.04 465.784 21.56 466.024 22C466.584 22.84 467.384 23.44 468.384 23.84C469.144 24.12 469.904 24.2 470.664 24.2C471.104 24.12 471.424 24.12 471.864 24.04C472.224 24.04 472.584 23.84 472.944 23.68C473.464 23.44 473.904 23 474.224 22.48C474.584 21.92 474.704 21.4 474.864 20.8C475.064 19.88 474.984 19.12 474.704 18.24C474.584 17.88 474.384 17.52 474.224 17.24C474.064 17.08 473.984 16.84 473.784 16.76C473.704 16.56 473.544 16.4 473.304 16.24C473.104 16.12 472.864 16 472.664 15.92C472.464 15.76 472.224 15.68 471.944 15.56C471.264 15.4 470.584 15.32 469.824 15.32C469.144 15.32 468.464 15.4 467.904 15.68C467.304 15.92 466.784 16.24 466.344 16.84C465.944 17.36 465.704 18.04 465.504 18.84ZM510.947 10.24C511.587 10.24 512.187 10.28 512.787 10.4C513.707 10.52 514.587 11 515.307 11.8C516.587 13.24 517.147 14.84 517.587 16.52H518.427H521.267V13.64C521.267 12.96 521.227 12.2 521.387 11.52C521.467 11.28 521.547 11.04 521.667 10.8C521.987 10.28 522.227 10 522.827 9.8C523.067 9.72 523.307 9.68 523.547 9.68C524.427 9.68 525.107 10.12 525.547 10.88C525.947 11.56 525.907 13.48 525.907 13.68C525.947 33.12 525.907 36.52 525.907 36.52C525.907 37.84 525.867 38.4 525.467 39.64C525.187 40.44 524.587 41.04 523.427 41.04C523.107 41.04 522.667 40.96 522.387 40.76C521.307 40.08 521.267 37.6 521.267 36.8V33.32L517.787 33.24C517.027 36.2 515.307 39.16 511.987 39.88C510.467 40.2 508.747 40 507.347 39.16C505.987 38.32 505.227 37 504.587 35.32C504.107 34.08 503.787 32.72 503.667 31.36C503.507 29.12 503.427 27.64 503.427 25.4C503.427 23.92 503.507 22.4 503.627 20.92C503.747 19.72 503.827 18.52 504.067 17.32C504.227 16.36 504.347 15.56 504.707 14.64C505.107 13.76 505.587 12.96 506.187 12.32C507.307 11.12 508.587 10.48 509.987 10.28C510.307 10.24 510.627 10.24 510.947 10.24ZM532.747 14.48C532.867 18.48 532.747 22.8 532.747 26.56V36.12C532.747 37.52 532.747 38.8 532.227 39.92C532.067 40.28 531.827 40.56 531.467 40.8C530.907 41.16 530.547 41.24 529.867 41.08C528.267 40.72 527.947 38.96 527.947 37.6V14.08C527.907 12.88 527.947 10.88 528.667 10.16C529.267 9.64 529.907 9.56 530.627 9.56C531.547 9.56 531.947 10.12 532.267 10.96C532.747 12.08 532.707 13.28 532.747 14.48ZM510.827 34.56C511.227 34.56 511.667 34.4 512.027 34.08C512.747 33.44 513.027 32.32 513.187 31.08C513.587 28.6 513.547 26.52 513.467 23.96C513.427 21.96 513.427 18.4 512.627 16.72C512.187 15.84 511.547 15.44 510.867 15.52C510.147 15.6 509.467 16.16 509.107 17.24C508.227 19.68 508.227 22.64 508.227 25.32C508.227 27.88 507.907 34.56 510.827 34.56ZM521.267 21.32L518.307 21.28C518.427 23.56 518.387 26.24 518.347 28.6H518.547H521.267V21.32ZM563.19 38.84C564.03 38.88 564.75 39.2 564.99 40.04C565.27 41 564.95 41.68 563.95 42.04C563.31 42.32 562.59 42.32 562.07 42.32H543.87C542.79 42.32 541.59 42.32 540.43 42.28C538.99 42.24 538.51 41.24 538.43 40.04L538.27 37.4C538.23 36.8 538.23 35.84 538.71 35.28C539.43 34.52 540.43 34.4 541.59 34.4H542.83C543.07 34.4 543.23 34.44 543.39 34.44H560.43V33.04H542.99C542.71 33.04 542.43 33 542.11 33.04H541.15C540.63 33.04 540.19 33.04 539.79 32.96C539.31 32.84 538.91 32.84 538.63 32.4C538.31 31.84 538.19 31.32 538.39 30.68C538.67 29.84 539.87 29.72 540.47 29.6C540.87 29.56 541.27 29.52 541.71 29.52H542.39C542.67 29.56 542.87 29.56 543.15 29.56H560.83C563.51 29.56 565.03 30.32 565.03 32.2V35C565.03 35.72 564.71 36.48 563.87 37C563.19 37.4 562.47 37.36 561.79 37.36H543.19V38.84H563.19ZM537.43 10.2L550.71 10.16C552.83 10.16 554.31 10.32 555.19 11.36C555.71 12 555.55 13.72 554.71 14.12C554.31 14.28 553.63 14.52 553.19 14.56C552.43 14.6 551.67 14.56 550.91 14.56H548.27C548.23 14.52 548.23 17.2 548.27 17.4C548.55 17.64 549.39 18.44 549.87 18.84C550.39 19.28 550.95 19.8 551.55 20.36C551.91 20.72 552.23 21.08 552.51 21.36C553.51 22.36 554.71 23.6 555.07 24.8C555.23 25.28 555.15 25.96 554.59 26.36C554.19 26.6 553.71 26.76 553.15 26.76C551.99 26.76 550.83 26.16 550.19 25.68C549.19 24.92 548.35 24.08 547.51 23.24C546.91 22.64 546.15 21.76 545.39 21.2L544.31 22.28C543.95 22.64 543.55 23 543.23 23.36C542.55 24.12 541.83 24.92 540.87 25.6C539.79 26.4 538.75 26.8 537.79 26.8C537.55 26.8 537.35 26.8 537.11 26.72C536.55 26.6 536.15 26.36 535.95 26C535.59 25.4 535.79 24.56 536.11 24C536.51 23.4 537.11 22.84 537.63 22.28C538.59 21.24 542.23 17.84 542.67 17.4V14.56H540.11C538.79 14.56 536.51 14.88 535.83 13.32C535.59 12.72 535.47 11.92 535.63 11.28C535.83 10.52 536.75 10.28 537.43 10.2ZM564.59 24.36C564.55 24.92 564.51 25.56 564.19 26.16C564.03 26.48 563.79 26.76 563.51 26.92C563.15 27.2 562.67 27.36 562.19 27.36C561.83 27.36 561.39 27.24 561.07 27.04C560.31 26.6 559.87 25.52 559.87 24.8V21.28C558.67 21.24 557.19 21.12 556.55 21.04C555.03 20.84 553.83 20.24 554.11 18.48C554.31 17.32 554.75 16.68 555.91 16.64C556.27 16.64 556.63 16.6 557.03 16.6C557.75 16.6 558.87 16.56 559.87 16.52V12.8C559.83 12.56 559.75 10.96 560.07 10.32C560.31 9.84 560.87 9.44 561.63 9.36C562.51 9.24 563.39 9.48 563.79 9.96C564.15 10.36 564.39 10.76 564.51 11.2C564.67 11.72 564.67 13 564.63 13.56V15.72C564.63 18.92 564.63 21.56 564.59 24.36Z" fill="#475783"/>
<g clip-path="url(#clip0_645_86548)">
<mask id="path-7-inside-1_645_86548" fill="white">
<path d="M578.992 17.8C576.844 18.7579 577.169 21.2524 576.617 22.0307C576.065 22.809 573.611 23.5973 573.385 26.2415C573.148 28.8857 574.942 28.756 575.73 29.9035C576.509 31.051 575.996 33.8648 579.377 34.4236C582.757 34.9824 582.866 32.1785 584.216 31.8792C585.566 31.5898 588.739 31.6497 590.484 29.5144C592.189 27.4189 590.671 24.9543 590.385 24.0762C590.099 23.1882 590.622 20.8633 589.143 19.6958C587.665 18.5384 586.207 19.7058 584.975 19.0672C583.743 18.4286 581.161 16.8421 579.012 17.8"/>
</mask>
<path d="M578.992 17.8C576.844 18.7579 577.169 21.2524 576.617 22.0307C576.065 22.809 573.611 23.5973 573.385 26.2415C573.148 28.8857 574.942 28.756 575.73 29.9035C576.509 31.051 575.996 33.8648 579.377 34.4236C582.757 34.9824 582.866 32.1785 584.216 31.8792C585.566 31.5898 588.739 31.6497 590.484 29.5144C592.189 27.4189 590.671 24.9543 590.385 24.0762C590.099 23.1882 590.622 20.8633 589.143 19.6958C587.665 18.5384 586.207 19.7058 584.975 19.0672C583.743 18.4286 581.161 16.8421 579.012 17.8" fill="#E4E8EB"/>
<path d="M573.385 26.2415L574.381 26.3306L574.381 26.3269L573.385 26.2415ZM575.73 29.9035L576.558 29.342L576.554 29.3372L575.73 29.9035ZM584.216 31.8792L584.006 30.9014L583.999 30.9029L584.216 31.8792ZM590.484 29.5144L591.258 30.147L591.259 30.1455L590.484 29.5144ZM590.385 24.0762L589.433 24.3826L589.434 24.3858L590.385 24.0762ZM589.143 19.6958L589.763 18.911L589.76 18.9085L589.143 19.6958ZM578.992 17.8L578.585 16.8866C577.139 17.5314 576.548 18.7103 576.249 19.6911C576.107 20.1588 576.014 20.6417 575.943 20.9563C575.905 21.128 575.873 21.2534 575.841 21.3489C575.808 21.4486 575.79 21.4687 575.801 21.4523L576.617 22.0307L577.433 22.6092C577.705 22.2249 577.821 21.7217 577.895 21.3957C577.985 20.9938 578.049 20.6472 578.163 20.2743C578.376 19.5738 578.697 19.0264 579.4 18.7133L578.992 17.8ZM576.617 22.0307L575.801 21.4523C575.804 21.4489 575.779 21.4829 575.686 21.5613C575.596 21.6365 575.481 21.7226 575.326 21.8344C575.033 22.0456 574.619 22.3333 574.219 22.6853C573.391 23.4127 572.531 24.4903 572.388 26.1561L573.385 26.2415L574.381 26.3269C574.465 25.3485 574.945 24.7099 575.539 24.1874C575.85 23.9146 576.167 23.694 576.496 23.456C576.771 23.258 577.18 22.9657 577.433 22.6092L576.617 22.0307ZM573.385 26.2415L572.389 26.1524C572.32 26.9226 572.391 27.5731 572.609 28.1311C572.83 28.6993 573.174 29.0955 573.524 29.3945C573.833 29.6585 574.226 29.9014 574.429 30.0414C574.675 30.2117 574.814 30.3354 574.906 30.4698L575.73 29.9035L576.554 29.3372C576.253 28.8979 575.871 28.6075 575.567 28.3967C575.219 28.1557 575.03 28.0506 574.822 27.8731C574.655 27.7305 574.545 27.5916 574.472 27.4046C574.395 27.2074 574.331 26.8825 574.381 26.3306L573.385 26.2415ZM575.73 29.9035L574.903 30.465C574.986 30.5875 575.065 30.8093 575.186 31.2699C575.292 31.6721 575.426 32.235 575.658 32.7773C575.898 33.3392 576.26 33.9273 576.856 34.4163C577.454 34.9063 578.227 35.2471 579.214 35.4102L579.377 34.4236L579.54 33.437C578.836 33.3207 578.406 33.1003 578.124 32.8696C577.842 32.6381 577.649 32.3462 577.497 31.9914C577.337 31.6169 577.243 31.2263 577.12 30.7606C577.013 30.3535 576.864 29.7932 576.558 29.342L575.73 29.9035ZM579.377 34.4236L579.214 35.4102C580.196 35.5726 581.018 35.5021 581.719 35.2408C582.418 34.9799 582.916 34.5586 583.292 34.1523C583.476 33.9525 583.637 33.7509 583.772 33.5776C583.915 33.3934 584.019 33.2566 584.126 33.1308C584.346 32.8731 584.426 32.8568 584.432 32.8555L584.216 31.8792L583.999 30.9029C583.33 31.0512 582.89 31.4977 582.605 31.8324C582.459 32.0028 582.314 32.1947 582.194 32.3486C582.065 32.5136 581.948 32.6596 581.823 32.7941C581.581 33.0563 581.333 33.2499 581.02 33.3669C580.707 33.4836 580.247 33.554 579.54 33.437L579.377 34.4236ZM584.216 31.8792L584.425 32.857C584.712 32.7956 585.096 32.7529 585.651 32.6792C586.175 32.6095 586.796 32.5175 587.439 32.3605C588.717 32.0485 590.189 31.4553 591.258 30.147L590.484 29.5144L589.709 28.8817C589.034 29.7087 588.047 30.1532 586.965 30.4175C586.428 30.5486 585.893 30.6294 585.388 30.6966C584.913 30.7597 584.395 30.8181 584.006 30.9014L584.216 31.8792ZM590.484 29.5144L591.259 30.1455C592.361 28.7912 592.401 27.3116 592.161 26.1384C592.042 25.5597 591.854 25.0404 591.689 24.6284C591.498 24.1543 591.395 23.9481 591.336 23.7667L590.385 24.0762L589.434 24.3858C589.518 24.6434 589.712 25.0745 589.833 25.375C589.979 25.7376 590.118 26.1301 590.201 26.5392C590.365 27.3417 590.311 28.1421 589.708 28.8832L590.484 29.5144ZM590.385 24.0762L591.337 23.7699C591.315 23.7009 591.293 23.5305 591.278 23.1417C591.265 22.8078 591.255 22.3468 591.206 21.8841C591.107 20.9633 590.824 19.749 589.763 18.911L589.143 19.6958L588.524 20.4806C588.941 20.8101 589.136 21.3419 589.217 22.0975C589.258 22.4729 589.264 22.8327 589.279 23.221C589.293 23.5543 589.313 24.0075 589.433 24.3826L590.385 24.0762ZM589.143 19.6958L589.76 18.9085C588.71 18.0866 587.647 18.1172 586.871 18.1915C586.452 18.2316 586.206 18.2708 585.933 18.2721C585.697 18.2732 585.551 18.2396 585.435 18.1794L584.975 19.0672L584.514 19.955C585.014 20.2141 585.513 20.2741 585.943 20.2721C586.336 20.2702 586.777 20.2096 587.062 20.1824C587.693 20.122 588.098 20.1476 588.527 20.4832L589.143 19.6958ZM584.975 19.0672L585.435 18.1794C584.875 17.8892 583.819 17.2754 582.654 16.8864C581.486 16.4965 580.012 16.259 578.605 16.8866L579.012 17.8L579.419 18.7133C580.16 18.383 581.051 18.4598 582.02 18.7834C582.992 19.1078 583.842 19.6066 584.514 19.955L584.975 19.0672Z" fill="#5E6F98" mask="url(#path-7-inside-1_645_86548)"/>
<path d="M580.206 34.8623C579.93 34.8623 579.635 34.8423 579.309 34.7825C576.638 34.3334 576.175 32.5573 575.84 31.2602C575.722 30.8111 575.613 30.3821 575.426 30.1127C575.219 29.8033 574.894 29.5838 574.559 29.3643C573.8 28.8554 572.844 28.2168 573.022 26.2112C573.209 24.1357 574.638 23.108 575.594 22.4195C575.919 22.18 576.205 21.9805 576.333 21.8108C576.461 21.6312 576.54 21.2421 576.638 20.833C576.875 19.7254 577.21 18.1987 578.856 17.4603C580.965 16.5224 583.35 17.7896 584.769 18.548L585.134 18.7375C585.568 18.967 586.07 18.9072 586.642 18.8473C587.47 18.7575 588.406 18.6477 589.362 19.3961C590.535 20.3141 590.584 21.8408 590.623 22.9483C590.633 23.3574 590.653 23.7366 590.722 23.9462C590.761 24.0759 590.83 24.2455 590.919 24.4351C591.422 25.6125 592.348 27.7977 590.761 29.7335C589.273 31.5495 586.859 31.8688 585.262 32.0784C584.887 32.1283 584.552 32.1682 584.296 32.228C583.951 32.3079 583.685 32.6471 583.35 33.0862C582.759 33.8445 581.98 34.8523 580.226 34.8523L580.206 34.8623ZM579.142 18.1389C577.821 18.7276 577.555 19.9848 577.338 20.9926C577.23 21.5015 577.131 21.9405 576.914 22.2499C576.727 22.5093 576.392 22.7488 576.018 23.0282C575.131 23.6668 573.909 24.5448 573.751 26.281C573.613 27.8576 574.244 28.2767 574.963 28.7556C575.347 29.0051 575.742 29.2745 576.027 29.7036C576.284 30.0728 576.412 30.5617 576.54 31.0805C576.875 32.3677 577.23 33.7048 579.428 34.074C581.409 34.4033 582.098 33.5152 582.759 32.6571C583.153 32.1482 583.527 31.6693 584.129 31.5395C584.405 31.4797 584.759 31.4298 585.163 31.3799C586.652 31.1903 588.889 30.891 590.2 29.2945C591.5 27.6979 590.722 25.852 590.249 24.7544C590.16 24.5349 590.081 24.3453 590.032 24.2056C589.933 23.8963 589.914 23.4772 589.904 22.9982C589.864 21.9805 589.825 20.7132 588.918 20.0048C588.199 19.436 587.479 19.5158 586.721 19.6056C586.09 19.6755 585.43 19.7453 584.799 19.426L584.424 19.2265C583.123 18.528 580.935 17.3606 579.142 18.1588V18.1389Z" fill="#5E6F98"/>
<path d="M581.821 26.6002C582.176 26.5104 582.541 26.7299 582.619 27.0792C582.708 27.4384 582.491 27.7976 582.137 27.8874C581.782 27.9772 581.417 27.7577 581.328 27.4085C581.24 27.0492 581.457 26.69 581.821 26.6002Z" fill="#C8A374"/>
<path d="M580.567 25.4733C580.922 25.3835 581.287 25.603 581.366 25.9522C581.454 26.3114 581.237 26.6706 580.883 26.7604C580.528 26.8503 580.163 26.6307 580.075 26.2815C579.986 25.9223 580.203 25.5631 580.567 25.4733Z" fill="#C8A374"/>
<path d="M583.743 26.2516C584.098 26.1618 584.463 26.3813 584.541 26.7305C584.63 27.0898 584.413 27.449 584.058 27.5388C583.704 27.6286 583.339 27.4091 583.25 27.0598C583.162 26.7006 583.378 26.3414 583.743 26.2516Z" fill="#C8A374"/>
<path d="M584.313 24.7145C584.668 24.6247 585.033 24.8442 585.112 25.1934C585.2 25.5526 584.984 25.9119 584.629 26.0017C584.274 26.0915 583.909 25.8719 583.821 25.5227C583.732 25.1635 583.949 24.8043 584.313 24.7145Z" fill="#C8A374"/>
<path d="M582.45 24.6949C582.805 24.6051 583.17 24.8247 583.248 25.1739C583.337 25.5331 583.12 25.8923 582.765 25.9821C582.411 26.0719 582.046 25.8524 581.957 25.5032C581.869 25.144 582.085 24.7847 582.45 24.6949Z" fill="#C8A374"/>
<path d="M583.653 23.0182C584.008 22.9284 584.373 23.1479 584.452 23.4971C584.54 23.8564 584.323 24.2156 583.969 24.3054C583.614 24.3952 583.249 24.1757 583.16 23.8264C583.072 23.4672 583.289 23.108 583.653 23.0182Z" fill="#C8A374"/>
<path d="M581.931 22.7194C582.285 22.6296 582.65 22.8491 582.729 23.1983C582.818 23.5575 582.601 23.9167 582.246 24.0065C581.891 24.0963 581.526 23.8768 581.438 23.5276C581.349 23.1684 581.566 22.8092 581.931 22.7194Z" fill="#C8A374"/>
<path d="M580.708 23.8463C581.063 23.7565 581.427 23.976 581.506 24.3253C581.595 24.6845 581.378 25.0437 581.023 25.1335C580.668 25.2233 580.304 25.0038 580.215 24.6545C580.126 24.2953 580.343 23.9361 580.708 23.8463Z" fill="#C8A374"/>
<mask id="path-18-inside-2_645_86548" fill="white">
<path d="M594.21 21.831C592.643 21.7212 590.967 22.5594 590.189 23.6071C589.41 24.6548 589.41 26.4608 588.819 26.9697C588.346 27.3689 587.222 27.5385 586.227 28.0973C585.084 28.7458 584.206 29.9432 583.96 31.6595C583.704 33.4755 584.778 34.8026 586.01 35.531C586.956 36.0898 587.745 36.0299 588.572 36.5188C589.39 37.0078 589.794 37.6464 590.504 38.4247C591.164 39.1531 592.239 40.0012 594.003 40.111C595.777 40.2108 596.989 39.5821 597.521 38.724C597.984 37.9757 598.339 37.1375 598.802 36.6186C599.236 36.1197 600.261 35.98 601.099 35.3614C602.153 34.5831 602.794 33.1462 602.616 31.2504C602.528 30.3523 601.946 29.3146 601.197 28.666C600.369 27.9576 598.95 27.5684 598.645 27.1693C598.329 26.7702 598.832 25.4331 597.965 24.1958C597.097 22.9585 595.678 21.9308 594.22 21.831"/>
</mask>
<path d="M594.21 21.831C592.643 21.7212 590.967 22.5594 590.189 23.6071C589.41 24.6548 589.41 26.4608 588.819 26.9697C588.346 27.3689 587.222 27.5385 586.227 28.0973C585.084 28.7458 584.206 29.9432 583.96 31.6595C583.704 33.4755 584.778 34.8026 586.01 35.531C586.956 36.0898 587.745 36.0299 588.572 36.5188C589.39 37.0078 589.794 37.6464 590.504 38.4247C591.164 39.1531 592.239 40.0012 594.003 40.111C595.777 40.2108 596.989 39.5821 597.521 38.724C597.984 37.9757 598.339 37.1375 598.802 36.6186C599.236 36.1197 600.261 35.98 601.099 35.3614C602.153 34.5831 602.794 33.1462 602.616 31.2504C602.528 30.3523 601.946 29.3146 601.197 28.666C600.369 27.9576 598.95 27.5684 598.645 27.1693C598.329 26.7702 598.832 25.4331 597.965 24.1958C597.097 22.9585 595.678 21.9308 594.22 21.831" fill="#E4E8EB"/>
<path d="M588.819 26.9697L589.464 27.7341L589.471 27.7277L588.819 26.9697ZM586.227 28.0973L585.737 27.2253L585.733 27.2275L586.227 28.0973ZM583.96 31.6595L582.97 31.5174L582.97 31.5198L583.96 31.6595ZM586.01 35.531L585.501 36.3918L585.501 36.392L586.01 35.531ZM588.572 36.5188L589.085 35.6605L589.081 35.6578L588.572 36.5188ZM590.504 38.4247L591.245 37.753L591.243 37.7509L590.504 38.4247ZM594.003 40.111L593.941 41.1091L593.947 41.1094L594.003 40.111ZM597.521 38.724L598.371 39.2511L598.371 39.2503L597.521 38.724ZM598.802 36.6186L599.548 37.2846L599.557 37.2746L598.802 36.6186ZM601.099 35.3614L600.505 34.5568L600.505 34.557L601.099 35.3614ZM602.616 31.2504L603.612 31.1572L603.612 31.1521L602.616 31.2504ZM601.197 28.666L601.852 27.91L601.847 27.9062L601.197 28.666ZM598.645 27.1693L599.439 26.5615L599.434 26.5554L599.429 26.5493L598.645 27.1693ZM594.21 21.831L594.28 20.8334C592.373 20.6999 590.369 21.6884 589.386 23.0106L590.189 23.6071L590.991 24.2035C591.566 23.4303 592.912 22.7425 594.14 22.8285L594.21 21.831ZM590.189 23.6071L589.386 23.0106C588.862 23.7161 588.628 24.6274 588.467 25.2343C588.377 25.575 588.31 25.8275 588.235 26.0295C588.153 26.25 588.114 26.2567 588.166 26.2118L588.819 26.9697L589.471 27.7277C589.819 27.4283 590.002 27.0185 590.11 26.7244C590.226 26.412 590.319 26.052 590.4 25.7467C590.582 25.0614 590.737 24.5458 590.991 24.2035L590.189 23.6071ZM588.819 26.9697L588.174 26.2054C588.174 26.205 588.16 26.2168 588.121 26.2387C588.083 26.2603 588.03 26.2864 587.958 26.3174C587.809 26.3816 587.627 26.4463 587.389 26.5295C586.94 26.6864 586.325 26.8954 585.737 27.2253L586.227 28.0973L586.716 28.9693C587.124 28.7403 587.569 28.5851 588.048 28.4177C588.274 28.3388 588.524 28.2513 588.75 28.1541C588.97 28.0591 589.234 27.9276 589.464 27.734L588.819 26.9697ZM586.227 28.0973L585.733 27.2275C584.302 28.0395 583.257 29.5171 582.97 31.5174L583.96 31.6595L584.95 31.8016C585.155 30.3694 585.865 29.4522 586.72 28.967L586.227 28.0973ZM583.96 31.6595L582.97 31.5198C582.638 33.8727 584.058 35.5386 585.501 36.3918L586.01 35.531L586.519 34.6702C585.498 34.0666 584.77 33.0783 584.95 31.7992L583.96 31.6595ZM586.01 35.531L585.501 36.392C586.097 36.7441 586.643 36.8969 587.069 37.0148C587.507 37.1363 587.782 37.2136 588.064 37.3799L588.572 36.5188L589.081 35.6578C588.535 35.3352 588.002 35.1979 587.602 35.0874C587.19 34.9733 586.869 34.8767 586.518 34.67L586.01 35.531ZM588.572 36.5188L588.059 37.3772C588.709 37.7653 588.929 38.1815 589.765 39.0984L590.504 38.4247L591.243 37.7509C590.66 37.1113 590.072 36.2503 589.085 35.6605L588.572 36.5188ZM590.504 38.4247L589.763 39.0963C590.539 39.9518 591.839 40.9783 593.941 41.1091L594.003 40.111L594.065 39.1129C592.638 39.0241 591.79 38.3543 591.245 37.753L590.504 38.4247ZM594.003 40.111L593.947 41.1094C595.959 41.2226 597.587 40.5151 598.371 39.2511L597.521 38.724L596.671 38.197C596.391 38.6492 595.594 39.1989 594.059 39.1126L594.003 40.111ZM597.521 38.724L598.371 39.2503C598.619 38.8499 598.852 38.4016 599.036 38.0711C599.238 37.7065 599.397 37.4538 599.548 37.2846L598.802 36.6186L598.056 35.9527C597.744 36.3023 597.494 36.7281 597.288 37.0995C597.062 37.5048 596.886 37.8498 596.671 38.1977L597.521 38.724ZM598.802 36.6186L599.557 37.2746C599.556 37.2755 599.588 37.2408 599.706 37.1764C599.824 37.1114 599.974 37.0462 600.187 36.9567C600.578 36.7922 601.16 36.559 601.693 36.1658L601.099 35.3614L600.505 34.557C600.199 34.7823 599.851 34.9284 599.411 35.1131C599.058 35.2616 598.447 35.5026 598.048 35.9626L598.802 36.6186ZM601.099 35.3614L601.692 36.166C603.088 35.1362 603.815 33.3228 603.612 31.1572L602.616 31.2504L601.621 31.3435C601.773 32.9697 601.219 34.0299 600.505 34.5568L601.099 35.3614ZM602.616 31.2504L603.612 31.1521C603.494 29.9622 602.764 28.7001 601.852 27.91L601.197 28.666L600.543 29.422C601.128 29.9291 601.561 30.7424 601.621 31.3487L602.616 31.2504ZM601.197 28.666L601.847 27.9062C601.316 27.4516 600.632 27.1252 600.154 26.8983C599.891 26.7733 599.693 26.681 599.537 26.5952C599.348 26.4915 599.374 26.4775 599.439 26.5615L598.645 27.1693L597.851 27.7771C598.068 28.0607 598.386 28.2449 598.575 28.3486C598.796 28.4701 599.063 28.5942 599.296 28.705C599.811 28.9496 600.25 29.172 600.547 29.4258L601.197 28.666ZM598.645 27.1693L599.429 26.5493C599.568 26.7251 599.537 26.8701 599.526 26.6567C599.522 26.5822 599.521 26.4941 599.52 26.3693C599.518 26.2518 599.517 26.1084 599.511 25.9557C599.485 25.336 599.377 24.468 598.783 23.6218L597.965 24.1958L597.146 24.7698C597.42 25.1609 597.494 25.5801 597.512 26.038C597.517 26.1547 597.518 26.2676 597.52 26.3893C597.521 26.5037 597.522 26.6376 597.529 26.7639C597.539 26.9521 597.563 27.4139 597.86 27.7893L598.645 27.1693ZM597.965 24.1958L598.783 23.6218C597.804 22.2244 596.14 20.96 594.288 20.8333L594.22 21.831L594.151 22.8286C595.216 22.9015 596.391 23.6926 597.146 24.7698L597.965 24.1958Z" fill="#5E6F98" mask="url(#path-18-inside-2_645_86548)"/>
<path d="M594.367 40.4999C594.239 40.4999 594.111 40.4999 593.983 40.49C592.485 40.4002 591.253 39.8114 590.238 38.6939C590.051 38.4844 589.883 38.2948 589.726 38.1052C589.292 37.5863 588.947 37.1872 588.385 36.8479C588.03 36.6384 587.666 36.5386 587.281 36.4288C586.848 36.3091 586.355 36.1694 585.823 35.8601C584.187 34.8922 583.359 33.3057 583.605 31.6194C583.852 29.9031 584.719 28.5461 586.049 27.7878C586.562 27.4984 587.094 27.3088 587.567 27.1491C587.991 26.9995 588.395 26.8598 588.582 26.7001C588.789 26.5305 588.927 25.9817 589.075 25.4429C589.252 24.7544 589.459 23.9861 589.903 23.3874C590.81 22.17 592.623 21.3518 594.239 21.4716C595.708 21.5714 597.255 22.5392 598.26 23.996C598.862 24.8641 598.871 25.7821 598.881 26.3908C598.881 26.6003 598.881 26.8897 598.931 26.9596C599.019 27.0793 599.453 27.2789 599.798 27.4385C600.34 27.6979 600.961 27.9873 601.444 28.3964C602.272 29.1049 602.892 30.2424 602.981 31.2202C603.168 33.1361 602.557 34.7525 601.316 35.6705C600.882 35.9898 600.409 36.1894 599.995 36.369C599.591 36.5386 599.246 36.6883 599.078 36.8779C598.812 37.1872 598.566 37.6262 598.31 38.1052C598.162 38.3846 598.004 38.664 597.837 38.9433C597.226 39.9412 595.944 40.5099 594.377 40.5099L594.367 40.4999ZM593.944 22.19C592.653 22.19 591.194 22.8685 590.484 23.8264C590.13 24.3054 589.942 25.0038 589.775 25.6225C589.588 26.321 589.43 26.9197 589.055 27.2489C588.76 27.4984 588.316 27.6481 587.804 27.8277C587.36 27.9873 586.858 28.1569 586.404 28.4164C585.271 29.055 584.532 30.2224 584.325 31.7092C584.039 33.6948 585.537 34.8224 586.197 35.2115C586.641 35.4809 587.045 35.5907 587.478 35.7104C587.892 35.8202 588.316 35.9399 588.76 36.1994C589.42 36.5985 589.824 37.0675 590.277 37.6063C590.425 37.7859 590.593 37.9755 590.77 38.175C591.657 39.1529 592.722 39.6618 594.023 39.7416C595.491 39.8214 596.693 39.3724 597.216 38.5243C597.373 38.2648 597.531 37.9854 597.669 37.726C597.945 37.2171 598.211 36.7382 598.536 36.369C598.822 36.0497 599.256 35.8601 599.719 35.6705C600.113 35.5009 600.527 35.3313 600.892 35.0618C601.917 34.3035 602.419 32.9265 602.262 31.2801C602.183 30.4918 601.651 29.5339 600.971 28.9452C600.567 28.596 599.995 28.3266 599.492 28.0971C598.97 27.8576 598.566 27.658 598.359 27.3986C598.162 27.1491 598.162 26.8099 598.152 26.3808C598.152 25.8021 598.142 25.0837 597.669 24.4052C596.802 23.1479 595.432 22.2798 594.19 22.19C594.111 22.19 594.032 22.19 593.944 22.19Z" fill="#5E6F98"/>
<path d="M593.047 29.7836C592.948 30.1229 592.594 30.3124 592.268 30.2127C591.943 30.1129 591.756 29.7537 591.854 29.4244C591.953 29.0851 592.298 28.8955 592.633 28.9953C592.958 29.0951 593.145 29.4543 593.047 29.7836Z" fill="#C8A374"/>
<path d="M594.555 29.3041C594.456 29.6434 594.101 29.8329 593.776 29.7332C593.451 29.6334 593.264 29.2742 593.362 28.9449C593.461 28.6056 593.806 28.416 594.141 28.5158C594.466 28.6156 594.653 28.9748 594.555 29.3041Z" fill="#C8A374"/>
<path d="M592.395 31.5395C592.296 31.8787 591.941 32.0683 591.616 31.9685C591.291 31.8687 591.104 31.5095 591.202 31.1802C591.301 30.841 591.646 30.6514 591.981 30.7512C592.306 30.851 592.493 31.2102 592.395 31.5395Z" fill="#C8A374"/>
<path d="M593.352 32.7572C593.253 33.0965 592.898 33.2861 592.573 33.1863C592.248 33.0865 592.061 32.7273 592.159 32.398C592.258 32.0588 592.603 31.8692 592.938 31.969C593.263 32.0687 593.45 32.4279 593.352 32.7572Z" fill="#C8A374"/>
<path d="M594.27 31.2299C594.171 31.5691 593.816 31.7587 593.491 31.6589C593.166 31.5592 592.979 31.2 593.077 30.8707C593.176 30.5314 593.521 30.3418 593.856 30.4416C594.181 30.5414 594.368 30.9006 594.27 31.2299Z" fill="#C8A374"/>
<path d="M595.035 33.0268C594.937 33.366 594.582 33.5556 594.257 33.4558C593.931 33.356 593.744 32.9968 593.843 32.6675C593.941 32.3283 594.286 32.1387 594.621 32.2385C594.947 32.3383 595.134 32.6975 595.035 33.0268Z" fill="#C8A374"/>
<path d="M596.109 31.7592C596.011 32.0984 595.656 32.288 595.331 32.1882C595.006 32.0885 594.818 31.7292 594.917 31.4C595.015 31.0607 595.36 30.8711 595.696 30.9709C596.021 31.0707 596.208 31.4299 596.109 31.7592Z" fill="#C8A374"/>
<path d="M595.797 30.2123C595.698 30.5516 595.344 30.7412 595.018 30.6414C594.693 30.5416 594.506 30.1824 594.604 29.8531C594.703 29.5138 595.048 29.3242 595.383 29.424C595.708 29.5238 595.895 29.883 595.797 30.2123Z" fill="#C8A374"/>
<mask id="path-29-inside-3_645_86548" fill="white">
<path d="M595.903 9.26849C594.593 8.62989 592.868 8.7596 591.833 9.37825C590.798 10.0069 590.187 11.5635 589.497 11.793C588.955 11.9726 587.92 11.7231 586.876 11.8528C585.664 12.0025 584.501 12.7309 583.702 14.1179C582.855 15.5847 583.328 17.1014 584.136 18.169C584.757 18.9872 585.457 19.2068 585.999 19.9152C586.541 20.6237 586.659 21.3121 587.004 22.2401C587.319 23.0982 587.95 24.2058 589.438 24.9242C590.926 25.6327 592.198 25.5229 592.947 24.9642C593.597 24.4852 594.198 23.8865 594.77 23.5971C595.312 23.3277 596.238 23.5572 597.175 23.3277C598.347 23.0284 599.392 22.0206 599.885 20.3243C600.121 19.5161 599.974 18.4185 599.55 17.6102C599.077 16.7022 597.993 15.884 597.865 15.425C597.736 14.966 598.623 13.9981 598.308 12.6212C597.993 11.2442 597.116 9.86718 595.893 9.26849"/>
</mask>
<path d="M595.903 9.26849C594.593 8.62989 592.868 8.7596 591.833 9.37825C590.798 10.0069 590.187 11.5635 589.497 11.793C588.955 11.9726 587.92 11.7231 586.876 11.8528C585.664 12.0025 584.501 12.7309 583.702 14.1179C582.855 15.5847 583.328 17.1014 584.136 18.169C584.757 18.9872 585.457 19.2068 585.999 19.9152C586.541 20.6237 586.659 21.3121 587.004 22.2401C587.319 23.0982 587.95 24.2058 589.438 24.9242C590.926 25.6327 592.198 25.5229 592.947 24.9642C593.597 24.4852 594.198 23.8865 594.77 23.5971C595.312 23.3277 596.238 23.5572 597.175 23.3277C598.347 23.0284 599.392 22.0206 599.885 20.3243C600.121 19.5161 599.974 18.4185 599.55 17.6102C599.077 16.7022 597.993 15.884 597.865 15.425C597.736 14.966 598.623 13.9981 598.308 12.6212C597.993 11.2442 597.116 9.86718 595.893 9.26849" fill="#E4E8EB"/>
<path d="M591.833 9.37825L591.32 8.51992L591.314 8.52359L591.833 9.37825ZM589.497 11.793L589.812 12.7422L589.813 12.7418L589.497 11.793ZM586.876 11.8528L586.998 12.8453L586.999 12.8452L586.876 11.8528ZM583.702 14.1179L584.568 14.6182L584.569 14.6167L583.702 14.1179ZM584.136 18.169L583.339 18.7726L583.339 18.7735L584.136 18.169ZM587.004 22.2401L587.942 21.8952L587.941 21.8917L587.004 22.2401ZM589.438 24.9242L589.003 25.8248L589.008 25.8272L589.438 24.9242ZM592.947 24.9642L592.354 24.1589L592.349 24.1626L592.947 24.9642ZM594.77 23.5971L594.325 22.7016L594.318 22.705L594.77 23.5971ZM597.175 23.3277L597.413 24.299L597.422 24.2967L597.175 23.3277ZM599.885 20.3243L598.925 20.0434L598.925 20.0453L599.885 20.3243ZM599.55 17.6102L598.663 18.0723L598.664 18.0746L599.55 17.6102ZM595.903 9.26849L596.341 8.36951C594.729 7.58396 592.646 7.72691 591.32 8.51994L591.833 9.37825L592.346 10.2366C593.089 9.7923 594.456 9.67582 595.465 10.1675L595.903 9.26849ZM591.833 9.37825L591.314 8.52359C590.6 8.95744 590.077 9.67609 589.733 10.1394C589.538 10.4025 589.397 10.5922 589.267 10.7356C589.124 10.893 589.1 10.8711 589.182 10.8441L589.497 11.793L589.813 12.7418C590.239 12.6001 590.55 12.2975 590.749 12.0789C590.96 11.8463 591.166 11.5645 591.339 11.3312C591.732 10.8017 592.032 10.4277 592.352 10.2329L591.833 9.37825ZM589.497 11.793L589.183 10.8437C589.188 10.8419 589.139 10.8569 588.985 10.8601C588.838 10.8631 588.662 10.8551 588.427 10.843C587.987 10.8202 587.377 10.7829 586.753 10.8605L586.876 11.8528L586.999 12.8452C587.419 12.7931 587.849 12.8157 588.323 12.8403C588.546 12.8518 588.795 12.8644 589.026 12.8596C589.252 12.855 589.535 12.8338 589.812 12.7422L589.497 11.793ZM586.876 11.8528L586.753 10.8604C585.202 11.0519 583.777 11.9841 582.836 13.619L583.702 14.1179L584.569 14.6167C585.225 13.4777 586.125 12.9532 586.998 12.8453L586.876 11.8528ZM583.702 14.1179L582.836 13.6176C581.714 15.5599 582.391 17.5204 583.339 18.7726L584.136 18.169L584.933 17.5655C584.265 16.6823 583.995 15.6095 584.568 14.6182L583.702 14.1179ZM584.136 18.169L583.339 18.7735C583.737 19.2974 584.161 19.6254 584.488 19.8767C584.826 20.136 585.027 20.2912 585.204 20.5229L585.999 19.9152L586.793 19.3075C586.428 18.8308 586.008 18.522 585.705 18.2898C585.392 18.0497 585.156 17.8588 584.933 17.5645L584.136 18.169ZM585.999 19.9152L585.204 20.5229C585.396 20.7728 585.519 21.0244 585.638 21.3447C585.7 21.5116 585.758 21.6871 585.828 21.8986C585.896 22.1045 585.973 22.3374 586.067 22.5885L587.004 22.2401L587.941 21.8917C587.862 21.6789 587.795 21.4777 587.727 21.2714C587.661 21.0706 587.59 20.8558 587.512 20.646C587.351 20.2129 587.144 19.7661 586.793 19.3075L585.999 19.9152ZM587.004 22.2401L586.065 22.5851C586.44 23.6047 587.213 24.9606 589.003 25.8248L589.438 24.9242L589.873 24.0237C588.687 23.4511 588.198 22.5917 587.942 21.8952L587.004 22.2401ZM589.438 24.9242L589.008 25.8272C590.706 26.6352 592.401 26.6187 593.545 25.7657L592.947 24.9642L592.349 24.1626C591.994 24.4272 591.147 24.6302 589.868 24.0213L589.438 24.9242ZM592.947 24.9642L593.54 25.7694C593.89 25.5117 594.246 25.2065 594.518 24.9863C594.819 24.7423 595.04 24.5814 595.222 24.4893L594.77 23.5971L594.318 22.705C593.929 22.9023 593.563 23.1854 593.258 23.4328C592.923 23.7041 592.654 23.9376 592.354 24.1589L592.947 24.9642ZM594.77 23.5971L595.215 24.4926C595.204 24.4983 595.234 24.4809 595.354 24.4674C595.475 24.4539 595.623 24.45 595.836 24.4474C596.227 24.4427 596.813 24.4461 597.413 24.299L597.175 23.3277L596.937 22.3565C596.6 22.4389 596.255 22.4422 595.812 22.4475C595.462 22.4517 594.841 22.445 594.325 22.7017L594.77 23.5971ZM597.175 23.3277L597.422 24.2967C599.008 23.8918 600.276 22.5636 600.845 20.6033L599.885 20.3243L598.925 20.0453C598.509 21.4776 597.687 22.165 596.927 22.3588L597.175 23.3277ZM599.885 20.3243L600.845 20.6052C601.164 19.5124 600.961 18.1481 600.435 17.1459L599.55 17.6102L598.664 18.0746C598.986 18.6888 599.078 19.5197 598.925 20.0434L599.885 20.3243ZM599.55 17.6102L600.437 17.1482C600.129 16.5575 599.646 16.0322 599.313 15.6714C599.129 15.4715 598.993 15.3258 598.89 15.1996C598.765 15.0465 598.798 15.0507 598.828 15.1562L597.865 15.425L596.901 15.6939C596.995 16.0288 597.212 16.3074 597.341 16.4652C597.492 16.65 597.681 16.8516 597.843 17.0271C598.202 17.4172 598.498 17.755 598.663 18.0723L599.55 17.6102ZM597.865 15.425L598.828 15.1562C598.888 15.3705 598.807 15.4958 598.871 15.3093C598.893 15.245 598.922 15.17 598.964 15.0616C599.003 14.9599 599.052 14.835 599.1 14.7C599.293 14.1503 599.501 13.3527 599.283 12.3979L598.308 12.6212L597.333 12.8444C597.43 13.2666 597.352 13.6414 597.213 14.0347C597.178 14.1354 597.141 14.2319 597.1 14.3369C597.061 14.4351 597.016 14.5521 596.978 14.6645C596.921 14.8316 596.777 15.2501 596.901 15.6939L597.865 15.425ZM598.308 12.6212L599.283 12.3979C598.922 10.8222 597.903 9.13964 596.333 8.37046L595.893 9.26849L595.454 10.1665C596.328 10.5947 597.063 11.6662 597.333 12.8444L598.308 12.6212Z" fill="#5E6F98" mask="url(#path-29-inside-3_645_86548)"/>
<path d="M591.338 25.7709C590.677 25.7709 589.948 25.5913 589.209 25.2421C587.947 24.6334 587.1 23.6954 586.607 22.3783C586.518 22.1388 586.439 21.9093 586.37 21.6898C586.173 21.0911 586.016 20.6222 585.651 20.1432C585.414 19.8339 585.139 19.6243 584.843 19.3948C584.508 19.1354 584.133 18.8461 583.788 18.3871C582.714 16.9801 582.547 15.3238 583.335 13.9567C584.133 12.5698 585.355 11.7017 586.755 11.5221C587.297 11.4522 587.819 11.4822 588.282 11.5021C588.706 11.5221 589.1 11.542 589.317 11.4722C589.554 11.3924 589.869 10.9733 590.165 10.5642C590.559 10.0353 591.002 9.44661 591.584 9.0874C592.786 8.35899 594.629 8.29912 595.97 8.95768C597.202 9.56635 598.197 10.9334 598.562 12.5398C598.778 13.4978 598.473 14.286 598.276 14.8149C598.207 14.9945 598.108 15.2539 598.118 15.3238C598.158 15.4535 598.453 15.7828 598.7 16.0422C599.084 16.4513 599.518 16.9203 599.784 17.4491C600.247 18.3471 600.395 19.5445 600.139 20.4226C599.636 22.1289 598.562 23.3163 597.182 23.6655C596.699 23.7852 596.226 23.7952 595.802 23.7952C595.398 23.7952 595.053 23.7952 594.836 23.915C594.501 24.0846 594.137 24.3839 593.752 24.7032C593.525 24.8928 593.299 25.0824 593.062 25.252C592.589 25.6013 592.008 25.7709 591.347 25.7709H591.338ZM587.504 12.1607C587.287 12.1607 587.06 12.1607 586.834 12.2006C585.641 12.3503 584.596 13.0986 583.907 14.306C582.98 15.9125 583.887 17.4092 584.311 17.9779C584.606 18.3671 584.912 18.6066 585.237 18.856C585.552 19.0955 585.878 19.3549 586.163 19.7241C586.597 20.2929 586.775 20.8417 586.991 21.4703C587.06 21.6799 587.129 21.8994 587.218 22.1388C587.652 23.2863 588.391 24.1045 589.485 24.6334C590.727 25.2221 591.909 25.252 592.648 24.7132C592.875 24.5436 593.102 24.364 593.309 24.1844C593.723 23.8451 594.117 23.5158 594.521 23.3163C594.876 23.1367 595.309 23.1367 595.773 23.1267C596.167 23.1267 596.581 23.1267 596.995 23.0169C598.138 22.7276 599.045 21.7198 599.468 20.243C599.675 19.5345 599.547 18.5267 599.163 17.7784C598.936 17.3393 598.532 16.9003 598.177 16.5211C597.813 16.132 597.527 15.8227 597.448 15.5333C597.369 15.2539 597.478 14.9546 597.625 14.5854C597.822 14.0865 598.059 13.4678 597.882 12.7095C597.566 11.3225 596.689 10.0952 595.654 9.58631C594.363 8.95768 592.767 9.16722 591.909 9.68609C591.436 9.97546 591.042 10.5143 590.687 10.9833C590.293 11.5221 589.948 11.9811 589.504 12.1307C589.169 12.2405 588.736 12.2205 588.233 12.1906C587.997 12.1806 587.75 12.1707 587.494 12.1707L587.504 12.1607Z" fill="#5E6F98"/>
<path d="M592.179 15.7044C591.972 15.9638 591.607 16.0037 591.361 15.8042C591.114 15.6046 591.075 15.2354 591.282 14.976C591.489 14.7166 591.854 14.6766 592.1 14.8762C592.346 15.0758 592.386 15.445 592.179 15.7044Z" fill="#C8A374"/>
<path d="M593.636 15.8136C593.429 16.0731 593.064 16.113 592.818 15.9134C592.571 15.7139 592.532 15.3447 592.739 15.0852C592.946 14.8358 593.311 14.7859 593.557 14.9954C593.803 15.195 593.843 15.5642 593.636 15.8236" fill="#C8A374"/>
<path d="M591.015 16.971C590.808 17.2304 590.443 17.2703 590.197 17.0708C589.95 16.8712 589.911 16.502 590.118 16.2426C590.325 15.9832 590.689 15.9432 590.936 16.1428C591.182 16.3424 591.222 16.7116 591.015 16.971Z" fill="#C8A374"/>
<path d="M591.409 18.3587C591.202 18.6081 590.838 18.658 590.591 18.4585C590.345 18.2589 590.305 17.8897 590.512 17.6303C590.719 17.3709 591.084 17.3309 591.33 17.5305C591.577 17.7301 591.616 18.0993 591.409 18.3587Z" fill="#C8A374"/>
<path d="M592.73 17.3704C592.523 17.6298 592.158 17.6698 591.912 17.4702C591.665 17.2706 591.626 16.9014 591.833 16.642C592.04 16.3826 592.404 16.3427 592.651 16.5422C592.897 16.7418 592.936 17.111 592.73 17.3704Z" fill="#C8A374"/>
<path d="M592.769 19.1869C592.562 19.4463 592.197 19.4862 591.951 19.2867C591.704 19.0871 591.665 18.7179 591.872 18.4585C592.079 18.1991 592.443 18.1592 592.69 18.3687C592.936 18.5683 592.976 18.9374 592.769 19.1969" fill="#C8A374"/>
<path d="M594.132 18.4682C593.925 18.7276 593.56 18.7675 593.314 18.5679C593.067 18.3684 593.028 17.9992 593.235 17.7397C593.442 17.4803 593.807 17.4404 594.053 17.6499C594.299 17.8495 594.339 18.2187 594.132 18.4781" fill="#C8A374"/>
<path d="M594.397 17.0316C594.191 17.2911 593.826 17.331 593.579 17.1314C593.333 16.9318 593.294 16.5627 593.501 16.3032C593.708 16.0438 594.072 16.0039 594.319 16.2134C594.565 16.413 594.604 16.7822 594.397 17.0416" fill="#C8A374"/>
</g>
<defs>
<clipPath id="clip0_645_86548">
<rect width="30" height="32" fill="white" transform="translate(573 8.5)"/>
</clipPath>
</defs>
</svg>
