<svg width="764" height="49" viewBox="0 0 764 49" fill="none" xmlns="http://www.w3.org/2000/svg">
<rect width="351" height="49" rx="8" fill="#E4F2E6"/>
<path d="M13.5347 19.3784C14.3019 19 15.4038 18.3832 16.1943 17.9904C16.474 17.8177 16.7686 17.6676 17.0865 17.5031C15.806 17.8494 14.4789 18.2244 13.2134 18.5932C11.8332 18.9375 11.4911 16.9278 12.9203 16.807C14.0718 16.7624 15.2615 16.726 16.4364 16.667C15.2888 16.5188 14.1031 16.3624 12.9471 16.2511C11.5323 16.0457 12.0491 14.0451 13.4049 14.509C14.5465 14.9465 15.7114 15.3695 16.8763 15.7926C16.664 15.6698 16.4751 15.5327 16.2628 15.4099C15.5051 14.9575 14.4523 14.3066 13.6861 13.8912C12.4975 13.1338 13.8037 11.5342 14.8506 12.4743C15.7001 13.3142 16.6026 14.1848 17.5051 15.0554C16.8357 14.0409 16.1047 13.0327 15.4035 12.0695C14.6448 10.9198 16.5204 9.98404 17.0545 11.2407C17.3525 12.0403 17.774 13.1762 18.0953 13.9614C18.1612 14.111 18.2272 14.2607 18.2698 14.4247C18.0626 13.3153 17.8405 12.1833 17.6099 11.0882C17.4002 9.7265 19.5123 9.59658 19.4611 10.9607C19.3902 11.7977 19.3346 13.0059 19.2785 13.8655C19.2641 14.1916 19.2498 14.5178 19.2354 14.844C19.3261 14.5341 19.4169 14.2243 19.531 13.9C19.778 13.0813 20.1008 11.9301 20.3329 11.0888C20.751 9.78369 22.699 10.5483 22.0602 11.7676C21.1779 13.2641 20.3021 14.82 19.4495 16.3616C21.4599 17.8174 23.2903 19.4478 24.9193 21.1708C24.4492 20.1601 23.9875 19.1125 23.509 18.1388C22.9601 16.8596 24.9824 16.2457 25.2918 17.6094C25.4842 18.6963 25.7063 19.8282 25.9518 20.9458C25.9473 20.79 25.9513 20.5971 25.9468 20.4412C25.9414 19.5879 25.9355 18.3859 25.8919 17.5245C25.9048 16.1522 28.0174 16.371 27.7521 17.7087C27.4505 18.9419 27.1554 20.2346 26.8836 21.5128C27.4673 20.3593 28.0446 19.1463 28.5901 17.9846C29.2289 16.7653 31.0246 17.846 30.1736 18.9425C29.0027 20.2999 27.8298 21.7536 26.7119 23.1417C28.4262 25.1928 29.8713 27.2831 31.0723 29.302C31.0529 29.1236 31.0103 28.9596 30.991 28.7811C30.8392 27.9547 30.634 26.7488 30.4823 25.9224C30.2725 24.5606 32.3995 24.4533 32.3633 25.8399C32.2715 26.9436 32.1713 28.0842 32.1092 29.233C32.4004 28.1332 32.6766 27.0108 32.9445 25.9253C33.3244 24.6121 35.304 25.3254 34.6801 26.5672C34.2507 27.3082 33.6838 28.3879 33.2925 29.1371L32.8293 30.0259C33.0495 29.763 33.2845 29.5227 33.4814 29.2743C34.0552 28.6028 34.8641 27.691 35.4146 27.0339C36.3484 26.0132 37.8138 27.4882 36.6761 28.3491C35.2057 29.352 33.7333 30.4514 32.3075 31.5219C33.7406 34.1907 34.6728 36.5977 35.1905 38.2769C35.2545 38.523 35.1573 38.7734 34.9708 38.8885C34.9242 38.9173 34.8776 38.946 34.831 38.9748C34.5299 39.0655 34.2264 38.9038 34.1327 38.6127C33.6448 36.9785 32.7488 34.6761 31.3603 32.0749C29.6008 32.59 27.7713 33.1482 26.0416 33.7084C24.6763 34.0753 24.2727 32.0718 25.6871 31.9284C27.0082 31.8426 28.3526 31.7424 29.697 31.6422C28.3586 31.4532 27.0052 31.2416 25.7198 31.0833C24.3134 30.841 24.8833 28.8711 26.2158 29.3494C27.281 29.7705 28.3844 30.1998 29.4878 30.6292C28.5029 30.0315 27.4799 29.4257 26.4866 28.8649C25.2979 28.1075 26.6042 26.5079 27.651 27.4481C28.2521 28.0606 29.1397 28.9086 29.7641 29.5068C29.8766 29.6277 29.9976 29.7116 30.1102 29.8325C28.9687 27.9038 27.545 25.8954 25.9284 23.9427C25.2291 24.3744 24.5299 24.806 23.839 25.2008C23.0932 25.6612 22.0443 26.3087 21.2984 26.7691C20.0948 27.4804 19.1358 25.6294 20.4882 25.1436C21.7389 24.7522 23.0213 24.3095 24.3038 23.8669C22.9509 24.004 21.598 24.1411 20.2983 24.309C18.869 24.4298 18.8959 22.3826 20.3127 22.4916C21.1845 22.6197 22.4169 22.7473 23.2887 22.8754C23.4647 22.8936 23.6408 22.9119 23.8168 22.9301C22.6966 22.5746 21.5679 22.2561 20.4541 21.9601C19.1131 21.5188 19.9419 19.6429 21.194 20.2977C21.9369 20.7275 23.0363 21.3496 23.7792 21.7794C23.9383 21.8715 24.1208 21.9492 24.2949 22.0639C22.6808 20.3634 20.8886 18.7412 18.9164 17.2935C17.5268 18.4686 16.0822 19.7094 14.7456 20.9152C13.661 21.8069 12.4372 20.1511 13.6557 19.4623" fill="#F3C574"/>
<path d="M37.2467 18.5741C38.4513 18.5602 39.6325 18.5607 40.852 18.5694C39.6618 18.2571 38.4632 17.9818 37.2943 17.7515C36.0109 17.4968 36.5575 15.5412 37.7585 16.0689C38.6859 16.48 39.6514 16.8992 40.5852 17.3698C39.7466 16.7453 38.8848 16.1351 38.0145 15.5619C36.8873 14.7983 38.0939 13.1967 39.0708 14.1801C39.8588 15.0262 40.6701 15.8579 41.4347 16.7185C40.8417 15.7203 40.2337 14.6996 39.5707 13.7446C38.7971 12.5723 40.5581 11.6121 41.1135 12.9508C41.5583 14.0722 41.9649 15.1855 42.3715 16.2988C42.196 15.138 42.0056 13.9547 41.7537 12.7777C41.4761 11.3627 43.5247 11.3354 43.5182 12.7672C43.4879 13.8646 43.4576 14.962 43.3891 16.0513C43.6485 15.0028 43.8846 13.9687 44.0677 12.9039C44.3648 11.5148 46.3171 12.4353 45.7845 13.716C45.2474 14.8408 44.7251 15.9881 44.135 17.0821C44.9438 16.1703 45.7294 15.2729 46.4936 14.2935C47.3511 13.2565 48.8085 15.1172 47.7492 15.898C46.3105 16.8496 44.8867 17.8237 43.4481 18.7753C44.4056 21.0714 45.3423 23.6342 46.0945 26.2157C46.1183 25.0588 46.104 23.8937 46.0515 22.7205C46.0198 21.2806 48.0242 21.5344 47.81 22.9992C47.6036 24.0784 47.4122 25.1802 47.1676 26.2513C47.5947 25.2579 47.9835 24.2564 48.3426 23.2098C48.8455 21.8841 50.654 23.0838 49.9007 24.2785C49.1811 25.3256 48.4997 26.3808 47.7503 27.3828C48.6866 26.6144 49.608 25.8235 50.523 24.9731C50.8831 24.6239 51.4643 24.7093 51.7851 25.1458C52.1655 25.6725 52.0182 26.4932 51.5222 26.7359C49.9581 27.4476 48.4004 28.2188 46.8511 28.9531C46.8045 28.9819 47.7927 33.5118 47.9038 34.0778C47.9509 34.3977 48.0744 34.7339 48.0367 35.0745C48.0009 35.3186 47.8804 35.5834 47.573 35.6146C47.1425 35.6582 46.9531 35.1723 46.9293 34.838C46.7344 33.4988 45.895 29.1944 45.8335 29.2006C44.0988 29.2562 42.3706 29.3712 40.6339 29.5232C39.3212 29.5721 39.3694 27.607 40.6548 27.7653C41.832 27.9586 43.0178 28.115 44.2184 28.294C43.1085 27.8052 41.9521 27.3452 40.8403 26.9528C39.6223 26.499 40.4659 24.6456 41.5867 25.3498C42.4421 25.9005 43.3124 26.4737 44.1743 27.0838C43.4458 26.3279 42.694 25.5863 41.9254 24.9186C40.94 23.9722 42.3802 22.5755 43.2004 23.719C43.8252 24.6659 44.5115 25.6065 45.1279 26.5903C44.3757 24.0088 43.4539 21.4685 42.4964 19.1724C40.8023 19.4884 39.0999 19.8414 37.4271 20.2395C36.1487 20.4893 35.8661 18.5697 37.1787 18.5209" fill="#F3C574"/>
<path d="M63.04 21.28C62.96 21.28 62.92 21.24 62.92 21.2C62.4 20.8 62.24 19.8 62.24 19.2C62.2 18.24 62.08 17.28 62.08 16.36C62.08 15 62.04 13.36 62.28 12.04C62.44 11.2 62.76 10.72 63.56 10.4C64.28 10.12 65.04 10.04 65.8 9.96C66.72 9.88 67.68 9.96 68.64 9.96H76.24C78.96 9.96 78.6 9.96 81.28 9.92C81.76 9.92 82.2 9.92 82.68 9.96C83.68 10 84.8 10.04 85.72 10.48C86.76 10.92 87.08 12.04 87.12 13.08C87.2 14.28 87.08 15.8 87.08 17C87.04 18.08 87.08 19.16 86.8 20.2C86.64 20.8 86.52 21.28 85.88 21.48C85.32 21.68 84.6 21.72 84.04 21.72H66.76C66.24 21.72 65.72 21.68 65.2 21.64C64.52 21.6 63.64 21.68 63.04 21.28ZM85.24 28.92C82.6 29 80.52 29.08 77.84 29.08C77.8 30.2 77.72 31.24 77.72 32.76C77.48 33.88 76 34.56 74.92 34.52C73.32 34.44 72.44 33.8 72.28 32.2C72.16 31.16 72.32 30.04 72.32 29C69.88 29 63.48 28.92 61.24 28.76C60.4 28.68 60 28.64 59.32 28C58.96 27.68 58.8 27.08 58.8 26.52C58.8 26 59 25.48 59.32 25.16C60.12 24.32 62.08 24.36 62.16 24.36H85.04C85.84 24.36 86.64 24.36 87.4 24.4C88.12 24.44 88.92 24.56 89.48 25.08C90.04 25.52 90.04 26.04 90.04 26.68C90.04 27.48 89.56 28.16 88.76 28.44C87.68 28.84 86.36 28.88 85.24 28.92ZM86.36 36.48C86.44 36.52 87.92 36.88 88.08 38C88.24 39 88.08 39.8 87.6 40.36C87 41.12 86.12 41.16 86.08 41.16H64.24C62.2 41.16 60.96 40.44 60.96 39.24V35.68C60.92 35.08 60.92 34.48 60.96 33.88C61.04 32.76 61.88 32 63 32C63.28 32 63.84 32.04 64.08 32.12C65.44 32.56 65.52 33.92 65.6 35.12C65.6 35.56 65.64 36.04 65.76 36.4C65.88 36.44 66.68 36.56 68.56 36.56C70.16 36.56 71.64 36.48 71.68 36.48H86.36ZM66.84 16.6C66.84 16.84 66.84 17.12 66.96 17.24C67.2 17.44 68.12 17.32 68.12 17.32H78.64C78.64 17.32 80.56 17.48 81.52 17.36C82.08 17.32 82.08 17.08 82.16 16.6C82.2 16.16 82.28 15.24 81.96 14.84C81.6 14.4 80.76 14.48 80.28 14.52H76.64C76.28 14.48 71.44 14.52 71.08 14.52C69.96 14.44 68.84 14.48 67.68 14.52C67.2 14.52 67.04 14.44 66.92 14.92C66.84 15.28 66.84 15.92 66.84 16.24V16.6ZM95.2516 33.72C95.4516 33.64 99.1316 33.8 99.8116 33.8C99.8516 33.16 99.9316 30.52 100.012 29.2C99.5316 29.08 99.0916 28.96 98.6516 28.76C95.6516 27.52 93.3316 25.08 93.3316 21.56C93.3316 19.64 93.8916 18.16 94.8116 17H94.3716C93.0916 17 92.0116 16.04 92.0116 14.88C92.0116 13.68 93.0916 12.72 94.3716 12.72H99.6516V11.08C99.6516 10.04 100.692 9.28 101.972 9.28C103.292 9.28 104.332 10.04 104.332 11.08V12.72H109.852C111.172 12.72 112.252 13.68 112.252 14.88C112.252 16.04 111.172 17 109.852 17H109.732C110.652 18.16 111.252 19.64 111.252 21.56C111.252 24.04 110.052 26.08 108.052 27.6C107.052 28.32 105.932 28.84 104.772 29.16C104.852 30.4 104.852 33.16 104.852 33.76V33.8H110.172C111.052 33.8 111.772 33.96 112.292 34.28C113.492 35 113.452 36.96 112.932 37.92C112.452 38.76 111.412 38.84 110.572 38.84H94.7716C94.7316 38.84 93.3716 38.72 92.6516 38.4C92.1316 38.12 91.7316 37.52 91.6116 36.76C91.4916 35.92 91.7716 35.12 92.2916 34.64C93.2516 33.84 94.3316 33.72 95.2516 33.72ZM121.772 22.96H121.852C122.132 22.92 122.372 23 122.612 23C122.932 23.04 123.212 23.08 123.532 23.12C124.132 23.24 124.772 23.48 125.092 24.08C125.252 24.4 125.332 24.76 125.332 25.16C125.332 25.52 125.332 25.92 125.252 26.28C125.132 26.68 125.012 27.24 124.692 27.52C124.372 27.76 123.972 27.96 123.572 28.04C122.732 28.16 121.292 28.04 120.452 28.08C120.372 28.12 120.332 28.12 120.332 28.12C120.332 28.12 120.332 28.16 120.292 28.28C120.252 29.6 120.292 30.76 120.292 32.12C120.332 33.48 120.332 34.88 120.292 36.2V36.76C120.292 38.16 120.332 40.2 119.372 41.2C119.012 41.52 118.572 41.72 118.052 41.72H117.972C115.372 41.6 115.132 38.48 115.132 36.8V13.04C115.132 12.96 115.052 10.96 115.932 10.08C116.332 9.72 117.172 9.52 117.732 9.52C118.332 9.52 118.892 9.76 119.252 10.12C119.932 10.88 120.012 11.72 120.052 12.6C120.092 12.76 120.092 12.92 120.132 13.12C120.212 13.96 120.212 14.96 120.252 15.92C120.252 16.52 120.292 17.08 120.292 17.64V21.96C120.292 22.24 120.292 22.56 120.372 22.84C120.372 22.88 121.172 22.88 121.252 22.92C121.412 22.92 121.612 22.96 121.772 22.96ZM103.052 24.76C104.772 24.44 106.252 23.6 106.252 21.56C106.252 19.2 104.292 18.32 102.332 18.28C100.332 18.2 98.3316 19.04 98.3316 21.56C98.3316 24.44 100.852 25.2 103.052 24.76ZM162.553 38.44C163.393 38.52 164.113 38.8 164.353 39.64C164.673 40.6 164.313 41.28 163.313 41.68C162.673 41.92 161.993 41.96 161.433 41.96H142.833C141.753 41.96 140.593 41.92 139.433 41.88C138.313 41.84 137.513 41 137.393 39.8L137.273 37C137.233 36.44 137.193 35.48 137.673 34.96C138.393 34.16 139.833 34.04 140.993 34.04C142.513 34.04 147.593 34.08 159.793 34.08V32.64H140.113C139.593 32.64 139.153 32.64 138.753 32.56C138.273 32.44 137.873 32.44 137.633 32C137.273 31.44 137.153 30.92 137.353 30.28C137.633 29.44 138.833 29.32 139.433 29.24C139.833 29.16 140.233 29.12 140.673 29.12C143.073 29.12 145.873 29.16 160.193 29.16C162.873 29.16 164.393 29.96 164.393 31.8V34.64C164.393 35.36 164.073 36.16 163.233 36.64C162.553 37.04 161.833 37 161.153 37H142.193V38.44H162.553ZM137.633 15.2C137.553 13.88 137.353 12.48 137.793 11.32C138.393 9.88 139.913 9.64 141.233 9.64H159.873C160.953 9.64 161.873 9.68 162.913 10.08C163.753 10.44 164.273 11.28 164.233 12.2C164.153 13.12 163.593 13.84 162.713 14.04C162.233 14.16 161.513 14.24 160.553 14.24C159.873 14.24 159.393 14.2 159.353 14.2H147.793C146.993 14.2 146.193 14.24 145.393 14.2C144.753 14.16 144.073 13.96 143.473 14.16C142.873 14.32 142.913 15 143.073 15.68C143.833 15.8 144.593 15.8 145.353 15.84H152.953C153.433 15.88 156.593 15.88 156.993 15.84C157.313 15.8 159.513 15.8 159.833 15.8C161.073 15.8 162.153 16 162.993 16.4C163.513 16.68 163.873 16.88 163.993 17.52C164.153 18.16 164.033 18.84 163.633 19.32C162.873 20.32 161.913 20.36 160.793 20.4C159.753 20.44 153.873 20.48 152.233 20.48C150.553 20.48 147.153 20.44 145.593 20.44C143.833 20.4 142.073 20.32 140.313 20.32C137.713 20.32 137.713 18.56 137.713 16.32C137.713 15.96 137.673 15.56 137.633 15.2ZM138.993 22.64C139.793 22.56 141.553 22.56 141.553 22.56H150.353C150.353 22.56 157.753 22.48 161.353 22.56H161.553C162.633 22.6 163.713 22.52 164.753 22.92C165.513 23.2 165.993 23.88 165.993 24.68C165.993 25.32 165.713 25.92 165.193 26.36C164.353 27.12 162.993 27.08 161.913 27H138.953C138.873 27 136.993 27.04 136.233 26.2C135.913 25.88 135.753 25.36 135.753 24.84C135.753 24.28 135.953 23.8 136.273 23.48C136.953 22.8 137.713 22.76 138.513 22.68C138.673 22.68 138.833 22.64 138.993 22.64ZM191.589 14.52C191.629 13.16 191.589 11.04 192.549 10.08C192.909 9.72 193.349 9.56 193.829 9.56H193.909C196.549 9.68 196.789 12.8 196.789 14.48V38.2C196.789 38.28 196.869 40.32 195.949 41.16C195.589 41.52 194.749 41.76 194.189 41.76C193.589 41.76 193.029 41.52 192.669 41.12C191.989 40.36 191.869 39.68 191.789 38.8C191.789 37.88 191.709 34.68 191.749 33.2H189.269C188.069 33.2 187.429 32.8 187.149 32.2C186.989 31.88 186.829 31.52 186.829 31.16C186.829 30.8 186.829 30.56 186.909 30.2C187.029 29.8 187.149 29.24 187.469 28.96C187.789 28.72 188.189 28.52 188.589 28.44C189.429 28.28 190.749 28.32 191.629 28.2C191.629 27.4 191.629 24.92 191.589 23.16L189.189 23.08C188.189 23.04 187.309 22.88 187.029 22.28C186.869 21.96 186.749 21.56 186.749 21.2C186.749 20.84 186.749 20.6 186.829 20.24C186.949 19.84 187.069 19.36 187.389 19.08C187.709 18.84 188.109 18.64 188.509 18.56C189.109 18.44 190.149 18.44 191.549 18.36C191.549 16.6 191.549 15.04 191.589 14.52ZM177.029 9.56C177.709 9.56 178.349 9.64 178.989 9.72C179.989 9.88 180.909 10.36 181.669 11.12C184.269 13.84 184.829 18.52 184.989 22.32C185.109 24.76 185.069 27.24 184.789 29.64C184.509 32.12 184.149 34.8 182.829 36.84C181.709 38.56 179.949 39.68 178.149 40.04C176.509 40.36 174.709 40.16 173.189 39.28C171.749 38.44 170.789 37.12 170.069 35.44C169.549 34.2 169.229 32.84 169.149 31.48C168.949 29.24 168.869 27 168.869 24.76C168.869 23.24 168.869 21.76 169.029 20.28C169.109 19.08 169.309 17.84 169.509 16.68C169.709 15.72 169.829 14.88 170.229 14C170.629 13.12 171.149 12.28 171.829 11.64C172.989 10.48 174.509 9.84 176.029 9.64C176.349 9.6 176.709 9.6 177.029 9.56ZM176.909 34.72C177.389 34.72 177.909 34.56 178.389 34.24C179.269 33.6 179.589 32.48 179.829 31.2C180.269 28.76 180.229 25.8 180.149 23.28C180.109 21.24 180.069 18.6 179.109 16.96C178.589 16.08 177.789 15.52 176.949 15.64C176.069 15.72 175.269 16.28 174.789 17.32L174.429 18.16C174.109 19.16 173.949 20.28 173.869 21.36C173.789 22.44 173.709 23.56 173.709 24.64C173.749 25.72 173.629 26.72 173.709 27.76C173.909 30.52 174.269 34.68 176.909 34.72ZM216.772 34.8C218.332 34.8 219.772 35.16 219.972 36.88C220.172 38.6 218.412 39.64 216.972 39.72C215.852 39.76 210.492 39.72 207.892 39.72H207.572C206.372 39.68 204.972 39.68 203.772 39.32C202.932 39.08 202.092 38.32 201.692 37.4C201.172 36.24 201.292 33.76 201.292 33.64V16.64C201.252 16.36 200.972 13.52 201.772 12.2C202.452 11.08 205.492 11.04 205.772 11.04H215.132C215.292 11.04 218.652 10.92 219.172 12.6C219.372 13.2 219.332 14.64 219.092 15.08C218.892 15.44 218.532 15.68 218.092 15.8C217.612 15.92 216.852 16 215.812 16C215.132 16 214.612 15.96 209.692 15.96C208.972 15.96 208.052 16 207.692 16.16C206.932 16.48 206.972 18.24 207.052 18.84V18.88L207.212 32.72C207.212 33.76 207.612 34.52 208.852 34.52C209.132 34.56 213.252 34.8 216.772 34.8ZM227.412 21.88L230.572 22.16C231.532 22.36 232.372 23 232.372 24.16C232.372 24.56 232.372 24.92 232.252 25.32C232.092 26.2 231.612 26.96 230.612 26.96L227.332 27C227.252 29.76 227.332 34 227.332 37.32C227.332 38.72 227.292 41.68 224.932 41.84C222.332 42 222.132 39.44 222.132 37.76V13.2C222.132 13.12 222.092 11.12 222.972 10.24C223.332 9.88 224.172 9.68 224.772 9.68C225.372 9.68 225.892 9.92 226.252 10.28C226.972 11.04 227.012 11.88 227.092 12.76C227.332 15.68 227.412 18.84 227.412 21.88ZM260.615 34.52C260.775 34.56 260.935 34.52 261.095 34.52C261.975 34.6 262.775 34.8 263.495 35.44C263.855 35.8 264.055 36.28 264.055 36.84C264.055 37.4 263.855 38.2 263.535 38.56C262.695 39.4 260.735 39.32 260.655 39.32H238.255C238.015 39.32 237.735 39.36 237.455 39.36C236.335 39.4 234.895 39.48 234.015 38.72C233.495 38.24 233.175 37.64 233.175 37C233.175 36.2 233.695 35.2 234.495 34.88C235.575 34.48 236.735 34.56 237.895 34.52H238.095C240.375 34.48 242.855 34.48 245.255 34.52L245.215 29C243.175 29.04 241.495 29.04 240.535 28.96C239.415 28.92 237.935 28.88 237.015 28.2C235.815 27.28 235.775 24.36 235.775 24.24V15.64C235.775 14.6 235.615 13.48 235.815 12.44C236.095 11.2 237.615 10.88 238.815 10.8C239.735 10.76 241.095 11 241.295 12.08C241.375 12.56 241.215 15.6 241.415 16.04C241.535 16.32 242.095 16.36 242.375 16.4C243.615 16.48 244.015 16.36 245.255 16.36L254.415 16.4C254.975 16.44 255.415 16.44 255.575 15.88C255.615 15.32 255.615 12.96 255.655 12.52C255.695 11.56 255.975 11 256.975 10.8C258.015 10.56 259.495 10.64 260.095 11.24C260.935 12.12 260.895 13.16 260.895 15.24C260.815 17.68 261.015 23.56 260.775 26C260.655 27.56 259.775 28.56 258.255 28.8C257.455 28.92 256.375 28.88 255.575 28.88C253.855 28.92 252.215 28.92 250.615 28.92L250.695 34.52C253.415 34.52 255.295 34.44 257.895 34.52C258.855 34.56 259.775 34.44 260.615 34.52ZM241.415 23.84C241.615 24.64 242.775 24.64 243.655 24.68C244.055 24.64 252.175 24.56 252.655 24.64C253.095 24.68 253.535 24.64 253.975 24.68C254.535 24.72 255.495 24.92 255.495 24.04C255.495 23.64 255.575 22 255.375 21.24C255.215 20.6 254.855 20.64 254.335 20.68C254.095 20.68 253.335 20.72 253.095 20.68H243.975C242.975 20.64 241.495 20.44 241.375 21.68C241.375 21.96 241.375 23.64 241.415 23.84ZM295.356 38.72C295.276 39.36 295.236 39.96 295.036 40.6C294.956 40.8 294.876 40.96 294.796 41.16C294.636 41.48 294.396 41.8 294.076 42.04C293.476 42.4 292.716 42.48 292.036 42.32C291.636 42.24 291.276 42.08 290.996 41.84C290.036 40.96 290.076 38.88 290.076 38.8V14.08C290.036 12.84 290.076 10.84 290.836 10.12C291.396 9.56 292.076 9.48 292.796 9.48C293.716 9.48 294.556 10.04 294.876 10.92C295.356 12.04 295.316 13.28 295.356 14.52V14.72C295.476 18.8 295.356 23.32 295.356 27.16V37.28C295.356 37.76 295.396 38.24 295.356 38.72ZM276.476 34.8C276.436 34.16 276.436 33.52 276.436 32.88V20.16C276.436 19.32 276.436 18.44 276.356 17.56C276.316 17.28 276.276 16.68 275.996 16.56C275.716 16.4 275.356 16.48 275.036 16.44C274.676 16.4 274.316 16.48 273.956 16.44H272.076C271.196 16.48 270.236 16.4 269.356 16.44C268.956 16.48 268.596 16.44 268.196 16.44C267.596 16.44 266.916 16.44 266.396 16.08C265.636 15.56 265.436 14.68 265.436 13.84C265.396 13.32 265.516 12.8 265.756 12.32C265.876 12.04 266.036 11.8 266.276 11.64C266.556 11.36 267.156 11.16 267.516 11.08C268.636 10.8 269.916 10.84 271.076 10.84H278.036C278.716 10.92 279.556 11 280.196 11.24C280.596 11.4 281.076 11.68 281.316 12.04C281.796 12.8 281.796 13.52 281.876 14.4C281.996 15.88 281.956 17.36 281.956 18.84V31.96C281.956 32.08 282.036 35.4 281.956 37.08C281.876 38.16 281.636 39.48 280.236 40C279.756 40.2 279.276 40.28 278.876 40.28C278.196 40.28 277.396 40 277.116 39.4C276.716 38.6 276.476 37.6 276.476 36.56V34.8Z" fill="#48724B"/>
<circle cx="322" cy="24.5" r="17" fill="#A0C0A6"/>
<path d="M324.554 33.176H321.226V18.174L316.962 20.618L315.35 17.914L321.616 14.43H324.554V33.176Z" fill="white"/>
<path d="M362.4 26.8C362.04 26.64 361.76 26.32 361.6 25.88C360.72 23.72 363.16 21.64 364.36 20.2C365.28 19.08 366.2 17.96 367.08 16.8C367.72 15.92 368.92 14.88 369 13.72C369.08 11.92 369 10 371.32 10C372.16 10 373.08 10.08 373.44 10.92C373.84 11.88 373.44 13.12 373.76 14.12C374.04 15 374.8 15.6 375.24 16.36C376.16 18 377.48 19.16 378.56 20.64C379.4 21.76 380.28 22.96 380.56 24.32C381.08 26.64 378.12 27.76 376.64 26.24C374.68 24.24 373.16 22 371.44 19.8C371.4 19.76 366.64 24.96 366.24 25.44C365.68 26.12 365.04 26.72 364.16 26.92C363.56 27.04 362.92 27.04 362.4 26.8ZM384.88 20.12H382.72C381.16 20.04 379.88 20.16 379.2 19.12C378.88 18.6 378.92 17.56 379.04 17C379.2 16.4 379.56 16 380.6 15.76C381.04 15.68 384.44 15.64 384.88 15.6V13C384.84 12.44 384.84 11.8 385 11.24C385.12 10.84 385.16 10.44 385.52 10.04C385.96 9.52 386.8 9.28 387.68 9.4C388.48 9.52 389.2 9.88 389.44 10.4C389.76 11.04 389.8 12.24 389.8 12.44V25.4H389.76C389.76 25.48 389.6 26.92 388.56 27.56C388.2 27.76 387.72 27.88 387.32 27.88C386.84 27.88 386.4 27.72 386 27.44C385.72 27.24 385.48 27 385.32 26.64C385 26.08 384.92 25.44 384.88 24.88V20.12ZM363.52 35.64C363.52 30.8 369.52 29.48 376.88 29.48C384.24 29.48 390.24 30.24 390.24 35.64C390.24 40.96 384.24 41.8 376.88 41.8C369.52 41.8 363.52 40.96 363.52 35.64ZM384.84 35.64C384.84 33.8 380.6 33.64 376.88 33.64C373.16 33.64 369.16 33.8 369.16 35.64C369.16 37.28 373.16 37.6 376.88 37.6C380.6 37.6 384.84 37.8 384.84 35.64ZM421.67 38.32C421.59 38.96 421.55 39.56 421.35 40.2C421.27 40.4 421.19 40.56 421.11 40.76C420.95 41.08 420.71 41.4 420.39 41.64C419.79 42 419.03 42.08 418.35 41.92C417.95 41.84 417.59 41.68 417.31 41.44C416.35 40.56 416.39 38.48 416.39 38.4V14.08C416.35 12.84 416.39 10.84 417.15 10.12C417.71 9.56 418.39 9.48 419.11 9.48C420.03 9.48 420.87 10.04 421.19 10.92C421.67 12.04 421.63 13.28 421.67 14.52V14.72C421.79 18.8 421.67 23.32 421.67 27.16V36.88C421.67 37.36 421.71 37.84 421.67 38.32ZM408.07 33.16L405.83 37.08C405.15 37.96 404.75 39.2 403.71 39.6C403.47 39.72 403.27 39.76 403.03 39.76C402.51 39.76 401.99 39.48 401.59 39.04C401.35 38.8 401.23 38.52 401.11 38.24C401.07 38.16 400.99 38.08 400.95 38C400.23 37.16 399.11 33.96 398.75 33.16C398.31 33.64 396.79 36.88 396.43 37.28C395.75 38.16 395.43 39.2 394.39 39.6C394.15 39.72 393.95 39.76 393.71 39.76C393.19 39.76 392.63 39.48 392.27 39.04C391.87 38.6 391.87 38 391.87 37.36C391.91 36.4 392.35 35.52 392.75 34.8L395.95 28C396.27 27.4 396.47 26.12 396.51 25.56C396.55 24.72 396.55 23.92 396.55 22.96V15.92C396.55 15.4 396.55 14.92 396.59 14.4C396.59 13.84 396.71 13.2 396.83 12.72C396.95 12.4 397.11 12 397.31 11.68C397.55 11.28 398.03 11.08 398.51 10.96L398.59 10.92C398.99 10.8 399.35 10.84 399.75 11C399.91 11.08 400.11 11.2 400.27 11.36C400.47 11.56 400.59 11.96 400.75 12.4C400.95 12.92 401.11 13.6 401.15 14.36C401.35 16.6 401.39 19.64 401.39 21.88C401.39 23.24 401.39 23.84 401.47 25.16C401.51 26.28 401.59 27.64 402.15 29.2L403.23 32.28L405.27 28.4C405.59 27.8 405.63 26.52 405.67 25.96C405.75 25.12 405.75 24.32 405.75 23.36V14.4C405.75 13.84 405.87 13.2 406.03 12.72C406.11 12.4 406.31 12 406.47 11.68C406.71 11.28 407.19 11.08 407.67 10.96L407.75 10.92C408.15 10.8 408.55 10.84 408.95 11C409.11 11.08 409.31 11.2 409.47 11.36C409.67 11.56 409.79 11.96 409.95 12.4C410.15 12.92 410.31 13.6 410.35 14.36C410.55 16.6 410.59 20.44 410.59 22.68C410.63 24.04 410.63 24.64 410.67 25.96C410.71 27.08 411.35 29 411.83 30L413.63 34.44C413.79 34.72 414.23 35.92 414.31 36.28C414.43 36.84 414.67 37.56 414.35 38.32C413.99 39.12 413.27 39.52 412.67 39.56H412.63C411.79 39.56 411.35 38.88 410.63 38C409.95 37.16 408.43 33.96 408.07 33.16ZM436.121 9.16C441.561 9.52 444.601 12.64 444.201 18.36C443.841 23.12 441.281 25.88 436.201 25.88C433.441 25.88 432.001 26.08 429.561 24.56C427.241 23.08 426.521 20.12 426.521 17.56C426.521 11.8 430.601 8.76 436.121 9.16ZM455.201 22.96H455.281C455.561 22.92 455.801 23 456.041 23C456.361 23.04 456.641 23.08 456.961 23.12C457.561 23.24 458.201 23.48 458.521 24.08C458.681 24.4 458.761 24.76 458.761 25.16C458.761 25.52 458.761 25.92 458.681 26.28C458.561 26.68 458.441 27.24 458.121 27.52C457.801 27.76 457.401 27.96 457.001 28.04C456.161 28.16 454.721 28.04 453.881 28.08C453.801 28.12 453.761 28.12 453.761 28.12C453.761 28.12 453.761 28.16 453.721 28.28C453.681 29.6 453.721 30.76 453.721 32.12C453.761 33.48 453.761 34.88 453.721 36.2V36.76C453.721 38.16 453.761 40.2 452.801 41.2C452.441 41.52 452.001 41.72 451.481 41.72H451.401C448.801 41.6 448.561 38.48 448.561 36.8V13.04C448.561 12.96 448.481 10.96 449.361 10.08C449.761 9.72 450.601 9.52 451.161 9.52C451.761 9.52 452.321 9.76 452.681 10.12C453.361 10.88 453.441 11.72 453.481 12.6C453.521 12.76 453.521 12.92 453.561 13.12C453.641 13.96 453.641 14.96 453.681 15.92C453.681 16.52 453.721 17.08 453.721 17.64V21.96C453.721 22.24 453.721 22.56 453.801 22.84C453.801 22.88 454.601 22.88 454.681 22.92C454.841 22.92 455.041 22.96 455.201 22.96ZM428.681 33.72C428.881 33.64 431.361 33.8 432.041 33.8C432.121 32.96 432.201 28.72 432.321 28.4C432.521 27.76 433.001 27.28 433.561 27.04C433.881 26.92 434.161 26.88 434.481 26.88C435.641 26.88 436.641 27.56 436.921 28.52C437.081 28.92 437.081 33 437.081 33.76V33.8H443.601C444.481 33.8 445.201 33.96 445.721 34.28C446.921 35 446.881 36.96 446.361 37.92C445.881 38.76 444.841 38.84 444.001 38.84H428.201C428.161 38.84 426.801 38.72 426.081 38.4C425.561 38.12 425.161 37.52 425.041 36.76C424.921 35.92 425.201 35.12 425.721 34.64C426.681 33.84 427.761 33.72 428.681 33.72ZM439.561 18.84L439.601 18.52C439.841 16.6 438.881 14.76 437.201 14.16C434.961 13.4 431.521 14.08 431.081 17.08C430.761 19.12 431.641 21.36 434.721 21.64C436.841 21.88 439.041 21.28 439.561 18.84ZM480.335 34.8C480.295 34.16 480.295 33.52 480.295 32.88V20.16C480.295 19.32 480.295 18.44 480.215 17.56C480.175 17.28 480.135 16.68 479.855 16.56C479.575 16.4 479.215 16.48 478.895 16.44C478.535 16.4 478.175 16.48 477.815 16.44H475.935C475.055 16.48 474.095 16.4 473.215 16.44C472.815 16.48 472.455 16.44 472.055 16.44C471.455 16.44 470.775 16.44 470.255 16.08C469.495 15.56 469.295 14.68 469.295 13.84C469.255 13.32 469.375 12.8 469.615 12.32C469.735 12.04 469.895 11.8 470.135 11.64C470.415 11.36 471.015 11.16 471.375 11.08C472.495 10.8 473.775 10.84 474.935 10.84H481.895C482.575 10.92 483.415 11 484.055 11.24C484.455 11.4 484.935 11.68 485.175 12.04C485.655 12.8 485.655 13.52 485.735 14.4C485.855 15.88 485.815 17.36 485.815 18.84V31.96C485.815 32.08 485.895 35.4 485.815 37.08C485.735 38.16 485.495 39.48 484.095 40C483.615 40.2 483.135 40.28 482.735 40.28C482.055 40.28 481.255 40 480.975 39.4C480.575 38.6 480.335 37.6 480.335 36.56V34.8ZM497.255 21.84C498.015 21.88 498.855 21.92 499.575 21.96C499.855 21.96 500.175 22.04 500.495 22.08C501.535 22.28 502.295 22.96 502.295 24.08C502.295 24.84 502.255 25.96 501.575 26.48C501.255 26.72 500.935 26.92 500.535 27C499.695 27.12 498.255 27 497.415 27.04C497.335 27.04 497.255 27.08 497.255 27.24C497.215 28.56 497.255 30.92 497.255 32.28C497.295 33.64 497.295 35.04 497.255 36.36V36.92C497.255 38.32 497.255 40.36 496.295 41.32C495.975 41.68 495.535 41.88 495.015 41.88C495.015 41.88 494.975 41.84 494.935 41.84C492.335 41.76 492.055 38.64 492.055 36.96V13.2C492.055 13.12 492.015 11.12 492.895 10.24C493.255 9.88 494.095 9.68 494.695 9.68C495.295 9.68 495.815 9.92 496.175 10.28C496.895 11.04 496.935 11.88 497.015 12.76C497.055 12.92 497.055 13.08 497.055 13.24C497.175 14.12 497.175 15.12 497.215 16.08C497.215 16.92 497.255 16.64 497.255 20.92C497.255 21.2 497.255 21.52 497.255 21.84ZM505.178 22.92C504.658 22.68 504.378 22.32 504.338 21.76C504.258 21.48 504.338 21.24 504.378 20.8C504.458 20.48 504.658 20.12 504.898 19.92C505.178 19.64 505.498 19.4 505.938 19.12L508.698 17.8C509.138 17.52 509.578 17.36 509.898 17.2C510.258 17 510.658 16.84 511.178 16.6C511.578 16.32 512.178 16.08 512.738 15.76C513.338 15.52 513.978 15.24 514.458 15.08V13.76H509.058C508.778 13.76 508.378 13.76 507.978 13.72C507.698 13.72 507.378 13.64 507.018 13.64C506.658 13.64 506.378 13.64 506.018 13.48C505.778 13.32 505.498 13.04 505.338 12.72C505.178 12.44 505.058 12.08 504.978 11.76C504.978 11.44 505.058 11.12 505.178 10.84C505.418 10.4 505.778 10.08 506.298 9.8C506.778 9.64 507.258 9.52 507.778 9.52H508.698C509.138 9.6 509.458 9.6 509.658 9.6C509.818 9.6 510.178 9.52 510.578 9.52H526.138C526.738 9.52 527.258 9.52 527.738 9.6C528.338 9.64 528.738 9.8 529.178 10.16C529.578 10.4 529.898 10.84 530.018 11.44C530.178 12 530.098 12.52 529.658 12.88C529.258 13.2 528.738 13.48 528.138 13.64C527.538 13.76 526.898 13.88 526.218 13.88H524.618C524.178 13.88 523.658 13.76 523.218 13.76H521.898C521.378 13.76 520.898 13.88 520.378 13.88V15.16C520.538 15.24 520.738 15.32 520.898 15.4C521.018 15.52 521.298 15.6 521.458 15.6C521.618 15.68 521.818 15.76 521.898 15.84C522.058 15.88 522.258 15.96 522.418 16.08C522.658 16.24 522.938 16.32 523.138 16.48C523.418 16.6 523.658 16.76 524.018 16.84C524.538 17.08 525.058 17.36 525.538 17.6C526.018 17.92 526.538 18.16 527.058 18.44C527.538 18.68 528.058 18.96 528.498 19.28C529.018 19.64 529.498 20 529.898 20.28C530.098 20.48 530.258 20.72 530.338 21C530.418 21.32 530.418 21.6 530.338 21.92C530.258 22.16 530.178 22.4 529.898 22.68C529.738 22.84 529.498 23 529.178 23.08C528.338 23.28 527.378 23.28 526.458 23.08C525.538 22.84 524.698 22.56 523.938 22.24C523.138 21.92 522.498 21.6 521.898 21.32C521.218 21 520.658 20.64 520.058 20.28C519.778 20.2 519.538 20.04 519.258 19.92C518.938 19.72 518.618 19.64 518.378 19.48C518.018 19.2 517.578 19.04 517.138 18.88C516.778 19.04 516.338 19.28 515.898 19.48C515.458 19.64 515.138 19.8 514.738 20C514.378 20.12 514.138 20.2 513.858 20.36C513.178 20.72 512.538 21.08 511.938 21.32C511.338 21.6 510.658 21.84 509.978 22.16C509.458 22.4 508.858 22.68 508.378 22.92C507.778 23.16 507.178 23.36 506.578 23.28C506.098 23.28 505.578 23.08 505.178 22.92ZM531.858 26.08C532.298 26.28 532.458 26.72 532.458 27.32C532.458 27.56 532.378 27.84 532.298 28.2C532.218 28.4 532.098 28.64 531.938 28.76C531.698 29 531.418 29.16 531.138 29.28C530.778 29.36 530.418 29.44 530.098 29.44C529.738 29.52 529.498 29.52 529.258 29.52H528.938L507.258 29.6H505.338C504.658 29.52 504.178 29.36 503.658 28.92C503.058 28.48 502.698 28 502.698 27.48C502.698 27.08 502.858 26.72 503.138 26.28C503.378 25.88 503.738 25.64 504.178 25.56C504.738 25.28 505.258 25.2 505.858 25.2C506.498 25.28 507.098 25.28 507.698 25.2H513.978V22.84C513.978 22.08 514.298 21.48 514.938 21.24C515.658 20.88 516.418 20.8 517.258 20.88C518.018 21 518.538 21.16 518.938 21.32C519.258 21.6 519.538 22 519.538 22.48C519.618 22.92 519.618 23.36 519.618 23.8C519.698 24.24 519.698 24.76 519.698 25.2H529.258C529.658 25.28 530.098 25.28 530.618 25.48C531.138 25.56 531.498 25.72 531.858 26.08ZM530.258 33.56V36.32C530.258 36.48 530.338 36.76 530.338 37.12V39.64C530.338 40.08 530.338 40.4 530.258 40.48C530.258 41.08 530.018 41.6 529.658 41.92C529.258 42.28 528.738 42.44 528.138 42.44C527.818 42.44 527.538 42.44 527.258 42.36C526.898 42.2 526.658 42 526.378 41.84C526.218 41.6 526.018 41.32 525.938 41.08C525.858 40.8 525.778 40.56 525.698 40.24V38.68C525.618 38.44 525.618 38.12 525.618 37.88V37C525.538 36.76 525.538 36.48 525.538 36.4C525.418 36.4 525.178 36.32 524.858 36.32H506.178C506.178 36.32 506.018 36.32 505.858 36.24C505.698 36.2 505.498 36.12 505.258 36.04C505.058 35.92 504.818 35.76 504.658 35.6C504.458 35.4 504.378 35.16 504.338 34.8C504.178 33.84 504.338 33.04 504.818 32.36C505.178 32.04 505.498 31.8 505.938 31.8C506.298 31.72 506.418 31.64 506.498 31.64H526.818C527.898 31.64 528.738 31.8 529.418 32.08C530.018 32.44 530.258 32.96 530.258 33.56ZM548.786 34.52C551.066 34.48 553.666 34.48 556.106 34.52V30.32C552.146 29.76 547.426 27.8 547.426 21.64C547.426 19.36 548.186 17.64 549.386 16.32H548.346C547.106 16.32 546.106 15.28 546.106 14C546.106 12.72 547.106 11.68 548.346 11.68H556.146V10.04C556.146 8.92 556.626 7.8 559.186 7.8C561.786 7.8 562.226 8.92 562.226 10.04V11.68H570.386C571.626 11.68 572.666 12.72 572.666 14C572.666 15.28 571.626 16.32 570.386 16.32H568.626C570.106 17.76 571.026 19.8 570.826 22.64C570.426 27.68 566.146 30.52 561.106 30.48L561.146 34.52C564.106 34.52 566.026 34.44 568.786 34.52C569.746 34.56 570.666 34.44 571.506 34.52C571.666 34.56 571.826 34.52 571.986 34.52C572.866 34.6 573.666 34.8 574.386 35.44C574.746 35.8 574.946 36.28 574.946 36.84C574.946 37.4 574.746 38.2 574.426 38.56C573.586 39.4 571.626 39.32 571.546 39.32H549.146C548.906 39.32 548.626 39.36 548.346 39.36C547.226 39.4 545.786 39.48 544.906 38.72C544.386 38.24 544.066 37.64 544.066 37C544.066 36.2 544.586 35.2 545.386 34.88C546.466 34.48 547.626 34.56 548.786 34.52ZM565.786 22.96C566.266 19.2 563.146 17.64 559.706 17.44C556.706 17.32 553.106 18.12 552.666 21.12C551.986 25.2 555.506 26.12 559.066 26.12C561.906 26.12 565.266 25.56 565.786 22.96ZM578.527 35.64C578.527 30.8 583.887 29.48 591.247 29.48C598.607 29.48 603.807 30.24 603.807 35.64C603.807 40.96 598.607 41.8 591.247 41.8C583.887 41.8 578.527 40.96 578.527 35.64ZM591.647 22.12C592.527 23.16 593.607 24.4 593.927 25.56C594.047 26.08 593.967 26.76 593.487 27.16C593.127 27.4 592.687 27.56 592.207 27.56C591.207 27.56 590.167 26.96 589.607 26.48C588.727 25.68 587.967 24.84 587.247 24.04C586.687 23.4 585.887 22.76 585.367 22.04L581.407 26.4C580.567 27.32 579.527 27.6 578.687 27.6C578.487 27.6 578.287 27.56 578.087 27.52C577.607 27.4 577.247 27.16 577.047 26.8C576.727 26.2 576.887 25.36 577.207 24.8C577.567 24.16 578.047 23.64 578.527 23.08C579.927 21.52 581.167 19.8 582.687 18.2V16C582.287 16.04 581.647 16 580.727 16C579.567 16 577.567 16.36 576.967 14.8C576.727 14.2 576.647 13.4 576.807 12.76C576.967 12 577.767 11.76 578.367 11.68C578.567 11.64 578.807 11.6 579.087 11.6C579.247 11.6 579.407 11.64 579.567 11.64H582.807C582.887 10.4 583.207 9.2 584.367 8.76C586.167 8.08 587.487 9.6 587.727 11.2C587.767 11.36 587.807 11.48 587.807 11.64H590.087C591.927 11.64 592.967 11.76 593.727 12.8C594.207 13.44 594.047 15.2 593.367 15.6C592.967 15.76 592.367 16 591.967 16C591.327 16.04 590.887 16 590.247 16C589.287 16 588.887 16.04 588.167 16C588.127 17.36 588.167 16.4 588.167 18.2C588.407 18.4 588.927 19.24 589.327 19.64C589.767 20.08 590.247 20.56 590.767 21.16C591.127 21.52 591.407 21.88 591.647 22.12ZM603.807 12.92V25.24C603.807 25.28 603.647 26.84 602.607 27.52C602.247 27.72 601.887 27.84 601.487 27.84C601.007 27.84 600.567 27.68 600.167 27.4C599.887 27.2 599.647 26.92 599.487 26.56C598.687 24.96 599.007 22.6 599.007 20.84C599.047 18.56 599.047 16.28 599.047 14.04V13.52C599.007 12.92 599.007 12.24 599.167 11.64C599.287 11.2 599.527 10.8 599.887 10.36C600.327 9.84 601.167 9.56 602.047 9.68C602.807 9.8 603.407 10.2 603.647 10.72C603.967 11.4 603.847 12.72 603.807 12.92ZM598.407 35.64C598.407 33.8 594.967 33.64 591.247 33.64C587.527 33.64 584.167 33.8 584.167 35.64C584.167 37.28 587.527 37.6 591.247 37.6C594.967 37.6 598.407 37.8 598.407 35.64Z" fill="#48724B"/>
<g clip-path="url(#clip0_645_85262)">
<path d="M617.992 17.8C615.844 18.7579 616.169 21.2524 615.617 22.0307C615.065 22.809 612.611 23.5973 612.385 26.2415C612.148 28.8857 613.942 28.756 614.73 29.9035C615.509 31.051 614.996 33.8648 618.377 34.4236C621.757 34.9824 621.866 32.1785 623.216 31.8792C624.566 31.5898 627.739 31.6497 629.484 29.5144C631.189 27.4189 629.671 24.9543 629.385 24.0762C629.099 23.1882 629.622 20.8633 628.143 19.6958C626.665 18.5384 625.207 19.7058 623.975 19.0672C622.743 18.4286 620.161 16.8421 618.012 17.8" fill="#D1E8CF"/>
<path d="M619.206 34.8633C618.93 34.8633 618.635 34.8433 618.309 34.7834C615.638 34.3344 615.175 32.5583 614.84 31.2611C614.722 30.8121 614.613 30.3831 614.426 30.1136C614.219 29.8043 613.894 29.5848 613.559 29.3653C612.8 28.8564 611.844 28.2178 612.022 26.2122C612.209 24.1367 613.638 23.109 614.594 22.4205C614.919 22.181 615.205 21.9814 615.333 21.8118C615.461 21.6322 615.54 21.243 615.638 20.8339C615.875 19.7264 616.21 18.1997 617.856 17.4613C619.965 16.5234 622.35 17.7906 623.769 18.5489L624.134 18.7385C624.568 18.968 625.07 18.9082 625.642 18.8483C626.47 18.7585 627.406 18.6487 628.362 19.3971C629.535 20.3151 629.584 21.8417 629.623 22.9493C629.633 23.3584 629.653 23.7376 629.722 23.9471C629.761 24.0768 629.83 24.2465 629.919 24.4361C630.422 25.6135 631.348 27.7987 629.761 29.7345C628.273 31.5505 625.859 31.8698 624.262 32.0793C623.887 32.1292 623.552 32.1691 623.296 32.229C622.951 32.3088 622.685 32.6481 622.35 33.0871C621.759 33.8455 620.98 34.8533 619.226 34.8533L619.206 34.8633ZM618.142 18.1398C616.821 18.7285 616.555 19.9858 616.338 20.9936C616.23 21.5025 616.131 21.9415 615.914 22.2508C615.727 22.5103 615.392 22.7497 615.018 23.0291C614.131 23.6677 612.909 24.5458 612.751 26.282C612.613 27.8586 613.244 28.2777 613.963 28.7566C614.347 29.0061 614.742 29.2755 615.027 29.7045C615.284 30.0737 615.412 30.5627 615.54 31.0815C615.875 32.3687 616.23 33.7058 618.428 34.075C620.409 34.4043 621.098 33.5162 621.759 32.6581C622.153 32.1492 622.527 31.6702 623.129 31.5405C623.405 31.4807 623.759 31.4308 624.163 31.3809C625.652 31.1913 627.889 30.8919 629.2 29.2954C630.5 27.6989 629.722 25.853 629.249 24.7554C629.16 24.5358 629.081 24.3463 629.032 24.2066C628.933 23.8972 628.914 23.4782 628.904 22.9992C628.864 21.9814 628.825 20.7142 627.918 20.0058C627.199 19.437 626.479 19.5168 625.721 19.6066C625.09 19.6765 624.43 19.7463 623.799 19.427L623.424 19.2275C622.123 18.529 619.935 17.3615 618.142 18.1598V18.1398Z" fill="#7DA37E"/>
<path d="M620.821 26.6002C621.176 26.5104 621.541 26.7299 621.619 27.0792C621.708 27.4384 621.491 27.7976 621.137 27.8874C620.782 27.9772 620.417 27.7577 620.328 27.4085C620.24 27.0492 620.457 26.69 620.821 26.6002Z" fill="#C8A374"/>
<path d="M619.567 25.4733C619.922 25.3835 620.287 25.603 620.366 25.9522C620.454 26.3114 620.237 26.6706 619.883 26.7604C619.528 26.8503 619.163 26.6307 619.075 26.2815C618.986 25.9223 619.203 25.5631 619.567 25.4733Z" fill="#C8A374"/>
<path d="M622.743 26.2506C623.098 26.1608 623.463 26.3803 623.541 26.7296C623.63 27.0888 623.413 27.448 623.058 27.5378C622.704 27.6276 622.339 27.4081 622.25 27.0588C622.162 26.6996 622.378 26.3404 622.743 26.2506Z" fill="#C8A374"/>
<path d="M623.313 24.7155C623.668 24.6257 624.033 24.8452 624.112 25.1944C624.2 25.5536 623.984 25.9128 623.629 26.0026C623.274 26.0924 622.909 25.8729 622.821 25.5237C622.732 25.1645 622.949 24.8053 623.313 24.7155Z" fill="#C8A374"/>
<path d="M621.45 24.694C621.805 24.6042 622.17 24.8237 622.248 25.1729C622.337 25.5321 622.12 25.8914 621.765 25.9812C621.411 26.071 621.046 25.8514 620.957 25.5022C620.869 25.143 621.085 24.7838 621.45 24.694Z" fill="#C8A374"/>
<path d="M622.653 23.0182C623.008 22.9284 623.373 23.1479 623.452 23.4971C623.54 23.8564 623.323 24.2156 622.969 24.3054C622.614 24.3952 622.249 24.1757 622.16 23.8264C622.072 23.4672 622.289 23.108 622.653 23.0182Z" fill="#C8A374"/>
<path d="M620.931 22.7194C621.285 22.6296 621.65 22.8491 621.729 23.1983C621.818 23.5575 621.601 23.9167 621.246 24.0065C620.891 24.0963 620.526 23.8768 620.438 23.5276C620.349 23.1684 620.566 22.8092 620.931 22.7194Z" fill="#C8A374"/>
<path d="M619.708 23.8463C620.063 23.7565 620.427 23.976 620.506 24.3253C620.595 24.6845 620.378 25.0437 620.023 25.1335C619.668 25.2233 619.304 25.0038 619.215 24.6545C619.126 24.2953 619.343 23.9361 619.708 23.8463Z" fill="#C8A374"/>
<path d="M633.21 21.83C631.643 21.7202 629.967 22.5584 629.189 23.6061C628.41 24.6538 628.41 26.4599 627.819 26.9688C627.346 27.3679 626.222 27.5375 625.227 28.0963C624.084 28.7449 623.206 29.9422 622.96 31.6585C622.704 33.4745 623.778 34.8016 625.01 35.53C625.956 36.0888 626.745 36.0289 627.572 36.5179C628.39 37.0068 628.794 37.6454 629.504 38.4237C630.164 39.1521 631.239 40.0002 633.003 40.11C634.777 40.2098 635.989 39.5812 636.521 38.723C636.984 37.9747 637.339 37.1365 637.802 36.6176C638.236 36.1187 639.261 35.979 640.099 35.3604C641.153 34.5821 641.794 33.1452 641.616 31.2494C641.528 30.3514 640.946 29.3136 640.197 28.665C639.369 27.9566 637.95 27.5674 637.645 27.1683C637.329 26.7692 637.832 25.4321 636.965 24.1948C636.097 22.9575 634.678 21.9298 633.22 21.83" fill="#E9F4E5"/>
<path d="M633.367 40.5009C633.239 40.5009 633.111 40.5009 632.983 40.4909C631.485 40.4011 630.253 39.8124 629.238 38.6949C629.051 38.4853 628.883 38.2957 628.726 38.1062C628.292 37.5873 627.947 37.1882 627.385 36.8489C627.03 36.6394 626.666 36.5396 626.281 36.4298C625.848 36.3101 625.355 36.1704 624.823 35.8611C623.187 34.8932 622.359 33.3067 622.605 31.6203C622.852 29.9041 623.719 28.5471 625.049 27.7887C625.562 27.4994 626.094 27.3098 626.567 27.1501C626.991 27.0005 627.395 26.8608 627.582 26.7011C627.789 26.5315 627.927 25.9827 628.075 25.4439C628.252 24.7554 628.459 23.987 628.903 23.3884C629.81 22.171 631.623 21.3528 633.239 21.4725C634.708 21.5723 636.255 22.5402 637.26 23.997C637.862 24.8651 637.871 25.7831 637.881 26.3918C637.881 26.6013 637.881 26.8907 637.931 26.9605C638.019 27.0803 638.453 27.2798 638.798 27.4395C639.34 27.6989 639.961 27.9883 640.444 28.3974C641.272 29.1058 641.892 30.2434 641.981 31.2212C642.168 33.137 641.557 34.7535 640.316 35.6715C639.882 35.9908 639.409 36.1903 638.995 36.37C638.591 36.5396 638.246 36.6893 638.078 36.8788C637.812 37.1882 637.566 37.6272 637.31 38.1062C637.162 38.3855 637.004 38.6649 636.837 38.9443C636.226 39.9421 634.944 40.5109 633.377 40.5109L633.367 40.5009ZM632.944 22.191C631.653 22.191 630.194 22.8695 629.484 23.8274C629.13 24.3063 628.942 25.0048 628.775 25.6235C628.588 26.3219 628.43 26.9206 628.055 27.2499C627.76 27.4994 627.316 27.649 626.804 27.8286C626.36 27.9883 625.858 28.1579 625.404 28.4174C624.271 29.056 623.532 30.2234 623.325 31.7102C623.039 33.6958 624.537 34.8233 625.197 35.2125C625.641 35.4819 626.045 35.5917 626.478 35.7114C626.892 35.8212 627.316 35.9409 627.76 36.2003C628.42 36.5995 628.824 37.0684 629.277 37.6072C629.425 37.7869 629.593 37.9764 629.77 38.176C630.657 39.1539 631.722 39.6628 633.023 39.7426C634.491 39.8224 635.693 39.3734 636.216 38.5252C636.373 38.2658 636.531 37.9864 636.669 37.727C636.945 37.2181 637.211 36.7391 637.536 36.37C637.822 36.0507 638.256 35.8611 638.719 35.6715C639.113 35.5019 639.527 35.3322 639.892 35.0628C640.917 34.3045 641.419 32.9275 641.262 31.2811C641.183 30.4928 640.651 29.5349 639.971 28.9462C639.567 28.597 638.995 28.3275 638.492 28.0981C637.97 27.8586 637.566 27.659 637.359 27.3996C637.162 27.1501 637.162 26.8109 637.152 26.3818C637.152 25.8031 637.142 25.0846 636.669 24.4061C635.802 23.1489 634.432 22.2808 633.19 22.191C633.111 22.191 633.032 22.191 632.944 22.191Z" fill="#7DA37E"/>
<path d="M632.047 29.7836C631.948 30.1229 631.594 30.3124 631.268 30.2127C630.943 30.1129 630.756 29.7537 630.854 29.4244C630.953 29.0851 631.298 28.8955 631.633 28.9953C631.958 29.0951 632.145 29.4543 632.047 29.7836Z" fill="#C8A374"/>
<path d="M633.555 29.3051C633.456 29.6443 633.101 29.8339 632.776 29.7341C632.451 29.6344 632.264 29.2751 632.362 28.9459C632.461 28.6066 632.806 28.417 633.141 28.5168C633.466 28.6166 633.653 28.9758 633.555 29.3051Z" fill="#C8A374"/>
<path d="M631.395 31.5395C631.296 31.8787 630.941 32.0683 630.616 31.9685C630.291 31.8687 630.104 31.5095 630.202 31.1802C630.301 30.841 630.646 30.6514 630.981 30.7512C631.306 30.851 631.493 31.2102 631.395 31.5395Z" fill="#C8A374"/>
<path d="M632.352 32.7563C632.253 33.0955 631.898 33.2851 631.573 33.1853C631.248 33.0855 631.061 32.7263 631.159 32.397C631.258 32.0578 631.603 31.8682 631.938 31.968C632.263 32.0678 632.45 32.427 632.352 32.7563Z" fill="#C8A374"/>
<path d="M633.27 31.2309C633.171 31.5701 632.816 31.7597 632.491 31.6599C632.166 31.5601 631.979 31.2009 632.077 30.8716C632.176 30.5324 632.521 30.3428 632.856 30.4426C633.181 30.5424 633.368 30.9016 633.27 31.2309Z" fill="#C8A374"/>
<path d="M634.035 33.0258C633.937 33.365 633.582 33.5546 633.257 33.4548C632.931 33.3551 632.744 32.9958 632.843 32.6666C632.941 32.3273 633.286 32.1377 633.621 32.2375C633.947 32.3373 634.134 32.6965 634.035 33.0258Z" fill="#C8A374"/>
<path d="M635.109 31.7582C635.011 32.0975 634.656 32.287 634.331 32.1873C634.006 32.0875 633.818 31.7283 633.917 31.399C634.015 31.0597 634.36 30.8701 634.696 30.9699C635.021 31.0697 635.208 31.4289 635.109 31.7582Z" fill="#C8A374"/>
<path d="M634.797 30.2133C634.698 30.5525 634.344 30.7421 634.018 30.6423C633.693 30.5426 633.506 30.1833 633.604 29.8541C633.703 29.5148 634.048 29.3252 634.383 29.425C634.708 29.5248 634.895 29.884 634.797 30.2133Z" fill="#C8A374"/>
<path d="M634.903 9.26849C633.593 8.62989 631.868 8.7596 630.833 9.37825C629.798 10.0069 629.187 11.5635 628.497 11.793C627.955 11.9726 626.92 11.7231 625.876 11.8528C624.664 12.0025 623.501 12.7309 622.702 14.1179C621.855 15.5847 622.328 17.1014 623.136 18.169C623.757 18.9872 624.457 19.2068 624.999 19.9152C625.541 20.6237 625.659 21.3121 626.004 22.2401C626.319 23.0982 626.95 24.2058 628.438 24.9242C629.926 25.6327 631.198 25.5229 631.947 24.9642C632.597 24.4852 633.198 23.8865 633.77 23.5971C634.312 23.3277 635.238 23.5572 636.175 23.3277C637.347 23.0284 638.392 22.0206 638.885 20.3243C639.121 19.5161 638.974 18.4185 638.55 17.6102C638.077 16.7022 636.993 15.884 636.865 15.425C636.736 14.966 637.623 13.9981 637.308 12.6212C636.993 11.2442 636.116 9.86718 634.893 9.26849" fill="#E9F4E5"/>
<path d="M630.431 25.7514C629.771 25.7514 629.042 25.5718 628.303 25.2225C627.041 24.6139 626.193 23.6759 625.701 22.3588C625.612 22.1193 625.533 21.8898 625.464 21.6703C625.267 21.0716 625.109 20.6026 624.745 20.1237C624.508 19.8144 624.232 19.6048 623.937 19.3753C623.602 19.1159 623.227 18.8265 622.882 18.3675C621.808 16.9606 621.64 15.3042 622.429 13.9372C623.227 12.5502 624.449 11.6821 625.849 11.5025C626.391 11.4327 626.913 11.4626 627.376 11.4826C627.8 11.5025 628.194 11.5225 628.411 11.4526C628.647 11.3728 628.963 10.9537 629.259 10.5446C629.653 10.0158 630.096 9.42708 630.678 9.06787C631.88 8.33946 633.723 8.27959 635.063 8.93815C636.295 9.54682 637.291 10.9138 637.655 12.5203C637.872 13.4782 637.567 14.2665 637.37 14.7953C637.301 14.9749 637.202 15.2344 637.212 15.3042C637.251 15.4339 637.547 15.7632 637.793 16.0227C638.178 16.4318 638.611 16.9007 638.877 17.4296C639.341 18.3276 639.488 19.525 639.232 20.4031C638.73 22.1093 637.655 23.2967 636.276 23.646C635.793 23.7657 635.32 23.7757 634.896 23.7757C634.492 23.7757 634.147 23.7757 633.93 23.8954C633.595 24.0651 633.23 24.3644 632.846 24.6837C632.619 24.8733 632.393 25.0629 632.156 25.2325C631.683 25.5817 631.102 25.7514 630.441 25.7514H630.431ZM626.598 12.1411C626.381 12.1411 626.154 12.1411 625.927 12.1811C624.735 12.3307 623.69 13.0791 623 14.2865C622.074 15.8929 622.981 17.3897 623.404 17.9584C623.7 18.3476 624.006 18.587 624.331 18.8365C624.646 19.076 624.971 19.3354 625.257 19.7046C625.691 20.2734 625.868 20.8222 626.085 21.4508C626.154 21.6603 626.223 21.8798 626.312 22.1193C626.745 23.2668 627.485 24.085 628.579 24.6139C629.82 25.2026 631.003 25.2325 631.742 24.6937C631.969 24.5241 632.195 24.3444 632.402 24.1648C632.816 23.8256 633.211 23.4963 633.615 23.2967C633.969 23.1171 634.403 23.1171 634.866 23.1072C635.261 23.1072 635.674 23.1072 636.088 22.9974C637.232 22.708 638.138 21.7002 638.562 20.2235C638.769 19.515 638.641 18.5072 638.257 17.7589C638.03 17.3198 637.626 16.8808 637.271 16.5016C636.906 16.1125 636.621 15.8031 636.542 15.5138C636.463 15.2344 636.571 14.935 636.719 14.5658C636.916 14.0669 637.153 13.4483 636.975 12.6899C636.66 11.303 635.783 10.0757 634.748 9.56678C633.457 8.93815 631.86 9.14769 631.003 9.66656C630.53 9.95592 630.136 10.4947 629.781 10.9637C629.387 11.5025 629.042 11.9615 628.598 12.1112C628.263 12.221 627.829 12.201 627.327 12.1711C627.09 12.1611 626.844 12.1511 626.588 12.1511L626.598 12.1411Z" fill="#7DA37E"/>
<path d="M631.179 15.7044C630.972 15.9638 630.607 16.0037 630.361 15.8042C630.114 15.6046 630.075 15.2354 630.282 14.976C630.489 14.7166 630.854 14.6766 631.1 14.8762C631.346 15.0758 631.386 15.445 631.179 15.7044Z" fill="#C8A374"/>
<path d="M632.636 15.8146C632.429 16.0741 632.064 16.114 631.818 15.9144C631.571 15.7148 631.532 15.3457 631.739 15.0862C631.946 14.8368 632.311 14.7869 632.557 14.9964C632.803 15.196 632.843 15.5652 632.636 15.8246" fill="#C8A374"/>
<path d="M630.015 16.972C629.808 17.2314 629.443 17.2713 629.197 17.0718C628.95 16.8722 628.911 16.503 629.118 16.2436C629.325 15.9841 629.689 15.9442 629.936 16.1438C630.182 16.3434 630.222 16.7125 630.015 16.972Z" fill="#C8A374"/>
<path d="M630.409 18.3587C630.202 18.6081 629.838 18.658 629.591 18.4585C629.345 18.2589 629.305 17.8897 629.512 17.6303C629.719 17.3709 630.084 17.3309 630.33 17.5305C630.577 17.7301 630.616 18.0993 630.409 18.3587Z" fill="#C8A374"/>
<path d="M631.73 17.3704C631.523 17.6298 631.158 17.6698 630.912 17.4702C630.665 17.2706 630.626 16.9014 630.833 16.642C631.04 16.3826 631.404 16.3427 631.651 16.5422C631.897 16.7418 631.936 17.111 631.73 17.3704Z" fill="#C8A374"/>
<path d="M631.769 19.1869C631.562 19.4463 631.197 19.4862 630.951 19.2867C630.704 19.0871 630.665 18.7179 630.872 18.4585C631.079 18.1991 631.443 18.1592 631.69 18.3687C631.936 18.5683 631.976 18.9374 631.769 19.1969" fill="#C8A374"/>
<path d="M633.132 18.4682C632.925 18.7276 632.56 18.7675 632.314 18.5679C632.067 18.3684 632.028 17.9992 632.235 17.7397C632.442 17.4803 632.807 17.4404 633.053 17.6499C633.299 17.8495 633.339 18.2187 633.132 18.4781" fill="#C8A374"/>
<path d="M633.397 17.0307C633.191 17.2901 632.826 17.33 632.579 17.1304C632.333 16.9309 632.294 16.5617 632.501 16.3022C632.708 16.0428 633.072 16.0029 633.319 16.2124C633.565 16.412 633.604 16.7812 633.397 17.0406" fill="#C8A374"/>
</g>
<defs>
<clipPath id="clip0_645_85262">
<rect width="30" height="32" fill="white" transform="translate(612 8.5)"/>
</clipPath>
</defs>
</svg>
