<svg width="40" height="40" viewBox="0 0 40 40" fill="none" xmlns="http://www.w3.org/2000/svg">
<circle cx="20" cy="20" r="20" fill="#636463"/>
<path d="M13.6807 26.6806C10.0647 26.6806 8.37207 24.21 8.37207 19.8409V17.0322C8.37207 12.6631 10.0647 10.1925 13.6807 10.1925C16.194 10.1925 17.784 11.3888 18.502 13.5994H21.1179V8.86619H24.1697V31.3878H21.1179V23.3258H18.502C17.7583 25.5104 16.1683 26.6806 13.6807 26.6806ZM28.8372 8.37207V32.5581H25.7597V8.37207H28.8372ZM13.6807 13.0532C11.9112 13.0532 11.3469 14.5616 11.3469 17.3963V19.4768C11.3469 22.3116 11.9112 23.8199 13.6807 23.8199C15.4502 23.8199 16.0144 22.3116 16.0144 19.4768V17.3963C16.0144 14.5616 15.4502 13.0532 13.6807 13.0532ZM18.9893 19.8409C18.9893 20.101 18.9893 20.3611 18.9637 20.5951H21.1179V16.3301H18.9637C18.9893 16.5641 18.9893 16.7982 18.9893 17.0322V19.8409Z" fill="white"/>
</svg>
