<svg width="168" height="228" viewBox="0 0 168 228" fill="none" xmlns="http://www.w3.org/2000/svg">
<rect x="7.46094" width="152" height="50" rx="20" fill="#ECF3CD"/>
<path d="M166.924 97.2061H16.0625" stroke="#D8CCA5" stroke-width="0.693486" stroke-linecap="round"/>
<path d="M166.924 76.7085H16.0625" stroke="#D3D3D4" stroke-width="0.693486" stroke-linecap="round"/>
<path d="M166.924 117.104H16.0625" stroke="#D8CCA5" stroke-width="0.693486" stroke-linecap="round"/>
<path d="M166.924 137.003H16.0625" stroke="#D8CCA5" stroke-width="0.693486" stroke-linecap="round"/>
<path d="M85.6426 77.3062C97.099 78.1704 137.03 84.8625 154.736 135.408" stroke="#898989" stroke-width="1.58" stroke-linecap="round" stroke-linejoin="round" stroke-dasharray="0.16 3.15"/>
<path d="M155.267 139.995C156.996 139.995 158.392 138.599 158.392 136.871C158.392 135.142 156.996 133.746 155.267 133.746C153.539 133.746 152.143 135.142 152.143 136.871C152.143 138.599 153.539 139.995 155.267 139.995Z" fill="#898989"/>
<path d="M77.4207 77.3286H16.0391" stroke="#81CDE4" stroke-width="1.38697"/>
<path d="M89.1421 77.3289L73.9629 71.7891V82.8466L89.1421 77.3289Z" fill="#81CDE4"/>
<path d="M16.0625 77.3286V156.881H166.924" stroke="#B39E4F" stroke-width="0.693486" stroke-linecap="round"/>
<path d="M2.4116 75.8374C2.74783 75.4487 3.18914 75.1334 3.73553 74.8918C4.29242 74.6396 4.82829 74.5135 5.34316 74.5135C6.11019 74.5135 6.79317 74.6764 7.39209 75.0021C8.00152 75.3278 8.47435 75.7796 8.81059 76.3575C9.14682 76.9249 9.31494 77.5817 9.31494 78.3277C9.31494 79.0737 9.14682 79.7409 8.81059 80.3293C8.47435 80.9072 8.00152 81.3643 7.39209 81.7005C6.79317 82.0263 6.11019 82.1891 5.34316 82.1891C4.74424 82.1891 4.17684 82.063 3.64096 81.8109C3.11559 81.5587 2.66903 81.2067 2.30127 80.7549C1.93351 80.3031 1.68134 79.7935 1.54474 79.2261L2.99476 78.8951C3.12085 79.4415 3.39929 79.8933 3.83009 80.2505C4.2714 80.6078 4.77576 80.7864 5.34316 80.7864C5.81599 80.7864 6.24154 80.6813 6.6198 80.4712C6.99807 80.261 7.29227 79.9668 7.50242 79.5886C7.71257 79.2103 7.81764 78.79 7.81764 78.3277C7.81764 77.8548 7.71257 77.4398 7.50242 77.0826C7.29227 76.7148 6.99807 76.4311 6.6198 76.2315C6.24154 76.0213 5.81599 75.9162 5.34316 75.9162C5.02793 75.9162 4.70221 76.0003 4.36597 76.1684C4.02973 76.3365 3.74604 76.5519 3.51487 76.8146L2.4116 75.8374ZM2.01757 76.6097L2.39584 70.589H8.38504V71.8972H3.83009L3.51487 76.8146L2.01757 76.6097Z" fill="#231815"/>
<path d="M8.56659 97.4696H10.0954V98.7777H8.56659V101.82H7.06929V98.7777H2.12032L1.96271 97.4696L7.13233 90.3771H8.56659V97.4696ZM7.06929 97.4696V92.8989L3.75947 97.4696H7.06929Z" fill="#231815"/>
<path d="M7.60283 115.72C8.09668 116.014 8.49071 116.413 8.78491 116.918C9.08963 117.411 9.24198 117.905 9.24198 118.399C9.24198 119.04 9.07912 119.613 8.75339 120.117C8.42766 120.621 7.97585 121.015 7.39794 121.299C6.82004 121.583 6.15807 121.725 5.41205 121.725C4.67653 121.725 4.01982 121.583 3.44192 121.299C2.87452 121.005 2.42796 120.6 2.10223 120.086C1.7765 119.571 1.61363 118.988 1.61363 118.336H3.11093C3.11093 118.735 3.2055 119.093 3.39463 119.408C3.59427 119.713 3.86747 119.954 4.21421 120.133C4.57146 120.311 4.97599 120.401 5.42781 120.401C5.87963 120.401 6.28416 120.311 6.64141 120.133C6.99866 119.954 7.27711 119.713 7.47675 119.408C7.67639 119.093 7.77621 118.735 7.77621 118.336C7.77621 117.947 7.67639 117.606 7.47675 117.312C7.27711 117.007 6.99866 116.77 6.64141 116.602C6.29467 116.434 5.89539 116.35 5.44357 116.35H4.624V115.074H5.45933C5.87963 115.074 6.25264 114.995 6.57837 114.837C6.90409 114.68 7.15627 114.469 7.3349 114.207C7.51352 113.934 7.60283 113.618 7.60283 113.261C7.60283 112.715 7.40845 112.273 7.01968 111.937C6.64141 111.59 6.14231 111.417 5.52238 111.417C5.11259 111.417 4.75008 111.496 4.43486 111.653C4.13015 111.811 3.88848 112.032 3.70985 112.315C3.53123 112.599 3.44192 112.92 3.44192 113.277H1.94462C1.94462 112.657 2.09697 112.105 2.40169 111.622C2.7064 111.139 3.1267 110.766 3.66257 110.503C4.20895 110.23 4.82889 110.093 5.52238 110.093C6.20535 110.093 6.81478 110.23 7.35066 110.503C7.88653 110.766 8.30683 111.133 8.61154 111.606C8.91626 112.079 9.06861 112.615 9.06861 113.214C9.06861 113.655 8.93727 114.112 8.67459 114.585C8.4119 115.047 8.05465 115.426 7.60283 115.72Z" fill="#231815"/>
<path d="M1.91014 140.133C2.17282 139.881 2.41975 139.655 2.65091 139.455C2.88207 139.245 3.13425 139.014 3.40744 138.762C4.29006 137.963 4.99405 137.296 5.51942 136.76C6.0553 136.224 6.50711 135.678 6.87487 135.121C7.24263 134.554 7.42651 134.028 7.42651 133.545C7.42651 133.093 7.3372 132.694 7.15857 132.347C6.99045 132 6.74878 131.727 6.43356 131.527C6.11834 131.328 5.75584 131.228 5.34605 131.228C4.88372 131.228 4.44242 131.386 4.02212 131.701C3.61233 132.006 3.29711 132.394 3.07646 132.867L1.75253 132.3C2.05724 131.585 2.54583 131.002 3.21831 130.55C3.90129 130.098 4.61053 129.873 5.34605 129.873C6.05004 129.873 6.66998 130.03 7.20585 130.345C7.74173 130.65 8.16202 131.081 8.46674 131.638C8.77145 132.195 8.92381 132.83 8.92381 133.545C8.92381 134.238 8.70841 134.942 8.2776 135.657C7.8468 136.361 7.33194 137.018 6.73302 137.627C6.1341 138.226 5.35656 138.946 4.40039 139.786C3.854 140.259 3.36016 140.7 2.91885 141.11L1.91014 140.133ZM1.91014 140.133H9.11294V141.441H2.06775L1.91014 140.133Z" fill="#231815"/>
<path d="M6.99487 161.23L5.49757 161.214V151.426L3.57472 152.577L2.89699 151.348L5.51333 149.803H6.99487V161.23Z" fill="#231815"/>
<path d="M45.6736 205.367C45.6736 215.604 37.386 223.892 27.1483 223.892C16.9107 223.892 8.62305 215.604 8.62305 205.367C8.62305 195.129 16.9107 186.841 27.1483 186.841C37.386 186.841 45.6736 195.129 45.6736 205.367Z" fill="#DBCCBD"/>
<path d="M35.7233 198.231C35.6125 197.987 21.4305 194.353 21.4305 194.353C17.5526 196.192 12.9656 215.582 21.231 219.172C24.843 223.581 32.0892 220.811 33.1971 219.947C38.3603 215.958 37.7841 202.596 35.7233 198.231Z" fill="#6B4932"/>
<path d="M28.9431 213.233L25.0652 213.61C25.7079 216.734 24.8436 217.643 24.1124 217.909C23.0266 220.967 23.9129 222.939 25.3533 223.803C25.9516 223.87 26.5499 223.892 27.1704 223.892C27.8352 223.892 28.4999 223.847 29.1426 223.781C30.5386 222.895 31.3807 220.967 30.3835 217.909C28.5886 217.355 28.9431 214.718 28.9431 213.211" fill="#F2AC71"/>
<g style="mix-blend-mode:multiply" opacity="0.5">
<mask id="mask0_3860_33146" style="mask-type:luminance" maskUnits="userSpaceOnUse" x="24" y="217" width="7" height="2">
<path d="M30.3395 217.712H24.0684V218.598H30.3395V217.712Z" fill="white"/>
</mask>
<g mask="url(#mask0_3860_33146)">
<mask id="mask1_3860_33146" style="mask-type:luminance" maskUnits="userSpaceOnUse" x="24" y="217" width="7" height="2">
<path d="M30.3395 217.714H24.0684V218.6H30.3395V217.714Z" fill="white"/>
</mask>
<g mask="url(#mask1_3860_33146)">
<path d="M30.3395 217.913C29.5639 218.379 28.3008 218.6 27.0599 218.6C25.8854 218.6 24.7331 218.401 24.0684 218.046C24.0684 218.002 24.0905 217.958 24.1127 217.913C24.2013 217.891 24.2678 217.847 24.3564 217.803C25.5974 218.401 28.5002 218.445 29.9184 217.714C30.0292 217.803 30.1622 217.869 30.3173 217.913" fill="#EF9D78"/>
</g>
</g>
</g>
<g style="mix-blend-mode:multiply" opacity="0.7">
<mask id="mask2_3860_33146" style="mask-type:luminance" maskUnits="userSpaceOnUse" x="25" y="213" width="4" height="4">
<path d="M28.9443 213.235H25.0664V216.67H28.9443V213.235Z" fill="white"/>
</mask>
<g mask="url(#mask2_3860_33146)">
<mask id="mask3_3860_33146" style="mask-type:luminance" maskUnits="userSpaceOnUse" x="25" y="213" width="4" height="4">
<path d="M28.9443 213.235H25.0664V216.67H28.9443V213.235Z" fill="white"/>
</mask>
<g mask="url(#mask3_3860_33146)">
<path d="M25.155 216.67C25.3323 216.005 25.3545 215.052 25.0664 213.612L28.9443 213.235C28.9443 213.767 28.9 214.432 28.9221 215.097C27.6147 215.695 25.9085 216.36 25.155 216.648" fill="#EF9D78"/>
</g>
</g>
</g>
<path d="M19.0823 203.372C15.6032 201.733 16.4674 208.092 19.5033 208.602C19.6362 208.203 19.0823 203.372 19.0823 203.372Z" fill="#F2AC71"/>
<path d="M34.8378 203.239C38.1396 201.422 37.9845 207.56 34.306 208.358C34.1509 207.981 34.8378 203.239 34.8378 203.239Z" fill="#F2AC71"/>
<path d="M34.506 196.835C33.7526 191.539 18.662 196.613 18.662 196.613C18.4404 202.419 18.3961 208.424 19.5484 211.128C20.5234 213.455 24.7558 215.538 26.2848 215.604C28.1906 215.671 32.6446 213.078 33.5753 211.549C34.0185 210.84 34.9049 208.668 34.9049 204.17C34.9049 201.688 34.7719 198.696 34.506 196.835Z" fill="#F2AC71"/>
<g style="mix-blend-mode:multiply" opacity="0.4">
<mask id="mask4_3860_33146" style="mask-type:luminance" maskUnits="userSpaceOnUse" x="18" y="194" width="17" height="22">
<path d="M34.5043 194.418H18.5273V215.58H34.5043V194.418Z" fill="white"/>
</mask>
<g mask="url(#mask4_3860_33146)">
<mask id="mask5_3860_33146" style="mask-type:luminance" maskUnits="userSpaceOnUse" x="18" y="194" width="17" height="22">
<path d="M34.4821 194.417H18.5273V215.579H34.4821V194.417Z" fill="white"/>
</mask>
<g mask="url(#mask5_3860_33146)">
<path d="M19.9896 211.192C18.4828 208.223 19.5243 200.932 21.6073 197.143C22.5379 197.01 26.1499 201.375 34.504 202.35C34.4154 202.328 33.3518 195.88 33.7063 195.392C33.662 195.348 33.6177 195.326 33.5512 195.282C33.529 195.282 33.4847 195.237 33.4625 195.215C33.4625 195.215 33.4404 195.215 33.4182 195.193C29.8062 192.888 18.66 196.633 18.66 196.633C18.4385 202.439 18.3941 208.444 19.5464 211.148C20.5436 213.452 24.7539 215.557 26.2829 215.624C24.488 215.314 21.0089 213.209 19.9896 211.214" fill="#F2AC71"/>
</g>
</g>
</g>
<g style="mix-blend-mode:screen" opacity="0.3">
<mask id="mask6_3860_33146" style="mask-type:luminance" maskUnits="userSpaceOnUse" x="26" y="196" width="9" height="20">
<path d="M34.9043 196.193H26.5059V215.583H34.9043V196.193Z" fill="white"/>
</mask>
<g mask="url(#mask6_3860_33146)">
<mask id="mask7_3860_33146" style="mask-type:luminance" maskUnits="userSpaceOnUse" x="26" y="196" width="9" height="20">
<path d="M34.9043 196.194H26.5059V215.584H34.9043V196.194Z" fill="white"/>
</mask>
<g mask="url(#mask7_3860_33146)">
<path d="M33.243 196.195C34.5504 200.272 34.1737 209.801 33.1322 211.552C32.5561 212.527 28.3679 215.296 26.4844 215.585C28.5009 215.474 32.6669 213.014 33.5532 211.552C33.9964 210.842 34.8606 208.671 34.8828 204.172C34.8828 201.691 34.7498 198.699 34.4839 196.838C34.4839 196.771 34.4618 196.705 34.4396 196.638L33.2208 196.173L33.243 196.195Z" fill="#F2AC71"/>
</g>
</g>
</g>
<g style="mix-blend-mode:multiply" opacity="0.08">
<mask id="mask8_3860_33146" style="mask-type:luminance" maskUnits="userSpaceOnUse" x="28" y="204" width="7" height="7">
<path d="M34.1732 204.04H28.168V210.133H34.1732V204.04Z" fill="white"/>
</mask>
<g mask="url(#mask8_3860_33146)">
<mask id="mask9_3860_33146" style="mask-type:luminance" maskUnits="userSpaceOnUse" x="28" y="204" width="7" height="7">
<path d="M28.2346 206.523C27.9023 208.185 28.9659 209.759 30.6057 210.069C30.7608 210.091 30.9159 210.113 31.0711 210.113H31.2483C32.6444 210.069 33.8631 209.072 34.1512 207.631C34.4836 205.969 33.42 204.396 31.7802 204.086C31.6029 204.064 31.4034 204.042 31.2262 204.042C29.808 204.042 28.5227 205.061 28.2346 206.523Z" fill="white"/>
</mask>
<g mask="url(#mask9_3860_33146)">
<path d="M28.1413 202.814L26.7852 209.909L34.2289 211.332L35.5851 204.236L28.1413 202.814Z" fill="url(#paint0_radial_3860_33146)"/>
</g>
</g>
</g>
<g style="mix-blend-mode:multiply" opacity="0.08">
<mask id="mask10_3860_33146" style="mask-type:luminance" maskUnits="userSpaceOnUse" x="18" y="204" width="7" height="7">
<path d="M24.1563 204.013H18.7051V210.107H24.1563V204.013Z" fill="white"/>
</mask>
<g mask="url(#mask10_3860_33146)">
<mask id="mask11_3860_33146" style="mask-type:luminance" maskUnits="userSpaceOnUse" x="18" y="204" width="7" height="7">
<path d="M21.1426 204.012C20.1676 204.012 19.2591 204.522 18.7051 205.32C18.7937 206.782 18.9045 208.134 19.0596 209.286C19.4585 209.663 19.9682 209.951 20.5443 210.062C22.1619 210.372 23.7574 209.286 24.0677 207.624C24.112 207.447 24.112 207.27 24.1341 207.092V206.959C24.112 205.563 23.1148 204.345 21.7188 204.079C21.5415 204.057 21.3864 204.034 21.2091 204.034H21.1205L21.1426 204.012Z" fill="white"/>
</mask>
<g mask="url(#mask11_3860_33146)">
<path d="M18.7054 203.836L18.4883 210.348L24.1358 210.536L24.3529 204.025L18.7054 203.836Z" fill="url(#paint1_radial_3860_33146)"/>
</g>
</g>
</g>
<g style="mix-blend-mode:multiply" opacity="0.3">
<mask id="mask12_3860_33146" style="mask-type:luminance" maskUnits="userSpaceOnUse" x="23" y="211" width="6" height="2">
<path d="M28.8979 211.063H23.4023V212.747H28.8979V211.063Z" fill="white"/>
</mask>
<g mask="url(#mask12_3860_33146)">
<mask id="mask13_3860_33146" style="mask-type:luminance" maskUnits="userSpaceOnUse" x="23" y="211" width="6" height="2">
<path d="M23.4023 211.107C24.045 211.551 24.5546 212.703 26.0172 212.725H26.1944C27.9007 212.681 28.8092 211.196 28.8979 211.041C28.7649 211.063 23.4023 211.085 23.4023 211.085" fill="white"/>
</mask>
<g mask="url(#mask13_3860_33146)">
<path d="M28.8979 211.062H23.4023V212.747H28.8979V211.062Z" fill="url(#paint2_linear_3860_33146)"/>
</g>
</g>
</g>
<path d="M23.3809 211.15C24.3337 211.727 24.4002 212.458 25.907 212.524C27.6133 212.591 28.6326 211.328 28.7656 211.195L23.3809 211.15Z" fill="#D67751"/>
<path d="M25.9289 210.863C24.0453 210.863 23.8902 211.217 23.0703 210.951C23.4249 211.55 27.6795 211.971 29.1863 210.907C28.6766 211.262 27.5022 210.863 25.9067 210.863" fill="#D67751"/>
<g style="mix-blend-mode:multiply" opacity="0.7">
<mask id="mask14_3860_33146" style="mask-type:luminance" maskUnits="userSpaceOnUse" x="23" y="210" width="7" height="2">
<path d="M29.2327 210.862H23.0059V211.682H29.2327V210.862Z" fill="white"/>
</mask>
<g mask="url(#mask14_3860_33146)">
<mask id="mask15_3860_33146" style="mask-type:luminance" maskUnits="userSpaceOnUse" x="23" y="210" width="7" height="2">
<path d="M29.2105 210.861H23.0059V211.681H29.2105V210.861Z" fill="white"/>
</mask>
<g mask="url(#mask15_3860_33146)">
<path d="M29.2099 210.862C28.7224 211.195 27.8581 211.527 26.1075 211.527C24.6893 211.527 23.4706 211.084 23.0939 210.885C23.0495 210.885 23.0052 210.951 23.0274 210.951C24.0467 211.527 25.3984 211.66 26.0632 211.66C27.5701 211.705 29.3871 211.106 29.232 210.84" fill="#BC5C5C"/>
</g>
</g>
</g>
<g style="mix-blend-mode:multiply" opacity="0.3">
<mask id="mask16_3860_33146" style="mask-type:luminance" maskUnits="userSpaceOnUse" x="22" y="210" width="8" height="2">
<path d="M29.6299 210.441H22.6719V211.283H29.6299V210.441Z" fill="white"/>
</mask>
<g mask="url(#mask16_3860_33146)">
<mask id="mask17_3860_33146" style="mask-type:luminance" maskUnits="userSpaceOnUse" x="22" y="210" width="8" height="2">
<path d="M29.6299 210.441H22.6719V211.283H29.6299V210.441Z" fill="white"/>
</mask>
<g mask="url(#mask17_3860_33146)">
<g style="mix-blend-mode:multiply" opacity="0.3">
<mask id="mask18_3860_33146" style="mask-type:luminance" maskUnits="userSpaceOnUse" x="28" y="210" width="2" height="2">
<path d="M29.609 210.44H28.7227V211.282H29.609V210.44Z" fill="white"/>
</mask>
<g mask="url(#mask18_3860_33146)">
<mask id="mask19_3860_33146" style="mask-type:luminance" maskUnits="userSpaceOnUse" x="28" y="210" width="2" height="2">
<path d="M29.0348 210.44C29.0348 210.44 28.8797 210.463 28.8576 210.573C28.8576 210.662 28.7911 210.994 28.7246 211.083L28.8132 211.194C28.8132 211.194 29.0348 211.282 29.2564 211.282H29.3451C29.3451 211.282 29.478 211.282 29.5002 211.282C29.5667 211.238 29.611 211.15 29.611 211.039V210.95C29.611 210.817 29.5445 210.662 29.478 210.618C29.4115 210.551 29.19 210.44 29.0348 210.44Z" fill="white"/>
</mask>
<g mask="url(#mask19_3860_33146)">
<path d="M29.6233 210.419L28.7148 210.432L28.7271 211.296L29.6355 211.283L29.6233 210.419Z" fill="url(#paint3_linear_3860_33146)"/>
</g>
</g>
</g>
<g style="mix-blend-mode:multiply" opacity="0.3">
<mask id="mask20_3860_33146" style="mask-type:luminance" maskUnits="userSpaceOnUse" x="22" y="210" width="2" height="2">
<path d="M23.4475 210.462H22.6719V211.282H23.4475V210.462Z" fill="white"/>
</mask>
<g mask="url(#mask20_3860_33146)">
<mask id="mask21_3860_33146" style="mask-type:luminance" maskUnits="userSpaceOnUse" x="22" y="210" width="2" height="2">
<path d="M22.6932 210.728C22.6489 210.905 22.6932 211.193 22.9148 211.26C22.9813 211.26 23.4244 211.193 23.3801 211.083L23.4466 210.927C23.4466 210.927 23.225 210.639 23.2028 210.551C23.1807 210.462 23.1142 210.44 23.0477 210.44C22.9148 210.44 22.7375 210.573 22.6932 210.706" fill="white"/>
</mask>
<g mask="url(#mask21_3860_33146)">
<path d="M23.439 210.441L22.6191 210.452L22.631 211.294L23.4509 211.283L23.439 210.441Z" fill="url(#paint4_linear_3860_33146)"/>
</g>
</g>
</g>
</g>
</g>
</g>
<g style="mix-blend-mode:multiply" opacity="0.4">
<mask id="mask22_3860_33146" style="mask-type:luminance" maskUnits="userSpaceOnUse" x="24" y="205" width="3" height="5">
<path d="M26.8155 205.212H24.0898V209.622H26.8155V205.212Z" fill="white"/>
</mask>
<g mask="url(#mask22_3860_33146)">
<mask id="mask23_3860_33146" style="mask-type:luminance" maskUnits="userSpaceOnUse" x="24" y="205" width="3" height="5">
<path d="M26.8155 205.212H24.0898V209.622H26.8155V205.212Z" fill="white"/>
</mask>
<g mask="url(#mask23_3860_33146)">
<path d="M25.5517 205.321C25.4852 205.809 25.0198 207.05 24.7539 207.604C24.3772 208.423 23.934 208.889 24.1335 209.155C24.4659 209.598 25.3079 209.62 25.8176 209.554C26.2165 209.509 26.7261 209.31 26.7926 209.177C26.7926 209.133 26.8148 209.088 26.7926 209.066C26.7926 209.066 25.3301 209.288 24.8869 208.756C24.7096 208.534 25.5074 207.338 25.7289 205.166L25.5517 205.277V205.321Z" fill="#F2AC71"/>
</g>
</g>
</g>
<g style="mix-blend-mode:multiply" opacity="0.5">
<mask id="mask24_3860_33146" style="mask-type:luminance" maskUnits="userSpaceOnUse" x="24" y="205" width="3" height="5">
<path d="M26.8156 205.167H24.5996V209.289H26.8156V205.167Z" fill="white"/>
</mask>
<g mask="url(#mask24_3860_33146)">
<mask id="mask25_3860_33146" style="mask-type:luminance" maskUnits="userSpaceOnUse" x="24" y="205" width="3" height="5">
<path d="M26.8156 205.167H24.5996V209.289H26.8156V205.167Z" fill="white"/>
</mask>
<g mask="url(#mask25_3860_33146)">
<path d="M25.6619 205.322C25.6619 206.12 25.3517 206.785 25.0858 207.56C24.9972 207.826 24.5761 208.646 24.6204 208.757C24.7312 209.178 25.529 209.333 26.0165 209.289C26.2824 209.289 26.5705 209.178 26.8142 209.111C26.8142 209.067 26.8142 209.111 26.8142 209.067C26.8142 209.067 25.1966 209.333 24.9085 208.757C24.8199 208.602 25.7284 206.74 25.7506 205.167C25.7506 205.167 25.6841 205.278 25.6619 205.322Z" fill="#A05C37"/>
</g>
</g>
</g>
<g style="mix-blend-mode:screen" opacity="0.15">
<mask id="mask26_3860_33146" style="mask-type:luminance" maskUnits="userSpaceOnUse" x="25" y="205" width="2" height="4">
<path d="M26.8157 205.519H25.1094V208.932H26.8157V205.519Z" fill="white"/>
</mask>
<g mask="url(#mask26_3860_33146)">
<mask id="mask27_3860_33146" style="mask-type:luminance" maskUnits="userSpaceOnUse" x="25" y="205" width="2" height="4">
<path d="M26.8157 205.518H25.1094V208.93H26.8157V205.518Z" fill="white"/>
</mask>
<g mask="url(#mask27_3860_33146)">
<path d="M25.9746 205.52C25.9746 205.52 25.6201 207.448 25.1104 208.489C24.9775 208.755 25.9082 209.11 26.7281 208.777C26.994 208.667 26.5729 205.276 25.9746 205.52Z" fill="#F2AC71"/>
</g>
</g>
</g>
<g style="mix-blend-mode:multiply" opacity="0.4">
<mask id="mask28_3860_33146" style="mask-type:luminance" maskUnits="userSpaceOnUse" x="29" y="203" width="3" height="3">
<path d="M31.2693 203.685H29.0977V205.945H31.2693V203.685Z" fill="white"/>
</mask>
<g mask="url(#mask28_3860_33146)">
<mask id="mask29_3860_33146" style="mask-type:luminance" maskUnits="userSpaceOnUse" x="29" y="203" width="3" height="3">
<path d="M31.2693 203.686H29.0977V205.968H31.2693V203.686Z" fill="white"/>
</mask>
<g mask="url(#mask29_3860_33146)">
<path d="M31.27 204.86C31.2479 205.48 30.7382 205.968 30.1399 205.946C29.5416 205.923 29.0763 205.392 29.0984 204.771C29.1206 204.151 29.6302 203.663 30.2285 203.685C30.8268 203.685 31.2922 204.239 31.27 204.86Z" fill="#F2AC71"/>
</g>
</g>
</g>
<path d="M31.0038 205.012C31.0038 205.544 30.6049 205.965 30.1395 205.965C29.6742 205.965 29.3418 205.499 29.3418 204.968C29.3418 204.436 29.7407 204.015 30.206 204.015C30.6714 204.015 31.0259 204.48 31.0038 205.012Z" fill="#724B30"/>
<path d="M30.8047 204.569C30.8047 204.724 30.6939 204.857 30.5831 204.857C30.4723 204.857 30.3616 204.724 30.3837 204.547C30.3837 204.392 30.4945 204.259 30.6053 204.259C30.7161 204.259 30.8269 204.392 30.8047 204.547" fill="white"/>
<path d="M32.2676 202.819C31.8244 202.398 29.2539 201.844 28.3676 202.287C28.2125 202.553 28.2789 202.774 28.5448 203.085C29.3426 202.974 30.8937 202.819 32.2676 203.306C32.4227 202.952 32.2676 202.885 32.2676 202.841" fill="#895D3F"/>
<g style="mix-blend-mode:multiply" opacity="0.4">
<mask id="mask30_3860_33146" style="mask-type:luminance" maskUnits="userSpaceOnUse" x="20" y="203" width="4" height="4">
<path d="M23.1599 203.748H20.9883V206.03H23.1599V203.748Z" fill="white"/>
</mask>
<g mask="url(#mask30_3860_33146)">
<mask id="mask31_3860_33146" style="mask-type:luminance" maskUnits="userSpaceOnUse" x="20" y="203" width="4" height="4">
<path d="M23.1599 203.748H20.9883V206.03H23.1599V203.748Z" fill="white"/>
</mask>
<g mask="url(#mask31_3860_33146)">
<path d="M23.1607 204.922C23.1385 205.543 22.6288 206.03 22.0305 206.008C21.4322 205.986 20.9669 205.454 20.989 204.834C21.0112 204.213 21.5209 203.726 22.1192 203.748C22.7175 203.748 23.1828 204.302 23.1607 204.922Z" fill="#F2AC71"/>
</g>
</g>
</g>
<path d="M22.8934 205.078C22.8934 205.61 22.4724 206.031 22.0292 206.031C21.5638 206.031 21.2093 205.566 21.2315 205.034C21.2315 204.502 21.6303 204.081 22.0957 204.081C22.561 204.081 22.9156 204.546 22.8934 205.078Z" fill="#724B30"/>
<path d="M22.6719 204.635C22.6719 204.79 22.5611 204.923 22.4503 204.923C22.3395 204.923 22.2287 204.79 22.2509 204.613C22.2509 204.458 22.3617 204.325 22.4725 204.325C22.5833 204.325 22.6941 204.458 22.6719 204.613" fill="white"/>
<path d="M20.1241 202.729C20.4122 202.375 23.0713 201.865 23.6918 202.286C23.8026 202.552 23.8469 202.907 23.581 203.173C22.4287 202.907 20.7668 202.995 20.2571 203.173C20.102 203.018 20.1241 202.729 20.1241 202.729Z" fill="#895D3F"/>
<path d="M36.5432 195.084C36.2773 194.22 29.3858 190.874 26.7266 190.852C24.1561 190.852 21.9402 192.491 21.2311 192.868C21.2311 192.868 19.1481 193.156 18.5276 194.353C10.2179 210.618 17.885 220.855 20.2118 221.188C20.2118 221.188 22.4499 220.39 23.1368 219.903C19.5248 218.817 16.8214 205.3 21.2089 196.945C23.2698 196.724 25.4414 200.713 34.4824 202.33C34.6375 215.16 32.8869 218.772 30.804 219.903C31.0034 220.124 34.8813 220.988 34.8813 220.988C40.1109 217.288 41.3075 210.551 36.5211 195.062" fill="#895D3F"/>
<g style="mix-blend-mode:screen" opacity="0.2">
<mask id="mask32_3860_33146" style="mask-type:luminance" maskUnits="userSpaceOnUse" x="30" y="202" width="6" height="19">
<path d="M35.4132 202.331H30.8262V220.501H35.4132V202.331Z" fill="white"/>
</mask>
<g mask="url(#mask32_3860_33146)">
<mask id="mask33_3860_33146" style="mask-type:luminance" maskUnits="userSpaceOnUse" x="30" y="202" width="6" height="19">
<path d="M35.4132 202.331H30.8262V220.501H35.4132V202.331Z" fill="white"/>
</mask>
<g mask="url(#mask33_3860_33146)">
<path d="M34.5046 202.331C34.6598 215.161 32.9092 218.773 30.8262 219.903C30.9148 219.992 31.8455 220.258 32.8205 220.501C33.862 220.767 36.92 214.208 34.5268 202.331" fill="#895D3F"/>
</g>
</g>
</g>
<g style="mix-blend-mode:screen" opacity="0.2">
<mask id="mask34_3860_33146" style="mask-type:luminance" maskUnits="userSpaceOnUse" x="17" y="196" width="7" height="26">
<path d="M23.1594 196.946H17.2871V221.1H23.1594V196.946Z" fill="white"/>
</mask>
<g mask="url(#mask34_3860_33146)">
<mask id="mask35_3860_33146" style="mask-type:luminance" maskUnits="userSpaceOnUse" x="17" y="196" width="7" height="26">
<path d="M23.1594 196.946H17.2871V221.1H23.1594V196.946Z" fill="white"/>
</mask>
<g mask="url(#mask35_3860_33146)">
<path d="M20.4337 221.123C21.0098 220.902 22.6053 220.303 23.1593 219.904C19.5473 218.819 16.8217 205.301 21.2536 196.947L20.5445 197.878C14.6722 212.016 18.107 220.215 20.4559 221.123" fill="#895D3F"/>
</g>
</g>
</g>
<g style="mix-blend-mode:multiply" opacity="0.25">
<mask id="mask36_3860_33146" style="mask-type:luminance" maskUnits="userSpaceOnUse" x="21" y="195" width="14" height="8">
<path d="M34.5059 195.839H21.2324V202.332H34.5059V195.839Z" fill="white"/>
</mask>
<g mask="url(#mask36_3860_33146)">
<mask id="mask37_3860_33146" style="mask-type:luminance" maskUnits="userSpaceOnUse" x="21" y="195" width="14" height="8">
<path d="M34.5059 195.84H21.2324V202.333H34.5059V195.84Z" fill="white"/>
</mask>
<g mask="url(#mask37_3860_33146)">
<path d="M33.1099 201.067C26.9496 200.004 22.0745 195.838 21.2324 196.968C23.2932 196.746 25.4649 200.735 34.5059 202.353C34.4394 199.184 34.1957 197.389 33.5087 195.86C33.8855 198.364 33.8855 201.089 33.1099 201.089" fill="#895D3F"/>
</g>
</g>
</g>
<path d="M34.7715 219.327C34.7715 219.327 30.2731 217.886 30.2288 217.82C30.2288 217.82 26.7276 219.039 24.2014 217.82C24.1571 217.886 20.1019 219.172 20.0576 219.238C19.4815 219.482 18.994 220.39 18.5508 221.764C21.1213 223.116 24.0463 223.892 27.1486 223.892C30.4282 223.892 33.5084 223.049 36.1675 221.543C35.7687 220.523 35.3033 219.748 34.7493 219.327" fill="#C1BD3D"/>
<defs>
<radialGradient id="paint0_radial_3860_33146" cx="0" cy="0" r="1" gradientUnits="userSpaceOnUse" gradientTransform="translate(32.2836 206.914) rotate(10.82) scale(2.99152 3.058)">
<stop stop-color="#DE4031"/>
<stop offset="0.11" stop-color="#DE4435"/>
<stop offset="0.25" stop-color="#E15144"/>
<stop offset="0.39" stop-color="#E4675B"/>
<stop offset="0.55" stop-color="#EA867D"/>
<stop offset="0.71" stop-color="#F1ADA7"/>
<stop offset="0.87" stop-color="#F9DDDA"/>
<stop offset="0.97" stop-color="white"/>
<stop offset="1" stop-color="white"/>
</radialGradient>
<radialGradient id="paint1_radial_3860_33146" cx="0" cy="0" r="1" gradientUnits="userSpaceOnUse" gradientTransform="translate(21.0809 207.146) rotate(1.91) scale(2.90289 2.90288)">
<stop stop-color="#DE4031"/>
<stop offset="0.11" stop-color="#DE4435"/>
<stop offset="0.25" stop-color="#E15144"/>
<stop offset="0.39" stop-color="#E4675B"/>
<stop offset="0.55" stop-color="#EA867D"/>
<stop offset="0.71" stop-color="#F1ADA7"/>
<stop offset="0.87" stop-color="#F9DDDA"/>
<stop offset="0.97" stop-color="white"/>
<stop offset="1" stop-color="white"/>
</radialGradient>
<linearGradient id="paint2_linear_3860_33146" x1="24.6264" y1="211.334" x2="30.122" y2="211.334" gradientUnits="userSpaceOnUse">
<stop stop-color="#F2AC71"/>
<stop offset="0.36" stop-color="#EDA56A"/>
<stop offset="0.85" stop-color="#E09459"/>
<stop offset="1" stop-color="#DB8E53"/>
</linearGradient>
<linearGradient id="paint3_linear_3860_33146" x1="28.8549" y1="204.349" x2="29.7412" y2="204.336" gradientUnits="userSpaceOnUse">
<stop stop-color="#F2AC71"/>
<stop offset="0.36" stop-color="#EDA56A"/>
<stop offset="0.85" stop-color="#E09459"/>
<stop offset="1" stop-color="#DB8E53"/>
</linearGradient>
<linearGradient id="paint4_linear_3860_33146" x1="22.4476" y1="206.862" x2="23.2231" y2="206.851" gradientUnits="userSpaceOnUse">
<stop stop-color="#F2AC71"/>
<stop offset="0.36" stop-color="#EDA56A"/>
<stop offset="0.85" stop-color="#E09459"/>
<stop offset="1" stop-color="#DB8E53"/>
</linearGradient>
</defs>
</svg>
