<svg width="211" height="228" viewBox="0 0 211 228" fill="none" xmlns="http://www.w3.org/2000/svg">
<path d="M75.6006 5.52782V22.5281H73.614V5.52782H75.6006ZM70.7679 11.4684V13.1684H67.769V11.4684H70.7679ZM72.1432 5.85254V21.7259H70.1949V5.85254H72.1432ZM65.8588 8.25933V10.1695C65.8588 11.4556 65.7188 12.6972 65.4386 13.8943C65.1712 15.0785 64.751 16.1419 64.1779 17.0842C63.6049 18.0138 62.8981 18.746 62.0576 19.2809L60.797 17.7337C61.5737 17.237 62.2232 16.5939 62.7453 15.8044C63.2674 15.0021 63.6494 14.1235 63.8914 13.1684C64.1461 12.2006 64.2734 11.201 64.2734 10.1695V8.25933H65.8588ZM66.3173 8.25933V10.1695C66.3173 11.1627 66.4382 12.1178 66.6802 13.0347C66.9222 13.9516 67.2914 14.7857 67.7881 15.537C68.2975 16.2883 68.9405 16.8932 69.7173 17.3516L68.4757 18.8606C67.6353 18.3513 66.9349 17.6572 66.3746 16.7786C65.8143 15.8872 65.4004 14.8748 65.133 13.7414C64.8656 12.6081 64.7319 11.4174 64.7319 10.1695V8.25933H66.3173ZM69.0106 7.34246V9.06159H61.3509V7.34246H69.0106ZM85.3944 13.9454C85.9997 14.2984 86.4851 14.7775 86.8508 15.3828C87.2164 15.9754 87.3992 16.568 87.3992 17.1606C87.3992 17.9297 87.1975 18.6232 86.794 19.2411C86.4031 19.8463 85.8547 20.3191 85.1486 20.6596C84.4425 21 83.6355 21.1702 82.7277 21.1702C81.8324 21.1702 81.0318 20.9937 80.3257 20.6406C79.6196 20.2876 79.0648 19.8022 78.6613 19.1843C78.2704 18.5539 78.075 17.8415 78.075 17.0471H80.0798C80.0798 17.501 80.1933 17.9045 80.4202 18.2576C80.6472 18.6106 80.9561 18.888 81.347 19.0898C81.7505 19.2915 82.2107 19.3924 82.7277 19.3924C83.2572 19.3924 83.7238 19.2915 84.1272 19.0898C84.5433 18.888 84.8649 18.6106 85.0918 18.2576C85.3314 17.9045 85.4512 17.501 85.4512 17.0471C85.4512 16.6058 85.3377 16.2149 85.1107 15.8745C84.8838 15.5341 84.5622 15.2693 84.1462 15.0801C83.7427 14.8784 83.2825 14.7775 82.7655 14.7775H81.782V13.0943H82.7844C83.2635 13.0943 83.6859 13.006 84.0516 12.8295C84.4299 12.6529 84.7199 12.4134 84.9216 12.1108C85.136 11.7955 85.2431 11.4362 85.2431 11.0327C85.2431 10.4149 85.0225 9.91683 84.5812 9.53856C84.1399 9.14769 83.5662 8.95225 82.8601 8.95225C82.3935 8.95225 81.9837 9.04051 81.6307 9.21704C81.2776 9.39356 81.0003 9.64574 80.7985 9.97357C80.5968 10.2888 80.4959 10.6481 80.4959 11.0516H78.4911C78.4911 10.2951 78.6739 9.62682 79.0396 9.04682C79.4178 8.4542 79.9348 7.99398 80.5905 7.66615C81.2587 7.33832 82.0153 7.1744 82.8601 7.1744C83.6922 7.1744 84.4362 7.33832 85.0918 7.66615C85.7475 7.98137 86.2581 8.42268 86.6238 8.99008C87.0021 9.55747 87.1912 10.2005 87.1912 10.9192C87.1912 11.4614 87.0273 12.0162 86.6994 12.5836C86.3716 13.1384 85.9366 13.5923 85.3944 13.9454ZM94.7153 6.607V8.17681C94.7153 9.29899 94.5324 10.3455 94.1668 11.3164C93.8011 12.2873 93.259 13.1321 92.5402 13.8508C91.8215 14.5695 90.9515 15.1054 89.9302 15.4584L88.8522 13.7751C89.7474 13.4851 90.5039 13.0564 91.1218 12.489C91.7396 11.9216 92.2061 11.266 92.5213 10.5221C92.8366 9.77813 92.9942 8.99638 92.9942 8.17681V6.607H94.7153ZM95.0746 6.607V8.10115C95.0746 8.8829 95.2196 9.62052 95.5096 10.314C95.8122 10.9949 96.2536 11.6001 96.8336 12.1297C97.4136 12.6592 98.126 13.0564 98.9708 13.3212L97.8738 14.9478C96.9029 14.6073 96.0833 14.103 95.4151 13.4347C94.7468 12.7664 94.2424 11.9784 93.902 11.0705C93.5616 10.1627 93.3913 9.1729 93.3913 8.10115V6.607H95.0746ZM102.924 5.69917V15.5908H100.843V5.69917H102.924ZM97.3064 16.0447C99.0716 16.0447 100.459 16.3284 101.467 16.8958C102.489 17.4632 102.999 18.2576 102.999 19.2789C102.999 20.3002 102.495 21.0946 101.486 21.662C100.478 22.2294 99.0842 22.5131 97.3064 22.5131C95.5285 22.5131 94.129 22.2294 93.1076 21.662C92.0863 21.0946 91.5757 20.3002 91.5757 19.2789C91.5757 18.2576 92.0863 17.4632 93.1076 16.8958C94.129 16.3284 95.5285 16.0447 97.3064 16.0447ZM97.3064 17.6524C96.5246 17.6524 95.8627 17.7154 95.3205 17.8415C94.7783 17.9676 94.3685 18.1504 94.0911 18.39C93.8137 18.6295 93.675 18.9258 93.675 19.2789C93.675 19.6319 93.8137 19.9282 94.0911 20.1678C94.3685 20.4074 94.7783 20.5902 95.3205 20.7163C95.8627 20.8424 96.5246 20.9054 97.3064 20.9054C98.0755 20.9054 98.7312 20.8424 99.2734 20.7163C99.8156 20.5902 100.225 20.4074 100.503 20.1678C100.793 19.9282 100.938 19.6319 100.938 19.2789C100.938 18.9258 100.793 18.6295 100.503 18.39C100.225 18.1504 99.8156 17.9676 99.2734 17.8415C98.7312 17.7154 98.0755 17.6524 97.3064 17.6524ZM101.203 8.93334V10.6544H97.5523V8.93334H101.203ZM112.702 13.0186H117.317V15.0234H112.702V19.6193H110.716V15.0234H106.102V13.0186H110.716V8.40377H112.702V13.0186ZM131.419 8.51724V10.1816H127.258V8.51724H131.419ZM131.324 12.0162V13.6806H127.126V12.0162H131.324ZM133.178 5.68025V15.5341H131.097V5.68025H133.178ZM127.901 6.87179C127.901 8.35963 127.605 9.68356 127.012 10.8436C126.42 12.0036 125.55 12.9934 124.402 13.813C123.255 14.6325 121.843 15.2819 120.166 15.761L119.352 14.1156C120.752 13.7373 121.925 13.2456 122.87 12.6403C123.816 12.0225 124.522 11.3164 124.988 10.5221C125.455 9.71508 125.688 8.83247 125.688 7.87419V6.87179H127.901ZM127.145 6.87179V8.53616H120.241V6.87179H127.145ZM127.636 15.7421C128.771 15.7421 129.761 15.8808 130.606 16.1582C131.451 16.423 132.106 16.8076 132.573 17.3119C133.039 17.8163 133.272 18.4089 133.272 19.0898C133.272 19.7706 133.039 20.3633 132.573 20.8676C132.106 21.372 131.444 21.7565 130.587 22.0213C129.742 22.2987 128.759 22.4374 127.636 22.4374C126.502 22.4374 125.505 22.2987 124.648 22.0213C123.803 21.7565 123.148 21.372 122.681 20.8676C122.227 20.3633 122 19.7706 122 19.0898C122 18.4089 122.227 17.8163 122.681 17.3119C123.148 16.8076 123.803 16.423 124.648 16.1582C125.505 15.8808 126.502 15.7421 127.636 15.7421ZM127.636 17.3497C126.892 17.3497 126.249 17.4191 125.707 17.5578C125.178 17.6839 124.768 17.8793 124.478 18.1441C124.2 18.3963 124.062 18.7115 124.062 19.0898C124.062 19.4554 124.207 19.7706 124.497 20.0354C124.787 20.3002 125.197 20.502 125.726 20.6406C126.268 20.7667 126.905 20.8298 127.636 20.8298C128.38 20.8298 129.017 20.7667 129.547 20.6406C130.089 20.502 130.505 20.3002 130.795 20.0354C131.085 19.7706 131.23 19.4554 131.23 19.0898C131.23 18.535 130.915 18.1063 130.284 17.8037C129.654 17.501 128.771 17.3497 127.636 17.3497ZM141.481 6.607V8.17681C141.481 9.29899 141.298 10.3455 140.933 11.3164C140.567 12.2873 140.025 13.1321 139.306 13.8508C138.588 14.5695 137.718 15.1054 136.696 15.4584L135.618 13.7751C136.513 13.4851 137.27 13.0564 137.888 12.489C138.506 11.9216 138.972 11.266 139.287 10.5221C139.603 9.77813 139.76 8.99638 139.76 8.17681V6.607H141.481ZM141.841 6.607V8.10115C141.841 8.8829 141.986 9.62052 142.276 10.314C142.578 10.9949 143.02 11.6001 143.6 12.1297C144.18 12.6592 144.892 13.0564 145.737 13.3212L144.64 14.9478C143.669 14.6073 142.849 14.103 142.181 13.4347C141.513 12.7664 141.008 11.9784 140.668 11.0705C140.328 10.1627 140.157 9.1729 140.157 8.10115V6.607H141.841ZM149.69 5.69917V15.5908H147.609V5.69917H149.69ZM144.072 16.0447C145.838 16.0447 147.225 16.3284 148.233 16.8958C149.255 17.4632 149.765 18.2576 149.765 19.2789C149.765 20.3002 149.261 21.0946 148.252 21.662C147.244 22.2294 145.85 22.5131 144.072 22.5131C142.295 22.5131 140.895 22.2294 139.874 21.662C138.852 21.0946 138.342 20.3002 138.342 19.2789C138.342 18.2576 138.852 17.4632 139.874 16.8958C140.895 16.3284 142.295 16.0447 144.072 16.0447ZM144.072 17.6524C143.291 17.6524 142.629 17.7154 142.087 17.8415C141.544 17.9676 141.135 18.1504 140.857 18.39C140.58 18.6295 140.441 18.9258 140.441 19.2789C140.441 19.6319 140.58 19.9282 140.857 20.1678C141.135 20.4074 141.544 20.5902 142.087 20.7163C142.629 20.8424 143.291 20.9054 144.072 20.9054C144.842 20.9054 145.497 20.8424 146.039 20.7163C146.582 20.5902 146.991 20.4074 147.269 20.1678C147.559 19.9282 147.704 19.6319 147.704 19.2789C147.704 18.9258 147.559 18.6295 147.269 18.39C146.991 18.1504 146.582 17.9676 146.039 17.8415C145.497 17.7154 144.842 17.6524 144.072 17.6524ZM147.969 8.93334V10.6544H144.318V8.93334H147.969Z" fill="#231815"/>
<rect x="27.8008" width="156" height="50" rx="20" fill="#ECF3CD"/>
<path d="M25.3315 75.8374C25.6678 75.4487 26.1091 75.1334 26.6554 74.8918C27.2123 74.6396 27.7482 74.5135 28.2631 74.5135C29.0301 74.5135 29.7131 74.6764 30.312 75.0021C30.9214 75.3278 31.3943 75.7796 31.7305 76.3575C32.0667 76.9249 32.2349 77.5817 32.2349 78.3277C32.2349 79.0737 32.0667 79.7409 31.7305 80.3293C31.3943 80.9072 30.9214 81.3643 30.312 81.7005C29.7131 82.0263 29.0301 82.1891 28.2631 82.1891C27.6642 82.1891 27.0968 82.063 26.5609 81.8109C26.0355 81.5587 25.589 81.2067 25.2212 80.7549C24.8534 80.3031 24.6013 79.7935 24.4647 79.2261L25.9147 78.8951C26.0408 79.4415 26.3192 79.8933 26.75 80.2505C27.1913 80.6078 27.6957 80.7864 28.2631 80.7864C28.7359 80.7864 29.1615 80.6813 29.5397 80.4712C29.918 80.261 30.2122 79.9668 30.4223 79.5886C30.6325 79.2103 30.7376 78.79 30.7376 78.3277C30.7376 77.8548 30.6325 77.4398 30.4223 77.0826C30.2122 76.7148 29.918 76.4311 29.5397 76.2315C29.1615 76.0213 28.7359 75.9162 28.2631 75.9162C27.9479 75.9162 27.6221 76.0003 27.2859 76.1684C26.9497 76.3365 26.666 76.5519 26.4348 76.8146L25.3315 75.8374ZM24.9375 76.6097L25.3158 70.589H31.305V71.8972H26.75L26.4348 76.8146L24.9375 76.6097Z" fill="#231815"/>
<path d="M31.4865 97.4696H33.0153V98.7777H31.4865V101.82H29.9892V98.7777H25.0402L24.8826 97.4696L30.0523 90.3771H31.4865V97.4696ZM29.9892 97.4696V92.8989L26.6794 97.4696H29.9892Z" fill="#231815"/>
<path d="M30.5228 115.72C31.0166 116.014 31.4106 116.413 31.7048 116.918C32.0095 117.411 32.1619 117.905 32.1619 118.399C32.1619 119.04 31.999 119.613 31.6733 120.117C31.3476 120.621 30.8958 121.015 30.3179 121.299C29.74 121.583 29.078 121.725 28.332 121.725C27.5965 121.725 26.9397 121.583 26.3618 121.299C25.7944 121.005 25.3479 120.6 25.0221 120.086C24.6964 119.571 24.5336 118.988 24.5336 118.336H26.0309C26.0309 118.735 26.1254 119.093 26.3146 119.408C26.5142 119.713 26.7874 119.954 27.1341 120.133C27.4914 120.311 27.8959 120.401 28.3477 120.401C28.7995 120.401 29.2041 120.311 29.5613 120.133C29.9186 119.954 30.197 119.713 30.3967 119.408C30.5963 119.093 30.6961 118.735 30.6961 118.336C30.6961 117.947 30.5963 117.606 30.3967 117.312C30.197 117.007 29.9186 116.77 29.5613 116.602C29.2146 116.434 28.8153 116.35 28.3635 116.35H27.5439V115.074H28.3793C28.7995 115.074 29.1726 114.995 29.4983 114.837C29.824 114.68 30.0762 114.469 30.2548 114.207C30.4334 113.934 30.5228 113.618 30.5228 113.261C30.5228 112.715 30.3284 112.273 29.9396 111.937C29.5613 111.59 29.0622 111.417 28.4423 111.417C28.0325 111.417 27.67 111.496 27.3548 111.653C27.0501 111.811 26.8084 112.032 26.6298 112.315C26.4512 112.599 26.3618 112.92 26.3618 113.277H24.8645C24.8645 112.657 25.0169 112.105 25.3216 111.622C25.6263 111.139 26.0466 110.766 26.5825 110.503C27.1289 110.23 27.7488 110.093 28.4423 110.093C29.1253 110.093 29.7347 110.23 30.2706 110.503C30.8065 110.766 31.2268 111.133 31.5315 111.606C31.8362 112.079 31.9885 112.615 31.9885 113.214C31.9885 113.655 31.8572 114.112 31.5945 114.585C31.3318 115.047 30.9746 115.426 30.5228 115.72Z" fill="#231815"/>
<path d="M24.8301 140.133C25.0927 139.881 25.3397 139.655 25.5708 139.455C25.802 139.245 26.0542 139.014 26.3274 138.762C27.21 137.963 27.914 137.296 28.4393 136.76C28.9752 136.224 29.427 135.678 29.7948 135.121C30.1626 134.554 30.3464 134.028 30.3464 133.545C30.3464 133.093 30.2571 132.694 30.0785 132.347C29.9104 132 29.6687 131.727 29.3535 131.527C29.0383 131.328 28.6758 131.228 28.266 131.228C27.8036 131.228 27.3623 131.386 26.942 131.701C26.5323 132.006 26.217 132.394 25.9964 132.867L24.6725 132.3C24.9772 131.585 25.4658 131.002 26.1382 130.55C26.8212 130.098 27.5305 129.873 28.266 129.873C28.97 129.873 29.5899 130.03 30.1258 130.345C30.6617 130.65 31.0819 131.081 31.3867 131.638C31.6914 132.195 31.8437 132.83 31.8437 133.545C31.8437 134.238 31.6283 134.942 31.1975 135.657C30.7667 136.361 30.2519 137.018 29.6529 137.627C29.054 138.226 28.2765 138.946 27.3203 139.786C26.7739 140.259 26.2801 140.7 25.8388 141.11L24.8301 140.133ZM24.8301 140.133H32.0329V141.441H24.9877L24.8301 140.133Z" fill="#231815"/>
<path d="M29.9148 161.23L28.4175 161.214V151.426L26.4946 152.577L25.8169 151.348L28.4332 149.803H29.9148V161.23Z" fill="#231815"/>
<path d="M188.682 76.5835H37.8203" stroke="#D8CCA5" stroke-width="0.693486" stroke-linecap="round"/>
<path d="M188.682 96.46H37.8203" stroke="#D8CCA5" stroke-width="0.693486" stroke-linecap="round"/>
<path d="M188.682 116.361H37.8203" stroke="#D8CCA5" stroke-width="0.693486" stroke-linecap="round"/>
<path d="M188.682 136.259H37.8203" stroke="#D8CCA5" stroke-width="0.693486" stroke-linecap="round"/>
<path d="M37.8203 76.5835V156.136H188.682" stroke="#B39E4F" stroke-width="0.693486" stroke-linecap="round"/>
<path d="M163.153 100.316C164.837 100.316 166.189 98.9646 166.189 97.2805C166.189 95.5964 164.837 94.2446 163.153 94.2446C161.469 94.2446 160.117 95.5964 160.117 97.2805C160.117 98.9646 161.469 100.316 163.153 100.316Z" fill="#898989"/>
<path d="M38.6621 135.684C38.6621 135.684 51.5367 154.807 80.3218 154.807C81.6293 154.807 86.8146 154.984 88.1885 154.807" stroke="#CDA6CB" stroke-width="1.57611"/>
<path d="M147.156 112.393C142.303 122.077 127.079 146.098 93.375 152.302" stroke="#CDA6CB" stroke-width="1.57611" stroke-linecap="round" stroke-linejoin="round" stroke-dasharray="0.16 3.15"/>
<path d="M153.116 96.9258L142.502 109.623L153.139 113.479L153.116 96.9258Z" fill="#CDA6CB"/>
<path d="M68.9392 205.365C68.9392 215.603 60.6516 223.89 50.414 223.89C40.1763 223.89 31.8887 215.603 31.8887 205.365C31.8887 195.127 40.1763 186.84 50.414 186.84C60.6516 186.84 68.9392 195.127 68.9392 205.365Z" fill="#BBE1F2"/>
<path d="M53.4285 212.656L47.9551 212.722C48.6864 215.958 47.4011 216.822 46.3818 217.021C41.684 225.42 58.5473 226.129 55.0461 217.088C52.5421 216.689 53.3399 214.185 53.4285 212.656Z" fill="#F2AC71"/>
<g style="mix-blend-mode:multiply" opacity="0.7">
<mask id="mask0_3860_33680" style="mask-type:luminance" maskUnits="userSpaceOnUse" x="47" y="212" width="7" height="5">
<path d="M53.4269 212.655H47.6211V216.311H53.4269V212.655Z" fill="white"/>
</mask>
<g mask="url(#mask0_3860_33680)">
<mask id="mask1_3860_33680" style="mask-type:luminance" maskUnits="userSpaceOnUse" x="47" y="212" width="7" height="5">
<path d="M53.4269 212.654H47.6211V216.31H53.4269V212.654Z" fill="white"/>
</mask>
<g mask="url(#mask1_3860_33680)">
<path d="M47.6211 216.31C48.1308 215.69 48.3967 214.626 47.9535 212.72L53.4269 212.654C53.3825 213.363 53.2053 214.249 53.2496 215.069C51.7871 215.69 48.7734 216.266 47.6211 216.332" fill="#EF9D78"/>
</g>
</g>
</g>
<path d="M63.6218 206.008C63.0457 205.254 62.5803 204.479 62.3587 203.57C62.0928 202.462 61.428 194.197 57.1069 193.576C52.0989 187.682 40.8641 192.092 40.3322 198.452C40.155 200.712 39.9555 202.13 39.1135 203.149C33.773 209.531 41.1743 214.318 44.0107 212.434C44.8528 211.88 49.8829 210.595 56.7745 212.988C62.0042 214.805 65.2173 208.157 63.6218 206.008Z" fill="white"/>
<g style="mix-blend-mode:multiply" opacity="0.5">
<mask id="mask2_3860_33680" style="mask-type:luminance" maskUnits="userSpaceOnUse" x="37" y="191" width="28" height="23">
<path d="M64.0414 191.384H37.2285V213.277H64.0414V191.384Z" fill="white"/>
</mask>
<g mask="url(#mask2_3860_33680)">
<mask id="mask3_3860_33680" style="mask-type:luminance" maskUnits="userSpaceOnUse" x="37" y="191" width="28" height="23">
<path d="M64.0414 191.385H37.2285V213.278H64.0414V191.385Z" fill="white"/>
</mask>
<g mask="url(#mask3_3860_33680)">
<path d="M62.3568 203.551C62.1573 202.775 61.7806 198.299 59.9857 195.596C60.584 197.302 61.2266 199.806 60.2738 200.005C58.4567 200.404 56.551 195.308 56.8612 193.823C56.1521 196.881 45.0281 199.651 42.8786 197.28C42.3247 196.682 41.1945 194.399 47.1554 191.363C47.1111 191.363 47.0668 191.385 47.0224 191.408C43.5213 192.582 40.5962 195.263 40.3303 198.432C40.153 200.692 39.9536 202.111 39.1115 203.13C33.7711 209.512 41.1724 214.298 44.0088 212.415C44.8508 211.861 49.881 210.576 56.7726 212.969C62.0022 214.786 65.2153 208.138 63.6199 205.989C63.0437 205.235 62.5784 204.46 62.3568 203.551Z" fill="#E6E6E6"/>
</g>
</g>
</g>
<path d="M59.1883 203.46L58.457 208.445C59.0775 208.822 60.9167 208.047 61.3377 206.252C61.9582 203.703 60.4071 202.618 59.1883 203.46Z" fill="#F2AC71"/>
<mask id="mask4_3860_33680" style="mask-type:luminance" maskUnits="userSpaceOnUse" x="39" y="203" width="4" height="6">
<path d="M39.5332 206.229C39.9542 207.957 41.727 208.71 42.3253 208.334L41.6162 203.525C41.3503 203.348 41.0622 203.259 40.7963 203.259C39.8656 203.259 39.0678 204.323 39.5332 206.229Z" fill="white"/>
</mask>
<g mask="url(#mask4_3860_33680)">
<path d="M42.3258 203.259H39.0684V208.71H42.3258V203.259Z" fill="url(#paint0_linear_3860_33680)"/>
</g>
<path d="M58.3705 197.41C57.0631 194.928 53.1188 192.668 49.0636 193.111C41.8618 193.909 41.6624 199.294 41.5294 203.061C41.4186 205.831 42.1055 210.617 42.7925 212.08C43.3465 213.254 47.2244 215.603 49.4846 215.603C52.3654 215.603 56.3984 213.874 57.1961 212.456C58.0382 210.972 58.3706 209.886 58.7916 207.759C59.545 203.858 59.7666 200.025 58.3927 197.41" fill="#F2AC71"/>
<g style="mix-blend-mode:multiply" opacity="0.3">
<mask id="mask5_3860_33680" style="mask-type:luminance" maskUnits="userSpaceOnUse" x="49" y="195" width="11" height="21">
<path d="M59.3012 195.88H49.2852V215.624H59.3012V195.88Z" fill="white"/>
</mask>
<g mask="url(#mask5_3860_33680)">
<mask id="mask6_3860_33680" style="mask-type:luminance" maskUnits="userSpaceOnUse" x="49" y="195" width="11" height="21">
<path d="M56.6421 212.211C56.221 213.142 52.9193 215.291 49.2852 215.601C49.3516 215.601 49.4181 215.601 49.4624 215.601C52.3432 215.601 56.3762 213.873 57.1739 212.455C57.9052 211.169 58.2597 210.15 58.6143 208.51C59.3677 204.61 59.7444 200.023 58.3484 197.408L56.1324 195.879C59.0796 202.594 57.9495 209.374 56.6421 212.211Z" fill="white"/>
</mask>
<g mask="url(#mask6_3860_33680)">
<path d="M59.7444 195.879H49.2852V215.623H59.7444V195.879Z" fill="url(#paint1_linear_3860_33680)"/>
</g>
</g>
</g>
<g style="mix-blend-mode:screen" opacity="0.3">
<mask id="mask7_3860_33680" style="mask-type:luminance" maskUnits="userSpaceOnUse" x="41" y="195" width="16" height="21">
<path d="M56.133 195.927H41.5078V215.604H56.133V195.927Z" fill="white"/>
</mask>
<g mask="url(#mask7_3860_33680)">
<mask id="mask8_3860_33680" style="mask-type:luminance" maskUnits="userSpaceOnUse" x="41" y="195" width="16" height="21">
<path d="M56.133 195.928H41.5078V215.605H56.133V195.928Z" fill="white"/>
</mask>
<g mask="url(#mask8_3860_33680)">
<path d="M43.3693 211.859C42.904 210.973 42.3943 206.474 42.6381 201.577C46.2057 197.81 53.053 198.652 56.1332 195.949C53.3411 196.348 42.9261 198.143 43.0591 197.323L42.5051 197.278C41.663 199.14 41.5744 201.289 41.5079 203.084C41.3971 205.854 42.0841 210.64 42.771 212.103C43.3028 213.233 47.0035 215.516 49.2859 215.626C47.4688 215.205 44.0563 213.189 43.3693 211.881" fill="#F2AC71"/>
</g>
</g>
</g>
<g style="mix-blend-mode:multiply" opacity="0.08">
<mask id="mask9_3860_33680" style="mask-type:luminance" maskUnits="userSpaceOnUse" x="52" y="203" width="7" height="7">
<path d="M58.725 203.259H52.3652V209.619H58.725V203.259Z" fill="white"/>
</mask>
<g mask="url(#mask9_3860_33680)">
<mask id="mask10_3860_33680" style="mask-type:luminance" maskUnits="userSpaceOnUse" x="52" y="203" width="7" height="7">
<path d="M52.3652 206.449C52.3652 208.2 53.7834 209.64 55.5562 209.64C57.329 209.64 58.7471 208.222 58.7471 206.449C58.7471 204.676 57.329 203.258 55.5562 203.258C53.7834 203.258 52.3652 204.676 52.3652 206.449Z" fill="white"/>
</mask>
<g mask="url(#mask10_3860_33680)">
<path d="M58.725 203.258H52.3652V209.618H58.725V203.258Z" fill="url(#paint2_radial_3860_33680)"/>
</g>
</g>
</g>
<g style="mix-blend-mode:multiply" opacity="0.08">
<mask id="mask11_3860_33680" style="mask-type:luminance" maskUnits="userSpaceOnUse" x="41" y="203" width="7" height="7">
<path d="M47.047 203.458H41.5293V209.817H47.047V203.458Z" fill="white"/>
</mask>
<g mask="url(#mask11_3860_33680)">
<mask id="mask12_3860_33680" style="mask-type:luminance" maskUnits="userSpaceOnUse" x="41" y="203" width="7" height="7">
<path d="M41.5293 204.501C41.5958 206.008 41.7952 207.758 42.039 209.243C42.5486 209.619 43.1912 209.819 43.8782 209.819C45.6288 209.819 47.0692 208.401 47.0692 206.628C47.0692 204.855 45.6509 203.437 43.8782 203.437C42.9475 203.437 42.1054 203.836 41.5293 204.479" fill="white"/>
</mask>
<g mask="url(#mask12_3860_33680)">
<path d="M47.0692 203.458H41.5293V209.818H47.0692V203.458Z" fill="url(#paint3_radial_3860_33680)"/>
</g>
</g>
</g>
<g style="mix-blend-mode:multiply" opacity="0.3">
<mask id="mask13_3860_33680" style="mask-type:luminance" maskUnits="userSpaceOnUse" x="46" y="210" width="7" height="3">
<path d="M52.5417 210.927H46.4922V212.766H52.5417V210.927Z" fill="white"/>
</mask>
<g mask="url(#mask13_3860_33680)">
<mask id="mask14_3860_33680" style="mask-type:luminance" maskUnits="userSpaceOnUse" x="46" y="210" width="7" height="3">
<path d="M46.4922 210.993C47.1791 211.48 47.8661 212.743 49.4837 212.787C51.4781 212.832 52.4309 211.126 52.5417 210.948C52.3866 210.993 46.4922 211.015 46.4922 211.015" fill="white"/>
</mask>
<g mask="url(#mask14_3860_33680)">
<path d="M52.5417 210.927H46.4922V212.833H52.5417V210.927Z" fill="url(#paint4_linear_3860_33680)"/>
</g>
</g>
</g>
<path d="M46.4922 211.016C47.5337 211.636 47.711 212.456 49.3729 212.522C51.2343 212.611 52.2758 211.215 52.4088 211.06L46.4922 211.016Z" fill="#D67751"/>
<path d="M49.4619 210.706C47.4011 210.706 47.0687 211.083 46.1602 210.795C46.559 211.437 51.2347 211.925 52.8966 210.75C52.3426 211.127 51.2125 210.706 49.4619 210.706Z" fill="#D67751"/>
<g style="mix-blend-mode:multiply" opacity="0.7">
<mask id="mask15_3860_33680" style="mask-type:luminance" maskUnits="userSpaceOnUse" x="46" y="210" width="7" height="2">
<path d="M52.8974 210.707H46.0723V211.593H52.8974V210.707Z" fill="white"/>
</mask>
<g mask="url(#mask15_3860_33680)">
<mask id="mask16_3860_33680" style="mask-type:luminance" maskUnits="userSpaceOnUse" x="46" y="210" width="7" height="2">
<path d="M52.8974 210.708H46.0723V211.594H52.8974V210.708Z" fill="white"/>
</mask>
<g mask="url(#mask16_3860_33680)">
<path d="M52.8957 210.708C52.3638 211.063 51.411 211.439 49.4831 211.439C47.932 211.439 46.6024 210.952 46.1592 210.73C46.1149 210.708 46.0484 210.797 46.0927 210.819C47.2007 211.439 48.6854 211.594 49.4388 211.617C51.1008 211.661 53.0951 211.018 52.9179 210.73" fill="#BC5C5C"/>
</g>
</g>
</g>
<g style="mix-blend-mode:multiply" opacity="0.3">
<mask id="mask17_3860_33680" style="mask-type:luminance" maskUnits="userSpaceOnUse" x="45" y="210" width="9" height="2">
<path d="M53.3396 210.241H45.7168V211.172H53.3396V210.241Z" fill="white"/>
</mask>
<g mask="url(#mask17_3860_33680)">
<mask id="mask18_3860_33680" style="mask-type:luminance" maskUnits="userSpaceOnUse" x="45" y="210" width="9" height="2">
<path d="M53.3618 210.264H45.7168V211.194H53.3618V210.264Z" fill="white"/>
</mask>
<g mask="url(#mask18_3860_33680)">
<g style="mix-blend-mode:multiply" opacity="0.3">
<mask id="mask19_3860_33680" style="mask-type:luminance" maskUnits="userSpaceOnUse" x="52" y="210" width="2" height="2">
<path d="M53.3403 210.244H52.3652V211.174H53.3403V210.244Z" fill="white"/>
</mask>
<g mask="url(#mask19_3860_33680)">
<mask id="mask20_3860_33680" style="mask-type:luminance" maskUnits="userSpaceOnUse" x="52" y="210" width="2" height="2">
<path d="M52.4982 210.399C52.4982 210.399 52.4096 210.864 52.3652 210.953L52.4539 211.086C52.4539 211.086 52.6976 211.197 52.9192 211.197H53.0522C53.0522 211.197 53.2073 211.197 53.2295 211.197C53.451 211.064 53.3624 210.62 53.2295 210.465C53.163 210.399 52.897 210.288 52.7198 210.288C52.6311 210.288 52.5425 210.332 52.5203 210.421" fill="white"/>
</mask>
<g mask="url(#mask20_3860_33680)">
<path d="M53.4307 210.204L52.3672 210.219L52.3807 211.172L53.4442 211.157L53.4307 210.204Z" fill="url(#paint5_linear_3860_33680)"/>
</g>
</g>
</g>
<g style="mix-blend-mode:multiply" opacity="0.3">
<mask id="mask21_3860_33680" style="mask-type:luminance" maskUnits="userSpaceOnUse" x="45" y="210" width="2" height="2">
<path d="M46.581 210.266H45.7168V211.152H46.581V210.266Z" fill="white"/>
</mask>
<g mask="url(#mask21_3860_33680)">
<mask id="mask22_3860_33680" style="mask-type:luminance" maskUnits="userSpaceOnUse" x="45" y="210" width="2" height="2">
<path d="M45.7168 210.577C45.7168 210.577 45.7168 210.643 45.7168 210.688V210.754C45.7168 210.931 45.8054 211.109 45.9827 211.153C46.0492 211.175 46.5589 211.064 46.5145 210.976L46.581 210.821C46.581 210.821 46.3372 210.488 46.2929 210.4C46.2708 210.311 46.2043 210.267 46.1378 210.267C45.9827 210.267 45.7833 210.422 45.7389 210.577" fill="white"/>
</mask>
<g mask="url(#mask22_3860_33680)">
<path d="M46.5633 210.234L45.6992 210.246L45.7124 211.177L46.5765 211.164L46.5633 210.234Z" fill="url(#paint6_linear_3860_33680)"/>
</g>
</g>
</g>
</g>
</g>
</g>
<g style="mix-blend-mode:multiply" opacity="0.25">
<mask id="mask23_3860_33680" style="mask-type:luminance" maskUnits="userSpaceOnUse" x="47" y="203" width="5" height="7">
<path d="M51.4776 203.148H47.4668V209.53H51.4776V203.148Z" fill="white"/>
</mask>
<g mask="url(#mask23_3860_33680)">
<mask id="mask24_3860_33680" style="mask-type:luminance" maskUnits="userSpaceOnUse" x="47" y="203" width="5" height="7">
<path d="M48.1966 206.293C47.8863 207.291 47.4431 207.933 47.4875 208.31C47.5539 209.041 48.8835 209.462 49.4375 209.529C49.9915 209.595 51.3875 208.975 51.4762 208.11C51.4097 208.11 48.4182 203.169 48.4182 203.169C48.5068 204.21 48.5068 205.341 48.1966 206.316" fill="white"/>
</mask>
<g mask="url(#mask24_3860_33680)">
<path d="M47.4037 202.965L47.1465 209.541L51.42 209.708L51.6772 203.132L47.4037 202.965Z" fill="url(#paint7_linear_3860_33680)"/>
</g>
</g>
</g>
<g style="mix-blend-mode:multiply" opacity="0.4">
<mask id="mask25_3860_33680" style="mask-type:luminance" maskUnits="userSpaceOnUse" x="47" y="203" width="5" height="7">
<path d="M51.4776 203.148H47.4668V209.53H51.4776V203.148Z" fill="white"/>
</mask>
<g mask="url(#mask25_3860_33680)">
<mask id="mask26_3860_33680" style="mask-type:luminance" maskUnits="userSpaceOnUse" x="47" y="203" width="5" height="7">
<path d="M48.1966 206.293C47.8863 207.291 47.4431 207.933 47.4875 208.31C47.5539 209.041 48.8835 209.462 49.4375 209.529C49.9915 209.595 51.3875 208.975 51.4762 208.11C51.4762 208.11 50.7006 208.93 49.4818 208.975C48.7284 208.975 47.6869 208.465 47.7755 208.288C49.0165 205.562 48.4182 203.169 48.4182 203.169C48.5068 204.21 48.5068 205.341 48.1966 206.316" fill="white"/>
</mask>
<g mask="url(#mask26_3860_33680)">
<path d="M47.4037 202.965L47.1465 209.541L51.42 209.708L51.6772 203.132L47.4037 202.965Z" fill="url(#paint8_linear_3860_33680)"/>
</g>
</g>
</g>
<g style="mix-blend-mode:multiply" opacity="0.3">
<mask id="mask27_3860_33680" style="mask-type:luminance" maskUnits="userSpaceOnUse" x="51" y="206" width="3" height="5">
<path d="M53.6949 206.851H51.6562V210.197H53.6949V206.851Z" fill="white"/>
</mask>
<g mask="url(#mask27_3860_33680)">
<mask id="mask28_3860_33680" style="mask-type:luminance" maskUnits="userSpaceOnUse" x="51" y="206" width="3" height="5">
<path d="M53.6728 210.198C53.6728 210.198 53.6728 210.175 53.6728 210.153C53.6728 210.153 53.6728 210.175 53.6728 210.198ZM53.6728 210.153C53.4069 207.937 51.8557 207.029 51.6784 206.874C51.8779 207.117 53.5398 209.045 53.6728 210.153ZM51.6562 206.852C51.6562 206.852 51.6562 206.852 51.6562 206.874C51.6562 206.874 51.6562 206.874 51.6562 206.852Z" fill="white"/>
</mask>
<g mask="url(#mask28_3860_33680)">
<path d="M53.6632 206.669L51.3672 206.868L51.6706 210.378L53.9666 210.179L53.6632 206.669Z" fill="url(#paint9_linear_3860_33680)"/>
</g>
</g>
</g>
<g style="mix-blend-mode:multiply" opacity="0.3">
<mask id="mask29_3860_33680" style="mask-type:luminance" maskUnits="userSpaceOnUse" x="45" y="206" width="3" height="5">
<path d="M47.6676 206.562H45.5625V210.063H47.6676V206.562Z" fill="white"/>
</mask>
<g mask="url(#mask29_3860_33680)">
<mask id="mask30_3860_33680" style="mask-type:luminance" maskUnits="userSpaceOnUse" x="45" y="206" width="3" height="5">
<path d="M45.5636 210.064C45.763 208.623 47.3585 206.873 47.6244 206.607C47.3363 206.851 45.4084 208.158 45.5636 210.064ZM47.6244 206.607C47.6244 206.607 47.6687 206.585 47.6687 206.563C47.6687 206.563 47.6687 206.562 47.6244 206.607Z" fill="white"/>
</mask>
<g mask="url(#mask30_3860_33680)">
<path d="M45.4193 206.439L45.2031 210.066L47.6585 210.213L47.8746 206.585L45.4193 206.439Z" fill="url(#paint10_linear_3860_33680)"/>
</g>
</g>
</g>
<g style="mix-blend-mode:multiply" opacity="0.5">
<mask id="mask31_3860_33680" style="mask-type:luminance" maskUnits="userSpaceOnUse" x="44" y="203" width="3" height="3">
<path d="M46.5819 203.193H44.8535V205.276H46.5819V203.193Z" fill="white"/>
</mask>
<g mask="url(#mask31_3860_33680)">
<mask id="mask32_3860_33680" style="mask-type:luminance" maskUnits="userSpaceOnUse" x="44" y="203" width="3" height="3">
<path d="M45.7168 203.193C45.2736 203.193 44.8747 203.659 44.8525 204.213C44.8304 204.789 45.1849 205.276 45.6503 205.299H45.6946C46.1378 205.299 46.5366 204.833 46.5588 204.279C46.581 203.703 46.2264 203.216 45.7611 203.193H45.7168Z" fill="white"/>
</mask>
<g mask="url(#mask32_3860_33680)">
<path d="M46.6021 203.199L44.7852 203.223L44.8134 205.35L46.6303 205.326L46.6021 203.199Z" fill="url(#paint11_linear_3860_33680)"/>
</g>
</g>
</g>
<path d="M46.4261 204.257C46.404 204.811 45.9829 205.254 45.5176 205.254C45.0522 205.254 44.6977 204.766 44.742 204.19C44.7642 203.636 45.1852 203.193 45.6284 203.215C46.0937 203.215 46.4483 203.703 46.404 204.257" fill="#724B30"/>
<path d="M46.2716 203.991C46.2716 204.168 46.1386 204.279 46.0057 204.279C45.8727 204.279 45.7619 204.124 45.7841 203.969C45.7841 203.814 45.917 203.681 46.05 203.681C46.1829 203.681 46.2938 203.836 46.2716 203.991Z" fill="white"/>
<g style="mix-blend-mode:multiply" opacity="0.5">
<mask id="mask33_3860_33680" style="mask-type:luminance" maskUnits="userSpaceOnUse" x="53" y="203" width="2" height="3">
<path d="M54.8489 203.216H53.1426V205.277H54.8489V203.216Z" fill="white"/>
</mask>
<g mask="url(#mask33_3860_33680)">
<mask id="mask34_3860_33680" style="mask-type:luminance" maskUnits="userSpaceOnUse" x="53" y="203" width="2" height="3">
<path d="M54.0073 203.215C53.5419 203.215 53.1652 203.658 53.1209 204.212C53.0766 204.788 53.4312 205.254 53.9187 205.276C54.384 205.276 54.7829 204.855 54.8272 204.279V204.234V204.19C54.8272 203.658 54.4727 203.237 54.0295 203.215H54.0073Z" fill="white"/>
</mask>
<g mask="url(#mask34_3860_33680)">
<path d="M54.8246 203.224L53.0742 203.247L53.1021 205.352L54.8526 205.329L54.8246 203.224Z" fill="url(#paint12_linear_3860_33680)"/>
</g>
</g>
</g>
<path d="M54.6708 204.279C54.6487 204.833 54.2498 205.276 53.7845 205.254C53.3191 205.254 52.9867 204.766 53.0089 204.212C53.031 203.658 53.4299 203.215 53.8953 203.237C54.3606 203.237 54.693 203.725 54.6708 204.279Z" fill="#724B30"/>
<path d="M54.4708 204.013C54.4708 204.168 54.3379 204.301 54.2049 204.301C54.072 204.301 53.9611 204.146 53.9833 203.991C53.9833 203.836 54.1163 203.703 54.2492 203.703C54.3822 203.703 54.493 203.836 54.4708 204.013Z" fill="white"/>
<path d="M47.0475 201.11C46.4935 200.423 43.5906 200.8 42.8594 201.576L43.0588 201.819C44.5213 201.465 45.4963 201.753 46.6265 201.819C47.1361 201.842 47.2691 201.376 47.0475 201.11Z" fill="#E6E6E6"/>
<path d="M52.1888 201.177C52.765 200.512 55.557 200.734 56.2883 201.819L56.0002 202.063C54.5599 201.642 53.5627 201.908 52.4326 201.93C51.9229 201.93 51.9672 201.443 52.1888 201.177Z" fill="#E6E6E6"/>
<path d="M58.1271 195.725C57.13 194.817 55.8669 192.136 50.5043 192.379C45.1417 192.645 43.4354 195.282 42.5269 196.39C41.5519 197.587 40.2002 202.639 40.6433 203.26C40.6433 203.26 41.0865 203.215 41.5297 203.459C42.9701 197.786 53.0748 198.385 56.1549 195.858C56.1549 195.858 56.1549 195.903 56.1549 195.925C58.9692 200.29 58.3709 206.074 58.7476 205.631C58.8805 204.922 59.08 203.769 59.5232 203.282C59.6783 203.215 59.9442 203.149 60.2766 203.193C60.3652 202.329 59.1465 196.634 58.1493 195.725" fill="white"/>
<g style="mix-blend-mode:multiply" opacity="0.5">
<mask id="mask35_3860_33680" style="mask-type:luminance" maskUnits="userSpaceOnUse" x="40" y="194" width="21" height="12">
<path d="M60.2544 194.218H40.5547V205.652H60.2544V194.218Z" fill="white"/>
</mask>
<g mask="url(#mask35_3860_33680)">
<mask id="mask36_3860_33680" style="mask-type:luminance" maskUnits="userSpaceOnUse" x="40" y="194" width="21" height="12">
<path d="M60.2544 194.217H40.5547V205.652H60.2544V194.217Z" fill="white"/>
</mask>
<g mask="url(#mask36_3860_33680)">
<path d="M60.2539 203.192C60.2983 202.815 60.0545 201.441 59.7221 199.979C58.2596 199.491 56.8857 195.99 56.8192 194.328C56.7749 194.306 56.7527 194.262 56.7084 194.217C55.2237 197.12 44.9196 199.558 42.881 197.297C42.7258 197.142 42.5486 196.854 42.4599 196.478C41.4849 197.807 40.1996 202.66 40.6428 203.28C40.6428 203.28 41.086 203.236 41.5292 203.48C42.9696 197.807 53.0743 198.428 56.1544 195.879C56.1544 195.879 56.1544 195.924 56.1544 195.946C58.9687 200.311 58.3704 206.095 58.7249 205.652C58.8579 204.942 59.0795 203.79 59.5005 203.303C59.6556 203.236 59.9216 203.17 60.2539 203.214" fill="#E6E6E6"/>
</g>
</g>
</g>
<g style="mix-blend-mode:multiply" opacity="0.5">
<mask id="mask37_3860_33680" style="mask-type:luminance" maskUnits="userSpaceOnUse" x="41" y="202" width="19" height="6">
<path d="M59.8991 202.372H41.2852V207.047H59.8991V202.372Z" fill="white"/>
</mask>
<g mask="url(#mask37_3860_33680)">
<mask id="mask38_3860_33680" style="mask-type:luminance" maskUnits="userSpaceOnUse" x="41" y="202" width="19" height="6">
<path d="M51.7235 205.695C51.2582 205.119 51.1695 204.41 51.1695 203.922C51.1695 202.991 52.1889 202.814 54.0946 202.814H54.1611C56.1111 202.814 57.1748 202.991 57.1748 203.922C57.1748 204.919 56.7759 206.603 54.1832 206.603C53.0531 206.603 52.2332 206.293 51.7457 205.673M42.3501 205.695C41.8847 205.119 41.7961 204.41 41.7961 203.922C41.7961 202.991 42.7711 202.836 44.6547 202.836H44.7211C45.541 202.836 46.3831 202.858 46.9814 203.036C47.5575 203.213 47.8013 203.479 47.8013 203.944C47.8013 204.941 47.4024 206.626 44.8098 206.626C43.6797 206.626 42.8597 206.315 42.3722 205.695M44.6768 202.393C43.3473 202.393 41.3086 202.393 41.3086 203.9C41.3086 204.498 41.4194 205.274 41.9512 205.939C42.5495 206.67 43.5024 207.047 44.8098 207.047C47.9564 207.047 48.311 204.875 48.311 203.922C48.311 203.745 48.2666 203.568 48.2223 203.435C48.5104 203.279 49.1974 203.191 49.9065 203.257C50.2832 203.302 50.5712 203.368 50.7707 203.479C50.7264 203.612 50.682 203.767 50.682 203.922C50.682 204.476 50.7928 205.296 51.3247 205.961C51.923 206.692 52.8758 207.069 54.1832 207.069C57.3299 207.069 57.6844 204.897 57.6844 203.944C57.6844 203.878 57.6844 203.811 57.6844 203.745L59.4128 203.457L59.9225 203.213L57.4185 203.146C56.798 202.437 55.2912 202.415 54.1832 202.415H54.1167C53.0752 202.415 51.6127 202.415 50.9923 203.102C50.682 202.925 50.2831 202.858 49.9508 202.836C49.3081 202.77 48.4218 202.836 47.9564 203.08C47.757 202.881 47.4911 202.748 47.1587 202.637C46.4939 202.437 45.6075 202.415 44.7433 202.415H44.6768V202.393Z" fill="white"/>
</mask>
<g mask="url(#mask38_3860_33680)">
<path d="M59.901 202.393H41.2871V207.069H59.901V202.393Z" fill="url(#paint13_linear_3860_33680)"/>
</g>
</g>
</g>
<path d="M41.1973 203.769C41.1973 204.323 41.3081 205.143 41.8399 205.808C42.4382 206.539 43.3911 206.915 44.6985 206.915C47.8451 206.915 48.1997 204.722 48.1997 203.791C48.1997 203.614 48.1553 203.436 48.111 203.304C48.3991 203.148 49.086 203.06 49.7951 203.126C50.1718 203.171 50.4599 203.237 50.6594 203.348C50.615 203.481 50.5707 203.636 50.5707 203.791C50.5707 204.345 50.6815 205.165 51.2133 205.83C51.8116 206.561 52.7645 206.938 54.0719 206.938C57.2185 206.938 57.5731 204.766 57.5731 203.813C57.5731 203.747 57.5731 203.68 57.5731 203.614L59.4123 203.459L59.922 203.215L57.3072 203.015C56.6867 202.306 55.1799 202.284 54.0719 202.284H54.0054C52.9639 202.284 51.5014 202.284 50.881 202.971C50.5707 202.794 50.1719 202.727 49.8395 202.705C49.1968 202.639 48.3326 202.705 47.8451 202.949C47.6457 202.772 47.3797 202.617 47.0474 202.506C46.3826 202.306 45.4962 202.284 44.632 202.284H44.5655C43.2138 202.284 41.1973 202.284 41.1973 203.813M51.0804 203.791C51.0804 202.86 52.0997 202.683 54.0054 202.683H54.0719C56.0219 202.683 57.0856 202.86 57.0856 203.791C57.0856 204.788 56.6867 206.472 54.0941 206.472C52.9639 206.472 52.144 206.162 51.6565 205.542C51.1912 204.965 51.1025 204.256 51.1025 203.769M41.707 203.769C41.707 202.838 42.682 202.683 44.5655 202.683H44.632C45.4519 202.683 46.294 202.705 46.8923 202.882C47.4684 203.038 47.7121 203.326 47.7121 203.791C47.7121 204.788 47.3133 206.472 44.7206 206.472C43.5905 206.472 42.7706 206.162 42.2831 205.564C41.8177 204.988 41.7291 204.279 41.7291 203.791" fill="#AF6A54"/>
<path d="M55.9558 216.843C55.7121 216.665 54.161 216.422 53.895 216.333C51.0808 218.881 47.1142 216.998 46.9591 216.466C46.6489 216.532 44.1449 217.042 43.9011 217.264C42.9704 218.128 42.638 220.078 42.8153 222.25C45.1421 223.291 47.7125 223.889 50.416 223.889C53.1194 223.889 55.7121 223.291 58.0388 222.25C57.928 219.989 57.2411 217.84 55.9558 216.843Z" fill="#FFE5CC"/>
<path d="M46.6261 217.62C46.6261 217.309 46.3602 217.066 46.0722 217.088C45.7841 217.088 45.5625 217.354 45.5625 217.664C45.5625 217.974 45.8284 218.218 46.1165 218.196C46.4046 218.196 46.6261 217.93 46.6261 217.62Z" fill="#F7A76F"/>
<path d="M46.9354 217.796C46.6474 217.796 46.4258 218.062 46.4258 218.372C46.4258 218.682 46.6917 218.926 46.9798 218.904C47.2678 218.904 47.4894 218.638 47.4894 218.328C47.4894 218.017 47.2457 217.774 46.9354 217.796Z" fill="#F7A76F"/>
<path d="M47.8886 218.306C47.6005 218.306 47.3789 218.572 47.3789 218.882C47.3789 219.192 47.6448 219.436 47.9329 219.414C48.221 219.414 48.4425 219.148 48.4425 218.838C48.4425 218.528 48.1766 218.284 47.8886 218.306Z" fill="#F7A76F"/>
<path d="M48.953 218.639C48.6649 218.639 48.4434 218.905 48.4434 219.215C48.4434 219.525 48.7093 219.769 48.9973 219.747C49.2854 219.747 49.507 219.481 49.507 219.171C49.507 218.861 49.2411 218.617 48.953 218.639Z" fill="#F7A76F"/>
<path d="M50.0175 218.793C49.7294 218.793 49.5078 219.059 49.5078 219.37C49.5078 219.68 49.7737 219.924 50.0618 219.901C50.3499 219.901 50.5715 219.635 50.5715 219.325C50.5715 219.015 50.3277 218.771 50.0175 218.793Z" fill="#F7A76F"/>
<path d="M51.1249 218.749C50.8369 218.749 50.6152 219.015 50.6152 219.326C50.6152 219.636 50.8811 219.88 51.1692 219.857C51.4573 219.857 51.6789 219.592 51.6789 219.281C51.6789 218.971 51.4352 218.727 51.1249 218.749Z" fill="#F7A76F"/>
<path d="M52.2108 218.551C51.9228 218.551 51.7012 218.817 51.7012 219.127C51.7012 219.437 51.9671 219.681 52.2552 219.659C52.5432 219.659 52.7648 219.393 52.7648 219.083C52.7648 218.772 52.4989 218.529 52.2108 218.551Z" fill="#F7A76F"/>
<path d="M53.1854 218.128C52.8974 218.128 52.6758 218.394 52.6758 218.704C52.6758 219.015 52.9417 219.258 53.2298 219.236C53.5178 219.236 53.7394 218.97 53.7394 218.66C53.7394 218.35 53.4735 218.106 53.1854 218.128Z" fill="#F7A76F"/>
<path d="M54.1386 217.53C53.8505 217.53 53.6289 217.796 53.6289 218.106C53.6289 218.416 53.8948 218.66 54.1829 218.638C54.471 218.638 54.6925 218.372 54.6925 218.062C54.6925 217.751 54.4488 217.508 54.1386 217.53Z" fill="#F7A76F"/>
<path d="M55.0019 216.822C54.7138 216.822 54.4922 217.088 54.4922 217.398C54.4922 217.708 54.7581 217.952 55.0462 217.93C55.3342 217.93 55.5559 217.664 55.5559 217.354C55.5559 217.043 55.29 216.8 55.0019 216.822Z" fill="#F7A76F"/>
<path d="M46.5813 217.464C46.5813 217.154 46.3153 216.91 46.0273 216.932C45.7392 216.932 45.5176 217.198 45.5176 217.508C45.5176 217.818 45.7835 218.062 46.0716 218.04C46.3596 218.04 46.5813 217.774 46.5813 217.464Z" fill="white"/>
<path d="M46.871 217.641C46.5829 217.641 46.3613 217.907 46.3613 218.217C46.3613 218.527 46.6272 218.771 46.9153 218.749C47.2034 218.749 47.425 218.483 47.425 218.173C47.425 217.863 47.1812 217.619 46.871 217.641Z" fill="white"/>
<path d="M47.8456 218.151C47.5575 218.151 47.3359 218.417 47.3359 218.727C47.3359 219.037 47.6019 219.281 47.8899 219.259C48.178 219.259 48.3996 218.993 48.3996 218.683C48.3996 218.372 48.1558 218.129 47.8456 218.151Z" fill="white"/>
<path d="M48.9081 218.461C48.6201 218.461 48.3984 218.727 48.3984 219.037C48.3984 219.347 48.6644 219.591 48.9524 219.569C49.2405 219.569 49.4621 219.303 49.4621 218.993C49.4621 218.682 49.1962 218.439 48.9081 218.461Z" fill="white"/>
<path d="M49.9511 218.639C49.663 218.639 49.4414 218.905 49.4414 219.215C49.4414 219.525 49.7073 219.769 49.9954 219.747C50.2835 219.747 50.505 219.481 50.505 219.171C50.505 218.861 50.2391 218.617 49.9511 218.639Z" fill="white"/>
<path d="M51.0585 218.594C50.7704 218.594 50.5488 218.86 50.5488 219.17C50.5488 219.48 50.8147 219.724 51.1028 219.702C51.3909 219.702 51.6125 219.436 51.6125 219.126C51.6125 218.815 51.3687 218.572 51.0585 218.594Z" fill="white"/>
<path d="M52.1444 218.395C51.8564 218.395 51.6348 218.661 51.6348 218.971C51.6348 219.281 51.9007 219.525 52.1888 219.503C52.4768 219.503 52.6984 219.237 52.6984 218.927C52.6984 218.617 52.4547 218.373 52.1444 218.395Z" fill="white"/>
<path d="M53.1405 217.952C52.8524 217.952 52.6309 218.218 52.6309 218.528C52.6309 218.838 52.8968 219.082 53.1848 219.06C53.4729 219.06 53.6945 218.794 53.6945 218.483C53.6945 218.173 53.4286 217.929 53.1405 217.952Z" fill="white"/>
<path d="M54.0722 217.375C53.7841 217.375 53.5625 217.641 53.5625 217.951C53.5625 218.261 53.8284 218.505 54.1165 218.483C54.4046 218.483 54.6261 218.217 54.6261 217.907C54.6261 217.597 54.3602 217.353 54.0722 217.375Z" fill="white"/>
<path d="M54.9354 216.666C54.6474 216.666 54.4258 216.932 54.4258 217.242C54.4258 217.552 54.6917 217.796 54.9798 217.774C55.2678 217.774 55.4894 217.508 55.4894 217.198C55.4894 216.888 55.2235 216.644 54.9354 216.666Z" fill="white"/>
<path d="M60.2547 221.053C60.0109 219.857 59.745 218.926 59.5234 218.372C58.4598 217.353 55.0251 216.511 55.0251 216.511C54.8921 217.818 54.8035 220.3 54.7148 223.38C56.7092 222.915 58.5706 222.117 60.2547 221.053Z" fill="#EA94A2"/>
<path d="M46.36 223.426C46.2714 220.345 46.1828 217.864 46.0498 216.556C46.0498 216.556 43.0804 217.088 41.7952 218.351C41.5514 218.927 41.2634 219.969 40.9531 221.276C42.5929 222.251 44.41 222.982 46.3379 223.426" fill="#EA94A2"/>
<mask id="mask39_3860_33680" style="mask-type:luminance" maskUnits="userSpaceOnUse" x="59" y="218" width="3" height="4">
<path d="M59.9653 221.232C60.3864 220.988 60.7852 220.722 61.162 220.434C60.5415 219.282 59.9653 218.506 59.5 218.373C59.6551 219.348 59.8102 220.301 59.9432 221.232" fill="white"/>
</mask>
<g mask="url(#mask39_3860_33680)">
<path d="M60.9668 217.849L58.5547 218.8L59.7572 221.851L62.1693 220.9L60.9668 217.849Z" fill="url(#paint14_linear_3860_33680)"/>
</g>
<mask id="mask40_3860_33680" style="mask-type:luminance" maskUnits="userSpaceOnUse" x="39" y="218" width="3" height="4">
<path d="M39.8672 220.589C40.3325 220.9 40.7979 221.21 41.2854 221.476C41.4627 220.479 41.6399 219.437 41.795 218.374C41.2411 218.506 40.5763 219.349 39.8672 220.589Z" fill="white"/>
</mask>
<g mask="url(#mask40_3860_33680)">
<path d="M40.1168 217.761L38.875 221.105L41.5756 222.108L42.8174 218.764L40.1168 217.761Z" fill="url(#paint15_linear_3860_33680)"/>
</g>
<g style="mix-blend-mode:multiply" opacity="0.4">
<mask id="mask41_3860_33680" style="mask-type:luminance" maskUnits="userSpaceOnUse" x="54" y="216" width="4" height="8">
<path d="M57.7063 216.514H54.7148V223.384H57.7063V216.514Z" fill="white"/>
</mask>
<g mask="url(#mask41_3860_33680)">
<mask id="mask42_3860_33680" style="mask-type:luminance" maskUnits="userSpaceOnUse" x="54" y="216" width="4" height="8">
<path d="M57.7063 216.515H54.7148V223.385H57.7063V216.515Z" fill="white"/>
</mask>
<g mask="url(#mask42_3860_33680)">
<path d="M55.0251 216.515C54.8921 217.823 54.7813 220.304 54.7148 223.385C55.712 223.141 56.687 222.831 57.6399 222.432C57.8171 220.349 57.6842 218.465 57.3961 217.246C56.1995 216.803 55.0472 216.515 55.0472 216.515" fill="#D17587"/>
</g>
</g>
</g>
<path d="M54.9139 216.335C54.7366 217.487 54.5593 219.77 54.4707 223.448C55.4457 223.227 56.3764 222.938 57.285 222.584C57.573 218.883 57.3293 217.332 56.8639 216.867L54.9139 216.357V216.335Z" fill="#FFBBC8"/>
<g style="mix-blend-mode:multiply" opacity="0.4">
<mask id="mask43_3860_33680" style="mask-type:luminance" maskUnits="userSpaceOnUse" x="43" y="216" width="4" height="8">
<path d="M46.3607 216.555H43.3027V223.424H46.3607V216.555Z" fill="white"/>
</mask>
<g mask="url(#mask43_3860_33680)">
<mask id="mask44_3860_33680" style="mask-type:luminance" maskUnits="userSpaceOnUse" x="43" y="216" width="4" height="8">
<path d="M46.3607 216.554H43.3027V223.423H46.3607V216.554Z" fill="white"/>
</mask>
<g mask="url(#mask44_3860_33680)">
<path d="M46.0509 216.554C46.0509 216.554 44.9208 216.753 43.7463 217.218C43.3031 218.304 43.2145 220.476 43.3696 222.492C44.3225 222.891 45.3196 223.202 46.3611 223.445C46.2725 220.365 46.1839 217.883 46.0509 216.576" fill="#D17587"/>
</g>
</g>
</g>
<path d="M46.0947 216.335L44.1447 216.845C43.6794 217.31 43.4356 218.883 43.7237 222.628C44.6322 222.983 45.5629 223.271 46.5379 223.47C46.4271 219.77 46.272 217.465 46.0947 216.335Z" fill="#FFBBC8"/>
<defs>
<linearGradient id="paint0_linear_3860_33680" x1="41.622" y1="203.361" x2="44.5471" y2="203.361" gradientUnits="userSpaceOnUse">
<stop stop-color="#F2AC71"/>
<stop offset="0.41" stop-color="#EEA56B"/>
<stop offset="0.96" stop-color="#E3945A"/>
<stop offset="1" stop-color="#E29359"/>
</linearGradient>
<linearGradient id="paint1_linear_3860_33680" x1="47.43" y1="206.271" x2="57.446" y2="206.271" gradientUnits="userSpaceOnUse">
<stop stop-color="#F2AC71"/>
<stop offset="0.36" stop-color="#EDA56A"/>
<stop offset="0.85" stop-color="#E09459"/>
<stop offset="1" stop-color="#DB8E53"/>
</linearGradient>
<radialGradient id="paint2_radial_3860_33680" cx="0" cy="0" r="1" gradientUnits="userSpaceOnUse" gradientTransform="translate(61.4302 208.119) rotate(180) scale(3.19095)">
<stop stop-color="#DE4031"/>
<stop offset="0.11" stop-color="#DE4435"/>
<stop offset="0.25" stop-color="#E15144"/>
<stop offset="0.39" stop-color="#E4675B"/>
<stop offset="0.55" stop-color="#EA867D"/>
<stop offset="0.71" stop-color="#F1ADA7"/>
<stop offset="0.87" stop-color="#F9DDDA"/>
<stop offset="0.97" stop-color="white"/>
<stop offset="1" stop-color="white"/>
</radialGradient>
<radialGradient id="paint3_radial_3860_33680" cx="0" cy="0" r="1" gradientUnits="userSpaceOnUse" gradientTransform="translate(42.7425 207.917) scale(2.99152 2.99153)">
<stop stop-color="#DE4031"/>
<stop offset="0.11" stop-color="#DE4435"/>
<stop offset="0.25" stop-color="#E15144"/>
<stop offset="0.39" stop-color="#E4675B"/>
<stop offset="0.55" stop-color="#EA867D"/>
<stop offset="0.71" stop-color="#F1ADA7"/>
<stop offset="0.87" stop-color="#F9DDDA"/>
<stop offset="0.97" stop-color="white"/>
<stop offset="1" stop-color="white"/>
</radialGradient>
<linearGradient id="paint4_linear_3860_33680" x1="43.4583" y1="213.174" x2="49.5079" y2="213.174" gradientUnits="userSpaceOnUse">
<stop stop-color="#F2AC71"/>
<stop offset="0.36" stop-color="#EDA56A"/>
<stop offset="0.85" stop-color="#E09459"/>
<stop offset="1" stop-color="#DB8E53"/>
</linearGradient>
<linearGradient id="paint5_linear_3860_33680" x1="49.7062" y1="206.971" x2="50.6811" y2="206.957" gradientUnits="userSpaceOnUse">
<stop stop-color="#F2AC71"/>
<stop offset="0.36" stop-color="#EDA56A"/>
<stop offset="0.85" stop-color="#E09459"/>
<stop offset="1" stop-color="#DB8E53"/>
</linearGradient>
<linearGradient id="paint6_linear_3860_33680" x1="50.3807" y1="216.254" x2="51.2448" y2="216.242" gradientUnits="userSpaceOnUse">
<stop stop-color="#F2AC71"/>
<stop offset="0.36" stop-color="#EDA56A"/>
<stop offset="0.85" stop-color="#E09459"/>
<stop offset="1" stop-color="#DB8E53"/>
</linearGradient>
<linearGradient id="paint7_linear_3860_33680" x1="49.9676" y1="202.464" x2="49.7502" y2="208.022" gradientUnits="userSpaceOnUse">
<stop stop-color="white"/>
<stop offset="0.15" stop-color="#FEFCFB"/>
<stop offset="0.28" stop-color="#FBF4F0"/>
<stop offset="0.41" stop-color="#F6E7DD"/>
<stop offset="0.53" stop-color="#EFD5C3"/>
<stop offset="0.65" stop-color="#E7BDA1"/>
<stop offset="0.77" stop-color="#DCA078"/>
<stop offset="0.89" stop-color="#D07F48"/>
<stop offset="1" stop-color="#C35B15"/>
</linearGradient>
<linearGradient id="paint8_linear_3860_33680" x1="49.9676" y1="202.464" x2="49.7502" y2="208.022" gradientUnits="userSpaceOnUse">
<stop stop-color="#F2AC71"/>
<stop offset="0.36" stop-color="#EDA56A"/>
<stop offset="0.85" stop-color="#E09459"/>
<stop offset="1" stop-color="#DB8E53"/>
</linearGradient>
<linearGradient id="paint9_linear_3860_33680" x1="51.7341" y1="207.32" x2="53.4561" y2="207.171" gradientUnits="userSpaceOnUse">
<stop stop-color="#F2AC71"/>
<stop offset="0.36" stop-color="#EDA56A"/>
<stop offset="0.85" stop-color="#E09459"/>
<stop offset="1" stop-color="#DB8E53"/>
</linearGradient>
<linearGradient id="paint10_linear_3860_33680" x1="43.2682" y1="206.827" x2="41.3658" y2="206.714" gradientUnits="userSpaceOnUse">
<stop stop-color="#F2AC71"/>
<stop offset="0.36" stop-color="#EDA56A"/>
<stop offset="0.85" stop-color="#E09459"/>
<stop offset="1" stop-color="#DB8E53"/>
</linearGradient>
<linearGradient id="paint11_linear_3860_33680" x1="44.8138" y1="203.545" x2="46.5421" y2="203.522" gradientUnits="userSpaceOnUse">
<stop stop-color="#F2AC71"/>
<stop offset="0.36" stop-color="#EDA56A"/>
<stop offset="0.85" stop-color="#E09459"/>
<stop offset="1" stop-color="#DB8E53"/>
</linearGradient>
<linearGradient id="paint12_linear_3860_33680" x1="53.1421" y1="204.452" x2="54.8482" y2="204.429" gradientUnits="userSpaceOnUse">
<stop stop-color="#F2AC71"/>
<stop offset="0.36" stop-color="#EDA56A"/>
<stop offset="0.85" stop-color="#E09459"/>
<stop offset="1" stop-color="#DB8E53"/>
</linearGradient>
<linearGradient id="paint13_linear_3860_33680" x1="64.0581" y1="205.376" x2="45.4442" y2="205.376" gradientUnits="userSpaceOnUse">
<stop stop-color="#F2AC71"/>
<stop offset="0.36" stop-color="#EDA56A"/>
<stop offset="0.85" stop-color="#E09459"/>
<stop offset="1" stop-color="#DB8E53"/>
</linearGradient>
<linearGradient id="paint14_linear_3860_33680" x1="59.3204" y1="216.792" x2="61.9448" y2="223.451" gradientUnits="userSpaceOnUse">
<stop stop-color="#D17587"/>
<stop offset="0.16" stop-color="#D77C8D"/>
<stop offset="0.65" stop-color="#E58D9C"/>
<stop offset="1" stop-color="#EA94A2"/>
</linearGradient>
<linearGradient id="paint15_linear_3860_33680" x1="39.4492" y1="223.179" x2="35.4845" y2="233.857" gradientUnits="userSpaceOnUse">
<stop stop-color="#D17587"/>
<stop offset="0.16" stop-color="#D77C8D"/>
<stop offset="0.65" stop-color="#E58D9C"/>
<stop offset="1" stop-color="#EA94A2"/>
</linearGradient>
</defs>
</svg>
