<svg width="211" height="228" viewBox="0 0 211 228" fill="none" xmlns="http://www.w3.org/2000/svg">
<rect x="27.2188" width="157" height="50" rx="20" fill="#A6D3A0"/>
<path d="M25.0132 75.8374C25.3494 75.4487 25.7907 75.1334 26.3371 74.8918C26.894 74.6396 27.4299 74.5135 27.9447 74.5135C28.7118 74.5135 29.3947 74.6764 29.9937 75.0021C30.6031 75.3278 31.0759 75.7796 31.4121 76.3575C31.7484 76.9249 31.9165 77.5817 31.9165 78.3277C31.9165 79.0737 31.7484 79.7409 31.4121 80.3293C31.0759 80.9072 30.6031 81.3643 29.9937 81.7005C29.3947 82.0263 28.7118 82.1891 27.9447 82.1891C27.3458 82.1891 26.7784 82.063 26.2425 81.8109C25.7172 81.5587 25.2706 81.2067 24.9028 80.7549C24.5351 80.3031 24.2829 79.7935 24.1463 79.2261L25.5963 78.8951C25.7224 79.4415 26.0009 79.8933 26.4317 80.2505C26.873 80.6078 27.3773 80.7864 27.9447 80.7864C28.4175 80.7864 28.8431 80.6813 29.2214 80.4712C29.5996 80.261 29.8938 79.9668 30.104 79.5886C30.3141 79.2103 30.4192 78.79 30.4192 78.3277C30.4192 77.8548 30.3141 77.4398 30.104 77.0826C29.8938 76.7148 29.5996 76.4311 29.2214 76.2315C28.8431 76.0213 28.4175 75.9162 27.9447 75.9162C27.6295 75.9162 27.3038 76.0003 26.9675 76.1684C26.6313 76.3365 26.3476 76.5519 26.1164 76.8146L25.0132 75.8374ZM24.6191 76.6097L24.9974 70.589H30.9866V71.8972H26.4317L26.1164 76.8146L24.6191 76.6097Z" fill="#231815"/>
<path d="M31.1682 97.4696H32.697V98.7777H31.1682V101.82H29.6709V98.7777H24.7219L24.5643 97.4696L29.7339 90.3771H31.1682V97.4696ZM29.6709 97.4696V92.8989L26.361 97.4696H29.6709Z" fill="#231815"/>
<path d="M30.2044 115.72C30.6982 116.014 31.0923 116.413 31.3865 116.918C31.6912 117.411 31.8435 117.905 31.8435 118.399C31.8435 119.04 31.6807 119.613 31.355 120.117C31.0292 120.621 30.5774 121.015 29.9995 121.299C29.4216 121.583 28.7596 121.725 28.0136 121.725C27.2781 121.725 26.6214 121.583 26.0435 121.299C25.4761 121.005 25.0295 120.6 24.7038 120.086C24.3781 119.571 24.2152 118.988 24.2152 118.336H25.7125C25.7125 118.735 25.8071 119.093 25.9962 119.408C26.1958 119.713 26.469 119.954 26.8158 120.133C27.173 120.311 27.5776 120.401 28.0294 120.401C28.4812 120.401 28.8857 120.311 29.243 120.133C29.6002 119.954 29.8787 119.713 30.0783 119.408C30.2779 119.093 30.3778 118.735 30.3778 118.336C30.3778 117.947 30.2779 117.606 30.0783 117.312C29.8787 117.007 29.6002 116.77 29.243 116.602C28.8962 116.434 28.4969 116.35 28.0451 116.35H27.2256V115.074H28.0609C28.4812 115.074 28.8542 114.995 29.1799 114.837C29.5057 114.68 29.7578 114.469 29.9365 114.207C30.1151 113.934 30.2044 113.618 30.2044 113.261C30.2044 112.715 30.01 112.273 29.6212 111.937C29.243 111.59 28.7439 111.417 28.1239 111.417C27.7142 111.417 27.3516 111.496 27.0364 111.653C26.7317 111.811 26.49 112.032 26.3114 112.315C26.1328 112.599 26.0435 112.92 26.0435 113.277H24.5462C24.5462 112.657 24.6985 112.105 25.0032 111.622C25.308 111.139 25.7283 110.766 26.2641 110.503C26.8105 110.23 27.4305 110.093 28.1239 110.093C28.8069 110.093 29.4163 110.23 29.9522 110.503C30.4881 110.766 30.9084 111.133 31.2131 111.606C31.5178 112.079 31.6702 112.615 31.6702 113.214C31.6702 113.655 31.5388 114.112 31.2761 114.585C31.0135 115.047 30.6562 115.426 30.2044 115.72Z" fill="#231815"/>
<path d="M24.5117 140.133C24.7744 139.881 25.0213 139.655 25.2525 139.455C25.4836 139.245 25.7358 139.014 26.009 138.762C26.8916 137.963 27.5956 137.296 28.121 136.76C28.6569 136.224 29.1087 135.678 29.4764 135.121C29.8442 134.554 30.0281 134.028 30.0281 133.545C30.0281 133.093 29.9388 132.694 29.7601 132.347C29.592 132 29.3503 131.727 29.0351 131.527C28.7199 131.328 28.3574 131.228 27.9476 131.228C27.4853 131.228 27.044 131.386 26.6237 131.701C26.2139 132.006 25.8987 132.394 25.678 132.867L24.3541 132.3C24.6588 131.585 25.1474 131.002 25.8199 130.55C26.5028 130.098 27.2121 129.873 27.9476 129.873C28.6516 129.873 29.2715 130.03 29.8074 130.345C30.3433 130.65 30.7636 131.081 31.0683 131.638C31.373 132.195 31.5254 132.83 31.5254 133.545C31.5254 134.238 31.31 134.942 30.8792 135.657C30.4484 136.361 29.9335 137.018 29.3346 137.627C28.7357 138.226 27.9581 138.946 27.0019 139.786C26.4556 140.259 25.9617 140.7 25.5204 141.11L24.5117 140.133ZM24.5117 140.133H31.7145V141.441H24.6693L24.5117 140.133Z" fill="#231815"/>
<path d="M29.5964 161.23L28.0991 161.214V151.426L26.1763 152.577L25.4986 151.348L28.1149 149.803H29.5964V161.23Z" fill="#231815"/>
<path d="M188.838 74.8198H37.9766" stroke="#D8CCA5" stroke-width="0.693486" stroke-linecap="round"/>
<path d="M188.838 94.6963H37.9766" stroke="#D8CCA5" stroke-width="0.693486" stroke-linecap="round"/>
<path d="M188.838 114.595H37.9766" stroke="#D8CCA5" stroke-width="0.693486" stroke-linecap="round"/>
<path d="M188.838 134.495H37.9766" stroke="#D8CCA5" stroke-width="0.693486" stroke-linecap="round"/>
<path d="M37.9766 74.8198V154.372H188.838" stroke="#B39E4F" stroke-width="0.693486" stroke-linecap="round"/>
<path d="M107.845 145.043L37.9766 74.8198" stroke="#8DC986" stroke-width="1.38697"/>
<path d="M116.112 153.33L109.331 138.683L101.486 146.483L116.112 153.33Z" fill="#8DC986"/>
<path d="M123.733 157.296C125.417 157.296 126.769 155.945 126.769 154.26C126.769 152.576 125.417 151.225 123.733 151.225C122.049 151.225 120.697 152.576 120.697 154.26C120.697 155.945 122.049 157.296 123.733 157.296Z" fill="#898989"/>
<path d="M74.6541 205.367C74.6541 215.604 66.3665 223.892 56.1288 223.892C45.8912 223.892 37.6035 215.604 37.6035 205.367C37.6035 195.129 45.8912 186.841 56.1288 186.841C66.3665 186.841 74.6541 195.129 74.6541 205.367Z" fill="#DDDDDD"/>
<path d="M58.0115 212.79L53.912 213.189C54.5989 216.491 53.6682 217.444 52.9148 217.732C51.8511 220.723 52.5824 222.74 53.8898 223.737C54.6211 223.825 55.3966 223.892 56.15 223.892C56.9478 223.892 57.7455 223.825 58.5211 223.737C59.8064 222.717 60.5155 220.745 59.5405 217.754C57.6348 217.178 58.0115 214.386 58.0115 212.79Z" fill="#F2AC71"/>
<g style="mix-blend-mode:multiply" opacity="0.7">
<mask id="mask0_3860_33976" style="mask-type:luminance" maskUnits="userSpaceOnUse" x="53" y="212" width="6" height="5">
<path d="M58.0123 212.79H53.8906V216.712H58.0123V212.79Z" fill="white"/>
</mask>
<g mask="url(#mask0_3860_33976)">
<mask id="mask1_3860_33976" style="mask-type:luminance" maskUnits="userSpaceOnUse" x="53" y="212" width="6" height="5">
<path d="M58.0123 212.791H53.8906V216.713H58.0123V212.791Z" fill="white"/>
</mask>
<g mask="url(#mask1_3860_33976)">
<path d="M53.8913 216.713C54.1794 216.026 54.268 214.94 53.8913 213.19L57.9908 212.791C57.9908 213.456 57.9244 214.342 57.9908 215.184C57.1709 215.694 54.8442 216.492 53.8691 216.713" fill="#EF9D78"/>
</g>
</g>
</g>
<path d="M48.1511 202.221C44.118 200.271 45.0044 207.916 48.5499 208.558C48.705 208.093 48.1511 202.221 48.1511 202.221Z" fill="#F2AC71"/>
<path d="M64.1056 202.264C68.05 200.137 67.7841 207.427 63.3965 208.336C63.2192 207.893 64.1056 202.264 64.1056 202.264Z" fill="#F2AC71"/>
<path d="M63.973 196.282C63.2639 190.808 47.6414 195.861 47.6414 195.861C47.3312 201.844 47.5528 208.58 48.3948 211.483C49.0818 213.81 53.2699 215.538 54.8432 215.605C56.8154 215.693 61.5575 213.765 62.5326 212.214C62.9979 211.483 64.2167 208.469 64.2832 203.838C64.3053 201.268 64.2167 198.187 63.973 196.282Z" fill="#F2AC71"/>
<g style="mix-blend-mode:multiply" opacity="0.4">
<mask id="mask2_3860_33976" style="mask-type:luminance" maskUnits="userSpaceOnUse" x="47" y="193" width="17" height="23">
<path d="M63.1543 193.756H47.5098V215.628H63.1543V193.756Z" fill="white"/>
</mask>
<g mask="url(#mask2_3860_33976)">
<mask id="mask3_3860_33976" style="mask-type:luminance" maskUnits="userSpaceOnUse" x="47" y="193" width="17" height="23">
<path d="M63.1543 193.735H47.5098V215.607H63.1543V193.735Z" fill="white"/>
</mask>
<g mask="url(#mask3_3860_33976)">
<path d="M48.9951 211.839C47.4661 208.781 47.7542 196.638 48.973 196.593C51.4991 194.643 52.5849 199.895 62.6896 195.618C62.601 195.596 62.8004 195.286 63.155 194.798C59.8089 191.962 47.6434 195.884 47.6434 195.884C47.3331 201.867 47.5547 208.604 48.3968 211.507C49.0837 213.811 53.2719 215.562 54.8452 215.628C52.9838 215.274 50.0145 213.9 48.9951 211.839Z" fill="#F2AC71"/>
</g>
</g>
</g>
<g style="mix-blend-mode:screen" opacity="0.3">
<mask id="mask4_3860_33976" style="mask-type:luminance" maskUnits="userSpaceOnUse" x="55" y="195" width="10" height="21">
<path d="M64.2838 195.594H55.9297V215.515H64.2838V195.594Z" fill="white"/>
</mask>
<g mask="url(#mask4_3860_33976)">
<mask id="mask5_3860_33976" style="mask-type:luminance" maskUnits="userSpaceOnUse" x="55" y="195" width="10" height="21">
<path d="M64.2838 195.593H55.9297V215.514H64.2838V195.593Z" fill="white"/>
</mask>
<g mask="url(#mask5_3860_33976)">
<path d="M62.6877 195.593C63.9951 199.803 63.8843 210.152 61.8678 212.456C61.0922 213.342 57.6131 214.96 55.9512 215.514C58.2114 215.115 61.7348 213.52 62.5547 212.212C62.9979 211.481 64.2388 208.467 64.3053 203.836C64.3496 201.266 64.2388 198.185 63.9951 196.28C63.9951 196.213 63.9729 196.147 63.9508 196.08L62.6877 195.593Z" fill="#F2AC71"/>
</g>
</g>
</g>
<g style="mix-blend-mode:multiply" opacity="0.08">
<mask id="mask6_3860_33976" style="mask-type:luminance" maskUnits="userSpaceOnUse" x="57" y="203" width="7" height="7">
<path d="M63.5308 203.659H57.3262V209.93H63.5308V203.659Z" fill="white"/>
</mask>
<g mask="url(#mask6_3860_33976)">
<mask id="mask7_3860_33976" style="mask-type:luminance" maskUnits="userSpaceOnUse" x="57" y="203" width="7" height="7">
<path d="M60.4503 203.659C59.0099 203.659 57.7026 204.7 57.3923 206.185C57.0378 207.891 58.1014 209.531 59.7855 209.863C59.985 209.908 60.1844 209.93 60.3838 209.93C61.8242 209.93 63.1316 208.888 63.4418 207.404C63.7964 205.697 62.7328 204.058 61.0486 203.725C60.8492 203.681 60.6497 203.659 60.4503 203.659Z" fill="white"/>
</mask>
<g mask="url(#mask7_3860_33976)">
<path d="M57.3467 202.354L55.8496 209.692L63.5792 211.269L65.0763 203.93L57.3467 202.354Z" fill="url(#paint0_radial_3860_33976)"/>
</g>
</g>
</g>
<g style="mix-blend-mode:multiply" opacity="0.08">
<mask id="mask8_3860_33976" style="mask-type:luminance" maskUnits="userSpaceOnUse" x="47" y="203" width="7" height="7">
<path d="M53.1818 203.525H47.5977V209.796H53.1818V203.525Z" fill="white"/>
</mask>
<g mask="url(#mask8_3860_33976)">
<mask id="mask9_3860_33976" style="mask-type:luminance" maskUnits="userSpaceOnUse" x="47" y="203" width="7" height="7">
<path d="M47.5977 204.833C47.6641 206.339 47.7749 207.735 47.93 208.932C48.3289 209.331 48.8607 209.619 49.459 209.752C49.6585 209.796 49.8579 209.818 50.0573 209.818C51.4977 209.818 52.8051 208.777 53.1153 207.292C53.1597 207.071 53.1818 206.871 53.1818 206.672V206.628C53.1818 205.187 52.1625 203.902 50.7221 203.614C50.5227 203.57 50.3233 203.547 50.1239 203.547C49.1267 203.547 48.1738 204.057 47.5977 204.855" fill="white"/>
</mask>
<g mask="url(#mask9_3860_33976)">
<path d="M47.5835 203.261L47.2891 209.769L53.1553 210.034L53.4497 203.526L47.5835 203.261Z" fill="url(#paint1_radial_3860_33976)"/>
</g>
</g>
</g>
<g style="mix-blend-mode:multiply" opacity="0.8">
<mask id="mask10_3860_33976" style="mask-type:luminance" maskUnits="userSpaceOnUse" x="52" y="210" width="7" height="2">
<path d="M58.4566 210.687H52.1855V211.75H58.4566V210.687Z" fill="white"/>
</mask>
<g mask="url(#mask10_3860_33976)">
<mask id="mask11_3860_33976" style="mask-type:luminance" maskUnits="userSpaceOnUse" x="52" y="210" width="7" height="2">
<path d="M58.4566 210.688H52.1855V211.751H58.4566V210.688Z" fill="white"/>
</mask>
<g mask="url(#mask11_3860_33976)">
<path d="M58.4345 210.688C57.4817 211.264 54.0248 212.017 52.1855 210.865C53.6038 212.128 56.4844 212.039 58.4566 210.732V210.688H58.4345Z" fill="#BF5E1D"/>
</g>
</g>
</g>
<g style="mix-blend-mode:multiply" opacity="0.4">
<mask id="mask12_3860_33976" style="mask-type:luminance" maskUnits="userSpaceOnUse" x="52" y="203" width="4" height="7">
<path d="M55.8173 203.525H52.582V209.952H55.8173V203.525Z" fill="white"/>
</mask>
<g mask="url(#mask12_3860_33976)">
<mask id="mask13_3860_33976" style="mask-type:luminance" maskUnits="userSpaceOnUse" x="52" y="203" width="4" height="7">
<path d="M55.8173 203.524H52.582V209.95H55.8173V203.524Z" fill="white"/>
</mask>
<g mask="url(#mask13_3860_33976)">
<path d="M54.4203 203.7C54.3095 204.409 53.7334 206.226 53.4232 207.046C52.9578 208.221 52.426 208.908 52.6476 209.306C53.0243 209.949 54.0436 210.015 54.6419 209.927C55.1294 209.86 55.7277 209.572 55.8163 209.417C55.8163 209.351 55.8385 209.306 55.8163 209.262C55.8163 209.262 54.0658 209.572 53.5561 208.775C53.3567 208.464 54.3317 206.714 54.6198 203.545L54.4203 203.722V203.7Z" fill="#F2AC71"/>
</g>
</g>
</g>
<g style="mix-blend-mode:multiply" opacity="0.5">
<mask id="mask14_3860_33976" style="mask-type:luminance" maskUnits="userSpaceOnUse" x="53" y="203" width="3" height="7">
<path d="M55.8421 203.484H53.2051V209.511H55.8421V203.484Z" fill="white"/>
</mask>
<g mask="url(#mask14_3860_33976)">
<mask id="mask15_3860_33976" style="mask-type:luminance" maskUnits="userSpaceOnUse" x="53" y="203" width="3" height="7">
<path d="M55.8421 203.484H53.2051V209.511H55.8421V203.484Z" fill="white"/>
</mask>
<g mask="url(#mask15_3860_33976)">
<path d="M54.5327 203.707C54.5105 204.882 54.1338 205.834 53.8236 206.942C53.7128 207.341 53.2032 208.516 53.2253 208.693C53.3361 209.313 54.289 209.535 54.8873 209.491C55.1975 209.491 55.5299 209.336 55.8401 209.247C55.8401 209.181 55.8401 209.247 55.8401 209.181C55.8401 209.181 53.9123 209.557 53.5799 208.693C53.4912 208.471 54.5992 205.768 54.6435 203.463C54.6435 203.463 54.577 203.619 54.5327 203.685" fill="#A05C37"/>
</g>
</g>
</g>
<g style="mix-blend-mode:screen" opacity="0.15">
<mask id="mask16_3860_33976" style="mask-type:luminance" maskUnits="userSpaceOnUse" x="53" y="203" width="3" height="6">
<path d="M55.8414 203.993H53.8027V208.956H55.8414V203.993Z" fill="white"/>
</mask>
<g mask="url(#mask16_3860_33976)">
<mask id="mask17_3860_33976" style="mask-type:luminance" maskUnits="userSpaceOnUse" x="53" y="203" width="3" height="6">
<path d="M55.8414 203.993H53.8027V208.956H55.8414V203.993Z" fill="white"/>
</mask>
<g mask="url(#mask17_3860_33976)">
<path d="M54.911 204.014C54.911 204.014 54.4678 206.828 53.8252 208.335C53.6701 208.712 54.7781 209.266 55.7309 208.778C56.0633 208.623 55.6201 203.659 54.8889 204.014" fill="#F2AC71"/>
</g>
</g>
</g>
<g style="mix-blend-mode:multiply" opacity="0.4">
<mask id="mask18_3860_33976" style="mask-type:luminance" maskUnits="userSpaceOnUse" x="58" y="202" width="3" height="4">
<path d="M60.7166 202.953H58.4785V205.302H60.7166V202.953Z" fill="white"/>
</mask>
<g mask="url(#mask18_3860_33976)">
<mask id="mask19_3860_33976" style="mask-type:luminance" maskUnits="userSpaceOnUse" x="58" y="202" width="3" height="4">
<path d="M60.7166 202.955H58.4785V205.303H60.7166V202.955Z" fill="white"/>
</mask>
<g mask="url(#mask19_3860_33976)">
<path d="M60.694 204.173C60.6718 204.815 60.14 205.325 59.5195 205.281C58.8991 205.258 58.4337 204.704 58.4558 204.062C58.478 203.419 59.0098 202.91 59.6303 202.954C60.2507 202.976 60.7161 203.53 60.694 204.173Z" fill="#F2AC71"/>
</g>
</g>
</g>
<path d="M60.428 204.324C60.4058 204.878 59.9848 205.299 59.5195 205.277C59.0541 205.255 58.6995 204.789 58.7217 204.235C58.7438 203.681 59.1649 203.26 59.6302 203.283C60.0956 203.305 60.4502 203.77 60.428 204.324Z" fill="#724B30"/>
<path d="M60.2058 203.86C60.2058 204.015 60.095 204.148 59.962 204.148C59.8512 204.148 59.7405 203.993 59.7626 203.837C59.7626 203.66 59.8735 203.549 60.0064 203.549C60.1172 203.549 60.228 203.704 60.2058 203.86Z" fill="white"/>
<path d="M61.758 201.622C61.337 201.156 58.2568 200.492 57.304 200.868C57.1267 201.134 57.0602 201.866 57.3261 202.198C58.146 202.131 61.1375 202.309 61.6694 202.442C61.8466 202.087 61.7802 201.666 61.758 201.622Z" fill="#895D3F"/>
<g style="mix-blend-mode:multiply" opacity="0.4">
<mask id="mask20_3860_33976" style="mask-type:luminance" maskUnits="userSpaceOnUse" x="50" y="202" width="3" height="4">
<path d="M52.3397 202.907H50.1016V205.256H52.3397V202.907Z" fill="white"/>
</mask>
<g mask="url(#mask20_3860_33976)">
<mask id="mask21_3860_33976" style="mask-type:luminance" maskUnits="userSpaceOnUse" x="50" y="202" width="3" height="4">
<path d="M52.3397 202.907H50.1016V205.256H52.3397V202.907Z" fill="white"/>
</mask>
<g mask="url(#mask21_3860_33976)">
<path d="M52.3404 204.147C52.3183 204.79 51.7864 205.3 51.1659 205.255C50.5455 205.233 50.0802 204.679 50.1023 204.036C50.1245 203.394 50.6563 202.884 51.2768 202.928C51.8972 202.951 52.3626 203.505 52.3404 204.147Z" fill="#F2AC71"/>
</g>
</g>
</g>
<path d="M52.0731 204.304C52.0509 204.858 51.6299 205.279 51.1645 205.256C50.6992 205.234 50.3225 204.769 50.3668 204.215C50.389 203.661 50.81 203.24 51.2754 203.262C51.7407 203.262 52.1174 203.75 52.0731 204.304Z" fill="#724B30"/>
<path d="M51.8529 203.838C51.8529 203.993 51.742 204.126 51.6091 204.126C51.4761 204.126 51.3875 203.971 51.4096 203.815C51.4096 203.638 51.5204 203.527 51.6534 203.527C51.7863 203.527 51.875 203.682 51.8529 203.838Z" fill="white"/>
<path d="M49.0374 201.556C49.3033 201.157 52.0068 200.537 52.6937 200.913C52.8267 201.179 52.9375 201.888 52.6937 202.198C51.6965 202.176 49.8795 202.331 49.0596 202.442C48.8823 202.287 49.0152 201.6 49.0374 201.556Z" fill="#895D3F"/>
<path d="M63.9064 192.846C63.8178 188.17 48.3284 189.234 48.3062 192.58C45.8908 192.957 46.2675 199.516 46.6664 201.909C47.1317 202.175 47.5528 205.144 47.6193 205.853C47.7522 203.394 47.1318 199.117 48.2397 196.857C51.187 193.112 51.8074 199.715 62.6655 195.594C62.6655 195.594 64.1059 198.12 63.8178 202.241C63.8178 202.241 64.1502 205.344 64.1724 205.809C64.3053 205.078 65.0587 201.909 65.8122 201.953C65.8122 201.953 67.5849 194.818 63.9064 192.868" fill="#895D3F"/>
<path d="M60.2724 218.086L55.8405 222.695L51.7189 218.285C50.2785 219.039 48.1955 220.191 47.3091 220.878C47.1319 220.967 46.9768 221.144 46.7773 221.388C49.5251 222.983 52.6939 223.914 56.1064 223.914C59.519 223.914 62.8872 222.939 65.6793 221.255C65.4799 220.989 65.3248 220.789 65.1696 220.656C63.9287 219.881 61.6685 218.773 60.2502 218.108" fill="#4075A0"/>
<g style="mix-blend-mode:multiply" opacity="0.3">
<mask id="mask22_3860_33976" style="mask-type:luminance" maskUnits="userSpaceOnUse" x="57" y="218" width="4" height="4">
<path d="M60.9372 218.088H57.6133V221.523H60.9372V218.088Z" fill="white"/>
</mask>
<g mask="url(#mask22_3860_33976)">
<mask id="mask23_3860_33976" style="mask-type:luminance" maskUnits="userSpaceOnUse" x="57" y="218" width="4" height="4">
<path d="M60.9372 218.089H57.6133V221.524H60.9372V218.089Z" fill="white"/>
</mask>
<g mask="url(#mask23_3860_33976)">
<path d="M57.6133 220.859C57.9678 221.236 58.2337 221.524 58.2337 221.524L60.9372 218.399C60.6934 218.288 60.4719 218.178 60.2724 218.089L57.6133 220.859Z" fill="#33300B"/>
</g>
</g>
</g>
<g style="mix-blend-mode:multiply" opacity="0.3">
<mask id="mask24_3860_33976" style="mask-type:luminance" maskUnits="userSpaceOnUse" x="51" y="218" width="4" height="4">
<path d="M54.2455 218.267H51.1875V221.679H54.2455V218.267Z" fill="white"/>
</mask>
<g mask="url(#mask24_3860_33976)">
<mask id="mask25_3860_33976" style="mask-type:luminance" maskUnits="userSpaceOnUse" x="51" y="218" width="4" height="4">
<path d="M54.2455 218.268H51.1875V221.681H54.2455V218.268Z" fill="white"/>
</mask>
<g mask="url(#mask25_3860_33976)">
<path d="M51.7422 218.268C51.5649 218.357 51.3655 218.467 51.166 218.578C52.0302 219.797 53.5815 221.681 53.5815 221.681C53.5815 221.681 53.8695 221.348 54.224 220.949L51.7422 218.268Z" fill="#33300B"/>
</g>
</g>
</g>
<path d="M58.9869 216.823C58.9869 216.823 56.5715 219.106 55.8402 219.926L53.2697 216.956C53.2697 216.956 51.2754 218.33 51.2754 218.397C51.2754 218.397 53.3141 221.034 53.58 221.299C53.6908 221.189 53.9789 220.878 54.0675 220.768L55.8624 222.695L57.7459 220.701C57.7459 220.701 58.1005 221.078 58.2334 221.211C58.6544 220.812 60.9369 218.175 60.9369 218.175C60.9369 218.175 59.4079 217.045 58.9869 216.845" fill="white"/>
<g style="mix-blend-mode:multiply" opacity="0.3">
<mask id="mask26_3860_33976" style="mask-type:luminance" maskUnits="userSpaceOnUse" x="54" y="219" width="4" height="4">
<path d="M57.7461 219.592H54.0898V222.695H57.7461V219.592Z" fill="white"/>
</mask>
<g mask="url(#mask26_3860_33976)">
<mask id="mask27_3860_33976" style="mask-type:luminance" maskUnits="userSpaceOnUse" x="54" y="219" width="4" height="4">
<path d="M57.7461 219.592H54.0898V222.695H57.7461V219.592Z" fill="white"/>
</mask>
<g mask="url(#mask27_3860_33976)">
<path d="M56.661 219.592L55.8633 220.168L55.1099 219.637L54.0684 220.767L55.8633 222.695L57.7468 220.7C57.7468 220.7 56.7275 219.659 56.661 219.592Z" fill="#A67C52"/>
</g>
</g>
</g>
<g style="mix-blend-mode:multiply" opacity="0.2">
<mask id="mask28_3860_33976" style="mask-type:luminance" maskUnits="userSpaceOnUse" x="56" y="219" width="2" height="2">
<path d="M57.7461 219.592H56.5273V220.833H57.7461V219.592Z" fill="white"/>
</mask>
<g mask="url(#mask28_3860_33976)">
<mask id="mask29_3860_33976" style="mask-type:luminance" maskUnits="userSpaceOnUse" x="56" y="219" width="2" height="2">
<path d="M57.7461 219.592H56.5273V220.833H57.7461V219.592Z" fill="white"/>
</mask>
<g mask="url(#mask29_3860_33976)">
<path d="M56.6603 219.592L56.5273 219.703C56.8597 220.058 57.2807 220.479 57.6131 220.855L57.7461 220.7C57.7461 220.7 56.7268 219.659 56.6603 219.592Z" fill="#33300B"/>
</g>
</g>
</g>
<g style="mix-blend-mode:multiply" opacity="0.2">
<mask id="mask30_3860_33976" style="mask-type:luminance" maskUnits="userSpaceOnUse" x="54" y="219" width="2" height="2">
<path d="M55.2643 219.639H54.0898V220.946H55.2643V219.639Z" fill="white"/>
</mask>
<g mask="url(#mask30_3860_33976)">
<mask id="mask31_3860_33976" style="mask-type:luminance" maskUnits="userSpaceOnUse" x="54" y="219" width="2" height="2">
<path d="M55.2865 219.64H54.0898V220.947H55.2865V219.64Z" fill="white"/>
</mask>
<g mask="url(#mask31_3860_33976)">
<path d="M55.1099 219.64L54.0684 220.77L54.2234 220.926C54.578 220.527 54.9768 220.039 55.2649 219.729L55.1099 219.618V219.64Z" fill="#33300B"/>
</g>
</g>
</g>
<defs>
<radialGradient id="paint0_radial_3860_33976" cx="0" cy="0" r="1" gradientUnits="userSpaceOnUse" gradientTransform="translate(61.4564 206.102) rotate(11.53) scale(3.08017 3.14664)">
<stop stop-color="#DE4031"/>
<stop offset="0.11" stop-color="#DE4435"/>
<stop offset="0.25" stop-color="#E15144"/>
<stop offset="0.39" stop-color="#E4675B"/>
<stop offset="0.55" stop-color="#EA867D"/>
<stop offset="0.71" stop-color="#F1ADA7"/>
<stop offset="0.87" stop-color="#F9DDDA"/>
<stop offset="0.97" stop-color="white"/>
<stop offset="1" stop-color="white"/>
</radialGradient>
<radialGradient id="paint1_radial_3860_33976" cx="0" cy="0" r="1" gradientUnits="userSpaceOnUse" gradientTransform="translate(49.8516 206.938) rotate(2.59) scale(2.99153)">
<stop stop-color="#DE4031"/>
<stop offset="0.11" stop-color="#DE4435"/>
<stop offset="0.25" stop-color="#E15144"/>
<stop offset="0.39" stop-color="#E4675B"/>
<stop offset="0.55" stop-color="#EA867D"/>
<stop offset="0.71" stop-color="#F1ADA7"/>
<stop offset="0.87" stop-color="#F9DDDA"/>
<stop offset="0.97" stop-color="white"/>
<stop offset="1" stop-color="white"/>
</radialGradient>
</defs>
</svg>
