<svg width="63" height="68" viewBox="0 0 63 68" fill="none" xmlns="http://www.w3.org/2000/svg">
<g clip-path="url(#clip0_1485_3355)">
<path d="M30.078 0.0397107C12.6874 0.889711 -0.765752 15.1549 -0.000126906 31.9332C0.218623 36.2941 1.38529 40.3962 3.28112 44.0919C13.4165 66.6354 41.8176 68.0397 41.8176 68.0397C37.6978 65.8593 35.328 63.1984 33.9426 60.7223C50.8228 59.3919 63.729 45.3484 62.9634 28.9028C62.1978 12.0875 47.4686 -0.810289 30.078 0.0397107Z" fill="#BD94C2"/>
<path d="M19.4323 28.5283C19.4323 28.9349 19.5052 29.3044 19.6146 29.6001C19.724 29.8957 20.0885 30.0805 20.7083 30.0805H24.026C24.5365 30.0805 24.901 30.2283 25.1198 30.524C25.3385 30.8196 25.4844 31.1153 25.4844 31.4479C25.4844 31.8175 25.3385 32.1501 25.0833 32.4457C24.8281 32.7414 24.4635 32.8522 24.026 32.8522H11.9948C11.5573 32.8522 11.2292 32.7044 10.974 32.4457C10.7187 32.1501 10.6094 31.8175 10.6094 31.4479C10.6094 31.1153 10.7187 30.8196 10.974 30.524C11.1927 30.2283 11.5573 30.0805 12.0312 30.0805H15.2396C15.8594 30.0805 16.224 29.9327 16.3333 29.6001C16.4427 29.3044 16.5156 28.9349 16.5156 28.5283V27.124C16.5156 27.124 16.5156 26.9392 16.5521 26.8653C15.4583 26.6066 14.5833 26.0153 13.8542 25.1653C13.125 24.2783 12.7969 23.2805 12.7969 22.0979C12.7969 21.137 13.0156 20.287 13.4896 19.5849H12.4687C11.5573 19.5849 11.1198 19.1414 11.1198 18.2175C11.1198 17.2935 11.5573 16.8501 12.4687 16.8501H15.8229C16.2604 16.8501 16.4792 16.5544 16.4792 15.9262V14.1522C16.4792 13.7457 16.625 13.4131 16.9167 13.1175C17.2083 12.8588 17.5729 12.7109 17.974 12.7109C18.375 12.7109 18.7396 12.8588 18.9948 13.1175C19.2865 13.3762 19.3958 13.7088 19.3958 14.1522V15.8892C19.3958 16.2588 19.3958 16.5175 19.5052 16.6283C19.5781 16.7392 19.7604 16.8131 20.0521 16.8501H23.3333C23.7344 16.8501 24.099 16.9609 24.3542 17.2196C24.6458 17.4783 24.7552 17.8109 24.7552 18.2175C24.7552 18.624 24.6094 18.9566 24.3542 19.2153C24.0625 19.474 23.7344 19.5849 23.3333 19.5849H22.3854C22.6042 19.8435 22.7865 20.2501 22.9323 20.7675C23.0781 21.2849 23.1146 21.7283 23.1146 22.1348C23.1146 23.3175 22.75 24.3522 22.0573 25.2022C21.3281 26.0522 20.4531 26.6435 19.3594 26.9392C19.3594 27.0131 19.3958 27.124 19.4323 27.1979C19.4323 27.2718 19.4323 27.3827 19.4323 27.4566V28.6022V28.5283ZM15.4219 21.9501C15.4219 22.6522 15.6771 23.2435 16.1875 23.6501C16.6979 24.0935 17.2812 24.2783 17.974 24.2783C18.6667 24.2783 19.1771 24.0566 19.651 23.6501C20.125 23.2066 20.3802 22.6522 20.3802 21.9501C20.3802 21.2479 20.125 20.6196 19.651 20.1762C19.1771 19.7327 18.5937 19.5109 17.974 19.5109C17.3542 19.5109 16.6979 19.7327 16.1875 20.1762C15.6771 20.6196 15.4219 21.2109 15.4219 21.9501ZM27.6354 35.5501C28.3646 35.5501 28.9479 35.7718 29.4219 36.1783C29.8594 36.5849 30.1146 37.1762 30.1146 37.9522V42.1653C30.1146 42.9044 29.8594 43.4957 29.3854 43.9022C28.875 44.3088 28.3281 44.5305 27.6719 44.5305H24.026C23.4427 44.5305 23.0417 44.7153 22.8229 45.0479C22.6042 45.3805 22.4948 45.7501 22.4948 46.0827V46.4522C22.4948 46.8588 22.6042 47.2653 22.7865 47.7088C23.0052 48.1153 23.4427 48.337 24.1719 48.337H29.0573C29.4583 48.337 29.8229 48.4479 30.0781 48.7066C30.3698 48.9653 30.4792 49.2979 30.4792 49.7044C30.4792 50.1109 30.3333 50.4436 30.0781 50.7022C29.7865 50.9609 29.4583 51.0718 29.0573 51.0718H21.9115C21.2552 51.0718 20.7083 50.8501 20.2344 50.4435C19.7604 50.0001 19.5052 49.4457 19.5052 48.7066V44.4566C19.5052 43.6805 19.7604 43.0522 20.2344 42.6088C20.7448 42.1283 21.3281 41.9066 22.0573 41.9066H25.5208C26.1042 41.9066 26.5052 41.7588 26.724 41.4631C26.9427 41.1675 27.0521 40.8348 27.0521 40.4283V40.0218C27.0521 39.6153 26.9427 39.2457 26.724 38.8762C26.5052 38.5435 26.0312 38.3588 25.3385 38.3588H21C20.599 38.3588 20.2344 38.2479 19.9792 37.9892C19.6875 37.7305 19.5781 37.3979 19.5781 36.9914C19.5781 36.5849 19.724 36.2522 19.9792 35.9935C20.2708 35.7348 20.599 35.624 21 35.624H27.5625L27.6354 35.5501ZM26.8698 16.037C26.8698 15.5935 27.0156 15.224 27.2708 14.9653C27.5625 14.7066 27.8906 14.5588 28.3281 14.5588C28.8385 14.5588 29.2396 14.7066 29.4583 14.9653C29.6771 15.2609 29.7865 15.5935 29.7865 16.0001V18.587C29.7865 18.9566 29.8594 19.3262 29.9688 19.6218C30.1146 19.9175 30.4792 20.0653 31.099 20.0653H32.5937C33.1042 20.0653 33.4323 20.2131 33.651 20.5088C33.8698 20.8044 33.9792 21.1001 33.9792 21.4327C33.9792 22.3196 33.5052 22.7631 32.5937 22.7631H31.099C30.5521 22.7631 30.1875 22.874 30.0417 23.1327C29.8958 23.3914 29.7865 23.724 29.7865 24.1305V28.5283C29.7865 28.9349 29.6406 29.3044 29.3854 29.6001C29.0938 29.8957 28.7656 30.0435 28.3646 30.0435C27.9635 30.0435 27.599 29.8957 27.3073 29.6001C27.0156 29.3044 26.8698 28.9349 26.8698 28.5283V16.037Z" fill="white"/>
<path d="M43.276 34.0724C43.276 34.4789 43.349 34.8485 43.4583 35.1442C43.5677 35.4398 43.9323 35.6246 44.5521 35.6246H47.8698C48.3802 35.6246 48.7448 35.7724 48.9635 36.0681C49.1823 36.3637 49.3281 36.6594 49.3281 36.992C49.3281 37.3615 49.1823 37.6942 48.9271 37.9898C48.6719 38.2855 48.3073 38.3963 47.8698 38.3963H35.6198C35.1823 38.3963 34.8542 38.2485 34.599 37.9898C34.3437 37.6942 34.2344 37.3615 34.2344 36.992C34.2344 36.6594 34.3437 36.3637 34.599 36.0681C34.8177 35.7724 35.1823 35.6246 35.6562 35.6246H39.0833C39.7031 35.6246 40.0677 35.4768 40.1771 35.1442C40.2865 34.8485 40.3594 34.4789 40.3594 34.0724V32.9268C40.3594 32.6311 40.4323 32.3355 40.5781 32.0398H38.6823C37.9896 32.0398 37.4062 31.8181 36.9688 31.3376C36.5312 30.8942 36.276 30.2659 36.276 29.5268V23.7985C36.276 23.0594 36.4948 22.4681 36.9688 22.0246C37.4062 21.5811 37.9896 21.3594 38.6823 21.3594H45.901C46.3021 21.3594 46.6667 21.5072 46.9219 21.7659C47.2135 22.0246 47.3229 22.3572 47.3229 22.8007C47.3229 23.2442 47.1771 23.5398 46.9219 23.7985C46.6302 24.0572 46.3021 24.1681 45.901 24.1681H41.0156C40.3594 24.1681 39.8854 24.3529 39.6302 24.7594C39.375 25.1289 39.2292 25.5355 39.2292 25.905V27.2724C39.2292 27.7529 39.3385 28.1963 39.5573 28.6029C39.776 29.0094 40.25 29.2311 40.9792 29.2311H46.0833C46.4844 29.2311 46.8125 29.342 47.1042 29.6007C47.3594 29.8224 47.5052 30.155 47.5052 30.5616C47.5052 31.005 47.3594 31.3376 47.1042 31.5963C46.849 31.855 46.5208 32.0029 46.0833 32.0029H43.0573C43.2396 32.2615 43.3125 32.5572 43.3125 32.8898V34.0355L43.276 34.0724ZM36.0208 45.9355C36.0208 44.3833 36.5677 43.0898 37.6979 42.092C38.7917 41.0942 40.1771 40.5768 41.7812 40.5768C43.3854 40.5768 44.6979 41.0942 45.7917 42.092C46.8854 43.0898 47.4688 44.3833 47.4688 45.9355C47.4688 47.4876 46.9219 48.8181 45.7917 49.8159C44.6979 50.8137 43.349 51.2942 41.7812 51.2942C40.2135 51.2942 38.8281 50.8137 37.6979 49.8159C36.6042 48.8181 36.0208 47.5246 36.0208 45.9355ZM38.901 45.9355C38.901 46.7485 39.1927 47.4137 39.7396 47.8942C40.2865 48.3746 40.9792 48.6333 41.7448 48.6333C42.5104 48.6333 43.1302 48.3746 43.6771 47.8942C44.1875 47.4137 44.4792 46.7485 44.4792 45.9355C44.4792 45.1224 44.224 44.4942 43.6771 43.9768C43.1667 43.4594 42.5104 43.2376 41.7448 43.2376C40.9792 43.2376 40.2865 43.4963 39.7396 43.9768C39.1927 44.4942 38.901 45.1224 38.901 45.9355Z" fill="white"/>
</g>
<defs>
<clipPath id="clip0_1485_3355">
<rect width="63" height="68" fill="white"/>
</clipPath>
</defs>
</svg>
