<svg width="187" height="55" viewBox="0 0 187 55" fill="none" xmlns="http://www.w3.org/2000/svg">
<path d="M53.1269 27.3613C53.1269 41.1771 41.9427 52.3613 28.127 52.3613C14.3112 52.3613 3.12695 41.1771 3.12695 27.3613C3.12695 13.5455 14.3112 2.36133 28.127 2.36133C41.9427 2.36133 53.1269 13.5455 53.1269 27.3613Z" fill="#BBE1F2"/>
<path d="M32.1942 37.2012L24.8078 37.2909C25.7947 41.6569 24.0602 42.8232 22.6846 43.0923C16.3449 54.4261 39.1021 55.383 34.3772 43.182C30.998 42.6438 32.0746 39.2646 32.1942 37.2012Z" fill="#F2AC71"/>
<g style="mix-blend-mode:multiply" opacity="0.7">
<mask id="mask0_3860_37889" style="mask-type:luminance" maskUnits="userSpaceOnUse" x="24" y="37" width="9" height="6">
<path d="M32.1943 37.1982H24.3594V42.1325H32.1943V37.1982Z" fill="white"/>
</mask>
<g mask="url(#mask0_3860_37889)">
<mask id="mask1_3860_37889" style="mask-type:luminance" maskUnits="userSpaceOnUse" x="24" y="37" width="9" height="6">
<path d="M32.1943 37.1953H24.3594V42.1295H32.1943V37.1953Z" fill="white"/>
</mask>
<g mask="url(#mask1_3860_37889)">
<path d="M24.3594 42.1295C25.0472 41.2922 25.406 39.8568 24.8079 37.285L32.1943 37.1953C32.1345 38.1523 31.8952 39.3484 31.955 40.4549C29.9814 41.2922 25.9144 42.0697 24.3594 42.1594" fill="#EF9D78"/>
</g>
</g>
</g>
<path d="M45.9507 28.2294C45.1731 27.2126 44.5451 26.166 44.2461 24.9399C43.8872 23.4447 42.9901 12.2904 37.1588 11.453C30.4004 3.4985 15.2389 9.44945 14.5212 18.032C14.282 21.0822 14.0128 22.9961 12.8765 24.3717C5.66953 32.9841 15.6576 39.4435 19.4853 36.9016C20.6217 36.154 27.41 34.4196 36.7102 37.6492C43.7676 40.1014 48.1038 31.1301 45.9507 28.2294Z" fill="white"/>
<g style="mix-blend-mode:multiply" opacity="0.5">
<mask id="mask2_3860_37889" style="mask-type:luminance" maskUnits="userSpaceOnUse" x="10" y="8" width="37" height="31">
<path d="M46.5182 8.49414H10.334V38.0396H46.5182V8.49414Z" fill="white"/>
</mask>
<g mask="url(#mask2_3860_37889)">
<mask id="mask3_3860_37889" style="mask-type:luminance" maskUnits="userSpaceOnUse" x="10" y="8" width="37" height="31">
<path d="M46.5182 8.49414H10.334V38.0396H46.5182V8.49414Z" fill="white"/>
</mask>
<g mask="url(#mask3_3860_37889)">
<path d="M44.2461 24.9132C43.977 23.8665 43.4686 17.8259 41.0464 14.1775C41.8538 16.4802 42.721 19.8594 41.4351 20.1285C38.9829 20.6668 36.4112 13.7888 36.8298 11.7852C35.8729 15.912 20.8609 19.65 17.9602 16.4503C17.2126 15.6428 15.6875 12.5627 23.7317 8.46582C23.6719 8.46582 23.6121 8.49571 23.5523 8.52562C18.8274 10.1105 14.8801 13.729 14.5212 18.0053C14.282 21.0555 14.0128 22.9694 12.8765 24.345C5.66953 32.9574 15.6576 39.4168 19.4853 36.8749C20.6217 36.1273 27.41 34.3929 36.7102 37.6225C43.7676 40.0747 48.1038 31.1034 45.9507 28.2027C45.1731 27.1859 44.5451 26.1393 44.2461 24.9132Z" fill="#E6E6E6"/>
</g>
</g>
</g>
<path d="M39.9693 24.7902L38.9824 31.5187C39.8197 32.027 42.3018 30.9804 42.8699 28.5582C43.7073 25.1192 41.614 23.6538 39.9693 24.7902Z" fill="#F2AC71"/>
<mask id="mask4_3860_37889" style="mask-type:luminance" maskUnits="userSpaceOnUse" x="13" y="24" width="5" height="8">
<path d="M13.4442 28.5267C14.0124 30.8592 16.4048 31.876 17.2122 31.3676L16.2553 24.8784C15.8964 24.6391 15.5077 24.5195 15.1488 24.5195C13.8928 24.5195 12.8163 25.9549 13.4442 28.5267Z" fill="white"/>
</mask>
<g mask="url(#mask4_3860_37889)">
<path d="M17.2123 24.5195H12.8164V31.876H17.2123V24.5195Z" fill="url(#paint0_linear_3860_37889)"/>
</g>
<path d="M38.8643 16.6269C37.0999 13.2777 31.777 10.2274 26.3045 10.8255C16.5856 11.902 16.3165 19.1688 16.137 24.2525C15.9875 27.9906 16.9145 34.4499 17.8416 36.4236C18.5892 38.0085 23.8224 41.1784 26.8727 41.1784C30.7602 41.1784 36.2028 38.8458 37.2794 36.9319C38.4157 34.9283 38.8643 33.4631 39.4325 30.5922C40.4492 25.3291 40.7483 20.1556 38.8942 16.6269" fill="#F2AC71"/>
<g style="mix-blend-mode:multiply" opacity="0.3">
<mask id="mask5_3860_37889" style="mask-type:luminance" maskUnits="userSpaceOnUse" x="26" y="14" width="15" height="28">
<path d="M40.1183 14.5625H26.6016V41.2072H40.1183V14.5625Z" fill="white"/>
</mask>
<g mask="url(#mask5_3860_37889)">
<mask id="mask6_3860_37889" style="mask-type:luminance" maskUnits="userSpaceOnUse" x="26" y="14" width="15" height="28">
<path d="M36.5298 36.6C35.9616 37.856 31.5059 40.7567 26.6016 41.1754C26.6913 41.1754 26.781 41.1754 26.8408 41.1754C30.7284 41.1754 36.1709 38.8428 37.2475 36.929C38.2343 35.1945 38.7128 33.8189 39.1913 31.606C40.208 26.3428 40.7164 20.1527 38.8324 16.624L35.842 14.5605C39.8193 23.6216 38.2941 32.7723 36.5298 36.6Z" fill="white"/>
</mask>
<g mask="url(#mask6_3860_37889)">
<path d="M40.7164 14.5605H26.6016V41.2053H40.7164V14.5605Z" fill="url(#paint1_linear_3860_37889)"/>
</g>
</g>
</g>
<g style="mix-blend-mode:screen" opacity="0.3">
<mask id="mask7_3860_37889" style="mask-type:luminance" maskUnits="userSpaceOnUse" x="16" y="14" width="20" height="28">
<path d="M35.8423 14.624H16.1055V41.1791H35.8423V14.624Z" fill="white"/>
</mask>
<g mask="url(#mask7_3860_37889)">
<mask id="mask8_3860_37889" style="mask-type:luminance" maskUnits="userSpaceOnUse" x="16" y="14" width="20" height="28">
<path d="M35.8423 14.626H16.1055V41.181H35.8423V14.626Z" fill="white"/>
</mask>
<g mask="url(#mask8_3860_37889)">
<path d="M18.6158 36.1246C17.9879 34.9284 17.3 28.8579 17.629 22.249C22.4436 17.1653 31.684 18.3016 35.8407 14.6533C32.0728 15.1916 18.0177 17.6139 18.1971 16.5074L17.4495 16.4476C16.3132 18.9595 16.1936 21.8603 16.1038 24.2825C15.9543 28.0205 16.8814 34.4799 17.8084 36.4536C18.5261 37.9787 23.5201 41.0588 26.6003 41.2083C24.1481 40.6402 19.5429 37.9189 18.6158 36.1545" fill="#F2AC71"/>
</g>
</g>
</g>
<g style="mix-blend-mode:multiply" opacity="0.08">
<mask id="mask9_3860_37889" style="mask-type:luminance" maskUnits="userSpaceOnUse" x="30" y="24" width="10" height="10">
<path d="M39.3403 24.5186H30.7578V33.1011H39.3403V24.5186Z" fill="white"/>
</mask>
<g mask="url(#mask9_3860_37889)">
<mask id="mask10_3860_37889" style="mask-type:luminance" maskUnits="userSpaceOnUse" x="30" y="24" width="10" height="10">
<path d="M30.7559 28.8248C30.7559 31.1872 32.6697 33.131 35.0621 33.131C37.4544 33.131 39.3683 31.2171 39.3683 28.8248C39.3683 26.4324 37.4544 24.5186 35.0621 24.5186C32.6697 24.5186 30.7559 26.4324 30.7559 28.8248Z" fill="white"/>
</mask>
<g mask="url(#mask10_3860_37889)">
<path d="M39.3384 24.5186H30.7559V33.1011H39.3384V24.5186Z" fill="url(#paint2_radial_3860_37889)"/>
</g>
</g>
</g>
<g style="mix-blend-mode:multiply" opacity="0.08">
<mask id="mask11_3860_37889" style="mask-type:luminance" maskUnits="userSpaceOnUse" x="16" y="24" width="8" height="10">
<path d="M23.5809 24.7861H16.1348V33.3687H23.5809V24.7861Z" fill="white"/>
</mask>
<g mask="url(#mask11_3860_37889)">
<mask id="mask12_3860_37889" style="mask-type:luminance" maskUnits="userSpaceOnUse" x="16" y="24" width="8" height="10">
<path d="M16.1348 26.1942C16.2245 28.2277 16.4936 30.5901 16.8226 32.5937C17.5104 33.1021 18.3776 33.3712 19.3046 33.3712C21.6671 33.3712 23.6108 31.4574 23.6108 29.065C23.6108 26.6727 21.697 24.7588 19.3046 24.7588C18.0486 24.7588 16.9123 25.2971 16.1348 26.1643" fill="white"/>
</mask>
<g mask="url(#mask12_3860_37889)">
<path d="M23.6108 24.7881H16.1348V33.3706H23.6108V24.7881Z" fill="url(#paint3_radial_3860_37889)"/>
</g>
</g>
</g>
<g style="mix-blend-mode:multiply" opacity="0.3">
<mask id="mask13_3860_37889" style="mask-type:luminance" maskUnits="userSpaceOnUse" x="22" y="34" width="9" height="4">
<path d="M30.9979 34.8682H22.834V37.3502H30.9979V34.8682Z" fill="white"/>
</mask>
<g mask="url(#mask13_3860_37889)">
<mask id="mask14_3860_37889" style="mask-type:luminance" maskUnits="userSpaceOnUse" x="22" y="34" width="9" height="4">
<path d="M22.834 34.9563C23.761 35.6142 24.6881 37.3187 26.8711 37.3785C29.5625 37.4384 30.8484 35.1357 30.9979 34.8965C30.7886 34.9563 22.834 34.9862 22.834 34.9862" fill="white"/>
</mask>
<g mask="url(#mask14_3860_37889)">
<path d="M30.9979 34.8691H22.834V37.4409H30.9979V34.8691Z" fill="url(#paint4_linear_3860_37889)"/>
</g>
</g>
</g>
<path d="M22.834 34.9863C24.2395 35.8236 24.4787 36.9301 26.7216 37.0198C29.2335 37.1394 30.639 35.2555 30.8184 35.0461L22.834 34.9863Z" fill="#D67751"/>
<path d="M26.8425 34.5693C24.0614 34.5693 23.6128 35.0777 22.3867 34.6889C22.925 35.5562 29.2348 36.2141 31.4776 34.6291C30.73 35.1375 29.2049 34.5693 26.8425 34.5693Z" fill="#D67751"/>
<g style="mix-blend-mode:multiply" opacity="0.7">
<mask id="mask15_3860_37889" style="mask-type:luminance" maskUnits="userSpaceOnUse" x="22" y="34" width="10" height="2">
<path d="M31.4762 34.5723H22.2656V35.7684H31.4762V34.5723Z" fill="white"/>
</mask>
<g mask="url(#mask15_3860_37889)">
<mask id="mask16_3860_37889" style="mask-type:luminance" maskUnits="userSpaceOnUse" x="22" y="34" width="10" height="2">
<path d="M31.4762 34.5723H22.2656V35.7684H31.4762V34.5723Z" fill="white"/>
</mask>
<g mask="url(#mask16_3860_37889)">
<path d="M31.4757 34.5723C30.758 35.0507 29.4721 35.5591 26.8705 35.5591C24.7772 35.5591 22.9829 34.9012 22.3848 34.6022C22.325 34.5722 22.2353 34.6919 22.2951 34.7218C23.7903 35.5591 25.7939 35.7684 26.8106 35.7983C29.0535 35.8581 31.7449 34.9909 31.5056 34.6022" fill="#BC5C5C"/>
</g>
</g>
</g>
<g style="mix-blend-mode:multiply" opacity="0.3">
<mask id="mask17_3860_37889" style="mask-type:luminance" maskUnits="userSpaceOnUse" x="21" y="33" width="12" height="3">
<path d="M32.0742 33.9414H21.7871V35.1974H32.0742V33.9414Z" fill="white"/>
</mask>
<g mask="url(#mask17_3860_37889)">
<mask id="mask18_3860_37889" style="mask-type:luminance" maskUnits="userSpaceOnUse" x="21" y="33" width="12" height="3">
<path d="M32.1041 33.9727H21.7871V35.2286H32.1041V33.9727Z" fill="white"/>
</mask>
<g mask="url(#mask18_3860_37889)">
<g style="mix-blend-mode:multiply" opacity="0.3">
<mask id="mask19_3860_37889" style="mask-type:luminance" maskUnits="userSpaceOnUse" x="30" y="33" width="3" height="3">
<path d="M32.0756 33.9443H30.7598V35.2003H32.0756V33.9443Z" fill="white"/>
</mask>
<g mask="url(#mask19_3860_37889)">
<mask id="mask20_3860_37889" style="mask-type:luminance" maskUnits="userSpaceOnUse" x="30" y="34" width="3" height="2">
<path d="M30.9392 34.1524C30.9392 34.1524 30.8196 34.7804 30.7598 34.9L30.8794 35.0795C30.8794 35.0795 31.2083 35.229 31.5074 35.229H31.6868C31.6868 35.229 31.8961 35.229 31.926 35.229C32.2251 35.0496 32.1055 34.4515 31.926 34.2422C31.8363 34.1525 31.4774 34.0029 31.2382 34.0029C31.1186 34.0029 30.999 34.0627 30.9691 34.1823" fill="white"/>
</mask>
<g mask="url(#mask20_3860_37889)">
<path d="M32.1989 33.8889L30.7637 33.9092L30.7819 35.1949L32.2171 35.1746L32.1989 33.8889Z" fill="url(#paint5_linear_3860_37889)"/>
</g>
</g>
</g>
<g style="mix-blend-mode:multiply" opacity="0.3">
<mask id="mask21_3860_37889" style="mask-type:luminance" maskUnits="userSpaceOnUse" x="21" y="33" width="2" height="3">
<path d="M22.9534 33.9746H21.7871V35.1708H22.9534V33.9746Z" fill="white"/>
</mask>
<g mask="url(#mask21_3860_37889)">
<mask id="mask22_3860_37889" style="mask-type:luminance" maskUnits="userSpaceOnUse" x="21" y="33" width="2" height="3">
<path d="M21.7871 34.3933C21.7871 34.3933 21.7871 34.483 21.7871 34.5428V34.6325C21.7871 34.8717 21.9067 35.111 22.1459 35.1708C22.2357 35.2007 22.9235 35.0512 22.8637 34.9315L22.9534 34.7222C22.9534 34.7222 22.6244 34.2736 22.5646 34.154C22.5347 34.0344 22.445 33.9746 22.3553 33.9746C22.146 33.9746 21.8768 34.1839 21.817 34.3933" fill="white"/>
</mask>
<g mask="url(#mask22_3860_37889)">
<path d="M22.9298 33.9308L21.7637 33.9473L21.7814 35.2031L22.9476 35.1866L22.9298 33.9308Z" fill="url(#paint6_linear_3860_37889)"/>
</g>
</g>
</g>
</g>
</g>
</g>
<g style="mix-blend-mode:multiply" opacity="0.25">
<mask id="mask23_3860_37889" style="mask-type:luminance" maskUnits="userSpaceOnUse" x="24" y="24" width="6" height="9">
<path d="M29.5631 24.3701H24.1504V32.9825H29.5631V24.3701Z" fill="white"/>
</mask>
<g mask="url(#mask23_3860_37889)">
<mask id="mask24_3860_37889" style="mask-type:luminance" maskUnits="userSpaceOnUse" x="24" y="24" width="6" height="9">
<path d="M25.1349 28.614C24.7163 29.9596 24.1182 30.8269 24.178 31.3353C24.2677 32.3221 26.062 32.8903 26.8096 32.98C27.5572 33.0697 29.4412 32.2324 29.5608 31.0661C29.4711 31.0661 25.434 24.3975 25.434 24.3975C25.5536 25.803 25.5536 27.3281 25.1349 28.6439" fill="white"/>
</mask>
<g mask="url(#mask24_3860_37889)">
<path d="M24.0639 24.1223L23.7168 32.9971L29.4839 33.2227L29.8311 24.3479L24.0639 24.1223Z" fill="url(#paint7_linear_3860_37889)"/>
</g>
</g>
</g>
<g style="mix-blend-mode:multiply" opacity="0.4">
<mask id="mask25_3860_37889" style="mask-type:luminance" maskUnits="userSpaceOnUse" x="24" y="24" width="6" height="9">
<path d="M29.5631 24.3701H24.1504V32.9825H29.5631V24.3701Z" fill="white"/>
</mask>
<g mask="url(#mask25_3860_37889)">
<mask id="mask26_3860_37889" style="mask-type:luminance" maskUnits="userSpaceOnUse" x="24" y="24" width="6" height="9">
<path d="M25.1349 28.614C24.7163 29.9596 24.1182 30.8269 24.178 31.3353C24.2677 32.3221 26.062 32.8903 26.8096 32.98C27.5572 33.0697 29.4412 32.2324 29.5608 31.0661C29.5608 31.0661 28.5141 32.1726 26.8694 32.2324C25.8527 32.2324 24.4471 31.5446 24.5668 31.3053C26.2414 27.6271 25.434 24.3975 25.434 24.3975C25.5536 25.803 25.5536 27.3281 25.1349 28.6439" fill="white"/>
</mask>
<g mask="url(#mask26_3860_37889)">
<path d="M24.0639 24.1223L23.7168 32.9971L29.4839 33.2227L29.8311 24.3479L24.0639 24.1223Z" fill="url(#paint8_linear_3860_37889)"/>
</g>
</g>
</g>
<g style="mix-blend-mode:multiply" opacity="0.3">
<mask id="mask27_3860_37889" style="mask-type:luminance" maskUnits="userSpaceOnUse" x="29" y="29" width="4" height="5">
<path d="M32.5539 29.3652H29.8027V33.8808H32.5539V29.3652Z" fill="white"/>
</mask>
<g mask="url(#mask27_3860_37889)">
<mask id="mask28_3860_37889" style="mask-type:luminance" maskUnits="userSpaceOnUse" x="29" y="29" width="4" height="5">
<path d="M32.524 33.8827C32.524 33.8827 32.524 33.8528 32.524 33.8229C32.524 33.8229 32.524 33.8528 32.524 33.8827ZM32.524 33.8229C32.1652 30.8325 30.0719 29.6064 29.8327 29.3971C30.1018 29.726 32.3446 32.3277 32.524 33.8229ZM29.8027 29.3672C29.8027 29.3672 29.8027 29.3672 29.8027 29.3971C29.8027 29.3971 29.8027 29.3971 29.8027 29.3672Z" fill="white"/>
</mask>
<g mask="url(#mask28_3860_37889)">
<path d="M32.5125 29.1199L29.4141 29.3877L29.8235 34.1248L32.922 33.857L32.5125 29.1199Z" fill="url(#paint9_linear_3860_37889)"/>
</g>
</g>
</g>
<g style="mix-blend-mode:multiply" opacity="0.3">
<mask id="mask29_3860_37889" style="mask-type:luminance" maskUnits="userSpaceOnUse" x="21" y="28" width="4" height="6">
<path d="M24.419 28.9766H21.5781V33.7014H24.419V28.9766Z" fill="white"/>
</mask>
<g mask="url(#mask29_3860_37889)">
<mask id="mask30_3860_37889" style="mask-type:luminance" maskUnits="userSpaceOnUse" x="21" y="28" width="4" height="6">
<path d="M21.5803 33.7034C21.8495 31.7596 24.0026 29.3972 24.3614 29.0383C23.9727 29.3673 21.371 31.1316 21.5803 33.7034ZM24.3614 29.0383C24.3614 29.0383 24.4212 29.0084 24.4212 28.9785C24.4212 28.9785 24.4213 28.9785 24.3614 29.0383Z" fill="white"/>
</mask>
<g mask="url(#mask30_3860_37889)">
<path d="M21.3855 28.8114L21.0938 33.707L24.4073 33.9045L24.699 29.0088L21.3855 28.8114Z" fill="url(#paint10_linear_3860_37889)"/>
</g>
</g>
</g>
<g style="mix-blend-mode:multiply" opacity="0.5">
<mask id="mask31_3860_37889" style="mask-type:luminance" maskUnits="userSpaceOnUse" x="20" y="24" width="3" height="4">
<path d="M22.9536 24.4316H20.6211V27.2427H22.9536V24.4316Z" fill="white"/>
</mask>
<g mask="url(#mask31_3860_37889)">
<mask id="mask32_3860_37889" style="mask-type:luminance" maskUnits="userSpaceOnUse" x="20" y="24" width="3" height="4">
<path d="M21.7867 24.4316C21.1886 24.4316 20.6504 25.0597 20.6205 25.8073C20.5906 26.5848 21.069 27.2427 21.697 27.2726H21.7568C22.3549 27.2726 22.8932 26.6446 22.9231 25.897C22.953 25.1195 22.4745 24.4615 21.8465 24.4316H21.7867Z" fill="white"/>
</mask>
<g mask="url(#mask32_3860_37889)">
<path d="M22.9832 24.4401L20.5312 24.4727L20.5693 27.3432L23.0212 27.3107L22.9832 24.4401Z" fill="url(#paint11_linear_3860_37889)"/>
</g>
</g>
</g>
<path d="M22.7446 25.8665C22.7147 26.6141 22.1465 27.2122 21.5185 27.2122C20.8905 27.2122 20.412 26.5543 20.4718 25.7768C20.5018 25.0292 21.0699 24.4311 21.668 24.461C22.296 24.461 22.7745 25.1189 22.7147 25.8665" fill="#724B30"/>
<path d="M22.5348 25.5065C22.5348 25.7458 22.3553 25.8953 22.1759 25.8953C21.9965 25.8953 21.847 25.686 21.8769 25.4767C21.8769 25.2673 22.0563 25.0879 22.2357 25.0879C22.4151 25.0879 22.5647 25.2972 22.5348 25.5065Z" fill="white"/>
<g style="mix-blend-mode:multiply" opacity="0.5">
<mask id="mask33_3860_37889" style="mask-type:luminance" maskUnits="userSpaceOnUse" x="31" y="24" width="4" height="4">
<path d="M34.1093 24.4609H31.8066V27.242H34.1093V24.4609Z" fill="white"/>
</mask>
<g mask="url(#mask33_3860_37889)">
<mask id="mask34_3860_37889" style="mask-type:luminance" maskUnits="userSpaceOnUse" x="31" y="24" width="4" height="4">
<path d="M32.9727 24.458C32.3447 24.458 31.8363 25.0561 31.7765 25.8037C31.7167 26.5812 32.1952 27.2092 32.8531 27.2391C33.4811 27.2391 34.0194 26.6709 34.0792 25.8934V25.8336V25.7738C34.0792 25.0561 33.6007 24.4879 33.0026 24.458H32.9727Z" fill="white"/>
</mask>
<g mask="url(#mask34_3860_37889)">
<path d="M34.0751 24.4706L31.7129 24.502L31.7506 27.3426L34.1128 27.3113L34.0751 24.4706Z" fill="url(#paint12_linear_3860_37889)"/>
</g>
</g>
</g>
<path d="M33.8692 25.8968C33.8393 26.6444 33.3011 27.2425 32.6731 27.2126C32.0451 27.2126 31.5965 26.5547 31.6264 25.8071C31.6563 25.0595 32.1946 24.4614 32.8226 24.4913C33.4506 24.4913 33.8991 25.1492 33.8692 25.8968Z" fill="#724B30"/>
<path d="M33.6012 25.5368C33.6012 25.7462 33.4218 25.9256 33.2423 25.9256C33.0629 25.9256 32.9134 25.7162 32.9433 25.5069C32.9433 25.2976 33.1227 25.1182 33.3021 25.1182C33.4815 25.1182 33.6311 25.2976 33.6012 25.5368Z" fill="white"/>
<path d="M23.5816 21.6198C22.834 20.6928 18.9165 21.2011 17.9297 22.2478L18.1988 22.5767C20.1725 22.0983 21.4883 22.487 23.0134 22.5767C23.7012 22.6066 23.8806 21.9786 23.5816 21.6198Z" fill="#E6E6E6"/>
<path d="M30.5193 21.7093C31.2968 20.8122 35.0647 21.1113 36.0516 22.5766L35.6628 22.9055C33.719 22.3373 32.3734 22.6962 30.8482 22.7261C30.1604 22.7261 30.2202 22.0682 30.5193 21.7093Z" fill="#E6E6E6"/>
<path d="M38.5338 14.353C37.1881 13.1269 35.4835 9.5085 28.2467 9.83745C21.0098 10.1963 18.7072 13.7549 17.4811 15.2501C16.1654 16.865 14.3412 23.6832 14.9393 24.5205C14.9393 24.5205 15.5374 24.4607 16.1355 24.7896C18.0792 17.1341 31.7156 17.9415 35.8723 14.5324C35.8723 14.5324 35.8723 14.5922 35.8723 14.6221C39.6701 20.5133 38.8627 28.3183 39.3711 27.7202C39.5505 26.7633 39.8197 25.2083 40.4177 24.5504C40.6271 24.4606 40.9859 24.3709 41.4345 24.4307C41.5541 23.2645 39.9094 15.5791 38.5637 14.353" fill="white"/>
<g style="mix-blend-mode:multiply" opacity="0.5">
<mask id="mask35_3860_37889" style="mask-type:luminance" maskUnits="userSpaceOnUse" x="14" y="12" width="28" height="16">
<path d="M41.4052 12.3193H14.8203V27.7499H41.4052V12.3193Z" fill="white"/>
</mask>
<g mask="url(#mask35_3860_37889)">
<mask id="mask36_3860_37889" style="mask-type:luminance" maskUnits="userSpaceOnUse" x="14" y="12" width="28" height="16">
<path d="M41.4052 12.3164H14.8203V27.747H41.4052V12.3164Z" fill="white"/>
</mask>
<g mask="url(#mask36_3860_37889)">
<path d="M41.4053 24.4276C41.4651 23.9193 41.1361 22.0652 40.6876 20.0915C38.7139 19.4336 36.8598 14.7087 36.7701 12.4659C36.7103 12.436 36.6804 12.3762 36.6206 12.3164C34.617 16.2339 20.7115 19.5233 17.9603 16.4731C17.751 16.2638 17.5117 15.875 17.3921 15.3666C16.0763 17.1609 14.3419 23.7099 14.94 24.5473C14.94 24.5473 15.5381 24.4875 16.1362 24.8164C18.0799 17.1609 31.7163 17.9982 35.873 14.5592C35.873 14.5592 35.873 14.619 35.873 14.6489C39.6708 20.5401 38.8634 28.3451 39.3419 27.747C39.5213 26.7901 39.8204 25.2351 40.3885 24.5772C40.5979 24.4875 40.9567 24.3977 41.4053 24.4575" fill="#E6E6E6"/>
</g>
</g>
</g>
<g style="mix-blend-mode:multiply" opacity="0.5">
<mask id="mask37_3860_37889" style="mask-type:luminance" maskUnits="userSpaceOnUse" x="15" y="23" width="26" height="7">
<path d="M40.9262 23.3223H15.8066V29.6321H40.9262V23.3223Z" fill="white"/>
</mask>
<g mask="url(#mask37_3860_37889)">
<mask id="mask38_3860_37889" style="mask-type:luminance" maskUnits="userSpaceOnUse" x="15" y="23" width="26" height="7">
<path d="M29.8929 27.8053C29.2649 27.0278 29.1453 26.0709 29.1453 25.413C29.1453 24.157 30.5209 23.9178 33.0927 23.9178H33.1824C35.814 23.9178 37.2494 24.157 37.2494 25.413C37.2494 26.7587 36.7111 29.0314 33.2123 29.0314C31.6872 29.0314 30.5807 28.6128 29.9228 27.7754M17.2434 27.8053C16.6154 27.0278 16.4958 26.0709 16.4958 25.413C16.4958 24.157 17.8116 23.9477 20.3534 23.9477H20.4431C21.5496 23.9477 22.686 23.9776 23.4934 24.2168C24.2709 24.456 24.5999 24.8149 24.5999 25.4429C24.5999 26.7886 24.0616 29.0613 20.5628 29.0613C19.0377 29.0613 17.9312 28.6427 17.2733 27.8053M20.3834 23.3496C18.5891 23.3496 15.8379 23.3496 15.8379 25.3831C15.8379 26.1905 15.9874 27.2372 16.7051 28.1343C17.5125 29.1211 18.7984 29.6295 20.5628 29.6295C24.8092 29.6295 25.2877 26.6989 25.2877 25.413C25.2877 25.1738 25.2278 24.9345 25.168 24.7551C25.5568 24.5458 26.4838 24.4262 27.4408 24.5159C27.9491 24.5757 28.3379 24.6654 28.607 24.8149C28.5472 24.9943 28.4874 25.2037 28.4874 25.413C28.4874 26.1606 28.6369 27.2671 29.3546 28.1642C30.1621 29.151 31.4479 29.6594 33.2123 29.6594C37.4587 29.6594 37.9372 26.7288 37.9372 25.4429C37.9372 25.3532 37.9372 25.2635 37.9372 25.1738L40.2697 24.785L40.9575 24.4561L37.5783 24.3663C36.741 23.4094 34.7075 23.3795 33.2123 23.3795H33.1226C31.7171 23.3795 29.7434 23.3795 28.9061 24.3065C28.4874 24.0673 27.9491 23.9776 27.5006 23.9477C26.6333 23.858 25.4372 23.9477 24.8092 24.2766C24.54 24.0075 24.1812 23.8281 23.7326 23.6785C22.8355 23.4094 21.6393 23.3795 20.4731 23.3795H20.3834V23.3496Z" fill="white"/>
</mask>
<g mask="url(#mask38_3860_37889)">
<path d="M40.9282 23.3496H15.8086V29.6594H40.9282V23.3496Z" fill="url(#paint13_linear_3860_37889)"/>
</g>
</g>
</g>
<path d="M15.6875 25.2087C15.6875 25.9563 15.837 27.0627 16.5548 27.9599C17.3622 28.9467 18.648 29.4551 20.4124 29.4551C24.6588 29.4551 25.1373 26.4946 25.1373 25.2386C25.1373 24.9993 25.0775 24.7601 25.0177 24.5807C25.4064 24.3713 26.3334 24.2517 27.2904 24.3414C27.7988 24.4012 28.1875 24.491 28.4566 24.6405C28.3968 24.8199 28.3371 25.0292 28.3371 25.2386C28.3371 25.9862 28.4866 27.0926 29.2043 27.9898C30.0117 28.9766 31.2975 29.485 33.0619 29.485C37.3083 29.485 37.7868 26.5544 37.7868 25.2685C37.7868 25.1788 37.7868 25.089 37.7868 24.9993L40.2688 24.79L40.9566 24.4611L37.4279 24.1919C36.5906 23.235 34.5571 23.2051 33.0619 23.2051H32.9722C31.5667 23.2051 29.593 23.2051 28.7557 24.1321C28.3371 23.8929 27.7988 23.8032 27.3502 23.7733C26.483 23.6836 25.3167 23.7733 24.6588 24.1022C24.3897 23.863 24.0308 23.6536 23.5822 23.5041C22.6851 23.235 21.4889 23.2051 20.3227 23.2051H20.233C18.4088 23.2051 15.6875 23.2051 15.6875 25.2685M29.0248 25.2386C29.0248 23.9826 30.4004 23.7434 32.9722 23.7434H33.0619C35.6935 23.7434 37.1289 23.9826 37.1289 25.2386C37.1289 26.5843 36.5906 28.857 33.0918 28.857C31.5667 28.857 30.4602 28.4383 29.8023 27.601C29.1743 26.8235 29.0547 25.8666 29.0547 25.2087M16.3753 25.2087C16.3753 23.9527 17.6911 23.7434 20.233 23.7434H20.3227C21.4291 23.7434 22.5655 23.7732 23.3729 24.0125C24.1504 24.2218 24.4794 24.6106 24.4794 25.2386C24.4794 26.5843 23.9411 28.857 20.4423 28.857C18.9172 28.857 17.8107 28.4383 17.1528 27.6309C16.5248 26.8534 16.4052 25.8965 16.4052 25.2386" fill="#AF6A54"/>
<path d="M35.6036 42.8499C35.2747 42.6107 33.1814 42.2817 32.8225 42.1621C29.0247 45.6011 23.6718 43.0593 23.4625 42.3416C23.0438 42.4313 19.6646 43.1191 19.3357 43.4181C18.0797 44.5844 17.6312 47.216 17.8704 50.1466C21.0103 51.5521 24.4792 52.3595 28.1275 52.3595C31.7759 52.3595 35.2747 51.5521 38.4146 50.1466C38.2651 47.0963 37.3381 44.1956 35.6036 42.8499Z" fill="#FFE5CC"/>
<path d="M23.0135 43.8993C23.0135 43.4806 22.6547 43.1517 22.2659 43.1816C21.8772 43.1816 21.5781 43.5404 21.5781 43.9591C21.5781 44.3778 21.937 44.7067 22.3257 44.6768C22.7145 44.6768 23.0135 44.3179 23.0135 43.8993Z" fill="#F7A76F"/>
<path d="M23.4319 44.1376C23.0432 44.1376 22.7441 44.4965 22.7441 44.9151C22.7441 45.3338 23.103 45.6628 23.4917 45.6328C23.8805 45.6328 24.1795 45.274 24.1795 44.8553C24.1795 44.4367 23.8506 44.1077 23.4319 44.1376Z" fill="#F7A76F"/>
<path d="M24.719 44.8261C24.3303 44.8261 24.0312 45.185 24.0312 45.6036C24.0312 46.0223 24.3901 46.3512 24.7789 46.3213C25.1676 46.3213 25.4666 45.9625 25.4666 45.5438C25.4666 45.1252 25.1078 44.7962 24.719 44.8261Z" fill="#F7A76F"/>
<path d="M26.1546 45.2743C25.7658 45.2743 25.4668 45.6332 25.4668 46.0519C25.4668 46.4705 25.8256 46.7995 26.2144 46.7696C26.6032 46.7696 26.9022 46.4107 26.9022 45.9921C26.9022 45.5734 26.5433 45.2444 26.1546 45.2743Z" fill="#F7A76F"/>
<path d="M27.5902 45.4843C27.2014 45.4843 26.9023 45.8432 26.9023 46.2618C26.9023 46.6805 27.2612 47.0094 27.65 46.9795C28.0387 46.9795 28.3378 46.6207 28.3378 46.202C28.3378 45.7834 28.0088 45.4544 27.5902 45.4843Z" fill="#F7A76F"/>
<path d="M29.0843 45.4247C28.6956 45.4247 28.3965 45.7836 28.3965 46.2023C28.3965 46.6209 28.7553 46.9499 29.1441 46.92C29.5328 46.92 29.8319 46.5611 29.8319 46.1424C29.8319 45.7238 29.503 45.3948 29.0843 45.4247Z" fill="#F7A76F"/>
<path d="M30.5491 45.1562C30.1604 45.1562 29.8613 45.515 29.8613 45.9337C29.8613 46.3524 30.2202 46.6813 30.6089 46.6514C30.9977 46.6514 31.2967 46.2926 31.2967 45.8739C31.2967 45.4552 30.9379 45.1263 30.5491 45.1562Z" fill="#F7A76F"/>
<path d="M31.8655 44.5868C31.4768 44.5868 31.1777 44.9457 31.1777 45.3643C31.1777 45.783 31.5366 46.112 31.9253 46.0821C32.3141 46.0821 32.6131 45.7232 32.6131 45.3045C32.6131 44.8859 32.2543 44.5569 31.8655 44.5868Z" fill="#F7A76F"/>
<path d="M33.1507 43.7792C32.7619 43.7792 32.4629 44.1381 32.4629 44.5568C32.4629 44.9754 32.8217 45.3044 33.2105 45.2744C33.5993 45.2744 33.8983 44.9156 33.8983 44.497C33.8983 44.0783 33.5693 43.7493 33.1507 43.7792Z" fill="#F7A76F"/>
<path d="M34.3167 42.8222C33.928 42.8222 33.6289 43.1811 33.6289 43.5997C33.6289 44.0184 33.9878 44.3473 34.3765 44.3174C34.7653 44.3174 35.0643 43.9586 35.0643 43.5399C35.0643 43.1213 34.7055 42.7923 34.3167 42.8222Z" fill="#F7A76F"/>
<path d="M22.955 43.6903C22.955 43.2716 22.5961 42.9427 22.2074 42.9726C21.8186 42.9726 21.5195 43.3315 21.5195 43.7501C21.5195 44.1688 21.8784 44.4977 22.2671 44.4678C22.6559 44.4678 22.955 44.1089 22.955 43.6903Z" fill="white"/>
<path d="M23.3421 43.9286C22.9533 43.9286 22.6543 44.2875 22.6543 44.7062C22.6543 45.1248 23.0131 45.4538 23.4019 45.4239C23.7907 45.4239 24.0897 45.065 24.0897 44.6463C24.0897 44.2277 23.7607 43.8987 23.3421 43.9286Z" fill="white"/>
<path d="M24.6585 44.6171C24.2697 44.6171 23.9707 44.976 23.9707 45.3946C23.9707 45.8133 24.3296 46.1422 24.7183 46.1123C25.1071 46.1123 25.4061 45.7535 25.4061 45.3348C25.4061 44.9162 25.0771 44.5872 24.6585 44.6171Z" fill="white"/>
<path d="M26.0941 45.0351C25.7053 45.0351 25.4062 45.3939 25.4062 45.8126C25.4062 46.2312 25.7651 46.5602 26.1539 46.5303C26.5426 46.5303 26.8417 46.1714 26.8417 45.7528C26.8417 45.3341 26.4828 45.0052 26.0941 45.0351Z" fill="white"/>
<path d="M27.5003 45.2743C27.1115 45.2743 26.8125 45.6332 26.8125 46.0519C26.8125 46.4705 27.1714 46.7995 27.5601 46.7696C27.9489 46.7696 28.2479 46.4107 28.2479 45.9921C28.2479 45.5734 27.889 45.2444 27.5003 45.2743Z" fill="white"/>
<path d="M28.9944 45.2138C28.6057 45.2138 28.3066 45.5727 28.3066 45.9913C28.3066 46.41 28.6655 46.7389 29.0542 46.709C29.443 46.709 29.742 46.3502 29.742 45.9315C29.742 45.5128 29.4131 45.1839 28.9944 45.2138Z" fill="white"/>
<path d="M30.4612 44.9452C30.0725 44.9452 29.7734 45.3041 29.7734 45.7228C29.7734 46.1414 30.1323 46.4704 30.521 46.4405C30.9098 46.4405 31.2088 46.0816 31.2088 45.663C31.2088 45.2443 30.8799 44.9153 30.4612 44.9452Z" fill="white"/>
<path d="M31.805 44.3486C31.4162 44.3486 31.1172 44.7074 31.1172 45.1261C31.1172 45.5447 31.476 45.8737 31.8648 45.8438C32.2536 45.8438 32.5526 45.4849 32.5526 45.0663C32.5526 44.6476 32.1937 44.3187 31.805 44.3486Z" fill="white"/>
<path d="M33.0608 43.5693C32.6721 43.5693 32.373 43.9281 32.373 44.3468C32.373 44.7655 32.7319 45.0944 33.1207 45.0645C33.5094 45.0645 33.8084 44.7057 33.8084 44.287C33.8084 43.8683 33.4496 43.5394 33.0608 43.5693Z" fill="white"/>
<path d="M34.2288 42.6122C33.84 42.6122 33.541 42.9711 33.541 43.3898C33.541 43.8084 33.8999 44.1374 34.2886 44.1075C34.6774 44.1075 34.9764 43.7486 34.9764 43.3299C34.9764 42.9113 34.6176 42.5823 34.2288 42.6122Z" fill="white"/>
<path d="M41.4058 48.5327C41.0768 46.9179 40.718 45.6619 40.4189 44.9143C38.9835 43.5387 34.3483 42.4023 34.3483 42.4023C34.1689 44.1667 34.0493 47.516 33.9297 51.6727C36.6211 51.0447 39.133 49.9681 41.4058 48.5327Z" fill="#EA94A2"/>
<path d="M22.6541 51.7342C22.5345 47.5775 22.4148 44.2282 22.2354 42.4639C22.2354 42.4639 18.2282 43.1816 16.4938 44.8861C16.1649 45.6636 15.7761 47.0691 15.3574 48.8335C17.5703 50.1493 20.0225 51.1361 22.6242 51.7342" fill="#EA94A2"/>
<mask id="mask39_3860_37889" style="mask-type:luminance" maskUnits="userSpaceOnUse" x="40" y="44" width="3" height="5">
<path d="M41.0147 48.7727C41.5829 48.4437 42.1212 48.0849 42.6295 47.6961C41.7922 46.1411 41.0147 45.0945 40.3867 44.915C40.596 46.2308 40.8054 47.5167 40.9848 48.7727" fill="white"/>
</mask>
<g mask="url(#mask39_3860_37889)">
<path d="M42.3665 44.2073L39.1113 45.4902L40.7341 49.6078L43.9893 48.3249L42.3665 44.2073Z" fill="url(#paint14_linear_3860_37889)"/>
</g>
<mask id="mask40_3860_37889" style="mask-type:luminance" maskUnits="userSpaceOnUse" x="13" y="44" width="4" height="6">
<path d="M13.8926 47.9055C14.5206 48.3241 15.1486 48.7428 15.8065 49.1016C16.0457 47.7559 16.2849 46.3504 16.4942 44.915C15.7466 45.0945 14.8495 46.2308 13.8926 47.9055Z" fill="white"/>
</mask>
<g mask="url(#mask40_3860_37889)">
<path d="M14.2286 44.09L12.5527 48.6035L16.1972 49.9567L17.8731 45.4432L14.2286 44.09Z" fill="url(#paint15_linear_3860_37889)"/>
</g>
<g style="mix-blend-mode:multiply" opacity="0.4">
<mask id="mask41_3860_37889" style="mask-type:luminance" maskUnits="userSpaceOnUse" x="33" y="42" width="5" height="10">
<path d="M37.9667 42.4062H33.9297V51.6766H37.9667V42.4062Z" fill="white"/>
</mask>
<g mask="url(#mask41_3860_37889)">
<mask id="mask42_3860_37889" style="mask-type:luminance" maskUnits="userSpaceOnUse" x="33" y="42" width="5" height="10">
<path d="M37.9667 42.4092H33.9297V51.6795H37.9667V42.4092Z" fill="white"/>
</mask>
<g mask="url(#mask42_3860_37889)">
<path d="M34.3483 42.4092C34.1689 44.1735 34.0194 47.5228 33.9297 51.6795C35.2754 51.3506 36.5911 50.9319 37.877 50.3936C38.1163 47.5826 37.9368 45.0408 37.5481 43.396C35.9333 42.7979 34.3782 42.4092 34.3782 42.4092" fill="#D17587"/>
</g>
</g>
</g>
<path d="M34.1996 42.165C33.9604 43.7201 33.7212 46.8002 33.6016 51.7643C34.9174 51.4653 36.1733 51.0765 37.3994 50.5981C37.7882 45.604 37.4592 43.5107 36.8312 42.8828L34.1996 42.1949V42.165Z" fill="#FFBBC8"/>
<g style="mix-blend-mode:multiply" opacity="0.4">
<mask id="mask43_3860_37889" style="mask-type:luminance" maskUnits="userSpaceOnUse" x="18" y="42" width="5" height="10">
<path d="M22.6561 42.4619H18.5293V51.7322H22.6561V42.4619Z" fill="white"/>
</mask>
<g mask="url(#mask43_3860_37889)">
<mask id="mask44_3860_37889" style="mask-type:luminance" maskUnits="userSpaceOnUse" x="18" y="42" width="5" height="10">
<path d="M22.6561 42.4619H18.5293V51.7322H22.6561V42.4619Z" fill="white"/>
</mask>
<g mask="url(#mask44_3860_37889)">
<path d="M22.2374 42.4619C22.2374 42.4619 20.7123 42.731 19.1274 43.359C18.5293 44.8243 18.4097 47.755 18.619 50.4763C19.9049 51.0145 21.2505 51.4332 22.656 51.7622C22.5364 47.6055 22.4168 44.2562 22.2374 42.4918" fill="#D17587"/>
</g>
</g>
</g>
<path d="M22.2969 42.165L19.6653 42.8528C19.0373 43.4808 18.7084 45.604 19.0971 50.6579C20.3232 51.1363 21.5792 51.5251 22.895 51.7942C22.7455 46.8002 22.5361 43.6902 22.2969 42.165Z" fill="#FFBBC8"/>
<path d="M82.8917 43.3613H78.719V28.1075C78.719 24.182 77.1889 22.2193 74.1289 22.2193C71.9343 22.2193 70.1261 23.0384 68.7043 24.6766C67.7152 25.8202 67.2207 27.8139 67.2207 30.6576V43.3613H63.1406V19.1129H66.9888V22.5438C69.1216 19.8856 71.7643 18.5565 74.9171 18.5565C77.9153 18.5565 80.0326 19.3756 81.269 21.0138C82.3508 22.4357 82.8917 24.692 82.8917 27.783V43.3613ZM105.27 9.23734L100.68 15.821H96.3681L91.7781 9.23734H95.4408L98.5472 13.5956L101.561 9.23734H105.27ZM108.098 43.7322H105.131V39.9767C104.018 41.2749 102.983 42.1868 102.025 42.7122C100.881 43.3304 99.5363 43.6395 97.9909 43.6395C93.6326 43.6395 90.6653 41.8468 89.0889 38.2613C88.1617 36.1594 87.698 33.903 87.698 31.4921C87.698 28.123 88.4708 25.3257 90.0162 23.1002C91.7781 20.5347 94.2663 19.252 97.4809 19.252C99.3354 19.252 101.005 19.7311 102.488 20.6893C103.539 21.3693 104.219 22.0493 104.528 22.7293L104.621 19.9011H108.098V43.7322ZM104.204 31.8167C104.204 29.4057 103.755 27.4275 102.859 25.8821C101.777 23.9966 100.108 23.0538 97.8518 23.0538C93.5244 23.0538 91.3608 25.8357 91.3608 31.3994C91.3608 37.2413 93.6481 40.1622 98.2227 40.1622C100.108 40.1622 101.576 39.2967 102.627 37.5658C103.369 36.3603 103.833 35.3558 104.018 34.5521C104.142 34.0267 104.204 33.1149 104.204 31.8167ZM118.793 14.7083H114.666V10.1183H118.793V14.7083ZM118.793 43.3613H114.666V19.252H118.793V43.3613ZM144.695 43.3613H140.523V28.1075C140.523 24.182 138.993 22.2193 135.933 22.2193C133.738 22.2193 131.93 23.0384 130.508 24.6766C129.519 25.8202 129.024 27.8139 129.024 30.6576V43.3613H124.944V19.1129H128.793V22.5438C130.925 19.8856 133.568 18.5565 136.721 18.5565C139.719 18.5565 141.836 19.3756 143.073 21.0138C144.155 22.4357 144.695 24.692 144.695 27.783V43.3613ZM169.902 43.7322H166.935V39.9767C165.822 41.2749 164.786 42.1868 163.828 42.7122C162.685 43.3304 161.34 43.6395 159.795 43.6395C155.436 43.6395 152.469 41.8468 150.893 38.2613C149.965 36.1594 149.502 33.903 149.502 31.4921C149.502 28.123 150.274 25.3257 151.82 23.1002C153.582 20.5347 156.07 19.252 159.285 19.252C161.139 19.252 162.808 19.7311 164.292 20.6893C165.343 21.3693 166.023 22.0493 166.332 22.7293L166.425 19.9011H169.902V43.7322ZM166.007 31.8167C166.007 29.4057 165.559 27.4275 164.663 25.8821C163.581 23.9966 161.912 23.0538 159.655 23.0538C155.328 23.0538 153.165 25.8357 153.165 31.3994C153.165 37.2413 155.452 40.1622 160.026 40.1622C161.912 40.1622 163.38 39.2967 164.431 37.5658C165.173 36.3603 165.636 35.3558 165.822 34.5521C165.946 34.0267 166.007 33.1149 166.007 31.8167ZM180.596 14.7083H176.47V10.1183H180.596V14.7083ZM180.596 43.3613H176.47V19.252H180.596V43.3613Z" fill="#231815"/>
<defs>
<linearGradient id="paint0_linear_3860_37889" x1="16.2626" y1="24.6571" x2="20.21" y2="24.6571" gradientUnits="userSpaceOnUse">
<stop stop-color="#F2AC71"/>
<stop offset="0.41" stop-color="#EEA56B"/>
<stop offset="0.96" stop-color="#E3945A"/>
<stop offset="1" stop-color="#E29359"/>
</linearGradient>
<linearGradient id="paint1_linear_3860_37889" x1="24.098" y1="28.5845" x2="37.6147" y2="28.5845" gradientUnits="userSpaceOnUse">
<stop stop-color="#F2AC71"/>
<stop offset="0.36" stop-color="#EDA56A"/>
<stop offset="0.85" stop-color="#E09459"/>
<stop offset="1" stop-color="#DB8E53"/>
</linearGradient>
<radialGradient id="paint2_radial_3860_37889" cx="0" cy="0" r="1" gradientUnits="userSpaceOnUse" gradientTransform="translate(42.9891 31.0784) rotate(180) scale(4.30621)">
<stop stop-color="#DE4031"/>
<stop offset="0.11" stop-color="#DE4435"/>
<stop offset="0.25" stop-color="#E15144"/>
<stop offset="0.39" stop-color="#E4675B"/>
<stop offset="0.55" stop-color="#EA867D"/>
<stop offset="0.71" stop-color="#F1ADA7"/>
<stop offset="0.87" stop-color="#F9DDDA"/>
<stop offset="0.97" stop-color="white"/>
<stop offset="1" stop-color="white"/>
</radialGradient>
<radialGradient id="paint3_radial_3860_37889" cx="0" cy="0" r="1" gradientUnits="userSpaceOnUse" gradientTransform="translate(17.772 30.8048) scale(4.03708 4.03708)">
<stop stop-color="#DE4031"/>
<stop offset="0.11" stop-color="#DE4435"/>
<stop offset="0.25" stop-color="#E15144"/>
<stop offset="0.39" stop-color="#E4675B"/>
<stop offset="0.55" stop-color="#EA867D"/>
<stop offset="0.71" stop-color="#F1ADA7"/>
<stop offset="0.87" stop-color="#F9DDDA"/>
<stop offset="0.97" stop-color="white"/>
<stop offset="1" stop-color="white"/>
</radialGradient>
<linearGradient id="paint4_linear_3860_37889" x1="18.7398" y1="37.9011" x2="26.9037" y2="37.9011" gradientUnits="userSpaceOnUse">
<stop stop-color="#F2AC71"/>
<stop offset="0.36" stop-color="#EDA56A"/>
<stop offset="0.85" stop-color="#E09459"/>
<stop offset="1" stop-color="#DB8E53"/>
</linearGradient>
<linearGradient id="paint5_linear_3860_37889" x1="27.1727" y1="29.5253" x2="28.4883" y2="29.5067" gradientUnits="userSpaceOnUse">
<stop stop-color="#F2AC71"/>
<stop offset="0.36" stop-color="#EDA56A"/>
<stop offset="0.85" stop-color="#E09459"/>
<stop offset="1" stop-color="#DB8E53"/>
</linearGradient>
<linearGradient id="paint6_linear_3860_37889" x1="28.0814" y1="42.0546" x2="29.2475" y2="42.0381" gradientUnits="userSpaceOnUse">
<stop stop-color="#F2AC71"/>
<stop offset="0.36" stop-color="#EDA56A"/>
<stop offset="0.85" stop-color="#E09459"/>
<stop offset="1" stop-color="#DB8E53"/>
</linearGradient>
<linearGradient id="paint7_linear_3860_37889" x1="27.5239" y1="23.4466" x2="27.2305" y2="30.9468" gradientUnits="userSpaceOnUse">
<stop stop-color="white"/>
<stop offset="0.15" stop-color="#FEFCFB"/>
<stop offset="0.28" stop-color="#FBF4F0"/>
<stop offset="0.41" stop-color="#F6E7DD"/>
<stop offset="0.53" stop-color="#EFD5C3"/>
<stop offset="0.65" stop-color="#E7BDA1"/>
<stop offset="0.77" stop-color="#DCA078"/>
<stop offset="0.89" stop-color="#D07F48"/>
<stop offset="1" stop-color="#C35B15"/>
</linearGradient>
<linearGradient id="paint8_linear_3860_37889" x1="27.5239" y1="23.4466" x2="27.2305" y2="30.9468" gradientUnits="userSpaceOnUse">
<stop stop-color="#F2AC71"/>
<stop offset="0.36" stop-color="#EDA56A"/>
<stop offset="0.85" stop-color="#E09459"/>
<stop offset="1" stop-color="#DB8E53"/>
</linearGradient>
<linearGradient id="paint9_linear_3860_37889" x1="29.9092" y1="29.9974" x2="32.2331" y2="29.7966" gradientUnits="userSpaceOnUse">
<stop stop-color="#F2AC71"/>
<stop offset="0.36" stop-color="#EDA56A"/>
<stop offset="0.85" stop-color="#E09459"/>
<stop offset="1" stop-color="#DB8E53"/>
</linearGradient>
<linearGradient id="paint10_linear_3860_37889" x1="18.4825" y1="29.3358" x2="15.9153" y2="29.1828" gradientUnits="userSpaceOnUse">
<stop stop-color="#F2AC71"/>
<stop offset="0.36" stop-color="#EDA56A"/>
<stop offset="0.85" stop-color="#E09459"/>
<stop offset="1" stop-color="#DB8E53"/>
</linearGradient>
<linearGradient id="paint11_linear_3860_37889" x1="20.5699" y1="24.9064" x2="22.9022" y2="24.8755" gradientUnits="userSpaceOnUse">
<stop stop-color="#F2AC71"/>
<stop offset="0.36" stop-color="#EDA56A"/>
<stop offset="0.85" stop-color="#E09459"/>
<stop offset="1" stop-color="#DB8E53"/>
</linearGradient>
<linearGradient id="paint12_linear_3860_37889" x1="31.8044" y1="26.128" x2="34.1069" y2="26.0974" gradientUnits="userSpaceOnUse">
<stop stop-color="#F2AC71"/>
<stop offset="0.36" stop-color="#EDA56A"/>
<stop offset="0.85" stop-color="#E09459"/>
<stop offset="1" stop-color="#DB8E53"/>
</linearGradient>
<linearGradient id="paint13_linear_3860_37889" x1="46.5382" y1="27.3747" x2="21.4186" y2="27.3747" gradientUnits="userSpaceOnUse">
<stop stop-color="#F2AC71"/>
<stop offset="0.36" stop-color="#EDA56A"/>
<stop offset="0.85" stop-color="#E09459"/>
<stop offset="1" stop-color="#DB8E53"/>
</linearGradient>
<linearGradient id="paint14_linear_3860_37889" x1="40.1446" y1="42.7806" x2="43.6863" y2="51.767" gradientUnits="userSpaceOnUse">
<stop stop-color="#D17587"/>
<stop offset="0.16" stop-color="#D77C8D"/>
<stop offset="0.65" stop-color="#E58D9C"/>
<stop offset="1" stop-color="#EA94A2"/>
</linearGradient>
<linearGradient id="paint15_linear_3860_37889" x1="13.3276" y1="51.4017" x2="7.97727" y2="65.8113" gradientUnits="userSpaceOnUse">
<stop stop-color="#D17587"/>
<stop offset="0.16" stop-color="#D77C8D"/>
<stop offset="0.65" stop-color="#E58D9C"/>
<stop offset="1" stop-color="#EA94A2"/>
</linearGradient>
</defs>
</svg>
