<svg width="401" height="234" viewBox="0 0 401 234" fill="none" xmlns="http://www.w3.org/2000/svg">
<rect x="0.626953" y="0.239258" width="400" height="233.445" rx="39.0095" fill="white"/>
<path d="M360.628 80.0654H71.4199" stroke="#D8CCA5" stroke-width="1.32945" stroke-linecap="round"/>
<path d="M360.626 40.7705H71.418" stroke="#D3D3D4" stroke-width="1.32945" stroke-linecap="round"/>
<path d="M360.626 118.211H71.418" stroke="#D8CCA5" stroke-width="1.32945" stroke-linecap="round"/>
<path d="M360.628 156.357H71.4199" stroke="#D8CCA5" stroke-width="1.32945" stroke-linecap="round"/>
<path d="M204.807 41.916C226.769 43.5728 303.319 56.4019 337.261 153.3" stroke="#898989" stroke-width="3.02893" stroke-linecap="round" stroke-linejoin="round" stroke-dasharray="0.31 6.04"/>
<path d="M338.283 162.096C341.596 162.096 344.273 159.419 344.273 156.106C344.273 152.792 341.596 150.116 338.283 150.116C334.969 150.116 332.293 152.792 332.293 156.106C332.293 159.419 334.969 162.096 338.283 162.096Z" fill="#898989"/>
<path d="M189.046 41.958H71.375" stroke="#81CDE4" stroke-width="2.65889"/>
<path d="M211.519 41.959L182.42 31.3389V52.5367L211.519 41.959Z" fill="#81CDE4"/>
<path d="M71.4199 41.958V194.464H360.628" stroke="#B39E4F" stroke-width="1.32945" stroke-linecap="round"/>
<path d="M45.2501 38.4253C45.8947 37.68 46.7407 37.0757 47.7881 36.6124C48.8557 36.129 49.883 35.8873 50.87 35.8873C52.3405 35.8873 53.6498 36.1995 54.7979 36.8239C55.9662 37.4484 56.8727 38.3145 57.5173 39.4224C58.1618 40.5101 58.4841 41.7691 58.4841 43.1992C58.4841 44.6294 58.1618 45.9085 57.5173 47.0365C56.8727 48.1444 55.9662 49.0206 54.7979 49.6652C53.6498 50.2896 52.3405 50.6018 50.87 50.6018C49.7219 50.6018 48.6341 50.3601 47.6068 49.8767C46.5997 49.3932 45.7436 48.7185 45.0386 47.8523C44.3336 46.9861 43.8502 46.0092 43.5883 44.9215L46.368 44.287C46.6098 45.3344 47.1436 46.2006 47.9694 46.8854C48.8154 47.5703 49.7823 47.9127 50.87 47.9127C51.7765 47.9127 52.5923 47.7113 53.3174 47.3084C54.0426 46.9056 54.6066 46.3416 55.0094 45.6164C55.4123 44.8913 55.6137 44.0855 55.6137 43.1992C55.6137 42.2928 55.4123 41.4971 55.0094 40.8123C54.6066 40.1073 54.0426 39.5634 53.3174 39.1807C52.5923 38.7778 51.7765 38.5764 50.87 38.5764C50.2657 38.5764 49.6413 38.7375 48.9967 39.0598C48.3521 39.3821 47.8083 39.7951 47.3651 40.2986L45.2501 38.4253ZM44.4947 39.9058L45.2199 28.3638H56.7015V30.8716H47.9694L47.3651 40.2986L44.4947 39.9058Z" fill="#231815"/>
<path d="M57.0495 79.896H59.9803V82.4038H57.0495V88.2352H54.1791V82.4038H44.6917L44.3895 79.896L54.3 66.2994H57.0495V79.896ZM54.1791 79.896V71.1337L47.834 79.896H54.1791Z" fill="#231815"/>
<path d="M55.2019 114.883C56.1487 115.447 56.904 116.212 57.468 117.179C58.0522 118.126 58.3443 119.073 58.3443 120.019C58.3443 121.248 58.032 122.346 57.4076 123.313C56.7832 124.28 55.917 125.035 54.8091 125.579C53.7013 126.123 52.4323 126.395 51.0021 126.395C49.5921 126.395 48.3331 126.123 47.2253 125.579C46.1375 125.015 45.2815 124.239 44.657 123.252C44.0326 122.265 43.7204 121.147 43.7204 119.898H46.5908C46.5908 120.664 46.772 121.349 47.1346 121.953C47.5173 122.537 48.0411 123 48.7058 123.343C49.3907 123.685 50.1662 123.857 51.0323 123.857C51.8985 123.857 52.674 123.685 53.3588 123.343C54.0437 123 54.5775 122.537 54.9602 121.953C55.3429 121.349 55.5343 120.664 55.5343 119.898C55.5343 119.153 55.3429 118.498 54.9602 117.934C54.5775 117.35 54.0437 116.897 53.3588 116.575C52.6941 116.252 51.9287 116.091 51.0625 116.091H49.4914V113.644H51.0927C51.8985 113.644 52.6135 113.493 53.238 113.191C53.8624 112.889 54.3459 112.486 54.6883 111.982C55.0307 111.458 55.2019 110.854 55.2019 110.169C55.2019 109.122 54.8293 108.276 54.084 107.631C53.3588 106.967 52.402 106.634 51.2136 106.634C50.428 106.634 49.7331 106.785 49.1288 107.087C48.5446 107.39 48.0813 107.813 47.7389 108.356C47.3965 108.9 47.2253 109.515 47.2253 110.199H44.3549C44.3549 109.011 44.6469 107.954 45.2311 107.027C45.8152 106.1 46.621 105.385 47.6483 104.882C48.6957 104.358 49.8842 104.096 51.2136 104.096C52.5229 104.096 53.6912 104.358 54.7185 104.882C55.7458 105.385 56.5515 106.09 57.1357 106.997C57.7198 107.903 58.0119 108.93 58.0119 110.079C58.0119 110.925 57.7601 111.801 57.2565 112.707C56.753 113.594 56.0681 114.319 55.2019 114.883Z" fill="#231815"/>
<path d="M44.2888 161.684C44.7924 161.201 45.2657 160.768 45.7089 160.385C46.152 159.982 46.6354 159.539 47.1592 159.056C48.8512 157.525 50.2008 156.246 51.2079 155.219C52.2352 154.191 53.1014 153.144 53.8064 152.076C54.5114 150.988 54.8639 149.981 54.8639 149.055C54.8639 148.189 54.6927 147.423 54.3503 146.758C54.028 146.094 53.5647 145.57 52.9604 145.187C52.3561 144.805 51.6612 144.613 50.8756 144.613C49.9893 144.613 49.1433 144.915 48.3375 145.52C47.552 146.104 46.9477 146.849 46.5247 147.755L43.9866 146.668C44.5708 145.298 45.5074 144.18 46.7966 143.314C48.1059 142.448 49.4656 142.015 50.8756 142.015C52.2252 142.015 53.4136 142.317 54.4409 142.921C55.4682 143.505 56.2739 144.331 56.8581 145.399C57.4422 146.466 57.7343 147.685 57.7343 149.055C57.7343 150.384 57.3214 151.734 56.4955 153.103C55.6696 154.453 54.6826 155.712 53.5345 156.88C52.3863 158.028 50.8957 159.408 49.0627 161.02C48.0153 161.926 47.0685 162.772 46.2225 163.558L44.2888 161.684ZM44.2888 161.684H58.0969V164.192H44.5909L44.2888 161.684Z" fill="#231815"/>
<path d="M54.0363 202.127L51.1659 202.097V183.333L47.4797 185.539L46.1804 183.182L51.1961 180.221H54.0363V202.127Z" fill="#231815"/>
</svg>
