<svg width="401" height="236" viewBox="0 0 401 236" fill="none" xmlns="http://www.w3.org/2000/svg">
<rect x="0.626953" y="0.561523" width="400" height="234.8" rx="39.0095" fill="white"/>
<path d="M45.2825 38.6648C45.9316 37.9142 46.7836 37.3057 47.8383 36.8392C48.9134 36.3524 49.9479 36.1089 50.9418 36.1089C52.4226 36.1089 53.7411 36.4234 54.8973 37.0522C56.0738 37.681 56.9866 38.5532 57.6357 39.6688C58.2848 40.7642 58.6093 42.032 58.6093 43.4722C58.6093 44.9123 58.2848 46.2004 57.6357 47.3363C56.9866 48.452 56.0738 49.3343 54.8973 49.9834C53.7411 50.6122 52.4226 50.9266 50.9418 50.9266C49.7856 50.9266 48.6903 50.6832 47.6558 50.1964C46.6416 49.7096 45.7795 49.0301 45.0695 48.1578C44.3596 47.2856 43.8727 46.3018 43.6091 45.2065L46.4083 44.5675C46.6517 45.6223 47.1892 46.4945 48.0209 47.1842C48.8728 47.8739 49.8465 48.2187 50.9418 48.2187C51.8546 48.2187 52.6761 48.0158 53.4064 47.6102C54.1366 47.2045 54.7046 46.6365 55.1103 45.9063C55.516 45.176 55.7188 44.3647 55.7188 43.4722C55.7188 42.5594 55.516 41.7581 55.1103 41.0685C54.7046 40.3585 54.1366 39.8108 53.4064 39.4254C52.6761 39.0197 51.8546 38.8169 50.9418 38.8169C50.3333 38.8169 49.7045 38.9792 49.0554 39.3037C48.4063 39.6283 47.8586 40.0441 47.4124 40.5512L45.2825 38.6648ZM44.5218 40.1557L45.2521 28.5327H56.8141V31.0581H48.0209L47.4124 40.5512L44.5218 40.1557Z" fill="#231815"/>
<path d="M57.1646 80.4249H60.116V82.9503H57.1646V88.8226H54.2741V82.9503H44.7202L44.4159 80.4249L54.3958 66.7329H57.1646V80.4249ZM54.2741 80.4249V71.6012L47.8845 80.4249H54.2741Z" fill="#231815"/>
<path d="M55.3041 115.657C56.2575 116.225 57.0181 116.996 57.5861 117.969C58.1743 118.923 58.4685 119.876 58.4685 120.829C58.4685 122.067 58.1541 123.172 57.5252 124.146C56.8964 125.119 56.0242 125.88 54.9086 126.428C53.7929 126.975 52.515 127.249 51.0748 127.249C49.6549 127.249 48.3872 126.975 47.2715 126.428C46.1762 125.86 45.3141 125.079 44.6853 124.085C44.0565 123.091 43.7421 121.965 43.7421 120.708H46.6326C46.6326 121.478 46.8151 122.168 47.1802 122.777C47.5656 123.365 48.093 123.831 48.7624 124.176C49.4521 124.521 50.233 124.693 51.1053 124.693C51.9775 124.693 52.7584 124.521 53.4481 124.176C54.1378 123.831 54.6753 123.365 55.0607 122.777C55.4461 122.168 55.6388 121.478 55.6388 120.708C55.6388 119.957 55.4461 119.298 55.0607 118.73C54.6753 118.142 54.1378 117.685 53.4481 117.361C52.7787 117.036 52.0079 116.874 51.1357 116.874H49.5535V114.409H51.1661C51.9775 114.409 52.6976 114.257 53.3264 113.953C53.9552 113.649 54.442 113.243 54.7869 112.736C55.1317 112.208 55.3041 111.6 55.3041 110.91C55.3041 109.855 54.9289 109.004 54.1783 108.354C53.4481 107.685 52.4846 107.35 51.2878 107.35C50.4967 107.35 49.7969 107.502 49.1884 107.807C48.6001 108.111 48.1336 108.537 47.7888 109.085C47.4439 109.632 47.2715 110.251 47.2715 110.941H44.381C44.381 109.744 44.6751 108.679 45.2634 107.746C45.8516 106.813 46.663 106.093 47.6975 105.586C48.7523 105.058 49.9491 104.795 51.2878 104.795C52.6063 104.795 53.7828 105.058 54.8173 105.586C55.8518 106.093 56.6632 106.803 57.2514 107.715C57.8397 108.628 58.1338 109.663 58.1338 110.819C58.1338 111.671 57.8802 112.553 57.3731 113.466C56.866 114.359 56.1763 115.089 55.3041 115.657Z" fill="#231815"/>
<path d="M44.3144 162.787C44.8216 162.301 45.2982 161.864 45.7445 161.479C46.1907 161.073 46.6776 160.627 47.205 160.14C48.9088 158.599 50.2679 157.311 51.2821 156.276C52.3166 155.242 53.1888 154.187 53.8988 153.112C54.6087 152.016 54.9637 151.002 54.9637 150.069C54.9637 149.197 54.7913 148.426 54.4465 147.757C54.1219 147.087 53.6554 146.56 53.0468 146.175C52.4383 145.789 51.7385 145.596 50.9474 145.596C50.0549 145.596 49.203 145.901 48.3916 146.509C47.6005 147.097 46.992 147.848 46.566 148.761L44.0102 147.665C44.5984 146.286 45.5417 145.16 46.8398 144.288C48.1583 143.416 49.5275 142.98 50.9474 142.98C52.3065 142.98 53.5032 143.284 54.5377 143.893C55.5722 144.481 56.3836 145.312 56.9719 146.388C57.5601 147.463 57.8542 148.69 57.8542 150.069C57.8542 151.408 57.4384 152.767 56.6067 154.146C55.7751 155.505 54.7812 156.773 53.625 157.95C52.4687 159.106 50.9677 160.495 49.1218 162.118C48.067 163.031 47.1137 163.883 46.2617 164.674L44.3144 162.787ZM44.3144 162.787H58.2194V165.313H44.6187L44.3144 162.787Z" fill="#231815"/>
<path d="M54.13 203.513L51.2395 203.483V184.588L47.5274 186.809L46.2191 184.436L51.2699 181.454H54.13V203.513Z" fill="#231815"/>
<path d="M360.626 40.9932H69.3906" stroke="#D8CCA5" stroke-width="1.33877" stroke-linecap="round"/>
<path d="M360.626 79.3652H69.3906" stroke="#D8CCA5" stroke-width="1.33877" stroke-linecap="round"/>
<path d="M360.626 117.782H69.3906" stroke="#D8CCA5" stroke-width="1.33877" stroke-linecap="round"/>
<path d="M360.626 156.196H69.3906" stroke="#D8CCA5" stroke-width="1.33877" stroke-linecap="round"/>
<path d="M69.3906 40.9932V194.568H360.626" stroke="#B39E4F" stroke-width="1.33877" stroke-linecap="round"/>
<path d="M311.345 86.8092C314.596 86.8092 317.206 84.1997 317.206 80.9485C317.206 77.6974 314.596 75.0879 311.345 75.0879C308.094 75.0879 305.484 77.6974 305.484 80.9485C305.484 84.1997 308.094 86.8092 311.345 86.8092Z" fill="#898989"/>
<path d="M71.0156 155.084C71.0156 155.084 95.8699 192.002 151.439 192.002C153.963 192.002 163.973 192.344 166.625 192.002" stroke="#CDA6CB" stroke-width="3.04265"/>
<path d="M280.458 110.123C271.09 128.817 241.701 175.189 176.635 187.167" stroke="#CDA6CB" stroke-width="3.04265" stroke-linecap="round" stroke-linejoin="round" stroke-dasharray="0.3 6.09"/>
<path d="M291.966 80.2646L271.475 104.777L292.008 112.22L291.966 80.2646Z" fill="#CDA6CB"/>
</svg>
