<svg width="187" height="55" viewBox="0 0 187 55" fill="none" xmlns="http://www.w3.org/2000/svg">
<path d="M66.1104 27.9097C66.1104 41.7171 54.933 52.8946 41.1255 52.8946C27.3181 52.8946 16.1406 41.7171 16.1406 27.9097C16.1406 14.1022 27.3181 2.9248 41.1255 2.9248C54.933 2.9248 66.1104 14.1022 66.1104 27.9097Z" fill="#D1EAAD"/>
<path d="M44.9513 38.1309L35.6268 38.6688C37.1809 43.2115 35.0889 44.5265 33.3256 44.9449C31.6221 47.8738 31.9508 50.1152 33.3256 51.6693C35.7763 52.4763 38.3763 52.8946 41.096 52.8946C43.4869 52.8946 45.7881 52.5659 47.9997 51.9383C49.5837 50.3842 50.0918 48.083 48.3882 44.9748C44.0846 44.1679 44.9214 40.3424 44.9214 38.1309" fill="#F2AC71"/>
<g style="mix-blend-mode:multiply" opacity="0.7">
<mask id="mask0_3860_36533" style="mask-type:luminance" maskUnits="userSpaceOnUse" x="35" y="38" width="10" height="6">
<path d="M44.9515 38.1289H35.627V43.1199H44.9515V38.1289Z" fill="white"/>
</mask>
<g mask="url(#mask0_3860_36533)">
<mask id="mask1_3860_36533" style="mask-type:luminance" maskUnits="userSpaceOnUse" x="35" y="38" width="10" height="6">
<path d="M44.9515 38.1279H35.627V43.1189H44.9515V38.1279Z" fill="white"/>
</mask>
<g mask="url(#mask1_3860_36533)">
<path d="M44.921 40.8476C42.4105 41.6844 38.2264 42.5511 35.8654 43.1189C36.3137 42.1626 36.3735 40.7579 35.6562 38.6659L44.9807 38.1279C44.9807 38.905 44.8612 39.8912 44.921 40.8476Z" fill="#EF9D78"/>
</g>
</g>
</g>
<path d="M53.4974 22.531L52.541 29.614C54.7227 30.0922 56.5159 29.4945 56.755 25.9081C56.9941 22.2022 55.2308 21.3355 53.4974 22.5609" fill="#F2AC71"/>
<mask id="mask2_3860_36533" style="mask-type:luminance" maskUnits="userSpaceOnUse" x="25" y="22" width="5" height="8">
<path d="M25.4044 26.0282C25.6734 29.6145 27.4367 30.1824 29.6184 29.7042L28.6321 22.6809C28.154 22.3522 27.6758 22.1729 27.2275 22.1729C26.0918 22.1729 25.2251 23.3683 25.4044 26.0282Z" fill="white"/>
</mask>
<g mask="url(#mask2_3860_36533)">
<path d="M29.6057 22.1136L25.123 22.1621L25.21 30.201L29.6927 30.1525L29.6057 22.1136Z" fill="url(#paint0_linear_3860_36533)"/>
</g>
<path d="M52.2734 13.953C50.3905 10.4563 44.742 7.28836 39.0039 8.00563C28.8127 9.26085 28.6035 16.8818 28.454 22.2315C28.3345 26.1466 29.8288 34.9929 30.815 37.0551C31.6219 38.6988 35.9853 41.4184 39.9303 41.3587C45.0409 41.2989 49.7629 38.4298 50.8687 36.3976C52.0343 34.2756 52.4228 31.6158 52.9607 28.5972C53.9769 23.0683 54.216 17.629 52.2136 13.9231" fill="#F2AC71"/>
<g style="mix-blend-mode:multiply" opacity="0.3">
<mask id="mask3_3860_36533" style="mask-type:luminance" maskUnits="userSpaceOnUse" x="39" y="13" width="15" height="29">
<path d="M53.7371 13.9541H39.9297V41.3897H53.7371V13.9541Z" fill="white"/>
</mask>
<g mask="url(#mask3_3860_36533)">
<mask id="mask4_3860_36533" style="mask-type:luminance" maskUnits="userSpaceOnUse" x="39" y="13" width="15" height="29">
<path d="M51.9738 14.494C52.5716 18.4689 51.5554 31.32 50.1508 36.311C49.7623 37.6857 45.0701 40.8836 39.9297 41.3916C45.0402 41.3319 49.7623 38.4628 50.8681 36.4305C52.0336 34.3086 52.4221 31.6487 52.9601 28.6302C53.4084 26.2094 53.7072 23.7886 53.7371 21.5173V20.8897C53.7072 18.2597 53.2888 15.8688 52.2428 13.9561L51.9738 14.494Z" fill="white"/>
</mask>
<g mask="url(#mask4_3860_36533)">
<path d="M53.7852 13.8151L39.6797 13.9678L39.9782 41.5511L54.0837 41.3985L53.7852 13.8151Z" fill="url(#paint1_linear_3860_36533)"/>
</g>
</g>
</g>
<g style="mix-blend-mode:screen" opacity="0.3">
<mask id="mask5_3860_36533" style="mask-type:luminance" maskUnits="userSpaceOnUse" x="28" y="14" width="12" height="28">
<path d="M39.9593 14.0171H28.4531V41.4228H39.9593V14.0171Z" fill="white"/>
</mask>
<g mask="url(#mask5_3860_36533)">
<mask id="mask6_3860_36533" style="mask-type:luminance" maskUnits="userSpaceOnUse" x="28" y="14" width="12" height="28">
<path d="M39.9593 14.0171H28.4531V41.3929H39.9593V14.0171Z" fill="white"/>
</mask>
<g mask="url(#mask6_3860_36533)">
<path d="M31.6817 36.79C30.5461 34.7577 29.2908 23.0722 30.5759 14.0466L29.769 13.9868C28.6035 16.6168 28.5437 19.6951 28.454 22.2354C28.3345 26.1505 29.8288 34.9968 30.815 37.059C31.6219 38.7027 35.9853 41.4224 39.9303 41.3626C36.1049 40.6752 32.6978 38.6131 31.6518 36.7601" fill="#F2AC71"/>
</g>
</g>
</g>
<g style="mix-blend-mode:multiply" opacity="0.08">
<mask id="mask7_3860_36533" style="mask-type:luminance" maskUnits="userSpaceOnUse" x="43" y="22" width="10" height="10">
<path d="M52.9006 22.3213H43.875V31.3469H52.9006V22.3213Z" fill="white"/>
</mask>
<g mask="url(#mask7_3860_36533)">
<mask id="mask8_3860_36533" style="mask-type:luminance" maskUnits="userSpaceOnUse" x="43" y="22" width="10" height="10">
<path d="M48.328 22.3232H48.4177C50.8982 22.3232 52.8707 24.3256 52.8707 26.7763V26.8659C52.8707 29.3166 50.8683 31.319 48.4177 31.319H48.328C45.8475 31.319 43.875 29.3166 43.875 26.8659V26.7763C43.875 24.2957 45.8773 22.3232 48.328 22.3232Z" fill="white"/>
</mask>
<g mask="url(#mask8_3860_36533)">
<path d="M52.8882 22.2197L43.7734 22.3184L43.8724 31.463L52.9872 31.3644L52.8882 22.2197Z" fill="url(#paint2_radial_3860_36533)"/>
</g>
</g>
</g>
<g style="mix-blend-mode:multiply" opacity="0.08">
<mask id="mask9_3860_36533" style="mask-type:luminance" maskUnits="userSpaceOnUse" x="28" y="22" width="9" height="10">
<path d="M36.6128 22.7705H28.5137V31.7961H36.6128V22.7705Z" fill="white"/>
</mask>
<g mask="url(#mask9_3860_36533)">
<mask id="mask10_3860_36533" style="mask-type:luminance" maskUnits="userSpaceOnUse" x="28" y="22" width="9" height="10">
<path d="M32.0402 22.7705C30.6057 22.7705 29.3206 23.4878 28.5137 24.5338C28.6332 26.4166 28.9321 28.7179 29.2907 30.8398C30.0677 31.4375 31.0241 31.7961 32.0701 31.7961H32.1299C34.5806 31.7961 36.5829 29.7639 36.5829 27.3132V27.2236C36.5829 24.743 34.5507 22.7705 32.1 22.7705H32.0104H32.0402Z" fill="white"/>
</mask>
<g mask="url(#mask10_3860_36533)">
<path d="M36.6376 22.6936L28.4492 22.7822L28.5479 31.897L36.7362 31.8084L36.6376 22.6936Z" fill="url(#paint3_radial_3860_36533)"/>
</g>
</g>
</g>
<g style="mix-blend-mode:multiply" opacity="0.7">
<mask id="mask11_3860_36533" style="mask-type:luminance" maskUnits="userSpaceOnUse" x="35" y="33" width="10" height="2">
<path d="M44.0543 33.0498H35.6562V34.1855H44.0543V33.0498Z" fill="white"/>
</mask>
<g mask="url(#mask11_3860_36533)">
<mask id="mask12_3860_36533" style="mask-type:luminance" maskUnits="userSpaceOnUse" x="35" y="33" width="10" height="2">
<path d="M44.0543 33.0498H35.6562V34.1855H44.0543V33.0498Z" fill="white"/>
</mask>
<g mask="url(#mask12_3860_36533)">
<path d="M44.0531 33.0498C43.3358 33.3487 42.23 33.797 39.8391 33.8269C37.9264 33.8269 36.2528 33.3487 35.7148 33.0797C35.655 33.0797 35.6252 33.2291 35.6849 33.259C37.0597 34.0062 38.8828 34.1556 39.8092 34.1855C41.8415 34.2154 44.2922 33.4084 44.0531 33.0498Z" fill="#C42727"/>
</g>
</g>
</g>
<g style="mix-blend-mode:multiply" opacity="0.4">
<mask id="mask13_3860_36533" style="mask-type:luminance" maskUnits="userSpaceOnUse" x="38" y="35" width="4" height="2">
<path d="M41.6924 35.4424H38.0762V36.1298H41.6924V35.4424Z" fill="white"/>
</mask>
<g mask="url(#mask13_3860_36533)">
<mask id="mask14_3860_36533" style="mask-type:luminance" maskUnits="userSpaceOnUse" x="38" y="35" width="4" height="2">
<path d="M38.1065 35.801C37.987 36.0401 38.1364 36.1596 38.3755 36.1596C38.764 36.1596 40.1388 35.5619 41.6929 35.9206L41.5733 35.7711C40.8561 35.532 40.1986 35.4424 39.6308 35.4424C38.7342 35.4424 38.1663 35.6516 38.0767 35.801" fill="white"/>
</mask>
<g mask="url(#mask14_3860_36533)">
<path d="M41.6728 35.1955L37.9453 35.4443L38.009 36.3986L41.7365 36.1497L41.6728 35.1955Z" fill="url(#paint4_linear_3860_36533)"/>
</g>
</g>
</g>
<g style="mix-blend-mode:multiply" opacity="0.3">
<mask id="mask15_3860_36533" style="mask-type:luminance" maskUnits="userSpaceOnUse" x="34" y="32" width="11" height="2">
<path d="M44.8306 32.1572H34.998V33.7711H44.8306V32.1572Z" fill="white"/>
</mask>
<g mask="url(#mask15_3860_36533)">
<mask id="mask16_3860_36533" style="mask-type:luminance" maskUnits="userSpaceOnUse" x="34" y="32" width="11" height="2">
<path d="M44.8306 32.1572H34.998V33.7711H44.8306V32.1572Z" fill="white"/>
</mask>
<g mask="url(#mask16_3860_36533)">
<g style="mix-blend-mode:multiply" opacity="0.3">
<mask id="mask17_3860_36533" style="mask-type:luminance" maskUnits="userSpaceOnUse" x="43" y="32" width="2" height="2">
<path d="M44.8289 32.1572H43.3047V33.5918H44.8289V32.1572Z" fill="white"/>
</mask>
<g mask="url(#mask17_3860_36533)">
<mask id="mask18_3860_36533" style="mask-type:luminance" maskUnits="userSpaceOnUse" x="43" y="32" width="2" height="2">
<path d="M43.5139 32.3694C43.5139 32.5188 43.3943 33.0866 43.3047 33.2361L43.4541 33.4453C43.4541 33.4453 43.8725 33.5947 44.2312 33.5947H44.261C44.4403 33.5947 44.6197 33.5947 44.6496 33.5648C44.9783 33.3855 44.8588 32.6383 44.6197 32.4291C44.5001 32.3395 44.1116 32.1602 43.8426 32.1602C43.6932 32.1602 43.5438 32.2199 43.5438 32.3694" fill="white"/>
</mask>
<g mask="url(#mask18_3860_36533)">
<path d="M45.0057 32.0698L43.3027 32.1123L43.34 33.6062L45.043 33.5636L45.0057 32.0698Z" fill="url(#paint5_linear_3860_36533)"/>
</g>
</g>
</g>
<g style="mix-blend-mode:multiply" opacity="0.3">
<mask id="mask19_3860_36533" style="mask-type:luminance" maskUnits="userSpaceOnUse" x="34" y="32" width="3" height="2">
<path d="M36.3111 32.4248H34.9961V33.7697H36.3111V32.4248Z" fill="white"/>
</mask>
<g mask="url(#mask19_3860_36533)">
<mask id="mask20_3860_36533" style="mask-type:luminance" maskUnits="userSpaceOnUse" x="34" y="32" width="3" height="2">
<path d="M35.0261 32.8711C34.9364 33.17 35.0261 33.6482 35.4146 33.7677H35.4744C35.7135 33.7677 36.2514 33.6183 36.1917 33.4689L36.2813 33.2298C36.2813 33.2298 35.8928 32.7516 35.833 32.6022C35.7733 32.4826 35.6836 32.4229 35.5939 32.4229C35.3548 32.4229 35.056 32.6619 34.9962 32.8711" fill="white"/>
</mask>
<g mask="url(#mask20_3860_36533)">
<path d="M36.3476 32.3419L34.9434 32.377L34.9784 33.7812L36.3826 33.7461L36.3476 32.3419Z" fill="url(#paint6_linear_3860_36533)"/>
</g>
</g>
</g>
</g>
</g>
</g>
<g style="mix-blend-mode:multiply" opacity="0.3">
<mask id="mask21_3860_36533" style="mask-type:luminance" maskUnits="userSpaceOnUse" x="36" y="22" width="7" height="10">
<path d="M42.9195 22.2646H36.7031V31.6191H42.9195V22.2646Z" fill="white"/>
</mask>
<g mask="url(#mask21_3860_36533)">
<mask id="mask22_3860_36533" style="mask-type:luminance" maskUnits="userSpaceOnUse" x="36" y="22" width="7" height="10">
<path d="M37.781 26.7173C37.3327 28.0622 36.735 28.9588 36.7051 29.4967V29.5565C36.7051 29.5565 36.7051 29.5565 36.7051 29.5864C36.8246 30.6324 38.8868 31.529 39.7535 31.5888C39.7535 31.5888 39.7834 31.5888 39.8133 31.5888H39.8431C40.7696 31.5888 42.772 30.3933 42.9214 29.1979C42.8318 29.1979 38.0799 22.2344 38.0799 22.2344C38.2293 23.6988 38.2293 25.3127 37.781 26.6874" fill="white"/>
</mask>
<g mask="url(#mask22_3860_36533)">
<path d="M36.6788 22.0898L36.4102 31.5898L42.8929 31.7732L43.1616 22.2731L36.6788 22.0898Z" fill="url(#paint7_linear_3860_36533)"/>
</g>
</g>
</g>
<g style="mix-blend-mode:multiply" opacity="0.4">
<mask id="mask23_3860_36533" style="mask-type:luminance" maskUnits="userSpaceOnUse" x="36" y="22" width="7" height="10">
<path d="M42.9195 22.2646H36.7031V31.6191H42.9195V22.2646Z" fill="white"/>
</mask>
<g mask="url(#mask23_3860_36533)">
<mask id="mask24_3860_36533" style="mask-type:luminance" maskUnits="userSpaceOnUse" x="36" y="22" width="7" height="10">
<path d="M37.781 26.7173C37.3327 28.0622 36.735 28.9588 36.7051 29.4967V29.5565C36.7051 29.5565 36.7051 29.5565 36.7051 29.5864C36.8246 30.6324 38.8868 31.529 39.7535 31.5888C39.7535 31.5888 39.7834 31.5888 39.8133 31.5888H39.8431C40.7696 31.5888 42.772 30.3933 42.9214 29.1979C42.8915 29.1979 41.6961 30.6922 39.8133 30.7818C38.6178 30.8117 37.0339 29.7657 37.1534 29.4967C39.0362 25.6115 38.0799 22.2344 38.0799 22.2344C38.2293 23.6988 38.2293 25.3127 37.781 26.6874" fill="white"/>
</mask>
<g mask="url(#mask24_3860_36533)">
<path d="M36.6788 22.0898L36.4102 31.5898L42.8929 31.7732L43.1616 22.2731L36.6788 22.0898Z" fill="url(#paint8_linear_3860_36533)"/>
</g>
</g>
</g>
<g style="mix-blend-mode:multiply" opacity="0.3">
<mask id="mask25_3860_36533" style="mask-type:luminance" maskUnits="userSpaceOnUse" x="42" y="26" width="5" height="8">
<path d="M46.4141 26.834H42.6484V33.9768H46.4141V26.834Z" fill="white"/>
</mask>
<g mask="url(#mask25_3860_36533)">
<mask id="mask26_3860_36533" style="mask-type:luminance" maskUnits="userSpaceOnUse" x="42" y="26" width="5" height="9">
<path d="M46.3842 33.9768C46.3842 33.8274 46.3842 33.648 46.3842 33.4986V33.3492C46.3244 29.972 43.0668 27.2823 42.6484 26.8937C43.037 27.342 46.175 31.0778 46.3543 34.0067M42.6484 26.834C42.6484 26.834 42.6484 26.834 42.6783 26.8937C42.6783 26.8937 42.6484 26.8639 42.6484 26.834Z" fill="white"/>
</mask>
<g mask="url(#mask26_3860_36533)">
<path d="M46.3911 26.468L41.959 26.8994L42.6829 34.3358L47.115 33.9044L46.3911 26.468Z" fill="url(#paint9_linear_3860_36533)"/>
</g>
</g>
</g>
<g style="mix-blend-mode:multiply" opacity="0.3">
<mask id="mask27_3860_36533" style="mask-type:luminance" maskUnits="userSpaceOnUse" x="33" y="26" width="5" height="9">
<path d="M37.209 26.6865H33.7422V34.0086H37.209V26.6865Z" fill="white"/>
</mask>
<g mask="url(#mask27_3860_36533)">
<mask id="mask28_3860_36533" style="mask-type:luminance" maskUnits="userSpaceOnUse" x="33" y="26" width="5" height="9">
<path d="M33.7422 33.0529V33.3219C33.7422 33.561 33.7422 33.7701 33.8019 34.0092C33.8019 31.1103 36.7906 27.2251 37.1492 26.7469C36.7607 27.1653 33.802 29.8252 33.7422 33.0828M37.1791 26.717C37.1791 26.717 37.209 26.6871 37.209 26.6572C37.209 26.6572 37.209 26.6572 37.1791 26.717Z" fill="white"/>
</mask>
<g mask="url(#mask28_3860_36533)">
<path d="M33.727 26.4963L33.3633 33.959L37.1543 34.1437L37.518 26.681L33.727 26.4963Z" fill="url(#paint10_linear_3860_36533)"/>
</g>
</g>
</g>
<g style="mix-blend-mode:multiply" opacity="0.4">
<mask id="mask29_3860_36533" style="mask-type:luminance" maskUnits="userSpaceOnUse" x="35" y="14" width="10" height="2">
<path d="M44.7128 14.6392H35.5078V15.5955H44.7128V14.6392Z" fill="white"/>
</mask>
<g mask="url(#mask29_3860_36533)">
<mask id="mask30_3860_36533" style="mask-type:luminance" maskUnits="userSpaceOnUse" x="35" y="14" width="10" height="2">
<path d="M39.4229 14.6392C38.1378 14.6392 36.763 14.8484 35.5078 15.3265C39.8114 14.5196 43.2185 15.4162 44.7128 15.5955C44.6231 15.3863 42.3518 14.6392 39.6321 14.6392H39.393H39.4229Z" fill="white"/>
</mask>
<g mask="url(#mask30_3860_36533)">
<path d="M44.6454 13.6283L35.3945 14.5288L35.5856 16.492L44.8365 15.5915L44.6454 13.6283Z" fill="url(#paint11_linear_3860_36533)"/>
</g>
</g>
</g>
<g style="mix-blend-mode:multiply" opacity="0.4">
<mask id="mask31_3860_36533" style="mask-type:luminance" maskUnits="userSpaceOnUse" x="34" y="12" width="12" height="2">
<path d="M45.7281 12.4287H34.4609V13.4747H45.7281V12.4287Z" fill="white"/>
</mask>
<g mask="url(#mask31_3860_36533)">
<mask id="mask32_3860_36533" style="mask-type:luminance" maskUnits="userSpaceOnUse" x="34" y="12" width="12" height="2">
<path d="M39.3623 12.4277C37.7185 12.4277 36.015 12.6668 34.4609 13.3243C39.0933 12.3381 44.0245 13.1749 45.7281 13.4737C45.6683 13.2944 42.9486 12.4875 39.7807 12.4277H39.3623Z" fill="white"/>
</mask>
<g mask="url(#mask32_3860_36533)">
<path d="M45.7131 12.0481L34.4199 12.3398L34.4562 13.744L45.7494 13.4523L45.7131 12.0481Z" fill="url(#paint12_linear_3860_36533)"/>
</g>
</g>
</g>
<g style="mix-blend-mode:multiply" opacity="0.5">
<mask id="mask33_3860_36533" style="mask-type:luminance" maskUnits="userSpaceOnUse" x="33" y="22" width="3" height="4">
<path d="M35.5655 22.4678H33.2344V25.307H35.5655V22.4678Z" fill="white"/>
</mask>
<g mask="url(#mask33_3860_36533)">
<mask id="mask34_3860_36533" style="mask-type:luminance" maskUnits="userSpaceOnUse" x="33" y="22" width="3" height="4">
<path d="M34.3994 22.4381C33.7717 22.4381 33.2636 23.0657 33.2337 23.8129C33.2039 24.5899 33.6821 25.2474 34.3396 25.2474H34.3994C35.027 25.2474 35.535 24.6198 35.5649 23.8726C35.5948 23.0956 35.1166 22.4381 34.4591 22.4082H34.3994V22.4381Z" fill="white"/>
</mask>
<g mask="url(#mask34_3860_36533)">
<path d="M35.573 22.4078L33.123 22.4668L33.1929 25.3649L35.6428 25.3059L35.573 22.4078Z" fill="url(#paint13_linear_3860_36533)"/>
</g>
</g>
</g>
<path d="M35.3566 23.8461C35.3268 24.5933 34.7888 25.2209 34.1612 25.191C33.5336 25.191 33.0554 24.5335 33.0853 23.7863C33.1152 23.0392 33.6531 22.4116 34.2807 22.4415C34.9084 22.4415 35.3865 23.099 35.3566 23.8461Z" fill="#724B30"/>
<path d="M35.1484 23.517C35.1484 23.7561 34.969 23.9056 34.7897 23.9056C34.6104 23.9056 34.4609 23.7262 34.4609 23.4871C34.4609 23.2779 34.6403 23.0986 34.8196 23.0986C34.9989 23.0986 35.1484 23.2779 35.1484 23.517Z" fill="white"/>
<g style="mix-blend-mode:multiply" opacity="0.5">
<mask id="mask35_3860_36533" style="mask-type:luminance" maskUnits="userSpaceOnUse" x="44" y="22" width="4" height="4">
<path d="M47.2817 22.3516H44.9805V25.131H47.2817V22.3516Z" fill="white"/>
</mask>
<g mask="url(#mask35_3860_36533)">
<mask id="mask36_3860_36533" style="mask-type:luminance" maskUnits="userSpaceOnUse" x="44" y="22" width="4" height="4">
<path d="M46.1454 22.3551C45.5477 22.3551 45.0396 22.9827 44.9798 23.7C44.95 24.477 45.4281 25.1046 46.0557 25.1345H46.1155C46.7133 25.1345 47.2512 24.5069 47.2811 23.7597C47.311 22.9827 46.8328 22.3551 46.2052 22.3252H46.1454V22.3551Z" fill="white"/>
</mask>
<g mask="url(#mask36_3860_36533)">
<path d="M47.3445 22.3111L44.8945 22.3701L44.9629 25.2085L47.4129 25.1495L47.3445 22.3111Z" fill="url(#paint14_linear_3860_36533)"/>
</g>
</g>
</g>
<path d="M47.0437 23.786C47.0138 24.5332 46.4758 25.1309 45.8482 25.101C45.2206 25.0711 44.7723 24.4734 44.8022 23.7262C44.8321 22.9791 45.37 22.3813 45.9976 22.4112C46.6252 22.4112 47.0735 23.0388 47.0437 23.786Z" fill="#724B30"/>
<path d="M46.8039 23.3969C46.8039 23.6061 46.6246 23.7854 46.4453 23.7854C46.266 23.7854 46.1165 23.6061 46.1464 23.367C46.1464 23.1578 46.2958 22.9785 46.505 22.9785C46.6843 22.9785 46.8338 23.1578 46.8039 23.3969Z" fill="white"/>
<path d="M36.6125 18.1978C35.8055 17.2116 31.0536 18.0484 30.2168 19.7519L30.6053 20.4393C32.6675 19.9013 34.0721 20.3197 35.686 20.4094C36.4033 20.4393 36.9412 18.5863 36.6424 18.1978" fill="#E6E6E6"/>
<path d="M42.9779 18.0776C43.7848 17.1212 48.5367 18.0477 49.3436 19.7811L48.9252 20.4685C46.8929 19.9006 45.4584 20.2891 43.8445 20.319C43.1273 20.319 42.6192 18.4661 42.9479 18.0776" fill="#E6E6E6"/>
<path d="M44.8921 31.9764C44.0553 32.0959 43.4576 30.3326 42.4414 30.1533C41.9334 30.6614 40.977 31.4982 39.7517 31.4982C38.8252 31.4982 37.1516 30.3924 37.1516 30.3924C36.1355 30.5418 36.1056 32.3051 35.209 32.2753C36.9723 33.7696 39.0643 33.3811 39.9609 32.4845C40.7977 33.6799 44.145 33.3512 44.8921 31.9764Z" fill="#E6E6E6"/>
<path d="M54.6338 12.9972C54.066 12.1006 48.9255 8.24532 47.9094 7.82691C46.5645 7.25907 40.916 6.45215 40.916 6.45215C40.677 6.45215 36.6722 6.87054 35.148 7.55792C33.8928 8.12576 29.6489 10.7558 29.38 10.8753C28.9018 11.0845 27.0787 14.8502 27.0488 15.7467C27.0488 16.6433 27.1983 21.0366 27.5569 22.2022C27.5569 22.2022 28.3638 24.7425 28.6328 25.9679C28.6328 25.8483 28.7523 24.6827 28.7822 24.0252C28.7822 20.8872 29.4696 15.9859 29.7984 15.0893C30.1869 14.0433 34.879 10.2178 35.0882 10.0684C35.5365 9.76952 38.5849 10.3075 40.2585 10.2178C41.3046 10.158 44.6817 9.97871 45.6979 10.1281C46.6841 10.2776 50.3003 12.3098 51.5855 13.8639C52.8407 15.2387 52.8406 20.1699 52.6613 23.577C52.9004 23.9655 53.3188 26.2966 53.4683 25.6391C53.9165 23.6068 54.3648 22.1723 55.0522 22.0527C55.3212 20.7378 55.7097 14.7306 54.6338 13.0271" fill="white"/>
<g style="mix-blend-mode:multiply" opacity="0.5">
<mask id="mask37_3860_36533" style="mask-type:luminance" maskUnits="userSpaceOnUse" x="28" y="20" width="27" height="9">
<path d="M54.7222 20.9756H28.3027V28.746H54.7222V20.9756Z" fill="white"/>
</mask>
<g mask="url(#mask37_3860_36533)">
<mask id="mask38_3860_36533" style="mask-type:luminance" maskUnits="userSpaceOnUse" x="28" y="20" width="27" height="9">
<path d="M29.8272 26.5643C29.1697 25.6378 29.0203 24.4723 29.0203 23.6355C29.0203 22.1113 30.3651 21.8124 33.025 21.8124H33.1147C34.2802 21.8124 35.4458 21.8124 36.2826 22.1113C37.0895 22.3803 37.4482 22.8285 37.4482 23.5757C37.4482 25.2194 36.9401 27.9989 33.294 28.0287H33.2043C31.6801 28.0287 30.5444 27.5207 29.8272 26.5643ZM42.9472 26.4448C42.2897 25.5183 42.1403 24.3527 42.1403 23.5159C42.1403 21.9917 43.5749 21.6929 46.2048 21.663H46.2945C49.044 21.663 50.5085 21.9021 50.5383 23.4561C50.5383 25.0999 50.0303 27.8793 46.3842 27.9092H46.3244C44.7703 27.9092 43.6645 27.4011 42.9472 26.4448ZM46.7129 20.9756C46.7129 20.9756 46.4439 20.9756 46.2945 20.9756H46.2048C44.7404 20.9756 42.7081 21.0055 41.8414 22.171C41.3931 21.9021 40.8253 21.7825 40.377 21.7227C39.4804 21.6331 38.2551 21.7526 37.5976 22.1412C37.3286 21.8423 36.9401 21.6032 36.4619 21.4239C35.5354 21.125 34.2802 21.0951 33.0848 21.0951H32.9951C31.1123 21.0951 28.2731 21.1549 28.303 23.6355C28.303 24.562 28.4823 25.8769 29.2294 26.9528C30.0364 28.1184 31.3514 28.7161 33.1147 28.7161H33.2641C37.6873 28.6564 38.1355 25.07 38.1057 23.5458C38.1057 23.2469 38.0459 22.978 37.9562 22.7389C38.3447 22.4998 39.331 22.3205 40.2873 22.4101C40.7954 22.4699 41.2437 22.5895 41.4828 22.7688C41.423 22.978 41.3633 23.2171 41.3932 23.5159C41.3932 24.4424 41.5725 25.7574 42.3196 26.8333C43.1564 28.0288 44.5312 28.6265 46.3244 28.5966C50.7475 28.5368 51.1659 24.9505 51.1659 23.4263C51.1659 23.3067 51.1659 23.2171 51.1659 23.0975L54.3339 22.5894L54.6627 22.0216L50.7774 22.1113C50.0004 21.0951 48.2969 20.9756 46.8623 20.9756H46.683H46.7129Z" fill="white"/>
</mask>
<g mask="url(#mask38_3860_36533)">
<path d="M54.7244 20.6751L28.2168 20.9619L28.3041 29.0307L54.8117 28.7439L54.7244 20.6751Z" fill="url(#paint15_linear_3860_36533)"/>
</g>
</g>
</g>
<path d="M55.0515 22.0229L50.6882 21.9033C49.7916 20.7378 47.6696 20.7676 46.1753 20.7676H46.0857C44.6212 20.7676 42.589 20.7975 41.7223 21.9631C41.274 21.6941 40.7061 21.5746 40.2578 21.5148C39.3613 21.4251 38.1359 21.5447 37.4784 21.9332C37.2095 21.6343 36.8209 21.3953 36.3428 21.2159C35.4163 20.9171 34.161 20.8872 32.9656 20.8872H32.8759C30.9931 20.8872 28.1539 20.947 28.1838 23.4275C28.1838 24.354 28.3631 25.669 29.1402 26.7449C29.977 27.9403 31.3218 28.5381 33.1449 28.5082C37.5681 28.4484 37.9865 24.8621 37.9865 23.3379C37.9865 23.039 37.9267 22.77 37.8371 22.5309C38.2256 22.2919 39.2118 22.1125 40.1682 22.2022C40.6763 22.262 41.1245 22.3815 41.3636 22.5608C41.3039 22.77 41.274 23.0091 41.274 23.308C41.274 24.2345 41.4533 25.5495 42.2004 26.6254C43.0373 27.8208 44.3822 28.4185 46.2052 28.3886C50.6284 28.3289 51.0468 24.7425 51.0468 23.2183C51.0468 23.0988 51.0468 22.9793 51.0169 22.8896L54.3642 22.5608L54.9918 22.0229H55.0515ZM33.1449 27.8208C31.5609 27.8208 30.4253 27.3426 29.708 26.3564C29.0505 25.4299 28.9011 24.2643 28.9011 23.4275C28.9011 21.9033 30.246 21.6344 32.8759 21.6045H32.9656C34.1312 21.6045 35.2967 21.6045 36.1335 21.9033C36.9405 22.1723 37.2991 22.6206 37.2991 23.3678C37.2991 25.0115 36.791 27.7909 33.1449 27.8208ZM46.265 27.7013C44.681 27.7013 43.5453 27.2231 42.8281 26.2368C42.1706 25.3104 42.0211 24.1448 42.0211 23.3379C42.0211 21.8137 43.4557 21.5148 46.0857 21.4849H46.1753C48.9248 21.4849 50.3893 21.724 50.4192 23.2482C50.4192 24.892 49.9111 27.6714 46.265 27.7013Z" fill="#876148"/>
<path d="M36.3433 52.447C37.8974 52.7459 39.4813 52.9252 41.1251 52.9252C41.9021 52.9252 42.6792 52.8953 43.4562 52.8056L47.7299 44.5869L33.8926 44.4375L36.3433 52.447Z" fill="#E6E6E6"/>
<path d="M42.1407 44.1689H37.8072L36.791 46.0817L38.5543 48.3231C38.4647 49.3393 38.2555 50.8635 38.0164 52.6865C39.0325 52.8061 40.0785 52.8957 41.1246 52.8957C41.3935 52.8957 41.6625 52.8957 41.9315 52.8957L41.6625 48.3829L43.7246 46.0219L42.1108 44.1689H42.1407Z" fill="#989F91"/>
<mask id="mask39_3860_36533" style="mask-type:luminance" maskUnits="userSpaceOnUse" x="51" y="45" width="5" height="6">
<path d="M51.5859 45.1236C51.5859 45.1236 52.0043 47.0663 52.6021 50.0848C53.5584 49.5767 54.4849 49.0387 55.3516 48.4111C54.0067 46.5283 52.6618 45.3926 51.5859 45.0938V45.1236Z" fill="white"/>
</mask>
<g mask="url(#mask39_3860_36533)">
<path d="M55.3516 45.1221H51.5859V50.0832H55.3516V45.1221Z" fill="url(#paint16_linear_3860_36533)"/>
</g>
<mask id="mask40_3860_36533" style="mask-type:luminance" maskUnits="userSpaceOnUse" x="26" y="45" width="5" height="5">
<path d="M26.541 48.1732C27.4077 48.8008 28.2744 49.3686 29.2308 49.8767C29.7986 47.0076 30.1871 45.1846 30.1871 45.1846C28.902 45.6628 27.6767 46.7088 26.5709 48.1732" fill="white"/>
</mask>
<g mask="url(#mask40_3860_36533)">
<path d="M30.1572 45.1846H26.541V49.8767H30.1572V45.1846Z" fill="url(#paint17_linear_3860_36533)"/>
</g>
<path d="M41.1262 52.8954C45.5793 52.8954 49.7335 51.7298 53.3497 49.6976C52.8118 48.0538 52.214 46.4998 51.5565 45.1549C50.1519 44.2583 47.7311 43.541 46.7448 43.541C44.9815 46.3802 41.9331 51.1022 40.7676 52.8954C40.8871 52.8954 41.0067 52.8954 41.1262 52.8954Z" fill="#A38D5D"/>
<path d="M39.7818 52.8655C38.2576 50.6838 33.9838 44.4675 33.8045 43.8398C32.4297 44.2583 30.1883 44.8261 29.8894 45.5135C29.3216 46.7687 28.8135 48.0837 28.3652 49.3987C31.7424 51.4011 35.6276 52.6563 39.7818 52.8655Z" fill="#A38D5D"/>
<path d="M42.1424 50.7449C41.5745 51.6116 41.0963 52.3588 40.7676 52.8668C40.8871 52.8668 41.0067 52.8668 41.1262 52.8668C41.6642 52.8668 42.1722 52.8668 42.6803 52.807L44.4137 50.5058L43.4275 49.2207C42.9493 49.7587 42.5309 50.2667 42.1424 50.715" fill="#6D644A"/>
<path d="M48.4774 43.8398C48.4774 43.8398 48.2981 43.9893 48.2383 44.0789L48.7763 44.7663L49.2843 44.0789C49.0153 43.9893 48.7464 43.8996 48.4774 43.8398Z" fill="#6D644A"/>
<path d="M45.8472 52.4464C48.2979 51.9682 50.5991 51.1613 52.7211 50.0256L48.7462 44.7656L44.3828 50.5337L45.8173 52.4464H45.8472Z" fill="#6D644A"/>
<path d="M28.3639 49.3681C30.3065 50.5336 32.3985 51.4303 34.6101 52.028L35.7159 50.5337L31.3525 44.7656L28.7524 48.2025C28.603 48.591 28.4535 48.9796 28.334 49.3681" fill="#6D644A"/>
<path d="M31.2623 44.617L31.352 44.7664L31.5313 44.5273C31.5313 44.5273 31.352 44.5871 31.2324 44.6469" fill="#6D644A"/>
<path d="M39.5727 52.8358L36.6439 49.2793L35.6875 50.5345L37.2416 52.5967C38.0186 52.7162 38.7658 52.8059 39.5727 52.8358Z" fill="#6D644A"/>
<path d="M49.2854 44.0801L48.7773 44.7675L52.7522 50.0274C52.9614 49.9079 53.1706 49.7883 53.3798 49.6987C52.8419 48.0251 52.2442 46.5009 51.5867 45.1261C50.959 44.7376 50.1222 44.3491 49.2854 44.0801Z" fill="#B7AB83"/>
<path d="M29.887 45.5138C29.4985 46.4104 29.11 47.3069 28.7812 48.2035L31.3813 44.7666L31.2618 44.6172C30.5744 44.8862 30.0365 45.185 29.887 45.4839" fill="#B7AB83"/>
<path d="M37.2698 52.5983L35.7157 50.5361L34.5801 52.0304C35.4468 52.2695 36.3434 52.4488 37.24 52.5983" fill="#B7AB83"/>
<path d="M32.4892 44.1982C32.1604 44.2879 31.8317 44.4074 31.5328 44.527L31.3535 44.7661L35.7169 50.5341L36.6733 49.2789L32.5191 44.1982H32.4892Z" fill="#B7AB83"/>
<path d="M45.8476 52.4489L44.4131 50.5361L42.6797 52.8374C43.7556 52.7776 44.8016 52.6282 45.8476 52.4489Z" fill="#B7AB83"/>
<path d="M43.4258 49.2504L44.412 50.5355L48.7754 44.7675L48.2375 44.0801C46.5638 45.7537 44.8603 47.6366 43.4258 49.2504Z" fill="#B7AB83"/>
<g opacity="0.5">
<mask id="mask41_3860_36533" style="mask-type:luminance" maskUnits="userSpaceOnUse" x="41" y="52" width="2" height="1">
<path d="M42.0225 52.5352H41.5742V52.8938H42.0225V52.5352Z" fill="white"/>
</mask>
<g mask="url(#mask41_3860_36533)">
<mask id="mask42_3860_36533" style="mask-type:luminance" maskUnits="userSpaceOnUse" x="41" y="52" width="2" height="1">
<path d="M42.0225 52.5342H41.5742V52.8928H42.0225V52.5342Z" fill="white"/>
</mask>
<g mask="url(#mask42_3860_36533)">
<path d="M41.7535 52.5342C41.7535 52.5342 41.634 52.7135 41.5742 52.8031L41.634 52.8928C41.634 52.8928 41.9029 52.8928 42.0225 52.8928L41.7535 52.5342Z" fill="#E2D6B7"/>
</g>
</g>
</g>
<g opacity="0.5">
<mask id="mask43_3860_36533" style="mask-type:luminance" maskUnits="userSpaceOnUse" x="28" y="46" width="7" height="6">
<path d="M34.4913 46.4121H28.9922V51.1939H34.4913V46.4121Z" fill="white"/>
</mask>
<g mask="url(#mask43_3860_36533)">
<mask id="mask44_3860_36533" style="mask-type:luminance" maskUnits="userSpaceOnUse" x="28" y="46" width="7" height="6">
<path d="M34.4913 46.415H28.9922V51.1968H34.4913V46.415Z" fill="white"/>
</mask>
<g mask="url(#mask44_3860_36533)">
<path d="M31.2934 50.898L31.3532 50.8083L31.4728 50.9578C31.6521 51.0474 31.8613 51.1072 32.0406 51.167L31.5624 50.5394L34.4913 46.6541L34.2821 46.415L31.3532 50.3003L29.1118 47.3116C29.1118 47.3116 29.0221 47.5507 28.9922 47.6703L31.1739 50.5692L31.0245 50.7784C31.0245 50.7784 31.2337 50.8681 31.3233 50.898" fill="#E2D6B7"/>
</g>
</g>
</g>
<g opacity="0.5">
<mask id="mask45_3860_36533" style="mask-type:luminance" maskUnits="userSpaceOnUse" x="38" y="51" width="2" height="2">
<path d="M39.0335 51.9111H38.2266V52.7479H39.0335V51.9111Z" fill="white"/>
</mask>
<g mask="url(#mask45_3860_36533)">
<mask id="mask46_3860_36533" style="mask-type:luminance" maskUnits="userSpaceOnUse" x="38" y="51" width="2" height="2">
<path d="M39.0335 51.9121H38.2266V52.7489H39.0335V51.9121Z" fill="white"/>
</mask>
<g mask="url(#mask46_3860_36533)">
<path d="M38.2266 52.7165C38.2266 52.7165 38.4656 52.7464 38.5852 52.7763L39.0335 52.1785L38.8243 51.9395L38.2266 52.7464V52.7165Z" fill="#E2D6B7"/>
</g>
</g>
</g>
<g opacity="0.5">
<mask id="mask47_3860_36533" style="mask-type:luminance" maskUnits="userSpaceOnUse" x="45" y="46" width="8" height="7">
<path d="M52.1247 46.0195H45.6992V52.0864H52.1247V46.0195Z" fill="white"/>
</mask>
<g mask="url(#mask47_3860_36533)">
<mask id="mask48_3860_36533" style="mask-type:luminance" maskUnits="userSpaceOnUse" x="45" y="46" width="8" height="7">
<path d="M52.1247 46.0186H45.6992V52.0855H52.1247V46.0186Z" fill="white"/>
</mask>
<g mask="url(#mask48_3860_36533)">
<path d="M51.9753 46.0186L48.7775 50.2923L46.6854 47.5428L45.9084 46.4967C45.9084 46.4967 45.759 46.6462 45.6992 46.7358L46.5061 47.7818L48.5683 50.5314L47.4027 52.0855C47.582 52.0556 47.7315 51.9958 47.9108 51.936L48.7775 50.8003L49.3154 51.5176C49.3154 51.5176 49.5246 51.4578 49.6442 51.3981L48.9867 50.5314L52.1546 46.3473L52.0052 46.0186" fill="#E2D6B7"/>
</g>
</g>
</g>
<path d="M46.7441 43.5128C44.682 46.4118 40.737 51.9707 40.1094 52.8672C40.4381 52.8672 40.7669 52.8672 41.1255 52.8672C41.6635 52.8672 42.2014 52.8672 42.7394 52.8075C44.5027 50.4763 46.8936 47.2486 49.1948 44.0209C48.6569 43.8117 46.7441 43.3036 46.7441 43.483" fill="#6D644A"/>
<path d="M33.8337 43.7197C33.1164 43.9588 31.9807 44.168 31.4727 44.5566C32.7279 46.5291 35.2383 49.966 37.2108 52.5959C38.1074 52.7454 39.004 52.835 39.9305 52.8649L33.8038 43.7197H33.8337Z" fill="#6D644A"/>
<path d="M34.8795 42.2871L31.084 44.7079L34.7002 49.9081L38.3164 44.0205C38.3164 44.0205 34.9692 42.2273 34.8795 42.317" fill="white"/>
<path d="M49.9429 44.3186L46.1772 41.9277L41.8438 44.0497L45.5197 49.7878L49.9429 44.3186Z" fill="white"/>
<path d="M95.737 19.6769L86.2787 46.1508C84.4551 51.2817 81.7814 53.8472 78.2577 53.8472C77.2068 53.8472 76.3877 53.7545 75.8004 53.569V49.8135C76.9441 50.1226 77.7323 50.2772 78.165 50.2772C79.4014 50.2772 80.3905 49.6126 81.1323 48.2835C81.596 47.0471 82.0751 45.8262 82.5696 44.6208L73.575 19.6769H78.2114L84.7024 39.428L91.2397 19.6769H95.737ZM120.078 33.1225H102.274C102.274 38.5316 104.546 41.2362 109.09 41.2362C112.583 41.2362 114.793 39.598 115.72 36.3216H119.707C119.429 38.9489 118.177 41.0507 115.952 42.6271C113.912 44.0798 111.516 44.8062 108.765 44.8062C105.273 44.8062 102.553 43.5544 100.605 41.0507C98.8125 38.7634 97.9161 35.827 97.9161 32.2415C97.9161 28.5015 98.8743 25.4415 100.791 23.0614C102.862 20.4341 105.721 19.1205 109.368 19.1205C110.883 19.1205 112.444 19.4759 114.051 20.1869C115.813 20.9596 117.065 21.9178 117.806 23.0614C119.321 25.4415 120.078 28.7951 120.078 33.1225ZM115.859 29.877C115.859 28.2697 115.303 26.5078 114.19 24.5915C113.448 23.3242 111.764 22.6905 109.136 22.6905C106.169 22.6905 104.098 24.1433 102.923 27.0488C102.583 27.8833 102.413 28.826 102.413 29.877H115.859ZM115.905 9.84767L111.733 16.385H106.725L112.799 9.84767H115.905ZM144.682 19.6769L135.224 46.1508C133.4 51.2817 130.726 53.8472 127.203 53.8472C126.152 53.8472 125.333 53.7545 124.745 53.569V49.8135C125.889 50.1226 126.677 50.2772 127.11 50.2772C128.346 50.2772 129.335 49.6126 130.077 48.2835C130.541 47.0471 131.02 45.8262 131.515 44.6208L122.52 19.6769H127.156L133.647 39.428L140.185 19.6769H144.682ZM169.023 33.1225H151.219C151.219 38.5316 153.491 41.2362 158.035 41.2362C161.528 41.2362 163.738 39.598 164.665 36.3216H168.652C168.374 38.9489 167.122 41.0507 164.897 42.6271C162.857 44.0798 160.461 44.8062 157.71 44.8062C154.217 44.8062 151.497 43.5544 149.55 41.0507C147.757 38.7634 146.861 35.827 146.861 32.2415C146.861 28.5015 147.819 25.4415 149.736 23.0614C151.807 20.4341 154.666 19.1205 158.313 19.1205C159.828 19.1205 161.388 19.4759 162.996 20.1869C164.758 20.9596 166.009 21.9178 166.751 23.0614C168.266 25.4415 169.023 28.7951 169.023 33.1225ZM164.804 29.877C164.804 28.2697 164.248 26.5078 163.135 24.5915C162.393 23.3242 160.708 22.6905 158.081 22.6905C155.114 22.6905 153.043 24.1433 151.868 27.0488C151.528 27.8833 151.358 28.826 151.358 29.877H164.804Z" fill="#231815"/>
<defs>
<linearGradient id="paint0_linear_3860_36533" x1="27.3552" y1="25.1566" x2="23.1714" y2="25.2019" gradientUnits="userSpaceOnUse">
<stop stop-color="#E29359"/>
<stop offset="0.04" stop-color="#E3945A"/>
<stop offset="0.59" stop-color="#EEA56B"/>
<stop offset="1" stop-color="#F2AC71"/>
</linearGradient>
<linearGradient id="paint1_linear_3860_36533" x1="56.8654" y1="28.3402" x2="42.8197" y2="28.4922" gradientUnits="userSpaceOnUse">
<stop stop-color="#F2AC71"/>
<stop offset="0.36" stop-color="#EDA56A"/>
<stop offset="0.85" stop-color="#E09459"/>
<stop offset="1" stop-color="#DB8E53"/>
</linearGradient>
<radialGradient id="paint2_radial_3860_36533" cx="0" cy="0" r="1" gradientUnits="userSpaceOnUse" gradientTransform="translate(46.2879 25.9366) rotate(179.38) scale(4.51283 4.51283)">
<stop stop-color="#DE4031"/>
<stop offset="0.11" stop-color="#DE4435"/>
<stop offset="0.25" stop-color="#E15144"/>
<stop offset="0.39" stop-color="#E4675B"/>
<stop offset="0.55" stop-color="#EA867D"/>
<stop offset="0.71" stop-color="#F1ADA7"/>
<stop offset="0.87" stop-color="#F9DDDA"/>
<stop offset="0.97" stop-color="white"/>
<stop offset="1" stop-color="white"/>
</radialGradient>
<radialGradient id="paint3_radial_3860_36533" cx="0" cy="0" r="1" gradientUnits="userSpaceOnUse" gradientTransform="translate(27.5467 25.2195) rotate(179.38) scale(4.27374 4.27374)">
<stop stop-color="#DE4031"/>
<stop offset="0.11" stop-color="#DE4435"/>
<stop offset="0.25" stop-color="#E15144"/>
<stop offset="0.39" stop-color="#E4675B"/>
<stop offset="0.55" stop-color="#EA867D"/>
<stop offset="0.71" stop-color="#F1ADA7"/>
<stop offset="0.87" stop-color="#F9DDDA"/>
<stop offset="0.97" stop-color="white"/>
<stop offset="1" stop-color="white"/>
</radialGradient>
<linearGradient id="paint4_linear_3860_36533" x1="40.5805" y1="33.1115" x2="44.1887" y2="32.8706" gradientUnits="userSpaceOnUse">
<stop stop-color="#F2AC71"/>
<stop offset="0.36" stop-color="#EDA56A"/>
<stop offset="0.85" stop-color="#E09459"/>
<stop offset="1" stop-color="#DB8E53"/>
</linearGradient>
<linearGradient id="paint5_linear_3860_36533" x1="44.3837" y1="26.3164" x2="45.9075" y2="26.2783" gradientUnits="userSpaceOnUse">
<stop stop-color="#F2AC71"/>
<stop offset="0.36" stop-color="#EDA56A"/>
<stop offset="0.85" stop-color="#E09459"/>
<stop offset="1" stop-color="#DB8E53"/>
</linearGradient>
<linearGradient id="paint6_linear_3860_36533" x1="35.7813" y1="20.0181" x2="37.066" y2="19.986" gradientUnits="userSpaceOnUse">
<stop stop-color="#F2AC71"/>
<stop offset="0.36" stop-color="#EDA56A"/>
<stop offset="0.85" stop-color="#E09459"/>
<stop offset="1" stop-color="#DB8E53"/>
</linearGradient>
<linearGradient id="paint7_linear_3860_36533" x1="39.7974" y1="24.5893" x2="39.5667" y2="32.745" gradientUnits="userSpaceOnUse">
<stop stop-color="white"/>
<stop offset="0.15" stop-color="#FEFCFB"/>
<stop offset="0.28" stop-color="#FBF4F0"/>
<stop offset="0.41" stop-color="#F6E7DD"/>
<stop offset="0.53" stop-color="#EFD5C3"/>
<stop offset="0.65" stop-color="#E7BDA1"/>
<stop offset="0.77" stop-color="#DCA078"/>
<stop offset="0.89" stop-color="#D07F48"/>
<stop offset="1" stop-color="#C35B15"/>
</linearGradient>
<linearGradient id="paint8_linear_3860_36533" x1="39.7974" y1="24.5893" x2="39.5667" y2="32.745" gradientUnits="userSpaceOnUse">
<stop stop-color="#F2AC71"/>
<stop offset="0.36" stop-color="#EDA56A"/>
<stop offset="0.85" stop-color="#E09459"/>
<stop offset="1" stop-color="#DB8E53"/>
</linearGradient>
<linearGradient id="paint9_linear_3860_36533" x1="44.9586" y1="27.8385" x2="48.0819" y2="27.5345" gradientUnits="userSpaceOnUse">
<stop stop-color="#F2AC71"/>
<stop offset="0.36" stop-color="#EDA56A"/>
<stop offset="0.85" stop-color="#E09459"/>
<stop offset="1" stop-color="#DB8E53"/>
</linearGradient>
<linearGradient id="paint10_linear_3860_36533" x1="33.4144" y1="28.2749" x2="30.2801" y2="28.1221" gradientUnits="userSpaceOnUse">
<stop stop-color="#F2AC71"/>
<stop offset="0.36" stop-color="#EDA56A"/>
<stop offset="0.85" stop-color="#E09459"/>
<stop offset="1" stop-color="#DB8E53"/>
</linearGradient>
<linearGradient id="paint11_linear_3860_36533" x1="37.7633" y1="14.3763" x2="46.8654" y2="13.4902" gradientUnits="userSpaceOnUse">
<stop stop-color="#F2AC71"/>
<stop offset="0.36" stop-color="#EDA56A"/>
<stop offset="0.85" stop-color="#E09459"/>
<stop offset="1" stop-color="#DB8E53"/>
</linearGradient>
<linearGradient id="paint12_linear_3860_36533" x1="41.399" y1="12.993" x2="52.6325" y2="12.7028" gradientUnits="userSpaceOnUse">
<stop stop-color="#F2AC71"/>
<stop offset="0.36" stop-color="#EDA56A"/>
<stop offset="0.85" stop-color="#E09459"/>
<stop offset="1" stop-color="#DB8E53"/>
</linearGradient>
<linearGradient id="paint13_linear_3860_36533" x1="34.3888" y1="21.5245" x2="36.7192" y2="21.4684" gradientUnits="userSpaceOnUse">
<stop stop-color="#F2AC71"/>
<stop offset="0.36" stop-color="#EDA56A"/>
<stop offset="0.85" stop-color="#E09459"/>
<stop offset="1" stop-color="#DB8E53"/>
</linearGradient>
<linearGradient id="paint14_linear_3860_36533" x1="45.5439" y1="22.6815" x2="47.8445" y2="22.6261" gradientUnits="userSpaceOnUse">
<stop stop-color="#F2AC71"/>
<stop offset="0.36" stop-color="#EDA56A"/>
<stop offset="0.85" stop-color="#E09459"/>
<stop offset="1" stop-color="#DB8E53"/>
</linearGradient>
<linearGradient id="paint15_linear_3860_36533" x1="54.6633" y1="24.7512" x2="28.2454" y2="25.0371" gradientUnits="userSpaceOnUse">
<stop stop-color="#F2AC71"/>
<stop offset="0.36" stop-color="#EDA56A"/>
<stop offset="0.85" stop-color="#E09459"/>
<stop offset="1" stop-color="#DB8E53"/>
</linearGradient>
<linearGradient id="paint16_linear_3860_36533" x1="58.1316" y1="42.5793" x2="61.8972" y2="42.5793" gradientUnits="userSpaceOnUse">
<stop stop-color="#5D5541"/>
<stop offset="0.27" stop-color="#605842"/>
<stop offset="1" stop-color="#675F46"/>
</linearGradient>
<linearGradient id="paint17_linear_3860_36533" x1="28.8321" y1="44.2204" x2="32.4483" y2="44.2204" gradientUnits="userSpaceOnUse">
<stop stop-color="#675F46"/>
<stop offset="0.73" stop-color="#605842"/>
<stop offset="1" stop-color="#5D5541"/>
</linearGradient>
</defs>
</svg>
