<svg width="512" height="54" viewBox="0 0 512 54" fill="none" xmlns="http://www.w3.org/2000/svg">
<mask id="path-1-inside-1_1912_37937" fill="white">
<path d="M512 54H24.8496L0 35.8047V17.6084L24.8496 0H512V54ZM9.7002 22.6104C7.63961 22.6104 5.96875 24.3558 5.96875 26.5088C5.96882 28.6617 7.63965 30.4072 9.7002 30.4072C11.7605 30.407 13.4306 28.6616 13.4307 26.5088C13.4307 24.356 11.7606 22.6106 9.7002 22.6104Z"/>
</mask>
<path d="M512 54H24.8496L0 35.8047V17.6084L24.8496 0H512V54ZM9.7002 22.6104C7.63961 22.6104 5.96875 24.3558 5.96875 26.5088C5.96882 28.6617 7.63965 30.4072 9.7002 30.4072C11.7605 30.407 13.4306 28.6616 13.4307 26.5088C13.4307 24.356 11.7606 22.6106 9.7002 22.6104Z" fill="#ECC8C1"/>
<path d="M512 54V55H513V54H512ZM24.8496 54L24.2588 54.8068L24.5226 55H24.8496V54ZM0 35.8047H-1V36.3119L-0.590778 36.6115L0 35.8047ZM0 17.6084L-0.578161 16.7925L-1 17.0914V17.6084H0ZM24.8496 0V-1H24.5312L24.2714 -0.815922L24.8496 0ZM512 0H513V-1H512V0ZM9.7002 22.6104L9.70031 21.6104H9.7002V22.6104ZM5.96875 26.5088H4.96875V26.5088L5.96875 26.5088ZM9.7002 30.4072V31.4072H9.70031L9.7002 30.4072ZM13.4307 26.5088L14.4307 26.5088V26.5088H13.4307ZM512 54V53H24.8496V54V55H512V54ZM24.8496 54L25.4404 53.1932L0.590778 34.9979L0 35.8047L-0.590778 36.6115L24.2588 54.8068L24.8496 54ZM0 35.8047H1V17.6084H0H-1V35.8047H0ZM0 17.6084L0.578161 18.4243L25.4278 0.815922L24.8496 0L24.2714 -0.815922L-0.578161 16.7925L0 17.6084ZM24.8496 0V1H512V0V-1H24.8496V0ZM512 0H511V54H512H513V0H512ZM9.7002 22.6104V21.6104C7.04655 21.6104 4.96875 23.8452 4.96875 26.5088H5.96875H6.96875C6.96875 24.8664 8.23268 23.6104 9.7002 23.6104V22.6104ZM5.96875 26.5088L4.96875 26.5088C4.96883 29.1723 7.04656 31.4072 9.7002 31.4072V30.4072V29.4072C8.23275 29.4072 6.9688 28.1511 6.96875 26.5088L5.96875 26.5088ZM9.7002 30.4072L9.70031 31.4072C12.3539 31.4069 14.4306 29.1719 14.4307 26.5088L13.4307 26.5088L12.4307 26.5088C12.4306 28.1512 11.1672 29.4071 9.70008 29.4072L9.7002 30.4072ZM13.4307 26.5088H14.4307C14.4307 23.8456 12.3539 21.6107 9.70031 21.6104L9.7002 22.6104L9.70008 23.6104C11.1673 23.6105 12.4307 24.8663 12.4307 26.5088H13.4307Z" fill="#DA9186" mask="url(#path-1-inside-1_1912_37937)"/>
<path d="M52.68 8.32V20.68H55.84V7.56H60.6V44.76H55.84V25.04H52.68V42.96H47.92V8.32H52.68ZM37.04 35.72C31.4 35.72 28.76 31.92 28.76 25.2V20.88C28.76 14.16 31.4 10.36 37.04 10.36C42.68 10.36 45.32 14.16 45.32 20.88V25.2C45.32 31.92 42.68 35.72 37.04 35.72ZM37.04 14.76C34.28 14.76 33.4 17.08 33.4 21.44V24.64C33.4 29 34.28 31.32 37.04 31.32C39.8 31.32 40.68 29 40.68 24.64V21.44C40.68 17.08 39.8 14.76 37.04 14.76ZM93.8941 7.56V44.76H88.8141V7.56H93.8941ZM70.5741 10.52V30.6H73.2141C77.0141 30.6 81.7341 30.32 85.4941 29.8L86.0541 34.16C82.2941 34.76 76.8941 35 72.0141 35H65.4541V10.52H70.5741ZM98.1081 11.08H113.348V20.4H117.108V8.32H121.908V42.96H117.108V24.76H113.348V34.88H98.1081V11.08ZM129.428 7.56V44.76H124.628V7.56H129.428ZM108.548 30.64V15.32H102.908V30.64H108.548ZM142.882 36C136.082 36 133.282 31.48 133.282 25.24V20.8C133.282 14.56 136.082 10.04 142.882 10.04C149.682 10.04 152.482 14.56 152.482 20.8V25.24C152.482 31.48 149.682 36 142.882 36ZM142.882 14.48C139.482 14.48 138.122 16.88 138.122 21.4V24.64C138.122 29.16 139.482 31.56 142.882 31.56C146.282 31.56 147.642 29.16 147.642 24.64V21.4C147.642 16.88 146.282 14.48 142.882 14.48ZM162.722 7.56V44.76H157.642V7.56H162.722ZM191.696 34V23.28H185.336V19.04H191.696V16.52H185.336V12.28H191.696V7.56H196.696V34H191.696ZM177.096 23.08H177.056C176.896 23.76 175.816 24.8 174.616 25.92C172.816 27.6 171.136 29.04 168.656 31.04L165.536 27.36C167.616 25.76 169.816 23.84 171.656 22.08C173.576 20.24 174.336 18.56 174.336 15.84V9.16H179.456V15.64C179.456 18.56 179.976 19.88 182.056 21.68C183.976 23.32 185.976 24.84 187.896 26.2L185.016 29.68C183.456 28.56 181.696 27.2 179.816 25.68C178.416 24.56 177.336 23.76 177.096 23.08ZM178.096 31.92V40.04H197.296V44.36H173.016V31.92H178.096ZM230.19 7.56V20.88H235.35V25.28H230.19V44.76H225.19V7.56H230.19ZM200.35 36.72V32.36H206.63V21.72H211.63V32.28C216.87 32.2 220.43 32 223.35 31.68L223.71 36C219.31 36.56 212.51 36.72 200.35 36.72ZM202.11 11H220.95V16.8C220.95 20.12 220.75 24.48 220.07 28.04L215.11 27.44C215.79 23.84 215.99 20.28 215.99 17.52V15.36H202.11V11ZM275.564 7.56V26.04H270.524V7.56H275.564ZM252.044 27.72H275.564V38.32H257.124V41.12H276.684V45.12H252.244V34.52H270.684V31.72H252.044V27.72ZM255.364 25.44C249.404 25.44 245.844 21.48 245.844 17.44V16.16C245.844 12.12 249.404 8.16 255.364 8.16C261.324 8.16 264.884 12.12 264.884 16.16V17.44C264.884 21.48 261.324 25.44 255.364 25.44ZM255.364 12.4C252.364 12.4 250.604 14.36 250.604 16.24V17.36C250.604 19.24 252.364 21.2 255.364 21.2C258.364 21.2 260.124 19.24 260.124 17.36V16.24C260.124 14.36 258.364 12.4 255.364 12.4ZM308.378 23.88H298.618V27.24H313.138V31.48H279.058V27.24H293.578V23.88H283.818V8.36H288.818V12.36H303.378V8.36H308.378V23.88ZM288.898 33.64V40.08H309.058V44.36H283.858V33.64H288.898ZM288.818 16.52V19.72H303.378V16.52H288.818ZM325.793 31.88V40.04H344.993V44.36H320.713V31.88H325.793ZM344.393 7.56V34.04H339.353V7.56H344.393ZM324.233 28.36C318.273 28.36 314.632 24.28 314.632 19.76V17.52C314.632 13 318.273 8.92 324.233 8.92C330.193 8.92 333.833 13 333.833 17.52V19.76C333.833 24.28 330.193 28.36 324.233 28.36ZM324.233 13.28C321.233 13.28 319.393 15.48 319.393 17.88V19.4C319.393 21.8 321.233 24 324.233 24C327.233 24 329.073 21.8 329.073 19.4V17.88C329.073 15.48 327.233 13.28 324.233 13.28ZM379.327 7.56V44.76H374.327V7.56H379.327ZM360.127 28.24C354.127 28.24 350.047 24.32 350.047 19.84V18.24C350.047 13.76 354.127 9.84 360.127 9.84C366.127 9.84 370.207 13.76 370.207 18.24V19.84C370.207 24.32 366.127 28.24 360.127 28.24ZM360.127 14.16C356.887 14.16 354.847 16.32 354.847 18.52V19.56C354.847 21.76 356.887 23.92 360.127 23.92C363.367 23.92 365.407 21.76 365.407 19.56V18.52C365.407 16.32 363.367 14.16 360.127 14.16ZM348.647 37.2V32.84C360.887 32.84 367.647 32.64 372.407 32.16L372.767 36.48C368.167 37.04 360.927 37.2 348.647 37.2ZM409.341 45.88C402.861 45.88 397.341 43.68 397.341 39.08V37.88C397.341 33.28 402.861 31.08 409.341 31.08C415.821 31.08 421.341 33.28 421.341 37.88V39.08C421.341 43.68 415.821 45.88 409.341 45.88ZM396.701 12.92V8.8H421.981V12.92H411.861V13.04C411.861 14.6 412.541 15.48 414.541 16.28C417.541 17.48 420.461 18.48 423.581 19.48L422.021 23.48C418.701 22.36 415.981 21.36 413.341 20.36C411.061 19.48 409.741 18.76 409.421 18.12H409.381C409.061 18.76 407.661 19.56 405.381 20.44C402.741 21.44 400.021 22.44 396.701 23.56L395.101 19.48C398.221 18.48 401.141 17.48 404.141 16.28C406.141 15.48 406.821 14.6 406.821 13.04V12.92H396.701ZM392.301 25.24H406.821V21.68H411.861V25.24H426.381V29.36H392.301V25.24ZM409.341 35.16C405.781 35.16 402.341 36.36 402.341 38.2V38.76C402.341 40.6 405.781 41.8 409.341 41.8C412.901 41.8 416.341 40.6 416.341 38.76V38.2C416.341 36.36 412.901 35.16 409.341 35.16ZM426.715 35.84H433.995V23.48H438.915V35.84H442.475V23.48H447.395V35.84H460.795V40.08H426.715V35.84ZM455.195 31.92L450.275 31.28C451.195 26.28 451.315 22.12 451.315 17.4V15.04H430.795V10.68H456.275V16.08C456.275 22.04 456.075 27 455.195 31.92ZM490.969 7.56V18.48H495.889V22.88H490.969V35.16H485.969V7.56H490.969ZM471.729 33.16V40.16H491.969V44.48H466.649V33.16H471.729ZM461.169 30.24V25.92H467.569V18.68H472.609V25.84C477.729 25.76 481.249 25.56 484.129 25.24L484.489 29.52C480.089 30.08 473.329 30.24 461.169 30.24ZM463.329 9.4H481.809V14.8C481.809 16.88 481.529 20.6 480.929 23.08L476.049 22.48C476.649 19.72 476.849 17.04 476.849 15.36V13.76H463.329V9.4Z" fill="#1E1E1E"/>
</svg>
