<svg width="701" height="265" viewBox="0 0 701 265" fill="none" xmlns="http://www.w3.org/2000/svg">
<path d="M0 30.3215C0 13.602 11.9297 0 26.5915 0C41.2533 0 53.1829 13.602 53.1829 30.3215C53.1829 30.7669 52.8775 31.1195 52.4872 31.1195C52.0969 31.1195 51.7914 30.7669 51.7914 30.3215C51.7914 14.4927 40.4896 1.5959 26.5915 1.5959C12.6933 1.5959 1.39153 14.4742 1.39153 30.3215C1.39153 30.7669 1.08607 31.1195 0.695763 31.1195C0.30546 31.1195 0 30.7669 0 30.3215Z" fill="#47BCC6"/>
<path d="M5.70215 30.3159C5.70215 17.1778 15.0694 6.50781 26.5918 6.50781C38.1142 6.50781 47.4815 17.1964 47.4815 30.3159C47.4815 30.7613 47.176 31.1139 46.7857 31.1139C46.3954 31.1139 46.09 30.7613 46.09 30.3159C46.09 18.0686 37.3506 8.08514 26.5918 8.08514C15.833 8.08514 7.09367 18.05 7.09367 30.3159C7.09367 30.7613 6.78821 31.1139 6.39791 31.1139C6.00761 31.1139 5.70215 30.7613 5.70215 30.3159Z" fill="#47BCC6"/>
<path d="M11.624 30.3221C11.624 20.9138 18.344 13.25 26.5913 13.25C34.8385 13.25 41.5585 20.9138 41.5585 30.3221C41.5585 30.7674 41.2531 31.12 40.8628 31.12C40.4725 31.12 40.167 30.7674 40.167 30.3221C40.167 21.786 34.0749 14.8458 26.5913 14.8458C19.1076 14.8458 13.0155 21.786 13.0155 30.3221C13.0155 30.7674 12.7101 31.12 12.3198 31.12C11.9295 31.12 11.624 30.7674 11.624 30.3221Z" fill="#47BCC6"/>
<path d="M34.2451 30.3153C34.2451 25.4906 30.8172 21.5938 26.5918 21.5938C22.3663 21.5938 18.9385 25.5092 18.9385 30.3153" fill="#EFF8F9"/>
<path d="M18.2422 30.3242C18.2422 25.0727 21.9925 20.8047 26.5913 20.8047C31.19 20.8047 34.9403 25.0727 34.9403 30.3242C34.9403 30.7695 34.6349 31.1222 34.2446 31.1222C33.8543 31.1222 33.5488 30.7695 33.5488 30.3242C33.5488 25.9448 30.4264 22.4005 26.5913 22.4005C22.7561 22.4005 19.6337 25.9634 19.6337 30.3242C19.6337 30.7695 19.3283 31.1222 18.938 31.1222C18.5476 31.1222 18.2422 30.7695 18.2422 30.3242Z" fill="#47BCC6"/>
<path d="M0.678711 31.0469V250.85C0.678711 253.893 2.95263 256.343 5.70172 256.343C8.45081 256.343 10.6908 253.875 10.6908 250.85C10.6908 247.825 8.43385 245.357 5.68476 245.357" stroke="#47BCC6" stroke-width="1.34059" stroke-miterlimit="10"/>
<path d="M700 245.977V47.3836C700 44.3774 697.726 41.9465 694.977 41.9465C692.228 41.9465 689.988 44.3774 689.988 47.3836C689.988 50.3897 692.244 52.8207 694.994 52.8207M52.9121 30.3672H685.049C687.798 30.3672 690.021 32.8538 690.021 35.8599C690.021 38.8661 687.798 41.3156 685.049 41.3156C682.3 41.3156 680.077 38.8475 680.077 35.8414" stroke="#47BCC6" stroke-width="1.34059" stroke-miterlimit="10"/>
<path d="M699.999 245.977V47.3836C699.999 44.3774 697.725 41.9465 694.976 41.9465C692.227 41.9465 689.987 44.3774 689.987 47.3836C689.987 50.3897 692.244 52.8207 694.993 52.8207M186.412 30.3672H685.066C687.815 30.3672 690.038 32.8538 690.038 35.8599C690.038 38.8661 687.815 41.3156 685.066 41.3156C682.317 41.3156 680.094 38.8475 680.094 35.8414" stroke="#47BCC6" stroke-width="1.34059" stroke-miterlimit="10"/>
<path d="M691.243 264.471C691.243 253.652 683.217 244.875 673.323 244.875C663.43 244.875 655.403 253.652 655.403 264.471" fill="#EFF8F9"/>
<path d="M654.928 264.467C654.928 253.37 663.175 244.352 673.323 244.352C683.471 244.352 691.718 253.37 691.718 264.467C691.718 264.764 691.497 265.005 691.226 265.005C690.954 265.005 690.751 264.764 690.751 264.467C690.751 253.964 682.928 245.409 673.323 245.409C663.718 245.409 655.895 253.964 655.895 264.467C655.895 264.764 655.674 265.005 655.42 265.005C655.165 265.005 654.945 264.764 654.945 264.467" fill="#47BCC6"/>
<path d="M687.306 264.467C687.306 256.024 681.044 249.195 673.34 249.195C665.636 249.195 659.374 256.043 659.374 264.467" fill="#EFF8F9"/>
<path d="M658.882 264.466C658.882 255.745 665.364 248.656 673.34 248.656C681.316 248.656 687.798 255.745 687.798 264.466C687.798 264.763 687.578 265.005 687.323 265.005C687.068 265.005 686.831 264.763 686.831 264.466C686.831 256.339 680.773 249.714 673.34 249.714C665.907 249.714 659.849 256.339 659.849 264.466C659.849 264.763 659.628 265.005 659.374 265.005C659.119 265.005 658.899 264.763 658.899 264.466" fill="#47BCC6"/>
<path d="M683.198 264.456C683.198 258.5 678.769 253.656 673.322 253.656C667.874 253.656 663.445 258.5 663.445 264.456" fill="#EFF8F9"/>
<path d="M662.972 264.455C662.972 258.202 667.621 253.117 673.34 253.117C679.059 253.117 683.709 258.202 683.709 264.455C683.709 264.752 683.488 264.993 683.217 264.993C682.945 264.993 682.741 264.752 682.741 264.455C682.741 258.795 678.533 254.175 673.34 254.175C668.148 254.175 663.939 258.777 663.939 264.455C663.939 264.752 663.718 264.993 663.464 264.993C663.209 264.993 662.989 264.752 662.989 264.455" fill="#47BCC6"/>
<path d="M678.616 264.462C678.616 261.27 676.241 258.672 673.322 258.672C670.403 258.672 668.027 261.27 668.027 264.462" fill="#EFF8F9"/>
<path d="M667.554 264.458C667.554 260.969 670.15 258.148 673.323 258.148C676.497 258.148 679.11 260.988 679.11 264.458C679.11 264.755 678.889 264.996 678.618 264.996C678.346 264.996 678.143 264.755 678.143 264.458C678.143 261.563 675.988 259.188 673.323 259.188C670.659 259.188 668.504 261.544 668.504 264.458C668.504 264.755 668.283 264.996 668.029 264.996C667.774 264.996 667.554 264.755 667.554 264.458Z" fill="#47BCC6"/>
<path d="M27.6837 67.4991L20.88 74.939C18.0635 78.0189 18.0635 83.0124 20.88 86.0923L27.6836 93.5321C30.5001 96.612 35.0666 96.612 37.8831 93.5321L44.6867 86.0922C47.5033 83.0123 47.5033 78.0188 44.6867 74.9389L37.8831 67.4991C35.0666 64.4192 30.5002 64.4192 27.6837 67.4991Z" fill="#62A8D4"/>
<mask id="mask0_2_52014" style="mask-type:luminance" maskUnits="userSpaceOnUse" x="18" y="65" width="29" height="31">
<path d="M27.6763 67.3196L20.8715 74.7608C18.0545 77.8412 18.0545 82.8329 20.8715 85.9133L27.6763 93.3546C30.4933 96.435 35.0582 96.435 37.8751 93.3546L44.68 85.9133C47.4969 82.8329 47.4969 77.8412 44.68 74.7608L37.8751 67.3196C36.4666 65.7794 34.6169 65 32.7672 65C30.9175 65 29.0679 65.7794 27.6594 67.3196" fill="white"/>
</mask>
<g mask="url(#mask0_2_52014)">
<path d="M33.3588 73.2318V85.4086L31.7632 85.3918V74.9617L29.7141 76.1878L28.9919 74.8778L31.78 73.2318H33.3588Z" fill="white"/>
</g>
<path d="M239.213 67.4756L232.409 74.9155C229.593 77.9954 229.593 82.9889 232.409 86.0688L239.213 93.5087C242.029 96.5886 246.596 96.5886 249.412 93.5087L256.216 86.0688C259.033 82.9889 259.033 77.9954 256.216 74.9155L249.412 67.4756C246.596 64.3957 242.029 64.3957 239.213 67.4756Z" fill="#62A8D4"/>
<mask id="mask1_2_52014" style="mask-type:luminance" maskUnits="userSpaceOnUse" x="230" y="65" width="29" height="31">
<path d="M239.204 67.3196L232.399 74.7608C229.582 77.8412 229.582 82.8329 232.399 85.9133L239.204 93.3546C242.021 96.435 246.586 96.435 249.403 93.3546L256.207 85.9133C259.024 82.8329 259.024 77.8412 256.207 74.7608L249.403 67.3196C247.994 65.7794 246.144 65 244.295 65C242.445 65 240.595 65.7794 239.187 67.3196" fill="white"/>
</mask>
<g mask="url(#mask1_2_52014)">
<path d="M240.823 84.0146C243.258 81.6632 246.701 79.0934 246.701 76.994C246.701 75.5496 245.794 74.525 244.484 74.525C243.51 74.525 242.519 75.2473 242.065 76.2718L240.655 75.6671C241.31 74.1387 242.905 73.0806 244.484 73.0806C246.735 73.0806 248.297 74.693 248.297 76.994C248.297 79.5637 245.357 81.9823 243.04 84.0146H248.498V85.4086H240.991L240.823 84.0146Z" fill="white"/>
</g>
<path d="M362.973 67.4757L356.169 74.9155C353.353 77.9954 353.353 82.9889 356.169 86.0688L362.973 93.5087C365.789 96.5886 370.356 96.5886 373.172 93.5087L379.976 86.0688C382.792 82.9889 382.792 77.9954 379.976 74.9155L373.172 67.4757C370.356 64.3958 365.789 64.3958 362.973 67.4757Z" fill="#62A8D4"/>
<mask id="mask2_2_52014" style="mask-type:luminance" maskUnits="userSpaceOnUse" x="354" y="65" width="29" height="31">
<path d="M362.918 67.3196L356.113 74.7608C353.296 77.8412 353.296 82.8329 356.113 85.9133L362.918 93.3546C365.735 96.435 370.299 96.435 373.116 93.3546L379.921 85.9133C382.738 82.8329 382.738 77.8412 379.921 74.7608L373.116 67.3196C371.708 65.7794 369.858 65 368.008 65C366.159 65 364.309 65.7794 362.901 67.3196" fill="white"/>
</mask>
<g mask="url(#mask2_2_52014)">
<path d="M369.818 79.1102C370.91 79.7485 371.565 80.941 371.565 81.9655C371.565 84.0314 369.886 85.5094 367.484 85.5094C365.116 85.5094 363.436 84.0146 363.436 81.8983H365.032C365.032 83.1916 366.039 84.0985 367.484 84.0985C368.962 84.0985 370.003 83.1916 370.003 81.8983C370.003 80.6554 368.979 79.7821 367.517 79.7821H366.644V78.4216H367.534C368.878 78.4216 369.818 77.6154 369.818 76.4901C369.818 75.3312 368.911 74.525 367.601 74.525C366.291 74.525 365.384 75.348 365.384 76.5069H363.789C363.789 74.5082 365.367 73.1142 367.601 73.1142C369.818 73.1142 371.38 74.4915 371.38 76.4397C371.38 77.3635 370.809 78.472 369.818 79.1102Z" fill="white"/>
</g>
<path d="M478.918 67.3196L472.113 74.7608C469.296 77.8412 469.296 82.8329 472.113 85.9133L478.918 93.3546C481.735 96.435 486.299 96.435 489.116 93.3546L495.921 85.9133C498.738 82.8329 498.738 77.8412 495.921 74.7608L489.116 67.3196C487.708 65.7794 485.858 65 484.008 65C482.159 65 480.309 65.7794 478.901 67.3196" fill="#62A8D4"/>
<path d="M486.203 73.84V81.398H487.832V82.792H486.203V86.0336H484.607V82.792H479.333L479.165 81.398L484.674 73.84H486.203ZM481.08 81.398H484.607V76.5273L481.08 81.398Z" fill="white"/>
<path d="M691.736 264.238H17.395C14.6459 264.238 12.4229 261.751 12.4229 258.745C12.4229 255.739 14.6459 253.289 17.395 253.289C20.144 253.289 22.3671 255.757 22.3671 258.763" stroke="#47BCC6" stroke-width="1.34059" stroke-miterlimit="10"/>
<path d="M202.415 66.4531H56.1699V226.374H202.415V66.4531Z" fill="#E8380D"/>
<path d="M202.415 66.4531H56.1699V226.374H202.415V66.4531Z" stroke="#231815" stroke-width="0.69575" stroke-miterlimit="10"/>
<path d="M331.384 66.7266H269.818V226.648H331.384V66.7266Z" fill="#F29B80"/>
<path d="M331.384 66.7266H269.818V226.648H331.384V66.7266Z" stroke="#231815" stroke-width="0.69575" stroke-miterlimit="10"/>
<mask id="mask3_2_52014" style="mask-type:luminance" maskUnits="userSpaceOnUse" x="262" y="54" width="75" height="181">
<path d="M336.729 54.1875H262.656V234.038H336.729V54.1875Z" fill="white"/>
</mask>
<g mask="url(#mask3_2_52014)">
<path d="M270.022 141.771H281.341V145.649H270.022M270.022 126.628C272.262 129.876 274.519 132.492 276.946 134.311H270.022M270.022 94.7851C270.616 94.748 271.21 94.6923 271.821 94.6923C279.627 94.6923 288.061 97.8841 294.645 103.525H276.878V100.668H270.005M270.022 153.09H281.799V156.653H270.022V163.315H292.524V142.086C297.241 143.441 300.449 143.57 300.449 143.57V136.371C300.449 136.371 293.525 136.371 285.77 129.672C285.515 129.449 285.295 129.226 285.057 129.004H299.583V122.787H279.983C279.305 121.618 278.795 120.505 278.422 119.484H295.477V113.268H277.285V109.037H300.33C305.489 115.364 309.392 123.566 309.392 132.566C309.392 144.183 303.384 156.876 293.593 164.205C293.593 164.205 284.803 171.461 269.768 171.962L270.005 226.593H275.945V209.669H282.478V221.694H289.385V208.537C289.113 195.121 279.084 194.88 279.084 194.88V189.498H303.266V177.77H310.003V169.012C310.003 169.012 330.366 158.527 330.417 129.3C330.468 97.3089 298.684 87.381 298.684 87.381V77.5089H278.507V66.8203H269.988" fill="#E8380D"/>
<path d="M270.022 141.771H281.341V145.649H270.022M270.022 126.628C272.262 129.876 274.519 132.492 276.946 134.311H270.022M270.022 94.7851C270.616 94.748 271.21 94.6923 271.821 94.6923C279.627 94.6923 288.061 97.8841 294.645 103.525H276.878V100.668H270.005M270.022 153.09H281.799V156.653H270.022V163.315H292.524V142.086C297.241 143.441 300.449 143.57 300.449 143.57V136.371C300.449 136.371 293.525 136.371 285.77 129.672C285.515 129.449 285.295 129.226 285.057 129.004H299.583V122.787H279.983C279.305 121.618 278.795 120.505 278.422 119.484H295.477V113.268H277.285V109.037H300.33C305.489 115.364 309.392 123.566 309.392 132.566C309.392 144.183 303.384 156.876 293.593 164.205C293.593 164.205 284.803 171.461 269.768 171.962L270.005 226.593H275.945V209.669H282.478V221.694H289.385V208.537C289.113 195.121 279.084 194.88 279.084 194.88V189.498H303.266V177.77H310.003V169.012C310.003 169.012 330.366 158.527 330.417 129.3C330.468 97.3089 298.684 87.381 298.684 87.381V77.5089H278.507V66.8203H269.988" stroke="#231815" stroke-width="0.69575" stroke-miterlimit="10"/>
</g>
<mask id="mask4_2_52014" style="mask-type:luminance" maskUnits="userSpaceOnUse" x="389" y="54" width="73" height="181">
<path d="M461.845 54.1875H389.69V234.038H461.845V54.1875Z" fill="white"/>
</mask>
<g mask="url(#mask4_2_52014)">
<g style="mix-blend-mode:multiply">
<mask id="mask5_2_52014" style="mask-type:luminance" maskUnits="userSpaceOnUse" x="396" y="66" width="63" height="161">
<path d="M458.094 66.875H396.867V226.852H458.094V66.875Z" fill="white"/>
</mask>
<g mask="url(#mask5_2_52014)">
<mask id="mask6_2_52014" style="mask-type:luminance" maskUnits="userSpaceOnUse" x="396" y="66" width="63" height="161">
<path d="M458.094 66.875H396.867V226.852H458.094V66.875Z" fill="white"/>
</mask>
<g mask="url(#mask6_2_52014)">
<path d="M425.954 88.4935V78.6213L405.505 77.8791V67.1905L396.851 66.875V94.747C397.478 94.747 398.259 94.747 398.7 94.747C406.608 95.0254 415.144 98.5326 421.83 104.434L403.825 103.784V100.926L396.851 100.667V127.518C399.023 130.431 401.653 132.862 403.876 134.588L396.851 134.328V141.77L408.339 142.196V146.075L396.851 145.648V153.089L408.814 153.534V157.079L396.851 156.652V163.314L419.675 164.149V142.92C424.443 144.442 427.718 144.701 427.718 144.701V137.501C427.718 137.501 420.71 137.242 412.853 130.264C412.598 130.042 412.378 129.801 412.123 129.578L426.836 130.116V123.918L406.981 123.194C406.303 122.007 405.777 120.875 405.386 119.836L422.678 120.467V114.25L404.249 113.582V109.351L427.6 110.205C432.826 116.718 436.78 125.069 436.78 134.068C436.78 145.685 430.688 158.155 420.778 165.114C420.778 165.114 411.546 171.72 396.868 171.943V226.629L402.909 226.852V209.928L409.527 210.169V222.194L416.518 222.454V209.297C416.247 195.881 406.082 195.25 406.082 195.25V189.868L430.569 190.759V179.031L437.391 179.272V170.514C437.391 170.514 458.026 160.79 458.077 131.545C458.128 99.5532 425.937 88.4564 425.937 88.4564" fill="#DCDDDD"/>
</g>
</g>
</g>
<path d="M421.405 86.0274V76.1553L401.992 77.1574V66.4688L393.778 66.8956V94.7676C394.372 94.7119 395.119 94.6377 395.526 94.6192C403.027 94.2295 411.155 96.9944 417.502 102.32L400.396 103.192V100.335L393.778 100.669V127.52C395.832 130.248 398.343 132.438 400.447 133.996L393.778 134.33V141.772L404.69 141.215V145.093L393.778 145.65V153.091L405.131 152.516V156.06L393.778 156.635V163.297L415.449 162.184V140.955C419.979 142.068 423.085 142.05 423.085 142.05V134.85C423.085 134.85 416.433 135.184 408.966 128.875C408.729 128.671 408.508 128.448 408.287 128.244L422.27 127.52V121.322L403.4 122.287C402.755 121.155 402.263 120.079 401.89 119.058L418.316 118.223V112.025L400.804 112.916V108.685L422.983 107.553C427.938 113.621 431.706 121.638 431.706 130.638C431.706 142.254 425.936 155.225 416.501 163.056C416.501 163.056 407.727 170.442 393.778 171.926V226.612L399.514 226.315V209.392L405.81 209.076V221.101L412.445 220.767V207.61C412.19 194.213 402.535 194.454 402.535 194.454V189.072L425.8 187.885V176.157L432.283 175.823V167.064C432.283 167.064 451.882 155.578 451.933 126.332C451.984 94.3408 421.405 85.9903 421.405 85.9903" fill="#E8380D"/>
<path d="M421.405 86.0274V76.1553L401.992 77.1574V66.4688L393.778 66.8956V94.7676C394.372 94.7119 395.119 94.6377 395.526 94.6192C403.027 94.2295 411.155 96.9944 417.502 102.32L400.396 103.192V100.335L393.778 100.669V127.52C395.832 130.248 398.343 132.438 400.447 133.996L393.778 134.33V141.772L404.69 141.215V145.093L393.778 145.65V153.091L405.131 152.516V156.06L393.778 156.635V163.297L415.449 162.184V140.955C419.979 142.068 423.085 142.05 423.085 142.05V134.85C423.085 134.85 416.433 135.184 408.966 128.875C408.729 128.671 408.508 128.448 408.287 128.244L422.27 127.52V121.322L403.4 122.287C402.755 121.155 402.263 120.079 401.89 119.058L418.316 118.223V112.025L400.804 112.916V108.685L422.983 107.553C427.938 113.621 431.706 121.638 431.706 130.638C431.706 142.254 425.936 155.225 416.501 163.056C416.501 163.056 407.727 170.442 393.778 171.926V226.612L399.514 226.315V209.392L405.81 209.076V221.101L412.445 220.767V207.61C412.19 194.213 402.535 194.454 402.535 194.454V189.072L425.8 187.885V176.157L432.283 175.823V167.064C432.283 167.064 451.882 155.578 451.933 126.332C451.984 94.3408 421.405 85.9903 421.405 85.9903V86.0274Z" stroke="#231815" stroke-width="0.69575" stroke-miterlimit="10"/>
</g>
<mask id="mask7_2_52014" style="mask-type:luminance" maskUnits="userSpaceOnUse" x="510" y="46" width="173" height="195">
<path d="M682.859 46.8047H510.65V240.035H682.859V46.8047Z" fill="white"/>
</mask>
<g mask="url(#mask7_2_52014)">
<g style="mix-blend-mode:multiply">
<mask id="mask8_2_52014" style="mask-type:luminance" maskUnits="userSpaceOnUse" x="558" y="50" width="47" height="123">
<path d="M604.867 50.5703H558.166V172.562H604.867V50.5703Z" fill="white"/>
</mask>
<g mask="url(#mask8_2_52014)">
<mask id="mask9_2_52014" style="mask-type:luminance" maskUnits="userSpaceOnUse" x="558" y="50" width="47" height="123">
<path d="M604.867 50.5703H558.166V172.562H604.867V50.5703Z" fill="white"/>
</mask>
<g mask="url(#mask9_2_52014)">
<path d="M580.362 67.0486V59.5146L564.767 58.9579V50.8116L558.166 50.5703V71.8177C558.658 71.8177 559.235 71.8177 559.575 71.8177C565.599 72.0403 572.115 74.7125 577.206 79.2032L563.478 78.7022V76.5125L558.166 76.3269V96.8134C559.812 99.0402 561.831 100.877 563.528 102.195L558.166 102.009V107.688L566.922 108.003V110.972L558.166 110.657V116.335L567.279 116.669V119.378L558.166 119.044V124.129L575.56 124.76V108.578C579.191 109.729 581.686 109.933 581.686 109.933V104.44C581.686 104.44 576.341 104.236 570.35 98.9103C570.147 98.7247 569.977 98.5577 569.79 98.3907L581.007 98.7989V94.067L565.87 93.5104C565.344 92.6011 564.954 91.7475 564.665 90.9495L577.851 91.432V86.7001L563.8 86.1805V82.9516L581.601 83.6011C585.589 88.5742 588.61 94.9392 588.61 101.805C588.61 110.657 583.977 120.158 576.408 125.483C576.408 125.483 569.366 130.512 558.166 130.698V172.394L562.765 172.562V159.665L567.822 159.85V169.017L573.15 169.203V159.164C572.947 148.939 565.208 148.456 565.208 148.456V144.355L583.892 145.042V136.098L589.102 136.283V129.603C589.102 129.603 604.833 122.18 604.867 99.8938C604.9 75.5104 580.362 67.0486 580.362 67.0486Z" fill="#DCDDDD"/>
</g>
</g>
</g>
<g style="mix-blend-mode:multiply">
<mask id="mask10_2_52014" style="mask-type:luminance" maskUnits="userSpaceOnUse" x="512" y="50" width="48" height="123">
<path d="M559.016 50.5703H512.315V172.562H559.016V50.5703Z" fill="white"/>
</mask>
<g mask="url(#mask10_2_52014)">
<mask id="mask11_2_52014" style="mask-type:luminance" maskUnits="userSpaceOnUse" x="512" y="50" width="48" height="123">
<path d="M559.017 50.5703H512.316V172.562H559.017V50.5703Z" fill="white"/>
</mask>
<g mask="url(#mask11_2_52014)">
<path d="M536.821 67.0486V59.5146L552.399 58.9579V50.8116L559 50.5703V71.8177C558.508 71.8177 557.931 71.8177 557.592 71.8177C551.568 72.0403 545.051 74.7125 539.96 79.2032L553.689 78.7022V76.5125L559 76.3269V96.8134C557.354 99.0402 555.335 100.877 553.638 102.195L559 102.009V107.688L550.244 108.003V110.972L559 110.657V116.335L549.888 116.669V119.378L559 119.044V124.129L541.606 124.76V108.578C537.975 109.729 535.48 109.933 535.48 109.933V104.44C535.48 104.44 540.826 104.236 546.816 98.9103C547.02 98.7247 547.19 98.5577 547.376 98.3907L536.159 98.7989V94.067L551.296 93.5104C551.822 92.6011 552.213 91.7475 552.501 90.9495L539.316 91.432V86.7001L553.366 86.1805V82.9516L535.565 83.6011C531.577 88.5742 528.557 94.9392 528.557 101.805C528.557 110.657 533.189 120.158 540.758 125.483C540.758 125.483 547.8 130.512 559 130.698V172.394L554.402 172.562V159.665L549.345 159.85V169.017L544.016 169.203V159.164C544.22 148.939 551.958 148.456 551.958 148.456V144.355L533.274 145.042V136.098L528.065 136.283V129.603C528.065 129.603 512.334 122.18 512.3 99.8938C512.266 75.5104 536.821 67.0486 536.821 67.0486Z" fill="#DCDDDD"/>
</g>
</g>
</g>
<path d="M576.885 65.1539V57.6199L562.07 58.3807V50.2344L555.808 50.5498V71.7972C556.267 71.76 556.827 71.7044 557.149 71.6858C562.868 71.3889 569.062 73.5043 573.898 77.5682L560.865 78.2363V76.0466L555.808 76.3064V96.7743C557.37 98.8527 559.287 100.541 560.899 101.71L555.808 101.97V107.649L564.124 107.222V110.191L555.808 110.618V116.296L564.463 115.851V118.56L555.808 119.005V124.09L572.337 123.236V107.055C575.799 107.908 578.157 107.89 578.157 107.89V102.397C578.157 102.397 573.083 102.657 567.382 97.8507C567.195 97.7022 567.042 97.5352 566.856 97.3682L577.513 96.8115V92.0795L563.122 92.8218C562.63 91.9682 562.257 91.1332 561.968 90.3723L574.492 89.7229V84.9909L561.137 85.6775V82.4486L578.039 81.5765C581.823 86.2156 584.691 92.3208 584.691 99.1867C584.691 108.038 580.279 117.947 573.1 123.904C573.1 123.904 566.414 129.545 555.774 130.659V172.355L560.153 172.133V159.236L564.955 158.995V168.162L570.012 167.902V157.863C569.808 147.657 562.46 147.842 562.46 147.842V143.741L580.211 142.832V133.888L585.149 133.628V126.947C585.149 126.947 600.099 118.189 600.133 95.8837C600.167 71.5003 576.851 65.1168 576.851 65.1168" fill="#E8380D"/>
<path d="M576.885 65.1539V57.6199L562.07 58.3807V50.2344L555.808 50.5498V71.7972C556.267 71.76 556.827 71.7044 557.149 71.6858C562.868 71.3889 569.062 73.5043 573.898 77.5682L560.865 78.2363V76.0466L555.808 76.3064V96.7743C557.37 98.8527 559.287 100.541 560.899 101.71L555.808 101.97V107.649L564.124 107.222V110.191L555.808 110.618V116.296L564.463 115.851V118.56L555.808 119.005V124.09L572.337 123.236V107.055C575.799 107.908 578.157 107.89 578.157 107.89V102.397C578.157 102.397 573.083 102.657 567.382 97.8507C567.195 97.7022 567.042 97.5352 566.856 97.3682L577.513 96.8115V92.0795L563.122 92.8218C562.63 91.9682 562.257 91.1332 561.968 90.3723L574.492 89.7229V84.9909L561.137 85.6775V82.4486L578.039 81.5765C581.823 86.2156 584.691 92.3208 584.691 99.1867C584.691 108.038 580.279 117.947 573.1 123.904C573.1 123.904 566.414 129.545 555.774 130.659V172.355L560.153 172.133V159.236L564.955 158.995V168.162L570.012 167.902V157.863C569.808 147.657 562.46 147.842 562.46 147.842V143.741L580.211 142.832V133.888L585.149 133.628V126.947C585.149 126.947 600.099 118.189 600.133 95.8837C600.167 71.5003 576.851 65.1168 576.851 65.1168L576.885 65.1539Z" stroke="#231815" stroke-width="0.69575" stroke-miterlimit="10"/>
<path d="M535.428 65.1539V57.6199L550.225 58.3807V50.2344L556.487 50.5498V71.7972C556.029 71.76 555.469 71.7044 555.146 71.6858C549.428 71.3889 543.234 73.5043 538.397 77.5682L551.43 78.2363V76.0466L556.487 76.3064V96.7743C554.926 98.8527 553.008 100.541 551.396 101.71L556.487 101.97V107.649L548.172 107.222V110.191L556.487 110.618V116.296L547.832 115.851V118.56L556.487 119.005V124.09L539.958 123.236V107.055C536.497 107.908 534.138 107.89 534.138 107.89V102.397C534.138 102.397 539.212 102.657 544.914 97.8507C545.1 97.7022 545.253 97.5352 545.44 97.3682L534.783 96.8115V92.0795L549.173 92.8218C549.665 91.9682 550.038 91.1332 550.327 90.3723L537.803 89.7229V84.9909L551.158 85.6775V82.4486L534.257 81.5765C530.472 86.2156 527.605 92.3208 527.605 99.1867C527.605 108.038 532.017 117.947 539.195 123.904C539.195 123.904 545.881 129.545 556.521 130.659V172.355L552.143 172.133V159.236L547.34 158.995V168.162L542.283 167.902V157.863C542.487 147.657 549.835 147.842 549.835 147.842V143.741L532.085 142.832V133.888L527.146 133.628V126.947C527.146 126.947 512.196 118.189 512.162 95.8837C512.128 71.5003 535.445 65.1168 535.445 65.1168" fill="#DD170F"/>
<path d="M535.428 65.1539V57.6199L550.225 58.3807V50.2344L556.487 50.5498V71.7972C556.029 71.76 555.469 71.7044 555.146 71.6858C549.428 71.3889 543.234 73.5043 538.397 77.5682L551.43 78.2363V76.0466L556.487 76.3064V96.7743C554.926 98.8527 553.008 100.541 551.396 101.71L556.487 101.97V107.649L548.172 107.222V110.191L556.487 110.618V116.296L547.832 115.851V118.56L556.487 119.005V124.09L539.958 123.236V107.055C536.497 107.908 534.138 107.89 534.138 107.89V102.397C534.138 102.397 539.212 102.657 544.914 97.8507C545.1 97.7022 545.253 97.5352 545.44 97.3682L534.783 96.8115V92.0795L549.173 92.8218C549.665 91.9682 550.038 91.1332 550.327 90.3723L537.803 89.7229V84.9909L551.158 85.6775V82.4486L534.257 81.5765C530.472 86.2156 527.605 92.3208 527.605 99.1867C527.605 108.038 532.017 117.947 539.195 123.904C539.195 123.904 545.881 129.545 556.521 130.659V172.355L552.143 172.133V159.236L547.34 158.995V168.162L542.283 167.902V157.863C542.487 147.657 549.835 147.842 549.835 147.842V143.741L532.085 142.832V133.888L527.146 133.628V126.947C527.146 126.947 512.196 118.189 512.162 95.8837C512.128 71.5003 535.445 65.1168 535.445 65.1168L535.428 65.1539Z" stroke="#231815" stroke-width="0.69575" stroke-miterlimit="10"/>
<g style="mix-blend-mode:multiply">
<mask id="mask12_2_52014" style="mask-type:luminance" maskUnits="userSpaceOnUse" x="636" y="117" width="48" height="123">
<path d="M683.352 117.805H636.651V239.796H683.352V117.805Z" fill="white"/>
</mask>
<g mask="url(#mask12_2_52014)">
<mask id="mask13_2_52014" style="mask-type:luminance" maskUnits="userSpaceOnUse" x="636" y="117" width="48" height="123">
<path d="M683.353 117.805H636.652V239.796H683.353V117.805Z" fill="white"/>
</mask>
<g mask="url(#mask13_2_52014)">
<path d="M658.832 134.291V126.757L643.237 126.2V118.054L636.636 117.812V139.06C637.111 139.06 637.705 139.06 638.044 139.06C644.068 139.283 650.585 141.955 655.676 146.445L641.947 145.944V143.755L636.636 143.569V164.056C638.282 166.282 640.301 168.12 641.998 169.437L636.636 169.251V174.93L645.392 175.245V178.214L636.636 177.899V183.577L645.748 183.911V186.62L636.636 186.286V191.371L654.03 192.002V175.821C657.661 176.971 660.156 177.175 660.156 177.175V171.682C660.156 171.682 654.81 171.478 648.82 166.152C648.616 165.967 648.447 165.8 648.26 165.633L659.477 166.041V161.309L644.34 160.753C643.814 159.843 643.424 158.99 643.135 158.192L656.321 158.674V153.942L642.27 153.423V150.194L660.071 150.843C664.059 155.816 667.079 162.181 667.079 169.047C667.079 177.899 662.447 187.4 654.878 192.726C654.878 192.726 647.836 197.754 636.636 197.94V239.637L641.234 239.804V226.907L646.291 227.092V236.259L651.62 236.445V226.406C651.416 216.181 643.678 215.699 643.678 215.699V211.598L662.362 212.284V203.34L667.571 203.526V196.845C667.571 196.845 683.302 189.422 683.336 167.136C683.37 142.753 658.832 134.291 658.832 134.291Z" fill="#DCDDDD"/>
</g>
</g>
</g>
<g style="mix-blend-mode:multiply">
<mask id="mask14_2_52014" style="mask-type:luminance" maskUnits="userSpaceOnUse" x="590" y="117" width="48" height="123">
<path d="M637.482 117.805H590.781V239.796H637.482V117.805Z" fill="white"/>
</mask>
<g mask="url(#mask14_2_52014)">
<mask id="mask15_2_52014" style="mask-type:luminance" maskUnits="userSpaceOnUse" x="590" y="117" width="48" height="123">
<path d="M637.481 117.805H590.78V239.796H637.481V117.805Z" fill="white"/>
</mask>
<g mask="url(#mask15_2_52014)">
<path d="M615.302 134.291V126.757L630.88 126.2V118.054L637.481 117.812V139.06C636.989 139.06 636.412 139.06 636.072 139.06C630.048 139.283 623.532 141.955 618.441 146.445L632.169 145.944V143.755L637.481 143.569V164.056C635.835 166.282 633.815 168.12 632.118 169.437L637.481 169.251V174.93L628.724 175.245V178.214L637.481 177.899V183.577L628.368 183.911V186.62L637.481 186.286V191.371L620.087 192.002V175.821C616.455 176.971 613.961 177.175 613.961 177.175V171.682C613.961 171.682 619.306 171.478 625.297 166.152C625.5 165.967 625.67 165.8 625.857 165.633L614.64 166.041V161.309L629.777 160.753C630.303 159.843 630.693 158.99 630.981 158.192L617.796 158.674V153.942L631.847 153.423V150.194L614.046 150.843C610.058 155.816 607.037 162.181 607.037 169.047C607.037 177.899 611.67 187.4 619.238 192.726C619.238 192.726 626.281 197.754 637.481 197.94V239.637L632.882 239.804V226.907L627.825 227.092V236.259L622.497 236.445V226.406C622.7 216.181 630.438 215.699 630.438 215.699V211.598L611.755 212.284V203.34L606.545 203.526V196.845C606.545 196.845 590.814 189.422 590.78 167.136C590.746 142.753 615.302 134.291 615.302 134.291Z" fill="#DCDDDD"/>
</g>
</g>
</g>
<path d="M655.351 132.419V124.885L640.537 125.646V117.5L634.275 117.815V139.063C634.733 139.026 635.293 138.97 635.616 138.951C641.335 138.655 647.528 140.77 652.365 144.834L639.332 145.502V143.312L634.275 143.572V164.04C635.836 166.118 637.754 167.807 639.366 168.976L634.275 169.236V174.914L642.59 174.487V177.456L634.275 177.883V183.562L642.93 183.116V185.825L634.275 186.271V191.355L650.804 190.502V174.32C654.265 175.174 656.624 175.155 656.624 175.155V169.663C656.624 169.663 651.55 169.922 645.849 165.116C645.662 164.968 645.509 164.801 645.322 164.634L655.979 164.077V159.345L641.589 160.087C641.097 159.215 640.724 158.399 640.435 157.638L652.959 156.988V152.257L639.604 152.943V149.714L656.505 148.842C660.29 153.481 663.158 159.586 663.158 166.452C663.158 175.304 658.745 185.213 651.567 191.17C651.567 191.17 644.881 196.811 634.241 197.924V239.621L638.619 239.398V226.502L643.422 226.26V235.427L648.479 235.168V225.128C648.275 214.922 640.927 215.108 640.927 215.108V211.007L658.678 210.098V201.153L663.616 200.893V194.213C663.616 194.213 678.566 185.454 678.6 163.149C678.634 138.766 655.318 132.382 655.318 132.382" fill="#E8380D"/>
<path d="M655.351 132.419V124.885L640.537 125.646V117.5L634.275 117.815V139.063C634.733 139.026 635.293 138.97 635.616 138.951C641.335 138.655 647.528 140.77 652.365 144.834L639.332 145.502V143.312L634.275 143.572V164.04C635.836 166.118 637.754 167.807 639.366 168.976L634.275 169.236V174.914L642.59 174.487V177.456L634.275 177.883V183.562L642.93 183.116V185.825L634.275 186.271V191.355L650.804 190.502V174.32C654.265 175.174 656.624 175.155 656.624 175.155V169.663C656.624 169.663 651.55 169.922 645.849 165.116C645.662 164.968 645.509 164.801 645.322 164.634L655.979 164.077V159.345L641.589 160.087C641.097 159.215 640.724 158.399 640.435 157.638L652.959 156.988V152.257L639.604 152.943V149.714L656.505 148.842C660.29 153.481 663.158 159.586 663.158 166.452C663.158 175.304 658.745 185.213 651.567 191.17C651.567 191.17 644.881 196.811 634.241 197.924V239.621L638.619 239.398V226.502L643.422 226.26V235.427L648.479 235.168V225.128C648.275 214.922 640.927 215.108 640.927 215.108V211.007L658.678 210.098V201.153L663.616 200.893V194.213C663.616 194.213 678.566 185.454 678.6 163.149C678.634 138.766 655.318 132.382 655.318 132.382L655.351 132.419Z" stroke="#231815" stroke-width="0.69575" stroke-miterlimit="10"/>
<path d="M613.912 132.419V124.885L628.71 125.646V117.5L634.972 117.815V139.063C634.513 139.026 633.953 138.97 633.631 138.951C627.912 138.655 621.718 140.77 616.882 144.834L629.915 145.502V143.312L634.955 143.572V164.04C633.394 166.118 631.476 167.807 629.864 168.976L634.955 169.236V174.914L626.64 174.487V177.456L634.955 177.883V183.562L626.3 183.116V185.825L634.955 186.271V191.355L618.426 190.502V174.32C614.964 175.174 612.606 175.155 612.606 175.155V169.663C612.606 169.663 617.68 169.922 623.381 165.116C623.568 164.968 623.721 164.801 623.907 164.634L613.25 164.077V159.345L627.641 160.087C628.133 159.215 628.506 158.399 628.795 157.638L616.271 156.988V152.257L629.626 152.943V149.714L612.724 148.842C608.94 153.481 606.072 159.586 606.072 166.452C606.072 175.304 610.484 185.213 617.663 191.17C617.663 191.17 624.349 196.811 634.989 197.924V239.621L630.611 239.398V226.502L625.808 226.26V235.427L620.751 235.168V225.128C620.955 214.922 628.303 215.108 628.303 215.108V211.007L610.552 210.098V201.153L605.614 200.893V194.213C605.614 194.213 590.664 185.454 590.63 163.149C590.596 138.766 613.912 132.382 613.912 132.382" fill="#DD170F"/>
<path d="M613.912 132.419V124.885L628.71 125.646V117.5L634.972 117.815V139.063C634.513 139.026 633.953 138.97 633.631 138.951C627.912 138.655 621.718 140.77 616.882 144.834L629.915 145.502V143.312L634.955 143.572V164.04C633.394 166.118 631.476 167.807 629.864 168.976L634.955 169.236V174.914L626.64 174.487V177.456L634.955 177.883V183.562L626.3 183.116V185.825L634.955 186.271V191.355L618.426 190.502V174.32C614.964 175.174 612.606 175.155 612.606 175.155V169.663C612.606 169.663 617.68 169.922 623.381 165.116C623.568 164.968 623.721 164.801 623.907 164.634L613.25 164.077V159.345L627.641 160.087C628.133 159.215 628.506 158.399 628.795 157.638L616.271 156.988V152.257L629.626 152.943V149.714L612.724 148.842C608.94 153.481 606.072 159.586 606.072 166.452C606.072 175.304 610.484 185.213 617.663 191.17C617.663 191.17 624.349 196.811 634.989 197.924V239.621L630.611 239.398V226.502L625.808 226.26V235.427L620.751 235.168V225.128C620.955 214.922 628.303 215.108 628.303 215.108V211.007L610.552 210.098V201.153L605.614 200.893V194.213C605.614 194.213 590.664 185.454 590.63 163.149C590.596 138.766 613.912 132.382 613.912 132.382V132.419Z" stroke="#231815" stroke-width="0.69575" stroke-miterlimit="10"/>
</g>
<path d="M65.6732 12.5007C65.7241 12.2038 65.8429 11.9997 66.0296 11.8883C66.2162 11.777 66.4198 11.7398 66.6574 11.7955C67.4041 11.9625 68.2017 12.0739 69.0671 12.1481C69.9326 12.2223 70.7471 12.2594 71.5447 12.278C71.5447 12.111 71.5617 11.8883 71.5617 11.6471C71.5617 11.4058 71.5617 11.1832 71.5786 10.9791C70.6114 10.8677 69.8477 10.5337 69.2877 9.99556C68.7277 9.45742 68.4392 8.71513 68.4392 7.76874C68.4392 6.95225 68.6768 6.26565 69.135 5.7275C68.9823 5.7275 68.8126 5.70893 68.6599 5.70893C68.5071 5.70893 68.3544 5.70897 68.1847 5.69041C67.9302 5.6533 67.7095 5.57904 67.5399 5.43059C67.3532 5.3007 67.2853 5.05945 67.3362 4.72543C67.4211 4.20585 67.7265 3.98321 68.2526 4.02033C69.4914 4.13167 70.798 4.18729 72.1726 4.15018C73.5471 4.11307 74.8708 4.07598 76.1604 4.00175C76.7035 3.96464 76.975 4.24297 76.975 4.85534C76.975 5.35637 76.7204 5.61617 76.2114 5.67184C76.1095 5.67184 76.0247 5.69037 75.9059 5.70893C75.8041 5.70893 75.6853 5.70893 75.5665 5.70893C76.0417 6.26563 76.2623 6.95225 76.2623 7.76874C76.2623 8.2141 76.1774 8.62235 76.0247 8.99349C75.872 9.36462 75.6513 9.68004 75.3798 9.93984C75.0913 10.1996 74.7689 10.4223 74.3956 10.5893C74.0223 10.7563 73.598 10.8862 73.1568 10.9419V12.2409C73.6998 12.2409 74.2429 12.2037 74.752 12.1481C75.278 12.111 75.7532 12.0553 76.1944 12.0182C76.6186 11.9811 76.992 11.9254 77.3144 11.8697C77.6368 11.8141 77.8744 11.777 78.0271 11.7584C78.2986 11.7027 78.5362 11.7584 78.7398 11.9254C78.9435 12.0924 79.0453 12.3337 79.0453 12.6306C79.0453 12.8718 78.9774 13.0574 78.8586 13.2244C78.7398 13.3914 78.5532 13.4842 78.3495 13.5398C78.1459 13.5769 77.8235 13.6327 77.3653 13.7069C76.9071 13.7811 76.3641 13.8367 75.7362 13.8924C75.0914 13.9481 74.3956 14.0038 73.615 14.0409C72.8344 14.078 72.0368 14.0965 71.2053 14.078C70.3738 14.078 69.5423 14.0223 68.6938 13.9296C67.8453 13.8553 67.0477 13.7254 66.2671 13.5398C66.0805 13.5027 65.9108 13.3914 65.775 13.2058C65.6223 13.0203 65.5883 12.779 65.6393 12.5007H65.6732ZM72.6477 14.9687C73.8526 14.9687 74.7859 15.2842 75.4647 15.8966C76.1435 16.5089 76.4829 17.2883 76.4829 18.2346C76.4829 18.7542 76.381 19.1996 76.1774 19.6079C75.9738 20.0161 75.7023 20.3501 75.3629 20.647C75.0235 20.9254 74.5992 21.1481 74.1241 21.2965C73.6489 21.445 73.1398 21.5192 72.5968 21.5192C72.0029 21.5192 71.4768 21.4264 71.0017 21.2594C70.5265 21.0924 70.1362 20.8511 69.8138 20.5542C69.4744 20.2388 69.2198 19.9048 69.0502 19.4965C68.8805 19.1068 68.7956 18.68 68.7956 18.2346C68.7956 17.2511 69.135 16.4532 69.8308 15.8594C70.5265 15.2656 71.4598 14.9687 72.6477 14.9687ZM69.3217 2.38734C69.1689 2.29455 69.0332 2.14606 68.9144 1.94194C68.7956 1.75637 68.7956 1.53374 68.8974 1.2925C68.9653 1.12549 69.0841 0.977038 69.2538 0.884255C69.4235 0.791472 69.5932 0.772897 69.7798 0.86568C70.255 1.10692 70.7471 1.29248 71.2562 1.44093C71.7823 1.58938 72.2914 1.7193 72.8174 1.81209C73.3265 1.92343 73.8186 1.9976 74.2938 2.05327C74.7689 2.10894 75.2101 2.16466 75.6004 2.22033C75.7871 2.25745 75.9229 2.33166 76.0247 2.49867C76.1265 2.64712 76.1604 2.83271 76.1265 3.03683C76.0417 3.48219 75.7701 3.6863 75.312 3.66775C74.8538 3.63063 74.3786 3.59353 73.8526 3.55641C73.3265 3.5193 72.8004 3.44504 72.2744 3.35226C71.7483 3.25948 71.2223 3.14813 70.7132 2.99968C70.2041 2.85123 69.7459 2.64709 69.3047 2.40585L69.3217 2.38734ZM72.3253 9.43883C72.5968 9.43883 72.8513 9.40172 73.1229 9.32749C73.3944 9.25327 73.632 9.14194 73.8356 8.99349C74.0392 8.86359 74.2089 8.69655 74.3277 8.49242C74.4635 8.2883 74.5314 8.06563 74.5314 7.80584C74.5314 7.28625 74.3277 6.87804 73.9374 6.56257C73.5302 6.24711 73.0041 6.09866 72.3083 6.09866C71.6126 6.09866 71.1035 6.24711 70.7132 6.56257C70.3059 6.87804 70.1193 7.28625 70.1193 7.80584C70.1193 8.32542 70.3229 8.69658 70.7132 8.99349C71.1204 9.29039 71.6465 9.43883 72.3083 9.43883H72.3253ZM72.6138 19.9048C72.8853 19.9048 73.1398 19.8677 73.3944 19.7935C73.6489 19.7192 73.8696 19.6078 74.0732 19.4594C74.2768 19.3109 74.4295 19.1439 74.5483 18.9398C74.6671 18.7357 74.735 18.4944 74.735 18.2346C74.735 17.7151 74.5483 17.2883 74.192 16.9728C73.8186 16.6573 73.2926 16.4904 72.6138 16.4904C71.935 16.4904 71.4259 16.6573 71.0526 16.9728C70.6792 17.2883 70.4926 17.7151 70.4926 18.2346C70.4926 18.4388 70.5435 18.6429 70.6453 18.8285C70.7471 19.014 70.8829 19.1996 71.0695 19.3666C71.2392 19.5151 71.4598 19.645 71.7144 19.7378C71.9689 19.8306 72.2744 19.8862 72.6138 19.8862V19.9048ZM80.2841 11.777C80.318 11.5357 80.4368 11.3316 80.6404 11.2017C80.8271 11.0718 81.0477 11.0347 81.2683 11.0718C81.981 11.2388 82.7447 11.3502 83.5422 11.4244C84.3398 11.4986 85.1204 11.5358 85.918 11.5543C86.6986 11.5543 87.4622 11.5543 88.2089 11.5172C88.9386 11.48 89.6174 11.4244 90.2283 11.3687C90.8222 11.3316 91.3483 11.2759 91.7725 11.2202C92.2138 11.1646 92.5022 11.1089 92.6889 11.0718C92.9604 11.0161 93.181 11.0718 93.3847 11.2202C93.5883 11.3873 93.6901 11.6285 93.7071 11.944C93.7071 12.1667 93.6392 12.3522 93.5204 12.5007C93.4016 12.6491 93.2319 12.7605 93.0283 12.8161C92.8586 12.8533 92.5362 12.9089 92.095 12.9831C91.6368 13.0574 91.0938 13.1131 90.4319 13.1687C89.7701 13.2244 89.0574 13.28 88.2768 13.3172C87.4962 13.3543 86.6816 13.3729 85.8332 13.3543C84.9847 13.3543 84.1532 13.2986 83.3047 13.2244C82.4562 13.1502 81.6756 13.0202 80.9459 12.8532C80.6913 12.7976 80.5047 12.6677 80.4029 12.445C80.301 12.2409 80.2671 12.0182 80.3011 11.777H80.2841ZM90.398 7.88008C90.6525 7.80585 90.8562 7.80585 91.0259 7.88008C91.1956 7.95431 91.3144 8.12133 91.4162 8.41824C91.501 8.65947 91.4841 8.88214 91.3822 9.04915C91.2804 9.21616 91.1277 9.34606 90.9071 9.4574C90.7035 9.55019 90.415 9.64296 90.0586 9.73574C89.6853 9.82852 89.278 9.90274 88.8198 9.95841C88.3447 10.0326 87.8695 10.0698 87.3604 10.1069C86.8513 10.1255 86.3592 10.1069 85.8841 10.0697C84.3568 9.95841 83.3726 9.40172 82.8974 8.39966C82.4223 7.41616 82.3713 6.0615 82.7447 4.37285C82.7107 4.37285 82.6598 4.37285 82.6089 4.37285C82.558 4.37285 82.4732 4.37287 82.3204 4.33576C82.0489 4.29865 81.8283 4.20587 81.6416 4.05742C81.455 3.89041 81.3871 3.64915 81.4041 3.33369C81.438 3.03678 81.5398 2.83266 81.7265 2.70277C81.9132 2.57287 82.1507 2.53576 82.4223 2.59143C83.0162 2.62855 83.661 2.68421 84.3229 2.70277C84.9847 2.73988 85.6635 2.75845 86.3592 2.77701C87.038 2.77701 87.7168 2.77701 88.3786 2.77701C89.0404 2.77701 89.6853 2.75845 90.2792 2.72134C90.5337 2.72134 90.7544 2.77702 90.9241 2.90692C91.0938 3.03682 91.1786 3.2595 91.1786 3.61208C91.1786 3.90899 91.0938 4.11306 90.9241 4.26152C90.7544 4.39141 90.5337 4.46567 90.2792 4.46567C89.855 4.50278 89.3968 4.52134 88.9047 4.52134C88.4125 4.52134 87.9034 4.52134 87.4113 4.52134C86.9022 4.52134 86.4101 4.52134 85.901 4.52134C85.4089 4.52134 84.9338 4.50278 84.4926 4.46567C84.4077 4.94814 84.3568 5.41204 84.3059 5.83884C84.255 6.26564 84.2719 6.65532 84.3398 6.98934C84.4077 7.32336 84.5604 7.60173 84.798 7.82441C85.0356 8.04709 85.4089 8.2141 85.918 8.28833C86.3253 8.36255 86.7665 8.38113 87.2586 8.36257C87.7507 8.32546 88.2259 8.28831 88.684 8.21408C89.1253 8.15841 89.4986 8.10273 89.821 8.02851C90.1435 7.95428 90.3131 7.91717 90.3641 7.91717L90.398 7.88008ZM87.2586 14.6161C87.8525 14.6161 88.3956 14.7089 88.8538 14.8759C89.3289 15.0429 89.7192 15.2842 90.0586 15.5811C90.398 15.8965 90.6525 16.2491 90.8222 16.6759C90.9919 17.1027 91.0768 17.5667 91.0768 18.0491C91.0768 18.5873 90.975 19.0697 90.7713 19.4965C90.5677 19.9233 90.2962 20.2759 89.9568 20.5914C89.6174 20.8883 89.1931 21.1109 88.718 21.278C88.2428 21.445 87.7338 21.5192 87.1907 21.5192C86.5968 21.5192 86.0707 21.4264 85.5956 21.2409C85.1204 21.0553 84.7301 20.814 84.4077 20.4986C84.0683 20.1831 83.8138 19.8305 83.6441 19.4037C83.4744 18.9769 83.3895 18.5316 83.3895 18.0491C83.3895 16.9914 83.7289 16.1563 84.4247 15.544C85.1204 14.9316 86.0538 14.6161 87.2416 14.6161H87.2586ZM87.2416 19.9048C87.5132 19.9048 87.7677 19.8677 88.0222 19.7749C88.2768 19.6821 88.4974 19.5707 88.701 19.4037C88.9047 19.2367 89.0574 19.0512 89.1762 18.8285C89.295 18.6058 89.3629 18.346 89.3629 18.0676C89.3629 17.4738 89.1762 16.9914 88.8198 16.6574C88.4465 16.3234 87.9204 16.1378 87.2416 16.1378C86.5629 16.1378 86.0538 16.3048 85.6804 16.6574C85.3071 16.9914 85.1204 17.4738 85.1204 18.0676C85.1204 18.3089 85.1713 18.5315 85.2732 18.7542C85.375 18.9769 85.5107 19.1625 85.6974 19.3481C85.8671 19.5151 86.0877 19.6635 86.3423 19.7563C86.5968 19.8491 86.9023 19.9048 87.2416 19.9048ZM108.606 11.3502C108.573 11.6471 108.505 11.8883 108.42 12.0924C108.335 12.2965 108.165 12.445 107.894 12.5935C107.69 12.6863 107.486 12.7605 107.249 12.8532C107.028 12.946 106.774 13.0202 106.485 13.0759C106.197 13.1501 105.857 13.2058 105.501 13.2244C105.145 13.2615 104.72 13.2429 104.262 13.2058C103.838 13.1687 103.448 13.0945 103.074 12.9831C102.718 12.8718 102.396 12.7234 102.107 12.5192C101.819 12.3151 101.564 12.0553 101.36 11.7213C101.157 11.3873 101.021 10.979 100.919 10.478C100.868 10.1811 100.834 9.80998 100.834 9.34607C100.834 8.88215 100.834 8.41824 100.868 7.95432C100.902 7.50896 100.936 7.08214 100.97 6.711C101.021 6.33987 101.055 6.06152 101.072 5.89451L100.665 5.85741C100.427 5.8203 100.206 5.74605 100.003 5.59759C99.7992 5.44914 99.7144 5.20794 99.7653 4.87392C99.7992 4.57701 99.901 4.39143 100.088 4.28009C100.274 4.18731 100.495 4.1502 100.766 4.16876C100.868 4.16876 101.089 4.20585 101.445 4.20585C101.785 4.20585 102.175 4.243 102.633 4.243C103.091 4.243 103.566 4.26153 104.076 4.28009C104.585 4.28009 105.06 4.28009 105.518 4.28009C105.976 4.28009 106.366 4.29867 106.706 4.29867C107.045 4.29867 107.266 4.29865 107.385 4.28009C107.622 4.28009 107.843 4.29866 108.029 4.35433C108.216 4.41 108.352 4.57703 108.403 4.89249C108.471 5.35641 108.522 5.89452 108.573 6.48833C108.623 7.08214 108.657 7.67598 108.657 8.25123C108.657 8.84505 108.657 9.42029 108.657 9.97699C108.64 10.5337 108.606 10.979 108.556 11.3687L108.606 11.3502ZM106.842 11.2759C106.926 11.1089 106.977 10.8306 107.011 10.4409C107.045 10.0698 107.062 9.62443 107.062 9.1234C107.062 8.62237 107.062 8.10273 107.011 7.56459C106.977 7.02645 106.926 6.50689 106.876 6.02442C106.214 6.02442 105.552 6.02442 104.89 6.02442C104.228 6.02442 103.566 6.00586 102.871 5.96875C102.837 6.15432 102.786 6.39554 102.769 6.711C102.735 7.00791 102.701 7.32337 102.684 7.63883C102.65 7.97285 102.633 8.30691 102.616 8.65948C102.616 8.9935 102.616 9.30896 102.616 9.58731C102.65 10.1811 102.803 10.6265 103.074 10.9048C103.346 11.1832 103.753 11.3687 104.296 11.4615C104.822 11.5543 105.314 11.5543 105.756 11.4986C106.197 11.4244 106.553 11.3501 106.842 11.2759ZM111.373 19.2924C111.644 19.2553 111.865 19.2924 112.068 19.3852C112.255 19.478 112.391 19.6821 112.442 20.0161C112.476 20.2945 112.425 20.5171 112.255 20.6841C112.102 20.8511 111.882 20.9625 111.61 20.9996C109.828 21.3151 108.013 21.3707 106.129 21.2037C105.28 21.1295 104.703 20.8512 104.364 20.3687C104.025 19.8862 103.872 19.1811 103.872 18.2718C103.872 17.845 103.872 17.4182 103.906 17.01C103.923 16.5832 103.957 16.1563 103.974 15.6924C104.008 15.3769 104.109 15.1357 104.279 14.9687C104.432 14.8017 104.669 14.7275 104.975 14.746C105.196 14.7832 105.382 14.8759 105.501 15.0615C105.62 15.2285 105.671 15.4512 105.654 15.711C105.654 16.0821 105.62 16.4532 105.62 16.8429C105.62 17.2326 105.603 17.6965 105.603 18.2532C105.603 18.68 105.688 18.9769 105.857 19.144C106.027 19.311 106.299 19.4223 106.689 19.4594C107.334 19.5336 108.013 19.5522 108.759 19.5336C109.506 19.4965 110.371 19.4223 111.389 19.311L111.373 19.2924ZM111.237 15.2285C111.016 15.1914 110.829 15.0615 110.711 14.8574C110.592 14.6533 110.541 14.4306 110.609 14.1708C110.829 12.9832 110.948 11.8697 111.016 10.812C111.067 9.75427 111.084 8.80789 111.033 7.97284C110.999 7.11924 110.931 6.39556 110.829 5.80175C110.728 5.20794 110.66 4.78111 110.609 4.50276C110.541 4.20586 110.575 3.94608 110.711 3.70484C110.846 3.4636 111.067 3.35226 111.389 3.35226C111.593 3.35226 111.763 3.42648 111.916 3.57493C112.068 3.72338 112.17 3.90898 112.204 4.13166C112.272 4.44713 112.357 4.94815 112.459 5.63474C112.56 6.3399 112.628 7.19351 112.662 8.19557C113.019 8.19557 113.324 8.19557 113.562 8.19557C113.799 8.19557 113.986 8.19555 114.139 8.23266C114.291 8.23266 114.41 8.2512 114.495 8.26975C114.58 8.26975 114.665 8.26979 114.733 8.3069C115.208 8.36257 115.445 8.65948 115.445 9.17906C115.445 9.47597 115.36 9.6986 115.208 9.8285C115.055 9.97695 114.851 10.0327 114.631 9.99556C114.359 9.95845 114.054 9.93984 113.68 9.93984C113.307 9.93984 112.985 9.93984 112.696 9.93984C112.662 10.645 112.611 11.3687 112.543 12.111C112.476 12.8718 112.357 13.6512 112.221 14.4862C112.187 14.6718 112.102 14.8574 111.933 15.0244C111.78 15.1914 111.542 15.2471 111.254 15.1914L111.237 15.2285ZM115.751 10.7749C115.802 10.5337 115.92 10.3296 116.107 10.1997C116.294 10.0698 116.497 10.0326 116.735 10.0697C117.448 10.2368 118.211 10.3481 119.009 10.4223C119.806 10.4966 120.587 10.5337 121.385 10.5337C122.165 10.5337 122.929 10.5337 123.676 10.5151C124.405 10.478 125.084 10.4409 125.695 10.3852C126.289 10.3296 126.815 10.2739 127.239 10.2182C127.663 10.1626 127.969 10.1069 128.156 10.0697C128.41 10.0141 128.648 10.0697 128.851 10.2367C129.072 10.4038 129.174 10.645 129.174 10.9419C129.174 11.1646 129.106 11.3502 128.987 11.5172C128.868 11.6842 128.682 11.7955 128.478 11.8326C128.274 11.8698 127.952 11.9254 127.494 11.9997C127.036 12.0739 126.492 12.1296 125.848 12.1852C125.203 12.2409 124.507 12.2965 123.726 12.3337C122.946 12.3708 122.148 12.3894 121.317 12.3708C120.485 12.3708 119.654 12.3151 118.822 12.2223C117.974 12.1481 117.176 12.0182 116.396 11.8326C116.141 11.777 115.954 11.6471 115.853 11.4615C115.734 11.2759 115.717 11.0347 115.768 10.7563L115.751 10.7749ZM125.865 7.34192C126.119 7.26769 126.323 7.26769 126.492 7.34192C126.662 7.41615 126.781 7.58317 126.883 7.88008C126.968 8.12132 126.951 8.34399 126.849 8.511C126.747 8.67801 126.594 8.80791 126.374 8.91924C126.17 9.01203 125.882 9.1048 125.525 9.19758C125.152 9.29037 124.745 9.36458 124.286 9.42025C123.811 9.49448 123.336 9.53162 122.827 9.56874C122.318 9.58729 121.826 9.56876 121.351 9.53164C121.198 9.53164 121.011 9.49452 120.791 9.4574C120.57 9.42029 120.316 9.36461 120.078 9.27182C119.823 9.1976 119.586 9.08623 119.331 8.95634C119.094 8.82644 118.89 8.64088 118.703 8.43675C118.262 7.89861 118.025 7.24917 117.974 6.50691C117.923 5.74609 118.008 5.04089 118.211 4.37285C118.177 4.37285 118.126 4.37285 118.076 4.37285C118.025 4.37285 117.94 4.37287 117.787 4.33576C117.516 4.29865 117.295 4.20587 117.108 4.05742C116.922 3.89041 116.854 3.64915 116.871 3.33369C116.905 3.03678 117.006 2.83266 117.193 2.70277C117.38 2.57287 117.617 2.53576 117.889 2.59143C118.483 2.62855 119.128 2.68421 119.789 2.70277C120.451 2.73988 121.13 2.75845 121.826 2.77701C122.505 2.77701 123.183 2.77701 123.845 2.77701C124.507 2.77701 125.152 2.75845 125.746 2.72134C126 2.72134 126.221 2.77702 126.391 2.90692C126.56 3.03682 126.645 3.2595 126.645 3.61208C126.645 3.90899 126.56 4.11306 126.391 4.26152C126.221 4.39141 126 4.46567 125.746 4.46567C125.322 4.50278 124.863 4.52134 124.371 4.52134C123.879 4.52134 123.37 4.52134 122.878 4.52134C122.369 4.52134 121.877 4.52134 121.385 4.52134C120.892 4.52134 120.417 4.50278 119.976 4.46567C119.925 4.7069 119.857 5.04094 119.789 5.46774C119.722 5.87599 119.722 6.2842 119.806 6.65534C119.84 6.8409 119.925 7.00793 120.027 7.13783C120.129 7.26772 120.265 7.37905 120.434 7.47183C120.587 7.56461 120.74 7.62031 120.909 7.67598C121.079 7.7131 121.232 7.75021 121.402 7.78732C121.809 7.84299 122.25 7.86152 122.742 7.82441C123.234 7.7873 123.709 7.75017 124.168 7.6945C124.609 7.63883 124.982 7.58315 125.305 7.50892C125.627 7.4347 125.797 7.39759 125.848 7.39759L125.865 7.34192ZM126.374 19.7192C126.594 19.6635 126.798 19.6635 126.968 19.7192C127.137 19.7749 127.273 19.9419 127.375 20.2202C127.46 20.4615 127.443 20.6656 127.358 20.814C127.256 20.9625 127.103 21.0924 126.9 21.2037C126.696 21.2965 126.425 21.3893 126.068 21.4821C125.712 21.5748 125.322 21.6676 124.897 21.7419C124.456 21.7975 123.998 21.8347 123.506 21.8532C123.014 21.8718 122.539 21.8532 122.08 21.8161C121.588 21.779 121.13 21.6862 120.706 21.5377C120.282 21.3893 119.925 21.1852 119.637 20.9068C119.348 20.6099 119.128 20.2573 118.992 19.812C118.856 19.3666 118.839 18.8471 118.907 18.2161L118.5 18.179C118.262 18.1419 118.042 18.0677 117.838 17.9192C117.634 17.7708 117.549 17.5295 117.6 17.1955C117.634 16.8986 117.753 16.6945 117.94 16.6017C118.126 16.4904 118.347 16.4533 118.619 16.4904C119.569 16.5646 120.519 16.6202 121.486 16.6388C122.454 16.6759 123.421 16.6759 124.388 16.6759C124.456 16.212 124.49 15.8594 124.524 15.6182C124.541 15.377 124.541 15.2099 124.524 15.1171C124.117 15.1171 123.625 15.0801 123.048 15.0801C122.454 15.0801 121.894 15.0429 121.368 15.0058C120.825 15.0058 120.349 14.9687 119.959 14.9501C119.569 14.9316 119.365 14.9131 119.348 14.9131C119.111 14.8759 118.89 14.8017 118.686 14.6532C118.483 14.5048 118.398 14.2636 118.449 13.9296C118.483 13.6141 118.602 13.4099 118.788 13.3172C118.975 13.2244 119.196 13.1873 119.467 13.2058C119.552 13.2058 119.739 13.2244 120.044 13.243C120.349 13.243 120.706 13.2429 121.113 13.2801C121.52 13.3172 121.945 13.3357 122.403 13.3543C122.861 13.3543 123.285 13.3728 123.709 13.3728C124.117 13.3728 124.456 13.3914 124.745 13.41C125.033 13.41 125.22 13.41 125.305 13.41C125.542 13.41 125.763 13.4656 125.932 13.5584C126.119 13.6697 126.204 13.9296 126.221 14.3378C126.221 14.579 126.221 14.8759 126.221 15.2471C126.221 15.6182 126.136 16.0821 126.034 16.6388H126.187C126.459 16.6388 126.662 16.713 126.832 16.8429C126.985 16.9728 127.069 17.1955 127.069 17.511C127.069 17.7522 126.985 17.9563 126.798 18.1048C126.611 18.2532 126.408 18.3275 126.17 18.3275C126.085 18.3275 125.848 18.3275 125.457 18.3275C125.067 18.3275 124.609 18.3275 124.083 18.3275C123.557 18.3275 122.98 18.3275 122.386 18.3275C121.792 18.3275 121.232 18.3274 120.723 18.2903C120.621 18.9212 120.689 19.3481 120.943 19.5893C121.198 19.8305 121.571 19.9975 122.08 20.0903C122.488 20.1645 122.912 20.1831 123.387 20.1645C123.862 20.1274 124.303 20.0903 124.745 20.0346C125.169 19.979 125.542 19.9233 125.848 19.8491C126.153 19.7749 126.34 19.7378 126.391 19.7378L126.374 19.7192ZM138.1 11.2574C138.066 11.9069 137.879 12.5563 137.557 13.1872C137.234 13.8182 136.844 14.3934 136.369 14.9316C135.894 15.4697 135.402 15.9336 134.859 16.3419C134.332 16.7316 133.84 17.0099 133.399 17.1584C133.179 17.2326 132.975 17.2326 132.822 17.177C132.669 17.1213 132.534 16.9728 132.432 16.7316C132.33 16.4903 132.296 16.2863 132.347 16.0821C132.398 15.878 132.551 15.7295 132.788 15.5811C133.348 15.3027 133.84 14.9873 134.248 14.5976C134.655 14.2264 134.994 13.8368 135.283 13.4471C135.571 13.0759 135.792 12.6863 135.962 12.2966C136.131 11.9069 136.25 11.5543 136.335 11.2574C136.386 11.0162 136.42 10.6821 136.42 10.2553C136.42 9.82852 136.42 9.42029 136.386 8.99349C136.352 8.51101 136.301 8.00995 136.25 7.45326H130.939C130.786 7.45326 130.633 7.37906 130.48 7.24916C130.328 7.11926 130.243 6.91515 130.243 6.67391C130.243 6.48834 130.294 6.28423 130.379 6.09866C130.463 5.89454 130.633 5.80175 130.854 5.80175H137.065C137.285 5.80175 137.455 5.83884 137.574 5.89451C137.692 5.95018 137.777 6.02443 137.828 6.09866C137.879 6.19144 137.913 6.28421 137.913 6.377C137.913 6.46978 137.913 6.56255 137.913 6.65534C137.913 6.78523 137.913 7.04503 137.947 7.41616C137.981 7.7873 137.998 8.21412 138.032 8.65948C138.032 9.1234 138.066 9.58727 138.066 10.0697C138.066 10.5337 138.066 10.9234 138.066 11.2574H138.1ZM141.731 17.5295C141.511 17.4924 141.324 17.3625 141.205 17.1584C141.086 16.9543 141.036 16.7316 141.103 16.4718C141.324 15.2842 141.443 14.1522 141.511 13.0388C141.562 11.944 141.579 10.9419 141.528 10.0327C141.494 9.12338 141.426 8.34402 141.324 7.67598C141.222 7.00795 141.154 6.5069 141.103 6.20999C141.069 5.96876 141.103 5.74609 141.188 5.52341C141.273 5.30073 141.426 5.17083 141.629 5.11516C141.918 5.02238 142.172 5.05949 142.359 5.2265C142.546 5.39351 142.665 5.59762 142.715 5.85741C142.766 6.17288 142.851 6.69244 142.953 7.39759C143.055 8.10274 143.123 8.95637 143.191 9.92132C143.225 10.9048 143.225 11.9811 143.174 13.1502C143.123 14.3192 142.97 15.544 142.732 16.8244C142.699 17.0099 142.614 17.1955 142.427 17.3625C142.257 17.5295 142.037 17.5852 141.765 17.5295H141.731Z" fill="#47BCC6"/>
<mask id="mask16_2_52014" style="mask-type:luminance" maskUnits="userSpaceOnUse" x="119" y="64" width="46" height="161">
<path d="M164.995 64.7109H119.296V224.613H164.995V64.7109Z" fill="white"/>
</mask>
<g mask="url(#mask16_2_52014)">
<path d="M129.174 248.838V66.8906" stroke="#231815" stroke-width="0.882414" stroke-linecap="round" stroke-linejoin="round" stroke-dasharray="2.63 1.41 0.36 1.41"/>
</g>
</svg>
