<svg width="424" height="53" viewBox="0 0 424 53" fill="none" xmlns="http://www.w3.org/2000/svg">
<path d="M2.00588 50.2325L95.586 50.3627L190.12 48.1133L236.182 48.175L282.741 50.6089L378.233 48.3653" stroke="#EE9D67" stroke-width="3" stroke-linecap="round"/>
<path d="M391.002 32.16C392.176 32.16 393.229 32.4533 394.162 33.04C395.096 33.6 395.842 34.3467 396.402 35.28C396.962 36.2133 397.242 37.2667 397.242 38.44C397.242 39.5867 396.962 40.64 396.402 41.6C395.842 42.5333 395.096 43.28 394.162 43.84C393.229 44.4 392.176 44.68 391.002 44.68C389.856 44.68 388.802 44.4 387.842 43.84C386.909 43.28 386.149 42.5333 385.562 41.6C385.002 40.64 384.722 39.5867 384.722 38.44C384.722 37.2667 385.002 36.2133 385.562 35.28C386.149 34.3467 386.909 33.6 387.842 33.04C388.802 32.4533 389.856 32.16 391.002 32.16ZM391.002 42.28C392.069 42.28 392.976 41.9067 393.722 41.16C394.469 40.4133 394.842 39.5067 394.842 38.44C394.842 37.72 394.669 37.08 394.322 36.52C394.002 35.9333 393.549 35.4667 392.962 35.12C392.376 34.7733 391.722 34.6 391.002 34.6C390.309 34.6 389.669 34.7733 389.082 35.12C388.496 35.4667 388.029 35.9333 387.682 36.52C387.336 37.08 387.162 37.72 387.162 38.44C387.162 39.1333 387.336 39.7867 387.682 40.4C388.029 40.9867 388.496 41.4533 389.082 41.8C389.669 42.12 390.309 42.28 391.002 42.28Z" fill="#1E1E1E"/>
</svg>
