<svg width="50" height="38" viewBox="0 0 50 38" fill="none" xmlns="http://www.w3.org/2000/svg">
<path d="M5.74453 18.04V20.04C5.74453 26.12 7.10453 32.16 11.2245 37.8H6.42453C2.46453 33.08 0.544531 26.84 0.544531 19.84V18.24C0.544531 11.24 2.46453 5.08 6.42453 0.359999H11.2245C7.30453 5.64 5.74453 11.64 5.74453 18.04ZM14.6377 28.2L25.2377 17.28C28.5977 13.84 28.7977 12.32 28.7977 10.68V10.36C28.7977 8.8 27.6377 7.32 24.6777 7.32C22.5977 7.32 20.4777 8 18.5977 11.36L14.7577 8.84C16.1177 6.36 18.7977 2.76 24.6377 2.76C31.1577 2.76 33.9577 6.2 33.9577 10.16V10.56C33.9577 13.68 32.4777 16.56 29.7977 19.24L21.3177 27.8H35.0377V32.04H14.6377V28.2ZM44.2423 20.04V18.04C44.2423 11.64 42.6823 5.64 38.7623 0.359999H43.5623C47.5223 5.08 49.4423 11.24 49.4423 18.24V19.84C49.4423 26.84 47.5223 33.08 43.5623 37.8H38.7623C42.8823 32.16 44.2423 26.12 44.2423 20.04Z" fill="#1E1E1E"/>
</svg>
