<svg width="50" height="38" viewBox="0 0 50 38" fill="none" xmlns="http://www.w3.org/2000/svg">
<path d="M5.74453 18.04V20.04C5.74453 26.12 7.10453 32.16 11.2245 37.8H6.42453C2.46453 33.08 0.544531 26.84 0.544531 19.84V18.24C0.544531 11.24 2.46453 5.08 6.42453 0.359999H11.2245C7.30453 5.64 5.74453 11.64 5.74453 18.04ZM30.0377 32.04H24.9177V8.96L18.3577 12.72L15.8777 8.56L25.5177 3.2H30.0377V32.04ZM44.2423 20.04V18.04C44.2423 11.64 42.6823 5.64 38.7623 0.359999H43.5623C47.5223 5.08 49.4423 11.24 49.4423 18.24V19.84C49.4423 26.84 47.5223 33.08 43.5623 37.8H38.7623C42.8823 32.16 44.2423 26.12 44.2423 20.04Z" fill="#1E1E1E"/>
</svg>
