<svg width="50" height="38" viewBox="0 0 50 38" fill="none" xmlns="http://www.w3.org/2000/svg">
<path d="M5.74453 18.04V20.04C5.74453 26.12 7.10453 32.16 11.2245 37.8H6.42453C2.46453 33.08 0.544531 26.84 0.544531 19.84V18.24C0.544531 11.24 2.46453 5.08 6.42453 0.359999H11.2245C7.30453 5.64 5.74453 11.64 5.74453 18.04ZM18.7177 9.64L15.2377 6.92C17.1577 4.44 19.6377 2.76 23.7977 2.76C29.1977 2.76 32.7177 5.64 32.7177 9.96V10.36C32.7177 12.64 31.8377 15.72 28.5577 16.96C32.3577 17.64 34.1577 20.2 34.1577 23.48V24.08C34.1577 28.44 30.7577 32.48 23.6777 32.48C20.3177 32.48 17.1577 31.44 14.4377 29.28L16.9577 25.28C19.7577 27.32 21.3977 27.92 23.7177 27.92C27.3177 27.92 28.9977 26.36 28.9977 23.84V23.32C28.9977 20.52 27.4377 19.24 23.7577 19.24H19.8777V14.84H23.3177C26.9177 14.84 27.7177 13.16 27.7177 10.68V10.36C27.7177 8.2 26.1977 7.24 23.7977 7.24C21.3577 7.24 19.9977 8.24 18.7177 9.64ZM44.2423 20.04V18.04C44.2423 11.64 42.6823 5.64 38.7623 0.359999H43.5623C47.5223 5.08 49.4423 11.24 49.4423 18.24V19.84C49.4423 26.84 47.5223 33.08 43.5623 37.8H38.7623C42.8823 32.16 44.2423 26.12 44.2423 20.04Z" fill="#1E1E1E"/>
</svg>
