<svg width="46" height="58" viewBox="0 0 46 58" fill="none" xmlns="http://www.w3.org/2000/svg">
<path d="M46 20.9009C46 32.4442 42.1667 40.3281 23 58C3.83333 40.3281 0 32.4442 0 20.9009C0 9.35765 10.2975 0 23 0C35.7025 0 46 9.35765 46 20.9009Z" fill="#B34840"/>
<ellipse cx="23" cy="22.5" rx="17" ry="16.5" fill="white"/>
<path d="M17.7703 17.4C17.5543 17.208 17.4583 16.944 17.4583 16.536C17.4823 16.176 17.5543 15.816 17.8183 15.576C18.5383 14.928 19.3063 14.952 20.2423 14.904C20.9623 14.88 21.4903 14.904 22.2103 14.904C23.3383 14.904 24.7543 14.952 25.9303 15C26.8903 15.048 27.9223 15.384 27.9703 16.488C28.0423 17.76 26.9863 18.84 26.2183 19.608C25.5223 20.328 24.5143 21.24 23.8183 21.96C26.3383 22.296 28.6423 23.544 28.6423 26.616C28.6423 29.688 26.1463 32.016 22.7143 32.016C21.2263 32.016 19.2103 31.536 18.1063 30.408C17.3383 29.664 16.9063 28.08 18.2023 27.624C19.1623 27.288 19.9783 27.888 20.7463 28.32C21.9223 29.04 23.2663 29.256 24.5143 28.512C25.9543 27.648 25.7143 25.896 24.4183 25.152C23.1943 24.432 21.3703 24.864 20.3863 23.76C19.3063 22.512 21.5863 20.856 22.3303 20.016C22.8103 19.536 23.6023 18.72 23.7223 18.24C23.9143 17.712 22.8103 17.88 22.4263 17.88H20.8183C19.9543 17.88 18.4903 18.024 17.7703 17.4Z" fill="#B34840"/>
</svg>
