<svg width="46" height="58" viewBox="0 0 46 58" fill="none" xmlns="http://www.w3.org/2000/svg">
<path d="M46 20.9009C46 32.4442 42.1667 40.3281 23 58C3.83333 40.3281 0 32.4442 0 20.9009C0 9.35765 10.2975 0 23 0C35.7025 0 46 9.35765 46 20.9009Z" fill="#B34840"/>
<ellipse cx="23" cy="22.5" rx="17" ry="16.5" fill="white"/>
<path d="M19.7725 20.376C18.8365 21.864 16.8445 20.856 16.9645 19.32C17.0605 18.264 17.9245 16.848 18.7405 16.176C20.2525 14.928 22.8205 14.376 24.6925 14.976C27.2365 15.768 28.7245 17.496 28.7245 20.232C28.7245 22.824 27.8365 24.216 24.9325 26.592C24.4525 27 23.9245 27.432 23.4205 27.84C23.0845 28.104 21.2845 28.968 22.4365 29.064C23.1325 29.112 23.4205 29.064 24.1165 29.064C24.9325 29.064 25.7485 28.992 26.5405 29.064C27.1885 29.112 28.1485 28.944 28.6525 29.376C29.1565 29.808 29.1805 31.08 28.7485 31.536C28.3405 32.016 27.6685 31.872 27.1165 31.872H18.5005C18.1885 31.872 17.7805 31.944 17.4925 31.848C16.9165 31.704 17.0845 31.176 17.0845 30.696C17.0845 29.064 18.8365 28.008 19.9885 27.048C20.8285 26.304 21.8365 25.584 22.7005 24.84C24.9565 22.968 25.7725 21.912 25.7725 20.448C25.7725 18.84 24.6445 17.904 23.1325 17.904C22.0285 17.904 20.9725 18.408 20.3485 19.32C20.1565 19.656 19.9885 20.064 19.7725 20.376Z" fill="#B34840"/>
</svg>
