<svg width="46" height="58" viewBox="0 0 46 58" fill="none" xmlns="http://www.w3.org/2000/svg">
<path d="M46 20.9009C46 32.4442 42.1667 40.3281 23 58C3.83333 40.3281 0 32.4442 0 20.9009C0 9.35765 10.2975 0 23 0C35.7025 0 46 9.35765 46 20.9009Z" fill="#B34840"/>
<ellipse cx="23" cy="22.5" rx="17" ry="16.5" fill="white"/>
<path d="M18.5462 15.288C18.8342 15 19.3142 14.952 19.9382 14.952H25.8662C26.7302 14.952 28.0502 14.784 28.3622 15.816C28.5542 16.464 28.3142 17.568 27.4502 17.664C26.6342 17.808 25.6982 17.664 24.8582 17.664C23.9462 17.664 23.3222 17.76 22.4342 17.76C22.0982 17.76 21.4262 17.688 21.1382 17.784C20.6102 17.904 20.6342 18.624 20.6342 19.008C20.6342 19.56 20.5622 20.112 20.5382 20.664C20.4662 21.408 20.7302 21.384 21.4022 21.192C21.9782 21.048 22.5782 20.976 23.1782 20.976C26.4182 20.976 28.9622 22.704 28.9622 26.256C28.9622 26.568 28.9622 26.856 28.8902 27.144C28.6262 29.16 27.3062 30.792 25.3862 31.464C23.1302 32.328 20.5382 32.328 18.4982 31.008C17.9222 30.672 17.3942 30.144 17.1782 29.52C16.9142 28.848 16.9862 28.032 17.7062 27.672C18.7862 27.144 19.5062 28.176 20.3462 28.632C21.0662 28.992 21.8822 29.256 22.7702 29.256C24.7382 29.256 26.0582 28.104 26.0582 26.328C26.0582 24.624 24.6902 23.568 22.6022 23.568C22.0502 23.568 21.4982 23.616 20.9702 23.784C19.9382 24.024 18.9782 24.6 18.1142 23.592C17.7062 23.16 17.8022 22.44 17.8502 21.888C17.8982 20.952 17.9462 20.04 17.9942 19.104C18.0662 18.192 18.1142 17.256 18.1622 16.344C18.1862 15.816 18.3302 15.504 18.5462 15.288Z" fill="#B34840"/>
</svg>
