<svg width="46" height="58" viewBox="0 0 46 58" fill="none" xmlns="http://www.w3.org/2000/svg">
<path d="M46 20.9009C46 32.4442 42.1667 40.3281 23 58C3.83333 40.3281 0 32.4442 0 20.9009C0 9.35765 10.2975 0 23 0C35.7025 0 46 9.35765 46 20.9009Z" fill="#B34840"/>
<ellipse cx="23" cy="22.5" rx="17" ry="16.5" fill="white"/>
<path d="M26.5048 14.312C26.6008 14.456 26.6968 14.72 26.7208 14.984C26.8648 16.088 26.8168 17.288 26.8408 18.416C26.8408 19.712 26.8648 21.008 26.8648 22.304V24.344H27.8968C28.5928 24.344 29.5288 24.656 29.5768 25.496C29.5768 26.504 28.8328 26.816 27.9448 26.864C27.8488 26.864 26.9128 26.936 26.8648 26.84V28.472C26.8648 29.168 26.9368 30.344 26.2408 30.8C25.9528 30.992 25.1368 31.016 24.7768 30.92C24.2008 30.728 24.1048 29.96 24.0568 29.432C24.0328 29.216 24.1048 26.96 23.9608 26.96H19.7368C18.8248 26.96 17.6728 27.056 16.9528 26.504C15.8248 25.64 16.7608 24.368 17.4088 23.528C18.6328 21.896 19.7368 20.168 20.8888 18.512C21.5128 17.648 22.2568 16.88 22.8568 16.016C23.3128 15.344 23.7928 14.552 24.5848 14.168C25.3528 13.808 26.1208 13.76 26.5048 14.312ZM24.1288 24.248V18.632L20.1448 24.248H24.1288Z" fill="#B34840"/>
</svg>
