<svg width="223" height="59" viewBox="0 0 223 59" fill="none" xmlns="http://www.w3.org/2000/svg">
<rect x="1" y="1" width="221" height="57" rx="9" stroke="#B4483E" stroke-width="2"/>
<rect x="6" y="6" width="211" height="47" rx="6" fill="#B4483E"/>
<path d="M39.924 39.604C39.924 40.792 39.888 41.296 39.528 42.412C39.276 43.132 38.736 43.672 37.692 43.672C37.404 43.672 36.828 43.6 36.576 43.42C35.604 42.808 35.568 40.576 35.568 39.856V30.244L33.228 30.136C32.4 30.1 31.248 29.704 31.14 28.264C31.068 27.4 31.14 26.248 32.22 25.744C32.652 25.528 33.408 25.492 33.876 25.528H35.568V18.976C35.568 18.364 35.532 17.68 35.676 17.068C35.748 16.852 35.82 16.636 35.928 16.42C36.216 15.952 36.504 15.7 37.044 15.52C37.26 15.448 37.584 15.412 37.8 15.412C38.592 15.412 39.204 15.808 39.6 16.492C39.96 17.104 39.924 18.832 39.924 19.012C39.96 36.508 39.924 39.604 39.924 39.604ZM45.648 42.664C45.504 42.988 45.288 43.24 44.964 43.456C44.46 43.78 43.992 43.852 43.38 43.708C41.94 43.384 41.796 41.8 41.796 40.576V19.372C41.76 18.292 41.796 16.492 42.444 15.844C42.984 15.376 43.416 15.304 44.064 15.304C44.892 15.304 45.396 15.808 45.684 16.564C46.116 17.572 46.08 18.652 46.116 19.732V19.912C46.224 23.548 46.116 26.86 46.116 30.244V39.244C46.116 40.504 46.116 41.656 45.648 42.664ZM26.928 35.752C26.856 35.824 25.02 38.344 24.948 38.416C24.588 38.92 24.228 39.46 23.832 39.928C23.76 40.036 23.652 40.18 23.58 40.288C22.932 41.08 22.248 41.98 21.276 42.34C21.06 42.448 20.88 42.484 20.628 42.484C20.16 42.484 19.872 42.232 19.512 41.836C19.152 41.44 18.936 40.9 18.936 40.324C18.972 39.46 19.44 38.668 19.8 38.02C20.124 37.768 23.868 31.072 24.372 30.46C24.66 29.92 24.84 29.452 24.876 28.948C24.948 28.192 24.948 27.472 24.948 26.608V20.236C24.948 19.768 24.948 19.336 24.984 18.868C24.984 18.364 25.092 17.788 25.2 17.356C25.308 17.068 25.488 16.708 25.632 16.42C25.848 16.06 26.316 15.88 26.784 15.772L26.856 15.736C27.216 15.628 27.432 15.664 27.792 15.808C27.972 15.88 28.152 15.988 28.296 16.132C28.476 16.312 28.62 16.672 28.764 17.068C28.944 17.536 29.088 18.148 29.124 18.832C29.304 20.848 29.34 23.62 29.34 25.636C29.376 26.86 29.376 28.12 29.448 29.308C29.484 30.352 30.06 31.252 30.528 32.152C30.996 33.196 31.536 34.348 32.076 35.356C32.22 35.68 33.336 37.768 33.444 38.02L33.516 38.308L33.624 38.524C33.768 38.776 33.876 39.028 33.948 39.352C34.092 39.856 34.2 40.504 33.876 41.188C33.552 41.908 33.048 42.34 32.436 42.376H32.4C31.644 42.376 31.104 41.692 30.456 40.9C29.808 40.144 29.124 38.992 28.656 38.308C27.576 36.472 26.964 35.824 26.928 35.752ZM57.2428 39.28C57.2428 37.12 57.2068 36.184 57.2068 24.52C57.2068 23.728 57.2428 22.972 57.1348 22.18C56.9908 21.316 56.8108 21.172 55.9468 21.172C53.8588 21.136 52.7788 21.172 50.9068 21.172C49.2148 21.172 48.3868 20.236 48.3868 18.832C48.3868 16.708 50.9428 16.6 53.1028 16.6H57.8908C58.1428 16.6 58.3948 16.636 58.6468 16.636C59.2588 16.672 59.7628 16.78 60.3388 16.996C60.6988 17.14 61.1308 17.392 61.3468 17.716C61.8148 18.4 61.7788 18.904 61.8508 19.696C61.8868 20.452 61.9228 21.928 61.9228 22.684C62.2828 22.648 62.6428 22.648 62.9308 22.648H65.6668V19.012C65.6668 18.4 65.6308 17.716 65.7748 17.104C65.8468 16.888 65.9188 16.672 66.0268 16.456C66.3148 15.988 66.5308 15.736 67.0708 15.556C67.2868 15.484 67.5028 15.448 67.7188 15.448C68.5108 15.448 69.1228 15.844 69.5188 16.528C69.8788 17.14 69.8788 18.868 69.8788 19.048C69.9148 36.544 69.8428 39.964 69.8428 39.964C69.8428 41.152 69.8068 41.656 69.4468 42.772C69.1948 43.492 68.6548 44.032 67.6108 44.032C67.3228 44.032 66.9268 43.96 66.6748 43.78C65.7028 43.168 65.6668 40.936 65.6668 40.216V35.968L62.2828 35.896C62.1748 35.896 62.0308 35.896 61.9228 35.86C61.9228 35.968 61.9948 38.2 61.9228 39.748C61.7788 41.476 60.8068 42.628 59.1508 42.628C57.3868 42.628 57.2428 40.648 57.2428 39.28ZM76.2148 19.768C76.3228 23.368 76.2148 27.22 76.2148 30.604V39.604C76.2148 40.864 76.2148 42.016 75.7468 43.024C75.6028 43.348 75.3868 43.6 75.0628 43.816C74.5588 44.14 74.2348 44.212 73.6228 44.068C72.1828 43.744 71.9308 42.16 71.9308 40.936V19.408C71.8948 18.328 71.8948 16.528 72.5428 15.88C73.0828 15.412 73.6588 15.34 74.3068 15.34C76.2508 15.34 76.1788 18.472 76.2148 19.768ZM65.6668 26.968L62.2828 26.896C62.1748 26.896 62.0308 26.896 61.9228 26.86V31.756C62.2828 31.72 62.6428 31.72 62.9308 31.72H65.6668V26.968ZM91.3016 25.852C91.2296 25.852 91.1936 25.816 91.1936 25.78C90.7256 25.42 90.5816 24.52 90.5816 23.98C90.5456 23.116 90.4376 22.252 90.4376 21.424C90.4376 20.2 90.4016 18.724 90.6176 17.536C90.7616 16.78 91.0496 16.348 91.7696 16.06C92.4176 15.808 93.1016 15.736 93.7856 15.664C94.6136 15.592 95.4776 15.664 96.3416 15.664H103.182C105.63 15.664 105.306 15.664 107.718 15.628C108.15 15.628 108.546 15.628 108.978 15.664C109.878 15.7 110.886 15.736 111.714 16.132C112.65 16.528 112.938 17.536 112.974 18.472C113.046 19.552 112.938 20.92 112.938 22C112.902 22.972 112.938 23.944 112.686 24.88C112.542 25.42 112.434 25.852 111.858 26.032C111.354 26.212 110.706 26.248 110.202 26.248H94.6496C94.1816 26.248 93.7136 26.212 93.2456 26.176C92.6336 26.14 91.8416 26.212 91.3016 25.852ZM111.282 32.728C108.906 32.8 107.034 32.872 104.622 32.872C104.586 33.88 104.514 34.816 104.514 36.184C104.298 37.192 102.966 37.804 101.994 37.768C100.554 37.696 99.7616 37.12 99.6176 35.68C99.5096 34.744 99.6536 33.736 99.6536 32.8C97.4576 32.8 91.6976 32.728 89.6816 32.584C88.9256 32.512 88.5656 32.476 87.9536 31.9C87.6296 31.612 87.4856 31.072 87.4856 30.568C87.4856 30.1 87.6656 29.632 87.9536 29.344C88.6736 28.588 90.4376 28.624 90.5096 28.624H111.102C111.822 28.624 112.542 28.624 113.226 28.66C113.874 28.696 114.594 28.804 115.098 29.272C115.602 29.668 115.602 30.136 115.602 30.712C115.602 31.432 115.17 32.044 114.45 32.296C113.478 32.656 112.29 32.692 111.282 32.728ZM112.29 39.532C112.362 39.568 113.694 39.892 113.838 40.9C113.982 41.8 113.838 42.52 113.406 43.024C112.866 43.708 112.074 43.744 112.038 43.744H92.3816C90.5456 43.744 89.4296 43.096 89.4296 42.016V38.812C89.3936 38.272 89.3936 37.732 89.4296 37.192C89.5016 36.184 90.2576 35.5 91.2656 35.5C91.5176 35.5 92.0216 35.536 92.2376 35.608C93.4616 36.004 93.5336 37.228 93.6056 38.308C93.6056 38.704 93.6416 39.136 93.7496 39.46C93.8576 39.496 94.5776 39.604 96.2696 39.604C97.7096 39.604 99.0416 39.532 99.0776 39.532H112.29ZM94.7216 21.64C94.7216 21.856 94.7216 22.108 94.8296 22.216C95.0456 22.396 95.8736 22.288 95.8736 22.288H105.342C105.342 22.288 107.07 22.432 107.934 22.324C108.438 22.288 108.438 22.072 108.51 21.64C108.546 21.244 108.618 20.416 108.33 20.056C108.006 19.66 107.25 19.732 106.818 19.768H103.542C103.218 19.732 98.8616 19.768 98.5376 19.768C97.5296 19.696 96.5216 19.732 95.4776 19.768C95.0456 19.768 94.9016 19.696 94.7936 20.128C94.7216 20.452 94.7216 21.028 94.7216 21.316V21.64ZM120.292 37.048C120.472 36.976 123.784 37.12 124.396 37.12C124.432 36.544 124.504 34.168 124.576 32.98C124.144 32.872 123.748 32.764 123.352 32.584C120.652 31.468 118.564 29.272 118.564 26.104C118.564 24.376 119.068 23.044 119.896 22H119.5C118.348 22 117.376 21.136 117.376 20.092C117.376 19.012 118.348 18.148 119.5 18.148H124.252V16.672C124.252 15.736 125.188 15.052 126.34 15.052C127.528 15.052 128.464 15.736 128.464 16.672V18.148H133.432C134.62 18.148 135.592 19.012 135.592 20.092C135.592 21.136 134.62 22 133.432 22H133.324C134.152 23.044 134.692 24.376 134.692 26.104C134.692 28.336 133.612 30.172 131.812 31.54C130.912 32.188 129.904 32.656 128.86 32.944C128.932 34.06 128.932 36.544 128.932 37.084V37.12H133.72C134.512 37.12 135.16 37.264 135.628 37.552C136.708 38.2 136.672 39.964 136.204 40.828C135.772 41.584 134.836 41.656 134.08 41.656H119.86C119.824 41.656 118.6 41.548 117.952 41.26C117.484 41.008 117.124 40.468 117.016 39.784C116.908 39.028 117.16 38.308 117.628 37.876C118.492 37.156 119.464 37.048 120.292 37.048ZM144.16 27.364H144.232C144.484 27.328 144.7 27.4 144.916 27.4C145.204 27.436 145.456 27.472 145.744 27.508C146.284 27.616 146.86 27.832 147.148 28.372C147.292 28.66 147.364 28.984 147.364 29.344C147.364 29.668 147.364 30.028 147.292 30.352C147.184 30.712 147.076 31.216 146.788 31.468C146.5 31.684 146.14 31.864 145.78 31.936C145.024 32.044 143.728 31.936 142.972 31.972C142.9 32.008 142.864 32.008 142.864 32.008C142.864 32.008 142.864 32.044 142.828 32.152C142.792 33.34 142.828 34.384 142.828 35.608C142.864 36.832 142.864 38.092 142.828 39.28V39.784C142.828 41.044 142.864 42.88 142 43.78C141.676 44.068 141.28 44.248 140.812 44.248H140.74C138.4 44.14 138.184 41.332 138.184 39.82V18.436C138.184 18.364 138.112 16.564 138.904 15.772C139.264 15.448 140.02 15.268 140.524 15.268C141.064 15.268 141.568 15.484 141.892 15.808C142.504 16.492 142.576 17.248 142.612 18.04C142.648 18.184 142.648 18.328 142.684 18.508C142.756 19.264 142.756 20.164 142.792 21.028C142.792 21.568 142.828 22.072 142.828 22.576V26.464C142.828 26.716 142.828 27.004 142.9 27.256C142.9 27.292 143.62 27.292 143.692 27.328C143.836 27.328 144.016 27.364 144.16 27.364ZM127.312 28.984C128.86 28.696 130.192 27.94 130.192 26.104C130.192 23.98 128.428 23.188 126.664 23.152C124.864 23.08 123.064 23.836 123.064 26.104C123.064 28.696 125.332 29.38 127.312 28.984ZM168.335 16.276C169.199 16.636 170.531 17.428 171.179 18.292C173.051 20.704 173.123 22.936 172.835 24.988C172.439 28.948 168.911 31.18 163.151 31.18C160.091 31.18 155.735 31.396 153.035 29.812C150.407 28.3 149.615 25.744 149.615 23.08C149.615 20.524 150.587 18.508 152.963 16.888C154.979 15.52 160.163 14.872 162.575 15.052C164.807 15.196 166.391 15.484 168.335 16.276ZM170.747 33.736C172.259 33.664 174.347 33.88 174.347 35.86C174.347 38.236 171.323 38.056 169.739 38.092C169.523 38.092 169.307 38.128 169.091 38.128C169.127 39.532 169.199 41.188 169.055 42.376C168.911 43.276 168.623 44.176 167.831 44.716C167.111 45.184 166.031 45.184 165.275 44.752C164.663 44.392 164.375 43.564 164.231 42.88C164.159 42.376 164.231 41.692 164.195 41.152V38.128L157.967 38.092C158.003 39.568 158.111 41.08 157.931 42.34C157.787 43.24 157.499 44.14 156.707 44.68C155.987 45.148 154.907 45.148 154.151 44.716C153.539 44.356 153.251 43.528 153.107 42.844C153.035 42.34 153.107 41.656 153.071 41.116V38.092L150.911 38.02C149.795 38.02 148.715 37.912 148.139 36.976C147.599 36.184 147.599 35.104 148.283 34.384C149.003 33.628 150.803 33.664 150.875 33.664L170.747 33.736ZM167.363 25.42C168.011 23.296 167.795 20.452 164.087 20.056C161.387 19.732 155.303 19.12 154.727 22.684C154.403 24.772 155.339 26.572 158.831 26.896C161.387 27.148 166.031 27.652 167.363 25.42ZM176.482 31.54C176.158 31.396 175.906 31.108 175.762 30.712C174.97 28.768 177.166 26.896 178.246 25.6C179.074 24.592 179.83 23.584 180.622 22.54C181.198 21.748 181.99 20.524 182.062 19.48C182.098 18.904 182.17 17.5 182.314 16.96C182.602 16.024 183.178 15.7 184.51 15.7C185.266 15.7 186.454 15.916 186.778 16.672C187.138 17.536 186.778 18.796 187.066 19.696C187.282 20.416 187.858 21.208 188.362 21.964C189.262 23.26 190.234 24.952 190.99 25.996C191.746 27.004 192.574 28.084 192.826 29.308C193.294 31.396 190.63 32.224 189.298 30.856C187.534 29.056 186.202 26.824 184.654 24.844C184.618 24.808 180.442 29.884 180.082 30.316C179.578 30.928 178.858 31.468 178.066 31.648C177.526 31.756 176.95 31.756 176.482 31.54ZM182.026 44.068C180.082 44.068 178.75 43.06 178.75 41.98V36.796C178.714 36.256 178.714 35.716 178.75 35.176C178.858 34.168 179.614 33.484 180.694 33.484C180.946 33.484 181.738 33.52 181.99 33.592C183.25 33.988 183.322 35.212 183.394 36.292C183.43 36.688 183.466 39.46 183.538 39.784C183.682 39.82 184.186 39.928 185.95 39.928C187.498 39.928 187.642 39.856 187.678 39.856H199.45C199.486 39.892 200.926 40.216 201.07 41.224C201.178 42.124 201.034 42.844 200.602 43.348C200.026 44.032 199.162 44.068 199.126 44.068H182.026ZM201.142 26.716H200.314V30.46C200.278 30.964 200.206 31.54 199.918 32.08C199.774 32.368 199.558 32.62 199.306 32.764C198.946 33.016 198.514 33.16 198.082 33.16C197.722 33.16 197.362 33.052 197.074 32.872C196.102 32.296 195.958 31 195.958 30.964V18.328C195.958 18.112 195.994 17.032 196.282 16.456C196.498 15.988 197.038 15.664 197.758 15.592C198.55 15.484 199.342 15.7 199.738 16.132C200.026 16.492 200.098 16.852 200.206 17.248C200.35 17.716 200.35 18.292 200.314 18.796V22.684C200.71 22.72 202.69 22.792 203.086 22.9C204.022 23.08 204.346 23.44 204.49 23.98C204.598 24.484 204.634 25.312 204.346 25.78C203.77 26.716 202.546 26.716 201.142 26.716Z" fill="white"/>
</svg>
