<svg width="46" height="58" viewBox="0 0 46 58" fill="none" xmlns="http://www.w3.org/2000/svg">
<path d="M46 20.9009C46 32.4442 42.1667 40.3281 23 58C3.83333 40.3281 0 32.4442 0 20.9009C0 9.35765 10.2975 0 23 0C35.7025 0 46 9.35765 46 20.9009Z" fill="#B34840"/>
<ellipse cx="23" cy="22.5" rx="17" ry="16.5" fill="white"/>
<path d="M23.0584 14.736C23.2744 14.688 23.4664 14.616 23.6584 14.592C24.1384 14.472 25.0264 14.472 25.2904 15.024C25.5544 15.672 25.4344 16.8 25.4344 17.496V29.76C25.4344 30.432 25.6024 31.344 24.9304 31.824C24.4744 32.184 23.5864 32.16 23.0584 31.968C22.4824 31.776 22.4584 31.128 22.4584 30.6C22.2424 26.4 22.3144 22.416 22.3144 18.144C22.2184 18.432 20.5624 18.696 20.2984 18.696C19.4584 18.792 18.6664 18.6 18.5704 17.616C18.4504 16.608 19.1224 16.056 20.0584 15.768C21.0664 15.432 22.0504 15.024 23.0584 14.736Z" fill="#B34840"/>
</svg>
