<svg width="217" height="37" viewBox="0 0 217 37" fill="none" xmlns="http://www.w3.org/2000/svg">
<rect width="217" height="37" rx="10" fill="#41674B"/>
<path d="M20.048 11.608V15.496H22.592V10.424H24.624V25.304H22.592V17.24H20.048V21.464H12.832V11.608H14.832V14.952H18.048V11.608H20.048ZM14.832 16.68V19.768H18.048V16.68H14.832ZM38.0856 10.888V12.52H30.3256V13.464H37.9576V15.064H30.3256V16.024H38.2456V17.656H28.3416V10.888H38.0856ZM26.4696 18.712H40.1016V20.36H26.4696V18.712ZM30.4056 21.112V23.464H38.5016V25.16H28.3896V21.112H30.4056ZM52.8593 10.424V15.752H54.9233V17.512H52.8593V25.304H50.8593V10.424H52.8593ZM40.9233 22.088V20.344H43.4353V16.088H45.4353V20.312C47.5313 20.28 48.9553 20.2 50.1233 20.072L50.2673 21.8C48.5073 22.024 45.7873 22.088 40.9233 22.088ZM41.6273 11.8H49.1633V14.12C49.1633 15.448 49.0833 17.192 48.8113 18.616L46.8273 18.376C47.0993 16.936 47.1793 15.512 47.1793 14.408V13.544H41.6273V11.8ZM67.6809 11.144V14.168H70.2569V10.424H72.2729V21.016H70.2569V15.88H67.6809V18.84H60.5609V11.144H62.5449V13.48H65.6969V11.144H67.6809ZM64.8329 20.28V23.416H72.5129V25.144H62.8009V20.28H64.8329ZM62.5449 15.176V17.144H65.6969V15.176H62.5449ZM74.3265 21.736H80.1345V20.44C78.0225 20.2 76.5665 19.224 76.5665 17.704V17.096C76.5665 15.352 78.5185 14.312 81.1425 14.312C83.7665 14.312 85.7185 15.352 85.7185 17.096V17.704C85.7185 19.224 84.2465 20.2 82.1505 20.44V21.736H87.9585V23.432H74.3265V21.736ZM82.1665 10.264V12.008H86.6945V13.704H75.5905V12.008H80.1185V10.264H82.1665ZM81.1425 15.96C79.4785 15.96 78.5185 16.568 78.5185 17.192V17.608C78.5185 18.232 79.4785 18.84 81.1425 18.84C82.8065 18.84 83.7665 18.232 83.7665 17.608V17.192C83.7665 16.568 82.8065 15.96 81.1425 15.96ZM90.5241 19.496H100.46V23.192H92.5561V23.928H100.892V25.448H90.6041V21.736H98.5081V21.016H90.5241V19.496ZM88.7321 17.256H102.364V18.792H88.7321V17.256ZM100.636 16.552H90.6361V12.888H98.4281V12.216H90.5881V10.696H100.38V14.344H92.5881V15.032H100.636V16.552ZM109.65 10.792H119.538V13.032C119.538 13.96 119.442 15.368 119.282 16.376H121.41V17.928H107.778V16.376H117.298C117.378 15.992 117.426 15.592 117.458 15.176L109.522 15.32L109.474 13.688L117.554 13.56V12.456H109.65V10.792ZM109.57 19H119.506V22.936H111.602V23.912H119.938V25.432H109.65V21.48H117.554V20.52H109.57V19ZM124.695 21.912V20.216H134.551V25.496H132.535V21.912H124.695ZM134.551 10.424V19.544H132.535V10.424H134.551ZM125.031 15.8V17.208C127.271 17.208 129.207 17.176 131.223 16.984L131.399 18.648C129.495 18.856 127.127 18.888 123.047 18.888V14.184H127.879V12.776H123.047V11.096H129.863V15.8H125.031ZM146.477 10.728V15.8H147.741V10.424H149.661V25.304H147.741V17.544H146.477V24.584H144.557V10.728H146.477ZM140.333 21.624C138.189 21.624 137.021 20.168 137.021 18.728V17.96C137.021 16.52 138.189 15.064 140.333 15.064C142.477 15.064 143.645 16.52 143.645 17.96V18.728C143.645 20.168 142.477 21.624 140.333 21.624ZM136.509 12.824H139.325V10.84H141.293V12.824H143.821V14.488H136.509V12.824ZM140.333 16.68C139.293 16.68 138.781 17.48 138.781 18.072V18.616C138.781 19.208 139.293 20.008 140.333 20.008C141.373 20.008 141.885 19.208 141.885 18.616V18.072C141.885 17.48 141.373 16.68 140.333 16.68ZM167.427 19.288H163.459V21.72H169.267V23.432H155.635V21.72H161.443V19.288H157.475V11.448H159.491V13.832H165.411V11.448H167.427V19.288ZM159.491 17.592H165.411V15.544H159.491V17.592ZM178.072 24.584V16.792H176.072V15.032H178.072V10.728H179.992V24.584H178.072ZM172.68 15.192V11.608H174.68V15.192C174.68 16.408 174.968 17.064 175.64 17.896C176.232 18.632 176.984 19.448 177.72 20.184L176.392 21.416C175.704 20.712 175.096 20.056 174.616 19.496C174.136 18.936 173.88 18.6 173.784 18.376H173.768C173.688 18.6 173.336 19.096 172.936 19.56C172.504 20.056 171.688 20.968 170.968 21.672L169.608 20.36C170.296 19.688 171.096 18.824 171.704 18.056C172.456 17.096 172.68 16.472 172.68 15.192ZM183.016 10.424V25.304H181.096V10.424H183.016ZM184.446 21.736H187.646V18.376C186.718 17.72 186.158 16.76 186.158 15.624V14.888C186.158 12.632 188.35 11.128 191.262 11.128C194.174 11.128 196.366 12.632 196.366 14.888V15.624C196.366 16.776 195.806 17.72 194.878 18.376V21.736H198.078V23.432H184.446V21.736ZM191.262 12.824C189.598 12.824 188.142 13.688 188.142 15V15.512C188.142 16.824 189.598 17.688 191.262 17.688C192.926 17.688 194.382 16.824 194.382 15.512V15C194.382 13.688 192.926 12.824 191.262 12.824ZM191.262 19.384C190.686 19.384 190.142 19.32 189.63 19.208V21.736H192.894V19.208C192.382 19.32 191.838 19.384 191.262 19.384ZM200.516 24.152V22.072H202.548V24.152H200.516Z" fill="#CDEED3"/>
</svg>
