<svg width="115" height="38" viewBox="0 0 115 38" fill="none" xmlns="http://www.w3.org/2000/svg">
<path d="M11.32 16.72H37.16V20.32H11.32V16.72ZM13.36 6.44H35.24V10.04H13.36V6.44ZM22.16 0.239998H26.04V19.28H22.16V0.239998ZM11.36 31.8C13.1733 31.72 15.28 31.6267 17.68 31.52C20.08 31.3867 22.64 31.24 25.36 31.08C28.08 30.92 30.7867 30.76 33.48 30.6L33.44 34.04C30.88 34.2533 28.2933 34.4533 25.68 34.64C23.0933 34.8267 20.6133 35 18.24 35.16C15.8933 35.3467 13.7733 35.5067 11.88 35.64L11.36 31.8ZM27.12 25.52L30.4 23.8C31.4133 24.9733 32.4133 26.2533 33.4 27.64C34.3867 29.0267 35.28 30.4 36.08 31.76C36.9067 33.0933 37.5333 34.32 37.96 35.44L34.4 37.4C34 36.3333 33.4133 35.1067 32.64 33.72C31.8667 32.3333 31 30.9333 30.04 29.52C29.08 28.08 28.1067 26.7467 27.12 25.52ZM19.28 19.16L23.44 20.32C22.8533 21.84 22.2133 23.4267 21.52 25.08C20.8533 26.7333 20.16 28.3333 19.44 29.88C18.72 31.4 18.04 32.7333 17.4 33.88L14.04 32.76C14.52 31.8533 15 30.84 15.48 29.72C15.9867 28.5733 16.4667 27.4 16.92 26.2C17.4 24.9733 17.84 23.76 18.24 22.56C18.64 21.36 18.9867 20.2267 19.28 19.16ZM2.56 3.24L4.64 0.439998C5.54667 0.786665 6.49333 1.18667 7.48 1.64C8.46667 2.09333 9.4 2.57333 10.28 3.08C11.16 3.58667 11.88 4.08 12.44 4.56L10.24 7.68C9.70667 7.2 9.01333 6.69333 8.16 6.16C7.30667 5.6 6.38667 5.06667 5.4 4.56C4.41333 4.05333 3.46667 3.61333 2.56 3.24ZM0.36 14.24L2.32 11.32C3.22667 11.6133 4.17333 11.9733 5.16 12.4C6.14667 12.8267 7.09333 13.2667 8 13.72C8.90667 14.1733 9.65333 14.6267 10.24 15.08L8.16 18.24C7.6 17.8133 6.88 17.36 6 16.88C5.14667 16.3733 4.22667 15.8933 3.24 15.44C2.25333 14.96 1.29333 14.56 0.36 14.24ZM1.64 34.4C2.33333 33.36 3.09333 32.1467 3.92 30.76C4.74667 29.3467 5.58667 27.8533 6.44 26.28C7.29333 24.68 8.08 23.1333 8.8 21.64L11.64 24.04C11 25.4267 10.2933 26.8667 9.52 28.36C8.77333 29.8533 8 31.3333 7.2 32.8C6.42667 34.24 5.66667 35.5867 4.92 36.84L1.64 34.4ZM59.16 3.36H70.6V6.32H59.16V3.36ZM56.72 21.36H74.36V24.32H56.72V21.36ZM52.16 33.56H76.16V36.64H52.16V33.56ZM55.76 27.44H73.68V30.36H55.76V27.44ZM69.84 3.36H70.52L71.16 3.24L73.44 4.28C72.6133 6.36 71.52 8.24 70.16 9.92C68.8267 11.5733 67.2933 13.04 65.56 14.32C63.8533 15.5733 62 16.6533 60 17.56C58.0267 18.44 55.9867 19.16 53.88 19.72C53.6933 19.2667 53.4133 18.7467 53.04 18.16C52.6933 17.5467 52.36 17.0667 52.04 16.72C53.9867 16.2667 55.8667 15.6667 57.68 14.92C59.52 14.1467 61.2267 13.2267 62.8 12.16C64.4 11.0667 65.8 9.84 67 8.48C68.2267 7.09333 69.1733 5.57333 69.84 3.92V3.36ZM59.88 5.52C60.8667 7.25333 62.2 8.84 63.88 10.28C65.56 11.6933 67.48 12.9067 69.64 13.92C71.8267 14.9067 74.1867 15.6533 76.72 16.16C76.32 16.5333 75.9067 17.0267 75.48 17.64C75.0533 18.2267 74.7067 18.7467 74.44 19.2C71.8533 18.56 69.44 17.6533 67.2 16.48C64.9867 15.28 63 13.8533 61.24 12.2C59.5067 10.52 58.0533 8.64 56.88 6.56L59.88 5.52ZM60.4 0.239998L64 0.839998C63.0133 2.89333 61.7333 4.94667 60.16 7C58.5867 9.02667 56.64 10.88 54.32 12.56C54.16 12.2933 53.9333 12 53.64 11.68C53.3733 11.36 53.08 11.0667 52.76 10.8C52.44 10.5067 52.1467 10.28 51.88 10.12C53.2933 9.18667 54.5467 8.16 55.64 7.04C56.7333 5.92 57.68 4.77333 58.48 3.6C59.28 2.42667 59.92 1.30667 60.4 0.239998ZM56.8 17.96L60 18.72C59.4667 20.48 58.7333 22.1867 57.8 23.84C56.8933 25.4667 55.92 26.84 54.88 27.96C54.6667 27.7467 54.4 27.52 54.08 27.28C53.76 27.04 53.4267 26.8 53.08 26.56C52.76 26.32 52.4667 26.1333 52.2 26C53.2133 24.9867 54.12 23.7733 54.92 22.36C55.72 20.9467 56.3467 19.48 56.8 17.96ZM62.72 17.88H66.32V35.16H62.72V17.88ZM40.88 1.96H50.28V5.36H44.2V37.4H40.88V1.96ZM49.16 1.96H49.76L50.32 1.8L52.8 3.24C52.4267 4.36 52.0267 5.56 51.6 6.84C51.1733 8.09333 50.7333 9.33333 50.28 10.56C49.8533 11.7867 49.4267 12.9333 49 14C50.36 15.6 51.2533 17.0933 51.68 18.48C52.1067 19.8667 52.32 21.1733 52.32 22.4C52.32 23.5467 52.1867 24.5333 51.92 25.36C51.68 26.1867 51.2533 26.8133 50.64 27.24C50.3467 27.4533 50.0133 27.6267 49.64 27.76C49.2933 27.8667 48.9067 27.96 48.48 28.04C47.7067 28.12 46.8267 28.1333 45.84 28.08C45.8133 27.6267 45.72 27.0933 45.56 26.48C45.4267 25.84 45.2267 25.2933 44.96 24.84C45.36 24.8667 45.7333 24.88 46.08 24.88C46.4267 24.88 46.7467 24.88 47.04 24.88C47.5467 24.8533 47.9467 24.7333 48.24 24.52C48.5067 24.3067 48.6933 23.9733 48.8 23.52C48.9067 23.0667 48.96 22.5467 48.96 21.96C48.96 20.9467 48.7467 19.8 48.32 18.52C47.8933 17.24 47.0267 15.8667 45.72 14.4C46.0667 13.4933 46.4 12.52 46.72 11.48C47.04 10.44 47.3467 9.4 47.64 8.36C47.96 7.29333 48.24 6.30666 48.48 5.4C48.7467 4.46666 48.9733 3.68 49.16 3.04V1.96ZM82 4.8H111.76V8.4H82V4.8ZM79.4 21.16H113.96V24.76H79.4V21.16ZM78.48 13H114.72V16.6H78.48V13ZM94.44 0.159999H98.4V14.08H94.44V0.159999ZM101.68 16.36H105.6V32.92C105.6 33.9867 105.453 34.8133 105.16 35.4C104.867 35.9867 104.32 36.4267 103.52 36.72C102.747 37.0133 101.747 37.1867 100.52 37.24C99.2933 37.32 97.8 37.36 96.04 37.36C95.9867 36.8 95.8267 36.16 95.56 35.44C95.2933 34.72 95.0267 34.1067 94.76 33.6C95.6133 33.6267 96.44 33.64 97.24 33.64C98.0667 33.64 98.7867 33.64 99.4 33.64C100.013 33.64 100.44 33.64 100.68 33.64C101.08 33.6133 101.347 33.5467 101.48 33.44C101.613 33.3333 101.68 33.1333 101.68 32.84V16.36ZM84.28 26.96L87.56 24.92C88.3067 25.5867 89.08 26.32 89.88 27.12C90.68 27.8933 91.4 28.68 92.04 29.48C92.7067 30.28 93.2267 31.0267 93.6 31.72L90.08 33.96C89.76 33.2667 89.28 32.52 88.64 31.72C88 30.8933 87.3067 30.0667 86.56 29.24C85.8133 28.3867 85.0533 27.6267 84.28 26.96Z" fill="#E22F61"/>
</svg>
