<svg width="228" height="80" viewBox="0 0 228 80" fill="none" xmlns="http://www.w3.org/2000/svg">
<path d="M77.08 3.84H112.32V7.36H77.08V3.84ZM92.52 0.239998H96.48V37.36H92.52V0.239998ZM91.48 23.12L94.68 24.48C93.7467 25.7867 92.6667 27.0533 91.44 28.28C90.2133 29.48 88.8933 30.6133 87.48 31.68C86.0667 32.7467 84.6133 33.7067 83.12 34.56C81.6267 35.44 80.1333 36.1867 78.64 36.8C78.4533 36.48 78.2 36.12 77.88 35.72C77.5867 35.3467 77.2667 34.96 76.92 34.56C76.6 34.1867 76.3067 33.88 76.04 33.64C77.48 33.1333 78.9333 32.5067 80.4 31.76C81.8933 31.0133 83.3333 30.1733 84.72 29.24C86.1067 28.3067 87.3733 27.32 88.52 26.28C89.6667 25.24 90.6533 24.1867 91.48 23.12ZM97.6 23.24C98.4533 24.3067 99.4667 25.3467 100.64 26.36C101.84 27.3733 103.133 28.3467 104.52 29.28C105.907 30.2133 107.347 31.0533 108.84 31.8C110.333 32.52 111.827 33.12 113.32 33.6C113.027 33.8667 112.707 34.1867 112.36 34.56C112.013 34.96 111.68 35.36 111.36 35.76C111.067 36.16 110.813 36.5333 110.6 36.88C109.133 36.2667 107.64 35.52 106.12 34.64C104.627 33.7867 103.16 32.8267 101.72 31.76C100.307 30.6667 98.9867 29.52 97.76 28.32C96.56 27.0933 95.48 25.8533 94.52 24.6L97.6 23.24ZM84.24 19.12V22.36H105.24V19.12H84.24ZM84.24 13.16V16.36H105.24V13.16H84.24ZM80.52 10.28H109.08V25.28H80.52V10.28ZM115.84 4.52H150.96V8.16H115.84V4.52ZM131.28 0.199999H135.32V6.36H131.28V0.199999ZM124.36 14.72V20.44H142.52V14.72H124.36ZM120.6 11.44H146.52V23.76H120.6V11.44ZM140.56 27.4L144 25.72C144.88 26.6 145.787 27.56 146.72 28.6C147.68 29.6133 148.587 30.6267 149.44 31.64C150.293 32.6267 150.987 33.52 151.52 34.32L147.8 36.24C147.347 35.44 146.707 34.5333 145.88 33.52C145.08 32.48 144.213 31.4267 143.28 30.36C142.347 29.2667 141.44 28.28 140.56 27.4ZM131.36 22.36H135.32V33.2C135.32 34.2133 135.187 35 134.92 35.56C134.653 36.12 134.12 36.5333 133.32 36.8C132.547 37.0667 131.56 37.2267 130.36 37.28C129.187 37.3333 127.747 37.36 126.04 37.36C125.96 36.8267 125.8 36.2267 125.56 35.56C125.32 34.8933 125.067 34.2933 124.8 33.76C125.627 33.7867 126.427 33.8133 127.2 33.84C127.973 33.84 128.653 33.84 129.24 33.84C129.827 33.8133 130.227 33.8 130.44 33.8C130.813 33.8 131.053 33.76 131.16 33.68C131.293 33.5733 131.36 33.3867 131.36 33.12V22.36ZM122.04 25.72L125.88 26.96C125.24 28 124.48 29.08 123.6 30.2C122.747 31.2933 121.84 32.3333 120.88 33.32C119.92 34.28 118.96 35.1467 118 35.92C117.6 35.5467 117.093 35.1467 116.48 34.72C115.893 34.2933 115.373 33.9467 114.92 33.68C115.88 33.0133 116.813 32.24 117.72 31.36C118.627 30.4533 119.453 29.5067 120.2 28.52C120.947 27.5333 121.56 26.6 122.04 25.72ZM29.6 51.08C29.44 51.2667 29.24 51.5733 29 52C28.76 52.4267 28.5733 52.8133 28.44 53.16C27.88 54.44 27.1867 55.8667 26.36 57.44C25.56 59.0133 24.64 60.5867 23.6 62.16C22.5867 63.7067 21.52 65.12 20.4 66.4C18.9333 68.08 17.3067 69.72 15.52 71.32C13.76 72.92 11.8933 74.4 9.92 75.76C7.94667 77.0933 5.90667 78.2533 3.8 79.24L0.56 75.84C2.72 74.9867 4.8 73.9333 6.8 72.68C8.82667 71.4267 10.7067 70.0533 12.44 68.56C14.1733 67.0667 15.6933 65.5867 17 64.12C17.9067 63.1067 18.7867 61.9867 19.64 60.76C20.4933 59.5067 21.2533 58.2533 21.92 57C22.5867 55.7467 23.0667 54.6 23.36 53.56C23.12 53.56 22.6267 53.56 21.88 53.56C21.1333 53.56 20.24 53.56 19.2 53.56C18.1867 53.56 17.12 53.56 16 53.56C14.9067 53.56 13.84 53.56 12.8 53.56C11.7867 53.56 10.9067 53.56 10.16 53.56C9.41333 53.56 8.92 53.56 8.68 53.56C8.17333 53.56 7.61333 53.5867 7 53.64C6.41333 53.6667 5.86667 53.7067 5.36 53.76C4.88 53.7867 4.53333 53.8 4.32 53.8V49.28C4.58667 49.3067 4.98667 49.3467 5.52 49.4C6.05333 49.4267 6.61333 49.4667 7.2 49.52C7.78667 49.5467 8.28 49.56 8.68 49.56C8.97333 49.56 9.49333 49.56 10.24 49.56C11.0133 49.56 11.9067 49.56 12.92 49.56C13.96 49.56 15.04 49.56 16.16 49.56C17.28 49.56 18.3467 49.56 19.36 49.56C20.3733 49.56 21.2533 49.56 22 49.56C22.7467 49.56 23.2533 49.56 23.52 49.56C24.2667 49.56 24.9467 49.52 25.56 49.44C26.1733 49.36 26.6533 49.2667 27 49.16L29.6 51.08ZM20.92 63.76C21.9867 64.64 23.1067 65.6267 24.28 66.72C25.4533 67.8133 26.6 68.9467 27.72 70.12C28.84 71.2667 29.88 72.3733 30.84 73.44C31.8267 74.5067 32.6533 75.4533 33.32 76.28L29.8 79.4C28.8133 78.0667 27.68 76.6667 26.4 75.2C25.12 73.7333 23.76 72.2667 22.32 70.8C20.88 69.3067 19.44 67.92 18 66.64L20.92 63.76ZM56.52 46.28C56.4933 46.7333 56.4533 47.2933 56.4 47.96C56.3733 48.6 56.3467 49.16 56.32 49.64C56.1867 53.6933 55.8267 57.2533 55.24 60.32C54.6533 63.36 53.8267 66.0533 52.76 68.4C51.72 70.72 50.4133 72.7733 48.84 74.56C47.2933 76.32 45.48 77.9333 43.4 79.4L39.72 76.4C40.44 76.0267 41.2133 75.5467 42.04 74.96C42.8667 74.3733 43.6267 73.7333 44.32 73.04C45.6 71.84 46.72 70.4933 47.68 69C48.64 67.5067 49.44 65.84 50.08 64C50.7467 62.1333 51.2533 60.0267 51.6 57.68C51.9467 55.3067 52.12 52.6533 52.12 49.72C52.12 49.4267 52.1067 49.0667 52.08 48.64C52.08 48.2133 52.0533 47.7867 52 47.36C51.9467 46.9333 51.8933 46.5733 51.84 46.28H56.52ZM70.32 54.68C70.2667 55.0267 70.2133 55.3867 70.16 55.76C70.1067 56.1333 70.0667 56.4533 70.04 56.72C70.0133 57.52 69.9733 58.5733 69.92 59.88C69.8667 61.1867 69.7733 62.6133 69.64 64.16C69.5333 65.7067 69.3867 67.24 69.2 68.76C69.0133 70.28 68.8 71.6933 68.56 73C68.32 74.28 68.0133 75.32 67.64 76.12C67.24 77.0533 66.6667 77.7333 65.92 78.16C65.2 78.6133 64.2267 78.84 63 78.84C61.9333 78.84 60.8267 78.8133 59.68 78.76C58.56 78.7067 57.4933 78.64 56.48 78.56L56 74.36C57.04 74.4933 58.0533 74.6133 59.04 74.72C60.0533 74.8 60.9733 74.84 61.8 74.84C62.4133 74.84 62.8933 74.7467 63.24 74.56C63.5867 74.3467 63.8667 73.9867 64.08 73.48C64.3467 72.92 64.5867 72.1467 64.8 71.16C65.0133 70.1467 65.1867 69.04 65.32 67.84C65.48 66.6133 65.6 65.36 65.68 64.08C65.7867 62.7733 65.8533 61.5467 65.88 60.4C65.9333 59.2267 65.96 58.2 65.96 57.32H45.56C44.8133 57.32 44 57.3333 43.12 57.36C42.2667 57.3867 41.4533 57.4267 40.68 57.48V53.32C41.4533 53.3733 42.2667 53.4267 43.12 53.48C43.9733 53.5333 44.7867 53.56 45.56 53.56H64.76C65.2933 53.56 65.7867 53.5467 66.24 53.52C66.6933 53.4667 67.12 53.4 67.52 53.32L70.32 54.68ZM77.64 63.08C81.16 62.1467 84.3867 61.04 87.32 59.76C90.28 58.4533 92.8667 57.1067 95.08 55.72C96.4933 54.8667 97.8667 53.9067 99.2 52.84C100.56 51.7733 101.84 50.6667 103.04 49.52C104.24 48.3733 105.293 47.2667 106.2 46.2L109.56 49.4C108.387 50.6 107.12 51.7867 105.76 52.96C104.4 54.1333 102.96 55.2667 101.44 56.36C99.9467 57.4267 98.4133 58.44 96.84 59.4C95.3733 60.3067 93.7067 61.2267 91.84 62.16C89.9733 63.0667 88 63.9467 85.92 64.8C83.84 65.6267 81.7333 66.3733 79.6 67.04L77.64 63.08ZM94.36 57.8L98.8 56.64V74.76C98.8 75.2933 98.8 75.88 98.8 76.52C98.8267 77.1333 98.8533 77.7067 98.88 78.24C98.9333 78.7733 99 79.1867 99.08 79.48H94.12C94.1467 79.1867 94.1867 78.7733 94.24 78.24C94.2933 77.7067 94.32 77.1333 94.32 76.52C94.3467 75.88 94.36 75.2933 94.36 74.76V57.8ZM131.92 47.44C132.16 47.92 132.467 48.6267 132.84 49.56C133.24 50.4933 133.64 51.5067 134.04 52.6C134.467 53.6667 134.853 54.6933 135.2 55.68C135.547 56.6667 135.813 57.4533 136 58.04L132.04 59.44C131.88 58.8267 131.627 58.04 131.28 57.08C130.933 56.12 130.56 55.1067 130.16 54.04C129.787 52.9733 129.4 51.9733 129 51.04C128.627 50.08 128.307 49.32 128.04 48.76L131.92 47.44ZM149.92 50.28C149.76 50.68 149.6 51.1333 149.44 51.64C149.28 52.12 149.16 52.5467 149.08 52.92C148.68 54.4933 148.16 56.1733 147.52 57.96C146.907 59.72 146.173 61.4667 145.32 63.2C144.467 64.9067 143.493 66.4933 142.4 67.96C141.013 69.7733 139.453 71.4267 137.72 72.92C136.013 74.4133 134.227 75.7333 132.36 76.88C130.493 78 128.6 78.8933 126.68 79.56L123.2 76.04C125.067 75.48 126.947 74.72 128.84 73.76C130.733 72.7733 132.547 71.5867 134.28 70.2C136.04 68.8133 137.587 67.2667 138.92 65.56C139.96 64.2267 140.907 62.6533 141.76 60.84C142.613 59.0267 143.333 57.0933 143.92 55.04C144.533 52.9867 144.973 50.96 145.24 48.96L149.92 50.28ZM120.8 49.88C121.067 50.4667 121.413 51.24 121.84 52.2C122.267 53.16 122.693 54.2 123.12 55.32C123.573 56.4133 124 57.4667 124.4 58.48C124.8 59.4667 125.12 60.2933 125.36 60.96L121.32 62.44C121.16 61.9333 120.933 61.2933 120.64 60.52C120.373 59.72 120.053 58.88 119.68 58C119.333 57.0933 118.973 56.2 118.6 55.32C118.227 54.44 117.88 53.6533 117.56 52.96C117.24 52.24 116.987 51.6933 116.8 51.32L120.8 49.88ZM183.72 47.36C183.693 47.8667 183.653 48.4267 183.6 49.04C183.573 49.6533 183.56 50.32 183.56 51.04C183.56 51.6533 183.56 52.4133 183.56 53.32C183.56 54.2 183.56 55.0933 183.56 56C183.56 56.88 183.56 57.6 183.56 58.16C183.56 60.4267 183.467 62.3867 183.28 64.04C183.12 65.6933 182.853 67.12 182.48 68.32C182.107 69.4933 181.64 70.5467 181.08 71.48C180.547 72.3867 179.907 73.2533 179.16 74.08C178.307 75.0933 177.32 75.9867 176.2 76.76C175.08 77.5067 173.947 78.1333 172.8 78.64C171.653 79.1467 170.587 79.5733 169.6 79.92L166.28 76.44C168.173 75.96 169.933 75.3067 171.56 74.48C173.213 73.6533 174.653 72.5733 175.88 71.24C176.573 70.4133 177.133 69.5867 177.56 68.76C178.013 67.9333 178.347 67.0133 178.56 66C178.8 64.9867 178.96 63.8267 179.04 62.52C179.147 61.2133 179.2 59.68 179.2 57.92C179.2 57.3333 179.2 56.6 179.2 55.72C179.2 54.84 179.2 53.9733 179.2 53.12C179.2 52.2667 179.2 51.5733 179.2 51.04C179.2 50.32 179.173 49.6533 179.12 49.04C179.067 48.4267 179.013 47.8667 178.96 47.36H183.72ZM165.16 47.68C165.133 48.08 165.093 48.5333 165.04 49.04C165.013 49.5467 165 50.08 165 50.64C165 50.88 165 51.3333 165 52C165 52.64 165 53.4133 165 54.32C165 55.2267 165 56.1733 165 57.16C165 58.1467 165 59.1067 165 60.04C165 60.9733 165 61.8 165 62.52C165 63.2133 165 63.72 165 64.04C165 64.5467 165.013 65.12 165.04 65.76C165.093 66.3733 165.133 66.88 165.16 67.28H160.56C160.587 66.96 160.613 66.4933 160.64 65.88C160.693 65.24 160.72 64.6267 160.72 64.04C160.72 63.72 160.72 63.2 160.72 62.48C160.72 61.76 160.72 60.9467 160.72 60.04C160.72 59.1067 160.72 58.1467 160.72 57.16C160.72 56.1467 160.72 55.2 160.72 54.32C160.72 53.4133 160.72 52.64 160.72 52C160.72 51.3333 160.72 50.88 160.72 50.64C160.72 50.2667 160.707 49.7867 160.68 49.2C160.653 48.5867 160.613 48.08 160.56 47.68H165.16ZM194.88 60.16C195.333 60.1867 195.88 60.2267 196.52 60.28C197.187 60.3067 197.893 60.3333 198.64 60.36C199.413 60.3867 200.147 60.4 200.84 60.4C201.373 60.4 202.107 60.4 203.04 60.4C203.973 60.4 205.027 60.4 206.2 60.4C207.4 60.4 208.653 60.4 209.96 60.4C211.267 60.4 212.56 60.4 213.84 60.4C215.147 60.4 216.373 60.4 217.52 60.4C218.667 60.4 219.68 60.4 220.56 60.4C221.44 60.4 222.12 60.4 222.6 60.4C223.56 60.4 224.427 60.3733 225.2 60.32C225.973 60.24 226.6 60.1867 227.08 60.16V65.12C226.627 65.0933 225.987 65.0533 225.16 65C224.333 64.9467 223.48 64.92 222.6 64.92C222.147 64.92 221.467 64.92 220.56 64.92C219.68 64.92 218.667 64.92 217.52 64.92C216.373 64.92 215.147 64.92 213.84 64.92C212.56 64.92 211.267 64.92 209.96 64.92C208.653 64.92 207.4 64.92 206.2 64.92C205.027 64.92 203.973 64.92 203.04 64.92C202.107 64.92 201.373 64.92 200.84 64.92C199.747 64.92 198.653 64.9467 197.56 65C196.467 65.0267 195.573 65.0667 194.88 65.12V60.16Z" fill="#E22F61"/>
</svg>
