<svg width="230" height="38" viewBox="0 0 230 38" fill="none" xmlns="http://www.w3.org/2000/svg">
<path d="M5.72 18.16H27.92V20.96H9.48V37.44H5.72V18.16ZM26.72 18.16H30.56V33.52C30.56 34.48 30.4133 35.2 30.12 35.68C29.8533 36.16 29.36 36.5333 28.64 36.8C27.92 37.04 26.9867 37.1733 25.84 37.2C24.6933 37.2533 23.2933 37.28 21.64 37.28C21.56 36.8267 21.4 36.3067 21.16 35.72C20.9467 35.16 20.72 34.6533 20.48 34.2C21.2267 34.2267 21.96 34.24 22.68 34.24C23.4267 34.2667 24.08 34.28 24.64 34.28C25.2267 34.28 25.6267 34.28 25.84 34.28C26.1867 34.2533 26.4133 34.1867 26.52 34.08C26.6533 33.9733 26.72 33.7733 26.72 33.48V18.16ZM8.08 23.36H27.88V25.92H8.08V23.36ZM0.32 13.08H35.68V15.96H0.32V13.08ZM2.84 2.64H33.6V5.52H2.84V2.64ZM4.28 7.84H31.88V10.6H4.28V7.84ZM8.08 28.36H27.96V30.96H8.08V28.36ZM15.96 0.239998H19.8V14.96H15.96V0.239998ZM42.32 31.76H71.48V35.16H42.32V31.76ZM39.04 2.56H74.6V6.16H39.04V2.56ZM40.32 10.08H43.92V37.32H40.32V10.08ZM69.84 10.08H73.52V37.24H69.84V10.08ZM59.2 22.64L61.32 20.32C62.28 20.9067 63.24 21.5733 64.2 22.32C65.1867 23.04 66.1067 23.76 66.96 24.48C67.84 25.2 68.5467 25.84 69.08 26.4L66.88 29.12C66.32 28.5333 65.6133 27.8533 64.76 27.08C63.9333 26.3067 63.0267 25.5333 62.04 24.76C61.08 23.9867 60.1333 23.28 59.2 22.64ZM45.16 13.92L47.52 12.04C48.1867 12.5733 48.8533 13.16 49.52 13.8C50.2133 14.4133 50.84 15.04 51.4 15.68C51.96 16.2933 52.4133 16.8533 52.76 17.36L50.24 19.56C49.92 19.0267 49.48 18.4267 48.92 17.76C48.36 17.0933 47.7467 16.4267 47.08 15.76C46.44 15.0667 45.8 14.4533 45.16 13.92ZM52.28 3.84H55.84C55.6267 4.96 55.3733 6.14667 55.08 7.4C54.8133 8.65333 54.5333 9.85333 54.24 11C53.9733 12.1467 53.7067 13.1733 53.44 14.08L49.96 13.68C50.2267 12.8 50.5067 11.8 50.8 10.68C51.0933 9.56 51.36 8.4 51.6 7.2C51.8667 6 52.0933 4.88 52.28 3.84ZM52.56 10.08H58.04V13.08H51.68L52.56 10.08ZM56.68 10.08H60.08C60.08 10.08 60.08 10.1733 60.08 10.36C60.08 10.5467 60.08 10.76 60.08 11C60.08 11.24 60.0667 11.4267 60.04 11.56C59.96 14.6267 59.8667 17.24 59.76 19.4C59.6533 21.5333 59.5333 23.2933 59.4 24.68C59.2667 26.0667 59.1067 27.1467 58.92 27.92C58.76 28.6667 58.5467 29.2133 58.28 29.56C57.9333 30.0133 57.56 30.3467 57.16 30.56C56.76 30.7467 56.2933 30.88 55.76 30.96C55.28 31.0133 54.6667 31.04 53.92 31.04C53.2 31.04 52.4267 31.0267 51.6 31C51.5733 30.52 51.48 30 51.32 29.44C51.16 28.8533 50.9467 28.36 50.68 27.96C51.4267 28.0133 52.1067 28.0533 52.72 28.08C53.3333 28.08 53.8 28.08 54.12 28.08C54.6267 28.08 55.0267 27.9067 55.32 27.56C55.56 27.24 55.76 26.5067 55.92 25.36C56.08 24.2133 56.2267 22.4667 56.36 20.12C56.4933 17.7733 56.6 14.64 56.68 10.72V10.08ZM44.32 25.56C45.4133 25 46.7467 24.2667 48.32 23.36C49.92 22.4267 51.5333 21.4667 53.16 20.48L54.12 23.28C52.76 24.2133 51.3733 25.1467 49.96 26.08C48.5733 27.0133 47.28 27.88 46.08 28.68L44.32 25.56ZM65.28 11.52L68.44 13.2C67.5333 14.2933 66.6 15.3867 65.64 16.48C64.68 17.5467 63.8 18.4667 63 19.24L60.6 17.8C61.1067 17.24 61.6533 16.6 62.24 15.88C62.8267 15.1333 63.3867 14.3733 63.92 13.6C64.4533 12.8267 64.9067 12.1333 65.28 11.52ZM88.68 30.32C88.68 29.8933 88.68 29.12 88.68 28C88.68 26.8533 88.68 25.5067 88.68 23.96C88.68 22.3867 88.68 20.76 88.68 19.08C88.68 17.3733 88.68 15.72 88.68 14.12C88.68 12.52 88.68 11.1067 88.68 9.88C88.68 8.65333 88.68 7.76 88.68 7.2C88.68 6.56 88.6533 5.82667 88.6 5C88.5467 4.14667 88.4533 3.38667 88.32 2.72H93.24C93.1867 3.36 93.12 4.09333 93.04 4.92C92.9867 5.74666 92.96 6.50667 92.96 7.2C92.96 8.10667 92.96 9.25333 92.96 10.64C92.96 12 92.96 13.48 92.96 15.08C92.96 16.68 92.96 18.2933 92.96 19.92C92.96 21.5467 92.96 23.08 92.96 24.52C92.96 25.9333 92.96 27.16 92.96 28.2C92.96 29.24 92.96 29.9467 92.96 30.32C92.96 30.7467 92.9733 31.2667 93 31.88C93.0267 32.4933 93.0667 33.12 93.12 33.76C93.1733 34.3733 93.2267 34.9333 93.28 35.44H88.36C88.4667 34.7467 88.5467 33.92 88.6 32.96C88.6533 31.9733 88.68 31.0933 88.68 30.32ZM92.04 13.16C93.3467 13.5333 94.8133 14 96.44 14.56C98.0667 15.0933 99.7067 15.68 101.36 16.32C103.013 16.9333 104.587 17.5467 106.08 18.16C107.573 18.7733 108.84 19.3333 109.88 19.84L108.08 24.2C106.96 23.5867 105.693 22.9733 104.28 22.36C102.893 21.72 101.467 21.1067 100 20.52C98.5333 19.9333 97.1067 19.4 95.72 18.92C94.36 18.44 93.1333 18.0267 92.04 17.68V13.16ZM123.72 4.2C124.44 4.68 125.267 5.28 126.2 6C127.133 6.69333 128.08 7.44 129.04 8.24C130.027 9.04 130.96 9.81333 131.84 10.56C132.72 11.3067 133.427 11.9733 133.96 12.56L130.8 15.8C130.293 15.2667 129.627 14.6267 128.8 13.88C127.973 13.1067 127.08 12.32 126.12 11.52C125.187 10.6933 124.253 9.92 123.32 9.2C122.387 8.45333 121.547 7.82667 120.8 7.32L123.72 4.2ZM119.6 30.96C121.84 30.6133 123.907 30.16 125.8 29.6C127.693 29.0133 129.427 28.36 131 27.64C132.6 26.8933 134.04 26.1333 135.32 25.36C137.453 24.0533 139.413 22.5467 141.2 20.84C143.013 19.1333 144.6 17.3733 145.96 15.56C147.32 13.7467 148.4 11.9867 149.2 10.28L151.64 14.64C150.68 16.3733 149.493 18.1067 148.08 19.84C146.693 21.5733 145.12 23.24 143.36 24.84C141.6 26.4133 139.68 27.84 137.6 29.12C136.267 29.9467 134.8 30.7467 133.2 31.52C131.627 32.2933 129.92 32.9867 128.08 33.6C126.267 34.2133 124.333 34.7067 122.28 35.08L119.6 30.96ZM174.939 1.68C174.885 2.13333 174.832 2.70667 174.779 3.4C174.725 4.06667 174.699 4.69333 174.699 5.28C174.699 5.65333 174.699 6.10666 174.699 6.64C174.699 7.14667 174.699 7.65333 174.699 8.16C174.699 8.66667 174.699 9.09333 174.699 9.44H170.619C170.619 9.09333 170.619 8.68 170.619 8.2C170.619 7.69333 170.619 7.18667 170.619 6.68C170.619 6.14667 170.619 5.68 170.619 5.28C170.619 4.66666 170.592 4.02666 170.539 3.36C170.512 2.69333 170.459 2.13333 170.379 1.68H174.939ZM186.019 9.84C185.592 10.2667 185.139 10.7467 184.659 11.28C184.179 11.7867 183.765 12.24 183.419 12.64C182.699 13.4667 181.845 14.3733 180.859 15.36C179.899 16.3467 178.845 17.3467 177.699 18.36C176.579 19.3467 175.392 20.2667 174.139 21.12C172.699 22.1333 171.112 23.0933 169.379 24C167.645 24.88 165.792 25.7067 163.819 26.48C161.872 27.2267 159.792 27.9333 157.579 28.6L155.139 24.88C158.979 24 162.205 22.9467 164.819 21.72C167.432 20.4667 169.632 19.2667 171.419 18.12C172.539 17.4 173.579 16.64 174.539 15.84C175.525 15.0133 176.392 14.2133 177.139 13.44C177.912 12.6667 178.512 11.9867 178.939 11.4C178.619 11.4 178.045 11.4 177.219 11.4C176.419 11.4 175.472 11.4 174.379 11.4C173.285 11.4 172.152 11.4 170.979 11.4C169.832 11.4 168.725 11.4 167.659 11.4C166.592 11.4 165.659 11.4 164.859 11.4C164.085 11.4 163.552 11.4 163.259 11.4C162.805 11.4 162.245 11.4133 161.579 11.44C160.939 11.44 160.312 11.4533 159.699 11.48C159.112 11.5067 158.619 11.5333 158.219 11.56V7.4C158.912 7.48 159.739 7.54666 160.699 7.6C161.659 7.62667 162.485 7.64 163.179 7.64C163.472 7.64 164.045 7.64 164.899 7.64C165.752 7.64 166.765 7.64 167.939 7.64C169.112 7.64 170.339 7.64 171.619 7.64C172.925 7.64 174.179 7.64 175.379 7.64C176.605 7.64 177.672 7.64 178.579 7.64C179.485 7.64 180.139 7.64 180.539 7.64C181.072 7.64 181.579 7.61333 182.059 7.56C182.565 7.50667 183.005 7.42666 183.379 7.32L186.019 9.84ZM174.619 18.88C174.619 19.6267 174.619 20.5333 174.619 21.6C174.619 22.6667 174.619 23.8 174.619 25C174.619 26.1733 174.619 27.3067 174.619 28.4C174.619 29.4933 174.619 30.44 174.619 31.24C174.619 31.72 174.619 32.2533 174.619 32.84C174.645 33.4 174.672 33.9467 174.699 34.48C174.752 35.04 174.792 35.5333 174.819 35.96H170.259C170.312 35.56 170.352 35.08 170.379 34.52C170.432 33.9867 170.472 33.4267 170.499 32.84C170.525 32.2533 170.539 31.72 170.539 31.24C170.539 30.4667 170.539 29.6 170.539 28.64C170.539 27.68 170.539 26.6933 170.539 25.68C170.539 24.6667 170.539 23.72 170.539 22.84C170.539 21.96 170.539 21.2 170.539 20.56L174.619 18.88ZM187.339 29.08C186.192 28.1733 185.112 27.3867 184.099 26.72C183.085 26.0267 182.072 25.3733 181.059 24.76C180.045 24.12 178.939 23.48 177.739 22.84L180.339 19.84C181.592 20.48 182.699 21.08 183.659 21.64C184.645 22.2 185.632 22.7867 186.619 23.4C187.605 24.0133 188.725 24.7467 189.979 25.6L187.339 29.08ZM211.819 33.12C211.899 32.7733 211.965 32.3867 212.019 31.96C212.072 31.5067 212.099 31.0533 212.099 30.6C212.099 30.3067 212.099 29.72 212.099 28.84C212.099 27.9333 212.099 26.84 212.099 25.56C212.099 24.2533 212.099 22.8533 212.099 21.36C212.099 19.84 212.099 18.32 212.099 16.8C212.099 15.2533 212.099 13.8133 212.099 12.48C212.099 11.1467 212.099 9.98667 212.099 9C212.099 8.01333 212.099 7.32 212.099 6.92C212.099 6.09333 212.059 5.38667 211.979 4.8C211.899 4.21333 211.859 3.85333 211.859 3.72H216.499C216.499 3.85333 216.459 4.21333 216.379 4.8C216.325 5.38667 216.299 6.09333 216.299 6.92C216.299 7.32 216.299 7.98666 216.299 8.92C216.299 9.85333 216.299 10.96 216.299 12.24C216.299 13.4933 216.299 14.84 216.299 16.28C216.299 17.6933 216.299 19.1067 216.299 20.52C216.299 21.9067 216.299 23.2 216.299 24.4C216.299 25.6 216.299 26.6133 216.299 27.44C216.299 28.2667 216.299 28.8 216.299 29.04C217.472 28.5067 218.712 27.8 220.019 26.92C221.325 26.0133 222.605 24.96 223.859 23.76C225.112 22.56 226.219 21.2533 227.179 19.84L229.619 23.28C228.472 24.8 227.125 26.2533 225.579 27.64C224.059 29.0267 222.459 30.2933 220.779 31.44C219.125 32.5867 217.525 33.5467 215.979 34.32C215.605 34.5067 215.299 34.68 215.059 34.84C214.819 35.0267 214.619 35.1867 214.459 35.32L211.819 33.12ZM193.379 32.76C195.112 31.56 196.552 30.1067 197.699 28.4C198.845 26.6667 199.712 24.88 200.299 23.04C200.592 22.16 200.819 21.0533 200.979 19.72C201.139 18.3867 201.245 16.9733 201.299 15.48C201.379 13.96 201.419 12.4667 201.419 11C201.445 9.53333 201.459 8.22666 201.459 7.08C201.459 6.38666 201.432 5.78666 201.379 5.28C201.325 4.77333 201.245 4.29333 201.139 3.84H205.779C205.779 3.94666 205.752 4.17333 205.699 4.52C205.672 4.84 205.645 5.22667 205.619 5.68C205.592 6.10667 205.579 6.56 205.579 7.04C205.579 8.18667 205.565 9.53333 205.539 11.08C205.512 12.6 205.445 14.1733 205.339 15.8C205.259 17.4267 205.139 18.9733 204.979 20.44C204.845 21.9067 204.632 23.1333 204.339 24.12C203.752 26.3067 202.845 28.36 201.619 30.28C200.392 32.2 198.925 33.88 197.219 35.32L193.379 32.76Z" fill="#E22F61"/>
</svg>
