<svg width="50" height="39" viewBox="0 0 50 39" fill="none" xmlns="http://www.w3.org/2000/svg">
<path d="M5.6 18.54V20.54C5.6 26.62 6.96 32.66 11.08 38.3H6.28C2.32 33.58 0.4 27.34 0.4 20.34V18.74C0.4 11.74 2.32 5.58 6.28 0.859999H11.08C7.16 6.14 5.6 12.14 5.6 18.54ZM29.8931 32.54H24.7731V9.46L18.2131 13.22L15.7331 9.06L25.3731 3.7H29.8931V32.54ZM44.0978 20.54V18.54C44.0978 12.14 42.5378 6.14 38.6178 0.859999H43.4178C47.3778 5.58 49.2978 11.74 49.2978 18.74V20.34C49.2978 27.34 47.3778 33.58 43.4178 38.3H38.6178C42.7378 32.66 44.0978 26.62 44.0978 20.54Z" fill="#60AB83"/>
</svg>
