<svg width="50" height="39" viewBox="0 0 50 39" fill="none" xmlns="http://www.w3.org/2000/svg">
<path d="M5.6 18.54V20.54C5.6 26.62 6.96 32.66 11.08 38.3H6.28C2.32 33.58 0.4 27.34 0.4 20.34V18.74C0.4 11.74 2.32 5.58 6.28 0.859999H11.08C7.16 6.14 5.6 12.14 5.6 18.54ZM18.5731 10.14L15.0931 7.42C17.0131 4.94 19.4931 3.26 23.6531 3.26C29.0531 3.26 32.5731 6.14 32.5731 10.46V10.86C32.5731 13.14 31.6931 16.22 28.4131 17.46C32.2131 18.14 34.0131 20.7 34.0131 23.98V24.58C34.0131 28.94 30.6131 32.98 23.5331 32.98C20.1731 32.98 17.0131 31.94 14.2931 29.78L16.8131 25.78C19.6131 27.82 21.2531 28.42 23.5731 28.42C27.1731 28.42 28.8531 26.86 28.8531 24.34V23.82C28.8531 21.02 27.2931 19.74 23.6131 19.74H19.7331V15.34H23.1731C26.7731 15.34 27.5731 13.66 27.5731 11.18V10.86C27.5731 8.7 26.0531 7.74 23.6531 7.74C21.2131 7.74 19.8531 8.74 18.5731 10.14ZM44.0978 20.54V18.54C44.0978 12.14 42.5378 6.14 38.6178 0.859999H43.4178C47.3778 5.58 49.2978 11.74 49.2978 18.74V20.34C49.2978 27.34 47.3778 33.58 43.4178 38.3H38.6178C42.7378 32.66 44.0978 26.62 44.0978 20.54Z" fill="#60AB83"/>
</svg>
