<svg width="50" height="39" viewBox="0 0 50 39" fill="none" xmlns="http://www.w3.org/2000/svg">
<path d="M5.6 18.54V20.54C5.6 26.62 6.96 32.66 11.08 38.3H6.28C2.32 33.58 0.4 27.34 0.4 20.34V18.74C0.4 11.74 2.32 5.58 6.28 0.859999H11.08C7.16 6.14 5.6 12.14 5.6 18.54ZM14.4931 28.7L25.0931 17.78C28.4531 14.34 28.6531 12.82 28.6531 11.18V10.86C28.6531 9.3 27.4931 7.82 24.5331 7.82C22.4531 7.82 20.3331 8.5 18.4531 11.86L14.6131 9.34C15.9731 6.86 18.6531 3.26 24.4931 3.26C31.0131 3.26 33.8131 6.7 33.8131 10.66V11.06C33.8131 14.18 32.3331 17.06 29.6531 19.74L21.1731 28.3H34.8931V32.54H14.4931V28.7ZM44.0978 20.54V18.54C44.0978 12.14 42.5378 6.14 38.6178 0.859999H43.4178C47.3778 5.58 49.2978 11.74 49.2978 18.74V20.34C49.2978 27.34 47.3778 33.58 43.4178 38.3H38.6178C42.7378 32.66 44.0978 26.62 44.0978 20.54Z" fill="#60AB83"/>
</svg>
