<svg width="1000" height="347" viewBox="0 0 1000 347" fill="none" xmlns="http://www.w3.org/2000/svg">
<rect width="1000" height="347" rx="10" fill="#F6F3F9"/>
<g style="mix-blend-mode:multiply" opacity="0.5">
<mask id="mask0_126_148" style="mask-type:luminance" maskUnits="userSpaceOnUse" x="534" y="84" width="425" height="255">
<path d="M959 84.5781H534.445V338.592H959V84.5781Z" fill="white"/>
</mask>
<g mask="url(#mask0_126_148)">
<mask id="mask1_126_148" style="mask-type:luminance" maskUnits="userSpaceOnUse" x="534" y="84" width="427" height="257">
<path d="M960.772 84.5781H534.445V340.312H960.772V84.5781Z" fill="white"/>
</mask>
<g mask="url(#mask1_126_148)">
<g filter="url(#filter0_f_126_148)">
<path d="M714.853 237.469L585.776 317.922C582.972 319.661 583.555 321.196 587.054 321.344L951.589 336.736C955.088 336.884 958.048 334.664 958.161 331.759L968.164 100.592C968.298 97.688 966.033 96.6706 963.14 98.2985L714.853 237.469Z" fill="#E6E6E6"/>
</g>
</g>
</g>
</g>
<g filter="url(#filter1_d_126_148)">
<path d="M973.16 291.802L940.361 318H48V61.1979L80.7762 35H973.16V291.802Z" fill="white"/>
</g>
<path d="M36.2866 53.5548C41.4109 53.5548 45.5548 49.4109 45.5548 44.2866C45.5548 39.1623 41.3924 35 36.2866 35C31.1808 35 27 39.1623 27 44.2866C27 49.4109 31.1623 53.5548 36.2866 53.5548Z" fill="#EB91B3"/>
<path d="M36.7318 46.0294V50.3397H38.1933V37.8527H36.7318V40.6461H34.9929C34.5489 39.4992 33.7534 38.7407 32.5695 38.7407C30.5716 38.7407 29.6836 40.8866 29.6836 43.4025C29.6836 45.9184 30.5531 48.1013 32.5695 48.1013C33.8089 48.1013 34.6229 47.2689 35.0484 46.0294H36.7318ZM40.8017 37.5938H39.3402V50.9687H40.8017V37.5938ZM33.9939 43.421C33.9939 45.3634 33.5499 46.7509 32.588 46.7509C31.626 46.7509 31.182 45.3449 31.182 43.421C31.182 41.4971 31.6445 40.0542 32.588 40.0542C33.5314 40.0542 33.9939 41.4786 33.9939 43.421ZM35.4554 43.421C35.4554 42.8845 35.4184 42.3481 35.3259 41.8486H36.7318V44.827H35.3444C35.3999 44.383 35.4369 43.902 35.4369 43.421" fill="white"/>
<path d="M312 149H926" stroke="#D3C595" stroke-width="0.924964" stroke-miterlimit="10"/>
<path d="M312 191H926" stroke="#D3C595" stroke-width="0.924964" stroke-miterlimit="10"/>
<path d="M312 234H926" stroke="#D3C595" stroke-width="0.924964" stroke-miterlimit="10"/>
<path d="M312 277H926" stroke="#D3C595" stroke-width="0.924964" stroke-miterlimit="10"/>
<path d="M282 88H541" stroke="#D3C595" stroke-width="0.924964" stroke-miterlimit="10"/>
<path d="M237.918 65.0555C237.918 65.0555 237.807 65.0555 237.751 65.0555C237.677 65.259 237.64 65.518 237.64 65.814C237.492 65.814 237.381 65.6475 237.307 65.6475C237.215 65.6475 237.141 65.851 237.03 66.7944C236.956 67.4049 237.252 68.7739 237.733 70.3278C237.474 70.1428 237.252 70.0318 237.085 70.0318C236.66 70.0318 236.604 70.6423 237.492 72.3072C237.455 72.2147 237.437 72.1962 237.437 72.1962C237.437 72.1962 237.511 72.3257 237.529 72.3812C237.233 72.2887 236.956 72.1962 236.66 72.0852C236.586 72.0112 236.142 71.7522 235.864 71.7337C235.772 71.7337 235.698 71.7522 235.642 71.8262C235.328 73.1952 236.493 75.5446 237.4 77.0985C236.974 76.895 236.567 76.7285 236.308 76.7285C235.809 76.7285 235.79 77.2095 236.956 78.745C237.085 78.9115 237.215 79.078 237.344 79.2444C236.9 80.8909 238.676 82.9813 239.139 83.4438C239.102 83.4068 239.065 83.3698 239.065 83.3698C239.065 83.3698 239.102 83.4068 239.213 83.4993C240.822 84.6647 242.69 85.0902 244.651 85.1457C248.444 85.2382 252.569 83.9433 255.899 83.9248C259.488 83.9063 263.077 83.8878 266.666 83.8878H266.703C267.091 83.8878 267.961 84.0172 269.052 84.1467C270.143 84.2762 271.438 84.4057 272.641 84.4427C274.565 84.4982 276.267 84.2762 276.544 83.3328C276.674 82.7408 276.674 82.2413 276.581 81.8343C277.358 81.8343 277.802 81.8343 277.802 81.8158C277.691 80.9279 277.488 80.1509 277.192 79.4849C278.135 79.4109 278.672 79.2999 278.672 79.0965C278.542 78.0975 278.376 77.228 278.172 76.4696C278.709 76.3586 279.005 76.2106 279.005 76.0256C278.894 74.4901 279.208 71.9372 278.931 70.9013C279.319 70.3833 279.264 69.7543 278.265 69.0328C277.71 67.8489 277.007 67.1459 276.23 66.7389C273.751 66.2395 270.199 65.9065 266.647 65.814C264.89 65.777 263.132 65.777 261.486 65.8695C257.564 65.8325 253.642 65.8325 249.72 65.9065C247.278 65.962 244.818 66.184 242.376 66.11C242.302 66.11 242.21 66.11 242.136 66.11C241.396 66.0915 239.934 65.259 238.88 65.2405C238.732 65.2405 238.565 65.2405 238.436 65.296C238.269 65.111 238.084 65 237.862 65M237.529 72.4182C237.529 72.4182 237.529 72.3812 237.492 72.3442C237.492 72.3627 237.511 72.3997 237.529 72.4182Z" fill="#CBAAB1"/>
<path d="M256.137 68.3521V80.7701H254.751V68.3521H256.137ZM249.557 69.2761C250.173 69.2761 250.719 69.4534 251.195 69.8081C251.68 70.1627 252.058 70.6714 252.329 71.3341C252.6 71.9967 252.735 72.7621 252.735 73.6301C252.735 74.5074 252.6 75.2774 252.329 75.9401C252.058 76.6027 251.68 77.1161 251.195 77.4801C250.719 77.8347 250.173 78.0121 249.557 78.0121C248.932 78.0121 248.376 77.8347 247.891 77.4801C247.415 77.1161 247.042 76.6027 246.771 75.9401C246.5 75.2774 246.365 74.5074 246.365 73.6301C246.365 72.7621 246.5 71.9967 246.771 71.3341C247.042 70.6714 247.415 70.1627 247.891 69.8081C248.376 69.4534 248.932 69.2761 249.557 69.2761ZM249.557 70.5221C249.184 70.5221 248.857 70.6481 248.577 70.9001C248.297 71.1521 248.078 71.5114 247.919 71.9781C247.77 72.4447 247.695 72.9954 247.695 73.6301C247.695 74.2741 247.77 74.8341 247.919 75.3101C248.078 75.7767 248.297 76.1361 248.577 76.3881C248.857 76.6401 249.184 76.7661 249.557 76.7661C249.921 76.7661 250.243 76.6401 250.523 76.3881C250.803 76.1361 251.022 75.7721 251.181 75.2961C251.34 74.8201 251.419 74.2647 251.419 73.6301C251.419 72.9954 251.34 72.4447 251.181 71.9781C251.022 71.5114 250.803 71.1521 250.523 70.9001C250.243 70.6481 249.921 70.5221 249.557 70.5221ZM269.423 74.6941V75.8141H258.195V74.6941H269.423ZM267.995 68.6601V71.7121H260.967V73.2521H259.623V70.7181H266.637V69.7101H259.595V68.6601H267.995ZM268.261 72.7341V73.7981H259.623V72.7341H268.261ZM268.023 76.7941V80.6021H259.679V76.7941H268.023ZM261.023 77.8721V79.5101H266.679V77.8721H261.023Z" fill="white"/>
<path d="M631 88L847 88" stroke="#D3C595" stroke-width="0.924964" stroke-miterlimit="10"/>
<path d="M581.309 67.6805C581.309 67.6805 581.198 67.6805 581.161 67.6805C581.087 67.884 581.05 68.143 581.05 68.439C580.902 68.439 580.791 68.2725 580.717 68.2725C580.625 68.2725 580.551 68.476 580.44 69.4194C580.366 70.0299 580.662 71.3989 581.143 72.9528C580.884 72.7678 580.662 72.6568 580.495 72.6568C580.07 72.6568 580.014 73.2673 580.902 74.9322C580.865 74.8397 580.847 74.8212 580.847 74.8212C580.847 74.8212 580.921 74.9507 580.939 75.0062C580.643 74.9137 580.366 74.8212 580.07 74.7102C579.996 74.6362 579.552 74.3772 579.274 74.3587C579.182 74.3587 579.108 74.3772 579.052 74.4512C578.738 75.8202 579.903 78.1696 580.81 79.7235C580.384 79.52 579.977 79.3535 579.718 79.3535C579.219 79.3535 579.2 79.8345 580.366 81.37C580.495 81.5365 580.625 81.703 580.754 81.8694C580.31 83.5159 582.086 85.6063 582.549 86.0688C582.512 86.0318 582.475 85.9948 582.475 85.9948C582.475 85.9948 582.512 86.0318 582.623 86.1243C584.232 87.2897 586.101 87.7152 588.08 87.7707C591.872 87.8632 595.998 86.5683 599.328 86.5498C602.916 86.5313 606.505 86.5128 610.094 86.5128H610.131C610.52 86.5128 611.389 86.6423 612.481 86.7718C613.572 86.9013 614.867 87.0307 616.069 87.0677C617.993 87.1232 619.695 86.9012 619.973 85.9578C620.102 85.3658 620.102 84.8663 620.01 84.4593C620.787 84.4593 621.231 84.4593 621.231 84.4408C621.12 83.5529 620.916 82.7759 620.62 82.1099C621.564 82.0359 622.1 81.9249 622.1 81.7215C621.971 80.7225 621.804 79.853 621.601 79.0946C622.137 78.9836 622.433 78.8356 622.433 78.6506C622.322 77.1151 622.637 74.5622 622.359 73.5263C622.748 73.0083 622.692 72.3793 621.693 71.6578C621.138 70.4739 620.435 69.7709 619.658 69.3639C617.179 68.8645 613.628 68.5315 610.076 68.439C608.318 68.402 606.561 68.402 604.914 68.4945C600.993 68.4575 597.071 68.4575 593.149 68.5315C590.707 68.587 588.247 68.809 585.805 68.735C585.731 68.735 585.638 68.735 585.564 68.735C584.824 68.7165 583.363 67.884 582.308 67.8655C582.16 67.8655 581.994 67.8655 581.864 67.921C581.698 67.736 581.494 67.625 581.291 67.625M580.921 75.0432C580.921 75.0432 580.902 75.0062 580.884 74.9692C580.884 74.9877 580.902 75.0247 580.921 75.0432Z" fill="#CBAAB1"/>
<path d="M598.688 72.0182V73.1242H590.764V72.0182H598.688ZM600.578 76.3862V77.4922H589.35V76.3862H600.578ZM595.636 77.1562V79.9562H594.264V77.1562H595.636ZM599.164 72.0182V72.9562C599.164 73.6842 599.14 74.3422 599.094 74.9302C599.056 75.5089 598.949 76.1669 598.772 76.9042L597.428 76.7782C597.605 76.0502 597.712 75.4109 597.75 74.8602C597.796 74.3002 597.82 73.6655 597.82 72.9562V72.0182H599.164ZM599.22 79.5642V83.8342H597.862V80.6702H590.498V79.5642H599.22ZM605.744 72.6902V73.6142C605.744 74.3795 605.604 75.1029 605.324 75.7842C605.044 76.4562 604.643 77.0442 604.12 77.5482C603.607 78.0522 602.991 78.4302 602.272 78.6822L601.572 77.6042C602.197 77.3895 602.739 77.0769 603.196 76.6662C603.653 76.2555 604.003 75.7889 604.246 75.2662C604.489 74.7342 604.61 74.1835 604.61 73.6142V72.6902H605.744ZM605.996 72.6902V73.6142C605.996 74.1275 606.113 74.6315 606.346 75.1262C606.579 75.6209 606.915 76.0595 607.354 76.4422C607.802 76.8249 608.329 77.1235 608.936 77.3382L608.25 78.4162C607.55 78.1735 606.948 77.8095 606.444 77.3242C605.94 76.8389 605.557 76.2789 605.296 75.6442C605.035 75.0002 604.904 74.3235 604.904 73.6142V72.6902H605.996ZM610.84 74.5662V75.7002H608.236V74.5662H610.84ZM608.614 72.2282V73.3342H601.978V72.2282H608.614ZM611.82 79.4662V83.8342H610.448V80.5862H603.49V79.4662H611.82ZM611.82 71.4442V78.8362H610.448V71.4442H611.82Z" fill="white"/>
<path d="M234.531 120.234C234.531 120.234 234.364 120.234 234.272 120.234C234.142 120.438 234.087 120.697 234.087 120.993C233.828 120.993 233.661 120.826 233.532 120.826C233.384 120.826 233.273 121.03 233.088 121.973C232.977 122.584 233.513 123.953 234.327 125.525C233.902 125.34 233.513 125.229 233.217 125.229C232.496 125.211 232.403 125.821 233.939 127.523C233.865 127.431 233.828 127.412 233.828 127.412C233.828 127.412 233.939 127.542 233.994 127.597C233.495 127.505 233.014 127.394 232.514 127.283C232.385 127.209 231.645 126.931 231.164 126.931C230.997 126.931 230.868 126.95 230.794 127.024C230.276 128.374 232.292 130.76 233.846 132.314C233.125 132.092 232.44 131.926 231.996 131.926C231.164 131.907 231.127 132.388 233.143 133.961C233.365 134.146 233.587 134.312 233.809 134.46C233.088 136.088 236.14 138.216 236.917 138.697C236.843 138.66 236.788 138.623 236.788 138.623C236.788 138.623 236.843 138.66 237.047 138.771C239.784 139.973 242.948 140.436 246.259 140.528C252.66 140.695 259.616 139.474 265.221 139.511C271.27 139.548 277.338 139.603 283.387 139.677C283.406 139.677 283.443 139.677 283.461 139.677C284.109 139.677 285.589 139.844 287.439 139.992C289.27 140.14 291.453 140.306 293.488 140.362C296.744 140.454 299.593 140.269 300.037 139.326C300.259 138.734 300.24 138.234 300.074 137.827C301.387 137.827 302.127 137.827 302.127 137.827C301.924 136.939 301.554 136.162 301.054 135.478C302.645 135.422 303.551 135.311 303.533 135.108C303.292 134.109 302.997 133.239 302.645 132.462C303.551 132.351 304.032 132.222 304.051 132.037C303.829 130.501 304.31 127.949 303.847 126.913C304.476 126.413 304.384 125.766 302.701 125.026C301.739 123.823 300.536 123.12 299.223 122.695C295.042 122.158 289.048 121.751 283.054 121.585C280.094 121.511 277.116 121.492 274.36 121.548C267.755 121.437 261.133 121.363 254.528 121.381C250.403 121.381 246.259 121.566 242.152 121.455C242.023 121.455 241.893 121.455 241.764 121.455C240.506 121.418 238.046 120.567 236.27 120.512C235.992 120.512 235.752 120.512 235.511 120.549C235.215 120.345 234.901 120.253 234.549 120.234M234.013 127.597C234.013 127.597 233.976 127.56 233.939 127.523C233.957 127.542 233.976 127.579 234.013 127.597Z" fill="#CBAAB1"/>
<path d="M252.468 123.966V132.94H251.082V123.966H252.468ZM252.818 134.97V136.09H244.404V134.97H252.818ZM245.762 132.044V135.39H244.404V132.044H245.762ZM245.776 124.792C246.392 124.792 246.947 124.923 247.442 125.184C247.946 125.445 248.338 125.814 248.618 126.29C248.907 126.757 249.052 127.284 249.052 127.872C249.052 128.46 248.907 128.992 248.618 129.468C248.338 129.935 247.946 130.303 247.442 130.574C246.947 130.835 246.392 130.966 245.776 130.966C245.169 130.966 244.614 130.835 244.11 130.574C243.606 130.303 243.209 129.935 242.92 129.468C242.64 128.992 242.5 128.46 242.5 127.872C242.5 127.284 242.64 126.757 242.92 126.29C243.209 125.814 243.606 125.445 244.11 125.184C244.614 124.923 245.169 124.792 245.776 124.792ZM245.776 125.982C245.412 125.982 245.08 126.061 244.782 126.22C244.483 126.379 244.25 126.603 244.082 126.892C243.914 127.172 243.83 127.499 243.83 127.872C243.83 128.245 243.914 128.577 244.082 128.866C244.259 129.146 244.492 129.365 244.782 129.524C245.08 129.683 245.412 129.762 245.776 129.762C246.14 129.762 246.471 129.683 246.77 129.524C247.068 129.365 247.302 129.146 247.47 128.866C247.638 128.577 247.722 128.245 247.722 127.872C247.722 127.499 247.638 127.172 247.47 126.892C247.302 126.603 247.068 126.379 246.77 126.22C246.471 126.061 246.14 125.982 245.776 125.982ZM260.77 129.846V131.694H259.398V129.846H260.77ZM265.684 129.062V130.168H254.498V129.062H265.684ZM264.242 124.358V128.166H255.926V124.358H264.242ZM257.27 125.436V127.088H262.898V125.436H257.27ZM264.284 131.204V134.13H257.2V135.488H255.856V133.15H262.926V132.24H255.814V131.204H264.284ZM264.634 135.18V136.23H255.856V135.18H264.634ZM281.189 133.654V134.788H269.961V133.654H281.189ZM276.205 130.742V133.99H274.833V130.742H276.205ZM275.995 124.708V125.646C275.995 126.505 275.766 127.307 275.309 128.054C274.861 128.801 274.245 129.431 273.461 129.944C272.686 130.457 271.837 130.807 270.913 130.994L270.339 129.832C271.132 129.692 271.87 129.417 272.551 129.006C273.242 128.586 273.788 128.082 274.189 127.494C274.59 126.897 274.791 126.281 274.791 125.646V124.708H275.995ZM276.247 124.708V125.646C276.247 126.281 276.448 126.897 276.849 127.494C277.26 128.082 277.806 128.586 278.487 129.006C279.178 129.417 279.92 129.692 280.713 129.832L280.125 130.994C279.192 130.807 278.338 130.457 277.563 129.944C276.798 129.431 276.186 128.805 275.729 128.068C275.272 127.321 275.043 126.514 275.043 125.646V124.708H276.247ZM292.725 123.952V136.342H291.395V123.952H292.725ZM291.829 128.81V129.93H289.561V128.81H291.829ZM287.503 125.52C287.503 126.687 287.359 127.765 287.069 128.754C286.789 129.734 286.309 130.649 285.627 131.498C284.955 132.338 284.055 133.085 282.925 133.738L282.127 132.758C283.107 132.198 283.896 131.568 284.493 130.868C285.091 130.159 285.52 129.389 285.781 128.558C286.052 127.718 286.187 126.794 286.187 125.786V125.52H287.503ZM286.607 125.52V126.64H282.659V125.52H286.607ZM289.953 124.274V135.754H288.651V124.274H289.953Z" fill="white"/>
<path d="M143.794 236.658C183.142 236.658 215.054 197.828 215.054 149.915C215.054 102.002 183.142 63.1719 143.794 63.1719C104.446 63.1719 72.5352 102.002 72.5352 149.915C72.5352 197.828 104.428 236.658 143.794 236.658Z" fill="#FEFDFB"/>
<path d="M143.795 238.198C183.938 238.198 216.589 198.591 216.589 149.919C216.589 101.248 183.938 61.6406 143.795 61.6406C103.651 61.6406 71 101.248 71 149.919C71 198.591 103.651 238.198 143.795 238.198Z" stroke="#E8D7BB" stroke-width="0.610476" stroke-miterlimit="10"/>
<path d="M143.794 235.734C182.569 235.734 214.128 197.237 214.128 149.916C214.128 102.595 182.587 64.0977 143.794 64.0977C105.001 64.0977 73.46 102.595 73.46 149.916C73.46 197.237 105.001 235.734 143.794 235.734Z" stroke="#E8D7BB" stroke-width="1.84993" stroke-miterlimit="10"/>
<defs>
<filter id="filter0_f_126_148" x="580" y="93.5234" width="392.17" height="247.219" filterUnits="userSpaceOnUse" color-interpolation-filters="sRGB">
<feFlood flood-opacity="0" result="BackgroundImageFix"/>
<feBlend mode="normal" in="SourceGraphic" in2="BackgroundImageFix" result="shape"/>
<feGaussianBlur stdDeviation="2" result="effect1_foregroundBlur_126_148"/>
</filter>
<filter id="filter1_d_126_148" x="38" y="25" width="945.16" height="303" filterUnits="userSpaceOnUse" color-interpolation-filters="sRGB">
<feFlood flood-opacity="0" result="BackgroundImageFix"/>
<feColorMatrix in="SourceAlpha" type="matrix" values="0 0 0 0 0 0 0 0 0 0 0 0 0 0 0 0 0 0 127 0" result="hardAlpha"/>
<feOffset/>
<feGaussianBlur stdDeviation="5"/>
<feComposite in2="hardAlpha" operator="out"/>
<feColorMatrix type="matrix" values="0 0 0 0 0 0 0 0 0 0 0 0 0 0 0 0 0 0 0.25 0"/>
<feBlend mode="normal" in2="BackgroundImageFix" result="effect1_dropShadow_126_148"/>
<feBlend mode="normal" in="SourceGraphic" in2="effect1_dropShadow_126_148" result="shape"/>
</filter>
</defs>
</svg>
