<svg width="76" height="76" viewBox="0 0 76 76" fill="none" xmlns="http://www.w3.org/2000/svg">
<mask id="mask0_366_113" style="mask-type:alpha" maskUnits="userSpaceOnUse" x="0" y="0" width="76" height="76">
<circle cx="38" cy="38" r="38" fill="#D9D9D9"/>
</mask>
<g mask="url(#mask0_366_113)">
<path d="M40.611 61.3065L39.0754 47.9876C38.0518 41.8365 34.0081 39.4219 29.1712 39.4219C24.3342 39.4219 20.3418 41.3028 20.3418 46.8947V60.7473C20.3418 60.7473 28.9153 65.9834 40.611 61.2811" fill="white"/>
<path d="M30.7577 64.0054C24.3596 64.0054 20.2136 61.5399 19.9577 61.3874C19.753 61.2603 19.625 61.0315 19.625 60.8028V46.9501C19.6506 41.6632 23.0288 38.7656 29.171 38.7656C35.3132 38.7656 38.7937 42.0191 39.7662 47.916L41.3018 61.2603C41.3274 61.5653 41.1482 61.8703 40.8667 61.9974C37.1302 63.5225 33.6752 64.0308 30.7321 64.0308L30.7577 64.0054ZM21.0326 60.3961C22.6705 61.2349 30.1691 64.59 39.8686 60.879L38.3842 48.0939C37.2838 41.5362 32.7795 40.1636 29.171 40.1636C23.7966 40.1636 21.0582 42.4512 21.0582 46.9501V60.3961H21.0326Z" fill="#3E3A39"/>
<path d="M41.1728 25.2397C41.0448 23.8671 40.661 22.5708 40.1491 21.3762C38.0249 16.3943 32.8809 13.09 27.1737 13.5984C21.441 14.1067 16.988 18.2498 15.7595 23.5367C15.478 24.8076 15.2989 26.1547 15.4268 27.5273C15.9131 32.9413 19.7264 37.2877 24.6913 38.7111V41.1766L26.5851 42.7017C28.0695 43.8963 30.2192 43.8963 31.7036 42.7017L33.623 41.1766V38.101C38.5112 35.9151 41.6847 30.857 41.1984 25.2651" fill="white"/>
<path d="M29.1192 44.245C28.0444 44.245 26.9695 43.8891 26.0993 43.2028L24.2055 41.6778C24.0519 41.5507 23.9496 41.3473 23.9496 41.144V39.2122C18.7799 37.5092 15.1714 32.9849 14.6851 27.5709C14.5572 26.2746 14.6851 24.8766 15.0434 23.3516C16.3742 17.6072 21.2112 13.3878 27.0718 12.8795C32.9325 12.3711 38.4349 15.6754 40.7638 21.0894C41.378 22.5382 41.7363 23.8599 41.8643 25.1817C42.3505 30.7481 39.3306 36.0604 34.2889 38.526V41.1694C34.2889 41.3727 34.1865 41.5761 34.033 41.7032L32.1135 43.2282C31.2434 43.9145 30.1941 44.2704 29.1192 44.2704V44.245ZM25.3827 40.8135L26.9951 42.1099C28.2235 43.1011 29.9894 43.1011 31.2434 42.1099L32.9069 40.7881V38.043C32.9069 37.7634 33.0605 37.5093 33.3164 37.4076C38.051 35.2979 40.9429 30.4177 40.4823 25.2833C40.3799 24.1141 40.0472 22.9195 39.5098 21.6232C37.4368 16.7684 32.4718 13.7945 27.251 14.252C22.0045 14.7096 17.6538 18.4968 16.4766 23.6312C16.1695 25.0037 16.0671 26.2492 16.1695 27.393C16.6045 32.4003 20.0595 36.5688 24.9221 37.9668C25.2292 38.043 25.4339 38.3226 25.4339 38.6276V40.7373L25.3827 40.8135Z" fill="#3E3A39"/>
<path d="M26.8164 32.6847C29.0941 33.7269 31.0392 33.3202 32.5491 31.6172Z" fill="white"/>
<path d="M29.1964 33.9542C28.3518 33.9542 27.4561 33.7509 26.5348 33.3188C26.1765 33.1663 26.0229 32.7342 26.1765 32.4037C26.33 32.0479 26.7651 31.8954 27.0978 32.0479C29.0684 32.9375 30.6807 32.6579 32.0116 31.1328C32.2675 30.8533 32.7281 30.8278 33.0097 31.082C33.2912 31.3362 33.3168 31.7683 33.0608 32.0733C31.9348 33.3188 30.6296 33.9542 29.1708 33.9542H29.1964Z" fill="#3E3A39"/>
<path d="M30.9361 24.9565C30.6546 24.9565 30.4243 24.7531 30.3731 24.4735C30.3219 24.1685 30.5266 23.8889 30.8337 23.8381L32.3437 23.6093C32.6508 23.5585 32.9323 23.7619 32.9835 24.0669C33.0347 24.3719 32.8299 24.6515 32.5228 24.7023L31.0129 24.9311C31.0129 24.9311 30.9617 24.9311 30.9361 24.9311V24.9565Z" fill="#3E3A39"/>
<path d="M23.2331 26.4296C23.0028 26.4296 22.7724 26.2771 22.6956 26.0483C22.5933 25.7433 22.7468 25.4383 23.0539 25.3366L24.5895 24.8282C24.871 24.7266 25.2037 24.8791 25.3061 25.1841C25.4084 25.4891 25.2549 25.7941 24.9478 25.8958L23.4122 26.4041C23.4122 26.4041 23.2843 26.4296 23.2331 26.4296Z" fill="#3E3A39"/>
<path d="M17.0651 26.4366C16.8092 26.4366 16.5532 26.2841 16.4253 26.0554C16.2461 25.6995 16.3997 25.2928 16.7324 25.1149C19.7011 23.6407 21.9276 19.6247 21.9532 19.5993C22.1324 19.2943 22.4907 19.1672 22.7978 19.2688C28.5305 21.2768 39.3561 21.9377 39.4584 21.9377C39.8423 21.9377 40.1494 22.2935 40.1239 22.6748C40.1239 23.0561 39.8167 23.3357 39.3817 23.3357C38.9466 23.3357 28.8888 22.7002 22.8746 20.7685C22.1324 21.9885 20.0594 25.0133 17.3466 26.3604C17.2442 26.4112 17.1419 26.4366 17.0395 26.4366H17.0651Z" fill="#3E3A39"/>
<path d="M26.1769 28.0048C26.3305 28.6149 25.9722 29.1995 25.4092 29.352C24.8205 29.5045 24.2319 29.1232 24.0783 28.5386C23.9248 27.9286 24.2575 27.344 24.8461 27.1915C25.4347 27.039 26.0234 27.3948 26.1769 28.0048Z" fill="#3E3A39"/>
<path d="M33.0617 26.5048C33.2152 27.1149 32.8569 27.6995 32.2939 27.852C31.7053 28.0045 31.1167 27.6232 30.9631 27.0386C30.8096 26.4286 31.1423 25.844 31.7309 25.6915C32.3195 25.539 32.9081 25.8948 33.0617 26.5048Z" fill="#3E3A39"/>
<path d="M35.6961 62.4752L34.8516 40.7939C34.8516 40.7939 42.0686 37.2862 43.1179 36.8796L47.8781 24.247C47.8781 24.247 49.0809 21.0189 52.1264 20.5868C56.1445 20.0276 58.7549 22.8236 59.4203 26.865C59.7786 29.1526 60.3928 35.1766 60.3928 35.1766L54.2762 36.0916L53.662 32.9652C53.662 32.9652 51.3843 42.0902 50.6165 45.3437C49.8231 48.5971 45.498 50.5543 45.498 50.5543L45.8563 58.5609C45.8563 58.5609 43.6298 64.0765 35.7217 62.4752" fill="#FBDACF"/>
<path d="M38.4087 63.4653C37.5386 63.4653 36.5916 63.3637 35.5423 63.1603C35.2352 63.0841 35.0049 62.8299 34.9793 62.4995L34.1348 40.8181C34.1348 40.5386 34.2883 40.2844 34.5187 40.1573C34.8002 40.0302 40.84 37.0818 42.5547 36.3446L47.2125 23.9916C47.2637 23.8391 48.6201 20.3823 52.0239 19.8994C56.1442 19.3148 59.3433 22.009 60.1111 26.7622C60.4694 29.0497 61.0836 34.8704 61.1092 35.1246C61.1604 35.5058 60.8788 35.8363 60.5205 35.8871L54.3784 36.8022C54.0201 36.853 53.6618 36.6242 53.585 36.2684C52.8428 39.2168 51.7935 43.5124 51.3073 45.5458C50.5907 48.4943 47.4172 50.4006 46.2144 51.0107L46.5471 58.5597C46.5471 58.5597 46.5471 58.7631 46.4959 58.8393C46.4959 58.8902 44.5509 63.4908 38.4343 63.4908L38.4087 63.4653ZM36.3869 61.8894C42.5803 62.9062 44.7556 59.1697 45.1395 58.4326L44.7812 50.604C44.7812 50.3244 44.9348 50.0448 45.1907 49.9431C45.2419 49.9431 49.2343 48.0876 49.9253 45.19C50.7187 41.9365 52.9964 32.8116 52.9964 32.8116C53.0732 32.5066 53.3547 32.2778 53.6874 32.2778C54.0201 32.2778 54.3016 32.532 54.3528 32.837L54.8134 35.3025L59.5992 34.5908C59.4201 32.9641 58.9594 28.7702 58.6779 26.9655C58.166 23.8391 56.1954 20.6873 52.1774 21.2719C49.6182 21.6278 48.5177 24.4491 48.4921 24.4746L43.7319 37.1072C43.6551 37.2851 43.5016 37.4376 43.3224 37.5139C42.5291 37.7934 37.7689 40.1065 35.5168 41.1994L36.3357 61.8894H36.3869Z" fill="#3E3A39"/>
<path d="M49.4139 43.0833C49.4139 40.389 47.2386 38.2031 44.5258 38.2031C41.813 38.2031 39.6376 40.389 39.6376 43.0833C39.6376 43.9984 39.8935 44.8626 40.3542 45.5997L37.0528 49.9969L31.8319 48.0398L29.1191 53.8605L33.8281 56.021C35.6196 56.8343 37.6414 56.936 39.5097 56.3006H39.5864C41.122 55.7414 42.4272 54.7501 43.3485 53.4538L48.9789 45.3455L48.8765 45.2692C49.2092 44.6084 49.4139 43.8713 49.4139 43.0833Z" fill="white"/>
<path d="M37.0016 57.4177C35.7988 57.4177 34.6215 57.1635 33.5211 56.6552L28.8121 54.4947C28.4538 54.3422 28.3002 53.91 28.4794 53.5542L31.1922 47.7335C31.3457 47.4031 31.7296 47.2506 32.0879 47.3777L36.8225 49.1569L39.5353 45.5476C39.1514 44.7851 38.9467 43.9463 38.9467 43.0821C38.9467 40.0065 41.4547 37.5156 44.5258 37.5156C47.5969 37.5156 50.1049 40.0065 50.1049 43.0821C50.1049 43.8192 49.9514 44.5563 49.6187 45.2934C49.6187 45.4459 49.6187 45.5984 49.5419 45.7255L43.9116 53.8338C42.9135 55.2572 41.4547 56.3756 39.8168 56.9348C38.8955 57.2652 37.9486 57.4177 37.0016 57.4177ZM30.0661 53.5034L34.1353 55.3843C35.7732 56.1468 37.5903 56.2231 39.305 55.6385C40.7381 55.1301 41.9666 54.2405 42.7855 53.0459L48.2111 45.2426C48.2111 45.2426 48.2111 45.0393 48.2623 44.963C48.5694 44.353 48.723 43.7175 48.723 43.1075C48.723 40.7945 46.8547 38.9136 44.5514 38.9136C42.2481 38.9136 40.3798 40.7945 40.3798 43.1075C40.3798 43.87 40.5846 44.5818 40.9941 45.2426C41.1476 45.4968 41.122 45.8018 40.9685 46.0306L37.667 50.4278C37.4879 50.682 37.1552 50.7837 36.8481 50.6566L32.2414 48.9282L30.0917 53.5288L30.0661 53.5034Z" fill="#3E3A39"/>
<path d="M23.7443 44.6875L33.7253 48.1189L31.6779 57.0151L23.2324 54.2191" fill="white"/>
<path d="M31.6785 57.6971C31.6785 57.6971 31.5249 57.6972 31.4482 57.6717L23.0027 54.8758C22.6444 54.7487 22.4396 54.3674 22.5676 53.9862C22.6956 53.6303 23.0794 53.427 23.4633 53.5541L31.1666 56.0958L32.9069 48.5722L23.5145 45.3441C23.1562 45.2171 22.9515 44.8104 23.0794 44.4545C23.2074 44.0987 23.6169 43.8953 23.9752 44.0224L33.9562 47.4538C34.2889 47.5809 34.4937 47.9113 34.4169 48.2672L32.3695 57.1634C32.3183 57.3667 32.1903 57.5192 32.0368 57.6209C31.9344 57.6717 31.8065 57.7226 31.7041 57.7226L31.6785 57.6971Z" fill="#3E3A39"/>
<path d="M53.6628 32.9673C53.6628 32.9673 54.0211 30.7559 53.3301 28.875Z" fill="white"/>
<path d="M53.6615 33.5195C53.6615 33.5195 53.6103 33.5195 53.5847 33.5195C53.2776 33.4687 53.0729 33.1891 53.1241 32.8841C53.1241 32.8841 53.4312 30.7998 52.817 29.0714C52.7146 28.7918 52.8682 28.4614 53.1497 28.3597C53.4312 28.2581 53.7639 28.4106 53.8663 28.6902C54.5829 30.6982 54.2502 32.9603 54.2246 33.062C54.1734 33.3416 53.943 33.5449 53.6615 33.5449V33.5195Z" fill="#3E3A39"/>
<path d="M20.1101 42.8792C17.7556 42.8792 15.2731 42.2437 15.1452 42.1929C14.8636 42.1166 14.6845 41.8879 14.6333 41.6083C14.5821 41.3287 14.7101 41.0491 14.966 40.922C14.966 40.922 17.4229 39.1936 15.3755 32.8392C13.021 25.5697 16.2456 20.3337 16.3736 20.1303C16.5783 19.7999 17.0134 19.6982 17.3461 19.9016C17.6788 20.1049 17.7812 20.537 17.5764 20.8674C17.5508 20.9183 14.5821 25.7731 16.7319 32.4071C18.293 37.2364 17.4741 39.8291 16.6807 41.0999C17.9859 41.3541 20.1869 41.6846 21.748 41.3287C22.1319 41.2525 22.4902 41.4812 22.5925 41.8625C22.6949 42.2437 22.439 42.5996 22.0551 42.7013C21.4665 42.8284 20.8011 42.8792 20.1357 42.8792H20.1101Z" fill="#3E3A39"/>
<path d="M40.6354 38.3797C40.6354 38.3797 40.3795 38.3543 40.2771 38.2781C38.7416 37.363 38.2553 35.533 38.8696 32.8387C38.8696 32.4574 39.2023 32.1016 39.5862 32.1016C39.97 32.1016 40.3027 32.3812 40.3027 32.7624C40.3027 32.8641 40.3027 32.9404 40.2516 33.1183C39.7909 35.1771 40.0468 36.4988 41.0193 37.058C41.352 37.2614 41.4544 37.6935 41.2753 38.0239C41.1473 38.2527 40.917 38.3543 40.661 38.3543L40.6354 38.3797Z" fill="#3E3A39"/>
</g>
</svg>
