<svg width="76" height="76" viewBox="0 0 76 76" fill="none" xmlns="http://www.w3.org/2000/svg">
<mask id="mask0_366_46" style="mask-type:alpha" maskUnits="userSpaceOnUse" x="0" y="0" width="76" height="76">
<circle cx="38" cy="38" r="38" fill="#D9D9D9"/>
</mask>
<g mask="url(#mask0_366_46)">
<path d="M28.5185 55.5529L25.6777 57.9168L29.0559 61.9582C29.491 62.492 30.1564 62.797 30.873 62.797C32.3574 62.797 34.8654 62.797 35.019 62.7207C35.2493 62.6445 36.1706 61.6023 34.3536 60.9923C32.5365 60.3823 32.7156 59.4673 32.7156 59.4673L28.928 55.375" fill="white"/>
<path d="M30.847 63.4663C29.9512 63.4663 29.1067 63.0596 28.518 62.3733L25.1398 58.3319C24.9095 58.0523 24.9351 57.6202 25.2166 57.3914L28.0574 55.0276C28.0574 55.0276 28.3133 54.8751 28.4413 54.8751C28.7228 54.6209 29.1579 54.6209 29.4138 54.9005L33.2015 58.9927C33.355 59.1452 33.4062 59.374 33.3806 59.5773C33.3806 59.6282 33.6109 60.0094 34.5579 60.3399C35.8631 60.772 36.119 61.4837 36.119 61.992C36.119 62.6275 35.6327 63.2121 35.2233 63.3646C35.0953 63.4154 34.9417 63.4663 30.8726 63.4663H30.847ZM26.6242 58.0014L29.5673 61.5091C29.8744 61.8904 30.3607 62.0937 30.847 62.0937C32.9967 62.0937 34.2763 62.0683 34.737 62.0429C34.737 62.0174 34.7626 61.992 34.7626 61.9666C34.7626 61.9666 34.6858 61.7887 34.1228 61.6108C32.4849 61.077 32.101 60.2128 32.0242 59.7299L28.774 56.1968L26.6242 58.0014Z" fill="#3E3A39"/>
<path d="M47.3034 42.4122C46.9707 42.4122 46.6124 42.3359 46.3053 42.1834C42.5944 40.3279 39.9584 32.0163 39.2418 29.5C38.9091 28.3308 39.6001 27.0853 40.7773 26.7549C41.9546 26.4244 43.2086 27.1107 43.5413 28.2799C44.8721 32.9568 47.0986 37.6082 48.2759 38.1928C49.3764 38.752 49.837 40.0738 49.274 41.1667C48.8901 41.9547 48.0967 42.3868 47.2778 42.3868" fill="white"/>
<path d="M47.3034 43.0726C46.8427 43.0726 46.4076 42.9709 45.9982 42.7676C42.1337 40.8612 39.5489 32.9817 38.602 29.6774C38.1669 28.1524 39.0626 26.5256 40.6238 26.0935C42.1849 25.6614 43.7972 26.551 44.2323 28.0761C45.6911 33.1851 47.8408 37.1757 48.6342 37.5569C50.0674 38.2686 50.656 40.0224 49.9394 41.4458C49.4531 42.4371 48.455 43.0471 47.329 43.0471L47.3034 43.0726ZM41.3915 27.339C41.2636 27.339 41.11 27.339 40.9565 27.3898C40.1375 27.6186 39.6513 28.4828 39.8816 29.2962C41.3148 34.3289 43.8228 40.1749 46.5868 41.5475C47.329 41.9034 48.3015 41.5983 48.6854 40.8612C49.0693 40.0987 48.7622 39.1582 47.9944 38.777C46.4332 37.989 44.1811 32.9055 42.9015 28.4574C42.6967 27.7711 42.0825 27.339 41.3915 27.339Z" fill="#3E3A39"/>
<path d="M47.9685 43.1815C46.4841 43.1815 45.2812 41.9868 45.2812 40.5126C45.2812 39.0384 46.4841 37.8438 47.9685 37.8438C49.4528 37.8438 50.6557 39.0384 50.6557 40.5126C50.6557 41.9868 49.4528 43.1815 47.9685 43.1815Z" fill="white"/>
<path d="M47.968 43.8665C46.0998 43.8665 44.5898 42.3669 44.5898 40.5114C44.5898 38.6559 46.0998 37.1562 47.968 37.1562C49.8363 37.1562 51.3462 38.6559 51.3462 40.5114C51.3462 42.3669 49.8363 43.8665 47.968 43.8665ZM47.968 38.5034C46.8676 38.5034 45.9462 39.393 45.9462 40.5114C45.9462 41.6298 46.842 42.5194 47.968 42.5194C49.0941 42.5194 49.9898 41.6298 49.9898 40.5114C49.9898 39.393 49.0941 38.5034 47.968 38.5034Z" fill="#3E3A39"/>
<path d="M32.4332 59.218L28.5176 55.5578C28.5176 55.5578 30.9489 53.6261 33.0218 50.9572C36.3744 46.6362 36.2465 39.9768 36.2465 39.9259L42.2095 39.7734C42.2095 40.1293 42.3887 48.568 37.7308 54.592C34.9669 58.1759 32.6891 59.0909 32.4076 59.2434" fill="#FBDACF"/>
<path d="M32.4082 59.8522C32.229 59.8522 32.0755 59.8014 31.9475 59.6997L28.0319 56.0396C27.8783 55.9125 27.8015 55.7091 27.8271 55.5312C27.8527 55.3533 27.9295 55.1499 28.083 55.0228C28.083 55.0228 30.4887 53.0911 32.4849 50.5239C35.6072 46.4825 35.5816 40.1789 35.5816 39.9247C35.5816 39.5435 35.8631 39.2384 36.247 39.2384L42.2101 39.0859C42.5683 39.0859 42.8755 39.3655 42.901 39.7468C42.901 40.1026 43.1058 48.7701 38.2944 54.9974C36.5541 57.2342 34.7371 58.8355 32.8688 59.776C32.7409 59.8268 32.5873 59.8776 32.4082 59.8776V59.8522ZM29.5418 55.582L32.5361 58.4034C34.1228 57.5392 35.7096 56.1158 37.2195 54.1586C41.0584 49.2276 41.4935 42.5936 41.5447 40.4585L36.938 40.5856C36.8612 42.4919 36.4262 47.6771 33.5598 51.3881C32.0499 53.3199 30.3864 54.8703 29.5162 55.6075L29.5418 55.582Z" fill="#3E3A39"/>
<path d="M40.1883 41.9566C41.1096 43.5833 43.848 48.6669 44.667 52.2762C45.4348 55.7584 45.9466 60.1557 45.9722 60.3336L40.0348 60.9945C40.0348 60.9945 39.5485 56.7243 38.8319 53.5471C38.3457 51.412 35.8888 45.8963 33.9182 42.4141C33.9182 42.4141 32.8177 40.762 33.5599 38.7031" fill="#FBDACF"/>
<path d="M40.0594 61.7067C39.7267 61.7067 39.4196 61.4525 39.394 61.1221C39.3428 60.6646 38.8565 56.7503 38.1911 53.751C37.756 51.7938 35.3504 46.3798 33.3541 42.7959C33.3541 42.7705 32.1001 40.8896 32.9447 38.5258C33.0726 38.1699 33.4565 37.992 33.8148 38.1191C34.1731 38.2462 34.3523 38.6274 34.2243 38.9833C33.6101 40.6863 34.4802 42.0588 34.5058 42.1097C36.4252 45.4902 39.0101 51.1584 39.5219 53.4714C40.0594 55.9115 40.4944 58.9616 40.648 60.3087L45.229 59.8004C45.0499 58.4278 44.6148 55.1744 44.0006 52.4801C43.156 48.7691 40.1873 43.3805 39.5987 42.3384C39.4196 42.008 39.5219 41.6013 39.8546 41.4234C40.1873 41.2455 40.5968 41.3471 40.7759 41.6776C41.6205 43.1772 44.4613 48.4132 45.3314 52.2005C46.1504 55.8098 46.6366 60.2833 46.6622 60.3342C46.7134 60.7154 46.4319 61.0459 46.0736 61.0713L40.1361 61.7321C40.1361 61.7321 40.085 61.7321 40.0594 61.7321V61.7067Z" fill="#3E3A39"/>
<path d="M33.3809 39.8486L34.2254 29.0969C34.4301 26.4788 36.6055 24.3438 39.088 24.3438C41.5704 24.3438 43.3875 26.4788 43.1828 29.0969L42.3382 39.8486H33.3809Z" fill="white"/>
<path d="M42.3368 40.5082H33.3795C33.2003 40.5082 33.0212 40.4319 32.8676 40.2794C32.7397 40.1524 32.6629 39.949 32.6885 39.7711L33.533 29.0194C33.7634 26.0709 36.2458 23.6562 39.061 23.6562C40.3918 23.6562 41.6203 24.19 42.516 25.1559C43.4885 26.198 43.9748 27.6468 43.8468 29.1211L43.0022 39.8728C42.9766 40.2286 42.6695 40.5082 42.3112 40.5082H42.3368ZM34.1217 39.1611H41.7226L42.516 29.0448C42.6184 27.9264 42.2601 26.8589 41.5435 26.0964C40.9037 25.4101 40.0335 25.0288 39.0866 25.0288C36.9624 25.0288 35.0942 26.8843 34.915 29.1465L34.1217 39.1611Z" fill="#3E3A39"/>
<path d="M45.1273 17.8627C45.0761 14.4059 42.2098 11.6608 38.7292 11.7116C35.2487 11.7625 32.4847 14.6093 32.5359 18.0661C32.587 20.9128 34.5577 23.2513 37.1937 23.963V24.3697C37.1937 24.8018 39.497 27.5469 39.7017 27.5469C39.8809 27.5469 40.6742 24.8272 40.6742 24.2934V23.8867C43.2847 23.0988 45.1785 20.6841 45.1273 17.8373" fill="white"/>
<path d="M39.6757 28.2547C39.3686 28.2547 39.1639 28.0767 38.9591 27.8734C38.9591 27.8734 36.6558 25.4333 36.5023 24.4928C33.7895 23.527 31.8956 20.9852 31.8444 18.0876C31.8188 16.2321 32.5098 14.4783 33.8151 13.1565C35.1203 11.8348 36.8606 11.0723 38.7032 11.0469H38.8056C42.5933 11.0469 45.7155 14.0716 45.7667 17.8588C45.8179 20.7819 44.0264 23.3491 41.3136 24.3912C41.2369 24.9504 40.6994 28.2293 39.6757 28.2293V28.2547ZM38.8312 12.394C38.8312 12.394 38.78 12.394 38.7544 12.394C37.2444 12.394 35.8624 13.0295 34.8132 14.097C33.7639 15.1645 33.2008 16.5879 33.2264 18.0622C33.2776 20.5023 34.9667 22.6882 37.3724 23.3236C37.6795 23.3999 37.8842 23.6795 37.8842 23.9845V24.3912C37.9866 24.5945 38.8568 25.6875 39.471 26.3992C39.7013 25.6366 40.0084 24.5945 40.0084 24.3149V23.9082C40.0084 23.6032 40.2132 23.3491 40.4947 23.2728C42.9004 22.5357 44.5127 20.3752 44.4615 17.8842C44.4103 14.8341 41.9023 12.394 38.8568 12.394H38.8312Z" fill="#3E3A39"/>
<path d="M42.03 18.4244C42.03 18.7294 41.7996 18.9836 41.4925 18.9836C41.1854 18.9836 40.9551 18.7548 40.9551 18.4498C40.9551 18.1448 41.1854 17.8906 41.4925 17.8906C41.7996 17.8906 42.03 18.1194 42.03 18.4244Z" fill="#3E3A39"/>
<path d="M39.4714 18.4713C39.4714 18.7763 39.241 19.0305 38.9339 19.0305C38.6268 19.0305 38.3965 18.8017 38.3965 18.4967C38.3965 18.1917 38.6268 17.9375 38.9339 17.9375C39.241 17.9375 39.4714 18.1663 39.4714 18.4713Z" fill="#3E3A39"/>
<path d="M39.1387 20.629C40.0088 21.1119 40.8534 21.0611 41.6467 20.5781Z" fill="white"/>
<path d="M40.3667 21.5211C39.8805 21.5211 39.3686 21.394 38.8824 21.1144C38.6264 20.9619 38.5241 20.6315 38.6776 20.3773C38.8312 20.1231 39.1383 20.0215 39.4198 20.174C40.1108 20.5552 40.725 20.5298 41.3904 20.1486C41.6463 19.9961 41.979 20.0723 42.1326 20.3265C42.2861 20.5807 42.2094 20.9111 41.9534 21.0636C41.4416 21.3686 40.9297 21.5211 40.3923 21.5211H40.3667Z" fill="#3E3A39"/>
<path d="M41.0332 16.9697C41.0332 16.9697 41.4427 16.7918 41.8522 16.9697Z" fill="white"/>
<path d="M41.8512 17.5082C41.8512 17.5082 41.6977 17.5082 41.6209 17.4573C41.4417 17.3811 41.237 17.4573 41.237 17.4573C40.9555 17.559 40.6484 17.4573 40.5204 17.1777C40.3925 16.8981 40.5204 16.5931 40.8019 16.466C40.8787 16.4406 41.4673 16.1865 42.0816 16.466C42.3631 16.5931 42.4654 16.9236 42.3375 17.1777C42.2351 17.3811 42.056 17.4828 41.8512 17.4828V17.5082Z" fill="#3E3A39"/>
<path d="M38.2695 16.9697C38.2695 16.9697 38.679 16.7918 39.0885 16.9697Z" fill="white"/>
<path d="M39.0884 17.5082C39.0884 17.5082 38.9348 17.5082 38.858 17.4573C38.6789 17.3811 38.4741 17.4573 38.4741 17.4573C38.1926 17.559 37.8855 17.4573 37.7575 17.1777C37.6552 16.8981 37.7575 16.5931 38.0391 16.466C38.1158 16.4406 38.7045 16.1865 39.3187 16.466C39.6002 16.5931 39.7026 16.9236 39.5746 17.1777C39.4722 17.3811 39.2931 17.4828 39.0884 17.4828V17.5082Z" fill="#3E3A39"/>
<path d="M38.7292 11.6875C35.2487 11.7383 32.4847 14.5851 32.5359 18.0419C32.5359 18.3724 32.587 18.7028 32.6382 19.0332C32.9965 18.9316 33.3548 18.779 33.7131 18.6011C35.1207 17.8386 37.4752 15.6272 37.3216 14.0513C40.1112 15.246 42.0562 16.466 44.9994 16.5677C44.3596 13.7463 41.8003 11.6621 38.7548 11.7129" fill="white"/>
<path d="M32.6122 19.6937C32.6122 19.6937 32.3562 19.6683 32.2539 19.592C32.0747 19.4904 31.9723 19.3124 31.9468 19.1345C31.8956 18.7787 31.8444 18.4228 31.8444 18.0415C31.7932 14.2289 34.8643 11.0517 38.7031 11.0008C41.9278 10.95 44.8965 13.2122 45.6131 16.3894C45.6643 16.5927 45.6131 16.8215 45.4595 16.974C45.3316 17.1265 45.1013 17.2282 44.9221 17.2282C42.4908 17.1265 40.7249 16.3131 38.6776 15.3981C38.396 15.271 38.1145 15.1439 37.833 15.0168C37.2956 16.7707 35.197 18.5499 33.9941 19.1853C33.6359 19.3887 33.2264 19.5412 32.8169 19.6683C32.7401 19.6683 32.6889 19.6937 32.6122 19.6937ZM38.7287 12.348C35.6321 12.3988 33.1496 14.9406 33.2008 18.0161C33.2008 18.0161 33.2008 18.0161 33.2008 18.0415C33.252 18.0161 33.3031 17.9907 33.3543 17.9653C34.7107 17.2282 36.7069 15.1948 36.6046 14.0764C36.6046 13.8476 36.6813 13.5934 36.8861 13.4664C37.0652 13.3139 37.3468 13.2884 37.5515 13.3901C38.1657 13.6443 38.7287 13.8985 39.2662 14.1526C40.9297 14.9152 42.3117 15.5506 44.0008 15.7794C43.1306 13.746 41.1088 12.348 38.8311 12.348C38.8055 12.348 38.7799 12.348 38.7543 12.348H38.7287Z" fill="#3E3A39"/>
<path d="M36.7077 30.6435C36.7077 30.6435 34.0205 33.5411 31.666 40.3785C31.3333 41.3698 30.3863 41.9544 29.3882 41.8782C29.2091 41.8782 29.0043 41.8273 28.8252 41.7765C27.6479 41.3698 27.0337 40.1243 27.4432 38.9551C30.1816 30.9994 35.3257 26.2717 35.556 26.0938" fill="white"/>
<path d="M29.5677 42.5396C29.5677 42.5396 29.4142 42.5396 29.3374 42.5396C29.1071 42.5396 28.8511 42.4888 28.6208 42.3871C27.0853 41.8787 26.2663 40.2266 26.8037 38.7015C29.5933 30.5678 34.8654 25.7385 35.0957 25.5351C35.3772 25.281 35.8123 25.3064 36.0682 25.586C36.3241 25.8656 36.2985 26.2977 36.017 26.5519C35.8123 26.7552 30.7962 31.3304 28.109 39.1336C27.8274 39.947 28.2625 40.8112 29.0815 41.0908C29.2094 41.1416 29.3374 41.167 29.4654 41.167C30.1308 41.2179 30.8218 40.7858 31.0521 40.1249C33.4834 33.0588 36.2473 30.1357 36.2729 30.1103C36.5545 29.8562 36.9895 29.8816 37.2455 30.1612C37.5014 30.4153 37.4758 30.8474 37.2455 31.1016C37.1687 31.2033 34.6094 34.0501 32.3573 40.557C31.9478 41.7262 30.8473 42.5142 29.5933 42.5142L29.5677 42.5396Z" fill="#3E3A39"/>
<path d="M28.7228 43.5038C27.2385 43.4021 26.1124 42.1058 26.2404 40.6316C26.3428 39.1574 27.648 38.039 29.1323 38.1661C30.6167 38.2678 31.7172 39.5641 31.6148 41.0383C31.5124 42.5125 30.2072 43.6055 28.7228 43.5038Z" fill="white"/>
<path d="M28.9271 44.195C28.9271 44.195 28.7479 44.195 28.6712 44.195C27.7754 44.1187 26.9565 43.7121 26.3678 43.0258C25.7792 42.3395 25.4977 41.4753 25.5489 40.5857C25.7024 38.7302 27.3148 37.3576 29.183 37.4847C31.0513 37.6372 32.4332 39.2385 32.3053 41.094C32.1773 42.8479 30.693 44.195 28.9527 44.195H28.9271ZM28.9271 38.8573C27.8778 38.8573 27.0077 39.6706 26.9053 40.7128C26.8541 41.2465 27.0332 41.7549 27.3915 42.1616C27.7498 42.5683 28.2361 42.8224 28.7735 42.8479C29.8484 42.9241 30.8465 42.1107 30.9233 40.9924C31.0001 39.8994 30.1811 38.9335 29.055 38.8319C29.0039 38.8319 28.9527 38.8319 28.9015 38.8319L28.9271 38.8573Z" fill="#3E3A39"/>
<path d="M39.957 60.3325L40.4177 63.9418L50.0916 63.1793C50.0916 63.1793 49.1959 59.9513 46.0224 59.875L39.9826 60.3325H39.957Z" fill="white"/>
<path d="M40.419 64.6015C40.0863 64.6015 39.7792 64.3473 39.7536 64.0169L39.293 60.4076C39.293 60.2296 39.3186 60.0263 39.4465 59.8992C39.5745 59.7467 39.728 59.6704 39.9328 59.645L45.9726 59.1875C48.9413 59.2638 50.4001 61.7039 50.7584 62.9747C50.8096 63.1781 50.7584 63.3814 50.656 63.5339C50.528 63.7119 50.3489 63.8135 50.1442 63.8135L40.4702 64.5761C40.4702 64.5761 40.4446 64.5761 40.419 64.5761V64.6015ZM40.7261 60.9413L41.0077 63.2035L49.0949 62.5681C48.6598 61.7547 47.7129 60.5855 45.9982 60.5346L40.7261 60.9413Z" fill="#3E3A39"/>
</g>
</svg>
