<svg width="76" height="76" viewBox="0 0 76 76" fill="none" xmlns="http://www.w3.org/2000/svg">
<mask id="mask0_366_233" style="mask-type:alpha" maskUnits="userSpaceOnUse" x="0" y="0" width="76" height="76">
<circle cx="38" cy="38" r="38" fill="#D9D9D9"/>
</mask>
<g mask="url(#mask0_366_233)">
<path d="M53.369 26.786L45.3318 17.1454C45.3318 17.1454 42.9307 14.5 38.3056 14.5C33.9078 14.5 31.3046 17.1454 31.3046 17.1454C31.3046 17.1454 29.2827 19.0532 28.575 19.8926L22.3828 26.1755L26.1739 30.6524L29.6618 27.2693L30.9002 33.1452L27.6146 63.1862H49.0218L45.7109 32.7382L46.2164 26.5062L49.4262 30.4235L53.4195 26.8114L53.369 26.786Z" fill="#FBDACF"/>
<path d="M48.9977 64.0056H27.5905C27.363 64.0056 27.1355 63.9039 26.9586 63.7258C26.807 63.5478 26.7311 63.3188 26.7564 63.0644L30.0168 33.1507L29.1322 28.9027L26.7564 31.2429C26.6048 31.3956 26.3773 31.4973 26.1246 31.4719C25.8971 31.4719 25.6696 31.3447 25.518 31.1666L21.7268 26.6897C21.4488 26.3591 21.4741 25.8503 21.7774 25.5451L27.9696 19.2622C28.652 18.4482 30.6234 16.5913 30.6992 16.515C30.8003 16.4132 33.5804 13.6406 38.2814 13.6406C43.2352 13.6406 45.8384 16.4387 45.9395 16.5658L54.002 26.2319C54.28 26.588 54.2547 27.0967 53.9262 27.402L49.9329 31.014C49.7559 31.1666 49.5285 31.2429 49.301 31.2175C49.0735 31.2175 48.8713 31.0903 48.7197 30.9122L46.8241 28.5975L46.4956 32.7691L49.8065 63.0644C49.8065 63.2934 49.7559 63.5478 49.6043 63.7258C49.4526 63.9039 49.2252 64.0056 48.9724 64.0056H48.9977ZM28.5256 62.3268H48.0626L44.8527 32.82L45.3582 26.4354C45.3835 26.1047 45.611 25.7994 45.9395 25.6977C46.2681 25.5959 46.6219 25.6977 46.8241 25.9775L49.4779 29.208L52.2075 26.7406L44.6758 17.7359C44.6758 17.7359 42.4517 15.3958 38.2814 15.3958C34.3134 15.3958 31.8871 17.7614 31.8618 17.7868C31.8365 17.8123 29.8651 19.6946 29.1827 20.4831L23.496 26.2573L26.2004 29.4623L29.0311 26.6897C29.2586 26.4862 29.5618 26.4099 29.8651 26.4862C30.1684 26.588 30.3706 26.8169 30.4464 27.1222L31.6849 32.9981C31.6849 32.9981 31.6849 33.1761 31.6849 33.2525L28.5003 62.3777L28.5256 62.3268Z" fill="#3E3A39"/>
<path d="M32.9239 63.6921C32.469 63.6921 32.0898 63.3106 32.0898 62.8527V44.7925C32.0898 44.3347 32.469 43.9531 32.9239 43.9531C33.3788 43.9531 33.7579 44.3347 33.7579 44.7925V62.8527C33.7579 63.3106 33.3788 63.6921 32.9239 63.6921Z" fill="#3E3A39"/>
<path d="M29.6629 28.0875C29.4607 28.0875 29.2585 28.0112 29.1068 27.8585C28.7783 27.5533 28.753 27.0191 29.0563 26.663L38.8627 16.0304C39.166 15.6997 39.6967 15.6743 40.0506 15.9795C40.3791 16.2848 40.4044 16.8189 40.1011 17.1751L30.2947 27.8077C30.1178 27.9857 29.9156 28.0875 29.6881 28.0875H29.6629Z" fill="#3E3A39"/>
<path d="M33.9094 25.5196C33.682 25.5196 33.4545 25.4178 33.3029 25.2652L31.2557 23.0776C30.9524 22.747 30.9524 22.2128 31.2809 21.8821C31.6095 21.5769 32.1403 21.5769 32.4688 21.9075L34.516 24.0951C34.8193 24.4258 34.8193 24.9599 34.4908 25.2906C34.3391 25.4432 34.1116 25.5196 33.9094 25.5196Z" fill="#3E3A39"/>
<path d="M36.386 22.92C36.1585 22.92 35.9311 22.8183 35.7794 22.6656L33.7322 20.4781C33.4289 20.1474 33.4289 19.6132 33.7575 19.2825C34.0861 18.9519 34.6168 18.9773 34.9454 19.308L36.9926 21.4955C37.2959 21.8262 37.2959 22.3604 36.9673 22.6911C36.8157 22.8437 36.5882 22.92 36.386 22.92Z" fill="#3E3A39"/>
<path d="M42.2743 15.285H33.5547V12.1562L38.0029 12.8939L42.2743 12.1562V15.285Z" fill="#FBDACF"/>
<path d="M42.2742 16.1514H33.5294C33.0744 16.1514 32.6953 15.7698 32.6953 15.312V12.1578C32.6953 11.9034 32.7964 11.6745 32.9986 11.5219C33.1755 11.3693 33.4283 11.2929 33.681 11.3438L38.0029 12.0815L42.1479 11.3692C42.3753 11.3184 42.6533 11.3947 42.8303 11.5473C43.0325 11.6999 43.1336 11.9543 43.1336 12.1832V15.3374C43.1336 15.7953 42.7544 16.1768 42.2995 16.1768L42.2742 16.1514ZM34.3887 14.4471H41.4402V13.1498L38.1293 13.7349C38.1293 13.7349 37.9523 13.7349 37.8513 13.7349L34.3634 13.1498V14.4725L34.3887 14.4471Z" fill="#3E3A39"/>
</g>
</svg>
