<svg width="76" height="76" viewBox="0 0 76 76" fill="none" xmlns="http://www.w3.org/2000/svg">
<mask id="mask0_366_178" style="mask-type:alpha" maskUnits="userSpaceOnUse" x="0" y="0" width="76" height="76">
<circle cx="38" cy="38" r="38" fill="#D9D9D9"/>
</mask>
<g mask="url(#mask0_366_178)">
<path d="M53.5796 31.6529C53.5796 40.1489 46.6292 47.0168 38.0359 47.0168C29.4427 47.0168 22.5176 40.1234 22.5176 31.6529C22.5176 23.1825 29.468 16.2891 38.0359 16.2891C46.6039 16.2891 53.5796 23.1825 53.5796 31.6529Z" fill="#FBDACF"/>
<path d="M38.0364 47.7774C29.064 47.7774 21.7598 40.5533 21.7598 31.6504C21.7598 22.7475 29.064 15.5234 38.0364 15.5234C47.0087 15.5234 54.3129 22.7475 54.3129 31.6504C54.3129 40.5533 47.0087 47.7774 38.0364 47.7774ZM38.0364 17.0496C29.8981 17.0496 23.2509 23.6124 23.2509 31.6758C23.2509 39.7393 29.8728 46.3021 38.0364 46.3021C46.1999 46.3021 52.8218 39.7393 52.8218 31.6758C52.8218 23.6124 46.1999 17.0496 38.0364 17.0496Z" fill="#3E3A39"/>
<path d="M51.4824 31.2964C51.4824 31.2964 51.7604 33.077 55.4252 32.085C59.0647 31.0929 58.5087 28.3203 58.5087 28.3203C58.5087 28.3203 60.0756 32.085 57.9273 35.0102C55.779 37.9355 51.6341 37.6048 51.6341 37.6048" fill="#FBDACF"/>
<path d="M52.038 38.3683C51.76 38.3683 51.6083 38.3683 51.5831 38.3683C51.1787 38.3429 50.8501 37.9613 50.9007 37.5543C50.9259 37.1473 51.305 36.8167 51.7094 36.8675C51.7347 36.8675 55.4753 37.1219 57.3456 34.5782C58.1038 33.5353 58.3313 32.3398 58.3313 31.2969C57.7752 31.9328 56.9159 32.4924 55.6522 32.8231C53.9083 33.3064 52.5687 33.2555 51.6842 32.6705C50.9512 32.1872 50.7996 31.5258 50.7996 31.3986C50.7237 30.9916 51.0017 30.6101 51.4314 30.5338C51.8105 30.4574 52.2149 30.7373 52.2907 31.1188C52.3666 31.3986 53.0742 31.9328 55.2984 31.3477C58.1291 30.5846 57.8763 28.6514 57.8258 28.4479C57.75 28.0664 57.9774 27.6848 58.3565 27.5831C58.7357 27.4813 59.1148 27.6594 59.2664 28.0155C59.3422 28.1936 60.9851 32.2126 58.6093 35.4431C56.6632 38.0885 53.3522 38.3429 52.1138 38.3429L52.038 38.3683Z" fill="#3E3A39"/>
<path d="M23.4531 64.5436V57.1414C23.4531 49.8156 29.9739 43.8125 37.9352 43.8125C45.8966 43.8125 52.4174 49.8156 52.4174 57.1414V64.5436C52.4174 64.5436 40.4121 69.9107 23.4784 64.5436" fill="white"/>
<path d="M38.5422 67.6952C34.1951 67.6952 28.9886 67.0847 23.2261 65.2533C22.9228 65.1515 22.6953 64.8717 22.6953 64.541V57.1389C22.6953 49.3807 29.5193 43.0469 37.9104 43.0469C46.3014 43.0469 53.1254 49.3552 53.1254 57.1389V64.541C53.1254 64.8463 52.9485 65.1006 52.6705 65.2278C52.342 65.3805 47.0091 67.6952 38.517 67.6952H38.5422ZM24.2118 63.9814C38.6181 68.382 49.3849 64.8717 51.6595 64.0323V57.1389C51.6595 50.1946 45.4926 44.5731 37.9357 44.5731C30.3787 44.5731 24.2118 50.2201 24.2118 57.1389V63.9814Z" fill="#3E3A39"/>
<path d="M38.5416 54.7742H37.2273C30.3274 54.7742 24.666 49.1018 24.666 42.1321V32.6187C24.666 25.6744 30.3022 19.9766 37.2273 19.9766H38.5416C45.4414 19.9766 51.1028 25.649 51.1028 32.6187V42.1321C51.1028 49.0763 45.4667 54.7742 38.5416 54.7742Z" fill="white"/>
<path d="M38.5421 55.5386H37.2278C29.8983 55.5386 23.9336 49.5355 23.9336 42.1588V32.6454C23.9336 25.2687 29.8983 19.2656 37.2278 19.2656H38.5421C45.8716 19.2656 51.8363 25.2687 51.8363 32.6454V42.1588C51.8363 49.5355 45.8716 55.5386 38.5421 55.5386ZM37.2278 20.7664C30.7071 20.7664 25.4248 26.0827 25.4248 32.6454V42.1588C25.4248 48.6961 30.7071 54.0378 37.2278 54.0378H38.5421C45.0376 54.0378 50.3451 48.7215 50.3451 42.1588V32.6454C50.3451 26.1081 45.0628 20.7664 38.5421 20.7664H37.2278Z" fill="#3E3A39"/>
<path d="M37.3023 33.1265C37.3023 33.1265 34.6232 32.6687 32.3991 29.9724C30.175 27.2761 29.998 24.7578 29.998 24.7578" fill="white"/>
<path d="M37.3022 33.895C37.3022 33.895 37.2264 33.895 37.1759 33.895C37.0495 33.895 34.1935 33.3608 31.8177 30.461C29.4672 27.612 29.2398 24.9412 29.2398 24.814C29.2145 24.407 29.5178 24.0509 29.9222 24C30.3518 24 30.7057 24.2798 30.7309 24.6868C30.7309 24.6868 30.9331 27.027 32.9551 29.4689C34.977 31.9363 37.378 32.3687 37.4033 32.3687C37.8077 32.445 38.0857 32.8266 38.0099 33.2336C37.9341 33.5897 37.6308 33.8695 37.2769 33.8695L37.3022 33.895Z" fill="#3E3A39"/>
<path d="M38.6426 33.1265C38.6426 33.1265 41.3216 32.6687 43.5458 29.9724C45.7699 27.2761 45.9468 24.7578 45.9468 24.7578" fill="white"/>
<path d="M38.6419 33.8851C38.2881 33.8851 37.9595 33.6308 37.909 33.2492C37.8331 32.8422 38.1112 32.4607 38.5155 32.3844C38.5155 32.3844 40.9671 31.9011 42.9638 29.4846C44.9857 27.0172 45.1879 24.7024 45.1879 24.7024C45.2132 24.2954 45.6176 24.0156 45.9967 24.0156C46.4011 24.0411 46.7297 24.3972 46.6791 24.8296C46.6791 24.9314 46.4516 27.6277 44.1011 30.4766C41.7254 33.351 38.8694 33.8851 38.743 33.9106C38.6925 33.9106 38.6672 33.9106 38.6166 33.9106L38.6419 33.8851Z" fill="#3E3A39"/>
<path d="M37.934 32.2591C37.5296 32.2591 37.1758 31.9284 37.1758 31.496V20.4819C37.1758 20.0749 37.5043 19.7188 37.934 19.7188C38.3637 19.7188 38.6922 20.0494 38.6922 20.4819V31.496C38.6922 31.903 38.3637 32.2591 37.934 32.2591Z" fill="#3E3A39"/>
<path d="M41.1189 13.6473C41.1189 15.6568 39.5014 17.3102 37.4794 17.3102C35.4575 17.3102 33.8652 15.6822 33.8652 13.6473C33.8652 11.6123 35.4828 9.98438 37.4794 9.98438C39.4761 9.98438 41.1189 11.6123 41.1189 13.6473Z" fill="#FBDACF"/>
<path d="M37.4799 18.0434C35.0535 18.0434 33.1074 16.0593 33.1074 13.6428C33.1074 11.2263 35.0788 9.24219 37.4799 9.24219C39.8809 9.24219 41.8523 11.2263 41.8523 13.6428C41.8523 16.0593 39.8809 18.0434 37.4799 18.0434ZM37.4799 10.743C35.8876 10.743 34.5986 12.0402 34.5986 13.6428C34.5986 15.2453 35.8876 16.5426 37.4799 16.5426C39.0721 16.5426 40.3611 15.2453 40.3611 13.6428C40.3611 12.0402 39.0721 10.743 37.4799 10.743Z" fill="#3E3A39"/>
<path d="M34.0421 15.7497C34.0421 17.454 32.6773 18.8276 30.984 18.8276C29.2906 18.8276 27.9258 17.454 27.9258 15.7497C27.9258 14.0455 29.2906 12.6719 30.984 12.6719C32.6773 12.6719 34.0421 14.0455 34.0421 15.7497Z" fill="#FBDACF"/>
<path d="M30.9844 19.5998C28.8866 19.5998 27.168 17.8955 27.168 15.7843C27.168 13.673 28.8866 11.9688 30.9844 11.9688C33.0821 11.9688 34.7755 13.673 34.7755 15.7843C34.7755 17.8955 33.0821 19.5998 30.9844 19.5998ZM30.9844 13.4441C29.7207 13.4441 28.6844 14.487 28.6844 15.7588C28.6844 17.0307 29.7207 18.0736 30.9844 18.0736C32.2481 18.0736 33.2843 17.0307 33.2843 15.7588C33.2843 14.487 32.2481 13.4441 30.9844 13.4441Z" fill="#3E3A39"/>
<path d="M47.2355 15.7497C47.2355 17.454 45.8707 18.8276 44.1773 18.8276C42.4839 18.8276 41.1191 17.454 41.1191 15.7497C41.1191 14.0455 42.4839 12.6719 44.1773 12.6719C45.8707 12.6719 47.2355 14.0455 47.2355 15.7497Z" fill="#FBDACF"/>
<path d="M44.1777 19.5998C42.08 19.5998 40.3613 17.8955 40.3613 15.7843C40.3613 13.673 42.08 11.9688 44.1777 11.9688C46.2755 11.9688 47.9689 13.673 47.9689 15.7843C47.9689 17.8955 46.2755 19.5998 44.1777 19.5998ZM44.1777 13.4441C42.914 13.4441 41.8778 14.487 41.8778 15.7588C41.8778 17.0307 42.914 18.0736 44.1777 18.0736C45.4414 18.0736 46.4777 17.0307 46.4777 15.7588C46.4777 14.487 45.4414 13.4441 44.1777 13.4441Z" fill="#3E3A39"/>
<path d="M51.634 23.2599C51.634 24.4809 50.6483 25.4729 49.4352 25.4729C48.222 25.4729 47.2363 24.4809 47.2363 23.2599C47.2363 22.0389 48.222 21.0469 49.4352 21.0469C50.6483 21.0469 51.634 22.0389 51.634 23.2599Z" fill="#FBDACF"/>
<path d="M49.4338 26.2139C47.8162 26.2139 46.502 24.8911 46.502 23.2632C46.502 21.6352 47.8162 20.3125 49.4338 20.3125C51.0513 20.3125 52.3656 21.6352 52.3656 23.2632C52.3656 24.8911 51.0513 26.2139 49.4338 26.2139ZM49.4338 21.8133C48.6503 21.8133 47.9931 22.4746 47.9931 23.2632C47.9931 24.0517 48.6503 24.7131 49.4338 24.7131C50.2173 24.7131 50.8744 24.0517 50.8744 23.2632C50.8744 22.4746 50.2173 21.8133 49.4338 21.8133Z" fill="#3E3A39"/>
<path d="M53.8079 27.8068C53.8079 29.0277 52.8222 30.0198 51.609 30.0198C50.3958 30.0198 49.4102 29.0277 49.4102 27.8068C49.4102 26.5858 50.3958 25.5938 51.609 25.5938C52.8222 25.5938 53.8079 26.5858 53.8079 27.8068Z" fill="#FBDACF"/>
<path d="M51.633 30.7607C50.0154 30.7607 48.7012 29.438 48.7012 27.8101C48.7012 26.1821 50.0154 24.8594 51.633 24.8594C53.2505 24.8594 54.5648 26.1821 54.5648 27.8101C54.5648 29.438 53.2505 30.7607 51.633 30.7607ZM51.633 26.3602C50.8495 26.3602 50.1924 27.0215 50.1924 27.8101C50.1924 28.5986 50.8495 29.26 51.633 29.26C52.4165 29.26 53.0736 28.5986 53.0736 27.8101C53.0736 27.0215 52.4165 26.3602 51.633 26.3602Z" fill="#3E3A39"/>
<path d="M60.6555 29.6427C60.6555 30.8637 59.6698 31.8557 58.4567 31.8557C57.2435 31.8557 56.2578 30.8637 56.2578 29.6427C56.2578 28.4217 57.2435 27.4297 58.4567 27.4297C59.6698 27.4297 60.6555 28.4217 60.6555 29.6427Z" fill="#FBDACF"/>
<path d="M58.4826 32.5889C56.865 32.5889 55.5508 31.2661 55.5508 29.6382C55.5508 28.0102 56.865 26.6875 58.4826 26.6875C60.1001 26.6875 61.4144 28.0102 61.4144 29.6382C61.4144 31.2661 60.1001 32.5889 58.4826 32.5889ZM58.4826 28.1883C57.6991 28.1883 57.042 28.8496 57.042 29.6382C57.042 30.4267 57.6991 31.0881 58.4826 31.0881C59.2661 31.0881 59.9232 30.4267 59.9232 29.6382C59.9232 28.8496 59.2914 28.1883 58.4826 28.1883Z" fill="#3E3A39"/>
<path d="M23.9333 31.4761C23.9333 31.4761 23.6553 33.2567 19.9905 32.2647C16.351 31.2726 16.9071 28.5 16.9071 28.5C16.9071 28.5 15.3401 32.2647 17.4884 35.1899C19.6367 38.1151 23.7816 37.7845 23.7816 37.7845" fill="#FBDACF"/>
<path d="M23.3778 38.5166C22.1646 38.5166 18.8284 38.2622 16.8823 35.6168C14.5065 32.3863 16.1494 28.3419 16.2252 28.1892C16.3768 27.8331 16.7559 27.6296 17.1351 27.7568C17.5142 27.884 17.7164 28.2401 17.6405 28.6217C17.59 28.8252 17.3373 30.7329 20.168 31.5215C22.3921 32.132 23.0998 31.5723 23.1756 31.2925C23.2514 30.8855 23.6053 30.6057 24.0349 30.682C24.4393 30.7584 24.7173 31.1654 24.6415 31.5723C24.6415 31.6995 24.4899 32.3609 23.7569 32.8442C22.8723 33.4038 21.5328 33.4547 19.7889 32.9968C18.5251 32.6661 17.6658 32.1065 17.1098 31.4706C17.1098 32.5135 17.312 33.709 18.0955 34.752C19.9658 37.2956 23.7064 37.0413 23.7316 37.0413C24.1613 37.0158 24.5151 37.3211 24.5404 37.7281C24.5657 38.1351 24.2624 38.5166 23.858 38.542C23.8327 38.542 23.6558 38.542 23.4031 38.542L23.3778 38.5166Z" fill="#3E3A39"/>
<path d="M14.7578 29.7911C14.7578 31.0121 15.7435 32.0041 16.9567 32.0041C18.1698 32.0041 19.1555 31.0121 19.1555 29.7911C19.1555 28.5702 18.1698 27.5781 16.9567 27.5781C15.7435 27.5781 14.7578 28.5702 14.7578 29.7911Z" fill="#FBDACF"/>
<path d="M16.9318 32.7764C15.3143 32.7764 14 31.4536 14 29.8257C14 28.1977 15.3143 26.875 16.9318 26.875C18.5494 26.875 19.8636 28.1977 19.8636 29.8257C19.8636 31.4536 18.5494 32.7764 16.9318 32.7764ZM16.9318 28.3503C16.1483 28.3503 15.4912 29.0117 15.4912 29.8002C15.4912 30.5888 16.1483 31.2501 16.9318 31.2501C17.7153 31.2501 18.3724 30.5888 18.3724 29.8002C18.3724 29.0117 17.7406 28.3503 16.9318 28.3503Z" fill="#3E3A39"/>
<path d="M23.957 23.338C23.957 24.559 24.9427 25.551 26.1559 25.551C27.369 25.551 28.3547 24.559 28.3547 23.338C28.3547 22.117 27.369 21.125 26.1559 21.125C24.9427 21.125 23.957 22.117 23.957 23.338Z" fill="#FBDACF"/>
<path d="M26.1564 26.3076C24.5389 26.3076 23.2246 24.9849 23.2246 23.3569C23.2246 21.729 24.5389 20.4062 26.1564 20.4062C27.774 20.4062 29.0882 21.729 29.0882 23.3569C29.0882 24.9849 27.774 26.3076 26.1564 26.3076ZM26.1564 21.8816C25.3729 21.8816 24.7158 22.543 24.7158 23.3315C24.7158 24.12 25.3729 24.7814 26.1564 24.7814C26.9399 24.7814 27.597 24.12 27.597 23.3315C27.597 22.543 26.9652 21.8816 26.1564 21.8816Z" fill="#3E3A39"/>
<path d="M21.7852 27.8849C21.7852 29.1059 22.7709 30.0979 23.984 30.0979C25.1972 30.0979 26.1829 29.1059 26.1829 27.8849C26.1829 26.6639 25.1972 25.6719 23.984 25.6719C22.7709 25.6719 21.7852 26.6639 21.7852 27.8849Z" fill="#FBDACF"/>
<path d="M23.9826 30.8389C22.365 30.8389 21.0508 29.5161 21.0508 27.8882C21.0508 26.2602 22.365 24.9375 23.9826 24.9375C25.6001 24.9375 26.9144 26.2602 26.9144 27.8882C26.9144 29.5161 25.6001 30.8389 23.9826 30.8389ZM23.9826 26.4383C23.1991 26.4383 22.542 27.0996 22.542 27.8882C22.542 28.6767 23.1991 29.3381 23.9826 29.3381C24.7661 29.3381 25.4232 28.6767 25.4232 27.8882C25.4232 27.0996 24.7661 26.4383 23.9826 26.4383Z" fill="#3E3A39"/>
<path d="M28.5077 31.3923C29.1143 31.901 29.4934 33.4272 30.1253 33.9105C31.6165 35.0552 33.689 35.0297 35.4834 35.6402C35.9889 35.8183 36.4944 36.0726 36.7724 36.5305C37.0504 36.9884 35.8878 39.0996 32.8802 39.4557C31.7428 39.5829 30.555 39.4049 29.5693 38.7944C28.5836 38.2093 27.8253 37.1919 27.699 36.0218C27.6231 35.4367 27.699 34.8262 27.6484 34.2412C27.6231 33.8342 27.4968 33.4272 27.3451 33.0456C27.1935 32.715 26.688 31.1124 26.6122 30.7818C26.4353 29.8915 28.1792 31.0616 28.533 31.3414" fill="#3E3A39"/>
<path d="M36.974 35.4403C36.974 35.4403 35.0026 36.4323 32.9807 35.771C30.9334 35.1096 29.2653 33.9141 29.2653 33.9141C29.2653 33.9141 28.9115 38.1875 32.5257 38.976C36.1652 39.79 36.9487 35.4403 36.9487 35.4403" fill="white"/>
<path d="M33.4106 39.8419C33.082 39.8419 32.7282 39.791 32.3744 39.7147C28.9876 38.9771 28.381 35.5431 28.5074 33.8388C28.5074 33.559 28.6843 33.3301 28.9371 33.2283C29.1898 33.1011 29.4678 33.152 29.6953 33.3046C29.6953 33.3046 31.2876 34.4493 33.1831 35.0598C34.9018 35.6194 36.5952 34.78 36.5952 34.78C36.8479 34.6528 37.1512 34.6782 37.3787 34.8563C37.6061 35.0343 37.7072 35.3142 37.6567 35.594C37.6567 35.6957 37.1765 38.0613 35.4325 39.206C34.8007 39.613 34.1183 39.8419 33.3348 39.8419H33.4106ZM30.0997 35.3142C30.3019 36.4079 30.9085 37.8324 32.7029 38.2394C33.4864 38.4175 34.1183 38.3157 34.6743 37.9596C35.1798 37.6289 35.5336 37.1202 35.7611 36.6369C34.9271 36.8149 33.8403 36.8658 32.7282 36.5097C31.7172 36.179 30.7821 35.7212 30.0997 35.3396V35.3142Z" fill="#3E3A39"/>
<path d="M32.9297 38.2937C33.6374 38.2937 34.1934 37.7086 34.1934 37.0218C34.1934 36.335 33.6121 35.75 32.9297 35.75C32.2473 35.75 31.666 36.335 31.666 37.0218C31.666 37.7086 32.2473 38.2937 32.9297 38.2937Z" fill="#3E3A39"/>
<path d="M47.742 31.3454C47.1355 31.8541 46.7564 33.3803 46.1245 33.8636C44.6333 35.0083 42.5608 34.9828 40.7664 35.5933C40.2609 35.7714 39.7554 36.0258 39.4774 36.4836C39.1994 36.9415 40.362 39.0527 43.3696 39.4089C44.5069 39.536 45.6948 39.358 46.6805 38.7475C47.6662 38.1625 48.4245 37.145 48.5508 35.9749C48.6266 35.3898 48.5508 34.7794 48.6014 34.1943C48.6266 33.7873 48.753 33.3803 48.9047 32.9988C49.0563 32.6681 49.5618 31.0656 49.6376 30.7349C49.8145 29.8446 48.0706 31.0147 47.7168 31.2945" fill="#3E3A39"/>
<path d="M39.2988 35.3856C39.2988 35.3856 41.2702 36.3776 43.2922 35.7163C45.3394 35.0549 47.0075 33.8594 47.0075 33.8594C47.0075 33.8594 47.3613 38.1328 43.7471 38.9213C40.1076 39.7353 39.3241 35.3856 39.3241 35.3856" fill="white"/>
<path d="M42.8639 39.7918C42.1057 39.7918 41.398 39.5883 40.7662 39.1559C39.0223 37.9858 38.5673 35.6202 38.5421 35.5439C38.4915 35.2641 38.5926 34.9842 38.8201 34.8062C39.0475 34.6281 39.3508 34.6027 39.6036 34.7299C39.6036 34.7299 41.3222 35.5693 43.0156 35.0097C44.9112 34.3992 46.5034 33.2546 46.5287 33.2546C46.7562 33.1019 47.0342 33.0765 47.2869 33.1782C47.5397 33.28 47.6913 33.5344 47.7166 33.7887C47.8682 35.493 47.2364 38.9015 43.8496 39.6646C43.4958 39.741 43.142 39.7918 42.8134 39.7918H42.8639ZM40.5134 36.5868C40.7662 37.0701 41.12 37.5788 41.6002 37.9095C42.1563 38.2656 42.7881 38.3674 43.5716 38.1893C45.3408 37.8077 45.9727 36.3578 46.1749 35.2641C45.4672 35.6456 44.5573 36.1035 43.5463 36.4342C42.4343 36.7903 41.3475 36.7394 40.5387 36.5613L40.5134 36.5868Z" fill="#3E3A39"/>
<path d="M43.3438 38.239C42.6361 38.239 42.0801 37.654 42.0801 36.9672C42.0801 36.2804 42.6614 35.6953 43.3438 35.6953C44.0262 35.6953 44.6075 36.2804 44.6075 36.9672C44.6075 37.654 44.0262 38.239 43.3438 38.239Z" fill="#3E3A39"/>
<path d="M51.1525 43.5519C51.1525 43.5519 49.4844 46.7061 46.4262 46.4009C43.368 46.0956 42.812 44.0607 41.9274 42.9669C41.0428 41.8986 39.8296 42.102 38.1363 42.2292C36.4429 42.331 34.9517 41.7205 34.0924 43.4502C33.2331 45.1545 31.388 46.1719 29.1892 46.1719C26.9903 46.1719 24.9431 43.2467 24.9431 43.2467C25.0442 43.3993 24.8926 44.1879 24.8926 44.3914C24.8926 45.3834 25.0189 46.3754 25.2464 47.342C25.7519 49.4024 26.8892 51.2339 28.4815 52.6075C29.7705 53.7267 31.0848 54.6679 32.2474 55.9397C32.7276 56.4739 33.2836 57.0081 33.4858 57.7203C34.1429 60.0096 34.7748 63.291 38.3132 64.8681C38.3132 64.8681 41.6999 62.3752 41.9274 58.9667C42.0285 57.6185 42.7362 56.7791 43.646 55.9143C44.657 54.9222 45.5416 54.3881 46.5526 53.396C48.9536 51.0049 51.6327 47.2149 51.1777 43.6028" fill="#FBDACF"/>
<path d="M38.2884 65.5866C38.2884 65.5866 38.0862 65.5866 37.9851 65.5103C34.4215 63.9077 33.5622 60.7536 32.9303 58.4643L32.7787 57.8792C32.6523 57.4468 32.2984 57.0652 31.9193 56.6328L31.6919 56.3784C30.9589 55.539 30.1249 54.8776 29.2403 54.14C28.8359 53.8093 28.4062 53.4532 28.0018 53.0971C26.2832 51.5963 25.0953 49.6377 24.5393 47.4501C24.2865 46.4326 24.1602 45.3897 24.1602 44.3213C24.1602 44.245 24.1602 44.0924 24.2107 43.9144C24.2107 43.7617 24.2613 43.4565 24.2613 43.3802C24.2613 43.3802 24.2107 43.253 24.2107 43.2021C24.2107 42.8714 24.4129 42.5916 24.7162 42.4899C25.0195 42.3881 25.348 42.4899 25.5502 42.7697C26.0304 43.4565 27.6985 45.3897 29.1897 45.3897C31.1358 45.3897 32.7028 44.5248 33.4358 43.0749C34.2951 41.3452 35.7357 41.3961 36.9995 41.447C37.3533 41.447 37.7071 41.4724 38.1115 41.447H38.617C40.0829 41.3198 41.473 41.218 42.5092 42.4645C42.7114 42.7188 42.8883 42.9986 43.0905 43.3039C43.7477 44.3468 44.4553 45.4151 46.5278 45.6186C49.0805 45.8984 50.5211 43.2021 50.5211 43.1767C50.6728 42.8969 50.9761 42.7188 51.3046 42.7951C51.6079 42.846 51.8607 43.1004 51.9112 43.4311C52.5178 47.9334 48.7267 52.2068 47.0839 53.8347C46.5531 54.3689 46.0476 54.7759 45.5421 55.1829C45.1125 55.539 44.6575 55.8951 44.1773 56.353C43.2675 57.2433 42.762 57.9046 42.6861 58.9475C42.4081 62.6613 38.9203 65.2813 38.7686 65.4085C38.6423 65.5103 38.4906 65.5611 38.339 65.5611L38.2884 65.5866ZM25.6513 45.1608C25.7019 45.8221 25.803 46.4835 25.9546 47.1194C26.4348 49.0017 27.4711 50.706 28.9623 52.0033C29.3666 52.3594 29.771 52.6901 30.1754 53.0208C31.06 53.7584 31.9699 54.4961 32.7787 55.4118L32.9809 55.6408C33.4358 56.1495 33.9665 56.7091 34.1687 57.4722L34.3457 58.0573C34.9017 60.0922 35.6094 62.585 38.1873 63.9586C38.9961 63.2718 41.018 61.2877 41.195 58.8712C41.3213 57.2178 42.2312 56.2258 43.1411 55.3355C43.6466 54.8268 44.1268 54.4452 44.607 54.0637C45.0619 53.6821 45.5421 53.326 46.0476 52.8173C47.008 51.8761 49.7376 48.9254 50.3695 45.7204C49.4596 46.5598 48.1454 47.2975 46.3762 47.1194C43.6213 46.8396 42.6103 45.2625 41.8774 44.1179C41.7005 43.8635 41.5741 43.6346 41.3972 43.4311C40.8664 42.7951 40.184 42.8206 38.7181 42.9223H38.2126C37.783 42.9732 37.3786 42.9732 36.9742 42.9478C35.7357 42.8969 35.205 42.9223 34.7753 43.7617C33.8149 45.7204 31.7424 46.8905 29.2403 46.8905C27.9513 46.8905 26.637 46.0511 25.6766 45.1608H25.6513Z" fill="#3E3A39"/>
<path d="M35.0039 48.4141C37.0511 49.1772 39.25 49.1009 41.5752 48.4141Z" fill="#FBDACF"/>
<path d="M38.086 49.7167C36.8981 49.7167 35.8114 49.5132 34.7498 49.1062C34.3707 48.9536 34.1685 48.5212 34.3202 48.1396C34.4718 47.7581 34.9015 47.5546 35.2806 47.7072C37.0498 48.3686 39.0464 48.3686 41.3717 47.7072C41.8013 47.6055 42.1804 47.809 42.3068 48.2159C42.4332 48.6229 42.2057 49.0299 41.8013 49.1571C40.4871 49.5387 39.2739 49.7422 38.1113 49.7422L38.086 49.7167Z" fill="#3E3A39"/>
<path d="M40.8664 41.0391V41.4969C40.8664 43.074 39.9818 44.3713 38.895 44.3713H37.5808C36.494 44.3713 35.6094 43.074 35.6094 41.4969V41.0645" fill="white"/>
<path d="M38.87 45.1319H37.5558C36.0393 45.1319 34.8262 43.5039 34.8262 41.4944V41.062C34.8262 40.655 35.1547 40.2989 35.5844 40.2989C36.0141 40.2989 36.3426 40.6296 36.3426 41.062V41.4944C36.3426 42.7154 36.9998 43.6311 37.5811 43.6311H38.8953C39.4766 43.6311 40.1338 42.7154 40.1338 41.4944V41.0365C40.1338 40.6296 40.4623 40.2734 40.892 40.2734C41.3216 40.2734 41.6502 40.6041 41.6502 41.0365V41.4944C41.6502 43.5039 40.437 45.1319 38.9206 45.1319H38.87Z" fill="#3E3A39"/>
</g>
</svg>
