<svg width="76" height="76" viewBox="0 0 76 76" fill="none" xmlns="http://www.w3.org/2000/svg">
<mask id="mask0_366_145" style="mask-type:alpha" maskUnits="userSpaceOnUse" x="0" y="0" width="76" height="76">
<circle cx="38" cy="38" r="38" fill="#D9D9D9"/>
</mask>
<g mask="url(#mask0_366_145)">
<path d="M47.9103 26.1797H28.0195V31.8267H47.9103V26.1797Z" fill="white"/>
<path d="M47.9111 32.5206H28.0203C27.6412 32.5206 27.3379 32.2153 27.3379 31.8338V26.1868C27.3379 25.8052 27.6412 25.5 28.0203 25.5H47.9111C48.2902 25.5 48.5935 25.8052 48.5935 26.1868V31.8338C48.5935 32.2153 48.2902 32.5206 47.9111 32.5206ZM28.7027 31.147H47.254V26.8482H28.7027V31.147Z" fill="#3E3A39"/>
<path d="M53.8497 34.2969H22.0801V42.106H53.8497V34.2969Z" fill="white"/>
<path d="M53.8505 42.7921H22.0808C21.7017 42.7921 21.3984 42.4868 21.3984 42.1053V34.2962C21.3984 33.9146 21.7017 33.6094 22.0808 33.6094H53.8505C54.2296 33.6094 54.5329 33.9146 54.5329 34.2962V42.1053C54.5329 42.4868 54.2296 42.7921 53.8505 42.7921ZM22.7632 41.4439H53.1934V34.983H22.7632V41.4439Z" fill="#3E3A39"/>
<path d="M23.7992 25.0118C25.8211 25.6986 26.8573 23.7145 27.2112 22.8242V21.476C27.2112 21.0436 27.6408 20.6875 28.1716 20.6875C28.7023 20.6875 29.132 21.0436 29.132 21.476V22.4172H46.8239V21.476C46.8239 21.0436 47.2536 20.6875 47.7844 20.6875C48.3151 20.6875 48.7448 21.0436 48.7448 21.476V22.8242C49.0986 23.7145 50.1096 25.6986 52.1568 25.0118L52.4854 26.3599C52.4854 26.3599 50.4129 27.3774 48.0624 27.3774H27.8683C25.5178 27.3774 23.4453 26.3599 23.4453 26.3599L23.7739 25.0118H23.7992Z" fill="#FBDACF"/>
<path d="M48.0633 28.0381H27.8692C25.3923 28.0381 23.244 26.9951 23.1682 26.9697C22.8902 26.8425 22.7386 26.5118 22.8144 26.2066L23.1429 24.8584C23.1935 24.6804 23.3199 24.5278 23.4715 24.426C23.6231 24.3243 23.8253 24.3243 24.0023 24.3751C25.3165 24.833 26.1 23.7392 26.5297 22.6963V21.4753C26.5297 20.6614 27.2626 20 28.1725 20C29.0824 20 29.8153 20.6614 29.8153 21.4753V21.7297H46.1677V21.4753C46.1677 20.6614 46.9007 20 47.8106 20C48.7204 20 49.4534 20.6614 49.4534 21.4753V22.6963C49.883 23.7392 50.6665 24.833 51.9808 24.3751C52.1577 24.3243 52.3599 24.3243 52.5116 24.426C52.6885 24.5278 52.7896 24.6804 52.8401 24.8584L53.1687 26.2066C53.2445 26.5118 53.0929 26.8425 52.8149 26.9697C52.7138 27.0206 50.5907 28.0381 48.1139 28.0381H48.0633ZM24.255 25.9522C24.9627 26.232 26.378 26.6899 27.8692 26.6899H48.0633C49.5798 26.6899 50.9698 26.232 51.6775 25.9522V25.7996C50.1358 25.9522 48.8468 24.9856 48.0886 23.0524C48.0633 22.9761 48.038 22.8998 48.038 22.7981V21.4499C48.038 21.4499 47.482 21.399 47.4567 21.4499V22.3911C47.4567 22.7726 47.1534 23.0779 46.7743 23.0779H29.0824C28.7033 23.0779 28.4 22.7726 28.4 22.3911V21.4499C28.4 21.4499 27.8439 21.399 27.8187 21.4499V22.7981C27.8187 22.7981 27.8187 22.9761 27.7681 23.0524C27.0099 24.9856 25.7209 25.9522 24.2297 25.7996V25.9522H24.255Z" fill="#3E3A39"/>
<path d="M18.1639 32.6879C20.9946 33.451 22.4353 31.2635 22.9155 30.2969H52.9918C53.472 31.2635 54.9126 33.4256 57.7433 32.6879L58.2235 34.1633C58.2235 34.1633 55.3423 35.2571 52.0566 35.2571H23.8759C20.5902 35.2571 17.709 34.1633 17.709 34.1633L18.1892 32.6879H18.1639Z" fill="#FBDACF"/>
<path d="M52.082 35.9275H23.876C20.5145 35.9275 17.5827 34.8337 17.4816 34.7829C17.153 34.6557 16.9761 34.2996 17.0772 33.9435L17.5321 32.4681C17.6332 32.112 17.9871 31.9339 18.3409 32.0103C20.6409 32.6207 21.8288 30.9928 22.3342 29.9753C22.4353 29.7464 22.6881 29.5938 22.9408 29.5938H53.0171C53.2699 29.5938 53.4973 29.7464 53.6237 29.9753C54.1292 30.9928 55.3171 32.6207 57.617 32.0103C57.9456 31.9339 58.3247 32.112 58.4258 32.4681L58.906 33.9435C59.0071 34.2741 58.8302 34.6557 58.5016 34.7829C58.3753 34.8337 55.4687 35.9275 52.082 35.9275ZM18.5431 33.7145C19.5288 34.0198 21.6013 34.5794 23.876 34.5794H52.082C54.3314 34.5794 56.4039 34.0452 57.4148 33.74L57.339 33.4856C55.4182 33.74 53.7248 32.8497 52.638 30.9928H23.3199C22.7134 32.0103 21.2222 33.8417 18.6189 33.4856L18.5431 33.74V33.7145Z" fill="#3E3A39"/>
<path d="M48.3667 43.2233C49.3524 43.2233 50.1612 42.4093 50.1612 41.4173V39.306C50.1612 38.314 49.3524 37.5 48.3667 37.5C47.381 37.5 46.5723 38.314 46.5723 39.306V41.4173C46.5723 42.4093 47.381 43.2233 48.3667 43.2233Z" fill="white"/>
<path d="M48.3655 43.9094C47.0007 43.9094 45.8887 42.7902 45.8887 41.4166V39.3053C45.8887 37.9317 47.0007 36.8125 48.3655 36.8125C49.7304 36.8125 50.8171 37.9317 50.8171 39.3053V41.4166C50.8171 42.7902 49.7051 43.9094 48.3655 43.9094ZM48.3655 38.1861C47.7337 38.1861 47.2535 38.6948 47.2535 39.3053V41.4166C47.2535 42.0271 47.759 42.5358 48.3655 42.5358C48.9721 42.5358 49.4776 42.0271 49.4776 41.4166V39.3053C49.4776 38.6948 48.9721 38.1861 48.3655 38.1861Z" fill="#3E3A39"/>
<path d="M41.441 43.2233C42.4266 43.2233 43.2354 42.4093 43.2354 41.4173V39.306C43.2354 38.314 42.4266 37.5 41.441 37.5C40.4553 37.5 39.6465 38.314 39.6465 39.306V41.4173C39.6465 42.4093 40.4553 43.2233 41.441 43.2233Z" fill="white"/>
<path d="M41.4417 43.9094C40.0769 43.9094 38.9648 42.7902 38.9648 41.4166V39.3053C38.9648 37.9317 40.0769 36.8125 41.4417 36.8125C42.8065 36.8125 43.8933 37.9317 43.8933 39.3053V41.4166C43.8933 42.7902 42.7812 43.9094 41.4417 43.9094ZM41.4417 38.1861C40.8099 38.1861 40.3297 38.6948 40.3297 39.3053V41.4166C40.3297 42.0271 40.8351 42.5358 41.4417 42.5358C42.0483 42.5358 42.5538 42.0271 42.5538 41.4166V39.3053C42.5538 38.6948 42.0483 38.1861 41.4417 38.1861Z" fill="#3E3A39"/>
<path d="M34.5152 43.2233C35.5009 43.2233 36.3096 42.4093 36.3096 41.4173V39.306C36.3096 38.314 35.5009 37.5 34.5152 37.5C33.5295 37.5 32.7207 38.314 32.7207 39.306V41.4173C32.7207 42.4093 33.5295 43.2233 34.5152 43.2233Z" fill="white"/>
<path d="M34.5159 43.9094C33.1511 43.9094 32.0391 42.7902 32.0391 41.4166V39.3053C32.0391 37.9317 33.1511 36.8125 34.5159 36.8125C35.8807 36.8125 36.9928 37.9317 36.9928 39.3053V41.4166C36.9928 42.7902 35.8807 43.9094 34.5159 43.9094ZM34.5159 38.1861C33.8841 38.1861 33.4039 38.6948 33.4039 39.3053V41.4166C33.4039 42.0271 33.9094 42.5358 34.5159 42.5358C35.1225 42.5358 35.628 42.0271 35.628 41.4166V39.3053C35.628 38.6948 35.1225 38.1861 34.5159 38.1861Z" fill="#3E3A39"/>
<path d="M27.566 43.2233C28.5516 43.2233 29.3604 42.4093 29.3604 41.4173V39.306C29.3604 38.314 28.5516 37.5 27.566 37.5C26.5803 37.5 25.7715 38.314 25.7715 39.306V41.4173C25.7715 42.4093 26.5803 43.2233 27.566 43.2233Z" fill="white"/>
<path d="M27.5902 43.9094C26.2253 43.9094 25.1133 42.7902 25.1133 41.4166V39.3053C25.1133 37.9317 26.2253 36.8125 27.5902 36.8125C28.955 36.8125 30.067 37.9317 30.067 39.3053V41.4166C30.067 42.7902 28.955 43.9094 27.5902 43.9094ZM27.5902 38.1861C26.9583 38.1861 26.4528 38.6948 26.4528 39.3053V41.4166C26.4528 42.0271 26.9583 42.5358 27.5902 42.5358C28.222 42.5358 28.7022 42.0271 28.7022 41.4166V39.3053C28.7022 38.6948 28.1967 38.1861 27.5902 38.1861Z" fill="#3E3A39"/>
<path d="M13.6133 55.3849H62.3167L61.0782 42.4375H14.8517L13.6133 55.3849Z" fill="#FBDACF"/>
<path d="M62.3174 56.0455H13.614C13.4119 56.0455 13.2349 55.9692 13.1086 55.8166C12.9822 55.664 12.9316 55.4859 12.9316 55.3079L14.1701 42.3605C14.1954 42.0044 14.4986 41.75 14.8272 41.75H61.0537C61.4076 41.75 61.6856 42.0044 61.7108 42.3605L62.9493 55.3079C62.9493 55.4859 62.8987 55.6894 62.7724 55.8166C62.646 55.9692 62.4691 56.0455 62.2669 56.0455H62.3174ZM14.347 54.6974H61.5592L60.4471 43.1236H15.4591L14.347 54.6974Z" fill="#3E3A39"/>
<path d="M41.3401 55.3804V49.886C41.3401 48.3343 39.8237 47.0625 37.9787 47.0625C36.1336 47.0625 34.6172 48.3343 34.6172 49.886V55.3804H41.3401Z" fill="white"/>
<path d="M41.3389 56.043H34.616C34.2369 56.043 33.9336 55.7378 33.9336 55.3562V49.8619C33.9336 47.9286 35.7281 46.3516 37.9522 46.3516C40.1763 46.3516 41.9708 47.9286 41.9708 49.8619V55.3562C41.9708 55.7378 41.6675 56.043 41.2884 56.043H41.3389ZM35.2731 54.6949H40.6565V49.8873C40.6565 48.7172 39.4181 47.7252 37.9775 47.7252C36.5368 47.7252 35.2984 48.6918 35.2984 49.8873V54.6949H35.2731Z" fill="#3E3A39"/>
<path d="M53.3705 55.3808V51.1329C53.3705 49.9373 52.2079 48.9453 50.7673 48.9453C49.3267 48.9453 48.1641 49.9373 48.1641 51.1329V55.3808H53.3705Z" fill="white"/>
<path d="M53.3694 56.0435H48.1629C47.7838 56.0435 47.4805 55.7383 47.4805 55.3567V51.1087C47.4805 49.5317 48.9464 48.2344 50.7661 48.2344C52.5859 48.2344 54.0518 49.5317 54.0518 51.1087V55.3567C54.0518 55.7383 53.7485 56.0435 53.3694 56.0435ZM48.82 54.6953H52.687V51.1087C52.687 50.2948 51.8024 49.608 50.7661 49.608C49.7299 49.608 48.8453 50.2948 48.8453 51.1087V54.6953H48.82Z" fill="#3E3A39"/>
<path d="M27.8432 55.3808V51.1329C27.8432 49.9373 26.6806 48.9453 25.24 48.9453C23.7993 48.9453 22.6367 49.9373 22.6367 51.1329V55.3808H27.8432Z" fill="white"/>
<path d="M27.844 56.0435H22.6375C22.2584 56.0435 21.9551 55.7383 21.9551 55.3567V51.1087C21.9551 49.5317 23.421 48.2344 25.2154 48.2344C27.0099 48.2344 28.5011 49.5317 28.5011 51.1087V55.3567C28.5011 55.7383 28.1978 56.0435 27.8187 56.0435H27.844ZM23.3199 54.6953H27.1868V51.1087C27.1868 50.2948 26.3022 49.608 25.2407 49.608C24.1792 49.608 23.3199 50.2948 23.3199 51.1087V54.6953Z" fill="#3E3A39"/>
</g>
</svg>
