<svg width="76" height="76" viewBox="0 0 76 76" fill="none" xmlns="http://www.w3.org/2000/svg">
<mask id="mask0_366_85" style="mask-type:alpha" maskUnits="userSpaceOnUse" x="0" y="0" width="76" height="76">
<circle cx="38" cy="38" r="38" fill="#D9D9D9"/>
</mask>
<g mask="url(#mask0_366_85)">
<path d="M17.219 60.3376L19.7526 47.3237C20.1877 41.4268 25.1014 37.7921 29.6057 37.7921C29.6057 37.7921 33.3678 36.8516 34.7753 37.9954L45.7545 35.962C46.8038 35.2757 47.5716 34.7928 47.2133 33.2677L45.7033 26.227C44.4493 24.1682 51.7175 21.1943 52.9716 23.2277L56.0171 36.5466C56.8104 39.1392 55.019 42.1131 52.6644 42.6469L40.1753 45.1886V61.4814C40.1753 61.4814 28.7611 64.5061 17.1934 60.3122" fill="#FBDACF"/>
<path d="M30.5783 63.3126C26.6115 63.3126 21.8257 62.8043 16.9631 61.0505C16.6304 60.9234 16.4257 60.5929 16.5024 60.2371L19.0617 47.2232C19.5224 40.9196 24.7944 37.107 29.6314 37.107C29.8617 37.0307 33.1887 36.2428 34.9546 37.2595L45.4987 35.3023C46.4968 34.6414 46.7527 34.4127 46.5224 33.4722L45.038 26.5332C44.5006 25.4656 45.166 24.2456 46.8551 23.2035C48.9792 21.9326 52.5366 21.0938 53.637 22.8985C53.6882 22.9747 53.7138 23.0255 53.7138 23.1018L56.7593 36.4207C57.1944 37.7932 56.9641 39.42 56.1451 40.8434C55.3773 42.1651 54.1745 43.1055 52.8693 43.3851L40.9432 45.8252V61.5334C40.9432 61.8638 40.7129 62.1434 40.4058 62.2451C40.1242 62.3213 36.1574 63.3381 30.6039 63.3381L30.5783 63.3126ZM18.0636 59.8812C27.6607 63.1601 37.1299 61.4571 39.4844 60.9488V45.2152C39.4844 44.8594 39.7148 44.5798 40.0731 44.5035L52.5622 41.9617C53.4323 41.7584 54.328 41.0721 54.8911 40.1063C55.5053 39.0387 55.6844 37.8441 55.3517 36.8019L52.3318 23.5847C51.7944 23.0255 49.4911 23.3306 47.6228 24.4489C46.7271 24.9827 46.1896 25.6182 46.3688 25.8978C46.42 25.974 46.4456 26.0503 46.4712 26.1265L47.9811 33.1672C48.4674 35.1498 47.2645 35.9377 46.2152 36.5986C46.1385 36.6494 46.0361 36.6749 45.9593 36.7003L35.0569 38.7337C35.0569 38.7337 35.0569 38.7337 35.0314 38.7337C34.8266 38.7845 34.5963 38.7337 34.4171 38.5812C33.6494 37.9712 31.2949 38.1745 29.8873 38.5304C25.5366 38.5304 20.9811 41.8601 20.5972 47.4266L18.166 59.9067L18.0636 59.8812Z" fill="#3E3A39"/>
<path d="M21.4913 33.2161C21.9519 35.885 20.1861 38.4013 17.4989 38.8843C14.8117 39.3418 12.278 37.588 11.7917 34.9191C11.3311 32.2502 13.097 29.7339 15.7842 29.251C18.4714 28.768 21.005 30.5473 21.4913 33.2161Z" fill="white"/>
<path d="M16.6551 39.6718C15.5035 39.6718 14.3774 39.3159 13.4305 38.655C12.202 37.7908 11.3575 36.52 11.1016 35.0203C10.8456 33.5461 11.1783 32.0464 12.0485 30.8264C12.9186 29.6063 14.1982 28.7675 15.6826 28.5134C17.167 28.2592 18.6769 28.5896 19.9054 29.4284C21.1338 30.2926 21.9783 31.5635 22.2343 33.0377C22.7717 36.0878 20.7243 39.0109 17.6532 39.5447C17.3205 39.5955 16.9878 39.6209 16.6551 39.6209V39.6718ZM16.6551 29.8859C16.3992 29.8859 16.1689 29.8859 15.9129 29.9622C14.8125 30.1655 13.84 30.7501 13.2001 31.6652C12.5603 32.5802 12.3044 33.6732 12.5091 34.7661C12.7139 35.8591 13.3281 36.825 14.2238 37.4604C15.1452 38.0959 16.2456 38.35 17.3461 38.1467C19.6238 37.74 21.1338 35.5795 20.7499 33.3173C20.5452 32.2244 19.9309 31.2585 19.0352 30.623C18.3186 30.1401 17.4997 29.8605 16.6551 29.8605V29.8859Z" fill="#3E3A39"/>
<path d="M42.5801 26.7664C42.273 26.5376 42.0427 26.3343 41.838 26.1055C41.838 25.2159 41.7868 24.3008 41.6332 23.4112C40.3536 16.523 33.674 11.9732 26.7384 13.2441C19.8029 14.515 15.2218 21.149 16.5015 28.0372C17.4996 33.3495 21.5688 37.7976 26.7384 38.9414C26.7896 40.8986 28.4531 41.6357 30.4749 41.6357C32.4967 41.6357 34.2114 40.8986 34.2114 38.8652V38.2552C37.9223 36.6538 40.4048 33.3241 41.4029 29.5369C41.6588 29.4098 41.9403 29.2827 42.3242 29.1556C42.8872 29.0031 43.527 28.6981 43.6038 28.1135C43.6806 27.5289 43.092 27.0968 42.6057 26.7664" fill="white"/>
<path d="M30.449 42.3694C27.9153 42.3694 26.3542 41.3526 26.0471 39.548C20.903 38.1754 16.8082 33.6765 15.7845 28.1863C14.4281 20.9168 19.2651 13.9015 26.6101 12.5289C30.1419 11.8681 33.7504 12.6306 36.7191 14.664C39.6878 16.6974 41.7096 19.7476 42.3495 23.2806C42.503 24.0432 42.5542 24.882 42.5798 25.8224C42.7078 25.9495 42.8613 26.0766 43.0149 26.1783C43.5267 26.5595 44.3969 27.195 44.2945 28.1863C44.2177 28.72 43.8594 29.4571 42.503 29.8384C42.3239 29.8892 42.1447 29.9655 42.0168 30.0163C40.9163 33.9307 38.357 37.057 34.9532 38.7092V38.8617C34.9532 41.0985 33.3153 42.3694 30.4746 42.3694H30.449ZM29.0926 13.7744C28.3504 13.7744 27.6082 13.8507 26.866 13.9777C20.34 15.1724 16.0149 21.4506 17.2177 27.9321C18.1902 33.041 22.0547 37.1841 26.8916 38.2517C27.2243 38.3279 27.4547 38.6075 27.4547 38.938C27.4803 40.2597 28.504 40.9205 30.449 40.9205C32.394 40.9205 33.4689 40.2343 33.4689 38.8617V38.2517C33.4689 37.9721 33.648 37.6925 33.904 37.5908C37.231 36.1674 39.6878 33.1427 40.686 29.3555C40.7371 29.1521 40.8651 28.9742 41.0698 28.898C41.3769 28.7455 41.7096 28.5929 42.1191 28.4913C42.6566 28.3388 42.8613 28.1608 42.8613 28.0592C42.8613 27.8812 42.3751 27.5254 42.1703 27.3729C41.8376 27.1441 41.5561 26.89 41.3258 26.6104C41.1978 26.4833 41.1466 26.3054 41.1466 26.1274C41.1466 25.1616 41.0954 24.3228 40.9419 23.5602C40.3533 20.4084 38.5618 17.6887 35.9258 15.8841C33.904 14.5115 31.5495 13.7744 29.1438 13.7744H29.0926Z" fill="#3E3A39"/>
<path d="M39.2014 25.1337C39.3038 25.7438 38.9199 26.3284 38.3313 26.43C37.7427 26.5317 37.154 26.125 37.0517 25.515C36.9493 24.905 37.3332 24.3204 37.9218 24.2187C38.5104 24.117 39.0991 24.5237 39.2014 25.1337Z" fill="#3E3A39"/>
<path d="M37.231 23.1498C36.9495 23.1498 36.7192 22.9465 36.668 22.6669C36.6168 22.3619 36.8216 22.0569 37.1287 21.9806L37.9988 21.8281C38.3315 21.7773 38.613 21.9806 38.6898 22.2856C38.741 22.5906 38.5362 22.8956 38.2291 22.9719L37.359 23.1244C37.359 23.1244 37.2822 23.1244 37.2566 23.1244L37.231 23.1498Z" fill="#3E3A39"/>
<path d="M39.638 18.5214C36.8228 14.5562 31.8835 12.3703 26.7906 13.3107C24.2313 13.7937 22.0048 14.9629 20.2645 16.6405C20.2133 16.5896 20.1877 16.5388 20.1365 16.488C17.1678 19.3856 15.6579 23.6303 16.4768 28.0022C16.7328 29.3239 17.1678 30.5694 17.7564 31.7386C21.3138 29.6035 23.3868 25.6892 22.747 21.6478C28.838 20.5294 36.8996 19.0297 39.6124 18.5214" fill="white"/>
<path d="M17.7807 32.4791C17.7807 32.4791 17.6528 32.4791 17.576 32.4537C17.3713 32.4029 17.2177 32.2504 17.1153 32.0725C16.4755 30.7762 16.0149 29.4544 15.7589 28.1327C14.9144 23.6846 16.3732 19.1348 19.6234 15.9576C19.7514 15.8305 19.9305 15.7543 20.1352 15.7543C21.9779 14.1276 24.2044 13.0346 26.6357 12.6025C31.8566 11.6366 37.1542 13.7971 40.2253 18.1181C40.3788 18.3215 40.4044 18.5757 40.3021 18.8044C40.1997 19.0332 39.995 19.2111 39.7646 19.2365L23.5646 22.2358C23.8973 26.2264 21.8499 30.1661 18.1646 32.3775C18.0623 32.4537 17.9087 32.4791 17.7807 32.4791ZM20.3144 17.3556C17.6528 20.1516 16.5011 24.0405 17.2177 27.8531C17.3969 28.7936 17.6784 29.734 18.0879 30.6745C21.031 28.5648 22.5665 25.1588 22.0291 21.7529C21.9779 21.3716 22.2338 20.9903 22.6177 20.9395L38.3059 18.0419C35.4907 14.8138 31.1656 13.2633 26.8916 14.0259C24.5627 14.458 22.4386 15.5509 20.7495 17.1523C20.6215 17.2793 20.4679 17.3556 20.2888 17.3556H20.3144Z" fill="#3E3A39"/>
<path d="M38.511 32C38.511 32 36.3101 33.4234 34.3906 32Z" fill="white"/>
<path d="M36.3106 33.2146C35.594 33.2146 34.8006 33.0366 34.0328 32.452C33.7769 32.2487 33.7257 31.8928 33.9049 31.6387C34.1096 31.3845 34.4679 31.3337 34.7238 31.5116C36.285 32.6808 38.102 31.537 38.1788 31.5116C38.4603 31.3337 38.8186 31.4099 38.9978 31.6895C39.1769 31.9691 39.1001 32.325 38.8186 32.5029C38.7419 32.5537 37.667 33.24 36.3106 33.24V33.2146Z" fill="#3E3A39"/>
<path d="M23.9746 62.2452C23.5651 62.2452 23.2324 61.9148 23.2324 61.5081V54.6199C23.2324 54.2132 23.5651 53.8828 23.9746 53.8828C24.3841 53.8828 24.7168 54.2132 24.7168 54.6199V61.5081C24.7168 61.9148 24.3841 62.2452 23.9746 62.2452Z" fill="#3E3A39"/>
<path d="M55.1963 21.6013C54.9148 21.6013 54.6845 21.4234 54.6333 21.1438C54.5565 20.8388 54.7613 20.5084 55.094 20.4575L64.3072 18.5004C64.6399 18.4241 64.9215 18.6275 64.9982 18.9579C65.075 19.2629 64.8703 19.5933 64.5376 19.6442L55.3243 21.6013C55.3243 21.6013 55.2475 21.6013 55.1963 21.6013Z" fill="#3E3A39"/>
<path d="M64.4101 29.9625C64.4101 29.9625 64.3589 29.9625 64.3333 29.9625L56.7579 28.9966C56.4508 28.9458 56.2205 28.6662 56.2461 28.3357C56.2973 28.0053 56.5788 27.7765 56.9115 27.8274L64.4868 28.7933C64.7939 28.8441 65.0243 29.1237 64.9987 29.4541C64.9731 29.7591 64.7172 29.9625 64.4101 29.9625Z" fill="#3E3A39"/>
<path d="M48.082 19.7236C48.082 19.7236 47.954 19.7236 47.8772 19.7236L41.9398 18.6307C41.0441 18.4527 40.1995 18.9357 40.046 19.6982C39.9692 20.0541 40.0972 20.3845 40.3019 20.6895C39.8668 20.8674 39.5341 21.1979 39.4317 21.63C39.2782 22.3671 39.8924 23.1296 40.7881 23.2821L42.8867 23.6634C42.8867 25.5951 45.19 26.3322 47.6469 26.6372C50.2317 26.9423 52.2024 26.1289 52.4327 23.9684V23.638C52.7142 21.4774 50.59 20.0286 48.0308 19.6982" fill="white"/>
<path d="M48.7484 27.4216C48.4157 27.4216 48.083 27.4216 47.7247 27.3708C47.6735 27.3708 47.6479 27.3708 47.5967 27.3708C46.3683 27.2183 42.7853 26.7608 42.2735 24.2952L40.6868 24.0156C40.0214 23.8886 39.4327 23.5327 39.0744 22.9989C38.7673 22.5414 38.6394 22.0077 38.7417 21.4993C38.8185 21.0926 39.0488 20.7113 39.3815 20.4317C39.3048 20.1522 39.2792 19.8471 39.356 19.5675C39.5863 18.4237 40.8147 17.6866 42.0943 17.9408L48.1853 19.0338C51.4356 19.4405 53.5342 21.3976 53.2782 23.7615V24.0919C53.1247 25.1086 52.664 25.9474 51.9218 26.532C51.1285 27.142 50.0536 27.447 48.774 27.447L48.7484 27.4216ZM47.6991 25.8966C47.6991 25.8966 47.7503 25.8966 47.7759 25.8966C49.1579 26.0745 50.3095 25.8966 51.0005 25.3374C51.4356 24.9815 51.6915 24.524 51.7683 23.8886V23.5581C51.9986 21.7535 50.028 20.6859 47.9806 20.4317L48.0574 19.7201L47.955 20.4317C47.955 20.4317 47.7759 20.4317 47.7503 20.4317L41.8128 19.3388C41.3266 19.2371 40.8403 19.4659 40.7635 19.8217C40.7379 19.9742 40.8147 20.1267 40.8915 20.2284C41.0195 20.4063 41.0706 20.6351 41.0195 20.8639C40.9683 21.0672 40.7891 21.2451 40.5844 21.3468C40.482 21.3976 40.2005 21.5247 40.1493 21.7535C40.1237 21.906 40.1749 22.0585 40.2517 22.1602C40.4052 22.3635 40.6356 22.516 40.9171 22.5668L43.0413 22.9481C43.3996 22.9989 43.6299 23.304 43.6299 23.6598C43.6299 24.0919 43.6299 25.3628 47.6223 25.8966C47.6223 25.8966 47.6479 25.8966 47.6735 25.8966H47.6991Z" fill="#3E3A39"/>
</g>
</svg>
