<svg width="397" height="26" viewBox="0 0 397 26" fill="none" xmlns="http://www.w3.org/2000/svg">
<path d="M8.528 19.218C9.32533 19.218 10.0187 18.9493 10.608 18.412C11.1973 17.8747 11.6567 17.1033 11.986 16.098C12.3153 15.0927 12.48 13.9227 12.48 12.588C12.48 11.2533 12.3153 10.092 11.986 9.104C11.6567 8.09867 11.1973 7.32733 10.608 6.79C10.0187 6.23533 9.32533 5.958 8.528 5.958C7.73067 5.958 7.02867 6.23533 6.422 6.79C5.81533 7.32733 5.34733 8.09867 5.018 9.104C4.706 10.092 4.55 11.2533 4.55 12.588C4.55 13.9227 4.706 15.0927 5.018 16.098C5.34733 17.1033 5.81533 17.8747 6.422 18.412C7.02867 18.9493 7.73067 19.218 8.528 19.218ZM8.528 22.312C7.072 22.312 5.772 21.9047 4.628 21.09C3.50133 20.258 2.61733 19.1053 1.976 17.632C1.33467 16.1587 1.014 14.4773 1.014 12.588C1.014 10.716 1.33467 9.04333 1.976 7.57C2.61733 6.09667 3.50133 4.95267 4.628 4.138C5.772 3.306 7.072 2.89 8.528 2.89C9.96667 2.89 11.258 3.306 12.402 4.138C13.546 4.95267 14.43 6.09667 15.054 7.57C15.6953 9.04333 16.016 10.716 16.016 12.588C16.016 14.46 15.6953 16.1327 15.054 17.606C14.43 19.0793 13.546 20.232 12.402 21.064C11.258 21.896 9.96667 22.312 8.528 22.312ZM26.3451 22.156L22.8091 22.104V6.764L19.1171 8.428L17.8951 5.36L22.8351 3.098H26.3451V22.156Z" fill="#D9D9D9"/>
<path d="M53 13L45 19L45 7L53 13Z" fill="#D9D9D9"/>
<path d="M77.528 19.218C78.3253 19.218 79.0187 18.9493 79.608 18.412C80.1973 17.8747 80.6567 17.1033 80.986 16.098C81.3153 15.0927 81.48 13.9227 81.48 12.588C81.48 11.2533 81.3153 10.092 80.986 9.104C80.6567 8.09867 80.1973 7.32733 79.608 6.79C79.0187 6.23533 78.3253 5.958 77.528 5.958C76.7307 5.958 76.0287 6.23533 75.422 6.79C74.8153 7.32733 74.3473 8.09867 74.018 9.104C73.706 10.092 73.55 11.2533 73.55 12.588C73.55 13.9227 73.706 15.0927 74.018 16.098C74.3473 17.1033 74.8153 17.8747 75.422 18.412C76.0287 18.9493 76.7307 19.218 77.528 19.218ZM77.528 22.312C76.072 22.312 74.772 21.9047 73.628 21.09C72.5013 20.258 71.6173 19.1053 70.976 17.632C70.3347 16.1587 70.014 14.4773 70.014 12.588C70.014 10.716 70.3347 9.04333 70.976 7.57C71.6173 6.09667 72.5013 4.95267 73.628 4.138C74.772 3.306 76.072 2.89 77.528 2.89C78.9667 2.89 80.258 3.306 81.402 4.138C82.546 4.95267 83.43 6.09667 84.054 7.57C84.6953 9.04333 85.016 10.716 85.016 12.588C85.016 14.46 84.6953 16.1327 84.054 17.606C83.43 19.0793 82.546 20.232 81.402 21.064C80.258 21.896 78.9667 22.312 77.528 22.312ZM87.7271 19.062C88.5071 18.2993 89.5731 17.3633 90.9251 16.254C92.1558 15.214 93.1264 14.356 93.8371 13.68C94.5651 12.9867 95.1631 12.276 95.6311 11.548C96.1164 10.82 96.3591 10.118 96.3591 9.442C96.3591 8.80067 96.2291 8.23733 95.9691 7.752C95.7264 7.26667 95.3884 6.894 94.9551 6.634C94.5391 6.35667 94.0451 6.218 93.4731 6.218C92.7971 6.218 92.1384 6.43467 91.4971 6.868C90.8731 7.284 90.4051 7.83867 90.0931 8.532L87.0771 7.18C87.6318 5.932 88.5071 4.918 89.7031 4.138C90.8991 3.34067 92.1558 2.942 93.4731 2.942C94.7211 2.942 95.8304 3.21933 96.8011 3.774C97.7718 4.31133 98.5258 5.074 99.0631 6.062C99.6178 7.05 99.8951 8.17667 99.8951 9.442C99.8951 10.6727 99.5484 11.86 98.8551 13.004C98.1791 14.1307 97.3644 15.1447 96.4111 16.046C95.4578 16.9473 94.2184 18.0133 92.6931 19.244C91.4971 20.2147 90.5784 20.9947 89.9371 21.584L87.7271 19.062ZM87.7271 19.062H100.155V22.13H87.9871L87.7271 19.062Z" fill="#D9D9D9"/>
<path d="M126 13L118 19L118 7L126 13Z" fill="#D9D9D9"/>
<path d="M150.528 19.218C151.325 19.218 152.019 18.9493 152.608 18.412C153.197 17.8747 153.657 17.1033 153.986 16.098C154.315 15.0927 154.48 13.9227 154.48 12.588C154.48 11.2533 154.315 10.092 153.986 9.104C153.657 8.09867 153.197 7.32733 152.608 6.79C152.019 6.23533 151.325 5.958 150.528 5.958C149.731 5.958 149.029 6.23533 148.422 6.79C147.815 7.32733 147.347 8.09867 147.018 9.104C146.706 10.092 146.55 11.2533 146.55 12.588C146.55 13.9227 146.706 15.0927 147.018 16.098C147.347 17.1033 147.815 17.8747 148.422 18.412C149.029 18.9493 149.731 19.218 150.528 19.218ZM150.528 22.312C149.072 22.312 147.772 21.9047 146.628 21.09C145.501 20.258 144.617 19.1053 143.976 17.632C143.335 16.1587 143.014 14.4773 143.014 12.588C143.014 10.716 143.335 9.04333 143.976 7.57C144.617 6.09667 145.501 4.95267 146.628 4.138C147.772 3.306 149.072 2.89 150.528 2.89C151.967 2.89 153.258 3.306 154.402 4.138C155.546 4.95267 156.43 6.09667 157.054 7.57C157.695 9.04333 158.016 10.716 158.016 12.588C158.016 14.46 157.695 16.1327 157.054 17.606C156.43 19.0793 155.546 20.232 154.402 21.064C153.258 21.896 151.967 22.312 150.528 22.312ZM170.581 12.276C171.448 12.7613 172.15 13.4287 172.687 14.278C173.242 15.11 173.519 15.9333 173.519 16.748C173.519 17.8227 173.233 18.7847 172.661 19.634C172.089 20.466 171.292 21.116 170.269 21.584C169.246 22.052 168.085 22.286 166.785 22.286C165.485 22.286 164.324 22.0433 163.301 21.558C162.296 21.0553 161.507 20.362 160.935 19.478C160.363 18.5767 160.077 17.5627 160.077 16.436H163.613C163.613 16.956 163.743 17.424 164.003 17.84C164.28 18.256 164.662 18.5853 165.147 18.828C165.632 19.0533 166.178 19.166 166.785 19.166C167.444 19.166 168.016 19.0533 168.501 18.828C169.004 18.5853 169.394 18.2647 169.671 17.866C169.966 17.45 170.113 16.982 170.113 16.462C170.113 15.9247 169.974 15.448 169.697 15.032C169.42 14.616 169.03 14.2953 168.527 14.07C168.042 13.8273 167.478 13.706 166.837 13.706H165.537V10.872H166.889C167.461 10.872 167.964 10.768 168.397 10.56C168.848 10.352 169.203 10.066 169.463 9.702C169.723 9.32067 169.853 8.88733 169.853 8.402C169.853 7.726 169.584 7.17133 169.047 6.738C168.51 6.28733 167.816 6.062 166.967 6.062C166.43 6.062 165.953 6.166 165.537 6.374C165.121 6.56467 164.792 6.842 164.549 7.206C164.324 7.55267 164.211 7.96 164.211 8.428H160.675C160.675 7.37067 160.944 6.426 161.481 5.594C162.018 4.74467 162.764 4.09467 163.717 3.644C164.67 3.176 165.754 2.942 166.967 2.942C168.18 2.942 169.255 3.16733 170.191 3.618C171.144 4.05133 171.881 4.658 172.401 5.438C172.938 6.218 173.207 7.11067 173.207 8.116C173.207 8.86133 172.964 9.624 172.479 10.404C171.994 11.184 171.361 11.808 170.581 12.276Z" fill="#D9D9D9"/>
<path d="M199 13L191 19L191 7L199 13Z" fill="#D9D9D9"/>
<path d="M223.528 19.218C224.325 19.218 225.019 18.9493 225.608 18.412C226.197 17.8747 226.657 17.1033 226.986 16.098C227.315 15.0927 227.48 13.9227 227.48 12.588C227.48 11.2533 227.315 10.092 226.986 9.104C226.657 8.09867 226.197 7.32733 225.608 6.79C225.019 6.23533 224.325 5.958 223.528 5.958C222.731 5.958 222.029 6.23533 221.422 6.79C220.815 7.32733 220.347 8.09867 220.018 9.104C219.706 10.092 219.55 11.2533 219.55 12.588C219.55 13.9227 219.706 15.0927 220.018 16.098C220.347 17.1033 220.815 17.8747 221.422 18.412C222.029 18.9493 222.731 19.218 223.528 19.218ZM223.528 22.312C222.072 22.312 220.772 21.9047 219.628 21.09C218.501 20.258 217.617 19.1053 216.976 17.632C216.335 16.1587 216.014 14.4773 216.014 12.588C216.014 10.716 216.335 9.04333 216.976 7.57C217.617 6.09667 218.501 4.95267 219.628 4.138C220.772 3.306 222.072 2.89 223.528 2.89C224.967 2.89 226.258 3.306 227.402 4.138C228.546 4.95267 229.43 6.09667 230.054 7.57C230.695 9.04333 231.016 10.716 231.016 12.588C231.016 14.46 230.695 16.1327 230.054 17.606C229.43 19.0793 228.546 20.232 227.402 21.064C226.258 21.896 224.967 22.312 223.528 22.312ZM244.907 14.564H246.961V17.606H244.907V22.156H241.423V17.606H233.337L233.077 14.564L241.579 3.072H244.907V14.564ZM241.423 14.564V8.818L237.185 14.564H241.423Z" fill="#D9D9D9"/>
<path d="M273 13L265 19L265 7L273 13Z" fill="#D9D9D9"/>
<path d="M297.554 19.348C298.369 19.348 299.079 19.0707 299.686 18.516C300.293 17.9613 300.761 17.1727 301.09 16.15C301.437 15.1273 301.61 13.94 301.61 12.588C301.61 11.236 301.437 10.0573 301.09 9.052C300.761 8.02933 300.293 7.24067 299.686 6.686C299.079 6.114 298.369 5.828 297.554 5.828C296.757 5.828 296.046 6.10533 295.422 6.66C294.815 7.21467 294.339 8.00333 293.992 9.026C293.663 10.0487 293.498 11.236 293.498 12.588C293.498 13.94 293.663 15.1273 293.992 16.15C294.339 17.1727 294.815 17.9613 295.422 18.516C296.046 19.0707 296.757 19.348 297.554 19.348ZM297.58 22.286C296.141 22.286 294.859 21.8787 293.732 21.064C292.605 20.232 291.721 19.0793 291.08 17.606C290.456 16.1327 290.144 14.46 290.144 12.588C290.144 10.716 290.456 9.04333 291.08 7.57C291.721 6.09667 292.605 4.95267 293.732 4.138C294.859 3.306 296.133 2.89 297.554 2.89C298.993 2.89 300.275 3.306 301.402 4.138C302.529 4.95267 303.404 6.09667 304.028 7.57C304.652 9.04333 304.964 10.716 304.964 12.588C304.964 14.46 304.652 16.1327 304.028 17.606C303.404 19.0793 302.529 20.232 301.402 21.064C300.275 21.8787 299.001 22.286 297.58 22.286ZM308.843 11.652C309.433 11.0107 310.204 10.482 311.157 10.066C312.128 9.63267 313.064 9.416 313.965 9.416C315.3 9.416 316.487 9.69333 317.527 10.248C318.567 10.8027 319.382 11.5653 319.971 12.536C320.561 13.5067 320.855 14.6247 320.855 15.89C320.855 17.138 320.561 18.256 319.971 19.244C319.382 20.232 318.567 21.0033 317.527 21.558C316.487 22.0953 315.3 22.364 313.965 22.364C312.908 22.364 311.911 22.1473 310.975 21.714C310.057 21.2807 309.268 20.6827 308.609 19.92C307.968 19.14 307.535 18.2473 307.309 17.242L310.559 16.462C310.75 17.2767 311.157 17.944 311.781 18.464C312.423 18.9667 313.151 19.218 313.965 19.218C314.641 19.218 315.248 19.0793 315.785 18.802C316.323 18.5247 316.739 18.1347 317.033 17.632C317.345 17.112 317.501 16.5313 317.501 15.89C317.501 15.2487 317.345 14.6767 317.033 14.174C316.739 13.6713 316.323 13.2813 315.785 13.004C315.248 12.7093 314.641 12.562 313.965 12.562C313.532 12.562 313.064 12.692 312.561 12.952C312.076 13.1947 311.651 13.5153 311.287 13.914L308.843 11.652ZM307.933 13.55L308.609 3.098H319.243V6.036H311.833L311.287 13.914L307.933 13.55Z" fill="#D9D9D9"/>
<path d="M347 13L339 19L339 7L347 13Z" fill="#D9D9D9"/>
<path d="M371.554 19.348C372.369 19.348 373.079 19.0707 373.686 18.516C374.293 17.9613 374.761 17.1727 375.09 16.15C375.437 15.1273 375.61 13.94 375.61 12.588C375.61 11.236 375.437 10.0573 375.09 9.052C374.761 8.02933 374.293 7.24067 373.686 6.686C373.079 6.114 372.369 5.828 371.554 5.828C370.757 5.828 370.046 6.10533 369.422 6.66C368.815 7.21467 368.339 8.00333 367.992 9.026C367.663 10.0487 367.498 11.236 367.498 12.588C367.498 13.94 367.663 15.1273 367.992 16.15C368.339 17.1727 368.815 17.9613 369.422 18.516C370.046 19.0707 370.757 19.348 371.554 19.348ZM371.58 22.286C370.141 22.286 368.859 21.8787 367.732 21.064C366.605 20.232 365.721 19.0793 365.08 17.606C364.456 16.1327 364.144 14.46 364.144 12.588C364.144 10.716 364.456 9.04333 365.08 7.57C365.721 6.09667 366.605 4.95267 367.732 4.138C368.859 3.306 370.133 2.89 371.554 2.89C372.993 2.89 374.275 3.306 375.402 4.138C376.529 4.95267 377.404 6.09667 378.028 7.57C378.652 9.04333 378.964 10.716 378.964 12.588C378.964 14.46 378.652 16.1327 378.028 17.606C377.404 19.0793 376.529 20.232 375.402 21.064C374.275 21.8787 373.001 22.286 371.58 22.286ZM388.069 19.374C388.728 19.374 389.317 19.2267 389.837 18.932C390.375 18.6373 390.791 18.23 391.085 17.71C391.38 17.1727 391.527 16.566 391.527 15.89C391.527 15.214 391.371 14.6073 391.059 14.07C390.765 13.5327 390.357 13.1167 389.837 12.822C389.335 12.5273 388.745 12.38 388.069 12.38C387.393 12.38 386.795 12.5273 386.275 12.822C385.755 13.1167 385.348 13.5327 385.053 14.07C384.776 14.6073 384.637 15.214 384.637 15.89C384.637 16.566 384.776 17.1727 385.053 17.71C385.348 18.23 385.755 18.6373 386.275 18.932C386.795 19.2267 387.393 19.374 388.069 19.374ZM381.283 15.89C381.283 14.7807 381.647 13.5587 382.375 12.224L387.497 3.02H391.345L387.679 9.52C387.887 9.48533 388.052 9.468 388.173 9.468C389.473 9.468 390.626 9.74533 391.631 10.3C392.654 10.8547 393.451 11.6173 394.023 12.588C394.595 13.5587 394.881 14.668 394.881 15.916C394.881 17.1467 394.587 18.2473 393.997 19.218C393.425 20.1887 392.619 20.9427 391.579 21.48C390.557 22.0173 389.387 22.286 388.069 22.286C386.752 22.286 385.573 22.0173 384.533 21.48C383.511 20.9427 382.713 20.1887 382.141 19.218C381.569 18.2473 381.283 17.138 381.283 15.89Z" fill="#231815"/>
</svg>
