<svg width="702" height="266" viewBox="0 0 702 266" fill="none" xmlns="http://www.w3.org/2000/svg">
<path d="M1 27.7284C1 12.4388 12.9297 0 27.5915 0C42.2533 0 54.1829 12.4388 54.1829 27.7284C54.1829 28.1357 53.8775 28.4581 53.4872 28.4581C53.0969 28.4581 52.7914 28.1357 52.7914 27.7284C52.7914 13.2533 41.4896 1.45939 27.5915 1.45939C13.6933 1.45939 2.39153 13.2363 2.39153 27.7284C2.39153 28.1357 2.08606 28.4581 1.69576 28.4581C1.30546 28.4581 1 28.1357 1 27.7284Z" fill="#47BCC6"/>
<path d="M6.70312 27.7174C6.70312 15.7029 16.0704 5.94531 27.5928 5.94531C39.1152 5.94531 48.4824 15.7198 48.4824 27.7174C48.4824 28.1247 48.177 28.4471 47.7867 28.4471C47.3964 28.4471 47.0909 28.1247 47.0909 27.7174C47.0909 16.5174 38.3515 7.38773 27.5928 7.38773C16.834 7.38773 8.09465 16.5004 8.09465 27.7174C8.09465 28.1247 7.78919 28.4471 7.39889 28.4471C7.00859 28.4471 6.70312 28.1247 6.70312 27.7174Z" fill="#47BCC6"/>
<path d="M12.624 27.7293C12.624 19.1257 19.344 12.1172 27.5913 12.1172C35.8385 12.1172 42.5585 19.1257 42.5585 27.7293C42.5585 28.1366 42.2531 28.459 41.8628 28.459C41.4724 28.459 41.167 28.1366 41.167 27.7293C41.167 19.9232 35.0749 13.5766 27.5913 13.5766C20.1076 13.5766 14.0155 19.9232 14.0155 27.7293C14.0155 28.1366 13.7101 28.459 13.3198 28.459C12.9295 28.459 12.624 28.1366 12.624 27.7293Z" fill="#47BCC6"/>
<path d="M35.2461 27.7258C35.2461 23.3136 31.8182 19.75 27.5928 19.75C23.3673 19.75 19.9395 23.3136 19.9395 27.7258" fill="#EFF8F9"/>
<path d="M19.2422 27.7289C19.2422 22.9265 22.9925 19.0234 27.5913 19.0234C32.19 19.0234 35.9403 22.9265 35.9403 27.7289C35.9403 28.1362 35.6349 28.4586 35.2446 28.4586C34.8543 28.4586 34.5488 28.1362 34.5488 27.7289C34.5488 23.724 31.4264 20.4828 27.5913 20.4828C23.7561 20.4828 20.6337 23.741 20.6337 27.7289C20.6337 28.1362 20.3283 28.4586 19.938 28.4586C19.5476 28.4586 19.2422 28.1362 19.2422 27.7289Z" fill="#47BCC6"/>
<path d="M218.856 61.4766H60.9023V228.2H218.856V61.4766Z" fill="#E8380D"/>
<path d="M218.856 61.4766H60.9023V228.2H218.856V61.4766Z" stroke="#231815" stroke-width="0.851417" stroke-miterlimit="10"/>
<path d="M100.392 228.252V61.8672" stroke="#231815" stroke-width="0.962471" stroke-linecap="round" stroke-linejoin="round" stroke-dasharray="2.87 1.54 0.39 1.54"/>
<path d="M139.88 228.252V61.8672" stroke="#231815" stroke-width="0.962471" stroke-linecap="round" stroke-linejoin="round" stroke-dasharray="2.3 1.91"/>
<path d="M179.369 228.252V61.8672" stroke="#231815" stroke-width="0.962471" stroke-linecap="round" stroke-linejoin="round" stroke-dasharray="2.87 1.54 0.39 1.54"/>
<mask id="mask0_789_3984" style="mask-type:luminance" maskUnits="userSpaceOnUse" x="50" y="44" width="185" height="186">
<path d="M234.3 44.9375H50.1963V229.445H234.3V44.9375Z" fill="white"/>
</mask>
<g mask="url(#mask0_789_3984)">
<path d="M24.5547 35.0586C24.5547 27.9144 30.3753 22.0938 37.5195 22.0938C44.6637 22.0938 50.4843 27.9144 50.4843 35.0586C50.4843 42.2028 44.6128 48.0234 37.5195 48.0234C30.4262 48.0234 24.5547 42.2028 24.5547 35.0586ZM39.2504 42.101V27.6937H37.5025C36.5522 28.2028 35.5001 28.5762 34.0238 28.8307V30.3071H36.9765V42.101H39.2504Z" fill="#30A6DF"/>
</g>
<path d="M328.55 62.6172H290.877V228.985H328.55V62.6172Z" fill="#F29B80"/>
<mask id="mask1_789_3984" style="mask-type:luminance" maskUnits="userSpaceOnUse" x="266" y="57" width="96" height="173">
<path d="M361.777 57.2344H266.832V229.456H361.777V57.2344Z" fill="white"/>
</mask>
<g mask="url(#mask1_789_3984)">
<path d="M328.55 62.6016H290.877V228.969H328.55V62.6016Z" stroke="#231815" stroke-width="0.851417" stroke-miterlimit="10"/>
</g>
<path d="M290.758 63.0391V138.061H307.524V144.713H290.758V206.142H307.524V213.998H290.758V229.033H321.032V190.598H298.224V182.13H328.278V167.587H298.224V159.001H321.032V122.958H298.224V112.997H321.32V97.4868H298.224V89.2567H328.278V74.4255H298.224V63.0391H290.758Z" fill="#E8380D"/>
<mask id="mask2_789_3984" style="mask-type:luminance" maskUnits="userSpaceOnUse" x="266" y="57" width="96" height="173">
<path d="M361.777 57.2344H266.832V229.456H361.777V57.2344Z" fill="white"/>
</mask>
<g mask="url(#mask2_789_3984)">
<path d="M298.224 190.582V182.114H328.278V167.572H298.224V158.985H321.032V122.942H298.224V112.981H321.32V97.4712H298.224V89.2411H328.278V74.4099H298.224V63.0234H290.758V138.045H307.524V144.697H290.758V206.126H307.524V213.983H290.758V229.018H321.032V190.582H298.224Z" stroke="#231815" stroke-width="0.851417" stroke-miterlimit="10"/>
</g>
<mask id="mask3_789_3984" style="mask-type:luminance" maskUnits="userSpaceOnUse" x="369" y="48" width="68" height="182">
<path d="M436.903 48.2031H369.771V229.47H436.903V48.2031Z" fill="white"/>
</mask>
<g mask="url(#mask3_789_3984)">
<g style="mix-blend-mode:multiply">
<mask id="mask4_789_3984" style="mask-type:luminance" maskUnits="userSpaceOnUse" x="401" y="62" width="38" height="168">
<path d="M438.753 62.7109H401.183V229.044H438.753V62.7109Z" fill="white"/>
</mask>
<g mask="url(#mask4_789_3984)">
<path d="M408.666 62.7109L401.183 63.0334V138.055L417.966 137.325V143.977L401.183 144.707V206.136L417.966 205.406V213.263L401.183 213.993V229.027L431.507 227.704V189.251L408.666 190.253V181.802L438.753 180.495V165.935L408.666 167.259V158.656L431.507 157.654V121.629L408.666 122.63V112.669L431.796 111.651V96.1405L408.666 97.1417V88.9286L438.753 87.605V72.7737L408.666 74.0974V62.7109Z" fill="#DCDDDD"/>
</g>
</g>
</g>
<path d="M397.089 63.0247V138.046L414.517 136.926V143.578L397.089 144.698V206.127L414.517 204.99V212.864L397.089 213.984V229.019L428.585 226.983V188.547L404.861 190.074V181.623L436.119 179.604V165.044L404.861 167.064V158.477L428.585 156.95V120.907L404.861 122.434V112.49L428.89 110.929V95.4022L404.861 96.9634V88.7333L436.119 86.7139V71.8827L404.861 73.902V62.5156L397.089 63.0247Z" fill="#E8380D"/>
<mask id="mask5_789_3984" style="mask-type:luminance" maskUnits="userSpaceOnUse" x="369" y="48" width="68" height="182">
<path d="M436.903 48.2031H369.771V229.47H436.903V48.2031Z" fill="white"/>
</mask>
<g mask="url(#mask5_789_3984)">
<path d="M404.864 190.082V181.631L436.122 179.612V165.052L404.864 167.072V158.485L428.588 156.958V120.915L404.864 122.442V112.498L428.893 110.937V95.41L404.864 96.9712V88.7411L436.122 86.7217V71.8905L404.864 73.9099V62.5234L397.092 63.0325V138.054L414.52 136.934V143.586L397.092 144.706V206.135L414.52 205.015V212.872L397.092 213.992V229.027L428.588 226.99V188.555L404.864 190.082Z" stroke="#231815" stroke-width="0.851417" stroke-miterlimit="10"/>
</g>
<g style="mix-blend-mode:multiply">
<mask id="mask6_789_3984" style="mask-type:luminance" maskUnits="userSpaceOnUse" x="466" y="42" width="230" height="197">
<path d="M695.504 42.4453H466.362V238.373H695.504V42.4453Z" fill="white"/>
</mask>
<g mask="url(#mask6_789_3984)">
<mask id="mask7_789_3984" style="mask-type:luminance" maskUnits="userSpaceOnUse" x="481" y="54" width="175" height="183">
<path d="M655.284 54.3047H481.634V236.657H655.284V54.3047Z" fill="white"/>
</mask>
<g mask="url(#mask7_789_3984)">
<g style="mix-blend-mode:multiply">
<mask id="mask8_789_3984" style="mask-type:luminance" maskUnits="userSpaceOnUse" x="503" y="62" width="77" height="169">
<path d="M579.431 62.1484H503.712V230.264H579.431V62.1484Z" fill="white"/>
</mask>
<g mask="url(#mask8_789_3984)">
<path d="M524.89 206.423L541.962 205.252L558.66 205.948V213.805L541.996 213.109H541.962H541.894L524.89 214.263V206.406V206.423ZM524.89 138.342L541.962 137.188L558.66 137.884V144.536L541.996 143.84H541.962H541.894L524.89 144.994V138.342ZM541.962 62.1498H541.894L534.376 62.6589V74.0453L503.695 76.1325V90.9637L534.376 88.8765V97.1066L510.806 98.7187V114.246L534.376 112.634V122.595L511.094 124.173V160.199L534.376 158.604V167.19L503.695 169.277V183.837L534.376 181.75V190.2L511.094 191.796V230.248H511.111L541.962 228.144L572.168 229.4V190.947L549.361 189.997V181.546L579.414 182.802V168.242L549.361 166.986V158.4L572.168 159.35V123.324L549.361 122.374V112.413L572.456 113.38V97.8533L549.361 96.8861V88.6559L579.414 89.9116V75.0804L549.361 73.8247V62.4383L541.996 62.1328H541.962V62.1498Z" fill="#DCDDDD"/>
</g>
</g>
</g>
<mask id="mask9_789_3984" style="mask-type:luminance" maskUnits="userSpaceOnUse" x="481" y="54" width="175" height="183">
<path d="M655.284 54.3047H481.634V236.657H655.284V54.3047Z" fill="white"/>
</mask>
<g mask="url(#mask9_789_3984)">
<g style="mix-blend-mode:multiply">
<mask id="mask10_789_3984" style="mask-type:luminance" maskUnits="userSpaceOnUse" x="579" y="62" width="77" height="169">
<path d="M655.132 62.1484H579.413V230.264H655.132V62.1484Z" fill="white"/>
</mask>
<g mask="url(#mask10_789_3984)">
<path d="M600.608 206.417L617.68 205.246L634.378 205.942V213.798L617.714 213.103H617.68H617.612L600.608 214.257V206.4V206.417ZM600.608 138.336L617.68 137.182L634.378 137.878V144.53L617.714 143.834H617.68H617.612L600.608 144.988V138.336ZM617.68 62.1433H617.612L610.094 62.6524V74.0388L579.413 76.126V89.9052L610.094 88.87V97.1002L586.523 98.7123V114.239L610.094 112.627V122.588L586.812 124.166V160.192L610.094 158.597V167.184L579.413 169.271V183.033L610.094 181.726V190.177L586.812 191.772V230.225H586.829L617.68 228.12L647.886 229.376V190.924L625.078 189.973V181.523L655.132 182.778V168.219L625.078 166.963V158.376L647.886 159.327V123.301L625.078 122.351V112.39L648.174 113.357V97.8299L625.078 96.8626V88.6325L655.132 89.8882V75.057L625.078 73.8013V62.4148L617.714 62.1094H617.68V62.1433Z" fill="#DCDDDD"/>
</g>
</g>
</g>
<path d="M549.631 185.535V177.084H579.684V162.525H549.631V153.938H572.438V117.895H549.631V107.934H572.726V92.4243H549.631V84.1942H579.684V69.363H549.631V57.9766H542.164V132.998H558.93V139.667H542.164V201.079H558.93V208.936H542.164V223.988H572.438V185.535H549.631Z" fill="#E8380D"/>
<path d="M549.631 185.535V177.084H579.684V162.525H549.631V153.938H572.438V117.895H549.631V107.934H572.726V92.4243H549.631V84.1942H579.684V69.363H549.631V57.9766H542.164V132.998H558.93V139.667H542.164V201.079H558.93V208.936H542.164V223.988H572.438V185.535H549.631Z" stroke="#231815" stroke-width="0.851417" stroke-miterlimit="10"/>
<path d="M534.544 185.535V177.084H504.491V162.525H534.544V153.938H511.72V117.895H534.544V107.934H511.449V92.4243H534.544V84.1942H504.491V69.363H534.544V57.9766H542.011V132.998H525.245V139.667H542.011V201.079H525.245V208.936H542.011V223.988H511.72V185.535H534.544Z" fill="#D9340A"/>
<path d="M534.544 185.535V177.084H504.491V162.525H534.544V153.938H511.72V117.895H534.544V107.934H511.449V92.4243H534.544V84.1942H504.491V69.363H534.544V57.9766H542.011V132.998H525.245V139.667H542.011V201.079H525.245V208.936H542.011V223.988H511.72V185.535H534.544Z" stroke="#231815" stroke-width="0.851417" stroke-miterlimit="10"/>
<path d="M617.358 57.9766V132.998H634.124V139.667H617.358V201.079H634.124V208.936H617.358V223.988H647.632V185.535H624.825V177.084H654.878V162.525H624.825V153.938H647.632V117.895H624.825V107.934H647.921V92.4243H624.825V84.1942H654.878V69.363H624.825V57.9766H617.358Z" fill="#E8380D"/>
<path d="M624.825 185.535V177.084H654.878V162.525H624.825V153.938H647.632V117.895H624.825V107.934H647.921V92.4243H624.825V84.1942H654.878V69.363H624.825V57.9766H617.358V132.998H634.124V139.667H617.358V201.079H634.124V208.936H617.358V223.988H647.632V185.535H624.825Z" stroke="#231815" stroke-width="0.851417" stroke-miterlimit="10"/>
<path d="M609.72 185.535V177.084H579.667V162.525H609.72V153.938H586.913V117.895H609.72V107.934H586.625V92.4243H609.72V84.1942H579.667V69.363H609.72V57.9766H617.187V132.998H600.438V139.667H617.187V201.079H600.438V208.936H617.187V223.988H586.913V185.535H609.72Z" fill="#D9340A"/>
<path d="M609.72 185.535V177.084H579.667V162.525H609.72V153.938H586.913V117.895H609.72V107.934H586.625V92.4243H609.72V84.1942H579.667V69.363H609.72V57.9766H617.187V132.998H600.438V139.667H617.187V201.079H600.438V208.936H617.187V223.988H586.913V185.535H609.72Z" stroke="#231815" stroke-width="0.851417" stroke-miterlimit="10"/>
<mask id="mask11_789_3984" style="mask-type:luminance" maskUnits="userSpaceOnUse" x="481" y="54" width="175" height="183">
<path d="M655.284 54.3047H481.634V236.657H655.284V54.3047Z" fill="white"/>
</mask>
<g mask="url(#mask11_789_3984)">
<path d="M461.591 42.293C461.591 35.1487 467.411 29.3281 474.556 29.3281C481.7 29.3281 487.52 35.1487 487.52 42.293C487.52 49.4372 481.649 55.2578 474.556 55.2578C467.462 55.2578 461.591 49.4372 461.591 42.293ZM477.508 49.3354V45.5002H479.647V43.7523H477.508V34.9281H474.895L468.226 43.973V45.5002H475.353V49.3354H477.525H477.508ZM474.047 39.1536C474.403 38.6614 475.014 37.6602 475.302 37.1851H475.421C475.37 38.0166 475.336 39.2724 475.336 40.0699V43.7354H470.585L474.064 39.1536H474.047Z" fill="#30A6DF"/>
</g>
</g>
</g>
<path d="M1.67969 26.9375V252.138C1.67969 254.887 3.95361 257.11 6.70269 257.11C9.45178 257.11 11.6918 254.887 11.6918 252.138C11.6918 249.389 9.43482 247.166 6.68573 247.166" stroke="#47BCC6" stroke-width="1.46222" stroke-miterlimit="10"/>
<path d="M701 247.617V43.1533C701 40.4043 698.726 38.1813 695.977 38.1813C693.228 38.1813 690.988 40.4043 690.988 43.1533C690.988 45.9023 693.245 48.1253 695.994 48.1253M206.826 27.6094H686.067C688.816 27.6094 691.039 29.8833 691.039 32.6323C691.039 35.3813 688.816 37.6213 686.067 37.6213C683.317 37.6213 681.094 35.3644 681.094 32.6153" stroke="#47BCC6" stroke-width="1.46222" stroke-miterlimit="10"/>
<path d="M700.999 247.617V43.1533C700.999 40.4043 698.725 38.1813 695.976 38.1813C693.227 38.1813 690.987 40.4043 690.987 43.1533C690.987 45.9023 693.243 48.1253 695.993 48.1253M52.9609 27.6094H686.065C688.814 27.6094 691.037 29.8833 691.037 32.6323C691.037 35.3813 688.814 37.6213 686.065 37.6213C683.316 37.6213 681.093 35.3644 681.093 32.6153" stroke="#47BCC6" stroke-width="1.46222" stroke-miterlimit="10"/>
<path d="M692.243 264.506C692.243 254.613 684.217 246.586 674.323 246.586C664.43 246.586 656.403 254.613 656.403 264.506" fill="#EFF8F9"/>
<path d="M655.928 264.497C655.928 254.349 664.175 246.102 674.323 246.102C684.471 246.102 692.718 254.349 692.718 264.497C692.718 264.768 692.497 264.989 692.226 264.989C691.954 264.989 691.751 264.768 691.751 264.497C691.751 254.892 683.928 247.069 674.323 247.069C664.718 247.069 656.895 254.892 656.895 264.497C656.895 264.768 656.674 264.989 656.42 264.989C656.165 264.989 655.945 264.768 655.945 264.497" fill="#47BCC6"/>
<path d="M688.307 264.513C688.307 256.792 682.045 250.547 674.341 250.547C666.637 250.547 660.375 256.809 660.375 264.513" fill="#EFF8F9"/>
<path d="M659.882 264.505C659.882 256.529 666.364 250.047 674.34 250.047C682.316 250.047 688.798 256.529 688.798 264.505C688.798 264.777 688.578 264.997 688.323 264.997C688.068 264.997 687.831 264.777 687.831 264.505C687.831 257.072 681.773 251.014 674.34 251.014C666.907 251.014 660.849 257.072 660.849 264.505C660.849 264.777 660.628 264.997 660.374 264.997C660.119 264.997 659.899 264.777 659.899 264.505" fill="#47BCC6"/>
<path d="M684.199 264.501C684.199 259.054 679.77 254.625 674.323 254.625C668.875 254.625 664.446 259.054 664.446 264.501" fill="#EFF8F9"/>
<path d="M663.972 264.501C663.972 258.783 668.621 254.133 674.34 254.133C680.059 254.133 684.709 258.783 684.709 264.501C684.709 264.773 684.488 264.993 684.217 264.993C683.945 264.993 683.741 264.773 683.741 264.501C683.741 259.326 679.533 255.1 674.34 255.1C669.148 255.1 664.939 259.309 664.939 264.501C664.939 264.773 664.718 264.993 664.464 264.993C664.209 264.993 663.989 264.773 663.989 264.501" fill="#47BCC6"/>
<path d="M679.616 264.513C679.616 261.594 677.241 259.219 674.322 259.219C671.403 259.219 669.027 261.594 669.027 264.513" fill="#EFF8F9"/>
<path d="M668.555 264.504C668.555 261.314 671.151 258.734 674.324 258.734C677.498 258.734 680.111 261.331 680.111 264.504C680.111 264.776 679.89 264.996 679.619 264.996C679.347 264.996 679.144 264.776 679.144 264.504C679.144 261.857 676.989 259.685 674.324 259.685C671.66 259.685 669.505 261.84 669.505 264.504C669.505 264.776 669.284 264.996 669.03 264.996C668.775 264.996 668.555 264.776 668.555 264.504Z" fill="#47BCC6"/>
<path d="M28.6701 62.2139L21.8664 69.0175C19.0499 71.834 19.0499 76.4004 21.8664 79.2169L28.6701 86.0204C31.4866 88.8369 36.0531 88.8369 38.8696 86.0204L45.6734 79.2168C48.4899 76.4004 48.4899 71.834 45.6734 69.0175L38.8697 62.2139C36.0531 59.3974 31.4866 59.3974 28.6701 62.2139Z" fill="#62A8D4"/>
<mask id="mask12_789_3984" style="mask-type:luminance" maskUnits="userSpaceOnUse" x="19" y="60" width="29" height="29">
<path d="M28.6773 62.2136L21.8725 69.0184C19.0555 71.8354 19.0555 76.4002 21.8725 79.2172L28.6773 86.022C31.4943 88.839 36.0591 88.839 38.8761 86.022L45.6809 79.2172C48.4979 76.4002 48.4979 71.8354 45.6809 69.0184L38.8761 62.2136C37.4676 60.8051 35.6179 60.1094 33.7682 60.1094C31.9185 60.1094 30.0688 60.8051 28.6604 62.2136" fill="white"/>
</mask>
<g mask="url(#mask12_789_3984)">
<path d="M34.824 66.7551V80.0366L33.0836 80.0183V68.642L30.8487 69.9793L30.0609 68.5504L33.102 66.7551H34.824Z" fill="white"/>
</g>
<path d="M256.215 62.2296L249.411 69.0331C246.595 71.8496 246.595 76.416 249.411 79.2325L256.215 86.0361C259.032 88.8525 263.598 88.8525 266.415 86.0361L273.218 79.2325C276.035 76.416 276.035 71.8496 273.218 69.0331L266.415 62.2296C263.598 59.4131 259.032 59.4131 256.215 62.2296Z" fill="#62A8D4"/>
<mask id="mask13_789_3984" style="mask-type:luminance" maskUnits="userSpaceOnUse" x="247" y="60" width="29" height="29">
<path d="M256.208 62.2136L249.403 69.0184C246.586 71.8354 246.586 76.4002 249.403 79.2172L256.208 86.022C259.025 88.839 263.589 88.839 266.406 86.022L273.211 79.2172C276.028 76.4002 276.028 71.8354 273.211 69.0184L266.406 62.2136C264.998 60.8051 263.148 60.1094 261.299 60.1094C259.449 60.1094 257.599 60.8051 256.191 62.2136" fill="white"/>
</mask>
<g mask="url(#mask13_789_3984)">
<path d="M257.136 78.5161C259.792 75.9514 263.548 73.1486 263.548 70.8586C263.548 69.2832 262.558 68.1657 261.129 68.1657C260.067 68.1657 258.986 68.9534 258.491 70.0709L256.953 69.4114C257.667 67.7443 259.407 66.5902 261.129 66.5902C263.584 66.5902 265.288 68.3489 265.288 70.8586C265.288 73.6615 262.082 76.2995 259.554 78.5161H265.508V80.0366H257.319L257.136 78.5161Z" fill="white"/>
</g>
<path d="M361.085 62.2295L354.281 69.0331C351.465 71.8496 351.465 76.416 354.281 79.2325L361.085 86.0361C363.902 88.8525 368.468 88.8525 371.285 86.0361L378.088 79.2325C380.905 76.416 380.905 71.8496 378.088 69.0331L371.285 62.2295C368.468 59.4131 363.902 59.4131 361.085 62.2295Z" fill="#62A8D4"/>
<mask id="mask14_789_3984" style="mask-type:luminance" maskUnits="userSpaceOnUse" x="352" y="60" width="29" height="29">
<path d="M361.083 62.2136L354.278 69.0184C351.461 71.8354 351.461 76.4002 354.278 79.2172L361.083 86.022C363.9 88.839 368.464 88.839 371.281 86.022L378.086 79.2172C380.903 76.4002 380.903 71.8354 378.086 69.0184L371.281 62.2136C369.873 60.8051 368.023 60.1094 366.173 60.1094C364.324 60.1094 362.474 60.8051 361.066 62.2136" fill="white"/>
</mask>
<g mask="url(#mask14_789_3984)">
<path d="M368.896 73.1669C370.086 73.863 370.801 75.1637 370.801 76.2812C370.801 78.5344 368.969 80.1466 366.349 80.1466C363.766 80.1466 361.934 78.5161 361.934 76.2079H363.675C363.675 77.6185 364.774 78.6077 366.349 78.6077C367.961 78.6077 369.097 77.6185 369.097 76.2079C369.097 74.8523 367.98 73.8996 366.386 73.8996H365.433V72.4158H366.404C367.87 72.4158 368.896 71.5364 368.896 70.309C368.896 69.045 367.906 68.1657 366.477 68.1657C365.049 68.1657 364.059 69.0633 364.059 70.3274H362.319C362.319 68.1474 364.041 66.6269 366.477 66.6269C368.896 66.6269 370.599 68.129 370.599 70.2541C370.599 71.2617 369.976 72.4707 368.896 73.1669Z" fill="white"/>
</g>
<path d="M466.902 62.2139L460.098 69.0175C457.281 71.834 457.281 76.4004 460.098 79.2169L466.902 86.0204C469.718 88.8369 474.285 88.8369 477.101 86.0204L483.905 79.2169C486.721 76.4004 486.721 71.834 483.905 69.0175L477.101 62.2139C474.285 59.3975 469.718 59.3975 466.902 62.2139Z" fill="#62A8D4"/>
<mask id="mask15_789_3984" style="mask-type:luminance" maskUnits="userSpaceOnUse" x="458" y="60" width="29" height="29">
<path d="M466.918 62.1042L460.113 68.9091C457.296 71.726 457.296 76.2909 460.113 79.1078L466.918 85.9127C469.735 88.7296 474.299 88.7296 477.116 85.9127L483.921 79.1078C486.738 76.2909 486.738 71.726 483.921 68.9091L477.116 62.1042C475.708 60.6957 473.858 60 472.008 60C470.159 60 468.309 60.6957 466.901 62.1042" fill="white"/>
</mask>
<g mask="url(#mask15_789_3984)">
<path d="M473.61 66.7368V74.9805H475.387V76.501H473.61V80.0366H471.87V76.501H466.117L465.934 74.9805L471.943 66.7368H473.61ZM468.023 74.9805H471.87V69.6679L468.023 74.9805Z" fill="white"/>
</g>
<path d="M692.736 264.325H18.395C15.6459 264.325 13.4229 262.051 13.4229 259.302C13.4229 256.552 15.6459 254.312 18.395 254.312C21.144 254.312 23.3671 256.569 23.3671 259.319" stroke="#47BCC6" stroke-width="1.46222" stroke-miterlimit="10"/>
<path d="M59.7318 2.82088C59.6978 3.36391 59.3924 3.65239 58.8324 3.68633C58.5269 3.68633 58.2893 3.60148 58.1366 3.43178C57.9839 3.26208 57.8821 3.07543 57.8481 2.87179C57.8142 2.76997 57.7803 2.63421 57.7803 2.49846C57.7803 2.3627 57.7972 2.22695 57.8481 2.09119C57.9839 1.54816 58.2215 1.14088 58.5439 0.886331C58.8833 0.631786 59.1378 0.428156 59.3075 0.309369C59.3924 0.275429 59.4433 0.275426 59.4942 0.292395C59.5281 0.292395 59.5621 0.343304 59.5791 0.411182C59.613 0.479061 59.613 0.546941 59.5791 0.59785C59.5451 0.665728 59.5112 0.699671 59.4772 0.73361C59.3245 0.801489 59.1548 0.903311 59.0021 1.05604C58.8494 1.20877 58.7136 1.4633 58.5948 1.81967C58.6287 1.81967 58.6627 1.81967 58.7306 1.81967C58.7984 1.81967 58.8663 1.81967 58.9512 1.81967C59.1718 1.81967 59.3584 1.90452 59.5112 2.09119C59.6639 2.27785 59.7318 2.53239 59.7318 2.85482V2.82088ZM71.1524 9.47299C71.3051 9.5239 71.4408 9.62571 71.5257 9.79541C71.6105 9.94813 71.6275 10.1518 71.5596 10.3724C71.4918 10.593 71.373 10.7627 71.2033 10.8475C71.0336 10.9493 70.8469 10.9663 70.6602 10.9324C70.3718 10.8475 70.0833 10.7627 69.7948 10.6439C69.5063 10.5251 69.2518 10.4063 68.9972 10.2706C68.7427 10.1518 68.5221 10.033 68.3524 9.91421C68.1827 9.79542 68.0469 9.71056 67.979 9.64269C67.8433 9.86329 67.6736 10.0839 67.4869 10.3384C67.3003 10.593 67.0796 10.8306 66.859 11.0681C66.6215 11.3057 66.3669 11.5263 66.1124 11.7469C65.8578 11.9506 65.5863 12.1203 65.3148 12.239C65.0942 12.3409 64.8736 12.3748 64.67 12.3239C64.4663 12.273 64.3136 12.1372 64.1948 11.9166C64.093 11.696 64.0421 11.5263 64.076 11.3736C64.1099 11.2209 64.1778 11.0851 64.3136 10.9833C64.7039 10.7457 65.0263 10.5081 65.2978 10.2706C65.5693 10.033 65.8069 9.79541 66.0105 9.57481C65.6202 9.42208 65.3148 9.25238 65.0942 9.09966C64.8736 8.94693 64.653 8.81117 64.4493 8.67542C64.3475 8.86208 64.1948 9.08268 64.0251 9.32026C63.8384 9.55783 63.6348 9.79542 63.3972 10.033C63.1597 10.2706 62.8881 10.5081 62.5827 10.7287C62.2772 10.9493 61.9548 11.153 61.6154 11.3057C61.4627 11.3906 61.276 11.3906 61.0894 11.3057C60.9027 11.2378 60.75 11.1021 60.6482 10.9154C60.4445 10.5081 60.4954 10.1857 60.7839 9.98207C61.2251 9.65965 61.5815 9.37117 61.8699 9.09966C62.1584 8.82814 62.379 8.59056 62.5657 8.35299C62.7354 8.13238 62.8712 7.91178 62.973 7.69117C63.0578 7.47057 63.1257 7.26694 63.1766 7.0633C63.1766 6.97845 63.1766 6.84269 63.1766 6.62209C63.1766 6.40148 63.1766 6.18087 63.1427 5.92632C63.1087 5.67178 63.0918 5.41724 63.0578 5.16269C63.0239 4.90815 63.0069 4.70451 62.9899 4.53481C62.956 4.24633 63.0239 4.00876 63.1597 3.83906C63.2954 3.66937 63.533 3.58451 63.8724 3.58451C64.1609 3.58451 64.3645 3.66936 64.4833 3.82209C64.6021 3.97482 64.6869 4.17846 64.7378 4.44997C64.7378 4.50088 64.7718 4.63664 64.7887 4.87421C64.8057 5.09482 64.8397 5.34935 64.8566 5.62087C64.8566 5.90935 64.8906 6.18087 64.9075 6.43542C64.9245 6.70693 64.9415 6.89359 64.9415 7.01238C65.1281 7.19905 65.3827 7.40269 65.7051 7.62329C66.0275 7.8439 66.4009 8.04753 66.8081 8.2342C66.8421 8.16632 66.859 8.09845 66.893 8.0136C66.9269 7.92875 66.9269 7.72512 66.9269 7.36876C66.9269 7.02936 66.9269 6.63906 66.893 6.21482C66.859 5.79058 66.8421 5.36633 66.8081 4.92512C66.7742 4.50088 66.7572 4.17845 66.7403 3.94088C66.7063 3.34694 66.9778 3.04148 67.5548 2.97361C67.8263 2.93967 68.03 3.02452 68.1996 3.17725C68.3524 3.34694 68.4542 3.56754 68.4881 3.82209C68.4881 3.90694 68.5221 4.12755 68.556 4.50088C68.5899 4.87421 68.6069 5.26451 68.6408 5.70572C68.6408 6.1639 68.6748 6.60511 68.6918 7.02936C68.7087 7.47057 68.7087 7.77602 68.6918 7.97965C68.8445 8.11541 69.116 8.31905 69.5402 8.60753C69.9475 8.89602 70.5075 9.16753 71.1863 9.45602L71.1524 9.47299ZM69.659 12.816C70.8639 12.816 71.7633 13.1045 72.3742 13.6984C72.9851 14.2924 73.2905 15.039 73.2905 15.9554C73.2905 16.9396 72.9511 17.7202 72.2724 18.2802C71.5936 18.8402 70.7111 19.1287 69.5911 19.1287C68.9972 19.1287 68.4881 19.0439 68.0299 18.8742C67.5718 18.7045 67.1984 18.4839 66.9099 18.1954C66.6045 17.9069 66.3669 17.5845 66.2142 17.1942C66.0615 16.8039 65.9766 16.3966 65.9766 15.9554C65.9766 14.9881 66.2821 14.2245 66.9099 13.6645C67.5378 13.1045 68.4372 12.816 69.6251 12.816H69.659ZM69.6421 17.6354C69.8966 17.6354 70.1342 17.6015 70.3718 17.5166C70.6093 17.4318 70.813 17.3299 70.9827 17.1772C71.1524 17.0245 71.2881 16.8548 71.4069 16.6512C71.5087 16.4475 71.5596 16.2099 71.5596 15.9554C71.5596 15.4124 71.4069 14.9712 71.0845 14.6657C70.7621 14.3603 70.2869 14.1906 69.6421 14.1906C68.9972 14.1906 68.5221 14.3433 68.1996 14.6657C67.8772 14.9712 67.7245 15.4124 67.7245 15.9554C67.7245 16.176 67.7584 16.3796 67.8433 16.5833C67.9281 16.7869 68.0469 16.9566 68.1996 17.1263C68.3524 17.279 68.556 17.4148 68.7936 17.4996C69.0311 17.5845 69.3196 17.6354 69.6421 17.6354ZM72.3063 11.9166C72.0857 11.8827 71.899 11.7809 71.7802 11.5942C71.6615 11.4075 71.6106 11.1869 71.6784 10.9663C71.8821 9.96511 72.0008 9.04874 72.0348 8.2342C72.0687 7.41966 72.0687 6.68996 72.0348 6.06208C72.0008 5.45118 71.933 4.94209 71.8481 4.51785C71.7633 4.11058 71.7124 3.80512 71.6614 3.63542C71.6105 3.41482 71.6275 3.21118 71.7124 3.00754C71.7972 2.8039 71.9499 2.66815 72.1875 2.60027C72.459 2.51542 72.6966 2.5324 72.9002 2.7021C73.1039 2.85482 73.2227 3.04148 73.2736 3.26209C73.3245 3.48269 73.3924 3.83906 73.4942 4.33118C73.579 4.8233 73.6469 5.46815 73.6978 6.24875C74.0372 6.21481 74.3596 6.21481 74.6481 6.23178C74.9366 6.23178 75.259 6.2827 75.5984 6.33361C75.853 6.36754 76.0396 6.45239 76.1414 6.57118C76.2602 6.68997 76.3111 6.87662 76.3111 7.13117C76.3111 7.40268 76.2263 7.58936 76.0736 7.70814C75.9208 7.82693 75.7172 7.89481 75.4796 7.89481H75.276C75.276 7.89481 75.1233 7.89481 74.9875 7.87784C74.8687 7.87784 74.699 7.87784 74.4954 7.87784C74.2917 7.87784 74.0033 7.87784 73.6639 7.87784C73.6299 8.38693 73.596 8.92997 73.5281 9.48996C73.4602 10.05 73.3754 10.6609 73.2396 11.3057C73.2057 11.5094 73.1039 11.679 72.9342 11.8148C72.7645 11.9506 72.5439 12.0015 72.2893 11.9506L72.3063 11.9166ZM77.0408 14.4621C77.0748 14.2075 77.1766 14.0209 77.3802 13.919C77.5839 13.8172 77.7875 13.7833 78.0251 13.8172C78.636 13.936 79.2808 14.0378 79.9596 14.1057C80.6384 14.1736 81.3341 14.2075 82.0469 14.2075C82.7596 14.2075 83.4384 14.1736 84.1172 14.1057C84.8129 14.0378 85.4748 13.953 86.1026 13.8172C86.3233 13.7663 86.5608 13.8172 86.7984 13.953C87.036 14.0887 87.1548 14.3094 87.1548 14.5809C87.1548 14.8015 87.0869 14.9881 86.9511 15.1409C86.8154 15.2936 86.6457 15.3954 86.459 15.4293C86.3063 15.4633 85.9669 15.5142 85.4069 15.5821C84.8469 15.6669 84.1681 15.7178 83.3705 15.7687C82.556 15.8027 81.6566 15.8196 80.6723 15.7687C79.6881 15.7348 78.6869 15.616 77.6857 15.3954C77.499 15.3615 77.3293 15.2596 77.1936 15.0899C77.0578 14.9372 77.0069 14.7166 77.0408 14.4451V14.4621ZM78.2287 6.46935C77.9742 6.43541 77.7536 6.36754 77.5839 6.23178C77.3972 6.09602 77.3293 5.87542 77.3802 5.56996C77.4651 5.09481 77.7705 4.87421 78.2966 4.90815C78.9075 4.95906 79.5014 4.99299 80.0954 5.00996C80.6723 5.00996 81.2493 5.00996 81.8263 5.00996C82.4033 5.00996 82.9802 5.00997 83.5742 4.97603C84.1681 4.95906 84.779 4.92511 85.4238 4.89117C85.9669 4.85723 86.2384 5.11178 86.2384 5.68875C86.2384 6.1639 85.9838 6.40148 85.4748 6.45239C84.762 6.52027 83.7948 6.55421 82.5899 6.55421C81.3851 6.55421 79.9427 6.53723 78.2457 6.46935H78.2287ZM82.0299 6.99542C83.1669 6.99542 84.0663 7.24996 84.7281 7.75905C85.3899 8.26814 85.7293 8.99784 85.7293 9.96511C85.7293 10.4403 85.6275 10.8645 85.4238 11.2378C85.2202 11.6112 84.9487 11.9166 84.6263 12.1712C84.2869 12.4257 83.8796 12.6124 83.4214 12.7481C82.9633 12.8669 82.4881 12.9348 81.962 12.9348C80.842 12.9348 79.9427 12.6803 79.2808 12.1712C78.619 11.6621 78.2796 10.9324 78.2796 9.96511C78.2796 9.48996 78.3645 9.06572 78.5511 8.69239C78.7378 8.31906 78.9924 8.0136 79.3148 7.75905C79.6542 7.50451 80.0445 7.31785 80.5027 7.18209C80.9608 7.0633 81.4699 6.99542 82.0299 6.99542ZM79.3657 3.31299C79.213 3.22815 79.0772 3.07542 78.9584 2.90573C78.8396 2.73603 78.8396 2.51542 78.9414 2.29482C79.0093 2.14209 79.1281 2.00634 79.2978 1.90452C79.4675 1.8027 79.6372 1.8027 79.8239 1.87057C80.7572 2.29482 81.6396 2.5833 82.4542 2.73603C83.2687 2.88876 84.0663 3.00755 84.8638 3.10937C85.0505 3.14331 85.1863 3.22816 85.2881 3.36391C85.3899 3.51664 85.4238 3.66936 85.3899 3.873C85.3051 4.28027 85.0335 4.4839 84.5754 4.46693C83.659 4.41602 82.7936 4.31421 81.9281 4.17845C81.0796 4.04269 80.2142 3.75421 79.3657 3.29603V3.31299ZM81.962 11.4584C82.2166 11.4584 82.4711 11.4245 82.7087 11.3566C82.9463 11.2887 83.1669 11.1869 83.3705 11.0512C83.5572 10.9324 83.7099 10.7796 83.8287 10.593C83.9475 10.4063 83.9984 10.2027 83.9984 9.96511C83.9984 9.48996 83.8287 9.11662 83.4723 8.82814C83.116 8.53965 82.6239 8.40389 81.979 8.40389C81.3342 8.40389 80.842 8.53965 80.5027 8.82814C80.1633 9.11662 79.9766 9.48996 79.9766 9.96511C79.9766 10.4403 80.1463 10.7797 80.5027 11.0512C80.842 11.3227 81.3511 11.4584 81.979 11.4584H81.962ZM88.682 15.5142C88.4614 15.4802 88.2748 15.3615 88.156 15.1748C88.0372 14.9881 87.9863 14.7845 88.0541 14.5469C88.2748 13.4609 88.3936 12.4257 88.4614 11.4075C88.5123 10.4063 88.5293 9.48995 88.4784 8.65844C88.4445 7.82693 88.3766 7.11421 88.2748 6.5033C88.1729 5.89239 88.1051 5.43421 88.0541 5.16269C88.0202 4.94209 88.0542 4.73845 88.139 4.53481C88.2239 4.33118 88.3766 4.21239 88.5802 4.16148C88.8687 4.07663 89.1232 4.11058 89.3099 4.2633C89.4966 4.41603 89.6154 4.60269 89.6663 4.84027C89.7172 5.12875 89.802 5.6039 89.9038 6.24875C90.0057 6.8936 90.0735 7.67421 90.1414 8.55663C90.1754 9.45602 90.1754 10.4403 90.1245 11.5093C90.0735 12.5784 89.9208 13.6984 89.6832 14.8693C89.6493 15.039 89.5644 15.2087 89.3778 15.3615C89.2081 15.5142 88.9875 15.5651 88.716 15.5142H88.682ZM94.6723 17.6693C93.6032 16.4306 92.8735 15.2087 92.4832 14.0039C92.0929 12.799 91.9232 11.6621 91.9741 10.576C92.0081 9.50693 92.2117 8.52269 92.5511 7.60633C92.8905 6.70694 93.2638 5.90936 93.6881 5.24755C94.0953 4.58573 94.4517 4.05966 94.7741 3.68633C95.0965 3.313 95.2662 3.12634 95.2832 3.10937C95.4529 2.93967 95.6566 2.85482 95.8941 2.85482C96.1317 2.85482 96.3184 2.93967 96.4881 3.10937C96.6578 3.27906 96.7426 3.4827 96.7426 3.7033C96.7426 3.92391 96.6578 4.12754 96.4881 4.29724C96.4541 4.33118 96.2844 4.51785 95.9959 4.85724C95.7075 5.19663 95.402 5.63785 95.0626 6.19784C94.7232 6.75784 94.4008 7.41965 94.1293 8.16632C93.8408 8.91298 93.6881 9.7445 93.6711 10.6439C93.6372 11.5433 93.7899 12.4766 94.1293 13.4778C94.4687 14.479 95.0796 15.4972 95.979 16.5324C96.1317 16.719 96.1996 16.9227 96.1826 17.1602C96.1826 17.3978 96.0638 17.5845 95.8772 17.7372C95.6905 17.8899 95.4869 17.9578 95.2493 17.9239C95.0117 17.8899 94.825 17.8051 94.7063 17.6524L94.6723 17.6693Z" fill="#47BCC6"/>
<path d="M124.553 3.16878C125.622 4.40757 126.352 5.62938 126.742 6.83423C127.133 8.03907 127.319 9.17604 127.268 10.2451C127.218 11.3312 127.014 12.3154 126.675 13.2318C126.335 14.1482 125.962 14.9288 125.572 15.5906C125.164 16.2524 124.791 16.7785 124.468 17.1518C124.146 17.5251 123.976 17.7118 123.959 17.7288C123.79 17.8985 123.586 17.9833 123.348 17.9833C123.111 17.9833 122.924 17.8985 122.755 17.7288C122.585 17.5591 122.5 17.3554 122.5 17.1348C122.5 16.9142 122.585 16.7106 122.755 16.5409C122.788 16.5069 122.958 16.3203 123.247 15.9809C123.535 15.6415 123.858 15.2003 124.197 14.6403C124.536 14.0803 124.842 13.4185 125.113 12.6718C125.402 11.9251 125.555 11.0936 125.572 10.1942C125.605 9.29483 125.453 8.3615 125.113 7.36029C124.774 6.35908 124.163 5.3409 123.264 4.30575C123.111 4.11908 123.043 3.91545 123.06 3.67788C123.06 3.4403 123.179 3.25363 123.365 3.1009C123.552 2.94818 123.756 2.8803 123.993 2.91424C124.231 2.94818 124.418 3.03303 124.536 3.18576L124.553 3.16878ZM128.355 1.11546C128.388 0.572427 128.694 0.283939 129.254 0.25C129.559 0.25 129.797 0.334851 129.95 0.504548C130.102 0.674244 130.204 0.860914 130.238 1.06455C130.272 1.16637 130.306 1.30213 130.306 1.43788C130.306 1.57364 130.289 1.7094 130.238 1.84515C130.102 2.38818 129.865 2.79545 129.542 3.05C129.203 3.30454 128.948 3.50817 128.779 3.62696C128.694 3.6609 128.643 3.6609 128.592 3.64393C128.558 3.64393 128.524 3.59302 128.507 3.52515C128.473 3.45727 128.473 3.38939 128.507 3.33848C128.541 3.2706 128.575 3.23666 128.609 3.20272C128.762 3.13484 128.932 3.03303 129.084 2.8803C129.237 2.72758 129.373 2.47302 129.491 2.11666C129.458 2.11666 129.424 2.11666 129.356 2.11666C129.288 2.11666 129.22 2.11666 129.135 2.11666C128.915 2.11666 128.728 2.03182 128.575 1.84515C128.422 1.65849 128.355 1.40393 128.355 1.08151V1.11546ZM133.785 6.25726C133.496 6.22332 133.276 6.13847 133.106 5.98574C132.936 5.83302 132.868 5.61241 132.902 5.3409C132.936 5.05242 133.038 4.86575 133.242 4.7809C133.445 4.69605 133.666 4.67909 133.904 4.69606C134.311 4.73 134.803 4.76393 135.397 4.79787C135.991 4.83181 136.619 4.84878 137.281 4.86575C137.925 4.86575 138.553 4.86575 139.181 4.86575C139.809 4.86575 140.335 4.84878 140.776 4.81484C141.065 4.81484 141.285 4.89969 141.455 5.00151C141.608 5.1203 141.693 5.30696 141.693 5.59545C141.693 5.88393 141.608 6.08756 141.421 6.18938C141.235 6.2912 141.031 6.35908 140.81 6.37605C140.386 6.40999 139.928 6.42696 139.47 6.42696C138.995 6.42696 138.553 6.42696 138.129 6.42696L138.333 10.9918C138.774 11.2294 139.283 11.4839 139.877 11.7385C140.471 11.993 141.15 12.1966 141.913 12.3494C142.066 12.3833 142.202 12.4682 142.27 12.6209C142.355 12.7736 142.355 12.9603 142.287 13.1979C142.219 13.4185 142.1 13.5882 141.947 13.673C141.795 13.7748 141.608 13.7918 141.421 13.7748C140.641 13.656 139.945 13.4694 139.351 13.2148C138.757 12.9603 138.231 12.7397 137.773 12.536C137.348 13.0112 136.822 13.4863 136.211 13.9615C135.601 14.4366 134.837 14.81 133.955 15.0985C133.734 15.1833 133.513 15.2003 133.327 15.1663C133.14 15.1324 132.987 14.9966 132.902 14.793C132.801 14.5215 132.784 14.3009 132.868 14.1312C132.953 13.9615 133.072 13.8427 133.242 13.7748C134.294 13.3676 135.091 12.9263 135.618 12.4512C136.144 11.976 136.483 11.5348 136.602 11.1445L136.398 6.39302C136.398 6.39302 136.211 6.39302 135.991 6.37605C135.77 6.37605 135.533 6.34212 135.278 6.34212C135.007 6.34212 134.735 6.30817 134.464 6.30817C134.192 6.30817 133.971 6.27424 133.785 6.27424V6.25726ZM143.746 15.5227C143.525 15.4888 143.339 15.37 143.22 15.1833C143.101 14.9966 143.05 14.793 143.118 14.5554C143.339 13.4694 143.458 12.4342 143.525 11.416C143.576 10.4148 143.593 9.49847 143.542 8.66695C143.508 7.83544 143.441 7.12272 143.339 6.51181C143.237 5.9009 143.169 5.44272 143.118 5.17121C143.084 4.9506 143.118 4.74696 143.203 4.54332C143.288 4.33969 143.441 4.2209 143.644 4.16999C143.933 4.08514 144.187 4.11909 144.374 4.27182C144.561 4.42454 144.679 4.6112 144.73 4.84878C144.798 5.15423 144.883 5.64636 144.985 6.34212C145.087 7.03787 145.154 7.85242 145.188 8.81969C145.511 8.78575 145.867 8.78575 146.258 8.81969C146.648 8.83666 146.97 8.87059 147.259 8.90453C147.479 8.93847 147.666 9.00634 147.802 9.1421C147.938 9.26089 147.988 9.46453 147.988 9.71908C147.988 10.0076 147.887 10.1942 147.734 10.313C147.581 10.4318 147.395 10.4827 147.174 10.4657L145.239 10.4318C145.239 11.1276 145.188 11.8403 145.104 12.587C145.036 13.3336 144.917 14.0972 144.747 14.8948C144.713 15.0645 144.628 15.2342 144.442 15.3869C144.272 15.5397 144.051 15.5906 143.78 15.5397L143.746 15.5227ZM161.971 9.88877C161.938 10.1603 161.87 10.3809 161.785 10.5676C161.7 10.7542 161.53 10.89 161.259 11.0257C161.055 11.1106 160.851 11.1785 160.614 11.2633C160.393 11.3482 160.139 11.416 159.85 11.4669C159.562 11.5348 159.222 11.5857 158.866 11.6027C158.51 11.6366 158.085 11.6197 157.627 11.5857C157.203 11.5518 156.813 11.4839 156.439 11.3821C156.083 11.2803 155.761 11.1445 155.472 10.9579C155.184 10.7712 154.929 10.5336 154.725 10.2282C154.522 9.9227 154.386 9.54937 154.284 9.09119C154.233 8.81968 154.199 8.48028 154.199 8.05604C154.199 7.6318 154.199 7.20756 154.233 6.78332C154.267 6.37605 154.301 5.98575 154.335 5.64635C154.386 5.30696 154.42 5.05241 154.437 4.89968L154.03 4.86575C153.792 4.83181 153.571 4.76393 153.368 4.62818C153.164 4.49242 153.079 4.27181 153.13 3.96636C153.164 3.69485 153.266 3.52515 153.453 3.42333C153.639 3.33848 153.86 3.30454 154.131 3.32151C154.233 3.32151 154.454 3.35545 154.81 3.35545C155.15 3.35545 155.54 3.38939 155.998 3.38939C156.456 3.38939 156.931 3.40636 157.441 3.42333C157.95 3.42333 158.425 3.42333 158.883 3.42333C159.341 3.42333 159.731 3.44029 160.071 3.44029C160.41 3.44029 160.631 3.4403 160.75 3.42333C160.987 3.42333 161.208 3.4403 161.394 3.49121C161.581 3.54212 161.717 3.69485 161.768 3.98333C161.836 4.40758 161.887 4.89968 161.938 5.44271C161.988 5.98574 162.022 6.52878 162.022 7.05484C162.022 7.59787 162.022 8.12393 162.022 8.63302C162.005 9.12514 161.971 9.54938 161.921 9.90574L161.971 9.88877ZM160.207 9.80392C160.291 9.65119 160.342 9.39665 160.376 9.04029C160.41 8.70089 160.427 8.29362 160.427 7.83544C160.427 7.37726 160.427 6.9021 160.376 6.40998C160.342 5.91786 160.291 5.44272 160.241 5.00151C159.579 5.00151 158.917 5.00151 158.255 5.00151C157.593 5.00151 156.931 4.98454 156.236 4.9506C156.202 5.1203 156.151 5.3409 156.134 5.62938C156.1 5.9009 156.066 6.18938 156.049 6.47786C156.015 6.78332 155.998 7.08878 155.981 7.4112C155.981 7.71665 155.981 8.00514 155.981 8.25968C156.015 8.80271 156.168 9.20998 156.439 9.46453C156.711 9.71907 157.118 9.88878 157.661 9.97362C158.187 10.0585 158.679 10.0585 159.121 10.0076C159.562 9.93968 159.918 9.8718 160.207 9.80392ZM164.738 17.1348C165.009 17.1009 165.23 17.1348 165.433 17.2197C165.62 17.3045 165.756 17.4912 165.807 17.7966C165.841 18.0512 165.79 18.2548 165.62 18.4075C165.467 18.5603 165.247 18.6621 164.975 18.696C163.193 18.9845 161.378 19.0354 159.494 18.8827C158.645 18.8148 158.068 18.5603 157.729 18.1191C157.39 17.6778 157.237 17.033 157.237 16.2015C157.237 15.8112 157.237 15.4209 157.271 15.0476C157.288 14.6572 157.322 14.2669 157.339 13.8427C157.373 13.5542 157.474 13.3506 157.644 13.1809C157.797 13.0282 158.034 12.9603 158.34 12.9772C158.561 13.0112 158.747 13.096 158.866 13.2657C158.985 13.4185 159.036 13.6221 159.019 13.8597C159.019 14.1991 158.985 14.5385 158.985 14.8948C158.985 15.2512 158.968 15.6754 158.968 16.1845C158.968 16.5748 159.053 16.8463 159.222 16.9991C159.392 17.1518 159.664 17.2536 160.054 17.2875C160.699 17.3554 161.378 17.3724 162.124 17.3554C162.871 17.3215 163.736 17.2536 164.754 17.1518L164.738 17.1348ZM164.602 13.4185C164.381 13.3845 164.194 13.2657 164.076 13.0791C163.957 12.8924 163.906 12.6888 163.974 12.4512C164.194 11.3651 164.313 10.3469 164.381 9.37967C164.432 8.4124 164.449 7.54695 164.398 6.78332C164.364 6.00271 164.296 5.3409 164.194 4.79787C164.093 4.25484 164.025 3.86454 163.974 3.61C163.906 3.33848 163.94 3.10091 164.076 2.8803C164.211 2.6597 164.432 2.55788 164.754 2.55788C164.958 2.55788 165.128 2.62576 165.281 2.76152C165.433 2.89727 165.535 3.06697 165.569 3.25364C165.637 3.54212 165.722 4.0003 165.824 4.62818C165.925 5.27302 165.993 6.05362 166.027 6.96999C166.384 6.96999 166.689 6.96999 166.927 6.96999C167.164 6.96999 167.351 6.96999 167.504 7.00393C167.656 7.00393 167.775 7.0209 167.86 7.03787C167.945 7.03787 168.03 7.03787 168.097 7.07181C168.573 7.12272 168.81 7.39423 168.81 7.86938C168.81 8.14089 168.725 8.34454 168.573 8.46332C168.42 8.59908 168.216 8.64998 167.996 8.61605C167.724 8.58211 167.419 8.56514 167.045 8.56514C166.672 8.56514 166.35 8.56514 166.061 8.56514C166.027 9.20999 165.976 9.8718 165.908 10.5506C165.841 11.2463 165.722 11.9591 165.586 12.7227C165.552 12.8924 165.467 13.0621 165.298 13.2148C165.145 13.3675 164.907 13.4185 164.619 13.3676L164.602 13.4185ZM169.116 9.34574C169.167 9.12514 169.285 8.93847 169.472 8.81969C169.659 8.7009 169.862 8.66696 170.1 8.7009C170.813 8.85363 171.576 8.95543 172.374 9.02331C173.171 9.09119 173.952 9.12514 174.75 9.12514C175.53 9.12514 176.294 9.12514 177.041 9.10817C177.77 9.07423 178.449 9.04029 179.06 8.98938C179.654 8.93847 180.18 8.88756 180.604 8.83665C181.028 8.78574 181.334 8.73484 181.521 8.7009C181.775 8.64999 182.013 8.70089 182.216 8.85362C182.437 9.00635 182.539 9.22696 182.539 9.49848C182.539 9.70211 182.471 9.8718 182.352 10.0245C182.233 10.1773 182.047 10.2791 181.843 10.313C181.639 10.347 181.317 10.3979 180.859 10.4657C180.401 10.5336 179.857 10.5845 179.213 10.6354C178.568 10.6863 177.872 10.7373 177.091 10.7712C176.311 10.8051 175.513 10.8221 174.682 10.8051C173.85 10.8051 173.019 10.7542 172.187 10.6694C171.339 10.6015 170.541 10.4827 169.761 10.313C169.506 10.2621 169.319 10.1433 169.217 9.97362C169.099 9.80393 169.082 9.58331 169.133 9.32877L169.116 9.34574ZM179.23 6.22333C179.484 6.15545 179.688 6.15545 179.857 6.22333C180.027 6.29121 180.146 6.44392 180.248 6.71544C180.333 6.93604 180.316 7.13969 180.214 7.29241C180.112 7.44514 179.959 7.56393 179.739 7.66575C179.535 7.7506 179.247 7.83545 178.89 7.9203C178.517 8.00514 178.11 8.07301 177.651 8.12392C177.176 8.1918 176.701 8.22574 176.192 8.25968C175.683 8.27665 175.191 8.25969 174.716 8.22575C174.563 8.22575 174.376 8.19181 174.156 8.15787C173.935 8.12393 173.681 8.07301 173.443 7.98816C173.188 7.92028 172.951 7.81847 172.696 7.69968C172.459 7.58089 172.255 7.4112 172.068 7.22453C171.627 6.73241 171.39 6.13847 171.339 5.45969C171.288 4.76393 171.373 4.11908 171.576 3.50817C171.542 3.50817 171.491 3.50817 171.441 3.50817C171.39 3.50817 171.305 3.50818 171.152 3.47424C170.881 3.4403 170.66 3.35545 170.473 3.21969C170.287 3.06696 170.219 2.84636 170.236 2.55788C170.27 2.28636 170.371 2.0997 170.558 1.98091C170.745 1.86213 170.982 1.82818 171.254 1.87909C171.848 1.91303 172.493 1.96394 173.154 1.98091C173.816 2.01485 174.495 2.03181 175.191 2.04878C175.87 2.04878 176.548 2.04878 177.21 2.04878C177.872 2.04878 178.517 2.03181 179.111 1.99787C179.365 1.99787 179.586 2.04878 179.756 2.16757C179.925 2.28636 180.01 2.49 180.01 2.81242C180.01 3.08394 179.925 3.2706 179.756 3.40636C179.586 3.52515 179.365 3.59303 179.111 3.59303C178.687 3.62697 178.228 3.64393 177.736 3.64393C177.244 3.64393 176.735 3.64393 176.243 3.64393C175.734 3.64393 175.242 3.64393 174.75 3.64393C174.258 3.64393 173.782 3.62697 173.341 3.59303C173.29 3.81363 173.222 4.11909 173.154 4.50939C173.087 4.88272 173.087 5.25605 173.171 5.59545C173.205 5.76514 173.29 5.91787 173.392 6.03666C173.494 6.15545 173.63 6.25727 173.799 6.34212C173.952 6.42696 174.105 6.47787 174.274 6.52878C174.444 6.56272 174.597 6.59666 174.767 6.6306C175.174 6.68151 175.615 6.69847 176.107 6.66453C176.599 6.63059 177.074 6.59665 177.533 6.54574C177.974 6.49484 178.347 6.44393 178.67 6.37605C178.992 6.30817 179.162 6.27424 179.213 6.27424L179.23 6.22333ZM179.739 17.5251C179.959 17.4742 180.163 17.4742 180.333 17.5251C180.502 17.576 180.638 17.7288 180.74 17.9833C180.825 18.2039 180.808 18.3906 180.723 18.5263C180.621 18.6621 180.468 18.7809 180.265 18.8827C180.061 18.9675 179.79 19.0524 179.433 19.1372C179.077 19.2221 178.687 19.3069 178.262 19.3748C177.821 19.4257 177.363 19.4597 176.871 19.4766C176.379 19.4936 175.904 19.4766 175.445 19.4427C174.953 19.4087 174.495 19.3239 174.071 19.1882C173.647 19.0524 173.29 18.8657 173.002 18.6112C172.713 18.3397 172.493 18.0172 172.357 17.61C172.221 17.2027 172.204 16.7276 172.272 16.1506L171.865 16.1166C171.627 16.0827 171.407 16.0148 171.203 15.8791C170.999 15.7433 170.914 15.5227 170.965 15.2172C170.999 14.9457 171.118 14.7591 171.305 14.6742C171.491 14.5724 171.712 14.5385 171.984 14.5724C172.934 14.6403 173.884 14.6912 174.851 14.7082C175.819 14.7421 176.786 14.7421 177.753 14.7421C177.821 14.3179 177.855 13.9954 177.889 13.7748C177.906 13.5542 177.906 13.4015 177.889 13.3167C177.482 13.3167 176.99 13.2827 176.413 13.2827C175.819 13.2827 175.259 13.2488 174.733 13.2148C174.19 13.2148 173.714 13.1809 173.324 13.1639C172.934 13.1469 172.73 13.13 172.713 13.13C172.476 13.096 172.255 13.0282 172.051 12.8924C171.848 12.7567 171.763 12.536 171.814 12.2306C171.848 11.9421 171.967 11.7554 172.153 11.6706C172.34 11.5857 172.561 11.5518 172.832 11.5688C172.917 11.5688 173.104 11.5857 173.409 11.6027C173.714 11.6027 174.071 11.6027 174.478 11.6366C174.885 11.6706 175.31 11.6876 175.768 11.7045C176.226 11.7045 176.65 11.7215 177.074 11.7215C177.482 11.7215 177.821 11.7385 178.11 11.7554C178.398 11.7554 178.585 11.7554 178.67 11.7554C178.907 11.7554 179.128 11.8063 179.297 11.8912C179.484 11.993 179.569 12.2306 179.586 12.6039C179.586 12.8245 179.586 13.096 179.586 13.4354C179.569 13.7748 179.501 14.1991 179.399 14.7082H179.552C179.824 14.7082 180.027 14.776 180.197 14.8948C180.35 15.0136 180.434 15.2172 180.434 15.5057C180.434 15.7263 180.35 15.913 180.163 16.0488C179.976 16.1845 179.773 16.2524 179.535 16.2524C179.45 16.2524 179.213 16.2524 178.822 16.2524C178.432 16.2524 177.974 16.2524 177.448 16.2524C176.922 16.2524 176.345 16.2524 175.751 16.2524C175.157 16.2524 174.597 16.2524 174.088 16.2185C173.986 16.7954 174.054 17.1857 174.308 17.4063C174.563 17.6269 174.936 17.7797 175.445 17.8645C175.853 17.9324 176.277 17.9494 176.752 17.9324C177.227 17.8984 177.668 17.8645 178.11 17.8136C178.534 17.7627 178.907 17.7118 179.213 17.6439C179.518 17.576 179.705 17.5421 179.756 17.5421L179.739 17.5251ZM191.465 9.78696C191.431 10.3809 191.244 10.9748 190.922 11.5518C190.599 12.1288 190.209 12.6548 189.734 13.1469C189.259 13.6391 188.767 14.0633 188.224 14.4366C187.697 14.793 187.205 15.0476 186.764 15.1833C186.544 15.2512 186.34 15.2512 186.187 15.2003C186.034 15.1494 185.899 15.0136 185.797 14.793C185.695 14.5724 185.661 14.3857 185.712 14.1991C185.763 14.0124 185.916 13.8766 186.153 13.7409C186.713 13.4863 187.205 13.1979 187.613 12.8415C188.02 12.5021 188.359 12.1457 188.648 11.7894C188.936 11.45 189.157 11.0936 189.327 10.7373C189.496 10.3809 189.615 10.0585 189.7 9.78696C189.751 9.56635 189.785 9.2609 189.785 8.87059C189.785 8.48029 189.785 8.10696 189.751 7.71666C189.717 7.27544 189.666 6.81726 189.615 6.30817H184.304C184.151 6.30817 183.998 6.24029 183.845 6.1215C183.693 6.00272 183.608 5.81605 183.608 5.59545C183.608 5.42575 183.659 5.23909 183.744 5.06939C183.828 4.88273 183.998 4.79787 184.219 4.79787H190.43C190.65 4.79787 190.82 4.83182 190.939 4.88272C191.057 4.93363 191.142 5.00151 191.193 5.06939C191.244 5.15424 191.278 5.23908 191.278 5.32393C191.278 5.40877 191.278 5.49363 191.278 5.57847C191.278 5.69726 191.278 5.93484 191.312 6.27424C191.346 6.61363 191.363 7.00393 191.397 7.4112C191.397 7.83544 191.431 8.25969 191.431 8.7009C191.431 9.12514 191.431 9.4815 191.431 9.78696H191.465ZM195.096 15.5227C194.876 15.4888 194.689 15.37 194.57 15.1833C194.451 14.9966 194.4 14.793 194.468 14.5554C194.689 13.4694 194.808 12.4342 194.876 11.416C194.927 10.4148 194.944 9.49847 194.893 8.66695C194.859 7.83544 194.791 7.12272 194.689 6.51181C194.587 5.9009 194.519 5.44272 194.468 5.17121C194.434 4.9506 194.468 4.74696 194.553 4.54332C194.638 4.33969 194.791 4.2209 194.994 4.16999C195.283 4.08514 195.537 4.11909 195.724 4.27182C195.911 4.42454 196.03 4.6112 196.08 4.84878C196.131 5.13726 196.216 5.61242 196.318 6.25726C196.42 6.90211 196.488 7.68272 196.556 8.56514C196.59 9.46453 196.59 10.4488 196.539 11.5179C196.488 12.5869 196.335 13.7069 196.097 14.8779C196.064 15.0476 195.979 15.2173 195.792 15.37C195.622 15.5227 195.402 15.5736 195.13 15.5227H195.096Z" fill="#47BCC6"/>
</svg>
