<svg width="1" height="14" viewBox="0 0 1 14" fill="none" xmlns="http://www.w3.org/2000/svg">
<g clip-path="url(#clip0_21_74613)">
<path d="M-35.7625 65H-210.237C-230.499 65 -247 48.5118 -247 28.2658V0.734222C-247 -19.5373 -230.499 -36 -210.237 -36H-35.7625C-15.5009 -36 0.999985 -19.5118 0.999985 0.734222C0.999985 1.01542 0.769714 1.24552 0.488312 1.24552C0.206894 1.24552 -0.0233765 1.01542 -0.0233765 0.734222C-0.0233765 -18.975 -16.0638 -34.9774 -35.7625 -34.9774H-210.237C-229.962 -34.9774 -245.977 -18.9494 -245.977 0.734222V28.2658C-245.977 47.975 -229.936 63.9775 -210.237 63.9775H-35.7625C-16.0382 63.9775 -0.0233765 47.9494 -0.0233765 28.2658V12.8512C-0.0233765 12.57 0.206894 12.3399 0.488312 12.3399C0.769714 12.3399 0.999985 12.57 0.999985 12.8512V28.2658C0.999985 48.5373 -15.5009 65 -35.7625 65Z" fill="#727171"/>
</g>
<defs>
<clipPath id="clip0_21_74613">
<rect width="1" height="14" fill="white"/>
</clipPath>
</defs>
</svg>
