<svg width="40" height="40" viewBox="0 0 40 40" fill="none" xmlns="http://www.w3.org/2000/svg">
<circle cx="20" cy="20" r="20" fill="#EBB977"/>
<path d="M17.4982 14.97V15.27C17.4982 17.19 19.0882 18.06 20.5282 18.06C22.0282 18.06 23.4982 17.19 23.4982 15.27V14.97C23.4982 13.11 22.2682 12.15 20.4982 12.15C18.8182 12.15 17.4982 13.11 17.4982 14.97ZM16.9582 24.51V24.81C16.9582 26.67 18.3982 27.75 20.5582 27.75C22.6882 27.75 24.0382 26.67 24.0382 24.81V24.51C24.0382 22.38 22.4482 21.42 20.5582 21.42C18.6682 21.42 16.9582 22.32 16.9582 24.51ZM12.9982 25.05V24.54C12.9982 22.17 14.7382 20.19 16.5382 19.65C14.4682 18.63 13.5682 16.53 13.5682 15.12V14.76C13.5682 11.67 15.7282 8.82 20.4682 8.82C25.0882 8.82 27.4282 11.67 27.4282 14.76V15.12C27.4282 16.53 26.5882 18.45 24.4882 19.65C26.3482 20.22 27.9982 22.17 27.9982 24.54V25.05C27.9982 28.5 25.3882 31.11 20.5882 31.11C15.6082 31.11 12.9982 28.5 12.9982 25.05Z" fill="#1E1E1E"/>
</svg>
