<svg width="40" height="40" viewBox="0 0 40 40" fill="none" xmlns="http://www.w3.org/2000/svg">
<circle cx="20" cy="20" r="20" fill="#EBB977"/>
<path d="M26.2782 10.32L24.8682 13.5C23.5182 12.72 22.0482 12.3 20.2782 12.3C18.0582 12.3 16.0182 13.74 15.7482 18.36C16.7982 17.13 18.7482 16.47 20.6082 16.47C24.8082 16.47 27.3582 19.23 27.3582 23.43V24.03C27.3582 28.05 24.4782 31.11 19.6782 31.11C14.1582 31.11 11.9382 27.51 11.9382 21.96V20.58C11.9382 11.04 15.8082 8.82 20.5182 8.82C22.4682 8.82 24.6582 9.24 26.2782 10.32ZM15.8082 23.46V23.91C15.8082 26.25 17.1282 27.63 19.5882 27.63C22.2282 27.63 23.5782 26.28 23.5782 23.88V23.55C23.5782 21.03 22.3782 19.83 19.7382 19.83C16.9782 19.83 15.8082 21.48 15.8082 23.46Z" fill="#1E1E1E"/>
</svg>
