<svg width="40" height="40" viewBox="0 0 40 40" fill="none" xmlns="http://www.w3.org/2000/svg">
<circle cx="20" cy="20" r="20" fill="#EBB977"/>
<path d="M15.7882 13.98L13.1782 11.94C14.6182 10.08 16.4782 8.82 19.5982 8.82C23.6482 8.82 26.2882 10.98 26.2882 14.22V14.52C26.2882 16.23 25.6282 18.54 23.1682 19.47C26.0182 19.98 27.3682 21.9 27.3682 24.36V24.81C27.3682 28.08 24.8182 31.11 19.5082 31.11C16.9882 31.11 14.6182 30.33 12.5782 28.71L14.4682 25.71C16.5682 27.24 17.7982 27.69 19.5382 27.69C22.2382 27.69 23.4982 26.52 23.4982 24.63V24.24C23.4982 22.14 22.3282 21.18 19.5682 21.18H16.6582V17.88H19.2382C21.9382 17.88 22.5382 16.62 22.5382 14.76V14.52C22.5382 12.9 21.3982 12.18 19.5982 12.18C17.7682 12.18 16.7482 12.93 15.7882 13.98Z" fill="#1E1E1E"/>
</svg>
