<svg width="40" height="40" viewBox="0 0 40 40" fill="none" xmlns="http://www.w3.org/2000/svg">
<circle cx="20" cy="20" r="20" fill="#EBB977"/>
<path d="M23.4882 23.88V23.55C23.4882 21.24 22.0782 19.95 19.6782 19.95C17.8482 19.95 16.5282 20.73 15.5682 21.66H12.9882L13.6782 9.15H25.9482V12.33H17.1282L16.8882 17.97C17.8782 17.37 19.1082 16.86 20.9082 16.86C25.0782 16.86 27.3582 19.98 27.3582 23.46V23.91C27.3582 27.36 25.0782 31.11 19.6482 31.11C16.5282 31.11 14.1282 30.48 11.9682 28.71L13.8282 25.68C15.8682 27.3 17.6082 27.63 19.6182 27.63C22.2582 27.63 23.4882 26.04 23.4882 23.88Z" fill="#1E1E1E"/>
</svg>
