<svg width="193" height="51" viewBox="0 0 193 51" fill="none" xmlns="http://www.w3.org/2000/svg">
<path d="M176.762 0.753906C180.746 0.618155 184.082 3.71494 184.223 7.6582L185.245 36.2871C185.386 40.2294 182.281 43.5445 178.298 43.6807L15.2383 49.2461C11.2541 49.3818 7.91823 46.2851 7.77734 42.3418L6.75488 13.7129C6.61403 9.77059 9.71888 6.45552 13.7021 6.31934L176.762 0.753906Z" stroke="#FCBE79" stroke-width="1.5"/>
<rect x="10" y="3" width="180" height="45" rx="8" fill="#F69F5D"/>
<path d="M26.536 21.852C26.464 21.852 26.428 21.816 26.428 21.78C25.96 21.42 25.816 20.52 25.816 19.98C25.78 19.116 25.672 18.252 25.672 17.424C25.672 16.2 25.636 14.724 25.852 13.536C25.996 12.78 26.284 12.348 27.004 12.06C27.652 11.808 28.336 11.736 29.02 11.664C29.848 11.592 30.712 11.664 31.576 11.664H38.416C40.864 11.664 40.54 11.664 42.952 11.628C43.384 11.628 43.78 11.628 44.212 11.664C45.112 11.7 46.12 11.736 46.948 12.132C47.884 12.528 48.172 13.536 48.208 14.472C48.28 15.552 48.172 16.92 48.172 18C48.136 18.972 48.172 19.944 47.92 20.88C47.776 21.42 47.668 21.852 47.092 22.032C46.588 22.212 45.94 22.248 45.436 22.248H29.884C29.416 22.248 28.948 22.212 28.48 22.176C27.868 22.14 27.076 22.212 26.536 21.852ZM46.516 28.728C44.14 28.8 42.268 28.872 39.856 28.872C39.82 29.88 39.748 30.816 39.748 32.184C39.532 33.192 38.2 33.804 37.228 33.768C35.788 33.696 34.996 33.12 34.852 31.68C34.744 30.744 34.888 29.736 34.888 28.8C32.692 28.8 26.932 28.728 24.916 28.584C24.16 28.512 23.8 28.476 23.188 27.9C22.864 27.612 22.72 27.072 22.72 26.568C22.72 26.1 22.9 25.632 23.188 25.344C23.908 24.588 25.672 24.624 25.744 24.624H46.336C47.056 24.624 47.776 24.624 48.46 24.66C49.108 24.696 49.828 24.804 50.332 25.272C50.836 25.668 50.836 26.136 50.836 26.712C50.836 27.432 50.404 28.044 49.684 28.296C48.712 28.656 47.524 28.692 46.516 28.728ZM47.524 35.532C47.596 35.568 48.928 35.892 49.072 36.9C49.216 37.8 49.072 38.52 48.64 39.024C48.1 39.708 47.308 39.744 47.272 39.744H27.616C25.78 39.744 24.664 39.096 24.664 38.016V34.812C24.628 34.272 24.628 33.732 24.664 33.192C24.736 32.184 25.492 31.5 26.5 31.5C26.752 31.5 27.256 31.536 27.472 31.608C28.696 32.004 28.768 33.228 28.84 34.308C28.84 34.704 28.876 35.136 28.984 35.46C29.092 35.496 29.812 35.604 31.504 35.604C32.944 35.604 34.276 35.532 34.312 35.532H47.524ZM29.956 17.64C29.956 17.856 29.956 18.108 30.064 18.216C30.28 18.396 31.108 18.288 31.108 18.288H40.576C40.576 18.288 42.304 18.432 43.168 18.324C43.672 18.288 43.672 18.072 43.744 17.64C43.78 17.244 43.852 16.416 43.564 16.056C43.24 15.66 42.484 15.732 42.052 15.768H38.776C38.452 15.732 34.096 15.768 33.772 15.768C32.764 15.696 31.756 15.732 30.712 15.768C30.28 15.768 30.136 15.696 30.028 16.128C29.956 16.452 29.956 17.028 29.956 17.316V17.64ZM55.5264 33.048C55.7064 32.976 59.0184 33.12 59.6304 33.12C59.6664 32.544 59.7384 30.168 59.8104 28.98C59.3784 28.872 58.9824 28.764 58.5864 28.584C55.8864 27.468 53.7984 25.272 53.7984 22.104C53.7984 20.376 54.3024 19.044 55.1304 18H54.7344C53.5824 18 52.6104 17.136 52.6104 16.092C52.6104 15.012 53.5824 14.148 54.7344 14.148H59.4864V12.672C59.4864 11.736 60.4224 11.052 61.5744 11.052C62.7624 11.052 63.6984 11.736 63.6984 12.672V14.148H68.6664C69.8544 14.148 70.8264 15.012 70.8264 16.092C70.8264 17.136 69.8544 18 68.6664 18H68.5584C69.3864 19.044 69.9264 20.376 69.9264 22.104C69.9264 24.336 68.8464 26.172 67.0464 27.54C66.1464 28.188 65.1384 28.656 64.0944 28.944C64.1664 30.06 64.1664 32.544 64.1664 33.084V33.12H68.9544C69.7464 33.12 70.3944 33.264 70.8624 33.552C71.9424 34.2 71.9064 35.964 71.4384 36.828C71.0064 37.584 70.0704 37.656 69.3144 37.656H55.0944C55.0584 37.656 53.8344 37.548 53.1864 37.26C52.7184 37.008 52.3584 36.468 52.2504 35.784C52.1424 35.028 52.3944 34.308 52.8624 33.876C53.7264 33.156 54.6984 33.048 55.5264 33.048ZM79.3944 23.364H79.4664C79.7184 23.328 79.9344 23.4 80.1504 23.4C80.4384 23.436 80.6904 23.472 80.9784 23.508C81.5184 23.616 82.0944 23.832 82.3824 24.372C82.5264 24.66 82.5984 24.984 82.5984 25.344C82.5984 25.668 82.5984 26.028 82.5264 26.352C82.4184 26.712 82.3104 27.216 82.0224 27.468C81.7344 27.684 81.3744 27.864 81.0144 27.936C80.2584 28.044 78.9624 27.936 78.2064 27.972C78.1344 28.008 78.0984 28.008 78.0984 28.008C78.0984 28.008 78.0984 28.044 78.0624 28.152C78.0264 29.34 78.0624 30.384 78.0624 31.608C78.0984 32.832 78.0984 34.092 78.0624 35.28V35.784C78.0624 37.044 78.0984 38.88 77.2344 39.78C76.9104 40.068 76.5144 40.248 76.0464 40.248H75.9744C73.6344 40.14 73.4184 37.332 73.4184 35.82V14.436C73.4184 14.364 73.3464 12.564 74.1384 11.772C74.4984 11.448 75.2544 11.268 75.7584 11.268C76.2984 11.268 76.8024 11.484 77.1264 11.808C77.7384 12.492 77.8104 13.248 77.8464 14.04C77.8824 14.184 77.8824 14.328 77.9184 14.508C77.9904 15.264 77.9904 16.164 78.0264 17.028C78.0264 17.568 78.0624 18.072 78.0624 18.576V22.464C78.0624 22.716 78.0624 23.004 78.1344 23.256C78.1344 23.292 78.8544 23.292 78.9264 23.328C79.0704 23.328 79.2504 23.364 79.3944 23.364ZM62.5464 24.984C64.0944 24.696 65.4264 23.94 65.4264 22.104C65.4264 19.98 63.6624 19.188 61.8984 19.152C60.0984 19.08 58.2984 19.836 58.2984 22.104C58.2984 24.696 60.5664 25.38 62.5464 24.984ZM116.998 37.656C117.754 37.692 118.402 37.98 118.618 38.736C118.87 39.6 118.582 40.212 117.682 40.536C117.106 40.788 116.458 40.788 115.99 40.788H99.9698C98.9978 40.788 97.9178 40.788 96.8738 40.752C95.5778 40.716 95.1458 39.816 95.0738 38.736L94.9298 36.252C94.8938 35.712 94.8938 34.452 95.3258 33.948C95.9738 33.264 96.8738 33.156 97.9178 33.156H99.0338C99.2498 33.156 99.3938 33.192 99.5378 33.192H114.514V31.752H99.1778C98.9258 31.752 98.6738 31.716 98.3858 31.752H97.5218C97.0538 31.752 96.6578 31.752 96.2978 31.68C95.8658 31.572 95.5058 31.572 95.2538 31.176C94.9658 30.672 94.8578 30.096 95.0378 29.52C95.2898 28.764 96.3698 28.656 96.9098 28.548C97.2698 28.512 97.6298 28.476 98.0258 28.476H98.6378C98.8898 28.512 99.0698 28.512 99.3218 28.512H114.874C117.286 28.512 118.654 29.196 118.654 30.888V34.2C118.654 34.848 118.366 35.424 117.61 35.892C116.998 36.252 116.35 36.216 115.738 36.216H99.3578V37.656H116.998ZM101.554 11.268C106.45 11.592 109.186 14.4 108.826 19.548C108.502 23.832 106.198 26.316 101.626 26.316C99.8618 26.316 97.8458 26.496 95.6498 25.128C93.5618 23.796 92.9138 21.132 92.9138 18.828C92.9138 13.644 96.5858 10.908 101.554 11.268ZM118.69 14.328V24.696C118.69 24.732 118.546 26.136 117.61 26.748C117.286 26.928 116.962 27.036 116.602 27.036C116.17 27.036 115.774 26.892 115.414 26.64C115.162 26.46 114.946 26.208 114.802 25.884C114.082 24.444 114.37 22.32 114.37 20.736C114.406 18.684 114.406 17.352 114.406 15.336V14.868C114.37 14.328 114.37 13.716 114.514 13.176C114.622 12.78 114.838 12.42 115.162 12.024C115.558 11.556 116.314 11.304 117.106 11.412C117.79 11.52 118.33 11.88 118.546 12.348C118.834 12.96 118.726 14.148 118.69 14.328ZM104.65 19.98L104.686 19.692C104.902 17.964 104.038 16.308 102.526 15.768C100.51 15.084 97.4138 15.696 97.0178 18.396C96.7298 20.232 97.5218 22.248 100.294 22.5C102.202 22.716 104.182 22.176 104.65 19.98ZM145.549 26.244C145.945 26.244 146.305 26.352 146.809 26.46C147.205 26.568 147.601 26.748 147.889 26.928C148.213 27.252 148.393 27.648 148.393 28.116C148.393 28.332 148.393 28.62 148.285 28.908C148.213 29.196 148.105 29.412 147.889 29.52C147.817 29.7 147.493 29.808 147.205 29.916C146.917 29.988 146.629 30.096 146.305 30.096C145.945 30.096 145.621 30.204 145.225 30.204C145.045 30.204 126.109 30.204 126.109 30.204C125.533 30.204 124.921 30.204 124.345 30.204C123.661 30.204 122.941 29.988 122.473 29.52C122.077 28.908 121.969 27.828 122.365 27.252C122.545 26.856 122.941 26.64 123.265 26.568C123.841 26.352 124.345 26.244 124.813 26.244C125.317 26.244 125.929 26.244 126.505 26.244C127.009 26.244 132.409 26.244 132.409 26.244V24.084C132.337 24.192 132.121 24.084 131.833 24.084H130.753C129.673 24.084 128.773 24.084 127.585 24.084C127.081 24.084 126.325 24.084 125.821 23.976C125.317 23.904 124.813 23.796 124.417 23.508C124.129 23.292 123.949 23.004 123.733 22.716C123.661 22.32 123.553 22.032 123.445 21.708C123.337 21.42 123.337 21.132 123.265 20.844C123.265 20.628 123.265 20.448 123.265 20.448V13.536C123.265 13.14 123.445 12.636 123.661 12.24C123.841 11.772 124.237 11.556 124.741 11.448C125.029 11.448 125.605 11.376 125.929 11.376C126.217 11.448 126.397 11.448 126.685 11.556C127.585 11.952 127.585 13.032 127.585 13.932C127.585 14.112 127.585 14.436 127.585 14.616C127.585 14.904 127.585 15.12 127.585 15.12C127.585 15.12 142.777 15.3 143.065 15.228C143.065 15.12 142.957 15.012 143.065 14.832C143.065 14.616 143.065 14.436 143.065 14.112V13.716V13.248C143.065 12.852 143.065 12.564 143.281 12.168C143.461 11.844 144.037 11.556 144.433 11.448C145.333 11.268 146.017 11.376 146.521 11.772C147.025 12.24 147.205 12.852 147.205 13.716V15.516C147.205 16.2 147.205 16.884 147.205 17.568C147.205 18.252 147.205 18.972 147.205 19.656C147.205 20.34 147.205 20.916 147.097 21.528C147.097 21.816 147.025 22.104 146.917 22.32C146.809 22.608 146.701 22.788 146.521 23.112C146.125 23.688 145.333 23.904 144.757 23.976C144.361 23.976 144.037 24.084 143.677 24.084C142.957 24.084 142.381 24.084 141.697 24.084C141.409 24.084 138.925 24.084 138.529 24.084C138.241 24.084 137.845 24.084 137.557 24.084C137.557 24.372 137.557 25.056 137.557 25.38V26.244C138.241 26.244 138.421 26.244 139.213 26.244C140.005 26.244 140.797 26.244 141.481 26.244H143.749C144.433 26.244 145.045 26.244 145.549 26.244ZM132.625 35.604H145.837C145.945 35.604 145.945 35.604 146.125 35.604C146.233 35.712 146.413 35.82 146.629 35.928C146.809 36 146.917 36.108 147.097 36.324C147.205 36.504 147.313 36.72 147.421 37.008C147.493 37.872 147.421 38.592 147.025 39.06C146.701 39.456 146.413 39.672 146.125 39.672C145.837 39.78 145.621 39.78 145.621 39.78H125.929C125.029 39.78 124.345 39.672 123.841 39.384C123.265 39.06 123.049 38.592 123.049 38.088V34.848C122.941 34.344 122.941 33.84 123.049 33.264C123.049 32.76 123.265 32.364 123.553 32.076C123.949 31.68 124.345 31.572 124.813 31.572C124.921 31.572 125.137 31.572 125.317 31.572C125.533 31.572 125.713 31.572 125.821 31.68C126.109 31.788 126.397 31.86 126.505 32.076C126.685 32.256 126.793 32.472 126.901 32.76C127.009 33.048 127.081 33.264 127.081 33.552C127.081 33.84 127.189 34.128 127.189 34.344C127.189 34.524 127.189 34.74 127.189 34.92C127.189 35.136 127.297 35.316 127.297 35.532C127.405 35.532 127.585 35.604 127.981 35.604C128.377 35.604 128.953 35.604 129.853 35.604C130.537 35.604 131.221 35.604 131.725 35.604C132.337 35.604 132.625 35.604 132.625 35.604ZM127.801 20.448C127.981 20.736 128.269 20.844 128.665 20.844C128.953 20.844 129.277 20.844 129.565 20.844C130.645 20.844 131.545 20.844 132.517 20.844C132.913 20.844 133.309 20.844 133.705 20.844H134.893H135.865C136.153 20.844 142.381 20.844 142.489 20.844C142.669 20.844 142.777 20.844 142.885 20.736C142.957 20.628 143.065 20.448 143.065 20.232C143.065 20.052 143.065 19.944 143.065 19.764C143.065 19.656 143.065 18.648 143.065 18.648C143.065 18.648 134.281 18.648 133.705 18.648C133.021 18.648 129.565 18.648 128.953 18.648C128.557 18.648 127.585 18.648 127.585 18.648C127.585 18.648 127.585 19.584 127.585 19.692C127.693 19.872 127.693 20.34 127.801 20.448ZM157.84 11.304C158.452 11.304 159.028 11.376 159.604 11.448C160.504 11.592 161.332 12.024 162.016 12.708C164.356 15.156 164.86 19.368 165.004 22.788C165.112 24.984 165.076 27.216 164.824 29.376C164.572 31.608 164.248 34.02 163.06 35.856C162.052 37.404 160.468 38.412 158.848 38.736C157.372 39.024 155.752 38.844 154.384 38.052C153.088 37.296 152.224 36.108 151.576 34.596C151.108 33.48 150.82 32.256 150.748 31.032C150.568 29.016 150.496 27 150.496 24.984C150.496 23.616 150.496 22.284 150.64 20.952C150.712 19.872 150.892 18.756 151.072 17.712C151.252 16.848 151.36 16.092 151.72 15.3C152.08 14.508 152.548 13.752 153.16 13.176C154.204 12.132 155.572 11.556 156.94 11.376C157.228 11.34 157.552 11.34 157.84 11.304ZM170.764 27.036C170.116 26.928 168.748 26.928 168.1 26.856C166.444 26.748 165.652 25.524 166.156 23.688C166.264 23.328 166.624 22.824 166.912 22.572C167.2 22.356 167.524 22.176 167.92 22.104C168.676 21.996 169.936 22.104 170.728 22.032H170.836V21.888C170.872 20.7 170.872 20.988 170.836 19.764C170.836 18.54 170.8 17.28 170.836 16.092V15.588C170.836 14.328 170.836 12.456 171.7 11.592C172.024 11.304 172.384 11.124 172.852 11.124H172.924C175.264 11.232 175.516 14.04 175.516 15.552V37.152C175.516 37.224 175.588 39.06 174.76 39.816C174.436 40.14 173.68 40.356 173.176 40.356C172.636 40.356 172.132 40.14 171.808 39.78C171.196 39.132 171.124 38.376 171.052 37.584C171.052 37.44 171.016 37.296 171.016 37.116C170.944 36.36 170.944 35.46 170.908 34.596C170.872 34.056 170.872 33.552 170.872 33.048V32.22C170.872 31.212 170.836 28.836 170.836 27.828C170.836 27.576 170.872 27.252 170.764 27.036ZM157.732 33.948C158.164 33.948 158.632 33.804 159.064 33.516C159.856 32.94 160.144 31.932 160.36 30.78C160.756 28.584 160.72 25.92 160.648 23.652C160.612 21.816 160.576 19.44 159.712 17.964C159.244 17.172 158.524 16.668 157.768 16.776C156.976 16.848 156.256 17.352 155.824 18.288L155.5 19.044C155.212 19.944 155.068 20.952 154.996 21.924C154.924 22.896 154.852 23.904 154.852 24.876C154.888 25.848 154.78 26.748 154.852 27.684C155.032 30.168 155.356 33.912 157.732 33.948Z" fill="#FFFFFE"/>
<circle cx="3" cy="6" r="3" fill="#FCBE79"/>
<path d="M191.99 34V40.7879C192.148 43.8586 190.562 50 182.947 50C175.332 50 173.111 50 172 50" stroke="#FCC17E" stroke-width="1.5" stroke-linecap="round"/>
</svg>
