<svg width="853" height="229" viewBox="0 0 853 229" fill="none" xmlns="http://www.w3.org/2000/svg">
<path d="M464.263 206.94C479.811 196.303 489.598 181.384 491.165 165.978C491.674 160.85 491.271 155.51 488.051 150.932C480.468 140.104 459.476 137.434 443.864 141.947C428.253 146.461 416.835 156.124 406.075 165.448C431.79 132.475 440.835 103.931 440.327 66.4437C440.179 55.8693 437.637 43.5573 424.864 38.3867C414.526 34.2121 400.948 36.7338 391.946 42.2647C382.922 47.7956 377.52 55.7422 372.797 63.5829C353.944 94.8185 341.679 128.131 336.553 161.994C337.697 151.187 336.638 137.54 322.784 133.344C312.977 130.377 301.199 134.382 295.078 140.655C288.956 146.927 287.261 154.874 286.35 162.503C284.889 174.794 284.995 187.169 286.668 199.439L464.263 206.94Z" fill="#FFF8EC"/>
<path d="M580.727 220.566C574.223 206.453 568.864 191.725 568.483 176.658C568.102 161.591 573.122 145.974 585.302 134.594C588.522 131.585 592.801 128.703 597.715 128.894C603.477 129.106 607.629 133.323 610.658 137.307C620.825 150.699 627.392 165.893 629.786 181.49C625.316 160.49 625.464 138.853 630.188 117.896C633.831 101.812 640.652 85.452 655.141 74.0724C660.183 70.1097 666.898 66.6979 673.803 67.7363C683.801 69.262 688.101 78.7768 690.135 86.8506C697.401 115.649 698.968 145.402 694.774 174.624C694.837 164.813 704.92 155.722 716.931 154.641C719.875 154.365 723.074 154.598 725.404 156.082C728.073 157.777 728.984 160.659 729.598 163.35C731.42 171.339 731.971 179.519 731.229 187.614C735.55 174.137 753.132 164.389 770.163 165.999C773.594 166.317 777.153 167.144 779.504 169.199C781.962 171.339 782.639 174.412 783.063 177.294C784.737 189.055 783.444 201.092 779.314 212.45L580.748 220.566H580.727Z" fill="#FFF8EC"/>
<path d="M118.14 206.94C101.723 194.056 91.3861 176.001 89.755 157.311C89.2043 151.102 89.6491 144.638 93.0383 139.086C101.045 125.969 123.202 122.727 139.661 128.194C156.12 133.661 168.173 145.38 179.548 156.654C152.392 116.709 142.86 82.1459 143.389 36.7335C143.538 23.9341 146.228 9.01555 159.721 2.76419C170.63 -2.27928 184.95 0.772217 194.461 7.46859C203.993 14.165 209.67 23.8069 214.669 33.2793C234.56 71.1054 247.502 111.453 252.904 152.479C251.675 139.383 252.819 122.854 267.435 117.768C277.772 114.166 290.206 119.04 296.667 126.626C303.128 134.234 304.907 143.833 305.86 153.094C307.407 167.97 307.301 182.973 305.543 197.828L118.119 206.919L118.14 206.94Z" fill="#FFF8EC"/>
<path d="M852.648 207.068C852.648 194.967 661.771 185.135 426.326 185.135C190.881 185.135 0.00390625 194.946 0.00390625 207.068C0.00390625 219.189 190.881 229 426.326 229C661.771 229 852.648 219.189 852.648 207.068Z" fill="#FFF2DA"/>
<path d="M116.275 221.922H142.711C144.131 220.715 141.737 218.002 139.216 217.811C138.136 217.727 136.759 217.96 135.192 218.299C134.831 213.467 132.756 191.746 124.918 192.615C116.127 193.59 124.918 202.172 127.418 207.258C129.26 211.03 131.209 216.434 132.099 218.977C131.379 219.125 130.637 219.274 129.896 219.422C128.731 215.841 124.388 203.783 118.86 204.482C112.378 205.309 114.983 210.14 119.58 213.001C122.948 215.099 127.079 218.108 129.049 219.549C127.375 219.825 125.638 220.015 123.88 219.952C119.347 219.846 117.144 221.181 116.297 221.901" fill="#F4DFB4"/>
<path d="M378.474 163.753C377.182 165.215 371.187 167.546 370.763 167.186C370.34 166.825 371.928 160.553 373.199 159.112C374.491 157.65 376.694 157.522 378.156 158.794C379.618 160.087 379.745 162.29 378.474 163.753Z" fill="#FFCDB3"/>
<path d="M369.281 158.688C370.446 160.235 371.484 166.613 371.039 166.952C370.595 167.291 364.791 164.452 363.647 162.905C362.482 161.337 362.799 159.154 364.367 157.988C365.913 156.823 368.116 157.162 369.281 158.709" fill="#FFCDB3"/>
<path d="M340.918 226.202L340.325 226.118C338.037 196.408 328.971 175.09 328.844 174.814L329.373 174.581C329.5 174.878 338.63 196.323 340.918 226.202Z" fill="#F4DFB4"/>
<path d="M322.701 171.826C323.824 173.098 329.056 175.132 329.416 174.814C329.776 174.496 328.399 169.05 327.298 167.779C326.175 166.507 324.247 166.401 322.976 167.503C321.706 168.626 321.6 170.555 322.701 171.826Z" fill="#FFCDB3"/>
<path d="M330.729 167.398C329.712 168.754 328.801 174.306 329.182 174.582C329.564 174.878 334.626 172.399 335.622 171.043C336.639 169.687 336.363 167.779 335.008 166.762C333.652 165.745 331.746 166.021 330.729 167.377" fill="#FFCDB3"/>
<path d="M336.745 173.289C335.114 172.844 329.628 174.009 329.501 174.476C329.374 174.942 333.504 178.735 335.136 179.18C336.767 179.625 338.44 178.671 338.885 177.04C339.33 175.408 338.376 173.734 336.745 173.289Z" fill="#FFCDB3"/>
<path d="M333.038 180.642C332.869 178.968 329.84 174.242 329.353 174.284C328.865 174.327 326.79 179.561 326.959 181.235C327.128 182.909 328.611 184.16 330.306 183.99C331.979 183.82 333.229 182.337 333.06 180.642" fill="#FFCDB3"/>
<path d="M324.692 180.282C326.196 179.498 329.416 174.899 329.183 174.475C328.95 174.051 323.337 174.094 321.854 174.878C320.35 175.662 319.778 177.506 320.562 179.01C321.346 180.515 323.188 181.087 324.692 180.303" fill="#FFCDB3"/>
<path d="M328.209 174.306C328.294 173.755 328.802 173.374 329.353 173.48C329.904 173.564 330.285 174.094 330.179 174.624C330.094 175.175 329.565 175.556 329.035 175.472C328.484 175.387 328.103 174.857 328.209 174.306Z" fill="#F78247"/>
<path d="M338.185 183.037C336.512 185.092 334.733 193.654 335.305 194.141C335.876 194.607 343.926 191.111 345.578 189.055C347.252 187.021 346.934 184.012 344.879 182.338C342.846 180.685 339.838 180.981 338.164 183.037" fill="#F4DFB4"/>
<path d="M334.096 207.682C335.812 208.53 339.646 213.658 339.392 214.145C339.159 214.633 332.761 214.781 331.046 213.933C329.309 213.086 328.61 211.009 329.436 209.293C330.283 207.555 332.359 206.856 334.096 207.682Z" fill="#F4DFB4"/>
<path d="M357.566 226.203L358.244 226.097C360.871 192.001 371.293 167.525 371.441 167.186L370.827 166.932C370.678 167.271 360.193 191.895 357.566 226.203Z" fill="#F4DFB4"/>
<path d="M362.354 165.448C364.218 164.939 370.531 166.296 370.679 166.825C370.827 167.355 366.082 171.721 364.197 172.229C362.312 172.738 360.405 171.636 359.876 169.771C359.368 167.906 360.469 165.978 362.333 165.448" fill="#FFCDB3"/>
<path d="M366.613 173.903C366.804 171.975 370.299 166.55 370.849 166.592C371.4 166.656 373.794 172.632 373.603 174.56C373.413 176.488 371.697 177.908 369.769 177.717C367.841 177.527 366.422 175.81 366.613 173.882" fill="#FFCDB3"/>
<path d="M376.187 173.479C374.471 172.568 370.764 167.291 371.018 166.804C371.272 166.317 377.733 166.359 379.449 167.27C381.165 168.182 381.821 170.301 380.932 172.017C380.021 173.734 377.903 174.391 376.187 173.5" fill="#FFCDB3"/>
<path d="M372.162 166.613C372.056 165.978 371.463 165.554 370.848 165.66C370.213 165.766 369.789 166.359 369.895 166.974C370.001 167.609 370.594 168.033 371.23 167.927C371.865 167.821 372.289 167.228 372.183 166.613" fill="#F78247"/>
<path d="M357.757 191.343C359.664 193.695 361.718 203.549 361.062 204.079C360.384 204.63 351.169 200.604 349.263 198.251C347.357 195.899 347.717 192.445 350.068 190.538C352.419 188.631 355.872 188.991 357.778 191.343" fill="#F4DFB4"/>
<path d="M365.404 204.948C363.413 205.923 359.028 211.793 359.325 212.365C359.6 212.937 366.929 213.106 368.921 212.132C370.912 211.157 371.738 208.783 370.763 206.791C369.789 204.799 367.417 203.994 365.425 204.948" fill="#F4DFB4"/>
<path d="M503.898 193.102C506.439 194.141 515.484 193.293 515.781 192.573C516.078 191.852 510.146 184.944 507.626 183.927C505.084 182.909 502.203 184.117 501.186 186.66C500.169 189.203 501.377 192.085 503.919 193.102" fill="#F4DFB4"/>
<path d="M526.731 197.425C525.312 199.756 524.655 208.826 525.333 209.228C526.011 209.631 533.764 204.905 535.183 202.574C536.602 200.243 535.861 197.192 533.531 195.772C531.201 194.352 528.15 195.094 526.731 197.425Z" fill="#F4DFB4"/>
<path d="M514.531 215.184C517.136 216.01 526.097 214.506 526.33 213.764C526.563 213.022 520.144 206.601 517.539 205.754C514.933 204.927 512.158 206.368 511.311 208.954C510.485 211.56 511.925 214.336 514.531 215.184Z" fill="#F4DFB4"/>
<path d="M527.706 223.957C527.706 223.745 526.69 203.232 515.463 192.636L515.696 192.382C527.029 203.083 528.045 223.745 528.045 223.957H527.706Z" fill="#F4DFB4"/>
<path d="M565.199 193.547C563.61 194.606 557.362 195.285 557.065 194.84C556.769 194.394 559.819 188.885 561.408 187.846C562.975 186.808 565.114 187.232 566.152 188.8C567.212 190.389 566.767 192.508 565.199 193.547Z" fill="#F4DFB4"/>
<path d="M550.308 199.651C551.6 201.049 553.295 207.11 552.892 207.47C552.49 207.83 546.58 205.711 545.288 204.313C543.995 202.935 544.08 200.752 545.457 199.46C546.834 198.167 549.016 198.252 550.308 199.629" fill="#F4DFB4"/>
<path d="M561.049 210.013C559.396 210.945 553.105 211.157 552.83 210.67C552.576 210.204 556.028 204.948 557.702 204.016C559.354 203.083 561.451 203.677 562.362 205.33C563.294 206.983 562.701 209.081 561.049 209.992" fill="#F4DFB4"/>
<path d="M553.316 217.79C553.294 217.642 551.134 203.571 557.298 194.819L557.107 194.671C550.88 203.508 553.061 217.684 553.083 217.812L553.316 217.769V217.79Z" fill="#F4DFB4"/>
<path d="M542.175 222.748L541.455 222.642C538.637 186.194 529.232 167.715 529.084 167.376L530.63 172.589C530.779 172.949 539.379 186.109 542.175 222.769" fill="#F4DFB4"/>
<path d="M523.893 169.517C525.27 171.064 531.688 173.564 532.133 173.183C532.578 172.801 530.905 166.105 529.528 164.558C528.151 163.011 525.779 162.863 524.232 164.219C522.686 165.596 522.538 167.97 523.893 169.517Z" fill="#FFCDB3"/>
<path d="M533.744 164.091C532.494 165.765 531.371 172.568 531.859 172.907C532.346 173.246 538.531 170.237 539.76 168.584C541.009 166.91 540.649 164.579 538.997 163.328C537.345 162.099 534.994 162.438 533.744 164.091Z" fill="#FFCDB3"/>
<path d="M541.136 171.339C539.145 170.788 532.388 172.229 532.24 172.801C532.091 173.373 537.154 178.035 539.166 178.586C541.157 179.137 543.233 177.951 543.784 175.959C544.335 173.967 543.149 171.89 541.157 171.339" fill="#FFCDB3"/>
<path d="M536.581 180.346C536.391 178.29 532.641 172.484 532.048 172.547C531.455 172.611 528.913 179.011 529.104 181.066C529.295 183.122 531.137 184.647 533.192 184.436C535.247 184.224 536.772 182.401 536.56 180.346" fill="#FFCDB3"/>
<path d="M526.351 179.9C528.194 178.947 532.134 173.289 531.859 172.759C531.583 172.229 524.699 172.293 522.856 173.246C521.013 174.2 520.314 176.488 521.267 178.311C522.242 180.154 524.508 180.854 526.33 179.879" fill="#FFCDB3"/>
<path d="M530.65 172.589C530.756 171.911 531.391 171.466 532.069 171.572C532.747 171.678 533.192 172.314 533.086 172.992C532.98 173.67 532.344 174.115 531.667 174.009C530.989 173.903 530.523 173.267 530.65 172.589Z" fill="#F78247"/>
<path d="M541.984 185.494C539.95 187.995 537.747 198.527 538.468 199.12C539.188 199.692 549.038 195.391 551.071 192.89C553.105 190.39 552.724 186.702 550.224 184.647C547.724 182.612 544.039 182.994 541.984 185.494Z" fill="#F4DFB4"/>
<path d="M501.609 226.479H501.122C496.059 202.533 486.379 186.152 486.252 185.94L486.654 185.707C486.782 185.94 496.526 202.406 501.609 226.5" fill="#F4DFB4"/>
<path d="M480.934 184.159C481.972 185.071 486.463 186.172 486.717 185.876C486.972 185.579 485.277 181.277 484.218 180.366C483.18 179.455 481.591 179.561 480.68 180.62C479.769 181.659 479.875 183.248 480.934 184.159Z" fill="#FFCDB3"/>
<path d="M486.973 179.71C486.295 180.918 486.147 185.537 486.486 185.728C486.825 185.919 490.68 183.376 491.358 182.168C492.035 180.96 491.591 179.413 490.383 178.756C489.176 178.078 487.651 178.523 486.973 179.731" fill="#FFCDB3"/>
<path d="M492.521 183.863C491.145 183.672 486.802 185.219 486.739 185.622C486.696 186.003 490.467 188.652 491.844 188.843C493.221 189.033 494.491 188.059 494.661 186.681C494.852 185.304 493.877 184.032 492.5 183.863" fill="#FFCDB3"/>
<path d="M490.298 190.241C489.98 188.885 486.993 185.367 486.612 185.473C486.231 185.558 485.087 190.029 485.405 191.385C485.722 192.742 487.078 193.589 488.413 193.271C489.747 192.954 490.616 191.597 490.298 190.262" fill="#FFCDB3"/>
<path d="M483.455 190.856C484.578 190.051 486.717 185.961 486.484 185.643C486.251 185.325 481.697 185.961 480.553 186.766C479.409 187.571 479.155 189.14 479.939 190.263C480.743 191.386 482.311 191.661 483.434 190.856" fill="#FFCDB3"/>
<path d="M485.681 185.601C485.681 185.156 486.062 184.775 486.528 184.796C486.994 184.796 487.354 185.177 487.333 185.643C487.333 186.088 486.952 186.47 486.486 186.449C486.02 186.449 485.659 186.067 485.681 185.601Z" fill="#F78247"/>
<path d="M498.2 201.769C497.056 203.613 496.526 210.797 497.056 211.115C497.585 211.433 503.749 207.724 504.872 205.881C506.016 204.037 505.423 201.621 503.58 200.498C501.737 199.354 499.322 199.947 498.2 201.791" fill="#F4DFB4"/>
<path d="M578.883 223.321L579.518 223.215C582.018 190.771 591.931 167.482 592.08 167.164L591.508 166.91C591.359 167.228 581.382 190.665 578.904 223.321" fill="#F4DFB4"/>
<path d="M598.794 163.901C597.566 165.278 591.846 167.503 591.465 167.164C591.063 166.804 592.567 160.87 593.795 159.472C595.024 158.094 597.121 157.946 598.519 159.175C599.896 160.404 600.044 162.502 598.815 163.901" fill="#FFCDB3"/>
<path d="M590.026 159.069C591.127 160.553 592.123 166.613 591.699 166.931C591.275 167.249 585.768 164.558 584.666 163.075C583.565 161.591 583.861 159.493 585.344 158.391C586.827 157.289 588.924 157.586 590.026 159.069Z" fill="#FFCDB3"/>
<path d="M583.458 165.511C585.237 165.024 591.232 166.316 591.38 166.825C591.529 167.334 586.996 171.487 585.216 171.974C583.437 172.462 581.594 171.402 581.107 169.622C580.62 167.842 581.679 165.999 583.458 165.511Z" fill="#FFCDB3"/>
<path d="M587.505 173.543C587.674 171.699 591 166.55 591.529 166.592C592.059 166.634 594.326 172.335 594.156 174.178C593.987 176.022 592.334 177.357 590.513 177.188C588.67 177.018 587.335 175.386 587.505 173.543Z" fill="#FFCDB3"/>
<path d="M596.613 173.14C594.982 172.293 591.466 167.249 591.699 166.783C591.953 166.317 598.075 166.359 599.727 167.207C601.358 168.054 601.993 170.089 601.125 171.72C600.278 173.352 598.244 173.988 596.613 173.119" fill="#FFCDB3"/>
<path d="M592.78 166.613C592.674 166.02 592.123 165.596 591.509 165.702C590.916 165.808 590.492 166.359 590.598 166.973C590.683 167.567 591.255 167.99 591.848 167.884C592.441 167.8 592.865 167.228 592.759 166.613" fill="#F78247"/>
<path d="M577.4 198.824C579.222 201.049 581.171 210.436 580.535 210.945C579.9 211.454 571.13 207.639 569.308 205.393C567.487 203.168 567.826 199.883 570.071 198.061C572.295 196.238 575.579 196.578 577.4 198.824Z" fill="#F4DFB4"/>
<path d="M475.979 229C475.979 229 479.58 219.528 492.649 218.934C505.719 218.341 514.7 226.055 525.504 222.494C536.307 218.934 554.164 210.882 571.067 216.243C587.971 221.604 590.81 228.979 590.81 228.979H475.979V229Z" fill="#F4DFB4"/>
<path d="M666.749 224.91H646.244C645.143 223.978 647.007 221.859 648.956 221.71C649.803 221.647 650.862 221.816 652.091 222.092C652.366 218.341 653.976 201.494 660.055 202.172C666.876 202.935 660.055 209.589 658.128 213.552C656.709 216.476 655.183 220.672 654.506 222.643C655.056 222.77 655.628 222.876 656.221 222.982C657.132 220.206 660.5 210.861 664.779 211.39C669.799 212.026 667.787 215.777 664.228 218.002C661.602 219.634 658.403 221.965 656.878 223.088C658.17 223.3 659.526 223.448 660.882 223.406C664.398 223.321 666.114 224.359 666.77 224.91" fill="#F4DFB4"/>
<circle opacity="0.2" cx="435.461" cy="167.461" r="38.4615" fill="#AB6A1D"/>
<circle opacity="0.3" cx="453.923" cy="185.923" r="23.0769" fill="#AB6A1D"/>
</svg>
