<svg width="49" height="31" viewBox="0 0 49 31" fill="none" xmlns="http://www.w3.org/2000/svg">
<path fill-rule="evenodd" clip-rule="evenodd" d="M43.0876 11.4447V2.15723H45.3945V11.4447H43.0876Z" fill="#B5B5B6"/>
<path fill-rule="evenodd" clip-rule="evenodd" d="M39.6071 5.6582H48.8945V7.96503H39.6071V5.6582Z" fill="#B5B5B6"/>
<path d="M26.6292 29.9397C26.6292 29.9397 26.6292 29.9397 26.6292 29.9197C26.6292 29.9197 26.5088 29.8595 26.4687 29.8394L25.0244 29.2778C24.884 29.2176 24.7436 29.0571 24.7236 28.8966L24.1017 24.2228C24.1017 24.2228 24.0616 24.1426 24.0215 24.1426H13.9316C13.9316 24.1426 13.8514 24.1827 13.8514 24.2228L13.2295 28.8966C13.2095 29.0571 13.0691 29.2176 12.9287 29.2778L11.4844 29.8394C11.4844 29.8394 11.4041 29.8795 11.364 29.8795C11.3439 29.8795 11.3038 29.9197 11.3038 29.9197C11.3038 29.9197 11.3038 29.9397 11.3038 29.9598C11.3038 29.9798 11.344 29.9999 11.3841 29.9999H26.5489C26.5489 29.9999 26.6292 29.9999 26.6292 29.9598C26.6292 29.9397 26.6292 29.9197 26.6292 29.9197" fill="#B5B5B6"/>
<path d="M26.6292 29.9197C26.6292 29.9397 26.6292 29.9397 26.6292 29.9397V29.9197ZM26.6292 29.9197C26.6292 29.9197 26.5088 29.8595 26.4687 29.8394L25.0244 29.2778C24.884 29.2176 24.7436 29.0571 24.7236 28.8966L24.1017 24.2228C24.1017 24.2228 24.0616 24.1426 24.0215 24.1426H13.9316C13.9316 24.1426 13.8514 24.1827 13.8514 24.2228L13.2295 28.8966C13.2095 29.0571 13.0691 29.2176 12.9287 29.2778L11.4844 29.8394C11.4844 29.8394 11.4041 29.8795 11.364 29.8795C11.3439 29.8795 11.3038 29.9197 11.3038 29.9197C11.3038 29.9197 11.3038 29.9397 11.3038 29.9598C11.3038 29.9798 11.344 29.9999 11.3841 29.9999H26.5489C26.5489 29.9999 26.6292 29.9999 26.6292 29.9598C26.6292 29.9397 26.6292 29.9197 26.6292 29.9197Z" stroke="#B5B5B6" stroke-width="0.24" stroke-linejoin="round"/>
<path d="M3.46021 0.8125H34.4921C35.9363 0.8125 37.0998 1.97592 37.0998 3.42019V20.9721C37.0998 22.4164 35.9163 23.6 34.472 23.6H3.44015C1.99588 23.6 0.812378 22.4365 0.812378 20.9721V3.44027C0.812378 1.996 1.99588 0.8125 3.44015 0.8125H3.46021Z" fill="#7DA3D6"/>
<path fill-rule="evenodd" clip-rule="evenodd" d="M3.44018 1.62481C2.44458 1.62481 1.62481 2.44458 1.62481 3.44018V20.972C1.62481 21.9837 2.44056 22.7875 3.44018 22.7875H34.472C35.4676 22.7875 36.2874 21.9677 36.2874 20.972V3.4201C36.2874 2.42451 35.4877 1.62481 34.4921 1.62481H3.44018ZM0 3.44018C0 1.54722 1.54722 0 3.44018 0H34.4921C36.385 0 37.9122 1.52714 37.9122 3.4201V20.972C37.9122 22.865 36.365 24.4123 34.472 24.4123H3.44018C1.55125 24.4123 0 22.8891 0 20.972V3.44018Z" fill="#B5B5B6"/>
<path d="M29.9588 9.21678H31.3629V7.51172H33.1482V12.5667H31.3629V10.6811H29.9588V9.1967V9.21678ZM30.1192 11.0623V12.4463H24.5628V7.51172H29.9989V8.89582H26.3481V9.27695H29.4171V10.641H26.3481V11.0623H30.0992H30.1192ZM24.5628 13.028H33.1482V15.9166H26.3481V16.2776H33.1482V17.5414H24.5628V14.6528H31.3629V14.3119H24.5628V13.0481V13.028ZM23.2589 17.3007H21.4736V7.51172H23.2589V17.3007ZM14.4729 7.51172H20.1497V8.99609H18.0034L17.2211 12.667L18.8058 11.9448L20.4105 17.0801H18.6252L17.201 12.8274L16.2783 17.0801H14.493L16.2381 8.99609H14.513V7.51172H14.4729ZM13.3897 17.3007H11.6044V7.51172H13.3897V17.3007ZM10.3608 15.5956V17.0801H4.80432V7.51172H10.3608V8.99609H6.60967V15.5956H10.3608Z" fill="white"/>
</svg>
