<svg width="385" height="84" viewBox="0 0 385 84" fill="none" xmlns="http://www.w3.org/2000/svg">
<path d="M330.675 6.75483C324.282 13.011 327.705 21.1258 327.705 21.1258C327.705 21.1258 335.753 24.7072 342.123 18.4511C348.516 12.195 347.972 1.26937 347.972 1.26937C347.972 1.26937 337.068 0.498688 330.675 6.75483Z" fill="#AABD5B"/>
<path d="M317.685 1.42758C324.372 4.71432 323.783 12.0132 323.783 12.0132C323.783 12.0132 318.365 16.9319 311.677 13.6452C304.989 10.3585 302.586 1.58625 302.586 1.58625C302.586 1.58625 311.02 -1.85916 317.685 1.42758Z" fill="#91A166"/>
<path d="M0.798096 83.098H195.174V33.7969H0.798096L22.4483 58.1868L0.798096 83.098Z" fill="#DFD3E8"/>
<path d="M384.426 83.098H157.904V33.7969H384.426L362.776 58.1868L384.426 83.098Z" fill="#DFD3E8"/>
<path d="M351.327 20.0605H33.874V77.5445H351.327V20.0605Z" fill="white"/>
<path d="M351.327 78.6775H33.8741C33.2393 78.6775 32.7406 78.1788 32.7406 77.5441V20.0601C32.7406 19.4254 33.2393 18.9268 33.8741 18.9268H351.327C351.962 18.9268 352.461 19.4254 352.461 20.0601V77.5441C352.461 78.1788 351.962 78.6775 351.327 78.6775ZM35.0076 76.4108H350.194V21.1935H35.0076V76.4108Z" fill="#DFD3E8"/>
</svg>
