<svg width="269" height="80" viewBox="0 0 269 80" fill="none" xmlns="http://www.w3.org/2000/svg">
<g clip-path="url(#clip0_287_736)">
<path d="M232.016 0.429688H99.1379C78.9616 0.429688 62.6055 16.7854 62.6055 36.9612V43.0391C62.6055 63.2149 78.9616 79.5706 99.1379 79.5706H232.016C252.193 79.5706 268.549 63.2149 268.549 43.0391V36.9612C268.549 16.7854 252.193 0.429688 232.016 0.429688Z" fill="white"/>
<path d="M232.038 80H99.1378C78.7561 80 62.1758 63.4201 62.1758 43.0389V36.9611C62.1758 16.5799 78.7561 0 99.1378 0H232.038C252.419 0 269 16.5799 269 36.9611V43.0389C269 63.4201 252.419 80 232.038 80ZM99.1378 0.85906C79.2286 0.85906 63.0349 17.0523 63.0349 36.9611V43.0389C63.0349 62.9477 79.2286 79.1409 99.1378 79.1409H232.038C251.947 79.1409 268.141 62.9477 268.141 43.0389V36.9611C268.141 17.0523 251.947 0.85906 232.038 0.85906H99.1378Z" fill="#727171"/>
<path d="M93.791 13.3351C93.791 12.9485 94.0273 12.7337 94.4783 12.7337H96.7334V11.7029C96.7334 11.2519 96.9696 11.0156 97.4206 11.0156C97.8717 11.0156 98.1079 11.2519 98.1079 11.7029V12.7337H100.342C100.814 12.7337 101.029 12.927 101.029 13.3351C101.029 13.7431 100.793 13.9364 100.342 13.9364H100.041C100.406 14.3874 100.599 15.0103 100.599 15.8264C100.599 17.9525 99.5469 19.0478 97.4206 19.1337C95.2944 19.2197 94.242 18.1888 94.242 16.0626C94.242 15.1391 94.4998 14.4304 94.9937 13.915H94.4783C94.0273 13.915 93.791 13.7217 93.791 13.3136V13.3351ZM97.4206 13.9364C96.1965 14.0009 95.5951 14.6881 95.5951 16.0197C95.5951 17.3512 96.1965 18.017 97.4206 17.974C98.6234 17.9311 99.2247 17.2223 99.2247 15.8693C99.2247 14.6452 98.7093 14.0009 97.6569 13.9364H97.3992H97.4206ZM95.7884 21.5391C95.724 21.0237 95.8958 20.7015 96.2609 20.5727C96.7549 20.4223 97.0341 20.5941 97.077 21.1096L97.2918 22.7848C97.3347 23.3217 97.5925 23.5794 98.065 23.6009C99.9764 23.6868 101.866 23.6868 103.778 23.6009C104.186 23.6009 104.379 23.7512 104.379 24.0948C104.379 24.5244 104.186 24.7606 103.778 24.7821C101.866 24.8895 99.7616 24.8895 97.4636 24.7821C96.626 24.7391 96.1535 24.3096 96.0461 23.515L95.7884 21.5391ZM103.134 20.2505C103.348 17.4371 103.348 14.6452 103.134 11.8317C103.112 11.4237 103.305 11.2089 103.756 11.166C104.207 11.1445 104.444 11.3163 104.465 11.7243C104.551 12.7552 104.594 13.7646 104.615 14.7955H106.656C107.107 14.7955 107.322 14.9888 107.322 15.3968C107.322 15.8049 107.107 15.9982 106.656 15.9982H104.637C104.637 17.4586 104.572 18.919 104.465 20.3579C104.444 20.766 104.207 20.9592 103.756 20.8948C103.305 20.8733 103.112 20.6371 103.134 20.229V20.2505ZM107.644 17.3727C107.644 16.9861 107.858 16.7928 108.224 16.8143C111.918 17.072 115.59 17.072 119.284 16.8143C119.649 16.8143 119.843 16.9861 119.864 17.3727C119.864 17.7592 119.714 17.974 119.349 17.9955C117.716 18.1244 116.084 18.1888 114.452 18.1888V19.821C114.452 19.821 114.452 19.9069 114.452 19.9713H117.802C118.275 19.9713 118.511 20.1646 118.511 20.5727V21.4317C118.511 22.6774 118.253 23.7512 117.759 24.6532C117.566 25.0183 117.287 25.1042 116.9 24.868C116.492 24.6532 116.385 24.3311 116.6 23.966C116.965 23.2787 117.158 22.4411 117.158 21.4532V21.174H109.534C109.061 21.174 108.825 20.9807 108.825 20.5512C108.825 20.1217 109.061 19.9499 109.534 19.9499H113.12V18.1673C111.488 18.1673 109.856 18.1029 108.224 17.974C107.858 17.974 107.687 17.7592 107.708 17.3512L107.644 17.3727ZM108.782 12.068C108.782 11.6814 109.018 11.4666 109.491 11.4666H117.759C118.232 11.4666 118.468 11.6599 118.468 12.068V12.6264C118.468 13.872 118.21 14.9458 117.716 15.8478C117.523 16.2129 117.244 16.2774 116.857 16.0411C116.449 15.8049 116.342 15.5257 116.557 15.1606C116.922 14.4733 117.115 13.6572 117.115 12.6693H109.491C109.018 12.6693 108.782 12.476 108.782 12.068ZM121.088 22.1834C121.088 21.7968 121.303 21.6035 121.668 21.625C122.248 21.668 122.828 21.6895 123.408 21.7109V17.4586C123.408 16.9431 123.644 16.6639 124.095 16.6639C124.546 16.6639 124.782 16.9217 124.782 17.4586V21.7324C126.071 21.7324 127.36 21.6895 128.648 21.625C129.013 21.625 129.207 21.7968 129.228 22.1834C129.228 22.57 129.078 22.7848 128.713 22.8062C126.35 22.9566 123.988 22.9566 121.647 22.8062C121.282 22.8062 121.11 22.57 121.131 22.1834H121.088ZM121.539 12.7123C121.539 12.3257 121.776 12.1109 122.227 12.1109H127.789C128.262 12.1109 128.476 12.3042 128.476 12.7123V13.5928C128.476 15.8693 128.09 17.7163 127.295 19.1767C127.08 19.5418 126.801 19.6062 126.436 19.37C126.028 19.1552 125.942 18.8546 126.135 18.4895C126.801 17.2653 127.123 15.6546 127.123 13.6358V13.3351H122.227C121.754 13.3351 121.539 13.1418 121.539 12.7337V12.7123ZM130.474 22.7633C130.753 19.1337 130.753 15.4827 130.474 11.8317C130.452 11.4237 130.646 11.2089 131.097 11.166C131.548 11.123 131.784 11.3163 131.805 11.7243C131.934 13.378 131.999 15.0317 132.02 16.6639H133.996C134.447 16.6639 134.662 16.8572 134.662 17.2653C134.662 17.6733 134.447 17.8666 133.996 17.8666H132.02C132.02 19.5418 131.934 21.217 131.805 22.8707C131.784 23.2787 131.548 23.472 131.097 23.4076C130.646 23.3861 130.452 23.1499 130.474 22.7418V22.7633ZM138.42 17.7378C138.42 17.3512 138.635 17.1579 139 17.1794C142.694 17.4371 146.367 17.4371 150.061 17.1794C150.426 17.1794 150.619 17.3512 150.641 17.7378C150.641 18.1244 150.49 18.3391 150.125 18.3606C148.493 18.4895 146.861 18.5539 145.229 18.5539V19.9713C148.042 20.0572 149.438 20.8733 149.438 22.4197C149.438 24.0948 147.806 24.9539 144.541 25.0183C141.277 25.0613 139.645 24.2666 139.645 22.5915C139.645 21.0452 141.062 20.1861 143.875 20.0143V18.5539C142.243 18.5539 140.611 18.4895 138.979 18.3606C138.614 18.3606 138.442 18.1458 138.463 17.7378H138.42ZM149.137 15.8693C148.944 16.2344 148.686 16.2988 148.386 16.0626C147.913 15.7405 147.269 15.4613 146.431 15.268C145.1 15.8264 143.038 16.1056 140.267 16.1056C139.795 16.1056 139.58 15.9123 139.58 15.5257C139.58 15.1391 139.816 14.9458 140.289 14.9458C144.176 14.9458 146.431 14.323 147.033 13.0774C147.204 12.6908 147.119 12.4975 146.775 12.4975H140.847C140.353 12.4975 140.096 12.3042 140.096 11.8962C140.096 11.4881 140.332 11.3163 140.783 11.3163H146.882C148.257 11.3163 148.729 12.068 148.257 13.5713C148.149 13.8935 147.978 14.1727 147.741 14.4304C148.214 14.5807 148.622 14.774 148.944 15.0103C149.266 15.2465 149.331 15.5257 149.116 15.8693H149.137ZM144.541 23.8156C146.882 23.7727 148.064 23.3002 148.064 22.4197C148.064 21.5391 146.882 21.1311 144.541 21.174C142.179 21.217 140.998 21.6895 140.998 22.57C140.998 23.4505 142.179 23.8586 144.541 23.8156ZM151.564 17.3727C151.564 16.9861 151.779 16.7928 152.144 16.8143C155.838 17.072 159.511 17.072 163.205 16.8143C163.57 16.8143 163.763 16.9861 163.785 17.3727C163.785 17.7592 163.634 17.974 163.269 17.9955C161.637 18.1244 160.005 18.1888 158.372 18.1888V19.821C158.372 19.821 158.372 19.9069 158.372 19.9713H161.723C162.195 19.9713 162.432 20.1646 162.432 20.5727V21.4317C162.432 22.6774 162.174 23.7512 161.68 24.6532C161.487 25.0183 161.207 25.1042 160.821 24.868C160.413 24.6532 160.305 24.3311 160.52 23.966C160.885 23.2787 161.079 22.4411 161.079 21.4532V21.174H153.454C152.982 21.174 152.746 20.9807 152.746 20.5512C152.746 20.1217 152.982 19.9499 153.454 19.9499H157.041V18.1673C155.409 18.1673 153.776 18.1029 152.144 17.974C151.779 17.974 151.607 17.7592 151.629 17.3512L151.564 17.3727ZM152.681 12.068C152.681 11.6814 152.917 11.4666 153.39 11.4666H161.658C162.131 11.4666 162.367 11.6599 162.367 12.068V12.6264C162.367 13.872 162.11 14.9458 161.616 15.8478C161.422 16.2129 161.143 16.2774 160.756 16.0411C160.348 15.8049 160.241 15.5257 160.456 15.1606C160.821 14.4733 161.014 13.6572 161.014 12.6693H153.39C152.917 12.6693 152.681 12.476 152.681 12.068ZM171.409 18.8546C170.292 18.8546 169.734 18.2962 169.712 17.1579L169.605 12.9056C169.605 12.2827 169.949 11.9606 170.7 11.9606H177.788C178.539 11.9606 178.905 12.2827 178.883 12.9056L178.797 17.1579C178.776 18.2962 178.196 18.8546 177.079 18.8546H174.931V21.8183C176.542 21.8183 178.153 21.7539 179.764 21.625C180.129 21.625 180.322 21.7968 180.344 22.1834C180.344 22.57 180.193 22.7848 179.828 22.8062C176.113 23.0639 172.397 23.0639 168.681 22.8062C168.316 22.8062 168.145 22.57 168.166 22.1834C168.166 21.7968 168.381 21.6035 168.746 21.625C170.357 21.7539 171.967 21.8183 173.6 21.8183V18.8546H171.431H171.409ZM171.431 13.1633C171.13 13.1633 170.98 13.378 170.98 13.7861L171.065 16.8572C171.065 17.4156 171.28 17.6733 171.71 17.6733H176.778C177.208 17.6733 177.423 17.3941 177.423 16.8572L177.509 13.7861C177.509 13.378 177.358 13.1633 177.058 13.1633H171.409H171.431ZM181.289 19.9928C181.289 19.6062 181.503 19.4129 181.868 19.4344C185.562 19.6921 189.235 19.6921 192.929 19.4344C193.294 19.4344 193.487 19.6062 193.509 19.9928C193.509 20.3794 193.359 20.5941 192.993 20.5941C191.361 20.723 189.729 20.7874 188.097 20.7874V23.5794C188.097 24.0948 187.86 24.374 187.409 24.374C186.958 24.374 186.722 24.1163 186.722 23.5794V20.7874C185.09 20.7874 183.458 20.723 181.825 20.5941C181.46 20.5941 181.289 20.3794 181.31 19.9928H181.289ZM191.168 11.6384C191.662 11.6384 191.898 11.8317 191.898 12.2183C191.898 12.6264 191.64 12.8411 191.146 12.8411H184.489C184.188 12.8411 184.059 13.0559 184.081 13.4639L184.123 15.4398C184.123 15.9767 184.338 16.2559 184.789 16.2988C186.507 16.4492 188.698 16.4062 191.404 16.1485C191.791 16.127 192.027 16.2774 192.091 16.621C192.156 17.029 192.006 17.2438 191.619 17.3082C188.784 17.6948 186.336 17.7592 184.317 17.523C183.329 17.4156 182.813 16.9646 182.792 16.1915L182.706 12.6264C182.685 11.9821 183.028 11.6384 183.758 11.6384H191.146H191.168ZM198.492 13.3351C198.492 12.9485 198.728 12.7337 199.179 12.7337H201.047V11.7029C201.047 11.2519 201.284 11.0156 201.735 11.0156C202.186 11.0156 202.422 11.2519 202.422 11.7029V12.7337H202.723C204.011 12.7337 204.677 13.3566 204.677 14.6022C204.677 15.3324 204.484 15.9552 204.097 16.5136C204.677 16.8358 205.214 17.3082 205.729 17.9311C205.987 18.2747 205.987 18.5968 205.708 18.8546C205.386 19.1982 205.085 19.1767 204.849 18.8116C204.462 18.2103 203.925 17.7378 203.238 17.3727C202.293 18.1244 200.854 18.6827 198.943 19.0693C198.513 19.1552 198.277 18.9834 198.212 18.5324C198.127 18.1029 198.298 17.8452 198.728 17.7593C201.842 17.1364 203.388 16.0197 203.388 14.4519C203.388 14.1082 203.238 13.915 202.937 13.915H199.2C198.706 13.915 198.47 13.7217 198.47 13.3136L198.492 13.3351ZM200.661 21.5391C200.596 21.0237 200.747 20.7015 201.133 20.5727C201.627 20.4223 201.906 20.5941 201.971 21.1096L202.164 22.7848C202.207 23.3217 202.465 23.5794 202.937 23.6009C204.849 23.6868 206.76 23.6868 208.65 23.6009C209.058 23.6009 209.252 23.7512 209.252 24.0948C209.252 24.5244 209.058 24.7606 208.65 24.7821C206.739 24.8895 204.634 24.8895 202.336 24.7821C201.498 24.7391 201.026 24.3096 200.919 23.515L200.661 21.5391ZM207.877 20.2505C208.092 17.4371 208.092 14.6452 207.877 11.8317C207.856 11.4237 208.049 11.2089 208.5 11.166C208.951 11.1445 209.166 11.3163 209.187 11.7243C209.423 14.6022 209.423 17.4586 209.187 20.3364C209.187 20.7445 208.929 20.9378 208.5 20.8733C208.049 20.8519 207.856 20.6156 207.877 20.2076V20.2505ZM210.562 18.2532C210.562 17.8666 210.776 17.6733 211.142 17.6948C214.836 17.9525 218.508 17.9525 222.202 17.6948C222.567 17.6948 222.761 17.8666 222.782 18.2532C222.782 18.6398 222.632 18.8546 222.267 18.876C218.551 19.1337 214.836 19.1337 211.12 18.876C210.755 18.876 210.583 18.6613 210.605 18.2532H210.562ZM211.679 12.068C211.679 11.6814 211.915 11.4666 212.387 11.4666H220.656C221.128 11.4666 221.365 11.6599 221.365 12.068V12.6264C221.365 13.9794 221.085 15.1391 220.549 16.1485C220.334 16.5136 220.055 16.578 219.689 16.3633C219.281 16.127 219.174 15.8264 219.389 15.4613C219.818 14.6881 220.033 13.7646 220.033 12.6693H212.409C211.936 12.6693 211.7 12.476 211.7 12.068H211.679ZM212.087 21.217C212.022 20.7015 212.172 20.3794 212.559 20.2505C213.075 20.1002 213.354 20.2505 213.418 20.766L213.633 22.7633C213.676 23.3002 213.934 23.5579 214.406 23.5794C216.854 23.6653 218.916 23.6653 220.591 23.5794C221 23.5794 221.214 23.7297 221.214 24.0733C221.214 24.5029 221 24.7391 220.591 24.7606C218.229 24.868 215.952 24.868 213.783 24.7606C212.946 24.7176 212.473 24.2881 212.366 23.4935L212.087 21.217ZM224.028 13.3351C224.028 12.9485 224.264 12.7337 224.715 12.7337H226.97V11.7029C226.97 11.2519 227.206 11.0156 227.657 11.0156C228.108 11.0156 228.345 11.2519 228.345 11.7029V12.7337H230.578C231.051 12.7337 231.266 12.927 231.266 13.3351C231.266 13.7431 231.029 13.9364 230.578 13.9364H230.278C230.643 14.3874 230.836 15.0103 230.836 15.8264C230.836 17.9525 229.784 19.0478 227.657 19.1337C225.531 19.2197 224.479 18.1888 224.479 16.0626C224.479 15.1391 224.737 14.4304 225.231 13.915H224.715C224.264 13.915 224.028 13.7217 224.028 13.3136V13.3351ZM227.657 13.9364C226.433 14.0009 225.832 14.6881 225.832 16.0197C225.832 17.3512 226.433 18.017 227.657 17.974C228.86 17.9311 229.462 17.2223 229.462 15.8693C229.462 14.6452 228.946 14.0009 227.894 13.9364H227.636H227.657ZM226.025 21.5391C225.961 21.0237 226.133 20.7015 226.498 20.5727C226.992 20.4223 227.271 20.5941 227.314 21.1096L227.529 22.7848C227.572 23.3217 227.829 23.5794 228.302 23.6009C230.213 23.6868 232.103 23.6868 234.015 23.6009C234.423 23.6009 234.616 23.7512 234.616 24.0948C234.616 24.5244 234.423 24.7606 234.015 24.7821C232.103 24.8895 229.998 24.8895 227.7 24.7821C226.863 24.7391 226.39 24.3096 226.283 23.515L226.025 21.5391ZM233.37 20.2505C233.585 17.4371 233.585 14.6452 233.37 11.8317C233.349 11.4237 233.542 11.2089 233.993 11.166C234.444 11.1445 234.68 11.3163 234.702 11.7243C234.788 12.7552 234.831 13.7646 234.852 14.7955H236.893C237.344 14.7955 237.558 14.9888 237.558 15.3968C237.558 15.8049 237.344 15.9982 236.893 15.9982H234.874C234.874 17.4586 234.809 18.919 234.702 20.3579C234.68 20.766 234.444 20.9592 233.993 20.8948C233.542 20.8733 233.349 20.6371 233.37 20.229V20.2505Z" fill="#231815"/>
<path d="M82.1067 42.5217C84.147 41.2546 85.1564 38.5271 85.1564 34.3821C85.1564 33.8667 85.3927 33.5875 85.8437 33.5875C86.2947 33.5875 86.5095 33.8452 86.5095 34.3392C86.5095 35.9284 86.3806 37.3244 86.1014 38.5486C87.5833 39.515 88.5927 41.0398 89.1297 43.166C89.237 43.5741 89.0867 43.8318 88.6786 43.9392C88.2706 44.068 88.0343 43.9392 87.9269 43.5311C87.4974 41.9848 86.7672 40.7821 85.7148 39.9445C85.092 41.6412 84.147 42.8653 82.8584 43.66C82.4503 43.9177 82.1281 43.8533 81.8919 43.4452C81.6557 43.0801 81.7416 42.758 82.1067 42.5432V42.5217ZM91.2129 44.2398C91.4921 40.6103 91.4921 36.9593 91.2129 33.3083C91.1915 32.9002 91.3848 32.6855 91.8358 32.6425C92.2868 32.621 92.523 32.7929 92.5445 33.2009C92.6734 34.8546 92.7378 36.5083 92.7593 38.1405H94.7352C95.1862 38.1405 95.401 38.3338 95.401 38.7419C95.401 39.1499 95.1862 39.3432 94.7352 39.3432H92.7593C92.7593 41.0184 92.6734 42.6935 92.5445 44.3472C92.523 44.7553 92.2868 44.9486 91.8358 44.8841C91.3848 44.8627 91.1915 44.6264 91.2129 44.2184V44.2398ZM99.589 44.111C97.2695 44.1969 96.0882 42.4573 96.0882 38.8707C96.0882 35.2841 97.248 33.5016 99.589 33.4157C101.909 33.3298 103.068 35.0694 103.068 38.613C103.068 42.1566 101.909 44.0251 99.589 44.111ZM99.589 34.5969C98.1715 34.6398 97.4628 36.0573 97.4628 38.8278C97.4628 41.5982 98.1715 43.0157 99.589 42.9512C101.006 42.9083 101.715 41.4694 101.715 38.6774C101.715 35.8855 101.006 34.5539 99.589 34.5969ZM105.71 44.2398C105.989 40.6103 105.989 36.9593 105.71 33.3083C105.688 32.9002 105.882 32.6855 106.333 32.6425C106.784 32.621 106.999 32.7929 107.02 33.2009C107.299 36.9163 107.299 40.6103 107.02 44.3257C107.02 44.7338 106.762 44.9271 106.333 44.8627C105.882 44.8412 105.688 44.6049 105.71 44.1969V44.2398ZM111.96 44.111C109.834 44.1969 108.781 42.4573 108.781 38.8707C108.781 35.2841 109.834 33.5016 111.96 33.4157C114 33.3298 115.052 34.919 115.138 38.162H117.007C117.007 36.6586 116.921 35.1553 116.792 33.609C116.771 33.2009 116.964 32.9861 117.415 32.9432C117.866 32.9002 118.102 33.0935 118.124 33.4801C118.403 36.9808 118.403 40.4814 118.124 44.0036C118.102 44.4117 117.866 44.6049 117.415 44.5405C116.964 44.519 116.771 44.2828 116.792 43.8747C116.921 42.3499 116.985 40.8251 117.007 39.3217H115.138C114.988 42.4143 113.936 44.0036 111.96 44.068V44.111ZM111.96 34.5969C110.736 34.6398 110.134 36.0573 110.134 38.8278C110.134 41.5982 110.736 43.0157 111.96 42.9512C113.184 42.9083 113.785 41.4694 113.785 38.6774C113.785 35.8855 113.184 34.5539 111.96 34.5969ZM119.67 44.2398C119.949 40.6103 119.949 36.9593 119.67 33.3083C119.649 32.9002 119.842 32.6855 120.293 32.6425C120.744 32.621 120.959 32.7929 120.98 33.2009C121.259 36.9163 121.259 40.6103 120.98 44.3257C120.98 44.7338 120.722 44.9271 120.293 44.8627C119.842 44.8412 119.649 44.6049 119.67 44.1969V44.2398ZM123.02 42.5217C125.061 41.2546 126.07 38.5271 126.07 34.3821C126.07 33.8667 126.306 33.5875 126.757 33.5875C127.208 33.5875 127.423 33.8452 127.423 34.3392C127.423 35.9284 127.294 37.3244 127.015 38.5486C128.497 39.515 129.507 41.0398 130.043 43.166C130.151 43.5741 130 43.8318 129.592 43.9392C129.184 44.068 128.948 43.9392 128.841 43.5311C128.411 41.9848 127.681 40.7821 126.629 39.9445C126.006 41.6412 125.061 42.8653 123.772 43.66C123.364 43.9177 123.042 43.8533 122.806 43.4452C122.569 43.0801 122.655 42.758 123.02 42.5432V42.5217ZM132.621 38.1835C132.621 36.5727 132.535 34.962 132.427 33.3083C132.406 32.9002 132.599 32.6855 133.05 32.6425C133.501 32.621 133.716 32.7929 133.737 33.2009C134.017 36.9163 134.017 40.6103 133.737 44.3257C133.737 44.7338 133.48 44.9271 133.05 44.8627C132.599 44.8412 132.406 44.6049 132.427 44.1969C132.535 42.5861 132.599 40.9754 132.621 39.3432H130.559C130.108 39.3432 129.893 39.1499 129.893 38.7419C129.893 38.3338 130.108 38.1405 130.559 38.1405H132.621V38.1835ZM135.112 40.009C135.112 39.6009 135.327 39.4076 135.692 39.4291C139.386 39.6868 143.059 39.6868 146.753 39.4291C147.118 39.4291 147.311 39.6009 147.332 40.009C147.332 40.3955 147.182 40.6103 146.817 40.6318C143.101 40.8895 139.386 40.8895 135.67 40.6318C135.305 40.6318 135.133 40.3955 135.155 40.009H135.112ZM136.68 43.0157C136.615 42.5002 136.766 42.1781 137.131 42.0492C137.646 41.8989 137.926 42.0707 137.99 42.5861L138.183 44.2613C138.226 44.7982 138.484 45.0559 138.956 45.0774C141.405 45.1633 143.467 45.1633 145.142 45.0774C145.55 45.0774 145.765 45.2278 145.765 45.5714C145.765 46.0009 145.55 46.2372 145.142 46.2586C142.779 46.366 140.503 46.366 138.334 46.2586C137.496 46.2157 137.023 45.7861 136.916 44.9915L136.68 43.0157ZM136.68 33.3083C136.68 32.8788 136.895 32.664 137.367 32.6425C137.797 32.6425 138.011 32.8358 138.033 33.2439V35.6707C138.054 36.2076 138.291 36.4868 138.72 36.5298C140.374 36.7231 142.565 36.6801 145.249 36.3794C145.636 36.3365 145.872 36.4868 145.936 36.8519C146.001 37.26 145.851 37.4747 145.464 37.5392C142.629 37.9257 140.181 37.9902 138.119 37.7325C137.217 37.6251 136.766 37.1955 136.744 36.4224L136.68 33.3512V33.3083ZM152.165 33.8023C152.165 33.4157 152.401 33.2009 152.852 33.2009H158.415C158.887 33.2009 159.102 33.3942 159.102 33.8023V34.6613C159.102 38.3123 156.976 40.1808 152.745 40.2667C152.358 40.2667 152.143 40.0949 152.143 39.6868C152.143 39.3002 152.315 39.0855 152.702 39.0855C156.052 39.021 157.749 37.5606 157.749 34.7043V34.4036H152.852C152.38 34.4036 152.165 34.2103 152.165 33.8023ZM153.99 42.6935C153.926 42.1781 154.098 41.8559 154.463 41.7271C154.978 41.5768 155.236 41.7271 155.3 42.2425L155.558 44.2398C155.601 44.7768 155.859 45.0345 156.331 45.0559C158.243 45.1419 160.133 45.1419 162.044 45.0559C162.452 45.0559 162.646 45.2063 162.646 45.5499C162.646 45.9794 162.452 46.2157 162.044 46.2372C160.133 46.3445 158.028 46.3445 155.73 46.2372C154.892 46.1942 154.42 45.7647 154.312 44.97L154.012 42.6935H153.99ZM161.4 41.7271C161.615 38.9137 161.615 36.1217 161.4 33.3083C161.378 32.9002 161.572 32.6855 162.023 32.6425C162.474 32.621 162.71 32.7929 162.731 33.2009C162.817 34.1674 162.86 35.1338 162.882 36.1217H164.922C165.373 36.1217 165.588 36.315 165.588 36.7231C165.588 37.1311 165.373 37.3244 164.922 37.3244H162.903C162.903 38.8278 162.839 40.3096 162.731 41.813C162.71 42.221 162.474 42.4143 162.023 42.3499C161.572 42.3284 161.378 42.0922 161.4 41.6841V41.7271ZM166.533 34.1244C166.533 33.5016 166.877 33.2009 167.607 33.2009H172.439C172.912 33.2009 173.126 33.3942 173.126 33.8023C173.126 34.2103 172.89 34.4036 172.396 34.4036H168.337C168.036 34.4036 167.886 34.6184 167.907 35.0264L167.972 38.119C167.972 38.613 168.23 38.8922 168.724 38.9351C169.776 39.064 171.236 38.9566 173.105 38.6559C173.491 38.5915 173.685 38.7419 173.685 39.064C173.685 39.515 173.47 39.7727 173.04 39.8372C170.979 40.2237 169.196 40.2882 167.65 40.0304C166.984 39.9231 166.64 39.4935 166.619 38.7848L166.533 34.1459V34.1244ZM168.187 42.6935C168.122 42.1781 168.294 41.8559 168.659 41.7271C169.175 41.5768 169.432 41.7271 169.497 42.2425L169.754 44.2398C169.797 44.7768 170.055 45.0345 170.528 45.0559C172.439 45.1419 174.329 45.1419 176.241 45.0559C176.649 45.0559 176.842 45.2063 176.842 45.5499C176.842 45.9794 176.649 46.2157 176.241 46.2372C174.329 46.3445 172.224 46.3445 169.926 46.2372C169.089 46.1942 168.616 45.7647 168.509 44.97L168.208 42.6935H168.187ZM175.596 41.7271C175.811 38.9137 175.811 36.1217 175.596 33.3083C175.575 32.9002 175.768 32.6855 176.219 32.6425C176.67 32.621 176.906 32.7929 176.928 33.2009C177.014 34.1674 177.057 35.1338 177.078 36.1217H179.118C179.57 36.1217 179.784 36.315 179.784 36.7231C179.784 37.1311 179.57 37.3244 179.118 37.3244H177.1C177.1 38.8278 177.035 40.3096 176.928 41.813C176.906 42.221 176.67 42.4143 176.219 42.3499C175.768 42.3284 175.575 42.0922 175.596 41.6841V41.7271ZM180.429 34.8116C180.429 34.4251 180.665 34.2103 181.116 34.2103H183.371V33.1794C183.371 32.7284 183.607 32.4922 184.058 32.4922C184.509 32.4922 184.745 32.7284 184.745 33.1794V34.2103H186.979C187.452 34.2103 187.666 34.4036 187.666 34.8116C187.666 35.2197 187.43 35.413 186.979 35.413H186.678C187.044 35.864 187.237 36.4868 187.237 37.3029C187.237 39.4291 186.184 40.5244 184.058 40.6103C181.932 40.6962 180.88 39.6653 180.88 37.5392C180.88 36.6157 181.137 35.907 181.631 35.3915H181.116C180.665 35.3915 180.429 35.1982 180.429 34.7902V34.8116ZM184.058 35.413C182.834 35.4774 182.233 36.1647 182.233 37.4962C182.233 38.8278 182.834 39.4935 184.058 39.4506C185.261 39.4076 185.862 38.6989 185.862 37.3459C185.862 36.1217 185.347 35.4774 184.294 35.413H184.037H184.058ZM182.426 43.0157C182.362 42.5002 182.533 42.1781 182.898 42.0492C183.392 41.8989 183.672 42.0707 183.715 42.5861L183.929 44.2613C183.972 44.7982 184.23 45.0559 184.703 45.0774C186.614 45.1633 188.504 45.1633 190.415 45.0774C190.823 45.0774 191.017 45.2278 191.017 45.5714C191.017 46.0009 190.823 46.2372 190.415 46.2586C188.504 46.366 186.399 46.366 184.101 46.2586C183.264 46.2157 182.791 45.7861 182.684 44.9915L182.426 43.0157ZM189.793 41.7271C190.007 38.9137 190.007 36.1217 189.793 33.3083C189.771 32.9002 189.964 32.6855 190.415 32.6425C190.866 32.621 191.103 32.7929 191.124 33.2009C191.21 34.2318 191.253 35.2412 191.274 36.2721H193.315C193.766 36.2721 193.981 36.4653 193.981 36.8734C193.981 37.2814 193.766 37.4747 193.315 37.4747H191.296C191.296 38.9351 191.232 40.3955 191.124 41.8345C191.103 42.2425 190.866 42.4358 190.415 42.3714C189.964 42.3499 189.771 42.1137 189.793 41.7056V41.7271ZM204.547 34.8976C204.547 35.5204 204.354 36.0573 203.989 36.5512C204.569 36.766 205.106 37.217 205.621 37.8398C205.879 38.1835 205.879 38.4841 205.6 38.7633C205.278 39.107 204.977 39.0855 204.741 38.7204C204.29 38.0761 203.71 37.668 203.001 37.4962C202.056 38.1405 200.66 38.613 198.834 38.9781C198.405 39.064 198.169 38.8922 198.104 38.4412C198.018 38.0117 198.19 37.7539 198.62 37.668C201.691 37.0452 203.237 36.0788 203.237 34.7472C203.237 34.511 203.13 34.3821 202.937 34.3821H199.135C198.641 34.3821 198.405 34.1888 198.405 33.7808C198.405 33.3727 198.641 33.1794 199.092 33.1794H202.7C203.946 33.1794 204.569 33.7593 204.569 34.8761L204.547 34.8976ZM199.994 40.7606C199.994 40.3741 200.23 40.1808 200.681 40.1808H208.113C208.929 40.1808 209.294 40.5244 209.208 41.2331L209.057 42.758C208.972 43.4882 208.564 43.8318 207.833 43.8318H201.691L201.884 45.1419H207.984C208.478 45.1419 208.714 45.3351 208.714 45.7217C208.714 46.1083 208.478 46.3016 208.027 46.3016H201.734C201.047 46.3016 200.66 45.9365 200.553 45.2278L200.359 43.6815C200.273 42.9942 200.638 42.6506 201.498 42.6506H207.769L207.876 41.319H200.767C200.295 41.319 200.059 41.1257 200.059 40.7177L199.994 40.7606ZM207.747 38.57C207.898 36.8304 207.898 35.0694 207.747 33.3083C207.726 32.9002 207.919 32.6855 208.37 32.6425C208.821 32.621 209.036 32.7929 209.057 33.2009C209.229 35.0264 209.229 36.8519 209.057 38.6559C209.057 39.064 208.8 39.2573 208.37 39.2143C207.919 39.1929 207.726 38.9566 207.747 38.5486V38.57ZM210.432 40.009C210.432 39.6009 210.647 39.4076 211.012 39.4291C214.706 39.6868 218.379 39.6868 222.073 39.4291C222.438 39.4291 222.631 39.6009 222.652 40.009C222.652 40.3955 222.502 40.6103 222.137 40.6318C220.655 40.7177 219.173 40.7821 217.691 40.8036V42.8653C217.691 43.4023 217.455 43.66 217.004 43.66C216.553 43.66 216.317 43.4023 216.317 42.8653V40.8036C214.534 40.8036 212.752 40.7392 210.969 40.6318C210.604 40.6318 210.432 40.3955 210.453 40.009H210.432ZM213.632 37.9043C212.515 37.9043 211.957 37.3244 211.935 36.1861L211.871 33.7593C211.871 33.1365 212.215 32.8143 212.966 32.8143H220.097C220.848 32.8143 221.213 33.1365 221.192 33.7593L221.128 36.1861C221.106 37.3459 220.526 37.9043 219.431 37.9043H213.632ZM212 43.0157C211.935 42.5002 212.086 42.1781 212.451 42.0492C212.966 41.8989 213.246 42.0707 213.31 42.5861L213.503 44.2613C213.546 44.7982 213.804 45.0559 214.276 45.0774C216.725 45.1633 218.787 45.1633 220.462 45.0774C220.87 45.0774 221.085 45.2278 221.085 45.5714C221.085 46.0009 220.87 46.2372 220.462 46.2586C218.099 46.366 215.823 46.366 213.654 46.2586C212.816 46.2157 212.343 45.7861 212.236 44.9915L212 43.0157ZM213.697 33.9955C213.396 33.9955 213.246 34.2103 213.246 34.6398L213.288 35.907C213.288 36.4439 213.503 36.7231 213.933 36.7231H219.13C219.56 36.7231 219.775 36.4653 219.775 35.907V34.6398C219.796 34.2103 219.646 33.9955 219.366 33.9955H213.697ZM223.554 43.66C223.554 43.2734 223.769 43.0801 224.134 43.1016C227.828 43.3593 231.501 43.3593 235.195 43.1016C235.56 43.1016 235.753 43.2734 235.775 43.66C235.775 44.0466 235.625 44.2613 235.259 44.2828C231.544 44.5405 227.828 44.5405 224.113 44.2828C223.748 44.2828 223.576 44.0466 223.597 43.66H223.554ZM234.551 36.6801C234.551 39.064 232.918 40.2882 229.654 40.3311C226.389 40.3955 224.757 39.2143 224.757 36.8304C224.757 34.4465 226.389 33.2439 229.654 33.2009C232.918 33.158 234.551 34.3177 234.551 36.6801ZM229.654 39.1929C231.995 39.1499 233.176 38.3123 233.176 36.6801C233.176 35.0479 231.995 34.2962 229.654 34.3392C227.292 34.4036 226.11 35.2197 226.11 36.8304C226.11 38.4412 227.292 39.2358 229.654 39.1929ZM239.598 37.711V39.1499C239.598 39.4721 239.727 39.6224 239.92 39.6224H246.535C247.05 39.6224 247.287 39.8157 247.287 40.2023C247.287 40.6103 247.05 40.8036 246.556 40.8036H243.464V43.2949C245.075 43.2949 246.685 43.2304 248.296 43.1016C248.661 43.1016 248.854 43.2734 248.876 43.66C248.876 44.0466 248.726 44.2613 248.36 44.2828C244.645 44.5405 240.929 44.5405 237.214 44.2828C236.849 44.2828 236.677 44.0466 236.698 43.66C236.698 43.2734 236.913 43.0801 237.278 43.1016C238.889 43.2304 240.5 43.2949 242.132 43.2949V40.8036H239.448C238.674 40.8036 238.288 40.4385 238.288 39.7083L238.245 37.5177C238.245 36.8519 238.567 36.5298 239.297 36.5298H245.74C245.955 36.5298 246.041 36.3794 246.041 36.0358V34.6398H238.889C238.374 34.6398 238.137 34.4466 238.137 34.0385C238.137 33.6304 238.331 33.4372 238.739 33.4157H246.385C247.093 33.4157 247.437 33.7593 247.415 34.4251V36.5942C247.373 37.3244 246.964 37.6895 246.17 37.6895H239.598V37.711Z" fill="#231815"/>
<path d="M90.6121 61.915C88.2926 62.0009 87.1113 60.7767 87.1113 58.2425C87.1113 55.7083 88.2711 54.4411 90.6121 54.3552C92.9316 54.2693 94.0914 55.472 94.0914 57.9848C94.0914 60.4975 92.9316 61.8291 90.6121 61.915ZM90.6121 55.515C89.1946 55.5794 88.4859 56.4599 88.4859 58.1781C88.4859 59.8962 89.1946 60.7982 90.6121 60.7338C92.0296 60.6908 92.7383 59.7888 92.7383 58.0277C92.7383 56.2666 92.0296 55.4505 90.6121 55.4935V55.515ZM89.4738 64.17C89.4094 63.6546 89.5597 63.3324 89.9463 63.2036C90.4617 63.0532 90.7409 63.2036 90.8054 63.719L91.0416 65.7163C91.0846 66.2532 91.3423 66.5109 91.8148 66.5324C93.7263 66.6183 95.6377 66.6183 97.5277 66.5324C97.9358 66.5324 98.129 66.6828 98.129 67.0264C98.129 67.4559 97.9358 67.6922 97.5277 67.7136C95.6162 67.821 93.5115 67.821 91.2134 67.7136C90.3758 67.6707 89.9033 67.2411 89.796 66.4465L89.4953 64.17H89.4738ZM96.733 63.2036C96.9478 60.3901 96.9478 57.5982 96.733 54.7848C96.7116 54.3767 96.9049 54.162 97.3559 54.119C97.8069 54.0975 98.0217 54.2693 98.0431 54.6774C98.2794 57.5552 98.2794 60.4116 98.0431 63.2895C98.0431 63.6975 97.7854 63.8908 97.3559 63.8264C96.9049 63.8049 96.7116 63.5687 96.733 63.1606V63.2036ZM99.9976 63.9982C102.038 62.7311 103.047 60.0036 103.047 55.8586C103.047 55.3432 103.284 55.064 103.735 55.064C104.186 55.064 104.4 55.3217 104.4 55.8156C104.4 57.4049 104.271 58.8009 103.992 60.025C105.474 60.9915 106.484 62.5163 107.021 64.6425C107.128 65.0505 106.978 65.3083 106.57 65.4156C106.161 65.5445 105.925 65.4156 105.818 65.0076C105.388 63.4613 104.658 62.2586 103.606 61.421C102.983 63.1177 102.038 64.3418 100.749 65.1364C100.341 65.3942 100.019 65.3297 99.7828 64.9217C99.5465 64.5566 99.6324 64.2344 99.9976 64.0197V63.9982ZM109.104 65.7163C109.383 62.0868 109.383 58.4358 109.104 54.7848C109.082 54.3767 109.276 54.162 109.727 54.119C110.178 54.0975 110.414 54.2693 110.435 54.6774C110.564 56.3311 110.629 57.9848 110.65 59.617H112.626C113.077 59.617 113.292 59.8103 113.292 60.2183C113.292 60.6264 113.077 60.8197 112.626 60.8197H110.65C110.65 62.4948 110.564 64.17 110.435 65.8237C110.414 66.2317 110.178 66.425 109.727 66.3606C109.276 66.3391 109.082 66.1029 109.104 65.6948V65.7163ZM115.998 60.4975C114.903 60.4975 114.323 59.9391 114.323 58.7794L114.237 55.6009C114.237 54.9781 114.58 54.6774 115.311 54.6774H119.928C120.658 54.6774 121.024 54.9995 121.024 55.6009L120.938 58.7794C120.916 59.9177 120.336 60.4975 119.241 60.4975H115.976H115.998ZM115.547 62.2371C115.547 61.8505 115.783 61.6572 116.234 61.6572H123.644C124.46 61.6572 124.846 62.0009 124.761 62.7096L124.61 64.2344C124.524 64.9646 124.116 65.3083 123.386 65.3083H117.222L117.415 66.6183H123.515C124.009 66.6183 124.245 66.8116 124.245 67.1982C124.245 67.5848 124.009 67.7781 123.558 67.7781H117.244C116.556 67.7781 116.17 67.413 116.062 66.7042L115.869 65.1579C115.783 64.4707 116.148 64.1271 117.007 64.1271H123.257L123.386 62.7955H116.277C115.783 62.7955 115.547 62.6022 115.547 62.1942V62.2371ZM116.062 55.8586C115.74 55.8586 115.59 56.0734 115.59 56.4814L115.654 58.4573C115.654 58.9942 115.869 59.2734 116.32 59.2734H118.897C119.348 59.2734 119.563 58.9942 119.585 58.4573L119.649 56.4814C119.649 56.0519 119.499 55.8586 119.177 55.8586H116.062ZM123.3 60.0465C123.472 58.3069 123.472 56.5458 123.3 54.7848C123.279 54.3767 123.472 54.162 123.923 54.119C124.374 54.076 124.61 54.2693 124.632 54.6774C124.696 55.4505 124.739 56.2022 124.761 56.9754H126.822C127.273 56.9754 127.488 57.1687 127.488 57.5767C127.488 57.9848 127.273 58.1781 126.822 58.1781H124.739C124.739 58.8438 124.696 59.5096 124.632 60.1539C124.61 60.5619 124.374 60.7552 123.923 60.7123C123.472 60.6908 123.279 60.4546 123.3 60.0465ZM127.789 59.9821C127.789 59.5955 128.004 59.4022 128.369 59.4237C132.063 59.6814 135.735 59.6814 139.429 59.4237C139.795 59.4237 139.988 59.5955 140.009 59.9821C140.009 60.3687 139.859 60.5834 139.494 60.6049C135.778 60.8626 132.063 60.8626 128.347 60.6049C127.982 60.6049 127.81 60.3901 127.832 59.9821H127.789ZM128.949 62.5593C128.949 62.1727 129.185 61.9794 129.636 61.9794H137.668C138.484 61.9794 138.85 62.323 138.764 63.0103L138.592 64.4062C138.506 65.1364 138.098 65.4801 137.368 65.4801H130.667L130.817 66.6398H137.518C138.012 66.6398 138.248 66.8331 138.248 67.2197C138.248 67.6062 138.012 67.7995 137.561 67.7995H130.667C129.958 67.7995 129.571 67.4344 129.486 66.7257L129.314 65.3512C129.228 64.664 129.593 64.2989 130.452 64.2989H137.282L137.411 63.1391H129.7C129.206 63.1391 128.97 62.9458 128.97 62.5593H128.949ZM138.785 56.1807C138.785 57.6841 137.153 58.4573 133.888 58.5002C130.624 58.5646 128.992 57.8344 128.992 56.3311C128.992 54.8277 130.624 54.076 133.888 54.0331C137.153 53.9901 138.785 54.6989 138.785 56.1807ZM133.91 57.4049C136.251 57.3619 137.432 56.9539 137.432 56.2022C137.432 55.4505 136.251 55.1284 133.91 55.1713C131.547 55.2358 130.366 55.6224 130.366 56.374C130.366 57.1257 131.547 57.4693 133.91 57.4264V57.4049ZM145.013 56.1593C145.013 55.5364 145.357 55.2358 146.087 55.2358H150.018C150.49 55.2358 150.705 55.4291 150.705 55.8371C150.705 56.2452 150.469 56.4385 149.975 56.4385H146.818C146.517 56.4385 146.367 56.6532 146.388 57.0613L146.517 63.4828C146.517 63.9767 146.775 64.2344 147.269 64.2989C148.299 64.4062 149.416 64.3633 150.597 64.17C151.07 64.1056 151.306 64.2344 151.306 64.5781C151.306 65.0291 151.091 65.2868 150.662 65.3512C149.159 65.6304 147.677 65.6519 146.173 65.3942C145.507 65.2868 145.164 64.8573 145.142 64.1485L144.992 56.1807L145.013 56.1593ZM155.881 59.6385C155.881 58.0277 155.795 56.417 155.688 54.7848C155.666 54.3767 155.859 54.162 156.31 54.119C156.761 54.0975 156.976 54.2693 156.998 54.6774C157.277 58.3928 157.277 62.0868 156.998 65.8022C156.998 66.2103 156.74 66.4036 156.31 66.3391C155.859 66.3177 155.666 66.0814 155.688 65.6734C155.795 64.0626 155.859 62.4304 155.881 60.7982H154.184C154.184 62.366 154.098 63.9338 153.969 65.4801C153.948 65.8881 153.712 66.0814 153.261 66.017C152.81 65.9955 152.616 65.7593 152.638 65.3512C152.917 61.915 152.917 58.4787 152.638 55.064C152.616 54.6559 152.81 54.4411 153.261 54.3982C153.712 54.3552 153.948 54.5485 153.969 54.9351C154.098 56.5029 154.163 58.0492 154.184 59.574H155.881V59.6385ZM159.081 60.3687C161.078 59.3378 162.088 57.6197 162.088 55.2143C162.088 54.6989 162.324 54.4411 162.775 54.4411C163.226 54.4411 163.441 54.6989 163.441 55.1928C163.441 56.0304 163.355 56.8036 163.162 57.4908C164.665 58.1136 165.631 59.3163 166.061 61.0774C166.168 61.4854 165.997 61.7432 165.588 61.8505C165.159 61.9794 164.901 61.8505 164.794 61.4425C164.407 60.0895 163.698 59.1875 162.668 58.7364C162.066 59.9606 161.078 60.9056 159.704 61.5499C159.296 61.7646 158.974 61.6573 158.78 61.2492C158.587 60.8841 158.673 60.5834 159.059 60.3901L159.081 60.3687ZM161.186 64.17C161.121 63.6546 161.272 63.3324 161.658 63.2036C162.174 63.0532 162.453 63.2036 162.517 63.719L162.753 65.7163C162.796 66.2532 163.054 66.5109 163.527 66.5324C165.438 66.6183 167.35 66.6183 169.24 66.5324C169.648 66.5324 169.841 66.6828 169.841 67.0264C169.841 67.4559 169.648 67.6922 169.24 67.7136C167.328 67.821 165.223 67.821 162.925 67.7136C162.088 67.6707 161.615 67.2411 161.508 66.4465L161.207 64.17H161.186ZM168.423 63.2036C168.638 60.3901 168.638 57.5982 168.423 54.7848C168.402 54.3767 168.595 54.162 169.046 54.119C169.497 54.0975 169.712 54.2693 169.734 54.6774C169.97 57.5552 169.97 60.4116 169.734 63.2895C169.734 63.6975 169.476 63.8908 169.046 63.8264C168.595 63.8049 168.402 63.5687 168.423 63.1606V63.2036ZM171.452 57.0828C171.452 56.6962 171.688 56.4814 172.139 56.4814H174.394V54.8277C174.394 54.3552 174.63 54.119 175.081 54.119C175.532 54.119 175.769 54.3552 175.769 54.8277V56.4814H178.002C178.475 56.4814 178.689 56.6747 178.689 57.0828C178.689 57.4908 178.453 57.6841 178.002 57.6841H172.139C171.688 57.6841 171.452 57.4908 171.452 57.0828ZM175.081 65.5875C172.955 65.6734 171.903 64.621 171.903 62.3875C171.903 60.1539 172.955 59.0586 175.081 58.9727C177.186 58.8868 178.26 59.9391 178.26 62.1512C178.26 64.3633 177.208 65.5015 175.081 65.5875ZM175.081 60.1539C173.857 60.2183 173.256 60.9485 173.256 62.366C173.256 63.7834 173.857 64.4922 175.081 64.4492C176.284 64.4062 176.885 63.6546 176.885 62.2156C176.885 60.7767 176.284 60.1324 175.081 60.1754V60.1539ZM180.794 65.7163C181.073 62.0868 181.073 58.4358 180.794 54.7848C180.773 54.3767 180.966 54.162 181.417 54.119C181.868 54.0975 182.104 54.2693 182.126 54.6774C182.255 56.3311 182.319 57.9848 182.341 59.617H184.316C184.767 59.617 184.982 59.8103 184.982 60.2183C184.982 60.6264 184.767 60.8197 184.316 60.8197H182.341C182.341 62.4948 182.255 64.17 182.126 65.8237C182.104 66.2317 181.868 66.425 181.417 66.3606C180.966 66.3391 180.773 66.1029 180.794 65.6948V65.7163ZM185.755 55.8156C185.755 55.4291 185.992 55.2143 186.443 55.2143H192.005C192.478 55.2143 192.692 55.4076 192.692 55.8156V57.319C192.692 62.6666 190.566 65.3727 186.335 65.4586C185.949 65.4586 185.734 65.2653 185.734 64.8573C185.734 64.4707 185.906 64.2559 186.292 64.2559C189.643 64.213 191.339 61.915 191.339 57.3834V56.4385H186.443C185.97 56.4385 185.755 56.2452 185.755 55.8371V55.8156ZM195.313 65.7163C195.592 62.0868 195.592 58.4358 195.313 54.7848C195.291 54.3767 195.485 54.162 195.936 54.119C196.387 54.0975 196.601 54.2693 196.623 54.6774C196.902 58.3928 196.902 62.0868 196.623 65.8022C196.623 66.2103 196.365 66.4036 195.936 66.3391C195.485 66.3177 195.291 66.0814 195.313 65.6734V65.7163ZM207.877 54.8921C208.371 54.8921 208.607 55.0854 208.607 55.472C208.607 55.8801 208.349 56.0948 207.855 56.0948H201.197C200.897 56.0948 200.768 56.3096 200.789 56.7177L200.854 59.4666C200.854 60.0036 201.069 60.2828 201.52 60.3257C203.238 60.476 205.428 60.4331 208.113 60.1754C208.5 60.1539 208.736 60.3042 208.8 60.6693C208.865 61.0774 208.714 61.2922 208.328 61.3566C207.039 61.5069 205.858 61.6358 204.763 61.6787V64.7713C206.373 64.7713 207.984 64.7069 209.595 64.5781C209.96 64.5781 210.153 64.7499 210.175 65.1364C210.175 65.523 210.024 65.7378 209.659 65.7593C205.944 66.017 202.228 66.017 198.513 65.7593C198.148 65.7593 197.976 65.523 197.997 65.1364C197.997 64.7499 198.212 64.5566 198.577 64.5781C200.188 64.7069 201.799 64.7713 203.431 64.7713V61.7002C202.593 61.7002 201.82 61.6358 201.09 61.5499C200.102 61.4425 199.587 60.9915 199.565 60.2183L199.458 55.8801C199.436 55.2143 199.78 54.8921 200.51 54.8921H207.898H207.877ZM214.921 57.0828C214.921 56.6962 215.157 56.4814 215.608 56.4814H217.563V54.8277C217.563 54.3552 217.799 54.119 218.25 54.119C218.701 54.119 218.937 54.3552 218.937 54.8277V56.4814H220.892C221.364 56.4814 221.579 56.6747 221.579 57.0828C221.579 57.4908 221.343 57.6841 220.892 57.6841H215.63C215.179 57.6841 214.943 57.4908 214.943 57.0828H214.921ZM218.229 65.5875C216.317 65.6734 215.351 64.621 215.351 62.3875C215.351 60.1539 216.317 59.0586 218.229 58.9727C220.14 58.8868 221.107 59.9391 221.107 62.1512C221.107 64.3633 220.14 65.5015 218.229 65.5875ZM218.229 60.1539C217.219 60.2183 216.725 60.97 216.725 62.366C216.725 63.762 217.241 64.4922 218.25 64.4277C219.26 64.3633 219.754 63.6116 219.754 62.1727C219.754 60.7338 219.238 60.0895 218.229 60.1539ZM226.068 59.6385C226.068 58.0277 225.982 56.417 225.875 54.7848C225.853 54.3767 226.046 54.162 226.497 54.119C226.948 54.0975 227.163 54.2693 227.185 54.6774C227.464 58.3928 227.464 62.0868 227.185 65.8022C227.185 66.2103 226.927 66.4036 226.497 66.3391C226.046 66.3177 225.853 66.0814 225.875 65.6734C225.982 64.0626 226.046 62.4304 226.068 60.7982H224.371C224.371 62.366 224.285 63.9338 224.156 65.4801C224.135 65.8881 223.899 66.0814 223.448 66.017C222.997 65.9955 222.803 65.7593 222.825 65.3512C223.104 61.915 223.104 58.4787 222.825 55.064C222.803 54.6559 222.997 54.4411 223.448 54.3982C223.899 54.3552 224.135 54.5485 224.156 54.9351C224.285 56.5029 224.35 58.0492 224.371 59.574H226.068V59.6385ZM231.931 61.6572C231.931 61.6572 231.931 61.4854 231.931 61.421C230.514 60.9271 229.805 59.8747 229.805 58.2854C229.805 55.923 231.437 54.6989 234.702 54.6559C237.966 54.613 239.598 55.7727 239.598 58.1351C239.598 59.7244 238.89 60.7767 237.472 61.3351C237.472 61.421 237.494 61.5284 237.494 61.6358V64.6854C238.396 64.664 239.319 64.5995 240.221 64.5351C240.586 64.5351 240.78 64.7069 240.801 65.0935C240.801 65.4801 240.651 65.6948 240.286 65.7163C236.57 65.974 232.855 65.974 229.139 65.7163C228.774 65.7163 228.602 65.4801 228.624 65.0935C228.624 64.7069 228.838 64.5136 229.203 64.5351C230.106 64.5995 231.029 64.6425 231.931 64.6854V61.6358V61.6572ZM234.723 60.6693C237.064 60.6264 238.245 59.7888 238.245 58.1566C238.245 56.5244 237.064 55.7727 234.723 55.8156C232.361 55.8801 231.179 56.6962 231.179 58.3069C231.179 59.9177 232.361 60.7123 234.723 60.6693ZM236.141 61.7002C235.69 61.7861 235.217 61.8076 234.723 61.8076C234.208 61.8076 233.714 61.8076 233.284 61.7432V64.7499C234.251 64.7713 235.196 64.7713 236.141 64.7499V61.7002ZM241.875 65.4586C241.875 64.9217 242.154 64.6425 242.713 64.6425C243.271 64.6425 243.529 64.9217 243.529 65.4586V65.5875C243.529 66.1244 243.249 66.3821 242.713 66.3821C242.176 66.3821 241.875 66.1244 241.875 65.5875V65.4586Z" fill="#231815"/>
<path d="M67.373 27.0781H55.7969V37.4298H67.373V27.0781Z" fill="white"/>
<path d="M67.5663 34.6816C67.5663 34.6816 67.4804 34.6816 67.416 34.6601L57.3217 31.095C57.107 31.0091 56.9781 30.7728 57.064 30.5581C57.1499 30.3433 57.4077 30.2144 57.6009 30.3003L67.6952 33.8654C67.9099 33.9514 68.0388 34.1876 67.9529 34.4024C67.8884 34.5742 67.7166 34.6816 67.5448 34.6816H67.5663Z" fill="#727171"/>
<path d="M12.0712 52.9637C7.32478 50.7301 2.85756 43.9435 1.54746 39.9489C0.108497 35.6106 -1.45933 29.6831 2.68574 27.6214C7.30331 25.3449 9.66578 34.859 11.3625 38.1878C13.1451 41.6885 15.8082 44.4804 17.4405 44.6093C15.529 47.5086 13.231 51.8039 12.0497 52.9422" fill="#151111"/>
<path d="M26.2871 52.1257C30.561 54.7458 31.9356 58.3753 33.9759 62.5632C35.3719 65.3981 33.89 70.2304 40.3116 68.1901C43.4258 67.2022 44.2849 64.174 42.3949 59.578C40.8271 55.8196 38.2069 52.4478 36.4887 50.5793C35.2216 49.1834 33.847 47.5941 32.2792 46.5203C28.2845 43.8142 27.5328 44.974 26.2871 52.1257Z" fill="#151111"/>
<path d="M12.2643 44.3074C3.73791 52.5973 7.49639 61.4671 10.224 63.0993C16.9033 67.094 25.172 66.8792 30.1332 63.9369C32.8608 62.3262 36.5548 58.5034 35.8461 51.3946C35.2447 45.4671 35.6528 44.651 32.5172 39.3678C30.4983 35.9745 26.611 33.698 21.9934 35.2443C18.4067 36.447 13.3596 41.3651 12.2643 44.3074Z" fill="white"/>
<path d="M21.2408 66.5365C17.5897 66.5365 13.6165 65.6345 10.0084 63.4868C8.67677 62.6922 7.04452 60.2868 6.65793 56.9365C6.35725 54.3378 6.63646 49.2264 11.8983 44.0721C13.0796 41.0868 18.0622 36.1043 21.8637 34.8372C27.0826 33.0761 31.0773 36.0613 32.9029 39.1539C35.609 43.707 35.7379 45.0385 36.06 48.9902C36.1244 49.6989 36.1889 50.4721 36.2748 51.3741C37.0909 59.4278 32.4089 63.1217 30.3471 64.3459C28.0276 65.7204 24.7846 66.5794 21.2194 66.5794L21.2408 66.5365ZM24.9564 35.1593C24.0758 35.1593 23.1308 35.3096 22.1429 35.6533C18.5777 36.8559 13.7239 41.7096 12.693 44.4586L12.5856 44.6304C7.53849 49.5486 7.25929 54.3808 7.53849 56.8291C7.88212 59.7714 9.27813 62.0264 10.4594 62.7351C17.2891 66.8157 25.4074 66.2358 29.9176 63.5727C31.829 62.4345 36.1674 58.9982 35.4157 51.46C35.3298 50.558 35.2654 49.7633 35.2009 49.0546C34.8573 45.1674 34.7714 43.9862 32.1512 39.6049C30.7767 37.2855 28.2638 35.2023 24.9564 35.2023V35.1593Z" fill="#231815"/>
<path d="M8.4616 69.2587C4.87493 66.8319 5.77697 63.3742 7.86024 61.291C10.3945 58.7567 14.3463 58.1554 15.8927 62.5151C16.6873 64.7916 16.4725 67.8413 14.604 69.2158C13.3154 70.1822 10.8026 70.848 8.44012 69.2587" fill="#151111"/>
<path d="M24.3327 69.5166C20.746 67.0897 21.6481 63.632 23.7313 61.5488C26.2656 59.0145 30.2174 58.4132 31.7637 62.7729C32.5584 65.0494 32.3436 68.0991 30.4751 69.4736C29.1865 70.4401 26.6737 71.1058 24.3112 69.5166" fill="#151111"/>
<path d="M8.01172 50.4231C8.01172 50.4231 28.6726 51.4325 33.5264 60.8607C33.5264 60.8607 37.1346 57.8754 35.9319 49.9506L13.7246 43.0781C13.7246 43.0781 8.72046 47.2446 8.01172 50.4231Z" fill="#151111"/>
<path d="M19.3285 42.2219C19.3285 42.2219 19.0063 41.9427 18.5338 41.7924C18.0614 41.6421 17.6748 41.6206 17.6318 41.7065C17.6103 41.8139 17.954 41.9857 18.4265 42.136C18.899 42.2864 19.2855 42.3078 19.3285 42.2219Z" fill="white"/>
<path d="M38.4219 24.2269C41.085 20.941 44.1992 20.9195 46.6691 22.1437C49.0101 23.3034 50.5349 25.5155 49.3752 29.1021C48.7738 30.9705 46.5402 33.0967 44.4784 33.0323" fill="#231815"/>
<path d="M21.2831 22.9137C22.3355 17.5875 18.8992 14.6453 16.2146 13.9795C13.6803 13.3352 11.0815 14.0439 9.64258 17.5231C8.89088 19.3271 9.21304 22.3983 10.8023 23.6869" fill="#231815"/>
<path d="M45.0365 40.5666C42.6526 50.682 31.8496 53.474 21.691 50.231C11.5323 46.9881 3.99388 40.223 8.26781 28.8189C11.4249 20.3787 21.4547 15.9115 31.6134 19.1545C41.772 22.3974 47.1198 31.8042 45.0365 40.5666Z" fill="white"/>
<path d="M29.6162 51.9756C27.0175 51.9756 24.2899 51.5461 21.5408 50.6655C14.7111 48.4964 9.98619 45.0387 7.85997 40.6789C6.16328 37.1783 6.16328 33.1407 7.81701 28.6736C11.1245 19.8682 21.6268 15.5299 31.721 18.7299C41.7507 21.9299 47.6569 31.3581 45.4448 40.6575C44.4998 44.6521 42.1803 47.7877 38.7654 49.7205C36.1452 51.2024 33.0096 51.9541 29.6162 51.9541V51.9756ZM25.0201 18.5796C17.675 18.5796 11.103 22.5098 8.67609 28.9957C7.08679 33.2266 7.08679 37.0279 8.67609 40.2924C11.2104 45.5112 17.224 48.3461 21.82 49.8065C27.9195 51.7608 33.9546 51.4601 38.3359 48.9689C41.5575 47.1434 43.7052 44.2011 44.6072 40.4642C46.6905 31.6159 41.042 22.6387 31.4632 19.589C29.2941 18.9018 27.1249 18.5796 24.9987 18.5796H25.0201Z" fill="#231815"/>
<path d="M27.9415 34.9423C25.622 33.804 24.4622 34.2765 24.6126 35.4148C24.72 36.2094 25.3213 37.047 26.0515 37.2832C26.6099 37.455 27.3616 37.3691 28.0274 36.6604C28.4999 36.145 28.7791 35.4577 28.1133 35.0282C28.0059 34.9423 26.6529 34.1906 25.4287 34.3409" fill="#100813"/>
<path d="M24.2251 39.2817C23.9889 39.2817 23.7526 39.2602 23.5164 39.1958C22.7862 39.0025 22.2063 38.487 21.9271 37.7998C21.8412 37.585 21.9271 37.3058 22.1633 37.2199C22.3781 37.1125 22.6573 37.2199 22.7432 37.4562C22.9365 37.9072 23.2801 38.2078 23.7526 38.3367C24.2251 38.4656 24.7621 38.4011 25.1057 38.1434C25.8789 37.585 25.9218 36.0387 25.9433 35.5233C25.9433 35.287 26.1795 35.1152 26.3943 35.0938C26.6306 35.0938 26.8239 35.3085 26.8239 35.5448C26.7809 36.6186 26.6091 38.1219 25.6211 38.8521C25.2346 39.1313 24.7191 39.2817 24.2037 39.2817H24.2251Z" fill="#140B16"/>
<path d="M28.0913 40.2691C27.5114 40.2691 26.953 40.0758 26.4805 39.6893C25.6858 39.0664 25.4066 38.0785 25.7288 37.1335C25.8147 36.8973 26.051 36.7899 26.2872 36.8544C26.5234 36.9403 26.6523 37.1765 26.5664 37.4127C26.3731 37.9926 26.5449 38.5939 27.0389 39.002C27.4684 39.3456 28.2201 39.5819 28.9718 39.1309C29.1866 39.002 29.4443 39.0664 29.5732 39.2812C29.702 39.496 29.6376 39.7537 29.4228 39.8825C29.0148 40.1403 28.5423 40.2476 28.0913 40.2476V40.2691Z" fill="#140B16"/>
<path d="M16.9459 24.3302C13.7029 25.5758 9.98737 30.1503 12.9727 33.4577C14.9486 35.6483 17.8694 35.5409 19.7809 34.1234C20.7259 33.4147 22.2937 32.5127 23.6897 31.5677C25.5797 30.3006 27.1905 28.0026 25.8589 25.7047C25.0428 24.3087 21.6279 22.2684 16.9459 24.3516" fill="#231815"/>
<path d="M40.9147 33.3763C42.5255 36.4474 42.3322 42.332 37.9079 42.8689C34.9871 43.2125 32.8394 41.2152 32.3239 38.8957C32.0877 37.736 31.4863 36.0179 31.0568 34.4071C30.4554 32.2165 30.7561 29.4246 33.2904 28.5655C34.8367 28.0501 38.7455 28.7588 40.9147 33.3977" fill="#231815"/>
<path d="M20.6824 30.0673C20.5106 30.862 19.9522 31.3989 19.3938 31.2915C18.8354 31.1841 18.5347 30.4539 18.685 29.6593C18.8568 28.8861 19.4152 28.3277 19.9736 28.4351C20.532 28.5425 20.8542 29.2727 20.6824 30.0673Z" fill="white"/>
<path d="M35.7156 34.747C35.5438 35.5416 34.9854 36.0786 34.427 35.9712C33.8686 35.8638 33.5679 35.1336 33.7182 34.339C33.89 33.5658 34.4484 33.0074 35.0068 33.1148C35.5652 33.2222 35.8874 33.9524 35.7156 34.747Z" fill="white"/>
</g>
<defs>
<clipPath id="clip0_287_736">
<rect width="269" height="80" fill="white"/>
</clipPath>
</defs>
</svg>
