<svg width="96" height="59" viewBox="0 0 96 59" fill="none" xmlns="http://www.w3.org/2000/svg">
<path d="M95.0567 1.24219H63.2668V57.669H95.0567V1.24219Z" fill="#E83533"/>
<path d="M32.7898 1.24219H1V57.669H32.7898V1.24219Z" fill="#E83533"/>
<path d="M68.3119 1.24219H27.7107V57.669H68.3119V1.24219Z" fill="#FCFDFD"/>
<path d="M49.3753 47.6372L48.9952 40.139C48.9952 39.6898 49.3407 39.3097 49.7899 39.2752C49.859 39.2752 49.8936 39.2752 49.9627 39.2752L57.4264 40.5882L56.4243 37.8237C56.3552 37.5818 56.4243 37.34 56.5971 37.2018L64.7519 30.602L62.9205 29.7382C62.6786 29.6345 62.5404 29.3235 62.6095 29.047L64.2336 24.0712L59.5342 25.0732C59.2578 25.1423 59.0159 25.0042 58.9122 24.7278L58.0138 22.5854L54.3511 26.5246C54.1437 26.7665 53.7636 26.7665 53.5563 26.5246C53.4181 26.3864 53.349 26.179 53.3836 26.0062L55.1458 16.8839L52.3123 18.508C52.0359 18.6808 51.6904 18.5772 51.5522 18.3007L48.6842 12.6338L45.8162 18.3007C45.678 18.5772 45.3324 18.6808 45.056 18.5426L42.2225 16.9185L43.9848 26.0408C44.0539 26.3518 43.8466 26.6628 43.5356 26.6974C43.3283 26.7319 43.1555 26.6974 43.0173 26.5246L39.3545 22.5854L38.4561 24.7278C38.3525 24.9696 38.0761 25.1078 37.8342 25.0732L33.1348 24.0712L34.7589 29.047C34.8625 29.3235 34.7243 29.5999 34.4478 29.7382L32.6165 30.602L40.7712 37.2018C40.944 37.34 41.0131 37.6164 40.944 37.8237L39.942 40.5882L47.4056 39.2752C47.8549 39.206 48.2695 39.4825 48.3732 39.9317C48.3732 40.0008 48.3732 40.0353 48.3732 40.1044L47.9931 47.6026H49.548L49.3753 47.6372Z" fill="#E83533"/>
<path d="M68.3116 1.24219H63.2667H32.7898H27.7104H1V57.669H27.7104H32.7898H63.2667H68.3116H95.0565V1.24219H68.3116Z" stroke="#E6E6E6" stroke-width="0.800523" stroke-linecap="round" stroke-linejoin="round"/>
</svg>
