<svg width="96" height="59" viewBox="0 0 96 59" fill="none" xmlns="http://www.w3.org/2000/svg">
<path d="M95.1947 1.27246H1V57.7339H95.1947V1.27246Z" fill="#006AB6"/>
<path d="M48.0973 29.5075L24.5314 15.4093L1 29.5075V29.4729L24.4968 15.3747L1 1.31136V1.24219L24.5314 15.3404L48.0973 1.24219V1.31136L24.6005 15.3747L48.0973 29.4729V29.5075Z" fill="white"/>
<path d="M48.0628 1.27246L24.5314 15.3704L48.0973 29.4686L24.5659 15.3704L48.1319 1.27246H48.0628Z" fill="#E60911"/>
<path d="M24.5659 34.2025H24.4968V15.4396H1V15.336H24.4968V1.27246H24.5659V15.336H55.9412V15.4396H24.5659V34.2025Z" fill="white"/>
<path d="M24.5659 34.2025H24.5314V15.405H1V15.3704H24.5314V1.27246H24.5659V15.3704H55.9412V15.405H24.5659V34.2025Z" fill="#E60911"/>
<path d="M1 29.5032H48.0973V1.27246H63.7849V38.902H1V29.5032Z" fill="#006AB6"/>
<path d="M24.5309 34.9307L25.913 39.2499L30.0596 37.6258L27.6062 41.3923L31.4417 43.6728L26.9842 44.0876L27.6062 48.545L24.5309 45.2623L21.4901 48.545L22.0775 44.0876L17.6545 43.6728L21.4901 41.3923L19.0368 37.6258L23.1832 39.2499L24.5309 34.9307Z" fill="white"/>
<path d="M71.6294 42.6494L72.2858 44.6882L74.2554 43.9279L73.1152 45.7248L74.912 46.796L72.8042 47.0033L73.1152 49.111L71.6294 47.5561L70.178 49.111L70.489 47.0033L68.3467 46.796L70.178 45.7248L69.0032 43.9279L71.0073 44.6882L71.6294 42.6494Z" fill="white"/>
<path d="M59.8795 23.7822L60.5016 25.821L62.5057 25.0609L61.3308 26.823L63.1622 27.9288L61.0199 28.1361L61.3308 30.2441L59.8795 28.6891L58.3937 30.2441L58.7047 28.1361L56.5969 27.9288L58.3937 26.823L57.2535 25.0609L59.223 25.821L59.8795 23.7822Z" fill="white"/>
<path d="M71.6294 10.8838L72.2858 12.9226L74.2554 12.1623L73.1152 13.9592L74.912 15.0303L72.8042 15.2377L73.1152 17.3454L71.6294 15.7906L70.178 17.3454L70.489 15.2377L68.3467 15.0303L70.178 13.9592L69.0032 12.1623L71.0073 12.9226L71.6294 10.8838Z" fill="white"/>
<path d="M82.0991 20.626L82.7556 22.6648L84.7251 21.9045L83.5503 23.6668L85.3817 24.7725L83.2739 24.9798L83.5503 27.0876L82.0991 25.5326L80.6478 27.0876L80.9242 24.9798L78.8164 24.7725L80.6478 23.6668L79.4729 21.9045L81.4426 22.6648L82.0991 20.626Z" fill="white"/>
<path d="M76.363 30.1553L76.8467 31.4338L78.2289 31.5375L77.1923 32.4358L77.5033 33.7488L76.363 33.0233L75.1882 33.7488L75.5337 32.4358L74.4971 31.5375L75.8447 31.4338L76.363 30.1553Z" fill="white"/>
<path d="M43.1906 1.27246L24.5659 12.4334L5.94123 1.27246H1V4.20948L19.6247 15.405L1 26.5662V29.5378H5.94123L24.5659 18.3422L43.1906 29.5378H48.1319V26.5662L29.5072 15.405L48.1319 4.20948V1.27246H43.1906Z" fill="white"/>
<path d="M44.8493 1.27246L24.5659 13.4354V15.405L1 1.27246V3.24208L21.2833 15.405H24.5659L1 29.5378H4.28259L24.5659 17.3746V15.405L48.1319 29.5378V27.5682L27.8486 15.405H24.5659L48.1319 1.27246H44.8493Z" fill="#E83533"/>
<path d="M20.9031 1.27246V10.9822H1V19.7935H20.9031V29.5378H28.2632V19.7935H48.1319V10.9822H28.2632V1.27246H20.9031Z" fill="white"/>
<path d="M22.3545 1.27246V12.7445H1V18.0312H22.3545V29.5378H26.7774V18.0312H48.1319V12.7445H26.7774V1.27246H22.3545Z" fill="#E83533"/>
<path d="M95.1947 1.27246H1V57.7339H95.1947V1.27246Z" stroke="#E6E6E6" stroke-width="0.800523" stroke-linecap="round" stroke-linejoin="round"/>
</svg>
