<svg width="40" height="40" viewBox="0 0 40 40" fill="none" xmlns="http://www.w3.org/2000/svg">
<path d="M38.6916 34.6083C39.428 35.6033 38.7671 37 37.5396 37H18.8256C9.5347 37 2 29.3849 2 20.0096C2 10.6342 9.5347 3 18.8256 3C28.1165 3 35.6512 10.6151 35.6512 20.0096C35.2169 28.0264 36.9731 32.3315 38.6916 34.6083Z" fill="#EF897E"/>
<path d="M14.9656 15.97C13.7956 17.83 11.3056 16.57 11.4556 14.65C11.5756 13.33 12.6556 11.56 13.6756 10.72C15.5656 9.16 18.7756 8.47 21.1156 9.22C24.2956 10.21 26.1556 12.37 26.1556 15.79C26.1556 19.03 25.0456 20.77 21.4156 23.74C20.8156 24.25 20.1556 24.79 19.5256 25.3C19.1056 25.63 16.8556 26.71 18.2956 26.83C19.1656 26.89 19.5256 26.83 20.3956 26.83C21.4156 26.83 22.4356 26.74 23.4256 26.83C24.2356 26.89 25.4356 26.68 26.0656 27.22C26.6956 27.76 26.7256 29.35 26.1856 29.92C25.6756 30.52 24.8356 30.34 24.1456 30.34H13.3756C12.9856 30.34 12.4756 30.43 12.1156 30.31C11.3956 30.13 11.6056 29.47 11.6056 28.87C11.6056 26.83 13.7956 25.51 15.2356 24.31C16.2856 23.38 17.5456 22.48 18.6256 21.55C21.4456 19.21 22.4656 17.89 22.4656 16.06C22.4656 14.05 21.0556 12.88 19.1656 12.88C17.7856 12.88 16.4656 13.51 15.6856 14.65C15.4456 15.07 15.2356 15.58 14.9656 15.97Z" fill="#1E1E1E"/>
</svg>
