<svg width="40" height="40" viewBox="0 0 40 40" fill="none" xmlns="http://www.w3.org/2000/svg">
<path d="M38.6916 34.6083C39.428 35.6033 38.7671 37 37.5396 37H18.8256C9.5347 37 2 29.3849 2 20.0096C2 10.6342 9.5347 3 18.8256 3C28.1165 3 35.6512 10.6151 35.6512 20.0096C35.2169 28.0264 36.9731 32.3315 38.6916 34.6083Z" fill="#EF897E"/>
<path d="M19.24 8.92C19.51 8.86 19.75 8.77 19.99 8.74C20.59 8.59 21.7 8.59 22.03 9.28C22.36 10.09 22.21 11.5 22.21 12.37V27.7C22.21 28.54 22.42 29.68 21.58 30.28C21.01 30.73 19.9 30.7 19.24 30.46C18.52 30.22 18.49 29.41 18.49 28.75C18.22 23.5 18.31 18.52 18.31 13.18C18.19 13.54 16.12 13.87 15.79 13.87C14.74 13.99 13.75 13.75 13.63 12.52C13.48 11.26 14.32 10.57 15.49 10.21C16.75 9.79 17.98 9.28 19.24 8.92Z" fill="#1E1E1E"/>
</svg>
