<svg width="372" height="53" viewBox="0 0 372 53" fill="none" xmlns="http://www.w3.org/2000/svg">
<mask id="path-1-inside-1_2827_15742" fill="white">
<path d="M372 53H18.0547L0 36.8262V20.6523L18.0547 5H372V53ZM10.5469 25.6104C8.30696 25.6106 6.49121 27.3559 6.49121 29.5088C6.49129 31.6616 8.307 33.407 10.5469 33.4072C12.7869 33.4072 14.6034 31.6617 14.6035 29.5088C14.6035 27.3558 12.787 25.6104 10.5469 25.6104Z"/>
</mask>
<path d="M372 53H18.0547L0 36.8262V20.6523L18.0547 5H372V53ZM10.5469 25.6104C8.30696 25.6106 6.49121 27.3559 6.49121 29.5088C6.49129 31.6616 8.307 33.407 10.5469 33.4072C12.7869 33.4072 14.6034 31.6617 14.6035 29.5088C14.6035 27.3558 12.787 25.6104 10.5469 25.6104Z" fill="#ECC8C1"/>
<path d="M372 53V54H373V53H372ZM18.0547 53L17.3874 53.7448L17.6723 54H18.0547V53ZM0 36.8262H-1V37.2729L-0.667245 37.571L0 36.8262ZM0 20.6523L-0.655049 19.8968L-1 20.1958V20.6523H0ZM18.0547 5V4H17.6816L17.3996 4.24441L18.0547 5ZM372 5H373V4H372V5ZM10.5469 25.6104L10.5469 24.6104L10.5468 24.6104L10.5469 25.6104ZM6.49121 29.5088L5.49121 29.5088L5.49121 29.5088L6.49121 29.5088ZM10.5469 33.4072L10.5468 34.4072H10.5469V33.4072ZM14.6035 29.5088L15.6035 29.5088V29.5088H14.6035ZM372 53V52H18.0547V53V54H372V53ZM18.0547 53L18.7219 52.2552L0.667245 36.0813L0 36.8262L-0.667245 37.571L17.3874 53.7448L18.0547 53ZM0 36.8262H1V20.6523H0H-1V36.8262H0ZM0 20.6523L0.655049 21.4079L18.7097 5.75559L18.0547 5L17.3996 4.24441L-0.655049 19.8968L0 20.6523ZM18.0547 5V6H372V5V4H18.0547V5ZM372 5H371V53H372H373V5H372ZM10.5469 25.6104L10.5468 24.6104C7.79233 24.6106 5.49121 26.7667 5.49121 29.5088H6.49121H7.49121C7.49121 27.9452 8.82158 26.6105 10.547 26.6104L10.5469 25.6104ZM6.49121 29.5088L5.49121 29.5088C5.49131 32.2508 7.79234 34.407 10.5468 34.4072L10.5469 33.4072L10.547 32.4072C8.82166 32.4071 7.49127 31.0724 7.49121 29.5088L6.49121 29.5088ZM10.5469 33.4072V34.4072C13.3013 34.4072 15.6034 32.2511 15.6035 29.5088L14.6035 29.5088L13.6035 29.5088C13.6035 31.0723 12.2725 32.4072 10.5469 32.4072V33.4072ZM14.6035 29.5088H15.6035C15.6035 26.7664 13.3014 24.6104 10.5469 24.6104V25.6104V26.6104C12.2726 26.6104 13.6035 27.9453 13.6035 29.5088H14.6035Z" fill="#DA9186" mask="url(#path-1-inside-1_2827_15742)"/>
<path d="M28.16 30.36H51.24C52.08 26.64 52.32 23.36 52.32 19.72V18.08H32.36V13.72H57.36V18.8C57.36 22.96 57 27.2 56.32 30.36H62.24V34.64H47.72V48.76H42.64V34.64H28.16V30.36ZM64.3741 14.8H82.3341V39.08H64.3741V14.8ZM77.2941 34.8V19.08H69.4141V34.8H77.2941ZM92.0941 11.56V24.64H97.2141V29.04H92.0941V48.76H87.0141V11.56H92.0941ZM126.708 32.56H116.548V39.8H131.068V44.08H96.9881V39.8H111.508V32.56H101.348V14.52H126.228V18.8H106.388V28.28H126.708V32.56ZM162.722 11.56V48.76H157.642V11.56H162.722ZM139.002 28.92V35.64H142.882C146.522 35.64 150.642 35.4 154.362 34.92L154.922 39.16C151.162 39.72 146.562 39.92 141.682 39.92H134.002V24.8H146.002V18.72H134.002V14.44H151.002V28.92H139.002ZM183.256 30.04V32.04C183.256 38.12 184.616 44.16 188.736 49.8H183.936C179.976 45.08 178.056 38.84 178.056 31.84V30.24C178.056 23.24 179.976 17.08 183.936 12.36H188.736C184.816 17.64 183.256 23.64 183.256 30.04ZM219.469 14.16C218.829 14.6133 218.203 15.0933 217.589 15.6C216.976 16.08 216.443 16.52 215.989 16.92C215.323 17.4267 214.523 18.0533 213.589 18.8C212.683 19.52 211.723 20.28 210.709 21.08C209.723 21.8533 208.763 22.6133 207.829 23.36C206.896 24.1067 206.096 24.7733 205.429 25.36C204.736 25.9733 204.269 26.48 204.029 26.88C203.789 27.2533 203.789 27.6267 204.029 28C204.296 28.3733 204.789 28.88 205.509 29.52C206.096 30.0267 206.843 30.6533 207.749 31.4C208.683 32.1467 209.683 32.9733 210.749 33.88C211.843 34.76 212.949 35.68 214.069 36.64C215.216 37.5733 216.309 38.5067 217.349 39.44C218.416 40.3467 219.363 41.2 220.189 42L215.509 46.28C214.389 45.0267 213.229 43.7867 212.029 42.56C211.416 41.9467 210.616 41.2 209.629 40.32C208.669 39.4133 207.616 38.4667 206.469 37.48C205.349 36.4933 204.229 35.52 203.109 34.56C201.989 33.5733 200.976 32.6933 200.069 31.92C198.736 30.8 197.869 29.7733 197.469 28.84C197.096 27.9067 197.149 26.9867 197.629 26.08C198.136 25.1467 199.056 24.1333 200.389 23.04C201.189 22.4267 202.096 21.7067 203.109 20.88C204.123 20.0267 205.163 19.16 206.229 18.28C207.296 17.3733 208.309 16.5067 209.269 15.68C210.229 14.8267 211.043 14.08 211.709 13.44C212.296 12.8533 212.883 12.2533 213.469 11.64C214.056 11.0267 214.496 10.4933 214.789 10.04L219.469 14.16ZM252.789 10.64C252.736 11.04 252.683 11.4933 252.629 12C252.603 12.48 252.576 12.9733 252.549 13.48C252.523 14.0133 252.496 14.7333 252.469 15.64C252.443 16.52 252.429 17.4933 252.429 18.56C252.429 19.6267 252.429 20.68 252.429 21.72C252.429 22.76 252.429 23.7067 252.429 24.56C252.429 25.68 252.456 26.9333 252.509 28.32C252.563 29.68 252.629 31.0667 252.709 32.48C252.816 33.8667 252.896 35.1733 252.949 36.4C253.029 37.6 253.069 38.6 253.069 39.4C253.069 40.52 252.776 41.5467 252.189 42.48C251.603 43.3867 250.723 44.1067 249.549 44.64C248.403 45.1733 246.949 45.44 245.189 45.44C241.989 45.44 239.563 44.8533 237.909 43.68C236.256 42.5067 235.429 40.8667 235.429 38.76C235.429 37.4 235.816 36.2133 236.589 35.2C237.389 34.16 238.523 33.3467 239.989 32.76C241.483 32.1733 243.256 31.88 245.309 31.88C247.496 31.88 249.536 32.12 251.429 32.6C253.349 33.0533 255.096 33.6533 256.669 34.4C258.243 35.1467 259.643 35.9333 260.869 36.76C262.096 37.5867 263.136 38.3333 263.989 39L261.109 43.48C260.149 42.5733 259.069 41.68 257.869 40.8C256.696 39.92 255.403 39.12 253.989 38.4C252.603 37.68 251.123 37.1067 249.549 36.68C248.003 36.2267 246.363 36 244.629 36C243.243 36 242.163 36.24 241.389 36.72C240.643 37.2 240.269 37.7867 240.269 38.48C240.269 38.9867 240.429 39.4267 240.749 39.8C241.069 40.1733 241.536 40.4533 242.149 40.64C242.763 40.8267 243.536 40.92 244.469 40.92C245.189 40.92 245.803 40.84 246.309 40.68C246.843 40.52 247.256 40.2267 247.549 39.8C247.843 39.3733 247.989 38.7733 247.989 38C247.989 37.4133 247.963 36.5733 247.909 35.48C247.883 34.3867 247.843 33.1867 247.789 31.88C247.736 30.5467 247.683 29.24 247.629 27.96C247.576 26.68 247.549 25.5467 247.549 24.56C247.549 23.6 247.549 22.6 247.549 21.56C247.576 20.4933 247.589 19.44 247.589 18.4C247.589 17.36 247.589 16.4133 247.589 15.56C247.616 14.68 247.629 13.96 247.629 13.4C247.629 13.0267 247.603 12.5733 247.549 12.04C247.523 11.48 247.469 11.0133 247.389 10.64H252.789ZM236.189 14.4C236.909 14.5067 237.709 14.6133 238.589 14.72C239.469 14.8267 240.363 14.9333 241.269 15.04C242.203 15.12 243.083 15.1867 243.909 15.24C244.736 15.2667 245.456 15.28 246.069 15.28C248.789 15.28 251.496 15.2 254.189 15.04C256.909 14.8533 259.723 14.52 262.629 14.04L262.589 18.64C261.229 18.8267 259.656 19 257.869 19.16C256.083 19.32 254.176 19.4533 252.149 19.56C250.149 19.64 248.136 19.68 246.109 19.68C245.283 19.68 244.256 19.6533 243.029 19.6C241.829 19.52 240.629 19.4267 239.429 19.32C238.229 19.1867 237.189 19.0667 236.309 18.96L236.189 14.4ZM235.989 23.04C236.629 23.1467 237.389 23.2533 238.269 23.36C239.149 23.4667 240.043 23.5467 240.949 23.6C241.883 23.6533 242.763 23.7067 243.589 23.76C244.416 23.7867 245.096 23.8 245.629 23.8C248.109 23.8 250.349 23.7467 252.349 23.64C254.376 23.5333 256.269 23.4 258.029 23.24C259.789 23.08 261.483 22.8933 263.109 22.68L263.069 27.4C261.683 27.56 260.336 27.6933 259.029 27.8C257.749 27.9067 256.429 28 255.069 28.08C253.736 28.16 252.296 28.2133 250.749 28.24C249.203 28.2667 247.469 28.28 245.549 28.28C244.776 28.28 243.816 28.2667 242.669 28.24C241.523 28.1867 240.349 28.12 239.149 28.04C237.976 27.96 236.936 27.8667 236.029 27.76L235.989 23.04ZM298.669 20.88C298.029 21.2533 297.376 21.6133 296.709 21.96C296.069 22.28 295.389 22.6267 294.669 23C293.843 23.4 292.883 23.88 291.789 24.44C290.723 24.9733 289.589 25.5733 288.389 26.24C287.189 26.88 285.976 27.5867 284.749 28.36C283.096 29.4533 281.749 30.5867 280.709 31.76C279.696 32.9333 279.189 34.2267 279.189 35.64C279.189 37.0533 279.883 38.1467 281.269 38.92C282.656 39.6667 284.749 40.04 287.549 40.04C288.909 40.04 290.376 39.9867 291.949 39.88C293.523 39.7467 295.056 39.5733 296.549 39.36C298.069 39.12 299.416 38.8667 300.589 38.6L300.509 44.32C299.389 44.5333 298.163 44.72 296.829 44.88C295.523 45.04 294.109 45.16 292.589 45.24C291.069 45.32 289.429 45.36 287.669 45.36C285.696 45.36 283.856 45.2 282.149 44.88C280.443 44.56 278.949 44.0533 277.669 43.36C276.416 42.6667 275.429 41.7333 274.709 40.56C274.016 39.3867 273.669 37.9333 273.669 36.2C273.669 34.52 274.043 32.9867 274.789 31.6C275.536 30.2133 276.549 28.9333 277.829 27.76C279.109 26.5867 280.536 25.48 282.109 24.44C283.389 23.6133 284.656 22.8533 285.909 22.16C287.189 21.44 288.389 20.7867 289.509 20.2C290.656 19.5867 291.629 19.04 292.429 18.56C293.176 18.1333 293.843 17.7333 294.429 17.36C295.043 16.9867 295.603 16.5867 296.109 16.16L298.669 20.88ZM279.789 11.72C280.429 13.48 281.109 15.1867 281.829 16.84C282.576 18.4667 283.309 19.9867 284.029 21.4C284.776 22.8133 285.456 24.0667 286.069 25.16L281.549 27.84C280.829 26.6133 280.083 25.24 279.309 23.72C278.536 22.2 277.763 20.6 276.989 18.92C276.243 17.2133 275.496 15.4933 274.749 13.76L279.789 11.72ZM299.109 11.12C299.456 11.6 299.829 12.1733 300.229 12.84C300.629 13.5067 301.003 14.1733 301.349 14.84C301.723 15.5067 302.043 16.0933 302.309 16.6L299.069 17.96C298.669 17.1333 298.176 16.2 297.589 15.16C297.029 14.0933 296.483 13.1733 295.949 12.4L299.109 11.12ZM303.869 9.28C304.216 9.78666 304.589 10.3867 304.989 11.08C305.389 11.7467 305.776 12.4133 306.149 13.08C306.549 13.72 306.869 14.28 307.109 14.76L303.909 16.12C303.509 15.2667 303.003 14.32 302.389 13.28C301.803 12.24 301.229 11.3467 300.669 10.6L303.869 9.28ZM320.949 10.88C320.816 11.36 320.669 11.96 320.509 12.68C320.349 13.4 320.189 14.16 320.029 14.96C319.869 15.7333 319.723 16.4933 319.589 17.24C319.483 17.9867 319.403 18.64 319.349 19.2C319.829 18.4 320.403 17.6267 321.069 16.88C321.736 16.1067 322.483 15.4133 323.309 14.8C324.163 14.16 325.083 13.6533 326.069 13.28C327.083 12.9067 328.149 12.72 329.269 12.72C331.136 12.72 332.816 13.2933 334.309 14.44C335.803 15.5867 336.976 17.2267 337.829 19.36C338.709 21.4933 339.149 24.0267 339.149 26.96C339.149 29.7867 338.736 32.2667 337.909 34.4C337.083 36.5067 335.896 38.3067 334.349 39.8C332.803 41.2933 330.949 42.5067 328.789 43.44C326.656 44.4 324.269 45.12 321.629 45.6L318.589 40.96C320.803 40.6133 322.829 40.1467 324.669 39.56C326.536 38.9467 328.136 38.12 329.469 37.08C330.829 36.04 331.869 34.7067 332.589 33.08C333.336 31.4267 333.709 29.4 333.709 27C333.709 24.9467 333.496 23.2133 333.069 21.8C332.643 20.36 332.016 19.2667 331.189 18.52C330.389 17.7733 329.429 17.4 328.309 17.4C327.136 17.4 326.016 17.7867 324.949 18.56C323.883 19.3333 322.923 20.3467 322.069 21.6C321.243 22.8267 320.576 24.16 320.069 25.6C319.589 27.04 319.323 28.4267 319.269 29.76C319.243 30.32 319.229 30.9333 319.229 31.6C319.256 32.2667 319.336 33.0667 319.469 34L314.549 34.32C314.443 33.5467 314.323 32.5867 314.189 31.44C314.083 30.2667 314.029 29 314.029 27.64C314.029 26.7067 314.056 25.7067 314.109 24.64C314.189 23.5733 314.269 22.4933 314.349 21.4C314.456 20.28 314.576 19.16 314.709 18.04C314.869 16.92 315.016 15.8533 315.149 14.84C315.256 14.0667 315.336 13.3067 315.389 12.56C315.443 11.8133 315.469 11.1733 315.469 10.64L320.949 10.88ZM352.149 32.04V30.04C352.149 23.64 350.589 17.64 346.669 12.36H351.469C355.429 17.08 357.349 23.24 357.349 30.24V31.84C357.349 38.84 355.429 45.08 351.469 49.8H346.669C350.789 44.16 352.149 38.12 352.149 32.04Z" fill="#1E1E1E"/>
</svg>
