<svg width="372" height="52" viewBox="0 0 372 52" fill="none" xmlns="http://www.w3.org/2000/svg">
<mask id="path-1-inside-1_2827_15737" fill="white">
<path d="M372 49H18.0547L0 32.8262V16.6523L18.0547 1H372V49ZM10.5469 21.6104C8.30696 21.6106 6.49121 23.3559 6.49121 25.5088C6.49129 27.6616 8.307 29.407 10.5469 29.4072C12.7869 29.4072 14.6034 27.6617 14.6035 25.5088C14.6035 23.3558 12.787 21.6104 10.5469 21.6104Z"/>
</mask>
<path d="M372 49H18.0547L0 32.8262V16.6523L18.0547 1H372V49ZM10.5469 21.6104C8.30696 21.6106 6.49121 23.3559 6.49121 25.5088C6.49129 27.6616 8.307 29.407 10.5469 29.4072C12.7869 29.4072 14.6034 27.6617 14.6035 25.5088C14.6035 23.3558 12.787 21.6104 10.5469 21.6104Z" fill="#ECC8C1"/>
<path d="M372 49V50H373V49H372ZM18.0547 49L17.3874 49.7448L17.6723 50H18.0547V49ZM0 32.8262H-1V33.2729L-0.667245 33.571L0 32.8262ZM0 16.6523L-0.655049 15.8968L-1 16.1958V16.6523H0ZM18.0547 1V0H17.6816L17.3996 0.244413L18.0547 1ZM372 1H373V0H372V1ZM10.5469 21.6104L10.5469 20.6104L10.5468 20.6104L10.5469 21.6104ZM6.49121 25.5088L5.49121 25.5088L5.49121 25.5088L6.49121 25.5088ZM10.5469 29.4072L10.5468 30.4072H10.5469V29.4072ZM14.6035 25.5088L15.6035 25.5088V25.5088H14.6035ZM372 49V48H18.0547V49V50H372V49ZM18.0547 49L18.7219 48.2552L0.667245 32.0813L0 32.8262L-0.667245 33.571L17.3874 49.7448L18.0547 49ZM0 32.8262H1V16.6523H0H-1V32.8262H0ZM0 16.6523L0.655049 17.4079L18.7097 1.75559L18.0547 1L17.3996 0.244413L-0.655049 15.8968L0 16.6523ZM18.0547 1V2H372V1V0H18.0547V1ZM372 1H371V49H372H373V1H372ZM10.5469 21.6104L10.5468 20.6104C7.79233 20.6106 5.49121 22.7667 5.49121 25.5088H6.49121H7.49121C7.49121 23.9452 8.82158 22.6105 10.547 22.6104L10.5469 21.6104ZM6.49121 25.5088L5.49121 25.5088C5.49131 28.2508 7.79234 30.407 10.5468 30.4072L10.5469 29.4072L10.547 28.4072C8.82166 28.4071 7.49127 27.0724 7.49121 25.5088L6.49121 25.5088ZM10.5469 29.4072V30.4072C13.3013 30.4072 15.6034 28.2511 15.6035 25.5088L14.6035 25.5088L13.6035 25.5088C13.6035 27.0723 12.2725 28.4072 10.5469 28.4072V29.4072ZM14.6035 25.5088H15.6035C15.6035 22.7664 13.3014 20.6104 10.5469 20.6104V21.6104V22.6104C12.2726 22.6104 13.6035 23.9453 13.6035 25.5088H14.6035Z" fill="#DA9186" mask="url(#path-1-inside-1_2827_15737)"/>
<path d="M57.68 6.56V20.12H62.8V24.52H57.68V43.76H52.6V6.56H57.68ZM31.68 36.08L29 32.08C41.04 24.92 41.72 22.88 41.72 16.96V14.28H29.68V9.92H46.8V17.2C46.8 25.28 44.96 27.96 31.68 36.08ZM87.0141 7.96H92.0541V24.92H67.1741V7.96H72.2141V12.56H87.0141V7.96ZM62.5741 28.24H96.6541V32.52H82.1741V43.76H77.0941V32.52H62.5741V28.24ZM72.2141 20.72H87.0141V16.8H72.2141V20.72ZM101.228 36.72L98.7881 32.6C106.348 28.48 109.868 26 111.108 23.32L98.8281 23.64L98.6681 19.32L111.628 19.12V14.08H99.5081V9.76H116.588V19.04C116.588 26.68 113.828 29.76 101.228 36.72ZM128.308 6.56V43.76H123.228V6.56H128.308ZM140.282 34.72C134.642 34.72 132.002 30.92 132.002 24.2V19.88C132.002 13.16 134.642 9.36 140.282 9.36C145.882 9.36 148.522 13.16 148.562 19.84H151.522V7.32H156.322V41.96H151.522V24.2H148.562C148.562 30.92 145.922 34.72 140.282 34.72ZM163.842 6.56V43.76H159.042V6.56H163.842ZM140.282 13.76C137.522 13.76 136.642 16.08 136.642 20.44V23.64C136.642 28 137.522 30.32 140.282 30.32C143.042 30.32 143.922 28 143.922 23.64V20.44C143.922 16.08 143.042 13.76 140.282 13.76ZM184.816 22.16V17.76H192.136V6.56H197.216V43.76H192.136V22.16H184.816ZM182.496 25.28C184.216 27.16 186.296 29.2 188.376 31.08L185.136 34.48C183.336 32.8 181.576 31.04 180.096 29.52C178.576 27.96 177.416 26.64 177.136 25.96H177.056C176.816 26.68 175.376 28.32 174.056 29.68C172.576 31.24 171.016 32.76 168.736 34.88L165.416 31.44C167.656 29.44 169.696 27.44 171.416 25.56C173.736 23 174.496 21.04 174.496 17.76V9.2H179.656V17.76C179.656 20.92 180.096 22.68 182.496 25.28ZM227.27 24.92C219.95 24.92 214.51 22.04 214.51 16.92V15.24C214.51 10.12 219.95 7.24 227.27 7.24C234.59 7.24 240.03 10.12 240.03 15.24V16.92C240.03 22.04 234.59 24.92 227.27 24.92ZM210.23 27.76H244.31V32.04H236.15V43.64H231.15V32.04H223.39V43.64H218.39V32.04H210.23V27.76ZM227.27 11.52C222.83 11.52 219.47 13.04 219.47 15.48V16.68C219.47 19.12 222.83 20.64 227.27 20.64C231.71 20.64 235.07 19.12 235.07 16.68V15.48C235.07 13.04 231.71 11.52 227.27 11.52ZM250.644 23.84V30.12H252.324C255.364 30.12 258.844 29.96 262.164 29.48L262.644 33.64C259.564 34.16 255.444 34.32 251.284 34.32H245.884V19.8H255.444V13.96H245.884V9.76H260.204V23.84H250.644ZM269.084 7.32V19.56H272.284V6.56H277.084V43.76H272.284V23.92H269.084V41.96H264.284V7.32H269.084ZM308.578 6.56V17.32H313.458V21.72H308.578V33.52H303.538V6.56H308.578ZM290.498 33.04V39.08H309.458V43.4H285.418V33.04H290.498ZM292.698 6.24V10.28H300.738V14.56H279.458V10.28H287.658V6.24H292.698ZM290.178 30.84C284.578 30.84 281.298 27.76 281.298 24.16V22.64C281.298 19.04 284.578 15.96 290.178 15.96C295.778 15.96 299.058 19.04 299.058 22.64V24.16C299.058 27.76 295.778 30.84 290.178 30.84ZM290.178 19.92C287.498 19.92 286.058 21.56 286.058 22.92V23.88C286.058 25.24 287.498 26.88 290.178 26.88C292.858 26.88 294.298 25.24 294.298 23.88V22.92C294.298 21.56 292.858 19.92 290.178 19.92ZM342.233 7.96V23.64H325.113V7.96H342.233ZM329.553 26.64H352.993V37.28H334.633V40.12H354.113V44.12H329.753V33.48H348.113V30.64H329.553V26.64ZM337.273 19.52V12.08H330.073V19.52H337.273ZM352.993 6.56V13.36H357.873V17.76H352.993V24.96H347.953V6.56H352.993Z" fill="#1E1E1E"/>
</svg>
