<svg width="764" height="49" viewBox="0 0 764 49" fill="none" xmlns="http://www.w3.org/2000/svg">
<rect width="351" height="49" rx="8" fill="#E4F2FC"/>
<path d="M13.5347 19.3784C14.3019 19 15.4038 18.3832 16.1943 17.9904C16.474 17.8177 16.7686 17.6676 17.0865 17.5031C15.806 17.8494 14.4789 18.2244 13.2134 18.5932C11.8332 18.9375 11.4911 16.9278 12.9203 16.807C14.0718 16.7624 15.2615 16.726 16.4364 16.667C15.2888 16.5188 14.1031 16.3624 12.9471 16.2511C11.5323 16.0457 12.0491 14.0451 13.4049 14.509C14.5465 14.9465 15.7114 15.3695 16.8763 15.7926C16.664 15.6698 16.4751 15.5327 16.2628 15.4099C15.5051 14.9575 14.4523 14.3066 13.6861 13.8912C12.4975 13.1338 13.8037 11.5342 14.8506 12.4743C15.7001 13.3142 16.6026 14.1848 17.5051 15.0554C16.8357 14.0409 16.1047 13.0327 15.4035 12.0695C14.6448 10.9198 16.5204 9.98404 17.0545 11.2407C17.3525 12.0403 17.774 13.1762 18.0953 13.9614C18.1612 14.111 18.2272 14.2607 18.2698 14.4247C18.0626 13.3153 17.8405 12.1833 17.6099 11.0882C17.4002 9.7265 19.5123 9.59658 19.4611 10.9607C19.3902 11.7977 19.3346 13.0059 19.2785 13.8655C19.2641 14.1916 19.2498 14.5178 19.2354 14.844C19.3261 14.5341 19.4169 14.2243 19.531 13.9C19.778 13.0813 20.1008 11.9301 20.3329 11.0888C20.751 9.78369 22.699 10.5483 22.0602 11.7676C21.1779 13.2641 20.3021 14.82 19.4495 16.3616C21.4599 17.8174 23.2903 19.4478 24.9193 21.1708C24.4492 20.1601 23.9875 19.1125 23.509 18.1388C22.9601 16.8596 24.9824 16.2457 25.2918 17.6094C25.4842 18.6963 25.7063 19.8282 25.9518 20.9458C25.9473 20.79 25.9513 20.5971 25.9468 20.4412C25.9414 19.5879 25.9355 18.3859 25.8919 17.5245C25.9048 16.1522 28.0174 16.371 27.7521 17.7087C27.4505 18.9419 27.1554 20.2346 26.8836 21.5128C27.4673 20.3593 28.0446 19.1463 28.5901 17.9846C29.2289 16.7653 31.0246 17.846 30.1736 18.9425C29.0027 20.2999 27.8298 21.7536 26.7119 23.1417C28.4262 25.1928 29.8713 27.2831 31.0723 29.302C31.0529 29.1236 31.0103 28.9596 30.991 28.7811C30.8392 27.9547 30.634 26.7488 30.4823 25.9224C30.2725 24.5606 32.3995 24.4533 32.3633 25.8399C32.2715 26.9436 32.1713 28.0842 32.1092 29.233C32.4004 28.1332 32.6766 27.0108 32.9445 25.9253C33.3244 24.6121 35.304 25.3254 34.6801 26.5672C34.2507 27.3082 33.6838 28.3879 33.2925 29.1371L32.8293 30.0259C33.0495 29.763 33.2845 29.5227 33.4814 29.2743C34.0552 28.6028 34.8641 27.691 35.4146 27.0339C36.3484 26.0132 37.8138 27.4882 36.6761 28.3491C35.2057 29.352 33.7333 30.4514 32.3075 31.5219C33.7406 34.1907 34.6728 36.5977 35.1905 38.2769C35.2545 38.523 35.1573 38.7734 34.9708 38.8885C34.9242 38.9173 34.8776 38.946 34.831 38.9748C34.5299 39.0655 34.2264 38.9038 34.1327 38.6127C33.6448 36.9785 32.7488 34.6761 31.3603 32.0749C29.6008 32.59 27.7713 33.1482 26.0416 33.7084C24.6763 34.0753 24.2727 32.0718 25.6871 31.9284C27.0082 31.8426 28.3526 31.7424 29.697 31.6422C28.3586 31.4532 27.0052 31.2416 25.7198 31.0833C24.3134 30.841 24.8833 28.8711 26.2158 29.3494C27.281 29.7705 28.3844 30.1998 29.4878 30.6292C28.5029 30.0315 27.4799 29.4257 26.4866 28.8649C25.2979 28.1075 26.6042 26.5079 27.651 27.4481C28.2521 28.0606 29.1397 28.9086 29.7641 29.5068C29.8766 29.6277 29.9976 29.7116 30.1102 29.8325C28.9687 27.9038 27.545 25.8954 25.9284 23.9427C25.2291 24.3744 24.5299 24.806 23.839 25.2008C23.0932 25.6612 22.0443 26.3087 21.2984 26.7691C20.0948 27.4804 19.1358 25.6294 20.4882 25.1436C21.7389 24.7522 23.0213 24.3095 24.3038 23.8669C22.9509 24.004 21.598 24.1411 20.2983 24.309C18.869 24.4298 18.8959 22.3826 20.3127 22.4916C21.1845 22.6197 22.4169 22.7473 23.2887 22.8754C23.4647 22.8936 23.6408 22.9119 23.8168 22.9301C22.6966 22.5746 21.5679 22.2561 20.4541 21.9601C19.1131 21.5188 19.9419 19.6429 21.194 20.2977C21.9369 20.7275 23.0363 21.3496 23.7792 21.7794C23.9383 21.8715 24.1208 21.9492 24.2949 22.0639C22.6808 20.3634 20.8886 18.7412 18.9164 17.2935C17.5268 18.4686 16.0822 19.7094 14.7456 20.9152C13.661 21.8069 12.4372 20.1511 13.6557 19.4623" fill="#F3C574"/>
<path d="M37.2467 18.5741C38.4513 18.5602 39.6325 18.5607 40.852 18.5694C39.6618 18.2571 38.4632 17.9818 37.2943 17.7515C36.0109 17.4968 36.5575 15.5412 37.7585 16.0689C38.6859 16.48 39.6514 16.8992 40.5852 17.3698C39.7466 16.7453 38.8848 16.1351 38.0145 15.5619C36.8873 14.7983 38.0939 13.1967 39.0708 14.1801C39.8588 15.0262 40.6701 15.8579 41.4347 16.7185C40.8417 15.7203 40.2337 14.6996 39.5707 13.7446C38.7971 12.5723 40.5581 11.6121 41.1135 12.9508C41.5583 14.0722 41.9649 15.1855 42.3715 16.2988C42.196 15.138 42.0056 13.9547 41.7537 12.7777C41.4761 11.3627 43.5247 11.3354 43.5182 12.7672C43.4879 13.8646 43.4576 14.962 43.3891 16.0513C43.6485 15.0028 43.8846 13.9687 44.0677 12.9039C44.3648 11.5148 46.3171 12.4353 45.7845 13.716C45.2474 14.8408 44.7251 15.9881 44.135 17.0821C44.9438 16.1703 45.7294 15.2729 46.4936 14.2935C47.3511 13.2565 48.8085 15.1172 47.7492 15.898C46.3105 16.8496 44.8867 17.8237 43.4481 18.7753C44.4056 21.0714 45.3423 23.6342 46.0945 26.2157C46.1183 25.0588 46.104 23.8937 46.0515 22.7205C46.0198 21.2806 48.0242 21.5344 47.81 22.9992C47.6036 24.0784 47.4122 25.1802 47.1676 26.2513C47.5947 25.2579 47.9835 24.2564 48.3426 23.2098C48.8455 21.8841 50.654 23.0838 49.9007 24.2785C49.1811 25.3256 48.4997 26.3808 47.7503 27.3828C48.6866 26.6144 49.608 25.8235 50.523 24.9731C50.8831 24.6239 51.4643 24.7093 51.7851 25.1458C52.1655 25.6725 52.0182 26.4932 51.5222 26.7359C49.9581 27.4476 48.4004 28.2188 46.8511 28.9531C46.8045 28.9819 47.7927 33.5118 47.9038 34.0778C47.9509 34.3977 48.0744 34.7339 48.0367 35.0745C48.0009 35.3186 47.8804 35.5834 47.573 35.6146C47.1425 35.6582 46.9531 35.1723 46.9293 34.838C46.7344 33.4988 45.895 29.1944 45.8335 29.2006C44.0988 29.2562 42.3706 29.3712 40.6339 29.5232C39.3212 29.5721 39.3694 27.607 40.6548 27.7653C41.832 27.9586 43.0178 28.115 44.2184 28.294C43.1085 27.8052 41.9521 27.3452 40.8403 26.9528C39.6223 26.499 40.4659 24.6456 41.5867 25.3498C42.4421 25.9005 43.3124 26.4737 44.1743 27.0838C43.4458 26.3279 42.694 25.5863 41.9254 24.9186C40.94 23.9722 42.3802 22.5755 43.2004 23.719C43.8252 24.6659 44.5115 25.6065 45.1279 26.5903C44.3757 24.0088 43.4539 21.4685 42.4964 19.1724C40.8023 19.4884 39.0999 19.8414 37.4271 20.2395C36.1487 20.4893 35.8661 18.5697 37.1787 18.5209" fill="#F3C574"/>
<path d="M63.04 21.28C62.96 21.28 62.92 21.24 62.92 21.2C62.4 20.8 62.24 19.8 62.24 19.2C62.2 18.24 62.08 17.28 62.08 16.36C62.08 15 62.04 13.36 62.28 12.04C62.44 11.2 62.76 10.72 63.56 10.4C64.28 10.12 65.04 10.04 65.8 9.96C66.72 9.88 67.68 9.96 68.64 9.96H76.24C78.96 9.96 78.6 9.96 81.28 9.92C81.76 9.92 82.2 9.92 82.68 9.96C83.68 10 84.8 10.04 85.72 10.48C86.76 10.92 87.08 12.04 87.12 13.08C87.2 14.28 87.08 15.8 87.08 17C87.04 18.08 87.08 19.16 86.8 20.2C86.64 20.8 86.52 21.28 85.88 21.48C85.32 21.68 84.6 21.72 84.04 21.72H66.76C66.24 21.72 65.72 21.68 65.2 21.64C64.52 21.6 63.64 21.68 63.04 21.28ZM85.24 28.92C82.6 29 80.52 29.08 77.84 29.08C77.8 30.2 77.72 31.24 77.72 32.76C77.48 33.88 76 34.56 74.92 34.52C73.32 34.44 72.44 33.8 72.28 32.2C72.16 31.16 72.32 30.04 72.32 29C69.88 29 63.48 28.92 61.24 28.76C60.4 28.68 60 28.64 59.32 28C58.96 27.68 58.8 27.08 58.8 26.52C58.8 26 59 25.48 59.32 25.16C60.12 24.32 62.08 24.36 62.16 24.36H85.04C85.84 24.36 86.64 24.36 87.4 24.4C88.12 24.44 88.92 24.56 89.48 25.08C90.04 25.52 90.04 26.04 90.04 26.68C90.04 27.48 89.56 28.16 88.76 28.44C87.68 28.84 86.36 28.88 85.24 28.92ZM86.36 36.48C86.44 36.52 87.92 36.88 88.08 38C88.24 39 88.08 39.8 87.6 40.36C87 41.12 86.12 41.16 86.08 41.16H64.24C62.2 41.16 60.96 40.44 60.96 39.24V35.68C60.92 35.08 60.92 34.48 60.96 33.88C61.04 32.76 61.88 32 63 32C63.28 32 63.84 32.04 64.08 32.12C65.44 32.56 65.52 33.92 65.6 35.12C65.6 35.56 65.64 36.04 65.76 36.4C65.88 36.44 66.68 36.56 68.56 36.56C70.16 36.56 71.64 36.48 71.68 36.48H86.36ZM66.84 16.6C66.84 16.84 66.84 17.12 66.96 17.24C67.2 17.44 68.12 17.32 68.12 17.32H78.64C78.64 17.32 80.56 17.48 81.52 17.36C82.08 17.32 82.08 17.08 82.16 16.6C82.2 16.16 82.28 15.24 81.96 14.84C81.6 14.4 80.76 14.48 80.28 14.52H76.64C76.28 14.48 71.44 14.52 71.08 14.52C69.96 14.44 68.84 14.48 67.68 14.52C67.2 14.52 67.04 14.44 66.92 14.92C66.84 15.28 66.84 15.92 66.84 16.24V16.6ZM95.2516 33.72C95.4516 33.64 99.1316 33.8 99.8116 33.8C99.8516 33.16 99.9316 30.52 100.012 29.2C99.5316 29.08 99.0916 28.96 98.6516 28.76C95.6516 27.52 93.3316 25.08 93.3316 21.56C93.3316 19.64 93.8916 18.16 94.8116 17H94.3716C93.0916 17 92.0116 16.04 92.0116 14.88C92.0116 13.68 93.0916 12.72 94.3716 12.72H99.6516V11.08C99.6516 10.04 100.692 9.28 101.972 9.28C103.292 9.28 104.332 10.04 104.332 11.08V12.72H109.852C111.172 12.72 112.252 13.68 112.252 14.88C112.252 16.04 111.172 17 109.852 17H109.732C110.652 18.16 111.252 19.64 111.252 21.56C111.252 24.04 110.052 26.08 108.052 27.6C107.052 28.32 105.932 28.84 104.772 29.16C104.852 30.4 104.852 33.16 104.852 33.76V33.8H110.172C111.052 33.8 111.772 33.96 112.292 34.28C113.492 35 113.452 36.96 112.932 37.92C112.452 38.76 111.412 38.84 110.572 38.84H94.7716C94.7316 38.84 93.3716 38.72 92.6516 38.4C92.1316 38.12 91.7316 37.52 91.6116 36.76C91.4916 35.92 91.7716 35.12 92.2916 34.64C93.2516 33.84 94.3316 33.72 95.2516 33.72ZM121.772 22.96H121.852C122.132 22.92 122.372 23 122.612 23C122.932 23.04 123.212 23.08 123.532 23.12C124.132 23.24 124.772 23.48 125.092 24.08C125.252 24.4 125.332 24.76 125.332 25.16C125.332 25.52 125.332 25.92 125.252 26.28C125.132 26.68 125.012 27.24 124.692 27.52C124.372 27.76 123.972 27.96 123.572 28.04C122.732 28.16 121.292 28.04 120.452 28.08C120.372 28.12 120.332 28.12 120.332 28.12C120.332 28.12 120.332 28.16 120.292 28.28C120.252 29.6 120.292 30.76 120.292 32.12C120.332 33.48 120.332 34.88 120.292 36.2V36.76C120.292 38.16 120.332 40.2 119.372 41.2C119.012 41.52 118.572 41.72 118.052 41.72H117.972C115.372 41.6 115.132 38.48 115.132 36.8V13.04C115.132 12.96 115.052 10.96 115.932 10.08C116.332 9.72 117.172 9.52 117.732 9.52C118.332 9.52 118.892 9.76 119.252 10.12C119.932 10.88 120.012 11.72 120.052 12.6C120.092 12.76 120.092 12.92 120.132 13.12C120.212 13.96 120.212 14.96 120.252 15.92C120.252 16.52 120.292 17.08 120.292 17.64V21.96C120.292 22.24 120.292 22.56 120.372 22.84C120.372 22.88 121.172 22.88 121.252 22.92C121.412 22.92 121.612 22.96 121.772 22.96ZM103.052 24.76C104.772 24.44 106.252 23.6 106.252 21.56C106.252 19.2 104.292 18.32 102.332 18.28C100.332 18.2 98.3316 19.04 98.3316 21.56C98.3316 24.44 100.852 25.2 103.052 24.76ZM162.553 38.44C163.393 38.52 164.113 38.8 164.353 39.64C164.673 40.6 164.313 41.28 163.313 41.68C162.673 41.92 161.993 41.96 161.433 41.96H142.833C141.753 41.96 140.593 41.92 139.433 41.88C138.313 41.84 137.513 41 137.393 39.8L137.273 37C137.233 36.44 137.193 35.48 137.673 34.96C138.393 34.16 139.833 34.04 140.993 34.04C142.513 34.04 147.593 34.08 159.793 34.08V32.64H140.113C139.593 32.64 139.153 32.64 138.753 32.56C138.273 32.44 137.873 32.44 137.633 32C137.273 31.44 137.153 30.92 137.353 30.28C137.633 29.44 138.833 29.32 139.433 29.24C139.833 29.16 140.233 29.12 140.673 29.12C143.073 29.12 145.873 29.16 160.193 29.16C162.873 29.16 164.393 29.96 164.393 31.8V34.64C164.393 35.36 164.073 36.16 163.233 36.64C162.553 37.04 161.833 37 161.153 37H142.193V38.44H162.553ZM137.633 15.2C137.553 13.88 137.353 12.48 137.793 11.32C138.393 9.88 139.913 9.64 141.233 9.64H159.873C160.953 9.64 161.873 9.68 162.913 10.08C163.753 10.44 164.273 11.28 164.233 12.2C164.153 13.12 163.593 13.84 162.713 14.04C162.233 14.16 161.513 14.24 160.553 14.24C159.873 14.24 159.393 14.2 159.353 14.2H147.793C146.993 14.2 146.193 14.24 145.393 14.2C144.753 14.16 144.073 13.96 143.473 14.16C142.873 14.32 142.913 15 143.073 15.68C143.833 15.8 144.593 15.8 145.353 15.84H152.953C153.433 15.88 156.593 15.88 156.993 15.84C157.313 15.8 159.513 15.8 159.833 15.8C161.073 15.8 162.153 16 162.993 16.4C163.513 16.68 163.873 16.88 163.993 17.52C164.153 18.16 164.033 18.84 163.633 19.32C162.873 20.32 161.913 20.36 160.793 20.4C159.753 20.44 153.873 20.48 152.233 20.48C150.553 20.48 147.153 20.44 145.593 20.44C143.833 20.4 142.073 20.32 140.313 20.32C137.713 20.32 137.713 18.56 137.713 16.32C137.713 15.96 137.673 15.56 137.633 15.2ZM138.993 22.64C139.793 22.56 141.553 22.56 141.553 22.56H150.353C150.353 22.56 157.753 22.48 161.353 22.56H161.553C162.633 22.6 163.713 22.52 164.753 22.92C165.513 23.2 165.993 23.88 165.993 24.68C165.993 25.32 165.713 25.92 165.193 26.36C164.353 27.12 162.993 27.08 161.913 27H138.953C138.873 27 136.993 27.04 136.233 26.2C135.913 25.88 135.753 25.36 135.753 24.84C135.753 24.28 135.953 23.8 136.273 23.48C136.953 22.8 137.713 22.76 138.513 22.68C138.673 22.68 138.833 22.64 138.993 22.64ZM191.589 14.52C191.629 13.16 191.589 11.04 192.549 10.08C192.909 9.72 193.349 9.56 193.829 9.56H193.909C196.549 9.68 196.789 12.8 196.789 14.48V38.2C196.789 38.28 196.869 40.32 195.949 41.16C195.589 41.52 194.749 41.76 194.189 41.76C193.589 41.76 193.029 41.52 192.669 41.12C191.989 40.36 191.869 39.68 191.789 38.8C191.789 37.88 191.709 34.68 191.749 33.2H189.269C188.069 33.2 187.429 32.8 187.149 32.2C186.989 31.88 186.829 31.52 186.829 31.16C186.829 30.8 186.829 30.56 186.909 30.2C187.029 29.8 187.149 29.24 187.469 28.96C187.789 28.72 188.189 28.52 188.589 28.44C189.429 28.28 190.749 28.32 191.629 28.2C191.629 27.4 191.629 24.92 191.589 23.16L189.189 23.08C188.189 23.04 187.309 22.88 187.029 22.28C186.869 21.96 186.749 21.56 186.749 21.2C186.749 20.84 186.749 20.6 186.829 20.24C186.949 19.84 187.069 19.36 187.389 19.08C187.709 18.84 188.109 18.64 188.509 18.56C189.109 18.44 190.149 18.44 191.549 18.36C191.549 16.6 191.549 15.04 191.589 14.52ZM177.029 9.56C177.709 9.56 178.349 9.64 178.989 9.72C179.989 9.88 180.909 10.36 181.669 11.12C184.269 13.84 184.829 18.52 184.989 22.32C185.109 24.76 185.069 27.24 184.789 29.64C184.509 32.12 184.149 34.8 182.829 36.84C181.709 38.56 179.949 39.68 178.149 40.04C176.509 40.36 174.709 40.16 173.189 39.28C171.749 38.44 170.789 37.12 170.069 35.44C169.549 34.2 169.229 32.84 169.149 31.48C168.949 29.24 168.869 27 168.869 24.76C168.869 23.24 168.869 21.76 169.029 20.28C169.109 19.08 169.309 17.84 169.509 16.68C169.709 15.72 169.829 14.88 170.229 14C170.629 13.12 171.149 12.28 171.829 11.64C172.989 10.48 174.509 9.84 176.029 9.64C176.349 9.6 176.709 9.6 177.029 9.56ZM176.909 34.72C177.389 34.72 177.909 34.56 178.389 34.24C179.269 33.6 179.589 32.48 179.829 31.2C180.269 28.76 180.229 25.8 180.149 23.28C180.109 21.24 180.069 18.6 179.109 16.96C178.589 16.08 177.789 15.52 176.949 15.64C176.069 15.72 175.269 16.28 174.789 17.32L174.429 18.16C174.109 19.16 173.949 20.28 173.869 21.36C173.789 22.44 173.709 23.56 173.709 24.64C173.749 25.72 173.629 26.72 173.709 27.76C173.909 30.52 174.269 34.68 176.909 34.72ZM216.772 34.8C218.332 34.8 219.772 35.16 219.972 36.88C220.172 38.6 218.412 39.64 216.972 39.72C215.852 39.76 210.492 39.72 207.892 39.72H207.572C206.372 39.68 204.972 39.68 203.772 39.32C202.932 39.08 202.092 38.32 201.692 37.4C201.172 36.24 201.292 33.76 201.292 33.64V16.64C201.252 16.36 200.972 13.52 201.772 12.2C202.452 11.08 205.492 11.04 205.772 11.04H215.132C215.292 11.04 218.652 10.92 219.172 12.6C219.372 13.2 219.332 14.64 219.092 15.08C218.892 15.44 218.532 15.68 218.092 15.8C217.612 15.92 216.852 16 215.812 16C215.132 16 214.612 15.96 209.692 15.96C208.972 15.96 208.052 16 207.692 16.16C206.932 16.48 206.972 18.24 207.052 18.84V18.88L207.212 32.72C207.212 33.76 207.612 34.52 208.852 34.52C209.132 34.56 213.252 34.8 216.772 34.8ZM227.412 21.88L230.572 22.16C231.532 22.36 232.372 23 232.372 24.16C232.372 24.56 232.372 24.92 232.252 25.32C232.092 26.2 231.612 26.96 230.612 26.96L227.332 27C227.252 29.76 227.332 34 227.332 37.32C227.332 38.72 227.292 41.68 224.932 41.84C222.332 42 222.132 39.44 222.132 37.76V13.2C222.132 13.12 222.092 11.12 222.972 10.24C223.332 9.88 224.172 9.68 224.772 9.68C225.372 9.68 225.892 9.92 226.252 10.28C226.972 11.04 227.012 11.88 227.092 12.76C227.332 15.68 227.412 18.84 227.412 21.88ZM260.615 34.52C260.775 34.56 260.935 34.52 261.095 34.52C261.975 34.6 262.775 34.8 263.495 35.44C263.855 35.8 264.055 36.28 264.055 36.84C264.055 37.4 263.855 38.2 263.535 38.56C262.695 39.4 260.735 39.32 260.655 39.32H238.255C238.015 39.32 237.735 39.36 237.455 39.36C236.335 39.4 234.895 39.48 234.015 38.72C233.495 38.24 233.175 37.64 233.175 37C233.175 36.2 233.695 35.2 234.495 34.88C235.575 34.48 236.735 34.56 237.895 34.52H238.095C240.375 34.48 242.855 34.48 245.255 34.52L245.215 29C243.175 29.04 241.495 29.04 240.535 28.96C239.415 28.92 237.935 28.88 237.015 28.2C235.815 27.28 235.775 24.36 235.775 24.24V15.64C235.775 14.6 235.615 13.48 235.815 12.44C236.095 11.2 237.615 10.88 238.815 10.8C239.735 10.76 241.095 11 241.295 12.08C241.375 12.56 241.215 15.6 241.415 16.04C241.535 16.32 242.095 16.36 242.375 16.4C243.615 16.48 244.015 16.36 245.255 16.36L254.415 16.4C254.975 16.44 255.415 16.44 255.575 15.88C255.615 15.32 255.615 12.96 255.655 12.52C255.695 11.56 255.975 11 256.975 10.8C258.015 10.56 259.495 10.64 260.095 11.24C260.935 12.12 260.895 13.16 260.895 15.24C260.815 17.68 261.015 23.56 260.775 26C260.655 27.56 259.775 28.56 258.255 28.8C257.455 28.92 256.375 28.88 255.575 28.88C253.855 28.92 252.215 28.92 250.615 28.92L250.695 34.52C253.415 34.52 255.295 34.44 257.895 34.52C258.855 34.56 259.775 34.44 260.615 34.52ZM241.415 23.84C241.615 24.64 242.775 24.64 243.655 24.68C244.055 24.64 252.175 24.56 252.655 24.64C253.095 24.68 253.535 24.64 253.975 24.68C254.535 24.72 255.495 24.92 255.495 24.04C255.495 23.64 255.575 22 255.375 21.24C255.215 20.6 254.855 20.64 254.335 20.68C254.095 20.68 253.335 20.72 253.095 20.68H243.975C242.975 20.64 241.495 20.44 241.375 21.68C241.375 21.96 241.375 23.64 241.415 23.84ZM295.356 38.72C295.276 39.36 295.236 39.96 295.036 40.6C294.956 40.8 294.876 40.96 294.796 41.16C294.636 41.48 294.396 41.8 294.076 42.04C293.476 42.4 292.716 42.48 292.036 42.32C291.636 42.24 291.276 42.08 290.996 41.84C290.036 40.96 290.076 38.88 290.076 38.8V14.08C290.036 12.84 290.076 10.84 290.836 10.12C291.396 9.56 292.076 9.48 292.796 9.48C293.716 9.48 294.556 10.04 294.876 10.92C295.356 12.04 295.316 13.28 295.356 14.52V14.72C295.476 18.8 295.356 23.32 295.356 27.16V37.28C295.356 37.76 295.396 38.24 295.356 38.72ZM276.476 34.8C276.436 34.16 276.436 33.52 276.436 32.88V20.16C276.436 19.32 276.436 18.44 276.356 17.56C276.316 17.28 276.276 16.68 275.996 16.56C275.716 16.4 275.356 16.48 275.036 16.44C274.676 16.4 274.316 16.48 273.956 16.44H272.076C271.196 16.48 270.236 16.4 269.356 16.44C268.956 16.48 268.596 16.44 268.196 16.44C267.596 16.44 266.916 16.44 266.396 16.08C265.636 15.56 265.436 14.68 265.436 13.84C265.396 13.32 265.516 12.8 265.756 12.32C265.876 12.04 266.036 11.8 266.276 11.64C266.556 11.36 267.156 11.16 267.516 11.08C268.636 10.8 269.916 10.84 271.076 10.84H278.036C278.716 10.92 279.556 11 280.196 11.24C280.596 11.4 281.076 11.68 281.316 12.04C281.796 12.8 281.796 13.52 281.876 14.4C281.996 15.88 281.956 17.36 281.956 18.84V31.96C281.956 32.08 282.036 35.4 281.956 37.08C281.876 38.16 281.636 39.48 280.236 40C279.756 40.2 279.276 40.28 278.876 40.28C278.196 40.28 277.396 40 277.116 39.4C276.716 38.6 276.476 37.6 276.476 36.56V34.8Z" fill="#475783"/>
<circle cx="322" cy="24.5" r="17" fill="#ACB7D6"/>
<path d="M315.264 30.68L322.154 23.582C324.338 21.346 324.468 20.358 324.468 19.292V19.084C324.468 18.07 323.714 17.108 321.79 17.108C320.438 17.108 319.06 17.55 317.838 19.734L315.342 18.096C316.226 16.484 317.968 14.144 321.764 14.144C326.002 14.144 327.822 16.38 327.822 18.954V19.214C327.822 21.242 326.86 23.114 325.118 24.856L319.606 30.42H328.524V33.176H315.264V30.68Z" fill="white"/>
<path d="M374.52 14.56C374.48 14.52 374.48 18.44 374.52 18.64C374.8 18.88 375.64 19.68 376.12 20.08C376.64 20.52 377.2 21.04 377.8 21.6C378.16 21.96 378.48 22.32 378.76 22.6C379.76 23.6 380.96 24.84 381.32 26.04C381.48 26.52 381.4 27.2 380.84 27.6C380.44 27.84 379.96 28 379.4 28C378.24 28 377.08 27.4 376.44 26.92C375.44 26.16 374.6 25.32 373.76 24.48C373.16 23.88 372.4 23 371.64 22.44L370.56 23.52C370.2 23.88 369.8 24.24 369.48 24.6C368.8 25.36 368.08 26.16 367.12 26.84C366.04 27.64 365 28.04 364.04 28.04C363.8 28.04 363.6 28.04 363.36 27.96C362.8 27.84 362.4 27.6 362.2 27.24C361.84 26.64 362.04 25.8 362.36 25.24C362.76 24.64 363.36 24.08 363.88 23.52C364.84 22.48 368.48 19.08 368.92 18.64V14.56H366.36C365.04 14.56 362.76 14.88 362.08 13.32C361.84 12.72 361.72 11.92 361.88 11.28C362.08 10.52 363 10.28 363.68 10.2C363.92 10.16 367.24 10.24 367.6 10.16H376.96C379.08 10.16 380.56 10.32 381.44 11.36C381.96 12 381.8 13.72 380.96 14.12C380.56 14.28 379.88 14.52 379.44 14.56C378.68 14.6 377.92 14.56 377.16 14.56H374.52ZM389.44 37.2C389.48 37.24 391.08 37.6 391.24 38.72C391.36 39.72 391.2 40.52 390.72 41.08C390.08 41.84 389.12 41.88 389.08 41.88H369.04C366.88 41.88 365.56 41.16 365.56 39.96V34.4C365.52 33.8 365.52 32.24 365.56 31.64C365.68 30.52 366.8 29.76 368 29.76C368.28 29.76 368.72 29.8 369 29.88C370.44 30.32 370.52 32.08 370.6 33.28C370.64 33.72 370.56 36.84 370.6 37.12C370.76 37.16 371.32 37.28 373.28 37.28C375 37.28 376.56 37.2 376.6 37.2H389.44ZM385.8 21.72H384.04C382.48 21.64 381.2 21.76 380.52 20.72C380.2 20.2 380.24 19.24 380.36 18.68C380.52 18.08 380.88 17.68 381.92 17.44C382.36 17.36 385.36 17.28 385.8 17.24V13C385.76 12.44 385.76 11.8 385.92 11.24C386.04 10.84 386.08 10.44 386.44 10.04C386.88 9.52 387.72 9.28 388.6 9.4C389.4 9.52 390 9.88 390.24 10.4C390.56 11.04 390.6 12.24 390.6 12.44V28.68H390.56C390.56 28.76 390.4 30.2 389.36 30.84C389 31.04 388.64 31.16 388.24 31.16C387.76 31.16 387.32 31 386.92 30.72C386.64 30.52 386.4 30.28 386.24 29.92C385.92 29.36 385.84 28.72 385.8 28.16V21.72ZM419.795 25.6C420.675 25.64 421.675 25.8 422.435 26.4C422.795 26.68 422.995 27.16 422.995 27.64C422.995 28.16 422.795 28.92 422.475 29.2C421.635 30 419.555 29.92 419.475 29.92L398.155 29.96C396.955 30 395.475 30.08 394.595 29.36C393.995 28.92 393.675 28.4 393.675 27.8C393.675 27.08 394.235 26.16 395.075 25.88C396.195 25.52 397.395 25.64 398.595 25.6C401.195 25.52 402.035 25.6 404.715 25.6V23.6H402.155H401.475C399.835 23.6 397.515 23.52 396.435 22.48C395.395 21.6 395.515 19.12 395.555 19V11.68C395.555 11.56 395.515 10.32 395.875 9.88C396.315 9.32 396.675 9.08 397.435 9C397.875 8.92 398.795 8.92 398.795 8.92H416.555C417.035 8.92 417.475 8.92 417.955 9.04C418.435 9.12 418.875 9.2 419.235 9.56C419.555 9.8 419.715 10.16 419.795 10.48C419.875 10.8 419.915 11.08 419.835 11.4C419.715 12.24 418.955 12.88 417.835 12.88H400.755V14.44C402.355 14.48 411.115 14.44 411.155 14.44H414.835C415.035 14.44 415.315 14.48 415.595 14.44H416.635C417.155 14.44 417.795 14.48 418.275 14.76C419.035 15.08 419.195 15.88 419.115 16.48C419.075 16.8 419.075 17.16 418.835 17.4C418.275 18.04 417.635 18.12 416.955 18.12H400.715L400.755 19.12C400.715 19.68 400.835 19.32 400.995 19.36C401.315 19.52 402.235 19.6 403.155 19.6H403.355C404.195 19.56 412.475 19.56 413.315 19.6H415.195C415.395 19.6 415.515 19.6 415.715 19.56H416.395C417.195 19.56 418.035 19.56 418.835 19.76C418.955 19.76 419.115 19.84 419.235 19.88C420.555 20.64 420.395 22.44 418.955 23.04C417.875 23.52 416.555 23.6 415.475 23.6H413.835C413.395 23.64 411.795 23.64 410.355 23.64C410.395 24.28 410.395 25 410.395 25.6C413.355 25.6 417.515 25.48 419.795 25.6ZM394.955 36.36C394.955 31.84 400.835 31.16 408.035 31.16C415.275 31.16 421.155 31.32 421.155 36.36C421.155 41.32 415.275 41.56 408.035 41.56C400.835 41.56 394.955 41.32 394.955 36.36ZM415.875 36.36C415.875 34.64 411.715 34.72 408.035 34.72C404.395 34.72 400.475 34.64 400.475 36.36C400.475 37.88 404.395 38 408.035 38C411.715 38 415.875 38.36 415.875 36.36ZM458.293 31.64C459.453 32.04 460.453 32.52 461.133 33.32C461.813 34.04 462.133 35.08 462.133 36.32C462.133 37.6 461.813 38.56 461.133 39.36C460.453 40.08 459.453 40.56 458.293 41C457.133 41.36 455.693 41.6 454.093 41.76C452.533 41.84 450.853 41.92 449.013 41.92C447.173 41.92 445.493 41.84 443.893 41.76C442.333 41.6 440.893 41.36 439.733 41C438.573 40.56 437.653 40.08 436.893 39.36C436.213 38.56 435.893 37.6 435.893 36.32C435.893 35.24 436.213 34.32 436.893 33.56C437.653 32.84 438.573 32.2 439.733 31.8C440.893 31.4 442.333 31.16 443.893 31C445.493 30.8 447.173 30.72 449.013 30.72C450.853 30.72 452.533 30.8 454.093 30.88C455.693 31 457.133 31.24 458.293 31.64ZM457.373 19.52C457.373 18.92 457.613 16.84 457.133 16.36C456.733 15.92 454.093 16.2 453.373 16.2C447.733 16.2 440.253 16 438.653 15.92C437.373 15.92 436.133 15.48 435.893 14C435.653 13 435.973 11.6 436.973 11.04C437.533 10.72 438.213 10.64 438.893 10.56C442.333 10.32 445.653 10.4 449.093 10.48C451.773 10.48 454.413 10.56 457.133 10.56C458.453 10.56 460.373 10.64 461.373 11.76C462.133 12.64 462.053 13.68 462.133 14.76V17.56C462.213 19.68 462.293 22.8 460.133 22.96C457.373 23.12 457.373 21.28 457.373 19.52ZM463.573 24.56C464.053 24.96 464.053 26.04 463.893 26.72C463.813 26.96 463.653 27.2 463.493 27.28C463.333 27.52 462.933 27.72 462.613 27.8C462.293 27.88 461.973 27.96 461.733 27.96C459.373 28.28 457.133 28.04 454.853 28.04H439.053C438.453 28.12 437.813 28.12 437.213 28.04C436.533 28.04 435.893 27.96 435.373 27.52C434.613 26.96 434.373 25.68 434.933 24.88C435.213 24.56 435.573 24.28 435.973 24.08C437.653 23.6 439.453 23.84 441.213 23.84H445.493C445.493 22.88 445.493 21.84 445.572 20.84C445.653 19.24 446.853 18.6 448.253 18.76C450.933 19 450.533 21.84 450.533 23.84H460.773C461.453 23.84 462.053 23.84 462.453 24C462.933 24.2 463.133 24.2 463.573 24.56ZM456.173 37.48C456.573 37.24 456.893 36.8 456.893 36.32C456.893 35.92 456.573 35.56 456.173 35.4C455.693 35.16 455.133 35 454.333 34.92C453.533 34.72 452.693 34.72 451.773 34.64H446.253C445.333 34.72 444.573 34.72 443.812 34.92C443.053 35 442.493 35.16 442.093 35.4C441.613 35.56 441.373 35.92 441.373 36.32C441.373 36.72 441.613 37 442.093 37.24C442.493 37.48 443.053 37.6 443.812 37.76C444.573 37.84 445.333 37.92 446.253 37.92C447.173 37.92 448.053 38 449.013 38H451.773C452.693 38 453.533 38 454.333 37.92C455.133 37.84 455.693 37.68 456.173 37.48ZM480.748 10.48C483.948 12.2 485.268 15.2 484.948 19.36C484.628 24.68 482.028 27.28 476.508 27.28C473.588 27.28 471.988 27.52 469.388 25.84C466.868 24.2 466.108 21.28 466.108 18.48C466.108 15.68 467.068 13.08 469.348 11.32C471.228 9.84 473.668 9.12 475.988 9.32C478.108 9.48 478.868 9.64 480.748 10.48ZM494.628 36.84C494.668 36.88 496.268 37.24 496.428 38.36C496.548 39.36 496.388 40.16 495.908 40.72C495.268 41.48 494.308 41.52 494.268 41.52H473.428C471.268 41.52 469.948 40.8 469.948 39.6V34.04C469.908 33.44 469.908 31.88 469.948 31.28C470.068 30.16 471.188 29.4 472.388 29.4C472.668 29.4 473.108 29.44 473.388 29.52C474.828 29.96 474.908 31.72 474.988 32.92C475.028 33.36 474.948 36.48 474.988 36.76C475.148 36.8 475.708 36.92 477.668 36.92C479.388 36.92 480.948 36.84 480.988 36.84H494.628ZM495.148 10.8C495.508 11.52 495.548 14.16 495.508 14.4V28.2C495.508 28.28 495.348 29.8 494.228 30.44C493.868 30.68 493.468 30.8 493.068 30.8C492.548 30.8 492.068 30.64 491.668 30.32C491.388 30.16 491.108 29.88 490.948 29.52C490.588 28.88 490.508 28.2 490.468 27.64V25.68H490.348C488.708 25.6 486.428 25.68 485.748 24.6C485.388 24.04 485.468 23.04 485.588 22.48C485.748 21.84 486.148 21.4 487.268 21.16C487.708 21.08 489.988 21 490.468 20.96V18.36C488.828 18.36 486.388 18.6 485.748 17.56C485.388 17.04 485.468 15.76 485.588 15.16C485.748 14.56 486.148 14.12 487.268 13.88C487.588 13.8 489.468 13.76 490.468 13.72C490.428 13.24 490.468 12.2 490.588 11.76C490.748 11.32 490.788 10.88 491.148 10.48C491.628 9.96 492.508 9.68 493.468 9.8C494.268 9.92 494.908 10.32 495.148 10.8ZM480.188 19.8C480.188 17.48 479.908 15.52 477.628 14.68C475.188 13.84 471.508 14.6 470.988 17.92C470.668 20.2 471.628 22.68 474.948 22.96C477.188 23.2 479.588 22.48 480.188 19.8ZM517.431 10.24C518.071 10.24 518.671 10.28 519.271 10.4C520.191 10.52 521.071 11 521.791 11.8C523.071 13.24 523.631 14.84 524.071 16.52H524.911H527.751V13.64C527.751 12.96 527.711 12.2 527.871 11.52C527.951 11.28 528.031 11.04 528.151 10.8C528.471 10.28 528.711 10 529.311 9.8C529.551 9.72 529.791 9.68 530.031 9.68C530.911 9.68 531.591 10.12 532.031 10.88C532.431 11.56 532.391 13.48 532.391 13.68C532.431 33.12 532.391 36.52 532.391 36.52C532.391 37.84 532.351 38.4 531.951 39.64C531.671 40.44 531.071 41.04 529.911 41.04C529.591 41.04 529.151 40.96 528.871 40.76C527.791 40.08 527.751 37.6 527.751 36.8V33.32L524.271 33.24C523.511 36.2 521.791 39.16 518.471 39.88C516.951 40.2 515.231 40 513.831 39.16C512.471 38.32 511.711 37 511.071 35.32C510.591 34.08 510.271 32.72 510.151 31.36C509.991 29.12 509.911 27.64 509.911 25.4C509.911 23.92 509.991 22.4 510.111 20.92C510.231 19.72 510.311 18.52 510.551 17.32C510.711 16.36 510.831 15.56 511.191 14.64C511.591 13.76 512.071 12.96 512.671 12.32C513.791 11.12 515.071 10.48 516.471 10.28C516.791 10.24 517.111 10.24 517.431 10.24ZM539.231 14.48C539.351 18.48 539.231 22.8 539.231 26.56V36.12C539.231 37.52 539.231 38.8 538.711 39.92C538.551 40.28 538.311 40.56 537.951 40.8C537.391 41.16 537.031 41.24 536.351 41.08C534.751 40.72 534.431 38.96 534.431 37.6V14.08C534.391 12.88 534.431 10.88 535.151 10.16C535.751 9.64 536.391 9.56 537.111 9.56C538.031 9.56 538.431 10.12 538.751 10.96C539.231 12.08 539.191 13.28 539.231 14.48ZM517.311 34.56C517.711 34.56 518.151 34.4 518.511 34.08C519.231 33.44 519.511 32.32 519.671 31.08C520.071 28.6 520.031 26.52 519.951 23.96C519.911 21.96 519.911 18.4 519.111 16.72C518.671 15.84 518.031 15.44 517.351 15.52C516.631 15.6 515.951 16.16 515.591 17.24C514.711 19.68 514.711 22.64 514.711 25.32C514.711 27.88 514.391 34.56 517.311 34.56ZM527.751 21.32L524.791 21.28C524.911 23.56 524.871 26.24 524.831 28.6H525.031H527.751V21.32ZM569.154 39.16C569.994 39.24 570.714 39.52 570.954 40.36C571.274 41.32 570.914 42 569.914 42.4C569.274 42.64 568.594 42.68 568.034 42.68H549.434C548.354 42.68 547.194 42.64 546.034 42.6C544.914 42.56 544.114 41.72 543.994 40.52L543.874 37.72C543.834 37.16 543.794 36.2 544.274 35.68C544.994 34.88 546.434 34.76 547.594 34.76C549.114 34.76 554.194 34.8 566.394 34.8V33.36H546.714C546.194 33.36 545.754 33.36 545.354 33.28C544.874 33.16 544.474 33.16 544.234 32.72C543.874 32.16 543.754 31.64 543.954 31C544.234 30.16 545.434 30.04 546.034 29.96C546.434 29.88 546.834 29.84 547.274 29.84C548.754 29.84 550.674 29.88 555.074 29.88C555.074 29.12 555.154 28.44 555.154 27.6C552.714 27.6 551.554 27.6 549.314 27.52C548.394 27.48 545.234 27.36 544.474 27.36C543.634 27.28 543.234 27.28 542.554 26.64C542.194 26.32 542.034 26 542.034 25.44C542.034 24.92 542.234 24.36 542.554 24.04C543.354 23.2 545.314 23.28 545.394 23.28H568.274C569.074 23.28 569.874 23.28 570.634 23.32C571.354 23.36 572.154 23.44 572.714 23.96C573.274 24.4 573.274 24.96 573.274 25.6C573.274 26.4 572.794 26.76 571.994 27.04C570.914 27.44 569.474 27.4 568.434 27.44C565.794 27.52 563.354 27.6 560.674 27.6C560.714 28.36 560.634 29.12 560.634 29.88H566.794C569.474 29.88 570.994 30.68 570.994 32.52V35.36C570.994 36.08 570.674 36.88 569.834 37.36C569.154 37.76 568.434 37.72 567.754 37.72H548.794V39.16H569.154ZM551.594 19.96C550.594 20.64 549.714 21.6 548.314 21.88C547.354 22.08 546.314 22.44 545.514 21.24C544.634 19.96 545.594 19.04 546.394 18.28C547.994 16.84 549.754 15.16 551.554 13.92C552.714 13.16 555.034 11 555.034 11C555.034 11 554.674 9.84 555.794 8.96C556.474 8.48 557.874 8.32 558.714 8.52C559.954 8.84 560.194 9.56 560.354 10.52C560.434 11.32 560.594 11.2 561.194 11.88C561.634 12.36 562.394 12.84 562.914 13.28C564.754 14.88 566.514 16.16 568.434 17.76C569.674 18.76 570.434 21 568.874 21.84C567.314 22.44 565.834 21.48 564.834 20.6C563.754 19.8 562.194 19 561.194 18.08L557.634 15.52C557.634 15.52 555.674 17.04 555.474 17.2C554.314 18.08 552.874 19.08 551.594 19.96ZM603.606 22.88L605.846 22.92C606.166 22.92 606.446 23 606.766 23.04C607.366 23.16 608.006 23.4 608.326 24C608.486 24.32 608.566 24.68 608.566 25.08C608.566 25.44 608.566 25.84 608.486 26.2C608.366 26.6 608.246 27.16 607.926 27.44C607.606 27.68 607.206 27.88 606.806 27.96C605.726 28.12 604.686 28.04 603.566 28C603.526 30.44 603.526 34.08 603.526 36.68C603.526 38.08 603.566 40.12 602.606 41.12C602.246 41.44 601.766 41.64 601.206 41.64C598.606 41.52 598.366 38.4 598.366 36.72V12.96C598.366 12.88 598.286 10.88 599.166 10C599.566 9.64 600.406 9.44 600.966 9.44C601.566 9.44 602.126 9.68 602.486 10.04C603.166 10.8 603.166 11.64 603.286 12.52C603.526 14.28 603.606 21.92 603.606 22.88ZM577.206 15.84C576.726 15.56 576.326 15.04 576.166 14.44C576.046 13.92 576.086 13.4 576.326 13C576.966 11.88 577.126 11.36 579.686 11.36H589.446C592.526 11.48 594.406 12.44 595.046 14.2C595.526 15.56 595.526 17 595.486 18.4V19.04C595.486 19.68 595.486 21.76 595.526 22.36C595.526 23.64 595.566 24.96 595.486 26.24C595.446 27.24 594.966 29.92 593.566 30.56C593.206 30.72 592.806 30.8 592.446 30.8C591.246 30.8 590.246 29.76 589.966 28.16C589.846 27.6 589.806 24.12 589.806 19.36V17.88C589.766 17.36 589.566 16.72 589.046 16.6C588.566 16.48 588.086 16.44 588.126 16.44C587.806 16.44 587.246 16.4 582.006 16.36C581.566 16.36 581.126 16.4 580.726 16.4C580.246 16.4 579.766 16.44 579.006 16.32C578.406 16.24 577.806 16.2 577.206 15.84ZM595.526 34.2C596.726 34.92 596.686 36.88 596.166 37.84C595.686 38.68 594.646 38.76 593.806 38.76H578.006C577.966 38.76 576.606 38.64 575.886 38.32C575.366 38.04 574.966 37.44 574.846 36.68C574.726 35.84 575.006 35.04 575.526 34.56C576.486 33.76 577.566 33.64 578.486 33.64C578.846 33.64 580.126 33.68 582.006 33.72L582.126 22.72C582.326 22.08 582.806 21.6 583.366 21.36C583.686 21.24 583.966 21.2 584.286 21.2C585.446 21.2 586.446 21.88 586.726 22.84C586.886 23.24 586.886 32.92 586.886 33.68V33.72C587.246 33.8 590.766 33.68 593.406 33.72C594.286 33.72 595.006 33.88 595.526 34.2ZM634.297 22.52L628.817 27.56C627.617 28.36 626.497 29.92 624.817 30.4C623.857 30.64 622.577 30.32 621.977 29.52C621.137 28.28 622.097 26.88 622.897 25.92C624.497 24.08 626.177 22.4 627.977 20.8C629.137 19.8 631.177 17.16 631.177 17.16C631.177 17.16 631.177 14.64 631.377 13.12C631.497 12.16 631.897 11.24 632.337 10.8C633.017 10.16 634.417 10 635.257 10.24C636.497 10.6 636.977 11.56 637.097 12.8C637.217 13.8 637.137 16.44 637.737 17.28C638.177 17.92 638.537 18.52 639.057 19.08C640.897 21.16 642.697 23.32 644.617 25.32C645.857 26.64 647.297 29.36 645.057 30.44C643.497 31.2 642.017 29.96 641.017 28.88L634.297 22.52ZM622.857 39.12C621.177 38.96 619.417 38.6 619.417 36.52C619.417 35.96 619.617 35.48 619.937 35.12C620.777 34.28 622.737 34.32 622.817 34.32L644.697 34.36C646.057 34.36 647.257 34.2 648.137 34.96C648.657 35.44 648.977 36.04 648.977 36.68C648.977 37.48 648.457 38.2 647.657 38.48C646.577 38.88 645.417 39.04 644.297 39.08C640.417 39.24 636.577 39.12 633.017 39.12C629.177 39.12 625.257 39.24 622.857 39.12ZM678.029 34.48C678.189 34.52 678.349 34.48 678.509 34.48C679.389 34.56 680.189 34.76 680.909 35.4C681.269 35.76 681.469 36.24 681.469 36.8C681.469 37.36 681.269 38.16 680.949 38.52C680.109 39.36 678.149 39.28 678.069 39.28H655.669C655.429 39.28 655.149 39.32 654.869 39.32C653.749 39.36 652.309 39.44 651.429 38.68C650.909 38.2 650.589 37.6 650.589 36.96C650.589 36.16 651.109 35.16 651.909 34.84C652.989 34.44 654.149 34.52 655.309 34.48H655.509C658.069 34.44 660.469 34.44 663.109 34.48L663.069 29.08V29.04C662.069 29.04 661.469 29.08 660.949 29.08C659.509 29.08 658.109 29.08 656.669 29.04C655.309 29.04 652.709 28.64 652.509 26.88C652.229 24.4 655.589 24.68 657.149 24.52C657.109 23.52 657.149 22.56 657.149 21.6V18.36C657.149 18.2 657.029 16.76 657.069 15.56C655.469 15.48 653.549 15.72 652.709 14.04C652.069 12.8 652.869 11.52 654.069 11.12C655.309 10.68 656.909 10.64 658.229 10.64C662.629 10.64 671.789 10.68 676.189 10.68C677.269 10.68 678.749 10.84 679.549 11.68C680.309 12.52 680.349 14.24 679.389 14.96C679.269 15.08 679.109 15.16 678.909 15.24C677.909 15.68 676.629 15.32 675.549 15.56C675.669 16.28 675.669 17.36 675.669 17.8V24.44C675.669 24.36 678.029 24.72 678.229 24.76C679.549 24.96 680.269 25.2 680.109 26.8C679.909 29.44 678.229 29 676.109 29.04C674.749 29.08 673.349 29.04 671.989 29.04H668.429L668.469 34.48C670.989 34.44 672.829 34.44 675.309 34.48C676.269 34.52 677.189 34.4 678.029 34.48ZM662.269 18.76C662.309 19.16 662.309 19.44 662.309 19.68V23.28C662.309 23.44 662.389 24 662.589 24.44H670.349V19.56C670.349 19.52 670.349 16.72 670.229 16C670.229 15.84 670.189 15.68 670.109 15.56H662.509C662.389 15.68 662.349 15.8 662.309 16C662.189 16.4 662.229 18 662.269 18.76ZM691.57 11.56H695.09V10.16C695.09 10.16 695.09 8.4 696.17 7.64C697.53 6.64 700.41 7.48 700.41 9.44L700.45 11.56H703.61C703.97 11.64 705.01 11.56 705.37 11.56C707.29 11.56 709.85 11.12 710.09 13.8C710.41 16.72 707.45 16.4 705.65 16.28L700.77 16.32L700.81 18.24C700.81 18.68 700.81 18.92 700.89 19.36C701.05 19.96 701.45 20.28 701.81 20.72C703.37 22.52 706.09 24.28 707.77 25.96C708.77 27 709.89 28.12 709.45 29.76C708.81 31.92 706.21 30.8 704.89 29.96C702.33 28.32 700.21 26.44 698.05 24.4C697.93 24.32 694.73 27.12 693.05 28.48C691.33 29.8 687.61 32 686.17 30.08C684.81 27.96 686.61 26.88 688.29 25.56C690.05 24.24 692.37 22.44 694.17 20.64C694.89 19.92 694.85 19.4 694.85 18.4L694.89 16.24H690.53C690.53 16.24 685.77 16.68 685.57 14.24C685.45 13.04 685.97 11.68 687.29 11.56C687.65 11.52 688.05 11.52 688.53 11.52C688.81 11.52 691.17 11.56 691.57 11.56ZM686.49 39.12C684.81 38.96 683.05 38.6 683.05 36.52C683.05 35.96 683.25 35.48 683.57 35.12C684.41 34.28 686.37 34.32 686.45 34.32L708.33 34.36C709.69 34.36 710.89 34.2 711.77 34.96C712.29 35.44 712.61 36.04 712.61 36.68C712.61 37.48 712.09 38.2 711.29 38.48C710.21 38.88 709.05 39.04 707.93 39.08C704.05 39.24 700.21 39.12 696.65 39.12C692.81 39.12 688.89 39.24 686.49 39.12Z" fill="#475783"/>
<g clip-path="url(#clip0_1901_27286)">
<mask id="path-7-inside-1_1901_27286" fill="white">
<path d="M725.992 17.8C723.844 18.7579 724.169 21.2524 723.617 22.0307C723.065 22.809 720.611 23.5973 720.385 26.2415C720.148 28.8857 721.942 28.756 722.73 29.9035C723.509 31.051 722.996 33.8648 726.377 34.4236C729.757 34.9824 729.866 32.1785 731.216 31.8792C732.566 31.5898 735.739 31.6497 737.484 29.5144C739.189 27.4189 737.671 24.9543 737.385 24.0762C737.099 23.1882 737.622 20.8633 736.143 19.6958C734.665 18.5384 733.207 19.7058 731.975 19.0672C730.743 18.4286 728.161 16.8421 726.012 17.8"/>
</mask>
<path d="M725.992 17.8C723.844 18.7579 724.169 21.2524 723.617 22.0307C723.065 22.809 720.611 23.5973 720.385 26.2415C720.148 28.8857 721.942 28.756 722.73 29.9035C723.509 31.051 722.996 33.8648 726.377 34.4236C729.757 34.9824 729.866 32.1785 731.216 31.8792C732.566 31.5898 735.739 31.6497 737.484 29.5144C739.189 27.4189 737.671 24.9543 737.385 24.0762C737.099 23.1882 737.622 20.8633 736.143 19.6958C734.665 18.5384 733.207 19.7058 731.975 19.0672C730.743 18.4286 728.161 16.8421 726.012 17.8" fill="#E4E8EB"/>
<path d="M720.385 26.2415L721.381 26.3306L721.381 26.3269L720.385 26.2415ZM722.73 29.9035L723.558 29.342L723.554 29.3372L722.73 29.9035ZM731.216 31.8792L731.006 30.9014L730.999 30.9029L731.216 31.8792ZM737.484 29.5144L738.258 30.147L738.259 30.1455L737.484 29.5144ZM737.385 24.0762L736.433 24.3826L736.434 24.3858L737.385 24.0762ZM736.143 19.6958L736.763 18.911L736.76 18.9085L736.143 19.6958ZM725.992 17.8L725.585 16.8866C724.139 17.5314 723.548 18.7103 723.249 19.6911C723.107 20.1588 723.014 20.6417 722.943 20.9563C722.905 21.128 722.873 21.2534 722.841 21.3489C722.808 21.4486 722.79 21.4687 722.801 21.4523L723.617 22.0307L724.433 22.6092C724.705 22.2249 724.821 21.7217 724.895 21.3957C724.985 20.9938 725.049 20.6472 725.163 20.2743C725.376 19.5738 725.697 19.0264 726.4 18.7133L725.992 17.8ZM723.617 22.0307L722.801 21.4523C722.804 21.4489 722.779 21.4829 722.686 21.5613C722.596 21.6365 722.481 21.7226 722.326 21.8344C722.033 22.0456 721.619 22.3333 721.219 22.6853C720.391 23.4127 719.531 24.4903 719.388 26.1561L720.385 26.2415L721.381 26.3269C721.465 25.3485 721.945 24.7099 722.539 24.1874C722.85 23.9146 723.167 23.694 723.496 23.456C723.771 23.258 724.18 22.9657 724.433 22.6092L723.617 22.0307ZM720.385 26.2415L719.389 26.1524C719.32 26.9226 719.391 27.5731 719.609 28.1311C719.83 28.6993 720.174 29.0955 720.524 29.3945C720.833 29.6585 721.226 29.9014 721.429 30.0414C721.675 30.2117 721.814 30.3354 721.906 30.4698L722.73 29.9035L723.554 29.3372C723.253 28.8979 722.871 28.6075 722.567 28.3967C722.219 28.1557 722.03 28.0506 721.822 27.8731C721.655 27.7305 721.545 27.5916 721.472 27.4046C721.395 27.2074 721.331 26.8825 721.381 26.3306L720.385 26.2415ZM722.73 29.9035L721.903 30.465C721.986 30.5875 722.065 30.8093 722.186 31.2699C722.292 31.6721 722.426 32.235 722.658 32.7773C722.898 33.3392 723.26 33.9273 723.856 34.4163C724.454 34.9063 725.227 35.2471 726.214 35.4102L726.377 34.4236L726.54 33.437C725.836 33.3207 725.406 33.1003 725.124 32.8696C724.842 32.6381 724.649 32.3462 724.497 31.9914C724.337 31.6169 724.243 31.2263 724.12 30.7606C724.013 30.3535 723.864 29.7932 723.558 29.342L722.73 29.9035ZM726.377 34.4236L726.214 35.4102C727.196 35.5726 728.018 35.5021 728.719 35.2408C729.418 34.9799 729.916 34.5586 730.292 34.1523C730.476 33.9525 730.637 33.7509 730.772 33.5776C730.915 33.3934 731.019 33.2566 731.126 33.1308C731.346 32.8731 731.426 32.8568 731.432 32.8555L731.216 31.8792L730.999 30.9029C730.33 31.0512 729.89 31.4977 729.605 31.8324C729.459 32.0028 729.314 32.1947 729.194 32.3486C729.065 32.5136 728.948 32.6596 728.823 32.7941C728.581 33.0563 728.333 33.2499 728.02 33.3669C727.707 33.4836 727.247 33.554 726.54 33.437L726.377 34.4236ZM731.216 31.8792L731.425 32.857C731.712 32.7956 732.096 32.7529 732.651 32.6792C733.175 32.6095 733.796 32.5175 734.439 32.3605C735.717 32.0485 737.189 31.4553 738.258 30.147L737.484 29.5144L736.709 28.8817C736.034 29.7087 735.047 30.1532 733.965 30.4175C733.428 30.5486 732.893 30.6294 732.388 30.6966C731.913 30.7597 731.395 30.8181 731.006 30.9014L731.216 31.8792ZM737.484 29.5144L738.259 30.1455C739.361 28.7912 739.401 27.3116 739.161 26.1384C739.042 25.5597 738.854 25.0404 738.689 24.6284C738.498 24.1543 738.395 23.9481 738.336 23.7667L737.385 24.0762L736.434 24.3858C736.518 24.6434 736.712 25.0745 736.833 25.375C736.979 25.7376 737.118 26.1301 737.201 26.5392C737.365 27.3417 737.311 28.1421 736.708 28.8832L737.484 29.5144ZM737.385 24.0762L738.337 23.7699C738.315 23.7009 738.293 23.5305 738.278 23.1417C738.265 22.8078 738.255 22.3468 738.206 21.8841C738.107 20.9633 737.824 19.749 736.763 18.911L736.143 19.6958L735.524 20.4806C735.941 20.8101 736.136 21.3419 736.217 22.0975C736.258 22.4729 736.264 22.8327 736.279 23.221C736.293 23.5543 736.313 24.0075 736.433 24.3826L737.385 24.0762ZM736.143 19.6958L736.76 18.9085C735.71 18.0866 734.647 18.1172 733.871 18.1915C733.452 18.2316 733.206 18.2708 732.933 18.2721C732.697 18.2732 732.551 18.2396 732.435 18.1794L731.975 19.0672L731.514 19.955C732.014 20.2141 732.513 20.2741 732.943 20.2721C733.336 20.2702 733.777 20.2096 734.062 20.1824C734.693 20.122 735.098 20.1476 735.527 20.4832L736.143 19.6958ZM731.975 19.0672L732.435 18.1794C731.875 17.8892 730.819 17.2754 729.654 16.8864C728.486 16.4965 727.012 16.259 725.605 16.8866L726.012 17.8L726.419 18.7133C727.16 18.383 728.051 18.4598 729.02 18.7834C729.992 19.1078 730.842 19.6066 731.514 19.955L731.975 19.0672Z" fill="#5E6F98" mask="url(#path-7-inside-1_1901_27286)"/>
<path d="M727.204 34.8623C726.928 34.8623 726.633 34.8423 726.307 34.7825C723.637 34.3334 723.173 32.5573 722.838 31.2602C722.72 30.8111 722.612 30.3821 722.424 30.1127C722.217 29.8033 721.892 29.5838 721.557 29.3643C720.798 28.8554 719.842 28.2168 720.02 26.2112C720.207 24.1357 721.636 23.108 722.592 22.4195C722.917 22.18 723.203 21.9805 723.331 21.8108C723.459 21.6312 723.538 21.2421 723.637 20.833C723.873 19.7254 724.208 18.1987 725.854 17.4603C727.963 16.5224 730.348 17.7896 731.767 18.548L732.132 18.7375C732.566 18.967 733.068 18.9072 733.64 18.8473C734.468 18.7575 735.404 18.6477 736.36 19.3961C737.533 20.3141 737.582 21.8408 737.621 22.9483C737.631 23.3574 737.651 23.7366 737.72 23.9462C737.759 24.0759 737.828 24.2455 737.917 24.4351C738.42 25.6125 739.346 27.7977 737.759 29.7335C736.271 31.5495 733.857 31.8688 732.26 32.0784C731.886 32.1283 731.55 32.1682 731.294 32.228C730.949 32.3079 730.683 32.6471 730.348 33.0862C729.757 33.8445 728.978 34.8523 727.224 34.8523L727.204 34.8623ZM726.14 18.1389C724.819 18.7276 724.553 19.9848 724.336 20.9926C724.228 21.5015 724.129 21.9405 723.912 22.2499C723.725 22.5093 723.39 22.7488 723.016 23.0282C722.129 23.6668 720.907 24.5448 720.749 26.281C720.611 27.8576 721.242 28.2767 721.961 28.7556C722.345 29.0051 722.74 29.2745 723.025 29.7036C723.282 30.0728 723.41 30.5617 723.538 31.0805C723.873 32.3677 724.228 33.7048 726.426 34.074C728.407 34.4033 729.096 33.5152 729.757 32.6571C730.151 32.1482 730.525 31.6693 731.127 31.5395C731.403 31.4797 731.757 31.4298 732.161 31.3799C733.65 31.1903 735.887 30.891 737.198 29.2945C738.499 27.6979 737.72 25.852 737.247 24.7544C737.158 24.5349 737.079 24.3453 737.03 24.2056C736.932 23.8963 736.912 23.4772 736.902 22.9982C736.863 21.9805 736.823 20.7132 735.916 20.0048C735.197 19.436 734.478 19.5158 733.719 19.6056C733.088 19.6755 732.428 19.7453 731.797 19.426L731.422 19.2265C730.121 18.528 727.933 17.3606 726.14 18.1588V18.1389Z" fill="#5E6F98"/>
<path d="M728.82 26.6002C729.175 26.5104 729.54 26.7299 729.619 27.0792C729.707 27.4384 729.49 27.7976 729.136 27.8874C728.781 27.9772 728.416 27.7577 728.327 27.4085C728.239 27.0492 728.456 26.69 728.82 26.6002Z" fill="#C8A374"/>
<path d="M727.569 25.4733C727.924 25.3835 728.289 25.603 728.368 25.9522C728.456 26.3114 728.239 26.6706 727.885 26.7604C727.53 26.8503 727.165 26.6307 727.076 26.2815C726.988 25.9223 727.205 25.5631 727.569 25.4733Z" fill="#C8A374"/>
<path d="M730.742 26.2516C731.097 26.1618 731.462 26.3813 731.54 26.7305C731.629 27.0898 731.412 27.449 731.057 27.5388C730.703 27.6286 730.338 27.4091 730.249 27.0598C730.161 26.7006 730.377 26.3414 730.742 26.2516Z" fill="#C8A374"/>
<path d="M731.314 24.7145C731.669 24.6247 732.034 24.8442 732.113 25.1934C732.201 25.5526 731.985 25.9119 731.63 26.0017C731.275 26.0915 730.91 25.8719 730.822 25.5227C730.733 25.1635 730.95 24.8043 731.314 24.7145Z" fill="#C8A374"/>
<path d="M729.451 24.6949C729.806 24.6051 730.171 24.8247 730.249 25.1739C730.338 25.5331 730.121 25.8923 729.766 25.9821C729.412 26.0719 729.047 25.8524 728.958 25.5032C728.87 25.144 729.086 24.7847 729.451 24.6949Z" fill="#C8A374"/>
<path d="M730.654 23.0182C731.009 22.9284 731.374 23.1479 731.452 23.4971C731.541 23.8564 731.324 24.2156 730.97 24.3054C730.615 24.3952 730.25 24.1757 730.161 23.8264C730.073 23.4672 730.29 23.108 730.654 23.0182Z" fill="#C8A374"/>
<path d="M728.929 22.7194C729.283 22.6296 729.648 22.8491 729.727 23.1983C729.816 23.5575 729.599 23.9167 729.244 24.0065C728.889 24.0963 728.525 23.8768 728.436 23.5276C728.347 23.1684 728.564 22.8092 728.929 22.7194Z" fill="#C8A374"/>
<path d="M727.707 23.8463C728.062 23.7565 728.426 23.976 728.505 24.3253C728.594 24.6845 728.377 25.0437 728.022 25.1335C727.668 25.2233 727.303 25.0038 727.214 24.6545C727.125 24.2953 727.342 23.9361 727.707 23.8463Z" fill="#C8A374"/>
<mask id="path-18-inside-2_1901_27286" fill="white">
<path d="M741.209 21.831C739.642 21.7212 737.966 22.5594 737.188 23.6071C736.409 24.6548 736.409 26.4608 735.818 26.9697C735.345 27.3689 734.221 27.5385 733.226 28.0973C732.083 28.7458 731.205 29.9432 730.959 31.6595C730.703 33.4755 731.777 34.8026 733.009 35.531C733.955 36.0898 734.744 36.0299 735.571 36.5188C736.389 37.0078 736.793 37.6464 737.503 38.4247C738.163 39.1531 739.238 40.0012 741.002 40.111C742.776 40.2108 743.988 39.5821 744.52 38.724C744.983 37.9757 745.338 37.1375 745.801 36.6186C746.235 36.1197 747.26 35.98 748.098 35.3614C749.152 34.5831 749.793 33.1462 749.615 31.2504C749.527 30.3523 748.945 29.3146 748.196 28.666C747.368 27.9576 745.949 27.5684 745.644 27.1693C745.328 26.7702 745.831 25.4331 744.964 24.1958C744.096 22.9585 742.677 21.9308 741.219 21.831"/>
</mask>
<path d="M741.209 21.831C739.642 21.7212 737.966 22.5594 737.188 23.6071C736.409 24.6548 736.409 26.4608 735.818 26.9697C735.345 27.3689 734.221 27.5385 733.226 28.0973C732.083 28.7458 731.205 29.9432 730.959 31.6595C730.703 33.4755 731.777 34.8026 733.009 35.531C733.955 36.0898 734.744 36.0299 735.571 36.5188C736.389 37.0078 736.793 37.6464 737.503 38.4247C738.163 39.1531 739.238 40.0012 741.002 40.111C742.776 40.2108 743.988 39.5821 744.52 38.724C744.983 37.9757 745.338 37.1375 745.801 36.6186C746.235 36.1197 747.26 35.98 748.098 35.3614C749.152 34.5831 749.793 33.1462 749.615 31.2504C749.527 30.3523 748.945 29.3146 748.196 28.666C747.368 27.9576 745.949 27.5684 745.644 27.1693C745.328 26.7702 745.831 25.4331 744.964 24.1958C744.096 22.9585 742.677 21.9308 741.219 21.831" fill="#E4E8EB"/>
<path d="M735.818 26.9697L736.463 27.7341L736.47 27.7277L735.818 26.9697ZM733.226 28.0973L732.736 27.2253L732.732 27.2275L733.226 28.0973ZM730.959 31.6595L729.969 31.5174L729.969 31.5198L730.959 31.6595ZM733.009 35.531L732.5 36.3918L732.5 36.392L733.009 35.531ZM735.571 36.5188L736.084 35.6605L736.08 35.6578L735.571 36.5188ZM737.503 38.4247L738.244 37.753L738.242 37.7509L737.503 38.4247ZM741.002 40.111L740.94 41.1091L740.946 41.1094L741.002 40.111ZM744.52 38.724L745.37 39.2511L745.37 39.2503L744.52 38.724ZM745.801 36.6186L746.547 37.2846L746.556 37.2746L745.801 36.6186ZM748.098 35.3614L747.504 34.5568L747.504 34.557L748.098 35.3614ZM749.615 31.2504L750.611 31.1572L750.611 31.1521L749.615 31.2504ZM748.196 28.666L748.851 27.91L748.846 27.9062L748.196 28.666ZM745.644 27.1693L746.438 26.5615L746.433 26.5554L746.428 26.5493L745.644 27.1693ZM741.209 21.831L741.279 20.8334C739.372 20.6999 737.368 21.6884 736.385 23.0106L737.188 23.6071L737.99 24.2035C738.565 23.4303 739.911 22.7425 741.139 22.8285L741.209 21.831ZM737.188 23.6071L736.385 23.0106C735.861 23.7161 735.627 24.6274 735.466 25.2343C735.376 25.575 735.309 25.8275 735.234 26.0295C735.152 26.25 735.113 26.2567 735.165 26.2118L735.818 26.9697L736.47 27.7277C736.818 27.4283 737.001 27.0185 737.109 26.7244C737.225 26.412 737.318 26.052 737.399 25.7467C737.581 25.0614 737.736 24.5458 737.99 24.2035L737.188 23.6071ZM735.818 26.9697L735.173 26.2054C735.173 26.205 735.159 26.2168 735.12 26.2387C735.082 26.2603 735.029 26.2864 734.957 26.3174C734.808 26.3816 734.626 26.4463 734.388 26.5295C733.939 26.6864 733.324 26.8954 732.736 27.2253L733.226 28.0973L733.715 28.9693C734.123 28.7403 734.568 28.5851 735.047 28.4177C735.273 28.3388 735.523 28.2513 735.749 28.1541C735.969 28.0591 736.233 27.9276 736.463 27.734L735.818 26.9697ZM733.226 28.0973L732.732 27.2275C731.301 28.0395 730.256 29.5171 729.969 31.5174L730.959 31.6595L731.949 31.8016C732.154 30.3694 732.864 29.4522 733.719 28.967L733.226 28.0973ZM730.959 31.6595L729.969 31.5198C729.637 33.8727 731.057 35.5386 732.5 36.3918L733.009 35.531L733.518 34.6702C732.497 34.0666 731.769 33.0783 731.949 31.7992L730.959 31.6595ZM733.009 35.531L732.5 36.392C733.096 36.7441 733.642 36.8969 734.068 37.0148C734.506 37.1363 734.781 37.2136 735.063 37.3799L735.571 36.5188L736.08 35.6578C735.534 35.3352 735.001 35.1979 734.601 35.0874C734.189 34.9733 733.868 34.8767 733.517 34.67L733.009 35.531ZM735.571 36.5188L735.058 37.3772C735.708 37.7653 735.928 38.1815 736.764 39.0984L737.503 38.4247L738.242 37.7509C737.659 37.1113 737.071 36.2503 736.084 35.6605L735.571 36.5188ZM737.503 38.4247L736.762 39.0963C737.538 39.9518 738.838 40.9783 740.94 41.1091L741.002 40.111L741.064 39.1129C739.637 39.0241 738.789 38.3543 738.244 37.753L737.503 38.4247ZM741.002 40.111L740.946 41.1094C742.958 41.2226 744.586 40.5151 745.37 39.2511L744.52 38.724L743.67 38.197C743.39 38.6492 742.593 39.1989 741.058 39.1126L741.002 40.111ZM744.52 38.724L745.37 39.2503C745.618 38.8499 745.851 38.4016 746.035 38.0711C746.237 37.7065 746.396 37.4538 746.547 37.2846L745.801 36.6186L745.055 35.9527C744.743 36.3023 744.493 36.7281 744.287 37.0995C744.061 37.5048 743.885 37.8498 743.67 38.1977L744.52 38.724ZM745.801 36.6186L746.556 37.2746C746.555 37.2755 746.587 37.2408 746.705 37.1764C746.823 37.1114 746.973 37.0462 747.186 36.9567C747.577 36.7922 748.159 36.559 748.692 36.1658L748.098 35.3614L747.504 34.557C747.198 34.7823 746.85 34.9284 746.41 35.1131C746.057 35.2616 745.446 35.5026 745.047 35.9626L745.801 36.6186ZM748.098 35.3614L748.691 36.166C750.087 35.1362 750.814 33.3228 750.611 31.1572L749.615 31.2504L748.62 31.3435C748.772 32.9697 748.218 34.0299 747.504 34.5568L748.098 35.3614ZM749.615 31.2504L750.611 31.1521C750.493 29.9622 749.763 28.7001 748.851 27.91L748.196 28.666L747.542 29.422C748.127 29.9291 748.56 30.7424 748.62 31.3487L749.615 31.2504ZM748.196 28.666L748.846 27.9062C748.315 27.4516 747.631 27.1252 747.153 26.8983C746.89 26.7733 746.692 26.681 746.536 26.5952C746.347 26.4915 746.373 26.4775 746.438 26.5615L745.644 27.1693L744.85 27.7771C745.067 28.0607 745.385 28.2449 745.574 28.3486C745.795 28.4701 746.062 28.5942 746.295 28.705C746.81 28.9496 747.249 29.172 747.546 29.4258L748.196 28.666ZM745.644 27.1693L746.428 26.5493C746.567 26.7251 746.536 26.8701 746.525 26.6567C746.521 26.5822 746.52 26.4941 746.519 26.3693C746.517 26.2518 746.516 26.1084 746.51 25.9557C746.484 25.336 746.376 24.468 745.782 23.6218L744.964 24.1958L744.145 24.7698C744.419 25.1609 744.493 25.5801 744.511 26.038C744.516 26.1547 744.517 26.2676 744.519 26.3893C744.52 26.5037 744.521 26.6376 744.528 26.7639C744.538 26.9521 744.562 27.4139 744.859 27.7893L745.644 27.1693ZM744.964 24.1958L745.782 23.6218C744.803 22.2244 743.139 20.96 741.287 20.8333L741.219 21.831L741.15 22.8286C742.215 22.9015 743.39 23.6926 744.145 24.7698L744.964 24.1958Z" fill="#5E6F98" mask="url(#path-18-inside-2_1901_27286)"/>
<path d="M741.366 40.4999C741.238 40.4999 741.11 40.4999 740.982 40.49C739.484 40.4002 738.252 39.8114 737.237 38.6939C737.05 38.4844 736.882 38.2948 736.725 38.1052C736.291 37.5863 735.946 37.1872 735.384 36.8479C735.029 36.6384 734.665 36.5386 734.28 36.4288C733.847 36.3091 733.354 36.1694 732.822 35.8601C731.186 34.8922 730.358 33.3057 730.604 31.6194C730.851 29.9031 731.718 28.5461 733.048 27.7878C733.561 27.4984 734.093 27.3088 734.566 27.1491C734.99 26.9995 735.394 26.8598 735.581 26.7001C735.788 26.5305 735.926 25.9817 736.074 25.4429C736.251 24.7544 736.458 23.9861 736.902 23.3874C737.809 22.17 739.622 21.3518 741.238 21.4716C742.707 21.5714 744.254 22.5392 745.259 23.996C745.861 24.8641 745.87 25.7821 745.88 26.3908C745.88 26.6003 745.88 26.8897 745.93 26.9596C746.018 27.0793 746.452 27.2789 746.797 27.4385C747.339 27.6979 747.96 27.9873 748.443 28.3964C749.271 29.1049 749.891 30.2424 749.98 31.2202C750.167 33.1361 749.556 34.7525 748.315 35.6705C747.881 35.9898 747.408 36.1894 746.994 36.369C746.59 36.5386 746.245 36.6883 746.077 36.8779C745.811 37.1872 745.565 37.6262 745.309 38.1052C745.161 38.3846 745.003 38.664 744.836 38.9433C744.225 39.9412 742.943 40.5099 741.376 40.5099L741.366 40.4999ZM740.943 22.19C739.652 22.19 738.193 22.8685 737.483 23.8264C737.129 24.3054 736.941 25.0038 736.774 25.6225C736.587 26.321 736.429 26.9197 736.054 27.2489C735.759 27.4984 735.315 27.6481 734.803 27.8277C734.359 27.9873 733.857 28.1569 733.403 28.4164C732.27 29.055 731.531 30.2224 731.324 31.7092C731.038 33.6948 732.536 34.8224 733.196 35.2115C733.64 35.4809 734.044 35.5907 734.478 35.7104C734.891 35.8202 735.315 35.9399 735.759 36.1994C736.419 36.5985 736.823 37.0675 737.276 37.6063C737.424 37.7859 737.592 37.9755 737.769 38.175C738.656 39.1529 739.721 39.6618 741.022 39.7416C742.49 39.8214 743.692 39.3724 744.215 38.5243C744.372 38.2648 744.53 37.9854 744.668 37.726C744.944 37.2171 745.21 36.7382 745.535 36.369C745.821 36.0497 746.255 35.8601 746.718 35.6705C747.112 35.5009 747.526 35.3313 747.891 35.0618C748.916 34.3035 749.418 32.9265 749.261 31.2801C749.182 30.4918 748.65 29.5339 747.97 28.9452C747.566 28.596 746.994 28.3266 746.491 28.0971C745.969 27.8576 745.565 27.658 745.358 27.3986C745.161 27.1491 745.161 26.8099 745.151 26.3808C745.151 25.8021 745.141 25.0837 744.668 24.4052C743.801 23.1479 742.431 22.2798 741.189 22.19C741.11 22.19 741.031 22.19 740.943 22.19Z" fill="#5E6F98"/>
<path d="M740.046 29.7836C739.947 30.1229 739.593 30.3124 739.267 30.2127C738.942 30.1129 738.755 29.7537 738.853 29.4244C738.952 29.0851 739.297 28.8955 739.632 28.9953C739.957 29.0951 740.145 29.4543 740.046 29.7836Z" fill="#C8A374"/>
<path d="M741.554 29.3041C741.455 29.6434 741.1 29.8329 740.775 29.7332C740.45 29.6334 740.263 29.2742 740.361 28.9449C740.46 28.6056 740.805 28.416 741.14 28.5158C741.465 28.6156 741.652 28.9748 741.554 29.3041Z" fill="#C8A374"/>
<path d="M739.396 31.5395C739.297 31.8787 738.942 32.0683 738.617 31.9685C738.292 31.8687 738.105 31.5095 738.203 31.1802C738.302 30.841 738.647 30.6514 738.982 30.7512C739.307 30.851 739.494 31.2102 739.396 31.5395Z" fill="#C8A374"/>
<path d="M740.352 32.7572C740.253 33.0965 739.898 33.2861 739.573 33.1863C739.248 33.0865 739.061 32.7273 739.159 32.398C739.258 32.0588 739.603 31.8692 739.938 31.969C740.263 32.0687 740.45 32.4279 740.352 32.7572Z" fill="#C8A374"/>
<path d="M741.268 31.2299C741.169 31.5691 740.814 31.7587 740.489 31.6589C740.164 31.5592 739.977 31.2 740.075 30.8707C740.174 30.5314 740.519 30.3418 740.854 30.4416C741.179 30.5414 741.366 30.9006 741.268 31.2299Z" fill="#C8A374"/>
<path d="M742.037 33.0268C741.939 33.366 741.584 33.5556 741.259 33.4558C740.933 33.356 740.746 32.9968 740.845 32.6675C740.943 32.3283 741.288 32.1387 741.623 32.2385C741.948 32.3383 742.136 32.6975 742.037 33.0268Z" fill="#C8A374"/>
<path d="M743.111 31.7592C743.013 32.0984 742.658 32.288 742.333 32.1882C742.008 32.0885 741.82 31.7292 741.919 31.4C742.017 31.0607 742.362 30.8711 742.697 30.9709C743.023 31.0707 743.21 31.4299 743.111 31.7592Z" fill="#C8A374"/>
<path d="M742.796 30.2123C742.697 30.5516 742.343 30.7412 742.017 30.6414C741.692 30.5416 741.505 30.1824 741.603 29.8531C741.702 29.5138 742.047 29.3242 742.382 29.424C742.707 29.5238 742.895 29.883 742.796 30.2123Z" fill="#C8A374"/>
<mask id="path-29-inside-3_1901_27286" fill="white">
<path d="M742.904 9.26849C741.594 8.62989 739.869 8.7596 738.834 9.37825C737.799 10.0069 737.188 11.5635 736.498 11.793C735.956 11.9726 734.921 11.7231 733.877 11.8528C732.664 12.0025 731.502 12.7309 730.703 14.1179C729.856 15.5847 730.329 17.1014 731.137 18.169C731.758 18.9872 732.458 19.2068 733 19.9152C733.542 20.6237 733.66 21.3121 734.005 22.2401C734.32 23.0982 734.951 24.2058 736.439 24.9242C737.927 25.6327 739.199 25.5229 739.948 24.9642C740.598 24.4852 741.199 23.8865 741.771 23.5971C742.313 23.3277 743.239 23.5572 744.176 23.3277C745.348 23.0284 746.393 22.0206 746.886 20.3243C747.122 19.5161 746.975 18.4185 746.551 17.6102C746.078 16.7022 744.994 15.884 744.866 15.425C744.737 14.966 745.624 13.9981 745.309 12.6212C744.994 11.2442 744.117 9.86718 742.894 9.26849"/>
</mask>
<path d="M742.904 9.26849C741.594 8.62989 739.869 8.7596 738.834 9.37825C737.799 10.0069 737.188 11.5635 736.498 11.793C735.956 11.9726 734.921 11.7231 733.877 11.8528C732.664 12.0025 731.502 12.7309 730.703 14.1179C729.856 15.5847 730.329 17.1014 731.137 18.169C731.758 18.9872 732.458 19.2068 733 19.9152C733.542 20.6237 733.66 21.3121 734.005 22.2401C734.32 23.0982 734.951 24.2058 736.439 24.9242C737.927 25.6327 739.199 25.5229 739.948 24.9642C740.598 24.4852 741.199 23.8865 741.771 23.5971C742.313 23.3277 743.239 23.5572 744.176 23.3277C745.348 23.0284 746.393 22.0206 746.886 20.3243C747.122 19.5161 746.975 18.4185 746.551 17.6102C746.078 16.7022 744.994 15.884 744.866 15.425C744.737 14.966 745.624 13.9981 745.309 12.6212C744.994 11.2442 744.117 9.86718 742.894 9.26849" fill="#E4E8EB"/>
<path d="M738.834 9.37825L738.321 8.51992L738.315 8.52359L738.834 9.37825ZM736.498 11.793L736.813 12.7422L736.814 12.7418L736.498 11.793ZM733.877 11.8528L733.999 12.8453L734 12.8452L733.877 11.8528ZM730.703 14.1179L731.569 14.6182L731.57 14.6167L730.703 14.1179ZM731.137 18.169L730.34 18.7726L730.34 18.7735L731.137 18.169ZM734.005 22.2401L734.943 21.8952L734.942 21.8917L734.005 22.2401ZM736.439 24.9242L736.004 25.8248L736.009 25.8272L736.439 24.9242ZM739.948 24.9642L739.355 24.1589L739.35 24.1626L739.948 24.9642ZM741.771 23.5971L741.326 22.7016L741.319 22.705L741.771 23.5971ZM744.176 23.3277L744.414 24.299L744.423 24.2967L744.176 23.3277ZM746.886 20.3243L745.926 20.0434L745.926 20.0453L746.886 20.3243ZM746.551 17.6102L745.664 18.0723L745.665 18.0746L746.551 17.6102ZM742.904 9.26849L743.342 8.36951C741.73 7.58396 739.647 7.72691 738.321 8.51994L738.834 9.37825L739.347 10.2366C740.09 9.7923 741.457 9.67582 742.466 10.1675L742.904 9.26849ZM738.834 9.37825L738.315 8.52359C737.601 8.95744 737.077 9.67609 736.734 10.1394C736.538 10.4025 736.398 10.5922 736.268 10.7356C736.125 10.893 736.101 10.8711 736.183 10.8441L736.498 11.793L736.814 12.7418C737.24 12.6001 737.551 12.2975 737.75 12.0789C737.961 11.8463 738.167 11.5645 738.34 11.3312C738.733 10.8017 739.033 10.4277 739.353 10.2329L738.834 9.37825ZM736.498 11.793L736.184 10.8437C736.189 10.8419 736.14 10.8569 735.986 10.8601C735.839 10.8631 735.662 10.8551 735.428 10.843C734.988 10.8202 734.378 10.7829 733.753 10.8605L733.877 11.8528L734 12.8452C734.42 12.7931 734.85 12.8157 735.324 12.8403C735.546 12.8518 735.796 12.8644 736.027 12.8596C736.253 12.855 736.536 12.8338 736.813 12.7422L736.498 11.793ZM733.877 11.8528L733.754 10.8604C732.203 11.0519 730.778 11.9841 729.837 13.619L730.703 14.1179L731.57 14.6167C732.226 13.4777 733.126 12.9532 733.999 12.8453L733.877 11.8528ZM730.703 14.1179L729.837 13.6176C728.715 15.5599 729.392 17.5204 730.34 18.7726L731.137 18.169L731.934 17.5655C731.266 16.6823 730.996 15.6095 731.569 14.6182L730.703 14.1179ZM731.137 18.169L730.34 18.7735C730.738 19.2974 731.162 19.6254 731.489 19.8767C731.827 20.136 732.028 20.2912 732.205 20.5229L733 19.9152L733.794 19.3075C733.429 18.8308 733.009 18.522 732.706 18.2898C732.393 18.0497 732.157 17.8588 731.933 17.5645L731.137 18.169ZM733 19.9152L732.205 20.5229C732.397 20.7728 732.52 21.0244 732.639 21.3447C732.701 21.5116 732.759 21.6871 732.829 21.8986C732.897 22.1045 732.974 22.3374 733.067 22.5885L734.005 22.2401L734.942 21.8917C734.863 21.6789 734.796 21.4777 734.728 21.2714C734.662 21.0706 734.591 20.8558 734.513 20.646C734.352 20.2129 734.145 19.7661 733.794 19.3075L733 19.9152ZM734.005 22.2401L733.066 22.5851C733.441 23.6047 734.214 24.9606 736.004 25.8248L736.439 24.9242L736.874 24.0237C735.688 23.4511 735.199 22.5917 734.943 21.8952L734.005 22.2401ZM736.439 24.9242L736.009 25.8272C737.707 26.6352 739.402 26.6187 740.546 25.7657L739.948 24.9642L739.35 24.1626C738.995 24.4272 738.148 24.6302 736.869 24.0213L736.439 24.9242ZM739.948 24.9642L740.541 25.7694C740.891 25.5117 741.247 25.2065 741.519 24.9863C741.82 24.7423 742.041 24.5814 742.223 24.4893L741.771 23.5971L741.319 22.705C740.929 22.9023 740.564 23.1854 740.259 23.4328C739.924 23.7041 739.655 23.9376 739.355 24.1589L739.948 24.9642ZM741.771 23.5971L742.216 24.4926C742.205 24.4983 742.235 24.4809 742.355 24.4674C742.476 24.4539 742.624 24.45 742.837 24.4474C743.228 24.4427 743.814 24.4461 744.414 24.299L744.176 23.3277L743.938 22.3565C743.601 22.4389 743.256 22.4422 742.813 22.4475C742.463 22.4517 741.842 22.445 741.326 22.7017L741.771 23.5971ZM744.176 23.3277L744.423 24.2967C746.009 23.8918 747.277 22.5636 747.846 20.6033L746.886 20.3243L745.926 20.0453C745.51 21.4776 744.688 22.165 743.928 22.3588L744.176 23.3277ZM746.886 20.3243L747.846 20.6052C748.165 19.5124 747.962 18.1481 747.436 17.1459L746.551 17.6102L745.665 18.0746C745.987 18.6888 746.079 19.5197 745.926 20.0434L746.886 20.3243ZM746.551 17.6102L747.438 17.1482C747.13 16.5575 746.647 16.0322 746.314 15.6714C746.13 15.4715 745.994 15.3258 745.891 15.1996C745.766 15.0465 745.799 15.0507 745.829 15.1562L744.866 15.425L743.902 15.6939C743.996 16.0288 744.213 16.3074 744.342 16.4652C744.493 16.65 744.682 16.8516 744.844 17.0271C745.203 17.4172 745.499 17.755 745.664 18.0723L746.551 17.6102ZM744.866 15.425L745.829 15.1562C745.889 15.3705 745.808 15.4958 745.872 15.3093C745.894 15.245 745.923 15.17 745.965 15.0616C746.004 14.9599 746.053 14.835 746.101 14.7C746.294 14.1503 746.502 13.3527 746.284 12.3979L745.309 12.6212L744.334 12.8444C744.431 13.2666 744.353 13.6414 744.214 14.0347C744.179 14.1354 744.141 14.2319 744.101 14.3369C744.062 14.4351 744.017 14.5521 743.979 14.6645C743.922 14.8316 743.778 15.2501 743.902 15.6939L744.866 15.425ZM745.309 12.6212L746.284 12.3979C745.923 10.8222 744.904 9.13964 743.334 8.37046L742.894 9.26849L742.455 10.1665C743.329 10.5947 744.064 11.6662 744.334 12.8444L745.309 12.6212Z" fill="#5E6F98" mask="url(#path-29-inside-3_1901_27286)"/>
<path d="M738.338 25.7709C737.677 25.7709 736.948 25.5913 736.209 25.2421C734.947 24.6334 734.1 23.6954 733.607 22.3783C733.518 22.1388 733.439 21.9093 733.37 21.6898C733.173 21.0911 733.016 20.6222 732.651 20.1432C732.414 19.8339 732.139 19.6243 731.843 19.3948C731.508 19.1354 731.133 18.8461 730.788 18.3871C729.714 16.9801 729.547 15.3238 730.335 13.9567C731.133 12.5698 732.355 11.7017 733.755 11.5221C734.297 11.4522 734.819 11.4822 735.282 11.5021C735.706 11.5221 736.1 11.542 736.317 11.4722C736.554 11.3924 736.869 10.9733 737.165 10.5642C737.559 10.0353 738.002 9.44661 738.584 9.0874C739.786 8.35899 741.629 8.29912 742.97 8.95768C744.202 9.56635 745.197 10.9334 745.562 12.5398C745.778 13.4978 745.473 14.286 745.276 14.8149C745.207 14.9945 745.108 15.2539 745.118 15.3238C745.158 15.4535 745.453 15.7828 745.7 16.0422C746.084 16.4513 746.518 16.9203 746.784 17.4491C747.247 18.3471 747.395 19.5445 747.139 20.4226C746.636 22.1289 745.562 23.3163 744.182 23.6655C743.699 23.7852 743.226 23.7952 742.802 23.7952C742.398 23.7952 742.053 23.7952 741.836 23.915C741.501 24.0846 741.137 24.3839 740.752 24.7032C740.525 24.8928 740.299 25.0824 740.062 25.252C739.589 25.6013 739.008 25.7709 738.347 25.7709H738.338ZM734.504 12.1607C734.287 12.1607 734.06 12.1607 733.834 12.2006C732.641 12.3503 731.596 13.0986 730.907 14.306C729.98 15.9125 730.887 17.4092 731.311 17.9779C731.606 18.3671 731.912 18.6066 732.237 18.856C732.552 19.0955 732.878 19.3549 733.163 19.7241C733.597 20.2929 733.775 20.8417 733.991 21.4703C734.06 21.6799 734.129 21.8994 734.218 22.1388C734.652 23.2863 735.391 24.1045 736.485 24.6334C737.727 25.2221 738.909 25.252 739.648 24.7132C739.875 24.5436 740.102 24.364 740.309 24.1844C740.723 23.8451 741.117 23.5158 741.521 23.3163C741.876 23.1367 742.309 23.1367 742.773 23.1267C743.167 23.1267 743.581 23.1267 743.995 23.0169C745.138 22.7276 746.045 21.7198 746.468 20.243C746.675 19.5345 746.547 18.5267 746.163 17.7784C745.936 17.3393 745.532 16.9003 745.177 16.5211C744.813 16.132 744.527 15.8227 744.448 15.5333C744.369 15.2539 744.478 14.9546 744.625 14.5854C744.822 14.0865 745.059 13.4678 744.882 12.7095C744.566 11.3225 743.689 10.0952 742.654 9.58631C741.363 8.95768 739.767 9.16722 738.909 9.68609C738.436 9.97546 738.042 10.5143 737.687 10.9833C737.293 11.5221 736.948 11.9811 736.504 12.1307C736.169 12.2405 735.736 12.2205 735.233 12.1906C734.997 12.1806 734.75 12.1707 734.494 12.1707L734.504 12.1607Z" fill="#5E6F98"/>
<path d="M739.179 15.7044C738.972 15.9638 738.607 16.0037 738.361 15.8042C738.114 15.6046 738.075 15.2354 738.282 14.976C738.489 14.7166 738.854 14.6766 739.1 14.8762C739.346 15.0758 739.386 15.445 739.179 15.7044Z" fill="#C8A374"/>
<path d="M740.638 15.8136C740.431 16.0731 740.066 16.113 739.82 15.9134C739.573 15.7139 739.534 15.3447 739.741 15.0852C739.948 14.8358 740.313 14.7859 740.559 14.9954C740.805 15.195 740.845 15.5642 740.638 15.8236" fill="#C8A374"/>
<path d="M738.016 16.971C737.809 17.2304 737.444 17.2703 737.198 17.0708C736.951 16.8712 736.912 16.502 737.119 16.2426C737.326 15.9832 737.69 15.9432 737.937 16.1428C738.183 16.3424 738.223 16.7116 738.016 16.971Z" fill="#C8A374"/>
<path d="M738.41 18.3587C738.203 18.6081 737.839 18.658 737.592 18.4585C737.346 18.2589 737.306 17.8897 737.513 17.6303C737.72 17.3709 738.085 17.3309 738.331 17.5305C738.578 17.7301 738.617 18.0993 738.41 18.3587Z" fill="#C8A374"/>
<path d="M739.731 17.3704C739.524 17.6298 739.159 17.6698 738.913 17.4702C738.666 17.2706 738.627 16.9014 738.834 16.642C739.041 16.3826 739.405 16.3427 739.652 16.5422C739.898 16.7418 739.937 17.111 739.731 17.3704Z" fill="#C8A374"/>
<path d="M739.77 19.1869C739.563 19.4463 739.198 19.4862 738.952 19.2867C738.705 19.0871 738.666 18.7179 738.873 18.4585C739.08 18.1991 739.444 18.1592 739.691 18.3687C739.937 18.5683 739.977 18.9374 739.77 19.1969" fill="#C8A374"/>
<path d="M741.13 18.4682C740.923 18.7276 740.558 18.7675 740.312 18.5679C740.066 18.3684 740.026 17.9992 740.233 17.7397C740.44 17.4803 740.805 17.4404 741.051 17.6499C741.297 17.8495 741.337 18.2187 741.13 18.4781" fill="#C8A374"/>
<path d="M741.397 17.0316C741.19 17.2911 740.825 17.331 740.579 17.1314C740.332 16.9318 740.293 16.5627 740.5 16.3032C740.707 16.0438 741.071 16.0039 741.318 16.2134C741.564 16.413 741.603 16.7822 741.397 17.0416" fill="#C8A374"/>
</g>
<defs>
<clipPath id="clip0_1901_27286">
<rect width="30" height="32" fill="white" transform="translate(720 8.5)"/>
</clipPath>
</defs>
</svg>
