<svg width="30" height="30" viewBox="0 0 30 30" fill="none" xmlns="http://www.w3.org/2000/svg">
<circle cx="15" cy="15" r="15" fill="white"/>
<path d="M21.4807 8.51907C21.1553 8.19358 20.6277 8.1935 20.3022 8.51889C19.9767 8.84428 19.9766 9.37192 20.302 9.6974C21.708 11.1039 22.4979 13.0112 22.4979 14.9999C22.4979 16.9886 21.708 18.8959 20.302 20.3024C19.9766 20.6279 19.9767 21.1555 20.3022 21.4809C20.6277 21.8063 21.1553 21.8062 21.4807 21.4807C23.1992 19.7617 24.1646 17.4306 24.1646 14.9999C24.1646 12.5692 23.1992 10.2381 21.4807 8.51907Z" fill="#5F9EE9"/>
<path d="M14.9997 9.16657C14.9997 8.84623 14.8161 8.55425 14.5273 8.41548C14.2386 8.27672 13.8959 8.31573 13.6458 8.51585L9.70736 11.6666H6.66634C6.2061 11.6666 5.83301 12.0397 5.83301 12.4999V17.4999C5.83301 17.9601 6.2061 18.3332 6.66634 18.3332H9.70736L13.6458 21.484C13.8959 21.6841 14.2386 21.7231 14.5273 21.5843C14.8161 21.4456 14.9997 21.1536 14.9997 20.8332V9.16657Z" fill="#5F9EE9"/>
<path d="M18.539 11.4607C18.2136 11.1352 17.686 11.1352 17.3605 11.4606C17.035 11.7859 17.0349 12.3136 17.3603 12.6391C17.9852 13.2642 18.3363 14.1119 18.3363 14.9957C18.3363 15.8796 17.9852 16.7273 17.3603 17.3524C17.0349 17.6779 17.035 18.2055 17.3605 18.5309C17.686 18.8563 18.2136 18.8562 18.539 18.5307C19.4764 17.5931 20.003 16.3216 20.003 14.9957C20.003 13.6699 19.4764 12.3984 18.539 11.4607Z" fill="#5F9EE9"/>
<path d="M8 8L22 22" stroke="white" stroke-width="4" stroke-linecap="round"/>
<path d="M7 7L23 23" stroke="#5F9EE9" stroke-width="2" stroke-linecap="round"/>
</svg>
