<svg width="178" height="50" viewBox="0 0 178 50" fill="none" xmlns="http://www.w3.org/2000/svg">
<rect width="178" height="50" rx="25" fill="#618366"/>
<path d="M43.816 17.048C43.784 17.016 43.784 20.152 43.816 20.312C44.04 20.504 44.712 21.144 45.096 21.464C45.512 21.816 45.96 22.232 46.44 22.68C46.728 22.968 46.984 23.256 47.208 23.48C48.008 24.28 48.968 25.272 49.256 26.232C49.384 26.616 49.32 27.16 48.872 27.48C48.552 27.672 48.168 27.8 47.72 27.8C46.792 27.8 45.864 27.32 45.352 26.936C44.552 26.328 43.88 25.656 43.208 24.984C42.728 24.504 42.12 23.8 41.512 23.352L40.648 24.216C40.36 24.504 40.04 24.792 39.784 25.08C39.24 25.688 38.664 26.328 37.896 26.872C37.032 27.512 36.2 27.832 35.432 27.832C35.24 27.832 35.08 27.832 34.888 27.768C34.44 27.672 34.12 27.48 33.96 27.192C33.672 26.712 33.832 26.04 34.088 25.592C34.408 25.112 34.888 24.664 35.304 24.216C36.072 23.384 38.984 20.664 39.336 20.312V17.048H37.288C36.232 17.048 34.408 17.304 33.864 16.056C33.672 15.576 33.576 14.936 33.704 14.424C33.864 13.816 34.6 13.624 35.144 13.56C35.336 13.528 37.992 13.592 38.28 13.528H45.768C47.464 13.528 48.648 13.656 49.352 14.488C49.768 15 49.64 16.376 48.968 16.696C48.648 16.824 48.104 17.016 47.752 17.048C47.144 17.08 46.536 17.048 45.928 17.048H43.816ZM55.752 35.16C55.784 35.192 57.064 35.48 57.192 36.376C57.288 37.176 57.16 37.816 56.776 38.264C56.264 38.872 55.496 38.904 55.464 38.904H39.432C37.704 38.904 36.648 38.328 36.648 37.368V32.92C36.616 32.44 36.616 31.192 36.648 30.712C36.744 29.816 37.64 29.208 38.6 29.208C38.824 29.208 39.176 29.24 39.4 29.304C40.552 29.656 40.616 31.064 40.68 32.024C40.712 32.376 40.648 34.872 40.68 35.096C40.808 35.128 41.256 35.224 42.824 35.224C44.2 35.224 45.448 35.16 45.48 35.16H55.752ZM52.84 22.776H51.432C50.184 22.712 49.16 22.808 48.616 21.976C48.36 21.56 48.392 20.792 48.488 20.344C48.616 19.864 48.904 19.544 49.736 19.352C50.088 19.288 52.488 19.224 52.84 19.192V15.8C52.808 15.352 52.808 14.84 52.936 14.392C53.032 14.072 53.064 13.752 53.352 13.432C53.704 13.016 54.376 12.824 55.08 12.92C55.72 13.016 56.2 13.304 56.392 13.72C56.648 14.232 56.68 15.192 56.68 15.352V28.344H56.648C56.648 28.408 56.52 29.56 55.688 30.072C55.4 30.232 55.112 30.328 54.792 30.328C54.408 30.328 54.056 30.2 53.736 29.976C53.512 29.816 53.32 29.624 53.192 29.336C52.936 28.888 52.872 28.376 52.84 27.928V22.776ZM80.036 25.88C80.74 25.912 81.54 26.04 82.148 26.52C82.436 26.744 82.596 27.128 82.596 27.512C82.596 27.928 82.436 28.536 82.18 28.76C81.508 29.4 79.844 29.336 79.78 29.336L62.724 29.368C61.764 29.4 60.58 29.464 59.876 28.888C59.396 28.536 59.14 28.12 59.14 27.64C59.14 27.064 59.588 26.328 60.26 26.104C61.156 25.816 62.116 25.912 63.076 25.88C65.156 25.816 65.828 25.88 67.972 25.88V24.28H65.924H65.38C64.068 24.28 62.212 24.216 61.348 23.384C60.516 22.68 60.612 20.696 60.644 20.6V14.744C60.644 14.648 60.612 13.656 60.9 13.304C61.252 12.856 61.54 12.664 62.148 12.6C62.5 12.536 63.236 12.536 63.236 12.536H77.444C77.828 12.536 78.18 12.536 78.564 12.632C78.948 12.696 79.3 12.76 79.588 13.048C79.844 13.24 79.972 13.528 80.036 13.784C80.1 14.04 80.132 14.264 80.068 14.52C79.972 15.192 79.364 15.704 78.468 15.704H64.804V16.952C66.084 16.984 73.092 16.952 73.124 16.952H76.068C76.228 16.952 76.452 16.984 76.676 16.952H77.508C77.924 16.952 78.436 16.984 78.82 17.208C79.428 17.464 79.556 18.104 79.492 18.584C79.46 18.84 79.46 19.128 79.268 19.32C78.82 19.832 78.308 19.896 77.764 19.896H64.772L64.804 20.696C64.772 21.144 64.868 20.856 64.996 20.888C65.252 21.016 65.988 21.08 66.724 21.08H66.884C67.556 21.048 74.18 21.048 74.852 21.08H76.356C76.516 21.08 76.612 21.08 76.772 21.048H77.316C77.956 21.048 78.628 21.048 79.268 21.208C79.364 21.208 79.492 21.272 79.588 21.304C80.644 21.912 80.516 23.352 79.364 23.832C78.5 24.216 77.444 24.28 76.58 24.28H75.268C74.916 24.312 73.636 24.312 72.484 24.312C72.516 24.824 72.516 25.4 72.516 25.88C74.884 25.88 78.212 25.784 80.036 25.88ZM60.164 34.488C60.164 30.872 64.868 30.328 70.628 30.328C76.42 30.328 81.124 30.456 81.124 34.488C81.124 38.456 76.42 38.648 70.628 38.648C64.868 38.648 60.164 38.456 60.164 34.488ZM76.9 34.488C76.9 33.112 73.572 33.176 70.628 33.176C67.716 33.176 64.58 33.112 64.58 34.488C64.58 35.704 67.716 35.8 70.628 35.8C73.572 35.8 76.9 36.088 76.9 34.488ZM94.674 33.912C94.674 30.04 99.474 28.984 105.362 28.984C111.25 28.984 116.05 29.592 116.05 33.912C116.05 38.168 111.25 38.84 105.362 38.84C99.474 38.84 94.674 38.168 94.674 33.912ZM105.426 21.944C105.426 23.704 104.594 25.368 103.186 26.424C101.298 27.864 98.77 27.96 96.69 27.128C94.61 26.264 93.01 24.408 93.01 21.944C93.01 20.536 93.426 19.352 94.13 18.456H93.874C92.882 18.456 92.082 17.752 92.082 16.824C92.082 15.896 92.882 15.16 93.874 15.16H97.33V14.104C97.33 13.304 98.13 12.696 99.09 12.696C100.082 12.696 100.882 13.304 100.882 14.104V15.16H104.53C105.49 15.16 106.322 15.896 106.322 16.824C106.322 17.752 105.49 18.456 104.53 18.456H104.274C104.978 19.352 105.426 20.536 105.426 21.944ZM115.794 15.608V26.328C115.794 26.392 115.762 27.544 114.898 28.056C114.642 28.216 114.45 28.28 114.162 28.28C113.778 28.28 113.394 28.184 113.106 27.96C112.882 27.8 112.69 27.576 112.562 27.32C111.922 26.136 112.146 24.6 112.178 23.288V22.84C111.73 22.872 111.25 22.904 110.834 22.904H110.738V25.816C110.706 26.264 110.642 26.776 110.386 27.256C110.258 27.512 110.066 27.736 109.842 27.864C109.554 28.088 109.394 28.216 109.01 28.216C108.69 28.216 108.402 28.12 108.114 27.96C107.282 27.448 107.154 26.296 107.154 26.264V15.704C107.122 15.512 107.154 14.552 107.41 14.04C107.602 13.624 108.114 13.336 108.722 13.272C109.426 13.176 109.874 13.368 110.226 13.752C110.514 14.072 110.546 14.392 110.642 14.744C110.77 15.16 110.77 15.672 110.77 16.12C110.738 16.248 110.738 16.376 110.738 16.504V19.32C110.93 19.352 111.602 19.384 112.21 19.416V16.408V16.024C112.178 15.576 112.178 15.096 112.306 14.648C112.402 14.328 112.594 14.008 112.882 13.688C113.202 13.272 113.682 13.08 114.386 13.176C114.994 13.272 115.346 13.592 115.538 14.008C115.794 14.52 115.826 15.448 115.794 15.608ZM111.73 33.912C111.73 32.44 108.338 32.312 105.362 32.312C102.386 32.312 99.186 32.44 99.186 33.912C99.186 35.224 102.386 35.48 105.362 35.48C108.338 35.48 111.73 35.64 111.73 33.912ZM99.73 24.248C100.914 23.992 101.746 23.384 101.746 21.944C101.746 20.28 100.498 19.384 99.25 19.352C97.97 19.32 96.69 20.184 96.69 21.944C96.69 23.96 98.194 24.536 99.73 24.248ZM132.725 33.688C132.853 33.912 132.981 34.136 133.045 34.424C133.173 34.872 133.269 35.448 132.981 36.056C132.661 36.696 132.149 37.08 131.573 37.112H131.541C130.773 37.112 130.261 36.504 129.621 35.8C128.981 35.128 128.405 34.328 127.989 33.784C127.957 33.688 127.861 33.592 127.797 33.432C126.741 31.8 126.26 31.32 126.165 31.288C126.069 31.352 125.621 31.864 125.557 31.96C125.461 32.088 125.365 32.184 125.301 32.28C124.917 32.696 124.757 33.176 124.405 33.624C124.053 34.072 123.701 34.52 123.317 34.936C123.221 35.032 123.125 35.16 123.061 35.256C122.421 35.96 121.749 36.76 120.821 37.08C120.597 37.176 120.405 37.208 120.181 37.208C119.701 37.208 119.221 36.984 118.868 36.632C118.517 36.28 118.325 35.8 118.325 35.288C118.357 34.52 118.805 33.816 119.157 33.24L119.221 33.112C119.349 32.92 119.477 32.728 119.605 32.568C119.669 32.44 119.765 32.344 119.829 32.248C120.053 31.896 120.277 31.576 120.501 31.32C120.565 31.256 120.597 31.16 120.661 31.096C120.693 31.032 120.725 30.968 120.789 30.936L120.853 30.84C121.013 30.616 121.141 30.424 121.269 30.232C121.557 29.784 121.781 29.368 122.005 28.984C122.261 28.504 122.516 28.056 122.837 27.64C123.061 27.32 123.285 26.968 123.509 26.616L123.637 26.424C123.925 25.944 124.085 25.624 124.117 25.176C124.181 24.504 124.181 23.864 124.181 23.096V17.208C124.181 16.792 124.181 16.408 124.213 15.992C124.213 15.544 124.309 15.032 124.437 14.648C124.533 14.392 124.693 14.072 124.853 13.816C125.077 13.496 125.525 13.336 125.973 13.24L126.036 13.208C126.389 13.112 126.837 13.144 127.189 13.272C127.349 13.336 127.541 13.432 127.669 13.56C127.861 13.72 127.989 14.04 128.117 14.392C128.309 14.808 128.437 15.352 128.501 15.96C128.661 17.752 128.693 20.44 128.693 22.232C128.725 23.32 128.725 24.44 128.789 25.496C128.821 26.424 129.333 27.224 129.781 28.024C130.261 28.952 130.677 29.88 131.221 30.776C131.445 31.192 131.669 31.608 131.925 32.024C132.021 32.216 132.117 32.408 132.213 32.568C132.309 32.792 132.437 33.016 132.533 33.24L132.629 33.496L132.725 33.688ZM141.205 22.904H141.269C141.461 22.904 141.653 22.968 141.877 22.968C142.101 23 142.357 23.032 142.613 23.064C143.093 23.16 143.605 23.352 143.829 23.832C143.989 24.088 144.053 24.376 144.053 24.664C144.053 24.984 144.053 25.272 143.957 25.592C143.893 25.912 143.797 26.36 143.509 26.584C143.253 26.776 142.965 26.936 142.645 27C141.973 27.096 140.821 27 140.149 27.032C140.085 27.032 140.053 27.064 140.053 27.064C140.053 27.064 140.021 27.064 140.021 27.192C139.989 28.248 140.021 30.136 140.021 31.224C140.053 32.312 140.053 33.432 140.021 34.488V34.936C140.021 36.056 140.021 37.688 139.253 38.456C138.997 38.744 138.645 38.904 138.229 38.904C138.229 38.904 138.197 38.872 138.165 38.872C136.085 38.808 135.861 36.312 135.861 34.968V15.96C135.861 15.896 135.829 14.296 136.533 13.592C136.821 13.304 137.493 13.144 137.973 13.144C138.453 13.144 138.869 13.336 139.157 13.624C139.733 14.232 139.765 14.904 139.829 15.608C139.861 15.736 139.861 15.864 139.861 15.992C139.957 16.696 139.957 17.496 139.989 18.264C139.989 18.744 140.021 19.16 140.021 19.64C139.989 19.896 140.021 20.12 140.021 20.344V22.136C140.021 22.36 140.021 22.616 140.085 22.84C140.085 22.872 140.725 22.872 140.757 22.872C140.917 22.904 141.045 22.936 141.205 22.904Z" fill="white"/>
</svg>
