<svg width="178" height="50" viewBox="0 0 178 50" fill="none" xmlns="http://www.w3.org/2000/svg">
<rect width="178" height="50" rx="25" fill="#4D598E"/>
<path d="M35.648 21.72C35.648 22.68 35.424 23.608 34.976 24.568C34.56 25.4 33.952 26.168 33.088 26.776C32.576 27.192 32 27.448 31.392 27.704C30.816 27.864 30.144 28.024 29.504 28.024C28.832 28.12 28.16 28.12 27.584 28.024C26.88 27.864 26.272 27.704 25.696 27.448C25.088 27.288 24.576 26.936 24.064 26.616C23.552 26.168 23.04 25.752 22.688 25.24C22.368 24.792 22.016 24.216 21.856 23.608C21.6 23.032 21.504 22.392 21.504 21.72C21.504 20.792 21.6 20.024 21.856 19.448C22.112 18.744 22.464 18.136 22.976 17.624H22.368C21.856 17.624 21.44 17.464 20.992 17.112C20.64 16.792 20.48 16.376 20.48 15.928C20.48 15.416 20.64 15.064 20.992 14.744C21.44 14.392 21.856 14.232 22.368 14.232H26.56V13.208C26.56 12.76 26.72 12.408 27.072 12.184C27.392 11.832 27.808 11.736 28.32 11.736C28.832 11.736 29.28 11.832 29.696 12.184C30.016 12.408 30.208 12.76 30.208 13.208V14.232H34.56C35.136 14.232 35.584 14.392 35.936 14.744C36.256 15.064 36.448 15.416 36.448 15.928C36.448 16.376 36.256 16.792 35.936 17.112C35.584 17.464 35.136 17.624 34.56 17.624H34.208C34.624 18.136 34.976 18.744 35.232 19.448C35.584 20.12 35.648 20.888 35.648 21.72ZM32.512 35.032H42.24C42.56 35.128 42.752 35.192 42.912 35.288C43.072 35.352 43.264 35.544 43.424 35.704C43.488 35.8 43.648 36.056 43.648 36.216C43.776 36.984 43.648 37.688 43.264 38.104C42.976 38.36 42.752 38.52 42.464 38.616C42.144 38.712 41.952 38.712 41.952 38.712H26.432C25.6 38.712 24.928 38.616 24.512 38.36C24 38.104 23.712 37.688 23.712 37.24V32.792C23.712 32.632 23.712 32.568 23.712 32.28C23.712 32.12 23.712 31.96 23.712 31.704C23.712 31.544 23.712 31.256 23.712 31.096C23.712 30.936 23.712 30.744 23.712 30.584C23.808 30.168 24 29.848 24.416 29.56C24.736 29.336 25.184 29.144 25.696 29.144C25.76 29.144 25.92 29.144 26.048 29.144C26.208 29.144 26.368 29.24 26.432 29.24C26.72 29.336 26.944 29.496 27.136 29.656C27.296 29.848 27.392 30.072 27.456 30.36C27.584 30.584 27.648 30.872 27.648 31.096C27.648 31.448 27.744 31.704 27.744 31.96C27.744 32.056 27.744 32.216 27.744 32.472C27.744 32.792 27.744 33.144 27.744 33.496C27.744 33.816 27.744 34.168 27.744 34.456C27.744 34.68 27.744 34.84 27.744 34.968C27.808 34.968 27.968 35.032 28.256 35.032C28.48 35.032 29.12 35.128 29.856 35.128C30.528 35.128 31.136 35.128 31.648 35.032C32.16 35.032 32.416 35.032 32.512 35.032ZM29.184 24.568C29.856 24.376 30.464 24.12 30.976 23.608C31.488 23.096 31.744 22.52 31.744 21.72C31.744 21.208 31.648 20.792 31.488 20.472C31.232 20.12 31.04 19.768 30.72 19.512C30.464 19.352 30.144 19.096 29.792 19C29.344 18.936 28.992 18.84 28.608 18.84C28.256 18.84 27.808 18.84 27.456 18.936C27.072 19.096 26.72 19.256 26.432 19.512C26.112 19.672 25.92 20.024 25.696 20.376C25.536 20.696 25.408 21.208 25.408 21.72C25.408 22.232 25.6 22.744 25.76 23.192C26.048 23.544 26.368 23.864 26.72 24.12C27.072 24.28 27.456 24.44 27.904 24.568C28.32 24.632 28.768 24.632 29.184 24.568ZM43.648 14.04C43.776 14.136 43.776 14.392 43.84 14.744C43.84 14.968 43.936 15.352 43.936 15.576C43.936 15.928 43.936 16.216 43.936 16.44C43.936 16.728 43.936 16.888 43.936 16.888V27.8C43.936 27.8 43.936 27.864 43.936 28.024C43.936 28.216 43.84 28.312 43.776 28.536C43.648 28.728 43.584 28.888 43.488 29.048C43.328 29.336 43.136 29.4 42.912 29.56C42.656 29.752 42.304 29.848 42.048 29.848C41.632 29.848 41.216 29.752 40.928 29.496C40.704 29.336 40.416 29.144 40.352 28.824C40.192 28.536 40.096 28.312 40.096 28.024C40 27.8 40 27.608 40 27.352V26.424H39.84C39.584 26.424 39.232 26.424 38.816 26.424C38.496 26.328 38.144 26.328 37.792 26.328C37.472 26.264 37.12 26.168 36.832 26.104C36.608 25.976 36.32 25.816 36.256 25.592C36.096 25.304 36 25.08 36 24.728C36 24.376 36.096 24.12 36.096 23.864C36.16 23.704 36.32 23.416 36.512 23.256C36.672 23.096 37.024 22.904 37.472 22.84C37.536 22.84 37.696 22.84 37.984 22.84C38.144 22.84 38.368 22.744 38.72 22.744C39.008 22.744 39.232 22.744 39.392 22.744C39.68 22.68 39.84 22.68 40 22.68V20.632C39.68 20.632 39.328 20.632 38.88 20.632C38.56 20.696 38.144 20.632 37.792 20.632C37.472 20.632 37.12 20.536 36.832 20.472C36.608 20.376 36.32 20.184 36.256 20.024C36.16 19.96 36.096 19.768 36.096 19.608C36.096 19.448 36 19.256 36 19.096C36 18.936 36 18.744 36.096 18.584C36.096 18.424 36.096 18.232 36.096 18.136C36.16 17.912 36.32 17.752 36.512 17.56C36.672 17.4 37.024 17.24 37.472 17.112C37.536 17.048 37.632 17.048 37.856 17.048C38.048 17.048 38.304 17.048 38.496 17.048C38.72 17.048 39.008 17.048 39.328 16.952C39.584 16.952 39.744 16.952 40 16.952C40 16.888 40 16.792 40 16.536C40 16.376 40 16.088 40 15.864C40 15.704 40 15.416 40 15.256C40 14.968 40 14.904 40.096 14.808C40.096 14.648 40.192 14.456 40.256 14.296C40.256 14.136 40.352 13.944 40.512 13.784C40.704 13.528 40.928 13.432 41.28 13.272C41.632 13.208 41.952 13.208 42.304 13.208C42.976 13.368 43.424 13.624 43.648 14.04ZM69.7783 14.616C69.9703 15 69.8743 15.48 69.9703 15.928V34.904C69.9703 35.512 69.9703 36.152 69.8743 36.728C69.7783 37.656 69.0423 38.328 68.0503 38.232C66.4503 38.04 66.4503 36.248 66.4503 34.904V27.032H64.1783V34.808C64.2743 35.416 64.1783 35.864 64.1783 36.344C64.0823 36.92 63.8903 37.304 63.7303 37.56C63.3463 38.04 62.5783 38.328 62.0023 38.136C60.6583 37.656 60.5623 36.152 60.5623 35C60.5623 34.616 60.4663 34.328 60.4663 34.136V16.536C60.4663 16.216 60.5623 15.832 60.5623 15.576C60.5623 15.192 60.6583 14.808 60.7543 14.52C60.8503 14.232 61.0423 13.976 61.2343 13.688C61.4263 13.4 61.7143 13.304 62.0662 13.208C62.2583 13.112 62.5783 13.112 62.7703 13.208C62.9623 13.304 63.2503 13.4 63.3463 13.592C63.6343 13.784 63.8903 14.04 63.9862 14.52C64.0823 14.904 64.1783 15.384 64.1783 15.928V23.16H66.4503V15.768C66.4503 15.384 66.4503 15 66.5463 14.616C66.6423 14.232 66.7383 13.976 66.9303 13.688C67.2183 13.4 67.4743 13.208 67.9543 13.208C68.4343 13.112 68.9463 13.304 69.2343 13.592C69.4903 13.88 69.6823 14.136 69.7783 14.616ZM58.1303 33.624C58.3863 33.72 58.5783 33.912 58.7703 34.104C59.0583 34.296 59.1543 34.584 59.1543 34.936C59.2503 35.224 59.1543 35.608 59.0583 35.8C58.8663 36.12 58.6743 36.312 58.4823 36.472C58.2263 36.568 57.9383 36.76 57.5543 36.76C57.2663 36.856 56.8823 36.952 56.5943 36.952H51.8903C51.5063 36.952 51.0583 36.856 50.5783 36.856C50.1943 36.856 49.6823 36.76 49.3303 36.664C48.9463 36.568 48.5623 36.408 48.1783 36.12C47.8903 35.896 47.6343 35.608 47.4423 35.128C47.2503 34.936 47.1543 34.648 47.1543 34.392C47.0583 34.008 47.0583 33.72 46.9622 33.432V17.976C46.8663 17.72 46.8663 17.336 46.8663 16.952C46.9622 16.664 46.9622 16.248 47.0583 15.896C47.0583 15.512 47.1543 15.224 47.3463 14.936C47.5383 14.744 47.7303 14.552 47.9863 14.456C48.2743 14.264 48.5623 14.168 48.8503 14.168C49.1383 14.104 49.3303 14.104 49.5863 14.008H55.5383C55.8263 14.104 56.2423 14.104 56.5303 14.168C56.8823 14.168 57.2663 14.264 57.5543 14.456C57.9383 14.648 58.1303 14.936 58.2263 15.224C58.3223 15.512 58.3863 15.8 58.3223 16.152C58.3223 16.568 58.3223 16.76 58.2263 16.952C58.0343 17.24 57.7463 17.432 57.3623 17.624C57.0743 17.624 56.4343 17.72 55.5383 17.72H52.2743C51.9863 17.72 51.6983 17.784 51.5063 17.88C51.4103 17.88 51.3463 17.976 51.2503 18.168C51.1543 18.36 51.0583 18.552 51.0583 18.744V19.96L51.1543 31.736C51.1543 32.312 51.1543 32.696 51.3463 32.856C51.5063 33.048 51.7943 33.144 52.1783 33.144H53.3623C53.8423 33.144 54.3223 33.24 54.8663 33.24H56.4343C56.6903 33.24 56.9783 33.24 57.2663 33.336C57.5543 33.336 57.8423 33.432 58.1303 33.624ZM81.7535 17.048C81.7215 17.016 81.7215 19.512 81.7535 19.672C81.9775 19.864 82.6495 20.504 83.0335 20.824C83.4495 21.176 83.8975 21.592 84.3775 22.04C84.6655 22.328 84.9215 22.616 85.1455 22.84C85.9455 23.64 86.9055 24.632 87.1935 25.592C87.3215 25.976 87.2575 26.52 86.8095 26.84C86.4895 27.032 86.1055 27.16 85.6575 27.16C84.7295 27.16 83.8015 26.68 83.2895 26.296C82.4895 25.688 81.8175 25.016 81.1455 24.344C80.6655 23.864 80.0575 23.16 79.4495 22.712L78.5855 23.576C78.2975 23.864 77.9775 24.152 77.7215 24.44C77.1775 25.048 76.6015 25.688 75.8335 26.232C74.9695 26.872 74.1375 27.192 73.3695 27.192C73.1775 27.192 73.0175 27.192 72.8255 27.128C72.3775 27.032 72.0575 26.84 71.8975 26.552C71.6095 26.072 71.7695 25.4 72.0255 24.952C72.3455 24.472 72.8255 24.024 73.2415 23.576C74.0095 22.744 76.9215 20.024 77.2735 19.672V17.048H75.2255C74.1695 17.048 72.3455 17.304 71.8015 16.056C71.6095 15.576 71.5135 14.936 71.6415 14.424C71.8015 13.816 72.5375 13.624 73.0815 13.56C73.2735 13.528 75.9295 13.592 76.2175 13.528H83.7055C85.4015 13.528 86.5855 13.656 87.2895 14.488C87.7055 15 87.5775 16.376 86.9055 16.696C86.5855 16.824 86.0415 17.016 85.6895 17.048C85.0815 17.08 84.4735 17.048 83.8655 17.048H81.7535ZM91.7055 30.168C94.2335 30.072 94.6175 31.32 94.6175 32.312V36.024C94.6495 36.472 94.6495 36.984 94.6175 37.432C94.5215 38.328 93.8495 38.936 92.8895 38.936C92.6655 38.936 91.9615 38.904 91.7375 38.84C90.6175 38.488 90.5535 37.432 90.4895 36.472C90.4575 36.088 90.4255 34.296 90.3615 33.976C90.2335 33.944 89.7855 33.88 88.2175 33.88C86.8415 33.88 86.7135 33.912 86.6815 33.944H75.1295L75.0975 33.912C75.0655 33.912 73.7855 33.624 73.6575 32.728C73.5615 31.928 73.6895 31.288 74.0735 30.808C74.5855 30.2 75.3535 30.2 75.3855 30.2L91.7055 30.168ZM90.6815 22.168H88.9535C87.7055 22.104 86.6815 22.2 86.1375 21.368C85.8815 20.952 85.9135 20.12 86.0095 19.672C86.1375 19.192 86.4255 18.872 87.2575 18.68C87.6095 18.616 90.3295 18.584 90.6815 18.552V15.8C90.6495 15.352 90.6495 14.84 90.7775 14.392C90.8735 14.072 90.9055 13.752 91.1935 13.432C91.5455 13.016 92.2175 12.824 92.9215 12.92C93.5615 13.016 94.1375 13.304 94.3295 13.72C94.5855 14.232 94.6175 15.192 94.6175 15.352V26.392C94.5855 26.456 94.4575 27.608 93.6255 28.12C93.3375 28.28 92.9535 28.376 92.6335 28.376C92.2495 28.376 91.8975 28.248 91.5775 28.024C91.3535 27.864 91.1615 27.672 91.0335 27.384C90.7775 26.936 90.7135 26.424 90.6815 25.976V22.168ZM107.362 33.912C107.362 30.04 112.161 28.984 118.05 28.984C123.938 28.984 128.738 29.592 128.738 33.912C128.738 38.168 123.938 38.84 118.05 38.84C112.161 38.84 107.362 38.168 107.362 33.912ZM118.114 21.944C118.114 23.704 117.282 25.368 115.874 26.424C113.986 27.864 111.458 27.96 109.378 27.128C107.298 26.264 105.698 24.408 105.698 21.944C105.698 20.536 106.114 19.352 106.818 18.456H106.562C105.57 18.456 104.77 17.752 104.77 16.824C104.77 15.896 105.57 15.16 106.562 15.16H110.018V14.104C110.018 13.304 110.818 12.696 111.778 12.696C112.77 12.696 113.57 13.304 113.57 14.104V15.16H117.218C118.178 15.16 119.01 15.896 119.01 16.824C119.01 17.752 118.178 18.456 117.218 18.456H116.962C117.666 19.352 118.114 20.536 118.114 21.944ZM128.482 15.608V26.328C128.482 26.392 128.45 27.544 127.586 28.056C127.33 28.216 127.138 28.28 126.85 28.28C126.466 28.28 126.082 28.184 125.794 27.96C125.57 27.8 125.378 27.576 125.25 27.32C124.61 26.136 124.834 24.6 124.866 23.288V22.84C124.418 22.872 123.938 22.904 123.522 22.904H123.426V25.816C123.394 26.264 123.33 26.776 123.074 27.256C122.946 27.512 122.753 27.736 122.53 27.864C122.242 28.088 122.082 28.216 121.698 28.216C121.378 28.216 121.09 28.12 120.802 27.96C119.97 27.448 119.842 26.296 119.842 26.264V15.704C119.81 15.512 119.842 14.552 120.097 14.04C120.29 13.624 120.802 13.336 121.41 13.272C122.114 13.176 122.562 13.368 122.914 13.752C123.202 14.072 123.234 14.392 123.33 14.744C123.458 15.16 123.458 15.672 123.458 16.12C123.426 16.248 123.426 16.376 123.426 16.504V19.32C123.618 19.352 124.29 19.384 124.898 19.416V16.408V16.024C124.866 15.576 124.866 15.096 124.994 14.648C125.09 14.328 125.282 14.008 125.57 13.688C125.89 13.272 126.37 13.08 127.074 13.176C127.682 13.272 128.034 13.592 128.226 14.008C128.482 14.52 128.514 15.448 128.482 15.608ZM124.418 33.912C124.418 32.44 121.026 32.312 118.05 32.312C115.074 32.312 111.874 32.44 111.874 33.912C111.874 35.224 115.074 35.48 118.05 35.48C121.026 35.48 124.418 35.64 124.418 33.912ZM112.418 24.248C113.602 23.992 114.434 23.384 114.434 21.944C114.434 20.28 113.186 19.384 111.938 19.352C110.658 19.32 109.378 20.184 109.378 21.944C109.378 23.96 110.882 24.536 112.418 24.248ZM145.412 33.688C145.54 33.912 145.668 34.136 145.732 34.424C145.86 34.872 145.956 35.448 145.668 36.056C145.348 36.696 144.836 37.08 144.26 37.112H144.228C143.46 37.112 142.948 36.504 142.308 35.8C141.668 35.128 141.092 34.328 140.676 33.784C140.644 33.688 140.548 33.592 140.484 33.432C139.428 31.8 138.948 31.32 138.852 31.288C138.756 31.352 138.308 31.864 138.244 31.96C138.148 32.088 138.052 32.184 137.988 32.28C137.604 32.696 137.444 33.176 137.092 33.624C136.74 34.072 136.388 34.52 136.004 34.936C135.908 35.032 135.812 35.16 135.748 35.256C135.108 35.96 134.436 36.76 133.508 37.08C133.284 37.176 133.092 37.208 132.868 37.208C132.388 37.208 131.908 36.984 131.556 36.632C131.204 36.28 131.012 35.8 131.012 35.288C131.044 34.52 131.492 33.816 131.844 33.24L131.908 33.112C132.036 32.92 132.164 32.728 132.292 32.568C132.356 32.44 132.452 32.344 132.516 32.248C132.74 31.896 132.964 31.576 133.188 31.32C133.252 31.256 133.284 31.16 133.348 31.096C133.38 31.032 133.412 30.968 133.476 30.936L133.54 30.84C133.7 30.616 133.828 30.424 133.956 30.232C134.244 29.784 134.468 29.368 134.692 28.984C134.948 28.504 135.204 28.056 135.524 27.64C135.748 27.32 135.972 26.968 136.196 26.616L136.324 26.424C136.612 25.944 136.772 25.624 136.804 25.176C136.868 24.504 136.868 23.864 136.868 23.096V17.208C136.868 16.792 136.868 16.408 136.9 15.992C136.9 15.544 136.996 15.032 137.124 14.648C137.22 14.392 137.38 14.072 137.54 13.816C137.764 13.496 138.212 13.336 138.66 13.24L138.724 13.208C139.076 13.112 139.524 13.144 139.876 13.272C140.036 13.336 140.228 13.432 140.356 13.56C140.548 13.72 140.676 14.04 140.804 14.392C140.996 14.808 141.124 15.352 141.188 15.96C141.348 17.752 141.38 20.44 141.38 22.232C141.412 23.32 141.412 24.44 141.476 25.496C141.508 26.424 142.02 27.224 142.468 28.024C142.948 28.952 143.364 29.88 143.908 30.776C144.132 31.192 144.356 31.608 144.612 32.024C144.708 32.216 144.804 32.408 144.9 32.568C144.996 32.792 145.124 33.016 145.22 33.24L145.316 33.496L145.412 33.688ZM153.892 22.904H153.956C154.148 22.904 154.34 22.968 154.564 22.968C154.788 23 155.044 23.032 155.3 23.064C155.78 23.16 156.292 23.352 156.516 23.832C156.676 24.088 156.74 24.376 156.74 24.664C156.74 24.984 156.74 25.272 156.644 25.592C156.58 25.912 156.484 26.36 156.196 26.584C155.94 26.776 155.652 26.936 155.332 27C154.66 27.096 153.508 27 152.836 27.032C152.772 27.032 152.74 27.064 152.74 27.064C152.74 27.064 152.708 27.064 152.708 27.192C152.676 28.248 152.708 30.136 152.708 31.224C152.74 32.312 152.74 33.432 152.708 34.488V34.936C152.708 36.056 152.708 37.688 151.94 38.456C151.684 38.744 151.332 38.904 150.916 38.904C150.916 38.904 150.884 38.872 150.852 38.872C148.772 38.808 148.548 36.312 148.548 34.968V15.96C148.548 15.896 148.516 14.296 149.22 13.592C149.508 13.304 150.18 13.144 150.66 13.144C151.14 13.144 151.556 13.336 151.844 13.624C152.42 14.232 152.452 14.904 152.516 15.608C152.548 15.736 152.548 15.864 152.548 15.992C152.644 16.696 152.644 17.496 152.676 18.264C152.676 18.744 152.708 19.16 152.708 19.64C152.676 19.896 152.708 20.12 152.708 20.344V22.136C152.708 22.36 152.708 22.616 152.772 22.84C152.772 22.872 153.412 22.872 153.444 22.872C153.604 22.904 153.732 22.936 153.892 22.904Z" fill="white"/>
</svg>
