<svg width="52" height="40" viewBox="0 0 52 40" fill="none" xmlns="http://www.w3.org/2000/svg">
<path d="M6.74453 19.04V21.04C6.74453 27.12 8.10453 33.16 12.2245 38.8H7.42453C3.46453 34.08 1.54453 27.84 1.54453 20.84V19.24C1.54453 12.24 3.46453 6.08 7.42453 1.36H12.2245C8.30453 6.64 6.74453 12.64 6.74453 19.04ZM31.0377 33.04H25.9177V9.96L19.3577 13.72L16.8777 9.56L26.5177 4.2H31.0377V33.04ZM45.2423 21.04V19.04C45.2423 12.64 43.6823 6.64 39.7623 1.36H44.5623C48.5223 6.08 50.4423 12.24 50.4423 19.24V20.84C50.4423 27.84 48.5223 34.08 44.5623 38.8H39.7623C43.8823 33.16 45.2423 27.12 45.2423 21.04Z" fill="#1E1E1E"/>
</svg>
