<svg width="52" height="40" viewBox="0 0 52 40" fill="none" xmlns="http://www.w3.org/2000/svg">
<path d="M6.74453 19.04V21.04C6.74453 27.12 8.10453 33.16 12.2245 38.8H7.42453C3.46453 34.08 1.54453 27.84 1.54453 20.84V19.24C1.54453 12.24 3.46453 6.08 7.42453 1.36H12.2245C8.30453 6.64 6.74453 12.64 6.74453 19.04ZM15.6377 29.2L26.2377 18.28C29.5977 14.84 29.7977 13.32 29.7977 11.68V11.36C29.7977 9.8 28.6377 8.32 25.6777 8.32C23.5977 8.32 21.4777 9 19.5977 12.36L15.7577 9.84C17.1177 7.36 19.7977 3.76 25.6377 3.76C32.1577 3.76 34.9577 7.2 34.9577 11.16V11.56C34.9577 14.68 33.4777 17.56 30.7977 20.24L22.3177 28.8H36.0377V33.04H15.6377V29.2ZM45.2423 21.04V19.04C45.2423 12.64 43.6823 6.64 39.7623 1.36H44.5623C48.5223 6.08 50.4423 12.24 50.4423 19.24V20.84C50.4423 27.84 48.5223 34.08 44.5623 38.8H39.7623C43.8823 33.16 45.2423 27.12 45.2423 21.04Z" fill="#1E1E1E"/>
</svg>
