<svg width="248" height="62" viewBox="0 0 248 62" fill="none" xmlns="http://www.w3.org/2000/svg">
<path d="M148.202 14.784V38.262H144.718V14.784H148.202ZM135.566 16.396C136.762 16.396 137.819 16.7427 138.738 17.436C139.674 18.112 140.402 19.0913 140.922 20.374C141.459 21.6393 141.728 23.104 141.728 24.768C141.728 26.4667 141.459 27.9573 140.922 29.24C140.402 30.5053 139.674 31.4847 138.738 32.178C137.819 32.854 136.762 33.192 135.566 33.192C134.387 33.192 133.33 32.854 132.394 32.178C131.458 31.4847 130.721 30.5053 130.184 29.24C129.664 27.9573 129.404 26.4667 129.404 24.768C129.404 23.0867 129.664 21.6133 130.184 20.348C130.721 19.0827 131.458 18.112 132.394 17.436C133.33 16.7427 134.387 16.396 135.566 16.396ZM135.566 19.568C134.994 19.568 134.491 19.7673 134.058 20.166C133.642 20.5647 133.313 21.154 133.07 21.934C132.845 22.714 132.732 23.6587 132.732 24.768C132.732 25.8947 132.845 26.8567 133.07 27.654C133.313 28.434 133.642 29.032 134.058 29.448C134.491 29.8467 134.994 30.046 135.566 30.046C136.138 30.046 136.632 29.8467 137.048 29.448C137.481 29.032 137.811 28.434 138.036 27.654C138.279 26.8567 138.4 25.8947 138.4 24.768C138.4 23.6587 138.279 22.714 138.036 21.934C137.811 21.154 137.481 20.5647 137.048 20.166C136.632 19.7673 136.138 19.568 135.566 19.568ZM172.695 26.588V29.318H151.505V26.588H172.695ZM170.121 15.252V21.544H157.537V24.066H154.131V19.126H166.715V17.878H154.105V15.252H170.121ZM170.589 22.792V25.418H154.131V22.792H170.589ZM170.251 30.67V37.976H154.183V30.67H170.251ZM157.563 33.374V35.246H166.845V33.374H157.563ZM192.077 16.292V26.64H180.897V16.292H192.077ZM184.303 19.048V23.91H188.671V19.048H184.303ZM198.655 14.836V27.888H195.197V14.836H198.655ZM201.723 19.828V22.662H197.719V19.828H201.723ZM192.181 30.254V30.826C192.181 32.0567 191.852 33.1833 191.193 34.206C190.535 35.2113 189.547 36.0607 188.229 36.754C186.929 37.4473 185.343 37.9153 183.471 38.158L182.249 35.532C183.827 35.3413 185.144 35.0033 186.201 34.518C187.259 34.0327 188.03 33.4693 188.515 32.828C189.018 32.1867 189.269 31.5193 189.269 30.826V30.254H192.181ZM192.961 30.254V30.826C192.961 31.4847 193.213 32.1433 193.715 32.802C194.235 33.4433 195.015 34.0153 196.055 34.518C197.113 35.0207 198.413 35.3673 199.955 35.558L198.733 38.184C196.879 37.9587 195.293 37.4907 193.975 36.78C192.675 36.0693 191.696 35.2027 191.037 34.18C190.379 33.14 190.049 32.022 190.049 30.826V30.254H192.961ZM198.967 28.954V31.684H183.263V28.954H198.967ZM222.368 14.81V38.21H218.884V14.81H222.368ZM217.272 18.294V21.05H203.414V18.294H217.272ZM210.356 22.272C211.5 22.272 212.531 22.5147 213.45 23C214.369 23.468 215.088 24.1267 215.608 24.976C216.128 25.8253 216.388 26.7873 216.388 27.862C216.388 28.954 216.128 29.9247 215.608 30.774C215.088 31.606 214.369 32.2647 213.45 32.75C212.531 33.218 211.5 33.452 210.356 33.452C209.212 33.452 208.181 33.218 207.262 32.75C206.361 32.2647 205.65 31.606 205.13 30.774C204.627 29.9247 204.376 28.954 204.376 27.862C204.376 26.7873 204.627 25.834 205.13 25.002C205.65 24.1527 206.361 23.4853 207.262 23C208.181 22.5147 209.212 22.272 210.356 22.272ZM210.356 25.08C209.836 25.08 209.368 25.1927 208.952 25.418C208.553 25.6433 208.233 25.964 207.99 26.38C207.765 26.796 207.652 27.29 207.652 27.862C207.652 28.4513 207.765 28.954 207.99 29.37C208.233 29.786 208.553 30.1067 208.952 30.332C209.368 30.54 209.836 30.644 210.356 30.644C210.893 30.644 211.361 30.54 211.76 30.332C212.159 30.1067 212.471 29.786 212.696 29.37C212.921 28.954 213.034 28.4513 213.034 27.862C213.034 27.29 212.921 26.796 212.696 26.38C212.471 25.9467 212.159 25.626 211.76 25.418C211.361 25.1927 210.893 25.08 210.356 25.08ZM212.072 15.174V20.01H208.614V15.174H212.072ZM245.171 14.81V38.21H241.687V14.81H245.171ZM238.229 17.202C238.229 19.75 237.899 22.0553 237.241 24.118C236.582 26.1633 235.464 28.044 233.887 29.76C232.309 31.476 230.177 32.984 227.491 34.284L225.697 31.554C227.915 30.4967 229.683 29.3093 231.001 27.992C232.335 26.6747 233.297 25.1927 233.887 23.546C234.476 21.8993 234.771 20.0013 234.771 17.852V17.202H238.229ZM236.409 17.202V19.958H226.945V17.202H236.409Z" fill="#4B75D0"/>
<ellipse cx="89" cy="28" rx="32" ry="28" fill="#6A8EC9"/>
<path fill-rule="evenodd" clip-rule="evenodd" d="M32 56C49.6731 56 64 43.464 64 28C64 12.536 49.6731 0 32 0C14.525 0 0.32162 12.2566 0.00538535 27.4811C0.000900436 27.5197 -0.000837609 27.5593 0.000385797 27.5995C0.00101029 27.62 0.00164748 27.6405 0.00229735 27.661C0.000767216 27.7738 0 27.8868 0 28C0 29.6321 0.15959 31.2316 0.465859 32.7872C2.2288 44.1736 8.50485 50.0651 14.9995 54.8236C18.7041 57.5378 22.3764 59.3248 25.1207 60.4335C26.4939 60.9883 27.6373 61.3742 28.44 61.6221C28.8414 61.7461 29.1578 61.8356 29.3753 61.8945C29.484 61.9239 29.5681 61.9457 29.6257 61.9603L29.6921 61.9768L29.71 61.9812L29.7175 61.983C30.0264 62.0562 30.3405 61.8859 30.4739 61.5728C30.6073 61.2598 30.5244 60.8874 30.2743 60.6763C28.2881 58.9991 26.9261 57.2253 25.9989 55.5084C27.9428 55.8311 29.9488 56 32 56Z" fill="#F5B1A0"/>
<path d="M28.592 35.6402C28.72 35.6722 28.848 35.6402 28.976 35.6402C29.68 35.7042 30.32 35.8642 30.896 36.3762C31.184 36.6642 31.344 37.0482 31.344 37.4962C31.344 37.9443 31.184 38.5843 30.928 38.8723C30.256 39.5443 28.688 39.4803 28.624 39.4803H10.704C10.512 39.4803 10.288 39.5123 10.064 39.5123C9.168 39.5443 8.016 39.6083 7.312 39.0003C6.896 38.6163 6.64 38.1363 6.64 37.6242C6.64 36.9842 7.056 36.1842 7.696 35.9282C8.56 35.6082 9.488 35.6722 10.416 35.6402H10.576C12.4 35.6082 14.384 35.6082 16.304 35.6402L16.272 31.3202C15.76 31.3202 15.248 31.2882 14.736 31.2562C13.648 31.1922 12.24 31.2882 11.184 31.2242C10.096 31.1602 9.008 30.7762 8.816 29.5922C8.432 27.1602 8.56 25.4322 8.56 22.9682V20.7282C8.56 19.6082 8.368 17.8162 9.552 17.2082C10.832 16.5682 12.88 16.5362 14.288 16.5362H24.592C24.656 16.5362 26.896 16.6322 27.76 17.1442C28.816 17.7522 28.848 20.1202 28.848 20.2162V26.3922C28.848 27.3842 28.848 28.3442 28.688 29.3362C28.592 29.9442 28.464 30.6162 27.856 30.9042C27.152 31.2562 25.776 31.1922 25.008 31.1602C24.112 31.1602 23.216 31.2562 22.32 31.2562H21.424H20.752L20.816 35.6402C23.184 35.6402 24.208 35.5762 26.416 35.6402C27.184 35.6722 27.92 35.5762 28.592 35.6402ZM15.344 27.2882L22.608 27.2242C22.992 27.1602 23.376 27.2562 23.792 27.0962C24.336 26.8722 24.176 26.0722 24.176 25.5922V22.9042C24.176 21.4963 24.432 21.0482 22.256 20.9842H15.984C15.952 20.9842 14.544 21.0162 13.872 21.1122C13.328 21.2083 12.944 21.6242 12.944 22.1682L13.008 26.4562C13.168 27.4802 14.608 27.2882 15.344 27.2882ZM35.0728 40.9843C35.0408 40.9843 35.0088 40.9523 34.9768 40.9203C34.5608 40.6003 34.4328 39.8963 34.4328 39.4163C34.4008 38.6483 34.3048 37.8803 34.3048 37.1442C34.3048 36.0562 34.2728 35.2242 34.4648 34.1682C34.5928 33.4962 34.8488 33.1122 35.4888 32.8562C36.0648 32.6322 36.6727 32.5042 37.2808 32.5042H43.0728L43.1048 30.9042C41.1528 30.9042 36.3528 30.8402 34.5608 30.7122C33.8888 30.6482 33.5688 30.6162 33.0247 30.1042C32.7368 29.8482 32.6088 29.4002 32.6088 28.9522C32.6088 28.5362 32.7688 28.1202 33.0247 27.8642C33.6648 27.1922 35.2328 27.2242 35.2968 27.2242H53.6008C54.2408 27.2242 54.8808 27.2242 55.4888 27.2562C56.0648 27.2882 56.7048 27.3842 57.1528 27.8002C57.6008 28.1522 57.6008 28.5682 57.6008 29.0802C57.6008 29.7202 57.2168 30.2322 56.5768 30.4562C55.7128 30.7762 54.6568 30.8082 53.7608 30.8402C51.6488 30.9042 49.6007 30.9682 47.4568 30.9682L47.4248 32.5042H52.3528C53.1528 32.5362 54.0488 32.5682 54.8168 32.9202C55.6488 33.2722 55.8728 33.9122 55.9368 34.7442C56.0008 36.2162 56.0648 38.5843 55.6488 40.1203C55.5208 40.6003 55.4248 40.9843 54.9128 41.1443C54.4648 41.3043 53.9208 41.3363 53.4728 41.3363L36.8008 41.2723C36.2568 41.2403 35.5528 41.3043 35.0728 40.9843ZM37.8888 25.5922C36.8328 25.6242 35.0088 25.4642 34.6888 24.3122C34.4648 23.3522 34.3688 23.4802 34.3688 22.4882V19.6082C34.3368 19.6722 34.2728 18.0722 34.8168 17.2082C35.3608 16.3122 37.3128 16.2802 37.5368 16.2802H51.6168C52.5128 16.2802 53.5048 16.2162 54.3688 16.5362C55.0728 16.8242 55.2968 17.5922 55.2648 18.3602C55.2008 19.0642 54.7208 19.6402 53.9848 19.8322C53.6008 19.9282 52.9928 19.9602 52.1928 19.9602C51.6488 19.9602 51.2008 19.9282 51.2008 19.9282H39.8728C39.6488 19.8962 39.1688 19.8962 38.9448 20.0243C38.7208 20.1202 38.7528 21.6242 38.8488 21.8482C39.0088 22.1362 39.7128 22.1042 40.1608 22.0722C41.1848 22.0402 43.1048 22.0722 49.5368 22.0722H51.9048C52.9608 22.0722 53.8568 22.0082 54.5608 22.3602C54.9768 22.5522 55.2968 22.9682 55.4248 23.4482C55.5208 23.9602 55.3928 24.5042 55.1048 24.8882C54.4328 25.7202 53.6328 25.5922 52.7048 25.6242C51.8408 25.6562 46.9448 25.6882 45.5688 25.6882C44.1288 25.6882 39.3288 25.6562 37.8888 25.5922ZM38.1128 37.3362C38.1128 37.5282 38.1128 37.7843 38.2408 37.8803C38.4008 38.0403 39.1368 37.9443 39.1368 37.9443H49.1528C49.1528 37.9443 50.6568 38.0723 51.4568 37.9763C51.8728 37.9443 51.9048 37.7203 51.9368 37.3362C51.9688 36.9842 52.0328 36.4722 51.7768 36.1522C51.4888 35.8002 50.8488 35.8642 50.4328 35.8962H41.5368C40.6088 35.8322 39.7128 35.8642 38.7848 35.8962C38.4328 35.8962 38.2728 35.8322 38.1768 36.2162C38.1128 36.5042 38.1128 36.7922 38.1128 37.0482C38.1448 37.1122 38.1128 37.2082 38.1128 37.3362Z" fill="white"/>
<path d="M67.296 26.4562C68.16 26.4562 69.216 26.5202 70.432 26.5522C70.432 26.1042 70.432 25.6882 70.464 25.2722C70.432 25.2722 70.4 25.2722 70.368 25.2402C68.224 24.3762 66.528 23.4482 66.528 20.8882C66.528 20.2802 66.592 19.7362 66.752 19.2562C65.728 19.2562 64.896 18.4882 64.896 17.5282C64.896 16.6002 65.76 15.8322 66.784 15.8322H71.008V14.7762C71.008 13.9762 71.84 13.3042 72.864 13.3042C73.888 13.3042 74.752 13.9762 74.752 14.7762V15.8322H79.168C80.224 15.8322 81.088 16.6002 81.088 17.5282C81.088 18.4882 80.256 19.2242 79.232 19.2562C79.36 19.7362 79.456 20.2802 79.456 20.8882C79.456 22.6802 78.944 23.4482 77.472 24.5042C76.736 25.0482 75.744 25.3682 74.688 25.4962V26.4882V26.6482C76.288 26.6482 76.032 26.5522 78.304 26.6162C79.104 26.6162 79.872 26.5522 80.608 26.8722C81.152 27.1282 81.504 27.7362 81.504 28.4082C81.504 28.9522 81.28 29.1442 80.928 29.5282C80.32 30.1682 79.36 30.1362 78.592 30.0722H67.296C67.232 30.0722 65.888 30.1042 65.376 29.3682C65.12 29.1122 64.992 28.8562 64.992 28.4082C64.992 27.9602 65.152 27.6402 65.376 27.3522C65.856 26.8082 66.752 26.5202 67.296 26.4562ZM86.56 38.8083C87.232 38.8723 87.808 39.0963 88 39.7682C88.256 40.5363 87.968 41.0803 87.168 41.4003C86.656 41.5923 86.112 41.6243 85.664 41.6243H70.784C69.92 41.6243 68.992 41.5923 68.064 41.5603C67.168 41.5283 66.528 40.8563 66.432 39.8963L66.336 37.6562C66.304 37.2082 66.272 36.4402 66.656 36.0242C67.232 35.3842 68.384 35.2882 69.312 35.2882C70.528 35.2882 74.592 35.3202 84.352 35.3202V34.1682H68.608C68.192 34.1682 67.84 34.1682 67.52 34.1042C67.136 34.0082 66.816 34.0082 66.624 33.6562C66.336 33.2082 66.24 32.7922 66.4 32.2802C66.624 31.6082 67.584 31.5122 68.064 31.4482C68.384 31.3842 68.704 31.3522 69.056 31.3522C70.976 31.3522 73.216 31.3842 84.672 31.3842C86.816 31.3842 88.032 32.0242 88.032 33.4962V35.7682C88.032 36.3442 87.776 36.9842 87.104 37.3682C86.56 37.6883 85.984 37.6562 85.44 37.6562H70.272V38.8083H86.56ZM83.584 27.6082V19.3842C83.552 18.4242 83.584 16.8562 84.128 16.3122C84.608 15.8962 85.088 15.8322 85.664 15.8322C86.368 15.8322 87.008 16.2802 87.264 16.9202C87.616 17.8162 87.584 18.7762 87.616 19.7042C87.616 20.7603 87.616 21.5922 87.648 22.3602C88.576 22.3602 89.472 22.3922 90.016 22.4242C91.136 22.4882 91.904 24.1842 91.232 25.0482C90.624 25.9122 89.12 26.0402 87.68 25.9762V27.2562C87.68 28.1522 87.52 28.5362 87.36 29.0162C87.328 29.1442 87.264 29.2722 87.2 29.4323C87.072 29.6882 86.88 29.9442 86.624 30.1042C86.176 30.3922 85.6 30.4562 85.056 30.3602C84.8 30.2962 84.512 30.1682 84.288 29.9762C83.552 29.2722 83.584 27.6722 83.584 27.6082ZM72.736 22.2962C73.952 22.3602 75.616 22.3602 75.616 20.8882C75.616 19.7042 74.976 19.3522 74.144 19.2562H71.52C70.752 19.3842 70.176 19.7682 70.176 20.8882C70.24 22.2962 71.488 22.3602 72.736 22.2962ZM112.692 28.0562C113.396 28.0882 114.196 28.2162 114.804 28.6962C115.092 28.9202 115.252 29.3042 115.252 29.6882C115.252 30.1042 115.092 30.6482 114.836 30.8722C114.164 31.5122 112.5 31.4482 112.436 31.4482L95.3802 31.4802C94.4203 31.5122 93.2363 31.5762 92.5323 31.0002C92.0523 30.6482 91.7963 30.2962 91.7963 29.8162C91.7963 29.2402 92.2443 28.5042 92.9163 28.2802C93.8123 27.9922 94.7723 28.0882 95.7323 28.0562C97.8123 27.9922 98.4843 28.0562 100.628 28.0562V26.2322C98.8683 26.2002 97.0123 26.1682 96.2123 26.1362C95.1562 26.1682 93.3323 26.0082 93.0123 24.8562C92.7883 23.8962 92.6923 24.0242 92.6923 23.0322V19.6082C92.6603 19.6722 92.5963 18.0722 93.1403 17.2082C93.6843 16.3122 95.6363 16.2802 95.8602 16.2802H109.94C110.836 16.2802 111.828 16.2162 112.692 16.5362C113.396 16.8242 113.62 17.5922 113.588 18.3602C113.524 19.0642 113.044 19.6402 112.308 19.8322C111.924 19.9282 111.316 19.9602 110.516 19.9602C109.972 19.9602 109.524 19.9282 109.524 19.9282H98.1963C97.9723 19.8962 97.4923 19.8962 97.2683 20.0243C97.0443 20.1202 97.0763 22.1682 97.1723 22.3922C97.3323 22.6802 98.0363 22.6482 98.4843 22.6162C99.5083 22.5842 101.428 22.6162 107.86 22.6162H110.228C111.284 22.6162 112.18 22.5522 112.884 22.9042C113.3 23.0962 113.62 23.5122 113.748 23.9922C113.844 24.5042 113.716 25.0482 113.428 25.4322C112.756 26.2642 111.956 26.1362 111.028 26.1682C110.324 26.2002 107.092 26.2322 105.108 26.2322C105.14 26.8402 105.172 27.5442 105.172 28.0562C107.54 28.0562 110.868 27.9602 112.692 28.0562ZM92.8203 37.4002C92.8203 33.7842 97.5243 32.9202 103.284 32.9202C109.076 32.9202 113.78 33.3682 113.78 37.4002C113.78 41.3683 109.076 41.8802 103.284 41.8802C97.5243 41.8802 92.8203 41.3683 92.8203 37.4002ZM109.556 37.4002C109.556 36.0242 106.228 36.0562 103.284 36.0562C100.372 36.0562 97.2363 36.0242 97.2363 37.4002C97.2363 38.6163 100.372 38.7443 103.284 38.7443C106.228 38.7443 109.556 39.0003 109.556 37.4002Z" fill="#F9D2DB"/>
</svg>
