<svg width="371" height="29" viewBox="0 0 371 29" fill="none" xmlns="http://www.w3.org/2000/svg">
<path d="M40.4922 14.6076C40.4035 19.4105 37.9897 22.5976 33.379 23.903C32.778 24.0754 32.5366 24.3562 32.3297 24.8981C31.4037 27.3414 29.6155 28.7256 26.9949 28.8832C24.2412 29.0507 22.1526 27.9128 20.9753 25.3808C20.6551 24.6912 20.2364 24.3907 19.527 24.3414C18.3497 24.2528 17.2955 23.834 16.4729 22.9818C16.0443 22.5385 15.7586 22.5336 15.2808 22.9523C13.7439 24.302 11.9262 24.7109 9.92127 24.3661C6.97551 23.8636 5.09377 21.775 4.92136 18.7799C4.83269 17.1938 4.7588 15.6076 4.73417 14.0214C4.72432 13.4057 4.53713 13.1298 3.9263 12.8983C1.1431 11.8293 -0.127813 9.75547 0.0101155 6.69641C0.12834 4.0807 1.77363 1.8098 4.43861 1.19897C8.4878 0.27288 12.5961 -0.382281 16.7684 0.469921C17.2413 0.568442 17.6403 0.430513 18.0738 0.307362C21.5664 -0.672916 24.6599 0.726074 26.1328 4.01173C26.4185 4.64719 26.7781 4.7063 27.3495 4.69152C29.4776 4.64226 31.581 4.86393 33.6302 5.45998C37.9011 6.70134 40.571 10.2776 40.4922 14.6027V14.6076ZM24.719 20.5533C24.719 21.2479 24.6944 21.9375 24.724 22.6321C24.7782 23.967 25.3496 24.5828 26.5367 24.6222C27.5219 24.6567 28.2806 23.9326 28.3889 22.7454C28.4628 21.9375 28.4382 21.1149 28.4283 20.3021C28.4234 19.775 28.5564 19.5583 29.1377 19.7307C29.9702 19.9819 30.8421 19.9179 31.6894 19.844C33.7534 19.6666 35.3839 18.2923 35.9159 16.3268C36.5415 14.0214 35.8765 11.849 34.2016 10.6077C32.7583 9.5338 31.049 9.32198 29.3544 9.13479C26.32 8.80968 25.9555 9.11016 25.4087 12.1446C25.3446 12.5042 25.2806 12.8638 25.251 13.2283C25.187 14.0017 25.1279 14.716 24.3988 15.2628C23.8127 15.7012 23.7683 16.578 24.1427 17.0558C25.0146 18.1593 24.7092 19.3612 24.719 20.5484V20.5533ZM12.7636 15.578C12.7636 15.578 12.7291 15.578 12.7094 15.578C12.7094 14.6815 12.739 13.785 12.6995 12.8933C12.6601 11.9574 12.5665 11.0264 12.4927 10.0954C12.3974 8.85729 12.9672 8.2087 14.202 8.14959C15.6749 8.0757 16.4187 7.44517 16.4088 6.26292C16.4039 5.09053 15.6847 4.46492 14.1379 4.49448C12.3892 4.52896 10.6405 4.67182 8.90158 4.82452C7.7686 4.92304 6.62576 4.99693 5.53711 5.38116C4.51743 5.74076 3.98049 6.79001 4.25635 7.81462C4.4928 8.69638 5.42874 9.14957 6.52232 8.90327C6.79817 8.83923 7.0691 8.75056 7.34004 8.66682C8.18239 8.40082 8.54691 8.57815 8.64051 9.57814C8.92129 12.4943 9.06414 15.4155 9.11833 18.3465C9.14296 19.6716 9.6996 20.1592 10.9015 20.1543C12.1331 20.1444 12.6798 19.6617 12.7537 18.3957C12.8079 17.4647 12.7636 16.5238 12.7636 15.5879V15.578ZM22.3398 16.0706C22.3693 14.4845 22.256 12.9131 21.9063 11.3614C21.6551 10.2481 20.9703 9.69143 19.8029 9.80473C18.5861 9.92296 18.2216 10.8441 18.261 11.7948C18.3497 14.1002 18.5911 16.4007 18.7881 18.7011C18.8817 19.8243 19.5713 20.1888 20.6304 20.1543C21.7388 20.1198 22.2757 19.5533 22.3299 18.509C22.3743 17.7011 22.3398 16.8884 22.3398 16.0756V16.0706ZM22.0885 6.09544C22.4235 5.0659 21.7437 4.43044 20.8127 4.29744C19.1231 4.05607 17.9556 5.03142 17.931 6.47474C17.9064 7.74073 18.6748 8.57323 19.9063 8.61756C21.3398 8.66682 22.0393 7.89836 22.0885 6.10036V6.09544Z" fill="#6A83B4"/>
<path d="M24.7194 20.5476C24.7046 19.3604 25.015 18.1585 24.1431 17.055C23.7637 16.5772 23.8081 15.7053 24.3992 15.262C25.1283 14.7152 25.1874 13.996 25.2514 13.2275C25.281 12.863 25.345 12.5034 25.409 12.1438C25.9558 9.11429 26.3204 8.80888 29.3548 9.13399C31.0543 9.31626 32.7587 9.533 34.202 10.6069C35.8768 11.8532 36.5418 14.0206 35.9162 16.326C35.3842 18.2915 33.7537 19.6658 31.6897 19.8432C30.8375 19.9171 29.9705 19.9811 29.138 19.7299C28.5568 19.5525 28.4188 19.7742 28.4287 20.3013C28.4385 21.1141 28.4632 21.9367 28.3893 22.7446C28.2809 23.9318 27.5174 24.6559 26.5371 24.6214C25.3499 24.5771 24.7834 23.9662 24.7243 22.6313C24.6948 21.9416 24.7194 21.2471 24.7194 20.5525V20.5476ZM30.4237 16.2225C31.7587 16.2521 32.4582 15.725 32.5074 14.7349C32.5616 13.6856 31.4089 12.7595 29.8474 12.7842C28.1233 12.8137 28.9459 14.3112 28.7784 15.0945C28.473 16.5378 29.8671 15.9418 30.4237 16.2275V16.2225Z" fill="#FCFCFC"/>
<path d="M12.7634 15.5788C12.7634 16.5147 12.8077 17.4556 12.7535 18.3866C12.6796 19.6526 12.1328 20.1353 10.9013 20.1452C9.69444 20.155 9.14273 19.6624 9.1181 18.3373C9.06884 15.4064 8.92106 12.4902 8.64027 9.56902C8.54668 8.56904 8.17723 8.38678 7.3398 8.65771C7.06887 8.74638 6.79794 8.83012 6.52209 8.89416C5.42851 9.14538 4.49256 8.69219 4.25612 7.80551C3.98026 6.78582 4.52212 5.73165 5.53688 5.37205C6.62061 4.98782 7.76837 4.91393 8.90135 4.81541C10.6452 4.66271 12.3939 4.51985 14.1377 4.48537C15.6894 4.45581 16.4037 5.08634 16.4086 6.25381C16.4135 7.43606 15.6746 8.06659 14.2018 8.14048C12.9702 8.20287 12.4005 8.85147 12.4924 10.0863C12.5614 11.0173 12.6599 11.9483 12.6993 12.8842C12.7338 13.7758 12.7092 14.6724 12.7092 15.5689C12.7289 15.5689 12.7437 15.5689 12.7634 15.5689V15.5788Z" fill="#FCFCFC"/>
<path d="M22.078 16.0353C22.078 16.8481 22.1125 17.6609 22.0682 18.4687C22.014 19.518 21.4721 20.0795 20.3687 20.114C19.3096 20.1485 18.6199 19.784 18.5264 18.6608C18.3293 16.3604 18.0879 14.0599 17.9993 11.7546C17.9648 10.8088 18.3293 9.88266 19.5411 9.76444C20.7086 9.65114 21.3884 10.2078 21.6445 11.3211C21.9943 12.8728 22.1076 14.4442 22.078 16.0303V16.0353Z" fill="#FCFCFC"/>
<path d="M22.0883 6.09728C22.0391 7.89527 21.3396 8.66866 19.9061 8.61447C18.6697 8.57014 17.9061 7.73764 17.9308 6.47165C17.9603 5.03326 19.1278 4.05298 20.8125 4.29435C21.7435 4.42736 22.4233 5.06774 22.0883 6.09235V6.09728Z" fill="#FCFCFC"/>
<path d="M30.4232 16.2357C29.8223 16.147 28.0391 16.5756 28.3445 15.1323C28.512 14.3491 28.1179 12.8269 29.842 12.7974C31.4035 12.7727 32.5562 13.6988 32.502 14.7481C32.4528 15.7382 31.7533 16.2653 30.4183 16.2357H30.4232Z" fill="#6A83B4"/>
<g clip-path="url(#clip0_1_148917)">
<path d="M54.0674 19.2992C51.349 19.4015 50 17.3964 50 13.3248C50 9.2532 51.349 7.16624 54.0674 7.06394C56.7654 6.96164 58.1144 8.94629 58.1144 13.0179C58.1144 17.0895 56.7654 19.1969 54.0674 19.2992ZM54.0674 8.41432C52.4118 8.45524 51.5738 10.0716 51.5738 13.2634C51.5738 16.4552 52.4118 18.0307 54.0674 17.9693C55.723 17.9079 56.5406 16.2711 56.5406 13.0793C56.5406 9.88747 55.723 8.35294 54.0674 8.41432ZM61.2212 19.422C61.5482 15.2685 61.5482 11.0946 61.2212 6.94118C61.1803 6.47059 61.4256 6.22506 61.9366 6.18414C62.4476 6.14322 62.7337 6.36829 62.7542 6.81841C63.0812 11.0537 63.0812 15.289 62.7542 19.5448C62.7337 20.0153 62.468 20.2199 61.9366 20.179C61.4256 20.1381 61.1803 19.8926 61.2212 19.422ZM64.328 14.8389C64.3484 14.3887 64.5733 14.1637 65.0025 14.1841C69.2947 14.3274 73.6074 14.3274 77.8997 14.1841C78.3289 14.1841 78.5333 14.3887 78.5742 14.8389C78.5947 15.289 78.3903 15.5141 77.961 15.5141C73.6279 15.6368 69.2947 15.6368 64.9616 15.5141C64.5324 15.5141 64.328 15.2685 64.3484 14.8389H64.328ZM68.5181 21.8159C67.1486 21.8159 66.3719 21.1611 66.2084 19.8517L66.004 18.399C65.8814 17.4373 66.3924 16.9668 67.5983 16.9668H75.2835C76.469 16.9668 77.0004 17.4373 76.8777 18.399L76.6734 19.8517C76.4894 21.1611 75.7127 21.8159 74.3433 21.8159H68.5181ZM67.6392 10.2967L67.7005 10.9719C67.7005 11.3402 67.8231 11.5243 68.0479 11.5243H75.8967C76.469 11.5243 76.7551 11.7494 76.7551 12.179C76.7551 12.6496 76.469 12.8747 75.9171 12.8747H67.4552C66.5559 12.8747 66.1062 12.445 66.1062 11.6061L66.0449 10.0512C66.0245 9.29412 66.4332 8.90537 67.2713 8.90537H74.8951C75.12 8.90537 75.2426 8.72123 75.2426 8.3734L75.3039 7.69821H66.8625C66.2697 7.69821 65.9836 7.47315 65.9836 7.04348C65.9836 6.61381 66.2084 6.34783 66.6785 6.34783H75.6514C76.469 6.34783 76.8777 6.73657 76.8573 7.51407L76.8164 9.04859C76.796 9.88747 76.3259 10.2967 75.4061 10.2967H67.6187H67.6392ZM68.191 18.3376C67.8027 18.3376 67.6187 18.5831 67.68 19.0742L67.7414 19.7289C67.8231 20.2199 68.0684 20.4655 68.5181 20.4655H74.3433C74.7929 20.4655 75.0382 20.2199 75.12 19.7289L75.2017 19.0742C75.2426 18.5831 75.0791 18.3376 74.6703 18.3376H68.1706H68.191ZM79.6371 12.8951C79.6575 12.445 79.8823 12.2199 80.3116 12.2404C84.6038 12.5269 88.9165 12.5269 93.2088 12.2404C93.638 12.2199 93.8424 12.4246 93.8833 12.8951C93.9037 13.3453 93.6993 13.5703 93.2701 13.5908C88.937 13.8772 84.6038 13.8772 80.2707 13.5908C79.8415 13.5703 79.6371 13.3248 79.6575 12.8951H79.6371ZM80.9861 15.8414C80.9861 15.3913 81.2518 15.1867 81.8036 15.1867H91.1649C92.1051 15.1867 92.5343 15.5754 92.4525 16.3734L92.2481 17.9488C92.1459 18.7673 91.6554 19.1765 90.8174 19.1765H82.9891L83.1731 20.5064H91.0013C91.5736 20.5064 91.8393 20.7315 91.8393 21.1611C91.8393 21.5908 91.5736 21.8159 91.0218 21.8159H82.9891C82.1715 21.8159 81.7014 21.4066 81.5992 20.6087L81.3948 19.0332C81.2926 18.2353 81.7219 17.8465 82.703 17.8465H90.6539L90.8174 16.5166H81.8241C81.2518 16.5166 80.9861 16.2916 80.9861 15.8619V15.8414ZM92.4525 8.53708C92.4525 10.2353 90.5517 11.1355 86.75 11.1969C82.9482 11.2583 81.0269 10.4399 81.0269 8.72123C81.0269 7.00256 82.9482 6.14322 86.75 6.1023C90.5517 6.04092 92.4525 6.85934 92.4525 8.55754V8.53708ZM86.75 9.92839C89.4888 9.86701 90.8583 9.41688 90.8583 8.55754C90.8583 7.69821 89.4888 7.30946 86.75 7.37084C83.9906 7.43223 82.6212 7.88235 82.6212 8.74169C82.6212 9.60102 83.9906 10.0102 86.75 9.92839ZM101.773 14.1841C100.485 14.1841 99.8311 13.5294 99.8107 12.2404L99.7289 7.90281C99.7085 7.1867 100.117 6.83887 100.996 6.83887H106.392C107.251 6.83887 107.68 7.1867 107.68 7.90281L107.598 12.2404C107.557 13.5499 106.903 14.1841 105.615 14.1841H101.814H101.773ZM101.875 8.1688C101.507 8.1688 101.323 8.41432 101.344 8.88491L101.425 11.8721C101.425 12.5064 101.691 12.8133 102.202 12.8133H105.207C105.718 12.8133 105.983 12.5064 106.004 11.8721L106.086 8.88491C106.086 8.41432 105.902 8.1688 105.534 8.1688H101.916H101.875ZM102.284 16.7621C102.284 16.312 102.55 16.087 103.101 16.087H109.683C111.338 16.087 111.89 16.8235 111.338 18.2762C111.134 18.8082 110.828 19.2992 110.419 19.688C110.991 19.9335 111.522 20.2199 112.013 20.5678C112.381 20.8338 112.442 21.1611 112.217 21.5499C111.993 21.9591 111.706 22.0409 111.359 21.7749C110.705 21.3248 109.949 20.9565 109.09 20.6701C107.578 21.4476 105.391 21.8363 102.529 21.8363C101.998 21.8363 101.712 21.6113 101.712 21.1611C101.712 20.711 101.998 20.4859 102.55 20.4859C106.597 20.4859 109.008 19.688 109.806 18.0716C109.989 17.6624 109.887 17.4578 109.499 17.4578H103.183C102.611 17.4578 102.325 17.2327 102.325 16.7826L102.284 16.7621ZM110.296 13.8772C110.48 11.6266 110.48 9.3555 110.296 7.0844C110.255 6.51151 110.48 6.22506 110.991 6.18414C111.502 6.14322 111.788 6.36829 111.829 6.81841C111.911 7.82097 111.952 8.80307 111.972 9.80563H114.384C114.895 9.80563 115.161 10.0307 115.161 10.4808C115.161 10.9309 114.895 11.156 114.384 11.156H111.972C111.952 12.1586 111.89 13.1407 111.829 14.1432C111.788 14.6138 111.522 14.8184 110.991 14.7775C110.48 14.7366 110.235 14.4501 110.296 13.8772ZM115.917 8.65985C115.917 8.20972 116.183 7.98465 116.714 7.98465H119.351V6.79795C119.351 6.26598 119.616 6 120.148 6C120.679 6 120.945 6.26598 120.945 6.79795V7.98465H123.561C124.093 7.98465 124.379 8.20972 124.379 8.65985C124.379 9.10997 124.113 9.33504 123.561 9.33504H123.214C123.643 9.84655 123.868 10.5627 123.868 11.4834C123.868 13.8977 122.641 15.1662 120.168 15.2685C117.695 15.3504 116.448 14.1841 116.448 11.7698C116.448 10.7059 116.734 9.90793 117.327 9.31458H116.714C116.183 9.31458 115.917 9.08951 115.917 8.63939V8.65985ZM120.168 9.33504C118.758 9.39642 118.043 10.1944 118.043 11.7084C118.043 13.2225 118.758 14 120.168 13.9386C121.579 13.8772 122.274 13.0793 122.274 11.5448C122.274 10.133 121.66 9.39642 120.454 9.33504H120.168ZM118.799 18.0307C118.717 17.4373 118.901 17.0691 119.33 16.9258C119.903 16.7621 120.23 16.9668 120.311 17.5396L120.536 19.4629C120.598 20.0563 120.904 20.3632 121.436 20.3836C123.663 20.4859 125.891 20.4859 128.078 20.3836C128.548 20.3632 128.773 20.5473 128.773 20.9565C128.773 21.468 128.548 21.7136 128.078 21.7545C125.85 21.8977 123.398 21.8977 120.7 21.7545C119.719 21.7136 119.187 21.2225 119.065 20.3223L118.778 18.0512L118.799 18.0307ZM127.199 16.5575C127.445 13.3453 127.445 10.1535 127.199 6.94118C127.159 6.47059 127.404 6.22506 127.915 6.18414C128.426 6.14322 128.712 6.36829 128.732 6.81841C128.998 10.0921 128.998 13.3862 128.732 16.6803C128.712 17.1509 128.446 17.3555 127.915 17.3146C127.404 17.2737 127.159 17.0281 127.199 16.5575ZM134.742 8.4757C134.742 8.02558 135.007 7.80051 135.539 7.80051H138.175V6.79795C138.175 6.26598 138.441 6 138.972 6C139.504 6 139.77 6.26598 139.77 6.79795V7.80051H142.386C142.917 7.80051 143.203 8.02558 143.203 8.4757C143.203 8.92583 142.938 9.17136 142.386 9.17136H142.079C142.488 9.6624 142.692 10.3376 142.692 11.2174C142.692 13.5703 141.466 14.798 138.993 14.9207C136.52 15.023 135.273 13.8977 135.273 11.5243C135.273 10.5013 135.559 9.72378 136.131 9.17136H135.539C135.007 9.17136 134.742 8.94629 134.742 8.4757ZM136.131 17.2941C136.131 16.844 136.397 16.6189 136.949 16.6189H146.188C146.719 16.6189 147.005 16.844 147.005 17.2941V17.9284C147.005 19.3197 146.719 20.5473 146.126 21.5908C145.901 22.0205 145.574 22.1023 145.125 21.8363C144.655 21.5703 144.532 21.243 144.757 20.8133C145.186 20.0563 145.411 19.1151 145.411 17.9693H136.949C136.418 17.9693 136.131 17.7442 136.131 17.2941ZM138.993 9.17136C137.583 9.21228 136.867 9.98977 136.867 11.4629C136.867 12.9361 137.583 13.6522 138.993 13.5908C140.403 13.5294 141.098 12.7519 141.098 11.2788C141.098 9.92839 140.485 9.23274 139.279 9.17136H138.993ZM145.656 14.3887C145.84 11.913 145.84 9.41688 145.656 6.92072C145.615 6.45013 145.861 6.2046 146.372 6.16368C146.883 6.12276 147.169 6.34783 147.21 6.79795C147.291 7.86189 147.332 8.90537 147.353 9.96931H149.764C150.275 9.96931 150.541 10.1944 150.541 10.6445C150.541 11.0946 150.275 11.3197 149.764 11.3197H147.353C147.332 12.3836 147.271 13.4271 147.21 14.491C147.169 14.9616 146.903 15.1662 146.372 15.1253C145.861 15.0844 145.615 14.8389 145.656 14.3683V14.3887ZM151.665 12.5882C153.628 11.4015 154.629 9.68286 154.629 7.41176C154.629 6.81841 154.895 6.53197 155.447 6.53197C155.998 6.53197 156.223 6.81841 156.223 7.37084C156.223 8.23018 156.121 9.02813 155.896 9.76471C157.388 10.5422 158.349 11.7494 158.758 13.3657C158.86 13.8159 158.676 14.1228 158.185 14.2455C157.695 14.3887 157.388 14.2455 157.286 13.7954C156.918 12.5473 156.264 11.6471 155.344 11.1151C154.711 12.2609 153.73 13.202 152.422 13.9182C151.931 14.1432 151.584 14.0409 151.338 13.5703C151.113 13.1407 151.216 12.8133 151.686 12.5678L151.665 12.5882ZM165.421 18.8491C165.421 20.8951 163.602 21.9386 159.964 22C156.326 22.0614 154.506 21.0793 154.506 19.0332C154.506 16.9872 156.326 15.9437 159.964 15.8824C163.602 15.821 165.421 16.8031 165.421 18.8491ZM159.943 20.6292C162.519 20.5678 163.827 19.9744 163.827 18.8491C163.827 17.7238 162.539 17.1918 159.943 17.2532C157.368 17.3146 156.06 17.9079 156.06 19.0332C156.06 20.1586 157.347 20.6905 159.943 20.6292ZM162.049 7.00256C162.13 7.94373 162.171 8.88491 162.171 9.82609H164.174C164.174 8.92583 164.133 8.02558 164.072 7.10486C164.031 6.53197 164.256 6.24552 164.767 6.2046C165.278 6.16368 165.564 6.38875 165.585 6.83887C165.768 9.27366 165.768 11.7289 165.585 14.1637C165.564 14.6343 165.298 14.8389 164.767 14.798C164.256 14.757 164.011 14.4706 164.072 13.8977C164.133 12.9974 164.174 12.0972 164.174 11.1969H162.171C162.151 12.1381 162.11 13.0588 162.049 14C162.008 14.4706 161.742 14.6752 161.211 14.6547C160.7 14.6138 160.454 14.3683 160.495 13.8772C160.679 11.6471 160.679 9.39642 160.495 7.16624C160.454 6.69565 160.7 6.45013 161.211 6.40921C161.721 6.36829 162.008 6.57289 162.049 7.04348V7.00256ZM171.798 19.2992C169.08 19.4015 167.731 17.3964 167.731 13.3248C167.731 9.2532 169.08 7.1867 171.798 7.0844C174.496 6.9821 175.845 8.96675 175.845 13.0384C175.845 17.11 174.496 19.2174 171.798 19.3197V19.2992ZM171.798 8.41432C170.143 8.45524 169.304 10.0716 169.304 13.2634C169.304 16.4552 170.143 18.0307 171.798 17.9693C173.454 17.9079 174.271 16.2711 174.271 13.0793C174.271 9.88747 173.454 8.35294 171.798 8.41432ZM178.931 19.422C179.258 15.2685 179.258 11.0946 178.931 6.94118C178.891 6.47059 179.136 6.22506 179.647 6.18414C180.158 6.14322 180.444 6.36829 180.464 6.81841C180.791 11.0537 180.791 15.289 180.464 19.5448C180.444 20.0153 180.178 20.2199 179.647 20.179C179.136 20.1381 178.891 19.8926 178.931 19.422ZM186.841 13.3043C189.172 12.1176 190.337 10.1535 190.337 7.41176C190.337 6.81841 190.602 6.53197 191.154 6.53197C191.706 6.53197 191.931 6.81841 191.931 7.3913C191.931 8.35294 191.829 9.21228 191.604 10.0102C193.362 10.7263 194.486 12.0767 194.997 14.1023C195.119 14.5524 194.935 14.8593 194.445 14.9821C193.954 15.1253 193.648 14.9821 193.525 14.5115C193.075 12.9565 192.258 11.9335 191.052 11.422C190.357 12.8133 189.212 13.8977 187.618 14.6547C187.128 14.8798 186.78 14.7775 186.535 14.3069C186.31 13.8772 186.412 13.5499 186.862 13.3043H186.841ZM189.294 17.6829C189.212 17.0895 189.396 16.7212 189.826 16.578C190.418 16.3939 190.745 16.578 190.827 17.1714L191.093 19.4629C191.154 20.0563 191.461 20.3632 191.992 20.3836C194.22 20.4859 196.448 20.4859 198.635 20.3836C199.105 20.3632 199.33 20.5473 199.33 20.9565C199.33 21.468 199.105 21.7136 198.635 21.7545C196.407 21.8977 193.954 21.8977 191.256 21.7545C190.275 21.7136 189.744 21.2225 189.621 20.3223L189.274 17.7033L189.294 17.6829ZM197.899 9.98977C197.858 8.96675 197.817 7.94373 197.756 6.94118C197.715 6.47059 197.96 6.22506 198.471 6.18414C198.982 6.14322 199.269 6.36829 199.289 6.81841C199.555 10.0921 199.555 13.3862 199.289 16.6803C199.269 17.1509 199.003 17.3555 198.471 17.3146C197.96 17.2737 197.715 17.0281 197.756 16.5575C197.879 14.8184 197.94 13.0997 197.92 11.3606H195.59C195.079 11.3606 194.813 11.1355 194.813 10.6854C194.813 10.2353 195.079 10.0102 195.59 10.0102H197.899V9.98977ZM201.64 12.5882C203.602 11.4015 204.603 9.68286 204.603 7.41176C204.603 6.81841 204.869 6.53197 205.421 6.53197C205.973 6.53197 206.198 6.81841 206.198 7.37084C206.198 8.23018 206.095 9.02813 205.87 9.76471C207.363 10.5422 208.323 11.7494 208.732 13.3657C208.834 13.8159 208.65 14.1228 208.16 14.2455C207.669 14.3887 207.363 14.2455 207.26 13.7954C206.892 12.5473 206.238 11.6471 205.319 11.1151C204.685 12.2609 203.704 13.202 202.396 13.9182C201.905 14.1432 201.558 14.0409 201.313 13.5703C201.088 13.1407 201.19 12.8133 201.66 12.5678L201.64 12.5882ZM215.375 18.8491C215.375 20.8951 213.556 21.9386 209.917 22C206.279 22.0614 204.46 21.0793 204.46 19.0332C204.46 16.9872 206.279 15.9437 209.917 15.8824C213.556 15.821 215.375 16.8031 215.375 18.8491ZM209.917 20.6292C212.493 20.5678 213.801 19.9744 213.801 18.8491C213.801 17.7238 212.513 17.1918 209.917 17.2532C207.342 17.3146 206.034 17.9079 206.034 19.0332C206.034 20.1586 207.322 20.6905 209.917 20.6292ZM212.023 7.00256C212.104 7.94373 212.145 8.88491 212.145 9.82609H214.148C214.148 8.92583 214.108 8.02558 214.046 7.10486C214.005 6.53197 214.23 6.24552 214.741 6.2046C215.252 6.16368 215.538 6.38875 215.559 6.83887C215.743 9.27366 215.743 11.7289 215.559 14.1637C215.538 14.6343 215.273 14.8389 214.741 14.798C214.23 14.757 213.985 14.4706 214.046 13.8977C214.108 12.9974 214.148 12.0972 214.148 11.1969H212.145C212.125 12.1381 212.084 13.0588 212.023 14C211.982 14.4706 211.716 14.6752 211.185 14.6547C210.674 14.6138 210.428 14.3683 210.469 13.8772C210.653 11.6471 210.653 9.39642 210.469 7.16624C210.428 6.69565 210.674 6.45013 211.185 6.40921C211.696 6.36829 211.982 6.57289 212.023 7.04348V7.00256ZM217.971 7.32992C217.95 6.85933 218.216 6.61381 218.788 6.61381C219.279 6.61381 219.544 6.85933 219.565 7.32992L219.647 11.7084C219.647 12.2813 219.933 12.5882 220.525 12.6496C221.854 12.7928 223.632 12.6496 225.901 12.3018C226.453 12.2199 226.739 12.3632 226.739 12.7519C226.739 13.2634 226.494 13.5499 226.003 13.6317C223.428 14.1228 221.2 14.2046 219.279 13.8772C218.502 13.7545 218.093 13.2839 218.093 12.4655L217.991 7.32992H217.971ZM222.713 21.8159C221.343 21.8159 220.566 21.1611 220.382 19.8517L220.076 17.4987C219.953 16.5575 220.485 16.087 221.67 16.087H228.906C230.091 16.087 230.602 16.5575 230.479 17.4987L230.193 19.8517C230.009 21.1611 229.233 21.8159 227.863 21.8159H222.733H222.713ZM222.242 17.4373C221.854 17.4373 221.67 17.6829 221.731 18.1739L221.895 19.5448C221.977 20.1586 222.222 20.4655 222.672 20.4655H227.843C228.292 20.4655 228.538 20.1586 228.619 19.5448L228.783 18.1739C228.844 17.6829 228.66 17.4373 228.252 17.4373H222.242ZM228.926 13.8772C229.09 11.6266 229.09 9.3555 228.926 7.0844C228.885 6.51151 229.11 6.22506 229.621 6.18414C230.132 6.14322 230.418 6.36829 230.439 6.81841C230.623 9.2532 230.623 11.7084 230.439 14.1432C230.418 14.6138 230.152 14.8184 229.621 14.7775C229.11 14.7366 228.865 14.4501 228.926 13.8772ZM232.38 18.7877C232.401 18.3376 232.626 18.1125 233.055 18.133C235.875 18.2967 238.696 18.2967 241.537 18.133C241.966 18.1125 242.191 18.3171 242.212 18.7877C242.232 19.2379 242.028 19.4629 241.598 19.4834C238.737 19.6471 235.875 19.6471 233.014 19.4834C232.585 19.4629 232.38 19.2174 232.401 18.7877H232.38ZM241.231 10.7877C241.231 13.509 239.861 14.9003 237.102 14.9616C234.363 15.023 232.993 13.6931 232.993 10.9719C232.993 8.25064 234.363 6.8798 237.102 6.81841C239.861 6.75703 241.231 8.08696 241.231 10.7877ZM237.102 13.6522C238.798 13.5908 239.636 12.6292 239.636 10.7877C239.636 8.94629 238.798 8.0665 237.102 8.10742C235.426 8.1688 234.588 9.10997 234.588 10.9514C234.588 12.7928 235.426 13.6931 237.102 13.6317V13.6522ZM243.683 19.422C244.01 15.2685 244.01 11.0946 243.683 6.94118C243.642 6.47059 243.888 6.22506 244.399 6.18414C244.91 6.14322 245.196 6.36829 245.216 6.81841C245.543 11.0537 245.543 15.289 245.216 19.5448C245.196 20.0153 244.93 20.2199 244.399 20.179C243.888 20.1381 243.642 19.8926 243.683 19.422ZM255.375 14.3683C252.656 14.4706 251.307 13.1816 251.307 10.5422C251.307 7.90281 252.656 6.55243 255.375 6.45013C257.153 6.36829 258.338 6.90026 258.951 8.02558C259.033 8.00512 259.135 7.98465 259.238 7.98465H262.569C262.549 7.69821 262.528 7.3913 262.528 7.0844C262.488 6.51151 262.712 6.22506 263.223 6.18414C263.734 6.14322 264.02 6.36829 264.041 6.81841C264.225 9.2532 264.225 11.7084 264.041 14.1432C264.02 14.6138 263.755 14.8184 263.223 14.7775C262.712 14.7366 262.467 14.4501 262.528 13.8772C262.549 13.468 262.569 13.0384 262.59 12.6292H259.238C259.115 12.6292 258.992 12.6292 258.89 12.5882C258.277 13.6931 257.112 14.2864 255.375 14.3478V14.3683ZM255.375 7.75959C253.719 7.82097 252.881 8.72123 252.881 10.4604C252.881 12.1995 253.719 13.0793 255.375 13.0179C257.03 12.9565 257.848 12.0358 257.848 10.2762C257.848 8.51662 257.03 7.69821 255.375 7.75959ZM252.963 16.9258C252.963 16.4757 253.228 16.2506 253.78 16.2506H263.019C263.55 16.2506 263.836 16.4757 263.836 16.9258V17.9284C263.836 19.3402 263.55 20.5678 262.958 21.6113C262.712 22.0409 262.385 22.1228 261.956 21.8568C261.486 21.5908 261.363 21.2634 261.609 20.8338C262.038 20.0563 262.263 19.0946 262.263 17.9693V17.6624H253.78C253.249 17.6624 252.963 17.4373 252.963 16.9668V16.9258ZM259.36 9.3555C259.401 9.64194 259.422 9.92839 259.422 10.2148C259.422 10.5831 259.401 10.9309 259.34 11.2583H262.631C262.631 10.624 262.631 9.98977 262.631 9.33504H259.36V9.3555ZM266.023 8.0665C266.023 7.65729 266.289 7.43222 266.821 7.43222H269.457V6.77749C269.457 6.26598 269.723 6 270.254 6C270.786 6 271.052 6.26598 271.052 6.77749V7.43222H273.668C274.199 7.43222 274.485 7.63683 274.485 8.0665C274.485 8.49616 274.22 8.70077 273.668 8.70077H273.423C273.79 9.10997 273.974 9.68286 273.974 10.399C273.974 12.4655 272.748 13.5703 270.275 13.6726C267.802 13.7749 266.555 12.7928 266.555 10.7059C266.555 9.84655 266.821 9.17136 267.352 8.70077H266.821C266.289 8.70077 266.023 8.49616 266.023 8.0665ZM267.904 15.6573C267.904 15.2481 268.17 15.023 268.721 15.023H277.347C278.308 15.023 278.737 15.4118 278.655 16.2097L278.471 17.8261C278.369 18.6445 277.878 19.0537 277.04 19.0537H269.927L270.111 20.5678H277.224C277.797 20.5678 278.062 20.7724 278.062 21.202C278.062 21.6317 277.797 21.8363 277.245 21.8363H269.887C269.089 21.8363 268.619 21.4271 268.517 20.6292L268.292 19.0128C268.19 18.2148 268.64 17.8261 269.621 17.8261H276.877L277.02 16.312H268.742C268.17 16.312 267.904 16.1074 267.904 15.6777V15.6573ZM270.254 8.68031C268.844 8.74169 268.129 9.39642 268.129 10.6036C268.129 11.8107 268.844 12.4246 270.254 12.3632C271.665 12.3223 272.36 11.6675 272.36 10.399C272.36 9.31458 271.767 8.72123 270.602 8.65985H270.234L270.254 8.68031ZM276.938 13.1202C277.122 11.0537 277.122 8.98721 276.938 6.94118C276.897 6.47059 277.143 6.22506 277.653 6.18414C278.164 6.14322 278.451 6.36829 278.492 6.81841C278.573 7.71867 278.614 8.61893 278.635 9.49872H281.046C281.557 9.49872 281.823 9.72378 281.823 10.1739C281.823 10.624 281.557 10.8491 281.046 10.8491H278.635C278.614 11.6471 278.553 12.445 278.492 13.2225C278.451 13.6931 278.185 13.8977 277.653 13.8568C277.143 13.8363 276.897 13.5703 276.938 13.0997V13.1202ZM282.171 12.8951C282.191 12.445 282.416 12.2199 282.845 12.2404C287.137 12.5269 291.45 12.5269 295.742 12.2404C296.172 12.2199 296.376 12.4246 296.417 12.8951C296.437 13.3453 296.233 13.5703 295.804 13.5908C291.47 13.8772 287.137 13.8772 282.804 13.5908C282.375 13.5703 282.171 13.3248 282.191 12.8951H282.171ZM283.52 15.8414C283.52 15.3913 283.785 15.1867 284.337 15.1867H293.698C294.639 15.1867 295.068 15.5754 294.986 16.3734L294.782 17.9488C294.679 18.7673 294.189 19.1765 293.351 19.1765H285.523L285.707 20.5064H293.535C294.107 20.5064 294.373 20.7315 294.373 21.1611C294.373 21.5908 294.107 21.8159 293.555 21.8159H285.523C284.705 21.8159 284.235 21.4066 284.133 20.6087L283.928 19.0332C283.826 18.2353 284.255 17.8465 285.236 17.8465H293.187L293.351 16.5166H284.358C283.785 16.5166 283.52 16.2916 283.52 15.8619V15.8414ZM294.986 8.53708C294.986 10.2353 293.085 11.1355 289.283 11.1969C285.482 11.2583 283.56 10.4399 283.56 8.72123C283.56 7.00256 285.461 6.14322 289.283 6.08184C293.085 6.02046 294.986 6.83887 294.986 8.53708ZM289.304 9.92839C292.043 9.86701 293.412 9.41688 293.412 8.55754C293.412 7.69821 292.043 7.30946 289.304 7.37084C286.545 7.43223 285.175 7.88235 285.175 8.74169C285.175 9.60102 286.545 10.0102 289.304 9.92839ZM301.915 9.5601C301.915 9.10997 302.181 8.88491 302.712 8.88491H304.981V6.9821C304.981 6.45013 305.247 6.16368 305.778 6.16368C306.309 6.16368 306.575 6.42967 306.575 6.9821V8.88491H308.844C309.375 8.88491 309.661 9.10997 309.661 9.5601C309.661 10.0102 309.396 10.2353 308.844 10.2353H302.712C302.181 10.2353 301.915 10.0102 301.915 9.5601ZM305.798 19.2992C303.571 19.4015 302.446 18.1739 302.446 15.6573C302.446 13.1407 303.571 11.8517 305.798 11.7494C308.026 11.6471 309.151 12.8542 309.151 15.3708C309.151 17.8875 308.026 19.1969 305.798 19.2992ZM305.778 13.0793C304.613 13.1611 304.02 14 304.02 15.6164C304.02 17.2327 304.613 18.0512 305.798 17.9693C306.964 17.8875 307.556 17.0281 307.556 15.3913C307.556 13.7545 306.964 13.0179 305.778 13.0793ZM314.914 12.4859C314.894 10.6445 314.812 8.80307 314.69 6.94118C314.649 6.47059 314.894 6.22506 315.405 6.18414C315.916 6.14322 316.202 6.36829 316.223 6.81841C316.55 11.0537 316.55 15.289 316.223 19.5448C316.202 20.0153 315.936 20.2199 315.405 20.179C314.894 20.1381 314.649 19.8926 314.69 19.422C314.812 17.5601 314.894 15.7187 314.914 13.8363H312.932C312.911 15.6368 312.83 17.4169 312.687 19.1969C312.646 19.6675 312.38 19.8721 311.849 19.8312C311.338 19.7903 311.092 19.5448 311.133 19.0742C311.46 15.1458 311.46 11.2174 311.133 7.30946C311.092 6.83887 311.338 6.59335 311.849 6.55243C312.359 6.51151 312.646 6.71611 312.687 7.1867C312.83 8.96675 312.911 10.7263 312.932 12.4859H314.914ZM333.657 6.71611C334.209 6.71611 334.475 6.96164 334.475 7.43222L334.332 13.3657C334.291 14.6752 333.637 15.3299 332.329 15.3299H329.835V18.3581C331.716 18.3581 333.596 18.2762 335.476 18.133C335.906 18.1125 336.11 18.3171 336.151 18.7877C336.171 19.2379 335.967 19.4629 335.538 19.4834C331.205 19.7698 326.871 19.7698 322.538 19.4834C322.109 19.4629 321.905 19.2174 321.925 18.7877C321.946 18.3376 322.17 18.1125 322.6 18.133C324.48 18.2762 326.36 18.3376 328.261 18.3581V15.3299H325.747C324.439 15.3299 323.785 14.6752 323.765 13.3657L323.622 7.43222C323.622 6.96164 323.887 6.71611 324.439 6.71611C324.93 6.71611 325.195 6.96164 325.216 7.43222L325.277 9.70332H332.86L332.921 7.43222C332.942 6.96164 333.208 6.71611 333.698 6.71611H333.657ZM325.277 11.0742L325.339 13.1611C325.339 13.7954 325.584 14.1023 326.095 14.1023H331.981C332.472 14.1023 332.717 13.7954 332.738 13.1611L332.799 11.0742H325.277ZM337.929 17.4783C339.953 16.2302 340.954 13.1202 340.954 8.1688C340.954 7.57545 341.22 7.26854 341.772 7.26854C342.324 7.26854 342.548 7.55499 342.548 8.14834C342.548 10.0102 342.426 11.6266 342.16 13.0179C343.509 14.1023 344.49 15.821 345.103 18.1944C345.206 18.6445 345.022 18.9514 344.572 19.0742C344.102 19.2174 343.816 19.0537 343.693 18.6036C343.202 16.8849 342.569 15.5754 341.751 14.6752C341.118 16.6189 340.157 17.9898 338.849 18.7468C338.379 19.0332 338.011 18.9719 337.704 18.5013C337.439 18.0716 337.52 17.7238 337.95 17.4783H337.929ZM347.27 12.5064C347.249 10.7877 347.168 9.04859 347.025 7.30946C346.984 6.83887 347.229 6.59335 347.74 6.55243C348.251 6.51151 348.537 6.71611 348.578 7.1867C348.905 11.1969 348.905 15.2072 348.578 19.2174C348.537 19.688 348.271 19.8926 347.74 19.8517C347.229 19.8107 346.984 19.5652 347.025 19.0946C347.168 17.3555 347.249 15.6164 347.27 13.8772H345.676C345.165 13.8772 344.919 13.6522 344.919 13.202C344.919 12.7519 345.165 12.5269 345.676 12.5269H347.27V12.5064ZM350.397 19.422C350.724 15.2685 350.724 11.0946 350.397 6.94118C350.356 6.47059 350.602 6.22506 351.113 6.18414C351.624 6.14322 351.91 6.36829 351.93 6.81841C352.257 11.0537 352.257 15.289 351.93 19.5448C351.91 20.0153 351.644 20.2199 351.113 20.179C350.602 20.1381 350.356 19.8926 350.397 19.422ZM357.449 14.798C357.449 14.798 357.449 14.6138 357.449 14.532C355.793 13.9591 354.976 12.7724 354.976 10.9514C354.976 8.23018 356.876 6.85934 360.699 6.79795C364.5 6.73657 366.401 8.0665 366.401 10.7673C366.401 12.5678 365.563 13.7954 363.908 14.4297C363.928 14.532 363.948 14.6547 363.948 14.7775V18.2762C365.011 18.2353 366.074 18.1944 367.137 18.1125C367.566 18.0921 367.771 18.2967 367.811 18.7673C367.832 19.2174 367.628 19.4425 367.198 19.4629C362.865 19.7494 358.532 19.7494 354.199 19.4629C353.77 19.4425 353.565 19.1969 353.586 18.7673C353.606 18.3171 353.831 18.0921 354.26 18.1125C355.323 18.1944 356.386 18.2353 357.449 18.2762V14.7775V14.798ZM360.719 13.6522C363.458 13.5908 364.827 12.6292 364.827 10.7877C364.827 8.94629 363.458 8.0665 360.719 8.10742C357.96 8.1688 356.59 9.10997 356.59 10.9514C356.59 12.7928 357.96 13.6931 360.719 13.6317V13.6522ZM362.375 14.8389C361.864 14.9207 361.312 14.9616 360.719 14.9616C360.106 14.9616 359.554 14.9616 359.043 14.8798V18.3171C360.167 18.3376 361.271 18.3376 362.375 18.3171V14.8184V14.8389ZM369.058 19.156C369.058 18.5422 369.385 18.2353 370.039 18.2353C370.693 18.2353 371 18.5422 371 19.156V19.2992C371 19.8926 370.673 20.1995 370.039 20.1995C369.406 20.1995 369.058 19.8926 369.058 19.2992V19.156Z" fill="#231815"/>
</g>
<defs>
<clipPath id="clip0_1_148917">
<rect width="321" height="16" fill="white" transform="translate(50 6)"/>
</clipPath>
</defs>
</svg>
