<svg width="52" height="52" viewBox="0 0 52 52" fill="none" xmlns="http://www.w3.org/2000/svg">
<path d="M7.08 30.04V32.04C7.08 38.12 8.44 44.16 12.56 49.8H8.88C4.92 45.08 3 38.96 3 31.84V30.24C3 23.12 4.92 17.08 8.88 12.36H12.56C8.64 17.64 7.08 23.64 7.08 30.04ZM19.3166 21.16L16.4766 19.08C18.1566 16.68 20.5566 14.76 24.8766 14.76C30.1966 14.76 33.5966 17.64 33.5966 21.96V22.36C33.5966 24.64 32.6366 27.6 29.0766 28.88C32.9566 29.56 34.9166 32.2 34.9166 35.52V36.12C34.9166 40.36 31.9166 44.48 24.8366 44.48C21.4766 44.48 18.3166 43.44 15.5966 41.28L17.5566 38.12C20.3566 40.16 22.3566 40.88 24.8366 40.88C29.0366 40.88 30.9566 38.76 30.9566 36.16V35.64C30.9566 31.84 28.3566 30.72 24.9966 30.72H21.4366V27.28H24.8366C28.4366 27.28 29.6766 24.88 29.6766 22.4V22.08C29.6766 19.56 27.5166 18.28 24.9166 18.28C22.5566 18.28 20.8766 19.12 19.3166 21.16ZM44.2906 32.04V30.04C44.2906 23.64 42.7306 17.64 38.8106 12.36H42.4906C46.4506 17.08 48.3706 23.12 48.3706 30.24V31.84C48.3706 38.96 46.4506 45.08 42.4906 49.8H38.8106C42.9306 44.16 44.2906 38.12 44.2906 32.04Z" fill="#204614"/>
</svg>
