<svg width="52" height="52" viewBox="0 0 52 52" fill="none" xmlns="http://www.w3.org/2000/svg">
<path d="M7.08 29.04V31.04C7.08 37.12 8.44 43.16 12.56 48.8H8.88C4.92 44.08 3 37.96 3 30.84V29.24C3 22.12 4.92 16.08 8.88 11.36H12.56C8.64 16.64 7.08 22.64 7.08 29.04ZM16.0366 39.72L26.7966 28.04C30.0766 24.44 30.3966 22.84 30.3966 21.32V21C30.3966 18.72 28.4366 17.32 25.4366 17.32C23.3166 17.32 21.0366 18.16 19.1566 21.52L16.1166 19.56C17.4766 17.08 20.0366 13.76 25.3566 13.76C31.1966 13.76 34.3566 16.8 34.3566 21V21.4C34.3566 24.52 32.5166 27.24 29.9166 30L20.9166 39.6H35.3966V43.04H16.0366V39.72ZM44.2906 31.04V29.04C44.2906 22.64 42.7306 16.64 38.8106 11.36H42.4906C46.4506 16.08 48.3706 22.12 48.3706 29.24V30.84C48.3706 37.96 46.4506 44.08 42.4906 48.8H38.8106C42.9306 43.16 44.2906 37.12 44.2906 31.04Z" fill="#204614"/>
</svg>
