<svg width="217" height="37" viewBox="0 0 217 37" fill="none" xmlns="http://www.w3.org/2000/svg">
<rect width="217" height="37" rx="10" fill="#41674B"/>
<path d="M12.784 11.72H19.968V21.432H12.784V11.72ZM17.952 19.72V13.432H14.8V19.72H17.952ZM23.872 10.424V15.656H25.92V17.416H23.872V25.304H21.84V10.424H23.872ZM26.4696 18.92H40.1016V20.632H34.3096V25.304H32.2776V20.632H26.4696V18.92ZM33.2856 17.768C30.3576 17.768 28.1816 16.616 28.1816 14.568V13.896C28.1816 11.848 30.3576 10.696 33.2856 10.696C36.2136 10.696 38.3896 11.848 38.3896 13.896V14.568C38.3896 16.616 36.2136 17.768 33.2856 17.768ZM33.2856 12.408C31.5096 12.408 30.1656 13.016 30.1656 13.992V14.472C30.1656 15.448 31.5096 16.056 33.2856 16.056C35.0616 16.056 36.4056 15.448 36.4056 14.472V13.992C36.4056 13.016 35.0616 12.408 33.2856 12.408ZM40.8753 21.72H54.5073V23.432H40.8753V21.72ZM47.7553 16.328H47.7393C47.5793 16.696 46.9873 17.096 46.1873 17.64C45.3233 18.216 44.1873 18.904 42.6513 19.768L41.6593 18.168C42.8273 17.512 44.1073 16.76 45.0353 16.12C46.2993 15.256 46.6673 14.472 46.6673 13.08V11.432H48.7153V13.08C48.7153 14.472 49.0833 15.256 50.3473 16.12C51.2753 16.76 52.5553 17.512 53.7233 18.168L52.7473 19.736C51.2113 18.872 50.0753 18.184 49.2113 17.608C48.4113 17.064 47.9153 16.68 47.7553 16.328ZM67.3449 19.72H63.1049V21.736H68.9129V23.432H55.2809V21.736H61.0889V19.72H57.1049V14.76H64.9929V13.176H57.0569V11.48H67.0089V16.44H59.1209V18.024H67.3449V19.72ZM76.8385 21.48V19.768H86.6945V25.48H84.6785V21.48H76.8385ZM86.6945 10.424V19.096H84.6785V10.424H86.6945ZM75.2225 12.984V11.272H82.9345V12.984H80.1505V13.8C80.1505 14.584 80.3425 15.048 81.1905 15.704C81.8625 16.216 82.6785 16.776 83.4785 17.288L82.3905 18.712C81.6865 18.248 80.9985 17.768 80.4065 17.336C79.7345 16.84 79.3185 16.472 79.2545 16.312H79.2385C79.1745 16.504 78.7265 16.936 77.9905 17.512C77.3025 18.056 76.5825 18.616 75.7825 19.176L74.5985 17.704C75.6065 17.016 76.5825 16.264 77.2545 15.672C77.8145 15.176 78.1345 14.584 78.1345 13.8V12.984H75.2225ZM99.0841 18.824H101.084V25.32H91.6121V18.824H93.6121V20.472H99.0841V18.824ZM99.0681 18.152V15.512H96.6841V13.8H99.0681V10.424H101.084V18.152H99.0681ZM93.6121 23.656H99.0841V22.136H93.6121V23.656ZM89.4361 12.968V11.256H97.1161V12.968H94.3481V13.816C94.3481 14.552 94.5401 14.936 95.4841 15.576C96.0921 15.992 96.9241 16.504 97.6601 16.936L96.6361 18.392C95.9481 17.976 95.2761 17.56 94.6201 17.128C93.9641 16.696 93.5641 16.376 93.4681 16.2H93.4521C93.3721 16.392 92.9721 16.744 92.2681 17.256C91.6121 17.736 90.9081 18.216 89.9161 18.856L88.8121 17.336C89.8361 16.696 90.7001 16.104 91.4361 15.528C92.1241 14.984 92.3321 14.552 92.3321 13.816V12.968H89.4361ZM112.706 20.152V23.416H120.386V25.144H110.674V20.152H112.706ZM116.13 12.264H118.146V10.424H120.146V21.016H118.146V17.624H116.13V15.912H118.146V13.976H116.13V12.264ZM111.842 18.744C109.49 18.744 108.018 17.112 108.018 15.304V14.408C108.018 12.6 109.49 10.968 111.842 10.968C114.194 10.968 115.666 12.6 115.666 14.408V15.304C115.666 17.112 114.194 18.744 111.842 18.744ZM111.842 12.712C110.642 12.712 109.922 13.592 109.922 14.552V15.16C109.922 16.12 110.642 17 111.842 17C113.042 17 113.762 16.12 113.762 15.16V14.552C113.762 13.592 113.042 12.712 111.842 12.712ZM125.127 18.552H134.535V22.744H127.159V23.848H134.983V25.448H125.207V21.224H132.583V20.136H125.127V18.552ZM130.295 11.944H132.535V10.424H134.535V17.88H132.535V16.568H130.039V14.888H132.535V13.624H130.295V11.944ZM123.095 18.456L122.391 16.888C126.967 15.224 127.527 14.664 127.527 13.224V12.712H123.015V11.016H129.543V13.352C129.543 15.912 128.135 16.632 123.095 18.456ZM146.477 10.728V15.8H147.741V10.424H149.661V25.304H147.741V17.544H146.477V24.584H144.557V10.728H146.477ZM140.333 21.624C138.189 21.624 137.021 20.168 137.021 18.728V17.96C137.021 16.52 138.189 15.064 140.333 15.064C142.477 15.064 143.645 16.52 143.645 17.96V18.728C143.645 20.168 142.477 21.624 140.333 21.624ZM136.509 12.824H139.325V10.84H141.293V12.824H143.821V14.488H136.509V12.824ZM140.333 16.68C139.293 16.68 138.781 17.48 138.781 18.072V18.616C138.781 19.208 139.293 20.008 140.333 20.008C141.373 20.008 141.885 19.208 141.885 18.616V18.072C141.885 17.48 141.373 16.68 140.333 16.68ZM167.427 19.288H163.459V21.72H169.267V23.432H155.635V21.72H161.443V19.288H157.475V11.448H159.491V13.832H165.411V11.448H167.427V19.288ZM159.491 17.592H165.411V15.544H159.491V17.592ZM178.072 24.584V16.792H176.072V15.032H178.072V10.728H179.992V24.584H178.072ZM172.68 15.192V11.608H174.68V15.192C174.68 16.408 174.968 17.064 175.64 17.896C176.232 18.632 176.984 19.448 177.72 20.184L176.392 21.416C175.704 20.712 175.096 20.056 174.616 19.496C174.136 18.936 173.88 18.6 173.784 18.376H173.768C173.688 18.6 173.336 19.096 172.936 19.56C172.504 20.056 171.688 20.968 170.968 21.672L169.608 20.36C170.296 19.688 171.096 18.824 171.704 18.056C172.456 17.096 172.68 16.472 172.68 15.192ZM183.016 10.424V25.304H181.096V10.424H183.016ZM184.446 21.736H187.646V18.376C186.718 17.72 186.158 16.76 186.158 15.624V14.888C186.158 12.632 188.35 11.128 191.262 11.128C194.174 11.128 196.366 12.632 196.366 14.888V15.624C196.366 16.776 195.806 17.72 194.878 18.376V21.736H198.078V23.432H184.446V21.736ZM191.262 12.824C189.598 12.824 188.142 13.688 188.142 15V15.512C188.142 16.824 189.598 17.688 191.262 17.688C192.926 17.688 194.382 16.824 194.382 15.512V15C194.382 13.688 192.926 12.824 191.262 12.824ZM191.262 19.384C190.686 19.384 190.142 19.32 189.63 19.208V21.736H192.894V19.208C192.382 19.32 191.838 19.384 191.262 19.384ZM200.516 24.152V22.072H202.548V24.152H200.516Z" fill="#CDEED3"/>
</svg>
