<svg width="444" height="340" viewBox="0 0 444 340" fill="none" xmlns="http://www.w3.org/2000/svg">
<path d="M293.302 331.536C295.004 335.495 292.099 339.904 287.79 339.904H6.00649C1.69659 339.904 -1.20762 335.495 0.493815 331.536L18.3387 290.004C19.2854 287.801 21.4532 286.373 23.8514 286.373H269.945C272.343 286.373 274.511 287.801 275.457 290.004L293.302 331.536ZM261.478 257.469C263.179 261.429 260.275 265.838 255.965 265.838H37.8307C33.5208 265.838 30.6166 261.429 32.318 257.469L50.1034 216.077C51.0501 213.873 53.2179 212.445 55.616 212.445H238.18C240.578 212.445 242.746 213.873 243.693 216.077L261.478 257.469ZM229.713 183.541C231.415 187.501 228.511 191.91 224.201 191.91H69.5954C65.2855 191.91 62.3812 187.501 64.0827 183.541L81.868 142.149C82.8147 139.946 84.9825 138.518 87.3807 138.518H206.415C208.814 138.518 210.981 139.946 211.928 142.149L229.713 183.541ZM197.949 109.614C199.65 113.574 196.746 117.982 192.436 117.982H101.36C97.0501 117.982 94.1459 113.574 95.8474 109.614L113.633 68.2221C114.579 66.0188 116.747 64.5908 119.145 64.5908H174.651C177.049 64.5908 179.217 66.0188 180.163 68.2221L197.949 109.614ZM166.184 35.686C167.885 39.6458 164.981 44.0546 160.671 44.0546H133.125C128.815 44.0546 125.911 39.6458 127.612 35.686L141.385 3.63131C143.466 -1.21044 150.33 -1.21043 152.411 3.63131L166.184 35.686Z" fill="#5B87B8"/>
<path d="M145.76 25.9043C145.76 28.8498 148.148 31.2376 151.094 31.2376C154.039 31.2376 156.427 28.8498 156.427 25.9043C156.427 22.9588 154.039 20.571 151.094 20.571C148.148 20.571 145.76 22.9588 145.76 25.9043ZM443.094 25.9043L433.094 20.1308V31.6778L443.094 25.9043ZM151.094 25.9043V26.9043H434.094V25.9043V24.9043H151.094V25.9043Z" fill="#AAC8DE"/>
<path d="M145.76 97.9043C145.76 100.85 148.148 103.238 151.094 103.238C154.039 103.238 156.427 100.85 156.427 97.9043C156.427 94.9588 154.039 92.571 151.094 92.571C148.148 92.571 145.76 94.9588 145.76 97.9043ZM443.094 97.9043L433.094 92.1308V103.678L443.094 97.9043ZM151.094 97.9043V98.9043H434.094V97.9043V96.9043H151.094V97.9043Z" fill="#AAC8DE"/>
<path d="M145.76 169.904C145.76 172.85 148.148 175.238 151.094 175.238C154.039 175.238 156.427 172.85 156.427 169.904C156.427 166.959 154.039 164.571 151.094 164.571C148.148 164.571 145.76 166.959 145.76 169.904ZM443.094 169.904L433.094 164.131V175.678L443.094 169.904ZM151.094 169.904V170.904H434.094V169.904V168.904H151.094V169.904Z" fill="#AAC8DE"/>
<path d="M145.76 241.904C145.76 244.85 148.148 247.238 151.094 247.238C154.039 247.238 156.427 244.85 156.427 241.904C156.427 238.959 154.039 236.571 151.094 236.571C148.148 236.571 145.76 238.959 145.76 241.904ZM443.094 241.904L433.094 236.131V247.678L443.094 241.904ZM151.094 241.904V242.904H434.094V241.904V240.904H151.094V241.904Z" fill="#AAC8DE"/>
<path d="M145.76 313.904C145.76 316.85 148.148 319.238 151.094 319.238C154.039 319.238 156.427 316.85 156.427 313.904C156.427 310.959 154.039 308.571 151.094 308.571C148.148 308.571 145.76 310.959 145.76 313.904ZM443.094 313.904L433.094 308.131V319.678L443.094 313.904ZM151.094 313.904V314.904H434.094V313.904V312.904H151.094V313.904Z" fill="#AAC8DE"/>
</svg>
