<svg width="601" height="60" viewBox="0 0 601 60" fill="none" xmlns="http://www.w3.org/2000/svg">
<rect x="38" y="5" width="563" height="50" rx="25" fill="url(#paint0_linear_277_118)"/>
<path d="M30 55C43.794 55 55 43.794 55 30C55 16.206 43.794 5 30 5C16.206 5 5 16.206 5 30C5 43.794 16.206 55 30 55Z" fill="white" stroke="#E4E4E3" stroke-width="8.57143"/>
<path d="M33.87 29.276C34.754 29.7613 35.4734 30.4287 36.028 31.278C36.6 32.1273 36.886 32.9593 36.886 33.774C36.886 34.8487 36.5914 35.8107 36.002 36.66C35.43 37.492 34.6154 38.142 33.558 38.61C32.518 39.078 31.3307 39.312 29.996 39.312C28.6614 39.312 27.4654 39.0607 26.408 38.558C25.368 38.0553 24.5534 37.3533 23.964 36.452C23.392 35.5507 23.106 34.528 23.106 33.384H27.058C27.058 33.852 27.1794 34.2767 27.422 34.658C27.682 35.022 28.0287 35.308 28.462 35.516C28.9127 35.724 29.424 35.828 29.996 35.828C30.6027 35.828 31.14 35.724 31.608 35.516C32.076 35.308 32.44 35.022 32.7 34.658C32.9774 34.2767 33.116 33.852 33.116 33.384C33.116 32.8987 32.986 32.4653 32.726 32.084C32.466 31.7027 32.102 31.408 31.634 31.2C31.166 30.9747 30.6374 30.862 30.048 30.862H28.748V27.742H30.1C30.6374 27.742 31.1054 27.6467 31.504 27.456C31.92 27.2653 32.2407 26.9967 32.466 26.65C32.7087 26.3033 32.83 25.9133 32.83 25.48C32.83 24.8733 32.5787 24.3793 32.076 23.998C31.5907 23.5993 30.958 23.4 30.178 23.4C29.6927 23.4 29.2594 23.4867 28.878 23.66C28.514 23.8333 28.2194 24.0847 27.994 24.414C27.786 24.726 27.682 25.0813 27.682 25.48H23.73C23.73 24.4053 23.9987 23.4433 24.536 22.594C25.0907 21.7447 25.8534 21.086 26.824 20.618C27.812 20.15 28.93 19.916 30.178 19.916C31.4087 19.916 32.5094 20.1413 33.48 20.592C34.4507 21.0253 35.2047 21.632 35.742 22.412C36.2967 23.192 36.574 24.0847 36.574 25.09C36.574 25.8527 36.3227 26.624 35.82 27.404C35.3174 28.184 34.6674 28.808 33.87 29.276Z" fill="#727171"/>
<defs>
<linearGradient id="paint0_linear_277_118" x1="38" y1="30" x2="601" y2="30" gradientUnits="userSpaceOnUse">
<stop offset="0.5" stop-color="#E4E4E3"/>
<stop offset="1" stop-color="white" stop-opacity="0"/>
</linearGradient>
</defs>
</svg>
