<svg width="149" height="66" viewBox="0 0 149 66" fill="none" xmlns="http://www.w3.org/2000/svg">
<path d="M29.5059 11.4205V53.6919H131.525C140.849 53.6919 148.414 46.1146 148.414 36.7773V28.3052C148.414 18.9679 140.849 11.3906 131.525 11.3906H29.5059V11.4205Z" fill="#DDEFE6"/>
<path d="M26.0807 2.50781H15.0894C14.1518 2.50781 13.3916 3.26911 13.3916 4.20822V20.1085C13.3916 21.0476 14.1518 21.8089 15.0894 21.8089H26.0807C27.0184 21.8089 27.7786 21.0476 27.7786 20.1085V4.20822C27.7786 3.26911 27.0184 2.50781 26.0807 2.50781Z" fill="#FDD46E"/>
<path d="M11.5126 8.59233H29.6528C34.2995 8.59233 38.1122 12.3809 38.1122 17.0645V50.5058C38.1122 55.1595 34.3293 58.9481 29.6825 58.9481H11.5424C6.89571 58.9481 3.08301 55.1595 3.08301 50.4759V17.0347C3.08301 12.3809 6.86592 8.5625 11.5424 8.5625L11.5126 8.59233Z" fill="white"/>
<path d="M11.5126 8.59233H29.6528C34.2995 8.59233 38.1122 12.3809 38.1122 17.0645V50.5058C38.1122 55.1595 34.3293 58.9481 29.6825 58.9481H11.5424C6.89571 58.9481 3.08301 55.1595 3.08301 50.4759V17.0347C3.08301 12.3809 6.86592 8.5625 11.5424 8.5625L11.5126 8.59233Z" stroke="#FDD46E" stroke-width="2.20754"/>
<path d="M29.5944 12.9453H11.5139C9.17789 12.9453 7.28418 14.8419 7.28418 17.1814V21.1788C7.28418 23.5184 9.17789 25.4149 11.5139 25.4149H29.5944C31.9304 25.4149 33.8241 23.5184 33.8241 21.1788V17.1814C33.8241 14.8419 31.9304 12.9453 29.5944 12.9453Z" fill="white"/>
<path d="M29.5944 27.5391H11.5139C9.17789 27.5391 7.28418 29.4356 7.28418 31.7752V35.7726C7.28418 38.1121 9.17789 40.0087 11.5139 40.0087H29.5944C31.9304 40.0087 33.8241 38.1121 33.8241 35.7726V31.7752C33.8241 29.4356 31.9304 27.5391 29.5944 27.5391Z" fill="white"/>
<path d="M29.5944 42.1172H11.5139C9.17789 42.1172 7.28418 44.0138 7.28418 46.3533V50.3507C7.28418 52.6902 9.17789 54.5868 11.5139 54.5868H29.5944C31.9304 54.5868 33.8241 52.6902 33.8241 50.3507V46.3533C33.8241 44.0138 31.9304 42.1172 29.5944 42.1172Z" fill="#DDEFE6"/>
</svg>
