<svg width="150" height="66" viewBox="0 0 150 66" fill="none" xmlns="http://www.w3.org/2000/svg">
<path d="M30.2129 11.4205V53.6919H132.232C141.556 53.6919 149.121 46.1146 149.121 36.7773V28.3052C149.121 18.9679 141.556 11.3906 132.232 11.3906H30.2129V11.4205Z" fill="#B2DBC8"/>
<path d="M26.7585 2.50781H15.7672C14.8295 2.50781 14.0693 3.26911 14.0693 4.20822V20.1085C14.0693 21.0476 14.8295 21.8089 15.7672 21.8089H26.7585C27.6962 21.8089 28.4563 21.0476 28.4563 20.1085V4.20822C28.4563 3.26911 27.6962 2.50781 26.7585 2.50781Z" fill="#FDD46E"/>
<path d="M12.2207 8.59233H30.3608C35.0075 8.59233 38.8202 12.3809 38.8202 17.0645V50.5058C38.8202 55.1595 35.0373 58.9481 30.3906 58.9481H12.2505C7.60375 58.9481 3.79102 55.1595 3.79102 50.4759V17.0347C3.79102 12.3809 7.57396 8.5625 12.2505 8.5625L12.2207 8.59233Z" fill="white"/>
<path d="M12.2207 8.59233H30.3608C35.0075 8.59233 38.8202 12.3809 38.8202 17.0645V50.5058C38.8202 55.1595 35.0373 58.9481 30.3906 58.9481H12.2505C7.60375 58.9481 3.79102 55.1595 3.79102 50.4759V17.0347C3.79102 12.3809 7.57396 8.5625 12.2505 8.5625L12.2207 8.59233Z" stroke="#FDD46E" stroke-width="2.20754"/>
<path d="M30.3025 12.9453H12.2219C9.88589 12.9453 7.99219 14.8419 7.99219 17.1814V21.1788C7.99219 23.5184 9.88589 25.4149 12.2219 25.4149H30.3025C32.6385 25.4149 34.5322 23.5184 34.5322 21.1788V17.1814C34.5322 14.8419 32.6385 12.9453 30.3025 12.9453Z" fill="white"/>
<path d="M30.3025 27.5391H12.2219C9.88589 27.5391 7.99219 29.4356 7.99219 31.7752V35.7726C7.99219 38.1121 9.88589 40.0087 12.2219 40.0087H30.3025C32.6385 40.0087 34.5322 38.1121 34.5322 35.7726V31.7752C34.5322 29.4356 32.6385 27.5391 30.3025 27.5391Z" fill="#B2DBC8"/>
<path d="M30.3025 42.1172H12.2219C9.88589 42.1172 7.99219 44.0138 7.99219 46.3533V50.3507C7.99219 52.6902 9.88589 54.5868 12.2219 54.5868H30.3025C32.6385 54.5868 34.5322 52.6902 34.5322 50.3507V46.3533C34.5322 44.0138 32.6385 42.1172 30.3025 42.1172Z" fill="#DDEFE6"/>
</svg>
