<svg width="148" height="59" viewBox="0 0 148 59" fill="none" xmlns="http://www.w3.org/2000/svg">
<path d="M28.2129 8.42046V50.6919H130.232C139.556 50.6919 147.121 43.1146 147.121 33.7773V25.3052C147.121 15.9679 139.556 8.39062 130.232 8.39062H28.2129V8.42046Z" fill="#8CCCB1"/>
<path d="M24.7585 0.796875H13.7672C12.8295 0.796875 12.0693 1.55817 12.0693 2.49728V18.3975C12.0693 19.3366 12.8295 20.0979 13.7672 20.0979H24.7585C25.6962 20.0979 26.4564 19.3366 26.4564 18.3975V2.49728C26.4564 1.55817 25.6962 0.796875 24.7585 0.796875Z" fill="#FDD46E"/>
<path d="M10.1923 6.88139H28.3324C32.9791 6.88139 36.7918 10.67 36.7918 15.3536V48.7948C36.7918 53.4486 33.0089 57.2372 28.3622 57.2372H10.2221C5.57538 57.2372 1.7627 53.4486 1.7627 48.765V15.3237C1.7627 10.67 5.5456 6.85156 10.2221 6.85156L10.1923 6.88139Z" fill="white"/>
<path d="M10.1923 6.88139H28.3324C32.9791 6.88139 36.7918 10.67 36.7918 15.3536V48.7948C36.7918 53.4486 33.0089 57.2372 28.3622 57.2372H10.2221C5.57538 57.2372 1.7627 53.4486 1.7627 48.765V15.3237C1.7627 10.67 5.5456 6.85156 10.2221 6.85156L10.1923 6.88139Z" stroke="#FDD46E" stroke-width="2.20754"/>
<path d="M28.3025 11.2383H10.2219C7.88593 11.2383 5.99219 13.1348 5.99219 15.4744V19.4718C5.99219 21.8113 7.88593 23.7079 10.2219 23.7079H28.3025C30.6385 23.7079 32.5322 21.8113 32.5322 19.4718V15.4744C32.5322 13.1348 30.6385 11.2383 28.3025 11.2383Z" fill="#8CCCB1"/>
<path d="M28.3025 25.8281H10.2219C7.88593 25.8281 5.99219 27.7247 5.99219 30.0642V34.0617C5.99219 36.4012 7.88593 38.2977 10.2219 38.2977H28.3025C30.6385 38.2977 32.5322 36.4012 32.5322 34.0617V30.0642C32.5322 27.7247 30.6385 25.8281 28.3025 25.8281Z" fill="#B8DECB"/>
<path d="M28.3025 40.4062H10.2219C7.88593 40.4062 5.99219 42.3028 5.99219 44.6423V48.6398C5.99219 50.9793 7.88593 52.8759 10.2219 52.8759H28.3025C30.6385 52.8759 32.5322 50.9793 32.5322 48.6398V44.6423C32.5322 42.3028 30.6385 40.4062 28.3025 40.4062Z" fill="#DDEFE6"/>
</svg>
