<svg width="123" height="30" viewBox="0 0 123 30" fill="none" xmlns="http://www.w3.org/2000/svg">
<path d="M14.9996 0C6.73262 0 0 6.73278 0 15C0 23.2672 6.73262 30 14.9996 30H107.91C116.208 30 122.909 23.2672 122.909 15C122.909 6.73278 116.177 0 107.91 0H14.9996Z" fill="#DCDDDD"/>
<path d="M33.883 16.4374C33.1628 16.4374 32.8496 16.0616 32.8496 15.2474C32.8496 14.4332 33.1628 14.0261 33.883 14.0261H49.9786C50.7302 14.0261 51.012 14.4332 51.012 15.2474C51.012 16.0616 50.6989 16.4374 49.9786 16.4374H33.883ZM35.2608 24.2348C34.478 24.2348 34.0396 23.7651 34.0396 22.9509V18.9739C34.0396 18.1597 34.478 17.69 35.2608 17.69H48.82C49.5402 17.69 49.8221 18.1597 49.8221 18.8799C49.8221 19.6628 49.5089 20.0699 48.82 20.0699H36.5134V21.9175H49.0079C49.7281 21.9175 50.01 22.3559 50.01 23.1075C50.01 23.8591 49.6968 24.2975 49.0079 24.2975H35.2608V24.2348ZM35.4174 12.9614C34.5093 12.9614 34.1022 12.5856 34.1022 11.7401V7.04278C34.1022 6.13464 34.5093 5.75886 35.4174 5.75886H48.7261C49.4463 5.75886 49.7281 6.13464 49.7281 6.91752C49.7281 7.7004 49.415 8.07618 48.7261 8.07618H36.576V10.644H48.7887C49.5089 10.644 49.7908 11.0198 49.7908 11.8027C49.7908 12.5856 49.4776 12.9614 48.7887 12.9614H35.3861H35.4174ZM53.8929 21.7609L60.6882 8.29539H53.204C52.4838 8.29539 52.202 7.95092 52.202 7.10541C52.202 6.2599 52.5151 5.91543 53.204 5.91543H62.4731C63.5378 5.91543 64.1328 6.85489 63.4752 8.1075L55.991 22.8257C55.6152 23.5772 55.1142 23.7338 54.3314 23.3267C53.7051 23.0136 53.5172 22.4812 53.8929 21.7609ZM66.9198 23.1388V6.38516C66.9198 5.6336 67.3269 5.25781 68.2037 5.25781C69.0805 5.25781 69.4563 5.6336 69.4563 6.38516V23.1075C69.4563 23.8904 69.0492 24.2348 68.2037 24.2348C67.3582 24.2348 66.9198 23.8591 66.9198 23.1075V23.1388ZM93.13 21.3538C93.8816 21.3538 94.1634 21.7296 94.1634 22.5438C94.1634 23.358 93.8502 23.7338 93.13 23.7338H77.0344C76.3141 23.7338 76.001 23.358 76.001 22.5438C76.001 21.7296 76.3141 21.3538 77.0344 21.3538H83.8296V18.285C83.8296 17.5334 84.2367 17.1889 85.0822 17.1889C85.9277 17.1889 86.3348 17.5334 86.3348 18.285V21.3538H93.13ZM78.4435 16.2808C77.5354 16.2808 77.1596 15.905 77.1596 15.0282V7.26199C77.1596 6.35385 77.5667 5.91543 78.4435 5.91543H92.0027C92.7229 5.91543 93.0048 6.29122 93.0048 7.10541C93.0048 7.91961 92.6916 8.29539 92.0027 8.29539H79.6335V13.9321H92.0653C92.7856 13.9321 93.0674 14.3392 93.0674 15.1221C93.0674 15.905 92.7542 16.3121 92.0653 16.3121H78.4122L78.4435 16.2808ZM101.648 13.4311L97.8272 16.3747C97.2948 16.7818 96.7312 16.6252 96.2615 15.905C95.8231 15.2474 95.917 14.7463 96.4493 14.3392L100.395 11.333V8.32671H97.1383C96.3867 8.32671 96.1362 7.95092 96.1362 7.13673C96.1362 6.32253 96.3867 5.97806 97.1383 5.97806H106.157C106.908 5.97806 107.159 6.35385 107.159 7.13673C107.159 7.91961 106.908 8.32671 106.157 8.32671H102.9V11.333L106.877 14.3705C107.409 14.7776 107.503 15.2787 107.065 15.9363C106.595 16.6566 106.032 16.8131 105.499 16.406L101.679 13.4624L101.648 13.4311ZM112.013 21.8549C112.733 21.8549 113.015 22.2307 113.015 23.0449C113.015 23.8591 112.702 24.2348 112.013 24.2348H98.7353C97.8272 24.2348 97.4514 23.7964 97.4514 22.9822V18.7547C97.4514 17.9718 97.8585 17.6273 98.6727 17.6273C99.5495 17.6273 99.9566 18.0031 99.9566 18.7547V21.8549H111.981H112.013ZM110.04 9.70458V6.38516C110.04 5.6336 110.478 5.25781 111.324 5.25781C112.169 5.25781 112.608 5.6336 112.608 6.38516V17.8152C112.608 18.5981 112.201 18.9426 111.324 18.9426C110.447 18.9426 110.04 18.5981 110.04 17.8152V12.1785H106.877C106.063 12.1785 105.656 11.6774 105.656 10.9259C105.656 10.1743 106.063 9.70458 106.877 9.70458H110.04Z" fill="#727171"/>
<path d="M14.6245 27.1207C21.2945 27.1207 26.7119 21.7032 26.7119 15.0331C26.7119 8.36292 21.2945 2.91406 14.6245 2.91406C7.95452 2.91406 2.53711 8.3316 2.53711 15.0017C2.53711 21.6719 7.95452 27.0894 14.6245 27.0894" fill="white"/>
<path d="M5.73145 18.8224C5.73145 19.0416 5.91933 19.2295 6.13853 19.2295H6.95271C7.17191 19.2295 7.3598 19.0416 7.3598 18.8224V16.5364C7.3598 16.3172 7.17191 16.1293 6.95271 16.1293H6.13853C5.91933 16.1293 5.73145 16.3172 5.73145 16.5364V18.8224ZM7.579 19.8245C7.579 20.4508 8.08003 20.9518 8.70632 20.9518H9.48918C10.1155 20.9518 10.6165 20.4508 10.6165 19.8245V15.5656C10.6165 14.9393 10.1155 14.4382 9.48918 14.4382H8.70632C8.08003 14.4382 7.579 14.9393 7.579 15.5656V19.8245ZM23.4868 18.8224C23.4868 19.0416 23.2989 19.2295 23.0797 19.2295H22.2655C22.0463 19.2295 21.8584 19.0416 21.8584 18.8224V16.5364C21.8584 16.3172 22.0463 16.1293 22.2655 16.1293H23.0797C23.2989 16.1293 23.4868 16.3172 23.4868 16.5364V18.8224ZM20.2927 14.4382C20.2927 14.4382 20.324 14.219 20.324 14.1251C20.324 10.9936 17.7875 8.45703 14.6561 8.45703C11.5246 8.45703 8.98815 10.9936 8.98815 14.1251C8.98815 14.2504 8.98815 14.3443 9.01947 14.4382M21.6705 19.8245C21.6705 20.4508 21.1695 20.9518 20.5432 20.9518H19.7603C19.1341 20.9518 18.633 20.4508 18.633 19.8245V15.5656C18.633 14.9393 19.1341 14.4382 19.7603 14.4382H20.5432C21.1695 14.4382 21.6705 14.9393 21.6705 15.5656V19.8245Z" fill="white"/>
<path d="M20.2927 14.4382C20.2927 14.4382 20.324 14.219 20.324 14.1251C20.324 10.9936 17.7875 8.45703 14.6561 8.45703C11.5246 8.45703 8.98815 10.9936 8.98815 14.1251C8.98815 14.2504 8.98815 14.3443 9.01947 14.4382M5.73145 18.8224C5.73145 19.0416 5.91933 19.2295 6.13853 19.2295H6.95271C7.17191 19.2295 7.3598 19.0416 7.3598 18.8224V16.5364C7.3598 16.3172 7.17191 16.1293 6.95271 16.1293H6.13853C5.91933 16.1293 5.73145 16.3172 5.73145 16.5364V18.8224ZM7.579 19.8245C7.579 20.4508 8.08003 20.9518 8.70632 20.9518H9.48918C10.1155 20.9518 10.6165 20.4508 10.6165 19.8245V15.5656C10.6165 14.9393 10.1155 14.4382 9.48918 14.4382H8.70632C8.08003 14.4382 7.579 14.9393 7.579 15.5656V19.8245ZM23.4868 18.8224C23.4868 19.0416 23.2989 19.2295 23.0797 19.2295H22.2655C22.0463 19.2295 21.8584 19.0416 21.8584 18.8224V16.5364C21.8584 16.3172 22.0463 16.1293 22.2655 16.1293H23.0797C23.2989 16.1293 23.4868 16.3172 23.4868 16.5364V18.8224ZM21.6705 19.8245C21.6705 20.4508 21.1695 20.9518 20.5432 20.9518H19.7603C19.1341 20.9518 18.633 20.4508 18.633 19.8245V15.5656C18.633 14.9393 19.1341 14.4382 19.7603 14.4382H20.5432C21.1695 14.4382 21.6705 14.9393 21.6705 15.5656V19.8245Z" stroke="#C9CACA" stroke-linecap="round" stroke-linejoin="round"/>
</svg>
