<svg width="601" height="60" viewBox="0 0 601 60" fill="none" xmlns="http://www.w3.org/2000/svg">
<rect x="38" y="5" width="563" height="50" rx="25" fill="url(#paint0_linear_281_429)"/>
<path d="M30 55C43.794 55 55 43.794 55 30C55 16.206 43.794 5 30 5C16.206 5 5 16.206 5 30C5 43.794 16.206 55 30 55Z" fill="white" stroke="#E4E4E3" stroke-width="8.57143"/>
<path d="M30.4864 35.906C31.0931 35.906 31.6304 35.776 32.0984 35.516C32.5664 35.256 32.9304 34.892 33.1904 34.424C33.4504 33.956 33.5804 33.4273 33.5804 32.838C33.5804 32.2313 33.4504 31.694 33.1904 31.226C32.9304 30.758 32.5664 30.394 32.0984 30.134C31.6304 29.874 31.0931 29.744 30.4864 29.744C29.8971 29.744 29.3684 29.874 28.9004 30.134C28.4324 30.394 28.0684 30.758 27.8084 31.226C27.5484 31.694 27.4184 32.2313 27.4184 32.838C27.4184 33.4273 27.5484 33.956 27.8084 34.424C28.0684 34.892 28.4324 35.256 28.9004 35.516C29.3684 35.776 29.8971 35.906 30.4864 35.906ZM23.4664 32.838C23.4664 31.7287 23.8477 30.4807 24.6104 29.094L29.6544 19.942H34.1784L30.5904 26.312C30.6077 26.312 30.6251 26.312 30.6424 26.312C31.9771 26.3293 33.1644 26.624 34.2044 27.196C35.2617 27.7507 36.0764 28.522 36.6484 29.51C37.2377 30.4807 37.5324 31.59 37.5324 32.838C37.5324 34.1033 37.2291 35.23 36.6224 36.218C36.0331 37.1887 35.2011 37.9513 34.1264 38.506C33.0691 39.0607 31.8557 39.338 30.4864 39.338C29.1171 39.338 27.9037 39.0607 26.8464 38.506C25.7891 37.9513 24.9571 37.1887 24.3504 36.218C23.7611 35.23 23.4664 34.1033 23.4664 32.838Z" fill="#727171"/>
<defs>
<linearGradient id="paint0_linear_281_429" x1="38" y1="30" x2="601" y2="30" gradientUnits="userSpaceOnUse">
<stop offset="0.5" stop-color="#E4E4E3"/>
<stop offset="1" stop-color="white" stop-opacity="0"/>
</linearGradient>
</defs>
</svg>
