<svg width="226" height="32" viewBox="0 0 226 32" fill="none" xmlns="http://www.w3.org/2000/svg">
<path d="M225.33 23.1794C225.429 20.2355 223.123 17.7688 220.179 17.6697C217.236 17.5706 214.769 19.8768 214.67 22.8206C214.571 25.7645 216.877 28.2312 219.821 28.3303C222.764 28.4294 225.231 26.1232 225.33 23.1794ZM11.3171 15.2695C10.9136 15.6467 10.8923 16.2795 11.2695 16.6829L17.4158 23.2573C17.793 23.6608 18.4258 23.6821 18.8292 23.3049C19.2327 22.9277 19.254 22.2949 18.8768 21.8915L13.4134 16.0476L19.2573 10.5842C19.6608 10.207 19.6821 9.57421 19.3049 9.17077C18.9277 8.76733 18.2949 8.74603 17.8915 9.1232L11.3171 15.2695ZM220 23L220.034 22.0006L12.0336 15.0006L12 16L11.9664 16.9994L219.966 23.9994L220 23Z" fill="#5B9BD5"/>
<path d="M22.1125 6.21644L21.1667 26.1126L4.40904 15.3454L22.1125 6.21644Z" fill="#5B9BD5"/>
</svg>
