<svg width="190" height="84" viewBox="0 0 190 84" fill="none" xmlns="http://www.w3.org/2000/svg">
<path d="M1.00292 80.3638C2.03226 83.1236 5.10396 84.5264 7.86377 83.4971C10.6236 82.4677 12.0264 79.396 10.9971 76.6362C9.96774 73.8764 6.89604 72.4736 4.13623 73.5029C1.37642 74.5323 -0.0264124 77.604 1.00292 80.3638ZM177.907 15.4182C178.138 14.9164 177.918 14.3226 177.416 14.0919L169.239 10.3328C168.737 10.1022 168.143 10.322 167.913 10.8238C167.682 11.3256 167.902 11.9194 168.404 12.15L175.672 15.4914L172.331 22.7602C172.1 23.262 172.32 23.8558 172.822 24.0865C173.324 24.3171 173.918 24.0973 174.148 23.5955L177.907 15.4182ZM6 78.5L6.34946 79.437C42.4721 65.9642 85.2211 50.0896 118.94 37.583C135.799 31.3298 150.401 25.9186 160.787 22.0707C165.981 20.1468 170.12 18.6137 172.962 17.5615C174.382 17.0355 175.478 16.6297 176.219 16.3554C176.59 16.2182 176.871 16.114 177.06 16.044C177.155 16.009 177.226 15.9826 177.274 15.9649C177.298 15.9561 177.316 15.9494 177.328 15.945C177.334 15.9428 177.338 15.9411 177.341 15.94C177.343 15.9394 177.344 15.939 177.345 15.9387C177.346 15.9384 177.346 15.9383 176.999 15.0005C176.652 14.0627 176.651 14.0628 176.65 14.0631C176.65 14.0634 176.649 14.0638 176.647 14.0643C176.644 14.0655 176.64 14.0671 176.634 14.0693C176.622 14.0738 176.604 14.0804 176.58 14.0893C176.532 14.107 176.461 14.1334 176.366 14.1684C176.177 14.2384 175.895 14.3426 175.525 14.4798C174.784 14.7541 173.688 15.1599 172.267 15.686C169.426 16.7381 165.286 18.2713 160.093 20.1953C149.706 24.0432 135.104 29.4545 118.244 35.7078C84.5253 48.2145 41.7749 64.0896 5.65054 77.563L6 78.5Z" fill="#5B9BD5"/>
<path d="M184.663 10.5869L172.671 26.4916L164.893 8.15455L184.663 10.5869Z" fill="#5B9BD5"/>
</svg>
