<svg width="196" height="162" viewBox="0 0 196 162" fill="none" xmlns="http://www.w3.org/2000/svg">
<path d="M44.8769 23.626C39.9949 26.6619 38.6 35.8926 37.2872 41.0208C36.1384 45.5337 35.8513 49.9234 36.0154 54.5593C36.1384 58.0055 37.4102 60.9183 38.1897 64.2414C39.1743 68.6311 37.8205 70.3542 34.7436 73.4721C31.8307 76.3849 28.8359 79.5439 29 83.9337C29.1641 88.7747 33.882 91.8106 37.8205 93.9029C47.0923 98.7849 60.3025 97.5952 70.4359 97.5542C76.1795 97.5542 86.1897 96.6106 88.5692 90.1696C92.3436 94.5183 94.8872 97.185 101.328 95.667C106.333 94.4773 111.913 90.7029 111.503 85.0824C117.41 85.5337 119.708 78.5593 120.2 73.7593C120.979 65.9644 118.559 57.9644 116.672 50.4978C114.579 42.4157 109.615 33.7593 109.944 25.226" fill="#231F20"/>
<path d="M54.0256 147.195V81.3486C54.0256 76.9999 57.5949 73.3896 61.9436 73.3896H92.2205C96.5692 73.3896 100.138 76.9589 100.138 81.3486V147.195H53.9846H54.0256Z" fill="#F8B50F"/>
<path d="M187.441 161.308H8.65123C4.26149 161.308 0.692261 157.739 0.692261 153.349V122.293C0.692261 117.903 4.26149 114.334 8.65123 114.334H187.4C191.79 114.334 195.359 117.903 195.359 122.293V153.349C195.359 157.739 191.79 161.308 187.4 161.308" fill="#FFA7A7"/>
<path d="M91.8513 74.0877C94.3128 74.0467 98.3743 75.5236 99.8102 76.9185C101.164 78.1903 102.436 79.3801 103.338 80.9801C104.405 82.8262 105.185 84.8365 106.21 86.7236C106.99 88.1595 111.379 93.5339 112.241 93.739C114.497 94.2724 116.508 96.1595 117.862 97.8416C122.128 103.093 124.877 114.17 116.138 117.206C113.513 118.108 110.477 118.149 107.728 118.19C104.241 118.272 101.164 118.108 97.9231 116.713C94.5179 115.195 89.841 112.529 87.9948 109.247C86.9282 107.36 86.9692 104.775 86.9692 102.683" fill="#F8B50F"/>
<path d="M55.2153 77.123L28.1794 108.097L56.323 121.431L55.2153 77.123Z" fill="#F8B50F"/>
<path d="M84.5486 74.0049L77.2461 108.466L67.8922 74.21L84.5486 74.0049Z" fill="white"/>
<path d="M117.287 40.0357C117.287 61.0408 99.1128 78.1075 76.7128 78.1075C54.3128 78.1075 36.1384 61.0818 36.1384 40.0357C36.1384 18.9895 54.3128 1.96387 76.7128 1.96387C99.1128 1.96387 117.287 18.9895 117.287 40.0357Z" fill="#FCC5A1"/>
<path d="M75.7692 35.0722C75.7692 39.2978 72.4872 42.7029 68.4256 42.7029C64.3641 42.7029 61.082 39.2978 61.082 35.0722C61.082 30.8465 64.3641 27.4414 68.4256 27.4414C72.4872 27.4414 75.7692 30.8465 75.7692 35.0722Z" fill="white"/>
<path d="M74.3744 36.8363C74.3744 39.8311 72.0359 42.2106 69.1641 42.2106C66.2923 42.2106 63.9539 39.7901 63.9539 36.8363C63.9539 33.8824 66.2923 31.4619 69.1641 31.4619C72.0359 31.4619 74.3744 33.8824 74.3744 36.8363Z" fill="#231F20"/>
<path d="M94.0666 35.0722C94.0666 39.2978 90.7845 42.7029 86.723 42.7029C82.6614 42.7029 79.3794 39.2978 79.3794 35.0722C79.3794 30.8465 82.6614 27.4414 86.723 27.4414C90.7845 27.4414 94.0666 30.8465 94.0666 35.0722Z" fill="white"/>
<path d="M91.1948 36.8363C91.1948 39.8311 88.8563 42.2106 85.9845 42.2106C83.1127 42.2106 80.7743 39.7901 80.7743 36.8363C80.7743 33.8824 83.1127 31.4619 85.9845 31.4619C88.8563 31.4619 91.1948 33.8824 91.1948 36.8363Z" fill="#231F20"/>
<path d="M77.6974 45.5331H77.041C76.0563 45.5331 75.2769 44.7536 75.2769 43.769C75.2769 42.7844 76.0563 42.0049 77.041 42.0049H77.6974C78.682 42.0049 79.4615 42.7844 79.4615 43.769C79.4615 44.7536 78.682 45.5331 77.6974 45.5331Z" fill="#F79675"/>
<path d="M76.6717 0.0361328C57.0614 0.0361328 40.6922 13.0823 36.9178 30.4361C38.3127 30.4361 39.7076 30.4361 41.1435 30.4361C49.5127 30.149 52.4255 26.4566 53.4512 15.6259C57.7999 18.3336 98.5794 24.8156 103.749 26.3336C106.702 27.1951 111.092 27.072 115.113 26.0464C109.697 10.99 94.5589 0.118182 76.6307 0.118182" fill="#231F20"/>
<path d="M57.882 48.5289C57.882 52.0571 55.0512 54.8879 51.523 54.8879C47.9948 54.8879 45.1641 52.0571 45.1641 48.5289C45.1641 45.0007 47.9948 42.1699 51.523 42.1699C55.0512 42.1699 57.882 45.0007 57.882 48.5289Z" fill="#F7A397"/>
<path d="M110.19 48.5289C110.19 52.0571 107.359 54.8879 103.831 54.8879C100.302 54.8879 97.4717 52.0571 97.4717 48.5289C97.4717 45.0007 100.302 42.1699 103.831 42.1699C107.359 42.1699 110.19 45.0007 110.19 48.5289Z" fill="#F7A397"/>
<path d="M41.759 45.328C41.759 49.5537 38.3538 52.9588 34.1282 52.9588C29.9026 52.9588 26.4974 49.5537 26.4974 45.328C26.4974 41.1024 29.9026 37.6973 34.1282 37.6973C38.3538 37.6973 41.759 41.1024 41.759 45.328Z" fill="#FCC5A1"/>
<path d="M127.502 45.328C127.502 49.5537 124.097 52.9588 119.872 52.9588C115.646 52.9588 112.241 49.5537 112.241 45.328C112.241 41.1024 115.646 37.6973 119.872 37.6973C124.097 37.6973 127.502 41.1024 127.502 45.328Z" fill="#FCC5A1"/>
<path d="M76.3435 88.6108C76.3435 88.6108 68.2615 76.016 68.2615 71.5442V66.7442C68.2615 62.3134 71.8717 58.6621 76.3435 58.6621C80.8153 58.6621 84.4256 62.3134 84.4256 66.7442V71.5442C84.4256 75.9749 76.3435 88.6108 76.3435 88.6108Z" fill="#FCC5A1"/>
<path d="M91.8922 26.4152C87.9127 24.0768 84.9589 26.2511 84.8358 26.3742L83.8922 25.1434C83.8922 25.1434 87.7486 22.1896 92.7127 25.1024L91.9332 26.4562L91.8922 26.4152Z" fill="#231F20"/>
<path d="M70.0256 25.2671C66.0051 22.9286 63.0923 25.103 62.9692 25.2261L62.0256 23.9953C62.0256 23.9953 65.8821 21.0825 70.8462 23.9543L70.0667 25.3081L70.0256 25.2671Z" fill="#231F20"/>
<path d="M81.1025 125.287C81.1025 127.749 79.1333 129.718 76.6717 129.718C74.2102 129.718 72.241 127.749 72.241 125.287C72.241 122.826 74.2102 120.856 76.6717 120.856C79.1333 120.856 81.1025 122.826 81.1025 125.287Z" fill="#231F20"/>
<path d="M130.415 136.446H182.559V119.954H133.82C124.836 121.39 126.149 134.149 130.415 136.446Z" fill="white"/>
<path d="M183.133 139.647H134.395C128.692 139.647 124.713 135.216 124.713 128.857C124.713 122.498 128.692 118.067 134.395 118.067H183.133V123.031H134.395C129.759 123.031 129.39 127.503 129.39 128.857C129.39 130.211 129.759 134.683 134.395 134.683H183.133V139.647Z" fill="#173561"/>
<path d="M179.318 116.836H127.174V100.344H175.913C184.897 101.78 183.585 114.539 179.318 116.836Z" fill="white"/>
<path d="M126.641 120.037H175.379C181.082 120.037 185.062 115.606 185.062 109.247C185.062 102.888 181.082 98.457 175.379 98.457H126.641V103.421H175.379C180.015 103.421 180.385 107.893 180.385 109.247C180.385 110.601 180.015 115.072 175.379 115.072H126.641V120.037Z" fill="#EF4F25"/>
<path d="M179.318 97.5128H127.174V81.0205H175.913C184.897 82.4564 183.585 95.2154 179.318 97.5128Z" fill="white"/>
<path d="M126.641 100.672H175.379C181.082 100.672 185.062 96.2415 185.062 89.8825C185.062 83.5235 181.082 79.0928 175.379 79.0928H126.641V84.0569H175.379C180.015 84.0569 180.385 88.5287 180.385 89.8825C180.385 91.2364 180.015 95.7082 175.379 95.7082H126.641V100.672Z" fill="#FBA638"/>
<path d="M78.9282 56.693C78.9282 56.693 78.641 56.693 78.4769 56.6109C78.4769 56.6109 74.4974 55.134 73.6769 54.0673C73.2256 53.452 73.3487 52.5904 73.9641 52.1391C74.5384 51.6879 75.3589 51.8109 75.8102 52.3443C76.3025 52.7135 78.559 53.7391 79.4205 54.0263C80.1179 54.2725 80.4872 55.052 80.241 55.7494C80.0359 56.3238 79.5025 56.652 78.9692 56.652L78.9282 56.693Z" fill="#231F20"/>
<path d="M111.092 117.164H35.6871V138.703H111.092V117.164Z" fill="white"/>
<path d="M30.0256 66.2109L23.6666 70.4366L27.0718 75.6058L33.4307 71.4212L30.0256 66.2109Z" fill="white"/>
<path d="M33.4308 71.4209L27.0718 75.6055L53.2872 115.482L59.6461 111.257L33.4308 71.4209Z" fill="#FC2011"/>
<path d="M61.6153 120.938L60.9999 118.025L58.9076 119.42L61.3691 121.102L61.6153 120.938Z" fill="#18150E"/>
<path d="M59.6461 111.257L53.2871 115.482L58.9076 119.421L60.9999 118.026L59.6461 111.257Z" fill="#F17AA9"/>
<path d="M42.5794 120.282C34.7435 120.282 28.3025 113.882 28.3025 106.046C28.3025 98.2106 34.7025 91.8105 42.5794 91.8105C50.4563 91.8105 56.8153 98.2106 56.8153 106.046C56.8153 113.882 50.4153 120.282 42.5794 120.282Z" fill="#FCC5A1"/>
<path d="M91.8512 47.5027C84.0564 47.5027 77.6974 41.4719 77.6974 34.0463C77.6974 26.6206 84.0564 20.5898 91.8512 20.5898C99.6461 20.5898 106.005 26.6206 106.005 34.0463C106.005 41.4719 99.6461 47.5027 91.8512 47.5027ZM91.8512 21.7386C84.6717 21.7386 78.8461 27.277 78.8461 34.0463C78.8461 40.8155 84.6717 46.3539 91.8512 46.3539C99.0307 46.3539 104.897 40.8155 104.897 34.0463C104.897 27.277 99.0717 21.7386 91.8512 21.7386Z" fill="white"/>
<path d="M63.2154 47.5027C55.4205 47.5027 49.0615 41.4719 49.0615 34.0463C49.0615 26.6206 55.4205 20.5898 63.2154 20.5898C71.0102 20.5898 77.3692 26.6206 77.3692 34.0463C77.3692 41.4719 71.0102 47.5027 63.2154 47.5027ZM63.2154 21.7386C56.0359 21.7386 50.2102 27.277 50.2102 34.0463C50.2102 40.8155 56.0359 46.3539 63.2154 46.3539C70.3949 46.3539 76.2615 40.8155 76.2615 34.0463C76.2615 27.277 70.4359 21.7386 63.2154 21.7386Z" fill="white"/>
<path d="M49.5128 35.3184H36.1794V36.4671H49.5128V35.3184Z" fill="white"/>
<path d="M117.451 34.7441H105.554V35.8929H117.451V34.7441Z" fill="white"/>
<path d="M78.1897 34.6621H76.7538V35.8108H78.1897V34.6621Z" fill="white"/>
<path d="M67.5641 132.097H53.9025C53.1641 132.097 52.5897 131.523 52.5897 130.784C52.5897 130.046 53.1641 129.472 53.9025 129.472H67.5641C68.3025 129.472 68.8769 130.046 68.8769 130.784C68.8769 131.523 68.3025 132.097 67.5641 132.097Z" fill="#D3D5D6"/>
<path d="M95.7077 132.097H72.8974C72.159 132.097 71.5846 131.523 71.5846 130.784C71.5846 130.046 72.159 129.472 72.8974 129.472H95.7077C96.4461 129.472 97.0205 130.046 97.0205 130.784C97.0205 131.523 96.4461 132.097 95.7077 132.097Z" fill="#D3D5D6"/>
<path d="M95.8717 126.846H59.2358C58.4973 126.846 57.923 126.272 57.923 125.534C57.923 124.795 58.4973 124.221 59.2358 124.221H95.8717C96.6101 124.221 97.1845 124.795 97.1845 125.534C97.1845 126.272 96.6101 126.846 95.8717 126.846Z" fill="#D3D5D6"/>
<path d="M104.2 129.062C110.846 129.062 116.303 123.605 116.303 116.959C116.303 110.313 110.846 104.856 104.2 104.856C97.5538 104.856 92.0974 110.313 92.0974 116.959C92.0974 123.605 97.5538 129.062 104.2 129.062Z" fill="#FCC5A1"/>
</svg>
