<svg width="302" height="206" viewBox="0 0 302 206" fill="none" xmlns="http://www.w3.org/2000/svg">
<path d="M95.9951 128.325H90.2477C54.0791 128.325 24.754 101.192 24.754 67.6966V61.6284C24.754 28.1598 54.0791 1 90.2477 1H235.232C271.4 1 300.726 28.1331 300.726 61.6284V67.6966C300.726 101.165 271.4 128.325 235.232 128.325H106.81" fill="white"/>
<path d="M95.9951 128.325H90.2477C54.0791 128.325 24.754 101.192 24.754 67.6966V61.6284C24.754 28.1598 54.0791 1 90.2477 1H235.232C271.4 1 300.726 28.1331 300.726 61.6284V67.6966C300.726 101.165 271.4 128.325 235.232 128.325H106.81" stroke="#727171" stroke-width="1.07969" stroke-linecap="round"/>
<path d="M103.408 122.32L94.9336 135.686" stroke="#727171" stroke-width="0.96569" stroke-linecap="round" stroke-linejoin="round"/>
<path d="M114.851 102.16V111.54H112.312V102.16H114.851ZM125.397 89.3073V112.266H122.858V89.3073H125.397ZM106.274 101.279C109.176 101.279 111.845 101.244 114.281 101.175C116.717 101.089 119.032 100.933 121.226 100.709L121.381 102.6C119.118 102.911 116.777 103.119 114.359 103.222C111.94 103.326 109.349 103.378 106.585 103.378L106.274 101.279ZM123.428 104.907V106.876H117.883V104.907H123.428ZM119.463 90.5252V98.9468H108.191V90.5252H119.463ZM110.679 92.5464V96.8997H116.976V92.5464H110.679ZM153.966 104.052V112.266H151.426V106.073H138.522V104.052H153.966ZM153.966 89.3073V102.834H151.426V89.3073H153.966ZM152.126 94.9562V97.0292H146.14V94.9562H152.126ZM146.607 91.0175V101.434H136.008V91.0175H146.607ZM138.496 93.0128V99.3873H144.119V93.0128H138.496ZM174.489 91.458V93.531H159.797V91.458H174.489ZM178.376 107.083V109.182H157.646V107.083H178.376ZM167.959 99.0245V108.146H165.446V99.0245H167.959ZM176.07 91.458V93.7124C176.07 95.6645 176.027 97.4266 175.94 98.9986C175.854 100.553 175.621 102.376 175.241 104.466L172.675 104.181C173.055 102.194 173.289 100.432 173.375 98.895C173.479 97.3575 173.53 95.63 173.53 93.7124V91.458H176.07ZM199.159 89.3332V102.03H196.593V89.3332H199.159ZM188.12 90.1365V92.3391C188.12 93.7556 187.861 95.0858 187.342 96.3296C186.824 97.5734 186.064 98.6617 185.062 99.5946C184.077 100.51 182.911 101.193 181.564 101.642L180.32 99.6464C181.495 99.2491 182.514 98.679 183.378 97.9362C184.242 97.1761 184.898 96.3123 185.347 95.3449C185.796 94.3775 186.021 93.3756 186.021 92.3391V90.1365H188.12ZM188.586 90.1365V92.3391C188.586 93.341 188.811 94.2998 189.26 95.2154C189.726 96.1309 190.383 96.9429 191.229 97.6511C192.076 98.3422 193.069 98.8604 194.209 99.2059L192.991 101.227C191.644 100.795 190.478 100.147 189.493 99.2836C188.526 98.4026 187.783 97.3661 187.265 96.1741C186.764 94.9822 186.513 93.7038 186.513 92.3391V90.1365H188.586ZM199.288 103.274V105.321H183.87V103.274H199.288ZM199.521 109.934V111.955H183.663V109.934H199.521ZM189.364 104.103V111.1H186.85V104.103H189.364ZM196.334 104.103V111.1H193.821V104.103H196.334ZM209.11 90.9916C210.215 90.9916 211.209 91.3198 212.09 91.9763C212.971 92.6327 213.653 93.5742 214.137 94.8008C214.638 96.0273 214.888 97.4438 214.888 99.0504C214.888 100.674 214.638 102.099 214.137 103.326C213.653 104.553 212.971 105.503 212.09 106.176C211.226 106.833 210.224 107.161 209.084 107.161C207.978 107.161 206.985 106.833 206.104 106.176C205.223 105.503 204.532 104.553 204.031 103.326C203.547 102.099 203.305 100.674 203.305 99.0504C203.305 97.4438 203.547 96.0273 204.031 94.8008C204.532 93.5742 205.223 92.6327 206.104 91.9763C206.985 91.3198 207.987 90.9916 209.11 90.9916ZM209.11 93.2978C208.436 93.2978 207.84 93.531 207.322 93.9975C206.821 94.4639 206.423 95.129 206.13 95.9927C205.853 96.8565 205.715 97.8757 205.715 99.0504C205.715 100.242 205.853 101.279 206.13 102.16C206.423 103.024 206.821 103.689 207.322 104.155C207.84 104.622 208.427 104.855 209.084 104.855C209.757 104.855 210.353 104.622 210.872 104.155C211.39 103.689 211.787 103.024 212.064 102.16C212.34 101.279 212.478 100.242 212.478 99.0504C212.478 97.8757 212.34 96.8565 212.064 95.9927C211.787 95.129 211.39 94.4639 210.872 93.9975C210.353 93.531 209.766 93.2978 209.11 93.2978ZM221.936 89.2814V112.266H219.397V89.2814H221.936ZM220.511 97.8584V99.9055H214.085V97.8584H220.511ZM231.343 110.737C230.894 110.737 230.523 110.59 230.229 110.296C229.953 110.02 229.814 109.657 229.814 109.208C229.814 108.759 229.953 108.405 230.229 108.146C230.505 107.869 230.877 107.731 231.343 107.731C231.792 107.731 232.147 107.869 232.406 108.146C232.682 108.405 232.82 108.759 232.82 109.208C232.82 109.675 232.682 110.046 232.406 110.322C232.147 110.599 231.792 110.737 231.343 110.737ZM230.074 105.373C230.056 104.492 230.134 103.723 230.307 103.067C230.48 102.41 230.756 101.814 231.136 101.279C231.533 100.743 232.052 100.242 232.691 99.776C233.606 99.085 234.237 98.489 234.582 97.988C234.928 97.4698 235.118 96.9083 235.152 96.3037C235.204 95.3708 234.911 94.6021 234.271 93.9975C233.632 93.3928 232.794 93.0905 231.758 93.0905C230.998 93.0905 230.281 93.341 229.607 93.842C228.951 94.3257 228.467 94.9562 228.156 95.7336L225.824 94.8785C226.29 93.6174 227.076 92.5896 228.182 91.7949C229.305 91.0003 230.497 90.6029 231.758 90.6029C232.95 90.6029 234.004 90.8534 234.919 91.3544C235.835 91.8381 236.526 92.5291 236.992 93.4274C237.476 94.3084 237.692 95.3104 237.64 96.4333C237.605 97.3661 237.312 98.273 236.759 99.1541C236.223 100.018 235.368 100.899 234.194 101.797C233.727 102.125 233.382 102.436 233.157 102.73C232.933 103.024 232.768 103.369 232.665 103.767C232.578 104.164 232.544 104.691 232.561 105.347L230.074 105.373Z" fill="#231815"/>
<path d="M63.5254 154.938C63.5254 154.938 72.7213 165.283 76.4905 175.789" stroke="#3E3A39" stroke-width="9.0292" stroke-linecap="round" stroke-linejoin="round"/>
<path d="M37.1422 204.996H36.2066C33.2126 204.996 30.8602 203.713 31.0741 200.719L32.4641 181.552C32.678 178.558 35.2977 176.125 38.2917 176.125H39.2273C42.2213 176.125 44.4936 178.558 44.2797 181.552L42.8896 200.719C42.6757 203.713 40.1362 204.996 37.1422 204.996Z" fill="#3E3A39"/>
<path d="M37.1422 204.996H36.2066C33.2126 204.996 30.8602 203.713 31.0741 200.719L32.4641 181.552C32.678 178.558 35.2977 176.125 38.2917 176.125H39.2273C42.2213 176.125 44.4936 178.558 44.2797 181.552L42.8896 200.719C42.6757 203.713 40.1362 204.996 37.1422 204.996Z" stroke="#3E3A39" stroke-width="1.59339" stroke-linecap="round" stroke-linejoin="round"/>
<path d="M62.9392 204.996H62.0036C59.0096 204.996 56.4967 203.713 56.3364 200.719L55.2403 181.552C55.0799 178.558 57.3789 176.125 60.3729 176.125H61.3086C64.3026 176.125 66.8956 178.558 67.056 181.552L68.152 200.719C68.3124 203.713 65.9599 204.996 62.966 204.996" fill="#3E3A39"/>
<path d="M62.9392 204.996H62.0036C59.0096 204.996 56.4967 203.713 56.3364 200.719L55.2403 181.552C55.0799 178.558 57.3789 176.125 60.3729 176.125H61.3086C64.3026 176.125 66.8956 178.558 67.056 181.552L68.152 200.719C68.3124 203.713 65.9599 204.996 62.966 204.996H62.9392Z" stroke="#3E3A39" stroke-width="1.59339" stroke-linecap="round" stroke-linejoin="round"/>
<path d="M37.6485 153.648L30.8853 154.049C22.3043 154.53 14.151 150.146 9.84714 142.714L6.66602 137.234" stroke="#3E3A39" stroke-width="9.0292" stroke-linecap="round" stroke-linejoin="round"/>
<path d="M65.5845 162.216L65.0498 155.907C64.4617 148.984 57.4579 143.664 49.4383 143.664C41.4187 143.664 34.495 148.984 33.9604 155.907L33.4258 163.125C40.8573 164.676 52.566 165.718 65.5845 162.216Z" fill="#3E3A39"/>
<path d="M65.5845 162.216L65.0498 155.907C64.4617 148.984 57.4579 143.664 49.4383 143.664C41.4187 143.664 34.495 148.984 33.9604 155.907L33.4258 163.125C40.8573 164.676 52.566 165.718 65.5845 162.216Z" stroke="#3E3A39" stroke-width="1.59339" stroke-linecap="round" stroke-linejoin="round"/>
<path d="M33.4533 163.132L32.1968 180.08C31.4751 189.57 39.6284 191.147 49.7331 191.147C59.8378 191.147 67.9644 189.57 67.1357 180.08L65.612 162.25C52.5934 165.752 40.9115 164.683 33.48 163.159" fill="white"/>
<path d="M33.4533 163.132L32.1968 180.08C31.4751 189.57 39.6284 191.147 49.7331 191.147C59.8378 191.147 67.9644 189.57 67.1357 180.08L65.612 162.25C52.5934 165.752 40.9115 164.683 33.48 163.159L33.4533 163.132Z" stroke="#3E3A39" stroke-width="1.59339" stroke-linecap="round" stroke-linejoin="round"/>
<path d="M30.7793 185.863L33.2387 161.804C40.9375 163.621 51.8709 164.878 65.2905 160.734L68.3914 185.863C64.2747 195.54 34.5753 194.096 30.7793 185.863Z" fill="#DAE000"/>
<path d="M30.7793 185.863L33.2387 161.804C40.9375 163.621 51.8709 164.878 65.2905 160.734L68.3914 185.863C64.2747 195.54 34.5753 194.096 30.7793 185.863Z" stroke="#3E3A39" stroke-width="1.76238" stroke-linecap="round" stroke-linejoin="round"/>
<path d="M41.0191 145.75H36.0469V167.831H41.0191V145.75Z" fill="#DAE000"/>
<path d="M41.0191 145.75H36.0469V167.831H41.0191V145.75Z" stroke="#3E3A39" stroke-width="1.81067" stroke-linecap="round" stroke-linejoin="round"/>
<path d="M61.6831 145.75H56.7109V167.831H61.6831V145.75Z" fill="#DAE000"/>
<path d="M61.6831 145.75H56.7109V167.831H61.6831V145.75Z" stroke="#3E3A39" stroke-width="1.81067" stroke-linecap="round" stroke-linejoin="round"/>
<path d="M28.1602 110.574C22.092 110.574 17.1465 105.629 17.1465 99.5605C17.1465 93.4923 22.092 88.5469 28.1602 88.5469C34.2284 88.5469 39.1738 93.4923 39.1738 99.5605C39.1738 105.629 34.2284 110.574 28.1602 110.574Z" fill="#3E3A39"/>
<path d="M72.0274 107.637C65.9592 107.637 61.0137 102.691 61.0137 96.623C61.0137 90.5548 65.9592 85.6094 72.0274 85.6094C78.0956 85.6094 83.041 90.5548 83.041 96.623C83.041 102.691 78.0956 107.637 72.0274 107.637Z" fill="#3E3A39"/>
<path d="M84.8589 123.974C84.8589 141.002 69.1137 154.823 49.6795 154.823C30.2452 154.823 14.5 141.002 14.5 123.974C14.5 106.946 30.2452 93.125 49.6795 93.125C69.1137 93.125 84.8589 106.946 84.8589 123.974Z" fill="white"/>
<path d="M49.6795 154.823C69.1086 154.823 84.8589 141.011 84.8589 123.974C84.8589 106.937 69.1086 93.125 49.6795 93.125C30.2504 93.125 14.5 106.937 14.5 123.974C14.5 141.011 30.2504 154.823 49.6795 154.823Z" fill="white" stroke="#3E3A39" stroke-width="1.59339" stroke-linecap="round" stroke-linejoin="round"/>
<path d="M41.0439 120.651C38.5845 126.051 32.757 128.644 28.0521 126.506C23.3473 124.341 21.5028 118.219 23.9889 112.846C26.4482 107.473 32.2758 104.853 36.9806 107.018C41.6855 109.183 43.53 115.278 41.0439 120.678" fill="#3E3A39"/>
<path d="M65.9582 115.213C65.9582 116.657 64.7821 117.833 63.3385 117.833C61.895 117.833 60.7188 116.657 60.7188 115.213C60.7188 113.77 61.895 112.594 63.3385 112.594C64.7821 112.594 65.9582 113.77 65.9582 115.213Z" fill="white"/>
<path d="M40.0557 115.194C40.0557 117.787 38.2113 119.872 35.939 119.872C33.6668 119.872 31.8223 117.76 31.8223 115.194C31.8223 112.627 33.6668 110.516 35.939 110.516C38.2113 110.516 40.0557 112.627 40.0557 115.194Z" fill="white"/>
<path d="M38.5583 116.226C38.5583 117.375 37.6226 118.338 36.4464 118.338C35.2702 118.338 34.3613 117.402 34.3613 116.226C34.3613 115.05 35.2969 114.141 36.4464 114.141C37.5959 114.141 38.5583 115.076 38.5583 116.226Z" fill="#3E3A39"/>
<path d="M55.4537 120.651C57.9131 126.051 63.7406 128.644 68.4455 126.506C73.1503 124.341 74.9949 118.219 72.5088 112.846C70.0494 107.473 64.2218 104.853 59.517 107.018C54.8121 109.183 52.9676 115.278 55.4537 120.678" fill="#3E3A39"/>
<path d="M59.9707 115.051C59.9707 117.697 61.8687 119.862 64.2211 119.862C66.5735 119.862 68.4715 117.724 68.4715 115.051C68.4715 112.377 66.5735 110.266 64.2211 110.266C61.8687 110.266 59.9707 112.404 59.9707 115.051Z" fill="white"/>
<path d="M62.377 116.069C62.377 117.219 63.3126 118.181 64.4621 118.181C65.6115 118.181 66.5472 117.246 66.5472 116.069C66.5472 114.893 65.6115 113.984 64.4621 113.984C63.3126 113.984 62.377 114.92 62.377 116.069Z" fill="#3E3A39"/>
<path d="M51.2026 122.938C51.2026 124.061 49.7056 124.97 47.861 124.97C46.0165 124.97 44.5195 124.061 44.5195 122.938C44.5195 121.815 46.0165 120.906 47.861 120.906C49.7056 120.906 51.2026 121.815 51.2026 122.938Z" fill="#3E3A39"/>
<path d="M50.3213 132.931L48.3164 123.414" stroke="#3E3A39" stroke-width="0.893264" stroke-linecap="round" stroke-linejoin="round"/>
<path d="M45.8301 133.603C45.8301 133.603 50.8023 135.1 54.2774 131.117" stroke="#3E3A39" stroke-width="0.893264" stroke-linecap="round" stroke-linejoin="round"/>
<path d="M55.7745 102.18C55.7745 102.18 55.5339 97.9566 59.3833 97.8229C63.2327 97.6893 63.5001 102.688 63.5001 102.688" stroke="#3E3A39" stroke-width="0.893264" stroke-linecap="round" stroke-linejoin="round"/>
<path d="M32.8916 103.04C32.8916 103.04 32.6511 98.816 36.5005 98.6823C40.3499 98.5487 40.6173 103.548 40.6173 103.548" stroke="#3E3A39" stroke-width="0.893264" stroke-linecap="round" stroke-linejoin="round"/>
<path d="M6.2126 140.168L1.08008 113.008" stroke="#3E3A39" stroke-width="1.59339" stroke-linecap="round" stroke-linejoin="round"/>
<path d="M15.3551 105.747C16.5848 108.019 13.8849 111.066 10.0087 113.659C6.13255 116.252 2.60394 117.402 1.34753 115.13C0.117848 112.857 2.25641 108.901 6.10584 106.308C9.982 103.715 14.0987 103.448 15.3284 105.747" fill="white"/>
<path d="M15.3551 105.747C16.5848 108.019 13.8849 111.066 10.0087 113.659C6.13255 116.252 2.60394 117.402 1.34753 115.13C0.117848 112.857 2.25641 108.901 6.10584 106.308C9.982 103.715 14.0987 103.448 15.3284 105.747H15.3551Z" stroke="#3E3A39" stroke-width="1.59339" stroke-linecap="round" stroke-linejoin="round"/>
<path d="M7.30884 143.378C6.07916 143.699 4.84949 142.79 4.55543 141.4L3.05844 134.075C2.76439 132.685 3.53966 131.268 4.76934 130.947C5.99901 130.627 7.22869 131.535 7.52274 132.926L9.01973 140.25C9.31379 141.64 8.53852 143.057 7.30884 143.351" fill="#DCDDDD"/>
<path d="M7.30884 143.378C6.07916 143.699 4.84949 142.79 4.55543 141.4L3.05844 134.075C2.76439 132.685 3.53966 131.268 4.76934 130.947C5.99901 130.627 7.22869 131.535 7.52274 132.926L9.01973 140.25C9.31379 141.64 8.53852 143.057 7.30884 143.351V143.378Z" stroke="#3E3A39" stroke-width="1.59339" stroke-linecap="round" stroke-linejoin="round"/>
</svg>
