<svg width="40" height="40" viewBox="0 0 40 40" fill="none" xmlns="http://www.w3.org/2000/svg">
<circle cx="20" cy="20" r="20" fill="#636463"/>
<path d="M13.6817 26.6816C10.0657 26.6816 8.37305 24.211 8.37305 19.8419V17.0332C8.37305 12.6641 10.0657 10.1935 13.6817 10.1935C16.1949 10.1935 17.7849 11.3898 18.503 13.6004H21.1189V8.86717H24.1707V31.3888H21.1189V23.3268H18.503C17.7593 25.5113 16.1693 26.6816 13.6817 26.6816ZM28.8382 8.37305V32.5591H25.7607V8.37305H28.8382ZM13.6817 13.0542C11.9121 13.0542 11.3479 14.5626 11.3479 17.3973V19.4778C11.3479 22.3125 11.9121 23.8209 13.6817 23.8209C15.4512 23.8209 16.0154 22.3125 16.0154 19.4778V17.3973C16.0154 14.5626 15.4512 13.0542 13.6817 13.0542ZM18.9903 19.8419C18.9903 20.102 18.9903 20.362 18.9646 20.5961H21.1189V16.331H18.9646C18.9903 16.5651 18.9903 16.7992 18.9903 17.0332V19.8419Z" fill="white"/>
</svg>
