<svg width="643" height="54" viewBox="0 0 643 54" fill="none" xmlns="http://www.w3.org/2000/svg">
<mask id="path-1-inside-1_1642_84072" fill="white">
<path d="M643 54H31.207L0 35.8047V17.6084L31.207 0H643V54ZM9.7002 22.6104C7.63961 22.6104 5.96875 24.3558 5.96875 26.5088C5.96882 28.6617 7.63965 30.4072 9.7002 30.4072C11.7605 30.407 13.4306 28.6616 13.4307 26.5088C13.4307 24.356 11.7606 22.6106 9.7002 22.6104Z"/>
</mask>
<path d="M643 54H31.207L0 35.8047V17.6084L31.207 0H643V54ZM9.7002 22.6104C7.63961 22.6104 5.96875 24.3558 5.96875 26.5088C5.96882 28.6617 7.63965 30.4072 9.7002 30.4072C11.7605 30.407 13.4306 28.6616 13.4307 26.5088C13.4307 24.356 11.7606 22.6106 9.7002 22.6104Z" fill="#ECC8C1"/>
<path d="M643 54V55H644V54H643ZM31.207 54L30.7033 54.8639L30.9368 55H31.207V54ZM0 35.8047H-1V36.3792L-0.503689 36.6686L0 35.8047ZM0 17.6084L-0.491415 16.7375L-1 17.0244V17.6084H0ZM31.207 0V-1H30.9444L30.7156 -0.870926L31.207 0ZM643 0H644V-1H643V0ZM9.7002 22.6104L9.70031 21.6104H9.7002V22.6104ZM5.96875 26.5088H4.96875V26.5088L5.96875 26.5088ZM9.7002 30.4072V31.4072H9.70031L9.7002 30.4072ZM13.4307 26.5088L14.4307 26.5088V26.5088H13.4307ZM643 54V53H31.207V54V55H643V54ZM31.207 54L31.7107 53.1361L0.503689 34.9408L0 35.8047L-0.503689 36.6686L30.7033 54.8639L31.207 54ZM0 35.8047H1V17.6084H0H-1V35.8047H0ZM0 17.6084L0.491415 18.4793L31.6984 0.870926L31.207 0L30.7156 -0.870926L-0.491415 16.7375L0 17.6084ZM31.207 0V1H643V0V-1H31.207V0ZM643 0H642V54H643H644V0H643ZM9.7002 22.6104V21.6104C7.04655 21.6104 4.96875 23.8452 4.96875 26.5088H5.96875H6.96875C6.96875 24.8664 8.23268 23.6104 9.7002 23.6104V22.6104ZM5.96875 26.5088L4.96875 26.5088C4.96883 29.1723 7.04656 31.4072 9.7002 31.4072V30.4072V29.4072C8.23275 29.4072 6.9688 28.1511 6.96875 26.5088L5.96875 26.5088ZM9.7002 30.4072L9.70031 31.4072C12.3539 31.4069 14.4306 29.1719 14.4307 26.5088L13.4307 26.5088L12.4307 26.5088C12.4306 28.1512 11.1672 29.4071 9.70008 29.4072L9.7002 30.4072ZM13.4307 26.5088H14.4307C14.4307 23.8456 12.3539 21.6107 9.70031 21.6104L9.7002 22.6104L9.70008 23.6104C11.1673 23.6105 12.4307 24.8663 12.4307 26.5088H13.4307Z" fill="#DA9186" mask="url(#path-1-inside-1_1642_84072)"/>
</svg>
