<svg width="20" height="20" viewBox="0 0 20 20" fill="none" xmlns="http://www.w3.org/2000/svg">
<path d="M10 20C15.5337 20 20 15.5209 20 10.0082C20 4.49549 15.5337 0 10 0C4.46634 0 0 4.47908 0 9.9918C0 15.5045 4.48276 19.9836 10 19.9836" fill="white"/>
<path d="M7.57982 13.4541L4.79065 13.8642L5.20082 11.0751L8.33454 7.94134L11.4683 4.80762L12.666 6.00533L13.8637 7.20303L10.7299 10.3367L7.59623 13.4705L7.57982 13.4541ZM12.8136 3.42944L14.0113 4.62715L15.209 5.82485" fill="white"/>
<path d="M4.79083 14.356C4.65958 14.356 4.54473 14.3068 4.44629 14.2084C4.33144 14.0935 4.28222 13.9458 4.31503 13.7982L4.72521 10.9926C4.72521 10.8942 4.79083 10.7957 4.85646 10.7137L11.1075 4.46266C11.3044 4.26578 11.5997 4.26578 11.7966 4.46266L14.1756 6.85806C14.3725 7.05495 14.3725 7.35027 14.1756 7.54715L7.92455 13.7982C7.92455 13.7982 7.76048 13.913 7.64563 13.9294L4.85646 14.3396C4.85646 14.3396 4.80724 14.3396 4.79083 14.3396V14.356ZM5.6604 11.2879L5.36507 13.2732L7.35031 12.9778L13.1419 7.1862L11.452 5.49629L5.6604 11.2879ZM15.2092 6.30023C15.078 6.30023 14.9631 6.25101 14.8647 6.15257L12.4693 3.75716C12.2724 3.56028 12.2724 3.24855 12.4693 3.06807C12.6661 2.87119 12.9615 2.87119 13.1583 3.06807L15.5538 5.46348C15.7506 5.66036 15.7506 5.97209 15.5538 6.15257C15.4553 6.25101 15.3405 6.30023 15.2092 6.30023Z" fill="#AED26A"/>
<path d="M14.3068 17.0469H4.82363C4.56112 17.0469 4.33142 16.8336 4.33142 16.5547C4.33142 16.2758 4.54471 16.0625 4.82363 16.0625H14.3068C14.5693 16.0625 14.799 16.2758 14.799 16.5547C14.799 16.8336 14.5857 17.0469 14.3068 17.0469Z" fill="#337955"/>
</svg>
