<svg width="480" height="460" viewBox="0 0 480 460" fill="none" xmlns="http://www.w3.org/2000/svg">
<g clip-path="url(#clip0_1228_3849)">
<path d="M211.848 425.433C215.562 426.272 226.159 420.694 230.566 421.139L202.836 259.026L211.799 425.483L211.848 425.433Z" fill="#950514"/>
<path d="M330.001 409.982L299.745 198.9C296.625 181.475 289.891 165.283 282.711 152.547L292.862 81.512C290.138 50.4619 263.25 37.0348 232.103 39.7498C200.955 42.4649 176.84 60.3347 179.563 91.3848L201.896 159.606C197.044 169.874 193.973 187.645 193.181 208.23L200.163 421.335C203.233 423.063 207.195 424.445 211.85 425.482L202.887 259.026L224.229 427.309C258.595 430.616 311.679 422.421 330.05 409.982" fill="#CC1A28"/>
<path d="M299.398 375.378C299.645 378.389 302.319 380.611 305.34 380.364C308.361 380.117 310.589 377.451 310.341 374.44C310.094 371.429 307.42 369.207 304.399 369.454C301.378 369.701 299.15 372.367 299.398 375.378Z" fill="#F29300"/>
<path d="M300.239 384.954C300.487 387.965 303.161 390.187 306.182 389.94C309.202 389.693 311.431 387.027 311.183 384.016C310.935 381.005 308.261 378.784 305.241 379.03C302.22 379.277 299.992 381.943 300.239 384.954Z" fill="#F29300"/>
<path d="M309.598 373.798C306.578 374.045 304.349 376.711 304.597 379.722C304.845 382.733 307.519 384.954 310.539 384.708C313.56 384.461 315.788 381.795 315.541 378.784C315.293 375.773 312.619 373.551 309.598 373.798Z" fill="#F29300"/>
<path d="M299.991 374.637C296.97 374.884 294.742 377.549 294.989 380.561C295.237 383.572 297.911 385.793 300.932 385.546C303.952 385.3 306.181 382.634 305.933 379.623C305.685 376.611 303.011 374.39 299.991 374.637Z" fill="#F29300"/>
<path d="M300.883 379.475C301.081 381.795 303.112 383.523 305.439 383.325C307.766 383.128 309.5 381.104 309.252 378.784C309.054 376.464 307.024 374.736 304.696 374.933C302.369 375.131 300.636 377.204 300.834 379.475" fill="#F29300"/>
<path d="M270.529 385.35C270.776 388.361 273.45 390.582 276.471 390.335C279.491 390.089 281.72 387.423 281.472 384.412C281.225 381.401 278.551 379.179 275.53 379.426C272.509 379.673 270.281 382.338 270.529 385.35Z" fill="#F29300"/>
<path d="M271.37 394.926C271.618 397.937 274.292 400.158 277.313 399.912C280.333 399.665 282.562 396.999 282.314 393.988C282.066 390.977 279.392 388.755 276.372 389.002C273.351 389.249 271.123 391.915 271.37 394.926Z" fill="#F29300"/>
<path d="M280.729 383.819C277.709 384.065 275.48 386.731 275.728 389.742C275.975 392.753 278.649 394.975 281.67 394.728C284.691 394.481 286.919 391.816 286.671 388.804C286.424 385.793 283.75 383.572 280.729 383.819Z" fill="#F29300"/>
<path d="M271.122 384.658C268.101 384.905 265.873 387.571 266.12 390.582C266.368 393.593 269.042 395.815 272.063 395.568C275.083 395.321 277.312 392.655 277.064 389.644C276.816 386.633 274.142 384.412 271.122 384.658Z" fill="#F29300"/>
<path d="M272.013 389.446C272.212 391.766 274.242 393.494 276.569 393.297C278.897 393.099 280.63 391.075 280.432 388.755C280.234 386.435 278.203 384.707 275.876 384.954C273.549 385.152 271.815 387.176 272.013 389.496" fill="#F29300"/>
<path d="M290.831 343.39C290.979 345.315 292.713 346.746 294.644 346.598C296.575 346.45 298.011 344.723 297.863 342.797C297.714 340.872 295.981 339.441 294.05 339.589C292.118 339.737 290.682 341.464 290.831 343.39Z" fill="#F29300"/>
<path d="M291.376 349.561C291.524 351.486 293.258 352.917 295.189 352.769C297.12 352.621 298.556 350.893 298.407 348.968C298.259 347.043 296.526 345.611 294.595 345.76C292.663 345.908 291.227 347.635 291.376 349.561Z" fill="#F29300"/>
<path d="M297.368 342.402C295.437 342.55 294.001 344.278 294.149 346.203C294.298 348.128 296.031 349.56 297.962 349.412C299.893 349.214 301.329 347.536 301.181 345.611C301.032 343.686 299.299 342.254 297.368 342.402Z" fill="#F29300"/>
<path d="M291.178 342.945C289.247 343.093 287.811 344.821 287.96 346.746C288.108 348.671 289.841 350.103 291.773 349.955C293.704 349.757 295.14 348.079 294.991 346.154C294.843 344.229 293.11 342.797 291.178 342.945Z" fill="#F29300"/>
<path d="M291.773 346.006C291.921 347.487 293.209 348.622 294.694 348.474C296.18 348.326 297.269 347.043 297.17 345.513C297.022 344.032 295.734 342.946 294.199 343.044C292.713 343.192 291.624 344.476 291.723 345.957" fill="#F29300"/>
<path d="M274.589 358.988C274.737 360.914 276.47 362.345 278.402 362.197C280.333 362.049 281.769 360.321 281.62 358.396C281.472 356.471 279.739 355.039 277.807 355.187C275.876 355.335 274.44 357.063 274.589 358.988Z" fill="#F29300"/>
<path d="M275.085 365.159C275.233 367.084 276.966 368.516 278.898 368.368C280.829 368.22 282.265 366.492 282.116 364.567C281.968 362.642 280.235 361.21 278.303 361.358C276.372 361.506 274.936 363.234 275.085 365.159Z" fill="#F29300"/>
<path d="M281.126 358.002C279.195 358.15 277.758 359.878 277.907 361.803C278.056 363.728 279.789 365.16 281.72 365.011C283.651 364.863 285.087 363.136 284.939 361.21C284.79 359.285 283.057 357.854 281.126 358.002Z" fill="#F29300"/>
<path d="M274.936 358.545C273.005 358.693 271.569 360.421 271.718 362.346C271.866 364.271 273.599 365.703 275.531 365.554C277.462 365.406 278.898 363.679 278.749 361.753C278.601 359.828 276.868 358.397 274.936 358.545Z" fill="#F29300"/>
<path d="M275.53 361.654C275.678 363.135 276.966 364.27 278.451 364.122C279.937 363.974 281.026 362.691 280.927 361.21C280.779 359.729 279.491 358.643 278.006 358.742C276.52 358.89 275.431 360.173 275.53 361.654Z" fill="#F29300"/>
<path d="M282.364 304.836C282.513 306.761 284.246 308.193 286.177 308.045C288.108 307.897 289.544 306.169 289.396 304.244C289.198 302.318 287.514 300.887 285.583 301.035C283.652 301.183 282.216 302.911 282.364 304.836Z" fill="#F29300"/>
<path d="M282.907 311.007C283.056 312.932 284.789 314.364 286.72 314.216C288.651 314.067 290.087 312.34 289.939 310.415C289.741 308.489 288.057 307.058 286.126 307.206C284.195 307.354 282.758 309.082 282.907 311.007Z" fill="#F29300"/>
<path d="M288.95 303.848C287.019 303.997 285.583 305.724 285.731 307.649C285.88 309.575 287.613 311.006 289.544 310.858C291.475 310.661 292.911 308.982 292.763 307.057C292.614 305.132 290.881 303.7 288.95 303.848Z" fill="#F29300"/>
<path d="M282.759 304.392C280.827 304.54 279.391 306.268 279.54 308.193C279.688 310.119 281.422 311.55 283.353 311.402C285.284 311.205 286.72 309.526 286.571 307.601C286.423 305.676 284.69 304.244 282.759 304.392Z" fill="#F29300"/>
<path d="M283.304 307.452C283.452 308.933 284.74 310.069 286.225 309.921C287.711 309.773 288.8 308.489 288.701 306.959C288.553 305.478 287.265 304.392 285.73 304.491C284.245 304.639 283.155 305.922 283.254 307.403" fill="#F29300"/>
<path d="M206.6 52.3874L205.164 36.196L253.544 32L255.128 49.9686L209.076 55.5467L206.6 52.3874Z" fill="#CC1A28"/>
<path d="M284.245 58.2129L328.762 112.119L299.348 139.812L276.619 118.388L284.245 58.2129Z" fill="#CC1A28"/>
<path d="M321.197 103.039L291.52 132.234L295.172 135.924L324.849 106.729L321.197 103.039Z" fill="#FFDF5B"/>
<path d="M184.465 66.9502L150 127.718L183.821 149.882L202.44 124.854L184.465 66.9502Z" fill="#CC1A28"/>
<path d="M187.238 145.341L152.971 121.695L155.942 117.45L190.209 141.095L187.238 145.341ZM190.605 128.359L187.782 124.015C196.448 118.388 203.529 111.378 209.273 104.023C206.55 102.838 204.123 100.617 202.786 98.099C200.855 94.3967 201.796 90.7931 205.114 88.8185C207.738 87.2882 209.917 87.6831 211.304 88.2261C213.68 89.2134 215.315 91.5829 216.305 93.7549C217.246 92.2246 218.088 90.7437 218.929 89.2134C215.513 88.3742 212.244 85.7579 210.66 82.648C208.729 78.9457 209.669 75.3421 212.987 73.4169C214.869 72.3308 216.85 72.1334 218.731 72.9232C221.108 73.9105 222.891 76.2306 224.129 78.6495C228.536 68.5792 230.715 60.4341 231.408 57.4722C223.337 48.2411 205.708 47.4513 205.559 47.4513L205.757 42.268C206.55 42.268 223.634 43.0578 233.587 52.289C239.381 43.1566 253.147 37.529 253.791 37.2822L255.722 42.0706C251.216 43.897 239.034 50.2157 236.707 57.6203C236.558 58.3608 234.726 67.3944 229.625 79.3899C230.913 79.3406 232.25 79.4887 233.438 80.0317C234.825 80.624 236.558 82.0062 237.202 84.9681C238.044 88.7198 236.013 91.8791 232.002 92.9651C229.279 93.7056 226.011 93.4587 223.287 92.3234C222.643 93.5081 221.95 94.6929 221.207 95.8776C223.436 95.5814 225.813 95.6308 227.694 96.6181C229.526 97.556 230.764 99.1356 231.26 101.258C232.101 105.01 230.022 108.169 226.06 109.255C222.049 110.391 216.899 109.255 214.077 106.392C207.887 114.439 200.162 122.189 190.506 128.409L190.605 128.359ZM217.444 102.147C218.385 103.825 222.049 104.911 224.773 104.171C226.605 103.677 226.407 102.838 226.308 102.295C226.159 101.554 225.813 101.308 225.515 101.16C223.832 100.32 220.217 101.16 217.444 102.147ZM208.877 92.9157C208.63 92.9157 208.283 93.0145 207.788 93.3107C207.293 93.6068 206.55 94.0018 207.441 95.7295C208.432 97.6547 210.709 99.2837 212.542 99.6786C212.69 99.4812 212.789 99.2837 212.938 99.0863H212.839C212.343 97.013 210.858 93.6562 209.323 93.0145C209.224 93.0145 209.125 92.9157 208.877 92.9157ZM225.862 87.6831C227.348 88.2261 229.18 88.3742 230.715 87.9793C232.547 87.4857 232.349 86.6465 232.25 86.1035C232.002 85.0668 231.606 84.8694 231.408 84.82C230.418 84.3757 228.685 84.7213 227.05 85.2643C226.654 86.0541 226.258 86.8933 225.813 87.7325L225.862 87.6831ZM216.454 77.6622C216.454 77.6622 216.008 77.7116 215.661 77.909C215.166 78.2052 214.423 78.6001 215.315 80.3279C216.454 82.4999 219.128 84.277 221.059 84.3757C220.068 81.6113 218.385 78.4027 216.85 77.7609C216.751 77.7609 216.602 77.6622 216.454 77.6622Z" fill="#FFDF5B"/>
</g>
<defs>
<clipPath id="clip0_1228_3849">
<rect width="180" height="396" fill="white" transform="translate(150 32)"/>
</clipPath>
</defs>
</svg>
