<svg width="645" height="239" viewBox="0 0 645 239" fill="none" xmlns="http://www.w3.org/2000/svg">
<path d="M142.201 29H59.7987C52.1779 29 46 35.2895 46 43.0479V224.952C46 232.711 52.1779 239 59.7987 239H142.201C149.822 239 156 232.711 156 224.952V43.0479C156 35.2895 149.822 29 142.201 29Z" fill="#DCDDDD"/>
<path d="M307.201 29H224.799C217.178 29 211 35.2895 211 43.0479V224.952C211 232.711 217.178 239 224.799 239H307.201C314.822 239 321 232.711 321 224.952V43.0479C321 35.2895 314.822 29 307.201 29Z" fill="#DCDDDD"/>
<path d="M472.201 29H389.799C382.178 29 376 35.2895 376 43.0479V224.952C376 232.711 382.178 239 389.799 239H472.201C479.822 239 486 232.711 486 224.952V43.0479C486 35.2895 479.822 29 472.201 29Z" fill="#DCDDDD"/>
<path d="M131.184 29H18.8164C8.42437 29 0 35.2895 0 43.0479V224.952C0 232.711 8.42437 239 18.8164 239H131.184C141.576 239 150 232.711 150 224.952V43.0479C150 35.2895 141.576 29 131.184 29Z" fill="white"/>
<path d="M296.184 29H183.816C173.424 29 165 35.2895 165 43.0479V224.952C165 232.711 173.424 239 183.816 239H296.184C306.576 239 315 232.711 315 224.952V43.0479C315 35.2895 306.576 29 296.184 29Z" fill="white"/>
<path d="M461.184 29H348.816C338.424 29 330 35.2895 330 43.0479V224.952C330 232.711 338.424 239 348.816 239H461.184C471.576 239 480 232.711 480 224.952V43.0479C480 35.2895 471.576 29 461.184 29Z" fill="white"/>
<path d="M626.184 29H513.816C503.424 29 495 35.2895 495 43.0479V224.952C495 232.711 503.424 239 513.816 239H626.184C636.576 239 645 232.711 645 224.952V43.0479C645 35.2895 636.576 29 626.184 29Z" fill="white"/>
<path d="M155.98 146.284L169.485 133.631L155.98 122" fill="#DCDDDD"/>
<path d="M320.98 146.284L334.485 133.631L320.98 122" fill="#DCDDDD"/>
<path d="M485.98 146.284L499.485 133.631L485.98 122" fill="#DCDDDD"/>
<path d="M100.335 16.6562H91.0342V22.6848H100.335V16.6562Z" fill="white"/>
<path d="M100.335 16.6562H91.0342V22.6848H100.335V16.6562Z" stroke="#3E3A39" stroke-width="1.38797" stroke-linecap="round" stroke-linejoin="round"/>
<path d="M102.755 57.3704H48.2291C45.4726 57.3704 43.2539 55.1517 43.2539 52.3952V24.8971C43.2539 22.1406 45.4726 19.9219 48.2291 19.9219H102.755C105.511 19.9219 107.73 22.1406 107.73 24.8971V52.3952C107.73 55.1517 105.511 57.3704 102.755 57.3704Z" fill="#F8CDD0"/>
<path d="M102.755 19.9219H48.2291C45.4814 19.9219 43.2539 22.1494 43.2539 24.8971V52.3952C43.2539 55.1429 45.4814 57.3704 48.2291 57.3704H102.755C105.502 57.3704 107.73 55.1429 107.73 52.3952V24.8971C107.73 22.1494 105.502 19.9219 102.755 19.9219Z" stroke="#3E3A39" stroke-width="1.38797" stroke-linecap="round" stroke-linejoin="round"/>
<path d="M100.961 25.6953H49.999V51.6247H100.961V25.6953Z" fill="#E9EAEA"/>
<path d="M100.984 25.6953H49.999V51.6247H100.984V25.6953Z" stroke="#3E3A39" stroke-width="1.38797" stroke-linecap="round" stroke-linejoin="round"/>
<path d="M72.7706 39.2123V44.9495L72.0983 45.6666L71.4259 44.9495V39.2123L72.0983 38.4952L72.7706 39.2123ZM71.3139 45.084L71.9862 45.8011L71.3139 46.5182H65.9577L65.2853 45.8011L65.9577 45.084H71.3139ZM71.3139 37.6435L71.9862 38.3607L71.3139 39.0778H65.9577L65.2853 38.3607L65.9577 37.6435H71.3139ZM65.9577 31.6375L65.2853 30.9203L65.9577 30.2031H71.3139L71.9862 30.9203L71.3139 31.6375H65.9577ZM65.1733 38.4952L65.8456 39.2123V44.9495L65.1733 45.6666L64.501 44.9495V39.2123L65.1733 38.4952ZM65.1733 31.0547L65.8456 31.7719V37.5091L65.1733 38.2263L64.501 37.5091V31.7719L65.1733 31.0547Z" fill="#3E3A39"/>
<path d="M72.7706 39.2123V44.9495L72.0983 45.6666L71.4259 44.9495V39.2123L72.0983 38.4952L72.7706 39.2123ZM71.3139 45.084L71.9862 45.8011L71.3139 46.5182H65.9577L65.2853 45.8011L65.9577 45.084H71.3139ZM71.3139 37.6435L71.9862 38.3607L71.3139 39.0778H65.9577L65.2853 38.3607L65.9577 37.6435H71.3139ZM65.9577 31.6375L65.2853 30.9203L65.9577 30.2031H71.3139L71.9862 30.9203L71.3139 31.6375H65.9577ZM65.1733 38.4952L65.8456 39.2123V44.9495L65.1733 45.6666L64.501 44.9495V39.2123L65.1733 38.4952ZM65.1733 31.0547L65.8456 31.7719V37.5091L65.1733 38.2263L64.501 37.5091V31.7719L65.1733 31.0547Z" stroke="#3E3A39" stroke-width="0.358186" stroke-linecap="round" stroke-linejoin="round"/>
<path d="M54.2588 31.7495L54.9311 31.0323L55.6035 31.7495V37.5091L54.9311 38.2263L54.2588 37.5091V31.7495ZM54.2588 39.1899L54.9311 38.4727L55.6035 39.1899V44.9495L54.9311 45.6666L54.2588 44.9495V39.1899ZM61.0717 31.6375H55.7155L55.0432 30.9203L55.7155 30.2031H61.0717L61.744 30.9203L61.0717 31.6375ZM61.0717 45.084L61.744 45.8011L61.0717 46.5182H55.7155L55.0432 45.8011L55.7155 45.084H61.0717ZM61.1837 31.7495L61.8561 31.0323L62.5284 31.7495V37.5091L61.8561 38.2263L61.1837 37.5091V31.7495ZM61.1837 39.1899L61.8561 38.4727L62.5284 39.1899V44.9495L61.8561 45.6666L61.1837 44.9495V39.1899Z" fill="#3E3A39"/>
<path d="M54.2588 31.7495L54.9311 31.0323L55.6035 31.7495V37.5091L54.9311 38.2263L54.2588 37.5091V31.7495ZM54.2588 39.1899L54.9311 38.4727L55.6035 39.1899V44.9495L54.9311 45.6666L54.2588 44.9495V39.1899ZM61.0717 31.6375H55.7155L55.0432 30.9203L55.7155 30.2031H61.0717L61.744 30.9203L61.0717 31.6375ZM61.0717 45.084L61.744 45.8011L61.0717 46.5182H55.7155L55.0432 45.8011L55.7155 45.084H61.0717ZM61.1837 31.7495L61.8561 31.0323L62.5284 31.7495V37.5091L61.8561 38.2263L61.1837 37.5091V31.7495ZM61.1837 39.1899L61.8561 38.4727L62.5284 39.1899V44.9495L61.8561 45.6666L61.1837 44.9495V39.1899Z" stroke="#3E3A39" stroke-width="0.358186" stroke-linecap="round" stroke-linejoin="round"/>
<path d="M76.7589 36.3832V37.0556L76.1314 37.7279L75.5039 37.0556V36.3832L76.1314 35.7109L76.7589 36.3832ZM76.7589 45.1683V45.8406L76.1314 46.513L75.5039 45.8406V45.1683L76.1314 44.496L76.7589 45.1683Z" fill="#3E3A39"/>
<path d="M76.7589 36.3832V37.0556L76.1314 37.7279L75.5039 37.0556V36.3832L76.1314 35.7109L76.7589 36.3832ZM76.7589 45.1683V45.8406L76.1314 46.513L75.5039 45.8406V45.1683L76.1314 44.496L76.7589 45.1683Z" stroke="#3E3A39" stroke-width="0.358186" stroke-linecap="round" stroke-linejoin="round"/>
<path d="M88.457 31.7495L89.1294 31.0323L89.8017 31.7495V37.5091L89.1294 38.2263L88.457 37.5091V31.7495ZM88.457 39.1899L89.1294 38.4727L89.8017 39.1899V44.9495L89.1294 45.6666L88.457 44.9495V39.1899ZM95.27 31.6375H89.9137L89.2414 30.9203L89.9137 30.2031H95.27L95.9423 30.9203L95.27 31.6375ZM95.27 45.084L95.9423 45.8011L95.27 46.5182H89.9137L89.2414 45.8011L89.9137 45.084H95.27ZM95.4044 31.7495L96.0767 31.0323L96.7491 31.7495V37.5091L96.0767 38.2263L95.4044 37.5091V31.7495ZM95.4044 39.1899L96.0767 38.4727L96.7491 39.1899V44.9495L96.0767 45.6666L95.4044 44.9495V39.1899Z" fill="#3E3A39"/>
<path d="M88.457 31.7495L89.1294 31.0323L89.8017 31.7495V37.5091L89.1294 38.2263L88.457 37.5091V31.7495ZM88.457 39.1899L89.1294 38.4727L89.8017 39.1899V44.9495L89.1294 45.6666L88.457 44.9495V39.1899ZM95.27 31.6375H89.9137L89.2414 30.9203L89.9137 30.2031H95.27L95.9423 30.9203L95.27 31.6375ZM95.27 45.084L95.9423 45.8011L95.27 46.5182H89.9137L89.2414 45.8011L89.9137 45.084H95.27ZM95.4044 31.7495L96.0767 31.0323L96.7491 31.7495V37.5091L96.0767 38.2263L95.4044 37.5091V31.7495ZM95.4044 39.1899L96.0767 38.4727L96.7491 39.1899V44.9495L96.0767 45.6666L95.4044 44.9495V39.1899Z" stroke="#3E3A39" stroke-width="0.358186" stroke-linecap="round" stroke-linejoin="round"/>
<path d="M85.9244 30.9203L85.2073 31.6375H79.4701L78.7529 30.9203L79.4701 30.2031H85.2073L85.9244 30.9203ZM85.9244 38.3383L85.2073 39.0554H79.4701L78.7529 38.3383L79.4701 37.6211H85.2073L85.9244 38.3383ZM85.9244 45.7563L85.2073 46.4734H79.4701L78.7529 45.7563L79.4701 45.0391H85.2073L85.9244 45.7563ZM86.7536 37.4867L86.0365 38.2038L85.3193 37.4867V31.7495L86.0365 31.0323L86.7536 31.7495V37.4867ZM86.0365 45.6218L85.3193 44.9046V39.1675L86.0365 38.4503L86.7536 39.1675V44.9046L86.0365 45.6218Z" fill="#3E3A39"/>
<path d="M85.9244 30.9203L85.2073 31.6375H79.4701L78.7529 30.9203L79.4701 30.2031H85.2073L85.9244 30.9203ZM85.9244 38.3383L85.2073 39.0554H79.4701L78.7529 38.3383L79.4701 37.6211H85.2073L85.9244 38.3383ZM85.9244 45.7563L85.2073 46.4734H79.4701L78.7529 45.7563L79.4701 45.0391H85.2073L85.9244 45.7563ZM86.7536 37.4867L86.0365 38.2038L85.3193 37.4867V31.7495L86.0365 31.0323L86.7536 31.7495V37.4867ZM86.0365 45.6218L85.3193 44.9046V39.1675L86.0365 38.4503L86.7536 39.1675V44.9046L86.0365 45.6218Z" stroke="#3E3A39" stroke-width="0.358186" stroke-linecap="round" stroke-linejoin="round"/>
<path d="M43.8475 15H42.4007L46.5854 3.60319H48.01L52.1948 15H50.7479L47.3423 5.4062H47.2532L43.8475 15ZM44.3818 10.5481H50.2137V11.7724H44.3818V10.5481ZM53.97 3.60319H55.6172L59.4903 13.0634H59.6239L63.497 3.60319H65.1442V15H63.8532V6.34109H63.7419L60.1804 15H58.9338L55.3723 6.34109H55.261V15H53.97V3.60319Z" fill="#231815"/>
<path d="M265.202 16.6562H255.901V22.6848H265.202V16.6562Z" fill="white"/>
<path d="M265.202 16.6562H255.901V22.6848H265.202V16.6562Z" stroke="#3E3A39" stroke-width="1.38797" stroke-linecap="round" stroke-linejoin="round"/>
<path d="M267.621 57.3704H213.095C210.339 57.3704 208.12 55.1517 208.12 52.3952V24.8971C208.12 22.1406 210.339 19.9219 213.095 19.9219H267.621C270.378 19.9219 272.596 22.1406 272.596 24.8971V52.3952C272.596 55.1517 270.378 57.3704 267.621 57.3704Z" fill="#F8CDD0"/>
<path d="M213.095 19.9219H267.621C270.378 19.9219 272.596 22.1406 272.596 24.8971V52.3952C272.596 55.1517 270.378 57.3704 267.621 57.3704H213.095C210.339 57.3704 208.12 55.1517 208.12 52.3952V24.8971C208.12 22.1406 210.361 19.9219 213.095 19.9219Z" stroke="#3E3A39" stroke-width="1.38797" stroke-linecap="round" stroke-linejoin="round"/>
<path d="M265.828 25.6953H214.865V51.6247H265.828V25.6953Z" fill="#E9EAEA"/>
<path d="M265.85 25.6953H214.865V51.6247H265.85V25.6953Z" stroke="#3E3A39" stroke-width="1.38797" stroke-linecap="round" stroke-linejoin="round"/>
<path d="M219.686 31.7495L220.358 31.0323L221.03 31.7495V37.5091L220.358 38.2263L219.686 37.5091V31.7495ZM219.686 39.1899L220.358 38.4727L221.03 39.1899V44.9495L220.358 45.6666L219.686 44.9495V39.1899ZM226.498 31.6375H221.142L220.47 30.9203L221.142 30.2031H226.498L227.171 30.9203L226.498 31.6375ZM226.498 45.084L227.171 45.8011L226.498 46.5182H221.142L220.47 45.8011L221.142 45.084H226.498ZM226.61 31.7495L227.283 31.0323L227.955 31.7495V37.5091L227.283 38.2263L226.61 37.5091V31.7495ZM226.61 39.1899L227.283 38.4727L227.955 39.1899V44.9495L227.283 45.6666L226.61 44.9495V39.1899Z" fill="#3E3A39"/>
<path d="M219.686 31.7495L220.358 31.0323L221.03 31.7495V37.5091L220.358 38.2263L219.686 37.5091V31.7495ZM219.686 39.1899L220.358 38.4727L221.03 39.1899V44.9495L220.358 45.6666L219.686 44.9495V39.1899ZM226.498 31.6375H221.142L220.47 30.9203L221.142 30.2031H226.498L227.171 30.9203L226.498 31.6375ZM226.498 45.084L227.171 45.8011L226.498 46.5182H221.142L220.47 45.8011L221.142 45.084H226.498ZM226.61 31.7495L227.283 31.0323L227.955 31.7495V37.5091L227.283 38.2263L226.61 37.5091V31.7495ZM226.61 39.1899L227.283 38.4727L227.955 39.1899V44.9495L227.283 45.6666L226.61 44.9495V39.1899Z" stroke="#3E3A39" stroke-width="0.358186" stroke-linecap="round" stroke-linejoin="round"/>
<path d="M230.308 37.5481V31.8109L230.98 31.0938L231.652 31.8109V37.5481L230.98 38.2652L230.308 37.5481ZM231.764 31.6764L231.092 30.9594L231.764 30.2422H237.121L237.793 30.9594L237.121 31.6764H231.764ZM231.764 39.0944L231.092 38.3773L231.764 37.6602H237.121L237.793 38.3773L237.121 39.0944H231.764ZM237.098 45.1006L237.77 45.8177L237.098 46.5349H231.742L231.07 45.8177L231.742 45.1006H237.098ZM237.882 38.2652L237.21 37.5481V31.8109L237.882 31.0938L238.555 31.8109V37.5481L237.882 38.2652ZM237.882 45.6832L237.21 44.9661V39.229L237.882 38.5118L238.555 39.229V44.9661L237.882 45.6832Z" fill="#3E3A39"/>
<path d="M230.308 37.5481V31.8109L230.98 31.0938L231.652 31.8109V37.5481L230.98 38.2652L230.308 37.5481ZM231.764 31.6764L231.092 30.9594L231.764 30.2422H237.121L237.793 30.9594L237.121 31.6764H231.764ZM231.764 39.0944L231.092 38.3773L231.764 37.6602H237.121L237.793 38.3773L237.121 39.0944H231.764ZM237.098 45.1006L237.77 45.8177L237.098 46.5349H231.742L231.07 45.8177L231.742 45.1006H237.098ZM237.882 38.2652L237.21 37.5481V31.8109L237.882 31.0938L238.555 31.8109V37.5481L237.882 38.2652ZM237.882 45.6832L237.21 44.9661V39.229L237.882 38.5118L238.555 39.229V44.9661L237.882 45.6832Z" stroke="#3E3A39" stroke-width="0.358186" stroke-linecap="round" stroke-linejoin="round"/>
<path d="M242.162 36.3832V37.0556L241.535 37.7279L240.907 37.0556V36.3832L241.535 35.7109L242.162 36.3832ZM242.162 45.1683V45.8406L241.535 46.513L240.907 45.8406V45.1683L241.535 44.496L242.162 45.1683Z" fill="#3E3A39"/>
<path d="M242.162 36.3832V37.0556L241.535 37.7279L240.907 37.0556V36.3832L241.535 35.7109L242.162 36.3832ZM242.162 45.1683V45.8406L241.535 46.513L240.907 45.8406V45.1683L241.535 44.496L242.162 45.1683Z" stroke="#3E3A39" stroke-width="0.358186" stroke-linecap="round" stroke-linejoin="round"/>
<path d="M243.889 31.7495L244.561 31.0323L245.233 31.7495V37.5091L244.561 38.2263L243.889 37.5091V31.7495ZM243.889 39.1899L244.561 38.4727L245.233 39.1899V44.9495L244.561 45.6666L243.889 44.9495V39.1899ZM250.702 31.6375H245.345L244.673 30.9203L245.345 30.2031H250.702L251.374 30.9203L250.702 31.6375ZM250.702 45.084L251.374 45.8011L250.702 46.5182H245.345L244.673 45.8011L245.345 45.084H250.702ZM250.814 31.7495L251.486 31.0323L252.158 31.7495V37.5091L251.486 38.2263L250.814 37.5091V31.7495ZM250.814 39.1899L251.486 38.4727L252.158 39.1899V44.9495L251.486 45.6666L250.814 44.9495V39.1899Z" fill="#3E3A39"/>
<path d="M243.889 31.7495L244.561 31.0323L245.233 31.7495V37.5091L244.561 38.2263L243.889 37.5091V31.7495ZM243.889 39.1899L244.561 38.4727L245.233 39.1899V44.9495L244.561 45.6666L243.889 44.9495V39.1899ZM250.702 31.6375H245.345L244.673 30.9203L245.345 30.2031H250.702L251.374 30.9203L250.702 31.6375ZM250.702 45.084L251.374 45.8011L250.702 46.5182H245.345L244.673 45.8011L245.345 45.084H250.702ZM250.814 31.7495L251.486 31.0323L252.158 31.7495V37.5091L251.486 38.2263L250.814 37.5091V31.7495ZM250.814 39.1899L251.486 38.4727L252.158 39.1899V44.9495L251.486 45.6666L250.814 44.9495V39.1899Z" stroke="#3E3A39" stroke-width="0.358186" stroke-linecap="round" stroke-linejoin="round"/>
<path d="M253.884 31.7495L254.556 31.0323L255.228 31.7495V37.5091L254.556 38.2263L253.884 37.5091V31.7495ZM253.884 39.1899L254.556 38.4727L255.228 39.1899V44.9495L254.556 45.6666L253.884 44.9495V39.1899ZM260.697 31.6375H255.34L254.668 30.9203L255.34 30.2031H260.697L261.369 30.9203L260.697 31.6375ZM260.697 45.084L261.369 45.8011L260.697 46.5182H255.34L254.668 45.8011L255.34 45.084H260.697ZM260.809 31.7495L261.481 31.0323L262.153 31.7495V37.5091L261.481 38.2263L260.809 37.5091V31.7495ZM260.809 39.1899L261.481 38.4727L262.153 39.1899V44.9495L261.481 45.6666L260.809 44.9495V39.1899Z" fill="#3E3A39"/>
<path d="M253.884 31.7495L254.556 31.0323L255.228 31.7495V37.5091L254.556 38.2263L253.884 37.5091V31.7495ZM253.884 39.1899L254.556 38.4727L255.228 39.1899V44.9495L254.556 45.6666L253.884 44.9495V39.1899ZM260.697 31.6375H255.34L254.668 30.9203L255.34 30.2031H260.697L261.369 30.9203L260.697 31.6375ZM260.697 45.084L261.369 45.8011L260.697 46.5182H255.34L254.668 45.8011L255.34 45.084H260.697ZM260.809 31.7495L261.481 31.0323L262.153 31.7495V37.5091L261.481 38.2263L260.809 37.5091V31.7495ZM260.809 39.1899L261.481 38.4727L262.153 39.1899V44.9495L261.481 45.6666L260.809 44.9495V39.1899Z" stroke="#3E3A39" stroke-width="0.358186" stroke-linecap="round" stroke-linejoin="round"/>
<path d="M208.848 15H207.401L211.585 3.60319H213.01L217.195 15H215.748L212.342 5.4062H212.253L208.848 15ZM209.382 10.5481H215.214V11.7724H209.382V10.5481ZM218.97 3.60319H220.617L224.49 13.0634H224.624L228.497 3.60319H230.144V15H228.853V6.34109H228.742L225.18 15H223.934L220.372 6.34109H220.261V15H218.97V3.60319Z" fill="#231815"/>
<path d="M56.2444 142.79H46.1595C43.1116 142.79 40.624 140.302 40.624 137.254C40.624 134.206 43.1116 131.719 46.1595 131.719H56.2444C59.2923 131.719 61.7799 134.206 61.7799 137.254C61.7799 140.302 59.2923 142.79 56.2444 142.79Z" fill="#FFF9BB"/>
<path d="M56.2444 142.79H46.1595C43.1116 142.79 40.624 140.302 40.624 137.254C40.624 134.206 43.1116 131.719 46.1595 131.719H56.2444C59.2923 131.719 61.7799 134.206 61.7799 137.254C61.7799 140.302 59.2923 142.79 56.2444 142.79Z" stroke="#3E3A39" stroke-width="1.38797" stroke-linecap="round" stroke-linejoin="round"/>
<path d="M112.922 148.766H106.916V165.148H112.922V148.766Z" fill="white"/>
<path d="M112.922 148.766H106.916V165.148H112.922V148.766Z" stroke="#3E3A39" stroke-width="1.38797" stroke-linecap="round" stroke-linejoin="round"/>
<path d="M114.38 155.503H37.0176V140.555H110.099C112.475 140.555 114.38 142.46 114.38 144.835V155.503Z" fill="#FFF9BB"/>
<path d="M114.38 155.503H37.0176V140.555H110.099C112.475 140.555 114.38 142.46 114.38 144.835V155.503Z" stroke="#3E3A39" stroke-width="1.38797" stroke-linecap="round" stroke-linejoin="round"/>
<path d="M70.3874 164.875H69.4686C67.0258 164.875 65.0312 162.88 65.0312 160.437C65.0312 157.995 67.0258 156 69.4686 156H70.3874C72.8302 156 74.8248 157.995 74.8248 160.437C74.8248 162.88 72.8302 164.875 70.3874 164.875Z" fill="white"/>
<path d="M70.3874 164.875H69.4686C67.0258 164.875 65.0312 162.88 65.0312 160.437C65.0312 157.995 67.0258 156 69.4686 156H70.3874C72.8302 156 74.8248 157.995 74.8248 160.437C74.8248 162.88 72.8302 164.875 70.3874 164.875Z" stroke="#3E3A39" stroke-width="1.38797" stroke-linecap="round" stroke-linejoin="round"/>
<path d="M82.5564 164.875H81.6375C79.1947 164.875 77.2002 162.88 77.2002 160.437C77.2002 157.995 79.1947 156 81.6375 156H82.5564C84.9991 156 86.9937 157.995 86.9937 160.437C86.9937 162.88 84.9991 164.875 82.5564 164.875Z" fill="white"/>
<path d="M82.5564 164.875H81.6375C79.1947 164.875 77.2002 162.88 77.2002 160.437C77.2002 157.995 79.1947 156 81.6375 156H82.5564C84.9991 156 86.9937 157.995 86.9937 160.437C86.9937 162.88 84.9991 164.875 82.5564 164.875Z" stroke="#3E3A39" stroke-width="1.38797" stroke-linecap="round" stroke-linejoin="round"/>
<path d="M41.0061 124.297H35V165.129H41.0061V124.297Z" fill="white"/>
<path d="M41.0061 124.297H35V165.129H41.0061V124.297Z" stroke="#3E3A39" stroke-width="1.38797" stroke-linecap="round" stroke-linejoin="round"/>
<path d="M103.242 97.55L97.3255 92.8438L80.4725 113.977C78.9262 112.857 77.0661 112.184 75.0267 112.184C73.4579 112.184 72.0236 112.61 70.7238 113.282L54.4311 92.8438L48.5146 97.55L65.9503 119.423C65.7934 120.095 65.7038 120.79 65.7038 121.507V146.675H84.3496V121.507C84.3496 121.507 84.3496 121.35 84.3272 121.283L103.242 97.55Z" fill="#B5DDDC"/>
<path d="M103.242 97.55L97.3255 92.8438L80.4725 113.977C78.9262 112.857 77.0661 112.184 75.0267 112.184C73.4579 112.184 72.0236 112.61 70.7238 113.282L54.4311 92.8438L48.5146 97.55L65.9503 119.423C65.7934 120.095 65.7038 120.79 65.7038 121.507V146.675H84.3496V121.507C84.3496 121.507 84.3496 121.35 84.3272 121.283L103.242 97.55Z" stroke="#3E3A39" stroke-width="1.38797" stroke-linecap="round" stroke-linejoin="round"/>
<path d="M87.0816 100.767C86.9695 94.178 81.5461 88.9115 74.9573 89.0011C68.3461 89.1132 63.1019 94.5366 63.1916 101.125C63.2812 106.683 67.1583 111.278 72.3352 112.51V113.048C72.3352 114.662 75.3606 122.393 75.3606 122.393C75.3606 122.393 78.2965 114.662 78.2965 113.048V112.398C83.4061 110.986 87.1488 106.302 87.0591 100.744" fill="white"/>
<path d="M87.0816 100.767C86.9695 94.178 81.5461 88.9115 74.9573 89.0011C68.3461 89.1132 63.1019 94.5366 63.1916 101.125C63.2812 106.683 67.1583 111.278 72.3352 112.51V113.048C72.3352 114.662 75.3606 122.393 75.3606 122.393C75.3606 122.393 78.2965 114.662 78.2965 113.048V112.398C83.4061 110.986 87.1488 106.302 87.0591 100.744L87.0816 100.767Z" stroke="#3E3A39" stroke-width="1.38797" stroke-linecap="round" stroke-linejoin="round"/>
<path d="M77.6699 96.3583L79.3283 96.3359" stroke="#3E3A39" stroke-width="1.38797" stroke-linecap="round" stroke-linejoin="round"/>
<path d="M71.3496 96.4756L73.008 96.4531" stroke="#3E3A39" stroke-width="1.38797" stroke-linecap="round" stroke-linejoin="round"/>
<path d="M74.9367 89.0011C70.0287 89.0684 65.8379 92.1163 64.0898 96.3743C68.4151 93.7074 81.4807 93.4161 86.0749 96.1278C84.1924 91.8698 79.8895 88.9339 74.9591 89.0011" fill="#C9CACA"/>
<path d="M74.9367 89.0011C70.0287 89.0684 65.8379 92.1163 64.0898 96.3743C68.4151 93.7074 81.4807 93.4161 86.0749 96.1278C84.1924 91.8698 79.8895 88.9339 74.9591 89.0011H74.9367Z" stroke="#3E3A39" stroke-width="1.38797" stroke-linecap="round" stroke-linejoin="round"/>
<path d="M65.2109 158.325V140.419C65.2109 137.752 67.3848 135.578 70.0517 135.578C72.7186 135.578 74.8924 137.752 74.8924 140.419V158.325" fill="#B5DDDC"/>
<path d="M65.2109 158.325V140.419C65.2109 137.752 67.3848 135.578 70.0517 135.578C72.7186 135.578 74.8924 137.752 74.8924 140.419V158.325" stroke="#3E3A39" stroke-width="1.38797" stroke-linecap="round" stroke-linejoin="round"/>
<path d="M76.9307 158.325V140.419C76.9307 137.752 79.1045 135.578 81.7714 135.578C84.4382 135.578 86.6121 137.752 86.6121 140.419V158.325" fill="#B5DDDC"/>
<path d="M76.9307 158.325V140.419C76.9307 137.752 79.1045 135.578 81.7714 135.578C84.4382 135.578 86.6121 137.752 86.6121 140.419V158.325" stroke="#3E3A39" stroke-width="1.38797" stroke-linecap="round" stroke-linejoin="round"/>
<path d="M77.0871 103.737C77.0871 105.126 76.2356 106.247 75.1823 106.247C74.129 106.247 73.2773 105.126 73.2773 103.737C73.2773 102.347 74.129 101.227 75.1823 101.227C76.2356 101.227 77.0871 102.347 77.0871 103.737Z" fill="white"/>
<path d="M77.0871 103.737C77.0871 105.126 76.2356 106.247 75.1823 106.247C74.129 106.247 73.2773 105.126 73.2773 103.737C73.2773 102.347 74.129 101.227 75.1823 101.227C76.2356 101.227 77.0871 102.347 77.0871 103.737Z" stroke="#3E3A39" stroke-width="1.38797" stroke-linecap="round" stroke-linejoin="round"/>
<path d="M71.6191 98.9096C71.6191 98.9096 72.5155 98.3045 73.3672 98.9096H71.6191Z" fill="white"/>
<path d="M71.6191 98.9096C71.6191 98.9096 72.5155 98.3045 73.3672 98.9096" stroke="#3E3A39" stroke-width="1.38797" stroke-linecap="round" stroke-linejoin="round"/>
<path d="M76.999 98.9096C76.999 98.9096 77.8955 98.3045 78.7471 98.9096H76.999Z" fill="white"/>
<path d="M76.999 98.9096C76.999 98.9096 77.8955 98.3045 78.7471 98.9096" stroke="#3E3A39" stroke-width="1.38797" stroke-linecap="round" stroke-linejoin="round"/>
<path d="M97.3917 98.604C99.4759 100.262 102.546 99.9262 104.205 97.842C105.863 95.7578 105.527 92.6876 103.443 91.0292C101.358 89.3708 98.2882 89.7069 96.6298 91.7911C94.9714 93.8753 95.3075 96.9456 97.3917 98.604Z" fill="white"/>
<path d="M97.3917 98.604C99.4759 100.262 102.546 99.9262 104.205 97.842C105.863 95.7578 105.527 92.6876 103.443 91.0292C101.358 89.3708 98.2882 89.7069 96.6298 91.7911C94.9714 93.8753 95.3075 96.9456 97.3917 98.604Z" stroke="#3E3A39" stroke-width="1.38797" stroke-linecap="round" stroke-linejoin="round"/>
<path d="M54.3401 98.604C52.2559 100.262 49.1856 99.9262 47.5272 97.842C45.8688 95.7578 46.205 92.6876 48.2892 91.0292C50.3734 89.3708 53.4437 89.7069 55.1021 91.7911C56.7605 93.8753 56.4243 96.9456 54.3401 98.604Z" fill="white"/>
<path d="M54.3401 98.604C52.2559 100.262 49.1856 99.9262 47.5272 97.842C45.8688 95.7578 46.205 92.6876 48.2892 91.0292C50.3734 89.3708 53.4437 89.7069 55.1021 91.7911C56.7605 93.8753 56.4243 96.9456 54.3401 98.604Z" stroke="#3E3A39" stroke-width="1.38797" stroke-linecap="round" stroke-linejoin="round"/>
<path d="M248.104 112.93C248.104 112.93 256.509 117.882 254.783 131.239L248.239 130.701" fill="white"/>
<path d="M248.104 112.93C248.104 112.93 256.509 117.882 254.783 131.239L248.239 130.701" stroke="#3E3A39" stroke-width="1.38797" stroke-linecap="round" stroke-linejoin="round"/>
<path d="M232.059 112.93C232.059 112.93 223.498 119.631 222.489 127.855L231.924 130.701" fill="white"/>
<path d="M232.059 112.93C232.059 112.93 223.498 119.631 222.489 127.855L231.924 130.701" stroke="#3E3A39" stroke-width="1.38797" stroke-linecap="round" stroke-linejoin="round"/>
<path d="M240.195 108.57C235.063 108.57 230.872 112.761 230.872 117.893V143.061H249.518V117.893C249.518 112.761 245.327 108.57 240.195 108.57Z" fill="#FDDF96"/>
<path d="M240.195 108.57C235.063 108.57 230.872 112.761 230.872 117.893V143.061H249.518V117.893C249.518 112.761 245.327 108.57 240.195 108.57Z" stroke="#3E3A39" stroke-width="1.38797" stroke-linecap="round" stroke-linejoin="round"/>
<path d="M234.479 164.398H233.56C231.118 164.398 229.123 162.404 229.123 159.961C229.123 157.518 231.118 155.523 233.56 155.523H234.479C236.922 155.523 238.917 157.518 238.917 159.961C238.917 162.404 236.922 164.398 234.479 164.398Z" fill="white"/>
<path d="M234.479 164.398H233.56C231.118 164.398 229.123 162.404 229.123 159.961C229.123 157.518 231.118 155.523 233.56 155.523H234.479C236.922 155.523 238.917 157.518 238.917 159.961C238.917 162.404 236.922 164.398 234.479 164.398Z" stroke="#3E3A39" stroke-width="1.38797" stroke-linecap="round" stroke-linejoin="round"/>
<path d="M246.671 164.398H245.752C243.309 164.398 241.314 162.404 241.314 159.961C241.314 157.518 243.309 155.523 245.752 155.523H246.671C249.113 155.523 251.108 157.518 251.108 159.961C251.108 162.404 249.113 164.398 246.671 164.398Z" fill="white"/>
<path d="M246.671 164.398H245.752C243.309 164.398 241.314 162.404 241.314 159.961C241.314 157.518 243.309 155.523 245.752 155.523H246.671C249.113 155.523 251.108 157.518 251.108 159.961C251.108 162.404 249.113 164.398 246.671 164.398Z" stroke="#3E3A39" stroke-width="1.38797" stroke-linecap="round" stroke-linejoin="round"/>
<path d="M229.324 158.812V142.317C229.324 139.673 231.498 137.477 234.143 137.477C236.787 137.477 238.983 139.65 238.983 142.317V158.812" fill="#C9CACA"/>
<path d="M229.324 158.812V142.317C229.324 139.673 231.498 137.477 234.143 137.477C236.787 137.477 238.983 139.65 238.983 142.317V158.812" stroke="#3E3A39" stroke-width="1.38797" stroke-linecap="round" stroke-linejoin="round"/>
<path d="M241.047 158.812V142.317C241.047 139.673 243.221 137.477 245.888 137.477C248.555 137.477 250.706 139.65 250.706 142.317V158.812" fill="#C9CACA"/>
<path d="M241.047 158.812V142.317C241.047 139.673 243.221 137.477 245.888 137.477C248.555 137.477 250.706 139.65 250.706 142.317V158.812" stroke="#3E3A39" stroke-width="1.38797" stroke-linecap="round" stroke-linejoin="round"/>
<path d="M252.723 96.2374C252.61 89.3797 246.963 83.9114 240.105 84.0011C233.247 84.1131 227.757 89.7607 227.869 96.6184C227.959 102.176 231.701 106.77 236.766 108.272C236.923 108.429 237.125 108.586 237.393 108.675V109.012C237.393 110.692 240.553 111.97 240.553 111.97C240.553 111.97 243.601 110.67 243.601 109.012V108.339C248.935 106.86 252.812 101.997 252.723 96.215" fill="white"/>
<path d="M252.723 96.2374C252.61 89.3797 246.963 83.9114 240.105 84.0011C233.247 84.1131 227.757 89.7607 227.869 96.6184C227.959 102.176 231.701 106.77 236.766 108.272C236.923 108.429 237.125 108.586 237.393 108.675V109.012C237.393 110.692 240.553 111.97 240.553 111.97C240.553 111.97 243.601 110.67 243.601 109.012V108.339C248.935 106.86 252.812 101.997 252.723 96.215V96.2374Z" stroke="#3E3A39" stroke-width="1.38797" stroke-linecap="round" stroke-linejoin="round"/>
<path d="M242.95 93.5995L244.676 93.5547" stroke="#3E3A39" stroke-width="1.38797" stroke-linecap="round" stroke-linejoin="round"/>
<path d="M236.385 93.701L238.088 93.6562" stroke="#3E3A39" stroke-width="1.38797" stroke-linecap="round" stroke-linejoin="round"/>
<path d="M251.668 91.4209C249.718 86.9836 245.258 83.9357 240.104 84.0254C234.994 84.115 230.646 87.2525 228.809 91.6898L251.668 91.4209Z" fill="#C9CACA"/>
<path d="M251.668 91.4209C249.718 86.9836 245.258 83.9357 240.104 84.0254C234.994 84.115 230.646 87.2525 228.809 91.6898L251.668 91.4209Z" stroke="#3E3A39" stroke-width="1.38797" stroke-linecap="round" stroke-linejoin="round"/>
<path d="M221.055 136.617H216.707V164.026H221.055V136.617Z" fill="white"/>
<path d="M221.055 136.602H216.707V164.01H221.055V136.602Z" stroke="#3E3A39" stroke-width="1.38797" stroke-linecap="round" stroke-linejoin="round"/>
<path d="M265.271 136.617H260.923V164.026H265.271V136.617Z" fill="white"/>
<path d="M265.271 136.602H260.923V164.01H265.271V136.602Z" stroke="#3E3A39" stroke-width="1.38797" stroke-linecap="round" stroke-linejoin="round"/>
<path d="M269.977 131.641H212V138.857H269.977V131.641Z" fill="#EADFBE"/>
<path d="M269.977 131.641H212V138.857H269.977V131.641Z" stroke="#3E3A39" stroke-width="1.38797" stroke-linecap="round" stroke-linejoin="round"/>
<path d="M236.586 110.219H244.676L240.396 123.598L236.586 110.219Z" fill="white"/>
<path d="M236.586 110.219H244.676L240.396 123.598L236.586 110.219Z" stroke="#3E3A39" stroke-width="1.38797" stroke-linecap="round" stroke-linejoin="round"/>
<path d="M239.007 96.5289C239.007 97.134 238.514 97.6046 237.931 97.6046C237.349 97.6046 236.855 97.1116 236.855 96.5289C236.855 95.9462 237.326 95.4531 237.931 95.4531C238.536 95.4531 239.007 95.9238 239.007 96.5289Z" fill="#3E3A39"/>
<path d="M243.959 96.5289C243.959 97.134 243.466 97.6046 242.883 97.6046C242.301 97.6046 241.808 97.1116 241.808 96.5289C241.808 95.9462 242.278 95.4531 242.883 95.4531C243.488 95.4531 243.959 95.9238 243.959 96.5289Z" fill="#3E3A39"/>
<path d="M238.109 101.742C238.109 101.742 240.261 102.908 242.412 101.742H238.109Z" fill="white"/>
<path d="M238.109 101.742C238.109 101.742 240.261 102.908 242.412 101.742" stroke="#3E3A39" stroke-width="1.38797" stroke-linecap="round" stroke-linejoin="round"/>
<path d="M221.369 117.828L225.941 126.389" stroke="#3E3A39" stroke-width="1.38797" stroke-linecap="round" stroke-linejoin="round"/>
<path d="M227.845 131.245C225.761 132.903 222.691 132.567 221.032 130.483C219.374 128.398 219.71 125.328 221.794 123.67C223.878 122.011 226.949 122.348 228.607 124.432C230.265 126.516 229.929 129.586 227.845 131.245Z" fill="white"/>
<path d="M227.845 131.245C225.761 132.903 222.691 132.567 221.032 130.483C219.374 128.398 219.71 125.328 221.794 123.67C223.878 122.011 226.949 122.348 228.607 124.432C230.265 126.516 229.929 129.586 227.845 131.245Z" stroke="#3E3A39" stroke-width="1.38797" stroke-linecap="round" stroke-linejoin="round"/>
<path d="M247.028 131.245C249.113 132.903 252.183 132.567 253.841 130.483C255.5 128.398 255.164 125.328 253.079 123.67C250.995 122.011 247.925 122.348 246.266 124.432C244.608 126.516 244.944 129.586 247.028 131.245Z" fill="white"/>
<path d="M247.028 131.245C249.113 132.903 252.183 132.567 253.841 130.483C255.5 128.398 255.164 125.328 253.079 123.67C250.995 122.011 247.925 122.348 246.266 124.432C244.608 126.516 244.944 129.586 247.028 131.245Z" stroke="#3E3A39" stroke-width="1.38797" stroke-linecap="round" stroke-linejoin="round"/>
<path d="M396.458 127.788H395.337C391.819 127.788 388.95 124.92 388.95 121.401V105.512C388.95 99.461 392.536 94.6875 396.054 94.6875H397.175C400.693 94.6875 402.867 97.5561 402.867 101.097V121.401C402.867 124.92 399.999 127.788 396.48 127.788" fill="#C9CACA"/>
<path d="M396.458 127.788H395.337C391.819 127.788 388.95 124.92 388.95 121.401V105.512C388.95 99.461 392.536 94.6875 396.054 94.6875H397.175C400.693 94.6875 402.867 97.5561 402.867 101.097V121.401C402.867 124.92 399.999 127.788 396.48 127.788H396.458Z" stroke="#3E3A39" stroke-width="1.38797" stroke-linecap="round" stroke-linejoin="round"/>
<path d="M426.89 117.49L425.074 105.523C424.738 103.371 422.721 101.892 420.57 102.206C418.418 102.52 416.939 104.559 417.253 106.688L417.544 108.638L415.707 106.957C412.86 104.201 406.966 107.562 410.395 112.806L419.337 120.942C420.189 121.704 421.265 122.017 422.318 121.928C422.721 121.995 423.125 122.017 423.55 121.95C425.702 121.614 427.181 119.597 426.867 117.468" fill="white"/>
<path d="M426.89 117.49L425.074 105.523C424.738 103.371 422.721 101.892 420.57 102.206C418.418 102.52 416.939 104.559 417.253 106.688L417.544 108.638L415.707 106.957C412.86 104.201 406.966 107.562 410.395 112.806L419.337 120.942C420.189 121.704 421.265 122.017 422.318 121.928C422.721 121.995 423.125 122.017 423.55 121.95C425.702 121.614 427.181 119.597 426.867 117.468L426.89 117.49Z" stroke="#3E3A39" stroke-width="1.38797" stroke-linecap="round" stroke-linejoin="round"/>
<path d="M424.515 105.533C422.969 107.617 420.033 108.043 417.971 106.474C415.909 104.905 415.506 101.902 417.052 99.8179C418.598 97.7337 421.534 97.3078 423.596 98.8766C425.658 100.445 426.061 103.448 424.537 105.533" fill="white"/>
<path d="M424.515 105.533C422.969 107.617 420.033 108.043 417.971 106.474C415.909 104.905 415.506 101.902 417.052 99.8179C418.598 97.7337 421.534 97.3078 423.596 98.8766C425.658 100.445 426.061 103.448 424.537 105.533H424.515Z" stroke="#3E3A39" stroke-width="1.38797" stroke-linecap="round" stroke-linejoin="round"/>
<path d="M394.236 175.113C394.236 175.113 396.433 174.598 395.715 171.841C395.021 169.085 394.752 170.609 394.64 168.009C394.528 165.409 394.595 165.902 394.147 164.916L386.729 159C386.729 159 382.112 161.891 382 163.706L394.236 175.091V175.113Z" fill="white"/>
<path d="M394.236 175.113C394.236 175.113 396.433 174.598 395.715 171.841C395.021 169.085 394.752 170.609 394.64 168.009C394.528 165.409 394.595 165.902 394.147 164.916L386.729 159C386.729 159 382.112 161.891 382 163.706L394.236 175.091V175.113Z" stroke="#3E3A39" stroke-width="1.38797" stroke-linecap="round" stroke-linejoin="round"/>
<path d="M386.371 159.388L393.722 150.491C394.372 149.706 394.82 148.81 395.066 147.824L400.467 125.884C401.095 123.306 410.485 125.547 409.858 128.125L404.569 149.549C404.3 150.67 403.807 151.701 403.134 152.642L393.61 165.73L386.349 159.365L386.371 159.388Z" fill="#C9CACA"/>
<path d="M386.371 159.388L393.722 150.491C394.372 149.706 394.82 148.81 395.066 147.824L400.467 125.884C401.095 123.306 410.485 125.547 409.858 128.125L404.569 149.549C404.3 150.67 403.807 151.701 403.134 152.642L393.61 165.73L386.349 159.365L386.371 159.388Z" stroke="#3E3A39" stroke-width="1.38797" stroke-linecap="round" stroke-linejoin="round"/>
<path d="M428.729 174.443C428.729 174.443 429.76 172.448 427.228 171.171C424.695 169.893 425.412 171.171 423.373 169.535C421.334 167.921 421.356 167.876 420.325 167.562L411.137 169.064C411.137 169.064 410.15 174.667 411.45 175.944L428.707 174.443H428.729Z" fill="white"/>
<path d="M428.729 174.443C428.729 174.443 429.76 172.448 427.228 171.171C424.695 169.893 425.412 171.171 423.373 169.535C421.334 167.921 421.356 167.876 420.325 167.562L411.137 169.064C411.137 169.064 410.15 174.667 411.45 175.944L428.707 174.443H428.729Z" stroke="#3E3A39" stroke-width="1.38797" stroke-linecap="round" stroke-linejoin="round"/>
<path d="M411.047 169.801L405.893 130.021C405.534 127.399 415.103 126.077 415.462 128.699L420.617 168.478L411.047 169.801Z" fill="#C9CACA"/>
<path d="M411.047 169.801L405.893 130.021C405.534 127.399 415.103 126.077 415.462 128.699L420.617 168.478L411.047 169.801Z" stroke="#3E3A39" stroke-width="1.38797" stroke-linecap="round" stroke-linejoin="round"/>
<path d="M407.977 96.5469C402.845 96.5469 398.654 100.738 398.654 105.87V131.037H417.3V105.87C417.3 100.738 413.109 96.5469 407.977 96.5469Z" fill="#FDDF96"/>
<path d="M407.977 96.5469C402.845 96.5469 398.654 100.738 398.654 105.87V131.037H417.3V105.87C417.3 100.738 413.109 96.5469 407.977 96.5469Z" stroke="#3E3A39" stroke-width="1.38797" stroke-linecap="round" stroke-linejoin="round"/>
<path d="M421.647 83.0046C420.862 76.1917 414.699 71.3061 407.886 72.0905C401.073 72.8749 396.188 79.0379 396.972 85.8508C397.577 91.1622 401.499 95.2857 406.407 96.4735V97.0338C406.407 98.7146 409.567 100.014 409.567 100.014C409.567 100.014 412.615 98.7146 412.615 97.0338V96.3615C418.42 94.7703 422.364 89.1676 421.647 83.0046Z" fill="white"/>
<path d="M421.647 83.0046C420.862 76.1917 414.699 71.3061 407.886 72.0905C401.073 72.8749 396.188 79.0379 396.972 85.8508C397.577 91.1622 401.499 95.2857 406.407 96.4735V97.0338C406.407 98.7146 409.567 100.014 409.567 100.014C409.567 100.014 412.615 98.7146 412.615 97.0338V96.3615C418.42 94.7703 422.364 89.1676 421.647 83.0046Z" stroke="#3E3A39" stroke-width="1.38797" stroke-linecap="round" stroke-linejoin="round"/>
<path d="M416.378 80.8501L418.081 80.6484" stroke="#3E3A39" stroke-width="1.38797" stroke-linecap="round" stroke-linejoin="round"/>
<path d="M409.834 81.6236L411.56 81.4219" stroke="#3E3A39" stroke-width="1.38797" stroke-linecap="round" stroke-linejoin="round"/>
<path d="M420.1 78.3115C417.702 74.0982 412.973 71.4986 407.863 72.0813C402.776 72.6639 398.787 76.2273 397.397 80.8439L420.122 78.3115H420.1Z" fill="#C9CACA"/>
<path d="M420.1 78.3115C417.702 74.0982 412.973 71.4986 407.863 72.0813C402.776 72.6639 398.787 76.2273 397.397 80.8439L420.122 78.3115H420.1Z" stroke="#3E3A39" stroke-width="1.38797" stroke-linecap="round" stroke-linejoin="round"/>
<path d="M405.554 98.2266H412.299L412.86 105.174L405.554 98.2266Z" fill="white"/>
<path d="M405.554 98.2266H412.299L412.86 105.174L405.554 98.2266Z" stroke="#3E3A39" stroke-width="1.38797" stroke-linecap="round" stroke-linejoin="round"/>
<path d="M412.748 84.1735C412.793 84.7561 412.367 85.294 411.784 85.3612C411.202 85.4285 410.664 84.9803 410.597 84.3976C410.529 83.8149 410.977 83.277 411.56 83.2098C412.143 83.1426 412.681 83.5908 412.748 84.1735Z" fill="#3E3A39"/>
<path d="M417.679 83.6891C417.746 84.2718 417.298 84.8096 416.715 84.8769C416.132 84.9441 415.594 84.4959 415.527 83.9132C415.46 83.3305 415.908 82.7927 416.491 82.7254C417.074 82.6582 417.611 83.1064 417.679 83.6891Z" fill="#3E3A39"/>
<path d="M411.583 89.7344C411.583 89.7344 413.6 91.1014 415.863 90.1601L411.583 89.7344Z" fill="white"/>
<path d="M411.583 89.7344C411.583 89.7344 413.6 91.1014 415.863 90.1601" stroke="#3E3A39" stroke-width="1.38797" stroke-linecap="round" stroke-linejoin="round"/>
<path d="M399.817 103.502L388.903 133.644L396.008 136.221L406.922 106.079C407.908 101.955 401.005 100.14 399.817 103.502Z" fill="white"/>
<path d="M399.817 103.502L388.903 133.644L396.008 136.221L406.922 106.079C407.908 101.955 401.005 100.14 399.817 103.502Z" stroke="#3E3A39" stroke-width="1.38797" stroke-linecap="round" stroke-linejoin="round"/>
<path d="M394.843 128.23C392.333 127.311 389.531 128.633 388.635 131.143C387.739 133.653 389.038 136.455 391.548 137.351C394.058 138.248 396.86 136.948 397.756 134.438C398.675 131.928 397.353 129.126 394.843 128.23Z" fill="white"/>
<path d="M394.843 128.23C392.333 127.311 389.531 128.633 388.635 131.143C387.739 133.653 389.038 136.455 391.548 137.351C394.058 138.248 396.86 136.948 397.756 134.438C398.675 131.928 397.353 129.126 394.843 128.23Z" stroke="#3E3A39" stroke-width="1.38797" stroke-linecap="round" stroke-linejoin="round"/>
<path d="M429.799 16.6562H420.498V22.6848H429.799V16.6562Z" fill="white"/>
<path d="M429.82 16.6562H420.52V22.6848H429.82V16.6562Z" stroke="#3E3A39" stroke-width="1.38797" stroke-linecap="round" stroke-linejoin="round"/>
<path d="M432.24 57.3704H377.714C374.958 57.3704 372.739 55.1517 372.739 52.3952V24.8971C372.739 22.1406 374.958 19.9219 377.714 19.9219H432.24C434.997 19.9219 437.215 22.1406 437.215 24.8971V52.3952C437.215 55.1517 434.997 57.3704 432.24 57.3704Z" fill="#F8CDD0"/>
<path d="M432.218 19.9219H377.692C374.944 19.9219 372.717 22.1494 372.717 24.8971V52.3952C372.717 55.1429 374.944 57.3704 377.692 57.3704H432.218C434.965 57.3704 437.193 55.1429 437.193 52.3952V24.8971C437.193 22.1494 434.965 19.9219 432.218 19.9219Z" stroke="#3E3A39" stroke-width="1.38797" stroke-linecap="round" stroke-linejoin="round"/>
<path d="M430.447 25.6953H379.484V51.6247H430.447V25.6953Z" fill="#E9EAEA"/>
<path d="M430.469 25.6953H379.484V51.6247H430.469V25.6953Z" stroke="#3E3A39" stroke-width="1.38797" stroke-linecap="round" stroke-linejoin="round"/>
<path d="M384.281 31.7495L384.954 31.0323L385.626 31.7495V37.5091L384.954 38.2263L384.281 37.5091V31.7495ZM384.281 39.1899L384.954 38.4727L385.626 39.1899V44.9495L384.954 45.6666L384.281 44.9495V39.1899ZM391.094 31.6375H385.738L385.066 30.9203L385.738 30.2031H391.094L391.766 30.9203L391.094 31.6375ZM391.094 45.084L391.766 45.8011L391.094 46.5182H385.738L385.066 45.8011L385.738 45.084H391.094ZM391.206 31.7495L391.879 31.0323L392.551 31.7495V37.5091L391.879 38.2263L391.206 37.5091V31.7495ZM391.206 39.1899L391.879 38.4727L392.551 39.1899V44.9495L391.879 45.6666L391.206 44.9495V39.1899Z" fill="#3E3A39"/>
<path d="M384.281 31.7495L384.954 31.0323L385.626 31.7495V37.5091L384.954 38.2263L384.281 37.5091V31.7495ZM384.281 39.1899L384.954 38.4727L385.626 39.1899V44.9495L384.954 45.6666L384.281 44.9495V39.1899ZM391.094 31.6375H385.738L385.066 30.9203L385.738 30.2031H391.094L391.766 30.9203L391.094 31.6375ZM391.094 45.084L391.766 45.8011L391.094 46.5182H385.738L385.066 45.8011L385.738 45.084H391.094ZM391.206 31.7495L391.879 31.0323L392.551 31.7495V37.5091L391.879 38.2263L391.206 37.5091V31.7495ZM391.206 39.1899L391.879 38.4727L392.551 39.1899V44.9495L391.879 45.6666L391.206 44.9495V39.1899Z" stroke="#3E3A39" stroke-width="0.358186" stroke-linecap="round" stroke-linejoin="round"/>
<path d="M406.31 36.3832V37.0556L405.682 37.7279L405.055 37.0556V36.3832L405.682 35.7109L406.31 36.3832ZM406.31 45.1683V45.8406L405.682 46.513L405.055 45.8406V45.1683L405.682 44.496L406.31 45.1683Z" fill="#3E3A39"/>
<path d="M406.31 36.3832V37.0556L405.682 37.7279L405.055 37.0556V36.3832L405.682 35.7109L406.31 36.3832ZM406.31 45.1683V45.8406L405.682 46.513L405.055 45.8406V45.1683L405.682 44.496L406.31 45.1683Z" stroke="#3E3A39" stroke-width="0.358186" stroke-linecap="round" stroke-linejoin="round"/>
<path d="M418.479 31.7495L419.152 31.0323L419.824 31.7495V37.5091L419.152 38.2263L418.479 37.5091V31.7495ZM418.479 39.1899L419.152 38.4727L419.824 39.1899V44.9495L419.152 45.6666L418.479 44.9495V39.1899ZM425.292 31.6375H419.936L419.264 30.9203L419.936 30.2031H425.292L425.965 30.9203L425.292 31.6375ZM425.292 45.084L425.965 45.8011L425.292 46.5182H419.936L419.264 45.8011L419.936 45.084H425.292ZM425.404 31.7495L426.077 31.0323L426.749 31.7495V37.5091L426.077 38.2263L425.404 37.5091V31.7495ZM425.404 39.1899L426.077 38.4727L426.749 39.1899V44.9495L426.077 45.6666L425.404 44.9495V39.1899Z" fill="#3E3A39"/>
<path d="M418.479 31.7495L419.152 31.0323L419.824 31.7495V37.5091L419.152 38.2263L418.479 37.5091V31.7495ZM418.479 39.1899L419.152 38.4727L419.824 39.1899V44.9495L419.152 45.6666L418.479 44.9495V39.1899ZM425.292 31.6375H419.936L419.264 30.9203L419.936 30.2031H425.292L425.965 30.9203L425.292 31.6375ZM425.292 45.084L425.965 45.8011L425.292 46.5182H419.936L419.264 45.8011L419.936 45.084H425.292ZM425.404 31.7495L426.077 31.0323L426.749 31.7495V37.5091L426.077 38.2263L425.404 37.5091V31.7495ZM425.404 39.1899L426.077 38.4727L426.749 39.1899V44.9495L426.077 45.6666L425.404 44.9495V39.1899Z" stroke="#3E3A39" stroke-width="0.358186" stroke-linecap="round" stroke-linejoin="round"/>
<path d="M396.249 30.9749V37.5637L395.577 38.2809L394.904 37.5637V30.9749L395.577 30.2578L396.249 30.9749ZM401.695 37.6758L402.367 38.3929L401.695 39.1101H396.339L395.666 38.3929L396.339 37.6758H401.695ZM402.502 30.2578L403.174 30.9749V37.5637L402.502 38.2809L401.829 37.5637V30.9749L402.502 30.2578ZM401.829 39.2445L402.502 38.5274L403.174 39.2445V45.8333L402.502 46.5505L401.829 45.8333V39.2445Z" fill="#3E3A39"/>
<path d="M396.249 30.9749V37.5637L395.577 38.2809L394.904 37.5637V30.9749L395.577 30.2578L396.249 30.9749ZM401.695 37.6758L402.367 38.3929L401.695 39.1101H396.339L395.666 38.3929L396.339 37.6758H401.695ZM402.502 30.2578L403.174 30.9749V37.5637L402.502 38.2809L401.829 37.5637V30.9749L402.502 30.2578ZM401.829 39.2445L402.502 38.5274L403.174 39.2445V45.8333L402.502 46.5505L401.829 45.8333V39.2445Z" stroke="#3E3A39" stroke-width="0.358186" stroke-linecap="round" stroke-linejoin="round"/>
<path d="M408.662 31.0323L409.38 31.7495V37.4867L408.662 38.2038L407.945 37.4867V31.7495L408.662 31.0323ZM415.946 30.9203L415.229 31.6375H409.492L408.775 30.9203L409.492 30.2031H415.229L415.946 30.9203ZM415.946 38.3383L415.229 39.0554H409.492L408.775 38.3383L409.492 37.6211H415.229L415.946 38.3383ZM415.946 45.7563L415.229 46.4734H409.492L408.775 45.7563L409.492 45.0391H415.229L415.946 45.7563ZM416.798 39.1675V44.9046L416.08 45.6218L415.363 44.9046V39.1675L416.08 38.4503L416.798 39.1675Z" fill="#3E3A39"/>
<path d="M408.662 31.0323L409.38 31.7495V37.4867L408.662 38.2038L407.945 37.4867V31.7495L408.662 31.0323ZM415.946 30.9203L415.229 31.6375H409.492L408.775 30.9203L409.492 30.2031H415.229L415.946 30.9203ZM415.946 38.3383L415.229 39.0554H409.492L408.775 38.3383L409.492 37.6211H415.229L415.946 38.3383ZM415.946 45.7563L415.229 46.4734H409.492L408.775 45.7563L409.492 45.0391H415.229L415.946 45.7563ZM416.798 39.1675V44.9046L416.08 45.6218L415.363 44.9046V39.1675L416.08 38.4503L416.798 39.1675Z" stroke="#3E3A39" stroke-width="0.358186" stroke-linecap="round" stroke-linejoin="round"/>
<path d="M373.38 15V3.60319H377.231C378.125 3.60319 378.856 3.76457 379.424 4.08733C379.995 4.40638 380.418 4.83858 380.692 5.38394C380.967 5.92929 381.104 6.53772 381.104 7.20921C381.104 7.8807 380.967 8.49098 380.692 9.04005C380.421 9.58911 380.002 10.0269 379.435 10.3533C378.867 10.6761 378.14 10.8375 377.253 10.8375H374.493V9.61323H377.209C377.821 9.61323 378.312 9.50749 378.683 9.29603C379.054 9.08456 379.323 8.7989 379.49 8.43904C379.661 8.07547 379.746 7.66553 379.746 7.20921C379.746 6.75289 379.661 6.3448 379.49 5.98494C379.323 5.62508 379.053 5.34313 378.678 5.13909C378.303 4.93133 377.806 4.82745 377.186 4.82745H374.76V15H373.38ZM383.327 3.60319H384.974L388.848 13.0634H388.981L392.854 3.60319H394.501V15H393.21V6.34109H393.099L389.538 15H388.291L384.73 6.34109H384.618V15H383.327V3.60319Z" fill="#231815"/>
<path d="M595.081 16.6562H585.78V22.6848H595.081V16.6562Z" fill="white"/>
<path d="M595.081 16.6562H585.78V22.6848H595.081V16.6562Z" stroke="#3E3A39" stroke-width="1.38797" stroke-linecap="round" stroke-linejoin="round"/>
<path d="M597.501 57.3704H542.975C540.219 57.3704 538 55.1517 538 52.3952V24.8971C538 22.1406 540.219 19.9219 542.975 19.9219H597.501C600.235 19.9219 602.476 22.1406 602.476 24.8971V52.3952C602.476 55.1517 600.257 57.3704 597.501 57.3704Z" fill="#F8CDD0"/>
<path d="M542.975 19.9219H597.501C600.257 19.9219 602.476 22.163 602.476 24.8971V52.3952C602.476 55.1517 600.257 57.3704 597.501 57.3704H542.975C540.219 57.3704 538 55.1517 538 52.3952V24.8971C538 22.1406 540.241 19.9219 542.975 19.9219Z" stroke="#3E3A39" stroke-width="1.38797" stroke-linecap="round" stroke-linejoin="round"/>
<path d="M595.732 25.6953H544.747V51.6247H595.732V25.6953Z" fill="#E9EAEA"/>
<path d="M595.732 25.6953H544.747V51.6247H595.732V25.6953Z" stroke="#3E3A39" stroke-width="1.38797" stroke-linecap="round" stroke-linejoin="round"/>
<path d="M555.301 30.1875L555.974 30.9047V37.4935L555.301 38.2106L554.629 37.4935V30.9047L555.301 30.1875ZM554.651 39.1743L555.324 38.4571L555.996 39.1743V45.7631L555.324 46.4802L554.651 45.7631V39.1743Z" fill="#3E3A39"/>
<path d="M555.301 30.1875L555.974 30.9047V37.4935L555.301 38.2106L554.629 37.4935V30.9047L555.301 30.1875ZM554.651 39.1743L555.324 38.4571L555.996 39.1743V45.7631L555.324 46.4802L554.651 45.7631V39.1743Z" stroke="#3E3A39" stroke-width="0.358186" stroke-linecap="round" stroke-linejoin="round"/>
<path d="M564.11 30.1875L564.782 30.9047V37.4935L564.11 38.2106L563.438 37.4935V30.9047L564.11 30.1875ZM563.438 39.1743L564.11 38.4571L564.782 39.1743V45.7631L564.11 46.4802L563.438 45.7631V39.1743Z" fill="#3E3A39"/>
<path d="M564.11 30.1875L564.782 30.9047V37.4935L564.11 38.2106L563.438 37.4935V30.9047L564.11 30.1875ZM563.438 39.1743L564.11 38.4571L564.782 39.1743V45.7631L564.11 46.4802L563.438 45.7631V39.1743Z" stroke="#3E3A39" stroke-width="0.358186" stroke-linecap="round" stroke-linejoin="round"/>
<path d="M569.243 36.3832V37.0556L568.616 37.7279L567.988 37.0556V36.3832L568.616 35.7109L569.243 36.3832ZM569.243 45.1683V45.8406L568.616 46.513L567.988 45.8406V45.1683L568.616 44.496L569.243 45.1683Z" fill="#3E3A39"/>
<path d="M569.243 36.3832V37.0556L568.616 37.7279L567.988 37.0556V36.3832L568.616 35.7109L569.243 36.3832ZM569.243 45.1683V45.8406L568.616 46.513L567.988 45.8406V45.1683L568.616 44.496L569.243 45.1683Z" stroke="#3E3A39" stroke-width="0.358186" stroke-linecap="round" stroke-linejoin="round"/>
<path d="M572.939 30.9749V37.5637L572.267 38.2809L571.595 37.5637V30.9749L572.267 30.2578L572.939 30.9749ZM578.408 37.6758L579.08 38.3929L578.408 39.1101H573.051L572.379 38.3929L573.051 37.6758H578.408ZM579.192 30.2578L579.864 30.9749V37.5637L579.192 38.2809L578.52 37.5637V30.9749L579.192 30.2578ZM578.542 39.2445L579.214 38.5274L579.887 39.2445V45.8333L579.214 46.5505L578.542 45.8333V39.2445Z" fill="#3E3A39"/>
<path d="M572.939 30.9749V37.5637L572.267 38.2809L571.595 37.5637V30.9749L572.267 30.2578L572.939 30.9749ZM578.408 37.6758L579.08 38.3929L578.408 39.1101H573.051L572.379 38.3929L573.051 37.6758H578.408ZM579.192 30.2578L579.864 30.9749V37.5637L579.192 38.2809L578.52 37.5637V30.9749L579.192 30.2578ZM578.542 39.2445L579.214 38.5274L579.887 39.2445V45.8333L579.214 46.5505L578.542 45.8333V39.2445Z" stroke="#3E3A39" stroke-width="0.358186" stroke-linecap="round" stroke-linejoin="round"/>
<path d="M582.89 31.0714L583.562 31.7885V37.5257L582.89 38.2429L582.218 37.5257V31.7885L582.89 31.0714ZM589.703 30.9594L589.031 31.6764H583.674L583.002 30.9594L583.674 30.2422H589.031L589.703 30.9594ZM589.703 38.3773L589.031 39.0944H583.674L583.002 38.3773L583.674 37.6602H589.031L589.703 38.3773ZM589.703 45.8177L589.031 46.5349H583.674L583.002 45.8177L583.674 45.1006H589.031L589.703 45.8177ZM590.487 39.229V44.9661L589.815 45.6832L589.143 44.9661V39.229L589.815 38.5118L590.487 39.229Z" fill="#3E3A39"/>
<path d="M582.89 31.0714L583.562 31.7885V37.5257L582.89 38.2429L582.218 37.5257V31.7885L582.89 31.0714ZM589.703 30.9594L589.031 31.6764H583.674L583.002 30.9594L583.674 30.2422H589.031L589.703 30.9594ZM589.703 38.3773L589.031 39.0944H583.674L583.002 38.3773L583.674 37.6602H589.031L589.703 38.3773ZM589.703 45.8177L589.031 46.5349H583.674L583.002 45.8177L583.674 45.1006H589.031L589.703 45.8177ZM590.487 39.229V44.9661L589.815 45.6832L589.143 44.9661V39.229L589.815 38.5118L590.487 39.229Z" stroke="#3E3A39" stroke-width="0.358186" stroke-linecap="round" stroke-linejoin="round"/>
<path d="M539.807 15V3.60319H543.658C544.552 3.60319 545.283 3.76457 545.85 4.08733C546.422 4.40638 546.845 4.83858 547.119 5.38394C547.394 5.92929 547.531 6.53772 547.531 7.20921C547.531 7.8807 547.394 8.49098 547.119 9.04005C546.848 9.58911 546.429 10.0269 545.861 10.3533C545.294 10.6761 544.567 10.8375 543.68 10.8375H540.92V9.61323H543.635C544.248 9.61323 544.739 9.50749 545.11 9.29603C545.481 9.08456 545.75 8.7989 545.917 8.43904C546.088 8.07547 546.173 7.66553 546.173 7.20921C546.173 6.75289 546.088 6.3448 545.917 5.98494C545.75 5.62508 545.479 5.34313 545.105 5.13909C544.73 4.93133 544.233 4.82745 543.613 4.82745H541.187V15H539.807ZM549.754 3.60319H551.401L555.274 13.0634H555.408L559.281 3.60319H560.928V15H559.637V6.34109H559.526L555.964 15H554.718L551.156 6.34109H551.045V15H549.754V3.60319Z" fill="#231815"/>
<path d="M551.244 133.477H541.16C538.112 133.477 535.624 130.99 535.624 127.942C535.624 124.894 538.112 122.406 541.16 122.406H551.244C554.292 122.406 556.78 124.894 556.78 127.942C556.78 130.99 554.292 133.477 551.244 133.477Z" fill="#FFF9BB"/>
<path d="M551.244 133.477H541.16C538.112 133.477 535.624 130.99 535.624 127.942C535.624 124.894 538.112 122.406 541.16 122.406H551.244C554.292 122.406 556.78 124.894 556.78 127.942C556.78 130.99 554.292 133.477 551.244 133.477Z" stroke="#3E3A39" stroke-width="1.38797" stroke-linecap="round" stroke-linejoin="round"/>
<path d="M607.922 139.453H601.916V155.835H607.922V139.453Z" fill="white"/>
<path d="M607.945 139.453H601.938V155.835H607.945V139.453Z" stroke="#3E3A39" stroke-width="1.38797" stroke-linecap="round" stroke-linejoin="round"/>
<path d="M609.378 146.19H532.016V131.242H602.274C606.218 131.242 609.4 134.425 609.4 138.346V146.168L609.378 146.19Z" fill="#FFF9BB"/>
<path d="M609.378 146.19H532.016V131.242H602.274C606.218 131.242 609.4 134.425 609.4 138.346V146.168L609.378 146.19Z" stroke="#3E3A39" stroke-width="1.38797" stroke-linecap="round" stroke-linejoin="round"/>
<path d="M536.006 114.984H530V155.817H536.006V114.984Z" fill="white"/>
<path d="M536.028 114.984H530.021V155.817H536.028V114.984Z" stroke="#3E3A39" stroke-width="1.38797" stroke-linecap="round" stroke-linejoin="round"/>
<path d="M558.392 117.119L557.854 116.716C559.961 111.606 558.482 105.555 553.843 102.082C548.352 97.9579 540.553 99.0785 536.452 104.569C532.351 110.06 533.449 117.859 538.939 121.96C543.399 125.299 549.316 125.142 553.596 122.072C553.82 122.05 554.067 121.96 554.313 121.826L554.582 122.027C555.904 123.058 558.863 121.355 558.863 121.355C558.863 121.355 559.714 118.15 558.392 117.119Z" fill="white"/>
<path d="M558.392 117.119L557.854 116.716C559.961 111.606 558.482 105.555 553.843 102.082C548.352 97.9579 540.553 99.0785 536.452 104.569C532.351 110.06 533.449 117.859 538.939 121.96C543.399 125.299 549.316 125.142 553.596 122.072C553.82 122.05 554.067 121.96 554.313 121.826L554.582 122.027C555.904 123.058 558.863 121.355 558.863 121.355C558.863 121.355 559.714 118.15 558.392 117.119Z" stroke="#3E3A39" stroke-width="1.38797" stroke-linecap="round" stroke-linejoin="round"/>
<path d="M548.959 105.625L549.99 104.258" stroke="#3E3A39" stroke-width="1.38797" stroke-linecap="round" stroke-linejoin="round"/>
<path d="M549.383 99.9342C544.677 98.7689 539.523 100.427 536.452 104.551C533.382 108.63 533.225 114.008 535.601 118.177L549.383 99.9342Z" fill="#C9CACA"/>
<path d="M549.383 99.9342C544.677 98.7689 539.523 100.427 536.452 104.551C533.382 108.63 533.225 114.008 535.601 118.177L549.383 99.9342Z" stroke="#3E3A39" stroke-width="1.38797" stroke-linecap="round" stroke-linejoin="round"/>
<path d="M598.352 115.562H560.433C557.206 115.562 554.584 118.185 554.584 121.412V149.358H604.538V121.748C604.538 118.341 601.759 115.562 598.352 115.562Z" fill="#AADBF6"/>
<path d="M598.352 115.562H560.433C557.206 115.562 554.584 118.185 554.584 121.412V149.358H604.538V121.748C604.538 118.341 601.759 115.562 598.352 115.562Z" stroke="#3E3A39" stroke-width="1.38797" stroke-linecap="round" stroke-linejoin="round"/>
<path d="M552.456 105.406C552.456 105.406 552.657 106.482 551.761 106.997L552.456 105.406Z" fill="white"/>
<path d="M552.456 105.406C552.456 105.406 552.657 106.482 551.761 106.997" stroke="#3E3A39" stroke-width="1.38797" stroke-linecap="round" stroke-linejoin="round"/>
<path d="M564.69 115.606C564.69 117.914 562.83 119.774 560.522 119.774C558.214 119.774 556.354 117.914 556.354 115.606C556.354 113.298 558.214 111.438 560.522 111.438C562.83 111.438 564.69 113.298 564.69 115.606Z" fill="white"/>
<path d="M564.69 115.606C564.69 117.914 562.83 119.774 560.522 119.774C558.214 119.774 556.354 117.914 556.354 115.606C556.354 113.298 558.214 111.438 560.522 111.438C562.83 111.438 564.69 113.298 564.69 115.606Z" stroke="#3E3A39" stroke-width="1.38797" stroke-linecap="round" stroke-linejoin="round"/>
<path d="M565.073 101.711H568.749L565.006 105.902H568.166" fill="white"/>
<path d="M565.073 101.711H568.749L565.006 105.902H568.166" stroke="#3E3A39" stroke-width="1.38797" stroke-linecap="round" stroke-linejoin="round"/>
<path d="M560.186 92H565.139L560.074 97.6475H565.072" fill="white"/>
<path d="M560.186 92H565.139L560.074 97.6475H565.072" stroke="#3E3A39" stroke-width="1.38797" stroke-linecap="round" stroke-linejoin="round"/>
</svg>
