<svg width="50" height="38" viewBox="0 0 50 38" fill="none" xmlns="http://www.w3.org/2000/svg">
<path d="M5.6 18.04V20.04C5.6 26.12 6.96 32.16 11.08 37.8H6.28C2.32 33.08 0.4 26.84 0.4 19.84V18.24C0.4 11.24 2.32 5.08 6.28 0.359999H11.08C7.16 5.64 5.6 11.64 5.6 18.04ZM14.4931 28.2L25.0931 17.28C28.4531 13.84 28.6531 12.32 28.6531 10.68V10.36C28.6531 8.8 27.4931 7.32 24.5331 7.32C22.4531 7.32 20.3331 8 18.4531 11.36L14.6131 8.84C15.9731 6.36 18.6531 2.76 24.4931 2.76C31.0131 2.76 33.8131 6.2 33.8131 10.16V10.56C33.8131 13.68 32.3331 16.56 29.6531 19.24L21.1731 27.8H34.8931V32.04H14.4931V28.2ZM44.0978 20.04V18.04C44.0978 11.64 42.5378 5.64 38.6178 0.359999H43.4178C47.3778 5.08 49.2978 11.24 49.2978 18.24V19.84C49.2978 26.84 47.3778 33.08 43.4178 37.8H38.6178C42.7378 32.16 44.0978 26.12 44.0978 20.04Z" fill="#421D1B"/>
</svg>
