<svg width="46" height="38" viewBox="0 0 46 38" fill="none" xmlns="http://www.w3.org/2000/svg">
<path d="M5.6 18.04V20.04C5.6 26.12 6.96 32.16 11.08 37.8H6.28C2.32 33.08 0.4 26.84 0.4 19.84V18.24C0.4 11.24 2.32 5.08 6.28 0.359999H11.08C7.16 5.64 5.6 11.64 5.6 18.04ZM24.2531 9.52C28.4131 9.52 30.5731 10.8 32.2931 12.12L29.8531 15.8C28.0531 14.36 26.3331 13.92 24.2531 13.92C21.7331 13.92 19.3731 15.4 19.3731 19.48V22.16C19.3731 26.64 22.1331 27.92 24.3331 27.92C27.0931 27.92 28.7731 27.2 30.3331 26.04L32.7331 29.72C31.2531 31.08 28.2931 32.36 24.2931 32.36C17.8131 32.36 14.2931 28.52 14.2931 22.24V19.48C14.2931 13.2 18.0931 9.52 24.2531 9.52ZM40.3869 20.04V18.04C40.3869 11.64 38.8269 5.64 34.9069 0.359999H39.7069C43.6669 5.08 45.5869 11.24 45.5869 18.24V19.84C45.5869 26.84 43.6669 33.08 39.7069 37.8H34.9069C39.0269 32.16 40.3869 26.12 40.3869 20.04Z" fill="#1E1E1E"/>
</svg>
