<svg width="145" height="30" viewBox="0 0 145 30" fill="none" xmlns="http://www.w3.org/2000/svg">
<g clip-path="url(#clip0_3860_26041)">
<path d="M14.9844 0C6.72576 0 0 6.72576 0 14.9844C0 23.243 6.72576 29.9687 14.9844 29.9687H129.072C137.362 29.9687 144.056 23.243 144.056 14.9844C144.056 6.72576 137.331 0 129.072 0H14.9844Z" fill="#DCDDDD"/>
<path d="M34.5051 14.9211C33.7231 14.9211 33.3164 14.5457 33.3164 13.7323V7.03786C33.3164 6.22451 33.7231 5.84912 34.5051 5.84912H42.9202C43.7022 5.84912 44.1089 6.22451 44.1089 7.03786V13.7323C44.1089 14.5457 43.7022 14.9211 42.9202 14.9211H34.5051ZM48.5197 22.1161C49.2705 22.1161 49.5521 22.4289 49.5521 23.1484C49.5521 23.8992 49.2392 24.2433 48.5197 24.2433H35.4123C34.6303 24.2433 34.2862 23.8679 34.2862 23.0545V20.2391C34.2862 19.4258 34.7241 19.0191 35.5062 19.0191H46.5177V17.9555H35.2872C34.5677 17.9555 34.2862 17.5801 34.2862 16.8919C34.2862 16.1411 34.599 15.8283 35.2872 15.8283H47.769C48.6136 15.8283 48.9577 16.2037 48.9577 17.017V19.8637C48.9577 20.6771 48.6136 21.0525 47.8315 21.0525H36.7262V22.1161H48.5197ZM35.819 8.16403V12.6062H41.6063V8.16403H35.819ZM50.6157 8.82097C51.3352 8.82097 51.6167 9.22764 51.6167 10.041C51.6167 10.8543 51.3039 11.2923 50.6157 11.2923H48.989V14.0139C48.989 14.7959 48.5823 15.1088 47.7064 15.1088C46.8305 15.1088 46.4238 14.7959 46.4238 14.0139V6.34964C46.4238 5.59886 46.8618 5.25475 47.7064 5.25475C48.551 5.25475 48.989 5.59886 48.989 6.34964V8.82097H50.6157ZM63.1913 7.44453C63.9421 7.44453 64.2236 7.85121 64.2236 8.57071C64.2236 9.35277 63.9108 9.75945 63.1913 9.75945H53.3373C52.6178 9.75945 52.3362 9.38405 52.3362 8.57071C52.3362 7.85121 52.649 7.44453 53.3373 7.44453H57.0599V5.59886C57.0599 4.8168 57.4666 4.44141 58.2799 4.44141C59.0933 4.44141 59.4999 4.8168 59.4999 5.59886V7.44453H63.1913ZM63.6292 15.7031V18.6437C63.6292 22.5227 61.0641 23.8366 58.2799 23.8366C55.4958 23.8366 52.9306 22.5227 52.9306 18.6437V15.7031C52.9306 11.8241 55.527 10.5102 58.2799 10.5102C61.0328 10.5102 63.6292 11.8241 63.6292 15.7031ZM61.1892 15.8595C61.1892 13.5134 59.7502 12.8564 58.3112 12.8564C56.8722 12.8564 55.4332 13.5134 55.4332 15.8595V18.5186C55.4332 20.8648 56.8722 21.5217 58.3112 21.5217C59.7502 21.5217 61.1892 20.8648 61.1892 18.5186V15.8595ZM70.2299 12.6062C70.9494 12.6062 71.2309 13.0128 71.2309 13.8262C71.2309 14.6395 70.9181 15.0775 70.2299 15.0775H68.3529V23.1171C68.3529 23.8992 67.9462 24.2433 67.1016 24.2433C66.257 24.2433 65.8503 23.8679 65.8503 23.1171V6.38093C65.8503 5.63014 66.257 5.25475 67.1016 5.25475C67.9462 5.25475 68.3529 5.63014 68.3529 6.38093V12.5749H70.2299V12.6062ZM73.3581 21.7407L80.1464 8.28916H72.6699C71.9504 8.28916 71.6689 7.94506 71.6689 7.10043C71.6689 6.2558 71.9817 5.91169 72.6699 5.91169H81.9296C82.9932 5.91169 83.5875 6.85017 82.9306 8.10147L75.4541 22.8043C75.0787 23.5551 74.5781 23.7115 73.7961 23.3048C73.1704 22.992 72.9827 22.4602 73.3581 21.7407ZM86.3717 23.1171V6.38093C86.3717 5.63014 86.7784 5.25475 87.6543 5.25475C88.5302 5.25475 88.9056 5.63014 88.9056 6.38093V23.0858C88.9056 23.8679 88.4989 24.212 87.6543 24.212C86.8096 24.212 86.3717 23.8366 86.3717 23.0858V23.1171ZM112.555 21.334C113.306 21.334 113.588 21.7094 113.588 22.5227C113.588 23.3361 113.275 23.7115 112.555 23.7115H96.476C95.7565 23.7115 95.4436 23.3361 95.4436 22.5227C95.4436 21.7094 95.7565 21.334 96.476 21.334H103.264V18.2683C103.264 17.5175 103.671 17.1734 104.516 17.1734C105.36 17.1734 105.767 17.5175 105.767 18.2683V21.334H112.555ZM97.8837 16.2662C96.9765 16.2662 96.6011 15.8908 96.6011 15.0149V7.25684C96.6011 6.34964 97.0078 5.91169 97.8837 5.91169H111.429C112.149 5.91169 112.43 6.28708 112.43 7.10043C112.43 7.91377 112.117 8.28916 111.429 8.28916H99.0724V13.92H111.492C112.211 13.92 112.493 14.3267 112.493 15.1088C112.493 15.8908 112.18 16.2975 111.492 16.2975H97.8524L97.8837 16.2662ZM121.064 13.4195L117.248 16.3601C116.716 16.7667 116.153 16.6103 115.683 15.8908C115.245 15.2339 115.339 14.7334 115.871 14.3267L119.813 11.3236V8.32045H116.559C115.809 8.32045 115.558 7.94506 115.558 7.13171C115.558 6.31836 115.809 5.97425 116.559 5.97425H125.569C126.32 5.97425 126.57 6.34964 126.57 7.13171C126.57 7.91377 126.32 8.32045 125.569 8.32045H122.315V11.3236L126.288 14.358C126.82 14.7647 126.914 15.2652 126.476 15.9221C126.007 16.6416 125.444 16.798 124.912 16.3914L121.095 13.4508L121.064 13.4195ZM131.419 21.8345C132.138 21.8345 132.42 22.2099 132.42 23.0233C132.42 23.8366 132.107 24.212 131.419 24.212H118.155C117.248 24.212 116.872 23.774 116.872 22.9607V18.7375C116.872 17.9555 117.279 17.6114 118.092 17.6114C118.968 17.6114 119.375 17.9868 119.375 18.7375V21.8345H131.387H131.419ZM129.479 9.69688V6.38093C129.479 5.63014 129.917 5.25475 130.762 5.25475C131.606 5.25475 132.044 5.63014 132.044 6.38093V17.7991C132.044 18.5811 131.638 18.9252 130.762 18.9252C129.886 18.9252 129.479 18.5811 129.479 17.7991V12.1682H126.32C125.506 12.1682 125.1 11.6677 125.1 10.9169C125.1 10.1661 125.506 9.69688 126.32 9.69688H129.479Z" fill="#727171"/>
<path d="M14.6093 27.0916C21.2724 27.0916 26.6843 21.6797 26.6843 15.0165C26.6843 8.35333 21.2724 2.91016 14.6093 2.91016C7.94607 2.91016 2.53418 8.32204 2.53418 14.9852C2.53418 21.6484 7.94607 27.0603 14.6093 27.0603" fill="white"/>
<path d="M5.16211 17.1733C5.16211 17.6426 5.34981 18.1118 5.69391 18.4559C6.03802 18.8 6.50726 18.9877 6.9765 18.9877H9.35398V11.0419H6.9765C6.50726 11.0419 6.03802 11.2296 5.69391 11.5737C5.34981 11.9178 5.16211 12.3871 5.16211 12.8563V17.2046V17.1733ZM9.35398 11.1983L18.0818 8.28906V21.5529L9.35398 19.1128V11.2296V11.1983Z" fill="white"/>
<path d="M5.16211 17.1733C5.16211 17.6426 5.34981 18.1118 5.69391 18.4559C6.03802 18.8 6.50726 18.9877 6.9765 18.9877H9.35398V11.0419H6.9765C6.50726 11.0419 6.03802 11.2296 5.69391 11.5737C5.34981 11.9178 5.16211 12.3871 5.16211 12.8563V17.2046V17.1733ZM9.35398 11.1983L18.0818 8.28906V21.5529L9.35398 19.1128V11.2296V11.1983Z" stroke="#C9CACA" stroke-linecap="round" stroke-linejoin="round"/>
<path d="M20.2402 11.4164L22.5239 9.13281M20.2402 18.8304L22.5239 21.114M22.7428 15.1704H20.2402" stroke="#C9CACA" stroke-linecap="round" stroke-linejoin="round"/>
</g>
<defs>
<clipPath id="clip0_3860_26041">
<rect width="144.088" height="30" fill="white"/>
</clipPath>
</defs>
</svg>
