<svg id="레이어_1" data-name="레이어 1" xmlns="http://www.w3.org/2000/svg" viewBox="0 0 31 31"><defs><style>.cls-1{fill:#97fff5;opacity:0;}.cls-2{fill:#fff;}</style></defs><rect class="cls-1" x="-2.9" y="-2.9" width="36.8" height="36.8"/><path class="cls-2" d="M15.57,6.26a1.38,1.38,0,0,0-1.44.13L8.34,10.71H3.88A1.36,1.36,0,0,0,2.5,12.06v6.88a1.36,1.36,0,0,0,1.38,1.35H8.34l5.79,4.32a1.35,1.35,0,0,0,1.44.13,1.34,1.34,0,0,0,.76-1.2V7.47A1.34,1.34,0,0,0,15.57,6.26Z"/><path class="cls-2" d="M18.4,10.59a1.22,1.22,0,0,0,0,1.73,4.25,4.25,0,0,1,0,6.34,1.23,1.23,0,0,0,.86,2.12,1.28,1.28,0,0,0,.86-.34,6.68,6.68,0,0,0,0-9.89A1.26,1.26,0,0,0,18.4,10.59Z"/><path class="cls-2" d="M24.5,6.5a1.26,1.26,0,0,0-1.76,0,1.21,1.21,0,0,0,.05,1.73,9.75,9.75,0,0,1,0,14.46,1.21,1.21,0,0,0-.05,1.73,1.29,1.29,0,0,0,.91.38,1.23,1.23,0,0,0,.85-.34,12.37,12.37,0,0,0,4-9A12.37,12.37,0,0,0,24.5,6.5Z"/></svg>