<svg width="34" height="34" viewBox="0 0 34 34" fill="none" xmlns="http://www.w3.org/2000/svg">
<circle cx="17" cy="17" r="17" fill="#5B87B8"/>
<path d="M13.4165 11.116L11.1545 9.348C12.4025 7.736 14.0145 6.644 16.7185 6.644C20.2285 6.644 22.5165 8.516 22.5165 11.324V11.584C22.5165 13.066 21.9445 15.068 19.8125 15.874C22.2825 16.316 23.4525 17.98 23.4525 20.112V20.502C23.4525 23.336 21.2425 25.962 16.6405 25.962C14.4565 25.962 12.4025 25.286 10.6345 23.882L12.2725 21.282C14.0925 22.608 15.1585 22.998 16.6665 22.998C19.0065 22.998 20.0985 21.984 20.0985 20.346V20.008C20.0985 18.188 19.0845 17.356 16.6925 17.356H14.1705V14.496H16.4065C18.7465 14.496 19.2665 13.404 19.2665 11.792V11.584C19.2665 10.18 18.2785 9.556 16.7185 9.556C15.1325 9.556 14.2485 10.206 13.4165 11.116Z" fill="white"/>
</svg>
