<svg width="110" height="54" viewBox="0 0 110 54" fill="none" xmlns="http://www.w3.org/2000/svg">
<path d="M84.5947 1.06435C89.8181 0.501348 95.0105 2.22137 99.6709 4.66103C102.423 6.09973 105.113 7.88251 106.739 10.5409C108.209 12.9179 108.678 15.7642 108.96 18.5477C110.962 39.5127 93.5744 57.781 78.2266 51.9349C74.8324 50.642 70.9332 50.4979 67.5394 51.7917C63.9739 53.1508 60.1915 53.4587 56.4869 52.4201C53.8476 51.6803 51.0033 51.6089 48.3651 52.3526C44.9245 53.3224 41.3302 53.3041 37.8341 52.0458C34.591 50.8786 30.9246 50.7543 27.6819 51.9225C18.8498 55.1042 8.75593 51.8271 1.83204 37.6591L1.44239 36.8095C0.558583 34.8819 -0.119116 32.8228 0.0175877 30.7157C0.424195 24.8668 6.74249 21.1756 8.5879 15.6395C9.21342 13.763 9.30719 11.7612 9.90138 9.91591C11.5278 4.91148 16.6575 1.62734 21.8809 1.06435C25.112 0.716092 28.3311 1.24163 31.4198 2.27067C34.3366 3.24246 37.5613 2.83339 40.4684 1.83297C41.5828 1.44946 42.7397 1.18955 43.9014 1.06435C46.5437 0.779611 49.1781 1.0785 51.7397 1.75943C54.0916 2.38464 56.5936 2.17376 58.9405 1.52984C59.7437 1.30947 60.5626 1.15289 61.3838 1.06435C64.7757 0.698748 68.1543 1.29649 71.3827 2.42866C74.451 3.50467 77.8842 3.02332 80.9409 1.91491C82.1229 1.48629 83.3561 1.19787 84.5947 1.06435Z" fill="#B0B6DC"/>
<path d="M51.36 19.317V40.357C51.4 41.797 51.4 43.477 50.2 44.277C49.8 44.517 49.4 44.677 49 44.677C47.16 44.677 46.92 41.797 46.92 40.317V29.997H44.32V40.317C44.4 41.517 44.24 42.997 43.72 43.757C43.4 44.197 42.92 44.437 42.32 44.437C41.72 44.437 41.24 44.117 40.8 43.717C39.88 42.837 39.76 41.397 39.76 40.197V17.197C39.76 16.997 39.88 16.797 39.88 16.597C39.84 15.117 40.04 12.877 41.8 12.437C42.36 12.317 42.88 12.437 43.28 12.877C44.48 14.077 44.32 17.357 44.32 19.717V25.157H46.92V16.957C46.92 15.437 46.64 12.677 48.88 12.437C49.44 12.397 49.92 12.557 50.28 12.957C51.52 14.237 51.44 17.557 51.36 19.317ZM27.68 19.197C26 19.197 24.08 19.157 23.76 19.117C22.96 18.917 22.36 18.277 22.04 17.397C21.84 16.597 21.92 15.997 22.32 15.397C22.72 14.797 23.32 14.357 23.92 14.197C24.24 14.157 27.12 14.157 27.36 14.157H34.64C36.44 14.157 37.52 14.357 38.28 15.877C38.64 16.597 38.72 17.117 38.48 17.797C38.16 18.477 37.52 18.997 36.76 19.117C35.72 19.277 34.92 19.317 32.68 19.197C32.72 19.637 32.68 28.797 32.72 29.117C33.04 29.557 33.52 30.877 33.88 31.397C34.32 31.997 34.76 32.917 35.28 33.757C35.6 34.237 35.88 34.717 36.12 35.117C36.96 36.517 38.04 37.837 38.4 39.477C38.52 40.237 38.52 41.237 38 41.797C37.64 42.157 37.2 42.357 36.68 42.357C35.68 42.357 34.68 41.557 34.12 40.837C33.28 39.757 32.52 38.597 31.84 37.477C31.32 36.677 30.56 35.517 30.04 34.797C29.8 35.237 29.52 35.757 29.28 36.157C28.96 36.637 28.48 37.117 28.16 37.597C27.6 38.677 27 39.797 26.16 40.757C25.24 41.877 24.48 42.437 23.64 42.437C23.44 42.437 23.24 42.437 23 42.357C22.52 42.157 22.16 41.797 21.96 41.237C21.64 40.357 22.04 39.157 22.4 38.397C22.72 37.517 23.2 36.717 23.68 35.957C23.96 35.477 24.28 34.997 24.52 34.517C25.32 32.957 27.16 29.957 27.68 29.277V19.197ZM83.0181 37.437C83.1781 37.477 83.3381 37.437 83.4981 37.437C84.3781 37.517 85.1781 37.717 85.8981 38.397C86.2581 38.717 86.4581 39.197 86.4581 39.757C86.4581 40.317 86.2581 41.117 85.9381 41.477C85.1381 42.317 83.1381 42.237 83.0581 42.237H61.0581C60.8181 42.237 60.5381 42.277 60.2981 42.277C59.1381 42.317 57.7381 42.397 56.8181 41.637C56.2981 41.157 55.9781 40.557 55.9781 39.917C55.9781 39.117 56.4981 38.117 57.2981 37.797C58.3781 37.397 59.5381 37.477 60.6981 37.437H60.8981C61.5781 37.437 62.6581 37.397 63.3781 37.397C63.3781 36.197 63.2981 35.357 63.2981 35.357V33.677V33.637C62.5381 33.637 61.7781 33.637 61.0181 33.597C59.8981 33.517 59.0981 32.317 58.9781 30.957C58.8981 29.957 58.8581 26.197 58.8581 25.357V24.397C58.8181 23.757 58.8181 22.997 59.2981 22.397C59.9781 21.477 61.4181 21.357 62.5781 21.357C62.8581 21.357 63.6181 21.437 63.9781 21.397H78.9781V18.477H63.5781C63.2981 18.477 62.9781 18.517 62.6981 18.517C62.3781 18.517 62.0181 18.557 61.6981 18.557C61.1781 18.557 60.7381 18.517 60.3381 18.397C59.8581 18.277 59.4981 17.957 59.2181 17.477C58.8581 16.837 58.7781 16.037 58.9381 15.317C59.2181 14.357 60.4181 13.917 61.0181 13.797C61.4181 13.717 61.8181 13.717 62.2981 13.717H63.6981C65.3781 13.757 68.9781 13.757 71.2981 13.717H79.3781C80.2981 13.717 81.2181 13.717 82.0581 13.997C83.3381 14.357 83.5781 16.077 83.5781 17.237V22.077C83.5781 22.877 83.2981 25.197 82.4581 25.757C81.7381 26.197 81.0181 26.197 80.3781 26.157H63.7781V29.277H80.4181C80.8981 29.277 81.3381 29.277 81.7781 29.317C82.5781 29.357 83.2981 29.717 83.5781 30.637C83.8581 31.717 83.4981 32.877 82.5381 33.317C81.8981 33.597 81.1781 33.637 80.6181 33.637H78.6981C78.7381 34.997 78.7381 35.837 78.7781 37.437H80.2981C81.2581 37.477 82.1781 37.357 83.0181 37.437ZM68.3381 37.437H72.9381H73.8181C73.8181 36.197 73.7381 35.357 73.7381 35.357V33.677V33.637H68.2581C68.2981 34.997 68.2981 35.837 68.3381 37.437Z" fill="#231815"/>
</svg>
