<svg width="48" height="48" viewBox="0 0 48 48" fill="none" xmlns="http://www.w3.org/2000/svg">
<path d="M11.8519 42.9616V46.1296H2.4039C2.4039 46.1296 1.15112 45.5274 1.49042 44.3754C1.82971 43.1972 5.97953 42.9616 5.97953 42.9616L8.56339 41.2598L11.8258 42.9616H11.8519Z" fill="white"/>
<path d="M11.8521 46.7575H2.40409C2.40409 46.7575 2.2214 46.7575 2.1431 46.7052C1.54281 46.4172 0.49882 45.5532 0.890313 44.2179C1.28181 42.8302 4.30936 42.4637 5.77094 42.3852L8.22429 40.7619C8.40699 40.631 8.64189 40.631 8.85068 40.7357L12.1131 42.4375C12.3219 42.5422 12.4524 42.7517 12.4524 42.9873V46.1554C12.4524 46.4957 12.1653 46.7837 11.826 46.7837L11.8521 46.7575ZM2.56069 45.5008H11.2257V43.3277L8.61579 41.9662L6.31902 43.4848C6.31902 43.4848 6.11023 43.5895 6.00583 43.5895C4.15276 43.6943 2.24749 44.1655 2.06479 44.5583C1.9082 45.0557 2.3519 45.3961 2.56069 45.527V45.5008Z" fill="#3E3A39"/>
<path d="M22.7619 32.1484L6.1626 41.0765L12.0872 44.5586L28.4516 36.2852" fill="#FBDACF"/>
<path d="M12.0871 45.1871C12.0871 45.1871 11.8783 45.1609 11.7739 45.1086L5.84932 41.6264C5.66663 41.5217 5.53613 41.3122 5.53613 41.0766C5.53613 40.8409 5.66663 40.6576 5.84932 40.5529L22.4747 31.6249C22.7618 31.4678 23.1533 31.5725 23.3099 31.8867C23.4665 32.1747 23.3621 32.5675 23.0489 32.7245L7.41529 41.1289L12.1132 43.878L28.1644 35.7616C28.4776 35.6046 28.843 35.7355 28.9996 36.0235C29.1562 36.3376 29.0257 36.7042 28.7386 36.8613L12.3742 45.1348C12.3742 45.1348 12.1915 45.1871 12.0871 45.1871Z" fill="#3E3A39"/>
<path d="M33.123 43.4854V46.6534H42.5711C42.5711 46.6534 43.8239 46.0774 43.4846 44.8992C43.1453 43.721 38.9954 43.4854 38.9954 43.4854" fill="white"/>
<path d="M42.5451 47.2822H33.0971C32.7578 47.2822 32.4707 46.9942 32.4707 46.6538V43.4858C32.4707 43.1454 32.7578 42.8574 33.0971 42.8574C33.4364 42.8574 33.7235 43.1454 33.7235 43.4858V46.0254H42.3885C42.5973 45.8945 43.0149 45.5542 42.8844 45.0567C42.7017 44.664 40.7965 44.1927 38.9434 44.088C38.6041 44.088 38.3431 43.7738 38.3692 43.4334C38.3692 43.0931 38.7346 42.8574 39.0217 42.8574C40.405 42.936 43.6674 43.2763 44.085 44.7163C44.4765 46.0516 43.4325 46.9418 42.8322 47.2036C42.7539 47.2298 42.6495 47.256 42.5712 47.256L42.5451 47.2822Z" fill="#3E3A39"/>
<path d="M28.5297 31.3887H36.1247C37.7168 31.3887 38.9956 32.6716 38.9956 34.2687V43.5109H33.1232V37.4105H28.1904L28.5297 31.4149V31.3887Z" fill="#FBDACF"/>
<path d="M38.9694 44.1135H33.097C32.7577 44.1135 32.4706 43.8255 32.4706 43.4851V37.9869H28.1381C27.9554 37.9869 27.7988 37.9084 27.6944 37.8037C27.59 37.6728 27.5117 37.5157 27.5378 37.3324L27.8771 31.3367C27.8771 31.0226 28.1642 30.7607 28.5035 30.7607H36.0984C38.0037 30.7607 39.5697 32.3316 39.5697 34.2429V43.4851C39.5697 43.8255 39.2826 44.1135 38.9433 44.1135H38.9694ZM33.7495 42.8568H38.3691V34.2429C38.3691 33.0124 37.3512 31.9913 36.1245 31.9913H29.1037L28.8428 36.7564H33.1231C33.4624 36.7564 33.7495 37.0444 33.7495 37.3848V42.883V42.8568Z" fill="#3E3A39"/>
<path d="M45.3377 13.0623C44.2154 13.0623 43.2758 13.9787 43.2758 15.1307V17.1729H38.8389V20.8383H44.6591C44.8679 20.9169 45.0767 20.9692 45.3377 20.9692C46.4599 20.9692 47.3995 20.0529 47.3995 18.9009V15.1045C47.3995 13.9787 46.486 13.0361 45.3377 13.0361" fill="white"/>
<path d="M45.3379 21.5974C45.0508 21.5974 44.7898 21.5189 44.581 21.4665H38.8652C38.5259 21.4665 38.2388 21.1785 38.2388 20.8382V17.1727C38.2388 16.8323 38.5259 16.5443 38.8652 16.5443H42.6757V15.1305C42.6757 13.6643 43.8763 12.46 45.3379 12.46C46.7994 12.46 48 13.6643 48 15.1305V18.9269C48 20.3931 46.7994 21.5974 45.3379 21.5974ZM39.4655 20.236H44.6854C44.6854 20.236 44.8159 20.236 44.8942 20.2622C45.0247 20.3145 45.2073 20.3669 45.3639 20.3669C46.1469 20.3669 46.7994 19.7123 46.7994 18.9269V15.1305C46.7994 14.3451 46.1469 13.6905 45.3639 13.6905C44.581 13.6905 43.9285 14.3451 43.9285 15.1305V17.1727C43.9285 17.5131 43.6414 17.8011 43.3021 17.8011H39.4915V20.236H39.4655Z" fill="#3E3A39"/>
<path d="M13.9401 16.9629H7.41522C7.02372 16.9629 6.63223 17.0153 6.26684 17.1985L5.30116 17.6436C4.23108 18.2458 3.86569 19.7643 4.46598 21.0211C5.06627 22.2778 6.44954 22.8014 7.51962 22.1993L8.4853 21.7804C8.92899 21.5447 9.21609 21.1258 9.39879 20.6545H13.9401V16.9891V16.9629Z" fill="white"/>
<path d="M6.58023 23.0635C6.31924 23.0635 6.03215 23.0112 5.77115 22.9326C4.98817 22.697 4.30957 22.0948 3.91808 21.2832C3.16119 19.7384 3.65709 17.8533 5.01426 17.0941L6.03214 16.6228C6.39754 16.4133 6.86734 16.2824 7.36323 16.3348C7.36323 16.3348 7.38932 16.3348 7.41542 16.3348H13.9403C14.2796 16.3348 14.5667 16.6228 14.5667 16.9632V20.6286C14.5667 20.969 14.2796 21.257 13.9403 21.257H9.79048C9.52948 21.7283 9.21629 22.0686 8.7987 22.3043L7.78082 22.7493C7.41543 22.9588 7.02392 23.0635 6.58023 23.0635ZM7.23272 17.5915C6.99783 17.5915 6.78903 17.6439 6.58023 17.7486L5.56235 18.2199C4.83156 18.6388 4.57057 19.817 5.04036 20.7595C5.27525 21.257 5.69285 21.6235 6.16264 21.7544C6.42364 21.833 6.84123 21.8853 7.25883 21.6497L8.27671 21.1784C8.4855 21.0475 8.6943 20.7857 8.8509 20.393C8.9553 20.1573 9.16409 20.0002 9.42508 20.0002H13.34V17.5653H7.54592C7.54592 17.5653 7.44152 17.5653 7.38932 17.5653C7.33712 17.5653 7.28493 17.5653 7.25883 17.5653L7.23272 17.5915Z" fill="#3E3A39"/>
<path d="M39.8832 16.3075H30.8527C29.8348 15.4697 28.3472 15.0508 26.7029 15.0508C25.1369 15.0508 23.7014 15.4959 22.6836 16.3075H12.8701V22.565H21.1437V31.2312L18.2727 34.4515L26.8595 37.6719H32.236V22.5388H39.8571V16.2813L39.8832 16.3075Z" fill="white"/>
<path d="M32.2618 38.3271H26.8853C26.8853 38.3271 26.7287 38.3271 26.6765 38.2747L18.0897 35.0543C17.907 34.9758 17.7504 34.8187 17.6982 34.6354C17.646 34.426 17.6982 34.2165 17.8287 34.0856L20.5431 31.0223V23.2201H12.8959C12.5566 23.2201 12.2695 22.9321 12.2695 22.5918V16.3343C12.2695 15.9939 12.5566 15.7059 12.8959 15.7059H22.5006C23.5967 14.8943 25.0844 14.4492 26.7287 14.4492C28.4774 14.4492 29.9911 14.8681 31.0873 15.7059H39.8829C40.2222 15.7059 40.5092 15.9939 40.5092 16.3343V22.5918C40.5092 22.9321 40.2222 23.2201 39.8829 23.2201H32.8882V37.7249C32.8882 38.0653 32.6011 38.3533 32.2618 38.3533V38.3271ZM26.9897 37.0965H31.6354V22.5918C31.6354 22.2514 31.9225 21.9634 32.2618 21.9634H39.2565V16.9365H30.8524C30.7219 16.9365 30.5653 16.8841 30.4609 16.8056C29.5735 16.0987 28.2425 15.7059 26.6765 15.7059C25.241 15.7059 23.9621 16.0987 23.0486 16.8056C22.9443 16.8841 22.8137 16.9365 22.6572 16.9365H13.444V21.9634H21.0912C21.4305 21.9634 21.7176 22.2514 21.7176 22.5918V31.258C21.7176 31.4151 21.6654 31.546 21.561 31.6769L19.2903 34.2427L26.9114 37.1227L26.9897 37.0965Z" fill="#3E3A39"/>
<path d="M26.9899 1.04395C23.4925 1.04395 20.6216 3.45268 20.6216 6.96105V10.4432C20.6216 13.1923 22.3963 15.5487 24.8497 16.4389C25.0585 17.5385 26.8072 18.4287 26.9899 18.4287C26.8855 18.4549 28.8951 17.5647 29.13 16.4389C31.5834 15.5487 33.3321 13.2185 33.3321 10.4432V6.96105C33.3321 3.45268 30.4611 1.04395 26.9638 1.04395" fill="white"/>
<path d="M27.0159 19.0311C27.0159 19.0311 26.8593 19.0311 26.781 18.9788C26.1546 18.7693 24.7974 17.9839 24.3537 16.8842C21.7438 15.8108 19.9951 13.2449 19.9951 10.4173V6.93512C19.9951 3.21729 22.9966 0.389648 26.9898 0.389648C30.983 0.389648 33.9845 3.19111 33.9845 6.93512V10.4173C33.9845 13.2449 32.2619 15.7846 29.6519 16.8842C29.3387 17.5911 28.608 18.2457 27.4074 18.9002C27.3291 18.9526 27.2769 18.9788 27.1986 19.005C27.1464 19.005 27.0942 19.005 27.042 19.005L27.0159 19.0311ZM26.9898 1.64638C23.7012 1.64638 21.2218 3.9242 21.2218 6.93512V10.4173C21.2218 12.826 22.7617 14.9991 25.0584 15.837C25.2672 15.9155 25.4238 16.0988 25.4499 16.3082C25.5543 16.8842 26.4939 17.5126 26.9376 17.722C28.2948 16.9628 28.5036 16.4391 28.5297 16.282C28.5819 16.0726 28.7124 15.9155 28.9212 15.837C31.1918 14.9991 32.7317 12.826 32.7317 10.4435V6.9613C32.7317 3.95038 30.2522 1.67256 26.9637 1.67256L26.9898 1.64638Z" fill="#3E3A39"/>
<path d="M30.3567 9.13385C30.3567 9.5004 30.0696 9.81458 29.7042 9.81458C29.3389 9.81458 29.0518 9.52658 29.0518 9.13385C29.0518 8.76731 29.3389 8.45312 29.7042 8.45312C30.0696 8.45312 30.3567 8.74113 30.3567 9.13385Z" fill="#3E3A39"/>
<path d="M26.9637 9.1612C26.9637 9.52774 26.6766 9.84193 26.3112 9.84193C25.9458 9.84193 25.6587 9.55393 25.6587 9.1612C25.6587 8.79465 25.9458 8.48047 26.3112 8.48047C26.6766 8.48047 26.9637 8.76847 26.9637 9.1612Z" fill="#3E3A39"/>
<path d="M29.5477 7.93046C29.2867 7.93046 29.0518 7.721 29.0518 7.433C29.0518 7.17119 29.2606 6.93555 29.5477 6.93555H30.5133C30.7743 6.93555 31.0092 7.145 31.0092 7.433C31.0092 7.69482 30.8004 7.93046 30.5133 7.93046H29.5477Z" fill="#3E3A39"/>
<path d="M26.0765 7.93046C25.8155 7.93046 25.5806 7.721 25.5806 7.433C25.5806 7.17119 25.7894 6.93555 26.0765 6.93555H27.0421C27.3031 6.93555 27.538 7.145 27.538 7.433C27.538 7.69482 27.3292 7.93046 27.0421 7.93046H26.0765Z" fill="#3E3A39"/>
<path d="M26.7026 12.04C27.4073 12.4328 28.1903 12.5113 29.0255 12.1971L26.7026 12.04Z" fill="white"/>
<path d="M28.0079 12.9045C27.4859 12.9045 26.9639 12.7736 26.468 12.4856C26.2331 12.3547 26.1548 12.0405 26.2592 11.8048C26.3897 11.5692 26.7029 11.4645 26.9378 11.6216C27.5381 11.9619 28.1645 11.9881 28.8692 11.7525C29.1041 11.6478 29.4173 11.8048 29.4956 12.0405C29.6 12.3023 29.4434 12.5903 29.2085 12.6688C28.7909 12.8259 28.3994 12.8783 28.0079 12.8783V12.9045Z" fill="#3E3A39"/>
<path d="M23.4923 5.88852H33.2535C32.6793 3.06088 30.0955 1.17578 27.0157 1.17578C23.5184 1.17578 20.6475 3.58451 20.6475 7.09288V8.84707H23.5184V5.86234L23.4923 5.88852Z" fill="white"/>
<path d="M23.4924 9.50126H20.6215C20.2822 9.50126 19.9951 9.21326 19.9951 8.8729V7.11871C19.9951 3.40088 22.9966 0.573242 26.9898 0.573242C30.4088 0.573242 33.2276 2.72015 33.8279 5.75725C33.854 5.94052 33.8279 6.1238 33.6974 6.28089C33.593 6.43798 33.4103 6.51653 33.2276 6.51653H24.0927V8.8729C24.0927 9.21326 23.8056 9.50126 23.4664 9.50126H23.4924ZM21.2479 8.27071H22.8661V5.91435C22.8661 5.57398 23.1532 5.28598 23.4924 5.28598H32.4446C31.6877 3.19143 29.5736 1.82997 27.0159 1.82997C23.7273 1.82997 21.2479 4.1078 21.2479 7.11871V8.27071Z" fill="#3E3A39"/>
<path d="M25.1366 12.4856C25.1366 12.4856 25.0322 12.4856 24.98 12.4595C24.7973 12.3809 24.719 12.1453 24.7973 11.962L25.2149 11.0456C25.2932 10.8624 25.5281 10.7838 25.7108 10.8624C25.8935 10.9409 25.9718 11.1765 25.8935 11.3598L25.4759 12.2762C25.4237 12.4071 25.2671 12.4856 25.1366 12.4856Z" fill="#3E3A39"/>
<path d="M30.3566 12.5124C30.1739 12.5124 30.0173 12.3815 29.9912 12.1982L29.8085 11.2033C29.7824 10.9939 29.9129 10.8106 30.0956 10.7582C30.3044 10.732 30.4871 10.8629 30.5132 11.0462L30.6959 12.0411C30.722 12.2506 30.5915 12.4339 30.4088 12.4862C30.4088 12.4862 30.3566 12.4862 30.3305 12.4862L30.3566 12.5124Z" fill="#3E3A39"/>
<path d="M27.9295 21.7275C27.9295 22.2773 27.5119 22.6962 26.9899 22.7224C26.4679 22.7224 26.0503 22.3035 26.0503 21.7537C26.0503 21.2039 26.4679 20.785 26.9638 20.7588C27.4858 20.7588 27.9034 21.1777 27.9034 21.7275" fill="#3E3A39"/>
<path d="M29.4172 22.0427H24.6149C24.4061 22.0427 24.2495 21.8856 24.2495 21.6761C24.2495 21.4667 24.4061 21.3096 24.6149 21.3096H29.4172C29.626 21.3096 29.7826 21.4667 29.7826 21.6761C29.7826 21.8856 29.626 22.0427 29.4172 22.0427Z" fill="#3E3A39"/>
<path d="M27.9295 25.9697C27.9295 26.5195 27.5119 26.9384 26.9899 26.9646C26.4679 26.9646 26.0503 26.5457 26.0503 25.9959C26.0503 25.4461 26.4679 25.0272 26.9638 25.001C27.4858 25.001 27.9034 25.4199 27.9034 25.9697" fill="#3E3A39"/>
<path d="M29.4172 26.2839H24.6149C24.4061 26.2839 24.2495 26.1268 24.2495 25.9173C24.2495 25.7079 24.4061 25.5508 24.6149 25.5508H29.4172C29.626 25.5508 29.7826 25.7079 29.7826 25.9173C29.7826 26.1268 29.626 26.2839 29.4172 26.2839Z" fill="#3E3A39"/>
<path d="M27.9295 30.2109C27.9295 30.7607 27.5119 31.1796 26.9899 31.2058C26.4679 31.2058 26.0503 30.7869 26.0503 30.2371C26.0503 29.6873 26.4679 29.2684 26.9638 29.2422C27.4858 29.2422 27.9034 29.6611 27.9034 30.2109" fill="#3E3A39"/>
<path d="M29.4172 30.5251H24.6149C24.4061 30.5251 24.2495 30.368 24.2495 30.1585C24.2495 29.9491 24.4061 29.792 24.6149 29.792H29.4172C29.626 29.792 29.7826 29.9491 29.7826 30.1585C29.7826 30.368 29.626 30.5251 29.4172 30.5251Z" fill="#3E3A39"/>
</svg>
