<svg width="42" height="54" viewBox="0 0 42 54" fill="none" xmlns="http://www.w3.org/2000/svg">
<path d="M24.6347 50.8191C23.4342 50.8191 22.4424 49.8242 22.4424 48.6198V40.8438C22.4424 39.6394 23.4342 38.6445 24.6347 38.6445C25.8353 38.6445 26.8271 39.6394 26.8271 40.8438V48.8555C26.8271 50.0598 25.8353 50.8191 24.6347 50.8191Z" fill="white"/>
<path d="M24.6345 51.3943C23.1207 51.3943 21.894 50.1638 21.894 48.6452V40.8692C21.894 39.3507 23.1207 38.1201 24.6345 38.1201C26.1483 38.1201 27.3749 39.3507 27.3749 40.8692V48.8809C27.3749 50.3471 26.2266 51.4205 24.6345 51.4205V51.3943ZM24.6345 39.1936C23.721 39.1936 22.9902 39.9267 22.9902 40.843V48.6191C22.9902 49.5354 23.721 50.2685 24.6345 50.2685C25.4175 50.2685 26.2788 49.8234 26.2788 48.8547V40.843C26.2788 39.9267 25.548 39.1936 24.6345 39.1936Z" fill="#3E3A39"/>
<path d="M30.3502 52.2859C30.3502 52.2859 30.8721 51.3172 29.7499 50.6103C28.6276 49.9033 28.9147 50.5579 28.0273 49.6677C27.1399 48.8037 27.1399 48.987 26.6962 48.8037L22.442 49.0393C22.442 49.0393 21.8156 51.8146 22.3898 52.4692L30.3241 52.2859H30.3502Z" fill="white"/>
<path d="M22.4159 53.045C22.2593 53.045 22.1027 52.9665 21.9983 52.8356C21.3458 52.0501 21.7373 49.8246 21.9461 48.9083C21.9983 48.6726 22.2071 48.4894 22.4681 48.4632L26.7223 48.2275C26.7223 48.2275 26.8789 48.2275 26.9572 48.2537C27.0355 48.2799 27.1138 48.3061 27.166 48.3061C27.5314 48.4108 27.7924 48.5155 28.4971 49.2225C28.8625 49.5628 28.9147 49.589 29.0191 49.6152C29.2801 49.6675 29.5672 49.7461 30.1153 50.0864C31.2637 50.8195 31.2115 51.9454 30.8983 52.5214C30.7939 52.7046 30.6112 52.8094 30.4285 52.8094L22.4942 52.9926L22.4159 53.045ZM22.9379 49.589C22.7552 50.5315 22.703 51.4741 22.7813 51.9192L29.9326 51.7359C29.9326 51.5526 29.8282 51.317 29.4628 51.0814C29.0452 50.8195 28.8886 50.7934 28.7581 50.7672C28.3927 50.6886 28.1839 50.5839 27.6619 50.0864C27.0877 49.5366 26.9833 49.5105 26.8528 49.4581C26.8006 49.4581 26.7223 49.4319 26.644 49.4057L22.9379 49.6152V49.589Z" fill="#3E3A39"/>
<path d="M3.07609 44.169C2.78899 42.9908 3.54588 41.8126 4.72036 41.5246L10.4623 38.0686C11.3496 37.2308 12.7329 37.2832 13.5681 38.1472C14.4033 39.0373 14.3511 40.425 13.4637 41.2628L5.71214 45.8184C4.53766 46.1064 3.36318 45.3472 3.07609 44.169Z" fill="white"/>
<path d="M5.21653 46.4198C3.96375 46.4198 2.84147 45.5558 2.52828 44.299C2.37168 43.5921 2.47608 42.8329 2.86757 42.2045C3.23296 41.6023 3.80715 41.1834 4.48574 41.0001L10.1493 37.5703C11.1672 36.6016 12.9159 36.6539 13.9599 37.7536C15.0039 38.8532 14.9517 40.6074 13.8555 41.6547L5.99952 46.2889C5.99952 46.2889 5.89512 46.3412 5.84292 46.3412C5.63412 46.3936 5.42533 46.4198 5.21653 46.4198ZM11.9763 38.0154C11.5587 38.0154 11.1672 38.1725 10.854 38.4605L5.00774 41.995C5.00774 41.995 4.90334 42.0474 4.85114 42.0474C4.43354 42.1521 4.06815 42.414 3.83325 42.7805C3.59836 43.1471 3.52006 43.5921 3.62446 44.011C3.83325 44.875 4.66844 45.3987 5.50363 45.2416L13.1769 40.7383C13.725 40.1885 13.7511 39.1412 13.1508 38.4867C12.8376 38.1463 12.3939 37.963 11.9502 37.963L11.9763 38.0154Z" fill="#3E3A39"/>
<path d="M2.97203 50.0858C2.97203 50.0858 4.01602 50.4 4.45971 49.1171C4.9034 47.8604 4.32921 48.2793 4.9817 47.232C5.63419 46.1847 5.66029 46.1847 5.71249 45.6873L4.30311 41.6553C4.30311 41.6553 1.69316 42.1265 1.19727 42.8335L2.97203 50.112V50.0858Z" fill="white"/>
<path d="M3.23292 50.6883C3.07632 50.6883 2.94582 50.6883 2.81532 50.6359C2.63263 50.5836 2.47603 50.4265 2.42383 50.2432L0.649062 42.9647C0.622962 42.8076 0.649062 42.6243 0.75346 42.4934C1.35375 41.6817 3.57221 41.2366 4.2247 41.1057C4.4857 41.0534 4.77279 41.2105 4.85109 41.4723L6.26046 45.5043C6.26046 45.5043 6.28656 45.6876 6.26046 45.7661C6.18217 46.3159 6.10387 46.4468 5.63408 47.2323L5.45138 47.5465C5.19038 47.9654 5.19038 48.0439 5.19038 48.1487C5.19038 48.4105 5.19038 48.6985 4.98159 49.3269C4.61619 50.3479 3.83321 50.6883 3.23292 50.6883ZM1.82354 43.017L3.41561 49.5625C3.59831 49.5101 3.80711 49.353 3.9376 48.9603C4.0942 48.489 4.0942 48.3319 4.0942 48.201C4.0942 47.8345 4.1203 47.5988 4.51179 46.9705L4.69449 46.6563C5.05988 46.0541 5.11208 45.9756 5.13818 45.7661L3.9376 42.3101C3.10242 42.4934 2.18893 42.7814 1.79744 43.017H1.82354Z" fill="#3E3A39"/>
<path d="M23.0425 20.2648L28.7583 23.0924C29.0193 23.2233 29.3064 23.3019 29.5674 23.3019C30.1938 23.3019 30.794 23.0139 31.1594 22.4903L34.448 17.6466C35.0222 16.7826 34.8134 15.6044 33.9521 15.0284C33.0908 14.4262 31.9163 14.6619 31.3421 15.5259L28.9932 18.9819L24.0343 16.4161C23.8516 16.3113 23.6689 16.2851 23.4862 16.259" fill="#FBDACF"/>
<path d="M29.6195 23.8779C29.6195 23.8779 29.5673 23.8779 29.5412 23.8779C29.1758 23.8779 28.8104 23.7732 28.4972 23.6161L22.7814 20.7885C22.4943 20.6576 22.3899 20.3172 22.5204 20.0292C22.6509 19.7412 22.9902 19.6365 23.2773 19.7674L28.9931 22.595C29.1758 22.6998 29.3846 22.7521 29.5673 22.7521C29.9849 22.7521 30.4286 22.5427 30.6896 22.1761L33.9781 17.3325C34.3957 16.7303 34.2391 15.8925 33.6388 15.4997C33.3517 15.2903 32.9863 15.2117 32.647 15.2903C32.3077 15.3688 31.9945 15.5521 31.8118 15.8401L29.4629 19.2961C29.3063 19.5318 28.9931 19.6103 28.7321 19.4794L23.7732 16.9136C23.7732 16.9136 23.5644 16.835 23.4078 16.8088L23.5905 15.7092C23.7993 15.7616 24.0603 15.7877 24.2952 15.9187L28.8104 18.275L30.8722 15.2379C31.2376 14.6881 31.7857 14.3216 32.4382 14.2168C33.0646 14.1121 33.7171 14.2168 34.2652 14.6096C35.3614 15.3688 35.6485 16.8874 34.8916 18.0132L31.603 22.8569C31.1332 23.5376 30.4025 23.9303 29.5934 23.9303L29.6195 23.8779Z" fill="#3E3A39"/>
<path d="M33.8477 13.117C32.4905 12.4886 30.8985 13.0122 30.2721 14.3475C29.6457 15.6566 30.2721 17.2537 31.6032 17.8821C32.9603 18.5366 34.5524 17.9868 35.1788 16.6515C35.8052 15.3424 35.1788 13.7453 33.8477 13.117Z" fill="white"/>
<path d="M32.7776 18.7197C32.3078 18.7197 31.8119 18.615 31.3682 18.4055C29.75 17.6462 29.0192 15.7088 29.7761 14.1117C30.533 12.5146 32.4644 11.8601 34.0825 12.6193C34.8655 12.9859 35.4658 13.6404 35.779 14.4521C36.0922 15.2637 36.04 16.1277 35.6746 16.9132C35.1265 18.0652 33.9781 18.7197 32.7776 18.7197ZM32.6732 13.4048C31.8902 13.4048 31.1333 13.8237 30.794 14.583C30.2981 15.6041 30.794 16.8608 31.8641 17.3844C32.9341 17.9081 34.213 17.463 34.6828 16.4419C34.9177 15.9444 34.9438 15.3684 34.735 14.8448C34.5262 14.3211 34.1347 13.8761 33.6127 13.6404C33.2995 13.4833 32.9864 13.431 32.6732 13.431V13.4048Z" fill="#3E3A39"/>
<path d="M13.5161 32.6481L14.7428 19.3216C15.0038 16.4677 17.3005 14.5303 19.8844 14.5303C22.4683 14.5303 24.3996 16.4677 24.1386 19.3216L22.912 32.6481H13.5161Z" fill="#FBDACF"/>
<path d="M22.912 33.2251H13.5162C13.3596 33.2251 13.203 33.1466 13.0986 33.0418C12.9942 32.9371 12.942 32.78 12.9681 32.6229L14.1948 19.2702C14.4819 16.2593 16.9091 13.9814 19.8845 13.9814C21.3199 13.9814 22.6249 14.5313 23.5123 15.5C24.4258 16.4949 24.8434 17.8825 24.7129 19.3749L23.4862 32.7277C23.4862 33.0157 23.2252 33.2251 22.9381 33.2251H22.912ZM14.1165 32.0993H22.39L23.5645 19.2702C23.6689 18.0658 23.3557 17.0185 22.651 16.2593C21.9724 15.5 20.9806 15.1073 19.8584 15.1073C17.4572 15.1073 15.4997 16.94 15.2909 19.3749L14.1165 32.0993Z" fill="#3E3A39"/>
<path d="M27.5575 7.95894C27.6358 3.95311 24.4778 0.654194 20.4845 0.575648C16.4913 0.497103 13.2027 3.66511 13.1244 7.67093C13.0722 10.996 15.2646 13.8237 18.2922 14.7139V14.7662C18.2922 15.7088 19.049 16.468 19.9886 16.468H20.2757C21.1892 16.468 21.92 15.7349 21.9461 14.8448C25.1041 14.1379 27.5053 11.3364 27.5575 7.95894Z" fill="white"/>
<path d="M20.2762 17.0182H19.9891C18.8668 17.0182 17.9272 16.2066 17.7706 15.1331C14.6386 14.0335 12.4985 10.9964 12.5768 7.64511C12.6551 3.40364 16.1263 0 20.3545 0C20.4067 0 20.4588 0 20.511 0C22.599 0.0523637 24.5304 0.890183 25.9659 2.38255C27.4013 3.87492 28.1843 5.86474 28.1321 7.93311C28.0538 11.3891 25.7571 14.3477 22.4685 15.264C22.2336 16.2589 21.3462 16.992 20.3023 16.992L20.2762 17.0182ZM20.3545 1.12582C16.7527 1.12582 13.7774 4.03201 13.6991 7.67129C13.6469 10.656 15.6043 13.3266 18.4753 14.1644C18.7102 14.2429 18.8668 14.4524 18.8668 14.7142C18.8668 15.3949 19.3627 15.9186 19.9891 15.9186H20.2762C20.8764 15.9186 21.3723 15.4211 21.3984 14.8189C21.3984 14.5571 21.5811 14.3477 21.8421 14.2953C24.8436 13.6146 26.9576 10.9964 27.0359 7.93311C27.062 6.15274 26.4095 4.45092 25.1829 3.16801C23.9562 1.8851 22.2858 1.152 20.511 1.12582C20.4588 1.12582 20.4328 1.12582 20.3806 1.12582H20.3545Z" fill="#3E3A39"/>
<path d="M25.7306 8.6399C25.7306 9.00644 25.4435 9.26826 25.1042 9.26826C24.7649 9.26826 24.5039 8.98026 24.5039 8.61372C24.5039 8.24717 24.791 7.98535 25.1303 7.98535C25.4696 7.98535 25.7306 8.27335 25.7306 8.6399Z" fill="#3E3A39"/>
<path d="M22.6251 8.58716C22.6251 8.95371 22.338 9.21553 21.9987 9.21553C21.6594 9.21553 21.3984 8.92753 21.3984 8.56098C21.3984 8.19444 21.6855 7.93262 22.0248 7.93262C22.3641 7.93262 22.6251 8.22062 22.6251 8.58716Z" fill="#3E3A39"/>
<path d="M21.9722 11.4155C22.8335 11.8344 23.5903 11.7297 24.2689 11.2061L21.9722 11.4155Z" fill="white"/>
<path d="M23.0166 12.0172C22.6251 12.0172 22.2336 11.9124 21.8421 11.7292C21.6855 11.6506 21.6072 11.4412 21.6855 11.2841C21.7638 11.127 21.9465 11.0484 22.1292 11.127C22.8339 11.4673 23.4603 11.415 24.0606 10.9699C24.2172 10.8652 24.426 10.8914 24.5304 11.0223C24.6348 11.1794 24.6087 11.3888 24.4782 11.4935C24.0084 11.8339 23.5386 12.0172 23.0166 12.0172Z" fill="#3E3A39"/>
<path d="M25.6001 7.38288H24.6867C24.504 7.38288 24.3474 7.1996 24.3735 7.01633C24.3735 6.83306 24.5301 6.70215 24.7128 6.70215H25.6262C25.8089 6.70215 25.9655 6.88542 25.9394 7.06869C25.9394 7.25197 25.7828 7.38288 25.6001 7.38288Z" fill="#3E3A39"/>
<path d="M22.2334 7.30469H21.32C21.1373 7.30469 20.9807 7.12142 21.0068 6.93814C21.0068 6.75487 21.1373 6.59778 21.3461 6.62396H22.2595C22.4422 6.62396 22.5988 6.80723 22.5727 6.9905C22.5727 7.17378 22.4161 7.33087 22.2334 7.33087V7.30469Z" fill="#3E3A39"/>
<path d="M20.4847 0.654462C17.5093 0.602098 14.9255 2.35629 13.751 4.92211C16.6219 4.97447 24.2952 5.13157 27.0096 5.18393C25.9656 2.56574 23.4339 0.706825 20.4586 0.654462" fill="white"/>
<path d="M27.0359 5.73439L13.7773 5.47257C13.5946 5.47257 13.4119 5.36784 13.3075 5.21075C13.2031 5.05365 13.2031 4.8442 13.2814 4.68711C14.5342 1.88565 17.3007 0.0791016 20.3544 0.0791016C20.4066 0.0791016 20.4588 0.0791016 20.511 0.0791016C23.6168 0.131465 26.3834 2.04274 27.5579 4.94893C27.6362 5.1322 27.6101 5.31547 27.5057 5.47257C27.4013 5.62966 27.2186 5.7082 27.0359 5.7082V5.73439ZM14.6908 4.37293L26.1485 4.60856C25.0001 2.56638 22.8599 1.28347 20.4849 1.23111C20.4327 1.23111 20.3805 1.23111 20.3544 1.23111C18.0315 1.23111 15.8914 2.43547 14.6908 4.39911V4.37293Z" fill="#3E3A39"/>
<path d="M8.13985 30.7902C7.01757 30.0571 6.67828 28.5124 7.40906 27.3865C8.13985 26.2607 9.65362 25.9204 10.7759 26.6534C11.8982 27.3865 12.2375 28.9313 11.5067 30.0571C10.7759 31.1829 9.26213 31.5233 8.13985 30.7902Z" fill="white"/>
<path d="M9.44482 31.7582C8.87063 31.7582 8.32254 31.6011 7.82665 31.2869C6.44337 30.3705 6.02578 28.5116 6.91316 27.124C7.80055 25.7363 9.67971 25.3174 11.063 26.2076C12.4724 27.124 12.89 28.9829 11.9765 30.3967C11.5328 31.0774 10.8803 31.5225 10.0973 31.7058C9.88851 31.7582 9.65362 31.7843 9.44482 31.7843V31.7582ZM9.44482 26.836C8.81843 26.836 8.21814 27.1501 7.85274 27.7C7.30465 28.564 7.53955 29.7422 8.42694 30.3182L8.13984 30.7894L8.45304 30.3182C8.87063 30.58 9.39262 30.6847 9.86241 30.58C10.3322 30.4753 10.7759 30.1872 11.0369 29.7683C11.6111 28.9043 11.3501 27.7262 10.4627 27.1502C10.1495 26.9407 9.78411 26.836 9.41872 26.836H9.44482Z" fill="#3E3A39"/>
<path d="M17.3788 15.3164L9.49672 18.6415C8.42664 19.1651 8.06124 19.9244 7.87855 21.3644L7.74805 27.0197H11.1149L11.3498 21.5477L16.126 19.8459" fill="#FBDACF"/>
<path d="M11.1412 27.5696H7.74829C7.59169 27.5434 7.46119 27.491 7.35679 27.3863C7.2524 27.2816 7.2002 27.1245 7.2002 26.9936L7.33069 21.3383C7.51339 19.8459 7.87878 18.7986 9.26206 18.1441L17.1702 14.819C17.4573 14.7143 17.7705 14.819 17.901 15.107C18.0315 15.395 17.901 15.7092 17.6139 15.8401L9.73185 19.1652C8.92277 19.5579 8.60957 20.1077 8.45297 21.4168L8.32248 26.4437H10.5931L10.8019 21.5215C10.8019 21.2859 10.9585 21.1026 11.1673 21.0241L15.9435 19.3223C16.2306 19.2175 16.5438 19.3746 16.6482 19.6626C16.7526 19.9506 16.596 20.2648 16.3089 20.3695L11.8981 21.9666L11.6893 27.0721C11.6893 27.3601 11.4283 27.6219 11.1412 27.6219V27.5696Z" fill="#3E3A39"/>
<path d="M40.8685 46.9177C40.8685 49.693 38.6239 51.9185 35.8835 51.9185C33.143 51.9185 30.8984 49.6668 30.8984 46.9177C30.8984 44.1686 33.143 41.917 35.8835 41.917C38.6239 41.917 40.8685 44.1686 40.8685 46.9177Z" fill="white"/>
<path d="M35.8837 52.4947C32.83 52.4947 30.3506 50.0074 30.3506 46.9441C30.3506 43.8808 32.83 41.3936 35.8837 41.3936C38.9373 41.3936 41.4168 43.8808 41.4168 46.9441C41.4168 50.0074 38.9373 52.4947 35.8837 52.4947ZM35.8837 42.467C33.4564 42.467 31.4468 44.4568 31.4468 46.9179C31.4468 49.379 33.4303 51.3689 35.8837 51.3689C38.337 51.3689 40.3206 49.379 40.3206 46.9179C40.3206 44.4568 38.337 42.467 35.8837 42.467Z" fill="#3E3A39"/>
<path d="M22.9119 32.6494L27.2706 39.8233L22.1289 43.096L17.5615 35.6603" fill="white"/>
<path d="M22.1288 43.6713C22.1288 43.6713 22.0505 43.6713 21.9983 43.6713C21.8417 43.6451 21.7373 43.5404 21.659 43.4095L17.0916 35.9738C16.935 35.712 17.0133 35.3716 17.2743 35.2146C17.5353 35.0575 17.8746 35.136 18.0312 35.3978L22.3115 42.336L26.4874 39.6655L22.4159 32.9629C22.2593 32.7011 22.3376 32.3607 22.5986 32.2036C22.8596 32.0466 23.1989 32.1251 23.3555 32.3869L27.7141 39.5608C27.8707 39.8226 27.7924 40.1629 27.5314 40.32L22.4159 43.5928C22.4159 43.5928 22.2071 43.6713 22.1027 43.6713H22.1288Z" fill="#3E3A39"/>
<path d="M19.6232 35.896L14.1162 42.3105L8.97461 38.488L13.5159 32.6494H22.2593" fill="white"/>
<path d="M14.1165 42.8857C14.1165 42.8857 13.8816 42.8596 13.7772 42.781L8.63555 38.9585C8.63555 38.9585 8.42676 38.7228 8.42676 38.5919C8.42676 38.461 8.42676 38.3039 8.53116 38.173L13.0725 32.3344C13.1769 32.2035 13.3335 32.125 13.5162 32.125H22.2595C22.5727 32.125 22.8076 32.3868 22.8076 32.6748C22.8076 32.9628 22.5466 33.2246 22.2595 33.2246H13.7772L9.75784 38.4086L14.0121 41.5766L19.2059 35.5548C19.4147 35.3192 19.754 35.293 19.9889 35.5025C20.2238 35.7119 20.2499 36.0523 20.0411 36.2879L14.508 42.7025C14.508 42.7025 14.247 42.8857 14.0904 42.8857H14.1165Z" fill="#3E3A39"/>
<path d="M35.0483 43.9854H33.5867L32.856 45.2421L33.5867 46.525H35.0483L35.7791 45.2421L35.0483 43.9854Z" fill="#3E3A39"/>
<path d="M36.0923 48.2529H34.6307L33.8999 49.5358L34.6307 50.7926H36.0923L36.823 49.5358L36.0923 48.2529Z" fill="#3E3A39"/>
<path d="M39.5376 45.8701H38.076L37.3452 47.1268L38.076 48.4098H39.5376L40.2684 47.1268L39.5376 45.8701Z" fill="#3E3A39"/>
</svg>
