<svg width="113" height="411" viewBox="0 0 113 411" fill="none" xmlns="http://www.w3.org/2000/svg">
<path d="M61.9808 404.456L19.3121 121.148L0 123.944L42.6688 407.251L61.9808 404.456Z" fill="#E8F6C5"/>
<path d="M17.9149 0H17.8937L14.3574 28.7775L30.1756 26.2577L17.9149 0Z" fill="#2C353E"/>
<path d="M14.3566 28.7777L4.25586 110.558L65.0509 100.923L30.1748 26.2578L14.3566 28.7777Z" fill="#F8E0B3"/>
<path d="M46.7143 107.671L24.1055 111.252L71.0448 407.615L93.6536 404.034L46.7143 107.671Z" fill="#A4CB17"/>
<path d="M24.0889 111.234L4.82617 114.285L51.7655 410.648L71.0282 407.597L24.0889 111.234Z" fill="#BED753"/>
<path d="M65.6365 104.665L46.6875 107.666L93.6268 404.029L112.576 401.028L65.6365 104.665Z" fill="#8FBD24"/>
<path d="M30.1762 26.2578L24.9668 27.0837L45.5284 104.014L65.0522 100.923L30.1762 26.2578Z" fill="#F6D09F"/>
</svg>
