<svg width="40" height="40" viewBox="0 0 40 40" fill="none" xmlns="http://www.w3.org/2000/svg">
<path d="M38.6916 34.6083C39.428 35.6033 38.7671 37 37.5396 37H18.8256C9.5347 37 2 29.3849 2 20.0096C2 10.6342 9.5347 3 18.8256 3C28.1165 3 35.6512 10.6151 35.6512 20.0096C35.2169 28.0264 36.9731 32.3315 38.6916 34.6083Z" fill="#EF897E"/>
<path d="M12.4328 9.61C12.7928 9.25 13.3928 9.19 14.1728 9.19H21.5828C22.6628 9.19 24.3128 8.98 24.7028 10.27C24.9428 11.08 24.6428 12.46 23.5628 12.58C22.5428 12.76 21.3728 12.58 20.3228 12.58C19.1828 12.58 18.4028 12.7 17.2928 12.7C16.8728 12.7 16.0328 12.61 15.6728 12.73C15.0128 12.88 15.0428 13.78 15.0428 14.26C15.0428 14.95 14.9528 15.64 14.9228 16.33C14.8328 17.26 15.1628 17.23 16.0028 16.99C16.7228 16.81 17.4728 16.72 18.2228 16.72C22.2728 16.72 25.4528 18.88 25.4528 23.32C25.4528 23.71 25.4528 24.07 25.3628 24.43C25.0328 26.95 23.3828 28.99 20.9828 29.83C18.1628 30.91 14.9228 30.91 12.3728 29.26C11.6528 28.84 10.9928 28.18 10.7228 27.4C10.3928 26.56 10.4828 25.54 11.3828 25.09C12.7328 24.43 13.6328 25.72 14.6828 26.29C15.5828 26.74 16.6028 27.07 17.7128 27.07C20.1728 27.07 21.8228 25.63 21.8228 23.41C21.8228 21.28 20.1128 19.96 17.5028 19.96C16.8128 19.96 16.1228 20.02 15.4628 20.23C14.1728 20.53 12.9728 21.25 11.8928 19.99C11.3828 19.45 11.5028 18.55 11.5628 17.86C11.6228 16.69 11.6828 15.55 11.7428 14.38C11.8328 13.24 11.8928 12.07 11.9528 10.93C11.9828 10.27 12.1628 9.88 12.4328 9.61Z" fill="#1E1E1E"/>
</svg>
