<svg width="162" height="52" viewBox="0 0 162 52" fill="none" xmlns="http://www.w3.org/2000/svg">
<path d="M38.0436 7.57926C37.2411 8.05485 36.5116 8.57733 35.4027 8.90555C34.498 9.17349 33.4037 9.28066 32.3677 9.40124C26.0525 8.08333 17.3892 9.22093 13.4642 11.8333C9.52467 14.4457 5.4738 18.8659 7.92509 21.8333C-0.596057 24.2381 0.355055 31.1913 2.45616 35.6726C4.55727 40.1606 11.6777 43.9184 20.2864 46.2495C28.8951 48.5872 38.8753 49.6389 48.7972 50.1614C64.1907 50.9719 79.9782 50.5834 94.8464 48.5872C103.601 47.415 112.399 45.5461 117.769 42.1634C118.294 41.8285 118.819 41.4735 119.607 41.2725C120.512 41.0381 121.592 41.0515 122.628 41.0582C136.372 41.1251 150.963 38.1711 156.946 32.4908C160.623 29.0009 160.696 24.9015 158.843 21.1235C157.033 17.4193 153.415 13.8691 147.943 11.0223C140.487 7.14386 129.996 4.73911 119.228 3.21186C107.935 1.60423 96.0429 0.8607 84.2096 1.02146C79.4821 1.08845 76.1407 1.59753 72.0407 2.56881C68.4951 3.41281 64.643 2.93052 60.6305 3.0243C52.2553 3.22526 43.3985 4.41088 38.0582 7.57256" fill="#666DB2"/>
<path d="M38.2656 7.63121C37.4582 8.11105 36.7242 8.63819 35.6085 8.96934C34.6984 9.23967 33.1392 8.8477 32.097 8.96934C24.0405 7.63121 18.4223 8.78095 14.4734 11.4167C10.5098 14.0524 5.46126 18.8394 7.92748 21.8333C-0.645573 24.2595 0.34746 31.454 2.46136 35.982C4.57527 40.51 11.7391 44.3014 20.4002 46.6533C29.0613 49.0119 39.1024 50.073 49.0847 50.6001C64.572 51.4179 80.4556 51.0259 95.4144 49.0119C104.222 47.8292 113.074 45.9437 118.477 42.5308C119.005 42.1929 119.533 41.8347 120.326 41.6319C121.236 41.3954 122.323 41.4089 123.365 41.4157C137.193 41.4832 151.873 38.5029 157.892 32.7719C161.591 29.2508 161.665 25.1148 159.8 21.3031C157.98 17.5658 154.339 13.984 148.835 11.1117C141.333 7.19869 130.778 4.77248 119.945 3.2316C108.568 1.60962 96.6035 0.859457 84.6981 1.02165C79.9418 1.08924 76.5801 1.60286 72.4551 2.58281C68.8879 3.43435 65.0124 2.94775 60.9754 3.04237C52.5491 3.24512 43.6384 4.44132 38.2656 7.63121Z" stroke="#E7E7F0" stroke-width="1.31" stroke-miterlimit="10"/>
<path d="M39.7882 8.74658C39.0107 9.18643 38.2089 9.86441 37.1345 10.168C36.258 10.4158 34.6135 10.4731 33.6098 10.5846C25.8514 9.35802 20.679 9.80051 16.8762 12.2166C13.0593 14.6327 8.0716 19.9236 10.4466 22.668C2.1907 24.892 3.27292 30.5841 5.30862 34.7348C7.34431 38.8855 14.2431 42.3609 22.5838 44.5168C30.9245 46.6789 40.594 47.6515 50.207 48.1347C65.1213 48.8843 80.4174 48.525 94.8227 46.6789C103.305 45.5947 111.829 43.8663 117.032 40.7378C117.541 40.4281 118.049 40.0997 118.813 39.9139C119.689 39.6971 120.735 39.7095 121.739 39.7156C135.056 39.7776 149.193 37.0456 154.989 31.7922C158.551 28.5646 158.622 24.7732 156.827 21.2792C155.074 17.8533 151.568 14.5699 146.266 11.937C139.043 8.3501 128.878 6.12607 118.445 4.7136C107.489 3.22679 95.9678 2.53914 84.5029 2.68782C79.9226 2.74977 76.6852 3.22059 72.7128 4.11888C69.2776 4.89945 65.5454 4.45341 61.6578 4.54014C53.5433 4.72599 44.9623 5.82252 39.7882 8.74658Z" stroke="#E7E7F0" stroke-width="0.5" stroke-miterlimit="10"/>
<path d="M18.708 25.4C19.68 25.4 20.868 25.472 22.236 25.508C22.236 25.004 22.236 24.536 22.272 24.068C22.236 24.068 22.2 24.068 22.164 24.032C19.752 23.06 17.844 22.016 17.844 19.136C17.844 18.452 17.916 17.84 18.096 17.3C16.944 17.3 16.008 16.436 16.008 15.356C16.008 14.312 16.98 13.448 18.132 13.448H22.884V12.26C22.884 11.36 23.82 10.604 24.972 10.604C26.124 10.604 27.096 11.36 27.096 12.26V13.448H32.064C33.252 13.448 34.224 14.312 34.224 15.356C34.224 16.436 33.288 17.264 32.136 17.3C32.28 17.84 32.388 18.452 32.388 19.136C32.388 21.152 31.812 22.016 30.156 23.204C29.328 23.816 28.212 24.176 27.024 24.32V25.436V25.616C28.824 25.616 28.536 25.508 31.092 25.58C31.992 25.58 32.856 25.508 33.684 25.868C34.296 26.156 34.692 26.84 34.692 27.596C34.692 28.208 34.44 28.424 34.044 28.856C33.36 29.576 32.28 29.54 31.416 29.468H18.708C18.636 29.468 17.124 29.504 16.548 28.676C16.26 28.388 16.116 28.1 16.116 27.596C16.116 27.092 16.296 26.732 16.548 26.408C17.088 25.796 18.096 25.472 18.708 25.4ZM40.38 39.296C41.136 39.368 41.784 39.62 42 40.376C42.288 41.24 41.964 41.852 41.064 42.212C40.488 42.428 39.876 42.464 39.372 42.464H22.632C21.66 42.464 20.616 42.428 19.572 42.392C18.564 42.356 17.844 41.6 17.736 40.52L17.628 38C17.592 37.496 17.556 36.632 17.988 36.164C18.636 35.444 19.932 35.336 20.976 35.336C22.344 35.336 26.916 35.372 37.896 35.372V34.076H20.184C19.716 34.076 19.32 34.076 18.96 34.004C18.528 33.896 18.168 33.896 17.952 33.5C17.628 32.996 17.52 32.528 17.7 31.952C17.952 31.196 19.032 31.088 19.572 31.016C19.932 30.944 20.292 30.908 20.688 30.908C22.848 30.908 25.368 30.944 38.256 30.944C40.668 30.944 42.036 31.664 42.036 33.32V35.876C42.036 36.524 41.748 37.244 40.992 37.676C40.38 38.036 39.732 38 39.12 38H22.056V39.296H40.38ZM37.032 26.696V17.444C36.996 16.364 37.032 14.6 37.644 13.988C38.184 13.52 38.724 13.448 39.372 13.448C40.164 13.448 40.884 13.952 41.172 14.672C41.568 15.68 41.532 16.76 41.568 17.804C41.568 18.992 41.568 19.928 41.604 20.792C42.648 20.792 43.656 20.828 44.268 20.864C45.528 20.936 46.392 22.844 45.636 23.816C44.952 24.788 43.26 24.932 41.64 24.86V26.3C41.64 27.308 41.46 27.74 41.28 28.28C41.244 28.424 41.172 28.568 41.1 28.748C40.956 29.036 40.74 29.324 40.452 29.504C39.948 29.828 39.3 29.9 38.688 29.792C38.4 29.72 38.076 29.576 37.824 29.36C36.996 28.568 37.032 26.768 37.032 26.696ZM24.828 20.72C26.196 20.792 28.068 20.792 28.068 19.136C28.068 17.804 27.348 17.408 26.412 17.3H23.46C22.596 17.444 21.948 17.876 21.948 19.136C22.02 20.72 23.424 20.792 24.828 20.72ZM69.7788 27.2C70.5708 27.236 71.4708 27.38 72.1548 27.92C72.4788 28.172 72.6588 28.604 72.6588 29.036C72.6588 29.504 72.4788 30.116 72.1908 30.368C71.4348 31.088 69.5628 31.016 69.4908 31.016L50.3028 31.052C49.2228 31.088 47.8908 31.16 47.0988 30.512C46.5588 30.116 46.2708 29.72 46.2708 29.18C46.2708 28.532 46.7748 27.704 47.5308 27.452C48.5388 27.128 49.6188 27.236 50.6988 27.2C53.0388 27.128 53.7948 27.2 56.2068 27.2V25.148C54.2268 25.112 52.1388 25.076 51.2388 25.04C50.0508 25.076 47.9988 24.896 47.6388 23.6C47.3868 22.52 47.2788 22.664 47.2788 21.548V17.696C47.2428 17.768 47.1708 15.968 47.7828 14.996C48.3948 13.988 50.5908 13.952 50.8428 13.952H66.6828C67.6908 13.952 68.8068 13.88 69.7788 14.24C70.5708 14.564 70.8228 15.428 70.7868 16.292C70.7148 17.084 70.1748 17.732 69.3468 17.948C68.9148 18.056 68.2308 18.092 67.3308 18.092C66.7188 18.092 66.2148 18.056 66.2148 18.056H53.4708C53.2188 18.02 52.6788 18.02 52.4268 18.164C52.1748 18.272 52.2108 20.576 52.3188 20.828C52.4988 21.152 53.2908 21.116 53.7948 21.08C54.9468 21.044 57.1068 21.08 64.3428 21.08H67.0068C68.1948 21.08 69.2028 21.008 69.9948 21.404C70.4628 21.62 70.8228 22.088 70.9668 22.628C71.0748 23.204 70.9308 23.816 70.6068 24.248C69.8508 25.184 68.9508 25.04 67.9068 25.076C67.1148 25.112 63.4788 25.148 61.2468 25.148C61.2828 25.832 61.3188 26.624 61.3188 27.2C63.9828 27.2 67.7268 27.092 69.7788 27.2ZM47.4228 37.712C47.4228 33.644 52.7148 32.672 59.1948 32.672C65.7108 32.672 71.0028 33.176 71.0028 37.712C71.0028 42.176 65.7108 42.752 59.1948 42.752C52.7148 42.752 47.4228 42.176 47.4228 37.712ZM66.2508 37.712C66.2508 36.164 62.5068 36.2 59.1948 36.2C55.9188 36.2 52.3908 36.164 52.3908 37.712C52.3908 39.08 55.9188 39.224 59.1948 39.224C62.5068 39.224 66.2508 39.512 66.2508 37.712ZM83.3305 22.088C91.0705 22.376 91.4305 33.104 88.5145 38.288C86.3905 42.032 80.3065 42.248 77.4265 39.152C76.2025 37.82 75.7705 36.38 75.5185 34.616C75.0145 31.088 74.7625 27.992 76.6705 24.788C77.7145 22.988 80.7025 21.98 83.3305 22.088ZM100.107 24.716H100.179C100.395 24.716 100.611 24.788 100.863 24.788C101.115 24.824 101.403 24.86 101.691 24.896C102.231 25.004 102.807 25.22 103.059 25.76C103.239 26.048 103.311 26.372 103.311 26.696C103.311 27.056 103.311 27.38 103.203 27.74C103.131 28.1 103.023 28.604 102.699 28.856C102.411 29.072 102.087 29.252 101.727 29.324C100.971 29.432 99.6745 29.324 98.9185 29.36C98.8465 29.36 98.8105 29.396 98.8105 29.396C98.8105 29.396 98.7745 29.396 98.7745 29.54C98.7385 30.728 98.7745 32.528 98.7745 33.752C98.8105 34.976 98.8105 36.236 98.7745 37.424V37.928C98.7745 39.188 98.7745 41.024 97.9105 41.888C97.6225 42.212 97.2265 42.392 96.7585 42.392C96.7585 42.392 96.7225 42.356 96.6865 42.356C94.3465 42.284 94.0945 39.476 94.0945 37.964V16.58C94.0945 16.508 94.0585 14.708 94.8505 13.916C95.1745 13.592 95.9305 13.412 96.4705 13.412C97.0105 13.412 97.4785 13.628 97.8025 13.952C98.4505 14.636 98.4865 15.392 98.5585 16.184C98.5945 16.328 98.5945 16.472 98.5945 16.616C98.7025 17.408 98.7025 18.308 98.7385 19.172C98.7385 19.712 98.7745 20.18 98.7745 20.72C98.7385 21.008 98.7745 21.26 98.7745 21.512V23.852C98.7745 24.104 98.7745 24.392 98.8465 24.644C98.8465 24.68 99.5665 24.68 99.6025 24.68C99.7825 24.716 99.9265 24.752 100.107 24.716ZM88.3705 16.328C89.3065 16.328 90.4225 16.544 90.9265 17.48C91.2505 18.092 91.1425 19.208 90.6745 19.82C89.7385 21.008 86.1385 20.612 85.4905 20.648C85.1305 20.684 84.7705 20.684 84.3385 20.684H83.1865C82.8265 20.648 82.4665 20.648 82.0705 20.648L77.8225 20.576C75.3745 20.576 74.4385 19.964 74.2585 18.632C74.1505 17.912 74.3665 17.336 74.7985 16.94C75.4465 16.364 75.8065 16.292 76.5265 16.292C76.7065 16.292 76.9225 16.328 77.1025 16.328H78.0025C78.6865 16.328 79.6945 16.292 80.3785 16.256C80.4145 15.896 80.4505 14.672 80.4865 14.348C80.5225 13.952 80.6665 13.556 80.8825 13.232C81.3505 12.584 82.0345 12.224 82.7545 12.26C83.4385 12.332 84.1585 12.368 84.5905 12.944C85.1305 13.7 84.9145 15.248 85.0225 16.292H86.0665C86.4625 16.292 87.3625 16.328 87.7225 16.328H88.3705ZM83.1865 37.316C85.3465 36.992 86.1745 34.292 86.1385 32.348C86.1025 30.692 86.0305 28.064 84.5545 27.056C83.2585 26.192 80.5585 26.588 79.8745 28.1C78.9745 30.044 79.0465 32.024 79.4785 34.076C79.6945 35.12 80.0905 36.416 80.9905 37.028C81.3865 37.28 82.7905 37.388 83.1865 37.316ZM130.745 39.548C130.673 40.124 130.637 40.664 130.457 41.24C130.385 41.42 130.313 41.564 130.241 41.744C130.097 42.032 129.881 42.32 129.593 42.536C129.053 42.86 128.369 42.932 127.757 42.788C127.397 42.716 127.073 42.572 126.821 42.356C125.957 41.564 125.993 39.692 125.993 39.62V17.372C125.957 16.256 125.993 14.456 126.677 13.808C127.181 13.304 127.793 13.232 128.441 13.232C129.269 13.232 130.025 13.736 130.313 14.528C130.745 15.536 130.709 16.652 130.745 17.768V17.948C130.853 21.62 130.745 25.688 130.745 29.144V38.252C130.745 38.684 130.781 39.116 130.745 39.548ZM113.753 36.02C113.717 35.444 113.717 34.868 113.717 34.292V22.844C113.717 22.088 113.717 21.296 113.645 20.504C113.609 20.252 113.573 19.712 113.321 19.604C113.069 19.46 112.745 19.532 112.457 19.496C112.133 19.46 111.809 19.532 111.485 19.496H109.793C109.001 19.532 108.137 19.46 107.345 19.496C106.985 19.532 106.661 19.496 106.301 19.496C105.761 19.496 105.149 19.496 104.681 19.172C103.997 18.704 103.817 17.912 103.817 17.156C103.781 16.688 103.889 16.22 104.105 15.788C104.213 15.536 104.357 15.32 104.573 15.176C104.825 14.924 105.365 14.744 105.689 14.672C106.697 14.42 107.849 14.456 108.893 14.456H115.157C115.769 14.528 116.525 14.6 117.101 14.816C117.461 14.96 117.893 15.212 118.109 15.536C118.541 16.22 118.541 16.868 118.613 17.66C118.721 18.992 118.685 20.324 118.685 21.656V33.464C118.685 33.572 118.757 36.56 118.685 38.072C118.613 39.044 118.397 40.232 117.137 40.7C116.705 40.88 116.273 40.952 115.913 40.952C115.301 40.952 114.581 40.7 114.329 40.16C113.969 39.44 113.753 38.54 113.753 37.604V36.02Z" fill="white"/>
<g clip-path="url(#clip0_370_35469)">
<path d="M142.957 28.0898L140.384 31.2343L136.764 35.1706C136.764 35.1706 136.272 35.1253 135.848 34.8199C135.599 34.6446 135.361 33.8868 135.175 33.7341C135.011 33.9377 134.954 34.2091 135.028 34.458L135.197 35.0405C135.197 35.0405 135.424 35.7135 136.131 36.0641C136.391 36.1942 136.758 36.296 137.03 36.3639C137.256 36.4148 137.488 36.3356 137.635 36.1603L140.74 32.3654L143.313 29.2266L142.951 28.0955L142.957 28.0898Z" fill="#E89935"/>
<path d="M146.554 30.7574L156.785 19.7687C157.023 19.5142 157.068 19.1297 156.898 18.8299C156.587 18.287 156.31 17.8685 156.078 17.6875L146 29.0325L146.554 30.7574Z" fill="#E89935"/>
<path d="M146.555 30.7592C146.114 30.4424 145.548 30.3689 145.05 30.5216L144.496 28.7967C144.994 28.644 145.559 28.7118 146 29.0342L146.555 30.7592Z" fill="#E89935"/>
<path d="M145.046 30.5255C144.955 30.4237 144.853 30.3275 144.74 30.2427C143.954 29.6772 142.817 29.8242 142.207 30.5764L141.652 28.8515C142.263 28.1049 143.4 27.9522 144.186 28.5178C144.305 28.6026 144.407 28.6988 144.491 28.8006L145.046 30.5255Z" fill="#E89935"/>
<path d="M135.181 33.7317C135.017 33.9353 134.994 34.2238 135.141 34.4387C135.282 34.6479 135.469 34.8968 135.684 35.0495C135.91 35.2135 136.255 35.3266 136.521 35.4001C136.747 35.4623 136.996 35.3831 137.143 35.2022L140.389 31.232L142.963 28.0932L141.967 27.3806L140.972 26.668L138.399 29.8068L135.181 33.7317Z" fill="#E52A14"/>
<path d="M139.862 28.0213C140.473 27.2747 140.332 26.2058 139.546 25.6403C139.427 25.5555 139.303 25.4876 139.172 25.4367C139.201 24.9447 138.98 24.4526 138.539 24.1359L147.079 12.2141C147.339 11.8521 147.837 11.7729 148.199 12.0274L156.077 17.6886C156.467 17.9714 156.524 18.5313 156.196 18.8876L146.185 29.6331C145.744 29.3164 145.179 29.2429 144.681 29.3956C144.596 29.2938 144.489 29.1976 144.376 29.1128C143.589 28.5472 142.453 28.6943 141.842 29.4465L139.862 28.0213Z" fill="#FAC66C"/>
<path d="M148.264 16.9235C147.381 15.9338 145.9 16.5502 145.786 16.8387C145.719 17.0253 146.312 18.4561 147.63 18.3487C148.411 18.2865 148.874 17.6021 148.264 16.9178" fill="#85C03B"/>
<path d="M150.223 16.6996C150.692 15.4554 149.465 14.4317 149.148 14.4657C148.95 14.4883 147.961 15.6816 148.662 16.7957C149.08 17.4574 149.9 17.5536 150.223 16.6939" fill="#85C03B"/>
<path d="M150.67 19.6722C151.253 20.8655 152.842 20.6732 153.029 20.4243C153.147 20.266 152.961 18.7277 151.666 18.4675C150.897 18.3148 150.263 18.8465 150.67 19.6722Z" fill="#85C03B"/>
<path d="M149.721 18.5186C149.009 18.5186 148.438 17.9417 148.438 17.2291C148.438 16.5165 149.014 15.9453 149.727 15.9453C150.44 15.9453 151.011 16.5222 151.011 17.2348C151.011 17.9474 150.434 18.5186 149.721 18.5186Z" fill="#E52A14"/>
<path d="M149.992 18.359C149.771 19.0321 149.041 19.3997 148.368 19.1791C147.695 18.9585 147.328 18.229 147.548 17.556C147.769 16.883 148.499 16.5153 149.172 16.7359C149.845 16.9565 150.212 17.686 149.992 18.359Z" fill="#E52A14"/>
<path d="M149.83 18.0929C150.401 18.5114 150.531 19.3201 150.107 19.8914C149.689 20.4626 148.885 20.5926 148.309 20.1685C147.737 19.75 147.607 18.9469 148.031 18.37C148.45 17.7932 149.253 17.6687 149.83 18.0872" fill="#E52A14"/>
<path d="M149.745 18.2767C150.322 17.8582 151.125 17.9882 151.543 18.5651C151.962 19.142 151.832 19.9451 151.255 20.3636C150.678 20.7764 149.875 20.652 149.456 20.0751C149.038 19.4983 149.168 18.6952 149.745 18.2767Z" fill="#E52A14"/>
<path d="M149.626 18.4583C149.405 17.7796 149.779 17.0557 150.457 16.8408C151.136 16.6202 151.86 16.9935 152.075 17.6721C152.295 18.3508 151.922 19.0747 151.243 19.2896C150.565 19.5102 149.841 19.1369 149.626 18.4583Z" fill="#E52A14"/>
<path d="M150.254 17.9296C150.163 17.9296 150.09 17.8561 150.09 17.7656C150.09 17.6751 150.163 17.6016 150.254 17.6016C150.344 17.6016 150.418 17.6751 150.418 17.7656C150.418 17.8561 150.344 17.9296 150.254 17.9296Z" fill="#EEB64E"/>
<path d="M150.535 18.6874C150.445 18.6874 150.371 18.6139 150.371 18.5234C150.371 18.4329 150.445 18.3594 150.535 18.3594C150.626 18.3594 150.699 18.4329 150.699 18.5234C150.699 18.6139 150.626 18.6874 150.535 18.6874Z" fill="#EEB64E"/>
<path d="M149.461 17.9804C149.37 17.9804 149.297 17.9068 149.297 17.8164C149.297 17.7259 149.37 17.6523 149.461 17.6523C149.551 17.6523 149.625 17.7259 149.625 17.8164C149.625 17.9068 149.551 17.9804 149.461 17.9804Z" fill="#EEB64E"/>
<path d="M149.867 18.496C149.777 18.496 149.703 18.4225 149.703 18.332C149.703 18.2415 149.777 18.168 149.867 18.168C149.958 18.168 150.031 18.2415 150.031 18.332C150.031 18.4225 149.958 18.496 149.867 18.496Z" fill="#EEB64E"/>
<path d="M149.918 19.1483C149.827 19.1483 149.754 19.0748 149.754 18.9843C149.754 18.8938 149.827 18.8203 149.918 18.8203C150.008 18.8203 150.082 18.8938 150.082 18.9843C150.082 19.0748 150.008 19.1483 149.918 19.1483Z" fill="#EEB64E"/>
<path d="M149.242 18.789C149.152 18.789 149.078 18.7154 149.078 18.6249C149.078 18.5345 149.152 18.4609 149.242 18.4609C149.333 18.4609 149.406 18.5345 149.406 18.6249C149.406 18.7154 149.333 18.789 149.242 18.789Z" fill="#EEB64E"/>
<path d="M145.045 22.0584C145.656 23.3422 147.364 23.1556 147.562 22.8841C147.687 22.7144 147.506 21.063 146.12 20.7803C145.3 20.6106 144.616 21.1705 145.04 22.0584" fill="#85C03B"/>
<path d="M144.32 20.0402C143.053 19.3955 141.815 20.5832 141.82 20.9168C141.82 21.1317 142.974 22.3251 144.247 21.7086C144.999 21.341 145.202 20.4814 144.326 20.0346" fill="#85C03B"/>
<path d="M145.196 20.4523C145.813 20.4071 146.35 20.8652 146.395 21.4816C146.441 22.0981 145.983 22.6353 145.366 22.6806C144.75 22.7258 144.212 22.2677 144.167 21.6513C144.122 21.0348 144.58 20.4975 145.196 20.4523Z" fill="#F7F5E8"/>
<path d="M144.97 20.6063C145.117 20.0069 145.716 19.6392 146.316 19.7863C146.915 19.9333 147.283 20.5385 147.136 21.138C146.989 21.7374 146.389 22.1051 145.79 21.958C145.19 21.811 144.823 21.2115 144.97 20.6063Z" fill="#F7F5E8"/>
<path d="M145.13 20.821C144.604 20.4986 144.44 19.8087 144.763 19.2827C145.085 18.7567 145.775 18.5927 146.301 18.9151C146.827 19.2375 146.991 19.9274 146.669 20.4534C146.346 20.9794 145.656 21.1434 145.13 20.821Z" fill="#F7F5E8"/>
<path d="M145.187 20.6611C144.718 21.0627 144.011 21.0061 143.615 20.5311C143.214 20.0616 143.27 19.3547 143.745 18.9588C144.215 18.5573 144.921 18.6138 145.323 19.0889C145.725 19.5583 145.662 20.2652 145.193 20.6611" fill="#F7F5E8"/>
<path d="M145.282 20.499C145.514 21.0702 145.242 21.7206 144.671 21.9581C144.1 22.1956 143.449 21.9185 143.212 21.353C142.98 20.7818 143.251 20.1314 143.822 19.8938C144.394 19.6563 145.044 19.9334 145.282 20.499Z" fill="#F7F5E8"/>
<path d="M144.771 20.9965C144.85 20.9908 144.918 21.0474 144.924 21.1266C144.929 21.2057 144.873 21.2736 144.794 21.2793C144.715 21.2849 144.647 21.2284 144.641 21.1492C144.635 21.07 144.692 21.0021 144.771 20.9965Z" fill="#EEB64E"/>
<path d="M144.478 20.3637C144.557 20.358 144.625 20.4146 144.63 20.4937C144.636 20.5729 144.58 20.6408 144.5 20.6464C144.421 20.6521 144.353 20.5955 144.348 20.5164C144.348 20.4372 144.399 20.3693 144.478 20.3637Z" fill="#EEB64E"/>
<path d="M145.458 20.8988C145.537 20.8932 145.605 20.9497 145.611 21.0289C145.617 21.1081 145.56 21.1759 145.481 21.1816C145.402 21.1873 145.334 21.1307 145.328 21.0515C145.328 20.9723 145.379 20.9045 145.458 20.8988Z" fill="#EEB64E"/>
<path d="M145.068 20.4809C145.147 20.4752 145.215 20.5318 145.22 20.6109C145.226 20.6901 145.169 20.758 145.09 20.7636C145.011 20.7693 144.943 20.7127 144.938 20.6336C144.938 20.5544 144.988 20.4865 145.068 20.4809Z" fill="#EEB64E"/>
<path d="M144.982 19.9223C145.061 19.9166 145.129 19.9732 145.134 20.0523C145.14 20.1315 145.083 20.1994 145.004 20.205C144.925 20.2107 144.857 20.1541 144.852 20.075C144.852 19.9958 144.902 19.9279 144.982 19.9223Z" fill="#EEB64E"/>
<path d="M145.587 20.1797C145.666 20.1797 145.734 20.2306 145.74 20.3098C145.745 20.3889 145.689 20.4568 145.61 20.4625C145.531 20.4681 145.463 20.4116 145.457 20.3324C145.457 20.2532 145.508 20.1853 145.587 20.1797Z" fill="#EEB64E"/>
<path d="M145.006 24.52C144.424 23.2248 142.716 23.3775 142.507 23.6377C142.376 23.8017 142.523 25.4588 143.898 25.7755C144.718 25.9621 145.408 25.4135 145.006 24.52Z" fill="#85C03B"/>
<path d="M146.194 26.6809C147.585 26.9693 148.468 25.4932 148.371 25.1709C148.315 24.9673 146.89 24.1189 145.826 25.0464C145.193 25.6007 145.233 26.4829 146.194 26.6809Z" fill="#85C03B"/>
<path d="M145.003 25.5864C145.336 25.0661 146.026 24.919 146.547 25.2527C147.067 25.5864 147.214 26.2764 146.88 26.7967C146.547 27.317 145.857 27.464 145.336 27.1303C144.816 26.7967 144.669 26.1067 145.003 25.5864Z" fill="#E52A14"/>
<path d="M144.993 25.8585C144.603 25.3834 144.677 24.6765 145.152 24.2863C145.627 23.896 146.334 23.9696 146.724 24.4446C147.114 24.9253 147.041 25.6266 146.566 26.0169C146.085 26.4071 145.384 26.3336 144.993 25.8585Z" fill="#E52A14"/>
<path d="M145.261 25.8649C144.684 26.0911 144.039 25.8027 143.813 25.2258C143.593 24.6489 143.875 24.0042 144.452 23.778C145.029 23.5574 145.674 23.8402 145.9 24.4171C146.126 24.9939 145.838 25.6386 145.261 25.8649Z" fill="#E52A14"/>
<path d="M145.168 25.7177C145.201 26.3342 144.732 26.8601 144.116 26.8941C143.499 26.928 142.973 26.4586 142.939 25.8421C142.905 25.2257 143.375 24.6997 143.991 24.6658C144.608 24.6319 145.134 25.1013 145.168 25.7177Z" fill="#E52A14"/>
<path d="M145.094 25.5471C145.687 25.7054 146.044 26.3162 145.891 26.91C145.733 27.5039 145.122 27.8602 144.528 27.7075C143.934 27.5491 143.578 26.9383 143.731 26.3445C143.889 25.7507 144.5 25.3944 145.094 25.5471Z" fill="#E52A14"/>
<path d="M145.185 26.2484C145.225 26.1806 145.315 26.1636 145.378 26.2088C145.446 26.2484 145.463 26.3389 145.417 26.4011C145.378 26.469 145.287 26.486 145.225 26.4464C145.157 26.4011 145.14 26.3163 145.185 26.2484Z" fill="#EEB64E"/>
<path d="M144.502 26.1039C144.541 26.036 144.632 26.0191 144.694 26.0643C144.762 26.1039 144.779 26.1944 144.734 26.2566C144.694 26.3245 144.604 26.3414 144.541 26.3018C144.474 26.2566 144.457 26.1718 144.502 26.1039Z" fill="#EEB64E"/>
<path d="M145.517 25.6508C145.557 25.5829 145.648 25.5659 145.71 25.6112C145.778 25.6508 145.795 25.7413 145.749 25.8035C145.71 25.8713 145.619 25.8883 145.557 25.8487C145.489 25.8035 145.472 25.7186 145.517 25.6508Z" fill="#EEB64E"/>
<path d="M144.955 25.7055C144.995 25.6376 145.085 25.6206 145.147 25.6659C145.215 25.7055 145.232 25.796 145.187 25.8638C145.147 25.926 145.057 25.9487 144.995 25.9034C144.927 25.8638 144.91 25.7733 144.955 25.7055Z" fill="#EEB64E"/>
<path d="M144.451 25.4398C144.491 25.372 144.581 25.355 144.643 25.4003C144.711 25.4398 144.728 25.5303 144.683 25.5925C144.643 25.6604 144.553 25.6774 144.491 25.6378C144.423 25.5925 144.406 25.5077 144.451 25.4398Z" fill="#EEB64E"/>
<path d="M145.028 25.1117C145.067 25.0438 145.158 25.0269 145.22 25.0721C145.288 25.1117 145.305 25.2022 145.26 25.2701C145.22 25.3323 145.13 25.3549 145.067 25.3097C145.005 25.2644 144.982 25.1796 145.028 25.1117Z" fill="#EEB64E"/>
<path d="M142.995 7.21902L141.796 5.73162C142.119 4.6401 142.763 3.63907 143.747 3C144.166 3.56555 144.432 4.20463 144.556 4.87763L143.21 6.03136L144.624 5.31877C144.703 6.07095 144.618 6.84576 144.403 7.56401L142.786 8.44062L144.268 7.97121C143.889 8.97789 143.25 9.84884 142.447 10.3692C141.649 9.30026 141.378 7.72236 141.677 6.24062L143.006 7.21337L142.995 7.21902Z" fill="#E89935"/>
<path d="M143.67 3.39453L142.25 11.4367" stroke="#FEFDFD" stroke-width="0.32" stroke-miterlimit="10" stroke-linecap="round"/>
<path d="M142.252 11.4397C141.664 10.7384 141.489 8.10863 141.54 7.87109C141.794 8.36878 142.162 8.83819 142.642 9.24539C143.236 9.03048 143.745 8.71942 144.152 8.33485C144.119 8.57803 143.044 10.9816 142.252 11.4454V11.4397Z" fill="#FAC66C"/>
<path d="M138.834 8.8531L138.704 6.94719C137.725 6.36467 136.572 6.07058 135.418 6.26853C135.491 6.96981 135.74 7.6202 136.102 8.19706L137.872 8.12919L136.357 8.56467C136.815 9.16981 137.397 9.67881 138.048 10.0634L139.829 9.60529L138.427 10.267C139.388 10.7477 140.446 10.9513 141.396 10.7873C141.254 9.4639 140.378 8.12354 139.156 7.23562L138.845 8.8531H138.834Z" fill="#E52A14"/>
<path d="M135.73 6.50781L142.251 11.4394" stroke="#FEFDFD" stroke-width="0.32" stroke-miterlimit="10" stroke-linecap="round"/>
<path d="M142.249 11.4369C142.198 10.5207 140.546 8.47342 140.343 8.33203C140.495 8.86931 140.546 9.46879 140.467 10.0909C139.885 10.3341 139.302 10.4529 138.742 10.4472C138.934 10.5999 141.355 11.6405 142.249 11.4369Z" fill="#FAC66C"/>
<path d="M140.632 7.22933L138.833 6.59026C138.539 5.48743 138.567 4.30543 139.071 3.24219C139.721 3.50234 140.281 3.9152 140.739 4.41854L140.196 6.10388L141.028 4.76352C141.486 5.36867 141.819 6.06995 142.012 6.79386L141.09 8.38306L142.108 7.21237C142.311 8.26995 142.221 9.3445 141.802 10.2098C140.564 9.71777 139.512 8.50748 138.992 7.08795L140.632 7.22368V7.22933Z" fill="#85C03B"/>
<path d="M139.219 3.67969L142.199 11.2242" stroke="#FEFDFD" stroke-width="0.32" stroke-miterlimit="10" stroke-linecap="round"/>
<path d="M142.198 11.222C141.333 10.9279 139.806 8.77885 139.727 8.54697C140.202 8.84106 140.762 9.05031 141.384 9.1408C141.774 8.64877 142.045 8.11715 142.192 7.57422C142.289 7.80044 142.628 10.4133 142.192 11.2164L142.198 11.222Z" fill="#FAC66C"/>
<path d="M141.437 12.1383C141.234 11.618 141.488 11.0355 142.009 10.8319C142.529 10.6283 143.111 10.8828 143.315 11.4031C143.519 11.9234 143.264 12.5059 142.744 12.7151C142.223 12.9187 141.641 12.6642 141.437 12.1439" fill="#E52A14"/>
</g>
<defs>
<clipPath id="clip0_370_35469">
<rect width="22" height="33.3789" fill="white" transform="translate(135 3)"/>
</clipPath>
</defs>
</svg>
