<svg width="164" height="52" viewBox="0 0 164 52" fill="none" xmlns="http://www.w3.org/2000/svg">
<path d="M38.0436 7.57926C37.2411 8.05485 36.5116 8.57733 35.4027 8.90555C34.498 9.17349 33.4037 9.28066 32.3677 9.40124C26.0525 8.08333 17.3892 9.22093 13.4642 11.8333C9.52467 14.4457 5.4738 18.8659 7.92509 21.8333C-0.596057 24.2381 0.355055 31.1913 2.45616 35.6726C4.55727 40.1606 11.6777 43.9184 20.2864 46.2495C28.8951 48.5872 38.8753 49.6389 48.7972 50.1614C64.1907 50.9719 79.9782 50.5834 94.8464 48.5872C103.601 47.415 112.399 45.5461 117.769 42.1634C118.294 41.8285 118.819 41.4735 119.607 41.2725C120.512 41.0381 121.592 41.0515 122.628 41.0582C136.372 41.1251 150.963 38.1711 156.946 32.4908C160.623 29.0009 160.696 24.9015 158.843 21.1235C157.033 17.4193 153.415 13.8691 147.943 11.0223C140.487 7.14386 129.996 4.73911 119.228 3.21186C107.935 1.60423 96.0429 0.8607 84.2096 1.02146C79.4821 1.08845 76.1407 1.59753 72.0407 2.56881C68.4951 3.41281 64.643 2.93052 60.6305 3.0243C52.2553 3.22526 43.3985 4.41088 38.0582 7.57256" fill="#A3BB00"/>
<path d="M38.2656 7.63121C37.4582 8.11105 36.7242 8.63819 35.6085 8.96934C34.6984 9.23967 33.1392 8.8477 32.097 8.96934C24.0405 7.63121 18.4223 8.78095 14.4734 11.4167C10.5098 14.0524 5.46126 18.8394 7.92748 21.8333C-0.645573 24.2595 0.34746 31.454 2.46136 35.982C4.57527 40.51 11.7391 44.3014 20.4002 46.6533C29.0613 49.0119 39.1024 50.073 49.0847 50.6001C64.572 51.4179 80.4556 51.0259 95.4144 49.0119C104.222 47.8292 113.074 45.9437 118.477 42.5308C119.005 42.1929 119.533 41.8347 120.326 41.6319C121.236 41.3954 122.323 41.4089 123.365 41.4157C137.193 41.4832 151.873 38.5029 157.892 32.7719C161.591 29.2508 161.665 25.1148 159.8 21.3031C157.98 17.5658 154.339 13.984 148.835 11.1117C141.333 7.19869 130.778 4.77248 119.945 3.2316C108.568 1.60962 96.6035 0.859457 84.6981 1.02165C79.9418 1.08924 76.5801 1.60286 72.4551 2.58281C68.8879 3.43435 65.0124 2.94775 60.9754 3.04237C52.5491 3.24512 43.6384 4.44132 38.2656 7.63121Z" fill="#A3BB00" stroke="#E7E7F0" stroke-width="1.31" stroke-miterlimit="10"/>
<path d="M39.7882 8.74658C39.0107 9.18643 38.2089 9.86441 37.1345 10.168C36.258 10.4158 34.6135 10.4731 33.6098 10.5846C25.8514 9.35802 20.679 9.80051 16.8762 12.2166C13.0593 14.6327 8.0716 19.9236 10.4466 22.668C2.1907 24.892 3.27292 30.5841 5.30862 34.7348C7.34431 38.8855 14.2431 42.3609 22.5838 44.5168C30.9245 46.6789 40.594 47.6515 50.207 48.1347C65.1213 48.8843 80.4174 48.525 94.8227 46.6789C103.305 45.5947 111.829 43.8663 117.032 40.7378C117.541 40.4281 118.049 40.0997 118.813 39.9139C119.689 39.6971 120.735 39.7095 121.739 39.7156C135.056 39.7776 149.193 37.0456 154.989 31.7922C158.551 28.5646 158.622 24.7732 156.827 21.2792C155.074 17.8533 151.568 14.5699 146.266 11.937C139.043 8.3501 128.878 6.12607 118.445 4.7136C107.489 3.22679 95.9678 2.53914 84.5029 2.68782C79.9226 2.74977 76.6852 3.22059 72.7128 4.11888C69.2776 4.89945 65.5454 4.45341 61.6578 4.54014C53.5433 4.72599 44.9623 5.82252 39.7882 8.74658Z" fill="#A3BB00" stroke="#E7E7F0" stroke-width="0.5" stroke-miterlimit="10"/>
<path d="M18.708 26.624C19.824 26.624 21.3 26.696 22.92 26.732C22.956 26.3 22.956 25.868 22.956 25.4C22.704 25.328 22.416 25.22 22.164 25.112C19.752 24.14 17.844 22.736 17.844 19.856C17.844 19.028 17.952 18.308 18.204 17.66H18.132C16.98 17.66 16.008 16.796 16.008 15.716C16.008 14.672 16.98 13.808 18.132 13.808H22.884V12.62C22.884 11.72 23.82 10.964 24.972 10.964C26.124 10.964 27.096 11.72 27.096 12.62V13.808H32.064C33.252 13.808 34.224 14.672 34.224 15.716C34.224 16.796 33.252 17.66 32.064 17.66H32.028C32.244 18.308 32.388 19.028 32.388 19.856C32.388 21.872 31.452 23.132 29.796 24.32C29.148 24.788 28.464 25.148 27.744 25.4V25.436C27.708 25.94 27.708 26.372 27.672 26.804C28.824 26.768 28.896 26.696 31.092 26.768C31.992 26.768 32.856 26.696 33.684 27.056C34.296 27.344 34.692 27.884 34.692 28.64C34.692 29.252 34.44 29.828 34.044 30.26C33.36 30.98 32.28 30.944 31.416 30.872H18.708C18.636 30.872 17.124 30.908 16.548 30.08C16.26 29.792 16.116 29.324 16.116 28.82C16.116 28.316 16.296 27.956 16.548 27.632C17.088 27.02 18.096 26.696 18.708 26.624ZM32.532 37.244H19.932V37.208C19.86 37.208 18.42 36.884 18.276 35.876C18.168 34.976 18.276 34.256 18.708 33.716C19.284 33.032 20.148 33.032 20.184 33.032L38.544 32.996C40.524 32.996 41.388 33.752 41.46 35.48V39.224C41.496 39.728 41.496 40.304 41.46 40.808C41.352 41.816 40.596 42.5 39.516 42.5C39.264 42.5 38.508 42.464 38.256 42.392C36.96 41.996 36.888 40.808 36.816 39.728C36.78 39.296 36.78 37.64 36.672 37.28C36.528 37.244 34.296 37.28 32.532 37.244ZM37.032 27.884V17.444C36.996 16.364 37.032 14.6 37.644 13.988C38.184 13.52 38.724 13.448 39.372 13.448C40.164 13.448 40.884 13.952 41.172 14.672C41.568 15.68 41.532 16.76 41.568 17.804C41.568 19.424 41.604 20.828 41.604 22.232C42.576 22.232 43.44 22.268 43.98 22.304C45.24 22.376 46.104 24.284 45.348 25.256C44.7 26.156 43.152 26.336 41.64 26.336V27.488C41.64 28.496 41.46 28.928 41.28 29.468C41.244 29.612 41.172 29.756 41.1 29.936C40.956 30.224 40.74 30.512 40.452 30.692C39.948 31.016 39.3 31.088 38.688 30.98C38.4 30.908 38.076 30.764 37.824 30.548C36.996 29.756 37.032 27.956 37.032 27.884ZM25.764 21.8C27.132 21.548 28.068 21.512 28.068 19.856C28.068 18.308 27.06 17.804 25.872 17.66H24C22.956 17.804 22.128 18.344 22.128 19.856C22.128 22.196 23.964 22.124 25.764 21.8ZM60.4078 14.204C61.9198 15.068 62.9278 16.148 63.5398 17.444C64.1518 18.74 64.3318 20.324 64.2238 22.268C63.9358 26.552 60.8038 29.288 56.7358 29.288C56.0158 29.288 55.4038 29.288 54.8998 29.288C54.4318 29.288 53.9278 29.288 53.4238 29.18C52.9198 29.18 52.4158 28.964 51.9118 28.892C51.4078 28.676 50.9038 28.388 50.2558 27.992C49.1758 27.272 48.3838 26.264 47.9518 25.076C47.5918 23.96 47.3758 22.664 47.3758 21.476C47.3758 20.18 47.5918 18.956 48.0958 17.876C48.4558 16.724 49.3198 15.86 50.2558 15.068C51.1198 14.348 51.9838 13.844 53.0998 13.556C54.0718 13.196 55.2238 13.124 56.2318 13.196C56.7358 13.34 57.0958 13.34 57.4198 13.34C57.8158 13.412 58.1038 13.412 58.3918 13.556C58.7158 13.628 59.0398 13.7 59.3278 13.844C59.6158 13.916 60.0118 14.132 60.4078 14.204ZM72.4318 37.82C73.1158 37.82 73.5478 38.504 73.6918 39.296C73.7638 40.232 73.5478 40.808 73.1878 41.312C72.8638 41.6 72.5398 41.816 72.2518 41.888C72.0358 41.888 71.8558 42.032 71.5318 42.032C70.7398 42.032 69.8758 42.032 68.9398 42.032C67.4278 42.032 65.9518 42.032 64.4398 42.032C62.8198 42.032 61.2358 42.032 59.5078 42.032C58.2118 42.032 56.9158 42.032 55.5838 42.032C55.0078 42.032 54.5038 42.032 53.9278 42.032C52.9198 42.032 52.1998 42.032 51.6238 41.744C51.1198 41.456 50.7598 40.808 50.7598 40.304C50.7598 40.304 50.7598 34.976 50.7598 34.796C50.7598 34.616 50.7598 34.4 50.7598 34.112C50.7598 33.896 50.7598 33.608 50.7598 33.392C50.7598 33.176 50.7598 32.996 50.7598 32.888C50.9038 32.384 51.1198 31.988 51.4798 31.7C51.9838 31.376 52.4158 31.196 52.9918 31.196C53.0998 31.196 53.7838 31.304 53.9278 31.304C54.2158 31.376 54.5038 31.484 54.7198 31.808C54.7918 31.988 55.0078 32.204 55.0798 32.492C55.2238 32.816 55.2238 33.104 55.2958 33.392C55.2958 33.788 55.2958 34.112 55.2958 34.292V34.976V36.128V37.208V37.712C55.4038 37.712 56.0158 37.712 56.0158 37.712C56.0158 37.712 56.8078 37.784 57.7078 37.784C58.5358 37.784 68.4358 37.712 70.5598 37.784C70.8838 37.784 71.1718 37.784 71.4598 37.784C71.5318 37.784 71.8918 37.82 72.4318 37.82ZM59.9038 22.664C59.9038 22.052 59.9038 21.548 59.9038 21.152C59.8318 20.648 59.7238 20.252 59.6158 19.82C59.3998 19.46 59.2198 19.028 58.8958 18.74C58.6078 18.452 58.2118 18.236 57.7078 18.02C57.0958 17.876 56.5198 17.732 55.9078 17.732C55.2238 17.732 54.5758 17.876 54.0718 18.02C53.4958 18.344 52.9918 18.668 52.5958 19.172C52.1278 19.532 51.9118 20.18 51.6958 20.972C51.6958 21.476 51.6958 21.98 51.7678 22.484C51.7678 22.952 51.9838 23.456 52.2718 23.852C52.5958 24.284 52.9918 24.572 53.4238 24.86C53.9278 25.148 54.5038 25.364 55.2958 25.472C55.7998 25.472 56.3038 25.472 56.8078 25.364C57.3118 25.364 57.7078 25.256 58.2118 24.968C58.6078 24.788 59.0398 24.464 59.3278 24.068C59.6158 23.672 59.8318 23.168 59.9038 22.664ZM73.4758 16.436V28.496C73.4758 28.964 73.3678 29.468 73.2598 29.972C73.0438 30.692 72.5398 31.196 71.7478 31.376C70.2358 31.7 69.2278 30.476 69.0478 29.072C68.9398 28.676 68.9398 28.28 68.9398 27.884C68.9398 27.488 68.9398 27.092 68.9398 26.66L69.0478 17.372C69.0478 16.004 68.7598 14.06 70.3798 13.34C70.7398 13.124 71.2438 13.124 71.7478 13.196C72.8638 13.34 73.3678 14.204 73.4758 15.212C73.4758 15.644 73.4758 16.148 73.4758 16.436ZM85.8266 22.088C93.5666 22.376 93.9266 33.104 91.0106 38.288C88.8866 42.032 82.8026 42.248 79.9226 39.152C78.6986 37.82 78.2666 36.38 78.0146 34.616C77.5106 31.088 77.2586 27.992 79.1666 24.788C80.2106 22.988 83.1986 21.98 85.8266 22.088ZM102.603 24.716H102.675C102.891 24.716 103.107 24.788 103.359 24.788C103.611 24.824 103.899 24.86 104.187 24.896C104.727 25.004 105.303 25.22 105.555 25.76C105.735 26.048 105.807 26.372 105.807 26.696C105.807 27.056 105.807 27.38 105.699 27.74C105.627 28.1 105.519 28.604 105.195 28.856C104.907 29.072 104.583 29.252 104.223 29.324C103.467 29.432 102.171 29.324 101.415 29.36C101.343 29.36 101.307 29.396 101.307 29.396C101.307 29.396 101.271 29.396 101.271 29.54C101.235 30.728 101.271 32.528 101.271 33.752C101.307 34.976 101.307 36.236 101.271 37.424V37.928C101.271 39.188 101.271 41.024 100.407 41.888C100.119 42.212 99.7226 42.392 99.2546 42.392C99.2546 42.392 99.2186 42.356 99.1826 42.356C96.8426 42.284 96.5906 39.476 96.5906 37.964V16.58C96.5906 16.508 96.5546 14.708 97.3466 13.916C97.6706 13.592 98.4266 13.412 98.9666 13.412C99.5066 13.412 99.9746 13.628 100.299 13.952C100.947 14.636 100.983 15.392 101.055 16.184C101.091 16.328 101.091 16.472 101.091 16.616C101.199 17.408 101.199 18.308 101.235 19.172C101.235 19.712 101.271 20.18 101.271 20.72C101.235 21.008 101.271 21.26 101.271 21.512V23.852C101.271 24.104 101.271 24.392 101.343 24.644C101.343 24.68 102.063 24.68 102.099 24.68C102.279 24.716 102.423 24.752 102.603 24.716ZM90.8666 16.328C91.8026 16.328 92.9186 16.544 93.4226 17.48C93.7466 18.092 93.6386 19.208 93.1706 19.82C92.2346 21.008 88.6346 20.612 87.9866 20.648C87.6266 20.684 87.2666 20.684 86.8346 20.684H85.6826C85.3226 20.648 84.9626 20.648 84.5666 20.648L80.3186 20.576C77.8706 20.576 76.9346 19.964 76.7546 18.632C76.6466 17.912 76.8626 17.336 77.2946 16.94C77.9426 16.364 78.3026 16.292 79.0226 16.292C79.2026 16.292 79.4186 16.328 79.5986 16.328H80.4986C81.1826 16.328 82.1906 16.292 82.8746 16.256C82.9106 15.896 82.9466 14.672 82.9826 14.348C83.0186 13.952 83.1626 13.556 83.3786 13.232C83.8466 12.584 84.5306 12.224 85.2506 12.26C85.9346 12.332 86.6546 12.368 87.0866 12.944C87.6266 13.7 87.4106 15.248 87.5186 16.292H88.5626C88.9586 16.292 89.8586 16.328 90.2186 16.328H90.8666ZM85.6826 37.316C87.8426 36.992 88.6706 34.292 88.6346 32.348C88.5986 30.692 88.5266 28.064 87.0506 27.056C85.7546 26.192 83.0546 26.588 82.3706 28.1C81.4706 30.044 81.5426 32.024 81.9746 34.076C82.1906 35.12 82.5866 36.416 83.4866 37.028C83.8826 37.28 85.2866 37.388 85.6826 37.316ZM133.241 39.548C133.169 40.124 133.133 40.664 132.953 41.24C132.881 41.42 132.809 41.564 132.737 41.744C132.593 42.032 132.377 42.32 132.089 42.536C131.549 42.86 130.865 42.932 130.253 42.788C129.893 42.716 129.569 42.572 129.317 42.356C128.453 41.564 128.489 39.692 128.489 39.62V17.372C128.453 16.256 128.489 14.456 129.173 13.808C129.677 13.304 130.289 13.232 130.937 13.232C131.765 13.232 132.521 13.736 132.809 14.528C133.241 15.536 133.205 16.652 133.241 17.768V17.948C133.349 21.62 133.241 25.688 133.241 29.144V38.252C133.241 38.684 133.277 39.116 133.241 39.548ZM116.249 36.02C116.213 35.444 116.213 34.868 116.213 34.292V22.844C116.213 22.088 116.213 21.296 116.141 20.504C116.105 20.252 116.069 19.712 115.817 19.604C115.565 19.46 115.241 19.532 114.953 19.496C114.629 19.46 114.305 19.532 113.981 19.496H112.289C111.497 19.532 110.633 19.46 109.841 19.496C109.481 19.532 109.157 19.496 108.797 19.496C108.257 19.496 107.645 19.496 107.177 19.172C106.493 18.704 106.313 17.912 106.313 17.156C106.277 16.688 106.385 16.22 106.601 15.788C106.709 15.536 106.853 15.32 107.069 15.176C107.321 14.924 107.861 14.744 108.185 14.672C109.193 14.42 110.345 14.456 111.389 14.456H117.653C118.265 14.528 119.021 14.6 119.597 14.816C119.957 14.96 120.389 15.212 120.605 15.536C121.037 16.22 121.037 16.868 121.109 17.66C121.217 18.992 121.181 20.324 121.181 21.656V33.464C121.181 33.572 121.253 36.56 121.181 38.072C121.109 39.044 120.893 40.232 119.633 40.7C119.201 40.88 118.769 40.952 118.409 40.952C117.797 40.952 117.077 40.7 116.825 40.16C116.465 39.44 116.249 38.54 116.249 37.604V36.02Z" fill="white"/>
<g clip-path="url(#clip0_370_35772)">
<path d="M160.156 21.3159L157.246 29.1733L157.211 29.267L157.114 29.3491C156.397 29.9526 154.594 31.4702 153.898 32.0561C153.515 32.3725 153.139 32.7006 152.742 33.0053L152.658 33.0463L138.429 39.2514C137.928 39.4682 137.315 39.3042 137.057 38.8823C136.786 38.4487 137.009 37.9096 137.538 37.7104L152.102 32.0913L151.941 32.185C152.296 31.8862 152.679 31.6049 153.048 31.3178C153.765 30.767 155.673 29.3081 156.411 28.7397L156.278 28.9155L159.53 21.1518C159.669 20.8296 160.267 20.976 160.149 21.3217" fill="#68381B"/>
<path d="M152.411 17.1234C152.25 18.7172 151.422 26.1527 151.29 27.5824C151.164 28.9184 150.816 32.4867 150.684 33.8637C150.635 34.3383 150.148 34.6898 149.584 34.6488C148.992 34.6078 148.561 34.1449 148.658 33.6527C148.93 32.2699 149.605 28.7719 149.863 27.4301C150.134 26.0531 151.471 18.5824 151.756 17.0531C151.826 16.7133 152.431 16.766 152.404 17.1176" fill="#68381B"/>
<path d="M148.502 19.2715C148.502 20.0273 147.778 20.6367 146.88 20.6367C145.982 20.6367 145.258 20.0273 145.258 19.2715C145.258 18.5156 145.982 17.9062 146.88 17.9062C147.778 17.9062 148.502 18.5156 148.502 19.2715Z" fill="#F5A226"/>
<path d="M163.999 29.7852C163.999 28.6777 162.934 27.7813 161.618 27.7813C161.583 27.7813 161.549 27.7813 161.514 27.7813C161.361 26.7969 160.365 26.0352 159.154 26.0352C157.943 26.0352 156.947 26.7969 156.794 27.7813C156.759 27.7813 156.724 27.7813 156.689 27.7813C155.374 27.7813 154.309 28.6777 154.309 29.7852C154.309 30.6641 154.984 31.4082 155.917 31.6777C155.875 31.8125 155.847 31.9531 155.847 32.0996C155.847 33.002 156.717 33.7344 157.789 33.7344C158.318 33.7344 158.799 33.5527 159.154 33.2656C159.502 33.5586 159.982 33.7344 160.518 33.7344C161.59 33.7344 162.461 33.002 162.461 32.0996C162.461 31.9531 162.433 31.8125 162.391 31.6777C163.324 31.4082 163.999 30.6641 163.999 29.7852Z" fill="#F5A226"/>
<path d="M160.463 29.1888C160.63 29.1068 160.846 29.1536 160.936 29.2943C161.027 29.4349 160.978 29.6165 160.811 29.6927C160.672 29.7572 160.504 29.7396 160.393 29.6458C160.289 29.7044 160.184 29.7513 160.073 29.804C159.864 29.8978 159.655 29.9798 159.432 30.0501C159.418 30.0501 159.398 30.0501 159.391 30.0326C159.391 30.0208 159.391 30.0091 159.398 30.0033C159.579 29.8743 159.774 29.763 159.975 29.6634C160.08 29.6107 160.184 29.5579 160.296 29.5111C160.261 29.388 160.317 29.2533 160.456 29.1829" fill="#F7F5E8"/>
<path d="M159.251 31.0137C159.251 31.1191 159.251 31.2187 159.251 31.3242C159.397 31.3594 159.509 31.4707 159.509 31.6055C159.509 31.7695 159.349 31.8984 159.161 31.8984C158.973 31.8984 158.812 31.7695 158.812 31.6055C158.812 31.4707 158.917 31.3594 159.07 31.3242C159.063 31.2187 159.07 31.1191 159.07 31.0137C159.077 30.8145 159.098 30.6211 159.133 30.4219C159.133 30.4043 159.154 30.3984 159.168 30.3984C159.181 30.3984 159.188 30.4102 159.195 30.4219C159.237 30.6211 159.251 30.8145 159.258 31.0137" fill="#F7F5E8"/>
<path d="M157.506 30.625C157.645 30.5605 157.812 30.5781 157.924 30.6719C158.028 30.6133 158.133 30.5664 158.244 30.5137C158.453 30.4199 158.662 30.332 158.885 30.2617C158.898 30.2617 158.919 30.2617 158.926 30.2793C158.926 30.291 158.926 30.3027 158.919 30.3086C158.738 30.4375 158.543 30.5488 158.342 30.6484C158.237 30.7012 158.133 30.7539 158.021 30.8008C158.056 30.9238 158 31.0586 157.861 31.1289C157.694 31.2109 157.478 31.1641 157.388 31.0234C157.29 30.8828 157.346 30.7012 157.513 30.6191" fill="#F7F5E8"/>
<path d="M160.295 30.8071C160.184 30.7602 160.079 30.7075 159.975 30.6548C159.773 30.5493 159.578 30.438 159.397 30.3091C159.383 30.2973 159.383 30.2856 159.397 30.2739C159.404 30.2681 159.418 30.2622 159.432 30.2681C159.655 30.3384 159.864 30.4263 160.072 30.5141C160.184 30.5669 160.288 30.6138 160.393 30.6723C160.504 30.5845 160.671 30.561 160.81 30.6255C160.977 30.7075 161.033 30.8891 160.936 31.0298C160.838 31.1704 160.622 31.2173 160.462 31.1352C160.323 31.0708 160.26 30.9302 160.302 30.8071" fill="#F7F5E8"/>
<path d="M159.504 28.7266C159.504 28.8613 159.393 28.9727 159.246 29.0078C159.253 29.1133 159.246 29.2129 159.246 29.3184C159.246 29.5176 159.218 29.7109 159.184 29.9102C159.184 29.9219 159.163 29.9336 159.149 29.9336C159.135 29.9336 159.128 29.9219 159.121 29.9102C159.079 29.7109 159.065 29.5176 159.058 29.3184C159.058 29.2129 159.058 29.1133 159.058 29.0078C158.912 28.9727 158.801 28.8613 158.801 28.7266C158.801 28.5625 158.961 28.4336 159.149 28.4336C159.337 28.4336 159.497 28.5625 159.497 28.7266" fill="#F7F5E8"/>
<path d="M158.911 30.0169C158.911 30.0169 158.925 30.0404 158.911 30.0521C158.904 30.0638 158.89 30.0638 158.876 30.0579C158.653 29.9876 158.444 29.8997 158.235 29.8118C158.131 29.7591 158.02 29.7122 157.915 29.6536C157.804 29.7415 157.637 29.765 157.497 29.7005C157.33 29.6185 157.275 29.4427 157.372 29.3021C157.47 29.1615 157.685 29.1146 157.846 29.1966C157.985 29.2611 158.047 29.3958 158.006 29.5247C158.117 29.5716 158.221 29.6243 158.326 29.6771C158.528 29.7826 158.723 29.8939 158.904 30.0169" fill="#F7F5E8"/>
<path d="M153.592 33.7695C153.592 32.457 152.332 31.3965 150.772 31.3965C150.73 31.3965 150.696 31.3965 150.654 31.3965C150.473 30.2305 149.296 29.3281 147.862 29.3281C146.428 29.3281 145.245 30.2305 145.071 31.3965C145.029 31.3965 144.994 31.3965 144.952 31.3965C143.393 31.3965 142.133 32.457 142.133 33.7695C142.133 34.8125 142.926 35.6914 144.033 36.0137C143.985 36.1719 143.95 36.3418 143.95 36.5117C143.95 37.5781 144.98 38.4453 146.247 38.4453C146.874 38.4453 147.445 38.2344 147.862 37.8887C148.28 38.2344 148.844 38.4453 149.477 38.4453C150.744 38.4453 151.775 37.5781 151.775 36.5117C151.775 36.3359 151.747 36.1719 151.691 36.0137C152.798 35.6914 153.592 34.8125 153.592 33.7695Z" fill="#F5A226"/>
<path d="M149.4 33.0616C149.595 32.9679 149.852 33.0206 149.964 33.1905C150.075 33.3546 150.012 33.5714 149.811 33.6651C149.643 33.7472 149.442 33.7179 149.316 33.6124C149.198 33.6769 149.066 33.7355 148.94 33.7999C148.697 33.9112 148.446 34.0109 148.182 34.0929C148.161 34.0987 148.14 34.0929 148.133 34.0753C148.133 34.0636 148.133 34.046 148.147 34.0402C148.363 33.8878 148.592 33.7589 148.829 33.6359C148.954 33.5714 149.08 33.5069 149.205 33.4542C149.163 33.3077 149.233 33.1495 149.4 33.0675" fill="#F7F5E8"/>
<path d="M147.975 35.2144C147.975 35.3375 147.975 35.4605 147.975 35.5836C148.149 35.6246 148.275 35.7593 148.275 35.9175C148.275 36.1109 148.087 36.2632 147.864 36.2632C147.641 36.2632 147.453 36.105 147.453 35.9175C147.453 35.7593 147.578 35.6246 147.752 35.5836C147.746 35.4605 147.752 35.3375 147.752 35.2144C147.759 34.98 147.78 34.7457 147.829 34.5171C147.829 34.4996 147.85 34.4879 147.871 34.4937C147.885 34.4937 147.899 34.5054 147.899 34.5171C147.947 34.7515 147.968 34.9859 147.975 35.2144Z" fill="#F7F5E8"/>
<path d="M145.899 34.762C146.066 34.6799 146.261 34.7092 146.393 34.8147C146.512 34.7502 146.644 34.6917 146.769 34.6272C147.013 34.5159 147.264 34.4163 147.528 34.3342C147.549 34.3284 147.57 34.3342 147.577 34.3518C147.577 34.3635 147.577 34.3811 147.563 34.387C147.347 34.5393 147.118 34.6682 146.881 34.7913C146.756 34.8557 146.63 34.9202 146.505 34.9729C146.547 35.1194 146.477 35.2776 146.31 35.3596C146.115 35.4534 145.857 35.4006 145.746 35.2307C145.635 35.0608 145.697 34.8499 145.899 34.7561" fill="#F7F5E8"/>
<path d="M149.212 34.9805C149.08 34.9277 148.954 34.8633 148.836 34.7988C148.599 34.6758 148.37 34.541 148.154 34.3945C148.14 34.3828 148.133 34.3652 148.154 34.3477C148.168 34.3359 148.182 34.3359 148.196 34.3359C148.46 34.418 148.711 34.5176 148.954 34.6289C149.08 34.6875 149.212 34.7461 149.33 34.8164C149.463 34.7109 149.658 34.6816 149.825 34.7637C150.02 34.8574 150.089 35.0742 149.978 35.2383C149.866 35.4023 149.609 35.4609 149.414 35.3672C149.247 35.2852 149.177 35.127 149.219 34.9805" fill="#F7F5E8"/>
<path d="M148.275 32.5098C148.275 32.668 148.149 32.8027 147.975 32.8437C147.982 32.9668 147.975 33.0898 147.975 33.2129C147.968 33.4473 147.947 33.6816 147.899 33.916C147.899 33.9336 147.878 33.9453 147.857 33.9395C147.843 33.9395 147.829 33.9277 147.829 33.916C147.78 33.6816 147.759 33.4473 147.752 33.2129C147.752 33.0898 147.746 32.9668 147.752 32.8437C147.578 32.8027 147.453 32.668 147.453 32.5098C147.453 32.3164 147.641 32.1641 147.864 32.1641C148.087 32.1641 148.275 32.3223 148.275 32.5098Z" fill="#F7F5E8"/>
<path d="M147.572 34.0369C147.572 34.0369 147.593 34.0662 147.572 34.0838C147.558 34.0955 147.545 34.0955 147.531 34.0955C147.266 34.0135 147.015 33.9139 146.772 33.8026C146.647 33.744 146.514 33.6854 146.396 33.6151C146.271 33.7205 146.069 33.7498 145.902 33.6678C145.707 33.574 145.637 33.3572 145.748 33.1932C145.86 33.0291 146.117 32.9705 146.312 33.0643C146.479 33.1463 146.549 33.3045 146.507 33.451C146.64 33.5037 146.758 33.5682 146.883 33.6326C147.12 33.7557 147.35 33.8904 147.565 34.0369" fill="#F7F5E8"/>
<path d="M141.222 30.6309C141.222 29.6934 140.317 28.9316 139.204 28.9316C139.176 28.9316 139.148 28.9316 139.12 28.9316C138.995 28.0937 138.145 27.4492 137.115 27.4492C136.085 27.4492 135.242 28.0937 135.11 28.9316C135.082 28.9316 135.055 28.9316 135.027 28.9316C133.913 28.9316 133.008 29.6934 133.008 30.6309C133.008 31.375 133.579 32.0078 134.372 32.2363C134.337 32.3535 134.317 32.4707 134.317 32.5937C134.317 33.3613 135.055 33.9824 135.966 33.9824C136.419 33.9824 136.823 33.8301 137.122 33.584C137.421 33.8301 137.825 33.9824 138.278 33.9824C139.19 33.9824 139.928 33.3613 139.928 32.5937C139.928 32.4707 139.907 32.3477 139.872 32.2363C140.666 32.0078 141.236 31.375 141.236 30.6309" fill="#F5A226"/>
<path d="M138.221 30.128C138.36 30.0577 138.541 30.0987 138.624 30.2218C138.708 30.3448 138.659 30.4913 138.513 30.5616C138.395 30.6202 138.248 30.5968 138.158 30.5206C138.074 30.5675 137.977 30.6085 137.886 30.6554C137.712 30.7374 137.531 30.8077 137.343 30.8663C137.329 30.8663 137.316 30.8663 137.309 30.8546C137.309 30.8429 137.309 30.837 137.316 30.8312C137.469 30.7257 137.636 30.6261 137.803 30.5382C137.893 30.4913 137.984 30.4444 138.074 30.4093C138.04 30.3038 138.095 30.1866 138.214 30.1339" fill="#F7F5E8"/>
<path d="M137.191 31.6676C137.191 31.7555 137.191 31.8434 137.191 31.9312C137.317 31.9605 137.407 32.0543 137.407 32.1715C137.407 32.3062 137.275 32.4234 137.108 32.4234C136.941 32.4234 136.809 32.3121 136.809 32.1715C136.809 32.0543 136.899 31.9605 137.024 31.9312C137.017 31.8434 137.024 31.7555 137.024 31.6676C137.024 31.4977 137.045 31.3336 137.08 31.1637C137.08 31.1519 137.094 31.1402 137.108 31.1461C137.122 31.1461 137.129 31.1578 137.129 31.1637C137.164 31.3336 137.178 31.4977 137.185 31.6676" fill="#F7F5E8"/>
<path d="M135.708 31.3438C135.826 31.2852 135.972 31.3086 136.063 31.3848C136.146 31.3379 136.244 31.2969 136.334 31.25C136.508 31.168 136.689 31.0977 136.877 31.0391C136.891 31.0391 136.905 31.0391 136.912 31.0508C136.912 31.0625 136.912 31.0684 136.905 31.0742C136.752 31.1797 136.585 31.2793 136.418 31.3672C136.327 31.4141 136.244 31.4609 136.146 31.4961C136.181 31.6016 136.125 31.7187 136.007 31.7715C135.868 31.8418 135.687 31.8008 135.603 31.6777C135.52 31.5605 135.568 31.4082 135.715 31.3379" fill="#F7F5E8"/>
<path d="M138.082 31.4985C137.991 31.4575 137.901 31.4106 137.81 31.3696C137.643 31.2817 137.476 31.188 137.323 31.0766C137.309 31.0708 137.309 31.0532 137.323 31.0473C137.33 31.0415 137.344 31.0356 137.351 31.0415C137.539 31.1001 137.72 31.1704 137.894 31.2524C137.984 31.2934 138.075 31.3345 138.165 31.3872C138.256 31.311 138.402 31.2934 138.52 31.3462C138.66 31.4165 138.708 31.5688 138.632 31.686C138.548 31.8032 138.367 31.8442 138.228 31.7798C138.11 31.7212 138.061 31.6098 138.089 31.5044" fill="#F7F5E8"/>
<path d="M137.408 29.7285C137.408 29.8457 137.318 29.9395 137.192 29.9688C137.192 30.0566 137.192 30.1445 137.192 30.2324C137.192 30.4023 137.171 30.5664 137.137 30.7363C137.137 30.748 137.123 30.7598 137.109 30.7539C137.095 30.7539 137.088 30.7422 137.088 30.7363C137.053 30.5664 137.039 30.4023 137.032 30.2324C137.032 30.1445 137.032 30.0566 137.032 29.9688C136.907 29.9395 136.816 29.8457 136.816 29.7285C136.816 29.5938 136.949 29.4766 137.109 29.4766C137.269 29.4766 137.408 29.5879 137.408 29.7285Z" fill="#F7F5E8"/>
<path d="M136.9 30.8234C136.9 30.8234 136.914 30.8468 136.9 30.8527C136.9 30.8586 136.879 30.8644 136.872 30.8586C136.684 30.8 136.503 30.7238 136.329 30.6476C136.238 30.6066 136.148 30.5656 136.057 30.5129C135.967 30.589 135.821 30.6066 135.702 30.5539C135.563 30.4836 135.514 30.3312 135.591 30.214C135.674 30.0968 135.855 30.0558 135.995 30.1203C136.113 30.1789 136.162 30.2902 136.134 30.3957C136.224 30.4367 136.315 30.4836 136.405 30.5246C136.572 30.6125 136.74 30.7062 136.893 30.8175" fill="#F7F5E8"/>
<path d="M156.496 22.9473C156.496 22.0098 155.591 21.248 154.477 21.248C154.449 21.248 154.421 21.248 154.394 21.248C154.268 20.4102 153.419 19.7656 152.389 19.7656C151.358 19.7656 150.516 20.4102 150.384 21.248C150.356 21.248 150.328 21.248 150.3 21.248C149.186 21.248 148.281 22.0098 148.281 22.9473C148.281 23.6914 148.852 24.3242 149.646 24.5527C149.611 24.6699 149.59 24.7871 149.59 24.9102C149.59 25.6777 150.328 26.2988 151.24 26.2988C151.692 26.2988 152.096 26.1465 152.396 25.9004C152.695 26.1465 153.099 26.2988 153.551 26.2988C154.463 26.2988 155.201 25.6777 155.201 24.9102C155.201 24.7871 155.18 24.6641 155.145 24.5527C155.939 24.3242 156.51 23.6914 156.51 22.9473" fill="#F5A226"/>
<path d="M153.486 22.4405C153.625 22.3702 153.806 22.4112 153.89 22.5343C153.973 22.6515 153.925 22.8038 153.779 22.8741C153.66 22.9327 153.514 22.9093 153.424 22.8331C153.34 22.88 153.243 22.921 153.152 22.9679C152.978 23.0499 152.797 23.1202 152.609 23.1788C152.595 23.1788 152.581 23.1788 152.574 23.1671C152.574 23.1554 152.574 23.1495 152.581 23.1437C152.734 23.0382 152.901 22.9386 153.068 22.8507C153.159 22.8038 153.249 22.7569 153.34 22.7218C153.305 22.6163 153.361 22.4991 153.479 22.4464" fill="#F7F5E8"/>
<path d="M152.466 23.9879C152.466 24.0758 152.466 24.1637 152.466 24.2516C152.591 24.2809 152.682 24.3746 152.682 24.4918C152.682 24.6266 152.549 24.7379 152.389 24.7379C152.229 24.7379 152.09 24.6266 152.09 24.4918C152.09 24.3746 152.18 24.2809 152.306 24.2516C152.299 24.1637 152.306 24.0758 152.306 23.9879C152.306 23.818 152.327 23.6539 152.361 23.484C152.361 23.4723 152.375 23.4605 152.389 23.4664C152.403 23.4664 152.41 23.4781 152.41 23.484C152.445 23.6539 152.459 23.818 152.466 23.9879Z" fill="#F7F5E8"/>
<path d="M150.973 23.6641C151.092 23.6055 151.238 23.6289 151.328 23.7051C151.412 23.6582 151.509 23.6172 151.6 23.5703C151.774 23.4883 151.955 23.418 152.143 23.3594C152.157 23.3594 152.171 23.3594 152.178 23.3711C152.178 23.3828 152.178 23.3887 152.171 23.3945C152.018 23.5 151.85 23.5996 151.683 23.6875C151.593 23.7344 151.509 23.7812 151.412 23.8164C151.447 23.9219 151.391 24.0391 151.273 24.0918C151.133 24.1621 150.952 24.1211 150.869 23.998C150.785 23.8809 150.834 23.7285 150.98 23.6582" fill="#F7F5E8"/>
<path d="M153.347 23.8149C153.257 23.7739 153.166 23.727 153.076 23.686C152.909 23.5981 152.742 23.5044 152.589 23.3931C152.575 23.3872 152.575 23.3696 152.589 23.3638C152.596 23.3579 152.609 23.352 152.616 23.3579C152.804 23.4165 152.985 23.4868 153.159 23.5688C153.25 23.6098 153.34 23.6509 153.431 23.7036C153.521 23.6274 153.668 23.6098 153.786 23.6626C153.925 23.7329 153.974 23.8852 153.897 24.0024C153.814 24.1196 153.633 24.1606 153.494 24.0903C153.375 24.0317 153.326 23.9204 153.354 23.8149" fill="#F7F5E8"/>
<path d="M152.682 22.0469C152.682 22.1641 152.591 22.2578 152.466 22.2871C152.466 22.375 152.466 22.4629 152.466 22.5508C152.466 22.7207 152.445 22.8848 152.41 23.0547C152.41 23.0664 152.396 23.0723 152.382 23.0723C152.368 23.0723 152.361 23.0605 152.361 23.0547C152.327 22.8848 152.313 22.7207 152.306 22.5508C152.306 22.4629 152.306 22.375 152.306 22.2871C152.18 22.2578 152.09 22.1641 152.09 22.0469C152.09 21.9121 152.222 21.8008 152.382 21.8008C152.542 21.8008 152.682 21.9121 152.682 22.0469Z" fill="#F7F5E8"/>
<path d="M152.171 23.1437C152.171 23.1437 152.185 23.1672 152.171 23.173C152.171 23.1789 152.15 23.1847 152.143 23.1789C151.955 23.1203 151.774 23.0441 151.6 22.9679C151.51 22.9269 151.419 22.8859 151.329 22.8332C151.238 22.9093 151.092 22.9269 150.974 22.8742C150.834 22.8039 150.786 22.6515 150.869 22.5343C150.953 22.4172 151.134 22.3761 151.273 22.4406C151.391 22.4992 151.44 22.6105 151.412 22.716C151.503 22.757 151.593 22.8039 151.684 22.8449C151.851 22.9328 152.018 23.0265 152.171 23.1379" fill="#F7F5E8"/>
<path d="M144.375 28.345C144.083 29.0599 143.157 29.4349 142.315 29.1888C141.465 28.9427 141.02 28.1634 141.312 27.4544C141.605 26.7395 142.531 26.3645 143.38 26.6106C144.222 26.8567 144.675 27.636 144.382 28.345" fill="#F5A226"/>
<path d="M163.504 24.2513C163.212 24.9661 162.286 25.3411 161.444 25.095C160.594 24.8489 160.149 24.0696 160.441 23.3606C160.734 22.6458 161.66 22.2708 162.509 22.5169C163.351 22.763 163.804 23.5423 163.511 24.2513" fill="#F5A226"/>
</g>
<defs>
<clipPath id="clip0_370_35772">
<rect width="31" height="22.5" fill="white" transform="translate(133 16.832)"/>
</clipPath>
</defs>
</svg>
