<svg width="764" height="49" viewBox="0 0 764 49" fill="none" xmlns="http://www.w3.org/2000/svg">
<rect width="351" height="49" rx="8" fill="#E4F2E6"/>
<path d="M13.5347 19.3784C14.3019 19 15.4038 18.3832 16.1943 17.9904C16.474 17.8177 16.7686 17.6676 17.0865 17.5031C15.806 17.8494 14.4789 18.2244 13.2134 18.5932C11.8332 18.9375 11.4911 16.9278 12.9203 16.807C14.0718 16.7624 15.2615 16.726 16.4364 16.667C15.2888 16.5188 14.1031 16.3624 12.9471 16.2511C11.5323 16.0457 12.0491 14.0451 13.4049 14.509C14.5465 14.9465 15.7114 15.3695 16.8763 15.7926C16.664 15.6698 16.4751 15.5327 16.2628 15.4099C15.5051 14.9575 14.4523 14.3066 13.6861 13.8912C12.4975 13.1338 13.8037 11.5342 14.8506 12.4743C15.7001 13.3142 16.6026 14.1848 17.5051 15.0554C16.8357 14.0409 16.1047 13.0327 15.4035 12.0695C14.6448 10.9198 16.5204 9.98404 17.0545 11.2407C17.3525 12.0403 17.774 13.1762 18.0953 13.9614C18.1612 14.111 18.2272 14.2607 18.2698 14.4247C18.0626 13.3153 17.8404 12.1833 17.6099 11.0882C17.4002 9.7265 19.5123 9.59658 19.4611 10.9607C19.3902 11.7977 19.3346 13.0059 19.2785 13.8655C19.2641 14.1916 19.2498 14.5178 19.2354 14.844C19.3261 14.5341 19.4169 14.2243 19.531 13.9C19.7779 13.0813 20.1008 11.9301 20.3329 11.0888C20.751 9.78369 22.699 10.5483 22.0602 11.7676C21.1779 13.2641 20.3021 14.82 19.4495 16.3616C21.4599 17.8174 23.2903 19.4478 24.9193 21.1708C24.4492 20.1601 23.9875 19.1125 23.509 18.1388C22.9601 16.8596 24.9824 16.2457 25.2918 17.6094C25.4842 18.6963 25.7063 19.8282 25.9518 20.9458C25.9473 20.79 25.9513 20.5971 25.9468 20.4412C25.9414 19.5879 25.9355 18.3859 25.8919 17.5245C25.9048 16.1522 28.0174 16.371 27.7521 17.7087C27.4505 18.9419 27.1554 20.2346 26.8836 21.5128C27.4673 20.3593 28.0446 19.1463 28.5901 17.9846C29.2289 16.7653 31.0246 17.846 30.1736 18.9425C29.0027 20.2999 27.8298 21.7536 26.7119 23.1417C28.4262 25.1928 29.8713 27.2831 31.0723 29.302C31.0529 29.1236 31.0103 28.9596 30.991 28.7811C30.8392 27.9547 30.634 26.7488 30.4823 25.9224C30.2725 24.5606 32.3995 24.4533 32.3633 25.8399C32.2715 26.9436 32.1713 28.0842 32.1092 29.233C32.4004 28.1332 32.6766 27.0108 32.9445 25.9253C33.3244 24.6121 35.304 25.3254 34.6801 26.5672C34.2507 27.3082 33.6838 28.3879 33.2925 29.1371L32.8293 30.0259C33.0495 29.763 33.2845 29.5227 33.4814 29.2743C34.0552 28.6028 34.8641 27.691 35.4146 27.0339C36.3484 26.0132 37.8138 27.4882 36.6761 28.3491C35.2057 29.352 33.7333 30.4514 32.3075 31.5219C33.7406 34.1907 34.6728 36.5977 35.1905 38.2769C35.2545 38.523 35.1573 38.7734 34.9708 38.8885C34.9242 38.9173 34.8776 38.946 34.831 38.9748C34.5299 39.0655 34.2264 38.9038 34.1327 38.6127C33.6448 36.9785 32.7488 34.6761 31.3603 32.0749C29.6008 32.59 27.7713 33.1482 26.0416 33.7084C24.6763 34.0753 24.2727 32.0718 25.6871 31.9284C27.0082 31.8426 28.3526 31.7424 29.697 31.6422C28.3586 31.4532 27.0052 31.2416 25.7198 31.0833C24.3134 30.841 24.8833 28.8711 26.2158 29.3494C27.281 29.7705 28.3844 30.1998 29.4878 30.6292C28.5029 30.0315 27.4799 29.4257 26.4866 28.8649C25.2979 28.1075 26.6042 26.5079 27.651 27.4481C28.2521 28.0606 29.1397 28.9086 29.7641 29.5068C29.8766 29.6277 29.9976 29.7116 30.1102 29.8325C28.9687 27.9038 27.545 25.8954 25.9284 23.9427C25.2291 24.3744 24.5299 24.806 23.839 25.2008C23.0932 25.6612 22.0443 26.3087 21.2984 26.7691C20.0948 27.4804 19.1358 25.6294 20.4882 25.1436C21.7389 24.7522 23.0213 24.3095 24.3038 23.8669C22.9509 24.004 21.598 24.1411 20.2983 24.309C18.869 24.4298 18.8959 22.3826 20.3127 22.4916C21.1845 22.6197 22.4169 22.7473 23.2887 22.8754C23.4647 22.8936 23.6408 22.9119 23.8168 22.9301C22.6966 22.5746 21.5679 22.2561 20.4541 21.9601C19.1131 21.5188 19.9419 19.6429 21.194 20.2977C21.9369 20.7275 23.0363 21.3496 23.7792 21.7794C23.9383 21.8715 24.1208 21.9492 24.2949 22.0639C22.6808 20.3634 20.8886 18.7412 18.9164 17.2935C17.5268 18.4686 16.0822 19.7094 14.7456 20.9152C13.661 21.8069 12.4372 20.1511 13.6557 19.4623" fill="#F3C574"/>
<path d="M37.2467 18.5741C38.4512 18.5602 39.6325 18.5607 40.852 18.5694C39.6618 18.2571 38.4632 17.9818 37.2943 17.7515C36.0109 17.4968 36.5575 15.5412 37.7585 16.0689C38.6859 16.48 39.6514 16.8992 40.5852 17.3698C39.7466 16.7453 38.8848 16.1351 38.0145 15.5619C36.8873 14.7983 38.0939 13.1967 39.0708 14.1801C39.8588 15.0262 40.6701 15.8579 41.4347 16.7185C40.8417 15.7203 40.2337 14.6996 39.5707 13.7446C38.7971 12.5723 40.5581 11.6121 41.1135 12.9508C41.5583 14.0722 41.9649 15.1855 42.3715 16.2988C42.196 15.138 42.0056 13.9547 41.7537 12.7777C41.4761 11.3627 43.5247 11.3354 43.5182 12.7672C43.4879 13.8646 43.4576 14.962 43.3891 16.0513C43.6485 15.0028 43.8846 13.9687 44.0677 12.9039C44.3648 11.5148 46.3171 12.4353 45.7845 13.716C45.2474 14.8408 44.7251 15.9881 44.135 17.0821C44.9438 16.1703 45.7294 15.2729 46.4936 14.2935C47.3511 13.2565 48.8085 15.1172 47.7492 15.898C46.3105 16.8496 44.8867 17.8237 43.4481 18.7753C44.4056 21.0714 45.3423 23.6342 46.0945 26.2157C46.1183 25.0588 46.104 23.8937 46.0515 22.7205C46.0198 21.2806 48.0242 21.5344 47.81 22.9992C47.6036 24.0784 47.4122 25.1802 47.1676 26.2513C47.5947 25.2579 47.9835 24.2564 48.3426 23.2098C48.8455 21.8841 50.654 23.0838 49.9007 24.2785C49.1811 25.3256 48.4997 26.3808 47.7503 27.3828C48.6866 26.6144 49.608 25.8235 50.523 24.9731C50.8831 24.6239 51.4643 24.7093 51.7851 25.1458C52.1655 25.6725 52.0182 26.4932 51.5222 26.7359C49.9581 27.4476 48.4004 28.2188 46.8511 28.9531C46.8045 28.9819 47.7927 33.5118 47.9038 34.0778C47.9509 34.3977 48.0744 34.7339 48.0367 35.0745C48.0009 35.3186 47.8804 35.5834 47.573 35.6146C47.1425 35.6582 46.9531 35.1723 46.9293 34.838C46.7344 33.4988 45.895 29.1944 45.8335 29.2006C44.0988 29.2562 42.3706 29.3712 40.6339 29.5232C39.3212 29.5721 39.3694 27.607 40.6548 27.7653C41.832 27.9586 43.0178 28.115 44.2184 28.294C43.1085 27.8052 41.9521 27.3452 40.8403 26.9528C39.6223 26.499 40.4659 24.6456 41.5867 25.3498C42.4421 25.9005 43.3124 26.4737 44.1743 27.0838C43.4458 26.3279 42.694 25.5863 41.9254 24.9186C40.94 23.9722 42.3802 22.5755 43.2004 23.719C43.8252 24.6659 44.5115 25.6065 45.1279 26.5903C44.3757 24.0088 43.4539 21.4685 42.4964 19.1724C40.8023 19.4884 39.0999 19.8414 37.4271 20.2395C36.1487 20.4893 35.8661 18.5697 37.1787 18.5209" fill="#F3C574"/>
<path d="M63.04 21.28C62.96 21.28 62.92 21.24 62.92 21.2C62.4 20.8 62.24 19.8 62.24 19.2C62.2 18.24 62.08 17.28 62.08 16.36C62.08 15 62.04 13.36 62.28 12.04C62.44 11.2 62.76 10.72 63.56 10.4C64.28 10.12 65.04 10.04 65.8 9.96C66.72 9.88 67.68 9.96 68.64 9.96H76.24C78.96 9.96 78.6 9.96 81.28 9.92C81.76 9.92 82.2 9.92 82.68 9.96C83.68 10 84.8 10.04 85.72 10.48C86.76 10.92 87.08 12.04 87.12 13.08C87.2 14.28 87.08 15.8 87.08 17C87.04 18.08 87.08 19.16 86.8 20.2C86.64 20.8 86.52 21.28 85.88 21.48C85.32 21.68 84.6 21.72 84.04 21.72H66.76C66.24 21.72 65.72 21.68 65.2 21.64C64.52 21.6 63.64 21.68 63.04 21.28ZM85.24 28.92C82.6 29 80.52 29.08 77.84 29.08C77.8 30.2 77.72 31.24 77.72 32.76C77.48 33.88 76 34.56 74.92 34.52C73.32 34.44 72.44 33.8 72.28 32.2C72.16 31.16 72.32 30.04 72.32 29C69.88 29 63.48 28.92 61.24 28.76C60.4 28.68 60 28.64 59.32 28C58.96 27.68 58.8 27.08 58.8 26.52C58.8 26 59 25.48 59.32 25.16C60.12 24.32 62.08 24.36 62.16 24.36H85.04C85.84 24.36 86.64 24.36 87.4 24.4C88.12 24.44 88.92 24.56 89.48 25.08C90.04 25.52 90.04 26.04 90.04 26.68C90.04 27.48 89.56 28.16 88.76 28.44C87.68 28.84 86.36 28.88 85.24 28.92ZM86.36 36.48C86.44 36.52 87.92 36.88 88.08 38C88.24 39 88.08 39.8 87.6 40.36C87 41.12 86.12 41.16 86.08 41.16H64.24C62.2 41.16 60.96 40.44 60.96 39.24V35.68C60.92 35.08 60.92 34.48 60.96 33.88C61.04 32.76 61.88 32 63 32C63.28 32 63.84 32.04 64.08 32.12C65.44 32.56 65.52 33.92 65.6 35.12C65.6 35.56 65.64 36.04 65.76 36.4C65.88 36.44 66.68 36.56 68.56 36.56C70.16 36.56 71.64 36.48 71.68 36.48H86.36ZM66.84 16.6C66.84 16.84 66.84 17.12 66.96 17.24C67.2 17.44 68.12 17.32 68.12 17.32H78.64C78.64 17.32 80.56 17.48 81.52 17.36C82.08 17.32 82.08 17.08 82.16 16.6C82.2 16.16 82.28 15.24 81.96 14.84C81.6 14.4 80.76 14.48 80.28 14.52H76.64C76.28 14.48 71.44 14.52 71.08 14.52C69.96 14.44 68.84 14.48 67.68 14.52C67.2 14.52 67.04 14.44 66.92 14.92C66.84 15.28 66.84 15.92 66.84 16.24V16.6ZM95.2516 33.72C95.4516 33.64 99.1316 33.8 99.8116 33.8C99.8516 33.16 99.9316 30.52 100.012 29.2C99.5316 29.08 99.0916 28.96 98.6516 28.76C95.6516 27.52 93.3316 25.08 93.3316 21.56C93.3316 19.64 93.8916 18.16 94.8116 17H94.3716C93.0916 17 92.0116 16.04 92.0116 14.88C92.0116 13.68 93.0916 12.72 94.3716 12.72H99.6516V11.08C99.6516 10.04 100.692 9.28 101.972 9.28C103.292 9.28 104.332 10.04 104.332 11.08V12.72H109.852C111.172 12.72 112.252 13.68 112.252 14.88C112.252 16.04 111.172 17 109.852 17H109.732C110.652 18.16 111.252 19.64 111.252 21.56C111.252 24.04 110.052 26.08 108.052 27.6C107.052 28.32 105.932 28.84 104.772 29.16C104.852 30.4 104.852 33.16 104.852 33.76V33.8H110.172C111.052 33.8 111.772 33.96 112.292 34.28C113.492 35 113.452 36.96 112.932 37.92C112.452 38.76 111.412 38.84 110.572 38.84H94.7716C94.7316 38.84 93.3716 38.72 92.6516 38.4C92.1316 38.12 91.7316 37.52 91.6116 36.76C91.4916 35.92 91.7716 35.12 92.2916 34.64C93.2516 33.84 94.3316 33.72 95.2516 33.72ZM121.772 22.96H121.852C122.132 22.92 122.372 23 122.612 23C122.932 23.04 123.212 23.08 123.532 23.12C124.132 23.24 124.772 23.48 125.092 24.08C125.252 24.4 125.332 24.76 125.332 25.16C125.332 25.52 125.332 25.92 125.252 26.28C125.132 26.68 125.012 27.24 124.692 27.52C124.372 27.76 123.972 27.96 123.572 28.04C122.732 28.16 121.292 28.04 120.452 28.08C120.372 28.12 120.332 28.12 120.332 28.12C120.332 28.12 120.332 28.16 120.292 28.28C120.252 29.6 120.292 30.76 120.292 32.12C120.332 33.48 120.332 34.88 120.292 36.2V36.76C120.292 38.16 120.332 40.2 119.372 41.2C119.012 41.52 118.572 41.72 118.052 41.72H117.972C115.372 41.6 115.132 38.48 115.132 36.8V13.04C115.132 12.96 115.052 10.96 115.932 10.08C116.332 9.72 117.172 9.52 117.732 9.52C118.332 9.52 118.892 9.76 119.252 10.12C119.932 10.88 120.012 11.72 120.052 12.6C120.092 12.76 120.092 12.92 120.132 13.12C120.212 13.96 120.212 14.96 120.252 15.92C120.252 16.52 120.292 17.08 120.292 17.64V21.96C120.292 22.24 120.292 22.56 120.372 22.84C120.372 22.88 121.172 22.88 121.252 22.92C121.412 22.92 121.612 22.96 121.772 22.96ZM103.052 24.76C104.772 24.44 106.252 23.6 106.252 21.56C106.252 19.2 104.292 18.32 102.332 18.28C100.332 18.2 98.3316 19.04 98.3316 21.56C98.3316 24.44 100.852 25.2 103.052 24.76ZM162.553 38.44C163.393 38.52 164.113 38.8 164.353 39.64C164.673 40.6 164.313 41.28 163.313 41.68C162.673 41.92 161.993 41.96 161.433 41.96H142.833C141.753 41.96 140.593 41.92 139.433 41.88C138.313 41.84 137.513 41 137.393 39.8L137.273 37C137.233 36.44 137.193 35.48 137.673 34.96C138.393 34.16 139.833 34.04 140.993 34.04C142.513 34.04 147.593 34.08 159.793 34.08V32.64H140.113C139.593 32.64 139.153 32.64 138.753 32.56C138.273 32.44 137.873 32.44 137.633 32C137.273 31.44 137.153 30.92 137.353 30.28C137.633 29.44 138.833 29.32 139.433 29.24C139.833 29.16 140.233 29.12 140.673 29.12C143.073 29.12 145.873 29.16 160.193 29.16C162.873 29.16 164.393 29.96 164.393 31.8V34.64C164.393 35.36 164.073 36.16 163.233 36.64C162.553 37.04 161.833 37 161.153 37H142.193V38.44H162.553ZM137.633 15.2C137.553 13.88 137.353 12.48 137.793 11.32C138.393 9.88 139.913 9.64 141.233 9.64H159.873C160.953 9.64 161.873 9.68 162.913 10.08C163.753 10.44 164.273 11.28 164.233 12.2C164.153 13.12 163.593 13.84 162.713 14.04C162.233 14.16 161.513 14.24 160.553 14.24C159.873 14.24 159.393 14.2 159.353 14.2H147.793C146.993 14.2 146.193 14.24 145.393 14.2C144.753 14.16 144.073 13.96 143.473 14.16C142.873 14.32 142.913 15 143.073 15.68C143.833 15.8 144.593 15.8 145.353 15.84H152.953C153.433 15.88 156.593 15.88 156.993 15.84C157.313 15.8 159.513 15.8 159.833 15.8C161.073 15.8 162.153 16 162.993 16.4C163.513 16.68 163.873 16.88 163.993 17.52C164.153 18.16 164.033 18.84 163.633 19.32C162.873 20.32 161.913 20.36 160.793 20.4C159.753 20.44 153.873 20.48 152.233 20.48C150.553 20.48 147.153 20.44 145.593 20.44C143.833 20.4 142.073 20.32 140.313 20.32C137.713 20.32 137.713 18.56 137.713 16.32C137.713 15.96 137.673 15.56 137.633 15.2ZM138.993 22.64C139.793 22.56 141.553 22.56 141.553 22.56H150.353C150.353 22.56 157.753 22.48 161.353 22.56H161.553C162.633 22.6 163.713 22.52 164.753 22.92C165.513 23.2 165.993 23.88 165.993 24.68C165.993 25.32 165.713 25.92 165.193 26.36C164.353 27.12 162.993 27.08 161.913 27H138.953C138.873 27 136.993 27.04 136.233 26.2C135.913 25.88 135.753 25.36 135.753 24.84C135.753 24.28 135.953 23.8 136.273 23.48C136.953 22.8 137.713 22.76 138.513 22.68C138.673 22.68 138.833 22.64 138.993 22.64ZM191.589 14.52C191.629 13.16 191.589 11.04 192.549 10.08C192.909 9.72 193.349 9.56 193.829 9.56H193.909C196.549 9.68 196.789 12.8 196.789 14.48V38.2C196.789 38.28 196.869 40.32 195.949 41.16C195.589 41.52 194.749 41.76 194.189 41.76C193.589 41.76 193.029 41.52 192.669 41.12C191.989 40.36 191.869 39.68 191.789 38.8C191.789 37.88 191.709 34.68 191.749 33.2H189.269C188.069 33.2 187.429 32.8 187.149 32.2C186.989 31.88 186.829 31.52 186.829 31.16C186.829 30.8 186.829 30.56 186.909 30.2C187.029 29.8 187.149 29.24 187.469 28.96C187.789 28.72 188.189 28.52 188.589 28.44C189.429 28.28 190.749 28.32 191.629 28.2C191.629 27.4 191.629 24.92 191.589 23.16L189.189 23.08C188.189 23.04 187.309 22.88 187.029 22.28C186.869 21.96 186.749 21.56 186.749 21.2C186.749 20.84 186.749 20.6 186.829 20.24C186.949 19.84 187.069 19.36 187.389 19.08C187.709 18.84 188.109 18.64 188.509 18.56C189.109 18.44 190.149 18.44 191.549 18.36C191.549 16.6 191.549 15.04 191.589 14.52ZM177.029 9.56C177.709 9.56 178.349 9.64 178.989 9.72C179.989 9.88 180.909 10.36 181.669 11.12C184.269 13.84 184.829 18.52 184.989 22.32C185.109 24.76 185.069 27.24 184.789 29.64C184.509 32.12 184.149 34.8 182.829 36.84C181.709 38.56 179.949 39.68 178.149 40.04C176.509 40.36 174.709 40.16 173.189 39.28C171.749 38.44 170.789 37.12 170.069 35.44C169.549 34.2 169.229 32.84 169.149 31.48C168.949 29.24 168.869 27 168.869 24.76C168.869 23.24 168.869 21.76 169.029 20.28C169.109 19.08 169.309 17.84 169.509 16.68C169.709 15.72 169.829 14.88 170.229 14C170.629 13.12 171.149 12.28 171.829 11.64C172.989 10.48 174.509 9.84 176.029 9.64C176.349 9.6 176.709 9.6 177.029 9.56ZM176.909 34.72C177.389 34.72 177.909 34.56 178.389 34.24C179.269 33.6 179.589 32.48 179.829 31.2C180.269 28.76 180.229 25.8 180.149 23.28C180.109 21.24 180.069 18.6 179.109 16.96C178.589 16.08 177.789 15.52 176.949 15.64C176.069 15.72 175.269 16.28 174.789 17.32L174.429 18.16C174.109 19.16 173.949 20.28 173.869 21.36C173.789 22.44 173.709 23.56 173.709 24.64C173.749 25.72 173.629 26.72 173.709 27.76C173.909 30.52 174.269 34.68 176.909 34.72ZM216.772 34.8C218.332 34.8 219.772 35.16 219.972 36.88C220.172 38.6 218.412 39.64 216.972 39.72C215.852 39.76 210.492 39.72 207.892 39.72H207.572C206.372 39.68 204.972 39.68 203.772 39.32C202.932 39.08 202.092 38.32 201.692 37.4C201.172 36.24 201.292 33.76 201.292 33.64V16.64C201.252 16.36 200.972 13.52 201.772 12.2C202.452 11.08 205.492 11.04 205.772 11.04H215.132C215.292 11.04 218.652 10.92 219.172 12.6C219.372 13.2 219.332 14.64 219.092 15.08C218.892 15.44 218.532 15.68 218.092 15.8C217.612 15.92 216.852 16 215.812 16C215.132 16 214.612 15.96 209.692 15.96C208.972 15.96 208.052 16 207.692 16.16C206.932 16.48 206.972 18.24 207.052 18.84V18.88L207.212 32.72C207.212 33.76 207.612 34.52 208.852 34.52C209.132 34.56 213.252 34.8 216.772 34.8ZM227.412 21.88L230.572 22.16C231.532 22.36 232.372 23 232.372 24.16C232.372 24.56 232.372 24.92 232.252 25.32C232.092 26.2 231.612 26.96 230.612 26.96L227.332 27C227.252 29.76 227.332 34 227.332 37.32C227.332 38.72 227.292 41.68 224.932 41.84C222.332 42 222.132 39.44 222.132 37.76V13.2C222.132 13.12 222.092 11.12 222.972 10.24C223.332 9.88 224.172 9.68 224.772 9.68C225.372 9.68 225.892 9.92 226.252 10.28C226.972 11.04 227.012 11.88 227.092 12.76C227.332 15.68 227.412 18.84 227.412 21.88ZM260.615 34.52C260.775 34.56 260.935 34.52 261.095 34.52C261.975 34.6 262.775 34.8 263.495 35.44C263.855 35.8 264.055 36.28 264.055 36.84C264.055 37.4 263.855 38.2 263.535 38.56C262.695 39.4 260.735 39.32 260.655 39.32H238.255C238.015 39.32 237.735 39.36 237.455 39.36C236.335 39.4 234.895 39.48 234.015 38.72C233.495 38.24 233.175 37.64 233.175 37C233.175 36.2 233.695 35.2 234.495 34.88C235.575 34.48 236.735 34.56 237.895 34.52H238.095C240.375 34.48 242.855 34.48 245.255 34.52L245.215 29C243.175 29.04 241.495 29.04 240.535 28.96C239.415 28.92 237.935 28.88 237.015 28.2C235.815 27.28 235.775 24.36 235.775 24.24V15.64C235.775 14.6 235.615 13.48 235.815 12.44C236.095 11.2 237.615 10.88 238.815 10.8C239.735 10.76 241.095 11 241.295 12.08C241.375 12.56 241.215 15.6 241.415 16.04C241.535 16.32 242.095 16.36 242.375 16.4C243.615 16.48 244.015 16.36 245.255 16.36L254.415 16.4C254.975 16.44 255.415 16.44 255.575 15.88C255.615 15.32 255.615 12.96 255.655 12.52C255.695 11.56 255.975 11 256.975 10.8C258.015 10.56 259.495 10.64 260.095 11.24C260.935 12.12 260.895 13.16 260.895 15.24C260.815 17.68 261.015 23.56 260.775 26C260.655 27.56 259.775 28.56 258.255 28.8C257.455 28.92 256.375 28.88 255.575 28.88C253.855 28.92 252.215 28.92 250.615 28.92L250.695 34.52C253.415 34.52 255.295 34.44 257.895 34.52C258.855 34.56 259.775 34.44 260.615 34.52ZM241.415 23.84C241.615 24.64 242.775 24.64 243.655 24.68C244.055 24.64 252.175 24.56 252.655 24.64C253.095 24.68 253.535 24.64 253.975 24.68C254.535 24.72 255.495 24.92 255.495 24.04C255.495 23.64 255.575 22 255.375 21.24C255.215 20.6 254.855 20.64 254.335 20.68C254.095 20.68 253.335 20.72 253.095 20.68H243.975C242.975 20.64 241.495 20.44 241.375 21.68C241.375 21.96 241.375 23.64 241.415 23.84ZM295.356 38.72C295.276 39.36 295.236 39.96 295.036 40.6C294.956 40.8 294.876 40.96 294.796 41.16C294.636 41.48 294.396 41.8 294.076 42.04C293.476 42.4 292.716 42.48 292.036 42.32C291.636 42.24 291.276 42.08 290.996 41.84C290.036 40.96 290.076 38.88 290.076 38.8V14.08C290.036 12.84 290.076 10.84 290.836 10.12C291.396 9.56 292.076 9.48 292.796 9.48C293.716 9.48 294.556 10.04 294.876 10.92C295.356 12.04 295.316 13.28 295.356 14.52V14.72C295.476 18.8 295.356 23.32 295.356 27.16V37.28C295.356 37.76 295.396 38.24 295.356 38.72ZM276.476 34.8C276.436 34.16 276.436 33.52 276.436 32.88V20.16C276.436 19.32 276.436 18.44 276.356 17.56C276.316 17.28 276.276 16.68 275.996 16.56C275.716 16.4 275.356 16.48 275.036 16.44C274.676 16.4 274.316 16.48 273.956 16.44H272.076C271.196 16.48 270.236 16.4 269.356 16.44C268.956 16.48 268.596 16.44 268.196 16.44C267.596 16.44 266.916 16.44 266.396 16.08C265.636 15.56 265.436 14.68 265.436 13.84C265.396 13.32 265.516 12.8 265.756 12.32C265.876 12.04 266.036 11.8 266.276 11.64C266.556 11.36 267.156 11.16 267.516 11.08C268.636 10.8 269.916 10.84 271.076 10.84H278.036C278.716 10.92 279.556 11 280.196 11.24C280.596 11.4 281.076 11.68 281.316 12.04C281.796 12.8 281.796 13.52 281.876 14.4C281.996 15.88 281.956 17.36 281.956 18.84V31.96C281.956 32.08 282.036 35.4 281.956 37.08C281.876 38.16 281.636 39.48 280.236 40C279.756 40.2 279.276 40.28 278.876 40.28C278.196 40.28 277.396 40 277.116 39.4C276.716 38.6 276.476 37.6 276.476 36.56V34.8Z" fill="#48724B"/>
<circle cx="322" cy="24.5" r="17" fill="#A0C0A6"/>
<path d="M324.554 33.176H321.226V18.174L316.962 20.618L315.35 17.914L321.616 14.43H324.554V33.176Z" fill="white"/>
<path d="M376.92 10.48C380.12 12.2 381.44 15.2 381.12 19.36C380.8 24.68 378.2 27.28 372.68 27.28C369.76 27.28 368.16 27.52 365.56 25.84C363.04 24.2 362.28 21.28 362.28 18.48C362.28 15.68 363.24 13.08 365.52 11.32C367.4 9.84 369.84 9.12 372.16 9.32C374.28 9.48 375.04 9.64 376.92 10.48ZM390.8 36.84C390.84 36.88 392.44 37.24 392.6 38.36C392.72 39.36 392.56 40.16 392.08 40.72C391.44 41.48 390.48 41.52 390.44 41.52H369.6C367.44 41.52 366.12 40.8 366.12 39.6V34.04C366.08 33.44 366.08 31.88 366.12 31.28C366.24 30.16 367.36 29.4 368.56 29.4C368.84 29.4 369.28 29.44 369.56 29.52C371 29.96 371.08 31.72 371.16 32.92C371.2 33.36 371.12 36.48 371.16 36.76C371.32 36.8 371.88 36.92 373.84 36.92C375.56 36.92 377.12 36.84 377.16 36.84H390.8ZM391.32 10.8C391.68 11.52 391.72 14.16 391.68 14.4V28.2C391.68 28.28 391.52 29.8 390.4 30.44C390.04 30.68 389.64 30.8 389.24 30.8C388.72 30.8 388.24 30.64 387.84 30.32C387.56 30.16 387.28 29.88 387.12 29.52C386.76 28.88 386.68 28.2 386.64 27.64V25.68H386.52C384.88 25.6 382.6 25.68 381.92 24.6C381.56 24.04 381.64 23.04 381.76 22.48C381.92 21.84 382.32 21.4 383.44 21.16C383.88 21.08 386.16 21 386.64 20.96V18.36C385 18.36 382.56 18.6 381.92 17.56C381.56 17.04 381.64 15.76 381.76 15.16C381.92 14.56 382.32 14.12 383.44 13.88C383.76 13.8 385.64 13.76 386.64 13.72C386.6 13.24 386.64 12.2 386.76 11.76C386.92 11.32 386.96 10.88 387.32 10.48C387.8 9.96 388.68 9.68 389.64 9.8C390.44 9.92 391.08 10.32 391.32 10.8ZM376.36 19.8C376.36 17.48 376.08 15.52 373.8 14.68C371.36 13.84 367.68 14.6 367.16 17.92C366.84 20.2 367.8 22.68 371.12 22.96C373.36 23.2 375.76 22.48 376.36 19.8ZM407.963 26.08C407.203 26.16 402.043 26.04 401.163 26.08H401.123C399.243 26.08 397.203 26.12 396.363 24.88C395.443 23.48 395.643 20.24 395.643 20.12C395.643 20.12 395.643 18.8 395.683 17C395.723 15.08 395.723 13.84 395.723 13.84C395.723 13.52 395.723 11.96 396.123 11.32C396.603 10.56 397.043 10.28 397.843 10.12C398.443 10.04 400.123 9.96 400.123 9.96H409.163C410.323 9.96 411.763 10.08 412.763 10.72C414.323 11.72 413.923 13.84 413.923 15.36C413.923 16.2 413.883 16.24 413.923 17.08V19.28C413.883 19.56 413.923 19.88 413.923 20.2C413.843 20.88 413.923 21.56 413.923 22.28C413.923 23.4 413.643 25.2 412.363 25.68C410.963 26.24 409.403 26.08 407.963 26.08ZM422.123 38.6C422.923 38.64 423.643 38.96 423.923 39.8C424.203 40.76 423.843 41.44 422.883 41.8C422.243 42.08 421.523 42.08 420.963 42.08H402.763C401.683 42.08 400.523 42.08 399.363 42.04C398.243 42 397.443 41.16 397.323 39.96C397.243 39.08 397.203 37.8 397.203 37.08V36.72C397.163 36.12 397.163 35.2 397.643 34.64C398.323 33.88 399.763 33.76 400.923 33.76H401.763C401.963 33.76 402.163 33.8 402.323 33.8H419.323V32.08H401.923C401.643 32.08 401.323 32.04 401.043 32.08H400.043C399.523 32.08 399.083 32.08 398.683 32C398.243 31.88 397.843 31.88 397.563 31.44C397.203 30.88 397.123 30.36 397.283 29.72C397.563 28.88 398.763 28.76 399.363 28.64C399.763 28.6 400.163 28.56 400.643 28.56H401.323C401.563 28.56 401.803 28.6 402.043 28.6H419.723C422.403 28.6 423.923 29.36 423.923 31.24V34.36C423.923 35.08 423.643 35.84 422.803 36.36C422.083 36.76 421.363 36.72 420.723 36.72H402.123V38.6H422.123ZM424.643 20.84H423.723V24.48C423.723 25.88 422.923 27.08 421.283 27.08C420.883 27.08 420.483 27 420.163 26.8C419.083 26.16 418.923 25 418.923 24.6V12.64C418.883 12.44 418.963 11.2 419.283 10.56C419.523 10.04 420.123 9.68 420.883 9.6C421.803 9.48 422.643 9.72 423.083 10.2C423.403 10.6 423.483 11 423.603 11.44C423.763 11.92 423.763 13.04 423.723 13.56V16.4C424.163 16.44 426.323 16.48 426.803 16.6C427.843 16.8 428.203 17.24 428.323 17.8C428.483 18.36 428.523 19.28 428.203 19.8C427.563 20.84 426.203 20.8 424.643 20.84ZM407.763 15.04L402.843 14.96C402.363 14.96 401.963 14.96 401.643 15.04C401.203 15.08 401.003 15.2 400.723 15.52C400.523 15.8 400.523 16.48 400.523 16.6V17.48C400.483 18.24 400.483 19 400.483 19C400.483 19.04 400.403 20.4 400.883 21C401.323 21.52 402.403 21.52 403.363 21.52H403.403C404.803 21.48 405.443 21.52 406.883 21.52C407.323 21.52 407.763 21.56 408.203 21.48C408.643 21.44 408.763 21.2 408.843 20.88C408.883 20.72 408.923 20.56 408.923 20.36C409.043 19.8 409.083 19.24 409.083 18.64C409.083 17.8 409.123 17.72 409.083 16.88C409.043 16.48 409.123 16 409.003 15.6C408.803 15.04 408.243 15.04 407.763 15.04ZM444.225 10.48C447.425 12.2 448.745 15.2 448.425 19.36C448.105 24.68 445.505 27.28 439.985 27.28C437.065 27.28 435.465 27.52 432.865 25.84C430.345 24.2 429.585 21.28 429.585 18.48C429.585 15.68 430.545 13.08 432.825 11.32C434.705 9.84 437.145 9.12 439.465 9.32C441.585 9.48 442.345 9.64 444.225 10.48ZM458.105 36.84C458.145 36.88 459.745 37.24 459.905 38.36C460.025 39.36 459.865 40.16 459.385 40.72C458.745 41.48 457.785 41.52 457.745 41.52H436.905C434.745 41.52 433.425 40.8 433.425 39.6V34.04C433.385 33.44 433.385 31.88 433.425 31.28C433.545 30.16 434.665 29.4 435.865 29.4C436.145 29.4 436.585 29.44 436.865 29.52C438.305 29.96 438.385 31.72 438.465 32.92C438.505 33.36 438.425 36.48 438.465 36.76C438.625 36.8 439.185 36.92 441.145 36.92C442.865 36.92 444.425 36.84 444.465 36.84H458.105ZM458.625 10.8C458.985 11.52 459.025 14.16 458.985 14.4V28.2C458.985 28.28 458.825 29.8 457.705 30.44C457.345 30.68 456.945 30.8 456.545 30.8C456.025 30.8 455.545 30.64 455.145 30.32C454.865 30.16 454.585 29.88 454.425 29.52C454.065 28.88 453.985 28.2 453.945 27.64V25.68H453.825C452.185 25.6 449.905 25.68 449.225 24.6C448.865 24.04 448.945 23.04 449.065 22.48C449.225 21.84 449.625 21.4 450.745 21.16C451.185 21.08 453.465 21 453.945 20.96V18.36C452.305 18.36 449.865 18.6 449.225 17.56C448.865 17.04 448.945 15.76 449.065 15.16C449.225 14.56 449.625 14.12 450.745 13.88C451.065 13.8 452.945 13.76 453.945 13.72C453.905 13.24 453.945 12.2 454.065 11.76C454.225 11.32 454.265 10.88 454.625 10.48C455.105 9.96 455.985 9.68 456.945 9.8C457.745 9.92 458.385 10.32 458.625 10.8ZM443.665 19.8C443.665 17.48 443.385 15.52 441.105 14.68C438.665 13.84 434.985 14.6 434.465 17.92C434.145 20.2 435.105 22.68 438.425 22.96C440.665 23.2 443.065 22.48 443.665 19.8ZM479.828 35.36C479.988 35.64 480.148 35.92 480.228 36.28C480.388 36.84 480.508 37.56 480.148 38.32C479.748 39.12 479.108 39.6 478.388 39.64H478.348C477.388 39.64 476.748 38.88 475.948 38C475.148 37.16 474.508 36.24 473.988 35.56C473.948 35.44 473.828 35.32 473.748 35.12C472.428 33.08 471.828 32.4 471.708 32.36C471.588 32.44 471.028 33.08 470.948 33.2C470.828 33.36 470.708 33.48 470.628 33.6C470.148 34.12 469.948 34.72 469.508 35.28C469.068 35.84 468.628 36.4 468.148 36.92C468.028 37.04 467.908 37.2 467.828 37.32C467.028 38.2 466.188 39.2 465.028 39.6C464.748 39.72 464.508 39.76 464.228 39.76C463.628 39.76 463.028 39.48 462.588 39.04C462.148 38.6 461.908 38 461.908 37.36C461.948 36.4 462.508 35.52 462.948 34.8L463.028 34.64C463.188 34.4 463.348 34.16 463.508 33.96C463.588 33.8 463.708 33.68 463.788 33.56C464.068 33.12 464.348 32.72 464.628 32.4C464.708 32.32 464.748 32.2 464.828 32.12C464.868 32.04 464.908 31.96 464.988 31.92L465.068 31.8C465.268 31.52 465.428 31.28 465.588 31.04C465.948 30.48 466.228 29.96 466.508 29.48C466.828 28.88 467.148 28.32 467.548 27.8C467.828 27.4 468.108 26.96 468.388 26.52L468.548 26.28C468.908 25.68 469.108 25.28 469.148 24.72C469.228 23.88 469.228 23.08 469.228 22.12V15.52C469.228 15 469.228 14.52 469.268 14C469.268 13.44 469.388 12.8 469.548 12.32C469.668 12 469.868 11.6 470.068 11.28C470.348 10.88 470.908 10.68 471.468 10.56L471.548 10.52C471.988 10.4 472.268 10.44 472.708 10.6C472.908 10.68 473.148 10.8 473.308 10.96C473.548 11.16 473.708 11.56 473.868 12C474.108 12.52 474.268 13.2 474.348 13.96C474.548 16.2 474.588 18.8 474.588 21.04C474.628 22.4 474.628 23.8 474.708 25.12C474.748 26.28 475.468 27.28 476.028 28.28C476.628 29.44 477.268 30.6 477.948 31.72C478.228 32.24 478.508 32.76 478.828 33.28C478.948 33.52 479.068 33.76 479.188 33.96C479.308 34.24 479.468 34.52 479.588 34.8L479.708 35.12L479.828 35.36ZM489.908 38.72C489.828 39.36 489.788 39.96 489.588 40.6C489.508 40.8 489.428 40.96 489.348 41.16C489.188 41.48 488.948 41.8 488.628 42.04C488.028 42.4 487.268 42.48 486.588 42.32C486.188 42.24 485.828 42.08 485.548 41.84C484.588 40.96 484.628 38.88 484.628 38.8V14.08C484.588 12.84 484.628 10.84 485.388 10.12C485.948 9.56 486.628 9.48 487.348 9.48C488.268 9.48 489.108 10.04 489.428 10.92C489.908 12.04 489.868 13.28 489.908 14.52V14.72C490.028 18.8 489.908 23.32 489.908 27.16V37.28C489.908 37.76 489.948 38.24 489.908 38.72ZM503.426 9.16C508.866 9.52 511.906 12.64 511.506 18.36C511.146 23.12 508.586 25.88 503.506 25.88C500.746 25.88 499.306 26.08 496.866 24.56C494.546 23.08 493.826 20.12 493.826 17.56C493.826 11.8 497.906 8.76 503.426 9.16ZM522.506 22.96H522.586C522.866 22.92 523.106 23 523.346 23C523.666 23.04 523.946 23.08 524.266 23.12C524.866 23.24 525.506 23.48 525.826 24.08C525.986 24.4 526.066 24.76 526.066 25.16C526.066 25.52 526.066 25.92 525.986 26.28C525.866 26.68 525.746 27.24 525.426 27.52C525.106 27.76 524.706 27.96 524.306 28.04C523.466 28.16 522.026 28.04 521.186 28.08C521.106 28.12 521.066 28.12 521.066 28.12C521.066 28.12 521.066 28.16 521.026 28.28C520.986 29.6 521.026 30.76 521.026 32.12C521.066 33.48 521.066 34.88 521.026 36.2V36.76C521.026 38.16 521.066 40.2 520.106 41.2C519.746 41.52 519.306 41.72 518.786 41.72H518.706C516.106 41.6 515.866 38.48 515.866 36.8V13.04C515.866 12.96 515.786 10.96 516.666 10.08C517.066 9.72 517.906 9.52 518.466 9.52C519.066 9.52 519.626 9.76 519.986 10.12C520.666 10.88 520.746 11.72 520.786 12.6C520.826 12.76 520.826 12.92 520.866 13.12C520.946 13.96 520.946 14.96 520.986 15.92C520.986 16.52 521.026 17.08 521.026 17.64V21.96C521.026 22.24 521.026 22.56 521.106 22.84C521.106 22.88 521.906 22.88 521.986 22.92C522.146 22.92 522.346 22.96 522.506 22.96ZM495.986 33.72C496.186 33.64 498.666 33.8 499.346 33.8C499.426 32.96 499.506 28.72 499.626 28.4C499.826 27.76 500.306 27.28 500.866 27.04C501.186 26.92 501.466 26.88 501.786 26.88C502.946 26.88 503.946 27.56 504.226 28.52C504.386 28.92 504.386 33 504.386 33.76V33.8H510.906C511.786 33.8 512.506 33.96 513.026 34.28C514.226 35 514.186 36.96 513.666 37.92C513.186 38.76 512.146 38.84 511.306 38.84H495.506C495.466 38.84 494.106 38.72 493.386 38.4C492.866 38.12 492.466 37.52 492.346 36.76C492.226 35.92 492.506 35.12 493.026 34.64C493.986 33.84 495.066 33.72 495.986 33.72ZM506.866 18.84L506.906 18.52C507.146 16.6 506.186 14.76 504.506 14.16C502.266 13.4 498.826 14.08 498.386 17.08C498.066 19.12 498.946 21.36 502.026 21.64C504.146 21.88 506.346 21.28 506.866 18.84ZM560.48 31.64C561.64 32.04 562.64 32.52 563.32 33.32C564 34.04 564.32 35.08 564.32 36.32C564.32 37.6 564 38.56 563.32 39.36C562.64 40.08 561.64 40.56 560.48 41C559.32 41.36 557.88 41.6 556.28 41.76C554.72 41.84 553.04 41.92 551.2 41.92C549.36 41.92 547.68 41.84 546.08 41.76C544.52 41.6 543.08 41.36 541.92 41C540.76 40.56 539.84 40.08 539.08 39.36C538.4 38.56 538.08 37.6 538.08 36.32C538.08 35.24 538.4 34.32 539.08 33.56C539.84 32.84 540.76 32.2 541.92 31.8C543.08 31.4 544.52 31.16 546.08 31C547.68 30.8 549.36 30.72 551.2 30.72C553.04 30.72 554.72 30.8 556.28 30.88C557.88 31 559.32 31.24 560.48 31.64ZM559.56 19.52C559.56 18.92 559.8 16.84 559.32 16.36C558.92 15.92 556.28 16.2 555.56 16.2C549.92 16.2 542.44 16 540.84 15.92C539.56 15.92 538.32 15.48 538.08 14C537.84 13 538.16 11.6 539.16 11.04C539.72 10.72 540.4 10.64 541.08 10.56C544.52 10.32 547.84 10.4 551.28 10.48C553.96 10.48 556.6 10.56 559.32 10.56C560.64 10.56 562.56 10.64 563.56 11.76C564.32 12.64 564.24 13.68 564.32 14.76V17.56C564.4 19.68 564.48 22.8 562.32 22.96C559.56 23.12 559.56 21.28 559.56 19.52ZM565.76 24.56C566.24 24.96 566.24 26.04 566.08 26.72C566 26.96 565.84 27.2 565.68 27.28C565.52 27.52 565.12 27.72 564.8 27.8C564.48 27.88 564.16 27.96 563.92 27.96C561.56 28.28 559.32 28.04 557.04 28.04H541.24C540.64 28.12 540 28.12 539.4 28.04C538.72 28.04 538.08 27.96 537.56 27.52C536.8 26.96 536.56 25.68 537.12 24.88C537.4 24.56 537.76 24.28 538.16 24.08C539.84 23.6 541.64 23.84 543.4 23.84H547.68C547.68 22.88 547.68 21.84 547.76 20.84C547.84 19.24 549.04 18.6 550.44 18.76C553.12 19 552.72 21.84 552.72 23.84H562.96C563.64 23.84 564.24 23.84 564.64 24C565.12 24.2 565.32 24.2 565.76 24.56ZM558.36 37.48C558.76 37.24 559.08 36.8 559.08 36.32C559.08 35.92 558.76 35.56 558.36 35.4C557.88 35.16 557.32 35 556.52 34.92C555.72 34.72 554.88 34.72 553.96 34.64H548.44C547.52 34.72 546.76 34.72 546 34.92C545.24 35 544.68 35.16 544.28 35.4C543.8 35.56 543.56 35.92 543.56 36.32C543.56 36.72 543.8 37 544.28 37.24C544.68 37.48 545.24 37.6 546 37.76C546.76 37.84 547.52 37.92 548.44 37.92C549.36 37.92 550.24 38 551.2 38H553.96C554.88 38 555.72 38 556.52 37.92C557.32 37.84 557.88 37.68 558.36 37.48ZM593.496 15.72H592.016C592.856 16.92 593.296 18.84 593.136 20.84C592.736 25.48 588.976 27.56 584.096 27.8H582.096C578.096 27.8 571.296 26.52 571.336 19.96C571.336 18.4 571.696 16.76 572.336 15.72H571.456C570.216 15.72 569.216 14.76 569.216 13.6C569.216 12.44 570.216 11.48 571.456 11.48H579.256V9.96C579.256 8.96 579.736 7.92 582.296 7.92C584.896 7.92 585.336 8.96 585.336 9.96V11.48H593.496C594.736 11.48 595.776 12.44 595.776 13.6C595.776 14.76 594.736 15.72 593.496 15.72ZM593.376 30C595.056 29.92 597.376 30.16 597.376 32.36C597.376 35 593.216 34.8 591.456 34.84C591.216 34.84 590.976 34.88 590.736 34.88C590.776 36.4 590.856 38 590.696 39.32C590.536 40.32 590.216 41.32 589.336 41.92C588.536 42.44 587.336 42.44 586.496 41.96C585.816 41.56 585.496 40.64 585.336 39.88C585.256 39.32 585.336 38.56 585.296 37.96V34.88L580.016 34.84C580.056 36.48 580.176 37.48 579.976 38.88C579.816 39.88 579.496 40.88 578.616 41.48C577.816 42 576.616 42 575.776 41.52C575.096 41.12 574.776 40.2 574.616 39.44C574.536 38.88 574.616 38.12 574.576 37.52V34.84L571.336 34.88C570.096 34.88 568.896 34.64 568.256 33.6C567.656 32.72 567.656 31.6 568.416 30.8C569.216 29.96 571.216 30.04 571.296 30.04L593.376 30ZM587.696 21.16C588.176 17.72 586.256 16.12 582.816 15.92C579.816 15.8 577.416 16.76 576.976 19.48C576.656 22.6 578.616 23.84 582.176 23.84C585.016 23.84 587.296 23.32 587.696 21.16ZM626.788 38.84C627.628 38.88 628.348 39.2 628.588 40.04C628.868 41 628.548 41.68 627.548 42.04C626.908 42.32 626.188 42.32 625.668 42.32H607.868C606.788 42.32 605.588 42.32 604.428 42.28C602.988 42.24 602.508 41.24 602.428 40.04L602.268 37.28C602.228 36.68 602.228 35.28 602.708 34.72C603.428 33.96 604.428 33.84 605.588 33.84H606.828C607.068 33.84 607.228 33.88 607.388 33.88H624.028V32.28H606.988C606.708 32.28 606.428 32.24 606.108 32.28H605.148C604.628 32.28 604.188 32.28 603.788 32.2C603.308 32.08 602.908 32.08 602.628 31.64C602.308 31.08 602.188 30.44 602.388 29.8C602.668 28.96 603.868 28.84 604.468 28.72C604.868 28.68 605.268 28.64 605.708 28.64H606.388C606.668 28.68 606.868 28.68 607.148 28.68H624.428C627.108 28.68 628.628 29.44 628.628 31.32V35C628.628 35.72 628.308 36.36 627.468 36.88C626.788 37.28 626.068 37.24 625.388 37.24H607.188V38.84H626.788ZM609.628 9.52C615.068 9.88 618.108 13 617.708 18.72C617.348 23.48 614.788 26.24 609.708 26.24C607.748 26.24 605.508 26.44 603.068 24.92C600.748 23.44 600.028 20.48 600.028 17.92C600.028 12.16 604.108 9.12 609.628 9.52ZM628.668 12.92V24.44C628.668 24.48 628.508 26.04 627.468 26.72C627.108 26.92 626.748 27.04 626.348 27.04C625.868 27.04 625.428 26.88 625.028 26.6C624.748 26.4 624.508 26.12 624.348 25.76C623.548 24.16 623.868 21.8 623.868 20.04C623.908 17.76 623.908 16.28 623.908 14.04V13.52C623.868 12.92 623.868 12.24 624.028 11.64C624.148 11.2 624.388 10.8 624.748 10.36C625.188 9.84 626.028 9.56 626.908 9.68C627.668 9.8 628.268 10.2 628.508 10.72C628.828 11.4 628.708 12.72 628.668 12.92ZM613.068 19.2L613.108 18.88C613.348 16.96 612.388 15.12 610.708 14.52C608.467 13.76 605.028 14.44 604.588 17.44C604.268 19.48 605.148 21.72 608.228 22C610.348 22.24 612.548 21.64 613.068 19.2Z" fill="#48724B"/>
<g clip-path="url(#clip0_1164_180397)">
<path d="M643.992 17.8C641.844 18.7579 642.169 21.2524 641.617 22.0307C641.065 22.809 638.611 23.5973 638.385 26.2415C638.148 28.8857 639.942 28.756 640.73 29.9035C641.509 31.051 640.996 33.8648 644.377 34.4236C647.757 34.9824 647.866 32.1785 649.216 31.8792C650.566 31.5898 653.739 31.6497 655.484 29.5144C657.189 27.4189 655.671 24.9543 655.385 24.0762C655.099 23.1882 655.622 20.8633 654.143 19.6958C652.665 18.5384 651.207 19.7058 649.975 19.0672C648.743 18.4286 646.161 16.8421 644.012 17.8" fill="#D1E8CF"/>
<path d="M645.204 34.8633C644.928 34.8633 644.633 34.8433 644.307 34.7834C641.637 34.3344 641.173 32.5583 640.838 31.2611C640.72 30.8121 640.612 30.3831 640.424 30.1136C640.217 29.8043 639.892 29.5848 639.557 29.3653C638.798 28.8564 637.842 28.2178 638.02 26.2122C638.207 24.1367 639.636 23.109 640.592 22.4205C640.917 22.181 641.203 21.9814 641.331 21.8118C641.459 21.6322 641.538 21.243 641.637 20.8339C641.873 19.7264 642.208 18.1997 643.854 17.4613C645.963 16.5234 648.348 17.7906 649.767 18.5489L650.132 18.7385C650.566 18.968 651.068 18.9082 651.64 18.8483C652.468 18.7585 653.404 18.6487 654.36 19.3971C655.533 20.3151 655.582 21.8417 655.621 22.9493C655.631 23.3584 655.651 23.7376 655.72 23.9471C655.759 24.0768 655.828 24.2465 655.917 24.4361C656.42 25.6135 657.346 27.7987 655.759 29.7345C654.271 31.5505 651.857 31.8698 650.26 32.0793C649.886 32.1292 649.55 32.1691 649.294 32.229C648.949 32.3088 648.683 32.6481 648.348 33.0871C647.757 33.8455 646.978 34.8533 645.224 34.8533L645.204 34.8633ZM644.14 18.1398C642.819 18.7285 642.553 19.9858 642.336 20.9936C642.228 21.5025 642.129 21.9415 641.912 22.2508C641.725 22.5103 641.39 22.7497 641.016 23.0291C640.129 23.6677 638.907 24.5458 638.749 26.282C638.611 27.8586 639.242 28.2777 639.961 28.7566C640.345 29.0061 640.74 29.2755 641.025 29.7045C641.282 30.0737 641.41 30.5627 641.538 31.0815C641.873 32.3687 642.228 33.7058 644.426 34.075C646.407 34.4043 647.096 33.5162 647.757 32.6581C648.151 32.1492 648.525 31.6702 649.127 31.5405C649.403 31.4807 649.757 31.4308 650.161 31.3809C651.65 31.1913 653.887 30.8919 655.198 29.2954C656.499 27.6989 655.72 25.853 655.247 24.7554C655.158 24.5358 655.079 24.3463 655.03 24.2066C654.932 23.8972 654.912 23.4782 654.902 22.9992C654.863 21.9814 654.823 20.7142 653.916 20.0058C653.197 19.437 652.478 19.5168 651.719 19.6066C651.088 19.6765 650.428 19.7463 649.797 19.427L649.422 19.2275C648.121 18.529 645.933 17.3615 644.14 18.1598V18.1398Z" fill="#7DA37E"/>
<path d="M646.821 26.6002C647.175 26.5104 647.54 26.7299 647.619 27.0792C647.708 27.4384 647.491 27.7976 647.136 27.8874C646.781 27.9772 646.417 27.7577 646.328 27.4085C646.239 27.0492 646.456 26.69 646.821 26.6002Z" fill="#C8A374"/>
<path d="M645.569 25.4733C645.924 25.3835 646.288 25.603 646.367 25.9522C646.456 26.3114 646.239 26.6706 645.884 26.7604C645.529 26.8503 645.165 26.6307 645.076 26.2815C644.987 25.9223 645.204 25.5631 645.569 25.4733Z" fill="#C8A374"/>
<path d="M648.743 26.2506C649.097 26.1608 649.462 26.3803 649.541 26.7296C649.63 27.0888 649.413 27.448 649.058 27.5378C648.703 27.6276 648.339 27.4081 648.25 27.0588C648.161 26.6996 648.378 26.3404 648.743 26.2506Z" fill="#C8A374"/>
<path d="M649.314 24.7155C649.669 24.6257 650.033 24.8452 650.112 25.1944C650.201 25.5536 649.984 25.9128 649.629 26.0026C649.274 26.0924 648.91 25.8729 648.821 25.5237C648.732 25.1645 648.949 24.8053 649.314 24.7155Z" fill="#C8A374"/>
<path d="M647.452 24.694C647.806 24.6042 648.171 24.8237 648.25 25.1729C648.339 25.5321 648.122 25.8914 647.767 25.9812C647.412 26.071 647.047 25.8514 646.959 25.5022C646.87 25.143 647.087 24.7838 647.452 24.694Z" fill="#C8A374"/>
<path d="M648.654 23.0182C649.009 22.9284 649.373 23.1479 649.452 23.4971C649.541 23.8564 649.324 24.2156 648.969 24.3054C648.614 24.3952 648.25 24.1757 648.161 23.8264C648.072 23.4672 648.289 23.108 648.654 23.0182Z" fill="#C8A374"/>
<path d="M646.929 22.7194C647.284 22.6296 647.649 22.8491 647.727 23.1983C647.816 23.5575 647.599 23.9167 647.244 24.0065C646.89 24.0963 646.525 23.8768 646.436 23.5276C646.348 23.1684 646.564 22.8092 646.929 22.7194Z" fill="#C8A374"/>
<path d="M645.707 23.8463C646.062 23.7565 646.426 23.976 646.505 24.3253C646.594 24.6845 646.377 25.0437 646.022 25.1335C645.668 25.2233 645.303 25.0038 645.214 24.6545C645.125 24.2953 645.342 23.9361 645.707 23.8463Z" fill="#C8A374"/>
<path d="M659.209 21.83C657.642 21.7202 655.966 22.5584 655.188 23.6061C654.409 24.6538 654.409 26.4599 653.818 26.9688C653.345 27.3679 652.221 27.5375 651.226 28.0963C650.083 28.7449 649.205 29.9422 648.959 31.6585C648.703 33.4745 649.777 34.8016 651.009 35.53C651.955 36.0888 652.744 36.0289 653.571 36.5179C654.389 37.0068 654.793 37.6454 655.503 38.4237C656.163 39.1521 657.238 40.0002 659.002 40.11C660.776 40.2098 661.988 39.5812 662.52 38.723C662.983 37.9747 663.338 37.1365 663.801 36.6176C664.235 36.1187 665.26 35.979 666.098 35.3604C667.152 34.5821 667.793 33.1452 667.615 31.2494C667.527 30.3514 666.945 29.3136 666.196 28.665C665.368 27.9566 663.949 27.5674 663.644 27.1683C663.328 26.7692 663.831 25.4321 662.964 24.1948C662.096 22.9575 660.677 21.9298 659.219 21.83" fill="#E9F4E5"/>
<path d="M659.366 40.5009C659.238 40.5009 659.11 40.5009 658.982 40.4909C657.484 40.4011 656.252 39.8124 655.237 38.6949C655.05 38.4853 654.882 38.2957 654.725 38.1062C654.291 37.5873 653.946 37.1882 653.384 36.8489C653.029 36.6394 652.665 36.5396 652.28 36.4298C651.847 36.3101 651.354 36.1704 650.822 35.8611C649.186 34.8932 648.358 33.3067 648.604 31.6203C648.851 29.9041 649.718 28.5471 651.048 27.7887C651.561 27.4994 652.093 27.3098 652.566 27.1501C652.99 27.0005 653.394 26.8608 653.581 26.7011C653.788 26.5315 653.926 25.9827 654.074 25.4439C654.251 24.7554 654.458 23.987 654.902 23.3884C655.809 22.171 657.622 21.3528 659.238 21.4725C660.707 21.5723 662.254 22.5402 663.259 23.997C663.861 24.8651 663.87 25.7831 663.88 26.3918C663.88 26.6013 663.88 26.8907 663.93 26.9605C664.018 27.0803 664.452 27.2798 664.797 27.4395C665.339 27.6989 665.96 27.9883 666.443 28.3974C667.271 29.1058 667.891 30.2434 667.98 31.2212C668.167 33.137 667.556 34.7535 666.315 35.6715C665.881 35.9908 665.408 36.1903 664.994 36.37C664.59 36.5396 664.245 36.6893 664.077 36.8788C663.811 37.1882 663.565 37.6272 663.309 38.1062C663.161 38.3855 663.003 38.6649 662.836 38.9443C662.225 39.9421 660.943 40.5109 659.376 40.5109L659.366 40.5009ZM658.943 22.191C657.652 22.191 656.193 22.8695 655.483 23.8274C655.129 24.3063 654.941 25.0048 654.774 25.6235C654.587 26.3219 654.429 26.9206 654.054 27.2499C653.759 27.4994 653.315 27.649 652.803 27.8286C652.359 27.9883 651.857 28.1579 651.403 28.4174C650.27 29.056 649.531 30.2234 649.324 31.7102C649.038 33.6958 650.536 34.8233 651.196 35.2125C651.64 35.4819 652.044 35.5917 652.478 35.7114C652.891 35.8212 653.315 35.9409 653.759 36.2003C654.419 36.5995 654.823 37.0684 655.276 37.6072C655.424 37.7869 655.592 37.9764 655.769 38.176C656.656 39.1539 657.721 39.6628 659.022 39.7426C660.49 39.8224 661.692 39.3734 662.215 38.5252C662.372 38.2658 662.53 37.9864 662.668 37.727C662.944 37.2181 663.21 36.7391 663.535 36.37C663.821 36.0507 664.255 35.8611 664.718 35.6715C665.112 35.5019 665.526 35.3322 665.891 35.0628C666.916 34.3045 667.418 32.9275 667.261 31.2811C667.182 30.4928 666.65 29.5349 665.97 28.9462C665.566 28.597 664.994 28.3275 664.491 28.0981C663.969 27.8586 663.565 27.659 663.358 27.3996C663.161 27.1501 663.161 26.8109 663.151 26.3818C663.151 25.8031 663.141 25.0846 662.668 24.4061C661.801 23.1489 660.431 22.2808 659.189 22.191C659.11 22.191 659.031 22.191 658.943 22.191Z" fill="#7DA37E"/>
<path d="M658.046 29.7836C657.947 30.1229 657.593 30.3124 657.267 30.2127C656.942 30.1129 656.755 29.7537 656.853 29.4244C656.952 29.0851 657.297 28.8955 657.632 28.9953C657.957 29.0951 658.145 29.4543 658.046 29.7836Z" fill="#C8A374"/>
<path d="M659.554 29.3051C659.455 29.6443 659.1 29.8339 658.775 29.7341C658.45 29.6344 658.263 29.2751 658.361 28.9459C658.46 28.6066 658.805 28.417 659.14 28.5168C659.465 28.6166 659.652 28.9758 659.554 29.3051Z" fill="#C8A374"/>
<path d="M657.396 31.5395C657.297 31.8787 656.942 32.0683 656.617 31.9685C656.292 31.8687 656.105 31.5095 656.203 31.1802C656.302 30.841 656.647 30.6514 656.982 30.7512C657.307 30.851 657.494 31.2102 657.396 31.5395Z" fill="#C8A374"/>
<path d="M658.352 32.7563C658.253 33.0955 657.898 33.2851 657.573 33.1853C657.248 33.0855 657.061 32.7263 657.159 32.397C657.258 32.0578 657.603 31.8682 657.938 31.968C658.263 32.0678 658.45 32.427 658.352 32.7563Z" fill="#C8A374"/>
<path d="M659.268 31.2309C659.17 31.5701 658.815 31.7597 658.49 31.6599C658.164 31.5601 657.977 31.2009 658.076 30.8716C658.174 30.5324 658.519 30.3428 658.854 30.4426C659.179 30.5424 659.367 30.9016 659.268 31.2309Z" fill="#C8A374"/>
<path d="M660.037 33.0258C659.938 33.365 659.583 33.5546 659.258 33.4548C658.933 33.3551 658.746 32.9958 658.844 32.6666C658.943 32.3273 659.288 32.1377 659.623 32.2375C659.948 32.3373 660.135 32.6965 660.037 33.0258Z" fill="#C8A374"/>
<path d="M661.111 31.7582C661.012 32.0975 660.658 32.287 660.332 32.1873C660.007 32.0875 659.82 31.7283 659.918 31.399C660.017 31.0597 660.362 30.8701 660.697 30.9699C661.022 31.0697 661.209 31.4289 661.111 31.7582Z" fill="#C8A374"/>
<path d="M660.795 30.2133C660.697 30.5525 660.342 30.7421 660.017 30.6423C659.692 30.5426 659.504 30.1833 659.603 29.8541C659.702 29.5148 660.046 29.3252 660.382 29.425C660.707 29.5248 660.894 29.884 660.795 30.2133Z" fill="#C8A374"/>
<path d="M660.904 9.26849C659.594 8.62989 657.869 8.7596 656.834 9.37825C655.799 10.0069 655.188 11.5635 654.498 11.793C653.956 11.9726 652.921 11.7231 651.877 11.8528C650.664 12.0025 649.502 12.7309 648.703 14.1179C647.856 15.5847 648.329 17.1014 649.137 18.169C649.758 18.9872 650.458 19.2068 651 19.9152C651.542 20.6237 651.66 21.3121 652.005 22.2401C652.32 23.0982 652.951 24.2058 654.439 24.9242C655.927 25.6327 657.199 25.5229 657.948 24.9642C658.598 24.4852 659.199 23.8865 659.771 23.5971C660.313 23.3277 661.239 23.5572 662.176 23.3277C663.348 23.0284 664.393 22.0206 664.886 20.3243C665.122 19.5161 664.975 18.4185 664.551 17.6102C664.078 16.7022 662.994 15.884 662.866 15.425C662.737 14.966 663.624 13.9981 663.309 12.6212C662.994 11.2442 662.117 9.86718 660.894 9.26849" fill="#E9F4E5"/>
<path d="M656.43 25.7514C655.77 25.7514 655.04 25.5718 654.301 25.2225C653.04 24.6139 652.192 23.6759 651.699 22.3588C651.611 22.1193 651.532 21.8898 651.463 21.6703C651.266 21.0716 651.108 20.6026 650.743 20.1237C650.507 19.8144 650.231 19.6048 649.935 19.3753C649.6 19.1159 649.226 18.8265 648.881 18.3675C647.806 16.9606 647.639 15.3042 648.427 13.9372C649.226 12.5502 650.448 11.6821 651.847 11.5025C652.389 11.4327 652.911 11.4626 653.375 11.4826C653.798 11.5025 654.193 11.5225 654.409 11.4526C654.646 11.3728 654.961 10.9537 655.257 10.5446C655.651 10.0158 656.095 9.42708 656.676 9.06787C657.879 8.33946 659.722 8.27959 661.062 8.93815C662.294 9.54682 663.289 10.9138 663.654 12.5203C663.871 13.4782 663.565 14.2665 663.368 14.7953C663.299 14.9749 663.201 15.2344 663.21 15.3042C663.25 15.4339 663.546 15.7632 663.792 16.0227C664.176 16.4318 664.61 16.9007 664.876 17.4296C665.339 18.3276 665.487 19.525 665.231 20.4031C664.728 22.1093 663.654 23.2967 662.274 23.646C661.791 23.7657 661.318 23.7757 660.894 23.7757C660.49 23.7757 660.145 23.7757 659.929 23.8954C659.593 24.0651 659.229 24.3644 658.844 24.6837C658.618 24.8733 658.391 25.0629 658.155 25.2325C657.682 25.5817 657.1 25.7514 656.44 25.7514H656.43ZM652.596 12.1411C652.379 12.1411 652.153 12.1411 651.926 12.1811C650.733 12.3307 649.689 13.0791 648.999 14.2865C648.072 15.8929 648.979 17.3897 649.403 17.9584C649.699 18.3476 650.004 18.587 650.329 18.8365C650.645 19.076 650.97 19.3354 651.256 19.7046C651.689 20.2734 651.867 20.8222 652.084 21.4508C652.153 21.6603 652.222 21.8798 652.31 22.1193C652.744 23.2668 653.483 24.085 654.577 24.6139C655.819 25.2026 657.001 25.2325 657.741 24.6937C657.967 24.5241 658.194 24.3444 658.401 24.1648C658.815 23.8256 659.209 23.4963 659.613 23.2967C659.968 23.1171 660.402 23.1171 660.865 23.1072C661.259 23.1072 661.673 23.1072 662.087 22.9974C663.23 22.708 664.137 21.7002 664.561 20.2235C664.768 19.515 664.639 18.5072 664.255 17.7589C664.028 17.3198 663.624 16.8808 663.27 16.5016C662.905 16.1125 662.619 15.8031 662.54 15.5138C662.461 15.2344 662.57 14.935 662.718 14.5658C662.915 14.0669 663.151 13.4483 662.974 12.6899C662.659 11.303 661.781 10.0757 660.747 9.56678C659.455 8.93815 657.859 9.14769 657.001 9.66656C656.528 9.95592 656.134 10.4947 655.779 10.9637C655.385 11.5025 655.04 11.9615 654.597 12.1112C654.262 12.221 653.828 12.201 653.325 12.1711C653.089 12.1611 652.842 12.1511 652.586 12.1511L652.596 12.1411Z" fill="#7DA37E"/>
<path d="M657.179 15.7044C656.972 15.9638 656.607 16.0037 656.361 15.8042C656.114 15.6046 656.075 15.2354 656.282 14.976C656.489 14.7166 656.854 14.6766 657.1 14.8762C657.346 15.0758 657.386 15.445 657.179 15.7044Z" fill="#C8A374"/>
<path d="M658.637 15.8146C658.43 16.0741 658.066 16.114 657.819 15.9144C657.573 15.7148 657.533 15.3457 657.74 15.0862C657.947 14.8368 658.312 14.7869 658.558 14.9964C658.805 15.196 658.844 15.5652 658.637 15.8246" fill="#C8A374"/>
<path d="M656.016 16.972C655.809 17.2314 655.444 17.2713 655.198 17.0718C654.951 16.8722 654.912 16.503 655.119 16.2436C655.326 15.9841 655.69 15.9442 655.937 16.1438C656.183 16.3434 656.223 16.7125 656.016 16.972Z" fill="#C8A374"/>
<path d="M656.41 18.3587C656.203 18.6081 655.839 18.658 655.592 18.4585C655.346 18.2589 655.306 17.8897 655.513 17.6303C655.72 17.3709 656.085 17.3309 656.331 17.5305C656.578 17.7301 656.617 18.0993 656.41 18.3587Z" fill="#C8A374"/>
<path d="M657.731 17.3704C657.524 17.6298 657.159 17.6698 656.913 17.4702C656.666 17.2706 656.627 16.9014 656.834 16.642C657.041 16.3826 657.405 16.3427 657.652 16.5422C657.898 16.7418 657.937 17.111 657.731 17.3704Z" fill="#C8A374"/>
<path d="M657.77 19.1869C657.563 19.4463 657.198 19.4862 656.952 19.2867C656.706 19.0871 656.666 18.7179 656.873 18.4585C657.08 18.1991 657.445 18.1592 657.691 18.3687C657.938 18.5683 657.977 18.9374 657.77 19.1969" fill="#C8A374"/>
<path d="M659.13 18.4682C658.923 18.7276 658.558 18.7675 658.312 18.5679C658.066 18.3684 658.026 17.9992 658.233 17.7397C658.44 17.4803 658.805 17.4404 659.051 17.6499C659.297 17.8495 659.337 18.2187 659.13 18.4781" fill="#C8A374"/>
<path d="M659.396 17.0307C659.189 17.2901 658.824 17.33 658.578 17.1304C658.332 16.9309 658.292 16.5617 658.499 16.3022C658.706 16.0428 659.071 16.0029 659.317 16.2124C659.564 16.412 659.603 16.7812 659.396 17.0406" fill="#C8A374"/>
</g>
<defs>
<clipPath id="clip0_1164_180397">
<rect width="30" height="32" fill="white" transform="translate(638 8.5)"/>
</clipPath>
</defs>
</svg>
