<svg width="511" height="128" viewBox="0 0 511 128" fill="none" xmlns="http://www.w3.org/2000/svg">
<mask id="path-1-inside-1_2388_8372" fill="white">
<path d="M482 0C493.046 3.22129e-07 502 8.95431 502 20V32.1934C502.044 32.2129 502.088 32.2342 502.131 32.2568L509.956 36.3594C511.347 37.0887 511.347 38.9113 509.956 39.6406L502.131 43.7432C502.088 43.7657 502.044 43.7862 502 43.8057V108C502 119.046 493.046 128 482 128H20C8.95431 128 0 119.046 0 108V20C0 8.95431 8.95431 3.22129e-07 20 0H482Z"/>
</mask>
<path d="M482 0C493.046 3.22129e-07 502 8.95431 502 20V32.1934C502.044 32.2129 502.088 32.2342 502.131 32.2568L509.956 36.3594C511.347 37.0887 511.347 38.9113 509.956 39.6406L502.131 43.7432C502.088 43.7657 502.044 43.7862 502 43.8057V108C502 119.046 493.046 128 482 128H20C8.95431 128 0 119.046 0 108V20C0 8.95431 8.95431 3.22129e-07 20 0H482Z" fill="#E8EAF3"/>
<path d="M482 0L482 -3H482V0ZM502 32.1934H499V34.1412L500.779 34.9338L502 32.1934ZM502.131 32.2568L503.524 29.5998L503.524 29.5998L502.131 32.2568ZM509.956 36.3594L508.563 39.0164L508.563 39.0165L509.956 36.3594ZM509.956 39.6406L508.563 36.9835L508.563 36.9836L509.956 39.6406ZM502.131 43.7432L503.524 46.4002L503.524 46.4002L502.131 43.7432ZM502 43.8057L500.779 41.0655L499 41.8582V43.8057H502ZM482 128L482 131H482L482 128ZM20 128L20 131H20V128ZM0 20H-3H0ZM20 0L20 -3L20 -3L20 0ZM482 0L482 3C491.389 3 499 10.6112 499 20H502H505C505 7.29745 494.703 -3 482 -3L482 0ZM502 20H499V32.1934H502H505V20H502ZM502 32.1934L500.779 34.9338C500.762 34.9259 500.748 34.9192 500.738 34.9139L502.131 32.2568L503.524 29.5998C503.427 29.5492 503.326 29.4999 503.221 29.453L502 32.1934ZM502.131 32.2568L500.738 34.9138L508.563 39.0164L509.956 36.3594L511.349 33.7024L503.524 29.5998L502.131 32.2568ZM509.956 36.3594L508.563 39.0165C508.288 38.8723 508 38.4971 508 38C508 37.5029 508.288 37.1277 508.563 36.9835L509.956 39.6406L511.349 42.2977C514.883 40.4451 514.883 35.5549 511.349 33.7023L509.956 36.3594ZM509.956 39.6406L508.563 36.9836L500.738 41.0862L502.131 43.7432L503.524 46.4002L511.349 42.2976L509.956 39.6406ZM502.131 43.7432L500.738 41.0861C500.759 41.0751 500.774 41.0678 500.78 41.0648C500.787 41.0619 500.787 41.0617 500.779 41.0655L502 43.8057L503.221 46.5458C503.289 46.5158 503.399 46.4657 503.524 46.4002L502.131 43.7432ZM502 43.8057H499V108H502H505V43.8057H502ZM502 108H499C499 117.389 491.389 125 482 125L482 128L482 131C494.703 131 505 120.703 505 108H502ZM482 128V125H20V128V131H482V128ZM20 128L20 125C10.6112 125 3 117.389 3 108H0H-3C-3 120.703 7.29745 131 20 131L20 128ZM0 108H3V20H0H-3V108H0ZM0 20L3 20C3 10.6112 10.6112 3 20 3L20 0L20 -3C7.29745 -3 -3 7.29745 -3 20L0 20ZM20 0V3H482V0V-3H20V0Z" fill="#BCC4E7" mask="url(#path-1-inside-1_2388_8372)"/>
</svg>
