<svg width="624" height="76" viewBox="0 0 624 76" fill="none" xmlns="http://www.w3.org/2000/svg">
<mask id="path-1-inside-1_2388_8341" fill="white">
<path d="M29 0C17.9543 9.50279e-06 9 8.95431 9 20V32.1934C8.95621 32.2129 8.91232 32.2342 8.86914 32.2568L1.04395 36.3594C-0.347359 37.0887 -0.347359 38.9113 1.04395 39.6406L8.86914 43.7432C8.9122 43.7657 8.95633 43.7862 9 43.8057V56C9 67.0457 17.9543 76 29 76H604C615.046 76 624 67.0457 624 56V20C624 8.95431 615.046 0 604 0H29Z"/>
</mask>
<path d="M29 0C17.9543 9.50279e-06 9 8.95431 9 20V32.1934C8.95621 32.2129 8.91232 32.2342 8.86914 32.2568L1.04395 36.3594C-0.347359 37.0887 -0.347359 38.9113 1.04395 39.6406L8.86914 43.7432C8.9122 43.7657 8.95633 43.7862 9 43.8057V56C9 67.0457 17.9543 76 29 76H604C615.046 76 624 67.0457 624 56V20C624 8.95431 615.046 0 604 0H29Z" fill="#E8EAF3"/>
<path d="M29 0L29 -3H29V0ZM9 20L6 20V20L9 20ZM9 32.1934H12V34.1412L10.2208 34.9338L9 32.1934ZM8.86914 32.2568L7.47615 29.5998L7.47632 29.5998L8.86914 32.2568ZM1.04395 36.3594L2.43693 39.0164L2.43676 39.0165L1.04395 36.3594ZM1.04395 39.6406L2.43676 36.9835L2.43693 36.9836L1.04395 39.6406ZM8.86914 43.7432L7.47632 46.4002L7.47615 46.4002L8.86914 43.7432ZM9 43.8057L10.2212 41.0655L12 41.8582V43.8057H9ZM9 56L6 56V56H9ZM604 76L604 79H604V76ZM624 56L627 56V56L624 56ZM624 20L627 20V20H624ZM29 0L29 3C19.6112 3.00001 12 10.6112 12 20L9 20L6 20C6 7.29745 16.2975 -2.99999 29 -3L29 0ZM9 20H12V32.1934H9H6V20H9ZM9 32.1934L10.2208 34.9338C10.2384 34.9259 10.2519 34.9192 10.262 34.9139L8.86914 32.2568L7.47632 29.5998C7.57272 29.5492 7.67399 29.4999 7.77925 29.453L9 32.1934ZM8.86914 32.2568L10.2621 34.9138L2.43693 39.0164L1.04395 36.3594L-0.349042 33.7024L7.47615 29.5998L8.86914 32.2568ZM1.04395 36.3594L2.43676 39.0165C2.71185 38.8723 3.00047 38.4971 3.00047 38C3.00047 37.5029 2.71185 37.1277 2.43676 36.9835L1.04395 39.6406L-0.348872 42.2977C-3.88309 40.4451 -3.88309 35.5549 -0.348873 33.7023L1.04395 36.3594ZM1.04395 39.6406L2.43693 36.9836L10.2621 41.0862L8.86914 43.7432L7.47615 46.4002L-0.349042 42.2976L1.04395 39.6406ZM8.86914 43.7432L10.262 41.0861C10.2409 41.0751 10.2259 41.0678 10.2196 41.0648C10.2134 41.0619 10.2127 41.0617 10.2212 41.0655L9 43.8057L7.77876 46.5458C7.71136 46.5158 7.60128 46.4657 7.47632 46.4002L8.86914 43.7432ZM9 43.8057H12V56H9H6V43.8057H9ZM9 56L12 56C12 65.3888 19.6112 73 29 73V76V79C16.2975 79 6 68.7025 6 56L9 56ZM29 76V73H604V76V79H29V76ZM604 76L604 73C613.389 73 621 65.3888 621 56L624 56L627 56C627 68.7025 616.703 79 604 79L604 76ZM624 56H621V20H624H627V56H624ZM624 20L621 20C621 10.6112 613.389 3 604 3V0V-3C616.703 -3 627 7.29745 627 20L624 20ZM604 0V3H29V0V-3H604V0Z" fill="#BCC4E7" mask="url(#path-1-inside-1_2388_8341)"/>
</svg>
