<svg width="503" height="85" viewBox="0 0 503 85" fill="none" xmlns="http://www.w3.org/2000/svg">
<mask id="path-1-inside-1_2388_8380" fill="white">
<path d="M20 0C8.95431 0 3.8658e-07 8.95431 0 20V56C3.86555e-07 67.0457 8.95431 76 20 76H383.252C383.272 76.0438 383.293 76.0877 383.316 76.1309L387.503 83.9561C388.247 85.3474 390.107 85.3474 390.852 83.9561L395.037 76.1309C395.06 76.0877 395.082 76.0438 395.102 76H483C494.046 76 503 67.0457 503 56V20C503 8.95431 494.046 2.81863e-08 483 0H20Z"/>
</mask>
<path d="M20 0C8.95431 0 3.8658e-07 8.95431 0 20V56C3.86555e-07 67.0457 8.95431 76 20 76H383.252C383.272 76.0438 383.293 76.0877 383.316 76.1309L387.503 83.9561C388.247 85.3474 390.107 85.3474 390.852 83.9561L395.037 76.1309C395.06 76.0877 395.082 76.0438 395.102 76H483C494.046 76 503 67.0457 503 56V20C503 8.95431 494.046 2.81863e-08 483 0H20Z" fill="#E8EAF3"/>
<path d="M0 20L-3 20V20L0 20ZM0 56L-3 56V56H0ZM20 76L20 79L20 76ZM383.252 76V73H385.184L385.983 74.7586L383.252 76ZM383.316 76.1309L380.671 77.5461L380.671 77.5458L383.316 76.1309ZM387.503 83.9561L390.148 82.5408L390.148 82.5411L387.503 83.9561ZM390.852 83.9561L388.206 82.5411L388.206 82.5411L390.852 83.9561ZM395.037 76.1309L397.682 77.5458L397.682 77.5458L395.037 76.1309ZM395.102 76L392.37 74.7585L393.17 73H395.102V76ZM503 56L506 56V56L503 56ZM503 20L506 20V20H503ZM483 0L483 -3L483 0ZM20 0V3C10.6112 3 3 10.6112 3 20L0 20L-3 20C-3 7.29745 7.29745 -3 20 -3V0ZM0 20H3V56H0H-3V20H0ZM0 56L3 56C3 65.3888 10.6112 73 20 73L20 76L20 79C7.29745 79 -3 68.7025 -3 56L0 56ZM20 76V73H383.252V76V79H20V76ZM383.252 76L385.983 74.7586C385.98 74.7511 385.973 74.7364 385.962 74.7159L383.316 76.1309L380.671 77.5458C380.614 77.4389 380.564 77.3365 380.521 77.2414L383.252 76ZM383.316 76.1309L385.962 74.7157L390.148 82.5408L387.503 83.9561L384.858 85.3713L380.671 77.5461L383.316 76.1309ZM387.503 83.9561L390.148 82.5411C389.997 82.2583 389.63 81.9995 389.177 81.9995C388.725 81.9995 388.357 82.2583 388.206 82.5411L390.852 83.9561L393.497 85.371C391.622 88.8757 386.732 88.8757 384.858 85.371L387.503 83.9561ZM390.852 83.9561L388.206 82.5411L392.392 74.7159L395.037 76.1309L397.682 77.5458L393.497 85.371L390.852 83.9561ZM395.037 76.1309L392.392 74.7159C392.381 74.7365 392.374 74.7511 392.37 74.7585L395.102 76L397.833 77.2415C397.789 77.3364 397.74 77.4389 397.682 77.5458L395.037 76.1309ZM395.102 76V73H483V76V79H395.102V76ZM483 76V73C492.389 73 500 65.3888 500 56L503 56L506 56C506 68.7025 495.703 79 483 79V76ZM503 56H500V20H503H506V56H503ZM503 20L500 20C500 10.6112 492.389 3 483 3L483 0L483 -3C495.703 -3 506 7.29745 506 20L503 20ZM483 0V3H20V0V-3H483V0Z" fill="#BCC4E7" mask="url(#path-1-inside-1_2388_8380)"/>
</svg>
