<svg width="66" height="67" viewBox="0 0 66 67" fill="none" xmlns="http://www.w3.org/2000/svg">
<path d="M10.4457 66.9103C9.24057 66.6194 8.4926 65.3935 8.78349 64.1884L10.6742 56.3969C10.9651 55.1918 12.191 54.4438 13.4169 54.7347C14.622 55.0255 15.37 56.2514 15.0791 57.4773L13.1883 65.2689C12.8974 66.474 11.6716 67.222 10.4665 66.9311" fill="#7B7A7B"/>
<path d="M55.3036 66.6681C56.5087 66.3772 57.2567 65.1514 56.9658 63.9463L55.0751 56.1547C54.7842 54.9496 53.5583 54.2016 52.3324 54.4925C51.1273 54.7834 50.3793 56.0092 50.6702 57.2351L52.561 65.0267C52.8519 66.2318 54.0777 66.9798 55.3036 66.6889" fill="#7B7A7B"/>
<path d="M41.5069 54.0732H24.7394C16.3037 54.0732 9.38477 47.175 9.38477 38.7185V16.1749C9.38477 7.73923 16.2829 0.820312 24.7394 0.820312H41.5069C49.9425 0.820312 56.8615 7.73923 56.8615 16.1749V38.7185C56.8615 47.1542 49.9633 54.0732 41.5069 54.0732Z" fill="#C0D63C"/>
<path d="M40.4264 50.4612H25.8406C18.5269 50.4612 12.543 44.4772 12.543 37.1843V17.7573C12.543 10.4436 18.5269 4.48047 25.8406 4.48047H40.4264C47.7401 4.48047 53.7033 10.4644 53.7033 17.7573V37.1843C53.7033 44.498 47.7193 50.4612 40.4264 50.4612Z" fill="#CBDD5D"/>
<path d="M46.0368 58.082H20.2103C14.9536 58.082 8.36712 57.5418 4.17006 53.2824C0.305434 49.3762 0.367751 44.5351 0.388529 41.3353V37.72C0.388529 33.4398 3.87917 29.9492 8.15934 29.9492C12.4395 29.9492 15.9301 33.4191 15.9301 37.72V41.5223C15.9301 41.7509 15.9301 42.021 15.9301 42.2703C16.7612 42.4157 17.5924 41.3976 19.6909 41.3976H45.4966C47.5951 41.3976 49.4859 42.395 50.317 42.2703C50.317 42.021 50.317 41.7509 50.317 41.5223V37.72C50.317 33.4398 53.7868 29.9492 58.0878 29.9492C62.3887 29.9492 65.8586 33.4191 65.8586 37.72V41.3353C65.9001 44.5351 65.9624 49.3762 62.0978 53.2824C57.9008 57.5418 51.3143 58.082 46.0576 58.082" fill="#A3C12C"/>
</svg>
