<svg width="78" height="47" viewBox="0 0 78 47" fill="none" xmlns="http://www.w3.org/2000/svg">
<path d="M72.203 46.9987H5.75638C2.7852 46.9987 0.375 44.5885 0.375 41.6173V6.29545C0.375 3.32426 2.7852 0.914062 5.75638 0.914062H72.203C75.1741 0.914062 77.5844 3.32426 77.5844 6.29545V41.6173C77.5844 44.5885 75.1741 46.9987 72.203 46.9987Z" fill="#7EB6E3"/>
<path d="M77.5844 10.6367H0.375V22.6461H77.5844V10.6367Z" fill="#665364"/>
<path d="M63.3092 27.1367H11.6562V37.3593H63.3092V27.1367Z" fill="#D6CFD0"/>
<path d="M59.8822 8.20584H72.2656C72.6604 8.20584 72.9721 7.89418 72.9721 7.49941C72.9721 7.10463 72.6604 6.79297 72.2656 6.79297H59.8822C59.4874 6.79297 59.1758 7.10463 59.1758 7.49941C59.1758 7.89418 59.4874 8.20584 59.8822 8.20584Z" fill="#A19597"/>
</svg>
