<svg width="74" height="66" viewBox="0 0 74 66" fill="none" xmlns="http://www.w3.org/2000/svg">
<path d="M59.473 31.5097C59.4938 32.0292 59.5561 32.5486 59.5561 33.068C59.5561 47.4253 47.9207 59.0607 33.5634 59.0607C19.2062 59.0607 7.57072 47.4253 7.57072 33.068C7.57072 18.7108 19.2062 7.07534 33.5634 7.07534C39.6305 7.07534 45.2196 9.17387 49.6452 12.6853L53.8839 7.30389C48.2947 2.87828 41.2303 0.21875 33.5426 0.21875C15.4039 0.21875 0.693359 14.9293 0.693359 33.068C0.693359 51.2068 15.4039 65.9173 33.5426 65.9173C51.6814 65.9173 66.3919 51.2068 66.3919 33.068C66.3919 32.6525 66.3504 32.2369 66.3296 31.8214L59.4522 31.5305L59.473 31.5097Z" fill="#F49F00"/>
<path d="M49.6253 12.6829C45.1997 9.19228 39.6105 7.09375 33.5435 7.09375C19.1862 7.09375 7.55078 18.7292 7.55078 33.0865C7.55078 47.4437 19.1862 59.0792 33.5435 59.0792C47.9008 59.0792 59.5362 47.4437 59.5362 33.0865C59.5362 32.567 59.4947 32.0476 59.4531 31.5281L35.5381 30.4893L49.6253 12.7037V12.6829Z" fill="#FCD900"/>
<path d="M66.2679 29.2058L73.1453 29.4967C72.7713 19.5651 67.9925 10.7554 60.6996 5L56.4609 10.3814C62.1124 14.8486 65.8316 21.5805 66.2887 29.2058" fill="#F49F00"/>
<path d="M56.4387 10.3762L42.3516 28.1618L66.2665 29.2007C65.8094 21.5546 62.0902 14.8226 56.4387 10.3555" fill="#FCD900"/>
<path d="M22.6762 21.719C22.6762 24.3577 20.5362 26.4771 17.9182 26.4771C15.3003 26.4771 13.1602 24.337 13.1602 21.719C13.1602 19.101 15.3003 16.9609 17.9182 16.9609C20.5362 16.9609 22.6762 19.101 22.6762 21.719Z" fill="#EA5226"/>
<path d="M23.6314 37.2854C23.6314 39.9241 21.4913 42.0435 18.8733 42.0435C16.2553 42.0435 14.1152 39.9034 14.1152 37.2854C14.1152 34.6674 16.2553 32.5273 18.8733 32.5273C21.4913 32.5273 23.6314 34.6674 23.6314 37.2854Z" fill="#EA5226"/>
<path d="M36.5766 49.8088C36.5766 52.4476 34.4365 54.5669 31.8186 54.5669C29.2006 54.5669 27.0605 52.4268 27.0605 49.8088C27.0605 47.1909 29.2006 45.0508 31.8186 45.0508C34.4365 45.0508 36.5766 47.1909 36.5766 49.8088Z" fill="#EA5226"/>
<path d="M53.9458 41.8557C53.9458 44.4945 51.8057 46.6138 49.1878 46.6138C46.5698 46.6138 44.4297 44.4737 44.4297 41.8557C44.4297 39.2377 46.5698 37.0977 49.1878 37.0977C51.8057 37.0977 53.9458 39.2377 53.9458 41.8557Z" fill="#EA5226"/>
<path d="M38.7994 15.4729C38.7994 18.1116 36.6592 20.231 34.0413 20.231C31.4233 20.231 29.2832 18.0909 29.2832 15.4729C29.2832 12.8549 31.4233 10.7148 34.0413 10.7148C36.6592 10.7148 38.7994 12.8549 38.7994 15.4729Z" fill="#EA5226"/>
<path d="M37.5942 32.2776C37.5942 34.9163 35.4542 37.0356 32.8362 37.0356C30.2182 37.0356 28.0781 34.8956 28.0781 32.2776C28.0781 29.6596 30.2182 27.5195 32.8362 27.5195C35.4542 27.5195 37.5942 29.6596 37.5942 32.2776Z" fill="#EA5226"/>
<path d="M58.6626 22.8479C58.6626 25.4867 56.5225 27.606 53.9045 27.606C51.2865 27.606 49.1465 25.4659 49.1465 22.8479C49.1465 20.2299 51.2865 18.0898 53.9045 18.0898C56.5225 18.0898 58.6626 20.2299 58.6626 22.8479Z" fill="#EA5226"/>
<path d="M41.4805 45.7656C41.4805 45.7656 44.3685 50.1705 41.6259 53.8896" stroke="#66B22F" stroke-width="2.54667" stroke-miterlimit="10"/>
<path d="M24.5044 46.1406C24.5044 46.1406 21.2008 46.1406 19.123 50.6909" stroke="#66B22F" stroke-width="2.54667" stroke-miterlimit="10"/>
<path d="M12.1211 28.9492C12.1211 28.9492 13.2223 31.2971 18.1881 29.3648" stroke="#66B22F" stroke-width="2.54667" stroke-miterlimit="10"/>
<path d="M26.2719 16.7969C26.2719 16.7969 25.2123 21.3264 29.9911 23.134" stroke="#66B22F" stroke-width="2.54667" stroke-miterlimit="10"/>
<path d="M42.1855 20.6481C42.1855 20.6481 42.331 14.5811 45.4892 13.75" stroke="#66B22F" stroke-width="2.54667" stroke-miterlimit="10"/>
<path d="M41.8737 32.9688C41.8737 32.9688 39.1103 36.0023 39.8167 37.3736" stroke="#66B22F" stroke-width="2.54667" stroke-miterlimit="10"/>
<path d="M57.457 15.1992C57.457 15.1992 59.9503 18.4405 61.4255 18.025" stroke="#66B22F" stroke-width="2.54667" stroke-miterlimit="10"/>
<path d="M26.4581 31.7837C26.4581 32.8849 25.5646 33.7784 24.4634 33.7784C23.3622 33.7784 22.4688 32.8849 22.4688 31.7837C22.4688 30.6825 23.3622 29.7891 24.4634 29.7891C25.5646 29.7891 26.4581 30.6825 26.4581 31.7837Z" fill="#857C00"/>
<path d="M29.8643 41.2759C29.8643 42.3771 28.9708 43.2705 27.8696 43.2705C26.7684 43.2705 25.875 42.3771 25.875 41.2759C25.875 40.1747 26.7684 39.2812 27.8696 39.2812C28.9708 39.2812 29.8643 40.1747 29.8643 41.2759Z" fill="#857C00"/>
<path d="M38.5908 25.5454C38.5908 26.6466 37.6974 27.5401 36.5962 27.5401C35.495 27.5401 34.6016 26.6466 34.6016 25.5454C34.6016 24.4442 35.495 23.5508 36.5962 23.5508C37.6974 23.5508 38.5908 24.4442 38.5908 25.5454Z" fill="#857C00"/>
<path d="M64.376 25.3579C64.376 26.4591 63.4826 27.3526 62.3814 27.3526C61.2802 27.3526 60.3867 26.4591 60.3867 25.3579C60.3867 24.2567 61.2802 23.3633 62.3814 23.3633C63.4826 23.3633 64.376 24.2567 64.376 25.3579Z" fill="#857C00"/>
<path d="M47.9424 34.3384C47.9424 35.4396 47.049 36.333 45.9478 36.333C44.8465 36.333 43.9531 35.4396 43.9531 34.3384C43.9531 33.2372 44.8465 32.3438 45.9478 32.3438C47.049 32.3438 47.9424 33.2372 47.9424 34.3384Z" fill="#857C00"/>
<path d="M39.0283 42.2485C39.0283 43.3498 38.1349 44.2432 37.0337 44.2432C35.9325 44.2432 35.0391 43.3498 35.0391 42.2485C35.0391 41.1473 35.9325 40.2539 37.0337 40.2539C38.1349 40.2539 39.0283 41.1473 39.0283 42.2485Z" fill="#857C00"/>
</svg>
