<svg width="56" height="30" viewBox="0 0 56 30" fill="none" xmlns="http://www.w3.org/2000/svg">
<path d="M18.8929 3.34375C11.7454 3.34375 5.92773 9.14068 5.92773 16.3089C5.92773 23.4772 11.7247 29.2741 18.8929 29.2741H43.0364C50.1839 29.2741 56.0016 23.4772 56.0016 16.3089C56.0016 9.14068 50.2047 3.34375 43.0364 3.34375H18.8929Z" fill="#C6D27B"/>
<path d="M14.5508 0.203125C6.53071 0.203125 0.0273438 6.7065 0.0273438 14.7266C0.0273438 22.7468 6.53071 29.2501 14.5508 29.2501H35.5777C43.5978 29.2501 50.1012 22.7468 50.1012 14.7266C50.1012 6.7065 43.5978 0.203125 35.5777 0.203125H14.5508Z" fill="white"/>
<path d="M17.6049 9.68108C18.062 8.03965 19.1009 6.77222 19.8281 6.04501C20.2645 5.62946 20.2852 4.9438 19.8697 4.50747L19.745 4.36203C19.4126 3.98803 18.8516 3.88415 18.4153 4.1127C9.5848 8.74609 9.70947 15.0209 9.79258 16.1013C9.79258 16.226 9.79258 16.3299 9.79258 16.4546C9.79258 20.2361 12.8469 23.2904 16.6284 23.2904C20.4099 23.2904 23.4642 20.2361 23.4642 16.4546C23.4642 13.0055 20.9086 10.159 17.6049 9.68108Z" fill="#EFF2DB"/>
<path d="M33.9155 9.68108C34.3726 8.03965 35.4115 6.77222 36.1387 6.04501C36.575 5.62946 36.5958 4.9438 36.1802 4.50747L36.0556 4.36203C35.7231 3.98803 35.1621 3.88415 34.7258 4.1127C25.8953 8.74609 26.02 15.0209 26.1031 16.1013C26.1031 16.226 26.1031 16.3299 26.1031 16.4546C26.1031 20.2361 29.1782 23.2904 32.9389 23.2904C36.6997 23.2904 39.7747 20.2361 39.7747 16.4546C39.7747 13.0055 37.2191 10.159 33.9155 9.68108Z" fill="#EFF2DB"/>
</svg>
