<svg width="57" height="25" viewBox="0 0 57 25" fill="none" xmlns="http://www.w3.org/2000/svg">
<path fill-rule="evenodd" clip-rule="evenodd" d="M15.4332 9.8729V6.62085L15.435 6.62152C15.4105 6.0249 15.6284 5.4206 16.0887 4.96026C16.9628 4.08616 18.3559 4.08616 19.23 4.96026L24.655 10.3853C24.696 10.4208 24.7361 10.4581 24.7751 10.4971C25.2132 10.9352 25.4317 11.5037 25.4306 12.0719C25.4317 12.64 25.2132 13.2085 24.7751 13.6466C24.7361 13.6856 24.696 13.7229 24.655 13.7584L19.23 19.1834C18.3559 20.0575 16.9628 20.0575 16.0887 19.1834C15.6975 18.7922 15.4814 18.297 15.4404 17.7908L15.4332 17.7929V14.298H2.21255C0.983353 14.298 0 13.3146 0 12.0854C0 10.8562 1.01067 9.8729 2.21255 9.8729H15.4332Z" fill="#9FA0A0"/>
<path d="M44.1965 24.1469C50.8615 24.1469 56.27 18.7385 56.27 12.0735C56.27 5.40847 50.8615 0 44.1965 0C37.5315 0 32.123 5.40847 32.123 12.0735C32.123 18.7385 37.5315 24.1469 44.1965 24.1469Z" fill="#8A979F"/>
<path d="M50.4909 11.792V13.072H37.7069V11.792H50.4909ZM49.3869 9.392V10.64H44.5069V9.392H49.3869ZM49.2909 5.776V7.024H46.0749V9.84H44.5069V5.776H49.2909ZM43.7549 5.776V7.024H40.4909V9.84H38.9069V5.776H43.7549ZM39.7229 9.392C40.5549 9.392 41.2855 9.37067 41.9149 9.328C42.5549 9.27467 43.2109 9.17867 43.8829 9.04L44.0429 10.272C43.3495 10.4213 42.6722 10.5227 42.0109 10.576C41.3495 10.6187 40.5869 10.64 39.7229 10.64H38.9069V9.392H39.7229ZM44.6829 14.08V14.448C44.6829 15.2693 44.4482 16.0107 43.9789 16.672C43.5202 17.3333 42.8802 17.8773 42.0589 18.304C41.2375 18.7413 40.2935 19.04 39.2269 19.2L38.6669 17.968C39.5735 17.8507 40.3789 17.6267 41.0829 17.296C41.7975 16.9547 42.3469 16.5387 42.7309 16.048C43.1255 15.5573 43.3229 15.024 43.3229 14.448V14.08H44.6829ZM44.9229 14.08V14.448C44.9229 15.024 45.1149 15.5573 45.4989 16.048C45.8935 16.5387 46.4429 16.9547 47.1469 17.296C47.8509 17.6267 48.6669 17.8507 49.5949 17.968L48.9869 19.2C47.9309 19.04 46.9922 18.7413 46.1709 18.304C45.3602 17.8773 44.7255 17.3333 44.2669 16.672C43.8082 16.0107 43.5789 15.2693 43.5789 14.448V14.08H44.9229Z" fill="white"/>
</svg>
