<svg width="734" height="260" viewBox="0 0 734 260" fill="none" xmlns="http://www.w3.org/2000/svg">
<path d="M349 0H6.72676C3.01761 0 0 3.02022 0 6.73256V178.654C0 182.366 3.01761 185.387 6.72676 185.387H349C352.709 185.387 355.727 182.366 355.727 178.654V6.73256C355.727 3.02022 352.709 0 349 0ZM354.155 178.654C354.155 181.507 351.85 183.814 349 183.814H6.72676C3.87679 183.814 1.57167 181.507 1.57167 178.654V6.73256C1.57167 3.88014 3.87679 1.57303 6.72676 1.57303H349C351.85 1.57303 354.155 3.88014 354.155 6.73256V178.654Z" fill="#F4F8E6"/>
<path d="M727 0H384.727C381.018 0 378 3.02022 378 6.73256V178.654C378 182.366 381.018 185.387 384.727 185.387H727C730.709 185.387 733.727 182.366 733.727 178.654V6.73256C733.727 3.02022 730.709 0 727 0ZM732.155 178.654C732.155 181.507 729.85 183.814 727 183.814H384.727C381.877 183.814 379.572 181.507 379.572 178.654V6.73256C379.572 3.88014 381.877 1.57303 384.727 1.57303H727C729.85 1.57303 732.155 3.88014 732.155 6.73256V178.654Z" fill="#F4F8E6"/>
<path d="M386.295 51H725.735C730.291 51 734 53.6604 734 56.9283V254.072C734 257.34 730.291 260 725.735 260H386.295C381.738 260 378 257.34 378 254.051V56.9493C378 53.6814 381.709 51 386.295 51Z" fill="#F4F8E6"/>
<path d="M8.29469 51H347.735C352.291 51 356 53.6604 356 56.9283V254.072C356 257.34 352.291 260 347.735 260H8.29469C3.73845 260 0 257.34 0 254.051V56.9493C0 53.6814 3.70925 51 8.29469 51Z" fill="#F4F8E6"/>
<rect x="38" y="61" width="280" height="42" rx="10" fill="white"/>
<rect x="38" y="208" width="280" height="42" rx="10" fill="white"/>
<path d="M103.036 31.722C102.537 30.0207 102.288 28.466 102.288 27.058C102.288 25.65 102.537 24.1027 103.036 22.416C103.549 20.7147 104.195 19.2407 104.972 17.994H107.216C106.321 19.226 105.588 20.6853 105.016 22.372C104.459 24.0587 104.18 25.6207 104.18 27.058C104.18 28.4953 104.459 30.0573 105.016 31.744C105.588 33.4307 106.321 34.89 107.216 36.122H104.972C104.195 34.8753 103.549 33.4087 103.036 31.722ZM115.325 35.044L113.235 35.022V21.36L110.551 22.966L109.605 21.25L113.257 19.094H115.325V35.044ZM123.098 22.416C123.596 24.1027 123.846 25.65 123.846 27.058C123.846 28.466 123.596 30.0207 123.098 31.722C122.599 33.4087 121.961 34.8753 121.184 36.122H118.94C119.82 34.9047 120.538 33.4527 121.096 31.766C121.668 30.0647 121.954 28.4953 121.954 27.058C121.954 25.6207 121.668 24.0587 121.096 22.372C120.538 20.6707 119.82 19.2113 118.94 17.994H121.184C121.961 19.2407 122.599 20.7147 123.098 22.416ZM147.189 17.268V31.832H145.033V17.268H147.189ZM149.961 23.472V25.276H146.573V23.472H149.961ZM143.515 19.49V21.206H132.053V19.49H143.515ZM137.773 22.152C138.697 22.152 139.511 22.306 140.215 22.614C140.933 22.9073 141.491 23.3327 141.887 23.89C142.297 24.4473 142.503 25.0927 142.503 25.826C142.503 26.5447 142.297 27.19 141.887 27.762C141.491 28.3193 140.933 28.752 140.215 29.06C139.511 29.3533 138.697 29.5 137.773 29.5C136.863 29.5 136.049 29.3533 135.331 29.06C134.627 28.752 134.077 28.3193 133.681 27.762C133.285 27.19 133.087 26.5447 133.087 25.826C133.087 25.0927 133.285 24.4473 133.681 23.89C134.077 23.3327 134.627 22.9073 135.331 22.614C136.049 22.306 136.863 22.152 137.773 22.152ZM137.773 23.802C136.981 23.802 136.343 23.9853 135.859 24.352C135.389 24.704 135.155 25.1953 135.155 25.826C135.155 26.442 135.389 26.9333 135.859 27.3C136.343 27.652 136.981 27.828 137.773 27.828C138.565 27.828 139.203 27.652 139.687 27.3C140.171 26.9333 140.413 26.442 140.413 25.826C140.413 25.1953 140.171 24.704 139.687 24.352C139.203 23.9853 138.565 23.802 137.773 23.802ZM138.873 17.246V20.348H136.695V17.246H138.873ZM148.025 34.56V36.32H134.913V34.56H148.025ZM137.069 30.688V35.308H134.913V30.688H137.069ZM157.595 20.15V22.944C157.595 24.3227 157.361 25.6867 156.891 27.036C156.437 28.3853 155.791 29.588 154.955 30.644C154.119 31.6853 153.173 32.47 152.117 32.998L150.885 31.304C151.839 30.8347 152.697 30.1527 153.459 29.258C154.222 28.3487 154.816 27.344 155.241 26.244C155.667 25.1293 155.879 24.0293 155.879 22.944V20.15H157.595ZM158.013 20.15V22.944C158.013 23.9413 158.219 24.968 158.629 26.024C159.04 27.0653 159.619 28.0113 160.367 28.862C161.115 29.7127 161.966 30.3653 162.919 30.82L161.709 32.536C160.639 32.008 159.693 31.2453 158.871 30.248C158.065 29.236 157.434 28.0993 156.979 26.838C156.525 25.562 156.297 24.264 156.297 22.944V20.15H158.013ZM162.171 19.182V20.986H151.589V19.182H162.171ZM166.307 17.246V36.716H164.129V17.246H166.307ZM169.343 24.946V26.75H165.823V24.946H169.343ZM191.53 17.224V36.738H189.352V17.224H191.53ZM181.19 18.676C182.158 18.676 183.016 18.9547 183.764 19.512C184.527 20.0693 185.121 20.8687 185.546 21.91C185.971 22.9513 186.184 24.154 186.184 25.518C186.184 26.8967 185.971 28.1067 185.546 29.148C185.121 30.1893 184.527 30.996 183.764 31.568C183.016 32.1253 182.158 32.404 181.19 32.404C180.207 32.404 179.335 32.1253 178.572 31.568C177.824 30.996 177.237 30.1893 176.812 29.148C176.387 28.1067 176.174 26.8967 176.174 25.518C176.174 24.154 176.387 22.9513 176.812 21.91C177.237 20.8687 177.824 20.0693 178.572 19.512C179.335 18.9547 180.207 18.676 181.19 18.676ZM181.19 20.634C180.603 20.634 180.09 20.832 179.65 21.228C179.21 21.624 178.865 22.1887 178.616 22.922C178.381 23.6553 178.264 24.5207 178.264 25.518C178.264 26.53 178.381 27.41 178.616 28.158C178.865 28.8913 179.21 29.456 179.65 29.852C180.09 30.248 180.603 30.446 181.19 30.446C181.762 30.446 182.268 30.248 182.708 29.852C183.148 29.456 183.493 28.884 183.742 28.136C183.991 27.388 184.116 26.5153 184.116 25.518C184.116 24.5207 183.991 23.6553 183.742 22.922C183.493 22.1887 183.148 21.624 182.708 21.228C182.268 20.832 181.762 20.634 181.19 20.634ZM212.409 27.19V28.95H194.765V27.19H212.409ZM210.165 17.708V22.504H199.121V24.924H197.009V20.942H208.031V19.358H196.965V17.708H210.165ZM210.583 24.11V25.782H197.009V24.11H210.583ZM210.209 30.49V36.474H197.097V30.49H210.209ZM199.209 32.184V34.758H208.097V32.184H199.209ZM229.029 18.434C229.029 20.9127 228.245 23.0173 226.675 24.748C225.121 26.464 222.913 27.7253 220.053 28.532L219.195 26.838C221.615 26.1633 223.478 25.1807 224.783 23.89C226.103 22.5993 226.763 21.1033 226.763 19.402V18.434H229.029ZM228.259 18.434V20.172H220.229V18.434H228.259ZM235.167 17.246V28.268H233.011V17.246H235.167ZM233.341 22.108V23.89H229.095V22.108H233.341ZM235.167 29.06V36.452H222.495V29.06H235.167ZM224.629 30.798V34.736H233.033V30.798H224.629ZM243.836 18.39V20.876C243.836 21.9173 243.66 22.9367 243.308 23.934C242.971 24.9313 242.465 25.826 241.79 26.618C241.115 27.3953 240.294 27.9967 239.326 28.422L238.16 26.75C238.996 26.3687 239.715 25.8627 240.316 25.232C240.917 24.6013 241.365 23.9047 241.658 23.142C241.966 22.3793 242.12 21.624 242.12 20.876V18.39H243.836ZM244.21 18.39V20.876C244.21 21.624 244.357 22.3427 244.65 23.032C244.943 23.7213 245.369 24.352 245.926 24.924C246.498 25.4813 247.202 25.9287 248.038 26.266L246.872 27.916C245.479 27.344 244.401 26.42 243.638 25.144C242.89 23.868 242.516 22.4453 242.516 20.876V18.39H244.21ZM254.748 17.268V29.038H252.68V17.268H254.748ZM253.318 22.196V23.956H249.864V22.196H253.318ZM250.568 17.576V28.928H248.522V17.576H250.568ZM254.748 30.028V36.716H252.592V31.766H241.548V30.028H254.748Z" fill="black"/>
<path d="M147.52 92.0366C153.324 92.0366 158.019 87.3385 158.019 81.5288C158.019 75.7191 153.324 71 147.52 71C141.715 71 137 75.7191 137 81.5288C137 87.3385 141.715 92.0366 147.52 92.0366Z" fill="#F39800"/>
<path d="M148.023 83.4976V88.3845H149.679V74.2272H148.023V77.3943H146.053C145.55 76.0939 144.649 75.234 143.308 75.234C141.045 75.234 140.039 77.6669 140.039 80.5193C140.039 83.3718 141.024 85.8467 143.308 85.8467C144.712 85.8467 145.634 84.9028 146.116 83.4976H148.023ZM152.633 73.9336H150.978V89.0976H152.633V73.9336ZM144.922 80.5403C144.922 82.7426 144.419 84.3156 143.329 84.3156C142.239 84.3156 141.736 82.7216 141.736 80.5403C141.736 78.359 142.26 76.7231 143.329 76.7231C144.398 76.7231 144.922 78.3381 144.922 80.5403ZM146.556 80.5403C146.556 79.9321 146.514 79.3238 146.41 78.7575H148.002V82.1343H146.431C146.493 81.6309 146.535 81.0856 146.535 80.5403" fill="white"/>
<path d="M178.976 72.928C178.976 75.648 178.096 77.952 176.336 79.84C174.576 81.712 172.104 83.072 168.92 83.92L168.032 82.048C170.736 81.344 172.824 80.296 174.296 78.904C175.768 77.496 176.504 75.872 176.504 74.032V72.928H178.976ZM177.944 72.928V74.824H169.184V72.928H177.944ZM185.336 71.632V83.536H182.96V71.632H185.336ZM185.336 84.52V92.584H171.488V84.52H185.336ZM173.816 86.416V90.712H183.032V86.416H173.816ZM191.049 85.816C192.841 85.816 194.281 85.784 195.369 85.72C196.457 85.656 197.553 85.52 198.657 85.312L198.897 87.256C197.745 87.464 196.609 87.608 195.489 87.688C194.385 87.752 192.905 87.784 191.049 87.784H189.633V85.816H191.049ZM198.057 73.96V75.88H191.865V86.56H189.633V73.96H198.057ZM197.721 79.576V81.424H191.193V79.576H197.721ZM206.937 71.632V92.872H204.705V71.632H206.937ZM205.497 80.032V81.952H201.633V80.032H205.497ZM202.257 72.064V91.84H200.049V72.064H202.257ZM229.329 74.584V76.528H225.681V74.584H229.329ZM229.329 79.144V81.088H225.681V79.144H229.329ZM215.745 72.856C216.801 72.856 217.753 73.072 218.601 73.504C219.465 73.92 220.137 74.52 220.617 75.304C221.113 76.072 221.361 76.944 221.361 77.92C221.361 78.88 221.113 79.752 220.617 80.536C220.137 81.304 219.465 81.904 218.601 82.336C217.753 82.752 216.801 82.96 215.745 82.96C214.673 82.96 213.705 82.752 212.841 82.336C211.993 81.904 211.329 81.304 210.849 80.536C210.369 79.768 210.129 78.896 210.129 77.92C210.129 76.928 210.369 76.048 210.849 75.28C211.329 74.512 211.993 73.92 212.841 73.504C213.705 73.072 214.673 72.856 215.745 72.856ZM215.745 74.848C215.121 74.848 214.553 74.976 214.041 75.232C213.529 75.488 213.129 75.848 212.841 76.312C212.553 76.776 212.409 77.312 212.409 77.92C212.409 78.528 212.553 79.064 212.841 79.528C213.129 79.992 213.521 80.352 214.017 80.608C214.529 80.864 215.105 80.992 215.745 80.992C216.385 80.992 216.953 80.864 217.449 80.608C217.961 80.352 218.361 79.992 218.649 79.528C218.937 79.064 219.081 78.528 219.081 77.92C219.081 77.312 218.937 76.776 218.649 76.312C218.361 75.848 217.961 75.488 217.449 75.232C216.937 74.976 216.369 74.848 215.745 74.848ZM226.377 71.632V84.136H224.025V71.632H226.377ZM219.561 84.712C221.001 84.712 222.249 84.88 223.305 85.216C224.377 85.536 225.193 86 225.753 86.608C226.329 87.216 226.617 87.944 226.617 88.792C226.617 89.624 226.329 90.352 225.753 90.976C225.193 91.584 224.377 92.048 223.305 92.368C222.249 92.688 221.001 92.848 219.561 92.848C218.121 92.848 216.865 92.688 215.793 92.368C214.737 92.048 213.921 91.584 213.345 90.976C212.785 90.352 212.505 89.624 212.505 88.792C212.505 87.944 212.785 87.216 213.345 86.608C213.921 86 214.737 85.536 215.793 85.216C216.865 84.88 218.121 84.712 219.561 84.712ZM219.561 86.608C218.569 86.608 217.721 86.688 217.017 86.848C216.313 87.008 215.769 87.256 215.385 87.592C215.017 87.928 214.833 88.328 214.833 88.792C214.833 89.256 215.017 89.656 215.385 89.992C215.769 90.312 216.313 90.56 217.017 90.736C217.721 90.912 218.569 91 219.561 91C220.553 91 221.401 90.912 222.105 90.736C222.825 90.56 223.369 90.312 223.737 89.992C224.105 89.656 224.289 89.256 224.289 88.792C224.289 88.328 224.105 87.928 223.737 87.592C223.369 87.256 222.825 87.008 222.105 86.848C221.401 86.688 220.553 86.608 219.561 86.608Z" fill="black"/>
<rect x="156" y="117" width="117.177" height="32.8378" fill="white"/>
<path d="M273.271 151.269H156V117H273.271V151.269ZM158.344 148.923H270.927V119.346H158.344V148.923Z" fill="#91B8DE"/>
<path d="M272.099 118.203H240.203V150.126H272.099V118.203Z" fill="#91B8DE"/>
<path d="M237.744 132.203L234.533 135.44L231.322 132.203H237.744Z" fill="#91B8DE"/>
<path d="M255.437 139.221C251.851 139.221 248.945 136.312 248.945 132.724C248.945 129.135 251.851 126.227 255.437 126.227C259.023 126.227 261.928 129.135 261.928 132.724C261.928 136.312 259.023 139.221 255.437 139.221ZM255.437 127.399C252.507 127.399 250.117 129.792 250.117 132.724C250.117 135.656 252.507 138.048 255.437 138.048C258.366 138.048 260.757 135.656 260.757 132.724C260.757 129.792 258.366 127.399 255.437 127.399Z" fill="white"/>
<path d="M264.201 142.665C264.037 142.665 263.873 142.595 263.755 142.454L259.397 137.106C259.186 136.848 259.232 136.496 259.49 136.285C259.748 136.074 260.123 136.121 260.31 136.379L264.669 141.727C264.88 141.985 264.834 142.337 264.576 142.548C264.459 142.642 264.341 142.689 264.201 142.689V142.665Z" fill="white"/>
<path d="M82.9888 125.435V138.675H81.0288V125.435H82.9888ZM85.5088 131.075V132.715H82.4288V131.075H85.5088ZM79.6488 127.455V129.015H69.2288V127.455H79.6488ZM74.4288 129.875C75.2688 129.875 76.0088 130.015 76.6488 130.295C77.3021 130.561 77.8088 130.948 78.1688 131.455C78.5421 131.961 78.7288 132.548 78.7288 133.215C78.7288 133.868 78.5421 134.455 78.1688 134.975C77.8088 135.481 77.3021 135.875 76.6488 136.155C76.0088 136.421 75.2688 136.555 74.4288 136.555C73.6021 136.555 72.8621 136.421 72.2088 136.155C71.5688 135.875 71.0688 135.481 70.7088 134.975C70.3488 134.455 70.1688 133.868 70.1688 133.215C70.1688 132.548 70.3488 131.961 70.7088 131.455C71.0688 130.948 71.5688 130.561 72.2088 130.295C72.8621 130.015 73.6021 129.875 74.4288 129.875ZM74.4288 131.375C73.7088 131.375 73.1288 131.541 72.6888 131.875C72.2621 132.195 72.0488 132.641 72.0488 133.215C72.0488 133.775 72.2621 134.221 72.6888 134.555C73.1288 134.875 73.7088 135.035 74.4288 135.035C75.1488 135.035 75.7288 134.875 76.1688 134.555C76.6088 134.221 76.8288 133.775 76.8288 133.215C76.8288 132.641 76.6088 132.195 76.1688 131.875C75.7288 131.541 75.1488 131.375 74.4288 131.375ZM75.4288 125.415V128.235H73.4488V125.415H75.4288ZM83.7488 141.155V142.755H71.8288V141.155H83.7488ZM73.7888 137.635V141.835H71.8288V137.635H73.7888ZM92.4492 128.055V130.595C92.4492 131.848 92.2359 133.088 91.8092 134.315C91.3959 135.541 90.8092 136.635 90.0492 137.595C89.2892 138.541 88.4292 139.255 87.4692 139.735L86.3492 138.195C87.2159 137.768 87.9959 137.148 88.6892 136.335C89.3826 135.508 89.9226 134.595 90.3092 133.595C90.6959 132.581 90.8892 131.581 90.8892 130.595V128.055H92.4492ZM92.8292 128.055V130.595C92.8292 131.501 93.0159 132.435 93.3892 133.395C93.7626 134.341 94.2892 135.201 94.9692 135.975C95.6492 136.748 96.4226 137.341 97.2892 137.755L96.1892 139.315C95.2159 138.835 94.3559 138.141 93.6092 137.235C92.8759 136.315 92.3026 135.281 91.8892 134.135C91.4759 132.975 91.2692 131.795 91.2692 130.595V128.055H92.8292ZM96.6092 127.175V128.815H86.9892V127.175H96.6092ZM100.369 125.415V143.115H98.3892V125.415H100.369ZM103.129 132.415V134.055H99.9292V132.415H103.129ZM114.559 126.895V129.815C114.559 131.175 114.359 132.495 113.959 133.775C113.559 135.041 112.986 136.168 112.239 137.155C111.506 138.141 110.646 138.888 109.659 139.395L108.479 137.795C109.359 137.368 110.139 136.735 110.819 135.895C111.512 135.055 112.039 134.108 112.399 133.055C112.772 131.988 112.959 130.908 112.959 129.815V126.895H114.559ZM114.899 126.895V129.815C114.899 130.868 115.079 131.908 115.439 132.935C115.812 133.948 116.326 134.855 116.979 135.655C117.632 136.455 118.392 137.068 119.259 137.495L118.059 139.055C117.099 138.561 116.259 137.841 115.539 136.895C114.832 135.948 114.286 134.861 113.899 133.635C113.526 132.408 113.339 131.135 113.339 129.815V126.895H114.899ZM122.459 125.415V143.115H120.479V125.415H122.459ZM125.239 132.455V134.095H122.019V132.455H125.239ZM139.98 130.175V131.775H135.64V130.175H139.98ZM140.88 125.435V138.355H138.92V125.435H140.88ZM141.34 141.155V142.755H129.42V141.155H141.34ZM131.4 137.235V142.035H129.42V137.235H131.4ZM132.18 127.655V128.975C132.18 130.055 131.98 131.081 131.58 132.055C131.18 133.028 130.606 133.881 129.86 134.615C129.126 135.335 128.246 135.875 127.22 136.235L126.22 134.675C127.113 134.368 127.886 133.921 128.54 133.335C129.206 132.748 129.713 132.081 130.06 131.335C130.406 130.575 130.58 129.788 130.58 128.975V127.655H132.18ZM132.56 127.655V128.975C132.56 129.708 132.726 130.428 133.06 131.135C133.393 131.841 133.873 132.475 134.5 133.035C135.14 133.581 135.886 134.001 136.74 134.295L135.78 135.835C134.78 135.488 133.913 134.968 133.18 134.275C132.46 133.581 131.913 132.781 131.54 131.875C131.166 130.968 130.98 130.001 130.98 128.975V127.655H132.56ZM136.28 126.755V128.335H126.8V126.755H136.28Z" fill="black"/>
<path d="M186.98 127.875V129.495H183.94V127.875H186.98ZM186.98 131.675V133.295H183.94V131.675H186.98ZM175.66 126.435C176.54 126.435 177.333 126.615 178.04 126.975C178.76 127.321 179.32 127.821 179.72 128.475C180.133 129.115 180.34 129.841 180.34 130.655C180.34 131.455 180.133 132.181 179.72 132.835C179.32 133.475 178.76 133.975 178.04 134.335C177.333 134.681 176.54 134.855 175.66 134.855C174.767 134.855 173.96 134.681 173.24 134.335C172.533 133.975 171.98 133.475 171.58 132.835C171.18 132.195 170.98 131.468 170.98 130.655C170.98 129.828 171.18 129.095 171.58 128.455C171.98 127.815 172.533 127.321 173.24 126.975C173.96 126.615 174.767 126.435 175.66 126.435ZM175.66 128.095C175.14 128.095 174.667 128.201 174.24 128.415C173.813 128.628 173.48 128.928 173.24 129.315C173 129.701 172.88 130.148 172.88 130.655C172.88 131.161 173 131.608 173.24 131.995C173.48 132.381 173.807 132.681 174.22 132.895C174.647 133.108 175.127 133.215 175.66 133.215C176.193 133.215 176.667 133.108 177.08 132.895C177.507 132.681 177.84 132.381 178.08 131.995C178.32 131.608 178.44 131.161 178.44 130.655C178.44 130.148 178.32 129.701 178.08 129.315C177.84 128.928 177.507 128.628 177.08 128.415C176.653 128.201 176.18 128.095 175.66 128.095ZM184.52 125.415V135.835H182.56V125.415H184.52ZM178.84 136.315C180.04 136.315 181.08 136.455 181.96 136.735C182.853 137.001 183.533 137.388 184 137.895C184.48 138.401 184.72 139.008 184.72 139.715C184.72 140.408 184.48 141.015 184 141.535C183.533 142.041 182.853 142.428 181.96 142.695C181.08 142.961 180.04 143.095 178.84 143.095C177.64 143.095 176.593 142.961 175.7 142.695C174.82 142.428 174.14 142.041 173.66 141.535C173.193 141.015 172.96 140.408 172.96 139.715C172.96 139.008 173.193 138.401 173.66 137.895C174.14 137.388 174.82 137.001 175.7 136.735C176.593 136.455 177.64 136.315 178.84 136.315ZM178.84 137.895C178.013 137.895 177.307 137.961 176.72 138.095C176.133 138.228 175.68 138.435 175.36 138.715C175.053 138.995 174.9 139.328 174.9 139.715C174.9 140.101 175.053 140.435 175.36 140.715C175.68 140.981 176.133 141.188 176.72 141.335C177.307 141.481 178.013 141.555 178.84 141.555C179.667 141.555 180.373 141.481 180.96 141.335C181.56 141.188 182.013 140.981 182.32 140.715C182.627 140.435 182.78 140.101 182.78 139.715C182.78 139.328 182.627 138.995 182.32 138.715C182.013 138.435 181.56 138.228 180.96 138.095C180.373 137.961 179.667 137.895 178.84 137.895Z" fill="black"/>
<path d="M199.44 175.18V176.62H189.9V181.66H187.94V175.18H199.44ZM199.74 180.9V182.34H187.94V180.9H199.74ZM199.16 178.02V179.42H189.24V178.02H199.16ZM197.86 167.28V168.82H193.14V167.28H197.86ZM197.86 170.56V172.1H193.14V170.56H197.86ZM199.36 164.86V174.34H197.4V164.86H199.36ZM187.48 165.7V168.14H191.74V165.7H193.68V173.64H185.54V165.7H187.48ZM187.48 172.1H191.74V169.62H187.48V172.1ZM223.07 167.32V168.94H220.03V167.32H223.07ZM223.07 171.12V172.74H220.03V171.12H223.07ZM211.75 165.88C212.63 165.88 213.423 166.06 214.13 166.42C214.85 166.767 215.41 167.267 215.81 167.92C216.223 168.56 216.43 169.287 216.43 170.1C216.43 170.9 216.223 171.627 215.81 172.28C215.41 172.92 214.85 173.42 214.13 173.78C213.423 174.127 212.63 174.3 211.75 174.3C210.857 174.3 210.05 174.127 209.33 173.78C208.623 173.42 208.07 172.92 207.67 172.28C207.27 171.64 207.07 170.913 207.07 170.1C207.07 169.273 207.27 168.54 207.67 167.9C208.07 167.26 208.623 166.767 209.33 166.42C210.05 166.06 210.857 165.88 211.75 165.88ZM211.75 167.54C211.23 167.54 210.757 167.647 210.33 167.86C209.903 168.073 209.57 168.373 209.33 168.76C209.09 169.147 208.97 169.593 208.97 170.1C208.97 170.607 209.09 171.053 209.33 171.44C209.57 171.827 209.897 172.127 210.31 172.34C210.737 172.553 211.217 172.66 211.75 172.66C212.283 172.66 212.757 172.553 213.17 172.34C213.597 172.127 213.93 171.827 214.17 171.44C214.41 171.053 214.53 170.607 214.53 170.1C214.53 169.593 214.41 169.147 214.17 168.76C213.93 168.373 213.597 168.073 213.17 167.86C212.743 167.647 212.27 167.54 211.75 167.54ZM220.61 164.86V175.28H218.65V164.86H220.61ZM214.93 175.76C216.13 175.76 217.17 175.9 218.05 176.18C218.943 176.447 219.623 176.833 220.09 177.34C220.57 177.847 220.81 178.453 220.81 179.16C220.81 179.853 220.57 180.46 220.09 180.98C219.623 181.487 218.943 181.873 218.05 182.14C217.17 182.407 216.13 182.54 214.93 182.54C213.73 182.54 212.683 182.407 211.79 182.14C210.91 181.873 210.23 181.487 209.75 180.98C209.283 180.46 209.05 179.853 209.05 179.16C209.05 178.453 209.283 177.847 209.75 177.34C210.23 176.833 210.91 176.447 211.79 176.18C212.683 175.9 213.73 175.76 214.93 175.76ZM214.93 177.34C214.103 177.34 213.397 177.407 212.81 177.54C212.223 177.673 211.77 177.88 211.45 178.16C211.143 178.44 210.99 178.773 210.99 179.16C210.99 179.547 211.143 179.88 211.45 180.16C211.77 180.427 212.223 180.633 212.81 180.78C213.397 180.927 214.103 181 214.93 181C215.757 181 216.463 180.927 217.05 180.78C217.65 180.633 218.103 180.427 218.41 180.16C218.717 179.88 218.87 179.547 218.87 179.16C218.87 178.773 218.717 178.44 218.41 178.16C218.103 177.88 217.65 177.673 217.05 177.54C216.463 177.407 215.757 177.34 214.93 177.34Z" fill="black"/>
<rect x="416" y="208" width="280" height="42" rx="10" fill="white"/>
<path d="M444.668 134.295V137.375H442.708V134.295H444.668ZM451.688 133.615V135.195H435.708V133.615H451.688ZM443.688 136.835C445.595 136.835 447.082 137.108 448.148 137.655C449.228 138.201 449.768 138.975 449.768 139.975C449.768 140.961 449.228 141.728 448.148 142.275C447.082 142.821 445.595 143.095 443.688 143.095C441.768 143.095 440.268 142.821 439.188 142.275C438.122 141.728 437.588 140.961 437.588 139.975C437.588 138.975 438.122 138.201 439.188 137.655C440.268 137.108 441.768 136.835 443.688 136.835ZM443.688 138.335C442.355 138.335 441.335 138.475 440.628 138.755C439.922 139.035 439.568 139.441 439.568 139.975C439.568 140.508 439.922 140.915 440.628 141.195C441.335 141.461 442.355 141.595 443.688 141.595C445.008 141.595 446.022 141.461 446.728 141.195C447.435 140.915 447.788 140.508 447.788 139.975C447.788 139.441 447.435 139.035 446.728 138.755C446.022 138.475 445.008 138.335 443.688 138.335ZM444.128 126.975V127.455C444.128 128.361 443.828 129.188 443.228 129.935C442.642 130.668 441.822 131.275 440.768 131.755C439.728 132.235 438.542 132.548 437.208 132.695L436.508 131.135C437.642 131.028 438.655 130.795 439.548 130.435C440.442 130.075 441.135 129.635 441.628 129.115C442.135 128.595 442.388 128.041 442.388 127.455V126.975H444.128ZM445.028 126.975V127.455C445.028 128.041 445.275 128.595 445.768 129.115C446.275 129.635 446.975 130.075 447.868 130.435C448.762 130.795 449.768 131.028 450.888 131.135L450.188 132.695C448.855 132.548 447.662 132.235 446.608 131.755C445.568 131.275 444.748 130.668 444.148 129.935C443.562 129.188 443.268 128.361 443.268 127.455V126.975H445.028ZM450.268 126.215V127.775H437.168V126.215H450.268ZM466.529 126.235V127.815H455.209V126.235H466.529ZM469.229 132.475V134.055H453.189V132.475H469.229ZM462.169 133.575V137.575H460.209V133.575H462.169ZM467.209 126.235V127.575C467.209 128.615 467.175 129.555 467.109 130.395C467.055 131.221 466.902 132.161 466.649 133.215L464.729 133.035C464.982 131.995 465.135 131.081 465.189 130.295C465.255 129.495 465.289 128.588 465.289 127.575V126.235H467.209ZM467.289 137.015V143.115H465.349V138.595H454.829V137.015H467.289ZM475.429 126.715C476.283 126.715 477.049 126.968 477.729 127.475C478.409 127.981 478.936 128.708 479.309 129.655C479.696 130.601 479.889 131.695 479.889 132.935C479.889 134.188 479.696 135.288 479.309 136.235C478.936 137.181 478.409 137.915 477.729 138.435C477.063 138.941 476.289 139.195 475.409 139.195C474.556 139.195 473.789 138.941 473.109 138.435C472.429 137.915 471.896 137.181 471.509 136.235C471.136 135.288 470.949 134.188 470.949 132.935C470.949 131.695 471.136 130.601 471.509 129.655C471.896 128.708 472.429 127.981 473.109 127.475C473.789 126.968 474.563 126.715 475.429 126.715ZM475.429 128.495C474.909 128.495 474.449 128.675 474.049 129.035C473.663 129.395 473.356 129.908 473.129 130.575C472.916 131.241 472.809 132.028 472.809 132.935C472.809 133.855 472.916 134.655 473.129 135.335C473.356 136.001 473.663 136.515 474.049 136.875C474.449 137.235 474.903 137.415 475.409 137.415C475.929 137.415 476.389 137.235 476.789 136.875C477.189 136.515 477.496 136.001 477.709 135.335C477.923 134.655 478.029 133.855 478.029 132.935C478.029 132.028 477.923 131.241 477.709 130.575C477.496 129.908 477.189 129.395 476.789 129.035C476.389 128.675 475.936 128.495 475.429 128.495ZM485.329 125.395V143.135H483.369V125.395H485.329ZM484.229 132.015V133.595H479.269V132.015H484.229ZM498.559 126.895V129.815C498.559 131.175 498.359 132.495 497.959 133.775C497.559 135.041 496.986 136.168 496.239 137.155C495.506 138.141 494.646 138.888 493.659 139.395L492.479 137.795C493.359 137.368 494.139 136.735 494.819 135.895C495.512 135.055 496.039 134.108 496.399 133.055C496.772 131.988 496.959 130.908 496.959 129.815V126.895H498.559ZM498.899 126.895V129.815C498.899 130.868 499.079 131.908 499.439 132.935C499.812 133.948 500.326 134.855 500.979 135.655C501.632 136.455 502.392 137.068 503.259 137.495L502.059 139.055C501.099 138.561 500.259 137.841 499.539 136.895C498.832 135.948 498.286 134.861 497.899 133.635C497.526 132.408 497.339 131.135 497.339 129.815V126.895H498.899ZM506.459 125.415V143.115H504.479V125.415H506.459ZM509.239 132.455V134.095H506.019V132.455H509.239ZM523.98 130.175V131.775H519.64V130.175H523.98ZM524.88 125.435V138.355H522.92V125.435H524.88ZM525.34 141.155V142.755H513.42V141.155H525.34ZM515.4 137.235V142.035H513.42V137.235H515.4ZM516.18 127.655V128.975C516.18 130.055 515.98 131.081 515.58 132.055C515.18 133.028 514.606 133.881 513.86 134.615C513.126 135.335 512.246 135.875 511.22 136.235L510.22 134.675C511.113 134.368 511.886 133.921 512.54 133.335C513.206 132.748 513.713 132.081 514.06 131.335C514.406 130.575 514.58 129.788 514.58 128.975V127.655H516.18ZM516.56 127.655V128.975C516.56 129.708 516.726 130.428 517.06 131.135C517.393 131.841 517.873 132.475 518.5 133.035C519.14 133.581 519.886 134.001 520.74 134.295L519.78 135.835C518.78 135.488 517.913 134.968 517.18 134.275C516.46 133.581 515.913 132.781 515.54 131.875C515.166 130.968 514.98 130.001 514.98 128.975V127.655H516.56ZM520.28 126.755V128.335H510.8V126.755H520.28Z" fill="black"/>
<rect x="537.73" y="117" width="117.177" height="32.8378" fill="white"/>
<path d="M655.001 151.269H537.73V117H655.001V151.269ZM540.074 148.923H652.657V119.346H540.074V148.923Z" fill="#91B8DE"/>
<path d="M653.829 118.203H621.934V150.126H653.829V118.203Z" fill="#91B8DE"/>
<path d="M619.474 132.203L616.263 135.44L613.053 132.203H619.474Z" fill="#91B8DE"/>
<path d="M637.167 139.221C633.582 139.221 630.676 136.312 630.676 132.724C630.676 129.135 633.582 126.227 637.167 126.227C640.753 126.227 643.659 129.135 643.659 132.724C643.659 136.312 640.753 139.221 637.167 139.221ZM637.167 127.399C634.238 127.399 631.848 129.792 631.848 132.724C631.848 135.656 634.238 138.048 637.167 138.048C640.097 138.048 642.487 135.656 642.487 132.724C642.487 129.792 640.097 127.399 637.167 127.399Z" fill="white"/>
<path d="M645.931 142.665C645.767 142.665 645.603 142.595 645.486 142.454L641.127 137.106C640.916 136.848 640.963 136.496 641.221 136.285C641.479 136.074 641.853 136.121 642.041 136.379L646.4 141.727C646.611 141.985 646.564 142.337 646.306 142.548C646.189 142.642 646.072 142.689 645.931 142.689V142.665Z" fill="white"/>
<path d="M406.465 31.722C405.966 30.0207 405.717 28.466 405.717 27.058C405.717 25.65 405.966 24.1027 406.465 22.416C406.978 20.7147 407.623 19.2407 408.401 17.994H410.645C409.75 19.226 409.017 20.6853 408.445 22.372C407.887 24.0587 407.609 25.6207 407.609 27.058C407.609 28.4953 407.887 30.0573 408.445 31.744C409.017 33.4307 409.75 34.89 410.645 36.122H408.401C407.623 34.8753 406.978 33.4087 406.465 31.722ZM413.429 33.218C413.796 32.866 414.141 32.5507 414.463 32.272C414.786 31.9787 415.138 31.656 415.519 31.304C416.751 30.1893 417.734 29.258 418.467 28.51C419.215 27.762 419.846 26.9993 420.359 26.222C420.873 25.43 421.129 24.6967 421.129 24.022C421.129 23.3913 421.005 22.834 420.755 22.35C420.521 21.866 420.183 21.4847 419.743 21.206C419.303 20.9273 418.797 20.788 418.225 20.788C417.58 20.788 416.964 21.008 416.377 21.448C415.805 21.8733 415.365 22.416 415.057 23.076L413.209 22.284C413.635 21.2867 414.317 20.4727 415.255 19.842C416.209 19.2113 417.199 18.896 418.225 18.896C419.208 18.896 420.073 19.116 420.821 19.556C421.569 19.9813 422.156 20.5827 422.581 21.36C423.007 22.1373 423.219 23.0247 423.219 24.022C423.219 24.99 422.919 25.9727 422.317 26.97C421.716 27.9527 420.997 28.8693 420.161 29.72C419.325 30.556 418.24 31.5607 416.905 32.734C416.143 33.394 415.453 34.01 414.837 34.582L413.429 33.218ZM413.429 33.218H423.483V35.044H413.649L413.429 33.218ZM430.2 22.416C430.699 24.1027 430.948 25.65 430.948 27.058C430.948 28.466 430.699 30.0207 430.2 31.722C429.702 33.4087 429.064 34.8753 428.286 36.122H426.042C426.922 34.9047 427.641 33.4527 428.198 31.766C428.77 30.0647 429.056 28.4953 429.056 27.058C429.056 25.6207 428.77 24.0587 428.198 22.372C427.641 20.6707 426.922 19.2113 426.042 17.994H428.286C429.064 19.2407 429.702 20.7147 430.2 22.416ZM448.967 27.014V30.402H446.811V27.014H448.967ZM456.689 26.266V28.004H439.111V26.266H456.689ZM447.889 29.808C449.987 29.808 451.622 30.1087 452.795 30.71C453.983 31.3113 454.577 32.162 454.577 33.262C454.577 34.3473 453.983 35.1907 452.795 35.792C451.622 36.3933 449.987 36.694 447.889 36.694C445.777 36.694 444.127 36.3933 442.939 35.792C441.766 35.1907 441.179 34.3473 441.179 33.262C441.179 32.162 441.766 31.3113 442.939 30.71C444.127 30.1087 445.777 29.808 447.889 29.808ZM447.889 31.458C446.423 31.458 445.301 31.612 444.523 31.92C443.746 32.228 443.357 32.6753 443.357 33.262C443.357 33.8487 443.746 34.296 444.523 34.604C445.301 34.8973 446.423 35.044 447.889 35.044C449.341 35.044 450.456 34.8973 451.233 34.604C452.011 34.296 452.399 33.8487 452.399 33.262C452.399 32.6753 452.011 32.228 451.233 31.92C450.456 31.612 449.341 31.458 447.889 31.458ZM448.373 18.962V19.49C448.373 20.4873 448.043 21.3967 447.383 22.218C446.738 23.0247 445.836 23.692 444.677 24.22C443.533 24.748 442.228 25.0927 440.761 25.254L439.991 23.538C441.238 23.4207 442.353 23.164 443.335 22.768C444.318 22.372 445.081 21.888 445.623 21.316C446.181 20.744 446.459 20.1353 446.459 19.49V18.962H448.373ZM449.363 18.962V19.49C449.363 20.1353 449.635 20.744 450.177 21.316C450.735 21.888 451.505 22.372 452.487 22.768C453.47 23.164 454.577 23.4207 455.809 23.538L455.039 25.254C453.573 25.0927 452.26 24.748 451.101 24.22C449.957 23.692 449.055 23.0247 448.395 22.218C447.75 21.3967 447.427 20.4873 447.427 19.49V18.962H449.363ZM455.127 18.126V19.842H440.717V18.126H455.127ZM473.014 18.148V19.886H460.562V18.148H473.014ZM475.984 25.012V26.75H458.34V25.012H475.984ZM468.218 26.222V30.622H466.062V26.222H468.218ZM473.762 18.148V19.622C473.762 20.766 473.725 21.8 473.652 22.724C473.593 23.6333 473.425 24.6673 473.146 25.826L471.034 25.628C471.313 24.484 471.481 23.4793 471.54 22.614C471.613 21.734 471.65 20.7367 471.65 19.622V18.148H473.762ZM473.85 30.006V36.716H471.716V31.744H460.144V30.006H473.85ZM482.804 18.676C483.743 18.676 484.586 18.9547 485.334 19.512C486.082 20.0693 486.662 20.8687 487.072 21.91C487.498 22.9513 487.71 24.154 487.71 25.518C487.71 26.8967 487.498 28.1067 487.072 29.148C486.662 30.1893 486.082 30.996 485.334 31.568C484.601 32.1253 483.75 32.404 482.782 32.404C481.844 32.404 481 32.1253 480.252 31.568C479.504 30.996 478.918 30.1893 478.492 29.148C478.082 28.1067 477.876 26.8967 477.876 25.518C477.876 24.154 478.082 22.9513 478.492 21.91C478.918 20.8687 479.504 20.0693 480.252 19.512C481 18.9547 481.851 18.676 482.804 18.676ZM482.804 20.634C482.232 20.634 481.726 20.832 481.286 21.228C480.861 21.624 480.524 22.1887 480.274 22.922C480.04 23.6553 479.922 24.5207 479.922 25.518C479.922 26.53 480.04 27.41 480.274 28.158C480.524 28.8913 480.861 29.456 481.286 29.852C481.726 30.248 482.225 30.446 482.782 30.446C483.354 30.446 483.86 30.248 484.3 29.852C484.74 29.456 485.078 28.8913 485.312 28.158C485.547 27.41 485.664 26.53 485.664 25.518C485.664 24.5207 485.547 23.6553 485.312 22.922C485.078 22.1887 484.74 21.624 484.3 21.228C483.86 20.832 483.362 20.634 482.804 20.634ZM493.694 17.224V36.738H491.538V17.224H493.694ZM492.484 24.506V26.244H487.028V24.506H492.484ZM508.247 18.874V22.086C508.247 23.582 508.027 25.034 507.587 26.442C507.147 27.8353 506.517 29.0747 505.695 30.16C504.889 31.2453 503.943 32.0667 502.857 32.624L501.559 30.864C502.527 30.3947 503.385 29.698 504.133 28.774C504.896 27.85 505.475 26.8087 505.871 25.65C506.282 24.4767 506.487 23.2887 506.487 22.086V18.874H508.247ZM508.621 18.874V22.086C508.621 23.2447 508.819 24.3887 509.215 25.518C509.626 26.6327 510.191 27.63 510.909 28.51C511.628 29.39 512.464 30.0647 513.417 30.534L512.097 32.25C511.041 31.7073 510.117 30.9153 509.325 29.874C508.548 28.8327 507.947 27.6373 507.521 26.288C507.111 24.9387 506.905 23.538 506.905 22.086V18.874H508.621ZM516.937 17.246V36.716H514.759V17.246H516.937ZM519.995 24.99V26.794H516.453V24.99H519.995ZM536.21 22.482V24.242H531.436V22.482H536.21ZM537.2 17.268V31.48H535.044V17.268H537.2ZM537.706 34.56V36.32H524.594V34.56H537.706ZM526.772 30.248V35.528H524.594V30.248H526.772ZM527.63 19.71V21.162C527.63 22.35 527.41 23.4793 526.97 24.55C526.53 25.6207 525.899 26.5593 525.078 27.366C524.271 28.158 523.303 28.752 522.174 29.148L521.074 27.432C522.056 27.0947 522.907 26.6033 523.626 25.958C524.359 25.3127 524.916 24.5793 525.298 23.758C525.679 22.922 525.87 22.0567 525.87 21.162V19.71H527.63ZM528.048 19.71V21.162C528.048 21.9687 528.231 22.7607 528.598 23.538C528.964 24.3153 529.492 25.012 530.182 25.628C530.886 26.2293 531.707 26.6913 532.646 27.014L531.59 28.708C530.49 28.3267 529.536 27.7547 528.73 26.992C527.938 26.2293 527.336 25.3493 526.926 24.352C526.515 23.3547 526.31 22.2913 526.31 21.162V19.71H528.048ZM532.14 18.72V20.458H521.712V18.72H532.14ZM551.676 24.66V26.42H548.156V24.66H551.676ZM556.912 17.246V36.716H554.866V17.246H556.912ZM552.974 17.642V35.77H550.95V17.642H552.974ZM544.68 18.764C545.531 18.764 546.272 19.0427 546.902 19.6C547.533 20.1573 548.017 20.9567 548.354 21.998C548.706 23.0393 548.882 24.2567 548.882 25.65C548.882 27.058 548.706 28.2827 548.354 29.324C548.017 30.3653 547.533 31.1647 546.902 31.722C546.272 32.2793 545.531 32.558 544.68 32.558C543.844 32.558 543.111 32.2793 542.48 31.722C541.864 31.1647 541.38 30.3653 541.028 29.324C540.691 28.2827 540.522 27.058 540.522 25.65C540.522 24.2567 540.691 23.0393 541.028 21.998C541.38 20.9567 541.864 20.1573 542.48 19.6C543.111 19.0427 543.844 18.764 544.68 18.764ZM544.68 20.81C544.226 20.81 543.837 21.0007 543.514 21.382C543.192 21.7487 542.942 22.2987 542.766 23.032C542.59 23.7507 542.502 24.6233 542.502 25.65C542.502 26.6767 542.59 27.5567 542.766 28.29C542.942 29.0233 543.192 29.5807 543.514 29.962C543.837 30.3433 544.226 30.534 544.68 30.534C545.135 30.534 545.524 30.3433 545.846 29.962C546.184 29.5807 546.44 29.0233 546.616 28.29C546.807 27.5567 546.902 26.6767 546.902 25.65C546.902 24.6233 546.807 23.7507 546.616 23.032C546.44 22.2987 546.184 21.7487 545.846 21.382C545.524 21.0007 545.135 20.81 544.68 20.81ZM574.601 23.67V25.408H569.299V23.67H574.601ZM566.131 18.852V22.086C566.131 23.6113 565.911 25.078 565.471 26.486C565.031 27.894 564.407 29.1407 563.601 30.226C562.794 31.2967 561.848 32.1107 560.763 32.668L559.421 30.952C560.403 30.468 561.269 29.764 562.017 28.84C562.779 27.9013 563.359 26.8453 563.755 25.672C564.165 24.4987 564.371 23.3033 564.371 22.086V18.852H566.131ZM566.549 18.852V22.086C566.549 23.2887 566.747 24.462 567.143 25.606C567.539 26.7353 568.103 27.74 568.837 28.62C569.57 29.5 570.428 30.16 571.411 30.6L570.135 32.338C569.035 31.7953 568.081 31.0033 567.275 29.962C566.483 28.9207 565.867 27.7253 565.427 26.376C565.001 25.012 564.789 23.582 564.789 22.086V18.852H566.549ZM575.657 17.224V36.738H573.523V17.224H575.657ZM599.032 17.268V31.832H596.876V17.268H599.032ZM601.804 23.472V25.276H598.416V23.472H601.804ZM595.358 19.49V21.206H583.896V19.49H595.358ZM589.616 22.152C590.54 22.152 591.354 22.306 592.058 22.614C592.776 22.9073 593.334 23.3327 593.73 23.89C594.14 24.4473 594.346 25.0927 594.346 25.826C594.346 26.5447 594.14 27.19 593.73 27.762C593.334 28.3193 592.776 28.752 592.058 29.06C591.354 29.3533 590.54 29.5 589.616 29.5C588.706 29.5 587.892 29.3533 587.174 29.06C586.47 28.752 585.92 28.3193 585.524 27.762C585.128 27.19 584.93 26.5447 584.93 25.826C584.93 25.0927 585.128 24.4473 585.524 23.89C585.92 23.3327 586.47 22.9073 587.174 22.614C587.892 22.306 588.706 22.152 589.616 22.152ZM589.616 23.802C588.824 23.802 588.186 23.9853 587.702 24.352C587.232 24.704 586.998 25.1953 586.998 25.826C586.998 26.442 587.232 26.9333 587.702 27.3C588.186 27.652 588.824 27.828 589.616 27.828C590.408 27.828 591.046 27.652 591.53 27.3C592.014 26.9333 592.256 26.442 592.256 25.826C592.256 25.1953 592.014 24.704 591.53 24.352C591.046 23.9853 590.408 23.802 589.616 23.802ZM590.716 17.246V20.348H588.538V17.246H590.716ZM599.868 34.56V36.32H586.756V34.56H599.868ZM588.912 30.688V35.308H586.756V30.688H588.912ZM622.824 18.038V19.798H610.372V18.038H622.824ZM625.794 24.352V26.09H608.15V24.352H625.794ZM623.572 18.038V19.358C623.572 20.3407 623.543 21.25 623.484 22.086C623.426 22.922 623.286 23.8533 623.066 24.88L620.954 24.66C621.174 23.648 621.314 22.7533 621.372 21.976C621.431 21.184 621.46 20.3113 621.46 19.358V18.038H623.572ZM623.616 27.784V32.932H612.374V35.374H610.24V31.304H621.46V29.478H610.174V27.784H623.616ZM624.1 34.824V36.54H610.24V34.824H624.1ZM633.737 20.15V22.944C633.737 24.3227 633.502 25.6867 633.033 27.036C632.578 28.3853 631.933 29.588 631.097 30.644C630.261 31.6853 629.315 32.47 628.259 32.998L627.027 31.304C627.98 30.8347 628.838 30.1527 629.601 29.258C630.364 28.3487 630.958 27.344 631.383 26.244C631.808 25.1293 632.021 24.0293 632.021 22.944V20.15H633.737ZM634.155 20.15V22.944C634.155 23.9413 634.36 24.968 634.771 26.024C635.182 27.0653 635.761 28.0113 636.509 28.862C637.257 29.7127 638.108 30.3653 639.061 30.82L637.851 32.536C636.78 32.008 635.834 31.2453 635.013 30.248C634.206 29.236 633.576 28.0993 633.121 26.838C632.666 25.562 632.439 24.264 632.439 22.944V20.15H634.155ZM638.313 19.182V20.986H627.731V19.182H638.313ZM642.449 17.246V36.716H640.271V17.246H642.449ZM645.485 24.946V26.75H641.965V24.946H645.485ZM662.931 29.61V36.716H660.731V31.348H649.423V29.61H662.931ZM662.931 17.246V28.642H660.731V17.246H662.931ZM650.875 18.368V20.084C650.875 21.096 650.765 22.0933 650.545 23.076C650.34 24.0587 649.988 24.968 649.489 25.804C648.991 26.6253 648.338 27.2853 647.531 27.784L646.343 26.222C647.062 25.7967 647.641 25.2467 648.081 24.572C648.521 23.8827 648.837 23.1567 649.027 22.394C649.218 21.6167 649.313 20.8467 649.313 20.084V18.368H650.875ZM651.359 18.368V20.084C651.359 20.832 651.433 21.5947 651.579 22.372C651.741 23.1347 652.019 23.8753 652.415 24.594C652.811 25.298 653.354 25.892 654.043 26.376L653.009 27.982C652.203 27.454 651.565 26.75 651.095 25.87C650.626 24.99 650.296 24.0587 650.105 23.076C649.929 22.0787 649.841 21.0813 649.841 20.084V18.368H651.359ZM656.177 18.368V20.084C656.177 21.1253 656.089 22.1447 655.913 23.142C655.737 24.1247 655.415 25.0487 654.945 25.914C654.476 26.7793 653.831 27.4687 653.009 27.982L651.953 26.376C652.643 25.9067 653.185 25.32 653.581 24.616C653.977 23.912 654.249 23.1787 654.395 22.416C654.557 21.6533 654.637 20.876 654.637 20.084V18.368H656.177ZM656.683 18.368V20.084C656.683 20.8907 656.779 21.6827 656.969 22.46C657.16 23.2373 657.475 23.956 657.915 24.616C658.355 25.276 658.935 25.8113 659.653 26.222L658.443 27.784C657.27 27.08 656.419 26.046 655.891 24.682C655.378 23.3033 655.121 21.7707 655.121 20.084V18.368H656.683ZM680.872 18.434C680.872 20.9127 680.088 23.0173 678.518 24.748C676.964 26.464 674.756 27.7253 671.896 28.532L671.038 26.838C673.458 26.1633 675.321 25.1807 676.626 23.89C677.946 22.5993 678.606 21.1033 678.606 19.402V18.434H680.872ZM680.102 18.434V20.172H672.072V18.434H680.102ZM687.01 17.246V28.268H684.854V17.246H687.01ZM685.184 22.108V23.89H680.938V22.108H685.184ZM687.01 29.06V36.452H674.338V29.06H687.01ZM676.472 30.798V34.736H684.876V30.798H676.472ZM695.679 18.39V20.876C695.679 21.9173 695.503 22.9367 695.151 23.934C694.813 24.9313 694.307 25.826 693.633 26.618C692.958 27.3953 692.137 27.9967 691.169 28.422L690.003 26.75C690.839 26.3687 691.557 25.8627 692.159 25.232C692.76 24.6013 693.207 23.9047 693.501 23.142C693.809 22.3793 693.963 21.624 693.963 20.876V18.39H695.679ZM696.053 18.39V20.876C696.053 21.624 696.199 22.3427 696.493 23.032C696.786 23.7213 697.211 24.352 697.769 24.924C698.341 25.4813 699.045 25.9287 699.881 26.266L698.715 27.916C697.321 27.344 696.243 26.42 695.481 25.144C694.733 23.868 694.359 22.4453 694.359 20.876V18.39H696.053ZM706.591 17.268V29.038H704.523V17.268H706.591ZM705.161 22.196V23.956H701.707V22.196H705.161ZM702.411 17.576V28.928H700.365V17.576H702.411ZM706.591 30.028V36.716H704.435V31.766H693.391V30.028H706.591Z" fill="black"/>
<rect x="416" y="61" width="280" height="42" rx="10" fill="white"/>
<path d="M276.51 218.771C276.51 218.771 276.376 218.771 276.318 218.733C276.068 218.639 275.953 218.357 276.068 218.113C308.262 144.006 276.145 90.2316 275.819 89.705C275.684 89.4793 275.761 89.1972 275.972 89.0655C276.203 88.9338 276.491 89.0091 276.625 89.216C276.951 89.7614 309.318 143.95 276.951 218.47C276.875 218.658 276.702 218.752 276.51 218.752V218.771Z" fill="#337955"/>
<path d="M273.676 225.001L281.981 215.88L277.023 216.937L274.327 212.543L273.676 225.001Z" fill="#337955"/>
<path d="M659.834 218.771C659.834 218.771 659.7 218.771 659.642 218.733C659.393 218.639 659.277 218.357 659.393 218.113C691.586 144.006 659.469 90.2316 659.143 89.705C659.009 89.4793 659.085 89.1972 659.297 89.0655C659.527 88.9338 659.815 89.0091 659.949 89.216C660.276 89.7614 692.642 143.95 660.276 218.47C660.199 218.658 660.026 218.752 659.834 218.752V218.771Z" fill="#337955"/>
<path d="M657 225.001L665.305 215.88L660.347 216.937L657.651 212.543L657 225.001Z" fill="#337955"/>
</svg>
