<svg width="734" height="100" viewBox="0 0 734 100" fill="none" xmlns="http://www.w3.org/2000/svg">
<rect width="68" height="100" rx="10" fill="#FEECD2"/>
<path d="M33.12 30.78V32.42H29.92V30.78H33.12ZM30.44 23.84V41.56H28.46V23.84H30.44ZM19.32 25.58V36.54H17.38V25.58H19.32ZM18.82 35.5C20.1933 35.5 21.5533 35.44 22.9 35.32C24.26 35.2 25.6267 35 27 34.72L27.22 36.34C25.82 36.6333 24.4333 36.84 23.06 36.96C21.7 37.0667 20.2867 37.12 18.82 37.12H17.38V35.5H18.82ZM39.9005 25.1C40.8071 25.1 41.6205 25.28 42.3405 25.64C43.0738 26 43.6471 26.5067 44.0605 27.16C44.4738 27.8 44.6805 28.5267 44.6805 29.34C44.6805 30.1533 44.4738 30.8867 44.0605 31.54C43.6471 32.18 43.0738 32.68 42.3405 33.04C41.6205 33.4 40.8071 33.58 39.9005 33.58C38.9805 33.58 38.1538 33.4 37.4205 33.04C36.7005 32.68 36.1338 32.18 35.7205 31.54C35.3071 30.9 35.1005 30.1667 35.1005 29.34C35.1005 28.5267 35.3071 27.8 35.7205 27.16C36.1338 26.5067 36.7005 26 37.4205 25.64C38.1538 25.28 38.9805 25.1 39.9005 25.1ZM39.9005 26.8C39.3538 26.8 38.8605 26.9067 38.4205 27.12C37.9805 27.32 37.6338 27.6133 37.3805 28C37.1405 28.3867 37.0205 28.8333 37.0205 29.34C37.0205 29.8333 37.1405 30.28 37.3805 30.68C37.6338 31.0667 37.9805 31.3667 38.4205 31.58C38.8605 31.7933 39.3538 31.9 39.9005 31.9C40.4471 31.9 40.9338 31.7933 41.3605 31.58C41.8005 31.3667 42.1405 31.0667 42.3805 30.68C42.6338 30.28 42.7605 29.8333 42.7605 29.34C42.7605 28.8333 42.6338 28.3867 42.3805 28C42.1405 27.6133 41.8005 27.32 41.3605 27.12C40.9338 26.9067 40.4471 26.8 39.9005 26.8ZM48.7205 23.84V41.58H46.7605V23.84H48.7205ZM34.2605 36.2C36.5405 36.2 38.5938 36.1667 40.4205 36.1C42.2471 36.02 44.0005 35.8533 45.6805 35.6L45.8205 37.02C44.1005 37.3533 42.3271 37.5733 40.5005 37.68C38.6738 37.7733 36.6738 37.82 34.5005 37.82L34.2605 36.2ZM31.26 53.84V71.58H29.28V53.84H31.26ZM21.86 55.16C22.74 55.16 23.52 55.4133 24.2 55.92C24.8933 56.4267 25.4333 57.1533 25.82 58.1C26.2067 59.0467 26.4 60.14 26.4 61.38C26.4 62.6333 26.2067 63.7333 25.82 64.68C25.4333 65.6267 24.8933 66.36 24.2 66.88C23.52 67.3867 22.74 67.64 21.86 67.64C20.9667 67.64 20.1733 67.3867 19.48 66.88C18.8 66.36 18.2667 65.6267 17.88 64.68C17.4933 63.7333 17.3 62.6333 17.3 61.38C17.3 60.14 17.4933 59.0467 17.88 58.1C18.2667 57.1533 18.8 56.4267 19.48 55.92C20.1733 55.4133 20.9667 55.16 21.86 55.16ZM21.86 56.94C21.3267 56.94 20.86 57.12 20.46 57.48C20.06 57.84 19.7467 58.3533 19.52 59.02C19.3067 59.6867 19.2 60.4733 19.2 61.38C19.2 62.3 19.3067 63.1 19.52 63.78C19.7467 64.4467 20.06 64.96 20.46 65.32C20.86 65.68 21.3267 65.86 21.86 65.86C22.38 65.86 22.84 65.68 23.24 65.32C23.64 64.96 23.9533 64.44 24.18 63.76C24.4067 63.08 24.52 62.2867 24.52 61.38C24.52 60.4733 24.4067 59.6867 24.18 59.02C23.9533 58.3533 23.64 57.84 23.24 57.48C22.84 57.12 22.38 56.94 21.86 56.94ZM50.2405 62.9V64.5H34.2005V62.9H50.2405ZM48.2005 54.28V58.64H38.1605V60.84H36.2405V57.22H46.2605V55.78H36.2005V54.28H48.2005ZM48.5805 60.1V61.62H36.2405V60.1H48.5805ZM48.2405 65.9V71.34H36.3205V65.9H48.2405ZM38.2405 67.44V69.78H46.3205V67.44H38.2405Z" fill="#898989"/>
<path d="M104.52 18.88V32.12H102.56V18.88H104.52ZM107.04 24.52V26.16H103.96V24.52H107.04ZM101.18 20.9V22.46H90.76V20.9H101.18ZM95.96 23.32C96.8 23.32 97.54 23.46 98.18 23.74C98.8333 24.0067 99.34 24.3933 99.7 24.9C100.073 25.4067 100.26 25.9933 100.26 26.66C100.26 27.3133 100.073 27.9 99.7 28.42C99.34 28.9267 98.8333 29.32 98.18 29.6C97.54 29.8667 96.8 30 95.96 30C95.1333 30 94.3933 29.8667 93.74 29.6C93.1 29.32 92.6 28.9267 92.24 28.42C91.88 27.9 91.7 27.3133 91.7 26.66C91.7 25.9933 91.88 25.4067 92.24 24.9C92.6 24.3933 93.1 24.0067 93.74 23.74C94.3933 23.46 95.1333 23.32 95.96 23.32ZM95.96 24.82C95.24 24.82 94.66 24.9867 94.22 25.32C93.7933 25.64 93.58 26.0867 93.58 26.66C93.58 27.22 93.7933 27.6667 94.22 28C94.66 28.32 95.24 28.48 95.96 28.48C96.68 28.48 97.26 28.32 97.7 28C98.14 27.6667 98.36 27.22 98.36 26.66C98.36 26.0867 98.14 25.64 97.7 25.32C97.26 24.9867 96.68 24.82 95.96 24.82ZM96.96 18.86V21.68H94.98V18.86H96.96ZM105.28 34.6V36.2H93.36V34.6H105.28ZM95.32 31.08V35.28H93.36V31.08H95.32ZM121.54 19.58V21.18H110.22V19.58H121.54ZM124.24 25.32V26.9H108.2V25.32H124.24ZM122.22 19.58V20.78C122.22 21.6733 122.194 22.5 122.14 23.26C122.087 24.02 121.96 24.8667 121.76 25.8L119.84 25.6C120.04 24.68 120.167 23.8667 120.22 23.16C120.274 22.44 120.3 21.6467 120.3 20.78V19.58H122.22ZM122.26 28.44V33.12H112.04V35.34H110.1V31.64H120.3V29.98H110.04V28.44H122.26ZM122.7 34.84V36.4H110.1V34.84H122.7Z" fill="#F39800"/>
<path d="M104.52 68.88V82.12H102.56V68.88H104.52ZM107.04 74.52V76.16H103.96V74.52H107.04ZM101.18 70.9V72.46H90.76V70.9H101.18ZM95.96 73.32C96.8 73.32 97.54 73.46 98.18 73.74C98.8333 74.0067 99.34 74.3933 99.7 74.9C100.073 75.4067 100.26 75.9933 100.26 76.66C100.26 77.3133 100.073 77.9 99.7 78.42C99.34 78.9267 98.8333 79.32 98.18 79.6C97.54 79.8667 96.8 80 95.96 80C95.1333 80 94.3933 79.8667 93.74 79.6C93.1 79.32 92.6 78.9267 92.24 78.42C91.88 77.9 91.7 77.3133 91.7 76.66C91.7 75.9933 91.88 75.4067 92.24 74.9C92.6 74.3933 93.1 74.0067 93.74 73.74C94.3933 73.46 95.1333 73.32 95.96 73.32ZM95.96 74.82C95.24 74.82 94.66 74.9867 94.22 75.32C93.7933 75.64 93.58 76.0867 93.58 76.66C93.58 77.22 93.7933 77.6667 94.22 78C94.66 78.32 95.24 78.48 95.96 78.48C96.68 78.48 97.26 78.32 97.7 78C98.14 77.6667 98.36 77.22 98.36 76.66C98.36 76.0867 98.14 75.64 97.7 75.32C97.26 74.9867 96.68 74.82 95.96 74.82ZM96.96 68.86V71.68H94.98V68.86H96.96ZM105.28 84.6V86.2H93.36V84.6H105.28ZM95.32 81.08V85.28H93.36V81.08H95.32ZM113.98 71.5V74.04C113.98 75.2933 113.767 76.5333 113.34 77.76C112.927 78.9867 112.34 80.08 111.58 81.04C110.82 81.9867 109.96 82.7 109 83.18L107.88 81.64C108.747 81.2133 109.527 80.5933 110.22 79.78C110.914 78.9533 111.454 78.04 111.84 77.04C112.227 76.0267 112.42 75.0267 112.42 74.04V71.5H113.98ZM114.36 71.5V74.04C114.36 74.9467 114.547 75.88 114.92 76.84C115.294 77.7867 115.82 78.6467 116.5 79.42C117.18 80.1933 117.954 80.7867 118.82 81.2L117.72 82.76C116.747 82.28 115.887 81.5867 115.14 80.68C114.407 79.76 113.834 78.7267 113.42 77.58C113.007 76.42 112.8 75.24 112.8 74.04V71.5H114.36ZM118.14 70.62V72.26H108.52V70.62H118.14ZM121.9 68.86V86.56H119.92V68.86H121.9ZM124.66 75.86V77.5H121.46V75.86H124.66Z" fill="#F39800"/>
<path d="M134 41H337" stroke="black" stroke-linecap="round"/>
<path d="M438.079 18.86V31.68H436.119V18.86H438.079ZM440.599 24.06V25.68H437.519V24.06H440.599ZM433.339 20.22C433.339 21.7533 433.005 23.1467 432.339 24.4C431.685 25.6533 430.739 26.7333 429.499 27.64C428.272 28.5467 426.792 29.26 425.059 29.78L424.239 28.22C426.439 27.5533 428.152 26.6 429.379 25.36C430.619 24.12 431.239 22.7067 431.239 21.12V20.22H433.339ZM432.279 20.22V21.8H424.979V20.22H432.279ZM438.799 34.6V36.2H426.899V34.6H438.799ZM428.859 30.38V35.28H426.899V30.38H428.859ZM448.119 29.38V32.26H446.159V29.38H448.119ZM455.559 18.86V36.56H453.599V18.86H455.559ZM458.119 26.24V27.9H454.919V26.24H458.119ZM441.559 31.72C443.746 31.72 445.726 31.6933 447.499 31.64C449.286 31.5733 450.979 31.4267 452.579 31.2L452.739 32.62C451.072 32.9267 449.379 33.1267 447.659 33.22C445.952 33.3 444.012 33.34 441.839 33.34L441.559 31.72ZM452.399 20.92V22.5H441.879V20.92H452.399ZM447.139 23.4C447.966 23.4 448.699 23.54 449.339 23.82C449.979 24.0867 450.479 24.4733 450.839 24.98C451.199 25.4733 451.379 26.0467 451.379 26.7C451.379 27.3533 451.199 27.9333 450.839 28.44C450.479 28.9333 449.979 29.3133 449.339 29.58C448.699 29.8467 447.966 29.98 447.139 29.98C446.312 29.98 445.579 29.8467 444.939 29.58C444.299 29.3133 443.799 28.9333 443.439 28.44C443.092 27.9333 442.919 27.3533 442.919 26.7C442.919 26.0467 443.092 25.4733 443.439 24.98C443.799 24.4733 444.299 24.0867 444.939 23.82C445.579 23.54 446.312 23.4 447.139 23.4ZM447.139 24.9C446.432 24.9 445.859 25.06 445.419 25.38C444.992 25.7 444.779 26.14 444.779 26.7C444.779 27.2467 444.992 27.68 445.419 28C445.859 28.32 446.432 28.48 447.139 28.48C447.859 28.48 448.432 28.32 448.859 28C449.299 27.68 449.519 27.2467 449.519 26.7C449.519 26.14 449.299 25.7 448.859 25.38C448.432 25.06 447.859 24.9 447.139 24.9ZM448.119 18.92V22.02H446.159V18.92H448.119ZM465.02 21.5V24.04C465.02 25.2933 464.806 26.5333 464.38 27.76C463.966 28.9867 463.38 30.08 462.62 31.04C461.86 31.9867 461 32.7 460.04 33.18L458.92 31.64C459.786 31.2133 460.566 30.5933 461.26 29.78C461.953 28.9533 462.493 28.04 462.88 27.04C463.266 26.0267 463.46 25.0267 463.46 24.04V21.5H465.02ZM465.4 21.5V24.04C465.4 24.9467 465.586 25.88 465.96 26.84C466.333 27.7867 466.86 28.6467 467.54 29.42C468.22 30.1933 468.993 30.7867 469.86 31.2L468.76 32.76C467.786 32.28 466.926 31.5867 466.18 30.68C465.446 29.76 464.873 28.7267 464.46 27.58C464.046 26.42 463.84 25.24 463.84 24.04V21.5H465.4ZM469.18 20.62V22.26H459.56V20.62H469.18ZM472.94 18.86V36.56H470.96V18.86H472.94ZM475.7 25.86V27.5H472.5V25.86H475.7Z" fill="#F39800"/>
<path d="M429.598 68.88V82.12H427.638V68.88H429.598ZM432.118 74.52V76.16H429.038V74.52H432.118ZM426.258 70.9V72.46H415.838V70.9H426.258ZM421.038 73.32C421.878 73.32 422.618 73.46 423.258 73.74C423.911 74.0067 424.418 74.3933 424.778 74.9C425.151 75.4067 425.338 75.9933 425.338 76.66C425.338 77.3133 425.151 77.9 424.778 78.42C424.418 78.9267 423.911 79.32 423.258 79.6C422.618 79.8667 421.878 80 421.038 80C420.211 80 419.471 79.8667 418.818 79.6C418.178 79.32 417.678 78.9267 417.318 78.42C416.958 77.9 416.778 77.3133 416.778 76.66C416.778 75.9933 416.958 75.4067 417.318 74.9C417.678 74.3933 418.178 74.0067 418.818 73.74C419.471 73.46 420.211 73.32 421.038 73.32ZM421.038 74.82C420.318 74.82 419.738 74.9867 419.298 75.32C418.871 75.64 418.658 76.0867 418.658 76.66C418.658 77.22 418.871 77.6667 419.298 78C419.738 78.32 420.318 78.48 421.038 78.48C421.758 78.48 422.338 78.32 422.778 78C423.218 77.6667 423.438 77.22 423.438 76.66C423.438 76.0867 423.218 75.64 422.778 75.32C422.338 74.9867 421.758 74.82 421.038 74.82ZM422.038 68.86V71.68H420.058V68.86H422.038ZM430.358 84.6V86.2H418.438V84.6H430.358ZM420.398 81.08V85.28H418.438V81.08H420.398ZM438.039 70.16C438.892 70.16 439.659 70.4133 440.339 70.92C441.019 71.4267 441.545 72.1533 441.919 73.1C442.305 74.0467 442.499 75.14 442.499 76.38C442.499 77.6333 442.305 78.7333 441.919 79.68C441.545 80.6267 441.019 81.36 440.339 81.88C439.672 82.3867 438.899 82.64 438.019 82.64C437.165 82.64 436.399 82.3867 435.719 81.88C435.039 81.36 434.505 80.6267 434.119 79.68C433.745 78.7333 433.559 77.6333 433.559 76.38C433.559 75.14 433.745 74.0467 434.119 73.1C434.505 72.1533 435.039 71.4267 435.719 70.92C436.399 70.4133 437.172 70.16 438.039 70.16ZM438.039 71.94C437.519 71.94 437.059 72.12 436.659 72.48C436.272 72.84 435.965 73.3533 435.739 74.02C435.525 74.6867 435.419 75.4733 435.419 76.38C435.419 77.3 435.525 78.1 435.739 78.78C435.965 79.4467 436.272 79.96 436.659 80.32C437.059 80.68 437.512 80.86 438.019 80.86C438.539 80.86 438.999 80.68 439.399 80.32C439.799 79.96 440.105 79.4467 440.319 78.78C440.532 78.1 440.639 77.3 440.639 76.38C440.639 75.4733 440.532 74.6867 440.319 74.02C440.105 73.3533 439.799 72.84 439.399 72.48C438.999 72.12 438.545 71.94 438.039 71.94ZM447.939 68.84V86.58H445.979V68.84H447.939ZM446.839 75.46V77.04H441.879V75.46H446.839ZM463.919 71.62V73.2H459.179V71.62H463.919ZM463.919 75.26V76.86H459.179V75.26H463.919ZM453.519 69.94V72.58H457.779V69.94H459.719V78.34H451.559V69.94H453.519ZM453.519 76.78H457.779V74.12H453.519V76.78ZM465.399 68.86V79.52H463.439V68.86H465.399ZM459.519 79.86C460.732 79.86 461.786 79.9933 462.679 80.26C463.586 80.5267 464.279 80.9133 464.759 81.42C465.239 81.9133 465.479 82.5067 465.479 83.2C465.479 84.2533 464.946 85.0733 463.879 85.66C462.812 86.2467 461.359 86.54 459.519 86.54C457.652 86.54 456.186 86.2467 455.119 85.66C454.066 85.0733 453.539 84.2533 453.539 83.2C453.539 82.16 454.072 81.3467 455.139 80.76C456.206 80.16 457.666 79.86 459.519 79.86ZM459.519 81.38C458.666 81.38 457.939 81.4533 457.339 81.6C456.752 81.7333 456.299 81.94 455.979 82.22C455.672 82.4867 455.519 82.8133 455.519 83.2C455.519 83.5867 455.672 83.92 455.979 84.2C456.299 84.4667 456.759 84.6733 457.359 84.82C457.959 84.9533 458.679 85.02 459.519 85.02C460.359 85.02 461.072 84.9533 461.659 84.82C462.259 84.6733 462.719 84.4667 463.039 84.2C463.359 83.92 463.519 83.5867 463.519 83.2C463.519 82.8133 463.359 82.4867 463.039 82.22C462.719 81.94 462.259 81.7333 461.659 81.6C461.072 81.4533 460.359 81.38 459.519 81.38ZM476.24 69.24C477.52 69.24 478.633 69.3733 479.58 69.64C480.526 69.9067 481.253 70.2933 481.76 70.8C482.28 71.3067 482.54 71.9133 482.54 72.62C482.54 73.3133 482.28 73.9133 481.76 74.42C481.253 74.9267 480.526 75.32 479.58 75.6C478.633 75.8667 477.52 76 476.24 76C474.96 76 473.84 75.8667 472.88 75.6C471.933 75.32 471.206 74.9267 470.7 74.42C470.193 73.9133 469.94 73.3133 469.94 72.62C469.94 71.9133 470.193 71.3067 470.7 70.8C471.206 70.2933 471.933 69.9067 472.88 69.64C473.84 69.3733 474.96 69.24 476.24 69.24ZM476.24 70.78C475.346 70.78 474.58 70.8533 473.94 71C473.3 71.1333 472.806 71.34 472.46 71.62C472.126 71.8867 471.96 72.22 471.96 72.62C471.96 73.0067 472.126 73.34 472.46 73.62C472.806 73.8867 473.3 74.0933 473.94 74.24C474.58 74.3867 475.346 74.46 476.24 74.46C477.12 74.46 477.88 74.3867 478.52 74.24C479.16 74.0933 479.646 73.8867 479.98 73.62C480.326 73.34 480.5 73.0067 480.5 72.62C480.5 72.22 480.326 71.8867 479.98 71.62C479.646 71.34 479.16 71.1333 478.52 71C477.88 70.8533 477.12 70.78 476.24 70.78ZM482.28 80.44V86.34H470.16V80.44H482.28ZM472.08 82V84.78H480.36V82H472.08ZM484.22 77.32V78.9H468.24V77.32H484.22Z" fill="#F39800"/>
<path d="M494 41H697" stroke="black" stroke-linecap="round"/>
<path d="M134 91H337" stroke="black" stroke-linecap="round"/>
<path d="M494 91H697" stroke="black" stroke-linecap="round"/>
</svg>
