<svg width="170" height="383" viewBox="0 0 170 383" fill="none" xmlns="http://www.w3.org/2000/svg">
<path d="M53.8204 30.1328L46.918 103.059H58.7722L61.3874 30.1542L53.8204 30.1328Z" fill="#690726"/>
<path d="M150.39 324.703C150.39 324.703 149.79 352.42 158.643 360.673C167.496 368.926 176.328 371.284 163.359 376.6C150.39 381.916 105.267 381.723 74.6777 375.014" fill="#D5AF48"/>
<path d="M142.718 333.557C143.897 335.336 146.255 370.706 112.643 377.78C79.0314 384.853 77.2736 374.243 77.2736 374.243C77.2736 374.243 73.1793 364.318 75.4087 359.602C77.6381 354.886 88.3347 336.472 90.5855 335.979" fill="#E0C377"/>
<path d="M112.342 339.608C112.342 339.608 99.1154 379.308 70.348 381.194C41.5807 383.081 41.0233 371.741 41.0233 371.741C41.0233 371.741 36.4146 359.565 39.3299 353.177C42.2452 346.789 51.6986 337.486 52.4274 337.229" fill="#D5AF48"/>
<path d="M44.2592 318.232C44.2592 318.232 41.301 345.349 28.3321 354.202C15.3632 363.034 -7.23056 370.923 2.43716 377.375C12.7694 384.256 30.1113 384.856 54.8701 376.024C79.6289 367.193 86.7028 342.412 86.7028 342.412" fill="#E0C377"/>
<path d="M153.52 338.169L140.037 126.594C137.979 102.371 117.079 91.3529 92.8558 93.4108C68.6329 95.4687 49.8763 109.831 51.9342 134.054L38.2793 339.927C66.4464 348.201 131.655 351.738 153.542 338.169" fill="#B04B42"/>
<path d="M74.8719 95.4481L64.8184 103.144C64.8184 103.144 105.697 160.078 106.276 160.807C106.855 161.514 123.211 98.4706 123.211 98.4706L116.094 91.4609L104.089 125.716L74.8719 95.4481Z" fill="#E0C377"/>
<path d="M125.309 205.76L133.669 333.112C133.669 333.112 104.43 337.014 83.6367 333.755L84.2798 205.76H125.309Z" fill="#EAB21F"/>
<path d="M119.995 211.74L125.675 327.303C125.675 327.303 105.783 330.84 91.6348 327.903L92.0849 211.74H119.995Z" fill="#E7553B"/>
<path d="M147.606 187C147.606 187 106.427 199.54 47.6918 187L46.9844 209.551C46.9844 209.551 96.3948 225.306 149.406 209.915L147.606 187Z" fill="#EAB21F"/>
<path d="M141.536 159.414C138.599 154.805 117.185 143.873 115.513 151.868C113.841 159.843 121.536 184.344 119.993 211.761C118.449 239.178 123.08 264.387 127.688 287.474C132.297 310.561 141.129 348.353 145.33 341.214C149.532 334.076 149.103 300.078 144.494 276.563C139.886 253.047 129.811 211.075 131.483 194.269C133.155 177.485 134.848 167.41 134.848 167.41" fill="#61021D"/>
<path d="M131.462 145.541C131.462 145.541 117.185 129.593 110.883 137.138C104.581 144.684 110.454 178.703 123.488 179.968C136.499 181.233 131.462 145.541 131.462 145.541Z" fill="#FBDACF"/>
<path d="M127.262 102.307C127.262 102.307 146.983 118.684 148.248 132.96C148.248 132.96 162.953 144.729 164.196 167.387C165.461 190.066 158.323 224.064 157.058 237.912C155.793 251.76 152.749 306.615 148.655 316.84C144.561 327.065 128.912 281.577 130.606 251.76C132.278 221.942 131.034 147.215 131.442 145.543C131.871 143.871 128.505 119.52 128.505 119.52" fill="#B04B42"/>
<path d="M103.704 145.326C103.704 145.326 110.371 195.272 107.027 232.85C103.704 270.428 80.8749 311.328 72.3004 316.558C63.7474 321.789 95.13 219.538 92.279 199.56C89.4279 179.581 84.9478 147.02 84.9478 147.02L103.683 145.348L103.704 145.326Z" fill="#61021D"/>
<path d="M93.2617 145.134C93.2617 145.134 96.6272 136.731 108.374 137.589C120.143 138.425 126.852 174.116 96.6272 182.519" fill="#FBDACF"/>
<path d="M56.1355 113.002C56.1355 113.002 38.2577 139.261 30.2835 153.538C22.3092 167.814 26.082 188.372 37.829 200.976C49.5761 213.581 55.471 247.578 61.7518 247.578C68.0326 247.578 54.978 334.716 68.0112 320.847C112.234 273.752 100.98 140.698 100.98 138.597C100.98 136.496 89.0186 135.917 78.5363 142.219C68.0326 148.522 60.8944 156.903 60.8944 156.903L56.1141 113.023L56.1355 113.002Z" fill="#B04B42"/>
<path d="M71.6767 146.012C71.6767 146.012 47.7539 157.694 47.7539 166.805C47.7539 175.915 61.1301 150.856 71.6767 146.012Z" fill="#9D1629"/>
<path d="M133.414 143.636C133.414 143.636 145.204 155.062 146.126 171.396C147.026 187.731 147.755 150.518 141.217 145.094C134.679 139.649 133.414 143.636 133.414 143.636Z" fill="#9D1629"/>
<path d="M51.248 228.756C51.248 228.756 54.6564 303.911 65.5246 311.35C65.5246 311.35 51.5482 245.219 51.248 228.756Z" fill="#9D1629"/>
<path d="M111.377 107.621L101.002 138.575L97.5293 137.139L109.191 106.742L111.377 107.621Z" fill="#9D1629"/>
<path d="M61.2582 7.75C60.7438 7.85718 57.8927 9.31484 54.1843 11.2655C49.4255 16.8389 44.0664 23.9129 44.0664 24.9204C44.0664 26.5495 44.7095 46.3566 46.6602 46.3566C48.6109 46.3566 60.6366 35.6385 63.8734 33.6878C65.4597 32.7446 75.599 29.0147 85.5883 25.4349L81.001 13.8593C81.001 13.8593 62.8874 7.42846 61.2368 7.77144" fill="#690726"/>
<path d="M107.41 0.547773C105.781 -2.04601 84.0228 5.41379 81.7505 5.41379C79.4783 5.41379 63.5512 3.46309 60.9574 4.44916C59.9499 4.83501 57.1847 7.75033 54.1836 11.2659C57.8706 9.31518 60.7431 7.85751 61.2575 7.77177C62.9081 7.45023 81.0217 13.8596 81.0217 13.8596L85.609 25.4352C96.1128 21.6839 106.445 18.0826 106.445 18.0826L108.396 17.761C108.396 17.761 109.039 3.14155 107.431 0.547773" fill="#AC4B40"/>
<path d="M129.382 56.0043C134.141 55.597 137.72 51.3741 137.313 46.5938C136.906 41.835 132.683 38.2552 127.903 38.6624C123.122 39.0697 119.564 43.2927 119.971 48.0729C120.378 52.8318 124.601 56.4116 129.382 56.0043Z" fill="#FBDACF"/>
<path d="M128.975 51.0782C131.032 50.9067 132.576 49.0846 132.404 47.0053C132.233 44.9474 130.411 43.404 128.331 43.5755C126.274 43.747 124.73 45.5691 124.902 47.6484C125.073 49.7063 126.895 51.2497 128.975 51.0782Z" fill="#F8CBC6"/>
<path d="M96.1137 104.794C115.385 103.165 129.811 86.0588 128.182 66.7877L126.189 43.2722C124.56 24.001 107.453 9.57446 88.1823 11.2036C68.9112 12.8328 54.4846 29.9388 56.1138 49.21L58.1073 72.7255C59.7365 91.9966 76.8426 106.423 96.1137 104.794Z" fill="#FBDACF"/>
<path d="M106.853 48.6056C107.025 50.2777 105.867 51.7568 104.238 51.9282C102.63 52.0997 101.194 50.8779 101.022 49.2059C100.851 47.5338 102.03 46.0547 103.638 45.8832C105.245 45.7118 106.682 46.9336 106.853 48.6056Z" fill="#4C4948"/>
<path d="M91.7186 51.1179C91.8901 52.7899 90.7325 54.269 89.1034 54.4405C87.4956 54.612 86.0594 53.3902 85.8879 51.7181C85.7164 50.0461 86.874 48.567 88.4817 48.417C90.0894 48.2669 91.5256 49.4673 91.6971 51.1394" fill="#4C4948"/>
<path d="M96.909 72.7654C94.4438 72.7654 91.9144 72.1866 89.342 71.0505C88.3774 70.6218 87.9272 69.4856 88.3559 68.521C88.7847 67.5564 89.9208 67.1062 90.8854 67.5349C95.9229 69.7643 100.467 69.2927 104.798 66.0987C105.655 65.4771 106.855 65.6486 107.477 66.506C108.099 67.3634 107.927 68.5639 107.07 69.1855C103.854 71.5649 100.446 72.7654 96.8876 72.7654H96.909Z" fill="#E7553B"/>
<path d="M100.102 42.8448C99.523 42.8448 99.0085 42.459 98.837 41.8802C98.6441 41.1728 99.0514 40.4654 99.7373 40.2511C100.338 40.0796 105.761 38.6005 108.891 39.7152C109.577 39.951 109.92 40.7227 109.684 41.3872C109.448 42.0517 108.698 42.4376 108.012 42.1803C106.04 41.4729 101.795 42.3947 100.466 42.7591C100.338 42.802 100.23 42.802 100.102 42.802V42.8448Z" fill="#4C4948"/>
<path d="M79.1576 48.0528C78.7504 48.0528 78.3431 47.8598 78.0858 47.5169C77.6571 46.9381 77.7857 46.1021 78.3645 45.6734C78.5789 45.5233 83.4878 41.9863 88.4395 41.9863H88.5896C89.3184 41.9863 89.8972 42.5865 89.8757 43.3154C89.8757 44.0228 89.2755 44.6015 88.5681 44.6015C88.5253 44.6015 88.4824 44.6015 88.4181 44.6015C84.3238 44.6015 79.9508 47.7527 79.9079 47.7955C79.6721 47.967 79.3934 48.0528 79.1362 48.0528H79.1576Z" fill="#4C4948"/>
<path d="M112.451 54.1157C112.708 57.0739 115.216 59.2604 118.089 59.0246C120.94 58.7888 123.062 56.195 122.826 53.2368C122.569 50.2787 120.061 48.0922 117.189 48.328C114.338 48.5638 112.215 51.1575 112.473 54.1157" fill="#F8CBC6"/>
<path d="M71.6122 59.1763C71.8694 62.2417 74.4846 64.5139 77.4428 64.2567C80.401 63.9994 82.6089 61.3199 82.3517 58.2545C82.0945 55.1892 79.4793 52.9169 76.5211 53.1742C73.5629 53.4314 71.3549 56.1109 71.6122 59.1763Z" fill="#F8CBC6"/>
<path d="M53.4342 65.4358C58.2359 65.0285 61.8157 60.7841 61.4084 55.9824C61.0011 51.1807 56.7568 47.6009 51.9551 48.0081C47.1534 48.4154 43.5735 52.6598 43.9808 57.4615C44.3881 62.2632 48.6325 65.8431 53.4342 65.4358Z" fill="#FBDACF"/>
<path d="M53.0057 60.4844C55.085 60.3129 56.6284 58.4694 56.4569 56.4115C56.2854 54.3322 54.4419 52.7888 52.384 52.9603C50.3261 53.1318 48.7613 54.9753 48.9328 57.0332C49.1043 59.091 50.9478 60.6559 53.0271 60.4844" fill="#F8CBC6"/>
<path d="M75.6637 12.3591C93.6701 3.22726 117.421 13.3023 123.745 32.4019C118.729 32.5091 115.878 28.522 112.513 25.6495C99.1363 20.3976 99.6722 35.6602 75.235 27.9432C66.0603 29.508 73.713 43.8703 55.5137 43.806C55.6209 30.1297 63.7452 18.0182 75.6851 12.3591" fill="#4C4948"/>
<path d="M74.0761 77.9077C74.0761 77.9077 77.463 67.4898 80.2926 64.5316C83.1222 61.5734 85.9732 58.2936 90.6249 59.4297C95.2765 60.5873 91.8682 63.5455 89.5316 64.7245C87.2165 65.882 81.686 69.6119 79.8853 72.0128C78.0847 74.4136 74.0547 77.9077 74.0547 77.9077" fill="#4C4948"/>
<path d="M122.224 73.5187C122.224 73.5187 117.679 63.5509 114.528 60.9357C111.398 58.3205 108.183 55.3623 103.703 57.0343C99.2012 58.7063 102.931 61.2787 105.375 62.179C107.819 63.0793 113.714 66.1661 115.771 68.3312C117.829 70.5177 122.245 73.5402 122.245 73.5402" fill="#4C4948"/>
<path d="M87.2819 92.0796C87.2819 92.0796 78.9432 90.7935 74.4631 86.3133C69.9829 81.8331 64.5381 70.622 63.5735 68.0497C62.6089 65.4773 58.4502 60.9972 57.1641 64.2126C55.8779 67.4066 58.4931 84.2983 66.7675 94.0089C72.8125 101.104 87.9036 106.185 91.7621 104.577C95.5991 102.969 87.2819 92.0796 87.2819 92.0796Z" fill="#4C4948"/>
<path d="M112.984 86.5274C112.984 86.5274 119.694 82.283 122.866 78.7675C126.039 75.2305 126.939 66.0558 126.746 64.1051C126.575 62.1758 128.161 61.9829 128.504 64.641C128.869 67.2777 129.04 77.8028 126.232 85.0483C123.402 92.2937 112.105 101.533 112.105 101.533L112.984 86.5274Z" fill="#4C4948"/>
<path d="M63.916 72.8945C67.4316 79.6469 78.8142 87.3211 86.3811 88.1357C101.172 89.7219 115.513 88.693 126.445 73.2375C127.603 76.7959 126.703 85.6705 124.602 88.7787C122.501 91.887 119.779 94.5665 118.042 97.8891C115.856 102.112 115.213 107.428 111.461 110.344C109.168 112.123 106.167 112.616 103.273 112.937C100.1 113.28 96.7777 113.452 93.7552 112.401C90.4111 111.244 87.7531 108.693 85.2022 106.228C82.4583 103.548 79.693 100.869 76.9492 98.1892C72.4476 93.8163 67.5816 88.3715 68.5891 82.1764" fill="#4C4948"/>
</svg>
