<svg width="33" height="33" viewBox="0 0 33 33" fill="none" xmlns="http://www.w3.org/2000/svg">
<path d="M17.9505 15.9933H14.7701C14.0292 15.9933 13.4329 15.398 13.4329 14.6583V14.0811C13.4329 13.3595 14.0292 12.7461 14.7701 12.7461H17.9505C18.6914 12.7461 19.2877 13.3414 19.2877 14.0811V14.6583C19.2877 15.398 18.6914 15.9933 17.9505 15.9933Z" fill="white"/>
<path d="M17.9503 16.3712H14.7699C13.8302 16.3712 13.0713 15.6135 13.0713 14.6754V14.0981C13.0713 13.16 13.8302 12.4023 14.7699 12.4023H17.9503C18.89 12.4023 19.667 13.16 19.667 14.0981V14.6754C19.667 15.6135 18.9081 16.3712 17.9503 16.3712ZM14.7518 13.1239C14.2278 13.1239 13.7941 13.5569 13.7941 14.0801V14.6573C13.7941 15.1805 14.2278 15.6135 14.7518 15.6135H17.9323C18.4563 15.6135 18.89 15.1805 18.89 14.6573V14.0801C18.89 13.5569 18.4563 13.1239 17.9323 13.1239H14.7518Z" fill="#3E3A39"/>
<path d="M23.7148 13.8086C23.6064 13.8086 23.4979 13.8086 23.3714 13.8086C23.3172 13.8086 23.263 13.8086 23.2088 13.8086H8.58977C8.49942 13.8086 8.40907 13.8266 8.31871 13.8447C8.24643 13.8447 8.17415 13.8447 8.11994 13.8627C7.79467 13.8988 7.4694 13.9529 7.1622 14.0431C7.03571 14.0792 6.89114 14.1153 6.76465 14.1694C6.72851 14.1694 6.69237 14.1874 6.63816 14.2055C4.19864 15.1075 2.4458 17.4527 2.4458 20.2128C2.4458 23.7487 5.31901 26.617 8.86083 26.617C11.1196 26.617 13.0893 25.4444 14.2458 23.6945H18.3298C19.4682 25.4444 21.456 26.617 23.7148 26.617C27.2566 26.617 30.1298 23.7487 30.1298 20.2128C30.1298 16.677 27.2566 13.8086 23.7148 13.8086Z" fill="white"/>
<path d="M23.7149 26.9973C21.4741 26.9973 19.4141 25.9149 18.1311 24.0748H14.4447C13.1798 25.9149 11.1017 26.9973 8.86092 26.9973C5.12032 26.9973 2.06641 23.9485 2.06641 20.2142C2.06641 17.4 3.85539 14.8383 6.49368 13.8641L6.62017 13.8281C6.76474 13.7739 6.89123 13.7379 7.03579 13.7018C7.36106 13.5935 7.7044 13.5394 8.06581 13.5033C8.12003 13.5033 8.19231 13.5033 8.28266 13.4853H8.37301C8.37301 13.4853 8.49951 13.4492 8.57179 13.4492H23.1908C23.1908 13.4492 23.3173 13.4492 23.3354 13.4492H23.4438C23.4438 13.4492 23.6064 13.4492 23.6968 13.4492C27.4374 13.4492 30.4913 16.498 30.4913 20.2323C30.4913 23.9666 27.4374 27.0153 23.6968 27.0153L23.7149 26.9973ZM14.2459 23.3352H18.3299C18.4564 23.3352 18.5828 23.4073 18.6371 23.4975C19.7574 25.2113 21.6548 26.2396 23.6968 26.2396C27.0218 26.2396 29.7323 23.5336 29.7323 20.2142C29.7323 16.8949 27.0218 14.1889 23.6968 14.1889C23.6245 14.1889 23.5703 14.1889 23.498 14.1889H23.3896C23.3896 14.1889 23.2631 14.1889 23.245 14.1889H8.58986C8.58986 14.1889 8.51758 14.1889 8.48144 14.1889C8.42722 14.1889 8.39108 14.1889 8.33687 14.1889C8.28266 14.1889 8.22845 14.1889 8.15617 14.2069C7.84897 14.243 7.54177 14.2971 7.27071 14.3873C7.14422 14.4234 7.01772 14.4595 6.89123 14.5136L6.65631 14.2069L6.80088 14.5497C4.43364 15.4336 2.84344 17.7067 2.84344 20.2142C2.84344 23.5336 5.55401 26.2396 8.87899 26.2396C10.939 26.2396 12.8184 25.2113 13.9387 23.4795C14.011 23.3712 14.1194 23.3171 14.2459 23.3171V23.3352Z" fill="#3E3A39"/>
<path d="M9.20422 19.0592V17.1289H7.36103V19.0592H5.44556V20.8993H7.36103V22.8115H9.20422V20.8993H11.1378V19.0592H9.20422Z" fill="#FBDACF"/>
<path d="M9.22237 23.1927H7.37918C7.18041 23.1927 6.9997 23.0303 6.9997 22.8139V21.2624H5.46371C5.26493 21.2624 5.08423 21.1001 5.08423 20.8836V19.0435C5.08423 18.8451 5.24686 18.6647 5.46371 18.6647H6.9997V17.1132C6.9997 16.9148 7.16234 16.7344 7.37918 16.7344H9.22237C9.42115 16.7344 9.60185 16.8967 9.60185 17.1132V18.6647H11.1378C11.3366 18.6647 11.5173 18.827 11.5173 19.0435V20.8836C11.5173 21.082 11.3547 21.2624 11.1378 21.2624H9.60185V22.8139C9.60185 23.0123 9.43922 23.1927 9.22237 23.1927ZM7.74059 22.435H8.84289V20.8836C8.84289 20.6851 9.00553 20.5047 9.22237 20.5047H10.7584V19.4043H9.22237C9.0236 19.4043 8.84289 19.2419 8.84289 19.0255V17.474H7.74059V19.0255C7.74059 19.2239 7.57796 19.4043 7.36111 19.4043H5.82512V20.5047H7.36111C7.55989 20.5047 7.74059 20.6671 7.74059 20.8836V22.435Z" fill="#3E3A39"/>
<path d="M26.317 22.959C25.5761 22.959 24.9797 22.3637 24.9797 21.624C24.9797 20.8844 25.5761 20.2891 26.317 20.2891C27.0578 20.2891 27.6542 20.8844 27.6542 21.624C27.6542 22.3637 27.0578 22.959 26.317 22.959Z" fill="#FBDACF"/>
<path d="M26.317 23.3353C25.3774 23.3353 24.6184 22.5777 24.6184 21.6215C24.6184 20.6654 25.3774 19.9258 26.317 19.9258C27.2567 19.9258 28.0157 20.6835 28.0157 21.6215C28.0157 22.5596 27.2567 23.3353 26.317 23.3353ZM26.317 20.6835C25.793 20.6835 25.3593 21.1164 25.3593 21.6396C25.3593 22.1627 25.793 22.5957 26.317 22.5957C26.8411 22.5957 27.2748 22.1627 27.2748 21.6396C27.2748 21.1164 26.8411 20.6835 26.317 20.6835Z" fill="#3E3A39"/>
<path d="M22.8294 19.5293C22.0885 19.5293 21.4922 18.934 21.4922 18.1943C21.4922 17.4547 22.0885 16.8594 22.8294 16.8594C23.5703 16.8594 24.1666 17.4547 24.1666 18.1943C24.1666 18.934 23.5703 19.5293 22.8294 19.5293Z" fill="#FBDACF"/>
<path d="M22.8295 19.9111C21.8898 19.9111 21.1309 19.1534 21.1309 18.2153C21.1309 17.2772 21.8898 16.5195 22.8295 16.5195C23.7692 16.5195 24.5281 17.2772 24.5281 18.2153C24.5281 19.1534 23.7692 19.9111 22.8295 19.9111ZM22.8295 17.2411C22.3054 17.2411 21.8717 17.6741 21.8717 18.1973C21.8717 18.7204 22.3054 19.1534 22.8295 19.1534C23.3535 19.1534 23.7872 18.7204 23.7872 18.1973C23.7872 17.6741 23.3535 17.2411 22.8295 17.2411Z" fill="#3E3A39"/>
<path d="M15.1314 22.0929H14.7338C14.3363 22.0929 14.011 21.7682 14.011 21.3713V21.245C14.011 20.8482 14.3363 20.5234 14.7338 20.5234H15.1314C15.5289 20.5234 15.8542 20.8482 15.8542 21.245V21.3713C15.8542 21.7682 15.5289 22.0929 15.1314 22.0929Z" fill="white"/>
<path d="M15.1314 22.4678H14.7339C14.1376 22.4678 13.6316 21.9807 13.6316 21.3673V21.2411C13.6316 20.6457 14.1195 20.1406 14.7339 20.1406H15.1314C15.7278 20.1406 16.2337 20.6277 16.2337 21.2411V21.3673C16.2337 21.9627 15.7458 22.4678 15.1314 22.4678ZM14.7339 20.8983C14.5351 20.8983 14.3906 21.0607 14.3906 21.2411V21.3673C14.3906 21.5658 14.5532 21.7101 14.7339 21.7101H15.1314C15.3302 21.7101 15.4748 21.5477 15.4748 21.3673V21.2411C15.4748 21.0607 15.3121 20.8983 15.1314 20.8983H14.7339Z" fill="#3E3A39"/>
<path d="M18.0046 22.0929H17.6071C17.2095 22.0929 16.8843 21.7682 16.8843 21.3713V21.245C16.8843 20.8482 17.2095 20.5234 17.6071 20.5234H18.0046C18.4022 20.5234 18.7275 20.8482 18.7275 21.245V21.3713C18.7275 21.7682 18.4022 22.0929 18.0046 22.0929Z" fill="white"/>
<path d="M18.0045 22.4678H17.6069C17.0106 22.4678 16.5046 21.9807 16.5046 21.3673V21.2411C16.5046 20.6457 16.9925 20.1406 17.6069 20.1406H18.0045C18.6008 20.1406 19.1068 20.6277 19.1068 21.2411V21.3673C19.1068 21.9627 18.6189 22.4678 18.0045 22.4678ZM17.6069 20.8983C17.4262 20.8983 17.2636 21.0607 17.2636 21.2411V21.3673C17.2636 21.5658 17.4262 21.7101 17.6069 21.7101H18.0045C18.1852 21.7101 18.3478 21.5477 18.3478 21.3673V21.2411C18.3478 21.0607 18.1852 20.8983 18.0045 20.8983H17.6069Z" fill="#3E3A39"/>
<path d="M16.4144 13.0546C16.2156 13.0546 16.0349 12.8922 16.0349 12.6758V9.69916C16.0349 9.50071 16.1975 9.32031 16.4144 9.32031C16.6312 9.32031 16.7939 9.48267 16.7939 9.69916V12.6758C16.7939 12.8742 16.6312 13.0546 16.4144 13.0546Z" fill="#3E3A39"/>
<path d="M16.4144 8.543C16.2156 8.543 16.0349 8.38064 16.0349 8.16416V6.93743C16.0349 6.73899 16.1975 6.55859 16.4144 6.55859C16.6312 6.55859 16.7939 6.72095 16.7939 6.93743V8.16416C16.7939 8.3626 16.6312 8.543 16.4144 8.543Z" fill="#3E3A39"/>
</svg>
