<svg width="33" height="33" viewBox="0 0 33 33" fill="none" xmlns="http://www.w3.org/2000/svg">
<path d="M12.3016 27.0505L11.3439 27.5376C10.35 28.0608 9.15734 28.0247 8.23575 27.3933L8.0189 27.249C7.42257 26.8521 6.98888 26.2748 6.79011 25.5893L5.41675 21.0432L8.85014 20.1953L10.1151 24.1641L12.9341 22.0174C12.9341 22.0174 13.7834 21.1334 14.4159 21.0432" fill="white"/>
<path d="M9.91646 28.2606C9.26593 28.2606 8.61539 28.0802 8.03713 27.7014L7.82029 27.5571C7.15168 27.1241 6.66377 26.4566 6.42886 25.6989L5.0555 21.1528C5.01936 21.0626 5.0555 20.9544 5.09164 20.8642C5.14585 20.774 5.2362 20.7199 5.32655 20.6838L8.75995 19.8359C8.94066 19.7998 9.13943 19.89 9.21171 20.0885L10.314 23.5522L12.7174 21.7121C12.7174 21.7121 13.639 20.774 14.3799 20.6658C14.5787 20.6297 14.7774 20.774 14.8136 20.9724C14.8497 21.1709 14.7051 21.3693 14.5064 21.4054C14.1269 21.4776 13.5125 21.9827 13.2234 22.2894L10.3682 24.4722C10.2779 24.5444 10.1333 24.5624 10.0249 24.5263C9.91647 24.4902 9.82611 24.4 9.78997 24.2918L8.63346 20.6477L5.92288 21.3152L7.18781 25.4824C7.36852 26.0778 7.748 26.6009 8.27205 26.9437L8.48889 27.088C9.32014 27.6292 10.3502 27.6833 11.2175 27.2143L12.1753 26.7272C12.356 26.637 12.5728 26.7272 12.6812 26.8896C12.7716 27.07 12.6993 27.3045 12.5186 27.3947L11.5609 27.8637C11.0549 28.1343 10.4947 28.2787 9.95261 28.2787L9.91646 28.2606Z" fill="#3E3A39"/>
<path d="M16.4218 20.3945C18.6084 20.4306 19.2228 21.1883 20.6323 24.5437L22.4755 29.7393C22.4755 29.7393 17.8133 31.4892 12.2476 29.8295L12.3198 26.456" fill="white"/>
<path d="M17.2349 30.9259C15.735 30.9259 14.0002 30.7455 12.157 30.1863C11.9944 30.1322 11.886 29.9879 11.886 29.8255L11.9583 26.452C11.9583 26.2536 12.1209 26.0912 12.3377 26.0912C12.5365 26.0912 12.6992 26.2716 12.6992 26.4701L12.6269 29.5549C17.0361 30.7816 20.849 29.8435 22.0055 29.5008L20.2888 24.666C18.8973 21.3467 18.3372 20.8055 16.4217 20.7514C16.2229 20.7514 16.0603 20.571 16.0603 20.3725C16.0603 20.1741 16.2229 20.0117 16.4398 20.0117C18.8251 20.0658 19.5479 20.9859 20.9935 24.3955L22.8548 29.609C22.9271 29.8075 22.8186 30.0059 22.6379 30.0781C22.5114 30.1322 20.3611 30.9079 17.2529 30.9079L17.2349 30.9259Z" fill="#3E3A39"/>
<path d="M20.4335 16.5508C20.4335 16.5508 26.0895 17.9038 26.0173 23.5142C26.0173 23.5142 21.0117 23.6946 19.8914 17.1822" fill="white"/>
<path d="M25.9992 23.8914C25.5474 23.8914 20.6323 23.7471 19.53 17.2527C19.4938 17.0543 19.6384 16.8558 19.8372 16.8197C20.054 16.7837 20.2347 16.928 20.2709 17.1264C21.1563 22.2859 24.5174 23.0255 25.6559 23.1338C25.4752 18.2088 20.5781 16.9641 20.3612 16.9099C20.1624 16.8558 20.0359 16.6574 20.0902 16.4589C20.1444 16.2605 20.3431 16.1342 20.5419 16.1884C20.5961 16.1884 26.4871 17.6857 26.4148 23.5306C26.4148 23.7291 26.2522 23.8914 26.0534 23.8914H26.0173H25.9992Z" fill="#3E3A39"/>
<path d="M17.7047 6.55526C13.928 6.01406 10.4223 8.62987 9.88018 12.4183C9.41035 15.7376 11.38 18.8405 14.4159 19.9049V20.4641C14.452 21.3301 15.6627 23.0439 15.6627 23.0439C16.2049 23.0439 17.5059 21.4383 17.8131 20.2116C20.7225 19.7425 23.1259 17.4334 23.5595 14.3666C24.1017 10.5962 21.4814 7.09646 17.6866 6.55526" fill="white"/>
<path d="M15.6628 23.4223C15.5363 23.4223 15.4279 23.3682 15.3556 23.26C15.2291 23.0796 14.0726 21.4199 14.0365 20.4638V20.1571C10.9103 18.9303 9.01288 15.7012 9.48271 12.3457C9.75377 10.4154 10.7657 8.71968 12.3198 7.54708C13.8738 6.37448 15.8074 5.90543 17.7229 6.17603C21.6984 6.75332 24.4812 10.4335 23.903 14.4203C23.4512 17.5232 21.1382 19.9406 18.0843 20.5359C17.6687 21.7807 16.4037 23.4223 15.6448 23.4223H15.6628ZM16.7109 6.84352C15.3014 6.84352 13.9461 7.29452 12.8077 8.1424C11.4163 9.18872 10.4947 10.7221 10.2597 12.454C9.80798 15.5208 11.615 18.5154 14.5605 19.5437C14.7051 19.5978 14.8135 19.7241 14.8135 19.8865V20.4457C14.8316 20.9328 15.4098 21.943 15.8435 22.5925C16.2772 22.3038 17.2169 21.1493 17.4879 20.103C17.5241 19.9586 17.6506 19.8504 17.7951 19.8323C20.6322 19.3813 22.8187 17.1624 23.2344 14.3121C23.7403 10.7402 21.2647 7.4208 17.6867 6.91568C17.3795 6.86156 17.0543 6.84352 16.7471 6.84352H16.7109Z" fill="#3E3A39"/>
<path d="M17.7047 6.55705C14.8857 6.16017 12.2293 7.51317 10.8198 9.78622C13.4762 10.1831 20.9574 11.2835 23.415 11.6443C22.7283 9.04658 20.5418 6.97197 17.7047 6.55705Z" fill="white"/>
<path d="M23.4151 12.0048C23.4151 12.0048 23.379 12.0048 23.3609 12.0048L10.7658 10.1467C10.6393 10.1287 10.5308 10.0565 10.4766 9.93023C10.4224 9.80395 10.4224 9.67767 10.4947 9.58747C12.0126 7.11598 14.8497 5.78102 17.741 6.19594C20.6503 6.61086 22.9995 8.70351 23.7584 11.5538C23.7946 11.6801 23.7584 11.8064 23.6681 11.8966C23.5958 11.9688 23.5055 12.0229 23.397 12.0229L23.4151 12.0048ZM11.4705 9.49726L22.8911 11.175C22.0779 8.91998 20.0721 7.2603 17.6687 6.91753C15.2834 6.57477 12.8981 7.56698 11.4886 9.49726H11.4705Z" fill="#3E3A39"/>
<path d="M17.759 11.9513C17.759 11.9513 18.2469 11.825 18.6445 12.0956L17.759 11.9513Z" fill="white"/>
<path d="M18.6444 12.3835C18.6444 12.3835 18.536 12.3835 18.4818 12.3294C18.1926 12.131 17.8312 12.2212 17.8312 12.2212C17.6686 12.2753 17.506 12.1671 17.4698 12.0047C17.4337 11.8423 17.524 11.68 17.6867 11.6439C17.7047 11.6439 18.3191 11.4815 18.8251 11.8243C18.9697 11.9145 19.0058 12.0949 18.8974 12.2392C18.8432 12.3294 18.7528 12.3655 18.6444 12.3655V12.3835Z" fill="#3E3A39"/>
<path d="M14.7412 11.463C14.7412 11.463 15.2291 11.3367 15.6267 11.6073L14.7412 11.463Z" fill="white"/>
<path d="M15.6266 11.8953C15.6266 11.8953 15.5182 11.8953 15.464 11.8411C15.1748 11.6427 14.8134 11.7329 14.8134 11.7329C14.6508 11.787 14.4881 11.6788 14.452 11.5164C14.4159 11.3541 14.5062 11.1917 14.6689 11.1556C14.6869 11.1556 15.2832 10.9933 15.7892 11.336C15.9338 11.4262 15.9699 11.6066 15.8796 11.7509C15.8254 11.8411 15.735 11.8772 15.6266 11.8772V11.8953Z" fill="#3E3A39"/>
<path d="M19.4577 30.3894C19.2589 30.3894 19.0963 30.2451 19.0782 30.0467L18.8433 27.1242C18.8433 26.9257 18.9878 26.7453 19.1866 26.7273C19.4396 26.6912 19.5661 26.8716 19.5842 27.07L19.8191 29.9925C19.8191 30.191 19.6745 30.3714 19.4757 30.3894C19.4757 30.3894 19.4577 30.3894 19.4396 30.3894H19.4577Z" fill="#3E3A39"/>
<path d="M7.22395 8.5589C6.98904 9.42482 6.12166 9.92994 5.25427 9.69542C4.40496 9.4609 3.88091 8.59498 4.11583 7.72905C4.35075 6.86313 5.21813 6.35802 6.08551 6.59254C6.93483 6.82706 7.45887 7.69297 7.22395 8.5589Z" fill="#FBDACF"/>
<path d="M5.66984 10.1101C5.50721 10.1101 5.3265 10.0921 5.14579 10.038C4.63982 9.89364 4.20613 9.56892 3.93507 9.11792C3.66401 8.66691 3.59173 8.12572 3.7363 7.6206C3.88086 7.11547 4.20613 6.68251 4.65789 6.41191C5.10965 6.14131 5.65177 6.06915 6.15774 6.21347C6.66372 6.35779 7.09741 6.68251 7.36847 7.13351C7.63953 7.58451 7.71181 8.12571 7.56724 8.63083C7.42268 9.13596 7.09741 9.56892 6.64564 9.83952C6.33845 10.0199 5.99511 10.1101 5.65177 10.1101H5.66984ZM5.66984 6.89899C5.45299 6.89899 5.23615 6.95311 5.05544 7.06135C4.76631 7.22371 4.56754 7.49431 4.47719 7.81903C4.38683 8.12571 4.44105 8.46847 4.60368 8.75711C4.76631 9.04575 5.03737 9.24419 5.36264 9.33439C5.68791 9.42459 6.01318 9.37048 6.30231 9.20811C6.59144 9.04575 6.79021 8.77516 6.88056 8.45044C6.97092 8.12572 6.9167 7.80099 6.75407 7.51235C6.59144 7.22371 6.32038 7.02527 5.99511 6.93507C5.88669 6.89899 5.77826 6.89899 5.66984 6.89899Z" fill="#3E3A39"/>
<path d="M7.35031 8.36088C7.35031 8.36088 7.2961 8.36088 7.25996 8.36088C7.06119 8.30676 6.9347 8.10832 6.98891 7.90988L8.03699 3.65243C8.07314 3.54419 8.14542 3.43595 8.25384 3.39987C8.36226 3.34575 8.48876 3.36378 8.57911 3.4179C8.63332 3.45398 9.86211 4.19363 10.097 5.42035C10.2235 6.08783 10.0428 6.75531 9.57299 7.40475C9.4465 7.56711 9.21158 7.60319 9.04895 7.47691C8.88631 7.35063 8.85017 7.11611 8.97666 6.95375C9.33807 6.48471 9.46457 6.01567 9.37422 5.56467C9.26579 5.05955 8.90438 4.64462 8.61525 4.37402L7.69366 8.07224C7.65752 8.2346 7.49488 8.36088 7.33225 8.36088H7.35031Z" fill="#3E3A39"/>
<path d="M28.0591 15.3972C28.0952 16.1188 27.517 16.7502 26.7942 16.7683C26.0713 16.8043 25.4569 16.2451 25.4208 15.5055C25.3847 14.7839 25.9629 14.1525 26.6857 14.1344C27.4086 14.0983 28.041 14.6756 28.0591 15.3972Z" fill="#FBDACF"/>
<path d="M26.722 17.1454C26.3063 17.1454 25.8907 16.9831 25.5835 16.6944C25.2402 16.3878 25.0595 15.9728 25.0414 15.5218C25.0233 15.0708 25.186 14.6379 25.4932 14.2951C25.8004 13.9704 26.216 13.7719 26.6677 13.7539C26.6858 13.7539 26.722 13.7539 26.74 13.7539C27.6436 13.7539 28.3844 14.4575 28.4387 15.3775C28.4748 16.3156 27.752 17.1094 26.8123 17.1454C26.7942 17.1454 26.7581 17.1454 26.74 17.1454H26.722ZM26.722 14.4935H26.6858C26.4328 14.4935 26.1979 14.6198 26.0353 14.8002C25.8726 14.9806 25.7823 15.2332 25.7823 15.4857C25.7823 15.7383 25.9088 15.9728 26.0895 16.1532C26.2702 16.3156 26.5412 16.4238 26.7762 16.4058C27.3002 16.3878 27.7158 15.9368 27.6797 15.4136C27.6616 14.9085 27.2279 14.5116 26.722 14.5116V14.4935Z" fill="#3E3A39"/>
<path d="M28.005 15.2873C27.8062 15.2873 27.6436 15.1249 27.6255 14.9265L27.4448 10.7953C27.4448 10.6871 27.499 10.5608 27.5894 10.4887C27.6797 10.4165 27.8062 10.3804 27.9147 10.4165C27.9689 10.4165 29.1434 10.7232 29.6494 11.6432C29.9205 12.1483 29.9566 12.7437 29.7217 13.3931C29.6494 13.5915 29.4326 13.6817 29.2519 13.6276C29.0531 13.5555 28.9627 13.339 29.017 13.1586C29.1796 12.7076 29.1615 12.3468 28.9989 12.0221C28.8182 11.6973 28.4929 11.4809 28.2219 11.3365L28.3664 14.9085C28.3664 15.1069 28.2219 15.2873 28.005 15.2873Z" fill="#3E3A39"/>
<path d="M12.4462 18.0287C11.615 18.7684 10.3501 18.6962 9.60918 17.8664C8.86829 17.0365 8.94057 15.7737 9.77181 15.0341C10.6031 14.2945 11.868 14.3666 12.6089 15.1965C13.3498 16.0263 13.2775 17.2891 12.4462 18.0287Z" fill="#FBDACF"/>
<path d="M11.1272 18.9161C11.1272 18.9161 11.0369 18.9161 10.9827 18.9161C10.3502 18.8801 9.77194 18.5914 9.33824 18.1224C8.47086 17.1482 8.56121 15.6328 9.53702 14.7669C10.5128 13.901 12.0307 13.9912 12.8981 14.9654C13.7655 15.9395 13.6752 17.4549 12.6994 18.3208C12.2657 18.7177 11.7055 18.9161 11.1272 18.9161ZM11.1092 14.9112C10.7297 14.9112 10.3321 15.0556 10.0249 15.3262C9.35632 15.9215 9.28403 16.9498 9.88036 17.6353C10.1695 17.96 10.567 18.1585 11.0007 18.1765C11.4344 18.1765 11.85 18.0502 12.1753 17.7616C12.8439 17.1663 12.9162 16.138 12.3199 15.4525C11.9946 15.0916 11.5428 14.9112 11.0911 14.9112H11.1092Z" fill="#3E3A39"/>
<path d="M9.20969 16.9401L4.03418 21.5273L5.19794 22.8359L10.3734 18.2486L9.20969 16.9401Z" fill="#FBDACF"/>
<path d="M5.20005 23.1914C5.09163 23.1914 5.00128 23.1554 4.92899 23.0652L3.77248 21.7663C3.77248 21.7663 3.68213 21.6039 3.68213 21.4957C3.68213 21.4055 3.73634 21.2972 3.80862 21.2431L8.99485 16.6609C9.13942 16.5347 9.37434 16.5347 9.5189 16.697L10.6754 17.9959C10.6754 17.9959 10.7658 18.1583 10.7658 18.2665C10.7658 18.3567 10.7116 18.4649 10.6393 18.5191L5.45304 23.1012C5.45304 23.1012 5.2904 23.1914 5.20005 23.1914ZM4.56758 21.5498L5.23619 22.2894L9.86224 18.1943L9.19363 17.4547L4.56758 21.5498Z" fill="#3E3A39"/>
<path d="M18.1745 16.0475C17.9938 17.184 16.9276 17.9597 15.7711 17.7974C14.6146 17.635 13.8195 16.5887 14.0002 15.4522C14.1809 14.3156 15.0664 14.7666 16.2048 14.929C17.3613 15.0914 18.3371 14.911 18.1745 16.0294" fill="white"/>
<path d="M16.0784 18.1212C15.9699 18.1212 15.8434 18.1212 15.735 18.1032C15.0845 18.013 14.5243 17.6883 14.1448 17.1651C13.7653 16.66 13.6208 16.0466 13.7111 15.4333C13.7653 15.0364 13.9099 14.7658 14.1448 14.6034C14.5424 14.3328 15.0483 14.4411 15.6447 14.5493C15.8434 14.5854 16.0422 14.6215 16.2591 14.6575C16.4759 14.6936 16.6928 14.7117 16.8735 14.7297C17.4879 14.7838 18.0119 14.8199 18.301 15.1987C18.4817 15.4152 18.5359 15.7219 18.4637 16.1007C18.283 17.2734 17.2529 18.1212 16.0784 18.1212ZM14.7592 15.0183C14.6327 15.0183 14.5424 15.0183 14.4701 15.0905C14.3797 15.1627 14.3255 15.2889 14.2894 15.5235C14.2171 15.9925 14.3436 16.4435 14.6146 16.8224C14.9038 17.2012 15.3375 17.4538 15.8073 17.5259C16.8192 17.6702 17.7228 17.0028 17.8673 16.0286C17.9035 15.8121 17.8673 15.6498 17.8131 15.5776C17.6866 15.4152 17.2529 15.3791 16.8012 15.3431C16.6024 15.3431 16.3675 15.307 16.1506 15.2709C15.9338 15.2348 15.6989 15.1988 15.5001 15.1627C15.229 15.1086 14.958 15.0544 14.7411 15.0544L14.7592 15.0183Z" fill="#3E3A39"/>
<path d="M9.57311 19.5982C9.57311 20.879 8.50694 21.9073 7.18779 21.9073C5.86865 21.9073 4.80249 20.879 4.80249 19.5982C4.80249 18.3173 5.86865 17.2891 7.18779 17.2891C8.50694 17.2891 9.57311 18.3173 9.57311 19.5982Z" fill="white"/>
<path d="M7.20571 22.2695C5.68778 22.2695 4.44092 21.0609 4.44092 19.5996C4.44092 18.1384 5.66971 16.9297 7.20571 16.9297C8.7417 16.9297 9.95242 18.1384 9.95242 19.5996C9.95242 21.0609 8.72363 22.2695 7.20571 22.2695ZM7.20571 17.6693C6.10341 17.6693 5.19988 18.5353 5.19988 19.5996C5.19988 20.664 6.10341 21.5299 7.20571 21.5299C8.30801 21.5299 9.21153 20.664 9.21153 19.5996C9.21153 18.5353 8.30801 17.6693 7.20571 17.6693Z" fill="#3E3A39"/>
<path d="M7.89261 13.5383C7.89261 13.5383 7.74805 13.5203 7.69384 13.4842L6.57346 12.7626C6.39276 12.6544 6.35662 12.4198 6.46504 12.2394C6.57347 12.059 6.80838 12.023 6.98909 12.1312L8.10946 12.8528C8.29016 12.961 8.32631 13.1956 8.21788 13.376C8.1456 13.4842 8.0191 13.5383 7.91068 13.5383H7.89261Z" fill="#3E3A39"/>
<path d="M6.3204 15.7383C6.12162 15.7383 5.95899 15.5759 5.94092 15.3775C5.94092 15.1791 6.08548 14.9987 6.30233 14.9806L7.62148 14.9265C7.83832 14.8904 8.00096 15.0708 8.01903 15.2873C8.01903 15.4857 7.87446 15.6661 7.65762 15.6842L6.33847 15.7383H6.3204Z" fill="#3E3A39"/>
<path d="M14.4521 12.9102C14.4521 12.9102 14.8316 13.4153 15.3557 13.0725L14.4521 12.9102Z" fill="white"/>
<path d="M14.9762 13.5555C14.6147 13.5555 14.3075 13.339 14.1449 13.1225C14.0184 12.9602 14.0546 12.7257 14.2172 12.5994C14.3798 12.4731 14.6147 12.5092 14.7412 12.6715C14.8677 12.8159 14.9942 12.8339 15.1388 12.7437C15.3014 12.6355 15.5363 12.6715 15.6628 12.8339C15.7713 12.9963 15.7351 13.2308 15.5725 13.3571C15.3737 13.5014 15.1749 13.5555 14.9942 13.5555H14.9762Z" fill="#3E3A39"/>
<path d="M17.5242 13.2656C17.5242 13.2656 17.9217 13.7707 18.4819 13.428L17.5242 13.2656Z" fill="white"/>
<path d="M18.0843 13.9161C17.6868 13.9161 17.3796 13.6816 17.235 13.4832C17.1085 13.3208 17.1446 13.0863 17.3073 12.96C17.4699 12.8337 17.7048 12.8698 17.8313 13.0141C17.9036 13.1043 18.0662 13.2306 18.3012 13.0863C18.4638 12.9781 18.6987 13.0322 18.8071 13.1945C18.9156 13.3749 18.8613 13.5914 18.6987 13.6997C18.4819 13.8259 18.2831 13.8801 18.1024 13.8801L18.0843 13.9161Z" fill="#3E3A39"/>
</svg>
