<svg width="33" height="33" viewBox="0 0 33 33" fill="none" xmlns="http://www.w3.org/2000/svg">
<path d="M6.91159 8.75C6.91159 8.75 5.79122 13.2239 6.82124 14.9377C7.85125 16.6335 8.03196 17.6077 7.00194 18.7081C5.97192 19.8085 4.454 21.9914 7.25493 24.2464C10.0559 26.5014 18.0069 24.7335 19.5248 21.378C21.0427 18.0226 19.7055 16.6335 19.7055 15.1723C19.7055 13.711 20.5006 11.4019 19.7055 10.6622" fill="white"/>
<path d="M10.9414 25.6375C9.44154 25.6375 7.97783 25.3488 7.00202 24.537C5.91779 23.6711 5.33954 22.715 5.26725 21.7047C5.19497 20.6404 5.68287 19.558 6.71289 18.4575C7.56221 17.5555 7.508 16.8159 6.47798 15.1382C5.37568 13.3161 6.47798 8.86022 6.53219 8.67982C6.5864 8.48138 6.78517 8.37314 6.98395 8.40922C7.18272 8.46334 7.30922 8.66178 7.25501 8.86022C6.94781 10.0689 6.33341 13.4785 7.11045 14.7593C8.14046 16.437 8.4838 17.6638 7.25501 18.9807C6.36956 19.9188 5.95393 20.8208 6.00814 21.6687C6.06236 22.4624 6.55026 23.2381 7.45378 23.9778C8.66451 24.9519 11.1763 25.1865 13.8507 24.5551C16.471 23.9417 18.4949 22.6789 19.1454 21.2537C20.1754 18.9807 19.8321 17.7179 19.543 16.5814C19.4165 16.1123 19.308 15.6613 19.308 15.1923C19.308 14.6872 19.3984 14.0738 19.4887 13.4965C19.6333 12.5223 19.814 11.3137 19.4345 10.9529C19.29 10.8085 19.2719 10.574 19.4165 10.4297C19.561 10.2854 19.7959 10.2673 19.9405 10.4117C20.6091 11.0431 20.4284 12.2878 20.2296 13.6048C20.1393 14.164 20.067 14.7413 20.067 15.1923C20.067 15.5531 20.1754 15.95 20.2838 16.3829C20.591 17.5736 20.9886 19.0348 19.8501 21.5604C18.9647 23.4907 16.2722 24.7535 14.0495 25.2767C13.0918 25.4931 12.0075 25.6555 10.9414 25.6555V25.6375Z" fill="#3E3A39"/>
<path d="M19.7237 28.6304V22.9117C19.7237 20.1877 17.5011 17.9688 14.7724 17.9688H14.0677C11.339 17.9688 10.3813 18.6182 8.79107 20.6206L6.40576 24.6436" fill="white"/>
<path d="M19.7238 29.0092C19.525 29.0092 19.3443 28.8468 19.3443 28.6304V22.9117C19.3443 20.3861 17.2842 18.3475 14.7724 18.3475H14.0496C11.4655 18.3475 10.5801 18.9428 9.08023 20.8551L6.73107 24.8239C6.62264 25.0043 6.38773 25.0584 6.22509 24.9502C6.04439 24.8419 5.99018 24.6255 6.0986 24.4451L8.48391 20.4221C10.1464 18.3295 11.2306 17.5898 14.0677 17.5898H14.7905C17.7179 17.5898 20.1213 19.9711 20.1213 22.9117V28.6304C20.1213 28.8288 19.9587 29.0092 19.7418 29.0092H19.7238Z" fill="#3E3A39"/>
<path d="M20.4647 9.52486C19.796 5.73645 16.1819 3.1928 12.3871 3.86029C8.59234 4.52777 6.0444 8.13578 6.713 11.9242C7.23705 14.9188 9.60429 17.1378 12.4594 17.6068V18.2923C12.4594 19.1763 14.5014 22.3333 14.5556 22.3333C14.5556 22.3333 16.3265 19.1582 16.3265 18.2923V17.1558C19.2359 15.911 21.0248 12.8082 20.4647 9.56094" fill="white"/>
<path d="M14.5373 22.678C13.9591 22.678 12.0617 18.8355 12.0617 18.2582V17.8974C9.13426 17.284 6.83931 14.9388 6.33333 11.9803C5.64665 7.99342 8.32109 4.18697 12.3147 3.48341C14.2482 3.14065 16.1998 3.59165 17.8081 4.71013C19.4164 5.82861 20.4825 7.52438 20.8259 9.45466C21.4041 12.7379 19.7055 15.9491 16.6877 17.3562V18.2582C16.6877 19.1782 15.1698 21.9384 14.8626 22.4796C14.7903 22.6059 14.6638 22.678 14.5373 22.678ZM13.5977 4.11481C13.2182 4.11481 12.8387 4.15089 12.4412 4.22305C8.84513 4.83641 6.44175 8.26402 7.07422 11.854C7.56213 14.6141 9.74866 16.7609 12.5134 17.2299C12.6941 17.266 12.8206 17.4103 12.8206 17.5907V18.2762C12.8206 18.7994 13.9229 20.7116 14.5012 21.6137C15.1517 20.405 15.9468 18.7633 15.9468 18.2762V17.1397C15.9468 16.9954 16.0372 16.8511 16.1818 16.797C19.0188 15.5883 20.6271 12.6297 20.1031 9.59898C19.7959 7.86714 18.8381 6.35177 17.3925 5.34153C16.2721 4.54777 14.953 4.13285 13.5977 4.13285V4.11481Z" fill="#3E3A39"/>
<path d="M11.8992 12.2167C11.9173 12.5595 12.2064 12.812 12.5317 12.794C12.8569 12.7759 13.1099 12.4693 13.0738 12.1445C13.0376 11.8198 12.7666 11.5492 12.4413 11.5673C12.116 11.5853 11.8631 11.892 11.8992 12.2167Z" fill="#3E3A39"/>
<path d="M15.3145 11.9824C15.3325 12.3251 15.6217 12.5777 15.9469 12.5597C16.2722 12.5416 16.5252 12.2349 16.4891 11.9102C16.471 11.5675 16.1819 11.3149 15.8566 11.3329C15.5313 11.351 15.2783 11.6577 15.3145 11.9824Z" fill="#3E3A39"/>
<path d="M15.7843 14.4141C14.8808 15.0274 13.9953 15.0635 13.1279 14.6305L15.7843 14.4141Z" fill="white"/>
<path d="M14.2844 15.301C13.8507 15.301 13.3989 15.1927 12.9471 14.9762C12.7664 14.886 12.6942 14.6696 12.7845 14.4711C12.8749 14.2907 13.1098 14.2005 13.2905 14.3088C14.0675 14.6876 14.8084 14.6335 15.5674 14.1284C15.73 14.0021 15.9649 14.0562 16.0914 14.2186C16.1998 14.3809 16.1637 14.6154 16.0011 14.7417C15.4409 15.1206 14.8807 15.319 14.2844 15.319V15.301Z" fill="#3E3A39"/>
<path d="M11.9715 10.9337C11.8269 10.9337 11.7185 10.8254 11.7004 10.6811C11.7004 10.5368 11.8089 10.4105 11.9534 10.3925L12.8389 10.3203C12.9834 10.3203 13.1099 10.4286 13.128 10.5729C13.1461 10.7172 13.0196 10.8435 12.875 10.8615L11.9896 10.9337C11.9896 10.9337 11.9896 10.9337 11.9715 10.9337Z" fill="#3E3A39"/>
<path d="M15.6216 10.6798C15.4771 10.6798 15.3687 10.5715 15.3506 10.4272C15.3506 10.2829 15.459 10.1566 15.6036 10.1386L16.489 10.0664C16.6517 10.0664 16.7601 10.1746 16.7782 10.319C16.7782 10.4633 16.6697 10.5896 16.5252 10.6076L15.6397 10.6798C15.6397 10.6798 15.6397 10.6798 15.6216 10.6798Z" fill="#3E3A39"/>
<path d="M9.82113 28.775C9.62236 28.775 9.44165 28.6126 9.44165 28.3961V25.2031C9.44165 25.0046 9.60429 24.8242 9.82113 24.8242C10.038 24.8242 10.2006 24.9866 10.2006 25.2031V28.3961C10.2006 28.5946 10.038 28.775 9.82113 28.775Z" fill="#3E3A39"/>
<path d="M17.5552 30.4703L8.64648 29.3338V18.8164L17.5552 19.9529V30.4703Z" fill="#FBDACF"/>
<path d="M17.5551 30.8497C17.5551 30.8497 17.5189 30.8497 17.5009 30.8497L8.59212 29.7132C8.41141 29.6952 8.26685 29.5328 8.26685 29.3344V18.817C8.26685 18.7088 8.32106 18.6006 8.39334 18.5284C8.46562 18.4562 8.57404 18.4202 8.68247 18.4382L17.5912 19.5747C17.7719 19.5928 17.9165 19.7551 17.9165 19.9536V30.4709C17.9165 30.5791 17.8623 30.6874 17.79 30.7595C17.7177 30.8137 17.6274 30.8497 17.537 30.8497H17.5551ZM9.02581 29.0097L17.1756 30.056V20.2783L9.02581 19.232V29.0097Z" fill="#3E3A39"/>
<path d="M25.1448 29.1697L17.4829 30.4686V19.9512L25.1448 18.6523V29.1697Z" fill="#FBDACF"/>
<path d="M17.483 30.8527C17.483 30.8527 17.3023 30.8167 17.2481 30.7625C17.1577 30.6904 17.1216 30.5821 17.1216 30.4739V19.9566C17.1216 19.7762 17.2481 19.6138 17.4288 19.5958L25.0907 18.2969C25.181 18.2969 25.3075 18.2969 25.3979 18.3871C25.4882 18.4592 25.5244 18.5675 25.5244 18.6757V29.1931C25.5244 29.3735 25.3979 29.5358 25.2172 29.5539L17.5553 30.8527C17.5553 30.8527 17.5191 30.8527 17.5011 30.8527H17.483ZM17.8625 20.2813V30.0409L24.7835 28.8683V19.1087L17.8625 20.2813Z" fill="#3E3A39"/>
<path d="M8.35721 28.3753C7.09227 28.3753 6.06226 27.347 6.06226 26.0842V25.8497C6.06226 24.5869 7.09227 23.5586 8.35721 23.5586C9.62214 23.5586 10.6522 24.5869 10.6522 25.8497V26.0842C10.6522 27.347 9.62214 28.3753 8.35721 28.3753Z" fill="white"/>
<path d="M8.35729 28.758C6.87551 28.758 5.68286 27.5673 5.68286 26.088V25.8535C5.68286 24.3742 6.89358 23.1836 8.35729 23.1836C9.82101 23.1836 11.0317 24.3742 11.0317 25.8535V26.088C11.0317 27.5673 9.82101 28.758 8.35729 28.758ZM8.35729 23.9413C7.29114 23.9413 6.42375 24.8072 6.42375 25.8716V26.1061C6.42375 27.1704 7.29114 28.0364 8.35729 28.0364C9.42345 28.0364 10.2908 27.1704 10.2908 26.1061V25.8716C10.2908 24.8072 9.42345 23.9413 8.35729 23.9413Z" fill="#3E3A39"/>
<path d="M24.7834 27.6004C23.6992 27.6004 22.8137 26.7165 22.8137 25.6341V25.1109C22.8137 24.0285 23.6992 23.1445 24.7834 23.1445C25.8676 23.1445 26.7531 24.0285 26.7531 25.1109V25.6341C26.7531 26.7165 25.8676 27.6004 24.7834 27.6004Z" fill="white"/>
<path d="M24.7835 27.9636C23.4824 27.9636 22.4343 26.9173 22.4343 25.6184V25.0952C22.4343 23.7963 23.4824 22.75 24.7835 22.75C26.0846 22.75 27.1327 23.7963 27.1327 25.0952V25.6184C27.1327 26.9173 26.0846 27.9636 24.7835 27.9636ZM24.7835 23.5077C23.898 23.5077 23.1933 24.2293 23.1933 25.1132V25.6364C23.1933 26.5204 23.9161 27.2239 24.7835 27.2239C25.6509 27.2239 26.3918 26.5023 26.3918 25.6364V25.1132C26.3918 24.2293 25.6689 23.5077 24.7835 23.5077Z" fill="#3E3A39"/>
<path d="M19.7959 7.9552C19.7959 7.9552 15.5855 8.4062 14.176 7.03516C14.176 7.03516 12.4051 10.7875 6.71289 11.906" fill="white"/>
<path d="M6.69471 12.2884C6.514 12.2884 6.36944 12.1621 6.3333 11.9817C6.29716 11.7833 6.42365 11.5849 6.62243 11.5488C12.0797 10.4844 13.8145 6.93053 13.8326 6.89445C13.8868 6.78621 13.9771 6.71405 14.1036 6.67797C14.2301 6.65993 14.3385 6.67797 14.4289 6.78621C15.495 7.81449 18.6393 7.70625 19.7597 7.59801C20.0127 7.56193 20.1572 7.72429 20.1753 7.92273C20.1934 8.12117 20.0488 8.31961 19.85 8.33765C19.6874 8.33765 16.0372 8.73453 14.3024 7.61605C13.6519 8.64433 11.5557 11.3503 6.78506 12.2884C6.76699 12.2884 6.73085 12.2884 6.71278 12.2884H6.69471Z" fill="#3E3A39"/>
</svg>
