<svg width="33" height="33" viewBox="0 0 33 33" fill="none" xmlns="http://www.w3.org/2000/svg">
<path d="M26.8398 26.7773H6.43823V31.2874H26.8398V26.7773Z" fill="#E9EAEA"/>
<path d="M26.858 31.6661H6.43832C6.22147 31.6661 6.05884 31.4857 6.05884 31.2873V26.7773C6.05884 26.5608 6.23954 26.3984 6.43832 26.3984H26.8399C27.0568 26.3984 27.2194 26.5788 27.2194 26.7773V31.2873C27.2194 31.5038 27.0387 31.6661 26.8399 31.6661H26.858ZM6.83587 30.9084H26.4785V27.1742H6.83587V30.9084Z" fill="#3E3A39"/>
<path d="M22.6476 7.53125H9.99829V14.7473H22.6476V7.53125Z" fill="white"/>
<path d="M22.6475 15.126H9.99813C9.78129 15.126 9.61865 14.9456 9.61865 14.7472V7.53118C9.61865 7.3147 9.79936 7.15234 9.99813 7.15234H22.6475C22.8643 7.15234 23.027 7.33274 23.027 7.53118V14.7472C23.027 14.9637 22.8463 15.126 22.6475 15.126ZM10.3776 14.3503H22.268V7.91003H10.3776V14.3503Z" fill="#3E3A39"/>
<path d="M11.7329 26.6515V18.2087C11.7329 15.8996 13.7026 14.0234 16.106 14.0234C18.5093 14.0234 20.479 15.8996 20.479 18.2087V26.6515" fill="white"/>
<path d="M20.4611 27.0498C20.2442 27.0498 20.0816 26.8694 20.0816 26.6709V18.2282C20.0816 16.1355 18.2926 14.4217 16.088 14.4217C13.8834 14.4217 12.0944 16.1175 12.0944 18.2282V26.6709C12.0944 26.8874 11.9137 27.0498 11.7149 27.0498C11.5162 27.0498 11.3354 26.8694 11.3354 26.6709V18.2282C11.3354 15.7026 13.4678 13.6641 16.088 13.6641C18.7082 13.6641 20.8405 15.7206 20.8405 18.2282V26.6709C20.8405 26.8874 20.6598 27.0498 20.4611 27.0498Z" fill="#3E3A39"/>
<path d="M22.8282 8.23381C22.8825 4.64384 20.0092 1.70331 16.4313 1.64919C12.8353 1.59507 9.88976 4.46344 9.81748 8.03537C9.76327 11.03 11.7691 13.5737 14.5339 14.3674V14.5659C14.5339 15.4859 15.2928 16.2255 16.1964 16.2255H16.2144C17.136 16.2255 17.8769 15.4859 17.8769 14.5659V14.4215C20.6779 13.736 22.774 11.2465 22.8102 8.23381" fill="white"/>
<path d="M16.2325 16.6216C15.1121 16.6216 14.2086 15.7376 14.1544 14.6552C11.3173 13.7172 9.40186 11.0292 9.438 8.03455C9.49221 4.28222 12.5823 1.26953 16.3229 1.26953H16.4313C20.2261 1.32365 23.2619 4.46262 23.2077 8.25103C23.1535 11.2637 21.1477 13.8976 18.2564 14.7274C18.1841 15.7918 17.2987 16.6216 16.2144 16.6216H16.2325ZM16.3229 2.02721C12.9979 2.02721 10.2512 4.69714 10.197 8.03455C10.1608 10.7766 11.9859 13.2301 14.6242 13.9878C14.7869 14.0419 14.8953 14.1862 14.8953 14.3486V14.547C14.8953 15.2506 15.4736 15.8278 16.1783 15.8278C16.883 15.8278 17.4794 15.2506 17.4794 14.547V14.4027C17.4794 14.2223 17.6059 14.078 17.7685 14.0238C20.461 13.3564 22.3765 10.957 22.4126 8.19691C22.4668 4.82342 19.7563 2.04525 16.3951 1.99113C16.359 1.99113 16.3229 1.99113 16.3048 1.99113L16.3229 2.02721Z" fill="#3E3A39"/>
<path d="M14.3533 9.42345C14.3533 9.76621 14.6063 10.0548 14.9496 10.0729C15.2929 10.0729 15.564 9.80229 15.564 9.45953C15.564 9.11677 15.2929 8.82812 14.9677 8.82812C14.6243 8.82812 14.3533 9.09873 14.3533 9.44149" fill="#3E3A39"/>
<path d="M17.2625 9.47813C17.2625 9.82089 17.5154 10.1095 17.8588 10.1276C18.2021 10.1276 18.4732 9.85698 18.4732 9.51421C18.4732 9.17145 18.2021 8.88281 17.8768 8.88281C17.5335 8.88281 17.2625 9.15341 17.2625 9.49617" fill="#3E3A39"/>
<path d="M17.7144 20.3035C17.7144 20.5741 17.9131 20.8086 18.1842 20.8086C18.4552 20.8086 18.654 20.5921 18.6721 20.3215C18.6721 20.0509 18.4733 19.8164 18.2023 19.8164C17.9312 19.8164 17.7144 20.0329 17.7144 20.3035Z" fill="#3E3A39"/>
<path d="M18.2383 21.7097C18.2383 21.9803 18.4371 22.2149 18.7081 22.2149C18.9792 22.2149 19.1779 21.9984 19.196 21.7278C19.196 21.4572 18.9972 21.2227 18.7262 21.2227C18.4551 21.2227 18.2564 21.4391 18.2383 21.7097Z" fill="#3E3A39"/>
<path d="M16.594 22.0847C16.594 22.3553 16.7928 22.5899 17.0638 22.5899C17.3349 22.5899 17.5337 22.3734 17.5517 22.1028C17.5517 21.8322 17.353 21.5977 17.0819 21.5977C16.8108 21.5977 16.594 21.8141 16.594 22.0847Z" fill="#3E3A39"/>
<path d="M17.7323 11.2275C16.8287 11.6604 15.9975 11.6244 15.1843 11.1914L17.7323 11.2275Z" fill="white"/>
<path d="M16.4856 11.9316C15.9797 11.9316 15.4918 11.8053 15.0039 11.5347C14.8232 11.4265 14.7509 11.192 14.8593 11.0116C14.9677 10.8312 15.1846 10.759 15.3833 10.8673C16.1062 11.2641 16.8109 11.2641 17.5699 10.9033C17.7686 10.8131 17.9855 10.9033 18.0758 11.0837C18.1662 11.2822 18.0758 11.4987 17.8951 11.5889C17.4253 11.8234 16.9374 11.9316 16.4856 11.9316Z" fill="#3E3A39"/>
<path d="M15.0037 8.0689H14.2447C14.0821 8.0689 13.9375 7.90654 13.9375 7.74418C13.9375 7.58182 14.0821 7.4375 14.2447 7.4375H15.0037C15.1663 7.4375 15.3109 7.59986 15.3109 7.76222C15.3109 7.92458 15.1663 8.0689 15.0037 8.0689Z" fill="#3E3A39"/>
<path d="M18.4372 8.12359H17.7144C17.5518 8.12359 17.4072 7.96123 17.4072 7.79887C17.4072 7.63651 17.5518 7.49219 17.7144 7.49219H18.4372C18.5999 7.49219 18.7444 7.65455 18.7444 7.81691C18.7444 7.97927 18.5999 8.12359 18.4372 8.12359Z" fill="#3E3A39"/>
<path d="M12.6546 22.0345C12.4378 22.0345 12.2751 21.8541 12.2751 21.6557V18.6249C12.2751 18.4085 12.4559 18.2461 12.6546 18.2461C12.8534 18.2461 13.0341 18.4265 13.0341 18.6249V21.6557C13.0341 21.8721 12.8534 22.0345 12.6546 22.0345Z" fill="#3E3A39"/>
<path d="M22.6476 25.1172V29.2844C22.6476 30.2766 20.0997 31.0884 16.9554 31.0884C13.8111 31.0884 11.2632 30.2766 11.2632 29.2844V25.1713" fill="#FBDACF"/>
<path d="M16.9552 31.4672C13.9375 31.4672 10.8655 30.7095 10.8655 29.2844V25.1712C10.8655 24.9548 11.0462 24.7924 11.245 24.7924C11.4437 24.7924 11.6244 24.9728 11.6244 25.1712V29.2844C11.6244 29.8617 13.7025 30.7095 16.9372 30.7095C20.1718 30.7095 22.2499 29.8617 22.2499 29.2844V25.1171C22.2499 24.9006 22.4306 24.7383 22.6294 24.7383C22.8282 24.7383 23.0089 24.9187 23.0089 25.1171V29.2844C23.0089 30.7276 19.9549 31.4672 16.9191 31.4672H16.9552Z" fill="#3E3A39"/>
<path d="M10.3236 7.98198C10.1609 7.98198 10.0164 7.87374 9.96217 7.72942C9.88988 7.53098 9.99831 7.3145 10.1971 7.24234L18.5999 4.33789C18.7806 4.28377 18.9974 4.35593 19.0697 4.53633C19.0697 4.55437 20.1539 6.80938 22.3947 7.20626C22.6115 7.24234 22.738 7.44078 22.7019 7.65726C22.6657 7.8557 22.485 8.01806 22.2501 7.96394C20.1178 7.5851 18.9432 5.88933 18.5276 5.16773L10.432 7.96394C10.432 7.96394 10.3416 7.98198 10.3055 7.98198H10.3236Z" fill="#3E3A39"/>
<path d="M13.5038 14.8906C13.5038 14.8906 8.10071 17.9033 7.92 20.934C7.7393 23.9648 11.5702 22.5035 12.5099 22.1427" fill="white"/>
<path d="M9.67297 23.2038C9.14893 23.2038 8.64295 23.0955 8.2454 22.8069C7.72136 22.428 7.46837 21.7786 7.52258 20.9127C7.70329 17.7015 13.0702 14.6889 13.3051 14.5626C13.4858 14.4543 13.7208 14.5265 13.8292 14.7069C13.9376 14.8873 13.8653 15.1218 13.6846 15.2301C13.6304 15.2661 8.46225 18.1706 8.29961 20.9668C8.26347 21.5621 8.38997 21.977 8.69716 22.1935C9.11279 22.5002 10.0705 22.6626 12.3474 21.7966L12.6365 22.5182C12.0944 22.7167 10.8295 23.2218 9.67297 23.2218V23.2038Z" fill="#3E3A39"/>
<path d="M18.2383 14.7266C18.2383 14.7266 23.8582 16.9274 25.1774 18.8217C26.5146 20.7159 25.3219 22.2853 23.7498 23.0971C22.1777 23.9089 20.1538 20.6076 20.1538 20.6076" fill="white"/>
<path d="M23.2259 23.601C21.5995 23.601 20.0274 21.1115 19.8286 20.8048C19.7202 20.6244 19.7744 20.3899 19.9551 20.2817C20.1358 20.1734 20.3707 20.2275 20.4792 20.4079C20.9671 21.1837 22.5573 23.2763 23.5873 22.7531C24.5089 22.2661 25.1594 21.5986 25.3221 20.877C25.4666 20.2997 25.3221 19.6683 24.8703 19.0369C23.6234 17.2509 18.1481 15.1042 18.0939 15.0861C17.8951 15.014 17.8047 14.7794 17.877 14.581C17.9493 14.3826 18.1842 14.2924 18.383 14.3645C18.6179 14.4547 24.1294 16.6376 25.5028 18.6039C26.081 19.4338 26.2798 20.2636 26.063 21.0574C25.828 21.9955 25.0691 22.8433 23.9306 23.4206C23.6957 23.5469 23.4608 23.601 23.2259 23.601Z" fill="#3E3A39"/>
<path d="M24.3282 23.0966H24.274C22.9548 23.0966 21.8706 22.0142 21.8706 20.6973V20.4267C21.8706 19.1097 22.9548 18.0273 24.274 18.0273H24.3282C25.6473 18.0273 26.7316 19.1097 26.7316 20.4267V20.6973C26.7316 22.0142 25.6473 23.0966 24.3282 23.0966Z" fill="white"/>
<path d="M24.328 23.4793H24.2738C22.7378 23.4793 21.491 22.2345 21.491 20.7011V20.4305C21.491 18.8971 22.7378 17.6523 24.2738 17.6523C25.8098 17.6523 27.1109 18.8971 27.1109 20.4305V20.7011C27.1109 22.2345 25.864 23.4793 24.328 23.4793ZM24.328 18.41C23.1715 18.41 22.268 19.312 22.268 20.4305V20.7011C22.268 21.8196 23.1715 22.7216 24.2919 22.7216H24.3461C25.4665 22.7216 26.37 21.8196 26.37 20.7011V20.4305C26.37 19.312 25.4665 18.41 24.3461 18.41H24.328Z" fill="#3E3A39"/>
<path d="M11.2451 24.9563C11.2451 25.9486 13.7931 26.7604 16.9373 26.7604C20.0816 26.7604 22.6295 25.9486 22.6295 24.9563C22.6295 23.9641 20.0816 23.1523 16.9373 23.1523C13.7931 23.1523 11.2451 23.9641 11.2451 24.9563Z" fill="white"/>
<path d="M16.9552 27.1544C13.9375 27.1544 10.8655 26.3968 10.8655 24.9716C10.8655 22.1032 23.0269 22.1032 23.0269 24.9716C23.0269 26.4148 19.973 27.1544 16.9372 27.1544H16.9552ZM16.9552 23.5284C13.7025 23.5284 11.6425 24.3763 11.6425 24.9535C11.6425 25.5308 13.7206 26.3787 16.9552 26.3787C20.1899 26.3787 22.268 25.5308 22.268 24.9535C22.268 24.3763 20.1899 23.5284 16.9552 23.5284Z" fill="#3E3A39"/>
<path d="M20.2803 23.6589L23.28 20.3936C24.0209 20.2673 24.4365 20.6823 24.6533 21.3858L21.238 25.1381" fill="white"/>
<path d="M21.2381 25.5136C21.1478 25.5136 21.0574 25.4775 20.9851 25.4053C20.8225 25.261 20.8225 25.0265 20.9671 24.8641L24.2378 21.2922C24.0391 20.8231 23.7499 20.7149 23.4969 20.751L20.6057 23.926C20.4611 24.0884 20.2262 24.0884 20.0635 23.9441C19.9009 23.7997 19.9009 23.5652 20.0455 23.4029L23.0452 20.1376C23.0452 20.1376 23.1897 20.0294 23.262 20.0113C23.8764 19.9211 24.6715 20.0474 25.0691 21.2741C25.1052 21.4004 25.0691 21.5447 24.9968 21.653L21.5815 25.4053C21.5815 25.4053 21.4008 25.5316 21.2923 25.5316L21.2381 25.5136Z" fill="#3E3A39"/>
<path d="M13.6905 17.5523L12.8135 19.8828L16.0783 21.1073L16.9553 18.7768L13.6905 17.5523Z" fill="#FBDACF"/>
<path d="M16.088 21.4901C16.088 21.4901 15.9977 21.4901 15.9615 21.472L12.6908 20.2453C12.6004 20.2092 12.5101 20.1371 12.4739 20.0469C12.4378 19.9567 12.4197 19.8484 12.4739 19.7582L13.3594 17.413C13.4316 17.2146 13.6485 17.1244 13.8473 17.1966L17.118 18.4233C17.3168 18.4954 17.4252 18.7119 17.3349 18.9104L16.4494 21.2375C16.3952 21.3818 16.2506 21.4901 16.088 21.4901ZM13.3232 19.65L15.8712 20.6061L16.4856 18.9825L13.9376 18.0264L13.3232 19.65Z" fill="#3E3A39"/>
<path d="M12.5823 22.0536H12.5281C11.209 22.0536 10.1248 20.9712 10.1248 19.6543V19.3837C10.1248 18.0668 11.209 16.9844 12.5281 16.9844H12.5823C13.9015 16.9844 14.9857 18.0668 14.9857 19.3837V19.6543C14.9857 20.9712 13.9015 22.0536 12.5823 22.0536Z" fill="white"/>
<path d="M12.5822 22.4285H12.528C10.992 22.4285 9.74512 21.1837 9.74512 19.6503V19.3797C9.74512 17.8463 10.992 16.6016 12.528 16.6016C14.064 16.6016 15.365 17.8463 15.365 19.3797V19.6503C15.365 21.1837 14.1182 22.4285 12.5822 22.4285ZM12.5822 17.3592C11.4257 17.3592 10.5221 18.2612 10.5221 19.3797V19.6503C10.5221 20.7688 11.4257 21.6708 12.546 21.6708H12.6003C13.7206 21.6708 14.6242 20.7688 14.6242 19.6503V19.3797C14.6242 18.2612 13.7206 17.3592 12.6003 17.3592H12.5822Z" fill="#3E3A39"/>
</svg>
