<svg width="33" height="33" viewBox="0 0 33 33" fill="none" xmlns="http://www.w3.org/2000/svg">
<path d="M11.6059 19.5683L10.1241 17.5298C10.5397 16.8443 10.7204 15.9964 10.4493 15.0764C10.1421 14.012 9.20248 13.1822 8.11825 12.9837C6.20277 12.641 4.52222 14.1022 4.52222 15.9603C4.52222 17.4937 5.66066 18.7385 7.14244 18.9369L9.34704 22.2022C9.72652 22.7614 10.3409 23.0861 11.0095 23.0861H16.0693L15.9066 19.5683H11.6059Z" fill="white"/>
<path d="M16.0874 23.4617H11.0277C10.2326 23.4617 9.49169 23.0648 9.03993 22.4154L6.92568 19.2944C5.33548 18.9878 4.14282 17.5987 4.14282 15.957C4.14282 14.9468 4.59459 13.9907 5.37162 13.3412C6.14865 12.6918 7.1606 12.4212 8.19061 12.6016C9.40134 12.8181 10.4675 13.7742 10.8289 14.9648C11.1361 16.0292 10.9012 16.8951 10.594 17.4904L11.8047 19.1862H15.9067C16.1055 19.1862 16.2862 19.3486 16.2862 19.547L16.4488 23.0648C16.4488 23.1731 16.4127 23.2633 16.3404 23.3535C16.2681 23.4437 16.1597 23.4797 16.0694 23.4797L16.0874 23.4617ZM7.55815 13.3232C6.94375 13.3232 6.32935 13.5397 5.85952 13.9366C5.26319 14.4417 4.90178 15.1813 4.90178 15.957C4.90178 17.2559 5.87759 18.3744 7.19674 18.5548C7.30516 18.5548 7.39551 18.627 7.46779 18.7172L9.6724 21.9644C9.97959 22.4154 10.4856 22.686 11.0277 22.686H15.6899L15.5634 19.9439H11.624C11.4975 19.9439 11.3891 19.8898 11.3168 19.7815L9.83503 17.743C9.74468 17.6167 9.74468 17.4544 9.83503 17.3281C10.1061 16.8771 10.3952 16.1194 10.1061 15.1994C9.83503 14.2793 9.00379 13.5397 8.06412 13.3773C7.90149 13.3412 7.73885 13.3412 7.57622 13.3412L7.55815 13.3232Z" fill="#3E3A39"/>
<path d="M24.7972 11.3945C24.8876 11.6651 30.2907 11.3945 30.11 16.0128C30.11 16.0128 25.9357 17.0591 24.2732 12.2785" fill="white"/>
<path d="M29.1704 16.4782C27.7247 16.4782 25.1407 15.937 23.9119 12.4012C23.8396 12.2028 23.948 11.9863 24.1468 11.9141C24.3636 11.842 24.5624 11.9502 24.6347 12.1486C25.9177 15.8829 28.7909 15.8288 29.7306 15.6845C29.6583 12.5636 26.6044 12.0945 25.2852 11.8961C24.7612 11.8239 24.5263 11.7878 24.4359 11.5172C24.3636 11.3188 24.4721 11.1023 24.6708 11.0301C24.7973 10.9941 24.9238 11.0301 25.0142 11.0843C25.0865 11.1023 25.231 11.1204 25.3937 11.1384C26.6947 11.3368 30.6522 11.9322 30.4895 16.0092C30.4895 16.1716 30.363 16.3159 30.2004 16.37C30.2004 16.37 29.7848 16.4602 29.1704 16.4602V16.4782Z" fill="#3E3A39"/>
<path d="M16.9006 29.1787L15.8344 21.2952C15.4369 18.481 17.262 16.1719 19.8822 16.1719C22.5024 16.1719 24.96 18.481 25.3576 21.2952L26.4057 29.1787C26.4057 29.1787 22.1049 31.5059 16.8825 29.1787" fill="white"/>
<path d="M21.6892 30.6063C20.2255 30.6063 18.5449 30.3357 16.7198 29.5239C16.5933 29.4697 16.521 29.3615 16.503 29.2172L15.4549 21.3337C15.238 19.8003 15.6356 18.321 16.5572 17.2566C17.3884 16.3005 18.563 15.7773 19.8641 15.7773C22.665 15.7773 25.3033 18.2128 25.7189 21.2254L26.767 29.1089C26.7851 29.2713 26.7128 29.4156 26.5682 29.4878C26.4417 29.5599 24.5082 30.5702 21.6711 30.5702L21.6892 30.6063ZM17.2439 28.9285C21.4724 30.7325 25.0684 29.3795 25.99 28.9646L24.978 21.3698C24.5986 18.7359 22.3217 16.5891 19.8822 16.5891C18.7979 16.5891 17.8402 17.0221 17.1535 17.8159C16.3765 18.6998 16.0512 19.9626 16.2319 21.2796L17.2619 28.9466L17.2439 28.9285Z" fill="#3E3A39"/>
<path d="M26.2611 9.58869C26.1888 5.8544 23.1169 2.89583 19.3763 2.94995C15.6357 3.02211 12.6721 6.08892 12.7263 9.82321C12.7805 12.9081 14.8948 15.4697 17.7318 16.2274V16.6423C17.7318 17.4902 19.4124 17.7247 19.4124 17.7247C19.5028 17.7247 21.2556 17.2377 21.4544 16.1733C24.2734 15.3254 26.3153 12.6916 26.2611 9.60672" fill="white"/>
<path d="M19.3761 18.1043C19.3761 18.1043 19.3761 18.1043 19.358 18.1043C19.1412 18.0682 17.3522 17.7976 17.3522 16.643V16.5168C14.4429 15.5967 12.4009 12.8907 12.3467 9.84194C12.2744 5.90921 15.4367 2.64396 19.3761 2.58984C19.4122 2.58984 19.4484 2.58984 19.5026 2.58984C23.3878 2.58984 26.5862 5.71077 26.6585 9.60742C26.7127 12.7103 24.7069 15.5065 21.7795 16.4807C21.3819 17.5811 19.7194 18.1223 19.3942 18.1223L19.3761 18.1043ZM19.4845 3.34753H19.3761C15.8524 3.40165 13.0514 6.3061 13.1056 9.82391C13.1598 12.6382 15.0934 15.1277 17.822 15.8673C17.9847 15.9214 18.1112 16.0658 18.1112 16.2462V16.6611C18.1112 17.0219 18.9966 17.3105 19.4484 17.3646C19.611 17.3286 20.9302 16.8415 21.0567 16.1199C21.0747 15.9756 21.1831 15.8673 21.3277 15.8132C24.0383 15.0014 25.9176 12.4397 25.8634 9.60742C25.8092 6.12569 22.9541 3.34753 19.4845 3.34753Z" fill="#3E3A39"/>
<path d="M21.5628 9.75157C21.5628 10.0763 21.3098 10.3469 21.0026 10.3649C20.6773 10.3649 20.4243 10.1124 20.4243 9.76961C20.4243 9.44489 20.6773 9.17429 20.9845 9.15625C21.3098 9.15625 21.5628 9.40881 21.5808 9.73353" fill="#3E3A39"/>
<path d="M18.8159 9.80626C18.8159 10.131 18.5629 10.4016 18.2557 10.4196C17.9305 10.4196 17.6775 10.1671 17.6775 9.8243C17.6775 9.49958 17.9305 9.22898 18.2377 9.21094C18.5629 9.21094 18.8159 9.4635 18.834 9.78822" fill="#3E3A39"/>
<path d="M18.3281 12.2221C19.2136 12.7092 20.0448 12.6551 20.8399 12.168L18.3281 12.2221Z" fill="white"/>
<path d="M19.5569 12.945C19.0871 12.945 18.6172 12.8188 18.1474 12.5482C17.9667 12.4399 17.8944 12.2054 18.0028 12.025C18.1113 11.8446 18.3462 11.7724 18.5269 11.8807C19.2497 12.2776 19.9545 12.2776 20.6411 11.8446C20.8218 11.7364 21.0568 11.7905 21.1652 11.9709C21.2736 12.1513 21.2194 12.3858 21.0387 12.494C20.5508 12.8007 20.0629 12.945 19.5569 12.945Z" fill="#3E3A39"/>
<path d="M19.3761 2.95221C16.5933 3.00633 14.2261 4.72013 13.2322 7.1375C14.4068 7.1375 16.1596 7.10142 18.3823 7.06534C18.581 7.06534 19.2677 5.82058 19.4123 5.82058C19.5749 5.82058 19.9905 7.0473 20.2255 7.02925C22.5204 6.99318 24.5624 6.97514 25.6828 6.9571C24.6166 4.55777 22.1771 2.89809 19.3761 2.93417" fill="white"/>
<path d="M13.2323 7.51455C13.1058 7.51455 12.9793 7.44239 12.907 7.35219C12.8347 7.24395 12.8167 7.11768 12.8709 6.9914C13.9551 4.35755 16.503 2.6257 19.3582 2.57158C22.2495 2.51746 24.8516 4.19519 26.0081 6.81099C26.0623 6.93727 26.0443 7.06355 25.9901 7.17179C25.9178 7.28003 25.8094 7.35219 25.6648 7.35219L20.2075 7.42435C19.8461 7.42435 19.6654 7.04552 19.3943 6.5404C19.3943 6.52236 19.3763 6.48627 19.3582 6.46823C19.322 6.52235 19.2859 6.55843 19.2678 6.61255C18.8522 7.20787 18.6715 7.46043 18.3824 7.46043L13.2323 7.5326V7.51455ZM19.3943 3.34731C17.0452 3.38339 14.9309 4.70031 13.8467 6.75687L18.274 6.70276C18.3824 6.59452 18.545 6.34195 18.6534 6.17959C19.0148 5.65643 19.1413 5.47603 19.4124 5.45799C19.7196 5.45799 19.8642 5.74663 20.0991 6.19763C20.1714 6.34195 20.2798 6.55843 20.3521 6.66668L25.0685 6.61255C23.9481 4.61011 21.8338 3.34731 19.5028 3.34731H19.3943Z" fill="#3E3A39"/>
<path d="M20.4785 8.18195C20.4785 8.18195 20.9303 7.98351 21.364 8.18195H20.4785Z" fill="white"/>
<path d="M20.4785 8.48641C20.352 8.48641 20.2436 8.41425 20.1894 8.30601C20.1171 8.16169 20.1894 7.98128 20.352 7.90912C20.3701 7.90912 20.9303 7.65656 21.4724 7.90912C21.617 7.98128 21.6892 8.16169 21.617 8.30601C21.5447 8.45033 21.364 8.52248 21.2194 8.45032C20.9122 8.306 20.5869 8.45032 20.5869 8.45032C20.5508 8.45032 20.5147 8.46837 20.4605 8.46837L20.4785 8.48641Z" fill="#3E3A39"/>
<path d="M17.5149 8.18195C17.5149 8.18195 17.9667 7.98351 18.4003 8.18195H17.5149Z" fill="white"/>
<path d="M17.5149 8.48641C17.3884 8.48641 17.28 8.41425 17.2258 8.30601C17.1535 8.16169 17.2258 7.98128 17.3884 7.90912C17.4065 7.90912 17.9667 7.65656 18.5088 7.90912C18.6533 7.98128 18.7256 8.16169 18.6533 8.30601C18.5811 8.46837 18.4004 8.52248 18.2558 8.45032C17.9667 8.306 17.6233 8.45032 17.6233 8.45032C17.5872 8.45032 17.551 8.46837 17.4968 8.46837L17.5149 8.48641Z" fill="#3E3A39"/>
<path d="M10.5939 16.5158C8.29894 17.8868 5.29923 17.1111 3.92587 14.82C2.55252 12.5289 3.32955 9.5343 5.6245 8.16325C7.91946 6.79221 10.9192 7.56794 12.2925 9.85902C13.6659 12.1501 12.8888 15.1448 10.5939 16.5158Z" fill="#FBDACF"/>
<path d="M8.11822 17.5781C6.32924 17.5781 4.5764 16.6581 3.6006 15.0164C2.11882 12.5269 2.95006 9.31578 5.42572 7.83649C6.61837 7.13293 8.02787 6.9345 9.40123 7.27726C10.7565 7.62002 11.913 8.4679 12.6178 9.67658C14.0996 12.1661 13.2683 15.3772 10.7927 16.8565C9.96141 17.3616 9.03982 17.5962 8.11822 17.5962V17.5781ZM8.08208 7.87258C7.28698 7.87258 6.50995 8.08906 5.8052 8.50398C3.69095 9.76678 2.9862 12.5089 4.25114 14.6376C5.51607 16.7663 8.26279 17.4699 10.3951 16.189C12.5094 14.9262 13.2141 12.1841 11.9492 10.0554C11.3348 9.02714 10.359 8.30554 9.20245 8.0169C8.82297 7.9267 8.46156 7.87258 8.08208 7.87258Z" fill="#3E3A39"/>
<path d="M9.47349 16.8043C9.36507 16.8043 9.25664 16.7682 9.18436 16.678C7.44959 14.7297 7.70258 12.3845 7.72065 12.2943C7.72065 12.168 7.811 12.0598 7.91943 12.0057C8.71453 11.5547 9.20243 10.9954 9.38314 10.328C9.67227 9.22751 9.05787 8.14511 9.05787 8.14511C8.94945 7.96471 9.00366 7.73018 9.18436 7.62194C9.36507 7.5137 9.59998 7.56782 9.70841 7.74822C9.74455 7.80234 10.5035 9.10122 10.124 10.5083C9.90718 11.3382 9.347 12.0237 8.47961 12.5649C8.47961 13.1061 8.53382 14.7838 9.76262 16.1729C9.90718 16.3353 9.88911 16.5698 9.72648 16.7141C9.65419 16.7863 9.56384 16.8043 9.47349 16.8043Z" fill="#3E3A39"/>
<path d="M3.54643 13.703C3.54643 13.703 3.40186 13.703 3.34765 13.6489C3.16695 13.5407 3.11273 13.3062 3.22116 13.1258C4.68487 10.7445 7.1786 11.3578 8.29897 12.0073C8.47967 12.1155 8.53388 12.35 8.44353 12.5304C8.33511 12.7108 8.10019 12.765 7.91949 12.6748C7.81106 12.6206 5.31734 11.1955 3.88977 13.5226C3.81748 13.6309 3.69099 13.703 3.5645 13.703H3.54643Z" fill="#3E3A39"/>
<path d="M9.67227 10.7109C9.67227 10.7109 9.50964 10.6929 9.43736 10.6388C6.85328 8.61828 4.28726 10.2058 4.17884 10.278C3.99814 10.3862 3.76322 10.3321 3.6548 10.1697C3.54637 9.98933 3.60059 9.75481 3.76322 9.64657C3.79936 9.62853 6.90749 7.6802 9.90719 10.0615C10.0698 10.1878 10.106 10.4403 9.97947 10.6027C9.90719 10.6929 9.79877 10.747 9.67227 10.747V10.7109Z" fill="#3E3A39"/>
<path d="M13.9009 18.8824L12.5456 17.0062C12.9251 16.3748 13.0877 15.5991 12.8347 14.7693C12.5456 13.7951 11.6963 13.0374 10.7024 12.857C8.94957 12.5323 7.41357 13.8853 7.41357 15.5811C7.41357 16.9882 8.46166 18.1247 9.81695 18.3051L11.8228 21.2817C12.1661 21.7868 12.7263 22.0935 13.3407 22.0935H17.9667L17.8222 18.8824H13.8828H13.9009Z" fill="white"/>
<path d="M17.9847 22.4682H13.3405C12.5996 22.4682 11.913 22.1074 11.4974 21.494L9.58188 18.6617C8.11817 18.3731 7.03394 17.0922 7.03394 15.5769C7.03394 14.6388 7.44956 13.7548 8.17238 13.1595C8.8952 12.5642 9.83486 12.3116 10.7745 12.474C11.8949 12.6724 12.8888 13.5564 13.214 14.6568C13.449 15.4326 13.3767 16.2624 13.0153 16.984L14.0995 18.4994H17.8401C18.0389 18.4994 18.2196 18.6617 18.2196 18.8602L18.3641 22.0713C18.3641 22.1795 18.328 22.2697 18.2557 22.3599C18.1834 22.4501 18.075 22.4862 17.9847 22.4862V22.4682ZM10.1963 13.1956C9.63609 13.1956 9.09397 13.394 8.66028 13.7548C8.11817 14.2058 7.81097 14.8733 7.81097 15.5769C7.81097 16.7495 8.69642 17.7597 9.871 17.9221C9.97943 17.9221 10.0698 17.9942 10.1421 18.0844L12.1479 21.0611C12.4189 21.4579 12.8707 21.6925 13.3586 21.6925H17.5871L17.4787 19.239H13.9007C13.7742 19.239 13.6658 19.1849 13.5935 19.0766L12.2382 17.2005C12.1479 17.0742 12.1479 16.9118 12.2382 16.7856C12.4912 16.3706 12.7442 15.7032 12.4912 14.8553C12.2382 14.0254 11.5154 13.3579 10.6661 13.2136C10.5215 13.1956 10.377 13.1775 10.2324 13.1775L10.1963 13.1956Z" fill="#3E3A39"/>
<path d="M21.4362 18.3945H16.4487V23.2473H21.7976" fill="white"/>
<path d="M21.7977 23.6237H16.4488C16.232 23.6237 16.0693 23.4613 16.0693 23.2448V18.4101C16.0693 18.1936 16.232 18.0312 16.4488 18.0312H21.4363C21.6531 18.0312 21.8158 18.1936 21.8158 18.4101C21.8158 18.6266 21.6531 18.7889 21.4363 18.7889H16.8283V22.866H21.7977C22.0145 22.866 22.1772 23.0283 22.1772 23.2448C22.1772 23.4613 22.0145 23.6237 21.7977 23.6237Z" fill="#3E3A39"/>
</svg>
