<svg width="231" height="14" viewBox="0 0 231 14" fill="none" xmlns="http://www.w3.org/2000/svg">
<path d="M0.885498 6.58644C0.903134 6.22316 1.0795 6.05017 1.43222 6.06747C4.94183 6.29236 8.43381 6.29236 11.9434 6.06747C12.2785 6.05017 12.4725 6.22316 12.4901 6.58644C12.5078 6.93242 12.349 7.1227 11.9963 7.14C10.4443 7.2438 8.90998 7.31299 7.358 7.31299V8.61041C10.0211 8.67961 11.3614 9.42346 11.3614 10.842C11.3614 12.3643 9.80943 13.16 6.72309 13.2119C3.61911 13.2638 2.06713 12.52 2.06713 10.9977C2.06713 9.57915 3.40748 8.7834 6.07055 8.64501V7.33029C4.51856 7.33029 2.96657 7.2611 1.41459 7.1573C1.06186 7.14 0.903134 6.94972 0.920771 6.60374H0.885498V6.58644ZM11.0616 4.87384C10.8676 5.20252 10.6383 5.27172 10.3562 5.04683C9.91525 4.73545 9.29798 4.51056 8.50435 4.32028C7.23454 4.82195 5.27692 5.08143 2.64912 5.08143C2.20822 5.08143 1.99658 4.90844 1.99658 4.54516C1.99658 4.18188 2.22585 4.00889 2.66676 4.00889C6.35273 4.00889 8.48671 3.43803 9.06871 2.2963C9.22744 1.95032 9.15689 1.76003 8.8218 1.76003H3.17821C2.70203 1.76003 2.47276 1.58704 2.47276 1.22376C2.47276 0.860487 2.68439 0.687498 3.1253 0.687498H8.92762C10.2327 0.687498 10.6736 1.37946 10.2327 2.74607C10.1269 3.02286 9.96816 3.28234 9.75652 3.52452C10.2151 3.66292 10.5854 3.83591 10.9029 4.06079C11.2027 4.26838 11.2556 4.52786 11.0616 4.83924V4.87384ZM6.68782 12.1394C8.92762 12.0875 10.0387 11.6723 10.0387 10.8593C10.0387 10.0462 8.92762 9.68295 6.68782 9.73485C4.44802 9.76944 3.3193 10.2019 3.3193 11.015C3.3193 11.828 4.44802 12.1913 6.68782 12.1394ZM13.3543 6.25776C13.372 5.89448 13.5483 5.72149 13.901 5.73879C17.4106 5.98097 20.9026 5.98097 24.4122 5.73879C24.7473 5.72149 24.9413 5.89448 24.959 6.25776C24.9766 6.60374 24.8179 6.79402 24.4651 6.81132C22.9132 6.91512 21.3788 6.98431 19.8268 6.98431V8.48932C19.8268 8.48932 19.8268 8.57582 19.8268 8.62771H23.0013C23.4599 8.62771 23.6715 8.8007 23.6715 9.16398V9.95973C23.6715 11.0842 23.4246 12.0702 22.9484 12.9006C22.7544 13.2465 22.4899 13.3157 22.1372 13.0908C21.7492 12.8833 21.661 12.6065 21.8373 12.2605C22.1901 11.6377 22.3664 10.8766 22.3664 9.95973V9.71755H15.1179C14.6594 9.71755 14.4478 9.52726 14.4478 9.16398C14.4478 8.8007 14.677 8.62771 15.1179 8.62771H18.5217V7.00161C16.9697 7.00161 15.4178 6.93242 13.8658 6.82862C13.513 6.81132 13.3543 6.62104 13.372 6.27506L13.3543 6.25776ZM14.4301 1.41405C14.4301 1.05078 14.6594 0.877786 15.1003 0.877786H22.9661C23.4246 0.877786 23.6362 1.05078 23.6362 1.41405V1.93302C23.6362 3.05745 23.3893 4.04349 22.9132 4.87384C22.7192 5.20252 22.4546 5.27172 22.1019 5.04683C21.7139 4.83924 21.6257 4.57976 21.8021 4.23378C22.1548 3.61102 22.3312 2.84987 22.3312 1.95032H15.0827C14.6241 1.95032 14.4125 1.77733 14.4125 1.41405H14.4301ZM29.5267 11.0669C27.3046 11.1534 26.2111 9.54456 26.2111 6.29236C26.2111 3.04015 27.3222 1.37946 29.5267 1.31026C31.6255 1.22376 32.7365 2.67688 32.8247 5.65229H35.5407C35.5231 4.18188 35.4525 2.69418 35.3467 1.20647C35.3114 0.825889 35.5054 0.635601 35.9287 0.601003C36.352 0.566405 36.5636 0.739395 36.5812 1.11997C36.8634 4.51056 36.8634 7.88386 36.5812 11.2745C36.5636 11.655 36.3343 11.8107 35.9287 11.7761C35.5054 11.7415 35.3114 11.5512 35.3467 11.1707C35.4525 9.70025 35.5231 8.21254 35.5407 6.72483H32.8247C32.666 9.54456 31.5725 10.9977 29.5267 11.0669ZM29.5267 2.3655C28.1687 2.40009 27.4986 3.69751 27.4986 6.24046C27.4986 8.7834 28.1687 10.0462 29.5267 10.0116C30.8671 9.95973 31.5373 8.66231 31.5373 6.10207C31.5373 3.54182 30.8671 2.3309 29.5267 2.38279V2.3655ZM40.6376 5.20252V6.51724C40.6376 6.79402 40.7434 6.94972 40.9374 6.94972H47.2335C47.7097 6.94972 47.9566 7.1227 47.9566 7.48598C47.9566 7.86656 47.7273 8.03955 47.2688 8.03955H44.3235V10.323C45.8579 10.323 47.3922 10.2538 48.9266 10.15C49.2617 10.1327 49.4557 10.3057 49.4733 10.669C49.491 11.015 49.3322 11.2053 48.9795 11.2226C45.4523 11.4647 41.925 11.4647 38.3801 11.2226C38.0274 11.2053 37.8687 11.015 37.8863 10.669C37.9039 10.3057 38.0803 10.1327 38.433 10.15C39.9674 10.2538 41.5017 10.323 43.0537 10.323V8.03955H40.4965C39.7734 8.03955 39.403 7.71087 39.403 7.03621L39.3678 5.02953C39.3501 4.42407 39.6852 4.11269 40.373 4.11269H46.4928C46.6868 4.11269 46.7926 3.9743 46.7926 3.68022L46.8279 2.40009H40.0027C39.5265 2.40009 39.2796 2.2271 39.2796 1.86383C39.2796 1.50055 39.4736 1.31026 39.8439 1.31026H47.1101C47.7802 1.31026 48.0977 1.62164 48.0977 2.2444L48.0624 4.23378C48.0448 4.90844 47.6568 5.23712 46.9161 5.23712H40.6728L40.6376 5.20252ZM53.9353 8.92179C53.9529 8.55852 54.1293 8.38553 54.482 8.40283C56.7747 8.52392 59.0851 8.52392 61.3954 8.40283C61.7481 8.38553 61.9245 8.55852 61.9421 8.92179C61.9598 9.26777 61.801 9.45806 61.4483 9.47536C60.496 9.52726 59.5436 9.56186 58.5913 9.57915V11.0496C58.5913 11.5339 58.3796 11.7761 57.9387 11.7761C57.4978 11.7761 57.2862 11.5339 57.2862 11.0496V9.57915C56.3338 9.57915 55.3815 9.52726 54.4291 9.47536C54.0764 9.45806 53.9176 9.26777 53.9353 8.92179ZM56.9864 1.22376C56.9864 0.791291 57.198 0.583704 57.6389 0.583704C58.0798 0.583704 58.2738 0.791291 58.2738 1.22376V2.19251H59.0145C60.2843 2.19251 60.7252 2.83257 60.302 4.11269C60.1609 4.57976 59.9492 4.97764 59.6671 5.34091C59.9845 5.47931 60.4078 5.75609 60.9369 6.11937C61.2543 6.36155 61.3601 6.60374 61.219 6.88052C61.025 7.2611 60.7958 7.31299 60.4783 7.08811C59.8787 6.63833 59.3143 6.30965 58.8382 6.11937C57.8505 6.81132 56.4749 7.1573 54.6584 7.1573C54.2175 7.1573 54.0058 6.98431 54.0058 6.62104C54.0058 6.25776 54.2351 6.08477 54.676 6.08477C57.0922 6.08477 58.5736 5.25442 59.1027 3.61102C59.1732 3.36883 59.1027 3.26504 58.8382 3.26504H55.1875C54.7289 3.26504 54.4996 3.09205 54.4996 2.72877C54.4996 2.3655 54.7113 2.19251 55.1522 2.19251H56.9511V1.22376H56.9864ZM63.1414 11.1707C63.4059 7.84926 63.4059 4.52786 63.1414 1.20647C63.1061 0.825889 63.3001 0.635601 63.7234 0.601003C64.1467 0.566405 64.3583 0.739395 64.3759 1.11997C64.6581 4.51056 64.6581 7.88386 64.3759 11.2745C64.3583 11.655 64.129 11.8107 63.7234 11.7761C63.3001 11.7415 63.1061 11.5512 63.1414 11.1707ZM68.0266 10.7901C66.9861 10.7901 66.4394 10.2711 66.4217 9.21588L66.2983 2.45199C66.2806 1.88112 66.6157 1.60434 67.3212 1.60434H71.7126C72.4004 1.60434 72.7531 1.88112 72.7531 2.45199L72.6297 9.21588C72.5944 10.2711 72.0653 10.7901 71.0072 10.7901H68.0266ZM68.0443 2.67688C67.7445 2.67688 67.5857 2.86716 67.6034 3.24774L67.7268 8.93909C67.7268 9.44076 67.9385 9.68295 68.3617 9.68295H70.6897C71.113 9.68295 71.3246 9.44076 71.3422 8.93909L71.4657 3.24774C71.4657 2.86716 71.307 2.67688 71.0072 2.67688H68.0619H68.0443ZM75.187 11.1707C75.4515 7.84926 75.4515 4.52786 75.187 1.20647C75.1517 0.825889 75.3457 0.635601 75.7689 0.601003C76.1922 0.566405 76.4038 0.739395 76.4215 1.11997C76.7037 4.51056 76.7037 7.88386 76.4215 11.2745C76.4038 11.655 76.1746 11.8107 75.7689 11.7761C75.3457 11.7415 75.1517 11.5512 75.187 11.1707ZM89.7368 2.40009L89.6134 6.51724H90.7774C91.2006 6.51724 91.4123 6.69023 91.4123 7.05351C91.4123 7.43409 91.2006 7.60708 90.7774 7.60708H89.4899V10.2711C90.3541 10.2365 91.2183 10.2019 92.0825 10.1327C92.4175 10.1154 92.6115 10.2884 92.6292 10.6517C92.6468 10.9977 92.4881 11.188 92.1354 11.2053C88.6081 11.4474 85.0809 11.4474 81.536 11.2053C81.1833 11.188 81.0245 10.9977 81.0422 10.6517C81.0598 10.2884 81.2362 10.1154 81.5889 10.1327C82.4531 10.1846 83.3172 10.2365 84.1814 10.2711V7.60708H82.8763C82.4531 7.60708 82.2414 7.41679 82.2414 7.05351C82.2414 6.70753 82.4531 6.51724 82.8763 6.51724H84.0403L83.9169 2.40009H82.7529C82.3296 2.40009 82.118 2.2098 82.118 1.82923C82.118 1.48325 82.3296 1.29296 82.7529 1.29296H90.9361C91.3594 1.29296 91.571 1.46595 91.571 1.82923C91.571 2.2098 91.3594 2.40009 90.9361 2.40009H89.7545H89.7368ZM88.3083 6.51724L88.4494 2.40009H85.1691L85.2925 6.51724H88.2907H88.3083ZM88.1848 7.60708H85.4689V10.3057C86.3859 10.323 87.2854 10.323 88.1848 10.3057V7.60708ZM93.8284 2.55578C93.8284 2.19251 94.0401 2.01952 94.481 2.01952H96.6326V1.08537C96.6326 0.670199 96.8442 0.445312 97.2851 0.445312C97.7261 0.445312 97.9377 0.6529 97.9377 1.08537V2.01952H100.072C100.513 2.01952 100.724 2.19251 100.724 2.55578C100.724 2.91906 100.513 3.09205 100.072 3.09205H99.7895C100.142 3.50723 100.319 4.07809 100.319 4.80465C100.319 6.74213 99.3133 7.74547 97.3028 7.83196C95.2922 7.90116 94.2693 6.96701 94.2693 5.02953C94.2693 4.18188 94.5163 3.54182 94.9924 3.07475H94.4986C94.0754 3.07475 93.8461 2.90176 93.8461 2.53848L93.8284 2.55578ZM97.2675 3.10935C96.1035 3.16125 95.5392 3.78401 95.5392 5.01223C95.5392 6.24046 96.1212 6.84592 97.2675 6.79402C98.4139 6.74213 98.9782 6.10207 98.9782 4.89114C98.9782 3.76671 98.4844 3.17855 97.4968 3.12665H97.2675V3.10935ZM96.1564 10.0462C96.0859 9.56186 96.227 9.26777 96.5973 9.16398C97.0735 9.02559 97.3381 9.18128 97.391 9.64835L97.585 11.1707C97.6379 11.655 97.8848 11.8972 98.3257 11.9145C100.142 12.001 101.959 12.001 103.74 11.9145C104.128 11.8972 104.304 12.0529 104.304 12.3643C104.304 12.7622 104.11 12.9697 103.74 13.0043C101.923 13.1081 99.9306 13.1081 97.7261 13.0043C96.9324 12.9697 96.4915 12.5892 96.3857 11.8626L96.1564 10.0462ZM103.105 3.09205C103.07 2.46929 103.035 1.82923 102.999 1.18917C102.964 0.80859 103.158 0.618302 103.581 0.583704C104.005 0.549106 104.216 0.722096 104.234 1.10267C104.445 3.71481 104.445 6.34425 104.234 8.97369C104.216 9.35427 103.987 9.50996 103.581 9.47536C103.158 9.44076 102.964 9.25047 102.999 8.8699C103.052 8.14334 103.087 7.39949 103.105 6.67293H101.818C101.394 6.67293 101.183 6.48264 101.183 6.11937C101.183 5.75609 101.394 5.5831 101.818 5.5831H103.14V4.21648H101.818C101.394 4.21648 101.183 4.04349 101.183 3.68022C101.183 3.31694 101.394 3.12665 101.818 3.12665H103.105V3.09205ZM105.539 5.94638C105.557 5.5831 105.733 5.41011 106.086 5.42741C109.595 5.65229 113.087 5.65229 116.597 5.42741C116.932 5.41011 117.126 5.5831 117.144 5.94638C117.161 6.29236 117.002 6.48264 116.65 6.49994C113.122 6.72483 109.595 6.72483 106.05 6.49994C105.698 6.48264 105.539 6.29236 105.557 5.94638H105.539ZM106.65 8.29903C106.65 7.95305 106.862 7.76277 107.303 7.76277H114.921C115.697 7.76277 116.05 8.07415 115.962 8.69691L115.803 9.95973C115.715 10.6171 115.327 10.9458 114.639 10.9458H108.255L108.396 12.001H114.78C115.239 12.001 115.468 12.174 115.468 12.5373C115.468 12.9006 115.256 13.0735 114.816 13.0735H108.255C107.585 13.0735 107.214 12.7449 107.126 12.1048L106.967 10.842C106.879 10.2019 107.232 9.89054 108.043 9.89054H114.516L114.639 8.8353H107.303C106.844 8.8353 106.615 8.66231 106.615 8.29903H106.65ZM115.997 2.46929C115.997 3.83591 114.445 4.54516 111.359 4.57976C108.255 4.63166 106.703 3.9743 106.703 2.60768C106.703 1.24106 108.255 0.549106 111.359 0.497209C114.445 0.445312 115.997 1.10267 115.997 2.45199V2.46929ZM111.341 3.57642C113.581 3.52452 114.692 3.16125 114.692 2.46929C114.692 1.77733 113.581 1.48325 111.341 1.53515C109.101 1.58704 107.973 1.95032 107.973 2.62498C107.973 3.29964 109.101 3.62832 111.341 3.57642ZM121.747 1.63894C121.747 1.27566 121.958 1.10267 122.399 1.10267H127.69C128.131 1.10267 128.343 1.27566 128.343 1.63894V2.43469C128.343 5.47931 126.332 7.05351 122.311 7.1227C121.941 7.1227 121.747 6.94972 121.747 6.58644C121.729 6.22316 121.905 6.03287 122.276 6.03287C125.468 5.98097 127.073 4.78735 127.073 2.45199V2.17521H122.417C121.976 2.17521 121.764 2.00222 121.764 1.63894H121.747ZM125.768 13.0735C124.657 13.0735 124.022 12.5546 123.881 11.4993L123.634 9.61375C123.528 8.8526 123.969 8.48932 124.921 8.48932H130.812C131.764 8.48932 132.205 8.8699 132.081 9.61375L131.852 11.4993C131.711 12.5546 131.076 13.0735 129.965 13.0735H125.785H125.768ZM125.397 9.57915C125.08 9.57915 124.939 9.76944 124.992 10.1673L125.115 11.2572C125.168 11.7415 125.38 12.001 125.75 12.001H129.965C130.335 12.001 130.529 11.7588 130.6 11.2572L130.723 10.1673C130.776 9.76944 130.618 9.57915 130.283 9.57915H125.397ZM130.917 3.48993C130.917 2.78067 130.882 2.05411 130.829 1.31026C130.794 0.860487 130.988 0.618302 131.394 0.583704C131.817 0.549106 132.029 0.722096 132.046 1.10267C132.205 3.05745 132.205 5.01223 132.046 6.94972C132.029 7.33029 131.799 7.48598 131.394 7.45139C130.97 7.41679 130.776 7.1746 130.829 6.72483C130.882 6.01557 130.9 5.28902 130.917 4.56246H129.559C129.136 4.56246 128.925 4.38947 128.925 4.02619C128.925 3.66292 129.136 3.48993 129.559 3.48993H130.917ZM133.986 5.70419C135.591 4.75275 136.402 3.36883 136.402 1.56974C136.402 1.10267 136.614 0.860487 137.055 0.860487C137.496 0.860487 137.69 1.08537 137.69 1.53515C137.69 2.2271 137.602 2.84987 137.425 3.43803C138.642 4.06079 139.418 5.01223 139.753 6.32695C139.841 6.69023 139.683 6.93242 139.277 7.03621C138.871 7.1573 138.624 7.03621 138.536 6.67293C138.236 5.66959 137.707 4.96034 136.949 4.54516C136.438 5.46201 135.644 6.20586 134.568 6.77673C134.18 6.96701 133.88 6.86322 133.686 6.49994C133.492 6.15396 133.598 5.89448 133.969 5.70419H133.986ZM135.961 9.16398C135.961 8.8007 136.191 8.62771 136.632 8.62771H144.409C144.868 8.62771 145.079 8.8007 145.079 9.16398V9.95973C145.079 11.0842 144.832 12.0702 144.356 12.9006C144.162 13.2465 143.898 13.3157 143.527 13.0908C143.139 12.8833 143.051 12.6065 143.245 12.2605C143.598 11.6377 143.774 10.8766 143.774 9.95973V9.71755H136.596C136.138 9.71755 135.926 9.52726 135.926 9.16398H135.961ZM142.452 1.24106C142.504 2.00222 142.54 2.74607 142.557 3.48993H144.18C144.18 2.78067 144.145 2.05411 144.092 1.31026C144.056 0.860487 144.25 0.618302 144.656 0.583704C145.079 0.549106 145.291 0.722096 145.309 1.10267C145.467 3.05745 145.467 5.01223 145.309 6.94972C145.291 7.33029 145.062 7.48598 144.656 7.45139C144.233 7.41679 144.039 7.1746 144.092 6.72483C144.145 6.01557 144.162 5.28902 144.18 4.56246H142.557C142.54 5.30632 142.504 6.05017 142.452 6.79402C142.416 7.1746 142.205 7.33029 141.781 7.31299C141.358 7.2784 141.164 7.07081 141.199 6.69023C141.34 4.90844 141.34 3.10935 141.199 1.32756C141.164 0.946982 141.358 0.756693 141.781 0.722096C142.205 0.687498 142.434 0.843188 142.452 1.22376V1.24106ZM147.019 3.28234C147.019 2.91906 147.231 2.74607 147.672 2.74607H149.823V1.22376C149.823 0.791291 150.035 0.583704 150.476 0.583704C150.917 0.583704 151.129 0.791291 151.129 1.22376V2.74607H153.263C153.703 2.74607 153.915 2.91906 153.915 3.28234C153.915 3.64562 153.703 3.81861 153.263 3.81861H147.689C147.266 3.81861 147.037 3.64562 147.037 3.28234H147.019ZM150.476 11.0669C148.465 11.1534 147.443 10.1673 147.443 8.16064C147.443 6.15396 148.448 5.11603 150.476 5.04683C152.487 4.96034 153.492 5.92908 153.492 7.93576C153.492 9.94243 152.487 10.9977 150.476 11.0669ZM150.476 6.08477C149.312 6.13666 148.748 6.81132 148.748 8.09145C148.748 9.37157 149.33 10.0289 150.476 9.99433C151.622 9.94243 152.187 9.26777 152.187 7.95305C152.187 6.63833 151.622 6.05017 150.476 6.08477ZM155.908 11.1707C156.173 7.84926 156.173 4.52786 155.908 1.20647C155.873 0.825889 156.067 0.635601 156.49 0.601003C156.913 0.566405 157.143 0.739395 157.16 1.11997C157.284 2.62498 157.354 4.12999 157.372 5.635H159.259C159.682 5.635 159.894 5.80798 159.894 6.17126C159.894 6.53454 159.682 6.70753 159.259 6.70753H157.372C157.354 8.22984 157.284 9.75214 157.16 11.2745C157.125 11.655 156.913 11.8107 156.49 11.7761C156.067 11.7415 155.873 11.5512 155.908 11.1707ZM163.862 11.0669C161.64 11.1534 160.546 9.54456 160.546 6.29236C160.546 3.04015 161.657 1.37946 163.862 1.31026C165.502 1.24106 166.543 2.10601 166.948 3.9051H169.823C169.788 3.00556 169.735 2.10601 169.682 1.20647C169.647 0.825889 169.841 0.635601 170.264 0.601003C170.687 0.566405 170.899 0.739395 170.916 1.11997C171.199 4.51056 171.199 7.88386 170.916 11.2745C170.899 11.655 170.67 11.8107 170.264 11.7761C169.841 11.7415 169.647 11.5512 169.682 11.1707C169.752 10.2538 169.805 9.35427 169.823 8.45472H166.878C166.437 10.15 165.432 11.015 163.844 11.0669H163.862ZM163.862 2.3655C162.504 2.40009 161.834 3.69751 161.834 6.24046C161.834 8.7834 162.504 10.0462 163.862 10.0116C165.202 9.95973 165.872 8.66231 165.872 6.10207C165.872 3.54182 165.202 2.3309 163.862 2.38279V2.3655ZM167.125 4.99494C167.16 5.32362 167.16 5.68689 167.16 6.05017C167.16 6.51724 167.142 6.94972 167.089 7.34759H169.858C169.858 6.56914 169.858 5.77339 169.858 4.99494H167.125ZM178.077 1.44865C178.465 1.44865 178.641 1.69084 178.641 2.15791C178.641 3.42073 178.571 4.56246 178.412 5.5831C179.047 6.30965 179.488 7.08811 179.77 7.90116C180.175 6.48264 180.369 4.56246 180.369 2.15791C180.369 1.69084 180.563 1.44865 180.934 1.44865C181.304 1.44865 181.498 1.69084 181.498 2.15791C181.498 3.66292 181.428 4.97764 181.269 6.13666C182.327 7.36489 182.997 8.73151 183.279 10.2711C183.35 10.6344 183.209 10.842 182.874 10.9112C182.503 10.9631 182.292 10.8247 182.221 10.4614C182.027 9.45806 181.622 8.50662 180.987 7.60708C180.669 8.95639 180.211 9.99433 179.593 10.7036C179.364 10.9804 179.1 11.015 178.835 10.7728C178.535 10.5306 178.518 10.2711 178.765 9.97703C178.923 9.78674 179.064 9.56186 179.223 9.28507C179.011 8.43742 178.659 7.65897 178.165 6.98431C177.83 8.47202 177.283 9.66565 176.542 10.5652C176.313 10.842 176.049 10.8766 175.784 10.6171C175.484 10.3922 175.449 10.1327 175.713 9.82134C176.913 8.40283 177.512 5.84258 177.512 2.12331C177.512 1.65624 177.706 1.41405 178.077 1.41405V1.44865ZM185.219 5.635C185.202 4.16459 185.131 2.67688 185.025 1.18917C184.99 0.80859 185.184 0.618302 185.607 0.583704C186.031 0.549106 186.242 0.722096 186.26 1.10267C186.542 4.49327 186.542 7.86656 186.26 11.2572C186.242 11.6377 186.013 11.7934 185.607 11.7588C185.184 11.7242 184.99 11.5339 185.025 11.1534C185.131 9.68295 185.202 8.19524 185.219 6.70753H183.262C182.839 6.70753 182.627 6.53454 182.627 6.17126C182.627 5.80798 182.839 5.635 183.262 5.635H185.219ZM200.422 1.01618C200.88 1.01618 201.092 1.20647 201.074 1.58704L200.951 6.32695C200.916 7.38219 200.387 7.90116 199.328 7.90116H197.3V10.3057C198.835 10.3057 200.369 10.2365 201.903 10.1327C202.238 10.1154 202.432 10.2884 202.45 10.6517C202.468 10.9977 202.309 11.188 201.956 11.2053C198.429 11.4474 194.902 11.4474 191.357 11.2053C191.004 11.188 190.845 10.9977 190.863 10.6517C190.881 10.2884 191.057 10.1154 191.41 10.1327C192.944 10.2365 194.478 10.3057 196.03 10.3057V7.90116H193.967C192.909 7.90116 192.362 7.38219 192.344 6.32695L192.221 1.58704C192.221 1.20647 192.433 1.01618 192.874 1.01618C193.279 1.01618 193.491 1.20647 193.508 1.58704L193.544 3.40343H199.734L199.769 1.58704C199.787 1.20647 199.999 1.01618 200.404 1.01618H200.422ZM193.579 4.49327L193.614 6.15396C193.614 6.65563 193.826 6.89782 194.232 6.89782H199.029C199.434 6.89782 199.628 6.65563 199.646 6.15396L199.681 4.49327H193.561H193.579ZM203.896 9.61375C205.536 8.61041 206.365 6.13666 206.365 2.17521C206.365 1.69084 206.577 1.44865 207.018 1.44865C207.459 1.44865 207.653 1.69084 207.653 2.15791C207.653 3.64562 207.547 4.94304 207.335 6.05017C208.446 6.91512 209.24 8.28173 209.734 10.1846C209.822 10.5479 209.681 10.7901 209.293 10.8939C208.905 10.9977 208.676 10.8766 208.57 10.5133C208.182 9.14668 207.653 8.09145 206.983 7.38219C206.471 8.93909 205.677 10.0289 204.619 10.6344C204.231 10.8766 203.931 10.8074 203.702 10.4441C203.491 10.0981 203.561 9.82134 203.914 9.61375H203.896ZM211.515 5.635C211.497 4.26838 211.427 2.88446 211.303 1.48325C211.268 1.10267 211.462 0.912384 211.885 0.877786C212.309 0.843188 212.538 0.998879 212.556 1.37946C212.82 4.57976 212.82 7.78007 212.556 10.9804C212.52 11.3609 212.309 11.5166 211.885 11.482C211.462 11.4474 211.268 11.2572 211.303 10.8766C211.427 9.49266 211.497 8.09145 211.515 6.70753H210.21C209.804 6.70753 209.593 6.53454 209.593 6.17126C209.593 5.80798 209.804 5.635 210.21 5.635H211.515ZM214.055 11.1707C214.319 7.84926 214.319 4.52786 214.055 1.20647C214.019 0.825889 214.213 0.635601 214.637 0.601003C215.06 0.566405 215.272 0.739395 215.289 1.11997C215.571 4.51056 215.571 7.88386 215.289 11.2745C215.272 11.655 215.042 11.8107 214.637 11.7761C214.213 11.7415 214.019 11.5512 214.055 11.1707ZM219.804 7.46868C219.804 7.46868 219.804 7.33029 219.804 7.2611C218.464 6.79402 217.794 5.84258 217.794 4.40677C217.794 2.2444 219.346 1.13727 222.449 1.08537C225.536 1.03348 227.088 2.08871 227.088 4.26838C227.088 5.70419 226.418 6.69023 225.06 7.1919C225.077 7.2784 225.095 7.36489 225.095 7.46868V10.2538C225.959 10.2192 226.823 10.1846 227.687 10.1154C228.023 10.0981 228.217 10.2711 228.234 10.6344C228.252 10.9804 228.093 11.1707 227.74 11.188C224.213 11.4301 220.686 11.4301 217.141 11.188C216.788 11.1707 216.63 10.9804 216.647 10.6344C216.665 10.2711 216.841 10.0981 217.194 10.1154C218.058 10.1673 218.922 10.2192 219.786 10.2538V7.46868H219.804ZM222.467 6.56914C224.707 6.51724 225.818 5.75609 225.818 4.26838C225.818 2.78067 224.707 2.08871 222.467 2.14061C220.227 2.19251 219.099 2.95366 219.099 4.42407C219.099 5.89448 220.227 6.62104 222.467 6.56914ZM223.825 7.50328C223.402 7.57248 222.961 7.60708 222.467 7.60708C221.973 7.60708 221.515 7.60708 221.109 7.55518V10.3057C222.026 10.323 222.926 10.323 223.825 10.3057V7.52058V7.50328ZM229.275 10.9458C229.275 10.4614 229.539 10.2192 230.068 10.2192C230.597 10.2192 230.844 10.4614 230.844 10.9458V11.0669C230.844 11.5512 230.58 11.7934 230.068 11.7934C229.557 11.7934 229.275 11.5512 229.275 11.0669V10.9458Z" fill="#231815"/>
</svg>
