<svg width="301" height="63" viewBox="0 0 301 63" fill="none" xmlns="http://www.w3.org/2000/svg">
<path d="M285.893 57.4997L0.22288 62.5063L4.17207 51.5508L0.142701 41.7258L3.99143 29.7858L0.0640387 22.8273L4.16885 13.8383L0 5.20931L296.162 0C296.162 0 299.73 1.16609 300.459 6.10234C300.752 8.05184 294.613 11.8763 294.827 14.7745C295.077 18.2019 298.868 21.7398 298.891 26.6842L292.778 41.1489L295.046 48.4853L285.873 57.4484L285.893 57.4997Z" fill="#C7C7E4"/>
<path d="M41.8422 13.0192V25.2992H45.0422V12.2592H49.8422V49.4592H45.0422V29.6592H41.8422V47.6592H37.0422V13.0192H41.8422ZM18.2822 20.1392V15.8192H34.8822V20.1392H29.1622V24.8592C29.1622 27.5792 29.8022 28.9792 31.4422 31.0192C32.9222 32.8992 34.9622 35.0592 36.6822 36.7392L33.3622 39.8592C31.8422 38.2592 30.2022 36.5392 29.0022 35.0992C28.0422 33.9792 27.2022 32.9792 26.9222 32.3392H26.8822C26.6422 32.9792 25.7622 34.0592 24.7622 35.2592C23.4422 36.8592 21.6022 38.8992 19.9622 40.5392L16.6422 37.2192C18.2822 35.6192 20.3622 33.3792 21.8822 31.4592C23.6022 29.2992 24.2422 27.8592 24.2422 24.8992V20.1392H18.2822ZM81.3363 12.2592V21.6592H86.2163V26.0592H81.3363V38.6992H76.2963V12.2592H81.3363ZM63.2163 36.2992V44.7392H82.2163V49.0592H58.1363V36.2992H63.2163ZM53.4163 32.3392V14.4192H58.4963V28.0192C63.9763 28.0192 68.6163 27.7792 73.2963 27.1792L73.7763 31.4192C69.2563 32.0992 64.0163 32.3392 53.4163 32.3392ZM120.55 13.0192V24.9392H123.83V12.2592H128.67V49.4592H123.83V29.2992H120.55V47.6592H115.71V13.0192H120.55ZM97.4703 15.7792H111.83V20.1392H102.47V35.2192H103.63C106.87 35.2192 110.23 35.0992 113.55 34.5792L114.07 38.8992C110.83 39.4592 106.95 39.5792 103.63 39.5792H97.4703V15.7792ZM161.964 12.2592V49.4592H156.884V12.2592H161.964ZM151.084 15.2192V39.8592H133.124V15.2192H138.124V23.5792H146.084V15.2192H151.084ZM138.124 27.8992V35.6192H146.084V27.8992H138.124ZM165.058 30.0992H173.338V25.6192C171.178 24.4592 169.898 22.6992 169.898 20.4592V19.4992C169.898 15.0192 174.938 12.5792 182.098 12.5792C189.258 12.5792 194.298 15.0192 194.298 19.4992V20.4592C194.298 22.6992 193.018 24.4592 190.858 25.6192V30.0992H199.138V34.2192H165.058V30.0992ZM182.098 50.5792C175.618 50.5792 170.098 48.3792 170.098 43.7792V42.5792C170.098 37.9792 175.618 35.7792 182.098 35.7792C188.578 35.7792 194.098 37.9792 194.098 42.5792V43.7792C194.098 48.3792 188.578 50.5792 182.098 50.5792ZM182.098 16.6192C178.018 16.6192 174.898 17.8992 174.898 19.6592V20.2992C174.898 22.0592 178.018 23.3392 182.098 23.3392C186.178 23.3392 189.298 22.0592 189.298 20.2992V19.6592C189.298 17.8992 186.178 16.6192 182.098 16.6192ZM182.098 39.8592C178.538 39.8592 175.098 41.0592 175.098 42.8992V43.4592C175.098 45.2992 178.538 46.4992 182.098 46.4992C185.658 46.4992 189.098 45.2992 189.098 43.4592V42.8992C189.098 41.0592 185.658 39.8592 182.098 39.8592ZM182.098 27.3792C180.738 27.3792 179.498 27.2992 178.338 27.1392V30.0992H185.858V27.1392C184.698 27.2992 183.418 27.3792 182.098 27.3792ZM238.993 12.2592V25.8192H244.113V30.2192H238.993V49.4592H233.913V12.2592H238.993ZM212.993 41.7792L210.313 37.7792C222.353 30.6192 223.033 28.5792 223.033 22.6592V19.9792H210.993V15.6192H228.113V22.8992C228.113 30.9792 226.273 33.6592 212.993 41.7792ZM273.407 12.2592V20.4992H278.287V24.8992H273.407V34.4992H268.367V12.2592H273.407ZM262.127 50.5792C255.327 50.5792 250.727 47.6992 250.727 43.4192V41.8192C250.727 37.5392 255.327 34.6592 262.127 34.6592C268.927 34.6592 273.527 37.5392 273.527 41.8192V43.4192C273.527 47.6992 268.927 50.5792 262.127 50.5792ZM262.127 38.7792C258.087 38.7792 255.687 40.5792 255.687 42.1392V43.0992C255.687 44.6592 258.087 46.4592 262.127 46.4592C266.167 46.4592 268.567 44.6592 268.567 43.0992V42.1392C268.567 40.5792 266.167 38.7792 262.127 38.7792ZM262.927 13.9792V32.0992H245.327V13.9792H250.287V19.2992H257.967V13.9792H262.927ZM250.287 23.4992V27.8992H257.967V23.4992H250.287Z" fill="#231815"/>
</svg>
