<svg width="449" height="64" viewBox="0 0 449 64" fill="none" xmlns="http://www.w3.org/2000/svg">
<rect x="1" y="1" width="447" height="62" rx="7" fill="white"/>
<rect x="1" y="1" width="447" height="62" rx="7" stroke="#EBA454" stroke-width="2"/>
<rect x="4" y="4" width="441" height="56" rx="6" fill="#FACF8E"/>
<path d="M44.8227 13.32V25.6H48.0227V12.56H52.8227V49.76H48.0227V29.96H44.8227V47.96H40.0227V13.32H44.8227ZM21.2627 20.44V16.12H37.8627V20.44H32.1427V25.16C32.1427 27.88 32.7827 29.28 34.4227 31.32C35.9027 33.2 37.9427 35.36 39.6627 37.04L36.3427 40.16C34.8227 38.56 33.1827 36.84 31.9827 35.4C31.0227 34.28 30.1827 33.28 29.9027 32.64H29.8627C29.6227 33.28 28.7427 34.36 27.7427 35.56C26.4227 37.16 24.5827 39.2 22.9427 40.84L19.6227 37.52C21.2627 35.92 23.3427 33.68 24.8627 31.76C26.5827 29.6 27.2227 28.16 27.2227 25.2V20.44H21.2627ZM84.3167 12.56V21.96H89.1967V26.36H84.3167V39H79.2767V12.56H84.3167ZM66.1967 36.6V45.04H85.1967V49.36H61.1167V36.6H66.1967ZM56.3967 32.64V14.72H61.4767V28.32C66.9567 28.32 71.5967 28.08 76.2767 27.48L76.7567 31.72C72.2367 32.4 66.9967 32.64 56.3967 32.64ZM123.531 13.32V25.24H126.811V12.56H131.651V49.76H126.811V29.6H123.531V47.96H118.691V13.32H123.531ZM100.451 16.08H114.811V20.44H105.451V35.52H106.611C109.851 35.52 113.211 35.4 116.531 34.88L117.051 39.2C113.811 39.76 109.931 39.88 106.611 39.88H100.451V16.08ZM164.945 12.56V49.76H159.865V12.56H164.945ZM154.065 15.52V40.16H136.105V15.52H141.105V23.88H149.065V15.52H154.065ZM141.105 28.2V35.92H149.065V28.2H141.105ZM168.039 30.4H176.319V25.92C174.159 24.76 172.879 23 172.879 20.76V19.8C172.879 15.32 177.919 12.88 185.079 12.88C192.239 12.88 197.279 15.32 197.279 19.8V20.76C197.279 23 195.999 24.76 193.839 25.92V30.4H202.119V34.52H168.039V30.4ZM185.079 50.88C178.599 50.88 173.079 48.68 173.079 44.08V42.88C173.079 38.28 178.599 36.08 185.079 36.08C191.559 36.08 197.079 38.28 197.079 42.88V44.08C197.079 48.68 191.559 50.88 185.079 50.88ZM185.079 16.92C180.999 16.92 177.879 18.2 177.879 19.96V20.6C177.879 22.36 180.999 23.64 185.079 23.64C189.159 23.64 192.279 22.36 192.279 20.6V19.96C192.279 18.2 189.159 16.92 185.079 16.92ZM185.079 40.16C181.519 40.16 178.079 41.36 178.079 43.2V43.76C178.079 45.6 181.519 46.8 185.079 46.8C188.639 46.8 192.079 45.6 192.079 43.76V43.2C192.079 41.36 188.639 40.16 185.079 40.16ZM185.079 27.68C183.719 27.68 182.479 27.6 181.319 27.44V30.4H188.839V27.44C187.679 27.6 186.399 27.68 185.079 27.68ZM241.973 12.56V26.12H247.093V30.52H241.973V49.76H236.893V12.56H241.973ZM215.973 42.08L213.293 38.08C225.333 30.92 226.013 28.88 226.013 22.96V20.28H213.973V15.92H231.093V23.2C231.093 31.28 229.253 33.96 215.973 42.08ZM276.387 12.56V20.8H281.267V25.2H276.387V34.8H271.347V12.56H276.387ZM265.107 50.88C258.307 50.88 253.707 48 253.707 43.72V42.12C253.707 37.84 258.307 34.96 265.107 34.96C271.907 34.96 276.507 37.84 276.507 42.12V43.72C276.507 48 271.907 50.88 265.107 50.88ZM265.107 39.08C261.067 39.08 258.667 40.88 258.667 42.44V43.4C258.667 44.96 261.067 46.76 265.107 46.76C269.147 46.76 271.547 44.96 271.547 43.4V42.44C271.547 40.88 269.147 39.08 265.107 39.08ZM265.907 14.28V32.4H248.307V14.28H253.267V19.6H260.947V14.28H265.907ZM253.267 23.8V28.2H260.947V23.8H253.267ZM311.241 12.56V25.88H316.401V30.28H311.241V49.76H306.241V12.56H311.241ZM281.401 41.72V37.36H287.681V26.72H292.681V37.28C297.921 37.2 301.481 37 304.401 36.68L304.761 41C300.361 41.56 293.561 41.72 281.401 41.72ZM283.161 16H302.001V21.8C302.001 25.12 301.801 29.48 301.121 33.04L296.161 32.44C296.841 28.84 297.041 25.28 297.041 22.52V20.36H283.161V16ZM325.695 31.36H348.775C349.615 27.64 349.855 24.36 349.855 20.72V19.08H329.895V14.72H354.895V19.8C354.895 23.96 354.535 28.2 353.855 31.36H359.775V35.64H345.255V49.76H340.175V35.64H325.695V31.36ZM379.469 50.88C372.869 50.88 367.829 48.2 367.829 43.72V41.96C367.829 37.48 372.869 34.8 379.469 34.8C386.069 34.8 391.109 37.48 391.109 41.96V43.72C391.109 48.2 386.069 50.88 379.469 50.88ZM371.469 26.68H371.429C371.189 27.32 370.589 28 368.949 29.44C367.109 31.04 365.109 32.68 362.869 34.36L359.869 30.64C362.189 28.92 364.029 27.48 365.949 25.72C367.589 24.24 368.669 22.28 368.669 19.68V14.08H373.789V19.52C373.789 22.16 374.269 23.56 376.429 25.32C377.989 26.6 380.189 28.2 382.189 29.56L379.389 33.08C377.549 31.8 375.789 30.52 374.309 29.36C372.949 28.28 371.669 27.32 371.469 26.68ZM385.949 34.6V24.36H379.389V20.08H385.949V12.56H390.989V34.6H385.949ZM379.469 38.92C375.989 38.92 372.789 40.48 372.789 42.32V43.36C372.789 45.2 375.989 46.76 379.469 46.76C382.949 46.76 386.149 45.2 386.149 43.36V42.32C386.149 40.48 382.949 38.92 379.469 38.92ZM399.283 49.76V36.92H409.043V33.92H394.523V29.84H428.603V33.92H414.083V36.92H423.843V49.76H399.283ZM398.643 13.76H424.483V17.72H420.203V23.44H424.723V27.4H398.403V23.44H402.923V17.72H398.643V13.76ZM404.283 40.96V45.72H418.843V40.96H404.283ZM407.883 17.72V23.44H415.243V17.72H407.883Z" fill="black"/>
</svg>
