<svg width="26" height="52" viewBox="0 0 26 52" fill="none" xmlns="http://www.w3.org/2000/svg">
<path d="M6.96 41.24C5.44 41.24 4.22667 40.84 3.32 40.04C2.44 39.2133 2 38.04 2 36.52V36.08C2 34.7467 2.08 33.5733 2.24 32.56C2.4 31.52 2.66667 30.6 3.04 29.8C3.44 28.9733 3.96 28.2267 4.6 27.56C5.24 26.8933 6.02667 26.24 6.96 25.6L13.24 21.44C13.88 21.0133 14.3067 20.5467 14.52 20.04C14.76 19.5333 14.88 19.04 14.88 18.56C14.88 17.8933 14.6133 17.3333 14.08 16.88C13.5733 16.4 12.8667 16.16 11.96 16.16C11.3467 16.16 10.8 16.2933 10.32 16.56C9.86667 16.8 9.41333 17.1067 8.96 17.48C8.74667 17.6667 8.48 17.8667 8.16 18.08C7.86667 18.2933 7.53333 18.4533 7.16 18.56C6.54667 18.72 5.88 18.7733 5.16 18.72C4.44 18.6667 3.78667 18.4 3.2 17.92C2.48 17.3333 2.09333 16.5733 2.04 15.64C2.01333 14.7067 2.25333 13.8667 2.76 13.12C3.24 12.3733 3.84 11.7333 4.56 11.2C5.30667 10.6667 6.09333 10.2267 6.92 9.88C7.77333 9.53333 8.64 9.28 9.52 9.12C10.4267 8.96 11.3067 8.88 12.16 8.88C13.68 8.88 15.0933 9.08 16.4 9.48C17.7333 9.85333 18.88 10.4133 19.84 11.16C20.8267 11.9067 21.6 12.8133 22.16 13.88C22.7467 14.9467 23.04 16.1733 23.04 17.56C23.04 19.72 22.6533 21.52 21.88 22.96C21.1333 24.3733 19.9333 25.6133 18.28 26.68L13.32 29.84C12.3067 30.5067 11.5733 31.0933 11.12 31.6C10.6667 32.08 10.44 32.6933 10.44 33.44V33.72C10.44 34.12 10.64 34.32 11.04 34.32H23.36V41.24H6.96Z" fill="#60AB83"/>
</svg>
