<svg width="41" height="44" viewBox="0 0 41 44" fill="none" xmlns="http://www.w3.org/2000/svg">
<path d="M40.5 19.9888C40.5 32.4322 31.9213 44.3662 21.2107 42.95C10.5 41.5337 0 32.2957 0 20.9888C0 12.499 7.73547 2.31287 21.2107 1.02789C32 -0.000976518 40.5 7.54547 40.5 19.9888Z" fill="#FBDBA8"/>
<path d="M13.0913 13.1002C12.7853 12.8282 12.6493 12.4542 12.6493 11.8762C12.6833 11.3662 12.7853 10.8562 13.1593 10.5162C14.1793 9.59819 15.2673 9.63219 16.5933 9.5642C17.6133 9.53019 18.3613 9.5642 19.3813 9.5642C20.9793 9.5642 22.9853 9.63219 24.6513 9.7002C26.0113 9.76819 27.4733 10.2442 27.5413 11.8082C27.6433 13.6102 26.1473 15.1402 25.0593 16.2282C24.0733 17.2482 22.6453 18.5402 21.6593 19.5602C25.2293 20.0362 28.4933 21.8042 28.4933 26.1562C28.4933 30.5082 24.9573 33.8062 20.0953 33.8062C17.9873 33.8062 15.1313 33.1262 13.5673 31.5282C12.4793 30.4742 11.8673 28.2302 13.7033 27.5842C15.0633 27.1082 16.2193 27.9582 17.3073 28.5702C18.9733 29.5902 20.8773 29.8962 22.6453 28.8422C24.6853 27.6182 24.3453 25.1362 22.5093 24.0822C20.7753 23.0622 18.1913 23.6742 16.7973 22.1102C15.2673 20.3422 18.4973 17.9962 19.5513 16.8062C20.2313 16.1262 21.3533 14.9702 21.5233 14.2902C21.7953 13.5422 20.2313 13.7802 19.6873 13.7802H17.4093C16.1853 13.7802 14.1113 13.9842 13.0913 13.1002Z" fill="#1E1E1E"/>
</svg>
