<svg width="41" height="44" viewBox="0 0 41 44" fill="none" xmlns="http://www.w3.org/2000/svg">
<path d="M40.5 19.9888C40.5 32.4322 31.9213 44.3662 21.2107 42.95C10.5 41.5337 0 32.2957 0 20.9888C0 12.499 7.73547 2.31287 21.2107 1.02789C32 -0.000976518 40.5 7.54547 40.5 19.9888Z" fill="#FBDBA8"/>
<path d="M16.4277 17.3162C15.1017 19.4242 12.2797 17.9962 12.4497 15.8202C12.5857 14.3242 13.8097 12.3182 14.9657 11.3662C17.1077 9.59819 20.7457 8.81619 23.3977 9.66619C27.0017 10.7882 29.1097 13.2362 29.1097 17.1122C29.1097 20.7842 27.8517 22.7562 23.7377 26.1222C23.0577 26.7002 22.3097 27.3122 21.5957 27.8902C21.1197 28.2642 18.5697 29.4882 20.2017 29.6242C21.1877 29.6922 21.5957 29.6242 22.5817 29.6242C23.7377 29.6242 24.8937 29.5222 26.0157 29.6242C26.9337 29.6922 28.2937 29.4542 29.0077 30.0662C29.7217 30.6782 29.7557 32.4802 29.1437 33.1262C28.5657 33.8062 27.6137 33.6022 26.8317 33.6022H14.6257C14.1837 33.6022 13.6057 33.7042 13.1977 33.5682C12.3817 33.3642 12.6197 32.6162 12.6197 31.9362C12.6197 29.6242 15.1017 28.1282 16.7337 26.7682C17.9237 25.7142 19.3517 24.6942 20.5757 23.6402C23.7717 20.9882 24.9277 19.4922 24.9277 17.4182C24.9277 15.1402 23.3297 13.8142 21.1877 13.8142C19.6237 13.8142 18.1277 14.5282 17.2437 15.8202C16.9717 16.2962 16.7337 16.8742 16.4277 17.3162Z" fill="#1E1E1E"/>
</svg>
