<svg width="41" height="44" viewBox="0 0 41 44" fill="none" xmlns="http://www.w3.org/2000/svg">
<path d="M40.5 19.9898C40.5 32.4332 31.9213 44.3671 21.2107 42.9509C10.5 41.5347 0 32.2966 0 20.9898C0 12.5 7.73547 2.31385 21.2107 1.02886C32 4.47035e-08 40.5 7.54644 40.5 19.9898Z" fill="#FBDBA8"/>
<path d="M21.0827 9.32717C21.3887 9.25917 21.6607 9.15717 21.9327 9.12317C22.6127 8.95317 23.8707 8.95317 24.2447 9.73517C24.6187 10.6532 24.4487 12.2512 24.4487 13.2372V30.6112C24.4487 31.5632 24.6867 32.8552 23.7347 33.5352C23.0887 34.0452 21.8307 34.0112 21.0827 33.7392C20.2667 33.4672 20.2327 32.5492 20.2327 31.8012C19.9267 25.8512 20.0287 20.2072 20.0287 14.1552C19.8927 14.5632 17.5467 14.9372 17.1727 14.9372C15.9827 15.0732 14.8607 14.8012 14.7247 13.4072C14.5547 11.9792 15.5067 11.1972 16.8327 10.7892C18.2607 10.3132 19.6547 9.73517 21.0827 9.32717Z" fill="#1E1E1E"/>
</svg>
