<svg width="35" height="55" viewBox="0 0 35 55" fill="none" xmlns="http://www.w3.org/2000/svg">
<g clip-path="url(#clip0_370_31939)">
<path d="M29.0961 29.9925C29.6878 29.9925 30.2795 29.8904 30.8713 29.6864C33.8052 28.6916 35.5065 25.5797 34.8654 22.5188C34.8161 22.3148 34.7668 22.1107 34.6928 21.9067C34.6189 21.7026 34.5449 21.4986 34.4709 21.32C33.4847 19.0244 31.2904 17.6215 28.9481 17.647C28.3564 17.647 27.7647 17.749 27.1729 17.953C26.5812 18.1571 26.0634 18.4377 25.5703 18.7948C23.6965 20.1722 22.7103 22.5954 23.1541 24.9931L20.0475 26.0388C20.0475 26.0388 19.8996 25.8348 19.8256 25.7328L21.3789 23.5136C21.6255 23.182 21.5515 22.6974 21.2063 22.4678C21.0337 22.3403 20.8365 22.2893 20.6639 22.3403C20.4913 22.3658 20.3187 22.4678 20.1955 22.6464L18.6668 24.8145C18.5189 24.7635 18.371 24.7125 18.223 24.6615V21.2945C21.157 20.9119 23.45 18.3357 23.45 15.1728C23.45 12.0099 21.1324 9.3571 18.1244 9.02551C17.9272 9.02551 17.7299 9 17.508 9C14.2288 9 11.5414 11.7548 11.5414 15.1728C11.5414 18.3357 13.8344 20.9119 16.7683 21.2945V24.6615C16.6204 24.7125 16.4725 24.738 16.3246 24.8145L14.7959 22.6464C14.6726 22.4678 14.5001 22.3658 14.3275 22.3403C14.1549 22.3148 13.9576 22.3403 13.785 22.4678C13.4645 22.7229 13.3906 23.182 13.6125 23.5136L15.1657 25.7328C15.1657 25.7328 15.0178 25.9368 14.9438 26.0388L11.8373 24.9931C12.2071 23.0035 11.6154 20.9884 10.3086 19.5855C9.64293 18.8713 8.80465 18.2846 7.81843 17.9786C7.42394 17.851 7.02946 17.7745 6.63497 17.7235C6.43773 17.698 6.24048 17.698 6.04324 17.6725C3.50373 17.647 1.13681 19.3049 0.298528 21.9322C-0.539756 24.5594 0.44646 27.3397 2.51752 28.8702C2.98597 29.2273 3.52839 29.5078 4.12012 29.7119C5.10633 30.0435 6.09255 30.0945 7.05411 29.916C8.90327 29.5589 10.5305 28.309 11.3688 26.447L14.4754 27.4928C14.4754 27.4928 14.4754 27.6458 14.4754 27.7223C14.4754 27.8244 14.4754 27.9009 14.5001 28.0029L11.9359 28.8702C11.5414 28.9977 11.3442 29.4313 11.4674 29.8139C11.5661 30.12 11.8619 30.3241 12.1578 30.3241C12.2318 30.3241 12.3057 30.3241 12.3797 30.2986L14.9438 29.4313C14.9438 29.4313 15.0918 29.6354 15.1657 29.7119L13.2426 32.4412C10.6538 30.9618 7.32532 31.6504 5.52548 34.2012C3.5777 36.956 4.19408 40.8076 6.85687 42.8226C7.84309 43.5623 9.00189 43.9449 10.1607 43.996C11.4921 44.047 12.8235 43.6133 13.933 42.7716C14.4014 42.4145 14.8206 41.9554 15.1904 41.4452C16.9902 38.8945 16.5958 35.4 14.4261 33.3084L16.3492 30.5791C16.4725 30.6302 16.6204 30.6812 16.7683 30.7067V33.538C16.7683 33.9461 17.0889 34.3032 17.4834 34.3032C17.8778 34.3032 18.223 33.9716 18.223 33.538V30.7067C18.371 30.6812 18.4942 30.6302 18.6175 30.5791L20.5406 33.3084C19.9736 33.8441 19.5298 34.4818 19.2339 35.1449C18.3216 37.109 18.4696 39.5322 19.801 41.4197C21.0091 43.1287 22.9075 44.0215 24.8307 43.9449C25.9895 43.8939 27.1236 43.5113 28.1345 42.7716C30.3042 41.1391 31.0931 38.3078 30.2795 35.8081C30.0823 35.2215 29.8111 34.6858 29.4659 34.1502C28.2578 32.4412 26.3593 31.5484 24.4362 31.6249C23.5239 31.6504 22.6117 31.9055 21.7487 32.3902L19.8256 29.6609C19.8256 29.6609 19.9736 29.4823 20.0475 29.3803L22.6363 30.2475C22.6363 30.2475 22.7843 30.2731 22.8582 30.2731C23.1541 30.2731 23.45 30.069 23.5486 29.7629C23.6719 29.3548 23.45 28.9467 23.0801 28.8191L20.516 27.9519C20.516 27.9519 20.5406 27.7733 20.5406 27.6713C20.5406 27.5948 20.5406 27.5183 20.5406 27.4417L23.6472 26.396C24.6581 28.6151 26.8031 29.9925 29.1207 29.967" fill="#6A9DF5"/>
</g>
<defs>
<clipPath id="clip0_370_31939">
<rect width="35" height="35" fill="white" transform="translate(0 9)"/>
</clipPath>
</defs>
</svg>
