<svg width="34" height="50" viewBox="0 0 34 50" fill="none" xmlns="http://www.w3.org/2000/svg">
<g clip-path="url(#clip0_2044_81937)">
<path d="M34 33.9164C33.2929 30.6407 32.0555 25.8273 28.6378 21.7493C25.1612 17.6713 20.3293 17.6045 20.3293 17.6045C20.3293 17.6045 25.8683 21.415 27.695 27.0975C22.3328 24.2228 19.5633 16.2674 17.383 16C18.2669 19.8106 18.5026 29.8384 16.9705 32.0446C15.4385 29.7716 15.6742 19.8106 16.5581 16C14.3778 16.2674 11.6083 24.2228 6.2461 27.0975C8.07279 21.3482 13.6707 17.6045 13.6707 17.6045C13.6707 17.6045 8.83882 17.6045 5.42114 21.7493C1.94454 25.8273 0.707106 30.6407 0 33.9164C3.35875 33.3816 9.7227 31.1755 12.9047 25.4262C11.9619 33.0474 16.9705 40 16.9705 40C16.9705 40 21.9792 33.0474 21.0364 25.4262C24.2184 31.1755 30.5823 33.3816 33.9411 33.9164" fill="#E58076"/>
</g>
<defs>
<clipPath id="clip0_2044_81937">
<rect width="34" height="24" fill="white" transform="translate(0 16)"/>
</clipPath>
</defs>
</svg>
