<svg width="244" height="56" viewBox="0 0 244 56" fill="none" xmlns="http://www.w3.org/2000/svg">
<path d="M108.79 6.58545C107.348 5.28776 105.313 4.58434 103.05 4.58434H102.955C102.618 4.58434 102.295 4.59647 101.972 4.63286C101.648 3.55347 101.042 2.59537 100.207 1.84344C98.8727 0.654906 96.9863 0 94.8978 0C94.8439 0 94.7766 0 94.7227 0C92.9037 0 91.2868 0.472988 90.0067 1.37045C88.7402 0.472988 87.1098 0 85.3043 0C85.2504 0 85.183 0 85.1156 0C83.0272 0 81.1408 0.654906 79.8203 1.84344C78.9849 2.59537 78.3921 3.55347 78.0552 4.62073C77.7723 4.59647 77.4759 4.58434 77.1659 4.58434H76.9638C74.6867 4.58434 72.6521 5.28776 71.2104 6.58545C69.7687 7.90739 68.9737 9.77508 69.0007 11.849C68.9737 13.935 69.7687 15.8026 71.2239 17.1125C72.6656 18.398 74.7002 19.1136 76.9638 19.1136H77.1659C78.19 19.1136 79.1736 18.9559 80.0629 18.6891C80.1976 18.8225 80.3189 18.9559 80.4671 19.0893C82.5421 20.9691 85.8702 22 89.845 22H90.155C94.1298 22 97.4579 20.9691 99.5329 19.0893C99.6811 18.9559 99.8024 18.8225 99.9371 18.6891C100.84 18.968 101.81 19.1136 102.834 19.1136H103.036C105.313 19.1136 107.348 18.398 108.776 17.1125C110.231 15.8026 111.026 13.935 110.999 11.849C111.026 9.76296 110.231 7.89526 108.776 6.58545" fill="#8AA6D2"/>
<path d="M138.12 43.6C138.92 43.64 139.64 43.96 139.92 44.8C140.2 45.76 139.84 46.44 138.88 46.8C138.24 47.08 137.52 47.08 136.96 47.08H118.36C117.28 47.08 116.12 47.08 114.96 47.04C113.84 47 113.04 46.16 112.92 44.96C112.84 44.08 112.8 42.8 112.8 42.08V41.72C112.76 41.12 112.76 40.2 113.24 39.64C113.92 38.88 115.36 38.76 116.52 38.76H117.36C117.56 38.76 117.76 38.8 117.92 38.8H135.32V37.08H117.52C117.24 37.08 116.92 37.04 116.64 37.08H115.64C115.12 37.08 114.68 37.08 114.28 37C113.84 36.88 113.44 36.88 113.16 36.44C112.8 35.88 112.72 35.36 112.88 34.72C113.16 33.88 114.36 33.76 114.96 33.64C115.36 33.6 115.76 33.56 116.24 33.56H116.92C117.16 33.56 117.4 33.6 117.64 33.6H135.72C138.4 33.6 139.92 34.36 139.92 36.24V39.36C139.92 40.08 139.64 40.84 138.8 41.36C138.08 41.76 137.36 41.72 136.72 41.72H117.72V43.6H138.12ZM121.64 14.16C127.08 14.52 130.12 17.64 129.72 23.36C129.36 28.12 126.8 30.88 121.72 30.88C118.96 30.88 117.52 31.08 115.08 29.56C112.76 28.08 112.04 25.12 112.04 22.56C112.04 16.8 116.12 13.76 121.64 14.16ZM140.64 26.24H139.72V29.48C139.72 30.88 138.92 32.08 137.28 32.08C136.88 32.08 136.48 32 136.16 31.8C135.08 31.16 134.92 30 134.92 29.6V17.64C134.88 17.44 134.96 16.2 135.28 15.56C135.52 15.04 136.12 14.68 136.88 14.6C137.8 14.48 138.64 14.72 139.08 15.2C139.4 15.6 139.48 16 139.6 16.44C139.76 16.92 139.76 18.04 139.72 18.56V21.8C140.16 21.84 142.32 21.88 142.8 22C143.84 22.2 144.2 22.64 144.32 23.2C144.48 23.76 144.52 24.68 144.2 25.2C143.56 26.24 142.2 26.2 140.64 26.24ZM125.08 23.84L125.12 23.52C125.36 21.6 124.4 19.76 122.72 19.16C120.48 18.4 117.04 19.08 116.6 22.08C116.28 24.12 117.16 26.36 120.24 26.64C122.36 26.88 124.56 26.28 125.08 23.84ZM154.163 14.56C154.843 14.56 155.483 14.64 156.123 14.72C157.123 14.88 158.043 15.36 158.803 16.12C161.403 18.84 161.803 23.52 161.963 27.32C162.083 29.76 162.083 32.24 161.803 34.64C161.523 37.12 161.163 39.8 159.843 41.84C158.723 43.56 157.083 44.68 155.283 45.04C153.643 45.36 151.843 45.16 150.323 44.28C148.883 43.44 148.083 42.12 147.363 40.44C146.843 39.2 146.523 37.84 146.443 36.48C146.243 34.24 146.163 32 146.163 29.76C146.163 28.24 146.243 26.76 146.403 25.28C146.483 24.08 146.603 22.84 146.803 21.68C147.003 20.72 147.123 19.88 147.523 19C147.923 18.12 148.443 17.28 149.123 16.64C150.283 15.48 151.643 14.84 153.163 14.64C153.483 14.6 153.843 14.6 154.163 14.56ZM174.083 26.84H174.163C174.403 26.84 174.643 26.92 174.923 26.92C175.203 26.96 175.523 27 175.843 27.04C176.443 27.16 177.083 27.4 177.363 28C177.563 28.32 177.643 28.68 177.643 29.04C177.643 29.44 177.643 29.8 177.523 30.2C177.443 30.6 177.323 31.16 176.963 31.44C176.643 31.68 176.283 31.88 175.883 31.96C175.043 32.08 173.603 31.96 172.763 32C172.683 32 172.643 32.04 172.643 32.04C172.643 32.04 172.603 32.04 172.603 32.2C172.563 33.52 172.603 35.92 172.603 37.28C172.643 38.64 172.643 40.04 172.603 41.36V41.92C172.603 43.32 172.603 45.36 171.643 46.32C171.323 46.68 170.883 46.88 170.363 46.88C170.363 46.88 170.323 46.84 170.283 46.84C167.683 46.76 167.403 43.64 167.403 41.96V18.2C167.403 18.12 167.363 16.12 168.243 15.24C168.603 14.88 169.443 14.68 170.043 14.68C170.643 14.68 171.163 14.92 171.523 15.28C172.243 16.04 172.283 16.88 172.363 17.76C172.403 17.92 172.403 18.08 172.403 18.24C172.523 19.12 172.523 20.12 172.563 21.08C172.563 21.68 172.603 22.2 172.603 22.8C172.563 23.12 172.603 23.4 172.603 23.68V25.88C172.603 26.16 172.603 26.48 172.683 26.76C172.683 26.8 173.483 26.8 173.523 26.8C173.723 26.84 173.883 26.88 174.083 26.84ZM154.043 39.72C154.523 39.72 155.043 39.56 155.523 39.24C156.403 38.6 156.723 37.48 156.963 36.2C157.403 33.76 157.363 30.8 157.283 28.28C157.243 26.24 157.203 23.6 156.243 21.96C155.723 21.08 154.923 20.52 154.083 20.64C153.203 20.72 152.363 21.28 151.883 22.32L151.523 23.16C151.203 24.16 151.043 25.28 150.963 26.36C150.883 27.44 150.803 28.56 150.803 29.64C150.843 30.72 150.723 31.72 150.803 32.76C151.003 35.52 151.403 39.68 154.043 39.72ZM205.646 39.52C205.806 39.56 205.966 39.52 206.126 39.52C207.006 39.6 207.806 39.8 208.526 40.44C208.886 40.8 209.086 41.28 209.086 41.84C209.086 42.4 208.886 43.2 208.566 43.56C207.726 44.4 205.766 44.32 205.686 44.32H183.286C183.046 44.32 182.766 44.36 182.486 44.36C181.366 44.4 179.926 44.48 179.046 43.72C178.526 43.24 178.206 42.64 178.206 42C178.206 41.2 178.726 40.2 179.526 39.88C180.606 39.48 181.766 39.56 182.926 39.52H183.126C185.406 39.48 187.886 39.48 190.286 39.52L190.246 34C188.206 34.04 186.526 34.04 185.566 33.96C184.446 33.92 182.966 33.88 182.046 33.2C180.846 32.28 180.806 29.36 180.806 29.24V20.64C180.806 19.6 180.646 18.48 180.846 17.44C181.126 16.2 182.646 15.88 183.846 15.8C184.766 15.76 186.126 16 186.326 17.08C186.406 17.56 186.246 20.6 186.446 21.04C186.566 21.32 187.126 21.36 187.406 21.4C188.646 21.48 189.046 21.36 190.286 21.36L199.446 21.4C200.006 21.44 200.446 21.44 200.606 20.88C200.646 20.32 200.646 17.96 200.686 17.52C200.726 16.56 201.006 16 202.006 15.8C203.046 15.56 204.526 15.64 205.126 16.24C205.966 17.12 205.926 18.16 205.926 20.24C205.846 22.68 206.046 28.56 205.806 31C205.686 32.56 204.806 33.56 203.286 33.8C202.486 33.92 201.406 33.88 200.606 33.88C198.886 33.92 197.246 33.92 195.646 33.92L195.726 39.52C198.446 39.52 200.326 39.44 202.926 39.52C203.886 39.56 204.806 39.44 205.646 39.52ZM186.446 28.84C186.646 29.64 187.806 29.64 188.686 29.68C189.086 29.64 197.206 29.56 197.686 29.64C198.126 29.68 198.566 29.64 199.006 29.68C199.566 29.72 200.526 29.92 200.526 29.04C200.526 28.64 200.606 27 200.406 26.24C200.246 25.6 199.886 25.64 199.366 25.68C199.126 25.68 198.366 25.72 198.126 25.68H189.006C188.006 25.64 186.526 25.44 186.406 26.68C186.406 26.96 186.406 28.64 186.446 28.84ZM240.387 43.72C240.307 44.36 240.267 44.96 240.067 45.6C239.987 45.8 239.907 45.96 239.827 46.16C239.667 46.48 239.427 46.8 239.107 47.04C238.507 47.4 237.747 47.48 237.067 47.32C236.667 47.24 236.307 47.08 236.027 46.84C235.067 45.96 235.107 43.88 235.107 43.8V19.08C235.067 17.84 235.107 15.84 235.867 15.12C236.427 14.56 237.107 14.48 237.827 14.48C238.747 14.48 239.587 15.04 239.907 15.92C240.387 17.04 240.347 18.28 240.387 19.52V19.72C240.507 23.8 240.387 28.32 240.387 32.16V42.28C240.387 42.76 240.427 43.24 240.387 43.72ZM221.507 39.8C221.467 39.16 221.467 38.52 221.467 37.88V25.16C221.467 24.32 221.467 23.44 221.387 22.56C221.347 22.28 221.307 21.68 221.027 21.56C220.747 21.4 220.387 21.48 220.067 21.44C219.707 21.4 219.347 21.48 218.987 21.44H217.107C216.227 21.48 215.267 21.4 214.387 21.44C213.987 21.48 213.627 21.44 213.227 21.44C212.627 21.44 211.947 21.44 211.427 21.08C210.667 20.56 210.467 19.68 210.467 18.84C210.427 18.32 210.547 17.8 210.787 17.32C210.907 17.04 211.067 16.8 211.307 16.64C211.587 16.36 212.187 16.16 212.547 16.08C213.667 15.8 214.947 15.84 216.107 15.84H223.067C223.747 15.92 224.587 16 225.227 16.24C225.627 16.4 226.107 16.68 226.347 17.04C226.827 17.8 226.827 18.52 226.907 19.4C227.027 20.88 226.987 22.36 226.987 23.84V36.96C226.987 37.08 227.067 40.4 226.987 42.08C226.907 43.16 226.667 44.48 225.267 45C224.787 45.2 224.307 45.28 223.907 45.28C223.227 45.28 222.427 45 222.147 44.4C221.747 43.6 221.507 42.6 221.507 41.56V39.8Z" fill="#1E1E1E"/>
<rect x="16" width="89" height="56" rx="28" fill="#B4483E"/>
<path d="M56.6 41.84C57.44 41.88 58.16 42.2 58.4 43.04C58.68 44 58.36 44.68 57.36 45.04C56.72 45.32 56 45.32 55.48 45.32H37.68C36.6 45.32 35.4 45.32 34.24 45.28C32.8 45.24 32.32 44.24 32.24 43.04L32.08 40.28C32.04 39.68 32.04 38.28 32.52 37.72C33.24 36.96 34.24 36.84 35.4 36.84H36.64C36.88 36.84 37.04 36.88 37.2 36.88H53.84V35.28H36.8C36.52 35.28 36.24 35.24 35.92 35.28H34.96C34.44 35.28 34 35.28 33.6 35.2C33.12 35.08 32.72 35.08 32.44 34.64C32.12 34.08 32 33.44 32.2 32.8C32.48 31.96 33.68 31.84 34.28 31.72C34.68 31.68 35.08 31.64 35.52 31.64H36.2C36.48 31.68 36.68 31.68 36.96 31.68H54.24C56.92 31.68 58.44 32.44 58.44 34.32V38C58.44 38.72 58.12 39.36 57.28 39.88C56.6 40.28 55.88 40.24 55.2 40.24H37V41.84H56.6ZM39.44 12.52C44.88 12.88 47.92 16 47.52 21.72C47.16 26.48 44.6 29.24 39.52 29.24C37.56 29.24 35.32 29.44 32.88 27.92C30.56 26.44 29.84 23.48 29.84 20.92C29.84 15.16 33.92 12.12 39.44 12.52ZM58.48 15.92V27.44C58.48 27.48 58.32 29.04 57.28 29.72C56.92 29.92 56.56 30.04 56.16 30.04C55.68 30.04 55.24 29.88 54.84 29.6C54.56 29.4 54.32 29.12 54.16 28.76C53.36 27.16 53.68 24.8 53.68 23.04C53.72 20.76 53.72 19.28 53.72 17.04V16.52C53.68 15.92 53.68 15.24 53.84 14.64C53.96 14.2 54.2 13.8 54.56 13.36C55 12.84 55.84 12.56 56.72 12.68C57.48 12.8 58.08 13.2 58.32 13.72C58.64 14.4 58.52 15.72 58.48 15.92ZM42.88 22.2L42.92 21.88C43.16 19.96 42.2 18.12 40.52 17.52C38.28 16.76 34.84 17.44 34.4 20.44C34.08 22.48 34.96 24.72 38.04 25C40.16 25.24 42.36 24.64 42.88 22.2ZM88.3231 29.16C88.7631 29.16 89.1631 29.28 89.7231 29.4C90.1631 29.52 90.6031 29.72 90.9231 29.92C91.2831 30.28 91.4831 30.72 91.4831 31.24C91.4831 31.48 91.4831 31.8 91.3631 32.12C91.2831 32.44 91.1631 32.68 90.9231 32.8C90.8431 33 90.4831 33.12 90.1631 33.24C89.8431 33.32 89.5231 33.44 89.1631 33.44C88.7631 33.44 88.4031 33.56 87.9631 33.56C87.7631 33.56 66.7231 33.56 66.7231 33.56C66.0831 33.56 65.4031 33.56 64.7631 33.56C64.0031 33.56 63.2031 33.32 62.6831 32.8C62.2431 32.12 62.1231 30.92 62.5631 30.28C62.7631 29.84 63.2031 29.6 63.5631 29.52C64.2031 29.28 64.7631 29.16 65.2831 29.16C65.8431 29.16 66.5231 29.16 67.1631 29.16C67.7231 29.16 73.7231 29.16 73.7231 29.16V26.76C73.6431 26.88 73.4031 26.76 73.0831 26.76H71.8831C70.6831 26.76 69.6831 26.76 68.3631 26.76C67.8031 26.76 66.9631 26.76 66.4031 26.64C65.8431 26.56 65.2831 26.44 64.8431 26.12C64.5231 25.88 64.3231 25.56 64.0831 25.24C64.0031 24.8 63.8831 24.48 63.7631 24.12C63.6431 23.8 63.6431 23.48 63.5631 23.16C63.5631 22.92 63.5631 22.72 63.5631 22.72V15.04C63.5631 14.6 63.7631 14.04 64.0031 13.6C64.2031 13.08 64.6431 12.84 65.2031 12.72C65.5231 12.72 66.1631 12.64 66.5231 12.64C66.8431 12.72 67.0431 12.72 67.3631 12.84C68.3631 13.28 68.3631 14.48 68.3631 15.48C68.3631 15.68 68.3631 16.04 68.3631 16.24C68.3631 16.56 68.3631 16.8 68.3631 16.8C68.3631 16.8 85.2431 17 85.5631 16.92C85.5631 16.8 85.4431 16.68 85.5631 16.48C85.5631 16.24 85.5631 16.04 85.5631 15.68V15.24V14.72C85.5631 14.28 85.5631 13.96 85.8031 13.52C86.0031 13.16 86.6431 12.84 87.0831 12.72C88.0831 12.52 88.8431 12.64 89.4031 13.08C89.9631 13.6 90.1631 14.28 90.1631 15.24V17.24C90.1631 18 90.1631 18.76 90.1631 19.52C90.1631 20.28 90.1631 21.08 90.1631 21.84C90.1631 22.6 90.1631 23.24 90.0431 23.92C90.0431 24.24 89.9631 24.56 89.8431 24.8C89.7231 25.12 89.6031 25.32 89.4031 25.68C88.9631 26.32 88.0831 26.56 87.4431 26.64C87.0031 26.64 86.6431 26.76 86.2431 26.76C85.4431 26.76 84.8031 26.76 84.0431 26.76C83.7231 26.76 80.9631 26.76 80.5231 26.76C80.2031 26.76 79.7631 26.76 79.4431 26.76C79.4431 27.08 79.4431 27.84 79.4431 28.2V29.16C80.2031 29.16 80.4031 29.16 81.2831 29.16C82.1631 29.16 83.0431 29.16 83.8031 29.16H86.3231C87.0831 29.16 87.7631 29.16 88.3231 29.16ZM73.9631 39.56H88.6431C88.7631 39.56 88.7631 39.56 88.9631 39.56C89.0831 39.68 89.2831 39.8 89.5231 39.92C89.7231 40 89.8431 40.12 90.0431 40.36C90.1631 40.56 90.2831 40.8 90.4031 41.12C90.4831 42.08 90.4031 42.88 89.9631 43.4C89.6031 43.84 89.2831 44.08 88.9631 44.08C88.6431 44.2 88.4031 44.2 88.4031 44.2H66.5231C65.5231 44.2 64.7631 44.08 64.2031 43.76C63.5631 43.4 63.3231 42.88 63.3231 42.32V38.72C63.2031 38.16 63.2031 37.6 63.3231 36.96C63.3231 36.4 63.5631 35.96 63.8831 35.64C64.3231 35.2 64.7631 35.08 65.2831 35.08C65.4031 35.08 65.6431 35.08 65.8431 35.08C66.0831 35.08 66.2831 35.08 66.4031 35.2C66.7231 35.32 67.0431 35.4 67.1631 35.64C67.3631 35.84 67.4831 36.08 67.6031 36.4C67.7231 36.72 67.8031 36.96 67.8031 37.28C67.8031 37.6 67.9231 37.92 67.9231 38.16C67.9231 38.36 67.9231 38.6 67.9231 38.8C67.9231 39.04 68.0431 39.24 68.0431 39.48C68.1631 39.48 68.3631 39.56 68.8031 39.56C69.2431 39.56 69.8831 39.56 70.8831 39.56C71.6431 39.56 72.4031 39.56 72.9631 39.56C73.6431 39.56 73.9631 39.56 73.9631 39.56ZM68.6031 22.72C68.8031 23.04 69.1231 23.16 69.5631 23.16C69.8831 23.16 70.2431 23.16 70.5631 23.16C71.7631 23.16 72.7631 23.16 73.8431 23.16C74.2831 23.16 74.7231 23.16 75.1631 23.16H76.4831H77.5631C77.8831 23.16 84.8031 23.16 84.9231 23.16C85.1231 23.16 85.2431 23.16 85.3631 23.04C85.4431 22.92 85.5631 22.72 85.5631 22.48C85.5631 22.28 85.5631 22.16 85.5631 21.96C85.5631 21.84 85.5631 20.72 85.5631 20.72C85.5631 20.72 75.8031 20.72 75.1631 20.72C74.4031 20.72 70.5631 20.72 69.8831 20.72C69.4431 20.72 68.3631 20.72 68.3631 20.72C68.3631 20.72 68.3631 21.76 68.3631 21.88C68.4831 22.08 68.4831 22.6 68.6031 22.72Z" fill="white"/>
<path d="M26.5264 36.0888C25.5652 35.086 24.2089 34.5424 22.6998 34.5424H22.6369C22.4123 34.5424 22.1967 34.5518 21.9811 34.5799C21.7656 33.7459 21.3613 33.0055 20.8044 32.4245C19.9151 31.5061 18.6575 31 17.2652 31C17.2293 31 17.1844 31 17.1484 31C15.9358 31 14.8578 31.3655 14.0045 32.059C13.1601 31.3655 12.0732 31 10.8695 31C10.8336 31 10.7887 31 10.7438 31C9.35145 31 8.09387 31.5061 7.21356 32.4245C6.65663 33.0055 6.26139 33.7459 6.03683 34.5706C5.84819 34.5518 5.65057 34.5424 5.44397 34.5424H5.30923C3.79115 34.5424 2.43476 35.086 1.47361 36.0888C0.512457 37.1103 -0.0175231 38.5535 0.000442289 40.156C-0.0175231 41.7679 0.512457 43.2111 1.48259 44.2233C2.44374 45.2166 3.80013 45.7696 5.30923 45.7696H5.44397C6.12665 45.7696 6.78239 45.6477 7.37525 45.4416C7.46508 45.5447 7.54592 45.6477 7.64473 45.7508C9.02807 47.2034 11.2468 48 13.8967 48H14.1033C16.7532 48 18.9719 47.2034 20.3553 45.7508C20.4541 45.6477 20.5349 45.5447 20.6247 45.4416C21.2266 45.6571 21.8733 45.7696 22.556 45.7696H22.6908C24.2089 45.7696 25.5652 45.2166 26.5174 44.2233C27.4875 43.2111 28.0175 41.7679 27.9996 40.156C28.0175 38.5441 27.4875 37.1009 26.5174 36.0888" fill="#8AA6D2"/>
<path d="M91.0965 47.3589C91.4912 45.7763 92.4354 44.5287 93.5343 44.1359C94.6332 43.7432 95.856 44.2168 96.6918 45.3604C97.0478 45.8456 97.3728 46.481 97.8526 46.608C98.108 46.6774 98.3634 46.5849 98.611 46.4925C100.112 45.938 101.885 45.4413 103.069 46.9315C103.332 47.2665 103.548 47.6824 103.873 47.8672C104.268 48.0982 104.709 47.9134 105.135 47.9134C105.924 47.9134 106.683 48.6643 107 49.7386C103.502 52.0721 99.5242 52.049 95.6935 51.9797C93.4414 51.945 91.1972 51.8988 88.9451 51.8642C88.1325 51.8526 87.0646 51.5061 87.0027 50.2931C86.9408 49.0802 87.97 48.5026 88.7671 48.3293" fill="#759AC6"/>
</svg>
