<svg width="73" height="52" viewBox="0 0 73 52" fill="none" xmlns="http://www.w3.org/2000/svg">
<mask id="path-1-outside-1_2044_77693" maskUnits="userSpaceOnUse" x="1" y="3" width="72" height="45" fill="black">
<rect fill="white" x="1" y="3" width="72" height="45"/>
<path d="M8.12 24C9.2 24 10.52 24.08 12.04 24.12C12.04 23.56 12.04 23.04 12.08 22.52C12.04 22.52 12 22.52 11.96 22.48C9.28 21.4 7.16 20.24 7.16 17.04C7.16 16.28 7.24 15.6 7.44 15C6.16 15 5.12 14.04 5.12 12.84C5.12 11.68 6.2 10.72 7.48 10.72H12.76V9.4C12.76 8.4 13.8 7.56 15.08 7.56C16.36 7.56 17.44 8.4 17.44 9.4V10.72H22.96C24.28 10.72 25.36 11.68 25.36 12.84C25.36 14.04 24.32 14.96 23.04 15C23.2 15.6 23.32 16.28 23.32 17.04C23.32 19.28 22.68 20.24 20.84 21.56C19.92 22.24 18.68 22.64 17.36 22.8V24.04V24.24C19.36 24.24 19.04 24.12 21.88 24.2C22.88 24.2 23.84 24.12 24.76 24.52C25.44 24.84 25.88 25.6 25.88 26.44C25.88 27.12 25.6 27.36 25.16 27.84C24.4 28.64 23.2 28.6 22.24 28.52H8.12C8.04 28.52 6.36 28.56 5.72 27.64C5.4 27.32 5.24 27 5.24 26.44C5.24 25.88 5.44 25.48 5.72 25.12C6.32 24.44 7.44 24.08 8.12 24ZM32.2 39.44C33.04 39.52 33.76 39.8 34 40.64C34.32 41.6 33.96 42.28 32.96 42.68C32.32 42.92 31.64 42.96 31.08 42.96H12.48C11.4 42.96 10.24 42.92 9.08 42.88C7.96 42.84 7.16 42 7.04 40.8L6.92 38C6.88 37.44 6.84 36.48 7.32 35.96C8.04 35.16 9.48 35.04 10.64 35.04C12.16 35.04 17.24 35.08 29.44 35.08V33.64H9.76C9.24 33.64 8.8 33.64 8.4 33.56C7.92 33.44 7.52 33.44 7.28 33C6.92 32.44 6.8 31.92 7 31.28C7.28 30.44 8.48 30.32 9.08 30.24C9.48 30.16 9.88 30.12 10.32 30.12C12.72 30.12 15.52 30.16 29.84 30.16C32.52 30.16 34.04 30.96 34.04 32.8V35.64C34.04 36.36 33.72 37.16 32.88 37.64C32.2 38.04 31.48 38 30.8 38H11.84V39.44H32.2ZM28.48 25.44V15.16C28.44 13.96 28.48 12 29.16 11.32C29.76 10.8 30.36 10.72 31.08 10.72C31.96 10.72 32.76 11.28 33.08 12.08C33.52 13.2 33.48 14.4 33.52 15.56C33.52 16.88 33.52 17.92 33.56 18.88C34.72 18.88 35.84 18.92 36.52 18.96C37.92 19.04 38.88 21.16 38.04 22.24C37.28 23.32 35.4 23.48 33.6 23.4V25C33.6 26.12 33.4 26.6 33.2 27.2C33.16 27.36 33.08 27.52 33 27.72C32.84 28.04 32.6 28.36 32.28 28.56C31.72 28.92 31 29 30.32 28.88C30 28.8 29.64 28.64 29.36 28.4C28.44 27.52 28.48 25.52 28.48 25.44ZM14.92 18.8C16.44 18.88 18.52 18.88 18.52 17.04C18.52 15.56 17.72 15.12 16.68 15H13.4C12.44 15.16 11.72 15.64 11.72 17.04C11.8 18.8 13.36 18.88 14.92 18.8ZM64.8653 26C65.7453 26.04 66.7453 26.2 67.5053 26.8C67.8653 27.08 68.0653 27.56 68.0653 28.04C68.0653 28.56 67.8653 29.24 67.5453 29.52C66.7053 30.32 64.6253 30.24 64.5453 30.24L43.2253 30.28C42.0253 30.32 40.5453 30.4 39.6653 29.68C39.0653 29.24 38.7453 28.8 38.7453 28.2C38.7453 27.48 39.3053 26.56 40.1453 26.28C41.2653 25.92 42.4653 26.04 43.6653 26C46.2653 25.92 47.1053 26 49.7853 26V23.72C47.5853 23.68 45.2653 23.64 44.2653 23.6C42.9453 23.64 40.6653 23.44 40.2653 22C39.9853 20.8 39.8653 20.96 39.8653 19.72V15.44C39.8253 15.52 39.7453 13.52 40.4253 12.44C41.1053 11.32 43.5453 11.28 43.8253 11.28H61.4253C62.5453 11.28 63.7853 11.2 64.8653 11.6C65.7453 11.96 66.0253 12.92 65.9853 13.88C65.9053 14.76 65.3053 15.48 64.3853 15.72C63.9053 15.84 63.1453 15.88 62.1453 15.88C61.4653 15.88 60.9053 15.84 60.9053 15.84H46.7453C46.4653 15.8 45.8653 15.8 45.5853 15.96C45.3053 16.08 45.3453 18.64 45.4653 18.92C45.6653 19.28 46.5453 19.24 47.1053 19.2C48.3853 19.16 50.7853 19.2 58.8253 19.2H61.7853C63.1053 19.2 64.2253 19.12 65.1053 19.56C65.6253 19.8 66.0253 20.32 66.1853 20.92C66.3053 21.56 66.1453 22.24 65.7853 22.72C64.9453 23.76 63.9453 23.6 62.7853 23.64C61.9053 23.68 57.8653 23.72 55.3853 23.72C55.4253 24.48 55.4653 25.36 55.4653 26C58.4253 26 62.5853 25.88 64.8653 26ZM40.0253 37.68C40.0253 33.16 45.9053 32.08 53.1053 32.08C60.3453 32.08 66.2253 32.64 66.2253 37.68C66.2253 42.64 60.3453 43.28 53.1053 43.28C45.9053 43.28 40.0253 42.64 40.0253 37.68ZM60.9453 37.68C60.9453 35.96 56.7853 36 53.1053 36C49.4653 36 45.5453 35.96 45.5453 37.68C45.5453 39.2 49.4653 39.36 53.1053 39.36C56.7853 39.36 60.9453 39.68 60.9453 37.68Z"/>
</mask>
<path d="M8.12 24C9.2 24 10.52 24.08 12.04 24.12C12.04 23.56 12.04 23.04 12.08 22.52C12.04 22.52 12 22.52 11.96 22.48C9.28 21.4 7.16 20.24 7.16 17.04C7.16 16.28 7.24 15.6 7.44 15C6.16 15 5.12 14.04 5.12 12.84C5.12 11.68 6.2 10.72 7.48 10.72H12.76V9.4C12.76 8.4 13.8 7.56 15.08 7.56C16.36 7.56 17.44 8.4 17.44 9.4V10.72H22.96C24.28 10.72 25.36 11.68 25.36 12.84C25.36 14.04 24.32 14.96 23.04 15C23.2 15.6 23.32 16.28 23.32 17.04C23.32 19.28 22.68 20.24 20.84 21.56C19.92 22.24 18.68 22.64 17.36 22.8V24.04V24.24C19.36 24.24 19.04 24.12 21.88 24.2C22.88 24.2 23.84 24.12 24.76 24.52C25.44 24.84 25.88 25.6 25.88 26.44C25.88 27.12 25.6 27.36 25.16 27.84C24.4 28.64 23.2 28.6 22.24 28.52H8.12C8.04 28.52 6.36 28.56 5.72 27.64C5.4 27.32 5.24 27 5.24 26.44C5.24 25.88 5.44 25.48 5.72 25.12C6.32 24.44 7.44 24.08 8.12 24ZM32.2 39.44C33.04 39.52 33.76 39.8 34 40.64C34.32 41.6 33.96 42.28 32.96 42.68C32.32 42.92 31.64 42.96 31.08 42.96H12.48C11.4 42.96 10.24 42.92 9.08 42.88C7.96 42.84 7.16 42 7.04 40.8L6.92 38C6.88 37.44 6.84 36.48 7.32 35.96C8.04 35.16 9.48 35.04 10.64 35.04C12.16 35.04 17.24 35.08 29.44 35.08V33.64H9.76C9.24 33.64 8.8 33.64 8.4 33.56C7.92 33.44 7.52 33.44 7.28 33C6.92 32.44 6.8 31.92 7 31.28C7.28 30.44 8.48 30.32 9.08 30.24C9.48 30.16 9.88 30.12 10.32 30.12C12.72 30.12 15.52 30.16 29.84 30.16C32.52 30.16 34.04 30.96 34.04 32.8V35.64C34.04 36.36 33.72 37.16 32.88 37.64C32.2 38.04 31.48 38 30.8 38H11.84V39.44H32.2ZM28.48 25.44V15.16C28.44 13.96 28.48 12 29.16 11.32C29.76 10.8 30.36 10.72 31.08 10.72C31.96 10.72 32.76 11.28 33.08 12.08C33.52 13.2 33.48 14.4 33.52 15.56C33.52 16.88 33.52 17.92 33.56 18.88C34.72 18.88 35.84 18.92 36.52 18.96C37.92 19.04 38.88 21.16 38.04 22.24C37.28 23.32 35.4 23.48 33.6 23.4V25C33.6 26.12 33.4 26.6 33.2 27.2C33.16 27.36 33.08 27.52 33 27.72C32.84 28.04 32.6 28.36 32.28 28.56C31.72 28.92 31 29 30.32 28.88C30 28.8 29.64 28.64 29.36 28.4C28.44 27.52 28.48 25.52 28.48 25.44ZM14.92 18.8C16.44 18.88 18.52 18.88 18.52 17.04C18.52 15.56 17.72 15.12 16.68 15H13.4C12.44 15.16 11.72 15.64 11.72 17.04C11.8 18.8 13.36 18.88 14.92 18.8ZM64.8653 26C65.7453 26.04 66.7453 26.2 67.5053 26.8C67.8653 27.08 68.0653 27.56 68.0653 28.04C68.0653 28.56 67.8653 29.24 67.5453 29.52C66.7053 30.32 64.6253 30.24 64.5453 30.24L43.2253 30.28C42.0253 30.32 40.5453 30.4 39.6653 29.68C39.0653 29.24 38.7453 28.8 38.7453 28.2C38.7453 27.48 39.3053 26.56 40.1453 26.28C41.2653 25.92 42.4653 26.04 43.6653 26C46.2653 25.92 47.1053 26 49.7853 26V23.72C47.5853 23.68 45.2653 23.64 44.2653 23.6C42.9453 23.64 40.6653 23.44 40.2653 22C39.9853 20.8 39.8653 20.96 39.8653 19.72V15.44C39.8253 15.52 39.7453 13.52 40.4253 12.44C41.1053 11.32 43.5453 11.28 43.8253 11.28H61.4253C62.5453 11.28 63.7853 11.2 64.8653 11.6C65.7453 11.96 66.0253 12.92 65.9853 13.88C65.9053 14.76 65.3053 15.48 64.3853 15.72C63.9053 15.84 63.1453 15.88 62.1453 15.88C61.4653 15.88 60.9053 15.84 60.9053 15.84H46.7453C46.4653 15.8 45.8653 15.8 45.5853 15.96C45.3053 16.08 45.3453 18.64 45.4653 18.92C45.6653 19.28 46.5453 19.24 47.1053 19.2C48.3853 19.16 50.7853 19.2 58.8253 19.2H61.7853C63.1053 19.2 64.2253 19.12 65.1053 19.56C65.6253 19.8 66.0253 20.32 66.1853 20.92C66.3053 21.56 66.1453 22.24 65.7853 22.72C64.9453 23.76 63.9453 23.6 62.7853 23.64C61.9053 23.68 57.8653 23.72 55.3853 23.72C55.4253 24.48 55.4653 25.36 55.4653 26C58.4253 26 62.5853 25.88 64.8653 26ZM40.0253 37.68C40.0253 33.16 45.9053 32.08 53.1053 32.08C60.3453 32.08 66.2253 32.64 66.2253 37.68C66.2253 42.64 60.3453 43.28 53.1053 43.28C45.9053 43.28 40.0253 42.64 40.0253 37.68ZM60.9453 37.68C60.9453 35.96 56.7853 36 53.1053 36C49.4653 36 45.5453 35.96 45.5453 37.68C45.5453 39.2 49.4653 39.36 53.1053 39.36C56.7853 39.36 60.9453 39.68 60.9453 37.68Z" fill="white"/>
<path d="M8.12 24V20C7.96381 20 7.80775 20.0091 7.65263 20.0274L8.12 24ZM12.04 24.12L11.9348 28.1186C13.0135 28.147 14.058 27.7383 14.831 26.9854C15.604 26.2324 16.04 25.1991 16.04 24.12H12.04ZM12.08 22.52L16.0682 22.8268C16.1537 21.7159 15.7719 20.6197 15.0149 19.8022C14.2579 18.9847 13.1942 18.52 12.08 18.52V22.52ZM11.96 22.48L14.7884 19.6516C14.4078 19.271 13.9543 18.9711 13.4551 18.7699L11.96 22.48ZM7.44 15L11.2347 16.2649C11.6413 15.0451 11.4368 13.7042 10.685 12.6612C9.93316 11.6181 8.72577 11 7.44 11L7.44 15ZM12.76 10.72V14.72C14.9691 14.72 16.76 12.9291 16.76 10.72H12.76ZM17.44 10.72H13.44C13.44 12.9291 15.2309 14.72 17.44 14.72V10.72ZM23.04 15L22.9151 11.0019C21.6949 11.0401 20.5589 11.6333 19.8304 12.6129C19.1018 13.5925 18.8605 14.8511 19.1751 16.0306L23.04 15ZM20.84 21.56L18.5084 18.3098C18.493 18.3209 18.4777 18.332 18.4624 18.3433L20.84 21.56ZM17.36 22.8L16.8787 18.8291C14.8704 19.0725 13.36 20.777 13.36 22.8H17.36ZM17.36 24.24H13.36C13.36 26.4491 15.1509 28.24 17.36 28.24V24.24ZM21.88 24.2L21.7674 28.1984C21.8049 28.1995 21.8425 28.2 21.88 28.2L21.88 24.2ZM24.76 24.52L26.4632 20.9007C26.4273 20.8839 26.3912 20.8675 26.3549 20.8517L24.76 24.52ZM25.16 27.84L28.06 30.595C28.0764 30.5778 28.0926 30.5604 28.1086 30.5429L25.16 27.84ZM22.24 28.52L22.5722 24.5338C22.4617 24.5246 22.3509 24.52 22.24 24.52V28.52ZM5.72 27.64L9.00362 25.3557C8.86831 25.1612 8.71598 24.9791 8.54843 24.8116L5.72 27.64ZM5.72 25.12L2.72065 22.4735C2.66601 22.5354 2.6133 22.599 2.56259 22.6642L5.72 25.12ZM32.2 39.44L32.5792 35.458C32.4532 35.446 32.3266 35.44 32.2 35.44V39.44ZM34 40.64L30.1539 41.7389C30.1698 41.7946 30.1869 41.8499 30.2053 41.9049L34 40.64ZM32.96 42.68L34.3645 46.4253C34.3916 46.4151 34.4187 46.4047 34.4456 46.3939L32.96 42.68ZM9.08 42.88L8.93723 46.8775L8.94215 46.8776L9.08 42.88ZM7.04 40.8L3.04367 40.9713C3.04691 41.047 3.05231 41.1226 3.05985 41.198L7.04 40.8ZM6.92 38L10.9163 37.8287C10.9147 37.7908 10.9125 37.7529 10.9098 37.715L6.92 38ZM7.32 35.96L10.2592 38.6731C10.2706 38.6608 10.2819 38.6484 10.2932 38.6359L7.32 35.96ZM29.44 35.08V39.08C31.6491 39.08 33.44 37.2891 33.44 35.08H29.44ZM29.44 33.64H33.44C33.44 31.4309 31.6491 29.64 29.44 29.64V33.64ZM8.4 33.56L7.42986 37.4406C7.49141 37.456 7.55332 37.4699 7.61553 37.4823L8.4 33.56ZM7.28 33L10.7916 31.0846C10.7456 31.0003 10.6966 30.9177 10.6447 30.837L7.28 33ZM7 31.28L3.20527 30.0151C3.19731 30.039 3.18958 30.0629 3.18208 30.0869L7 31.28ZM9.08 30.24L9.60866 34.2049C9.69436 34.1935 9.77968 34.1793 9.86447 34.1623L9.08 30.24ZM32.88 37.64L30.8954 34.167C30.8809 34.1753 30.8664 34.1838 30.8519 34.1923L32.88 37.64ZM11.84 38V34C9.63086 34 7.84 35.7909 7.84 38H11.84ZM11.84 39.44H7.84C7.84 41.6491 9.63086 43.44 11.84 43.44V39.44ZM28.48 15.16H32.48C32.48 15.1156 32.4793 15.0711 32.4778 15.0267L28.48 15.16ZM29.16 11.32L26.5403 8.29723C26.4684 8.35951 26.3988 8.42433 26.3316 8.49158L29.16 11.32ZM33.08 12.08L36.803 10.6174C36.8 10.6097 36.797 10.6021 36.7939 10.5944L33.08 12.08ZM33.52 15.56H37.52C37.52 15.514 37.5192 15.4681 37.5176 15.4222L33.52 15.56ZM33.56 18.88L29.5635 19.0465C29.6527 21.189 31.4156 22.88 33.56 22.88V18.88ZM36.52 18.96L36.2851 22.9531L36.2918 22.9535L36.52 18.96ZM38.04 22.24L34.8826 19.7842C34.8434 19.8346 34.8055 19.8859 34.7688 19.938L38.04 22.24ZM33.6 23.4L33.7776 19.4039C32.687 19.3555 31.624 19.7549 30.8351 20.5095C30.0462 21.2641 29.6 22.3083 29.6 23.4H33.6ZM33.2 27.2L29.4053 25.9351C29.3729 26.0322 29.3443 26.1305 29.3194 26.2299L33.2 27.2ZM33 27.72L36.5777 29.5089C36.6273 29.4097 36.6727 29.3085 36.7139 29.2056L33 27.72ZM32.28 28.56L30.16 25.168C30.1456 25.177 30.1313 25.1861 30.117 25.1953L32.28 28.56ZM30.32 28.88L29.3499 32.7606C29.4408 32.7833 29.5325 32.8028 29.6249 32.8191L30.32 28.88ZM29.36 28.4L26.5951 31.2906C26.6477 31.3408 26.7016 31.3897 26.7568 31.437L29.36 28.4ZM14.92 18.8L15.1302 14.8055C14.992 14.7983 14.8534 14.7982 14.7151 14.8052L14.92 18.8ZM16.68 15L17.1385 11.0264C16.9863 11.0088 16.8332 11 16.68 11L16.68 15ZM13.4 15V11C13.1797 11 12.9597 11.0182 12.7424 11.0544L13.4 15ZM11.72 17.04H7.72C7.72 17.1006 7.72138 17.1611 7.72413 17.2216L11.72 17.04ZM8.12 24V28C9.15825 28 10.19 28.0727 11.9348 28.1186L12.04 24.12L12.1452 20.1214C10.85 20.0873 9.24175 20 8.12 20V24ZM12.04 24.12H16.04C16.04 23.5317 16.042 23.1672 16.0682 22.8268L12.08 22.52L8.09178 22.2132C8.03797 22.9128 8.04 23.5883 8.04 24.12H12.04ZM12.08 22.52V18.52C11.9857 18.52 12.4563 18.501 12.9901 18.6344C13.6584 18.8015 14.2849 19.148 14.7884 19.6516L11.96 22.48L9.13157 25.3084C10.4152 26.5921 11.9806 26.52 12.08 26.52V22.52ZM11.96 22.48L13.4551 18.7699C12.8291 18.5177 12.357 18.3082 11.979 18.1042C11.6054 17.9026 11.4124 17.7526 11.3157 17.6604C11.2378 17.5862 11.2281 17.5561 11.2237 17.5454C11.2161 17.5273 11.16 17.3904 11.16 17.04H7.16H3.16C3.16 19.6834 4.10216 21.8357 5.79429 23.4496C7.26856 24.8557 9.12448 25.6499 10.4649 26.1901L11.96 22.48ZM7.16 17.04H11.16C11.16 16.5374 11.2162 16.3205 11.2347 16.2649L7.44 15L3.64527 13.7351C3.26379 14.8795 3.16 16.0226 3.16 17.04H7.16ZM7.44 15V11C8.08481 11 9.12 11.5569 9.12 12.84H5.12H1.12C1.12 16.5231 4.23519 19 7.44 19V15ZM5.12 12.84H9.12C9.12 13.5474 8.78722 14.0573 8.48819 14.3251C8.19276 14.5896 7.83547 14.72 7.48 14.72V10.72V6.72C4.41815 6.72 1.12 9.06651 1.12 12.84H5.12ZM7.48 10.72V14.72H12.76V10.72V6.72H7.48V10.72ZM12.76 10.72H16.76V9.4H12.76H8.76V10.72H12.76ZM12.76 9.4H16.76C16.76 10.3601 16.2581 10.9738 15.9342 11.2321C15.6072 11.4929 15.2958 11.56 15.08 11.56V7.56V3.56C12.482 3.56 8.76 5.39439 8.76 9.4H12.76ZM15.08 7.56V11.56C14.8703 11.56 14.5858 11.4974 14.2817 11.2604C13.9872 11.031 13.44 10.4171 13.44 9.4H17.44H21.44C21.44 7.38292 20.3528 5.84904 19.1983 4.94957C18.0342 4.04262 16.5697 3.56 15.08 3.56V7.56ZM17.44 9.4H13.44V10.72H17.44H21.44V9.4H17.44ZM17.44 10.72V14.72H22.96V10.72V6.72H17.44V10.72ZM22.96 10.72V14.72C22.6536 14.72 22.3081 14.6095 22.004 14.3403C21.6963 14.0681 21.36 13.5509 21.36 12.84H25.36H29.36C29.36 9.02579 26.0161 6.72 22.96 6.72V10.72ZM25.36 12.84H21.36C21.36 12.2248 21.6425 11.7131 21.9771 11.4064C22.2932 11.1166 22.6395 11.0106 22.9151 11.0019L23.04 15L23.1649 18.998C26.1527 18.9047 29.36 16.6256 29.36 12.84H25.36ZM23.04 15L19.1751 16.0306C19.2685 16.381 19.32 16.7074 19.32 17.04H23.32H27.32C27.32 15.8526 27.1315 14.819 26.9049 13.9693L23.04 15ZM23.32 17.04H19.32C19.32 17.789 19.21 17.8134 19.2939 17.6659C19.3392 17.5864 19.2922 17.7475 18.5084 18.3098L20.84 21.56L23.1716 24.8102C24.2278 24.0525 25.4208 23.0736 26.2461 21.6241C27.11 20.1066 27.32 18.531 27.32 17.04H23.32ZM20.84 21.56L18.4624 18.3433C18.2781 18.4796 17.774 18.7205 16.8787 18.8291L17.36 22.8L17.8413 26.7709C19.586 26.5595 21.5619 26.0004 23.2176 24.7767L20.84 21.56ZM17.36 22.8H13.36V24.04H17.36H21.36V22.8H17.36ZM17.36 24.04H13.36V24.24H17.36H21.36V24.04H17.36ZM17.36 24.24V28.24C18.459 28.24 18.9908 28.2049 19.4573 28.1871C19.8696 28.1714 20.4072 28.1601 21.7674 28.1984L21.88 24.2L21.9926 20.2016C20.5128 20.1599 19.7904 20.1686 19.1527 20.1929C18.5692 20.2151 18.261 20.24 17.36 20.24V24.24ZM21.88 24.2V28.2C22.0295 28.2 22.1735 28.1985 22.2986 28.1971C22.4302 28.1956 22.5364 28.1942 22.6429 28.1937C22.8545 28.1926 22.9932 28.1955 23.1005 28.2022C23.3035 28.2149 23.2746 28.2359 23.1651 28.1883L24.76 24.52L26.3549 20.8517C24.4654 20.0302 22.3883 20.2 21.88 20.2V24.2ZM24.76 24.52L23.0568 28.1393C22.1224 27.6996 21.88 26.9001 21.88 26.44H25.88H29.88C29.88 24.2999 28.7576 21.9804 26.4632 20.9007L24.76 24.52ZM25.88 26.44H21.88C21.88 26.3339 21.8911 26.1255 21.9616 25.8583C22.0355 25.5777 22.1488 25.3311 22.2698 25.1326C22.3766 24.9574 22.4665 24.859 22.449 24.879C22.4416 24.8875 22.4242 24.9069 22.3802 24.9545C22.3484 24.9889 22.2728 25.0701 22.2114 25.1371L25.16 27.84L28.1086 30.5429C28.1442 30.5041 28.3421 30.2926 28.4673 30.1497C28.626 29.9685 28.8684 29.6776 29.1002 29.2974C29.6524 28.3918 29.88 27.4237 29.88 26.44H25.88ZM25.16 27.84L22.26 25.085C22.4541 24.8807 22.6676 24.7431 22.8505 24.6592C23.0217 24.5807 23.1401 24.5607 23.161 24.5574C23.1803 24.5544 23.1456 24.5613 23.0329 24.5602C22.9197 24.5591 22.7784 24.551 22.5722 24.5338L22.24 28.52L21.9078 32.5062C22.4163 32.5486 23.367 32.6214 24.389 32.4626C25.4625 32.2958 26.8832 31.8338 28.06 30.595L25.16 27.84ZM22.24 28.52V24.52H8.12V28.52V32.52H22.24V28.52ZM8.12 28.52V24.52C8.07831 24.52 8.00574 24.5214 7.93661 24.5072C7.90641 24.501 7.99616 24.5139 8.15694 24.5951C8.31987 24.6774 8.68358 24.8957 9.00362 25.3557L5.72 27.64L2.43638 29.9243C3.665 31.6904 5.5499 32.1836 6.32339 32.3428C6.81515 32.4441 7.25136 32.4862 7.56391 32.5048C7.886 32.524 8.13637 32.52 8.12 32.52V28.52ZM5.72 27.64L8.54843 24.8116C8.63155 24.8947 8.86786 25.1534 9.04654 25.5778C9.22334 25.9977 9.24 26.3326 9.24 26.44H5.24H1.24C1.24 27.1074 1.33666 27.8823 1.67346 28.6822C2.01214 29.4866 2.48845 30.0653 2.89157 30.4684L5.72 27.64ZM5.24 26.44H9.24C9.24 26.6595 9.19641 26.9187 9.09484 27.1756C9.00047 27.4143 8.89371 27.5548 8.87741 27.5758L5.72 25.12L2.56259 22.6642C1.90622 23.5081 1.24 24.7488 1.24 26.44H5.24ZM5.72 25.12L8.71935 27.7665C8.64876 27.8465 8.58622 27.9041 8.54033 27.9427C8.49436 27.9813 8.4593 28.0056 8.4398 28.0184C8.40453 28.0414 8.40211 28.0384 8.44035 28.0223C8.47649 28.0071 8.52203 27.9916 8.5667 27.9798C8.61476 27.967 8.62559 27.9681 8.58737 27.9726L8.12 24L7.65263 20.0274C6.93274 20.1121 6.11863 20.3201 5.33965 20.6477C4.58971 20.963 3.56405 21.5177 2.72065 22.4735L5.72 25.12ZM32.2 39.44L31.8208 43.422C31.9739 43.4366 31.7029 43.4412 31.2993 43.2041C31.072 43.0707 30.816 42.868 30.5899 42.5801C30.3623 42.2903 30.2262 41.992 30.1539 41.7389L34 40.64L37.8461 39.5411C37.4332 38.096 36.5182 36.9915 35.3507 36.3059C34.3171 35.6988 33.2661 35.5234 32.5792 35.458L32.2 39.44ZM34 40.64L30.2053 41.9049C30.1328 41.6874 29.9634 40.9235 30.4185 40.0394C30.839 39.2223 31.4533 38.9745 31.4744 38.9661L32.96 42.68L34.4456 46.3939C35.4667 45.9855 36.761 45.1977 37.5315 43.7006C38.3366 42.1365 38.1872 40.5526 37.7947 39.3751L34 40.64ZM32.96 42.68L31.5555 38.9347C31.5981 38.9187 31.587 38.9293 31.4939 38.9409C31.4003 38.9526 31.2711 38.96 31.08 38.96V42.96V46.96C31.7763 46.96 33.0386 46.9225 34.3645 46.4253L32.96 42.68ZM31.08 42.96V38.96H12.48V42.96V46.96H31.08V42.96ZM12.48 42.96V38.96C11.4816 38.96 10.393 38.9229 9.21785 38.8824L9.08 42.88L8.94215 46.8776C10.087 46.9171 11.3184 46.96 12.48 46.96V42.96ZM9.08 42.88L9.22277 38.8825C9.67556 38.8987 10.1769 39.1 10.5524 39.4861C10.906 39.8496 11.002 40.2202 11.0201 40.402L7.04 40.8L3.05985 41.198C3.34576 44.0571 5.50206 46.7548 8.93723 46.8775L9.08 42.88ZM7.04 40.8L11.0363 40.6287L10.9163 37.8287L6.92 38L2.92367 38.1713L3.04367 40.9713L7.04 40.8ZM6.92 38L10.9098 37.715C10.8923 37.4701 10.8999 37.4129 10.8965 37.4416C10.8933 37.4687 10.8763 37.602 10.8041 37.7984C10.7308 37.998 10.5752 38.3308 10.2592 38.6731L7.32 35.96L4.38079 33.2469C3.30244 34.4151 3.03841 35.7808 2.95349 36.4884C2.86006 37.2671 2.90766 37.9699 2.93017 38.285L6.92 38ZM7.32 35.96L10.2932 38.6359C10.06 38.895 9.83612 39.0237 9.72924 39.0757C9.62741 39.1252 9.59338 39.1243 9.66881 39.1078C9.73985 39.0923 9.8603 39.0733 10.0393 39.0595C10.2155 39.046 10.4151 39.04 10.64 39.04V35.04V31.04C9.96261 31.04 8.97554 31.0706 7.96119 31.2922C6.99786 31.5027 5.5115 31.9901 4.34682 33.2841L7.32 35.96ZM10.64 35.04V39.04C11.3924 39.04 13.0167 39.0499 16.0216 39.06C19.011 39.07 23.3354 39.08 29.44 39.08V35.08V31.08C23.3446 31.08 19.029 31.07 16.0484 31.06C13.0833 31.0501 11.4076 31.04 10.64 31.04V35.04ZM29.44 35.08H33.44V33.64H29.44H25.44V35.08H29.44ZM29.44 33.64V29.64H9.76V33.64V37.64H29.44V33.64ZM9.76 33.64V29.64C9.47918 29.64 9.33214 29.6393 9.2126 29.6339C9.10478 29.6292 9.11424 29.6236 9.18447 29.6377L8.4 33.56L7.61553 37.4823C8.48079 37.6554 9.3471 37.64 9.76 37.64V33.64ZM8.4 33.56L9.37014 29.6794C9.24881 29.6491 9.14171 29.6255 9.06566 29.6091C8.94568 29.5833 8.97601 29.5903 8.9097 29.5759C8.83384 29.5593 8.95575 29.5814 9.13282 29.6466C9.33707 29.7219 9.66266 29.8697 10.0055 30.1473C10.3593 30.4337 10.6178 30.766 10.7916 31.0846L7.28 33L3.76842 34.9154C4.06222 35.454 4.46069 35.9513 4.97196 36.3652C5.47234 36.7703 5.97293 37.0081 6.36718 37.1534C6.73425 37.2886 7.06116 37.3607 7.2028 37.3916C7.24355 37.4005 7.28204 37.4087 7.31038 37.4147C7.34214 37.4214 7.36184 37.4256 7.38215 37.43C7.4208 37.4383 7.43119 37.4409 7.42986 37.4406L8.4 33.56ZM7.28 33L10.6447 30.837C10.6561 30.8547 10.7986 31.0797 10.8677 31.4668C10.9429 31.8879 10.8877 32.2499 10.8179 32.4731L7 31.28L3.18208 30.0869C2.55758 32.0853 3.05608 33.8265 3.91528 35.163L7.28 33ZM7 31.28L10.7947 32.5449C10.5871 33.1677 10.2117 33.611 9.87658 33.8825C9.57418 34.1275 9.32142 34.2222 9.25369 34.2461C9.17674 34.2733 9.15824 34.2711 9.23848 34.2569C9.33096 34.2405 9.39684 34.2332 9.60866 34.2049L9.08 30.24L8.55134 26.2751C8.39635 26.2958 7.47514 26.3895 6.58632 26.7039C5.72186 27.0096 3.9234 27.8607 3.20527 30.0151L7 31.28ZM9.08 30.24L9.86447 34.1623C9.99864 34.1355 10.1356 34.12 10.32 34.12V30.12V26.12C9.62439 26.12 8.96136 26.1845 8.29553 26.3177L9.08 30.24ZM10.32 30.12V34.12C11.5118 34.12 12.7844 34.1299 15.5957 34.14C18.3913 34.15 22.6762 34.16 29.84 34.16V30.16V26.16C22.6838 26.16 18.4087 26.15 15.6243 26.14C12.8556 26.1301 11.5282 26.12 10.32 26.12V30.12ZM29.84 30.16V34.16C30.3232 34.16 30.6473 34.1971 30.8433 34.2363C31.045 34.2765 31.0222 34.3013 30.8835 34.2179C30.7179 34.1182 30.4576 33.9042 30.2594 33.5455C30.0648 33.1933 30.04 32.9007 30.04 32.8H34.04H38.04C38.04 30.538 36.9762 28.5467 35.0065 27.3621C33.3667 26.3759 31.4457 26.16 29.84 26.16V30.16ZM34.04 32.8H30.04V35.64H34.04H38.04V32.8H34.04ZM34.04 35.64H30.04C30.04 35.4195 30.0876 35.1464 30.2386 34.8608C30.4026 34.5505 30.646 34.3096 30.8954 34.167L32.88 37.64L34.8646 41.113C37.1555 39.8039 38.04 37.5431 38.04 35.64H34.04ZM32.88 37.64L30.8519 34.1923C30.9781 34.1181 31.1014 34.0678 31.2068 34.036C31.3078 34.0055 31.3748 33.9971 31.3858 33.9959C31.3922 33.9951 31.3617 33.9989 31.2587 34.0004C31.208 34.0011 31.1497 34.0012 31.0712 34.001C31.0304 34.0008 30.994 34.0006 30.9462 34.0004C30.9016 34.0002 30.8517 34 30.8 34V38V42C31.1216 42 33.0936 42.1551 34.9081 41.0877L32.88 37.64ZM30.8 38V34H11.84V38V42H30.8V38ZM11.84 38H7.84V39.44H11.84H15.84V38H11.84ZM11.84 39.44V43.44H32.2V39.44V35.44H11.84V39.44ZM28.48 25.44H32.48V15.16H28.48H24.48V25.44H28.48ZM28.48 15.16L32.4778 15.0267C32.4696 14.7824 32.4661 14.514 32.4726 14.2457C32.4792 13.9732 32.4953 13.7328 32.5195 13.5378C32.5456 13.3275 32.5703 13.2599 32.5584 13.2959C32.5504 13.32 32.5182 13.4133 32.4445 13.5483C32.3718 13.6813 32.2311 13.9057 31.9884 14.1484L29.16 11.32L26.3316 8.49158C25.5391 9.28406 25.158 10.1952 24.9641 10.7804C24.7547 11.4126 24.6444 12.0375 24.5805 12.5522C24.4527 13.5814 24.4595 14.6114 24.4822 15.2933L28.48 15.16ZM29.16 11.32L31.7797 14.3428C31.7153 14.3986 31.6174 14.4709 31.4874 14.5399C31.3566 14.6094 31.2284 14.6568 31.1171 14.6869C30.9217 14.7396 30.8353 14.72 31.08 14.72V10.72V6.72C29.9956 6.72 28.2187 6.8426 26.5403 8.29723L29.16 11.32ZM31.08 10.72V14.72C30.2864 14.72 29.6393 14.2486 29.3661 13.5656L33.08 12.08L36.7939 10.5944C35.8807 8.31141 33.6336 6.72 31.08 6.72V10.72ZM33.08 12.08L29.357 13.5426C29.4775 13.8493 29.4682 14.1256 29.5224 15.6978L33.52 15.56L37.5176 15.4222C37.4918 14.6744 37.5625 12.5507 36.803 10.6174L33.08 12.08ZM33.52 15.56H29.52C29.52 16.856 29.5193 17.9863 29.5635 19.0465L33.56 18.88L37.5565 18.7135C37.5207 17.8537 37.52 16.904 37.52 15.56H33.52ZM33.56 18.88V22.88C34.6415 22.88 35.6832 22.9177 36.2851 22.9531L36.52 18.96L36.7549 14.9669C35.9968 14.9223 34.7985 14.88 33.56 14.88V18.88ZM36.52 18.96L36.2918 22.9535C35.6336 22.9159 35.1662 22.6433 34.9138 22.4342C34.6712 22.2331 34.5493 22.0344 34.485 21.8944C34.421 21.755 34.3487 21.5315 34.3544 21.2121C34.3602 20.8825 34.4588 20.3291 34.8826 19.7842L38.04 22.24L41.1974 24.6958C42.8768 22.5366 42.4141 19.9907 41.755 18.5556C41.088 17.1033 39.4607 15.1215 36.7482 14.9665L36.52 18.96ZM38.04 22.24L34.7688 19.938C35.0092 19.5964 35.2739 19.4239 35.3997 19.3569C35.5121 19.2971 35.532 19.3103 35.3922 19.3395C35.2594 19.3672 35.0523 19.395 34.7595 19.4087C34.4711 19.4222 34.1424 19.4202 33.7776 19.4039L33.6 23.4L33.4224 27.3961C34.4488 27.4417 35.7558 27.4362 37.0278 27.1705C38.2298 26.9195 40.078 26.2945 41.3112 24.542L38.04 22.24ZM33.6 23.4H29.6V25H33.6H37.6V23.4H33.6ZM33.6 25H29.6C29.6 25.3062 29.5742 25.4097 29.5716 25.4211C29.5676 25.439 29.5597 25.471 29.5362 25.5445C29.5235 25.5843 29.5082 25.6305 29.4856 25.6972C29.4664 25.754 29.434 25.8489 29.4053 25.9351L33.2 27.2L36.9947 28.4649C37.2107 27.8169 37.6 26.8119 37.6 25H33.6ZM33.2 27.2L29.3194 26.2299C29.3334 26.1739 29.3473 26.1252 29.3598 26.0848C29.3722 26.0445 29.3834 26.0112 29.3922 25.9863C29.401 25.9615 29.408 25.9432 29.4119 25.933C29.4159 25.923 29.4177 25.9185 29.4163 25.922C29.4147 25.9258 29.4114 25.9337 29.4046 25.9499C29.4012 25.9579 29.3975 25.9666 29.3929 25.9774C29.3886 25.9874 29.383 26.0006 29.3776 26.0134C29.3665 26.0396 29.3525 26.0727 29.3373 26.1092C29.3219 26.146 29.3046 26.1882 29.2861 26.2344L33 27.72L36.7139 29.2056C36.7177 29.1962 36.7242 29.1803 36.7412 29.1404C36.753 29.1124 36.7853 29.0371 36.8137 28.968C36.8703 28.8305 36.989 28.5366 37.0806 28.1701L33.2 27.2ZM33 27.72L29.4223 25.9311C29.4579 25.86 29.5177 25.7565 29.6184 25.6347C29.7186 25.5137 29.8919 25.3356 30.16 25.168L32.28 28.56L34.4 31.952C35.5448 31.2365 36.2135 30.2373 36.5777 29.5089L33 27.72ZM32.28 28.56L30.117 25.1953C30.3818 25.0251 30.6158 24.9645 30.7545 24.9438C30.8907 24.9235 30.9771 24.9341 31.0151 24.9409L30.32 28.88L29.6249 32.8191C30.9949 33.0609 32.8104 32.9743 34.443 31.9247L32.28 28.56ZM30.32 28.88L31.2901 24.9994C31.3877 25.0238 31.4783 25.0562 31.5701 25.1007C31.66 25.1443 31.8005 25.2235 31.9632 25.363L29.36 28.4L26.7568 31.437C27.6081 32.1667 28.5694 32.5655 29.3499 32.7606L30.32 28.88ZM29.36 28.4L32.1249 25.5094C32.2874 25.6648 32.3902 25.8078 32.4496 25.9028C32.5088 25.9973 32.5369 26.0637 32.5457 26.0855C32.5549 26.1085 32.5529 26.1078 32.5452 26.0785C32.5377 26.0501 32.5283 26.0079 32.5188 25.9521C32.4992 25.836 32.4882 25.7136 32.4831 25.6128C32.4808 25.5656 32.4801 25.53 32.4798 25.5102C32.4797 25.5005 32.4797 25.4941 32.4798 25.491C32.4798 25.4892 32.4798 25.4875 32.4798 25.484C32.4798 25.4828 32.4798 25.482 32.4798 25.4803C32.4798 25.4789 32.4799 25.4765 32.4799 25.474C32.4799 25.4721 32.48 25.4573 32.48 25.44H28.48H24.48C24.48 25.431 24.4765 25.6795 24.4931 26.0122C24.5093 26.3364 24.5458 26.784 24.6312 27.2879C24.7654 28.0803 25.154 29.9121 26.5951 31.2906L29.36 28.4ZM14.92 18.8L14.7098 22.7945C15.4027 22.8309 16.989 22.9209 18.4739 22.4608C19.2873 22.2087 20.3547 21.7105 21.2197 20.6922C22.139 19.6102 22.52 18.3065 22.52 17.04H18.52H14.52C14.52 16.6935 14.641 16.0798 15.1228 15.5128C15.5503 15.0095 16.0027 14.8513 16.1061 14.8192C16.2065 14.7881 16.1818 14.8113 15.9527 14.8212C15.7391 14.8303 15.477 14.8238 15.1302 14.8055L14.92 18.8ZM18.52 17.04H22.52C22.52 15.568 22.0997 13.8825 20.7287 12.5946C19.4765 11.4183 17.9948 11.1252 17.1385 11.0264L16.68 15L16.2215 18.9736C16.4052 18.9948 15.8435 18.9817 15.2513 18.4254C14.9365 18.1296 14.731 17.7875 14.619 17.4792C14.5163 17.1964 14.52 17.0207 14.52 17.04H18.52ZM16.68 15V11H13.4V15V19H16.68V15ZM13.4 15L12.7424 11.0544C11.848 11.2035 10.4497 11.5928 9.30345 12.7964C8.09256 14.0678 7.72 15.6499 7.72 17.04H11.72H15.72C15.72 17.0301 15.7074 17.6722 15.0966 18.3136C14.5503 18.8872 13.992 18.9565 14.0576 18.9456L13.4 15ZM11.72 17.04L7.72413 17.2216C7.77123 18.2579 8.05732 19.3862 8.78323 20.399C9.51215 21.416 10.4642 22.0091 11.3228 22.341C12.8147 22.9177 14.4086 22.8315 15.1249 22.7947L14.92 18.8L14.7151 14.8052C14.3736 14.8228 14.1658 14.8233 14.0315 14.8146C13.8851 14.8051 13.9846 14.793 14.2072 14.879C14.4708 14.9809 14.9203 15.229 15.2855 15.7385C15.6477 16.2438 15.7088 16.7021 15.7159 16.8584L11.72 17.04ZM64.8653 26L64.6551 29.9945C64.6646 29.995 64.6741 29.9954 64.6837 29.9959L64.8653 26ZM67.5053 26.8L65.0267 29.9395C65.0343 29.9455 65.0419 29.9515 65.0496 29.9574L67.5053 26.8ZM67.5453 29.52L64.9113 26.5097C64.869 26.5467 64.8274 26.5847 64.7867 26.6235L67.5453 29.52ZM64.5453 30.24L64.5453 26.24L64.5378 26.24L64.5453 30.24ZM43.2253 30.28L43.2178 26.28C43.1759 26.2801 43.134 26.2808 43.0921 26.2822L43.2253 30.28ZM39.6653 29.68L42.1983 26.5842C42.1436 26.5394 42.0877 26.4962 42.0308 26.4544L39.6653 29.68ZM40.1453 26.28L38.9213 22.4719C38.9076 22.4763 38.894 22.4807 38.8804 22.4853L40.1453 26.28ZM43.6653 26L43.5423 22.0019L43.5321 22.0022L43.6653 26ZM49.7853 26V30C51.9945 30 53.7853 28.2091 53.7853 26H49.7853ZM49.7853 23.72H53.7853C53.7853 21.5392 52.0385 19.7603 49.858 19.7207L49.7853 23.72ZM44.2653 23.6L44.4252 19.6032C44.3316 19.5995 44.2378 19.599 44.1442 19.6018L44.2653 23.6ZM40.2653 22L36.3699 22.9089C36.3826 22.9631 36.3964 23.017 36.4112 23.0706L40.2653 22ZM39.8653 15.44H43.8653C43.8653 13.5849 42.5898 11.9732 40.7843 11.547C38.9789 11.1208 37.1172 11.9919 36.2876 13.6511L39.8653 15.44ZM40.4253 12.44L43.8102 14.5713C43.8218 14.5529 43.8332 14.5344 43.8445 14.5159L40.4253 12.44ZM64.8653 11.6L66.3798 7.89781C66.3384 7.88084 66.2966 7.86457 66.2546 7.849L64.8653 11.6ZM65.9853 13.88L69.9689 14.2421C69.9748 14.177 69.9791 14.1118 69.9818 14.0465L65.9853 13.88ZM64.3853 15.72L65.3555 19.6006C65.3687 19.5973 65.3818 19.5939 65.395 19.5905L64.3853 15.72ZM60.9053 15.84L61.1903 11.8502C61.0955 11.8434 61.0004 11.84 60.9053 11.84V15.84ZM46.7453 15.84L46.1796 19.7998C46.367 19.8266 46.556 19.84 46.7453 19.84V15.84ZM45.5853 15.96L47.161 19.6366C47.301 19.5766 47.4376 19.5086 47.5699 19.433L45.5853 15.96ZM45.4653 18.92L41.7887 20.4957C41.8424 20.621 41.9025 20.7434 41.9687 20.8626L45.4653 18.92ZM47.1053 19.2L46.9804 15.202C46.927 15.2036 46.8736 15.2064 46.8203 15.2102L47.1053 19.2ZM65.1053 19.56L63.3165 23.1377C63.3537 23.1563 63.3913 23.1744 63.4291 23.1918L65.1053 19.56ZM66.1853 20.92L70.1168 20.1828C70.0983 20.0842 70.0761 19.9863 70.0503 19.8893L66.1853 20.92ZM65.7853 22.72L68.8971 25.2333C68.9272 25.1961 68.9566 25.1583 68.9853 25.12L65.7853 22.72ZM62.7853 23.64L62.6475 19.6424C62.6329 19.6429 62.6183 19.6435 62.6037 19.6441L62.7853 23.64ZM55.3853 23.72V19.72C54.288 19.72 53.2388 20.1708 52.4835 20.9669C51.7282 21.763 51.3332 22.8344 51.3908 23.9302L55.3853 23.72ZM55.4653 26H51.4653C51.4653 28.2091 53.2562 30 55.4653 30V26ZM64.8653 26L64.6837 29.9959C64.8192 30.002 64.9309 30.0116 65.0234 30.0237C65.1163 30.0359 65.1765 30.0488 65.2102 30.0577C65.2833 30.077 65.1843 30.0639 65.0267 29.9395L67.5053 26.8L69.9839 23.6605C68.199 22.2513 66.1251 22.0531 65.0469 22.0041L64.8653 26ZM67.5053 26.8L65.0496 29.9574C64.6394 29.6384 64.3969 29.268 64.2616 28.9617C64.1262 28.6554 64.0653 28.3435 64.0653 28.04H68.0653H72.0653C72.0653 26.5652 71.47 24.8162 69.9611 23.6426L67.5053 26.8ZM68.0653 28.04H64.0653C64.0653 27.8398 64.0945 27.7132 64.1306 27.6051C64.1524 27.5396 64.1987 27.416 64.291 27.255C64.375 27.1084 64.5632 26.8142 64.9113 26.5097L67.5453 29.52L70.1793 32.5303C71.117 31.7098 71.5355 30.6885 71.72 30.1349C71.9361 29.4868 72.0653 28.7602 72.0653 28.04H68.0653ZM67.5453 29.52L64.7867 26.6235C64.9883 26.4314 65.1688 26.32 65.2746 26.2628C65.3816 26.2049 65.4522 26.1807 65.4663 26.176C65.4826 26.1706 65.4719 26.1752 65.4289 26.1842C65.3873 26.1928 65.3309 26.2025 65.2603 26.2114C65.1151 26.2297 64.9639 26.2382 64.8385 26.241C64.7791 26.2424 64.7317 26.2423 64.7005 26.2421C64.6851 26.2419 64.6726 26.2417 64.6617 26.2415C64.6489 26.2412 64.6567 26.2414 64.6391 26.241C64.6346 26.2409 64.6252 26.2407 64.6145 26.2406C64.608 26.2405 64.58 26.24 64.5453 26.24V30.24V34.24C64.4717 34.24 65.3153 34.2677 66.2603 34.1486C66.7368 34.0886 67.3554 33.9795 68.0006 33.764C68.6115 33.5599 69.5068 33.1758 70.3039 32.4165L67.5453 29.52ZM64.5453 30.24L64.5378 26.24L43.2178 26.28L43.2253 30.28L43.2328 34.28L64.5528 34.24L64.5453 30.24ZM43.2253 30.28L43.0921 26.2822C42.7581 26.2934 42.5142 26.303 42.2632 26.3044C42.0216 26.3059 41.8538 26.2983 41.7358 26.2861C41.6149 26.2736 41.6106 26.2624 41.6814 26.2859C41.7584 26.3114 41.9616 26.3905 42.1983 26.5842L39.6653 29.68L37.1324 32.7758C38.4592 33.8614 39.9698 34.1464 40.9148 34.2439C41.8769 34.3431 42.8584 34.2945 43.3586 34.2778L43.2253 30.28ZM39.6653 29.68L42.0308 26.4544C41.941 26.3886 42.1309 26.5054 42.3405 26.8299C42.5967 27.2266 42.7453 27.7183 42.7453 28.2H38.7453H34.7453C34.7453 30.6331 36.2267 32.1186 37.2999 32.9056L39.6653 29.68ZM38.7453 28.2H42.7453C42.7453 28.7985 42.5473 29.1661 42.4224 29.347C42.2812 29.5516 41.975 29.8865 41.4102 30.0747L40.1453 26.28L38.8804 22.4853C37.4757 22.9535 36.4694 23.8884 35.8382 24.803C35.2233 25.6939 34.7453 26.8815 34.7453 28.2H38.7453ZM40.1453 26.28L41.3693 30.0881C41.421 30.0715 41.5801 30.0323 42.0108 30.0177C42.2266 30.0104 42.456 30.01 42.7666 30.01C43.0543 30.01 43.4209 30.0104 43.7986 29.9978L43.6653 26L43.5321 22.0022C43.3097 22.0096 43.0763 22.01 42.7666 22.01C42.4796 22.01 42.114 22.0096 41.7398 22.0223C40.9905 22.0477 39.9897 22.1285 38.9213 22.4719L40.1453 26.28ZM43.6653 26L43.7883 29.9981C46.3292 29.9199 46.8778 30 49.7853 30V26V22C47.3328 22 46.2014 21.9201 43.5423 22.0019L43.6653 26ZM49.7853 26H53.7853V23.72H49.7853H45.7853V26H49.7853ZM49.7853 23.72L49.858 19.7207C47.6224 19.68 45.3683 19.6409 44.4252 19.6032L44.2653 23.6L44.1054 27.5968C45.1623 27.6391 47.5482 27.68 49.7126 27.7193L49.7853 23.72ZM44.2653 23.6L44.1442 19.6018C43.9426 19.6079 43.7124 19.6043 43.4897 19.5847C43.2587 19.5644 43.1026 19.5328 43.0224 19.5098C42.9241 19.4817 43.0617 19.5023 43.292 19.6772C43.5664 19.8855 43.9444 20.2994 44.1194 20.9294L40.2653 22L36.4112 23.0706C37.1835 25.8507 39.6196 26.8566 40.8182 27.2002C42.1691 27.5874 43.5353 27.624 44.3865 27.5982L44.2653 23.6ZM40.2653 22L44.1607 21.0911C44.0699 20.7022 43.9896 20.4138 43.9239 20.1892C43.9086 20.137 43.8943 20.0888 43.8831 20.0509C43.871 20.0102 43.863 19.9831 43.8558 19.9587C43.8417 19.9103 43.8415 19.9072 43.8452 19.9221C43.8503 19.9432 43.8578 19.9772 43.8644 20.0172C43.8675 20.0355 43.8696 20.0511 43.8711 20.063C43.8718 20.0687 43.8723 20.0733 43.8727 20.0764C43.873 20.0795 43.8731 20.0811 43.8731 20.0811C43.8722 20.0701 43.8653 19.979 43.8653 19.72H39.8653H35.8653C35.8653 20.4612 35.8977 21.1033 36.0755 21.8279C36.1359 22.0742 36.2253 22.3656 36.2455 22.4345C36.281 22.5562 36.3207 22.6978 36.3699 22.9089L40.2653 22ZM39.8653 19.72H43.8653V15.44H39.8653H35.8653V19.72H39.8653ZM39.8653 15.44L36.2876 13.6511C36.3495 13.5273 36.9254 12.2844 38.4322 11.7071C39.3678 11.3486 40.3863 11.3599 41.2918 11.7063C42.0927 12.0128 42.5982 12.4987 42.855 12.7884C43.3344 13.3294 43.5398 13.8649 43.5895 13.9931C43.671 14.2036 43.717 14.3764 43.7392 14.4655C43.7847 14.6485 43.806 14.792 43.8136 14.8451C43.8234 14.9144 43.829 14.9682 43.8319 14.9985C43.8416 15.1004 43.8405 15.1444 43.84 15.1051C43.8393 15.0502 43.8415 14.919 43.857 14.7572C43.9032 14.2761 43.9884 14.2883 43.8102 14.5713L40.4253 12.44L37.0404 10.3087C36.1822 11.6717 35.9674 13.2238 35.8936 13.9928C35.8491 14.456 35.8364 14.8773 35.8406 15.2086C35.8426 15.3624 35.849 15.558 35.8681 15.7582C35.8725 15.805 35.8962 16.0769 35.9759 16.3973C35.9994 16.4915 36.0467 16.6687 36.1295 16.8826C36.1805 17.0142 36.3872 17.5522 36.868 18.0946C37.1254 18.3851 37.6315 18.8715 38.4331 19.1781C39.3392 19.5248 40.3584 19.5362 41.2947 19.1774C42.8027 18.5996 43.3799 17.3552 43.443 17.2289L39.8653 15.44ZM40.4253 12.44L43.8445 14.5159C43.6553 14.8274 43.4441 15.0368 43.2881 15.1644C43.1353 15.2895 43.0148 15.3534 42.9656 15.3775C42.9142 15.4027 42.8975 15.4056 42.9276 15.3961C42.9558 15.3872 43.0063 15.3734 43.0804 15.3581C43.2343 15.3265 43.4112 15.3047 43.5756 15.2922C43.7356 15.28 43.8375 15.28 43.8253 15.28V11.28V7.28C43.567 7.28 42.5812 7.29357 41.4702 7.52186C40.9137 7.63621 40.1809 7.83285 39.4426 8.19499C38.727 8.54595 37.7159 9.19506 37.0062 10.3641L40.4253 12.44ZM43.8253 11.28V15.28H61.4253V11.28V7.28H43.8253V11.28ZM61.4253 11.28V15.28C61.679 15.28 62.1181 15.2745 62.3006 15.2737C62.5623 15.2726 62.7713 15.2753 62.9555 15.2847C63.1377 15.2941 63.2661 15.3088 63.3567 15.3242C63.4457 15.3394 63.4796 15.3523 63.4761 15.351L64.8653 11.6L66.2546 7.849C64.3159 7.131 62.0979 7.28 61.4253 7.28V11.28ZM64.8653 11.6L63.3508 15.3022C63.0474 15.1781 62.7643 14.9856 62.5314 14.743C62.3059 14.5081 62.1731 14.2744 62.0984 14.1016C61.9643 13.7912 61.9923 13.628 61.9888 13.7135L65.9853 13.88L69.9818 14.0465C70.043 12.5788 69.6823 9.2488 66.3798 7.89781L64.8653 11.6ZM65.9853 13.88L62.0017 13.5179C62.0357 13.1444 62.1891 12.7559 62.4666 12.4329C62.7451 12.1089 63.083 11.9259 63.3756 11.8495L64.3853 15.72L65.395 19.5905C67.9038 18.936 69.7322 16.8453 69.9689 14.2421L65.9853 13.88ZM64.3853 15.72L63.4152 11.8394C63.51 11.8157 63.4701 11.8355 63.1942 11.8539C62.9439 11.8706 62.6021 11.88 62.1453 11.88V15.88V19.88C63.1038 19.88 64.333 19.8562 65.3555 19.6006L64.3853 15.72ZM62.1453 15.88V11.88C61.8799 11.88 61.6314 11.8721 61.4479 11.8639C61.3575 11.8599 61.2863 11.856 61.2406 11.8533C61.2179 11.8519 61.2018 11.8509 61.193 11.8503C61.1887 11.85 61.1862 11.8499 61.1857 11.8498C61.1855 11.8498 61.1857 11.8498 61.1865 11.8499C61.1869 11.8499 61.1874 11.85 61.188 11.85C61.1883 11.85 61.1887 11.85 61.1891 11.8501C61.1892 11.8501 61.1894 11.8501 61.1896 11.8501C61.1898 11.8501 61.1899 11.8501 61.19 11.8501C61.1901 11.8502 61.1903 11.8502 60.9053 15.84C60.6203 19.8298 60.6205 19.8298 60.6207 19.8299C60.6207 19.8299 60.6209 19.8299 60.621 19.8299C60.6213 19.8299 60.6215 19.8299 60.6218 19.8299C60.6223 19.83 60.6229 19.83 60.6234 19.8301C60.6246 19.8301 60.6259 19.8302 60.6274 19.8303C60.6303 19.8305 60.6338 19.8308 60.6378 19.8311C60.6459 19.8316 60.6561 19.8323 60.6684 19.8331C60.6929 19.8347 60.7258 19.8368 60.7662 19.8392C60.8468 19.844 60.9581 19.8501 61.0927 19.8561C61.3592 19.8679 61.7307 19.88 62.1453 19.88V15.88ZM60.9053 15.84V11.84H46.7453V15.84V19.84H60.9053V15.84ZM46.7453 15.84L47.311 11.8802C46.8643 11.8164 46.3616 11.8023 45.8932 11.8343C45.5702 11.8563 44.5732 11.9313 43.6008 12.487L45.5853 15.96L47.5699 19.433C47.1527 19.6714 46.8092 19.7519 46.7001 19.7757C46.5585 19.8067 46.4652 19.8138 46.4374 19.8157C46.4026 19.8181 46.3795 19.818 46.3604 19.8174C46.3489 19.8171 46.2875 19.8152 46.1796 19.7998L46.7453 15.84ZM45.5853 15.96L44.0097 12.2834C42.8527 12.7792 42.288 13.6457 42.0954 13.9707C41.8596 14.3685 41.7357 14.7278 41.6747 14.9241C41.549 15.3291 41.4928 15.7028 41.4645 15.9213C41.4028 16.3992 41.3817 16.9104 41.3757 17.322C41.3695 17.7533 41.3784 18.2001 41.4007 18.587C41.4117 18.7765 41.4282 18.9943 41.4549 19.2095C41.4582 19.2358 41.517 19.8616 41.7887 20.4957L45.4653 18.92L49.1419 17.3443C49.3022 17.7184 49.3589 18.0215 49.3665 18.0592C49.3854 18.1539 49.393 18.2161 49.3941 18.2251C49.3968 18.2463 49.3927 18.2173 49.3874 18.1255C49.3773 17.9499 49.3711 17.6967 49.3749 17.438C49.3767 17.3119 49.3807 17.1986 49.3861 17.1044C49.3888 17.058 49.3915 17.0203 49.3941 16.9914C49.3953 16.9772 49.3964 16.9661 49.3972 16.9582C49.3977 16.9542 49.398 16.9512 49.3982 16.9492C49.3985 16.9471 49.3986 16.9462 49.3986 16.9462C49.3986 16.9463 49.3984 16.9477 49.3981 16.9502C49.3977 16.9527 49.3971 16.9567 49.3963 16.962C49.3946 16.9723 49.3917 16.9903 49.3869 17.0148C49.379 17.0555 49.3581 17.1573 49.315 17.2962C49.2795 17.4105 49.1833 17.7022 48.9776 18.0492C48.8152 18.3234 48.2829 19.1558 47.161 19.6366L45.5853 15.96ZM45.4653 18.92L41.9687 20.8626C42.6518 22.0921 43.7114 22.63 44.2821 22.8511C44.8812 23.0832 45.4324 23.1597 45.7711 23.192C46.453 23.2569 47.1123 23.2097 47.3903 23.1898L47.1053 19.2L46.8203 15.2102C46.5383 15.2303 46.4776 15.2231 46.5295 15.228C46.5532 15.2303 46.8119 15.2518 47.1723 15.3914C47.5043 15.52 48.3789 15.9279 48.9619 16.9774L45.4653 18.92ZM47.1053 19.2L47.2303 23.198C48.4283 23.1606 50.6704 23.2 58.8253 23.2V19.2V15.2C50.9002 15.2 48.3423 15.1594 46.9804 15.202L47.1053 19.2ZM58.8253 19.2V23.2H61.7853V19.2V15.2H58.8253V19.2ZM61.7853 19.2V23.2C61.9688 23.2 62.1456 23.1986 62.3043 23.1973C62.4682 23.1959 62.6088 23.1946 62.7454 23.1944C63.0214 23.1938 63.2109 23.1978 63.3586 23.2071C63.6742 23.227 63.5642 23.2616 63.3165 23.1377L65.1053 19.56L66.8942 15.9823C65.7665 15.4184 64.6564 15.273 63.8621 15.2229C63.1398 15.1774 62.2551 15.2 61.7853 15.2V19.2ZM65.1053 19.56L63.4291 23.1918C63.0481 23.016 62.7943 22.7786 62.6374 22.5792C62.4796 22.3789 62.3777 22.1657 62.3204 21.9507L66.1853 20.92L70.0503 19.8893C69.6349 18.3319 68.5498 16.7443 66.7815 15.9282L65.1053 19.56ZM66.1853 20.92L62.2538 21.6572C62.2085 21.4155 62.2194 21.1944 62.2636 20.999C62.3069 20.8068 62.3986 20.5689 62.5853 20.32L65.7853 22.72L68.9853 25.12C70.0423 23.7107 70.4359 21.8845 70.1168 20.1828L66.1853 20.92ZM65.7853 22.72L62.6735 20.2066C62.7487 20.1136 62.9006 19.9616 63.1357 19.8268C63.366 19.6947 63.5648 19.6431 63.6587 19.6253C63.7262 19.6125 63.7193 19.6219 63.5235 19.6269C63.4262 19.6294 63.3272 19.6302 63.1704 19.6319C63.0277 19.6334 62.844 19.6356 62.6475 19.6424L62.7853 23.64L62.9232 27.6376C63.3197 27.624 63.1442 27.6392 63.7271 27.6243C64.0713 27.6156 64.5844 27.5925 65.152 27.4847C66.4747 27.2334 67.8155 26.5724 68.8971 25.2333L65.7853 22.72ZM62.7853 23.64L62.6037 19.6441C61.8318 19.6792 57.8875 19.72 55.3853 19.72V23.72V27.72C57.8431 27.72 61.9788 27.6808 62.9669 27.6359L62.7853 23.64ZM55.3853 23.72L51.3908 23.9302C51.4312 24.6961 51.4653 25.4785 51.4653 26H55.4653H59.4653C59.4653 25.2415 59.4195 24.2638 59.3798 23.5098L55.3853 23.72ZM55.4653 26V30C58.6679 30 62.5072 29.8814 64.6551 29.9945L64.8653 26L65.0755 22.0055C62.6634 21.8786 58.1827 22 55.4653 22V26ZM40.0253 37.68H44.0253C44.0253 37.5562 44.0439 37.529 44.0332 37.5571C44.0219 37.5871 44.009 37.597 44.0286 37.5752C44.0919 37.505 44.3819 37.244 45.1945 36.9577C46.8855 36.3619 49.5774 36.08 53.1053 36.08V32.08V28.08C49.4332 28.08 45.5851 28.3381 42.5361 29.4123C40.9787 29.961 39.3488 30.8175 38.0845 32.221C36.7404 33.7132 36.0253 35.5895 36.0253 37.68H40.0253ZM53.1053 32.08V36.08C56.7938 36.08 59.4591 36.2479 61.1467 36.795C61.9291 37.0487 62.1554 37.281 62.1798 37.3089C62.1836 37.3133 62.181 37.3077 62.1848 37.3188C62.1913 37.337 62.2253 37.4417 62.2253 37.68H66.2253H70.2253C70.2253 35.5745 69.5831 33.6252 68.2071 32.0486C66.9028 30.554 65.2065 29.7013 63.6139 29.185C60.5515 28.1921 56.6569 28.08 53.1053 28.08V32.08ZM66.2253 37.68H62.2253C62.2253 37.9013 62.1933 37.9943 62.1895 38.0052C62.1879 38.0096 62.1922 38.0031 62.1862 38.01C62.156 38.0444 61.9199 38.281 61.1322 38.5397C59.444 39.0941 56.7716 39.28 53.1053 39.28V43.28V47.28C56.679 47.28 60.5666 47.1459 63.6284 46.1403C65.2157 45.619 66.9021 44.7656 68.2007 43.285C69.5729 41.7205 70.2253 39.7823 70.2253 37.68H66.2253ZM53.1053 43.28V39.28C49.46 39.28 46.7981 39.0942 45.1158 38.5405C44.331 38.2822 44.0954 38.046 44.065 38.0114C44.0588 38.0043 44.063 38.0105 44.0613 38.0057C44.0573 37.9945 44.0253 37.9013 44.0253 37.68H40.0253H36.0253C36.0253 39.7823 36.6777 41.7196 38.0481 43.2836C39.3452 44.764 41.0296 45.6178 42.6148 46.1395C45.6725 47.1458 49.5506 47.28 53.1053 47.28V43.28ZM60.9453 37.68H64.9453C64.9453 35.2231 63.3016 33.7911 62.1168 33.1607C61.0346 32.5848 59.8335 32.353 58.9469 32.2318C57.1129 31.9812 54.8289 32 53.1053 32V36V40C55.0617 40 56.6978 39.9988 57.8637 40.1582C58.4771 40.242 58.546 40.3227 58.3588 40.2231C58.2344 40.1568 57.8796 39.9471 57.5434 39.4925C57.1654 38.9815 56.9453 38.3385 56.9453 37.68H60.9453ZM53.1053 36V32C51.4097 32 49.179 31.9803 47.3946 32.2352C46.5301 32.3587 45.3359 32.5983 44.2573 33.2035C43.0335 33.8902 41.5453 35.3415 41.5453 37.68H45.5453H49.5453C49.5453 38.2817 49.3564 38.8948 48.9993 39.4056C48.676 39.8682 48.3221 40.0961 48.1721 40.1802C47.9423 40.3092 47.9556 40.2363 48.526 40.1548C49.6116 39.9997 51.1609 40 53.1053 40V36ZM45.5453 37.68H41.5453C41.5453 40.167 43.2752 41.5434 44.3167 42.1048C45.3364 42.6544 46.4689 42.902 47.3273 43.0396C49.1171 43.3265 51.305 43.36 53.1053 43.36V39.36V35.36C51.2657 35.36 49.6735 35.3135 48.5933 35.1404C48.0167 35.048 47.9418 34.9706 48.1126 35.0627C48.2211 35.1212 48.5653 35.3222 48.9013 35.7627C49.2822 36.2621 49.5453 36.9352 49.5453 37.68H45.5453ZM53.1053 39.36V43.36C54.6587 43.36 57.0565 43.4485 58.8558 43.2446C59.751 43.1431 61.0354 42.9258 62.1961 42.2741C63.5931 41.4897 64.9453 39.9513 64.9453 37.68H60.9453H56.9453C56.9453 37.193 57.0856 36.6295 57.4242 36.1182C57.7385 35.6433 58.1001 35.3991 58.2795 35.2984C58.5453 35.1492 58.5596 35.2269 57.9549 35.2954C57.4341 35.3545 56.7505 35.3776 55.8773 35.3788C55.4508 35.3793 55.0094 35.3749 54.5403 35.3701C54.0793 35.3653 53.59 35.36 53.1053 35.36V39.36Z" fill="#84C5A0" mask="url(#path-1-outside-1_2044_77693)"/>
<rect width="4" height="3" transform="translate(13 15.5)" fill="#84C5A0"/>
</svg>
