<svg width="331" height="98" viewBox="0 0 331 98" fill="none" xmlns="http://www.w3.org/2000/svg">
<g clip-path="url(#clip0_2287_14367)">
<path d="M31.6794 62.5419C49.7286 62.5419 64.3587 48.0925 64.3587 30.2746C64.3587 12.4567 49.7286 -2 31.6794 -2C13.6302 -2 -1 12.4495 -1 30.2674C-1 48.0852 13.6302 62.5347 31.6794 62.5347" fill="#F0F2DA"/>
<path d="M31.6798 48.0346C41.6188 48.0346 49.6712 40.0834 49.6712 30.2673C49.6712 20.4512 41.6116 12.5 31.6798 12.5C21.7481 12.5 13.6885 20.4584 13.6885 30.2673C13.6885 40.0762 21.7409 48.0346 31.6798 48.0346Z" fill="white"/>
<path d="M41 98C52.5973 98 62 88.6005 62 77C62 65.3995 52.5973 56 41 56C29.4027 56 20 65.3995 20 77C20 88.6005 29.4027 98 41 98Z" fill="#C2CC66"/>
<mask id="mask0_2287_14367" style="mask-type:luminance" maskUnits="userSpaceOnUse" x="20" y="56" width="43" height="43">
<path d="M20.1025 77.2077C20.1025 88.7514 29.5789 98.1049 41.2671 98.1049C52.9554 98.1049 62.4318 88.7514 62.4318 77.2077C62.4318 65.664 52.9554 56.3105 41.2671 56.3105C29.5789 56.3105 20.1025 65.664 20.1025 77.2077Z" fill="white"/>
</mask>
<g mask="url(#mask0_2287_14367)">
<g style="mix-blend-mode:multiply">
<mask id="mask1_2287_14367" style="mask-type:luminance" maskUnits="userSpaceOnUse" x="25" y="69" width="76" height="70">
<path d="M100.59 69.7266H25.0537V138.193H100.59V69.7266Z" fill="white"/>
</mask>
<g mask="url(#mask1_2287_14367)">
<path d="M62.106 71.2584C78.9698 70.8898 92.9422 84.2622 93.3108 101.126C93.6795 117.99 80.307 131.962 63.4433 132.324C46.5795 132.692 32.6071 119.32 32.2457 102.456C31.8771 85.5922 45.2495 71.6198 62.1133 71.2512" fill="#E3E7BB"/>
</g>
</g>
<g opacity="0.3">
<mask id="mask2_2287_14367" style="mask-type:luminance" maskUnits="userSpaceOnUse" x="-6" y="68" width="71" height="65">
<path d="M64.5205 68.2373H-5.65234V132.027H64.5205V68.2373Z" fill="white"/>
</mask>
<g mask="url(#mask2_2287_14367)">
<path d="M28.7695 69.7116C44.1804 69.3791 56.9456 81.7541 57.2926 97.3601C57.6323 112.966 45.4164 125.89 30.0056 126.223C14.5947 126.555 1.82946 114.18 1.4825 98.5744C1.14277 82.9684 13.3587 70.0441 28.7695 69.7116Z" fill="#D5DB97"/>
</g>
</g>
<g style="mix-blend-mode:multiply">
<mask id="mask3_2287_14367" style="mask-type:luminance" maskUnits="userSpaceOnUse" x="9" y="69" width="72" height="65">
<path d="M80.3072 69.3145H9.4043V133.148H80.3072V69.3145Z" fill="white"/>
</mask>
<g mask="url(#mask3_2287_14367)">
<path d="M44.1943 70.7963C59.8076 70.4566 72.7391 82.8387 73.0788 98.4447C73.4186 114.058 61.0364 126.989 45.4304 127.329C29.8171 127.669 16.8856 115.287 16.5459 99.6736C16.2062 84.0603 28.5883 71.1288 44.2016 70.7891" fill="#EBEECE"/>
</g>
</g>
</g>
<path d="M78.5022 55C79.3125 55.3359 80.011 55.8104 80.2189 56.7221C80.3202 57.1699 80.2882 57.6497 80.3095 58.1189C80.3202 58.4601 80.2989 58.8013 80.3202 59.1425C80.3735 59.8196 80.6987 60.1289 81.3918 60.1342C82.5008 60.1449 83.6097 60.1129 84.7133 60.1449C85.8809 60.1822 86.6433 60.8433 86.8619 61.9469C87.0805 63.0558 86.59 64.1541 85.6357 64.5646C85.2571 64.7299 84.8199 64.7779 84.4148 64.8739C85.5184 68.1047 84.7666 70.8024 81.9623 72.8124C79.6751 74.4492 76.4282 74.4812 74.0931 72.8711C71.2247 70.8984 70.4463 68.1687 71.4646 64.8792C71.0808 64.7886 70.6969 64.7406 70.345 64.6073C69.3267 64.2128 68.8256 63.0878 69.0548 61.8296C69.2361 60.8433 70.0465 60.1715 71.1661 60.1395C72.275 60.1129 73.3786 60.1395 74.4876 60.1289C75.2873 60.1289 75.5592 59.8516 75.5752 59.0626C75.5805 58.7427 75.6019 58.4228 75.5752 58.1029C75.4526 56.6528 75.9697 55.5811 77.3506 55H78.5022ZM77.9157 64.7033C76.4229 64.7033 75.3513 65.7482 75.3513 67.2037C75.3513 68.5312 76.5295 69.7042 77.889 69.7202C79.3232 69.7362 80.4908 68.6272 80.5068 67.2304C80.5228 65.7322 79.4672 64.7033 77.9157 64.7033Z" fill="#C1CC66"/>
<path d="M211.932 72.9192C212.071 73.7296 212.215 74.46 212.321 75.201C212.369 75.5582 212.321 75.9261 212.353 76.2887C212.423 77.0137 212.689 77.259 213.414 77.275C213.82 77.2856 214.225 77.259 214.63 77.2856C215.808 77.3656 216.656 78.2186 216.736 79.3756C216.816 80.4952 216.053 81.5135 214.939 81.7587C214.694 81.812 214.433 81.8334 214.182 81.8387C209.005 81.8387 203.823 81.8387 198.646 81.8387C197.894 81.8387 197.196 81.6948 196.679 81.1083C196.066 80.4152 195.858 79.6208 196.204 78.7411C196.567 77.8135 197.271 77.3336 198.262 77.2856C198.668 77.2643 199.073 77.2856 199.478 77.2696C200.166 77.2377 200.486 76.9338 200.544 76.2513C200.576 75.8888 200.534 75.5263 200.576 75.1637C200.662 74.4386 200.789 73.7189 200.907 72.9245C200.475 72.9245 199.894 72.9352 199.318 72.9245C197.585 72.8925 196.663 71.7836 196.945 70.0722C197.084 69.2405 197.799 68.5687 198.694 68.4461C198.843 68.4248 198.993 68.4248 199.142 68.4194C200.688 68.3661 200.757 68.2968 200.757 66.7667C200.757 66.0629 200.768 65.3592 200.757 64.6554C200.736 63.6584 200.496 63.4345 199.499 63.4238C197.894 63.4078 197.02 62.5548 197.073 61.046C197.116 59.8571 198.07 58.9614 199.371 58.9561C202.634 58.9401 205.892 58.9507 209.155 58.9507C210.605 58.9507 212.055 58.9401 213.5 58.9561C214.827 58.9721 215.723 59.8624 215.734 61.1473C215.75 62.5122 214.918 63.3705 213.526 63.4185C213.356 63.4238 213.185 63.4185 213.015 63.4238C212.385 63.4665 212.034 63.813 212.023 64.4368C212.007 65.4391 212.007 66.4414 212.023 67.4438C212.034 68.1049 212.289 68.3608 212.956 68.4034C213.169 68.4194 213.382 68.4034 213.596 68.4088C215.062 68.4407 215.899 69.2565 215.894 70.6426C215.888 71.9968 214.998 72.8765 213.59 72.9085C212.999 72.9192 212.401 72.9085 211.948 72.9085L211.932 72.9192ZM204.447 72.9458C204.591 73.6922 204.74 74.38 204.841 75.0784C204.895 75.4303 204.793 75.8142 204.868 76.1607C204.943 76.4913 205.103 77.0191 205.311 77.0617C205.972 77.2057 206.707 77.3016 207.347 77.147C207.934 77.0084 207.87 76.2993 207.88 75.7715C207.902 74.8065 207.768 73.8149 208.483 72.9458H204.442H204.447ZM204.975 65.887C204.975 66.3988 204.975 66.9053 204.975 67.4171C204.975 67.9023 205.225 68.2701 205.684 68.3448C206.148 68.4248 206.649 68.4088 207.118 68.3341C207.56 68.2648 207.8 67.9183 207.806 67.4598C207.811 66.4628 207.832 65.4605 207.795 64.4635C207.768 63.7064 207.331 63.4238 206.35 63.4292C205.423 63.4345 205.023 63.7331 204.985 64.4848C204.959 64.9486 204.985 65.4178 204.985 65.887H204.975Z" fill="#C1CC66"/>
<path d="M146.4 63.6103C146.4 65.5296 146.405 67.4489 146.4 69.3683C146.389 71.5062 145.04 72.8977 142.902 72.919C140.407 72.9457 137.917 72.9457 135.422 72.9084C133.562 72.8817 132.106 71.5008 132.085 69.6455C132.037 65.6576 132.047 61.6696 132.069 57.6817C132.074 56.4182 133.119 55.5171 134.441 55.5225C135.726 55.5225 136.771 56.4928 136.803 57.7244C136.819 58.2362 136.792 58.748 136.814 59.2598C136.846 60.0009 137.112 60.2515 137.837 60.2515C138.776 60.2515 139.714 60.2568 140.652 60.2515C141.367 60.2461 141.655 59.9689 141.676 59.2438C141.697 58.7107 141.676 58.1775 141.687 57.6444C141.729 56.2369 142.694 55.3519 144.139 55.3785C145.445 55.4052 146.394 56.3808 146.394 57.7244C146.4 59.6863 146.394 61.6483 146.394 63.6103H146.4ZM139.122 68.2966C139.122 68.2966 139.122 68.2966 139.122 68.2913C139.655 68.2913 140.189 68.302 140.716 68.2913C141.33 68.27 141.649 67.9288 141.665 67.321C141.681 66.7239 141.681 66.1267 141.665 65.5296C141.655 65.0071 141.388 64.6713 140.85 64.6553C139.767 64.6286 138.68 64.6179 137.598 64.6393C137.07 64.6499 136.787 64.9538 136.787 65.503C136.787 66.1427 136.798 66.7825 136.787 67.417C136.782 68.0034 137.086 68.2753 137.646 68.2913C138.136 68.3073 138.627 68.2913 139.112 68.2913L139.122 68.2966Z" fill="#C1CC66"/>
<path d="M294.469 64.5088C293.893 64.5088 293.317 64.4928 292.741 64.5088C292.133 64.5301 291.878 64.9566 292.235 65.4418C292.544 65.8629 292.944 66.2468 293.386 66.524C294.613 67.2918 295.908 67.9475 297.113 68.7419C297.598 69.0618 298.057 69.563 298.281 70.0908C298.728 71.1411 298.35 72.1647 297.465 72.7938C296.596 73.4123 295.498 73.407 294.618 72.7299C293.589 71.9355 292.597 71.0984 291.574 70.2934C290.358 69.3337 289.654 69.3444 288.449 70.3307C287.426 71.1677 286.434 72.0368 285.394 72.8578C283.763 74.1427 281.625 73.359 281.268 71.3543C281.108 70.464 281.439 69.7709 282.196 69.2804C283.555 68.406 284.931 67.5583 286.274 66.6573C286.69 66.3801 287.069 66.0016 287.351 65.591C287.762 64.9939 287.474 64.5141 286.754 64.5088C285.773 64.4981 284.792 64.5247 283.816 64.4874C282.302 64.4288 281.481 63.6664 281.476 62.3548C281.471 61.0966 282.436 60.1849 283.87 60.1423C284.787 60.1156 285.704 60.1103 286.615 60.1423C287.223 60.1636 287.479 59.8864 287.484 59.3159C287.484 58.8254 287.484 58.3349 287.506 57.8444C287.559 56.4316 288.529 55.4826 289.91 55.4933C291.328 55.5039 292.293 56.4742 292.304 57.9191C292.304 58.3669 292.299 58.8148 292.309 59.2626C292.325 59.8437 292.576 60.1636 293.216 60.1476C294.133 60.121 295.05 60.121 295.961 60.1476C297.385 60.1956 298.206 61.0326 298.195 62.3868C298.185 63.6131 297.481 64.3915 296.255 64.4714C295.663 64.5088 295.06 64.4768 294.469 64.4768C294.469 64.4874 294.469 64.4981 294.469 64.5088Z" fill="#D4DB96"/>
<path d="M170.764 97.9917C169.463 97.9917 168.168 98.0077 166.867 97.9917C164.953 97.9597 163.551 96.5256 163.54 94.6009C163.529 92.447 163.54 90.2984 163.54 88.1445C163.54 86.0812 164.862 84.6417 166.92 84.5938C169.495 84.5351 172.076 84.5405 174.651 84.5938C176.629 84.6364 177.924 85.9959 177.961 88.0006C177.999 90.1918 177.999 92.3884 177.961 94.5849C177.924 96.6695 176.57 97.9704 174.469 97.9917C173.232 98.0077 172.001 97.9917 170.764 97.9917ZM170.636 93.5186C171.02 93.5186 171.404 93.5293 171.788 93.5186C172.657 93.4973 173.094 93.1081 173.137 92.2444C173.174 91.562 173.163 90.8796 173.137 90.1971C173.121 89.5893 172.822 89.1628 172.182 89.1255C171.271 89.0775 170.353 89.0509 169.442 89.0775C168.807 89.0989 168.392 89.4934 168.365 90.1278C168.328 90.9969 168.344 91.8659 168.413 92.7349C168.456 93.2414 168.845 93.4973 169.357 93.508C169.783 93.5186 170.21 93.508 170.636 93.508V93.5186Z" fill="#C1CC66"/>
<path d="M109.704 73.194C106.532 73.0447 104.058 71.7971 102.747 68.9181C101.478 66.1298 101.707 63.3468 103.76 60.9689C105.839 58.5538 108.574 57.8287 111.624 58.5804C114.572 59.3109 116.507 61.1875 117.174 64.2051C118.08 68.3104 115.228 72.4156 111.085 73.034C110.605 73.1087 110.115 73.146 109.71 73.194H109.704ZM109.635 68.5663C111.421 68.5716 112.589 67.4307 112.589 65.6819C112.589 64.0132 111.432 62.8829 109.704 62.8616C108.041 62.8403 106.783 64.0345 106.761 65.65C106.74 67.3294 107.95 68.5609 109.64 68.5663H109.635Z" fill="#C1CC66"/>
<path d="M170.681 73.2235C166.331 73.2235 163.047 69.9873 163.063 65.7275C163.079 61.5796 166.411 58.3594 170.687 58.3594C174.973 58.3594 178.364 61.6382 178.359 65.7648C178.353 69.9766 175.005 73.2235 170.676 73.2182L170.681 73.2235ZM170.713 68.6171C172.462 68.6118 173.63 67.4708 173.635 65.7594C173.64 64.08 172.441 62.9178 170.692 62.9231C169.007 62.9231 167.797 64.1067 167.797 65.7488C167.797 67.4389 168.996 68.6278 170.713 68.6171Z" fill="#C1CC66"/>
<path d="M155.785 84.7353C155.811 88.9259 153.087 92.0128 149.462 92.4873C146.535 92.8711 143.97 92.1301 142.077 89.8055C138.623 85.567 141.128 79.1853 146.561 78.2949C149.861 77.7564 152.623 78.6788 154.633 81.4565C155.454 82.5974 155.795 83.9036 155.79 84.73L155.785 84.7353ZM151.05 85.3218C151.045 83.6637 149.925 82.5867 148.198 82.5814C146.46 82.5761 145.292 83.701 145.303 85.3644C145.314 86.9852 146.497 88.1208 148.171 88.1315C149.877 88.1421 151.056 86.9905 151.045 85.3271L151.05 85.3218Z" fill="#C1CC66"/>
<path d="M156.886 66.7922C156.886 69.6925 156.902 72.5928 156.881 75.4878C156.87 76.874 155.889 77.791 154.514 77.775C153.373 77.759 152.387 76.8686 152.291 75.717C152.237 75.0399 152.259 74.3522 152.248 73.6751C152.232 72.6355 151.875 72.2569 150.83 72.2089C150.275 72.1823 149.721 72.2089 149.172 72.1556C147.94 72.033 147.258 71.2066 147.3 69.9431C147.338 68.7755 147.999 68.125 149.257 68.0504C149.897 68.0131 150.537 68.0451 151.171 67.9864C151.917 67.9171 152.184 67.6399 152.232 66.8881C152.264 66.4243 152.259 65.9498 152.216 65.486C152.147 64.7076 151.928 64.4997 151.134 64.4357C150.542 64.3877 149.939 64.425 149.348 64.377C147.876 64.2491 147.061 63.1668 147.322 61.722C147.492 60.7783 148.153 60.2398 149.3 60.1598C149.806 60.1225 150.323 60.1492 150.835 60.1438C151.8 60.1279 152.221 59.7067 152.253 58.731C152.264 58.3898 152.253 58.0433 152.312 57.7127C152.493 56.6251 153.261 55.9427 154.301 55.9053C155.724 55.8574 156.566 56.3852 156.828 57.5368C156.908 57.8833 156.892 58.2565 156.892 58.6191C156.892 61.3488 156.892 64.0785 156.892 66.8028C156.892 66.8028 156.892 66.8028 156.886 66.8028V66.7922Z" fill="#C1CC66"/>
<path d="M269.245 75.9282C271.863 75.9282 274.486 75.9175 277.104 75.9282C278.399 75.9335 279.204 76.536 279.471 77.6396C279.796 78.9991 278.81 80.2893 277.413 80.3213C277.05 80.332 276.688 80.3106 276.325 80.3266C275.531 80.364 275.11 80.7638 275.062 81.5582C275.03 82.1127 275.062 82.6671 275.046 83.2216C275.003 84.6025 274.257 85.3222 272.865 85.3382C271.436 85.3595 270.695 84.7091 270.605 83.3176C270.567 82.7631 270.605 82.2086 270.583 81.6542C270.551 80.7958 270.167 80.364 269.437 80.3213C268.2 80.2573 267.832 80.4866 267.72 81.4942C267.651 82.1287 267.688 82.7738 267.64 83.4082C267.539 84.7304 266.771 85.3702 265.369 85.3329C264.068 85.3009 263.354 84.6131 263.3 83.3229C263.279 82.7684 263.311 82.214 263.284 81.6595C263.236 80.7638 262.805 80.3533 261.909 80.3213C261.589 80.3106 261.269 80.3213 260.949 80.3213C259.771 80.284 258.854 79.3776 258.817 78.2047C258.779 77.0371 259.568 76.1095 260.736 75.9655C261.008 75.9335 261.285 75.9229 261.562 75.9229C264.116 75.9229 266.675 75.9229 269.229 75.9229L269.245 75.9282Z" fill="#D4DB96"/>
<path d="M89.5311 67.736C89.5311 65.2622 89.5205 62.7884 89.5311 60.3199C89.5418 58.6832 90.4641 57.7981 92.0902 57.8248C93.3858 57.8461 94.2921 58.8484 94.3295 60.3413C94.3561 61.2796 94.3295 62.2179 94.3401 63.1563C94.3561 64.1586 94.7933 64.5904 95.7903 64.6064C96.3447 64.6171 96.8992 64.5958 97.4537 64.6171C98.6213 64.6597 99.3837 65.4595 99.453 66.6804C99.5223 67.9119 98.7599 68.9516 97.635 69.0742C96.9792 69.1435 96.3181 69.1115 95.657 69.1435C94.6547 69.1968 94.3348 69.5274 94.3348 70.5297C94.3295 72.1291 94.3561 73.7285 94.3241 75.328C94.2868 77.1194 92.6874 78.239 91.0559 77.6472C90.0803 77.2953 89.5311 76.4156 89.5258 75.1627C89.5205 72.6889 89.5258 70.2151 89.5258 67.7466L89.5311 67.736Z" fill="#C1CC66"/>
<path d="M127.467 67.7787C127.467 70.3378 127.478 72.8969 127.462 75.456C127.451 76.6502 126.63 77.6205 125.564 77.7645C124.305 77.9351 123.175 77.3007 122.834 76.1704C122.717 75.7705 122.695 75.3333 122.695 74.9068C122.679 73.1368 122.695 71.3667 122.685 69.5967C122.679 68.3385 122.381 68.0559 121.139 68.0399C120.483 68.0292 119.806 68.0612 119.171 67.9226C118.068 67.6827 117.54 66.7604 117.625 65.4755C117.694 64.4305 118.366 63.6894 119.422 63.5668C120.056 63.4922 120.696 63.5082 121.336 63.4922C122.381 63.4708 122.599 63.2842 122.663 62.2286C122.706 61.5035 122.653 60.7785 122.722 60.0587C122.877 58.4593 124.108 57.5583 125.681 57.8462C126.758 58.0434 127.456 58.9338 127.462 60.1707C127.472 62.7085 127.462 65.2462 127.462 67.784L127.467 67.7787Z" fill="#C1CC66"/>
<path d="M268.535 59.6215C270.006 59.6215 271.478 59.6162 272.944 59.6215C275.183 59.6322 276.554 60.9597 276.569 63.1829C276.591 65.9553 276.585 68.7276 276.569 71.5C276.564 72.9288 275.557 73.9418 274.176 73.9471C272.832 73.9525 271.894 72.9662 271.883 71.5053C271.872 69.8419 271.883 68.1785 271.872 66.5151C271.862 64.969 271.089 64.2119 269.537 64.2119C267.661 64.2119 265.784 64.2119 263.913 64.2119C262.409 64.2119 261.487 63.3429 261.471 61.946C261.46 60.5332 262.361 59.6428 263.865 59.6268C265.421 59.6108 266.978 59.6268 268.53 59.6268L268.535 59.6215Z" fill="#D4DB96"/>
<path d="M225.948 59.6239C227.377 59.6239 228.801 59.6132 230.23 59.6239C232.341 59.6399 233.7 60.7808 233.78 62.8921C233.892 65.7231 233.866 68.5594 233.807 71.3904C233.78 72.8139 232.655 73.7363 231.269 73.6776C230.038 73.6243 229.163 72.5953 229.158 71.1878C229.158 69.6737 229.158 68.1595 229.158 66.6507C229.153 64.9927 228.385 64.2196 226.743 64.2143C224.973 64.2143 223.208 64.2143 221.438 64.2143C219.951 64.2143 219.018 63.3292 219.007 61.9377C219.002 60.5302 219.903 59.6452 221.411 59.6292C222.925 59.6132 224.434 59.6292 225.948 59.6292V59.6239Z" fill="#C1CC66"/>
<path d="M86.8717 91.2168C85.3149 91.2168 83.7634 91.2328 82.2067 91.2168C80.25 91.1902 78.8105 89.7773 78.7839 87.8314C78.7519 85.5068 78.7625 83.1823 78.7839 80.8631C78.7945 79.5143 79.7222 78.528 81.0124 78.448C82.3133 78.3627 83.4222 79.2584 83.5342 80.6179C83.6302 81.8068 83.5662 83.0011 83.5928 84.1953C83.6035 84.5738 83.6248 84.9684 83.7421 85.3256C84.0407 86.2479 84.5792 86.6264 85.5495 86.6318C87.5328 86.6424 89.5108 86.6211 91.4941 86.6424C93.0029 86.6584 93.9252 87.6394 93.8666 89.1109C93.8186 90.3052 92.9442 91.1955 91.7393 91.2168C90.1185 91.2435 88.5031 91.2222 86.8823 91.2222L86.8717 91.2168Z" fill="#C1CC66"/>
<path d="M296.238 79.1919C297.731 79.1919 299.218 79.1865 300.711 79.1919C302.71 79.2025 304.048 80.4234 304.091 82.4014C304.15 85.0618 304.139 87.7275 304.107 90.3933C304.091 91.8168 303.057 92.7711 301.708 92.7284C300.37 92.6858 299.495 91.7315 299.485 90.292C299.474 88.9484 299.511 87.6049 299.469 86.2667C299.453 85.7496 299.335 85.2057 299.149 84.7259C298.919 84.1288 298.402 83.7822 297.757 83.7663C296.248 83.7236 294.734 83.7236 293.225 83.7023C292.607 83.6969 291.989 83.7183 291.375 83.6703C290.064 83.5743 289.355 82.7 289.387 81.2765C289.413 80.0769 290.272 79.2132 291.514 79.1972C293.092 79.1759 294.665 79.1972 296.243 79.1919H296.238Z" fill="#D4DB96"/>
<path d="M242.186 67.5786C242.186 70.1164 242.191 72.6542 242.186 75.1866C242.186 76.2529 241.594 77.0953 240.682 77.4205C239.749 77.751 238.651 77.4951 238.017 76.7061C237.75 76.3755 237.606 75.9277 237.473 75.5172C237.387 75.2612 237.414 74.968 237.414 74.6908C237.414 69.9778 237.403 65.2701 237.425 60.5571C237.425 60.0613 237.526 59.5281 237.718 59.0749C238.192 57.966 239.28 57.4702 240.453 57.7367C241.53 57.982 242.18 58.8244 242.186 60.0293C242.196 62.5457 242.186 65.0622 242.186 67.5733V67.5786Z" fill="#C1CC66"/>
<path d="M305.509 67.5614C305.509 70.1205 305.52 72.6796 305.504 75.2333C305.499 76.2996 304.939 77.0887 304.038 77.4139C303.116 77.7445 301.959 77.5045 301.372 76.7155C301.063 76.2996 300.802 75.7238 300.796 75.2173C300.754 70.1898 300.764 65.1569 300.775 60.124C300.775 58.7538 301.868 57.6928 303.201 57.6875C304.63 57.6875 305.493 58.5619 305.504 60.076C305.52 62.5711 305.504 65.0662 305.504 67.556L305.509 67.5614Z" fill="#D4DB96"/>
<path d="M170.326 76.3788C172.928 76.3788 175.524 76.3681 178.126 76.3788C179.171 76.3841 179.901 76.9172 180.226 77.8449C180.557 78.7833 180.338 79.8335 179.544 80.372C179.096 80.6759 178.494 80.8998 177.955 80.9052C172.864 80.9425 167.772 80.9478 162.68 80.9158C160.894 80.9052 159.833 79.4337 160.367 77.8609C160.692 76.9119 161.46 76.3788 162.59 76.3788C165.17 76.3681 167.745 76.3788 170.326 76.3788Z" fill="#C1CC66"/>
</g>
<defs>
<clipPath id="clip0_2287_14367">
<rect width="331" height="116" fill="white" transform="translate(0 -18)"/>
</clipPath>
</defs>
</svg>
