<svg width="50" height="64" viewBox="0 0 50 64" fill="none" xmlns="http://www.w3.org/2000/svg">
<path d="M4.41935 0.210938H45.8567C47.7638 0.210938 49.3164 2.38452 49.3164 5.05443V58.5C49.3164 61.1699 47.7638 63.3435 45.8567 63.3435H4.41935C2.51222 63.3435 0 61.1699 0 58.5V5.05443C0 2.38452 2.51222 0.210938 4.41935 0.210938Z" fill="#C9CACA"/>
<path d="M7.29388 3H39.7278C41.6325 3 43.1831 5.3562 43.1831 8.25042V55.1636C43.1831 58.0579 41.6325 60.4141 39.7278 60.4141H7.29388C5.38916 60.4141 2.87891 58.0579 2.87891 55.1636V8.25042C2.87891 5.3562 5.38916 3 7.29388 3Z" fill="white"/>
<path d="M25.7798 12.88V26.12H23.8198V12.88H25.7798ZM28.2998 18.52V20.16H25.2198V18.52H28.2998ZM22.4398 14.9V16.46H12.0198V14.9H22.4398ZM17.2198 17.32C18.0598 17.32 18.7998 17.46 19.4398 17.74C20.0931 18.0067 20.5998 18.3933 20.9598 18.9C21.3331 19.4067 21.5198 19.9933 21.5198 20.66C21.5198 21.3133 21.3331 21.9 20.9598 22.42C20.5998 22.9267 20.0931 23.32 19.4398 23.6C18.7998 23.8667 18.0598 24 17.2198 24C16.3931 24 15.6531 23.8667 14.9998 23.6C14.3598 23.32 13.8598 22.9267 13.4998 22.42C13.1398 21.9 12.9598 21.3133 12.9598 20.66C12.9598 19.9933 13.1398 19.4067 13.4998 18.9C13.8598 18.3933 14.3598 18.0067 14.9998 17.74C15.6531 17.46 16.3931 17.32 17.2198 17.32ZM17.2198 18.82C16.4998 18.82 15.9198 18.9867 15.4798 19.32C15.0531 19.64 14.8398 20.0867 14.8398 20.66C14.8398 21.22 15.0531 21.6667 15.4798 22C15.9198 22.32 16.4998 22.48 17.2198 22.48C17.9398 22.48 18.5198 22.32 18.9598 22C19.3998 21.6667 19.6198 21.22 19.6198 20.66C19.6198 20.0867 19.3998 19.64 18.9598 19.32C18.5198 18.9867 17.9398 18.82 17.2198 18.82ZM18.2198 12.86V15.68H16.2398V12.86H18.2198ZM26.5398 28.6V30.2H14.6198V28.6H26.5398ZM16.5798 25.08V29.28H14.6198V25.08H16.5798ZM25.3198 33.68V35.26H13.9998V33.68H25.3198ZM28.0198 39.92V41.5H11.9798V39.92H28.0198ZM20.9598 41.02V45.02H18.9998V41.02H20.9598ZM25.9998 33.68V35.02C25.9998 36.06 25.9664 37 25.8998 37.84C25.8464 38.6667 25.6931 39.6067 25.4398 40.66L23.5198 40.48C23.7731 39.44 23.9264 38.5267 23.9798 37.74C24.0464 36.94 24.0798 36.0333 24.0798 35.02V33.68H25.9998ZM26.0798 44.46V50.56H24.1398V46.04H13.6198V44.46H26.0798Z" fill="#231815"/>
</svg>
