<svg width="50" height="64" viewBox="0 0 50 64" fill="none" xmlns="http://www.w3.org/2000/svg">
<path d="M45.5806 0.210938H4.1433C2.23617 0.210938 0.683571 2.38452 0.683571 5.05443V58.5C0.683571 61.1699 2.23617 63.3435 4.1433 63.3435H45.5806C47.4878 63.3435 50 61.1699 50 58.5V5.05443C50 2.38452 47.4878 0.210938 45.5806 0.210938Z" fill="#C9CACA"/>
<path d="M42.7061 3H10.2722C8.3675 3 6.81687 5.3562 6.81687 8.25042V55.1636C6.81687 58.0579 8.3675 60.4141 10.2722 60.4141H42.7061C44.6108 60.4141 47.1211 58.0579 47.1211 55.1636V8.25042C47.1211 5.3562 44.6108 3 42.7061 3Z" fill="white"/>
<path d="M32.9398 21.74V24.82H30.9798V21.74H32.9398ZM39.9598 21.06V22.64H23.9798V21.06H39.9598ZM31.9598 24.28C33.8664 24.28 35.3531 24.5533 36.4198 25.1C37.4998 25.6467 38.0398 26.42 38.0398 27.42C38.0398 28.4067 37.4998 29.1733 36.4198 29.72C35.3531 30.2667 33.8664 30.54 31.9598 30.54C30.0398 30.54 28.5398 30.2667 27.4598 29.72C26.3931 29.1733 25.8598 28.4067 25.8598 27.42C25.8598 26.42 26.3931 25.6467 27.4598 25.1C28.5398 24.5533 30.0398 24.28 31.9598 24.28ZM31.9598 25.78C30.6264 25.78 29.6064 25.92 28.8998 26.2C28.1931 26.48 27.8398 26.8867 27.8398 27.42C27.8398 27.9533 28.1931 28.36 28.8998 28.64C29.6064 28.9067 30.6264 29.04 31.9598 29.04C33.2798 29.04 34.2931 28.9067 34.9998 28.64C35.7064 28.36 36.0598 27.9533 36.0598 27.42C36.0598 26.8867 35.7064 26.48 34.9998 26.2C34.2931 25.92 33.2798 25.78 31.9598 25.78ZM32.3998 14.42V14.9C32.3998 15.8067 32.0998 16.6333 31.4998 17.38C30.9131 18.1133 30.0931 18.72 29.0398 19.2C27.9998 19.68 26.8131 19.9933 25.4798 20.14L24.7798 18.58C25.9131 18.4733 26.9264 18.24 27.8198 17.88C28.7131 17.52 29.4064 17.08 29.8998 16.56C30.4064 16.04 30.6598 15.4867 30.6598 14.9V14.42H32.3998ZM33.2998 14.42V14.9C33.2998 15.4867 33.5464 16.04 34.0398 16.56C34.5464 17.08 35.2464 17.52 36.1398 17.88C37.0331 18.24 38.0398 18.4733 39.1598 18.58L38.4598 20.14C37.1264 19.9933 35.9331 19.68 34.8798 19.2C33.8398 18.72 33.0198 18.1133 32.4198 17.38C31.8331 16.6333 31.5398 15.8067 31.5398 14.9V14.42H33.2998ZM38.5398 13.66V15.22H25.4398V13.66H38.5398ZM37.3198 33.68V35.26H25.9998V33.68H37.3198ZM40.0198 39.92V41.5H23.9798V39.92H40.0198ZM32.9598 41.02V45.02H30.9998V41.02H32.9598ZM37.9998 33.68V35.02C37.9998 36.06 37.9664 37 37.8998 37.84C37.8464 38.6667 37.6931 39.6067 37.4398 40.66L35.5198 40.48C35.7731 39.44 35.9264 38.5267 35.9798 37.74C36.0464 36.94 36.0798 36.0333 36.0798 35.02V33.68H37.9998ZM38.0798 44.46V50.56H36.1398V46.04H25.6198V44.46H38.0798Z" fill="#231815"/>
</svg>
