<svg width="961" height="105" viewBox="0 0 961 105" fill="none" xmlns="http://www.w3.org/2000/svg">
<rect x="526" y="1" width="433.95" height="103" rx="10" fill="white"/>
<rect x="526" y="1" width="433.95" height="103" rx="10" stroke="#DEF0EB" stroke-width="2"/>
<path d="M363.949 52L523.949 52" stroke="#DEF0EB" stroke-width="2.71583" stroke-linecap="round" stroke-linejoin="round" stroke-dasharray="5.43 5.43"/>
<path d="M75.9833 9H10C4.47715 9 0 13.4772 0 19V86C0 91.5229 4.47714 96 9.99999 96H75.9833C81.5062 96 85.9833 91.5229 85.9833 86V19C85.9833 13.4772 81.5062 9 75.9833 9Z" fill="#DEF0EB"/>
<path d="M171.966 9H105.982C100.46 9 95.9824 13.4772 95.9824 19V86C95.9824 91.5229 100.46 96 105.982 96H171.966C177.489 96 181.966 91.5229 181.966 86V19C181.966 13.4772 177.489 9 171.966 9Z" fill="#DEF0EB"/>
<path d="M267.95 9H201.967C196.444 9 191.967 13.4772 191.967 19V86C191.967 91.5229 196.444 96 201.967 96H267.95C273.473 96 277.95 91.5229 277.95 86V19C277.95 13.4772 273.473 9 267.95 9Z" fill="#DEF0EB"/>
</svg>
