<svg width="280" height="122" viewBox="0 0 280 122" fill="none" xmlns="http://www.w3.org/2000/svg">
<rect x="1" y="5" width="171" height="98" rx="38" fill="white"/>
<path d="M224.671 115.961H223.783C220.96 115.961 218.713 114.759 218.922 111.91L220.228 93.7462C220.438 90.9237 222.92 88.5977 225.743 88.5977H226.631C229.454 88.5977 231.623 90.9237 231.414 93.7462L230.107 111.91C229.898 114.732 227.494 115.961 224.671 115.961Z" fill="#3E3A39"/>
<path d="M224.671 116.795H223.782C221.744 116.795 220.15 116.22 219.157 115.174C218.373 114.338 218.007 113.188 218.111 111.881L219.418 93.7178C219.653 90.4509 222.502 87.7852 225.769 87.7852H226.657C228.252 87.7852 229.715 88.4124 230.787 89.5623C231.858 90.7123 232.381 92.2281 232.25 93.8223L230.943 111.986C230.734 114.965 228.33 116.795 224.671 116.795ZM225.769 89.4317C223.364 89.4317 221.247 91.3918 221.091 93.7962L219.784 111.96C219.732 112.822 219.941 113.502 220.385 113.998C221.038 114.704 222.267 115.096 223.782 115.096H224.671C225.978 115.096 229.062 114.782 229.271 111.829L230.578 93.6655C230.656 92.5156 230.29 91.4702 229.532 90.66C228.774 89.8498 227.755 89.4317 226.631 89.4317H225.743H225.769Z" fill="#3E3A39"/>
<path d="M249.132 115.961H248.244C245.421 115.961 243.017 114.759 242.86 111.91L241.815 93.7462C241.658 90.9237 243.827 88.5977 246.676 88.5977H247.564C250.387 88.5977 252.844 90.9237 253 93.7462L254.046 111.91C254.203 114.732 251.955 115.961 249.132 115.961Z" fill="#3E3A39"/>
<path d="M249.131 116.796H248.243C244.584 116.796 242.206 114.94 242.023 111.961L240.977 93.7969C240.873 92.2027 241.422 90.6869 242.519 89.5369C243.617 88.387 245.081 87.7598 246.675 87.7598H247.563C250.83 87.7598 253.653 90.4255 253.836 93.6924L254.881 111.856C254.96 113.163 254.568 114.313 253.783 115.149C252.764 116.221 251.17 116.769 249.131 116.769V116.796ZM246.675 89.4324C245.525 89.4324 244.506 89.8767 243.722 90.6869C242.964 91.497 242.572 92.5686 242.65 93.6924L243.695 111.856C243.852 114.783 246.936 115.123 248.243 115.123H249.131C250.673 115.123 251.902 114.731 252.581 114.025C253.052 113.529 253.287 112.823 253.235 111.961L252.189 93.7969C252.059 91.3925 249.994 89.4324 247.59 89.4324H246.701H246.675Z" fill="#3E3A39"/>
<path d="M228.722 78.8478C227.833 78.8478 226.945 78.5864 226.135 78.0637L192.917 56.2934C190.722 54.856 190.121 51.9289 191.558 49.7336C192.996 47.5383 195.923 46.9372 198.118 48.3746L231.335 70.1449C233.531 71.5823 234.132 74.5094 232.694 76.7047C231.78 78.0899 230.264 78.8478 228.722 78.8478Z" fill="#3E3A39"/>
<path d="M251.641 75.4266L251.118 69.4417C250.57 62.8819 243.931 57.8379 236.352 57.8379C228.773 57.8379 222.187 62.8819 221.691 69.4417L221.168 76.289C228.224 77.7526 239.306 78.7457 251.615 75.4266" fill="#3E3A39"/>
<path d="M234.68 78.4828C229.322 78.4828 224.644 77.8294 221.011 77.0977C220.593 77.0192 220.305 76.6272 220.358 76.2091L220.88 69.3618C221.403 62.436 228.198 57 236.352 57C244.506 57 251.38 62.436 251.955 69.3618L252.477 75.3466C252.503 75.7386 252.242 76.1307 251.85 76.2352C245.682 77.9078 239.854 78.4828 234.68 78.4828ZM222.056 75.608C228.904 76.9408 239.175 77.7772 250.726 74.7978L250.282 69.5186C249.759 63.4553 243.644 58.6726 236.326 58.6726C229.008 58.6726 222.971 63.4292 222.501 69.4924L222.056 75.608Z" fill="#3E3A39"/>
<path d="M221.17 76.2609L219.967 92.3076C219.288 101.298 227.024 102.788 236.589 102.788C246.154 102.788 253.838 101.298 253.08 92.3076L251.643 75.3984C239.333 78.7176 228.252 77.7244 221.196 76.2609" fill="white"/>
<path d="M236.588 103.625C230.865 103.625 224.566 103.155 221.325 99.679C219.653 97.8757 218.921 95.3668 219.156 92.2567L220.358 76.21C220.358 75.9747 220.489 75.7395 220.698 75.6089C220.907 75.4782 221.142 75.3998 221.378 75.452C228.33 76.8895 239.175 77.9087 251.459 74.6157C251.694 74.5635 251.955 74.6157 252.164 74.7464C252.374 74.8771 252.504 75.1123 252.504 75.3475L253.942 92.2567C254.203 95.3929 253.497 97.8757 251.851 99.679C248.662 103.155 242.364 103.625 236.614 103.625H236.588ZM221.927 77.2815L220.803 92.3874C220.594 95.0531 221.169 97.0655 222.528 98.5552C225.324 101.561 231.204 101.979 236.562 101.979C241.92 101.979 247.8 101.561 250.544 98.5552C251.903 97.0916 252.452 95.0793 252.217 92.3874L250.858 76.4713C239.202 79.4245 228.878 78.6144 221.9 77.2815H221.927Z" fill="#3E3A39"/>
<path d="M216.176 26.5001C210.426 26.5001 205.748 21.7958 205.748 16.0723C205.748 10.3488 210.452 5.64453 216.176 5.64453C221.899 5.64453 226.604 10.3488 226.604 16.0723C226.604 21.7958 221.899 26.5001 216.176 26.5001Z" fill="#3E3A39"/>
<path d="M257.731 23.7286C251.981 23.7286 247.303 19.0243 247.303 13.3008C247.303 7.57731 252.007 2.87305 257.731 2.87305C263.454 2.87305 268.158 7.57731 268.158 13.3008C268.158 19.0243 263.454 23.7286 257.731 23.7286Z" fill="#3E3A39"/>
<path d="M269.884 39.1777C269.884 55.329 254.961 68.3964 236.562 68.3964C218.163 68.3964 203.24 55.3028 203.24 39.1777C203.24 23.0525 218.163 9.95898 236.562 9.95898C254.961 9.95898 269.884 23.0525 269.884 39.1777Z" fill="white"/>
<path d="M236.562 69.2565C217.719 69.2565 202.404 55.7709 202.404 39.2015C202.404 22.632 217.719 9.14648 236.562 9.14648C255.406 9.14648 270.721 22.632 270.721 39.2015C270.721 55.7709 255.406 69.2565 236.562 69.2565ZM236.562 10.793C218.66 10.793 204.077 23.5206 204.077 39.2015C204.077 54.8824 218.66 67.5839 236.562 67.5839C254.465 67.5839 269.048 54.8562 269.048 39.2015C269.048 23.5468 254.465 10.793 236.562 10.793Z" fill="#3E3A39"/>
<path d="M228.382 36.0422C226.056 41.1385 220.542 43.6213 216.073 41.5828C211.604 39.5443 209.879 33.7423 212.205 28.6461C214.531 23.5498 220.045 21.067 224.514 23.1055C228.983 25.144 230.708 30.9459 228.382 36.0422Z" fill="#3E3A39"/>
<path d="M251.981 30.8676C251.981 32.2266 250.884 33.3504 249.498 33.3504C248.113 33.3504 247.016 32.2527 247.016 30.8676C247.016 29.4824 248.113 28.3848 249.498 28.3848C250.884 28.3848 251.981 29.4824 251.981 30.8676Z" fill="white"/>
<path d="M227.442 30.8687C227.442 33.3254 225.691 35.3116 223.522 35.3116C221.353 35.3116 219.602 33.3254 219.602 30.8687C219.602 28.412 221.353 26.4258 223.522 26.4258C225.691 26.4258 227.442 28.412 227.442 30.8687Z" fill="white"/>
<path d="M226.029 31.8319C226.029 32.9296 225.141 33.8182 224.043 33.8182C222.945 33.8182 222.057 32.9296 222.057 31.8319C222.057 30.7343 222.945 29.8457 224.043 29.8457C225.141 29.8457 226.029 30.7343 226.029 31.8319Z" fill="#3E3A39"/>
<path d="M242.024 36.0422C244.35 41.1385 249.865 43.6213 254.334 41.5828C258.803 39.5443 260.528 33.7423 258.202 28.6461C255.876 23.5498 250.361 21.067 245.892 23.1055C241.423 25.144 239.698 30.9459 242.05 36.0422" fill="#3E3A39"/>
<path d="M246.285 30.733C246.285 33.2419 248.088 35.2805 250.31 35.2805C252.531 35.2805 254.335 33.2419 254.335 30.733C254.335 28.2241 252.531 26.1855 250.31 26.1855C248.088 26.1855 246.285 28.2241 246.285 30.733Z" fill="white"/>
<path d="M248.584 31.703C248.584 32.8007 249.473 33.6893 250.57 33.6893C251.668 33.6893 252.556 32.8007 252.556 31.703C252.556 30.6054 251.668 29.7168 250.57 29.7168C249.473 29.7168 248.584 30.6054 248.584 31.703Z" fill="#3E3A39"/>
<path d="M237.998 38.1852C237.998 39.2567 236.587 40.1192 234.836 40.1192C233.085 40.1192 231.674 39.2567 231.674 38.1852C231.674 37.1137 233.085 36.2773 234.836 36.2773C236.587 36.2773 237.998 37.1398 237.998 38.1852Z" fill="#3E3A39"/>
<path d="M237.163 48.1424C236.954 48.1424 236.745 47.9856 236.693 47.7765L234.811 38.76C234.759 38.4987 234.915 38.2635 235.177 38.2112C235.438 38.1589 235.673 38.3157 235.726 38.5771L237.607 47.5936C237.659 47.8549 237.503 48.0901 237.241 48.1424C237.215 48.1424 237.163 48.1424 237.137 48.1424H237.163Z" fill="#3E3A39"/>
<path d="M235.047 49.0281C233.767 49.0281 232.878 48.7668 232.774 48.7406C232.512 48.6622 232.382 48.4009 232.46 48.1395C232.539 47.8782 232.8 47.7475 233.035 47.8259C233.218 47.8782 237.504 49.1065 240.536 45.6044C240.719 45.4215 241.006 45.3954 241.215 45.5522C241.424 45.7351 241.424 46.0226 241.268 46.2317C239.255 48.5315 236.798 49.002 235.047 49.002V49.0281Z" fill="#3E3A39"/>
<path d="M249.655 19.4683C249.394 19.4683 249.184 19.2592 249.184 19.024C249.184 18.8411 248.923 14.8686 245.891 14.8686C245.865 14.8686 245.813 14.8686 245.787 14.8686C244.898 14.8947 244.193 15.1822 243.722 15.731C242.755 16.7764 242.834 18.4752 242.834 18.5013C242.834 18.7627 242.651 18.9717 242.389 18.9979C242.154 18.9979 241.919 18.8149 241.893 18.5536C241.893 18.4752 241.788 16.4367 243.017 15.0777C243.696 14.3459 244.611 13.9539 245.761 13.9277C245.813 13.9277 245.865 13.9277 245.918 13.9277C249.054 13.9277 250.047 17.2207 250.151 18.9717C250.151 19.2331 249.968 19.4422 249.707 19.4683H249.655Z" fill="#3E3A39"/>
<path d="M227.963 20.3082C227.702 20.3082 227.493 20.0991 227.493 19.8639C227.493 19.6809 227.232 15.7084 224.2 15.7084C224.174 15.7084 224.122 15.7084 224.096 15.7084C223.207 15.7346 222.501 16.022 222.031 16.5709C221.064 17.6163 221.142 19.315 221.142 19.3412C221.142 19.6025 220.959 19.8116 220.698 19.8377C220.411 19.8377 220.228 19.6548 220.201 19.3934C220.201 19.315 220.097 17.2765 221.325 15.9175C222.005 15.1857 222.919 14.7937 224.069 14.7676C224.122 14.7676 224.174 14.7676 224.226 14.7676C227.362 14.7676 228.355 18.0606 228.46 19.8116C228.46 20.0729 228.277 20.282 228.016 20.3082H227.963Z" fill="#3E3A39"/>
<path d="M255.9 82.1159C249.628 79.5024 242.598 79.5024 236.352 82.1159V57.0265C242.624 54.413 249.654 54.413 255.9 57.0265V82.1159Z" fill="#E1AA00"/>
<path d="M255.901 82.9526C255.901 82.9526 255.692 82.9526 255.587 82.9003C249.498 80.3653 242.781 80.3653 236.666 82.9003C236.404 83.0049 236.117 82.9787 235.882 82.8219C235.646 82.6651 235.516 82.4038 235.516 82.1163V57.0269C235.516 56.6871 235.725 56.3735 236.038 56.269C242.546 53.551 249.733 53.551 256.241 56.269C256.554 56.3997 256.763 56.7133 256.763 57.0269V82.1163C256.763 82.4038 256.633 82.6651 256.397 82.8219C256.267 82.9265 256.11 82.9526 255.927 82.9526H255.901ZM237.188 57.5757V80.888C242.99 78.771 249.263 78.771 255.064 80.888V57.5757C249.289 55.302 242.964 55.302 237.188 57.5757Z" fill="#3E3A39"/>
<path d="M276.26 82.1159C269.987 79.5024 262.957 79.5024 256.711 82.1159V57.0265C262.983 54.413 270.014 54.413 276.26 57.0265V82.1159Z" fill="#E1AA00"/>
<path d="M256.711 82.9526C256.555 82.9526 256.398 82.9003 256.241 82.8219C256.006 82.6651 255.875 82.4038 255.875 82.1163V57.0269C255.875 56.6871 256.084 56.3735 256.398 56.269C262.905 53.551 270.092 53.551 276.6 56.269C276.914 56.3997 277.123 56.7133 277.123 57.0269V82.1163C277.123 82.4038 276.992 82.6651 276.757 82.8219C276.521 82.9787 276.234 83.0049 275.973 82.9003C269.857 80.3653 263.14 80.3653 257.051 82.9003C256.947 82.9526 256.842 82.9526 256.737 82.9526H256.711ZM266.486 79.3199C269.517 79.3199 272.523 79.8426 275.424 80.9141V57.6019C269.622 55.3281 263.323 55.3281 257.522 57.6019V80.9141C260.422 79.8687 263.454 79.3199 266.46 79.3199H266.486Z" fill="#3E3A39"/>
<path d="M255.169 85.0706C252.738 83.5025 252.033 80.2095 253.601 77.7789L253.967 77.204C255.535 74.7735 258.828 74.0678 261.258 75.6359C263.689 77.204 264.394 80.497 262.826 82.9275L262.46 83.5025C260.892 85.933 257.599 86.6386 255.169 85.0706Z" fill="#3E3A39"/>
<path d="M258.019 86.7402C256.843 86.7402 255.719 86.4004 254.726 85.7732C253.367 84.8846 252.426 83.5256 252.06 81.9314C251.694 80.3371 252.008 78.6906 252.896 77.3316L253.262 76.7567C254.151 75.3977 255.51 74.4568 257.104 74.1171C258.698 73.7773 260.345 74.0648 261.704 74.9534C264.526 76.7828 265.363 80.5723 263.533 83.421L263.167 83.996C262.279 85.355 260.92 86.2959 259.325 86.6618C258.881 86.7663 258.463 86.7924 258.019 86.7924V86.7402ZM258.411 75.6329C258.097 75.6329 257.784 75.659 257.47 75.7374C256.294 75.9988 255.301 76.6783 254.674 77.6714L254.308 78.2464C253.68 79.2395 253.445 80.4155 253.707 81.5916C253.968 82.7677 254.647 83.7608 255.64 84.388C256.634 85.0414 257.81 85.2505 258.986 84.9891C260.162 84.7278 261.155 84.0483 261.782 83.0552L262.148 82.4802C263.481 80.4155 262.88 77.6714 260.815 76.3385C260.083 75.8681 259.273 75.6329 258.411 75.6329Z" fill="#3E3A39"/>
<path d="M195.687 53.1558C195.373 53.1558 195.06 52.9729 194.929 52.6592L185.625 31.3594C185.442 30.9412 185.625 30.4447 186.069 30.2617C186.487 30.0788 186.984 30.2617 187.167 30.706L196.471 52.0059C196.654 52.424 196.471 52.9206 196.027 53.1035C195.922 53.1558 195.818 53.1819 195.687 53.1819V53.1558Z" fill="#3E3A39"/>
<path d="M133.931 102.839H37.6864C16.9092 102.839 0 85.9301 0 65.153V42.7555C0 21.9522 16.9092 5.04297 37.6864 5.04297L133.931 5.04297C155.779 5.04297 171.617 19.3387 171.617 39.0443C171.617 39.4102 171.329 39.6977 170.964 39.6977C170.598 39.6977 170.31 39.4102 170.31 39.0443C170.31 20.0966 154.995 6.34971 133.931 6.34971H37.6864C17.641 6.34971 1.30674 22.6839 1.30674 42.7293V65.1268C1.30674 85.1984 17.641 101.506 37.6864 101.506H133.931C154.002 101.506 170.31 85.1722 170.31 65.1268V50.8834C170.31 50.5175 170.598 50.23 170.964 50.23C171.329 50.23 171.617 50.5175 171.617 50.8834V65.1268C171.617 85.904 154.708 102.813 133.931 102.813V102.839Z" fill="#727171"/>
<path d="M178.253 45.7084C178.253 45.7084 178.152 45.7348 178.102 45.748L164.678 45.9603C164.329 45.9704 164.009 45.6759 164.025 45.3207C164.014 44.9722 164.284 44.6587 164.664 44.6673L178.088 44.455C178.436 44.445 178.756 44.7395 178.741 45.0946C178.738 45.3926 178.538 45.661 178.26 45.7336L178.253 45.7084Z" fill="#727171"/>
<path d="M21.4585 26.7638H23.4709V25.4309C23.4709 24.8298 23.7584 24.5162 24.3334 24.5162C24.9083 24.5162 25.1435 24.8298 25.1435 25.4309V26.7638H27.182V25.3003C27.2343 24.8037 27.5218 24.5423 28.0706 24.5423C28.6195 24.5423 28.8808 24.8037 28.8808 25.3003L28.7763 29.9261C28.7501 31.3113 28.0445 31.9908 26.7116 31.9908H21.929C20.5699 31.9908 19.8643 31.3113 19.8382 29.9261L19.7598 25.3003C19.7598 24.8037 20.0211 24.5423 20.5961 24.5423C21.1188 24.5423 21.3801 24.8037 21.4063 25.3003V26.7638H21.4585ZM23.4709 28.2274H21.4847V29.6909C21.5108 30.3443 21.7983 30.684 22.3471 30.684H23.497V28.2274H23.4709ZM21.7721 34.1338C21.7721 33.6634 22.0596 33.4282 22.6346 33.4282H31.7295C32.7488 33.4282 33.193 33.8463 33.0885 34.7088L32.9056 36.5644C32.801 37.4529 32.2783 37.8711 31.4159 37.8711H23.8368L24.072 39.4914H31.5727C32.1738 39.4914 32.4613 39.7267 32.4613 40.1971C32.4613 40.6675 32.1738 40.9027 31.5988 40.9027H23.8368C23.0005 40.9027 22.5039 40.4846 22.3994 39.6221L22.1642 37.7404C22.0596 36.9041 22.5039 36.4859 23.5493 36.4859H31.2329L31.3897 34.8656H22.6346C22.0335 34.8656 21.746 34.6304 21.746 34.1338H21.7721ZM27.1559 28.2274H25.1435V30.684H26.2935C26.8162 30.684 27.1036 30.3443 27.1036 29.6909V28.2274H27.1559ZM31.2852 31.4681C31.4943 29.3511 31.4943 27.2081 31.2852 25.065C31.2591 24.5685 31.4943 24.3071 32.0431 24.2549C32.5919 24.2287 32.8794 24.4378 32.9056 24.9344C32.984 25.8752 33.0362 26.7899 33.0624 27.7308H35.5974C36.1463 27.7308 36.4076 27.966 36.4076 28.4626C36.4076 28.9591 36.1463 29.1943 35.5974 29.1943H33.0362C33.0362 30.0045 32.984 30.8147 32.9056 31.5987C32.8794 32.1214 32.5658 32.3305 32.0431 32.2782C31.4943 32.226 31.2329 31.9646 31.2852 31.4681ZM37.4007 25.64C37.4007 25.1696 37.6882 24.9082 38.2632 24.9082H45.1105C45.6855 24.9082 45.973 25.1434 45.973 25.64V26.6854C45.973 31.1283 43.3595 33.402 38.1587 33.5066C37.6882 33.5066 37.4269 33.2975 37.4269 32.8009C37.4269 32.3305 37.636 32.0692 38.1064 32.043C42.2357 31.9646 44.3003 30.1875 44.3003 26.7115V26.3456H38.2632C37.6882 26.3456 37.4007 26.1104 37.4007 25.6139V25.64ZM39.6222 36.4859C39.5438 35.8587 39.7529 35.4667 40.2233 35.3099C40.8505 35.1008 41.1903 35.3099 41.2426 35.9371L41.5562 38.3677C41.6084 39.021 41.9482 39.3346 42.497 39.3608C44.8492 39.4914 47.1752 39.4914 49.5011 39.3608C49.9977 39.3608 50.2329 39.5437 50.2329 39.9619C50.2329 40.4846 49.9977 40.7721 49.5011 40.7982C47.149 40.9289 44.5617 40.9289 41.713 40.7982C40.6937 40.7459 40.1188 40.2232 39.9881 39.2562L39.5961 36.4598L39.6222 36.4859ZM48.7432 35.2837C49.0046 31.8862 49.0046 28.4626 48.7432 25.0389C48.7171 24.5423 48.9523 24.281 49.5011 24.2287C50.05 24.2026 50.3375 24.4117 50.3636 24.9082C50.4681 26.0843 50.5204 27.2604 50.5465 28.4626H53.0555C53.6043 28.4626 53.8657 28.6978 53.8657 29.1943C53.8657 29.6909 53.6043 29.9522 53.0555 29.9522H50.5727C50.5727 31.7817 50.4943 33.585 50.3636 35.4144C50.3375 35.911 50.0238 36.1462 49.5011 36.0939C48.9523 36.0678 48.691 35.7803 48.7432 35.2837ZM55.094 31.076C57.1848 29.8216 58.204 27.966 58.204 25.5616C58.204 24.9344 58.4915 24.6208 59.0665 24.6208C59.6414 24.6208 59.8767 24.9344 59.8767 25.5093C59.8767 26.4241 59.7721 27.2865 59.5369 28.0705C61.105 28.9069 62.1242 30.1875 62.5685 31.9124C62.6731 32.4089 62.4901 32.7225 61.9674 32.8532C61.4447 33.01 61.1311 32.8532 61.0266 32.3566C60.6346 31.0238 59.9551 30.0829 58.9619 29.508C58.2824 30.7363 57.2632 31.7294 55.878 32.4873C55.3815 32.7487 54.9895 32.618 54.7281 32.1214C54.4929 31.6771 54.5974 31.3113 55.094 31.076ZM57.6291 35.6758C57.6291 35.2053 57.9165 34.944 58.4915 34.944H68.5795C69.1545 34.944 69.442 35.1792 69.442 35.6758V36.7212C69.442 38.237 69.1284 39.5437 68.5011 40.6414C68.2659 41.0857 67.9 41.1902 67.4296 40.9027C66.9331 40.6152 66.8024 40.2494 67.0637 39.8051C67.508 38.9688 67.7432 37.9495 67.7432 36.7473V36.4075H58.4654C57.8904 36.4075 57.6029 36.1723 57.6029 35.6496L57.6291 35.6758ZM66.0445 25.1173C66.1229 26.1366 66.1751 27.1297 66.1751 28.1228H68.2921C68.2921 27.182 68.2398 26.1888 68.1875 25.2219C68.1352 24.6208 68.3966 24.3071 68.9193 24.2549C69.4681 24.2287 69.7556 24.4378 69.7817 24.9344C69.9908 27.5478 69.9908 30.1352 69.7817 32.7225C69.7817 33.2191 69.4681 33.4543 68.9193 33.402C68.3705 33.3498 68.1352 33.0362 68.1875 32.4351C68.2398 31.4942 68.2921 30.5272 68.2921 29.5602H66.1751C66.1751 30.5533 66.0967 31.5465 66.0445 32.5396C66.0183 33.0362 65.7047 33.2714 65.182 33.2191C64.6332 33.193 64.3718 32.9055 64.4241 32.3828C64.6071 30.0045 64.6071 27.6263 64.4241 25.2219C64.398 24.7253 64.6332 24.4639 65.182 24.4117C65.7309 24.3594 66.0183 24.5946 66.0445 25.0912V25.1173ZM71.5328 37.662C71.5328 37.1916 71.7941 36.9564 72.2384 36.9825C76.7859 37.2961 81.3072 37.2961 85.8285 36.9825C86.2728 36.9825 86.508 37.1916 86.5341 37.662C86.5341 38.1324 86.3512 38.3938 85.8808 38.4199C81.3072 38.7335 76.7597 38.7335 72.16 38.4199C71.7157 38.4199 71.4805 38.1324 71.5066 37.662H71.5328ZM85.0445 29.1682C85.0445 32.0692 83.0321 33.5589 79.0335 33.6111C75.0087 33.6895 72.9963 32.2521 72.9963 29.3511C72.9963 26.4502 75.0087 24.9866 79.0335 24.9082C83.0321 24.856 85.0445 26.2672 85.0445 29.1421V29.1682ZM79.0596 32.226C81.9605 32.1737 83.398 31.1544 83.398 29.1682C83.398 27.182 81.9605 26.2672 79.0596 26.3195C76.1586 26.3979 74.6951 27.391 74.6951 29.3511C74.6951 31.3113 76.1586 32.2782 79.0596 32.226ZM91.2645 30.4227V32.1737C91.2645 32.5657 91.4213 32.7487 91.6566 32.7487H99.7845C100.412 32.7487 100.725 32.9839 100.725 33.4543C100.725 33.9509 100.438 34.2122 99.8367 34.2122H96.0211V37.2439C98.0073 37.2439 99.9936 37.1654 101.98 37.0086C102.424 37.0086 102.659 37.2177 102.685 37.6881C102.685 38.1586 102.502 38.4199 102.032 38.4461C97.4585 38.7597 92.911 38.7597 88.3113 38.4461C87.867 38.4461 87.6318 38.1586 87.6579 37.6881C87.6579 37.2177 87.9193 36.9825 88.3636 37.0086C90.3498 37.1654 92.3361 37.2439 94.3223 37.2439V34.2122H91.0032C90.0623 34.2122 89.5919 33.7679 89.5658 32.8793L89.5135 30.2136C89.5135 29.4034 89.9317 28.9853 90.7941 28.9853H98.7129C98.9743 28.9853 99.105 28.8023 99.105 28.4103V26.7115H90.3237C89.6964 26.7115 89.3828 26.4763 89.3828 25.9798C89.3828 25.4832 89.618 25.248 90.1146 25.248H99.497C100.359 25.248 100.778 25.6661 100.778 26.4763V29.1159C100.725 30.0045 100.229 30.4488 99.2618 30.4488H91.1861L91.2645 30.4227ZM119.359 26.6593L119.176 32.1476H120.666C121.215 32.1476 121.476 32.3828 121.476 32.8532C121.476 33.3498 121.215 33.6111 120.666 33.6111H118.994V37.1655C120.117 37.1393 121.241 37.0609 122.365 36.9825C122.809 36.9825 123.044 37.1916 123.071 37.662C123.071 38.1324 122.888 38.3938 122.417 38.4199C117.844 38.7335 113.296 38.7335 108.696 38.4199C108.252 38.4199 108.017 38.1324 108.043 37.662C108.043 37.1916 108.304 36.9564 108.749 36.9825C109.872 37.0609 110.996 37.1132 112.12 37.1655V33.6111H110.421C109.872 33.6111 109.611 33.3759 109.611 32.8532C109.611 32.3828 109.872 32.1476 110.421 32.1476H111.911L111.728 26.6593H110.238C109.69 26.6593 109.428 26.3979 109.428 25.9014C109.428 25.4309 109.69 25.1957 110.238 25.1957H120.823C121.372 25.1957 121.633 25.4309 121.633 25.9014C121.633 26.4241 121.372 26.6593 120.823 26.6593H119.307H119.359ZM117.504 32.1476L117.687 26.6593H113.453L113.636 32.1476H117.504ZM117.347 33.6111H113.819V37.1916C114.995 37.2177 116.171 37.2177 117.347 37.1916V33.6111ZM124.952 36.2769C127.461 34.7349 128.69 31.4158 128.69 26.3456C128.69 25.7184 128.977 25.3787 129.552 25.3787C130.127 25.3787 130.362 25.6923 130.362 26.2934C130.362 28.2012 130.205 29.9261 129.866 31.4158C131.695 32.5919 132.923 34.4474 133.603 37.0348C133.734 37.5313 133.551 37.845 133.054 37.9756C132.557 38.1324 132.244 37.9756 132.113 37.4529C131.59 35.5712 130.676 34.1077 129.395 33.1146C128.637 35.1792 127.461 36.6689 125.867 37.6097C125.37 37.9234 124.978 37.845 124.665 37.3484C124.377 36.9041 124.482 36.5121 124.926 36.2507L124.952 36.2769ZM136.53 38.3415C136.87 33.8986 136.87 29.4818 136.53 25.0389C136.504 24.5423 136.739 24.281 137.288 24.2287C137.837 24.2026 138.124 24.4117 138.15 24.9082C138.516 29.4034 138.516 33.9247 138.15 38.4461C138.15 38.9426 137.837 39.1778 137.288 39.1256C136.739 39.0733 136.478 38.8119 136.53 38.3154V38.3415ZM148.055 24.4378C148.657 24.4378 148.944 24.673 148.944 25.1434C148.944 25.64 148.63 25.9014 148.003 25.9014H142.802C142.436 25.9014 142.28 26.1627 142.306 26.7115L142.384 28.2535C142.384 28.7762 142.646 29.0637 143.142 29.0898C145.337 29.2466 147.115 29.1682 148.474 28.9069C148.944 28.8285 149.205 29.0114 149.284 29.4818C149.362 29.9523 149.153 30.2136 148.683 30.3181C147.846 30.5011 146.958 30.6056 145.991 30.6318V32.6964C147.298 32.6964 148.578 32.6441 149.806 32.5657C150.251 32.5657 150.486 32.7748 150.512 33.2714C150.512 33.7418 150.329 34.0031 149.859 34.0293C146.958 34.1861 143.952 34.1861 140.816 34.0293C140.372 34.0293 140.137 33.7679 140.163 33.2714C140.163 32.7748 140.424 32.5396 140.868 32.5657C142.018 32.6441 143.168 32.6703 144.318 32.6964V30.684C143.769 30.684 143.194 30.6318 142.619 30.5795C141.417 30.5011 140.816 29.9522 140.764 28.9591L140.607 25.6923C140.581 24.9082 140.999 24.4901 141.888 24.4901H148.055V24.4378ZM143.247 36.8518C143.168 36.2246 143.351 35.8326 143.822 35.6758C144.423 35.4928 144.762 35.7019 144.841 36.3291L145.076 38.3677C145.128 39.021 145.468 39.3346 146.017 39.3608C148.369 39.4914 150.721 39.4914 153.021 39.3608C153.518 39.3608 153.753 39.5437 153.753 39.9619C153.753 40.4846 153.518 40.7721 153.021 40.7982C150.669 40.9289 148.082 40.9289 145.233 40.7982C144.214 40.7459 143.639 40.2232 143.508 39.2562L143.194 36.8518H143.247ZM152.106 35.2837C152.368 31.8862 152.368 28.4626 152.106 25.0389C152.08 24.5423 152.315 24.281 152.864 24.2287C153.413 24.2026 153.701 24.4117 153.727 24.9082C154.014 28.3842 154.014 31.8862 153.727 35.3883C153.727 35.8848 153.413 36.1201 152.864 36.0678C152.315 36.0417 152.054 35.7542 152.106 35.2576V35.2837Z" fill="#231815"/>
<path d="M28 62H26.2545V59.6989C25.6 60.4943 24.9909 61.053 24.4273 61.375C23.7545 61.7538 22.9636 61.9432 22.0545 61.9432C19.4909 61.9432 17.7455 60.8447 16.8182 58.6477C16.2727 57.3598 16 55.9773 16 54.5C16 52.4356 16.4545 50.7216 17.3636 49.358C18.4 47.786 19.8636 47 21.7545 47C22.8455 47 23.8273 47.2936 24.7 47.8807C25.3182 48.2973 25.7182 48.714 25.9 49.1307L25.9545 47.3977H28V62ZM25.7091 54.6989C25.7091 53.2216 25.4455 52.0095 24.9182 51.0625C24.2818 49.9072 23.3 49.3295 21.9727 49.3295C19.4273 49.3295 18.1545 51.0341 18.1545 54.4432C18.1545 58.0227 19.5 59.8125 22.1909 59.8125C23.3 59.8125 24.1636 59.2822 24.7818 58.2216C25.2182 57.483 25.4909 56.8674 25.6 56.375C25.6727 56.053 25.7091 55.4943 25.7091 54.6989Z" fill="#D2476E"/>
<path d="M35.2004 57.1065C32.8744 56.8974 31.6983 55.4861 31.6983 52.8726C31.6983 49.9978 33.1357 48.5081 36.0367 48.4297C38.9376 48.3775 40.4012 49.7887 40.4012 52.6636C40.4012 55.277 39.2251 56.7406 36.873 57.0542V60.6085C38.0229 60.6085 39.1729 60.5563 40.3228 60.4779C40.7671 60.4779 41.0023 60.6869 41.0284 61.1574C41.0284 61.6278 40.8455 61.8891 40.3751 61.9153C37.4741 62.0982 34.5731 62.0982 31.6983 61.9153C31.254 61.9153 31.0188 61.6278 31.0449 61.1574C31.0449 60.6869 31.3063 60.4517 31.7506 60.4779C32.9005 60.5563 34.0504 60.6085 35.2004 60.6085V57.1065ZM36.0367 55.7475C37.8138 55.6952 38.7286 54.6759 38.7286 52.6897C38.7286 50.7034 37.84 49.7887 36.0367 49.841C34.2595 49.9194 33.3709 50.9125 33.3709 52.8726C33.3709 54.8327 34.2595 55.7997 36.0367 55.7475ZM42.5965 61.863C42.9363 57.4201 42.9363 53.0033 42.5965 48.5604C42.5704 48.0638 42.8056 47.8025 43.3544 47.7502C43.9033 47.7241 44.1907 47.9332 44.2169 48.4297C44.3737 50.4421 44.4521 52.4545 44.4782 54.4407H46.9088C47.4576 54.4407 47.7189 54.6759 47.7189 55.1725C47.7189 55.6691 47.4576 55.9043 46.9088 55.9043H44.4782C44.4782 57.9428 44.3737 59.9813 44.2169 61.9937C44.1907 62.4902 43.8771 62.7254 43.3544 62.6732C42.8056 62.6209 42.5442 62.3596 42.5965 61.863Z" fill="#231815"/>
<path fill-rule="evenodd" clip-rule="evenodd" d="M59.8552 47.3047C57.8645 47.3047 56.1743 48.0669 54.8244 49.556C53.4743 51.0453 52.8164 52.8866 52.8164 55.0618C52.8164 57.3641 53.5764 59.2579 55.0542 60.7227C56.4302 62.111 58.0932 62.7945 60.0766 62.7945C61.2051 62.7945 62.3518 62.4893 63.4894 61.8881L63.4903 61.8876C63.819 61.7122 64.1457 61.5128 64.5189 61.2663C64.8952 61.0177 65.2945 60.7209 65.7128 60.4039C65.7751 60.3566 65.8118 60.2829 65.8118 60.2046V57.8648C65.8118 57.7638 65.7511 57.6728 65.658 57.634C65.5648 57.5952 65.4575 57.6161 65.3858 57.6872C64.9958 58.0736 64.6298 58.4122 64.3108 58.704C64.0011 58.9873 63.6917 59.223 63.407 59.4111L63.4069 59.4109L63.3995 59.4162C62.3802 60.1444 61.3234 60.4908 60.2242 60.4908C58.7686 60.4908 57.6085 59.9595 56.7231 58.9436C55.8796 57.9758 55.4218 56.5436 55.385 54.6537H65.7829C65.921 54.6537 66.0329 54.5418 66.0329 54.4037C66.0329 52.4081 65.5283 50.816 64.5048 49.4975L64.5045 49.4972C63.3724 48.0438 61.8467 47.3047 59.8552 47.3047ZM57.1473 50.3704C57.8606 49.7091 58.7088 49.389 59.7322 49.389C60.6621 49.389 61.4375 49.6636 62.0755 50.228C62.6578 50.7432 63.0809 51.4945 63.2939 52.5207H55.7363C56.084 51.6288 56.5441 50.9063 57.1434 50.3739L57.1434 50.374L57.1473 50.3704Z" fill="#D2476E"/>
<path d="M71.8987 61.7323C69.2853 61.8369 67.9785 59.7199 67.9785 55.3554C67.9785 50.9909 69.2853 48.8217 71.8987 48.7172C74.4077 48.6127 75.6883 50.5466 75.7928 54.493H78.0927C78.0927 52.6636 77.9881 50.8341 77.8313 48.9524C77.8052 48.4559 78.0404 48.1945 78.5892 48.1422C79.1381 48.09 79.4256 48.3252 79.4517 48.8217C79.7914 53.0817 79.7914 57.3417 79.4517 61.6278C79.4256 62.1243 79.1119 62.3596 78.5892 62.3073C78.0404 62.2812 77.7791 61.9937 77.8313 61.4971C77.9881 59.6415 78.0665 57.786 78.0927 55.9565H75.7928C75.6099 59.7199 74.3031 61.6539 71.8987 61.7323ZM71.8987 50.1546C70.4091 50.2069 69.6511 51.9318 69.6511 55.3032C69.6511 58.6746 70.4091 60.3994 71.8987 60.321C73.3884 60.2688 74.1463 58.5177 74.1463 55.1202C74.1463 51.7227 73.3884 50.1023 71.8987 50.1546ZM81.3857 61.863C81.7254 57.4201 81.7254 53.0033 81.3857 48.5604C81.3595 48.0638 81.5947 47.8025 82.1436 47.7502C82.6924 47.7241 82.9799 47.9332 83.006 48.4297C83.3719 52.9249 83.3719 57.4462 83.006 61.9675C83.006 62.4641 82.6924 62.6993 82.1436 62.647C81.5947 62.5948 81.3334 62.3334 81.3857 61.8369V61.863ZM89.0432 58.4916C89.0432 58.0212 89.3045 57.786 89.7488 57.8121C94.2962 58.1257 98.8176 58.1257 103.339 57.8121C103.783 57.8121 104.018 58.0212 104.045 58.4916C104.045 58.962 103.862 59.2234 103.391 59.2495C101.379 59.4063 99.3925 59.4847 97.3802 59.4847V62.8823C97.3802 63.5095 97.0927 63.8492 96.5438 63.8492C95.995 63.8492 95.7075 63.5356 95.7075 62.8823V59.4847C93.6951 59.4847 91.6828 59.4063 89.6704 59.2495C89.2261 59.2495 88.9909 58.962 89.017 58.4916H89.0432ZM91.0817 49.2399C91.0817 48.7695 91.3692 48.5343 91.9441 48.5343H99.4448C101.144 48.5343 101.719 49.449 101.144 51.2523C100.882 52.0625 100.49 52.7681 99.9414 53.3431C100.647 53.6044 101.3 53.9964 101.901 54.4669C102.32 54.8589 102.45 55.2509 102.241 55.6429C101.98 56.2179 101.666 56.2963 101.3 55.9043C100.621 55.277 99.7323 54.7805 98.6085 54.4146C96.9097 55.46 94.4792 55.9565 91.3169 55.9565C90.7419 55.9565 90.4544 55.7213 90.4544 55.2509C90.4544 54.7805 90.7419 54.5453 91.3169 54.5453C95.995 54.5453 98.7392 53.2908 99.5232 50.7819C99.68 50.2069 99.5755 49.9194 99.2096 49.9194H91.9441C91.343 49.9194 91.0555 49.6842 91.0555 49.2138L91.0817 49.2399ZM105.56 61.1835C105.56 60.7131 105.822 60.4779 106.266 60.504C109.245 60.6869 112.225 60.6869 115.204 60.504C115.648 60.504 115.884 60.7131 115.91 61.1835C115.91 61.6539 115.727 61.9153 115.256 61.9414C112.251 62.1243 109.219 62.1243 106.214 61.9414C105.769 61.9414 105.534 61.6539 105.56 61.1835ZM114.89 52.6897C114.89 55.5906 113.427 57.0803 110.526 57.1326C107.625 57.211 106.188 55.7736 106.188 52.8726C106.188 49.9717 107.625 48.5081 110.526 48.4297C113.427 48.3775 114.89 49.7887 114.89 52.6636V52.6897ZM110.552 55.7475C112.329 55.6952 113.244 54.6759 113.244 52.6897C113.244 50.7034 112.355 49.7887 110.552 49.841C108.775 49.9194 107.886 50.9125 107.886 52.8726C107.886 54.8327 108.775 55.7997 110.552 55.7475ZM117.478 61.863C117.818 57.4201 117.818 53.0033 117.478 48.5604C117.452 48.0638 117.687 47.8025 118.236 47.7502C118.785 47.7241 119.072 47.9332 119.098 48.4297C119.464 52.9249 119.464 57.4462 119.098 61.9675C119.098 62.4641 118.785 62.6993 118.236 62.647C117.687 62.5948 117.426 62.3334 117.478 61.8369V61.863ZM121.189 51.3568C121.189 50.8864 121.476 50.625 122.025 50.625H124.796V48.6127C124.796 48.0377 125.083 47.7502 125.632 47.7502C126.181 47.7502 126.468 48.0377 126.468 48.6127V50.625H129.212C129.787 50.625 130.075 50.8603 130.075 51.3568C130.075 51.8534 129.787 52.0886 129.212 52.0886H121.999C121.45 52.0886 121.163 51.8534 121.163 51.3568H121.189ZM125.658 61.7323C123.045 61.8369 121.738 60.5563 121.738 57.8644C121.738 55.1725 123.045 53.8135 125.658 53.7089C128.245 53.5783 129.552 54.885 129.552 57.5769C129.552 60.2688 128.245 61.6539 125.658 61.7585V61.7323ZM125.658 55.1202C124.168 55.1986 123.41 56.0872 123.41 57.8121C123.41 59.537 124.168 60.3995 125.658 60.3472C127.148 60.2949 127.879 59.3802 127.879 57.6292C127.879 55.8781 127.148 55.0941 125.658 55.1464V55.1202ZM132.688 61.863C133.028 57.4201 133.028 53.0033 132.688 48.5604C132.662 48.0638 132.897 47.8025 133.446 47.7502C133.995 47.7241 134.282 47.9332 134.309 48.4297C134.465 50.4421 134.544 52.4545 134.57 54.4407H137C137.549 54.4407 137.811 54.6759 137.811 55.1725C137.811 55.6691 137.549 55.9043 137 55.9043H134.57C134.57 57.9428 134.465 59.9813 134.309 61.9937C134.282 62.4902 133.969 62.7254 133.446 62.6732C132.897 62.6209 132.636 62.3596 132.688 61.863ZM142.985 61.7323C140.111 61.8369 138.699 59.7199 138.699 55.3554C138.699 50.9909 140.137 48.8217 142.985 48.7172C145.102 48.6388 146.435 49.7887 146.984 52.1931H150.721C150.669 50.9909 150.617 49.7887 150.538 48.5865C150.512 48.09 150.747 47.8286 151.296 47.7764C151.845 47.7502 152.133 47.9593 152.159 48.4559C152.525 52.951 152.525 57.4724 152.159 61.9937C152.159 62.4902 151.845 62.7254 151.296 62.6732C150.747 62.6209 150.486 62.3596 150.538 61.863C150.617 60.6347 150.695 59.4325 150.721 58.2303H146.906C146.331 60.504 145.024 61.6539 142.985 61.7062V61.7323ZM142.985 50.1546C141.234 50.2069 140.372 51.9318 140.372 55.3032C140.372 58.6746 141.234 60.3994 142.985 60.321C144.71 60.2688 145.599 58.5177 145.599 55.1202C145.599 51.7227 144.736 50.1023 142.985 50.1546ZM147.219 53.6305C147.245 54.0748 147.271 54.5453 147.271 55.0418C147.271 55.6691 147.245 56.244 147.167 56.7667H150.747C150.747 55.7213 150.747 54.6759 150.747 53.6305H147.219Z" fill="#231815"/>
<path d="M45.8433 73.803H50.835V72.3395C50.8873 71.8168 51.1748 71.5816 51.7236 71.5816C52.2725 71.5816 52.5338 71.8429 52.5338 72.3395L52.4554 76.9654C52.4293 78.3505 51.7236 79.0561 50.3646 79.0561H46.3137C44.9547 79.0561 44.2752 78.3766 44.2491 76.9654L44.1445 72.3395C44.1445 71.8168 44.4059 71.5816 45.007 71.5816C45.5297 71.5816 45.791 71.8429 45.8172 72.3395V73.803H45.8433ZM45.791 81.173C45.791 80.7026 46.0785 80.4674 46.6535 80.4674H55.7484C56.7676 80.4674 57.2119 80.8856 57.1074 81.748L56.9244 83.6036C56.8199 84.4922 56.2972 84.9103 55.4348 84.9103H47.8557L48.0909 86.5045H55.5916C56.1927 86.5045 56.4802 86.7398 56.4802 87.2102C56.4802 87.6806 56.1927 87.9158 55.6177 87.9158H47.8557C47.0194 87.9158 46.5228 87.4715 46.4183 86.6091L46.183 84.7274C46.0785 83.8911 46.5228 83.4729 47.5682 83.4729H55.2518L55.4086 81.8526H46.6535C46.0524 81.8526 45.7649 81.6173 45.7649 81.1208L45.791 81.173ZM50.835 75.2666H45.8956V76.704C45.9217 77.3835 46.2092 77.6971 46.758 77.6971H49.9726C50.5214 77.6971 50.8089 77.3574 50.8089 76.704V75.2666H50.835ZM55.3302 78.5073C55.5393 76.3904 55.5393 74.2473 55.3302 72.1043C55.3041 71.6077 55.5393 71.3464 56.0881 71.2941C56.637 71.268 56.9244 71.477 56.9506 71.9736C57.029 72.9145 57.0812 73.8292 57.1074 74.77H59.6425C60.1913 74.77 60.4526 75.0052 60.4526 75.5018C60.4526 75.9984 60.1913 76.2336 59.6425 76.2336H57.0812C57.0812 77.0438 57.029 77.8539 56.9506 78.638C56.9244 79.1345 56.6108 79.3698 56.0881 79.3175C55.5393 79.2913 55.2779 79.0039 55.3302 78.5073ZM60.8447 79.4743C60.8447 79.0039 61.106 78.7686 61.5503 78.7948C66.0978 79.1084 70.6191 79.1084 75.1404 78.7948C75.5847 78.7948 75.8199 79.0039 75.846 79.4743C75.846 79.9708 75.6631 80.2061 75.1927 80.2322C70.6191 80.5458 66.0716 80.5458 61.4719 80.2322C61.0276 80.2322 60.7924 79.9447 60.8185 79.4743H60.8447ZM74.3825 74.0905C74.3825 76.0768 72.3701 77.1222 68.3715 77.1744C64.3467 77.2528 62.3343 76.2597 62.3343 74.2735C62.3343 72.2872 64.3467 71.2418 68.3715 71.1896C72.3701 71.1373 74.3825 72.0781 74.3825 74.0905ZM65.2876 87.942C63.8502 87.942 63.04 87.2363 62.857 85.8512L62.5696 83.7081C62.4389 82.715 62.9877 82.1923 64.2422 82.1923H72.4746C73.7291 82.1923 74.2779 82.6889 74.1473 83.7081L73.8859 85.8512C73.703 87.2363 72.8667 87.942 71.4292 87.942H65.2876ZM68.3715 75.8154C71.2724 75.7632 72.7099 75.1882 72.7099 74.1167C72.7099 73.0451 71.2724 72.5486 68.3715 72.6008C65.4705 72.6792 64.007 73.2281 64.007 74.2996C64.007 75.3711 65.4705 75.8677 68.3715 75.8154ZM64.8694 83.6559C64.4513 83.6559 64.2683 83.9172 64.3467 84.4399L64.4513 85.5114C64.5297 86.1648 64.791 86.5045 65.2614 86.5045H71.4292C71.8997 86.5045 72.161 86.1909 72.2394 85.5114L72.344 84.4399C72.3962 83.9172 72.2394 83.6559 71.8213 83.6559H64.8433H64.8694ZM77.4141 74.8746C77.4141 74.4041 77.7016 74.1428 78.2504 74.1428H81.0207V72.1304C81.0207 71.5555 81.3082 71.268 81.857 71.268C82.4059 71.268 82.6933 71.5555 82.6933 72.1304V74.1428H85.4375C86.0125 74.1428 86.2999 74.378 86.2999 74.8746C86.2999 75.3711 86.0125 75.6063 85.4375 75.6063H78.2243C77.6755 75.6063 77.388 75.3711 77.388 74.8746H77.4141ZM81.8832 85.2501C79.2697 85.3546 77.9629 84.074 77.9629 81.356C77.9629 78.638 79.2697 77.3051 81.8832 77.2006C84.4705 77.096 85.7772 78.3766 85.7772 81.0685C85.7772 83.7604 84.4705 85.1455 81.8832 85.2501ZM81.8832 78.638C80.3935 78.7164 79.6356 79.605 79.6356 81.3299C79.6356 83.0548 80.3935 83.9172 81.8832 83.8649C83.3728 83.8127 84.1046 82.898 84.1046 81.1469C84.1046 79.3959 83.3728 78.6118 81.8832 78.6641V78.638ZM88.9134 85.3808C89.2532 80.964 89.2532 76.5211 88.9134 72.0781C88.8873 71.5816 89.1225 71.3202 89.6713 71.268C90.2202 71.2418 90.5076 71.4509 90.5338 71.9475C90.6906 73.9599 90.769 75.9722 90.7951 77.9585H93.2257C93.7745 77.9585 94.0358 78.1937 94.0358 78.6902C94.0358 79.1868 93.7745 79.422 93.2257 79.422H90.7951C90.7951 81.4605 90.6906 83.499 90.5338 85.5114C90.5076 86.008 90.194 86.2432 89.6713 86.1648C89.1225 86.1387 88.8611 85.8512 88.9134 85.3546V85.3808ZM95.1858 83.3161C97.3027 81.9832 98.3742 78.6902 98.3742 73.411C98.3742 72.7838 98.6617 72.444 99.2367 72.444C99.8116 72.444 100.047 72.7576 100.047 73.3849C100.047 75.3711 99.9162 77.096 99.6287 78.5857C101.066 79.7356 102.085 81.5651 102.739 84.1001C102.843 84.5967 102.66 84.9103 102.164 85.041C101.667 85.1978 101.354 85.041 101.223 84.5444C100.726 82.715 100.021 81.3299 99.1583 80.3629C98.5049 82.4275 97.4856 83.8911 96.1005 84.7012C95.6039 85.0149 95.2119 84.9365 94.8983 84.4399C94.6108 83.9956 94.7153 83.6036 95.1596 83.3422L95.1858 83.3161ZM105.039 78.0107C105.039 76.1813 104.934 74.3519 104.777 72.4702C104.751 71.9736 104.986 71.7123 105.535 71.66C106.084 71.6077 106.371 71.8429 106.398 72.3134C106.737 76.5733 106.737 80.8333 106.398 85.1194C106.371 85.616 106.058 85.8512 105.535 85.7728C104.986 85.7466 104.725 85.4592 104.777 84.9626C104.934 83.107 105.012 81.2515 105.039 79.422H103.34C102.817 79.422 102.53 79.1868 102.53 78.6902C102.53 78.1937 102.791 77.9585 103.34 77.9585H105.039V78.0107ZM108.332 85.3808C108.671 80.964 108.671 76.5211 108.332 72.0781C108.305 71.5816 108.541 71.3202 109.089 71.268C109.638 71.2418 109.926 71.4509 109.952 71.9475C110.318 76.4688 110.318 80.964 109.952 85.4853C109.952 85.9819 109.638 86.2171 109.089 86.1387C108.541 86.1125 108.279 85.825 108.332 85.3285V85.3808ZM115.78 80.4674C115.78 80.4674 115.78 80.2583 115.78 80.1799C114.055 79.5788 113.166 78.2982 113.166 76.3643C113.166 73.4894 115.179 71.9997 119.204 71.9475C123.202 71.8952 125.215 73.3065 125.215 76.1813C125.215 78.1153 124.352 79.3959 122.601 80.0754C122.601 80.1799 122.627 80.3106 122.627 80.4413V84.1524C123.751 84.1263 124.875 84.0479 125.999 83.9695C126.443 83.9695 126.678 84.1785 126.704 84.649C126.704 85.1194 126.521 85.3808 126.051 85.4069C121.477 85.7205 116.93 85.7205 112.33 85.4069C111.886 85.4069 111.651 85.1194 111.677 84.649C111.677 84.1785 111.938 83.9433 112.382 83.9695C113.506 84.0479 114.63 84.1001 115.754 84.1524V80.4413L115.78 80.4674ZM119.23 79.2652C122.131 79.2129 123.568 78.1937 123.568 76.2074C123.568 74.2212 122.131 73.3065 119.23 73.3587C116.329 73.4372 114.865 74.4303 114.865 76.3904C114.865 78.3505 116.329 79.3175 119.23 79.2652ZM120.981 80.5197C120.432 80.6242 119.857 80.6504 119.23 80.6504C118.576 80.6504 118.001 80.6504 117.453 80.572V84.2308C118.629 84.257 119.805 84.257 120.981 84.2308V80.5197ZM128.037 85.0933C128.037 84.4399 128.377 84.1001 129.056 84.1001C129.736 84.1001 130.076 84.4399 130.076 85.0933V85.2501C130.076 85.9034 129.736 86.2171 129.056 86.2171C128.377 86.2171 128.037 85.9034 128.037 85.2501V85.0933Z" fill="#231815"/>
</svg>
