<svg width="49" height="50" viewBox="0 0 49 50" fill="none" xmlns="http://www.w3.org/2000/svg">
<path d="M15.9076 30.2669L13.3127 26.6978C14.0461 25.5175 14.3563 24.028 13.8768 22.4261C13.3127 20.5713 11.7051 19.1099 9.78717 18.7727C6.43083 18.1825 3.49756 20.7399 3.49756 23.9718C3.49756 26.6416 5.50008 28.8337 8.0949 29.199L11.9589 34.904C12.6076 35.8595 13.7076 36.4497 14.864 36.4497H23.7484L23.4664 30.295H15.9076V30.2669Z" fill="white"/>
<path d="M23.7486 37.0967H14.8641C13.4539 37.0967 12.1565 36.3941 11.395 35.2419L7.70019 29.7898C4.90794 29.2558 2.8208 26.8108 2.8208 23.9443C2.8208 22.1738 3.61053 20.5157 4.96435 19.3635C6.31816 18.2393 8.12325 17.7616 9.90014 18.0707C12.0437 18.436 13.9052 20.1222 14.5257 22.2019C14.977 23.6914 14.8359 25.2371 14.1308 26.6141L16.2744 29.565H23.4665C23.8332 29.565 24.1152 29.846 24.1434 30.2114L24.4255 36.366C24.4255 36.5346 24.3691 36.7313 24.2281 36.8438C24.087 36.9562 23.9178 37.0405 23.7486 37.0405V37.0967ZM8.80016 19.3353C7.70019 19.3353 6.65662 19.7007 5.81048 20.4033C4.73871 21.2745 4.14641 22.5672 4.14641 23.9443C4.14641 26.2207 5.86689 28.1879 8.15146 28.4971C8.34889 28.4971 8.51812 28.6376 8.63094 28.7781L12.495 34.4831C13.0308 35.27 13.9052 35.7196 14.8641 35.7196H23.0435L22.8178 30.9139H15.9077C15.6821 30.9139 15.4846 30.8015 15.3718 30.6329L12.777 27.0638C12.6078 26.8389 12.6078 26.5579 12.777 26.3331C13.2565 25.5181 13.7642 24.2253 13.2565 22.5953C12.777 20.9653 11.3386 19.7007 9.67451 19.3916C9.39246 19.3353 9.11041 19.3072 8.82837 19.3072L8.80016 19.3353Z" fill="#3E3A39"/>
<path d="M39.0357 15.9609C39.1768 16.4106 48.6535 15.9609 48.3432 24.0266C48.3432 24.0266 41.01 25.8533 38.105 17.4785" fill="white"/>
<path d="M46.7071 24.8696C44.1687 24.8696 39.656 23.9422 37.4843 17.7314C37.3714 17.3941 37.5407 17.0007 37.9073 16.8883C38.274 16.7758 38.6406 16.9445 38.7535 17.3098C41.0098 23.8298 46.0584 23.7455 47.6943 23.5207C47.5815 18.0405 42.2226 17.2536 39.8816 16.8883C38.9791 16.7477 38.556 16.6915 38.3868 16.2138C38.274 15.8765 38.4714 15.4831 38.8099 15.3707C39.0073 15.2864 39.2329 15.3426 39.4022 15.455C39.5432 15.4831 39.7688 15.5112 40.0509 15.5674C42.3354 15.9046 49.2738 16.9445 48.9917 24.1108C48.9917 24.42 48.7661 24.6729 48.484 24.7291C48.484 24.7291 47.7507 24.8977 46.6789 24.8977L46.7071 24.8696Z" fill="#3E3A39"/>
<path d="M25.1589 47.0997L23.2974 33.3009C22.5923 28.3828 25.7794 24.3359 30.3768 24.3359C34.9741 24.3359 39.2894 28.3547 39.9945 33.3009L41.856 47.0997C41.856 47.0997 34.3254 51.1747 25.1589 47.0997Z" fill="white"/>
<path d="M33.592 49.5988C31.0254 49.5988 28.0639 49.1211 24.905 47.7159C24.6794 47.6316 24.5384 47.4349 24.5102 47.1819L22.6487 33.3832C22.282 30.7133 22.9871 28.0997 24.5948 26.273C26.0614 24.5868 28.1203 23.6875 30.4049 23.6875C35.3407 23.6875 39.938 27.9592 40.6714 33.2146L42.5329 47.0133C42.5611 47.2943 42.42 47.5473 42.1944 47.6878C41.997 47.8002 38.5842 49.5988 33.6202 49.5988H33.592ZM25.7794 46.648C33.1689 49.7955 39.4868 47.4348 41.1226 46.7042L39.3457 33.3832C38.697 28.7742 34.692 25.0084 30.4049 25.0084C28.5152 25.0084 26.8229 25.7671 25.6101 27.1442C24.2563 28.6899 23.664 30.9101 24.0025 33.2146L25.8076 46.648H25.7794Z" fill="#3E3A39"/>
<path d="M41.6022 12.8116C41.4894 6.29163 36.1023 1.0925 29.5306 1.20491C22.9872 1.31733 17.7693 6.68507 17.8822 13.2051C17.9668 18.6009 21.6898 23.0693 26.6538 24.4183V25.149C26.6538 26.6385 29.5871 27.06 29.5871 27.06C29.7563 27.06 32.8306 26.2169 33.169 24.334C38.133 22.8445 41.6868 18.2356 41.6022 12.8397" fill="white"/>
<path d="M29.5307 27.7084C29.5307 27.7084 29.5025 27.7084 29.4743 27.7084C29.1077 27.6522 25.9487 27.1463 25.9487 25.151V24.9262C20.8437 23.3243 17.2617 18.6029 17.1771 13.2352C17.1207 9.89087 18.3617 6.7433 20.7027 4.35451C23.0155 1.96572 26.1462 0.616754 29.5025 0.560547H29.7282C36.5537 0.560547 42.1382 6.01261 42.251 12.8417C42.3356 18.2657 38.8382 23.1557 33.705 24.8981C32.9999 26.8372 30.123 27.7646 29.5307 27.7646V27.7084ZM29.7282 1.88141C29.7282 1.88141 29.6153 1.88141 29.5307 1.88141C23.3539 1.99382 18.4181 7.08053 18.531 13.2071C18.6156 18.1533 22.0283 22.4812 26.7949 23.7739C27.0769 23.8583 27.3026 24.1112 27.3026 24.4203V25.151C27.3026 25.7974 28.8256 26.2751 29.6435 26.3876C29.9538 26.3032 32.2384 25.4882 32.464 24.1955C32.5204 23.9426 32.6896 23.7458 32.9435 23.6615C37.71 22.2283 40.9818 17.7598 40.8972 12.8136C40.7843 6.74329 35.7921 1.8533 29.7 1.8533L29.7282 1.88141Z" fill="#3E3A39"/>
<path d="M33.3663 13.0906C33.3663 13.6808 32.915 14.1304 32.3791 14.1585C31.815 14.1585 31.3638 13.7089 31.3638 13.1187C31.3638 12.5285 31.7868 12.0508 32.3509 12.0508C32.915 12.0508 33.3663 12.5004 33.3945 13.0625" fill="#3E3A39"/>
<path d="M28.5435 13.1785C28.5435 13.7687 28.1205 14.2183 27.5564 14.2464C26.9923 14.2464 26.541 13.7968 26.541 13.2066C26.541 12.6164 26.9641 12.1387 27.5282 12.1387C28.0923 12.1387 28.5435 12.5883 28.5717 13.1504" fill="#3E3A39"/>
<path d="M27.6973 17.4222C29.2485 18.2653 30.7152 18.181 32.0972 17.3379L27.6973 17.4222Z" fill="white"/>
<path d="M29.8406 18.6839C29.0227 18.6839 28.2048 18.4591 27.3586 18.0094C27.0484 17.8408 26.9074 17.4193 27.1048 17.1101C27.274 16.801 27.6971 16.6605 28.0073 16.8572C29.3047 17.5598 30.5175 17.5317 31.7303 16.801C32.0406 16.6043 32.4637 16.7167 32.6611 17.0258C32.8585 17.335 32.7457 17.7565 32.4354 17.9532C31.5893 18.4591 30.715 18.7401 29.8406 18.7401V18.6839Z" fill="#3E3A39"/>
<path d="M29.5305 1.20312C24.6511 1.28744 20.505 4.2945 18.7563 8.51001C20.8153 8.51001 23.8896 8.4538 27.7818 8.39759C28.1203 8.39759 29.3331 6.23363 29.5869 6.23363C29.8689 6.23363 30.6023 8.36949 30.9971 8.36949C35.0304 8.31329 38.5841 8.25708 40.5585 8.25708C38.697 4.04157 34.4099 1.14692 29.5023 1.23123" fill="white"/>
<path d="M18.7566 9.18828C18.531 9.18828 18.3335 9.07587 18.1925 8.90725C18.0797 8.71053 18.0515 8.4857 18.1361 8.28898C20.054 3.68002 24.5103 0.644857 29.5025 0.560547H29.7C34.664 0.560547 39.1485 3.45519 41.1792 7.97984C41.2638 8.17656 41.2638 8.4295 41.1228 8.62622C40.9818 8.82295 40.7844 8.93535 40.5587 8.93535L30.9974 9.04777C30.3769 9.04777 30.0384 8.40139 29.5872 7.47397C29.5872 7.44587 29.559 7.38967 29.5307 7.33346C29.4743 7.41777 29.4179 7.50209 29.3615 7.55829C28.6282 8.62622 28.318 9.04777 27.8103 9.07588L18.7848 9.18828H18.7566ZM29.5307 1.88141C25.4129 1.93762 21.7181 4.27019 19.8284 7.83932L27.5846 7.72691C27.7539 7.53018 28.0641 7.08053 28.2615 6.7995C28.882 5.90019 29.1077 5.56295 29.559 5.56295C30.1512 5.56295 30.3769 6.04071 30.7717 6.85571C30.8846 7.10864 31.082 7.47398 31.223 7.67071L39.487 7.55829C37.5126 4.04537 33.7896 1.8533 29.7 1.8533C29.6436 1.8533 29.5872 1.8533 29.5025 1.8533L29.5307 1.88141Z" fill="#3E3A39"/>
<path d="M31.4766 10.3667C31.4766 10.3667 32.2663 10.0294 33.0278 10.3667H31.4766Z" fill="white"/>
<path d="M31.4767 10.9018C31.2793 10.9018 31.0818 10.7894 30.969 10.5645C30.8562 10.2835 30.969 9.97437 31.2511 9.86196C31.2793 9.86196 32.2664 9.4123 33.2254 9.86196C33.5074 9.97437 33.6202 10.3116 33.4792 10.5645C33.3664 10.8456 33.0279 10.958 32.7741 10.8175C32.2382 10.5926 31.6741 10.8175 31.6741 10.8175C31.6177 10.8456 31.5331 10.8737 31.4767 10.8737V10.9018Z" fill="#3E3A39"/>
<path d="M26.2588 10.3667C26.2588 10.3667 27.0485 10.0294 27.81 10.3667H26.2588Z" fill="white"/>
<path d="M26.259 10.9018C26.0616 10.9018 25.8642 10.7894 25.7796 10.5645C25.6667 10.2835 25.7796 9.97437 26.0616 9.86196C26.0898 9.86196 27.077 9.4123 28.0359 9.86196C28.318 9.97437 28.4308 10.3116 28.2898 10.5645C28.1769 10.8456 27.8385 10.958 27.5847 10.8175C27.077 10.5926 26.4847 10.8175 26.4847 10.8175C26.4283 10.8456 26.3437 10.8737 26.2872 10.8737L26.259 10.9018Z" fill="#3E3A39"/>
<path d="M14.1311 24.9259C10.0979 27.3147 4.85181 25.9939 2.45442 21.9751C0.0570363 17.9563 1.38265 12.7291 5.4159 10.3403C9.44915 7.95149 14.7234 9.27235 17.1208 13.2911C19.5182 17.3099 18.1926 22.5371 14.1593 24.9259" fill="#FBDACF"/>
<path d="M9.78737 26.78C6.65667 26.78 3.58237 25.1781 1.86189 22.3116C0.620894 20.2038 0.254235 17.7588 0.874735 15.3701C1.49523 12.9813 2.99008 10.9859 5.07721 9.74938C7.19255 8.51283 9.64635 8.14749 12.0437 8.76576C14.4411 9.35593 16.4436 10.8735 17.6846 12.9532C18.9256 15.0328 19.2923 17.5059 18.6718 19.8947C18.0795 22.2835 16.5847 24.2788 14.4693 25.5154C13.0027 26.3866 11.395 26.8081 9.78737 26.8081V26.78ZM9.73096 9.80559C8.34894 9.80559 6.96692 10.1709 5.75412 10.9016C3.94903 11.9695 2.67983 13.6557 2.17214 15.7073C1.66446 17.7307 1.94651 19.8385 3.01828 21.6371C4.09005 23.4357 5.81053 24.7004 7.84126 25.2062C9.87198 25.7121 11.9873 25.4311 13.7924 24.3631C15.5975 23.2952 16.8667 21.609 17.3744 19.5575C17.8821 17.534 17.6 15.4263 16.5283 13.6276C15.4565 11.829 13.7642 10.5644 11.7053 10.0585C11.0566 9.8899 10.4079 9.80559 9.73096 9.80559Z" fill="#3E3A39"/>
<path d="M12.1848 25.4589C11.9874 25.4589 11.8182 25.3746 11.6772 25.2341C8.63107 21.8336 9.08234 17.7305 9.11055 17.5619C9.11055 17.337 9.25157 17.1684 9.449 17.056C10.831 16.2972 11.7054 15.2855 12.0156 14.1051C12.5233 12.166 11.4515 10.3112 11.4233 10.2831C11.2259 9.97395 11.3387 9.55241 11.649 9.35568C11.9592 9.15896 12.3823 9.27137 12.5797 9.5805C12.6361 9.66481 13.9617 11.9412 13.313 14.4143C12.9182 15.8476 11.9592 17.056 10.4362 17.9834C10.4362 18.9389 10.5208 21.8617 12.6925 24.3067C12.9464 24.5877 12.9182 25.0093 12.6361 25.2622C12.4951 25.3746 12.3541 25.4308 12.1848 25.4308V25.4589Z" fill="#3E3A39"/>
<path d="M1.77706 20.0091C1.77706 20.0091 1.52322 19.981 1.4386 19.8967C1.12835 19.7 1.01553 19.2784 1.21297 18.9693C3.77958 14.81 8.15128 15.8779 10.0974 17.0302C10.4076 17.2269 10.5205 17.6204 10.323 17.9576C10.1256 18.2667 9.73074 18.3791 9.39228 18.1824C9.19485 18.07 4.82315 15.5969 2.31294 19.6719C2.20013 19.8686 1.97449 19.981 1.74885 19.981L1.77706 20.0091Z" fill="#3E3A39"/>
<path d="M12.4949 14.7508C12.3539 14.7508 12.2129 14.6946 12.0719 14.6103C7.55913 11.0693 3.0182 13.8515 2.84897 13.9639C2.53872 14.1607 2.11565 14.0763 1.91822 13.7672C1.72079 13.4581 1.8054 13.0365 2.11565 12.8398C2.17206 12.8117 7.61554 9.41118 12.918 13.5705C13.2 13.7953 13.2564 14.2169 13.0308 14.4979C12.8898 14.6665 12.6924 14.7508 12.4949 14.7508Z" fill="#3E3A39"/>
<path d="M19.9128 29.0568L17.5436 25.7968C18.2205 24.7008 18.5026 23.3518 18.0513 21.8905C17.5436 20.2043 16.0488 18.8553 14.3001 18.5462C11.2258 17.9841 8.54639 20.3448 8.54639 23.2956C8.54639 25.7406 10.3797 27.736 12.7489 28.0732L16.2744 33.2723C16.8667 34.1716 17.8821 34.6775 18.9539 34.6775H27.0768L26.8229 29.0568H19.9128Z" fill="white"/>
<path d="M27.0766 35.3497H18.9536C17.6562 35.3497 16.4434 34.7033 15.7383 33.6354L12.382 28.6611C9.81537 28.1552 7.89746 25.9069 7.89746 23.2652C7.89746 21.6352 8.63078 20.0895 9.87178 19.0497C11.1128 18.0099 12.7768 17.5602 14.4409 17.8694C16.4152 18.2347 18.1357 19.7523 18.6998 21.6914C19.1229 23.0685 18.9818 24.4737 18.3331 25.7383L20.2511 28.38H26.8227C27.1894 28.38 27.4714 28.6611 27.4996 29.0264L27.7535 34.6471C27.7535 34.8157 27.6971 35.0124 27.556 35.1248C27.415 35.2373 27.2458 35.3216 27.0766 35.3216V35.3497ZM13.4256 19.1059C12.4384 19.1059 11.5076 19.4432 10.7461 20.0614C9.78717 20.8483 9.25128 22.0287 9.25128 23.2652C9.25128 25.3168 10.8025 27.0873 12.8615 27.3683C13.0589 27.3683 13.2281 27.5088 13.3409 27.6493L16.8665 32.8485C17.346 33.5511 18.1357 33.9726 18.9818 33.9726H26.3996L26.2022 29.7009H19.9408C19.7152 29.7009 19.5177 29.5885 19.4049 29.4199L17.0357 26.1318C16.8665 25.9069 16.8665 25.6259 17.0357 25.4011C17.487 24.6704 17.9101 23.49 17.487 22.0287C17.0639 20.5673 15.7665 19.4151 14.2717 19.134C14.0178 19.0778 13.7358 19.0497 13.482 19.0497L13.4256 19.1059Z" fill="#3E3A39"/>
<path d="M33.1408 28.2402H24.3691V36.6993H33.7613" fill="white"/>
<path d="M33.7614 37.3752H24.3693C24.0026 37.3752 23.6924 37.0661 23.6924 36.7008V28.2135C23.6924 27.8482 24.0026 27.5391 24.3693 27.5391H33.1127C33.4794 27.5391 33.7896 27.8482 33.7896 28.2135C33.7896 28.5789 33.4794 28.888 33.1127 28.888H25.0462V36.0263H33.7614C34.1281 36.0263 34.4383 36.3354 34.4383 36.7008C34.4383 37.0661 34.1281 37.3752 33.7614 37.3752Z" fill="#3E3A39"/>
</svg>
