<svg width="32" height="54" viewBox="0 0 32 54" fill="none" xmlns="http://www.w3.org/2000/svg">
<path d="M1.47021 50.4084V41.4832C1.47021 35.2269 8.18105 30.0898 16.3896 30.0898C24.5981 30.0898 31.309 35.2269 31.309 41.4832V50.4084C31.309 50.4084 17.5129 55.0002 1.49902 50.4084" fill="white"/>
<path d="M16.2742 53.1328C11.8099 53.1328 6.65439 52.6162 1.26844 51.0952C0.980422 51.0091 0.778809 50.7508 0.778809 50.4351V41.5098C0.778809 34.8518 7.77767 29.4277 16.3894 29.4277C25.0012 29.4277 32 34.8518 32 41.5098V50.4351C32 50.7221 31.7984 50.9804 31.5392 51.0952C31.4528 51.1239 25.2028 53.1615 16.303 53.1615L16.2742 53.1328ZM2.1613 49.8898C15.9862 53.7067 28.1118 50.6073 30.6176 49.8898V41.4811C30.6176 35.5692 24.2523 30.7766 16.3894 30.7766C8.52651 30.7766 2.1613 35.5692 2.1613 41.4811V49.8898Z" fill="#3E3A39"/>
<path d="M16.1303 42.3717L18.6936 34.623H13.5381L16.1303 42.3717Z" fill="#FBDACF"/>
<path d="M16.1301 43.0603C15.8421 43.0603 15.5829 42.8594 15.4677 42.6012L12.8755 34.8525C12.8179 34.6517 12.8467 34.4221 12.9619 34.2499C13.0771 34.0777 13.3075 33.9629 13.5091 33.9629H18.6647C18.8951 33.9629 19.0967 34.0777 19.2119 34.2499C19.3271 34.4221 19.3847 34.6517 19.2983 34.8525L16.7349 42.6012C16.6485 42.8881 16.3893 43.0603 16.1013 43.0603H16.1301ZM14.4884 35.3117L16.1301 40.1905L17.743 35.3117H14.4884Z" fill="#3E3A39"/>
<path d="M26.6141 14.6518H26.5565C26.5565 14.537 26.5565 14.4509 26.5565 14.3361C26.5565 12.3272 26.4413 10.5766 26.2108 9.08426C25.03 1.42174 7.37442 1.53654 6.42396 10.1174C6.27995 11.3514 6.22234 12.7577 6.22234 14.3361C6.22234 14.4509 6.22234 14.5657 6.22234 14.6805C6.04953 14.6805 5.90552 14.6518 5.73271 14.6805C4.55183 14.8814 3.86059 16.4885 4.17741 18.2965C4.49423 20.0758 5.67511 21.3672 6.85598 21.1664C6.85598 21.1664 6.85598 21.1664 6.88479 21.1664C7.83525 25.2416 9.73617 27.107 12.1843 27.9392V30.5221L13.5668 34.6547H18.7224L20.1049 30.5221V28.0827C22.7546 27.3653 24.886 25.5572 25.9228 21.1951C27.1037 21.3386 28.227 19.961 28.4286 18.1817C28.6302 16.3737 27.8238 14.824 26.6429 14.6805" fill="white"/>
<path d="M18.6934 35.3143H13.5379C13.2499 35.3143 12.9906 35.1134 12.8754 34.8551L11.4929 30.7225C11.4929 30.7225 11.4641 30.579 11.4641 30.493V28.3693C8.92957 27.3361 7.23026 25.1837 6.3374 21.826C5.93417 21.7973 5.55975 21.6251 5.18532 21.3668C4.32127 20.7641 3.68763 19.6449 3.48601 18.3822C3.11159 16.2298 4.00445 14.3357 5.53095 13.9913C5.53095 12.5563 5.61735 11.2362 5.76136 10.0309C6.3086 5.18081 11.4929 2.91362 16.4181 2.79883C20.9688 2.79883 26.2395 4.60684 26.9019 8.94032C27.1324 10.4326 27.2476 12.1546 27.2476 14.0487C28.5149 14.5365 29.2925 16.2298 29.0909 18.1813C28.9469 19.4727 28.3708 20.6206 27.5644 21.252C27.2188 21.539 26.8443 21.7112 26.4411 21.7686C25.4907 25.4133 23.6761 27.5657 20.7671 28.5127V30.4356C20.7671 30.4356 20.7671 30.579 20.7383 30.6651L19.3559 34.7977C19.2694 35.0847 19.0102 35.2569 18.6934 35.2569V35.3143ZM14.0275 33.9368H18.2038L19.3847 30.3782V28.0536C19.3847 27.7379 19.5863 27.4796 19.9031 27.3935C22.6969 26.6473 24.3674 24.6097 25.2314 21.0224C25.289 20.7354 25.5195 20.5345 25.8075 20.5058C25.8651 20.5058 25.9515 20.5058 26.0091 20.5058C26.3259 20.5058 26.5563 20.3624 26.7003 20.2476C27.2188 19.8171 27.622 18.9848 27.7084 18.0952C27.8812 16.6028 27.2476 15.4549 26.5563 15.3401C26.3835 15.3401 26.2107 15.2827 26.0955 15.1679C25.9515 15.0531 25.8651 14.8522 25.8651 14.6513V14.4791C25.8651 12.4415 25.7499 10.6909 25.5195 9.19861C25.001 5.72608 20.6231 4.20506 16.7061 4.20506C16.5909 4.20506 16.5045 4.20506 16.4181 4.20506C12.0978 4.29115 7.54708 6.18526 7.08625 10.2031C6.94224 11.4658 6.88463 12.8433 6.88463 14.3357C6.88463 14.3357 6.88463 14.6513 6.88463 14.68C6.88463 14.8809 6.79823 15.0818 6.65422 15.1966C6.51021 15.3114 6.2798 15.3975 6.10698 15.3401C5.99178 15.3401 5.90537 15.3401 5.81897 15.3401C5.15652 15.4549 4.55168 16.6602 4.8109 18.1526C4.95491 19.0709 5.41574 19.8745 5.96298 20.2476C6.22219 20.4198 6.45261 20.5058 6.71182 20.4485C6.88463 20.3911 7.05745 20.4485 7.23026 20.5345C7.40307 20.6206 7.48947 20.7928 7.51828 20.965C8.32473 24.4089 9.85123 26.3891 12.357 27.2213C12.645 27.3074 12.8178 27.5657 12.8178 27.8814V30.3495L14.0275 33.9081V33.9368Z" fill="#3E3A39"/>
<path d="M8.49755 9.4289C8.55516 7.4487 10.4561 7.4774 10.4561 7.4774H22.2649C22.2649 7.4774 24.1658 7.4774 24.2234 9.4289C24.281 10.8351 24.2234 13.5041 26.4987 13.6763C26.4699 12.0118 29.5805 1.70898 16.3317 1.70898C3.0828 1.70898 6.1934 12.4422 6.1646 13.6763C8.43995 13.5328 8.41115 10.8351 8.46875 9.4289" fill="white"/>
<path d="M26.5278 14.3325C26.5278 14.3325 26.499 14.3325 26.4702 14.3325C23.7052 14.1316 23.59 11.1183 23.5612 9.65465V9.42506C23.5036 8.24842 22.5531 8.13363 22.2651 8.13363H10.4563C10.1683 8.13363 9.21785 8.21972 9.16025 9.42506V9.62595C9.10265 11.0896 9.01624 14.1316 6.22246 14.3038C6.04965 14.3325 5.84803 14.2464 5.70402 14.1029C5.56002 13.9594 5.47361 13.7872 5.50241 13.5864C5.50241 13.4716 5.44481 13.242 5.41601 12.9263C5.12799 11.2044 4.40794 7.15788 6.8849 4.23062C8.72822 2.04953 11.8964 0.958984 16.3607 0.958984C20.825 0.958984 23.7052 2.02083 25.5485 4.08713C28.0543 6.92829 27.5359 10.86 27.3054 12.7541C27.2478 13.1272 27.219 13.4142 27.219 13.5864C27.219 13.7872 27.1326 13.9594 27.0174 14.1029C26.9022 14.2177 26.7294 14.3038 26.5566 14.3038L26.5278 14.3325ZM16.3607 2.39391C12.3285 2.39391 9.47707 3.34097 7.92177 5.17767C5.84803 7.61705 6.45287 11.0896 6.74089 12.7541C6.74089 12.7541 6.74089 12.7828 6.74089 12.8115C7.51854 12.4097 7.72016 11.2905 7.77776 9.59725V9.36767C7.83536 7.44486 9.39067 6.75609 10.3987 6.75609H22.2363C23.302 6.75609 24.8285 7.41616 24.8861 9.36767V9.59725C24.9437 11.2331 25.1453 12.3523 25.8653 12.7541C25.8653 12.6967 25.8653 12.6393 25.8653 12.6106C26.0958 10.7739 26.5278 7.38746 24.4541 5.03418C22.8987 3.25487 20.1338 2.36521 16.3031 2.36521L16.3607 2.39391Z" fill="#3E3A39"/>
<path d="M20.8824 15.2818C20.8824 15.8271 20.4503 16.2862 19.9319 16.2862C19.4135 16.2862 18.9814 15.8271 18.9814 15.2818C18.9814 14.7365 19.4135 14.2773 19.9319 14.2773C20.4503 14.2773 20.8824 14.7365 20.8824 15.2818Z" fill="#3E3A39"/>
<path d="M13.6822 15.2818C13.6822 15.8271 13.2501 16.2862 12.7317 16.2862C12.2133 16.2862 11.7812 15.8271 11.7812 15.2818C11.7812 14.7365 12.2133 14.2773 12.7317 14.2773C13.2501 14.2773 13.6822 14.7365 13.6822 15.2818Z" fill="#3E3A39"/>
<path d="M13.8262 22.1387C15.4679 23.4588 17.1672 23.2866 18.8665 22.1387H13.8262Z" fill="white"/>
<path d="M16.2455 23.7472C15.2662 23.7472 14.3158 23.3741 13.3941 22.6566C13.1061 22.427 13.0485 21.9966 13.2789 21.7096C13.5093 21.4226 13.9413 21.3652 14.2294 21.5948C15.5542 22.6279 16.8791 22.6279 18.4632 21.5661C18.7801 21.3652 19.2121 21.4513 19.4137 21.7383C19.6153 22.054 19.5289 22.4844 19.2409 22.6853C18.204 23.3741 17.196 23.7472 16.2167 23.7472H16.2455Z" fill="#3E3A39"/>
<path d="M20.0475 10.7448H18.8954C18.5786 10.7448 18.3481 10.5153 18.3481 10.1996C18.3481 9.88389 18.5786 9.6543 18.8954 9.6543H20.0475C20.3643 9.6543 20.5947 9.88389 20.5947 10.1996C20.5947 10.5153 20.3643 10.7448 20.0475 10.7448Z" fill="#3E3A39"/>
<path d="M13.7686 10.7448H12.6166C12.2998 10.7448 12.0693 10.5153 12.0693 10.1996C12.0693 9.88389 12.2998 9.6543 12.6166 9.6543H13.7686C14.0855 9.6543 14.3159 9.88389 14.3159 10.1996C14.3159 10.5153 14.0855 10.7448 13.7686 10.7448Z" fill="#3E3A39"/>
<path d="M11.7521 46.8509C11.7521 48.4293 10.4848 49.6921 8.92952 49.6921C7.37422 49.6921 6.10693 48.4293 6.10693 46.8509C6.10693 45.2725 7.37422 44.0098 8.92952 44.0098C10.4848 44.0098 11.7521 45.2725 11.7521 46.8509Z" fill="#E9EAEA"/>
<path d="M8.92984 50.3802C7.00012 50.3802 5.41602 48.8017 5.41602 46.8502C5.41602 44.8987 7.00012 43.3203 8.92984 43.3203C10.8596 43.3203 12.4437 44.8987 12.4437 46.8502C12.4437 48.8017 10.8596 50.3802 8.92984 50.3802ZM8.92984 44.6978C7.74897 44.6978 6.79851 45.6736 6.79851 46.8502C6.79851 48.0269 7.74897 49.0026 8.92984 49.0026C10.1107 49.0026 11.0612 48.0269 11.0612 46.8502C11.0612 45.6736 10.1107 44.6978 8.92984 44.6978Z" fill="#3E3A39"/>
<path d="M8.92953 44.2101C8.5551 44.2101 8.23828 43.8944 8.23828 43.5213V31.181C8.23828 30.8079 8.5551 30.4922 8.92953 30.4922C9.30395 30.4922 9.62077 30.8079 9.62077 31.181V43.5213C9.62077 43.8944 9.30395 44.2101 8.92953 44.2101Z" fill="#3E3A39"/>
<path d="M18.9814 47.9986V40.25C18.9814 38.4994 20.7672 37.0645 22.9849 37.0645C25.2027 37.0645 26.9884 38.4994 26.9884 40.25V47.9986" fill="white"/>
<path d="M26.9887 48.6873C26.6143 48.6873 26.2974 48.3716 26.2974 47.9985V40.2499C26.2974 38.9011 24.771 37.7531 22.9852 37.7531C21.1995 37.7531 19.673 38.9011 19.673 40.2499V47.9985C19.673 48.3716 19.3562 48.6873 18.9818 48.6873C18.6073 48.6873 18.2905 48.3716 18.2905 47.9985V40.2499C18.2905 38.1262 20.3931 36.4043 22.9852 36.4043C25.5774 36.4043 27.6799 38.1262 27.6799 40.2499V47.9985C27.6799 48.3716 27.3631 48.6873 26.9887 48.6873Z" fill="#3E3A39"/>
<path d="M25.7214 49.4059C25.059 49.4059 24.5117 48.8606 24.5117 48.2006V47.971C24.5117 47.3109 25.059 46.7656 25.7214 46.7656C26.3838 46.7656 26.9311 47.3109 26.9311 47.971V48.2006C26.9311 48.8606 26.3838 49.4059 25.7214 49.4059Z" fill="white"/>
<path d="M25.7212 50.092C24.6844 50.092 23.8203 49.2311 23.8203 48.1979V47.9683C23.8203 46.9352 24.6844 46.0742 25.7212 46.0742C26.7581 46.0742 27.6222 46.9352 27.6222 47.9683V48.1979C27.6222 49.2311 26.7581 50.092 25.7212 50.092ZM25.7212 47.4518C25.4332 47.4518 25.2028 47.6813 25.2028 47.9683V48.1979C25.2028 48.4849 25.4332 48.7145 25.7212 48.7145C26.0093 48.7145 26.2397 48.4849 26.2397 48.1979V47.9683C26.2397 47.6813 26.0093 47.4518 25.7212 47.4518Z" fill="#3E3A39"/>
<path d="M20.1623 49.4059C19.4999 49.4059 18.9526 48.8606 18.9526 48.2006V47.971C18.9526 47.3109 19.4999 46.7656 20.1623 46.7656C20.8248 46.7656 21.372 47.3109 21.372 47.971V48.2006C21.372 48.8606 20.8248 49.4059 20.1623 49.4059Z" fill="white"/>
<path d="M20.1626 50.092C19.1258 50.092 18.2617 49.2311 18.2617 48.1979V47.9683C18.2617 46.9352 19.1258 46.0742 20.1626 46.0742C21.1995 46.0742 22.0636 46.9352 22.0636 47.9683V48.1979C22.0636 49.2311 21.1995 50.092 20.1626 50.092ZM20.1626 47.4518C19.8746 47.4518 19.6442 47.6813 19.6442 47.9683V48.1979C19.6442 48.4849 19.8746 48.7145 20.1626 48.7145C20.4507 48.7145 20.6811 48.4849 20.6811 48.1979V47.9683C20.6811 47.6813 20.4507 47.4518 20.1626 47.4518Z" fill="#3E3A39"/>
<path d="M22.9852 37.6966C22.6108 37.6966 22.2939 37.3809 22.2939 37.0078V30.9524C22.2939 30.5794 22.6108 30.2637 22.9852 30.2637C23.3596 30.2637 23.6764 30.5794 23.6764 30.9524V37.0078C23.6764 37.3809 23.3596 37.6966 22.9852 37.6966Z" fill="#3E3A39"/>
<path d="M20.9111 19.6441C18.6358 19.6441 16.7925 17.7787 16.7925 15.5115C16.7925 13.2443 18.6358 11.3789 20.9111 11.3789C23.1865 11.3789 25.0298 13.2443 25.0298 15.5115C25.0298 17.7787 23.1865 19.6441 20.9111 19.6441ZM20.9111 12.7564C19.3846 12.7564 18.175 13.9905 18.175 15.5115C18.175 17.0325 19.4135 18.2666 20.9111 18.2666C22.4088 18.2666 23.6473 17.0325 23.6473 15.5115C23.6473 13.9905 22.4088 12.7564 20.9111 12.7564Z" fill="#3E3A39"/>
<path d="M12.127 19.6441C9.85162 19.6441 8.0083 17.7787 8.0083 15.5115C8.0083 13.2443 9.85162 11.3789 12.127 11.3789C14.4023 11.3789 16.2456 13.2443 16.2456 15.5115C16.2456 17.7787 14.4023 19.6441 12.127 19.6441ZM12.127 12.7564C10.6005 12.7564 9.39079 13.9905 9.39079 15.5115C9.39079 17.0325 10.6293 18.2666 12.127 18.2666C13.6247 18.2666 14.8631 17.0325 14.8631 15.5115C14.8631 13.9905 13.6247 12.7564 12.127 12.7564Z" fill="#3E3A39"/>
</svg>
