<svg width="50" height="46" viewBox="0 0 50 46" fill="none" xmlns="http://www.w3.org/2000/svg">
<path d="M3.05878 10.7832C3.05878 10.7832 2.03938 18.373 3.99322 22.0127C5.94705 25.6242 4.50291 27.5993 3.34194 28.4457C2.18097 29.3204 -1.01879 32.424 3.48352 35.8944H18.7178C18.7178 35.8944 18.4912 27.9379 20.8132 26.4989C23.1351 25.0599 24.8908 22.7463 23.0502 18.4576" fill="white"/>
<path d="M18.746 36.5732H3.48347C3.34189 36.5732 3.20031 36.5167 3.05873 36.4321C1.33142 35.106 0.453613 33.6388 0.453613 32.1152C0.453613 29.9144 2.35082 28.3344 2.91714 27.9112C4.0498 27.0648 5.04088 25.4283 3.39852 22.3246C1.35974 18.5721 2.35082 11.0105 2.37913 10.7001C2.43576 10.3333 2.74725 10.0794 3.14368 10.1076C3.51179 10.164 3.76664 10.5026 3.73832 10.8694C3.73832 10.9541 2.77556 18.2899 4.61613 21.6757C6.93808 25.9644 4.78603 28.2216 3.76664 28.9834C3.31357 29.3219 1.86944 30.5352 1.84112 32.1152C1.84112 33.1592 2.46408 34.2031 3.73832 35.2188H18.0664C18.0664 33.1027 18.2647 27.2905 20.5017 25.9079C22.2006 24.8358 24.2677 22.9454 22.4838 18.7131C22.3422 18.3746 22.4838 17.9796 22.8519 17.8385C23.1917 17.6974 23.5882 17.8385 23.7297 18.2053C25.3438 22.0425 24.5226 25.0051 21.2096 27.0647C19.7654 27.9676 19.3407 32.9617 19.4256 35.8678C19.4256 36.0371 19.369 36.2346 19.2274 36.3474C19.0858 36.4603 18.9159 36.5449 18.746 36.5449V36.5732Z" fill="#3E3A39"/>
<path d="M8.07072 44.728L7.47607 31.1284C7.47607 27.5451 10.959 23.6797 14.5552 23.6797C18.1514 23.6797 23.0784 27.8273 23.0784 31.4106L25.2305 42.6965" fill="white"/>
<path d="M8.07063 45.4065C7.70251 45.4065 7.41935 45.1244 7.39103 44.7576L6.79639 31.158C6.79639 27.0951 10.7041 23.0039 14.5551 23.0039C18.4061 23.0039 23.7296 27.349 23.7296 31.4119L25.8534 42.585C25.91 42.9518 25.6835 43.2904 25.3153 43.375C24.9755 43.4597 24.6074 43.2058 24.5225 42.839L22.3704 31.553C22.3704 28.3929 17.8964 24.3582 14.5268 24.3582C11.412 24.3582 8.12726 27.8287 8.12726 31.1298L8.72191 44.7011C8.72191 45.0679 8.43874 45.3783 8.07063 45.4065C8.07063 45.4065 8.07063 45.4065 8.04231 45.4065H8.07063Z" fill="#3E3A39"/>
<path d="M25.5705 12.5343C25.4573 6.27063 20.2754 1.24838 13.9891 1.36124C7.70286 1.4741 2.66253 6.60921 2.7758 12.9011C2.86075 18.0927 6.4003 22.3813 11.1858 23.6792V24.3846C11.1858 25.1464 15.3483 30.1686 15.7164 30.1686C16.0562 30.1686 17.5004 25.231 17.5004 24.2717V23.5946C22.2292 22.1556 25.6272 17.7259 25.5422 12.5625" fill="white"/>
<path d="M15.7162 30.8195C15.4047 30.8195 15.1782 30.6502 14.8101 30.2834C14.1022 29.6063 10.506 25.4587 10.506 24.3583V24.1608C5.60724 22.609 2.18095 18.0382 2.096 12.9031C1.98274 6.27258 7.33455 0.798899 13.9889 0.686039C17.217 0.657824 20.2752 1.84285 22.5688 4.07182C24.8624 6.3008 26.1933 9.31979 26.2499 12.5363C26.3349 17.6996 23.0502 22.3551 18.2081 24.048V24.2455C18.2081 24.2455 17.0471 30.7913 15.7445 30.8195H15.7162ZM14.1588 2.01214C14.1588 2.01214 14.0455 2.01214 13.9889 2.01214C8.07077 2.09678 3.34193 6.97796 3.42688 12.8749C3.51183 17.615 6.76822 21.7908 11.3555 23.004C11.6386 23.0887 11.8652 23.3426 11.8652 23.6529V24.3583C12.0351 24.9226 14.4137 27.9134 15.518 29.0984C15.9994 27.8005 16.8206 24.8662 16.8206 24.2455V23.5401C16.8206 23.2579 17.0188 22.9758 17.3019 22.8911C21.8326 21.5086 24.9474 17.2482 24.8907 12.5081C24.8341 9.65837 23.7015 6.97795 21.6344 5.00291C19.6239 3.05609 16.9905 1.98392 14.1871 1.98392L14.1588 2.01214Z" fill="#3E3A39"/>
<path d="M18.3782 13.634C18.3782 14.1983 17.9534 14.6497 17.4154 14.6497C16.8774 14.6497 16.4243 14.2265 16.4243 13.6622C16.4243 13.0979 16.8491 12.6465 17.3871 12.6465C17.9251 12.6465 18.3782 13.0697 18.3782 13.634Z" fill="#3E3A39"/>
<path d="M13.7624 13.7219C13.7624 14.2862 13.3377 14.7376 12.7997 14.7376C12.2617 14.7376 11.8086 14.3144 11.8086 13.7501C11.8086 13.1858 12.2333 12.7344 12.7714 12.7344C13.3094 12.7344 13.7624 13.1576 13.7624 13.7219Z" fill="#3E3A39"/>
<path d="M13.1396 17.6686C14.7254 18.5433 16.2545 18.4586 17.6703 17.584L13.1396 17.6686Z" fill="white"/>
<path d="M15.3764 18.968C14.527 18.968 13.6775 18.7423 12.828 18.2627C12.4882 18.0934 12.3749 17.6702 12.5731 17.3598C12.743 17.0212 13.1678 16.9084 13.4792 17.1059C14.8101 17.8394 16.0844 17.8112 17.3586 17.0494C17.6701 16.8519 18.0948 16.9648 18.293 17.2751C18.4913 17.5855 18.378 18.0087 18.0665 18.2062C17.1887 18.7423 16.3109 18.9963 15.4048 18.9963L15.3764 18.968Z" fill="#3E3A39"/>
<path d="M16.5659 11.0099C16.5659 11.0099 17.3305 10.6713 18.0384 11.0099H16.5659Z" fill="white"/>
<path d="M18.0382 11.5471C18.0382 11.5471 17.8967 11.5471 17.8117 11.4906C17.3303 11.2649 16.764 11.4906 16.764 11.4906C16.4808 11.6035 16.1694 11.4906 16.0561 11.2085C15.9428 10.9263 16.0561 10.616 16.3393 10.5031C16.4242 10.4749 17.3303 10.0799 18.2648 10.5031C18.5479 10.616 18.6612 10.9546 18.5196 11.2085C18.4347 11.406 18.2365 11.5189 18.0382 11.5189V11.5471Z" fill="#3E3A39"/>
<path d="M11.5537 11.0099C11.5537 11.0099 12.3183 10.6713 13.0262 11.0099H11.5537Z" fill="white"/>
<path d="M13.026 11.5504C13.026 11.5504 12.8845 11.5504 12.7995 11.494C12.3181 11.2683 11.7518 11.494 11.7518 11.494C11.497 11.6068 11.1572 11.494 11.0439 11.2118C10.9306 10.9297 11.0439 10.6193 11.3271 10.5065C11.3554 10.5065 12.3181 10.0832 13.2526 10.5065C13.5357 10.6193 13.649 10.9579 13.5074 11.2118C13.4225 11.4093 13.2243 11.5222 13.026 11.5222V11.5504Z" fill="#3E3A39"/>
<path d="M13.9891 1.27734C7.70286 1.3902 2.66253 6.55353 2.7758 12.8172C2.7758 13.438 2.86075 14.0305 2.9457 14.5948C3.62529 14.3973 4.24825 14.1151 4.87122 13.8048C7.4197 12.4222 10.0531 9.26215 9.76996 6.41245C14.8386 8.55678 19.9639 9.9111 25.2874 10.1368C24.1264 5.00171 19.4825 1.22091 13.9891 1.30556" fill="white"/>
<path d="M2.9455 15.2733C2.9455 15.2733 2.69065 15.2451 2.6057 15.1604C2.4358 15.0476 2.32254 14.9065 2.29422 14.709C2.18095 14.0318 2.12432 13.4111 2.096 12.8186C1.98274 6.18811 7.33455 0.714422 13.9889 0.601562H14.1871C19.7938 0.601562 24.7208 4.49521 25.9668 9.9689C26.0234 10.1664 25.9668 10.3921 25.8252 10.5614C25.6836 10.7307 25.5137 10.9 25.2872 10.7871C20.4451 10.5896 15.5746 9.46103 10.4777 7.40135C10.1662 10.1946 7.75929 13.0443 5.23913 14.3986C4.61617 14.7372 3.96489 15.0194 3.20034 15.2451C3.14371 15.2451 3.05876 15.2733 3.00213 15.2733H2.9455ZM13.9889 1.95588C8.07077 2.04052 3.34193 6.92169 3.42688 12.7904C3.42688 13.0725 3.42688 13.3829 3.48351 13.6933C3.85162 13.5522 4.21974 13.3829 4.53122 13.2136C6.9098 11.9439 9.3167 8.98138 9.06185 6.47026C9.06185 6.24454 9.1468 5.99061 9.34501 5.87775C9.54323 5.73667 9.79808 5.70846 9.99629 5.7931C14.98 7.90922 19.6805 9.09424 24.3527 9.40461C22.9369 5.0313 18.8027 1.95588 14.1305 1.95588C14.0739 1.95588 14.0172 1.95588 13.9606 1.95588H13.9889Z" fill="#3E3A39"/>
<path d="M8.80684 27.0078C8.80684 27.0078 3.08691 36.3469 2.80375 39.2813C2.52059 42.2156 3.53998 43.2032 5.66371 43.4571C7.41933 43.6546 15.2064 42.131 15.2064 42.131C15.1214 41.6513 14.4701 35.6698 14.4701 35.6698L9.4298 36.7137L10.7607 34.2873" fill="white"/>
<path d="M6.03206 44.1347C5.86216 44.1347 5.72058 44.1347 5.579 44.1347C2.88894 43.8243 1.81291 42.3007 2.12439 39.2253C2.43587 36.1499 7.9859 27.0647 8.24075 26.6697C8.43896 26.3593 8.83539 26.2465 9.17519 26.444C9.48667 26.6415 9.59993 27.0365 9.40172 27.375C7.84432 29.9426 3.71011 37.081 3.48358 39.3664C3.22873 42.0186 4.07823 42.6111 5.7489 42.8086C6.96651 42.9779 11.9785 42.075 14.442 41.5953C14.3005 40.3539 14.0173 37.7863 13.8757 36.4602L9.57162 37.3349C9.31677 37.3913 9.06192 37.2785 8.89202 37.081C8.72212 36.8553 8.72213 36.6013 8.83539 36.3474L10.1663 33.9209C10.3362 33.5823 10.7609 33.4695 11.0724 33.667C11.4122 33.8363 11.5255 34.2595 11.3272 34.5698L10.7043 35.7266L14.3005 34.9931C14.4704 34.9649 14.6686 34.9931 14.8385 35.1059C14.9801 35.2188 15.0933 35.3881 15.1216 35.5856C15.3765 37.8992 15.7729 41.68 15.8296 41.9904C15.9145 42.3571 15.6597 42.6957 15.2915 42.7804C14.5553 42.9214 8.32569 44.1347 6.00375 44.1347H6.03206Z" fill="#3E3A39"/>
<path d="M15.8861 43.0941C13.4509 43.0941 11.4688 41.119 11.4688 38.6925C11.4688 36.2661 13.4509 34.291 15.8861 34.291C18.3213 34.291 20.3035 36.2661 20.3035 38.6925C20.3035 41.119 18.3213 43.0941 15.8861 43.0941Z" fill="white"/>
<path d="M15.886 43.7687C13.0827 43.7687 10.7891 41.4833 10.7891 38.69C10.7891 35.8967 13.0827 33.6113 15.886 33.6113C18.6894 33.6113 20.9547 35.8967 20.9547 38.69C20.9547 41.4833 18.661 43.7687 15.886 43.7687ZM15.886 34.9657C13.8189 34.9657 12.1483 36.6303 12.1483 38.69C12.1483 40.7497 13.8189 42.4144 15.886 42.4144C17.9531 42.4144 19.6238 40.7497 19.6238 38.69C19.6238 36.6303 17.9531 34.9657 15.886 34.9657Z" fill="#3E3A39"/>
<path d="M43.24 44.502C43.0984 44.9534 14.2723 44.502 12.9414 44.502H43.24Z" fill="white"/>
<path d="M35.5095 45.4059C31.3187 45.4059 25.0041 45.3495 15.4615 45.2084C14.0457 45.2084 13.1395 45.2084 12.913 45.2084C12.5449 45.2084 12.2334 44.8981 12.2334 44.5313C12.2334 44.1645 12.5449 43.8541 12.913 43.8541C13.1395 43.8541 14.0457 43.8541 15.4615 43.8823C32.5363 44.108 41.7391 44.108 42.9001 43.9105C43.0417 43.8541 43.2116 43.8259 43.3815 43.8823C43.7496 43.9952 43.9478 44.362 43.8346 44.7005C43.693 45.1802 43.6363 45.4059 35.4812 45.4059H35.5095Z" fill="#3E3A39"/>
<path d="M25.825 42.4436H25.3153C23.0217 42.4436 21.1528 40.5814 21.1528 38.296C21.1528 36.0106 23.0217 34.1484 25.3153 34.1484H25.825C28.1187 34.1484 29.9876 36.0106 29.9876 38.296C29.9876 40.5814 28.1187 42.4436 25.825 42.4436Z" fill="white"/>
<path d="M25.8254 43.1202H25.3441C22.6823 43.1202 20.502 40.9476 20.502 38.2954C20.502 35.6432 22.6823 33.4707 25.3441 33.4707H25.8254C28.4872 33.4707 30.6676 35.6432 30.6676 38.2954C30.6676 40.9476 28.4872 43.1202 25.8254 43.1202ZM25.3441 34.825C23.4185 34.825 21.8611 36.3768 21.8611 38.2954C21.8611 40.2141 23.4185 41.7659 25.3441 41.7659H25.8254C27.751 41.7659 29.3084 40.2141 29.3084 38.2954C29.3084 36.3768 27.751 34.825 25.8254 34.825H25.3441Z" fill="#3E3A39"/>
<path d="M43.5231 44.7255H23.2769L29.0817 30.3359H49.328L43.5231 44.7255Z" fill="#FBDACF"/>
<path d="M43.5231 45.3767H23.2768C23.0503 45.3767 22.8521 45.2639 22.7105 45.0664C22.5973 44.8688 22.5689 44.6431 22.6539 44.4456L28.4588 30.056C28.572 29.8021 28.7986 29.6328 29.0817 29.6328H49.328C49.5545 29.6328 49.7527 29.7457 49.8943 29.9432C50.0076 30.1407 50.0359 30.3664 49.9509 30.5639L44.1461 44.9535C44.0328 45.2074 43.8063 45.3767 43.5231 45.3767ZM24.2679 44.0506H43.0417L48.3086 31.0153H29.5348L24.2679 44.0506Z" fill="#3E3A39"/>
</svg>
