<svg width="576" height="156" viewBox="0 0 576 156" fill="none" xmlns="http://www.w3.org/2000/svg">
<path d="M96.2795 105.78V107.44C96.2795 108.627 96.0862 109.733 95.6995 110.76C95.3129 111.787 94.7395 112.68 93.9795 113.44C93.2195 114.2 92.2995 114.767 91.2195 115.14L90.0795 113.36C91.0262 113.053 91.8262 112.6 92.4795 112C93.1329 111.4 93.6262 110.707 93.9595 109.92C94.2929 109.133 94.4595 108.307 94.4595 107.44V105.78H96.2795ZM96.6595 105.78V107.36C96.6595 108.187 96.8129 108.967 97.1195 109.7C97.4395 110.42 97.9062 111.06 98.5195 111.62C99.1329 112.18 99.8862 112.6 100.78 112.88L99.6195 114.6C98.5929 114.24 97.7262 113.707 97.0195 113C96.3129 112.293 95.7795 111.46 95.4195 110.5C95.0595 109.54 94.8795 108.493 94.8795 107.36V105.78H96.6595ZM104.96 104.82V115.28H102.76V104.82H104.96ZM99.0195 115.76C100.886 115.76 102.353 116.06 103.42 116.66C104.5 117.26 105.04 118.1 105.04 119.18C105.04 120.26 104.506 121.1 103.44 121.7C102.373 122.3 100.9 122.6 99.0195 122.6C97.1395 122.6 95.6595 122.3 94.5795 121.7C93.4995 121.1 92.9595 120.26 92.9595 119.18C92.9595 118.1 93.4995 117.26 94.5795 116.66C95.6595 116.06 97.1395 115.76 99.0195 115.76ZM99.0195 117.46C98.1929 117.46 97.4929 117.527 96.9195 117.66C96.3462 117.793 95.9129 117.987 95.6195 118.24C95.3262 118.493 95.1795 118.807 95.1795 119.18C95.1795 119.553 95.3262 119.867 95.6195 120.12C95.9129 120.373 96.3462 120.567 96.9195 120.7C97.4929 120.833 98.1929 120.9 99.0195 120.9C99.8329 120.9 100.526 120.833 101.1 120.7C101.673 120.567 102.106 120.373 102.4 120.12C102.706 119.867 102.86 119.553 102.86 119.18C102.86 118.807 102.706 118.493 102.4 118.24C102.106 117.987 101.673 117.793 101.1 117.66C100.526 117.527 99.8329 117.46 99.0195 117.46ZM103.14 108.24V110.06H99.2795V108.24H103.14ZM123.8 118.66V120.44H107.68V118.66H123.8ZM116.8 114.46V119.1H114.62V114.46H116.8ZM121.96 106.18V114.78H109.44V106.18H121.96ZM111.6 107.92V113.04H119.82V107.92H111.6Z" fill="#231815"/>
<path d="M46.76 144.04C46.3067 142.493 46.08 141.073 46.08 139.78C46.08 138.487 46.3067 137.067 46.76 135.52C47.2267 133.973 47.82 132.627 48.54 131.48H50.78C49.9667 132.613 49.3 133.953 48.78 135.5C48.26 137.047 48 138.473 48 139.78C48 141.087 48.26 142.513 48.78 144.06C49.3 145.607 49.9667 146.947 50.78 148.08H48.54C47.82 146.933 47.2267 145.587 46.76 144.04ZM68.8859 140.86V142.64H52.7659V140.86H68.8859ZM61.8659 142V148.62H59.6659V142H61.8659ZM60.7659 131.48C62.0193 131.48 63.1259 131.64 64.0859 131.96C65.0459 132.28 65.7926 132.74 66.3259 133.34C66.8593 133.927 67.1259 134.62 67.1259 135.42C67.1259 136.22 66.8593 136.92 66.3259 137.52C65.7926 138.107 65.0459 138.567 64.0859 138.9C63.1259 139.22 62.0193 139.38 60.7659 139.38C59.5259 139.38 58.4259 139.22 57.4659 138.9C56.5059 138.567 55.7593 138.107 55.2259 137.52C54.6926 136.92 54.4259 136.22 54.4259 135.42C54.4259 134.62 54.6926 133.927 55.2259 133.34C55.7593 132.74 56.4993 132.28 57.4459 131.96C58.4059 131.64 59.5126 131.48 60.7659 131.48ZM60.7659 133.22C59.9393 133.22 59.2193 133.307 58.6059 133.48C57.9926 133.653 57.5193 133.907 57.1859 134.24C56.8526 134.573 56.6859 134.967 56.6859 135.42C56.6859 135.887 56.8526 136.287 57.1859 136.62C57.5193 136.953 57.9926 137.207 58.6059 137.38C59.2193 137.553 59.9393 137.64 60.7659 137.64C61.5926 137.64 62.3126 137.553 62.9259 137.38C63.5526 137.207 64.0326 136.953 64.3659 136.62C64.7126 136.287 64.8859 135.887 64.8859 135.42C64.8859 134.967 64.7126 134.573 64.3659 134.24C64.0326 133.907 63.5526 133.653 62.9259 133.48C62.3126 133.307 61.5926 133.22 60.7659 133.22ZM84.9664 130.78V148.64H82.7664V130.78H84.9664ZM72.7664 142.62C74.4731 142.62 75.9864 142.58 77.3064 142.5C78.6264 142.42 79.9797 142.26 81.3664 142.02L81.5864 143.8C80.1731 144.04 78.7864 144.207 77.4264 144.3C76.0797 144.38 74.5264 144.42 72.7664 144.42H71.2264V142.62H72.7664ZM79.5264 132.38V139.06H73.4464V143.32H71.2264V137.3H77.3064V134.14H71.1864V132.38H79.5264ZM101.667 130.82V139.76H99.4669V130.82H101.667ZM104.107 134.38V136.18H100.747V134.38H104.107ZM96.7069 131.7V139H88.3469V131.7H96.7069ZM90.5069 133.42V137.26H94.5469V133.42H90.5069ZM101.667 140.52V145.2H92.3069V147.52H90.1269V143.58H99.5069V142.22H90.0869V140.52H101.667ZM102.227 146.66V148.4H90.1269V146.66H102.227ZM110.927 132.02C111.847 132.02 112.674 132.207 113.407 132.58C114.141 132.94 114.714 133.453 115.127 134.12C115.554 134.773 115.767 135.513 115.767 136.34C115.767 137.167 115.554 137.913 115.127 138.58C114.714 139.233 114.141 139.747 113.407 140.12C112.674 140.48 111.847 140.66 110.927 140.66C110.007 140.66 109.174 140.48 108.427 140.12C107.694 139.747 107.114 139.233 106.687 138.58C106.274 137.927 106.067 137.18 106.067 136.34C106.067 135.513 106.274 134.773 106.687 134.12C107.114 133.453 107.694 132.94 108.427 132.58C109.174 132.207 110.007 132.02 110.927 132.02ZM110.927 133.92C110.407 133.92 109.941 134.02 109.527 134.22C109.114 134.407 108.787 134.687 108.547 135.06C108.321 135.42 108.207 135.847 108.207 136.34C108.207 136.82 108.321 137.247 108.547 137.62C108.787 137.993 109.114 138.28 109.527 138.48C109.941 138.68 110.407 138.78 110.927 138.78C111.434 138.78 111.894 138.68 112.307 138.48C112.721 138.28 113.041 137.993 113.267 137.62C113.507 137.247 113.627 136.82 113.627 136.34C113.627 135.847 113.507 135.42 113.267 135.06C113.041 134.687 112.721 134.407 112.307 134.22C111.907 134.02 111.447 133.92 110.927 133.92ZM119.887 130.78V148.64H117.707V130.78H119.887ZM105.267 143.12C107.507 143.12 109.547 143.087 111.387 143.02C113.227 142.94 114.981 142.773 116.647 142.52L116.807 144.12C115.087 144.453 113.314 144.673 111.487 144.78C109.661 144.873 107.674 144.92 105.527 144.92L105.267 143.12ZM143.417 144.68V146.48H127.297V144.68H143.417ZM136.437 141.02V145.62H134.257V141.02H136.437ZM136.177 134.5V134.88C136.177 136.04 135.871 137.093 135.257 138.04C134.657 138.973 133.797 139.753 132.677 140.38C131.557 140.993 130.251 141.407 128.757 141.62L127.957 139.88C129.251 139.707 130.371 139.38 131.317 138.9C132.264 138.407 132.984 137.813 133.477 137.12C133.984 136.413 134.237 135.667 134.237 134.88V134.5H136.177ZM136.457 134.5V134.88C136.457 135.667 136.704 136.413 137.197 137.12C137.704 137.813 138.431 138.407 139.377 138.9C140.337 139.38 141.464 139.707 142.757 139.88L141.917 141.62C140.437 141.407 139.137 140.993 138.017 140.38C136.911 139.753 136.051 138.967 135.437 138.02C134.837 137.073 134.537 136.027 134.537 134.88V134.5H136.457ZM141.977 133.34V135.12H128.737V133.34H141.977ZM136.437 131.08V134.06H134.257V131.08H136.437ZM150.858 131.78V133.44C150.858 134.627 150.664 135.733 150.278 136.76C149.891 137.787 149.318 138.68 148.558 139.44C147.798 140.2 146.878 140.767 145.798 141.14L144.658 139.36C145.604 139.053 146.404 138.6 147.058 138C147.711 137.4 148.204 136.707 148.538 135.92C148.871 135.133 149.038 134.307 149.038 133.44V131.78H150.858ZM151.238 131.78V133.36C151.238 134.187 151.391 134.967 151.698 135.7C152.018 136.42 152.484 137.06 153.098 137.62C153.711 138.18 154.464 138.6 155.358 138.88L154.198 140.6C153.171 140.24 152.304 139.707 151.598 139C150.891 138.293 150.358 137.46 149.998 136.5C149.638 135.54 149.458 134.493 149.458 133.36V131.78H151.238ZM159.538 130.82V141.28H157.338V130.82H159.538ZM153.598 141.76C155.464 141.76 156.931 142.06 157.998 142.66C159.078 143.26 159.618 144.1 159.618 145.18C159.618 146.26 159.084 147.1 158.018 147.7C156.951 148.3 155.478 148.6 153.598 148.6C151.718 148.6 150.238 148.3 149.158 147.7C148.078 147.1 147.538 146.26 147.538 145.18C147.538 144.1 148.078 143.26 149.158 142.66C150.238 142.06 151.718 141.76 153.598 141.76ZM153.598 143.46C152.771 143.46 152.071 143.527 151.498 143.66C150.924 143.793 150.491 143.987 150.198 144.24C149.904 144.493 149.758 144.807 149.758 145.18C149.758 145.553 149.904 145.867 150.198 146.12C150.491 146.373 150.924 146.567 151.498 146.7C152.071 146.833 152.771 146.9 153.598 146.9C154.411 146.9 155.104 146.833 155.678 146.7C156.251 146.567 156.684 146.373 156.978 146.12C157.284 145.867 157.438 145.553 157.438 145.18C157.438 144.807 157.284 144.493 156.978 144.24C156.684 143.987 156.251 143.793 155.678 143.66C155.104 143.527 154.411 143.46 153.598 143.46ZM157.718 134.24V136.06H153.858V134.24H157.718ZM166.878 135.52C167.331 137.067 167.558 138.487 167.558 139.78C167.558 141.073 167.331 142.493 166.878 144.04C166.425 145.587 165.838 146.933 165.118 148.08H162.878C163.691 146.96 164.351 145.627 164.858 144.08C165.378 142.52 165.638 141.087 165.638 139.78C165.638 138.473 165.378 137.047 164.858 135.5C164.351 133.94 163.691 132.6 162.878 131.48H165.118C165.838 132.627 166.425 133.973 166.878 135.52Z" fill="#231815"/>
<path d="M244.82 113.62V115.36H228.7V113.62H244.82ZM238 114.74V118.64H235.76V114.74H238ZM243.04 120.48V122.26H230.64V120.48H243.04ZM232.86 116.98V120.94H230.64V116.98H232.86ZM236.74 105.18C238.006 105.18 239.113 105.333 240.06 105.64C241.02 105.933 241.76 106.36 242.28 106.92C242.813 107.467 243.08 108.107 243.08 108.84C243.08 109.573 242.813 110.22 242.28 110.78C241.76 111.327 241.02 111.747 240.06 112.04C239.113 112.333 238.006 112.48 236.74 112.48C235.473 112.48 234.36 112.333 233.4 112.04C232.453 111.747 231.713 111.327 231.18 110.78C230.66 110.22 230.4 109.573 230.4 108.84C230.4 108.107 230.66 107.467 231.18 106.92C231.713 106.36 232.46 105.933 233.42 105.64C234.38 105.333 235.486 105.18 236.74 105.18ZM236.74 106.94C235.926 106.94 235.22 107.013 234.62 107.16C234.033 107.307 233.573 107.527 233.24 107.82C232.92 108.1 232.76 108.44 232.76 108.84C232.76 109.24 232.92 109.58 233.24 109.86C233.573 110.14 234.033 110.353 234.62 110.5C235.22 110.647 235.926 110.72 236.74 110.72C237.553 110.72 238.253 110.647 238.84 110.5C239.44 110.353 239.9 110.14 240.22 109.86C240.553 109.58 240.72 109.24 240.72 108.84C240.72 108.44 240.553 108.1 240.22 107.82C239.9 107.527 239.44 107.307 238.84 107.16C238.253 107.013 237.553 106.94 236.74 106.94ZM262.3 118.66V120.44H246.18V118.66H262.3ZM255.3 114.46V119.1H253.12V114.46H255.3ZM260.46 106.18V114.78H247.94V106.18H260.46ZM250.1 107.92V113.04H258.32V107.92H250.1Z" fill="#231815"/>
<path d="M197.76 144.04C197.307 142.493 197.08 141.073 197.08 139.78C197.08 138.487 197.307 137.067 197.76 135.52C198.227 133.973 198.82 132.627 199.54 131.48H201.78C200.967 132.613 200.3 133.953 199.78 135.5C199.26 137.047 199 138.473 199 139.78C199 141.087 199.26 142.513 199.78 144.06C200.3 145.607 200.967 146.947 201.78 148.08H199.54C198.82 146.933 198.227 145.587 197.76 144.04ZM212.886 139.74V142.86H210.686V139.74H212.886ZM219.846 139V140.76H203.766V139H219.846ZM211.786 142.26C213.706 142.26 215.206 142.54 216.286 143.1C217.379 143.647 217.926 144.427 217.926 145.44C217.926 146.44 217.379 147.213 216.286 147.76C215.206 148.32 213.706 148.6 211.786 148.6C209.853 148.6 208.339 148.32 207.246 147.76C206.166 147.213 205.626 146.44 205.626 145.44C205.626 144.427 206.166 143.647 207.246 143.1C208.339 142.54 209.853 142.26 211.786 142.26ZM211.786 143.92C210.493 143.92 209.513 144.047 208.846 144.3C208.179 144.553 207.846 144.933 207.846 145.44C207.846 145.933 208.179 146.307 208.846 146.56C209.513 146.813 210.493 146.94 211.786 146.94C213.066 146.94 214.039 146.813 214.706 146.56C215.373 146.307 215.706 145.933 215.706 145.44C215.706 144.933 215.373 144.553 214.706 144.3C214.039 144.047 213.066 143.92 211.786 143.92ZM212.266 132.42V132.88C212.266 133.787 211.979 134.613 211.406 135.36C210.833 136.107 210.019 136.727 208.966 137.22C207.913 137.7 206.686 138.013 205.286 138.16L204.526 136.44C205.699 136.333 206.719 136.107 207.586 135.76C208.466 135.4 209.139 134.967 209.606 134.46C210.073 133.953 210.306 133.427 210.306 132.88V132.42H212.266ZM213.306 132.42V132.88C213.306 133.44 213.539 133.973 214.006 134.48C214.473 134.973 215.139 135.4 216.006 135.76C216.886 136.107 217.913 136.333 219.086 136.44L218.306 138.16C216.906 138.013 215.679 137.7 214.626 137.22C213.586 136.727 212.779 136.107 212.206 135.36C211.633 134.613 211.346 133.787 211.346 132.88V132.42H213.306ZM218.406 131.6V133.34H205.226V131.6H218.406ZM227.326 131.78V133.44C227.326 134.627 227.133 135.733 226.746 136.76C226.36 137.787 225.786 138.68 225.026 139.44C224.266 140.2 223.346 140.767 222.266 141.14L221.126 139.36C222.073 139.053 222.873 138.6 223.526 138C224.18 137.4 224.673 136.707 225.006 135.92C225.34 135.133 225.506 134.307 225.506 133.44V131.78H227.326ZM227.706 131.78V133.36C227.706 134.187 227.86 134.967 228.166 135.7C228.486 136.42 228.953 137.06 229.566 137.62C230.18 138.18 230.933 138.6 231.826 138.88L230.666 140.6C229.64 140.24 228.773 139.707 228.066 139C227.36 138.293 226.826 137.46 226.466 136.5C226.106 135.54 225.926 134.493 225.926 133.36V131.78H227.706ZM236.006 130.82V141.28H233.806V130.82H236.006ZM230.066 141.76C231.933 141.76 233.4 142.06 234.466 142.66C235.546 143.26 236.086 144.1 236.086 145.18C236.086 146.26 235.553 147.1 234.486 147.7C233.42 148.3 231.946 148.6 230.066 148.6C228.186 148.6 226.706 148.3 225.626 147.7C224.546 147.1 224.006 146.26 224.006 145.18C224.006 144.1 224.546 143.26 225.626 142.66C226.706 142.06 228.186 141.76 230.066 141.76ZM230.066 143.46C229.24 143.46 228.54 143.527 227.966 143.66C227.393 143.793 226.96 143.987 226.666 144.24C226.373 144.493 226.226 144.807 226.226 145.18C226.226 145.553 226.373 145.867 226.666 146.12C226.96 146.373 227.393 146.567 227.966 146.7C228.54 146.833 229.24 146.9 230.066 146.9C230.88 146.9 231.573 146.833 232.146 146.7C232.72 146.567 233.153 146.373 233.446 146.12C233.753 145.867 233.906 145.553 233.906 145.18C233.906 144.807 233.753 144.493 233.446 144.24C233.153 143.987 232.72 143.793 232.146 143.66C231.573 143.527 230.88 143.46 230.066 143.46ZM234.186 134.24V136.06H230.326V134.24H234.186ZM246.347 138.56H251.227V140.68H246.347V145.54H244.247V140.68H239.367V138.56H244.247V133.68H246.347V138.56ZM262.339 137.2V140.42H260.119V137.2H262.339ZM269.299 139.48V141.22H253.219V139.48H269.299ZM261.239 142.38C263.172 142.38 264.679 142.653 265.759 143.2C266.839 143.733 267.379 144.5 267.379 145.5C267.379 146.487 266.839 147.247 265.759 147.78C264.679 148.327 263.172 148.6 261.239 148.6C259.292 148.6 257.779 148.327 256.699 147.78C255.619 147.247 255.079 146.487 255.079 145.5C255.079 144.5 255.619 143.733 256.699 143.2C257.779 142.653 259.292 142.38 261.239 142.38ZM261.239 144.06C259.946 144.06 258.966 144.18 258.299 144.42C257.632 144.66 257.299 145.02 257.299 145.5C257.299 145.98 257.632 146.347 258.299 146.6C258.966 146.84 259.946 146.96 261.239 146.96C262.532 146.96 263.506 146.84 264.159 146.6C264.826 146.36 265.159 145.993 265.159 145.5C265.159 145.02 264.826 144.66 264.159 144.42C263.506 144.18 262.532 144.06 261.239 144.06ZM261.719 132.42V132.88C261.719 133.787 261.432 134.613 260.859 135.36C260.286 136.107 259.472 136.72 258.419 137.2C257.366 137.68 256.139 137.993 254.739 138.14L253.979 136.42C255.152 136.313 256.172 136.087 257.039 135.74C257.919 135.393 258.592 134.967 259.059 134.46C259.526 133.953 259.759 133.427 259.759 132.88V132.42H261.719ZM262.759 132.42V132.88C262.759 133.427 262.992 133.953 263.459 134.46C263.926 134.967 264.592 135.393 265.459 135.74C266.339 136.087 267.366 136.313 268.539 136.42L267.779 138.14C266.379 137.993 265.152 137.68 264.099 137.2C263.046 136.72 262.232 136.107 261.659 135.36C261.086 134.613 260.799 133.787 260.799 132.88V132.42H262.759ZM267.859 131.6V133.34H254.679V131.6H267.859ZM276.78 131.78V133.44C276.78 134.627 276.586 135.733 276.2 136.76C275.813 137.787 275.24 138.68 274.48 139.44C273.72 140.2 272.8 140.767 271.72 141.14L270.58 139.36C271.526 139.053 272.326 138.6 272.98 138C273.633 137.4 274.126 136.707 274.46 135.92C274.793 135.133 274.96 134.307 274.96 133.44V131.78H276.78ZM277.16 131.78V133.36C277.16 134.187 277.313 134.967 277.62 135.7C277.94 136.42 278.406 137.06 279.02 137.62C279.633 138.18 280.386 138.6 281.28 138.88L280.12 140.6C279.093 140.24 278.226 139.707 277.52 139C276.813 138.293 276.28 137.46 275.92 136.5C275.56 135.54 275.38 134.493 275.38 133.36V131.78H277.16ZM285.46 130.82V141.28H283.26V130.82H285.46ZM279.52 141.76C281.386 141.76 282.853 142.06 283.92 142.66C285 143.26 285.54 144.1 285.54 145.18C285.54 146.26 285.006 147.1 283.94 147.7C282.873 148.3 281.4 148.6 279.52 148.6C277.64 148.6 276.16 148.3 275.08 147.7C274 147.1 273.46 146.26 273.46 145.18C273.46 144.1 274 143.26 275.08 142.66C276.16 142.06 277.64 141.76 279.52 141.76ZM279.52 143.46C278.693 143.46 277.993 143.527 277.42 143.66C276.846 143.793 276.413 143.987 276.12 144.24C275.826 144.493 275.68 144.807 275.68 145.18C275.68 145.553 275.826 145.867 276.12 146.12C276.413 146.373 276.846 146.567 277.42 146.7C277.993 146.833 278.693 146.9 279.52 146.9C280.333 146.9 281.026 146.833 281.6 146.7C282.173 146.567 282.606 146.373 282.9 146.12C283.206 145.867 283.36 145.553 283.36 145.18C283.36 144.807 283.206 144.493 282.9 144.24C282.606 143.987 282.173 143.793 281.6 143.66C281.026 143.527 280.333 143.46 279.52 143.46ZM283.64 134.24V136.06H279.78V134.24H283.64ZM292.8 135.52C293.253 137.067 293.48 138.487 293.48 139.78C293.48 141.073 293.253 142.493 292.8 144.04C292.347 145.587 291.76 146.933 291.04 148.08H288.8C289.613 146.96 290.273 145.627 290.78 144.08C291.3 142.52 291.56 141.087 291.56 139.78C291.56 138.473 291.3 137.047 290.78 135.5C290.273 133.94 289.613 132.6 288.8 131.48H291.04C291.76 132.627 292.347 133.973 292.8 135.52Z" fill="#231815"/>
<path d="M60 90H154.5" stroke="black" stroke-width="2"/>
<path d="M171 90H315" stroke="black" stroke-width="2"/>
<path d="M89.632 81H61.664V76.584L81.504 52.584H63.072V47.528H89.056V52.136L69.344 75.944H89.632V81ZM142.624 81H136.8V59.944C136.8 57.2133 136.395 55.2293 135.584 53.992C134.56 52.4987 132.747 51.752 130.144 51.752C124.043 51.752 120.992 55.592 120.992 63.272V81H115.36V34.92H120.992V52.072C123.637 48.488 127.072 46.696 131.296 46.696C135.435 46.696 138.4 47.8267 140.192 50.088C141.813 52.136 142.624 55.272 142.624 59.496V81Z" fill="#231815"/>
<path d="M200.736 63.464C200.736 66.3653 200.331 68.9467 199.52 71.208C198.752 73.4693 197.621 75.3893 196.128 76.968C194.677 78.504 192.907 79.6773 190.816 80.488C188.725 81.256 186.357 81.64 183.712 81.64C181.28 81.64 179.019 81.256 176.928 80.488C174.88 79.6773 173.109 78.504 171.616 76.968C170.123 75.3893 168.949 73.4693 168.096 71.208C167.285 68.9467 166.88 66.3653 166.88 63.464C166.88 59.5813 167.563 56.3173 168.928 53.672C170.293 50.984 172.256 48.936 174.816 47.528C177.376 46.12 180.405 45.416 183.904 45.416C187.189 45.416 190.091 46.12 192.608 47.528C195.125 48.936 197.109 50.984 198.56 53.672C200.011 56.3173 200.736 59.5813 200.736 63.464ZM176.608 63.464C176.608 65.768 176.843 67.7093 177.312 69.288C177.824 70.824 178.613 71.9973 179.68 72.808C180.747 73.576 182.133 73.96 183.84 73.96C185.547 73.96 186.912 73.576 187.936 72.808C189.003 71.9973 189.771 70.824 190.24 69.288C190.752 67.7093 191.008 65.768 191.008 63.464C191.008 61.16 190.752 59.24 190.24 57.704C189.771 56.168 189.003 55.016 187.936 54.248C186.869 53.48 185.483 53.096 183.776 53.096C181.259 53.096 179.424 53.9707 178.272 55.72C177.163 57.4267 176.608 60.008 176.608 63.464ZM194.4 35.624V42.216H173.216V35.624H194.4ZM254.249 81H248.489V59.944C248.489 54.5253 246.377 51.816 242.153 51.816C239.124 51.816 236.628 52.9467 234.665 55.208C233.3 56.7867 232.617 59.5387 232.617 63.464V81H226.985V47.528H232.297V52.264C235.241 48.5947 238.889 46.76 243.241 46.76C247.38 46.76 250.302 47.8907 252.009 50.152C253.502 52.1147 254.249 55.2293 254.249 59.496V81ZM308.82 78.248C308.82 83.88 307.732 88.04 305.556 90.728C303.166 93.672 299.22 95.144 293.716 95.144C285.566 95.144 281.172 91.816 280.532 85.16H286.228C286.868 88.7013 289.406 90.472 293.844 90.472C298.11 90.472 300.905 89.0853 302.228 86.312C303.038 84.6053 303.444 81.2773 303.444 76.328C301.225 79.6987 297.769 81.384 293.076 81.384C288.425 81.384 284.926 79.72 282.58 76.392C280.532 73.4907 279.508 69.608 279.508 64.744C279.508 56.68 282.153 51.2187 287.444 48.36C289.193 47.4213 291.22 46.952 293.524 46.952C297.065 46.952 299.902 48.0187 302.036 50.152C302.292 50.408 302.825 51.048 303.636 52.072V47.848H308.82V78.248ZM303.636 64.104C303.636 60.6907 302.996 57.9173 301.716 55.784C300.137 53.1813 297.748 51.88 294.548 51.88C291.604 51.88 289.428 52.6693 288.02 54.248C286.91 55.528 286.1 57.7253 285.588 60.84C285.374 62.1627 285.268 63.6347 285.268 65.256C285.268 72.9787 288.084 76.84 293.716 76.84C300.329 76.84 303.636 72.5947 303.636 64.104Z" fill="#231815"/>
<path d="M454.888 92.556V107.34H446.536V92.556H454.888ZM488.968 89.676V96.396H412.648V89.676H488.968ZM450.76 104.94C459.848 104.94 466.952 106.22 472.072 108.78C477.192 111.34 479.752 115.02 479.752 119.82C479.752 124.492 477.192 128.108 472.072 130.668C466.952 133.292 459.848 134.604 450.76 134.604C441.672 134.604 434.568 133.292 429.448 130.668C424.328 128.108 421.768 124.492 421.768 119.82C421.768 115.02 424.328 111.34 429.448 108.78C434.568 106.22 441.672 104.94 450.76 104.94ZM450.76 111.276C444.168 111.276 439.08 112.012 435.496 113.484C431.912 114.956 430.12 117.068 430.12 119.82C430.12 122.508 431.912 124.588 435.496 126.06C439.08 127.532 444.168 128.268 450.76 128.268C457.288 128.268 462.344 127.532 465.928 126.06C469.512 124.588 471.304 122.508 471.304 119.82C471.304 117.068 469.512 114.956 465.928 113.484C462.344 112.012 457.288 111.276 450.76 111.276ZM452.776 57.42V59.82C452.776 64.172 451.304 68.108 448.36 71.628C445.416 75.148 441.448 78.06 436.456 80.364C431.464 82.604 425.896 84.076 419.752 84.78L416.776 78.252C421.96 77.74 426.728 76.62 431.08 74.892C435.432 73.1 438.888 70.892 441.448 68.268C444.008 65.644 445.288 62.828 445.288 59.82V57.42H452.776ZM456.328 57.42V59.82C456.328 62.892 457.608 65.74 460.168 68.364C462.728 70.924 466.184 73.1 470.536 74.892C474.888 76.62 479.688 77.74 484.936 78.252L481.864 84.78C475.72 84.076 470.152 82.604 465.16 80.364C460.232 78.06 456.296 75.148 453.352 71.628C450.408 68.108 448.936 64.172 448.936 59.82V57.42H456.328ZM482.056 54.252V60.876H419.656V54.252H482.056Z" fill="#231815"/>
<path d="M534.58 61.5C534.78 61.0733 534.973 60.7 535.16 60.38C535.36 60.06 535.553 59.7933 535.74 59.58H524.08V58.74H535.74C535.553 58.5133 535.36 58.24 535.16 57.92C534.973 57.6 534.78 57.2333 534.58 56.82H535.28C536.12 57.7933 537 58.5133 537.92 58.98V59.34C537 59.7933 536.12 60.5133 535.28 61.5H534.58ZM557.8 63.68V65.48H541.68V63.68H557.8ZM550.82 60.02V64.62H548.64V60.02H550.82ZM550.56 53.5V53.88C550.56 55.04 550.253 56.0933 549.64 57.04C549.04 57.9733 548.18 58.7533 547.06 59.38C545.94 59.9933 544.633 60.4067 543.14 60.62L542.34 58.88C543.633 58.7067 544.753 58.38 545.7 57.9C546.647 57.4067 547.367 56.8133 547.86 56.12C548.367 55.4133 548.62 54.6667 548.62 53.88V53.5H550.56ZM550.84 53.5V53.88C550.84 54.6667 551.087 55.4133 551.58 56.12C552.087 56.8133 552.813 57.4067 553.76 57.9C554.72 58.38 555.847 58.7067 557.14 58.88L556.3 60.62C554.82 60.4067 553.52 59.9933 552.4 59.38C551.293 58.7533 550.433 57.9667 549.82 57.02C549.22 56.0733 548.92 55.0267 548.92 53.88V53.5H550.84ZM556.36 52.34V54.12H543.12V52.34H556.36ZM550.82 50.08V53.06H548.64V50.08H550.82ZM565.24 50.78V52.44C565.24 53.6267 565.047 54.7333 564.66 55.76C564.274 56.7867 563.7 57.68 562.94 58.44C562.18 59.2 561.26 59.7667 560.18 60.14L559.04 58.36C559.987 58.0533 560.787 57.6 561.44 57C562.094 56.4 562.587 55.7067 562.92 54.92C563.254 54.1333 563.42 53.3067 563.42 52.44V50.78H565.24ZM565.62 50.78V52.36C565.62 53.1867 565.774 53.9667 566.08 54.7C566.4 55.42 566.867 56.06 567.48 56.62C568.094 57.18 568.847 57.6 569.74 57.88L568.58 59.6C567.554 59.24 566.687 58.7067 565.98 58C565.274 57.2933 564.74 56.46 564.38 55.5C564.02 54.54 563.84 53.4933 563.84 52.36V50.78H565.62ZM573.92 49.82V60.28H571.72V49.82H573.92ZM567.98 60.76C569.847 60.76 571.314 61.06 572.38 61.66C573.46 62.26 574 63.1 574 64.18C574 65.26 573.467 66.1 572.4 66.7C571.334 67.3 569.86 67.6 567.98 67.6C566.1 67.6 564.62 67.3 563.54 66.7C562.46 66.1 561.92 65.26 561.92 64.18C561.92 63.1 562.46 62.26 563.54 61.66C564.62 61.06 566.1 60.76 567.98 60.76ZM567.98 62.46C567.154 62.46 566.454 62.5267 565.88 62.66C565.307 62.7933 564.874 62.9867 564.58 63.24C564.287 63.4933 564.14 63.8067 564.14 64.18C564.14 64.5533 564.287 64.8667 564.58 65.12C564.874 65.3733 565.307 65.5667 565.88 65.7C566.454 65.8333 567.154 65.9 567.98 65.9C568.794 65.9 569.487 65.8333 570.06 65.7C570.634 65.5667 571.067 65.3733 571.36 65.12C571.667 64.8667 571.82 64.5533 571.82 64.18C571.82 63.8067 571.667 63.4933 571.36 63.24C571.067 62.9867 570.634 62.7933 570.06 62.66C569.487 62.5267 568.794 62.46 567.98 62.46ZM572.1 53.24V55.06H568.24V53.24H572.1Z" fill="#231815"/>
<path d="M534.58 95.5C534.78 95.0733 534.973 94.7 535.16 94.38C535.36 94.06 535.553 93.7933 535.74 93.58H524.08V92.74H535.74C535.553 92.5133 535.36 92.24 535.16 91.92C534.973 91.6 534.78 91.2333 534.58 90.82H535.28C536.12 91.7933 537 92.5133 537.92 92.98V93.34C537 93.7933 536.12 94.5133 535.28 95.5H534.58ZM550.8 92.74V95.86H548.6V92.74H550.8ZM557.76 92V93.76H541.68V92H557.76ZM549.7 95.26C551.62 95.26 553.12 95.54 554.2 96.1C555.293 96.6467 555.84 97.4267 555.84 98.44C555.84 99.44 555.293 100.213 554.2 100.76C553.12 101.32 551.62 101.6 549.7 101.6C547.767 101.6 546.253 101.32 545.16 100.76C544.08 100.213 543.54 99.44 543.54 98.44C543.54 97.4267 544.08 96.6467 545.16 96.1C546.253 95.54 547.767 95.26 549.7 95.26ZM549.7 96.92C548.407 96.92 547.427 97.0467 546.76 97.3C546.093 97.5533 545.76 97.9333 545.76 98.44C545.76 98.9333 546.093 99.3067 546.76 99.56C547.427 99.8133 548.407 99.94 549.7 99.94C550.98 99.94 551.953 99.8133 552.62 99.56C553.287 99.3067 553.62 98.9333 553.62 98.44C553.62 97.9333 553.287 97.5533 552.62 97.3C551.953 97.0467 550.98 96.92 549.7 96.92ZM550.18 85.42V85.88C550.18 86.7867 549.893 87.6133 549.32 88.36C548.747 89.1067 547.933 89.7267 546.88 90.22C545.827 90.7 544.6 91.0133 543.2 91.16L542.44 89.44C543.613 89.3333 544.633 89.1067 545.5 88.76C546.38 88.4 547.053 87.9667 547.52 87.46C547.987 86.9533 548.22 86.4267 548.22 85.88V85.42H550.18ZM551.22 85.42V85.88C551.22 86.44 551.453 86.9733 551.92 87.48C552.387 87.9733 553.053 88.4 553.92 88.76C554.8 89.1067 555.827 89.3333 557 89.44L556.22 91.16C554.82 91.0133 553.593 90.7 552.54 90.22C551.5 89.7267 550.693 89.1067 550.12 88.36C549.547 87.6133 549.26 86.7867 549.26 85.88V85.42H551.22ZM556.32 84.6V86.34H543.14V84.6H556.32ZM565.24 84.78V86.44C565.24 87.6267 565.047 88.7333 564.66 89.76C564.274 90.7867 563.7 91.68 562.94 92.44C562.18 93.2 561.26 93.7667 560.18 94.14L559.04 92.36C559.987 92.0533 560.787 91.6 561.44 91C562.094 90.4 562.587 89.7067 562.92 88.92C563.254 88.1333 563.42 87.3067 563.42 86.44V84.78H565.24ZM565.62 84.78V86.36C565.62 87.1867 565.774 87.9667 566.08 88.7C566.4 89.42 566.867 90.06 567.48 90.62C568.094 91.18 568.847 91.6 569.74 91.88L568.58 93.6C567.554 93.24 566.687 92.7067 565.98 92C565.274 91.2933 564.74 90.46 564.38 89.5C564.02 88.54 563.84 87.4933 563.84 86.36V84.78H565.62ZM573.92 83.82V94.28H571.72V83.82H573.92ZM567.98 94.76C569.847 94.76 571.314 95.06 572.38 95.66C573.46 96.26 574 97.1 574 98.18C574 99.26 573.467 100.1 572.4 100.7C571.334 101.3 569.86 101.6 567.98 101.6C566.1 101.6 564.62 101.3 563.54 100.7C562.46 100.1 561.92 99.26 561.92 98.18C561.92 97.1 562.46 96.26 563.54 95.66C564.62 95.06 566.1 94.76 567.98 94.76ZM567.98 96.46C567.154 96.46 566.454 96.5267 565.88 96.66C565.307 96.7933 564.874 96.9867 564.58 97.24C564.287 97.4933 564.14 97.8067 564.14 98.18C564.14 98.5533 564.287 98.8667 564.58 99.12C564.874 99.3733 565.307 99.5667 565.88 99.7C566.454 99.8333 567.154 99.9 567.98 99.9C568.794 99.9 569.487 99.8333 570.06 99.7C570.634 99.5667 571.067 99.3733 571.36 99.12C571.667 98.8667 571.82 98.5533 571.82 98.18C571.82 97.8067 571.667 97.4933 571.36 97.24C571.067 96.9867 570.634 96.7933 570.06 96.66C569.487 96.5267 568.794 96.46 567.98 96.46ZM572.1 87.24V89.06H568.24V87.24H572.1Z" fill="#231815"/>
<path d="M534.58 129.5C534.78 129.073 534.973 128.7 535.16 128.38C535.36 128.06 535.553 127.793 535.74 127.58H524.08V126.74H535.74C535.553 126.513 535.36 126.24 535.16 125.92C534.973 125.6 534.78 125.233 534.58 124.82H535.28C536.12 125.793 537 126.513 537.92 126.98V127.34C537 127.793 536.12 128.513 535.28 129.5H534.58ZM550.8 124.2V127.42H548.58V124.2H550.8ZM557.76 126.48V128.22H541.68V126.48H557.76ZM549.7 129.38C551.633 129.38 553.14 129.653 554.22 130.2C555.3 130.733 555.84 131.5 555.84 132.5C555.84 133.487 555.3 134.247 554.22 134.78C553.14 135.327 551.633 135.6 549.7 135.6C547.753 135.6 546.24 135.327 545.16 134.78C544.08 134.247 543.54 133.487 543.54 132.5C543.54 131.5 544.08 130.733 545.16 130.2C546.24 129.653 547.753 129.38 549.7 129.38ZM549.7 131.06C548.407 131.06 547.427 131.18 546.76 131.42C546.093 131.66 545.76 132.02 545.76 132.5C545.76 132.98 546.093 133.347 546.76 133.6C547.427 133.84 548.407 133.96 549.7 133.96C550.993 133.96 551.967 133.84 552.62 133.6C553.287 133.36 553.62 132.993 553.62 132.5C553.62 132.02 553.287 131.66 552.62 131.42C551.967 131.18 550.993 131.06 549.7 131.06ZM550.18 119.42V119.88C550.18 120.787 549.893 121.613 549.32 122.36C548.747 123.107 547.933 123.72 546.88 124.2C545.827 124.68 544.6 124.993 543.2 125.14L542.44 123.42C543.613 123.313 544.633 123.087 545.5 122.74C546.38 122.393 547.053 121.967 547.52 121.46C547.987 120.953 548.22 120.427 548.22 119.88V119.42H550.18ZM551.22 119.42V119.88C551.22 120.427 551.453 120.953 551.92 121.46C552.387 121.967 553.053 122.393 553.92 122.74C554.8 123.087 555.827 123.313 557 123.42L556.24 125.14C554.84 124.993 553.613 124.68 552.56 124.2C551.507 123.72 550.693 123.107 550.12 122.36C549.547 121.613 549.26 120.787 549.26 119.88V119.42H551.22ZM556.32 118.6V120.34H543.14V118.6H556.32ZM565.24 118.78V120.44C565.24 121.627 565.047 122.733 564.66 123.76C564.274 124.787 563.7 125.68 562.94 126.44C562.18 127.2 561.26 127.767 560.18 128.14L559.04 126.36C559.987 126.053 560.787 125.6 561.44 125C562.094 124.4 562.587 123.707 562.92 122.92C563.254 122.133 563.42 121.307 563.42 120.44V118.78H565.24ZM565.62 118.78V120.36C565.62 121.187 565.774 121.967 566.08 122.7C566.4 123.42 566.867 124.06 567.48 124.62C568.094 125.18 568.847 125.6 569.74 125.88L568.58 127.6C567.554 127.24 566.687 126.707 565.98 126C565.274 125.293 564.74 124.46 564.38 123.5C564.02 122.54 563.84 121.493 563.84 120.36V118.78H565.62ZM573.92 117.82V128.28H571.72V117.82H573.92ZM567.98 128.76C569.847 128.76 571.314 129.06 572.38 129.66C573.46 130.26 574 131.1 574 132.18C574 133.26 573.467 134.1 572.4 134.7C571.334 135.3 569.86 135.6 567.98 135.6C566.1 135.6 564.62 135.3 563.54 134.7C562.46 134.1 561.92 133.26 561.92 132.18C561.92 131.1 562.46 130.26 563.54 129.66C564.62 129.06 566.1 128.76 567.98 128.76ZM567.98 130.46C567.154 130.46 566.454 130.527 565.88 130.66C565.307 130.793 564.874 130.987 564.58 131.24C564.287 131.493 564.14 131.807 564.14 132.18C564.14 132.553 564.287 132.867 564.58 133.12C564.874 133.373 565.307 133.567 565.88 133.7C566.454 133.833 567.154 133.9 567.98 133.9C568.794 133.9 569.487 133.833 570.06 133.7C570.634 133.567 571.067 133.373 571.36 133.12C571.667 132.867 571.82 132.553 571.82 132.18C571.82 131.807 571.667 131.493 571.36 131.24C571.067 130.987 570.634 130.793 570.06 130.66C569.487 130.527 568.794 130.46 567.98 130.46ZM572.1 121.24V123.06H568.24V121.24H572.1Z" fill="#231815"/>
<path d="M190 28.4997C190 27 190.5 21 196 18.5C203.124 15.2614 204.5 24.4997 199 24.4997C193.5 24.4997 193.5 14 207.5 13.5M207.5 13.5L204 11M207.5 13.5L205.5 17.5" stroke="black" stroke-linecap="round" stroke-linejoin="round"/>
<path d="M222.76 4.78V6.44C222.76 7.62667 222.567 8.73333 222.18 9.76C221.793 10.7867 221.22 11.68 220.46 12.44C219.7 13.2 218.78 13.7667 217.7 14.14L216.56 12.36C217.507 12.0533 218.307 11.6 218.96 11C219.613 10.4 220.107 9.70667 220.44 8.92C220.773 8.13333 220.94 7.30667 220.94 6.44V4.78H222.76ZM223.14 4.78V6.36C223.14 7.18667 223.293 7.96667 223.6 8.7C223.92 9.42 224.387 10.06 225 10.62C225.613 11.18 226.367 11.6 227.26 11.88L226.1 13.6C225.073 13.24 224.207 12.7067 223.5 12C222.793 11.2933 222.26 10.46 221.9 9.5C221.54 8.54 221.36 7.49333 221.36 6.36V4.78H223.14ZM231.44 3.82V14.28H229.24V3.82H231.44ZM225.5 14.76C227.367 14.76 228.833 15.06 229.9 15.66C230.98 16.26 231.52 17.1 231.52 18.18C231.52 19.26 230.987 20.1 229.92 20.7C228.853 21.3 227.38 21.6 225.5 21.6C223.62 21.6 222.14 21.3 221.06 20.7C219.98 20.1 219.44 19.26 219.44 18.18C219.44 17.1 219.98 16.26 221.06 15.66C222.14 15.06 223.62 14.76 225.5 14.76ZM225.5 16.46C224.673 16.46 223.973 16.5267 223.4 16.66C222.827 16.7933 222.393 16.9867 222.1 17.24C221.807 17.4933 221.66 17.8067 221.66 18.18C221.66 18.5533 221.807 18.8667 222.1 19.12C222.393 19.3733 222.827 19.5667 223.4 19.7C223.973 19.8333 224.673 19.9 225.5 19.9C226.313 19.9 227.007 19.8333 227.58 19.7C228.153 19.5667 228.587 19.3733 228.88 19.12C229.187 18.8667 229.34 18.5533 229.34 18.18C229.34 17.8067 229.187 17.4933 228.88 17.24C228.587 16.9867 228.153 16.7933 227.58 16.66C227.007 16.5267 226.313 16.46 225.5 16.46ZM229.62 7.24V9.06H225.76V7.24H229.62ZM250.28 17.66V19.46H234.16V17.66H250.28ZM243.32 13.58V18.18H241.12V13.58H243.32ZM242.92 6.1V6.92C242.92 8.13333 242.607 9.25333 241.98 10.28C241.367 11.2933 240.514 12.1533 239.42 12.86C238.34 13.5533 237.107 14.0333 235.72 14.3L234.84 12.56C236.027 12.3733 237.094 12 238.04 11.44C238.987 10.88 239.727 10.2 240.26 9.4C240.794 8.6 241.06 7.77333 241.06 6.92V6.1H242.92ZM243.34 6.1V6.92C243.34 7.77333 243.607 8.59333 244.14 9.38C244.687 10.1667 245.44 10.8333 246.4 11.38C247.36 11.9267 248.44 12.2933 249.64 12.48L248.78 14.22C247.38 13.9533 246.127 13.48 245.02 12.8C243.927 12.12 243.067 11.2733 242.44 10.26C241.814 9.24667 241.5 8.13333 241.5 6.92V6.1H243.34ZM248.9 5.26V7.02H235.5V5.26H248.9Z" fill="#231815"/>
<path d="M21.7188 49.5C21.6146 52.4167 21.5625 55.1771 21.5625 57.7812H35.1562C35.0521 59.8646 35 62.7292 35 66.375C35 69.9167 35.0521 72.5729 35.1562 74.3438H31.7188V72H21.5625V78.7188C21.5625 79.9688 21.6146 82.3125 21.7188 85.75H17.9688C18.1771 83.875 18.2812 81.6875 18.2812 79.1875V72H8.125V74.3438H4.6875C4.79167 72.7812 4.84375 70.125 4.84375 66.375C4.84375 62.5208 4.79167 59.6562 4.6875 57.7812H18.2812C18.2812 54.9688 18.2292 52.2083 18.125 49.5H21.7188ZM31.7188 69.5V60.2812H21.5625V69.5H31.7188ZM18.2812 69.5V60.2812H8.125V69.5H18.2812Z" fill="black"/>
</svg>
