<svg width="457" height="52" viewBox="0 0 457 52" fill="none" xmlns="http://www.w3.org/2000/svg">
<path d="M1.64235 27.0381C1.87799 23.9129 4.47993 21.5006 7.61448 21.5012L447.862 21.5858L452.462 31.0867L455.663 39.6113C456.143 40.8903 456.173 42.294 455.748 43.5906L454.663 46.9002C454.528 47.3101 454.146 47.587 453.714 47.5869L6.58076 47.501C3.08498 47.5003 0.323975 44.5233 0.586767 41.038L1.64235 27.0381Z" fill="#F6F087"/>
<path d="M1.64235 27.0381C1.87799 23.9129 4.47993 21.5006 7.61448 21.5012L447.862 21.5858L452.462 31.0867L455.663 39.6113C456.143 40.8903 456.173 42.294 455.748 43.5906L454.663 46.9002C454.528 47.3101 454.146 47.587 453.714 47.5869L6.58076 47.501C3.08498 47.5003 0.323975 44.5233 0.586767 41.038L1.64235 27.0381Z" fill="url(#paint0_linear_1985_3486)" fill-opacity="0.2"/>
<path d="M11.2491 14.08V9.76H31.0891V14.08H23.8891V18.32C23.8891 21.44 24.3691 23.08 26.7691 25.68C28.4891 27.56 30.5691 29.6 32.5691 31.4L29.3291 34.76C27.6091 33.16 25.8491 31.4 24.3691 29.88C22.8491 28.32 21.6891 27 21.4091 26.36H21.3291C20.9691 27.12 19.6091 28.68 18.2891 30.04C16.8091 31.6 15.2891 33.12 13.0891 35.16L9.76906 31.76C11.9291 29.84 13.9691 27.84 15.6891 25.96C18.0491 23.32 18.7691 21.64 18.7691 18.32V14.08H11.2491ZM40.7691 6.56V43.76H35.6891V6.56H40.7691ZM73.3831 6.56V14.8H78.2631V19.2H73.3831V28.8H68.3431V6.56H73.3831ZM62.1031 44.88C55.3031 44.88 50.7031 42 50.7031 37.72V36.12C50.7031 31.84 55.3031 28.96 62.1031 28.96C68.9031 28.96 73.5031 31.84 73.5031 36.12V37.72C73.5031 42 68.9031 44.88 62.1031 44.88ZM62.1031 33.08C58.0631 33.08 55.6631 34.88 55.6631 36.44V37.4C55.6631 38.96 58.0631 40.76 62.1031 40.76C66.1431 40.76 68.5431 38.96 68.5431 37.4V36.44C68.5431 34.88 66.1431 33.08 62.1031 33.08ZM62.9031 8.28V26.4H45.3031V8.28H50.2631V13.6H57.9431V8.28H62.9031ZM50.2631 17.8V22.2H57.9431V17.8H50.2631ZM89.3972 14.12V9.8H109.157V14.12H101.997V18.24C101.997 21.36 102.477 23 104.877 25.6C106.597 27.48 108.677 29.52 110.677 31.32L107.437 34.68C105.717 33.08 103.957 31.32 102.477 29.8C100.957 28.24 99.7972 26.92 99.5172 26.28H99.4372C99.0772 27.04 97.7172 28.6 96.3972 29.96C94.9172 31.52 93.3972 33.04 91.1972 35.08L87.8772 31.68C90.0372 29.76 92.0772 27.76 93.7972 25.88C96.1572 23.24 96.8772 21.56 96.8772 18.24V14.12H89.3972ZM117.797 6.56V19.92H122.917V24.32H117.797V43.76H112.717V6.56H117.797ZM124.211 16V11.68H132.051V6.76H137.171V11.68H144.651V16H137.171V19.08C137.171 22.2 137.931 24.04 140.091 26.36C141.531 27.92 143.851 30.2 145.851 32L142.611 35.36C140.931 33.76 139.131 32 137.651 30.48C136.051 28.84 134.931 27.6 134.691 26.96H134.611C134.251 27.72 132.891 29.28 131.571 30.64C130.091 32.2 128.571 33.72 126.371 35.76L123.051 32.36C125.211 30.44 127.251 28.44 128.971 26.56C131.331 23.92 132.051 22.28 132.051 19.08V16H124.211ZM154.011 6.56V43.76H148.931V6.56H154.011ZM196.625 6.56V15.8H201.505V20.2H196.625V33.04H191.585V6.56H196.625ZM178.545 30.96V39.04H197.505V43.36H173.465V30.96H178.545ZM168.625 27.08V8.84H186.025V13.2H173.625V22.76C179.225 22.76 183.385 22.68 188.545 22.12L188.985 26.36C184.145 27 178.905 27.08 168.625 27.08ZM202.079 16.28V12H208.359V7.4H213.279V12H219.199V16.28H213.279V19.52C213.279 22.24 213.919 23.64 215.559 25.68C217.039 27.56 219.079 29.72 220.799 31.4L217.479 34.52C215.959 32.92 214.319 31.2 213.119 29.76C212.159 28.64 211.319 27.64 211.039 27H210.999C210.759 27.64 209.879 28.72 208.879 29.92C207.559 31.52 205.719 33.56 204.079 35.2L200.759 31.88C202.399 30.28 204.479 28.04 205.999 26.12C207.719 23.96 208.359 22.52 208.359 19.56V16.28H202.079ZM221.719 41.96V24.08H217.199V19.68H221.719V7.32H226.519V41.96H221.719ZM233.959 6.56V43.76H229.159V6.56H233.959ZM267.373 6.56V43.76H262.373V6.56H267.373ZM248.173 27.24C242.173 27.24 238.093 23.32 238.093 18.84V17.24C238.093 12.76 242.173 8.84 248.173 8.84C254.173 8.84 258.253 12.76 258.253 17.24V18.84C258.253 23.32 254.173 27.24 248.173 27.24ZM248.173 13.16C244.933 13.16 242.893 15.32 242.893 17.52V18.56C242.893 20.76 244.933 22.92 248.173 22.92C251.413 22.92 253.453 20.76 253.453 18.56V17.52C253.453 15.32 251.413 13.16 248.173 13.16ZM236.693 36.2V31.84C248.933 31.84 255.693 31.64 260.453 31.16L260.813 35.48C256.213 36.04 248.973 36.2 236.693 36.2ZM309.868 6.56V14.8H314.748V19.2H309.868V28.8H304.828V6.56H309.868ZM298.588 44.88C291.788 44.88 287.188 42 287.188 37.72V36.12C287.188 31.84 291.788 28.96 298.588 28.96C305.388 28.96 309.988 31.84 309.988 36.12V37.72C309.988 42 305.388 44.88 298.588 44.88ZM298.588 33.08C294.548 33.08 292.148 34.88 292.148 36.44V37.4C292.148 38.96 294.548 40.76 298.588 40.76C302.628 40.76 305.028 38.96 305.028 37.4V36.44C305.028 34.88 302.628 33.08 298.588 33.08ZM299.388 8.28V26.4H281.788V8.28H286.748V13.6H294.428V8.28H299.388ZM286.748 17.8V22.2H294.428V17.8H286.748ZM339.202 7.32V19.6H342.402V6.56H347.202V43.76H342.402V23.96H339.202V41.96H334.402V7.32H339.202ZM315.642 14.44V10.12H332.242V14.44H326.522V19.16C326.522 21.88 327.162 23.28 328.802 25.32C330.282 27.2 332.322 29.36 334.042 31.04L330.722 34.16C329.202 32.56 327.562 30.84 326.362 29.4C325.402 28.28 324.562 27.28 324.282 26.64H324.242C324.002 27.28 323.122 28.36 322.122 29.56C320.802 31.16 318.962 33.2 317.322 34.84L314.002 31.52C315.642 29.92 317.722 27.68 319.242 25.76C320.962 23.6 321.602 22.16 321.602 19.2V14.44H315.642ZM378.736 5.72V9.2H389.776V13.24H362.656V9.2H373.656V5.72H378.736ZM376.216 26.04C369.296 26.04 364.896 24.24 364.896 20.88V19.6C364.896 16.24 369.296 14.44 376.216 14.44C383.136 14.44 387.536 16.24 387.536 19.6V20.88C387.536 24.24 383.136 26.04 376.216 26.04ZM376.216 18.28C371.976 18.28 369.896 19.08 369.896 20.08V20.4C369.896 21.4 371.976 22.2 376.216 22.2C380.456 22.2 382.536 21.4 382.536 20.4V20.08C382.536 19.08 380.456 18.28 376.216 18.28ZM359.176 27.48H393.256V31.56H379.296V36.16H374.256V31.56H359.176V27.48ZM369.016 33.8V39.32H389.216V43.44H363.976V33.8H369.016ZM400.03 20.88V25.04C405.63 25.04 410.23 24.96 415.11 24.48L415.55 28.68C410.95 29.2 405.27 29.28 395.07 29.28V16.8H406.15V12.68H395.07V8.44H411.11V20.88H400.03ZM419.47 33.24V22.6H413.51V18.32H419.47V15.72H413.51V11.44H419.47V6.56H424.47V33.24H419.47ZM405.87 32.16V39.08H425.07V43.4H400.79V32.16H405.87Z" fill="#B44A41"/>
<defs>
<linearGradient id="paint0_linear_1985_3486" x1="0.750819" y1="34.4532" x2="450.996" y2="32.7291" gradientUnits="userSpaceOnUse">
<stop stop-color="#D4DA70"/>
<stop offset="1" stop-color="#F6F087"/>
</linearGradient>
</defs>
</svg>
