<svg width="449" height="52" viewBox="0 0 449 52" fill="none" xmlns="http://www.w3.org/2000/svg">
<path d="M1.24594 27.1551C1.42663 23.9809 4.05228 21.5021 7.23183 21.504L340.872 21.6976L344.377 31.1996L346.941 40.1571C347.23 41.1688 347.249 42.2385 346.995 43.2589L346.077 46.943C345.966 47.3881 345.566 47.7003 345.107 47.7L6.44379 47.5035C2.99429 47.5015 0.253005 44.5983 0.449031 41.1546L1.24594 27.1551Z" fill="#F6F087"/>
<path d="M1.24594 27.1551C1.42663 23.9809 4.05228 21.5021 7.23183 21.504L340.872 21.6976L344.377 31.1996L346.941 40.1571C347.23 41.1688 347.249 42.2385 346.995 43.2589L346.077 46.943C345.966 47.3881 345.566 47.7003 345.107 47.7L6.44379 47.5035C2.99429 47.5015 0.253005 44.5983 0.449031 41.1546L1.24594 27.1551Z" fill="url(#paint0_linear_1034_166972)" fill-opacity="0.2"/>
<path d="M22.55 6.08V10.08H30.59V14.32H9.31V10.08H17.51V6.08H22.55ZM38.43 6.56V15.88H43.31V20.28H38.43V29.84H33.39V6.56H38.43ZM14.71 35.76V31.52H38.43V44.24H33.39V35.76H14.71ZM20.03 29.48C14.43 29.48 11.19 26.64 11.19 23.12V21.84C11.19 18.32 14.43 15.48 20.03 15.48C25.63 15.48 28.87 18.32 28.87 21.84V23.12C28.87 26.64 25.63 29.48 20.03 29.48ZM20.03 19.44C17.35 19.44 15.95 20.84 15.95 22.08V22.88C15.95 24.12 17.35 25.52 20.03 25.52C22.71 25.52 24.11 24.12 24.11 22.88V22.08C24.11 20.84 22.71 19.44 20.03 19.44ZM43.3241 34.84H50.6041V22.48H55.5241V34.84H59.0841V22.48H64.0041V34.84H77.4041V39.08H43.3241V34.84ZM71.8041 30.92L66.8841 30.28C67.8041 25.28 67.9241 21.12 67.9241 16.4V14.04H47.4041V9.68H72.8841V15.08C72.8841 21.04 72.6841 26 71.8041 30.92ZM86.6181 34.72C80.9781 34.72 78.3381 30.92 78.3381 24.2V19.88C78.3381 13.16 80.9781 9.36 86.6181 9.36C92.2181 9.36 94.8581 13.16 94.8981 19.84H97.8581V7.32H102.658V41.96H97.8581V24.2H94.8981C94.8981 30.92 92.2581 34.72 86.6181 34.72ZM110.178 6.56V43.76H105.378V6.56H110.178ZM86.6181 13.76C83.8581 13.76 82.9781 16.08 82.9781 20.44V23.64C82.9781 28 83.8581 30.32 86.6181 30.32C89.3781 30.32 90.2581 28 90.2581 23.64V20.44C90.2581 16.08 89.3781 13.76 86.6181 13.76ZM131.152 22.16V17.76H138.472V6.56H143.552V43.76H138.472V22.16H131.152ZM128.832 25.28C130.552 27.16 132.632 29.2 134.712 31.08L131.472 34.48C129.672 32.8 127.912 31.04 126.432 29.52C124.912 27.96 123.752 26.64 123.472 25.96H123.392C123.152 26.68 121.712 28.32 120.392 29.68C118.912 31.24 117.352 32.76 115.072 34.88L111.752 31.44C113.992 29.44 116.032 27.44 117.752 25.56C120.072 23 120.832 21.04 120.832 17.76V9.2H125.992V17.76C125.992 20.92 126.432 22.68 128.832 25.28ZM178.006 6.56V43.76H173.006V6.56H178.006ZM158.806 27.24C152.806 27.24 148.726 23.32 148.726 18.84V17.24C148.726 12.76 152.806 8.84 158.806 8.84C164.806 8.84 168.886 12.76 168.886 17.24V18.84C168.886 23.32 164.806 27.24 158.806 27.24ZM158.806 13.16C155.566 13.16 153.526 15.32 153.526 17.52V18.56C153.526 20.76 155.566 22.92 158.806 22.92C162.046 22.92 164.086 20.76 164.086 18.56V17.52C164.086 15.32 162.046 13.16 158.806 13.16ZM147.326 36.2V31.84C159.566 31.84 166.326 31.64 171.086 31.16L171.446 35.48C166.846 36.04 159.606 36.2 147.326 36.2ZM220.5 6.56V14.8H225.38V19.2H220.5V28.8H215.46V6.56H220.5ZM209.22 44.88C202.42 44.88 197.82 42 197.82 37.72V36.12C197.82 31.84 202.42 28.96 209.22 28.96C216.02 28.96 220.62 31.84 220.62 36.12V37.72C220.62 42 216.02 44.88 209.22 44.88ZM209.22 33.08C205.18 33.08 202.78 34.88 202.78 36.44V37.4C202.78 38.96 205.18 40.76 209.22 40.76C213.26 40.76 215.66 38.96 215.66 37.4V36.44C215.66 34.88 213.26 33.08 209.22 33.08ZM210.02 8.28V26.4H192.42V8.28H197.38V13.6H205.06V8.28H210.02ZM197.38 17.8V22.2H205.06V17.8H197.38ZM249.834 7.32V19.6H253.034V6.56H257.834V43.76H253.034V23.96H249.834V41.96H245.034V7.32H249.834ZM226.274 14.44V10.12H242.874V14.44H237.154V19.16C237.154 21.88 237.794 23.28 239.434 25.32C240.914 27.2 242.954 29.36 244.674 31.04L241.354 34.16C239.834 32.56 238.194 30.84 236.994 29.4C236.034 28.28 235.194 27.28 234.914 26.64H234.874C234.634 27.28 233.754 28.36 232.754 29.56C231.434 31.16 229.594 33.2 227.954 34.84L224.634 31.52C226.274 29.92 228.354 27.68 229.874 25.76C231.594 23.6 232.234 22.16 232.234 19.2V14.44H226.274ZM289.368 5.72V9.2H300.408V13.24H273.288V9.2H284.288V5.72H289.368ZM286.848 26.04C279.928 26.04 275.528 24.24 275.528 20.88V19.6C275.528 16.24 279.928 14.44 286.848 14.44C293.768 14.44 298.168 16.24 298.168 19.6V20.88C298.168 24.24 293.768 26.04 286.848 26.04ZM286.848 18.28C282.608 18.28 280.528 19.08 280.528 20.08V20.4C280.528 21.4 282.608 22.2 286.848 22.2C291.088 22.2 293.168 21.4 293.168 20.4V20.08C293.168 19.08 291.088 18.28 286.848 18.28ZM269.808 27.48H303.888V31.56H289.928V36.16H284.888V31.56H269.808V27.48ZM279.648 33.8V39.32H299.848V43.44H274.608V33.8H279.648ZM310.663 20.88V25.04C316.263 25.04 320.863 24.96 325.743 24.48L326.183 28.68C321.583 29.2 315.903 29.28 305.703 29.28V16.8H316.783V12.68H305.703V8.44H321.743V20.88H310.663ZM330.103 33.24V22.6H324.143V18.32H330.103V15.72H324.143V11.44H330.103V6.56H335.103V33.24H330.103ZM316.503 32.16V39.08H335.703V43.4H311.423V32.16H316.503Z" fill="#B44A41"/>
<defs>
<linearGradient id="paint0_linear_1034_166972" x1="0.577468" y1="34.4534" x2="343.264" y2="33.2955" gradientUnits="userSpaceOnUse">
<stop stop-color="#D4DA70"/>
<stop offset="1" stop-color="#F6F087"/>
</linearGradient>
</defs>
</svg>
