<svg width="301" height="63" viewBox="0 0 301 63" fill="none" xmlns="http://www.w3.org/2000/svg">
<path d="M285.893 57.4997L0.22288 62.5063L4.17207 51.5508L0.142701 41.7258L3.99143 29.7858L0.0640387 22.8273L4.16885 13.8383L0 5.20931L296.162 0C296.162 0 299.73 1.16609 300.459 6.10234C300.752 8.05184 294.613 11.8763 294.827 14.7745C295.077 18.2019 298.868 21.7398 298.891 26.6842L292.778 41.1489L295.046 48.4853L285.873 57.4484L285.893 57.4997Z" fill="#C7C7E4"/>
<path d="M24.7622 33.0592H48.2822V43.2992H29.8422V45.8192H49.4022V49.8192H24.9622V39.4992H43.4022V37.0192H24.7622V33.0592ZM18.9622 19.5392V15.3392H26.4822V11.6592H31.5222V15.3392H38.6822V19.5392H31.5222V20.5792C31.5222 22.4192 32.0022 23.3792 34.3622 24.9792C35.8822 26.0192 37.8822 27.2592 39.7222 28.3392L37.2022 31.8592C35.4822 30.8192 33.8822 29.8192 32.2422 28.7392C30.5622 27.6192 29.5622 26.8592 29.3222 26.4192H29.2822C29.0822 26.8992 28.0822 27.7792 26.3222 29.0592C24.6822 30.2592 22.6022 31.6592 20.4022 33.0592L17.7222 29.3792C20.2822 27.7792 22.6822 26.1392 24.4022 24.7392C26.0422 23.4192 26.4822 22.4192 26.4822 20.5792V19.5392H18.9622ZM48.2822 12.2592V31.3792H43.2422V25.4592H37.4422V21.2592H43.2422V12.2592H48.2822ZM53.2963 19.8192V15.4992H73.0163V19.8192H65.8963V23.9392C65.8963 27.0592 66.3763 28.6992 68.7763 31.2992C70.4963 33.1792 72.5763 35.2192 74.5763 37.0192L71.3363 40.3792C69.6163 38.7792 67.8563 37.0192 66.3763 35.4992C64.8563 33.9392 63.6963 32.6192 63.4162 31.9792H63.3363C62.9763 32.7392 61.6163 34.2992 60.2963 35.6592C58.8163 37.2192 57.2963 38.7392 55.0963 40.7792L51.7763 37.3792C53.9363 35.4592 55.9763 33.4592 57.6963 31.5792C60.0563 28.9392 60.7763 27.2592 60.7763 23.9392V19.8192H53.2963ZM71.2163 29.1392V24.7392H78.1363V12.2592H83.2163V49.4592H78.1363V29.1392H71.2163ZM115.75 12.2592V23.0192H120.63V27.4192H115.75V39.2192H110.71V12.2592H115.75ZM97.6703 38.7392V44.7792H116.63V49.0992H92.5903V38.7392H97.6703ZM99.8703 11.9392V15.9792H107.91V20.2592H86.6303V15.9792H94.8303V11.9392H99.8703ZM97.3503 36.5392C91.7503 36.5392 88.4703 33.4592 88.4703 29.8592V28.3392C88.4703 24.7392 91.7503 21.6592 97.3503 21.6592C102.95 21.6592 106.23 24.7392 106.23 28.3392V29.8592C106.23 33.4592 102.95 36.5392 97.3503 36.5392ZM97.3503 25.6192C94.6703 25.6192 93.2303 27.2592 93.2303 28.6192V29.5792C93.2303 30.9392 94.6703 32.5792 97.3503 32.5792C100.03 32.5792 101.47 30.9392 101.47 29.5792V28.6192C101.47 27.2592 100.03 25.6192 97.3503 25.6192ZM160.164 12.2592V20.4992H165.044V24.8992H160.164V34.4992H155.124V12.2592H160.164ZM148.884 50.5792C142.084 50.5792 137.484 47.6992 137.484 43.4192V41.8192C137.484 37.5392 142.084 34.6592 148.884 34.6592C155.684 34.6592 160.284 37.5392 160.284 41.8192V43.4192C160.284 47.6992 155.684 50.5792 148.884 50.5792ZM148.884 38.7792C144.844 38.7792 142.444 40.5792 142.444 42.1392V43.0992C142.444 44.6592 144.844 46.4592 148.884 46.4592C152.924 46.4592 155.324 44.6592 155.324 43.0992V42.1392C155.324 40.5792 152.924 38.7792 148.884 38.7792ZM149.684 13.9792V32.0992H132.084V13.9792H137.044V19.2992H144.724V13.9792H149.684ZM137.044 23.4992V27.8992H144.724V23.4992H137.044ZM189.498 13.0192V25.2992H192.698V12.2592H197.498V49.4592H192.698V29.6592H189.498V47.6592H184.698V13.0192H189.498ZM165.938 20.1392V15.8192H182.538V20.1392H176.818V24.8592C176.818 27.5792 177.458 28.9792 179.098 31.0192C180.578 32.8992 182.618 35.0592 184.338 36.7392L181.018 39.8592C179.498 38.2592 177.858 36.5392 176.658 35.0992C175.698 33.9792 174.858 32.9792 174.578 32.3392H174.538C174.298 32.9792 173.418 34.0592 172.418 35.2592C171.098 36.8592 169.258 38.8992 167.618 40.5392L164.298 37.2192C165.938 35.6192 168.018 33.3792 169.538 31.4592C171.258 29.2992 171.898 27.8592 171.898 24.8992V20.1392H165.938ZM229.033 11.4192V14.8992H240.073V18.9392H212.953V14.8992H223.953V11.4192H229.033ZM226.513 31.7392C219.592 31.7392 215.192 29.9392 215.192 26.5792V25.2992C215.192 21.9392 219.592 20.1392 226.513 20.1392C233.433 20.1392 237.833 21.9392 237.833 25.2992V26.5792C237.833 29.9392 233.433 31.7392 226.513 31.7392ZM226.513 23.9792C222.273 23.9792 220.193 24.7792 220.193 25.7792V26.0992C220.193 27.0992 222.273 27.8992 226.513 27.8992C230.753 27.8992 232.832 27.0992 232.832 26.0992V25.7792C232.832 24.7792 230.753 23.9792 226.513 23.9792ZM209.473 33.1792H243.553V37.2592H229.593V41.8592H224.553V37.2592H209.473V33.1792ZM219.312 39.4992V45.0192H239.513V49.1392H214.273V39.4992H219.312ZM250.327 26.5792V30.7392C255.927 30.7392 260.527 30.6592 265.407 30.1792L265.847 34.3792C261.247 34.8992 255.567 34.9792 245.367 34.9792V22.4992H256.447V18.3792H245.367V14.1392H261.407V26.5792H250.327ZM269.767 38.9392V28.2992H263.807V24.0192H269.767V21.4192H263.807V17.1392H269.767V12.2592H274.767V38.9392H269.767ZM256.167 37.8592V44.7792H275.367V49.0992H251.087V37.8592H256.167Z" fill="#231815"/>
</svg>
