<svg width="722" height="399" viewBox="0 0 722 399" fill="none" xmlns="http://www.w3.org/2000/svg">
<path d="M487 117.5C487 182.407 539.593 235 604.5 235C669.407 235 722 182.407 722 117.5C722 52.5926 669.407 0 604.5 0C539.593 0 487 52.5926 487 117.5Z" fill="#C79C6E"/>
<path d="M514 117.5C514 167.52 554.479 208 604.5 208C654.52 208 695 167.428 695 117.5C695 67.5722 654.52 27 604.5 27C554.479 27 514 67.5722 514 117.5Z" fill="white"/>
<path d="M650.87 150.258C650.87 150.258 650.592 150.258 650.407 150.351C650.407 150.722 650.5 151.093 650.592 151.464C650.778 151.464 651.055 151.371 651.055 151.278C651.055 150.907 650.963 150.536 650.87 150.165M582.774 149.887C582.774 149.887 582.126 149.701 581.849 149.701C581.571 151 581.294 152.299 581.108 153.598C581.386 153.598 581.571 153.691 581.849 153.784C582.126 152.485 582.496 151.186 582.774 149.887ZM588.418 111.845C588.048 108.32 588.418 109.711 587.215 106.371C585.179 109.062 585.92 108.134 584.439 109.711C584.162 109.062 583.607 108.505 583.607 107.856C583.607 106 583.792 104.052 580.831 105.165C580.553 105.258 580.091 105.165 579.906 105.165C577.593 103.031 575.742 100.526 573.152 98.5773C571.394 97.1856 570.283 94.866 569.081 92.8247C567.23 89.8557 565.287 86.8866 563.992 83.6392C561.864 78.1649 572.319 72.8763 578.148 79C579.443 80.3917 579.906 82.6186 582.034 80.1134C588.788 86.1443 591.471 88 593.691 90.3196C594.432 91.1546 593.691 94.4021 596.282 91.8041C600.261 95.9794 598.873 94.5876 601.556 96.3505C601.833 96.5361 602.296 96.6289 602.388 96.9072C603.406 99.7835 603.591 98.1134 605.442 97.2783C608.31 95.9794 608.865 93.8454 610.345 91.8969C612.011 89.7629 615.249 89.9485 616.544 86.4227C617.655 83.3608 620.985 81.0412 623.391 78.4433C623.669 78.165 623.946 78.0722 624.316 77.8866C624.779 79.1856 624.594 78.5361 625.241 80.2062C627.092 79.0928 624.964 80.6701 629.96 75.7526C630.145 75.567 630.793 75.567 630.885 75.7526C632.458 78.9072 633.846 76.5876 634.124 75.2887C635.049 70.8351 639.86 72.5979 641.895 70C642.728 72.134 642.358 71.0206 643.376 74.1753C646.336 72.7835 645.226 73.433 647.632 71.7629C648.094 74.4536 647.632 74.268 651.333 74.6392C650.037 79.6495 649.482 76.9588 649.76 80.299C651.24 79.4639 650.592 79.7423 651.98 79.1856C652.073 79.6495 652.443 80.2062 652.35 80.4845C650.407 84.1031 648.464 87.6289 646.336 91.1546C645.041 93.1959 641.618 93.2887 641.71 96.8144C641.71 97.5567 638.935 98.299 637.454 99.134C636.622 99.5052 635.789 99.8763 635.141 100.433C634.401 100.99 635.049 103.959 632.736 101.732C632.736 101.732 632.458 101.732 632.366 101.732C630.793 103.68 629.22 105.629 627.554 107.577C626.167 109.155 624.224 110.546 623.483 112.402C622.928 113.887 623.669 115.928 624.131 117.598C624.224 117.969 627.277 117.598 627.369 117.969C631.348 126.598 629.22 123.443 632.551 126.134C633.013 126.505 633.568 126.876 633.846 127.34C634.956 129.103 635.789 131.144 637.084 132.629C637.824 133.557 639.675 133.464 640.6 134.299C641.525 135.134 641.988 136.526 642.821 137.546C644.208 139.309 645.781 140.887 646.984 142.835C647.539 143.763 646.984 145.247 647.169 146.361C647.169 147.103 647.632 147.753 647.909 148.495C649.667 147.567 648.464 148.124 652.443 146.639C652.628 148.031 652.998 149.515 652.998 150.907C652.998 161.113 653.183 161.948 649.945 165.01C649.297 165.66 646.521 164.546 645.689 164.639C644.023 165.01 642.358 165.567 640.693 165.753C640.323 165.753 639.86 164.454 639.305 164.082C638.565 163.619 637.639 163.619 636.807 163.34C632.643 161.856 632.551 161.577 631.07 160.835C630.885 160.742 630.515 160.835 630.423 160.649C629.22 158.701 628.202 156.474 626.814 154.711C625.612 153.227 623.761 152.392 622.466 150.907C621.818 150.258 622.003 148.959 621.633 147.938C621.356 147.103 620.893 146.361 620.523 145.526C619.875 145.897 619.228 146.639 618.672 146.546C617.932 146.546 617.007 145.99 616.637 145.433C614.139 141.814 611.826 138.01 609.235 134.485C608.125 132.907 603.129 133.928 601.833 135.412C601.001 136.34 599.243 136.433 598.41 137.454C596.282 139.773 594.524 142.371 592.489 144.783C592.304 145.062 590.268 144.969 590.083 145.34C589.621 146.546 589.435 147.845 588.88 149.052C588.695 149.515 587.77 149.608 587.215 149.887C584.162 151.649 581.571 157.031 577.222 160.186C574.539 162.134 571.024 162.691 568.34 165.474C567.323 166.588 563.067 165.753 560.939 164.639C558.626 163.34 558.348 157.124 560.291 156.103C565.75 153.505 561.124 149.33 563.807 144.691C564.64 143.299 565.565 142 566.49 140.701V140.515C569.358 139.309 570.283 136.619 571.764 134.206C573.244 131.794 576.852 131.144 577.037 127.433C577.037 126.041 577.685 123.165 580.646 125.021C580.831 125.113 581.941 123.722 582.589 122.979C583.329 122.144 581.941 118.155 585.364 121.124C585.55 121.309 586.382 121.031 586.567 120.753C592.581 113.701 591.101 115 591.471 112.309C590.823 112.309 590.083 112.68 589.435 112.495C588.973 112.402 588.695 111.753 588.788 111.845" fill="#F76969"/>
<path d="M235 118.5C235 183.407 182.407 236 117.5 236C52.5926 236 0 183.407 0 118.5C0 53.5926 52.5926 1 117.5 1C182.407 1 235 53.5926 235 118.5Z" fill="#C79C6E"/>
<path d="M208 118.5C208 168.52 167.52 209 117.5 209C67.4795 209 27 168.428 27 118.5C27 68.5722 67.4795 28 117.5 28C167.52 28 208 68.5722 208 118.5Z" fill="white"/>
<path d="M113.254 65.0742C113.254 65.0742 113.069 65.3533 112.976 65.4464C113.254 65.6325 113.069 65.7256 113.717 65.4464C113.624 65.3533 113.439 65.2603 113.347 65.0742M153.419 114.951C153.974 113.742 154.344 113.276 154.344 112.718C154.344 112.346 153.882 111.88 153.604 111.415C152.308 113.835 152.493 112.904 153.419 114.951ZM153.234 134.493C156.01 129.002 153.326 114.765 148.977 110.578C147.866 109.554 144.72 102.761 143.702 101.365C142.406 99.5973 140.37 98.2946 139.074 96.4335C136.668 93.0835 136.853 89.4544 134.262 90.7572C132.318 91.6877 130.468 92.4322 128.987 90.0127C128.617 89.4544 127.691 88.71 127.136 88.803C123.804 89.2683 122.231 87.7794 121.861 84.5225C121.861 84.1503 121.398 83.7781 121.12 83.4989C121.12 83.4989 120.565 83.7781 120.473 83.9642C120.102 86.3836 119.27 86.2906 117.789 84.6156C117.419 84.2434 116.401 84.6156 115.66 84.5225C112.236 84.1503 108.719 87.3142 105.388 84.1503C105.203 83.9642 104.185 84.1503 104.092 84.3364C103.444 86.1045 103.629 87.8725 100.483 87.5933C97.9841 87.3142 95.7631 91.3155 92.524 88.803C92.4314 88.803 91.9687 88.8961 91.7836 89.0822C87.3414 94.2002 89.7476 90.478 80.8633 105.46C80.7707 105.646 80.6782 105.739 80.5856 105.925C77.5316 115.417 76.8838 108.903 80.4005 131.236C80.4931 131.794 80.7707 132.352 81.1409 132.911C82.344 134.679 84.7502 136.447 84.5651 138.029C84.1024 142.588 89.3774 142.681 90.0253 146.124C90.0253 146.218 90.488 146.124 90.6731 146.311C92.4314 147.706 96.3183 147.148 95.1152 151.242C95.1152 151.336 95.3929 151.708 95.578 151.708C96.9661 151.708 98.6319 151.336 99.835 151.894C102.796 153.29 105.48 155.151 108.442 156.733C109.922 157.477 112.699 156.174 114.18 155.988C116.493 155.802 119.084 156.453 121.028 155.523C124.545 153.848 125.748 148.73 130.375 148.265C130.468 148.265 130.56 147.799 130.745 147.706C131.393 147.427 132.133 147.334 132.689 147.055C134.725 146.124 137.594 146.869 138.797 145.938C142.128 143.333 144.812 139.704 147.681 136.54C147.774 136.447 148.051 136.168 148.051 136.261C151.013 138.215 150.55 135.051 151.105 134.027C151.846 132.818 151.938 131.236 152.401 129.84C152.678 131.329 152.864 132.725 153.141 134.4M163.599 153.104C166.56 147.613 165.912 149.288 165.172 147.055C163.414 148.823 164.524 146.404 162.396 154.592C162.211 155.151 161.933 155.709 161.563 156.081C161.193 156.36 159.064 154.406 158.694 154.127C158.324 154.872 157.676 155.709 157.768 156.453C157.954 159.431 157.768 161.758 153.789 160.269C152.308 159.71 149.81 163.898 148.051 165.852C147.681 166.224 144.812 165.387 144.812 165.48C142.591 168.923 138.426 167.992 135.465 169.853C134.91 170.226 133.984 170.039 133.151 170.132C123.434 171.807 123.156 173.11 118.437 173.762C116.586 174.041 114.457 172.738 112.514 172.645C111.403 172.645 110.2 173.669 108.997 173.855C105.11 174.413 101.686 173.389 99.0021 170.319C98.4469 169.667 96.7811 169.388 96.1332 169.667C92.8016 171.528 91.0433 168.644 88.7296 167.527C86.8787 166.596 85.1203 165.573 83.362 164.549C82.8993 164.27 79.8453 161.292 79.4751 160.92C77.5316 158.873 80.7707 161.199 74.8478 157.57C73.9224 157.012 72.9969 156.547 71.7938 153.941C71.0535 152.359 68.4622 146.497 67.6293 143.612C67.074 143.984 66.5187 144.449 66.7964 144.263C66.056 142.961 64.8529 141.472 64.2976 139.797C63.8349 138.494 64.2977 136.819 63.9275 135.423C63.6498 134.4 62.6318 133.469 61.984 132.539C61.7989 132.259 61.5213 131.887 61.4287 131.608C59.6704 117.836 59.4853 125.001 61.1511 100.528C61.1511 100.249 61.2437 99.8765 61.4287 99.8765C66.056 99.5043 63.1871 95.5029 64.4827 93.5488C65.7784 91.6877 66.7964 88.8961 68.6473 88.2447C74.3851 86.0114 74.5702 80.242 78.7347 76.8921C79.3825 78.5671 79.1049 77.6365 79.8452 80.242C84.1949 70.0061 83.5471 71.8671 85.398 71.588C85.398 72.2394 85.5831 72.9838 85.6756 73.6352C82.4365 73.9143 82.9918 74.3796 83.0844 78.1948C85.398 76.6129 82.1589 79.2184 95.578 68.145C96.2258 67.5867 96.8736 67.0283 97.614 66.5631C98.632 66.0047 101.593 67.3075 102.796 67.4005C103.167 67.4005 103.629 66.2839 103.907 65.5395C104.833 62.9339 106.036 62.0034 108.257 64.3298C108.534 64.6089 109.275 64.9811 109.275 64.9811C111.958 61.7242 113.994 65.6325 116.401 65.6325C116.678 65.6325 117.141 65.6325 117.234 65.4464C119.362 62.7478 121.12 64.795 123.249 65.6325C124.637 66.1908 126.488 65.9117 128.061 66.0047C129.079 66.0047 130.375 65.6325 131.023 66.1908C132.318 67.1214 132.874 69.4477 135.095 67.4005C136.298 70.0061 135.65 68.9825 137.316 71.4019C139.259 69.7269 138.612 70.2852 139.537 69.3547C139.722 69.6338 140 69.913 140.185 70.2852C140.74 71.4019 141.11 72.6116 141.758 73.6352C142.036 74.0074 143.331 74.2866 143.516 74.0074C146.478 70.9366 148.421 73.5421 150.365 75.2171C152.864 77.3574 155.362 79.4976 157.676 81.7309C160.082 84.0573 157.676 90.0127 162.673 87.5003C162.766 87.5003 163.229 87.6864 163.321 87.8725C165.635 92.6183 167.301 97.8293 170.447 101.924C172.576 104.715 171.095 107.228 171.928 109.554C172.391 110.857 174.149 111.787 174.519 113.09C175.074 115.23 175.074 117.65 174.889 119.883C174.612 124.908 172.853 130.119 173.871 134.772C174.982 140.076 168.596 141.751 169.707 146.404C170.077 140.913 170.355 142.961 169.707 140.913C167.578 142.402 169.707 138.959 165.172 153.662C164.709 153.476 164.154 153.29 163.691 153.01" fill="#5CD6FA"/>
<mask id="mask0_501_4552" style="mask-type:luminance" maskUnits="userSpaceOnUse" x="239" y="155" width="244" height="244">
<path d="M483 155H239V399H483V155Z" fill="white"/>
</mask>
<g mask="url(#mask0_501_4552)">
<path d="M368.036 203.969H356.371C353.525 203.969 351.211 201.655 351.211 198.809C351.211 195.963 353.525 193.648 356.371 193.648H368.036C370.882 193.648 373.197 195.963 373.197 198.809C373.197 201.655 370.882 203.969 368.036 203.969Z" fill="#F8931D"/>
<path d="M405.535 225.364L421.297 209.633" stroke="#F36C23" stroke-width="6.51" stroke-miterlimit="10"/>
<path d="M388.52 196.684C400.497 182.736 421.482 181.141 435.431 193.088C449.379 205.066 450.974 226.051 439.027 239.999" fill="#F8931D"/>
<path d="M315.84 225.364L300.109 209.633" stroke="#F36C23" stroke-width="6.51" stroke-miterlimit="10"/>
<path d="M332.853 196.684C320.875 182.736 299.89 181.141 285.942 193.088C271.994 205.066 270.399 226.051 282.346 239.999" fill="#F8931D"/>
<path d="M331.789 333.227H311.305V367.691H331.789V333.227Z" fill="black"/>
<path d="M412.695 333.227H392.211V367.691H412.695V333.227Z" fill="black"/>
<path d="M439.655 280.372C439.655 323.437 404.722 358.37 361.658 358.37C318.593 358.37 283.66 323.437 283.66 280.372C283.66 237.308 318.593 202.375 361.658 202.375C404.722 202.375 439.655 237.308 439.655 280.372Z" fill="#F8931D"/>
<path d="M423.517 280.376C423.517 314.527 395.808 342.236 361.657 342.236C327.506 342.236 299.797 314.558 299.797 280.376C299.797 246.193 327.474 218.516 361.657 218.516C395.839 218.516 423.517 246.193 423.517 280.376Z" fill="white"/>
<path d="M369.101 280.373C369.101 284.47 365.755 287.816 361.658 287.816C357.561 287.816 354.215 284.47 354.215 280.373C354.215 276.276 357.561 272.93 361.658 272.93C365.755 272.93 369.101 276.276 369.101 280.373Z" fill="#0E4A9A"/>
<path d="M354.995 283.911H334.073C332.384 283.911 331.008 282.535 331.008 280.846V280.377C331.008 278.689 332.384 277.312 334.073 277.312H354.995C356.684 277.312 358.06 278.689 358.06 280.377V280.846C358.06 282.535 356.684 283.911 354.995 283.911Z" fill="#0E4A9A"/>
<path d="M361.97 280.371C360.876 280.371 360 279.495 360 278.401V236.9C360 235.805 360.907 234.93 361.97 234.93C363.034 234.93 363.941 235.805 363.941 236.9V278.401C363.941 279.495 363.034 280.371 361.97 280.371Z" fill="#0E4A9A"/>
</g>
<path d="M355.059 231.523H357.404V224.58H355.434V223.173C356.528 222.954 357.279 222.672 357.967 222.203H359.593V231.523H361.657V233.368H355.09V231.523H355.059ZM362.095 232.055C364.941 229.209 366.818 227.27 366.818 225.612C366.818 224.486 366.223 223.798 365.16 223.798C364.347 223.798 363.722 224.361 363.159 224.987L361.97 223.736C362.971 222.61 363.94 221.984 365.442 221.984C367.506 221.984 368.882 223.36 368.882 225.456C368.882 227.395 367.162 229.428 365.223 231.554C365.786 231.492 366.505 231.429 367.005 231.429H369.413V233.337H362.064V232.023L362.095 232.055Z" fill="black"/>
<path d="M358.375 334.637C358.375 330.384 360.408 328.539 362.628 328.539C363.973 328.539 364.943 329.133 365.599 329.853L364.442 331.229C364.067 330.791 363.379 330.415 362.753 330.415C361.502 330.415 360.47 331.385 360.377 334.262C360.971 333.48 361.909 333.011 362.628 333.011C364.473 333.011 365.787 334.106 365.787 336.451C365.787 338.797 364.223 340.173 362.347 340.173C360.283 340.173 358.406 338.515 358.406 334.669L358.375 334.637ZM360.408 335.826C360.627 337.702 361.346 338.422 362.253 338.422C363.066 338.422 363.754 337.765 363.754 336.42C363.754 335.169 363.129 334.606 362.19 334.606C361.628 334.606 360.971 334.919 360.408 335.826Z" fill="black"/>
<path d="M410.352 285.914L411.384 284.475C412.04 285.132 412.822 285.664 413.823 285.664C414.918 285.664 415.699 285.101 415.699 284.163C415.699 283.068 415.074 282.411 412.697 282.411V280.785C414.699 280.785 415.355 280.097 415.355 279.127C415.355 278.252 414.824 277.751 413.886 277.751C413.104 277.751 412.478 278.127 411.821 278.783L410.727 277.407C411.665 276.532 412.728 276 414.011 276C416.137 276 417.576 277.095 417.576 279.002C417.576 280.222 416.888 281.035 415.762 281.536V281.598C416.982 281.942 417.951 282.88 417.951 284.35C417.951 286.383 416.2 287.571 414.104 287.571C412.384 287.571 411.196 286.883 410.445 285.976L410.352 285.914Z" fill="black"/>
<path d="M303.582 286.195L304.739 284.819C305.115 285.288 305.803 285.632 306.428 285.632C307.679 285.632 308.711 284.663 308.805 281.786C308.211 282.568 307.273 283.037 306.553 283.037C304.708 283.037 303.395 281.911 303.395 279.597C303.395 277.282 304.958 275.906 306.835 275.906C308.899 275.906 310.775 277.564 310.775 281.41C310.775 285.664 308.742 287.509 306.553 287.509C305.208 287.509 304.208 286.915 303.582 286.195ZM306.96 281.442C307.523 281.442 308.242 281.098 308.742 280.222C308.523 278.346 307.773 277.626 306.866 277.626C306.053 277.626 305.396 278.283 305.396 279.597C305.396 280.848 305.99 281.41 306.96 281.41V281.442Z" fill="black"/>
<path d="M309.93 258.796H312.275V251.854H310.305V250.446C311.4 250.227 312.15 249.946 312.838 249.477H314.464V258.796H316.529V260.642H309.961V258.796H309.93ZM316.966 255.012C316.966 251.228 318.436 249.289 320.688 249.289C322.94 249.289 324.378 251.259 324.378 255.012C324.378 258.765 322.94 260.86 320.688 260.86C318.436 260.86 316.966 258.796 316.966 255.012ZM322.314 255.012C322.314 251.916 321.626 251.04 320.657 251.04C319.687 251.04 318.999 251.916 318.999 255.012C318.999 258.108 319.718 259.078 320.657 259.078C321.595 259.078 322.314 258.108 322.314 255.012Z" fill="black"/>
<path d="M327.16 240.632H329.506V233.689H327.535V232.282C328.63 232.063 329.381 231.782 330.069 231.312H331.695V240.632H333.759V242.477H327.191V240.632H327.16ZM334.76 240.632H337.105V233.689H335.135V232.282C336.23 232.063 336.98 231.782 337.668 231.312H339.294V240.632H341.359V242.477H334.791V240.632H334.76Z" fill="black"/>
<path d="M387.363 241.882H389.709V234.939H387.739V233.532C388.833 233.313 389.584 233.032 390.272 232.562H391.898V241.882H393.962V243.727H387.395V241.882H387.363Z" fill="black"/>
<path d="M404.344 261.836C407.19 258.99 409.066 257.051 409.066 255.393C409.066 254.268 408.472 253.58 407.409 253.58C406.596 253.58 405.97 254.142 405.407 254.768L404.219 253.517C405.22 252.391 406.189 251.766 407.69 251.766C409.754 251.766 411.13 253.142 411.13 255.237C411.13 257.176 409.41 259.209 407.471 261.335C408.034 261.273 408.753 261.21 409.254 261.21H411.662V263.118H404.313V261.805L404.344 261.836Z" fill="black"/>
<path d="M406.191 308.96H401.531V307.396L405.628 300.578H408.255V307.208H409.537V308.96H408.255V311.712H406.222V308.96H406.191ZM406.191 307.208V304.988C406.191 304.331 406.222 303.268 406.254 302.611H406.191C405.91 303.205 405.628 303.799 405.315 304.394L403.627 307.208H406.191Z" fill="black"/>
<path d="M382.453 330.445L383.454 329.006C384.079 329.632 384.83 330.164 385.862 330.164C386.988 330.164 387.801 329.476 387.801 328.225C387.801 326.974 387.05 326.286 385.956 326.286C385.299 326.286 384.955 326.442 384.298 326.88L383.298 326.223L383.579 320.656H389.427V322.564H385.455L385.237 325.003C385.674 324.816 386.05 324.691 386.55 324.691C388.395 324.691 389.928 325.785 389.928 328.162C389.928 330.539 388.114 332.04 386.081 332.04C384.361 332.04 383.204 331.321 382.391 330.476L382.453 330.445Z" fill="black"/>
<path d="M336.043 322.845H331.102V320.938H338.388V322.314C335.918 325.472 335.511 327.724 335.324 332.071H333.134C333.322 328.224 334.01 325.785 336.043 322.814V322.845Z" fill="black"/>
<path d="M312.273 309.803C312.273 308.427 313.149 307.552 314.15 306.989V306.926C313.337 306.301 312.711 305.488 312.711 304.299C312.711 302.454 314.119 301.297 315.995 301.297C317.871 301.297 319.185 302.517 319.185 304.33C319.185 305.425 318.466 306.332 317.778 306.832V306.895C318.778 307.489 319.623 308.302 319.623 309.803C319.623 311.523 318.153 312.868 315.932 312.868C313.837 312.868 312.273 311.586 312.273 309.803ZM317.59 309.741C317.59 308.615 316.558 308.24 315.151 307.614C314.588 308.083 314.15 308.771 314.15 309.553C314.15 310.585 314.963 311.242 315.995 311.242C316.933 311.242 317.59 310.71 317.59 309.71V309.741ZM317.402 304.487C317.402 303.549 316.871 302.923 315.964 302.923C315.213 302.923 314.619 303.424 314.619 304.33C314.619 305.363 315.463 305.832 316.621 306.301C317.121 305.738 317.402 305.144 317.402 304.518V304.487Z" fill="black"/>
<mask id="mask1_501_4552" style="mask-type:luminance" maskUnits="userSpaceOnUse" x="239" y="155" width="244" height="244">
<path d="M483 155H239V399H483V155Z" fill="white"/>
</mask>
<g mask="url(#mask1_501_4552)">
<path d="M298.984 376.266C298.984 370.199 303.331 365.227 308.617 365.227H416.137C421.422 365.227 425.769 370.199 425.769 376.266" fill="#A8A9AD"/>
</g>
</svg>
