<svg width="79" height="31" viewBox="0 0 79 31" fill="none" xmlns="http://www.w3.org/2000/svg">
<path d="M39.4982 14.0229C37.5757 14.0229 36.0011 12.4488 36.0011 10.527C36.0011 8.60511 37.5574 7.03101 39.4982 7.03101C41.439 7.03101 42.9953 8.5868 42.9953 10.527C42.9953 12.4671 41.439 14.0229 39.4982 14.0229ZM76.7033 15.7435C74.8174 15.414 71.9428 15.4323 68.8118 15.4506C61.1584 15.4872 48.0854 15.5238 48.0854 10.5453C48.0854 5.56673 44.2404 1.96094 39.4982 1.96094C34.756 1.96094 30.911 5.80467 30.911 10.5453C30.911 15.5238 17.8379 15.4872 10.1845 15.4506C7.05359 15.4506 4.17898 15.414 2.29309 15.7435C1.61564 15.8533 0.1875 16.6037 0.1875 17.8667V28.9586C0.1875 29.9653 1.01143 30.7889 2.01846 30.7889H76.9413C77.9483 30.7889 78.7723 29.9653 78.7723 28.9586V17.8667C78.7723 16.6037 77.3624 15.8533 76.685 15.7435" fill="#ABABAB"/>
<path d="M39.4982 12.8667C37.5757 12.8667 36.0011 11.2926 36.0011 9.37072C36.0011 7.44886 37.5574 5.87476 39.4982 5.87476C41.439 5.87476 42.9953 7.43055 42.9953 9.37072C42.9953 11.3109 41.439 12.8667 39.4982 12.8667ZM76.7033 14.5872C74.8174 14.2578 71.9428 14.2761 68.8118 14.2944C61.1584 14.331 48.0854 14.3676 48.0854 9.38903C48.0854 4.41048 44.2404 0.804688 39.4982 0.804688C34.756 0.804688 30.911 4.64842 30.911 9.38903C30.911 14.3676 17.8379 14.331 10.1845 14.2944C7.05359 14.2944 4.17898 14.2578 2.29309 14.5872C1.61564 14.697 0.1875 15.4475 0.1875 16.7104V27.8023C0.1875 28.809 1.01143 29.6327 2.01846 29.6327H76.9413C77.9483 29.6327 78.7723 28.809 78.7723 27.8023V16.7104C78.7723 15.4475 77.3624 14.697 76.685 14.5872" fill="#CCCCCC"/>
<path d="M39.3882 7.03125C37.7221 7.10446 36.3489 8.3308 36.0742 9.94151C36.3489 11.5522 37.7038 12.7969 39.3882 12.8518C37.7221 12.7785 36.3672 11.5339 36.0925 9.94151C36.3672 8.3308 37.7221 7.08616 39.3882 7.03125Z" fill="#FFCDB3"/>
<path d="M39.4991 5.875C37.5583 5.875 36.002 7.4491 36.002 9.37097C36.002 9.57231 36.002 9.75534 36.0569 9.95668C36.3315 8.34597 37.6864 7.10133 39.3526 7.04642H39.3892H39.4808V5.8933L39.4991 5.875Z" fill="#C4C4C4"/>
<path d="M0.207031 27.8047V28.9578C0.207031 29.9645 1.03096 30.7882 2.03799 30.7882H39.4994V29.635H2.03799C1.03096 29.635 0.207031 28.8114 0.207031 27.8047Z" fill="#C4C4C4"/>
<path d="M39.4994 0.789062C34.7572 0.789062 30.9122 4.6328 30.9122 9.3734C30.9122 14.114 19.3405 14.297 12.1632 14.297C11.504 14.297 10.8266 14.297 10.1858 14.297C9.52662 14.297 8.88578 14.297 8.26325 14.297C5.90132 14.297 3.7774 14.3337 2.29432 14.6082C1.61687 14.718 0.207031 15.4685 0.207031 16.7314V27.8233C0.207031 28.83 1.03096 29.6537 2.03799 29.6537H39.4994V12.8694H39.4628H39.3896H39.3712C37.7051 12.7962 36.3319 11.5698 36.0755 9.95912C36.0389 9.77608 36.0206 9.57474 36.0206 9.3734C36.0206 7.45154 37.5769 5.87743 39.5177 5.87743V0.789062H39.4994Z" fill="#DBDBDB"/>
</svg>
