<svg width="384" height="377" viewBox="0 0 384 377" fill="none" xmlns="http://www.w3.org/2000/svg">
<g style="mix-blend-mode:multiply" opacity="0.1">
<mask id="mask0_1228_9028" style="mask-type:luminance" maskUnits="userSpaceOnUse" x="30" y="209" width="346" height="168">
<path d="M375.066 209.766H30.0801V376.826H375.066V209.766Z" fill="white"/>
</mask>
<g mask="url(#mask0_1228_9028)">
<path d="M91.0358 209.766L30.0801 245.319L91.4329 280.822L152.438 245.319L91.0854 209.766H91.0358Z" fill="#231815"/>
<path d="M252.758 341.268L313.714 376.772L375.066 341.268L314.111 305.715L252.758 341.268Z" fill="#231815"/>
<mask id="mask1_1228_9028" style="mask-type:luminance" maskUnits="userSpaceOnUse" x="30" y="209" width="346" height="168">
<path d="M375.066 209.758H30.0801V376.768H375.066V209.758Z" fill="white"/>
</mask>
<g mask="url(#mask1_1228_9028)">
<path d="M283.83 243.183C333.17 271.765 333.419 318.123 284.426 346.705C235.383 375.287 155.664 375.287 106.274 346.705C56.9339 318.123 56.636 271.765 105.679 243.183C154.721 214.601 234.49 214.601 283.83 243.183Z" fill="#231815"/>
</g>
</g>
</g>
<path d="M140.574 244.583L142.907 245.927V178.157L140.574 176.812V244.583Z" fill="#B66F25"/>
<path d="M142.906 178.157V245.927L145.239 244.583V176.812L142.906 178.157Z" fill="#B66F25"/>
<path d="M88.5039 274.006L90.8369 275.35V207.63L88.5039 206.285V274.006Z" fill="#B66F25"/>
<path d="M90.8359 207.63V275.35L93.1689 274.006V206.285L90.8359 207.63Z" fill="#B66F25"/>
<path d="M40.0059 244.583L42.3389 245.927V178.157L40.0059 176.812V244.583Z" fill="#B66F25"/>
<path d="M42.3398 178.157V245.927L44.6728 244.583V176.812L42.3398 178.157Z" fill="#B66F25"/>
<path d="M34.1504 176.806L92.6242 210.666L151.098 176.806L92.5746 142.945L34.1504 176.806Z" fill="#E49134"/>
<path d="M32.709 178.551L92.5726 213.258V210.718L32.709 176.012V178.551Z" fill="#B66F25"/>
<path d="M92.623 210.722V213.262L151.097 179.352V176.812L92.623 210.722Z" fill="#B66F25"/>
<path fill-rule="evenodd" clip-rule="evenodd" d="M82.4473 72.043C82.4473 72.3915 83.8371 72.7401 83.8371 73.0886C84.135 95.3468 91.2332 119.895 91.2332 142.104C72.0729 153.208 53.3593 165.706 34.1493 176.81C33.8515 177.01 33.0573 175.815 32.7594 176.014C32.7594 153.457 23.9238 128.51 23.9238 105.953C43.4316 94.6497 62.9394 83.3961 82.3976 72.0928" fill="#B66F25"/>
<path fill-rule="evenodd" clip-rule="evenodd" d="M83.8371 72.8984C83.8371 95.4553 92.6231 120.402 92.6231 142.959C73.1152 154.263 53.6074 165.516 34.1492 176.819C34.1492 154.263 25.3633 129.316 25.3633 106.759C44.8711 95.4553 64.3293 84.152 83.8371 72.8984Z" fill="#C67B2B"/>
<path d="M129.702 105.355C129.702 105.355 129.901 101.919 131.141 99.1305C132.432 96.342 136.502 94.2008 137.247 93.1054C137.992 92.0597 138.24 94.5494 136.85 95.8938C134.616 98.035 135.311 98.9313 135.311 98.9313C135.311 98.9313 138.14 97.1387 141.417 95.8938C144.693 94.649 146.38 94.2506 146.976 94.5992C147.572 94.9477 149.061 97.1387 147.324 99.728C145.586 102.367 144.047 104.458 141.317 105.853C138.587 107.247 132.68 110.782 132.68 110.782L129.652 105.305L129.702 105.355Z" fill="#F5D5A9"/>
<path d="M136.056 227.206C136.056 227.206 143.749 241.547 143.749 241.647C145.785 245.381 149.408 247.971 148.713 252.701C148.118 256.635 143.402 257.581 140.275 256.884C137.148 256.237 134.368 254.544 132.184 251.755C129.156 247.971 124.242 239.207 123.944 237.414C123.299 233.829 123.944 231.987 124.341 229.248C124.788 226.559 127.17 223.621 131.241 224.219C135.41 224.866 136.056 227.157 136.056 227.157" fill="#211F1E"/>
<path d="M119.577 235.067C119.577 235.067 127.271 249.457 127.271 249.507C129.306 253.242 132.929 255.831 132.234 260.611C131.639 264.595 126.923 265.491 123.796 264.794C120.669 264.147 117.939 262.454 115.705 259.665C112.677 255.881 107.763 247.117 107.465 245.325C106.869 241.739 107.465 239.897 107.862 237.158C108.309 234.469 110.691 231.531 114.811 232.129C118.931 232.776 119.626 235.017 119.626 235.017" fill="#211F1E"/>
<path d="M101.26 221.422C102.252 229.986 103.245 239.547 106.521 240.543C106.521 240.543 110.294 241.14 115.208 241.788C120.122 242.385 122.455 240.194 122.455 240.194C123.795 230.136 119.278 206.832 116.548 197.919C113.868 189.155 87.9567 169.287 73.8098 159.727L70.7322 184.773C70.484 187.96 96.6434 202.251 96.693 202.301C100.317 204.293 100.416 214.55 101.21 221.422" fill="#A2111F"/>
<path d="M120.025 204.095C121.563 209.025 123.698 229.242 124.293 233.723C124.293 233.723 128.513 235.018 133.427 235.615C138.341 236.213 140.674 234.022 140.674 234.022C142.014 223.963 136.306 196.825 135.71 192.444C134.42 183.381 113.423 160.874 93.9148 150.766L88.951 178.601C88.7028 181.788 114.068 195.68 114.068 195.68C114.068 195.68 116.6 193.19 120.025 204.145" fill="#A2111F"/>
<path d="M122.107 175.762C122.107 175.762 112.03 163.064 101.805 155.247C92.4231 148.026 81.4034 143.844 81.4034 143.844L68.4478 151.263C63.3847 154.201 47.9473 157.886 47.9473 157.886C48.3444 166.052 47.2523 172.525 52.8614 178.949C57.031 183.679 65.7674 192.344 71.0786 195.182C74.3548 196.925 87.8563 207.68 88.7498 204.792C90.7354 198.568 101.408 183.331 107.761 180.244C113.668 177.405 116.1 177.505 122.107 175.862" fill="#E41321"/>
<path d="M133.277 107.299C132.433 105.108 129.306 104.212 129.306 104.212C129.306 104.212 123.597 106.502 120.569 109.042C117.939 111.233 111.833 116.262 110.294 113.872C108.756 111.482 106.323 105.307 104.139 94.5515C102.65 87.1819 99.1257 83.6465 96.9417 82.0531C95.8993 81.0074 90.6376 79.2646 89.7441 78.8164C89.7441 83.9452 95.4029 93.207 95.4029 93.207L97.7855 122.038C99.3243 124.777 101.012 127.764 102.154 128.81C104.09 130.752 105.877 133.242 110.046 132.794C121.513 131.449 127.122 120.096 135.957 114.071C135.957 114.071 134.419 110.386 133.227 107.349" fill="#D9231C"/>
<path d="M97.3882 95.7451C96.3955 91.3632 94.5589 85.0891 92.9208 80.9063C90.7367 77.2714 85.6736 77.122 85.6736 77.122L68.1513 77.2714C68.1513 77.2714 68.1513 76.9228 68.1513 76.7734C53.3095 81.6035 44.0768 84.6409 39.3612 100.625C38.0706 105.007 43.8286 155 45.0199 159.98C45.0199 159.98 48.4449 163.067 60.2092 164.113C69.6901 164.91 84.8298 161.275 93.5661 157.54C99.8205 154.901 99.0759 154.403 99.0759 154.403C98.4803 132.244 97.6861 109.936 97.6861 109.19C97.835 105.405 98.1328 99.3801 97.3386 95.7451" fill="#FBC411"/>
<path d="M82.5463 76.7751L82.2485 86.8336C82.2485 86.8336 82.7945 92.4603 77.8307 93.9542C72.8669 95.448 67.6052 91.9624 67.6052 91.9624C62.7407 87.3813 60.8048 85.8377 60.8544 79.3644C60.9041 72.2438 68.2009 68.1108 74.505 71.6463C75.4481 72.1442 82.596 75.8788 82.5463 76.8747" fill="#F5A71A"/>
<path d="M62.9896 74.1889C62.6422 74.0893 63.6349 79.4671 63.6846 79.716C65.0744 83.5502 73.1158 90.1729 77.484 87.235C83.0435 83.5004 81.455 75.8321 81.455 75.8321C81.455 75.8321 63.0889 74.1889 62.9896 74.1889Z" fill="#F3C482"/>
<path d="M64.4775 67.5669C64.4775 67.5669 64.6265 63.9817 61.4992 63.6331C58.372 63.2348 58.9181 70.4052 61.2014 73.0443C63.5344 75.783 64.7258 69.7578 64.4279 67.5669" fill="#F5D5A9"/>
<path d="M83.1914 53.7655C83.1914 53.7655 85.5244 56.6037 85.2762 60.9856C85.0776 65.3177 84.0849 67.7079 84.7798 70.6956C85.4747 73.6832 84.482 77.2684 82.6454 80.9532C80.5109 85.1857 74.455 85.9327 70.0373 83.7915C66.4137 82.0487 63.5843 77.0692 63.3361 75.6252C62.8397 72.538 60.3578 69.3013 59.7621 67.8573C59.2161 66.4133 56.4364 62.3799 57.3299 55.2095C58.2234 48.0391 69.6401 48.5869 72.122 48.6864C80.4116 48.8856 81.5533 48.2881 83.1914 53.8153" fill="#F5D5A9"/>
<path d="M59.1175 70.049C59.8621 71.7918 61.5498 73.0367 62.9893 74.182C62.5922 73.5346 59.7628 66.7626 60.9044 66.912C60.9044 66.912 63.0885 67.1112 65.0244 73.0367C65.769 72.1902 65.6697 71.5429 65.9676 70.3976C66.1165 69.8 66.861 67.8581 66.9603 67.161C67.1589 65.9659 67.2581 64.3725 67.3574 63.6256C67.3574 63.7252 71.527 63.6256 76.4412 62.3807C80.313 61.3848 85.2272 59.0943 85.2272 59.2934C85.2768 61.584 85.0286 66.7626 85.0286 66.7626L85.6243 65.5177C85.6243 65.5177 87.312 61.086 86.766 56.1066C85.8228 46.7453 74.0586 42.7119 66.315 44.6041C57.7773 46.7452 55.5435 52.8202 56.1392 59.4428C56.4866 63.0778 57.678 66.8124 59.1175 70.0988M81.5539 55.6087C81.5539 55.6087 81.5539 55.6087 81.5539 56.256C81.5539 55.9074 81.5539 55.6087 81.5539 55.6087Z" fill="#1E1617"/>
<path d="M81.4035 44.66C78.7727 42.1204 75.298 40.5768 71.2773 40.6764C62.6899 40.8756 55.2938 46.4028 55.2441 57.2082C55.2441 72.0967 85.4242 71.1506 87.2112 58.0547C87.2112 58.0049 87.2112 57.9053 87.2112 57.8555C87.2112 57.7559 87.2112 57.7061 87.2112 57.6065C87.2112 57.5567 87.2112 57.5069 87.2112 57.4571V57.3077C87.2112 52.0793 85.0767 48.1954 81.3538 44.66" fill="#E41321"/>
<path d="M82.5948 43.0623C79.964 40.5726 75.1987 38.6306 71.178 38.7302C62.6403 38.9294 55.2441 44.4566 55.2441 55.1624C55.2441 69.9513 85.2256 69.055 87.0622 56.0089C87.0622 55.9591 87.0622 55.8595 87.0622 55.8097C87.0622 55.7101 87.0622 55.6603 87.0622 55.5607C87.0622 55.5607 87.0622 55.4611 87.0622 55.4114V55.262C87.0622 50.0336 86.268 46.5977 82.5452 43.0623" fill="#E41321"/>
<mask id="mask2_1228_9028" style="mask-type:luminance" maskUnits="userSpaceOnUse" x="55" y="38" width="33" height="29">
<path d="M71.2288 38.7188C62.691 38.9179 55.2949 44.4451 55.2949 55.1509C55.2949 69.9398 85.2764 69.0435 87.113 55.9974C87.113 55.9476 87.113 55.848 87.113 55.7982C87.113 55.6986 87.113 55.6488 87.113 55.5493C87.113 55.4995 87.113 55.4497 87.113 55.3999V55.2505C87.113 50.0221 86.3188 46.5862 82.5959 43.0508C80.0147 40.6109 75.448 38.7188 71.477 38.7188C71.3777 38.7188 71.2784 38.7188 71.1792 38.7188" fill="white"/>
</mask>
<g mask="url(#mask2_1228_9028)">
<path d="M87.2617 63.3132C87.2617 63.3132 87.907 43.6942 71.8242 43.0469C71.8242 43.0469 63.1375 46.9807 68.2503 67.3466C68.2503 67.3466 74.604 75.2141 87.2617 63.3132Z" fill="#FBC411"/>
<path d="M71.825 43.0015C71.825 43.0015 72.917 41.3085 71.9739 38.1217C71.9739 38.1217 65.3224 36.5283 60.4082 42.2546C60.4082 42.2546 66.2655 39.5657 71.825 43.0015Z" fill="#FBC411"/>
</g>
<path d="M68.8965 42.5019C68.8965 42.5019 68.8965 42.5517 68.8965 42.6015C68.8965 42.6015 68.8965 42.6015 68.8965 42.6513C68.8965 42.6513 68.8965 42.7011 68.8965 42.7509C68.8965 42.7509 68.8965 42.7509 68.8965 42.8007C68.8965 42.8007 68.8965 42.8504 68.8965 42.9002C68.8965 42.9002 68.8965 42.9003 68.8965 42.95C68.8965 42.95 68.8965 42.9998 68.9461 43.0496C68.9461 43.0496 68.9461 43.0496 68.9461 43.0994C68.9461 43.0994 68.9958 43.199 69.0454 43.199C69.0454 43.199 69.0951 43.2488 69.1447 43.2488C69.1447 43.2488 69.1943 43.2488 69.244 43.2986C69.244 43.2986 69.2936 43.2986 69.3432 43.3484C69.3432 43.3484 69.4425 43.3484 69.4425 43.3982C69.5418 43.3982 69.5914 43.4978 69.6907 43.5476H69.7404C69.8396 43.5476 69.8893 43.5974 69.9389 43.5974C69.9389 43.5974 69.9885 43.5974 70.0382 43.5974C70.0382 43.5974 70.1374 43.5974 70.1871 43.5974C70.1871 43.5974 70.2367 43.5974 70.2864 43.5974C70.2864 43.5974 70.3857 43.5974 70.4353 43.5974C70.4353 43.5974 70.4849 43.5974 70.5346 43.5974C70.6338 43.5974 70.7331 43.5974 70.8324 43.5974C70.8324 43.5974 70.882 43.5974 70.9317 43.5974C70.9813 43.5974 71.0309 43.5974 71.1302 43.5974H71.2295C71.2295 43.5974 71.3288 43.5974 71.3784 43.5974C71.3784 43.5974 71.4777 43.5974 71.5273 43.5974C71.577 43.5974 71.6266 43.5974 71.6266 43.5974C71.6762 43.5974 71.7259 43.5974 71.7755 43.5974C71.7755 43.5974 71.8748 43.5974 71.9244 43.5974H72.0237C72.0237 43.5974 72.123 43.5974 72.1726 43.5974H72.2719C72.3215 43.5974 72.3712 43.5974 72.4208 43.5974C72.4208 43.5974 72.4705 43.5974 72.5201 43.5974C72.6194 43.5974 72.7186 43.5476 72.8179 43.4978C72.9668 43.4978 73.0661 43.3982 73.1654 43.2986C73.6618 42.9998 73.9596 42.6015 73.9596 42.2031V43.199C73.9596 43.5974 73.7114 43.9957 73.1654 44.2945C73.0661 44.3443 72.9172 44.3941 72.8179 44.4937C72.7186 44.4937 72.6194 44.5434 72.5201 44.5932C72.5201 44.5932 72.5201 44.5932 72.4704 44.5932C72.4208 44.5932 72.3712 44.5932 72.2719 44.5932C72.2719 44.5932 72.2719 44.5932 72.2223 44.5932C72.1726 44.5932 72.123 44.5932 72.0733 44.5932C72.0733 44.5932 72.0734 44.5932 72.0237 44.5932C72.0237 44.5932 72.0237 44.5932 71.9741 44.5932C71.9741 44.5932 71.8748 44.5932 71.8252 44.5932C71.8252 44.5932 71.8251 44.5932 71.7755 44.5932H71.7259C71.7259 44.5932 71.6266 44.5932 71.577 44.5932C71.577 44.5932 71.577 44.5932 71.5273 44.5932H71.2295C71.1798 44.5932 71.1302 44.5932 71.0309 44.5932C71.0309 44.5932 71.031 44.5932 70.9813 44.5932C70.882 44.5932 70.7827 44.5932 70.6835 44.5932C70.6835 44.5932 70.6338 44.5932 70.5842 44.5932C70.5346 44.5932 70.4849 44.5932 70.4353 44.5932C70.4353 44.5932 70.3856 44.5932 70.336 44.5932C70.336 44.5932 70.2367 44.5932 70.1871 44.5932C70.1374 44.5932 70.0382 44.5933 69.9885 44.4937C69.9885 44.4937 69.9886 44.4937 69.9389 44.4937C69.8396 44.4937 69.79 44.3941 69.6907 44.3443C69.6907 44.3443 69.6907 44.3443 69.6411 44.3443C69.6411 44.3443 69.5914 44.3443 69.5418 44.2945C69.5418 44.2945 69.4922 44.2945 69.4922 44.2447C69.4922 44.2447 69.4425 44.2447 69.3929 44.1949C69.3929 44.1949 69.3432 44.1451 69.2936 44.0953C69.2936 44.0953 69.2936 44.0455 69.244 43.9957C69.244 43.9957 69.244 43.9459 69.244 43.8961C69.244 43.8961 69.244 43.8961 69.244 43.8464V43.7467C69.244 43.7467 69.244 43.7468 69.244 43.697C69.244 43.697 69.244 43.6472 69.244 43.5974C69.244 43.5974 69.244 43.5974 69.244 43.5476V42.5517C69.244 42.5517 69.244 42.6015 69.244 42.6513" fill="#C18307"/>
<path d="M69.69 41.3075C68.6476 41.9051 68.6476 42.901 69.69 43.4985C70.7324 44.096 72.4201 44.096 73.4625 43.4985C74.5049 42.901 74.5049 41.9051 73.4625 41.3075C72.4201 40.71 70.7324 40.71 69.69 41.3075Z" fill="#FCCC00"/>
<path d="M18.3651 116.906C18.3651 116.906 18.1666 113.47 16.9256 110.681C15.635 107.943 11.5647 105.752 10.8201 104.656C10.0755 103.61 9.82734 106.1 11.2172 107.445C13.4509 109.636 12.8056 110.482 12.8056 110.482C12.8056 110.482 9.97623 108.689 6.70011 107.445C3.42399 106.25 1.73631 105.801 1.14066 106.2C0.544998 106.548 -0.894509 108.739 0.79319 111.329C2.53053 113.918 4.06931 116.059 6.79941 117.453C9.52951 118.798 15.4364 122.383 15.4364 122.383L18.4644 116.906H18.3651Z" fill="#F5D5A9"/>
<path d="M48.9916 85.58C42.7372 86.3767 38.8158 96.3853 37.8727 101.365C36.4828 108.436 37.0288 115.706 35.7382 122.776C33.3556 122.976 30.0298 121.98 27.7961 120.137C24.8178 117.598 19.1094 115.307 19.0598 115.307C16.7764 114.411 10.9688 125.167 10.9688 125.167C10.9688 125.167 16.5779 130.893 19.854 134.827C23.1301 138.76 29.2356 142.744 38.2698 143.839C46.7083 144.885 49.5376 134.229 51.5728 126.262C52.0692 120.436 60.8055 84.0861 48.942 85.5302" fill="#D9231C"/>
<g style="mix-blend-mode:multiply" opacity="0.2">
<mask id="mask3_1228_9028" style="mask-type:luminance" maskUnits="userSpaceOnUse" x="226" y="196" width="123" height="72">
<path d="M348.908 196.375H226.6V267.432H348.908V196.375Z" fill="white"/>
</mask>
<g mask="url(#mask3_1228_9028)">
<mask id="mask4_1228_9028" style="mask-type:luminance" maskUnits="userSpaceOnUse" x="226" y="196" width="123" height="72">
<path d="M348.908 196.379H226.6V267.436H348.908V196.379Z" fill="white"/>
</mask>
<g mask="url(#mask4_1228_9028)">
<path d="M348.908 231.932L287.952 267.436L226.6 231.932L287.555 196.379L348.908 231.932Z" fill="#231815"/>
</g>
</g>
</g>
<path d="M300.409 79.8015C300.409 79.8015 300.558 79.4529 300.608 79.2537C302.147 74.7224 301.353 65.2117 296.885 63.7178C292.368 62.224 285.27 66.5063 284.277 73.8261L275.243 108.433C274.052 112.018 274.399 114.259 277.923 115.703C281.596 117.197 285.021 117.745 286.511 114.06L300.459 79.8015H300.409Z" fill="#FBD092"/>
<path d="M285.469 116.199C288.695 110.124 286.263 110.921 280.356 105.643C276.683 102.307 254.197 84.8786 254.197 84.8786C254.197 84.8786 251.268 83.0362 250.275 83.4843C247.843 84.53 249.282 88.1152 249.282 88.1152C249.282 88.1152 262.784 106.44 271.719 115.502C276.583 120.482 282.738 121.278 285.469 116.149" fill="#FBD092"/>
<path d="M256.479 85.8266C256.628 84.9801 256.826 81.3949 256.777 80.6977C256.529 77.6603 254.642 74.5232 254.344 73.2784C253.997 71.9837 251.763 73.8759 252.557 75.6187C253.451 77.4611 252.061 77.1623 252.061 77.1623C252.061 77.1623 250.473 75.6685 248.636 73.0294C246.601 70.1414 244.02 69.2948 243.374 69.3944C242.679 69.5438 240.545 71.0376 241.19 74.1249C241.885 77.1623 242.729 81.1459 244.814 83.4365C247.048 85.8764 249.827 91.5032 253.798 88.7645C255.436 87.6192 256.181 87.7686 256.529 85.9262" fill="#FBD092"/>
<path fill-rule="evenodd" clip-rule="evenodd" d="M236.723 233.565L239.056 232.22V164.5L236.723 165.844V233.565Z" fill="#B66F25"/>
<path fill-rule="evenodd" clip-rule="evenodd" d="M236.724 233.565L234.391 232.22V164.5L236.724 165.844V233.565Z" fill="#B66F25"/>
<path fill-rule="evenodd" clip-rule="evenodd" d="M288.744 263.037L291.077 261.692V193.922L288.744 195.266V263.037Z" fill="#B66F25"/>
<path fill-rule="evenodd" clip-rule="evenodd" d="M288.745 263.037L286.412 261.692V193.922L288.745 195.266V263.037Z" fill="#B66F25"/>
<path fill-rule="evenodd" clip-rule="evenodd" d="M337.24 233.565L339.573 232.22V164.5L337.24 165.844V233.565Z" fill="#B66F25"/>
<path fill-rule="evenodd" clip-rule="evenodd" d="M337.241 233.565L334.908 232.22V164.5L337.241 165.844V233.565Z" fill="#B66F25"/>
<path fill-rule="evenodd" clip-rule="evenodd" d="M345.431 164.505L287.007 130.645L228.533 164.505L286.957 198.365L345.431 164.505Z" fill="#E49134"/>
<path fill-rule="evenodd" clip-rule="evenodd" d="M346.871 163.711V166.25L287.008 200.907V198.368L346.871 163.711Z" fill="#B66F25"/>
<path fill-rule="evenodd" clip-rule="evenodd" d="M228.484 164.5V167.04L287.008 200.9V198.36L228.484 164.5Z" fill="#B66F25"/>
<path fill-rule="evenodd" clip-rule="evenodd" d="M297.184 59.7305C297.184 60.079 295.795 60.4276 295.795 60.7761C295.497 83.0343 288.398 107.583 288.398 129.791C307.608 140.895 326.272 153.394 345.482 164.498C345.78 164.697 346.574 163.502 346.872 163.701C346.872 141.144 355.658 116.197 355.658 93.6405C336.15 82.3372 316.643 71.0836 297.184 59.7803" fill="#B66F25"/>
<path fill-rule="evenodd" clip-rule="evenodd" d="M295.793 60.5352C295.793 83.092 286.957 108.039 286.957 130.596C306.465 141.899 325.973 153.153 345.431 164.456C345.431 141.899 354.217 116.952 354.217 94.3953C334.709 83.092 315.251 71.7887 295.743 60.5352" fill="#C67B2B"/>
<path d="M257.473 234.567L248.141 256.626C248.141 256.626 245.411 261.705 247.495 263.149C249.58 264.593 252.956 264.991 255.984 264.045C259.012 263.149 260.352 261.456 262.238 258.568C264.174 255.679 265.862 249.854 265.862 249.854L265.961 255.331L267.45 256.476L269.088 255.53C269.088 255.53 269.237 238.152 269.088 235.513C268.939 232.874 265.862 230.284 261.891 231.23C257.87 232.177 257.423 234.517 257.423 234.517" fill="#975613"/>
<path d="M244.168 227.595L234.836 249.654C234.836 249.654 232.106 254.733 234.191 256.177C236.276 257.621 239.651 258.019 242.679 257.073C245.707 256.177 247.047 254.484 248.933 251.596C250.869 248.708 252.607 242.882 252.607 242.882L252.706 248.359L254.195 249.505L255.833 248.608C255.833 248.608 255.982 231.23 255.833 228.591C255.684 225.952 252.606 223.362 248.586 224.309C244.615 225.304 244.168 227.595 244.168 227.595Z" fill="#975613"/>
<path d="M282.539 142.941C267.896 152.85 241.836 171.025 240.545 180.437C239.751 186.063 245.41 226.945 245.41 226.945C245.41 226.945 243.97 232.97 243.325 234.812C242.68 236.655 240.843 240.489 242.928 241.983C245.956 244.074 249.182 242.082 249.976 240.14C254.345 229.036 255.188 220.023 255.685 207.923C256.032 198.96 254.047 186.462 254.047 186.462C254.047 186.462 276.731 170.079 276.483 166.743" fill="#F5D5A9"/>
<path d="M295.348 150.168C280.704 160.077 254.644 178.302 253.354 187.663C252.56 193.29 258.218 234.171 258.218 234.171C258.218 234.171 256.779 240.196 256.133 242.039C255.488 243.931 253.652 247.715 255.736 249.209C258.764 251.3 262.04 249.309 262.785 247.367C267.153 236.263 267.997 227.25 268.493 215.15C268.841 206.236 266.905 193.688 266.905 193.688C266.905 193.688 289.59 177.306 289.341 173.97" fill="#F5D5A9"/>
<path d="M250.473 165.502C250.473 165.502 257.124 157.734 267.697 149.668C277.426 142.199 288.793 129.352 288.793 129.352L306.018 140.157C311.23 143.194 321.654 141.601 321.654 141.601C321.257 150.066 322.398 156.788 316.591 163.361C312.272 168.291 303.238 177.254 297.728 180.142C294.353 181.885 278.121 189.802 277.029 186.964C271.867 173.868 265.166 169.585 250.522 165.502" fill="#1590D1"/>
<path d="M294.701 74.1312L298.474 110.282L315.4 73.6831L304.182 66.5625L294.701 74.1312Z" fill="white"/>
<path d="M289.291 118.741C289.291 118.741 288.348 120.534 286.958 123.023C286.412 124.468 285.816 125.663 285.816 125.663L289.291 118.691V118.741Z" fill="#1590D1"/>
<path d="M321.753 144.486L320.859 123.822C320.313 124.718 319.718 125.564 319.172 125.714C317.583 121.979 317.732 120.784 318.08 117.498C318.725 111.771 320.065 105.049 320.065 105.049L330.886 81.347C328.057 76.6663 318.228 70.2428 315.101 68.1017L312.917 67.1556L311.875 68.998L310.088 73.4795L304.528 74.2762C304.528 74.2762 300.309 76.7161 300.607 71.4877C300.855 66.807 299.614 66.5083 299.614 66.5083C285.12 63.3214 288.942 84.8326 285.815 88.9656C285.815 88.9656 277.922 99.3726 280.851 108.784C283.134 116.054 287.304 116.552 286.162 124.618C285.864 126.76 280.454 137.664 280.454 137.664C280.454 137.664 287.403 139.308 290.332 140.104L320.264 145.731C320.76 145.333 321.306 144.885 321.802 144.486" fill="#1590D1"/>
<path d="M328.058 30.5565C331.83 35.0878 331.681 41.5113 327.661 44.8475C323.64 48.1837 317.336 47.2376 313.563 42.7063C309.791 38.1751 309.94 31.7516 313.961 28.4153C317.981 25.0293 324.285 25.9754 328.058 30.5565Z" fill="#1F1C1C"/>
<path d="M302.246 62.2773L299.963 72.6844C300.211 75.9708 300.211 78.112 302.296 80.6017C305.771 80.054 311.231 76.419 312.621 72.7342L312.819 65.2152L302.197 62.2773H302.246Z" fill="#FBD092"/>
<path d="M296.885 65.8564C297.282 65.7568 297.629 65.5078 297.977 65.0596C298.821 63.8646 299.664 62.6197 300.508 61.4247C302.395 58.5864 304.281 55.7481 306.266 53.0094C306.763 52.3621 307.16 51.6649 307.606 51.0176L291.722 46.3867C290.978 48.4283 290.63 49.8724 290.432 51.665C289.886 56.1962 290.779 61.9724 293.559 64.9601C294.403 65.9062 295.495 66.2049 296.885 65.9062" fill="#050000"/>
<path d="M321.604 42.3054C320.761 45.5918 316.938 47.5836 313.613 47.7828C308.401 48.0816 304.628 39.019 306.961 35.8819C311.925 29.2095 323.937 33.6412 321.604 42.3054Z" fill="#0086C5"/>
<path d="M319.273 65.6154C326.123 61.0343 326.47 48.0379 322.698 42.3116C319.223 37.1329 312.373 34.1453 306.168 34.8424C298.722 35.6889 292.468 41.8634 291.326 47.9881L294.404 49.1334C297.184 50.0297 306.069 53.3162 310.735 53.8141C310.238 57.1005 310.139 63.8228 311.777 66.7606C313.266 69.35 317.436 66.7607 319.273 65.5656" fill="#050000"/>
<path d="M314.16 67.2514C314.309 66.9028 314.408 66.604 314.557 66.2555C314.954 65.3094 315.699 65.0604 316.295 64.3135C318.33 61.774 319.918 54.6036 316.543 53.7073C314.011 53.0101 312.125 64.0147 312.324 61.2262C312.324 61.2262 311.926 53.9563 312.075 52.9106C306.218 52.313 294.007 47.483 293.908 47.732C290.88 53.4085 290.88 62.6703 294.404 67.9983C299.219 75.3679 311.132 75.0691 314.259 67.3012" fill="#FCDEB3"/>
<path d="M290.977 99.0742C290.977 107.589 284.127 114.461 275.639 114.461C267.151 114.461 260.301 107.589 260.301 99.0742H290.977Z" fill="#DFDFDE"/>
<path d="M286.46 105.346C280.454 108.832 270.775 108.832 264.768 105.346C258.762 101.86 258.762 96.2834 264.768 92.7978C270.775 89.3122 280.454 89.3122 286.46 92.7978C292.466 96.2834 292.466 101.91 286.46 105.346Z" fill="white"/>
<path d="M288.298 102.305C287.653 101.459 286.71 100.662 285.519 100.014C280.058 96.8774 271.272 96.8774 265.812 100.014C264.621 100.712 263.678 101.508 263.033 102.305C260.65 99.3174 261.593 95.6824 265.812 93.1926C271.272 90.0556 280.058 90.0556 285.519 93.1926C289.788 95.6326 290.681 99.3174 288.298 102.305Z" fill="#D0CFCD"/>
<path d="M288.297 102.315C287.602 103.162 286.709 103.958 285.517 104.606C280.057 107.743 271.271 107.743 265.811 104.606C264.62 103.909 263.677 103.162 263.031 102.315C263.677 101.469 264.62 100.672 265.811 100.025C271.271 96.8876 280.057 96.8876 285.517 100.025C286.709 100.722 287.652 101.518 288.297 102.315Z" fill="#F5AB00"/>
<path d="M332.476 82.7988C327.859 75.7778 321.506 81.1556 320.86 81.554C312.273 86.7824 317.634 95.8449 317.783 103.364C317.932 111.829 318.13 119.796 318.13 119.796C318.13 119.796 298.225 108.991 296.488 108.493L292.914 115.514C292.914 115.514 293.162 115.564 293.311 115.613C293.311 115.613 319.818 137.423 323.789 135.929C333.171 132.444 330.143 131.697 332.327 120.692C333.766 113.572 337.042 89.7202 332.476 82.8486" fill="#F5D4A8"/>
<path d="M332.476 92.4024C331.93 99.9712 327.661 105.897 322.995 105.548C318.329 105.2 315.003 98.7761 315.549 91.1576C316.095 83.5888 320.314 77.7131 324.98 78.0616C329.646 78.4102 332.972 84.8337 332.426 92.4024" fill="#F5D4A8"/>
<path d="M298.423 109.927C298.423 109.927 295.346 106.989 293.112 104.898C290.878 102.856 286.262 102.358 285.17 101.661C284.078 100.964 284.822 103.354 286.609 104.101C289.488 105.246 289.24 106.342 289.24 106.342C289.24 106.342 285.964 105.744 282.44 105.894C278.965 106.043 277.228 106.292 276.831 106.889C276.433 107.437 275.887 110.027 278.469 111.769C281.05 113.512 283.284 114.857 286.311 115.106C289.339 115.355 296.636 117.197 296.636 117.197L298.473 109.977L298.423 109.927Z" fill="#F5D5A9"/>
<path d="M311.874 211.714C314.455 213.208 314.455 215.648 311.874 217.142C309.293 218.636 305.123 218.636 302.493 217.142C299.911 215.648 299.911 213.208 302.493 211.714C305.074 210.22 309.243 210.22 311.825 211.714" fill="#805023"/>
<path d="M295.892 303.137C295.892 303.137 296.785 306.573 296.239 314.789C296.189 315.884 294.303 317.129 292.119 318.025C289.389 319.121 285.716 318.872 284.822 318.025L284.425 316.183C284.425 316.183 270.477 317.029 268.541 308.664C268.541 308.664 267.697 306.573 270.924 304.631C272.661 303.585 275.887 303.585 278.766 303.386C283.035 303.087 287.85 303.386 287.85 303.386L295.842 303.187L295.892 303.137Z" fill="#965714"/>
<path d="M315.3 241.15C315.3 241.15 307.656 231.888 296.934 231.34C291.673 231.091 280.454 230.693 279.114 238.909C278.519 242.295 278.27 246.079 278.618 252.353C279.263 265.698 286.113 300.156 286.312 303.144C286.312 304.239 283.979 303.741 283.135 304.687C281.596 306.43 282.887 308.522 284.922 309.119C290.68 310.912 294.899 307.227 295.644 304.538C297.629 297.617 297.331 288.952 297.828 281.782C298.523 271.724 299.764 267.192 298.473 256.735C298.473 256.735 310.684 265.798 310.486 262.661" fill="#F5D5A9"/>
<path d="M273.752 311.355C273.752 311.355 274.646 314.791 274.1 323.057C274.05 324.153 272.164 325.397 269.98 326.294C267.299 327.389 263.576 327.14 262.683 326.294L262.335 324.451C262.335 324.451 248.387 325.298 246.451 316.932C246.451 316.932 245.607 314.841 248.834 312.899C250.571 311.853 253.798 311.853 256.677 311.654C260.945 311.355 265.76 311.654 265.76 311.654L273.752 311.455V311.355Z" fill="#965714"/>
<path d="M293.112 249.37C293.112 249.37 285.468 240.158 274.746 239.61C269.534 239.361 258.266 238.963 256.926 247.129C256.33 250.565 256.082 254.299 256.38 260.524C257.025 273.869 263.875 308.326 264.074 311.314C264.124 312.41 261.741 311.912 260.947 312.858C259.408 314.65 260.699 316.692 262.734 317.289C268.492 319.082 272.711 315.397 273.456 312.708C275.441 305.787 275.143 297.123 275.64 289.952C276.335 279.944 277.576 275.362 276.285 264.906C276.285 264.906 288.496 273.968 288.347 270.781" fill="#F5D5A9"/>
<path d="M264.074 277.191L265.067 304.977C265.067 304.977 295.743 302.985 299.168 287.1L264.074 277.191Z" fill="#7C0D17"/>
<g style="mix-blend-mode:multiply" opacity="0.1">
<mask id="mask5_1228_9028" style="mask-type:luminance" maskUnits="userSpaceOnUse" x="131" y="160" width="125" height="74">
<path d="M255.833 160.734H131.191V233.135H255.833V160.734Z" fill="white"/>
</mask>
<g mask="url(#mask5_1228_9028)">
<mask id="mask6_1228_9028" style="mask-type:luminance" maskUnits="userSpaceOnUse" x="131" y="160" width="125" height="74">
<path d="M255.833 160.742H131.191V233.143H255.833V160.742Z" fill="white"/>
</mask>
<g mask="url(#mask6_1228_9028)">
<path d="M237.417 171.348C261.839 185.49 261.938 208.395 237.715 222.537C213.442 236.679 174.029 236.679 149.607 222.537C125.185 208.395 125.036 185.49 149.309 171.348C173.582 157.207 213.045 157.207 237.417 171.348Z" fill="#231815"/>
</g>
</g>
</g>
<mask id="mask7_1228_9028" style="mask-type:luminance" maskUnits="userSpaceOnUse" x="134" y="185" width="123" height="45">
<path d="M134.469 189.148C134.469 189.148 134.469 189.198 134.469 189.247C134.469 189.646 134.469 190.044 134.469 190.442C134.469 190.442 134.469 190.492 134.469 190.542C134.469 190.94 134.469 193.181 134.469 193.579C134.469 202.742 140.475 211.854 152.488 218.825C176.413 232.668 215.032 232.668 238.808 218.825C250.622 211.954 256.529 202.941 256.529 193.928C256.529 192.882 256.529 189.944 256.529 188.899C256.529 188.899 256.529 188.949 256.529 188.998C256.529 188.55 256.529 188.102 256.529 187.604C256.529 187.604 256.529 187.654 256.529 187.704C256.529 187.206 256.529 186.758 256.529 186.309C256.529 195.322 250.573 204.335 238.808 211.207C215.032 225.05 176.413 225.05 152.488 211.207C140.475 204.235 134.419 195.073 134.469 185.961C134.469 187.007 134.469 188.052 134.469 189.098" fill="white"/>
</mask>
<g mask="url(#mask7_1228_9028)">
<path d="M256.579 185.961H134.469V232.668H256.579V185.961Z" fill="url(#paint0_linear_1228_9028)"/>
</g>
<path d="M238.56 161.077C262.485 174.92 262.584 197.378 238.857 211.22C215.081 225.063 176.462 225.063 152.537 211.22C128.611 197.378 128.512 174.92 152.239 161.077C175.966 147.235 214.634 147.235 238.56 161.077Z" fill="#D16A52"/>
<path fill-rule="evenodd" clip-rule="evenodd" d="M264.968 342.876L262.635 341.532V273.762L264.968 275.156V342.876Z" fill="#C67B2B"/>
<path fill-rule="evenodd" clip-rule="evenodd" d="M264.967 342.876L267.349 341.532V273.762L264.967 275.156V342.876Z" fill="#C67B2B"/>
<path fill-rule="evenodd" clip-rule="evenodd" d="M315.202 313.745L312.869 312.4V244.68L315.202 246.024V313.745Z" fill="#C67B2B"/>
<path fill-rule="evenodd" clip-rule="evenodd" d="M315.201 313.745L317.534 312.4V244.68L315.201 246.024V313.745Z" fill="#C67B2B"/>
<path fill-rule="evenodd" clip-rule="evenodd" d="M315.251 370.759L312.918 369.365V301.645L315.251 302.989V370.759Z" fill="#C67B2B"/>
<path fill-rule="evenodd" clip-rule="evenodd" d="M315.252 370.759L317.585 369.365V301.645L315.252 302.989V370.759Z" fill="#C67B2B"/>
<path fill-rule="evenodd" clip-rule="evenodd" d="M256.775 272.516L315.2 238.656L373.673 272.516L315.249 306.377L256.775 272.516Z" fill="#E49134"/>
<path fill-rule="evenodd" clip-rule="evenodd" d="M256.727 272.57V275.11L316.59 309.767V307.227L256.727 272.57Z" fill="#B66F25"/>
<path fill-rule="evenodd" clip-rule="evenodd" d="M365.485 341.63L363.152 340.236V272.516L365.485 273.86V341.63Z" fill="#C67B2B"/>
<path fill-rule="evenodd" clip-rule="evenodd" d="M365.484 341.63L367.817 340.236V272.516L365.484 273.86V341.63Z" fill="#C67B2B"/>
<path d="M325.725 245.284C332.227 242.894 339.127 237.168 339.127 237.168C347.516 251.757 340.318 275.808 340.318 275.858C338.382 280.937 332.029 283.277 327.363 284.174C320.761 285.468 315.996 285.618 309.195 285.319C298.275 284.871 283.334 276.406 274.498 269.683C274.498 269.683 267.152 254.297 275.143 245.035C275.143 245.035 292.815 229.649 305.72 232.537C305.969 232.537 324.434 245.583 324.434 245.583" fill="#7C0D17"/>
<path d="M291.623 230.097C279.114 230.346 267.399 235.275 262.783 238.761C253.749 245.583 256.38 255.342 256.38 255.342C259.358 251.608 274.15 259.824 274.15 259.824L307.507 246.429L291.573 230.047L291.623 230.097Z" fill="#E41321"/>
<path d="M261.592 270.724C261.592 270.724 265.563 265.745 278.915 271.222L275.441 256.333C275.441 256.333 265.066 255.338 261.592 270.724Z" fill="#7C0D17"/>
<mask id="mask8_1228_9028" style="mask-type:luminance" maskUnits="userSpaceOnUse" x="188" y="271" width="15" height="90">
<path d="M188.771 356.254C188.771 357.25 189.417 358.246 190.707 358.993C193.289 360.487 197.508 360.487 200.039 358.993C201.33 358.246 201.975 357.25 201.975 356.304L202.323 271.554C202.323 272.55 201.677 273.496 200.387 274.243C197.806 275.736 193.636 275.736 191.055 274.243C189.764 273.496 189.119 272.5 189.119 271.504L188.771 356.254Z" fill="white"/>
</mask>
<g mask="url(#mask8_1228_9028)">
<path d="M202.323 271.465H188.771V360.448H202.323V271.465Z" fill="url(#paint1_linear_1228_9028)"/>
</g>
<path d="M200.339 268.781C202.92 270.274 202.92 272.714 200.339 274.208C197.758 275.702 193.588 275.702 190.957 274.208C188.376 272.714 188.376 270.274 190.957 268.781C193.539 267.287 197.708 267.287 200.289 268.781" fill="#805023"/>
<mask id="mask9_1228_9028" style="mask-type:luminance" maskUnits="userSpaceOnUse" x="77" y="206" width="14" height="89">
<path d="M77.2363 290.934C77.2363 291.93 77.8816 292.925 79.1722 293.672C81.7534 295.166 85.923 295.166 88.5042 293.672C89.7948 292.925 90.4401 291.93 90.4401 290.984L90.7876 206.233C90.7876 207.229 90.1423 208.175 88.8517 208.922C86.2705 210.416 82.1009 210.416 79.5197 208.922C78.2291 208.175 77.5838 207.179 77.5838 206.184L77.2363 290.934Z" fill="white"/>
</mask>
<g mask="url(#mask9_1228_9028)">
<path d="M90.7876 206.141H77.2363V295.123H90.7876V206.141Z" fill="url(#paint2_linear_1228_9028)"/>
</g>
<path d="M88.8519 203.452C91.4331 204.946 91.4331 207.386 88.8519 208.88C86.2707 210.374 82.1011 210.374 79.5199 208.88C76.9387 207.386 76.9387 204.946 79.5199 203.452C82.1011 201.959 86.2707 201.959 88.8519 203.452Z" fill="#805023"/>
<mask id="mask10_1228_9028" style="mask-type:luminance" maskUnits="userSpaceOnUse" x="77" y="198" width="237" height="82">
<path d="M77.2365 204.994C77.2365 204.994 77.2365 205.093 77.2365 205.193C77.2365 205.99 77.2365 206.737 77.2365 207.533C77.2365 207.583 77.2365 207.633 77.2365 207.733C77.2365 208.479 77.2365 209.276 77.2365 210.073C77.1868 227.75 88.8519 245.527 112.132 259.021C158.494 285.86 233.349 285.86 279.413 259.021C302.296 245.676 313.763 228.248 313.763 210.77V204.645C313.763 204.645 313.763 204.745 313.763 204.844C313.763 203.948 313.763 203.052 313.763 202.156C313.763 202.205 313.763 202.255 313.763 202.355C313.763 201.458 313.763 200.562 313.763 199.666C313.713 217.144 302.246 234.572 279.413 247.917C233.398 274.756 158.494 274.756 112.132 247.917C88.8022 234.422 77.1868 216.696 77.2365 198.969C77.2365 201.01 77.2365 203.052 77.2365 205.093" fill="white"/>
</mask>
<g mask="url(#mask10_1228_9028)">
<path d="M313.811 198.867H77.1855V285.758H313.811V198.867Z" fill="url(#paint3_linear_1228_9028)"/>
</g>
<path d="M278.916 150.622C325.278 177.461 325.477 220.981 279.462 247.82C233.398 274.66 158.544 274.66 112.182 247.82C65.8195 220.981 65.5713 177.461 111.636 150.622C157.65 123.782 232.554 123.782 278.916 150.622Z" fill="#EC6F67"/>
<g opacity="0.1">
<mask id="mask11_1228_9028" style="mask-type:luminance" maskUnits="userSpaceOnUse" x="92" y="179" width="30" height="17">
<path d="M121.167 179.148H92.5254V195.73H121.167V179.148Z" fill="white"/>
</mask>
<g mask="url(#mask11_1228_9028)">
<mask id="mask12_1228_9028" style="mask-type:luminance" maskUnits="userSpaceOnUse" x="92" y="179" width="30" height="17">
<path d="M121.167 179.141H92.5254V195.722H121.167V179.141Z" fill="white"/>
</mask>
<g mask="url(#mask12_1228_9028)">
<path d="M116.947 193.285C111.388 196.522 102.304 196.522 96.695 193.285C91.1355 190.049 91.1355 184.82 96.695 181.584C102.254 178.347 111.338 178.347 116.947 181.584C122.556 184.82 122.556 190.049 116.947 193.285Z" fill="#050000"/>
</g>
</g>
</g>
<path d="M122.159 177.418C122.159 185.933 115.309 192.804 106.821 192.804C98.3325 192.804 91.4824 185.933 91.4824 177.418H122.159Z" fill="#DFDFDE"/>
<path d="M117.642 183.682C111.636 187.168 101.956 187.168 95.95 183.682C89.9438 180.196 89.9438 174.619 95.95 171.134C101.956 167.648 111.636 167.648 117.642 171.134C123.648 174.619 123.648 180.246 117.642 183.682Z" fill="white"/>
<path d="M119.478 180.645C118.833 179.798 117.89 179.002 116.698 178.354C111.238 175.217 102.452 175.217 96.9919 178.354C95.8006 179.051 94.8575 179.848 94.2122 180.645C91.8296 177.657 92.7727 174.022 96.9919 171.532C102.452 168.395 111.238 168.395 116.698 171.532C120.967 173.972 121.861 177.657 119.478 180.645Z" fill="#D0CFCD"/>
<path d="M119.479 180.647C118.784 181.494 117.89 182.29 116.699 182.938C111.239 186.075 102.453 186.075 96.9926 182.938C95.8013 182.241 94.8582 181.494 94.2129 180.647C94.8582 179.801 95.8013 179.004 96.9926 178.357C102.453 175.22 111.239 175.22 116.699 178.357C117.89 179.054 118.833 179.851 119.479 180.647Z" fill="#F5AB00"/>
<g opacity="0.1">
<mask id="mask13_1228_9028" style="mask-type:luminance" maskUnits="userSpaceOnUse" x="168" y="184" width="46" height="27">
<path d="M213.443 184.637H168.967V210.38H213.443V184.637Z" fill="white"/>
</mask>
<g mask="url(#mask13_1228_9028)">
<mask id="mask14_1228_9028" style="mask-type:luminance" maskUnits="userSpaceOnUse" x="168" y="184" width="46" height="27">
<path d="M213.443 184.637H168.967V210.38H213.443V184.637Z" fill="white"/>
</mask>
<g mask="url(#mask14_1228_9028)">
<path d="M191.254 210.38L168.967 197.484L191.205 184.637L213.443 197.533L191.254 210.38Z" fill="#050000"/>
</g>
</g>
</g>
<path d="M191.205 208.48V172.08L209.77 161.324V197.724L191.205 208.48Z" fill="#DF0517"/>
<path d="M194.384 180.602L197.66 178.71V181.249L198.702 180.004V178.112L202.077 176.12V178.66L203.12 177.415V175.523L207.488 172.983L206.297 171.938L205.304 173.68L203.12 174.925V174.228L203.666 173.332L202.077 173.182V175.523L198.702 177.514V176.817L199.198 175.921L197.66 175.722V178.112L193.738 180.403L194.185 181L194.384 180.602Z" fill="#F5AB00"/>
<path d="M207.289 178.856C204.161 180.848 201.084 178.707 201.084 178.707L201.431 177.91L200.389 177.512C200.389 177.512 197.808 183.686 193.439 188.616C196.666 186.724 200.587 179.304 200.587 179.304C200.587 179.304 203.814 181.894 206.345 180.898C206.941 180.549 207.636 178.657 207.289 178.856Z" fill="#F5AB00"/>
<path d="M204.558 181.098L203.565 182.641L201.083 184.085V182.84L201.629 182.143L200.041 181.795V184.683L195.375 187.372L195.772 188.019L196.02 187.322L200.041 184.982V189.662L197.907 190.857L199.842 191.853L201.083 189.911V184.384L205.65 181.745L204.558 181.098Z" fill="#F5AB00"/>
<path d="M197.66 187.121L194.334 194.292L198.901 187.719L197.66 187.121Z" fill="#F5AB00"/>
<path d="M205.254 187.82L205.9 185.579L201.879 185.031L205.254 187.82Z" fill="#F5AB00"/>
<path d="M191.205 208.48L172.541 197.724V161.324L191.205 172.08V208.48Z" fill="#A52017"/>
<path d="M191.205 172.089L172.541 161.334L191.155 150.578L209.77 161.334L191.205 172.089Z" fill="#BC6413"/>
<path d="M175.072 172.977L178.646 175.069V177.807L179.738 177.758V175.716L183.461 177.857V180.596L184.553 180.546V178.505L189.318 181.243L187.978 178.604L186.935 179.202L184.553 177.857V177.06L185.148 176.762L183.461 174.621V177.21L179.738 175.069V174.272L180.334 173.973L178.646 171.832V174.421L174.377 171.981L174.873 173.177L175.072 172.977Z" fill="#F08600"/>
<path d="M189.07 187.322C185.694 185.53 182.319 179.355 182.319 179.355L182.666 178.907L181.525 177.164C181.525 177.164 178.745 180.6 174.029 180.5C177.554 182.542 181.773 179.405 181.773 179.405C181.773 179.405 185.297 186.276 187.978 188.318C188.623 188.667 189.367 187.521 189.02 187.322" fill="#F08600"/>
<path d="M186.094 186.274L185.051 186.723L182.371 185.179V183.884L182.917 183.735L181.229 181.395V184.532L176.166 181.594L176.563 182.789L176.861 182.341L181.229 184.88V189.909L178.896 188.565L181.031 192.051L182.371 191.553V185.527L187.335 188.416L186.094 186.274Z" fill="#F08600"/>
<path d="M178.647 184.18L175.023 187.715L179.987 186.42L178.647 184.18Z" fill="#F08600"/>
<path d="M186.888 194.488L187.533 192.845L183.215 187.168L186.888 194.488Z" fill="#F08600"/>
<path d="M191.205 166.853V157.592L209.77 146.836V156.098L191.205 166.853Z" fill="#DF0517"/>
<path d="M191.205 166.853L172.541 156.098V146.836L191.205 157.592V166.853Z" fill="#A52017"/>
<path d="M191.205 157.593L172.541 146.838L191.155 136.082L209.77 146.838L191.205 157.593Z" fill="#E83C41"/>
<path d="M191.205 172.082V166.853L209.77 156.098V161.326L191.205 172.082Z" fill="#F5AB00"/>
<path d="M191.205 172.082L172.541 161.326V156.098L191.205 166.853V172.082Z" fill="#F08600"/>
<g opacity="0.1">
<mask id="mask15_1228_9028" style="mask-type:luminance" maskUnits="userSpaceOnUse" x="198" y="204" width="46" height="26">
<path d="M243.179 204.164H198.703V229.908H243.179V204.164Z" fill="white"/>
</mask>
<g mask="url(#mask15_1228_9028)">
<mask id="mask16_1228_9028" style="mask-type:luminance" maskUnits="userSpaceOnUse" x="198" y="204" width="46" height="26">
<path d="M243.179 204.164H198.703V229.908H243.179V204.164Z" fill="white"/>
</mask>
<g mask="url(#mask16_1228_9028)">
<path d="M220.991 229.908L198.703 217.011L220.941 204.164L243.179 217.061L220.991 229.908Z" fill="#050000"/>
</g>
</g>
</g>
<path d="M220.938 228.007V191.607L239.502 180.852V217.251L220.938 228.007Z" fill="#00A49C"/>
<path d="M222.826 218.792L237.916 210.078V185.031L222.826 193.745V218.792Z" fill="white"/>
<path d="M224.116 200.117L227.392 198.225V200.765L228.435 199.52V197.628L231.86 195.636V198.175L232.852 196.931V195.038L237.27 192.499L236.029 191.453L235.036 193.196L232.852 194.441V193.744L233.398 192.847L231.86 192.698V195.038L228.435 197.03V196.333L228.981 195.437L227.392 195.237V197.628L223.471 199.918L223.917 200.516L224.116 200.117Z" fill="#F5AB00"/>
<path d="M237.072 198.372C233.945 200.364 230.867 198.222 230.867 198.222L231.214 197.426L230.172 197.027C230.172 197.027 227.591 203.202 223.223 208.132C226.449 206.239 230.371 198.82 230.371 198.82C230.371 198.82 233.597 201.409 236.129 200.413C236.724 200.065 237.419 198.173 237.072 198.372Z" fill="#F5AB00"/>
<path d="M234.291 200.617L233.298 202.161L230.816 203.605V202.36L231.362 201.663L229.773 201.314V204.202L225.107 206.891L225.505 207.539L225.753 206.841L229.773 204.501V209.182L227.639 210.427L229.575 211.373L230.816 209.431V203.904L235.432 201.265L234.291 200.617Z" fill="#F5AB00"/>
<path d="M227.392 206.637L224.066 213.807L228.683 207.234L227.392 206.637Z" fill="#F5AB00"/>
<path d="M234.987 207.335L235.632 205.095L231.611 204.547L234.987 207.335Z" fill="#F5AB00"/>
<path d="M220.939 228.007L202.324 217.251V180.852L220.939 191.607V228.007Z" fill="#008072"/>
<path d="M219.201 218.792L204.111 210.078V185.031L219.201 193.745V218.792Z" fill="#DFDFDE"/>
<path d="M220.939 191.601L202.324 180.845L220.889 170.09L239.503 180.845L220.939 191.601Z" fill="#BC6413"/>
<path d="M204.806 192.501L208.38 194.592V197.331L209.522 197.281V195.239L213.195 197.381V200.119L214.337 200.069V198.028L219.052 200.767L217.762 198.078L216.67 198.725L214.337 197.381V196.584L214.883 196.285L213.195 194.144V196.733L209.522 194.592V193.795L210.068 193.497L208.38 191.355V193.945L204.111 191.505L204.608 192.7L204.806 192.501Z" fill="#F08600"/>
<path d="M218.855 206.842C215.479 205.049 212.104 198.875 212.104 198.875L212.451 198.426L211.31 196.684C211.31 196.684 208.53 200.119 203.814 200.02C207.339 202.061 211.558 198.924 211.558 198.924C211.558 198.924 215.082 205.796 217.763 207.838C218.408 208.186 219.153 207.041 218.805 206.842" fill="#F08600"/>
<path d="M215.826 205.786L214.784 206.234L212.103 204.691V203.346L212.649 203.247L210.962 200.906V204.043L205.898 201.105L206.345 202.3L206.593 201.852L210.962 204.392V209.421L208.629 208.027L210.763 211.562L212.103 211.064V205.039L217.067 207.927L215.826 205.786Z" fill="#F08600"/>
<path d="M208.379 203.707L204.756 207.242L209.769 205.898L208.379 203.707Z" fill="#F08600"/>
<path d="M216.621 214.007L217.315 212.364L212.947 206.688L216.621 214.007Z" fill="#F08600"/>
<path d="M220.938 186.369V177.107L239.502 166.352V175.613L220.938 186.369Z" fill="#00A49C"/>
<path d="M220.939 186.369L202.324 175.564V166.352L220.939 177.107V186.369Z" fill="#008072"/>
<path d="M220.939 177.109L202.324 166.353L220.889 155.598L239.503 166.353L220.939 177.109Z" fill="#50BCB6"/>
<path d="M220.938 191.605V186.377L239.502 175.621V180.849L220.938 191.605Z" fill="#F5AB00"/>
<path d="M220.939 191.6L202.324 180.845V175.566L220.939 186.372V191.6Z" fill="#F08600"/>
<g opacity="0.1">
<mask id="mask17_1228_9028" style="mask-type:luminance" maskUnits="userSpaceOnUse" x="146" y="200" width="51" height="31">
<path d="M196.666 200.816H146.184V230.046H196.666V200.816Z" fill="white"/>
</mask>
<g mask="url(#mask17_1228_9028)">
<mask id="mask18_1228_9028" style="mask-type:luminance" maskUnits="userSpaceOnUse" x="146" y="200" width="51" height="31">
<path d="M196.666 200.816H146.184V230.046H196.666V200.816Z" fill="white"/>
</mask>
<g mask="url(#mask18_1228_9028)">
<path d="M189.27 225.764C179.392 231.441 163.458 231.441 153.58 225.764C143.702 220.038 143.702 210.826 153.58 205.099C163.409 199.373 179.392 199.373 189.27 205.099C199.099 210.826 199.099 220.088 189.27 225.764Z" fill="#050000"/>
</g>
</g>
</g>
<mask id="mask19_1228_9028" style="mask-type:luminance" maskUnits="userSpaceOnUse" x="150" y="199" width="44" height="26">
<path d="M157.004 203.006C154.621 204.4 152.884 206.044 151.891 207.786H150.799V211.72C150.799 214.857 152.884 218.044 157.053 220.434C165.392 225.264 178.894 225.264 187.184 220.434C191.353 218.044 193.438 214.857 193.438 211.72V207.786H192.296C191.304 206.044 189.566 204.4 187.184 203.006C183.014 200.616 177.554 199.371 172.094 199.371C166.633 199.371 161.173 200.566 157.004 203.006Z" fill="white"/>
</mask>
<g mask="url(#mask19_1228_9028)">
<path d="M193.387 199.41H150.748V225.303H193.387V199.41Z" fill="url(#paint4_linear_1228_9028)"/>
</g>
<path d="M187.135 216.887C178.796 221.717 165.294 221.717 157.004 216.887C148.665 212.056 148.665 204.239 157.004 199.458C165.344 194.628 178.845 194.628 187.135 199.458C195.474 204.289 195.474 212.106 187.135 216.887Z" fill="#D0CFCD"/>
<path d="M197.062 178.147C195.275 177.799 193.19 178.048 190.46 179.79L185 182.977L186.837 184.67L190.46 182.529C194.63 180.139 198.253 181.085 198.253 184.371C198.253 187.658 194.729 192.438 190.609 194.878L190.51 197.368C196.02 194.181 200.487 187.608 200.487 182.778L201.132 182.18C200.437 178.944 197.112 178.197 197.112 178.197" fill="white"/>
<path d="M191.949 198.167V195.428C196.068 193.038 199.593 188.208 199.593 184.921C199.593 180.191 196.565 180.44 192.395 182.83L188.772 184.971L186.488 183.726L191.949 180.54C197.458 177.353 201.38 179.145 201.38 184.025C201.38 188.905 197.458 194.93 191.949 198.117" fill="#D0CFCD"/>
<mask id="mask20_1228_9028" style="mask-type:luminance" maskUnits="userSpaceOnUse" x="146" y="186" width="52" height="35">
<path d="M152.239 186.21C152.239 186.21 147.226 202.642 147.127 203.041C145.637 207.671 147.97 212.601 154.126 216.186C164.053 221.913 180.086 221.913 190.014 216.186C196.318 212.551 198.601 207.472 196.914 202.792L191.851 186.16L152.239 186.26V186.21Z" fill="white"/>
</mask>
<g mask="url(#mask20_1228_9028)">
<path d="M198.601 186.121H145.637V221.923H198.601V186.121Z" fill="url(#paint5_linear_1228_9028)"/>
</g>
<mask id="mask21_1228_9028" style="mask-type:luminance" maskUnits="userSpaceOnUse" x="140" y="196" width="22" height="14">
<path d="M143.801 197.12C140.277 198.216 142.064 202.548 140.773 203.842C143.106 203.195 144.943 203.544 146.531 204.39C147.872 205.286 148.815 206.581 149.956 207.427C151.892 209.419 154.325 209.768 154.325 209.768C155.615 210.067 157.055 209.917 158.842 208.872C161.82 206.581 161.522 203.344 160.331 201.353C160.331 201.353 160.331 201.303 160.331 201.253C160.232 201.153 160.182 201.004 160.083 200.904C159.09 199.411 157.353 198.514 155.863 198.016C155.715 198.016 155.516 197.867 155.218 197.817C153.928 197.419 152.935 197.319 152.935 197.319C151.148 196.971 148.864 196.672 146.879 196.672C145.688 196.672 144.596 196.771 143.851 197.07" fill="white"/>
</mask>
<g mask="url(#mask21_1228_9028)">
<path d="M145.69 187.403L134.521 206.809L156.445 219.506L167.614 200.101L145.69 187.403Z" fill="url(#paint6_linear_1228_9028)"/>
</g>
<path d="M140.773 203.844C141.915 202.35 140.525 197.919 143.801 197.122C144.794 196.923 146.184 197.321 146.73 198.815C147.326 201.205 142.809 202.101 140.773 203.844Z" fill="#D0CFCD"/>
<path d="M141.518 202.757C142.361 201.661 141.319 198.275 143.801 197.727C144.546 197.578 145.588 197.877 145.985 198.972C146.432 200.765 143.056 201.462 141.518 202.757Z" fill="#5D5B59"/>
<path d="M186.489 197.229C178.547 201.859 165.641 201.859 157.699 197.229C149.757 192.647 149.757 185.178 157.699 180.547C165.641 175.916 178.547 175.916 186.489 180.547C194.431 185.178 194.431 192.598 186.489 197.229Z" fill="white"/>
<mask id="mask22_1228_9028" style="mask-type:luminance" maskUnits="userSpaceOnUse" x="155" y="178" width="34" height="20">
<path d="M160.379 181.338C158.493 182.434 157.203 183.679 156.408 185.023H155.564V188.061C155.564 190.5 157.153 192.99 160.429 194.833C166.882 198.567 177.356 198.567 183.809 194.833C187.035 192.99 188.673 190.5 188.673 188.061V184.973H187.78C186.985 183.629 185.645 182.334 183.809 181.288C180.582 179.396 176.363 178.5 172.094 178.5C167.825 178.5 163.655 179.446 160.429 181.288" fill="white"/>
</mask>
<g mask="url(#mask22_1228_9028)">
<path d="M188.573 178.5H155.514V198.567H188.573V178.5Z" fill="url(#paint7_linear_1228_9028)"/>
</g>
<path d="M183.758 192.099C177.305 195.834 166.832 195.834 160.379 192.099C153.926 188.364 153.926 182.289 160.379 178.555C166.832 174.82 177.305 174.82 183.758 178.555C190.211 182.289 190.211 188.364 183.758 192.099Z" fill="white"/>
<path d="M178.398 173.722C177.454 172.677 175.916 172.278 175.916 172.278C174.476 171.731 172.64 171.93 170.654 173.125C166.087 175.764 162.414 182.187 162.414 187.416V188.81C162.414 188.81 162.464 189.706 163.953 189.706C165.541 189.706 165.69 188.71 165.69 188.71V187.316C165.69 183.183 168.619 178.104 172.193 176.013C173.583 175.216 174.774 175.067 175.866 175.565C176.859 176.162 177.157 177.307 177.157 178.901V180.295C177.157 180.295 177.405 181.191 178.695 181.191C180.135 181.191 180.433 180.196 180.433 180.196V178.801C180.433 176.411 179.688 174.668 178.398 173.722Z" fill="#DADBDB"/>
<path d="M290.183 201.363C290.183 201.363 287.9 197.778 286.212 195.189C284.524 192.649 280.156 191.105 279.263 190.159C278.369 189.213 278.518 191.703 280.057 192.848C282.588 194.641 282.042 195.637 282.042 195.637C282.042 195.637 278.965 194.292 275.54 193.595C272.115 192.898 270.377 192.699 269.831 193.197C269.335 193.645 268.193 196.035 270.278 198.326C272.363 200.616 274.2 202.508 277.128 203.454C280.007 204.401 286.659 207.936 286.659 207.936L290.133 201.363H290.183Z" fill="#F3C482"/>
<path d="M287.602 199.766L284.971 207.235C284.971 207.235 285.219 207.235 285.368 207.235C285.368 207.235 314.505 225.36 318.228 223.368C319.221 222.82 320.065 222.372 330.489 220.132L320.214 206.338C309.988 207.932 289.389 200.015 287.651 199.766" fill="#F3C482"/>
<path d="M313.215 184.479L314.456 194.936L330.737 189.21L327.56 179.102C323.093 181.79 312.123 185.027 313.215 184.479Z" fill="#F3C482"/>
<path d="M328.951 184.877C335.255 179.847 330.738 169.54 327.76 163.614C323.59 155.349 315.896 152.66 307.954 157.789C301.75 161.822 303.487 174.42 305.522 179.549C309.642 189.856 320.612 189.906 328.951 184.877Z" fill="#F5D4A8"/>
<path d="M303.336 161.524C304.577 152.163 314.157 146.536 322.596 147.084C336.147 148.03 339.075 159.682 340.019 165.557C341.806 176.91 333.615 185.624 322.248 182.786C323.39 183.085 321.106 182.736 321.603 179.948C322.248 176.711 321.702 173.973 321.057 172.08C320.064 169.192 317.433 168.097 316.192 175.417C313.909 171.433 312.916 167.649 313.413 165.458C310.236 164.063 305.073 162.619 305.073 162.619C305.073 162.619 303.237 162.022 303.336 161.524Z" fill="#050000"/>
<path d="M335.006 157.843C334.658 157.246 327.113 152.665 333.765 148.183L332.176 146.988C332.176 146.988 329.893 147.835 328.95 148.88C327.908 150.076 327.262 152.615 327.659 154.408C328.007 156.2 330.936 159.785 334.956 159.288" fill="#E83632"/>
<path d="M346.324 148.633C347.913 153.612 345.679 158.791 341.311 160.185C336.943 161.629 332.078 158.791 330.49 153.811C328.901 148.882 331.135 143.703 335.503 142.259C339.872 140.815 344.736 143.703 346.324 148.633Z" fill="#050000"/>
<path d="M301.748 216.443C298.423 206.036 298.72 201.753 308.4 195.43C310.733 193.936 326.419 187.014 329.099 187.562C338.232 189.355 346.721 199.214 347.614 207.38C348.557 215.895 343.544 225.605 342.799 234.17C342.005 242.983 350.245 249.855 349.947 258.419C349.649 267.183 341.112 275.698 334.261 280.279C320.164 289.84 300.855 279.682 302.096 263.05C302.692 254.884 306.166 247.216 307.308 238.303C308.499 228.842 302.692 219.381 301.798 216.443" fill="#7C0D17"/>
<path d="M332.822 186.316C332.822 186.316 318.526 186.964 315.201 188.209C311.875 189.453 309.492 194.632 307.953 195.877C306.415 197.122 315.846 193.935 319.122 193.686C322.398 193.437 335.453 193.736 337.637 193.885C339.871 194.084 335.453 187.412 332.773 186.316" fill="#7C0D17"/>
<path d="M317.136 204.696C315.548 196.43 307.655 198.97 306.911 199.069C296.983 200.613 298.472 211.02 295.742 217.991C292.665 225.859 289.786 233.278 289.786 233.278C289.786 233.278 275.539 215.601 274.1 214.505L268.094 219.634C268.094 219.634 268.292 219.784 268.392 219.833C268.392 219.833 284.574 250.158 288.793 250.308C298.82 250.706 296.288 248.864 302.493 239.502C306.514 233.477 318.625 212.713 317.087 204.596" fill="#F5D4A8"/>
<path d="M318.675 209.874C318.675 215.998 314.853 220.978 310.187 220.978C305.521 220.978 301.699 215.998 301.699 209.874C301.699 203.749 305.472 198.77 310.187 198.77C314.903 198.77 318.675 203.749 318.675 209.874Z" fill="#F5D4A8"/>
<path fill-rule="evenodd" clip-rule="evenodd" d="M382.559 207.133L383.949 208.029C383.552 229.939 373.773 250.404 373.773 272.463C354.91 283.368 354.116 239.35 335.254 250.255C334.608 250.603 334.509 249.01 333.913 249.358L325.475 241.889L324.135 240.993L382.609 207.133H382.559Z" fill="#4A4846"/>
<path fill-rule="evenodd" clip-rule="evenodd" d="M382.559 207.133L383.949 208.029C383.552 229.939 373.773 250.404 373.773 272.463C354.911 283.368 335.502 296.315 316.64 307.22L315.25 306.423C315.25 283.866 324.086 263.6 324.086 240.993L382.559 207.133Z" fill="#B66F25"/>
<path fill-rule="evenodd" clip-rule="evenodd" d="M383.95 208.031C383.95 230.588 375.114 250.805 375.114 273.362V275.901L316.641 309.761V307.222C316.641 284.665 325.476 264.448 325.476 241.891C344.984 230.588 364.492 219.335 384 208.031" fill="#C67B2B"/>
<path d="M284.921 198.621C284.921 207.086 278.071 214.008 269.582 214.008C261.094 214.008 254.244 207.136 254.244 198.621H284.921Z" fill="#DFDFDE"/>
<path d="M280.403 204.897C274.397 208.382 264.718 208.382 258.712 204.897C252.755 201.411 252.755 195.834 258.712 192.349C264.718 188.863 274.397 188.863 280.403 192.349C286.41 195.834 286.41 201.411 280.403 204.897Z" fill="white"/>
<path d="M282.24 201.86C281.594 201.013 280.651 200.216 279.46 199.519C274 196.382 265.214 196.382 259.754 199.519C258.562 200.216 257.619 201.013 256.974 201.86C254.591 198.872 255.534 195.237 259.754 192.747C265.214 189.61 274 189.61 279.46 192.747C283.729 195.187 284.622 198.872 282.24 201.86Z" fill="#D0CFCD"/>
<path d="M282.24 201.861C281.546 202.708 280.652 203.504 279.461 204.152C274.001 207.289 265.215 207.289 259.754 204.152C258.563 203.455 257.62 202.658 256.975 201.861C257.62 201.015 258.563 200.218 259.754 199.521C265.215 196.384 274.001 196.384 279.461 199.521C280.652 200.218 281.595 201.015 282.24 201.861Z" fill="#F5AB00"/>
<path d="M275.341 216.694C275.341 216.694 273.604 212.76 272.363 210.021C271.073 207.233 267.002 205.042 266.258 203.996C265.513 202.95 265.265 205.44 266.655 206.785C268.839 208.975 268.243 209.822 268.243 209.822C268.243 209.822 265.414 208.029 262.138 206.834C258.862 205.639 257.174 205.191 256.578 205.54C255.982 205.888 254.543 208.079 256.231 210.668C257.918 213.258 259.507 215.399 262.237 216.793C264.967 218.187 270.973 222.669 270.973 222.669L275.441 216.694H275.341Z" fill="#F5D5A9"/>
<path d="M269.734 18.5645C272.96 20.4567 275.591 24.988 275.591 28.7225L275.492 60.9893C275.492 64.7239 272.861 66.2178 269.634 64.3256L239.008 46.5987C235.781 44.7065 233.15 40.1752 233.15 36.4407L233.25 4.17389C233.25 0.43931 235.881 -1.05452 239.107 0.78787L269.734 18.5147V18.5645Z" fill="#1590D1"/>
<path d="M271.867 35.0469L285.468 49.9354L268.145 51.1803L271.867 35.0469Z" fill="#1590D1"/>
<path d="M109.848 28.7755C106.621 30.6676 103.99 35.1989 103.99 38.9335L104.09 71.2003C104.09 74.9349 106.72 76.4287 109.947 74.5365L140.574 56.8097C143.8 54.9175 146.431 50.3862 146.431 46.6516L146.332 14.3848C146.332 10.6502 143.701 9.15641 140.474 10.9988L109.848 28.7256V28.7755Z" fill="#D9231C"/>
<path d="M107.714 45.2578L94.1133 60.1463L111.387 61.3912L107.714 45.2578Z" fill="#D9231C"/>
<path d="M129.108 47.2031V51.3361L112.33 61.046V56.8633L129.108 47.2031Z" fill="white"/>
<path d="M140.723 32.9023L140.773 37.0353L112.33 53.5172V49.3843L140.723 32.9023Z" fill="white"/>
<path d="M132.186 30.2695L132.236 34.4523L112.281 46.0046V41.8716L132.186 30.2695Z" fill="white"/>
<path d="M265.116 38.9835L265.067 43.1164L241.588 29.2736L241.638 25.1406L265.116 38.9835Z" fill="white"/>
<path d="M258.366 42.3661V46.4991L241.588 36.7892V32.6562L258.366 42.3661Z" fill="white"/>
<path d="M267.55 32.452V36.585L241.639 21.796V17.6133L267.55 32.452Z" fill="white"/>
<defs>
<linearGradient id="paint0_linear_1228_9028" x1="147.149" y1="202.945" x2="269.21" y2="202.945" gradientUnits="userSpaceOnUse">
<stop stop-color="#C72D30"/>
<stop offset="1" stop-color="#E73F43"/>
</linearGradient>
<linearGradient id="paint1_linear_1228_9028" x1="191.392" y1="313.145" x2="204.944" y2="313.145" gradientUnits="userSpaceOnUse">
<stop stop-color="#C72D30"/>
<stop offset="1" stop-color="#E73F43"/>
</linearGradient>
<linearGradient id="paint2_linear_1228_9028" x1="79.609" y1="248.057" x2="93.1603" y2="248.057" gradientUnits="userSpaceOnUse">
<stop stop-color="#C72D30"/>
<stop offset="1" stop-color="#E73F43"/>
</linearGradient>
<linearGradient id="paint3_linear_1228_9028" x1="82.4472" y1="239.408" x2="319.023" y2="239.408" gradientUnits="userSpaceOnUse">
<stop stop-color="#C72D30"/>
<stop offset="1" stop-color="#E73F43"/>
</linearGradient>
<linearGradient id="paint4_linear_1228_9028" x1="147.499" y1="214.542" x2="190.138" y2="214.542" gradientUnits="userSpaceOnUse">
<stop stop-color="#868481"/>
<stop offset="1" stop-color="#ABA9A5"/>
</linearGradient>
<linearGradient id="paint5_linear_1228_9028" x1="132.202" y1="212.549" x2="182.982" y2="212.549" gradientUnits="userSpaceOnUse">
<stop stop-color="#ABA9A6"/>
<stop offset="1" stop-color="#D0CFCD"/>
</linearGradient>
<linearGradient id="paint6_linear_1228_9028" x1="148.924" y1="217.059" x2="155.308" y2="206.037" gradientUnits="userSpaceOnUse">
<stop stop-color="#ABA9A6"/>
<stop offset="0.74" stop-color="white"/>
<stop offset="1" stop-color="white"/>
</linearGradient>
<linearGradient id="paint7_linear_1228_9028" x1="163.244" y1="183.239" x2="196.303" y2="183.239" gradientUnits="userSpaceOnUse">
<stop stop-color="#ABA9A6"/>
<stop offset="1" stop-color="#D0CFCD"/>
</linearGradient>
</defs>
</svg>
