<svg width="893" height="305" viewBox="0 0 893 305" fill="none" xmlns="http://www.w3.org/2000/svg">
<path d="M20.573 1.5H872.426C882.93 1.5 891.357 9.19102 891.357 18.5756V286.138C891.357 295.523 882.93 303.214 872.426 303.214H20.573C10.0696 303.214 1.64258 295.523 1.64258 286.138V18.5756C1.64258 9.19102 10.0696 1.5 20.573 1.5Z" fill="#FEF9F7" stroke="#FDEAE3"/>
<path d="M30.6785 11.8516H665.254C675.083 11.8516 683.061 19.0679 683.061 27.9591V276.767C683.061 285.659 675.083 292.875 665.254 292.875H30.6785C20.849 292.875 12.8711 285.659 12.8711 276.767V27.9591C12.8711 19.0679 20.849 11.8516 30.6785 11.8516Z" fill="white"/>
<g clip-path="url(#clip0_228_635)">
<g opacity="0.8">
<mask id="mask0_228_635" style="mask-type:luminance" maskUnits="userSpaceOnUse" x="709" y="92" width="179" height="155">
<path d="M888 92.7422H709.586V246.416H888V92.7422Z" fill="white"/>
</mask>
<g mask="url(#mask0_228_635)">
<path d="M798.794 243.906C835.618 243.906 865.487 213.984 865.487 177.094C865.487 140.204 835.618 110.281 798.794 110.281C761.971 110.281 732.102 140.204 732.102 177.094C732.102 213.984 761.971 243.906 798.794 243.906Z" fill="#FFF4CE"/>
</g>
</g>
<g style="mix-blend-mode:multiply" opacity="0.52">
<mask id="mask1_228_635" style="mask-type:luminance" maskUnits="userSpaceOnUse" x="693" y="124" width="88" height="63">
<path d="M780.156 124.75H693V187.002H780.156V124.75Z" fill="white"/>
</mask>
<g mask="url(#mask1_228_635)">
<path d="M736.579 184.492C748.212 184.492 757.643 175.044 757.643 163.39C757.643 151.737 748.212 142.289 736.579 142.289C724.947 142.289 715.516 151.737 715.516 163.39C715.516 175.044 724.947 184.492 736.579 184.492Z" fill="#FFEEAF"/>
</g>
</g>
<path d="M723.945 219.749L723.895 231.553C723.87 238.169 729.573 238.871 736.553 238.369C743.532 237.893 749.086 236.389 748.06 229.874L746.134 217.594C737.303 220.651 729.173 220.476 723.945 219.774" fill="white"/>
<path d="M733.375 239.349C730.148 239.349 727.046 238.873 725.094 237.043C723.718 235.765 723.043 233.911 723.043 231.555L723.093 219.751C723.093 219.501 723.193 219.275 723.393 219.1C723.568 218.924 723.818 218.874 724.069 218.899C729.197 219.601 737.127 219.776 745.858 216.769C746.108 216.694 746.358 216.719 746.583 216.844C746.808 216.969 746.958 217.195 746.983 217.445L748.91 229.725C749.285 232.056 748.86 233.986 747.709 235.464C745.482 238.246 740.854 238.923 736.627 239.223C735.551 239.299 734.475 239.349 733.375 239.349ZM724.794 220.728L724.744 231.555C724.744 233.434 725.219 234.838 726.245 235.79C728.396 237.795 732.824 237.77 736.477 237.519C740.104 237.269 744.532 236.667 746.333 234.387C747.208 233.309 747.484 231.856 747.183 229.976L745.432 218.699C737.302 221.33 729.897 221.305 724.794 220.703V220.728Z" fill="#3E3A39"/>
<path d="M755.296 222.98L715.867 225.742L717.265 245.767L756.694 243.005L755.296 222.98Z" fill="#FFE274"/>
<path d="M756.021 214.981L714.047 217.922L714.635 226.347L756.609 223.406L756.021 214.981Z" fill="#F3B6D1"/>
<path d="M729.35 207.476L725.273 211.508L733.569 219.926L737.645 215.894L729.35 207.476Z" fill="#DA3F28"/>
<path d="M741.251 206.439L734.203 215.93L738.799 219.355L745.847 209.865L741.251 206.439Z" fill="#DA3F28"/>
<path d="M738.267 215.636L731.979 216.078L733.994 244.878L740.282 244.436L738.267 215.636Z" fill="#DA3F28"/>
<path d="M732 216.07L721.143 229.127L725.07 229.277L726.221 232.986L734.626 217.975L732 216.07Z" fill="#DA3F28"/>
<path d="M737.154 214.266L749.687 225.668L745.81 226.37L745.209 230.204L734.803 216.496L737.154 214.266Z" fill="#DA3F28"/>
<path d="M745.784 75.7772H733.701C719.917 75.7772 708.76 65.1012 708.76 51.9192V47.3581C708.76 34.176 719.917 23.5 733.701 23.5H840.97C854.728 23.5 865.911 34.176 865.911 47.3581V51.9192C865.911 65.1012 854.753 75.7772 840.97 75.7772H757.566" fill="white"/>
<path d="M840.97 76.2797H757.566C757.291 76.2797 757.066 76.0541 757.066 75.7784C757.066 75.5028 757.291 75.2772 757.566 75.2772H840.97C854.453 75.2772 865.411 64.8017 865.411 51.9204V47.3593C865.411 34.4779 854.453 24.0024 840.97 24.0024H733.701C720.217 24.0024 709.26 34.4779 709.26 47.3593V51.9204C709.26 64.8017 720.217 75.2772 733.701 75.2772H745.784C746.059 75.2772 746.284 75.5028 746.284 75.7784C746.284 76.0541 746.059 76.2797 745.784 76.2797H733.701C719.667 76.2797 708.26 65.3531 708.26 51.9204V47.3593C708.26 33.9266 719.667 23 733.701 23H840.97C855.004 23 866.411 33.9266 866.411 47.3593V51.9204C866.411 65.3531 855.004 76.2797 840.97 76.2797Z" fill="#727171"/>
<path d="M756.34 83.9979C756.165 83.9979 755.99 83.8977 755.89 83.7222L750.137 72.6453C750.011 72.3947 750.112 72.094 750.337 71.9686C750.587 71.8433 750.887 71.9436 751.012 72.1691L756.766 83.2461C756.891 83.4967 756.791 83.7974 756.566 83.9227C756.491 83.9478 756.416 83.9729 756.34 83.9729V83.9979Z" fill="#727171"/>
<path d="M809.775 98.8585C809.55 103.219 805.547 106.577 800.844 106.327C796.141 106.076 792.514 102.342 792.764 97.9813C792.989 93.6207 796.992 90.2626 801.695 90.5132C806.398 90.7638 810 94.4979 809.775 98.8585Z" fill="#DA3F28"/>
<path d="M788.887 246.243L787.836 246.192C784.509 246.017 781.882 244.563 782.107 241.481L783.658 221.758C783.908 218.675 786.835 216.295 790.162 216.47L791.213 216.52C794.54 216.696 797.092 219.352 796.842 222.435L795.291 242.158C795.041 245.24 792.214 246.418 788.887 246.243Z" fill="#3E3A39"/>
<path d="M789.539 247.617C789.314 247.617 789.063 247.617 788.813 247.617L787.763 247.567C785.161 247.442 783.16 246.64 781.959 245.236C781.058 244.184 780.633 242.856 780.733 241.352L782.284 221.629C782.584 217.795 786.137 214.812 790.239 215.088L791.29 215.138C793.341 215.238 795.267 216.166 796.568 217.644C797.769 219.023 798.369 220.752 798.219 222.531L796.668 242.254C796.418 245.612 793.691 247.617 789.514 247.617H789.539ZM788.963 244.835C790.74 244.936 793.716 244.685 793.917 242.029L795.468 222.306C795.543 221.278 795.192 220.251 794.492 219.449C793.666 218.521 792.466 217.945 791.14 217.87L790.089 217.82C787.437 217.619 785.211 219.474 785.036 221.829L783.485 241.552C783.435 242.304 783.61 242.906 784.01 243.382C784.711 244.184 786.087 244.685 787.888 244.76L788.938 244.81L788.963 244.835Z" fill="#3E3A39"/>
<path d="M814.879 247.622L813.828 247.572C810.501 247.397 807.674 245.893 807.499 242.735L806.348 222.486C806.173 219.328 808.75 216.872 812.102 217.048L813.153 217.098C816.48 217.273 819.357 220.005 819.557 223.163L820.707 243.412C820.883 246.57 818.231 247.773 814.904 247.597" fill="#3E3A39"/>
<path d="M815.503 249.001C815.278 249.001 815.027 249.001 814.802 249.001L813.752 248.951C809.249 248.7 806.322 246.369 806.122 242.811L804.971 222.562C804.871 220.707 805.521 218.953 806.822 217.65C808.173 216.296 810.149 215.544 812.176 215.67L813.226 215.72C817.254 215.92 820.706 219.228 820.931 223.088L822.082 243.337C822.182 244.891 821.707 246.244 820.731 247.247C819.58 248.399 817.779 249.026 815.528 249.026L815.503 249.001ZM811.75 218.427C810.575 218.427 809.524 218.827 808.773 219.604C808.048 220.331 807.673 221.334 807.723 222.411L808.873 242.66C809.049 245.618 812.426 246.119 813.902 246.194L814.952 246.244C816.678 246.344 818.079 245.994 818.755 245.292C819.18 244.866 819.355 244.289 819.305 243.513L818.154 223.263C818.004 220.832 815.678 218.652 813.076 218.502L812.026 218.452C812.026 218.452 811.85 218.452 811.75 218.452V218.427Z" fill="#3E3A39"/>
<path d="M823.633 202.963L823.358 196.422C823.058 189.254 815.528 183.39 806.597 182.914C797.667 182.438 789.611 187.5 788.661 194.592L787.66 201.985C795.89 204.015 808.899 205.794 823.608 202.938" fill="#3E3A39"/>
<path d="M807.973 205.818C799.693 205.818 792.588 204.615 787.36 203.337C786.684 203.162 786.234 202.51 786.309 201.808L787.31 194.415C788.335 186.671 796.891 181.008 806.672 181.534C816.478 182.06 824.408 188.551 824.734 196.37L825.009 202.911C825.034 203.588 824.558 204.189 823.883 204.314C818.254 205.392 812.901 205.818 807.973 205.818ZM789.211 200.931C797.091 202.735 808.798 204.189 822.182 201.808L821.957 196.47C821.707 190.18 814.777 184.717 806.497 184.291C798.292 183.915 790.837 188.551 790.011 194.766L789.186 200.931H789.211Z" fill="#3E3A39"/>
<path d="M787.686 202.188L785.36 219.58C784.059 229.329 793.065 231.434 804.347 232.01C815.629 232.612 824.785 231.459 824.385 221.61L823.634 203.14C808.925 205.997 795.916 204.217 787.686 202.188Z" fill="white"/>
<path d="M808.75 233.512C807.249 233.512 805.723 233.462 804.248 233.387C797.243 233.011 789.588 232.059 785.961 227.698C784.185 225.543 783.509 222.761 783.96 219.378L786.286 201.985C786.336 201.584 786.561 201.259 786.886 201.033C787.212 200.808 787.612 200.732 787.987 200.833C796.067 202.838 808.75 204.592 823.335 201.785C823.735 201.71 824.135 201.785 824.46 202.061C824.786 202.311 824.961 202.687 824.986 203.088L825.736 221.583C825.861 224.991 824.936 227.723 822.96 229.678C819.807 232.785 814.354 233.562 808.75 233.562V233.512ZM788.838 203.865L786.711 219.729C786.361 222.335 786.811 224.365 788.087 225.919C791.039 229.477 798.344 230.279 804.373 230.605C810.401 230.906 817.756 230.881 821.008 227.648C822.434 226.244 823.06 224.29 822.96 221.633L822.284 204.742C808.725 207.098 796.893 205.669 788.838 203.84V203.865Z" fill="#3E3A39"/>
<path d="M783.733 188.102C783.733 188.102 764.171 197.073 778.93 200.682Z" fill="#3E3A39"/>
<path d="M778.931 207.345C778.406 207.345 777.88 207.294 777.355 207.144C769.2 205.164 767.123 200.879 766.823 197.646C766.148 190.428 774.153 185.166 780.982 182.033C784.309 180.504 788.262 181.983 789.788 185.316C791.314 188.649 789.863 192.609 786.511 194.137C785.51 194.614 784.435 195.165 783.434 195.766C785.135 197.345 785.96 199.801 785.385 202.232C784.635 205.265 781.933 207.32 778.931 207.32V207.345Z" fill="#3E3A39"/>
<path d="M817.305 194.588L817.03 188.047C816.73 180.879 809.2 175.015 800.269 174.539C791.338 174.063 783.283 179.125 782.333 186.217L781.332 193.61C789.562 195.64 802.571 197.419 817.28 194.563" fill="#3E3A39"/>
<path d="M801.67 197.445C793.39 197.445 786.285 196.242 781.057 194.964C780.381 194.788 779.931 194.137 780.006 193.435L781.007 186.042C782.033 178.298 790.513 172.559 800.369 173.16C810.176 173.662 818.106 180.178 818.431 187.997L818.706 194.537C818.731 195.214 818.256 195.816 817.58 195.941C811.952 197.019 806.598 197.445 801.67 197.445ZM782.908 192.558C790.788 194.362 802.496 195.816 815.879 193.435L815.654 188.097C815.404 181.806 808.474 176.343 800.219 175.917C791.989 175.541 784.559 180.178 783.734 186.393L782.908 192.533V192.558Z" fill="#3E3A39"/>
<path d="M781.358 193.814L779.031 211.206C777.731 220.955 786.736 223.06 798.019 223.637C809.301 224.238 818.457 223.085 818.057 213.236L817.306 194.741C802.597 197.598 789.588 195.819 781.358 193.789" fill="white"/>
<path d="M802.446 225.137C800.945 225.137 799.419 225.087 797.943 225.012C790.938 224.636 783.283 223.684 779.656 219.323C777.88 217.168 777.205 214.386 777.655 211.003L779.981 193.61C780.031 193.209 780.256 192.884 780.582 192.658C780.907 192.433 781.307 192.357 781.682 192.458C789.763 194.463 802.446 196.242 817.03 193.41C817.405 193.335 817.831 193.41 818.156 193.686C818.481 193.936 818.656 194.312 818.681 194.713L819.432 213.208C819.557 216.616 818.631 219.348 816.655 221.303C813.503 224.41 808.049 225.187 802.446 225.187V225.137ZM782.533 195.49L780.407 211.354C780.056 213.96 780.507 215.99 781.782 217.544C784.734 221.102 792.039 221.904 798.068 222.23C804.097 222.531 811.451 222.506 814.704 219.273C816.129 217.869 816.755 215.915 816.655 213.283L815.979 196.392C802.446 198.748 790.588 197.319 782.533 195.49Z" fill="#3E3A39"/>
<path d="M816.078 187.25C816.078 187.25 843.996 187.877 833.339 204.517Z" fill="#3E3A39"/>
<path d="M833.315 211.184C832.089 211.184 830.838 210.833 829.738 210.131C826.636 208.151 825.76 204.016 827.737 200.934C829.237 198.603 829.112 197.626 829.112 197.626C828.462 196.147 822.108 194.092 815.929 193.942C812.252 193.842 809.35 190.784 809.45 187.125C809.525 183.491 812.502 180.609 816.104 180.609H816.254C819.456 180.685 835.667 181.537 840.87 191.361C842.696 194.794 843.847 200.508 838.944 208.126C837.668 210.106 835.516 211.184 833.34 211.184H833.315Z" fill="#3E3A39"/>
<path d="M778.331 138.881C771.577 138.531 766.298 133.092 766.624 126.802C766.949 120.512 772.753 115.675 779.507 116.026C786.261 116.377 791.54 121.815 791.189 128.105C790.864 134.395 785.06 139.257 778.306 138.881" fill="#3E3A39"/>
<path d="M827.462 138.381C820.708 138.031 815.429 132.592 815.754 126.302C816.08 120.012 821.883 115.175 828.638 115.526C835.392 115.877 840.67 121.315 840.32 127.605C839.995 133.895 834.191 138.757 827.437 138.381" fill="#3E3A39"/>
<path d="M840.895 156.073C839.97 173.716 821.633 187.073 799.944 185.945C778.255 184.792 761.419 169.58 762.345 151.963C763.271 134.32 781.607 120.962 803.271 122.09C824.96 123.218 841.796 138.455 840.87 156.073" fill="white"/>
<path d="M802.546 187.397C801.67 187.397 800.77 187.397 799.894 187.322C777.48 186.144 760.044 170.255 760.994 151.886C761.945 133.516 780.882 119.532 803.396 120.71C814.203 121.286 824.185 125.246 831.514 131.862C838.919 138.578 842.747 147.199 842.296 156.146C841.821 165.093 837.118 173.263 829.063 179.152C821.733 184.49 812.427 187.372 802.571 187.372L802.546 187.397ZM800.72 123.416C780.932 123.416 764.571 135.872 763.721 152.036C762.845 168.877 779.131 183.463 800.019 184.565C810.151 185.092 819.907 182.385 827.387 176.947C834.766 171.559 839.069 164.116 839.494 156.021C839.92 147.926 836.417 140.082 829.638 133.942C822.784 127.727 813.378 124.018 803.221 123.492C802.396 123.442 801.545 123.416 800.72 123.416Z" fill="#3E3A39"/>
<path d="M791.838 156.321C788.786 161.76 782.157 164.14 777.004 161.634C771.851 159.103 770.15 152.662 773.201 147.224C776.253 141.786 782.883 139.405 788.036 141.911C793.189 144.442 794.89 150.883 791.838 156.321Z" fill="#3E3A39"/>
<path d="M819.932 152.111C819.857 153.614 818.481 154.767 816.88 154.667C815.279 154.592 814.028 153.313 814.103 151.81C814.178 150.306 815.554 149.178 817.155 149.254C818.756 149.329 820.007 150.607 819.932 152.111Z" fill="white"/>
<path d="M789.887 150.534C789.737 153.216 787.561 155.296 785.034 155.145C782.483 155.02 780.556 152.74 780.682 150.033C780.807 147.326 783.008 145.271 785.535 145.422C788.086 145.547 790.038 147.828 789.887 150.534Z" fill="white"/>
<path d="M787.885 152.161C787.81 153.364 786.734 154.292 785.434 154.216C784.133 154.141 783.132 153.114 783.207 151.911C783.282 150.708 784.358 149.781 785.659 149.856C786.959 149.931 787.96 150.959 787.885 152.161Z" fill="#3E3A39"/>
<path d="M807.899 157.177C810.351 162.916 816.705 165.974 822.108 163.994C827.512 162.014 829.863 155.799 827.387 150.06C824.935 144.321 818.581 141.264 813.177 143.243C807.799 145.198 805.422 151.438 807.899 157.177Z" fill="#3E3A39"/>
<path d="M813.927 151.658C813.777 154.415 815.804 156.745 818.405 156.896C821.032 157.046 823.283 154.916 823.408 152.159C823.559 149.403 821.532 147.072 818.906 146.922C816.279 146.771 814.027 148.901 813.902 151.658" fill="white"/>
<path d="M815.68 153.364C815.605 154.567 816.605 155.594 817.906 155.67C819.207 155.745 820.308 154.817 820.358 153.615C820.408 152.412 819.432 151.384 818.131 151.309C816.83 151.234 815.73 152.161 815.68 153.364Z" fill="#3E3A39"/>
<path d="M802.344 159.228C802.294 160.38 800.568 161.258 798.492 161.132C796.415 161.032 794.814 159.98 794.864 158.827C794.914 157.674 796.641 156.822 798.717 156.922C800.793 157.022 802.394 158.05 802.344 159.228Z" fill="#3E3A39"/>
<path d="M800.819 170.284C800.443 170.284 800.118 170.008 800.043 169.632L798.317 159.758C798.242 159.332 798.517 158.931 798.942 158.856C799.368 158.781 799.768 159.057 799.843 159.483L801.569 169.357C801.644 169.783 801.369 170.184 800.944 170.259C800.894 170.259 800.844 170.259 800.819 170.259V170.284Z" fill="#3E3A39"/>
<path d="M809.652 134.324C809.777 131.818 811.854 129.888 814.305 130.014C816.732 130.139 818.608 132.269 818.483 134.8" fill="white"/>
<path d="M818.483 135.574C818.483 135.574 818.458 135.574 818.433 135.574C818.007 135.574 817.682 135.173 817.682 134.747C817.732 133.745 817.407 132.767 816.757 132.015C816.106 131.264 815.231 130.837 814.255 130.787C812.254 130.712 810.528 132.291 810.428 134.371C810.428 134.797 810.052 135.123 809.652 135.123C809.652 135.123 809.627 135.123 809.602 135.123C809.177 135.123 808.852 134.722 808.852 134.296C809.002 131.364 811.453 129.083 814.33 129.234C815.731 129.309 817.007 129.935 817.932 130.988C818.858 132.04 819.333 133.419 819.258 134.822C819.258 135.248 818.883 135.574 818.483 135.574Z" fill="#3E3A39"/>
<path d="M786.711 133.121C786.836 130.615 788.912 128.685 791.364 128.81C793.79 128.936 795.667 131.066 795.542 133.597" fill="white"/>
<path d="M795.541 134.373C795.541 134.373 795.516 134.373 795.491 134.373C795.066 134.373 794.741 133.972 794.741 133.546C794.791 132.543 794.466 131.566 793.815 130.814C793.165 130.062 792.289 129.636 791.314 129.586C790.338 129.536 789.412 129.887 788.687 130.539C787.961 131.215 787.536 132.142 787.486 133.145C787.486 133.571 787.161 133.922 786.661 133.897C786.235 133.897 785.91 133.496 785.91 133.07C785.985 131.641 786.586 130.338 787.611 129.386C788.637 128.433 790.013 127.932 791.364 128.007C792.765 128.083 794.04 128.709 794.966 129.762C795.892 130.814 796.367 132.193 796.292 133.596C796.292 134.022 795.917 134.348 795.516 134.348L795.541 134.373Z" fill="#3E3A39"/>
<path d="M794.916 169.156C794.916 169.156 801.77 170.76 808.174 166.148C808.174 166.148 808.074 174.293 803.071 175.346C797.492 176.524 794.891 169.156 794.891 169.156" fill="#F6BDC5"/>
<path d="M801.921 176.447C797.643 176.447 794.892 172.036 793.991 169.48C793.866 169.154 793.941 168.778 794.191 168.503C794.416 168.227 794.817 168.127 795.142 168.202C795.217 168.202 801.671 169.63 807.625 165.37C807.925 165.144 808.325 165.119 808.65 165.295C808.976 165.47 809.176 165.796 809.176 166.172C809.176 166.523 808.976 175.119 803.297 176.297C802.822 176.397 802.371 176.447 801.921 176.447ZM796.543 170.357C797.568 172.237 799.695 175.044 802.872 174.367C805.674 173.765 806.649 170.282 806.999 168.052C802.872 170.382 798.819 170.533 796.543 170.357Z" fill="#3E3A39"/>
<path d="M779.957 128.532L797.693 100.915C799.069 98.6596 803.522 99.3863 804.673 100.765L821.659 128.257C821.659 128.257 799.57 119.936 779.957 128.532Z" fill="#F3B6D1"/>
<path d="M786.937 126.781C786.811 129.111 784.685 130.891 782.184 130.74C779.682 130.615 777.756 128.61 777.881 126.304C778.006 123.974 780.132 122.194 782.634 122.345C785.135 122.47 787.062 124.475 786.937 126.781Z" fill="#FFE274"/>
<path d="M793.991 124.499C793.866 126.83 791.74 128.609 789.238 128.459C786.737 128.334 784.81 126.329 784.935 124.023C785.061 121.693 787.187 119.913 789.689 120.064C792.19 120.189 794.116 122.194 793.991 124.499Z" fill="#FFE274"/>
<path d="M801.62 122.89C801.495 125.221 799.369 127 796.867 126.85C794.366 126.724 792.439 124.719 792.564 122.414C792.689 120.083 794.816 118.304 797.317 118.454C799.819 118.579 801.745 120.584 801.62 122.89Z" fill="#FFE274"/>
<path d="M809.601 123.492C809.476 125.822 807.349 127.602 804.848 127.451C802.346 127.326 800.42 125.321 800.545 123.015C800.67 120.685 802.796 118.905 805.298 119.056C807.799 119.181 809.726 121.186 809.601 123.492Z" fill="#FFE274"/>
<path d="M816.931 123.617C816.806 125.947 814.679 127.727 812.178 127.576C809.676 127.451 807.75 125.446 807.875 123.14C808 120.81 810.126 119.03 812.628 119.181C815.13 119.306 817.056 121.311 816.931 123.617Z" fill="#FFE274"/>
<path d="M824.21 126.505C824.085 128.835 821.959 130.615 819.457 130.464C816.955 130.339 815.029 128.334 815.154 126.028C815.279 123.698 817.406 121.944 819.907 122.069C822.409 122.194 824.335 124.199 824.21 126.505Z" fill="#FFE274"/>
<path d="M806.799 107.359C806.749 108.111 806.074 108.662 805.273 108.637C804.473 108.587 803.847 107.96 803.897 107.209C803.922 106.457 804.623 105.905 805.423 105.931C806.224 105.981 806.849 106.607 806.799 107.359Z" fill="#FFE274"/>
<path d="M798.995 109.382C798.944 110.134 798.269 110.686 797.469 110.661C796.668 110.61 796.043 109.984 796.093 109.232C796.118 108.48 796.818 107.929 797.619 107.954C798.419 108.004 799.045 108.631 798.995 109.382Z" fill="#FFE274"/>
<path d="M807.299 113.898C807.249 114.65 806.574 115.201 805.773 115.176C804.973 115.126 804.347 114.5 804.397 113.748C804.422 112.996 805.123 112.445 805.923 112.47C806.724 112.52 807.349 113.146 807.299 113.898Z" fill="#FFE274"/>
<path d="M799.596 115.625C799.546 116.376 798.871 116.928 798.07 116.903C797.27 116.853 796.644 116.226 796.694 115.474C796.719 114.722 797.42 114.171 798.22 114.196C799.021 114.246 799.646 114.873 799.596 115.625Z" fill="#FFE274"/>
<path d="M792.215 117.351C792.165 118.103 791.49 118.654 790.689 118.629C789.889 118.579 789.263 117.953 789.313 117.201C789.338 116.449 790.039 115.898 790.839 115.923C791.64 115.973 792.265 116.599 792.215 117.351Z" fill="#FFE274"/>
<path d="M812.354 117.484C812.304 118.236 811.628 118.787 810.828 118.762C810.027 118.712 809.402 118.085 809.452 117.334C809.477 116.582 810.177 116.03 810.978 116.056C811.779 116.106 812.404 116.732 812.354 117.484Z" fill="#FFE274"/>
<path d="M800.971 103.57C800.921 104.322 800.246 104.873 799.445 104.848C798.645 104.798 798.019 104.171 798.069 103.42C798.094 102.668 798.795 102.116 799.595 102.141C800.396 102.192 801.021 102.818 800.971 103.57Z" fill="#FFE274"/>
<path d="M767.267 201.102L765.697 231.109L829.376 234.453L830.946 204.446L767.267 201.102Z" fill="#FFE274"/>
<path d="M765.824 189.105L765.164 201.719L832.94 205.277L833.599 192.664L765.824 189.105Z" fill="#F3B6D1"/>
<path d="M804.046 190.559L796.741 195.797L785.059 181.738L792.363 176.5L804.046 190.559Z" fill="#DA3F28"/>
<path d="M798.518 189.928L805.247 195.892L818.33 183.136L811.601 177.172L798.518 189.928Z" fill="#DA3F28"/>
<path d="M794.935 189.727L792.684 232.898L802.826 233.429L805.077 190.258L794.935 189.727Z" fill="#DA3F28"/>
<path d="M794.941 189.758L775.078 207.075L781.357 208.052L782.458 213.791L798.768 193.066L794.941 189.758Z" fill="#DA3F28"/>
<path d="M803.52 188.023L821.456 207.32L815.127 207.646L813.426 213.235L799.367 190.931L803.52 188.023Z" fill="#DA3F28"/>
</g>
<path d="M73.9049 93.5351C73.7434 93.443 73.6742 93.2818 73.6742 93.0055C73.6742 92.7292 73.7665 92.5681 73.9279 92.522C74.0663 92.476 74.32 92.476 74.7121 92.522C75.7731 92.522 76.4881 92.2457 76.8572 91.7162C77.1801 91.2787 77.3185 90.4959 77.3185 89.3677C77.3185 88.5388 77.2031 87.9402 76.9956 87.5488C76.7188 87.0192 76.2344 86.766 75.5194 86.766C74.8736 86.766 74.3892 86.835 74.0663 86.9732C73.7895 87.1113 73.605 87.2955 73.5589 87.5718C73.5128 87.6639 73.5128 87.779 73.5589 87.8941C73.582 87.9632 73.6281 88.0783 73.7203 88.2165C73.7895 88.4007 73.8587 88.5618 73.8818 88.6539C73.9279 88.8381 73.9279 89.0223 73.8818 89.2065C73.7895 89.5749 73.605 89.8512 73.3052 90.0584C73.0284 90.2426 72.7055 90.3347 72.3595 90.3117C72.0135 90.2887 71.7137 90.1505 71.4831 89.8972C71.2293 89.621 71.091 89.2295 71.091 88.7691C71.091 88.3316 71.2293 87.9402 71.4831 87.5718C71.7368 87.2264 72.0827 86.9271 72.521 86.6739C72.9361 86.4206 73.4205 86.2134 73.9741 86.0983C74.5276 85.9601 75.1273 85.9141 75.7501 85.9141C77.0878 85.9141 78.1719 86.2134 78.9791 86.812C79.8325 87.4567 80.2477 88.3546 80.2477 89.4828C80.2477 90.611 79.8556 91.5089 79.0945 92.1076C78.5178 92.545 77.7567 92.8443 76.7649 93.0055C78.0335 93.0976 79.0253 93.443 79.6942 94.0416C80.4322 94.6863 80.8013 95.6303 80.8013 96.8506C80.8013 98.3011 80.2938 99.3832 79.279 100.097C78.2872 100.811 76.8341 101.179 74.9197 101.179C74.3431 101.179 73.8357 101.133 73.4436 101.064C72.89 100.972 72.4287 100.788 72.0135 100.534C71.6214 100.281 71.3216 99.9818 71.0679 99.5904C70.8142 99.1299 70.6758 98.6004 70.6758 98.0248C70.6758 97.5873 70.8142 97.242 71.114 96.9887C71.3908 96.7585 71.7137 96.6433 72.1058 96.6433C72.4979 96.6433 72.7977 96.7585 73.0745 96.9887C73.3744 97.242 73.5128 97.5873 73.5128 98.0248C73.5128 98.1169 73.5128 98.255 73.4666 98.3932C73.4436 98.4853 73.3974 98.6234 73.3052 98.8076C73.236 98.9688 73.1668 99.0839 73.1437 99.153C73.0976 99.2911 73.0976 99.4293 73.0976 99.5214C73.0976 99.7516 73.2821 99.9358 73.6742 100.074C74.0433 100.235 74.5276 100.304 75.0812 100.304C75.9346 100.304 76.5573 100.074 76.9956 99.5904C77.4799 99.0379 77.7336 98.186 77.7336 96.9887C77.7336 95.7914 77.5491 95.0316 77.1801 94.5021C76.7188 93.8804 75.9346 93.5581 74.7813 93.5581H74.5968C74.2508 93.6272 74.0202 93.6041 73.8818 93.512" fill="#231815"/>
<path d="M23 85.4531H671.562M23 93.7418H671.562M23 102.031H671.562M23 110.342H671.562M23 118.631H671.562" stroke="#231815" stroke-width="0.31"/>
<path d="M72.9133 109.638C72.3597 110.398 70.33 113.529 70.0763 113.943H74.251V108.832L77.7338 105.908V113.943H79.2331V114.634H77.7338C77.6646 114.772 77.7108 116.315 77.8953 116.775C78.0567 117.305 79.1869 117.65 79.2331 117.65V118.341H72.6826V117.65C72.798 117.65 73.9973 117.305 74.0896 116.844C74.251 116.315 74.2741 114.726 74.251 114.634H68.7847C68.7847 114.358 68.7155 113.989 68.7847 113.943C73.3054 110.743 72.9825 102.984 73.3976 102.523H77.2956C75.6349 105.355 74.1357 108.026 72.8902 109.638" fill="#231815"/>
<path d="M316.548 116.15C318.116 114.953 319.731 112.282 319.039 111.292C318.485 110.532 315.718 111.775 314.403 112.696C312.719 113.848 310.897 116.449 311.727 117.278C312.558 118.107 315.187 117.186 316.525 116.15M320.238 113.088C320.377 114.907 318.924 116.979 317.194 118.015C315.233 119.166 312.904 119.489 311.358 117.785C309.513 115.805 311.289 112.512 313.619 111.154C315.718 109.91 318.209 109.772 319.592 111.453V84.0312H320.238V113.088Z" fill="#231815"/>
<path d="M154.008 85.5057V119.19M295.165 85.5057V119.19M553.907 84.9531V118.638M418.055 84.9531V118.638M671.1 85.3906V119.075" stroke="#231815" stroke-width="0.76"/>
<path d="M43.4128 120.059C46.1575 119.322 47.9566 116.628 47.6567 113.474C47.2646 109.836 44.3123 107.373 41.2677 107.902L43.4358 120.059H43.4128ZM41.8674 81.1942C40.5066 81.1021 38.9382 85.2234 38.4077 88.4698C38.2693 89.5059 38.7306 93.7193 38.9613 94.4791L40.0222 93.397C40.3221 93.2589 44.3123 88.8843 43.6665 84.3715C43.4589 82.944 43.3436 81.2863 41.8444 81.2172M39.2842 99.9129C38.6614 100.442 36.2627 103.297 35.2939 104.771C33.4026 107.465 31.5574 110.918 32.6415 114.856C32.8952 115.915 35.5938 121.187 40.5527 120.957C41.5215 120.934 42.0981 120.727 42.8131 120.45L40.5527 107.902C37.2544 108.386 36.2627 111.839 36.2165 113.681C36.1243 116.697 40.0453 119.069 40.9448 119.092V119.437C39.8377 119.299 35.8244 117.388 35.1094 113.497C34.3944 109.514 36.5394 105.577 40.0914 104.61L39.2842 99.9359V99.9129ZM44.912 86.1444C45.0965 89.598 44.197 95.3771 39.8147 99.3142L40.7142 104.449C47.034 103.343 49.7556 109.007 49.548 113.704C49.4096 117.665 47.057 120.45 43.6204 121.348L44.8197 128.946C45.3502 132.308 42.9515 134.864 40.2068 135.554C36.9546 136.383 33.9562 132.377 34.3944 129.844C34.7173 127.956 36.0551 126.552 37.7619 126.621C39.4456 126.644 40.8756 128.048 40.8987 129.936C40.9218 131.986 39.4225 133.851 37.3467 133.528C37.6927 133.897 38.7306 134.979 40.1837 134.864C40.5989 134.795 44.8889 133.344 44.1739 128.854L43.0207 121.625C41.8905 121.901 41.2216 121.855 40.0684 121.901C34.5097 122.108 29.643 116.582 29.6661 110.113C29.6892 104.126 38.1078 95.0778 38.3385 94.9857C38.0156 94.1108 37.3698 90.1736 37.1853 88.4238C36.7009 84.5327 38.869 77.234 41.5445 77.211C43.2283 77.188 44.7044 83.0822 44.8889 86.1674" fill="#231815"/>
<path d="M54.6448 88.2881L56.859 87.3901V82.0255L54.6448 82.8774V88.265V88.2881ZM56.859 73H57.7585V78.2725L59.0963 77.72V81.0585L57.7585 81.6341V87.0217L59.0963 86.4461V89.7846L57.7585 90.3602V95.886H56.859V90.7516L54.6448 91.6035V97.2214H53.7452V91.995L52.3613 92.5015V89.14L53.7452 88.6104V83.2227L52.3613 83.7753V80.3908L53.7452 79.9073V74.3354H54.6448V79.4928L56.859 78.6409V73Z" fill="#231815"/>
<path d="M173.731 117.686C173.846 119.528 172.554 121.669 170.963 122.705C169.187 123.903 167.065 124.202 165.658 122.452C163.974 120.426 165.589 117.064 167.711 115.683C169.602 114.417 171.885 114.278 173.131 116.005V88.0078H173.731V117.663V117.686Z" fill="#231815"/>
<path d="M206.297 121.858C206.412 123.723 205.121 125.841 203.529 126.901C201.753 128.075 199.631 128.397 198.224 126.647C196.54 124.621 198.155 121.26 200.277 119.878C202.168 118.635 204.452 118.474 205.697 120.201V92.2031H206.297V121.858Z" fill="#231815"/>
<path d="M103.082 121.233C103.197 123.098 101.906 125.216 100.314 126.276C98.5383 127.473 96.4163 127.772 95.0094 126.022C93.3256 123.996 94.9402 120.635 97.0621 119.253C98.9535 117.987 101.306 117.849 102.482 119.576V91.5781H103.105C103.105 91.7163 103.128 94.4792 105.596 97.1039C107.072 98.6466 109.563 101.548 110.763 103.781C112.446 106.866 112.239 110.343 111.939 112.024C111.155 116.398 109.471 119.161 108.848 119.99L108.687 119.783C108.871 119.529 113 113.773 110.486 107.027C109.171 103.574 105.896 100.604 103.036 100.143V121.256L103.082 121.233Z" fill="#231815"/>
<path d="M239.164 108.616C239.279 110.481 237.988 112.599 236.396 113.658C234.62 114.855 232.498 115.155 231.091 113.405C229.408 111.379 231.022 108.017 233.144 106.636C235.059 105.369 237.388 105.231 238.564 106.958V78.9375H239.187C239.187 79.0756 239.21 81.8385 241.678 84.4633C243.154 86.0059 245.645 88.907 246.845 91.1403C248.528 94.2256 248.321 97.7022 248.021 99.383C247.237 103.758 245.553 106.52 244.93 107.349L244.769 107.142C244.953 106.889 249.082 101.133 246.591 94.3867C245.276 90.9331 242.001 87.963 239.141 87.5025V108.616H239.164Z" fill="#231815"/>
<path d="M273.484 108.616C273.599 110.481 272.285 112.599 270.693 113.658C268.917 114.855 266.795 115.155 265.388 113.405C263.705 111.379 265.319 108.017 267.441 106.636C269.332 105.369 271.685 105.231 272.861 106.958V78.9375H273.484C273.484 79.0756 273.507 81.8385 275.975 84.4633C277.451 86.0059 279.942 88.907 281.142 91.1403C282.825 94.2256 282.618 97.7022 282.318 99.383C281.534 103.758 279.85 106.52 279.227 107.349L279.066 107.142C279.25 106.889 283.379 101.133 280.865 94.3867C279.55 90.9331 276.275 87.963 273.415 87.5025V108.616H273.484Z" fill="#231815"/>
<path d="M135.119 121.233C135.235 123.098 133.943 125.216 132.351 126.276C130.575 127.473 128.453 127.772 127.046 126.022C125.363 123.996 126.977 120.635 129.099 119.253C130.991 117.987 133.343 117.849 134.519 119.576V91.5781H135.142C135.142 91.7163 135.165 94.4792 137.633 97.1039C139.109 98.6466 141.6 101.548 142.8 103.781C144.484 106.866 144.276 110.343 143.976 112.024C143.192 116.398 141.508 119.161 140.885 119.99L140.724 119.783C140.908 119.529 145.037 113.773 142.523 107.027C141.208 103.574 137.933 100.604 135.073 100.143V121.256L135.119 121.233Z" fill="#231815"/>
<path d="M576.697 111.634C578.265 110.437 579.88 107.766 579.188 106.776C578.634 106.016 575.866 107.259 574.552 108.18C572.868 109.355 571.046 111.933 571.876 112.762C572.706 113.591 575.336 112.67 576.674 111.634M580.41 108.549C580.549 110.368 579.095 112.44 577.366 113.476C575.405 114.65 573.076 114.949 571.53 113.246C569.685 111.266 571.461 107.973 573.791 106.615C575.889 105.371 578.38 105.233 579.764 106.914V79.4922H580.41V108.549Z" fill="#231815"/>
<path d="M438.77 117.686C438.885 119.528 437.593 121.669 436.002 122.705C434.226 123.903 432.104 124.202 430.697 122.452C429.013 120.426 430.628 117.064 432.75 115.683C434.664 114.417 436.924 114.278 438.17 116.005V88.0078H438.77V117.663V117.686Z" fill="#231815"/>
<path d="M470.898 121.858C471.014 123.723 469.722 125.841 468.131 126.901C466.355 128.075 464.233 128.397 462.826 126.647C461.142 124.621 462.757 121.26 464.879 119.878C466.77 118.635 469.053 118.474 470.299 120.201V92.2031H470.898V121.858Z" fill="#231815"/>
<path d="M353.543 121.233C353.658 123.098 352.367 125.216 350.775 126.276C348.999 127.473 346.877 127.772 345.47 126.022C343.787 123.996 345.401 120.635 347.523 119.253C349.437 117.987 351.767 117.849 352.943 119.576V91.5781H353.566C353.566 91.7163 353.589 94.4792 356.057 97.1039C357.533 98.6466 360.024 101.548 361.224 103.781C362.907 106.866 362.7 110.343 362.4 112.024C361.616 116.398 359.932 119.161 359.309 119.99L359.148 119.783C359.332 119.529 363.461 113.773 360.947 107.027C359.632 103.574 356.357 100.604 353.497 100.143V121.256L353.543 121.233Z" fill="#231815"/>
<path d="M504.412 105.28C504.527 107.122 503.236 109.263 501.644 110.299C499.868 111.496 497.746 111.796 496.339 110.046C494.656 108.02 496.27 104.658 498.392 103.277C500.307 102.01 502.636 101.872 503.812 103.599V75.6016H504.435C504.435 75.7397 504.458 78.5026 506.926 81.1274C508.402 82.67 510.893 85.571 512.093 87.8044C513.777 90.8896 513.569 94.3663 513.269 96.047C512.485 100.422 510.801 103.185 510.178 104.013L510.017 103.806C510.201 103.553 514.33 97.7969 511.816 91.0508C510.501 87.5972 507.226 84.627 504.366 84.1666V105.28H504.412Z" fill="#231815"/>
<path d="M534.072 105.28C534.188 107.122 532.896 109.263 531.305 110.299C529.529 111.496 527.407 111.796 526 110.046C524.316 108.02 525.93 104.658 528.052 103.277C529.967 102.01 532.296 101.872 533.473 103.599V75.6016H534.095C534.095 75.7397 534.118 78.5026 536.586 81.1274C538.063 82.67 540.554 85.571 541.753 87.8044C543.437 90.8896 543.229 94.3663 542.929 96.047C542.145 100.422 540.461 103.185 539.839 104.013L539.677 103.806C539.862 103.553 543.99 97.7969 541.476 91.0508C540.161 87.5972 536.886 84.627 534.026 84.1666V105.28H534.072Z" fill="#231815"/>
<path d="M386.781 121.233C386.897 123.098 385.605 125.216 384.014 126.276C382.238 127.473 380.116 127.772 378.709 126.022C377.025 123.996 378.639 120.635 380.761 119.253C382.676 117.987 385.005 117.849 386.182 119.576V91.5781H386.804C386.804 91.7163 386.827 94.4792 389.295 97.1039C390.772 98.6466 393.263 101.548 394.462 103.781C396.146 106.866 395.938 110.343 395.638 112.024C394.854 116.398 393.17 119.161 392.548 119.99L392.386 119.783C392.571 119.529 396.699 113.773 394.185 107.027C392.87 103.574 389.595 100.604 386.735 100.143V121.256L386.781 121.233Z" fill="#231815"/>
<path d="M613.416 121.233C613.531 123.098 612.24 125.216 610.648 126.276C608.872 127.473 606.75 127.772 605.343 126.022C603.66 123.996 605.274 120.635 607.396 119.253C609.311 117.987 611.64 117.849 612.816 119.576V91.5781H613.439C613.439 91.7163 613.462 94.4792 615.93 97.1039C617.406 98.6466 619.897 101.548 621.097 103.781C622.78 106.866 622.573 110.343 622.273 112.024C621.489 116.398 619.805 119.161 619.182 119.99L619.021 119.783C619.205 119.529 623.334 113.773 620.82 107.027C619.505 103.574 616.23 100.604 613.37 100.143V121.256L613.416 121.233Z" fill="#231815"/>
<path d="M647.231 121.233C647.346 123.098 646.054 125.216 644.463 126.276C642.687 127.473 640.565 127.772 639.158 126.022C637.474 123.996 639.089 120.635 641.211 119.253C643.125 117.987 645.455 117.849 646.631 119.576V91.5781H647.254C647.254 91.7163 647.277 94.4792 649.745 97.1039C651.221 98.6466 653.712 101.548 654.911 103.781C656.595 106.866 656.387 110.343 656.087 112.024C655.303 116.398 653.619 119.161 652.997 119.99L652.835 119.783C653.02 119.529 657.148 113.773 654.634 107.027C653.32 103.574 650.044 100.604 647.184 100.143V121.256L647.231 121.233Z" fill="#231815"/>
<path d="M23 197.445H671.562M23 205.734H671.562M23 214.046H671.562M23 222.334H671.562M23 230.623H671.562" stroke="#231815" stroke-width="0.31"/>
<path d="M208.902 197.328V231.013M576.58 197.328V231.013M393.052 197.328V231.013M665.818 197.328V231.013M671.1 197.328V231.013" stroke="#231815" stroke-width="0.76"/>
<path d="M43.4128 229.262C46.1575 228.525 47.9566 225.832 47.6567 222.677C47.2646 219.039 44.3123 216.576 41.2677 217.105L43.4358 229.262H43.4128ZM41.8674 190.397C40.5066 190.305 38.9382 194.404 38.4077 197.673C38.2693 198.709 38.7306 202.922 38.9613 203.682L40.0222 202.6C40.3221 202.462 44.3123 198.087 43.6665 193.575C43.4589 192.147 43.3436 190.489 41.8444 190.42M39.2842 209.116C38.6614 209.646 36.2627 212.501 35.2939 213.974C33.4026 216.668 31.5574 220.122 32.6415 224.059C32.8952 225.118 35.5938 230.39 40.5527 230.16C41.5215 230.137 42.0981 229.93 42.8131 229.654L40.5527 217.105C37.2544 217.612 36.2627 221.066 36.2165 222.884C36.1243 225.901 40.0453 228.249 40.9448 228.295V228.617C39.8377 228.479 35.8244 226.568 35.1094 222.677C34.3944 218.694 36.5394 214.757 40.0914 213.79L39.2842 209.116ZM44.912 195.348C45.0965 198.801 44.197 204.58 39.8147 208.517L40.7142 213.675C47.034 212.57 49.7556 218.234 49.548 222.93C49.4096 226.891 47.057 229.677 43.6204 230.575L44.8197 238.172C45.3502 241.534 42.9515 244.09 40.2068 244.78C36.9546 245.609 33.9562 241.603 34.3944 239.07C34.7173 237.182 36.0551 235.778 37.7619 235.847C39.4456 235.87 40.8756 237.275 40.8987 239.163C40.9218 241.212 39.4225 243.077 37.3467 242.754C37.6927 243.123 38.7306 244.205 40.1837 244.09C40.5989 244.021 44.8889 242.57 44.1739 238.08L43.0207 230.851C41.8905 231.104 41.2216 231.081 40.0684 231.104C34.5097 231.311 29.643 225.785 29.6661 219.316C29.6892 213.329 38.1078 204.281 38.3385 204.189C38.0156 203.314 37.3698 199.377 37.1853 197.627C36.7009 193.736 38.869 186.437 41.5445 186.414C43.2283 186.391 44.7044 192.285 44.8889 195.371" fill="#231815"/>
<path d="M54.6448 199.288L56.859 198.39V193.025L54.6448 193.877V199.265V199.288ZM56.859 184H57.7585V189.273L59.0963 188.72V192.058L57.7585 192.634V198.022L59.0963 197.446V200.785L57.7585 201.36V206.886H56.859V201.752L54.6448 202.604V208.221H53.7452V202.995L52.3613 203.501V200.14L53.7452 199.61V194.223L52.3613 194.775V191.391L53.7452 190.907V185.335H54.6448V190.493L56.859 189.641V184Z" fill="#231815"/>
<path d="M601.812 223.962C603.38 222.765 604.995 220.094 604.303 219.104C603.749 218.345 600.981 219.588 599.667 220.509C597.983 221.66 596.161 224.262 596.991 225.091C597.821 225.92 600.451 224.999 601.789 223.962M605.502 220.877C605.64 222.696 604.187 224.768 602.457 225.804C600.497 226.956 598.167 227.278 596.622 225.574C594.777 223.594 596.553 220.302 598.882 218.943C600.981 217.7 603.472 217.562 604.856 219.243V191.844H605.502V220.9V220.877Z" fill="#231815"/>
<path d="M502.609 216.483C502.725 218.348 501.433 220.466 499.842 221.526C498.066 222.7 495.944 223.022 494.537 221.272C492.853 219.246 494.468 215.885 496.589 214.503C498.504 213.237 500.833 213.099 502.01 214.826V186.828H502.632C502.632 186.966 502.656 189.729 505.123 192.354C506.6 193.897 509.091 196.798 510.29 199.031C511.974 202.116 511.766 205.593 511.466 207.274C510.682 211.648 508.998 214.411 508.376 215.24L508.214 215.033C508.399 214.779 512.527 209.023 510.013 202.277C508.699 198.824 505.423 195.854 502.563 195.393V216.506L502.609 216.483Z" fill="#231815"/>
<path d="M540.137 216.483C540.252 218.348 538.96 220.466 537.369 221.526C535.593 222.7 533.471 223.022 532.064 221.272C530.38 219.246 531.995 215.885 534.117 214.503C536.031 213.237 538.361 213.099 539.537 214.826V186.828H540.16C540.16 186.966 540.183 189.729 542.651 192.354C544.127 193.897 546.618 196.798 547.817 199.031C549.501 202.116 549.294 205.593 548.994 207.274C548.209 211.648 546.526 214.411 545.903 215.24L545.742 215.033C545.926 214.779 550.055 209.023 547.541 202.277C546.226 198.824 542.951 195.854 540.091 195.393V216.506L540.137 216.483Z" fill="#231815"/>
<path d="M317.838 232.624C320.606 232.026 323.789 229.24 325.104 225.74C327.595 218.994 323.489 213.238 323.304 212.985L323.489 212.8C324.089 213.629 325.772 216.369 326.557 220.767C326.856 222.402 327.064 225.947 325.38 228.986C324.158 231.22 321.667 234.121 320.214 235.71C317.746 238.288 317.723 241.097 317.723 241.189H317.285V211.534C317.169 209.692 318.461 207.551 320.052 206.492C321.828 205.341 323.973 205.018 325.357 206.745C327.041 208.794 325.449 212.133 323.304 213.514C321.528 214.665 319.314 215.057 317.884 213.192V232.624H317.838Z" fill="#231815"/>
<path d="M355.916 232.624C358.684 232.026 361.867 229.24 363.182 225.74C365.673 218.994 361.567 213.238 361.383 212.985L361.567 212.8C362.167 213.629 363.85 216.369 364.635 220.767C364.935 222.402 365.142 225.947 363.458 228.986C362.236 231.22 359.745 234.121 358.292 235.71C355.824 238.288 355.801 241.097 355.801 241.189H355.363V211.534C355.247 209.692 356.539 207.551 358.13 206.492C359.906 205.341 362.051 205.018 363.435 206.745C365.119 208.794 363.528 212.133 361.383 213.514C359.607 214.665 357.392 215.057 355.962 213.192V232.624H355.916Z" fill="#231815"/>
<path d="M124.83 215.49C124.692 213.648 126.007 211.507 127.598 210.471C129.374 209.274 131.496 208.974 132.903 210.724C134.587 212.75 132.972 216.112 130.85 217.493C128.936 218.759 126.676 218.898 125.43 217.171V245.168H124.83V215.49Z" fill="#231815"/>
<path d="M86.5658 207.201C86.4504 205.359 87.7421 203.218 89.3336 202.182C91.1095 200.984 93.2315 200.685 94.6385 202.435C96.3222 204.461 94.7077 207.823 92.5857 209.204C90.6713 210.47 88.411 210.609 87.1654 208.882V236.856H86.5658V207.201Z" fill="#231815"/>
<path d="M420.824 215.49C420.708 213.648 422 211.507 423.591 210.471C425.367 209.274 427.489 208.974 428.896 210.724C430.58 212.75 428.965 216.112 426.844 217.493C424.952 218.759 422.669 218.898 421.423 217.171V245.168H420.824V215.49Z" fill="#231815"/>
<path d="M171.859 221.319C171.975 223.184 170.683 225.302 169.092 226.362C167.316 227.559 165.194 227.858 163.787 226.108C162.103 224.082 163.718 220.721 165.839 219.339C167.731 218.073 170.014 217.935 171.26 219.661V191.664H171.859V221.319Z" fill="#231815"/>
<path d="M462.961 221.319C463.076 223.184 461.785 225.302 460.193 226.362C458.417 227.559 456.295 227.858 454.888 226.108C453.205 224.082 454.819 220.721 456.941 219.339C458.855 218.073 461.116 217.935 462.361 219.661V191.664H462.961V221.319Z" fill="#231815"/>
<path d="M240.223 225.233C240.338 227.098 239.046 229.216 237.455 230.276C235.679 231.45 233.557 231.772 232.15 230.022C230.466 227.996 232.081 224.635 234.203 223.253C236.094 222.01 238.378 221.849 239.623 223.576V195.578H240.223V225.233Z" fill="#231815"/>
<path d="M278.65 229.858C278.766 231.723 277.474 233.841 275.883 234.901C274.107 236.098 271.985 236.397 270.578 234.647C268.894 232.621 270.509 229.26 272.631 227.878C274.522 226.612 276.805 226.474 278.051 228.201V200.203H278.65V229.858Z" fill="#231815"/>
<path d="M280.011 193.783C280.011 194.681 279.25 195.418 278.373 195.418C277.543 195.418 276.805 194.658 276.805 193.783C276.805 192.908 277.566 192.148 278.373 192.148C279.273 192.148 280.011 192.908 280.011 193.783Z" fill="#231815"/>
<path d="M268.387 195.699L268.502 195.124L268.917 194.088L269.333 193.259L269.955 192.453L270.509 191.969L271.063 191.348L271.801 190.864L272.839 190.266L273.992 189.851L275.168 189.437L276.414 189.299L277.982 189.161L279.412 189.23L280.865 189.437L281.672 189.782L282.503 189.989L283.541 190.404L284.302 190.933L285.109 191.624L285.87 192.315L286.562 193.075L286.977 193.811L287.3 194.64L287.577 195.469L287.623 195.699H288.523L288.546 195.538L288.476 194.364L288.338 193.466L288.131 192.591L287.646 191.624L286.839 190.335L286.147 189.575L285.317 188.746L284.44 188.124L283.541 187.595L282.434 187.18L281.349 186.835L280.312 186.559L279.297 186.421L278.051 186.352L276.667 186.421L275.376 186.559L274.407 186.904L273.254 187.25L272.285 187.733L271.132 188.539L270.232 189.23L269.609 189.851L268.987 190.542L268.502 191.348L268.318 191.831L267.972 192.66L267.695 193.466L267.626 194.433L267.557 195.262L267.58 195.699H268.387Z" fill="#231815"/>
<path d="M90.76 160H79.46V158.38L88.26 147.36H80.1V145.66H90.76V147.32L81.92 158.28H90.76V160ZM101.047 160H99.2266V153.42C99.2266 152.567 99.0999 151.947 98.8466 151.56C98.5266 151.093 97.9599 150.86 97.1466 150.86C95.2399 150.86 94.2866 152.06 94.2866 154.46V160H92.5266V145.6H94.2866V150.96C95.1132 149.84 96.1866 149.28 97.5066 149.28C98.7999 149.28 99.7266 149.633 100.287 150.34C100.793 150.98 101.047 151.96 101.047 153.28V160ZM112.02 160H110.34L110.36 158.46C109.667 159.673 108.573 160.28 107.08 160.28C104.747 160.28 103.58 159.067 103.58 156.64V149.54H105.4V156.48C105.4 157.987 106.06 158.74 107.38 158.74C109.3 158.74 110.26 157.387 110.26 154.68V149.54H112.02V160ZM109.12 148.16H107.78L105.16 145.34H107.34L109.12 148.16ZM133.039 160H131.239V153.42C131.239 151.727 130.579 150.88 129.259 150.88C128.312 150.88 127.532 151.233 126.919 151.94C126.492 152.433 126.279 153.293 126.279 154.52V160H124.519V149.54H126.179V151.02C127.099 149.873 128.239 149.3 129.599 149.3C130.892 149.3 131.805 149.653 132.339 150.36C132.805 150.973 133.039 151.947 133.039 153.28V160ZM139.992 145.28L138.012 148.12H136.152L134.172 145.28H135.772L137.092 147.16L138.412 145.28H139.992ZM137.972 160H136.172V149.6H137.972V160ZM163.827 156.98C163.827 158.127 163.38 159 162.487 159.6C161.714 160.133 160.727 160.4 159.527 160.4C156.634 160.4 155.187 159.173 155.187 156.72H156.887C156.887 157.227 157.114 157.767 157.567 158.34C157.874 158.727 158.56 158.92 159.627 158.92C160.294 158.92 160.84 158.8 161.267 158.56C161.814 158.253 162.087 157.793 162.087 157.18C162.087 156.74 161.887 156.4 161.487 156.16C161.274 156.027 160.774 155.86 159.987 155.66L158.587 155.3C157.667 155.06 156.88 154.727 156.227 154.3C155.734 153.98 155.487 153.407 155.487 152.58C155.487 151.5 155.887 150.66 156.687 150.06C157.394 149.527 158.307 149.26 159.427 149.26C160.587 149.26 161.527 149.513 162.247 150.02C163.06 150.593 163.467 151.44 163.467 152.56H161.807C161.807 151.373 160.967 150.78 159.287 150.78C157.94 150.78 157.267 151.24 157.267 152.16C157.267 152.88 157.88 153.387 159.107 153.68L160.267 153.96C161.507 154.267 162.334 154.547 162.747 154.8C163.467 155.253 163.827 155.98 163.827 156.98ZM174.367 160H172.547V153.42C172.547 152.567 172.42 151.947 172.167 151.56C171.847 151.093 171.28 150.86 170.467 150.86C168.56 150.86 167.607 152.06 167.607 154.46V160H165.847V145.6H167.607V150.96C168.434 149.84 169.507 149.28 170.827 149.28C172.12 149.28 173.047 149.633 173.607 150.34C174.114 150.98 174.367 151.96 174.367 153.28V160ZM184.26 147.48H178.02V146.32H184.26V147.48ZM185.92 155.34H178.24C178.24 157.673 179.22 158.84 181.18 158.84C182.687 158.84 183.64 158.133 184.04 156.72H185.76C185.64 157.853 185.1 158.76 184.14 159.44C183.26 160.067 182.227 160.38 181.04 160.38C179.533 160.38 178.36 159.84 177.52 158.76C176.747 157.773 176.36 156.507 176.36 154.96C176.36 153.347 176.773 152.027 177.6 151C178.493 149.867 179.727 149.3 181.3 149.3C182.047 149.3 182.773 149.48 183.48 149.84C184.2 150.187 184.747 150.66 185.12 151.26C185.533 151.927 185.787 152.833 185.88 153.98C185.907 154.313 185.92 154.767 185.92 155.34ZM184.1 153.94C184.1 153.247 183.86 152.487 183.38 151.66C183.06 151.113 182.333 150.84 181.2 150.84C179.92 150.84 179.027 151.467 178.52 152.72C178.373 153.08 178.3 153.487 178.3 153.94H184.1ZM196.593 160H194.793V153.42C194.793 151.727 194.133 150.88 192.813 150.88C191.867 150.88 191.087 151.233 190.473 151.94C190.047 152.433 189.833 153.293 189.833 154.52V160H188.073V149.54H189.733V151.02C190.653 149.873 191.793 149.3 193.153 149.3C194.447 149.3 195.36 149.653 195.893 150.36C196.36 150.973 196.593 151.947 196.593 153.28V160ZM207.647 159.14C207.647 160.9 207.307 162.2 206.627 163.04C205.88 163.96 204.647 164.42 202.927 164.42C200.38 164.42 199.007 163.38 198.807 161.3H200.587C200.787 162.407 201.58 162.96 202.967 162.96C204.3 162.96 205.173 162.527 205.587 161.66C205.84 161.127 205.967 160.087 205.967 158.54C205.273 159.593 204.193 160.12 202.727 160.12C201.273 160.12 200.18 159.6 199.447 158.56C198.807 157.653 198.487 156.44 198.487 154.92C198.487 152.4 199.313 150.693 200.967 149.8C201.513 149.507 202.147 149.36 202.867 149.36C203.973 149.36 204.86 149.693 205.527 150.36C205.607 150.44 205.773 150.64 206.027 150.96V149.64H207.647V159.14ZM206.027 154.72C206.027 153.653 205.827 152.787 205.427 152.12C204.933 151.307 204.187 150.9 203.187 150.9C202.267 150.9 201.587 151.147 201.147 151.64C200.8 152.04 200.547 152.727 200.387 153.7C200.32 154.113 200.287 154.573 200.287 155.08C200.287 157.493 201.167 158.7 202.927 158.7C204.993 158.7 206.027 157.373 206.027 154.72ZM215.42 151.22L214.84 151.16C214.027 151.16 213.367 151.427 212.86 151.96C212.353 152.493 212.1 153.167 212.1 153.98V160H210.34V149.54H212.02V151.36C212.22 150.787 212.593 150.3 213.14 149.9C213.687 149.5 214.26 149.3 214.86 149.3L215.42 149.36V151.22ZM219.3 160H217.5V149.6H219.3V160ZM219.74 148.16H218.4L215.78 145.34H217.96L219.74 148.16ZM245.795 160H243.555L240.295 154.72L238.815 156.08V160H237.115V145.66H238.815V153.98L243.315 149.54H245.575L241.575 153.46L245.795 160ZM255.555 160H253.875L253.895 158.46C253.202 159.673 252.108 160.28 250.615 160.28C248.282 160.28 247.115 159.067 247.115 156.64V149.54H248.935V156.48C248.935 157.987 249.595 158.74 250.915 158.74C252.835 158.74 253.795 157.387 253.795 154.68V149.54H255.555V160ZM263.768 148.16H262.428L259.808 145.34H261.988L263.768 148.16ZM266.568 160.16H265.288V158.54C264.808 159.1 264.362 159.493 263.948 159.72C263.455 159.987 262.875 160.12 262.208 160.12C260.328 160.12 259.048 159.347 258.368 157.8C257.968 156.893 257.768 155.92 257.768 154.88C257.768 153.427 258.102 152.22 258.768 151.26C259.528 150.153 260.602 149.6 261.988 149.6C262.788 149.6 263.508 149.807 264.148 150.22C264.602 150.513 264.895 150.807 265.028 151.1L265.068 149.88H266.568V160.16ZM264.888 155.02C264.888 153.98 264.695 153.127 264.308 152.46C263.842 151.647 263.122 151.24 262.148 151.24C260.282 151.24 259.348 152.44 259.348 154.84C259.348 157.36 260.335 158.62 262.308 158.62C263.122 158.62 263.755 158.247 264.208 157.5C264.528 156.98 264.728 156.547 264.808 156.2C264.862 155.973 264.888 155.58 264.888 155.02ZM271.182 147.64H269.402V145.66H271.182V147.64ZM271.182 160H269.402V149.6H271.182V160ZM297.806 155.34H292.886V153.52H297.806V155.34ZM311.592 160H309.832V145.66H311.592V160ZM323.186 155.34H315.506C315.506 157.673 316.486 158.84 318.446 158.84C319.952 158.84 320.906 158.133 321.306 156.72H323.026C322.906 157.853 322.366 158.76 321.406 159.44C320.526 160.067 319.492 160.38 318.306 160.38C316.799 160.38 315.626 159.84 314.786 158.76C314.012 157.773 313.626 156.507 313.626 154.96C313.626 153.347 314.039 152.027 314.866 151C315.759 149.867 316.992 149.3 318.566 149.3C319.219 149.3 319.892 149.453 320.586 149.76C321.346 150.093 321.886 150.507 322.206 151C322.859 152.027 323.186 153.473 323.186 155.34ZM321.366 153.94C321.366 153.247 321.126 152.487 320.646 151.66C320.326 151.113 319.599 150.84 318.466 150.84C317.186 150.84 316.292 151.467 315.786 152.72C315.639 153.08 315.566 153.487 315.566 153.94H321.366ZM319.726 148.16H318.386L315.766 145.34H317.946L319.726 148.16ZM328.339 150.36L327.859 156.58H326.859L326.359 150.36V145.66H328.339V150.36ZM328.299 160H326.359V157.98H328.299V160ZM351.131 160H339.831V158.38L348.631 147.36H340.471V145.66H351.131V147.32L342.291 158.28H351.131V160ZM361.418 160H359.598V153.42C359.598 152.567 359.471 151.947 359.218 151.56C358.898 151.093 358.331 150.86 357.518 150.86C355.611 150.86 354.658 152.06 354.658 154.46V160H352.898V145.6H354.658V150.96C355.484 149.84 356.558 149.28 357.878 149.28C359.171 149.28 360.098 149.633 360.658 150.34C361.164 150.98 361.418 151.96 361.418 153.28V160ZM372.391 160H370.711L370.731 158.46C370.038 159.673 368.944 160.28 367.451 160.28C365.118 160.28 363.951 159.067 363.951 156.64V149.54H365.771V156.48C365.771 157.987 366.431 158.74 367.751 158.74C369.671 158.74 370.631 157.387 370.631 154.68V149.54H372.391V160ZM369.491 148.16H368.151L365.531 145.34H367.711L369.491 148.16ZM388.527 160H386.727V153.42C386.727 151.727 386.067 150.88 384.747 150.88C383.8 150.88 383.02 151.233 382.407 151.94C381.98 152.433 381.767 153.293 381.767 154.52V160H380.007V149.54H381.667V151.02C382.587 149.873 383.727 149.3 385.087 149.3C386.38 149.3 387.294 149.653 387.827 150.36C388.294 150.973 388.527 151.947 388.527 153.28V160ZM395.48 145.28L393.5 148.12H391.64L389.66 145.28H391.26L392.58 147.16L393.9 145.28H395.48ZM393.46 160H391.66V149.6H393.46V160ZM429.081 156.98C429.081 158.127 428.634 159 427.741 159.6C426.967 160.133 425.981 160.4 424.781 160.4C421.887 160.4 420.441 159.173 420.441 156.72H422.141C422.141 157.227 422.367 157.767 422.821 158.34C423.127 158.727 423.814 158.92 424.881 158.92C425.547 158.92 426.094 158.8 426.521 158.56C427.067 158.253 427.341 157.793 427.341 157.18C427.341 156.74 427.141 156.4 426.741 156.16C426.527 156.027 426.027 155.86 425.241 155.66L423.841 155.3C422.921 155.06 422.134 154.727 421.481 154.3C420.987 153.98 420.741 153.407 420.741 152.58C420.741 151.5 421.141 150.66 421.941 150.06C422.647 149.527 423.561 149.26 424.681 149.26C425.841 149.26 426.781 149.513 427.501 150.02C428.314 150.593 428.721 151.44 428.721 152.56H427.061C427.061 151.373 426.221 150.78 424.541 150.78C423.194 150.78 422.521 151.24 422.521 152.16C422.521 152.88 423.134 153.387 424.361 153.68L425.521 153.96C426.761 154.267 427.587 154.547 428.001 154.8C428.721 155.253 429.081 155.98 429.081 156.98ZM439.621 160H437.801V153.42C437.801 152.567 437.674 151.947 437.421 151.56C437.101 151.093 436.534 150.86 435.721 150.86C433.814 150.86 432.861 152.06 432.861 154.46V160H431.101V145.6H432.861V150.96C433.687 149.84 434.761 149.28 436.081 149.28C437.374 149.28 438.301 149.633 438.861 150.34C439.367 150.98 439.621 151.96 439.621 153.28V160ZM449.514 147.48H443.274V146.32H449.514V147.48ZM451.174 155.34H443.494C443.494 157.673 444.474 158.84 446.434 158.84C447.941 158.84 448.894 158.133 449.294 156.72H451.014C450.894 157.853 450.354 158.76 449.394 159.44C448.514 160.067 447.481 160.38 446.294 160.38C444.787 160.38 443.614 159.84 442.774 158.76C442.001 157.773 441.614 156.507 441.614 154.96C441.614 153.347 442.027 152.027 442.854 151C443.747 149.867 444.981 149.3 446.554 149.3C447.301 149.3 448.027 149.48 448.734 149.84C449.454 150.187 450.001 150.66 450.374 151.26C450.787 151.927 451.041 152.833 451.134 153.98C451.161 154.313 451.174 154.767 451.174 155.34ZM449.354 153.94C449.354 153.247 449.114 152.487 448.634 151.66C448.314 151.113 447.587 150.84 446.454 150.84C445.174 150.84 444.281 151.467 443.774 152.72C443.627 153.08 443.554 153.487 443.554 153.94H449.354ZM461.847 160H460.047V153.42C460.047 151.727 459.387 150.88 458.067 150.88C457.121 150.88 456.341 151.233 455.727 151.94C455.301 152.433 455.087 153.293 455.087 154.52V160H453.327V149.54H454.987V151.02C455.907 149.873 457.047 149.3 458.407 149.3C459.701 149.3 460.614 149.653 461.147 150.36C461.614 150.973 461.847 151.947 461.847 153.28V160ZM472.901 159.14C472.901 160.9 472.561 162.2 471.881 163.04C471.134 163.96 469.901 164.42 468.181 164.42C465.634 164.42 464.261 163.38 464.061 161.3H465.841C466.041 162.407 466.834 162.96 468.221 162.96C469.554 162.96 470.427 162.527 470.841 161.66C471.094 161.127 471.221 160.087 471.221 158.54C470.527 159.593 469.447 160.12 467.981 160.12C466.527 160.12 465.434 159.6 464.701 158.56C464.061 157.653 463.741 156.44 463.741 154.92C463.741 152.4 464.567 150.693 466.221 149.8C466.767 149.507 467.401 149.36 468.121 149.36C469.227 149.36 470.114 149.693 470.781 150.36C470.861 150.44 471.027 150.64 471.281 150.96V149.64H472.901V159.14ZM471.281 154.72C471.281 153.653 471.081 152.787 470.681 152.12C470.187 151.307 469.441 150.9 468.441 150.9C467.521 150.9 466.841 151.147 466.401 151.64C466.054 152.04 465.801 152.727 465.641 153.7C465.574 154.113 465.541 154.573 465.541 155.08C465.541 157.493 466.421 158.7 468.181 158.7C470.247 158.7 471.281 157.373 471.281 154.72ZM480.674 151.22L480.094 151.16C479.281 151.16 478.621 151.427 478.114 151.96C477.607 152.493 477.354 153.167 477.354 153.98V160H475.594V149.54H477.274V151.36C477.474 150.787 477.847 150.3 478.394 149.9C478.941 149.5 479.514 149.3 480.114 149.3L480.674 149.36V151.22ZM484.554 160H482.754V149.6H484.554V160ZM484.994 148.16H483.654L481.034 145.34H483.214L484.994 148.16ZM511.049 160H508.809L505.549 154.72L504.069 156.08V160H502.369V145.66H504.069V153.98L508.569 149.54H510.829L506.829 153.46L511.049 160ZM520.809 160H519.129L519.149 158.46C518.456 159.673 517.362 160.28 515.869 160.28C513.536 160.28 512.369 159.067 512.369 156.64V149.54H514.189V156.48C514.189 157.987 514.849 158.74 516.169 158.74C518.089 158.74 519.049 157.387 519.049 154.68V149.54H520.809V160ZM529.022 148.16H527.682L525.062 145.34H527.242L529.022 148.16ZM531.822 160.16H530.542V158.54C530.062 159.1 529.616 159.493 529.202 159.72C528.709 159.987 528.129 160.12 527.462 160.12C525.582 160.12 524.302 159.347 523.622 157.8C523.222 156.893 523.022 155.92 523.022 154.88C523.022 153.427 523.356 152.22 524.022 151.26C524.782 150.153 525.856 149.6 527.242 149.6C528.042 149.6 528.762 149.807 529.402 150.22C529.856 150.513 530.149 150.807 530.282 151.1L530.322 149.88H531.822V160.16ZM530.142 155.02C530.142 153.98 529.949 153.127 529.562 152.46C529.096 151.647 528.376 151.24 527.402 151.24C525.536 151.24 524.602 152.44 524.602 154.84C524.602 157.36 525.589 158.62 527.562 158.62C528.376 158.62 529.009 158.247 529.462 157.5C529.782 156.98 529.982 156.547 530.062 156.2C530.116 155.973 530.142 155.58 530.142 155.02ZM536.435 147.64H534.655V145.66H536.435V147.64ZM536.435 160H534.655V149.6H536.435V160ZM553.295 155.34H548.375V153.52H553.295V155.34ZM567.08 160H565.32V145.66H567.08V160ZM578.674 155.34H570.994C570.994 157.673 571.974 158.84 573.934 158.84C575.441 158.84 576.394 158.133 576.794 156.72H578.514C578.394 157.853 577.854 158.76 576.894 159.44C576.014 160.067 574.981 160.38 573.794 160.38C572.287 160.38 571.114 159.84 570.274 158.76C569.501 157.773 569.114 156.507 569.114 154.96C569.114 153.347 569.527 152.027 570.354 151C571.247 149.867 572.481 149.3 574.054 149.3C574.707 149.3 575.381 149.453 576.074 149.76C576.834 150.093 577.374 150.507 577.694 151C578.347 152.027 578.674 153.473 578.674 155.34ZM576.854 153.94C576.854 153.247 576.614 152.487 576.134 151.66C575.814 151.113 575.087 150.84 573.954 150.84C572.674 150.84 571.781 151.467 571.274 152.72C571.127 153.08 571.054 153.487 571.054 153.94H576.854ZM575.214 148.16H573.874L571.254 145.34H573.434L575.214 148.16ZM583.827 150.36L583.347 156.58H582.347L581.847 150.36V145.66H583.827V150.36ZM583.787 160H581.847V157.98H583.787V160ZM606.619 160H595.319V158.38L604.119 147.36H595.959V145.66H606.619V147.32L597.779 158.28H606.619V160ZM616.906 160H615.086V153.42C615.086 152.567 614.959 151.947 614.706 151.56C614.386 151.093 613.819 150.86 613.006 150.86C611.099 150.86 610.146 152.06 610.146 154.46V160H608.386V145.6H610.146V150.96C610.973 149.84 612.046 149.28 613.366 149.28C614.659 149.28 615.586 149.633 616.146 150.34C616.653 150.98 616.906 151.96 616.906 153.28V160ZM627.879 160H626.199L626.219 158.46C625.526 159.673 624.433 160.28 622.939 160.28C620.606 160.28 619.439 159.067 619.439 156.64V149.54H621.259V156.48C621.259 157.987 621.919 158.74 623.239 158.74C625.159 158.74 626.119 157.387 626.119 154.68V149.54H627.879V160ZM624.979 148.16H623.639L621.019 145.34H623.199L624.979 148.16ZM648.898 160H647.098V153.42C647.098 151.727 646.438 150.88 645.118 150.88C644.171 150.88 643.391 151.233 642.778 151.94C642.351 152.433 642.138 153.293 642.138 154.52V160H640.378V149.54H642.038V151.02C642.958 149.873 644.098 149.3 645.458 149.3C646.751 149.3 647.665 149.653 648.198 150.36C648.665 150.973 648.898 151.947 648.898 153.28V160ZM655.851 145.28L653.871 148.12H652.011L650.031 145.28H651.631L652.951 147.16L654.271 145.28H655.851ZM653.831 160H652.031V149.6H653.831V160Z" fill="black"/>
<path d="M82.28 267.152C82.28 268.299 81.8333 269.172 80.94 269.772C80.1667 270.305 79.18 270.572 77.98 270.572C75.0867 270.572 73.64 269.345 73.64 266.892H75.34C75.34 267.399 75.5667 267.939 76.02 268.512C76.3267 268.899 77.0133 269.092 78.08 269.092C78.7467 269.092 79.2933 268.972 79.72 268.732C80.2667 268.425 80.54 267.965 80.54 267.352C80.54 266.912 80.34 266.572 79.94 266.332C79.7267 266.199 79.2267 266.032 78.44 265.832L77.04 265.472C76.12 265.232 75.3333 264.899 74.68 264.472C74.1867 264.152 73.94 263.579 73.94 262.752C73.94 261.672 74.34 260.832 75.14 260.232C75.8467 259.699 76.76 259.432 77.88 259.432C79.04 259.432 79.98 259.685 80.7 260.192C81.5133 260.765 81.92 261.612 81.92 262.732H80.26C80.26 261.545 79.42 260.952 77.74 260.952C76.3933 260.952 75.72 261.412 75.72 262.332C75.72 263.052 76.3333 263.559 77.56 263.852L78.72 264.132C79.96 264.439 80.7867 264.719 81.2 264.972C81.92 265.425 82.28 266.152 82.28 267.152ZM92.82 270.172H91V263.592C91 262.739 90.8733 262.119 90.62 261.732C90.3 261.265 89.7333 261.032 88.92 261.032C87.0133 261.032 86.06 262.232 86.06 264.632V270.172H84.3V255.772H86.06V261.132C86.8867 260.012 87.96 259.452 89.28 259.452C90.5733 259.452 91.5 259.805 92.06 260.512C92.5667 261.152 92.82 262.132 92.82 263.452V270.172ZM102.713 257.652H96.4733V256.492H102.713V257.652ZM104.373 265.512H96.6933C96.6933 267.845 97.6733 269.012 99.6333 269.012C101.14 269.012 102.093 268.305 102.493 266.892H104.213C104.093 268.025 103.553 268.932 102.593 269.612C101.713 270.239 100.68 270.552 99.4933 270.552C97.9866 270.552 96.8133 270.012 95.9733 268.932C95.1999 267.945 94.8133 266.679 94.8133 265.132C94.8133 263.519 95.2266 262.199 96.0533 261.172C96.9466 260.039 98.1799 259.472 99.7533 259.472C100.5 259.472 101.227 259.652 101.933 260.012C102.653 260.359 103.2 260.832 103.573 261.432C103.987 262.099 104.24 263.005 104.333 264.152C104.36 264.485 104.373 264.939 104.373 265.512ZM102.553 264.112C102.553 263.419 102.313 262.659 101.833 261.832C101.513 261.285 100.787 261.012 99.6533 261.012C98.3733 261.012 97.4799 261.639 96.9733 262.892C96.8266 263.252 96.7533 263.659 96.7533 264.112H102.553ZM115.047 270.172H113.247V263.592C113.247 261.899 112.587 261.052 111.267 261.052C110.32 261.052 109.54 261.405 108.927 262.112C108.5 262.605 108.287 263.465 108.287 264.692V270.172H106.527V259.712H108.187V261.192C109.107 260.045 110.247 259.472 111.607 259.472C112.9 259.472 113.813 259.825 114.347 260.532C114.813 261.145 115.047 262.119 115.047 263.452V270.172ZM126.1 269.312C126.1 271.072 125.76 272.372 125.08 273.212C124.333 274.132 123.1 274.592 121.38 274.592C118.833 274.592 117.46 273.552 117.26 271.472H119.04C119.24 272.579 120.033 273.132 121.42 273.132C122.753 273.132 123.627 272.699 124.04 271.832C124.293 271.299 124.42 270.259 124.42 268.712C123.727 269.765 122.647 270.292 121.18 270.292C119.727 270.292 118.633 269.772 117.9 268.732C117.26 267.825 116.94 266.612 116.94 265.092C116.94 262.572 117.767 260.865 119.42 259.972C119.967 259.679 120.6 259.532 121.32 259.532C122.427 259.532 123.313 259.865 123.98 260.532C124.06 260.612 124.227 260.812 124.48 261.132V259.812H126.1V269.312ZM124.48 264.892C124.48 263.825 124.28 262.959 123.88 262.292C123.387 261.479 122.64 261.072 121.64 261.072C120.72 261.072 120.04 261.319 119.6 261.812C119.253 262.212 119 262.899 118.84 263.872C118.773 264.285 118.74 264.745 118.74 265.252C118.74 267.665 119.62 268.872 121.38 268.872C123.447 268.872 124.48 267.545 124.48 264.892ZM133.873 261.392L133.293 261.332C132.48 261.332 131.82 261.599 131.313 262.132C130.806 262.665 130.553 263.339 130.553 264.152V270.172H128.793V259.712H130.473V261.532C130.673 260.959 131.046 260.472 131.593 260.072C132.14 259.672 132.713 259.472 133.313 259.472L133.873 259.532V261.392ZM137.753 270.172H135.953V259.772H137.753V270.172ZM138.193 258.332H136.853L134.233 255.512H136.413L138.193 258.332ZM164.248 270.172H162.008L158.748 264.892L157.268 266.252V270.172H155.568V255.832H157.268V264.152L161.768 259.712H164.028L160.028 263.632L164.248 270.172ZM174.008 270.172H172.328L172.348 268.632C171.655 269.845 170.561 270.452 169.068 270.452C166.735 270.452 165.568 269.239 165.568 266.812V259.712H167.388V266.652C167.388 268.159 168.048 268.912 169.368 268.912C171.288 268.912 172.248 267.559 172.248 264.852V259.712H174.008V270.172ZM182.221 258.332H180.881L178.261 255.512H180.441L182.221 258.332ZM185.021 270.332H183.741V268.712C183.261 269.272 182.815 269.665 182.401 269.892C181.908 270.159 181.328 270.292 180.661 270.292C178.781 270.292 177.501 269.519 176.821 267.972C176.421 267.065 176.221 266.092 176.221 265.052C176.221 263.599 176.555 262.392 177.221 261.432C177.981 260.325 179.055 259.772 180.441 259.772C181.241 259.772 181.961 259.979 182.601 260.392C183.055 260.685 183.348 260.979 183.481 261.272L183.521 260.052H185.021V270.332ZM183.341 265.192C183.341 264.152 183.148 263.299 182.761 262.632C182.295 261.819 181.575 261.412 180.601 261.412C178.735 261.412 177.801 262.612 177.801 265.012C177.801 267.532 178.788 268.792 180.761 268.792C181.575 268.792 182.208 268.419 182.661 267.672C182.981 267.152 183.181 266.719 183.261 266.372C183.315 266.145 183.341 265.752 183.341 265.192ZM189.635 257.812H187.855V255.832H189.635V257.812ZM189.635 270.172H187.855V259.772H189.635V270.172ZM233.151 270.172H231.391V255.832H233.151V270.172ZM244.744 265.512H237.064C237.064 267.845 238.044 269.012 240.004 269.012C241.511 269.012 242.464 268.305 242.864 266.892H244.584C244.464 268.025 243.924 268.932 242.964 269.612C242.084 270.239 241.051 270.552 239.864 270.552C238.358 270.552 237.184 270.012 236.344 268.932C235.571 267.945 235.184 266.679 235.184 265.132C235.184 263.519 235.598 262.199 236.424 261.172C237.318 260.039 238.551 259.472 240.124 259.472C240.778 259.472 241.451 259.625 242.144 259.932C242.904 260.265 243.444 260.679 243.764 261.172C244.418 262.199 244.744 263.645 244.744 265.512ZM242.924 264.112C242.924 263.419 242.684 262.659 242.204 261.832C241.884 261.285 241.158 261.012 240.024 261.012C238.744 261.012 237.851 261.639 237.344 262.892C237.198 263.252 237.124 263.659 237.124 264.112H242.924ZM241.284 258.332H239.944L237.324 255.512H239.504L241.284 258.332ZM249.898 260.532L249.418 266.752H248.418L247.918 260.532V255.832H249.898V260.532ZM249.858 270.172H247.918V268.152H249.858V270.172ZM276.435 265.512H271.515V263.692H276.435V265.512ZM318.412 270.172H307.112V268.552L315.912 257.532H307.752V255.832H318.412V257.492L309.572 268.452H318.412V270.172ZM328.699 270.172H326.879V263.592C326.879 262.739 326.752 262.119 326.499 261.732C326.179 261.265 325.612 261.032 324.799 261.032C322.892 261.032 321.939 262.232 321.939 264.632V270.172H320.179V255.772H321.939V261.132C322.766 260.012 323.839 259.452 325.159 259.452C326.452 259.452 327.379 259.805 327.939 260.512C328.446 261.152 328.699 262.132 328.699 263.452V270.172ZM339.672 270.172H337.992L338.012 268.632C337.319 269.845 336.226 270.452 334.732 270.452C332.399 270.452 331.232 269.239 331.232 266.812V259.712H333.052V266.652C333.052 268.159 333.712 268.912 335.032 268.912C336.952 268.912 337.912 267.559 337.912 264.852V259.712H339.672V270.172ZM336.772 258.332H335.432L332.812 255.512H334.992L336.772 258.332ZM360.691 270.172H358.891V263.592C358.891 261.899 358.231 261.052 356.911 261.052C355.964 261.052 355.184 261.405 354.571 262.112C354.144 262.605 353.931 263.465 353.931 264.692V270.172H352.171V259.712H353.831V261.192C354.751 260.045 355.891 259.472 357.251 259.472C358.544 259.472 359.458 259.825 359.991 260.532C360.458 261.145 360.691 262.119 360.691 263.452V270.172ZM367.644 255.452L365.664 258.292H363.804L361.824 255.452H363.424L364.744 257.332L366.064 255.452H367.644ZM365.624 270.172H363.824V259.772H365.624V270.172ZM415.893 267.152C415.893 268.299 415.447 269.172 414.553 269.772C413.78 270.305 412.793 270.572 411.593 270.572C408.7 270.572 407.253 269.345 407.253 266.892H408.953C408.953 267.399 409.18 267.939 409.633 268.512C409.94 268.899 410.627 269.092 411.693 269.092C412.36 269.092 412.907 268.972 413.333 268.732C413.88 268.425 414.153 267.965 414.153 267.352C414.153 266.912 413.953 266.572 413.553 266.332C413.34 266.199 412.84 266.032 412.053 265.832L410.653 265.472C409.733 265.232 408.947 264.899 408.293 264.472C407.8 264.152 407.553 263.579 407.553 262.752C407.553 261.672 407.953 260.832 408.753 260.232C409.46 259.699 410.373 259.432 411.493 259.432C412.653 259.432 413.593 259.685 414.313 260.192C415.127 260.765 415.533 261.612 415.533 262.732H413.873C413.873 261.545 413.033 260.952 411.353 260.952C410.007 260.952 409.333 261.412 409.333 262.332C409.333 263.052 409.947 263.559 411.173 263.852L412.333 264.132C413.573 264.439 414.4 264.719 414.813 264.972C415.533 265.425 415.893 266.152 415.893 267.152ZM426.433 270.172H424.613V263.592C424.613 262.739 424.487 262.119 424.233 261.732C423.913 261.265 423.347 261.032 422.533 261.032C420.627 261.032 419.673 262.232 419.673 264.632V270.172H417.913V255.772H419.673V261.132C420.5 260.012 421.573 259.452 422.893 259.452C424.187 259.452 425.113 259.805 425.673 260.512C426.18 261.152 426.433 262.132 426.433 263.452V270.172ZM436.327 257.652H430.087V256.492H436.327V257.652ZM437.987 265.512H430.307C430.307 267.845 431.287 269.012 433.247 269.012C434.753 269.012 435.707 268.305 436.107 266.892H437.827C437.707 268.025 437.167 268.932 436.207 269.612C435.327 270.239 434.293 270.552 433.107 270.552C431.6 270.552 430.427 270.012 429.587 268.932C428.813 267.945 428.427 266.679 428.427 265.132C428.427 263.519 428.84 262.199 429.667 261.172C430.56 260.039 431.793 259.472 433.367 259.472C434.113 259.472 434.84 259.652 435.547 260.012C436.267 260.359 436.813 260.832 437.187 261.432C437.6 262.099 437.853 263.005 437.947 264.152C437.973 264.485 437.987 264.939 437.987 265.512ZM436.167 264.112C436.167 263.419 435.927 262.659 435.447 261.832C435.127 261.285 434.4 261.012 433.267 261.012C431.987 261.012 431.093 261.639 430.587 262.892C430.44 263.252 430.367 263.659 430.367 264.112H436.167ZM448.66 270.172H446.86V263.592C446.86 261.899 446.2 261.052 444.88 261.052C443.933 261.052 443.153 261.405 442.54 262.112C442.113 262.605 441.9 263.465 441.9 264.692V270.172H440.14V259.712H441.8V261.192C442.72 260.045 443.86 259.472 445.22 259.472C446.513 259.472 447.427 259.825 447.96 260.532C448.427 261.145 448.66 262.119 448.66 263.452V270.172ZM459.713 269.312C459.713 271.072 459.373 272.372 458.693 273.212C457.946 274.132 456.713 274.592 454.993 274.592C452.446 274.592 451.073 273.552 450.873 271.472H452.653C452.853 272.579 453.646 273.132 455.033 273.132C456.366 273.132 457.24 272.699 457.653 271.832C457.906 271.299 458.033 270.259 458.033 268.712C457.34 269.765 456.26 270.292 454.793 270.292C453.34 270.292 452.246 269.772 451.513 268.732C450.873 267.825 450.553 266.612 450.553 265.092C450.553 262.572 451.38 260.865 453.033 259.972C453.58 259.679 454.213 259.532 454.933 259.532C456.04 259.532 456.926 259.865 457.593 260.532C457.673 260.612 457.84 260.812 458.093 261.132V259.812H459.713V269.312ZM458.093 264.892C458.093 263.825 457.893 262.959 457.493 262.292C457 261.479 456.253 261.072 455.253 261.072C454.333 261.072 453.653 261.319 453.213 261.812C452.866 262.212 452.613 262.899 452.453 263.872C452.386 264.285 452.353 264.745 452.353 265.252C452.353 267.665 453.233 268.872 454.993 268.872C457.06 268.872 458.093 267.545 458.093 264.892ZM467.486 261.392L466.906 261.332C466.093 261.332 465.433 261.599 464.926 262.132C464.42 262.665 464.166 263.339 464.166 264.152V270.172H462.406V259.712H464.086V261.532C464.286 260.959 464.66 260.472 465.206 260.072C465.753 259.672 466.326 259.472 466.926 259.472L467.486 259.532V261.392ZM471.367 270.172H469.567V259.772H471.367V270.172ZM471.807 258.332H470.467L467.847 255.512H470.027L471.807 258.332ZM507.627 270.172H505.387L502.127 264.892L500.647 266.252V270.172H498.947V255.832H500.647V264.152L505.147 259.712H507.407L503.407 263.632L507.627 270.172ZM517.387 270.172H515.707L515.727 268.632C515.034 269.845 513.94 270.452 512.447 270.452C510.114 270.452 508.947 269.239 508.947 266.812V259.712H510.767V266.652C510.767 268.159 511.427 268.912 512.747 268.912C514.667 268.912 515.627 267.559 515.627 264.852V259.712H517.387V270.172ZM525.6 258.332H524.26L521.64 255.512H523.82L525.6 258.332ZM528.4 270.332H527.12V268.712C526.64 269.272 526.194 269.665 525.78 269.892C525.287 270.159 524.707 270.292 524.04 270.292C522.16 270.292 520.88 269.519 520.2 267.972C519.8 267.065 519.6 266.092 519.6 265.052C519.6 263.599 519.934 262.392 520.6 261.432C521.36 260.325 522.434 259.772 523.82 259.772C524.62 259.772 525.34 259.979 525.98 260.392C526.434 260.685 526.727 260.979 526.86 261.272L526.9 260.052H528.4V270.332ZM526.72 265.192C526.72 264.152 526.527 263.299 526.14 262.632C525.674 261.819 524.954 261.412 523.98 261.412C522.114 261.412 521.18 262.612 521.18 265.012C521.18 267.532 522.167 268.792 524.14 268.792C524.954 268.792 525.587 268.419 526.04 267.672C526.36 267.152 526.56 266.719 526.64 266.372C526.694 266.145 526.72 265.752 526.72 265.192ZM533.014 257.812H531.234V255.832H533.014V257.812ZM533.014 270.172H531.234V259.772H533.014V270.172ZM569.404 265.512H564.484V263.692H569.404V265.512ZM597.838 270.172H596.078V255.832H597.838V270.172ZM609.432 265.512H601.752C601.752 267.845 602.732 269.012 604.692 269.012C606.199 269.012 607.152 268.305 607.552 266.892H609.272C609.152 268.025 608.612 268.932 607.652 269.612C606.772 270.239 605.739 270.552 604.552 270.552C603.045 270.552 601.872 270.012 601.032 268.932C600.259 267.945 599.872 266.679 599.872 265.132C599.872 263.519 600.285 262.199 601.112 261.172C602.005 260.039 603.239 259.472 604.812 259.472C605.465 259.472 606.139 259.625 606.832 259.932C607.592 260.265 608.132 260.679 608.452 261.172C609.105 262.199 609.432 263.645 609.432 265.512ZM607.612 264.112C607.612 263.419 607.372 262.659 606.892 261.832C606.572 261.285 605.845 261.012 604.712 261.012C603.432 261.012 602.539 261.639 602.032 262.892C601.885 263.252 601.812 263.659 601.812 264.112H607.612ZM605.972 258.332H604.632L602.012 255.512H604.192L605.972 258.332ZM614.585 260.532L614.105 266.752H613.105L612.605 260.532V255.832H614.585V260.532ZM614.545 270.172H612.605V268.152H614.545V270.172Z" fill="black"/>
<path d="M275.503 43.7133L271.498 47.276C270.842 47.8824 270.017 47.8319 269.434 47.0739C268.9 46.4422 268.754 45.5326 269.604 44.9009L273.901 40.6812V35.8299C273.901 34.8445 274.411 34.3644 275.479 34.3644C276.547 34.3644 277.106 34.8445 277.106 35.8299V40.7065L281.379 44.9009C282.228 45.5326 282.083 46.4422 281.549 47.0739C280.942 47.8319 280.116 47.9077 279.485 47.276L275.503 43.7133ZM285.651 49.449C288.88 49.449 290.871 51.1166 290.871 54.1992C290.871 57.2818 288.832 59 285.603 59H276.596C273.343 59 271.376 57.3071 271.376 54.1992C271.376 51.0914 273.343 49.449 276.596 49.449H285.651ZM285.821 55.9932C287.181 55.9932 287.764 55.2352 287.764 54.1992C287.764 53.1633 287.157 52.4558 285.821 52.4558H276.402C275.042 52.4558 274.459 53.1885 274.459 54.1992C274.459 55.2099 275.066 55.9932 276.402 55.9932H285.821ZM282.957 46.9728V35.6278C282.957 34.6171 283.491 34.1876 284.462 34.1876C285.433 34.1876 286.016 34.6171 286.016 35.6278V39.241H287.788V35.5267C287.788 34.5413 288.322 34.036 289.342 34.036C290.361 34.036 290.871 34.5413 290.871 35.5267V47.0991C290.871 48.1098 290.386 48.5899 289.342 48.5899C288.298 48.5899 287.788 48.1098 287.788 47.0991V42.45H286.016V46.9981C286.016 48.0087 285.506 48.4383 284.462 48.4383C283.418 48.4383 282.957 48.0087 282.957 46.9981V46.9728ZM294.294 41.5909V39.6706C294.294 36.1584 297.499 34.3644 301.505 34.3644C305.51 34.3644 308.739 36.1584 308.739 39.6706V41.5909C308.739 45.0272 305.51 46.8465 301.505 46.8465C297.499 46.8465 294.294 45.0525 294.294 41.5909ZM297.377 58.7726C296.382 58.7726 295.945 58.2673 295.945 57.206V53.5423C295.945 52.4811 296.503 51.9504 297.499 51.9504H312.065V50.5355H297.232C296.334 50.5355 295.969 50.0554 295.969 49.1458C295.969 48.1604 296.334 47.7561 297.232 47.7561H313.643C314.712 47.7561 315.149 48.2614 315.149 49.3226V53.0369C315.149 54.0982 314.736 54.5782 313.716 54.5782H299.028V55.9932H314.59C315.513 55.9932 315.877 56.3975 315.877 57.3071C315.877 58.2925 315.513 58.7473 314.59 58.7473H297.377V58.7726ZM305.535 41.0603V40.1759C305.535 38.4072 304.005 37.346 301.505 37.346C299.004 37.346 297.475 38.4072 297.475 40.1759V41.0603C297.475 42.8037 299.004 43.8902 301.505 43.8902C304.005 43.8902 305.535 42.8037 305.535 41.0603ZM312.017 45.4568V35.4762C312.017 34.4908 312.575 34.036 313.619 34.036C314.663 34.036 315.221 34.4908 315.221 35.4762V45.482C315.221 46.4927 314.712 46.9223 313.619 46.9223C312.527 46.9223 312.017 46.4927 312.017 45.482V45.4568ZM346.03 45.4315C346.952 45.4315 347.316 45.9621 347.316 47.0233C347.316 48.0845 346.952 48.5646 346.03 48.5646H337.533V50.1059H344.282C345.35 50.1059 345.787 50.586 345.787 51.6472V57.4082C345.787 58.4189 345.277 58.8737 344.233 58.8737C343.189 58.8737 342.607 58.4189 342.607 57.4082V53.2391H327.263C326.365 53.2391 325.976 52.7085 325.976 51.6472C325.976 50.586 326.365 50.1059 327.263 50.1059H334.352V48.5646H325.855C324.957 48.5646 324.568 48.0845 324.568 47.0233C324.568 45.9621 324.957 45.4315 325.855 45.4315H346.03ZM334.352 39.7716V38.9125H327.117C326.219 38.9125 325.855 38.5083 325.855 37.447C325.855 36.3858 326.219 35.9563 327.117 35.9563H334.255V35.2235C334.255 34.3139 334.789 33.758 335.955 33.758C337.12 33.758 337.654 34.3139 337.654 35.2235V35.9563H344.792C345.714 35.9563 346.078 36.3858 346.078 37.447C346.078 38.5083 345.714 38.9125 344.792 38.9125H337.557V39.7716L345.35 41.414C346.103 41.5656 346.321 42.3741 346.078 43.309C345.835 44.2945 345.326 44.5219 344.549 44.345L335.955 42.3489L327.36 44.345C326.583 44.5219 326.098 44.2945 325.831 43.309C325.588 42.3741 325.806 41.5909 326.559 41.414L334.352 39.7716ZM362.66 36.8912C363.582 36.8912 363.947 37.4218 363.947 38.3819C363.947 39.4179 363.582 39.9232 362.66 39.9232H350.303C349.404 39.9232 349.04 39.4179 349.04 38.3819C349.04 37.4218 349.404 36.8912 350.303 36.8912H354.964V34.516C354.964 33.5053 355.474 33 356.493 33C357.513 33 358.047 33.5053 358.047 34.516V36.8912H362.66ZM363.218 47.6803V51.5209C363.218 56.5996 359.989 58.2925 356.518 58.2925C353.046 58.2925 349.817 56.5996 349.817 51.5209V47.6803C349.817 42.6016 353.07 40.8834 356.518 40.8834C359.965 40.8834 363.218 42.6016 363.218 47.6803ZM360.159 47.8571C360.159 44.7745 358.363 43.9407 356.542 43.9407C354.721 43.9407 352.925 44.7998 352.925 47.8571V51.344C352.925 54.4014 354.721 55.2604 356.542 55.2604C358.363 55.2604 360.159 54.3761 360.159 51.344V47.8571ZM371.497 43.6122C372.395 43.6122 372.759 44.1429 372.759 45.2041C372.759 46.2653 372.395 46.8465 371.497 46.8465H369.118V57.3324C369.118 58.3431 368.584 58.8231 367.54 58.8231C366.496 58.8231 365.962 58.3431 365.962 57.3324V35.5267C365.962 34.5413 366.496 34.036 367.54 34.036C368.584 34.036 369.118 34.5413 369.118 35.5267V43.6122H371.497ZM401.48 55.0078C402.402 55.0078 402.766 55.5131 402.766 56.5743C402.766 57.6356 402.402 58.1156 401.48 58.1156H381.305C380.407 58.1156 380.018 57.6356 380.018 56.5743C380.018 55.5131 380.407 55.0078 381.305 55.0078H389.826V51.0408C389.826 50.0554 390.336 49.6006 391.404 49.6006C392.473 49.6006 392.983 50.0554 392.983 51.0408V55.0078H401.504H401.48ZM383.587 48.2867C382.082 48.2867 381.645 47.8066 381.645 46.2148V36.1079C381.645 35.0972 382.155 34.6171 383.223 34.6171C384.291 34.6171 384.801 35.0972 384.801 36.1079V45.1788H400.072C400.994 45.1788 401.358 45.6589 401.358 46.7454C401.358 47.8319 400.994 48.2867 400.072 48.2867H383.587ZM415.245 55.033C416.143 55.033 416.532 55.5131 416.532 56.5238C416.532 57.585 416.143 58.0651 415.245 58.0651H406.845C405.85 58.0651 405.388 57.585 405.388 56.5238V46.2148C405.388 45.1535 405.85 44.6735 406.845 44.6735H412.502V37.7755H406.675C405.753 37.7755 405.388 37.2954 405.388 36.2847C405.388 35.2235 405.753 34.7434 406.675 34.7434H414.104C415.148 34.7434 415.609 35.2488 415.609 36.31V46.0632C415.609 47.1244 415.148 47.6045 414.153 47.6045H408.496V55.033H415.221H415.245ZM426 35.5267V57.3324C426 58.3431 425.514 58.8231 424.471 58.8231C423.427 58.8231 422.917 58.3431 422.917 57.3324V46.7201H421.144V57.2313C421.144 58.242 420.61 58.7221 419.591 58.7221C418.571 58.7221 418.037 58.242 418.037 57.2313V35.6783C418.037 34.6676 418.595 34.1876 419.591 34.1876C420.586 34.1876 421.144 34.6676 421.144 35.6783V43.5364H422.917V35.5267C422.917 34.5413 423.451 34.036 424.471 34.036C425.49 34.036 426 34.5413 426 35.5267Z" fill="#6E411D"/>
<defs>
<clipPath id="clip0_228_635">
<rect width="195" height="226" fill="white" transform="translate(693 23)"/>
</clipPath>
</defs>
</svg>
