<svg width="322" height="62" viewBox="0 0 322 62" fill="none" xmlns="http://www.w3.org/2000/svg">
<path d="M135.592 16.214V18.866C135.592 20.2873 135.401 21.6307 135.02 22.896C134.656 24.144 134.067 25.262 133.252 26.25C132.455 27.238 131.441 27.992 130.21 28.512L128.39 25.834C129.43 25.366 130.279 24.768 130.938 24.04C131.614 23.2947 132.108 22.48 132.42 21.596C132.732 20.712 132.888 19.802 132.888 18.866V16.214H135.592ZM136.242 16.214V18.866C136.242 19.75 136.389 20.5907 136.684 21.388C136.996 22.1853 137.473 22.9133 138.114 23.572C138.755 24.2307 139.57 24.7507 140.558 25.132L138.712 27.758C136.961 27.0647 135.661 25.9293 134.812 24.352C133.963 22.7747 133.538 20.946 133.538 18.866V16.214H136.242ZM148.722 14.836V29.11H145.42V14.836H148.722ZM146.356 20.478V23.26H142.69V20.478H146.356ZM143.704 15.278V28.382H140.48V15.278H143.704ZM140.74 29.422C142.369 29.422 143.791 29.604 145.004 29.968C146.217 30.3147 147.153 30.8173 147.812 31.476C148.488 32.1347 148.826 32.9147 148.826 33.816C148.826 34.7347 148.488 35.5233 147.812 36.182C147.153 36.8407 146.217 37.3433 145.004 37.69C143.791 38.054 142.369 38.236 140.74 38.236C139.111 38.236 137.689 38.054 136.476 37.69C135.263 37.3433 134.327 36.8407 133.668 36.182C133.009 35.5233 132.68 34.7347 132.68 33.816C132.68 32.932 133.009 32.1607 133.668 31.502C134.327 30.826 135.263 30.3147 136.476 29.968C137.689 29.604 139.111 29.422 140.74 29.422ZM140.74 32.022C139.232 32.022 138.079 32.178 137.282 32.49C136.502 32.7847 136.112 33.2267 136.112 33.816C136.112 34.4227 136.502 34.882 137.282 35.194C138.079 35.4887 139.232 35.636 140.74 35.636C142.231 35.636 143.366 35.4887 144.146 35.194C144.943 34.882 145.342 34.4227 145.342 33.816C145.342 33.2267 144.952 32.7847 144.172 32.49C143.392 32.178 142.248 32.022 140.74 32.022ZM158.057 15.486C159.253 15.486 160.327 15.72 161.281 16.188C162.234 16.6387 162.979 17.2713 163.517 18.086C164.071 18.9007 164.349 19.8193 164.349 20.842C164.349 21.8647 164.071 22.7833 163.517 23.598C162.979 24.4127 162.234 25.0453 161.281 25.496C160.327 25.9467 159.253 26.172 158.057 26.172C156.895 26.172 155.838 25.9467 154.885 25.496C153.931 25.0453 153.177 24.4127 152.623 23.598C152.085 22.7833 151.817 21.8733 151.817 20.868C151.817 19.828 152.085 18.9007 152.623 18.086C153.177 17.2713 153.931 16.6387 154.885 16.188C155.838 15.72 156.895 15.486 158.057 15.486ZM158.057 18.268C157.502 18.268 156.999 18.372 156.549 18.58C156.115 18.7707 155.769 19.0653 155.509 19.464C155.266 19.8453 155.145 20.3047 155.145 20.842C155.145 21.3793 155.266 21.8387 155.509 22.22C155.769 22.6013 156.115 22.896 156.549 23.104C156.999 23.2947 157.502 23.39 158.057 23.39C158.629 23.39 159.131 23.2947 159.565 23.104C160.015 22.896 160.362 22.6013 160.605 22.22C160.865 21.8387 160.995 21.3793 160.995 20.842C160.995 20.3047 160.865 19.8453 160.605 19.464C160.362 19.0653 160.015 18.7707 159.565 18.58C159.131 18.372 158.629 18.268 158.057 18.268ZM170.953 14.836V26.51H167.495V14.836H170.953ZM170.953 27.446V33.92H158.759V36.702H155.353V31.424H167.521V30.098H155.327V27.446H170.953ZM171.525 35.298V37.976H155.353V35.298H171.525ZM185.981 15.408V16.136C185.981 17.592 185.609 18.944 184.863 20.192C184.135 21.44 183.061 22.4973 181.639 23.364C180.235 24.2133 178.545 24.7853 176.569 25.08L175.269 22.376C176.951 22.1333 178.372 21.6913 179.533 21.05C180.695 20.4087 181.561 19.6633 182.133 18.814C182.723 17.9473 183.017 17.0547 183.017 16.136V15.408H185.981ZM186.579 15.408V16.136C186.579 17.0373 186.865 17.9127 187.437 18.762C188.027 19.6113 188.902 20.3567 190.063 20.998C191.225 21.6393 192.646 22.0727 194.327 22.298L193.027 25.002C191.069 24.7073 189.379 24.1353 187.957 23.286C186.536 22.4193 185.453 21.3707 184.707 20.14C183.979 18.9093 183.615 17.5747 183.615 16.136V15.408H186.579ZM195.393 26.302V29.032H174.203V26.302H195.393ZM186.839 28.018V32.932H183.355V28.018H186.839ZM193.053 35.064V37.846H176.647V35.064H193.053ZM180.105 30.956V35.922H176.647V30.956H180.105ZM207.536 15.928C209.165 15.928 210.647 16.214 211.982 16.786C213.316 17.358 214.365 18.164 215.128 19.204C215.908 20.2267 216.298 21.3967 216.298 22.714C216.298 24.0487 215.908 25.236 215.128 26.276C214.365 27.2987 213.316 28.096 211.982 28.668C210.647 29.2227 209.165 29.5 207.536 29.5C205.889 29.5 204.398 29.2227 203.064 28.668C201.729 28.1133 200.68 27.3247 199.918 26.302C199.155 25.262 198.774 24.0747 198.774 22.74C198.774 21.4053 199.155 20.2267 199.918 19.204C200.68 18.164 201.729 17.358 203.064 16.786C204.398 16.214 205.889 15.928 207.536 15.928ZM207.51 18.736C206.47 18.736 205.542 18.9007 204.728 19.23C203.93 19.542 203.298 20.0013 202.83 20.608C202.379 21.1973 202.154 21.908 202.154 22.74C202.154 23.5547 202.379 24.2567 202.83 24.846C203.298 25.4353 203.93 25.886 204.728 26.198C205.542 26.51 206.47 26.666 207.51 26.666C208.567 26.666 209.503 26.51 210.318 26.198C211.132 25.886 211.765 25.4353 212.216 24.846C212.666 24.2567 212.892 23.5547 212.892 22.74C212.892 21.908 212.666 21.1973 212.216 20.608C211.765 20.0013 211.132 19.542 210.318 19.23C209.503 18.9007 208.567 18.736 207.51 18.736ZM218.144 32.568V35.402H196.954V32.568H218.144ZM240.868 32.854V35.636H219.678V32.854H240.868ZM231.976 28.46V33.972H228.518V28.46H231.976ZM238.502 16.292V24.144H225.528V28.018H222.096V21.44H235.07V19.022H222.07V16.292H238.502ZM239.022 26.666V29.422H222.096V26.666H239.022ZM260.693 25.964V29.214H257.209V25.964H260.693ZM269.533 24.066V26.796H248.395V24.066H269.533ZM266.985 28.174V34.258H254.219V36.26H250.839V31.892H263.579V30.722H250.787V28.174H266.985ZM267.609 35.506V38.08H250.839V35.506H267.609ZM259.939 16.474V17.072C259.939 18.1987 259.575 19.2213 258.847 20.14C258.119 21.0413 257.036 21.7953 255.597 22.402C254.159 22.9913 252.408 23.3553 250.345 23.494L249.305 20.894C251.004 20.7727 252.425 20.5213 253.569 20.14C254.713 19.7413 255.554 19.2733 256.091 18.736C256.629 18.1813 256.897 17.6267 256.897 17.072V16.474H259.939ZM261.031 16.474V17.072C261.031 17.644 261.3 18.1987 261.837 18.736C262.375 19.2733 263.207 19.7413 264.333 20.14C265.477 20.5213 266.907 20.7727 268.623 20.894L267.583 23.494C265.521 23.3553 263.77 22.9913 262.331 22.402C260.893 21.8127 259.809 21.0587 259.081 20.14C258.371 19.2213 258.015 18.1987 258.015 17.072V16.474H261.031ZM267.661 15.434V18.112H250.293V15.434H267.661ZM295.026 22.09V24.872H288.89V22.09H295.026ZM285.276 16.578V19.932C285.276 21.9773 285.042 23.8927 284.574 25.678C284.123 27.4633 283.421 29.0407 282.468 30.41C281.515 31.7793 280.319 32.8193 278.88 33.53L276.722 30.748C278.005 30.1587 279.079 29.3007 279.946 28.174C280.813 27.0473 281.445 25.782 281.844 24.378C282.26 22.9567 282.468 21.4747 282.468 19.932V16.578H285.276ZM285.952 16.578V19.932C285.952 21.4747 286.143 22.9307 286.524 24.3C286.905 25.6693 287.503 26.8913 288.318 27.966C289.15 29.0233 290.199 29.8293 291.464 30.384L289.41 33.14C287.971 32.4467 286.784 31.45 285.848 30.15C284.929 28.8327 284.253 27.3073 283.82 25.574C283.387 23.8407 283.17 21.96 283.17 19.932V16.578H285.952ZM296.742 14.784V38.262H293.31V14.784H296.742ZM319.337 14.81V38.21H315.853V14.81H319.337ZM312.395 17.202C312.395 19.75 312.065 22.0553 311.407 24.118C310.748 26.1633 309.63 28.044 308.053 29.76C306.475 31.476 304.343 32.984 301.657 34.284L299.863 31.554C302.081 30.4967 303.849 29.3093 305.167 27.992C306.501 26.6747 307.463 25.1927 308.053 23.546C308.642 21.8993 308.937 20.0013 308.937 17.852V17.202H312.395ZM310.575 17.202V19.958H301.111V17.202H310.575Z" fill="#4B75D0"/>
<ellipse cx="89" cy="28" rx="32" ry="28" fill="#6A8EC9"/>
<path fill-rule="evenodd" clip-rule="evenodd" d="M32 56C49.6731 56 64 43.464 64 28C64 12.536 49.6731 0 32 0C14.525 0 0.32162 12.2566 0.00538535 27.4811C0.000900436 27.5197 -0.000837609 27.5593 0.000385797 27.5995C0.00101029 27.62 0.00164748 27.6405 0.00229735 27.661C0.000767216 27.7738 0 27.8868 0 28C0 29.6321 0.15959 31.2316 0.465859 32.7872C2.2288 44.1736 8.50485 50.0651 14.9995 54.8236C18.7041 57.5378 22.3764 59.3248 25.1207 60.4335C26.4939 60.9883 27.6373 61.3742 28.44 61.6221C28.8414 61.7461 29.1578 61.8356 29.3753 61.8945C29.484 61.9239 29.5681 61.9457 29.6257 61.9603L29.6921 61.9768L29.71 61.9812L29.7175 61.983C30.0264 62.0562 30.3405 61.8859 30.4739 61.5728C30.6073 61.2598 30.5244 60.8874 30.2743 60.6763C28.2881 58.9991 26.9261 57.2253 25.9989 55.5084C27.9428 55.8311 29.9488 56 32 56Z" fill="#F5B1A0"/>
<path d="M28.592 35.6402C28.72 35.6722 28.848 35.6402 28.976 35.6402C29.68 35.7042 30.32 35.8642 30.896 36.3762C31.184 36.6642 31.344 37.0482 31.344 37.4962C31.344 37.9443 31.184 38.5843 30.928 38.8723C30.256 39.5443 28.688 39.4803 28.624 39.4803H10.704C10.512 39.4803 10.288 39.5123 10.064 39.5123C9.168 39.5443 8.016 39.6083 7.312 39.0003C6.896 38.6163 6.64 38.1363 6.64 37.6242C6.64 36.9842 7.056 36.1842 7.696 35.9282C8.56 35.6082 9.488 35.6722 10.416 35.6402H10.576C12.4 35.6082 14.384 35.6082 16.304 35.6402L16.272 31.3202C15.76 31.3202 15.248 31.2882 14.736 31.2562C13.648 31.1922 12.24 31.2882 11.184 31.2242C10.096 31.1602 9.008 30.7762 8.816 29.5922C8.432 27.1602 8.56 25.4322 8.56 22.9682V20.7282C8.56 19.6082 8.368 17.8162 9.552 17.2082C10.832 16.5682 12.88 16.5362 14.288 16.5362H24.592C24.656 16.5362 26.896 16.6322 27.76 17.1442C28.816 17.7522 28.848 20.1202 28.848 20.2162V26.3922C28.848 27.3842 28.848 28.3442 28.688 29.3362C28.592 29.9442 28.464 30.6162 27.856 30.9042C27.152 31.2562 25.776 31.1922 25.008 31.1602C24.112 31.1602 23.216 31.2562 22.32 31.2562H21.424H20.752L20.816 35.6402C23.184 35.6402 24.208 35.5762 26.416 35.6402C27.184 35.6722 27.92 35.5762 28.592 35.6402ZM15.344 27.2882L22.608 27.2242C22.992 27.1602 23.376 27.2562 23.792 27.0962C24.336 26.8722 24.176 26.0722 24.176 25.5922V22.9042C24.176 21.4963 24.432 21.0482 22.256 20.9842H15.984C15.952 20.9842 14.544 21.0162 13.872 21.1122C13.328 21.2083 12.944 21.6242 12.944 22.1682L13.008 26.4562C13.168 27.4802 14.608 27.2882 15.344 27.2882ZM35.0728 40.9843C35.0408 40.9843 35.0088 40.9523 34.9768 40.9203C34.5608 40.6003 34.4328 39.8963 34.4328 39.4163C34.4008 38.6483 34.3048 37.8803 34.3048 37.1442C34.3048 36.0562 34.2728 35.2242 34.4648 34.1682C34.5928 33.4962 34.8488 33.1122 35.4888 32.8562C36.0648 32.6322 36.6727 32.5042 37.2808 32.5042H43.0728L43.1048 30.9042C41.1528 30.9042 36.3528 30.8402 34.5608 30.7122C33.8888 30.6482 33.5688 30.6162 33.0247 30.1042C32.7368 29.8482 32.6088 29.4002 32.6088 28.9522C32.6088 28.5362 32.7688 28.1202 33.0247 27.8642C33.6648 27.1922 35.2328 27.2242 35.2968 27.2242H53.6008C54.2408 27.2242 54.8808 27.2242 55.4888 27.2562C56.0648 27.2882 56.7048 27.3842 57.1528 27.8002C57.6008 28.1522 57.6008 28.5682 57.6008 29.0802C57.6008 29.7202 57.2168 30.2322 56.5768 30.4562C55.7128 30.7762 54.6568 30.8082 53.7608 30.8402C51.6488 30.9042 49.6007 30.9682 47.4568 30.9682L47.4248 32.5042H52.3528C53.1528 32.5362 54.0488 32.5682 54.8168 32.9202C55.6488 33.2722 55.8728 33.9122 55.9368 34.7442C56.0008 36.2162 56.0648 38.5843 55.6488 40.1203C55.5208 40.6003 55.4248 40.9843 54.9128 41.1443C54.4648 41.3043 53.9208 41.3363 53.4728 41.3363L36.8008 41.2723C36.2568 41.2403 35.5528 41.3043 35.0728 40.9843ZM37.8888 25.5922C36.8328 25.6242 35.0088 25.4642 34.6888 24.3122C34.4648 23.3522 34.3688 23.4802 34.3688 22.4882V19.6082C34.3368 19.6722 34.2728 18.0722 34.8168 17.2082C35.3608 16.3122 37.3128 16.2802 37.5368 16.2802H51.6168C52.5128 16.2802 53.5048 16.2162 54.3688 16.5362C55.0728 16.8242 55.2968 17.5922 55.2648 18.3602C55.2008 19.0642 54.7208 19.6402 53.9848 19.8322C53.6008 19.9282 52.9928 19.9602 52.1928 19.9602C51.6488 19.9602 51.2008 19.9282 51.2008 19.9282H39.8728C39.6488 19.8962 39.1688 19.8962 38.9448 20.0243C38.7208 20.1202 38.7528 21.6242 38.8488 21.8482C39.0088 22.1362 39.7128 22.1042 40.1608 22.0722C41.1848 22.0402 43.1048 22.0722 49.5368 22.0722H51.9048C52.9608 22.0722 53.8568 22.0082 54.5608 22.3602C54.9768 22.5522 55.2968 22.9682 55.4248 23.4482C55.5208 23.9602 55.3928 24.5042 55.1048 24.8882C54.4328 25.7202 53.6328 25.5922 52.7048 25.6242C51.8408 25.6562 46.9448 25.6882 45.5688 25.6882C44.1288 25.6882 39.3288 25.6562 37.8888 25.5922ZM38.1128 37.3362C38.1128 37.5282 38.1128 37.7843 38.2408 37.8803C38.4008 38.0403 39.1368 37.9443 39.1368 37.9443H49.1528C49.1528 37.9443 50.6568 38.0723 51.4568 37.9763C51.8728 37.9443 51.9048 37.7203 51.9368 37.3362C51.9688 36.9842 52.0328 36.4722 51.7768 36.1522C51.4888 35.8002 50.8488 35.8642 50.4328 35.8962H41.5368C40.6088 35.8322 39.7128 35.8642 38.7848 35.8962C38.4328 35.8962 38.2728 35.8322 38.1768 36.2162C38.1128 36.5042 38.1128 36.7922 38.1128 37.0482C38.1448 37.1122 38.1128 37.2082 38.1128 37.3362Z" fill="white"/>
<path d="M67.296 26.4562C68.16 26.4562 69.216 26.5202 70.432 26.5522C70.432 26.1042 70.432 25.6882 70.464 25.2722C70.432 25.2722 70.4 25.2722 70.368 25.2402C68.224 24.3762 66.528 23.4482 66.528 20.8882C66.528 20.2802 66.592 19.7362 66.752 19.2562C65.728 19.2562 64.896 18.4882 64.896 17.5282C64.896 16.6002 65.76 15.8322 66.784 15.8322H71.008V14.7762C71.008 13.9762 71.84 13.3042 72.864 13.3042C73.888 13.3042 74.752 13.9762 74.752 14.7762V15.8322H79.168C80.224 15.8322 81.088 16.6002 81.088 17.5282C81.088 18.4882 80.256 19.2242 79.232 19.2562C79.36 19.7362 79.456 20.2802 79.456 20.8882C79.456 22.6802 78.944 23.4482 77.472 24.5042C76.736 25.0482 75.744 25.3682 74.688 25.4962V26.4882V26.6482C76.288 26.6482 76.032 26.5522 78.304 26.6162C79.104 26.6162 79.872 26.5522 80.608 26.8722C81.152 27.1282 81.504 27.7362 81.504 28.4082C81.504 28.9522 81.28 29.1442 80.928 29.5282C80.32 30.1682 79.36 30.1362 78.592 30.0722H67.296C67.232 30.0722 65.888 30.1042 65.376 29.3682C65.12 29.1122 64.992 28.8562 64.992 28.4082C64.992 27.9602 65.152 27.6402 65.376 27.3522C65.856 26.8082 66.752 26.5202 67.296 26.4562ZM86.56 38.8083C87.232 38.8723 87.808 39.0963 88 39.7682C88.256 40.5363 87.968 41.0803 87.168 41.4003C86.656 41.5923 86.112 41.6243 85.664 41.6243H70.784C69.92 41.6243 68.992 41.5923 68.064 41.5603C67.168 41.5283 66.528 40.8563 66.432 39.8963L66.336 37.6562C66.304 37.2082 66.272 36.4402 66.656 36.0242C67.232 35.3842 68.384 35.2882 69.312 35.2882C70.528 35.2882 74.592 35.3202 84.352 35.3202V34.1682H68.608C68.192 34.1682 67.84 34.1682 67.52 34.1042C67.136 34.0082 66.816 34.0082 66.624 33.6562C66.336 33.2082 66.24 32.7922 66.4 32.2802C66.624 31.6082 67.584 31.5122 68.064 31.4482C68.384 31.3842 68.704 31.3522 69.056 31.3522C70.976 31.3522 73.216 31.3842 84.672 31.3842C86.816 31.3842 88.032 32.0242 88.032 33.4962V35.7682C88.032 36.3442 87.776 36.9842 87.104 37.3682C86.56 37.6883 85.984 37.6562 85.44 37.6562H70.272V38.8083H86.56ZM83.584 27.6082V19.3842C83.552 18.4242 83.584 16.8562 84.128 16.3122C84.608 15.8962 85.088 15.8322 85.664 15.8322C86.368 15.8322 87.008 16.2802 87.264 16.9202C87.616 17.8162 87.584 18.7762 87.616 19.7042C87.616 20.7603 87.616 21.5922 87.648 22.3602C88.576 22.3602 89.472 22.3922 90.016 22.4242C91.136 22.4882 91.904 24.1842 91.232 25.0482C90.624 25.9122 89.12 26.0402 87.68 25.9762V27.2562C87.68 28.1522 87.52 28.5362 87.36 29.0162C87.328 29.1442 87.264 29.2722 87.2 29.4323C87.072 29.6882 86.88 29.9442 86.624 30.1042C86.176 30.3922 85.6 30.4562 85.056 30.3602C84.8 30.2962 84.512 30.1682 84.288 29.9762C83.552 29.2722 83.584 27.6722 83.584 27.6082ZM72.736 22.2962C73.952 22.3602 75.616 22.3602 75.616 20.8882C75.616 19.7042 74.976 19.3522 74.144 19.2562H71.52C70.752 19.3842 70.176 19.7682 70.176 20.8882C70.24 22.2962 71.488 22.3602 72.736 22.2962ZM112.692 28.0562C113.396 28.0882 114.196 28.2162 114.804 28.6962C115.092 28.9202 115.252 29.3042 115.252 29.6882C115.252 30.1042 115.092 30.6482 114.836 30.8722C114.164 31.5122 112.5 31.4482 112.436 31.4482L95.3802 31.4802C94.4203 31.5122 93.2363 31.5762 92.5323 31.0002C92.0523 30.6482 91.7963 30.2962 91.7963 29.8162C91.7963 29.2402 92.2443 28.5042 92.9163 28.2802C93.8123 27.9922 94.7723 28.0882 95.7323 28.0562C97.8123 27.9922 98.4843 28.0562 100.628 28.0562V26.2322C98.8683 26.2002 97.0123 26.1682 96.2123 26.1362C95.1562 26.1682 93.3323 26.0082 93.0123 24.8562C92.7883 23.8962 92.6923 24.0242 92.6923 23.0322V19.6082C92.6603 19.6722 92.5963 18.0722 93.1403 17.2082C93.6843 16.3122 95.6363 16.2802 95.8602 16.2802H109.94C110.836 16.2802 111.828 16.2162 112.692 16.5362C113.396 16.8242 113.62 17.5922 113.588 18.3602C113.524 19.0642 113.044 19.6402 112.308 19.8322C111.924 19.9282 111.316 19.9602 110.516 19.9602C109.972 19.9602 109.524 19.9282 109.524 19.9282H98.1963C97.9723 19.8962 97.4923 19.8962 97.2683 20.0243C97.0443 20.1202 97.0763 22.1682 97.1723 22.3922C97.3323 22.6802 98.0363 22.6482 98.4843 22.6162C99.5083 22.5842 101.428 22.6162 107.86 22.6162H110.228C111.284 22.6162 112.18 22.5522 112.884 22.9042C113.3 23.0962 113.62 23.5122 113.748 23.9922C113.844 24.5042 113.716 25.0482 113.428 25.4322C112.756 26.2642 111.956 26.1362 111.028 26.1682C110.324 26.2002 107.092 26.2322 105.108 26.2322C105.14 26.8402 105.172 27.5442 105.172 28.0562C107.54 28.0562 110.868 27.9602 112.692 28.0562ZM92.8203 37.4002C92.8203 33.7842 97.5243 32.9202 103.284 32.9202C109.076 32.9202 113.78 33.3682 113.78 37.4002C113.78 41.3683 109.076 41.8802 103.284 41.8802C97.5243 41.8802 92.8203 41.3683 92.8203 37.4002ZM109.556 37.4002C109.556 36.0242 106.228 36.0562 103.284 36.0562C100.372 36.0562 97.2363 36.0242 97.2363 37.4002C97.2363 38.6163 100.372 38.7443 103.284 38.7443C106.228 38.7443 109.556 39.0003 109.556 37.4002Z" fill="#F9D2DB"/>
</svg>
