<svg width="150" height="47" viewBox="0 0 150 47" fill="none" xmlns="http://www.w3.org/2000/svg">
<path d="M4.968 31.636C4.152 28.852 3.744 26.308 3.744 24.004C3.744 21.7 4.152 19.168 4.968 16.408C5.808 13.624 6.864 11.212 8.136 9.172H11.808C10.344 11.188 9.144 13.576 8.208 16.336C7.296 19.096 6.84 21.652 6.84 24.004C6.84 26.356 7.296 28.912 8.208 31.672C9.144 34.432 10.344 36.82 11.808 38.836H8.136C6.864 36.796 5.808 34.396 4.968 31.636Z" fill="#727171"/>
<circle cx="42.5" cy="23.5" r="14" stroke="#727171" stroke-width="5"/>
<path d="M75.076 38.944H71.656L79.324 9.28H82.708L75.076 38.944Z" fill="#727171"/>
<path d="M97 10L124 37M97 37L124 10" stroke="#E22F61" stroke-width="5"/>
<path d="M144.144 16.408C144.96 19.168 145.368 21.7 145.368 24.004C145.368 26.308 144.96 28.852 144.144 31.636C143.328 34.396 142.284 36.796 141.012 38.836H137.34C138.78 36.844 139.956 34.468 140.868 31.708C141.804 28.924 142.272 26.356 142.272 24.004C142.272 21.652 141.804 19.096 140.868 16.336C139.956 13.552 138.78 11.164 137.34 9.172H141.012C142.284 11.212 143.328 13.624 144.144 16.408Z" fill="#727171"/>
</svg>
