<svg width="655" height="179" viewBox="0 0 655 179" fill="none" xmlns="http://www.w3.org/2000/svg">
<mask id="mask0_392_21" style="mask-type:luminance" maskUnits="userSpaceOnUse" x="0" y="0" width="166" height="179">
<path d="M165.881 0H0V178.117H165.881V0Z" fill="white"/>
</mask>
<g mask="url(#mask0_392_21)">
<path d="M141.191 129.918V148.853C141.191 149.462 141.048 150.072 140.834 150.682C138.222 161.655 127.595 164.452 119.938 163.914C111.887 163.376 111.6 167.249 104.909 169.508C98.2183 171.731 93.2451 168.109 85.9815 166.711C78.7537 165.312 77.3582 169.759 67.089 170.046C56.7841 170.333 55.1382 165.599 50.1288 164.739C45.1195 163.914 40.11 167.249 32.596 162.515C25.082 157.782 24.9746 148.817 24.9746 148.817V129.883H141.156L141.191 129.918Z" fill="#DDD2E8"/>
<path d="M141.191 129.918V148.853C141.191 149.462 141.048 150.072 140.834 150.682C138.222 161.655 127.595 164.452 119.938 163.914C111.887 163.376 111.6 167.249 104.909 169.508C98.2183 171.731 93.2451 168.109 85.9815 166.711C78.7537 165.312 77.3582 169.759 67.089 170.046C56.7841 170.333 55.1382 165.599 50.1288 164.739C45.1195 163.914 40.11 167.249 32.596 162.515C25.082 157.782 24.9746 148.817 24.9746 148.817V129.883H141.156L141.191 129.918Z" stroke="#3E3A39" stroke-width="1.793" stroke-linecap="round" stroke-linejoin="round"/>
<path d="M41.7907 117.578C42.6495 117.578 43.5443 117.399 44.3673 117.005C47.4445 115.57 48.804 111.913 47.3728 108.793C47.0866 108.147 46.9436 107.609 47.0509 107.394C47.3729 106.677 48.9472 105.709 50.0922 105.314C53.3125 104.238 55.1015 100.796 54.0638 97.5685C53.0262 94.3411 49.6269 92.5481 46.4066 93.5522C45.6195 93.8032 38.6065 96.0981 35.8156 102.374C34.7064 104.884 33.8476 108.936 36.2091 113.992C37.2468 116.251 39.5008 117.578 41.8266 117.578" fill="#3E3A39"/>
</g>
<mask id="mask1_392_21" style="mask-type:luminance" maskUnits="userSpaceOnUse" x="0" y="0" width="166" height="179">
<path d="M165.881 0H0V178.117H165.881V0Z" fill="white"/>
</mask>
<g mask="url(#mask1_392_21)">
<path d="M27.6216 54.1113C34.2053 50.7763 36.9603 42.4926 33.7042 35.6792C30.4839 28.8658 22.4332 26.0328 15.8137 29.3678C9.22995 32.7028 6.47498 40.9865 9.73106 47.7999C12.9871 54.6133 21.0021 57.4463 27.6216 54.1113Z" fill="#3E3A39"/>
<path d="M76.3201 35.2826C82.3313 32.2345 84.872 24.6322 81.9022 18.4284C78.9323 12.1888 71.597 9.60678 65.55 12.6549C59.5388 15.703 56.9985 23.3052 59.9684 29.509C62.9382 35.7128 70.2731 38.3307 76.3201 35.2826Z" fill="#3E3A39"/>
<path d="M87.4122 100.834C90.3463 100.834 93.7458 100.404 97.1092 98.9695C98.1468 98.5392 101.224 97.1767 108.487 89.2875C110.634 87.1001 110.885 83.6216 108.952 81.1472C106.841 78.4577 102.977 77.9916 100.294 80.1074C100.043 80.3225 99.6497 80.6811 99.3992 80.9321C95.1055 85.6297 92.7439 87.3869 92.2072 87.6379C88.9153 89.0723 84.5141 88.3552 83.0828 87.9607C79.8268 87.0642 76.3918 88.9289 75.4973 92.2281C74.567 95.4913 76.4277 98.8978 79.6838 99.866C80.2205 100.009 83.369 100.87 87.4839 100.87" fill="#3E3A39"/>
<path d="M84.3347 99.651C83.3686 97.1408 82.1879 94.6665 80.8282 92.2638C75.783 84.4822 64.8342 80.466 57.7854 81.3984C50.6292 82.4025 43.8304 89.6103 44.0093 97.5354C44.1524 100.297 44.3314 103.058 44.5103 105.819C53.9923 106.465 69.414 106.142 84.3705 99.651" fill="#3E3A39"/>
<path d="M44.4746 105.82C44.6535 110.23 44.7966 114.641 44.904 119.052C45.9774 130.061 54.6007 131.89 65.0845 130.527C75.1748 129.236 83.0466 128.16 89.1651 118.12C93.7809 110.517 87.0899 101.373 84.3348 99.6875C69.3783 106.142 53.9566 106.501 44.4746 105.856" fill="white"/>
<path d="M44.4746 105.82C44.6535 110.23 44.7966 114.641 44.904 119.052C45.9774 130.061 54.6007 131.89 65.0845 130.527C75.1748 129.236 83.0466 128.16 89.1651 118.12C93.7809 110.517 87.0899 101.373 84.3348 99.6875C69.3783 106.142 53.9566 106.501 44.4746 105.856V105.82Z" stroke="#3E3A39" stroke-width="1.793" stroke-linecap="round" stroke-linejoin="round"/>
<path d="M24.0077 79.8559C32.3447 97.3556 54.7794 103.631 74.1012 93.8771C93.423 84.0873 102.368 61.9618 94.0315 44.4621C85.6945 26.9624 63.2598 20.6868 43.938 30.4407C24.6162 40.2305 15.6707 62.3562 24.0077 79.8559Z" fill="white"/>
<path d="M24.0077 79.8559C32.3447 97.3556 54.7794 103.631 74.1012 93.8771C93.423 84.0873 102.368 61.9618 94.0315 44.4621C85.6945 26.9624 63.2598 20.6868 43.938 30.4407C24.6162 40.2305 15.6707 62.3562 24.0077 79.8559Z" stroke="#3E3A39" stroke-width="1.793" stroke-linecap="round" stroke-linejoin="round"/>
<path d="M69.2721 60.7116C74.353 65.0148 81.4378 64.764 85.0875 60.1739C88.7371 55.5838 87.556 48.3757 82.4393 44.0725C77.3584 39.7693 70.274 40.0205 66.6601 44.6105C63.0105 49.2006 64.1912 56.4084 69.3079 60.7116" fill="#3E3A39"/>
<path d="M41.8262 67.6249C42.5419 69.0952 44.2596 69.7407 45.6909 68.9876C47.1221 68.2704 47.7304 66.4774 47.0148 65.0072C46.2991 63.5369 44.5814 62.8914 43.1501 63.6445C41.7189 64.3617 41.1106 66.1547 41.8262 67.6608" fill="white"/>
<path d="M69.7001 55.3994C71.9185 58.2682 75.6755 58.9854 78.1444 56.9773C80.6133 54.9691 80.7922 51.0244 78.5737 48.1556C76.3553 45.2868 72.5984 44.5696 70.1295 46.5778C67.6964 48.5859 67.4817 52.5306 69.7001 55.3994Z" fill="white"/>
<path d="M71.0963 53.4999C72.134 55.6874 74.7101 56.5839 76.8212 55.5081C78.9323 54.4323 79.8269 51.7788 78.7535 49.6272C77.7159 47.4398 75.1397 46.5433 73.0286 47.6191C70.9175 48.6949 70.0229 51.3483 71.0963 53.4999Z" fill="#3E3A39"/>
<path d="M54.9589 67.9489C55.1378 74.7264 50.6291 80.3565 44.8684 80.4999C39.1076 80.6433 34.313 75.3001 34.1341 68.5226C33.9551 61.745 38.4638 56.115 44.2246 55.9716C49.9853 55.8281 54.78 61.2072 54.9589 67.9489Z" fill="#3E3A39"/>
<path d="M52.6692 63.1792C54.2436 66.4783 53.2059 70.3154 50.3792 71.7498C47.5525 73.1842 43.9744 71.6781 42.4001 68.379C40.8257 65.0798 41.8634 61.2428 44.6901 59.8084C47.5168 58.374 51.0948 59.8801 52.6692 63.1792Z" fill="white"/>
<path d="M52.2749 62.6738C53.3484 64.9329 52.4536 67.6224 50.271 68.7341C48.0883 69.8458 45.4767 68.9136 44.4033 66.6544C43.3298 64.4311 44.2241 61.7057 46.4068 60.594C48.5894 59.4824 51.2015 60.4146 52.2749 62.6738Z" fill="#3E3A39"/>
<path d="M66.6575 77.6689L64.0098 66.875" stroke="#3E3A39" stroke-width="1.2551" stroke-miterlimit="10"/>
<path d="M59.7522 68.3044C60.6467 70.456 63.223 71.3884 65.5487 70.3484C67.8745 69.3085 68.984 66.7625 68.0895 64.6109C67.195 62.4593 64.6187 61.5628 62.293 62.5669C59.9672 63.5709 58.8577 66.1528 59.7522 68.3044Z" fill="#3E3A39"/>
<path d="M43.6878 45.6142C42.4713 43.0681 39.7163 41.8846 37.5694 42.9963C35.3868 44.1079 34.6354 47.0486 35.8162 49.5946" stroke="#3E3A39" stroke-width="1.2551" stroke-miterlimit="10"/>
<path d="M64.1546 35.2861C62.9381 32.74 60.1831 31.5565 58.0362 32.6682C55.8536 33.7798 55.1022 36.7204 56.283 39.2665" stroke="#3E3A39" stroke-width="1.2551" stroke-miterlimit="10"/>
<path d="M73.135 73.8716C73.135 73.8716 68.3761 75.1986 57.4629 78.0674C57.4629 78.0674 61.363 84.9882 67.2311 83.3028C73.779 81.4381 73.135 73.8359 73.135 73.8359" fill="#F6BDC5"/>
<path d="M73.135 73.8716C73.135 73.8716 68.3761 75.1986 57.4629 78.0674C57.4629 78.0674 61.363 84.9882 67.2311 83.3028C73.779 81.4381 73.135 73.8359 73.135 73.8359V73.8716Z" stroke="#3E3A39" stroke-width="1.793" stroke-miterlimit="10"/>
<path d="M25.0098 129.916C25.0098 138.988 51.0226 146.34 83.1182 146.34C115.214 146.34 141.227 138.988 141.227 129.916C141.227 120.843 115.214 113.492 83.1182 113.492C51.0226 113.492 25.0098 120.843 25.0098 129.916Z" fill="#DDD2E8"/>
<path d="M25.0098 129.916C25.0098 138.988 51.0226 146.34 83.1182 146.34C115.214 146.34 141.227 138.988 141.227 129.916C141.227 120.843 115.214 113.492 83.1182 113.492C51.0226 113.492 25.0098 120.843 25.0098 129.916Z" stroke="#3E3A39" stroke-width="1.793" stroke-linecap="round" stroke-linejoin="round"/>
<path d="M94.1758 82.153C94.1758 89.4326 105.948 95.3135 120.475 95.3135C135.002 95.3135 146.774 89.4326 146.774 82.153C146.774 74.8734 135.002 68.9922 120.475 68.9922C105.948 68.9922 94.1758 74.8734 94.1758 82.153Z" fill="white"/>
<path d="M94.1758 82.153C94.1758 89.4326 105.948 95.3135 120.475 95.3135C135.002 95.3135 146.774 89.4326 146.774 82.153C146.774 74.8734 135.002 68.9922 120.475 68.9922C105.948 68.9922 94.1758 74.8734 94.1758 82.153Z" stroke="#3E3A39" stroke-width="1.793" stroke-linecap="round" stroke-linejoin="round"/>
<path d="M102.797 82.1526C102.797 85.9179 110.705 88.93 120.437 88.93C130.17 88.93 138.077 85.882 138.077 82.1526C138.077 78.4232 130.17 75.375 120.437 75.375C110.705 75.375 102.797 78.4232 102.797 82.1526Z" stroke="#A5DBF7" stroke-width="1.793" stroke-miterlimit="10"/>
<path d="M48.2678 120.84C50.8798 120.84 52.9192 120.195 53.5633 120.016C56.7836 118.904 58.5009 115.39 57.3917 112.162C56.2825 108.971 52.8478 107.249 49.6275 108.289C48.8403 108.54 47.7669 108.54 47.4807 108.361C47.4091 108.289 47.1945 107.967 47.0513 107.142C46.3715 103.807 43.0795 101.655 39.7519 102.372C36.4242 103.054 34.2775 106.353 34.9931 109.688C36.1023 115.103 39.1077 117.792 41.3977 119.119C43.7592 120.446 46.1925 120.876 48.2678 120.876" fill="#3E3A39"/>
<path d="M96.6789 90.9411C94.532 91.0128 92.743 89.2916 92.7072 87.14V87.0325C92.6357 84.8809 94.3529 83.0879 96.4998 83.0162C98.6467 82.9803 100.436 84.6657 100.471 86.8173V86.9607C100.543 89.1123 98.8257 90.9052 96.6789 90.9411Z" fill="#3E3A39"/>
<path d="M112.424 100.117C112.424 100.117 109.955 103.775 105.482 104.42" stroke="#D1D1D2" stroke-width="1.793" stroke-linecap="round" stroke-linejoin="round"/>
<path d="M117.896 102.445C117.896 102.445 113.924 108.255 107.627 108.398" stroke="#D1D1D2" stroke-width="1.793" stroke-linecap="round" stroke-linejoin="round"/>
</g>
<path d="M178.404 73.0126V100.553C178.404 111.777 187.493 120.886 198.692 120.886H633.342C644.541 120.886 653.63 111.777 653.63 100.553V55.8716C653.63 44.6474 644.541 35.5391 633.342 35.5391H198.692C187.493 35.5391 178.404 44.6474 178.404 55.8716V58.2383" stroke="#B39E4F" stroke-width="1.4344" stroke-linecap="round" stroke-linejoin="round"/>
<path d="M182.592 65.1953H159.764" stroke="#B39E4F" stroke-width="1.4344" stroke-linecap="round" stroke-linejoin="round"/>
</svg>
