<svg width="77" height="125" viewBox="0 0 77 125" fill="none" xmlns="http://www.w3.org/2000/svg">
<path d="M75.4945 10.427C75.4945 15.0888 59.0351 18.854 38.7472 18.854C18.4594 18.854 2 15.0888 2 10.427C2 5.76521 18.4594 2 38.7472 2C59.0351 2 75.4945 5.76521 75.4945 10.427Z" fill="#D1EAFA"/>
<path d="M75.4945 10.427C75.4945 15.0888 59.0351 18.854 38.7472 18.854C18.4594 18.854 2 15.0888 2 10.427C2 5.76521 18.4594 2 38.7472 2C59.0351 2 75.4945 5.76521 75.4945 10.427Z" stroke="#3E3A39" stroke-width="2.61778" stroke-linecap="round" stroke-linejoin="round"/>
<path d="M75.4945 10.4219L67.4795 112.336C67.4795 118.36 54.634 123.238 38.7472 123.238C22.8604 123.238 10.0149 118.36 10.0149 112.336L2 10.4219" fill="#D1EAFA"/>
<path d="M75.4945 10.4219L67.4795 112.336C67.4795 118.36 54.634 123.238 38.7472 123.238C22.8604 123.238 10.0149 118.36 10.0149 112.336L2 10.4219" stroke="#3E3A39" stroke-width="2.61778" stroke-linecap="round" stroke-linejoin="round"/>
<path d="M70.5923 35.7031L64.9745 104.518C64.9745 110.005 53.1667 114.452 38.6038 114.452C24.0409 114.452 12.2332 110.005 12.2332 104.518L6.90186 35.7031" fill="#883003"/>
<path d="M70.5923 35.7075C70.5923 39.7955 56.3514 43.0946 38.7471 43.0946C21.1428 43.0946 6.90186 39.7955 6.90186 35.7075C6.90186 31.6194 21.1428 28.3203 38.7471 28.3203C56.3514 28.3203 70.5923 31.6194 70.5923 35.7075Z" fill="#A94013"/>
<path d="M75.4945 10.427C75.4945 15.0888 59.0351 18.854 38.7472 18.854C18.4594 18.854 2 15.0888 2 10.427C2 5.76521 18.4594 2 38.7472 2C59.0351 2 75.4945 5.76521 75.4945 10.427Z" fill="#D1EAFA"/>
<path d="M75.4945 10.427C75.4945 15.0888 59.0351 18.854 38.7472 18.854C18.4594 18.854 2 15.0888 2 10.427C2 5.76521 18.4594 2 38.7472 2C59.0351 2 75.4945 5.76521 75.4945 10.427Z" stroke="#3E3A39" stroke-width="2.61778" stroke-linecap="round" stroke-linejoin="round"/>
<path d="M54.9566 72.2868C54.9566 73.6495 53.7759 74.7612 52.3088 74.7612C50.8418 74.7612 49.6606 73.6495 49.6606 72.2868C49.6606 70.9242 50.8418 69.8125 52.3088 69.8125C53.7759 69.8125 54.9566 70.9242 54.9566 72.2868Z" fill="#CB5605"/>
<path d="M38.1031 75.8728C38.1031 77.2355 36.9224 78.3471 35.4554 78.3471C33.9884 78.3471 32.8076 77.2355 32.8076 75.8728C32.8076 74.5101 33.9884 73.3984 35.4554 73.3984C36.9224 73.3984 38.1031 74.5101 38.1031 75.8728Z" fill="#CB5605"/>
<path d="M46.9767 89.0681C46.9767 90.4308 45.7959 91.5424 44.3289 91.5424C42.8619 91.5424 41.6812 90.4308 41.6812 89.0681C41.6812 87.7054 42.8619 86.5938 44.3289 86.5938C45.7959 86.5938 46.9767 87.7054 46.9767 89.0681Z" fill="#CB5605"/>
<path d="M32.1984 97.0601C32.1984 98.4227 31.0176 99.5344 29.5506 99.5344C28.0836 99.5344 26.9028 98.4227 26.9028 97.0601C26.9028 95.6974 28.0836 94.5859 29.5506 94.5859C31.0176 94.5859 32.1984 95.6974 32.1984 97.0601Z" fill="#CB5605"/>
<path d="M27.4757 48.2947C27.4757 49.6573 26.295 50.769 24.8279 50.769C23.3609 50.769 22.1802 49.6573 22.1802 48.2947C22.1802 46.932 23.3609 45.8203 24.8279 45.8203C26.295 45.8203 27.4757 46.932 27.4757 48.2947Z" fill="#CB5605"/>
<path d="M43.1119 57.3962C43.1119 58.7589 41.9312 59.8706 40.4642 59.8706C38.9971 59.8706 37.8164 58.7589 37.8164 57.3962C37.8164 56.0335 38.9971 54.9219 40.4642 54.9219C41.9312 54.9219 43.1119 56.0335 43.1119 57.3962Z" fill="#CB5605"/>
<path d="M26.8673 70.6306C26.8673 71.9933 25.6866 73.1049 24.2195 73.1049C22.7525 73.1049 21.5718 71.9933 21.5718 70.6306C21.5718 69.2679 22.7525 68.1562 24.2195 68.1562C25.6866 68.1562 26.8673 69.2679 26.8673 70.6306Z" fill="#CB5605"/>
<path d="M60.2516 98.1775C60.2516 99.5402 59.0708 100.652 57.6038 100.652C56.1368 100.652 54.9561 99.5402 54.9561 98.1775C54.9561 96.8148 56.1368 95.7031 57.6038 95.7031C59.0708 95.7031 60.2516 96.8148 60.2516 98.1775Z" fill="#CB5605"/>
<path d="M57.0314 43.6306C57.0314 44.9933 55.8506 46.1049 54.3836 46.1049C52.9166 46.1049 51.7358 44.9933 51.7358 43.6306C51.7358 42.2679 52.9166 41.1562 54.3836 41.1562C55.8506 41.1562 57.0314 42.2679 57.0314 43.6306Z" fill="#CB5605"/>
<g opacity="0.5">
<mask id="mask0_1615_1830" style="mask-type:luminance" maskUnits="userSpaceOnUse" x="8" y="21" width="13" height="95">
<path d="M20.0332 21.5781H8.83374V115.244H20.0332V21.5781Z" fill="white"/>
</mask>
<g mask="url(#mask0_1615_1830)">
<mask id="mask1_1615_1830" style="mask-type:luminance" maskUnits="userSpaceOnUse" x="8" y="21" width="13" height="95">
<path d="M20.0332 21.5781H8.83374V115.244H20.0332V21.5781Z" fill="white"/>
</mask>
<g mask="url(#mask1_1615_1830)">
<path d="M8.83374 21.5781L14.7377 24.3394L20.0691 115.244L15.0596 113.057L8.83374 21.5781Z" fill="white"/>
</g>
</g>
</g>
</svg>
