<svg width="147" height="83" viewBox="0 0 147 83" fill="none" xmlns="http://www.w3.org/2000/svg">
<path d="M145.634 51.371C145.634 67.9025 113.538 81.2783 73.9284 81.2783C34.3187 81.2783 2.22339 67.8666 2.22339 51.371C2.22339 34.8754 34.3187 21.4639 73.9284 21.4639C113.538 21.4639 145.634 34.8754 145.634 51.371Z" fill="#F6B170"/>
<path d="M145.634 51.371C145.634 67.9025 113.538 81.2783 73.9284 81.2783C34.3187 81.2783 2.22339 67.8666 2.22339 51.371C2.22339 34.8754 34.3187 21.4639 73.9284 21.4639C113.538 21.4639 145.634 34.8754 145.634 51.371Z" stroke="#3E3A39" stroke-width="2.6895" stroke-linecap="round" stroke-linejoin="round"/>
<path d="M133.254 51.3718C133.254 64.8552 106.704 75.7925 73.9284 75.7925C41.1529 75.7925 14.6035 64.8552 14.6035 51.3718C14.6035 37.8885 41.1529 26.9512 73.9284 26.9512C106.704 26.9512 133.254 37.8885 133.254 51.3718Z" fill="#D19421"/>
<path d="M55.3578 12.2131C55.3578 12.2131 57.5047 11.1732 61.2617 9.34432C65.0188 7.51546 67.9886 2.42326 72.8906 2.10052C77.8284 1.81364 80.941 4.2163 83.6961 6.61892C86.487 9.02154 87.3104 10.2407 92.5702 11.8902C97.83 13.5398 109.637 19.4209 113.716 34.1953C117.831 48.9696 108.457 68.8719 74.1787 68.7285C39.9004 68.585 34.0324 48.6827 33.9966 40.6859C33.9966 30.2507 38.326 18.7754 55.322 12.1772" fill="white"/>
<path d="M55.3578 12.2131C55.3578 12.2131 57.5047 11.1732 61.2617 9.34432C65.0188 7.51546 67.9886 2.42326 72.8906 2.10052C77.8284 1.81364 80.941 4.2163 83.6961 6.61892C86.487 9.02154 87.3104 10.2407 92.5702 11.8902C97.83 13.5398 109.637 19.421 113.716 34.1953C117.831 48.9696 108.457 68.8719 74.1787 68.7285C39.9004 68.585 34.0324 48.6827 33.9966 40.6859C33.9966 30.2507 38.326 18.7754 55.322 12.1772L55.3578 12.2131Z" stroke="#3E3A39" stroke-width="2.6895" stroke-linecap="round" stroke-linejoin="round"/>
<path d="M79.189 12.0684C79.189 12.0684 81.5147 15.9054 84.9855 16.3357L79.189 12.0684Z" fill="white"/>
<path d="M79.189 12.0684C79.189 12.0684 81.5147 15.9054 84.9855 16.3357" stroke="#3E3A39" stroke-width="2.6895" stroke-linecap="round" stroke-linejoin="round"/>
<path d="M71.2801 12.9297C71.2801 12.9297 70.5647 14.651 71.5308 17.197L71.2801 12.9297Z" fill="white"/>
<path d="M71.2801 12.9297C71.2801 12.9297 70.5647 14.651 71.5308 17.197" stroke="#3E3A39" stroke-width="2.6895" stroke-linecap="round" stroke-linejoin="round"/>
<path d="M65.2336 12.5C65.2336 12.5 60.3316 15.5122 59.8665 17.1977L65.2336 12.5Z" fill="white"/>
<path d="M65.2336 12.5C65.2336 12.5 60.3316 15.5122 59.8665 17.1977" stroke="#3E3A39" stroke-width="2.6895" stroke-linecap="round" stroke-linejoin="round"/>
<path d="M105.953 43.9854C105.953 43.9854 102.375 57.5764 88.313 59.1184L105.953 43.9854Z" fill="white"/>
<path d="M105.953 43.9854C105.953 43.9854 102.375 57.5764 88.313 59.1184" stroke="#3E3A39" stroke-width="2.6895" stroke-linecap="round" stroke-linejoin="round"/>
</svg>
