<svg width="64" height="76" viewBox="0 0 64 76" fill="none" xmlns="http://www.w3.org/2000/svg">
<g clip-path="url(#clip0_469_1135)">
<path d="M28.2824 60.4452L29.6305 51.8333C29.8192 45.6435 35.4541 42.1719 41.6552 42.1719C47.8563 42.1719 53.6799 46.1818 53.6799 51.7257L54.6775 60.4452C54.6775 60.4452 43.5425 65.5586 28.2285 60.4452" fill="white"/>
<path d="M41.979 63.4855C37.9887 63.4855 33.2435 62.8935 28.04 61.1442C27.6895 61.0365 27.4738 60.6597 27.5278 60.3099L28.8758 51.698C29.0645 45.6697 34.322 41.3906 41.6554 41.3906C48.9889 41.3906 54.462 46.0195 54.462 51.698L55.4596 60.3368C55.4865 60.6597 55.3248 60.9827 55.0282 61.1173C54.7316 61.2518 49.7438 63.4855 41.979 63.4855ZM29.1454 59.9062C41.8442 63.9699 51.6311 60.8212 53.8958 59.9331L52.9522 51.7787C52.9522 46.8538 47.8835 42.9246 41.6824 42.9246C36.398 42.9246 30.6013 45.7235 30.4126 51.8595L29.1454 59.9331V59.9062Z" fill="#3E3A39"/>
<path d="M57.913 25.2706C57.7782 16.0666 50.1752 8.69269 40.9275 8.85416C31.7067 8.98873 24.3194 16.578 24.4811 25.8088C24.589 33.5865 30.0351 40.0185 37.2877 41.7678V42.4944C37.2877 44.755 39.1211 46.585 41.3858 46.585H41.5206C43.7854 46.585 45.6187 44.755 45.6187 42.4944V41.6332C52.7904 39.6686 58.0209 33.0751 57.8861 25.2975" fill="white"/>
<path d="M41.5211 47.3118C38.6902 47.3118 36.5063 45.1319 36.5063 42.4406V42.3061C29.065 40.2608 23.8076 33.5327 23.6998 25.782C23.538 16.1474 31.2759 8.20835 40.901 8.04688C40.9819 8.04688 41.0897 8.04688 41.1706 8.04688C50.6879 8.04688 58.5067 15.6899 58.6415 25.2168C58.7493 32.9676 53.7346 39.8302 46.3741 42.1446V42.4406C46.3741 45.1319 44.1903 47.3118 41.4942 47.3118M41.1706 9.58087H40.928C32.1386 9.71543 25.0748 16.9817 25.2365 25.7551C25.3444 33.0214 30.3861 39.265 37.45 40.9605C37.8005 41.0412 38.0431 41.3642 38.0431 41.6871V42.4137C38.0431 44.2438 39.553 45.7508 41.3863 45.7508C43.3815 45.7508 44.8643 44.2438 44.8643 42.4137V41.5525C44.8643 41.2027 45.107 40.9067 45.4305 40.8259C52.4404 38.8882 57.2395 32.4831 57.1317 25.2438C56.9969 16.5511 49.8521 9.55396 41.1706 9.55396" fill="#3E3A39"/>
<path d="M45.8071 25.6212C45.8071 26.4286 45.187 27.1014 44.4051 27.1283C43.6232 27.1283 42.9762 26.4824 42.9492 25.6751C42.9492 24.8677 43.5693 24.1949 44.3512 24.168C45.1331 24.168 45.7801 24.8139 45.8071 25.6212Z" fill="#3E3A39"/>
<path d="M39.0122 25.754C39.0122 26.5614 38.3921 27.2342 37.6102 27.2611C36.8283 27.2611 36.1813 26.6152 36.1543 25.8079C36.1543 25.0005 36.7744 24.3277 37.5563 24.3008C38.3382 24.3008 38.9852 24.9467 39.0122 25.754Z" fill="#3E3A39"/>
<path d="M37.9082 31.405C40.0112 32.4276 41.9793 32.3469 43.8666 31.3242L37.9082 31.405Z" fill="white"/>
<path d="M40.8462 32.885C39.7677 32.885 38.6893 32.6159 37.5839 32.0776C37.2064 31.8892 37.0446 31.4317 37.2334 31.055C37.4221 30.6782 37.8804 30.5167 38.2579 30.7051C40.0643 31.5932 41.7898 31.5663 43.5153 30.6244C43.8928 30.436 44.3511 30.5705 44.5399 30.9204C44.7286 31.2972 44.5938 31.7547 44.2433 31.97C43.1379 32.589 42.0055 32.885 40.8462 32.885Z" fill="#3E3A39"/>
<path d="M44.1084 22.4711C43.6771 22.4711 43.3535 22.1481 43.3535 21.7175C43.3535 21.2869 43.6771 20.9371 44.1084 20.9371H46.2114V20.9102C46.6158 20.9102 46.9663 21.2331 46.9663 21.6637C46.9663 22.0943 46.6428 22.4442 46.2114 22.4442H44.1084V22.4711Z" fill="#3E3A39"/>
<path d="M36.0205 22.6059C35.5892 22.6059 35.2656 22.2829 35.2656 21.8523C35.2656 21.4217 35.5892 21.0719 36.0205 21.0719H38.1235C38.501 21.0181 38.9054 21.3679 38.9054 21.7985C38.9054 22.2291 38.5819 22.579 38.1505 22.579H36.0475V22.6059H36.0205Z" fill="#3E3A39"/>
<path d="M40.9272 8.82628C34.0521 8.93393 28.2015 13.1861 25.748 19.1336C32.2187 19.0529 50.4984 18.8376 56.4838 18.7838C53.8416 12.8362 47.8562 8.71863 40.9272 8.82628Z" fill="#FBDACF"/>
<path d="M25.7481 19.9156C25.5054 19.9156 25.2628 19.781 25.101 19.5926C24.9662 19.3773 24.9392 19.1082 25.0201 18.866C27.6893 12.434 33.9173 8.20878 40.9003 8.07422C40.9811 8.07422 41.089 8.07422 41.1699 8.07422C48.0989 8.07422 54.3539 12.138 57.1579 18.4892C57.2657 18.7314 57.2388 19.0006 57.104 19.2159C56.9692 19.4312 56.7265 19.5657 56.4569 19.5657L25.7211 19.9425L25.7481 19.9156ZM40.9542 9.60821C34.9958 9.71586 29.6035 13.1068 26.9613 18.3816L55.2976 18.0586C52.5475 12.8915 47.1553 9.60821 41.2238 9.60821H40.9811H40.9542Z" fill="#3E3A39"/>
<path d="M62.7379 19.9133H25.7471C25.3157 19.9133 24.9922 19.5635 24.9922 19.1598C24.9922 18.7561 25.3427 18.4062 25.7471 18.4062H62.7379C63.1693 18.4062 63.4928 18.7561 63.4928 19.1598C63.4928 19.5635 63.1423 19.9133 62.7379 19.9133Z" fill="#3E3A39"/>
<path d="M44.4051 16.0649H38.0153C37.2334 16.0649 36.6133 15.446 36.6133 14.6655V14.4502C36.6133 13.6967 37.2334 13.0508 38.0153 13.0508H44.4051C45.16 13.0508 45.8071 13.6698 45.8071 14.4502V14.6655C45.8071 15.4191 45.1869 16.0649 44.4051 16.0649Z" fill="white"/>
<path d="M44.4061 16.822H38.0163C36.83 16.822 35.8594 15.8532 35.8594 14.6691V14.4538C35.8594 13.2696 36.83 12.3008 38.0163 12.3008H44.4061C45.5924 12.3008 46.563 13.2696 46.563 14.4538V14.6691C46.563 15.8532 45.5924 16.822 44.4061 16.822ZM38.0163 13.8348C37.6658 13.8348 37.3962 14.1308 37.3962 14.4538V14.6691C37.3962 15.0189 37.6658 15.288 38.0163 15.288H44.4061C44.7566 15.288 45.0262 14.992 45.0262 14.6691V14.4538C45.0262 14.1039 44.7296 13.8348 44.4061 13.8348H38.0163Z" fill="#3E3A39"/>
<path d="M49.6084 62.1397C49.177 62.1397 48.8535 61.7898 48.8535 61.3861V54.5504C48.8535 54.1198 49.204 53.7969 49.6084 53.7969C50.0128 53.7969 50.3633 54.1467 50.3633 54.5504V61.3861C50.3633 61.8167 50.0128 62.1397 49.6084 62.1397Z" fill="#3E3A39"/>
<path d="M33.7823 62.1397C33.3509 62.1397 33.0273 61.7898 33.0273 61.3861V54.5504C33.0273 54.1198 33.3778 53.7969 33.7823 53.7969C34.1867 53.7969 34.5372 54.1467 34.5372 54.5504V61.3861C34.5372 61.8167 34.1867 62.1397 33.7823 62.1397Z" fill="#3E3A39"/>
</g>
<defs>
<clipPath id="clip0_469_1135">
<rect width="63.4937" height="76" fill="white"/>
</clipPath>
</defs>
</svg>
