<svg width="59" height="76" viewBox="0 0 59 76" fill="none" xmlns="http://www.w3.org/2000/svg">
<g clip-path="url(#clip0_469_1160)">
<path d="M57.2619 23.9531H26.1445C22.1078 37.8129 32.0526 42.7109 28.7911 47.0707C24.9683 54.5792 36.4368 59.8271 41.7032 56.1939C46.9697 59.8271 58.4382 54.6061 54.6153 47.0707C51.3539 42.7109 61.2986 37.8129 57.2619 23.9531Z" fill="#C9CACA"/>
<path d="M37.5058 58.1317C34.6989 58.1317 31.7582 57.0014 29.8334 55.3059C27.1869 52.9376 26.5453 49.8158 28.1225 46.7478C29.2186 45.2676 28.577 43.8144 27.2938 41.1501C25.4759 37.3555 22.963 32.1883 25.4225 23.7648C25.5294 23.4419 25.8235 23.2266 26.1443 23.2266H57.2616C57.6091 23.2266 57.9032 23.4419 57.9834 23.7648C60.4429 32.1614 57.9299 37.3555 56.1121 41.1501C54.8289 43.8144 54.1873 45.2676 55.2299 46.6402C56.8606 49.8427 56.2458 52.9645 53.5992 55.3328C50.6585 57.9433 45.3119 59.2081 41.7297 57.1359C40.4999 57.8625 39.0296 58.1855 37.5326 58.1855L37.5058 58.1317ZM26.7057 24.7067C24.6739 32.2152 26.973 36.9518 28.6572 40.4234C29.9404 43.0608 31.0364 45.3215 29.4057 47.5014C27.775 50.7039 29.5928 53.0184 30.8226 54.1217C33.7365 56.7053 38.6019 57.3512 41.2752 55.5212C41.5425 55.3328 41.8633 55.3328 42.1307 55.5212C44.7773 57.3512 49.6694 56.7053 52.5833 54.1217C53.813 53.0184 55.6309 50.7039 53.9467 47.3937C52.3962 45.3215 53.4922 43.0608 54.7487 40.4234C56.4329 36.9518 58.7052 32.2152 56.7002 24.7067H26.7324H26.7057Z" fill="#3E3A39"/>
<path d="M49.8844 63.6491V46.9097C49.8844 46.9097 55.9261 52.3998 55.5518 63.7298C55.5518 63.7298 41.41 69.3545 28.1504 63.7298C28.1504 63.7298 29.1128 54.4451 34.4059 46.8828" fill="white"/>
<path d="M41.1959 67.0096C37.0523 67.0096 32.4275 66.3637 27.8561 64.426C27.5353 64.2915 27.3482 63.9685 27.4016 63.6456C27.4284 63.2688 28.4442 54.0648 33.7909 46.4487C34.0315 46.0988 34.5127 46.0181 34.8602 46.2603C35.2077 46.5025 35.2879 46.9869 35.0473 47.3368C30.6631 53.5804 29.2997 61.1428 29.0056 63.2419C40.3405 67.7631 52.3436 64.0493 54.8298 63.1881C54.9368 55.9218 52.3169 51.1852 50.6595 48.9784V63.6725C50.6595 64.1031 50.3119 64.426 49.9109 64.426C49.5099 64.426 49.1624 64.0762 49.1624 63.6725V46.9331C49.1624 46.6371 49.3495 46.368 49.6169 46.2334C49.8842 46.0988 50.205 46.1527 50.4456 46.368C50.7129 46.6102 56.7546 52.2348 56.3536 63.7801C56.3536 64.0762 56.1665 64.3453 55.8724 64.453C55.4714 64.6144 49.2693 67.0365 41.2494 67.0365L41.1959 67.0096Z" fill="#3E3A39"/>
<path d="M33.2031 64.5103V50.7851C33.2031 45.9678 37.1329 42.0117 41.9181 42.0117C46.7034 42.0117 50.6331 45.9678 50.6331 50.7851V64.5103C50.6331 64.5103 40.5013 67.659 33.2031 64.5103Z" fill="#FBDACF"/>
<path d="M41.0077 66.6625C38.3344 66.6625 35.474 66.2857 32.9076 65.2092C32.6403 65.1016 32.4531 64.8055 32.4531 64.5095V50.7843C32.4531 45.5095 36.7037 41.2305 41.9434 41.2305C47.1831 41.2305 51.4336 45.5095 51.4336 50.7843V64.5095C51.4336 64.8325 51.2198 65.1285 50.899 65.2361C50.6316 65.3169 46.1672 66.6894 41.0345 66.6894L41.0077 66.6625ZM33.9769 63.9713C39.9651 66.2857 47.7979 64.4557 49.9099 63.9174V50.7574C49.9099 46.3438 46.3276 42.7376 41.9434 42.7376C37.5591 42.7376 33.9769 46.3438 33.9769 50.7574V63.9713Z" fill="#3E3A39"/>
<path d="M58.0915 26.321C57.9578 17.2516 50.5527 10.0392 41.5437 10.1737C32.5346 10.3083 25.3701 17.763 25.5038 26.8324C25.6107 34.314 30.69 40.5307 37.5337 42.3876V43.4103C37.5337 45.4825 46.5695 46.1822 46.5695 43.2488V42.2531C53.333 40.1539 58.1984 33.8026 58.0915 26.321Z" fill="white"/>
<path d="M42.4263 45.9647C40.4747 45.9647 36.7856 45.4265 36.7856 43.4081V42.9775C29.7815 40.7976 24.8626 34.2579 24.7557 26.8571C24.622 17.384 32.134 9.57944 41.5441 9.41797C41.6243 9.41797 41.7312 9.41797 41.8114 9.41797C51.0878 9.41797 58.7067 16.9534 58.8671 26.3188C58.9741 33.7197 54.269 40.4208 47.3451 42.816V43.2735C47.3451 44.969 45.5006 45.9916 42.4263 45.9916V45.9647ZM41.8114 10.9251H41.5708C33.0162 11.0596 26.1458 18.1913 26.2794 26.8032C26.3864 33.7466 31.0914 39.8287 37.748 41.6588C38.0688 41.7395 38.3094 42.0624 38.3094 42.3854V43.4081C38.4965 43.9463 41.3569 44.7806 43.9768 44.3231C44.4045 44.2423 45.8481 43.9463 45.8481 43.2466V42.2508C45.8481 41.9279 46.062 41.6319 46.3828 41.5242C52.9591 39.5058 57.477 33.2622 57.3701 26.3457C57.2364 17.8146 50.2858 10.952 41.8381 10.952L41.8114 10.9251Z" fill="#3E3A39"/>
<path d="M46.8095 26.6685C46.8095 27.4759 46.2214 28.1218 45.4462 28.1487C44.6709 28.1487 44.056 27.5297 44.0293 26.7224C44.0293 25.915 44.6174 25.2691 45.3927 25.2422C46.1679 25.2422 46.7828 25.8612 46.8095 26.6685Z" fill="#3E3A39"/>
<path d="M40.1806 26.7779C40.1806 27.5853 39.5925 28.2312 38.8172 28.2581C38.042 28.2581 37.4271 27.6391 37.4004 26.8317C37.4004 26.0244 37.9885 25.3785 38.7638 25.3516C39.539 25.3516 40.1539 25.9705 40.1806 26.7779Z" fill="#3E3A39"/>
<path d="M39.0039 32.6428C41.1426 33.8269 43.1475 33.7193 45.0456 32.5352L39.0039 32.6428Z" fill="white"/>
<path d="M41.9702 34.2608C40.8741 34.2608 39.7513 33.9648 38.6286 33.3458C38.2543 33.1305 38.1206 32.673 38.3345 32.2962C38.5484 31.9194 39.0028 31.7849 39.3503 32.0002C41.1682 33.0228 42.9059 32.9959 44.6435 31.9194C44.991 31.7041 45.4722 31.8118 45.6861 32.1616C45.9 32.5115 45.793 32.9959 45.4455 33.2112C44.296 33.9109 43.1465 34.2608 41.9702 34.2608Z" fill="#3E3A39"/>
<path d="M41.5426 10.1719C34.8326 10.2795 29.1384 14.4509 26.7324 20.3178C29.5394 20.2909 34.6187 20.2101 39.9386 20.1563C40.7138 20.1563 42.2644 17.0614 42.2644 17.0614C42.2644 17.0614 43.7347 20.1025 44.4565 20.1025C49.509 20.0486 54.2141 19.9948 56.7002 19.9679C54.1339 14.128 48.2793 10.0911 41.5426 10.1988" fill="#C9CACA"/>
<path d="M26.7597 21.0709C26.5191 21.0709 26.2785 20.9364 26.1448 20.748C26.0112 20.5327 25.9844 20.2636 26.0646 20.0214C28.6578 13.697 34.7529 9.52562 41.5431 9.41797C41.5431 9.41797 41.7303 9.41797 41.8105 9.41797C48.5739 9.41797 54.6691 13.401 57.4226 19.6446C57.5295 19.8868 57.5028 20.1559 57.3691 20.3712C57.2355 20.5865 56.9949 20.7211 56.7543 20.7211L44.5105 20.8556C44.163 20.8556 43.5481 20.8556 42.2916 18.6488C40.955 20.9095 40.3134 20.9095 39.9926 20.9095L26.7864 21.0709H26.7597ZM41.5699 10.9251C35.7688 11.0058 30.5291 14.3429 27.936 19.51L39.9391 19.3755C39.9391 19.3755 40.6609 18.4874 41.5966 16.7381C41.8639 16.2267 42.7461 16.2267 42.9867 16.7381C43.8422 18.4335 44.457 19.214 44.6442 19.3486L55.4978 19.1871C52.7978 14.1007 47.5581 10.9251 41.7837 10.9251H41.5431H41.5699Z" fill="#3E3A39"/>
<path d="M44.1895 22.8755C44.1895 22.8755 45.2855 22.391 46.3014 22.8755H44.1895Z" fill="white"/>
<path d="M46.3294 23.6303C46.3294 23.6303 46.1155 23.6303 46.0086 23.5495C45.3135 23.2266 44.5115 23.5495 44.5115 23.5495C44.1105 23.711 43.6828 23.5495 43.5224 23.1459C43.362 22.7691 43.5224 22.3116 43.9234 22.1501C43.9769 22.1501 45.3403 21.5311 46.6502 22.1501C47.0244 22.3385 47.1848 22.7691 47.0244 23.1728C46.8908 23.4419 46.6234 23.6303 46.3294 23.6303Z" fill="#3E3A39"/>
<path d="M37.0254 22.8755C37.0254 22.8755 38.1214 22.391 39.1373 22.8755H37.0254Z" fill="white"/>
<path d="M39.138 23.6303C39.138 23.6303 38.9241 23.6303 38.8172 23.5495C38.1221 23.2266 37.3201 23.5495 37.3201 23.5495C36.9191 23.711 36.4914 23.5495 36.331 23.1459C36.1706 22.7691 36.331 22.3116 36.732 22.1501C36.7855 22.1501 38.1488 21.5311 39.4588 22.1501C39.833 22.3385 39.9934 22.7691 39.833 23.1728C39.6994 23.4419 39.432 23.6303 39.138 23.6303Z" fill="#3E3A39"/>
<path d="M37.1582 44.082H47.1029L42.291 56.973L37.1582 44.082Z" fill="white"/>
<path d="M42.291 57.7261C41.9702 57.7261 41.7028 57.5378 41.5959 57.2417L36.4631 44.3508C36.3562 44.1086 36.4097 43.8395 36.5433 43.6511C36.677 43.4627 36.9176 43.3281 37.1582 43.3281H47.1029C47.3435 43.3281 47.5841 43.4358 47.7178 43.6511C47.8514 43.8664 47.9049 44.1086 47.798 44.3508L42.986 57.2417C42.8791 57.5378 42.585 57.7261 42.291 57.7261ZM38.281 44.8352L42.2642 54.8465L46.0069 44.8352H38.281Z" fill="#3E3A39"/>
<path d="M40.7676 52.5613V46.8828H43.4944V52.6151" fill="white"/>
<path d="M43.4955 53.3683C43.0677 53.3683 42.7469 53.0184 42.7469 52.6147V47.6629H41.5439V52.5609C41.5439 52.9915 41.1964 53.3145 40.7954 53.3145C40.3944 53.3145 40.0469 52.9646 40.0469 52.5609V46.8824C40.0469 46.4519 40.3944 46.1289 40.7954 46.1289H43.5222C43.9499 46.1289 44.2707 46.4788 44.2707 46.8824V52.6147C44.2707 53.0453 43.9232 53.3683 43.5222 53.3683H43.4955Z" fill="#3E3A39"/>
<path d="M40.7681 47.6358C40.474 47.6358 40.18 47.4474 40.0463 47.1514L39.0304 44.4602C38.87 44.0565 39.0839 43.6259 39.4582 43.4644C39.8592 43.3029 40.2869 43.5182 40.4473 43.895L41.4632 46.5862C41.6236 46.9899 41.4097 47.4205 41.0354 47.582C40.9552 47.6089 40.8483 47.6358 40.7681 47.6358Z" fill="#3E3A39"/>
<path d="M43.6011 47.3101C43.6011 47.3101 43.3605 47.2832 43.2536 47.2294C42.8793 47.041 42.7456 46.5566 42.9595 46.2067L44.0288 44.2152C44.2159 43.8384 44.6971 43.7039 45.0447 43.9192C45.4189 44.1075 45.5526 44.592 45.3387 44.9418L44.2694 46.9333C44.1357 47.1755 43.8684 47.337 43.6011 47.337V47.3101Z" fill="#3E3A39"/>
<path d="M48.0122 56.2454H46.3013C45.8735 56.2454 45.5527 55.8955 45.5527 55.4918C45.5527 55.0881 45.9003 54.7383 46.3013 54.7383H48.0122C48.4399 54.7383 48.7607 55.0881 48.7607 55.4918C48.7607 55.8955 48.4132 56.2454 48.0122 56.2454Z" fill="#3E3A39"/>
</g>
<defs>
<clipPath id="clip0_469_1160">
<rect width="59" height="76" fill="white"/>
</clipPath>
</defs>
</svg>
