<svg width="66" height="76" viewBox="0 0 66 76" fill="none" xmlns="http://www.w3.org/2000/svg">
<g clip-path="url(#clip0_2085_2004)">
<g clip-path="url(#clip1_2085_2004)">
<path d="M53.5329 53.596H31.3418C28.4672 40.1927 35.5597 35.4541 33.2493 31.23C30.509 23.9462 38.703 18.8827 42.4374 22.4028C46.1986 18.8827 54.3657 23.9462 51.6254 31.23C49.315 35.4541 56.4075 40.1927 53.506 53.596" fill="#C9CACA"/>
<path d="M53.5342 54.352H31.3432C30.9939 54.352 30.6716 54.1083 30.591 53.7563C28.8447 45.6872 30.6447 40.705 31.9342 37.0495C32.7939 34.6396 33.3581 33.042 32.579 31.6069C30.8327 26.9496 33.0357 23.4295 35.4536 21.8049C37.8178 20.2073 40.5313 20.099 42.4387 21.4258C44.3462 20.0719 47.0596 20.1802 49.4238 21.7778C51.8417 23.4025 54.0716 26.9496 52.3521 31.4986C51.5193 33.042 52.0835 34.6396 52.9432 37.0495C54.2327 40.6779 56.0059 45.6872 54.2865 53.7563C54.2059 54.1083 53.9104 54.352 53.5342 54.352ZM31.9611 52.8086H52.8895C54.3133 45.5248 52.6745 40.9216 51.4924 37.564C50.5522 34.9646 49.8268 32.9067 50.9551 30.8488C52.2984 27.2475 50.4984 24.3773 48.5641 23.0505C46.9253 21.9403 44.5342 21.48 42.9492 22.9692C42.6536 23.24 42.1969 23.24 41.9014 22.9692C40.3163 21.48 37.9253 21.9403 36.2865 23.0505C34.3253 24.3773 32.5521 27.2204 33.9492 30.93C35.0238 32.8796 34.2984 34.9375 33.3581 37.5369C32.1492 40.9216 30.5372 45.4977 31.9611 52.7815V52.8086Z" fill="#3E3A39"/>
<path d="M25.0581 64.1827L25.6223 58.8755C25.6223 52.783 33.279 47.8008 42.6014 47.8008C51.9238 47.8008 59.5805 52.783 59.5805 58.8755L60.1447 64.1827C60.1447 64.1827 42.7357 71.1145 25.0312 64.1827" fill="white"/>
<path d="M41.9809 68.0007C36.6884 68.0007 30.7511 67.2154 24.7869 64.8868C24.4645 64.7514 24.2765 64.4265 24.3033 64.0744L24.8675 58.7673C24.8675 52.3228 32.8197 47.0156 42.6257 47.0156C52.4317 47.0156 60.3839 52.3228 60.3839 58.8485L60.9481 64.0744C60.975 64.4265 60.7869 64.7514 60.4645 64.8868C60.357 64.9409 52.4585 68.0007 41.9809 68.0007ZM25.8884 63.6683C41.2018 69.4087 56.3272 64.7243 59.363 63.6683L58.8526 58.9568C58.8526 53.1893 51.572 48.559 42.6257 48.559C33.6794 48.559 26.3988 53.1893 26.3988 58.8756L25.8884 63.6954V63.6683Z" fill="#3E3A39"/>
<path d="M63.9867 17.2023L42.8703 23.3218L21.7539 17.2023L42.8703 10.7578L63.9867 17.2023Z" fill="#FBDACF"/>
<path d="M42.8687 24.0782C42.8687 24.0782 42.7343 24.0782 42.6537 24.0511L21.5642 17.9316C21.2149 17.8504 21 17.5525 21 17.2005C21 16.8485 21.2149 16.5507 21.5373 16.4694L42.6537 10.025C42.7881 9.97084 42.9493 9.97084 43.0836 10.025L64.2 16.4424C64.5224 16.5507 64.7373 16.8485 64.7373 17.1735C64.7373 17.5255 64.5224 17.8233 64.1731 17.9045L43.0567 24.0241C43.0567 24.0241 42.9224 24.0511 42.8418 24.0511L42.8687 24.0782ZM24.4657 17.1735L42.8687 22.5077L61.2716 17.1735L42.8687 11.5684L24.4657 17.1735Z" fill="#3E3A39"/>
<path d="M29.9995 25.7609V33.5321C29.9995 38.9205 33.3309 43.5237 37.9786 45.3921V47.6666C37.9786 50.2931 40.101 52.4322 42.707 52.4322C45.313 52.4322 47.4353 50.2931 47.4353 47.6666V45.2296C51.895 43.28 55.0383 38.7581 55.0383 33.5321V25.7609C55.0383 20.6162 29.9727 20.6162 29.9727 25.7609" fill="white"/>
<path d="M42.7087 53.1889C39.6729 53.1889 37.2013 50.6978 37.2013 47.6651V45.9051C32.3923 43.766 29.1953 38.8649 29.1953 33.5577V25.7865C29.1953 22.3747 36.3684 21.1562 42.4938 21.1562C48.6192 21.1562 55.7923 22.3747 55.7923 25.7865V33.5577C55.7923 38.7837 52.8102 43.4952 48.1893 45.7426V47.6922C48.1893 50.752 45.7177 53.216 42.7087 53.216V53.1889ZM42.5207 22.6455C35.2401 22.6455 30.7535 24.2431 30.7535 25.7323V33.5036C30.7535 38.3775 33.7625 42.8453 38.249 44.6324C38.5446 44.7408 38.7326 45.0386 38.7326 45.3365V47.611C38.7326 49.8042 40.5058 51.6184 42.7087 51.6184C44.9117 51.6184 46.6849 49.8313 46.6849 47.611V45.174C46.6849 44.8761 46.8729 44.5783 47.1416 44.47C51.4938 42.5746 54.2879 38.2422 54.2879 33.4765V25.7053C54.2879 24.92 53.0252 24.1348 50.9296 23.5391C48.7267 22.9434 45.7177 22.5914 42.5207 22.5914V22.6455Z" fill="#3E3A39"/>
<path d="M46.7895 30.3081C46.7895 31.0121 46.279 31.5807 45.6074 31.5807C44.9358 31.5807 44.3984 31.0392 44.3984 30.3351C44.3984 29.6311 44.9089 29.0625 45.5805 29.0625C46.2522 29.0625 46.7895 29.6041 46.7895 30.3081Z" fill="#3E3A39"/>
<path d="M40.2075 30.4174C40.2075 31.1215 39.697 31.6901 39.0254 31.6901C38.3537 31.6901 37.8164 31.1485 37.8164 30.4445C37.8164 29.7405 38.3269 29.1719 38.9985 29.1719C39.6701 29.1719 40.2075 29.7134 40.2075 30.4174Z" fill="#3E3A39"/>
<path d="M39.1602 37.6474C41.4706 38.9471 43.6467 38.8117 45.7154 37.5391L39.1602 37.6474Z" fill="white"/>
<path d="M42.3848 39.3256C41.2027 39.3256 39.9938 39.0006 38.7848 38.3237C38.4087 38.1071 38.2744 37.6468 38.4893 37.2677C38.7042 36.8886 39.1609 36.7532 39.5371 36.9698C41.5251 38.08 43.4326 38.0529 45.3132 36.8615C45.6624 36.6449 46.146 36.7532 46.3609 37.1052C46.5759 37.4572 46.4684 37.9446 46.1191 38.1612C44.8833 38.9194 43.6475 39.2985 42.3848 39.2985V39.3256Z" fill="#3E3A39"/>
<path d="M55.1995 18.6919C46.7906 17.1756 38.3547 17.1756 29.9727 18.6919V24.9739C38.3279 23.7284 46.7368 23.7284 55.1995 24.9739V18.6919Z" fill="#FBDACF"/>
<path d="M55.2013 25.733C55.2013 25.733 55.1207 25.733 55.0938 25.733C46.6849 24.5145 38.2759 24.5145 30.0819 25.733C29.867 25.76 29.6252 25.7059 29.464 25.5434C29.3028 25.381 29.1953 25.1914 29.1953 24.9477V18.6657C29.1953 18.2866 29.464 17.9617 29.8132 17.9076C38.249 16.3641 46.8461 16.3641 55.3087 17.9076C55.6849 17.9617 55.9267 18.2866 55.9267 18.6657V24.9477C55.9267 25.1643 55.8192 25.381 55.658 25.5434C55.5237 25.6517 55.3356 25.733 55.1476 25.733H55.2013ZM42.5207 23.2689C46.4968 23.2689 50.4729 23.5397 54.449 24.0812V19.3156C46.5774 17.9617 38.5983 17.9617 30.7535 19.3156V24.0812C34.649 23.5397 38.5714 23.2689 42.5207 23.2689Z" fill="#3E3A39"/>
<path d="M63.3929 26.3275C62.963 26.3275 62.6406 25.9755 62.6406 25.5694V17.0941C62.6406 16.6609 62.9899 16.3359 63.3929 16.3359C63.7958 16.3359 64.1451 16.6879 64.1451 17.0941V25.5694C64.1451 26.0026 63.7958 26.3275 63.3929 26.3275Z" fill="#3E3A39"/>
<path d="M63.4489 30.9596C62.4818 30.9596 61.6758 30.1473 61.6758 29.1725V27.8457C61.6758 26.8709 62.4818 26.0586 63.4489 26.0586C64.4161 26.0586 65.222 26.8709 65.222 27.8457V29.1725C65.222 30.1473 64.4161 30.9596 63.4489 30.9596Z" fill="white"/>
<path d="M63.4472 31.7142C62.0502 31.7142 60.9219 30.577 60.9219 29.169V27.8422C60.9219 26.4341 62.0502 25.2969 63.4472 25.2969C64.8443 25.2969 65.9726 26.4341 65.9726 27.8422V29.169C65.9726 30.577 64.8443 31.7142 63.4472 31.7142ZM63.4472 26.8132C62.8831 26.8132 62.4532 27.2735 62.4532 27.8151V29.1419C62.4532 29.7105 62.9099 30.1437 63.4472 30.1437C63.9846 30.1437 64.4413 29.6834 64.4413 29.1419V27.8151C64.4413 27.2465 63.9846 26.8132 63.4472 26.8132Z" fill="#3E3A39"/>
<path d="M46.145 28.0593H44.2913C43.8614 28.0593 43.5391 27.7073 43.5391 27.3011C43.5391 26.895 43.8883 26.543 44.2913 26.543H46.145C46.5749 26.543 46.8973 26.895 46.8973 27.3011C46.8973 27.7073 46.548 28.0593 46.145 28.0593Z" fill="#3E3A39"/>
<path d="M39.8872 28.0593H38.0335C37.6036 28.0593 37.2812 27.7073 37.2812 27.3011C37.2812 26.895 37.6305 26.543 38.0335 26.543H39.8872C40.3171 26.543 40.6395 26.895 40.6395 27.3011C40.6395 27.7073 40.2902 28.0593 39.8872 28.0593Z" fill="#3E3A39"/>
<path d="M42.7091 59.9047C42.7091 59.9047 42.4942 59.9047 42.3867 59.8235L28.739 53.5957C28.3628 53.4332 28.1748 52.9729 28.3628 52.5667C28.524 52.1876 29.0076 51.9981 29.3837 52.1876L42.736 58.2801L56.7599 52.5396C57.1628 52.3772 57.5927 52.5667 57.7539 52.9729C57.9151 53.379 57.727 53.8123 57.324 53.9748L43.0046 59.8506C43.0046 59.8506 42.8166 59.9047 42.7091 59.9047Z" fill="#3E3A39"/>
<path d="M42.6819 64.3167C42.2521 64.3167 41.9297 63.9647 41.9297 63.5585V59.1449C41.9297 58.7116 42.2789 58.3867 42.6819 58.3867C43.0849 58.3867 43.4342 58.7387 43.4342 59.1449V63.5585C43.4342 63.9918 43.0849 64.3167 42.6819 64.3167Z" fill="#3E3A39"/>
</g>
</g>
<defs>
<clipPath id="clip0_2085_2004">
<rect width="65.7297" height="76" fill="white"/>
</clipPath>
<clipPath id="clip1_2085_2004">
<rect width="45" height="58" fill="white" transform="translate(21 10)"/>
</clipPath>
</defs>
</svg>
