<svg width="208" height="269" viewBox="0 0 208 269" fill="none" xmlns="http://www.w3.org/2000/svg">
<path d="M2 40.3984V252.579C2 260.237 8.17215 266.485 15.716 266.485H191.663C199.207 266.485 205.379 260.237 205.379 252.579V40.3984H2Z" fill="white"/>
<path d="M2 40.3984V252.579C2 260.237 8.17215 266.485 15.716 266.485H191.663C199.207 266.485 205.379 260.237 205.379 252.579V40.3984H2Z" stroke="#727171" stroke-width="3.54332" stroke-linecap="round" stroke-linejoin="round"/>
<path d="M82.4295 96.6389C82.3533 97.3628 82.0103 98.0867 81.4007 98.7725C80.8292 99.3822 79.9149 99.687 78.6195 99.7251C77.3241 99.7251 76.4475 99.7632 75.9903 99.7632L74.7713 95.6864L77.8195 95.7625C78.3148 95.7625 78.5814 95.496 78.6195 95.0007C78.6195 94.4673 78.6576 94.048 78.6576 93.6289V90.5049H69.247C68.9803 92.2194 68.4849 93.9338 67.7229 95.6864C66.9608 97.439 66.0843 98.9249 65.0556 100.144L61.665 97.7056C62.2746 97.0198 63.0747 95.8389 64.0272 94.0482C64.9797 92.2574 65.5128 89.9332 65.6272 86.9995C65.7415 83.0751 65.7797 79.7605 65.7416 77.0553C65.6654 74.3121 65.6272 72.9024 65.6272 72.75H82.582V94.0861C82.582 95.0386 82.5438 95.915 82.4676 96.6389M78.6195 83.1513H69.5516V87.152H78.6195V83.1513ZM78.6195 76.0266H69.5516V79.8747H78.6195V76.0266Z" fill="#AADBF6"/>
<path d="M154.211 73.2578H173.642V99.1278H154.211V73.2578ZM169.565 76.8011H158.25V84.1163H169.565V76.8011ZM169.565 87.6598H158.25V95.5845H169.565V87.6598Z" fill="#AADBF6"/>
<path d="M146.173 238.025C146.173 248.084 128.037 256.199 105.634 256.199C83.2315 256.199 65.0957 248.046 65.0957 238.025C65.0957 228.005 83.2315 219.852 105.634 219.852C128.037 219.852 146.173 228.005 146.173 238.025Z" fill="white"/>
<path d="M134.554 213.992V233.5C134.554 241.196 121.142 247.406 104.645 247.406C88.1475 247.406 74.7363 241.196 74.7363 233.5V214.373" fill="#FCE7CB"/>
<path d="M135.617 205.114V212.506C135.617 218.83 121.749 223.974 104.604 223.974C87.4584 223.974 73.5898 218.83 73.5898 212.506V205" fill="#F2A3C5"/>
<path d="M135.617 206.054C135.617 212.417 121.749 217.522 104.604 217.522C87.4584 217.522 73.5898 212.379 73.5898 206.054C73.5898 199.73 87.4584 194.586 104.604 194.586C121.749 194.586 135.617 199.73 135.617 206.054Z" fill="#F9D7E6"/>
<path d="M109.292 178.757V203.598C109.292 204.475 107.044 205.16 104.262 205.16C101.481 205.16 99.2334 204.475 99.2334 203.598V178.719" fill="white"/>
<path d="M109.292 178.914C109.292 179.79 107.044 180.476 104.262 180.476C101.481 180.476 99.2334 179.79 99.2334 178.914C99.2334 178.037 101.481 177.352 104.262 177.352C107.044 177.352 109.292 178.037 109.292 178.914Z" fill="#FCE7CD"/>
<path d="M104.261 180.826C104.261 180.826 100.26 179.188 99.7651 175.682C99.2317 172.177 104.146 163.414 104.146 163.414C104.146 163.414 107.156 168.786 108.071 173.282C108.985 177.778 104.261 180.788 104.261 180.788" fill="#F8B700"/>
<path d="M103.881 178.316C103.881 178.316 102.128 177.744 101.9 176.525C101.671 175.306 103.843 172.258 103.843 172.258C103.843 172.258 105.176 174.125 105.557 175.687C105.976 177.249 103.881 178.278 103.881 178.278" fill="#FFED00"/>
<path d="M109.293 186.336V180.773C107.274 181.802 103.845 183.098 99.1963 182.907V187.822C99.463 187.822 99.7677 187.898 100.073 187.898C103.768 187.898 106.855 187.212 109.293 186.298" fill="#ACDDF4"/>
<path d="M109.293 193.553V187.914C107.464 188.943 103.997 190.429 99.1963 190.353V195.268C99.1963 195.268 99.4248 195.268 99.5772 195.268C103.54 195.268 106.778 194.467 109.293 193.477" fill="#ACDDF4"/>
<path d="M99.2334 202.814C103.386 202.814 106.777 201.861 109.33 200.832V195.117C107.729 196.108 104.263 197.784 99.2334 197.822V202.775V202.814Z" fill="#ACDDF4"/>
<path d="M88.9842 202.91L86.203 200.776C85.3648 200.129 85.2125 198.91 85.8602 198.033C86.5079 197.195 87.727 197.042 88.6033 197.69L91.3464 199.824C92.1846 200.472 92.3369 201.729 91.6892 202.567C91.0415 203.405 89.8224 203.558 88.9461 202.91" fill="#ACDDF4"/>
<path d="M101.024 210.877L97.8617 212.324C96.8711 212.743 95.7279 212.324 95.2707 211.334C94.8135 210.343 95.2707 209.2 96.2613 208.743L99.4235 207.295C100.414 206.838 101.557 207.295 101.976 208.286C102.434 209.276 101.976 210.419 101.024 210.877Z" fill="#B9D6C3"/>
<path d="M116.15 204.915L112.644 204.839C111.578 204.839 110.701 203.925 110.739 202.858C110.739 201.791 111.654 200.953 112.721 200.953L116.226 201.029C117.293 201.029 118.169 201.944 118.131 203.01C118.131 204.077 117.217 204.954 116.15 204.915Z" fill="white"/>
<path d="M111.728 211.495L109.252 209.057C108.49 208.295 108.49 207.076 109.252 206.314C110.014 205.552 111.233 205.552 111.995 206.314L114.472 208.752C115.234 209.514 115.234 210.733 114.472 211.495C113.71 212.257 112.49 212.257 111.728 211.495Z" fill="#FFED00"/>
<path d="M126.511 206.904L123.083 207.552C122.016 207.742 121.025 207.057 120.796 205.99C120.606 204.923 121.33 203.932 122.358 203.742L125.787 203.094C126.854 202.904 127.883 203.589 128.073 204.656C128.264 205.723 127.578 206.714 126.511 206.942" fill="#F2A3C5"/>
<path d="M88.2595 209.177L84.8304 209.824C83.7635 210.015 82.773 209.329 82.5444 208.262C82.3539 207.196 83.0394 206.205 84.1062 205.976L87.5353 205.329C88.6021 205.138 89.5926 205.824 89.8212 206.891C90.0118 207.958 89.3263 208.948 88.2595 209.177Z" fill="white"/>
<path d="M205.379 4.55265C205.379 3.14294 204.236 2 202.864 2H4.51475C3.14314 2 2 3.14294 2 4.55265V47.2631H205.379V4.55265Z" fill="#F9D7E6"/>
<path d="M205.379 4.55265C205.379 3.14294 204.236 2 202.864 2H4.51475C3.14314 2 2 3.14294 2 4.55265V47.2631H205.379V4.55265Z" stroke="#727171" stroke-width="3.54332" stroke-linecap="round" stroke-linejoin="round"/>
<path d="M173.796 24.1905C173.796 28.7244 170.1 32.4203 165.566 32.4203C161.032 32.4203 157.337 28.7244 157.337 24.1905C157.337 19.6566 161.032 15.9609 165.566 15.9609C170.1 15.9609 173.796 19.6566 173.796 24.1905Z" fill="white"/>
<path d="M47.9865 24.1905C47.9865 28.7244 44.2911 32.4203 39.7571 32.4203C35.2232 32.4203 31.5273 28.7244 31.5273 24.1905C31.5273 19.6566 35.2232 15.9609 39.7571 15.9609C44.2911 15.9609 47.9865 19.6566 47.9865 24.1905Z" fill="white"/>
<path d="M82.6223 151.698H38.5781V146.63H57.4376V140.229H44.2169V115.655H77.0212V120.608H50.1989V125.522H76.8309V130.437H50.1989V135.276H77.3263V140.229H63.6098V146.63H82.5841V151.698H82.6223ZM127.657 151.621H83.6124V146.554H94.5853V138.248H100.491V146.554H110.854V138.248H116.798V146.554H127.657V151.621ZM123.008 125.751C123.008 129.066 121.446 131.809 118.36 134.019C115.274 136.229 111.007 137.334 105.634 137.334C100.262 137.334 96.0715 136.229 92.9473 134.019C89.8231 131.809 88.261 129.066 88.261 125.751C88.261 122.437 89.823 119.617 92.9091 117.445C95.9953 115.273 100.262 114.207 105.634 114.207C111.007 114.207 115.274 115.273 118.36 117.445C121.446 119.617 122.97 122.398 122.97 125.751H123.008ZM116.684 125.789C116.684 123.77 115.617 122.17 113.483 120.989C111.35 119.808 108.721 119.236 105.634 119.236C102.548 119.236 99.9578 119.846 97.8242 121.027C95.6906 122.246 94.5853 123.808 94.5853 125.789C94.5853 127.77 95.6525 129.333 97.8242 130.476C99.9959 131.657 102.586 132.228 105.634 132.228C108.683 132.228 111.274 131.619 113.445 130.437C115.617 129.256 116.684 127.694 116.684 125.751V125.789ZM154.898 124.037C154.898 127.123 153.679 129.599 151.279 131.504C148.878 133.409 146.097 134.4 142.935 134.4C139.772 134.4 137.067 133.447 134.629 131.542C132.19 129.637 130.971 127.123 130.971 124.037C130.971 120.951 132.19 118.474 134.591 116.569C136.991 114.664 139.772 113.711 142.935 113.711C146.097 113.711 148.84 114.664 151.279 116.569C153.679 118.474 154.898 120.951 154.898 124.037ZM148.954 123.96C148.954 122.513 148.345 121.331 147.126 120.341C145.907 119.35 144.497 118.855 142.935 118.855C141.373 118.855 139.963 119.35 138.744 120.341C137.525 121.331 136.915 122.551 136.915 123.96C136.915 125.37 137.525 126.628 138.744 127.656C139.963 128.685 141.335 129.218 142.935 129.218C144.535 129.218 145.907 128.685 147.126 127.656C148.345 126.628 148.954 125.37 148.954 123.96ZM170.634 156.003H137.524V144.306H163.052V141.601H137.524V136.952H169.529V148.611H143.964V151.316H170.634V156.003ZM169.567 135.39H163.776V112.492H169.567V135.39Z" fill="#AADBF6"/>
<path d="M53.8951 78.4484C56.2573 80.3915 57.4381 83.5538 57.4381 87.9353C57.4381 92.0883 56.0667 95.3649 53.3616 97.689C50.6565 100.013 47.6849 101.194 44.5225 101.194C40.6363 101.194 37.6263 100.013 35.4165 97.6511C33.2067 95.2889 31.9494 92.7361 31.5684 89.9548H37.1308C37.3976 91.5169 38.1595 92.9265 39.4168 94.1457C40.6741 95.3649 42.3507 95.9747 44.37 95.9747C46.3893 95.9747 48.0273 95.2507 49.3227 93.7648C50.6182 92.2789 51.3041 90.3739 51.3422 88.0497C51.4184 85.7637 50.8089 83.8205 49.5897 82.2203C48.3705 80.6201 46.6562 79.8581 44.5225 79.8581C43.0366 79.8581 41.703 80.1248 40.6362 80.6201C39.5313 81.1535 38.693 81.8393 38.0834 82.6775H32.4446L35.4547 62.4844H55.8763V67.7041H40.3693L39.0359 76.5434C40.217 75.8576 41.5125 75.4386 42.9984 75.21C44.4843 74.9814 45.8559 74.9432 47.1894 75.0956C49.323 75.4004 51.571 76.5053 53.9332 78.4484H53.8951Z" fill="#AADBF6"/>
<path d="M111.808 100.541V73.5658H103.807V68.7652C105.064 68.7652 106.245 68.6128 107.35 68.308C108.455 68.0032 109.445 67.546 110.284 66.9364C110.893 66.4792 111.465 65.7933 111.998 64.8789C112.532 63.9645 112.798 63.0119 112.836 61.9832H117.485V100.541H111.769H111.808ZM144.498 93.6827V100.541H138.935V93.6827H122.171V87.4723L138.821 61.9453H144.46V88.7297H149.527V93.6827H144.46H144.498ZM138.973 71.1655L127.772 88.7297H138.973V71.1655Z" fill="#AADBF6"/>
</svg>
