<svg width="61" height="19" viewBox="0 0 61 19" fill="none" xmlns="http://www.w3.org/2000/svg">
<path d="M10.89 2.88V12.63H9.42V2.88H10.89ZM12.78 6.84V8.04H10.47V6.84H12.78ZM11.46 14.7V15.9H2.52V14.7H11.46ZM3.99 11.625V15.21H2.52V11.625H3.99ZM4.245 3.795C4.905 3.795 5.5 3.935 6.03 4.215C6.57 4.495 6.99 4.89 7.29 5.4C7.6 5.9 7.755 6.47 7.755 7.11C7.755 7.74 7.6 8.31 7.29 8.82C6.99 9.32 6.57 9.715 6.03 10.005C5.5 10.285 4.905 10.425 4.245 10.425C3.585 10.425 2.985 10.285 2.445 10.005C1.915 9.715 1.495 9.32 1.185 8.82C0.885 8.31 0.735 7.74 0.735 7.11C0.735 6.47 0.885 5.9 1.185 5.4C1.495 4.89 1.915 4.495 2.445 4.215C2.985 3.935 3.585 3.795 4.245 3.795ZM4.245 5.07C3.855 5.07 3.5 5.16 3.18 5.34C2.86 5.51 2.61 5.75 2.43 6.06C2.25 6.36 2.16 6.71 2.16 7.11C2.16 7.5 2.25 7.85 2.43 8.16C2.61 8.47 2.86 8.71 3.18 8.88C3.5 9.05 3.855 9.135 4.245 9.135C4.635 9.135 4.99 9.05 5.31 8.88C5.63 8.71 5.88 8.47 6.06 8.16C6.24 7.85 6.33 7.5 6.33 7.11C6.33 6.71 6.24 6.36 6.06 6.06C5.88 5.75 5.63 5.51 5.31 5.34C4.99 5.16 4.635 5.07 4.245 5.07ZM20.3704 9.555V11.865H18.9004V9.555H20.3704ZM25.6354 9.045V10.23H13.6504V9.045H25.6354ZM19.6354 11.46C21.0654 11.46 22.1804 11.665 22.9804 12.075C23.7904 12.485 24.1954 13.065 24.1954 13.815C24.1954 14.555 23.7904 15.13 22.9804 15.54C22.1804 15.95 21.0654 16.155 19.6354 16.155C18.1954 16.155 17.0704 15.95 16.2604 15.54C15.4604 15.13 15.0604 14.555 15.0604 13.815C15.0604 13.065 15.4604 12.485 16.2604 12.075C17.0704 11.665 18.1954 11.46 19.6354 11.46ZM19.6354 12.585C18.6354 12.585 17.8704 12.69 17.3404 12.9C16.8104 13.11 16.5454 13.415 16.5454 13.815C16.5454 14.215 16.8104 14.52 17.3404 14.73C17.8704 14.93 18.6354 15.03 19.6354 15.03C20.6254 15.03 21.3854 14.93 21.9154 14.73C22.4454 14.52 22.7104 14.215 22.7104 13.815C22.7104 13.415 22.4454 13.11 21.9154 12.9C21.3854 12.69 20.6254 12.585 19.6354 12.585ZM19.9654 4.065V4.425C19.9654 5.105 19.7404 5.725 19.2904 6.285C18.8504 6.835 18.2354 7.29 17.4454 7.65C16.6654 8.01 15.7754 8.245 14.7754 8.355L14.2504 7.185C15.1004 7.105 15.8604 6.93 16.5304 6.66C17.2004 6.39 17.7204 6.06 18.0904 5.67C18.4704 5.28 18.6604 4.865 18.6604 4.425V4.065H19.9654ZM20.6404 4.065V4.425C20.6404 4.865 20.8254 5.28 21.1954 5.67C21.5754 6.06 22.1004 6.39 22.7704 6.66C23.4404 6.93 24.1954 7.105 25.0354 7.185L24.5104 8.355C23.5104 8.245 22.6154 8.01 21.8254 7.65C21.0454 7.29 20.4304 6.835 19.9804 6.285C19.5404 5.725 19.3204 5.105 19.3204 4.425V4.065H20.6404ZM24.5704 3.495V4.665H14.7454V3.495H24.5704ZM36.7207 3.675V4.845H28.2757V3.675H36.7207ZM38.7907 8.91V10.11H26.7607V8.91H38.7907ZM37.2907 3.675V4.74C37.2907 5.6 37.2657 6.375 37.2157 7.065C37.1757 7.745 37.0607 8.525 36.8707 9.405L35.4157 9.255C35.6057 8.405 35.7207 7.65 35.7607 6.99C35.8107 6.32 35.8357 5.57 35.8357 4.74V3.675H37.2907ZM37.6807 14.7V15.9H28.3207V14.7H37.6807ZM29.7907 11.46V14.85H28.3207V11.46H29.7907Z" fill="#3E3A39"/>
<path d="M43.9999 9.50004C43.9999 5.08545 47.5931 1.49219 52.0077 1.49219C56.4223 1.49219 60.0156 5.06491 60.0156 9.50004C60.0156 13.9352 56.4223 17.5079 52.0077 17.5079C47.5931 17.5079 43.9999 13.9352 43.9999 9.50004Z" fill="#96621E"/>
<path d="M51.0156 6.55078L55.0156 9.55078L51.0156 12.5508" stroke="white" stroke-width="2" stroke-linecap="round" stroke-linejoin="round"/>
</svg>
