<svg width="69" height="21" viewBox="0 0 69 21" fill="none" xmlns="http://www.w3.org/2000/svg">
<path d="M16.0157 10.461C16.0157 6.04639 12.4225 2.45312 8.00788 2.45312C3.59329 2.45312 0 6.02585 0 10.461C0 14.8961 3.59329 18.4689 8.00788 18.4689C12.4225 18.4689 16.0157 14.8961 16.0157 10.461Z" fill="#96621E"/>
<path d="M9 7.51172L5 10.5117L9 13.5117" stroke="white" stroke-width="2" stroke-linecap="round" stroke-linejoin="round"/>
<path d="M26.5556 4.195C27.4856 4.195 28.3056 4.305 29.0156 4.525C29.7256 4.745 30.2756 5.06 30.6656 5.47C31.0556 5.87 31.2506 6.34 31.2506 6.88C31.2506 7.43 31.0556 7.91 30.6656 8.32C30.2756 8.72 29.7256 9.03 29.0156 9.25C28.3056 9.47 27.4856 9.58 26.5556 9.58C25.6256 9.58 24.8006 9.47 24.0806 9.25C23.3706 9.03 22.8206 8.72 22.4306 8.32C22.0406 7.91 21.8456 7.43 21.8456 6.88C21.8456 6.34 22.0406 5.87 22.4306 5.47C22.8206 5.06 23.3706 4.745 24.0806 4.525C24.8006 4.305 25.6256 4.195 26.5556 4.195ZM26.5556 5.38C25.9256 5.38 25.3756 5.44 24.9056 5.56C24.4356 5.68 24.0706 5.855 23.8106 6.085C23.5606 6.305 23.4356 6.57 23.4356 6.88C23.4356 7.2 23.5606 7.475 23.8106 7.705C24.0706 7.925 24.4356 8.095 24.9056 8.215C25.3756 8.325 25.9256 8.38 26.5556 8.38C27.1856 8.38 27.7306 8.325 28.1906 8.215C28.6606 8.095 29.0256 7.925 29.2856 7.705C29.5456 7.475 29.6756 7.2 29.6756 6.88C29.6756 6.57 29.5456 6.305 29.2856 6.085C29.0256 5.855 28.6606 5.68 28.1906 5.56C27.7306 5.44 27.1856 5.38 26.5556 5.38ZM32.5556 10.465V11.65H20.5706V10.465H32.5556ZM31.3556 15.7V16.9H21.9806V15.7H31.3556ZM23.4656 13.12V16.345H21.9806V13.12H23.4656ZM26.1806 10.915V14.23H24.7106V10.915H26.1806ZM29.6006 10.915V14.245H28.1306V10.915H29.6006ZM45.651 10.465V11.635H33.666V10.465H45.651ZM40.386 8.725V10.81H38.916V8.725H40.386ZM39.651 12.475C41.081 12.475 42.196 12.685 42.996 13.105C43.796 13.515 44.196 14.09 44.196 14.83C44.196 15.57 43.796 16.14 42.996 16.54C42.196 16.95 41.081 17.155 39.651 17.155C38.211 17.155 37.086 16.95 36.276 16.54C35.476 16.14 35.076 15.57 35.076 14.83C35.076 14.08 35.476 13.5 36.276 13.09C37.086 12.68 38.211 12.475 39.651 12.475ZM39.651 13.615C38.651 13.615 37.886 13.72 37.356 13.93C36.836 14.13 36.576 14.43 36.576 14.83C36.576 15.08 36.696 15.3 36.936 15.49C37.176 15.67 37.521 15.81 37.971 15.91C38.431 16 38.991 16.045 39.651 16.045C40.301 16.045 40.856 16 41.316 15.91C41.776 15.81 42.126 15.67 42.366 15.49C42.606 15.3 42.726 15.08 42.726 14.83C42.726 14.43 42.461 14.13 41.931 13.93C41.401 13.72 40.641 13.615 39.651 13.615ZM36.696 4.255V5.59H42.636V4.255H44.106V9.205H35.241V4.255H36.696ZM36.696 8.035H42.636V6.715H36.696V8.035ZM57.7113 3.895V10.63H56.2263V3.895H57.7113ZM53.7363 4.48C53.7363 5.63 53.4963 6.63 53.0163 7.48C52.5363 8.33 51.8313 9.04 50.9013 9.61C49.9813 10.17 48.8463 10.6 47.4963 10.9L46.9863 9.715C48.7063 9.355 49.9963 8.795 50.8563 8.035C51.7163 7.275 52.1463 6.355 52.1463 5.275V4.48H53.7363ZM53.1363 4.48V5.665H47.6613V4.48H53.1363ZM57.7113 11.23V14.605H50.5113V16.39H49.0563V13.51H56.2263V12.385H49.0263V11.23H57.7113ZM58.1013 15.895V17.035H49.0563V15.895H58.1013Z" fill="#3E3A39"/>
</svg>
