<svg width="477" height="72" viewBox="0 0 477 72" fill="none" xmlns="http://www.w3.org/2000/svg">
<mask id="path-1-inside-1_2904_16667" fill="white">
<path d="M477 72H23.1504L0 47.7393V23.4785L23.1504 0H477V72ZM10.5469 31.6104C8.30677 31.6104 6.49121 33.3558 6.49121 35.5088C6.49129 37.6617 8.30682 39.4072 10.5469 39.4072C12.7869 39.4072 14.6025 37.6617 14.6025 35.5088C14.6025 33.3558 12.7869 31.6104 10.5469 31.6104Z"/>
</mask>
<path d="M477 72H23.1504L0 47.7393V23.4785L23.1504 0H477V72ZM10.5469 31.6104C8.30677 31.6104 6.49121 33.3558 6.49121 35.5088C6.49129 37.6617 8.30682 39.4072 10.5469 39.4072C12.7869 39.4072 14.6025 37.6617 14.6025 35.5088C14.6025 33.3558 12.7869 31.6104 10.5469 31.6104Z" fill="#ECC8C1"/>
<path d="M477 72V73H478V72H477ZM23.1504 72L22.4269 72.6904L22.7224 73H23.1504V72ZM0 47.7393H-1V48.1398L-0.723469 48.4296L0 47.7393ZM0 23.4785L-0.712065 22.7764L-1 23.0684V23.4785H0ZM23.1504 0V-1H22.732L22.4383 -0.702114L23.1504 0ZM477 0H478V-1H477V0ZM10.5469 31.6104L10.5469 30.6104H10.5469V31.6104ZM6.49121 35.5088L5.49121 35.5088L5.49121 35.5088L6.49121 35.5088ZM10.5469 39.4072L10.5469 40.4072L10.5469 40.4072L10.5469 39.4072ZM14.6025 35.5088L15.6025 35.5088V35.5088H14.6025ZM477 72V71H23.1504V72V73H477V72ZM23.1504 72L23.8739 71.3096L0.723469 47.0489L0 47.7393L-0.723469 48.4296L22.4269 72.6904L23.1504 72ZM0 47.7393H1V23.4785H0H-1V47.7393H0ZM0 23.4785L0.712065 24.1806L23.8625 0.702114L23.1504 0L22.4383 -0.702114L-0.712065 22.7764L0 23.4785ZM23.1504 0V1H477V0V-1H23.1504V0ZM477 0H476V72H477H478V0H477ZM10.5469 31.6104V30.6104C7.79207 30.6104 5.49121 32.7667 5.49121 35.5088H6.49121H7.49121C7.49121 33.9449 8.82147 32.6104 10.5469 32.6104V31.6104ZM6.49121 35.5088L5.49121 35.5088C5.49131 38.2508 7.79208 40.4072 10.5469 40.4072V39.4072V38.4072C8.82155 38.4072 7.49127 37.0726 7.49121 35.5088L6.49121 35.5088ZM10.5469 39.4072L10.5469 40.4072C13.3016 40.4072 15.6024 38.2508 15.6025 35.5088L14.6025 35.5088L13.6025 35.5088C13.6025 37.0725 12.2722 38.4072 10.5469 38.4072L10.5469 39.4072ZM14.6025 35.5088H15.6025C15.6025 32.7667 13.3016 30.6104 10.5469 30.6104L10.5469 31.6104L10.5469 32.6104C12.2723 32.6104 13.6025 33.945 13.6025 35.5088H14.6025Z" fill="#DA9186" mask="url(#path-1-inside-1_2904_16667)"/>
</svg>
